<svg xmlns:xlink="http://www.w3.org/1999/xlink" xmlns="http://www.w3.org/2000/svg" height="19.8px" width="15.75px">
  <g transform="matrix(1.0, 0.0, 0.0, 1.0, 51.95, -6.2)">
    <path d="M-46.9 12.15 Q-46.2 11.65 -43.75 11.15 -41.3 10.6 -38.3 14.0 L-37.8 15.8 -36.9 13.35 Q-36.4 15.75 -37.3 17.75 L-38.85 21.25 -40.55 25.5 -41.3 19.7 -43.5 16.75 -44.4 15.9 -44.4 15.7 -46.65 13.65 -46.8 12.85 -46.9 12.15 -46.9 12.45 Q-47.55 9.6 -48.95 7.1 L-48.95 6.75 -43.6 6.95 Q-42.5 7.2 -41.45 7.9 L-41.7 8.2 -43.15 8.25 -46.2 9.35 Q-46.85 10.5 -46.9 12.15 M-37.8 15.8 Q-40.4 18.3 -44.4 15.7 -40.4 18.3 -37.8 15.8 M-46.2 9.35 Q-45.4 7.8 -43.6 6.95 -45.4 7.8 -46.2 9.35" fill="#000000" fill-rule="evenodd" stroke="none"/>
    <path d="M-37.8 15.8 L-36.9 13.35 Q-39.05 9.45 -41.45 7.9 -42.5 7.2 -43.6 6.95 -45.4 7.8 -46.2 9.35 -46.85 10.5 -46.9 12.15 L-46.9 12.45 Q-47.55 9.6 -48.95 7.1 L-50.35 6.7 -51.45 6.85 M-46.8 12.85 L-46.65 13.65 -44.4 15.7 Q-40.4 18.3 -37.8 15.8 M-44.4 15.9 L-43.5 16.75 -41.3 19.7 -40.55 25.5 -38.85 21.25 -37.3 17.75 Q-36.4 15.75 -36.9 13.35 M-48.95 6.75 L-50.35 6.7 M-48.95 6.75 L-43.6 6.95 M-46.65 13.65 Q-46.4 14.75 -45.3 15.4 L-44.4 15.9 M-46.8 12.85 L-46.9 12.45" fill="none" stroke="#000000" stroke-linecap="round" stroke-linejoin="round" stroke-width="2.0"/>
  </g>
</svg>