<svg xmlns:xlink="http://www.w3.org/1999/xlink" xmlns="http://www.w3.org/2000/svg" height="18.3px" width="28.9px">
  <g transform="matrix(1.0, 0.0, 0.0, 1.0, 15.3, -7.9)">
    <path d="M2.1 8.95 Q11.25 8.9 13.1 15.05 10.65 11.65 9.75 16.65 8.8 21.55 3.25 24.8 -2.3 28.05 -10.5 19.25 L-14.8 21.45 Q-13.2 15.35 -4.95 8.4 L0.5 8.95 Q-8.65 9.5 -7.55 18.45 -7.25 21.15 -4.9 22.45 3.25 26.65 8.65 19.5 L8.65 18.7 Q9.15 10.95 2.1 8.95" fill="#000000" fill-rule="evenodd" stroke="none"/>
    <path d="M2.1 8.95 Q11.25 8.9 13.1 15.05 10.65 11.65 9.75 16.65 8.8 21.55 3.25 24.8 -2.3 28.05 -10.5 19.25 L-14.8 21.45 Q-13.2 15.35 -4.95 8.4 L0.5 8.95 2.1 8.95 Q9.15 10.95 8.65 18.7 L8.65 19.5 Q3.25 26.65 -4.9 22.45 -7.25 21.15 -7.55 18.45 -8.65 9.5 0.5 8.95" fill="none" stroke="#000000" stroke-linecap="round" stroke-linejoin="round" stroke-width="2.0"/>
  </g>
</svg>