<svg xmlns:xlink="http://www.w3.org/1999/xlink" xmlns="http://www.w3.org/2000/svg" height="150.5px" width="134.95px">
  <g transform="matrix(1.0, 0.0, 0.0, 1.0, 54.55, 67.0)">
    <g data-characterId="1671" height="150.5" transform="matrix(1.0, 0.0, 0.0, 1.0, -44.5, -67.0)" width="89.3" xlink:href="#shape0"><g id="shape0" transform="matrix(1.0, 0.0, 0.0, 1.0, 44.5, 67.0)">
      <path d="M25.05 78.8 Q14.45 80.35 3.85 79.95 L4.4 83.0 Q-1.7 81.4 -7.45 78.8 -10.35 77.45 -12.2 74.95 L-11.7 80.95 Q-14.0 80.15 -15.65 78.35 L-17.7 76.2 Q-19.7 74.55 -20.5 71.95 L-21.2 75.95 Q-24.9 69.2 -28.15 62.15 -28.8 60.8 -28.85 59.2 L-30.3 63.0 Q-31.8 60.7 -32.1 58.0 -32.45 55.1 -34.0 52.5 -37.1 47.35 -42.6 44.65 L-43.15 43.2 Q-43.8 40.65 -43.95 38.1 -44.15 34.45 -43.55 30.9 L-41.8 19.8 Q-40.75 13.15 -40.5 6.4 -39.9 -12.25 -38.25 -30.85 -37.95 -34.45 -37.0 -37.85 -33.75 -49.85 -27.1 -60.4 -25.7 -61.4 -19.3 -64.6 -12.9 -67.8 -1.65 -65.65 -0.55 -49.0 0.55 -44.85 2.35 -38.1 2.9 -31.2 3.65 -21.3 2.85 -11.45 L3.2 -11.2 4.95 -12.05 5.2 -11.8 Q6.8 -10.05 7.05 -7.9 7.75 -2.0 6.85 4.1 6.05 9.4 4.35 14.25 L-3.8 37.0 -4.85 39.55 Q-7.2 45.15 -9.15 51.0 L-10.35 54.85 -11.3 58.4 -12.2 61.5 Q-13.75 66.25 -13.0 71.2 -12.45 70.6 -12.1 69.6 -11.65 68.5 -10.85 67.65 -7.75 64.5 -5.65 60.55 L-5.55 62.55 Q-5.2 66.2 -3.95 69.5 -3.9 69.65 -3.75 69.6 L-3.6 69.6 Q-3.2 68.85 -2.6 68.35 -0.9 66.9 1.4 66.15 L3.3 65.5 Q7.75 65.15 12.25 66.2 15.25 66.95 17.95 68.35 19.8 69.35 21.25 71.1 24.1 74.55 25.05 78.8" fill="#b6b1a9" fill-rule="evenodd" stroke="none"/>
      <path d="M-1.65 -65.65 L14.3 -58.0 Q25.9 -52.35 41.9 -42.65 L43.35 -35.1 44.1 -27.6 44.3 -16.05 44.1 -6.75 Q43.8 -0.9 42.8 4.95 L41.9 10.2 Q41.1 14.6 40.75 19.05 L40.25 27.45 39.6 36.15 38.35 45.65 36.85 52.55 Q36.3 54.75 35.4 56.8 L31.25 66.0 Q28.45 72.0 27.55 78.4 L25.05 78.8 Q24.1 74.55 21.25 71.1 19.8 69.35 17.95 68.35 15.25 66.95 12.25 66.2 7.75 65.15 3.3 65.5 L1.4 66.15 Q-0.9 66.9 -2.6 68.35 -3.2 68.85 -3.6 69.6 L-3.95 69.5 Q-5.2 66.2 -5.55 62.55 L-5.65 60.55 Q-7.75 64.5 -10.85 67.65 -11.65 68.5 -12.1 69.6 -12.45 70.6 -13.0 71.2 -13.75 66.25 -12.2 61.5 L-11.3 58.4 -10.35 54.85 -9.15 51.0 Q-7.2 45.15 -4.85 39.55 L-3.8 37.0 4.35 14.25 Q6.05 9.4 6.85 4.1 7.75 -2.0 7.05 -7.9 6.8 -10.05 5.2 -11.8 L4.95 -12.05 3.2 -11.2 2.85 -11.45 Q3.65 -21.3 2.9 -31.2 2.35 -38.1 0.55 -44.85 -0.55 -49.0 -1.65 -65.65" fill="url(#gradient0)" fill-rule="evenodd" stroke="none"/>
      <path d="M25.05 78.8 Q14.45 80.35 3.85 79.95 L4.4 83.0 Q-1.7 81.4 -7.45 78.8 -10.35 77.45 -12.2 74.95 L-11.7 80.95 Q-14.0 80.15 -15.65 78.35 L-17.7 76.2 Q-19.7 74.55 -20.5 71.95 L-21.2 75.95 Q-24.9 69.2 -28.15 62.15 -28.8 60.8 -28.85 59.2 L-30.3 63.0 Q-31.8 60.7 -32.1 58.0 -32.45 55.1 -34.0 52.5 -37.1 47.35 -42.6 44.65 L-43.15 43.2 Q-43.8 40.65 -43.95 38.1 -44.15 34.45 -43.55 30.9 L-41.8 19.8 Q-40.75 13.15 -40.5 6.4 -39.9 -12.25 -38.25 -30.85 -37.95 -34.45 -37.0 -37.85 -33.75 -49.85 -27.1 -60.4 -25.7 -61.4 -19.3 -64.6 -12.9 -67.8 -1.65 -65.65 L14.3 -58.0 Q25.9 -52.35 41.9 -42.65 L43.35 -35.1 44.1 -27.6 44.3 -16.05 44.1 -6.75 Q43.8 -0.9 42.8 4.95 L41.9 10.2 Q41.1 14.6 40.75 19.05 L40.25 27.45 39.6 36.15 38.35 45.65 36.85 52.55 Q36.3 54.75 35.4 56.8 L31.25 66.0 Q28.45 72.0 27.55 78.4 L25.05 78.8 Q24.1 74.55 21.25 71.1 19.8 69.35 17.95 68.35 15.25 66.95 12.25 66.2 7.75 65.15 3.3 65.5 L1.4 66.15 Q-0.9 66.9 -2.6 68.35 -3.2 68.85 -3.6 69.6 L-3.75 69.6 Q-3.9 69.65 -3.95 69.5 -5.2 66.2 -5.55 62.55 L-5.65 60.55 Q-7.75 64.5 -10.85 67.65 -11.65 68.5 -12.1 69.6 -12.45 70.6 -13.0 71.2 -13.75 66.25 -12.2 61.5 L-11.3 58.4 -10.35 54.85 -9.15 51.0 Q-7.2 45.15 -4.85 39.55 L-3.8 37.0 4.35 14.25 Q6.05 9.4 6.85 4.1 7.75 -2.0 7.05 -7.9 6.8 -10.05 5.2 -11.8 L4.95 -12.05 3.2 -11.2 2.85 -11.45 Q3.65 -21.3 2.9 -31.2 2.35 -38.1 0.55 -44.85 -0.55 -49.0 -1.65 -65.65" fill="none" stroke="#000000" stroke-linecap="round" stroke-linejoin="round" stroke-width="2.0"/>
    </g>
    </g>
  </g>
  <defs>
    <linearGradient gradientTransform="matrix(0.0, -0.0988, 0.0987, 0.0, 15.6, -2.05)" gradientUnits="userSpaceOnUse" id="gradient0" spreadMethod="pad" x1="-819.2" x2="819.2">
      <stop offset="0.0" stop-color="#505047"/>
      <stop offset="1.0" stop-color="#818172"/>
    </linearGradient>
  </defs>
</svg>