<svg xmlns:xlink="http://www.w3.org/1999/xlink" xmlns="http://www.w3.org/2000/svg" height="22.95px" width="16.2px">
  <g transform="matrix(1.0, 0.0, 0.0, 1.0, 51.85, -4.4)">
    <path d="M-45.45 16.2 Q-38.7 20.9 -36.35 13.15 -35.75 16.25 -36.85 18.85 L-38.7 23.35 -40.1 26.85 -41.35 19.9 Q-43.5 18.55 -44.35 17.55 L-45.45 16.45 -45.45 16.2 M-48.5 12.0 Q-49.3 8.35 -48.55 6.8 L-51.35 7.3 -44.5 4.9 Q-48.5 6.9 -48.5 12.0" fill="#000000" fill-rule="evenodd" stroke="none"/>
    <path d="M-45.45 16.45 L-44.35 17.55 Q-43.5 18.55 -41.35 19.9 L-40.1 26.85 -38.7 23.35 -36.85 18.85 Q-35.75 16.25 -36.35 13.15 -38.7 20.9 -45.45 16.2 -46.95 15.15 -48.2 13.55 L-48.35 12.55 -48.5 12.0 Q-49.3 8.35 -48.55 6.8 M-45.45 16.45 L-46.55 15.8 Q-47.9 15.0 -48.2 13.55 M-51.35 7.3 L-44.5 4.9 Q-40.05 6.0 -36.35 13.15 M-48.5 12.0 Q-48.5 6.9 -44.5 4.9" fill="none" stroke="#000000" stroke-linecap="round" stroke-linejoin="round" stroke-width="2.0"/>
  </g>
</svg>