<svg xmlns:xlink="http://www.w3.org/1999/xlink" xmlns="http://www.w3.org/2000/svg" height="15.85px" width="32.7px">
  <g transform="matrix(1.0, 0.0, 0.0, 1.0, 15.65, -9.1)">
    <path d="M2.05 10.05 Q9.6 10.0 16.55 12.25 12.85 11.8 10.75 15.1 7.75 19.85 2.9 22.6 -5.55 27.5 -10.15 19.3 L-15.15 22.9 Q-10.55 15.0 -3.75 9.6 L0.75 10.05 2.05 10.05 Q7.75 11.55 7.45 17.4 7.75 11.55 2.05 10.05 M7.45 17.45 L7.45 17.4 5.2 17.2 4.55 17.2 1.6 16.95 -2.2 16.55 -2.85 16.5 -6.0 16.2 -5.9 17.4 Q-5.65 19.5 -3.7 20.5 3.0 23.75 7.45 18.2 L7.45 17.6 7.45 17.45 M-6.0 16.15 L-6.0 16.2 -6.0 16.15 Q-6.1 10.4 0.75 10.05 -6.1 10.4 -6.0 16.15" fill="#000000" fill-rule="evenodd" stroke="none"/>
    <path d="M2.05 10.05 Q9.6 10.0 16.55 12.25 12.85 11.8 10.75 15.1 7.75 19.85 2.9 22.6 -5.55 27.5 -10.15 19.3 L-15.15 22.9 Q-10.55 15.0 -3.75 9.6 L0.75 10.05 2.05 10.05 Q7.75 11.55 7.45 17.4 M7.45 17.45 L7.45 17.6 7.45 18.2 Q3.0 23.75 -3.7 20.5 -5.65 19.5 -5.9 17.4 L-6.0 16.2 M-6.0 16.15 Q-6.1 10.4 0.75 10.05" fill="none" stroke="#000000" stroke-linecap="round" stroke-linejoin="round" stroke-width="2.0"/>
    <path d="M7.45 17.4 L7.45 17.45 M-6.0 16.2 L-6.0 16.15" fill="none" stroke="#00ff00" stroke-linecap="round" stroke-linejoin="round" stroke-width="1.5"/>
  </g>
</svg>