<svg xmlns:xlink="http://www.w3.org/1999/xlink" xmlns="http://www.w3.org/2000/svg" height="186.5px" width="206.2px">
  <g transform="matrix(1.0, 0.0, 0.0, 1.0, 83.8, 82.0)">
    <g data-characterId="882" height="115.15" transform="matrix(1.0, 0.0, 0.0, 1.0, -54.25, -73.5)" width="118.25" xlink:href="#shape0"><g id="shape0" transform="matrix(1.0, 0.0, 0.0, 1.0, 54.25, 73.5)">
      <path d="M-25.6 26.2 Q-23.9 17.45 -23.5 8.45 -23.0 -3.5 -20.8 -15.2 -20.05 -19.2 -18.7 -23.0 -17.4 -26.75 -14.45 -29.6 -6.0 -37.95 5.7 -39.85 14.1 -41.3 21.7 -37.35 L22.1 -28.85 21.75 -28.85 Q20.95 -17.05 16.25 -6.3 L11.8 3.15 Q3.7 12.7 -5.4 21.05 -14.15 29.0 -26.0 29.5 L-25.7 26.95 -25.6 26.2" fill="#e8b98a" fill-rule="evenodd" stroke="none"/>
      <path d="M-27.05 34.3 L-25.6 26.2 -25.7 26.95 -26.0 29.5 Q-14.15 29.0 -5.4 21.05 3.7 12.7 11.8 3.15 L16.25 -6.3 Q20.95 -17.05 21.75 -28.85 L22.1 -28.85 22.45 -12.0 Q22.65 -1.25 23.9 9.25 L25.45 23.95 26.3 34.3 26.35 35.6 26.2 37.8 25.55 38.65 Q12.9 39.0 0.2 41.2 -5.2 41.95 -10.65 41.4 -18.5 41.2 -24.35 36.4 L-27.8 38.35 -27.05 34.3 M-3.95 31.5 L11.8 3.15 -3.95 31.5" fill="#ecc59d" fill-rule="evenodd" stroke="none"/>
      <path d="M-34.5 -38.0 L-35.6 -27.85 Q-36.7 -18.0 -37.95 -8.15 -39.2 1.8 -41.9 11.55 -44.5 21.1 -48.15 30.2 -48.4 30.75 -48.9 30.5 -48.4 30.75 -48.15 30.2 -44.5 21.1 -41.9 11.55 -39.2 1.8 -37.95 -8.15 -36.7 -18.0 -35.6 -27.85 L-34.5 -38.0 M-27.05 -40.3 L-27.55 -37.5 -27.0 -37.05 Q-26.05 -29.45 -26.65 -21.8 L-26.85 -19.4 Q-27.5 -10.2 -28.95 -1.4 L-31.65 15.5 -28.95 -1.4 Q-27.5 -10.2 -26.85 -19.4 L-26.65 -21.8 Q-26.05 -29.45 -27.0 -37.05 L-27.55 -37.5 -27.05 -40.3 M-30.5 -21.9 L-30.55 -19.85 Q-30.85 -11.7 -33.35 -4.05 -30.85 -11.7 -30.55 -19.85 L-30.5 -21.9 M-27.05 34.3 L-53.75 34.3 -51.95 30.9 Q-46.55 20.6 -43.75 9.1 -40.7 -3.25 -39.2 -15.9 -37.95 -26.55 -37.9 -37.35 L-37.9 -51.8 31.6 -73.0 Q38.55 -58.75 49.55 -38.3 60.55 -17.85 62.9 5.25 65.2 28.25 58.85 34.3 L48.9 34.3 40.3 13.8 48.9 34.3 40.3 34.3 26.3 34.3 25.45 23.95 23.9 9.25 Q22.65 -1.25 22.45 -12.0 L22.1 -28.85 21.7 -37.35 Q14.1 -41.3 5.7 -39.85 -6.0 -37.95 -14.45 -29.6 -17.4 -26.75 -18.7 -23.0 -20.05 -19.2 -20.8 -15.2 -23.0 -3.5 -23.5 8.45 -23.9 17.45 -25.6 26.2 L-27.05 34.3 M32.25 14.95 L34.0 20.45 Q36.25 27.75 40.3 34.3 36.25 27.75 34.0 20.45 L32.25 14.95 M29.95 -10.35 L29.6 -7.75 Q28.5 1.45 32.8 9.75 28.5 1.45 29.6 -7.75 L29.95 -10.35 M33.95 -50.7 L33.5 -38.75 Q33.35 -32.1 36.15 -26.95 45.15 -10.5 45.45 8.6 45.15 -10.5 36.15 -26.95 33.35 -32.1 33.5 -38.75 L33.95 -50.7 M49.9 10.15 Q52.5 -1.7 49.6 -8.25 46.7 -14.85 41.85 -24.4 46.7 -14.85 49.6 -8.25 52.5 -1.7 49.9 10.15 M37.95 -47.2 L51.3 -22.55 Q59.7 -7.2 58.1 24.75 59.7 -7.2 51.3 -22.55 L37.95 -47.2 M48.35 14.35 L48.85 16.55 Q50.8 25.05 56.4 31.65 50.8 25.05 48.85 16.55 L48.35 14.35 M29.95 -50.15 Q27.0 -30.05 29.15 -19.8 L33.15 0.0 Q35.25 11.05 39.7 21.3 35.25 11.05 33.15 0.0 L29.15 -19.8 Q27.0 -30.05 29.95 -50.15 M27.65 -12.7 Q28.05 -1.2 29.0 10.3 29.85 20.15 32.75 29.5 29.85 20.15 29.0 10.3 28.05 -1.2 27.65 -12.7 M-36.8 12.65 L-37.15 14.75 Q-38.45 22.75 -42.0 29.9 -38.45 22.75 -37.15 14.75 L-36.8 12.65 M-35.1 25.3 L-34.4 22.45 Q-32.05 11.55 -32.2 0.55 -32.05 11.55 -34.4 22.45 L-35.1 25.3 M-34.5 -13.85 Q-36.65 -3.5 -39.1 6.75 -41.8 18.2 -45.45 29.35 -41.8 18.2 -39.1 6.75 -36.65 -3.5 -34.5 -13.85" fill="url(#gradient0)" fill-rule="evenodd" stroke="none"/>
      <path d="M48.9 34.3 L58.85 34.3 Q65.2 28.25 62.9 5.25 60.55 -17.85 49.55 -38.3 38.55 -58.75 31.6 -73.0 L-37.9 -51.8 -37.9 -37.35 Q-37.95 -26.55 -39.2 -15.9 -40.7 -3.25 -43.75 9.1 -46.55 20.6 -51.95 30.9 L-53.75 34.3 -27.05 34.3 -25.6 26.2 Q-23.9 17.45 -23.5 8.45 -23.0 -3.5 -20.8 -15.2 -20.05 -19.2 -18.7 -23.0 -17.4 -26.75 -14.45 -29.6 -6.0 -37.95 5.7 -39.85 14.1 -41.3 21.7 -37.35 L22.1 -28.85 22.45 -12.0 Q22.65 -1.25 23.9 9.25 L25.45 23.95 26.3 34.3 40.3 34.3 48.9 34.3 M26.35 35.6 L26.3 34.3 M-27.05 34.3 L-27.8 38.35 M-25.6 26.2 L-25.7 26.95" fill="none" stroke="#000000" stroke-linecap="round" stroke-linejoin="round" stroke-width="2.0"/>
      <path d="M11.8 3.15 L16.25 -6.3 Q20.95 -17.05 21.75 -28.85 M11.8 3.15 L-3.95 31.5" fill="none" stroke="#b9a882" stroke-linecap="round" stroke-linejoin="round" stroke-width="1.5"/>
      <path d="M-48.9 30.5 Q-48.4 30.75 -48.15 30.2 -44.5 21.1 -41.9 11.55 -39.2 1.8 -37.95 -8.15 -36.7 -18.0 -35.6 -27.85 L-34.5 -38.0 M-33.35 -4.05 Q-30.85 -11.7 -30.55 -19.85 L-30.5 -21.9 M40.3 34.3 Q36.25 27.75 34.0 20.45 L32.25 14.95 M45.45 8.6 Q45.15 -10.5 36.15 -26.95 33.35 -32.1 33.5 -38.75 L33.95 -50.7 M32.8 9.75 Q28.5 1.45 29.6 -7.75 L29.95 -10.35 M58.1 24.75 Q59.7 -7.2 51.3 -22.55 L37.95 -47.2 M48.9 34.3 L40.3 13.8 M-42.0 29.9 Q-38.45 22.75 -37.15 14.75 L-36.8 12.65" fill="none" stroke="#fff5e6" stroke-linecap="round" stroke-linejoin="round" stroke-width="1.5"/>
      <path d="M-31.65 15.5 L-28.95 -1.4 Q-27.5 -10.2 -26.85 -19.4 L-26.65 -21.8 Q-26.05 -29.45 -27.0 -37.05 L-27.55 -37.5 -27.05 -40.3 M41.85 -24.4 Q46.7 -14.85 49.6 -8.25 52.5 -1.7 49.9 10.15 M39.7 21.3 Q35.25 11.05 33.15 0.0 L29.15 -19.8 Q27.0 -30.05 29.95 -50.15 M56.4 31.65 Q50.8 25.05 48.85 16.55 L48.35 14.35 M32.75 29.5 Q29.85 20.15 29.0 10.3 28.05 -1.2 27.65 -12.7 M-32.2 0.55 Q-32.05 11.55 -34.4 22.45 L-35.1 25.3 M-45.45 29.35 Q-41.8 18.2 -39.1 6.75 -36.65 -3.5 -34.5 -13.85" fill="none" stroke="#92654e" stroke-linecap="round" stroke-linejoin="round" stroke-width="1.5"/>
    </g>
    </g>
  </g>
  <defs>
    <linearGradient gradientTransform="matrix(0.0, 0.0717, -0.0624, 0.0, 5.0, -16.8)" gradientUnits="userSpaceOnUse" id="gradient0" spreadMethod="pad" x1="-819.2" x2="819.2">
      <stop offset="0.0" stop-color="#c39d4f"/>
      <stop offset="0.20392156862745098" stop-color="#eed7a3"/>
      <stop offset="0.33725490196078434" stop-color="#fff5e6"/>
      <stop offset="0.5176470588235295" stop-color="#aa874f"/>
      <stop offset="1.0" stop-color="#c39d4f"/>
    </linearGradient>
  </defs>
</svg>