<svg xmlns:xlink="http://www.w3.org/1999/xlink" xmlns="http://www.w3.org/2000/svg" height="186.5px" width="206.2px">
  <g transform="matrix(1.0, 0.0, 0.0, 1.0, 83.8, 82.0)">
    <g data-characterId="866" height="84.65" transform="matrix(1.0, 0.0, 0.0, 1.0, -27.1, -41.75)" width="54.4" xlink:href="#shape0"><g id="shape0" transform="matrix(1.0, 0.0, 0.0, 1.0, 27.1, 41.75)">
      <path d="M21.5 -37.1 Q21.8 -22.2 22.6 -7.55 23.45 7.2 25.2 21.8 L26.8 31.4 Q21.2 36.1 14.25 38.55 3.85 42.1 -7.1 42.4 -13.75 42.6 -19.85 40.25 -23.55 38.85 -25.25 35.3 -26.8 31.95 -26.6 28.2 L-25.65 1.65 -25.25 -9.9 Q-24.75 -21.1 -17.35 -29.4 -11.3 -36.3 -2.55 -39.2 7.4 -42.4 17.75 -40.6 L21.15 -39.9 21.5 -37.1 M6.4 -10.3 L5.85 -6.5 Q5.2 -0.9 6.35 4.65 -0.25 8.7 -8.05 9.3 L-15.05 10.4 Q-20.2 10.8 -25.35 9.25 -20.2 10.8 -15.05 10.4 L-8.05 9.3 Q-0.25 8.7 6.35 4.65 5.2 -0.9 5.85 -6.5 L6.4 -10.3 6.4 -10.35 6.4 -10.3 7.6 -7.95 20.7 -6.35 7.6 -7.95 6.4 -10.3 M-0.55 -38.0 L6.4 -10.35 -0.55 -38.0 M-25.9 25.9 L-20.15 27.25 -11.45 27.7 Q-0.45 26.3 9.8 22.45 -0.45 26.3 -11.45 27.7 L-20.15 27.25 -25.9 25.9 M6.35 4.65 L11.35 18.6 14.75 19.7 Q19.85 21.5 25.2 21.8 19.85 21.5 14.75 19.7 L11.35 18.6 6.35 4.65 M10.95 20.1 L10.85 22.1 Q10.6 29.85 14.65 36.6 10.6 29.85 10.85 22.1 L10.95 20.1" fill="url(#gradient0)" fill-rule="evenodd" stroke="none"/>
      <path d="M21.5 -37.1 Q21.8 -22.2 22.6 -7.55 23.45 7.2 25.2 21.8 L26.8 31.4 Q21.2 36.1 14.25 38.55 3.85 42.1 -7.1 42.4 -13.75 42.6 -19.85 40.25 -23.55 38.85 -25.25 35.3 -26.8 31.95 -26.6 28.2 L-25.65 1.65 -25.25 -9.9 Q-24.75 -21.1 -17.35 -29.4 -11.3 -36.3 -2.55 -39.2 7.4 -42.4 17.75 -40.6 L21.15 -39.9 21.5 -37.1 M-25.35 9.25 Q-20.2 10.8 -15.05 10.4 L-8.05 9.3 Q-0.25 8.7 6.35 4.65 5.2 -0.9 5.85 -6.5 L6.4 -10.3 6.4 -10.35 -0.55 -38.0 M6.4 -10.3 L6.4 -10.35 M6.4 -10.3 L7.6 -7.95 20.7 -6.35 M14.65 36.6 Q10.6 29.85 10.85 22.1 L10.95 20.1 M25.2 21.8 Q19.85 21.5 14.75 19.7 L11.35 18.6 6.35 4.65 M9.8 22.45 Q-0.45 26.3 -11.45 27.7 L-20.15 27.25 -25.9 25.9" fill="none" stroke="#000000" stroke-linecap="round" stroke-linejoin="round" stroke-width="2.0"/>
    </g>
    </g>
  </g>
  <defs>
    <linearGradient gradientTransform="matrix(0.031, -0.0022, 0.002, 0.0291, -7.9, -55.0)" gradientUnits="userSpaceOnUse" id="gradient0" spreadMethod="pad" x1="-819.2" x2="819.2">
      <stop offset="0.0" stop-color="#746558"/>
      <stop offset="0.32941176470588235" stop-color="#ffffff"/>
      <stop offset="0.7490196078431373" stop-color="#d3cbc5"/>
      <stop offset="1.0" stop-color="#746558"/>
    </linearGradient>
  </defs>
</svg>