<svg xmlns:xlink="http://www.w3.org/1999/xlink" xmlns="http://www.w3.org/2000/svg" height="186.5px" width="206.2px">
  <g transform="matrix(1.0, 0.0, 0.0, 1.0, 83.8, 82.0)">
    <g data-characterId="873" height="83.1" transform="matrix(1.0, 0.0, 0.0, 1.0, -29.65, -41.4)" width="59.65" xlink:href="#shape0"><g id="shape0" transform="matrix(1.0, 0.0, 0.0, 1.0, 29.65, 41.4)">
      <path d="M-27.25 28.65 L-27.1 26.35 -25.45 3.6 Q-24.75 -7.25 -23.65 -15.0 -22.6 -22.75 -15.6 -29.65 -8.6 -36.55 2.8 -39.5 13.05 -42.1 17.75 -39.8 22.4 -37.5 23.2 -36.5 23.95 -35.55 24.15 -33.4 L24.8 -28.4 Q25.2 -25.55 24.7 -22.05 19.4 -12.2 15.25 -3.65 L15.05 -3.7 14.65 -2.4 Q13.7 0.5 11.8 3.15 L9.05 6.45 -5.55 21.05 Q-10.45 25.7 -15.0 27.35 -19.6 29.0 -22.15 29.0 L-26.0 29.5 -27.25 28.65 M14.65 -2.4 L11.8 3.15 14.65 -2.4" fill="#e8b98a" fill-rule="evenodd" stroke="none"/>
      <path d="M-27.25 28.65 L-26.0 29.5 -22.15 29.0 Q-19.6 29.0 -15.0 27.35 -10.45 25.7 -5.55 21.05 L9.05 6.45 11.8 3.15 Q13.7 0.5 14.65 -2.4 L15.05 -3.7 15.25 -3.65 Q19.4 -12.2 24.7 -22.05 24.7 -15.8 25.4 -7.05 L26.9 13.1 Q27.7 24.55 29.5 35.6 L26.2 37.8 25.55 38.65 Q18.75 37.55 11.55 39.75 5.75 41.1 -0.25 41.65 L-4.65 41.7 Q-12.45 41.55 -19.9 39.1 L-22.3 38.2 -24.35 36.4 -29.15 38.1 -27.25 28.65 M14.65 -2.4 L15.25 -3.65 14.65 -2.4 M-3.95 31.5 Q-0.4 23.8 4.0 16.7 L9.8 6.9 11.8 3.15 9.8 6.9 4.0 16.7 Q-0.4 23.8 -3.95 31.5" fill="#ecc59d" fill-rule="evenodd" stroke="none"/>
      <path d="M24.7 -22.05 Q25.2 -25.55 24.8 -28.4 L24.15 -33.4 Q23.95 -35.55 23.2 -36.5 22.4 -37.5 17.75 -39.8 13.05 -42.1 2.8 -39.5 -8.6 -36.55 -15.6 -29.65 -22.6 -22.75 -23.65 -15.0 -24.75 -7.25 -25.45 3.6 L-27.1 26.35 -27.25 28.65 -29.15 38.1 M24.7 -22.05 Q24.7 -15.8 25.4 -7.05 L26.9 13.1 Q27.7 24.55 29.5 35.6" fill="none" stroke="#000000" stroke-linecap="round" stroke-linejoin="round" stroke-width="2.0"/>
      <path d="M11.8 3.15 L14.65 -2.4 15.25 -3.65 Q19.4 -12.2 24.7 -22.05 M11.8 3.15 L9.8 6.9 4.0 16.7 Q-0.4 23.8 -3.95 31.5" fill="none" stroke="#b9a882" stroke-linecap="round" stroke-linejoin="round" stroke-width="1.5"/>
    </g>
  </g>
  </g>
  <defs>
    </defs>
</svg>