<svg xmlns:xlink="http://www.w3.org/1999/xlink" xmlns="http://www.w3.org/2000/svg" height="186.5px" width="206.2px">
  <g transform="matrix(1.0, 0.0, 0.0, 1.0, 137, 120)">
    <g data-characterId="865" height="186.5" transform="matrix(1.0, 0.0, 0.0, 1.0, -83.8, -82.0)" width="206.2" xlink:href="#shape0"><g id="shape0" transform="matrix(1.0, 0.0, 0.0, 1.0, 83.8, 82.0)">
      <path d="M92.7 -51.75 Q123.3 -22.0 121.85 21.6 120.4 65.2 91.25 84.6 62.05 104.0 17.7 104.0 -26.6 104.0 -54.45 84.2 -82.35 64.4 -83.25 36.3 -84.15 8.2 -55.35 -36.65 -26.6 -81.5 17.7 -81.5 62.05 -81.5 92.7 -51.75" fill="url(#gradient0)" fill-rule="evenodd" stroke="none"/>
      <path d="M92.7 -51.75 Q123.3 -22.0 121.85 21.6 120.4 65.2 91.25 84.6 62.05 104.0 17.7 104.0 -26.6 104.0 -54.45 84.2 -82.35 64.4 -83.25 36.3 -84.15 8.2 -55.35 -36.65 -26.6 -81.5 17.7 -81.5 62.05 -81.5 92.7 -51.75 Z" fill="none" stroke="#000000" stroke-linecap="round" stroke-linejoin="round" stroke-width="2.0"/>
    </g>
    <g id="shape1" transform="matrix(1.0, 0.0, 0.0, 1.0, 28.3, 40.95)">
      <path d="M22.1 -28.85 L21.75 -28.85 Q20.75 -14.95 15.25 -3.65 L15.05 -3.7 14.65 -2.4 Q13.7 0.5 11.8 3.15 L9.05 6.45 -5.55 21.05 Q-10.45 25.7 -15.0 27.35 -19.6 29.0 -22.15 29.0 L-26.0 29.5 -25.7 26.95 -25.6 26.2 Q-23.55 14.4 -22.85 2.45 -22.25 -7.25 -21.05 -16.75 -20.3 -22.75 -16.25 -27.6 -8.6 -36.55 2.8 -39.5 13.05 -42.1 21.3 -37.65 22.1 -37.3 22.2 -35.8 L22.2 -33.3 22.1 -28.85 M14.65 -2.4 L11.8 3.15 14.65 -2.4" fill="#e8b98a" fill-rule="evenodd" stroke="none"/>
      <path d="M21.75 -28.85 L22.1 -28.85 Q21.95 -19.6 22.25 -10.5 22.65 1.65 24.35 13.7 25.9 24.55 26.35 35.6 L26.2 37.8 25.55 38.65 Q18.75 37.55 11.55 39.75 5.75 41.1 -0.25 41.65 L-4.65 41.7 Q-12.45 41.55 -19.9 39.1 L-22.3 38.2 -24.35 36.4 -27.8 38.35 -25.6 26.2 -25.7 26.95 -26.0 29.5 -22.15 29.0 Q-19.6 29.0 -15.0 27.35 -10.45 25.7 -5.55 21.05 L9.05 6.45 11.8 3.15 Q13.7 0.5 14.65 -2.4 L15.05 -3.7 15.25 -3.65 Q20.75 -14.95 21.75 -28.85 M14.65 -2.4 L15.25 -3.65 14.65 -2.4 M-3.95 31.5 Q-0.4 23.8 4.0 16.7 L9.8 6.9 11.8 3.15 9.8 6.9 4.0 16.7 Q-0.4 23.8 -3.95 31.5" fill="#ecc59d" fill-rule="evenodd" stroke="none"/>
      <path d="M22.1 -28.85 L22.2 -33.3 22.2 -35.8 Q22.1 -37.3 21.3 -37.65 13.05 -42.1 2.8 -39.5 -8.6 -36.55 -16.25 -27.6 -20.3 -22.75 -21.05 -16.75 -22.25 -7.25 -22.85 2.45 -23.55 14.4 -25.6 26.2 L-25.7 26.95 M22.1 -28.85 Q21.95 -19.6 22.25 -10.5 22.65 1.65 24.35 13.7 25.9 24.55 26.35 35.6 M-27.8 38.35 L-25.6 26.2" fill="none" stroke="#000000" stroke-linecap="round" stroke-linejoin="round" stroke-width="2.0"/>
      <path d="M11.8 3.15 L14.65 -2.4 15.25 -3.65 Q20.75 -14.95 21.75 -28.85 M11.8 3.15 L9.8 6.9 4.0 16.7 Q-0.4 23.8 -3.95 31.5" fill="none" stroke="#b9a882" stroke-linecap="round" stroke-linejoin="round" stroke-width="1.5"/>
    </g>
  </g>
    <g data-characterId="864" height="82.65" transform="matrix(1.0, 0.0, 0.0, 1.0, -28.3, -40.95)" width="55.15" xlink:href="#shape1"/>
  </g>
  <defs>
    <radialGradient cx="0" cy="0" gradientTransform="matrix(0.1351, 0.0, 0.0, 0.1351, 14.95, -8.05)" gradientUnits="userSpaceOnUse" id="gradient0" r="819.2" spreadMethod="pad">
      <stop offset="0.0" stop-color="#ac7846"/>
      <stop offset="1.0" stop-color="#52291b"/>
    </radialGradient>
    </defs>
</svg>
