<svg xmlns:xlink="http://www.w3.org/1999/xlink" xmlns="http://www.w3.org/2000/svg" height="16.0px" width="29.0px">
  <g transform="matrix(1.0, 0.0, 0.0, 1.0, 14.5, 8.0)">
    <g data-characterId="1071" height="16.0" transform="matrix(1.0, 0.0, 0.0, 1.0, -14.5, -8.0)" width="29.0" xlink:href="#shape0"><g id="shape0" transform="matrix(1.0, 0.0, 0.0, 1.0, 14.5, 8.0)">
      <path d="M10.25 -5.65 Q14.5 -3.3 14.5 0.0 14.5 3.3 10.25 5.65 6.0 8.0 0.0 8.0 -6.0 8.0 -10.25 5.65 -14.5 3.3 -14.5 0.0 -14.5 -3.3 -10.25 -5.65 -6.0 -8.0 0.0 -8.0 6.0 -8.0 10.25 -5.65 M-3.6 -1.6 Q-4.0 -0.9 -4.0 0.0 -4.0 1.45 -3.0 2.45 -1.95 3.5 -0.5 3.5 0.95 3.5 1.95 2.45 3.0 1.45 3.0 0.0 3.0 -1.45 1.95 -2.5 0.95 -3.5 -0.5 -3.5 -1.5 -3.5 -2.3 -3.0 L-2.9 -3.2 -3.6 -2.95 -3.85 -2.25 -3.6 -1.6" fill="url(#gradient0)" fill-rule="evenodd" stroke="none"/>
      <path d="M-2.3 -3.0 L-2.25 -2.95 Q-1.95 -2.65 -1.95 -2.25 -1.95 -1.85 -2.25 -1.6 -2.5 -1.3 -2.9 -1.3 -3.3 -1.3 -3.6 -1.6 L-3.85 -2.25 -3.6 -2.95 -2.9 -3.2 -2.3 -3.0" fill="#ffffff" fill-rule="evenodd" stroke="none"/>
      <path d="M1.05 -0.05 Q1.05 0.65 0.55 1.1 0.1 1.6 -0.6 1.6 -1.3 1.6 -1.8 1.1 -2.25 0.65 -2.25 -0.05 -2.25 -0.75 -1.8 -1.25 L-0.6 -1.7 Q0.1 -1.7 0.55 -1.25 1.05 -0.75 1.05 -0.05" fill="#012987" fill-rule="evenodd" stroke="none"/>
      <path d="M1.05 -0.05 Q1.05 -0.75 0.55 -1.25 0.1 -1.7 -0.6 -1.7 L-1.8 -1.25 Q-2.25 -0.75 -2.25 -0.05 -2.25 0.65 -1.8 1.1 -1.3 1.6 -0.6 1.6 0.1 1.6 0.55 1.1 1.05 0.65 1.05 -0.05 M-2.3 -3.0 Q-1.5 -3.5 -0.5 -3.5 0.95 -3.5 1.95 -2.5 3.0 -1.45 3.0 0.0 3.0 1.45 1.95 2.45 0.95 3.5 -0.5 3.5 -1.95 3.5 -3.0 2.45 -4.0 1.45 -4.0 0.0 -4.0 -0.9 -3.6 -1.6 -3.3 -1.3 -2.9 -1.3 -2.5 -1.3 -2.25 -1.6 -1.95 -1.85 -1.95 -2.25 -1.95 -2.65 -2.25 -2.95 L-2.3 -3.0" fill="url(#gradient1)" fill-rule="evenodd" stroke="none"/>
      <path d="M-3.6 -1.6 Q-4.0 -0.9 -4.0 0.0 -4.0 1.45 -3.0 2.45 -1.95 3.5 -0.5 3.5 0.95 3.5 1.95 2.45 3.0 1.45 3.0 0.0 3.0 -1.45 1.95 -2.5 0.95 -3.5 -0.5 -3.5 -1.5 -3.5 -2.3 -3.0" fill="none" stroke="#028eec" stroke-linecap="round" stroke-linejoin="round" stroke-width="1.5"/>
    </g>
    </g>
    <g data-characterId="1065" height="14.55" transform="matrix(0.2448, 0.0, 0.0, 0.244, -0.125, -3.5311)" width="14.5" xlink:href="#shape1"><g id="shape1" transform="matrix(1.0, 0.0, 0.0, 1.0, 7.25, 7.3)">
      <path d="M5.75 -4.45 Q7.6 -2.05 7.2 0.95 6.8 3.95 4.4 5.75 2.05 7.6 -0.95 7.2 -3.95 6.8 -5.8 4.4 -7.6 2.05 -7.2 -0.95 -6.8 -3.95 -4.45 -5.8 -2.05 -7.65 0.95 -7.25 3.95 -6.85 5.75 -4.45" fill="#ffffff" fill-rule="evenodd" stroke="none"/>
    </g>
  </g>
  </g>
  <defs>
    <radialGradient cx="0" cy="0" gradientTransform="matrix(0.0177, 0.0, 0.0, 0.0177, 0.0, 0.0)" gradientUnits="userSpaceOnUse" id="gradient0" r="819.2" spreadMethod="pad">
      <stop offset="0.0" stop-color="#ffffff"/>
      <stop offset="1.0" stop-color="#ffdfdf"/>
    </radialGradient>
    <linearGradient gradientTransform="matrix(0.0043, 0.0, 0.0, 0.0043, -0.5, 0.0)" gradientUnits="userSpaceOnUse" id="gradient1" spreadMethod="pad" x1="-819.2" x2="819.2">
      <stop offset="0.0" stop-color="#13fdfd"/>
      <stop offset="1.0" stop-color="#299aed"/>
    </linearGradient>
    </defs>
</svg>