<svg xmlns:xlink="http://www.w3.org/1999/xlink" xmlns="http://www.w3.org/2000/svg" height="264.15px" width="342.25px">
  <g transform="matrix(1.0, 0.0, 0.0, 1.0, 243.25, 83.7)">
    <g data-characterId="1120" height="134.0" transform="matrix(1.0, 0.0, 0.0, 1.0, -41.15, -45.45)" width="93.15" xlink:href="#shape0"><g id="shape0" transform="matrix(1.0, 0.0, 0.0, 1.0, 41.15, 45.45)">
      <path d="M23.15 37.85 L25.15 2.8 Q24.8 2.9 24.75 3.05 23.0 10.95 20.1 16.95 17.2 22.95 13.5 28.0 16.65 21.8 17.5 15.05 L19.45 -0.1 Q20.6 -8.45 17.5 -16.0 17.95 -6.3 16.1 3.15 14.35 12.3 11.0 21.0 14.9 5.9 12.4 -9.4 11.45 -15.2 9.7 -21.0 9.25 -22.45 8.1 -23.45 7.25 -24.25 6.75 -25.25 5.55 -27.55 3.2 -28.7 -0.4 -30.5 -4.3 -30.85 -5.75 -30.9 -7.2 -30.15 L-7.5 -30.1 Q-10.85 -29.65 -12.95 -30.6 L-15.85 -31.6 Q-16.85 -31.7 -17.55 -31.05 -21.0 -28.15 -23.7 -24.65 -27.85 -19.25 -30.15 -12.75 L-32.0 -7.5 Q-33.3 -4.05 -34.2 -0.55 -33.0 2.85 -32.6 5.5 -32.3 7.35 -32.75 9.2 -35.05 18.55 -32.1 27.7 -30.6 32.35 -29.2 39.35 L-29.3 39.85 Q-29.6 41.35 -29.5 43.05 L-28.0 42.05 Q-29.15 46.9 -27.5 51.75 L-27.45 51.9 -27.4 51.7 -26.75 51.85 -26.35 56.05 Q-25.85 62.3 -22.8 67.95 L-22.25 63.6 -21.4 63.35 -19.5 69.55 -17.5 67.65 Q-17.45 69.9 -19.15 71.15 -19.7 71.6 -19.85 72.35 -20.85 77.7 -21.0 83.05 L-25.0 69.55 Q-27.4 76.1 -27.0 83.05 -29.15 76.65 -30.55 69.9 L-31.0 66.05 Q-32.4 69.65 -32.3 73.55 L-32.0 88.05 Q-36.15 76.2 -36.5 63.65 L-38.0 80.05 Q-39.8 65.9 -39.3 55.75 -38.8 45.6 -39.3 38.6 L-39.85 25.2 Q-39.9 18.75 -39.5 16.55 -41.05 8.55 -40.55 0.55 -40.3 -3.5 -39.55 -7.45 L-37.9 -14.45 Q-37.1 -17.35 -35.95 -19.95 -34.85 -27.25 -32.05 -31.7 L-29.9 -34.25 -22.25 -40.2 Q-19.65 -40.95 -17.45 -42.65 -14.95 -44.45 -12.0 -44.6 L-6.0 -44.95 Q-1.55 -44.55 4.25 -42.0 L5.0 -42.0 Q23.5 -45.3 34.25 -29.35 45.0 -13.4 45.7 3.0 L46.25 17.85 47.0 29.25 Q47.85 33.55 48.15 41.95 48.45 50.35 49.85 59.8 51.2 69.25 51.35 81.1 L47.0 61.55 44.45 72.0 42.3 78.8 41.5 78.7 41.65 77.4 42.1 72.1 Q42.4 65.45 40.5 59.05 L39.5 65.55 37.85 73.25 36.25 78.65 35.45 78.35 35.85 71.9 Q36.15 65.3 35.05 58.9 L34.5 56.05 34.0 59.05 33.8 60.5 Q32.6 68.05 30.25 75.2 28.5 80.45 25.0 85.05 L26.2 80.25 Q26.9 76.75 27.25 73.15 28.0 65.1 27.0 57.05 L25.6 62.05 24.8 64.85 Q23.75 68.9 21.45 72.5 L21.4 72.6 21.1 72.4 Q23.35 63.85 22.25 55.15 L22.15 52.15 22.35 52.05 23.15 37.85 M2.5 -40.0 L3.5 -38.0 0.85 -36.6 0.95 -35.95 -2.5 -34.5 0.95 -35.95 0.85 -36.6 3.5 -38.0 2.5 -40.0 M-22.5 -36.0 Q-24.4 -36.8 -25.85 -34.85 L-27.7 -32.4 -29.6 -30.1 Q-33.6 -25.5 -35.95 -19.95 -33.6 -25.5 -29.6 -30.1 L-27.7 -32.4 -25.85 -34.85 Q-24.4 -36.8 -22.5 -36.0 M19.5 -40.0 Q28.95 -36.15 33.95 -26.1 45.3 -3.5 45.4 22.0 45.45 42.2 48.5 62.05 45.45 42.2 45.4 22.0 45.3 -3.5 33.95 -26.1 28.95 -36.15 19.5 -40.0 M26.5 -12.0 L26.8 -11.0 Q27.2 -7.9 26.0 -5.0 27.2 -7.9 26.8 -11.0 L26.5 -12.0 M19.5 -25.0 L20.35 -22.45 Q21.25 -19.25 22.3 -13.05 23.3 -6.9 20.5 10.0 23.3 -6.9 22.3 -13.05 21.25 -19.25 20.35 -22.45 L19.5 -25.0 M30.0 -22.0 Q33.25 -15.7 34.1 -8.65 35.2 0.35 34.85 9.35 L34.45 19.0 Q34.05 28.0 34.0 37.0 33.95 43.9 35.0 50.5 33.95 43.9 34.0 37.0 34.05 28.0 34.45 19.0 L34.85 9.35 Q35.2 0.35 34.1 -8.65 33.25 -15.7 30.0 -22.0 M15.0 1.5 L14.1 -7.4 Q13.0 -19.0 8.5 -29.5 13.0 -19.0 14.1 -7.4 L15.0 1.5 M30.0 8.5 Q29.5 13.0 29.3 17.5 L28.9 29.0 28.75 43.5 Q28.75 48.3 29.9 52.85 31.9 60.95 29.5 69.05 31.9 60.95 29.9 52.85 28.75 48.3 28.75 43.5 L28.9 29.0 29.3 17.5 Q29.5 13.0 30.0 8.5 M-15.5 -38.0 L-17.05 -38.85 -17.75 -38.75 -20.35 -36.3 -21.15 -35.65 Q-23.7 -33.4 -25.45 -30.5 L-26.15 -29.65 Q-28.25 -27.75 -29.45 -25.0 L-30.75 -22.65 -32.2 -20.3 Q-34.65 -16.1 -36.55 -11.55 L-37.25 -9.45 Q-39.6 -0.3 -39.0 9.5 -39.6 -0.3 -37.25 -9.45 L-36.55 -11.55 Q-34.65 -16.1 -32.2 -20.3 L-30.75 -22.65 -29.45 -25.0 Q-28.25 -27.75 -26.15 -29.65 L-25.45 -30.5 Q-23.7 -33.4 -21.15 -35.65 L-20.35 -36.3 -17.75 -38.75 -17.05 -38.85 -15.5 -38.0 M-39.5 16.55 L-36.5 27.5 Q-37.95 13.55 -34.4 0.1 L-34.4 0.05 -34.2 -0.55 -34.4 0.05 -34.4 0.1 Q-37.95 13.55 -36.5 27.5 L-39.5 16.55 M-38.5 66.05 L-37.95 60.55 Q-35.95 44.35 -38.5 28.0 -35.95 44.35 -37.95 60.55 L-38.5 66.05" fill="url(#gradient0)" fill-rule="evenodd" stroke="none"/>
      <path d="M-29.2 39.35 Q-28.3 35.25 -24.75 32.3 L-24.55 32.35 Q-18.45 33.75 -12.0 33.3 L-10.55 33.6 Q-6.45 35.25 -2.0 35.0 -0.45 34.9 0.75 35.7 4.25 38.2 5.8 42.3 7.05 43.4 8.65 43.6 11.45 44.0 14.25 43.5 20.0 43.0 23.15 37.85 L22.35 52.05 22.15 52.15 14.0 58.05 13.0 56.55 9.0 61.35 7.95 62.55 Q6.65 64.35 4.5 64.55 L4.65 62.5 4.15 62.3 1.15 64.45 Q-3.25 67.95 -8.5 70.05 L-8.1 68.1 -8.15 67.2 -8.5 66.05 Q-10.1 66.9 -11.0 68.35 -11.65 69.4 -12.75 70.25 -13.8 71.1 -15.0 71.05 L-16.0 66.05 -17.5 67.65 -19.5 69.55 -21.4 63.35 -21.45 63.2 -22.25 63.6 -22.8 67.95 Q-25.85 62.3 -26.35 56.05 L-26.75 51.85 -27.0 49.55 -27.4 51.7 -27.5 51.75 Q-29.15 46.9 -28.0 42.05 L-29.5 43.05 Q-29.6 41.35 -29.3 39.85 L-29.2 39.35 M0.05 46.85 Q0.3 46.5 0.0 45.15 -0.3 43.75 -2.7 41.85 -5.1 39.9 -9.85 39.8 L-17.9 39.55 Q-21.2 39.4 -23.9 42.2 -26.6 44.95 -23.8 48.4 -22.95 50.15 -20.4 50.2 L-20.45 50.3 -20.35 50.2 -20.4 50.2 -15.25 48.9 Q-5.55 52.55 -1.25 48.75 L0.05 46.85" fill="url(#gradient1)" fill-rule="evenodd" stroke="none"/>
      <path d="M23.15 37.85 L25.15 2.8 Q24.8 2.9 24.75 3.05 23.0 10.95 20.1 16.95 17.2 22.95 13.5 28.0 16.65 21.8 17.5 15.05 L19.45 -0.1 Q20.6 -8.45 17.5 -16.0 17.95 -6.3 16.1 3.15 14.35 12.3 11.0 21.0 14.9 5.9 12.4 -9.4 11.45 -15.2 9.7 -21.0 9.25 -22.45 8.1 -23.45 7.25 -24.25 6.75 -25.25 5.55 -27.55 3.2 -28.7 -0.4 -30.5 -4.3 -30.85 -5.75 -30.9 -7.2 -30.15 L-7.5 -30.1 Q-10.85 -29.65 -12.95 -30.6 L-15.85 -31.6 Q-16.85 -31.7 -17.55 -31.05 -21.0 -28.15 -23.7 -24.65 -27.85 -19.25 -30.15 -12.75 L-32.0 -7.5 Q-33.3 -4.05 -34.2 -0.55 -33.0 2.85 -32.6 5.5 -32.3 7.35 -32.75 9.2 -35.05 18.55 -32.1 27.7 -30.6 32.35 -29.2 39.35 L-29.3 39.85 Q-29.6 41.35 -29.5 43.05 L-28.0 42.05 Q-29.15 46.9 -27.5 51.75 L-27.45 51.9 -27.4 51.7 -27.0 49.55 -26.75 51.85 -26.35 56.05 Q-25.85 62.3 -22.8 67.95 L-22.25 63.6 -21.45 63.2 -21.4 63.35 -19.5 69.55 -17.5 67.65 Q-17.45 69.9 -19.15 71.15 -19.7 71.6 -19.85 72.35 -20.85 77.7 -21.0 83.05 L-25.0 69.55 Q-27.4 76.1 -27.0 83.05 -29.15 76.65 -30.55 69.9 L-31.0 66.05 Q-32.4 69.65 -32.3 73.55 L-32.0 88.05 Q-36.15 76.2 -36.5 63.65 L-38.0 80.05 Q-39.8 65.9 -39.3 55.75 -38.8 45.6 -39.3 38.6 L-39.85 25.2 Q-39.9 18.75 -39.5 16.55 -41.05 8.55 -40.55 0.55 -40.3 -3.5 -39.55 -7.45 L-37.9 -14.45 Q-37.1 -17.35 -35.95 -19.95 -33.6 -25.5 -29.6 -30.1 L-27.7 -32.4 -25.85 -34.85 Q-24.4 -36.8 -22.5 -36.0 M23.15 37.85 L22.35 52.05 22.15 52.15 22.25 55.15 Q23.35 63.85 21.1 72.4 L20.6 74.05 21.4 72.6 21.45 72.5 Q23.75 68.9 24.8 64.85 L25.6 62.05 27.0 57.05 Q28.0 65.1 27.25 73.15 26.9 76.75 26.2 80.25 L25.0 85.05 Q28.5 80.45 30.25 75.2 32.6 68.05 33.8 60.5 L34.0 59.05 34.5 56.05 35.05 58.9 Q36.15 65.3 35.85 71.9 L35.45 78.35 35.25 81.3 36.25 78.65 37.85 73.25 39.5 65.55 40.5 59.05 Q42.4 65.45 42.1 72.1 L41.65 77.4 41.5 78.7 41.0 82.05 42.3 78.8 44.45 72.0 47.0 61.55 51.35 81.1 Q51.2 69.25 49.85 59.8 48.45 50.35 48.15 41.95 47.85 33.55 47.0 29.25 L46.25 17.85 45.7 3.0 Q45.0 -13.4 34.25 -29.35 23.5 -45.3 5.0 -42.0 M4.25 -42.0 Q-1.55 -44.55 -6.0 -44.95 L-12.0 -44.6 Q-14.95 -44.45 -17.45 -42.65 -19.65 -40.95 -22.25 -40.2 L-29.9 -34.25 -32.05 -31.7 Q-34.85 -27.25 -35.95 -19.95 M-2.5 -34.5 L0.95 -35.95 0.85 -36.6 3.5 -38.0 2.5 -40.0 M22.15 52.15 L14.0 58.05 13.0 56.55 9.0 61.35 7.95 62.55 Q6.65 64.35 4.5 64.55 L4.65 62.5 4.15 62.3 1.15 64.45 Q-3.25 67.95 -8.5 70.05 L-8.1 68.1 -8.15 67.2 -8.5 66.05 Q-10.1 66.9 -11.0 68.35 -11.65 69.4 -12.75 70.25 -13.8 71.1 -15.0 71.05 L-16.0 66.05 -17.5 67.65 M20.6 74.05 L20.5 75.05 M51.35 81.1 L51.5 82.3 M-34.2 -0.55 L-34.4 0.05 -34.4 0.1 Q-37.95 13.55 -36.5 27.5 L-39.5 16.55" fill="none" stroke="#000000" stroke-linecap="round" stroke-linejoin="round" stroke-width="2.0"/>
      <path d="M35.0 50.5 Q33.95 43.9 34.0 37.0 34.05 28.0 34.45 19.0 L34.85 9.35 Q35.2 0.35 34.1 -8.65 33.25 -15.7 30.0 -22.0 M20.5 10.0 Q23.3 -6.9 22.3 -13.05 21.25 -19.25 20.35 -22.45 L19.5 -25.0 M26.0 -5.0 Q27.2 -7.9 26.8 -11.0 L26.5 -12.0 M48.5 62.05 Q45.45 42.2 45.4 22.0 45.3 -3.5 33.95 -26.1 28.95 -36.15 19.5 -40.0 M47.0 29.25 L47.8 28.5 M29.5 69.05 Q31.9 60.95 29.9 52.85 28.75 48.3 28.75 43.5 L28.9 29.0 29.3 17.5 Q29.5 13.0 30.0 8.5 M-39.0 9.5 Q-39.6 -0.3 -37.25 -9.45 L-36.55 -11.55 Q-34.65 -16.1 -32.2 -20.3 L-30.75 -22.65 -29.45 -25.0 Q-28.25 -27.75 -26.15 -29.65 L-25.45 -30.5 Q-23.7 -33.4 -21.15 -35.65 L-20.35 -36.3 -17.75 -38.75 -17.05 -38.85 -15.5 -38.0 M-38.5 28.0 Q-35.95 44.35 -37.95 60.55 L-38.5 66.05" fill="none" stroke="#a06752" stroke-linecap="round" stroke-linejoin="round" stroke-width="1.5"/>
      <path d="M8.5 -29.5 Q13.0 -19.0 14.1 -7.4 L15.0 1.5" fill="none" stroke="#a06752" stroke-linecap="round" stroke-linejoin="round" stroke-width="1.5"/>
      <path d="M-29.2 39.35 Q-28.3 35.25 -24.75 32.3 L-24.55 32.35 Q-18.45 33.75 -12.0 33.3 L-10.55 33.6 Q-6.45 35.25 -2.0 35.0 -0.45 34.9 0.75 35.7 4.25 38.2 5.8 42.3 7.05 43.4 8.65 43.6 11.45 44.0 14.25 43.5 20.0 43.0 23.15 37.85" fill="none" stroke="#783d01" stroke-linecap="round" stroke-linejoin="round" stroke-width="2.0"/>
    </g>
    </g>
  </g>
  <defs>
    <radialGradient cx="0" cy="0" gradientTransform="matrix(0.0028, 0.1085, -0.1668, 0.0043, 1.0, -31.5)" gradientUnits="userSpaceOnUse" id="gradient0" r="819.2" spreadMethod="pad">
      <stop offset="0.0" stop-color="#3c1e00"/>
      <stop offset="0.3176470588235294" stop-color="#7c543f"/>
      <stop offset="1.0" stop-color="#482400"/>
    </radialGradient>
    <radialGradient cx="0" cy="0" gradientTransform="matrix(5.0E-4, 0.0421, -0.0666, 9.0E-4, -11.0, 50.0)" gradientUnits="userSpaceOnUse" id="gradient1" r="819.2" spreadMethod="pad">
      <stop offset="0.0" stop-color="#3c1e00"/>
      <stop offset="0.5137254901960784" stop-color="#7c543f"/>
      <stop offset="1.0" stop-color="#552b00"/>
    </radialGradient>
  </defs>
</svg>