<svg xmlns:xlink="http://www.w3.org/1999/xlink" xmlns="http://www.w3.org/2000/svg" height="9.9px" width="18.3px">
  <g transform="matrix(1.0, 0.0, 0.0, 1.0, 11.2, 2.35)">
    <path d="M-10.0 -1.7 Q-8.95 -2.3 -8.5 -2.25 -8.1 -2.25 -7.4 -1.85 L-6.6 -1.45 -6.4 -1.55 -5.25 -2.1 -1.95 -2.0 6.45 -0.1 Q7.65 1.45 6.6 1.1 L5.25 0.85 -1.85 0.1 Q-5.25 1.8 -8.75 -0.05 L-10.0 0.7 -10.35 0.8 Q-11.05 0.75 -11.2 0.1 L-11.1 -0.55 Q-11.05 -1.15 -10.0 -1.7 M-8.75 4.25 L-8.75 3.9 -6.9 4.6 -2.15 5.05 1.7 4.55 Q2.65 4.2 1.3 5.45 -0.05 6.65 -3.0 7.35 -5.9 8.05 -7.3 6.3 L-8.75 4.25" fill="#e6b380" fill-rule="evenodd" stroke="none"/>
  </g>
</svg>