<svg xmlns:xlink="http://www.w3.org/1999/xlink" xmlns="http://www.w3.org/2000/svg" height="119.1px" width="213.05px">
  <g transform="matrix(1.0, 0.0, 0.0, 1.0, 94.65, 81.2)">
    <g data-characterId="933" height="59.8" transform="matrix(1.0, 0.0, 0.0, 1.0, -63.2, -35.0)" width="140.3" xlink:href="#shape0"><g id="shape0" transform="matrix(1.0, 0.0, 0.0, 1.0, 63.2, 35.0)">
      <path d="M38.4 -19.05 L39.0 -18.05 37.8 -18.65 38.4 -19.05 M61.0 -9.25 L66.15 -7.75 76.55 -8.05 76.6 -6.7 71.25 -1.6 72.7 0.15 Q73.95 1.45 74.65 3.0 75.5 4.9 74.35 6.5 72.95 8.35 70.9 9.55 60.8 15.65 49.3 17.35 37.6 18.7 26.4 15.8 36.1 8.75 47.05 3.95 49.0 3.15 50.8 2.0 55.8 -1.05 59.4 -5.7 60.55 -7.25 61.0 -9.25 M-46.35 12.65 Q-54.55 11.3 -59.85 5.5 -60.3 5.05 -60.1 4.15 -59.3 0.1 -59.9 -5.85 -61.3 -7.0 -62.2 -8.75 L-62.7 -9.75 -62.45 -9.8 Q-49.85 -13.15 -36.85 -14.15 L-33.25 -14.7 -32.8 -13.8 Q-30.75 -10.45 -27.5 -8.65 -20.45 -4.6 -12.7 -2.35 -21.85 1.05 -31.4 3.35 L-32.95 3.9 -39.6 7.35 Q-43.35 9.4 -46.2 12.55 L-46.35 12.65 M-55.25 -4.0 Q-58.05 -4.3 -59.9 -5.85 -58.05 -4.3 -55.25 -4.0" fill="#98bede" fill-rule="evenodd" stroke="none"/>
      <path d="M39.0 -18.05 L39.3 -17.9 39.8 -17.75 40.65 -17.8 48.35 -17.55 Q50.2 -16.2 52.55 -15.65 L56.4 -14.7 Q61.3 -13.7 61.0 -9.25 60.55 -7.25 59.4 -5.7 55.8 -1.05 50.8 2.0 49.0 3.15 47.05 3.95 36.1 8.75 26.4 15.8 L22.85 18.65 Q20.75 20.4 18.35 21.4 11.9 24.0 4.85 24.1 L-1.15 24.3 Q-8.0 24.45 -14.6 22.6 L-37.5 20.55 -39.95 20.8 Q-46.3 21.65 -49.5 16.7 L-46.35 12.65 -46.2 12.55 Q-43.35 9.4 -39.6 7.35 L-32.95 3.9 -31.4 3.35 Q-21.85 1.05 -12.7 -2.35 -7.1 -4.25 -0.8 -5.45 5.5 -6.65 10.05 -7.9 14.6 -9.15 17.2 -10.25 L23.55 -12.7 Q27.35 -14.05 30.7 -15.9 34.05 -17.8 37.8 -18.65 L39.0 -18.05 M40.85 -6.9 L43.4 -9.35 Q47.4 -12.55 48.35 -17.55 47.4 -12.55 43.4 -9.35 L40.85 -6.9 M18.8 -3.9 L21.25 -4.5 Q32.9 -7.9 39.8 -17.75 32.9 -7.9 21.25 -4.5 L18.8 -3.9 M23.0 5.75 Q22.45 10.45 18.6 13.45 L13.6 17.65 Q9.55 21.35 4.85 24.1 9.55 21.35 13.6 17.65 L18.6 13.45 Q22.45 10.45 23.0 5.75 M8.05 8.05 Q-2.5 11.2 -10.55 18.7 L-14.6 22.6 -10.55 18.7 Q-2.5 11.2 8.05 8.05 M2.3 -0.55 Q-6.95 2.35 -15.45 6.85 -25.0 11.75 -33.85 17.95 L-37.5 20.55 -33.85 17.95 Q-25.0 11.75 -15.45 6.85 -6.95 2.35 2.3 -0.55" fill="#0091cb" fill-rule="evenodd" stroke="none"/>
      <path d="M27.8 -28.0 L29.85 -29.4 30.05 -31.15 28.7 -33.2 Q29.45 -33.3 31.35 -32.3 33.2 -31.3 34.25 -27.9 35.2 -24.85 38.4 -19.05 L37.8 -18.65 Q34.05 -17.8 30.7 -15.9 27.35 -14.05 23.55 -12.7 L17.2 -10.25 Q14.6 -9.15 10.05 -7.9 5.5 -6.65 -0.8 -5.45 -7.1 -4.25 -12.7 -2.35 -20.45 -4.6 -27.5 -8.65 -30.75 -10.45 -32.8 -13.8 L-33.25 -14.7 Q-28.55 -16.25 -26.8 -21.8 L-24.9 -27.15 -24.6 -27.05 Q-23.8 -24.45 -21.7 -23.05 -20.5 -22.25 -18.9 -21.85 -15.0 -21.05 -11.35 -22.3 -13.2 -8.9 -9.9 -8.1 -5.95 -7.15 -4.65 -11.35 -4.25 -12.55 -4.15 -13.75 -3.7 -18.25 -4.05 -22.45 L6.9 -23.55 Q17.85 -23.8 27.8 -28.0" fill="#d9e9f2" fill-rule="evenodd" stroke="none"/>
      <path d="M27.8 -28.0 L27.3 -34.5 28.7 -33.2 30.05 -31.15 29.85 -29.4 27.8 -28.0 M-24.6 -27.05 L-20.7 -28.5 -21.3 -23.6 -21.7 -23.05 Q-23.8 -24.45 -24.6 -27.05" fill="#acd3e3" fill-rule="evenodd" stroke="none"/>
      <path d="M28.7 -33.2 L27.3 -34.5 27.8 -28.0 29.85 -29.4 30.05 -31.15 28.7 -33.2 Q29.45 -33.3 31.35 -32.3 33.2 -31.3 34.25 -27.9 35.2 -24.85 38.4 -19.05 L39.0 -18.05 39.3 -17.9 39.8 -17.75 40.65 -17.8 48.35 -17.55 Q50.2 -16.2 52.55 -15.65 L56.4 -14.7 Q61.3 -13.7 61.0 -9.25 L66.15 -7.75 76.55 -8.05 76.6 -6.7 71.25 -1.6 72.7 0.15 Q73.95 1.45 74.65 3.0 75.5 4.9 74.35 6.5 72.95 8.35 70.9 9.55 60.8 15.65 49.3 17.35 37.6 18.7 26.4 15.8 L22.85 18.65 Q20.75 20.4 18.35 21.4 11.9 24.0 4.85 24.1 L-1.15 24.3 Q-8.0 24.45 -14.6 22.6 L-37.5 20.55 -39.95 20.8 Q-46.3 21.65 -49.5 16.7 L-46.35 12.65 Q-54.55 11.3 -59.85 5.5 -60.3 5.05 -60.1 4.15 -59.3 0.1 -59.9 -5.85 -61.3 -7.0 -62.2 -8.75 L-62.7 -9.75 -62.45 -9.8 Q-49.85 -13.15 -36.85 -14.15 L-33.25 -14.7 Q-28.55 -16.25 -26.8 -21.8 L-24.9 -27.15 M-24.6 -27.05 L-20.7 -28.5 -21.3 -23.6 M-21.7 -23.05 Q-20.5 -22.25 -18.9 -21.85 -15.0 -21.05 -11.35 -22.3 -13.2 -8.9 -9.9 -8.1 -5.95 -7.15 -4.65 -11.35 -4.25 -12.55 -4.15 -13.75 -3.7 -18.25 -4.05 -22.45 L6.9 -23.55 Q17.85 -23.8 27.8 -28.0 M-12.7 -2.35 Q-7.1 -4.25 -0.8 -5.45 5.5 -6.65 10.05 -7.9 14.6 -9.15 17.2 -10.25 L23.55 -12.7 Q27.35 -14.05 30.7 -15.9 34.05 -17.8 37.8 -18.65 L39.0 -18.05 M39.8 -17.75 Q32.9 -7.9 21.25 -4.5 L18.8 -3.9 M48.35 -17.55 Q47.4 -12.55 43.4 -9.35 L40.85 -6.9 M61.0 -9.25 Q60.55 -7.25 59.4 -5.7 55.8 -1.05 50.8 2.0 49.0 3.15 47.05 3.95 36.1 8.75 26.4 15.8 M4.85 24.1 Q9.55 21.35 13.6 17.65 L18.6 13.45 Q22.45 10.45 23.0 5.75 M-59.9 -5.85 Q-58.05 -4.3 -55.25 -4.0 M-32.8 -13.8 Q-30.75 -10.45 -27.5 -8.65 -20.45 -4.6 -12.7 -2.35 -21.85 1.05 -31.4 3.35 L-32.95 3.9 -39.6 7.35 Q-43.35 9.4 -46.2 12.55 L-46.35 12.65 M-21.7 -23.05 Q-23.8 -24.45 -24.6 -27.05 M-37.5 20.55 L-33.85 17.95 Q-25.0 11.75 -15.45 6.85 -6.95 2.35 2.3 -0.55 M-14.6 22.6 L-10.55 18.7 Q-2.5 11.2 8.05 8.05" fill="none" stroke="#000000" stroke-linecap="round" stroke-linejoin="round" stroke-width="2.0"/>
    </g>
  </g>
  </g>
  <defs>
    </defs>
</svg>