<svg xmlns:xlink="http://www.w3.org/1999/xlink" xmlns="http://www.w3.org/2000/svg" height="9.85px" width="16.9px">
  <g transform="matrix(1.0, 0.0, 0.0, 1.0, 8.65, 4.2)">
    <path d="M8.25 -1.6 L8.1 -1.45 7.75 -1.25 Q7.3 -1.25 7.0 -1.55 L7.0 -1.6 2.75 -1.95 -1.65 -2.1 -1.8 -1.9 -1.95 -1.75 -2.45 -1.45 -2.55 -1.4 -2.75 -1.4 -3.0 -1.45 -6.1 -0.9 Q-6.9 -0.65 -7.4 -1.2 L-8.5 -1.05 -8.65 -1.2 -6.8 -2.6 -5.9 -3.2 -5.55 -3.65 Q-3.8 -3.05 -2.3 -4.1 L-2.1 -4.2 -1.85 -4.15 -1.6 -4.1 5.95 -3.0 Q7.7 -2.9 8.25 -1.6 M-3.15 5.55 Q-6.0 6.15 -7.5 3.7 L-7.7 3.0 -7.7 2.65 -6.0 3.35 -1.85 3.9 0.35 4.15 -0.15 4.7 -3.15 5.55" fill="#e6b380" fill-rule="evenodd" stroke="none"/>
  </g>
</svg>