<svg xmlns:xlink="http://www.w3.org/1999/xlink" xmlns="http://www.w3.org/2000/svg" height="264.15px" width="342.25px">
  <g transform="matrix(1.0, 0.0, 0.0, 1.0, 243.25, 83.7)">
    <g data-characterId="1168" height="122.6" transform="matrix(1.0, 0.0, 0.0, 1.0, -52.0, -45.55)" width="110.5" xlink:href="#shape0"><g id="shape0" transform="matrix(1.0, 0.0, 0.0, 1.0, 52.0, 45.55)">
      <path d="M14.7 -39.4 Q16.1 -42.0 19.0 -42.0 L19.25 -41.75 17.85 -40.2 Q16.95 -39.2 17.0 -38.0 L20.7 -38.4 24.4 -37.9 25.6 -36.65 Q24.4 -35.85 23.5 -34.5 L24.7 -33.95 26.45 -33.5 Q28.0 -33.15 29.4 -32.4 L34.7 -28.85 39.05 -25.1 41.1 -22.7 42.3 -20.45 42.9 -18.8 44.9 -13.0 Q46.4 -8.3 47.1 -3.5 L47.15 -3.15 47.6 3.0 48.55 2.9 48.7 4.5 Q48.75 5.5 49.1 6.45 51.2 12.8 52.5 19.5 53.4 24.15 55.35 28.55 L55.95 30.5 Q56.4 33.05 58.0 34.0 57.05 34.65 54.9 33.15 L53.1 31.85 Q50.2 29.85 48.25 27.1 L47.75 34.25 Q47.35 40.75 48.7 47.1 L50.3 53.85 51.8 59.4 Q53.5 65.0 58.0 68.55 55.05 69.55 52.0 69.15 49.4 68.75 47.45 67.15 L45.15 65.2 43.6 63.95 Q42.2 62.75 42.0 61.05 41.8 61.65 41.75 62.3 41.65 63.5 42.0 64.65 42.5 66.45 43.45 68.1 46.0 72.5 49.0 76.55 L46.7 76.4 41.35 75.0 Q37.2 73.35 34.05 70.45 32.5 68.9 31.65 66.8 30.45 63.9 30.6 60.7 30.7 57.95 31.1 55.2 L31.4 51.05 31.45 47.6 31.4 43.55 31.2 38.1 31.05 36.0 Q30.65 31.5 32.25 27.35 L33.25 24.95 35.0 21.05 Q36.9 16.7 37.45 12.0 L37.65 8.35 Q37.65 6.95 37.05 5.65 36.15 3.6 34.65 1.9 33.65 0.65 32.15 1.1 29.85 1.9 28.4 3.9 L27.0 6.6 24.35 15.2 23.15 19.5 22.75 22.15 21.6 22.0 Q19.35 10.5 19.45 -1.0 19.5 -4.15 20.15 -7.0 L21.65 -14.15 22.0 -16.5 Q19.95 -14.3 17.65 -12.45 13.7 -9.15 8.9 -7.3 L5.0 -6.0 7.4 -11.15 Q8.15 -13.1 8.1 -15.15 L8.0 -18.0 7.5 -18.0 5.05 -14.8 Q2.55 -11.55 -0.4 -8.9 -3.6 -5.95 -7.4 -3.85 -11.2 -1.65 -15.7 -0.55 L-11.5 -7.0 Q-12.9 -6.9 -14.1 -6.1 -16.95 -4.4 -19.65 -2.45 L-22.5 0.05 Q-25.2 2.8 -27.4 5.9 -28.4 7.3 -28.9 8.95 L-29.5 11.15 -30.0 13.0 -31.45 6.3 Q-31.8 4.55 -31.75 2.9 -31.6 0.0 -30.3 -2.65 -29.9 -3.45 -29.75 -4.3 L-29.0 -7.5 -31.05 -6.1 Q-35.15 -3.05 -36.6 1.95 L-38.75 9.4 -39.0 10.0 -38.75 9.4 -36.6 1.95 Q-35.15 -3.05 -31.05 -6.1 L-29.0 -7.5 -29.75 -4.3 Q-29.9 -3.45 -30.3 -2.65 -31.6 0.0 -31.75 2.9 -31.8 4.55 -31.45 6.3 -33.0 9.45 -33.45 12.55 -33.85 15.15 -33.9 17.8 -33.95 20.2 -33.35 23.25 L-33.5 23.65 Q-34.3 25.7 -35.7 27.25 L-38.6 30.2 -38.8 30.0 -38.6 23.8 -38.05 18.55 -37.0 13.0 -42.55 17.95 Q-45.35 20.5 -49.0 20.5 -45.1 13.55 -42.35 6.15 L-41.65 3.85 -40.7 0.4 -40.0 -1.25 Q-39.6 -2.35 -40.5 -3.0 -41.9 -1.65 -43.7 -1.15 -47.65 -0.3 -51.5 0.0 -46.9 -4.45 -43.45 -9.85 -40.6 -14.35 -38.05 -19.05 L-36.7 -21.6 -34.35 -25.95 -32.8 -28.0 -30.85 -29.8 -27.55 -32.55 Q-24.0 -35.4 -20.2 -38.05 L-17.45 -39.9 Q-14.55 -41.8 -11.3 -42.6 L-8.75 -43.2 -0.25 -42.3 4.95 -41.35 9.0 -40.5 8.8 -45.05 Q12.4 -42.8 14.7 -39.4 M-34.5 -8.0 L-40.7 0.4 -34.5 -8.0 M44.5 18.5 Q44.45 20.05 45.15 21.4 L45.75 22.6 46.85 24.85 48.25 27.1 46.85 24.85 45.75 22.6 45.15 21.4 Q44.45 20.05 44.5 18.5 M29.5 -1.5 L31.0 -4.5 29.5 -1.5 M23.0 10.5 L24.65 5.8 25.2 4.05 27.0 -2.2 27.1 -2.6 27.6 -6.0 27.5 -6.5 27.6 -6.0 27.1 -2.6 27.0 -2.2 25.2 4.05 24.65 5.8 23.0 10.5 M33.5 57.05 Q33.05 52.3 32.9 47.6 32.7 42.8 33.0 38.0 L33.1 36.8 33.5 30.0 33.1 36.8 33.0 38.0 Q32.7 42.8 32.9 47.6 33.05 52.3 33.5 57.05 M36.0 37.0 L36.5 29.5 36.0 37.0 M-36.5 -10.5 L-34.0 -15.0 -36.5 -10.5 M-29.0 3.0 L-24.75 -1.9 -24.6 -2.05 Q-21.6 -5.25 -18.15 -7.65 -16.2 -9.0 -15.0 -11.0 -16.2 -9.0 -18.15 -7.65 -21.6 -5.25 -24.6 -2.05 L-24.75 -1.9 -29.0 3.0" fill="url(#gradient0)" fill-rule="evenodd" stroke="none"/>
      <path d="M14.7 -39.4 Q12.4 -42.8 8.8 -45.05 L9.0 -40.5 4.95 -41.35 -0.25 -42.3 -8.75 -43.2 -11.3 -42.6 Q-14.55 -41.8 -17.45 -39.9 L-20.2 -38.05 Q-24.0 -35.4 -27.55 -32.55 L-30.85 -29.8 -32.8 -28.0 -34.35 -25.95 -36.7 -21.6 -38.05 -19.05 Q-40.6 -14.35 -43.45 -9.85 -46.9 -4.45 -51.5 0.0 -47.65 -0.3 -43.7 -1.15 -41.9 -1.65 -40.5 -3.0 -39.6 -2.35 -40.0 -1.25 L-40.7 0.4 -41.65 3.85 -42.35 6.15 Q-45.1 13.55 -49.0 20.5 -45.35 20.5 -42.55 17.95 L-37.0 13.0 -38.05 18.55 -38.6 23.8 -38.8 30.0 -38.6 30.2 -35.7 27.25 Q-34.3 25.7 -33.5 23.65" fill="none" stroke="#000000" stroke-linecap="round" stroke-linejoin="round" stroke-width="2.0"/>
      <path d="M24.4 -37.9 L20.7 -38.4 17.0 -38.0 Q16.95 -39.2 17.85 -40.2 L19.25 -41.75 19.0 -42.0 Q16.1 -42.0 14.7 -39.4 M-40.7 0.4 L-34.5 -8.0 M47.6 3.0 L47.15 -3.15 47.1 -3.5 Q46.4 -8.3 44.9 -13.0 L42.9 -18.8 42.3 -20.45 41.1 -22.7 39.05 -25.1 34.7 -28.85 29.4 -32.4 Q28.0 -33.15 26.45 -33.5 L24.7 -33.95 23.5 -34.5 Q24.4 -35.85 25.6 -36.65 L26.35 -36.95 Q25.55 -37.75 24.4 -37.9 M8.0 -18.0 L8.1 -15.15 Q8.15 -13.1 7.4 -11.15 L5.0 -6.0 8.9 -7.3 Q13.7 -9.15 17.65 -12.45 19.95 -14.3 22.0 -16.5 L21.65 -14.15 20.15 -7.0 Q19.5 -4.15 19.45 -1.0 19.35 10.5 21.6 22.0 L22.45 25.1 23.5 28.0 Q22.55 25.1 22.75 22.15 L23.15 19.5 24.35 15.2 27.0 6.6 28.4 3.9 Q29.85 1.9 32.15 1.1 33.65 0.65 34.65 1.9 36.15 3.6 37.05 5.65 37.65 6.95 37.65 8.35 L37.45 12.0 Q36.9 16.7 35.0 21.05 L33.25 24.95 32.25 27.35 Q30.65 31.5 31.05 36.0 L31.2 38.1 31.4 43.55 31.45 47.6 31.4 51.05 31.1 55.2 Q30.7 57.95 30.6 60.7 30.45 63.9 31.65 66.8 32.5 68.9 34.05 70.45 37.2 73.35 41.35 75.0 L46.7 76.4 49.0 76.55 Q46.0 72.5 43.45 68.1 42.5 66.45 42.0 64.65 41.65 63.5 41.75 62.3 41.8 61.65 42.0 61.05 42.2 62.75 43.6 63.95 L45.15 65.2 47.45 67.15 Q49.4 68.75 52.0 69.15 55.05 69.55 58.0 68.55 53.5 65.0 51.8 59.4 L50.3 53.85 48.7 47.1 Q47.35 40.75 47.75 34.25 L48.25 27.1 46.85 24.85 45.75 22.6 45.15 21.4 Q44.45 20.05 44.5 18.5 M-31.45 6.3 L-30.0 13.0 -29.5 11.15 -28.9 8.95 Q-28.4 7.3 -27.4 5.9 -25.2 2.8 -22.5 0.05 L-19.65 -2.45 Q-16.95 -4.4 -14.1 -6.1 -12.9 -6.9 -11.5 -7.0 L-15.7 -0.55 Q-11.2 -1.65 -7.4 -3.85 -3.6 -5.95 -0.4 -8.9 2.55 -11.55 5.05 -14.8 L7.5 -18.0 M27.5 -6.5 L27.6 -6.0 27.1 -2.6 27.0 -2.2 25.2 4.05 24.65 5.8 23.0 10.5 M31.0 -4.5 L29.5 -1.5 M48.25 27.1 Q50.2 29.85 53.1 31.85 L54.9 33.15 Q57.05 34.65 58.0 34.0 56.4 33.05 55.95 30.5 L55.35 28.55 Q53.4 24.15 52.5 19.5 51.2 12.8 49.1 6.45 48.75 5.5 48.7 4.5 L48.55 2.9 Q48.15 -0.2 47.15 -3.15 M36.5 29.5 L36.0 37.0 M33.5 30.0 L33.1 36.8 33.0 38.0 Q32.7 42.8 32.9 47.6 33.05 52.3 33.5 57.05 M-15.0 -11.0 Q-16.2 -9.0 -18.15 -7.65 -21.6 -5.25 -24.6 -2.05 L-24.75 -1.9 -29.0 3.0 M-34.0 -15.0 L-36.5 -10.5 M-31.45 6.3 Q-31.8 4.55 -31.75 2.9 -31.6 0.0 -30.3 -2.65 -29.9 -3.45 -29.75 -4.3 L-29.0 -7.5 -31.05 -6.1 Q-35.15 -3.05 -36.6 1.95 L-38.75 9.4 -39.0 10.0 M-33.5 23.65 L-33.35 23.25 Q-33.95 20.2 -33.9 17.8 -33.85 15.15 -33.45 12.55 -33.0 9.45 -31.45 6.3" fill="none" stroke="#000000" stroke-linecap="round" stroke-linejoin="round" stroke-width="2.0"/>
    </g>
    </g>
  </g>
  <defs>
    <radialGradient cx="0" cy="0" gradientTransform="matrix(0.0921, -0.0029, 0.0016, 0.0499, -0.5, -27.0)" gradientUnits="userSpaceOnUse" id="gradient0" r="819.2" spreadMethod="pad">
      <stop offset="0.0" stop-color="#5a4d36"/>
      <stop offset="0.5294117647058824" stop-color="#715c44"/>
      <stop offset="1.0" stop-color="#483a2b"/>
    </radialGradient>
  </defs>
</svg>