<svg xmlns:xlink="http://www.w3.org/1999/xlink" xmlns="http://www.w3.org/2000/svg" height="264.15px" width="342.25px">
  <g transform="matrix(1.0, 0.0, 0.0, 1.0, 243.25, 83.7)">
    <g data-characterId="1182" height="183.15" transform="matrix(1.0, 0.0, 0.0, 1.0, -44.9, -80.15)" width="113.4" xlink:href="#shape0"><g id="shape0" transform="matrix(1.0, 0.0, 0.0, 1.0, 44.9, 80.15)">
      <path d="M10.75 -2.8 L13.45 -0.8 14.25 -0.15 15.25 0.6 15.65 1.25 15.65 1.3 15.7 1.35 14.5 11.4 12.85 13.3 13.85 16.15 Q12.65 17.9 10.65 17.2 9.6 16.95 9.25 16.05 8.15 13.25 9.8 10.45 8.25 7.3 9.95 4.4 11.95 1.0 10.75 -2.8 M46.7 49.65 L50.5 55.15 50.2 59.7 51.3 60.6 Q57.05 61.5 59.3 65.3 59.75 66.05 60.5 66.6 64.9 69.3 66.85 73.95 67.15 74.65 67.1 75.6 67.0 77.25 68.0 78.5 62.75 80.4 59.3 75.8 58.9 75.25 58.15 75.0 56.7 74.45 55.9 73.05 L56.45 78.5 56.05 78.85 Q52.95 77.95 50.6 75.7 L49.55 74.3 Q48.65 72.55 46.95 71.4 46.5 71.0 46.4 70.35 L45.5 67.15 Q44.75 65.45 43.6 64.1 43.0 63.35 42.8 62.35 L42.65 61.25 42.55 60.55 39.5 54.5 Q41.7 51.6 45.15 50.25 L46.7 49.65 M39.05 53.35 L39.3 54.55 Q39.5 55.95 39.35 57.5 L34.65 58.05 32.4 58.5 Q34.1 60.9 33.15 63.55 L33.1 63.75 32.9 64.75 Q32.8 68.95 33.9 72.9 L33.05 74.5 31.2 74.2 Q27.9 73.65 25.6 75.75 24.75 74.05 25.55 72.3 26.4 70.6 26.15 68.9 25.35 68.4 25.05 67.55 24.2 64.85 26.4 62.55 23.4 58.75 25.25 54.15 23.75 52.75 24.55 50.7 L24.85 49.25 Q24.95 48.45 24.45 47.95 21.15 44.95 23.0 41.0 L22.05 40.3 Q18.8 37.55 21.5 34.0 L22.1 33.8 Q25.2 32.9 28.2 33.75 L30.45 34.45 29.8 31.3 Q28.45 30.4 27.7 30.35 24.1 30.2 21.5 32.5 L21.2 32.9 Q19.65 31.55 19.85 29.45 20.05 27.8 21.0 26.5 18.8 25.2 18.25 23.05 L18.05 21.8 Q18.0 21.15 18.1 20.5 18.2 19.05 18.75 17.5 16.8 14.8 18.55 12.05 L19.05 11.35 Q17.2 7.15 19.65 3.65 L21.85 4.9 23.55 6.0 Q26.05 8.05 27.8 11.0 31.95 17.95 33.9 25.75 34.55 28.15 34.85 30.6 L35.5 30.5 Q36.2 33.05 38.15 35.25 L39.7 36.75 Q42.8 39.45 44.85 46.15 L44.55 46.2 Q40.25 47.65 38.4 51.5 L38.05 50.75 37.4 49.55 37.7 50.2 38.05 50.75 38.35 51.55 39.05 53.35 M40.65 61.5 Q40.8 64.05 41.2 66.6 41.3 67.25 41.8 67.7 42.6 68.55 42.65 69.7 42.75 71.3 43.3 72.75 44.65 76.4 44.15 80.1 44.05 80.65 44.3 81.0 46.7 83.9 45.8 87.2 L44.4 87.85 42.1 91.25 40.7 90.4 Q38.55 87.9 37.2 84.8 L36.85 83.5 Q36.6 79.35 37.1 75.15 35.7 73.2 36.0 70.95 36.2 69.7 36.55 68.6 L35.05 64.15 Q36.8 62.05 39.3 61.7 L40.65 61.5 M33.65 77.9 L34.0 80.0 Q33.6 80.5 33.35 81.1 32.95 82.15 33.05 83.3 33.25 86.45 32.25 89.65 L31.95 91.35 31.5 97.0 33.1 98.65 Q32.9 101.45 30.25 102.25 L27.9 102.15 Q23.5 100.2 25.15 95.65 23.8 94.7 23.35 93.05 22.95 91.5 23.8 90.4 24.85 89.05 25.1 87.3 L24.3 85.9 Q23.55 84.65 24.0 83.1 24.75 80.55 26.65 78.7 L26.75 77.6 Q29.25 76.5 31.85 77.5 L33.0 78.0 33.65 77.9 M29.0 19.5 Q30.9 21.55 29.4 23.95 L29.75 24.7 Q30.9 27.15 29.0 29.0 30.9 27.15 29.75 24.7 L29.4 23.95 Q30.9 21.55 29.0 19.5 M32.4 58.5 L32.1 58.05 33.0 54.35 Q31.55 52.55 31.55 50.35 L31.65 49.0 30.45 45.5 Q30.05 41.65 30.6 37.75 L30.9 36.75 30.45 34.45 30.9 36.75 30.6 37.75 Q30.05 41.65 30.45 45.5 L31.65 49.0 31.55 50.35 Q31.55 52.55 33.0 54.35 L32.1 58.05 32.4 58.5 M35.5 43.0 Q37.3 45.0 37.15 47.85 37.1 48.8 37.4 49.55 37.1 48.8 37.15 47.85 37.3 45.0 35.5 43.0 M-25.95 51.15 Q-19.75 62.0 -16.0 63.0 L-12.5 56.0 -12.0 62.0 -10.75 61.35 -9.65 60.4 -8.7 59.3 -8.35 58.65 -8.1 57.95 -7.0 59.0 -8.0 61.5 Q-4.35 60.9 -1.05 59.15 0.9 58.05 2.5 56.5 L2.6 57.1 2.4 58.2 2.15 58.75 0.0 61.5 Q3.2 62.15 12.0 60.0 8.0 62.9 2.3 64.9 L-12.35 69.7 -12.55 69.3 -14.0 68.5 -18.95 71.6 -21.2 67.45 Q-22.5 65.2 -23.0 62.65 -22.5 65.2 -21.2 67.45 L-18.95 71.6 -14.0 68.5 -12.55 69.3 -12.4 69.7 -12.15 70.25 -12.7 71.1 -13.25 71.8 -12.0 72.7 -12.05 73.35 Q-12.3 76.0 -14.2 77.6 L-13.65 77.9 -13.45 78.7 Q-13.35 81.5 -15.65 82.65 L-16.5 83.0 -18.7 83.25 -19.5 82.8 Q-20.15 82.25 -20.45 81.35 L-19.0 79.3 -19.55 79.2 -19.9 78.8 -20.0 77.65 Q-20.05 75.75 -18.65 74.65 L-19.65 74.4 -20.1 73.7 Q-22.15 75.6 -23.5 78.15 -24.4 79.85 -26.0 80.95 -27.85 82.4 -29.75 81.25 L-29.5 79.7 -29.3 76.5 Q-29.25 73.4 -26.65 72.05 -27.4 69.0 -25.0 66.95 -23.1 65.3 -23.05 62.7 L-23.0 62.65 -23.05 62.25 Q-24.0 57.75 -25.2 53.6 L-25.95 51.15 -25.2 53.6 Q-26.9 55.65 -27.15 56.6 -27.7 58.7 -27.85 60.9 -28.4 67.9 -34.5 71.0 L-34.55 79.7 -37.05 80.6 Q-39.2 84.7 -43.7 83.85 -43.75 82.25 -44.15 80.75 -44.95 78.05 -43.2 75.9 -41.35 73.65 -42.0 70.7 L-39.3 69.15 -39.5 65.8 Q-38.4 65.5 -38.15 64.45 -36.95 60.05 -33.45 57.3 -33.4 56.15 -32.95 55.25 -31.85 53.15 -30.2 51.3 L-30.6 50.35 Q-30.8 49.5 -30.4 48.9 -28.05 45.25 -29.5 41.0 L-28.95 40.85 -26.2 51.25 -25.95 51.15 M-15.95 86.85 L-15.5 87.5 Q-14.4 89.6 -15.0 92.15 -15.45 94.1 -17.0 95.5 L-17.5 95.15 -20.0 99.5 Q-19.45 97.75 -19.5 96.05 -19.6 94.2 -20.5 92.5 L-21.5 94.5 -21.85 92.75 Q-22.2 90.25 -19.85 87.0 -19.15 87.45 -18.05 87.45 -16.7 87.3 -15.95 86.85 M55.9 73.05 Q54.05 70.95 54.25 68.3 54.55 63.65 51.3 60.6 54.55 63.65 54.25 68.3 54.05 70.95 55.9 73.05 M-36.85 -1.45 L-36.8 -1.45 -34.85 -0.15 Q-34.0 4.0 -34.8 8.4 -33.95 9.25 -34.05 10.4 -34.35 14.05 -37.0 16.5 L-37.75 14.3 Q-38.15 12.0 -38.1 9.35 L-37.85 7.65 Q-36.55 3.25 -36.85 -1.45 M-18.95 71.6 L-19.4 71.9 -20.1 73.7 -19.4 71.9 -18.95 71.6 M-14.2 77.6 L-15.1 78.3 Q-16.85 79.55 -19.0 79.3 -16.85 79.55 -15.1 78.3 L-14.2 77.6 M-18.65 74.65 Q-15.4 74.2 -13.25 71.8 -15.4 74.2 -18.65 74.65" fill="#006600" fill-rule="evenodd" stroke="none"/>
      <path d="M44.85 46.15 L44.95 46.6 46.7 49.65 45.15 50.25 Q41.7 51.6 39.5 54.5 L39.5 54.45 39.05 53.35 38.4 51.5 Q40.25 47.65 44.55 46.2 L44.85 46.15 M39.35 57.5 L40.65 61.5 39.3 61.7 Q36.8 62.05 35.05 64.15 L34.65 58.05 39.35 57.5 M33.05 74.5 L33.65 77.9 33.0 78.0 31.85 77.5 Q29.25 76.5 26.75 77.6 L25.6 75.75 Q27.9 73.65 31.2 74.2 L33.05 74.5 M21.9 33.6 L22.0 33.5 21.2 32.9 21.5 32.5 Q24.1 30.2 27.7 30.35 28.45 30.4 29.8 31.3 L30.45 34.45 28.2 33.75 Q25.2 32.9 22.1 33.8 L21.9 33.6 M-16.5 83.0 L-15.35 83.4 Q-14.35 85.9 -15.95 86.85 -16.7 87.3 -18.05 87.45 -19.15 87.45 -19.85 87.0 -20.85 86.3 -21.05 84.65 L-20.0 83.5 -19.5 82.8 -18.7 83.25 -16.5 83.0" fill="#ccff99" fill-rule="evenodd" stroke="none"/>
      <path d="M-13.55 18.25 L-14.2 17.95 -14.45 17.35 -14.2 16.7 Q-13.9 16.45 -13.55 16.45 -13.2 16.45 -12.95 16.7 -12.65 17.0 -12.65 17.35 -12.65 17.7 -12.95 17.95 -13.2 18.25 -13.55 18.25 M-12.15 24.25 Q-12.6 24.75 -13.3 24.75 -14.0 24.75 -14.5 24.25 L-14.95 23.1 Q-14.95 22.4 -14.5 21.9 -14.0 21.45 -13.3 21.45 -12.6 21.45 -12.15 21.9 -11.65 22.4 -11.65 23.1 -11.65 23.8 -12.15 24.25" fill="#ffff99" fill-rule="evenodd" stroke="none"/>
      <path d="M14.25 -0.15 L15.25 0.6 15.65 1.25 15.65 1.3 15.7 1.35 14.5 11.4 12.85 13.3 13.85 16.15 Q12.65 17.9 10.65 17.2 9.6 16.95 9.25 16.05 8.15 13.25 9.8 10.45 8.25 7.3 9.95 4.4 11.95 1.0 10.75 -2.8 M44.85 46.15 L44.95 46.6 46.7 49.65 50.5 55.15 50.2 59.7 51.3 60.6 Q57.05 61.5 59.3 65.3 59.75 66.05 60.5 66.6 64.9 69.3 66.85 73.95 67.15 74.65 67.1 75.6 67.0 77.25 68.0 78.5 62.75 80.4 59.3 75.8 58.9 75.25 58.15 75.0 56.7 74.45 55.9 73.05 L56.45 78.5 56.05 78.85 Q52.95 77.95 50.6 75.7 L49.55 74.3 Q48.65 72.55 46.95 71.4 46.5 71.0 46.4 70.35 L45.5 67.15 Q44.75 65.45 43.6 64.1 43.0 63.35 42.8 62.35 L42.65 61.25 42.55 60.55 39.5 54.5 39.5 54.45 39.05 53.35 39.3 54.55 Q39.5 55.95 39.35 57.5 L40.65 61.5 Q40.8 64.05 41.2 66.6 41.3 67.25 41.8 67.7 42.6 68.55 42.65 69.7 42.75 71.3 43.3 72.75 44.65 76.4 44.15 80.1 44.05 80.65 44.3 81.0 46.7 83.9 45.8 87.2 L44.4 87.85 42.1 91.25 40.7 90.4 Q38.55 87.9 37.2 84.8 L36.85 83.5 Q36.6 79.35 37.1 75.15 35.7 73.2 36.0 70.95 36.2 69.7 36.55 68.6 L35.05 64.15 34.65 58.05 32.4 58.5 Q34.1 60.9 33.15 63.55 L33.1 63.75 32.9 64.75 Q32.8 68.95 33.9 72.9 L33.05 74.5 33.65 77.9 34.0 80.0 Q33.6 80.5 33.35 81.1 32.95 82.15 33.05 83.3 33.25 86.45 32.25 89.65 L31.95 91.35 31.5 97.0 33.1 98.65 Q32.9 101.45 30.25 102.25 L27.9 102.15 Q23.5 100.2 25.15 95.65 23.8 94.7 23.35 93.05 22.95 91.5 23.8 90.4 24.85 89.05 25.1 87.3 L24.3 85.9 Q23.55 84.65 24.0 83.1 24.75 80.55 26.65 78.7 L26.75 77.6 25.6 75.75 Q24.75 74.05 25.55 72.3 26.4 70.6 26.15 68.9 25.35 68.4 25.05 67.55 24.2 64.85 26.4 62.55 23.4 58.75 25.25 54.15 23.75 52.75 24.55 50.7 L24.85 49.25 Q24.95 48.45 24.45 47.95 21.15 44.95 23.0 41.0 L22.05 40.3 Q18.8 37.55 21.5 34.0 L21.9 33.6 22.0 33.5 21.2 32.9 Q19.65 31.55 19.85 29.45 20.05 27.8 21.0 26.5 18.8 25.2 18.25 23.05 L18.05 21.8 Q18.0 21.15 18.1 20.5 18.2 19.05 18.75 17.5 16.8 14.8 18.55 12.05 L19.05 11.35 Q17.2 7.15 19.65 3.65 20.0 3.05 20.5 2.5 M38.4 51.5 Q40.25 47.65 44.55 46.2 L44.85 46.15 Q42.8 39.45 39.7 36.75 L38.15 35.25 Q36.2 33.05 35.5 30.5 M29.0 29.0 Q30.9 27.15 29.75 24.7 L29.4 23.95 Q30.9 21.55 29.0 19.5 M30.45 34.45 L30.9 36.75 30.6 37.75 Q30.05 41.65 30.45 45.5 L31.65 49.0 31.55 50.35 Q31.55 52.55 33.0 54.35 L32.1 58.05 32.4 58.5 M21.5 32.5 Q24.1 30.2 27.7 30.35 28.45 30.4 29.8 31.3 L30.45 34.45 28.2 33.75 Q25.2 32.9 22.1 33.8 L21.5 34.0 M37.4 49.55 Q37.1 48.8 37.15 47.85 37.3 45.0 35.5 43.0 M39.05 53.35 L38.35 51.55 38.05 50.75 37.7 50.2 37.4 49.55 38.05 50.75 38.4 51.5 39.05 53.35 M38.4 51.5 L38.35 51.55 M34.65 58.05 L39.35 57.5 M35.05 64.15 Q36.8 62.05 39.3 61.7 L40.65 61.5 M-12.35 69.7 L2.3 64.9 Q8.0 62.9 12.0 60.0 3.2 62.15 0.0 61.5 L2.15 58.75 2.4 58.2 2.6 57.1 2.5 56.5 Q0.9 58.05 -1.05 59.15 -4.35 60.9 -8.0 61.5 L-7.0 59.0 -8.1 57.95 -8.35 58.65 -8.7 59.3 -9.65 60.4 -10.75 61.35 -12.0 62.0 -12.5 56.0 -16.0 63.0 Q-19.75 62.0 -25.95 51.15 L-25.2 53.6 Q-24.0 57.75 -23.05 62.25 L-23.0 62.65 Q-22.5 65.2 -21.2 67.45 L-18.95 71.6 -14.0 68.5 -12.55 69.3 -12.4 69.7 -12.15 70.25 -12.7 71.1 -13.25 71.8 -12.0 72.7 -12.05 73.35 Q-12.3 76.0 -14.2 77.6 L-13.65 77.9 -13.45 78.7 Q-13.35 81.5 -15.65 82.65 L-16.5 83.0 -15.35 83.4 Q-14.35 85.9 -15.95 86.85 -16.7 87.3 -18.05 87.45 -19.15 87.45 -19.85 87.0 -20.85 86.3 -21.05 84.65 L-20.0 83.5 M-12.35 69.7 L-12.4 69.7 M-15.5 87.5 Q-14.4 89.6 -15.0 92.15 -15.45 94.1 -17.0 95.5 L-17.5 95.15 -20.0 99.5 Q-19.45 97.75 -19.5 96.05 -19.6 94.2 -20.5 92.5 L-21.5 94.5 -21.85 92.75 Q-22.2 90.25 -19.85 87.0 M-19.5 82.8 Q-20.15 82.25 -20.45 81.35 L-19.0 79.3 -19.55 79.2 -19.9 78.8 -20.0 77.65 Q-20.05 75.75 -18.65 74.65 L-19.65 74.4 -20.1 73.7 Q-22.15 75.6 -23.5 78.15 -24.4 79.85 -26.0 80.95 -27.85 82.4 -29.75 81.25 L-29.5 79.7 -29.3 76.5 Q-29.25 73.4 -26.65 72.05 -27.4 69.0 -25.0 66.95 -23.1 65.3 -23.05 62.7 L-23.05 62.25 M26.75 77.6 Q29.25 76.5 31.85 77.5 L33.0 78.0 M33.05 74.5 L31.2 74.2 Q27.9 73.65 25.6 75.75 M46.7 49.65 L45.15 50.25 Q41.7 51.6 39.5 54.5 M51.3 60.6 Q54.55 63.65 54.25 68.3 54.05 70.95 55.9 73.05 M-37.0 -3.0 L-36.85 -1.5 -36.85 -1.45 Q-36.55 3.25 -37.85 7.65 L-38.1 9.35 Q-38.15 12.0 -37.75 14.3 L-37.0 16.5 Q-34.35 14.05 -34.05 10.4 -33.95 9.25 -34.8 8.4 -34.0 4.0 -34.85 -0.15 -35.25 -2.1 -36.0 -4.0 M-29.5 41.0 Q-28.05 45.25 -30.4 48.9 -30.8 49.5 -30.6 50.35 L-30.2 51.3 Q-31.85 53.15 -32.95 55.25 -33.4 56.15 -33.45 57.3 -36.95 60.05 -38.15 64.45 -38.4 65.5 -39.5 65.8 L-39.3 69.15 -42.0 70.7 Q-41.35 73.65 -43.2 75.9 -44.95 78.05 -44.15 80.75 -43.75 82.25 -43.7 83.85 -39.2 84.7 -37.05 80.6 L-34.55 79.7 -34.5 71.0 Q-28.4 67.9 -27.85 60.9 -27.7 58.7 -27.15 56.6 -26.9 55.65 -25.2 53.6 M-20.1 73.7 L-19.4 71.9 -18.95 71.6 M-19.0 79.3 Q-16.85 79.55 -15.1 78.3 L-14.2 77.6 M-16.5 83.0 L-18.7 83.25 -19.5 82.8 M-13.25 71.8 Q-15.4 74.2 -18.65 74.65" fill="none" stroke="#003300" stroke-linecap="round" stroke-linejoin="round" stroke-width="2.0"/>
      <path d="M-13.55 18.25 L-14.2 17.95 -14.45 17.35 -14.2 16.7 Q-13.9 16.45 -13.55 16.45 -13.2 16.45 -12.95 16.7 -12.65 17.0 -12.65 17.35 -12.65 17.7 -12.95 17.95 -13.2 18.25 -13.55 18.25 M-12.15 24.25 Q-12.6 24.75 -13.3 24.75 -14.0 24.75 -14.5 24.25 L-14.95 23.1 Q-14.95 22.4 -14.5 21.9 -14.0 21.45 -13.3 21.45 -12.6 21.45 -12.15 21.9 -11.65 22.4 -11.65 23.1 -11.65 23.8 -12.15 24.25" fill="none" stroke="#666600" stroke-linecap="round" stroke-linejoin="round" stroke-width="2.0"/>
      <path d="M18.25 23.05 L18.0 23.2 Q15.95 24.6 13.75 25.0 M-0.5 15.5 L-0.35 17.55 -0.1 18.15 Q0.8 19.55 1.3 21.4 L2.75 21.25 3.5 21.15 3.8 21.1 Q3.55 19.4 4.45 18.15 4.75 17.75 5.3 17.6 L6.25 17.5 M-0.25 29.25 Q-0.1 27.6 1.5 27.75 4.5 27.95 5.3 30.75 6.05 33.3 4.1 35.35 2.25 37.25 -0.5 37.15 L-1.25 37.0 Q-3.9 36.15 -4.95 33.5 -5.8 31.3 -5.75 28.75 -5.7 26.35 -4.2 24.55 -2.55 22.5 0.0 21.7 L1.3 21.4 M19.75 26.75 Q18.35 25.75 17.05 27.05 16.35 27.75 16.6 28.75 17.0 30.45 15.55 31.55 L14.95 31.9 Q13.65 32.55 12.55 31.45 10.9 29.8 10.9 27.25 L10.8 26.5 Q10.35 24.1 8.75 22.25 L7.95 21.65 Q5.95 20.6 3.8 21.1 M13.5 20.0 L17.5 18.25 18.0 18.0 M18.1 20.5 L17.55 20.6 16.7 21.15 Q15.05 22.25 13.25 22.75 M19.5 29.25 Q18.5 29.3 18.5 30.5 L18.25 31.25 16.85 33.05 Q17.8 33.55 17.7 34.75 L17.05 36.05 Q15.35 37.95 13.0 38.4 L12.05 38.65 11.2 38.95 10.55 39.25 10.65 42.25 10.6 43.0 15.05 43.2 15.75 43.55 Q17.15 44.35 18.0 46.0 M16.85 33.05 L16.7 33.2 Q14.9 34.85 12.8 34.15 L12.0 33.75 9.9 32.15 M8.25 30.75 L8.15 30.25 M7.0 27.75 L7.0 27.25 7.0 26.75 M6.25 46.75 Q7.15 44.95 8.8 43.85 L10.0 43.2 10.6 43.0 10.45 43.5 10.1 44.7 10.8 44.95 13.3 44.8 14.5 44.25 15.2 43.9 15.75 43.55 M8.8 43.85 L9.95 44.65 10.1 44.7 Q9.05 47.9 7.0 50.75 M10.55 39.25 Q6.6 41.25 4.45 45.5 L4.1 46.3 3.0 48.25 1.75 49.25 M-2.0 22.25 Q-2.4 21.2 -2.4 20.0 -2.35 19.5 -2.6 19.05 L-3.25 18.25 Q-3.8 17.65 -4.8 17.35 -5.65 17.1 -6.25 17.75" fill="none" stroke="#330000" stroke-linecap="round" stroke-linejoin="round" stroke-width="2.0"/>
      <path d="M12.0 -76.5 Q13.4 -70.8 13.6 -64.9 L14.15 -47.5 14.65 -28.6 14.15 -47.5 13.6 -64.9 Q13.4 -70.8 12.0 -76.5 M-36.4 -36.0 L-34.8 -40.5 -31.25 -49.35 Q-26.5 -60.2 -19.45 -69.5 -16.35 -73.6 -11.65 -75.7 -9.0 -76.9 -5.95 -77.35 L13.45 -79.65 Q20.7 -75.9 24.4 -68.6 27.7 -62.1 30.05 -55.25 32.75 -47.3 34.55 -39.15 L38.2 -23.3 24.2 -34.5 Q21.2 -29.95 16.0 -28.6 21.2 -29.95 24.2 -34.5 L38.2 -23.3 40.2 -21.25 Q44.0 -17.05 46.6 -12.0 47.7 -2.6 46.6 6.6 45.55 15.05 42.4 23.2 L38.3 34.8 35.55 32.0 Q35.1 31.45 34.9 30.05 L33.9 25.75 Q31.95 17.95 27.8 11.0 26.05 8.05 23.55 6.0 L21.85 4.9 Q17.35 2.45 13.45 -0.8 5.75 -7.15 -4.05 -7.95 L-20.4 -9.1 -32.8 -8.45 -32.85 -8.25 -32.95 -7.75 -33.55 -5.5 -33.7 -5.0 Q-34.05 -3.2 -33.9 -1.25 L-33.5 0.5 Q-35.15 -0.2 -36.8 -1.45 L-38.2 -2.6 -38.8 -3.2 -40.4 -5.3 Q-41.0 -6.15 -41.15 -7.1 L-41.6 -7.0 Q-43.15 -15.2 -42.45 -22.45 -41.65 -31.4 -40.05 -40.35 L-36.4 -36.0 Q-34.85 -34.85 -32.85 -34.85 L-31.2 -35.3 Q-24.85 -38.35 -18.15 -40.05 -13.8 -40.95 -9.65 -40.15 -2.7 -38.65 1.25 -32.6 2.9 -30.05 5.55 -28.8 10.0 -26.65 14.65 -28.35 10.0 -26.65 5.55 -28.8 2.9 -30.05 1.25 -32.6 -2.7 -38.65 -9.65 -40.15 -13.8 -40.95 -18.15 -40.05 -24.85 -38.35 -31.2 -35.3 L-32.85 -34.85 Q-34.85 -34.85 -36.4 -36.0 M14.65 -28.6 L14.65 -28.35 16.0 -28.6 14.65 -28.6 M-18.8 -28.5 L-19.85 -27.75 -20.25 -29.5 -19.25 -29.5 -18.8 -28.5 M-16.25 -28.5 L-13.75 -27.95 -13.05 -26.95 -13.3 -25.85 Q-14.05 -22.85 -17.0 -22.0 -18.1 -25.45 -16.25 -28.5 M-26.3 -27.0 L-27.5 -25.65 -25.9 -26.45 Q-25.05 -23.25 -22.15 -21.65 L-21.0 -21.1 -20.9 -21.05 Q-18.5 -20.1 -15.8 -20.45 -11.45 -20.4 -10.5 -24.5 L-7.05 -22.4 Q-7.85 -27.7 -12.95 -29.6 -16.95 -31.1 -20.35 -30.4 -22.15 -30.0 -23.75 -29.0 L-23.8 -28.95 -26.3 -27.0 M-23.5 -28.5 Q-21.75 -27.85 -20.7 -26.85 -18.8 -25.0 -19.6 -22.0 L-20.5 -22.25 Q-23.8 -24.4 -23.5 -28.5 M-32.8 -8.45 L-41.15 -7.1 -32.8 -8.45" fill="url(#gradient0)" fill-rule="evenodd" stroke="none"/>
      <path d="M-16.25 -28.5 Q-18.1 -25.45 -17.0 -22.0 -14.05 -22.85 -13.3 -25.85 L-13.05 -26.95 -13.75 -27.95 -16.25 -28.5 M-18.8 -28.5 L-19.25 -29.5 -20.25 -29.5 -19.85 -27.75 -18.8 -28.5 M-26.3 -27.0 L-23.8 -28.95 -23.75 -29.0 Q-22.15 -30.0 -20.35 -30.4 -16.95 -31.1 -12.95 -29.6 -7.85 -27.7 -7.05 -22.4 L-10.5 -24.5 Q-11.45 -20.4 -15.8 -20.45 -18.5 -20.1 -20.9 -21.05 L-21.0 -21.1 -22.15 -21.65 Q-25.05 -23.25 -25.9 -26.45 L-26.3 -27.0 M-23.5 -28.5 Q-23.8 -24.4 -20.5 -22.25 L-19.6 -22.0 Q-18.8 -25.0 -20.7 -26.85 -21.75 -27.85 -23.5 -28.5" fill="url(#gradient1)" fill-rule="evenodd" stroke="none"/>
      <path d="M14.65 -28.6 L14.15 -47.5 13.6 -64.9 Q13.4 -70.8 12.0 -76.5 M38.2 -23.3 L34.55 -39.15 Q32.75 -47.3 30.05 -55.25 27.7 -62.1 24.4 -68.6 20.7 -75.9 13.45 -79.65 L-5.95 -77.35 Q-9.0 -76.9 -11.65 -75.7 -16.35 -73.6 -19.45 -69.5 -26.5 -60.2 -31.25 -49.35 L-34.8 -40.5 -36.4 -36.0 Q-34.85 -34.85 -32.85 -34.85 L-31.2 -35.3 Q-24.85 -38.35 -18.15 -40.05 -13.8 -40.95 -9.65 -40.15 -2.7 -38.65 1.25 -32.6 2.9 -30.05 5.55 -28.8 10.0 -26.65 14.65 -28.35 L14.65 -28.6 M16.0 -28.6 Q21.2 -29.95 24.2 -34.5 L38.2 -23.3 40.2 -21.25 Q44.0 -17.05 46.6 -12.0 47.7 -2.6 46.6 6.6 45.55 15.05 42.4 23.2 L38.3 34.8 35.55 32.0 Q35.1 31.45 34.9 30.05 L33.9 25.75 Q31.95 17.95 27.8 11.0 26.05 8.05 23.55 6.0 L21.85 4.9 Q17.35 2.45 13.45 -0.8 5.75 -7.15 -4.05 -7.95 L-20.4 -9.1 -32.8 -8.45 -32.85 -8.25 -32.95 -7.75 -33.55 -5.5 -33.7 -5.0 Q-34.05 -3.2 -33.9 -1.25 L-33.5 0.5 Q-35.15 -0.2 -36.8 -1.45 L-38.2 -2.6 -38.8 -3.2 -40.4 -5.3 Q-41.0 -6.15 -41.15 -7.1 L-41.6 -7.0 Q-43.15 -15.2 -42.45 -22.45 -41.65 -31.4 -40.05 -40.35 L-36.4 -36.0 M14.65 -28.35 L16.0 -28.6 M-25.9 -26.45 L-27.5 -25.65 -26.3 -27.0 M-41.15 -7.1 L-32.8 -8.45" fill="none" stroke="#000000" stroke-linecap="round" stroke-linejoin="round" stroke-width="2.0"/>
      <path d="M-16.25 -28.5 Q-18.1 -25.45 -17.0 -22.0 -14.05 -22.85 -13.3 -25.85 L-13.05 -26.95 -13.75 -27.95 -16.25 -28.5 M-18.8 -28.5 L-19.25 -29.5 -20.25 -29.5 -19.85 -27.75 -18.8 -28.5 M-26.3 -27.0 L-23.8 -28.95 -23.75 -29.0 Q-22.15 -30.0 -20.35 -30.4 -16.95 -31.1 -12.95 -29.6 -7.85 -27.7 -7.05 -22.4 L-10.5 -24.5 Q-11.45 -20.4 -15.8 -20.45 -18.5 -20.1 -20.9 -21.05 L-21.0 -21.1 -22.15 -21.65 Q-25.05 -23.25 -25.9 -26.45 L-26.3 -27.0 M-23.5 -28.5 Q-23.8 -24.4 -20.5 -22.25 L-19.6 -22.0 Q-18.8 -25.0 -20.7 -26.85 -21.75 -27.85 -23.5 -28.5 Z" fill="none" stroke="#000000" stroke-linecap="round" stroke-linejoin="round" stroke-width="1.5"/>
    </g>
    </g>
  </g>
  <defs>
    <linearGradient gradientTransform="matrix(0.0455, 0.0, 0.0, 0.0344, 0.9, -51.5)" gradientUnits="userSpaceOnUse" id="gradient0" spreadMethod="pad" x1="-819.2" x2="819.2">
      <stop offset="0.0" stop-color="#000000"/>
      <stop offset="0.3215686274509804" stop-color="#022a09"/>
      <stop offset="1.0" stop-color="#000000"/>
    </linearGradient>
    <linearGradient gradientTransform="matrix(0.0101, 0.0, 0.0, 0.0063, -18.0, -25.5)" gradientUnits="userSpaceOnUse" id="gradient1" spreadMethod="pad" x1="-819.2" x2="819.2">
      <stop offset="0.0" stop-color="#283f27"/>
      <stop offset="0.2627450980392157" stop-color="#75bf94"/>
      <stop offset="0.5137254901960784" stop-color="#ffffff"/>
      <stop offset="0.7333333333333333" stop-color="#97cea2"/>
      <stop offset="1.0" stop-color="#526747"/>
    </linearGradient>
  </defs>
</svg>