<svg xmlns:xlink="http://www.w3.org/1999/xlink" xmlns="http://www.w3.org/2000/svg" height="119.1px" width="213.05px">
  <g transform="matrix(1.0, 0.0, 0.0, 1.0, 94.65, 81.2)">
    <g data-characterId="934" height="109.2" transform="matrix(1.0, 0.0, 0.0, 1.0, -87.4, -73.6)" width="168.45" xlink:href="#shape0"><g id="shape0" transform="matrix(1.0, 0.0, 0.0, 1.0, 87.4, 73.6)">
      <path d="M46.15 -62.75 Q50.9 -63.7 55.45 -61.7 57.4 -60.8 59.5 -60.25 L59.45 -58.95 56.4 -58.15 62.15 -52.4 60.65 -52.2 Q63.65 -47.2 67.6 -42.15 69.1 -40.25 70.2 -38.0 L66.75 -40.25 72.75 -29.45 70.2 -30.5 Q72.15 -27.55 75.05 -25.4 76.3 -24.4 76.45 -22.85 L76.55 -21.3 75.3 -21.15 Q74.5 -21.5 73.65 -21.9 76.15 -19.55 76.8 -16.35 L76.75 -15.1 74.35 -14.75 78.2 -10.8 Q78.3 -9.45 77.3 -8.6 76.85 -8.2 76.35 -8.05 76.05 -7.85 75.75 -7.75 L74.25 -8.05 77.7 -4.05 74.25 -3.15 76.1 -1.35 75.75 -0.4 73.65 0.0 Q75.3 0.55 75.45 1.95 L75.3 3.7 72.9 2.8 Q63.5 -0.9 58.7 -9.8 L58.55 -10.35 Q59.4 -11.35 58.95 -12.6 57.0 -17.8 53.5 -22.45 L64.25 -20.2 Q64.6 -22.35 64.05 -24.2 58.1 -44.8 46.15 -62.75 M-70.9 0.45 L-73.05 0.5 -74.75 0.0 -74.15 -3.9 -77.7 -2.3 Q-77.35 -8.25 -72.5 -13.25 L-78.25 -12.1 Q-77.2 -19.7 -71.35 -24.75 L-81.7 -21.3 Q-77.8 -30.7 -69.65 -36.85 L-74.25 -37.4 Q-70.7 -41.9 -65.6 -44.9 L-75.4 -45.45 Q-68.0 -53.1 -58.1 -57.05 L-59.3 -58.05 -51.2 -60.5 -55.8 -62.15 -54.2 -62.45 Q-47.75 -63.55 -43.2 -59.15 -50.75 -56.0 -55.15 -49.1 L-56.3 -47.15 -53.35 -43.05 Q-54.05 -41.25 -55.0 -39.35 -55.65 -38.0 -55.1 -36.75 L-54.15 -35.0 Q-58.45 -28.25 -62.0 -20.5 -63.35 -17.45 -62.15 -14.3 L-56.1 -14.95 Q-63.15 -8.4 -68.3 -1.65 L-69.5 -0.5 -70.9 0.45" fill="#000000" fill-rule="evenodd" stroke="none"/>
      <path d="M-4.05 27.05 L-3.45 28.75 -11.3 29.3 -14.4 35.1 -16.35 30.85 -18.0 33.15 Q-19.0 34.45 -20.7 35.1 L-23.45 27.6 -24.7 17.0 -26.7 16.65 -26.95 15.1 -26.3 13.65 -32.65 14.05 Q-34.9 14.05 -36.8 12.55 -35.45 10.5 -34.8 8.3 -33.45 3.6 -34.55 -1.15 L-37.35 1.3 Q-37.8 1.1 -38.2 0.95 -39.75 0.3 -40.3 -1.3 -41.15 -3.75 -40.3 -6.35 L-45.15 -6.25 -46.65 -8.05 -50.65 -8.65 -50.65 -15.55 -56.1 -14.95 -62.15 -14.3 Q-63.35 -17.45 -62.0 -20.5 -58.45 -28.25 -54.15 -35.0 L-55.1 -36.75 Q-55.65 -38.0 -55.0 -39.35 -54.05 -41.25 -53.35 -43.05 L-56.3 -47.15 -55.15 -49.1 Q-50.75 -56.0 -43.2 -59.15 L-40.5 -60.0 Q-42.55 -54.35 -43.2 -48.3 -46.25 -20.75 -21.85 -18.0 L-19.35 -17.65 Q-14.3 -16.05 -11.8 -11.35 4.6 -23.25 23.9 -30.4 25.0 -30.8 26.05 -31.45 41.5 -47.35 39.0 -69.25 L38.65 -71.95 38.55 -73.1 Q42.6 -68.05 46.15 -62.75 58.1 -44.8 64.05 -24.2 64.6 -22.35 64.25 -20.2 L53.5 -22.45 Q57.0 -17.8 58.95 -12.6 59.4 -11.35 58.55 -10.35 49.6 -11.95 39.85 -16.45 35.9 -18.3 31.65 -17.3 34.65 -10.85 39.75 -5.75 L41.35 -3.55 Q42.4 -1.55 42.6 0.55 38.45 1.9 34.6 -1.8 32.55 -3.8 29.95 -5.2 L31.1 3.45 Q26.95 4.6 22.65 2.05 18.9 -0.15 14.4 -0.6 14.55 1.3 15.8 2.7 L19.2 6.2 19.65 6.8 19.95 7.45 20.45 8.9 Q18.8 10.35 16.65 9.55 14.05 8.4 11.2 7.5 L9.35 7.55 5.6 8.25 7.1 11.3 2.25 11.05 Q0.0 10.65 -1.95 11.65 L-2.9 12.25 -3.85 12.95 -3.95 15.45 5.2 20.7 -1.7 21.3 0.25 25.2 -4.05 27.05 M-11.8 -11.35 L-14.05 -8.9 Q-17.45 -5.0 -19.25 -0.05 -17.45 -5.0 -14.05 -8.9 L-11.8 -11.35 M-9.45 2.8 L-10.55 1.9 Q-15.0 0.55 -17.4 0.15 L-19.25 -0.05 Q-33.95 2.35 -24.55 11.3 L-23.6 11.5 Q-24.35 13.35 -24.15 15.2 -23.9 17.05 -22.9 18.3 L-22.3 18.3 -21.3 17.9 Q-19.85 17.25 -19.45 15.95 L-18.3 18.45 -16.4 18.65 -15.55 16.1 -12.35 17.5 -10.3 13.4 -10.65 11.8 -6.95 7.5 Q-7.3 5.9 -8.05 4.65 -8.7 3.65 -9.45 2.8 M-18.3 18.45 L-17.05 24.75 -17.2 26.5 -16.35 30.85 -17.2 26.5 -17.05 24.75 -18.3 18.45" fill="#3b2400" fill-rule="evenodd" stroke="none"/>
      <path d="M75.3 3.7 L80.55 4.6 Q62.7 30.7 30.25 32.75 12.6 33.55 -4.05 27.05 L0.25 25.2 -1.7 21.3 5.2 20.7 -3.95 15.45 -3.85 12.95 -2.9 12.25 -1.95 11.65 Q0.0 10.65 2.25 11.05 L7.1 11.3 5.6 8.25 9.35 7.55 11.2 7.5 Q14.05 8.4 16.65 9.55 18.8 10.35 20.45 8.9 L19.95 7.45 19.65 6.8 19.2 6.2 15.8 2.7 Q14.55 1.3 14.4 -0.6 18.9 -0.15 22.65 2.05 26.95 4.6 31.1 3.45 L29.95 -5.2 Q32.55 -3.8 34.6 -1.8 38.45 1.9 42.6 0.55 42.4 -1.55 41.35 -3.55 L39.75 -5.75 Q34.65 -10.85 31.65 -17.3 35.9 -18.3 39.85 -16.45 49.6 -11.95 58.55 -10.35 L58.7 -9.8 Q63.5 -0.9 72.9 2.8 L75.3 3.7 M-23.45 27.6 Q-27.5 24.5 -32.4 25.15 -63.45 29.75 -86.9 6.3 L-84.5 5.95 Q-77.2 4.5 -70.9 0.45 L-69.5 -0.5 -68.3 -1.65 Q-63.15 -8.4 -56.1 -14.95 L-50.65 -15.55 -50.65 -8.65 -46.65 -8.05 -45.15 -6.25 -40.3 -6.35 Q-41.15 -3.75 -40.3 -1.3 -39.75 0.3 -38.2 0.95 -37.8 1.1 -37.35 1.3 L-34.55 -1.15 Q-33.45 3.6 -34.8 8.3 -35.45 10.5 -36.8 12.55 -34.9 14.05 -32.65 14.05 L-26.3 13.65 -26.95 15.1 -26.7 16.65 -24.7 17.0 -23.45 27.6" fill="#211200" fill-rule="evenodd" stroke="none"/>
      <path d="M-40.5 -60.0 L-38.75 -59.25 Q-35.75 -54.7 -25.95 -46.7 -16.2 -38.75 -21.85 -18.0 -46.25 -20.75 -43.2 -48.3 -42.55 -54.35 -40.5 -60.0 M26.05 -31.45 L26.3 -40.7 26.2 -42.35 Q22.0 -62.25 28.5 -67.6 34.95 -72.95 38.65 -71.95 L39.0 -69.25 Q41.5 -47.35 26.05 -31.45" fill="#090400" fill-rule="evenodd" stroke="none"/>
      <path d="M-9.45 2.8 Q-8.7 3.65 -8.05 4.65 -7.3 5.9 -6.95 7.5 L-10.65 11.8 -10.3 13.4 -12.35 17.5 -15.55 16.1 -16.4 18.65 -18.3 18.45 -19.45 15.95 Q-19.85 17.25 -21.3 17.9 L-22.3 18.3 -22.9 18.3 Q-23.9 17.05 -24.15 15.2 -24.35 13.35 -23.6 11.5 L-24.55 11.3 Q-33.95 2.35 -19.25 -0.05 L-17.4 0.15 Q-15.0 0.55 -10.55 1.9 L-9.45 2.8 M-19.2 9.45 Q-19.2 11.0 -18.05 12.15 -16.95 13.25 -15.35 13.25 -13.75 13.25 -12.6 12.15 -11.5 11.0 -11.5 9.45 -11.5 7.9 -12.6 6.8 -13.75 5.65 -15.35 5.65 -16.95 5.65 -18.05 6.8 -19.2 7.9 -19.2 9.45 M-21.35 8.3 L-22.35 5.25 -25.6 6.8 -23.95 8.8 -21.35 8.3" fill="#a6917d" fill-rule="evenodd" stroke="none"/>
      <path d="M-21.35 8.3 L-23.95 8.8 -25.6 6.8 -22.35 5.25 -21.35 8.3 M-19.2 9.45 Q-19.2 7.9 -18.05 6.8 -16.95 5.65 -15.35 5.65 -13.75 5.65 -12.6 6.8 -11.5 7.9 -11.5 9.45 -11.5 11.0 -12.6 12.15 -13.75 13.25 -15.35 13.25 -16.95 13.25 -18.05 12.15 -19.2 11.0 -19.2 9.45" fill="#4fff82" fill-rule="evenodd" stroke="none"/>
      <path d="M75.3 3.7 L80.55 4.6 Q62.7 30.7 30.25 32.75 12.6 33.55 -4.05 27.05 L-3.45 28.75 -11.3 29.3 -14.4 35.1 -16.35 30.85 -18.0 33.15 Q-19.0 34.45 -20.7 35.1 L-23.45 27.6 Q-27.5 24.5 -32.4 25.15 -63.45 29.75 -86.9 6.3 L-84.5 5.95 Q-77.2 4.5 -70.9 0.45 M-43.2 -59.15 L-40.5 -60.0 -38.75 -59.25 Q-35.75 -54.7 -25.95 -46.7 -16.2 -38.75 -21.85 -18.0 L-19.35 -17.65 Q-14.3 -16.05 -11.8 -11.35 4.6 -23.25 23.9 -30.4 25.0 -30.8 26.05 -31.45 L26.3 -40.7 26.2 -42.35 Q22.0 -62.25 28.5 -67.6 34.95 -72.95 38.65 -71.95 L38.55 -73.1 Q42.6 -68.05 46.15 -62.75 M26.05 -31.45 Q41.5 -47.35 39.0 -69.25 L38.65 -71.95 M58.55 -10.35 Q49.6 -11.95 39.85 -16.45 35.9 -18.3 31.65 -17.3 34.65 -10.85 39.75 -5.75 L41.35 -3.55 Q42.4 -1.55 42.6 0.55 38.45 1.9 34.6 -1.8 32.55 -3.8 29.95 -5.2 L31.1 3.45 Q26.95 4.6 22.65 2.05 18.9 -0.15 14.4 -0.6 14.55 1.3 15.8 2.7 L19.2 6.2 19.65 6.8 19.95 7.45 20.45 8.9 Q18.8 10.35 16.65 9.55 14.05 8.4 11.2 7.5 L9.35 7.55 5.6 8.25 7.1 11.3 2.25 11.05 Q0.0 10.65 -1.95 11.65 L-2.9 12.25 -3.85 12.95 -3.95 15.45 5.2 20.7 -1.7 21.3 0.25 25.2 -4.05 27.05 M-56.1 -14.95 L-50.65 -15.55 -50.65 -8.65 -46.65 -8.05 -45.15 -6.25 -40.3 -6.35 Q-41.15 -3.75 -40.3 -1.3 -39.75 0.3 -38.2 0.95 -37.8 1.1 -37.35 1.3 L-34.55 -1.15 Q-33.45 3.6 -34.8 8.3 -35.45 10.5 -36.8 12.55 -34.9 14.05 -32.65 14.05 L-26.3 13.65 -26.95 15.1 -26.7 16.65 -24.7 17.0 -23.45 27.6 M-19.25 -0.05 Q-17.45 -5.0 -14.05 -8.9 L-11.8 -11.35 M-21.85 -18.0 Q-46.25 -20.75 -43.2 -48.3 -42.55 -54.35 -40.5 -60.0 M-9.45 2.8 L-10.55 1.9 Q-15.0 0.55 -17.4 0.15 L-19.25 -0.05 Q-33.95 2.35 -24.55 11.3 L-23.6 11.5 Q-24.35 13.35 -24.15 15.2 -23.9 17.05 -22.9 18.3 L-22.3 18.3 -21.3 17.9 Q-19.85 17.25 -19.45 15.95 L-18.3 18.45 -16.4 18.65 -15.55 16.1 -12.35 17.5 -10.3 13.4 -10.65 11.8 -6.95 7.5 Q-7.3 5.9 -8.05 4.65 -8.7 3.65 -9.45 2.8 M-19.2 9.45 Q-19.2 11.0 -18.05 12.15 -16.95 13.25 -15.35 13.25 -13.75 13.25 -12.6 12.15 -11.5 11.0 -11.5 9.45 -11.5 7.9 -12.6 6.8 -13.75 5.65 -15.35 5.65 -16.95 5.65 -18.05 6.8 -19.2 7.9 -19.2 9.45 M-21.35 8.3 L-22.35 5.25 -25.6 6.8 -23.95 8.8 -21.35 8.3 M-16.35 30.85 L-17.2 26.5 -17.05 24.75 -18.3 18.45" fill="none" stroke="#000000" stroke-linecap="round" stroke-linejoin="round" stroke-width="2.0"/>
    </g>
  </g>
  </g>
  <defs>
    </defs>
</svg>