<svg xmlns:xlink="http://www.w3.org/1999/xlink" xmlns="http://www.w3.org/2000/svg" height="141.1px" width="125.05px">
  <g transform="matrix(1.0, 0.0, 0.0, 1.0, 48.6, 54.85)">
    <g data-characterId="980" height="106.25" transform="matrix(1.0, 0.0, 0.0, 1.0, -38.05, -52.5)" width="76.4" xlink:href="#shape0"><g id="shape0" transform="matrix(1.0, 0.0, 0.0, 1.0, 38.05, 52.5)">
      <path d="M-37.0 -9.95 L-37.0 -10.0 Q-37.65 -11.75 -37.55 -13.85 -37.5 -16.4 -36.35 -19.7 -35.25 -23.0 -33.9 -29.2 -32.55 -35.4 -28.15 -40.65 -23.8 -45.9 -20.95 -47.75 -15.9 -51.1 -9.35 -51.45 L-7.9 -51.6 0.3 -52.0 Q5.75 -52.15 11.5 -49.65 L14.8 -48.0 17.05 -46.75 21.1 -44.1 29.0 -37.85 Q33.65 -33.95 36.05 -24.55 37.35 -19.5 37.7 -14.2 38.15 -7.6 37.1 -1.1 L37.05 -1.0 37.0 -0.45 36.8 0.4 Q35.9 5.15 33.85 9.65 L32.75 11.8 31.15 11.1 32.65 12.05 30.05 16.25 28.55 16.75 Q29.6 22.95 27.95 26.55 26.25 30.2 24.35 31.3 22.45 32.4 19.8 35.15 L14.6 40.45 Q12.05 43.0 6.8 45.7 L-0.6 48.9 -0.65 48.85 Q-1.4 47.75 -1.75 48.0 -1.4 47.75 -0.65 48.85 L-0.6 48.9 -6.45 50.85 -7.9 51.3 -9.6 51.65 Q-15.1 52.65 -20.35 50.9 L-23.45 49.6 Q-25.4 48.6 -25.7 45.4 L-25.75 44.9 Q-26.15 41.9 -27.55 38.55 L-30.5 31.95 -32.65 26.8 -33.45 24.45 -35.45 17.5 Q-38.5 8.0 -36.45 -1.45 L-36.25 -2.25 Q-35.75 0.2 -33.2 0.95 L-31.0 1.15 Q-29.95 1.0 -29.1 0.2 -27.95 -0.85 -27.5 -2.45 L-27.1 -3.9 -26.95 -4.25 Q-27.15 -5.5 -27.7 -6.65 -28.25 -7.75 -29.2 -8.45 -30.15 -9.25 -31.3 -9.6 L-33.75 -10.1 -37.0 -9.95 M13.0 -4.0 Q13.8 -2.75 14.05 -1.25 14.35 0.45 13.3 1.8 11.05 4.8 7.5 6.05 L7.2 6.3 7.0 7.5 Q6.8 12.2 7.25 16.75 6.8 12.2 7.0 7.5 L7.2 6.3 7.5 6.05 Q11.05 4.8 13.3 1.8 14.35 0.45 14.05 -1.25 13.8 -2.75 13.0 -4.0 M6.1 -1.75 Q7.25 -6.95 6.55 -12.25 L5.55 -12.9 2.1 -13.55 -0.3 -13.95 -3.5 -13.9 -10.0 -13.6 -10.8 -13.45 Q-11.95 -13.0 -12.5 -12.2 -15.25 -8.05 -13.45 -3.25 L-12.45 -0.75 Q-11.05 2.25 -7.95 3.65 -6.1 4.35 -4.0 4.3 L-1.7 4.0 2.1 2.8 4.1 1.8 Q5.2 1.1 5.6 0.05 L6.1 -1.75 M24.55 -6.25 Q25.25 -11.35 29.75 -12.0 31.0 -11.5 32.15 -9.85 34.9 -6.15 34.2 -1.45 L34.15 -1.2 34.15 -1.0 Q33.65 2.0 32.65 4.9 32.1 6.6 31.7 8.7 L31.15 11.1 Q29.0 13.65 26.9 12.7 L25.55 11.75 26.9 12.7 Q29.0 13.65 31.15 11.1 L31.7 8.7 Q32.1 6.6 32.65 4.9 33.65 2.0 34.15 -1.0 L34.15 -1.2 34.2 -1.45 Q34.9 -6.15 32.15 -9.85 31.0 -11.5 29.75 -12.0 25.25 -11.35 24.55 -6.25 M31.45 -1.65 L31.45 -3.65 31.25 -4.55 Q30.35 -6.65 28.95 -5.15 L28.6 -4.6 Q28.05 -2.8 26.45 -2.15 28.05 -2.8 28.6 -4.6 L28.95 -5.15 Q30.35 -6.65 31.25 -4.55 L31.45 -3.65 31.45 -1.65 M-21.5 -16.5 L-21.8 -15.0 Q-22.75 -11.55 -22.5 -8.0 -22.75 -11.55 -21.8 -15.0 L-21.5 -16.5 M-20.5 -14.25 L-20.7 -13.25 -20.75 -11.75 -20.7 -13.25 -20.5 -14.25 M-24.75 44.75 L-25.75 44.9 -24.75 44.75 M-15.6 22.75 Q-13.9 21.25 -14.55 19.1 -13.9 21.25 -15.6 22.75 M-27.05 -13.9 L-25.15 -11.95 Q-24.55 -14.4 -25.4 -7.45 L-26.75 3.25 -28.6 15.15 Q-29.95 23.25 -27.35 23.95 -24.85 24.65 -19.35 21.55 -24.85 24.65 -27.35 23.95 -29.95 23.25 -28.6 15.15 L-26.75 3.25 -25.4 -7.45 Q-24.55 -14.4 -25.15 -11.95 L-27.05 -13.9 M-19.35 21.55 L-19.1 21.4 Q-18.5 21.65 -18.2 21.95 -18.5 21.65 -19.1 21.4 L-19.35 21.55 M-26.2 19.55 L-26.25 19.55 -26.25 19.6 -26.2 19.55 M-20.5 50.0 L-20.35 50.9 -20.5 50.0 M-10.0 50.25 Q-9.3 50.25 -9.45 51.0 L-9.6 51.65 -9.45 51.0 Q-9.3 50.25 -10.0 50.25 M-14.5 47.5 L-14.55 48.25 -14.75 49.0 -14.55 48.25 -14.5 47.5 M29.45 4.35 L29.45 3.85 29.45 1.35 29.45 3.85 29.45 4.35 M1.5 44.0 L1.0 43.5 Q0.55 43.15 0.0 43.25 0.55 43.15 1.0 43.5 L1.5 44.0 M12.0 25.0 Q13.5 22.45 16.15 20.7 L17.05 22.2 16.15 20.7 Q13.5 22.45 12.0 25.0 M17.5 16.25 Q18.8 17.15 19.45 18.4 L19.0 18.75 16.65 20.35 16.15 20.7 Q15.5 19.95 14.5 19.5 15.5 19.95 16.15 20.7 L16.65 20.35 19.0 18.75 19.45 18.4 Q18.8 17.15 17.5 16.25 M20.0 20.25 L19.85 19.75 19.45 18.4 23.1 15.55 Q22.5 14.65 21.5 14.0 22.5 14.65 23.1 15.55 L19.45 18.4 19.85 19.75 20.0 20.25 M23.75 17.5 L23.7 17.0 23.1 15.55 26.9 12.7 23.1 15.55 23.7 17.0 23.75 17.5" fill="url(#gradient0)" fill-rule="evenodd" stroke="none"/>
      <path d="M32.75 11.8 L32.75 11.9 32.65 12.05 31.15 11.1 32.75 11.8" fill="url(#gradient1)" fill-rule="evenodd" stroke="none"/>
      <path d="M6.1 -1.75 L5.6 0.05 Q5.2 1.1 4.1 1.8 L2.1 2.8 -1.7 4.0 -4.0 4.3 Q-6.1 4.35 -7.95 3.65 -11.05 2.25 -12.45 -0.75 L-13.45 -3.25 Q-15.25 -8.05 -12.5 -12.2 -11.95 -13.0 -10.8 -13.45 L-10.0 -13.6 -3.5 -13.9 -0.3 -13.95 2.1 -13.55 5.55 -12.9 6.55 -12.25 Q7.25 -6.95 6.1 -1.75 M-36.25 -2.25 L-35.85 -4.45 -35.8 -6.55 Q-35.9 -7.35 -36.75 -9.35 L-37.0 -9.95 -33.75 -10.1 -31.3 -9.6 Q-30.15 -9.25 -29.2 -8.45 -28.25 -7.75 -27.7 -6.65 -27.15 -5.5 -26.95 -4.25 L-27.1 -3.9 -27.5 -2.45 Q-27.95 -0.85 -29.1 0.2 -29.95 1.0 -31.0 1.15 L-33.2 0.95 Q-35.75 0.2 -36.25 -2.25" fill="#e6b380" fill-rule="evenodd" stroke="none"/>
      <path d="M-37.0 -9.95 L-37.0 -10.0 Q-37.65 -11.75 -37.55 -13.85 -37.5 -16.4 -36.35 -19.7 -35.25 -23.0 -33.9 -29.2 -32.55 -35.4 -28.15 -40.65 -23.8 -45.9 -20.95 -47.75 -15.9 -51.1 -9.35 -51.45 L-7.9 -51.6 0.3 -52.0 Q5.75 -52.15 11.5 -49.65 L14.8 -48.0 17.05 -46.75 21.1 -44.1 29.0 -37.85 Q33.65 -33.95 36.05 -24.55 37.35 -19.5 37.7 -14.2 38.15 -7.6 37.1 -1.1 L37.05 -1.0 37.0 -0.45 36.8 0.4 Q35.9 5.15 33.85 9.65 L32.75 11.8 32.75 11.9 32.65 12.05 30.05 16.25 M19.8 35.15 L14.6 40.45 Q12.05 43.0 6.8 45.7 L-0.6 48.9 -6.45 50.85 -7.9 51.3 -9.6 51.65 Q-15.1 52.65 -20.35 50.9 L-23.45 49.6 Q-25.4 48.6 -25.7 45.4 L-25.75 44.9 Q-26.15 41.9 -27.55 38.55 L-30.5 31.95 -32.65 26.8 -33.45 24.45 -35.45 17.5 Q-38.5 8.0 -36.45 -1.45 L-36.25 -2.25 -35.85 -4.45 -35.8 -6.55 Q-35.9 -7.35 -36.75 -9.35 L-37.0 -9.95 M26.45 -2.15 Q28.05 -2.8 28.6 -4.6 L28.95 -5.15 Q30.35 -6.65 31.25 -4.55 L31.45 -3.65 31.45 -1.65 M25.55 11.75 L26.9 12.7 Q29.0 13.65 31.15 11.1 L31.7 8.7 Q32.1 6.6 32.65 4.9 33.65 2.0 34.15 -1.0 L34.15 -1.2 34.2 -1.45 Q34.9 -6.15 32.15 -9.85 31.0 -11.5 29.75 -12.0 25.25 -11.35 24.55 -6.25 M-19.35 21.55 Q-24.85 24.65 -27.35 23.95 -29.95 23.25 -28.6 15.15 L-26.75 3.25 -25.4 -7.45 Q-24.55 -14.4 -25.15 -11.95 L-27.05 -13.9 M-14.55 19.1 Q-13.9 21.25 -15.6 22.75 M29.45 1.35 L29.45 3.85 29.45 4.35" fill="none" stroke="#000000" stroke-linecap="round" stroke-linejoin="round" stroke-width="2.0"/>
      <path d="M28.55 16.75 Q29.6 22.95 27.95 26.55 26.25 30.2 24.35 31.3 22.45 32.4 19.8 35.15" fill="none" stroke="#b9a882" stroke-linecap="round" stroke-linejoin="round" stroke-width="1.5"/>
      <path d="M-0.6 48.9 L-0.5 49.5 M7.25 16.75 Q6.8 12.2 7.0 7.5 L7.2 6.3 7.5 6.05 Q11.05 4.8 13.3 1.8 14.35 0.45 14.05 -1.25 13.8 -2.75 13.0 -4.0 M-20.75 -11.75 L-20.7 -13.25 -20.5 -14.25 M-22.5 -8.0 Q-22.75 -11.55 -21.8 -15.0 L-21.5 -16.5 M-25.75 44.9 L-24.75 44.75 M-18.2 21.95 Q-18.5 21.65 -19.1 21.4 L-19.35 21.55 M-20.35 50.9 L-20.5 50.0 M-25.75 44.9 L-26.2 45.25 -27.0 46.25 M-14.75 49.0 L-14.55 48.25 -14.5 47.5 M-0.6 48.9 L-0.65 48.85 Q-1.4 47.75 -1.75 48.0 M-9.6 51.65 L-9.45 51.0 Q-9.3 50.25 -10.0 50.25 M-9.6 51.65 L-9.85 52.5 M-20.35 50.9 Q-20.35 51.7 -20.65 52.55 L-20.75 53.25 M26.9 12.7 L23.1 15.55 23.7 17.0 23.75 17.5 M21.5 14.0 Q22.5 14.65 23.1 15.55 L19.45 18.4 19.85 19.75 20.0 20.25 M14.5 19.5 Q15.5 19.95 16.15 20.7 L16.65 20.35 19.0 18.75 19.45 18.4 Q18.8 17.15 17.5 16.25 M17.05 22.2 L16.15 20.7 Q13.5 22.45 12.0 25.0 M0.0 43.25 Q0.55 43.15 1.0 43.5 L1.5 44.0" fill="none" stroke="#000000" stroke-linecap="round" stroke-linejoin="round" stroke-width="2.0"/>
    </g>
    </g>
  </g>
  <defs>
    <radialGradient cx="0" cy="0" gradientTransform="matrix(0.0543, 0.0, 0.0, 0.0824, -20.0, -3.0)" gradientUnits="userSpaceOnUse" id="gradient0" r="819.2" spreadMethod="pad">
      <stop offset="0.0" stop-color="#f1d0b1"/>
      <stop offset="0.6274509803921569" stop-color="#ecc59d"/>
      <stop offset="1.0" stop-color="#e9bb8f"/>
    </radialGradient>
    <radialGradient cx="0" cy="0" gradientTransform="matrix(0.0494, 0.0, 0.0, 0.0681, -16.0, 3.0)" gradientUnits="userSpaceOnUse" id="gradient1" r="819.2" spreadMethod="pad">
      <stop offset="0.0" stop-color="#f1d0b1"/>
      <stop offset="0.6274509803921569" stop-color="#ecc59d"/>
      <stop offset="1.0" stop-color="#e9bb8f"/>
    </radialGradient>
  </defs>
</svg>