<svg xmlns:xlink="http://www.w3.org/1999/xlink" xmlns="http://www.w3.org/2000/svg" height="18.75px" width="26.05px">
  <g transform="matrix(1.0, 0.0, 0.0, 1.0, 11.95, 5.7)">
    <path d="M8.2 -3.55 L10.05 -2.55 Q12.75 -0.75 12.9 2.5 L11.7 2.65 8.0 1.25 5.05 0.45 Q1.0 -0.9 -3.25 -0.45 L-7.45 -0.05 Q-8.2 0.15 -8.85 0.65 L-9.6 0.55 -10.6 -0.15 -10.25 -1.5 Q-9.2 -3.9 -6.35 -4.6 L-1.65 -4.3 1.95 -5.7 Q5.15 -5.05 8.2 -3.55 M10.25 11.3 Q4.75 11.8 -0.3 9.85 -2.25 9.25 -4.4 9.8 L-6.6 9.95 Q-9.05 9.9 -10.7 8.15 -11.9 6.85 -11.95 5.0 L-10.7 3.8 Q-10.0 3.2 -9.05 3.2 L-2.45 2.55 Q3.2 3.0 8.85 4.4 L11.45 5.05 Q13.4 5.55 14.05 7.2 L14.0 8.1 Q13.1 10.3 10.8 11.15 L10.25 11.3" fill="#e6b380" fill-rule="evenodd" stroke="none"/>
    <path d="M-4.15 11.95 Q-3.25 11.1 -1.7 11.25 -1.1 11.3 -0.65 11.8 L0.3 13.05" fill="none" stroke="#000000" stroke-linecap="round" stroke-linejoin="round" stroke-width="1.5"/>
  </g>
</svg>