<svg xmlns:xlink="http://www.w3.org/1999/xlink" xmlns="http://www.w3.org/2000/svg" height="119.1px" width="213.05px">
  <g transform="matrix(1.0, 0.0, 0.0, 1.0, 94.65, 81.2)">
    <g data-characterId="932" height="101.9" transform="matrix(1.0, 0.0, 0.0, 1.0, -78.9, -81.2)" width="174.2" xlink:href="#shape0"><g id="shape0" transform="matrix(1.0, 0.0, 0.0, 1.0, 78.9, 81.2)">
      <path d="M31.85 -16.4 Q32.5 -17.05 33.9 -16.9 L35.0 -16.65 Q38.15 -15.7 38.7 -15.7 L39.15 -16.0 40.55 -20.3 Q42.1 -24.5 44.2 -28.5 L44.5 -28.45 Q46.2 -26.6 46.5 -24.3 46.7 -22.45 46.0 -20.35 49.0 -17.6 52.45 -15.55 55.95 -13.5 59.9 -12.15 67.45 -9.6 76.65 -9.85 87.0 -10.1 93.35 -4.6 91.5 11.0 73.45 12.8 65.75 13.7 58.65 17.3 44.5 24.4 35.15 14.15 L33.8 12.55 Q31.5 9.6 30.6 5.6 L29.95 5.15 Q19.15 2.2 27.25 -3.6 L30.25 -5.65 30.55 -11.2 Q30.8 -14.95 31.85 -16.4 M-25.65 -16.6 L-24.2 -13.85 Q-24.3 -12.9 -23.45 -11.45 -22.75 -10.15 -22.0 -9.6 -14.15 -3.4 -16.6 4.3 L-18.7 5.15 Q-22.4 6.5 -25.5 4.2 L-26.5 4.8 Q-30.45 7.35 -32.5 11.5 L-32.65 11.65 Q-37.2 15.2 -43.2 14.9 L-49.65 15.1 -55.85 13.85 Q-75.65 10.0 -78.4 -7.8 -60.55 -14.6 -40.6 -18.55 -36.35 -19.4 -35.9 -22.6 L-35.4 -30.75 Q-34.25 -26.35 -32.5 -22.5 -31.35 -20.0 -29.95 -18.8 -28.55 -17.6 -25.65 -16.6 M43.65 -14.65 Q39.85 -11.75 36.55 -7.95 34.95 -6.15 33.2 -5.15 27.45 -1.85 28.6 2.8 L30.0 2.35 28.6 2.8 Q27.45 -1.85 33.2 -5.15 34.95 -6.15 36.55 -7.95 39.85 -11.75 43.65 -14.65 M65.4 10.2 Q68.5 9.75 71.3 8.4 73.4 7.45 75.3 6.25 78.35 4.45 79.55 1.4 L65.4 4.8 68.45 3.25 69.9 2.35 Q73.4 -0.25 75.5 -3.95 73.35 -1.6 70.1 -0.8 63.3 1.0 56.25 1.4 58.95 0.55 61.1 -1.5 L62.05 -2.5 Q64.55 -5.05 65.4 -8.35 64.35 -7.65 63.25 -7.1 62.1 -6.55 60.95 -6.15 55.5 -4.45 49.7 -4.45 L56.8 -10.3 45.75 -8.6 45.15 -8.8 45.75 -8.6 56.8 -10.3 49.7 -4.45 Q55.5 -4.45 60.95 -6.15 62.1 -6.55 63.25 -7.1 64.35 -7.65 65.4 -8.35 64.55 -5.05 62.05 -2.5 L61.1 -1.5 Q58.95 0.55 56.25 1.4 63.3 1.0 70.1 -0.8 73.35 -1.6 75.5 -3.95 73.4 -0.25 69.9 2.35 L68.45 3.25 65.4 4.8 79.55 1.4 Q78.35 4.45 75.3 6.25 73.4 7.45 71.3 8.4 68.5 9.75 65.4 10.2 M-37.55 -13.45 L-43.4 -12.7 -39.65 -10.2 Q-41.3 -9.55 -42.95 -9.55 -46.8 -9.5 -50.75 -10.35 L-52.5 -10.3 -45.4 -6.4 Q-46.9 -5.6 -48.5 -5.55 -58.0 -5.35 -66.9 -9.0 -65.35 -5.4 -61.65 -3.6 -56.55 -1.0 -51.0 0.4 -62.75 2.05 -72.75 -3.95 L-71.9 -2.7 Q-63.1 7.85 -47.95 8.2 -63.1 7.85 -71.9 -2.7 L-72.75 -3.95 Q-62.75 2.05 -51.0 0.4 -56.55 -1.0 -61.65 -3.6 -65.35 -5.4 -66.9 -9.0 -58.0 -5.35 -48.5 -5.55 -46.9 -5.6 -45.4 -6.4 L-52.5 -10.3 -50.75 -10.35 Q-46.8 -9.5 -42.95 -9.55 -41.3 -9.55 -39.65 -10.2 L-43.4 -12.7 -37.55 -13.45 M-36.9 -17.1 Q-30.8 -15.65 -30.5 -9.85 -30.35 -7.0 -27.85 -6.0 -17.1 -2.4 -22.95 2.95 L-23.25 1.4 -22.95 2.95 Q-17.1 -2.4 -27.85 -6.0 -30.35 -7.0 -30.5 -9.85 -30.8 -15.65 -36.9 -17.1" fill="url(#gradient0)" fill-rule="evenodd" stroke="none"/>
      <path d="M33.9 -16.9 Q32.5 -17.05 31.85 -16.4 L27.7 -15.45 Q15.8 -11.1 1.6 -10.45 -13.6 -9.8 -24.2 -13.85 L-25.65 -16.6 -22.4 -20.75 Q-13.25 -16.0 0.8 -16.45 13.95 -16.85 25.25 -21.45 L29.2 -22.9 32.5 -18.7 33.9 -16.9" fill="#808055" fill-rule="evenodd" stroke="none"/>
      <path d="M31.85 -16.4 Q30.8 -14.95 30.55 -11.2 L30.25 -5.65 27.25 -3.6 Q19.15 2.2 29.95 5.15 L30.6 5.6 Q31.5 9.6 33.8 12.55 L35.15 14.15 29.0 14.65 Q15.1 15.45 -1.65 14.9 -18.95 14.35 -32.05 12.55 L-32.5 11.5 Q-30.45 7.35 -26.5 4.8 L-25.5 4.2 Q-22.4 6.5 -18.7 5.15 L-16.6 4.3 Q-14.15 -3.4 -22.0 -9.6 -22.75 -10.15 -23.45 -11.45 -24.3 -12.9 -24.2 -13.85 -13.6 -9.8 1.6 -10.45 15.8 -11.1 27.7 -15.45 L31.85 -16.4 M24.0 3.15 L22.7 3.6 Q19.35 3.95 13.15 3.6 6.45 3.2 3.8 2.25 L22.9 -0.55 3.8 2.25 Q6.45 3.2 13.15 3.6 19.35 3.95 22.7 3.6 L24.0 3.15 M-15.15 -1.55 L3.8 2.25 -16.6 4.3 3.8 2.25 -15.15 -1.55" fill="#845125" fill-rule="evenodd" stroke="none"/>
      <path d="M73.75 -64.75 L76.8 -56.85 73.75 -64.75 83.9 -73.05 84.65 -73.35 Q84.0 -75.1 84.4 -77.05 84.65 -78.1 85.3 -78.8 88.0 -81.6 92.2 -80.25 93.55 -79.65 94.3 -78.45 94.9 -77.35 94.8 -76.05 94.2 -69.6 88.15 -69.05 86.6 -68.8 86.8 -70.1 L86.6 -70.75 86.3 -70.65 86.25 -70.55 82.6 -66.15 76.8 -56.85 70.85 -47.35 70.6 -47.0 Q69.1 -44.7 66.7 -43.3 72.55 -40.95 77.2 -36.85 L78.95 -34.85 Q82.8 -29.0 78.6 -23.15 73.55 -16.1 65.3 -17.55 71.15 -20.7 72.65 -26.95 73.5 -30.55 70.95 -32.95 L65.85 -37.3 64.75 -38.15 Q60.4 -41.35 55.45 -43.75 L54.1 -44.5 54.05 -44.5 52.05 -45.9 50.0 -47.6 Q48.25 -49.15 48.4 -51.65 L48.75 -59.45 Q48.7 -56.9 50.2 -54.85 54.35 -49.4 60.55 -46.35 L60.9 -49.1 Q61.5 -51.75 62.8 -54.1 64.5 -57.2 66.9 -59.6 69.85 -62.65 73.75 -64.75 M70.35 -47.65 Q69.85 -52.3 68.2 -56.75 L66.9 -59.6 68.2 -56.75 Q69.85 -52.3 70.35 -47.65 M66.7 -43.3 Q63.65 -44.8 60.55 -46.35 63.65 -44.8 66.7 -43.3 M84.65 -73.35 Q85.1 -71.95 86.3 -70.65 85.1 -71.95 84.65 -73.35 M81.4 -69.45 L82.6 -66.15 81.4 -69.45 M89.9 -73.5 L88.75 -75.3 Q85.7 -73.95 86.6 -70.75 85.7 -73.95 88.75 -75.3 L89.9 -73.5" fill="#3d2312" fill-rule="evenodd" stroke="none"/>
      <path d="M52.45 -15.55 Q49.0 -17.6 46.0 -20.35 46.7 -22.45 46.5 -24.3 46.2 -26.6 44.5 -28.45 L44.2 -28.5 Q42.1 -24.5 40.55 -20.3 L39.15 -16.0 38.7 -15.7 Q38.15 -15.7 35.0 -16.65 L33.9 -16.9 32.5 -18.7 37.85 -25.1 46.3 -35.25 49.0 -38.4 49.25 -38.2 56.35 -22.8 54.4 -19.15 46.3 -35.25 54.4 -19.15 52.45 -15.55 M64.75 -38.15 L58.2 -26.15 51.3 -41.2 54.05 -44.5 54.1 -44.5 55.45 -43.75 Q60.4 -41.35 64.75 -38.15 M37.85 -25.1 L40.55 -20.3 37.85 -25.1" fill="#cccccc" fill-rule="evenodd" stroke="none"/>
      <path d="M58.2 -26.15 L56.35 -22.8 49.25 -38.2 49.0 -38.4 51.3 -41.2 58.2 -26.15" fill="#ffffff" fill-rule="evenodd" stroke="none"/>
      <path d="M45.15 -8.8 L45.75 -8.6 56.8 -10.3 49.7 -4.45 Q55.5 -4.45 60.95 -6.15 62.1 -6.55 63.25 -7.1 64.35 -7.65 65.4 -8.35 64.55 -5.05 62.05 -2.5 L61.1 -1.5 Q58.95 0.55 56.25 1.4 63.3 1.0 70.1 -0.8 73.35 -1.6 75.5 -3.95 73.4 -0.25 69.9 2.35 L68.45 3.25 65.4 4.8 79.55 1.4 Q78.35 4.45 75.3 6.25 73.4 7.45 71.3 8.4 68.5 9.75 65.4 10.2 M-47.95 8.2 Q-63.1 7.85 -71.9 -2.7 L-72.75 -3.95 Q-62.75 2.05 -51.0 0.4 -56.55 -1.0 -61.65 -3.6 -65.35 -5.4 -66.9 -9.0 -58.0 -5.35 -48.5 -5.55 -46.9 -5.6 -45.4 -6.4 L-52.5 -10.3 -50.75 -10.35 Q-46.8 -9.5 -42.95 -9.55 -41.3 -9.55 -39.65 -10.2 L-43.4 -12.7 -37.55 -13.45" fill="none" stroke="#fff18a" stroke-linecap="round" stroke-linejoin="round" stroke-width="2.0"/>
      <path d="M76.8 -56.85 L73.75 -64.75 Q69.85 -62.65 66.9 -59.6 L68.2 -56.75 Q69.85 -52.3 70.35 -47.65 M54.05 -44.5 L52.05 -45.9 50.0 -47.6 Q48.25 -49.15 48.4 -51.65 L48.75 -59.45 Q48.7 -56.9 50.2 -54.85 54.35 -49.4 60.55 -46.35 L60.9 -49.1 Q61.5 -51.75 62.8 -54.1 64.5 -57.2 66.9 -59.6 M33.9 -16.9 Q32.5 -17.05 31.85 -16.4 30.8 -14.95 30.55 -11.2 L30.25 -5.65 27.25 -3.6 Q19.15 2.2 29.95 5.15 L30.6 5.6 Q31.5 9.6 33.8 12.55 L35.15 14.15 Q44.5 24.4 58.65 17.3 65.75 13.7 73.45 12.8 91.5 11.0 93.35 -4.6 87.0 -10.1 76.65 -9.85 67.45 -9.6 59.9 -12.15 55.95 -13.5 52.45 -15.55 49.0 -17.6 46.0 -20.35 46.7 -22.45 46.5 -24.3 46.2 -26.6 44.5 -28.45 L44.2 -28.5 Q42.1 -24.5 40.55 -20.3 L39.15 -16.0 38.7 -15.7 Q38.15 -15.7 35.0 -16.65 L33.9 -16.9 32.5 -18.7 29.2 -22.9 25.25 -21.45 Q13.95 -16.85 0.8 -16.45 -13.25 -16.0 -22.4 -20.75 L-25.65 -16.6 -24.2 -13.85 Q-13.6 -9.8 1.6 -10.45 15.8 -11.1 27.7 -15.45 L31.85 -16.4 M30.0 2.35 L28.6 2.8 Q27.45 -1.85 33.2 -5.15 34.95 -6.15 36.55 -7.95 39.85 -11.75 43.65 -14.65 M37.85 -25.1 L32.5 -18.7 M86.3 -70.65 L86.25 -70.55 82.6 -66.15 76.8 -56.85 70.85 -47.35 70.6 -47.0 Q69.1 -44.7 66.7 -43.3 72.55 -40.95 77.2 -36.85 L78.95 -34.85 Q82.8 -29.0 78.6 -23.15 73.55 -16.1 65.3 -17.55 71.15 -20.7 72.65 -26.95 73.5 -30.55 70.95 -32.95 L65.85 -37.3 64.75 -38.15 58.2 -26.15 56.35 -22.8 54.4 -19.15 52.45 -15.55 M51.3 -41.2 L54.05 -44.5 54.1 -44.5 55.45 -43.75 Q60.4 -41.35 64.75 -38.15 M49.0 -38.4 L46.3 -35.25 37.85 -25.1 M49.0 -38.4 L51.3 -41.2 M60.55 -46.35 Q63.65 -44.8 66.7 -43.3 M84.65 -73.35 Q84.0 -75.1 84.4 -77.05 84.65 -78.1 85.3 -78.8 88.0 -81.6 92.2 -80.25 93.55 -79.65 94.3 -78.45 94.9 -77.35 94.8 -76.05 94.2 -69.6 88.15 -69.05 86.6 -68.8 86.8 -70.1 L86.3 -70.65 Q85.1 -71.95 84.65 -73.35 M83.9 -73.05 L73.75 -64.75 M86.8 -70.1 L86.6 -70.75 Q85.7 -73.95 88.75 -75.3 L89.9 -73.5 M82.6 -66.15 L81.4 -69.45 M-32.5 11.5 L-32.05 12.55 Q-18.95 14.35 -1.65 14.9 15.1 15.45 29.0 14.65 L35.15 14.15 M22.9 -0.55 L3.8 2.25 Q6.45 3.2 13.15 3.6 19.35 3.95 22.7 3.6 L24.0 3.15 M-25.65 -16.6 Q-28.55 -17.6 -29.95 -18.8 -31.35 -20.0 -32.5 -22.5 -34.25 -26.35 -35.4 -30.75 L-35.9 -22.6 Q-36.35 -19.4 -40.6 -18.55 -60.55 -14.6 -78.4 -7.8 -75.65 10.0 -55.85 13.85 L-49.65 15.1 -43.2 14.9 Q-37.2 15.2 -32.65 11.65 L-32.5 11.5 Q-30.45 7.35 -26.5 4.8 L-25.5 4.2 Q-22.4 6.5 -18.7 5.15 L-16.6 4.3 Q-14.15 -3.4 -22.0 -9.6 -22.75 -10.15 -23.45 -11.45 -24.3 -12.9 -24.2 -13.85 M-23.25 1.4 L-22.95 2.95 Q-17.1 -2.4 -27.85 -6.0 -30.35 -7.0 -30.5 -9.85 -30.8 -15.65 -36.9 -17.1 M-16.6 4.3 L3.8 2.25 -15.15 -1.55" fill="none" stroke="#000000" stroke-linecap="round" stroke-linejoin="round" stroke-width="2.0"/>
      <path d="M56.35 -22.8 L56.95 -21.5 M46.3 -35.25 L54.4 -19.15 M56.35 -22.8 L49.25 -38.2 M51.3 -41.2 L58.2 -26.15 M40.55 -20.3 L37.85 -25.1" fill="none" stroke="#ffffff" stroke-linecap="round" stroke-linejoin="round" stroke-width="2.0"/>
    </g>
    </g>
  </g>
  <defs>
    <linearGradient gradientTransform="matrix(0.0634, 0.0, 0.0, 0.032, -4.5, -16.85)" gradientUnits="userSpaceOnUse" id="gradient0" spreadMethod="pad" x1="-819.2" x2="819.2">
      <stop offset="0.0" stop-color="#d8b42c"/>
      <stop offset="0.5450980392156862" stop-color="#ffffff"/>
      <stop offset="1.0" stop-color="#d7b433"/>
    </linearGradient>
  </defs>
</svg>