<svg xmlns:xlink="http://www.w3.org/1999/xlink" xmlns="http://www.w3.org/2000/svg" height="119.1px" width="213.05px">
  <g transform="matrix(1.0, 0.0, 0.0, 1.0, 94.65, 81.2)">
    <g data-characterId="901" height="49.8" transform="matrix(1.0, 0.0, 0.0, 1.0, -57.25, -29.0)" width="113.4" xlink:href="#shape0"><g id="shape0" transform="matrix(1.0, 0.0, 0.0, 1.0, 57.25, 29.0)">
      <path d="M26.85 -11.35 Q32.55 -15.85 31.4 -21.55 L32.0 -21.75 Q35.5 -19.7 39.7 -18.3 45.1 -16.55 51.75 -15.85 L55.65 -15.8 Q51.75 -7.6 45.5 -1.0 37.75 7.2 26.55 10.35 L8.9 15.6 12.9 9.15 Q19.65 -1.25 26.85 -11.35 M-3.8 -11.9 Q-2.15 -10.65 -1.25 -8.9 L0.05 -6.25 -0.4 -5.1 Q-1.9 -2.2 -3.95 -1.45 L-3.6 -0.95 -2.6 1.1 Q2.5 10.2 -1.25 18.65 L-7.9 19.85 -9.7 19.45 Q-13.3 18.15 -13.55 13.4 -13.8 8.95 -11.2 1.95 L-9.3 -2.7 -10.95 -4.65 Q-9.8 -7.95 -7.65 -10.55 -6.95 -11.35 -4.0 -12.1 L-3.8 -11.9 M-21.2 19.05 Q-26.45 17.8 -31.25 15.4 -42.1 9.9 -50.3 0.75 -57.15 -6.9 -56.7 -17.0 L-51.5 -17.1 Q-39.4 -17.3 -27.2 -19.1 -27.75 -17.7 -27.75 -16.0 -26.95 -5.8 -24.6 4.35 L-21.2 19.05 M39.25 -17.0 Q36.15 -8.85 28.95 -3.45 L29.9 -1.75 Q32.75 5.05 26.55 10.35 32.75 5.05 29.9 -1.75 L28.95 -3.45 Q36.15 -8.85 39.25 -17.0 M-31.25 -2.25 L-31.95 -2.85 Q-37.35 -8.8 -34.75 -17.25 -37.35 -8.8 -31.95 -2.85 L-31.25 -2.25 M-9.3 -2.7 Q-6.25 -0.7 -3.95 -1.45 -6.25 -0.7 -9.3 -2.7 M-29.25 15.0 L-30.65 13.45 Q-38.6 5.4 -32.25 -2.25 -38.6 5.4 -30.65 13.45 L-29.25 15.0" fill="#333333" fill-rule="evenodd" stroke="none"/>
      <path d="M0.4 -5.3 L0.4 -5.35 0.05 -6.25 -1.25 -8.9 Q-2.15 -10.65 -3.8 -11.9 3.0 -11.8 9.55 -13.0 23.95 -15.55 28.0 -28.5 29.8 -26.1 30.85 -23.4 L31.4 -21.55 Q32.55 -15.85 26.85 -11.35 15.95 -1.1 1.5 2.75 L1.5 1.0 Q1.4 -2.2 0.4 -5.3 1.4 -2.2 1.5 1.0 L1.5 2.75 Q15.95 -1.1 26.85 -11.35 19.65 -1.25 12.9 9.15 L8.9 15.6 -1.25 18.65 Q2.5 10.2 -2.6 1.1 L-3.6 -0.95 -3.95 -1.45 Q-1.9 -2.2 -0.4 -5.1 L0.4 -5.3 M-9.9 20.25 Q-15.7 20.6 -21.2 19.05 L-24.6 4.35 Q-26.95 -5.8 -27.75 -16.0 -27.75 -17.7 -27.2 -19.1 L-26.85 -19.9 Q-25.1 -23.3 -21.5 -24.0 -22.4 -22.0 -21.3 -20.3 -16.15 -12.25 -4.0 -12.1 -6.95 -11.35 -7.65 -10.55 -9.8 -7.95 -10.95 -4.65 L-12.25 1.5 Q-13.05 0.75 -13.85 0.15 -23.1 -6.45 -27.75 -16.0 -23.1 -6.45 -13.85 0.15 -13.05 0.75 -12.25 1.5 L-10.95 -4.65 -9.3 -2.7 -11.2 1.95 Q-13.8 8.95 -13.55 13.4 -13.3 18.15 -9.7 19.45 L-9.9 20.25" fill="#ffffff" fill-rule="evenodd" stroke="none"/>
      <path d="M0.05 -6.25 L0.4 -5.35 0.4 -5.3 Q1.4 -2.2 1.5 1.0 L1.5 2.75 Q15.95 -1.1 26.85 -11.35 32.55 -15.85 31.4 -21.55 L30.85 -23.4 Q29.8 -26.1 28.0 -28.5 23.95 -15.55 9.55 -13.0 3.0 -11.8 -3.8 -11.9 -2.15 -10.65 -1.25 -8.9 L0.05 -6.25 -0.4 -5.1 Q-1.9 -2.2 -3.95 -1.45 -6.25 -0.7 -9.3 -2.7 L-11.2 1.95 Q-13.8 8.95 -13.55 13.4 -13.3 18.15 -9.7 19.45 L-7.9 19.85 -1.25 18.65 Q2.5 10.2 -2.6 1.1 L-3.6 -0.95 M32.0 -21.75 Q35.5 -19.7 39.7 -18.3 45.1 -16.55 51.75 -15.85 L55.65 -15.8 Q51.75 -7.6 45.5 -1.0 37.75 7.2 26.55 10.35 L8.9 15.6 -1.25 18.65 -1.95 18.8 Q-4.95 19.9 -7.9 19.85 L-9.9 20.25 Q-15.7 20.6 -21.2 19.05 -26.45 17.8 -31.25 15.4 -42.1 9.9 -50.3 0.75 -57.15 -6.9 -56.7 -17.0 L-51.5 -17.1 Q-39.4 -17.3 -27.2 -19.1 L-26.85 -19.9 Q-25.1 -23.3 -21.5 -24.0 -22.4 -22.0 -21.3 -20.3 -16.15 -12.25 -4.0 -12.1 -6.95 -11.35 -7.65 -10.55 -9.8 -7.95 -10.95 -4.65 L-12.25 1.5 Q-13.05 0.75 -13.85 0.15 -23.1 -6.45 -27.75 -16.0 -26.95 -5.8 -24.6 4.35 L-21.2 19.05 M26.55 10.35 Q32.75 5.05 29.9 -1.75 L28.95 -3.45 Q36.15 -8.85 39.25 -17.0 M8.9 15.6 L12.9 9.15 Q19.65 -1.25 26.85 -11.35 M-34.75 -17.25 Q-37.35 -8.8 -31.95 -2.85 L-31.25 -2.25 M-27.2 -19.1 Q-27.75 -17.7 -27.75 -16.0 M-9.3 -2.7 L-10.95 -4.65 M-32.25 -2.25 Q-38.6 5.4 -30.65 13.45 L-29.25 15.0" fill="none" stroke="#000000" stroke-linecap="round" stroke-linejoin="round" stroke-width="2.0"/>
    </g>
  </g>
  </g>
  <defs>
    </defs>
</svg>