<svg xmlns:xlink="http://www.w3.org/1999/xlink" xmlns="http://www.w3.org/2000/svg" height="264.15px" width="342.25px">
  <g transform="matrix(1.0, 0.0, 0.0, 1.0, 243.25, 83.7)">
    <g data-characterId="1159" height="128.35" transform="matrix(1.0, 0.0, 0.0, 1.0, -36.7, -43.6)" width="107.75" xlink:href="#shape0"><g id="shape0" transform="matrix(1.0, 0.0, 0.0, 1.0, 36.7, 43.6)">
      <path d="M-33.65 -10.1 Q-33.05 -12.5 -32.8 -15.0 L-32.25 -18.0 Q-31.55 -20.85 -30.2 -23.7 L-27.2 -29.35 Q-25.35 -32.3 -22.9 -34.75 -19.9 -37.8 -15.95 -39.25 L-12.65 -40.25 -3.45 -42.05 4.0 -43.1 6.3 -43.1 Q8.1 -43.15 10.0 -42.5 L19.15 -38.8 Q21.85 -37.6 24.3 -35.9 28.35 -33.25 32.05 -30.05 L34.95 -27.25 Q38.2 -23.95 40.2 -19.7 L40.95 -17.6 Q42.25 -13.25 43.2 -8.75 L44.2 -2.7 44.5 0.2 44.5 5.75 44.45 7.3 43.0 5.75 44.45 7.3 Q44.2 10.85 43.55 14.45 44.4 13.45 45.9 13.15 47.25 13.1 47.8 14.25 48.5 15.65 48.15 17.2 L47.2 20.2 47.55 20.7 47.9 21.3 47.55 20.7 47.2 20.2 48.15 17.2 Q49.35 16.6 50.75 16.65 54.35 17.05 57.3 19.55 63.8 25.1 64.9 33.5 65.6 38.6 65.0 43.75 L64.25 49.3 Q63.8 52.65 64.3 56.15 64.5 57.45 65.0 58.6 66.0 61.1 68.25 62.15 L67.75 62.95 Q64.45 62.35 61.5 60.5 59.2 59.1 57.9 56.8 55.65 52.65 55.65 47.75 L55.65 42.25 55.3 34.85 54.8 32.35 51.55 23.35 50.7 21.85 Q49.85 20.65 48.5 21.0 L47.9 21.3 48.05 22.55 Q47.9 24.1 47.05 25.1 L46.5 25.65 45.45 25.6 44.55 24.75 45.45 25.6 46.5 25.65 47.05 25.1 Q51.05 28.5 51.85 33.5 L52.65 39.5 Q53.2 44.55 51.3 49.15 L49.35 53.65 46.25 59.8 Q44.15 63.75 44.15 68.0 44.1 72.95 45.55 77.65 46.25 80.0 47.25 82.25 L46.6 83.3 Q42.55 80.65 39.9 76.35 38.85 74.6 38.1 72.65 37.0 69.7 36.95 66.65 L36.85 62.25 Q36.65 56.6 37.95 51.0 38.55 48.35 39.45 45.95 L40.95 42.25 42.65 38.7 44.8 34.3 Q45.65 32.6 45.9 30.7 46.2 28.25 45.15 26.0 L44.55 24.75 43.5 23.9 43.2 21.8 42.8 21.3 46.0 23.25 42.5 17.95 43.55 14.45 42.5 17.95 42.5 17.9 42.35 17.95 42.25 18.0 40.45 17.15 38.8 15.95 Q38.0 15.1 36.85 14.4 L36.75 14.25 36.85 13.95 36.8 13.75 36.9 13.45 Q37.75 10.6 37.1 8.15 36.4 5.7 36.2 4.1 35.95 2.45 34.25 1.65 34.1 0.45 32.3 1.2 30.45 1.95 29.2 3.15 27.95 4.3 27.45 6.35 23.2 3.8 18.2 4.55 L12.3 5.15 Q9.2 5.2 5.4 3.85 1.6 2.5 -4.25 3.8 L-13.45 5.4 -20.95 5.6 Q-25.15 5.5 -29.0 4.5 L-31.85 4.85 Q-33.05 4.95 -33.8 5.6 -35.35 2.9 -36.0 -0.05 L-36.2 -1.8 Q-36.2 -3.1 -35.7 -4.25 -34.7 -6.4 -34.05 -8.7 L-33.65 -10.05 -33.65 -10.1 -29.95 -11.25 -24.0 -13.25 -29.95 -11.25 -33.65 -10.1 M34.75 -9.5 L41.2 -3.9 42.8 -2.2 Q43.65 -1.1 43.5 0.25 43.65 -1.1 42.8 -2.2 L41.2 -3.9 34.75 -9.5 M34.25 -19.0 L39.0 -15.75 34.25 -19.0 M14.75 -9.5 L22.1 -9.15 Q26.9 -8.55 31.45 -6.5 L35.9 -4.25 Q39.3 -2.5 41.25 1.0 39.3 -2.5 35.9 -4.25 L31.45 -6.5 Q26.9 -8.55 22.1 -9.15 L14.75 -9.5 M4.5 -4.0 L13.0 -3.5 4.5 -4.0 M46.25 19.75 Q45.55 19.75 45.05 19.05 44.5 18.3 44.5 17.25 44.5 18.3 45.05 19.05 45.55 19.75 46.25 19.75 M-31.0 -17.75 L-28.25 -18.75 -31.0 -17.75 M-32.0 -5.25 L-24.75 -5.85 -16.95 -5.85 -7.25 -4.75 -16.95 -5.85 -24.75 -5.85 -32.0 -5.25" fill="url(#gradient0)" fill-rule="evenodd" stroke="none"/>
      <path d="M42.5 17.95 L46.0 23.25 42.8 21.3 43.2 21.8 43.5 23.9 44.0 29.5 Q42.75 28.85 41.95 27.5 L41.9 27.35 41.5 26.5 41.55 27.55 Q41.55 29.1 41.15 30.75 40.65 32.95 41.2 35.1 L42.25 38.5 Q40.65 38.1 39.65 36.55 L39.3 36.0 Q38.95 35.3 38.75 34.5 L38.4 36.4 Q37.8 41.05 39.2 45.85 36.05 43.9 35.0 40.25 L34.55 45.3 33.65 47.3 Q33.45 46.0 32.85 45.2 L32.5 40.1 Q32.1 37.3 32.1 34.1 L31.85 31.95 31.75 31.45 32.75 31.85 33.45 31.75 33.75 31.7 34.6 31.25 35.35 30.35 Q36.0 28.7 35.85 27.05 L36.0 27.0 36.6 27.15 36.9 27.2 38.25 26.95 Q39.3 26.5 39.55 25.6 40.0 23.75 38.65 22.25 37.95 21.4 36.95 21.05 L35.15 20.55 35.25 20.0 36.85 14.4 Q38.0 15.1 38.8 15.95 L40.45 17.15 42.25 18.0 42.35 17.95 42.5 17.9 42.5 17.95 M33.7 25.05 L34.4 24.25 34.65 24.1 34.8 23.85 34.85 23.75 34.9 23.5 34.9 22.1 Q36.0 22.3 36.9 23.45 37.6 24.3 37.4 25.25 37.3 25.85 36.8 26.1 L35.25 25.75 34.8 25.5 33.7 25.05 M34.4 33.3 Q34.05 32.95 33.6 32.95 33.15 32.95 32.85 33.3 32.5 33.6 32.5 34.05 32.5 34.5 32.85 34.85 33.15 35.15 33.6 35.15 L34.4 34.85 34.7 34.05 34.4 33.3" fill="#845125" fill-rule="evenodd" stroke="none"/>
      <path d="M31.75 31.45 Q30.8 30.45 30.95 29.0 31.1 27.35 32.75 27.0 L32.85 26.45 32.55 26.3 Q32.05 26.1 31.7 25.65 31.2 25.0 31.75 24.25 L33.7 25.05 34.8 25.5 35.25 25.75 36.8 26.1 Q37.3 25.85 37.4 25.25 37.6 24.3 36.9 23.45 36.0 22.3 34.9 22.1 L33.35 22.15 33.0 21.75 33.2 20.7 34.25 20.4 35.15 20.55 36.95 21.05 Q37.95 21.4 38.65 22.25 40.0 23.75 39.55 25.6 39.3 26.5 38.25 26.95 L36.9 27.2 36.6 27.15 36.0 27.0 35.85 27.05 Q36.0 28.7 35.35 30.35 L34.6 31.25 33.75 31.7 33.45 31.75 32.75 31.85 31.75 31.45 M32.85 26.45 L34.05 26.4 34.8 25.5 34.05 26.4 32.85 26.45 M34.4 33.3 L34.7 34.05 34.4 34.85 33.6 35.15 Q33.15 35.15 32.85 34.85 32.5 34.5 32.5 34.05 32.5 33.6 32.85 33.3 33.15 32.95 33.6 32.95 34.05 32.95 34.4 33.3" fill="#c39d4f" fill-rule="evenodd" stroke="none"/>
      <path d="M44.45 7.3 L44.5 5.75 44.5 0.2 44.2 -2.7 43.2 -8.75 Q42.25 -13.25 40.95 -17.6 L40.2 -19.7 Q38.2 -23.95 34.95 -27.25 L32.05 -30.05 Q28.35 -33.25 24.3 -35.9 21.85 -37.6 19.15 -38.8 L10.0 -42.5 Q8.1 -43.15 6.3 -43.1 L4.0 -43.1 -3.45 -42.05 -12.65 -40.25 -15.95 -39.25 Q-19.9 -37.8 -22.9 -34.75 -25.35 -32.3 -27.2 -29.35 L-30.2 -23.7 Q-31.55 -20.85 -32.25 -18.0 L-32.8 -15.0 Q-33.05 -12.5 -33.65 -10.1 L-33.65 -10.05 -34.05 -8.7 Q-34.7 -6.4 -35.7 -4.25 -36.2 -3.1 -36.2 -1.8 L-36.0 -0.05 Q-35.35 2.9 -33.8 5.6 M43.55 14.45 L42.5 17.95 M43.55 14.45 Q44.2 10.85 44.45 7.3" fill="none" stroke="#000000" stroke-linecap="round" stroke-linejoin="round" stroke-width="2.0"/>
      <path d="M-33.65 -10.1 L-29.95 -11.25 -24.0 -13.25 M13.0 -3.5 L4.5 -4.0 M41.25 1.0 Q39.3 -2.5 35.9 -4.25 L31.45 -6.5 Q26.9 -8.55 22.1 -9.15 L14.75 -9.5 M39.0 -15.75 L34.25 -19.0 M43.5 0.25 Q43.65 -1.1 42.8 -2.2 L41.2 -3.9 34.75 -9.5 M44.45 7.3 L43.0 5.75 M48.15 17.2 Q48.5 15.65 47.8 14.25 47.25 13.1 45.9 13.15 44.4 13.45 43.55 14.45 M42.5 17.95 L46.0 23.25 42.8 21.3 43.2 21.8 43.5 23.9 44.55 24.75 45.45 25.6 46.5 25.65 47.05 25.1 Q47.9 24.1 48.05 22.55 L47.9 21.3 47.55 20.7 47.2 20.2 48.15 17.2 Q49.35 16.6 50.75 16.65 54.35 17.05 57.3 19.55 63.8 25.1 64.9 33.5 65.6 38.6 65.0 43.75 L64.25 49.3 Q63.8 52.65 64.3 56.15 64.5 57.45 65.0 58.6 66.0 61.1 68.25 62.15 L70.25 62.7 70.55 62.95 69.8 63.0 67.75 62.95 Q64.45 62.35 61.5 60.5 59.2 59.1 57.9 56.8 55.65 52.65 55.65 47.75 L55.65 42.25 55.3 34.85 54.8 32.35 51.55 23.35 50.7 21.85 Q49.85 20.65 48.5 21.0 M42.35 17.95 L42.5 17.9 42.5 17.95 M44.5 17.25 Q44.5 18.3 45.05 19.05 45.55 19.75 46.25 19.75 M43.5 23.9 L44.0 29.5 Q42.75 28.85 41.95 27.5 L41.9 27.35 41.5 26.5 41.55 27.55 Q41.55 29.1 41.15 30.75 40.65 32.95 41.2 35.1 L42.25 38.5 Q40.65 38.1 39.65 36.55 L39.3 36.0 Q38.95 35.3 38.75 34.5 L38.4 36.4 Q37.8 41.05 39.2 45.85 36.05 43.9 35.0 40.25 L34.55 45.3 33.65 47.3 Q33.45 46.0 32.85 45.2 L32.5 40.1 Q32.1 37.3 32.1 34.1 L31.85 31.95 31.75 31.45 Q30.8 30.45 30.95 29.0 31.1 27.35 32.75 27.0 M32.85 26.45 L32.55 26.3 Q32.05 26.1 31.7 25.65 31.2 25.0 31.75 24.25 L33.7 25.05 34.4 24.25 34.65 24.1 34.8 23.85 34.85 23.75 34.9 23.5 34.9 22.1 33.35 22.15 M33.0 21.75 L33.2 20.7 34.25 20.4 35.15 20.55 36.95 21.05 Q37.95 21.4 38.65 22.25 40.0 23.75 39.55 25.6 39.3 26.5 38.25 26.95 L36.9 27.2 36.6 27.15 36.0 27.0 M35.25 20.0 L36.85 14.4 36.75 14.25 M36.85 13.95 L36.8 13.75 36.9 13.45 Q37.75 10.6 37.1 8.15 36.4 5.7 36.2 4.1 35.95 2.45 34.25 1.65 34.1 0.45 32.3 1.2 30.45 1.95 29.2 3.15 27.95 4.3 27.45 6.35 L28.5 6.75 M44.55 24.75 L45.15 26.0 Q46.2 28.25 45.9 30.7 45.65 32.6 44.8 34.3 L42.65 38.7 40.95 42.25 39.45 45.95 Q38.55 48.35 37.95 51.0 36.65 56.6 36.85 62.25 L36.95 66.65 Q37.0 69.7 38.1 72.65 38.85 74.6 39.9 76.35 42.55 80.65 46.6 83.3 L48.25 84.25 47.25 82.25 Q46.25 80.0 45.55 77.65 44.1 72.95 44.15 68.0 44.15 63.75 46.25 59.8 L49.35 53.65 51.3 49.15 Q53.2 44.55 52.65 39.5 L51.85 33.5 Q51.05 28.5 47.05 25.1 M36.85 14.4 Q38.0 15.1 38.8 15.95 L40.45 17.15 42.25 18.0 M34.9 22.1 Q36.0 22.3 36.9 23.45 37.6 24.3 37.4 25.25 37.3 25.85 36.8 26.1 L35.25 25.75 M34.8 25.5 L34.05 26.4 32.85 26.45 M-33.8 5.6 Q-33.05 4.95 -31.85 4.85 L-29.0 4.5 Q-25.15 5.5 -20.95 5.6 L-13.45 5.4 -4.25 3.8 Q1.6 2.5 5.4 3.85 9.2 5.2 12.3 5.15 L18.2 4.55 Q23.2 3.8 27.45 6.35 M34.8 25.5 L33.7 25.05 M34.4 33.3 L34.7 34.05 34.4 34.85 33.6 35.15 Q33.15 35.15 32.85 34.85 32.5 34.5 32.5 34.05 32.5 33.6 32.85 33.3 33.15 32.95 33.6 32.95 34.05 32.95 34.4 33.3 M31.75 31.45 L32.75 31.85 33.45 31.75 33.75 31.7 34.6 31.25 35.35 30.35 Q36.0 28.7 35.85 27.05 M-7.25 -4.75 L-16.95 -5.85 -24.75 -5.85 -32.0 -5.25 M-28.25 -18.75 L-31.0 -17.75" fill="none" stroke="#000000" stroke-linecap="round" stroke-linejoin="round" stroke-width="2.0"/>
    </g>
    </g>
  </g>
  <defs>
    <radialGradient cx="0" cy="0" gradientTransform="matrix(0.0599, 0.0, 0.0, 0.0599, -7.0, -17.75)" gradientUnits="userSpaceOnUse" id="gradient0" r="819.2" spreadMethod="pad">
      <stop offset="0.0" stop-color="#69888f"/>
      <stop offset="1.0" stop-color="#465b62"/>
    </radialGradient>
  </defs>
</svg>