<svg xmlns:xlink="http://www.w3.org/1999/xlink" xmlns="http://www.w3.org/2000/svg" height="119.1px" width="213.05px">
  <g transform="matrix(1.0, 0.0, 0.0, 1.0, 94.65, 81.2)">
    <g data-characterId="904" height="106.15" transform="matrix(1.0, 0.0, 0.0, 1.0, -79.5, -78.2)" width="165.1" xlink:href="#shape0"><g id="shape0" transform="matrix(1.0, 0.0, 0.0, 1.0, 79.5, 78.2)">
      <path d="M31.05 -37.9 Q32.75 -44.85 32.25 -52.1 31.45 -64.8 34.1 -77.05 37.65 -69.65 36.55 -60.7 35.05 -48.95 31.05 -37.9 M-44.6 -68.0 Q-43.15 -53.05 -38.7 -38.9 -36.9 -33.25 -36.45 -27.25 -39.65 -33.65 -41.6 -40.3 -45.5 -53.85 -44.6 -68.0" fill="#334f17" fill-rule="evenodd" stroke="none"/>
      <path d="M31.05 -37.9 Q35.05 -48.95 36.55 -60.7 37.65 -69.65 34.1 -77.05 L34.1 -77.7 34.4 -77.5 39.7 -73.35 Q41.4 -60.5 39.3 -47.6 37.0 -33.6 28.9 -22.15 20.3 -9.95 13.25 2.7 10.15 8.3 7.85 14.3 L4.85 27.2 4.4 27.45 0.6 26.4 Q-4.75 24.5 -5.45 18.95 L-5.4 18.35 Q-3.1 2.1 8.65 -7.0 L12.5 -10.2 Q18.6 -15.5 23.1 -21.95 26.75 -27.3 29.3 -33.4 L29.95 -34.95 31.05 -37.9 M-25.9 17.65 L-26.05 21.5 -33.95 19.9 Q-35.45 19.55 -36.7 18.65 L-36.8 14.65 Q-37.7 -10.8 -45.05 -35.35 -47.35 -42.95 -47.4 -50.95 -47.45 -59.5 -46.7 -68.15 L-46.65 -68.8 -44.6 -69.65 -44.6 -68.0 Q-45.5 -53.85 -41.6 -40.3 -39.65 -33.65 -36.45 -27.25 L-32.45 -17.0 -30.75 -11.7 Q-27.4 -0.65 -26.45 10.9 L-25.9 17.65" fill="#e4c377" fill-rule="evenodd" stroke="none"/>
      <path d="M39.7 -73.35 Q47.8 -65.7 50.6 -53.75 51.55 -49.65 51.95 -45.55 43.3 -35.95 43.45 -22.45 L39.7 -17.3 Q58.1 -12.95 76.2 1.35 94.25 15.65 75.75 13.9 57.25 12.1 50.6 13.8 36.0 17.45 21.05 15.05 L7.85 14.3 Q10.15 8.3 13.25 2.7 20.3 -9.95 28.9 -22.15 37.0 -33.6 39.3 -47.6 41.4 -60.5 39.7 -73.35 M-36.8 14.65 L-37.4 14.65 -49.15 13.65 -73.35 11.6 Q-91.6 9.85 -50.85 -13.85 L-50.55 -13.5 -50.7 -14.0 Q-51.55 -16.55 -51.5 -24.15 -51.5 -32.6 -54.5 -41.7 -57.5 -50.8 -55.2 -55.9 -51.8 -63.55 -46.7 -68.15 -47.45 -59.5 -47.4 -50.95 -47.35 -42.95 -45.05 -35.35 -37.7 -10.8 -36.8 14.65 M33.1 3.7 L33.65 -1.05 Q35.05 -9.8 39.7 -17.3 35.05 -9.8 33.65 -1.05 L33.1 3.7 M-48.05 2.0 Q-46.0 -7.0 -50.55 -13.5 -46.0 -7.0 -48.05 2.0" fill="#467521" fill-rule="evenodd" stroke="none"/>
      <path d="M-5.45 18.95 L-25.9 17.65 -26.45 10.9 Q-27.4 -0.65 -30.75 -11.7 L-32.45 -17.0 -28.7 -19.9 Q-18.25 -10.8 -4.6 -14.35 L23.1 -21.95 Q18.6 -15.5 12.5 -10.2 L8.65 -7.0 Q-3.1 2.1 -5.4 18.35 L-5.45 18.95 M12.5 -10.2 L3.65 -9.05 -3.65 -7.6 Q-18.35 -4.25 -30.75 -11.7 -18.35 -4.25 -3.65 -7.6 L3.65 -9.05 12.5 -10.2 M-25.0 -6.35 Q-21.15 -2.05 -15.35 -2.2 L-14.95 -1.2 -15.35 -2.2 Q-21.15 -2.05 -25.0 -6.35 M3.75 -8.35 Q-4.7 -3.45 -14.15 -1.55 L-16.4 3.7 -14.15 -1.55 Q-4.7 -3.45 3.75 -8.35 M-17.55 15.2 L-16.5 7.45 -17.55 15.2" fill="url(#gradient0)" fill-rule="evenodd" stroke="none"/>
      <path d="M34.1 -77.05 Q31.45 -64.8 32.25 -52.1 32.75 -44.85 31.05 -37.9 35.05 -48.95 36.55 -60.7 37.65 -69.65 34.1 -77.05 L34.1 -77.7 34.4 -77.5 39.7 -73.35 Q47.8 -65.7 50.6 -53.75 51.55 -49.65 51.95 -45.55 43.3 -35.95 43.45 -22.45 L39.7 -17.3 Q58.1 -12.95 76.2 1.35 94.25 15.65 75.75 13.9 57.25 12.1 50.6 13.8 36.0 17.45 21.05 15.05 L7.85 14.3 4.85 27.2 4.4 27.45 0.6 26.4 Q-4.75 24.5 -5.45 18.95 L-25.9 17.65 -26.05 21.5 -33.95 19.9 Q-35.45 19.55 -36.7 18.65 L-36.8 14.65 Q-37.7 -10.8 -45.05 -35.35 -47.35 -42.95 -47.4 -50.95 -47.45 -59.5 -46.7 -68.15 L-46.65 -68.8 -44.6 -69.65 -44.4 -69.65 -44.6 -68.0 Q-43.15 -53.05 -38.7 -38.9 -36.9 -33.25 -36.45 -27.25 L-32.45 -17.0 -28.7 -19.9 Q-18.25 -10.8 -4.6 -14.35 L23.1 -21.95 Q26.75 -27.3 29.3 -33.4 L29.95 -34.95 31.05 -37.9 M-37.4 14.65 L-49.15 13.65 -73.35 11.6 Q-91.6 9.85 -50.85 -13.85 L-50.7 -14.0 Q-51.55 -16.55 -51.5 -24.15 -51.5 -32.6 -54.5 -41.7 -57.5 -50.8 -55.2 -55.9 -51.8 -63.55 -46.7 -68.15 M39.7 -17.3 Q35.05 -9.8 33.65 -1.05 L33.1 3.7 M-30.75 -11.7 Q-18.35 -4.25 -3.65 -7.6 L3.65 -9.05 12.5 -10.2 Q18.6 -15.5 23.1 -21.95 M7.85 14.3 Q10.15 8.3 13.25 2.7 20.3 -9.95 28.9 -22.15 37.0 -33.6 39.3 -47.6 41.4 -60.5 39.7 -73.35 M12.5 -10.2 L8.65 -7.0 Q-3.1 2.1 -5.4 18.35 M-44.6 -69.65 L-44.6 -68.0 Q-45.5 -53.85 -41.6 -40.3 -39.65 -33.65 -36.45 -27.25 M-50.55 -13.5 L-50.7 -14.0 M-14.95 -1.2 L-15.35 -2.2 Q-21.15 -2.05 -25.0 -6.35 M-25.9 17.65 L-26.45 10.9 Q-27.4 -0.65 -30.75 -11.7 L-32.45 -17.0 M-16.5 7.45 L-17.55 15.2 M-16.4 3.7 L-14.15 -1.55 Q-4.7 -3.45 3.75 -8.35 M-50.55 -13.5 Q-46.0 -7.0 -48.05 2.0" fill="none" stroke="#000000" stroke-linecap="round" stroke-linejoin="round" stroke-width="2.0"/>
    </g>
    </g>
  </g>
  <defs>
    <linearGradient gradientTransform="matrix(0.0314, 0.0, 0.0, 0.0321, -4.05, 4.5)" gradientUnits="userSpaceOnUse" id="gradient0" spreadMethod="pad" x1="-819.2" x2="819.2">
      <stop offset="0.0" stop-color="#45701b"/>
      <stop offset="0.32941176470588235" stop-color="#e2f9db"/>
      <stop offset="0.7490196078431373" stop-color="#67933c"/>
      <stop offset="1.0" stop-color="#4e5c23"/>
    </linearGradient>
  </defs>
</svg>