<svg xmlns:xlink="http://www.w3.org/1999/xlink" xmlns="http://www.w3.org/2000/svg" height="42.85px" width="62.0px">
  <g transform="matrix(1.0, 0.0, 0.0, 1.0, 24.7, 15.0)">
    <g data-characterId="1096" height="10.1" transform="matrix(1.0, 0.0, 0.0, 1.0, -14.5, -5.35)" width="30.15" xlink:href="#shape0"><g id="shape0" transform="matrix(1.0, 0.0, 0.0, 1.0, 14.5, 5.35)">
      <path d="M-2.0 -4.7 L-2.4 -4.4 -2.3 -4.3 8.2 -5.1 7.2 -3.65 13.05 -3.85 12.05 -2.25 15.65 -3.05 10.9 1.3 Q-2.9 -2.75 -14.2 4.75 L-14.5 4.55 Q-13.8 1.1 -11.5 -1.35 L-10.15 -2.75 -9.65 -2.2 -2.2 -5.25 -2.0 -4.7" fill="#cccccc" fill-rule="evenodd" stroke="none"/>
      <path d="M-2.0 -4.7 L-2.4 -4.4 -2.3 -4.3 8.2 -5.1 7.2 -3.65 13.05 -3.85 12.05 -2.25 15.65 -3.05 10.9 1.3 Q-2.9 -2.75 -14.2 4.75 M-14.5 4.55 Q-13.8 1.1 -11.5 -1.35 L-10.15 -2.75 -9.7 -3.1 -9.55 -2.65 -9.65 -2.2 -2.2 -5.25 -0.65 -5.35 -2.0 -4.7" fill="none" stroke="#000000" stroke-linecap="round" stroke-linejoin="round" stroke-width="1.5"/>
    </g>
  </g>
  </g>
  <defs>
    </defs>
</svg>