<svg xmlns:xlink="http://www.w3.org/1999/xlink" xmlns="http://www.w3.org/2000/svg" height="141.1px" width="125.05px">
  <g transform="matrix(1.0, 0.0, 0.0, 1.0, 48.6, 54.85)">
    <g data-characterId="987" height="117.45" transform="matrix(1.0, 0.0, 0.0, 1.0, -48.6, -52.5)" width="125.05" xlink:href="#shape0"><g id="shape0" transform="matrix(1.0, 0.0, 0.0, 1.0, 48.6, 52.5)">
      <path d="M-37.1 9.7 Q-37.65 4.1 -36.45 -1.45 L-35.85 -4.45 -35.8 -6.55 Q-35.9 -7.35 -36.75 -9.35 -37.65 -11.35 -37.55 -13.85 -37.5 -16.4 -36.35 -19.7 -35.25 -23.0 -33.9 -29.2 -32.55 -35.4 -28.15 -40.65 -23.8 -45.9 -20.95 -47.75 -15.9 -51.1 -9.35 -51.45 L-7.9 -51.6 0.3 -52.0 Q5.75 -52.15 11.5 -49.65 L14.8 -48.0 17.05 -46.75 21.1 -44.1 22.0 -43.4 Q25.6 -32.2 23.75 -20.6 22.45 -12.3 22.1 -4.15 22.0 -1.6 23.1 0.7 L24.15 -6.3 24.25 -6.8 Q25.5 -11.4 29.75 -12.0 31.0 -11.5 32.15 -9.85 34.9 -6.15 34.2 -1.45 L34.15 -1.2 34.15 -1.0 Q33.65 2.0 32.65 4.9 32.1 6.6 31.7 8.7 L31.15 11.1 Q28.5 14.2 25.9 12.05 L25.55 12.05 22.55 12.1 Q22.4 14.6 21.5 17.15 17.55 27.9 9.75 36.55 -3.4 51.15 -16.7 40.4 L-17.35 41.05 Q-24.55 46.5 -28.6 38.5 L-28.8 38.55 -29.6 36.2 -30.95 31.95 -31.9 28.85 Q-19.6 29.1 -19.15 27.7 L-18.45 25.8 -17.45 27.65 0.85 28.95 Q-8.35 22.45 -19.4 21.45 L-20.2 21.35 -32.45 27.25 -32.65 26.8 -33.45 24.45 -35.45 17.5 Q-36.7 13.6 -37.1 9.7 M-24.75 -9.65 Q-20.95 -4.85 -26.25 1.65 -31.6 8.2 -28.5 19.95 L-27.35 20.15 -25.05 20.15 -23.8 19.8 -22.4 18.9 -20.35 17.9 -18.75 17.35 -20.35 17.9 -22.4 18.9 -23.8 19.8 -25.05 20.15 -27.35 20.15 -28.5 19.95 Q-31.6 8.2 -26.25 1.65 -20.95 -4.85 -24.75 -9.65 M-14.6 19.5 Q-12.9 18.0 -13.55 15.85 -12.9 18.0 -14.6 19.5 M31.45 -1.65 L31.45 -3.65 31.25 -4.55 Q30.35 -6.65 28.95 -5.15 L28.6 -4.6 Q28.05 -2.8 26.45 -2.15 28.05 -2.8 28.6 -4.6 L28.95 -5.15 Q30.35 -6.65 31.25 -4.55 L31.45 -3.65 31.45 -1.65 M-26.25 20.7 L-26.2 20.65 -26.25 20.65 -26.25 20.7 M29.45 4.35 L29.45 3.85 29.45 1.35 29.45 3.85 29.45 4.35 M1.15 24.75 Q1.2 20.6 1.85 16.7 2.15 14.7 3.9 13.5 L7.7 10.95 11.85 7.35 Q15.0 3.95 14.95 -0.55 15.0 3.95 11.85 7.35 L7.7 10.95 3.9 13.5 Q2.15 14.7 1.85 16.7 1.2 20.6 1.15 24.75" fill="url(#gradient0)" fill-rule="evenodd" stroke="none"/>
      <path d="M22.0 -43.4 L23.05 -42.65 Q43.15 -33.8 45.6 -10.55 46.6 -1.25 50.4 7.25 56.4 20.85 70.7 26.95 73.9 28.25 75.05 31.8 80.7 49.3 63.25 53.25 56.3 54.8 49.75 57.75 40.2 62.15 31.75 55.85 L27.8 31.15 28.15 30.05 Q29.9 23.5 28.55 16.75 L30.05 16.25 32.65 12.05 32.75 11.9 32.75 11.8 33.85 9.65 Q35.9 5.15 36.8 0.4 L37.0 -0.45 37.05 -1.0 37.1 -1.1 Q38.15 -7.6 37.7 -14.2 37.35 -19.5 36.05 -24.55 33.65 -33.95 29.0 -37.85 L23.05 -42.65 29.0 -37.85 Q33.65 -33.95 36.05 -24.55 37.35 -19.5 37.7 -14.2 38.15 -7.6 37.1 -1.1 L37.05 -1.0 37.0 -0.45 36.8 0.4 Q35.9 5.15 33.85 9.65 L32.75 11.8 32.75 11.9 32.65 12.05 31.15 11.1 31.7 8.7 Q32.1 6.6 32.65 4.9 33.65 2.0 34.15 -1.0 L34.15 -1.2 34.2 -1.45 Q34.9 -6.15 32.15 -9.85 31.0 -11.5 29.75 -12.0 25.5 -11.4 24.25 -6.8 L24.15 -6.3 23.1 0.7 Q22.0 -1.6 22.1 -4.15 22.45 -12.3 23.75 -20.6 25.6 -32.2 22.0 -43.4 M-25.25 54.5 L-31.35 57.4 -34.55 56.95 Q-43.2 56.15 -47.55 50.0 -49.45 47.25 -47.9 44.5 -38.75 28.15 -37.1 9.7 -36.7 13.6 -35.45 17.5 L-33.45 24.45 -32.65 26.8 -32.45 27.25 -35.75 28.4 -31.9 28.85 -30.95 31.95 -29.6 36.2 Q-29.7 44.7 -26.15 52.55 L-25.25 54.5" fill="#000000" fill-rule="evenodd" stroke="none"/>
      <path d="M27.8 31.15 L27.5 31.8 27.15 32.4 25.55 34.35 25.8 34.55 Q23.55 37.6 20.15 39.65 1.9 50.5 -14.05 63.3 L-13.9 58.25 -19.1 64.45 -19.75 61.9 Q-20.8 57.95 -23.25 54.8 L-23.25 57.1 -25.25 54.5 -26.15 52.55 Q-29.7 44.7 -29.6 36.2 L-28.8 38.55 -28.6 38.5 Q-24.55 46.5 -17.35 41.05 L-16.7 40.4 Q-3.4 51.15 9.75 36.55 17.55 27.9 21.5 17.15 22.4 14.6 22.55 12.1 L25.55 12.05 25.9 12.05 Q28.5 14.2 31.15 11.1 L32.65 12.05 30.05 16.25 28.55 16.75 Q29.9 23.5 28.15 30.05 L27.8 31.15 M-32.45 27.25 L-20.2 21.35 -19.4 21.45 Q-8.35 22.45 0.85 28.95 L-17.45 27.65 -18.45 25.8 -19.15 27.7 Q-19.6 29.1 -31.9 28.85 L-35.75 28.4 -32.45 27.25" fill="#3d2312" fill-rule="evenodd" stroke="none"/>
      <path d="M-37.1 9.7 Q-37.65 4.1 -36.45 -1.45 L-35.85 -4.45 -35.8 -6.55 Q-35.9 -7.35 -36.75 -9.35 -37.65 -11.35 -37.55 -13.85 -37.5 -16.4 -36.35 -19.7 -35.25 -23.0 -33.9 -29.2 -32.55 -35.4 -28.15 -40.65 -23.8 -45.9 -20.95 -47.75 -15.9 -51.1 -9.35 -51.45 L-7.9 -51.6 0.3 -52.0 Q5.75 -52.15 11.5 -49.65 L14.8 -48.0 17.05 -46.75 21.1 -44.1 22.0 -43.4 23.05 -42.65 29.0 -37.85 Q33.65 -33.95 36.05 -24.55 37.35 -19.5 37.7 -14.2 38.15 -7.6 37.1 -1.1 L37.05 -1.0 37.0 -0.45 36.8 0.4 Q35.9 5.15 33.85 9.65 L32.75 11.8 32.75 11.9 32.65 12.05 30.05 16.25 M27.8 31.15 L27.5 31.8 M27.15 32.4 L25.55 34.35 25.8 34.55 Q23.55 37.6 20.15 39.65 1.9 50.5 -14.05 63.3 L-13.9 58.25 -19.1 64.45 -19.75 61.9 Q-20.8 57.95 -23.25 54.8 L-23.25 57.1 -25.25 54.5 -26.15 52.55 Q-29.7 44.7 -29.6 36.2 L-28.8 38.55 M-37.1 9.7 Q-36.7 13.6 -35.45 17.5 L-33.45 24.45 -32.65 26.8 -32.45 27.25 M-31.9 28.85 L-30.95 31.95 -29.6 36.2 M25.55 12.05 L25.9 12.05 Q28.5 14.2 31.15 11.1 L31.7 8.7 Q32.1 6.6 32.65 4.9 33.65 2.0 34.15 -1.0 L34.15 -1.2 34.2 -1.45 Q34.9 -6.15 32.15 -9.85 31.0 -11.5 29.75 -12.0 25.5 -11.4 24.25 -6.8 M28.55 16.75 Q29.9 23.5 28.15 30.05 L27.8 31.15 M26.45 -2.15 Q28.05 -2.8 28.6 -4.6 L28.95 -5.15 Q30.35 -6.65 31.25 -4.55 L31.45 -3.65 31.45 -1.65 M-13.55 15.85 Q-12.9 18.0 -14.6 19.5 M-18.75 17.35 L-20.35 17.9 -22.4 18.9 -23.8 19.8 -25.05 20.15 -27.35 20.15 -28.5 19.95 Q-31.6 8.2 -26.25 1.65 -20.95 -4.85 -24.75 -9.65 M29.45 1.35 L29.45 3.85 29.45 4.35" fill="none" stroke="#000000" stroke-linecap="round" stroke-linejoin="round" stroke-width="2.0"/>
      <path d="M14.95 -0.55 Q15.0 3.95 11.85 7.35 L7.7 10.95 3.9 13.5 Q2.15 14.7 1.85 16.7 1.2 20.6 1.15 24.75" fill="none" stroke="#a97745" stroke-linecap="round" stroke-linejoin="round" stroke-width="2.0"/>
    </g>
    </g>
  </g>
  <defs>
    <radialGradient cx="0" cy="0" gradientTransform="matrix(0.0543, 0.0, 0.0, 0.0824, -20.0, -3.0)" gradientUnits="userSpaceOnUse" id="gradient0" r="819.2" spreadMethod="pad">
      <stop offset="0.0" stop-color="#e2b983"/>
      <stop offset="0.6274509803921569" stop-color="#d9a166"/>
      <stop offset="1.0" stop-color="#c08456"/>
    </radialGradient>
  </defs>
</svg>