<svg xmlns:xlink="http://www.w3.org/1999/xlink" xmlns="http://www.w3.org/2000/svg" height="264.15px" width="342.25px">
  <g transform="matrix(1.0, 0.0, 0.0, 1.0, 243.25, 83.7)">
    <g data-characterId="1122" height="89.0" transform="matrix(1.0, 0.0, 0.0, 1.0, -48.0, -42.95)" width="92.35" xlink:href="#shape0"><g id="shape0" transform="matrix(1.0, 0.0, 0.0, 1.0, 48.0, 42.95)">
      <path d="M25.0 -34.5 L26.0 -34.5 Q30.7 -30.7 35.05 -26.35 38.9 -22.55 40.45 -17.65 L41.2 -17.15 42.7 -12.6 Q44.5 -6.85 43.5 -0.9 L39.95 20.2 Q38.9 26.5 38.3 32.85 L37.0 44.05 34.5 38.5 Q34.8 41.65 32.85 44.45 L32.0 45.55 31.5 39.0 31.5 38.25 31.0 25.75 31.5 25.75 Q33.1 25.1 33.5 23.4 L35.0 18.0 Q36.1 14.3 37.25 8.0 35.7 4.9 33.25 2.55 32.35 1.65 31.4 2.2 30.45 2.75 28.0 7.5 L28.0 7.55 Q27.3 8.4 27.05 9.3 25.1 15.85 25.5 20.0 23.9 17.95 23.5 11.2 23.1 4.45 19.0 -6.55 14.9 -17.6 1.3 -14.95 L-1.25 -15.2 -3.55 -14.75 -10.25 -15.9 -18.8 -17.3 Q-23.1 -17.9 -25.75 -21.0 -27.15 -22.7 -26.5 -25.0 L-26.5 -25.5 Q-20.8 -33.3 -13.95 -40.0 -11.3 -42.65 -7.5 -42.05 L-4.0 -41.5 Q3.65 -42.15 11.1 -41.15 12.7 -40.85 14.15 -40.1 L24.05 -34.9 24.1 -34.55 Q24.1 -34.35 24.25 -34.2 L24.5 -34.05 24.8 -34.15 25.0 -34.5 M23.85 -7.4 Q27.2 -2.95 25.0 2.0 27.2 -2.95 23.85 -7.4 M41.0 -5.0 L40.5 -2.0 40.0 1.0 40.5 -2.0 41.0 -5.0 M24.5 -18.0 L25.25 -17.35 Q27.0 -14.5 28.25 -11.4 30.45 -5.8 29.0 0.0 30.45 -5.8 28.25 -11.4 27.0 -14.5 25.25 -17.35 L24.5 -18.0 M34.0 -11.0 L34.7 -9.9 Q36.65 -4.0 34.0 1.5 36.65 -4.0 34.7 -9.9 L34.0 -11.0" fill="url(#gradient0)" fill-rule="evenodd" stroke="none"/>
      <path d="M26.0 -34.5 Q30.7 -30.7 35.05 -26.35 38.9 -22.55 40.45 -17.65 L41.2 -17.15 42.7 -12.6 Q44.5 -6.85 43.5 -0.9 L39.95 20.2 Q38.9 26.5 38.3 32.85 L37.0 44.05 34.5 38.5 Q34.8 41.65 32.85 44.45 L32.0 45.55 M25.0 -34.5 L24.05 -34.9 23.5 -37.5 M-26.5 -25.5 Q-20.8 -33.3 -13.95 -40.0 -11.3 -42.65 -7.5 -42.05 L-4.0 -41.5 Q3.65 -42.15 11.1 -41.15 12.7 -40.85 14.15 -40.1 L24.05 -34.9" fill="none" stroke="#000000" stroke-linecap="round" stroke-linejoin="round" stroke-width="2.0"/>
      <path d="M1.3 -14.95 L3.75 -6.05 4.4 -3.95 Q7.8 5.2 6.05 15.0 L6.0 15.5 M-3.55 -14.75 L-0.85 -4.9 Q-0.5 -3.5 -0.5 -2.0 L-0.5 -1.5" fill="none" stroke="#996600" stroke-linecap="round" stroke-linejoin="round" stroke-width="2.0"/>
      <path d="M31.5 25.75 Q33.1 25.1 33.5 23.4 L35.0 18.0 Q36.1 14.3 37.25 8.0 35.7 4.9 33.25 2.55 32.35 1.65 31.4 2.2 30.45 2.75 28.0 7.5 M28.0 7.55 Q27.3 8.4 27.05 9.3 25.1 15.85 25.5 20.0" fill="none" stroke="#000000" stroke-linecap="round" stroke-linejoin="round" stroke-width="2.0"/>
      <path d="M34.0 1.5 Q36.65 -4.0 34.7 -9.9 L34.0 -11.0 M29.0 0.0 Q30.45 -5.8 28.25 -11.4 27.0 -14.5 25.25 -17.35 L24.5 -18.0 M40.0 1.0 L40.5 -2.0 41.0 -5.0 M25.0 2.0 Q27.2 -2.95 23.85 -7.4" fill="none" stroke="#cd8101" stroke-linecap="round" stroke-linejoin="round" stroke-width="2.0"/>
      <path d="M32.0 45.55 L31.5 39.0 M31.5 38.25 L31.0 25.75 M25.5 20.0 Q23.9 17.95 23.5 11.2 23.1 4.45 19.0 -6.55 14.9 -17.6 1.3 -14.95 L-1.25 -15.2 -3.55 -14.75 -10.25 -15.9 -18.8 -17.3 Q-23.1 -17.9 -25.75 -21.0 -27.15 -22.7 -26.5 -25.0" fill="none" stroke="#dfa062" stroke-linecap="round" stroke-linejoin="round" stroke-width="2.0"/>
      <path d="M-46.4 -9.45 L-45.4 -8.35 -47.5 -6.5 -46.4 -9.45 M-23.65 10.55 L-23.15 10.45 -23.65 10.6 -23.65 10.55 M-11.5 -42.0 L-11.65 -42.45 -11.6 -42.45 -11.5 -42.0" fill="#996600" fill-rule="evenodd" stroke="none"/>
      <path d="M-34.7 -17.95 L-37.3 -14.85 Q-40.0 -11.1 -42.3 -7.15 L-45.0 -2.0 -42.3 -7.15 Q-40.0 -11.1 -37.3 -14.85 L-34.7 -17.95 M-12.75 -41.5 L-15.8 -40.1 -20.05 -37.55 -21.15 -36.65 Q-21.75 -36.1 -22.5 -35.7 -26.55 -33.7 -30.25 -30.8 L-30.95 -30.2 -35.5 -25.25 -36.8 -23.8 -38.0 -22.25 -39.45 -20.25 -40.55 -18.8 -40.95 -18.2 Q-42.5 -16.3 -43.5 -14.25 L-43.65 -13.75 Q-43.65 -12.65 -44.25 -11.75 -43.65 -12.65 -43.65 -13.75 L-43.5 -14.25 Q-42.5 -16.3 -40.95 -18.2 L-40.55 -18.8 -39.45 -20.25 -38.0 -22.25 -36.8 -23.8 -35.5 -25.25 -30.95 -30.2 -30.25 -30.8 Q-26.55 -33.7 -22.5 -35.7 -21.75 -36.1 -21.15 -36.65 L-20.05 -37.55 -15.8 -40.1 -12.75 -41.5 M-45.4 -8.35 L-46.4 -9.45 Q-37.15 -34.75 -11.65 -42.45 L-11.5 -42.0 Q-6.6 -32.15 -5.7 -21.15 L-5.8 -19.75 -6.15 -19.25 Q-19.55 -7.6 -23.15 10.45 L-23.65 10.55 -24.35 6.35 -25.75 -1.85 Q-26.05 -3.9 -26.0 -6.0 L-28.65 -0.95 Q-32.5 6.7 -34.65 14.95 L-35.0 14.95 Q-35.65 3.5 -32.5 -7.5 L-33.75 -5.75 Q-39.8 3.4 -41.95 14.5 L-42.0 14.5 Q-43.45 4.0 -40.5 -6.0 -45.1 1.25 -47.5 9.5 -47.0 -1.05 -42.8 -10.65 L-45.4 -8.35 M-23.75 -8.75 L-24.45 -4.7 Q-24.75 -1.0 -24.4 2.7 L-23.75 5.25 -24.4 2.7 Q-24.75 -1.0 -24.45 -4.7 L-23.75 -8.75 M-33.75 -14.25 L-36.45 -9.35 Q-38.35 -5.25 -39.7 -0.9 L-41.5 6.0 -39.7 -0.9 Q-38.35 -5.25 -36.45 -9.35 L-33.75 -14.25 M-25.75 -16.75 L-26.85 -14.9 -30.85 -5.95 -32.35 -1.2 Q-33.1 1.85 -33.25 5.0 -33.1 1.85 -32.35 -1.2 L-30.85 -5.95 -26.85 -14.9 -25.75 -16.75" fill="url(#gradient1)" fill-rule="evenodd" stroke="none"/>
      <path d="M-46.4 -9.45 L-47.5 -6.5 -45.4 -8.35 -42.8 -10.65 Q-47.0 -1.05 -47.5 9.5 -45.1 1.25 -40.5 -6.0 -43.45 4.0 -42.0 14.5 L-42.0 14.6 -41.95 14.5 Q-39.8 3.4 -33.75 -5.75 L-32.5 -7.5 Q-35.65 3.5 -35.0 14.95 L-34.8 15.05 -34.65 14.95 Q-32.5 6.7 -28.65 -0.95 L-26.0 -6.0 Q-26.05 -3.9 -25.75 -1.85 L-24.35 6.35 -23.65 10.55 -23.65 10.6 -23.4 10.6 -23.15 10.45 Q-19.55 -7.6 -6.15 -19.25 L-5.8 -19.75 M-11.65 -42.45 Q-37.15 -34.75 -46.4 -9.45 M-11.65 -42.45 L-11.6 -42.45 -11.5 -42.0" fill="none" stroke="#000000" stroke-linecap="round" stroke-linejoin="round" stroke-width="2.0"/>
      <path d="M-44.25 -11.75 Q-43.65 -12.65 -43.65 -13.75 L-43.5 -14.25 Q-42.5 -16.3 -40.95 -18.2 L-40.55 -18.8 -39.45 -20.25 -38.0 -22.25 -36.8 -23.8 -35.5 -25.25 -30.95 -30.2 -30.25 -30.8 Q-26.55 -33.7 -22.5 -35.7 -21.75 -36.1 -21.15 -36.65 L-20.05 -37.55 -15.8 -40.1 -12.75 -41.5 M-45.0 -2.0 L-42.3 -7.15 Q-40.0 -11.1 -37.3 -14.85 L-34.7 -17.95 M-33.25 5.0 Q-33.1 1.85 -32.35 -1.2 L-30.85 -5.95 -26.85 -14.9 -25.75 -16.75 M-41.5 6.0 L-39.7 -0.9 Q-38.35 -5.25 -36.45 -9.35 L-33.75 -14.25 M-23.75 5.25 L-24.4 2.7 Q-24.75 -1.0 -24.45 -4.7 L-23.75 -8.75" fill="none" stroke="#cd8101" stroke-linecap="round" stroke-linejoin="round" stroke-width="2.0"/>
    </g>
    </g>
  </g>
  <defs>
    <radialGradient cx="0" cy="0" gradientTransform="matrix(0.0949, 0.0, 0.0, 0.0505, 0.5, -20.5)" gradientUnits="userSpaceOnUse" id="gradient0" r="819.2" spreadMethod="pad">
      <stop offset="0.0" stop-color="#835201"/>
      <stop offset="0.5294117647058824" stop-color="#a86b06"/>
      <stop offset="1.0" stop-color="#7e4f01"/>
    </radialGradient>
    <radialGradient cx="0" cy="0" gradientTransform="matrix(0.0949, 0.0, 0.0, 0.0505, 0.5, -20.5)" gradientUnits="userSpaceOnUse" id="gradient1" r="819.2" spreadMethod="pad">
      <stop offset="0.0" stop-color="#835201"/>
      <stop offset="0.5294117647058824" stop-color="#a86b06"/>
      <stop offset="1.0" stop-color="#7e4f01"/>
    </radialGradient>
  </defs>
</svg>