<svg xmlns:xlink="http://www.w3.org/1999/xlink" xmlns="http://www.w3.org/2000/svg" height="119.1px" width="213.05px">
  <g transform="matrix(1.0, 0.0, 0.0, 1.0, 94.65, 81.2)">
    <g data-characterId="940" height="38.25" transform="matrix(1.0, 0.0, 0.0, 1.0, -69.0, -22.5)" width="157.8" xlink:href="#shape0"><g id="shape0" transform="matrix(1.0, 0.0, 0.0, 1.0, 69.0, 22.5)">
      <path d="M25.8 -14.0 L25.3 -13.5 23.4 -12.3 21.9 -12.0 20.4 -11.65 Q19.75 -11.25 19.0 -11.0 14.1 -9.2 9.0 -7.95 L-0.55 -5.75 Q-5.35 -4.65 -7.5 0.0 -5.35 -4.65 -0.55 -5.75 L9.0 -7.95 Q14.1 -9.2 19.0 -11.0 19.75 -11.25 20.4 -11.65 L21.9 -12.0 23.4 -12.3 25.3 -13.5 25.8 -14.0 M30.3 -22.0 Q33.3 -21.15 36.25 -18.85 39.15 -16.55 61.65 -12.05 84.15 -7.6 87.95 -0.7 90.3 3.6 77.6 7.65 69.2 10.35 52.1 13.45 27.05 17.9 -2.6 11.3 L-10.1 10.75 Q-22.9 11.3 -39.0 9.95 -56.55 8.5 -67.25 5.55 -68.45 5.2 -68.5 4.7 L-68.3 0.0 Q-67.75 -8.4 -52.4 -9.25 -44.7 -9.65 -34.5 -13.35 -24.3 -17.1 -21.55 -20.5 L-18.5 -19.3 Q-6.55 -14.25 5.95 -15.05 18.5 -15.9 29.8 -22.5 L30.3 -22.0 M-27.9 -13.6 Q-26.05 -10.9 -26.5 -7.5 -26.05 -10.9 -27.9 -13.6" fill="#ecc59d" fill-rule="evenodd" stroke="none"/>
      <path d="M-7.5 0.0 Q-5.35 -4.65 -0.55 -5.75 L9.0 -7.95 Q14.1 -9.2 19.0 -11.0 19.75 -11.25 20.4 -11.65 L21.9 -12.0 23.4 -12.3 25.3 -13.5 25.8 -14.0 M-26.5 -7.5 Q-26.05 -10.9 -27.9 -13.6" fill="none" stroke="#b9a882" stroke-linecap="round" stroke-linejoin="round" stroke-width="2.0"/>
      <path d="M-21.55 -20.5 Q-24.3 -17.1 -34.5 -13.35 -44.7 -9.65 -52.4 -9.25 -67.75 -8.4 -68.3 0.0 L-68.5 4.7 Q-68.45 5.2 -67.25 5.55 -56.55 8.5 -39.0 9.95 -22.9 11.3 -10.1 10.75 L-2.6 11.3 Q27.05 17.9 52.1 13.45 69.2 10.35 77.6 7.65 90.3 3.6 87.95 -0.7 84.15 -7.6 61.65 -12.05 39.15 -16.55 36.25 -18.85 33.3 -21.15 30.3 -22.0" fill="none" stroke="#000000" stroke-linecap="round" stroke-linejoin="round" stroke-width="2.0"/>
    </g>
  </g>
  </g>
  <defs>
    </defs>
</svg>