<svg xmlns:xlink="http://www.w3.org/1999/xlink" xmlns="http://www.w3.org/2000/svg" height="264.15px" width="342.25px">
  <g transform="matrix(1.0, 0.0, 0.0, 1.0, 243.25, 83.7)">
    <g data-characterId="1177" height="194.75" transform="matrix(1.0, 0.0, 0.0, 1.0, -49.3, -14.3)" width="110.8" xlink:href="#shape0"><g id="shape0" transform="matrix(1.0, 0.0, 0.0, 1.0, 49.3, 14.3)">
      <path d="M34.8 1.7 Q33.8 -0.25 33.9 -2.55 L33.95 -4.05 36.5 -2.6 37.05 -6.3 37.25 -6.3 37.55 -6.5 39.1 -13.8 Q46.9 0.5 45.3 17.6 44.85 22.25 45.9 26.45 L56.55 68.15 Q57.9 73.3 60.55 78.05 L61.0 79.4 59.8 79.7 58.95 87.45 57.25 79.4 51.2 101.85 Q50.7 89.35 47.15 77.1 45.7 86.05 46.0 94.95 40.6 84.3 39.6 72.45 L38.55 82.55 Q34.85 70.35 32.65 58.0 26.05 64.2 25.6 73.5 25.5 76.05 23.3 77.5 18.05 81.1 17.1 87.0 16.15 92.6 11.9 96.1 8.85 98.6 6.15 101.5 0.9 107.05 0.25 114.15 0.2 129.5 2.15 144.6 4.0 159.0 -5.55 169.25 -24.9 190.15 -43.95 170.25 -53.7 160.0 -43.85 149.55 L-40.6 150.2 -41.75 151.05 Q-39.9 151.05 -38.15 152.1 L-36.95 153.25 -35.85 154.9 -39.45 154.2 -38.8 155.25 Q-38.2 156.25 -37.75 157.4 L-37.15 159.4 -38.3 157.35 -40.0 156.95 Q-41.3 158.0 -41.25 159.6 -41.0 165.35 -34.9 166.25 -19.35 168.8 -19.2 151.4 -19.1 136.35 -27.3 125.8 L-31.2 115.0 -31.65 104.65 Q-31.75 101.8 -29.9 95.65 -28.05 89.4 -29.3 82.15 L-30.95 73.3 -32.25 76.7 -33.55 69.8 Q-36.0 54.65 -29.7 41.1 L-31.95 31.1 -31.0 32.55 Q-29.4 34.8 -27.1 36.5 L-22.35 33.9 -21.1 34.0 -20.4 34.65 -16.5 33.45 -14.4 34.5 -12.75 33.5 -11.85 32.3 -10.05 32.2 Q4.9 30.75 9.9 44.75 L13.1 47.1 15.5 45.15 16.95 46.7 20.4 44.0 21.85 45.75 23.95 42.8 32.2 29.05 33.05 25.2 Q37.5 16.35 36.6 9.95 35.65 3.55 34.3 2.1 L34.8 1.7 M-27.1 36.5 L-29.7 41.1 -27.1 36.5 M30.5 49.45 L29.6 55.5 30.5 49.45 M50.9 78.8 L44.3 59.8 Q39.8 46.85 39.7 33.05 39.8 46.85 44.3 59.8 L50.9 78.8 M53.5 79.1 L49.45 65.6 53.5 79.1 M4.3 78.25 L3.15 85.15 4.3 78.25 M13.8 61.55 L12.35 74.2 8.05 63.3 8.35 72.8 Q5.6 67.25 3.7 61.55 L1.15 53.5 0.55 59.25 -4.05 48.1 0.55 59.25 1.15 53.5 3.7 61.55 Q5.6 67.25 8.35 72.8 L8.05 63.3 12.35 74.2 13.8 61.55 M26.15 47.75 L25.95 49.95 Q24.9 59.05 20.7 67.0 24.9 59.05 25.95 49.95 L26.15 47.75 M32.2 29.05 L32.85 31.35 Q33.25 33.5 33.8 35.4 37.1 47.25 32.65 58.0 37.1 47.25 33.8 35.4 33.25 33.5 32.85 31.35 L32.2 29.05 M14.1 58.95 L10.7 47.3 9.9 44.75 10.7 47.3 14.1 58.95 M-10.65 39.1 L-12.1 41.15 -12.95 40.15 -13.85 40.15 -15.0 38.55 Q-15.9 41.1 -18.15 42.55 L-18.7 40.55 Q-19.8 42.4 -20.45 44.4 -21.0 46.1 -20.65 48.1 L-18.15 53.2 -16.35 50.8 Q-15.1 48.95 -14.45 46.9 L-13.25 50.05 -12.7 49.4 -12.0 48.0 -11.8 47.15 -9.4 49.65 -6.9 46.9 -6.05 49.45 -4.05 48.1 -4.75 46.65 Q-7.2 42.55 -10.4 38.9 L-10.65 39.1 M-11.5 37.7 L-10.4 38.9 -11.5 37.7 M-27.65 172.35 L-29.95 172.6 Q-33.85 172.95 -36.55 170.05 -33.85 172.95 -29.95 172.6 L-27.65 172.35 M-26.75 110.45 L-26.65 104.9 Q-26.65 96.55 -24.2 88.6 -26.65 96.55 -26.65 104.9 L-26.75 110.45 M-19.0 175.25 Q-14.7 173.5 -11.55 170.0 -9.5 167.75 -7.85 165.2 -6.6 163.3 -5.75 161.15 -3.9 156.7 -3.6 151.9 L-3.35 147.9 Q-3.2 144.15 -4.6 140.7 -3.2 144.15 -3.35 147.9 L-3.6 151.9 Q-3.9 156.7 -5.75 161.15 -6.6 163.3 -7.85 165.2 -9.5 167.75 -11.55 170.0 -14.7 173.5 -19.0 175.25 M-10.65 140.15 L-11.75 137.5 -15.0 128.9 Q-16.0 126.35 -17.25 123.9 -19.85 118.95 -19.3 113.65 -19.85 118.95 -17.25 123.9 -16.0 126.35 -15.0 128.9 L-11.75 137.5 -10.65 140.15 M-21.3 102.1 Q-20.9 88.5 -14.2 76.85 -9.8 69.25 -10.65 60.4 -9.8 69.25 -14.2 76.85 -20.9 88.5 -21.3 102.1 M-3.2 75.65 Q-4.55 80.95 -6.2 86.2 -10.3 99.3 -10.95 112.75 -10.3 99.3 -6.2 86.2 -4.55 80.95 -3.2 75.65 M-20.65 48.1 Q-20.35 53.45 -21.4 58.65 L-23.05 53.8 Q-23.65 68.3 -28.25 81.95 -28.0 75.9 -29.45 69.95 L-30.95 73.3 -29.45 69.95 Q-28.0 75.9 -28.25 81.95 -23.65 68.3 -23.05 53.8 L-21.4 58.65 Q-20.35 53.45 -20.65 48.1" fill="#ffffff" fill-rule="evenodd" stroke="none"/>
      <path d="M34.8 1.7 Q33.8 -0.25 33.9 -2.55 L33.95 -4.05 36.5 -2.6 37.05 -6.3 37.25 -6.3 37.55 -6.5 39.1 -13.8 Q46.9 0.5 45.3 17.6 44.85 22.25 45.9 26.45 L56.55 68.15 Q57.9 73.3 60.55 78.05 L61.0 79.4 59.8 79.7 58.95 87.45 57.25 79.4 51.2 101.85 Q50.7 89.35 47.15 77.1 45.7 86.05 46.0 94.95 40.6 84.3 39.6 72.45 L38.55 82.55 Q34.85 70.35 32.65 58.0 26.05 64.2 25.6 73.5 25.5 76.05 23.3 77.5 18.05 81.1 17.1 87.0 16.15 92.6 11.9 96.1 8.85 98.6 6.15 101.5 0.9 107.05 0.25 114.15 0.2 129.5 2.15 144.6 4.0 159.0 -5.55 169.25 -24.9 190.15 -43.95 170.25 -53.7 160.0 -43.85 149.55 L-40.6 150.2 -41.75 151.05 Q-39.9 151.05 -38.15 152.1 L-36.95 153.25 -35.85 154.9 -39.45 154.2 -38.8 155.25 Q-38.2 156.25 -37.75 157.4 L-37.15 159.4 -38.3 157.35 -40.0 156.95 Q-41.3 158.0 -41.25 159.6 -41.0 165.35 -34.9 166.25 -19.35 168.8 -19.2 151.4 -19.1 136.35 -27.3 125.8 L-31.2 115.0 -31.65 104.65 Q-31.75 101.8 -29.9 95.65 -28.05 89.4 -29.3 82.15 L-30.95 73.3 -32.25 76.7 -33.55 69.8 Q-36.0 54.65 -29.7 41.1 L-31.95 31.1 -31.0 32.55 Q-29.4 34.8 -27.1 36.5 L-22.35 33.9 -21.1 34.0 -20.4 34.65 -16.5 33.45 -14.4 34.5 -12.75 33.5 -11.85 32.3 -10.05 32.2 Q4.9 30.75 9.9 44.75 L13.1 47.1 15.5 45.15 16.95 46.7 20.4 44.0 21.85 45.75 23.95 42.8 32.2 29.05 33.05 25.2 Q37.5 16.35 36.6 9.95 35.65 3.55 34.3 2.1 M9.9 44.75 L10.7 47.3 14.1 58.95 M32.65 58.0 Q37.1 47.25 33.8 35.4 33.25 33.5 32.85 31.35 L32.2 29.05 M20.7 67.0 Q24.9 59.05 25.95 49.95 L26.15 47.75 M-4.05 48.1 L0.55 59.25 1.15 53.5 3.7 61.55 Q5.6 67.25 8.35 72.8 L8.05 63.3 12.35 74.2 13.8 61.55 M3.15 85.15 L4.3 78.25 M49.45 65.6 L53.5 79.1 M39.7 33.05 Q39.8 46.85 44.3 59.8 L50.9 78.8 M29.6 55.5 L30.5 49.45 M-29.7 41.1 L-27.1 36.5 M-20.65 48.1 Q-21.0 46.1 -20.45 44.4 -19.8 42.4 -18.7 40.55 L-18.15 42.55 Q-15.9 41.1 -15.0 38.55 L-13.85 40.15 -12.95 40.15 -12.1 41.15 -10.65 39.1 -10.0 40.45 -8.95 41.7 M-10.4 38.9 L-11.5 37.7 M-20.65 48.1 L-18.15 53.2 -16.35 50.8 Q-15.1 48.95 -14.45 46.9 L-13.25 50.05 -12.7 49.4 -12.0 48.0 -11.8 47.15 -9.4 49.65 -6.9 46.9 -6.05 49.45 -4.05 48.1 -4.75 46.65 Q-7.2 42.55 -10.4 38.9 M-30.95 73.3 L-29.45 69.95 Q-28.0 75.9 -28.25 81.95 -23.65 68.3 -23.05 53.8 L-21.4 58.65 Q-20.35 53.45 -20.65 48.1 M-10.95 112.75 Q-10.3 99.3 -6.2 86.2 -4.55 80.95 -3.2 75.65 M-10.65 60.4 Q-9.8 69.25 -14.2 76.85 -20.9 88.5 -21.3 102.1 M-19.3 113.65 Q-19.85 118.95 -17.25 123.9 -16.0 126.35 -15.0 128.9 L-11.75 137.5 -10.65 140.15 M-4.6 140.7 Q-3.2 144.15 -3.35 147.9 L-3.6 151.9 Q-3.9 156.7 -5.75 161.15 -6.6 163.3 -7.85 165.2 -9.5 167.75 -11.55 170.0 -14.7 173.5 -19.0 175.25 M-24.2 88.6 Q-26.65 96.55 -26.65 104.9 L-26.75 110.45 M-36.55 170.05 Q-33.85 172.95 -29.95 172.6 L-27.65 172.35" fill="none" stroke="#cccccc" stroke-linecap="round" stroke-linejoin="round" stroke-width="2.0"/>
    </g>
  </g>
  </g>
  <defs>
    </defs>
</svg>