<svg xmlns:xlink="http://www.w3.org/1999/xlink" xmlns="http://www.w3.org/2000/svg" height="42.85px" width="62.0px">
  <g transform="matrix(1.0, 0.0, 0.0, 1.0, 24.7, 15.0)">
    <g data-characterId="1114" height="7.1" transform="matrix(1.0, 0.0, 0.0, 1.0, -14.65, -3.55)" width="29.3" xlink:href="#shape0"><g id="shape0" transform="matrix(1.0, 0.0, 0.0, 1.0, 14.65, 3.55)">
      <path d="M14.3 -0.15 L10.35 -1.4 5.65 -1.7 Q0.65 -1.55 -4.1 -0.15 -8.9 1.25 -10.9 2.45 -12.95 3.6 -13.6 3.55 -15.1 2.75 -14.5 1.8 -13.95 0.85 -13.5 1.25 -9.95 -1.35 -6.3 -2.2 -3.0 -3.15 0.45 -3.35 L4.65 -3.5 7.75 -3.0 10.6 -2.4 10.85 -2.35 Q12.8 -1.95 14.4 -0.5 L14.65 0.0 14.3 -0.15" fill="#006600" fill-rule="evenodd" stroke="none"/>
      <path d="M14.3 -0.15 L14.65 0.0 14.4 -0.5 Q12.8 -1.95 10.85 -2.35 L10.6 -2.4 7.75 -3.0 4.65 -3.5 0.45 -3.35 Q-3.0 -3.15 -6.3 -2.2 -9.95 -1.35 -13.5 1.25 -13.95 0.85 -14.5 1.8 -15.1 2.75 -13.6 3.55 -12.95 3.6 -10.9 2.45 -8.9 1.25 -4.1 -0.15 0.65 -1.55 5.65 -1.7 L10.35 -1.4 14.3 -0.15 Z" fill="none" stroke="#003300" stroke-linecap="round" stroke-linejoin="round" stroke-width="1.5"/>
    </g>
  </g>
  </g>
  <defs>
    </defs>
</svg>