<svg xmlns:xlink="http://www.w3.org/1999/xlink" xmlns="http://www.w3.org/2000/svg" height="42.85px" width="62.0px">
  <g transform="matrix(1.0, 0.0, 0.0, 1.0, 24.7, 15.0)">
    <g data-characterId="1111" height="10.15" transform="matrix(1.0, 0.0, 0.0, 1.0, -24.7, -3.25)" width="42.05" xlink:href="#shape0"><g id="shape0" transform="matrix(1.0, 0.0, 0.0, 1.0, 24.7, 3.25)">
      <path d="M-7.0 -1.65 L-7.0 -1.3 -5.8 3.2 -5.5 -1.0 -4.5 2.75 -4.55 -1.55 -3.6 2.65 -3.35 -0.95 -2.2 4.0 -2.4 -1.5 -2.15 -0.1 -1.85 1.25 -1.35 2.55 -0.75 3.8 -0.3 4.6 -0.9 -1.7 0.6 4.05 0.4 -0.3 1.2 2.65 0.7 -2.0 4.0 3.6 4.0 2.7 3.7 1.85 2.7 -1.95 2.55 -2.5 M14.5 3.3 L14.3 -1.05 13.6 2.35 13.1 -2.5 13.0 2.1 11.7 -1.95 10.8 3.2 9.0 -1.45 9.0 -0.9 9.15 1.5 9.2 1.85 9.15 1.7 9.25 3.2 9.1 1.6 7.8 -2.4 7.15 1.7 6.55 -2.45 6.85 2.2 5.0 -2.5 5.35 -1.1 5.5 0.25 5.5 1.65 5.25 3.05 4.4 -2.75 3.7 0.6 4.0 2.7 M8.75 -2.35 L9.1 1.3 9.0 -0.9 8.75 -2.35 M9.1 1.6 L9.1 1.3 9.15 1.5 9.15 1.7 9.1 1.6 M3.7 0.6 L3.7 1.85 M3.7 0.6 L2.7 -1.95 M-3.6 2.65 L-3.4 3.35 M-7.0 -1.3 L-8.0 3.45 -9.55 -0.55 -9.35 5.25 -10.75 -0.55 -10.8 3.5 -12.05 -0.05 -12.1 4.25 -13.15 1.1 -13.1 2.4 -13.05 4.3 M-13.1 2.4 L-13.6 0.45 -13.95 0.85 -14.2 3.35 -14.65 0.95 -15.5 3.9 -15.7 0.7 -16.45 4.15 -17.0 1.55 -17.7 5.0 -18.25 1.3 -18.3 3.6 -18.3 4.7 M-18.3 3.6 L-18.9 1.8 -19.15 2.7 -19.2 4.1 -19.4 3.25 -19.8 5.35 -19.8 2.95 -20.15 4.1 -20.05 4.2 Q-20.15 4.85 -20.15 4.1 L-20.2 4.15 -21.05 4.6 M-20.15 4.1 L-20.2 4.15 M-19.15 2.7 L-19.4 3.25" fill="none" stroke="#000000" stroke-linecap="round" stroke-linejoin="round" stroke-width="2.0"/>
      <path d="M16.85 2.15 L15.95 0.2 15.15 1.75 Q14.85 2.3 15.4 2.75 M-22.1 2.2 L-22.05 2.7 -21.9 4.2 Q-21.65 5.4 -20.8 6.4 M-22.05 2.7 L-22.05 2.85 -21.9 4.2 -21.75 5.75 -22.85 2.6 -23.3 4.05 -22.95 5.75 M-23.3 4.05 L-23.5 3.1 M-24.15 2.8 L-24.2 6.25" fill="none" stroke="#000000" stroke-linecap="round" stroke-linejoin="round" stroke-width="2.0"/>
    </g>
  </g>
  </g>
  <defs>
    </defs>
</svg>