<svg xmlns:xlink="http://www.w3.org/1999/xlink" xmlns="http://www.w3.org/2000/svg" height="4.2px" width="18.25px">
  <g transform="matrix(1.0, 0.0, 0.0, 1.0, 6.45, 1.35)">
    <path d="M2.8 -0.55 L7.95 -1.25 Q10.25 -1.8 11.25 0.1 12.25 2.0 11.35 2.8 L8.2 2.35 Q6.55 1.75 3.45 1.6 0.3 1.5 -4.2 1.55 L-4.55 -0.1 2.8 -0.55 M7.85 0.1 L5.45 0.35 7.85 0.1 10.1 0.1 7.85 0.1 7.65 1.35 7.85 0.1" fill="#ffffff" fill-rule="evenodd" stroke="none"/>
    <path d="M2.8 -0.55 L-4.55 -0.1 -4.2 1.55 Q0.3 1.5 3.45 1.6 6.55 1.75 8.2 2.35 L11.35 2.8 Q12.25 2.0 11.25 0.1 10.25 -1.8 7.95 -1.25 L2.8 -0.55 M-4.2 1.55 L-5.45 1.85 M-4.55 -0.1 L-6.45 0.1" fill="none" stroke="#000000" stroke-linecap="round" stroke-linejoin="round" stroke-width="1.5"/>
    <path d="M10.1 0.1 L7.85 0.1 7.65 1.35 M5.45 0.35 L7.85 0.1" fill="none" stroke="#999999" stroke-linecap="round" stroke-linejoin="round" stroke-width="1.5"/>
  </g>
</svg>