<svg xmlns:xlink="http://www.w3.org/1999/xlink" xmlns="http://www.w3.org/2000/svg" height="264.15px" width="342.25px">
  <g transform="matrix(1.0, 0.0, 0.0, 1.0, 243.25, 83.7)">
    <g data-characterId="1121" height="87.05" transform="matrix(1.0, 0.0, 0.0, 1.0, -52.95, -43.05)" width="97.6" xlink:href="#shape0"><g id="shape0" transform="matrix(1.0, 0.0, 0.0, 1.0, 52.95, 43.05)">
      <path d="M30.5 -18.5 L30.85 -16.5 Q31.55 -9.8 31.0 -3.0 31.55 -9.8 30.85 -16.5 L30.5 -18.5 M26.0 -18.0 L26.4 -17.45 Q29.9 -8.95 26.0 -0.5 29.9 -8.95 26.4 -17.45 L26.0 -18.0 M23.5 11.0 L23.95 -7.05 23.95 -7.5 Q24.3 -13.75 19.5 -17.5 24.3 -13.75 23.95 -7.5 L23.95 -7.05 23.5 11.0 M37.0 -17.0 L37.25 -14.5 37.0 -7.5 37.25 -14.5 37.0 -17.0 M-32.5 -31.5 Q-29.4 -32.6 -26.75 -34.15 -25.05 -35.25 -23.2 -35.9 L-16.5 -38.35 Q-11.25 -40.2 -5.6 -40.9 L6.5 -40.35 Q15.75 -39.6 23.85 -35.15 L28.35 -32.55 Q35.4 -28.35 40.25 -21.7 41.3 -20.2 41.0 -18.5 41.3 -20.2 40.25 -21.7 35.4 -28.35 28.35 -32.55 L23.85 -35.15 Q15.75 -39.6 6.5 -40.35 L-5.6 -40.9 Q-11.25 -40.2 -16.5 -38.35 L-23.2 -35.9 Q-25.05 -35.25 -26.75 -34.15 -29.4 -32.6 -32.5 -31.5 M-52.45 -39.05 Q-50.1 -39.25 -45.6 -37.25 -41.15 -35.25 -34.5 -31.8 -31.75 -32.6 -21.2 -38.45 -10.65 -44.3 10.4 -41.8 30.3 -39.7 43.45 -21.05 L43.85 -12.7 Q44.8 10.45 42.9 33.45 L40.0 30.0 39.05 35.85 38.1 35.7 37.0 32.0 Q37.15 33.85 36.95 35.55 36.35 40.45 32.5 43.5 29.75 35.25 32.45 27.15 L33.15 25.25 34.2 22.9 Q37.8 15.9 36.05 8.45 33.75 -1.3 28.05 7.4 L28.0 8.0 25.55 12.7 Q23.75 14.25 22.7 16.9 21.65 19.55 21.6 11.55 L21.5 -8.5 Q21.5 -20.55 -10.2 -14.3 -18.65 -7.85 -30.0 -7.3 L-33.75 -7.3 Q-47.5 -7.85 -52.45 -39.05 M-39.0 -23.0 Q-36.75 -20.5 -34.05 -18.7 -32.25 -17.5 -30.0 -17.0 -32.25 -17.5 -34.05 -18.7 -36.75 -20.5 -39.0 -23.0 M-14.5 -14.5 Q-20.55 -10.3 -29.45 -9.45 -38.4 -8.65 -43.0 -14.35 -47.6 -20.05 -50.5 -37.0 -47.6 -20.05 -43.0 -14.35 -38.4 -8.65 -29.45 -9.45 -20.55 -10.3 -14.5 -14.5 M-45.0 -24.5 Q-44.75 -23.0 -44.05 -21.8 -42.25 -18.75 -39.6 -16.45 -34.7 -12.1 -28.5 -13.0 -34.7 -12.1 -39.6 -16.45 -42.25 -18.75 -44.05 -21.8 -44.75 -23.0 -45.0 -24.5" fill="url(#gradient0)" fill-rule="evenodd" stroke="none"/>
      <path d="M-52.45 -39.05 Q-47.5 -7.85 -33.75 -7.3 L-30.0 -7.3" fill="none" stroke="#000000" stroke-linecap="round" stroke-linejoin="round" stroke-width="2.0"/>
      <path d="M39.05 35.85 L40.0 30.0 42.9 33.45 Q44.8 10.45 43.85 -12.7 L43.45 -21.05 Q30.3 -39.7 10.4 -41.8 -10.65 -44.3 -21.2 -38.45 -31.75 -32.6 -34.5 -31.8 -41.15 -35.25 -45.6 -37.25 -50.1 -39.25 -52.45 -39.05 M28.05 7.4 Q33.75 -1.3 36.05 8.45 37.8 15.9 34.2 22.9 L33.15 25.25 M32.5 43.5 Q36.35 40.45 36.95 35.55 37.15 33.85 37.0 32.0 L38.1 35.7 38.7 37.9 39.05 35.85" fill="none" stroke="#000000" stroke-linecap="round" stroke-linejoin="round" stroke-width="2.0"/>
      <path d="M41.0 -18.5 Q41.3 -20.2 40.25 -21.7 35.4 -28.35 28.35 -32.55 L23.85 -35.15 Q15.75 -39.6 6.5 -40.35 L-5.6 -40.9 Q-11.25 -40.2 -16.5 -38.35 L-23.2 -35.9 Q-25.05 -35.25 -26.75 -34.15 -29.4 -32.6 -32.5 -31.5 M37.0 -7.5 L37.25 -14.5 37.0 -17.0 M19.5 -17.5 Q24.3 -13.75 23.95 -7.5 L23.95 -7.05 23.5 11.0 M26.0 -0.5 Q29.9 -8.95 26.4 -17.45 L26.0 -18.0 M31.0 -3.0 Q31.55 -9.8 30.85 -16.5 L30.5 -18.5 M-28.5 -13.0 Q-34.7 -12.1 -39.6 -16.45 -42.25 -18.75 -44.05 -21.8 -44.75 -23.0 -45.0 -24.5 M-50.5 -37.0 Q-47.6 -20.05 -43.0 -14.35 -38.4 -8.65 -29.45 -9.45 -20.55 -10.3 -14.5 -14.5 M-30.0 -17.0 Q-32.25 -17.5 -34.05 -18.7 -36.75 -20.5 -39.0 -23.0" fill="none" stroke="#ffffcc" stroke-linecap="round" stroke-linejoin="round" stroke-width="2.0"/>
      <path d="M-30.0 -7.3 Q-18.65 -7.85 -10.2 -14.3 21.5 -20.55 21.5 -8.5 L21.6 11.55 Q21.65 19.55 22.7 16.9 23.75 14.25 25.55 12.7 L28.0 8.0 M33.15 25.25 L32.45 27.15 Q29.75 35.25 32.5 43.5" fill="none" stroke="#dfa062" stroke-linecap="round" stroke-linejoin="round" stroke-width="2.0"/>
    </g>
    </g>
  </g>
  <defs>
    <linearGradient gradientTransform="matrix(0.0145, 0.0561, -0.0504, 0.0131, 35.15, 13.8)" gradientUnits="userSpaceOnUse" id="gradient0" spreadMethod="pad" x1="-819.2" x2="819.2">
      <stop offset="0.0" stop-color="#fedb74"/>
      <stop offset="0.23921568627450981" stop-color="#fff5e6"/>
      <stop offset="0.4470588235294118" stop-color="#fedb74"/>
      <stop offset="1.0" stop-color="#fedb74"/>
    </linearGradient>
  </defs>
</svg>