<svg xmlns:xlink="http://www.w3.org/1999/xlink" xmlns="http://www.w3.org/2000/svg" height="264.15px" width="342.25px">
  <g transform="matrix(1.0, 0.0, 0.0, 1.0, 243.25, 83.7)">
    <g data-characterId="1138" height="169.75" transform="matrix(1.0, 0.0, 0.0, 1.0, -56.9, -43.95)" width="143.4" xlink:href="#shape0"><g id="shape0" transform="matrix(1.0, 0.0, 0.0, 1.0, 56.9, 43.95)">
      <path d="M5.6 -40.7 L10.8 -42.1 Q15.05 -43.6 18.45 -40.4 L21.25 -37.85 Q24.45 -35.1 28.8 -35.15 31.4 -34.75 32.85 -32.65 34.4 -30.55 35.3 -28.2 L36.6 -24.15 37.1 -22.45 Q37.6 -20.9 38.5 -19.5 40.05 -17.05 40.85 -14.1 41.6 -11.3 40.2 -9.0 L39.65 -8.1 37.95 -9.45 35.75 -11.1 32.35 -13.7 Q26.25 -19.35 12.9 -23.95 -0.45 -28.55 -19.85 -25.45 L-33.15 -24.05 -33.4 -25.05 -33.75 -25.5 Q-33.8 -28.6 -29.75 -31.5 -25.7 -34.4 -22.55 -37.25 -19.4 -40.15 -17.65 -40.35 -15.9 -40.55 -15.35 -40.95 L-13.9 -41.7 Q-8.8 -43.3 -3.45 -42.65 -1.05 -42.45 1.05 -43.45 L3.15 -42.65 4.2 -42.1 5.6 -40.0 5.6 -40.7 M32.05 -31.65 L31.0 -31.8 Q27.95 -31.8 25.15 -33.2 L18.75 -36.05 15.75 -37.3 Q13.1 -38.45 10.8 -36.85 13.1 -38.45 15.75 -37.3 L18.75 -36.05 25.15 -33.2 Q27.95 -31.8 31.0 -31.8 L32.05 -31.65 M20.55 -28.5 Q23.1 -27.35 24.9 -25.35 L28.55 -20.85 Q29.75 -19.35 29.95 -17.4 29.75 -19.35 28.55 -20.85 L24.9 -25.35 Q23.1 -27.35 20.55 -28.5 M9.05 -38.25 L7.75 -37.45 6.65 -36.5 7.75 -37.45 9.05 -38.25 M5.6 -32.7 L4.9 -32.0 5.6 -32.7 M7.7 -30.6 L6.7 -30.15 4.2 -28.5 6.7 -30.15 7.7 -30.6 M2.1 -36.5 L5.25 -36.85 2.1 -36.5 M28.55 -23.65 Q26.55 -28.3 21.9 -30.45 L17.45 -32.5 Q13.7 -34.3 9.75 -33.05 13.7 -34.3 17.45 -32.5 L21.9 -30.45 Q26.55 -28.3 28.55 -23.65 M8.5 -8.25 Q8.55 -7.9 7.65 -7.85 L4.45 -7.3 -0.05 -6.25 -4.1 -5.25 Q-6.0 -4.8 -7.2 -3.95 -8.45 -3.15 -11.45 -2.3 L-16.9 -0.65 Q-19.3 0.1 -21.0 0.3 -27.95 1.75 -32.15 7.5 L-32.75 11.35 Q-32.65 13.1 -32.9 14.8 -33.1 16.5 -33.65 18.2 L-33.55 22.4 Q-33.35 24.8 -32.75 27.2 L-32.0 30.15 -30.3 35.9 Q-28.25 42.0 -27.15 48.25 L-26.15 53.35 -25.95 54.15 -26.9 57.15 -25.15 56.55 -23.9 59.75 -22.5 61.6 Q-21.45 62.65 -20.1 63.3 L-13.0 65.6 Q-13.2 69.25 -14.15 72.95 L-14.7 73.9 Q-15.85 75.2 -17.55 76.05 L-18.1 75.55 -18.5 74.5 -18.7 73.45 -18.85 72.9 Q-19.4 72.75 -20.05 73.7 -21.35 75.55 -23.1 77.15 -27.05 80.7 -32.05 82.4 -30.75 81.35 -30.15 80.1 -29.6 79.0 -29.55 78.0 L-29.9 77.3 Q-33.85 81.5 -38.9 84.5 -42.8 86.7 -47.1 88.65 -50.35 90.05 -52.55 92.6 -50.65 90.35 -50.9 87.4 -51.15 84.3 -50.8 81.05 -50.6 78.85 -49.6 76.9 L-49.6 76.45 -50.1 75.9 Q-53.7 77.05 -56.4 79.7 -55.9 72.2 -51.15 66.45 L-46.9 61.7 Q-39.7 54.65 -36.3 45.3 L-36.3 45.25 -35.75 43.6 Q-34.5 39.65 -35.05 35.7 L-35.6 33.2 -35.85 32.15 -36.45 33.35 -37.15 34.55 Q-37.6 35.4 -37.65 36.35 -37.8 40.55 -37.25 44.9 L-39.85 40.75 -40.25 39.55 Q-40.65 36.8 -39.7 34.1 -39.15 32.6 -39.25 31.0 -39.4 27.65 -41.6 24.95 -42.35 24.05 -41.95 23.05 L-40.4 19.45 -39.55 17.5 Q-38.75 15.6 -39.25 13.6 L-40.0 10.65 Q-40.4 9.15 -40.25 7.75 -40.15 6.85 -39.7 6.15 L-38.35 4.5 -37.15 2.85 Q-36.9 2.35 -37.0 1.8 L-37.35 -1.0 Q-37.25 -2.2 -35.95 -2.7 L-35.9 -2.55 -35.85 -2.6 Q-34.25 -4.3 -32.4 -5.0 -29.5 -5.9 -22.65 -6.75 L-17.0 -7.75 -6.05 -9.0 1.35 -9.45 6.3 -9.05 8.5 -8.25 M13.95 -6.15 Q18.25 -5.35 22.75 -3.35 L28.15 -1.45 Q29.95 -0.75 31.75 -0.5 33.55 -0.25 35.55 -0.45 L41.0 0.05 41.45 0.75 42.05 2.15 Q42.95 4.9 45.4 6.6 47.0 7.85 48.25 9.5 49.25 10.8 50.75 13.85 L51.75 16.7 Q52.1 18.45 52.0 20.25 51.75 23.6 52.15 25.15 52.55 26.7 53.25 28.05 L57.75 36.0 58.85 38.3 Q59.7 40.55 59.6 43.25 L59.3 46.2 57.5 55.7 Q56.65 59.95 58.2 63.55 59.15 65.85 61.05 67.85 L65.0 71.85 Q70.0 76.7 70.1 83.75 L69.8 85.4 69.1 86.9 67.4 83.0 Q65.95 79.45 63.05 76.95 66.75 85.75 65.45 95.55 64.0 106.1 59.35 115.65 L59.25 115.65 Q58.95 112.7 59.45 109.8 59.8 107.6 59.5 105.4 59.15 102.6 58.45 99.9 56.9 94.15 52.55 90.1 55.1 96.25 55.6 103.3 55.9 107.65 54.7 111.75 53.9 114.35 52.4 116.9 L51.1 118.75 46.95 123.45 45.3 124.85 44.25 125.3 Q46.6 121.95 46.05 117.9 45.15 111.25 41.1 106.15 42.45 109.0 42.2 112.1 L41.9 115.0 Q41.55 119.15 38.3 121.8 39.8 114.55 30.85 104.6 21.85 94.65 24.4 76.65 26.9 58.6 20.95 43.05 L17.9 38.3 Q17.45 37.6 16.0 32.25 14.5 26.9 16.3 20.25 17.95 13.95 17.2 7.4 15.95 -3.45 13.95 -6.15 M30.65 -24.7 L31.65 -23.8 Q34.4 -20.9 33.8 -16.7 34.4 -20.9 31.65 -23.8 L30.65 -24.7 M23.7 -19.8 L22.6 -21.15 Q18.25 -26.0 12.2 -28.5 18.25 -26.0 22.6 -21.15 L23.7 -19.8 M32.35 -13.7 L32.25 -15.95 31.35 -17.4 32.25 -15.95 32.35 -13.7 M40.7 3.5 L41.3 5.6 Q41.8 7.8 41.05 9.75 41.8 7.8 41.3 5.6 L40.7 3.5 M43.55 12.55 Q43.4 14.8 44.05 17.0 44.75 19.35 45.9 21.4 L48.6 25.85 51.35 30.2 Q54.75 35.4 54.7 41.45 54.65 47.55 54.2 53.6 L54.0 54.3 54.2 53.6 Q54.65 47.55 54.7 41.45 54.75 35.4 51.35 30.2 L48.6 25.85 45.9 21.4 Q44.75 19.35 44.05 17.0 43.4 14.8 43.55 12.55 M41.8 48.75 L41.55 47.7 Q40.45 40.7 34.45 37.75 28.4 34.75 27.05 31.55 25.65 28.3 25.65 25.25 L25.4 20.5 Q24.9 17.2 25.65 13.9 L25.9 11.15 Q25.8 9.95 26.8 10.1 25.8 9.95 25.9 11.15 L25.65 13.9 Q24.9 17.2 25.4 20.5 L25.65 25.25 Q25.65 28.3 27.05 31.55 28.4 34.75 34.45 37.75 40.45 40.7 41.55 47.7 L41.8 48.75 M41.45 23.0 Q41.8 25.45 42.55 27.7 43.4 30.15 44.6 32.4 45.8 34.65 46.3 37.05 L49.1 50.5 46.3 37.05 Q45.8 34.65 44.6 32.4 43.4 30.15 42.55 27.7 41.8 25.45 41.45 23.0 M49.45 36.2 Q51.95 39.45 52.05 43.5 L52.1 49.15 Q52.05 50.9 51.6 52.6 L50.3 57.55 Q48.55 63.55 49.8 69.95 48.55 63.55 50.3 57.55 L51.6 52.6 Q52.05 50.9 52.1 49.15 L52.05 43.5 Q51.95 39.45 49.45 36.2 M29.6 15.7 Q29.4 18.4 29.9 21.0 30.8 25.5 33.5 29.0 34.65 30.5 36.15 31.8 39.0 34.4 41.5 37.5 43.2 39.55 44.0 42.1 45.2 46.2 44.95 50.5 45.2 46.2 44.0 42.1 43.2 39.55 41.5 37.5 39.0 34.4 36.15 31.8 34.65 30.5 33.5 29.0 30.8 25.5 29.9 21.0 29.4 18.4 29.6 15.7 M38.05 7.3 Q37.85 9.25 37.25 11.15 37.85 9.25 38.05 7.3 L38.1 5.55 Q38.1 4.9 38.25 4.2 38.1 4.9 38.1 5.55 L38.05 7.3 38.0 5.95 37.6 4.2 38.0 5.95 38.05 7.3 Q38.05 13.45 36.55 19.5 38.05 13.45 38.05 7.3 M24.0 9.05 L23.65 11.15 22.75 14.9 22.25 15.65 22.75 14.9 23.65 11.15 24.0 9.05 M28.85 7.65 L28.45 9.05 27.15 13.9 28.45 9.05 28.85 7.65 M33.4 5.2 L33.35 5.9 31.3 14.6 33.35 5.9 33.4 5.2 M19.45 9.75 Q19.35 14.4 18.1 18.8 19.35 14.4 19.45 9.75 M30.4 48.55 Q22.85 45.25 22.1 44.45 L20.95 43.05 22.1 44.45 Q22.85 45.25 30.4 48.55 M37.25 108.95 L36.7 108.2 33.5 100.25 Q32.85 98.35 32.55 96.4 L32.25 93.65 Q31.55 86.8 32.75 80.05 L33.25 78.35 34.55 74.85 Q36.65 68.35 37.25 61.6 37.5 59.3 36.75 57.15 L36.55 56.4 36.75 57.15 Q37.5 59.3 37.25 61.6 36.65 68.35 34.55 74.85 L33.25 78.35 32.75 80.05 Q31.55 86.8 32.25 93.65 L32.55 96.4 Q32.85 98.35 33.5 100.25 L36.7 108.2 37.25 108.95 M26.1 52.55 Q27.95 58.8 27.7 65.45 L27.65 67.5 27.2 72.4 26.4 79.7 Q26.15 83.1 26.8 86.3 26.15 83.1 26.4 79.7 L27.2 72.4 27.65 67.5 27.7 65.45 Q27.95 58.8 26.1 52.55 M39.35 52.2 Q37.15 45.95 33.2 45.45 29.2 44.9 22.7 38.0 16.15 31.05 21.25 7.65 16.15 31.05 22.7 38.0 29.2 44.9 33.2 45.45 37.15 45.95 39.35 52.2 M38.3 74.5 L38.05 76.3 Q37.55 82.25 40.4 87.7 37.55 82.25 38.05 76.3 L38.3 74.5 M61.65 100.25 L61.0 97.8 59.75 92.65 Q58.85 89.15 56.95 86.1 56.05 84.6 54.75 83.45 52.2 81.15 50.05 78.4 47.85 75.55 48.4 72.4 47.85 75.55 50.05 78.4 52.2 81.15 54.75 83.45 56.05 84.6 56.95 86.1 58.85 89.15 59.75 92.65 L61.0 97.8 61.65 100.25 M51.2 113.45 Q52.7 108.55 51.4 103.65 L49.6 97.05 48.2 92.2 Q46.3 86.05 44.0 79.8 42.55 75.95 42.35 72.0 42.3 70.45 42.5 68.85 L43.9 58.85 42.5 68.85 Q42.3 70.45 42.35 72.0 42.55 75.95 44.0 79.8 46.3 86.05 48.2 92.2 L49.6 97.05 51.4 103.65 Q52.7 108.55 51.2 113.45 M54.35 62.3 Q54.35 64.75 54.75 67.15 55.85 73.3 59.25 78.65 L61.05 81.9 62.7 86.3 Q63.75 89.65 63.05 92.95 63.75 89.65 62.7 86.3 L61.05 81.9 59.25 78.65 Q55.85 73.3 54.75 67.15 54.35 64.75 54.35 62.3 M62.35 73.45 Q59.8 70.6 58.75 66.85 58.35 65.3 58.2 63.55 58.35 65.3 58.75 66.85 59.8 70.6 62.35 73.45 M-28.9 -27.15 L-27.85 -27.85 Q-24.7 -30.05 -21.25 -31.65 -14.65 -34.7 -8.0 -32.0 -14.65 -34.7 -21.25 -31.65 -24.7 -30.05 -27.85 -27.85 L-28.9 -27.15 M-2.0 -36.2 L-1.4 -35.15 -2.0 -36.2 M-4.85 -33.4 L-4.55 -32.7 -4.15 -31.65 -4.55 -32.7 -4.85 -33.4 M-12.5 -30.25 Q-15.6 -29.95 -17.55 -28.4 -19.5 -26.85 -19.85 -25.45 -19.5 -26.85 -17.55 -28.4 -15.6 -29.95 -12.5 -30.25 M-12.15 -37.2 L-9.35 -38.0 -1.05 -37.55 -9.35 -38.0 -12.15 -37.2 M48.05 116.95 Q48.2 113.25 47.65 111.35 46.8 108.55 45.25 106.25 38.05 95.5 35.9 83.55 38.05 95.5 45.25 106.25 46.8 108.55 47.65 111.35 48.2 113.25 48.05 116.95 M-28.55 -2.75 L-30.9 -2.25 Q-31.85 -1.4 -32.4 0.3 L-34.55 2.65 -34.8 3.5 Q-34.65 6.85 -36.1 9.8 L-36.65 11.85 -36.4 13.15 Q-35.1 15.55 -36.55 18.1 L-37.8 20.6 -38.45 23.0 Q-38.9 26.3 -38.3 29.6 -38.9 26.3 -38.45 23.0 L-37.8 20.6 -36.55 18.1 Q-35.1 15.55 -36.4 13.15 L-36.65 11.85 -36.1 9.8 Q-34.65 6.85 -34.8 3.5 L-34.55 2.65 -32.4 0.3 Q-31.85 -1.4 -30.9 -2.25 L-28.55 -2.75 M-10.8 -4.15 L-11.45 -4.3 -15.3 -4.2 -20.85 -3.75 Q-24.8 -3.4 -26.45 -0.35 -24.8 -3.4 -20.85 -3.75 L-15.3 -4.2 -11.45 -4.3 -10.8 -4.15 M-35.2 3.15 L-36.4 5.3 Q-37.6 8.1 -37.6 11.15 -37.6 8.1 -36.4 5.3 L-35.2 3.15 M-33.1 4.85 Q-33.6 5.9 -33.7 7.0 -33.85 9.15 -34.5 11.15 -33.85 9.15 -33.7 7.0 -33.6 5.9 -33.1 4.85 M-35.85 32.15 Q-35.15 29.9 -35.8 27.5 -36.45 24.95 -35.6 22.4 L-34.45 19.6 -33.65 18.2 -34.45 19.6 -35.6 22.4 Q-36.45 24.95 -35.8 27.5 -35.15 29.9 -35.85 32.15 M-16.7 67.2 L-17.15 68.55 -18.1 70.65 -17.15 68.55 -16.7 67.2 M-29.25 47.7 Q-31.45 53.1 -34.85 57.8 L-39.8 64.3 Q-43.35 68.75 -46.0 73.8 -48.8 79.15 -47.35 84.95 -48.8 79.15 -46.0 73.8 -43.35 68.75 -39.8 64.3 L-34.85 57.8 Q-31.45 53.1 -29.25 47.7 M-50.45 71.0 L-50.15 69.95 Q-49.75 68.6 -49.05 67.4 L-46.95 64.8 Q-42.35 60.45 -38.65 55.35 -34.55 49.65 -33.15 42.8 -32.7 40.55 -32.7 38.3 -32.65 35.4 -32.0 32.75 -32.65 35.4 -32.7 38.3 -32.7 40.55 -33.15 42.8 -34.55 49.65 -38.65 55.35 -42.35 60.45 -46.95 64.8 L-49.05 67.4 Q-49.75 68.6 -50.15 69.95 L-50.45 71.0 M-29.6 57.1 Q-33.25 61.95 -36.1 67.25 L-40.7 76.25 -36.1 67.25 Q-33.25 61.95 -29.6 57.1 M-24.35 64.05 L-25.2 66.1 -28.9 74.15 -25.2 66.1 -24.35 64.05 M-1.0 -32.35 L0.4 -33.0 -1.0 -32.35 M-21.2 67.2 L-20.1 63.3 -21.2 67.2 M-33.4 69.3 Q-29.15 63.75 -26.9 57.15 -29.15 63.75 -33.4 69.3" fill="url(#gradient0)" fill-rule="evenodd" stroke="none"/>
      <path d="M40.2 -9.0 L41.05 -3.8 42.5 -4.15 Q42.65 -5.6 44.0 -6.75 49.6 -11.65 57.3 -11.1 L64.85 -10.5 Q69.5 -10.55 73.5 -12.85 L73.2 -11.3 Q72.2 -8.6 70.25 -6.65 67.4 -3.65 63.4 -3.35 L58.5 -3.6 Q57.1 -3.55 56.25 -1.95 58.5 -1.1 60.65 0.35 62.05 1.3 63.3 2.45 67.95 6.75 69.95 12.85 L73.55 23.25 76.55 30.65 Q77.0 31.75 77.7 32.65 L79.85 35.2 Q81.95 37.5 84.85 37.15 82.05 38.5 78.7 39.05 75.45 39.3 72.5 37.85 L70.15 36.3 Q67.05 33.65 65.45 29.75 L62.55 22.9 Q61.5 20.5 59.55 18.9 56.55 16.45 52.6 16.4 L51.75 16.7 50.75 13.85 Q49.25 10.8 48.25 9.5 47.0 7.85 45.4 6.6 42.95 4.9 42.05 2.15 L41.45 0.75 41.4 0.05 41.35 -0.35 41.3 -1.0 41.05 -3.8 41.3 -1.0 41.35 -0.35 41.4 0.05 41.45 0.75 41.0 0.05 35.55 -0.45 Q33.55 -0.25 31.75 -0.5 29.95 -0.75 28.15 -1.45 L22.75 -3.35 Q18.25 -5.35 13.95 -6.15 L12.05 -6.9 11.85 -6.95 8.5 -8.25 6.3 -9.05 1.35 -9.45 -6.05 -9.0 -17.0 -7.75 -22.65 -6.75 Q-29.5 -5.9 -32.4 -5.0 -34.25 -4.3 -35.85 -2.6 L-35.95 -2.7 -38.55 -9.35 Q-38.85 -10.15 -38.65 -10.95 L-38.35 -11.8 Q-37.0 -15.7 -35.7 -20.85 -35.4 -22.05 -34.35 -23.25 -33.75 -23.85 -33.15 -24.05 L-19.85 -25.45 Q-0.45 -28.55 12.9 -23.95 26.25 -19.35 32.35 -13.7 L35.75 -11.1 37.95 -9.45 39.65 -8.1 39.8 -8.0 40.2 -9.0 M39.8 -8.0 L40.15 -7.25 41.05 -0.35 41.0 0.05 41.05 -0.35 40.15 -7.25 39.8 -8.0 M38.65 -1.0 L37.9 -0.65 35.2 -2.4 37.9 -0.65 38.65 -1.0 M35.9 -7.3 L38.3 -6.25 35.9 -7.3 M33.7 -10.1 Q28.95 -15.15 25.2 -17.0 21.45 -18.85 16.2 -20.65 10.95 -22.5 -2.2 -24.3 L-32.75 -22.25 -2.2 -24.3 Q10.95 -22.5 16.2 -20.65 21.45 -18.85 25.2 -17.0 28.95 -15.15 33.7 -10.1 M56.25 -1.95 Q52.35 -3.5 48.0 -3.45 L44.2 -3.0 42.6 -2.55 42.15 -0.65 43.2 0.4 42.05 2.15 43.2 0.4 42.15 -0.65 42.6 -2.55 42.5 -4.15 42.6 -2.55 44.2 -3.0 48.0 -3.45 Q52.35 -3.5 56.25 -1.95 M43.9 -4.15 L46.0 -5.2 43.9 -4.15 M49.75 -0.35 L52.7 0.35 Q58.65 1.4 62.8 5.8 L63.95 7.35 Q65.4 9.95 66.35 12.55 L67.5 15.8 70.4 23.65 Q72.55 29.3 76.55 33.75 72.55 29.3 70.4 23.65 L67.5 15.8 66.35 12.55 Q65.4 9.95 63.95 7.35 L62.8 5.8 Q58.65 1.4 52.7 0.35 L49.75 -0.35 M70.3 -9.75 Q68.6 -8.1 64.55 -8.5 56.6 -10.75 49.4 -8.0 56.6 -10.75 64.55 -8.5 68.6 -8.1 70.3 -9.75 M43.9 0.35 L44.8 0.1 Q46.55 -0.2 48.05 0.7 46.55 -0.2 44.8 0.1 L43.9 0.35 M44.95 2.45 L47.35 4.2 44.95 2.45 M-36.25 -8.85 L-36.35 -12.0 -36.2 -14.85 -35.75 -16.35 -34.95 -18.0 -33.45 -21.9 -34.95 -18.0 -35.75 -16.35 -36.2 -14.85 -36.35 -12.0 -36.25 -8.85 -33.1 -10.05 -36.25 -8.85 -37.6 -8.35 -36.25 -8.85 -35.2 -6.95 -36.25 -8.85 M-36.0 -16.5 L-35.75 -16.35 Q-35.15 -16.15 -34.45 -16.7 -35.15 -16.15 -35.75 -16.35 L-36.0 -16.5 M-8.65 -14.6 L-7.4 -13.9 -8.6 -16.65 -7.0 -20.65 -10.7 -18.3 -14.95 -21.55 -13.9 -17.4 -17.75 -17.75 -17.4 -15.65 -13.1 -14.3 -12.7 -13.7 -12.7 -11.7 -11.25 -13.55 -10.05 -11.45 -9.35 -14.25 -8.65 -14.6" fill="url(#gradient1)" fill-rule="evenodd" stroke="none"/>
      <path d="M-35.85 -2.6 L-35.9 -2.55 -35.95 -2.7 -35.85 -2.6" fill="#81814f" fill-rule="evenodd" stroke="none"/>
      <path d="M-8.65 -14.6 L-9.35 -14.25 -10.05 -11.45 -11.25 -13.55 -12.7 -11.7 -12.7 -13.7 -13.1 -14.3 -17.4 -15.65 -17.75 -17.75 -13.9 -17.4 -14.95 -21.55 -10.7 -18.3 -7.0 -20.65 -8.6 -16.65 -7.4 -13.9 -8.65 -14.6 M-12.85 -16.7 L-10.75 -17.05 -12.85 -16.7" fill="#000000" fill-rule="evenodd" stroke="none"/>
      <path d="M5.6 -40.7 L10.8 -42.1 Q15.05 -43.6 18.45 -40.4 L21.25 -37.85 Q24.45 -35.1 28.8 -35.15 31.4 -34.75 32.85 -32.65 34.4 -30.55 35.3 -28.2 L36.6 -24.15 37.1 -22.45 Q37.6 -20.9 38.5 -19.5 40.05 -17.05 40.85 -14.1 41.6 -11.3 40.2 -9.0 L41.05 -3.8 42.5 -4.15 Q42.65 -5.6 44.0 -6.75 49.6 -11.65 57.3 -11.1 L64.85 -10.5 Q69.5 -10.55 73.5 -12.85 L73.2 -11.3 Q72.2 -8.6 70.25 -6.65 67.4 -3.65 63.4 -3.35 L58.5 -3.6 Q57.1 -3.55 56.25 -1.95 58.5 -1.1 60.65 0.35 62.05 1.3 63.3 2.45 67.95 6.75 69.95 12.85 L73.55 23.25 76.55 30.65 Q77.0 31.75 77.7 32.65 L79.85 35.2 Q81.95 37.5 84.85 37.15 L86.0 36.55 M-33.4 -25.05 L-33.75 -25.5 Q-33.8 -28.6 -29.75 -31.5 -25.7 -34.4 -22.55 -37.25 -19.4 -40.15 -17.65 -40.35 -15.9 -40.55 -15.35 -40.95 L-13.9 -41.7 Q-8.8 -43.3 -3.45 -42.65 -1.05 -42.45 1.05 -43.45 L3.15 -42.65 4.2 -42.1 5.6 -40.0 M8.5 -8.25 Q8.55 -7.9 7.65 -7.85 L4.45 -7.3 -0.05 -6.25 -4.1 -5.25 Q-6.0 -4.8 -7.2 -3.95 -8.45 -3.15 -11.45 -2.3 L-16.9 -0.65 Q-19.3 0.1 -21.0 0.3 -27.95 1.75 -32.15 7.5 L-32.75 11.35 Q-32.65 13.1 -32.9 14.8 -33.1 16.5 -33.65 18.2 L-33.55 22.4 Q-33.35 24.8 -32.75 27.2 L-32.0 30.15 -30.3 35.9 Q-28.25 42.0 -27.15 48.25 L-26.15 53.35 -25.95 54.15 -25.15 56.55 -23.9 59.75 -22.5 61.6 Q-21.45 62.65 -20.1 63.3 L-13.0 65.6 Q-13.2 69.25 -14.15 72.95 L-14.7 73.9 Q-15.85 75.2 -17.55 76.05 L-18.1 75.55 -18.5 74.5 -18.7 73.45 -18.85 72.9 Q-19.4 72.75 -20.05 73.7 -21.35 75.55 -23.1 77.15 -27.05 80.7 -32.05 82.4 -30.75 81.35 -30.15 80.1 -29.6 79.0 -29.55 78.0 L-29.9 77.3 Q-33.85 81.5 -38.9 84.5 -42.8 86.7 -47.1 88.65 -50.35 90.05 -52.55 92.6 -50.65 90.35 -50.9 87.4 -51.15 84.3 -50.8 81.05 -50.6 78.85 -49.6 76.9 L-49.6 76.45 -50.1 75.9 Q-53.7 77.05 -56.4 79.7 -55.9 72.2 -51.15 66.45 L-46.9 61.7 Q-39.7 54.65 -36.3 45.3 L-36.3 45.25 -35.75 43.6 Q-34.5 39.65 -35.05 35.7 L-35.6 33.2 -35.85 32.15 -36.45 33.35 -37.15 34.55 Q-37.6 35.4 -37.65 36.35 -37.8 40.55 -37.25 44.9 L-39.85 40.75 -40.25 39.55 Q-40.65 36.8 -39.7 34.1 -39.15 32.6 -39.25 31.0 -39.4 27.65 -41.6 24.95 -42.35 24.05 -41.95 23.05 L-40.4 19.45 -39.55 17.5 Q-38.75 15.6 -39.25 13.6 L-40.0 10.65 Q-40.4 9.15 -40.25 7.75 -40.15 6.85 -39.7 6.15 L-38.35 4.5 -37.15 2.85 Q-36.9 2.35 -37.0 1.8 L-37.35 -1.0 Q-37.25 -2.2 -35.95 -2.7 L-38.55 -9.35 Q-38.85 -10.15 -38.65 -10.95 L-38.35 -11.8 Q-37.0 -15.7 -35.7 -20.85 -35.4 -22.05 -34.35 -23.25 -33.75 -23.85 -33.15 -24.05 L-19.85 -25.45 Q-0.45 -28.55 12.9 -23.95 26.25 -19.35 32.35 -13.7 L35.75 -11.1 37.95 -9.45 39.65 -8.1 39.8 -8.0 40.15 -7.25 41.05 -0.35 41.0 0.05 35.55 -0.45 Q33.55 -0.25 31.75 -0.5 29.95 -0.75 28.15 -1.45 L22.75 -3.35 Q18.25 -5.35 13.95 -6.15 15.95 -3.45 17.2 7.4 17.95 13.95 16.3 20.25 14.5 26.9 16.0 32.25 17.45 37.6 17.9 38.3 L20.95 43.05 22.1 44.45 Q22.85 45.25 30.4 48.55 M-35.85 -2.6 Q-34.25 -4.3 -32.4 -5.0 -29.5 -5.9 -22.65 -6.75 L-17.0 -7.75 -6.05 -9.0 1.35 -9.45 6.3 -9.05 8.5 -8.25 11.85 -6.95 12.05 -6.9 13.95 -6.15 M40.2 -9.0 L39.8 -8.0 M38.3 -6.25 L35.9 -7.3 M35.2 -2.4 L37.9 -0.65 38.65 -1.0 M42.05 2.15 L43.2 0.4 42.15 -0.65 42.6 -2.55 42.5 -4.15 M42.6 -2.55 L44.2 -3.0 48.0 -3.45 Q52.35 -3.5 56.25 -1.95 M41.05 -3.8 L41.3 -1.0 41.35 -0.35 41.4 0.05 41.45 0.75 42.05 2.15 Q42.95 4.9 45.4 6.6 47.0 7.85 48.25 9.5 49.25 10.8 50.75 13.85 L51.75 16.7 Q52.1 18.45 52.0 20.25 51.75 23.6 52.15 25.15 52.55 26.7 53.25 28.05 L57.75 36.0 58.85 38.3 Q59.7 40.55 59.6 43.25 L59.3 46.2 57.5 55.7 Q56.65 59.95 58.2 63.55 59.15 65.85 61.05 67.85 L65.0 71.85 Q70.0 76.7 70.1 83.75 L69.8 85.4 69.1 86.9 67.4 83.0 Q65.95 79.45 63.05 76.95 66.75 85.75 65.45 95.55 64.0 106.1 59.35 115.65 L59.25 115.95 59.25 115.65 Q58.95 112.7 59.45 109.8 59.8 107.6 59.5 105.4 59.15 102.6 58.45 99.9 56.9 94.15 52.55 90.1 55.1 96.25 55.6 103.3 55.9 107.65 54.7 111.75 53.9 114.35 52.4 116.9 L51.1 118.75 46.95 123.45 45.3 124.85 44.25 125.3 Q46.6 121.95 46.05 117.9 45.15 111.25 41.1 106.15 42.45 109.0 42.2 112.1 L41.9 115.0 Q41.55 119.15 38.3 121.8 39.8 114.55 30.85 104.6 21.85 94.65 24.4 76.65 26.9 58.6 20.95 43.05 M52.6 16.4 Q56.55 16.45 59.55 18.9 61.5 20.5 62.55 22.9 L65.45 29.75 Q67.05 33.65 70.15 36.3 L72.5 37.85 Q75.45 39.3 78.7 39.05 82.05 38.5 84.85 37.15 M46.0 -5.2 L43.9 -4.15 M48.05 0.7 Q46.55 -0.2 44.8 0.1 L43.9 0.35 M47.35 4.2 L44.95 2.45 M-36.25 -8.85 L-33.1 -10.05 M-34.45 -16.7 Q-35.15 -16.15 -35.75 -16.35 L-36.0 -16.5 M-36.25 -8.85 L-37.6 -8.35 M-35.85 -2.6 L-35.9 -2.55 -35.95 -2.7 M-8.65 -14.6 L-7.4 -13.9 -8.6 -16.65 -7.0 -20.65 -10.7 -18.3 -14.95 -21.55 -13.9 -17.4 -17.75 -17.75 -17.4 -15.65 -13.1 -14.3 -12.7 -13.7 -12.7 -11.7 -11.25 -13.55 -10.05 -11.45 -9.35 -14.25 -8.65 -14.6 M-33.65 18.2 L-34.45 19.6 -35.6 22.4 Q-36.45 24.95 -35.8 27.5 -35.15 29.9 -35.85 32.15" fill="none" stroke="#000000" stroke-linecap="round" stroke-linejoin="round" stroke-width="2.0"/>
      <path d="M10.8 -36.85 Q13.1 -38.45 15.75 -37.3 L18.75 -36.05 25.15 -33.2 Q27.95 -31.8 31.0 -31.8 L32.05 -31.65 M6.65 -36.5 L7.75 -37.45 9.05 -38.25 M4.2 -28.5 L6.7 -30.15 7.7 -30.6 M4.9 -32.0 L5.6 -32.7 M9.75 -33.05 Q13.7 -34.3 17.45 -32.5 L21.9 -30.45 Q26.55 -28.3 28.55 -23.65 M31.35 -17.4 L32.25 -15.95 32.35 -13.7 M12.2 -28.5 Q18.25 -26.0 22.6 -21.15 L23.7 -19.8 M54.0 54.3 L54.2 53.6 Q54.65 47.55 54.7 41.45 54.75 35.4 51.35 30.2 L48.6 25.85 45.9 21.4 Q44.75 19.35 44.05 17.0 43.4 14.8 43.55 12.55 M49.1 50.5 L46.3 37.05 Q45.8 34.65 44.6 32.4 43.4 30.15 42.55 27.7 41.8 25.45 41.45 23.0 M26.8 10.1 Q25.8 9.95 25.9 11.15 L25.65 13.9 Q24.9 17.2 25.4 20.5 L25.65 25.25 Q25.65 28.3 27.05 31.55 28.4 34.75 34.45 37.75 40.45 40.7 41.55 47.7 L41.8 48.75 M38.05 7.3 L38.0 5.95 37.6 4.2 M36.55 19.5 Q38.05 13.45 38.05 7.3 M21.25 7.65 Q16.15 31.05 22.7 38.0 29.2 44.9 33.2 45.45 37.15 45.95 39.35 52.2 M26.8 86.3 Q26.15 83.1 26.4 79.7 L27.2 72.4 27.65 67.5 27.7 65.45 Q27.95 58.8 26.1 52.55 M36.55 56.4 L36.75 57.15 Q37.5 59.3 37.25 61.6 36.65 68.35 34.55 74.85 L33.25 78.35 32.75 80.05 Q31.55 86.8 32.25 93.65 L32.55 96.4 Q32.85 98.35 33.5 100.25 L36.7 108.2 37.25 108.95 M58.2 63.55 Q58.35 65.3 58.75 66.85 59.8 70.6 62.35 73.45 M63.05 92.95 Q63.75 89.65 62.7 86.3 L61.05 81.9 59.25 78.65 Q55.85 73.3 54.75 67.15 54.35 64.75 54.35 62.3 M43.9 58.85 L42.5 68.85 Q42.3 70.45 42.35 72.0 42.55 75.95 44.0 79.8 46.3 86.05 48.2 92.2 L49.6 97.05 51.4 103.65 Q52.7 108.55 51.2 113.45 M48.4 72.4 Q47.85 75.55 50.05 78.4 52.2 81.15 54.75 83.45 56.05 84.6 56.95 86.1 58.85 89.15 59.75 92.65 L61.0 97.8 61.65 100.25 M35.9 83.55 Q38.05 95.5 45.25 106.25 46.8 108.55 47.65 111.35 48.2 113.25 48.05 116.95 M-1.05 -37.55 L-9.35 -38.0 -12.15 -37.2 M-19.85 -25.45 Q-19.5 -26.85 -17.55 -28.4 -15.6 -29.95 -12.5 -30.25 M-4.15 -31.65 L-4.55 -32.7 -4.85 -33.4 M-1.4 -35.15 L-2.0 -36.2 M-8.0 -32.0 Q-14.65 -34.7 -21.25 -31.65 -24.7 -30.05 -27.85 -27.85 L-28.9 -27.15 M-26.45 -0.35 Q-24.8 -3.4 -20.85 -3.75 L-15.3 -4.2 -11.45 -4.3 -10.8 -4.15 M-38.3 29.6 Q-38.9 26.3 -38.45 23.0 L-37.8 20.6 -36.55 18.1 Q-35.1 15.55 -36.4 13.15 L-36.65 11.85 -36.1 9.8 Q-34.65 6.85 -34.8 3.5 L-34.55 2.65 -32.4 0.3 Q-31.85 -1.4 -30.9 -2.25 L-28.55 -2.75 M-32.0 32.75 Q-32.65 35.4 -32.7 38.3 -32.7 40.55 -33.15 42.8 -34.55 49.65 -38.65 55.35 -42.35 60.45 -46.95 64.8 L-49.05 67.4 Q-49.75 68.6 -50.15 69.95 L-50.45 71.0 M-47.35 84.95 Q-48.8 79.15 -46.0 73.8 -43.35 68.75 -39.8 64.3 L-34.85 57.8 Q-31.45 53.1 -29.25 47.7 M-18.1 70.65 L-17.15 68.55 -16.7 67.2 M-28.9 74.15 L-25.2 66.1 -24.35 64.05 M-40.7 76.25 L-36.1 67.25 Q-33.25 61.95 -29.6 57.1" fill="none" stroke="#ffcdbb" stroke-linecap="round" stroke-linejoin="round" stroke-width="1.5"/>
      <path d="M29.95 -17.4 Q29.75 -19.35 28.55 -20.85 L24.9 -25.35 Q23.1 -27.35 20.55 -28.5 M5.25 -36.85 L2.1 -36.5 M33.8 -16.7 Q34.4 -20.9 31.65 -23.8 L30.65 -24.7 M44.95 50.5 Q45.2 46.2 44.0 42.1 43.2 39.55 41.5 37.5 39.0 34.4 36.15 31.8 34.65 30.5 33.5 29.0 30.8 25.5 29.9 21.0 29.4 18.4 29.6 15.7 M49.8 69.95 Q48.55 63.55 50.3 57.55 L51.6 52.6 Q52.05 50.9 52.1 49.15 L52.05 43.5 Q51.95 39.45 49.45 36.2 M40.4 87.7 Q37.55 82.25 38.05 76.3 L38.3 74.5 M-25.95 54.15 L-26.9 57.15 Q-29.15 63.75 -33.4 69.3 M-20.1 63.3 L-21.2 67.2 M0.4 -33.0 L-1.0 -32.35" fill="none" stroke="#894401" stroke-linecap="round" stroke-linejoin="round" stroke-width="2.0"/>
      <path d="M-32.75 -22.25 L-2.2 -24.3 Q10.95 -22.5 16.2 -20.65 21.45 -18.85 25.2 -17.0 28.95 -15.15 33.7 -10.1 M49.4 -8.0 Q56.6 -10.75 64.55 -8.5 68.6 -8.1 70.3 -9.75 M76.55 33.75 Q72.55 29.3 70.4 23.65 L67.5 15.8 66.35 12.55 Q65.4 9.95 63.95 7.35 L62.8 5.8 Q58.65 1.4 52.7 0.35 L49.75 -0.35 M-35.75 -16.35 L-34.95 -18.0 -33.45 -21.9 M-35.75 -16.35 L-36.2 -14.85 -36.35 -12.0 -36.25 -8.85 -35.2 -6.95" fill="none" stroke="#739155" stroke-linecap="round" stroke-linejoin="round" stroke-width="1.5"/>
      <path d="M41.05 9.75 Q41.8 7.8 41.3 5.6 L40.7 3.5 M38.05 7.3 L38.1 5.55 Q38.1 4.9 38.25 4.2 M37.25 11.15 Q37.85 9.25 38.05 7.3 M31.3 14.6 L33.35 5.9 33.4 5.2 M27.15 13.9 L28.45 9.05 28.85 7.65 M22.25 15.65 L22.75 14.9 23.65 11.15 24.0 9.05 M18.1 18.8 Q19.35 14.4 19.45 9.75 M-34.5 11.15 Q-33.85 9.15 -33.7 7.0 -33.6 5.9 -33.1 4.85 M-37.6 11.15 Q-37.6 8.1 -36.4 5.3 L-35.2 3.15" fill="none" stroke="#ffefec" stroke-linecap="round" stroke-linejoin="round" stroke-width="1.5"/>
      <path d="M-10.75 -17.05 L-12.85 -16.7" fill="none" stroke="#00ff66" stroke-linecap="round" stroke-linejoin="round" stroke-width="2.0"/>
    </g>
    </g>
  </g>
  <defs>
    <radialGradient cx="0" cy="0" gradientTransform="matrix(0.2153, 0.0, 0.0, 0.1737, 0.0, -28.0)" gradientUnits="userSpaceOnUse" id="gradient0" r="819.2" spreadMethod="pad">
      <stop offset="0.0" stop-color="#954215"/>
      <stop offset="0.20392156862745098" stop-color="#e19f60"/>
      <stop offset="0.33725490196078434" stop-color="#f3d6c7"/>
      <stop offset="0.5176470588235295" stop-color="#b37e40"/>
      <stop offset="1.0" stop-color="#e1602f"/>
    </radialGradient>
    <linearGradient gradientTransform="matrix(0.0479, 0.0, 0.0, 0.0177, -4.5, -16.75)" gradientUnits="userSpaceOnUse" id="gradient1" spreadMethod="pad" x1="-819.2" x2="819.2">
      <stop offset="0.0" stop-color="#3d4d2d"/>
      <stop offset="0.5137254901960784" stop-color="#5a7443"/>
      <stop offset="1.0" stop-color="#39482b"/>
    </linearGradient>
  </defs>
</svg>