<svg xmlns:xlink="http://www.w3.org/1999/xlink" xmlns="http://www.w3.org/2000/svg" height="9.85px" width="16.9px">
  <g transform="matrix(1.0, 0.0, 0.0, 1.0, 6.65, 2.7)">
    <path d="M6.9 -2.05 Q9.7 -1.65 10.25 -0.1 L10.1 0.05 9.75 0.25 Q9.3 0.25 9.0 -0.05 L9.0 -0.1 4.75 -0.45 0.35 -0.6 0.2 -0.4 0.05 -0.25 -0.45 0.05 -0.55 0.1 -0.75 0.1 -1.0 0.05 -4.1 0.6 Q-4.9 0.85 -5.4 0.3 L-6.5 0.45 -6.65 0.3 -4.8 -1.1 -3.9 -1.7 -3.55 -2.15 Q-1.8 -1.55 -0.3 -2.6 L-0.1 -2.7 0.15 -2.65 2.15 -2.55 6.9 -2.05 M0.1 7.05 Q-2.75 7.65 -4.25 5.2 L-4.45 4.5 -4.45 4.15 -2.75 4.85 Q-1.1 5.5 1.4 5.4 3.9 5.3 3.6 5.65 L3.1 6.2 0.1 7.05" fill="#e6b380" fill-rule="evenodd" stroke="none"/>
  </g>
</svg>