<svg xmlns:xlink="http://www.w3.org/1999/xlink" xmlns="http://www.w3.org/2000/svg" height="264.15px" width="342.25px">
  <g transform="matrix(1.0, 0.0, 0.0, 1.0, 243.25, 83.7)">
    <g data-characterId="1151" height="111.5" transform="matrix(1.0, 0.0, 0.0, 1.0, -53.75, -44.25)" width="100.25" xlink:href="#shape0"><g id="shape0" transform="matrix(1.0, 0.0, 0.0, 1.0, 53.75, 44.25)">
      <path d="M-50.3 -8.25 Q-43.85 -13.15 -39.55 -20.2 -46.5 -19.55 -53.25 -21.0 -48.45 -21.85 -43.85 -24.2 -32.95 -29.8 -23.3 -37.6 -15.95 -43.5 -6.25 -43.7 8.2 -44.3 21.75 -39.25 L21.5 -42.25 23.45 -40.45 25.0 -38.5 25.45 -37.75 26.15 -38.15 27.0 -39.75 28.35 -35.05 30.65 -35.7 Q34.2 -36.3 37.5 -35.0 L34.3 -33.55 34.05 -33.45 31.75 -32.0 Q33.3 -32.8 34.85 -32.35 L36.9 -31.65 Q38.35 -30.9 39.4 -29.9 41.95 -27.65 41.25 -25.0 L40.85 -25.7 40.4 -26.35 39.8 -26.85 39.15 -27.4 38.5 -27.75 38.75 -27.2 Q41.15 -21.3 43.85 -15.45 46.85 -9.05 45.7 -2.0 44.15 7.05 41.7 15.85 L41.3 15.75 38.5 22.5 Q35.1 30.1 32.5 38.0 31.7 33.5 32.9 29.1 35.5 19.75 36.45 10.2 36.95 5.3 33.55 1.5 32.4 1.0 31.35 1.7 L30.65 2.15 Q28.8 3.7 28.25 5.85 L27.45 8.5 26.0 8.0 21.0 19.5 Q20.2 10.55 23.3 2.1 25.65 -4.25 22.4 -9.85 L20.15 -9.2 Q16.4 -9.35 12.95 -7.95 6.6 -5.55 -1.3 -3.65 -8.7 -1.95 -17.9 -2.1 L-17.95 -3.35 -17.05 -4.35 -15.5 -6.75 -17.5 -5.4 -26.7 0.6 Q-35.3 6.1 -41.0 7.95 L-41.35 6.6 Q-36.05 2.2 -35.25 -3.75 L-49.5 5.5 Q-47.95 -3.95 -40.75 -10.0 L-50.15 -7.65 -50.3 -8.25 M33.0 0.5 Q32.7 -3.65 31.9 -7.75 31.25 -11.0 30.1 -14.1 29.55 -15.5 28.35 -16.35 29.55 -15.5 30.1 -14.1 31.25 -11.0 31.9 -7.75 32.7 -3.65 33.0 0.5 M25.25 6.75 L25.4 5.0 25.5 -4.75 Q25.5 -8.95 24.5 -13.0 L24.15 -13.75 24.0 -13.5 24.15 -13.75 24.5 -13.0 Q25.5 -8.95 25.5 -4.75 L25.4 5.0 25.25 6.75 M30.0 -15.0 L29.75 -16.5 28.95 -19.9 Q28.5 -21.35 27.5 -22.55 L26.75 -23.0 27.5 -22.55 Q28.5 -21.35 28.95 -19.9 L29.75 -16.5 30.0 -15.0 M34.75 -15.5 L34.45 -18.45 Q33.9 -21.0 32.6 -23.3 L31.0 -25.25 32.6 -23.3 Q33.9 -21.0 34.45 -18.45 L34.75 -15.5 M12.5 -16.0 Q11.15 -15.0 9.65 -14.15 5.75 -11.85 1.65 -9.95 -2.5 -8.0 -6.85 -6.55 -9.75 -5.6 -12.8 -5.2 -13.9 -5.05 -14.25 -5.5 -13.9 -5.05 -12.8 -5.2 -9.75 -5.6 -6.85 -6.55 -2.5 -8.0 1.65 -9.95 5.75 -11.85 9.65 -14.15 11.15 -15.0 12.5 -16.0 M20.5 -26.5 L12.25 -27.7 6.5 -28.2 0.55 -27.75 -5.45 -26.3 -10.4 -24.35 -15.25 -21.75 -10.4 -24.35 -5.45 -26.3 0.55 -27.75 6.5 -28.2 12.25 -27.7 20.5 -26.5 M11.25 -37.0 L2.8 -36.65 -4.4 -35.45 Q-8.35 -34.35 -12.15 -32.8 -15.35 -31.5 -18.4 -29.8 -20.85 -28.35 -23.1 -26.55 L-27.6 -22.35 -28.5 -21.0 -27.6 -22.35 -23.1 -26.55 Q-20.85 -28.35 -18.4 -29.8 -15.35 -31.5 -12.15 -32.8 -8.35 -34.35 -4.4 -35.45 L2.8 -36.65 11.25 -37.0 M-12.75 -36.25 L-11.45 -36.95 Q-8.5 -38.35 -5.4 -39.4 -2.1 -40.5 1.3 -40.75 L7.25 -40.6 15.5 -39.0 7.25 -40.6 1.3 -40.75 Q-2.1 -40.5 -5.4 -39.4 -8.5 -38.35 -11.45 -36.95 L-12.75 -36.25 M-12.5 -16.25 L-13.6 -14.6 Q-16.0 -11.6 -18.7 -9.0 -20.75 -7.0 -23.05 -5.3 -25.25 -3.6 -27.55 -2.05 L-31.3 0.45 -36.25 3.5 -31.3 0.45 -27.55 -2.05 Q-25.25 -3.6 -23.05 -5.3 -20.75 -7.0 -18.7 -9.0 -16.0 -11.6 -13.6 -14.6 L-12.5 -16.25 M-24.0 -16.75 L-31.95 -11.95 -36.65 -8.9 -40.5 -6.0 Q-44.0 -3.15 -46.25 0.75 -44.0 -3.15 -40.5 -6.0 L-36.65 -8.9 -31.95 -11.95 -24.0 -16.75 M-21.0 -37.25 L-23.45 -35.9 Q-27.4 -33.5 -31.05 -30.55 -33.35 -28.6 -35.85 -26.9 -38.9 -24.8 -42.25 -23.5 -38.9 -24.8 -35.85 -26.9 -33.35 -28.6 -31.05 -30.55 -27.4 -33.5 -23.45 -35.9 L-21.0 -37.25 M-27.25 -30.75 L-32.2 -25.2 -37.55 -18.55 Q-40.4 -15.25 -43.5 -12.25 -40.4 -15.25 -37.55 -18.55 L-32.2 -25.2 -27.25 -30.75 M-35.25 -24.5 L-39.55 -20.2 -35.25 -24.5" fill="url(#gradient0)" fill-rule="evenodd" stroke="none"/>
      <path d="M-50.3 -8.25 Q-43.85 -13.15 -39.55 -20.2 -46.5 -19.55 -53.25 -21.0 -48.45 -21.85 -43.85 -24.2 -32.95 -29.8 -23.3 -37.6 -15.95 -43.5 -6.25 -43.7 8.2 -44.3 21.75 -39.25 L21.5 -42.25 23.45 -40.45 25.0 -38.5 M25.45 -37.75 L26.15 -38.15 27.0 -39.75 28.35 -35.05 30.65 -35.7 Q34.2 -36.3 37.5 -35.0 L34.3 -33.55 34.05 -33.45 31.75 -32.0 Q33.3 -32.8 34.85 -32.35 L36.9 -31.65 Q38.35 -30.9 39.4 -29.9 41.95 -27.65 41.25 -25.0 L40.85 -25.7 40.4 -26.35 39.8 -26.85 39.15 -27.4 38.5 -27.75 38.75 -27.2 Q41.15 -21.3 43.85 -15.45 46.85 -9.05 45.7 -2.0 44.15 7.05 41.7 15.85 L41.65 15.9 41.3 15.75 38.5 22.5 Q35.1 30.1 32.5 38.0 31.7 33.5 32.9 29.1 35.5 19.75 36.45 10.2 36.95 5.3 33.55 1.5 32.4 1.0 31.35 1.7 L30.65 2.15 Q28.8 3.7 28.25 5.85 L27.45 8.5 26.6 10.55 26.0 8.0 21.0 19.5 Q20.2 10.55 23.3 2.1 25.65 -4.25 22.4 -9.85 L20.15 -9.2 Q16.4 -9.35 12.95 -7.95 6.6 -5.55 -1.3 -3.65 -8.7 -1.95 -17.9 -2.1 L-19.1 -2.15 -17.95 -3.35 -17.05 -4.35 -15.5 -6.75 -17.5 -5.4 -26.7 0.6 Q-35.3 6.1 -41.0 7.95 L-43.0 8.5 -41.35 6.6 Q-36.05 2.2 -35.25 -3.75 L-49.5 5.5 Q-47.95 -3.95 -40.75 -10.0 L-50.15 -7.65 -51.75 -7.25 -50.3 -8.25 M-39.55 -20.2 L-35.25 -24.5" fill="none" stroke="#000000" stroke-linecap="round" stroke-linejoin="round" stroke-width="2.0"/>
      <path d="M15.5 -39.0 L7.25 -40.6 1.3 -40.75 Q-2.1 -40.5 -5.4 -39.4 -8.5 -38.35 -11.45 -36.95 L-12.75 -36.25 M-28.5 -21.0 L-27.6 -22.35 -23.1 -26.55 Q-20.85 -28.35 -18.4 -29.8 -15.35 -31.5 -12.15 -32.8 -8.35 -34.35 -4.4 -35.45 L2.8 -36.65 11.25 -37.0 M-15.25 -21.75 L-10.4 -24.35 -5.45 -26.3 0.55 -27.75 6.5 -28.2 12.25 -27.7 20.5 -26.5 M-14.25 -5.5 Q-13.9 -5.05 -12.8 -5.2 -9.75 -5.6 -6.85 -6.55 -2.5 -8.0 1.65 -9.95 5.75 -11.85 9.65 -14.15 11.15 -15.0 12.5 -16.0 M31.0 -25.25 L32.6 -23.3 Q33.9 -21.0 34.45 -18.45 L34.75 -15.5 M26.75 -23.0 L27.5 -22.55 Q28.5 -21.35 28.95 -19.9 L29.75 -16.5 30.0 -15.0 M24.0 -13.5 L24.15 -13.75 24.5 -13.0 Q25.5 -8.95 25.5 -4.75 L25.4 5.0 25.25 6.75 M28.35 -16.35 Q29.55 -15.5 30.1 -14.1 31.25 -11.0 31.9 -7.75 32.7 -3.65 33.0 0.5 M22.0 48.75 L22.0 49.0 21.75 52.0 M13.5 51.5 Q13.95 53.85 13.9 56.25 L13.75 56.75 M17.75 51.0 L17.9 51.25 18.75 54.75 M0.0 58.0 L0.55 58.85 1.75 62.0 M4.0 57.25 L4.3 57.15 Q5.0 58.15 5.25 59.3 L5.75 62.5 M8.5 54.0 L8.75 53.25 Q10.0 56.2 10.0 59.5 M-43.5 -12.25 Q-40.4 -15.25 -37.55 -18.55 L-32.2 -25.2 -27.25 -30.75 M-42.25 -23.5 Q-38.9 -24.8 -35.85 -26.9 -33.35 -28.6 -31.05 -30.55 -27.4 -33.5 -23.45 -35.9 L-21.0 -37.25 M-46.25 0.75 Q-44.0 -3.15 -40.5 -6.0 L-36.65 -8.9 -31.95 -11.95 -24.0 -16.75 M-36.25 3.5 L-31.3 0.45 -27.55 -2.05 Q-25.25 -3.6 -23.05 -5.3 -20.75 -7.0 -18.7 -9.0 -16.0 -11.6 -13.6 -14.6 L-12.5 -16.25 M-27.75 42.0 L-27.65 48.5 -27.5 49.5 M-25.25 46.0 L-25.4 46.25 Q-26.35 49.85 -25.75 53.5 M-6.5 58.25 Q-5.7 59.2 -5.95 60.5 L-6.25 62.5 M-3.75 59.0 L-3.2 59.85 Q-2.5 61.65 -2.1 63.5 L-1.75 66.0 M-10.5 58.25 L-10.65 59.0 -10.9 64.0 -11.25 67.25 M-18.0 56.0 L-18.05 56.95 -17.25 61.0 -16.75 62.75 M-19.5 59.0 L-19.4 61.5 -19.25 63.0 M-15.25 56.25 Q-15.35 60.1 -13.95 63.75 L-13.5 64.75 M-12.75 61.25 L-13.2 63.75 -13.25 64.5 M-8.0 60.75 L-7.85 62.75 -7.5 64.0 M-20.25 61.75 L-20.75 60.25 -20.9 59.75 -22.2 61.75 -23.0 63.25 M-20.9 59.75 Q-21.65 56.8 -21.0 53.75 M-22.75 50.75 L-23.25 52.3 -23.4 56.0 -23.25 58.0 M-22.75 57.5 Q-23.45 59.1 -23.5 61.0 L-23.5 62.0" fill="none" stroke="#77483e" stroke-linecap="round" stroke-linejoin="round" stroke-width="1.5"/>
    </g>
    </g>
  </g>
  <defs>
    <radialGradient cx="0" cy="0" gradientTransform="matrix(0.0028, 0.1085, -0.1668, 0.0043, 1.0, -31.5)" gradientUnits="userSpaceOnUse" id="gradient0" r="819.2" spreadMethod="pad">
      <stop offset="0.0" stop-color="#3c1e00"/>
      <stop offset="0.3176470588235294" stop-color="#7c543f"/>
      <stop offset="1.0" stop-color="#482400"/>
    </radialGradient>
  </defs>
</svg>