<svg xmlns:xlink="http://www.w3.org/1999/xlink" xmlns="http://www.w3.org/2000/svg" height="119.1px" width="213.05px">
  <g transform="matrix(1.0, 0.0, 0.0, 1.0, 94.65, 81.2)">
    <g data-characterId="902" height="49.9" transform="matrix(1.0, 0.0, 0.0, 1.0, -73.65, -33.4)" width="154.85" xlink:href="#shape0"><g id="shape0" transform="matrix(1.0, 0.0, 0.0, 1.0, 73.65, 33.4)">
      <path d="M75.55 1.9 Q48.35 8.8 43.7 0.95 39.0 -6.9 42.45 -12.15 L42.85 -13.05 Q43.75 -16.25 43.3 -19.65 L43.0 -21.65 Q42.65 -24.7 40.4 -26.75 L39.9 -26.9 Q38.25 -26.35 38.15 -24.8 38.25 -26.35 39.9 -26.9 L40.4 -26.75 Q42.65 -24.7 43.0 -21.65 L43.3 -19.65 Q43.75 -16.25 42.85 -13.05 L42.45 -12.15 Q39.0 -6.9 43.7 0.95 48.35 8.8 75.55 1.9 M36.7 -22.6 Q40.6 -38.4 54.2 -30.0 67.75 -21.65 73.05 -12.75 78.3 -3.85 80.7 2.6 57.7 11.35 42.2 5.2 L40.4 3.25 37.8 0.25 Q36.0 -2.0 35.4 -4.65 L35.05 -6.4 34.85 -7.7 39.0 -10.1 Q40.35 -10.9 40.8 -12.4 L41.45 -14.2 41.6 -15.05 Q41.7 -17.15 41.1 -19.0 L40.7 -19.65 38.65 -21.9 Q38.0 -22.6 37.0 -22.6 L36.7 -22.6" fill="url(#gradient0)" fill-rule="evenodd" stroke="none"/>
      <path d="M-37.05 -16.6 L-36.0 -17.15 -35.7 -17.55 -34.95 -18.0 -34.65 -18.05 -31.2 -18.55 -30.65 -18.65 -25.45 -18.85 -17.7 -18.95 -11.65 -19.2 -3.9 -19.6 7.65 -20.7 13.1 -21.3 24.3 -22.75 26.9 -22.95 33.8 -22.75 36.7 -22.6 37.0 -22.6 Q38.0 -22.6 38.65 -21.9 L40.7 -19.65 41.1 -19.0 Q41.7 -17.15 41.6 -15.05 L41.45 -14.2 40.8 -12.4 Q40.35 -10.9 39.0 -10.1 L34.85 -7.7 33.75 -7.1 32.4 -6.3 25.25 -1.75 22.9 -0.4 20.9 0.6 19.05 1.45 13.1 3.7 11.65 4.05 7.65 4.3 1.3 4.0 Q-3.5 3.45 -8.2 1.9 -10.45 1.15 -12.8 0.9 L-14.8 0.65 -26.05 -0.75 -30.95 -1.65 Q-33.0 -2.2 -35.0 -3.15 -36.35 -3.8 -37.4 -4.6 -39.7 -6.35 -40.75 -9.0 L-40.9 -9.55 Q-41.2 -11.05 -40.75 -11.9 L-39.6 -13.65 -38.0 -15.55 -37.65 -16.0 -37.05 -16.6" fill="url(#gradient1)" fill-rule="evenodd" stroke="none"/>
      <path d="M40.4 3.25 L40.1 3.05 35.8 4.85 33.55 5.85 31.2 6.8 25.75 8.6 Q20.4 10.3 15.1 12.35 10.25 14.25 5.05 15.05 3.55 15.3 2.2 14.75 -0.55 13.75 -3.05 12.4 L-3.5 12.45 -4.65 13.5 Q-7.0 16.75 -10.8 15.8 L-17.95 13.95 -21.5 12.95 -24.25 12.1 -26.65 11.35 -30.35 10.45 Q-35.75 9.25 -40.4 6.2 -40.95 5.85 -41.6 5.55 -42.4 5.15 -42.25 4.1 L-40.3 2.05 -38.6 -0.3 Q-38.2 -0.95 -38.05 -1.8 L-37.9 -3.25 -37.8 -4.1 -37.4 -4.6 Q-36.35 -3.8 -35.0 -3.15 -33.0 -2.2 -30.95 -1.65 L-26.05 -0.75 -14.8 0.65 -12.8 0.9 Q-10.45 1.15 -8.2 1.9 -3.5 3.45 1.3 4.0 L7.65 4.3 11.65 4.05 13.1 3.7 19.05 1.45 20.9 0.6 22.9 -0.4 25.25 -1.75 32.4 -6.3 33.75 -7.1 34.85 -7.7 35.05 -6.4 35.4 -4.65 Q36.0 -2.0 37.8 0.25 L40.4 3.25" fill="url(#gradient2)" fill-rule="evenodd" stroke="none"/>
      <path d="M-42.25 4.1 Q-70.55 12.85 -72.85 3.85 -75.2 -5.15 -60.4 -18.25 -45.65 -31.35 -37.85 -25.95 L-37.05 -16.6 -37.65 -16.0 -38.0 -15.55 -39.6 -13.65 -40.75 -11.9 Q-41.2 -11.05 -40.9 -9.55 L-40.75 -9.0 Q-39.7 -6.35 -37.4 -4.6 L-37.8 -4.1 -37.9 -3.25 -38.05 -1.8 Q-38.2 -0.95 -38.6 -0.3 L-40.3 2.05 -42.25 4.1 M-66.9 2.5 Q-65.45 3.8 -63.75 4.65 -62.25 5.4 -60.55 5.6 -55.05 6.15 -49.95 4.2 L-48.7 3.8 Q-45.3 3.05 -43.6 0.2 L-42.6 -1.15 Q-40.85 -3.25 -41.45 -5.85 L-42.15 -9.3 -42.4 -10.7 Q-43.25 -15.1 -42.15 -19.35 L-41.95 -20.2 Q-41.7 -21.9 -40.4 -22.5 -41.7 -21.9 -41.95 -20.2 L-42.15 -19.35 Q-43.25 -15.1 -42.4 -10.7 L-42.15 -9.3 -41.45 -5.85 Q-40.85 -3.25 -42.6 -1.15 L-43.6 0.2 Q-45.3 3.05 -48.7 3.8 L-49.95 4.2 Q-55.05 6.15 -60.55 5.6 -62.25 5.4 -63.75 4.65 -65.45 3.8 -66.9 2.5" fill="url(#gradient3)" fill-rule="evenodd" stroke="none"/>
      <path d="M38.15 -24.8 Q38.25 -26.35 39.9 -26.9 L40.4 -26.75 Q42.65 -24.7 43.0 -21.65 L43.3 -19.65 Q43.75 -16.25 42.85 -13.05 L42.45 -12.15 Q39.0 -6.9 43.7 0.95 48.35 8.8 75.55 1.9 M-37.05 -16.6 L-36.0 -17.15 -35.7 -17.55 -34.95 -18.0 -34.65 -18.05 -31.2 -18.55 -30.65 -18.65 -25.45 -18.85 -17.7 -18.95 -11.65 -19.2 -3.9 -19.6 7.65 -20.7 13.1 -21.3 24.3 -22.75 26.9 -22.95 33.8 -22.75 36.7 -22.6 Q40.6 -38.4 54.2 -30.0 67.75 -21.65 73.05 -12.75 78.3 -3.85 80.7 2.6 57.7 11.35 42.2 5.2 L40.4 3.25 40.1 3.05 35.8 4.85 33.55 5.85 31.2 6.8 25.75 8.6 Q20.4 10.3 15.1 12.35 10.25 14.25 5.05 15.05 3.55 15.3 2.2 14.75 -0.55 13.75 -3.05 12.4 L-3.5 12.45 -4.65 13.5 Q-7.0 16.75 -10.8 15.8 L-17.95 13.95 -21.5 12.95 -24.25 12.1 -26.65 11.35 -30.35 10.45 Q-35.75 9.25 -40.4 6.2 -40.95 5.85 -41.6 5.55 -42.4 5.15 -42.25 4.1 -70.55 12.85 -72.85 3.85 -75.2 -5.15 -60.4 -18.25 -45.65 -31.35 -37.85 -25.95 L-37.05 -16.6 -37.65 -16.0 -38.0 -15.55 -39.6 -13.65 -40.75 -11.9 Q-41.2 -11.05 -40.9 -9.55 L-40.75 -9.0 Q-39.7 -6.35 -37.4 -4.6 -36.35 -3.8 -35.0 -3.15 -33.0 -2.2 -30.95 -1.65 L-26.05 -0.75 -14.8 0.65 -12.8 0.9 Q-10.45 1.15 -8.2 1.9 -3.5 3.45 1.3 4.0 L7.65 4.3 11.65 4.05 13.1 3.7 19.05 1.45 20.9 0.6 22.9 -0.4 25.25 -1.75 32.4 -6.3 33.75 -7.1 34.85 -7.7 39.0 -10.1 Q40.35 -10.9 40.8 -12.4 L41.45 -14.2 41.6 -15.05 Q41.7 -17.15 41.1 -19.0 L40.7 -19.65 38.65 -21.9 Q38.0 -22.6 37.0 -22.6 L36.7 -22.6 M34.85 -7.7 L35.05 -6.4 35.4 -4.65 Q36.0 -2.0 37.8 0.25 L40.4 3.25 M-40.4 -22.5 Q-41.7 -21.9 -41.95 -20.2 L-42.15 -19.35 Q-43.25 -15.1 -42.4 -10.7 L-42.15 -9.3 -41.45 -5.85 Q-40.85 -3.25 -42.6 -1.15 L-43.6 0.2 Q-45.3 3.05 -48.7 3.8 L-49.95 4.2 Q-55.05 6.15 -60.55 5.6 -62.25 5.4 -63.75 4.65 -65.45 3.8 -66.9 2.5 M-37.8 -4.1 L-37.9 -3.25 -38.05 -1.8 Q-38.2 -0.95 -38.6 -0.3 L-40.3 2.05 -42.25 4.1" fill="none" stroke="#000000" stroke-linecap="round" stroke-linejoin="round" stroke-width="2.0"/>
    </g>
    </g>
  </g>
  <defs>
    <radialGradient cx="0" cy="0" gradientTransform="matrix(0.0186, -0.0332, 0.0424, 0.0238, 57.7, -17.25)" gradientUnits="userSpaceOnUse" id="gradient0" r="819.2" spreadMethod="pad">
      <stop offset="0.0" stop-color="#ffffff"/>
      <stop offset="0.5215686274509804" stop-color="#d3cbc5"/>
      <stop offset="1.0" stop-color="#746558"/>
    </radialGradient>
    <linearGradient gradientTransform="matrix(0.0509, 0.0, 0.0, 0.0332, 7.2, 59.15)" gradientUnits="userSpaceOnUse" id="gradient1" spreadMethod="pad" x1="-819.2" x2="819.2">
      <stop offset="0.0" stop-color="#5e5e32"/>
      <stop offset="0.3137254901960784" stop-color="#81814f"/>
      <stop offset="1.0" stop-color="#5e5e32"/>
    </linearGradient>
    <linearGradient gradientTransform="matrix(0.0505, 0.0, 0.0, 0.0145, -0.9, 4.15)" gradientUnits="userSpaceOnUse" id="gradient2" spreadMethod="pad" x1="-819.2" x2="819.2">
      <stop offset="0.0" stop-color="#ffffff"/>
      <stop offset="0.5215686274509804" stop-color="#d3cbc5"/>
      <stop offset="1.0" stop-color="#746558"/>
    </linearGradient>
    <radialGradient cx="0" cy="0" gradientTransform="matrix(0.0309, 0.0, 0.0, 0.0309, -58.85, -15.55)" gradientUnits="userSpaceOnUse" id="gradient3" r="819.2" spreadMethod="pad">
      <stop offset="0.0" stop-color="#ffffff"/>
      <stop offset="0.5215686274509804" stop-color="#d3cbc5"/>
      <stop offset="1.0" stop-color="#746558"/>
    </radialGradient>
  </defs>
</svg>