<svg xmlns:xlink="http://www.w3.org/1999/xlink" xmlns="http://www.w3.org/2000/svg" height="141.1px" width="125.05px">
  <g transform="matrix(1.0, 0.0, 0.0, 1.0, 48.6, 54.85)">
    <g data-characterId="985" height="105.45" transform="matrix(1.0, 0.0, 0.0, 1.0, -38.05, -52.5)" width="76.4" xlink:href="#shape0"><g id="shape0" transform="matrix(1.0, 0.0, 0.0, 1.0, 38.05, 52.5)">
      <path d="M32.65 12.05 L31.15 11.1 32.75 11.8 32.75 11.9 32.65 12.05" fill="url(#gradient0)" fill-rule="evenodd" stroke="none"/>
      <path d="M23.9 35.8 L19.2 39.9 Q15.25 43.5 10.6 45.95 L5.5 48.2 Q0.65 50.15 -4.35 51.15 L-10.15 52.15 -13.85 52.35 Q-19.5 51.6 -24.1 48.3 -25.4 47.45 -25.95 46.15 -27.95 41.65 -29.05 36.85 L-30.25 31.25 Q-31.1 27.2 -32.65 24.2 -34.25 21.15 -35.55 17.45 -36.9 13.75 -36.4 7.9 -35.9 2.05 -35.25 -1.8 -34.6 -5.65 -35.6 -7.3 -36.6 -9.0 -37.0 -10.35 -38.15 -14.2 -36.85 -18.1 -34.95 -23.65 -33.85 -29.15 -32.85 -34.0 -30.05 -37.85 L-27.1 -41.9 Q-23.45 -46.55 -18.25 -49.1 -13.2 -51.45 -7.9 -51.6 -2.4 -52.25 3.1 -51.85 8.25 -51.4 12.95 -49.05 18.3 -46.45 22.85 -42.85 L26.85 -39.7 Q31.6 -36.35 33.95 -30.75 36.3 -25.25 37.2 -19.4 38.1 -13.55 37.8 -7.6 37.55 -2.35 36.35 2.8 35.25 7.6 32.75 11.8 L31.15 11.1 32.65 12.05 30.05 16.25 28.55 16.75 Q29.75 22.5 28.65 28.45 27.8 33.15 23.9 35.8 M31.45 -1.65 L31.45 -3.65 31.25 -4.55 Q30.35 -6.65 28.95 -5.15 L28.6 -4.6 Q28.05 -2.8 26.45 -2.15 28.05 -2.8 28.6 -4.6 L28.95 -5.15 Q30.35 -6.65 31.25 -4.55 L31.45 -3.65 31.45 -1.65 M24.55 -6.25 Q25.25 -11.35 29.75 -12.0 31.0 -11.5 32.15 -9.85 34.9 -6.15 34.2 -1.45 L34.15 -1.2 34.15 -1.0 Q33.65 2.0 32.65 4.9 32.1 6.6 31.7 8.7 L31.15 11.1 Q28.35 14.4 25.55 11.75 28.35 14.4 31.15 11.1 L31.7 8.7 Q32.1 6.6 32.65 4.9 33.65 2.0 34.15 -1.0 L34.15 -1.2 34.2 -1.45 Q34.9 -6.15 32.15 -9.85 31.0 -11.5 29.75 -12.0 25.25 -11.35 24.55 -6.25 M29.45 4.35 L29.45 3.85 29.45 1.35 29.45 3.85 29.45 4.35 M14.55 0.7 L14.65 2.3 14.5 3.8 13.75 7.1 Q12.6 8.35 11.05 9.05 L10.05 9.5 Q8.0 10.35 5.6 10.25 L4.95 11.3 Q0.85 21.25 1.95 32.05 0.85 21.25 4.95 11.3 L5.6 10.25 Q8.0 10.35 10.05 9.5 L11.05 9.05 Q12.6 8.35 13.75 7.1 L14.5 3.8 14.65 2.3 14.55 0.7 M-13.5 20.5 Q-11.8 19.0 -12.45 16.85 -11.8 19.0 -13.5 20.5 M-25.9 -9.05 Q-20.7 -6.8 -22.5 -3.25 -24.35 0.3 -25.1 8.0 -25.85 15.7 -27.1 17.55 -28.4 19.35 -25.3 20.2 -22.2 21.05 -18.85 19.35 -22.2 21.05 -25.3 20.2 -28.4 19.35 -27.1 17.55 -25.85 15.7 -25.1 8.0 -24.35 0.3 -22.5 -3.25 -20.7 -6.8 -25.9 -9.05 M-26.25 18.6 L-26.2 18.55 -26.25 18.55 -26.25 18.6" fill="url(#gradient1)" fill-rule="evenodd" stroke="none"/>
      <path d="M31.15 11.1 Q28.35 14.4 25.55 11.75 M31.15 11.1 L31.7 8.7 Q32.1 6.6 32.65 4.9 33.65 2.0 34.15 -1.0 L34.15 -1.2 34.2 -1.45 Q34.9 -6.15 32.15 -9.85 31.0 -11.5 29.75 -12.0 25.25 -11.35 24.55 -6.25 M26.45 -2.15 Q28.05 -2.8 28.6 -4.6 L28.95 -5.15 Q30.35 -6.65 31.25 -4.55 L31.45 -3.65 31.45 -1.65 M29.45 1.35 L29.45 3.85 29.45 4.35 M-18.85 19.35 Q-22.2 21.05 -25.3 20.2 -28.4 19.35 -27.1 17.55 -25.85 15.7 -25.1 8.0 -24.35 0.3 -22.5 -3.25 -20.7 -6.8 -25.9 -9.05 M-12.45 16.85 Q-11.8 19.0 -13.5 20.5" fill="none" stroke="#000000" stroke-linecap="round" stroke-linejoin="round" stroke-width="2.0"/>
      <path d="M23.9 35.8 Q27.8 33.15 28.65 28.45 29.75 22.5 28.55 16.75" fill="none" stroke="#b9a882" stroke-linecap="round" stroke-linejoin="round" stroke-width="1.5"/>
      <path d="M1.95 32.05 Q0.85 21.25 4.95 11.3 L5.6 10.25 Q8.0 10.35 10.05 9.5 L11.05 9.05 Q12.6 8.35 13.75 7.1 L14.5 3.8 14.65 2.3 14.55 0.7" fill="none" stroke="#7f8c70" stroke-linecap="round" stroke-linejoin="round" stroke-width="2.0"/>
      <path d="M21.0 -43.2 L21.5 -41.45 21.95 -39.6 Q21.95 -36.95 18.9 -33.2 15.7 -29.35 11.45 -27.15 L10.8 -27.5 Q17.0 -31.45 19.35 -35.25 21.65 -38.95 20.85 -43.2 L21.0 -43.2 M29.85 -32.3 Q31.25 -32.3 32.7 -31.55 33.95 -30.9 34.05 -30.45 L33.75 -30.0 33.6 -30.0 33.75 -29.75 Q34.8 -28.7 34.8 -28.05 L34.7 -27.4 34.5 -27.15 Q33.9 -27.7 33.65 -28.4 L32.6 -29.45 31.2 -30.3 Q30.4 -30.3 28.5 -29.4 26.35 -28.35 25.55 -28.2 L25.15 -28.25 25.05 -28.75 25.1 -29.15 30.6 -30.9 31.45 -31.0 30.7 -31.3 29.85 -31.5 27.25 -31.05 26.1 -30.65 Q24.6 -30.65 24.15 -31.55 23.95 -32.0 24.0 -32.55 L24.2 -33.9 Q24.75 -35.05 26.75 -34.5 L26.85 -33.45 26.5 -33.55 25.65 -33.75 24.9 -33.45 Q24.75 -33.2 24.75 -32.75 L24.85 -31.85 Q25.0 -31.55 25.5 -31.55 L27.7 -31.9 29.85 -32.3 M34.95 -26.15 Q34.35 -25.5 31.35 -24.65 L27.6 -23.4 24.35 -21.45 Q21.5 -19.95 20.2 -19.95 11.6 -19.95 9.8 -21.1 8.75 -21.75 8.7 -23.55 L8.85 -23.75 11.3 -22.2 Q13.2 -21.45 17.25 -21.45 20.3 -21.45 27.55 -25.25 32.25 -27.7 34.25 -26.7 L34.95 -26.15 M13.8 -42.75 Q15.35 -44.6 15.0 -46.05 L15.2 -46.05 15.45 -44.7 Q13.2 -38.7 10.2 -38.7 8.75 -38.7 8.35 -40.1 L8.0 -43.2 Q7.55 -47.7 3.25 -47.7 -2.3 -47.7 -5.0 -43.8 -6.65 -41.35 -6.65 -39.15 -6.65 -37.55 -6.0 -36.65 -4.85 -35.1 -1.55 -35.1 0.55 -35.1 1.8 -37.2 2.7 -38.75 2.7 -39.8 2.7 -40.5 1.85 -41.3 0.95 -42.15 0.25 -42.15 -1.05 -42.15 -1.55 -41.3 L-1.8 -40.5 -1.7 -39.5 Q-1.45 -38.95 -0.35 -38.55 L-0.7 -38.2 Q-0.9 -38.0 -1.4 -38.0 -2.45 -38.0 -2.75 -39.2 L-2.85 -40.55 Q-2.85 -41.55 -2.25 -42.3 -1.45 -43.4 0.4 -43.4 2.35 -43.4 3.3 -41.7 3.9 -40.65 3.9 -39.75 1.8 -34.05 -1.4 -34.05 -5.65 -34.05 -7.05 -36.2 -7.65 -37.15 -7.65 -39.15 -7.65 -42.3 -5.85 -44.85 -3.35 -48.3 1.85 -48.65 8.1 -49.05 8.95 -45.9 9.0 -41.65 10.35 -39.65 L13.8 -42.75 M17.4 -44.5 Q17.4 -40.5 10.5 -35.45 6.3 -32.4 1.45 -30.25 -2.9 -26.3 -6.2 -22.05 -8.5 -19.0 -9.7 -16.35 -9.05 -16.85 -8.05 -17.15 -4.95 -18.1 -4.95 -14.75 -4.95 -14.0 -7.2 -12.75 -9.3 -11.6 -10.2 -11.6 L-10.85 -12.3 -10.95 -12.55 -11.1 -11.15 Q-11.1 -10.5 -8.55 -5.75 -6.0 -0.95 -6.0 1.4 -6.0 3.85 -7.15 5.9 -8.9 8.85 -12.4 8.85 -15.35 8.85 -16.7 7.2 -17.55 6.1 -17.55 4.65 -17.55 2.75 -17.15 1.15 -16.35 -2.1 -14.3 -2.1 -12.15 -2.1 -11.55 0.3 L-11.65 0.45 -12.3 0.6 -13.0 -0.3 Q-13.75 -1.2 -14.3 -1.2 -15.6 -1.2 -16.2 0.85 L-16.5 2.95 Q-16.5 7.55 -12.4 7.55 -9.6 7.55 -8.1 4.7 -7.1 2.9 -7.1 1.65 -7.1 -1.15 -9.55 -5.45 -12.0 -9.75 -12.0 -11.1 -12.0 -16.1 -7.4 -22.5 -4.5 -26.6 -1.1 -29.25 L-4.65 -28.05 Q-10.55 -26.25 -15.65 -20.95 -20.45 -16.0 -21.15 -11.7 L-21.35 -11.7 -21.35 -11.6 -20.85 -10.65 Q-20.15 -9.45 -19.4 -9.45 -17.3 -9.45 -16.5 -10.55 -16.1 -11.1 -16.1 -11.7 L-16.7 -12.8 Q-17.35 -13.65 -17.9 -13.65 L-18.55 -13.55 -19.05 -13.35 Q-19.4 -12.5 -18.95 -12.05 -19.9 -12.2 -20.0 -12.6 L-19.95 -12.85 Q-19.95 -14.95 -17.7 -14.3 -15.5 -13.7 -15.5 -11.6 L-16.2 -10.3 Q-17.05 -9.0 -17.85 -9.0 -20.15 -9.0 -21.0 -10.3 L-21.7 -11.7 -21.75 -11.7 -21.75 -11.85 -21.9 -13.0 -21.6 -15.35 -22.0 -15.35 -24.2 -16.35 Q-26.5 -17.4 -27.3 -17.4 -28.8 -17.4 -29.7 -16.2 -30.3 -15.35 -30.3 -14.9 L-29.95 -13.5 Q-29.45 -12.45 -28.5 -12.45 L-27.85 -12.5 -27.3 -12.75 Q-27.1 -13.15 -27.5 -14.0 L-26.85 -14.25 Q-26.45 -13.85 -26.45 -13.2 -26.45 -12.7 -27.0 -12.3 -27.7 -11.7 -29.05 -11.7 -30.4 -11.7 -31.1 -13.3 L-31.55 -14.95 Q-31.55 -17.35 -28.8 -18.15 L-29.85 -19.2 -30.3 -20.7 Q-30.3 -22.2 -28.95 -23.55 -27.45 -25.0 -26.85 -21.75 -27.0 -21.3 -27.95 -21.05 L-28.1 -20.95 -28.25 -21.4 -28.0 -22.05 -27.65 -22.25 -27.8 -22.35 -28.5 -22.5 Q-29.55 -22.5 -29.55 -21.55 -29.55 -20.7 -28.95 -19.8 L-28.1 -18.35 -27.85 -18.4 Q-24.0 -19.05 -21.55 -15.6 -20.95 -17.75 -19.4 -19.7 -21.55 -20.3 -23.4 -22.55 -25.5 -25.1 -25.5 -26.55 -25.5 -28.1 -22.85 -28.65 -20.25 -29.2 -20.25 -27.25 -20.25 -26.5 -20.6 -25.7 L-21.5 -25.5 -21.65 -25.75 -21.6 -26.4 Q-21.6 -26.85 -21.85 -27.0 L-22.2 -27.35 -23.7 -26.55 Q-22.9 -23.5 -18.6 -20.6 L-15.9 -23.0 -12.8 -24.95 -12.7 -25.05 -12.85 -25.05 Q-14.35 -25.05 -15.35 -26.55 -16.1 -27.7 -16.1 -28.35 -16.1 -30.05 -14.8 -31.05 -13.4 -32.2 -12.5 -29.0 L-12.45 -28.75 -12.9 -28.65 Q-13.55 -28.65 -13.85 -29.1 L-14.1 -29.75 -14.6 -29.1 -15.0 -28.25 Q-15.0 -26.25 -10.8 -26.25 L-10.65 -26.15 -2.7 -29.95 Q7.2 -34.25 10.65 -36.6 16.75 -40.75 16.95 -45.75 L16.95 -45.9 Q17.4 -45.6 17.4 -44.5 M19.25 -16.95 Q20.25 -17.95 21.35 -17.45 22.4 -17.0 22.4 -15.75 22.4 -11.15 18.95 -11.15 16.2 -11.15 13.85 -11.85 L4.4 -14.75 4.4 -15.45 Q3.65 -15.6 5.15 -15.6 9.1 -15.6 12.8 -14.15 16.5 -12.75 17.85 -12.75 19.65 -12.75 19.6 -14.65 L19.25 -16.95 M2.0 -17.1 L2.1 -16.05 Q2.1 -15.35 1.55 -14.75 0.85 -13.9 -0.5 -13.95 L-3.0 -13.95 -3.15 -14.15 -3.3 -15.3 Q-3.3 -16.45 -1.7 -17.2 L1.85 -17.4 2.0 -17.1 M18.2 -0.75 L17.55 -1.25 16.05 -0.45 15.9 -0.6 Q17.05 -1.0 17.25 -1.6 L17.25 -2.55 Q17.25 -3.8 18.05 -4.4 19.1 -5.15 21.05 -4.2 21.45 -3.8 23.65 -2.75 25.4 -1.95 25.4 -1.1 L25.35 -0.45 Q25.35 -0.15 24.6 -0.15 L24.0 -0.3 23.25 -0.75 Q22.55 -1.35 21.6 -1.35 20.1 -0.3 19.5 -0.3 18.85 -0.3 18.2 -0.75 M35.85 -22.2 L35.8 -21.9 36.0 -20.8 Q36.0 -19.35 34.8 -17.95 33.35 -16.35 31.25 -16.35 30.6 -16.35 30.15 -17.35 L29.85 -18.45 29.95 -19.35 29.7 -19.5 29.65 -19.7 30.0 -19.8 30.05 -19.95 30.85 -19.95 Q31.6 -20.25 32.8 -21.2 L35.1 -22.8 35.6 -22.7 35.85 -22.2 M33.6 -13.4 Q33.45 -13.9 33.45 -14.3 33.45 -15.35 35.05 -15.45 36.6 -15.55 36.6 -14.15 36.6 -13.7 35.8 -13.05 L34.65 -12.45 Q33.9 -12.45 33.6 -13.4 M23.95 -0.15 Q25.2 0.25 25.2 1.85 L25.2 2.3 25.05 2.4 Q25.35 2.55 24.6 2.55 L23.0 2.2 21.0 1.8 Q19.8 1.8 19.45 3.55 19.05 5.25 18.35 5.25 L15.6 5.25 Q15.55 7.75 13.8 10.85 11.35 15.15 7.05 15.55 L7.55 17.5 7.55 19.95 7.5 20.6 7.45 20.8 6.9 21.0 Q5.9 21.0 5.6 17.1 5.6 16.3 5.75 15.6 L2.5 15.25 1.9 17.3 Q1.0 20.4 0.5 21.0 L0.1 20.85 0.0 20.25 Q0.0 18.65 0.3 17.1 0.6 15.7 1.05 14.8 -0.75 14.15 -2.15 13.0 L-3.05 15.05 -4.85 18.0 -5.45 17.6 -5.6 16.9 Q-5.6 15.8 -4.45 13.95 L-3.1 12.1 -3.65 11.45 Q-5.75 8.8 -5.75 6.3 -5.75 0.2 -4.2 -1.55 -4.05 -1.85 -4.05 -1.1 L-4.65 3.75 Q-4.65 8.7 -2.2 11.3 L-2.0 11.5 Q-0.45 13.05 2.05 13.7 L2.4 13.5 2.65 13.6 2.7 13.85 5.9 14.1 Q11.05 14.1 13.15 9.6 L14.7 5.25 13.1 5.15 Q13.3 4.75 12.3 4.05 12.75 3.55 13.15 3.55 L16.4 3.9 17.9 3.9 Q18.2 0.65 21.7 -0.1 L23.95 -0.15 M21.9 8.55 Q22.65 12.3 22.65 13.5 22.65 14.35 17.2 16.55 11.7 18.75 11.7 20.75 11.7 21.8 12.5 23.1 13.65 25.05 15.8 25.05 20.3 25.05 22.8 22.65 24.45 21.0 24.45 19.9 24.45 19.05 23.85 18.35 23.05 17.4 21.5 17.4 19.65 17.4 18.05 18.6 16.8 19.55 16.8 19.9 16.8 20.35 17.4 20.6 L18.5 20.85 20.45 20.4 21.15 19.85 21.9 20.45 20.95 21.35 Q19.85 22.1 18.35 22.1 16.7 22.1 15.9 21.1 15.45 20.5 15.45 19.95 15.45 18.9 17.2 17.55 19.2 16.05 21.45 16.05 23.9 16.05 24.95 17.7 25.5 18.5 25.55 19.4 25.55 21.05 23.6 23.25 L22.4 24.4 23.25 25.75 Q23.6 26.65 23.6 27.95 23.6 28.3 22.0 28.55 L22.65 31.25 22.2 31.8 Q21.45 30.95 21.45 30.15 L21.6 28.6 20.2 28.75 18.65 28.95 19.0 30.8 19.65 33.45 Q19.95 33.75 19.2 33.75 18.25 33.75 18.1 32.25 18.1 30.55 17.9 30.0 L17.9 29.1 15.65 29.75 16.35 35.35 Q16.75 35.3 17.0 35.6 L17.25 36.6 16.1 39.55 Q14.95 42.05 15.05 43.2 14.05 42.6 13.85 41.9 L13.8 40.5 Q13.8 39.5 14.75 38.2 15.7 36.85 15.8 35.55 L15.85 35.55 Q15.2 31.4 15.2 29.9 14.15 30.3 13.25 30.9 11.9 31.75 11.6 32.8 11.35 33.6 11.6 34.8 L11.15 35.1 Q10.55 34.8 10.4 34.2 L10.35 33.4 Q10.35 30.45 16.45 28.65 22.5 26.9 22.5 26.55 L22.05 25.45 21.75 24.9 Q19.9 26.0 17.7 26.0 13.35 26.0 11.6 23.45 10.7 22.15 10.7 20.7 10.7 19.2 13.25 17.5 15.65 15.9 19.5 14.6 21.55 13.9 21.45 11.5 21.35 8.9 21.9 8.55 M2.85 23.45 Q1.8 23.45 1.55 22.85 L1.5 22.15 Q1.5 20.9 2.85 20.8 4.2 20.7 4.2 22.05 4.2 23.45 2.85 23.45 M2.85 30.0 Q2.5 30.45 1.95 30.45 L1.3 30.35 0.95 30.15 Q0.8 30.0 0.8 29.25 0.8 28.05 2.0 28.15 3.15 28.3 3.15 29.25 L2.85 30.0 M9.5 39.1 L8.85 38.7 7.4 38.85 8.3 41.05 8.75 42.8 Q8.75 43.95 5.85 45.15 L0.45 47.3 Q1.1 48.55 2.3 48.8 L2.4 48.95 2.45 49.5 Q2.45 50.0 2.0 50.15 L0.95 50.25 Q-0.85 50.25 -1.25 48.3 -1.4 46.05 -1.65 45.35 -2.2 44.0 -3.95 43.1 -6.3 41.8 -9.75 42.15 L-10.2 41.55 Q-2.65 40.6 -0.8 44.15 L0.0 46.15 Q0.9 45.45 2.9 44.7 7.15 43.1 7.65 42.65 L6.8 40.8 Q6.3 39.9 6.3 39.15 6.3 37.45 8.7 37.45 11.1 37.4 11.1 39.95 L11.05 40.7 Q10.8 41.35 9.9 41.45 L9.9 40.05 Q9.9 39.5 9.5 39.1 M-9.35 48.05 Q-8.1 49.45 -8.1 50.25 -8.1 50.9 -8.45 51.5 L-9.3 52.25 -9.45 51.4 -9.3 51.0 Q-9.3 50.4 -9.95 49.5 L-11.25 47.85 Q-10.65 46.55 -9.35 48.05" fill="#19e377" fill-rule="evenodd" stroke="none"/>
      <path d="M30.05 16.25 L32.65 12.05 32.75 11.9 32.75 11.8 Q35.25 7.6 36.35 2.8 37.55 -2.35 37.8 -7.6 38.1 -13.55 37.2 -19.4 36.3 -25.25 33.95 -30.75 31.6 -36.35 26.85 -39.7 L22.85 -42.85 Q18.3 -46.45 12.95 -49.05 8.25 -51.4 3.1 -51.85 -2.4 -52.25 -7.9 -51.6 -13.2 -51.45 -18.25 -49.1 -23.45 -46.55 -27.1 -41.9 L-30.05 -37.85 Q-32.85 -34.0 -33.85 -29.15 -34.95 -23.65 -36.85 -18.1 -38.15 -14.2 -37.0 -10.35 -36.6 -9.0 -35.6 -7.3 -34.6 -5.65 -35.25 -1.8 -35.9 2.05 -36.4 7.9 -36.9 13.75 -35.55 17.45 -34.25 21.15 -32.65 24.2 -31.1 27.2 -30.25 31.25 L-29.05 36.85 Q-27.95 41.65 -25.95 46.15 -25.4 47.45 -24.1 48.3 -19.5 51.6 -13.85 52.35 L-10.15 52.15 -4.35 51.15 Q0.65 50.15 5.5 48.2 L10.6 45.95 Q15.25 43.5 19.2 39.9 L23.9 35.8" fill="none" stroke="#000000" stroke-linecap="round" stroke-linejoin="round" stroke-width="2.0"/>
      <path d="M33.05 14.1 Q33.4 13.8 33.4 13.3 33.4 12.85 33.05 12.5 32.7 12.15 32.1 12.15 31.55 12.15 31.2 12.5 30.9 12.85 30.9 13.3 30.9 13.8 31.2 14.1 31.55 14.45 32.1 14.45 L33.05 14.1 M32.4 18.6 L27.55 18.6 27.55 16.2 26.55 15.55 Q25.25 14.45 25.25 12.85 25.25 11.25 26.55 10.15 27.9 9.05 29.7 9.05 31.55 9.05 32.85 10.15 34.2 11.25 34.2 12.85 34.2 14.45 32.85 15.55 L32.4 15.9 32.4 18.6 M30.2 13.3 Q30.2 12.75 29.7 12.4 29.25 12.05 28.55 12.05 27.9 12.05 27.4 12.4 26.95 12.75 26.95 13.3 26.95 13.9 27.4 14.25 L28.55 14.6 29.7 14.25 Q30.2 13.9 30.2 13.3" fill="#cccccc" fill-rule="evenodd" stroke="none"/>
      <path d="M33.05 14.1 L32.1 14.45 Q31.55 14.45 31.2 14.1 30.9 13.8 30.9 13.3 30.9 12.85 31.2 12.5 31.55 12.15 32.1 12.15 32.7 12.15 33.05 12.5 33.4 12.85 33.4 13.3 33.4 13.8 33.05 14.1 M30.2 13.3 Q30.2 13.9 29.7 14.25 L28.55 14.6 27.4 14.25 Q26.95 13.9 26.95 13.3 26.95 12.75 27.4 12.4 27.9 12.05 28.55 12.05 29.25 12.05 29.7 12.4 30.2 12.75 30.2 13.3" fill="#000000" fill-rule="evenodd" stroke="none"/>
      <path d="M32.4 18.6 L27.55 18.6 27.55 16.2 26.55 15.55 Q25.25 14.45 25.25 12.85 25.25 11.25 26.55 10.15 27.9 9.05 29.7 9.05 31.55 9.05 32.85 10.15 34.2 11.25 34.2 12.85 34.2 14.45 32.85 15.55 L32.4 15.9 32.4 18.6 Z" fill="none" stroke="#000000" stroke-linecap="round" stroke-linejoin="round" stroke-width="2.0"/>
    </g>
    </g>
  </g>
  <defs>
    <radialGradient cx="0" cy="0" gradientTransform="matrix(0.0494, 0.0, 0.0, 0.0681, -16.0, 3.0)" gradientUnits="userSpaceOnUse" id="gradient0" r="819.2" spreadMethod="pad">
      <stop offset="0.0" stop-color="#f1d0b1"/>
      <stop offset="0.6274509803921569" stop-color="#ecc59d"/>
      <stop offset="1.0" stop-color="#e9bb8f"/>
    </radialGradient>
    <radialGradient cx="0" cy="0" gradientTransform="matrix(0.0543, 0.0, 0.0, 0.0824, -20.0, -3.0)" gradientUnits="userSpaceOnUse" id="gradient1" r="819.2" spreadMethod="pad">
      <stop offset="0.0" stop-color="#f7e1d5"/>
      <stop offset="0.6274509803921569" stop-color="#e2d3bf"/>
      <stop offset="1.0" stop-color="#d1c9a3"/>
    </radialGradient>
  </defs>
</svg>