<svg xmlns:xlink="http://www.w3.org/1999/xlink" xmlns="http://www.w3.org/2000/svg" height="119.1px" width="213.05px">
  <g transform="matrix(1.0, 0.0, 0.0, 1.0, 94.65, 81.2)">
    <g data-characterId="925" height="73.5" transform="matrix(1.0, 0.0, 0.0, 1.0, -67.25, -54.0)" width="144.85" xlink:href="#shape0"><g id="shape0" transform="matrix(1.0, 0.0, 0.0, 1.0, 67.25, 54.0)">
      <path d="M26.85 -43.65 L27.7 -43.75 27.0 -42.4 26.85 -43.65 M-7.75 -4.0 L-8.0 -2.7 -8.55 -3.35 -7.75 -4.0" fill="#003e55" fill-rule="evenodd" stroke="none"/>
      <path d="M-19.25 16.85 L-19.45 16.8 -19.3 16.75 -19.25 16.85" fill="#006699" fill-rule="evenodd" stroke="none"/>
      <path d="M-7.0 -6.75 L-7.4 -4.35 -7.75 -4.0 -7.0 -6.75" fill="url(#gradient0)" fill-rule="evenodd" stroke="none"/>
      <path d="M-19.45 16.8 L-19.6 16.8 -19.35 16.65 -19.3 16.75 -19.45 16.8" fill="url(#gradient1)" fill-rule="evenodd" stroke="none"/>
      <path d="M32.2 -32.2 L32.7 -32.25 Q40.05 -17.65 57.9 -15.1 L68.5 -14.5 69.15 -14.5 Q73.25 -14.15 77.1 -15.55 L71.2 -8.5 71.75 -7.35 68.9 -4.55 Q63.15 0.7 56.5 4.9 49.4 9.35 41.25 12.6 29.5 17.25 17.3 17.25 16.1 17.25 14.9 16.5 L1.55 7.7 -1.1 6.3 Q0.15 9.45 -2.95 10.15 L-4.45 10.4 -6.75 18.45 -13.7 17.6 -17.85 16.95 Q-18.8 14.7 -17.7 12.65 -17.05 11.55 -17.5 10.6 -19.05 7.25 -19.8 3.45 -29.45 2.55 -38.45 6.2 -51.8 11.5 -59.7 -1.7 -62.05 -2.8 -64.05 -4.15 -68.85 -7.45 -65.15 -10.75 -59.7 -15.55 -53.1 -18.25 -41.6 -23.15 -31.45 -29.35 -31.3 -25.3 -32.65 -21.35 -33.4 -19.25 -33.05 -16.85 -31.95 -9.5 -27.2 -4.8 -23.2 -0.9 -16.65 1.1 L-19.8 3.45 -16.65 1.1 -15.4 2.35 -13.45 4.25 -12.55 3.45 Q-10.8 1.4 -8.45 0.5 4.6 -5.1 16.85 -12.25 28.6 -19.05 32.2 -32.2 M64.15 -12.1 Q63.15 -12.65 61.85 -12.5 L60.7 -12.5 57.25 -12.8 55.8 -12.8 54.15 -12.9 50.7 -13.45 50.65 -13.5 47.45 -14.35 Q46.9 -14.55 46.4 -14.85 42.35 -17.1 38.9 -20.2 37.65 -21.35 36.8 -22.75 L35.55 -24.35 Q35.1 -24.85 34.8 -25.45 L33.95 -26.45 Q32.5 -22.55 29.05 -19.0 L28.3 -18.1 Q27.4 -16.7 26.2 -15.75 21.65 -12.05 16.65 -9.65 L10.95 -6.5 8.95 -5.4 Q3.65 -2.7 -1.75 -0.65 -3.25 -0.05 -4.6 0.85 -3.25 -0.05 -1.75 -0.65 3.65 -2.7 8.95 -5.4 L10.95 -6.5 16.65 -9.65 Q21.65 -12.05 26.2 -15.75 27.4 -16.7 28.3 -18.1 L29.05 -19.0 Q32.5 -22.55 33.95 -26.45 L34.8 -25.45 Q35.1 -24.85 35.55 -24.35 L36.8 -22.75 Q37.65 -21.35 38.9 -20.2 42.35 -17.1 46.4 -14.85 46.9 -14.55 47.45 -14.35 L50.65 -13.5 50.7 -13.45 54.15 -12.9 55.8 -12.8 57.25 -12.8 60.7 -12.5 61.85 -12.5 Q63.15 -12.65 64.15 -12.1 M30.5 -2.0 L30.75 -1.15 30.8 -0.05 30.6 0.4 29.3 1.3 Q28.7 1.55 28.4 0.85 27.8 -0.65 27.55 -2.3 27.15 -4.55 28.7 -5.8 L31.15 -5.85 31.6 -5.35 Q33.3 -3.65 34.0 -1.15 L34.8 2.35 Q35.1 4.55 36.35 6.1 L35.25 7.35 Q32.75 10.05 29.05 10.7 23.65 11.65 18.35 13.1 17.05 13.5 15.75 12.4 L15.05 11.7 14.05 10.4 Q10.55 5.7 8.05 0.55 10.55 5.7 14.05 10.4 L15.05 11.7 15.75 12.4 Q17.05 13.5 18.35 13.1 23.65 11.65 29.05 10.7 32.75 10.05 35.25 7.35 L36.35 6.1 Q35.1 4.55 34.8 2.35 L34.0 -1.15 Q33.3 -3.65 31.6 -5.35 L31.15 -5.85 28.7 -5.8 Q27.15 -4.55 27.55 -2.3 27.8 -0.65 28.4 0.85 28.7 1.55 29.3 1.3 L30.6 0.4 30.8 -0.05 30.75 -1.15 30.5 -2.0 M38.55 -10.05 L39.15 -8.95 Q40.15 -7.5 41.1 -8.95 41.6 -9.6 41.6 -10.35 41.6 -12.45 40.65 -14.45 L40.15 -15.0 Q38.4 -15.3 36.75 -14.2 L35.85 -13.4 Q35.65 -13.1 35.7 -12.65 36.3 -8.75 37.3 -4.85 38.7 0.6 40.25 5.75 38.7 0.6 37.3 -4.85 36.3 -8.75 35.7 -12.65 35.65 -13.1 35.85 -13.4 L36.75 -14.2 Q38.4 -15.3 40.15 -15.0 L40.65 -14.45 Q41.6 -12.45 41.6 -10.35 41.6 -9.6 41.1 -8.95 40.15 -7.5 39.15 -8.95 L38.55 -10.05 M-2.25 2.25 Q2.65 0.4 7.7 -0.8 L7.75 -0.8 10.0 -1.3 Q23.95 -4.3 32.2 -15.3 23.95 -4.3 10.0 -1.3 L7.75 -0.8 7.7 -0.8 Q2.65 0.4 -2.25 2.25 M52.95 -9.5 L53.5 -10.05 Q54.75 -11.2 54.15 -12.9 54.75 -11.2 53.5 -10.05 L52.95 -9.5 M48.3 -8.05 L48.7 -8.5 Q51.65 -10.2 50.7 -13.45 51.65 -10.2 48.7 -8.5 L48.3 -8.05 M40.85 6.05 Q46.4 5.05 51.25 2.1 L53.4 0.75 62.35 -5.55 63.55 -6.6 67.0 -10.35 67.65 -11.45 68.5 -13.85 68.5 -14.5 68.5 -13.85 67.65 -11.45 67.0 -10.35 63.55 -6.6 62.35 -5.55 53.4 0.75 51.25 2.1 Q46.4 5.05 40.85 6.05 M73.1 -13.2 Q71.85 -12.35 70.5 -12.95 71.85 -12.35 73.1 -13.2 M-55.3 -15.05 L-54.6 -14.15 -54.1 -13.55 -54.6 -14.15 -55.3 -15.05 -57.35 -13.95 -58.65 -13.15 -62.45 -10.65 -62.9 -10.25 Q-63.75 -9.1 -64.75 -8.35 -63.75 -9.1 -62.9 -10.25 L-62.45 -10.65 -58.65 -13.15 -57.35 -13.95 -55.3 -15.05 -54.1 -15.6 Q-48.6 -17.85 -43.45 -20.2 -40.95 -21.35 -38.65 -22.6 -38.4 -22.7 -38.2 -22.95 L-36.05 -24.85 -35.6 -25.2 Q-34.85 -25.75 -33.65 -25.9 -34.05 -24.4 -34.85 -22.9 L-35.6 -20.7 -35.7 -19.55 -35.6 -20.7 -34.85 -22.9 Q-34.05 -24.4 -33.65 -25.9 -34.85 -25.75 -35.6 -25.2 L-36.05 -24.85 -38.2 -22.95 Q-38.4 -22.7 -38.65 -22.6 -40.95 -21.35 -43.45 -20.2 -48.6 -17.85 -54.1 -15.6 L-55.3 -15.05 M-40.55 -9.2 Q-40.3 -7.0 -38.25 -8.05 L-39.7 -12.65 -40.15 -13.2 -41.1 -13.15 -43.05 -12.0 -43.25 -11.55 Q-42.8 -8.45 -41.9 -5.5 L-40.65 -2.7 Q-39.45 -0.6 -39.15 1.7 L-38.85 1.65 -38.05 1.35 -36.75 0.75 Q-34.35 -0.15 -32.0 -1.2 -29.45 -2.4 -28.2 -3.75 -29.45 -2.4 -32.0 -1.2 -34.35 -0.15 -36.75 0.75 L-38.05 1.35 -38.85 1.65 -39.15 1.7 Q-39.45 -0.6 -40.65 -2.7 L-41.9 -5.5 Q-42.8 -8.45 -43.25 -11.55 L-43.05 -12.0 -41.1 -13.15 -40.15 -13.2 -39.7 -12.65 -38.25 -8.05 Q-40.3 -7.0 -40.55 -9.2 M-62.15 -7.2 L-60.3 -5.85 -58.15 -4.1 Q-55.2 -2.05 -52.65 0.55 L-52.3 0.75 -51.9 1.0 Q-51.0 1.6 -49.8 1.55 -47.4 1.45 -45.25 0.45 L-44.85 -0.05 Q-44.6 -1.85 -44.7 -3.75 -44.75 -4.6 -45.2 -5.25 -46.95 -7.85 -46.05 -10.65 L-46.35 -10.7 -48.35 -10.95 -48.35 -10.65 Q-48.7 -8.55 -47.75 -6.9 -48.7 -8.55 -48.35 -10.65 L-48.35 -10.95 -46.35 -10.7 -46.05 -10.65 Q-46.95 -7.85 -45.2 -5.25 -44.75 -4.6 -44.7 -3.75 -44.6 -1.85 -44.85 -0.05 L-45.25 0.45 Q-47.4 1.45 -49.8 1.55 -51.0 1.6 -51.9 1.0 L-52.3 0.75 -52.65 0.55 Q-55.2 -2.05 -58.15 -4.1 L-60.3 -5.85 -62.15 -7.2 M-54.85 -11.1 Q-56.25 -12.2 -57.35 -13.95 -56.25 -12.2 -54.85 -11.1 M-12.55 3.45 Q-9.35 2.0 -6.7 4.85 L-5.9 4.65 Q-3.1 4.0 -1.1 6.3 -3.1 4.0 -5.9 4.65 L-6.7 4.85 Q-9.35 2.0 -12.55 3.45 M-12.7 7.5 Q-17.25 11.4 -10.4 12.3 -8.3 11.8 -8.95 9.55 -9.65 7.35 -12.1 6.9 L-12.7 7.5" fill="url(#gradient2)" fill-rule="evenodd" stroke="none"/>
      <path d="M-12.1 8.2 L-12.1 8.25 -12.9 8.55 -13.05 9.0 -13.1 9.4 Q-12.5 10.7 -11.35 9.85 L-11.25 9.6 Q-10.85 8.5 -12.1 8.2 M-12.1 6.9 Q-9.65 7.35 -8.95 9.55 -8.3 11.8 -10.4 12.3 -17.25 11.4 -12.7 7.5 L-12.1 6.9" fill="#ff6600" fill-rule="evenodd" stroke="none"/>
      <path d="M-12.1 8.2 Q-10.85 8.5 -11.25 9.6 L-11.35 9.85 Q-12.5 10.7 -13.1 9.4 L-13.05 9.0 -12.9 8.55 -12.1 8.25 -12.1 8.2" fill="#ffe473" fill-rule="evenodd" stroke="none"/>
      <path d="M26.35 -51.3 L26.0 -53.5 Q33.4 -51.7 32.75 -44.0 32.25 -38.1 32.2 -32.25 L32.2 -32.2 Q28.6 -19.05 16.85 -12.25 4.6 -5.1 -8.45 0.5 -10.8 1.4 -12.55 3.45 L-13.45 4.25 -15.4 2.35 Q-15.05 -2.55 -8.55 -3.35 -15.05 -2.55 -15.4 2.35 L-16.65 1.1 Q-23.2 -0.9 -27.2 -4.8 -31.95 -9.5 -33.05 -16.85 -33.4 -19.25 -32.65 -21.35 -31.3 -25.3 -31.45 -29.35 -31.6 -32.1 -32.45 -34.9 -33.35 -37.95 -32.05 -40.2 L-30.45 -40.35 -29.8 -40.05 -28.7 -38.95 Q-28.9 -26.05 -22.75 -15.45 L-21.15 -12.9 Q-16.45 -5.9 -8.55 -3.35 L-8.0 -2.7 -7.75 -4.0 -7.4 -4.35 -7.0 -6.75 -4.9 -13.45 Q-4.2 -19.8 0.3 -24.95 4.8 -30.1 27.0 -42.4 L27.7 -43.75 Q29.95 -48.05 26.35 -51.3 M68.9 -4.55 L76.05 4.25 56.5 4.9 Q63.15 0.7 68.9 -4.55 M14.9 16.5 Q4.2 19.2 -6.75 18.45 L-4.45 10.4 -2.95 10.15 Q0.15 9.45 -1.1 6.3 L1.55 7.7 14.9 16.5 M29.6 -41.15 L29.05 -41.15 28.45 -41.15 29.05 -41.15 29.6 -41.15 M26.75 -37.7 L26.15 -37.7 Q25.25 -37.6 24.75 -38.25 25.25 -37.6 26.15 -37.7 L26.75 -37.7 M23.3 -35.1 Q21.7 -34.9 21.0 -35.95 21.7 -34.9 23.3 -35.1 M4.3 -21.0 L3.75 -20.7 Q2.55 -20.0 1.75 -21.35 1.4 -21.85 0.85 -21.8 -0.35 -21.6 -0.85 -20.15 -0.35 -21.6 0.85 -21.8 1.4 -21.85 1.75 -21.35 2.55 -20.0 3.75 -20.7 L4.3 -21.0 M1.7 -17.05 Q1.55 -18.0 0.55 -18.15 0.05 -16.9 -0.85 -15.85 L-2.0 -17.0 -2.1 -16.45 -2.2 -16.05 -2.4 -15.75 Q-2.8 -15.6 -2.75 -14.95 -2.65 -13.6 -2.95 -12.4 L-3.05 -12.1 Q-3.05 -10.95 -3.45 -10.05 L-3.9 -8.85 -4.15 -8.1 -5.0 -5.5 Q-5.4 -4.35 -5.45 -4.6 -5.4 -4.35 -5.0 -5.5 L-4.15 -8.1 -3.9 -8.85 -3.45 -10.05 Q-3.05 -10.95 -3.05 -12.1 L-2.95 -12.4 Q-2.65 -13.6 -2.75 -14.95 -2.8 -15.6 -2.4 -15.75 L-2.2 -16.05 -2.1 -16.45 -2.0 -17.0 -0.85 -15.85 Q0.05 -16.9 0.55 -18.15 1.55 -18.0 1.7 -17.05 M7.45 -23.9 L7.15 -24.4 Q6.9 -24.75 6.7 -24.7 L4.3 -24.15 Q2.9 -23.95 3.15 -25.3 2.9 -23.95 4.3 -24.15 L6.7 -24.7 Q6.9 -24.75 7.15 -24.4 L7.45 -23.9 M19.0 -32.8 L18.45 -33.15 Q17.45 -33.95 18.1 -34.8 17.45 -33.95 18.45 -33.15 L19.0 -32.8 M16.95 -28.75 L16.4 -29.35 Q14.7 -30.15 14.95 -31.95 14.7 -30.15 16.4 -29.35 L16.95 -28.75 M14.05 -27.8 L12.65 -28.5 Q11.3 -29.1 11.8 -30.8 11.3 -29.1 12.65 -28.5 L14.05 -27.8 M10.65 -25.6 L10.15 -26.6 Q9.95 -26.9 9.5 -26.85 7.7 -26.7 7.75 -28.5 7.7 -26.7 9.5 -26.85 9.95 -26.9 10.15 -26.6 L10.65 -25.6 M-17.85 16.95 L-19.25 16.85 -19.3 16.75 -19.35 16.65 -19.6 16.8 Q-33.6 15.45 -47.35 12.75 -52.3 11.65 -57.2 9.8 -59.35 8.9 -59.5 6.25 L-59.7 -1.7 Q-51.8 11.5 -38.45 6.2 -29.45 2.55 -19.8 3.45 -19.05 7.25 -17.5 10.6 -17.05 11.55 -17.7 12.65 -18.8 14.7 -17.85 16.95 M-18.15 -7.2 L-19.0 -7.8 Q-20.2 -8.7 -21.25 -10.1 L-23.5 -13.05 Q-27.05 -17.8 -28.5 -23.3 -27.05 -17.8 -23.5 -13.05 L-21.25 -10.1 Q-20.2 -8.7 -19.0 -7.8 L-18.15 -7.2 M-30.25 -36.25 Q-30.65 -37.4 -31.1 -37.1 -30.65 -37.4 -30.25 -36.25 M-29.65 -33.4 L-30.5 -33.4 -29.65 -33.4 M-28.75 -27.55 L-29.65 -27.05 -28.75 -27.55 M-29.4 -31.2 L-30.2 -30.8 -29.4 -31.2" fill="#e78d1e" fill-rule="evenodd" stroke="none"/>
      <path d="M26.25 -50.0 L26.35 -51.3 Q29.95 -48.05 27.7 -43.75 L26.85 -43.65 26.25 -50.0 M-4.9 -13.45 L-7.0 -6.75 -7.75 -4.0 -8.55 -3.35 Q-16.45 -5.9 -21.15 -12.9 L-22.75 -15.45 Q-28.9 -26.05 -28.7 -38.95 -24.95 -37.45 -21.1 -37.6 L-19.35 -37.9 -21.85 -15.95 Q-19.9 -13.45 -16.65 -13.0 L-13.65 -12.5 Q-9.2 -11.95 -4.9 -13.45" fill="#562f0a" fill-rule="evenodd" stroke="none"/>
      <path d="M26.35 -51.3 L26.0 -53.5 Q33.4 -51.7 32.75 -44.0 32.25 -38.1 32.2 -32.25 L32.2 -32.2 32.7 -32.25 Q40.05 -17.65 57.9 -15.1 L68.5 -14.5 69.15 -14.5 Q73.25 -14.15 77.1 -15.55 L71.2 -8.5 71.75 -7.35 68.9 -4.55 76.05 4.25 56.5 4.9 Q49.4 9.35 41.25 12.6 29.5 17.25 17.3 17.25 16.1 17.25 14.9 16.5 4.2 19.2 -6.75 18.45 L-6.9 19.0 M27.7 -43.75 Q29.95 -48.05 26.35 -51.3 M27.7 -43.75 L27.0 -42.4 Q4.8 -30.1 0.3 -24.95 -4.2 -19.8 -4.9 -13.45 L-7.0 -6.75 -7.4 -4.35 -7.75 -4.0 -8.55 -3.35 Q-15.05 -2.55 -15.4 2.35 L-13.45 4.25 -12.55 3.45 Q-10.8 1.4 -8.45 0.5 4.6 -5.1 16.85 -12.25 28.6 -19.05 32.2 -32.2 M27.0 -42.4 L26.85 -43.65 26.25 -50.0 M32.2 -15.3 Q23.95 -4.3 10.0 -1.3 L7.75 -0.8 7.7 -0.8 Q2.65 0.4 -2.25 2.25 M40.25 5.75 Q38.7 0.6 37.3 -4.85 36.3 -8.75 35.7 -12.65 35.65 -13.1 35.85 -13.4 L36.75 -14.2 Q38.4 -15.3 40.15 -15.0 L40.65 -14.45 Q41.6 -12.45 41.6 -10.35 41.6 -9.6 41.1 -8.95 40.15 -7.5 39.15 -8.95 L38.55 -10.05 M8.05 0.55 Q10.55 5.7 14.05 10.4 L15.05 11.7 15.75 12.4 Q17.05 13.5 18.35 13.1 23.65 11.65 29.05 10.7 32.75 10.05 35.25 7.35 L36.35 6.1 Q35.1 4.55 34.8 2.35 L34.0 -1.15 Q33.3 -3.65 31.6 -5.35 L31.15 -5.85 28.7 -5.8 Q27.15 -4.55 27.55 -2.3 27.8 -0.65 28.4 0.85 28.7 1.55 29.3 1.3 L30.6 0.4 30.8 -0.05 30.75 -1.15 30.5 -2.0 M68.5 -14.5 L68.5 -13.85 67.65 -11.45 67.0 -10.35 63.55 -6.6 62.35 -5.55 53.4 0.75 51.25 2.1 Q46.4 5.05 40.85 6.05 M14.9 16.5 L1.55 7.7 -1.1 6.3 Q0.15 9.45 -2.95 10.15 L-4.45 10.4 -6.75 18.45 -13.7 17.6 -17.85 16.95 -19.25 16.85 -19.45 16.8 -19.6 16.8 Q-33.6 15.45 -47.35 12.75 -52.3 11.65 -57.2 9.8 -59.35 8.9 -59.5 6.25 L-59.7 -1.7 Q-62.05 -2.8 -64.05 -4.15 -68.85 -7.45 -65.15 -10.75 -59.7 -15.55 -53.1 -18.25 -41.6 -23.15 -31.45 -29.35 -31.6 -32.1 -32.45 -34.9 -33.35 -37.95 -32.05 -40.2 L-30.45 -40.35 -29.8 -40.05 -28.7 -38.95 Q-24.95 -37.45 -21.1 -37.6 L-19.35 -37.9 -21.85 -15.95 Q-19.9 -13.45 -16.65 -13.0 L-13.65 -12.5 Q-9.2 -11.95 -4.9 -13.45 M68.9 -4.55 Q63.15 0.7 56.5 4.9 M-47.75 -6.9 Q-48.7 -8.55 -48.35 -10.65 L-48.35 -10.95 -46.35 -10.7 -46.05 -10.65 Q-46.95 -7.85 -45.2 -5.25 -44.75 -4.6 -44.7 -3.75 -44.6 -1.85 -44.85 -0.05 L-45.25 0.45 Q-47.4 1.45 -49.8 1.55 -51.0 1.6 -51.9 1.0 L-52.3 0.75 -52.65 0.55 Q-55.2 -2.05 -58.15 -4.1 L-60.3 -5.85 -62.15 -7.2 M-28.2 -3.75 Q-29.45 -2.4 -32.0 -1.2 -34.35 -0.15 -36.75 0.75 L-38.05 1.35 -38.85 1.65 -39.15 1.7 Q-39.45 -0.6 -40.65 -2.7 L-41.9 -5.5 Q-42.8 -8.45 -43.25 -11.55 L-43.05 -12.0 -41.1 -13.15 -40.15 -13.2 -39.7 -12.65 -38.25 -8.05 Q-40.3 -7.0 -40.55 -9.2 M-28.7 -38.95 Q-28.9 -26.05 -22.75 -15.45 L-21.15 -12.9 Q-16.45 -5.9 -8.55 -3.35 M-16.65 1.1 Q-23.2 -0.9 -27.2 -4.8 -31.95 -9.5 -33.05 -16.85 -33.4 -19.25 -32.65 -21.35 -31.3 -25.3 -31.45 -29.35 M-1.1 6.3 Q-3.1 4.0 -5.9 4.65 L-6.7 4.85 Q-9.35 2.0 -12.55 3.45 M-19.8 3.45 L-16.65 1.1 -15.4 2.35 M-12.7 7.5 Q-17.25 11.4 -10.4 12.3 -8.3 11.8 -8.95 9.55 -9.65 7.35 -12.1 6.9 M-19.8 3.45 Q-19.05 7.25 -17.5 10.6 -17.05 11.55 -17.7 12.65 -18.8 14.7 -17.85 16.95 M-19.3 16.75 L-19.35 16.65 M-19.25 16.85 L-19.3 16.75 M-59.7 -1.7 Q-51.8 11.5 -38.45 6.2 -29.45 2.55 -19.8 3.45" fill="none" stroke="#000000" stroke-linecap="round" stroke-linejoin="round" stroke-width="2.0"/>
      <path d="M24.75 -38.25 Q25.25 -37.6 26.15 -37.7 L26.75 -37.7 M28.45 -41.15 L29.05 -41.15 29.6 -41.15 M21.0 -35.95 Q21.7 -34.9 23.3 -35.1 M-4.6 0.85 Q-3.25 -0.05 -1.75 -0.65 3.65 -2.7 8.95 -5.4 L10.95 -6.5 16.65 -9.65 Q21.65 -12.05 26.2 -15.75 27.4 -16.7 28.3 -18.1 L29.05 -19.0 Q32.5 -22.55 33.95 -26.45 L34.8 -25.45 Q35.1 -24.85 35.55 -24.35 L36.8 -22.75 Q37.65 -21.35 38.9 -20.2 42.35 -17.1 46.4 -14.85 46.9 -14.55 47.45 -14.35 L50.65 -13.5 50.7 -13.45 54.15 -12.9 55.8 -12.8 57.25 -12.8 60.7 -12.5 61.85 -12.5 Q63.15 -12.65 64.15 -12.1 M7.75 -28.5 Q7.7 -26.7 9.5 -26.85 9.95 -26.9 10.15 -26.6 L10.65 -25.6 M11.8 -30.8 Q11.3 -29.1 12.65 -28.5 L14.05 -27.8 M14.95 -31.95 Q14.7 -30.15 16.4 -29.35 L16.95 -28.75 M18.1 -34.8 Q17.45 -33.95 18.45 -33.15 L19.0 -32.8 M3.15 -25.3 Q2.9 -23.95 4.3 -24.15 L6.7 -24.7 Q6.9 -24.75 7.15 -24.4 L7.45 -23.9 M-5.45 -4.6 Q-5.4 -4.35 -5.0 -5.5 L-4.15 -8.1 -3.9 -8.85 -3.45 -10.05 Q-3.05 -10.95 -3.05 -12.1 L-2.95 -12.4 Q-2.65 -13.6 -2.75 -14.95 -2.8 -15.6 -2.4 -15.75 L-2.2 -16.05 -2.1 -16.45 -2.0 -17.0 -0.85 -15.85 Q0.05 -16.9 0.55 -18.15 1.55 -18.0 1.7 -17.05 M-0.85 -20.15 Q-0.35 -21.6 0.85 -21.8 1.4 -21.85 1.75 -21.35 2.55 -20.0 3.75 -20.7 L4.3 -21.0 M50.7 -13.45 Q51.65 -10.2 48.7 -8.5 L48.3 -8.05 M54.15 -12.9 Q54.75 -11.2 53.5 -10.05 L52.95 -9.5 M70.5 -12.95 Q71.85 -12.35 73.1 -13.2 M-64.75 -8.35 Q-63.75 -9.1 -62.9 -10.25 L-62.45 -10.65 -58.65 -13.15 -57.35 -13.95 -55.3 -15.05 -54.1 -15.6 Q-48.6 -17.85 -43.45 -20.2 -40.95 -21.35 -38.65 -22.6 -38.4 -22.7 -38.2 -22.95 L-36.05 -24.85 -35.6 -25.2 Q-34.85 -25.75 -33.65 -25.9 -34.05 -24.4 -34.85 -22.9 L-35.6 -20.7 -35.7 -19.55 M-54.1 -13.55 L-54.6 -14.15 -55.3 -15.05 M-57.35 -13.95 Q-56.25 -12.2 -54.85 -11.1 M-30.2 -30.8 L-29.4 -31.2 M-29.65 -27.05 L-28.75 -27.55 M-30.5 -33.4 L-29.65 -33.4 M-31.1 -37.1 Q-30.65 -37.4 -30.25 -36.25 M-28.5 -23.3 Q-27.05 -17.8 -23.5 -13.05 L-21.25 -10.1 Q-20.2 -8.7 -19.0 -7.8 L-18.15 -7.2" fill="none" stroke="#fff18a" stroke-linecap="round" stroke-linejoin="round" stroke-width="2.0"/>
    </g>
    </g>
  </g>
  <defs>
    <linearGradient gradientTransform="matrix(-0.004, -0.0418, 0.0441, -0.0043, 0.45, -17.2)" gradientUnits="userSpaceOnUse" id="gradient0" spreadMethod="pad" x1="-819.2" x2="819.2">
      <stop offset="0.0" stop-color="#006699"/>
      <stop offset="1.0" stop-color="#018cc0"/>
    </linearGradient>
    <linearGradient gradientTransform="matrix(0.0012, -0.0188, 0.022, 0.0014, -34.7, -1.25)" gradientUnits="userSpaceOnUse" id="gradient1" spreadMethod="pad" x1="-819.2" x2="819.2">
      <stop offset="0.0" stop-color="#669999"/>
      <stop offset="1.0" stop-color="#9abab9"/>
    </linearGradient>
    <linearGradient gradientTransform="matrix(0.0634, 0.0, 0.0, 0.032, -4.5, -16.85)" gradientUnits="userSpaceOnUse" id="gradient2" spreadMethod="pad" x1="-819.2" x2="819.2">
      <stop offset="0.0" stop-color="#d8b42c"/>
      <stop offset="0.5450980392156862" stop-color="#ffffff"/>
      <stop offset="1.0" stop-color="#d7b433"/>
    </linearGradient>
  </defs>
</svg>