<svg xmlns:xlink="http://www.w3.org/1999/xlink" xmlns="http://www.w3.org/2000/svg" height="8.55px" width="21.25px">
  <g transform="matrix(1.0, 0.0, 0.0, 1.0, 7.1, 1.15)">
    <path d="M-6.15 1.0 L-6.6 1.0 Q3.9 -2.85 10.9 2.2 L13.25 3.85 Q13.65 4.5 13.65 5.4 L12.3 6.9 8.65 5.65 0.4 5.1 -4.8 5.3 -4.8 4.6 -4.1 3.15 -5.25 1.8 -6.15 1.0" fill="#660000" fill-rule="evenodd" stroke="none"/>
    <path d="M-6.6 1.0 Q3.9 -2.85 10.9 2.2 L13.25 3.85 Q13.65 4.5 13.65 5.4 L12.3 6.9 8.65 5.65 0.4 5.1 -4.8 5.3 M-4.8 4.6 L-4.1 3.15 -5.25 1.8 -6.15 1.0" fill="none" stroke="#000000" stroke-linecap="round" stroke-linejoin="round" stroke-width="2.0"/>
  </g>
</svg>