<svg xmlns:xlink="http://www.w3.org/1999/xlink" xmlns="http://www.w3.org/2000/svg" height="264.15px" width="342.25px">
  <g transform="matrix(1.0, 0.0, 0.0, 1.0, 243.25, 83.7)">
    <g data-characterId="1166" height="160.45" transform="matrix(1.0, 0.0, 0.0, 1.0, -40.9, -53.75)" width="104.8" xlink:href="#shape0"><g id="shape0" transform="matrix(1.0, 0.0, 0.0, 1.0, 40.9, 53.75)">
      <path d="M16.95 7.65 Q21.35 9.75 25.95 11.55 L29.65 13.0 33.7 14.45 Q35.55 15.1 36.9 16.35 L36.95 16.4 37.05 16.5 37.1 16.55 Q38.55 17.9 39.4 20.0 40.4 22.55 40.85 25.25 L41.0 26.35 40.45 26.4 39.25 29.4 Q38.85 30.25 39.1 30.9 39.6 32.2 38.95 33.85 38.6 34.85 38.6 35.7 L38.45 37.3 Q38.15 38.8 38.15 40.3 L39.6 40.1 42.2 39.0 Q43.75 38.25 44.5 36.85 L45.05 35.8 47.1 36.45 Q50.85 38.25 51.6 42.1 L52.05 44.3 Q53.0 49.1 52.5 54.1 L52.15 56.35 Q51.7 58.05 51.75 59.85 L51.6 64.45 Q51.25 67.7 53.15 70.05 58.0 76.1 63.9 80.6 54.2 80.6 46.0 76.65 42.6 75.05 40.15 73.35 34.45 69.45 32.85 62.75 32.05 59.4 32.55 55.9 32.9 53.25 31.85 51.55 30.2 53.0 28.25 54.15 27.35 54.7 27.45 55.05 27.85 57.0 26.55 58.75 25.1 60.65 24.85 62.75 L24.35 64.1 22.65 65.85 Q21.35 66.95 21.5 68.5 L21.45 70.2 20.8 72.0 19.25 73.95 17.4 75.55 14.55 77.4 Q13.55 78.0 12.95 79.0 11.3 81.9 9.1 84.55 L7.85 86.5 Q7.05 88.25 5.6 89.6 4.1 90.95 2.3 91.55 -0.45 92.45 -0.45 94.95 -0.45 96.8 -2.15 98.05 -3.15 98.75 -4.15 99.0 -6.5 99.7 -7.55 101.85 L-8.8 104.65 Q-9.15 105.65 -10.0 106.05 L-12.1 106.65 Q-14.05 106.9 -14.25 105.35 -14.7 102.25 -15.5 99.6 -15.8 98.45 -15.55 97.45 -14.9 95.4 -15.65 93.85 L-16.25 92.05 Q-16.45 90.3 -17.8 89.1 -19.65 87.5 -19.55 85.2 -19.55 84.35 -19.8 83.55 -20.7 80.65 -22.65 78.5 -23.85 77.15 -23.5 75.4 L-23.15 73.65 Q-23.0 72.85 -23.3 72.1 -23.85 70.8 -25.0 70.1 -26.9 68.95 -27.3 66.75 -27.6 65.35 -27.55 63.9 -27.5 61.15 -28.75 58.7 -30.1 56.05 -30.2 52.95 -30.2 52.1 -30.35 51.2 -30.5 50.1 -30.95 49.15 -31.45 48.05 -31.0 46.65 -29.8 42.95 -29.35 39.15 L-28.25 42.65 -26.45 46.05 Q-25.3 48.1 -25.15 50.9 -25.0 53.65 -24.6 54.55 L-23.65 56.35 Q-23.15 57.25 -22.6 58.6 -22.05 59.95 -21.2 60.5 L-20.1 60.6 Q-18.5 58.35 -17.25 55.85 -16.15 57.25 -14.95 57.55 -14.65 55.75 -13.25 55.85 -11.1 59.45 -9.2 56.4 L-7.4 59.3 -6.15 60.85 Q-3.6 63.45 -0.6 62.0 L1.15 61.0 2.85 59.8 9.25 54.75 11.25 52.75 12.3 51.35 13.35 49.35 Q14.15 47.05 15.55 44.9 L16.5 43.1 17.55 41.05 Q18.4 39.65 18.8 37.95 L19.25 36.35 Q19.6 35.4 20.35 35.05 24.45 33.35 24.25 29.35 24.2 28.5 24.45 27.75 L25.15 25.8 26.7 22.0 Q27.1 21.05 27.1 20.15 27.15 18.1 27.9 16.35 26.2 16.85 25.15 18.3 24.5 19.3 24.05 19.1 20.35 17.5 17.85 20.75 L17.3 19.6 16.4 18.1 Q12.3 13.5 12.65 6.95 L12.85 6.3 12.95 6.35 16.15 7.25 16.95 7.65 M-32.15 4.5 L-31.6 5.85 Q-31.0 9.15 -32.8 12.1 -34.45 14.8 -34.45 17.85 L-34.0 23.6 -33.95 24.75 -34.45 24.65 -34.5 24.65 Q-36.25 24.1 -37.25 22.35 -37.65 21.6 -37.4 21.0 -36.7 19.45 -38.05 17.95 -40.05 15.8 -38.5 13.25 -37.95 12.4 -38.1 11.65 -38.8 7.45 -36.75 3.9 L-33.7 4.5 -32.25 4.5 -32.15 4.5 M29.35 13.85 Q28.45 15.0 27.9 16.35 28.45 15.0 29.35 13.85 M38.15 40.3 L38.25 42.55 Q38.55 44.8 36.75 45.9 36.0 46.35 35.6 46.95 34.0 49.55 31.85 51.55 34.0 49.55 35.6 46.95 36.0 46.35 36.75 45.9 38.55 44.8 38.25 42.55 L38.15 40.3 M40.3 25.35 L40.45 26.4 40.3 25.35" fill="#000000" fill-rule="evenodd" stroke="none"/>
      <path d="M-12.4 -10.2 Q-14.2 -8.5 -16.7 -8.5 -18.4 -8.5 -19.8 -9.3 L-21.2 -10.45 Q-23.05 -12.4 -23.05 -15.2 -23.05 -18.0 -21.2 -19.95 -19.35 -21.9 -16.7 -21.9 -14.05 -21.9 -12.2 -19.95 -10.35 -18.0 -10.35 -15.2 -10.35 -12.4 -12.2 -10.45 L-12.4 -10.2" fill="#0eff35" fill-rule="evenodd" stroke="none"/>
      <path d="M34.55 -2.2 L28.8 -5.8 34.55 -2.2 32.7 0.1 Q28.75 0.6 25.05 -2.1 22.55 -3.9 19.7 -5.15 L16.7 -6.35 Q21.7 -2.25 21.8 3.65 21.8 4.4 21.25 5.1 19.55 7.0 16.95 7.65 L16.15 7.25 12.95 6.35 12.85 6.3 6.35 4.3 Q-2.75 1.4 -12.1 -9.8 L-12.4 -10.2 -12.2 -10.45 Q-10.35 -12.4 -10.35 -15.2 -10.35 -18.0 -12.2 -19.95 -14.05 -21.9 -16.7 -21.9 -19.35 -21.9 -21.2 -19.95 -23.05 -18.0 -23.05 -15.2 -23.05 -12.4 -21.2 -10.45 L-19.8 -9.3 Q-23.9 -1.05 -30.05 3.55 -31.05 4.3 -32.15 4.5 L-32.25 4.5 -33.7 4.5 -36.75 3.9 Q-43.9 1.3 -37.05 -11.75 -40.3 -27.0 -25.05 -35.7 L-23.6 -36.35 Q-9.4 -59.75 19.55 -50.75 31.4 -47.1 38.45 -40.2 38.55 -35.55 40.7 -31.5 43.3 -26.6 42.75 -21.4 42.45 -18.8 40.1 -17.75 37.95 -16.75 35.25 -16.35 L32.25 -15.55 Q37.2 -12.05 40.3 -7.0 41.6 -4.9 41.3 -2.55 L41.05 -1.7 34.55 -2.2 M-10.95 -35.15 L-14.3 -36.15 Q-18.95 -37.75 -23.6 -36.35 -18.95 -37.75 -14.3 -36.15 L-10.95 -35.15 M35.7 -34.55 Q33.95 -32.9 31.95 -33.85 15.5 -42.15 0.0 -38.0 15.5 -42.15 31.95 -33.85 33.95 -32.9 35.7 -34.55 M-35.65 -6.95 L-37.05 -11.75 -35.65 -6.95" fill="#333333" fill-rule="evenodd" stroke="none"/>
      <path d="M34.55 -2.2 L41.05 -1.7 41.3 -2.55 Q41.6 -4.9 40.3 -7.0 37.2 -12.05 32.25 -15.55 L35.25 -16.35 Q37.95 -16.75 40.1 -17.75 42.45 -18.8 42.75 -21.4 43.3 -26.6 40.7 -31.5 38.55 -35.55 38.45 -40.2 49.65 -29.35 48.9 -10.4 L48.4 -9.75 Q60.0 1.15 49.5 18.05 L47.9 20.8 43.45 24.4 41.0 26.4 41.0 26.35 41.0 26.4 43.45 24.4 Q46.4 27.1 46.65 31.1 46.8 33.05 46.0 34.25 L45.05 35.8 44.5 36.85 Q43.75 38.25 42.2 39.0 L39.6 40.1 38.15 40.3 Q38.15 38.8 38.45 37.3 L38.6 35.7 Q38.6 34.85 38.95 33.85 39.6 32.2 39.1 30.9 38.85 30.25 39.25 29.4 L40.45 26.4 41.0 26.35 40.85 25.25 Q40.4 22.55 39.4 20.0 38.55 17.9 37.1 16.55 L37.05 16.5 36.95 16.4 36.9 16.35 Q35.55 15.1 33.7 14.45 L29.65 13.0 25.95 11.55 Q21.35 9.75 16.95 7.65 19.55 7.0 21.25 5.1 21.8 4.4 21.8 3.65 21.7 -2.25 16.7 -6.35 L19.7 -5.15 Q22.55 -3.9 25.05 -2.1 28.75 0.6 32.7 0.1 L34.55 -2.2 Q44.3 5.15 47.35 18.0 L47.9 20.8 47.35 18.0 Q44.3 5.15 34.55 -2.2 M42.0 -14.4 Q45.75 -12.25 48.4 -9.75 45.75 -12.25 42.0 -14.4" fill="#222222" fill-rule="evenodd" stroke="none"/>
      <path d="M28.8 -5.8 L34.55 -2.2 Q44.3 5.15 47.35 18.0 L47.9 20.8 43.45 24.4 41.0 26.4 41.0 26.35 40.85 25.25 Q40.4 22.55 39.4 20.0 38.55 17.9 37.1 16.55 L37.05 16.5 36.95 16.4 36.9 16.35 Q35.55 15.1 33.7 14.45 L29.65 13.0 25.95 11.55 Q21.35 9.75 16.95 7.65 L16.15 7.25 12.95 6.35 12.85 6.3 6.35 4.3 Q-2.75 1.4 -12.1 -9.8 M38.45 -40.2 Q31.4 -47.1 19.55 -50.75 -9.4 -59.75 -23.6 -36.35 -18.95 -37.75 -14.3 -36.15 L-10.95 -35.15 M0.0 -38.0 Q15.5 -42.15 31.95 -33.85 33.95 -32.9 35.7 -34.55 M48.4 -9.75 Q45.75 -12.25 42.0 -14.4 M48.4 -9.75 Q60.0 1.15 49.5 18.05 L47.9 20.8 M38.45 -40.2 Q49.65 -29.35 48.9 -10.4 M-12.4 -10.2 Q-14.2 -8.5 -16.7 -8.5 -18.4 -8.5 -19.8 -9.3 -23.9 -1.05 -30.05 3.55 -31.05 4.3 -32.15 4.5 L-32.25 4.5 -33.7 4.5 -36.75 3.9 Q-43.9 1.3 -37.05 -11.75 -40.3 -27.0 -25.05 -35.7 L-23.6 -36.35 M-37.05 -11.75 L-35.65 -6.95 M-12.4 -10.2 L-12.2 -10.45 Q-10.35 -12.4 -10.35 -15.2 -10.35 -18.0 -12.2 -19.95 -14.05 -21.9 -16.7 -21.9 -19.35 -21.9 -21.2 -19.95 -23.05 -18.0 -23.05 -15.2 -23.05 -12.4 -21.2 -10.45 L-19.8 -9.3" fill="none" stroke="#000000" stroke-linecap="round" stroke-linejoin="round" stroke-width="2.0"/>
      <path d="M45.05 35.8 L46.0 34.25 Q46.8 33.05 46.65 31.1 46.4 27.1 43.45 24.4 M40.45 26.4 L39.25 29.4 Q38.85 30.25 39.1 30.9 39.6 32.2 38.95 33.85 38.6 34.85 38.6 35.7 L38.45 37.3 Q38.15 38.8 38.15 40.3 L39.6 40.1 42.2 39.0 Q43.75 38.25 44.5 36.85 L45.05 35.8 47.1 36.45 Q50.85 38.25 51.6 42.1 L52.05 44.3 Q53.0 49.1 52.5 54.1 L52.15 56.35 Q51.7 58.05 51.75 59.85 L51.6 64.45 Q51.25 67.7 53.15 70.05 58.0 76.1 63.9 80.6 54.2 80.6 46.0 76.65 42.6 75.05 40.15 73.35 34.45 69.45 32.85 62.75 32.05 59.4 32.55 55.9 32.9 53.25 31.85 51.55 30.2 53.0 28.25 54.15 27.35 54.7 27.45 55.05 27.85 57.0 26.55 58.75 25.1 60.65 24.85 62.75 L24.35 64.1 22.65 65.85 Q21.35 66.95 21.5 68.5 L21.45 70.2 20.8 72.0 19.25 73.95 17.4 75.55 14.55 77.4 Q13.55 78.0 12.95 79.0 11.3 81.9 9.1 84.55 L7.85 86.5 Q7.05 88.25 5.6 89.6 4.1 90.95 2.3 91.55 -0.45 92.45 -0.45 94.95 -0.45 96.8 -2.15 98.05 -3.15 98.75 -4.15 99.0 -6.5 99.7 -7.55 101.85 L-8.8 104.65 Q-9.15 105.65 -10.0 106.05 L-12.1 106.65 Q-14.05 106.9 -14.25 105.35 -14.7 102.25 -15.5 99.6 -15.8 98.45 -15.55 97.45 -14.9 95.4 -15.65 93.85 L-16.25 92.05 Q-16.45 90.3 -17.8 89.1 -19.65 87.5 -19.55 85.2 -19.55 84.35 -19.8 83.55 -20.7 80.65 -22.65 78.5 -23.85 77.15 -23.5 75.4 L-23.15 73.65 Q-23.0 72.85 -23.3 72.1 -23.85 70.8 -25.0 70.1 -26.9 68.95 -27.3 66.75 -27.6 65.35 -27.55 63.9 -27.5 61.15 -28.75 58.7 -30.1 56.05 -30.2 52.95 -30.2 52.1 -30.35 51.2 -30.5 50.1 -30.95 49.15 -31.45 48.05 -31.0 46.65 -29.8 42.95 -29.35 39.15 L-28.25 42.65 -26.45 46.05 Q-25.3 48.1 -25.15 50.9 -25.0 53.65 -24.6 54.55 L-23.65 56.35 Q-23.15 57.25 -22.6 58.6 -22.05 59.95 -21.2 60.5 L-20.1 60.6 Q-18.5 58.35 -17.25 55.85 -16.15 57.25 -14.95 57.55 -14.65 55.75 -13.25 55.85 -11.1 59.45 -9.2 56.4 L-7.4 59.3 -6.15 60.85 Q-3.6 63.45 -0.6 62.0 L1.15 61.0 2.85 59.8 9.25 54.75 11.25 52.75 12.3 51.35 13.35 49.35 Q14.15 47.05 15.55 44.9 L16.5 43.1 17.55 41.05 Q18.4 39.65 18.8 37.95 L19.25 36.35 Q19.6 35.4 20.35 35.05 24.45 33.35 24.25 29.35 24.2 28.5 24.45 27.75 L25.15 25.8 26.7 22.0 Q27.1 21.05 27.1 20.15 27.15 18.1 27.9 16.35 26.2 16.85 25.15 18.3 24.5 19.3 24.05 19.1 20.35 17.5 17.85 20.75 L17.3 19.6 16.4 18.1 Q12.3 13.5 12.65 6.95 M-32.15 4.5 L-31.6 5.85 Q-31.0 9.15 -32.8 12.1 -34.45 14.8 -34.45 17.85 L-34.0 23.6 -33.95 24.75 -34.45 24.65 -34.5 24.65 Q-36.25 24.1 -37.25 22.35 -37.65 21.6 -37.4 21.0 -36.7 19.45 -38.05 17.95 -40.05 15.8 -38.5 13.25 -37.95 12.4 -38.1 11.65 -38.8 7.45 -36.75 3.9 M27.9 16.35 Q28.45 15.0 29.35 13.85 M31.85 51.55 Q34.0 49.55 35.6 46.95 36.0 46.35 36.75 45.9 38.55 44.8 38.25 42.55 L38.15 40.3 M40.45 26.4 L40.3 25.35" fill="none" stroke="#000000" stroke-linecap="round" stroke-linejoin="round" stroke-width="1.5"/>
    </g>
  </g>
  </g>
  <defs>
    </defs>
</svg>