<svg xmlns:xlink="http://www.w3.org/1999/xlink" xmlns="http://www.w3.org/2000/svg" height="264.15px" width="342.25px">
  <g transform="matrix(1.0, 0.0, 0.0, 1.0, 243.25, 83.7)">
    <g data-characterId="1180" height="160.05" transform="matrix(1.0, 0.0, 0.0, 1.0, -54.05, -68.05)" width="125.0" xlink:href="#shape0"><g id="shape0" transform="matrix(1.0, 0.0, 0.0, 1.0, 54.05, 68.05)">
      <path d="M5.45 -44.35 Q7.1 -44.9 8.7 -44.4 L13.4 -42.8 Q19.0 -41.0 23.95 -37.7 L28.75 -34.25 33.25 -30.65 37.2 -26.75 41.0 -22.4 44.4 -17.5 Q46.75 -13.9 48.5 -10.0 51.75 -2.9 53.2 4.85 56.7 23.4 54.9 42.4 54.25 49.3 55.8 56.2 57.25 62.7 62.1 67.3 L59.8 67.3 Q57.45 67.0 55.5 65.85 L56.7 67.8 59.35 71.5 Q62.7 76.15 67.95 78.15 L68.85 79.75 Q63.5 82.4 57.4 81.7 52.35 81.7 47.45 79.95 L48.05 81.35 Q48.75 82.6 49.8 83.55 52.8 86.2 56.15 88.5 L57.25 89.15 56.55 89.6 55.45 90.75 Q54.7 91.55 53.5 91.5 L43.15 90.45 Q41.4 90.45 39.85 89.4 36.35 87.25 34.2 83.4 L36.8 91.45 Q34.1 89.9 31.85 87.55 29.45 84.95 28.95 81.45 28.4 77.75 28.15 73.9 L28.05 74.15 Q25.85 77.85 26.2 82.25 L24.85 83.45 Q21.45 79.25 20.85 73.9 20.55 71.1 21.9 68.5 23.45 65.4 24.1 61.85 L24.3 59.2 24.25 57.25 Q24.15 55.4 24.45 53.65 25.0 50.8 25.05 48.0 L25.45 37.65 25.6 35.95 23.7 27.6 21.9 20.7 20.4 16.65 Q18.3 12.05 15.55 7.55 L9.25 -2.3 Q6.05 -7.2 3.0 -12.15 0.0 -17.05 -1.15 -22.55 L-1.75 -21.55 Q-3.75 -17.25 -7.5 -14.2 -11.85 -10.65 -17.05 -8.45 -19.7 -7.4 -22.5 -6.95 L-28.15 -6.2 Q-31.95 -5.1 -34.2 -2.1 L-31.5 8.05 -33.25 17.85 Q-34.0 22.65 -32.5 27.45 -29.5 37.0 -26.65 46.6 -25.5 50.45 -23.95 54.25 -22.45 57.9 -20.45 61.35 L-19.05 62.75 Q-16.4 64.1 -13.55 64.5 -13.8 66.65 -13.7 68.75 -13.55 72.35 -14.3 75.85 -14.45 76.7 -14.9 77.4 -16.95 80.85 -19.6 83.7 L-19.0 74.2 -21.7 78.45 Q-23.95 81.8 -27.7 83.15 -29.8 83.9 -31.95 84.0 L-29.9 81.15 Q-28.5 79.4 -27.6 77.35 L-26.8 75.35 Q-27.8 77.4 -29.75 79.1 L-32.1 80.9 Q-36.35 83.4 -41.45 84.25 -39.45 81.05 -37.9 77.7 -37.6 77.1 -37.65 76.45 L-37.7 76.2 Q-38.4 77.4 -39.7 78.0 -45.15 80.25 -50.55 81.95 L-51.0 80.75 Q-48.25 77.5 -47.15 73.5 -47.1 73.3 -47.2 73.05 L-51.25 76.5 Q-51.7 71.95 -48.45 68.95 -45.4 66.1 -42.75 62.75 -40.5 59.95 -39.8 56.2 -38.7 50.0 -39.65 43.9 L-42.3 28.1 Q-43.05 24.0 -42.8 19.8 -42.25 11.45 -41.1 3.15 -40.55 -0.75 -39.35 -4.4 -38.65 -6.65 -38.25 -9.0 -37.4 -14.15 -35.55 -18.9 L-32.1 -26.7 Q-30.85 -29.3 -29.25 -31.7 -26.0 -36.8 -20.9 -39.9 -17.4 -42.0 -13.35 -42.0 L-10.4 -42.35 -3.5 -43.65 2.75 -44.0 4.6 -44.05 5.45 -44.35 M-1.15 -23.3 L-1.15 -22.6 -1.15 -22.55 -1.15 -22.6 -1.15 -23.3 M14.95 -38.0 L17.0 -36.95 Q21.85 -34.1 26.75 -30.8 21.85 -34.1 17.0 -36.95 L14.95 -38.0 M9.2 -32.25 L11.05 -31.1 Q15.2 -28.6 18.4 -25.05 15.2 -28.6 11.05 -31.1 L9.2 -32.25 M2.3 -30.25 Q3.9 -29.6 5.35 -28.55 10.35 -25.0 12.65 -19.6 10.35 -25.0 5.35 -28.55 3.9 -29.6 2.3 -30.25 M10.35 -6.35 L12.05 -4.35 10.35 -6.35 M15.7 -15.2 L19.05 -11.45 Q22.85 -7.05 25.6 -2.05 22.85 -7.05 19.05 -11.45 L15.7 -15.2 M21.25 5.15 Q25.15 9.45 26.6 15.2 28.05 20.8 28.75 26.45 L30.1 37.15 Q30.55 40.8 30.05 44.6 L28.25 55.2 27.3 61.0 26.15 70.2 27.3 61.0 28.25 55.2 30.05 44.6 Q30.55 40.8 30.1 37.15 L28.75 26.45 Q28.05 20.8 26.6 15.2 25.15 9.45 21.25 5.15 M33.65 81.7 Q32.1 79.85 31.9 77.65 31.4 72.05 32.3 66.45 32.95 62.25 33.85 58.1 L35.3 49.15 35.7 43.25 35.55 33.35 Q35.3 28.5 34.6 23.75 L33.35 16.4 34.6 23.75 Q35.3 28.5 35.55 33.35 L35.7 43.25 35.3 49.15 33.85 58.1 Q32.95 62.25 32.3 66.45 31.4 72.05 31.9 77.65 32.1 79.85 33.65 81.7 M49.75 88.0 L47.75 86.6 46.35 85.4 Q43.35 82.25 41.7 78.35 39.65 73.55 39.6 68.15 39.55 62.85 40.15 57.5 L41.55 47.15 Q42.5 41.25 42.65 35.35 42.75 30.2 41.7 25.3 40.65 20.55 38.8 16.1 40.65 20.55 41.7 25.3 42.75 30.2 42.65 35.35 42.5 41.25 41.55 47.15 L40.15 57.5 Q39.55 62.85 39.6 68.15 39.65 73.55 41.7 78.35 43.35 82.25 46.35 85.4 L47.75 86.6 49.75 88.0 M60.1 77.1 Q57.75 76.3 55.8 74.9 53.3 72.95 52.2 70.25 L49.55 63.65 Q48.25 60.35 47.9 56.75 47.35 51.65 48.4 46.6 L49.5 40.75 51.0 32.55 Q52.1 26.65 51.0 20.75 50.0 15.4 48.6 10.2 47.25 5.1 44.55 0.55 47.25 5.1 48.6 10.2 50.0 15.4 51.0 20.75 52.1 26.65 51.0 32.55 L49.5 40.75 48.4 46.6 Q47.35 51.65 47.9 56.75 48.25 60.35 49.55 63.65 L52.2 70.25 Q53.3 72.95 55.8 74.9 57.75 76.3 60.1 77.1 M35.95 -23.05 L42.55 -15.0 35.95 -23.05 M26.15 -21.9 L34.5 -10.1 26.15 -21.9 M25.3 -17.3 L29.05 -10.95 25.3 -17.3 M19.85 -18.45 L23.45 -14.15 Q26.8 -10.0 29.3 -5.5 26.8 -10.0 23.45 -14.15 L19.85 -18.45 M30.5 -21.6 L30.85 -21.15 34.45 -16.35 Q37.45 -12.4 39.1 -7.8 37.45 -12.4 34.45 -16.35 L30.85 -21.15 30.5 -21.6 M-43.45 76.8 L-40.25 73.1 -37.35 69.8 Q-35.1 67.15 -33.3 64.25 -30.7 60.25 -29.6 55.5 -28.3 49.9 -30.2 44.55 L-33.7 33.9 Q-34.4 31.6 -34.6 29.2 L-35.1 18.95 -34.6 29.2 Q-34.4 31.6 -33.7 33.9 L-30.2 44.55 Q-28.3 49.9 -29.6 55.5 -30.7 60.25 -33.3 64.25 -35.1 67.15 -37.35 69.8 L-40.25 73.1 -43.45 76.8 M-44.6 67.85 Q-41.25 65.55 -39.1 62.2 -36.2 57.7 -34.95 52.5 -34.3 49.9 -34.4 47.45 -34.65 42.15 -36.4 36.9 L-40.0 25.85 Q-41.6 20.95 -41.3 15.85 -41.0 10.5 -39.45 5.45 -41.0 10.5 -41.3 15.85 -41.6 20.95 -40.0 25.85 L-36.4 36.9 Q-34.65 42.15 -34.4 47.45 -34.3 49.9 -34.95 52.5 -36.2 57.7 -39.1 62.2 -41.25 65.55 -44.6 67.85 M-29.1 -23.3 L-19.0 -35.1 -29.1 -23.3 M-22.45 -26.2 L-19.0 -30.25 -22.45 -26.2 M-23.05 -12.7 Q-21.0 -12.8 -19.3 -13.85 L-11.35 -19.55 Q-7.3 -22.85 -5.5 -27.65 -7.3 -22.85 -11.35 -19.55 L-19.3 -13.85 Q-21.0 -12.8 -23.05 -12.7 M-38.3 2.3 L-38.55 1.8 Q-37.95 -0.85 -37.5 -3.45 -36.4 -9.35 -33.1 -14.25 -36.4 -9.35 -37.5 -3.45 -37.95 -0.85 -38.55 1.8 L-38.3 2.3 M-35.7 -2.6 L-34.25 -7.5 -35.7 -2.6 M-27.65 -23.6 L-27.95 -23.3 -27.65 -23.6 M-25.6 -18.7 Q-23.7 -20.05 -21.9 -21.55 L-18.4 -24.65 Q-14.65 -28.4 -12.7 -33.1 -14.65 -28.4 -18.4 -24.65 L-21.9 -21.55 Q-23.7 -20.05 -25.6 -18.7 M8.6 -11.55 L18.1 1.15 8.6 -11.55 M12.35 -14.7 L23.0 0.55 12.35 -14.7 M-33.95 77.35 L-31.65 73.0 -29.45 68.55 Q-27.1 63.6 -25.45 58.65 -27.1 63.6 -29.45 68.55 L-31.65 73.0 -33.95 77.35 M-24.75 75.65 L-23.7 73.65 Q-21.85 69.95 -21.6 65.85 -21.85 69.95 -23.7 73.65 L-24.75 75.65 M0.25 -25.3 L-1.15 -22.6 0.25 -25.3" fill="url(#gradient0)" fill-rule="evenodd" stroke="none"/>
      <path d="M67.95 78.15 Q62.7 76.15 59.35 71.5 L56.7 67.8 55.5 65.85 Q57.45 67.0 59.8 67.3 L62.1 67.3 Q57.25 62.7 55.8 56.2 54.25 49.3 54.9 42.4 56.7 23.4 53.2 4.85 51.75 -2.9 48.5 -10.0 46.75 -13.9 44.4 -17.5 L41.0 -22.4 37.2 -26.75 33.25 -30.65 28.75 -34.25 23.95 -37.7 Q19.0 -41.0 13.4 -42.8 L8.7 -44.4 Q7.1 -44.9 5.45 -44.35 M4.6 -44.05 L2.75 -44.0 -3.5 -43.65 -10.4 -42.35 -13.35 -42.0 Q-17.4 -42.0 -20.9 -39.9 -26.0 -36.8 -29.25 -31.7 -30.85 -29.3 -32.1 -26.7 L-35.55 -18.9 Q-37.4 -14.15 -38.25 -9.0 -38.65 -6.65 -39.35 -4.4 -40.55 -0.75 -41.1 3.15 -42.25 11.45 -42.8 19.8 -43.05 24.0 -42.3 28.1 L-39.65 43.9 Q-38.7 50.0 -39.8 56.2 -40.5 59.95 -42.75 62.75 -45.4 66.1 -48.45 68.95 -51.7 71.95 -51.25 76.5 L-47.2 73.05 Q-47.1 73.3 -47.15 73.5 -48.25 77.5 -51.0 80.75 L-53.55 83.1 -50.55 81.95 Q-45.15 80.25 -39.7 78.0 -38.4 77.4 -37.7 76.2 L-37.65 76.45 Q-37.6 77.1 -37.9 77.7 -39.45 81.05 -41.45 84.25 -36.35 83.4 -32.1 80.9 L-29.75 79.1 Q-27.8 77.4 -26.8 75.35 L-27.6 77.35 Q-28.5 79.4 -29.9 81.15 L-31.95 84.0 Q-29.8 83.9 -27.7 83.15 -23.95 81.8 -21.7 78.45 L-19.0 74.2 -19.6 83.7 Q-16.95 80.85 -14.9 77.4 -14.45 76.7 -14.3 75.85 -13.55 72.35 -13.7 68.75 -13.8 66.65 -13.55 64.5 -16.4 64.1 -19.05 62.75 L-20.45 61.35 Q-22.45 57.9 -23.95 54.25 -25.5 50.45 -26.65 46.6 -29.5 37.0 -32.5 27.45 -34.0 22.65 -33.25 17.85 L-31.5 8.05 -34.2 -2.1 Q-31.95 -5.1 -28.15 -6.2 L-22.5 -6.95 Q-19.7 -7.4 -17.05 -8.45 -11.85 -10.65 -7.5 -14.2 -3.75 -17.25 -1.75 -21.55 L-1.15 -22.55 Q0.0 -17.05 3.0 -12.15 6.05 -7.2 9.25 -2.3 L15.55 7.55 Q18.3 12.05 20.4 16.65 L21.9 20.7 23.7 27.6 25.6 35.95 25.45 37.65 25.05 48.0 Q25.0 50.8 24.45 53.65 24.15 55.4 24.25 57.25 L24.3 59.2 24.1 61.85 Q23.45 65.4 21.9 68.5 20.55 71.1 20.85 73.9 21.45 79.25 24.85 83.45 L26.75 85.4 26.2 82.25 Q25.85 77.85 28.05 74.15 L28.15 73.9 Q28.4 77.75 28.95 81.45 29.45 84.95 31.85 87.55 34.1 89.9 36.8 91.45 L34.2 83.4 Q36.35 87.25 39.85 89.4 41.4 90.45 43.15 90.45 L53.5 91.5 Q54.7 91.55 55.45 90.75 L56.55 89.6 57.25 89.15 56.15 88.5 Q52.8 86.2 49.8 83.55 48.75 82.6 48.05 81.35 L47.45 79.95 Q52.35 81.7 57.4 81.7 63.5 82.4 68.85 79.75 L70.45 78.8 67.95 78.15 M57.25 89.15 L58.4 89.15 M-1.15 -22.6 L0.25 -25.3" fill="none" stroke="#000000" stroke-linecap="round" stroke-linejoin="round" stroke-width="2.0"/>
      <path d="M12.65 -19.6 Q10.35 -25.0 5.35 -28.55 3.9 -29.6 2.3 -30.25 M18.4 -25.05 Q15.2 -28.6 11.05 -31.1 L9.2 -32.25 M26.75 -30.8 Q21.85 -34.1 17.0 -36.95 L14.95 -38.0 M25.6 -2.05 Q22.85 -7.05 19.05 -11.45 L15.7 -15.2 M12.05 -4.35 L10.35 -6.35 M39.1 -7.8 Q37.45 -12.4 34.45 -16.35 L30.85 -21.15 30.5 -21.6 M29.3 -5.5 Q26.8 -10.0 23.45 -14.15 L19.85 -18.45 M29.05 -10.95 L25.3 -17.3 M34.5 -10.1 L26.15 -21.9 M42.55 -15.0 L35.95 -23.05 M44.55 0.55 Q47.25 5.1 48.6 10.2 50.0 15.4 51.0 20.75 52.1 26.65 51.0 32.55 L49.5 40.75 48.4 46.6 Q47.35 51.65 47.9 56.75 48.25 60.35 49.55 63.65 L52.2 70.25 Q53.3 72.95 55.8 74.9 57.75 76.3 60.1 77.1 M38.8 16.1 Q40.65 20.55 41.7 25.3 42.75 30.2 42.65 35.35 42.5 41.25 41.55 47.15 L40.15 57.5 Q39.55 62.85 39.6 68.15 39.65 73.55 41.7 78.35 43.35 82.25 46.35 85.4 L47.75 86.6 49.75 88.0 M33.35 16.4 L34.6 23.75 Q35.3 28.5 35.55 33.35 L35.7 43.25 35.3 49.15 33.85 58.1 Q32.95 62.25 32.3 66.45 31.4 72.05 31.9 77.65 32.1 79.85 33.65 81.7 M26.15 70.2 L27.3 61.0 28.25 55.2 30.05 44.6 Q30.55 40.8 30.1 37.15 L28.75 26.45 Q28.05 20.8 26.6 15.2 25.15 9.45 21.25 5.15 M23.0 0.55 L12.35 -14.7 M18.1 1.15 L8.6 -11.55 M-12.7 -33.1 Q-14.65 -28.4 -18.4 -24.65 L-21.9 -21.55 Q-23.7 -20.05 -25.6 -18.7 M-27.95 -23.3 L-27.65 -23.6 M-34.25 -7.5 L-35.7 -2.6 M-33.1 -14.25 Q-36.4 -9.35 -37.5 -3.45 -37.95 -0.85 -38.55 1.8 L-38.3 2.3 M-5.5 -27.65 Q-7.3 -22.85 -11.35 -19.55 L-19.3 -13.85 Q-21.0 -12.8 -23.05 -12.7 M-19.0 -30.25 L-22.45 -26.2 M-19.0 -35.1 L-29.1 -23.3 M-39.45 5.45 Q-41.0 10.5 -41.3 15.85 -41.6 20.95 -40.0 25.85 L-36.4 36.9 Q-34.65 42.15 -34.4 47.45 -34.3 49.9 -34.95 52.5 -36.2 57.7 -39.1 62.2 -41.25 65.55 -44.6 67.85 M-35.1 18.95 L-34.6 29.2 Q-34.4 31.6 -33.7 33.9 L-30.2 44.55 Q-28.3 49.9 -29.6 55.5 -30.7 60.25 -33.3 64.25 -35.1 67.15 -37.35 69.8 L-40.25 73.1 -43.45 76.8 M-21.6 65.85 Q-21.85 69.95 -23.7 73.65 L-24.75 75.65 M-25.45 58.65 Q-27.1 63.6 -29.45 68.55 L-31.65 73.0 -33.95 77.35" fill="none" stroke="#ffffff" stroke-linecap="round" stroke-linejoin="round" stroke-width="1.5"/>
      <path d="M-1.15 -22.55 L-1.15 -22.6 -1.15 -23.3 M-1.15 -22.55 Q-1.15 -16.85 0.05 -11.15 1.0 -6.55 2.4 -1.7 3.85 3.25 6.0 8.3" fill="none" stroke="#000000" stroke-linecap="round" stroke-linejoin="round" stroke-width="2.0"/>
      <path d="M19.0 35.1 L19.15 34.8 19.1 33.35 Q18.75 29.55 21.05 26.55 L21.7 25.35 22.15 23.3" fill="none" stroke="#b9a882" stroke-linecap="round" stroke-linejoin="round" stroke-width="1.5"/>
      <path d="M-12.7 33.7 Q-11.5 32.85 -9.8 32.9 -7.7 33.1 -5.55 33.85 0.2 35.9 1.75 37.95 L4.3 41.15 5.45 41.15 Q5.9 42.5 6.55 43.3 7.15 44.1 7.2 43.8 L8.35 44.0 10.4 44.7 13.7 44.45 Q16.05 44.15 19.25 41.2 L19.55 40.95 22.15 38.55 22.35 38.1 23.5 37.35 Q24.5 36.6 25.0 35.4 L25.3 35.4 25.05 52.1 25.0 52.75 25.05 52.75 18.2 57.25 Q16.5 56.55 15.2 57.85 L14.8 58.25 Q11.55 59.0 9.0 61.35 L7.75 60.15 3.95 63.25 3.7 63.2 3.7 63.0 -3.75 66.2 -4.7 65.0 Q-6.9 64.75 -8.1 66.5 L-8.4 65.65 Q-8.4 65.2 -9.45 65.95 -10.65 66.8 -11.9 66.65 -13.05 66.4 -13.8 65.5 L-15.2 65.95 -16.75 65.4 -17.85 63.6 -19.85 67.9 Q-20.3 63.7 -21.9 59.85 L-21.6 61.85 -25.35 53.8 -25.25 55.65 -25.45 55.8 -26.5 50.95 Q-27.3 45.6 -28.6 40.05 L-29.2 36.55 -27.35 39.15 -23.45 35.2 -23.15 34.05 -18.95 33.2 -17.9 33.5 -16.25 34.25 -13.85 33.85 -13.3 33.25 -12.7 33.7 M18.95 45.75 L19.25 41.2 18.95 45.75 M23.85 39.7 L22.15 49.5 23.85 39.7 M13.95 45.45 L12.9 55.25 13.95 45.45 M8.05 46.6 L6.0 57.85 8.05 46.6 M2.85 57.55 L3.15 46.6 2.85 57.55 M16.1 54.95 L17.55 50.95 16.1 54.95 M-23.85 43.05 Q-24.65 43.85 -24.0 45.15 -22.6 47.7 -21.6 50.6 L-21.2 51.4 -20.15 53.35 -19.9 53.35 -19.2 53.15 -18.7 52.65 -18.5 53.45 -18.15 53.8 -16.45 49.0 -15.3 48.55 -14.4 48.9 -13.55 48.75 -12.75 49.1 Q-12.0 49.35 -11.45 50.15 L-11.25 50.65 -10.4 49.2 Q-9.4 50.8 -9.3 52.65 L-9.2 53.8 -8.95 54.4 -7.8 55.25 -7.2 54.45 -6.35 55.55 -2.95 50.7 -2.1 50.55 Q-0.3 46.85 -0.95 44.15 -1.65 41.45 -3.45 40.9 L-6.05 40.1 -7.25 39.7 -9.05 39.5 -9.8 38.55 -10.75 39.5 -13.35 39.1 -14.8 39.6 -16.1 39.8 -17.15 40.0 -17.65 39.65 -20.3 40.5 Q-22.3 41.05 -23.85 43.05 M-23.2 50.8 Q-20.55 53.45 -19.6 57.25 -20.55 53.45 -23.2 50.8 M-1.15 50.65 L-1.75 63.0 -1.15 50.65 M-6.95 58.4 L-6.5 62.75 -6.95 58.4 M-18.15 54.7 L-16.7 61.3 -18.15 54.7 M-14.4 53.25 L-13.25 61.6 -14.4 53.25 M-11.25 56.4 L-10.65 61.3 -11.25 56.4 M-18.15 38.3 L-17.85 35.1 -18.15 38.3 M-3.5 38.3 L-4.05 36.25 -3.5 38.3 M-7.8 37.7 L-8.65 35.4 -7.8 37.7 M-0.3 43.75 L-0.9 40.0 -0.3 43.75 M-10.65 36.0 L-10.95 35.1 -10.65 36.0 M-16.4 36.55 L-16.2 36.25 -16.4 36.55 M-21.9 38.0 L-21.9 36.0 -21.9 38.0 M-25.35 41.75 L-24.5 37.7 -25.35 41.75" fill="url(#gradient1)" fill-rule="evenodd" stroke="none"/>
      <path d="M19.55 40.95 L19.25 41.2 18.95 45.75 M17.55 50.95 L16.1 54.95 M3.15 46.6 L2.85 57.55 M6.0 57.85 L8.05 46.6 M12.9 55.25 L13.95 45.45 M22.15 49.5 L23.85 39.7 M-24.5 37.7 L-25.35 41.75 M-21.9 36.0 L-21.9 38.0 M-16.2 36.25 L-16.4 36.55 M-10.95 35.1 L-10.65 36.0 M-0.9 40.0 L-0.3 43.75 M-8.65 35.4 L-7.8 37.7 M-4.05 36.25 L-3.5 38.3 M-17.85 35.1 L-18.15 38.3 M-10.65 61.3 L-11.25 56.4 M-13.25 61.6 L-14.4 53.25 M-16.7 61.3 L-18.15 54.7 M-6.5 62.75 L-6.95 58.4 M-1.75 63.0 L-1.15 50.65 M-19.6 57.25 Q-20.55 53.45 -23.2 50.8" fill="none" stroke="#ffffff" stroke-linecap="round" stroke-linejoin="round" stroke-width="1.5"/>
      <path d="M19.25 41.2 Q16.05 44.15 13.7 44.45 L10.4 44.7 8.35 44.0 7.2 43.8 Q7.15 44.1 6.55 43.3 5.9 42.5 5.45 41.15 L4.3 41.15 1.75 37.95 Q0.2 35.9 -5.55 33.85 -7.7 33.1 -9.8 32.9 -11.5 32.85 -12.7 33.7 M-13.3 33.25 L-13.85 33.85 -16.25 34.25 -17.9 33.5 -18.95 33.2 -23.15 34.05 -23.45 35.2 -27.35 39.15 -29.2 36.55 -28.6 40.05 Q-27.3 45.6 -26.5 50.95 L-25.45 55.8 -25.25 55.65 -25.35 53.8 -21.6 61.85 -21.9 59.85 Q-20.3 63.7 -19.85 67.9 L-17.85 63.6 -16.75 65.4 -15.2 65.95 -13.8 65.5 Q-13.05 66.4 -11.9 66.65 -10.65 66.8 -9.45 65.95 -8.4 65.2 -8.4 65.65 L-8.1 66.5 Q-6.9 64.75 -4.7 65.0 L-3.75 66.2 3.7 63.0 3.7 63.2 3.95 63.25 7.75 60.15 9.0 61.35 Q11.55 59.0 14.8 58.25 L15.2 57.85 Q16.5 56.55 18.2 57.25 L25.05 52.75 25.1 52.55 25.05 52.1 25.3 35.4 M25.0 52.75 L25.05 52.1 M25.0 35.4 Q24.5 36.6 23.5 37.35 L22.35 38.1 22.15 38.55 19.55 40.95 M-23.85 43.05 Q-24.65 43.85 -24.0 45.15 -22.6 47.7 -21.6 50.6 L-21.2 51.4 -20.15 53.35 -19.9 53.35 -19.2 53.15 -18.7 52.65 -18.5 53.45 -18.15 53.8 -16.45 49.0 -15.3 48.55 -14.4 48.9 -13.55 48.75 -12.75 49.1 Q-12.0 49.35 -11.45 50.15 L-11.25 50.65 -10.4 49.2 Q-9.4 50.8 -9.3 52.65 L-9.2 53.8 -8.95 54.4 -7.8 55.25 -7.2 54.45 -6.35 55.55 -2.95 50.7 -2.1 50.55 Q-0.3 46.85 -0.95 44.15 -1.65 41.45 -3.45 40.9 L-6.05 40.1 -7.25 39.7 -9.05 39.5 -9.8 38.55 -10.75 39.5 -13.35 39.1 -14.8 39.6 -16.1 39.8 -17.15 40.0 -17.65 39.65 -20.3 40.5 Q-22.3 41.05 -23.85 43.05 Z" fill="none" stroke="#999999" stroke-linecap="round" stroke-linejoin="round" stroke-width="1.5"/>
      <path d="M34.85 -37.75 Q39.5 -43.65 37.0 -50.2 36.4 -51.65 35.2 -52.55 35.75 -54.4 37.45 -55.55 L43.15 -59.8 46.9 -63.0 47.25 -60.8 47.75 -58.75 49.1 -54.65 Q49.75 -52.95 49.2 -51.3 L47.95 -49.0 Q44.45 -44.6 44.4 -39.2 44.45 -33.65 45.65 -28.3 L47.85 -17.65 Q48.65 -12.9 48.95 -7.85 47.0 -8.25 45.2 -8.8 36.5 -11.7 27.3 -13.5 14.75 -15.4 1.85 -15.45 L-12.45 -15.65 -37.9 -14.3 Q-38.5 -22.65 -38.6 -30.95 -38.65 -37.0 -39.05 -42.95 L-39.9 -52.6 -39.95 -57.1 Q-39.8 -59.8 -40.65 -62.4 L-39.0 -61.9 -37.6 -61.3 Q-33.1 -59.55 -31.15 -55.45 -30.8 -54.5 -31.4 -53.4 L-32.75 -51.15 Q-33.25 -50.4 -33.2 -49.6 -32.9 -44.25 -30.95 -39.3 -28.85 -34.35 -25.6 -29.8 -22.8 -25.9 -17.65 -26.4 -15.7 -26.65 -14.05 -27.6 -9.1 -30.75 -6.7 -36.1 L-4.7 -40.45 Q-2.7 -44.85 -3.15 -49.45 L-4.45 -52.75 Q-5.3 -54.8 -5.7 -56.9 -6.05 -58.3 -4.9 -59.65 -1.0 -63.9 3.25 -67.55 3.4 -65.8 4.45 -64.15 L6.9 -60.0 8.9 -55.5 Q9.4 -54.25 9.1 -52.9 8.65 -50.9 7.1 -49.45 L5.75 -39.3 Q5.25 -35.8 6.2 -32.5 7.0 -29.1 9.3 -26.65 13.05 -22.65 18.65 -23.45 24.55 -24.15 28.6 -28.2 32.7 -32.35 34.85 -37.75 M42.8 -50.9 Q45.55 -51.25 45.25 -53.9 L44.15 -54.9 43.1 -54.7 Q41.1 -53.7 41.0 -51.6 L41.75 -50.9 42.8 -50.9 M45.4 -59.6 L37.5 -53.25 38.2 -52.5 39.0 -51.4 Q39.9 -49.9 39.85 -48.3 L39.4 -44.75 38.1 -40.0 37.4 -38.1 35.35 -33.85 Q33.05 -29.05 29.25 -25.8 L28.25 -25.15 29.25 -25.8 Q33.05 -29.05 35.35 -33.85 L37.4 -38.1 38.1 -40.0 39.4 -44.75 39.85 -48.3 Q39.9 -49.9 39.0 -51.4 L38.2 -52.5 37.5 -53.25 45.4 -59.6 M37.45 -28.45 Q39.15 -29.1 39.85 -30.55 41.7 -34.25 38.9 -37.3 L39.05 -38.15 Q39.95 -41.25 42.85 -43.2 L42.6 -47.7 42.85 -43.2 Q39.95 -41.25 39.05 -38.15 L38.9 -37.3 Q41.7 -34.25 39.85 -30.55 39.15 -29.1 37.45 -28.45 M38.95 -22.6 Q37.7 -22.7 36.7 -22.0 35.75 -21.35 35.6 -20.3 35.45 -19.2 36.2 -18.45 36.95 -17.6 38.2 -17.5 39.35 -17.45 40.35 -18.1 41.35 -18.75 41.5 -19.8 41.6 -20.85 40.85 -21.7 40.1 -22.5 38.95 -22.6 M29.25 -25.8 L29.15 -25.4 Q28.35 -24.5 27.3 -24.25 L23.0 -23.45 27.3 -24.25 Q28.35 -24.5 29.15 -25.4 L29.25 -25.8 M16.1 -18.6 L28.35 -18.15 16.1 -18.6 M18.65 -20.55 L27.6 -20.4 18.65 -20.55 M2.3 -64.65 Q-0.45 -61.3 -3.6 -58.35 L-3.95 -57.9 Q-4.3 -57.4 -4.25 -56.85 -2.35 -55.0 -1.7 -52.55 -1.35 -50.6 -1.3 -48.5 -1.1 -44.9 -2.45 -41.65 -4.5 -36.55 -6.7 -31.5 -8.25 -28.05 -10.65 -25.35 -8.25 -28.05 -6.7 -31.5 -4.5 -36.55 -2.45 -41.65 -1.1 -44.9 -1.3 -48.5 -1.35 -50.6 -1.7 -52.55 -2.35 -55.0 -4.25 -56.85 -4.3 -57.4 -3.95 -57.9 L-3.6 -58.35 Q-0.45 -61.3 2.3 -64.65 M18.6 -20.0 L27.45 -19.6 18.6 -20.0 M0.9 -53.8 Q3.2 -54.05 3.3 -56.35 3.45 -57.9 1.6 -58.4 L0.2 -56.95 -0.1 -56.0 Q-0.4 -54.5 0.9 -53.8 M-39.25 -60.2 L-39.0 -59.6 Q-38.05 -54.25 -37.8 -49.0 L-37.7 -47.15 -37.6 -42.45 -36.8 -31.65 Q-36.45 -26.1 -37.05 -20.7 -37.3 -18.55 -36.55 -16.6 -37.3 -18.55 -37.05 -20.7 -36.45 -26.1 -36.8 -31.65 L-37.6 -42.45 -37.7 -47.15 -37.8 -49.0 Q-38.05 -54.25 -39.0 -59.6 L-39.25 -60.2 M-38.0 -54.0 Q-37.85 -52.6 -37.0 -51.6 L-36.0 -51.9 Q-34.95 -53.2 -35.65 -54.6 -36.1 -55.55 -37.2 -55.9 L-38.0 -54.95 -38.0 -54.0 M-36.55 -47.3 L-35.95 -46.95 Q-35.55 -46.65 -35.45 -46.2 -34.8 -43.4 -36.45 -40.65 L-33.7 -36.0 -33.95 -35.65 Q-35.8 -32.6 -34.15 -29.85 -35.8 -32.6 -33.95 -35.65 L-33.7 -36.0 -36.45 -40.65 Q-34.8 -43.4 -35.45 -46.2 -35.55 -46.65 -35.95 -46.95 L-36.55 -47.3 M1.95 -50.15 L2.3 -49.25 Q2.5 -48.45 2.25 -47.6 1.75 -45.75 0.35 -44.25 -1.1 -42.7 -1.1 -40.7 L0.4 -39.1 1.9 -37.1 2.9 -35.05 Q0.5 -33.85 -1.8 -32.65 L-0.8 -31.5 -1.8 -32.65 Q0.5 -33.85 2.9 -35.05 L1.9 -37.1 0.4 -39.1 -1.1 -40.7 Q-1.1 -42.7 0.35 -44.25 1.75 -45.75 2.25 -47.6 2.5 -48.45 2.3 -49.25 L1.95 -50.15 M-28.25 -30.2 Q-27.5 -28.05 -25.4 -27.1 L-23.85 -26.15 -21.55 -25.9 -23.85 -26.15 -25.4 -27.1 Q-27.5 -28.05 -28.25 -30.2 M-24.2 -22.9 L-19.15 -22.8 -11.8 -23.5 -19.15 -22.8 -24.2 -22.9 M-33.55 -23.05 Q-34.7 -23.15 -35.65 -22.6 -36.55 -22.0 -36.65 -21.05 -36.85 -20.15 -36.1 -19.45 -35.3 -18.75 -34.15 -18.65 -33.0 -18.55 -32.1 -19.1 -31.15 -19.7 -30.95 -20.6 -30.85 -21.55 -31.65 -22.25 -32.4 -22.95 -33.55 -23.05 M0.75 -24.0 Q-0.25 -25.55 -1.95 -26.0 -3.95 -25.8 -5.35 -24.35 -6.7 -23.05 -6.1 -21.6 L-5.55 -21.05 -2.4 -19.7 Q-0.1 -19.85 0.85 -21.95 1.4 -23.05 0.75 -24.0 M-22.65 -22.2 Q-20.05 -21.9 -17.55 -22.25 L-11.85 -22.95 -17.55 -22.25 Q-20.05 -21.9 -22.65 -22.2 M-22.3 -20.55 L-9.9 -21.2 -22.3 -20.55" fill="url(#gradient2)" fill-rule="evenodd" stroke="none"/>
      <path d="M42.7 -52.3 L42.95 -53.45 44.0 -53.7 42.95 -53.45 42.7 -52.3 M42.8 -50.9 L41.75 -50.9 41.0 -51.6 Q41.1 -53.7 43.1 -54.7 L44.15 -54.9 45.25 -53.9 Q45.55 -51.25 42.8 -50.9 M37.55 -19.65 L36.95 -19.65 36.95 -20.45 37.5 -21.05 38.85 -20.6 37.5 -21.05 36.95 -20.45 36.95 -19.65 37.55 -19.65 M38.95 -22.6 Q40.1 -22.5 40.85 -21.7 41.6 -20.85 41.5 -19.8 41.35 -18.75 40.35 -18.1 39.35 -17.45 38.2 -17.5 36.95 -17.6 36.2 -18.45 35.45 -19.2 35.6 -20.3 35.75 -21.35 36.7 -22.0 37.7 -22.7 38.95 -22.6 M1.0 -55.1 L1.6 -56.6 1.0 -55.1 M0.9 -53.8 Q-0.4 -54.5 -0.1 -56.0 L0.2 -56.95 1.6 -58.4 Q3.45 -57.9 3.3 -56.35 3.2 -54.05 0.9 -53.8 M-38.0 -54.0 L-38.0 -54.95 -37.2 -55.9 Q-36.1 -55.55 -35.65 -54.6 -34.95 -53.2 -36.0 -51.9 L-37.0 -51.6 Q-37.85 -52.6 -38.0 -54.0 M-36.55 -53.2 L-36.9 -54.35 -36.55 -53.2 M-33.55 -23.05 Q-32.4 -22.95 -31.65 -22.25 -30.85 -21.55 -30.95 -20.6 -31.15 -19.7 -32.1 -19.1 -33.0 -18.55 -34.15 -18.65 -35.3 -18.75 -36.1 -19.45 -36.85 -20.15 -36.65 -21.05 -36.55 -22.0 -35.65 -22.6 -34.7 -23.15 -33.55 -23.05 M-35.3 -19.75 L-34.7 -21.7 -33.6 -21.75 -34.7 -21.7 -35.3 -19.75 M0.75 -24.0 Q1.4 -23.05 0.85 -21.95 -0.1 -19.85 -2.4 -19.7 L-5.55 -21.05 -6.1 -21.6 Q-6.7 -23.05 -5.35 -24.35 -3.95 -25.8 -1.95 -26.0 -0.25 -25.55 0.75 -24.0 M-4.4 -22.1 Q-4.25 -23.0 -3.7 -23.6 -3.15 -24.25 -2.4 -24.15 -3.15 -24.25 -3.7 -23.6 -4.25 -23.0 -4.4 -22.1" fill="#990000" fill-rule="evenodd" stroke="none"/>
      <path d="M34.85 -37.75 Q32.7 -32.35 28.6 -28.2 24.55 -24.15 18.65 -23.45 13.05 -22.65 9.3 -26.65 7.0 -29.1 6.2 -32.5 5.25 -35.8 5.75 -39.3 L7.1 -49.45 13.9 -48.95 18.85 -48.05 Q23.55 -46.85 27.65 -44.1 31.65 -41.45 34.85 -37.75 M-3.15 -49.45 Q-2.7 -44.85 -4.7 -40.45 L-6.7 -36.1 Q-9.1 -30.75 -14.05 -27.6 -15.7 -26.65 -17.65 -26.4 -22.8 -25.9 -25.6 -29.8 -28.85 -34.35 -30.95 -39.3 -28.15 -41.65 -24.7 -43.1 L-14.25 -46.95 Q-8.75 -48.75 -3.15 -49.45" fill="url(#gradient3)" fill-rule="evenodd" stroke="none"/>
      <path d="M-30.95 -39.3 Q-32.9 -44.25 -33.2 -49.6 -33.25 -50.4 -32.75 -51.15 L-31.4 -53.4 Q-30.8 -54.5 -31.15 -55.45 -33.1 -59.55 -37.6 -61.3 L-39.0 -61.9 -40.65 -62.4 Q-39.8 -59.8 -39.95 -57.1 L-39.9 -52.6 -39.05 -42.95 Q-38.65 -37.0 -38.6 -30.95 -38.5 -22.65 -37.9 -14.3 L-12.45 -15.65 1.85 -15.45 Q14.75 -15.4 27.3 -13.5 36.5 -11.7 45.2 -8.8 47.0 -8.25 48.95 -7.85 48.65 -12.9 47.85 -17.65 L45.65 -28.3 Q44.45 -33.65 44.4 -39.2 44.45 -44.6 47.95 -49.0 L49.2 -51.3 Q49.75 -52.95 49.1 -54.65 L47.75 -58.75 47.25 -60.8 46.9 -63.0 43.15 -59.8 37.45 -55.55 Q35.75 -54.4 35.2 -52.55 36.4 -51.65 37.0 -50.2 39.5 -43.65 34.85 -37.75 32.7 -32.35 28.6 -28.2 24.55 -24.15 18.65 -23.45 13.05 -22.65 9.3 -26.65 7.0 -29.1 6.2 -32.5 5.25 -35.8 5.75 -39.3 L7.1 -49.45 Q8.65 -50.9 9.1 -52.9 9.4 -54.25 8.9 -55.5 L6.9 -60.0 4.45 -64.15 Q3.4 -65.8 3.25 -67.55 -1.0 -63.9 -4.9 -59.65 -6.05 -58.3 -5.7 -56.9 -5.3 -54.8 -4.45 -52.75 L-3.15 -49.45 Q-2.7 -44.85 -4.7 -40.45 L-6.7 -36.1 Q-9.1 -30.75 -14.05 -27.6 -15.7 -26.65 -17.65 -26.4 -22.8 -25.9 -25.6 -29.8 -28.85 -34.35 -30.95 -39.3 M42.8 -50.9 L41.75 -50.9 41.0 -51.6 Q41.1 -53.7 43.1 -54.7 L44.15 -54.9 45.25 -53.9 Q45.55 -51.25 42.8 -50.9 M42.6 -47.7 L42.85 -43.2 Q39.95 -41.25 39.05 -38.15 L38.9 -37.3 Q41.7 -34.25 39.85 -30.55 39.15 -29.1 37.45 -28.45 M38.95 -22.6 Q40.1 -22.5 40.85 -21.7 41.6 -20.85 41.5 -19.8 41.35 -18.75 40.35 -18.1 39.35 -17.45 38.2 -17.5 36.95 -17.6 36.2 -18.45 35.45 -19.2 35.6 -20.3 35.75 -21.35 36.7 -22.0 37.7 -22.7 38.95 -22.6 M27.6 -20.4 L18.65 -20.55 M28.35 -18.15 L16.1 -18.6 M0.9 -53.8 Q-0.4 -54.5 -0.1 -56.0 L0.2 -56.95 1.6 -58.4 Q3.45 -57.9 3.3 -56.35 3.2 -54.05 0.9 -53.8 M-38.0 -54.0 Q-37.85 -52.6 -37.0 -51.6 L-36.0 -51.9 Q-34.95 -53.2 -35.65 -54.6 -36.1 -55.55 -37.2 -55.9 L-38.0 -54.95 -38.0 -54.0 M-0.8 -31.5 L-1.8 -32.65 Q0.5 -33.85 2.9 -35.05 L1.9 -37.1 0.4 -39.1 -1.1 -40.7 Q-1.1 -42.7 0.35 -44.25 1.75 -45.75 2.25 -47.6 2.5 -48.45 2.3 -49.25 L1.95 -50.15 M-34.15 -29.85 Q-35.8 -32.6 -33.95 -35.65 L-33.7 -36.0 -36.45 -40.65 Q-34.8 -43.4 -35.45 -46.2 -35.55 -46.65 -35.95 -46.95 L-36.55 -47.3 M-11.8 -23.5 L-19.15 -22.8 -24.2 -22.9 M-33.55 -23.05 Q-32.4 -22.95 -31.65 -22.25 -30.85 -21.55 -30.95 -20.6 -31.15 -19.7 -32.1 -19.1 -33.0 -18.55 -34.15 -18.65 -35.3 -18.75 -36.1 -19.45 -36.85 -20.15 -36.65 -21.05 -36.55 -22.0 -35.65 -22.6 -34.7 -23.15 -33.55 -23.05 M0.75 -24.0 Q1.4 -23.05 0.85 -21.95 -0.1 -19.85 -2.4 -19.7 L-5.55 -21.05 -6.1 -21.6 Q-6.7 -23.05 -5.35 -24.35 -3.95 -25.8 -1.95 -26.0 -0.25 -25.55 0.75 -24.0 M-9.9 -21.2 L-22.3 -20.55" fill="none" stroke="#7a4900" stroke-linecap="round" stroke-linejoin="round" stroke-width="2.0"/>
      <path d="M44.0 -53.7 L42.95 -53.45 42.7 -52.3 M38.85 -20.6 L37.5 -21.05 36.95 -20.45 36.95 -19.65 37.55 -19.65 M1.6 -56.6 L1.0 -55.1 M-36.9 -54.35 L-36.55 -53.2 M-33.6 -21.75 L-34.7 -21.7 -35.3 -19.75 M-2.4 -24.15 Q-3.15 -24.25 -3.7 -23.6 -4.25 -23.0 -4.4 -22.1" fill="none" stroke="#ff9900" stroke-linecap="round" stroke-linejoin="round" stroke-width="1.5"/>
      <path d="M28.25 -25.15 L29.25 -25.8 Q33.05 -29.05 35.35 -33.85 L37.4 -38.1 38.1 -40.0 39.4 -44.75 39.85 -48.3 Q39.9 -49.9 39.0 -51.4 L38.2 -52.5 37.5 -53.25 45.4 -59.6 M23.0 -23.45 L27.3 -24.25 Q28.35 -24.5 29.15 -25.4 L29.25 -25.8 M27.45 -19.6 L18.6 -20.0 M-10.65 -25.35 Q-8.25 -28.05 -6.7 -31.5 -4.5 -36.55 -2.45 -41.65 -1.1 -44.9 -1.3 -48.5 -1.35 -50.6 -1.7 -52.55 -2.35 -55.0 -4.25 -56.85 -4.3 -57.4 -3.95 -57.9 L-3.6 -58.35 Q-0.45 -61.3 2.3 -64.65 M-36.55 -16.6 Q-37.3 -18.55 -37.05 -20.7 -36.45 -26.1 -36.8 -31.65 L-37.6 -42.45 -37.7 -47.15 -37.8 -49.0 Q-38.05 -54.25 -39.0 -59.6 L-39.25 -60.2 M-21.55 -25.9 L-23.85 -26.15 -25.4 -27.1 Q-27.5 -28.05 -28.25 -30.2 M-11.85 -22.95 L-17.55 -22.25 Q-20.05 -21.9 -22.65 -22.2" fill="none" stroke="#ffff99" stroke-linecap="round" stroke-linejoin="round" stroke-width="1.5"/>
      <path d="M-30.95 -39.3 Q-28.15 -41.65 -24.7 -43.1 L-14.25 -46.95 Q-8.75 -48.75 -3.15 -49.45 M34.85 -37.75 Q31.65 -41.45 27.65 -44.1 23.55 -46.85 18.85 -48.05 L13.9 -48.95 7.1 -49.45" fill="none" stroke="#000000" stroke-linecap="round" stroke-linejoin="round" stroke-width="2.0"/>
    </g>
    </g>
  </g>
  <defs>
    <radialGradient cx="0" cy="0" gradientTransform="matrix(0.0028, 0.1085, -0.1668, 0.0043, 1.0, -31.5)" gradientUnits="userSpaceOnUse" id="gradient0" r="819.2" spreadMethod="pad">
      <stop offset="0.0" stop-color="#b9b9b9"/>
      <stop offset="0.21176470588235294" stop-color="#dadada"/>
      <stop offset="0.3176470588235294" stop-color="#ffffff"/>
      <stop offset="0.4627450980392157" stop-color="#e3e3e3"/>
      <stop offset="1.0" stop-color="#959595"/>
    </radialGradient>
    <radialGradient cx="0" cy="0" gradientTransform="matrix(0.0021, 0.0813, -0.1251, 0.0032, -10.4, 22.15)" gradientUnits="userSpaceOnUse" id="gradient1" r="819.2" spreadMethod="pad">
      <stop offset="0.0" stop-color="#b9b9b9"/>
      <stop offset="0.21176470588235294" stop-color="#dadada"/>
      <stop offset="0.3176470588235294" stop-color="#ffffff"/>
      <stop offset="0.4627450980392157" stop-color="#e3e3e3"/>
      <stop offset="1.0" stop-color="#959595"/>
    </radialGradient>
    <linearGradient gradientTransform="matrix(0.0586, 0.0047, -0.0047, 0.0341, 2.35, -38.6)" gradientUnits="userSpaceOnUse" id="gradient2" spreadMethod="pad" x1="-819.2" x2="819.2">
      <stop offset="0.0" stop-color="#996715"/>
      <stop offset="0.13725490196078433" stop-color="#e3af39"/>
      <stop offset="0.49411764705882355" stop-color="#fff4b5"/>
      <stop offset="0.8705882352941177" stop-color="#e3af39"/>
      <stop offset="1.0" stop-color="#9e6a16"/>
    </linearGradient>
    <radialGradient cx="0" cy="0" gradientTransform="matrix(0.0466, 0.0037, -0.0062, 0.0448, -8.75, -39.15)" gradientUnits="userSpaceOnUse" id="gradient3" r="819.2" spreadMethod="pad">
      <stop offset="0.0" stop-color="#a20202"/>
      <stop offset="1.0" stop-color="#5f0101"/>
    </radialGradient>
  </defs>
</svg>