<svg xmlns:xlink="http://www.w3.org/1999/xlink" xmlns="http://www.w3.org/2000/svg" height="119.1px" width="213.05px">
  <g transform="matrix(1.0, 0.0, 0.0, 1.0, 94.65, 81.2)">
    <g data-characterId="938" height="90.5" transform="matrix(1.0, 0.0, 0.0, 1.0, -78.5, -71.55)" width="158.15" xlink:href="#shape0"><g id="shape0" transform="matrix(1.0, 0.0, 0.0, 1.0, 78.5, 71.55)">
      <path d="M43.0 -25.4 L29.95 -11.7 Q22.0 -2.8 18.75 8.4 7.35 14.05 -5.1 13.8 -11.7 13.7 -16.75 9.2 -22.95 3.7 -31.45 3.15 L-33.25 2.45 -34.05 -3.0 -37.55 -16.8 -37.25 -17.0 Q-36.9 -18.75 -35.5 -19.75 -34.1 -20.8 -31.8 -23.15 -29.5 -25.55 -28.45 -25.85 L-24.55 -26.55 -20.75 -27.2 -21.05 -23.1 -19.1 -22.25 -17.2 -20.15 Q-16.15 -18.7 -14.75 -17.8 -10.55 -15.15 -4.5 -14.25 L6.6 -13.35 7.0 -13.3 7.0 -13.5 Q11.7 -14.75 17.0 -19.1 L25.95 -26.55 26.6 -27.05 27.5 -27.9 27.05 -34.35 Q29.1 -33.95 34.75 -30.95 40.0 -28.2 42.0 -26.65 L43.25 -25.7 43.0 -25.4 M29.7 18.45 L32.2 12.5 32.8 11.65 Q41.05 3.1 52.65 -0.5 61.15 -3.05 69.85 -4.3 76.0 2.5 74.35 10.3 L73.65 11.2 Q66.85 15.95 59.05 18.45 L29.7 18.45 M-25.8 -13.3 L-23.4 -12.55 -22.05 -11.95 -20.65 -11.75 -20.15 -11.5 -6.8 -11.0 6.6 -13.35 -6.8 -11.0 -20.15 -11.5 -20.65 -11.75 -22.05 -11.95 -23.4 -12.55 -25.8 -13.3 M-70.45 -10.9 L-66.05 -9.85 Q-56.75 -5.55 -48.95 1.1 -40.85 8.1 -37.7 18.45 L-63.45 18.45 Q-70.1 15.15 -74.35 9.15 -75.65 7.3 -75.85 5.3 -76.85 -3.5 -70.45 -10.9" fill="#7e0101" fill-rule="evenodd" stroke="none"/>
      <path d="M23.8 -64.3 L23.15 -71.05 23.4 -70.95 26.65 -70.85 35.95 -70.55 Q41.25 -70.25 49.3 -68.05 61.45 -64.75 65.05 -52.9 66.15 -49.35 68.15 -46.2 75.25 -34.7 78.1 -21.95 79.85 -14.1 78.7 -6.05 L69.85 -4.3 Q61.15 -3.05 52.65 -0.5 41.05 3.1 32.8 11.65 L32.55 11.45 32.2 12.5 29.7 18.45 16.1 18.45 18.75 8.4 Q22.0 -2.8 29.95 -11.7 L43.0 -25.4 43.3 -25.7 47.85 -29.45 51.65 -33.95 Q54.95 -38.1 57.65 -42.7 58.05 -45.4 58.85 -48.0 60.85 -54.25 56.7 -59.05 50.55 -66.1 40.9 -64.7 L32.05 -65.3 Q26.4 -66.0 23.8 -64.3 M-37.55 -16.8 L-34.05 -3.0 -33.25 2.45 -33.45 18.45 -36.25 18.45 -37.7 18.45 Q-40.85 8.1 -48.95 1.1 -56.75 -5.55 -66.05 -9.85 L-70.45 -10.9 -75.05 -11.6 -77.55 -11.9 -78.0 -12.55 Q-72.9 -21.35 -73.55 -31.45 -74.25 -42.8 -67.85 -51.95 -59.85 -63.35 -46.0 -66.15 L-32.15 -68.5 Q-24.1 -69.45 -18.4 -68.6 L-19.15 -61.9 Q-21.85 -63.9 -27.4 -63.3 L-36.7 -62.65 Q-50.9 -60.55 -63.1 -52.05 L-63.4 -52.2 -63.55 -51.7 -63.8 -51.05 Q-63.3 -41.4 -53.75 -36.95 -49.7 -35.05 -46.5 -31.7 -40.45 -25.3 -37.55 -16.9 L-37.55 -16.8 M73.2 -25.3 L73.1 -25.75 72.45 -26.35 71.05 -26.25 70.85 -25.35 71.2 -23.5 Q71.95 -21.25 74.0 -19.75 76.25 -18.0 75.75 -15.3 L75.15 -14.0 73.2 -12.2 75.15 -14.0 75.75 -15.3 Q76.25 -18.0 74.0 -19.75 71.95 -21.25 71.2 -23.5 L70.85 -25.35 71.05 -26.25 72.45 -26.35 73.1 -25.75 73.2 -25.3 M67.9 -38.0 L67.8 -35.0 Q67.8 -34.0 68.2 -33.0 68.95 -31.05 70.5 -29.85 L72.2 -28.6 Q74.2 -27.25 74.35 -24.85 L72.7 -23.7 74.35 -24.85 Q74.2 -27.25 72.2 -28.6 L70.5 -29.85 Q68.95 -31.05 68.2 -33.0 67.8 -34.0 67.8 -35.0 L67.9 -38.0 M65.1 -46.95 L65.6 -45.8 64.25 -43.95 64.45 -43.25 Q64.7 -42.6 65.1 -42.1 65.6 -41.55 66.25 -41.35 68.25 -41.1 68.9 -39.2 69.5 -37.55 69.25 -35.7 69.5 -37.55 68.9 -39.2 68.25 -41.1 66.25 -41.35 65.6 -41.55 65.1 -42.1 64.7 -42.6 64.45 -43.25 L64.25 -43.95 65.6 -45.8 65.1 -46.95 M55.9 -5.75 Q56.0 -4.85 55.3 -4.2 53.85 -2.85 52.05 -2.8 47.15 -2.1 42.2 -2.55 L37.65 -2.35 Q36.75 -2.1 36.3 -1.4 L36.8 2.3 36.3 -1.4 Q36.75 -2.1 37.65 -2.35 L42.2 -2.55 Q47.15 -2.1 52.05 -2.8 53.85 -2.85 55.3 -4.2 56.0 -4.85 55.9 -5.75 M74.35 -8.5 L74.45 -8.25 Q74.55 -8.1 74.75 -8.1 75.75 -8.1 76.3 -8.85 L76.15 -10.2 Q76.05 -10.85 75.5 -11.1 L70.7 -11.25 Q69.1 -10.5 68.8 -8.75 69.1 -10.5 70.7 -11.25 L75.5 -11.1 Q76.05 -10.85 76.15 -10.2 L76.3 -8.85 Q75.75 -8.1 74.75 -8.1 74.55 -8.1 74.45 -8.25 L74.35 -8.5 M70.9 -8.3 Q70.0 -6.75 68.3 -6.75 L64.65 -6.35 Q61.55 -6.0 58.85 -7.3 56.85 -8.25 54.7 -7.8 53.85 -7.6 53.55 -7.05 L52.45 -4.6 53.55 -7.05 Q53.85 -7.6 54.7 -7.8 56.85 -8.25 58.85 -7.3 61.55 -6.0 64.65 -6.35 L68.3 -6.75 Q70.0 -6.75 70.9 -8.3 M37.5 0.0 L39.3 0.1 39.6 0.35 39.7 1.3 39.45 2.35 Q38.65 3.75 37.2 4.55 34.9 5.7 32.7 7.0 31.4 7.8 30.5 9.05 27.7 12.9 26.45 17.5 27.7 12.9 30.5 9.05 31.4 7.8 32.7 7.0 34.9 5.7 37.2 4.55 38.65 3.75 39.45 2.35 L39.7 1.3 39.6 0.35 39.3 0.1 37.5 0.0 M-36.85 3.7 L-37.3 3.35 -38.3 3.6 Q-39.1 4.05 -39.1 4.95 -39.1 7.85 -38.6 10.75 -37.95 14.8 -36.25 18.45 -37.95 14.8 -38.6 10.75 -39.1 7.85 -39.1 4.95 -39.1 4.05 -38.3 3.6 L-37.3 3.35 -36.85 3.7 M-54.1 -8.75 L-54.75 -8.25 Q-55.3 -5.05 -51.95 -4.15 L-48.5 -3.45 Q-46.1 -3.1 -44.55 -1.5 L-42.1 0.9 Q-40.45 2.6 -41.75 4.65 L-43.05 4.8 -43.5 4.15 -43.05 4.8 -41.75 4.65 Q-40.45 2.6 -42.1 0.9 L-44.55 -1.5 Q-46.1 -3.1 -48.5 -3.45 L-51.95 -4.15 Q-55.3 -5.05 -54.75 -8.25 L-54.1 -8.75 M-75.25 -14.75 L-74.8 -14.2 Q-73.6 -14.2 -73.0 -15.2 L-71.9 -16.85 Q-71.35 -17.6 -70.45 -17.7 L-67.1 -17.15 -66.55 -14.25 -67.1 -17.15 -70.45 -17.7 Q-71.35 -17.6 -71.9 -16.85 L-73.0 -15.2 Q-73.6 -14.2 -74.8 -14.2 L-75.25 -14.75 M-68.15 -15.2 L-69.0 -15.8 -69.2 -14.4 Q-68.1 -12.9 -66.1 -12.3 L-63.55 -11.55 -60.35 -10.6 -58.35 -11.0 -55.6 -11.6 Q-53.6 -11.85 -52.6 -9.95 L-53.4 -7.35 -52.6 -9.95 Q-53.6 -11.85 -55.6 -11.6 L-58.35 -11.0 -60.35 -10.6 -63.55 -11.55 -66.1 -12.3 Q-68.1 -12.9 -69.2 -14.4 L-69.0 -15.8 -68.15 -15.2 M-68.85 -32.7 L-68.85 -33.85 -69.7 -33.8 Q-70.25 -33.85 -70.6 -33.4 -71.35 -32.35 -71.5 -31.1 -71.85 -27.85 -71.35 -24.35 -71.2 -23.4 -71.35 -22.45 -71.55 -21.25 -72.2 -20.25 L-73.2 -18.65 -72.2 -20.25 Q-71.55 -21.25 -71.35 -22.45 -71.2 -23.4 -71.35 -24.35 -71.85 -27.85 -71.5 -31.1 -71.35 -32.35 -70.6 -33.4 -70.25 -33.85 -69.7 -33.8 L-68.85 -33.85 -68.85 -32.7 M-67.45 -49.05 L-69.25 -45.0 Q-69.85 -43.6 -70.05 -42.1 -70.2 -40.75 -69.45 -39.65 -67.55 -36.85 -66.75 -33.6 L-70.0 -31.75 -66.75 -33.6 Q-67.55 -36.85 -69.45 -39.65 -70.2 -40.75 -70.05 -42.1 -69.85 -43.6 -69.25 -45.0 L-67.45 -49.05" fill="#a0783b" fill-rule="evenodd" stroke="none"/>
      <path d="M23.8 -64.3 Q26.4 -66.0 32.05 -65.3 L40.9 -64.7 Q50.55 -66.1 56.7 -59.05 60.85 -54.25 58.85 -48.0 58.05 -45.4 57.65 -42.7 54.95 -38.1 51.65 -33.95 L47.85 -29.45 43.3 -25.7 43.25 -25.7 42.0 -26.65 Q40.0 -28.2 34.75 -30.95 29.1 -33.95 27.05 -34.35 L23.8 -64.3 M-20.75 -27.2 L-24.55 -26.55 -28.45 -25.85 Q-29.5 -25.55 -31.8 -23.15 -34.1 -20.8 -35.5 -19.75 -36.9 -18.75 -37.25 -17.0 L-37.55 -16.9 Q-40.45 -25.3 -46.5 -31.7 -49.7 -35.05 -53.75 -36.95 -63.3 -41.4 -63.8 -51.05 L-63.55 -51.7 -63.1 -52.05 Q-50.9 -60.55 -36.7 -62.65 L-27.4 -63.3 Q-21.85 -63.9 -19.15 -61.9 L-20.75 -27.2" fill="#4a371c" fill-rule="evenodd" stroke="none"/>
      <path d="M18.75 8.4 L16.1 18.45 -33.45 18.45 -33.25 2.45 -31.45 3.15 Q-22.95 3.7 -16.75 9.2 -11.7 13.7 -5.1 13.8 7.35 14.05 18.75 8.4" fill="#660000" fill-rule="evenodd" stroke="none"/>
      <path d="M69.85 -4.3 L78.7 -6.05 Q79.85 -14.1 78.1 -21.95 75.25 -34.7 68.15 -46.2 66.15 -49.35 65.05 -52.9 61.45 -64.75 49.3 -68.05 41.25 -70.25 35.95 -70.55 L26.65 -70.85 23.4 -70.95 23.15 -71.05 23.8 -64.3 Q26.4 -66.0 32.05 -65.3 L40.9 -64.7 Q50.55 -66.1 56.7 -59.05 60.85 -54.25 58.85 -48.0 58.05 -45.4 57.65 -42.7 54.95 -38.1 51.65 -33.95 L47.85 -29.45 43.3 -25.7 43.0 -25.4 29.95 -11.7 Q22.0 -2.8 18.75 8.4 L16.1 18.45 M29.7 18.45 L32.2 12.5 32.55 11.45 M32.8 11.65 Q41.05 3.1 52.65 -0.5 61.15 -3.05 69.85 -4.3 76.0 2.5 74.35 10.3 L73.65 11.2 Q66.85 15.95 59.05 18.45 M43.25 -25.7 L42.0 -26.65 Q40.0 -28.2 34.75 -30.95 29.1 -33.95 27.05 -34.35 L27.5 -27.9 26.6 -27.05 25.95 -26.55 17.0 -19.1 Q11.7 -14.75 7.0 -13.5 L6.6 -13.35 -4.5 -14.25 Q-10.55 -15.15 -14.75 -17.8 -16.15 -18.7 -17.2 -20.15 L-19.1 -22.25 -21.05 -23.1 -20.75 -27.2 -24.55 -26.55 -28.45 -25.85 Q-29.5 -25.55 -31.8 -23.15 -34.1 -20.8 -35.5 -19.75 -36.9 -18.75 -37.25 -17.0 L-37.55 -16.8 -34.05 -3.0 -33.25 2.45 -31.45 3.15 Q-22.95 3.7 -16.75 9.2 -11.7 13.7 -5.1 13.8 7.35 14.05 18.75 8.4 M6.6 -13.35 L-6.8 -11.0 -20.15 -11.5 -20.65 -11.75 -22.05 -11.95 -23.4 -12.55 -25.8 -13.3 M43.3 -25.7 L43.25 -25.7 M27.05 -34.35 L23.8 -64.3 M32.8 11.65 L32.2 12.5 M-19.15 -61.9 L-18.4 -68.6 Q-24.1 -69.45 -32.15 -68.5 L-46.0 -66.15 Q-59.85 -63.35 -67.85 -51.95 -74.25 -42.8 -73.55 -31.45 -72.9 -21.35 -78.0 -12.55 L-77.55 -11.9 -75.05 -11.6 -70.45 -10.9 -66.05 -9.85 Q-56.75 -5.55 -48.95 1.1 -40.85 8.1 -37.7 18.45 M-63.1 -52.05 Q-50.9 -60.55 -36.7 -62.65 L-27.4 -63.3 Q-21.85 -63.9 -19.15 -61.9 L-20.75 -27.2 M-63.55 -51.7 L-63.4 -52.2 M-63.1 -52.05 L-63.55 -51.7 -63.8 -51.05 Q-63.3 -41.4 -53.75 -36.95 -49.7 -35.05 -46.5 -31.7 -40.45 -25.3 -37.55 -16.9 L-37.55 -16.8 M-33.45 18.45 L-33.25 2.45 M-70.45 -10.9 Q-76.85 -3.5 -75.85 5.3 -75.65 7.3 -74.35 9.15 -70.1 15.15 -63.45 18.45" fill="none" stroke="#000000" stroke-linecap="round" stroke-linejoin="round" stroke-width="2.0"/>
      <path d="M36.8 2.3 L36.3 -1.4 Q36.75 -2.1 37.65 -2.35 L42.2 -2.55 Q47.15 -2.1 52.05 -2.8 53.85 -2.85 55.3 -4.2 56.0 -4.85 55.9 -5.75 M69.25 -35.7 Q69.5 -37.55 68.9 -39.2 68.25 -41.1 66.25 -41.35 65.6 -41.55 65.1 -42.1 64.7 -42.6 64.45 -43.25 L64.25 -43.95 65.6 -45.8 65.1 -46.95 M72.7 -23.7 L74.35 -24.85 Q74.2 -27.25 72.2 -28.6 L70.5 -29.85 Q68.95 -31.05 68.2 -33.0 67.8 -34.0 67.8 -35.0 L67.9 -38.0 M73.2 -12.2 L75.15 -14.0 75.75 -15.3 Q76.25 -18.0 74.0 -19.75 71.95 -21.25 71.2 -23.5 L70.85 -25.35 71.05 -26.25 72.45 -26.35 73.1 -25.75 73.2 -25.3 M52.45 -4.6 L53.55 -7.05 Q53.85 -7.6 54.7 -7.8 56.85 -8.25 58.85 -7.3 61.55 -6.0 64.65 -6.35 L68.3 -6.75 Q70.0 -6.75 70.9 -8.3 M68.8 -8.75 Q69.1 -10.5 70.7 -11.25 L75.5 -11.1 Q76.05 -10.85 76.15 -10.2 L76.3 -8.85 Q75.75 -8.1 74.75 -8.1 74.55 -8.1 74.45 -8.25 L74.35 -8.5 M26.45 17.5 Q27.7 12.9 30.5 9.05 31.4 7.8 32.7 7.0 34.9 5.7 37.2 4.55 38.65 3.75 39.45 2.35 L39.7 1.3 39.6 0.35 39.3 0.1 37.5 0.0 M-36.25 18.45 Q-37.95 14.8 -38.6 10.75 -39.1 7.85 -39.1 4.95 -39.1 4.05 -38.3 3.6 L-37.3 3.35 -36.85 3.7 M-70.0 -31.75 L-66.75 -33.6 Q-67.55 -36.85 -69.45 -39.65 -70.2 -40.75 -70.05 -42.1 -69.85 -43.6 -69.25 -45.0 L-67.45 -49.05 M-73.2 -18.65 L-72.2 -20.25 Q-71.55 -21.25 -71.35 -22.45 -71.2 -23.4 -71.35 -24.35 -71.85 -27.85 -71.5 -31.1 -71.35 -32.35 -70.6 -33.4 -70.25 -33.85 -69.7 -33.8 L-68.85 -33.85 -68.85 -32.7 M-53.4 -7.35 L-52.6 -9.95 Q-53.6 -11.85 -55.6 -11.6 L-58.35 -11.0 -60.35 -10.6 -63.55 -11.55 -66.1 -12.3 Q-68.1 -12.9 -69.2 -14.4 L-69.0 -15.8 -68.15 -15.2 M-66.55 -14.25 L-67.1 -17.15 -70.45 -17.7 Q-71.35 -17.6 -71.9 -16.85 L-73.0 -15.2 Q-73.6 -14.2 -74.8 -14.2 L-75.25 -14.75 M-43.5 4.15 L-43.05 4.8 -41.75 4.65 Q-40.45 2.6 -42.1 0.9 L-44.55 -1.5 Q-46.1 -3.1 -48.5 -3.45 L-51.95 -4.15 Q-55.3 -5.05 -54.75 -8.25 L-54.1 -8.75" fill="none" stroke="#ffcc66" stroke-linecap="round" stroke-linejoin="round" stroke-width="2.0"/>
    </g>
  </g>
  </g>
  <defs>
    </defs>
</svg>