<svg xmlns:xlink="http://www.w3.org/1999/xlink" xmlns="http://www.w3.org/2000/svg" height="13.7px" width="24.2px">
  <g transform="matrix(1.0, 0.0, 0.0, 1.0, 6.95, 5.4)">
    <path d="M3.0 -4.3 Q8.3 -2.45 13.65 -4.2 L14.95 -4.6 Q15.7 -4.85 16.35 -5.35 L16.6 -5.4 16.85 -5.35 17.0 -5.25 17.15 -5.05 17.25 -4.8 Q16.6 -3.2 14.75 -3.15 10.4 -1.15 5.7 -1.45 0.95 0.0 -4.1 -1.35 -4.95 -1.3 -5.1 -2.0 -6.05 -1.85 -6.95 -2.4 L-6.9 -2.5 -6.9 -2.7 -6.85 -2.8 Q-5.5 -3.05 -4.3 -3.65 -3.65 -4.25 -2.75 -4.35 -0.25 -2.55 2.45 -4.25 L3.0 -4.3 M1.3 8.2 Q-1.55 8.8 -3.05 6.35 L-3.25 5.65 -3.25 5.3 -1.55 6.0 Q0.1 6.65 2.6 6.55 L4.8 6.8 4.3 7.35 1.3 8.2" fill="#e6b380" fill-rule="evenodd" stroke="none"/>
  </g>
</svg>