<svg xmlns:xlink="http://www.w3.org/1999/xlink" xmlns="http://www.w3.org/2000/svg" height="264.15px" width="342.25px">
  <g transform="matrix(1.0, 0.0, 0.0, 1.0, 243.25, 83.7)">
    <g data-characterId="1133" height="110.8" transform="matrix(1.0, 0.0, 0.0, 1.0, -48.4, -41.65)" width="99.0" xlink:href="#shape0"><g id="shape0" transform="matrix(1.0, 0.0, 0.0, 1.0, 48.4, 41.65)">
      <path d="M0.15 38.4 L0.35 38.8 0.6 39.4 1.15 40.85 M-21.7 47.2 L-21.8 48.3 Q-21.7 50.1 -21.0 51.75 M-26.75 42.0 Q-27.25 41.4 -27.05 40.55 L-26.75 39.1 M-24.7 40.85 L-24.65 38.8 -24.45 37.1 M-21.55 40.25 Q-20.8 38.8 -20.5 37.15 L-20.1 35.95 M-10.9 35.65 L-10.55 35.75 Q-9.9 36.95 -9.45 38.25 M-5.15 36.25 L-5.05 36.75 -4.6 37.65 M-15.2 39.1 L-15.2 37.4 -15.2 36.25 M-7.45 47.75 L-7.45 48.9 -7.45 50.35 M-15.8 50.6 L-14.65 55.5 M-19.25 48.6 Q-19.1 50.9 -17.65 52.75 L-16.95 53.8 M-12.05 49.2 L-11.2 52.9" fill="none" stroke="#926836" stroke-linecap="round" stroke-linejoin="round" stroke-width="1.5"/>
      <path d="M11.35 48.35 Q20.8 46.2 27.05 39.15 30.8 45.25 31.95 52.35 32.15 53.75 31.2 54.95 28.25 58.55 23.6 58.6 20.7 58.65 18.45 59.5 8.1 63.15 -1.9 67.6 -3.05 68.2 -4.3 68.4 L-9.2 68.6 -22.7 67.55 -23.1 66.65 Q-23.75 62.9 -25.45 59.55 -26.0 58.55 -26.9 57.95 -29.2 56.25 -30.4 54.1 L-21.1 53.1 Q-17.35 55.4 -13.25 56.7 -6.35 58.85 -0.6 54.65 1.25 53.8 2.15 52.0 2.45 51.3 3.15 51.05 7.0 49.25 11.35 48.35" fill="url(#gradient0)" fill-rule="evenodd" stroke="none"/>
      <path d="M11.35 48.35 Q7.0 49.25 3.15 51.05 2.45 51.3 2.15 52.0 1.25 53.8 -0.6 54.65 -6.35 58.85 -13.25 56.7 -17.35 55.4 -21.1 53.1 L-30.4 54.1 Q-29.2 56.25 -26.9 57.95 -26.0 58.55 -25.45 59.55 -23.75 62.9 -23.1 66.65 L-22.7 67.55 -9.2 68.6 -4.3 68.4 Q-3.05 68.2 -1.9 67.6 8.1 63.15 18.45 59.5 20.7 58.65 23.6 58.6 28.25 58.55 31.2 54.95 32.15 53.75 31.95 52.35 30.8 45.25 27.05 39.15 20.8 46.2 11.35 48.35 Z" fill="none" stroke="#000000" stroke-linecap="round" stroke-linejoin="round" stroke-width="2.0"/>
      <path d="M15.55 -24.75 L15.85 -24.95 17.15 -25.05 Q17.2 -24.2 16.7 -23.6 17.2 -24.2 17.15 -25.05 L15.85 -24.95 15.55 -24.75 M4.05 -34.25 L4.65 -34.45 5.8 -34.55 5.75 -33.95 5.5 -33.4 5.75 -33.95 5.8 -34.55 4.65 -34.45 4.05 -34.25 M-15.5 -38.3 Q-8.85 -41.35 -1.1 -41.15 L5.8 -40.7 Q13.0 -40.05 19.25 -37.4 29.9 -32.8 37.05 -23.4 39.4 -20.25 40.25 -16.65 42.2 -8.2 41.9 0.55 41.45 12.25 38.75 23.75 37.8 27.85 37.7 31.95 37.6 37.3 39.1 42.6 L39.1 43.15 39.25 44.25 Q39.45 46.4 37.95 48.0 34.3 51.65 29.3 53.05 L26.25 53.15 26.05 53.15 Q21.55 52.4 17.25 54.1 L14.1 46.95 Q11.35 40.4 6.6 35.4 4.25 33.05 0.9 32.35 L-2.4 31.55 Q-7.1 31.2 -11.2 33.3 -13.85 31.35 -16.85 30.8 -19.85 30.2 -22.8 31.3 -28.95 33.6 -35.1 31.65 L-35.2 23.15 -35.2 6.1 Q-35.2 -2.05 -33.45 -10.15 -31.15 -20.9 -25.45 -30.45 -24.05 -32.8 -21.75 -34.55 -18.75 -36.8 -15.5 -38.3 L-9.0 -36.55 -15.5 -38.3 M26.45 -28.8 Q17.55 -35.8 6.15 -36.8 L-7.15 -37.2 -9.0 -36.55 -7.15 -37.2 6.15 -36.8 Q17.55 -35.8 26.45 -28.8 M26.2 -8.05 L26.5 -8.05 26.8 -7.95 Q27.25 -6.8 26.5 -6.35 27.25 -6.8 26.8 -7.95 L26.5 -8.05 26.2 -8.05 M26.75 13.15 Q22.95 18.65 19.15 12.6 20.7 5.35 26.45 10.2 27.9 11.45 26.75 13.15 M15.45 25.25 Q29.7 25.25 32.7 12.5 34.95 2.85 26.9 2.15 L25.9 2.05 Q16.05 1.15 9.9 9.4 7.55 12.5 3.85 13.4 L1.35 13.8 Q7.15 20.0 14.35 24.45 L15.1 24.95 15.45 25.25 M-9.0 -36.55 Q5.25 -33.2 15.15 -22.2 24.5 -11.85 25.9 2.05 24.5 -11.85 15.15 -22.2 5.25 -33.2 -9.0 -36.55 L-9.55 -36.35 Q-19.85 -31.15 -25.35 -21.05 -29.4 -13.55 -30.45 -5.0 -31.9 6.45 -31.15 17.95 L-30.5 27.05 -31.15 17.95 Q-31.9 6.45 -30.45 -5.0 -29.4 -13.55 -25.35 -21.05 -19.85 -31.15 -9.55 -36.35 L-9.0 -36.55 M11.5 35.1 Q11.8 35.1 12.0 35.25 L13.25 36.8 Q15.95 40.6 16.6 45.45 17.25 50.55 22.45 49.9 L22.85 50.25 Q24.6 51.65 26.25 51.6 27.85 51.55 29.3 50.05 27.85 51.55 26.25 51.6 24.6 51.65 22.85 50.25 L22.45 49.9 Q17.25 50.55 16.6 45.45 15.95 40.6 13.25 36.8 L12.0 35.25 Q11.8 35.1 11.5 35.1 M27.95 21.85 Q29.95 28.95 36.95 31.85 L37.7 31.95 36.95 31.85 Q29.95 28.95 27.95 21.85 M-23.6 28.75 L-23.0 26.25 Q-20.85 16.5 -22.45 6.9 -20.85 16.5 -23.0 26.25 L-23.6 28.75" fill="url(#gradient1)" fill-rule="evenodd" stroke="none"/>
      <path d="M6.6 35.4 Q11.35 40.4 14.1 46.95 L17.25 54.1 Q21.55 52.4 26.05 53.15 L26.25 53.15 29.3 53.05 Q34.3 51.65 37.95 48.0 L39.65 52.75 36.6 55.55 Q29.95 61.45 21.2 62.4 13.4 58.6 11.45 49.9 9.75 42.3 6.3 35.65 L6.6 35.4" fill="url(#gradient2)" fill-rule="evenodd" stroke="none"/>
      <path d="M26.75 13.15 Q27.9 11.45 26.45 10.2 20.7 5.35 19.15 12.6 22.95 18.65 26.75 13.15 M25.9 2.05 L26.9 2.15 Q34.95 2.85 32.7 12.5 29.7 25.25 15.45 25.25 L15.1 24.95 14.35 24.45 Q7.15 20.0 1.35 13.8 L3.85 13.4 Q7.55 12.5 9.9 9.4 16.05 1.15 25.9 2.05" fill="url(#gradient3)" fill-rule="evenodd" stroke="none"/>
      <path d="M-9.0 -36.55 L-7.15 -37.2 6.15 -36.8 Q17.55 -35.8 26.45 -28.8 M-9.0 -36.55 L-9.55 -36.35 Q-19.85 -31.15 -25.35 -21.05 -29.4 -13.55 -30.45 -5.0 -31.9 6.45 -31.15 17.95 L-30.5 27.05 M29.3 50.05 Q27.85 51.55 26.25 51.6 24.6 51.65 22.85 50.25 L22.45 49.9 Q17.25 50.55 16.6 45.45 15.95 40.6 13.25 36.8 L12.0 35.25 Q11.8 35.1 11.5 35.1 M-22.45 6.9 Q-20.85 16.5 -23.0 26.25 L-23.6 28.75" fill="none" stroke="#ffffff" stroke-linecap="round" stroke-linejoin="round" stroke-width="2.0"/>
      <path d="M37.7 31.95 Q37.8 27.85 38.75 23.75 41.45 12.25 41.9 0.55 42.2 -8.2 40.25 -16.65 39.4 -20.25 37.05 -23.4 29.9 -32.8 19.25 -37.4 13.0 -40.05 5.8 -40.7 L-1.1 -41.15 Q-8.85 -41.35 -15.5 -38.3 -18.75 -36.8 -21.75 -34.55 -24.05 -32.8 -25.45 -30.45 -31.15 -20.9 -33.45 -10.15 -35.2 -2.05 -35.2 6.1 L-35.2 23.15 -35.1 31.65 Q-28.95 33.6 -22.8 31.3 -19.85 30.2 -16.85 30.8 -13.85 31.35 -11.2 33.3 -7.1 31.2 -2.4 31.55 L0.9 32.35 Q4.25 33.05 6.6 35.4 11.35 40.4 14.1 46.95 L17.25 54.1 Q21.55 52.4 26.05 53.15 L26.25 53.15 29.3 53.05 Q34.3 51.65 37.95 48.0 39.45 46.4 39.25 44.25 L39.1 43.15 M39.1 42.6 Q37.6 37.3 37.7 31.95 M6.3 35.65 Q9.75 42.3 11.45 49.9 13.4 58.6 21.2 62.4 29.95 61.45 36.6 55.55 L39.65 52.75 37.95 48.0" fill="none" stroke="#000000" stroke-linecap="round" stroke-linejoin="round" stroke-width="2.0"/>
      <path d="M26.75 13.15 Q22.95 18.65 19.15 12.6 20.7 5.35 26.45 10.2 27.9 11.45 26.75 13.15 M25.9 2.05 L26.9 2.15 Q34.95 2.85 32.7 12.5 29.7 25.25 15.45 25.25 M15.1 24.95 L14.35 24.45 Q7.15 20.0 1.35 13.8 L3.85 13.4 Q7.55 12.5 9.9 9.4 16.05 1.15 25.9 2.05" fill="none" stroke="#000000" stroke-linecap="round" stroke-linejoin="round" stroke-width="2.0"/>
      <path d="M5.5 -33.4 L5.75 -33.95 5.8 -34.55 4.65 -34.45 4.05 -34.25 M16.7 -23.6 Q17.2 -24.2 17.15 -25.05 L15.85 -24.95 15.55 -24.75 M-15.5 -38.3 L-9.0 -36.55 Q5.25 -33.2 15.15 -22.2 24.5 -11.85 25.9 2.05 M26.5 -6.35 Q27.25 -6.8 26.8 -7.95 L26.5 -8.05 26.2 -8.05 M37.7 31.95 L36.95 31.85 Q29.95 28.95 27.95 21.85 M37.7 31.95 L38.55 31.9" fill="none" stroke="#666666" stroke-linecap="round" stroke-linejoin="round" stroke-width="1.5"/>
      <path d="M-36.85 -3.85 L-36.05 -3.9 Q-34.05 0.6 -30.55 2.9 -27.4 4.95 -23.05 5.25 L-22.5 5.25 Q-11.55 3.75 -3.85 -3.45 L1.05 -8.0 Q18.45 26.95 50.1 26.1 27.9 42.1 2.95 38.95 -4.6 32.9 -7.0 23.55 -11.0 30.95 -11.25 39.2 L-21.15 38.55 Q-33.25 38.2 -31.1 22.4 L-35.45 37.8 Q-41.65 39.25 -47.9 33.8 -41.4 33.35 -39.15 21.4 -37.05 10.2 -36.85 -3.85 M12.65 17.1 Q12.35 18.5 12.3 20.0 12.05 26.45 12.65 33.05 12.05 26.45 12.3 20.0 12.35 18.5 12.65 17.1 M3.45 4.65 L4.0 34.25 3.45 4.65 M21.25 24.2 L21.85 33.05 21.25 24.2 M-31.65 5.25 L-32.15 7.85 Q-32.95 13.1 -31.65 18.3 -32.95 13.1 -32.15 7.85 L-31.65 5.25 M-23.05 10.0 L-23.5 15.0 Q-24.25 24.4 -22.45 33.7 -24.25 24.4 -23.5 15.0 L-23.05 10.0 M-15.0 7.65 L-15.65 16.65 Q-16.35 24.9 -15.0 33.05 -16.35 24.9 -15.65 16.65 L-15.0 7.65 M-5.8 5.25 L-6.95 18.85 -5.8 5.25" fill="url(#gradient4)" fill-rule="evenodd" stroke="none"/>
      <path d="M-36.05 -3.9 L-36.85 -6.0 -36.85 -3.85 Q-37.05 10.2 -39.15 21.4 -41.4 33.35 -47.9 33.8 -41.65 39.25 -35.45 37.8 L-31.1 22.4 Q-33.25 38.2 -21.15 38.55 L-11.25 39.2 Q-11.0 30.95 -7.0 23.55 -4.6 32.9 2.95 38.95 27.9 42.1 50.1 26.1 18.45 26.95 1.05 -8.0 L-3.85 -3.45 Q-11.55 3.75 -22.5 5.25 M-36.05 -3.9 Q-34.05 0.6 -30.55 2.9 -27.4 4.95 -23.05 5.25 M-6.95 18.85 L-5.8 5.25 M-15.0 33.05 Q-16.35 24.9 -15.65 16.65 L-15.0 7.65 M-22.45 33.7 Q-24.25 24.4 -23.5 15.0 L-23.05 10.0 M-31.65 18.3 Q-32.95 13.1 -32.15 7.85 L-31.65 5.25 M21.85 33.05 L21.25 24.2 M4.0 34.25 L3.45 4.65 M12.65 33.05 Q12.05 26.45 12.3 20.0 12.35 18.5 12.65 17.1" fill="none" stroke="#000000" stroke-linecap="round" stroke-linejoin="round" stroke-width="2.0"/>
    </g>
    </g>
    <g data-characterId="1134" height="12.25" transform="matrix(1.0, 0.0, 0.0, 1.0, -27.85, -17.2)" width="18.15" xlink:href="#shape1"><g id="shape1" transform="matrix(1.0, 0.0, 0.0, 1.0, 27.85, 17.2)">
      <path d="M-27.3 -5.45 Q-27.7 -9.95 -25.6 -14.25 L-24.4 -16.65 -22.1 -10.2 -18.1 -16.65 Q-18.1 -12.45 -16.3 -8.7 L-15.2 -6.65 M-11.15 -5.55 L-10.75 -5.45 -10.35 -5.55 -10.2 -5.75 -10.35 -5.95 -10.75 -6.05 -11.15 -5.95 -11.3 -5.75 -11.15 -5.55 M-11.05 -8.45 Q-10.15 -12.3 -10.45 -16.7" fill="none" stroke="#000000" stroke-linecap="round" stroke-linejoin="round" stroke-width="2.0"/>
    </g>
  </g>
  </g>
  <defs>
    <linearGradient gradientTransform="matrix(0.0272, -1.0E-4, 1.0E-4, 0.0292, -9.95, 18.3)" gradientUnits="userSpaceOnUse" id="gradient0" spreadMethod="pad" x1="-819.2" x2="819.2">
      <stop offset="0.0" stop-color="#746558"/>
      <stop offset="0.32941176470588235" stop-color="#ffffff"/>
      <stop offset="0.7490196078431373" stop-color="#d3cbc5"/>
      <stop offset="1.0" stop-color="#746558"/>
    </linearGradient>
    <radialGradient cx="0" cy="0" gradientTransform="matrix(0.093, 0.0, 0.0, 0.093, -11.55, -19.0)" gradientUnits="userSpaceOnUse" id="gradient1" r="819.2" spreadMethod="pad">
      <stop offset="0.0" stop-color="#ffffff"/>
      <stop offset="0.43529411764705883" stop-color="#d3cbc5"/>
      <stop offset="1.0" stop-color="#746558"/>
    </radialGradient>
    <linearGradient gradientTransform="matrix(0.0663, 0.0, 0.0, 0.0321, 190.45, 75.35)" gradientUnits="userSpaceOnUse" id="gradient2" spreadMethod="pad" x1="-819.2" x2="819.2">
      <stop offset="0.0" stop-color="#746558"/>
      <stop offset="0.32941176470588235" stop-color="#ffffff"/>
      <stop offset="0.7490196078431373" stop-color="#d3cbc5"/>
      <stop offset="1.0" stop-color="#746558"/>
    </linearGradient>
    <linearGradient gradientTransform="matrix(0.007, 0.01, -0.0117, 0.0081, 17.6, 15.55)" gradientUnits="userSpaceOnUse" id="gradient3" spreadMethod="pad" x1="-819.2" x2="819.2">
      <stop offset="0.0" stop-color="#ffffff"/>
      <stop offset="0.2" stop-color="#d3cbc5"/>
      <stop offset="1.0" stop-color="#917c6f"/>
    </linearGradient>
    <linearGradient gradientTransform="matrix(0.0519, -2.0E-4, 1.0E-4, 0.0292, -7.45, 17.7)" gradientUnits="userSpaceOnUse" id="gradient4" spreadMethod="pad" x1="-819.2" x2="819.2">
      <stop offset="0.0" stop-color="#746558"/>
      <stop offset="0.32941176470588235" stop-color="#ffffff"/>
      <stop offset="0.7490196078431373" stop-color="#d3cbc5"/>
      <stop offset="1.0" stop-color="#746558"/>
    </linearGradient>
    </defs>
</svg>