<svg xmlns:xlink="http://www.w3.org/1999/xlink" xmlns="http://www.w3.org/2000/svg" height="119.1px" width="213.05px">
  <g transform="matrix(1.0, 0.0, 0.0, 1.0, 94.65, 81.2)">
    <g data-characterId="936" height="38.25" transform="matrix(1.0, 0.0, 0.0, 1.0, -59.0, -22.5)" width="132.2" xlink:href="#shape0"><g id="shape0" transform="matrix(1.0, 0.0, 0.0, 1.0, 59.0, 22.5)">
      <path d="M24.0 -14.0 L23.5 -13.5 Q22.65 -12.85 21.6 -12.3 L20.4 -11.65 Q19.75 -11.25 19.0 -11.0 14.1 -9.2 9.0 -7.95 L-0.55 -5.75 Q-5.35 -4.65 -7.5 0.0 -5.35 -4.65 -0.55 -5.75 L9.0 -7.95 Q14.1 -9.2 19.0 -11.0 19.75 -11.25 20.4 -11.65 L21.6 -12.3 Q22.65 -12.85 23.5 -13.5 L24.0 -14.0 M-21.55 -20.5 L-18.5 -19.3 Q5.35 -9.25 28.0 -22.5 L28.5 -22.0 Q30.1 -21.15 30.95 -18.85 31.75 -16.6 49.1 -13.5 66.4 -10.4 71.75 -0.7 77.1 8.95 52.1 13.45 27.05 17.9 -2.6 11.3 L-10.1 10.75 Q-33.95 11.8 -56.45 5.55 -58.9 4.8 -58.4 -3.6 -57.9 -12.0 -42.5 -12.85 -27.1 -13.7 -21.55 -20.5 M-27.9 -13.6 Q-26.05 -10.9 -26.5 -7.5 -26.05 -10.9 -27.9 -13.6" fill="url(#gradient0)" fill-rule="evenodd" stroke="none"/>
      <path d="M-21.55 -20.5 Q-27.1 -13.7 -42.5 -12.85 -57.9 -12.0 -58.4 -3.6 -58.9 4.8 -56.45 5.55 -33.95 11.8 -10.1 10.75 L-2.6 11.3 Q27.05 17.9 52.1 13.45 77.1 8.95 71.75 -0.7 66.4 -10.4 49.1 -13.5 31.75 -16.6 30.95 -18.85 30.1 -21.15 28.5 -22.0" fill="none" stroke="#000000" stroke-linecap="round" stroke-linejoin="round" stroke-width="2.0"/>
      <path d="M-7.5 0.0 Q-5.35 -4.65 -0.55 -5.75 L9.0 -7.95 Q14.1 -9.2 19.0 -11.0 19.75 -11.25 20.4 -11.65 L21.6 -12.3 Q22.65 -12.85 23.5 -13.5 L24.0 -14.0 M-26.5 -7.5 Q-26.05 -10.9 -27.9 -13.6" fill="none" stroke="#a97745" stroke-linecap="round" stroke-linejoin="round" stroke-width="2.0"/>
    </g>
    </g>
  </g>
  <defs>
    <radialGradient cx="0" cy="0" gradientTransform="matrix(0.0579, 0.0, 0.0, 0.0937, -21.55, -5.5)" gradientUnits="userSpaceOnUse" id="gradient0" r="819.2" spreadMethod="pad">
      <stop offset="0.0" stop-color="#e2b983"/>
      <stop offset="0.6274509803921569" stop-color="#d9a166"/>
      <stop offset="1.0" stop-color="#c08456"/>
    </radialGradient>
  </defs>
</svg>