<svg xmlns:xlink="http://www.w3.org/1999/xlink" xmlns="http://www.w3.org/2000/svg" height="13.1px" width="19.3px">
  <g transform="matrix(1.0, 0.0, 0.0, 1.0, 5.65, 4.8)">
    <path d="M0.9 -0.35 L-2.5 -0.85 -4.05 -0.75 Q-4.45 -0.3 -4.95 -0.6 L-5.25 -1.15 -5.55 -1.3 -5.55 -1.85 -5.5 -2.25 Q-4.7 -3.3 -3.45 -3.0 -2.8 -2.55 -1.05 -2.3 0.7 -3.45 2.05 -3.0 3.4 -2.5 6.6 -3.0 9.7 -3.5 11.4 -4.1 L13.65 -4.8 13.05 -4.05 Q12.15 -2.95 10.05 -1.7 7.9 -0.5 5.4 -0.2 L0.9 -0.35 M-1.95 5.95 L2.25 6.4 7.0 6.05 Q9.2 5.85 6.7 6.55 L1.15 8.1 Q-1.85 8.9 -3.4 6.4 L-3.65 5.65 -3.7 5.25 -1.95 5.95" fill="#e6b380" fill-rule="evenodd" stroke="none"/>
  </g>
</svg>