<svg xmlns:xlink="http://www.w3.org/1999/xlink" xmlns="http://www.w3.org/2000/svg" height="264.15px" width="342.25px">
  <g transform="matrix(1.0, 0.0, 0.0, 1.0, 243.25, 83.7)">
    <g data-characterId="1142" height="162.5" transform="matrix(1.0, 0.0, 0.0, 1.0, -40.2, -47.75)" width="103.4" xlink:href="#shape0"><g id="shape0" transform="matrix(1.0, 0.0, 0.0, 1.0, 40.2, 47.75)">
      <path d="M42.5 114.75 L42.15 113.85 42.2 113.85 42.5 114.75" fill="url(#gradient0)" fill-rule="evenodd" stroke="none"/>
      <path d="M15.0 -41.4 L14.25 -41.7 Q11.5 -42.15 9.0 -43.5 11.5 -42.15 14.25 -41.7 L15.0 -41.4 M-34.0 1.55 L-34.2 1.7 -34.35 1.6 -39.15 -1.6 -39.7 -2.35 Q-36.85 -17.2 -27.95 -29.2 -19.55 -40.6 -6.35 -45.6 2.05 -48.8 10.2 -45.7 22.1 -41.15 34.05 -37.0 34.75 -36.8 35.25 -36.15 45.95 -22.65 50.85 -5.95 54.45 6.45 55.65 19.3 56.65 30.15 62.7 39.15 56.0 42.4 48.4 43.05 42.7 42.95 38.85 38.25 40.0 43.15 40.2 48.0 40.35 51.2 38.1 53.4 37.1 54.4 35.4 53.95 L33.15 50.7 Q34.3 48.05 33.95 44.65 L33.15 37.1 32.35 31.7 32.95 30.05 34.0 28.55 35.1 27.45 Q35.65 26.9 35.45 25.35 35.15 23.0 33.15 18.4 30.7 12.9 22.45 6.15 19.05 3.35 14.65 0.35 -0.4 -9.95 -4.5 -10.45 L-5.25 -10.55 -13.85 -10.25 Q-20.2 -9.45 -26.2 -7.5 -29.8 -6.3 -33.25 -4.7 -34.3 -1.85 -33.7 0.8 L-33.6 1.15 -34.0 1.55 -34.35 1.6 -34.0 1.55 M0.5 -45.1 L-0.9 -45.0 -2.05 -44.75 -2.7 -44.55 Q-5.4 -43.6 -8.0 -42.05 -9.05 -41.4 -10.2 -40.85 -12.85 -39.6 -15.15 -37.75 L-16.6 -36.65 Q-20.7 -33.8 -23.85 -29.85 L-25.1 -28.3 -30.75 -20.4 Q-33.35 -16.4 -35.15 -11.95 L-35.7 -10.05 Q-35.9 -8.6 -36.55 -7.35 -35.9 -8.6 -35.7 -10.05 L-35.15 -11.95 Q-33.35 -16.4 -30.75 -20.4 L-25.1 -28.3 -23.85 -29.85 Q-20.7 -33.8 -16.6 -36.65 L-15.15 -37.75 Q-12.85 -39.6 -10.2 -40.85 -9.05 -41.4 -8.0 -42.05 -5.4 -43.6 -2.7 -44.55 L-2.05 -44.75 -0.9 -45.0 0.5 -45.1 M-39.15 -1.6 Q-36.3 -3.3 -33.25 -4.7 -36.3 -3.3 -39.15 -1.6 M40.3 22.75 Q38.65 17.65 37.3 12.45 36.35 8.85 33.65 7.2 36.35 8.85 37.3 12.45 38.65 17.65 40.3 22.75" fill="url(#gradient1)" fill-rule="evenodd" stroke="none"/>
      <path d="M-27.6 63.9 Q-36.45 51.8 -37.1 36.55 -37.45 29.0 -32.5 27.2 -27.6 25.35 -25.1 22.75 L-24.75 22.45 Q-21.95 20.35 -12.0 23.85 L3.3 29.0 Q7.95 30.45 18.35 31.2 26.05 32.65 32.25 29.75 L32.95 30.05 32.35 31.7 33.15 37.1 Q28.85 41.0 23.25 42.6 L21.85 42.9 23.25 42.6 Q28.85 41.0 33.15 37.1 L33.95 44.65 Q34.3 48.05 33.15 50.7 L33.0 51.05 Q31.3 54.55 26.9 56.65 26.0 57.05 25.55 57.9 18.8 70.55 5.2 72.8 L4.6 73.1 Q-7.3 75.55 -18.7 73.1 L-18.9 72.55 Q-22.85 68.05 -27.6 63.9 M-30.5 43.75 L-31.4 43.8 Q-33.2 43.7 -34.5 42.6 -33.2 43.7 -31.4 43.8 L-30.5 43.75 M-20.7 38.0 Q-22.8 38.25 -24.15 37.3 -22.8 38.25 -20.7 38.0 M-27.35 29.5 L-25.3 24.4 -25.1 23.95 -24.75 22.45 -25.1 23.95 -25.3 24.4 -27.35 29.5 M-23.7 25.1 L-23.75 25.8 Q-24.0 27.6 -24.6 29.25 -24.0 27.6 -23.75 25.8 L-23.7 25.1 M-34.95 37.75 Q-35.6 35.35 -34.95 32.95 -34.35 30.8 -32.9 30.15 -34.35 30.8 -34.95 32.95 -35.6 35.35 -34.95 37.75 M-18.6 68.35 L-24.85 60.8 -26.1 59.5 Q-29.55 56.2 -32.0 52.1 L-32.6 51.05 Q-33.75 48.9 -33.6 46.5 -33.75 48.9 -32.6 51.05 L-32.0 52.1 Q-29.55 56.2 -26.1 59.5 L-24.85 60.8 -18.6 68.35 M13.8 41.15 L16.15 40.5 Q25.3 37.85 32.35 31.7 25.3 37.85 16.15 40.5 L13.8 41.15" fill="url(#gradient2)" fill-rule="evenodd" stroke="none"/>
      <path d="M5.8 95.8 L4.05 99.15 Q0.1 100.75 -3.1 97.9 L-5.7 95.4 -5.4 93.7 Q-4.35 87.8 1.9 89.2 L5.6 89.95 Q7.15 92.85 5.8 95.8 M34.0 28.55 Q33.35 29.15 32.25 28.85 L31.7 28.7 31.0 28.25 Q29.05 27.0 29.45 24.45 L29.5 23.9 Q29.4 22.75 31.35 22.1 30.1 23.6 30.95 25.85 31.35 26.95 32.55 27.2 L33.4 27.05 35.45 25.35 Q35.65 26.9 35.1 27.45 L34.0 28.55 M2.55 91.15 L1.8 90.7 1.2 90.55 0.25 90.5 Q-1.95 90.25 -3.0 92.0 L-3.4 93.0 Q-3.8 95.15 -2.3 96.2 -3.8 95.15 -3.4 93.0 L-3.0 92.0 Q-1.95 90.25 0.25 90.5 L1.2 90.55 1.8 90.7 2.55 91.15" fill="#886646" fill-rule="evenodd" stroke="none"/>
      <path d="M-17.7 -8.3 Q-21.1 -7.3 -24.7 -5.05 L-28.35 -2.4 Q-30.35 -0.65 -30.8 1.75 -31.2 -1.9 -28.8 -4.65 -28.15 -5.3 -27.65 -6.1 L-26.2 -7.5 Q-20.2 -9.45 -13.85 -10.25 L-5.25 -10.55 -6.05 -9.5 -6.55 -8.6 Q-7.05 -7.6 -7.5 -7.2 L-8.15 -9.5 -8.35 -9.75 Q-9.1 -9.75 -10.05 -9.2 L-12.15 -7.8 Q-12.8 -7.3 -13.4 -7.4 -14.8 -7.65 -14.4 -9.5 L-14.7 -9.25 -16.05 -8.5 -16.8 -7.65 -17.5 -6.5 Q-17.65 -6.3 -18.1 -6.3 L-17.6 -8.05 -17.55 -8.25 -17.55 -8.3 -17.55 -8.35 -17.7 -8.3" fill="#483700" fill-rule="evenodd" stroke="none"/>
      <path d="M35.4 53.95 L36.85 56.85 37.85 58.5 Q39.45 60.75 41.85 62.05 42.85 62.6 42.55 64.15 43.3 64.25 43.1 64.5 L43.1 64.55 Q43.95 65.3 45.0 69.6 46.8 77.1 42.9 79.1 40.95 80.1 39.15 81.7 36.45 83.0 33.9 84.5 32.4 85.35 30.95 86.3 18.95 94.15 5.8 95.8 7.15 92.85 5.6 89.95 L1.9 89.2 Q-4.35 87.8 -5.4 93.7 L-19.95 88.05 Q-28.7 84.6 -29.75 82.75 -30.85 80.9 -36.85 76.7 L-38.0 75.3 -37.95 74.75 Q-37.45 71.5 -35.1 69.0 -31.1 66.75 -27.6 63.9 -22.85 68.05 -18.9 72.55 L-18.7 73.1 Q-7.3 75.55 4.6 73.1 L5.2 72.8 Q18.8 70.55 25.55 57.9 26.0 57.05 26.9 56.65 31.3 54.55 33.0 51.05 L33.15 50.7 35.4 53.95 M-30.4 70.8 Q-32.05 70.0 -33.1 68.6 -32.05 70.0 -30.4 70.8 M-5.75 85.6 Q-5.95 84.9 -5.45 84.55 L-4.6 84.05 -1.85 82.95 -1.6 82.65 -3.2 82.6 -7.1 82.1 -7.8 81.95 -0.9 80.3 4.35 78.55 5.3 78.05 3.5 77.7 -2.95 77.5 -10.1 77.1 -2.95 77.5 3.5 77.7 5.3 78.05 4.35 78.55 -0.9 80.3 -7.8 81.95 -7.1 82.1 -3.2 82.6 -1.6 82.65 -1.85 82.95 -4.6 84.05 -5.45 84.55 Q-5.95 84.9 -5.75 85.6 M30.85 65.6 L32.25 64.95 34.75 63.3 Q37.3 61.55 37.85 58.5 37.3 61.55 34.75 63.3 L32.25 64.95 30.85 65.6 M43.1 64.55 L42.55 64.15 43.1 64.55 Q42.75 64.95 42.35 64.95 42.75 64.95 43.1 64.55" fill="url(#gradient3)" fill-rule="evenodd" stroke="none"/>
      <path d="M22.45 6.15 L20.05 6.7 3.55 13.45 Q-9.9 19.0 -24.5 17.8 -27.35 17.9 -29.85 16.5 -35.3 13.45 -31.4 7.3 L-34.0 1.55 -33.6 1.15 -33.7 0.8 Q-34.3 -1.85 -33.25 -4.7 -29.8 -6.3 -26.2 -7.5 L-27.65 -6.1 Q-28.15 -5.3 -28.8 -4.65 -31.2 -1.9 -30.8 1.75 -30.35 -0.65 -28.35 -2.4 L-24.7 -5.05 Q-21.1 -7.3 -17.7 -8.3 L-17.55 -8.3 -17.55 -8.25 -17.6 -8.05 -18.1 -6.3 Q-17.65 -6.3 -17.5 -6.5 L-16.8 -7.65 -16.05 -8.5 -14.7 -9.25 -14.4 -9.5 Q-14.8 -7.65 -13.4 -7.4 -12.8 -7.3 -12.15 -7.8 L-10.05 -9.2 Q-9.1 -9.75 -8.35 -9.75 L-8.15 -9.5 -7.5 -7.2 Q-7.05 -7.6 -6.55 -8.6 L-6.05 -9.5 -5.25 -10.55 -4.5 -10.45 Q-0.4 -9.95 14.65 0.35 19.05 3.35 22.45 6.15" fill="url(#gradient4)" fill-rule="evenodd" stroke="none"/>
      <path d="M-34.0 1.55 L-34.2 1.7 -34.35 1.6 -39.15 -1.6 -39.7 -2.35 Q-36.85 -17.2 -27.95 -29.2 -19.55 -40.6 -6.35 -45.6 2.05 -48.8 10.2 -45.7 22.1 -41.15 34.05 -37.0 34.75 -36.8 35.25 -36.15 45.95 -22.65 50.85 -5.95 54.45 6.45 55.65 19.3 56.65 30.15 62.7 39.15 56.0 42.4 48.4 43.05 42.7 42.95 38.85 38.25 40.0 43.15 40.2 48.0 40.35 51.2 38.1 53.4 37.1 54.4 35.4 53.95 L36.85 56.85 37.85 58.5 Q39.45 60.75 41.85 62.05 42.85 62.6 42.55 64.15 43.3 64.25 43.1 64.5 L43.1 64.55 Q43.95 65.3 45.0 69.6 46.8 77.1 42.9 79.1 40.95 80.1 39.15 81.7 L37.75 82.6 33.9 84.5 Q32.4 85.35 30.95 86.3 18.95 94.15 5.8 95.8 L4.05 99.15 Q0.1 100.75 -3.1 97.9 L-5.7 95.4 -5.4 93.7 -19.95 88.05 Q-28.7 84.6 -29.75 82.75 -30.85 80.9 -36.85 76.7 L-38.0 75.3 -37.95 74.75 Q-37.45 71.5 -35.1 69.0 -31.1 66.75 -27.6 63.9 -36.45 51.8 -37.1 36.55 -37.45 29.0 -32.5 27.2 -27.6 25.35 -25.1 22.75 L-24.75 22.45 Q-21.95 20.35 -12.0 23.85 L3.3 29.0 Q7.95 30.45 18.35 31.2 26.05 32.65 32.25 29.75 M32.95 30.05 L34.0 28.55 Q33.35 29.15 32.25 28.85 L31.7 28.7 31.0 28.25 Q29.05 27.0 29.45 24.45 L29.5 23.9 Q29.4 22.75 31.35 22.1 30.1 23.6 30.95 25.85 31.35 26.95 32.55 27.2 L33.4 27.05 35.45 25.35 Q35.15 23.0 33.15 18.4 30.7 12.9 22.45 6.15 19.05 3.35 14.65 0.35 -0.4 -9.95 -4.5 -10.45 L-5.25 -10.55 -13.85 -10.25 Q-20.2 -9.45 -26.2 -7.5 -29.8 -6.3 -33.25 -4.7 -34.3 -1.85 -33.7 0.8 L-33.6 1.15 -34.0 1.55 -34.35 1.6 M-31.4 7.3 L-34.0 1.55 M-33.25 -4.7 Q-36.3 -3.3 -39.15 -1.6 M-17.7 -8.3 Q-21.1 -7.3 -24.7 -5.05 L-28.35 -2.4 Q-30.35 -0.65 -30.8 1.75 -31.2 -1.9 -28.8 -4.65 -28.15 -5.3 -27.65 -6.1 L-26.2 -7.5 M-5.25 -10.55 L-6.05 -9.5 -6.55 -8.6 Q-7.05 -7.6 -7.5 -7.2 L-8.15 -9.5 -8.35 -9.75 Q-9.1 -9.75 -10.05 -9.2 L-12.15 -7.8 Q-12.8 -7.3 -13.4 -7.4 -14.8 -7.65 -14.4 -9.5 L-14.7 -9.25 -16.05 -8.5 -16.8 -7.65 -17.5 -6.5 Q-17.65 -6.3 -18.1 -6.3 L-17.6 -8.05 -17.55 -8.25 -17.55 -8.3 -17.55 -8.35 -17.7 -8.3 M-24.75 22.45 L-25.1 23.95 -25.3 24.4 -27.35 29.5 M-24.15 37.3 Q-22.8 38.25 -20.7 38.0 M-34.5 42.6 Q-33.2 43.7 -31.4 43.8 L-30.5 43.75 M4.6 73.1 Q-7.3 75.55 -18.7 73.1 L-18.9 72.55 Q-22.85 68.05 -27.6 63.9 M-33.1 68.6 Q-32.05 70.0 -30.4 70.8 M20.7 8.35 Q24.2 10.45 27.95 12.35 M21.85 12.65 Q23.5 13.85 25.6 14.1 M21.6 16.7 L23.6 17.25 24.75 17.55 M33.65 7.2 Q36.35 8.85 37.3 12.45 38.65 17.65 40.3 22.75 M32.35 31.7 Q25.3 37.85 16.15 40.5 L13.8 41.15 M34.0 28.55 L35.1 27.45 Q35.65 26.9 35.45 25.35 M33.15 37.1 L32.35 31.7 32.95 30.05 M33.15 37.1 Q28.85 41.0 23.25 42.6 L21.85 42.9 M33.15 50.7 Q34.3 48.05 33.95 44.65 L33.15 37.1 M33.15 50.7 L33.0 51.05 Q31.3 54.55 26.9 56.65 26.0 57.05 25.55 57.9 18.8 70.55 5.2 72.8 M35.4 53.95 L33.15 50.7 M37.85 58.5 Q37.3 61.55 34.75 63.3 L32.25 64.95 30.85 65.6 M-5.4 93.7 Q-4.35 87.8 1.9 89.2 L5.6 89.95 Q7.15 92.85 5.8 95.8 M33.9 84.5 Q36.45 83.0 39.15 81.7 M43.1 64.55 Q42.75 64.95 42.35 64.95 M42.55 64.15 L43.1 64.55" fill="none" stroke="#000000" stroke-linecap="round" stroke-linejoin="round" stroke-width="2.0"/>
      <path d="M-2.3 96.2 Q-3.8 95.15 -3.4 93.0 L-3.0 92.0 Q-1.95 90.25 0.25 90.5 L1.2 90.55 1.8 90.7 2.55 91.15" fill="none" stroke="#a3865f" stroke-linecap="round" stroke-linejoin="round" stroke-width="2.0"/>
      <path d="M9.0 -43.5 Q11.5 -42.15 14.25 -41.7 L15.0 -41.4 M-36.55 -7.35 Q-35.9 -8.6 -35.7 -10.05 L-35.15 -11.95 Q-33.35 -16.4 -30.75 -20.4 L-25.1 -28.3 -23.85 -29.85 Q-20.7 -33.8 -16.6 -36.65 L-15.15 -37.75 Q-12.85 -39.6 -10.2 -40.85 -9.05 -41.4 -8.0 -42.05 -5.4 -43.6 -2.7 -44.55 L-2.05 -44.75 -0.9 -45.0 0.5 -45.1 M-32.9 30.15 Q-34.35 30.8 -34.95 32.95 -35.6 35.35 -34.95 37.75 M-24.6 29.25 Q-24.0 27.6 -23.75 25.8 L-23.7 25.1 M-33.6 46.5 Q-33.75 48.9 -32.6 51.05 L-32.0 52.1 Q-29.55 56.2 -26.1 59.5 L-24.85 60.8 -18.6 68.35 M-10.1 77.1 L-2.95 77.5 3.5 77.7 5.3 78.05 4.35 78.55 -0.9 80.3 -7.8 81.95 -7.1 82.1 -3.2 82.6 -1.6 82.65 -1.85 82.95 -4.6 84.05 -5.45 84.55 Q-5.95 84.9 -5.75 85.6" fill="none" stroke="#917555" stroke-linecap="round" stroke-linejoin="round" stroke-width="2.0"/>
    </g>
    </g>
  </g>
  <defs>
    <radialGradient cx="0" cy="0" gradientTransform="matrix(0.0296, 0.0, 0.0, 0.0296, 50.75, 99.1)" gradientUnits="userSpaceOnUse" id="gradient0" r="819.2" spreadMethod="pad">
      <stop offset="0.0" stop-color="#ac7846"/>
      <stop offset="1.0" stop-color="#52291b"/>
    </radialGradient>
    <radialGradient cx="0" cy="0" gradientTransform="matrix(0.0762, 0.0, 0.0, 0.0762, -8.65, -22.15)" gradientUnits="userSpaceOnUse" id="gradient1" r="819.2" spreadMethod="pad">
      <stop offset="0.0" stop-color="#855c36"/>
      <stop offset="1.0" stop-color="#5a3f25"/>
    </radialGradient>
    <radialGradient cx="0" cy="0" gradientTransform="matrix(0.0564, 0.0, 0.0, 0.0564, -18.4, 45.2)" gradientUnits="userSpaceOnUse" id="gradient2" r="819.2" spreadMethod="pad">
      <stop offset="0.0" stop-color="#855c36"/>
      <stop offset="1.0" stop-color="#52291b"/>
    </radialGradient>
    <radialGradient cx="0" cy="0" gradientTransform="matrix(0.059, 0.0, 0.0, 0.059, 2.3, 72.5)" gradientUnits="userSpaceOnUse" id="gradient3" r="819.2" spreadMethod="pad">
      <stop offset="0.0" stop-color="#855c36"/>
      <stop offset="1.0" stop-color="#5a3f25"/>
    </radialGradient>
    <linearGradient gradientTransform="matrix(2.0E-4, 0.0152, -0.0174, 2.0E-4, -6.3, 0.95)" gradientUnits="userSpaceOnUse" id="gradient4" spreadMethod="pad" x1="-819.2" x2="819.2">
      <stop offset="0.0" stop-color="#000000"/>
      <stop offset="1.0" stop-color="#000000" stop-opacity="0.0"/>
    </linearGradient>
  </defs>
</svg>