<svg xmlns:xlink="http://www.w3.org/1999/xlink" xmlns="http://www.w3.org/2000/svg" height="119.1px" width="213.05px">
  <g transform="matrix(1.0, 0.0, 0.0, 1.0, 94.65, 81.2)">
    <g data-characterId="927" height="43.3" transform="matrix(1.0, 0.0, 0.0, 1.0, -59.25, -29.5)" width="136.9" xlink:href="#shape0"><g id="shape0" transform="matrix(1.0, 0.0, 0.0, 1.0, 59.25, 29.5)">
      <path d="M8.5 -15.45 Q8.15 -14.65 8.5 -13.9 L8.8 -12.95 8.55 -9.05 8.4 -9.0 6.15 -8.95 3.75 -8.65 Q3.35 -8.7 3.05 -8.4 L2.9 -6.5 2.6 -4.55 1.6 -4.45 -0.25 -3.9 Q-2.15 -3.05 -3.35 -1.0 -4.9 1.65 -5.7 4.65 L-6.55 7.05 Q-7.3 8.75 -7.35 10.65 L-17.5 10.9 -17.85 7.5 -18.35 5.45 Q-18.85 3.95 -19.9 2.9 -20.7 2.1 -21.65 1.5 L-23.55 -0.15 Q-24.35 -1.1 -24.65 -2.15 -25.0 -3.5 -24.6 -4.7 L-24.35 -4.95 -23.85 -5.35 -22.75 -6.45 Q-21.95 -7.4 -22.05 -8.5 -22.3 -11.45 -23.0 -14.5 L-26.05 -13.55 Q-30.3 -11.75 -34.35 -13.85 -30.25 -14.55 -26.85 -16.8 -25.3 -17.75 -24.0 -19.0 -22.65 -20.2 -21.45 -21.55 L-21.3 -21.7 -21.3 -21.75 -21.25 -21.7 -21.2 -21.6 Q-20.6 -20.35 -19.25 -19.75 L-15.1 -17.95 Q-11.8 -16.75 -8.4 -16.05 L-1.8 -15.05 8.05 -15.35 8.5 -15.45 M-21.25 -21.7 L-21.3 -21.7 -21.25 -21.7 M-7.5 0.0 L-5.45 -2.9 Q-4.35 -4.2 -2.75 -4.95 0.0 -6.1 2.9 -6.5 0.0 -6.1 -2.75 -4.95 -4.35 -4.2 -5.45 -2.9 L-7.5 0.0" fill="#ecc59d" fill-rule="evenodd" stroke="none"/>
      <path d="M27.85 -23.7 L30.25 -24.75 30.8 -25.7 31.75 -26.25 31.9 -26.7 31.65 -27.7 31.9 -26.7 31.75 -26.25 30.8 -25.7 30.25 -24.75 27.85 -23.7 Q26.95 -25.85 26.55 -28.3 L26.5 -29.0 Q28.9 -29.1 31.05 -28.15 L31.65 -27.7 Q33.0 -26.6 33.8 -25.25 34.55 -23.9 35.8 -22.95 38.1 -21.25 40.65 -19.9 43.1 -18.6 45.0 -16.8 45.35 -16.45 45.2 -15.85 L44.75 -14.4 44.1 -13.5 44.85 -14.1 Q66.75 -15.7 73.45 -7.15 75.85 -2.9 76.05 -0.6 L77.15 8.2 Q69.05 9.65 57.35 9.5 39.75 9.25 22.7 13.15 L15.65 13.3 8.45 13.1 1.2 11.9 -7.35 10.65 Q-7.3 8.75 -6.55 7.05 L-5.7 4.65 Q-4.9 1.65 -3.35 -1.0 -2.15 -3.05 -0.25 -3.9 L1.6 -4.45 2.6 -4.55 2.9 -6.5 3.05 -8.4 Q3.35 -8.7 3.75 -8.65 L6.15 -8.95 8.4 -9.0 8.55 -9.05 8.8 -12.95 8.5 -13.9 Q8.15 -14.65 8.5 -15.45 L8.95 -16.15 11.8 -17.25 14.6 -18.2 17.2 -19.15 20.4 -20.35 Q24.2 -21.7 27.85 -23.7 M11.0 -13.5 L14.1 -11.85 Q15.4 -11.2 15.9 -9.9 L16.55 -8.5 Q17.2 -7.1 17.3 -5.65 L17.45 -3.15 17.75 -0.6 Q17.95 0.3 18.5 1.15 L19.5 2.45 Q20.55 3.5 21.8 4.25 25.25 6.55 29.5 6.5 L28.9 4.9 28.2 3.65 26.85 1.05 Q26.35 0.0 26.6 -1.15 27.6 -2.8 29.3 -3.7 L31.9 -5.2 40.1 -10.05 Q42.35 -11.35 44.1 -13.5 42.35 -11.35 40.1 -10.05 L31.9 -5.2 29.3 -3.7 Q27.6 -2.8 26.6 -1.15 26.35 0.0 26.85 1.05 L28.2 3.65 28.9 4.9 29.5 6.5 Q25.25 6.55 21.8 4.25 20.55 3.5 19.5 2.45 L18.5 1.15 Q17.95 0.3 17.75 -0.6 L17.45 -3.15 17.3 -5.65 Q17.2 -7.1 16.55 -8.5 L15.9 -9.9 Q15.4 -11.2 14.1 -11.85 L11.0 -13.5 M-24.5 -11.5 Q-28.5 -11.4 -31.6 -8.8 -33.15 -7.5 -34.2 -5.6 L-34.6 -5.1 Q-36.25 -3.95 -38.1 -3.35 L-44.05 -2.2 Q-45.45 -2.2 -46.7 -2.75 L-49.0 -3.5 Q-48.55 -4.15 -47.5 -4.25 L-45.75 -4.45 Q-44.55 -4.95 -43.55 -5.6 L-42.15 -6.65 Q-41.15 -7.65 -40.55 -8.9 -40.05 -9.95 -40.05 -11.1 -40.05 -13.1 -40.55 -15.05 -40.05 -13.1 -40.05 -11.1 -40.05 -9.95 -40.55 -8.9 -41.15 -7.65 -42.15 -6.65 L-43.55 -5.6 Q-44.55 -4.95 -45.75 -4.45 L-47.5 -4.25 Q-48.55 -4.15 -49.0 -3.5 L-46.7 -2.75 Q-45.45 -2.2 -44.05 -2.2 L-38.1 -3.35 Q-36.25 -3.95 -34.6 -5.1 L-34.2 -5.6 Q-33.15 -7.5 -31.6 -8.8 -28.5 -11.4 -24.5 -11.5 M-21.45 -21.55 Q-22.65 -20.2 -24.0 -19.0 -25.3 -17.75 -26.85 -16.8 -30.25 -14.55 -34.35 -13.85 -30.3 -11.75 -26.05 -13.55 L-23.0 -14.5 Q-22.3 -11.45 -22.05 -8.5 -21.95 -7.4 -22.75 -6.45 L-23.85 -5.35 -24.35 -4.95 -24.6 -4.7 Q-25.0 -3.5 -24.65 -2.15 -24.35 -1.1 -23.55 -0.15 L-21.65 1.5 Q-20.7 2.1 -19.9 2.9 -18.85 3.95 -18.35 5.45 L-17.85 7.5 -17.5 10.9 -27.35 10.6 -37.15 9.2 Q-48.15 8.4 -58.7 6.55 L-58.75 4.25 Q-57.9 -12.45 -40.55 -15.05 L-40.25 -16.55 -38.55 -17.6 -37.15 -18.3 -32.6 -19.85 Q-30.95 -20.55 -29.0 -20.45 L-27.45 -20.95 -23.0 -21.2 -21.55 -21.65 -21.45 -21.55 M-34.35 -13.85 L-34.45 -13.9 -34.55 -13.95 -35.15 -14.7 Q-35.6 -15.5 -35.65 -16.4 -35.65 -17.25 -35.05 -17.85 L-32.6 -19.85 -35.05 -17.85 Q-35.65 -17.25 -35.65 -16.4 -35.6 -15.5 -35.15 -14.7 L-34.55 -13.95 -34.45 -13.9 -34.35 -13.85" fill="#330033" fill-rule="evenodd" stroke="none"/>
      <path d="M2.9 -6.5 Q0.0 -6.1 -2.75 -4.95 -4.35 -4.2 -5.45 -2.9 L-7.5 0.0" fill="none" stroke="#b9a882" stroke-linecap="round" stroke-linejoin="round" stroke-width="2.0"/>
      <path d="M31.65 -27.7 L31.9 -26.7 31.75 -26.25 30.8 -25.7 30.25 -24.75 27.85 -23.7 Q24.2 -21.7 20.4 -20.35 L17.2 -19.15 14.6 -18.2 11.8 -17.25 8.95 -16.15 8.5 -15.45 Q8.15 -14.65 8.5 -13.9 L8.8 -12.95 8.55 -9.05 8.4 -9.0 6.15 -8.95 3.75 -8.65 Q3.35 -8.7 3.05 -8.4 L2.9 -6.5 2.6 -4.55 1.6 -4.45 -0.25 -3.9 Q-2.15 -3.05 -3.35 -1.0 -4.9 1.65 -5.7 4.65 L-6.55 7.05 Q-7.3 8.75 -7.35 10.65 L1.2 11.9 8.45 13.1 15.65 13.3 22.7 13.15 Q39.75 9.25 57.35 9.5 69.05 9.65 77.15 8.2 L76.05 -0.6 Q75.85 -2.9 73.45 -7.15 66.75 -15.7 44.85 -14.1 L44.1 -13.5 Q42.35 -11.35 40.1 -10.05 L31.9 -5.2 29.3 -3.7 Q27.6 -2.8 26.6 -1.15 26.35 0.0 26.85 1.05 L28.2 3.65 28.9 4.9 29.5 6.5 Q25.25 6.55 21.8 4.25 20.55 3.5 19.5 2.45 L18.5 1.15 Q17.95 0.3 17.75 -0.6 L17.45 -3.15 17.3 -5.65 Q17.2 -7.1 16.55 -8.5 L15.9 -9.9 Q15.4 -11.2 14.1 -11.85 L11.0 -13.5 M27.85 -23.7 Q26.95 -25.85 26.55 -28.3 L26.5 -29.0 Q28.9 -29.1 31.05 -28.15 L31.65 -27.7 Q33.0 -26.6 33.8 -25.25 34.55 -23.9 35.8 -22.95 38.1 -21.25 40.65 -19.9 43.1 -18.6 45.0 -16.8 45.35 -16.45 45.2 -15.85 L44.75 -14.4 44.1 -13.5 M8.05 -15.35 Q8.05 -15.7 8.35 -15.9 8.6 -16.15 8.95 -16.15 M-40.55 -15.05 Q-40.05 -13.1 -40.05 -11.1 -40.05 -9.95 -40.55 -8.9 -41.15 -7.65 -42.15 -6.65 L-43.55 -5.6 Q-44.55 -4.95 -45.75 -4.45 L-47.5 -4.25 Q-48.55 -4.15 -49.0 -3.5 L-46.7 -2.75 Q-45.45 -2.2 -44.05 -2.2 L-38.1 -3.35 Q-36.25 -3.95 -34.6 -5.1 L-34.2 -5.6 Q-33.15 -7.5 -31.6 -8.8 -28.5 -11.4 -24.5 -11.5 M-21.3 -21.7 L-21.25 -21.7 -21.2 -21.6 M-21.3 -21.75 L-21.3 -21.7 -21.45 -21.55 Q-22.65 -20.2 -24.0 -19.0 -25.3 -17.75 -26.85 -16.8 -30.25 -14.55 -34.35 -13.85 -30.3 -11.75 -26.05 -13.55 L-23.0 -14.5 Q-22.3 -11.45 -22.05 -8.5 -21.95 -7.4 -22.75 -6.45 L-23.85 -5.35 -24.35 -4.95 -24.6 -4.7 Q-25.0 -3.5 -24.65 -2.15 -24.35 -1.1 -23.55 -0.15 L-21.65 1.5 Q-20.7 2.1 -19.9 2.9 -18.85 3.95 -18.35 5.45 L-17.85 7.5 -17.5 10.9 -7.35 10.65 M-21.55 -21.65 L-23.0 -21.2 -27.45 -20.95 -29.0 -20.45 Q-30.95 -20.55 -32.6 -19.85 L-35.05 -17.85 Q-35.65 -17.25 -35.65 -16.4 -35.6 -15.5 -35.15 -14.7 L-34.55 -13.95 -34.45 -13.9 -34.35 -13.85 M-21.55 -21.65 L-21.3 -21.7 M-17.5 10.9 L-27.35 10.6 -37.15 9.2 Q-48.15 8.4 -58.7 6.55 L-58.75 4.25 Q-57.9 -12.45 -40.55 -15.05 L-40.25 -16.55 -38.55 -17.6 -37.15 -18.3 -32.6 -19.85" fill="none" stroke="#000000" stroke-linecap="round" stroke-linejoin="round" stroke-width="2.0"/>
    </g>
  </g>
  </g>
  <defs>
    </defs>
</svg>