<svg xmlns:xlink="http://www.w3.org/1999/xlink" xmlns="http://www.w3.org/2000/svg" height="264.15px" width="342.25px">
  <g transform="matrix(1.0, 0.0, 0.0, 1.0, 243.25, 83.7)">
    <g data-characterId="1155" height="79.8" transform="matrix(1.0, 0.0, 0.0, 1.0, -34.25, -43.95)" width="77.7" xlink:href="#shape0"><g id="shape0" transform="matrix(1.0, 0.0, 0.0, 1.0, 34.25, 43.95)">
      <path d="M-28.6 -21.35 L-29.1 -18.95 Q-29.4 -15.85 -31.4 -13.55 L-31.4 -14.35 -31.95 -14.55 -32.65 -13.9 -33.1 -13.8 -32.8 -14.95 -33.7 -14.4 -32.8 -16.4 -33.55 -16.3 -33.75 -16.25 -31.1 -21.0 -33.4 -20.45 -29.35 -26.2 -29.95 -26.2 -29.2 -28.6 Q-25.7 -30.4 -22.2 -32.25 L-25.85 -32.5 -17.6 -36.55 -17.05 -37.85 -14.95 -38.7 -8.1 -40.3 -9.15 -40.6 -3.3 -41.75 2.5 -40.95 Q4.15 -40.75 5.6 -41.6 L5.75 -43.45 7.1 -42.4 Q8.85 -40.95 10.55 -42.15 13.85 -40.1 17.55 -39.9 20.75 -39.35 23.3 -37.1 L23.3 -40.0 27.3 -37.7 27.6 -38.25 29.6 -33.65 31.35 -34.25 31.05 -31.95 33.85 -33.25 34.4 -32.45 35.5 -31.8 34.15 -26.6 35.4 -27.25 Q37.45 -26.8 39.15 -25.25 L38.55 -21.85 39.25 -22.15 Q40.25 -22.4 41.0 -21.65 L41.85 -18.2 Q41.15 -14.65 41.65 -10.95 L42.35 -5.8 Q43.45 2.3 42.55 10.35 L41.7 8.9 Q41.9 11.55 41.7 14.25 41.55 16.9 40.85 19.55 L38.7 26.9 Q38.25 28.25 37.45 27.55 L35.65 30.2 35.4 28.1 32.5 35.35 Q32.4 31.85 32.6 28.45 32.75 25.0 34.2 22.9 35.65 20.75 35.9 18.3 36.15 15.8 36.85 13.0 37.55 10.15 36.8 6.75 36.0 3.35 34.85 2.2 33.65 1.0 32.65 1.15 31.6 1.25 30.65 1.9 28.65 3.2 28.2 5.55 27.95 7.05 26.3 7.3 L26.1 6.25 24.7 8.35 24.45 5.75 23.9 6.4 23.7 6.25 23.85 3.45 22.15 5.45 Q21.05 0.25 21.85 -5.2 L20.4 -3.45 19.9 -7.8 Q19.45 -13.45 16.85 -18.35 15.95 -20.0 14.5 -21.25 11.7 -23.6 7.85 -23.15 L3.25 -22.15 Q-2.35 -20.45 -7.95 -19.4 L-19.15 -18.15 Q-24.3 -18.1 -28.6 -21.35 L-28.2 -21.85 -28.6 -21.35 M-28.9 -23.3 L-21.85 -29.75 -23.95 -29.65 -17.25 -32.75 -18.85 -33.9 -14.95 -35.8 -16.8 -35.35 Q-14.85 -36.65 -12.2 -36.65 L-3.15 -36.95 Q-4.0 -37.4 -4.7 -38.0 -4.95 -38.2 -5.0 -38.55 L-2.0 -39.4 -3.3 -39.55 Q0.0 -40.0 3.35 -39.5 L5.6 -38.9 6.5 -38.45 Q9.95 -38.9 13.25 -38.35 L15.1 -39.7 Q17.6 -38.0 20.4 -36.85 21.95 -36.2 23.15 -35.1 21.95 -36.2 20.4 -36.85 17.6 -38.0 15.1 -39.7 L13.25 -38.35 Q9.95 -38.9 6.5 -38.45 L5.6 -38.9 3.35 -39.5 Q0.0 -40.0 -3.3 -39.55 L-2.0 -39.4 -5.0 -38.55 Q-4.95 -38.2 -4.7 -38.0 -4.0 -37.4 -3.15 -36.95 L-12.2 -36.65 Q-14.85 -36.65 -16.8 -35.35 L-14.95 -35.8 -18.85 -33.9 -17.25 -32.75 -23.95 -29.65 -21.85 -29.75 -28.9 -23.3 M25.6 -19.4 L26.9 -10.6 28.2 -11.35 29.35 -6.45 30.1 -7.05 30.8 -3.55 30.1 -7.05 29.35 -6.45 28.2 -11.35 26.9 -10.6 25.6 -19.4 M20.95 -17.95 L23.85 -4.2 Q24.0 -3.5 24.3 -2.85 L24.45 -6.45 26.05 1.15 24.45 -6.45 24.3 -2.85 Q24.0 -3.5 23.85 -4.2 L20.95 -17.95 M29.05 -20.7 L29.95 -22.55 Q31.0 -19.4 30.85 -16.1 30.75 -13.05 31.25 -10.35 L32.8 -12.05 34.4 -6.6 34.85 -6.9 35.7 -2.4 34.85 -6.9 34.4 -6.6 32.8 -12.05 31.25 -10.35 Q30.75 -13.05 30.85 -16.1 31.0 -19.4 29.95 -22.55 L29.05 -20.7 M36.25 -19.95 L36.95 -16.05 Q37.35 -14.3 38.15 -12.7 39.05 -11.0 39.4 -9.3 40.45 -4.05 40.15 1.15 40.45 -4.05 39.4 -9.3 39.05 -11.0 38.15 -12.7 37.35 -14.3 36.95 -16.05 L36.25 -19.95" fill="url(#gradient0)" fill-rule="evenodd" stroke="none"/>
      <path d="M-28.6 -21.35 Q-24.3 -18.1 -19.15 -18.15 L-7.95 -19.4 Q-2.35 -20.45 3.25 -22.15 L7.85 -23.15 Q11.7 -23.6 14.5 -21.25 15.95 -20.0 16.85 -18.35 19.45 -13.45 19.9 -7.8 L20.4 -3.45 21.85 -5.2 Q21.05 0.25 22.15 5.45 L23.85 3.45 23.7 6.25 23.9 6.4 24.45 5.75 24.7 8.35 26.1 6.25 26.3 7.3 Q27.95 7.05 28.2 5.55 28.65 3.2 30.65 1.9 31.6 1.25 32.65 1.15 33.65 1.0 34.85 2.2 36.0 3.35 36.8 6.75 37.55 10.15 36.85 13.0 36.15 15.8 35.9 18.3 35.65 20.75 34.2 22.9 32.75 25.0 32.6 28.45 32.4 31.85 32.5 35.35 L35.4 28.1 35.65 30.2 37.45 27.55 Q38.25 28.25 38.7 26.9 L40.85 19.55 Q41.55 16.9 41.7 14.25 41.9 11.55 41.7 8.9 L42.55 10.35 Q43.45 2.3 42.35 -5.8 L41.65 -10.95 Q41.15 -14.65 41.85 -18.2 L41.0 -21.65 Q40.25 -22.4 39.25 -22.15 L38.55 -21.85 39.15 -25.25 Q37.45 -26.8 35.4 -27.25 L34.15 -26.6 35.5 -31.8 34.4 -32.45 33.85 -33.25 31.05 -31.95 31.35 -34.25 29.6 -33.65 27.6 -38.25 27.3 -37.7 23.3 -40.0 23.3 -37.1 Q20.75 -39.35 17.55 -39.9 13.85 -40.1 10.55 -42.15 8.85 -40.95 7.1 -42.4 L5.75 -43.45 5.6 -41.6 Q4.15 -40.75 2.5 -40.95 L-3.3 -41.75 -9.15 -40.6 -8.1 -40.3 -14.95 -38.7 -17.05 -37.85 -17.6 -36.55 -25.85 -32.5 -22.2 -32.25 Q-25.7 -30.4 -29.2 -28.6 L-29.95 -26.2 -29.35 -26.2 -33.4 -20.45 -31.1 -21.0 -33.75 -16.25 -33.55 -16.3 -32.8 -16.4 -33.7 -14.4 -32.8 -14.95 -33.1 -13.8 -32.65 -13.9 -31.95 -14.55 -31.4 -14.35 -31.4 -13.55 Q-29.4 -15.85 -29.1 -18.95 L-28.6 -21.35 -28.2 -21.85 M10.55 -42.15 L9.45 -42.8 M41.85 -18.2 L42.7 -18.85 M-9.15 -40.6 L-9.8 -40.55" fill="none" stroke="#000000" stroke-linecap="round" stroke-linejoin="round" stroke-width="2.0"/>
      <path d="M23.15 -35.1 Q21.95 -36.2 20.4 -36.85 17.6 -38.0 15.1 -39.7 L13.25 -38.35 Q9.95 -38.9 6.5 -38.45 L5.6 -38.9 3.35 -39.5 Q0.0 -40.0 -3.3 -39.55 L-2.0 -39.4 -5.0 -38.55 Q-4.95 -38.2 -4.7 -38.0 -4.0 -37.4 -3.15 -36.95 L-12.2 -36.65 Q-14.85 -36.65 -16.8 -35.35 L-14.95 -35.8 -18.85 -33.9 -17.25 -32.75 -23.95 -29.65 -21.85 -29.75 -28.9 -23.3 M40.15 1.15 Q40.45 -4.05 39.4 -9.3 39.05 -11.0 38.15 -12.7 37.35 -14.3 36.95 -16.05 L36.25 -19.95 M35.7 -2.4 L34.85 -6.9 34.4 -6.6 32.8 -12.05 31.25 -10.35 Q30.75 -13.05 30.85 -16.1 31.0 -19.4 29.95 -22.55 L29.05 -20.7 M26.05 1.15 L24.45 -6.45 24.3 -2.85 Q24.0 -3.5 23.85 -4.2 L20.95 -17.95 M30.8 -3.55 L30.1 -7.05 29.35 -6.45 28.2 -11.35 26.9 -10.6 25.6 -19.4" fill="none" stroke="#75614e" stroke-linecap="round" stroke-linejoin="round" stroke-width="1.5"/>
    </g>
    </g>
  </g>
  <defs>
    <radialGradient cx="0" cy="0" gradientTransform="matrix(0.0028, 0.1085, -0.1668, 0.0043, 1.0, -31.5)" gradientUnits="userSpaceOnUse" id="gradient0" r="819.2" spreadMethod="pad">
      <stop offset="0.0" stop-color="#69462e"/>
      <stop offset="0.20392156862745098" stop-color="#554535"/>
      <stop offset="0.3176470588235294" stop-color="#98836b"/>
      <stop offset="0.43137254901960786" stop-color="#655845"/>
      <stop offset="1.0" stop-color="#704a27"/>
    </radialGradient>
  </defs>
</svg>