<svg xmlns:xlink="http://www.w3.org/1999/xlink" xmlns="http://www.w3.org/2000/svg" height="264.15px" width="342.25px">
  <g transform="matrix(1.0, 0.0, 0.0, 1.0, 243.25, 83.7)">
    <g data-characterId="1189" height="145.5" transform="matrix(1.0, 0.0, 0.0, 1.0, -42.95, -55.2)" width="105.45" xlink:href="#shape0"><g id="shape0" transform="matrix(1.0, 0.0, 0.0, 1.0, 42.95, 55.2)">
      <path d="M-31.0 84.95 Q-29.95 82.15 -30.05 79.0 -30.1 75.05 -32.2 71.75 L-33.15 79.0 -33.95 85.0 -35.5 78.7 Q-38.2 67.0 -38.75 57.6 -39.35 47.85 -37.95 36.25 L-40.3 44.3 Q-42.15 36.75 -42.25 28.9 L-42.45 2.15 Q-42.5 -4.35 -40.85 -10.65 L-37.95 -21.95 Q-35.95 -29.3 -34.05 -32.85 -28.45 -43.3 -16.7 -45.2 L-19.4 -49.2 -20.15 -50.25 -17.8 -50.3 Q-8.7 -50.2 -0.6 -46.8 L-1.7 -50.85 Q4.1 -48.95 6.9 -45.1 L7.5 -53.15 Q10.75 -52.75 11.5 -49.1 11.95 -52.55 14.7 -54.65 16.65 -55.0 18.25 -53.65 21.8 -50.55 19.5 -46.4 23.85 -46.9 28.3 -46.3 L28.35 -46.3 30.5 -45.95 30.7 -45.9 30.6 -45.45 28.55 -44.05 Q30.8 -41.85 35.1 -40.35 38.2 -38.25 39.85 -37.2 41.45 -36.15 36.0 -35.9 L39.6 -32.5 Q42.6 -29.6 45.6 -22.8 L49.8 -11.95 Q50.7 -9.5 52.0 -7.15 54.75 -2.15 52.95 3.45 L49.1 -4.65 50.85 1.0 Q57.65 24.0 60.25 47.7 60.85 52.95 61.85 58.1 L62.0 60.45 Q61.65 73.6 55.25 85.15 L52.4 68.5 Q52.35 78.45 47.8 87.3 46.65 89.5 44.3 89.8 L43.75 69.05 43.15 72.5 42.45 76.15 Q40.65 83.55 35.1 89.2 34.9 87.15 34.85 85.1 L34.5 80.8 Q33.5 72.75 32.8 64.45 L27.05 83.45 23.05 61.0 Q21.5 66.05 22.05 71.2 L22.55 74.35 Q22.8 75.35 22.25 76.25 20.6 74.3 19.45 64.85 18.3 55.35 21.4 38.9 24.5 22.45 22.85 16.65 21.15 10.8 17.75 4.55 14.3 -1.8 8.5 -9.6 7.5 -7.4 7.3 -4.9 6.7 2.2 3.45 8.65 4.25 -1.65 0.4 -11.2 0.75 -5.15 -1.2 0.5 -2.25 3.55 -4.6 5.75 L-6.45 -6.35 Q-6.05 -2.85 -7.55 0.4 L-8.05 1.5 -8.6 2.65 Q-10.0 5.8 -11.9 8.55 L-13.25 10.35 -12.65 8.0 Q-11.7 4.0 -11.35 -0.05 -11.0 -4.65 -11.35 -9.3 L-11.65 -10.05 -11.9 -10.25 -11.9 -10.15 -11.9 -10.1 -13.25 -5.85 Q-16.3 4.25 -21.85 13.25 L-24.0 -4.95 -24.85 -3.45 Q-26.35 -0.05 -27.05 3.65 L-27.6 7.5 -28.5 3.4 Q-29.8 -2.9 -29.3 -9.2 L-33.5 3.0 Q-32.15 3.9 -32.25 5.25 L-32.8 9.6 -33.75 16.7 Q-34.2 20.8 -33.9 22.8 L-32.65 29.0 Q-31.7 33.25 -29.45 39.0 -27.2 44.7 -25.15 48.9 -23.15 53.1 -22.65 55.05 L-21.6 59.7 Q-21.0 62.35 -19.65 62.9 L-16.4 64.25 -13.2 64.9 -13.9 65.8 -13.8 67.0 Q-13.7 69.25 -15.15 71.0 L-16.15 73.85 Q-18.0 79.4 -22.45 83.25 L-21.85 80.7 Q-20.65 76.0 -22.55 71.7 L-23.85 75.0 Q-26.15 80.7 -30.3 85.15 L-31.0 85.0 -31.0 84.95 M-33.95 -20.15 Q-36.7 -9.8 -35.85 0.6 L-35.1 7.5 -33.5 3.0 -35.1 7.5 -35.85 0.6 Q-36.7 -9.8 -33.95 -20.15 M19.0 -45.65 L19.5 -46.4 19.0 -45.65 M-11.95 -22.1 L-12.7 -21.5 -14.2 -18.85 Q-18.0 -11.05 -20.3 -2.75 L-20.6 -1.4 Q-20.95 0.95 -20.25 2.3 -20.95 0.95 -20.6 -1.4 L-20.3 -2.75 Q-18.0 -11.05 -14.2 -18.85 L-12.7 -21.5 -11.95 -22.1 M-19.55 -19.55 L-22.45 -16.05 -23.8 -13.75 -26.7 -6.45 -23.8 -13.75 -22.45 -16.05 -19.55 -19.55 M-26.7 -23.0 L-26.9 -23.45 -28.5 -22.05 -29.75 -19.7 -31.0 -16.65 Q-33.05 -11.2 -33.45 -5.55 -33.6 -3.55 -33.6 -5.05 -33.6 -3.55 -33.45 -5.55 -33.05 -11.2 -31.0 -16.65 L-29.75 -19.7 -28.5 -22.05 -26.9 -23.45 -26.7 -23.0 M-0.4 -40.6 L-0.8 -41.05 Q-1.4 -43.25 -3.7 -44.15 L-5.05 -44.45 Q-9.75 -44.65 -13.35 -46.95 -9.75 -44.65 -5.05 -44.45 L-3.7 -44.15 Q-1.4 -43.25 -0.8 -41.05 L-0.4 -40.6 M-26.7 -36.35 Q-23.25 -37.5 -19.8 -36.3 L-18.9 -36.1 Q-16.65 -35.9 -16.6 -34.05 -16.65 -35.9 -18.9 -36.1 L-19.8 -36.3 Q-23.25 -37.5 -26.7 -36.35 M38.2 60.3 L37.1 68.05 Q36.6 71.2 37.0 74.5 L37.1 75.05 Q37.3 76.55 37.75 75.5 37.3 76.55 37.1 75.05 L37.0 74.5 Q36.6 71.2 37.1 68.05 L38.2 60.3 M30.35 46.95 L30.25 48.3 30.0 49.7 28.75 54.35 28.35 55.65 Q27.8 57.4 27.75 59.35 27.6 64.85 27.6 70.4 27.6 64.85 27.75 59.35 27.8 57.4 28.35 55.65 L28.75 54.35 30.0 49.7 30.25 48.3 30.35 46.95 M28.55 11.5 Q29.15 13.45 29.05 15.65 L28.4 25.3 Q27.95 29.15 27.85 33.15 L27.75 34.05 Q27.25 37.9 26.25 41.4 L25.9 42.85 Q25.55 45.1 24.7 47.35 23.35 50.85 23.0 54.75 23.35 50.85 24.7 47.35 25.55 45.1 25.9 42.85 L26.25 41.4 Q27.25 37.9 27.75 34.05 L27.85 33.15 Q27.95 29.15 28.4 25.3 L29.05 15.65 Q29.15 13.45 28.55 11.5 M31.75 5.5 L32.75 7.75 Q34.35 12.3 35.5 17.0 37.45 25.2 37.7 34.05 37.9 42.65 37.25 51.1 37.0 54.9 35.45 57.55 37.0 54.9 37.25 51.1 37.9 42.65 37.7 34.05 37.45 25.2 35.5 17.0 34.35 12.3 32.75 7.75 L31.75 5.5 M43.7 32.2 Q43.85 31.8 44.45 33.65 L44.8 34.9 47.1 45.05 Q48.75 52.45 48.4 60.3 L48.1 63.95 47.75 67.65 46.95 73.65 47.75 67.65 48.1 63.95 48.4 60.3 Q48.75 52.45 47.1 45.05 L44.8 34.9 44.45 33.65 Q43.85 31.8 43.7 32.2 M38.65 -11.5 Q40.25 -9.95 41.8 -7.3 43.1 -5.05 43.25 -2.3 43.1 -5.05 41.8 -7.3 40.25 -9.95 38.65 -11.5 M34.95 -9.2 L35.4 -8.7 Q37.45 -5.85 38.7 -2.3 40.4 2.5 42.6 7.0 L43.4 8.65 Q47.05 16.6 48.9 24.85 L50.35 30.8 Q52.65 39.0 54.6 47.45 55.35 50.55 55.05 53.85 54.8 56.3 54.95 58.9 L55.0 59.85 Q55.05 61.65 55.7 62.6 55.05 61.65 55.0 59.85 L54.95 58.9 Q54.8 56.3 55.05 53.85 55.35 50.55 54.6 47.45 52.65 39.0 50.35 30.8 L48.9 24.85 Q47.05 16.6 43.4 8.65 L42.6 7.0 Q40.4 2.5 38.7 -2.3 37.45 -5.85 35.4 -8.7 L34.95 -9.2 M30.6 -10.8 L31.45 -9.8 Q33.35 -6.9 34.5 -3.7 35.95 0.5 35.9 5.05 L35.9 5.5 35.9 5.05 Q35.95 0.5 34.5 -3.7 33.35 -6.9 31.45 -9.8 L30.6 -10.8 M22.1 -5.55 Q21.6 -5.85 22.15 -5.1 23.85 -2.85 24.5 0.0 25.15 2.7 25.15 5.5 25.2 7.5 25.75 6.9 25.2 7.5 25.15 5.5 25.15 2.7 24.5 0.0 23.85 -2.85 22.15 -5.1 21.6 -5.85 22.1 -5.55 M29.0 -21.2 Q29.05 -22.45 28.45 -23.45 26.55 -26.55 23.45 -28.55 26.55 -26.55 28.45 -23.45 29.05 -22.45 29.0 -21.2 M3.2 -15.2 L3.25 -14.75 Q4.0 -11.3 3.7 -7.35 4.0 -11.3 3.25 -14.75 L3.2 -15.2 M19.8 -24.85 Q18.25 -27.4 15.15 -28.45 L13.4 -29.1 11.45 -29.75 Q8.7 -30.45 7.35 -29.0 8.7 -30.45 11.45 -29.75 L13.4 -29.1 15.15 -28.45 Q18.25 -27.4 19.8 -24.85 M2.75 -45.1 L2.8 -44.65 3.7 -40.5 2.8 -44.65 2.75 -45.1 M16.1 -47.9 L15.3 -47.3 14.6 -46.65 Q11.55 -44.2 10.6 -41.0 11.55 -44.2 14.6 -46.65 L15.3 -47.3 16.1 -47.9 M31.75 -29.95 Q29.55 -33.0 26.2 -34.9 L23.05 -36.5 19.8 -36.35 23.05 -36.5 26.2 -34.9 Q29.55 -33.0 31.75 -29.95 M26.7 -42.35 Q26.2 -42.8 25.35 -42.95 L24.4 -43.05 Q20.7 -43.2 17.5 -41.5 16.1 -40.75 16.1 -39.6 16.1 -40.75 17.5 -41.5 20.7 -43.2 24.4 -43.05 L25.35 -42.95 Q26.2 -42.8 26.7 -42.35 M-28.55 -10.5 L-29.3 -9.2 -28.55 -10.5 M-2.75 -14.75 L-2.6 -11.05 -2.45 -8.75 -2.1 -4.15 Q-2.0 -2.7 -2.75 -2.3 -2.0 -2.7 -2.1 -4.15 L-2.45 -8.75 -2.6 -11.05 -2.75 -14.75 M-6.9 -7.5 L-6.5 -6.8 -6.45 -6.35 -6.5 -6.8 -6.9 -7.5 M-35.0 40.95 Q-34.6 49.0 -35.4 53.85 -36.75 62.5 -34.05 70.4 -36.75 62.5 -35.4 53.85 -34.6 49.0 -35.0 40.95 M-29.0 75.95 L-28.5 73.65 -28.05 72.25 Q-26.6 68.45 -27.1 63.95 -27.15 63.3 -27.35 62.7 -27.85 61.4 -27.6 62.15 -27.85 61.4 -27.35 62.7 -27.15 63.3 -27.1 63.95 -26.6 68.45 -28.05 72.25 L-28.5 73.65 -29.0 75.95 M-19.8 65.35 L-19.8 67.2 -20.0 69.45 -20.7 72.7 -20.0 69.45 -19.8 67.2 -19.8 65.35 M-30.6 46.05 L-30.3 47.4 -29.65 51.6 Q-29.25 54.35 -30.85 63.95 -29.25 54.35 -29.65 51.6 L-30.3 47.4 -30.6 46.05 M-36.35 13.8 Q-37.15 18.85 -36.9 24.4 L-36.65 26.2 Q-36.25 27.9 -36.35 29.9 -36.25 27.9 -36.65 26.2 L-36.9 24.4 Q-37.15 18.85 -36.35 13.8 M-39.15 3.65 L-39.2 4.6 -39.5 6.45 Q-40.7 14.85 -40.4 23.45 L-39.9 30.35 Q-39.8 30.85 -39.85 31.3 -39.9 32.5 -39.15 32.65 -39.9 32.5 -39.85 31.3 -39.8 30.85 -39.9 30.35 L-40.4 23.45 Q-40.7 14.85 -39.5 6.45 L-39.2 4.6 -39.15 3.65 M-8.05 -16.1 Q-8.25 -10.35 -9.2 -4.6 -8.25 -10.35 -8.05 -16.1" fill="url(#gradient0)" fill-rule="evenodd" stroke="none"/>
      <path d="M19.5 -46.4 Q21.8 -50.55 18.25 -53.65 16.65 -55.0 14.7 -54.65 11.95 -52.55 11.5 -49.1 10.75 -52.75 7.5 -53.15 L6.9 -45.1 Q4.1 -48.95 -1.7 -50.85 L-0.6 -46.8 Q-8.7 -50.2 -17.8 -50.3 L-20.15 -50.25 -19.4 -49.2 -16.7 -45.2 Q-28.45 -43.3 -34.05 -32.85 -35.95 -29.3 -37.95 -21.95 L-40.85 -10.65 Q-42.5 -4.35 -42.45 2.15 L-42.25 28.9 Q-42.15 36.75 -40.3 44.3 L-37.95 36.25 Q-39.35 47.85 -38.75 57.6 -38.2 67.0 -35.5 78.7 L-33.95 85.0 -33.15 79.0 -32.2 71.75 Q-30.1 75.05 -30.05 79.0 -29.95 82.15 -31.0 84.95 L-31.05 85.0 -31.0 85.0 -30.3 85.15 Q-26.15 80.7 -23.85 75.0 L-22.55 71.7 Q-20.65 76.0 -21.85 80.7 L-22.45 83.25 Q-18.0 79.4 -16.15 73.85 L-15.15 71.0 Q-13.7 69.25 -13.8 67.0 L-13.9 65.8 -13.2 64.9 -16.4 64.25 -19.65 62.9 Q-21.0 62.35 -21.6 59.7 L-22.65 55.05 Q-23.15 53.1 -25.15 48.9 -27.2 44.7 -29.45 39.0 -31.7 33.25 -32.65 29.0 L-33.9 22.8 Q-34.2 20.8 -33.75 16.7 L-32.8 9.6 -32.25 5.25 Q-32.15 3.9 -33.5 3.0 L-35.1 7.5 -35.85 0.6 Q-36.7 -9.8 -33.95 -20.15 M30.6 -45.45 L31.65 -45.65 30.7 -45.9 30.5 -45.95 28.35 -46.3 28.3 -46.3 Q23.85 -46.9 19.5 -46.4 L19.0 -45.65 M30.6 -45.45 L28.55 -44.05 Q30.8 -41.85 35.1 -40.35 38.2 -38.25 39.85 -37.2 41.45 -36.15 36.0 -35.9 L39.6 -32.5 Q42.6 -29.6 45.6 -22.8 L49.8 -11.95 Q50.7 -9.5 52.0 -7.15 54.75 -2.15 52.95 3.45 L49.1 -4.65 50.85 1.0 Q57.65 24.0 60.25 47.7 60.85 52.95 61.85 58.1 L62.0 60.45 Q61.65 73.6 55.25 85.15 L52.4 68.5 Q52.35 78.45 47.8 87.3 46.65 89.5 44.3 89.8 L43.75 69.05 43.15 72.5 42.45 76.15 Q40.65 83.55 35.1 89.2 34.9 87.15 34.85 85.1 L34.5 80.8 Q33.5 72.75 32.8 64.45 L27.05 83.45 23.05 61.0 Q21.5 66.05 22.05 71.2 L22.55 74.35 Q22.8 75.35 22.25 76.25 20.6 74.3 19.45 64.85 18.3 55.35 21.4 38.9 24.5 22.45 22.85 16.65 21.15 10.8 17.75 4.55 14.3 -1.8 8.5 -9.6 7.5 -7.4 7.3 -4.9 6.7 2.2 3.45 8.65 4.25 -1.65 0.4 -11.2 0.75 -5.15 -1.2 0.5 -2.25 3.55 -4.6 5.75 L-6.45 -6.35 Q-6.05 -2.85 -7.55 0.4 L-8.05 1.5 -8.6 2.65 Q-10.0 5.8 -11.9 8.55 L-13.25 10.35 -12.65 8.0 Q-11.7 4.0 -11.35 -0.05 -11.0 -4.65 -11.35 -9.3 L-11.65 -10.05 -11.9 -10.25 -11.9 -10.15 -11.9 -10.1 -13.25 -5.85 Q-16.3 4.25 -21.85 13.25 L-24.0 -4.95 -24.85 -3.45 Q-26.35 -0.05 -27.05 3.65 L-27.6 7.5 -28.5 3.4 Q-29.8 -2.9 -29.3 -9.2 L-33.5 3.0 M-29.3 -9.2 L-28.55 -10.5 M-6.45 -6.35 L-6.5 -6.8 -6.9 -7.5" fill="none" stroke="#000000" stroke-linecap="round" stroke-linejoin="round" stroke-width="2.0"/>
      <path d="M16.1 -39.6 Q16.1 -40.75 17.5 -41.5 20.7 -43.2 24.4 -43.05 L25.35 -42.95 Q26.2 -42.8 26.7 -42.35 M19.8 -36.35 L23.05 -36.5 26.2 -34.9 Q29.55 -33.0 31.75 -29.95 M10.6 -41.0 Q11.55 -44.2 14.6 -46.65 L15.3 -47.3 16.1 -47.9 M3.7 -40.5 L2.8 -44.65 2.75 -45.1 M7.35 -29.0 Q8.7 -30.45 11.45 -29.75 L13.4 -29.1 15.15 -28.45 Q18.25 -27.4 19.8 -24.85 M3.7 -7.35 Q4.0 -11.3 3.25 -14.75 L3.2 -15.2 M23.45 -28.55 Q26.55 -26.55 28.45 -23.45 29.05 -22.45 29.0 -21.2 M25.75 6.9 Q25.2 7.5 25.15 5.5 25.15 2.7 24.5 0.0 23.85 -2.85 22.15 -5.1 21.6 -5.85 22.1 -5.55 M35.9 5.5 L35.9 5.05 Q35.95 0.5 34.5 -3.7 33.35 -6.9 31.45 -9.8 L30.6 -10.8 M55.7 62.6 Q55.05 61.65 55.0 59.85 L54.95 58.9 Q54.8 56.3 55.05 53.85 55.35 50.55 54.6 47.45 52.65 39.0 50.35 30.8 L48.9 24.85 Q47.05 16.6 43.4 8.65 L42.6 7.0 Q40.4 2.5 38.7 -2.3 37.45 -5.85 35.4 -8.7 L34.95 -9.2 M43.25 -2.3 Q43.1 -5.05 41.8 -7.3 40.25 -9.95 38.65 -11.5 M46.95 73.65 L47.75 67.65 48.1 63.95 48.4 60.3 Q48.75 52.45 47.1 45.05 L44.8 34.9 44.45 33.65 Q43.85 31.8 43.7 32.2 M35.45 57.55 Q37.0 54.9 37.25 51.1 37.9 42.65 37.7 34.05 37.45 25.2 35.5 17.0 34.35 12.3 32.75 7.75 L31.75 5.5 M23.0 54.75 Q23.35 50.85 24.7 47.35 25.55 45.1 25.9 42.85 L26.25 41.4 Q27.25 37.9 27.75 34.05 L27.85 33.15 Q27.95 29.15 28.4 25.3 L29.05 15.65 Q29.15 13.45 28.55 11.5 M27.6 70.4 Q27.6 64.85 27.75 59.35 27.8 57.4 28.35 55.65 L28.75 54.35 30.0 49.7 30.25 48.3 30.35 46.95 M37.75 75.5 Q37.3 76.55 37.1 75.05 L37.0 74.5 Q36.6 71.2 37.1 68.05 L38.2 60.3 M-16.6 -34.05 Q-16.65 -35.9 -18.9 -36.1 L-19.8 -36.3 Q-23.25 -37.5 -26.7 -36.35 M-13.35 -46.95 Q-9.75 -44.65 -5.05 -44.45 L-3.7 -44.15 Q-1.4 -43.25 -0.8 -41.05 L-0.4 -40.6 M-33.6 -5.05 Q-33.6 -3.55 -33.45 -5.55 -33.05 -11.2 -31.0 -16.65 L-29.75 -19.7 -28.5 -22.05 -26.9 -23.45 -26.7 -23.0 M-26.7 -6.45 L-23.8 -13.75 -22.45 -16.05 -19.55 -19.55 M-20.25 2.3 Q-20.95 0.95 -20.6 -1.4 L-20.3 -2.75 Q-18.0 -11.05 -14.2 -18.85 L-12.7 -21.5 -11.95 -22.1 M-2.75 -2.3 Q-2.0 -2.7 -2.1 -4.15 L-2.45 -8.75 -2.6 -11.05 -2.75 -14.75 M-9.2 -4.6 Q-8.25 -10.35 -8.05 -16.1 M-39.15 32.65 Q-39.9 32.5 -39.85 31.3 -39.8 30.85 -39.9 30.35 L-40.4 23.45 Q-40.7 14.85 -39.5 6.45 L-39.2 4.6 -39.15 3.65 M-36.35 29.9 Q-36.25 27.9 -36.65 26.2 L-36.9 24.4 Q-37.15 18.85 -36.35 13.8 M-30.85 63.95 Q-29.25 54.35 -29.65 51.6 L-30.3 47.4 -30.6 46.05 M-20.7 72.7 L-20.0 69.45 -19.8 67.2 -19.8 65.35 M-27.6 62.15 Q-27.85 61.4 -27.35 62.7 -27.15 63.3 -27.1 63.95 -26.6 68.45 -28.05 72.25 L-28.5 73.65 -29.0 75.95 M-34.05 70.4 Q-36.75 62.5 -35.4 53.85 -34.6 49.0 -35.0 40.95" fill="none" stroke="#ffffcc" stroke-linecap="round" stroke-linejoin="round" stroke-width="1.5"/>
    </g>
    </g>
  </g>
  <defs>
    <radialGradient cx="0" cy="0" gradientTransform="matrix(0.1038, 0.0, 0.0, 0.0721, 0.0, -28.0)" gradientUnits="userSpaceOnUse" id="gradient0" r="819.2" spreadMethod="pad">
      <stop offset="0.0" stop-color="#8f5945"/>
      <stop offset="0.2823529411764706" stop-color="#eec62d"/>
      <stop offset="0.4196078431372549" stop-color="#fff5e6"/>
      <stop offset="0.6509803921568628" stop-color="#f4c925"/>
      <stop offset="1.0" stop-color="#feb445"/>
    </radialGradient>
  </defs>
</svg>