<svg xmlns:xlink="http://www.w3.org/1999/xlink" xmlns="http://www.w3.org/2000/svg" height="119.1px" width="213.05px">
  <g transform="matrix(1.0, 0.0, 0.0, 1.0, 94.65, 81.2)">
    <g data-characterId="911" height="58.45" transform="matrix(1.0, 0.0, 0.0, 1.0, -57.35, -31.4)" width="128.6" xlink:href="#shape0"><g id="shape0" transform="matrix(1.0, 0.0, 0.0, 1.0, 57.35, 31.4)">
      <path d="M27.75 -29.6 L28.45 -30.9 Q39.35 -29.6 47.15 -21.3 50.0 -18.25 52.1 -14.8 56.4 -13.35 60.9 -9.45 65.4 -5.55 68.75 -0.1 72.05 5.3 69.95 11.95 62.75 16.5 60.85 16.15 L56.85 16.45 47.8 16.15 47.5 15.75 Q51.2 13.6 53.5 9.95 54.65 8.1 54.9 5.75 55.45 0.8 54.3 -3.95 55.9 -6.85 54.45 -10.2 L52.1 -14.8 54.45 -10.2 Q55.9 -6.85 54.3 -3.95 55.45 0.8 54.9 5.75 54.65 8.1 53.5 9.95 51.2 13.6 47.5 15.75 L47.05 16.0 Q44.65 17.25 41.65 17.9 L18.2 22.8 Q6.65 24.85 -5.2 25.25 L-26.2 26.5 Q-39.1 27.2 -49.55 20.5 -60.95 13.25 -54.55 1.55 -48.85 -8.85 -38.3 -14.35 -30.9 -21.05 -21.5 -24.0 L-22.3 -19.55 Q-23.0 -16.25 -23.55 -10.8 L-16.2 -8.05 Q-4.7 -3.65 7.6 -5.3 19.0 -6.9 29.1 -12.8 27.95 -20.05 27.7 -23.15 L27.25 -27.75 27.5 -28.0 27.55 -28.85 27.75 -29.6 M16.5 15.5 Q28.85 17.35 39.8 12.1 52.35 6.1 50.9 -7.65 L50.85 -8.15 50.8 -8.2 50.0 -9.95 49.1 -11.15 Q42.15 -20.45 31.7 -25.75 29.55 -26.8 27.5 -28.0 29.55 -26.8 31.7 -25.75 42.15 -20.45 49.1 -11.15 L50.0 -9.95 50.8 -8.2 50.85 -8.15 50.9 -7.65 Q52.35 6.1 39.8 12.1 28.85 17.35 16.5 15.5 M34.0 -16.5 L33.25 -15.55 Q31.5 -13.6 29.1 -12.8 31.5 -13.6 33.25 -15.55 L34.0 -16.5 M52.25 -8.4 Q53.55 -6.4 54.3 -3.95 53.55 -6.4 52.25 -8.4 M-24.5 14.0 Q-31.0 12.7 -35.4 8.05 -45.1 -2.15 -38.3 -14.35 -45.1 -2.15 -35.4 8.05 -31.0 12.7 -24.5 14.0 M-28.25 -12.5 L-23.55 -10.8 -28.25 -12.5" fill="#663333" fill-rule="evenodd" stroke="none"/>
      <path d="M28.45 -30.9 L28.05 -30.25 27.75 -29.6 27.55 -28.85 27.5 -28.0 Q29.55 -26.8 31.7 -25.75 42.15 -20.45 49.1 -11.15 L50.0 -9.95 50.8 -8.2 50.85 -8.15 50.9 -7.65 Q52.35 6.1 39.8 12.1 28.85 17.35 16.5 15.5 M29.1 -12.8 Q31.5 -13.6 33.25 -15.55 L34.0 -16.5 M47.05 16.0 Q44.65 17.25 41.65 17.9 L18.2 22.8 Q6.65 24.85 -5.2 25.25 L-26.2 26.5 Q-39.1 27.2 -49.55 20.5 -60.95 13.25 -54.55 1.55 -48.85 -8.85 -38.3 -14.35 -30.9 -21.05 -21.5 -24.0 L-22.3 -19.55 Q-23.0 -16.25 -23.55 -10.8 L-16.2 -8.05 Q-4.7 -3.65 7.6 -5.3 19.0 -6.9 29.1 -12.8 27.95 -20.05 27.7 -23.15 L27.25 -27.75 M52.1 -14.8 L54.45 -10.2 Q55.9 -6.85 54.3 -3.95 55.45 0.8 54.9 5.75 54.65 8.1 53.5 9.95 51.2 13.6 47.5 15.75 L47.05 16.0 47.8 16.15 56.85 16.45 60.85 16.15 Q62.75 16.5 69.95 11.95 72.05 5.3 68.75 -0.1 65.4 -5.55 60.9 -9.45 56.4 -13.35 52.1 -14.8 50.0 -18.25 47.15 -21.3 39.35 -29.6 28.45 -30.9 M54.3 -3.95 Q53.55 -6.4 52.25 -8.4 M-23.55 -10.8 L-28.25 -12.5 M-38.3 -14.35 Q-45.1 -2.15 -35.4 8.05 -31.0 12.7 -24.5 14.0" fill="none" stroke="#000000" stroke-linecap="round" stroke-linejoin="round" stroke-width="2.0"/>
    </g>
  </g>
  </g>
  <defs>
    </defs>
</svg>