<svg xmlns:xlink="http://www.w3.org/1999/xlink" xmlns="http://www.w3.org/2000/svg" height="8.65px" width="12.3px">
  <g transform="matrix(1.0, 0.0, 0.0, 1.0, 9.5, 3.0)">
    <path d="M2.75 -0.25 L2.75 -0.15 2.8 -0.05 Q2.4 1.4 0.6 1.2 L-1.9 0.65 Q-2.55 0.45 -3.0 -0.05 L-7.15 0.3 Q-7.5 0.3 -7.5 -0.1 -8.8 0.15 -9.5 -0.7 L-9.45 -0.9 -9.35 -1.05 -9.3 -1.1 Q-7.15 -1.25 -5.35 -2.7 -5.0 -3.0 -4.6 -2.7 L-4.35 -2.45 -4.25 -2.25 Q-3.3 -2.3 -2.5 -3.0 L-2.0 -2.9 -1.85 -2.85 -1.65 -2.55 -1.55 -2.35 Q0.25 -0.8 2.65 -0.45 L2.75 -0.25 M0.05 4.7 L-2.95 5.55 Q-5.8 6.15 -7.3 3.7 L-7.5 3.0 -7.5 2.65 -5.8 3.35 Q-4.15 4.0 -1.65 3.9 0.85 3.8 0.55 4.15 L0.05 4.7" fill="#e6b380" fill-rule="evenodd" stroke="none"/>
  </g>
</svg>