<svg xmlns:xlink="http://www.w3.org/1999/xlink" xmlns="http://www.w3.org/2000/svg" height="9.25px" width="17.5px">
  <g transform="matrix(1.0, 0.0, 0.0, 1.0, 9.7, 1.7)">
    <path d="M4.8 -0.4 Q7.7 -0.45 7.8 0.2 L7.75 0.4 7.45 0.9 7.4 0.95 Q3.35 1.7 -0.6 0.45 -4.6 1.6 -8.6 0.55 L-8.7 0.45 -8.75 0.45 -9.05 0.75 -9.25 0.85 -9.45 0.75 -9.7 0.5 -9.7 0.4 -9.6 0.05 -9.55 -0.15 Q-8.75 -1.1 -7.65 -1.6 L-7.0 -1.6 Q-4.5 -0.4 -3.05 -1.2 -1.55 -2.0 0.15 -1.2 1.9 -0.4 4.8 -0.4 M0.45 6.6 L-2.55 7.45 Q-5.4 8.05 -6.9 5.6 L-7.1 4.9 -7.1 4.55 -5.4 5.25 Q-3.75 5.9 -1.25 5.8 L0.95 6.05 0.45 6.6" fill="#e6b380" fill-rule="evenodd" stroke="none"/>
  </g>
</svg>