<svg xmlns:xlink="http://www.w3.org/1999/xlink" xmlns="http://www.w3.org/2000/svg" height="8.1px" width="14.45px">
  <g transform="matrix(1.0, 0.0, 0.0, 1.0, 9.9, 2.2)">
    <path d="M-1.7 -1.45 L2.25 -0.4 Q4.55 0.25 4.55 0.6 L4.45 0.8 4.35 0.95 4.25 1.05 -1.2 0.4 -5.8 0.6 Q-7.7 1.1 -8.75 -0.2 L-9.45 0.1 -9.65 0.05 -9.85 -0.15 -9.9 -0.3 -9.9 -0.4 -8.5 -1.75 -7.9 -2.2 Q-5.5 -0.55 -4.35 -1.45 L-3.65 -2.05 -1.7 -1.45 M-4.35 5.8 Q-7.2 6.4 -8.7 3.95 L-8.9 3.25 -8.9 2.9 -7.2 3.6 Q-5.55 4.25 -3.05 4.15 L-0.85 4.4 -1.35 4.95 -4.35 5.8" fill="#e6b380" fill-rule="evenodd" stroke="none"/>
  </g>
</svg>