<svg xmlns:xlink="http://www.w3.org/1999/xlink" xmlns="http://www.w3.org/2000/svg" height="264.15px" width="342.25px">
  <g transform="matrix(1.0, 0.0, 0.0, 1.0, 243.25, 83.7)">
    <g data-characterId="1154" height="137.55" transform="matrix(1.0, 0.0, 0.0, 1.0, -61.8, -45.25)" width="139.65" xlink:href="#shape0"><g id="shape0" transform="matrix(1.0, 0.0, 0.0, 1.0, 61.8, 45.25)">
      <path d="M15.25 -40.85 L19.0 -40.95 22.3 -38.95 26.35 -35.85 30.65 -31.85 Q34.75 -28.3 37.9 -24.0 41.0 -19.7 43.3 -14.85 45.8 -9.7 46.9 -3.9 L48.65 7.6 49.75 18.0 50.25 23.6 51.1 35.15 51.45 41.15 Q51.65 45.5 52.3 49.85 L52.7 52.55 Q53.5 57.95 55.8 62.9 56.8 65.05 58.2 67.0 L63.85 75.1 Q60.05 73.8 56.65 71.55 55.1 70.5 54.05 69.1 56.05 74.85 61.7 77.55 65.65 79.45 69.85 80.7 L76.2 82.25 76.8 83.25 Q71.55 85.9 65.65 85.95 L54.25 85.05 Q58.85 87.1 63.8 87.6 L66.45 87.75 Q59.3 89.6 51.85 89.75 L46.4 89.25 Q41.6 88.05 37.75 85.35 L35.35 83.7 Q36.35 87.0 38.85 89.4 39.65 90.1 40.05 91.15 L40.25 91.8 Q35.0 89.75 30.85 86.15 28.2 83.9 26.45 80.85 L26.15 86.3 Q22.8 80.45 21.3 73.85 19.75 67.2 19.6 60.2 L19.6 52.95 19.7 50.85 19.8 45.1 Q19.7 41.7 19.9 38.3 20.1 34.25 19.65 30.2 19.05 24.3 17.6 18.7 16.55 14.8 15.8 10.95 14.6 4.8 13.0 -1.15 12.15 -4.5 10.95 -7.65 L9.25 -11.9 6.3 -18.15 5.0 -20.25 1.9 -23.75 0.7 -24.9 0.25 -25.3 Q-1.6 -20.65 -5.95 -18.0 -9.25 -15.9 -12.7 -14.0 -20.75 -9.65 -28.55 -4.55 L-32.4 -1.45 Q-34.35 0.5 -33.2 3.1 L-32.0 5.8 Q-31.15 7.75 -31.75 9.9 -32.8 13.8 -33.35 17.85 -34.05 23.4 -32.25 28.75 -29.25 37.5 -26.8 46.6 -24.65 54.55 -20.7 61.5 L-19.15 62.95 Q-17.15 63.95 -14.95 64.2 L-13.4 64.5 -13.4 64.55 -13.55 65.0 Q-12.95 68.5 -14.75 71.35 L-16.2 72.9 -20.7 75.35 -23.85 76.6 -26.75 77.1 -23.05 73.65 Q-29.05 77.5 -35.75 80.0 -42.7 82.7 -50.15 82.25 L-42.85 77.15 Q-49.2 79.9 -55.85 78.45 L-58.9 78.1 -59.85 77.7 Q-58.95 76.9 -57.75 76.7 L-53.8 75.35 Q-51.1 74.35 -49.5 71.95 -55.35 73.2 -61.3 73.1 -57.7 72.7 -54.55 71.0 L-50.0 68.5 Q-47.25 67.1 -44.8 64.85 L-41.45 61.55 -46.8 62.95 -46.9 62.15 Q-42.5 58.9 -40.2 54.0 -38.5 50.3 -38.3 46.3 -38.05 41.85 -38.1 37.4 -38.15 31.65 -38.6 25.9 L-39.7 14.75 Q-40.35 9.4 -40.3 4.05 -40.25 -1.8 -39.05 -7.45 L-37.55 -13.15 Q-35.75 -18.65 -33.4 -23.85 L-31.45 -27.6 Q-29.3 -31.35 -25.9 -33.95 -21.9 -36.9 -17.65 -38.9 -13.7 -40.8 -9.55 -42.1 L0.05 -44.35 5.45 -44.75 Q10.05 -44.75 13.7 -42.15 L14.35 -41.15 15.25 -40.85 M11.2 -39.7 Q11.6 -39.85 11.4 -40.0 L8.55 -41.2 3.55 -42.85 Q0.25 -43.7 -2.65 -42.3 L-8.35 -39.4 -2.65 -42.3 Q0.25 -43.7 3.55 -42.85 L8.55 -41.2 11.4 -40.0 Q11.6 -39.85 11.2 -39.7 M0.55 -29.05 L0.3 -29.25 Q-2.35 -29.45 -4.9 -28.5 -2.35 -29.45 0.3 -29.25 L0.55 -29.05 M6.9 -37.95 L2.05 -37.8 Q-2.65 -37.55 -6.9 -35.65 -2.65 -37.55 2.05 -37.8 L6.9 -37.95 M12.35 -35.65 L12.95 -36.3 Q16.05 -38.75 19.55 -36.55 16.05 -38.75 12.95 -36.3 L12.35 -35.65 M7.45 -31.95 L10.1 -32.5 18.4 -32.2 10.1 -32.5 7.45 -31.95 M3.45 -27.35 Q4.65 -28.3 6.05 -28.85 11.7 -30.95 16.65 -27.35 11.7 -30.95 6.05 -28.85 4.65 -28.3 3.45 -27.35 M2.85 -33.35 Q2.85 -34.25 2.0 -34.15 -2.35 -33.9 -6.35 -32.5 -2.35 -33.9 2.0 -34.15 2.85 -34.25 2.85 -33.35 M15.8 -12.35 L17.65 -7.05 Q19.3 -2.3 19.25 2.6 19.3 -2.3 17.65 -7.05 L15.8 -12.35 M9.2 -20.15 L10.4 -18.0 Q12.5 -12.65 14.15 -7.15 L17.35 3.75 Q19.05 9.45 20.35 15.3 L21.25 20.65 Q21.8 25.95 21.85 31.5 L22.1 40.25 22.35 45.2 Q22.55 50.4 24.05 55.45 25.7 61.15 28.7 66.35 30.65 69.7 33.35 72.5 30.65 69.7 28.7 66.35 25.7 61.15 24.05 55.45 22.55 50.4 22.35 45.2 L22.1 40.25 21.85 31.5 Q21.8 25.95 21.25 20.65 L20.35 15.3 Q19.05 9.45 17.35 3.75 L14.15 -7.15 Q12.5 -12.65 10.4 -18.0 L9.2 -20.15 M24.15 -24.45 L27.6 -21.65 Q31.45 -17.9 32.95 -12.4 34.35 -7.25 34.8 -1.7 34.35 -7.25 32.95 -12.4 31.45 -17.9 27.6 -21.65 L24.15 -24.45 M34.2 -20.4 Q36.75 -18.35 38.3 -15.25 40.25 -11.4 40.55 -6.9 40.25 -11.4 38.3 -15.25 36.75 -18.35 34.2 -20.4 M29.0 -5.4 L29.65 -2.8 Q31.15 2.7 31.2 8.5 L31.2 17.7 31.4 27.65 31.75 33.35 Q32.35 38.7 33.2 43.95 33.95 48.65 35.2 53.25 36.6 58.35 38.6 63.25 40.9 68.85 44.7 73.45 48.5 77.95 53.5 80.85 48.5 77.95 44.7 73.45 40.9 68.85 38.6 63.25 36.6 58.35 35.2 53.25 33.95 48.65 33.2 43.95 32.35 38.7 31.75 33.35 L31.4 27.65 31.2 17.7 31.2 8.5 Q31.15 2.7 29.65 -2.8 L29.0 -5.4 Q29.2 -9.6 27.2 -13.4 29.2 -9.6 29.0 -5.4 M18.7 -17.25 Q22.2 -13.75 23.75 -9.15 25.65 -3.4 25.5 2.65 25.65 -3.4 23.75 -9.15 22.2 -13.75 18.7 -17.25 M34.8 -16.4 L36.5 -10.35 34.8 -16.4 M31.65 80.85 L29.9 78.6 Q26.85 74.5 25.3 69.6 26.85 74.5 29.9 78.6 L31.65 80.85 M53.2 85.75 L51.85 85.4 49.3 84.3 Q46.4 82.45 44.15 79.75 40.55 75.4 38.15 70.55 L33.9 62.15 Q31.7 57.8 30.5 52.95 29.25 47.9 28.3 42.85 27.35 38.0 27.0 33.1 26.6 27.9 26.75 22.75 26.9 17.65 26.15 12.6 25.45 7.6 25.5 2.65 25.45 7.6 26.15 12.6 26.9 17.65 26.75 22.75 26.6 27.9 27.0 33.1 27.35 38.0 28.3 42.85 29.25 47.9 30.5 52.95 31.7 57.8 33.9 62.15 L38.15 70.55 Q40.55 75.4 44.15 79.75 46.4 82.45 49.3 84.3 L51.85 85.4 53.2 85.75 M61.55 80.0 Q57.2 78.5 54.3 74.65 L51.45 70.9 48.15 66.5 Q46.75 64.45 45.9 62.15 44.25 57.85 43.05 53.4 42.3 50.6 41.7 47.8 40.6 42.5 40.35 37.15 L39.9 26.8 39.65 16.15 Q39.6 10.65 39.7 5.2 39.6 10.65 39.65 16.15 L39.9 26.8 40.35 37.15 Q40.6 42.5 41.7 47.8 42.3 50.6 43.05 53.4 44.25 57.85 45.9 62.15 46.75 64.45 48.15 66.5 L51.45 70.9 54.3 74.65 Q57.2 78.5 61.55 80.0 M54.25 85.05 L52.05 84.0 54.25 85.05 M53.8 68.45 L54.05 69.1 53.8 68.45 M25.5 2.65 L24.15 -6.35 25.5 2.65 M46.6 49.5 L43.7 15.55 46.6 49.5 M-36.55 -7.75 L-36.15 -9.8 Q-34.9 -15.2 -32.5 -20.05 -30.2 -24.65 -26.6 -28.45 -30.2 -24.65 -32.5 -20.05 -34.9 -15.2 -36.15 -9.8 L-36.55 -7.75 M-31.35 -5.45 L-23.3 -13.5 -31.35 -5.45 M-34.8 -6.6 Q-33.9 -9.8 -32.4 -12.7 -30.0 -17.35 -25.6 -20.15 -30.0 -17.35 -32.4 -12.7 -33.9 -9.8 -34.8 -6.6 M-21.0 69.05 L-20.6 68.45 Q-19.15 66.1 -19.6 63.3 -19.15 66.1 -20.6 68.45 L-21.0 69.05 M-32.5 73.65 Q-29.75 71.95 -28.0 69.35 -24.85 64.7 -24.2 59.25 -24.85 64.7 -28.0 69.35 -29.75 71.95 -32.5 73.65 M-48.35 69.35 Q-46.75 68.8 -45.25 68.05 -43.75 67.35 -42.5 66.25 L-36.15 60.55 -34.4 58.55 Q-30.65 53.75 -29.95 47.75 -30.65 53.75 -34.4 58.55 L-36.15 60.55 -42.5 66.25 Q-43.75 67.35 -45.25 68.05 -46.75 68.8 -48.35 69.35 M-45.45 73.65 Q-43.55 73.3 -41.75 72.45 -36.4 69.8 -33.0 65.05 L-31.45 62.6 Q-29.6 59.15 -28.2 55.55 -29.6 59.15 -31.45 62.6 L-33.0 65.05 Q-36.4 69.8 -41.75 72.45 -43.55 73.3 -45.45 73.65 M-36.55 18.7 Q-35.8 22.8 -35.35 27.5 -34.75 33.25 -35.05 39.0 -35.3 44.4 -36.15 50.0 -36.95 55.5 -40.3 59.85 -36.95 55.5 -36.15 50.0 -35.3 44.4 -35.05 39.0 -34.75 33.25 -35.35 27.5 -35.8 22.8 -36.55 18.7 M-4.6 -23.0 Q-7.9 -19.5 -12.25 -17.25 -16.5 -14.9 -20.75 -12.65 -16.5 -14.9 -12.25 -17.25 -7.9 -19.5 -4.6 -23.0 M-9.5 -24.15 L-14.1 -21.0 -9.5 -24.15" fill="url(#gradient0)" fill-rule="evenodd" stroke="none"/>
      <path d="M15.25 -40.85 L19.0 -40.95 22.3 -38.95 26.35 -35.85 30.65 -31.85 Q34.75 -28.3 37.9 -24.0 41.0 -19.7 43.3 -14.85 45.8 -9.7 46.9 -3.9 L48.65 7.6 49.75 18.0 50.25 23.6 51.1 35.15 51.45 41.15 Q51.65 45.5 52.3 49.85 L52.7 52.55 Q53.5 57.95 55.8 62.9 56.8 65.05 58.2 67.0 L63.85 75.1 Q60.05 73.8 56.65 71.55 55.1 70.5 54.05 69.1 56.05 74.85 61.7 77.55 65.65 79.45 69.85 80.7 L76.2 82.25 77.35 82.85 76.8 83.25 Q71.55 85.9 65.65 85.95 L54.25 85.05 Q58.85 87.1 63.8 87.6 L66.45 87.75 Q59.3 89.6 51.85 89.75 L46.4 89.25 Q41.6 88.05 37.75 85.35 L35.35 83.7 Q36.35 87.0 38.85 89.4 39.65 90.1 40.05 91.15 L40.25 91.8 Q35.0 89.75 30.85 86.15 28.2 83.9 26.45 80.85 L26.15 86.3 Q22.8 80.45 21.3 73.85 19.75 67.2 19.6 60.2 L19.6 52.95 19.7 50.85 19.8 45.1 Q19.7 41.7 19.9 38.3 20.1 34.25 19.65 30.2 19.05 24.3 17.6 18.7 16.55 14.8 15.8 10.95 14.6 4.8 13.0 -1.15 12.15 -4.5 10.95 -7.65 L9.25 -11.9 6.3 -18.15 5.0 -20.25 1.9 -23.75 0.7 -24.9 Q0.85 -24.4 1.15 -24.05 L2.1 -22.5 5.0 -16.5 Q7.1 -12.1 8.35 -7.4 9.9 -1.65 10.5 4.3 L11.6 14.5 Q12.25 20.3 13.5 25.6 M-46.9 62.15 Q-42.5 58.9 -40.2 54.0 -38.5 50.3 -38.3 46.3 -38.05 41.85 -38.1 37.4 -38.15 31.65 -38.6 25.9 L-39.7 14.75 Q-40.35 9.4 -40.3 4.05 -40.25 -1.8 -39.05 -7.45 L-37.55 -13.15 Q-35.75 -18.65 -33.4 -23.85 L-31.45 -27.6 Q-29.3 -31.35 -25.9 -33.95 -21.9 -36.9 -17.65 -38.9 -13.7 -40.8 -9.55 -42.1 L0.05 -44.35 5.45 -44.75 Q10.05 -44.75 13.7 -42.15 L14.35 -41.15 M0.7 -24.9 L0.25 -25.3 Q-1.6 -20.65 -5.95 -18.0 -9.25 -15.9 -12.7 -14.0 -20.75 -9.65 -28.55 -4.55 L-32.4 -1.45 Q-34.35 0.5 -33.2 3.1 L-32.0 5.8 Q-31.15 7.75 -31.75 9.9 -32.8 13.8 -33.35 17.85 -34.05 23.4 -32.25 28.75 -29.25 37.5 -26.8 46.6 -24.65 54.55 -20.7 61.5 L-19.15 62.95 Q-17.15 63.95 -14.95 64.2 L-13.4 64.5 -13.4 64.55 M-13.55 65.0 Q-12.95 68.5 -14.75 71.35 L-16.2 72.9 -20.7 75.35 -23.85 76.6 -26.75 77.1 -23.05 73.65 Q-29.05 77.5 -35.75 80.0 -42.7 82.7 -50.15 82.25 L-42.85 77.15 Q-49.2 79.9 -55.85 78.45 L-58.9 78.1 -59.85 77.7 Q-58.95 76.9 -57.75 76.7 L-53.8 75.35 Q-51.1 74.35 -49.5 71.95 -55.35 73.2 -61.3 73.1 -57.7 72.7 -54.55 71.0 L-50.0 68.5 Q-47.25 67.1 -44.8 64.85 L-41.45 61.55 -46.8 62.95 -48.1 62.95 -46.9 62.15 M3.15 -6.05 Q2.55 -10.4 2.45 -14.7 L2.15 -20.4 Q2.0 -22.45 0.55 -24.15 M54.05 69.1 L53.8 68.45 M52.05 84.0 L54.25 85.05" fill="none" stroke="#000000" stroke-linecap="round" stroke-linejoin="round" stroke-width="2.0"/>
      <path d="M-8.35 -39.4 L-2.65 -42.3 Q0.25 -43.7 3.55 -42.85 L8.55 -41.2 11.4 -40.0 Q11.6 -39.85 11.2 -39.7 M-6.9 -35.65 Q-2.65 -37.55 2.05 -37.8 L6.9 -37.95 M-4.9 -28.5 Q-2.35 -29.45 0.3 -29.25 L0.55 -29.05 M-6.35 -32.5 Q-2.35 -33.9 2.0 -34.15 2.85 -34.25 2.85 -33.35 M16.65 -27.35 Q11.7 -30.95 6.05 -28.85 4.65 -28.3 3.45 -27.35 M18.4 -32.2 L10.1 -32.5 7.45 -31.95 M19.55 -36.55 Q16.05 -38.75 12.95 -36.3 L12.35 -35.65 M33.35 72.5 Q30.65 69.7 28.7 66.35 25.7 61.15 24.05 55.45 22.55 50.4 22.35 45.2 L22.1 40.25 21.85 31.5 Q21.8 25.95 21.25 20.65 L20.35 15.3 Q19.05 9.45 17.35 3.75 L14.15 -7.15 Q12.5 -12.65 10.4 -18.0 L9.2 -20.15 M53.5 80.85 Q48.5 77.95 44.7 73.45 40.9 68.85 38.6 63.25 36.6 58.35 35.2 53.25 33.95 48.65 33.2 43.95 32.35 38.7 31.75 33.35 L31.4 27.65 31.2 17.7 31.2 8.5 Q31.15 2.7 29.65 -2.8 L29.0 -5.4 M39.7 5.2 Q39.6 10.65 39.65 16.15 L39.9 26.8 40.35 37.15 Q40.6 42.5 41.7 47.8 42.3 50.6 43.05 53.4 44.25 57.85 45.9 62.15 46.75 64.45 48.15 66.5 L51.45 70.9 54.3 74.65 Q57.2 78.5 61.55 80.0 M25.5 2.65 Q25.45 7.6 26.15 12.6 26.9 17.65 26.75 22.75 26.6 27.9 27.0 33.1 27.35 38.0 28.3 42.85 29.25 47.9 30.5 52.95 31.7 57.8 33.9 62.15 L38.15 70.55 Q40.55 75.4 44.15 79.75 46.4 82.45 49.3 84.3 L51.85 85.4 53.2 85.75 M25.3 69.6 Q26.85 74.5 29.9 78.6 L31.65 80.85 M43.7 15.55 L46.6 49.5 M24.15 -6.35 L25.5 2.65 M-14.1 -21.0 L-9.5 -24.15 M-20.75 -12.65 Q-16.5 -14.9 -12.25 -17.25 -7.9 -19.5 -4.6 -23.0 M-40.3 59.85 Q-36.95 55.5 -36.15 50.0 -35.3 44.4 -35.05 39.0 -34.75 33.25 -35.35 27.5 -35.8 22.8 -36.55 18.7 M-28.2 55.55 Q-29.6 59.15 -31.45 62.6 L-33.0 65.05 Q-36.4 69.8 -41.75 72.45 -43.55 73.3 -45.45 73.65 M-29.95 47.75 Q-30.65 53.75 -34.4 58.55 L-36.15 60.55 -42.5 66.25 Q-43.75 67.35 -45.25 68.05 -46.75 68.8 -48.35 69.35 M-24.2 59.25 Q-24.85 64.7 -28.0 69.35 -29.75 71.95 -32.5 73.65 M-19.6 63.3 Q-19.15 66.1 -20.6 68.45 L-21.0 69.05" fill="none" stroke="#683f35" stroke-linecap="round" stroke-linejoin="round" stroke-width="1.5"/>
      <path d="M19.25 2.6 Q19.3 -2.3 17.65 -7.05 L15.8 -12.35 M40.55 -6.9 Q40.25 -11.4 38.3 -15.25 36.75 -18.35 34.2 -20.4 M34.8 -1.7 Q34.35 -7.25 32.95 -12.4 31.45 -17.9 27.6 -21.65 L24.15 -24.45 M29.0 -5.4 Q29.2 -9.6 27.2 -13.4 M36.5 -10.35 L34.8 -16.4 M25.5 2.65 Q25.65 -3.4 23.75 -9.15 22.2 -13.75 18.7 -17.25 M-25.6 -20.15 Q-30.0 -17.35 -32.4 -12.7 -33.9 -9.8 -34.8 -6.6 M-23.3 -13.5 L-31.35 -5.45 M-26.6 -28.45 Q-30.2 -24.65 -32.5 -20.05 -34.9 -15.2 -36.15 -9.8 L-36.55 -7.75" fill="none" stroke="#a06752" stroke-linecap="round" stroke-linejoin="round" stroke-width="1.5"/>
      <path d="M5.05 61.0 L4.85 61.1 Q-1.15 63.8 -2.4 64.0 -3.65 64.15 -2.95 64.55 -2.25 64.95 -2.6 65.05 L-2.9 65.2 -4.9 65.55 -6.05 65.7 Q-7.0 65.65 -7.2 66.2 -6.2 66.4 -5.75 67.05 L-8.35 67.0 Q-9.85 66.95 -10.95 66.2 L-10.6 66.65 Q-9.8 67.3 -9.8 68.2 -12.8 68.35 -14.7 66.2 -13.95 67.45 -14.1 69.05 -14.8 69.1 -15.2 68.45 L-16.7 66.2 -16.65 67.05 Q-16.5 68.15 -17.0 68.5 -18.7 66.9 -19.75 64.4 L-20.15 63.6 -20.3 63.9 -20.3 64.4 Q-20.35 65.2 -20.7 65.6 L-21.55 63.9 -21.8 63.3 -22.4 60.45 -22.6 60.05 Q-22.95 59.8 -22.75 59.0 L-22.75 58.7 -22.4 58.7 -22.15 58.7 Q-19.85 58.6 -18.7 57.25 L-18.1 56.75 -17.1 55.5 Q-16.6 54.6 -16.4 53.25 -16.15 52.8 -15.85 53.8 -15.2 53.9 -15.25 53.25 -14.9 53.4 -14.7 54.1 L-13.5 52.95 -13.25 52.65 -12.65 53.95 -10.75 57.1 -9.15 58.8 -7.65 59.75 -5.5 60.65 -4.05 61.05 -0.9 61.8 5.05 61.0 M-20.45 59.85 L-20.45 60.75 -20.45 59.85 M-10.35 60.75 L-10.5 61.9 Q-10.45 63.3 -9.8 64.45 -10.45 63.3 -10.5 61.9 L-10.35 60.75 M-7.2 62.15 L-7.35 62.75 Q-7.45 63.9 -6.65 64.2 -7.45 63.9 -7.35 62.75 L-7.2 62.15 M-15.25 57.25 Q-15.45 60.3 -14.8 63.25 L-14.4 64.2 -14.8 63.25 Q-15.45 60.3 -15.25 57.25 M-13.25 59.3 L-13.1 60.95 Q-12.65 63.15 -11.5 65.05 -12.65 63.15 -13.1 60.95 L-13.25 59.3 M-18.15 58.7 L-18.15 60.15 Q-18.15 62.55 -17.25 64.45 -18.15 62.55 -18.15 60.15 L-18.15 58.7" fill="#4f3324" fill-rule="evenodd" stroke="none"/>
      <path d="M4.85 61.1 Q-1.15 63.8 -2.4 64.0 -3.65 64.15 -2.95 64.55 -2.25 64.95 -2.6 65.05 L-2.9 65.2 -4.9 65.55 -6.05 65.7 Q-7.0 65.65 -7.2 66.2 -6.2 66.4 -5.75 67.05 L-8.35 67.0 Q-9.85 66.95 -10.95 66.2 L-10.6 66.65 Q-9.8 67.3 -9.8 68.2 -12.8 68.35 -14.7 66.2 -13.95 67.45 -14.1 69.05 -14.8 69.1 -15.2 68.45 L-16.7 66.2 -16.65 67.05 Q-16.5 68.15 -17.0 68.5 -18.7 66.9 -19.75 64.4 L-20.15 63.6 -20.3 63.9 -20.3 64.4 Q-20.35 65.2 -20.7 65.6 L-21.55 63.9 -21.8 63.3 -22.4 60.45 -22.6 60.05 Q-22.95 59.8 -22.75 59.0 M-22.75 58.7 L-22.4 58.7 -22.15 58.7 Q-19.85 58.6 -18.7 57.25 L-18.1 56.75 -17.1 55.5 Q-16.6 54.6 -16.4 53.25 -16.15 52.8 -15.85 53.8 -15.2 53.9 -15.25 53.25 -14.9 53.4 -14.7 54.1 L-13.5 52.95 -13.25 52.65 -12.65 53.95 -10.75 57.1 -9.15 58.8 -7.65 59.75 -5.5 60.65 -4.05 61.05 -0.9 61.8 5.05 61.0" fill="none" stroke="#000000" stroke-linecap="round" stroke-linejoin="round" stroke-width="2.0"/>
      <path d="M-17.25 64.45 Q-18.15 62.55 -18.15 60.15 L-18.15 58.7 M-11.5 65.05 Q-12.65 63.15 -13.1 60.95 L-13.25 59.3 M-14.4 64.2 L-14.8 63.25 Q-15.45 60.3 -15.25 57.25 M-6.65 64.2 Q-7.45 63.9 -7.35 62.75 L-7.2 62.15 M-9.8 64.45 Q-10.45 63.3 -10.5 61.9 L-10.35 60.75 M-20.45 60.75 L-20.45 59.85" fill="none" stroke="#683f35" stroke-linecap="round" stroke-linejoin="round" stroke-width="1.5"/>
    </g>
    </g>
  </g>
  <defs>
    <radialGradient cx="0" cy="0" gradientTransform="matrix(0.0028, 0.1085, -0.1668, 0.0043, 1.0, -31.5)" gradientUnits="userSpaceOnUse" id="gradient0" r="819.2" spreadMethod="pad">
      <stop offset="0.0" stop-color="#3c1e00"/>
      <stop offset="0.20392156862745098" stop-color="#654028"/>
      <stop offset="0.3176470588235294" stop-color="#aa8560"/>
      <stop offset="0.43137254901960786" stop-color="#744d35"/>
      <stop offset="1.0" stop-color="#482400"/>
    </radialGradient>
  </defs>
</svg>