<svg xmlns:xlink="http://www.w3.org/1999/xlink" xmlns="http://www.w3.org/2000/svg" height="119.1px" width="213.05px">
  <g transform="matrix(1.0, 0.0, 0.0, 1.0, 94.65, 81.2)">
    <g data-characterId="913" height="81.0" transform="matrix(1.0, 0.0, 0.0, 1.0, -59.45, -62.05)" width="131.6" xlink:href="#shape0"><g id="shape0" transform="matrix(1.0, 0.0, 0.0, 1.0, 59.45, 62.05)">
      <path d="M28.2 -61.55 L28.8 -61.55 37.25 -58.75 Q38.2 -58.45 38.95 -57.75 41.8 -55.15 41.35 -51.4 L40.15 -39.6 39.85 -35.3 38.85 -35.4 33.7 -31.05 31.6 -33.7 25.95 -30.5 27.4 -26.6 26.75 -26.0 25.4 -24.85 24.6 -24.25 Q21.8 -22.95 18.8 -22.3 L17.9 -22.65 17.0 -24.6 10.45 -21.7 12.7 -14.65 12.2 -13.95 8.0 -12.3 8.8 -7.55 Q9.35 -3.7 9.1 0.05 L11.65 3.65 10.0 5.6 7.4 8.4 Q6.05 9.8 4.45 10.6 L4.0 10.45 0.4 8.8 -0.8 8.35 -4.75 8.25 -5.25 9.35 -5.85 11.35 -6.25 13.4 Q-6.6 15.55 -5.8 17.45 L-11.7 16.6 -16.25 15.95 -24.45 14.3 Q-21.35 10.85 -21.05 6.25 L-21.0 4.9 -21.2 5.65 Q-22.1 6.6 -23.4 6.25 -24.45 5.9 -25.5 6.25 -27.0 6.6 -28.4 7.3 L-29.35 0.55 -26.25 -2.5 Q-25.8 -6.65 -26.45 -10.75 L-26.85 -12.95 -32.7 -14.85 -29.15 -21.65 -24.8 -21.8 Q-25.2 -23.45 -26.5 -24.85 -31.55 -30.5 -37.0 -35.95 -38.55 -41.8 -38.0 -47.75 -37.7 -51.4 -36.5 -55.0 -35.3 -54.95 -35.1 -54.0 L-33.95 -47.45 Q-33.2 -42.0 -30.2 -37.5 -28.1 -32.9 -24.5 -29.35 -22.35 -27.2 -19.9 -25.6 L-18.2 -24.55 -19.7 -22.35 Q-22.25 -17.55 -22.9 -12.15 -23.4 -8.0 -23.15 -4.0 -23.0 -1.8 -21.95 -0.2 -21.3 0.75 -20.15 0.85 -18.8 0.65 -17.8 -0.1 L-17.55 -0.3 Q-16.15 -1.25 -14.6 -0.7 L-9.25 1.85 Q-5.15 4.1 -0.4 4.0 1.85 3.75 2.5 1.55 3.8 -2.8 2.7 -7.25 1.65 -11.55 0.25 -15.7 L-2.6 -24.15 Q2.45 -24.6 7.2 -27.15 12.65 -30.1 18.05 -33.5 L26.25 -38.7 31.4 -43.1 Q35.75 -46.75 35.9 -52.3 35.9 -53.3 35.4 -54.2 L34.2 -55.6 Q30.7 -58.35 26.55 -59.25 L26.65 -59.45 28.2 -61.55 M-12.9 3.55 Q-12.9 2.6 -13.55 1.95 -14.25 1.25 -15.2 1.25 -16.15 1.25 -16.8 1.95 -17.5 2.6 -17.5 3.55 -17.5 4.5 -16.8 5.2 -16.15 5.85 -15.2 5.85 -14.25 5.85 -13.55 5.2 -12.9 4.5 -12.9 3.55 M-17.8 -0.1 Q-20.15 1.9 -20.55 4.55 -19.4 6.3 -17.65 7.3 -15.8 8.45 -15.3 10.45 -14.55 13.45 -16.25 15.95 -14.55 13.45 -15.3 10.45 -15.8 8.45 -17.65 7.3 -19.4 6.3 -20.55 4.55 -20.15 1.9 -17.8 -0.1" fill="#663333" fill-rule="evenodd" stroke="none"/>
      <path d="M-30.2 -37.5 Q-23.95 -36.7 -20.25 -31.55 L-19.95 -31.15 -19.9 -25.6 Q-22.35 -27.2 -24.5 -29.35 -28.1 -32.9 -30.2 -37.5 M-19.7 -22.35 Q-18.9 -17.2 -15.8 -12.85 -12.5 -8.1 -7.6 -4.95 -6.35 -4.15 -4.75 -4.25 -2.25 -4.75 0.15 -6.0 L2.7 -7.25 Q3.8 -2.8 2.5 1.55 1.85 3.75 -0.4 4.0 -5.15 4.1 -9.25 1.85 L-14.6 -0.7 Q-16.15 -1.25 -17.55 -0.3 L-17.8 -0.1 Q-18.8 0.65 -20.15 0.85 -21.3 0.75 -21.95 -0.2 -23.0 -1.8 -23.15 -4.0 -23.4 -8.0 -22.9 -12.15 -22.25 -17.55 -19.7 -22.35 M26.25 -38.7 L26.15 -42.7 26.2 -51.0 26.55 -59.25 Q30.7 -58.35 34.2 -55.6 L35.4 -54.2 Q35.9 -53.3 35.9 -52.3 35.75 -46.75 31.4 -43.1 L26.25 -38.7 M-12.9 3.55 Q-12.9 4.5 -13.55 5.2 -14.25 5.85 -15.2 5.85 -16.15 5.85 -16.8 5.2 -17.5 4.5 -17.5 3.55 -17.5 2.6 -16.8 1.95 -16.15 1.25 -15.2 1.25 -14.25 1.25 -13.55 1.95 -12.9 2.6 -12.9 3.55" fill="#3d2312" fill-rule="evenodd" stroke="none"/>
      <path d="M39.85 -35.3 L39.55 -23.35 Q39.45 -18.65 40.25 -14.15 L49.7 -11.65 59.9 -9.1 64.7 -7.15 67.65 -4.85 68.95 -2.85 71.65 3.25 70.55 4.25 69.4 5.05 Q64.95 7.25 60.6 9.5 55.3 12.15 49.5 13.55 L38.7 16.15 29.85 17.55 21.55 18.3 13.05 18.45 3.35 18.1 -5.8 17.45 Q-6.6 15.55 -6.25 13.4 L-5.85 11.35 -5.25 9.35 -4.75 8.25 -0.8 8.35 0.4 8.8 4.0 10.45 4.45 10.6 Q6.05 9.8 7.4 8.4 L10.0 5.6 11.65 3.65 9.1 0.05 Q9.35 -3.7 8.8 -7.55 L8.0 -12.3 12.2 -13.95 12.7 -14.65 10.45 -21.7 17.0 -24.6 17.9 -22.65 18.8 -22.3 Q21.8 -22.95 24.6 -24.25 L25.4 -24.85 26.75 -26.0 27.4 -26.6 25.95 -30.5 31.6 -33.7 33.7 -31.05 38.85 -35.4 39.85 -35.3 M-24.45 14.3 L-29.35 13.45 -40.0 12.3 -49.5 11.35 -57.9 10.15 -57.85 9.8 -58.95 -0.7 Q-54.95 -3.0 -50.75 -4.7 -46.05 -6.6 -42.05 -9.55 -39.6 -11.3 -38.3 -13.85 -36.05 -18.15 -34.5 -22.85 L-37.0 -35.95 Q-31.55 -30.5 -26.5 -24.85 -25.2 -23.45 -24.8 -21.8 L-29.15 -21.65 -32.7 -14.85 -26.85 -12.95 -26.45 -10.75 Q-25.8 -6.65 -26.25 -2.5 L-29.35 0.55 -28.4 7.3 Q-27.0 6.6 -25.5 6.25 -24.45 5.9 -23.4 6.25 -22.1 6.6 -21.2 5.65 L-21.0 4.9 -21.05 6.25 Q-21.35 10.85 -24.45 14.3 M40.25 -14.15 L36.3 -14.95 40.25 -14.15 M14.7 -1.7 L19.95 -3.0 26.55 -5.2 Q31.45 -7.25 35.7 -10.65 31.45 -7.25 26.55 -5.2 L19.95 -3.0 14.7 -1.7 M-38.7 -9.35 L-37.95 -8.1 Q-36.5 -5.7 -34.1 -4.2 -36.5 -5.7 -37.95 -8.1 L-38.7 -9.35 M-57.3 9.5 L-57.85 9.8 -57.3 9.5" fill="#845125" fill-rule="evenodd" stroke="none"/>
      <path d="M28.8 -61.55 L37.25 -58.75 Q38.2 -58.45 38.95 -57.75 41.8 -55.15 41.35 -51.4 L40.15 -39.6 39.85 -35.3 39.55 -23.35 Q39.45 -18.65 40.25 -14.15 L49.7 -11.65 59.9 -9.1 64.7 -7.15 67.65 -4.85 68.95 -2.85 71.65 3.25 70.55 4.25 69.4 5.05 Q64.95 7.25 60.6 9.5 55.3 12.15 49.5 13.55 L38.7 16.15 29.85 17.55 21.55 18.3 13.05 18.45 3.35 18.1 -5.8 17.45 -11.7 16.6 -16.25 15.95 -24.45 14.3 -29.35 13.45 -40.0 12.3 -49.5 11.35 -57.9 10.15 -58.45 10.05 -57.85 9.8 -58.95 -0.7 Q-54.95 -3.0 -50.75 -4.7 -46.05 -6.6 -42.05 -9.55 -39.6 -11.3 -38.3 -13.85 -36.05 -18.15 -34.5 -22.85 L-37.0 -35.95 Q-38.55 -41.8 -38.0 -47.75 -37.7 -51.4 -36.5 -55.0 -35.3 -54.95 -35.1 -54.0 L-33.95 -47.45 Q-33.2 -42.0 -30.2 -37.5 -23.95 -36.7 -20.25 -31.55 L-19.95 -31.15 -19.9 -25.6 -18.2 -24.55 -19.7 -22.35 Q-18.9 -17.2 -15.8 -12.85 -12.5 -8.1 -7.6 -4.95 -6.35 -4.15 -4.75 -4.25 -2.25 -4.75 0.15 -6.0 L2.7 -7.25 Q1.65 -11.55 0.25 -15.7 L-2.6 -24.15 Q2.45 -24.6 7.2 -27.15 12.65 -30.1 18.05 -33.5 L26.25 -38.7 26.15 -42.7 26.2 -51.0 26.55 -59.25 26.65 -59.45 28.2 -61.55 M26.55 -59.25 Q30.7 -58.35 34.2 -55.6 L35.4 -54.2 Q35.9 -53.3 35.9 -52.3 35.75 -46.75 31.4 -43.1 L26.25 -38.7 M38.85 -35.4 L33.7 -31.05 31.6 -33.7 25.95 -30.5 27.4 -26.6 26.75 -26.0 25.4 -24.85 24.6 -24.25 Q21.8 -22.95 18.8 -22.3 L17.9 -22.65 17.0 -24.6 10.45 -21.7 12.7 -14.65 12.2 -13.95 8.0 -12.3 8.8 -7.55 Q9.35 -3.7 9.1 0.05 L11.65 3.65 10.0 5.6 7.4 8.4 Q6.05 9.8 4.45 10.6 L4.0 10.45 0.4 8.8 -0.8 8.35 -4.75 8.25 -5.25 9.35 -5.85 11.35 -6.25 13.4 Q-6.6 15.55 -5.8 17.45 M35.7 -10.65 Q31.45 -7.25 26.55 -5.2 L19.95 -3.0 14.7 -1.7 M36.3 -14.95 L40.25 -14.15 M-19.7 -22.35 Q-22.25 -17.55 -22.9 -12.15 -23.4 -8.0 -23.15 -4.0 -23.0 -1.8 -21.95 -0.2 -21.3 0.75 -20.15 0.85 -18.8 0.65 -17.8 -0.1 L-17.55 -0.3 Q-16.15 -1.25 -14.6 -0.7 L-9.25 1.85 Q-5.15 4.1 -0.4 4.0 1.85 3.75 2.5 1.55 3.8 -2.8 2.7 -7.25 M-30.2 -37.5 Q-28.1 -32.9 -24.5 -29.35 -22.35 -27.2 -19.9 -25.6 M-37.0 -35.95 Q-31.55 -30.5 -26.5 -24.85 -25.2 -23.45 -24.8 -21.8 L-29.15 -21.65 -32.7 -14.85 -26.85 -12.95 -26.45 -10.75 Q-25.8 -6.65 -26.25 -2.5 L-29.35 0.55 -28.4 7.3 Q-27.0 6.6 -25.5 6.25 -24.45 5.9 -23.4 6.25 -22.1 6.6 -21.2 5.65 L-21.0 4.9 -21.05 6.25 Q-21.35 10.85 -24.45 14.3 M-34.1 -4.2 Q-36.5 -5.7 -37.95 -8.1 L-38.7 -9.35 M-12.9 3.55 Q-12.9 2.6 -13.55 1.95 -14.25 1.25 -15.2 1.25 -16.15 1.25 -16.8 1.95 -17.5 2.6 -17.5 3.55 -17.5 4.5 -16.8 5.2 -16.15 5.85 -15.2 5.85 -14.25 5.85 -13.55 5.2 -12.9 4.5 -12.9 3.55 M-16.25 15.95 Q-14.55 13.45 -15.3 10.45 -15.8 8.45 -17.65 7.3 -19.4 6.3 -20.55 4.55 -20.15 1.9 -17.8 -0.1 M-57.85 9.8 L-57.3 9.5" fill="none" stroke="#000000" stroke-linecap="round" stroke-linejoin="round" stroke-width="2.0"/>
    </g>
  </g>
  </g>
  <defs>
    </defs>
</svg>