<svg xmlns:xlink="http://www.w3.org/1999/xlink" xmlns="http://www.w3.org/2000/svg" height="119.1px" width="213.05px">
  <g transform="matrix(1.0, 0.0, 0.0, 1.0, 94.65, 81.2)">
    <g data-characterId="941" height="55.8" transform="matrix(1.0, 0.0, 0.0, 1.0, -62.35, -36.85)" width="139.9" xlink:href="#shape0"><g id="shape0" transform="matrix(1.0, 0.0, 0.0, 1.0, 62.35, 36.85)">
      <path d="M-0.85 -6.0 Q6.85 -9.65 14.85 -12.65 26.05 -16.75 28.3 -28.0 L26.7 -36.35 Q29.2 -35.65 31.6 -34.35 42.2 -29.0 46.6 -17.95 46.6 -17.6 46.75 -17.3 46.85 -17.05 47.05 -17.05 L48.1 -14.9 Q48.35 -13.65 45.3 -7.2 42.2 -0.8 16.25 15.6 15.15 14.5 14.7 13.2 10.6 1.2 -0.85 -6.0 M-13.8 -6.3 Q-22.65 -4.7 -28.15 -1.4 -33.65 1.9 -37.5 5.8 -40.15 -2.2 -41.0 -7.8 -41.7 -12.4 -40.8 -13.35 -34.6 -27.9 -22.35 -30.15 L-20.0 -30.5 Q-23.5 -18.2 -15.15 -8.05 L-13.8 -6.3" fill="#d0c18e" fill-rule="evenodd" stroke="none"/>
      <path d="M-0.85 -6.0 Q10.6 1.2 14.7 13.2 15.15 14.5 16.25 15.6 42.2 -0.8 45.3 -7.2 48.35 -13.65 48.1 -14.9 L47.05 -17.05 Q58.65 -13.3 66.9 -4.15 73.9 3.7 77.05 13.6 73.6 16.65 69.65 18.45 L-61.8 18.45 -61.85 13.15 Q-62.0 5.05 -55.95 -0.75 -49.9 -6.55 -40.8 -13.35 -41.7 -12.4 -41.0 -7.8 -40.15 -2.2 -37.5 5.8 -33.65 1.9 -28.15 -1.4 -22.65 -4.7 -13.8 -6.3 L-10.8 -3.1 -9.1 -1.6 -8.05 -2.45 -0.85 -6.0" fill="#27160c" fill-rule="evenodd" stroke="none"/>
      <path d="M47.05 -17.05 Q46.85 -17.05 46.75 -17.3 46.6 -17.6 46.6 -17.95 42.2 -29.0 31.6 -34.35 29.2 -35.65 26.7 -36.35 L28.3 -28.0 Q26.05 -16.75 14.85 -12.65 6.85 -9.65 -0.85 -6.0 10.6 1.2 14.7 13.2 15.15 14.5 16.25 15.6 42.2 -0.8 45.3 -7.2 48.35 -13.65 48.1 -14.9 L47.05 -17.05 46.6 -17.95 M69.65 18.45 Q73.6 16.65 77.05 13.6 73.9 3.7 66.9 -4.15 58.65 -13.3 47.05 -17.05 M-13.8 -6.3 Q-22.65 -4.7 -28.15 -1.4 -33.65 1.9 -37.5 5.8 -40.15 -2.2 -41.0 -7.8 -41.7 -12.4 -40.8 -13.35 -49.9 -6.55 -55.95 -0.75 -62.0 5.05 -61.85 13.15 L-61.8 18.45 M-0.85 -6.0 L-8.05 -2.45 -9.1 -1.6 -10.8 -3.1 -13.8 -6.3 -15.15 -8.05 Q-23.5 -18.2 -20.0 -30.5 L-22.35 -30.15 Q-34.6 -27.9 -40.8 -13.35" fill="none" stroke="#000000" stroke-linecap="round" stroke-linejoin="round" stroke-width="2.0"/>
    </g>
  </g>
  </g>
  <defs>
    </defs>
</svg>