<svg xmlns:xlink="http://www.w3.org/1999/xlink" xmlns="http://www.w3.org/2000/svg" height="141.1px" width="125.05px">
  <g transform="matrix(1.0, 0.0, 0.0, 1.0, 48.6, 54.85)">
    <g data-characterId="988" height="119.45" transform="matrix(1.0, 0.0, 0.0, 1.0, -46.8, -52.65)" width="86.6" xlink:href="#shape0"><g id="shape0" transform="matrix(1.0, 0.0, 0.0, 1.0, 46.8, 52.65)">
      <path d="M8.9 -0.5 Q10.65 -2.7 10.65 -4.15 10.65 -11.4 -1.05 -10.35 -5.45 -9.95 -9.1 -8.5 -12.75 -7.0 -12.75 -5.65 -12.75 -4.4 -11.45 -2.8 -10.4 -0.3 -8.25 2.55 -4.95 6.9 -2.55 6.9 L-2.0 6.75 -1.95 6.45 -7.25 0.75 Q-3.55 2.85 1.45 2.85 6.25 2.85 8.9 -0.5 M0.35 -29.6 Q0.3 -28.05 1.7 -28.05 2.35 -28.05 2.85 -28.7 L3.3 -29.7 Q3.3 -30.65 1.85 -30.85 0.35 -31.0 0.35 -29.6 M25.55 11.75 Q26.5 12.75 27.65 12.95 L29.05 14.65 Q30.1 15.75 31.55 15.8 L33.75 14.5 33.75 11.95 Q33.6 10.75 36.15 0.95 38.7 -8.9 29.75 -12.0 L28.7 -11.7 Q24.9 -10.3 24.55 -6.25 24.9 -10.3 28.7 -11.7 L29.75 -12.0 Q38.7 -8.9 36.15 0.95 33.6 10.75 33.75 11.95 L33.75 14.5 31.55 15.8 Q30.1 15.75 29.05 14.65 L27.65 12.95 Q26.5 12.75 25.55 11.75 M26.45 -2.15 Q27.1 -2.6 27.6 -3.2 L28.55 -4.6 Q29.15 -6.05 30.0 -5.8 L32.75 -4.9 Q34.6 -4.3 32.3 5.8 34.6 -4.3 32.75 -4.9 L30.0 -5.8 Q29.15 -6.05 28.55 -4.6 L27.6 -3.2 Q27.1 -2.6 26.45 -2.15 M-44.45 19.05 L-43.55 14.3 Q-42.6 10.6 -40.95 6.9 -36.85 -2.3 -37.1 -4.75 -37.85 -11.4 -37.0 -18.1 -35.05 -33.2 -24.4 -43.5 -14.3 -53.4 0.35 -51.95 14.3 -50.65 25.3 -41.45 36.8 -31.8 38.45 -17.6 40.1 -3.4 38.6 6.8 L37.2 15.2 37.15 15.25 37.1 15.6 37.3 15.55 Q36.4 20.0 35.95 23.55 38.75 29.9 37.8 36.65 37.45 39.3 36.5 42.0 35.85 43.95 33.75 44.8 32.25 51.8 27.85 54.85 L27.6 55.0 25.5 56.05 Q19.05 58.55 10.85 63.25 2.6 67.95 -15.55 65.4 -33.7 62.85 -39.15 47.65 -40.4 44.1 -40.6 40.45 L-40.6 38.75 Q-44.4 34.9 -44.75 25.5 L-44.7 22.0 -43.8 21.3 -43.5 20.4 Q-43.5 19.3 -44.45 19.05 M29.45 1.35 L29.45 4.35 29.45 1.35 M-33.95 43.75 Q-37.25 42.95 -39.35 40.35 L-40.6 38.75 -39.35 40.35 Q-37.25 42.95 -33.95 43.75 M30.8 15.5 L30.6 15.45 30.75 15.55 30.8 15.5 M35.95 23.55 L35.2 22.05 35.95 23.55 M19.7 26.1 L19.8 26.6 Q20.1 27.45 21.0 27.45 21.4 27.45 21.8 27.15 22.25 26.8 22.25 26.15 22.25 24.8 21.0 24.8 19.7 24.85 19.7 26.1 M9.6 21.6 L9.65 22.45 Q9.95 23.45 11.25 23.45 12.25 23.45 12.8 22.8 13.2 22.35 13.2 21.85 13.2 20.15 11.4 20.0 9.6 19.8 9.6 21.6 M29.35 46.9 L33.75 44.8 29.35 46.9 M22.75 42.75 L21.65 43.1 Q13.0 44.95 6.35 39.55 13.0 44.95 21.65 43.1 L22.75 42.75 M-36.2 -4.95 L-36.25 -4.65 Q-36.4 -3.75 -35.9 -2.85 -34.7 -0.9 -30.35 -0.75 -31.5 0.1 -31.5 0.9 L-31.4 1.35 -30.6 1.55 -27.3 1.7 Q-26.2 1.7 -25.5 0.8 -24.95 0.1 -24.95 -0.45 -24.95 -0.8 -25.3 -1.3 L-25.35 -1.35 Q-24.35 -1.7 -23.8 -2.3 -23.1 -3.1 -23.1 -4.7 -23.1 -5.8 -25.05 -7.2 L-25.15 -7.3 Q-27.2 -8.7 -29.65 -9.3 -36.2 -10.85 -36.2 -4.95 M-27.15 8.65 L-27.2 8.65 Q-27.25 6.1 -24.3 1.65 L-23.85 0.95 Q-20.3 -4.2 -21.25 -5.85 -22.2 -7.5 -24.2 -8.2 -22.2 -7.5 -21.25 -5.85 -20.3 -4.2 -23.85 0.95 L-24.3 1.65 Q-27.25 6.1 -27.2 8.65 L-27.15 8.65 -27.2 8.85 Q-32.55 18.55 -21.55 19.85 L-18.85 19.35 -18.4 19.0 -18.35 18.15 -18.7 17.55 -17.8 16.85 -16.95 16.75 Q-14.8 16.5 -13.8 17.7 L-13.5 17.3 -12.05 14.1 -13.2 12.95 Q-15.95 6.3 -22.5 7.9 -23.1 8.0 -23.6 8.35 L-24.55 9.25 Q-25.55 8.65 -27.15 8.65 M-27.2 8.65 L-27.2 8.85 -27.2 8.65 M-19.55 4.8 Q-19.05 4.3 -19.05 3.6 -19.05 1.8 -20.9 1.8 -22.8 1.85 -22.8 3.6 -22.7 5.4 -21.0 5.4 -20.15 5.4 -19.55 4.8 M-7.55 -23.05 Q-7.1 -22.2 -5.9 -22.2 -4.9 -22.2 -4.35 -23.1 -3.95 -23.7 -3.95 -24.15 -3.95 -26.1 -5.9 -26.1 -7.85 -26.05 -7.85 -24.15 L-7.55 -23.05 M-9.15 23.55 L-8.9 24.15 -9.15 23.55 M-14.05 23.25 L-13.2 24.45 -14.05 23.25 M-12.65 13.0 L-11.65 13.55 Q-8.85 15.15 -9.3 16.75 -9.85 18.55 -11.4 19.8 -9.85 18.55 -9.3 16.75 -8.85 15.15 -11.65 13.55 L-12.65 13.0 M-39.65 15.5 Q-39.2 14.9 -39.2 14.45 -39.2 12.45 -41.05 12.55 -42.95 12.65 -42.95 14.4 L-42.65 15.35 Q-42.15 16.25 -41.1 16.25 -40.2 16.25 -39.65 15.5 M-29.6 23.55 L-29.6 25.3 -29.6 23.55 M-8.9 45.7 L-9.1 45.15 Q-5.8 44.15 -2.55 41.7 -5.8 44.15 -9.1 45.15 L-8.9 45.7 M-10.35 44.0 Q-9.4 44.0 -9.1 45.15 -12.85 46.3 -16.65 45.65 L-17.25 44.55 -16.65 45.65 Q-12.85 46.3 -9.1 45.15 -9.4 44.0 -10.35 44.0 M-3.1 25.2 Q-2.65 25.4 -2.55 25.85 -2.65 25.4 -3.1 25.2 M-23.15 43.1 L-21.85 42.0 -23.15 43.1 Q-19.9 45.0 -16.65 45.65 -16.3 46.65 -16.4 48.0 -16.3 46.65 -16.65 45.65 -19.9 45.0 -23.15 43.1 L-23.25 43.05 -25.6 41.5 -26.8 40.5 -25.6 41.5 -23.25 43.05 -23.15 43.1 M-20.9 22.2 L-21.55 24.15 -20.9 22.2 M-23.6 22.7 Q-23.75 23.5 -24.15 24.15 -23.75 23.5 -23.6 22.7 M-30.8 17.25 L-31.95 15.85 -31.95 15.55 Q-31.85 14.5 -31.4 14.1 -31.85 14.5 -31.95 15.55 L-31.95 15.85 -30.8 17.25" fill="url(#gradient0)" fill-rule="evenodd" stroke="none"/>
      <path d="M0.35 -29.6 Q0.35 -31.0 1.85 -30.85 3.3 -30.65 3.3 -29.7 L2.85 -28.7 Q2.35 -28.05 1.7 -28.05 0.3 -28.05 0.35 -29.6 M8.9 -0.5 Q6.25 2.85 1.45 2.85 -3.55 2.85 -7.25 0.75 L-1.95 6.45 -2.0 6.75 -2.55 6.9 Q-4.95 6.9 -8.25 2.55 -10.4 -0.3 -11.45 -2.8 -12.75 -4.4 -12.75 -5.65 -12.75 -7.0 -9.1 -8.5 -5.45 -9.95 -1.05 -10.35 10.65 -11.4 10.65 -4.15 10.65 -2.7 8.9 -0.5 M-44.45 19.05 Q-43.5 19.3 -43.5 20.4 L-43.8 21.3 -44.7 22.0 -45.15 22.05 Q-46.75 22.05 -46.8 20.4 -46.8 18.95 -45.15 18.95 L-44.45 19.05 M9.6 21.6 Q9.6 19.8 11.4 20.0 13.2 20.15 13.2 21.85 13.2 22.35 12.8 22.8 12.25 23.45 11.25 23.45 9.95 23.45 9.65 22.45 L9.6 21.6 M19.7 26.1 Q19.7 24.85 21.0 24.8 22.25 24.8 22.25 26.15 22.25 26.8 21.8 27.15 21.4 27.45 21.0 27.45 20.1 27.45 19.8 26.6 L19.7 26.1 M-36.2 -4.95 Q-36.2 -10.85 -29.65 -9.3 -27.2 -8.7 -25.15 -7.3 L-25.05 -7.2 Q-23.1 -5.8 -23.1 -4.7 -23.1 -3.1 -23.8 -2.3 -24.35 -1.7 -25.35 -1.35 L-25.3 -1.3 Q-24.95 -0.8 -24.95 -0.45 -24.95 0.1 -25.5 0.8 -26.2 1.7 -27.3 1.7 L-30.6 1.55 -31.4 1.35 -31.5 0.9 Q-31.5 0.1 -30.35 -0.75 -34.7 -0.9 -35.9 -2.85 -36.4 -3.75 -36.25 -4.65 L-36.2 -4.95 M-7.55 -23.05 L-7.85 -24.15 Q-7.85 -26.05 -5.9 -26.1 -3.95 -26.1 -3.95 -24.15 -3.95 -23.7 -4.35 -23.1 -4.9 -22.2 -5.9 -22.2 -7.1 -22.2 -7.55 -23.05 M-19.55 4.8 Q-20.15 5.4 -21.0 5.4 -22.7 5.4 -22.8 3.6 -22.8 1.85 -20.9 1.8 -19.05 1.8 -19.05 3.6 -19.05 4.3 -19.55 4.8 M-39.65 15.5 Q-40.2 16.25 -41.1 16.25 -42.15 16.25 -42.65 15.35 L-42.95 14.4 Q-42.95 12.65 -41.05 12.55 -39.2 12.45 -39.2 14.45 -39.2 14.9 -39.65 15.5" fill="#e6b380" fill-rule="evenodd" stroke="none"/>
      <path d="M-27.15 8.65 Q-25.55 8.65 -24.55 9.25 L-23.6 8.35 Q-23.1 8.0 -22.5 7.9 -15.95 6.3 -13.2 12.95 L-12.05 14.1 -13.5 17.3 -13.8 17.7 Q-14.8 16.5 -16.95 16.75 L-17.8 16.85 -18.7 17.55 -18.35 18.15 -18.4 19.0 -18.85 19.35 -21.55 19.85 Q-32.55 18.55 -27.2 8.85 L-27.15 8.65" fill="url(#gradient1)" fill-rule="evenodd" stroke="none"/>
      <path d="M32.3 5.8 Q34.6 -4.3 32.75 -4.9 L30.0 -5.8 Q29.15 -6.05 28.55 -4.6 L27.6 -3.2 Q27.1 -2.6 26.45 -2.15 M24.55 -6.25 Q24.9 -10.3 28.7 -11.7 L29.75 -12.0 Q38.7 -8.9 36.15 0.95 33.6 10.75 33.75 11.95 L33.75 14.5 31.55 15.8 Q30.1 15.75 29.05 14.65 L27.65 12.95 Q26.5 12.75 25.55 11.75 M37.1 15.6 L37.15 15.25 37.2 15.2 38.6 6.8 Q40.1 -3.4 38.45 -17.6 36.8 -31.8 25.3 -41.45 14.3 -50.65 0.35 -51.95 -14.3 -53.4 -24.4 -43.5 -35.05 -33.2 -37.0 -18.1 -37.85 -11.4 -37.1 -4.75 -36.85 -2.3 -40.95 6.9 -42.6 10.6 -43.55 14.3 L-44.45 19.05 M-44.7 22.0 L-44.75 25.5 Q-44.4 34.9 -40.6 38.75 L-39.35 40.35 Q-37.25 42.95 -33.95 43.75 M29.45 4.35 L29.45 1.35 M37.2 15.2 L37.2 15.25 37.3 15.55 Q36.4 20.0 35.95 23.55 38.75 29.9 37.8 36.65 37.45 39.3 36.5 42.0 35.85 43.95 33.75 44.8 32.25 51.8 27.85 54.85 L27.6 55.0 25.5 56.05 Q19.05 58.55 10.85 63.25 2.6 67.95 -15.55 65.4 -33.7 62.85 -39.15 47.65 -40.4 44.1 -40.6 40.45 L-40.6 38.75 M35.2 22.05 L35.95 23.55 M6.35 39.55 Q13.0 44.95 21.65 43.1 L22.75 42.75 M33.75 44.8 L29.35 46.9 M-24.2 -8.2 Q-22.2 -7.5 -21.25 -5.85 -20.3 -4.2 -23.85 0.95 L-24.3 1.65 Q-27.25 6.1 -27.2 8.65 L-27.15 8.65 Q-25.55 8.65 -24.55 9.25 M-13.8 17.7 Q-14.8 16.5 -16.95 16.75 L-17.8 16.85 M-18.85 19.35 L-21.55 19.85 Q-32.55 18.55 -27.2 8.85 L-27.2 8.65 M-11.4 19.8 Q-9.85 18.55 -9.3 16.75 -8.85 15.15 -11.65 13.55 L-12.65 13.0 M-13.2 24.45 L-14.05 23.25 M-8.9 24.15 L-9.15 23.55 M-31.4 14.1 Q-31.85 14.5 -31.95 15.55 L-31.95 15.85 -30.8 17.25 M-24.15 24.15 Q-23.75 23.5 -23.6 22.7 M-21.55 24.15 L-20.9 22.2 M-16.4 48.0 Q-16.3 46.65 -16.65 45.65 -19.9 45.0 -23.15 43.1 L-23.25 43.05 -25.6 41.5 -26.8 40.5 M-21.85 42.0 L-23.15 43.1 M-2.55 25.85 Q-2.65 25.4 -3.1 25.2 M-17.25 44.55 L-16.65 45.65 Q-12.85 46.3 -9.1 45.15 -9.4 44.0 -10.35 44.0 M-2.55 41.7 Q-5.8 44.15 -9.1 45.15 L-8.9 45.7 M-29.6 25.3 L-29.6 23.55" fill="none" stroke="#000000" stroke-linecap="round" stroke-linejoin="round" stroke-width="2.0"/>
    </g>
    </g>
  </g>
  <defs>
    <radialGradient cx="0" cy="0" gradientTransform="matrix(0.0543, 0.0, 0.0, 0.0824, -20.0, -3.0)" gradientUnits="userSpaceOnUse" id="gradient0" r="819.2" spreadMethod="pad">
      <stop offset="0.0" stop-color="#f1d0b1"/>
      <stop offset="0.6274509803921569" stop-color="#ecc59d"/>
      <stop offset="1.0" stop-color="#e9bb8f"/>
    </radialGradient>
    <radialGradient cx="0" cy="0" gradientTransform="matrix(0.0162, 0.0, 0.0, 0.0109, -24.75, 15.25)" gradientUnits="userSpaceOnUse" id="gradient1" r="819.2" spreadMethod="pad">
      <stop offset="0.0" stop-color="#fa7474"/>
      <stop offset="0.6274509803921569" stop-color="#ecc59d"/>
      <stop offset="1.0" stop-color="#e9bb8f"/>
    </radialGradient>
  </defs>
</svg>