<svg xmlns:xlink="http://www.w3.org/1999/xlink" xmlns="http://www.w3.org/2000/svg" height="264.15px" width="342.25px">
  <g transform="matrix(1.0, 0.0, 0.0, 1.0, 243.25, 83.7)">
    <g data-characterId="1139" height="124.1" transform="matrix(1.0, 0.0, 0.0, 1.0, -49.4, -66.05)" width="137.65" xlink:href="#shape0"><g id="shape0" transform="matrix(1.0, 0.0, 0.0, 1.0, 49.4, 66.05)">
      <path d="M-33.6 9.2 Q-35.45 18.65 -41.9 26.25 -38.55 20.05 -40.55 13.15 L-41.75 8.85 Q-42.6 5.65 -42.35 2.3 -45.2 4.1 -46.4 6.8 -46.8 7.75 -47.9 7.8 -49.3 4.2 -48.7 0.1 -48.15 -3.7 -46.7 -7.2 -45.3 -10.5 -43.2 -13.35 -40.9 -16.35 -38.85 -19.5 -37.9 -20.9 -37.85 -22.6 -37.7 -25.75 -37.8 -28.95 -37.9 -32.35 -35.55 -34.85 -26.95 -44.2 -14.2 -46.75 L-4.8 -48.3 Q3.55 -48.1 11.5 -44.8 14.95 -43.3 18.2 -41.5 20.0 -40.5 22.0 -40.9 L22.1 -44.65 Q27.4 -41.9 28.55 -35.9 L29.0 -35.0 Q30.95 -36.5 33.5 -35.7 L34.05 -35.45 31.75 -33.15 Q35.9 -34.1 39.5 -31.55 41.85 -29.9 41.9 -27.15 L35.9 -29.95 Q37.35 -26.4 40.65 -24.7 43.1 -23.4 43.9 -20.95 L44.9 -17.8 46.0 -13.35 Q43.3 -14.4 42.35 -17.05 43.15 -12.35 45.1 -8.15 L46.75 -4.7 Q48.45 -1.4 48.75 2.2 L49.15 7.15 49.5 10.5 Q49.75 12.05 49.15 13.55 48.55 15.2 47.4 16.55 L46.0 6.9 Q46.15 11.75 45.85 16.45 L45.55 19.65 Q45.45 20.85 44.8 21.8 42.75 24.65 45.45 27.1 46.35 27.9 46.6 29.0 48.3 36.3 53.15 41.7 L54.3 42.35 Q51.9 43.45 49.1 42.1 46.1 40.7 43.45 38.75 46.65 42.3 46.9 46.9 47.0 49.4 46.35 51.85 45.7 54.15 44.2 56.15 44.85 51.3 41.65 48.0 L39.6 46.5 Q41.95 50.45 39.15 54.5 L36.8 57.55 Q39.5 53.6 37.25 49.55 L34.8 45.1 Q32.35 40.4 33.2 35.25 33.5 33.3 33.1 31.35 L32.6 28.9 Q32.2 26.5 33.45 24.3 L35.75 19.75 36.25 18.4 Q36.55 17.45 36.05 16.45 35.55 15.35 35.35 14.2 L33.3 2.7 33.05 2.05 Q30.6 1.75 28.95 3.3 L27.45 5.3 Q27.7 8.0 26.65 10.35 25.2 13.5 24.85 17.0 L22.4 11.35 21.55 9.8 Q19.6 7.35 19.65 4.0 L19.75 -3.95 Q19.75 -6.1 21.05 -7.95 22.45 -9.8 22.55 -11.95 L20.95 -11.75 20.5 -11.95 19.8 -14.75 17.05 -10.15 Q17.75 -13.4 14.6 -14.85 14.05 -15.15 13.7 -15.7 13.15 -16.7 13.1 -17.9 L12.9 -21.2 Q10.5 -20.75 9.65 -18.65 L7.5 -12.7 5.5 -6.9 Q5.1 -10.0 5.6 -13.05 L6.25 -15.9 6.15 -16.65 Q5.1 -19.0 5.8 -21.5 L6.45 -23.7 6.5 -24.25 3.35 -26.1 Q1.85 -26.8 0.1 -26.85 -1.3 -26.25 -3.1 -26.3 L-6.15 -26.0 -9.2 -26.25 Q-9.8 -22.35 -12.2 -19.1 -13.05 -18.0 -13.5 -16.65 -14.4 -13.95 -14.25 -11.05 -16.05 -15.7 -13.95 -19.95 L-13.2 -21.25 Q-12.7 -22.05 -12.4 -23.0 -11.85 -24.75 -11.7 -26.35 -11.65 -26.75 -11.95 -27.15 L-13.15 -25.6 Q-18.55 -25.35 -22.2 -21.4 -25.25 -18.1 -26.15 -13.75 L-27.0 -8.25 Q-27.55 -3.05 -31.05 0.9 -30.05 -1.25 -30.8 -3.55 L-31.3 -5.05 Q-32.95 -2.5 -32.8 0.45 L-32.75 1.0 -32.3 8.4 -33.6 9.2 M31.3 -22.55 L30.2 -23.7 26.7 -25.85 21.5 -28.2 Q17.05 -29.85 14.25 -25.8 17.05 -29.85 21.5 -28.2 L26.7 -25.85 30.2 -23.7 31.3 -22.55 M30.85 -27.15 L26.0 -30.4 Q23.95 -31.55 21.7 -32.35 L21.15 -32.7 21.7 -32.35 Q23.95 -31.55 26.0 -30.4 L30.85 -27.15 M19.35 -40.5 L20.85 -38.95 Q21.65 -37.75 22.1 -36.35 21.65 -37.75 20.85 -38.95 L19.35 -40.5 M-6.9 -40.95 L-0.7 -40.45 Q2.55 -39.6 5.0 -37.25 6.4 -35.95 5.85 -34.6 L5.5 -34.05 5.85 -34.6 Q6.4 -35.95 5.0 -37.25 2.55 -39.6 -0.7 -40.45 L-6.9 -40.95 M19.35 -31.3 L16.55 -31.45 12.0 -31.1 11.05 -31.05 Q9.3 -30.95 9.65 -29.45 9.3 -30.95 11.05 -31.05 L12.0 -31.1 Q11.8 -33.75 10.15 -35.95 L9.2 -37.3 10.15 -35.95 Q11.8 -33.75 12.0 -31.1 L16.55 -31.45 19.35 -31.3 M17.05 -34.55 L17.35 -35.0 17.5 -34.55 17.35 -35.0 17.05 -34.55 M20.25 -36.85 Q19.1 -36.6 18.2 -35.95 L17.35 -35.0 16.6 -36.9 16.1 -38.65 16.6 -36.9 17.35 -35.0 18.2 -35.95 Q19.1 -36.6 20.25 -36.85 M8.75 -29.95 Q8.4 -31.65 7.0 -33.25 L5.85 -34.6 7.0 -33.25 Q8.4 -31.65 8.75 -29.95 M-37.75 -18.4 Q-38.65 -23.2 -35.05 -26.35 -33.85 -27.4 -33.4 -28.8 -31.45 -34.8 -26.6 -39.0 -25.1 -40.3 -23.3 -41.0 -17.35 -43.4 -11.05 -44.7 -2.45 -46.45 5.55 -43.4 9.25 -42.0 10.6 -38.65 9.25 -42.0 5.55 -43.4 -2.45 -46.45 -11.05 -44.7 -17.35 -43.4 -23.3 -41.0 -25.1 -40.3 -26.6 -39.0 -31.45 -34.8 -33.4 -28.8 -33.85 -27.4 -35.05 -26.35 -38.65 -23.2 -37.75 -18.4 M33.15 -5.55 Q31.55 -8.3 30.55 -11.25 29.45 -14.5 28.6 -17.85 27.85 -20.95 25.3 -22.1 27.85 -20.95 28.6 -17.85 29.45 -14.5 30.55 -11.25 31.55 -8.3 33.15 -5.55 M30.85 -1.85 L29.5 -7.35 Q28.55 -11.25 27.15 -15.05 L26.25 -16.1 27.15 -15.05 Q28.55 -11.25 29.5 -7.35 L30.85 -1.85 M26.7 0.9 Q21.2 -6.55 23.45 -15.65 23.95 -17.5 23.95 -18.85 L23.45 -18.4 23.95 -18.85 Q23.95 -17.5 23.45 -15.65 21.2 -6.55 26.7 0.9 M40.05 1.35 L39.75 -2.25 36.8 -17.5 39.75 -2.25 40.05 1.35 M29.45 1.35 L27.2 -1.0 Q25.25 -3.2 25.75 -6.0 25.25 -3.2 27.2 -1.0 L29.45 1.35 M-26.7 -31.75 Q-28.55 -29.45 -30.0 -26.9 -31.55 -24.15 -32.3 -21.1 L-32.25 -19.8 -32.3 -21.1 Q-31.55 -24.15 -30.0 -26.9 -28.55 -29.45 -26.7 -31.75 M-19.8 -38.65 L-21.5 -37.6 -22.1 -36.85 -21.5 -37.6 -19.8 -38.65 M-5.55 -34.05 L-4.6 -34.05 -1.4 -34.05 -4.6 -34.05 -5.55 -34.05 M-12.45 -35.9 L-15.15 -35.7 Q-19.8 -34.95 -23.0 -31.75 -19.8 -34.95 -15.15 -35.7 L-12.45 -35.9 M-44.2 -0.45 Q-43.75 -2.6 -42.3 -4.6 -40.25 -7.45 -40.65 -11.05 -40.95 -13.6 -39.1 -15.15 -36.8 -17.05 -34.15 -18.35 -36.8 -17.05 -39.1 -15.15 -40.95 -13.6 -40.65 -11.05 -40.25 -7.45 -42.3 -4.6 -43.75 -2.6 -44.2 -0.45 M38.65 0.0 L37.85 -6.45 Q36.95 -14.65 29.9 -19.35 36.95 -14.65 37.85 -6.45 L38.65 0.0 M-27.05 -22.6 L-26.6 -23.45 -24.85 -26.25 -26.6 -23.45 -27.05 -22.6 Q-28.9 -19.1 -30.3 -15.45 -31.65 -11.95 -30.4 -8.3 -31.65 -11.95 -30.3 -15.45 -28.9 -19.1 -27.05 -22.6 L-27.05 -22.55 -26.7 -19.8 -27.05 -22.55 -27.05 -22.6 Q-27.3 -25.5 -24.4 -27.15 -27.3 -25.5 -27.05 -22.6 M-33.6 -21.65 L-33.95 -19.8 -34.15 -18.35 -33.95 -19.8 -33.6 -21.65 M-31.3 -19.35 L-31.6 -17.5 Q-31.75 -15.2 -32.25 -13.0 -32.9 -10.1 -34.3 -7.5 L-37.45 -0.65 Q-39.15 3.85 -37.3 8.3 -39.15 3.85 -37.45 -0.65 L-34.3 -7.5 Q-32.9 -10.1 -32.25 -13.0 -31.75 -15.2 -31.6 -17.5 L-31.3 -19.35 M-34.15 -18.35 Q-35.05 -13.25 -37.3 -8.75 -35.05 -13.25 -34.15 -18.35 M43.25 -2.3 L43.25 0.0 43.25 2.3 43.25 0.0 43.25 -2.3 M-11.05 -33.6 Q-18.45 -33.55 -22.55 -27.15 -18.45 -33.55 -11.05 -33.6 M41.9 38.2 L43.45 38.75 41.9 38.2 M38.2 21.65 L39.75 15.6 Q40.3 12.9 39.75 10.25 38.85 5.45 35.45 1.85 38.85 5.45 39.75 10.25 40.3 12.9 39.75 15.6 L38.2 21.65 M41.4 30.35 Q40.5 28.3 40.3 26.25 L40.95 26.25 40.3 26.25 Q40.5 28.3 41.4 30.35 M40.95 37.75 Q36.9 34.7 35.95 29.45 35.4 26.4 36.35 23.95 35.4 26.4 35.95 29.45 36.9 34.7 40.95 37.75" fill="url(#gradient0)" fill-rule="evenodd" stroke="none"/>
      <path d="M-33.6 9.2 Q-35.45 18.65 -41.9 26.25 -38.55 20.05 -40.55 13.15 L-41.75 8.85 Q-42.6 5.65 -42.35 2.3 -45.2 4.1 -46.4 6.8 -46.8 7.75 -47.9 7.8 -49.3 4.2 -48.7 0.1 -48.15 -3.7 -46.7 -7.2 -45.3 -10.5 -43.2 -13.35 -40.9 -16.35 -38.85 -19.5 -37.9 -20.9 -37.85 -22.6 -37.7 -25.75 -37.8 -28.95 -37.9 -32.35 -35.55 -34.85 -26.95 -44.2 -14.2 -46.75 L-4.8 -48.3 Q3.55 -48.1 11.5 -44.8 14.95 -43.3 18.2 -41.5 20.0 -40.5 22.0 -40.9 L22.1 -44.65 Q27.4 -41.9 28.55 -35.9 M29.0 -35.0 Q30.95 -36.5 33.5 -35.7 L34.05 -35.45 31.75 -33.15 Q35.9 -34.1 39.5 -31.55 41.85 -29.9 41.9 -27.15 L35.9 -29.95 Q37.35 -26.4 40.65 -24.7 43.1 -23.4 43.9 -20.95 L44.9 -17.8 46.0 -13.35 Q43.3 -14.4 42.35 -17.05 43.15 -12.35 45.1 -8.15 L46.75 -4.7 Q48.45 -1.4 48.75 2.2 L49.15 7.15 49.5 10.5 Q49.75 12.05 49.15 13.55 48.55 15.2 47.4 16.55 L46.0 6.9 Q46.15 11.75 45.85 16.45 L45.55 19.65 Q45.45 20.85 44.8 21.8 42.75 24.65 45.45 27.1 46.35 27.9 46.6 29.0 48.3 36.3 53.15 41.7 L54.3 42.35 Q51.9 43.45 49.1 42.1 46.1 40.7 43.45 38.75 46.65 42.3 46.9 46.9 47.0 49.4 46.35 51.85 45.7 54.15 44.2 56.15 44.85 51.3 41.65 48.0 L39.6 46.5 Q41.95 50.45 39.15 54.5 L36.8 57.55 Q39.5 53.6 37.25 49.55 L34.8 45.1 Q32.35 40.4 33.2 35.25 33.5 33.3 33.1 31.35 L32.6 28.9 Q32.2 26.5 33.45 24.3 L35.75 19.75 36.25 18.4 Q36.55 17.45 36.05 16.45 35.55 15.35 35.35 14.2 L33.3 2.7 33.05 2.05 Q30.6 1.75 28.95 3.3 L27.45 5.3 Q27.7 8.0 26.65 10.35 25.2 13.5 24.85 17.0 L22.4 11.35 21.55 9.8 Q19.6 7.35 19.65 4.0 L19.75 -3.95 Q19.75 -6.1 21.05 -7.95 22.45 -9.8 22.55 -11.95 L20.95 -11.75 20.5 -11.95 19.8 -14.75 17.05 -10.15 Q17.75 -13.4 14.6 -14.85 14.05 -15.15 13.7 -15.7 13.15 -16.7 13.1 -17.9 L12.9 -21.2 Q10.5 -20.75 9.65 -18.65 L7.5 -12.7 5.5 -6.9 Q5.1 -10.0 5.6 -13.05 L6.25 -15.9 6.15 -16.65 Q5.1 -19.0 5.8 -21.5 L6.45 -23.7 6.5 -24.25 3.35 -26.1 Q1.85 -26.8 0.1 -26.85 -1.3 -26.25 -3.1 -26.3 L-6.15 -26.0 -9.2 -26.25 Q-9.8 -22.35 -12.2 -19.1 -13.05 -18.0 -13.5 -16.65 -14.4 -13.95 -14.25 -11.05 -16.05 -15.7 -13.95 -19.95 L-13.2 -21.25 Q-12.7 -22.05 -12.4 -23.0 -11.85 -24.75 -11.7 -26.35 -11.65 -26.75 -11.95 -27.15 L-13.15 -25.6 Q-18.55 -25.35 -22.2 -21.4 -25.25 -18.1 -26.15 -13.75 L-27.0 -8.25 Q-27.55 -3.05 -31.05 0.9 -30.05 -1.25 -30.8 -3.55 L-31.3 -5.05 Q-32.95 -2.5 -32.8 0.45 L-32.75 1.0 -32.3 8.4 Q-32.15 10.35 -33.6 11.5 L-33.6 9.2 M43.45 38.75 L41.9 38.2" fill="none" stroke="#000000" stroke-linecap="round" stroke-linejoin="round" stroke-width="2.0"/>
      <path d="M21.15 -32.7 L21.7 -32.35 Q23.95 -31.55 26.0 -30.4 L30.85 -27.15 M14.25 -25.8 Q17.05 -29.85 21.5 -28.2 L26.7 -25.85 30.2 -23.7 31.3 -22.55 M5.5 -34.05 L5.85 -34.6 Q6.4 -35.95 5.0 -37.25 2.55 -39.6 -0.7 -40.45 L-6.9 -40.95 M10.6 -38.65 Q9.25 -42.0 5.55 -43.4 -2.45 -46.45 -11.05 -44.7 -17.35 -43.4 -23.3 -41.0 -25.1 -40.3 -26.6 -39.0 -31.45 -34.8 -33.4 -28.8 -33.85 -27.4 -35.05 -26.35 -38.65 -23.2 -37.75 -18.4 M23.45 -18.4 L23.95 -18.85 Q23.95 -17.5 23.45 -15.65 21.2 -6.55 26.7 0.9 M26.25 -16.1 L27.15 -15.05 Q28.55 -11.25 29.5 -7.35 L30.85 -1.85 M29.9 -19.35 Q36.95 -14.65 37.85 -6.45 L38.65 0.0 M-34.15 -18.35 Q-36.8 -17.05 -39.1 -15.15 -40.95 -13.6 -40.65 -11.05 -40.25 -7.45 -42.3 -4.6 -43.75 -2.6 -44.2 -0.45 M-23.0 -31.75 Q-19.8 -34.95 -15.15 -35.7 L-12.45 -35.9 M-1.4 -34.05 L-4.6 -34.05 -5.55 -34.05 M-22.1 -36.85 L-21.5 -37.6 -19.8 -38.65 M-32.25 -19.8 L-32.3 -21.1 Q-31.55 -24.15 -30.0 -26.9 -28.55 -29.45 -26.7 -31.75 M-27.05 -22.6 L-27.05 -22.55 -26.7 -19.8 M-37.3 8.3 Q-39.15 3.85 -37.45 -0.65 L-34.3 -7.5 Q-32.9 -10.1 -32.25 -13.0 -31.75 -15.2 -31.6 -17.5 L-31.3 -19.35 M-22.55 -27.15 Q-18.45 -33.55 -11.05 -33.6 M-24.4 -27.15 Q-27.3 -25.5 -27.05 -22.6 M43.25 2.3 L43.25 0.0 43.25 -2.3 M35.45 1.85 Q38.85 5.45 39.75 10.25 40.3 12.9 39.75 15.6 L38.2 21.65" fill="none" stroke="#a06752" stroke-linecap="round" stroke-linejoin="round" stroke-width="1.5"/>
      <path d="M22.1 -36.35 Q21.65 -37.75 20.85 -38.95 L19.35 -40.5 M5.85 -34.6 L7.0 -33.25 Q8.4 -31.65 8.75 -29.95 M16.1 -38.65 L16.6 -36.9 17.35 -35.0 18.2 -35.95 Q19.1 -36.6 20.25 -36.85 M17.5 -34.55 L17.35 -35.0 17.05 -34.55 M9.65 -29.45 Q9.3 -30.95 11.05 -31.05 L12.0 -31.1 Q11.8 -33.75 10.15 -35.95 L9.2 -37.3 M12.0 -31.1 L16.55 -31.45 19.35 -31.3 M25.3 -22.1 Q27.85 -20.95 28.6 -17.85 29.45 -14.5 30.55 -11.25 31.55 -8.3 33.15 -5.55 M25.75 -6.0 Q25.25 -3.2 27.2 -1.0 L29.45 1.35 M36.8 -17.5 L39.75 -2.25 40.05 1.35 M-27.05 -22.6 Q-28.9 -19.1 -30.3 -15.45 -31.65 -11.95 -30.4 -8.3 M-24.85 -26.25 L-26.6 -23.45 -27.05 -22.6 M-34.15 -18.35 L-33.95 -19.8 -33.6 -21.65 M-37.3 -8.75 Q-35.05 -13.25 -34.15 -18.35 M36.35 23.95 Q35.4 26.4 35.95 29.45 36.9 34.7 40.95 37.75 M40.95 26.25 L40.3 26.25 Q40.5 28.3 41.4 30.35" fill="none" stroke="#37211e" stroke-linecap="round" stroke-linejoin="round" stroke-width="1.5"/>
      <path d="M51.4 -53.9 L42.8 -56.3 36.85 -57.55 42.8 -56.3 51.4 -53.9 52.1 -54.5 38.7 -59.3 36.85 -57.55 38.7 -59.3 52.1 -54.5 51.4 -53.9 45.25 -48.15 51.4 -53.9 M35.45 -57.85 L36.85 -57.55 35.45 -57.85 33.35 -56.1 35.45 -57.85 33.95 -58.15 34.85 -60.7 33.95 -58.15 35.45 -57.85 37.7 -59.65 34.85 -60.7 26.0 -63.85 34.85 -60.7 37.7 -59.65 35.45 -57.85 M32.5 -53.4 L33.35 -56.1 32.5 -53.4 36.85 -57.55 32.5 -53.4 32.4 -53.05 41.25 -50.3 42.8 -56.3 41.25 -50.3 32.4 -53.05 32.5 -53.4 32.2 -53.1 32.5 -53.4 M52.45 -54.4 L52.1 -54.5 52.7 -55.1 52.1 -54.5 52.45 -54.4 M38.5 -60.3 L39.4 -60.0 38.7 -59.3 37.7 -59.65 38.5 -60.3 37.7 -59.65 38.7 -59.3 39.4 -60.0 54.0 -55.7 49.7 -39.15 41.6 -42.75 42.5 -43.25 41.8 -45.05 Q41.0 -47.0 39.1 -46.9 L38.3 -46.5 36.35 -45.1 36.05 -45.65 30.9 -46.6 21.95 -48.9 25.15 -66.05 35.1 -61.45 38.5 -60.3 M33.35 -56.1 L33.95 -58.15 33.35 -56.1 30.5 -53.8 33.35 -56.1 M32.2 -53.1 L30.5 -53.8 32.2 -53.1 32.4 -53.05 30.9 -46.6 32.4 -53.05 32.2 -53.1 28.05 -49.15 32.2 -53.1 M34.85 -60.7 L35.1 -61.45 34.85 -60.7 M23.95 -56.6 L30.5 -53.8 23.95 -56.6 M25.3 -49.6 L30.5 -53.8 25.3 -49.6 M26.25 -59.85 L33.95 -58.15 26.25 -59.85 M45.25 -48.15 L48.35 -46.5 45.25 -48.15 43.25 -46.35 45.25 -48.15 41.25 -50.3 45.25 -48.15" fill="#887e88" fill-rule="evenodd" stroke="none"/>
      <path d="M41.6 -42.75 L41.45 -42.7 Q43.75 -38.4 47.0 -34.65 L49.35 -31.95 48.75 -30.85 Q43.45 -23.45 37.8 -16.25 L34.0 -11.5 40.1 -0.65 70.9 -1.2 78.05 -1.55 76.45 -4.15 80.1 -3.25 82.0 -7.5 82.85 -2.75 86.55 -4.6 87.0 -4.0 83.75 -1.4 88.25 1.3 83.5 2.1 84.45 5.0 81.45 2.75 79.6 7.35 78.25 2.3 75.9 4.05 76.1 1.55 70.45 1.35 32.7 2.3 32.45 3.3 29.45 1.6 28.85 2.35 23.85 11.65 21.45 16.2 18.85 20.7 Q19.7 23.25 18.45 25.6 L17.35 27.2 15.25 29.05 Q13.15 30.7 10.45 31.55 8.0 32.25 6.1 30.65 L4.75 29.2 Q3.75 27.75 3.3 25.7 L2.45 21.7 Q3.1 19.2 4.55 17.15 6.25 14.7 9.25 14.0 L10.6 13.9 Q13.45 14.4 15.65 16.3 L17.0 17.55 Q20.7 13.75 20.5 8.7 L20.4 5.35 Q20.4 4.35 20.75 3.4 L21.5 1.65 Q22.65 -0.45 24.85 -1.4 L24.7 -3.1 10.65 -3.55 10.55 -2.35 Q5.75 -0.75 0.65 -0.15 L-3.45 0.05 -5.55 0.0 -3.2 -6.6 0.95 -7.5 6.65 -7.3 Q8.7 -6.8 10.4 -5.65 L10.65 -3.55 10.4 -5.65 14.9 -6.9 Q18.85 -8.0 22.5 -6.5 24.75 -5.6 26.05 -3.8 L30.0 -10.1 34.25 -16.25 38.8 -22.1 44.6 -28.85 45.45 -29.9 38.6 -42.75 36.35 -45.1 38.3 -46.5 39.1 -46.9 Q41.0 -47.0 41.8 -45.05 L42.5 -43.25 41.6 -42.75 M0.95 21.95 Q1.9 25.7 -1.3 27.95 -3.5 29.45 -6.05 28.5 -8.7 27.5 -9.5 24.75 -10.1 22.55 -8.85 20.6 -7.3 18.15 -4.3 18.1 L-2.3 18.65 Q0.0 19.5 0.95 21.95 M41.45 -42.7 L38.6 -42.75 41.45 -42.7 M0.75 -2.7 L7.35 -4.3 7.8 -6.0 2.55 -5.35 2.35 -5.35 -1.0 -4.95 -2.2 -2.35 0.75 -2.7 0.0 -1.5 0.75 -2.7 M27.4 -3.9 L28.75 -5.95 34.0 -13.15 36.75 -17.05 Q39.5 -21.0 42.75 -24.5 L44.75 -26.7 47.65 -30.6 44.75 -26.7 42.75 -24.5 Q39.5 -21.0 36.75 -17.05 L34.0 -13.15 28.75 -5.95 27.4 -3.9 M12.2 -5.3 Q14.25 -6.2 16.55 -6.2 L18.45 -6.05 Q20.65 -5.55 22.5 -4.65 L22.95 -4.3 22.5 -4.65 Q20.65 -5.55 18.45 -6.05 L16.55 -6.2 Q14.25 -6.2 12.2 -5.3 M28.3 -2.05 L24.85 -1.4 28.3 -2.05 Q30.0 -2.05 31.3 -0.95 L31.75 -0.45 35.35 -0.35 31.4 -7.8 34.0 -11.5 31.4 -7.8 27.8 -2.45 28.3 -2.05 M26.05 -3.8 L27.8 -2.45 26.05 -3.8 M40.1 -0.65 L35.35 -0.35 40.1 -0.65 M32.7 2.3 L31.75 -0.45 32.7 2.3 M40.75 -42.1 L47.4 -31.05 40.75 -42.1 M70.75 -0.4 L70.9 -1.2 70.75 -0.4 76.85 -0.55 70.75 -0.4 70.45 1.35 70.75 -0.4 32.65 0.35 70.75 -0.4 M79.65 -0.9 L79.25 -1.65 80.05 -1.45 80.2 -1.3 81.25 -3.7 Q81.35 -2.55 81.75 -1.5 L82.05 -1.45 82.2 -1.85 82.2 -0.2 82.3 0.05 83.8 0.45 82.15 1.6 83.8 0.45 82.3 0.05 82.2 -0.2 82.2 -1.85 82.05 -1.45 81.75 -1.5 Q81.35 -2.55 81.25 -3.7 L80.2 -1.3 80.05 -1.45 79.25 -1.65 79.65 -0.9 M63.75 35.4 Q65.35 35.55 65.35 37.2 65.3 38.9 63.7 39.0 62.6 38.85 62.2 37.9 61.7 36.75 62.5 35.95 63.0 35.35 63.75 35.4 63.0 36.6 63.15 37.7 L63.45 37.9 63.75 38.0 63.45 37.9 63.15 37.7 Q63.0 36.6 63.75 35.4 M18.4 17.5 Q21.1 14.15 21.8 9.95 21.95 9.15 21.75 8.4 20.85 5.55 22.3 3.05 23.7 0.55 26.25 0.0 27.15 -0.15 27.6 0.45 27.15 -0.15 26.25 0.0 23.7 0.55 22.3 3.05 20.85 5.55 21.75 8.4 21.95 9.15 21.8 9.95 21.1 14.15 18.4 17.5 M18.85 20.7 L17.0 17.55 18.85 20.7 M3.9 20.95 L4.9 19.1 Q5.95 17.6 7.65 16.65 L10.15 15.55 Q12.35 14.8 14.25 16.1 12.35 14.8 10.15 15.55 L7.65 16.65 Q5.95 17.6 4.9 19.1 L3.9 20.95 M15.55 19.8 L15.05 18.7 14.5 18.15 Q13.2 17.25 11.65 17.05 L7.85 17.05 Q5.95 19.05 4.75 21.65 3.85 23.55 4.7 25.45 L5.25 26.05 Q6.1 27.05 7.55 27.45 L8.55 27.75 8.7 27.75 11.3 28.1 Q12.35 28.0 13.25 27.25 14.1 26.55 14.65 25.35 15.85 22.8 15.6 20.0 L15.55 19.8 M-3.7 -1.4 L-1.9 -5.85 5.3 -6.45 -1.9 -5.85 -3.7 -1.4 M-0.2 23.35 Q-0.2 21.1 -2.3 19.8 L-3.4 19.35 Q-5.7 18.95 -7.3 20.5 -8.25 21.4 -8.5 22.55 -8.8 24.15 -7.95 25.55 L-7.1 26.55 Q-5.1 28.2 -2.75 27.2 -0.25 26.05 -0.2 23.35" fill="#ffcc66" fill-rule="evenodd" stroke="none"/>
      <path d="M2.55 -5.35 L7.8 -6.0 7.35 -4.3 0.75 -2.7 2.35 -5.35 0.75 -2.7 -2.2 -2.35 -1.0 -4.95 2.35 -5.35 2.55 -5.35 M8.55 27.75 L7.55 27.45 Q6.1 27.05 5.25 26.05 L4.7 25.45 Q3.85 23.55 4.75 21.65 5.95 19.05 7.85 17.05 L11.65 17.05 Q13.2 17.25 14.5 18.15 L15.05 18.7 15.55 19.8 15.6 20.0 Q15.85 22.8 14.65 25.35 14.1 26.55 13.25 27.25 12.35 28.0 11.3 28.1 L8.7 27.75 8.55 27.75 M8.7 27.75 L15.6 20.0 8.7 27.75 M11.65 17.05 L4.7 25.45 11.65 17.05 M15.05 18.7 L7.55 27.45 15.05 18.7 M-0.2 23.35 Q-0.25 26.05 -2.75 27.2 -5.1 28.2 -7.1 26.55 L-7.95 25.55 Q-8.8 24.15 -8.5 22.55 -8.25 21.4 -7.3 20.5 -5.7 18.95 -3.4 19.35 L-2.3 19.8 Q-0.2 21.1 -0.2 23.35 M-3.4 19.35 L-7.95 25.55 -3.4 19.35 M-2.3 19.8 L-7.1 26.55 -2.3 19.8" fill="#a8e4fb" fill-opacity="0.2" fill-rule="evenodd" stroke="none"/>
      <path d="M69.75 22.55 L69.5 19.35 70.45 20.25 69.5 19.35 69.75 22.55 M69.5 17.5 Q71.4 18.1 71.7 20.1 72.1 22.95 69.95 24.85 67.55 21.65 68.95 18.05 L69.5 17.5 M63.3 31.75 Q62.7 29.8 63.5 27.8 L64.2 26.25 64.2 30.6 64.2 26.25 63.5 27.8 Q62.7 29.8 63.3 31.75 M62.6 26.8 L63.95 24.85 Q65.45 27.05 65.5 29.6 65.55 32.65 63.5 34.95 62.05 32.55 61.8 29.8 61.65 28.25 62.6 26.8 M64.45 41.85 Q65.45 44.85 64.6 47.8 L63.95 49.7 Q62.05 47.15 62.3 44.15 62.5 42.15 63.95 40.5 L64.45 41.85 Q62.6 43.3 63.1 45.55 L63.55 46.75 63.1 45.55 Q62.6 43.3 64.45 41.85" fill="#86d9bf" fill-rule="evenodd" stroke="none"/>
      <path d="M51.4 -53.9 L52.1 -54.5 38.7 -59.3 36.85 -57.55 32.5 -53.4 32.2 -53.1 28.05 -49.15 M35.45 -57.85 L33.35 -56.1 30.5 -53.8 25.3 -49.6 M52.7 -55.1 L52.1 -54.5 52.45 -54.4 M38.5 -60.3 L37.7 -59.65 38.7 -59.3 39.4 -60.0 M38.5 -60.3 L38.9 -60.65 M35.45 -57.85 L37.7 -59.65 34.85 -60.7 26.0 -63.85 M45.25 -48.15 L43.25 -46.35 M45.25 -48.15 L51.4 -53.9" fill="none" stroke="#d1d0d2" stroke-linecap="round" stroke-linejoin="round" stroke-width="1.5"/>
      <path d="M36.85 -57.55 L42.8 -56.3 51.4 -53.9 M36.85 -57.55 L35.45 -57.85 33.95 -58.15 33.35 -56.1 32.5 -53.4 32.4 -53.05 41.25 -50.3 42.8 -56.3 M39.4 -60.0 L38.5 -60.3 35.1 -61.45 25.15 -66.05 21.95 -48.9 30.9 -46.6 36.05 -45.65 36.35 -45.1 38.3 -46.5 39.1 -46.9 Q41.0 -47.0 41.8 -45.05 L42.5 -43.25 41.6 -42.75 41.45 -42.7 Q43.75 -38.4 47.0 -34.65 L49.35 -31.95 48.75 -30.85 Q43.45 -23.45 37.8 -16.25 L34.0 -11.5 40.1 -0.65 M39.4 -60.0 L54.0 -55.7 49.7 -39.15 41.6 -42.75 M0.95 21.95 Q1.9 25.7 -1.3 27.95 -3.5 29.45 -6.05 28.5 -8.7 27.5 -9.5 24.75 -10.1 22.55 -8.85 20.6 -7.3 18.15 -4.3 18.1 L-2.3 18.65 Q0.0 19.5 0.95 21.95 M34.85 -60.7 L33.95 -58.15 26.25 -59.85 M30.5 -53.8 L32.2 -53.1 32.4 -53.05 30.9 -46.6 M35.1 -61.45 L34.85 -60.7 M30.5 -53.8 L23.95 -56.6 M36.35 -45.1 L38.6 -42.75 41.45 -42.7 M26.05 -3.8 L30.0 -10.1 34.25 -16.25 38.8 -22.1 44.6 -28.85 45.45 -29.9 38.6 -42.75 M31.4 -7.8 L35.35 -0.35 M31.4 -7.8 L34.0 -11.5 M27.8 -2.45 L31.4 -7.8 M48.35 -46.5 L45.25 -48.15 41.25 -50.3 M69.5 17.5 Q71.4 18.1 71.7 20.1 72.1 22.95 69.95 24.85 67.55 21.65 68.95 18.05 L69.5 17.5 M62.6 26.8 L63.95 24.85 Q65.45 27.05 65.5 29.6 65.55 32.65 63.5 34.95 62.05 32.55 61.8 29.8 61.65 28.25 62.6 26.8 M63.75 35.4 Q63.0 35.35 62.5 35.95 61.7 36.75 62.2 37.9 62.6 38.85 63.7 39.0 65.3 38.9 65.35 37.2 65.35 35.55 63.75 35.4 M64.45 41.85 Q65.45 44.85 64.6 47.8 L63.95 49.7 Q62.05 47.15 62.3 44.15 62.5 42.15 63.95 40.5 L64.45 41.85 M-0.2 23.35 Q-0.25 26.05 -2.75 27.2 -5.1 28.2 -7.1 26.55 L-7.95 25.55 Q-8.8 24.15 -8.5 22.55 -8.25 21.4 -7.3 20.5 -5.7 18.95 -3.4 19.35 L-2.3 19.8 Q-0.2 21.1 -0.2 23.35" fill="none" stroke="#000000" stroke-linecap="round" stroke-linejoin="round" stroke-width="1.5"/>
      <path d="M40.1 -0.65 L70.9 -1.2 78.05 -1.55 76.45 -4.15 80.1 -3.25 82.0 -7.5 82.85 -2.75 86.55 -4.6 87.0 -4.0 83.75 -1.4 88.25 1.3 83.5 2.1 84.45 5.0 81.45 2.75 79.6 7.35 78.25 2.3 75.9 4.05 76.1 1.55 70.45 1.35 32.7 2.3 32.45 3.3 29.45 1.6 28.85 2.35 23.85 11.65 21.45 16.2 18.85 20.7 Q19.7 23.25 18.45 25.6 L17.35 27.2 15.25 29.05 Q13.15 30.7 10.45 31.55 8.0 32.25 6.1 30.65 L4.75 29.2 Q3.75 27.75 3.3 25.7 L2.45 21.7 0.95 21.95 M0.75 -2.7 L7.35 -4.3 7.8 -6.0 2.55 -5.35 M10.4 -5.65 Q8.7 -6.8 6.65 -7.3 L0.95 -7.5 -3.2 -6.6 -5.55 0.0 -3.45 0.05 0.65 -0.15 Q5.75 -0.75 10.55 -2.35 L10.65 -3.55 10.4 -5.65 14.9 -6.9 Q18.85 -8.0 22.5 -6.5 24.75 -5.6 26.05 -3.8 L27.8 -2.45 28.3 -2.05 24.85 -1.4 Q22.65 -0.45 21.5 1.65 L20.75 3.4 Q20.4 4.35 20.4 5.35 L20.5 8.7 Q20.7 13.75 17.0 17.55 L18.85 20.7 M10.65 -3.55 L24.7 -3.1 24.85 -1.4 M35.35 -0.35 L40.1 -0.65 M31.75 -0.45 L31.3 -0.95 Q30.0 -2.05 28.3 -2.05 M35.35 -0.35 L31.75 -0.45 32.7 2.3 M70.9 -1.2 L70.75 -0.4 70.45 1.35 M9.25 14.0 Q6.25 14.7 4.55 17.15 3.1 19.2 2.45 21.7 M8.55 27.75 L7.55 27.45 Q6.1 27.05 5.25 26.05 L4.7 25.45 Q3.85 23.55 4.75 21.65 5.95 19.05 7.85 17.05 L11.65 17.05 Q13.2 17.25 14.5 18.15 L15.05 18.7 15.55 19.8 M15.6 20.0 Q15.85 22.8 14.65 25.35 14.1 26.55 13.25 27.25 12.35 28.0 11.3 28.1 L8.7 27.75 M17.0 17.55 L15.65 16.3 Q13.45 14.4 10.6 13.9 L10.15 13.85 9.25 14.0 M2.35 -5.35 L-1.0 -4.95 -2.2 -2.35 0.75 -2.7" fill="none" stroke="#37211e" stroke-linecap="round" stroke-linejoin="round" stroke-width="1.5"/>
      <path d="M2.55 -5.35 L2.35 -5.35 0.75 -2.7 0.0 -1.5 M15.55 19.8 L15.6 20.0 8.7 27.75 8.55 27.75 M7.55 27.45 L15.05 18.7 M4.7 25.45 L11.65 17.05 M-7.1 26.55 L-2.3 19.8 M-7.95 25.55 L-3.4 19.35" fill="none" stroke="#ffffff" stroke-linecap="round" stroke-linejoin="round" stroke-width="1.5"/>
      <path d="M22.95 -4.3 L22.5 -4.65 Q20.65 -5.55 18.45 -6.05 L16.55 -6.2 Q14.25 -6.2 12.2 -5.3 M47.65 -30.6 L44.75 -26.7 42.75 -24.5 Q39.5 -21.0 36.75 -17.05 L34.0 -13.15 28.75 -5.95 27.4 -3.9 M47.4 -31.05 L40.75 -42.1 M70.75 -0.4 L76.85 -0.55 M82.15 1.6 L83.8 0.45 82.3 0.05 82.2 -0.2 82.2 -1.85 82.05 -1.45 81.75 -1.5 Q81.35 -2.55 81.25 -3.7 L80.2 -1.3 80.05 -1.45 79.25 -1.65 79.65 -0.9 M70.45 20.25 L69.5 19.35 69.75 22.55 M64.2 30.6 L64.2 26.25 63.5 27.8 Q62.7 29.8 63.3 31.75 M63.75 35.4 Q63.0 36.6 63.15 37.7 L63.45 37.9 63.75 38.0 M64.0 35.0 L63.75 35.4 M64.45 41.85 Q62.6 43.3 63.1 45.55 L63.55 46.75 M27.6 0.45 Q27.15 -0.15 26.25 0.0 23.7 0.55 22.3 3.05 20.85 5.55 21.75 8.4 21.95 9.15 21.8 9.95 21.1 14.15 18.4 17.5 M14.25 16.1 Q12.35 14.8 10.15 15.55 L7.65 16.65 Q5.95 17.6 4.9 19.1 L3.9 20.95 M32.65 0.35 L70.75 -0.4 M5.3 -6.45 L-1.9 -5.85 -3.7 -1.4" fill="none" stroke="#ffeac8" stroke-linecap="round" stroke-linejoin="round" stroke-width="1.5"/>
      <path d="M70.3 3.8 L70.45 4.15 70.3 4.5 69.95 4.65 69.6 4.5 69.45 4.15 69.6 3.8 Q69.75 3.65 69.95 3.65 L70.3 3.8 M61.8 2.85 Q61.95 2.7 62.15 2.7 L62.5 2.85 62.65 3.2 62.5 3.55 62.15 3.7 61.8 3.55 61.65 3.2 61.8 2.85 M62.8 6.85 L62.95 7.2 62.8 7.55 62.45 7.7 62.1 7.55 61.95 7.2 62.1 6.85 Q62.25 6.7 62.45 6.7 62.65 6.7 62.8 6.85 M62.4 10.85 Q62.55 10.7 62.75 10.7 62.95 10.7 63.1 10.85 L63.25 11.2 63.1 11.55 62.75 11.7 62.4 11.55 62.25 11.2 Q62.25 11.0 62.4 10.85 M70.3 7.8 L70.45 8.15 70.3 8.5 69.95 8.65 69.6 8.5 69.45 8.15 69.6 7.8 Q69.75 7.65 69.95 7.65 L70.3 7.8 M69.6 11.8 Q69.75 11.65 69.95 11.65 L70.3 11.8 70.45 12.15 70.3 12.5 69.95 12.65 69.6 12.5 69.45 12.15 69.6 11.8 M62.65 14.85 Q62.8 14.7 63.0 14.7 L63.35 14.85 63.5 15.2 63.35 15.55 63.0 15.7 62.65 15.55 62.5 15.2 Q62.5 15.0 62.65 14.85 M62.95 18.85 Q63.1 18.7 63.3 18.7 L63.65 18.85 63.8 19.2 63.65 19.55 63.3 19.7 Q63.1 19.7 62.95 19.55 L62.8 19.2 62.95 18.85" fill="#37211e" fill-rule="evenodd" stroke="none"/>
    </g>
    </g>
  </g>
  <defs>
    <radialGradient cx="0" cy="0" gradientTransform="matrix(0.0028, 0.1085, -0.1668, 0.0043, 1.0, -31.5)" gradientUnits="userSpaceOnUse" id="gradient0" r="819.2" spreadMethod="pad">
      <stop offset="0.0" stop-color="#3c1e00"/>
      <stop offset="0.3176470588235294" stop-color="#7c543f"/>
      <stop offset="1.0" stop-color="#482400"/>
    </radialGradient>
  </defs>
</svg>