<svg xmlns:xlink="http://www.w3.org/1999/xlink" xmlns="http://www.w3.org/2000/svg" height="264.15px" width="342.25px">
  <g transform="matrix(1.0, 0.0, 0.0, 1.0, 243.25, 83.7)">
    <g data-characterId="1149" height="88.0" transform="matrix(1.0, 0.0, 0.0, 1.0, -54.55, -45.5)" width="100.15" xlink:href="#shape0"><g id="shape0" transform="matrix(1.0, 0.0, 0.0, 1.0, 54.55, 45.5)">
      <path d="M23.05 -39.15 L23.05 -37.4 23.05 -34.55 23.05 -37.4 23.05 -39.15 M29.35 -36.25 L29.95 -35.7 37.65 -37.05 34.55 -31.65 Q36.95 -31.75 39.0 -30.65 40.25 -30.05 41.1 -29.05 L42.9 -26.85 42.9 -26.4 39.15 -25.35 Q42.05 -21.15 43.45 -16.2 44.8 -11.25 45.1 -6.3 43.55 -4.25 43.5 -1.75 43.45 5.7 41.65 12.7 38.9 23.15 35.5 33.3 L32.8 42.0 33.45 33.5 32.6 26.35 Q33.75 25.65 34.2 24.4 36.0 19.85 36.05 14.95 36.05 13.75 36.4 12.65 37.35 9.5 36.05 6.6 34.5 3.15 30.65 3.4 L29.35 4.0 28.5 3.75 27.05 20.45 17.3 29.9 Q20.75 21.5 22.2 12.6 23.45 5.15 21.9 -2.3 L22.45 -2.4 21.4 -8.6 15.9 -8.7 21.9 -13.8 Q10.0 -14.25 -1.65 -12.4 0.15 -14.7 2.95 -16.25 4.05 -16.85 5.2 -17.3 -4.7 -15.95 -12.2 -9.05 L-18.25 -5.9 Q-29.15 -2.9 -40.55 -3.75 L-44.3 -3.45 -35.1 -9.8 Q-44.5 -9.35 -53.5 -12.1 L-45.0 -13.85 Q-41.85 -14.65 -39.35 -16.6 -37.1 -18.4 -35.65 -20.75 -44.75 -18.2 -54.05 -20.75 -47.3 -26.1 -39.15 -28.5 L-35.65 -28.8 -42.0 -34.55 Q-31.1 -33.5 -21.4 -38.2 -13.95 -41.8 -6.1 -44.5 L-2.85 -45.0 Q4.5 -45.1 11.6 -42.75 13.05 -42.25 14.2 -41.35 17.0 -39.0 20.75 -39.7 L20.15 -43.75 Q25.65 -41.25 29.35 -36.25 M4.05 -21.3 L-2.75 -18.25 -11.6 -14.0 Q-13.55 -13.05 -11.5 -13.25 -13.55 -13.05 -11.6 -14.0 L-2.75 -18.25 4.05 -21.3 M-17.25 -17.85 Q-18.95 -16.7 -20.75 -15.65 -25.3 -12.95 -30.15 -10.95 -35.0 -8.95 -38.55 -5.2 -35.0 -8.95 -30.15 -10.95 -25.3 -12.95 -20.75 -15.65 -18.95 -16.7 -17.25 -17.85 M-24.7 -24.2 L-25.2 -23.55 Q-26.15 -21.85 -27.5 -20.75 -35.0 -14.45 -44.85 -13.25 -35.0 -14.45 -27.5 -20.75 -26.15 -21.85 -25.2 -23.55 L-24.7 -24.2 M-4.6 -33.4 Q-5.45 -33.1 -6.35 -32.95 -10.6 -32.2 -14.35 -29.95 -10.6 -32.2 -6.35 -32.95 -5.45 -33.1 -4.6 -33.4 M-0.55 -38.55 L-1.7 -38.45 Q-9.8 -37.3 -16.65 -32.8 -9.8 -37.3 -1.7 -38.45 L-0.55 -38.55 M-18.95 -28.8 L-23.5 -27.55 Q-26.15 -26.75 -28.8 -26.55 L-36.8 -26.2 -41.3 -25.6 -45.5 -24.45 Q-47.35 -23.9 -47.75 -22.45 -47.35 -23.9 -45.5 -24.45 L-41.3 -25.6 -36.8 -26.2 -28.8 -26.55 Q-26.15 -26.75 -23.5 -27.55 L-18.95 -28.8 M28.8 1.15 L28.75 0.55 Q27.75 -7.5 27.05 -15.55 27.75 -7.5 28.75 0.55 L28.8 1.15 M40.3 -0.6 Q41.8 -3.3 41.35 -6.35 40.15 -14.05 36.25 -20.75 40.15 -14.05 41.35 -6.35 41.8 -3.3 40.3 -0.6 M37.4 -1.75 Q36.55 -11.85 32.25 -21.3 36.55 -11.85 37.4 -1.75 M24.75 17.8 Q25.05 16.65 24.65 15.85 22.95 12.4 25.9 9.2 25.05 8.2 23.6 8.6 25.95 5.8 23.5 4.45 L24.1 3.85 Q23.85 3.5 24.25 2.3 24.5 1.75 24.9 1.55 26.7 0.85 25.4 -0.65 L23.05 -0.6 25.4 -0.65 Q26.7 0.85 24.9 1.55 24.5 1.75 24.25 2.3 23.85 3.5 24.1 3.85 L23.5 4.45 Q25.95 5.8 23.6 8.6 25.05 8.2 25.9 9.2 22.95 12.4 24.65 15.85 25.05 16.65 24.75 17.8 M21.3 -17.85 L17.9 -17.6 6.35 -15.55 17.9 -17.6 21.3 -17.85 M8.65 -39.7 L2.95 -41.05 1.75 -41.2 Q-1.4 -41.45 -4.6 -41.2 L-5.8 -41.05 Q-11.9 -40.2 -16.6 -36.75 -17.2 -36.25 -17.9 -35.95 L-23.0 -33.35 Q-24.85 -32.4 -27.05 -31.75 -32.3 -30.15 -37.4 -32.25 -32.3 -30.15 -27.05 -31.75 -24.85 -32.4 -23.0 -33.35 L-17.9 -35.95 Q-17.2 -36.25 -16.6 -36.75 -11.9 -40.2 -5.8 -41.05 L-4.6 -41.2 Q-1.4 -41.45 1.75 -41.2 L2.95 -41.05 8.65 -39.7 M34.55 -27.05 L32.8 -26.45 31.65 -25.9 32.8 -26.45 34.55 -27.05 M33.95 -34.55 L33.35 -34.0 30.5 -31.65 33.35 -34.0 33.95 -34.55" fill="url(#gradient0)" fill-rule="evenodd" stroke="none"/>
      <path d="M29.95 -35.7 L37.65 -37.05 34.55 -31.65 Q36.95 -31.75 39.0 -30.65 40.25 -30.05 41.1 -29.05 L42.9 -26.85 42.9 -26.4 39.15 -25.35 Q42.05 -21.15 43.45 -16.2 44.8 -11.25 45.1 -6.3 43.55 -4.25 43.5 -1.75 43.45 5.7 41.65 12.7 38.9 23.15 35.5 33.3 L32.8 42.0 33.45 33.5 32.6 26.35 Q33.75 25.65 34.2 24.4 36.0 19.85 36.05 14.95 36.05 13.75 36.4 12.65 37.35 9.5 36.05 6.6 34.5 3.15 30.65 3.4 L29.35 4.0 M28.5 3.75 L27.05 20.45 17.3 29.9 Q20.75 21.5 22.2 12.6 23.45 5.15 21.9 -2.3 M22.45 -2.4 L21.4 -8.6 15.9 -8.7 21.9 -13.8 Q10.0 -14.25 -1.65 -12.4 0.15 -14.7 2.95 -16.25 4.05 -16.85 5.2 -17.3 -4.7 -15.95 -12.2 -9.05 L-18.25 -5.9 Q-29.15 -2.9 -40.55 -3.75 L-44.3 -3.45 -35.1 -9.8 Q-44.5 -9.35 -53.5 -12.1 L-45.0 -13.85 Q-41.85 -14.65 -39.35 -16.6 -37.1 -18.4 -35.65 -20.75 -44.75 -18.2 -54.05 -20.75 -47.3 -26.1 -39.15 -28.5 L-35.65 -28.8 -42.0 -34.55 Q-31.1 -33.5 -21.4 -38.2 -13.95 -41.8 -6.1 -44.5 L-2.85 -45.0 Q4.5 -45.1 11.6 -42.75 13.05 -42.25 14.2 -41.35 17.0 -39.0 20.75 -39.7 L20.15 -43.75 Q25.65 -41.25 29.35 -36.25" fill="none" stroke="#000000" stroke-linecap="round" stroke-linejoin="round" stroke-width="2.0"/>
      <path d="M23.05 -34.55 L23.05 -37.4 23.05 -39.15 M30.5 -31.65 L33.35 -34.0 33.95 -34.55 M31.65 -25.9 L32.8 -26.45 34.55 -27.05 M-37.4 -32.25 Q-32.3 -30.15 -27.05 -31.75 -24.85 -32.4 -23.0 -33.35 L-17.9 -35.95 Q-17.2 -36.25 -16.6 -36.75 -11.9 -40.2 -5.8 -41.05 L-4.6 -41.2 Q-1.4 -41.45 1.75 -41.2 L2.95 -41.05 8.65 -39.7 M6.35 -15.55 L17.9 -17.6 21.3 -17.85 M23.05 -0.6 L25.4 -0.65 Q26.7 0.85 24.9 1.55 24.5 1.75 24.25 2.3 23.85 3.5 24.1 3.85 L23.5 4.45 Q25.95 5.8 23.6 8.6 25.05 8.2 25.9 9.2 22.95 12.4 24.65 15.85 25.05 16.65 24.75 17.8 M32.25 -21.3 Q36.55 -11.85 37.4 -1.75 M36.25 -20.75 Q40.15 -14.05 41.35 -6.35 41.8 -3.3 40.3 -0.6 M27.05 -15.55 Q27.75 -7.5 28.75 0.55 L28.8 1.15 M-47.75 -22.45 Q-47.35 -23.9 -45.5 -24.45 L-41.3 -25.6 -36.8 -26.2 -28.8 -26.55 Q-26.15 -26.75 -23.5 -27.55 L-18.95 -28.8 M-16.65 -32.8 Q-9.8 -37.3 -1.7 -38.45 L-0.55 -38.55 M-14.35 -29.95 Q-10.6 -32.2 -6.35 -32.95 -5.45 -33.1 -4.6 -33.4 M-44.85 -13.25 Q-35.0 -14.45 -27.5 -20.75 -26.15 -21.85 -25.2 -23.55 L-24.7 -24.2 M-38.55 -5.2 Q-35.0 -8.95 -30.15 -10.95 -25.3 -12.95 -20.75 -15.65 -18.95 -16.7 -17.25 -17.85 M-11.5 -13.25 Q-13.55 -13.05 -11.6 -14.0 L-2.75 -18.25 4.05 -21.3" fill="none" stroke="#77483e" stroke-linecap="round" stroke-linejoin="round" stroke-width="1.5"/>
    </g>
    </g>
  </g>
  <defs>
    <radialGradient cx="0" cy="0" gradientTransform="matrix(0.0028, 0.1085, -0.1668, 0.0043, 1.0, -31.5)" gradientUnits="userSpaceOnUse" id="gradient0" r="819.2" spreadMethod="pad">
      <stop offset="0.0" stop-color="#3c1e00"/>
      <stop offset="0.3176470588235294" stop-color="#7c543f"/>
      <stop offset="1.0" stop-color="#482400"/>
    </radialGradient>
  </defs>
</svg>