<svg xmlns:xlink="http://www.w3.org/1999/xlink" xmlns="http://www.w3.org/2000/svg" height="141.1px" width="125.05px">
  <g transform="matrix(1.0, 0.0, 0.0, 1.0, 48.6, 54.85)">
    <g data-characterId="977" height="138.8" transform="matrix(1.0, 0.0, 0.0, 1.0, -46.5, -52.55)" width="84.85" xlink:href="#shape0"><g id="shape0" transform="matrix(1.0, 0.0, 0.0, 1.0, 46.5, 52.55)">
      <path d="M-36.0 17.9 Q-37.1 14.6 -37.55 11.3 -38.0 8.25 -37.6 5.35 L-35.95 -4.5 Q-35.6 -6.2 -36.25 -7.55 -38.6 -12.65 -36.9 -18.05 -35.6 -22.1 -34.6 -26.3 L-32.9 -32.15 Q-31.1 -37.65 -27.2 -41.95 L-23.35 -45.9 Q-20.5 -48.6 -16.7 -49.7 -8.5 -52.3 0.3 -52.0 L5.8 -51.2 Q14.1 -49.3 21.15 -44.2 L26.9 -39.8 Q33.3 -34.85 35.55 -26.85 37.7 -19.05 37.85 -10.9 38.05 -1.85 35.05 6.75 L33.4 4.4 32.9 4.3 Q31.95 6.55 31.8 8.7 31.6 12.25 28.3 12.85 26.45 12.95 25.2 11.25 L24.8 7.15 22.45 6.65 23.6 11.25 21.85 12.1 Q21.95 15.3 20.75 18.65 20.15 20.25 18.25 20.0 L16.4 19.6 17.15 26.6 12.65 28.2 12.65 31.6 9.8 27.3 8.35 31.05 Q4.55 20.75 -5.9 17.95 -9.55 16.9 -13.35 16.75 L-14.6 19.5 Q-16.3 19.6 -17.6 18.4 L-18.75 17.35 Q-21.85 18.15 -24.55 19.4 -25.8 20.1 -27.35 20.15 L-28.5 19.95 -29.1 18.2 Q-32.6 19.6 -34.35 22.95 L-36.0 17.9 M20.15 -1.45 L22.2 -2.55 20.15 -1.45 M24.55 -6.25 Q24.9 -10.3 28.7 -11.7 L29.75 -12.0 Q35.2 -8.1 34.15 -1.45 L32.9 4.3 34.15 -1.45 Q35.2 -8.1 29.75 -12.0 L28.7 -11.7 Q24.9 -10.3 24.55 -6.25 M26.45 -2.15 Q28.15 -2.75 28.7 -4.55 29.15 -6.05 30.55 -5.6 L30.75 -5.3 Q31.9 -3.75 31.45 -1.65 31.9 -3.75 30.75 -5.3 L30.55 -5.6 Q29.15 -6.05 28.7 -4.55 28.15 -2.75 26.45 -2.15 M-26.05 -8.65 L-25.4 -8.2 Q-24.8 -5.45 -26.05 -2.95 -28.55 2.15 -29.6 7.8 -30.55 13.05 -29.1 18.2 -30.55 13.05 -29.6 7.8 -28.55 2.15 -26.05 -2.95 -24.8 -5.45 -25.4 -8.2 L-26.05 -8.65 M20.75 2.3 L24.2 0.9 20.75 2.3 M29.45 1.35 L29.45 4.35 29.45 1.35 M-5.5 -4.0 Q-3.9 -1.1 -1.0 0.05 L0.95 0.8 Q6.55 3.0 12.5 3.5 6.55 3.0 0.95 0.8 L-1.0 0.05 Q-3.9 -1.1 -5.5 -4.0 M17.0 18.5 L19.55 15.1 17.0 18.5 M0.0 29.1 L0.0 29.5 Q0.15 38.85 -6.65 44.85 -7.35 45.45 -8.3 45.65 -12.7 46.85 -13.25 42.45 L-14.4 44.75 -16.05 44.55 -17.25 42.3 -17.4 42.8 -17.85 43.7 -18.65 44.4 -19.25 44.6 -19.75 42.3 Q-20.3 43.75 -21.95 44.55 L-23.25 44.65 Q-24.1 44.5 -24.8 44.0 -27.35 42.25 -27.85 39.15 L-28.7 34.75 -29.25 31.8 -29.3 31.55 -29.35 31.5 -29.3 31.55 -24.25 26.65 -21.35 26.25 Q-19.35 25.8 -18.55 23.75 -16.65 25.5 -14.1 25.95 L-9.85 26.45 -8.6 26.75 Q-3.7 26.1 -0.3 29.1 L0.0 29.5 -0.3 29.1 0.0 29.1 M18.7 5.5 L25.6 3.05 18.7 5.5 M-5.0 1.5 L-0.9 3.9 -5.0 1.5 M-23.5 -10.0 L-25.0 -14.0 -23.5 -10.0 M-22.0 -9.5 L-22.35 -10.75 Q-22.65 -13.1 -20.0 -14.0 -22.65 -13.1 -22.35 -10.75 L-22.0 -9.5 M-32.0 -26.0 L-26.95 -25.4 -19.5 -24.45 -2.5 -24.0 -19.5 -24.45 -26.95 -25.4 -32.0 -26.0 M-24.5 -33.0 L-21.8 -32.15 Q-15.7 -30.65 -9.5 -31.5 -15.7 -30.65 -21.8 -32.15 L-24.5 -33.0 M-13.55 15.85 L-13.35 16.75 -13.55 15.85 M-32.0 -0.5 L-35.0 1.25 -32.0 -0.5" fill="url(#gradient0)" fill-rule="evenodd" stroke="none"/>
      <path d="M-36.0 17.9 L-34.35 22.95 Q-32.6 19.6 -29.1 18.2 L-28.5 19.95 -27.35 20.15 Q-25.8 20.1 -24.55 19.4 -21.85 18.15 -18.75 17.35 L-17.6 18.4 Q-16.3 19.6 -14.6 19.5 L-13.35 16.75 Q-9.55 16.9 -5.9 17.95 4.55 20.75 8.35 31.05 L9.8 27.3 12.65 31.6 12.65 28.2 17.15 26.6 16.4 19.6 18.25 20.0 Q20.15 20.25 20.75 18.65 21.95 15.3 21.85 12.1 L23.6 11.25 22.45 6.65 24.8 7.15 25.2 11.25 Q26.45 12.95 28.3 12.85 31.6 12.25 31.8 8.7 31.95 6.55 32.9 4.3 L33.4 4.4 35.05 6.75 35.7 7.3 35.15 10.1 36.6 14.1 34.55 14.7 36.85 20.15 32.2 19.9 34.7 34.5 30.5 33.1 Q32.25 37.3 30.8 41.7 L30.2 43.95 Q30.0 45.0 29.35 45.75 L24.75 40.85 Q26.0 46.85 23.9 52.65 L21.6 49.2 Q22.7 56.5 18.55 62.5 16.55 65.4 13.8 67.3 13.9 66.0 14.4 64.35 15.05 62.25 14.4 60.15 13.85 63.0 12.1 65.05 6.6 71.6 -1.4 73.7 L-3.6 74.35 -4.35 74.2 -1.95 67.95 Q-2.65 67.3 -2.65 68.85 -2.65 69.65 -3.1 70.25 -7.65 76.25 -14.95 78.25 -12.7 75.05 -13.5 71.05 -15.8 77.05 -21.35 80.1 -23.25 81.2 -25.1 82.6 L-24.7 79.65 Q-24.05 76.75 -25.6 74.25 -29.55 78.55 -31.75 83.8 L-32.25 84.9 -32.8 85.75 Q-34.35 80.15 -35.25 74.45 L-35.65 70.2 -39.7 77.7 Q-40.95 75.55 -40.55 73.0 -39.95 69.2 -39.9 65.3 L-40.0 57.6 -40.25 55.8 -42.3 63.45 Q-42.85 62.6 -43.2 60.2 L-44.2 52.9 Q-44.7 49.3 -44.8 45.65 -44.9 40.8 -43.8 35.7 -43.5 34.2 -42.85 32.8 L-46.0 36.25 Q-44.0 28.3 -39.65 21.55 L-38.1 19.7 -36.0 17.9 M27.85 22.3 L27.35 18.4 27.85 22.3 M0.0 29.5 L0.0 29.1 -0.3 29.1 Q-3.7 26.1 -8.6 26.75 L-9.85 26.45 -14.1 25.95 Q-16.65 25.5 -18.55 23.75 -19.35 25.8 -21.35 26.25 L-24.25 26.65 -29.3 31.55 -29.35 31.5 -29.3 31.55 -29.25 31.8 -28.7 34.75 -27.85 39.15 Q-27.35 42.25 -24.8 44.0 -24.1 44.5 -23.25 44.65 L-21.95 44.55 Q-20.3 43.75 -19.75 42.3 L-19.25 44.6 -18.65 44.4 -17.85 43.7 -17.4 42.8 -17.25 42.3 -16.05 44.55 -14.4 44.75 -13.25 42.45 Q-12.7 46.85 -8.3 45.65 -7.35 45.45 -6.65 44.85 0.15 38.85 0.0 29.5 L1.8 31.45 4.0 33.55 Q6.65 36.0 10.1 35.35 6.65 36.0 4.0 33.55 L1.8 31.45 0.0 29.5 M22.3 40.5 Q23.15 38.25 23.55 35.8 24.35 31.1 22.1 26.95 24.35 31.1 23.55 35.8 23.15 38.25 22.3 40.5 M26.2 32.7 L26.5 29.25 Q26.7 25.6 25.05 22.3 26.7 25.6 26.5 29.25 L26.2 32.7 M7.6 48.1 L8.5 46.15 Q9.95 42.9 8.75 39.6 9.95 42.9 8.5 46.15 L7.6 48.1 M17.0 54.55 L18.85 49.0 17.0 54.55 M1.8 62.85 L3.9 57.75 1.8 62.85 M5.5 61.0 L5.75 60.85 Q8.4 58.0 8.05 53.85 8.4 58.0 5.75 60.85 L5.5 61.0 M13.1 55.7 L14.25 53.8 Q17.95 45.75 17.0 37.05 17.95 45.75 14.25 53.8 L13.1 55.7 M-18.95 21.55 L-18.55 23.75 -18.95 21.55 M-22.1 20.5 L-23.35 23.15 -23.5 23.2 -29.05 26.95 Q-30.9 28.25 -32.2 30.2 -30.9 28.25 -29.05 26.95 L-23.5 23.2 -23.35 23.15 -22.1 20.5 M-31.3 21.85 L-31.9 21.75 Q-34.8 25.5 -39.15 26.7 -34.8 25.5 -31.9 21.75 L-31.3 21.85 M-12.9 19.35 L-9.2 21.15 -12.9 19.35 M-10.6 18.4 Q-7.85 19.9 -4.9 20.25 0.55 21.3 3.65 26.0 0.55 21.3 -4.9 20.25 -7.85 19.9 -10.6 18.4 M-16.15 20.7 Q-11.3 23.55 -5.75 24.05 L-3.75 24.5 Q-2.3 25.0 -1.15 25.95 L4.35 29.7 -1.15 25.95 Q-2.3 25.0 -3.75 24.5 L-5.75 24.05 Q-11.3 23.55 -16.15 20.7 M-28.1 22.1 Q-29.9 24.6 -32.7 25.95 L-34.75 27.0 Q-37.6 28.3 -38.45 31.05 -37.6 28.3 -34.75 27.0 L-32.7 25.95 Q-29.9 24.6 -28.1 22.1 M-35.65 30.75 Q-34.95 32.6 -33.0 32.95 L-32.65 33.15 -29.3 31.55 -32.65 33.15 -33.0 32.95 Q-34.95 32.6 -35.65 30.75 M-37.3 69.3 L-36.4 44.55 -37.3 69.3 M-17.95 49.5 L-17.5 47.2 -17.95 49.5 M-32.0 78.5 L-32.15 77.7 Q-34.25 70.3 -33.15 62.6 -34.25 70.3 -32.15 77.7 L-32.0 78.5 M-30.4 70.2 L-30.3 69.4 Q-29.45 61.35 -30.4 53.4 -29.45 61.35 -30.3 69.4 L-30.4 70.2 M-24.2 69.05 L-23.2 66.6 Q-21.2 61.95 -22.55 56.85 -21.2 61.95 -23.2 66.6 L-24.2 69.05 M-32.7 52.45 L-32.85 50.95 Q-32.85 47.75 -31.8 44.4 -32.85 47.75 -32.85 50.95 L-32.7 52.45 M-8.3 69.3 Q-8.15 69.7 -7.9 69.2 -6.4 66.75 -4.55 64.4 0.85 57.7 -1.15 49.25 0.85 57.7 -4.55 64.4 -6.4 66.75 -7.9 69.2 -8.15 69.7 -8.3 69.3 M-9.9 66.95 L-9.3 65.85 Q-7.6 61.75 -6.9 57.55 -7.6 61.75 -9.3 65.85 L-9.9 66.95 M-18.85 73.0 L-17.5 70.9 -14.75 66.2 Q-12.4 62.5 -13.15 58.25 -12.4 62.5 -14.75 66.2 L-17.5 70.9 -18.85 73.0 M-41.7 53.15 Q-42.85 49.55 -42.3 45.9 L-41.65 40.0 Q-41.55 38.45 -40.3 37.3 -41.55 38.45 -41.65 40.0 L-42.3 45.9 Q-42.85 49.55 -41.7 53.15 M-14.3 48.8 L-14.05 47.75 -14.3 46.7 -14.05 47.75 -14.3 48.8 M-20.5 49.7 L-19.95 49.0 -19.1 46.25 -19.95 49.0 -20.5 49.7" fill="#180e0a" fill-rule="evenodd" stroke="none"/>
      <path d="M35.05 6.75 Q38.05 -1.85 37.85 -10.9 37.7 -19.05 35.55 -26.85 33.3 -34.85 26.9 -39.8 L21.15 -44.2 Q14.1 -49.3 5.8 -51.2 L0.3 -52.0 Q-8.5 -52.3 -16.7 -49.7 -20.5 -48.6 -23.35 -45.9 L-27.2 -41.95 Q-31.1 -37.65 -32.9 -32.15 L-34.6 -26.3 Q-35.6 -22.1 -36.9 -18.05 -38.6 -12.65 -36.25 -7.55 -35.6 -6.2 -35.95 -4.5 L-37.6 5.35 Q-38.0 8.25 -37.55 11.3 -37.1 14.6 -36.0 17.9 L-34.35 22.95 Q-32.6 19.6 -29.1 18.2 -30.55 13.05 -29.6 7.8 -28.55 2.15 -26.05 -2.95 -24.8 -5.45 -25.4 -8.2 L-26.05 -8.65 M31.45 -1.65 Q31.9 -3.75 30.75 -5.3 L30.55 -5.6 Q29.15 -6.05 28.7 -4.55 28.15 -2.75 26.45 -2.15 M32.9 4.3 L34.15 -1.45 Q35.2 -8.1 29.75 -12.0 L28.7 -11.7 Q24.9 -10.3 24.55 -6.25 M22.2 -2.55 L20.15 -1.45 M-36.0 17.9 L-38.1 19.7 -39.65 21.55 Q-44.0 28.3 -46.0 36.25 L-42.85 32.8 Q-43.5 34.2 -43.8 35.7 -44.9 40.8 -44.8 45.65 -44.7 49.3 -44.2 52.9 L-43.2 60.2 Q-42.85 62.6 -42.3 63.45 L-40.25 55.8 -40.0 57.6 -39.9 65.3 Q-39.95 69.2 -40.55 73.0 -40.95 75.55 -39.7 77.7 L-35.65 70.2 -35.25 74.45 Q-34.35 80.15 -32.8 85.75 L-32.25 84.9 -31.75 83.8 Q-29.55 78.55 -25.6 74.25 -24.05 76.75 -24.7 79.65 L-25.1 82.6 Q-23.25 81.2 -21.35 80.1 -15.8 77.05 -13.5 71.05 -12.7 75.05 -14.95 78.25 -7.65 76.25 -3.1 70.25 -2.65 69.65 -2.65 68.85 -2.65 67.3 -1.95 67.95 L-4.35 74.2 -3.6 74.35 -1.4 73.7 Q6.6 71.6 12.1 65.05 13.85 63.0 14.4 60.15 15.05 62.25 14.4 64.35 13.9 66.0 13.8 67.3 16.55 65.4 18.55 62.5 22.7 56.5 21.6 49.2 L23.9 52.65 Q26.0 46.85 24.75 40.85 L29.35 45.75 Q30.0 45.0 30.2 43.95 L30.8 41.7 Q32.25 37.3 30.5 33.1 L34.7 34.5 32.2 19.9 36.85 20.15 34.55 14.7 36.6 14.1 35.15 10.1 35.7 7.3 35.05 6.75 33.4 4.4 32.9 4.3 Q31.95 6.55 31.8 8.7 31.6 12.25 28.3 12.85 26.45 12.95 25.2 11.25 L24.8 7.15 22.45 6.65 23.6 11.25 21.85 12.1 Q21.95 15.3 20.75 18.65 20.15 20.25 18.25 20.0 L16.4 19.6 17.15 26.6 12.65 28.2 12.65 31.6 9.8 27.3 8.35 31.05 Q4.55 20.75 -5.9 17.95 -9.55 16.9 -13.35 16.75 L-14.6 19.5 Q-16.3 19.6 -17.6 18.4 L-18.75 17.35 Q-21.85 18.15 -24.55 19.4 -25.8 20.1 -27.35 20.15 L-28.5 19.95 -29.1 18.2 M29.45 4.35 L29.45 1.35 M24.2 0.9 L20.75 2.3 M0.0 29.1 L0.0 29.5 1.8 31.45 4.0 33.55 Q6.65 36.0 10.1 35.35 M25.6 3.05 L18.7 5.5 M-13.35 16.75 L-13.55 15.85 M-18.55 23.75 L-18.95 21.55 M-29.35 31.5 L-29.3 31.55 -29.25 31.8 -28.7 34.75 -27.85 39.15 Q-27.35 42.25 -24.8 44.0 -24.1 44.5 -23.25 44.65 L-21.95 44.55 Q-20.3 43.75 -19.75 42.3 L-19.25 44.6 -18.65 44.4 -17.85 43.7 -17.4 42.8 -17.25 42.3 -16.05 44.55 -14.4 44.75 -13.25 42.45 Q-12.7 46.85 -8.3 45.65 -7.35 45.45 -6.65 44.85 0.15 38.85 0.0 29.5 L-0.3 29.1 Q-3.7 26.1 -8.6 26.75 L-9.85 26.45 -14.1 25.95 Q-16.65 25.5 -18.55 23.75 -19.35 25.8 -21.35 26.25 L-24.25 26.65 -29.3 31.55 -32.65 33.15 -33.0 32.95 Q-34.95 32.6 -35.65 30.75" fill="none" stroke="#000000" stroke-linecap="round" stroke-linejoin="round" stroke-width="2.0"/>
      <path d="M19.55 15.1 L17.0 18.5 M12.5 3.5 Q6.55 3.0 0.95 0.8 L-1.0 0.05 Q-3.9 -1.1 -5.5 -4.0 M-9.5 -31.5 Q-15.7 -30.65 -21.8 -32.15 L-24.5 -33.0 M-2.5 -24.0 L-19.5 -24.45 -26.95 -25.4 -32.0 -26.0 M-20.0 -14.0 Q-22.65 -13.1 -22.35 -10.75 L-22.0 -9.5 M-25.0 -14.0 L-23.5 -10.0 M-0.9 3.9 L-5.0 1.5 M-35.0 1.25 L-32.0 -0.5" fill="none" stroke="#a97745" stroke-linecap="round" stroke-linejoin="round" stroke-width="2.0"/>
      <path d="M27.35 18.4 L27.85 22.3 M8.75 39.6 Q9.95 42.9 8.5 46.15 L7.6 48.1 M25.05 22.3 Q26.7 25.6 26.5 29.25 L26.2 32.7 M22.1 26.95 Q24.35 31.1 23.55 35.8 23.15 38.25 22.3 40.5 M17.0 37.05 Q17.95 45.75 14.25 53.8 L13.1 55.7 M8.05 53.85 Q8.4 58.0 5.75 60.85 L5.5 61.0 M3.9 57.75 L1.8 62.85 M18.85 49.0 L17.0 54.55 M4.35 29.7 L-1.15 25.95 Q-2.3 25.0 -3.75 24.5 L-5.75 24.05 Q-11.3 23.55 -16.15 20.7 M3.65 26.0 Q0.55 21.3 -4.9 20.25 -7.85 19.9 -10.6 18.4 M-9.2 21.15 L-12.9 19.35 M-39.15 26.7 Q-34.8 25.5 -31.9 21.75 L-31.3 21.85 M-32.2 30.2 Q-30.9 28.25 -29.05 26.95 L-23.5 23.2 -23.35 23.15 -22.1 20.5 M-38.45 31.05 Q-37.6 28.3 -34.75 27.0 L-32.7 25.95 Q-29.9 24.6 -28.1 22.1 M-19.1 46.25 L-19.95 49.0 -20.5 49.7 M-14.3 46.7 L-14.05 47.75 -14.3 48.8 M-40.3 37.3 Q-41.55 38.45 -41.65 40.0 L-42.3 45.9 Q-42.85 49.55 -41.7 53.15 M-13.15 58.25 Q-12.4 62.5 -14.75 66.2 L-17.5 70.9 -18.85 73.0 M-6.9 57.55 Q-7.6 61.75 -9.3 65.85 L-9.9 66.95 M-1.15 49.25 Q0.85 57.7 -4.55 64.4 -6.4 66.75 -7.9 69.2 -8.15 69.7 -8.3 69.3 M-31.8 44.4 Q-32.85 47.75 -32.85 50.95 L-32.7 52.45 M-22.55 56.85 Q-21.2 61.95 -23.2 66.6 L-24.2 69.05 M-30.4 53.4 Q-29.45 61.35 -30.3 69.4 L-30.4 70.2 M-33.15 62.6 Q-34.25 70.3 -32.15 77.7 L-32.0 78.5 M-17.5 47.2 L-17.95 49.5 M-36.4 44.55 L-37.3 69.3" fill="none" stroke="#999999" stroke-linecap="round" stroke-linejoin="round" stroke-width="1.5"/>
    </g>
    </g>
  </g>
  <defs>
    <radialGradient cx="0" cy="0" gradientTransform="matrix(0.0543, 0.0, 0.0, 0.0824, -20.0, -3.0)" gradientUnits="userSpaceOnUse" id="gradient0" r="819.2" spreadMethod="pad">
      <stop offset="0.0" stop-color="#e2b983"/>
      <stop offset="0.6274509803921569" stop-color="#d9a166"/>
      <stop offset="1.0" stop-color="#c08456"/>
    </radialGradient>
  </defs>
</svg>