<svg xmlns:xlink="http://www.w3.org/1999/xlink" xmlns="http://www.w3.org/2000/svg" height="119.1px" width="213.05px">
  <g transform="matrix(1.0, 0.0, 0.0, 1.0, 94.65, 81.2)">
    <g data-characterId="937" height="70.75" transform="matrix(1.0, 0.0, 0.0, 1.0, -80.35, -39.8)" width="172.5" xlink:href="#shape0"><g id="shape0" transform="matrix(1.0, 0.0, 0.0, 1.0, 80.35, 39.8)">
      <path d="M27.25 -33.2 L26.95 -33.55 27.1 -35.2 Q31.25 -34.5 32.45 -33.75 L35.1 -31.85 Q35.95 -31.05 35.9 -30.4 L36.25 -29.65 36.6 -27.4 Q36.7 -24.4 36.05 -21.6 L35.95 -21.2 35.75 -20.55 34.05 -15.35 33.65 -14.8 Q30.85 -12.65 27.3 -11.45 L18.6 -8.65 18.45 -8.6 9.55 -7.25 9.4 -7.2 2.0 -6.3 Q-1.45 -5.9 -5.0 -6.35 L-12.25 -7.3 -12.85 -7.4 -19.0 -8.85 Q-20.7 -9.3 -22.25 -10.05 -24.5 -11.1 -26.45 -12.7 L-28.0 -14.25 -29.1 -16.15 -29.5 -18.25 -29.45 -22.15 -28.95 -29.9 -25.15 -32.3 Q-23.45 -33.25 -21.25 -33.45 L-21.1 -32.55 -21.35 -31.95 -22.0 -31.2 -23.3 -30.55 -25.75 -29.3 Q-26.65 -28.8 -27.0 -27.7 -27.6 -25.85 -26.0 -23.65 -24.45 -21.5 -23.1 -20.6 L-22.55 -20.25 -19.9 -18.7 Q-18.0 -17.7 -14.15 -16.75 -10.35 -15.85 -5.85 -15.3 L3.0 -14.75 12.1 -15.6 21.2 -17.3 Q25.65 -18.2 28.85 -20.7 L29.0 -20.8 30.2 -21.85 Q31.45 -23.1 32.1 -24.6 L32.6 -26.4 32.85 -28.6 Q32.85 -29.65 32.15 -30.4 L30.55 -31.9 28.2 -32.5 27.25 -33.2 M1.0 -8.5 L1.0 -12.5 10.45 -13.2 14.05 -13.75 19.45 -14.7 20.5 -14.85 24.55 -15.75 26.4 -16.3 27.6 -16.8 28.4 -17.2 Q29.0 -17.5 29.55 -17.95 30.75 -19.0 31.55 -21.0 32.2 -22.65 32.1 -24.6 32.2 -22.65 31.55 -21.0 30.75 -19.0 29.55 -17.95 29.0 -17.5 28.4 -17.2 L27.6 -16.8 26.4 -16.3 24.55 -15.75 20.5 -14.85 20.5 -14.5 20.5 -11.5 20.5 -14.5 20.5 -14.85 19.45 -14.7 14.05 -13.75 10.45 -13.2 1.0 -12.5 1.0 -8.5 M1.0 -13.0 L1.0 -12.5 1.0 -13.0 M-7.0 -9.0 Q-6.6 -11.5 -7.4 -13.55 L-2.45 -12.75 0.5 -12.5 1.0 -12.5 0.5 -12.5 -2.45 -12.75 -7.4 -13.55 Q-6.6 -11.5 -7.0 -9.0 M-27.5 -23.5 Q-27.35 -20.85 -24.95 -19.1 -24.5 -18.75 -23.95 -18.6 L-17.55 -16.9 Q-17.0 -16.75 -16.55 -16.45 -13.55 -14.6 -10.0 -14.0 L-7.4 -13.55 -10.0 -14.0 Q-13.55 -14.6 -16.55 -16.45 -17.0 -16.75 -17.55 -16.9 L-23.95 -18.6 Q-24.5 -18.75 -24.95 -19.1 -27.35 -20.85 -27.5 -23.5" fill="url(#gradient0)" fill-rule="evenodd" stroke="none"/>
      <path d="M27.25 -33.2 L28.2 -32.5 30.55 -31.9 32.15 -30.4 Q32.85 -29.65 32.85 -28.6 L32.6 -26.4 32.1 -24.6 Q31.45 -23.1 30.2 -21.85 L29.0 -20.8 27.25 -33.2 M32.0 -25.5 L32.1 -24.6 32.0 -25.5" fill="url(#gradient1)" fill-rule="evenodd" stroke="none"/>
      <path d="M-29.45 -22.15 L-29.5 -18.25 -29.1 -16.15 -28.0 -14.25 -26.45 -12.7 Q-24.5 -11.1 -22.25 -10.05 -20.7 -9.3 -19.0 -8.85 L-12.85 -7.4 -12.25 -7.3 -5.0 -6.35 Q-1.45 -5.9 2.0 -6.3 L9.4 -7.2 9.55 -7.25 18.45 -8.6 18.6 -8.65 27.3 -11.45 Q30.85 -12.65 33.65 -14.8 L34.05 -15.35 35.75 -20.55 35.95 -21.2 36.05 -21.6 36.2 -21.4 36.4 -21.1 37.15 -20.4 Q37.8 -19.95 38.7 -19.95 L38.45 -18.65 37.55 -16.55 35.2 -13.55 35.15 -13.5 35.1 -13.45 34.9 -13.25 Q32.1 -10.2 28.65 -7.95 25.1 -5.5 22.35 -2.4 L22.15 -2.15 20.35 0.55 Q19.8 1.5 19.85 2.6 L19.95 3.4 Q20.05 4.4 20.5 5.4 21.65 8.1 23.45 10.2 26.25 13.55 30.4 14.15 32.75 14.05 34.9 13.25 L43.0 9.9 51.2 6.5 Q54.0 5.3 56.95 4.3 L57.05 8.45 56.8 13.1 55.95 18.55 55.3 20.4 Q54.45 22.1 52.95 22.8 L51.4 23.2 Q41.5 26.2 31.2 28.0 L23.45 28.95 13.65 30.4 9.35 30.1 Q5.9 29.25 2.95 27.1 L-0.4 24.2 -3.3 20.9 -6.5 16.5 -7.1 17.8 -9.5 22.15 Q-11.65 25.95 -15.75 27.7 -20.25 29.55 -25.3 29.4 L-32.5 28.7 Q-36.15 28.4 -39.15 26.2 -41.4 24.6 -42.75 22.3 L-47.25 14.5 -51.5 6.5 -51.25 5.6 -50.85 5.7 -44.2 7.25 -38.9 8.7 -32.25 9.35 -30.95 8.8 -26.05 6.0 Q-24.3 4.95 -23.9 3.05 -23.65 1.9 -23.7 0.8 L-23.9 -1.05 -23.75 -1.4 -23.05 -1.15 Q-19.75 -0.1 -16.7 -1.7 -15.05 -2.45 -13.6 -3.55 -13.0 -3.95 -12.7 -4.65 L-12.5 -5.5 -12.7 -4.65 Q-13.0 -3.95 -13.6 -3.55 -15.05 -2.45 -16.7 -1.7 -19.75 -0.1 -23.05 -1.15 L-23.75 -1.4 -24.0 -1.5 -27.2 -7.0 -29.4 -9.75 Q-30.25 -10.9 -30.75 -12.2 L-31.8 -15.35 -32.15 -16.6 -32.95 -20.2 -29.45 -22.15 M15.0 5.5 L14.0 5.25 Q11.55 5.35 10.05 3.5 L8.35 1.65 Q6.8 0.1 6.2 -2.05 L5.65 -3.0 Q3.95 -4.25 1.5 -4.15 L-7.0 -4.5 Q-9.0 -4.85 -10.4 -3.9 -15.0 -0.8 -21.0 2.0 -15.0 -0.8 -10.4 -3.9 -9.0 -4.85 -7.0 -4.5 L1.5 -4.15 Q3.95 -4.25 5.65 -3.0 L6.2 -2.05 Q6.8 0.1 8.35 1.65 L10.05 3.5 Q11.55 5.35 14.0 5.25 L15.0 5.5 M21.55 -2.6 Q20.25 -2.6 19.35 -4.35 18.45 -6.1 18.45 -8.6 18.45 -6.1 19.35 -4.35 20.25 -2.6 21.55 -2.6 M17.5 4.0 Q17.45 3.5 16.95 3.4 15.35 3.2 14.1 2.55 11.15 0.75 9.5 -2.45 8.45 -4.5 9.5 -6.5 8.45 -4.5 9.5 -2.45 11.15 0.75 14.1 2.55 15.35 3.2 16.95 3.4 17.45 3.5 17.5 4.0 M-22.5 -9.5 Q-24.0 -7.85 -26.15 -7.15 L-27.2 -7.0 -26.15 -7.15 Q-24.0 -7.85 -22.5 -9.5" fill="url(#gradient2)" fill-rule="evenodd" stroke="none"/>
      <path d="M38.7 -19.95 L40.3 -23.1 Q40.9 -23.95 41.15 -25.0 L42.95 -32.5 43.6 -34.75 Q44.0 -35.95 45.5 -36.2 L50.7 -36.65 Q53.25 -36.7 54.7 -34.7 L55.75 -32.9 56.65 -30.4 Q57.85 -26.2 60.5 -22.6 62.15 -20.35 64.05 -18.25 L65.25 -17.25 Q69.45 -14.85 74.25 -14.05 L80.35 -12.85 85.85 -11.4 88.8 -10.3 Q90.15 -9.55 90.55 -8.05 91.6 -3.95 91.65 0.1 L91.4 1.15 Q91.0 2.15 89.85 2.5 L88.35 3.15 82.9 3.1 73.65 2.95 65.3 2.7 Q61.55 2.5 58.15 3.85 L56.95 4.3 Q54.0 5.3 51.2 6.5 L43.0 9.9 34.9 13.25 Q32.75 14.05 30.4 14.15 26.25 13.55 23.45 10.2 21.65 8.1 20.5 5.4 20.05 4.4 19.95 3.4 L19.85 2.6 Q19.8 1.5 20.35 0.55 L22.15 -2.15 22.35 -2.4 Q25.1 -5.5 28.65 -7.95 32.1 -10.2 34.9 -13.25 L35.1 -13.45 35.15 -13.5 35.2 -13.55 37.55 -16.55 38.45 -18.65 38.7 -19.95 M86.5 -5.5 Q86.05 -8.75 82.95 -9.3 L81.05 -9.7 72.95 -11.3 71.05 -11.75 Q66.05 -12.95 61.5 -15.0 L60.7 -15.65 58.2 -19.1 Q55.55 -22.9 53.45 -27.0 52.65 -28.55 52.4 -31.0 52.2 -33.0 50.95 -33.35 L50.1 -33.7 Q47.8 -34.75 46.1 -32.45 45.75 -32.0 45.7 -31.5 45.6 -30.1 45.1 -28.95 L44.05 -26.95 40.0 -20.0 39.55 -19.0 Q39.05 -17.65 38.05 -16.45 35.85 -13.65 33.05 -10.95 L28.85 -7.2 Q27.3 -5.9 25.55 -3.45 L24.9 -2.6 Q22.35 -0.1 23.0 3.0 22.35 -0.1 24.9 -2.6 L25.55 -3.45 Q27.3 -5.9 28.85 -7.2 L33.05 -10.95 Q35.85 -13.65 38.05 -16.45 39.05 -17.65 39.55 -19.0 L40.0 -20.0 44.05 -26.95 45.1 -28.95 Q45.6 -30.1 45.7 -31.5 45.75 -32.0 46.1 -32.45 47.8 -34.75 50.1 -33.7 L50.95 -33.35 Q52.2 -33.0 52.4 -31.0 52.65 -28.55 53.45 -27.0 55.55 -22.9 58.2 -19.1 L60.7 -15.65 61.5 -15.0 Q66.05 -12.95 71.05 -11.75 L72.95 -11.3 81.05 -9.7 82.95 -9.3 Q86.05 -8.75 86.5 -5.5 M42.0 -11.5 Q40.65 -10.1 39.65 -8.4 39.25 -7.75 39.4 -7.1 39.85 -5.25 41.5 -5.0 47.0 -4.25 51.05 -6.95 L51.65 -7.65 Q52.25 -9.25 54.0 -9.45 L55.0 -9.55 Q56.5 -9.75 56.0 -8.0 56.5 -9.75 55.0 -9.55 L54.0 -9.45 Q52.25 -9.25 51.65 -7.65 L51.05 -6.95 Q47.0 -4.25 41.5 -5.0 39.85 -5.25 39.4 -7.1 39.25 -7.75 39.65 -8.4 40.65 -10.1 42.0 -11.5 M66.0 -5.5 L65.2 -6.15 63.45 -6.5 Q60.65 -6.25 58.0 -6.5 L59.5 -12.0 51.5 -11.35 Q50.55 -11.15 50.05 -10.35 47.95 -6.65 44.1 -5.55 42.45 -7.8 44.55 -9.9 L45.75 -11.05 Q46.8 -12.05 47.35 -13.25 47.05 -14.55 46.0 -15.2 44.3 -16.25 42.5 -15.5 44.3 -16.25 46.0 -15.2 47.05 -14.55 47.35 -13.25 46.8 -12.05 45.75 -11.05 L44.55 -9.9 Q42.45 -7.8 44.1 -5.55 47.95 -6.65 50.05 -10.35 50.55 -11.15 51.5 -11.35 L59.5 -12.0 58.0 -6.5 Q60.65 -6.25 63.45 -6.5 L65.2 -6.15 66.0 -5.5 M80.5 -3.0 L76.2 -3.0 66.7 -3.95 61.85 -4.15 Q57.6 -4.25 53.55 -2.65 49.25 -1.05 45.25 1.2 L37.75 5.55 33.65 7.45 31.4 7.55 Q30.25 7.15 29.2 6.5 27.4 5.35 27.05 3.3 26.75 1.45 27.6 -0.1 29.2 -2.95 31.45 -5.45 L36.7 -11.25 41.3 -16.05 Q43.65 -18.5 45.0 -21.45 46.9 -25.5 47.5 -30.0 46.9 -25.5 45.0 -21.45 43.65 -18.5 41.3 -16.05 L36.7 -11.25 31.45 -5.45 Q29.2 -2.95 27.6 -0.1 26.75 1.45 27.05 3.3 27.4 5.35 29.2 6.5 30.25 7.15 31.4 7.55 L33.65 7.45 37.75 5.55 45.25 1.2 Q49.25 -1.05 53.55 -2.65 57.6 -4.25 61.85 -4.15 L66.7 -3.95 76.2 -3.0 80.5 -3.0 M78.5 -1.5 L76.0 -1.5 73.55 -1.3 68.5 -1.1 62.5 -1.25 61.0 -1.05 Q51.9 1.25 43.4 5.85 L40.1 7.7 Q36.65 9.75 33.0 11.0 36.65 9.75 40.1 7.7 L43.4 5.85 Q51.9 1.25 61.0 -1.05 L62.5 -1.25 68.5 -1.1 73.55 -1.3 76.0 -1.5 78.5 -1.5" fill="url(#gradient3)" fill-rule="evenodd" stroke="none"/>
      <path d="M-51.25 5.6 L-51.35 5.6 -60.7 5.05 -67.5 6.0 Q-71.75 6.35 -76.0 5.95 -77.2 5.9 -78.1 5.3 -80.0 4.2 -79.85 2.05 -79.7 -0.2 -78.7 -2.25 -78.15 -3.3 -77.2 -3.8 L-71.4 -7.15 -64.15 -11.35 -59.1 -14.65 -55.7 -17.1 Q-52.4 -19.5 -49.95 -23.05 -47.6 -26.55 -45.8 -30.5 -44.55 -33.3 -42.9 -35.85 -42.0 -37.2 -40.7 -38.2 -39.75 -38.9 -38.6 -39.25 L-37.35 -39.1 Q-34.95 -37.85 -34.45 -35.0 -33.85 -31.6 -33.6 -28.0 L-32.95 -20.2 -32.15 -16.6 -31.8 -15.35 -30.75 -12.2 Q-30.25 -10.9 -29.4 -9.75 L-27.2 -7.0 -24.0 -1.5 -23.9 -1.05 -23.7 0.8 Q-23.65 1.9 -23.9 3.05 -24.3 4.95 -26.05 6.0 L-30.95 8.8 -32.25 9.35 -38.9 8.7 -44.2 7.25 -50.85 5.7 -51.25 5.6 M-30.0 -10.0 Q-32.15 -16.35 -35.95 -22.55 L-36.35 -23.55 Q-37.3 -27.55 -36.8 -32.0 L-36.6 -33.05 Q-36.05 -35.45 -37.45 -36.1 L-37.95 -36.2 Q-39.95 -35.95 -41.35 -34.4 L-44.35 -30.85 -45.9 -28.45 -46.65 -27.1 -51.4 -19.45 Q-52.2 -18.1 -53.1 -17.1 L-56.05 -13.55 Q-57.3 -11.85 -59.55 -10.65 L-75.5 -2.0 -76.35 -1.35 Q-77.95 0.6 -77.5 3.5 -77.95 0.6 -76.35 -1.35 L-75.5 -2.0 -59.55 -10.65 Q-57.3 -11.85 -56.05 -13.55 L-53.1 -17.1 Q-52.2 -18.1 -51.4 -19.45 L-46.65 -27.1 -45.9 -28.45 -44.35 -30.85 -41.35 -34.4 Q-39.95 -35.95 -37.95 -36.2 L-37.45 -36.1 Q-36.05 -35.45 -36.6 -33.05 L-36.8 -32.0 Q-37.3 -27.55 -36.35 -23.55 L-35.95 -22.55 Q-32.15 -16.35 -30.0 -10.0 M-72.0 1.0 L-71.7 0.6 -66.35 -1.3 Q-63.65 -2.15 -60.95 -3.15 -57.7 -4.45 -54.3 -3.85 -52.65 -3.45 -50.95 -2.55 -46.65 -0.15 -43.15 3.2 -42.1 4.15 -40.75 3.8 L-37.55 3.1 Q-35.0 2.7 -33.65 0.2 -33.2 -0.65 -33.0 -1.55 -32.85 -2.25 -33.05 -2.8 -33.65 -4.75 -34.55 -6.45 L-37.0 -11.2 -38.8 -15.25 -39.95 -19.45 Q-40.35 -22.2 -40.2 -24.9 -39.95 -29.3 -38.5 -33.5 -39.95 -29.3 -40.2 -24.9 -40.35 -22.2 -39.95 -19.45 L-38.8 -15.25 -37.0 -11.2 -34.55 -6.45 Q-33.65 -4.75 -33.05 -2.8 -32.85 -2.25 -33.0 -1.55 -33.2 -0.65 -33.65 0.2 -35.0 2.7 -37.55 3.1 L-40.75 3.8 Q-42.1 4.15 -43.15 3.2 -46.65 -0.15 -50.95 -2.55 -52.65 -3.45 -54.3 -3.85 -57.7 -4.45 -60.95 -3.15 -63.65 -2.15 -66.35 -1.3 L-71.7 0.6 -72.0 1.0 M-29.0 0.5 Q-30.35 1.0 -32.05 2.45 -32.75 3.0 -33.6 3.25 L-40.0 4.6 Q-42.0 4.9 -43.5 3.95 -44.25 3.5 -45.05 3.15 L-48.1 1.7 Q-49.3 1.0 -51.1 0.2 L-51.75 -0.25 Q-52.8 -1.2 -53.95 -1.6 -58.0 -3.15 -61.5 0.0 -58.0 -3.15 -53.95 -1.6 -52.8 -1.2 -51.75 -0.25 L-51.1 0.2 Q-49.3 1.0 -48.1 1.7 L-45.05 3.15 Q-44.25 3.5 -43.5 3.95 -42.0 4.9 -40.0 4.6 L-33.6 3.25 Q-32.75 3.0 -32.05 2.45 -30.35 1.0 -29.0 0.5 M-39.0 -9.5 L-40.35 -10.95 -41.25 -11.65 -42.3 -11.5 -41.0 -6.5 Q-42.65 -5.5 -44.55 -5.85 -46.1 -5.85 -46.95 -7.25 L-47.85 -9.1 -48.8 -10.9 Q-50.35 -13.1 -53.05 -12.9 -53.9 -11.45 -54.05 -9.95 L-54.5 -4.5 -54.05 -9.95 Q-53.9 -11.45 -53.05 -12.9 -50.35 -13.1 -48.8 -10.9 L-47.85 -9.1 -46.95 -7.25 Q-46.1 -5.85 -44.55 -5.85 -42.65 -5.5 -41.0 -6.5 L-42.3 -11.5 -41.25 -11.65 -40.35 -10.95 -39.0 -9.5 M-39.5 -7.5 L-39.95 -6.95 -41.1 -5.6 Q-41.75 -5.0 -42.55 -4.9 -45.15 -4.65 -47.45 -5.65 -48.25 -6.0 -48.85 -6.65 -49.55 -7.45 -50.5 -7.35 -52.85 -7.1 -51.5 -4.5 -52.85 -7.1 -50.5 -7.35 -49.55 -7.45 -48.85 -6.65 -48.25 -6.0 -47.45 -5.65 -45.15 -4.65 -42.55 -4.9 -41.75 -5.0 -41.1 -5.6 L-39.95 -6.95 -39.5 -7.5" fill="url(#gradient4)" fill-rule="evenodd" stroke="none"/>
      <path d="M-21.05 -31.95 L-21.1 -31.0 Q-21.2 -28.1 -22.25 -20.75 L-22.55 -20.25 -23.1 -20.6 Q-24.45 -21.5 -26.0 -23.65 -27.6 -25.85 -27.0 -27.7 -26.65 -28.8 -25.75 -29.3 L-23.3 -30.55 -22.0 -31.2 -21.35 -31.95 -21.05 -31.95" fill="url(#gradient5)" fill-rule="evenodd" stroke="none"/>
      <path d="M36.05 -21.6 Q36.7 -24.4 36.6 -27.4 L36.25 -29.65 35.9 -30.4 Q35.95 -31.05 35.1 -31.85 L32.45 -33.75 Q31.25 -34.5 27.1 -35.2 L26.95 -33.55 27.25 -33.2 29.0 -20.8 30.2 -21.85 Q31.45 -23.1 32.1 -24.6 L32.6 -26.4 32.85 -28.6 Q32.85 -29.65 32.15 -30.4 L30.55 -31.9 28.2 -32.5 M-29.45 -22.15 L-29.5 -18.25 -29.1 -16.15 -28.0 -14.25 -26.45 -12.7 Q-24.5 -11.1 -22.25 -10.05 -20.7 -9.3 -19.0 -8.85 L-12.85 -7.4 -12.25 -7.3 -5.0 -6.35 Q-1.45 -5.9 2.0 -6.3 L9.4 -7.2 9.55 -7.25 18.45 -8.6 18.6 -8.65 27.3 -11.45 Q30.85 -12.65 33.65 -14.8 L34.05 -15.35 35.75 -20.55 35.95 -21.2 36.05 -21.6 36.2 -21.4 36.4 -21.1 37.15 -20.4 Q37.8 -19.95 38.7 -19.95 L40.3 -23.1 Q40.9 -23.95 41.15 -25.0 L42.95 -32.5 43.6 -34.75 Q44.0 -35.95 45.5 -36.2 L50.7 -36.65 Q53.25 -36.7 54.7 -34.7 L55.75 -32.9 56.65 -30.4 Q57.85 -26.2 60.5 -22.6 62.15 -20.35 64.05 -18.25 L65.25 -17.25 Q69.45 -14.85 74.25 -14.05 L80.35 -12.85 85.85 -11.4 88.8 -10.3 Q90.15 -9.55 90.55 -8.05 91.6 -3.95 91.65 0.1 L91.4 1.15 Q91.0 2.15 89.85 2.5 L88.35 3.15 82.9 3.1 73.65 2.95 65.3 2.7 Q61.55 2.5 58.15 3.85 L56.95 4.3 57.05 8.45 56.8 13.1 55.95 18.55 55.3 20.4 Q54.45 22.1 52.95 22.8 L51.4 23.2 Q41.5 26.2 31.2 28.0 L23.45 28.95 13.65 30.4 9.35 30.1 Q5.9 29.25 2.95 27.1 L-0.4 24.2 -3.3 20.9 -6.5 16.5 -7.1 17.8 -9.5 22.15 Q-11.65 25.95 -15.75 27.7 -20.25 29.55 -25.3 29.4 L-32.5 28.7 Q-36.15 28.4 -39.15 26.2 -41.4 24.6 -42.75 22.3 L-47.25 14.5 -51.5 6.5 M-51.25 5.6 L-51.35 5.6 -60.7 5.05 -67.5 6.0 Q-71.75 6.35 -76.0 5.95 -77.2 5.9 -78.1 5.3 -80.0 4.2 -79.85 2.05 -79.7 -0.2 -78.7 -2.25 -78.15 -3.3 -77.2 -3.8 L-71.4 -7.15 -64.15 -11.35 -59.1 -14.65 -55.7 -17.1 Q-52.4 -19.5 -49.95 -23.05 -47.6 -26.55 -45.8 -30.5 -44.55 -33.3 -42.9 -35.85 -42.0 -37.2 -40.7 -38.2 -39.75 -38.9 -38.6 -39.25 L-37.35 -39.1 Q-34.95 -37.85 -34.45 -35.0 -33.85 -31.6 -33.6 -28.0 L-32.95 -20.2 -29.45 -22.15 -28.95 -29.9 -25.15 -32.3 Q-23.45 -33.25 -21.25 -33.45 M-21.1 -32.55 L-21.05 -31.95 -21.1 -31.0 Q-21.2 -28.1 -22.25 -20.75 M-22.55 -20.25 L-19.9 -18.7 Q-18.0 -17.7 -14.15 -16.75 -10.35 -15.85 -5.85 -15.3 L3.0 -14.75 12.1 -15.6 21.2 -17.3 Q25.65 -18.2 28.85 -20.7 L29.0 -20.8 M9.5 -6.5 Q8.45 -4.5 9.5 -2.45 11.15 0.75 14.1 2.55 15.35 3.2 16.95 3.4 17.45 3.5 17.5 4.0 M18.45 -8.6 Q18.45 -6.1 19.35 -4.35 20.25 -2.6 21.55 -2.6 M38.7 -19.95 L38.45 -18.65 37.55 -16.55 35.2 -13.55 35.15 -13.5 35.1 -13.45 34.9 -13.25 Q32.1 -10.2 28.65 -7.95 25.1 -5.5 22.35 -2.4 L22.15 -2.15 20.35 0.55 Q19.8 1.5 19.85 2.6 L19.95 3.4 Q20.05 4.4 20.5 5.4 21.65 8.1 23.45 10.2 26.25 13.55 30.4 14.15 32.75 14.05 34.9 13.25 L43.0 9.9 51.2 6.5 Q54.0 5.3 56.95 4.3 M47.5 -30.0 Q46.9 -25.5 45.0 -21.45 43.65 -18.5 41.3 -16.05 L36.7 -11.25 31.45 -5.45 Q29.2 -2.95 27.6 -0.1 26.75 1.45 27.05 3.3 27.4 5.35 29.2 6.5 30.25 7.15 31.4 7.55 L33.65 7.45 37.75 5.55 45.25 1.2 Q49.25 -1.05 53.55 -2.65 57.6 -4.25 61.85 -4.15 L66.7 -3.95 76.2 -3.0 80.5 -3.0 M42.5 -15.5 Q44.3 -16.25 46.0 -15.2 47.05 -14.55 47.35 -13.25 46.8 -12.05 45.75 -11.05 L44.55 -9.9 Q42.45 -7.8 44.1 -5.55 47.95 -6.65 50.05 -10.35 50.55 -11.15 51.5 -11.35 L59.5 -12.0 58.0 -6.5 Q60.65 -6.25 63.45 -6.5 L65.2 -6.15 66.0 -5.5 M-38.5 -33.5 Q-39.95 -29.3 -40.2 -24.9 -40.35 -22.2 -39.95 -19.45 L-38.8 -15.25 -37.0 -11.2 -34.55 -6.45 Q-33.65 -4.75 -33.05 -2.8 -32.85 -2.25 -33.0 -1.55 -33.2 -0.65 -33.65 0.2 -35.0 2.7 -37.55 3.1 L-40.75 3.8 Q-42.1 4.15 -43.15 3.2 -46.65 -0.15 -50.95 -2.55 -52.65 -3.45 -54.3 -3.85 -57.7 -4.45 -60.95 -3.15 -63.65 -2.15 -66.35 -1.3 L-71.7 0.6 -72.0 1.0 M-54.5 -4.5 L-54.05 -9.95 Q-53.9 -11.45 -53.05 -12.9 -50.35 -13.1 -48.8 -10.9 L-47.85 -9.1 -46.95 -7.25 Q-46.1 -5.85 -44.55 -5.85 -42.65 -5.5 -41.0 -6.5 L-42.3 -11.5 -41.25 -11.65 -40.35 -10.95 -39.0 -9.5 M-21.35 -31.95 L-22.0 -31.2 -23.3 -30.55 -25.75 -29.3 Q-26.65 -28.8 -27.0 -27.7 -27.6 -25.85 -26.0 -23.65 -24.45 -21.5 -23.1 -20.6 L-22.55 -20.25 M-21.35 -31.95 L-21.1 -32.55 M-32.95 -20.2 L-32.15 -16.6 -31.8 -15.35 -30.75 -12.2 Q-30.25 -10.9 -29.4 -9.75 L-27.2 -7.0 -26.15 -7.15 Q-24.0 -7.85 -22.5 -9.5 M-23.75 -1.4 L-23.05 -1.15 Q-19.75 -0.1 -16.7 -1.7 -15.05 -2.45 -13.6 -3.55 -13.0 -3.95 -12.7 -4.65 L-12.5 -5.5 M-27.2 -7.0 L-24.0 -1.5 -23.75 -1.4 M-23.9 -1.05 L-23.7 0.8 Q-23.65 1.9 -23.9 3.05 -24.3 4.95 -26.05 6.0 L-30.95 8.8 -32.25 9.35 -38.9 8.7 -44.2 7.25 -50.85 5.7 -51.25 5.6 M-24.0 -1.5 L-23.9 -1.05" fill="none" stroke="#000000" stroke-linecap="round" stroke-linejoin="round" stroke-width="2.0"/>
      <path d="M1.0 -12.5 L1.0 -13.0" fill="none" stroke="#ffffff" stroke-linecap="round" stroke-linejoin="round" stroke-width="2.0"/>
      <path d="M32.1 -24.6 Q32.2 -22.65 31.55 -21.0 30.75 -19.0 29.55 -17.95 29.0 -17.5 28.4 -17.2 L27.6 -16.8 26.4 -16.3 24.55 -15.75 20.5 -14.85 20.5 -14.5 20.5 -11.5 M20.5 -14.85 L19.45 -14.7 14.05 -13.75 10.45 -13.2 1.0 -12.5 1.0 -8.5 M1.0 -12.5 L0.5 -12.5 -2.45 -12.75 -7.4 -13.55 Q-6.6 -11.5 -7.0 -9.0 M-21.0 2.0 Q-15.0 -0.8 -10.4 -3.9 -9.0 -4.85 -7.0 -4.5 L1.5 -4.15 Q3.95 -4.25 5.65 -3.0 L6.2 -2.05 Q6.8 0.1 8.35 1.65 L10.05 3.5 Q11.55 5.35 14.0 5.25 L15.0 5.5 M23.0 3.0 Q22.35 -0.1 24.9 -2.6 L25.55 -3.45 Q27.3 -5.9 28.85 -7.2 L33.05 -10.95 Q35.85 -13.65 38.05 -16.45 39.05 -17.65 39.55 -19.0 L40.0 -20.0 44.05 -26.95 45.1 -28.95 Q45.6 -30.1 45.7 -31.5 45.75 -32.0 46.1 -32.45 47.8 -34.75 50.1 -33.7 L50.95 -33.35 Q52.2 -33.0 52.4 -31.0 52.65 -28.55 53.45 -27.0 55.55 -22.9 58.2 -19.1 L60.7 -15.65 61.5 -15.0 Q66.05 -12.95 71.05 -11.75 L72.95 -11.3 81.05 -9.7 82.95 -9.3 Q86.05 -8.75 86.5 -5.5 M32.1 -24.6 L32.0 -25.5 M56.0 -8.0 Q56.5 -9.75 55.0 -9.55 L54.0 -9.45 Q52.25 -9.25 51.65 -7.65 L51.05 -6.95 Q47.0 -4.25 41.5 -5.0 39.85 -5.25 39.4 -7.1 39.25 -7.75 39.65 -8.4 40.65 -10.1 42.0 -11.5 M33.0 11.0 Q36.65 9.75 40.1 7.7 L43.4 5.85 Q51.9 1.25 61.0 -1.05 L62.5 -1.25 68.5 -1.1 73.55 -1.3 76.0 -1.5 78.5 -1.5 M-77.5 3.5 Q-77.95 0.6 -76.35 -1.35 L-75.5 -2.0 -59.55 -10.65 Q-57.3 -11.85 -56.05 -13.55 L-53.1 -17.1 Q-52.2 -18.1 -51.4 -19.45 L-46.65 -27.1 -45.9 -28.45 -44.35 -30.85 -41.35 -34.4 Q-39.95 -35.95 -37.95 -36.2 L-37.45 -36.1 Q-36.05 -35.45 -36.6 -33.05 L-36.8 -32.0 Q-37.3 -27.55 -36.35 -23.55 L-35.95 -22.55 Q-32.15 -16.35 -30.0 -10.0 M-61.5 0.0 Q-58.0 -3.15 -53.95 -1.6 -52.8 -1.2 -51.75 -0.25 L-51.1 0.2 Q-49.3 1.0 -48.1 1.7 L-45.05 3.15 Q-44.25 3.5 -43.5 3.95 -42.0 4.9 -40.0 4.6 L-33.6 3.25 Q-32.75 3.0 -32.05 2.45 -30.35 1.0 -29.0 0.5 M-51.5 -4.5 Q-52.85 -7.1 -50.5 -7.35 -49.55 -7.45 -48.85 -6.65 -48.25 -6.0 -47.45 -5.65 -45.15 -4.65 -42.55 -4.9 -41.75 -5.0 -41.1 -5.6 L-39.95 -6.95 -39.5 -7.5 M-7.4 -13.55 L-10.0 -14.0 Q-13.55 -14.6 -16.55 -16.45 -17.0 -16.75 -17.55 -16.9 L-23.95 -18.6 Q-24.5 -18.75 -24.95 -19.1 -27.35 -20.85 -27.5 -23.5" fill="none" stroke="#ffff99" stroke-linecap="square" stroke-linejoin="miter-clip" stroke-miterlimit="3.0" stroke-width="2.0"/>
    </g>
    </g>
  </g>
  <defs>
    <linearGradient gradientTransform="matrix(0.0403, 0.0, 0.0, 0.0178, 3.55, -20.65)" gradientUnits="userSpaceOnUse" id="gradient0" spreadMethod="pad" x1="-819.2" x2="819.2">
      <stop offset="0.0" stop-color="#896d29"/>
      <stop offset="0.32941176470588235" stop-color="#fff29a"/>
      <stop offset="0.7490196078431373" stop-color="#917d33"/>
      <stop offset="1.0" stop-color="#4b3623"/>
    </linearGradient>
    <linearGradient gradientTransform="matrix(0.0034, 0.0, 0.0, 0.0076, 30.05, -27.0)" gradientUnits="userSpaceOnUse" id="gradient1" spreadMethod="pad" x1="-819.2" x2="819.2">
      <stop offset="0.0" stop-color="#896d29"/>
      <stop offset="0.32941176470588235" stop-color="#fff29a"/>
      <stop offset="0.7490196078431373" stop-color="#917d33"/>
      <stop offset="1.0" stop-color="#4b3623"/>
    </linearGradient>
    <linearGradient gradientTransform="matrix(0.0663, 0.0, 0.0, 0.0321, 2.75, 4.15)" gradientUnits="userSpaceOnUse" id="gradient2" spreadMethod="pad" x1="-819.2" x2="819.2">
      <stop offset="0.0" stop-color="#896d29"/>
      <stop offset="0.32941176470588235" stop-color="#fff29a"/>
      <stop offset="0.7490196078431373" stop-color="#917d33"/>
      <stop offset="1.0" stop-color="#4b3623"/>
    </linearGradient>
    <linearGradient gradientTransform="matrix(0.0438, 0.0, 0.0, 0.031, 55.75, -11.25)" gradientUnits="userSpaceOnUse" id="gradient3" spreadMethod="pad" x1="-819.2" x2="819.2">
      <stop offset="0.0" stop-color="#896d29"/>
      <stop offset="0.32941176470588235" stop-color="#fff29a"/>
      <stop offset="0.7490196078431373" stop-color="#917d33"/>
      <stop offset="1.0" stop-color="#4b3623"/>
    </linearGradient>
    <linearGradient gradientTransform="matrix(0.0343, 0.0, 0.0, 0.0297, -51.8, -15.0)" gradientUnits="userSpaceOnUse" id="gradient4" spreadMethod="pad" x1="-819.2" x2="819.2">
      <stop offset="0.0" stop-color="#896d29"/>
      <stop offset="0.32941176470588235" stop-color="#fff29a"/>
      <stop offset="0.7490196078431373" stop-color="#917d33"/>
      <stop offset="1.0" stop-color="#4b3623"/>
    </linearGradient>
    <linearGradient gradientTransform="matrix(0.0037, 0.0, 0.0, 0.0071, -24.1, -26.1)" gradientUnits="userSpaceOnUse" id="gradient5" spreadMethod="pad" x1="-819.2" x2="819.2">
      <stop offset="0.0" stop-color="#896d29"/>
      <stop offset="0.32941176470588235" stop-color="#fff29a"/>
      <stop offset="0.7490196078431373" stop-color="#917d33"/>
      <stop offset="1.0" stop-color="#4b3623"/>
    </linearGradient>
  </defs>
</svg>