<svg xmlns:xlink="http://www.w3.org/1999/xlink" xmlns="http://www.w3.org/2000/svg" height="141.1px" width="125.05px">
  <g transform="matrix(1.0, 0.0, 0.0, 1.0, 48.6, 54.85)">
    <g data-characterId="951" height="105.0" transform="matrix(1.0, 0.0, 0.0, 1.0, -38.05, -52.5)" width="76.4" xlink:href="#shape0"><g id="shape0" transform="matrix(1.0, 0.0, 0.0, 1.0, 38.05, 52.5)">
      <path d="M29.45 16.45 L28.55 16.75 Q29.9 23.5 28.15 30.05 27.45 32.6 25.55 34.35 L23.9 35.8 Q20.2 38.85 16.15 41.3 12.7 43.4 8.95 45.05 1.5 48.4 -6.45 50.85 L-7.9 51.3 Q-15.95 53.35 -23.45 49.6 -25.4 48.6 -26.5 45.4 L-28.8 38.55 -30.9 32.0 -30.95 31.95 -32.65 26.8 -33.45 24.45 -33.65 23.75 -33.3 23.65 Q-27.9 21.55 -22.5 21.65 L-18.85 21.95 -16.35 22.4 Q-11.25 23.25 -9.45 24.25 -7.3 25.45 1.5 25.95 10.25 26.45 16.3 17.3 22.35 8.1 25.55 11.75 L26.1 12.4 29.45 16.45 M24.5 13.5 Q23.9 17.25 22.05 20.55 20.25 23.7 17.0 24.55 16.25 24.75 15.75 25.25 14.15 26.95 12.95 29.0 12.5 29.75 12.45 30.55 12.3 33.15 11.5 35.5 12.3 33.15 12.45 30.55 12.5 29.75 12.95 29.0 14.15 26.95 15.75 25.25 16.25 24.75 17.0 24.55 20.25 23.7 22.05 20.55 23.9 17.25 24.5 13.5 M-29.45 27.9 L-29.6 29.25 Q-29.6 30.4 -29.2 31.5 -28.15 34.75 -23.85 37.65 -20.65 34.85 -18.7 36.25 -16.8 37.65 -12.85 38.0 -8.95 38.3 -5.9 35.2 -2.85 32.05 -5.6 29.85 -8.4 27.6 -15.8 26.0 L-22.3 24.8 Q-26.85 24.9 -29.45 27.9" fill="#d9bd96" fill-rule="evenodd" stroke="none"/>
      <path d="M-33.65 23.75 L-35.45 17.5 Q-38.5 8.0 -36.45 -1.45 L-35.85 -4.45 -35.8 -6.55 Q-35.9 -7.35 -36.75 -9.35 -37.65 -11.35 -37.55 -13.85 -37.5 -16.4 -36.35 -19.7 -35.25 -23.0 -33.9 -29.2 -32.55 -35.4 -28.15 -40.65 -23.8 -45.9 -20.95 -47.75 -15.9 -51.1 -9.35 -51.45 L-7.9 -51.6 0.3 -52.0 Q5.75 -52.15 11.5 -49.65 L14.8 -48.0 17.05 -46.75 21.1 -44.1 29.0 -37.85 Q33.65 -33.95 36.05 -24.55 37.35 -19.5 37.7 -14.2 38.15 -7.6 37.1 -1.1 L37.05 -1.0 37.0 -0.45 36.8 0.4 Q35.9 5.15 33.85 9.65 L32.75 11.8 31.15 11.1 32.65 12.05 30.05 16.25 29.45 16.45 26.1 12.4 25.55 11.75 Q22.35 8.1 16.3 17.3 10.25 26.45 1.5 25.95 -7.3 25.45 -9.45 24.25 -11.25 23.25 -16.35 22.4 L-18.85 21.95 -22.5 21.65 Q-27.9 21.55 -33.3 23.65 L-33.65 23.75 M-26.05 -8.65 L-25.4 -8.2 Q-24.55 -7.45 -24.6 -3.7 -24.65 0.0 -25.95 5.8 -27.3 11.6 -28.45 14.05 -29.6 16.5 -27.05 18.5 L-26.4 18.9 Q-24.8 19.85 -22.5 19.75 L-20.05 19.35 -22.5 19.75 Q-24.8 19.85 -26.4 18.9 L-27.05 18.5 Q-29.6 16.5 -28.45 14.05 -27.3 11.6 -25.95 5.8 -24.65 0.0 -24.6 -3.7 -24.55 -7.45 -25.4 -8.2 L-26.05 -8.65 M24.55 -6.25 Q25.25 -11.35 29.75 -12.0 31.0 -11.5 32.15 -9.85 34.9 -6.15 34.2 -1.45 L34.15 -1.2 34.15 -1.0 Q33.65 2.0 32.65 4.9 32.1 6.6 31.7 8.7 L31.15 11.1 Q28.35 14.4 25.55 11.75 28.35 14.4 31.15 11.1 L31.7 8.7 Q32.1 6.6 32.65 4.9 33.65 2.0 34.15 -1.0 L34.15 -1.2 34.2 -1.45 Q34.9 -6.15 32.15 -9.85 31.0 -11.5 29.75 -12.0 25.25 -11.35 24.55 -6.25 M15.0 -6.5 L13.5 -6.0 12.0 -5.75 Q8.85 -5.75 5.95 -4.6 L4.0 -4.3 Q1.35 -4.4 -1.0 -3.5 -1.75 -3.25 -2.15 -2.75 -4.1 -0.35 -6.5 2.0 -4.1 -0.35 -2.15 -2.75 -1.75 -3.25 -1.0 -3.5 1.35 -4.4 4.0 -4.3 L5.95 -4.6 Q8.85 -5.75 12.0 -5.75 L13.5 -6.0 15.0 -6.5 M31.45 -1.65 L31.45 -3.65 31.25 -4.55 Q30.35 -6.65 28.95 -5.15 L28.6 -4.6 Q28.05 -2.8 26.45 -2.15 28.05 -2.8 28.6 -4.6 L28.95 -5.15 Q30.35 -6.65 31.25 -4.55 L31.45 -3.65 31.45 -1.65 M29.45 4.35 L29.45 3.85 29.45 1.35 29.45 3.85 29.45 4.35 M-16.1 20.5 Q-14.4 19.0 -15.05 16.85 -14.4 19.0 -16.1 20.5 M-26.2 18.55 L-26.25 18.55 -26.25 18.6 -26.2 18.55 M-29.45 27.9 Q-26.85 24.9 -22.3 24.8 L-15.8 26.0 Q-8.4 27.6 -5.6 29.85 -2.85 32.05 -5.9 35.2 -8.95 38.3 -12.85 38.0 -16.8 37.65 -18.7 36.25 -20.65 34.85 -23.85 37.65 -28.15 34.75 -29.2 31.5 -29.6 30.4 -29.6 29.25 L-29.45 27.9" fill="url(#gradient0)" fill-rule="evenodd" stroke="none"/>
      <path d="M32.75 11.8 L32.75 11.9 32.65 12.05 31.15 11.1 32.75 11.8" fill="url(#gradient1)" fill-rule="evenodd" stroke="none"/>
      <path d="M-33.65 23.75 L-35.45 17.5 Q-38.5 8.0 -36.45 -1.45 L-35.85 -4.45 -35.8 -6.55 Q-35.9 -7.35 -36.75 -9.35 -37.65 -11.35 -37.55 -13.85 -37.5 -16.4 -36.35 -19.7 -35.25 -23.0 -33.9 -29.2 -32.55 -35.4 -28.15 -40.65 -23.8 -45.9 -20.95 -47.75 -15.9 -51.1 -9.35 -51.45 L-7.9 -51.6 0.3 -52.0 Q5.75 -52.15 11.5 -49.65 L14.8 -48.0 17.05 -46.75 21.1 -44.1 29.0 -37.85 Q33.65 -33.95 36.05 -24.55 37.35 -19.5 37.7 -14.2 38.15 -7.6 37.1 -1.1 L37.05 -1.0 37.0 -0.45 36.8 0.4 Q35.9 5.15 33.85 9.65 L32.75 11.8 32.75 11.9 32.65 12.05 30.05 16.25 M23.9 35.8 Q20.2 38.85 16.15 41.3 12.7 43.4 8.95 45.05 1.5 48.4 -6.45 50.85 L-7.9 51.3 Q-15.95 53.35 -23.45 49.6 -25.4 48.6 -26.5 45.4 L-28.8 38.55 -30.9 32.0 -30.95 31.95 -32.65 26.8 -33.45 24.45 -33.65 23.75 M25.55 11.75 Q28.35 14.4 31.15 11.1 L31.7 8.7 Q32.1 6.6 32.65 4.9 33.65 2.0 34.15 -1.0 L34.15 -1.2 34.2 -1.45 Q34.9 -6.15 32.15 -9.85 31.0 -11.5 29.75 -12.0 25.25 -11.35 24.55 -6.25 M-20.05 19.35 L-22.5 19.75 Q-24.8 19.85 -26.4 18.9 L-27.05 18.5 Q-29.6 16.5 -28.45 14.05 -27.3 11.6 -25.95 5.8 -24.65 0.0 -24.6 -3.7 -24.55 -7.45 -25.4 -8.2 L-26.05 -8.65 M26.45 -2.15 Q28.05 -2.8 28.6 -4.6 L28.95 -5.15 Q30.35 -6.65 31.25 -4.55 L31.45 -3.65 31.45 -1.65 M29.45 1.35 L29.45 3.85 29.45 4.35 M-15.05 16.85 Q-14.4 19.0 -16.1 20.5" fill="none" stroke="#000000" stroke-linecap="round" stroke-linejoin="round" stroke-width="2.0"/>
      <path d="M28.55 16.75 Q29.9 23.5 28.15 30.05 27.45 32.6 25.55 34.35 L23.9 35.8 M-33.3 23.65 Q-27.9 21.55 -22.5 21.65 L-18.85 21.95 -16.35 22.4 Q-11.25 23.25 -9.45 24.25 -7.3 25.45 1.5 25.95 10.25 26.45 16.3 17.3 22.35 8.1 25.55 11.75 L26.1 12.4 29.45 16.45 M-6.5 2.0 Q-4.1 -0.35 -2.15 -2.75 -1.75 -3.25 -1.0 -3.5 1.35 -4.4 4.0 -4.3 L5.95 -4.6 Q8.85 -5.75 12.0 -5.75 L13.5 -6.0 15.0 -6.5 M11.5 35.5 Q12.3 33.15 12.45 30.55 12.5 29.75 12.95 29.0 14.15 26.95 15.75 25.25 16.25 24.75 17.0 24.55 20.25 23.7 22.05 20.55 23.9 17.25 24.5 13.5" fill="none" stroke="#b9a882" stroke-linecap="round" stroke-linejoin="round" stroke-width="1.5"/>
      <path d="M-29.45 27.9 Q-26.85 24.9 -22.3 24.8 L-15.8 26.0 Q-8.4 27.6 -5.6 29.85 -2.85 32.05 -5.9 35.2 -8.95 38.3 -12.85 38.0 -16.8 37.65 -18.7 36.25 -20.65 34.85 -23.85 37.65 -28.15 34.75 -29.2 31.5 -29.6 30.4 -29.6 29.25 L-29.45 27.9 Z" fill="none" stroke="#b9a882" stroke-linecap="round" stroke-linejoin="round" stroke-width="1.5"/>
    </g>
    </g>
  </g>
  <defs>
    <radialGradient cx="0" cy="0" gradientTransform="matrix(0.0543, 0.0, 0.0, 0.0824, -20.0, -3.0)" gradientUnits="userSpaceOnUse" id="gradient0" r="819.2" spreadMethod="pad">
      <stop offset="0.0" stop-color="#f1d0b1"/>
      <stop offset="0.6274509803921569" stop-color="#ecc59d"/>
      <stop offset="1.0" stop-color="#e9bb8f"/>
    </radialGradient>
    <radialGradient cx="0" cy="0" gradientTransform="matrix(0.0494, 0.0, 0.0, 0.0681, -16.0, 3.0)" gradientUnits="userSpaceOnUse" id="gradient1" r="819.2" spreadMethod="pad">
      <stop offset="0.0" stop-color="#f1d0b1"/>
      <stop offset="0.6274509803921569" stop-color="#ecc59d"/>
      <stop offset="1.0" stop-color="#e9bb8f"/>
    </radialGradient>
  </defs>
</svg>