<svg xmlns:xlink="http://www.w3.org/1999/xlink" xmlns="http://www.w3.org/2000/svg" height="8.05px" width="17.5px">
  <g transform="matrix(1.0, 0.0, 0.0, 1.0, 10.1, 2.25)">
    <path d="M7.35 -0.9 L7.4 -0.85 7.4 -0.75 7.25 -0.45 7.2 -0.35 -2.05 0.5 Q-5.05 1.1 -7.55 -0.05 L-7.7 -0.3 Q-8.95 -0.5 -10.05 -1.2 L-10.1 -1.3 -10.05 -1.35 -10.0 -1.55 -9.9 -1.65 -5.25 -1.95 -5.2 -1.85 -5.1 -1.7 -1.95 -1.95 -0.85 -1.95 4.5 -2.25 Q6.3 -2.2 7.35 -0.9 M-3.7 5.7 Q-6.35 6.1 -7.65 4.95 L-8.75 3.85 -6.55 4.35 Q-5.05 4.8 -1.25 4.35 2.55 3.9 0.9 4.35 -0.75 4.75 -0.9 5.0 -1.1 5.25 -3.7 5.7" fill="#e6b380" fill-rule="evenodd" stroke="none"/>
  </g>
</svg>