<svg xmlns:xlink="http://www.w3.org/1999/xlink" xmlns="http://www.w3.org/2000/svg" height="119.1px" width="213.05px">
  <g transform="matrix(1.0, 0.0, 0.0, 1.0, 94.65, 81.2)">
    <g data-characterId="930" height="43.4" transform="matrix(1.0, 0.0, 0.0, 1.0, -60.95, -27.65)" width="140.2" xlink:href="#shape0"><g id="shape0" transform="matrix(1.0, 0.0, 0.0, 1.0, 60.95, 27.65)">
      <path d="M-36.75 -21.9 Q-36.2 -6.4 -33.65 -0.25 L-29.45 10.15 Q-43.55 9.2 -53.05 6.35 -62.6 3.45 -59.85 -6.6 -57.1 -16.65 -46.75 -19.4 L-36.75 -21.9 M24.9 15.0 Q26.55 11.25 29.75 6.95 32.9 2.6 34.7 -4.8 36.5 -12.25 36.85 -16.4 37.15 -20.55 39.0 -24.8 42.0 -25.8 58.4 -20.95 74.8 -16.1 78.35 -4.0 81.9 8.1 55.25 13.2 40.8 15.95 24.9 15.0" fill="#663399" fill-rule="evenodd" stroke="none"/>
      <path d="M27.75 -27.15 Q30.1 -26.2 31.9 -25.05 L39.0 -24.8 Q37.15 -20.55 36.85 -16.4 36.5 -12.25 34.7 -4.8 32.9 2.6 29.75 6.95 26.55 11.25 24.9 15.0 11.45 14.15 -3.0 10.75 L-11.0 10.15 Q-18.6 10.45 -29.45 10.15 L-33.65 -0.25 Q-36.2 -6.4 -36.75 -21.9 L-21.2 -25.15 Q-21.55 -24.7 -19.95 -24.05 5.45 -12.6 27.85 -26.55 L27.75 -27.15 M25.35 -18.05 L24.8 -17.45 Q23.9 -16.7 22.75 -16.1 L21.5 -15.35 Q20.8 -14.9 20.0 -14.6 14.8 -12.55 9.35 -11.15 L-0.85 -8.65 Q-5.95 -7.4 -8.25 -2.1 -5.95 -7.4 -0.85 -8.65 L9.35 -11.15 Q14.8 -12.55 20.0 -14.6 20.8 -14.9 21.5 -15.35 L22.75 -16.1 Q23.9 -16.7 24.8 -17.45 L25.35 -18.05 M-30.0 -17.55 Q-28.0 -14.5 -28.5 -10.65 -28.0 -14.5 -30.0 -17.55" fill="url(#gradient0)" fill-rule="evenodd" stroke="none"/>
      <path d="M-8.25 -2.1 Q-5.95 -7.4 -0.85 -8.65 L9.35 -11.15 Q14.8 -12.55 20.0 -14.6 20.8 -14.9 21.5 -15.35 L22.75 -16.1 Q23.9 -16.7 24.8 -17.45 L25.35 -18.05 M-28.5 -10.65 Q-28.0 -14.5 -30.0 -17.55" fill="none" stroke="#a97745" stroke-linecap="round" stroke-linejoin="round" stroke-width="2.0"/>
      <path d="M39.0 -24.8 L31.9 -25.05 Q30.1 -26.2 27.75 -27.15 M-21.2 -25.15 L-36.75 -21.9 Q-36.2 -6.4 -33.65 -0.25 L-29.45 10.15 Q-18.6 10.45 -11.0 10.15 L-3.0 10.75 Q11.45 14.15 24.9 15.0 26.55 11.25 29.75 6.95 32.9 2.6 34.7 -4.8 36.5 -12.25 36.85 -16.4 37.15 -20.55 39.0 -24.8 42.0 -25.8 58.4 -20.95 74.8 -16.1 78.35 -4.0 81.9 8.1 55.25 13.2 40.8 15.95 24.9 15.0 M-36.75 -21.9 L-46.75 -19.4 Q-57.1 -16.65 -59.85 -6.6 -62.6 3.45 -53.05 6.35 -43.55 9.2 -29.45 10.15 M-21.2 -25.15 L-20.9 -25.4" fill="none" stroke="#000000" stroke-linecap="round" stroke-linejoin="round" stroke-width="2.0"/>
    </g>
    </g>
  </g>
  <defs>
    <radialGradient cx="0" cy="0" gradientTransform="matrix(0.0579, 0.0, 0.0, 0.0937, -21.55, -5.5)" gradientUnits="userSpaceOnUse" id="gradient0" r="819.2" spreadMethod="pad">
      <stop offset="0.0" stop-color="#e2b983"/>
      <stop offset="0.6274509803921569" stop-color="#d9a166"/>
      <stop offset="1.0" stop-color="#c08456"/>
    </radialGradient>
  </defs>
</svg>