<svg xmlns:xlink="http://www.w3.org/1999/xlink" xmlns="http://www.w3.org/2000/svg" height="264.15px" width="342.25px">
  <g transform="matrix(1.0, 0.0, 0.0, 1.0, 243.25, 83.7)">
    <g data-characterId="1129" height="83.55" transform="matrix(1.0, 0.0, 0.0, 1.0, -50.3, -42.8)" width="95.15" xlink:href="#shape0"><g id="shape0" transform="matrix(1.0, 0.0, 0.0, 1.0, 50.3, 42.8)">
      <path d="M26.1 -32.0 L26.25 -32.25 26.3 -32.95 26.45 -33.6 26.8 -34.2 27.25 -34.75 27.5 -35.0 30.1 -31.35 34.5 -31.25 34.3 -30.9 34.0 -30.55 33.3 -29.9 32.95 -29.45 32.8 -29.1 32.85 -28.75 Q34.8 -27.55 36.35 -25.7 38.55 -22.95 40.25 -19.7 L41.4 -17.25 Q43.25 -13.2 43.6 -8.75 L44.35 6.5 44.1 8.85 Q43.3 13.0 43.35 17.0 43.4 19.55 42.5 21.9 L41.6 23.95 38.15 29.95 Q35.65 33.8 32.45 36.95 L32.4 36.8 32.4 36.6 32.55 33.75 32.65 31.0 Q32.85 28.1 32.25 25.25 L33.3 24.65 34.9 23.05 Q35.45 22.45 35.5 21.5 L35.85 17.75 Q36.05 16.15 36.8 14.65 38.0 12.3 37.85 9.75 L37.3 6.05 Q37.05 4.85 36.45 3.75 35.25 1.7 33.25 1.3 31.65 1.15 30.2 2.2 28.85 3.05 28.35 4.35 L27.45 6.8 26.75 6.85 Q21.5 6.5 18.35 2.3 L16.9 0.0 Q15.2 -3.15 14.4 -6.5 13.4 -10.6 12.95 -14.7 L9.9 -12.8 Q7.15 -11.25 3.95 -10.1 -3.75 -7.55 -11.85 -6.25 L-23.0 -5.7 -28.5 -5.0 Q-33.75 -3.55 -37.4 0.2 L-38.35 0.25 Q-38.65 -2.45 -37.95 -5.0 L-37.55 -6.0 -36.5 -7.75 -38.9 -6.55 Q-43.25 -4.25 -45.25 0.25 L-46.05 -3.25 -46.6 -7.25 Q-46.8 -11.05 -44.9 -14.6 -42.5 -19.2 -38.0 -21.75 -41.45 -22.05 -44.3 -20.6 -47.1 -19.1 -49.25 -16.5 L-49.7 -18.3 Q-49.95 -19.8 -49.45 -21.25 -47.75 -26.0 -44.45 -29.45 -41.25 -32.75 -37.25 -35.0 L-30.85 -38.2 Q-26.85 -40.2 -22.5 -40.9 L-14.35 -41.75 -7.25 -42.3 0.55 -41.6 2.5 -41.15 10.0 -40.15 12.55 -39.45 Q13.55 -39.05 14.65 -38.95 17.05 -38.4 19.0 -37.0 L26.1 -32.0 M12.75 -15.25 L12.95 -14.7 12.75 -15.25 M24.75 -6.5 L25.6 -5.35 Q26.75 -3.75 28.55 -2.8 26.75 -3.75 25.6 -5.35 L24.75 -6.5 M17.75 -14.0 Q17.7 -12.75 17.95 -11.5 18.2 -10.25 18.85 -9.05 20.5 -5.95 22.4 -2.95 22.95 -2.05 23.8 -1.35 L25.75 0.0 23.8 -1.35 Q22.95 -2.05 22.4 -2.95 20.5 -5.95 18.85 -9.05 18.2 -10.25 17.95 -11.5 17.7 -12.75 17.75 -14.0 M23.5 -29.75 Q23.95 -29.5 23.75 -29.0 L23.1 -27.5 Q21.85 -24.0 19.35 -21.1 L15.95 -17.25 Q14.7 -15.8 12.95 -14.7 14.7 -15.8 15.95 -17.25 L19.35 -21.1 Q21.85 -24.0 23.1 -27.5 L23.75 -29.0 Q23.95 -29.5 23.5 -29.75 M-19.15 37.6 L-19.25 38.5 -20.5 38.35 -22.0 38.05 Q-24.6 37.9 -26.7 39.4 -27.05 38.05 -26.35 36.75 -25.75 35.6 -24.5 35.35 L-21.95 34.6 -20.0 34.7 -19.65 34.9 Q-18.85 35.95 -19.1 37.35 L-19.1 37.45 -19.15 37.5 -19.15 37.6 M-16.45 38.4 L-16.0 34.9 -15.75 34.8 -10.05 35.65 Q-9.2 35.7 -8.4 36.05 L-7.1 36.9 Q-5.55 38.15 -6.0 40.25 L-9.8 39.05 -11.7 38.9 -15.75 38.5 -16.45 38.4" fill="url(#gradient0)" fill-rule="evenodd" stroke="none"/>
      <path d="M-19.1 37.35 L-19.1 37.45 -19.15 37.6" fill="none" stroke="#000000" stroke-linecap="round" stroke-linejoin="round" stroke-width="2.0"/>
      <path d="M26.1 -32.0 L19.0 -37.0 Q17.05 -38.4 14.65 -38.95 13.55 -39.05 12.55 -39.45 L10.0 -40.15 2.5 -41.15 0.55 -41.6 -7.25 -42.3 -14.35 -41.75 -22.5 -40.9 Q-26.85 -40.2 -30.85 -38.2 L-37.25 -35.0 Q-41.25 -32.75 -44.45 -29.45 -47.75 -26.0 -49.45 -21.25 -49.95 -19.8 -49.7 -18.3 L-49.25 -16.5 Q-47.1 -19.1 -44.3 -20.6 -41.45 -22.05 -38.0 -21.75 -42.5 -19.2 -44.9 -14.6 -46.8 -11.05 -46.6 -7.25 L-46.05 -3.25 -45.25 0.25 Q-43.25 -4.25 -38.9 -6.55 L-36.5 -7.75 -37.55 -6.0 -37.95 -5.0 Q-38.65 -2.45 -38.35 0.25 L-38.25 1.0 -37.4 0.2 Q-33.75 -3.55 -28.5 -5.0 L-23.0 -5.7 -11.85 -6.25 Q-3.75 -7.55 3.95 -10.1 7.15 -11.25 9.9 -12.8 L12.95 -14.7 12.75 -15.25 M12.95 -14.7 Q13.4 -10.6 14.4 -6.5 15.2 -3.15 16.9 0.0 L18.35 2.3 Q21.5 6.5 26.75 6.85 L27.45 6.8 28.35 4.35 Q28.85 3.05 30.2 2.2 31.65 1.15 33.25 1.3 35.25 1.7 36.45 3.75 37.05 4.85 37.3 6.05 L37.85 9.75 Q38.0 12.3 36.8 14.65 36.05 16.15 35.85 17.75 L35.5 21.5 Q35.45 22.45 34.9 23.05 L33.3 24.65 32.25 25.25 Q32.85 28.1 32.65 31.0 L32.55 33.75 32.4 36.6 32.4 36.8 32.45 36.95 Q35.65 33.8 38.15 29.95 L41.6 23.95 42.5 21.9 Q43.4 19.55 43.35 17.0 43.3 13.0 44.1 8.85 L44.35 6.5 43.6 -8.75 Q43.25 -13.2 41.4 -17.25 L40.25 -19.7 Q38.55 -22.95 36.35 -25.7 34.8 -27.55 32.85 -28.75 L32.8 -29.1 32.95 -29.45 33.3 -29.9 34.0 -30.55 34.3 -30.9 34.5 -31.25 30.1 -31.35 27.5 -35.0 27.25 -34.75 26.8 -34.2 26.45 -33.6 26.3 -32.95 26.25 -32.25 M12.95 -14.7 Q14.7 -15.8 15.95 -17.25 L19.35 -21.1 Q21.85 -24.0 23.1 -27.5 L23.75 -29.0 Q23.95 -29.5 23.5 -29.75 M25.75 0.0 L23.8 -1.35 Q22.95 -2.05 22.4 -2.95 20.5 -5.95 18.85 -9.05 18.2 -10.25 17.95 -11.5 17.7 -12.75 17.75 -14.0 M28.55 -2.8 Q26.75 -3.75 25.6 -5.35 L24.75 -6.5 M-19.15 37.6 L-19.25 38.5 -20.5 38.35 -22.0 38.05 Q-24.6 37.9 -26.7 39.4 -27.05 38.05 -26.35 36.75 -25.75 35.6 -24.5 35.35 L-21.95 34.6 -20.0 34.7 -19.65 34.9 Q-18.85 35.95 -19.1 37.35 M-19.15 37.6 L-19.15 37.5 -19.1 37.45 M-15.75 38.5 L-11.7 38.9 -9.8 39.05 -6.0 40.25 Q-5.55 38.15 -7.1 36.9 L-8.4 36.05 Q-9.2 35.7 -10.05 35.65 L-15.75 34.8 -16.0 34.9 -16.45 38.4" fill="none" stroke="#000000" stroke-linecap="round" stroke-linejoin="round" stroke-width="2.0"/>
    </g>
    </g>
  </g>
  <defs>
    <radialGradient cx="0" cy="0" gradientTransform="matrix(0.0, 0.0592, -0.0954, 0.0, 1.0, -32.5)" gradientUnits="userSpaceOnUse" id="gradient0" r="819.2" spreadMethod="pad">
      <stop offset="0.0" stop-color="#000000"/>
      <stop offset="0.5372549019607843" stop-color="#303030"/>
      <stop offset="1.0" stop-color="#000000"/>
    </radialGradient>
  </defs>
</svg>