<svg xmlns:xlink="http://www.w3.org/1999/xlink" xmlns="http://www.w3.org/2000/svg" height="264.15px" width="342.25px">
  <g transform="matrix(1.0, 0.0, 0.0, 1.0, 243.25, 83.7)">
    <g data-characterId="1127" height="117.5" transform="matrix(1.0, 0.0, 0.0, 1.0, -37.15, -44.45)" width="83.85" xlink:href="#shape0"><g id="shape0" transform="matrix(1.0, 0.0, 0.0, 1.0, 37.15, 44.45)">
      <path d="M-33.7 0.1 Q-38.25 -0.55 -35.8 -13.8 -33.35 -27.1 -30.4 -31.8 -27.45 -36.55 -24.0 -39.6 -20.55 -42.7 -6.95 -43.9 -1.55 -44.35 3.0 -42.0 10.15 -45.3 17.4 -43.05 19.35 -42.55 24.15 -40.45 28.95 -38.35 32.5 -34.95 36.05 -31.55 37.75 -27.2 39.45 -22.85 41.2 -20.05 44.55 -14.8 45.9 -8.85 46.85 -4.65 44.6 4.3 L45.3 8.5 Q45.85 13.0 44.8 17.6 L41.55 27.9 Q39.05 34.9 38.6 37.25 38.15 39.55 32.0 45.65 L31.75 42.9 Q31.6 40.2 31.85 37.55 32.2 33.7 33.4 30.0 L33.6 29.45 33.6 29.35 34.45 26.5 34.55 26.25 34.55 26.1 Q36.65 18.5 37.5 10.7 L31.95 9.5 Q27.35 8.35 24.3 0.75 L20.05 -9.25 Q17.05 -15.6 10.3 -17.75 L2.75 -20.15 Q-1.85 -21.4 -6.5 -19.75 L-10.9 -18.45 -11.5 -18.25 -17.15 -17.65 -19.6 -18.05 Q-21.2 -18.3 -22.6 -19.0 -25.35 -20.6 -28.0 -20.75 L-28.0 -20.5 Q-29.7 -18.5 -30.25 -16.25 L-31.8 -9.45 -33.7 0.1 M-13.5 -27.0 Q-10.9 -29.1 -9.45 -32.2 -10.9 -29.1 -13.5 -27.0 M0.4 -39.35 Q0.4 -38.8 -0.15 -38.4 -0.7 -38.0 -1.5 -38.0 -0.7 -38.0 -0.15 -38.4 0.4 -38.8 0.4 -39.35 M40.55 -1.0 Q38.8 -0.75 37.8 -2.3 33.25 -9.3 29.75 -17.0 26.3 -24.6 20.7 -30.35 17.0 -34.15 12.4 -35.8 L5.0 -36.0 Q3.35 -35.55 1.9 -34.65 -0.85 -32.85 -4.0 -33.5 -0.85 -32.85 1.9 -34.65 3.35 -35.55 5.0 -36.0 L12.4 -35.8 Q17.0 -34.15 20.7 -30.35 26.3 -24.6 29.75 -17.0 33.25 -9.3 37.8 -2.3 38.8 -0.75 40.55 -1.0 M18.55 -16.5 Q18.5 -17.5 18.05 -18.2 14.4 -23.5 8.4 -26.25 L6.15 -27.2 Q-4.1 -27.4 -12.0 -21.0 -4.1 -27.4 6.15 -27.2 L8.4 -26.25 Q14.4 -23.5 18.05 -18.2 18.5 -17.5 18.55 -16.5 M-9.45 -32.2 L-9.15 -33.05 -9.9 -34.05 -9.45 -32.2 M-27.5 -25.0 L-25.0 -26.8 Q-23.45 -27.7 -21.9 -27.15 L-17.0 -20.0 -21.9 -27.15 Q-23.45 -27.7 -25.0 -26.8 L-27.5 -25.0 M-3.0 -36.5 L-9.9 -34.05 -3.0 -36.5 M40.05 11.5 L37.5 10.7 40.05 11.5 M43.05 -1.0 Q44.0 1.55 44.6 4.3 44.0 1.55 43.05 -1.0" fill="url(#gradient0)" fill-rule="evenodd" stroke="none"/>
      <path d="M31.85 37.55 L31.8 37.55 31.8 37.9 Q31.6 40.25 29.95 43.2 28.25 46.15 25.9 48.7 19.05 56.1 9.25 58.8 6.75 59.55 4.8 61.45 L0.65 65.3 0.6 62.8 Q0.3 62.85 0.1 63.0 -1.55 63.85 -2.6 65.55 -4.9 69.05 -9.0 70.55 L-9.5 67.05 -15.0 72.55 Q-14.75 70.3 -15.85 68.45 L-16.9 66.8 -18.25 70.3 -22.6 65.5 -22.35 66.95 Q-24.55 66.6 -24.85 64.25 -24.95 63.35 -25.3 62.7 -29.95 54.1 -29.1 44.5 L-29.5 44.0 -29.35 42.8 -29.35 42.75 -29.2 42.75 -29.25 41.65 -29.0 40.25 Q-28.45 37.6 -27.4 36.9 -26.4 36.2 -27.0 35.5 -27.65 34.8 -20.0 33.7 -12.35 32.55 -3.55 35.45 L-1.25 36.1 Q5.7 38.4 8.25 45.5 L5.75 45.0 7.05 48.05 8.25 47.55 Q12.4 47.85 13.6 46.1 14.95 43.05 17.1 40.45 19.45 37.55 20.3 34.85 L22.0 30.1 23.35 25.95 Q23.85 23.85 23.5 20.5 L23.75 20.55 25.05 14.3 26.95 14.7 Q28.6 19.25 28.95 22.55 29.3 25.8 32.1 25.5 34.75 25.2 34.55 26.1 L34.55 26.25 34.45 26.5 33.5 29.35 33.6 29.45 33.4 30.0 Q32.2 33.7 31.85 37.55 M-26.55 42.85 L-22.5 49.5 -19.55 47.8 -16.85 50.1 -14.7 46.85 Q-9.8 50.8 -6.4 48.65 L-0.35 45.3 Q-1.8 42.1 -5.6 40.4 -9.45 38.65 -14.2 39.05 L-22.0 39.4 Q-24.15 39.35 -26.15 42.15 L-26.55 42.8 -26.55 42.85 M7.25 48.55 L7.05 48.05 7.25 48.55 M31.35 34.05 Q31.9 35.35 31.8 37.55 31.9 35.35 31.35 34.05" fill="url(#gradient1)" fill-rule="evenodd" stroke="none"/>
      <path d="M31.8 37.55 L31.8 37.9 Q31.6 40.25 29.95 43.2 28.25 46.15 25.9 48.7 19.05 56.1 9.25 58.8 6.75 59.55 4.8 61.45 L0.65 65.3 0.6 62.8 Q0.3 62.85 0.1 63.0 -1.55 63.85 -2.6 65.55 -4.9 69.05 -9.0 70.55 L-9.5 67.05 -15.0 72.55 Q-14.75 70.3 -15.85 68.45 L-16.9 66.8 -18.25 70.3 -22.6 65.5 -22.35 66.95 Q-24.55 66.6 -24.85 64.25 -24.95 63.35 -25.3 62.7 -29.95 54.1 -29.1 44.5 L-29.5 44.0 -29.35 42.8 -29.35 42.75 -29.25 41.65 -29.0 40.25 Q-28.45 37.6 -27.4 36.9 M31.8 37.55 Q31.9 35.35 31.35 34.05" fill="none" stroke="#000000" stroke-linecap="round" stroke-linejoin="round" stroke-width="2.0"/>
      <path d="M-33.7 0.1 Q-38.25 -0.55 -35.8 -13.8 -33.35 -27.1 -30.4 -31.8 -27.45 -36.55 -24.0 -39.6 -20.55 -42.7 -6.95 -43.9 -1.55 -44.35 3.0 -42.0 10.15 -45.3 17.4 -43.05 19.35 -42.55 24.15 -40.45 28.95 -38.35 32.5 -34.95 36.05 -31.55 37.75 -27.2 39.45 -22.85 41.2 -20.05 44.55 -14.8 45.9 -8.85 46.85 -4.65 44.6 4.3 L45.3 8.5 Q45.85 13.0 44.8 17.6 L41.55 27.9 Q39.05 34.9 38.6 37.25 38.15 39.55 32.0 45.65 L31.75 42.9 Q31.6 40.2 31.85 37.55 32.2 33.7 33.4 30.0 L33.6 29.45 33.6 29.35 34.45 26.5 34.55 26.25 34.55 26.1 Q36.65 18.5 37.5 10.7 L40.05 11.5 M44.6 4.3 Q44.0 1.55 43.05 -1.0" fill="none" stroke="#000000" stroke-linecap="round" stroke-linejoin="round" stroke-width="2.0"/>
      <path d="M-27.4 36.9 Q-26.4 36.2 -27.0 35.5 -27.65 34.8 -20.0 33.7 -12.35 32.55 -3.55 35.45 L-1.25 36.1 Q5.7 38.4 8.25 45.5 L5.75 45.0 7.05 48.05 7.25 48.55 M8.25 47.55 Q12.4 47.85 13.6 46.1 14.95 43.05 17.1 40.45 19.45 37.55 20.3 34.85 L22.0 30.1 23.35 25.95 Q23.85 23.85 23.5 20.5 M37.5 10.7 L31.95 9.5 Q27.35 8.35 24.3 0.75 L20.05 -9.25 Q17.05 -15.6 10.3 -17.75 L2.75 -20.15 Q-1.85 -21.4 -6.5 -19.75 L-10.9 -18.45 -11.5 -18.25 -17.15 -17.65 -19.6 -18.05 Q-21.2 -18.3 -22.6 -19.0 -25.35 -20.6 -28.0 -20.75 M-28.0 -20.5 Q-29.7 -18.5 -30.25 -16.25 L-31.8 -9.45 -33.7 0.1 M-12.0 -21.0 Q-4.1 -27.4 6.15 -27.2 L8.4 -26.25 Q14.4 -23.5 18.05 -18.2 18.5 -17.5 18.55 -16.5 M-4.0 -33.5 Q-0.85 -32.85 1.9 -34.65 3.35 -35.55 5.0 -36.0 L12.4 -35.8 Q17.0 -34.15 20.7 -30.35 26.3 -24.6 29.75 -17.0 33.25 -9.3 37.8 -2.3 38.8 -0.75 40.55 -1.0 M-1.5 -38.0 Q-0.7 -38.0 -0.15 -38.4 0.4 -38.8 0.4 -39.35 M-9.45 -32.2 Q-10.9 -29.1 -13.5 -27.0 M-9.9 -34.05 L-9.15 -33.05 -9.45 -32.2 M-9.9 -34.05 L-3.0 -36.5 M-17.0 -20.0 L-21.9 -27.15 Q-23.45 -27.7 -25.0 -26.8 L-27.5 -25.0 M-26.55 42.85 L-22.5 49.5 -19.55 47.8 -16.85 50.1 -14.7 46.85 Q-9.8 50.8 -6.4 48.65 L-0.35 45.3 Q-1.8 42.1 -5.6 40.4 -9.45 38.65 -14.2 39.05 L-22.0 39.4 Q-24.15 39.35 -26.15 42.15 L-26.55 42.8 -26.55 42.85 Z" fill="none" stroke="#b9a882" stroke-linecap="round" stroke-linejoin="round" stroke-width="2.0"/>
    </g>
    </g>
  </g>
  <defs>
    <radialGradient cx="0" cy="0" gradientTransform="matrix(0.1038, 0.0, 0.0, 0.0721, 0.0, -28.0)" gradientUnits="userSpaceOnUse" id="gradient0" r="819.2" spreadMethod="pad">
      <stop offset="0.0" stop-color="#c9a272"/>
      <stop offset="0.2823529411764706" stop-color="#eed7a3"/>
      <stop offset="0.4196078431372549" stop-color="#fff5e6"/>
      <stop offset="0.6509803921568628" stop-color="#aa874f"/>
      <stop offset="1.0" stop-color="#e2ba89"/>
    </radialGradient>
    <radialGradient cx="0" cy="0" gradientTransform="matrix(0.0671, 0.0, 0.0, 0.0473, -15.5, 50.55)" gradientUnits="userSpaceOnUse" id="gradient1" r="819.2" spreadMethod="pad">
      <stop offset="0.0" stop-color="#c9a272"/>
      <stop offset="0.2823529411764706" stop-color="#eed7a3"/>
      <stop offset="0.4196078431372549" stop-color="#fff5e6"/>
      <stop offset="0.6509803921568628" stop-color="#aa874f"/>
      <stop offset="1.0" stop-color="#e2ba89" stop-opacity="0.34117648"/>
    </radialGradient>
  </defs>
</svg>