<svg xmlns:xlink="http://www.w3.org/1999/xlink" xmlns="http://www.w3.org/2000/svg" height="8.9px" width="16.15px">
  <g transform="matrix(1.0, 0.0, 0.0, 1.0, 10.15, 3.2)">
    <path d="M5.95 -1.0 L5.95 -0.7 5.85 -0.55 Q1.95 0.1 -1.85 -1.25 L-2.0 -0.95 -2.05 -0.85 Q-2.45 -0.65 -2.9 -0.6 L-8.25 -0.45 -9.2 -0.95 -9.35 -1.1 -10.15 -0.95 Q-9.1 -2.0 -7.75 -2.8 L-7.25 -2.95 Q-6.7 -2.85 -6.35 -2.35 L-6.25 -2.3 -4.85 -2.2 -3.7 -3.1 -3.5 -3.2 Q0.6 -1.7 5.0 -1.45 5.6 -1.4 5.95 -1.0 M2.75 4.3 L-2.8 5.55 Q-5.85 6.25 -7.35 3.8 L-7.55 3.1 -7.55 2.75 -5.85 3.45 -1.7 4.0 3.05 3.85 Q5.3 3.75 2.75 4.3" fill="#e6b380" fill-rule="evenodd" stroke="none"/>
  </g>
</svg>