<svg xmlns:xlink="http://www.w3.org/1999/xlink" xmlns="http://www.w3.org/2000/svg" height="9.25px" width="15.9px">
  <g transform="matrix(1.0, 0.0, 0.0, 1.0, 7.7, 1.35)">
    <path d="M1.4 -0.9 L1.45 -0.8 Q4.6 0.7 8.05 1.6 L8.2 1.85 8.15 2.25 3.85 1.85 -0.75 0.85 -1.0 0.95 -1.25 1.05 Q-1.7 2.3 -3.45 1.8 -4.5 1.55 -5.6 1.8 -6.35 2.0 -6.7 1.4 L-6.95 1.75 Q-7.05 2.0 -7.35 2.05 L-7.6 1.85 -7.7 1.7 Q-6.85 0.25 -5.3 -0.55 -4.7 -0.85 -4.15 -1.25 L0.5 -1.35 Q1.1 -1.4 1.4 -0.9 M1.5 6.95 L-1.5 7.8 Q-4.35 8.4 -5.85 5.95 L-6.05 5.25 -6.05 4.9 -4.35 5.6 -0.2 6.15 2.0 6.4 1.5 6.95" fill="#e6b380" fill-rule="evenodd" stroke="none"/>
  </g>
</svg>