<svg xmlns:xlink="http://www.w3.org/1999/xlink" xmlns="http://www.w3.org/2000/svg" height="55.55px" width="73.3px">
  <g transform="matrix(1.0, 0.0, 0.0, 1.0, -18.95, -84.45)">
    <path d="M19.45 139.5 Q22.25 126.15 33.4 117.9 44.55 109.6 48.6 97.2 52.6 84.75 69.65 85.85 L91.75 87.2 91.7 85.8 89.05 84.95 M55.3 125.85 Q54.65 120.2 60.6 117.85 L77.0 111.75 Q78.85 105.15 86.2 101.8" fill="none" stroke="#006600" stroke-linecap="round" stroke-linejoin="round" stroke-width="2.0"/>
    <path d="M75.9 94.35 Q58.15 98.05 53.6 104.85 L48.15 113.2 Q47.2 114.75 43.8 117.75 40.4 120.7 34.1 123.75 L52.15 117.9 Q60.5 111.4 70.8 110.4 78.7 109.8 78.0 99.8 L78.6 99.5 Q81.1 97.85 79.9 93.65 L75.9 94.35 M34.1 123.75 Q26.6 126.95 25.15 134.75 L25.0 136.0 M90.6 91.7 L79.9 93.65" fill="none" stroke="#000000" stroke-linecap="round" stroke-linejoin="round" stroke-width="2.0"/>
  </g>
</svg>