<svg xmlns:xlink="http://www.w3.org/1999/xlink" xmlns="http://www.w3.org/2000/svg" height="55.55px" width="73.3px">
  <g transform="matrix(1.0, 0.0, 0.0, 1.0, -18.95, -84.45)">
    <path d="M19.45 139.5 Q22.15 126.15 34.65 118.0 47.1 109.85 51.25 105.45 55.35 101.05 73.9 86.1 80.35 89.8 91.75 87.2 L91.7 85.8 89.05 84.95 M55.8 128.6 Q55.6 125.7 57.7 124.3 L60.9 122.0 Q62.0 121.1 65.05 120.05 68.05 118.95 72.4 115.85 73.9 114.75 75.05 113.35 L75.75 112.65 77.4 110.35 79.4 106.95 Q80.25 105.3 81.55 104.25 L83.7 102.4 84.85 101.25" fill="none" stroke="#006600" stroke-linecap="round" stroke-linejoin="round" stroke-width="2.0"/>
    <path d="M64.0 115.0 Q69.4 111.4 73.1 106.35 L73.25 105.75 M44.0 117.75 Q44.2 114.6 46.65 112.4 L47.25 111.75 M90.6 91.7 Q82.85 91.1 79.9 93.65 72.6 104.05 61.05 111.0 49.45 117.95 43.3 120.6 L41.95 121.15 49.5 121.15 49.75 121.1 53.75 119.75 M25.0 136.0 Q25.9 128.5 32.45 124.7 L34.1 123.75 Q36.8 123.25 41.95 121.15 M66.25 99.25 L73.75 95.0" fill="none" stroke="#000000" stroke-linecap="round" stroke-linejoin="round" stroke-width="2.0"/>
  </g>
</svg>