<svg xmlns:xlink="http://www.w3.org/1999/xlink" xmlns="http://www.w3.org/2000/svg" height="116.1px" width="128.1px">
  <g transform="matrix(1.0, 0.0, 0.0, 1.0, 7.4, 8.15)">
    <g data-characterId="1611" height="80.9" transform="matrix(1.0, 0.0, 0.0, 1.0, -0.6, -8.15)" width="121.3" xlink:href="#shape0"><g id="shape0" transform="matrix(1.0, 0.0, 0.0, 1.0, 0.6, 8.15)">
      <path d="M96.5 0.4 L96.95 0.55 98.25 0.7 Q99.7 0.95 100.9 1.65 L101.8 2.3 Q102.45 2.9 102.65 3.65 L102.7 4.05 102.7 4.25 Q108.45 9.9 106.15 17.65 L106.1 17.9 106.0 18.1 105.05 18.65 Q103.2 19.85 102.05 21.75 L98.9 24.1 97.85 24.9 88.65 25.5 Q82.25 26.25 75.3 28.05 65.2 30.65 53.45 34.95 54.2 32.5 54.6 29.9 54.75 28.95 54.0 27.9 L53.4 26.9 Q52.75 25.25 53.75 23.65 54.55 22.45 55.7 21.9 56.9 21.35 57.65 20.2 56.9 21.35 55.7 21.9 54.55 22.45 53.75 23.65 52.75 25.25 53.4 26.9 L54.0 27.9 Q54.75 28.95 54.6 29.9 54.2 32.5 53.45 34.95 L48.3 36.85 Q37.4 40.15 27.5 43.75 L26.1 44.25 23.8 45.1 7.25 51.05 5.55 51.65 2.8 48.95 Q1.55 47.75 0.0 47.0 L0.6 42.4 Q13.25 34.95 27.7 31.0 39.5 27.65 50.15 21.3 61.45 14.5 71.9 6.4 80.95 -0.7 92.8 0.05 L95.0 0.2 96.5 0.4 M101.8 14.7 Q99.8 14.5 98.4 16.15 97.5 17.25 97.15 18.55 96.9 19.55 97.2 20.7 96.9 19.55 97.15 18.55 97.5 17.25 98.4 16.15 99.8 14.5 101.8 14.7 M98.65 6.9 L98.05 7.15 96.65 8.05 96.25 8.9 Q96.2 9.35 95.95 9.4 L92.6 10.6 91.3 11.35 Q89.0 13.1 89.25 15.85 89.35 17.0 90.0 17.55 L83.1 18.05 81.45 18.4 Q80.1 18.85 78.8 19.55 74.55 21.75 75.05 26.45 74.55 21.75 78.8 19.55 80.1 18.85 81.45 18.4 L83.1 18.05 90.0 17.55 Q89.35 17.0 89.25 15.85 89.0 13.1 91.3 11.35 L92.6 10.6 95.95 9.4 Q96.2 9.35 96.25 8.9 L96.65 8.05 98.05 7.15 98.65 6.9 M72.45 25.9 L69.0 25.7 67.2 25.8 Q64.8 26.85 64.7 29.35 64.8 26.85 67.2 25.8 L69.0 25.7 72.45 25.9 M38.4 39.15 Q40.1 37.55 39.95 35.2 39.85 33.2 38.8 31.4 39.85 33.2 39.95 35.2 40.1 37.55 38.4 39.15 M23.95 44.4 L24.75 43.3 Q27.6 38.9 25.95 33.9 27.6 38.9 24.75 43.3 L23.95 44.4" fill="#50882d" fill-rule="evenodd" stroke="none"/>
      <path d="M105.0 34.95 L107.85 36.55 105.3 36.3 Q94.35 34.4 88.65 25.5 L97.85 24.9 98.9 24.1 99.2 25.5 Q100.3 31.6 105.0 34.95" fill="#4f7b28" fill-rule="evenodd" stroke="none"/>
      <path d="M102.05 21.75 L102.15 21.65 102.75 22.4 105.2 24.35 Q113.0 26.9 120.2 30.8 L119.35 30.8 Q109.8 27.05 105.0 34.95 100.3 31.6 99.2 25.5 L98.9 24.1 102.05 21.75 M27.5 43.75 Q27.3 44.8 26.35 45.5 25.8 45.85 25.3 46.3 L24.6 45.6 23.9 45.3 Q21.85 47.55 21.35 50.6 L20.2 56.3 19.75 58.2 Q19.2 55.45 16.8 53.3 L16.55 59.0 16.0 61.25 Q15.05 63.7 15.5 66.4 L16.0 68.4 13.85 63.85 11.95 58.6 11.8 59.75 11.5 62.05 Q11.25 63.85 11.15 66.2 L10.9 72.25 9.9 69.9 Q9.5 67.55 9.75 65.25 10.5 57.9 7.5 51.75 L7.25 51.05 23.8 45.1 26.1 44.25 27.5 43.75" fill="url(#gradient0)" fill-rule="evenodd" stroke="none"/>
      <path d="M96.5 0.4 L96.95 0.55 98.25 0.7 Q99.7 0.95 100.9 1.65 L101.8 2.3 Q102.45 2.9 102.65 3.65 L102.7 4.05 102.7 4.25 Q108.45 9.9 106.15 17.65 L106.1 17.9 M106.0 18.1 L105.7 18.95 M102.05 21.75 L102.15 21.65 M102.75 22.4 L105.2 24.35 Q113.0 26.9 120.2 30.8 L119.35 30.8 Q109.8 27.05 105.0 34.95 L107.85 36.55 105.3 36.3 Q94.35 34.4 88.65 25.5 82.25 26.25 75.3 28.05 65.2 30.65 53.45 34.95 L48.3 36.85 Q37.4 40.15 27.5 43.75 27.3 44.8 26.35 45.5 25.8 45.85 25.3 46.3 L24.6 45.6 23.9 45.3 Q21.85 47.55 21.35 50.6 L20.2 56.3 19.75 58.2 Q19.2 55.45 16.8 53.3 L16.55 59.0 16.0 61.25 Q15.05 63.7 15.5 66.4 L16.0 68.4 13.85 63.85 11.95 58.6 11.8 59.75 11.5 62.05 Q11.25 63.85 11.15 66.2 L10.9 72.25 9.9 69.9 Q9.5 67.55 9.75 65.25 10.5 57.9 7.5 51.75 M98.9 24.1 L97.85 24.9 88.65 25.5 M102.05 21.75 L98.9 24.1 99.2 25.5 Q100.3 31.6 105.0 34.95 M7.25 51.05 L5.55 51.65 2.8 48.95 Q1.55 47.75 0.0 47.0 M27.5 43.75 L26.1 44.25 23.8 45.1 7.25 51.05" fill="none" stroke="#000000" stroke-linecap="round" stroke-linejoin="round" stroke-width="2.0"/>
      <path d="M75.05 26.45 Q74.55 21.75 78.8 19.55 80.1 18.85 81.45 18.4 L83.1 18.05 90.0 17.55 Q89.35 17.0 89.25 15.85 89.0 13.1 91.3 11.35 L92.6 10.6 95.95 9.4 Q96.2 9.35 96.25 8.9 L96.65 8.05 98.05 7.15 98.65 6.9 M97.2 20.7 Q96.9 19.55 97.15 18.55 97.5 17.25 98.4 16.15 99.8 14.5 101.8 14.7 M64.7 29.35 Q64.8 26.85 67.2 25.8 L69.0 25.7 72.45 25.9" fill="none" stroke="#006600" stroke-linecap="round" stroke-linejoin="round" stroke-width="2.0"/>
      <path d="M106.1 17.9 L106.0 18.1 105.05 18.65 Q103.2 19.85 102.05 21.75 M0.0 47.0 L0.6 42.4 Q13.25 34.95 27.7 31.0 39.5 27.65 50.15 21.3 61.45 14.5 71.9 6.4 80.95 -0.7 92.8 0.05 L95.0 0.2 96.5 0.4" fill="none" stroke="#000000" stroke-linecap="round" stroke-linejoin="round" stroke-width="2.0"/>
      <path d="M53.45 34.95 L53.2 35.7 M57.65 20.2 Q56.9 21.35 55.7 21.9 54.55 22.45 53.75 23.65 52.75 25.25 53.4 26.9 L54.0 27.9 Q54.75 28.95 54.6 29.9 54.2 32.5 53.45 34.95 M38.8 31.4 Q39.85 33.2 39.95 35.2 40.1 37.55 38.4 39.15 M25.95 33.9 Q27.6 38.9 24.75 43.3 L23.95 44.4" fill="none" stroke="#9900ff" stroke-linecap="round" stroke-linejoin="round" stroke-width="1.5"/>
      <path d="M10.95 36.75 L13.75 35.05 16.7 33.4 19.8 31.8 23.3 30.2 24.85 29.5 24.9 29.5 27.45 28.4 29.55 27.55 30.3 27.25 34.15 25.85 38.15 24.5 41.4 23.55 Q43.85 22.8 45.95 21.85 48.1 20.8 50.05 19.2 L54.2 15.7 54.35 15.55 58.6 12.05 61.3 9.55 63.95 7.0 66.6 4.4 69.1 1.7 72.2 -1.2 Q72.9 -1.75 73.65 -1.55 72.9 -1.75 72.2 -1.2 L69.1 1.7 66.6 4.4 63.95 7.0 61.3 9.55 58.6 12.05 54.35 15.55 54.2 15.7 50.05 19.2 Q48.1 20.8 45.95 21.85 43.85 22.8 41.4 23.55 L38.15 24.5 34.15 25.85 30.3 27.25 29.55 27.55 27.45 28.4 24.9 29.5 24.85 29.5 23.3 30.2 19.8 31.8 16.7 33.4 13.75 35.05 10.95 36.75 M60.1 7.5 L62.1 4.1 64.45 -1.05 65.4 -3.85 67.8 -5.1 70.05 -6.2 72.4 -6.95 79.45 -7.6 84.25 -6.6 86.7 -5.85 89.1 -5.05 Q90.15 -4.6 91.15 -3.95 L94.75 -1.45 96.35 0.0 92.85 0.25 89.45 0.8 86.25 1.75 Q83.9 2.55 81.9 3.75 79.8 5.05 77.85 6.5 L75.4 8.8 73.05 11.3 70.0 14.6 66.6 17.45 63.45 19.6 Q62.65 18.35 61.35 17.4 60.0 16.4 58.55 17.1 L58.6 17.65 59.6 19.8 60.45 21.55 60.35 21.6 58.2 23.2 54.85 25.6 54.75 25.65 Q52.2 23.2 49.85 23.45 L49.75 23.55 51.7 26.65 52.1 27.3 51.35 27.7 47.45 29.8 39.2 32.65 37.45 30.45 Q36.05 29.0 34.3 29.35 L36.5 33.3 30.25 34.75 Q29.2 33.7 28.0 32.95 26.75 32.2 25.35 31.75 L24.9 31.8 25.0 32.0 27.0 35.25 27.3 35.8 25.95 36.6 22.3 38.95 21.95 38.4 Q20.35 36.75 18.85 36.1 L18.35 35.9 18.2 36.3 Q18.6 38.0 19.55 39.65 L19.85 40.35 16.35 41.85 Q14.9 40.25 12.9 39.6 L11.5 39.2 11.95 40.4 Q12.4 41.6 13.5 42.95 L9.15 43.95 8.95 44.0 8.85 43.6 7.95 42.7 4.9 39.8 3.8 39.05 3.8 40.25 Q3.8 42.7 4.85 44.8 L3.55 44.85 2.25 44.05 1.2 43.05 0.85 42.6 0.8 42.45 0.7 41.5 1.65 39.9 2.9 38.3 3.95 37.15 4.2 36.9 Q6.45 34.8 9.1 33.65 L9.2 33.6 13.1 32.15 15.05 31.65 16.85 31.15 17.35 31.0 20.15 30.15 20.3 30.1 22.9 29.3 23.75 29.0 24.55 28.7 27.15 27.75 29.3 26.95 30.05 26.6 30.5 26.4 32.25 25.8 33.85 25.15 37.1 23.65 39.7 22.5 41.75 21.55 41.8 21.5 42.1 21.35 42.4 21.2 45.95 19.4 46.4 19.15 48.3 18.1 49.65 17.25 51.45 16.1 53.4 14.75 55.55 12.9 57.45 10.9 58.75 9.45 59.2 8.8 60.1 7.5 M18.35 35.9 L18.1 35.85 18.2 36.3 18.1 35.85 18.35 35.9" fill="#854929" fill-rule="evenodd" stroke="none"/>
      <path d="M60.1 7.5 L59.2 8.8 58.75 9.45 58.2 9.0 57.7 8.0 56.5 6.05 Q57.1 5.65 57.75 5.9 59.2 6.35 60.1 7.5 M53.4 14.75 L51.45 16.1 51.15 15.65 48.9 11.6 51.9 13.3 Q52.8 13.75 53.4 14.75 M41.75 21.55 L39.7 22.5 39.45 22.0 38.0 18.65 38.7 18.3 Q40.2 19.25 41.4 20.75 L41.75 21.55 M13.1 32.15 L9.2 33.6 8.65 30.55 8.4 28.6 8.45 28.3 13.1 32.15 M13.5 42.95 Q12.4 41.6 11.95 40.4 L11.5 39.2 12.9 39.6 Q14.9 40.25 16.35 41.85 L13.75 42.85 13.5 42.95 M27.3 35.8 L27.0 35.25 25.0 32.0 24.9 31.8 25.35 31.75 Q26.75 32.2 28.0 32.95 29.2 33.7 30.25 34.75 28.7 35.1 27.3 35.8 M52.1 27.3 L51.7 26.65 49.75 23.55 49.85 23.45 Q52.2 23.2 54.75 25.65 L52.1 27.3 M60.45 21.55 L59.6 19.8 58.6 17.65 58.55 17.1 Q60.0 16.4 61.35 17.4 62.65 18.35 63.45 19.6 L60.45 21.55" fill="#af9874" fill-rule="evenodd" stroke="none"/>
      <path d="M48.3 18.1 L46.4 19.15 45.65 18.85 44.65 16.85 43.4 14.75 44.85 15.15 Q46.85 15.95 48.3 18.1 M32.25 25.8 L30.5 26.4 30.05 26.6 29.3 26.95 29.05 26.35 Q28.25 24.4 28.0 23.05 27.95 22.9 28.15 22.7 29.5 23.0 30.65 24.1 L32.25 25.8 M3.95 37.15 L2.9 38.3 1.65 39.9 0.75 38.5 0.2 37.1 Q-0.4 34.75 0.2 32.3 L0.95 33.6 Q1.95 35.7 3.95 37.15 M4.85 44.8 Q3.8 42.7 3.8 40.25 L3.8 39.05 4.9 39.8 7.95 42.7 8.85 43.6 8.95 44.0 4.85 44.8 M19.85 40.35 L19.55 39.65 Q18.6 38.0 18.2 36.3 L18.35 35.9 18.85 36.1 Q20.35 36.75 21.95 38.4 L22.3 38.95 21.65 39.3 19.95 40.3 19.85 40.35 M36.5 33.3 L34.3 29.35 Q36.05 29.0 37.45 30.45 L39.2 32.65 36.5 33.3" fill="#d8d801" fill-rule="evenodd" stroke="none"/>
      <path d="M63.45 19.6 L66.6 17.45 70.0 14.6 73.05 11.3 75.4 8.8 77.85 6.5 Q79.8 5.05 81.9 3.75 83.9 2.55 86.25 1.75 L89.45 0.8 92.85 0.25 96.35 0.0 94.75 -1.45 91.15 -3.95 Q90.15 -4.6 89.1 -5.05 L86.7 -5.85 84.25 -6.6 79.45 -7.6 72.4 -6.95 70.05 -6.2 67.8 -5.1 65.4 -3.85 64.45 -1.05 62.1 4.1 60.1 7.5 59.2 8.8 58.75 9.45 57.45 10.9 55.55 12.9 53.4 14.75 51.45 16.1 49.65 17.25 48.3 18.1 46.4 19.15 45.95 19.4 42.4 21.2 42.1 21.35 41.8 21.5 41.75 21.55 39.7 22.5 37.1 23.65 33.85 25.15 32.25 25.8 30.5 26.4 30.05 26.6 29.3 26.95 27.15 27.75 24.55 28.7 23.75 29.0 22.9 29.3 20.3 30.1 20.15 30.15 17.35 31.0 16.85 31.15 15.05 31.65 13.1 32.15 9.2 33.6 9.1 33.65 Q6.45 34.8 4.2 36.9 L3.95 37.15 2.9 38.3 1.65 39.9 0.7 41.5 0.8 42.45 0.85 42.6 0.8 42.55 0.8 42.45 M1.2 43.05 L2.25 44.05 3.55 44.85 4.85 44.8 8.95 44.0 9.15 43.95 13.5 42.95 13.75 42.85 16.35 41.85 19.85 40.35 19.95 40.3 21.65 39.3 22.3 38.95 25.95 36.6 27.3 35.8 Q28.7 35.1 30.25 34.75 L36.5 33.3 39.2 32.65 47.45 29.8 51.35 27.7 52.1 27.3 54.75 25.65 54.85 25.6 58.2 23.2 60.35 21.6 60.45 21.55 63.45 19.6" fill="none" stroke="#000000" stroke-linecap="round" stroke-linejoin="round" stroke-width="2.0"/>
      <path d="M4.85 44.8 Q3.8 42.7 3.8 40.25 L3.8 39.05 4.9 39.8 7.95 42.7 8.85 43.6 M13.5 42.95 Q12.4 41.6 11.95 40.4 L11.5 39.2 12.9 39.6 Q14.9 40.25 16.35 41.85 M19.55 39.65 Q18.6 38.0 18.2 36.3 L18.1 35.85 18.35 35.9 18.85 36.1 Q20.35 36.75 21.95 38.4 M27.0 35.25 L25.0 32.0 24.9 31.8 25.35 31.75 Q26.75 32.2 28.0 32.95 29.2 33.7 30.25 34.75 M36.5 33.3 L34.3 29.35 Q36.05 29.0 37.45 30.45 L39.2 32.65 M51.7 26.65 L49.75 23.55 49.85 23.45 Q52.2 23.2 54.75 25.65 M60.45 21.55 L59.6 19.8 58.6 17.65 58.55 17.1 Q60.0 16.4 61.35 17.4 62.65 18.35 63.45 19.6 M60.1 7.5 Q59.2 6.35 57.75 5.9 57.1 5.65 56.5 6.05 L57.7 8.0 58.2 9.0 M48.3 18.1 Q46.85 15.95 44.85 15.15 L43.4 14.75 44.65 16.85 45.65 18.85 M41.4 20.75 Q40.2 19.25 38.7 18.3 L37.55 17.65 38.0 18.65 39.45 22.0 M53.4 14.75 Q52.8 13.75 51.9 13.3 L48.9 11.6 51.15 15.65 M32.25 25.8 L30.65 24.1 Q29.5 23.0 28.15 22.7 27.95 22.9 28.0 23.05 28.25 24.4 29.05 26.35 M13.1 32.15 L8.45 28.3 8.4 28.6 8.65 30.55 9.2 33.6 M3.95 37.15 Q1.95 35.7 0.95 33.6 L0.2 32.3 Q-0.4 34.75 0.2 37.1 L0.75 38.5 1.65 39.9" fill="none" stroke="#000000" stroke-linecap="round" stroke-linejoin="round" stroke-width="2.0"/>
      <path d="M73.65 -1.55 Q72.9 -1.75 72.2 -1.2 L69.1 1.7 66.6 4.4 63.95 7.0 61.3 9.55 58.6 12.05 54.35 15.55 54.2 15.7 50.05 19.2 Q48.1 20.8 45.95 21.85 43.85 22.8 41.4 23.55 L38.15 24.5 34.15 25.85 30.3 27.25 29.55 27.55 27.45 28.4 24.9 29.5 24.85 29.5 23.3 30.2 19.8 31.8 16.7 33.4 13.75 35.05 10.95 36.75" fill="none" stroke="#990000" stroke-linecap="round" stroke-linejoin="round" stroke-width="2.0"/>
    </g>
    </g>
  </g>
  <defs>
    <linearGradient gradientTransform="matrix(0.0367, 0.0, 0.0, 0.0162, 123.6, -11.65)" gradientUnits="userSpaceOnUse" id="gradient0" spreadMethod="pad" x1="-819.2" x2="819.2">
      <stop offset="0.0" stop-color="#31552b" stop-opacity="0.8627451"/>
      <stop offset="1.0" stop-color="#41793c" stop-opacity="0.7529412"/>
    </linearGradient>
  </defs>
</svg>