<svg xmlns:xlink="http://www.w3.org/1999/xlink" xmlns="http://www.w3.org/2000/svg" height="38.1px" width="51.7px">
  <g transform="matrix(1.0, 0.0, 0.0, 1.0, -33.0, -89.6)">
    <path d="M57.3 96.1 Q51.15 100.15 47.0 105.9 45.9 107.45 45.55 109.3 45.15 111.2 45.3 113.2 45.45 115.35 46.55 117.1 48.2 119.9 51.0 120.95 L55.7 122.2 62.4 123.3 66.6 123.4 Q67.8 123.65 68.4 124.55 L68.25 125.45 Q65.4 127.7 62.1 127.05 L55.05 125.45 Q47.85 123.5 40.65 124.55 39.45 124.5 38.35 125.0 36.7 125.65 35.15 126.45 L33.9 126.1 Q32.8 122.85 34.8 120.1 L37.25 117.1 38.75 115.3 40.1 113.4 44.8 105.45 Q45.8 103.8 47.1 102.45 L52.4 97.45 Q56.65 93.8 61.8 91.4 65.0 89.95 68.45 90.1 72.6 90.3 76.4 91.7 L80.45 93.4 Q82.4 94.35 83.7 96.15 85.2 99.5 82.1 101.3 L81.4 101.7 Q78.7 99.1 76.45 95.95 L75.3 94.6 Q71.3 91.35 66.2 92.25 61.55 93.3 57.3 96.1" fill="#426822" fill-rule="evenodd" stroke="none"/>
    <path d="M57.3 96.1 Q51.15 100.15 47.0 105.9 45.9 107.45 45.55 109.3 45.15 111.2 45.3 113.2 45.45 115.35 46.55 117.1 48.2 119.9 51.0 120.95 L55.7 122.2 62.4 123.3 66.6 123.4 Q67.8 123.65 68.4 124.55 L68.25 125.45 Q65.4 127.7 62.1 127.05 L55.05 125.45 Q47.85 123.5 40.65 124.55 39.45 124.5 38.35 125.0 36.7 125.65 35.15 126.45 L33.9 126.1 Q32.8 122.85 34.8 120.1 L37.25 117.1 38.75 115.3 40.1 113.4 44.8 105.45 Q45.8 103.8 47.1 102.45 L52.4 97.45 Q56.65 93.8 61.8 91.4 65.0 89.95 68.45 90.1 72.6 90.3 76.4 91.7 L80.45 93.4 Q82.4 94.35 83.7 96.15 85.2 99.5 82.1 101.3 L81.4 101.7 Q78.7 99.1 76.45 95.95 L75.3 94.6 Q71.3 91.35 66.2 92.25 61.55 93.3 57.3 96.1 Z" fill="none" stroke="#000000" stroke-linecap="round" stroke-linejoin="round" stroke-width="2.0"/>
  </g>
</svg>