<svg xmlns:xlink="http://www.w3.org/1999/xlink" xmlns="http://www.w3.org/2000/svg" height="252.85px" width="204.7px">
  <g transform="matrix(1.0, 0.0, 0.0, 1.0, 94.45, 197.8)">
    <g data-characterId="1607" height="80.8" transform="matrix(1.0, 0.0, 0.0, 1.0, -70.45, -41.45)" width="155.4" xlink:href="#shape0"><g id="shape0" transform="matrix(1.0, 0.0, 0.0, 1.0, 70.45, 41.45)">
      <path d="M-11.55 -40.75 L-10.55 -41.45 -10.8 -40.85 -11.55 -40.75" fill="#5a4d36" fill-rule="evenodd" stroke="none"/>
      <path d="M-10.8 -40.85 L-12.85 -35.1 -13.6 -33.8 -15.15 -30.55 -19.75 -20.35 Q0.1 -11.6 20.55 -29.4 29.3 -37.05 40.6 -39.9 L41.0 -40.0 48.85 -39.25 Q51.05 -36.55 68.7 -25.7 86.3 -14.9 84.25 -0.1 82.2 14.7 64.5 23.8 46.75 32.9 24.1 37.0 -0.4 41.4 -24.85 35.2 -47.8 29.35 -66.6 14.75 -68.75 13.05 -69.2 10.65 -70.65 2.75 -69.2 -3.85 -66.1 -18.4 -49.1 -26.6 L-48.85 -26.75 Q-40.15 -34.0 -29.5 -37.05 L-29.2 -37.1 Q-21.1 -39.35 -11.55 -40.75 L-10.8 -40.85 M-17.5 -10.5 L-22.0 -13.5 Q-26.45 -16.75 -28.0 -22.5 -26.45 -16.75 -22.0 -13.5 L-17.5 -10.5 M45.0 -24.5 Q44.85 -18.05 40.5 -13.15 31.6 -3.25 19.15 2.2 -1.15 11.0 -24.05 10.15 -46.85 8.8 -56.0 -11.5 -46.85 8.8 -24.05 10.15 -1.15 11.0 19.15 2.2 31.6 -3.25 40.5 -13.15 44.85 -18.05 45.0 -24.5" fill="#403526" fill-rule="evenodd" stroke="none"/>
      <path d="M-10.8 -40.85 L-12.85 -35.1 -13.6 -33.8 -15.15 -30.55 -19.75 -20.35 Q0.1 -11.6 20.55 -29.4 29.3 -37.05 40.6 -39.9 L41.0 -40.0 48.85 -39.25 Q51.05 -36.55 68.7 -25.7 86.3 -14.9 84.25 -0.1 82.2 14.7 64.5 23.8 46.75 32.9 24.1 37.0 -0.4 41.4 -24.85 35.2 -47.8 29.35 -66.6 14.75 -68.75 13.05 -69.2 10.65 -70.65 2.75 -69.2 -3.85 -66.1 -18.4 -49.1 -26.6 M-48.85 -26.75 Q-40.15 -34.0 -29.5 -37.05 L-29.2 -37.1 Q-21.1 -39.35 -11.55 -40.75 L-10.8 -40.85 M-56.0 -11.5 Q-46.85 8.8 -24.05 10.15 -1.15 11.0 19.15 2.2 31.6 -3.25 40.5 -13.15 44.85 -18.05 45.0 -24.5 M-28.0 -22.5 Q-26.45 -16.75 -22.0 -13.5 L-17.5 -10.5" fill="none" stroke="#000000" stroke-linecap="round" stroke-linejoin="round" stroke-width="2.0"/>
    </g>
  </g>
  </g>
  <defs>
    </defs>
</svg>