<svg xmlns:xlink="http://www.w3.org/1999/xlink" xmlns="http://www.w3.org/2000/svg" height="58.9px" width="78.85px">
  <g transform="matrix(1.0, 0.0, 0.0, 1.0, -18.95, -81.1)">
    <path d="M19.45 139.5 Q22.15 126.15 31.3 118.05 40.4 109.9 44.75 96.35 49.05 82.8 75.65 81.6 80.35 89.8 91.75 87.2 L91.7 85.8 89.05 84.95 M55.8 128.6 Q57.95 127.4 65.4 125.95 72.85 124.45 75.95 120.6 79.0 116.65 79.75 114.55 80.4 112.35 82.9 109.7 85.4 107.0 85.55 105.0 85.65 102.95 84.85 101.25" fill="none" stroke="#006600" stroke-linecap="round" stroke-linejoin="round" stroke-width="2.0"/>
    <path d="M95.5 87.5 Q98.2 91.3 96.85 95.7 L96.5 96.75 M93.0 97.0 L93.8 96.6 Q95.65 93.8 93.5 91.75 M79.9 93.65 Q66.95 92.5 56.3 98.85 52.65 101.05 50.85 105.0 47.65 112.1 42.7 117.85 40.7 120.2 37.95 121.65 L34.1 123.75 38.75 122.85 Q48.05 121.2 59.05 120.45 72.85 119.5 76.2 110.65 79.55 101.75 80.0 98.45 80.45 95.15 79.9 93.65 L90.6 91.7 M34.1 123.75 Q26.8 126.9 25.2 134.7 L25.0 136.0" fill="none" stroke="#000000" stroke-linecap="round" stroke-linejoin="round" stroke-width="2.0"/>
  </g>
</svg>