<svg xmlns:xlink="http://www.w3.org/1999/xlink" xmlns="http://www.w3.org/2000/svg" height="224.65px" width="260.8px">
  <g transform="matrix(1.0, 0.0, 0.0, 1.0, 89.35, 116.1)">
    <g data-characterId="1665" height="166.25" transform="matrix(1.0, 0.0, 0.0, 1.0, -80.65, -116.1)" width="244.2" xlink:href="#shape0"><g id="shape0" transform="matrix(1.0, 0.0, 0.0, 1.0, 80.65, 116.1)">
      <path d="M27.2 -1.6 L27.65 -1.45 28.95 -1.3 Q30.4 -1.05 31.6 -0.35 L32.5 0.3 Q33.15 0.9 33.35 1.65 L33.4 2.05 33.4 2.25 Q39.15 7.9 36.85 15.65 L36.8 15.9 36.7 16.1 35.75 16.65 Q33.9 17.85 32.75 19.75 L29.6 22.1 28.55 22.9 19.35 23.5 Q12.95 24.25 6.0 26.05 -6.25 29.2 -21.0 34.85 -32.7 38.4 -43.2 42.25 L-63.75 49.65 -66.5 46.95 Q-67.75 45.75 -69.3 45.0 L-68.7 40.4 Q-56.05 32.95 -41.6 29.0 -29.8 25.65 -19.15 19.3 -7.85 12.5 2.6 4.4 11.65 -2.7 23.5 -1.95 L25.7 -1.8 27.2 -1.6 M32.5 12.7 Q30.5 12.5 29.1 14.15 28.2 15.25 27.85 16.55 27.6 17.55 27.9 18.7 27.6 17.55 27.85 16.55 28.2 15.25 29.1 14.15 30.5 12.5 32.5 12.7 M29.35 4.9 L28.75 5.15 27.35 6.05 26.95 6.9 Q26.9 7.35 26.65 7.4 L23.3 8.6 22.0 9.35 Q19.7 11.1 19.95 13.85 20.05 15.0 20.7 15.55 L13.8 16.05 12.15 16.4 Q10.8 16.85 9.5 17.55 5.25 19.75 5.75 24.45 5.25 19.75 9.5 17.55 10.8 16.85 12.15 16.4 L13.8 16.05 20.7 15.55 Q20.05 15.0 19.95 13.85 19.7 11.1 22.0 9.35 L23.3 8.6 26.65 7.4 Q26.9 7.35 26.95 6.9 L27.35 6.05 28.75 5.15 29.35 4.9 M3.15 23.9 L-0.3 23.7 -2.1 23.8 Q-4.5 24.85 -4.6 27.35 -4.5 24.85 -2.1 23.8 L-0.3 23.7 3.15 23.9" fill="#50882d" fill-rule="evenodd" stroke="none"/>
      <path d="M33.45 20.4 L35.9 22.35 Q43.7 24.9 50.9 28.8 L50.05 28.8 Q40.5 25.05 35.7 32.95 31.0 29.6 29.9 23.5 L29.6 22.1 32.75 19.75 32.85 19.65 33.45 20.4" fill="url(#gradient0)" fill-rule="evenodd" stroke="none"/>
      <path d="M35.7 32.95 Q37.0 33.85 38.55 34.55 L36.0 34.3 Q25.05 32.4 19.35 23.5 L28.55 22.9 29.6 22.1 29.9 23.5 Q31.0 29.6 35.7 32.95" fill="#4f7b28" fill-rule="evenodd" stroke="none"/>
      <path d="M27.2 -1.6 L27.65 -1.45 28.95 -1.3 Q30.4 -1.05 31.6 -0.35 L32.5 0.3 Q33.15 0.9 33.35 1.65 L33.4 2.05 33.4 2.25 Q39.15 7.9 36.85 15.65 L36.8 15.9 M36.7 16.1 L36.4 16.95 M33.45 20.4 L35.9 22.35 Q43.7 24.9 50.9 28.8 L50.05 28.8 Q40.5 25.05 35.7 32.95 37.0 33.85 38.55 34.55 L36.0 34.3 Q25.05 32.4 19.35 23.5 12.95 24.25 6.0 26.05 -6.25 29.2 -21.0 34.85 -32.7 38.4 -43.2 42.25 L-63.75 49.65 -66.5 46.95 Q-67.75 45.75 -69.3 45.0 M35.7 32.95 Q31.0 29.6 29.9 23.5 L29.6 22.1 28.55 22.9 19.35 23.5 M32.75 19.75 L32.85 19.65 M32.75 19.75 L29.6 22.1" fill="none" stroke="#000000" stroke-linecap="round" stroke-linejoin="round" stroke-width="2.0"/>
      <path d="M5.75 24.45 Q5.25 19.75 9.5 17.55 10.8 16.85 12.15 16.4 L13.8 16.05 20.7 15.55 Q20.05 15.0 19.95 13.85 19.7 11.1 22.0 9.35 L23.3 8.6 26.65 7.4 Q26.9 7.35 26.95 6.9 L27.35 6.05 28.75 5.15 29.35 4.9 M27.9 18.7 Q27.6 17.55 27.85 16.55 28.2 15.25 29.1 14.15 30.5 12.5 32.5 12.7 M-4.6 27.35 Q-4.5 24.85 -2.1 23.8 L-0.3 23.7 3.15 23.9" fill="none" stroke="#006600" stroke-linecap="round" stroke-linejoin="round" stroke-width="2.0"/>
      <path d="M36.8 15.9 L36.7 16.1 35.75 16.65 Q33.9 17.85 32.75 19.75 M-69.3 45.0 L-68.7 40.4 Q-56.05 32.95 -41.6 29.0 -29.8 25.65 -19.15 19.3 -7.85 12.5 2.6 4.4 11.65 -2.7 23.5 -1.95 L25.7 -1.8 27.2 -1.6" fill="none" stroke="#000000" stroke-linecap="round" stroke-linejoin="round" stroke-width="2.0"/>
      <path d="M-1.6 -50.9 L4.4 -52.5 Q10.55 -53.8 15.8 -57.1 25.8 -63.2 35.65 -69.6 53.8 -81.25 72.65 -91.95 L92.1 -102.95 Q101.6 -108.3 109.85 -111.2 118.1 -114.1 123.25 -115.2 128.5 -116.7 133.6 -112.45 125.7 -109.65 118.1 -106.05 105.95 -100.15 94.05 -93.85 81.8 -87.25 69.7 -80.25 58.7 -73.85 48.4 -66.35 38.8 -59.35 29.6 -51.8 L29.55 -51.8 27.65 -50.2 Q20.55 -51.25 13.75 -50.3 L13.7 -50.3 Q7.85 -49.5 2.15 -47.3 L2.0 -47.75 -1.4 -50.15 -1.6 -50.9 M31.4 -49.45 L41.25 -55.05 71.1 -71.6 94.95 -84.6 Q106.35 -90.65 116.2 -93.2 126.0 -95.8 131.6 -97.7 145.45 -99.65 159.75 -99.65 L163.05 -96.55 140.0 -90.9 Q126.95 -87.4 114.5 -81.9 103.35 -76.95 92.55 -70.8 81.0 -64.2 69.45 -57.3 57.4 -50.15 45.95 -42.2 L45.9 -42.2 44.8 -41.4 Q34.45 -34.45 28.9 -27.05 L28.15 -26.0 24.95 -24.6 24.3 -24.15 10.65 -35.35 10.3 -35.95 31.4 -49.45" fill="url(#gradient1)" fill-rule="evenodd" stroke="none"/>
      <path d="M-1.6 -50.9 L-1.4 -50.15 2.0 -47.75 2.15 -47.3 Q7.85 -49.5 13.7 -50.3 L13.75 -50.3 Q20.55 -51.25 27.65 -50.2 L31.4 -49.45 10.3 -35.95 10.65 -35.35 24.3 -24.15 24.95 -24.6 28.15 -26.0 28.45 -26.1 29.55 -26.55 30.95 -24.75 31.95 -22.3 32.9 -18.35 32.95 -17.8 33.1 -17.05 34.15 -12.9 34.65 -10.05 34.8 -6.75 34.65 -1.3 34.55 -0.2 Q34.55 0.7 34.1 1.4 L33.95 1.75 33.65 2.0 33.4 2.05 33.4 2.25 33.7 2.5 33.4 4.4 Q33.4 5.0 33.2 5.0 L29.75 5.25 29.35 5.25 28.75 5.2 28.65 5.2 Q27.85 5.55 27.35 6.05 L27.45 5.15 23.8 4.9 22.8 5.1 Q21.15 6.1 18.55 6.5 L18.7 7.25 14.25 12.9 6.8 13.4 Q-2.85 15.05 -10.9 21.7 -22.05 30.85 -36.75 32.8 -40.45 33.3 -43.25 35.25 -55.35 43.45 -69.6 44.85 L-71.25 44.2 -73.7 43.65 -76.8 42.7 Q-79.15 41.7 -80.05 39.3 L-80.15 38.85 -79.25 33.0 Q-78.1 24.0 -75.8 15.25 L-71.25 16.05 Q-67.75 15.5 -64.9 13.25 -56.3 6.45 -48.65 -1.35 -45.1 -5.05 -43.0 -10.05 -39.9 -17.3 -39.05 -25.05 L-33.25 -29.8 Q-23.05 -38.0 -12.15 -45.6 -7.25 -48.95 -1.65 -50.85 L-1.6 -50.9 M8.9 -30.65 Q10.0 -30.7 10.35 -30.2 10.5 -30.05 10.65 -30.05 11.85 -30.1 11.8 -29.05 L11.65 -28.6 11.25 -28.35 10.3 -28.05 5.75 -26.95 0.3 -25.95 -1.1 -25.7 -6.35 -24.7 -7.75 -24.35 -10.35 -23.65 -16.4 -22.1 -17.25 -22.0 -19.0 -21.55 -24.7 -17.7 -26.1 -16.35 -30.85 -10.05 Q-33.8 -5.6 -38.0 -2.0 L-40.95 0.5 -42.2 1.55 Q-44.7 3.75 -47.45 5.55 -50.7 7.65 -53.6 10.3 -56.05 12.55 -57.8 15.25 L-59.35 17.5 Q-61.55 20.5 -60.7 23.9 -61.55 20.5 -59.35 17.5 L-57.8 15.25 Q-56.05 12.55 -53.6 10.3 -50.7 7.65 -47.45 5.55 -44.7 3.75 -42.2 1.55 L-40.95 0.5 -38.0 -2.0 Q-33.8 -5.6 -30.85 -10.05 L-26.1 -16.35 -24.7 -17.7 -19.0 -21.55 -17.25 -22.0 -16.4 -22.1 -10.35 -23.65 -7.75 -24.35 -6.35 -24.7 -1.1 -25.7 0.3 -25.95 5.75 -26.95 10.3 -28.05 11.25 -28.35 11.65 -28.6 11.8 -29.05 Q11.85 -30.1 10.65 -30.05 10.5 -30.05 10.35 -30.2 10.0 -30.7 8.9 -30.65 M8.6 -40.85 L8.0 -41.25 3.45 -43.15 8.0 -41.25 8.6 -40.85 M18.05 -46.1 Q16.8 -48.55 13.8 -49.5 16.8 -48.55 18.05 -46.1 M7.55 -34.2 L10.3 -35.95 7.55 -34.2 M6.05 -13.8 L4.9 -12.65 2.75 -10.8 -0.1 -9.1 Q-1.55 -8.5 -2.35 -7.25 -3.8 -4.95 -3.65 -2.3 L-3.75 -1.7 Q-4.9 -0.3 -6.4 0.8 -10.75 3.9 -15.85 5.5 -17.1 5.9 -18.25 6.6 L-21.0 8.65 Q-23.2 10.65 -23.0 13.55 -23.2 10.65 -21.0 8.65 L-18.25 6.6 Q-17.1 5.9 -15.85 5.5 -10.75 3.9 -6.4 0.8 -4.9 -0.3 -3.75 -1.7 L-3.65 -2.3 Q-3.8 -4.95 -2.35 -7.25 -1.55 -8.5 -0.1 -9.1 L2.75 -10.8 4.9 -12.65 6.05 -13.8 M-3.6 -33.2 Q-6.6 -36.05 -10.95 -36.8 -6.6 -36.05 -3.6 -33.2 M-4.25 -21.25 Q-18.8 -17.15 -27.6 -4.0 -28.6 -2.5 -30.15 -1.35 L-33.8 1.2 Q-39.75 5.1 -46.05 8.15 L-26.2 6.15 -24.35 6.25 -21.15 5.65 -13.35 1.1 Q-11.9 0.15 -11.15 -1.35 -7.1 -8.9 -2.15 -15.8 L-1.55 -16.1 Q0.95 -17.75 -0.25 -21.95 L-4.25 -21.25 M10.45 -23.9 L-0.25 -21.95 10.45 -23.9 M-55.15 20.4 L-55.0 19.15 Q-53.55 11.35 -46.05 8.15 -53.55 11.35 -55.0 19.15 L-55.15 20.4 M-69.9 32.5 Q-70.35 31.65 -70.25 30.85 -70.05 29.5 -69.25 28.25 L-67.45 26.05 Q-65.5 24.1 -67.15 21.9 -67.6 21.3 -68.3 21.0 L-70.0 21.1 Q-71.05 21.6 -71.75 22.6 -72.1 23.15 -72.05 23.6 -72.1 23.15 -71.75 22.6 -71.05 21.6 -70.0 21.1 L-68.3 21.0 Q-67.6 21.3 -67.15 21.9 -65.5 24.1 -67.45 26.05 L-69.25 28.25 Q-70.05 29.5 -70.25 30.85 -70.35 31.65 -69.9 32.5 M-0.5 -46.3 L2.15 -47.3 -0.5 -46.3" fill="#50882d" fill-rule="evenodd" stroke="none"/>
      <path d="M33.95 1.75 L33.7 2.5 33.4 2.25 33.65 2.0 33.95 1.75" fill="url(#gradient2)" fill-rule="evenodd" stroke="none"/>
      <path d="M-33.8 1.2 L-30.15 -1.35 Q-28.6 -2.5 -27.6 -4.0 -18.8 -17.15 -4.25 -21.25 L-2.15 -15.8 Q-7.1 -8.9 -11.15 -1.35 -11.9 0.15 -13.35 1.1 L-21.15 5.65 -26.2 6.15 Q-30.1 5.6 -32.65 2.7 L-33.8 1.2" fill="url(#gradient3)" fill-rule="evenodd" stroke="none"/>
      <path d="M-33.8 1.2 L-32.65 2.7 Q-30.1 5.6 -26.2 6.15 L-46.05 8.15 Q-39.75 5.1 -33.8 1.2 M-2.15 -15.8 L-4.25 -21.25 -0.25 -21.95 Q0.95 -17.75 -1.55 -16.1 L-2.15 -15.8" fill="#426822" fill-rule="evenodd" stroke="none"/>
      <path d="M27.65 -50.2 L29.55 -51.8 29.6 -51.8 Q38.8 -59.35 48.4 -66.35 58.7 -73.85 69.7 -80.25 81.8 -87.25 94.05 -93.85 105.95 -100.15 118.1 -106.05 125.7 -109.65 133.6 -112.45 128.5 -116.7 123.25 -115.2 118.1 -114.1 109.85 -111.2 101.6 -108.3 92.1 -102.95 L72.65 -91.95 Q53.8 -81.25 35.65 -69.6 25.8 -63.2 15.8 -57.1 10.55 -53.8 4.4 -52.5 L-1.6 -50.9 -1.65 -50.85 Q-7.25 -48.95 -12.15 -45.6 -23.05 -38.0 -33.25 -29.8 L-39.05 -25.05 Q-39.9 -17.3 -43.0 -10.05 -45.1 -5.05 -48.65 -1.35 -56.3 6.45 -64.9 13.25 -67.75 15.5 -71.25 16.05 L-75.8 15.25 Q-78.1 24.0 -79.25 33.0 L-80.15 38.85 -80.05 39.3 Q-79.15 41.7 -76.8 42.7 L-73.7 43.65 -71.25 44.2 -69.6 44.85 M2.15 -47.3 Q7.85 -49.5 13.7 -50.3 L13.75 -50.3 Q20.55 -51.25 27.65 -50.2 L31.4 -49.45 41.25 -55.05 71.1 -71.6 94.95 -84.6 Q106.35 -90.65 116.2 -93.2 126.0 -95.8 131.6 -97.7 145.45 -99.65 159.75 -99.65 L163.05 -96.55 140.0 -90.9 Q126.95 -87.4 114.5 -81.9 103.35 -76.95 92.55 -70.8 81.0 -64.2 69.45 -57.3 57.4 -50.15 45.95 -42.2 L45.9 -42.2 44.8 -41.4 Q34.45 -34.45 28.9 -27.05 L28.15 -26.0 28.45 -26.1 29.55 -26.55 M10.3 -35.95 L7.55 -34.2 M10.3 -35.95 L31.4 -49.45 M33.4 2.05 L33.4 2.25 33.65 2.0 33.95 1.75 M33.4 2.25 L33.7 2.5 M-4.25 -21.25 Q-18.8 -17.15 -27.6 -4.0 -28.6 -2.5 -30.15 -1.35 L-33.8 1.2 -32.65 2.7 Q-30.1 5.6 -26.2 6.15 L-21.15 5.65 -13.35 1.1 Q-11.9 0.15 -11.15 -1.35 -7.1 -8.9 -2.15 -15.8 L-4.25 -21.25 -0.25 -21.95 10.45 -23.9 M-2.15 -15.8 L-1.55 -16.1 Q0.95 -17.75 -0.25 -21.95 M-26.2 6.15 L-24.35 6.25 -21.15 5.65 M-46.05 8.15 Q-53.55 11.35 -55.0 19.15 L-55.15 20.4 M-33.8 1.2 Q-39.75 5.1 -46.05 8.15 L-26.2 6.15 M2.15 -47.3 L-0.5 -46.3" fill="none" stroke="#000000" stroke-linecap="round" stroke-linejoin="round" stroke-width="2.0"/>
      <path d="M13.8 -49.5 Q16.8 -48.55 18.05 -46.1 M3.45 -43.15 L8.0 -41.25 8.6 -40.85 M-60.7 23.9 Q-61.55 20.5 -59.35 17.5 L-57.8 15.25 Q-56.05 12.55 -53.6 10.3 -50.7 7.65 -47.45 5.55 -44.7 3.75 -42.2 1.55 L-40.95 0.5 -38.0 -2.0 Q-33.8 -5.6 -30.85 -10.05 L-26.1 -16.35 -24.7 -17.7 -19.0 -21.55 -17.25 -22.0 -16.4 -22.1 -10.35 -23.65 -7.75 -24.35 -6.35 -24.7 -1.1 -25.7 0.3 -25.95 5.75 -26.95 10.3 -28.05 11.25 -28.35 11.65 -28.6 11.8 -29.05 Q11.85 -30.1 10.65 -30.05 10.5 -30.05 10.35 -30.2 10.0 -30.7 8.9 -30.65 M-23.0 13.55 Q-23.2 10.65 -21.0 8.65 L-18.25 6.6 Q-17.1 5.9 -15.85 5.5 -10.75 3.9 -6.4 0.8 -4.9 -0.3 -3.75 -1.7 L-3.65 -2.3 Q-3.8 -4.95 -2.35 -7.25 -1.55 -8.5 -0.1 -9.1 L2.75 -10.8 4.9 -12.65 6.05 -13.8 M-10.95 -36.8 Q-6.6 -36.05 -3.6 -33.2 M-72.05 23.6 Q-72.1 23.15 -71.75 22.6 -71.05 21.6 -70.0 21.1 L-68.3 21.0 Q-67.6 21.3 -67.15 21.9 -65.5 24.1 -67.45 26.05 L-69.25 28.25 Q-70.05 29.5 -70.25 30.85 -70.35 31.65 -69.9 32.5" fill="none" stroke="#006600" stroke-linecap="round" stroke-linejoin="round" stroke-width="2.0"/>
      <path d="M28.9 -27.05 L29.55 -26.55 30.95 -24.75 31.95 -22.3 32.9 -18.35 32.95 -17.8 33.1 -17.05 34.15 -12.9 34.65 -10.05 34.8 -6.75 34.65 -1.3 34.55 -0.2 Q34.55 0.7 34.1 1.4 L33.95 1.75 33.7 2.5 M6.8 13.4 L8.1 15.15 8.4 15.45 M-69.6 44.85 Q-55.35 43.45 -43.25 35.25 -40.45 33.3 -36.75 32.8 -22.05 30.85 -10.9 21.7 -2.85 15.05 6.8 13.4" fill="none" stroke="#000000" stroke-linecap="round" stroke-linejoin="round" stroke-width="2.0"/>
    </g>
    </g>
    <g data-characterId="1664" height="84.15" transform="matrix(1.0, 0.0, 0.0, 1.0, 21.75, -41.1)" width="80.35" xlink:href="#shape1"><g id="shape1" transform="matrix(1.0, 0.0, 0.0, 1.0, -21.75, 41.1)">
      <path d="M22.75 -22.05 Q23.15 -23.15 24.4 -24.0 26.2 -25.1 28.2 -25.85 33.3 -27.8 38.65 -28.85 L43.9 -29.9 53.2 -30.35 64.75 -29.35 Q70.8 -29.25 76.6 -30.7 81.6 -32.1 85.95 -34.7 89.95 -37.15 93.3 -40.6 92.1 -36.05 89.0 -32.65 87.6 -31.15 85.9 -30.05 84.3 -28.95 82.25 -28.3 78.75 -27.0 74.9 -26.9 L69.85 -26.75 60.15 -26.5 50.85 -26.45 Q45.25 -26.5 39.75 -25.35 35.2 -24.3 31.3 -21.85 27.3 -19.3 24.25 -15.7 L23.15 -14.3 21.75 -18.9 21.8 -19.55 22.1 -20.35 22.75 -22.05 M84.35 -0.4 L89.85 0.6 Q95.95 1.3 100.6 -2.2 L101.6 -3.0 100.85 -1.9 Q96.7 3.5 91.65 5.65 87.2 7.55 82.05 6.9 L77.65 5.9 77.4 5.85 75.05 4.95 Q67.3 1.7 59.75 -1.95 52.45 -5.5 45.9 -4.5 39.4 -3.5 33.65 2.0 L33.4 2.05 33.35 1.65 Q33.15 0.9 32.5 0.3 31.9 0.4 30.95 -0.1 L29.05 -1.2 Q28.15 -1.85 29.55 -3.8 L29.45 -4.35 Q30.0 -5.8 30.85 -6.95 33.0 -9.95 36.9 -10.8 48.5 -13.55 60.05 -8.75 71.9 -3.65 84.35 -0.4 M73.1 37.2 L74.5 37.9 Q76.35 38.75 78.6 38.9 L79.5 38.95 Q82.85 39.0 85.8 37.7 82.8 40.7 79.6 41.85 72.4 44.35 64.1 37.65 57.8 32.6 50.9 28.8 43.7 24.9 35.9 22.35 L33.45 20.4 32.85 19.65 Q32.05 18.9 32.5 18.3 L33.5 17.15 Q33.95 16.6 35.55 16.7 L36.5 16.65 36.4 16.95 36.8 16.6 37.25 16.3 Q39.55 14.85 42.25 15.5 48.05 16.9 52.0 21.9 60.4 32.5 73.1 37.2 M91.45 5.15 Q86.75 6.15 82.15 5.35 78.85 4.85 76.0 3.35 68.4 -0.55 60.55 -3.9 52.8 -7.2 45.6 -5.95 38.8 -4.85 32.5 0.3 38.8 -4.85 45.6 -5.95 52.8 -7.2 60.55 -3.9 68.4 -0.55 76.0 3.35 78.85 4.85 82.15 5.35 86.75 6.15 91.45 5.15" fill="#50882d" fill-rule="evenodd" stroke="none"/>
      <path d="M74.9 -26.9 Q69.8 -21.8 70.6 -15.7 70.85 -13.65 72.45 -11.85 77.95 -5.65 84.35 -0.4 71.9 -3.65 60.05 -8.75 48.5 -13.55 36.9 -10.8 33.0 -9.95 30.85 -6.95 30.4 -7.55 29.8 -10.6 29.15 -13.7 24.45 -15.5 L24.25 -15.7 Q27.3 -19.3 31.3 -21.85 35.2 -24.3 39.75 -25.35 45.25 -26.5 50.85 -26.45 L60.15 -26.5 69.85 -26.75 74.9 -26.9 M77.4 5.85 L66.15 15.9 Q66.9 21.5 68.55 26.9 70.25 32.3 73.1 37.2 60.4 32.5 52.0 21.9 48.05 16.9 42.25 15.5 39.55 14.85 37.25 16.3 L36.8 16.6 36.4 16.95 36.5 16.65 36.85 15.65 Q39.15 7.9 33.4 2.25 L33.65 2.0 Q39.4 -3.5 45.9 -4.5 52.45 -5.5 59.75 -1.95 67.3 1.7 75.05 4.95 L77.4 5.85 M58.1 -16.7 L59.65 -16.5 Q61.9 -16.45 63.9 -17.2 61.9 -16.45 59.65 -16.5 L58.1 -16.7 M41.45 4.6 Q44.25 2.9 47.4 2.3 L50.35 2.4 Q52.75 2.8 55.1 3.5 60.75 5.1 66.75 5.75 60.75 5.1 55.1 3.5 52.75 2.8 50.35 2.4 L47.4 2.3 Q44.25 2.9 41.45 4.6 M61.6 -21.4 L57.7 -21.8 Q42.95 -24.6 31.05 -17.3 42.95 -24.6 57.7 -21.8 L61.6 -21.4 M56.4 13.8 L62.8 17.65 56.4 13.8" fill="url(#gradient4)" fill-rule="evenodd" stroke="none"/>
      <path d="M22.75 -22.05 Q23.15 -23.15 24.4 -24.0 26.2 -25.1 28.2 -25.85 33.3 -27.8 38.65 -28.85 L43.9 -29.9 53.2 -30.35 64.75 -29.35 Q70.8 -29.25 76.6 -30.7 81.6 -32.1 85.95 -34.7 89.95 -37.15 93.3 -40.6 92.1 -36.05 89.0 -32.65 87.6 -31.15 85.9 -30.05 84.3 -28.95 82.25 -28.3 78.75 -27.0 74.9 -26.9 69.8 -21.8 70.6 -15.7 70.85 -13.65 72.45 -11.85 77.95 -5.65 84.35 -0.4 L89.85 0.6 Q95.95 1.3 100.6 -2.2 L101.6 -3.0 100.85 -1.9 Q96.7 3.5 91.65 5.65 87.2 7.55 82.05 6.9 L77.65 5.9 77.4 5.85 66.15 15.9 Q66.9 21.5 68.55 26.9 70.25 32.3 73.1 37.2 L74.5 37.9 Q76.35 38.75 78.6 38.9 L79.5 38.95 Q82.85 39.0 85.8 37.7 82.8 40.7 79.6 41.85 72.4 44.35 64.1 37.65 57.8 32.6 50.9 28.8 43.7 24.9 35.9 22.35 L33.45 20.4 M36.5 16.65 L36.85 15.65 Q39.15 7.9 33.4 2.25 L33.4 2.05 33.35 1.65 Q33.15 0.9 32.5 0.3 M29.45 -4.35 Q30.0 -5.8 30.85 -6.95 33.0 -9.95 36.9 -10.8 48.5 -13.55 60.05 -8.75 71.9 -3.65 84.35 -0.4 M24.25 -15.7 L23.15 -14.3 M74.9 -26.9 L69.85 -26.75 60.15 -26.5 50.85 -26.45 Q45.25 -26.5 39.75 -25.35 35.2 -24.3 31.3 -21.85 27.3 -19.3 24.25 -15.7 M77.4 5.85 L75.05 4.95 Q67.3 1.7 59.75 -1.95 52.45 -5.5 45.9 -4.5 39.4 -3.5 33.65 2.0 L33.4 2.25 M73.1 37.2 Q60.4 32.5 52.0 21.9 48.05 16.9 42.25 15.5 39.55 14.85 37.25 16.3 L36.8 16.6 36.4 16.95 36.5 16.65" fill="none" stroke="#000000" stroke-linecap="round" stroke-linejoin="round" stroke-width="2.0"/>
      <path d="M63.9 -17.2 Q61.9 -16.45 59.65 -16.5 L58.1 -16.7 M32.5 0.3 Q38.8 -4.85 45.6 -5.95 52.8 -7.2 60.55 -3.9 68.4 -0.55 76.0 3.35 78.85 4.85 82.15 5.35 86.75 6.15 91.45 5.15 M31.05 -17.3 Q42.95 -24.6 57.7 -21.8 L61.6 -21.4 M66.75 5.75 Q60.75 5.1 55.1 3.5 52.75 2.8 50.35 2.4 L47.4 2.3 Q44.25 2.9 41.45 4.6 M62.8 17.65 L56.4 13.8" fill="none" stroke="#006600" stroke-linecap="round" stroke-linejoin="round" stroke-width="2.0"/>
    </g>
    </g>
  </g>
  <defs>
    <linearGradient gradientTransform="matrix(0.0367, 0.0, 0.0, 0.0162, 54.3, -13.65)" gradientUnits="userSpaceOnUse" id="gradient0" spreadMethod="pad" x1="-819.2" x2="819.2">
      <stop offset="0.0" stop-color="#31552b" stop-opacity="0.8627451"/>
      <stop offset="1.0" stop-color="#41793c" stop-opacity="0.7529412"/>
    </linearGradient>
    <linearGradient gradientTransform="matrix(0.0202, -0.0172, 0.0298, 0.035, 38.15, -43.05)" gradientUnits="userSpaceOnUse" id="gradient1" spreadMethod="pad" x1="-819.2" x2="819.2">
      <stop offset="0.0" stop-color="#50882d"/>
      <stop offset="1.0" stop-color="#000000"/>
    </linearGradient>
    <linearGradient gradientTransform="matrix(0.0367, 0.0, 0.0, 0.0162, 54.3, -13.65)" gradientUnits="userSpaceOnUse" id="gradient2" spreadMethod="pad" x1="-819.2" x2="819.2">
      <stop offset="0.0" stop-color="#31552b" stop-opacity="0.8627451"/>
      <stop offset="1.0" stop-color="#41793c" stop-opacity="0.7529412"/>
    </linearGradient>
    <radialGradient cx="0" cy="0" gradientTransform="matrix(0.0237, 0.0, 0.0, 0.0237, -18.0, -7.55)" gradientUnits="userSpaceOnUse" id="gradient3" r="819.2" spreadMethod="pad">
      <stop offset="0.0" stop-color="#ffffff"/>
      <stop offset="1.0" stop-color="#ecf71a"/>
    </radialGradient>
    <linearGradient gradientTransform="matrix(0.0367, 0.0, 0.0, 0.0162, 54.3, -13.65)" gradientUnits="userSpaceOnUse" id="gradient4" spreadMethod="pad" x1="-819.2" x2="819.2">
      <stop offset="0.0" stop-color="#31552b" stop-opacity="0.8627451"/>
      <stop offset="1.0" stop-color="#41793c" stop-opacity="0.7529412"/>
    </linearGradient>
  </defs>
</svg>