<?xml version="1.0" encoding="UTF-8" standalone="no"?>
<svg xmlns:xlink="http://www.w3.org/1999/xlink" height="29.8px" width="156.95px" xmlns="http://www.w3.org/2000/svg">
  <g transform="matrix(1.0, 0.0, 0.0, 1.0, 2.5, 2.5)">
    <path d="M146.2 1.7 L143.55 3.55 136.9 10.5 144.05 18.55 146.7 21.25 148.4 22.55 150.2 23.35 Q151.95 23.6 151.95 23.85 152.0 24.35 151.7 24.55 L150.95 24.65 146.25 24.6 Q144.8 24.5 143.75 23.8 142.5 23.05 140.25 20.35 L134.0 12.85 134.05 21.25 134.25 22.7 134.55 23.25 135.25 23.45 136.5 23.5 Q137.2 23.6 137.1 24.25 136.8 24.65 136.3 24.65 L127.45 24.6 127.1 24.3 Q127.0 23.7 127.35 23.6 L128.9 23.4 Q129.3 23.35 129.5 22.4 L129.7 18.55 129.7 3.1 Q129.65 1.85 129.3 1.6 128.7 1.15 128.45 1.2 L127.0 1.15 Q126.55 0.95 126.6 0.5 126.9 0.0 127.3 0.05 L135.85 0.05 Q136.6 0.2 136.5 0.6 L136.3 1.1 134.6 1.4 134.2 1.95 Q133.9 3.7 134.0 10.45 L140.35 3.55 141.6 1.65 141.55 1.3 141.5 1.2 141.0 1.05 Q140.75 0.8 140.8 0.25 L141.25 0.05 148.55 0.05 Q149.15 0.2 149.15 0.55 L148.95 1.1 Q147.25 1.2 146.2 1.7 M124.45 4.7 L123.9 5.3 123.35 5.05 Q123.3 3.65 123.05 3.3 L122.4 2.8 120.45 2.5 117.05 2.45 117.1 10.5 122.1 10.45 123.0 10.25 123.7 9.55 Q124.25 9.55 124.35 10.0 L123.95 14.85 Q123.85 15.4 123.45 15.4 L122.9 15.25 Q122.85 13.75 122.6 13.4 L121.85 12.85 117.05 12.7 117.05 20.65 Q117.15 21.75 117.6 22.0 L119.1 22.4 123.3 22.05 123.9 21.55 124.3 20.75 124.5 19.65 Q124.8 19.1 125.45 19.4 L125.6 19.95 125.25 23.4 Q124.95 25.05 123.3 24.7 L110.4 24.55 110.0 24.25 Q109.95 23.65 110.25 23.55 L111.8 23.35 Q112.25 23.35 112.4 22.35 L112.6 18.55 112.6 3.25 Q112.55 2.05 112.25 1.75 111.6 1.3 111.35 1.35 L109.95 1.3 Q109.5 1.15 109.55 0.65 109.85 0.15 110.25 0.2 L122.6 0.3 124.2 0.0 Q124.7 -0.05 124.85 0.35 L124.45 4.7 M108.7 11.4 Q108.75 13.3 108.35 15.2 106.05 24.5 94.9 24.8 L84.05 24.45 83.65 24.15 Q83.6 23.6 83.95 23.45 L85.45 23.25 Q85.85 23.25 86.05 22.25 L86.25 18.45 86.25 3.15 Q86.2 1.95 85.85 1.65 85.25 1.2 85.0 1.25 L83.6 1.2 Q83.15 1.05 83.2 0.55 83.5 0.05 83.9 0.15 L95.0 0.15 98.8 0.45 Q103.65 1.2 106.15 4.3 108.55 7.45 108.7 11.4 M101.7 5.75 L99.7 3.95 Q97.35 2.55 94.0 2.15 L90.8 2.35 90.65 2.55 90.6 3.75 Q90.55 20.2 90.85 21.3 91.15 22.4 93.95 22.75 L98.85 22.2 Q100.25 21.75 101.25 20.85 102.7 19.65 103.35 18.15 L104.05 14.1 Q104.15 10.8 103.45 8.95 102.9 7.25 101.7 5.75 M81.55 24.7 L76.8 24.6 Q75.4 24.4 74.2 23.35 73.0 22.35 71.6 20.35 L68.0 15.1 67.55 14.75 64.85 14.75 Q64.7 20.85 65.15 22.8 L65.5 23.35 67.95 23.65 Q68.2 24.55 67.6 24.65 L58.45 24.65 58.05 24.35 Q57.95 23.75 58.3 23.65 L59.85 23.45 Q60.25 23.4 60.45 22.45 L60.65 18.6 60.65 3.15 Q60.6 1.9 60.25 1.65 59.65 1.2 59.4 1.25 L57.95 1.2 Q57.5 1.0 57.55 0.55 57.85 0.05 58.25 0.1 L67.85 0.1 70.35 0.4 Q72.85 1.1 73.85 2.4 74.85 3.65 75.1 5.6 75.15 8.25 73.95 10.15 L72.6 11.9 71.05 13.25 75.95 19.45 78.65 22.4 79.2 22.75 Q80.25 23.5 82.1 23.6 82.55 23.95 82.2 24.6 L81.55 24.7 M64.85 2.25 L64.85 12.35 66.5 12.7 68.75 12.55 Q70.7 11.45 70.95 8.0 71.0 3.0 67.05 2.15 L64.85 2.25 M43.7 7.3 L43.75 7.1 43.6 7.05 43.7 7.3 41.1 14.55 41.0 14.55 41.05 14.65 41.1 14.55 46.25 14.55 43.7 7.3 M45.3 1.1 L52.8 20.5 53.9 22.5 54.9 23.35 56.65 23.55 56.95 23.8 Q56.95 24.55 56.3 24.55 L55.3 24.6 48.6 24.15 48.6 23.75 Q49.0 23.45 49.25 23.45 L49.35 23.25 46.9 16.6 40.4 16.6 40.25 16.8 38.55 21.55 38.3 22.55 Q38.25 23.25 38.5 23.35 L38.8 23.5 40.3 23.65 Q40.45 24.3 39.95 24.55 L32.5 24.55 32.2 24.2 32.25 23.65 32.75 23.5 Q33.8 23.6 34.7 23.05 35.35 22.5 36.1 20.5 L43.55 1.05 Q43.75 0.55 44.15 0.3 44.9 0.1 45.3 1.1 M24.95 0.85 L27.75 20.9 Q28.1 22.8 28.75 23.2 L29.9 23.55 31.25 23.6 31.55 23.9 Q31.55 24.5 30.95 24.65 L23.25 24.0 23.25 23.65 23.65 23.35 23.75 23.2 23.75 22.3 22.05 9.35 15.4 23.65 Q14.7 24.8 14.35 24.65 14.05 24.75 12.8 22.3 L6.85 9.65 5.3 22.05 Q5.15 23.05 5.6 23.3 L7.65 23.6 Q8.0 24.0 7.85 24.4 L7.45 24.65 0.35 24.65 0.0 24.3 Q-0.05 23.8 0.25 23.65 L1.7 23.5 Q2.35 23.15 2.65 21.15 L5.6 0.8 Q5.9 0.05 6.15 0.05 6.7 -0.05 6.95 0.3 L9.0 4.6 15.35 18.4 23.5 0.4 Q23.95 -0.05 24.6 0.15 L24.95 0.85" fill="url(#gradient0)" fill-rule="evenodd" stroke="none"/>
    <path d="M146.2 1.7 L143.55 3.55 136.9 10.5 144.05 18.55 146.7 21.25 148.4 22.55 150.2 23.35 Q151.95 23.6 151.95 23.85 152.0 24.35 151.7 24.55 L150.95 24.65 146.25 24.6 Q144.8 24.5 143.75 23.8 142.5 23.05 140.25 20.35 L134.0 12.85 134.05 21.25 134.25 22.7 134.55 23.25 135.25 23.45 136.5 23.5 Q137.2 23.6 137.1 24.25 136.8 24.65 136.3 24.65 L127.45 24.6 127.1 24.3 Q127.0 23.7 127.35 23.6 L128.9 23.4 Q129.3 23.35 129.5 22.4 L129.7 18.55 129.7 3.1 Q129.65 1.85 129.3 1.6 128.7 1.15 128.45 1.2 L127.0 1.15 Q126.55 0.95 126.6 0.5 126.9 0.0 127.3 0.05 L135.85 0.05 Q136.6 0.2 136.5 0.6 L136.3 1.1 134.6 1.4 134.2 1.95 Q133.9 3.7 134.0 10.45 L140.35 3.55 141.6 1.65 141.55 1.3 141.5 1.2 141.0 1.05 Q140.75 0.8 140.8 0.25 L141.25 0.05 148.55 0.05 Q149.15 0.2 149.15 0.55 L148.95 1.1 Q147.25 1.2 146.2 1.7 M124.45 4.7 L123.9 5.3 123.35 5.05 Q123.3 3.65 123.05 3.3 L122.4 2.8 120.45 2.5 117.05 2.45 117.1 10.5 122.1 10.45 123.0 10.25 123.7 9.55 Q124.25 9.55 124.35 10.0 L123.95 14.85 Q123.85 15.4 123.45 15.4 L122.9 15.25 Q122.85 13.75 122.6 13.4 L121.85 12.85 117.05 12.7 117.05 20.65 Q117.15 21.75 117.6 22.0 L119.1 22.4 123.3 22.05 123.9 21.55 124.3 20.75 124.5 19.65 Q124.8 19.1 125.45 19.4 L125.6 19.95 125.25 23.4 Q124.95 25.05 123.3 24.7 L110.4 24.55 110.0 24.25 Q109.95 23.65 110.25 23.55 L111.8 23.35 Q112.25 23.35 112.4 22.35 L112.6 18.55 112.6 3.25 Q112.55 2.05 112.25 1.75 111.6 1.3 111.35 1.35 L109.95 1.3 Q109.5 1.15 109.55 0.65 109.85 0.15 110.25 0.2 L122.6 0.3 124.2 0.0 Q124.7 -0.05 124.85 0.35 L124.45 4.7 M108.7 11.4 Q108.75 13.3 108.35 15.2 106.05 24.5 94.9 24.8 L84.05 24.45 83.65 24.15 Q83.6 23.6 83.95 23.45 L85.45 23.25 Q85.85 23.25 86.05 22.25 L86.25 18.45 86.25 3.15 Q86.2 1.95 85.85 1.65 85.25 1.2 85.0 1.25 L83.6 1.2 Q83.15 1.05 83.2 0.55 83.5 0.05 83.9 0.15 L95.0 0.15 98.8 0.45 Q103.65 1.2 106.15 4.3 108.55 7.45 108.7 11.4 M101.7 5.75 L99.7 3.95 Q97.35 2.55 94.0 2.15 L90.8 2.35 90.65 2.55 90.6 3.75 Q90.55 20.2 90.85 21.3 91.15 22.4 93.95 22.75 L98.85 22.2 Q100.25 21.75 101.25 20.85 102.7 19.65 103.35 18.15 L104.05 14.1 Q104.15 10.8 103.45 8.95 102.9 7.25 101.7 5.75 M81.55 24.7 L76.8 24.6 Q75.4 24.4 74.2 23.35 73.0 22.35 71.6 20.35 L68.0 15.1 67.55 14.75 64.85 14.75 Q64.7 20.85 65.15 22.8 L65.5 23.35 67.95 23.65 Q68.2 24.55 67.6 24.65 L58.45 24.65 58.05 24.35 Q57.95 23.75 58.3 23.65 L59.85 23.45 Q60.25 23.4 60.45 22.45 L60.65 18.6 60.65 3.15 Q60.6 1.9 60.25 1.65 59.65 1.2 59.4 1.25 L57.95 1.2 Q57.5 1.0 57.55 0.55 57.85 0.05 58.25 0.1 L67.85 0.1 70.35 0.4 Q72.85 1.1 73.85 2.4 74.85 3.65 75.1 5.6 75.15 8.25 73.95 10.15 L72.6 11.9 71.05 13.25 75.95 19.45 78.65 22.4 79.2 22.75 Q80.25 23.5 82.1 23.6 82.55 23.95 82.2 24.6 L81.55 24.7 M64.85 2.25 L64.85 12.35 66.5 12.7 68.75 12.55 Q70.7 11.45 70.95 8.0 71.0 3.0 67.05 2.15 L64.85 2.25 M43.7 7.3 L46.25 14.55 41.1 14.55 41.05 14.65 41.0 14.55 41.1 14.55 43.7 7.3 43.6 7.05 43.75 7.1 43.7 7.3 M45.3 1.1 L52.8 20.5 53.9 22.5 54.9 23.35 56.65 23.55 56.95 23.8 Q56.95 24.55 56.3 24.55 L55.3 24.6 48.6 24.15 48.6 23.75 Q49.0 23.45 49.25 23.45 L49.35 23.25 46.9 16.6 40.4 16.6 40.25 16.8 38.55 21.55 38.3 22.55 Q38.25 23.25 38.5 23.35 L38.8 23.5 40.3 23.65 Q40.45 24.3 39.95 24.55 L32.5 24.55 32.2 24.2 32.25 23.65 32.75 23.5 Q33.8 23.6 34.7 23.05 35.35 22.5 36.1 20.5 L43.55 1.05 Q43.75 0.55 44.15 0.3 44.9 0.1 45.3 1.1 M24.95 0.85 L27.75 20.9 Q28.1 22.8 28.75 23.2 L29.9 23.55 31.25 23.6 31.55 23.9 Q31.55 24.5 30.95 24.65 L23.25 24.0 23.25 23.65 23.65 23.35 23.75 23.2 23.75 22.3 22.05 9.35 15.4 23.65 Q14.7 24.8 14.35 24.65 14.05 24.75 12.8 22.3 L6.85 9.65 5.3 22.05 Q5.15 23.05 5.6 23.3 L7.65 23.6 Q8.0 24.0 7.85 24.4 L7.45 24.65 0.35 24.65 0.0 24.3 Q-0.05 23.8 0.25 23.65 L1.7 23.5 Q2.35 23.15 2.65 21.15 L5.6 0.8 Q5.9 0.05 6.15 0.05 6.7 -0.05 6.95 0.3 L9.0 4.6 15.35 18.4 23.5 0.4 Q23.95 -0.05 24.6 0.15 L24.95 0.85 Z" fill="none" stroke="#cda069" stroke-linecap="round" stroke-linejoin="round" stroke-opacity="0.77254903" stroke-width="5.0"/>
    <path d="M149.1 0.55 L148.9 1.1 Q147.2 1.2 146.15 1.7 144.8 2.45 143.5 3.55 L136.85 10.5 144.0 18.55 146.65 21.25 148.35 22.55 150.15 23.35 Q151.9 23.6 151.9 23.85 151.95 24.35 151.65 24.55 L150.9 24.65 146.2 24.6 Q144.75 24.5 143.7 23.8 142.45 23.05 140.2 20.35 L133.95 12.85 134.0 21.25 134.2 22.7 134.5 23.25 135.2 23.45 136.45 23.5 Q137.15 23.6 137.05 24.25 136.75 24.65 136.25 24.65 L127.4 24.6 127.05 24.3 Q126.95 23.7 127.3 23.6 L128.85 23.4 Q129.25 23.35 129.45 22.4 L129.65 18.55 129.65 3.1 Q129.6 1.85 129.25 1.6 128.65 1.15 128.4 1.2 L126.95 1.15 Q126.5 0.95 126.55 0.5 126.85 0.0 127.25 0.05 L135.8 0.05 Q136.55 0.2 136.45 0.6 L136.25 1.1 134.55 1.4 134.15 1.95 Q133.85 3.7 133.95 10.45 L140.3 3.55 141.55 1.65 141.5 1.3 141.45 1.2 140.95 1.05 Q140.7 0.8 140.75 0.25 L141.2 0.05 148.5 0.05 Q149.1 0.2 149.1 0.55 M123.85 5.3 L123.3 5.05 Q123.25 3.65 123.0 3.3 L122.35 2.8 120.4 2.5 117.0 2.45 117.05 10.5 122.05 10.45 122.95 10.25 123.65 9.55 Q124.2 9.55 124.3 10.0 L123.9 14.85 Q123.8 15.4 123.4 15.4 L122.85 15.25 Q122.8 13.75 122.55 13.4 L121.8 12.85 117.0 12.7 117.0 20.65 Q117.1 21.75 117.55 22.0 L119.05 22.4 123.25 22.05 123.85 21.55 124.25 20.75 124.45 19.65 Q124.75 19.1 125.4 19.4 L125.55 19.95 125.2 23.4 Q124.9 25.05 123.25 24.7 L110.35 24.55 109.95 24.25 Q109.9 23.65 110.2 23.55 L111.75 23.35 Q112.2 23.35 112.35 22.35 L112.55 18.55 112.55 3.25 Q112.5 2.05 112.2 1.75 111.55 1.3 111.3 1.35 L109.9 1.3 Q109.45 1.15 109.5 0.65 109.8 0.15 110.2 0.2 L122.55 0.3 124.15 0.0 Q124.65 -0.05 124.8 0.35 L124.4 4.7 123.85 5.3 M101.65 5.75 L99.65 3.95 Q97.3 2.55 93.95 2.15 L90.75 2.35 90.6 2.55 90.55 3.75 Q90.5 20.2 90.8 21.3 91.1 22.4 93.9 22.75 L98.8 22.2 Q100.2 21.75 101.2 20.85 102.65 19.65 103.3 18.15 L104.0 14.1 Q104.1 10.8 103.4 8.95 102.85 7.25 101.65 5.75 M108.65 11.4 L108.3 15.2 Q106.0 24.5 94.85 24.8 L84.0 24.45 83.6 24.15 Q83.55 23.6 83.9 23.45 L85.4 23.25 Q85.8 23.25 86.0 22.25 L86.2 18.45 86.2 3.15 Q86.15 1.95 85.8 1.65 85.2 1.2 84.95 1.25 L83.55 1.2 Q83.1 1.05 83.15 0.55 83.45 0.05 83.85 0.15 L94.95 0.15 98.75 0.45 Q103.6 1.2 106.1 4.3 108.5 7.45 108.65 11.4 M81.5 24.7 L76.75 24.6 Q75.35 24.4 74.2 23.35 73.0 22.35 71.6 20.35 L68.0 15.1 67.55 14.75 64.85 14.75 Q64.7 20.85 65.15 22.8 L65.5 23.35 67.95 23.65 Q68.2 24.55 67.6 24.65 L58.45 24.65 58.05 24.35 Q57.95 23.75 58.3 23.65 L59.85 23.45 Q60.25 23.4 60.45 22.45 L60.65 18.6 60.65 3.15 Q60.6 1.9 60.25 1.65 59.65 1.2 59.4 1.25 L57.95 1.2 Q57.5 1.0 57.55 0.55 57.85 0.05 58.25 0.1 L67.85 0.1 70.35 0.4 Q72.85 1.1 73.85 2.4 74.8 3.65 75.05 5.6 75.1 8.25 73.95 10.15 L72.6 11.9 71.05 13.25 75.9 19.45 78.6 22.4 79.15 22.75 Q80.2 23.5 82.05 23.6 82.5 23.95 82.15 24.6 L81.5 24.7 M64.85 2.25 L64.85 12.35 66.5 12.7 68.75 12.55 Q70.7 11.45 70.95 8.0 71.0 3.0 67.05 2.15 L64.85 2.25 M45.3 1.1 L52.8 20.5 53.9 22.5 54.9 23.35 56.65 23.55 56.95 23.8 Q56.95 24.55 56.3 24.55 L55.3 24.6 48.6 24.15 48.6 23.75 Q49.0 23.45 49.25 23.45 L49.35 23.25 46.9 16.6 40.4 16.6 40.25 16.8 38.55 21.55 38.3 22.55 Q38.25 23.25 38.5 23.35 L38.8 23.5 40.3 23.65 Q40.45 24.3 39.95 24.55 L32.5 24.55 32.2 24.2 32.25 23.65 32.75 23.5 Q33.8 23.6 34.7 23.05 35.35 22.5 36.1 20.5 L43.55 1.05 Q43.75 0.55 44.15 0.3 44.9 0.1 45.3 1.1 M43.6 7.05 L43.7 7.3 41.1 14.55 41.0 14.55 41.05 14.65 41.1 14.55 46.25 14.55 43.7 7.3 43.75 7.1 43.6 7.05 M24.95 0.85 L27.75 20.9 Q28.1 22.8 28.75 23.2 L29.9 23.55 31.25 23.6 31.55 23.9 Q31.55 24.5 30.95 24.65 L23.25 24.0 23.25 23.65 23.65 23.35 23.75 23.2 23.75 22.3 22.05 9.35 15.4 23.65 Q14.7 24.8 14.35 24.65 14.05 24.75 12.8 22.3 L6.85 9.65 5.3 22.05 Q5.15 23.05 5.6 23.3 L7.65 23.6 Q8.0 24.0 7.85 24.4 L7.45 24.65 0.35 24.65 0.0 24.3 Q-0.05 23.8 0.25 23.65 L1.7 23.5 Q2.35 23.15 2.65 21.15 L5.6 0.8 Q5.9 0.05 6.15 0.05 6.7 -0.05 6.95 0.3 L9.0 4.6 15.35 18.4 23.5 0.4 Q23.95 -0.05 24.6 0.15 L24.95 0.85" fill="url(#gradient1)" fill-rule="evenodd" stroke="none"/>
    <path d="M149.1 0.55 L148.9 1.1 Q147.2 1.2 146.15 1.7 144.8 2.45 143.5 3.55 L136.85 10.5 144.0 18.55 146.65 21.25 148.35 22.55 150.15 23.35 Q151.9 23.6 151.9 23.85 151.95 24.35 151.65 24.55 L150.9 24.65 146.2 24.6 Q144.75 24.5 143.7 23.8 142.45 23.05 140.2 20.35 L133.95 12.85 134.0 21.25 134.2 22.7 134.5 23.25 135.2 23.45 136.45 23.5 Q137.15 23.6 137.05 24.25 136.75 24.65 136.25 24.65 L127.4 24.6 127.05 24.3 Q126.95 23.7 127.3 23.6 L128.85 23.4 Q129.25 23.35 129.45 22.4 L129.65 18.55 129.65 3.1 Q129.6 1.85 129.25 1.6 128.65 1.15 128.4 1.2 L126.95 1.15 Q126.5 0.95 126.55 0.5 126.85 0.0 127.25 0.05 L135.8 0.05 Q136.55 0.2 136.45 0.6 L136.25 1.1 134.55 1.4 134.15 1.95 Q133.85 3.7 133.95 10.45 L140.3 3.55 141.55 1.65 141.5 1.3 141.45 1.2 140.95 1.05 Q140.7 0.8 140.75 0.25 L141.2 0.05 148.5 0.05 Q149.1 0.2 149.1 0.55 M123.85 5.3 L123.3 5.05 Q123.25 3.65 123.0 3.3 L122.35 2.8 120.4 2.5 117.0 2.45 117.05 10.5 122.05 10.45 122.95 10.25 123.65 9.55 Q124.2 9.55 124.3 10.0 L123.9 14.85 Q123.8 15.4 123.4 15.4 L122.85 15.25 Q122.8 13.75 122.55 13.4 L121.8 12.85 117.0 12.7 117.0 20.65 Q117.1 21.75 117.55 22.0 L119.05 22.4 123.25 22.05 123.85 21.55 124.25 20.75 124.45 19.65 Q124.75 19.1 125.4 19.4 L125.55 19.95 125.2 23.4 Q124.9 25.05 123.25 24.7 L110.35 24.55 109.95 24.25 Q109.9 23.65 110.2 23.55 L111.75 23.35 Q112.2 23.35 112.35 22.35 L112.55 18.55 112.55 3.25 Q112.5 2.05 112.2 1.75 111.55 1.3 111.3 1.35 L109.9 1.3 Q109.45 1.15 109.5 0.65 109.8 0.15 110.2 0.2 L122.55 0.3 124.15 0.0 Q124.65 -0.05 124.8 0.35 L124.4 4.7 123.85 5.3 M101.65 5.75 L99.65 3.95 Q97.3 2.55 93.95 2.15 L90.75 2.35 90.6 2.55 90.55 3.75 Q90.5 20.2 90.8 21.3 91.1 22.4 93.9 22.75 L98.8 22.2 Q100.2 21.75 101.2 20.85 102.65 19.65 103.3 18.15 L104.0 14.1 Q104.1 10.8 103.4 8.95 102.85 7.25 101.65 5.75 M108.65 11.4 L108.3 15.2 Q106.0 24.5 94.85 24.8 L84.0 24.45 83.6 24.15 Q83.55 23.6 83.9 23.45 L85.4 23.25 Q85.8 23.25 86.0 22.25 L86.2 18.45 86.2 3.15 Q86.15 1.95 85.8 1.65 85.2 1.2 84.95 1.25 L83.55 1.2 Q83.1 1.05 83.15 0.55 83.45 0.05 83.85 0.15 L94.95 0.15 98.75 0.45 Q103.6 1.2 106.1 4.3 108.5 7.45 108.65 11.4 M81.5 24.7 L76.75 24.6 Q75.35 24.4 74.2 23.35 73.0 22.35 71.6 20.35 L68.0 15.1 67.55 14.75 64.85 14.75 Q64.7 20.85 65.15 22.8 L65.5 23.35 67.95 23.65 Q68.2 24.55 67.6 24.65 L58.45 24.65 58.05 24.35 Q57.95 23.75 58.3 23.65 L59.85 23.45 Q60.25 23.4 60.45 22.45 L60.65 18.6 60.65 3.15 Q60.6 1.9 60.25 1.65 59.65 1.2 59.4 1.25 L57.95 1.2 Q57.5 1.0 57.55 0.55 57.85 0.05 58.25 0.1 L67.85 0.1 70.35 0.4 Q72.85 1.1 73.85 2.4 74.8 3.65 75.05 5.6 75.1 8.25 73.95 10.15 L72.6 11.9 71.05 13.25 75.9 19.45 78.6 22.4 79.15 22.75 Q80.2 23.5 82.05 23.6 82.5 23.95 82.15 24.6 L81.5 24.7 M64.85 2.25 L64.85 12.35 66.5 12.7 68.75 12.55 Q70.7 11.45 70.95 8.0 71.0 3.0 67.05 2.15 L64.85 2.25 M45.3 1.1 L52.8 20.5 53.9 22.5 54.9 23.35 56.65 23.55 56.95 23.8 Q56.95 24.55 56.3 24.55 L55.3 24.6 48.6 24.15 48.6 23.75 Q49.0 23.45 49.25 23.45 L49.35 23.25 46.9 16.6 40.4 16.6 40.25 16.8 38.55 21.55 38.3 22.55 Q38.25 23.25 38.5 23.35 L38.8 23.5 40.3 23.65 Q40.45 24.3 39.95 24.55 L32.5 24.55 32.2 24.2 32.25 23.65 32.75 23.5 Q33.8 23.6 34.7 23.05 35.35 22.5 36.1 20.5 L43.55 1.05 Q43.75 0.55 44.15 0.3 44.9 0.1 45.3 1.1 M43.6 7.05 L43.75 7.1 43.7 7.3 46.25 14.55 41.1 14.55 41.05 14.65 41.0 14.55 41.1 14.55 43.7 7.3 43.6 7.05 M24.95 0.85 L27.75 20.9 Q28.1 22.8 28.75 23.2 L29.9 23.55 31.25 23.6 31.55 23.9 Q31.55 24.5 30.95 24.65 L23.25 24.0 23.25 23.65 23.65 23.35 23.75 23.2 23.75 22.3 22.05 9.35 15.4 23.65 Q14.7 24.8 14.35 24.65 14.05 24.75 12.8 22.3 L6.85 9.65 5.3 22.05 Q5.15 23.05 5.6 23.3 L7.65 23.6 Q8.0 24.0 7.85 24.4 L7.45 24.65 0.35 24.65 0.0 24.3 Q-0.05 23.8 0.25 23.65 L1.7 23.5 Q2.35 23.15 2.65 21.15 L5.6 0.8 Q5.9 0.05 6.15 0.05 6.7 -0.05 6.95 0.3 L9.0 4.6 15.35 18.4 23.5 0.4 Q23.95 -0.05 24.6 0.15 L24.95 0.85 Z" fill="none" stroke="#443322" stroke-linecap="round" stroke-linejoin="round" stroke-width="3.0"/>
    <path d="M149.1 0.55 L148.9 1.1 Q147.2 1.2 146.15 1.7 144.8 2.45 143.5 3.55 L136.85 10.5 144.0 18.55 146.65 21.25 148.35 22.55 150.15 23.35 Q151.9 23.6 151.9 23.85 151.95 24.35 151.65 24.55 L150.9 24.65 146.2 24.6 Q144.75 24.5 143.7 23.8 142.45 23.05 140.2 20.35 L133.95 12.85 134.0 21.25 134.2 22.7 134.5 23.25 135.2 23.45 136.45 23.5 Q137.15 23.6 137.05 24.25 136.75 24.65 136.25 24.65 L127.4 24.6 127.05 24.3 Q126.95 23.7 127.3 23.6 L128.85 23.4 Q129.25 23.35 129.45 22.4 L129.65 18.55 129.65 3.1 Q129.6 1.85 129.25 1.6 128.65 1.15 128.4 1.2 L126.95 1.15 Q126.5 0.95 126.55 0.5 126.85 0.0 127.25 0.05 L135.8 0.05 Q136.55 0.2 136.45 0.6 L136.25 1.1 134.55 1.4 134.15 1.95 Q133.85 3.7 133.95 10.45 L140.3 3.55 141.55 1.65 141.5 1.3 141.45 1.2 140.95 1.05 Q140.7 0.8 140.75 0.25 L141.2 0.05 148.5 0.05 Q149.1 0.2 149.1 0.55 M124.4 4.7 L123.85 5.3 123.3 5.05 Q123.25 3.65 123.0 3.3 L122.35 2.8 120.4 2.5 117.0 2.45 117.05 10.5 122.05 10.45 122.95 10.25 123.65 9.55 Q124.2 9.55 124.3 10.0 L123.9 14.85 Q123.8 15.4 123.4 15.4 L122.85 15.25 Q122.8 13.75 122.55 13.4 L121.8 12.85 117.0 12.7 117.0 20.65 Q117.1 21.75 117.55 22.0 L119.05 22.4 123.25 22.05 123.85 21.55 124.25 20.75 124.45 19.65 Q124.75 19.1 125.4 19.4 L125.55 19.95 125.2 23.4 Q124.9 25.05 123.25 24.7 L110.35 24.55 109.95 24.25 Q109.9 23.65 110.2 23.55 L111.75 23.35 Q112.2 23.35 112.35 22.35 L112.55 18.55 112.55 3.25 Q112.5 2.05 112.2 1.75 111.55 1.3 111.3 1.35 L109.9 1.3 Q109.45 1.15 109.5 0.65 109.8 0.15 110.2 0.2 L122.55 0.3 124.15 0.0 Q124.65 -0.05 124.8 0.35 L124.4 4.7 M108.3 15.2 Q106.0 24.5 94.85 24.8 L84.0 24.45 83.6 24.15 Q83.55 23.6 83.9 23.45 L85.4 23.25 Q85.8 23.25 86.0 22.25 L86.2 18.45 86.2 3.15 Q86.15 1.95 85.8 1.65 85.2 1.2 84.95 1.25 L83.55 1.2 Q83.1 1.05 83.15 0.55 83.45 0.05 83.85 0.15 L94.95 0.15 98.75 0.45 Q103.6 1.2 106.1 4.3 108.5 7.45 108.65 11.4 L108.3 15.2 M103.4 8.95 Q102.85 7.25 101.65 5.75 L99.65 3.95 Q97.3 2.55 93.95 2.15 L90.75 2.35 90.6 2.55 90.55 3.75 Q90.5 20.2 90.8 21.3 91.1 22.4 93.9 22.75 L98.8 22.2 Q100.2 21.75 101.2 20.85 102.65 19.65 103.3 18.15 L104.0 14.1 Q104.1 10.8 103.4 8.95 M64.8 2.25 L64.8 12.35 66.45 12.7 68.7 12.55 Q70.65 11.45 70.9 8.0 70.95 3.0 67.0 2.15 L64.8 2.25 M70.3 0.4 Q72.8 1.1 73.8 2.4 74.8 3.65 75.05 5.6 75.1 8.25 73.9 10.15 L72.55 11.9 71.0 13.25 75.9 19.45 78.6 22.4 79.15 22.75 Q80.2 23.5 82.05 23.6 82.5 23.95 82.15 24.6 L81.5 24.7 76.75 24.6 Q75.35 24.4 74.15 23.35 72.95 22.35 71.55 20.35 L67.95 15.1 67.5 14.75 64.8 14.75 Q64.65 20.85 65.1 22.8 L65.45 23.35 67.9 23.65 Q68.15 24.55 67.55 24.65 L58.4 24.65 58.0 24.35 Q57.9 23.75 58.25 23.65 L59.8 23.45 Q60.2 23.4 60.4 22.45 L60.6 18.6 60.6 3.15 Q60.55 1.9 60.2 1.65 59.6 1.2 59.35 1.25 L57.9 1.2 Q57.45 1.0 57.5 0.55 57.8 0.05 58.2 0.1 L67.8 0.1 70.3 0.4 M45.3 1.1 L52.8 20.5 53.9 22.5 54.9 23.35 56.6 23.55 56.9 23.8 Q56.9 24.55 56.25 24.55 L55.25 24.6 48.6 24.15 48.6 23.75 Q49.0 23.45 49.25 23.45 L49.35 23.25 46.9 16.6 40.4 16.6 40.25 16.8 38.55 21.55 38.3 22.55 Q38.25 23.25 38.5 23.35 L38.8 23.5 40.3 23.65 Q40.45 24.3 39.95 24.55 L32.5 24.55 32.2 24.2 32.25 23.65 32.75 23.5 Q33.8 23.6 34.7 23.05 35.35 22.5 36.1 20.5 L43.55 1.05 Q43.75 0.55 44.15 0.3 44.9 0.1 45.3 1.1 M24.6 0.15 L24.95 0.85 27.75 20.9 Q28.1 22.8 28.75 23.2 L29.9 23.55 31.25 23.6 31.55 23.9 Q31.55 24.5 30.95 24.65 L23.25 24.0 23.25 23.65 23.65 23.35 23.75 23.2 23.75 22.3 22.05 9.35 15.4 23.65 Q14.7 24.8 14.35 24.65 14.05 24.75 12.8 22.3 L6.85 9.65 5.3 22.05 Q5.15 23.05 5.6 23.3 L7.65 23.6 Q8.0 24.0 7.85 24.4 L7.45 24.65 0.35 24.65 0.0 24.3 Q-0.05 23.8 0.25 23.65 L1.7 23.5 Q2.35 23.15 2.65 21.15 L5.6 0.8 Q5.9 0.05 6.15 0.05 6.7 -0.05 6.95 0.3 L9.0 4.6 15.35 18.4 23.5 0.4 Q23.95 -0.05 24.6 0.15 M41.1 14.55 L41.0 14.55 41.05 14.65 41.1 14.55 46.25 14.55 43.7 7.3 43.75 7.1 43.6 7.05 43.7 7.3 41.1 14.55" fill="url(#gradient2)" fill-rule="evenodd" stroke="none"/>
  </g>
  <defs>
    <linearGradient gradientTransform="matrix(0.0, 0.0157, -0.015, 0.0, 15.8, 12.4)" gradientUnits="userSpaceOnUse" id="gradient0" spreadMethod="pad" x1="-819.2" x2="819.2">
      <stop offset="0.0" stop-color="#663300"/>
      <stop offset="0.4666666666666667" stop-color="#ba5e45"/>
      <stop offset="0.596078431372549" stop-color="#e9c2ba"/>
      <stop offset="0.6862745098039216" stop-color="#984d29"/>
      <stop offset="1.0" stop-color="#663300"/>
    </linearGradient>
    <linearGradient gradientTransform="matrix(0.0, 0.0157, -0.015, 0.0, 15.8, 12.4)" gradientUnits="userSpaceOnUse" id="gradient1" spreadMethod="pad" x1="-819.2" x2="819.2">
      <stop offset="0.0" stop-color="#663300"/>
      <stop offset="0.4666666666666667" stop-color="#ba5e45"/>
      <stop offset="0.596078431372549" stop-color="#e9c2ba"/>
      <stop offset="0.6862745098039216" stop-color="#984d29"/>
      <stop offset="1.0" stop-color="#663300"/>
    </linearGradient>
    <linearGradient gradientTransform="matrix(0.0, 0.0157, -0.015, 0.0, 15.8, 12.4)" gradientUnits="userSpaceOnUse" id="gradient2" spreadMethod="pad" x1="-819.2" x2="819.2">
      <stop offset="0.0" stop-color="#663300"/>
      <stop offset="0.4666666666666667" stop-color="#ba5e45"/>
      <stop offset="0.596078431372549" stop-color="#e9c2ba"/>
      <stop offset="0.6862745098039216" stop-color="#984d29"/>
      <stop offset="1.0" stop-color="#663300"/>
    </linearGradient>
  </defs>
</svg>
