<?xml version="1.0" encoding="UTF-8" standalone="no"?>
<svg xmlns:xlink="http://www.w3.org/1999/xlink" height="31.7px" width="18.65px" xmlns="http://www.w3.org/2000/svg">
  <g transform="matrix(1.0, 0.0, 0.0, 1.0, 0.0, 0.0)">
    <path d="M13.15 1.7 L13.2 2.3 Q13.25 3.1 12.65 3.4 13.25 3.1 13.2 2.3 L13.15 1.7 M12.65 3.4 Q11.85 4.05 10.8 3.75 L9.8 2.4 Q9.85 1.45 10.55 0.95 11.75 0.1 13.5 0.0 14.2 0.0 14.75 0.45 15.65 1.0 16.05 2.1 16.65 3.6 15.85 4.8 L14.7 6.4 13.6 7.65 12.75 8.45 12.0 9.05 11.35 9.55 10.55 10.2 9.35 11.25 8.1 12.5 7.1 13.6 6.8 13.95 6.0 15.0 5.55 15.65 Q3.9 18.2 3.4 21.25 3.25 22.4 3.4 23.55 3.6 24.9 4.2 26.15 4.7 27.2 5.55 28.05 L6.0 28.4 7.1 29.0 8.1 29.25 8.4 29.25 9.35 29.35 10.55 29.3 11.35 29.1 12.75 28.55 13.6 28.2 14.0 27.95 14.65 27.2 14.7 27.1 Q15.2 25.95 16.1 25.0 17.3 23.7 18.65 24.6 17.8 25.15 17.15 25.85 L15.55 27.8 Q13.7 30.85 10.35 31.65 8.3 31.95 6.6 30.9 L4.2 29.2 Q1.55 26.7 0.5 23.4 L0.1 21.45 Q-0.1 19.85 0.2 18.35 1.0 14.75 4.05 12.4 5.65 11.15 7.45 10.15 10.4 8.55 12.55 6.05 L13.2 5.2 Q13.9 3.9 12.65 3.4" fill="url(#gradient0)" fill-rule="evenodd" stroke="none"/>
    <path d="M12.65 3.4 Q13.25 3.1 13.2 2.3 L13.15 1.7 M12.65 3.4 Q13.9 3.9 13.2 5.2 L12.55 6.05 Q10.4 8.55 7.45 10.15 5.65 11.15 4.05 12.4 1.0 14.75 0.2 18.35 -0.1 19.85 0.1 21.45 L0.5 23.4 Q1.55 26.7 4.2 29.2 L6.6 30.9 Q8.3 31.95 10.35 31.65 13.7 30.85 15.55 27.8 L17.15 25.85 Q17.8 25.15 18.65 24.6 17.3 23.7 16.1 25.0 15.2 25.95 14.7 27.1 L14.65 27.2 14.0 27.95 13.6 28.2 12.75 28.55 11.35 29.1 10.55 29.3 9.35 29.35 8.4 29.25 8.1 29.25 7.1 29.0 6.0 28.4 5.55 28.05 Q4.7 27.2 4.2 26.15 3.6 24.9 3.4 23.55 3.25 22.4 3.4 21.25 3.9 18.2 5.55 15.65 L6.0 15.0 6.8 13.95 7.1 13.6 8.1 12.5 9.35 11.25 10.55 10.2 11.35 9.55 12.0 9.05 12.75 8.45 13.6 7.65 14.7 6.4 15.85 4.8 Q16.65 3.6 16.05 2.1 15.65 1.0 14.75 0.45 14.2 0.0 13.5 0.0 11.75 0.1 10.55 0.95 9.85 1.45 9.8 2.4 L10.8 3.75 Q11.85 4.05 12.65 3.4" fill="none" stroke="#000000" stroke-linecap="round" stroke-linejoin="round" stroke-width="0.05"/>
    <path d="M14.7 27.1 L14.7 6.4 M6.0 28.4 L6.0 15.0 M7.1 13.6 L7.1 29.0 M8.1 29.25 L8.1 12.5 M9.35 11.25 L9.35 29.35 M10.55 29.3 L10.55 10.2 M11.35 9.55 L11.35 29.1 M12.75 28.55 L12.75 8.45 M13.6 7.65 L13.6 28.2" fill="none" stroke="#ffffff" stroke-linecap="round" stroke-linejoin="round" stroke-width="0.05"/>
  </g>
  <defs>
    <linearGradient gradientTransform="matrix(-3.0E-4, 0.0194, -0.0193, -3.0E-4, 9.3, 15.85)" gradientUnits="userSpaceOnUse" id="gradient0" spreadMethod="pad" x1="-819.2" x2="819.2">
      <stop offset="0.0" stop-color="#b3b3b3"/>
      <stop offset="0.5137254901960784" stop-color="#ffffff"/>
      <stop offset="1.0" stop-color="#aaaaaa"/>
    </linearGradient>
  </defs>
</svg>
