<?xml version="1.0" encoding="UTF-8" standalone="no"?>
<svg xmlns:xlink="http://www.w3.org/1999/xlink" height="27.3px" width="12.95px" xmlns="http://www.w3.org/2000/svg">
  <g transform="matrix(1.0, 0.0, 0.0, 1.0, 0.0, 0.0)">
    <path d="M0.05 26.65 Q-0.2 20.15 0.9 14.55 2.0 8.95 2.3 5.75 2.55 2.5 2.75 1.55 2.9 0.6 3.2 0.15 L8.75 0.0 8.75 0.7 Q10.2 4.9 10.55 9.4 L11.1 16.3 11.55 18.1 Q13.0 21.8 12.95 25.8 L11.3 26.25 8.4 27.0 6.95 27.3 Q5.3 26.15 3.3 26.25 L2.95 26.25 Q1.85 27.0 0.65 26.8 L0.05 26.65 M10.6 19.5 L10.85 20.15 10.95 20.55 11.15 21.75 11.3 26.25 11.15 21.75 10.95 20.55 10.85 20.15 10.6 19.5 M4.25 19.4 L4.1 19.95 4.0 20.55 3.9 21.05 Q3.25 22.8 3.35 24.7 L3.3 26.25 3.35 24.7 Q3.25 22.8 3.9 21.05 L4.0 20.55 4.1 19.95 4.25 19.4 M1.5 15.65 L1.25 16.3 0.75 18.2 0.55 19.6 0.6 23.55 0.65 26.8 0.6 23.55 0.55 19.6 0.75 18.2 1.25 16.3 1.5 15.65 M7.4 17.0 L7.45 17.4 7.55 18.2 7.75 19.5 7.8 20.05 8.4 27.0 7.8 20.05 7.75 19.5 7.55 18.2 7.45 17.4 7.4 17.0 M8.2 3.2 L8.3 3.7 8.4 4.35 Q8.45 6.3 8.8 8.2 L8.85 8.6 8.95 9.2 9.5 13.05 8.95 9.2 8.85 8.6 8.8 8.2 Q8.45 6.3 8.4 4.35 L8.3 3.7 8.2 3.2 M6.15 2.4 L6.1 2.9 6.05 3.5 6.15 6.55 6.05 3.5 6.1 2.9 6.15 2.4" fill="#c47222" fill-rule="evenodd" stroke="none"/>
    <path d="M12.95 25.8 L11.3 26.25 8.4 27.0 6.95 27.3 Q5.3 26.15 3.3 26.25 L2.95 26.25 Q1.85 27.0 0.65 26.8 L0.05 26.65" fill="none" stroke="#000000" stroke-linecap="round" stroke-linejoin="round" stroke-width="0.05"/>
    <path d="M6.15 6.55 L6.05 3.5 6.1 2.9 6.15 2.4 M9.5 13.05 L8.95 9.2 8.85 8.6 8.8 8.2 Q8.45 6.3 8.4 4.35 L8.3 3.7 8.2 3.2 M8.4 27.0 L7.8 20.05 7.75 19.5 7.55 18.2 7.45 17.4 7.4 17.0 M0.65 26.8 L0.6 23.55 0.55 19.6 0.75 18.2 1.25 16.3 1.5 15.65 M3.3 26.25 L3.35 24.7 Q3.25 22.8 3.9 21.05 L4.0 20.55 4.1 19.95 4.25 19.4 M11.3 26.25 L11.15 21.75 10.95 20.55 10.85 20.15 10.6 19.5" fill="none" stroke="#5e3611" stroke-linecap="round" stroke-linejoin="round" stroke-width="0.05"/>
    <path d="M4.15 5.15 L4.65 1.5 4.9 4.1 8.3 4.4 8.1 8.7 5.05 8.75 4.75 11.15 9.15 11.6 8.8 17.35 5.15 17.75 5.45 20.85 7.85 20.8 8.0 27.05 6.95 27.3 5.95 26.75 4.85 26.4 5.35 22.3 1.8 22.15 2.35 15.9 6.0 16.2 6.3 12.6 2.5 12.0 3.3 7.55 6.5 7.6 6.8 5.2 4.15 5.15" fill="#ffb600" fill-rule="evenodd" stroke="none"/>
  </g>
</svg>
