<?xml version="1.0" encoding="UTF-8" standalone="no"?>
<svg xmlns:xlink="http://www.w3.org/1999/xlink" height="14.0px" width="9.9px" xmlns="http://www.w3.org/2000/svg">
  <g transform="matrix(1.0, 0.0, 0.0, 1.0, 0.0, 0.0)">
    <path d="M0.85 0.0 Q4.45 0.1 7.9 0.95 L8.1 1.05 Q8.0 2.3 7.5 3.75 7.2 4.6 7.3 5.6 L7.65 7.35 8.1 8.45 8.35 8.65 Q9.05 9.3 9.9 8.95 L9.1 11.75 8.85 12.4 Q7.0 13.55 4.95 13.5 L3.5 13.35 2.75 13.3 1.95 11.7 Q0.95 9.3 0.35 6.8 -0.2 4.55 0.15 2.3 0.3 1.1 0.85 0.0 M3.35 8.75 L4.5 12.6 4.95 13.5 4.5 12.6 3.35 8.75 M1.15 5.45 L1.15 5.0 1.1 5.15 Q1.05 5.35 1.15 5.45 0.85 8.05 3.3 8.15 L3.95 7.6 Q4.75 6.85 4.3 5.9 3.3 3.8 1.15 5.0 3.3 3.8 4.3 5.9 4.75 6.85 3.95 7.6 L3.3 8.15 Q0.85 8.05 1.15 5.45 1.05 5.35 1.1 5.15 L1.15 5.0 1.15 5.45" fill="url(#gradient0)" fill-rule="evenodd" stroke="none"/>
    <path d="M8.1 1.05 Q8.0 2.3 7.5 3.75 7.2 4.6 7.3 5.6 L7.65 7.35 8.1 8.45 8.35 8.65 Q9.05 9.3 9.9 8.95 M8.85 12.4 Q7.0 13.55 4.95 13.5 L3.5 13.35 2.75 13.3 1.95 11.7 Q0.95 9.3 0.35 6.8 -0.2 4.55 0.15 2.3 0.3 1.1 0.85 0.0" fill="none" stroke="#000000" stroke-linecap="round" stroke-linejoin="round" stroke-width="0.05"/>
    <path d="M1.15 5.0 Q3.3 3.8 4.3 5.9 4.75 6.85 3.95 7.6 L3.3 8.15 Q0.85 8.05 1.15 5.45 1.05 5.35 1.1 5.15 L1.15 5.0 1.15 5.45 M4.95 13.5 L4.5 12.6 3.35 8.75" fill="none" stroke="#000000" stroke-linecap="round" stroke-linejoin="round" stroke-width="1.0"/>
  </g>
  <defs>
    <linearGradient gradientTransform="matrix(0.0066, 0.0086, -0.0078, 0.006, 13.35, 7.3)" gradientUnits="userSpaceOnUse" id="gradient0" spreadMethod="pad" x1="-819.2" x2="819.2">
      <stop offset="0.0" stop-color="#342d25"/>
      <stop offset="1.0" stop-color="#736742"/>
    </linearGradient>
  </defs>
</svg>
