<?xml version="1.0" encoding="UTF-8" standalone="no"?>
<svg xmlns:xlink="http://www.w3.org/1999/xlink" height="32.1px" width="25.0px" xmlns="http://www.w3.org/2000/svg">
  <g transform="matrix(1.0, 0.0, 0.0, 1.0, 0.0, 0.0)">
    <path d="M12.75 13.45 Q13.55 12.7 14.5 13.05 L15.6 13.85 Q16.3 14.3 16.4 15.05 17.5 15.1 18.7 15.75 L20.15 16.5 21.25 17.3 22.2 18.1 23.25 19.2 24.05 20.45 24.4 21.2 24.65 21.75 24.85 22.45 24.95 23.15 25.0 23.9 25.0 25.3 24.95 26.55 24.9 27.15 24.7 28.35 23.85 30.4 23.1 31.5 22.45 32.1 22.35 31.55 22.2 30.5 21.85 29.55 21.4 28.65 20.75 27.95 18.95 26.85 17.75 26.35 16.95 26.3 14.8 26.2 14.65 26.1 Q13.15 25.2 12.25 23.8 L11.65 23.6 12.25 22.65 13.05 21.2 13.25 20.4 Q13.3 19.4 12.9 18.65 L11.85 17.05 11.3 16.85 Q10.6 16.9 10.15 17.8 9.8 18.65 9.7 19.45 L9.65 20.3 Q9.6 21.25 10.05 22.2 L10.6 23.4 Q9.55 23.55 8.85 24.35 L7.35 25.55 6.1 26.0 5.1 26.2 4.15 26.6 3.3 27.2 2.6 27.9 1.9 29.05 Q1.65 29.6 1.55 30.2 L1.0 28.9 0.5 27.5 0.1 25.8 0.05 25.1 0.0 24.0 0.05 22.9 0.2 22.45 0.8 20.85 1.65 19.15 2.4 17.95 3.35 16.9 4.8 15.65 Q5.5 15.2 6.4 14.85 L7.65 14.6 7.75 13.9 8.45 13.35 9.55 13.3 10.2 13.5 11.4 13.65 12.75 13.45 M17.2 16.65 L18.6 17.55 19.8 18.6 20.75 19.5 21.65 20.6 22.45 21.75 23.1 23.0 23.5 24.4 Q23.7 25.25 23.55 26.3 L23.2 28.0 22.7 29.7 23.2 28.0 23.55 26.3 Q23.7 25.25 23.5 24.4 L23.1 23.0 22.45 21.75 21.65 20.6 20.75 19.5 19.8 18.6 18.6 17.55 17.2 16.65 M8.0 14.4 L8.5 13.75 9.8 13.8 10.9 14.1 Q12.55 14.0 14.2 13.4 15.2 14.0 15.15 14.6 15.2 14.0 14.2 13.4 12.55 14.0 10.9 14.1 L9.8 13.8 8.5 13.75 8.0 14.4 M9.7 16.5 L10.15 16.15 10.25 15.7 Q10.35 15.15 9.9 14.85 L8.85 14.75 Q8.45 15.15 8.45 15.7 L8.3 16.3 8.35 16.65 8.45 16.75 9.15 16.95 9.7 16.5 M1.5 27.4 L1.25 26.8 1.05 25.4 1.0 23.95 1.2 22.5 1.6 21.15 2.25 19.95 3.05 18.9 4.0 17.95 5.2 16.9 6.45 16.25 5.2 16.9 4.0 17.95 3.05 18.9 2.25 19.95 1.6 21.15 1.2 22.5 1.0 23.95 1.05 25.4 1.25 26.8 1.5 27.4 M1.15 28.15 L0.65 26.55 Q0.25 24.95 0.45 23.4 0.65 21.5 1.55 19.9 2.45 18.4 3.75 17.15 5.0 15.9 6.8 15.45 5.0 15.9 3.75 17.15 2.45 18.4 1.55 19.9 0.65 21.5 0.45 23.4 0.25 24.95 0.65 26.55 L1.15 28.15 M12.5 16.8 Q13.1 17.75 14.15 17.75 L15.35 16.95 15.45 16.15 15.1 15.6 15.0 15.15 Q14.85 14.45 14.3 14.15 13.65 14.05 13.05 14.55 12.25 15.1 12.15 16.1 L12.5 16.8 M15.95 15.55 L16.4 15.05 15.95 15.55 M12.1 20.55 L12.05 20.6 12.1 20.55 M22.7 30.95 Q25.25 26.55 23.85 22.2 22.45 17.8 17.35 15.7 22.45 17.8 23.85 22.2 25.25 26.55 22.7 30.95" fill="url(#gradient0)" fill-rule="evenodd" stroke="none"/>
    <path d="M8.45 15.7 Q8.45 15.15 8.85 14.75 L9.9 14.85 Q10.35 15.15 10.25 15.7 L10.15 16.15 9.7 16.5 8.7 16.3 8.45 15.7 M12.5 16.8 L12.15 16.1 Q12.25 15.1 13.05 14.55 13.65 14.05 14.3 14.15 14.85 14.45 15.0 15.15 L15.1 15.6 14.9 16.45 14.05 17.1 Q13.45 17.35 12.5 16.8" fill="#99ff00" fill-rule="evenodd" stroke="none"/>
    <path d="M8.45 15.7 L8.7 16.3 9.7 16.5 9.15 16.95 8.45 16.75 8.35 16.65 8.3 16.3 8.45 15.7 M15.1 15.6 L15.45 16.15 15.35 16.95 14.15 17.75 Q13.1 17.75 12.5 16.8 13.45 17.35 14.05 17.1 L14.9 16.45 15.1 15.6" fill="#352500" fill-rule="evenodd" stroke="none"/>
    <path d="M11.65 23.6 L10.95 24.05 10.65 23.5 10.6 23.4 10.05 22.2 Q9.6 21.25 9.65 20.3 L9.7 19.45 Q9.8 18.65 10.15 17.8 10.6 16.9 11.3 16.85 L11.85 17.05 12.9 18.65 Q13.3 19.4 13.25 20.4 L13.05 21.2 12.25 22.65 11.65 23.6 M10.65 19.3 L9.65 20.3 10.65 19.3 11.2 17.5 10.65 19.3 10.9 19.1 11.35 19.05 Q11.9 19.45 11.9 20.3 11.9 20.55 12.05 20.6 11.9 20.55 11.9 20.3 11.9 19.45 11.35 19.05 L10.9 19.1 10.65 19.3 Q10.3 21.1 11.1 22.85 10.3 21.1 10.65 19.3 M12.1 20.55 Q12.7 19.6 13.25 20.4 12.7 19.6 12.1 20.55 L12.05 20.6 12.1 20.55" fill="url(#gradient1)" fill-rule="evenodd" stroke="none"/>
    <path d="M12.75 13.45 Q13.55 12.7 14.5 13.05 L15.6 13.85 Q16.3 14.3 16.4 15.05 17.5 15.1 18.7 15.75 L20.15 16.5 21.25 17.3 22.2 18.1 23.25 19.2 24.05 20.45 24.4 21.2 24.65 21.75 24.85 22.45 24.95 23.15 25.0 23.9 25.0 25.3 24.95 26.55 24.9 27.15 24.7 28.35 23.85 30.4 23.1 31.5 22.45 32.1 22.35 31.55 22.2 30.5 21.85 29.55 21.4 28.65 20.75 27.95 18.95 26.85 17.75 26.35 16.95 26.3 14.8 26.2 14.65 26.1 Q13.15 25.2 12.25 23.8 L11.65 23.6 10.95 24.05 10.65 23.5 10.6 23.4 Q9.55 23.55 8.85 24.35 L7.35 25.55 6.1 26.0 5.1 26.2 4.15 26.6 3.3 27.2 2.6 27.9 1.9 29.05 Q1.65 29.6 1.55 30.2 L1.0 28.9 0.5 27.5 0.1 25.8 0.05 25.1 0.0 24.0 0.05 22.9 0.2 22.45 0.8 20.85 1.65 19.15 2.4 17.95 3.35 16.9 4.8 15.65 Q5.5 15.2 6.4 14.85 L7.65 14.6 7.75 13.9 8.45 13.35 9.55 13.3 10.2 13.5 10.1 11.9 9.75 10.9 8.8 9.75 8.25 8.75 8.15 7.55 9.0 6.3 9.7 5.35 Q10.25 4.5 10.25 3.65 L10.15 1.9 9.95 0.25 M22.7 29.7 L23.2 28.0 23.55 26.3 Q23.7 25.25 23.5 24.4 L23.1 23.0 22.45 21.75 21.65 20.6 20.75 19.5 19.8 18.6 18.6 17.55 17.2 16.65 M12.75 13.45 L12.75 12.2 12.9 10.8 13.5 10.4 Q14.3 9.85 14.5 9.05 14.7 8.1 14.35 7.35 L13.65 5.9 12.9 4.5 12.35 2.9 12.2 1.5 12.25 0.0 M9.7 16.5 L10.15 16.15 10.25 15.7 Q10.35 15.15 9.9 14.85 L8.85 14.75 Q8.45 15.15 8.45 15.7 L8.7 16.3 9.7 16.5 9.15 16.95 8.45 16.75 8.35 16.65 8.3 16.3 8.45 15.7 M6.45 16.25 L5.2 16.9 4.0 17.95 3.05 18.9 2.25 19.95 1.6 21.15 1.2 22.5 1.0 23.95 1.05 25.4 1.25 26.8 1.5 27.4 M13.25 20.4 Q13.3 19.4 12.9 18.65 L11.85 17.05 11.3 16.85 Q10.6 16.9 10.15 17.8 9.8 18.65 9.7 19.45 L9.65 20.3 10.65 19.3 10.9 19.1 11.35 19.05 Q11.9 19.45 11.9 20.3 11.9 20.55 12.05 20.6 L12.1 20.55 Q12.7 19.6 13.25 20.4 L13.05 21.2 12.25 22.65 11.65 23.6 M9.65 20.3 Q9.6 21.25 10.05 22.2 L10.6 23.4 M15.1 15.6 L15.45 16.15 15.35 16.95 14.15 17.75 Q13.1 17.75 12.5 16.8 L12.15 16.1 Q12.25 15.1 13.05 14.55 13.65 14.05 14.3 14.15 14.85 14.45 15.0 15.15 L15.1 15.6 14.9 16.45 14.05 17.1 Q13.45 17.35 12.5 16.8 M16.4 15.05 L15.95 15.55 M10.2 13.5 L11.4 13.65 12.75 13.45" fill="none" stroke="#000000" stroke-linecap="round" stroke-linejoin="round" stroke-width="0.05"/>
    <path d="M15.15 14.6 Q15.2 14.0 14.2 13.4 12.55 14.0 10.9 14.1 L9.8 13.8 8.5 13.75 8.0 14.4 M6.8 15.45 Q5.0 15.9 3.75 17.15 2.45 18.4 1.55 19.9 0.65 21.5 0.45 23.4 0.25 24.95 0.65 26.55 L1.15 28.15 M10.65 19.3 L11.2 17.5 M10.65 19.3 Q10.3 21.1 11.1 22.85 M17.35 15.7 Q22.45 17.8 23.85 22.2 25.25 26.55 22.7 30.95" fill="none" stroke="#886646" stroke-linecap="round" stroke-linejoin="round" stroke-width="0.05"/>
  </g>
  <defs>
    <radialGradient cx="0" cy="0" gradientTransform="matrix(0.0172, 0.0, 0.0, 0.0245, 11.4, 19.45)" gradientUnits="userSpaceOnUse" id="gradient0" r="819.2" spreadMethod="pad">
      <stop offset="0.0" stop-color="#685135"/>
      <stop offset="1.0" stop-color="#302518"/>
    </radialGradient>
    <radialGradient cx="0" cy="0" gradientTransform="matrix(0.003, 0.0, 0.0, 0.0052, 10.95, 19.3)" gradientUnits="userSpaceOnUse" id="gradient1" r="819.2" spreadMethod="pad">
      <stop offset="0.0" stop-color="#685135"/>
      <stop offset="1.0" stop-color="#302518"/>
    </radialGradient>
  </defs>
</svg>
