<?xml version="1.0" encoding="UTF-8" standalone="no"?>
<svg xmlns:xlink="http://www.w3.org/1999/xlink" height="5.7px" width="13.0px" xmlns="http://www.w3.org/2000/svg">
  <g transform="matrix(1.0, 0.0, 0.0, 1.0, 0.0, 0.0)">
    <path d="M3.9 5.55 L4.4 4.2 4.4 3.4 3.5 4.7 Q2.15 5.95 0.85 5.25 L1.75 4.9 Q3.25 4.2 3.0 3.0 1.85 4.45 0.0 4.2 L1.6 3.25 Q2.6 2.45 2.95 1.1 L6.75 1.3 9.7 1.05 13.0 0.0 12.7 0.35 Q11.0 2.4 8.35 2.5 6.85 2.3 5.8 3.2 L5.65 3.45 Q5.45 5.0 4.0 5.65 L3.9 5.55" fill="url(#gradient0)" fill-rule="evenodd" stroke="none"/>
    <path d="M4.0 5.65 Q5.45 5.0 5.65 3.45 L5.8 3.2 Q6.85 2.3 8.35 2.5 11.0 2.4 12.7 0.35 L13.0 0.0 9.7 1.05 6.75 1.3 2.95 1.1 Q2.6 2.45 1.6 3.25 L0.0 4.2 Q1.85 4.45 3.0 3.0 3.25 4.2 1.75 4.9 L0.85 5.25 Q2.15 5.95 3.5 4.7 L4.4 3.4 4.4 4.2 3.9 5.55 3.85 5.7 4.0 5.65 Z" fill="none" stroke="#000000" stroke-linecap="round" stroke-linejoin="round" stroke-width="0.05"/>
  </g>
  <defs>
    <linearGradient gradientTransform="matrix(-0.0078, 0.0017, -7.0E-4, -0.0034, 6.5, 2.9)" gradientUnits="userSpaceOnUse" id="gradient0" spreadMethod="pad" x1="-819.2" x2="819.2">
      <stop offset="0.0" stop-color="#3a2e1f"/>
      <stop offset="1.0" stop-color="#000000"/>
    </linearGradient>
  </defs>
</svg>
