<?xml version="1.0" encoding="UTF-8" standalone="no"?>
<svg xmlns:xlink="http://www.w3.org/1999/xlink" height="13.75px" width="13.8px" xmlns="http://www.w3.org/2000/svg">
  <g transform="matrix(1.0, 0.0, 0.0, 1.0, 0.0, 0.0)">
    <path d="M11.9 12.0 L10.4 12.2 10.5 12.8 10.4 12.2 11.9 12.0 M11.2 10.35 L10.9 9.3 10.2 4.45 Q9.95 2.45 10.15 0.8 9.95 2.45 10.2 4.45 L10.9 9.3 11.2 10.35 M2.95 1.15 L12.35 0.0 12.2 1.2 Q11.9 3.3 12.45 5.25 L13.3 7.95 Q14.05 10.2 13.65 12.4 L13.2 12.7 12.2 12.65 10.5 12.8 9.0 13.2 8.45 13.35 8.1 13.4 6.8 13.2 6.55 13.15 6.5 13.15 4.55 13.45 3.95 13.75 2.9 13.55 2.3 13.45 Q1.35 13.35 1.1 12.3 -0.15 7.45 0.05 2.3 L0.05 2.25 Q0.65 1.85 1.3 1.7 2.05 1.35 2.85 1.15 L2.95 1.15 Q2.85 3.9 2.9 6.7 2.9 8.65 3.15 10.6 L3.35 11.7 3.4 12.35 3.35 11.7 3.15 10.6 Q2.9 8.65 2.9 6.7 2.85 3.9 2.95 1.15 M7.8 11.3 L6.95 6.5 Q6.5 4.25 6.6 1.9 6.5 4.25 6.95 6.5 L7.8 11.3 M12.15 11.75 L12.2 12.65 12.15 11.75 M4.55 13.45 L4.45 13.15 4.35 12.7 4.3 12.65 3.75 12.8 2.7 13.05 2.9 13.55 2.7 13.05 3.75 12.8 4.3 12.65 4.35 12.7 4.45 13.15 4.55 13.45 M8.45 13.35 L8.3 12.4 6.4 12.5 6.5 13.15 6.4 12.5 8.3 12.4 8.45 13.35" fill="#004c29" fill-rule="evenodd" stroke="none"/>
    <path d="M10.15 0.8 Q9.95 2.45 10.2 4.45 L10.9 9.3 11.2 10.35 M2.95 1.15 L12.35 0.0 12.2 1.2 Q11.9 3.3 12.45 5.25 L13.3 7.95 Q14.05 10.2 13.65 12.4 L13.2 12.7 12.2 12.65 10.5 12.8 9.0 13.2 8.45 13.35 8.1 13.4 6.8 13.2 6.55 13.15 M6.5 13.15 L4.55 13.45 3.95 13.75 2.9 13.55 2.3 13.45 Q1.35 13.35 1.1 12.3 -0.15 7.45 0.05 2.3 L0.05 2.25 Q0.65 1.85 1.3 1.7 2.05 1.35 2.85 1.15 L2.95 1.15 Q2.85 3.9 2.9 6.7 2.9 8.65 3.15 10.6 L3.35 11.7 3.4 12.35 M6.6 1.9 Q6.5 4.25 6.95 6.5 L7.8 11.3" fill="none" stroke="#000000" stroke-linecap="round" stroke-linejoin="round" stroke-width="0.05"/>
    <path d="M10.5 12.8 L10.4 12.2 11.9 12.0 M6.55 13.15 L6.5 13.15 6.4 12.5 8.3 12.4 8.45 13.35 M2.9 13.55 L2.7 13.05 3.75 12.8 4.3 12.65 4.35 12.7 4.45 13.15 4.55 13.45 M12.2 12.65 L12.15 11.75" fill="none" stroke="#00ff00" stroke-linecap="round" stroke-linejoin="round" stroke-width="0.05"/>
  </g>
</svg>
