<?xml version="1.0" encoding="UTF-8" standalone="no"?>
<svg xmlns:xlink="http://www.w3.org/1999/xlink" height="21.65px" width="17.3px" xmlns="http://www.w3.org/2000/svg">
  <g transform="matrix(1.0, 0.0, 0.0, 1.0, 0.0, 0.0)">
    <path d="M10.55 20.35 Q8.5 20.05 6.8 19.35 5.75 18.9 4.95 18.25 L2.85 16.5 2.0 15.5 Q1.0 13.95 0.55 11.5 L0.4 11.0 0.1 8.55 0.0 7.45 0.05 6.95 0.2 6.4 Q0.5 5.3 0.95 4.45 1.4 3.45 2.0 2.7 3.15 1.3 4.65 0.7 L4.95 0.6 7.35 0.05 8.75 0.15 Q9.75 0.55 10.35 1.25 L10.75 1.7 Q12.4 3.7 13.0 6.15 L13.45 8.85 13.55 11.8 Q13.6 12.9 14.15 13.8 L14.4 14.15 15.25 14.85 15.75 14.95 15.8 15.15 Q16.05 15.8 15.95 16.6 15.85 17.7 15.2 18.55 L14.8 19.0 14.45 19.35 Q13.4 20.55 11.4 20.65 L10.7 20.6 Q10.55 20.55 10.85 20.4 L10.55 20.35 M11.55 9.55 L10.6 12.0 Q10.0 13.3 10.55 14.15 10.35 13.65 10.65 13.2 12.45 10.35 12.3 7.0 L12.15 6.95 11.85 6.85 Q11.3 7.9 11.55 9.55 M10.85 4.05 L10.85 3.95 Q10.7 2.8 9.75 2.1 9.6 2.35 9.85 2.8 L10.85 4.05 M3.1 3.95 L1.75 3.9 3.1 3.95 M3.65 4.75 L2.95 4.75 2.85 5.2 2.95 4.75 1.6 4.6 1.5 5.6 2.15 5.95 1.5 5.6 1.6 4.6 2.95 4.75 3.65 4.75 M1.6 4.6 L0.95 4.45 1.6 4.6 M15.25 15.8 L15.35 15.5 15.35 15.45 12.9 13.6 12.9 13.85 13.25 14.45 13.6 14.65 13.6 14.75 13.7 14.95 13.9 15.05 14.45 15.55 15.05 15.9 15.25 15.8" fill="#b3ab92" fill-rule="evenodd" stroke="none"/>
    <path d="M14.15 13.8 L14.85 13.5 15.7 13.65 Q17.4 14.05 17.3 16.35 L17.2 17.1 Q16.7 18.7 15.9 19.55 L13.05 21.55 11.9 21.6 11.65 21.55 Q10.7 21.5 10.6 20.7 L10.7 20.6 11.4 20.65 Q13.4 20.55 14.45 19.35 L14.8 19.0 15.2 18.55 Q15.85 17.7 15.95 16.6 16.05 15.8 15.8 15.15 L15.75 14.95 15.25 14.85 14.4 14.15 14.15 13.8" fill="#5c625a" fill-rule="evenodd" stroke="none"/>
    <path d="M10.85 4.05 L9.85 2.8 Q9.6 2.35 9.75 2.1 10.7 2.8 10.85 3.95 L10.85 4.05 M11.55 9.55 Q11.3 7.9 11.85 6.85 L12.15 6.95 12.3 7.0 Q12.45 10.35 10.65 13.2 10.35 13.65 10.55 14.15 10.0 13.3 10.6 12.0 L11.55 9.55 M15.25 15.8 L15.05 15.9 14.45 15.55 13.9 15.05 13.7 14.95 13.6 14.75 13.6 14.65 13.25 14.45 12.9 13.85 12.9 13.6 15.35 15.45 15.35 15.5 15.25 15.8" fill="#9f9377" fill-rule="evenodd" stroke="none"/>
    <path d="M10.55 20.35 Q8.5 20.05 6.8 19.35 5.75 18.9 4.95 18.25 L2.85 16.5 2.0 15.5 Q1.0 13.95 0.55 11.5 L0.4 11.0 0.1 8.55 0.0 7.45 0.05 6.95 0.2 6.4 Q0.5 5.3 0.95 4.45 1.4 3.45 2.0 2.7 3.15 1.3 4.65 0.7 L4.95 0.6 7.35 0.05 8.75 0.15 Q9.75 0.55 10.35 1.25 L10.75 1.7 Q12.4 3.7 13.0 6.15 L13.45 8.85 13.55 11.8 Q13.6 12.9 14.15 13.8 L14.85 13.5 15.7 13.65 Q17.4 14.05 17.3 16.35 L17.2 17.1 Q16.7 18.7 15.9 19.55 L13.05 21.55 11.9 21.6 11.65 21.55 Q10.7 21.5 10.6 20.7 L10.55 20.35 10.85 20.4 Q10.55 20.55 10.7 20.6 L11.4 20.65 Q13.4 20.55 14.45 19.35 L14.8 19.0 15.2 18.55 Q15.85 17.7 15.95 16.6 16.05 15.8 15.8 15.15 L15.75 14.95 15.25 14.85 14.4 14.15 14.15 13.8" fill="none" stroke="#000000" stroke-linecap="round" stroke-linejoin="round" stroke-width="0.05"/>
    <path d="M2.85 5.2 L2.95 4.75 1.6 4.6 1.5 5.6 2.15 5.95 M0.95 4.45 L1.6 4.6 M2.95 4.75 L3.65 4.75 M1.75 3.9 L3.1 3.95" fill="none" stroke="#00ff00" stroke-linecap="round" stroke-linejoin="round" stroke-width="0.05"/>
  </g>
</svg>
