<?xml version="1.0" encoding="UTF-8" standalone="no"?>
<svg xmlns:xlink="http://www.w3.org/1999/xlink" height="5.95px" width="5.95px" xmlns="http://www.w3.org/2000/svg">
  <g transform="matrix(1.0, 0.0, 0.0, 1.0, 0.0, 0.0)">
    <path d="M0.0 2.95 Q0.0 1.75 0.85 0.85 1.75 0.0 2.95 0.0 4.2 0.0 5.05 0.85 5.95 1.75 5.95 3.0 5.95 4.2 5.05 5.05 4.2 5.95 2.95 5.95 1.75 5.95 0.85 5.05 0.0 4.2 0.0 2.95" fill="#00ff00" fill-rule="evenodd" stroke="none"/>
    <path d="M0.0 2.95 Q0.0 1.75 0.85 0.85 1.75 0.0 2.95 0.0 4.2 0.0 5.05 0.85 5.95 1.75 5.95 3.0 5.95 4.2 5.05 5.05 4.2 5.95 2.95 5.95 1.75 5.95 0.85 5.05 0.0 4.2 0.0 2.95 Z" fill="none" stroke="#006600" stroke-linecap="round" stroke-linejoin="round" stroke-width="0.05"/>
  </g>
</svg>
