<?xml version="1.0" encoding="UTF-8" standalone="no"?>
<svg xmlns:xlink="http://www.w3.org/1999/xlink" height="99.95px" width="95.25px" xmlns="http://www.w3.org/2000/svg">
  <g transform="matrix(1.0, 0.0, 0.0, 1.0, 0.0, 0.0)">
    <path d="M95.2 68.2 L94.55 68.95 77.15 72.25 Q49.35 78.35 36.8 94.35 L30.45 94.8 Q16.35 97.8 0.25 99.95 -0.05 99.4 0.05 98.7 3.0 79.85 7.65 61.2 L9.05 63.05 Q11.95 59.9 12.85 55.65 14.2 49.25 14.7 42.8 L10.0 44.7 Q15.0 22.25 7.7 0.0 14.45 4.35 19.5 10.65 29.7 23.5 45.7 28.85 51.0 30.6 55.05 34.2 74.8 51.65 95.25 67.65 L95.2 68.2 M58.15 57.95 L59.1 56.75 Q61.4 53.9 61.95 50.4 61.4 53.9 59.1 56.75 L58.15 57.95 M22.15 27.8 Q21.7 24.75 20.85 21.75 L18.35 13.65 20.85 21.75 Q21.7 24.75 22.15 27.8 M43.1 43.55 L43.0 44.25 Q41.4 48.6 39.4 52.8 L37.75 55.95 33.25 63.8 30.9 67.85 25.85 76.3 21.1 83.1 15.75 89.7 14.0 91.9 Q13.4 92.7 12.7 93.0 13.4 92.7 14.0 91.9 L15.75 89.7 21.1 83.1 25.85 76.3 30.9 67.85 33.25 63.8 37.75 55.95 39.4 52.8 Q41.4 48.6 43.0 44.25 L43.1 43.55 M36.95 66.4 Q39.3 64.0 41.2 61.25 L45.6 54.5 48.35 48.95 Q49.65 45.65 49.7 42.15 L49.7 41.7 49.7 42.15 Q49.65 45.65 48.35 48.95 L45.6 54.5 41.2 61.25 Q39.3 64.0 36.95 66.4" fill="url(#gradient0)" fill-rule="evenodd" stroke="none"/>
    <path d="M95.2 68.2 L95.25 67.65 Q74.8 51.65 55.05 34.2 51.0 30.6 45.7 28.85 29.7 23.5 19.5 10.65 14.45 4.35 7.7 0.0 15.0 22.25 10.0 44.7 L14.7 42.8 Q14.2 49.25 12.85 55.65 11.95 59.9 9.05 63.05 L7.65 61.2 Q3.0 79.85 0.05 98.7 -0.05 99.4 0.25 99.95 16.35 97.8 30.45 94.8 L36.8 94.35 Q49.35 78.35 77.15 72.25 L94.55 68.95 95.2 68.2 M49.7 41.7 L49.7 42.15 Q49.65 45.65 48.35 48.95 L45.6 54.5 41.2 61.25 Q39.3 64.0 36.95 66.4 M12.7 93.0 Q13.4 92.7 14.0 91.9 L15.75 89.7 21.1 83.1 25.85 76.3 30.9 67.85 33.25 63.8 37.75 55.95 39.4 52.8 Q41.4 48.6 43.0 44.25 L43.1 43.55 M18.35 13.65 L20.85 21.75 Q21.7 24.75 22.15 27.8 M61.95 50.4 Q61.4 53.9 59.1 56.75 L58.15 57.95" fill="none" stroke="#ffcc00" stroke-linecap="round" stroke-linejoin="round" stroke-width="0.05"/>
  </g>
  <defs>
    <linearGradient gradientTransform="matrix(0.0457, 0.0108, -0.0024, 0.01, 42.25, 32.65)" gradientUnits="userSpaceOnUse" id="gradient0" spreadMethod="pad" x1="-819.2" x2="819.2">
      <stop offset="0.0" stop-color="#cc1102" stop-opacity="0.4509804"/>
      <stop offset="1.0" stop-color="#ffb213" stop-opacity="0.57254905"/>
    </linearGradient>
  </defs>
</svg>
