<?xml version="1.0" encoding="UTF-8" standalone="no"?>
<svg xmlns:xlink="http://www.w3.org/1999/xlink" height="99.95px" width="95.25px" xmlns="http://www.w3.org/2000/svg">
  <g transform="matrix(1.0, 0.0, 0.0, 1.0, 0.0, 0.0)">
    <path d="M95.2 68.2 L94.55 68.95 77.15 72.25 Q49.35 78.35 36.8 94.35 L30.45 94.8 Q16.35 97.8 0.25 99.95 -0.05 99.4 0.05 98.7 3.0 79.85 7.65 61.2 L9.05 63.05 Q11.95 59.9 12.85 55.65 14.2 49.25 14.7 42.8 L10.0 44.7 Q15.0 22.25 7.7 0.0 14.45 4.35 19.5 10.65 29.7 23.5 45.7 28.85 51.0 30.6 55.05 34.2 74.8 51.65 95.25 67.65 L95.2 68.2" fill="url(#gradient0)" fill-rule="evenodd" stroke="none"/>
  </g>
  <defs>
    <linearGradient gradientTransform="matrix(0.0457, 0.0108, -0.0024, 0.01, 42.25, 32.65)" gradientUnits="userSpaceOnUse" id="gradient0" spreadMethod="pad" x1="-819.2" x2="819.2">
      <stop offset="0.0" stop-color="#ff0000" stop-opacity="0.57254905"/>
      <stop offset="1.0" stop-color="#ff9605" stop-opacity="0.4509804"/>
    </linearGradient>
  </defs>
</svg>
