<?xml version="1.0" encoding="UTF-8" standalone="no"?>
<svg xmlns:xlink="http://www.w3.org/1999/xlink" height="40.8px" width="83.4px" xmlns="http://www.w3.org/2000/svg">
  <g transform="matrix(1.0, 0.0, 0.0, 1.0, 0.0, 0.0)">
    <path d="M48.3 8.0 L52.8 3.8 50.5 8.15 53.5 6.65 Q57.75 4.4 62.15 2.4 65.35 1.0 68.9 0.45 L74.15 0.0 75.9 0.4 Q79.95 0.9 83.4 3.35 79.45 1.8 75.15 2.8 L70.55 3.75 67.65 4.35 Q64.1 5.15 60.85 6.5 59.05 7.3 57.45 8.35 L52.85 11.65 50.0 13.7 Q49.2 14.3 48.35 14.6 L56.05 12.8 60.75 11.5 Q64.2 10.4 67.7 9.9 71.45 9.6 75.15 9.95 L70.0 10.6 Q65.9 11.45 62.35 13.8 60.3 15.35 57.65 15.65 L52.55 15.95 Q49.1 16.75 45.7 17.9 41.65 19.25 38.2 21.5 L37.95 22.2 39.35 22.6 40.55 21.95 Q43.55 21.5 46.55 21.95 50.5 22.1 54.6 21.75 58.8 21.1 62.55 19.4 64.7 18.45 67.05 18.25 L72.1 18.65 69.05 19.1 Q65.5 19.65 62.4 21.8 58.3 24.05 53.75 24.45 L47.15 24.65 Q43.7 24.0 41.0 25.95 L41.3 26.3 41.55 26.6 41.9 26.8 42.35 26.9 42.55 26.95 43.75 27.95 Q48.0 27.4 51.9 28.95 56.45 30.9 61.3 29.7 L67.15 28.3 64.9 29.7 62.45 30.85 59.95 31.6 56.15 31.9 41.15 31.25 40.6 32.05 40.75 32.3 41.7 33.35 Q45.05 36.65 49.9 37.5 51.1 37.6 51.5 38.7 L51.85 39.85 52.15 40.75 52.05 40.8 51.05 40.0 Q50.3 39.35 49.45 39.15 L46.0 38.95 41.95 38.7 Q40.3 38.5 40.05 36.8 L39.9 36.25 39.15 34.9 Q38.3 33.75 36.75 33.7 L36.8 31.5 35.9 31.0 35.85 28.45 Q33.85 28.4 32.25 28.9 L30.85 28.65 Q29.55 27.95 28.05 28.1 26.55 27.75 25.25 26.65 24.35 25.95 23.0 25.9 22.5 27.45 21.05 28.2 L20.7 28.3 16.75 28.1 15.05 28.8 11.1 28.65 9.2 28.8 5.65 29.95 3.85 30.05 2.0 30.75 Q0.6 29.6 0.1 27.9 L0.0 27.6 0.1 27.25 Q0.65 25.65 1.7 24.45 3.3 22.7 5.9 22.2 L7.75 21.7 Q10.35 20.95 12.7 19.5 L15.2 18.0 Q18.85 15.95 22.9 15.25 L27.0 13.45 35.55 9.6 Q38.6 8.15 41.5 6.4 43.15 5.35 45.0 4.75 L41.9 7.3 41.85 7.35 39.4 8.85 Q35.45 11.75 30.8 13.6 L39.4 11.85 46.35 9.8 48.3 8.0 M21.75 20.8 Q23.65 19.15 25.95 19.15 L24.75 19.05 Q20.0 18.95 15.85 21.05 L14.05 21.9 20.45 21.7 21.75 20.8 M6.4 25.5 L6.65 24.45 Q7.5 23.8 8.5 23.65 L14.05 21.9 8.5 23.65 Q7.5 23.8 6.65 24.45 L6.4 25.5" fill="#413153" fill-rule="evenodd" stroke="none"/>
    <path d="M21.75 20.8 L20.45 21.7 14.05 21.9 15.85 21.05 Q20.0 18.95 24.75 19.05 L25.95 19.15 Q23.65 19.15 21.75 20.8" fill="#ff0000" fill-rule="evenodd" stroke="none"/>
    <path d="M3.85 30.05 L5.65 29.95 6.6 32.8 5.6 32.05 Q4.45 31.25 3.85 30.05 M9.2 28.8 L11.1 28.65 11.55 31.15 10.15 30.1 Q9.45 29.65 9.2 28.8 M15.05 28.8 L16.75 28.1 17.0 29.0 16.8 30.05 16.45 30.05 15.05 28.8" fill="#e2d2ba" fill-rule="evenodd" stroke="none"/>
    <path d="M48.3 8.0 L46.35 9.8 39.4 11.85 30.8 13.6 Q35.45 11.75 39.4 8.85 L41.85 7.35 41.9 7.3 44.15 8.5 45.55 8.35 48.3 8.0 M49.9 37.5 Q45.05 36.65 41.7 33.35 L40.75 32.3 40.6 32.05 41.15 31.25 56.15 31.9 55.55 32.55 55.85 33.3 48.1 35.15 49.9 37.5 M61.3 29.7 Q56.45 30.9 51.9 28.95 48.0 27.4 43.75 27.95 L42.55 26.95 42.35 26.9 41.9 26.8 41.55 26.6 41.3 26.3 41.0 25.95 Q43.7 24.0 47.15 24.65 L53.75 24.45 Q58.3 24.05 62.4 21.8 L61.8 22.6 62.2 22.9 59.6 24.75 56.8 26.65 61.3 29.7 M62.55 19.4 Q58.8 21.1 54.6 21.75 50.5 22.1 46.55 21.95 43.55 21.5 40.55 21.95 L39.35 22.6 37.95 22.2 38.2 21.5 Q41.65 19.25 45.7 17.9 49.1 16.75 52.55 15.95 L57.65 15.65 Q60.3 15.35 62.35 13.8 L62.35 14.35 61.95 15.15 62.25 15.75 Q60.9 17.55 58.65 18.25 60.3 19.4 62.55 19.4" fill="url(#gradient0)" fill-rule="evenodd" stroke="none"/>
    <path d="M2.0 30.75 L3.85 30.05 5.65 29.95 9.2 28.8 11.1 28.65 15.05 28.8 16.75 28.1 20.7 28.3 21.05 28.2 Q22.5 27.45 23.0 25.9 M21.75 20.8 Q23.65 19.15 25.95 19.15 L24.75 19.05 Q20.0 18.95 15.85 21.05 L14.05 21.9 20.45 21.7 21.75 20.8 M14.05 21.9 L8.5 23.65 Q7.5 23.8 6.65 24.45 L6.4 25.5" fill="none" stroke="#000000" stroke-linecap="round" stroke-linejoin="round" stroke-width="0.05"/>
  </g>
  <defs>
    <linearGradient gradientTransform="matrix(0.0131, 0.0, 0.0, 0.0051, 51.7, 25.95)" gradientUnits="userSpaceOnUse" id="gradient0" spreadMethod="pad" x1="-819.2" x2="819.2">
      <stop offset="0.0" stop-color="#ff0000" stop-opacity="0.57254905"/>
      <stop offset="1.0" stop-color="#ff9605" stop-opacity="0.4509804"/>
    </linearGradient>
  </defs>
</svg>
