<svg xmlns:xlink="http://www.w3.org/1999/xlink" xmlns="http://www.w3.org/2000/svg" height="25.3px" width="37.0px">
  <g transform="matrix(1.0, 0.0, 0.0, 1.0, 17.3, 10.95)">
    <clipPath id="clipPath0" transform="matrix(1.0, 0.0, 0.0, 1.0, 0.0, 0.0)">
      <path d="M-5.95 -0.6 L-6.55 -0.7 -6.65 -0.8 Q-6.85 -2.5 -5.2 -3.5 -4.4 -4.05 -3.4 -4.05 -0.15 -4.3 -0.35 -1.55 L-0.6 -1.3 Q-1.0 -1.2 -1.3 -1.6 L-2.05 -2.45 Q-4.75 -3.1 -5.85 -0.65 L-5.95 -0.6 M-6.0 4.75 L-6.2 4.05 -6.2 3.7 -4.5 4.4 Q-2.85 5.05 -0.95 4.95 0.9 4.85 0.2 5.2 -0.45 5.5 -0.4 5.75 L-2.4 6.6 Q-4.5 7.2 -6.0 4.75" fill="#e6b380" fill-rule="evenodd" stroke="none"/>
    </clipPath>
    <g clip-path="url(#clipPath0)">
      <g data-characterId="997" height="25.3" transform="matrix(1.0, 0.0, 0.0, 1.0, -17.3, -10.95)" width="32.45" xlink:href="#sprite0"><g id="shape1" transform="matrix(1.0, 0.0, 0.0, 1.0, 0.0, 12.65)">
      <path d="M32.45 -12.65 L32.45 12.65 0.0 12.65 0.0 -12.65 32.45 -12.65" fill="#e6b380" fill-rule="evenodd" stroke="none"/>
    </g>
    </g>
    </g>
    <g data-characterId="1012" height="5.5" transform="matrix(1.0, 0.0, 0.0, 1.0, -6.2, -2.6)" width="5.8" xlink:href="#shape2"><g id="shape2" transform="matrix(1.0, 0.0, 0.0, 1.0, 6.2, 2.6)">
      <path d="M-0.45 -0.55 L-0.4 1.25 -1.3 2.3 -1.95 2.7 -3.7 2.85 Q-4.95 3.2 -6.0 1.45 L-6.2 0.55 Q-6.2 -1.55 -5.0 -2.25 L-4.2 -2.35 Q-1.4 -3.3 -0.45 -0.55" fill="#660000" fill-rule="evenodd" stroke="none"/>
      <path d="M-0.45 -0.55 L-0.4 1.25 -1.3 2.3 -1.95 2.7 -3.7 2.85 Q-4.95 3.2 -6.0 1.45 L-6.2 0.55 Q-6.2 -1.55 -5.0 -2.25 L-4.2 -2.35 Q-1.4 -3.3 -0.45 -0.55 Z" fill="none" stroke="#000000" stroke-linecap="round" stroke-linejoin="round" stroke-width="0.05"/>
    </g>
  </g>
  </g>
  <defs>
    <g id="sprite0" transform="matrix(1.0, 0.0, 0.0, 1.0, 0.0, 12.65)">
      <use data-characterId="991" height="25.3" transform="matrix(1.0, 0.0, 0.0, 1.0, 0.0, -12.65)" width="32.45" xlink:href="#shape1"/>
    </g>
    </defs>
</svg>