<svg xmlns:xlink="http://www.w3.org/1999/xlink" xmlns="http://www.w3.org/2000/svg" height="25.3px" width="37.0px">
  <g transform="matrix(1.0, 0.0, 0.0, 1.0, 17.3, 10.95)">
    <clipPath id="clipPath0" transform="matrix(1.0, 0.0, 0.0, 1.0, 0.0, 0.0)">
      <path d="M5.6 -0.8 L5.75 -0.2 5.55 0.25 Q2.9 0.8 0.25 -0.15 L-1.3 -0.4 -7.2 -0.65 -7.85 -0.55 -9.5 -0.5 Q-10.2 -0.25 -9.9 -0.75 L-9.6 -1.35 -9.55 -1.45 Q-8.0 -2.85 -6.05 -2.75 L-5.95 -2.55 -5.9 -2.45 -5.85 -2.35 Q-4.05 -2.1 -2.5 -3.2 1.15 -1.15 5.5 -0.85 L5.6 -0.8 M0.25 5.35 L-2.75 6.2 Q-5.6 6.8 -7.1 4.35 L-7.3 3.65 -7.3 3.3 -5.6 4.0 Q-3.95 4.65 -1.45 4.55 L0.75 4.8 0.25 5.35" fill="#e6b380" fill-rule="evenodd" stroke="none"/>
    </clipPath>
    <g clip-path="url(#clipPath0)">
      <g data-characterId="997" height="25.3" transform="matrix(1.0, 0.0, 0.0, 1.0, -17.3, -10.95)" width="32.45" xlink:href="#sprite0"><g id="shape1" transform="matrix(1.0, 0.0, 0.0, 1.0, 0.0, 12.65)">
      <path d="M32.45 -12.65 L32.45 12.65 0.0 12.65 0.0 -12.65 32.45 -12.65" fill="#e6b380" fill-rule="evenodd" stroke="none"/>
    </g>
    </g>
    </g>
    <g data-characterId="1020" height="1.6" transform="matrix(1.0, 0.0, 0.0, 1.0, -10.3, -0.85)" width="17.75" xlink:href="#shape2"><g id="shape2" transform="matrix(1.0, 0.0, 0.0, 1.0, 10.3, 0.85)">
      <path d="M-9.8 -0.35 L6.95 0.25" fill="none" stroke="#000000" stroke-linecap="round" stroke-linejoin="round" stroke-width="1.0"/>
    </g>
  </g>
  </g>
  <defs>
    <g id="sprite0" transform="matrix(1.0, 0.0, 0.0, 1.0, 0.0, 12.65)">
      <use data-characterId="991" height="25.3" transform="matrix(1.0, 0.0, 0.0, 1.0, 0.0, -12.65)" width="32.45" xlink:href="#shape1"/>
    </g>
    </defs>
</svg>