<svg xmlns:xlink="http://www.w3.org/1999/xlink" xmlns="http://www.w3.org/2000/svg" height="25.3px" width="37.0px">
  <g transform="matrix(1.0, 0.0, 0.0, 1.0, 17.3, 10.95)">
    <clipPath id="clipPath0" transform="matrix(1.0, 0.0, 0.0, 1.0, 0.0, 0.0)">
      <path d="M3.65 -3.25 Q7.5 -2.05 11.15 -3.1 L12.5 -3.8 13.0 -3.75 14.1 -4.2 Q13.85 -3.15 12.15 -2.4 L11.9 -2.3 11.6 -1.95 11.5 -1.85 Q5.9 0.85 -0.3 0.4 L-3.2 0.1 Q-4.35 -0.05 -4.95 -0.85 -6.4 -0.75 -7.2 -1.8 L-7.1 -2.05 -6.95 -2.25 -1.55 -2.7 -1.1 -2.6 Q1.3 -1.6 3.15 -3.15 L3.65 -3.25 M1.45 6.55 Q-1.4 7.15 -2.9 4.7 L-3.1 4.0 -3.1 3.65 -1.4 4.35 Q0.25 5.0 2.75 4.9 L4.95 5.15 4.45 5.7 1.45 6.55" fill="#e6b380" fill-rule="evenodd" stroke="none"/>
    </clipPath>
    <g clip-path="url(#clipPath0)">
      <g data-characterId="997" height="25.3" transform="matrix(1.0, 0.0, 0.0, 1.0, -17.3, -10.95)" width="32.45" xlink:href="#sprite0"><g id="shape1" transform="matrix(1.0, 0.0, 0.0, 1.0, 0.0, 12.65)">
      <path d="M32.45 -12.65 L32.45 12.65 0.0 12.65 0.0 -12.65 32.45 -12.65" fill="#e6b380" fill-rule="evenodd" stroke="none"/>
    </g>
    </g>
    </g>
    <g data-characterId="1037" height="6.55" transform="matrix(1.0, 0.0, 0.0, 1.0, -7.75, -5.75)" width="23.75" xlink:href="#shape2"><g id="shape2" transform="matrix(1.0, 0.0, 0.0, 1.0, 7.75, 5.75)">
      <path d="M-7.25 -1.8 L-6.9 -1.3 -6.4 -1.1 Q4.7 2.6 13.15 -3.35 L13.2 -3.35 15.5 -5.25" fill="none" stroke="#000000" stroke-linecap="round" stroke-linejoin="round" stroke-width="1.0"/>
    </g>
  </g>
  </g>
  <defs>
    <g id="sprite0" transform="matrix(1.0, 0.0, 0.0, 1.0, 0.0, 12.65)">
      <use data-characterId="991" height="25.3" transform="matrix(1.0, 0.0, 0.0, 1.0, 0.0, -12.65)" width="32.45" xlink:href="#shape1"/>
    </g>
    </defs>
</svg>