<svg xmlns:xlink="http://www.w3.org/1999/xlink" xmlns="http://www.w3.org/2000/svg" height="25.3px" width="37.0px">
  <g transform="matrix(1.0, 0.0, 0.0, 1.0, 17.3, 10.95)">
    <clipPath id="clipPath0" transform="matrix(1.0, 0.0, 0.0, 1.0, 0.0, 0.0)">
      <path d="M3.0 -4.3 Q8.3 -2.45 13.65 -4.2 L14.95 -4.6 Q15.7 -4.85 16.35 -5.35 L16.6 -5.4 16.85 -5.35 17.0 -5.25 17.15 -5.05 17.25 -4.8 Q16.6 -3.2 14.75 -3.15 10.4 -1.15 5.7 -1.45 0.95 0.0 -4.1 -1.35 -4.95 -1.3 -5.1 -2.0 -6.05 -1.85 -6.95 -2.4 L-6.9 -2.5 -6.9 -2.7 -6.85 -2.8 Q-5.5 -3.05 -4.3 -3.65 -3.65 -4.25 -2.75 -4.35 -0.25 -2.55 2.45 -4.25 L3.0 -4.3 M1.3 8.2 Q-1.55 8.8 -3.05 6.35 L-3.25 5.65 -3.25 5.3 -1.55 6.0 Q0.1 6.65 2.6 6.55 L4.8 6.8 4.3 7.35 1.3 8.2" fill="#e6b380" fill-rule="evenodd" stroke="none"/>
    </clipPath>
    <g clip-path="url(#clipPath0)">
      <g data-characterId="997" height="25.3" transform="matrix(1.0, 0.0, 0.0, 1.0, -17.3, -10.95)" width="32.45" xlink:href="#sprite0"><g id="shape1" transform="matrix(1.0, 0.0, 0.0, 1.0, 0.0, 12.65)">
      <path d="M32.45 -12.65 L32.45 12.65 0.0 12.65 0.0 -12.65 32.45 -12.65" fill="#e6b380" fill-rule="evenodd" stroke="none"/>
    </g>
    </g>
    </g>
    <g data-characterId="1039" height="10.95" transform="matrix(1.0, 0.0, 0.0, 1.0, -6.65, -8.5)" width="26.35" xlink:href="#shape2"><g id="shape2" transform="matrix(1.0, 0.0, 0.0, 1.0, 6.65, 8.5)">
      <path d="M-5.5 -1.95 L-1.05 -1.2 5.5 -1.65 10.75 -2.5 Q12.85 -3.0 14.6 -4.1 L18.5 -6.5 Q19.4 -7.25 19.5 -8.5 19.9 -7.1 19.45 -5.65 L19.05 -5.0 18.7 -4.35 17.5 -1.95 Q16.25 0.05 14.15 1.05 L13.6 1.25 9.95 2.3 6.75 2.45 -4.95 2.0 -5.0 2.0 -4.45 0.6 -5.45 -0.6 -5.5 -1.95 M3.0 1.0 L5.3 0.05 6.6 0.95 12.5 0.5 6.6 0.95 5.3 0.05 3.0 1.0" fill="#ffffff" fill-rule="evenodd" stroke="none"/>
      <path d="M-5.5 -1.95 L-1.05 -1.2 5.5 -1.65 10.75 -2.5 Q12.85 -3.0 14.6 -4.1 L18.5 -6.5 Q19.4 -7.25 19.5 -8.5 19.9 -7.1 19.45 -5.65 L19.05 -5.0 18.7 -4.35 17.5 -1.95 Q16.25 0.05 14.15 1.05 L13.6 1.25 9.95 2.3 6.75 2.45 -4.95 2.0 -5.0 2.0 -4.45 0.6 -5.45 -0.6 -5.5 -1.95 -6.65 -2.35" fill="none" stroke="#000000" stroke-linecap="round" stroke-linejoin="round" stroke-width="0.05"/>
      <path d="M12.5 0.5 L6.6 0.95 5.3 0.05 3.0 1.0" fill="none" stroke="#999999" stroke-linecap="round" stroke-linejoin="round" stroke-width="0.05"/>
    </g>
  </g>
  </g>
  <defs>
    <g id="sprite0" transform="matrix(1.0, 0.0, 0.0, 1.0, 0.0, 12.65)">
      <use data-characterId="991" height="25.3" transform="matrix(1.0, 0.0, 0.0, 1.0, 0.0, -12.65)" width="32.45" xlink:href="#shape1"/>
    </g>
    </defs>
</svg>