<svg xmlns:xlink="http://www.w3.org/1999/xlink" xmlns="http://www.w3.org/2000/svg" height="25.3px" width="37.0px">
  <g transform="matrix(1.0, 0.0, 0.0, 1.0, 17.3, 10.95)">
    <clipPath id="clipPath0" transform="matrix(1.0, 0.0, 0.0, 1.0, 0.0, 0.0)">
      <path d="M-5.35 -2.95 L-2.85 -2.85 Q-1.1 -2.1 1.95 -3.7 6.4 -1.65 9.45 2.1 L1.15 -0.75 Q-3.1 -2.0 -7.1 0.3 L-6.15 -1.55 -7.25 0.05 Q-7.15 -1.25 -6.7 -1.65 L-5.35 -2.95 M-5.2 5.85 L-2.9 6.7 2.65 7.0 7.3 6.25 Q8.6 5.8 6.8 6.85 4.95 7.85 1.2 8.6 -2.55 9.3 -4.2 7.3 L-5.2 5.85" fill="#e6b380" fill-rule="evenodd" stroke="none"/>
    </clipPath>
    <g clip-path="url(#clipPath0)">
      <g data-characterId="997" height="25.3" transform="matrix(1.0, 0.0, 0.0, 1.0, -17.3, -10.95)" width="32.45" xlink:href="#sprite0"><g id="shape1" transform="matrix(1.0, 0.0, 0.0, 1.0, 0.0, 12.65)">
      <path d="M32.45 -12.65 L32.45 12.65 0.0 12.65 0.0 -12.65 32.45 -12.65" fill="#e6b380" fill-rule="evenodd" stroke="none"/>
    </g>
    </g>
    </g>
    <g data-characterId="1054" height="6.15" transform="matrix(1.0, 0.0, 0.0, 1.0, -7.95, -1.9)" width="21.3" xlink:href="#shape2"><g id="shape2" transform="matrix(1.0, 0.0, 0.0, 1.0, 7.95, 1.9)">
      <path d="M3.35 -0.05 L3.95 -0.15 3.35 -0.15 3.35 -0.05 M9.45 1.0 L13.35 4.25 -7.95 3.5 -7.05 -0.65 -4.6 -1.4 Q2.6 -3.05 9.3 0.7 L9.15 0.9 9.45 1.0 M-1.95 0.75 L4.0 1.2 Q6.5 1.2 8.7 2.85 L9.15 2.1 8.7 2.85 Q6.5 1.2 4.0 1.2 L-1.95 0.75" fill="#ffffff" fill-rule="evenodd" stroke="none"/>
      <path d="M9.15 0.9 L9.3 0.7 Q2.6 -3.05 -4.6 -1.4 L-7.05 -0.65 -7.95 3.5 13.35 4.25 9.45 1.0 9.3 0.7" fill="none" stroke="#000000" stroke-linecap="round" stroke-linejoin="round" stroke-width="0.05"/>
      <path d="M9.15 2.1 L8.7 2.85 Q6.5 1.2 4.0 1.2 L-1.95 0.75" fill="none" stroke="#999999" stroke-linecap="round" stroke-linejoin="round" stroke-width="0.05"/>
    </g>
  </g>
  </g>
  <defs>
    <g id="sprite0" transform="matrix(1.0, 0.0, 0.0, 1.0, 0.0, 12.65)">
      <use data-characterId="991" height="25.3" transform="matrix(1.0, 0.0, 0.0, 1.0, 0.0, -12.65)" width="32.45" xlink:href="#shape1"/>
    </g>
    </defs>
</svg>