<svg xmlns:xlink="http://www.w3.org/1999/xlink" xmlns="http://www.w3.org/2000/svg" height="25.3px" width="37.0px">
  <g transform="matrix(1.0, 0.0, 0.0, 1.0, 17.3, 10.95)">
    <clipPath id="clipPath0" transform="matrix(1.0, 0.0, 0.0, 1.0, 0.0, 0.0)">
      <path d="M8.25 -1.6 L8.1 -1.45 7.75 -1.25 Q7.3 -1.25 7.0 -1.55 L7.0 -1.6 2.75 -1.95 -1.65 -2.1 -1.8 -1.9 -1.95 -1.75 -2.45 -1.45 -2.55 -1.4 -2.75 -1.4 -3.0 -1.45 -6.1 -0.9 Q-6.9 -0.65 -7.4 -1.2 L-8.5 -1.05 -8.65 -1.2 -6.8 -2.6 -5.9 -3.2 -5.55 -3.65 Q-3.8 -3.05 -2.3 -4.1 L-2.1 -4.2 -1.85 -4.15 -1.6 -4.1 5.95 -3.0 Q7.7 -2.9 8.25 -1.6 M-3.15 5.55 Q-6.0 6.15 -7.5 3.7 L-7.7 3.0 -7.7 2.65 -6.0 3.35 -1.85 3.9 0.35 4.15 -0.15 4.7 -3.15 5.55" fill="#e6b380" fill-rule="evenodd" stroke="none"/>
    </clipPath>
    <g clip-path="url(#clipPath0)">
      <g data-characterId="997" height="25.3" transform="matrix(1.0, 0.0, 0.0, 1.0, -17.3, -10.95)" width="32.45" xlink:href="#sprite0"><g id="shape1" transform="matrix(1.0, 0.0, 0.0, 1.0, 0.0, 12.65)">
      <path d="M32.45 -12.65 L32.45 12.65 0.0 12.65 0.0 -12.65 32.45 -12.65" fill="#e6b380" fill-rule="evenodd" stroke="none"/>
    </g>
    </g>
    </g>
    <g data-characterId="1022" height="4.85" transform="matrix(1.0, 0.0, 0.0, 1.0, -8.65, -2.75)" width="18.3" xlink:href="#shape2"><g id="shape2" transform="matrix(1.0, 0.0, 0.0, 1.0, 4.65, 0.75)">
      <path d="M-2.75 0.8 L-2.55 0.75 Q-0.1 0.0 2.65 -0.1 L3.2 -0.2 8.35 -0.75 9.15 -0.7 9.7 -0.6 11.6 -0.4 11.75 -0.35 12.15 -0.25 Q13.5 0.45 13.65 1.75 13.8 3.85 11.9 4.1 L10.8 4.1 8.9 3.9 8.35 3.8 4.8 3.4 4.55 3.3 Q3.8 2.9 2.9 2.9 L2.35 2.8 -2.4 2.45 -2.75 0.8 M11.9 1.0 L9.75 1.0 9.65 1.0 9.45 2.25 9.65 1.0 7.25 1.25 9.65 1.0 9.75 1.0 11.9 1.0" fill="#ffffff" fill-rule="evenodd" stroke="none"/>
      <path d="M-2.75 0.8 L-2.55 0.75 Q-0.1 0.0 2.65 -0.1 L3.2 -0.2 8.35 -0.75 9.15 -0.7 9.7 -0.6 11.6 -0.4 11.75 -0.35 12.15 -0.25 Q13.5 0.45 13.65 1.75 13.8 3.85 11.9 4.1 L10.8 4.1 8.9 3.9 8.35 3.8 4.8 3.4 4.55 3.3 Q3.8 2.9 2.9 2.9 L2.35 2.8 -2.4 2.45 -2.55 2.45 -3.65 2.75 M-2.75 0.8 L-4.65 1.0 M-2.4 2.45 L-2.75 0.8" fill="none" stroke="#000000" stroke-linecap="round" stroke-linejoin="round" stroke-width="0.05"/>
      <path d="M9.45 2.25 L9.65 1.0 7.25 1.25 M9.65 1.0 L9.75 1.0 11.9 1.0" fill="none" stroke="#999999" stroke-linecap="round" stroke-linejoin="round" stroke-width="0.05"/>
    </g>
  </g>
  </g>
  <defs>
    <g id="sprite0" transform="matrix(1.0, 0.0, 0.0, 1.0, 0.0, 12.65)">
      <use data-characterId="991" height="25.3" transform="matrix(1.0, 0.0, 0.0, 1.0, 0.0, -12.65)" width="32.45" xlink:href="#shape1"/>
    </g>
    </defs>
</svg>