<svg xmlns:xlink="http://www.w3.org/1999/xlink" xmlns="http://www.w3.org/2000/svg" height="25.3px" width="37.0px">
  <g transform="matrix(1.0, 0.0, 0.0, 1.0, 17.3, 10.95)">
    <clipPath id="clipPath0" transform="matrix(1.0, 0.0, 0.0, 1.0, 0.0, 0.0)">
      <path d="M5.55 -0.25 L5.4 -0.05 5.3 0.0 Q2.75 0.2 0.4 -0.8 L0.05 -0.9 Q-1.0 0.1 -2.7 0.1 L-8.35 -0.25 -8.6 -0.5 -8.7 -0.55 -9.2 -0.65 -9.25 -0.75 -9.2 -1.2 -9.05 -1.7 -9.0 -1.8 Q-7.35 -2.85 -5.6 -2.4 L-3.85 -1.95 -2.2 -2.45 -1.65 -2.9 -1.4 -2.95 Q1.85 -1.8 5.25 -1.15 L5.4 -1.1 5.6 -0.8 5.65 -0.6 5.55 -0.25 M0.45 5.6 L-2.55 6.45 Q-5.4 7.05 -6.9 4.6 L-7.1 3.9 -7.1 3.55 -5.4 4.25 Q-3.75 4.9 -1.25 4.8 L0.95 5.05 0.45 5.6" fill="#e6b380" fill-rule="evenodd" stroke="none"/>
    </clipPath>
    <g clip-path="url(#clipPath0)">
      <g data-characterId="997" height="25.3" transform="matrix(1.0, 0.0, 0.0, 1.0, -17.3, -10.95)" width="32.45" xlink:href="#sprite0"><g id="shape1" transform="matrix(1.0, 0.0, 0.0, 1.0, 0.0, 12.65)">
      <path d="M32.45 -12.65 L32.45 12.65 0.0 12.65 0.0 -12.65 32.45 -12.65" fill="#e6b380" fill-rule="evenodd" stroke="none"/>
    </g>
    </g>
    </g>
    <g data-characterId="1058" height="1.7" transform="matrix(1.0, 0.0, 0.0, 1.0, -9.55, -0.95)" width="17.0" xlink:href="#shape2"><g id="shape2" transform="matrix(1.0, 0.0, 0.0, 1.0, 9.55, 0.95)">
      <path d="M-9.05 0.15 Q-1.05 -1.05 6.95 0.25" fill="none" stroke="#000000" stroke-linecap="round" stroke-linejoin="round" stroke-width="1.0"/>
    </g>
  </g>
  </g>
  <defs>
    <g id="sprite0" transform="matrix(1.0, 0.0, 0.0, 1.0, 0.0, 12.65)">
      <use data-characterId="991" height="25.3" transform="matrix(1.0, 0.0, 0.0, 1.0, 0.0, -12.65)" width="32.45" xlink:href="#shape1"/>
    </g>
    </defs>
</svg>