<svg xmlns:xlink="http://www.w3.org/1999/xlink" xmlns="http://www.w3.org/2000/svg" height="25.3px" width="37.0px">
  <g transform="matrix(1.0, 0.0, 0.0, 1.0, 17.3, 10.95)">
    <clipPath id="clipPath0" transform="matrix(1.0, 0.0, 0.0, 1.0, 0.0, 0.0)">
      <path d="M4.9 1.05 Q3.8 1.7 2.3 0.75 1.3 0.05 0.05 -0.35 -3.15 0.95 -6.6 0.3 L-7.3 0.45 -7.75 0.35 -8.3 -0.15 -8.75 0.3 Q-9.2 0.85 -9.8 0.7 L-9.9 0.6 -9.95 0.35 -9.95 0.25 Q-8.9 -1.35 -7.1 -1.9 -6.35 -2.15 -5.5 -1.9 L-5.4 -1.8 -4.9 -1.35 -4.6 -1.15 Q-3.65 -1.35 -2.8 -1.85 L-1.35 -2.35 Q2.75 -2.3 4.9 1.0 L4.9 1.05 M-1.15 5.85 L-4.15 6.7 Q-7.0 7.3 -8.5 4.85 L-8.7 4.15 -8.7 3.8 -7.0 4.5 -2.85 5.05 -0.65 5.3 -1.15 5.85" fill="#e6b380" fill-rule="evenodd" stroke="none"/>
    </clipPath>
    <g clip-path="url(#clipPath0)">
      <g data-characterId="997" height="25.3" transform="matrix(1.0, 0.0, 0.0, 1.0, -17.3, -10.95)" width="32.45" xlink:href="#sprite0"><g id="shape1" transform="matrix(1.0, 0.0, 0.0, 1.0, 0.0, 12.65)">
      <path d="M32.45 -12.65 L32.45 12.65 0.0 12.65 0.0 -12.65 32.45 -12.65" fill="#e6b380" fill-rule="evenodd" stroke="none"/>
    </g>
    </g>
    </g>
    <g data-characterId="1026" height="3.5" transform="matrix(1.0, 0.0, 0.0, 1.0, -10.0, -0.5)" width="17.5" xlink:href="#shape2"><g id="shape2" transform="matrix(1.0, 0.0, 0.0, 1.0, 10.0, 0.5)">
      <path d="M-9.5 0.75 L-8.85 0.5 -8.7 0.45 Q-6.7 -0.3 -4.7 0.4 L-3.6 0.4 1.25 0.2 3.0 0.6 7.0 2.5" fill="none" stroke="#000000" stroke-linecap="round" stroke-linejoin="round" stroke-width="1.0"/>
    </g>
  </g>
  </g>
  <defs>
    <g id="sprite0" transform="matrix(1.0, 0.0, 0.0, 1.0, 0.0, 12.65)">
      <use data-characterId="991" height="25.3" transform="matrix(1.0, 0.0, 0.0, 1.0, 0.0, -12.65)" width="32.45" xlink:href="#shape1"/>
    </g>
    </defs>
</svg>