<svg xmlns:xlink="http://www.w3.org/1999/xlink" xmlns="http://www.w3.org/2000/svg" height="25.3px" width="37.0px">
  <g transform="matrix(1.0, 0.0, 0.0, 1.0, 17.3, 10.95)">
    <clipPath id="clipPath0" transform="matrix(1.0, 0.0, 0.0, 1.0, 0.0, 0.0)">
      <path d="M4.8 -0.4 Q7.7 -0.45 7.8 0.2 L7.75 0.4 7.45 0.9 7.4 0.95 Q3.35 1.7 -0.6 0.45 -4.6 1.6 -8.6 0.55 L-8.7 0.45 -8.75 0.45 -9.05 0.75 -9.25 0.85 -9.45 0.75 -9.7 0.5 -9.7 0.4 -9.6 0.05 -9.55 -0.15 Q-8.75 -1.1 -7.65 -1.6 L-7.0 -1.6 Q-4.5 -0.4 -3.05 -1.2 -1.55 -2.0 0.15 -1.2 1.9 -0.4 4.8 -0.4 M0.45 6.6 L-2.55 7.45 Q-5.4 8.05 -6.9 5.6 L-7.1 4.9 -7.1 4.55 -5.4 5.25 Q-3.75 5.9 -1.25 5.8 L0.95 6.05 0.45 6.6" fill="#e6b380" fill-rule="evenodd" stroke="none"/>
    </clipPath>
    <g clip-path="url(#clipPath0)">
      <g data-characterId="997" height="25.3" transform="matrix(1.0, 0.0, 0.0, 1.0, -17.3, -10.95)" width="32.45" xlink:href="#sprite0"><g id="shape1" transform="matrix(1.0, 0.0, 0.0, 1.0, 0.0, 12.65)">
      <path d="M32.45 -12.65 L32.45 12.65 0.0 12.65 0.0 -12.65 32.45 -12.65" fill="#e6b380" fill-rule="evenodd" stroke="none"/>
    </g>
    </g>
    </g>
    <g data-characterId="1035" height="3.6" transform="matrix(1.0, 0.0, 0.0, 1.0, -9.65, -1.9)" width="20.85" xlink:href="#shape2"><g id="shape2" transform="matrix(1.0, 0.0, 0.0, 1.0, 9.65, 1.9)">
      <path d="M10.7 -1.4 Q9.55 -0.2 8.05 0.1 L5.8 0.6 2.2 0.85 -1.7 1.0 -3.95 1.2 -6.55 1.0 -9.15 0.45" fill="none" stroke="#000000" stroke-linecap="round" stroke-linejoin="round" stroke-width="1.0"/>
    </g>
  </g>
  </g>
  <defs>
    <g id="sprite0" transform="matrix(1.0, 0.0, 0.0, 1.0, 0.0, 12.65)">
      <use data-characterId="991" height="25.3" transform="matrix(1.0, 0.0, 0.0, 1.0, 0.0, -12.65)" width="32.45" xlink:href="#shape1"/>
    </g>
    </defs>
</svg>