<svg xmlns:xlink="http://www.w3.org/1999/xlink" xmlns="http://www.w3.org/2000/svg" height="25.3px" width="37.0px">
  <g transform="matrix(1.0, 0.0, 0.0, 1.0, 17.3, 10.95)">
    <clipPath id="clipPath0" transform="matrix(1.0, 0.0, 0.0, 1.0, 0.0, 0.0)">
      <path d="M2.75 -3.7 L6.2 -2.1 6.3 -2.05 Q10.0 -0.75 12.8 2.35 L13.1 3.05 Q12.1 5.05 9.7 3.4 L5.5 0.9 Q4.9 0.6 4.55 0.15 L-4.6 0.85 -4.95 0.2 -5.0 0.15 -5.8 0.5 -6.3 0.9 Q-7.15 1.1 -7.5 0.45 L-7.5 0.4 -4.65 -2.2 Q-4.05 -2.75 -3.3 -3.1 L-2.1 -3.05 -1.65 -2.55 -1.3 -2.25 -0.55 -2.25 Q1.1 -2.65 2.5 -3.55 L2.75 -3.7 M0.85 11.95 Q-3.0 12.6 -5.0 9.85 L-5.25 9.05 -5.3 8.65 -3.0 9.45 Q-0.8 10.15 2.6 10.05 6.0 9.95 5.6 10.35 L4.9 11.0 0.85 11.95" fill="#e6b380" fill-rule="evenodd" stroke="none"/>
    </clipPath>
    <g clip-path="url(#clipPath0)">
      <g data-characterId="997" height="25.3" transform="matrix(1.0, 0.0, 0.0, 1.0, -17.3, -10.95)" width="32.45" xlink:href="#sprite0"><g id="shape1" transform="matrix(1.0, 0.0, 0.0, 1.0, 0.0, 12.65)">
      <path d="M32.45 -12.65 L32.45 12.65 0.0 12.65 0.0 -12.65 32.45 -12.65" fill="#e6b380" fill-rule="evenodd" stroke="none"/>
    </g>
    </g>
    </g>
    <g data-characterId="1050" height="8.55" transform="matrix(1.0, 0.0, 0.0, 1.0, -7.1, -1.15)" width="21.25" xlink:href="#shape2"><g id="shape2" transform="matrix(1.0, 0.0, 0.0, 1.0, 7.1, 1.15)">
      <path d="M-6.15 1.0 L-6.6 1.0 Q3.9 -2.85 10.9 2.2 L13.25 3.85 Q13.65 4.5 13.65 5.4 L12.3 6.9 8.65 5.65 0.4 5.1 -4.8 5.3 -4.8 4.6 -4.1 3.15 -5.25 1.8 -6.15 1.0" fill="#660000" fill-rule="evenodd" stroke="none"/>
      <path d="M-6.6 1.0 Q3.9 -2.85 10.9 2.2 L13.25 3.85 Q13.65 4.5 13.65 5.4 L12.3 6.9 8.65 5.65 0.4 5.1 -4.8 5.3 M-4.8 4.6 L-4.1 3.15 -5.25 1.8 -6.15 1.0" fill="none" stroke="#000000" stroke-linecap="round" stroke-linejoin="round" stroke-width="1.0"/>
    </g>
  </g>
  </g>
  <defs>
    <g id="sprite0" transform="matrix(1.0, 0.0, 0.0, 1.0, 0.0, 12.65)">
      <use data-characterId="991" height="25.3" transform="matrix(1.0, 0.0, 0.0, 1.0, 0.0, -12.65)" width="32.45" xlink:href="#shape1"/>
    </g>
    </defs>
</svg>