<svg xmlns:xlink="http://www.w3.org/1999/xlink" xmlns="http://www.w3.org/2000/svg" height="202.2px" width="161.9px">
  <g transform="matrix(1.0, 0.0, 0.0, 1.0, 74.15, 81.7)">
    <g data-characterId="1453" height="162.65" transform="matrix(1.0, 0.0, 0.0, 1.0, -49.5, -74.4)" width="100.55" xlink:href="#shape0"><g id="shape0" transform="matrix(1.0, 0.0, 0.0, 1.0, 49.5, 74.4)">
      <path d="M-26.7 77.4 L-26.5 80.3 -29.25 77.4 -26.7 77.4" fill="url(#gradient0)" fill-rule="evenodd" stroke="none"/>
      <path d="M-38.25 71.7 Q-41.15 64.4 -42.3 56.45 L-43.15 63.05 Q-44.55 59.2 -45.25 55.15 -46.7 47.05 -46.8 39.1 L-47.1 24.9 Q-47.35 18.5 -47.1 13.3 -46.9 8.1 -47.75 2.6 -48.65 -2.9 -48.95 -9.9 -49.25 -16.9 -48.1 -25.15 -47.0 -33.4 -44.4 -41.15 -41.55 -49.7 -37.1 -57.5 -35.45 -60.45 -32.8 -62.1 L-28.55 -64.55 -23.9 -67.05 Q-21.4 -68.45 -18.65 -69.35 -10.4 -72.15 -2.0 -73.85 -1.1 -74.0 -0.3 -73.45 2.3 -71.45 2.8 -68.1 5.8 -70.0 9.05 -71.25 L10.3 -71.3 Q17.9 -68.6 24.9 -65.05 30.55 -62.2 35.35 -58.1 36.75 -56.9 37.75 -55.25 42.25 -47.5 45.0 -39.0 L47.4 -31.4 Q49.55 -24.55 49.25 -17.2 L48.75 -2.85 48.25 14.0 Q47.95 22.7 48.7 31.45 49.3 38.5 50.25 45.35 51.4 53.85 48.05 61.9 44.7 70.1 38.0 75.6 L35.4 77.7 38.8 65.65 Q35.95 74.4 29.2 80.7 L25.0 84.9 23.9 84.5 Q25.95 78.8 26.45 72.7 L26.6 70.15 Q23.1 77.5 17.7 83.55 L15.15 86.5 14.45 85.75 17.1 69.35 19.15 55.25 Q19.6 52.0 19.65 48.7 L19.55 39.05 18.95 25.25 Q18.65 18.75 17.9 12.25 L16.3 -3.2 Q15.65 -10.35 14.55 -17.15 L13.8 -19.85 13.5 -8.05 10.2 -17.25 Q7.35 -25.6 5.25 -34.25 4.3 -38.2 2.65 -41.8 L-2.25 -52.7 Q-2.95 -54.35 -4.2 -55.5 L-5.05 -56.4 -5.7 -55.9 Q-8.1 -51.45 -12.0 -48.25 L-20.1 -41.5 -31.7 -30.75 Q-34.8 -27.65 -36.7 -23.55 L-37.95 -20.4 -36.6 -19.85 -36.95 -8.2 Q-36.9 0.75 -33.75 9.25 L-33.65 9.6 Q-29.55 20.95 -24.1 31.6 -22.2 35.2 -18.15 34.8 L-17.75 35.2 -18.95 43.7 Q-19.05 44.45 -19.55 44.95 -22.7 47.75 -25.4 50.9 -24.85 43.9 -25.95 36.8 L-26.45 34.0 -25.95 36.8 Q-24.85 43.9 -25.4 50.9 L-25.4 50.95 -26.7 77.4 -29.25 77.4 -35.8 63.6 -36.25 63.35 -37.45 71.85 -38.25 71.7 M4.1 -63.5 L5.85 -64.5 Q6.5 -64.75 6.9 -64.5 13.1 -61.05 18.85 -57.1 13.1 -61.05 6.9 -64.5 6.5 -64.75 5.85 -64.5 L4.1 -63.5 M4.0 -65.8 L3.45 -66.85 4.0 -65.8 M0.45 -65.35 L3.45 -66.85 0.45 -65.35 M3.45 -66.85 L2.8 -68.1 3.45 -66.85 4.6 -67.2 3.45 -66.85 M2.75 -58.9 Q5.85 -58.05 7.8 -55.65 11.1 -51.55 12.3 -46.25 12.9 -43.55 14.7 -41.9 12.9 -43.55 12.3 -46.25 11.1 -51.55 7.8 -55.65 5.85 -58.05 2.75 -58.9 M11.5 -58.0 L14.3 -56.55 Q19.15 -53.9 22.05 -49.25 19.15 -53.9 14.3 -56.55 L11.5 -58.0 M26.2 -59.85 L33.1 -52.5 26.2 -59.85 M8.25 -68.6 Q11.5 -67.95 14.3 -65.95 18.55 -62.95 22.05 -58.9 18.55 -62.95 14.3 -65.95 11.5 -67.95 8.25 -68.6 M13.35 -24.4 L13.0 -26.2 Q12.3 -29.35 10.55 -31.75 12.3 -29.35 13.0 -26.2 L13.35 -24.4 M12.85 -39.6 L16.4 -31.6 Q19.15 -24.95 20.7 -17.95 19.15 -24.95 16.4 -31.6 L12.85 -39.6 M35.4 -45.55 Q36.5 -44.9 36.9 -43.7 38.1 -40.45 40.0 -37.75 38.1 -40.45 36.9 -43.7 36.5 -44.9 35.4 -45.55 M22.55 -50.15 L23.2 -49.1 27.05 -42.3 Q31.1 -34.9 33.1 -26.7 31.1 -34.9 27.05 -42.3 L23.2 -49.1 22.55 -50.15 M25.3 -38.65 L28.5 -28.55 25.3 -38.65 M30.35 -49.7 L32.7 -46.1 Q37.45 -38.9 38.65 -30.4 37.45 -38.9 32.7 -46.1 L30.35 -49.7 M30.8 -42.35 L35.4 -32.7 30.8 -42.35 M13.35 -68.15 Q17.4 -65.8 22.0 -64.25 27.45 -62.5 30.8 -58.0 27.45 -62.5 22.0 -64.25 17.4 -65.8 13.35 -68.15 M30.35 66.75 L31.25 58.25 Q32.0 49.55 32.05 40.95 L31.9 24.85 31.5 11.05 30.9 -6.45 30.35 -22.55 30.9 -6.45 31.5 11.05 31.9 24.85 32.05 40.95 Q32.0 49.55 31.25 58.25 L30.35 66.75 M37.25 -19.8 L37.95 -3.7 38.45 9.45 Q38.6 15.65 39.2 21.65 L39.8 29.2 40.6 46.2 Q40.85 53.35 39.55 60.3 40.85 53.35 40.6 46.2 L39.8 29.2 39.2 21.65 Q38.6 15.65 38.45 9.45 L37.95 -3.7 37.25 -19.8 M31.3 71.35 L31.15 71.05 31.8 68.0 Q34.25 59.55 34.9 50.6 35.4 43.25 34.65 35.85 33.95 29.2 34.3 22.35 L34.8 14.9 Q35.4 7.0 34.75 -0.9 L33.6 -13.8 34.75 -0.9 Q35.4 7.0 34.8 14.9 L34.3 22.35 Q33.95 29.2 34.65 35.85 35.4 43.25 34.9 50.6 34.25 59.55 31.8 68.0 L31.15 71.05 31.3 71.35 M18.85 -17.05 Q19.2 -12.75 20.5 -8.6 21.75 -4.55 22.25 -0.45 L23.45 10.65 24.75 23.0 25.9 35.9 Q26.5 44.1 25.85 52.45 25.25 60.4 23.0 68.1 25.25 60.4 25.85 52.45 26.5 44.1 25.9 35.9 L24.75 23.0 23.45 10.65 22.25 -0.45 Q21.75 -4.55 20.5 -8.6 19.2 -12.75 18.85 -17.05 M36.8 59.35 Q37.9 53.0 37.7 46.5 L37.3 30.85 36.65 13.35 35.75 -2.75 34.95 -17.05 35.75 -2.75 36.65 13.35 37.3 30.85 37.7 46.5 Q37.9 53.0 36.8 59.35 M17.95 -45.1 Q20.85 -40.35 22.6 -35.0 25.0 -27.85 24.85 -20.25 25.0 -27.85 22.6 -35.0 20.85 -40.35 17.95 -45.1 M18.4 -33.15 L22.05 -23.95 18.4 -33.15 M45.1 -14.75 L45.1 -18.9 Q44.9 -25.7 42.8 -32.2 44.9 -25.7 45.1 -18.9 L45.1 -14.75 M42.8 62.15 Q44.25 57.55 44.35 52.55 44.5 44.25 43.85 35.9 L43.2 27.85 42.35 15.2 41.15 -1.85 40.45 -12.5 Q40.1 -19.2 38.65 -25.8 40.1 -19.2 40.45 -12.5 L41.15 -1.85 42.35 15.2 43.2 27.85 43.85 35.9 Q44.5 44.25 44.35 52.55 44.25 57.55 42.8 62.15 M36.35 -49.7 L41.85 -37.3 36.35 -49.7 M0.0 -57.1 L10.55 -33.6 0.0 -57.1 M26.65 63.05 L27.3 54.35 28.15 36.8 28.35 26.6 Q28.35 23.25 28.0 19.95 27.25 12.5 26.8 5.15 26.2 -3.7 24.85 -12.45 26.2 -3.7 26.8 5.15 27.25 12.5 28.0 19.95 28.35 23.25 28.35 26.6 L28.15 36.8 27.3 54.35 26.65 63.05 M19.3 72.7 Q21.2 68.25 21.5 63.5 21.65 60.55 22.2 57.55 23.85 49.05 23.6 40.5 L22.9 23.45 Q22.45 15.35 21.15 7.35 22.45 15.35 22.9 23.45 L23.6 40.5 Q23.85 49.05 22.2 57.55 21.65 60.55 21.5 63.5 21.2 68.25 19.3 72.7 M44.15 13.35 Q44.55 7.0 43.8 0.6 L42.3 -13.8 43.8 0.6 Q44.55 7.0 44.15 13.35 M26.8 69.65 L26.6 70.15 26.8 69.65 M-38.7 -51.55 Q-36.25 -57.6 -30.55 -61.0 L-27.25 -63.2 Q-20.3 -68.3 -12.0 -69.85 L-7.55 -70.5 -3.65 -71.1 -2.55 -70.95 Q-1.15 -69.65 -0.5 -67.65 -1.15 -69.65 -2.55 -70.95 L-3.65 -71.1 -7.55 -70.5 -12.0 -69.85 Q-20.3 -68.3 -27.25 -63.2 L-30.55 -61.0 Q-36.25 -57.6 -38.7 -51.55 M-35.15 -40.6 L-30.15 -45.8 -19.2 -56.45 Q-15.0 -60.35 -10.6 -64.0 -15.0 -60.35 -19.2 -56.45 L-30.15 -45.8 -35.15 -40.6 -42.35 -28.55 -35.15 -40.6 -44.2 -28.55 -35.15 -40.6 M-43.3 -17.05 Q-42.7 -23.15 -39.3 -28.25 -35.15 -34.5 -30.0 -40.05 L-18.2 -52.75 Q-14.55 -56.65 -11.55 -61.2 -14.55 -56.65 -18.2 -52.75 L-30.0 -40.05 Q-35.15 -34.5 -39.3 -28.25 -42.7 -23.15 -43.3 -17.05 M-33.6 -48.8 L-28.25 -54.05 Q-19.55 -62.6 -8.65 -67.95 L-5.1 -65.35 -8.65 -67.95 Q-19.55 -62.6 -28.25 -54.05 L-33.6 -48.8 M-2.8 -69.95 L-0.95 -65.8 -2.8 -69.95 M-36.85 -43.25 L-35.05 -45.65 Q-30.7 -51.4 -25.35 -56.15 -30.7 -51.4 -35.05 -45.65 L-36.85 -43.25 M-28.55 -39.15 L-20.3 -48.35 -28.55 -39.15 M-37.3 -27.6 L-32.25 -34.5 -37.3 -27.6 M-45.6 -28.1 L-44.8 -32.05 Q-42.9 -40.3 -39.15 -47.85 -42.9 -40.3 -44.8 -32.05 L-45.6 -28.1 M-40.55 -13.45 L-37.95 -20.4 -40.55 -13.45 M-43.75 -35.0 L-40.05 -40.05 -43.75 -35.0 M-33.45 58.45 Q-34.85 49.95 -34.75 41.4 L-34.4 23.95 -33.65 9.6 -34.4 23.95 -34.75 41.4 Q-34.85 49.95 -33.45 58.45 L-34.0 52.95 Q-34.9 44.05 -34.1 35.0 -34.9 44.05 -34.0 52.95 L-33.45 58.45 Q-32.8 64.2 -31.0 69.55 L-29.95 72.7 -31.0 69.55 Q-32.8 64.2 -33.45 58.45 M-29.0 71.8 L-30.2 59.85 Q-30.95 51.55 -30.9 43.25 L-30.85 28.05 -30.9 43.25 Q-30.95 51.55 -30.2 59.85 L-29.0 71.8 M-37.3 58.45 Q-38.5 56.9 -38.6 55.2 L-38.9 46.95 Q-39.05 39.7 -38.85 32.5 L-38.25 17.5 -38.85 32.5 Q-39.05 39.7 -38.9 46.95 L-38.6 55.2 Q-38.5 56.9 -37.3 58.45 M-43.3 -2.3 L-43.3 13.8 -43.55 26.7 -44.05 40.05 Q-44.4 48.55 -41.9 56.6 -44.4 48.55 -44.05 40.05 L-43.55 26.7 -43.3 13.8 -43.3 -2.3 M-40.05 55.7 L-40.6 40.05 -40.7 25.8 -40.4 8.75 Q-40.3 1.15 -39.6 -6.45 -40.3 1.15 -40.4 8.75 L-40.7 25.8 -40.6 40.05 -40.05 55.7 M-43.75 7.8 L-44.2 -13.35 -43.75 7.8 M-0.95 -62.15 L0.9 -63.5 -0.95 -62.15 M-3.7 -58.9 L1.8 -61.2 -3.7 -58.9" fill="url(#gradient1)" fill-rule="evenodd" stroke="none"/>
      <path d="M-38.25 71.7 Q-41.15 64.4 -42.3 56.45 L-43.15 63.05 Q-44.55 59.2 -45.25 55.15 -46.7 47.05 -46.8 39.1 L-47.1 24.9 Q-47.35 18.5 -47.1 13.3 -46.9 8.1 -47.75 2.6 -48.65 -2.9 -48.95 -9.9 -49.25 -16.9 -48.1 -25.15 -47.0 -33.4 -44.4 -41.15 -41.55 -49.7 -37.1 -57.5 -35.45 -60.45 -32.8 -62.1 L-28.55 -64.55 -23.9 -67.05 Q-21.4 -68.45 -18.65 -69.35 -10.4 -72.15 -2.0 -73.85 -1.1 -74.0 -0.3 -73.45 2.3 -71.45 2.8 -68.1 5.8 -70.0 9.05 -71.25 L10.3 -71.3 Q17.9 -68.6 24.9 -65.05 30.55 -62.2 35.35 -58.1 36.75 -56.9 37.75 -55.25 42.25 -47.5 45.0 -39.0 L47.4 -31.4 Q49.55 -24.55 49.25 -17.2 L48.75 -2.85 48.25 14.0 Q47.95 22.7 48.7 31.45 49.3 38.5 50.25 45.35 51.4 53.85 48.05 61.9 44.7 70.1 38.0 75.6 L35.4 77.7 38.8 65.65 Q35.95 74.4 29.2 80.7 L25.0 84.9 23.0 86.6 23.9 84.5 Q25.95 78.8 26.45 72.7 L26.6 70.15 Q23.1 77.5 17.7 83.55 L15.15 86.5 13.8 87.75 14.45 85.75 17.1 69.35 19.15 55.25 Q19.6 52.0 19.65 48.7 L19.55 39.05 18.95 25.25 Q18.65 18.75 17.9 12.25 L16.3 -3.2 Q15.65 -10.35 14.55 -17.15 L13.8 -19.85 13.5 -8.05 10.2 -17.25 Q7.35 -25.6 5.25 -34.25 4.3 -38.2 2.65 -41.8 L-2.25 -52.7 Q-2.95 -54.35 -4.2 -55.5 L-5.05 -56.4 M-5.7 -55.9 Q-8.1 -51.45 -12.0 -48.25 L-20.1 -41.5 -31.7 -30.75 Q-34.8 -27.65 -36.7 -23.55 L-36.6 -19.85 -36.95 -8.2 Q-36.9 0.75 -33.75 9.25 M-33.65 9.6 Q-29.55 20.95 -24.1 31.6 -22.2 35.2 -18.15 34.8 L-17.75 35.2 -18.95 43.7 Q-19.05 44.45 -19.55 44.95 -22.7 47.75 -25.4 50.9 L-25.4 50.95 -26.7 77.4 -26.5 80.3 -29.25 77.4 -35.8 63.6 -36.25 63.35 -37.45 71.85 -37.65 73.05 -38.25 71.7 M3.45 -66.85 L4.0 -65.8 M2.8 -68.1 L3.45 -66.85 M26.6 70.15 L26.8 69.65 M-36.7 -23.55 L-37.95 -20.4 -40.55 -13.45 M-25.4 50.9 Q-24.85 43.9 -25.95 36.8 L-26.45 34.0 M-25.4 50.9 L-25.4 50.95" fill="none" stroke="#000000" stroke-linecap="round" stroke-linejoin="round" stroke-width="2.0"/>
      <path d="M22.05 -49.25 Q19.15 -53.9 14.3 -56.55 L11.5 -58.0 M30.8 -58.0 Q27.45 -62.5 22.0 -64.25 17.4 -65.8 13.35 -68.15 M35.4 -32.7 L30.8 -42.35 M38.65 -30.4 Q37.45 -38.9 32.7 -46.1 L30.35 -49.7 M28.5 -28.55 L25.3 -38.65 M33.1 -26.7 Q31.1 -34.9 27.05 -42.3 L23.2 -49.1 22.55 -50.15 M40.0 -37.75 Q38.1 -40.45 36.9 -43.7 36.5 -44.9 35.4 -45.55 M20.7 -17.95 Q19.15 -24.95 16.4 -31.6 L12.85 -39.6 M10.55 -31.75 Q12.3 -29.35 13.0 -26.2 L13.35 -24.4 M33.6 -13.8 L34.75 -0.9 Q35.4 7.0 34.8 14.9 L34.3 22.35 Q33.95 29.2 34.65 35.85 35.4 43.25 34.9 50.6 34.25 59.55 31.8 68.0 L31.15 71.05 31.3 71.35 M39.55 60.3 Q40.85 53.35 40.6 46.2 L39.8 29.2 39.2 21.65 Q38.6 15.65 38.45 9.45 L37.95 -3.7 37.25 -19.8 M22.05 -23.95 L18.4 -33.15 M24.85 -20.25 Q25.0 -27.85 22.6 -35.0 20.85 -40.35 17.95 -45.1 M41.85 -37.3 L36.35 -49.7 M42.3 -13.8 L43.8 0.6 Q44.55 7.0 44.15 13.35 M21.15 7.35 Q22.45 15.35 22.9 23.45 L23.6 40.5 Q23.85 49.05 22.2 57.55 21.65 60.55 21.5 63.5 21.2 68.25 19.3 72.7 M24.85 -12.45 Q26.2 -3.7 26.8 5.15 27.25 12.5 28.0 19.95 28.35 23.25 28.35 26.6 L28.15 36.8 27.3 54.35 26.65 63.05 M-0.5 -67.65 Q-1.15 -69.65 -2.55 -70.95 L-3.65 -71.1 -7.55 -70.5 -12.0 -69.85 Q-20.3 -68.3 -27.25 -63.2 L-30.55 -61.0 Q-36.25 -57.6 -38.7 -51.55 M-35.15 -40.6 L-42.35 -28.55 M-39.15 -47.85 Q-42.9 -40.3 -44.8 -32.05 L-45.6 -28.1 M-32.25 -34.5 L-37.3 -27.6 M-20.3 -48.35 L-28.55 -39.15 M-25.35 -56.15 Q-30.7 -51.4 -35.05 -45.65 L-36.85 -43.25 M-40.05 -40.05 L-43.75 -35.0 M-33.45 58.45 L-34.0 52.95 Q-34.9 44.05 -34.1 35.0 M-38.25 17.5 L-38.85 32.5 Q-39.05 39.7 -38.9 46.95 L-38.6 55.2 Q-38.5 56.9 -37.3 58.45 M-41.9 56.6 Q-44.4 48.55 -44.05 40.05 L-43.55 26.7 -43.3 13.8 -43.3 -2.3 M-33.45 58.45 Q-32.8 64.2 -31.0 69.55 L-29.95 72.7" fill="none" stroke="#c68e8e" stroke-linecap="round" stroke-linejoin="round" stroke-width="1.5"/>
      <path d="M-33.75 9.25 L-33.65 9.6 -34.4 23.95 -34.75 41.4 Q-34.85 49.95 -33.45 58.45 M18.85 -57.1 Q13.1 -61.05 6.9 -64.5 6.5 -64.75 5.85 -64.5 L4.1 -63.5 M14.7 -41.9 Q12.9 -43.55 12.3 -46.25 11.1 -51.55 7.8 -55.65 5.85 -58.05 2.75 -58.9 M22.05 -58.9 Q18.55 -62.95 14.3 -65.95 11.5 -67.95 8.25 -68.6 M33.1 -52.5 L26.2 -59.85 M30.35 -22.55 L30.9 -6.45 31.5 11.05 31.9 24.85 32.05 40.95 Q32.0 49.55 31.25 58.25 L30.35 66.75 M34.95 -17.05 L35.75 -2.75 36.65 13.35 37.3 30.85 37.7 46.5 Q37.9 53.0 36.8 59.35 M23.0 68.1 Q25.25 60.4 25.85 52.45 26.5 44.1 25.9 35.9 L24.75 23.0 23.45 10.65 22.25 -0.45 Q21.75 -4.55 20.5 -8.6 19.2 -12.75 18.85 -17.05 M38.65 -25.8 Q40.1 -19.2 40.45 -12.5 L41.15 -1.85 42.35 15.2 43.2 27.85 43.85 35.9 Q44.5 44.25 44.35 52.55 44.25 57.55 42.8 62.15 M42.8 -32.2 Q44.9 -25.7 45.1 -18.9 L45.1 -14.75 M10.55 -33.6 L0.0 -57.1 M-0.95 -65.8 L-2.8 -69.95 M-5.1 -65.35 L-8.65 -67.95 Q-19.55 -62.6 -28.25 -54.05 L-33.6 -48.8 M-11.55 -61.2 Q-14.55 -56.65 -18.2 -52.75 L-30.0 -40.05 Q-35.15 -34.5 -39.3 -28.25 -42.7 -23.15 -43.3 -17.05 M-10.6 -64.0 Q-15.0 -60.35 -19.2 -56.45 L-30.15 -45.8 -35.15 -40.6 -44.2 -28.55 M-30.85 28.05 L-30.9 43.25 Q-30.95 51.55 -30.2 59.85 L-29.0 71.8 M-39.6 -6.45 Q-40.3 1.15 -40.4 8.75 L-40.7 25.8 -40.6 40.05 -40.05 55.7 M-44.2 -13.35 L-43.75 7.8" fill="none" stroke="#442222" stroke-linecap="round" stroke-linejoin="round" stroke-width="1.5"/>
      <path d="M3.45 -66.85 L0.45 -65.35 M3.45 -66.85 L4.6 -67.2 M1.8 -61.2 L-3.7 -58.9 M0.9 -63.5 L-0.95 -62.15" fill="none" stroke="#170d0d" stroke-linecap="round" stroke-linejoin="round" stroke-width="1.5"/>
    </g>
    </g>
  </g>
  <defs>
    <radialGradient cx="0" cy="0" gradientTransform="matrix(0.0013, 0.1459, -0.1785, 0.0016, -4.0, -50.25)" gradientUnits="userSpaceOnUse" id="gradient0" r="819.2" spreadMethod="pad">
      <stop offset="0.0" stop-color="#6c4948"/>
      <stop offset="0.1803921568627451" stop-color="#a06a63"/>
      <stop offset="0.23137254901960785" stop-color="#c49a95"/>
      <stop offset="0.3176470588235294" stop-color="#ecc6aa"/>
      <stop offset="0.49411764705882355" stop-color="#b1684e"/>
      <stop offset="0.8941176470588236" stop-color="#936045"/>
      <stop offset="1.0" stop-color="#654332"/>
    </radialGradient>
    <radialGradient cx="0" cy="0" gradientTransform="matrix(0.0011, 0.109, -0.1867, 0.0018, -4.5, -54.5)" gradientUnits="userSpaceOnUse" id="gradient1" r="819.2" spreadMethod="pad">
      <stop offset="0.0" stop-color="#5c2e2e"/>
      <stop offset="0.23137254901960785" stop-color="#9c5050"/>
      <stop offset="0.3176470588235294" stop-color="#c18686"/>
      <stop offset="0.38823529411764707" stop-color="#a55454"/>
      <stop offset="1.0" stop-color="#5c2e2e"/>
    </radialGradient>
  </defs>
</svg>