<svg xmlns:xlink="http://www.w3.org/1999/xlink" xmlns="http://www.w3.org/2000/svg" height="98.75px" width="161.15px">
  <g transform="matrix(1.0, 0.0, 0.0, 1.0, 83.0, 71.7)">
    <g data-characterId="1272" height="37.45" transform="matrix(1.0, 0.0, 0.0, 1.0, -54.6, -22.5)" width="121.75" xlink:href="#shape0"><g id="shape0" transform="matrix(1.0, 0.0, 0.0, 1.0, 54.6, 22.5)">
      <path d="M24.0 -14.0 L23.5 -13.5 Q22.65 -12.85 21.6 -12.3 L20.4 -11.65 Q19.75 -11.25 19.0 -11.0 14.1 -9.2 9.0 -7.95 L-0.55 -5.75 Q-5.35 -4.65 -7.5 0.0 -5.35 -4.65 -0.55 -5.75 L9.0 -7.95 Q14.1 -9.2 19.0 -11.0 19.75 -11.25 20.4 -11.65 L21.6 -12.3 Q22.65 -12.85 23.5 -13.5 L24.0 -14.0 M45.05 -10.65 Q52.95 -7.65 62.3 -2.95 74.9 3.3 51.0 10.6 L42.75 12.7 42.55 10.95 Q42.7 0.0 45.05 -10.65 M-4.45 10.95 L-10.1 10.75 -21.05 11.5 Q-30.6 4.8 -34.85 -6.3 L-36.3 -10.1 Q-25.95 -15.3 -21.55 -20.5 L-18.5 -19.3 Q-6.65 -14.3 3.05 -15.05 12.6 -15.8 24.0 -22.5 L24.5 -22.0 24.5 -19.5 Q24.65 -17.9 27.55 -16.75 L33.8 -14.55 Q32.65 -12.75 31.3 -11.1 17.35 5.9 -4.45 10.95 M-44.75 10.5 Q-51.75 8.7 -53.75 4.25 -55.9 -0.65 -44.45 -6.25 -45.9 0.0 -45.2 6.7 L-44.75 10.5 M-27.9 -13.6 Q-26.05 -10.9 -26.5 -7.5 -26.05 -10.9 -27.9 -13.6" fill="#ecc59d" fill-rule="evenodd" stroke="none"/>
      <path d="M33.8 -14.55 L34.65 -16.2 Q40.15 -15.2 46.05 -12.9 L45.05 -10.65 Q42.7 0.0 42.55 10.95 L42.75 12.7 38.8 13.5 Q17.0 16.3 -4.45 10.95 17.35 5.9 31.3 -11.1 32.65 -12.75 33.8 -14.55 M-21.05 11.5 L-25.15 11.75 Q-35.0 12.45 -44.75 10.5 L-45.2 6.7 Q-45.9 0.0 -44.45 -6.25 L-43.6 -10.95 -37.85 -13.1 -36.3 -10.1 -34.85 -6.3 Q-30.6 4.8 -21.05 11.5" fill="url(#gradient0)" fill-rule="evenodd" stroke="none"/>
      <path d="M-7.5 0.0 Q-5.35 -4.65 -0.55 -5.75 L9.0 -7.95 Q14.1 -9.2 19.0 -11.0 19.75 -11.25 20.4 -11.65 L21.6 -12.3 Q22.65 -12.85 23.5 -13.5 L24.0 -14.0 M-26.5 -7.5 Q-26.05 -10.9 -27.9 -13.6" fill="none" stroke="#b9a882" stroke-linecap="round" stroke-linejoin="round" stroke-width="2.0"/>
      <path d="M33.8 -14.55 L34.65 -16.2 Q40.15 -15.2 46.05 -12.9 L45.05 -10.65 Q52.95 -7.65 62.3 -2.95 74.9 3.3 51.0 10.6 L42.75 12.7 38.8 13.5 Q17.0 16.3 -4.45 10.95 L-10.1 10.75 -21.05 11.5 -25.15 11.75 Q-35.0 12.45 -44.75 10.5 -51.75 8.7 -53.75 4.25 -55.9 -0.65 -44.45 -6.25 L-43.6 -10.95 -37.85 -13.1 -36.3 -10.1 Q-25.95 -15.3 -21.55 -20.5 M24.5 -22.0 L24.5 -19.5 Q24.65 -17.9 27.55 -16.75 L33.8 -14.55 Q32.65 -12.75 31.3 -11.1 17.35 5.9 -4.45 10.95 M-21.05 11.5 Q-30.6 4.8 -34.85 -6.3 L-36.3 -10.1 M-44.45 -6.25 Q-45.9 0.0 -45.2 6.7 L-44.75 10.5 M45.05 -10.65 Q42.7 0.0 42.55 10.95 L42.75 12.7" fill="none" stroke="#000000" stroke-linecap="round" stroke-linejoin="round" stroke-width="2.0"/>
    </g>
    </g>
  </g>
  <defs>
    <radialGradient cx="0" cy="0" gradientTransform="matrix(0.0452, -0.0121, 0.0102, 0.0558, -1.35, 5.05)" gradientUnits="userSpaceOnUse" id="gradient0" r="819.2" spreadMethod="pad">
      <stop offset="0.0" stop-color="#ffffff"/>
      <stop offset="0.5215686274509804" stop-color="#d3cbc5"/>
      <stop offset="1.0" stop-color="#746558"/>
    </radialGradient>
  </defs>
</svg>