<svg xmlns:xlink="http://www.w3.org/1999/xlink" xmlns="http://www.w3.org/2000/svg" height="16.65px" width="27.9px">
  <g transform="matrix(1.0, 0.0, 0.0, 1.0, 11.2, 8.0)">
    <g data-characterId="1322" height="8.25" transform="matrix(1.0, 0.0, 0.0, 1.0, -10.0, -3.0)" width="13.45" xlink:href="#shape0"><g id="shape0" transform="matrix(1.0, 0.0, 0.0, 1.0, 10.0, 3.0)">
      <path d="M-10.0 -0.7 L-9.95 -0.9 -9.85 -1.05 -9.8 -1.1 -10.0 -0.7 M2.15 -0.45 L2.25 -0.25 2.25 -0.2 2.15 -0.45" fill="#e6b380" fill-rule="evenodd" stroke="none"/>
      <path d="M2.1 0.45 L2.3 0.75 2.35 0.95 Q0.0 5.65 -5.55 4.35 -7.25 3.95 -8.2 2.45 L-9.05 1.15 -9.25 0.2 -9.25 -0.15 -9.0 -0.4 -8.85 -0.45 -8.35 -0.05 -7.85 0.75 -7.8 0.85 -2.7 0.55 -1.3 0.95 -0.3 1.4 0.5 1.25 0.55 1.25 1.45 0.25 2.05 0.4 2.1 0.45 M-2.25 2.9 L-2.25 2.8 -2.35 2.6 -2.45 2.45 -2.6 2.35 -5.5 2.25 -5.55 2.2 Q-6.0 1.9 -6.5 1.75 L-6.7 1.8 -6.8 1.85 -6.9 1.95 -7.0 2.1 -7.0 2.3 -6.85 2.55 -6.0 3.35 Q-4.2 3.7 -2.45 3.35 L-2.35 3.25 -2.25 3.1 -2.25 2.9" fill="#4f5c66" fill-rule="evenodd" stroke="none"/>
      <path d="M2.25 -0.2 L2.25 -0.15 2.3 -0.1 2.3 -0.05 2.1 0.45 2.05 0.4 1.45 0.25 0.55 1.25 0.1 1.2 -1.3 0.95 -2.7 0.55 -3.5 -0.05 -7.65 0.3 Q-8.0 0.3 -8.0 -0.1 L-8.35 -0.05 -8.85 -0.45 -9.0 -0.4 -9.25 -0.15 -10.0 -0.7 -9.8 -1.1 Q-7.65 -1.25 -5.85 -2.7 -5.5 -3.0 -5.1 -2.7 L-4.85 -2.45 -4.75 -2.25 Q-3.8 -2.3 -3.0 -3.0 L-2.5 -2.9 -2.35 -2.85 -2.15 -2.55 -2.05 -2.35 Q-0.25 -0.8 2.15 -0.45 L2.25 -0.2" fill="#3a4549" fill-rule="evenodd" stroke="none"/>
      <path d="M-2.25 2.9 L-2.25 3.1 -2.35 3.25 -2.45 3.35 Q-4.2 3.7 -6.0 3.35 L-6.85 2.55 -7.0 2.3 -7.0 2.1 -6.9 1.95 -6.8 1.85 -6.7 1.8 -6.5 1.75 Q-6.0 1.9 -5.55 2.2 L-5.5 2.25 -2.6 2.35 -2.45 2.45 -2.35 2.6 -2.25 2.8 -2.25 2.9" fill="#8d9ca7" fill-rule="evenodd" stroke="none"/>
      <path d="M2.95 -0.4 L0.8 1.0 -2.3 0.95 -3.35 0.0 -5.95 0.25 -6.4 0.7 -8.5 0.3 -9.4 -0.35" fill="none" stroke="#000000" stroke-linecap="round" stroke-linejoin="round" stroke-width="2.0"/>
      <path d="M-6.0 4.5 L-4.6 4.7 -3.6 4.55 -2.85 4.4" fill="none" stroke="#3a4549" stroke-linecap="round" stroke-linejoin="round" stroke-width="2.0"/>
    </g>
  </g>
  </g>
  <defs>
    </defs>
</svg>