<svg xmlns:xlink="http://www.w3.org/1999/xlink" xmlns="http://www.w3.org/2000/svg" height="8.55px" width="47.55px">
  <g transform="matrix(1.0, 0.0, 0.0, 1.0, 37.35, 14.45)">
    <path d="M9.6 -8.45 Q8.9 -6.3 5.7 -6.05 2.45 -5.8 -0.2 -6.75 -2.9 -7.7 -5.8 -6.75 -8.65 -5.85 -9.6 -6.3 -10.55 -6.75 -11.05 -7.85 -11.6 -9.0 -12.35 -8.95 L-12.35 -10.1 Q-6.55 -15.0 1.5 -14.4 6.9 -14.25 10.2 -10.65 L9.6 -8.45 M-30.85 -6.75 L-30.9 -6.75 -31.95 -6.7 Q-32.75 -6.8 -33.35 -7.3 L-33.9 -7.0 -34.0 -6.95 Q-34.6 -6.85 -35.15 -7.25 -38.85 -10.05 -36.3 -10.65 L-32.55 -11.1 -29.2 -10.7 Q-27.1 -10.5 -26.35 -8.55 L-25.65 -6.55 -25.8 -6.25 -26.2 -5.9 Q-28.65 -5.85 -30.65 -6.9 L-30.85 -6.75" fill="#e6b380" fill-rule="evenodd" stroke="none"/>
  </g>
</svg>