<svg xmlns:xlink="http://www.w3.org/1999/xlink" xmlns="http://www.w3.org/2000/svg" height="202.2px" width="161.9px">
  <g transform="matrix(1.0, 0.0, 0.0, 1.0, 74.15, 81.7)">
    <g data-characterId="1442" height="150.2" transform="matrix(1.0, 0.0, 0.0, 1.0, -51.05, -73.7)" width="100.35" xlink:href="#shape0"><g id="shape0" transform="matrix(1.0, 0.0, 0.0, 1.0, 51.05, 73.7)">
      <path d="M-22.5 -45.0 Q-23.6 -44.6 -21.5 -44.5 -21.0 -44.5 -20.45 -44.05 -18.0 -42.1 -17.4 -38.0 L-17.05 -34.0 Q-16.75 -24.75 -16.75 -15.5 -16.75 -5.3 -11.1 3.1 L-9.95 4.95 -9.5 5.5 Q-9.75 3.55 -10.8 1.85 L-11.2 1.1 Q-11.85 -0.5 -11.65 -2.5 -11.55 -3.6 -11.8 -4.55 L-11.95 -6.5 -11.55 -12.0 Q-10.85 -18.4 -10.75 -25.0 L-10.5 -27.5 Q-9.85 -31.0 -8.7 -33.55 L-8.75 -32.5 -8.75 -31.0 Q-8.7 -23.45 -8.1 -16.0 -7.5 -7.6 -5.1 0.55 -1.65 12.4 5.6 22.4 6.85 24.1 7.5 25.5 L6.8 23.6 6.2 22.4 Q3.75 17.65 2.9 12.5 L-0.25 -6.05 Q-1.2 -11.4 -1.25 -17.0 -1.25 -17.75 -1.4 -18.5 -1.85 -20.4 -1.35 -22.1 -1.0 -23.25 -0.95 -24.5 -0.65 -29.4 0.8 -34.05 L1.0 -35.5 Q2.15 -35.8 1.3 -33.4 L0.95 -31.5 Q0.55 -21.55 2.4 -12.0 3.3 -7.55 3.45 -3.0 3.5 -1.0 4.0 1.0 5.4 6.7 7.9 12.05 L11.2 19.4 Q13.85 25.45 16.9 31.3 L18.35 33.6 21.55 37.95 Q25.3 43.2 30.5 46.0" fill="none" stroke="#000000" stroke-linecap="round" stroke-linejoin="round" stroke-width="2.0"/>
      <path d="M1.5 -68.5 Q3.05 -70.1 5.55 -69.8 L6.5 -69.95 Q8.9 -70.95 10.65 -70.4 L11.5 -70.3 15.0 -70.65 16.5 -70.9 Q19.85 -71.55 22.15 -69.15 L24.45 -66.95 Q28.4 -63.4 31.35 -58.9 32.2 -57.65 33.35 -56.8 35.5 -55.25 36.4 -53.15 36.75 -52.25 37.35 -51.4 39.95 -47.85 41.1 -43.55 L41.85 -39.5 42.15 -37.0 42.4 -35.5 Q43.3 -30.6 43.15 -25.5 43.05 -19.8 41.7 -14.45 L41.45 -13.0 41.1 -6.0 Q40.45 3.75 42.3 13.05 L42.65 15.0 Q43.3 19.55 44.8 24.05 47.85 33.25 48.4 43.0 L48.65 46.0 Q49.25 51.25 47.6 56.55 L46.95 59.0 Q46.05 62.9 44.2 66.6 L43.45 68.5 Q42.2 72.55 39.5 76.0 41.2 73.55 41.15 70.5 L41.2 67.0 41.15 64.5 40.75 59.5 Q40.2 53.1 37.5 47.5 36.45 57.25 31.55 66.05 28.8 71.0 25.0 75.0 26.95 69.45 26.9 63.5 26.8 57.8 25.15 52.45 L24.45 50.0 23.0 45.0 Q21.5 47.6 20.0 51.5 19.3 53.4 18.15 55.1 L17.75 55.9 17.5 56.5 M20.5 3.0 Q20.1 3.4 20.05 4.0 L20.05 4.8 Q20.2 5.55 20.85 6.6 22.45 9.1 23.35 11.9 L24.35 14.55 Q26.5 19.35 29.0 24.0 30.2 26.3 32.25 27.85 L35.05 30.45 37.15 32.85 38.0 33.5 Q38.55 33.2 37.25 31.8 36.5 31.0 36.15 29.95 33.95 23.9 33.4 17.5 L31.7 1.0 Q31.5 -1.0 31.6 -3.0 32.25 -19.1 27.5 -34.5 M30.0 45.0 Q31.25 45.75 30.85 45.25 L29.8 43.6 28.6 41.45 Q27.2 39.15 26.65 36.55 L26.25 34.95 24.7 29.45 24.5 27.5 24.2 25.9 23.85 25.05 Q22.75 21.1 22.0 17.0 L20.85 11.05 Q20.45 9.1 20.2 7.0 L20.05 4.8 M20.05 4.0 L20.0 2.5 M17.75 55.9 Q19.95 49.9 17.75 43.4 17.5 42.75 17.4 42.0 L17.15 40.5 Q16.75 36.9 16.0 33.5 L15.0 29.5 M-20.5 -51.5 L-20.5 -52.0 M1.0 -69.0 Q-0.15 -70.6 -2.2 -72.25 L-2.9 -72.7 Q-5.1 -73.7 -7.6 -72.75 L-9.0 -72.35 Q-12.1 -71.8 -15.1 -70.15 L-22.5 -65.95 -31.05 -60.6 Q-35.35 -57.7 -38.45 -53.95 -40.05 -52.1 -41.05 -50.0 -43.35 -45.25 -45.3 -39.95 -46.3 -37.3 -46.35 -34.5 L-46.3 -25.5 -46.15 -24.0 -45.3 -17.5 -45.1 -16.45 Q-44.1 -12.45 -43.9 -8.0 -43.55 -1.5 -45.5 4.5 L-48.7 14.95 Q-49.35 17.1 -49.3 19.5 -49.25 20.5 -49.45 21.5 -51.2 30.95 -50.15 40.5 L-49.85 43.0 Q-49.2 48.9 -45.75 53.65 -45.5 54.0 -45.5 54.5 -44.9 54.6 -45.2 53.4 L-45.5 51.0 -45.3 48.05 -45.0 47.5 Q-44.8 46.9 -44.15 48.9 L-43.1 51.05 Q-37.95 59.25 -29.9 64.35 L-28.5 65.0 Q-26.6 65.7 -24.9 66.85 L-23.5 67.5 -25.85 64.85 Q-34.0 56.05 -34.5 44.0 -29.0 52.5 -20.6 58.1 L-19.5 59.0 Q-19.7 57.35 -20.7 55.8 L-21.5 54.0 Q-22.4 50.4 -22.15 46.5 L-21.8 42.0 -21.7 41.0 Q-21.45 39.05 -20.7 37.4 L-20.4 36.5 -20.0 35.25 M-20.0 -54.5 Q-18.85 -57.8 -15.0 -58.6 -14.25 -58.75 -13.75 -59.25 L-12.95 -60.5 Q-11.95 -63.15 -9.0 -63.05 -7.5 -63.0 -6.05 -63.6 -4.5 -64.25 -3.0 -65.0 M-24.5 -44.5 Q-25.05 -42.3 -24.8 -40.0 L-24.65 -38.95 -24.5 -37.5 Q-26.1 -41.05 -28.15 -44.2 L-28.65 -45.45 -29.0 -46.5 Q-31.75 -43.9 -32.15 -39.5 L-32.3 -37.5 Q-32.4 -34.45 -31.9 -31.5 L-31.5 -29.5 Q-34.9 -33.1 -35.2 -38.0 L-35.25 -39.5 -35.25 -41.0 Q-35.15 -43.75 -34.0 -46.0 -35.6 -45.1 -36.1 -43.05 L-36.6 -42.1 Q-37.3 -41.2 -37.15 -40.0 -37.05 -38.9 -37.3 -37.95 L-37.6 -36.5 Q-37.9 -33.1 -36.75 -30.4 -36.5 -29.75 -36.5 -29.0 L-36.5 -26.5" fill="none" stroke="#000000" stroke-linecap="round" stroke-linejoin="round" stroke-width="2.0"/>
    </g>
  </g>
  </g>
  <defs>
    </defs>
</svg>