<svg xmlns:xlink="http://www.w3.org/1999/xlink" xmlns="http://www.w3.org/2000/svg" height="16.65px" width="27.9px">
  <g transform="matrix(1.0, 0.0, 0.0, 1.0, 11.2, 8.0)">
    <g data-characterId="1330" height="8.25" transform="matrix(1.0, 0.0, 0.0, 1.0, -10.3, -3.2)" width="17.75" xlink:href="#shape0"><g id="shape0" transform="matrix(1.0, 0.0, 0.0, 1.0, 10.3, 3.2)">
      <path d="M5.0 0.35 L5.0 0.45 Q3.75 1.9 1.65 2.75 -0.5 3.6 -2.75 3.95 -6.85 4.55 -9.75 1.75 -10.05 1.15 -10.0 0.55 L-10.0 0.25 -9.9 -0.15 -9.85 -0.2 -9.55 -0.5 -9.45 -0.55 -9.25 -0.6 -9.15 -0.6 -8.85 -0.35 -8.8 -0.25 0.85 0.05 4.8 0.2 Q4.9 0.2 5.0 0.35 M-2.2 2.95 L-2.05 2.75 -1.85 2.3 -1.9 2.1 -2.1 1.85 -2.9 1.7 -7.05 1.15 -7.15 0.95 -7.3 0.7 -7.45 0.6 -7.65 0.55 -8.1 0.8 -8.15 1.05 -8.2 1.35 -7.65 2.0 Q-5.15 3.35 -2.2 2.95" fill="#4f5c66" fill-rule="evenodd" stroke="none"/>
      <path d="M-9.55 -0.5 Q-10.2 -0.3 -9.9 -0.75 L-9.6 -1.35 -9.55 -1.45 Q-8.0 -2.85 -6.05 -2.75 L-5.95 -2.55 -5.9 -2.45 -5.85 -2.35 Q-4.05 -2.1 -2.5 -3.2 1.15 -1.15 5.5 -0.85 L5.6 -0.8 5.75 -0.2 5.55 0.25 5.0 0.35 Q4.9 0.2 4.8 0.2 L0.85 0.05 0.25 -0.15 -1.3 -0.4 -7.2 -0.65 -7.85 -0.55 -9.15 -0.6 -9.25 -0.6 -9.45 -0.55 -9.55 -0.5" fill="#3a4549" fill-rule="evenodd" stroke="none"/>
      <path d="M-2.2 2.95 Q-5.15 3.35 -7.65 2.0 L-8.2 1.35 -8.15 1.05 -8.1 0.8 -7.65 0.55 -7.45 0.6 -7.3 0.7 -7.15 0.95 -7.05 1.15 -2.9 1.7 -2.1 1.85 -1.9 2.1 -1.85 2.3 -2.05 2.75 -2.2 2.95" fill="#8d9ca7" fill-rule="evenodd" stroke="none"/>
      <path d="M-9.8 -0.35 L6.95 0.25" fill="none" stroke="#000000" stroke-linecap="round" stroke-linejoin="round" stroke-width="2.0"/>
      <path d="M-5.25 4.25 L-4.0 4.5 -3.0 4.4 -2.25 4.15" fill="none" stroke="#3a4549" stroke-linecap="round" stroke-linejoin="round" stroke-width="2.0"/>
    </g>
  </g>
  </g>
  <defs>
    </defs>
</svg>