<svg xmlns:xlink="http://www.w3.org/1999/xlink" xmlns="http://www.w3.org/2000/svg" height="105.4px" width="77.1px">
  <g transform="matrix(1.0, 0.0, 0.0, 1.0, 38.65, 52.6)">
    <g data-characterId="1282" height="105.4" transform="matrix(1.0, 0.0, 0.0, 1.0, -37.65, -52.6)" width="76.1" xlink:href="#shape0"><g id="shape0" transform="matrix(1.0, 0.0, 0.0, 1.0, 37.65, 52.6)">
      <path d="M0.3 -52.05 Q10.35 -51.35 18.85 -45.75 L25.25 -41.35 Q28.65 -38.9 31.15 -35.3 33.45 -32.0 34.85 -28.1 37.95 -19.4 37.95 -10.3 37.95 -1.15 34.75 7.35 L32.05 6.45 32.05 8.3 31.8 9.4 31.15 10.95 32.8 11.75 30.05 16.25 28.55 16.75 Q30.0 21.55 27.3 25.4 26.55 26.5 24.65 32.0 22.7 37.5 13.75 43.1 4.8 48.7 -1.05 51.0 -6.9 53.25 -13.85 51.65 -20.8 50.0 -22.6 47.9 -24.4 45.7 -27.8 40.4 -31.2 35.05 -34.25 27.2 -37.3 19.4 -37.15 12.9 -37.05 6.35 -36.8 4.8 -35.95 0.0 -35.9 -4.9 -35.85 -9.0 -36.6 -13.0 -37.5 -17.9 -36.8 -22.75 L-35.95 -26.1 Q-32.35 -35.4 -26.15 -43.05 -20.9 -49.4 -12.7 -50.95 -6.35 -52.25 0.3 -52.05 M26.45 -2.15 Q28.45 -3.0 29.1 -5.1 L29.4 -5.55 30.55 -5.6 31.25 -2.65 30.55 -5.6 29.4 -5.55 29.1 -5.1 Q28.45 -3.0 26.45 -2.15 M25.3 -6.25 Q25.95 -9.45 28.75 -10.85 L29.5 -11.25 Q34.15 -8.95 34.0 -3.3 34.15 -8.95 29.5 -11.25 L28.75 -10.85 Q25.95 -9.45 25.3 -6.25 M34.0 -3.3 L31.25 -2.65 31.45 -1.65 33.85 -1.2 33.9 -1.35 34.0 -3.3 M32.05 6.45 Q31.95 5.6 32.25 4.8 L32.35 4.45 Q33.5 1.7 33.85 -1.2 33.5 1.7 32.35 4.45 L32.25 4.8 Q31.95 5.6 32.05 6.45 M25.55 11.75 L26.25 12.25 27.4 12.9 Q29.95 12.85 31.15 10.95 29.95 12.85 27.4 12.9 L26.25 12.25 25.55 11.75 M-17.05 18.85 Q-16.45 18.85 -16.0 17.9 -15.55 16.95 -15.55 15.6 -15.55 16.95 -16.0 17.9 -16.45 18.85 -17.05 18.85 M-25.3 -7.8 Q-23.25 -5.7 -24.6 -0.45 -25.95 4.8 -25.8 7.55 L-28.4 14.35 Q-27.6 17.2 -26.3 18.0 L-20.8 18.35 -26.3 18.0 Q-27.6 17.2 -28.4 14.35 L-25.8 7.55 Q-25.95 4.8 -24.6 -0.45 -23.25 -5.7 -25.3 -7.8 M29.45 4.35 L29.45 1.35 29.45 4.35 M-3.0 45.85 L-4.0 46.2 -6.0 46.6 -11.65 46.95 -15.9 46.45 -17.7 46.0 Q-20.25 45.5 -21.3 44.2 -20.25 45.5 -17.7 46.0 L-15.9 46.45 -11.65 46.95 -6.0 46.6 -4.0 46.2 -3.0 45.85" fill="url(#gradient0)" fill-rule="evenodd" stroke="none"/>
      <path d="M34.75 7.4 L34.3 8.45 32.05 8.3 32.05 6.45 34.75 7.4 M31.25 -2.65 L34.0 -3.3 33.9 -1.35 33.85 -1.2 31.45 -1.65 31.25 -2.65" fill="url(#gradient1)" fill-rule="evenodd" stroke="none"/>
      <path d="M34.75 7.35 L34.75 7.4 32.05 6.45 34.75 7.35" fill="url(#gradient2)" fill-rule="evenodd" stroke="none"/>
      <path d="M34.3 8.45 L32.8 11.75 31.15 10.95 31.8 9.4 32.05 8.3 34.3 8.45" fill="url(#gradient3)" fill-rule="evenodd" stroke="none"/>
      <path d="M0.3 -52.05 Q10.35 -51.35 18.85 -45.75 L25.25 -41.35 Q28.65 -38.9 31.15 -35.3 33.45 -32.0 34.85 -28.1 37.95 -19.4 37.95 -10.3 37.95 -1.15 34.75 7.35 L34.75 7.4 34.3 8.45 32.8 11.75 30.05 16.25 28.55 16.75 M34.0 -3.3 Q34.15 -8.95 29.5 -11.25 L28.75 -10.85 Q25.95 -9.45 25.3 -6.25 M31.25 -2.65 L30.55 -5.6 29.4 -5.55 29.1 -5.1 Q28.45 -3.0 26.45 -2.15 M31.25 -2.65 L31.45 -1.65 M33.85 -1.2 L33.9 -1.35 34.0 -3.3 M33.85 -1.2 Q33.5 1.7 32.35 4.45 L32.25 4.8 Q31.95 5.6 32.05 6.45 L32.05 8.3 31.8 9.4 31.15 10.95 Q29.95 12.85 27.4 12.9 L26.25 12.25 25.55 11.75 M29.45 1.35 L29.45 4.35 M-20.8 18.35 L-26.3 18.0 Q-27.6 17.2 -28.4 14.35 L-25.8 7.55 Q-25.95 4.8 -24.6 -0.45 -23.25 -5.7 -25.3 -7.8 M-15.55 15.6 Q-15.55 16.95 -16.0 17.9 -16.45 18.85 -17.05 18.85" fill="none" stroke="#000000" stroke-linecap="round" stroke-linejoin="round" stroke-width="2.0"/>
      <path d="M-21.3 44.2 Q-20.25 45.5 -17.7 46.0 L-15.9 46.45 -11.65 46.95 -6.0 46.6 -4.0 46.2 -3.0 45.85" fill="none" stroke="#b9a882" stroke-linecap="round" stroke-linejoin="round" stroke-width="2.0"/>
      <path d="M28.55 16.75 Q30.0 21.55 27.3 25.4 26.55 26.5 24.65 32.0 22.7 37.5 13.75 43.1 4.8 48.7 -1.05 51.0 -6.9 53.25 -13.85 51.65 -20.8 50.0 -22.6 47.9 -24.4 45.7 -27.8 40.4 -31.2 35.05 -34.25 27.2 -37.3 19.4 -37.15 12.9 -37.05 6.35 -36.8 4.8 -35.95 0.0 -35.9 -4.9 -35.85 -9.0 -36.6 -13.0 -37.5 -17.9 -36.8 -22.75 L-35.95 -26.1 Q-32.35 -35.4 -26.15 -43.05 -20.9 -49.4 -12.7 -50.95 -6.35 -52.25 0.3 -52.05" fill="none" stroke="#000000" stroke-linecap="round" stroke-linejoin="round" stroke-width="2.0"/>
    </g>
    </g>
  </g>
  <defs>
    <radialGradient cx="0" cy="0" gradientTransform="matrix(0.0494, 0.0, 0.0, 0.0681, -16.0, 3.0)" gradientUnits="userSpaceOnUse" id="gradient0" r="819.2" spreadMethod="pad">
      <stop offset="0.0" stop-color="#f3d6c7"/>
      <stop offset="0.6274509803921569" stop-color="#ecc59d"/>
      <stop offset="1.0" stop-color="#e9bb8f"/>
    </radialGradient>
    <radialGradient cx="0" cy="0" gradientTransform="matrix(0.0494, 0.0, 0.0, 0.0681, -16.0, 3.0)" gradientUnits="userSpaceOnUse" id="gradient1" r="819.2" spreadMethod="pad">
      <stop offset="0.0" stop-color="#f1d3b8"/>
      <stop offset="0.6274509803921569" stop-color="#eecba8"/>
      <stop offset="1.0" stop-color="#e8b98a"/>
    </radialGradient>
    <radialGradient cx="0" cy="0" gradientTransform="matrix(0.0543, 0.0, 0.0, 0.0824, -20.0, -3.0)" gradientUnits="userSpaceOnUse" id="gradient2" r="819.2" spreadMethod="pad">
      <stop offset="0.0" stop-color="#f1d0b1"/>
      <stop offset="0.6274509803921569" stop-color="#ecc59d"/>
      <stop offset="1.0" stop-color="#e9bb8f"/>
    </radialGradient>
    <radialGradient cx="0" cy="0" gradientTransform="matrix(0.0027, 0.0, 0.0, 0.0027, 32.75, 10.0)" gradientUnits="userSpaceOnUse" id="gradient3" r="819.2" spreadMethod="pad">
      <stop offset="0.0" stop-color="#f1d3b8"/>
      <stop offset="0.6274509803921569" stop-color="#eecba8"/>
      <stop offset="1.0" stop-color="#e8b98a"/>
    </radialGradient>
  </defs>
</svg>