<svg xmlns:xlink="http://www.w3.org/1999/xlink" xmlns="http://www.w3.org/2000/svg" height="16.65px" width="27.9px">
  <g transform="matrix(1.0, 0.0, 0.0, 1.0, 11.2, 8.0)">
    <g data-characterId="1298" height="8.25" transform="matrix(1.0, 0.0, 0.0, 1.0, -10.3, -2.3)" width="19.3" xlink:href="#shape0"><g id="shape0" transform="matrix(1.0, 0.0, 0.0, 1.0, 10.3, 2.3)">
      <path d="M-9.5 0.4 Q-10.25 0.6 -9.9 0.15 L-9.6 -0.45 -9.5 -0.55 Q-7.85 -1.95 -5.7 -1.85 L-5.6 -1.65 -5.55 -1.55 -5.5 -1.45 Q-3.5 -1.2 -1.85 -2.3 2.15 -0.25 6.9 0.05 L7.0 0.1 7.2 0.7 6.95 1.15 6.35 1.25 Q6.25 1.1 6.15 1.1 L1.85 0.95 1.15 0.75 -0.5 0.5 -6.95 0.25 -7.65 0.35 -9.1 0.3 -9.2 0.3 -9.4 0.35 -9.5 0.4" fill="#d18a70" fill-rule="evenodd" stroke="none"/>
      <path d="M6.35 1.25 L6.35 1.35 Q5.0 2.8 2.7 3.65 0.35 4.5 -2.1 4.85 -6.6 5.45 -9.75 2.65 -10.05 2.05 -10.0 1.45 L-10.0 1.15 -9.9 0.75 -9.85 0.7 -9.5 0.4 -9.4 0.35 -9.2 0.3 -9.1 0.3 -8.75 0.55 -8.7 0.65 1.85 0.95 6.15 1.1 Q6.25 1.1 6.35 1.25 M-1.5 3.85 L-1.35 3.65 Q-1.1 3.5 -1.1 3.2 L-1.15 3.0 -1.4 2.75 -2.25 2.6 -6.8 2.05 -6.9 1.85 -7.05 1.6 -7.25 1.5 -7.45 1.45 Q-7.8 1.45 -7.95 1.7 L-8.0 1.95 -8.05 2.25 -7.45 2.9 Q-4.7 4.25 -1.5 3.85" fill="#dda991" fill-rule="evenodd" stroke="none"/>
      <path d="M-1.5 3.85 Q-4.7 4.25 -7.45 2.9 L-8.05 2.25 -8.0 1.95 -7.95 1.7 Q-7.8 1.45 -7.45 1.45 L-7.25 1.5 -7.05 1.6 -6.9 1.85 -6.8 2.05 -2.25 2.6 -1.4 2.75 -1.15 3.0 -1.1 3.2 Q-1.1 3.5 -1.35 3.65 L-1.5 3.85" fill="#e8c2b5" fill-rule="evenodd" stroke="none"/>
      <path d="M-9.8 0.55 L8.5 1.15" fill="none" stroke="#000000" stroke-linecap="round" stroke-linejoin="round" stroke-width="2.0"/>
      <path d="M-4.85 5.15 Q-4.25 5.55 -3.45 5.4 L-2.35 5.3 -1.55 5.05" fill="none" stroke="#aa7948" stroke-linecap="round" stroke-linejoin="round" stroke-width="2.0"/>
    </g>
  </g>
  </g>
  <defs>
    </defs>
</svg>