<svg xmlns:xlink="http://www.w3.org/1999/xlink" xmlns="http://www.w3.org/2000/svg" height="98.75px" width="161.15px">
  <g transform="matrix(1.0, 0.0, 0.0, 1.0, 83.0, 71.7)">
    <g data-characterId="1247" height="39.5" transform="matrix(1.0, 0.0, 0.0, 1.0, -55.05, -22.5)" width="122.7" xlink:href="#shape0"><g id="shape0" transform="matrix(1.0, 0.0, 0.0, 1.0, 55.05, 22.5)">
      <path d="M25.75 -11.75 Q23.05 -6.15 15.9 -4.1 L12.85 -3.15 Q3.75 -3.1 0.0 4.25 3.75 -3.1 12.85 -3.15 L15.9 -4.1 Q23.05 -6.15 25.75 -11.75 M-21.65 -18.75 Q-21.5 -16.9 -20.35 -14.8 -19.3 -12.85 -17.7 -11.15 -16.2 -9.55 -14.35 -8.25 -13.2 -7.45 -11.8 -7.1 -6.55 -5.25 -0.95 -5.85 L3.8 -6.35 8.15 -7.4 Q11.2 -8.35 14.2 -9.45 18.45 -10.95 22.3 -13.55 23.8 -14.6 24.75 -16.15 L28.5 -22.0 33.25 -17.55 32.6 -16.3 31.0 -11.55 Q26.1 2.35 18.3 15.0 L18.05 15.45 18.3 15.0 18.8 15.35 18.05 15.45 14.1 16.1 Q-5.55 17.35 -25.05 14.65 L-25.25 14.5 -25.6 8.7 Q-26.45 -3.05 -30.0 -14.2 L-22.65 -17.15 -21.65 -18.75 M33.25 -17.55 L32.6 -16.3 33.25 -17.55 M-22.25 -12.75 Q-21.7 -12.6 -21.65 -11.75 L-21.55 -11.45 -21.4 -11.1 -20.85 -10.5 -19.25 -9.0 Q-15.75 -5.75 -14.0 -1.5 -15.75 -5.75 -19.25 -9.0 L-20.85 -10.5 -21.4 -11.1 -21.55 -11.45 -21.65 -11.75 Q-21.7 -12.6 -22.25 -12.75" fill="#ecc59d" fill-rule="evenodd" stroke="none"/>
      <path d="M-30.0 -14.2 Q-26.45 -3.05 -25.6 8.7 L-25.25 14.5 -25.25 14.65 -39.9 12.7 -40.0 8.2 Q-40.2 -1.05 -41.6 -9.85 L-37.0 -12.65 -30.0 -14.2 M18.3 15.0 Q26.1 2.35 31.0 -11.55 L32.6 -16.3 33.25 -17.55 35.5 -18.75 50.95 -12.5 50.5 -12.0 Q42.2 -3.15 38.65 8.5 L37.8 11.4 38.05 12.3 37.15 12.5 37.8 11.4 37.15 12.5 18.8 15.35 18.3 15.0" fill="#666600" fill-rule="evenodd" stroke="none"/>
      <path d="M50.5 -12.0 L50.95 -12.5 Q59.4 -4.85 62.85 2.2 66.3 9.2 67.15 11.3 56.3 8.65 38.05 12.3 L37.8 11.4 38.65 8.5 Q42.2 -3.15 50.5 -12.0 M-41.6 -9.85 Q-40.2 -1.05 -40.0 8.2 L-39.9 12.7 Q-60.05 9.5 -52.45 0.55 -44.9 -8.45 -41.6 -9.85" fill="#999966" fill-rule="evenodd" stroke="none"/>
      <path d="M-21.65 -18.75 L-22.65 -17.15 -30.0 -14.2 Q-26.45 -3.05 -25.6 8.7 L-25.25 14.5 -25.25 14.65 -25.05 14.65 Q-5.55 17.35 14.1 16.1 L18.05 15.45 18.3 15.0 Q26.1 2.35 31.0 -11.55 L32.6 -16.3 33.25 -17.55 28.5 -22.0 M50.95 -12.5 L35.5 -18.75 33.25 -17.55 M50.5 -12.0 Q42.2 -3.15 38.65 8.5 L37.8 11.4 37.15 12.5 18.8 15.35 18.05 15.45 M38.05 12.3 Q56.3 8.65 67.15 11.3 66.3 9.2 62.85 2.2 59.4 -4.85 50.95 -12.5 M37.15 12.5 L38.05 12.3 M-30.0 -14.2 L-37.0 -12.65 -41.6 -9.85 Q-40.2 -1.05 -40.0 8.2 L-39.9 12.7 -25.25 14.65 M-41.6 -9.85 Q-44.9 -8.45 -52.45 0.55 -60.05 9.5 -39.9 12.7" fill="none" stroke="#000000" stroke-linecap="round" stroke-linejoin="round" stroke-width="2.0"/>
      <path d="M0.0 4.25 Q3.75 -3.1 12.85 -3.15 L15.9 -4.1 Q23.05 -6.15 25.75 -11.75 M-14.0 -1.5 Q-15.75 -5.75 -19.25 -9.0 L-20.85 -10.5 -21.4 -11.1 -21.55 -11.45 -21.65 -11.75 Q-21.7 -12.6 -22.25 -12.75" fill="none" stroke="#b9a882" stroke-linecap="round" stroke-linejoin="round" stroke-width="2.0"/>
    </g>
  </g>
  </g>
  <defs>
    </defs>
</svg>