<svg xmlns:xlink="http://www.w3.org/1999/xlink" xmlns="http://www.w3.org/2000/svg" height="202.2px" width="161.9px">
  <g transform="matrix(1.0, 0.0, 0.0, 1.0, 74.15, 81.7)">
    <g data-characterId="1431" height="121.95" transform="matrix(1.0, 0.0, 0.0, 1.0, -47.8, -67.9)" width="113.8" xlink:href="#shape0"><g id="shape0" transform="matrix(1.0, 0.0, 0.0, 1.0, 47.8, 67.9)">
      <path d="M55.05 49.0 L58.65 49.55 58.75 49.85 56.0 51.2 55.05 49.0" fill="#ffff99" fill-rule="evenodd" stroke="none"/>
      <path d="M35.45 -5.0 Q38.7 -2.2 37.6 1.9 L37.25 2.8 Q35.05 8.35 30.85 12.55 L29.65 13.7 28.15 13.65 28.15 12.1 28.95 7.45 Q29.25 6.6 29.8 5.95 33.8 0.9 35.45 -5.0" fill="#000066" fill-rule="evenodd" stroke="none"/>
      <path d="M0.25 -62.75 Q1.25 -62.2 2.8 -61.95 3.55 -61.85 4.0 -62.3 4.45 -62.75 5.05 -62.65 6.05 -62.5 6.05 -63.25 L5.95 -63.7 Q5.15 -65.5 7.95 -65.95 5.15 -65.5 5.95 -63.7 L6.05 -63.25 Q6.05 -62.5 5.05 -62.65 4.45 -62.75 4.0 -62.3 3.55 -61.85 2.8 -61.95 1.25 -62.2 0.25 -62.75 M-39.3 -47.3 Q-28.0 -68.7 -11.35 -67.3 L2.95 -66.6 Q8.65 -66.45 7.95 -65.95 28.85 -65.6 35.3 -43.75 41.75 -21.95 35.45 -5.0 33.8 0.9 29.8 5.95 29.25 6.6 28.95 7.45 L27.9 7.5 28.2 -1.85 30.05 -3.55 Q33.15 -12.95 32.7 -23.2 L30.0 -25.2 Q28.6 -26.3 27.05 -25.9 24.6 -22.9 23.65 -20.05 22.65 -17.25 22.5 -16.0 L21.0 -20.3 21.0 -23.55 21.0 -25.05 21.0 -23.55 21.0 -20.3 Q18.35 -27.6 14.75 -34.5 13.7 -41.3 13.0 -48.05 13.7 -41.3 14.75 -34.5 L11.4 -40.45 Q8.6 -45.2 3.1 -46.85 L0.25 -47.6 1.6 -48.35 2.5 -48.55 1.6 -48.35 0.25 -47.6 -11.4 -47.25 -14.5 -47.35 -15.55 -47.2 -15.1 -46.8 -18.0 -42.5 -18.5 -45.5 -20.8 -43.3 Q-24.05 -40.05 -26.1 -35.65 L-29.0 -28.0 -28.3 -37.0 -29.0 -40.0 -30.7 -37.65 Q-33.05 -34.15 -33.65 -28.95 L-34.3 -19.45 -34.3 -19.1 -35.95 -29.8 Q-36.6 -35.9 -35.5 -40.0 L-36.5 -38.3 Q-40.2 -31.4 -42.15 -23.35 L-42.2 -23.5 Q-42.25 -30.55 -40.0 -40.25 L-39.95 -40.3 -41.4 -39.55 Q-43.1 -38.6 -47.1 -26.55 -47.95 -38.0 -44.7 -42.7 -41.4 -47.55 -39.5 -47.5 L-39.3 -47.3 M37.25 2.8 Q40.3 24.45 49.0 44.2 50.75 48.1 55.05 49.0 L56.0 51.2 Q39.45 58.6 32.5 42.6 30.35 37.65 30.2 31.95 L29.65 13.7 30.85 12.55 Q35.05 8.35 37.25 2.8 M1.5 -52.55 Q0.55 -51.3 -1.0 -51.2 -3.0 -51.1 -6.65 -49.75 -10.4 -48.35 -11.4 -47.25 -10.4 -48.35 -6.65 -49.75 -3.0 -51.1 -1.0 -51.2 0.55 -51.3 1.5 -52.55 M-39.85 -40.9 L-39.95 -40.3 -39.85 -40.9" fill="url(#gradient0)" fill-rule="evenodd" stroke="none"/>
      <path d="M7.95 -65.95 Q5.15 -65.5 5.95 -63.7 L6.05 -63.25 Q6.05 -62.5 5.05 -62.65 4.45 -62.75 4.0 -62.3 3.55 -61.85 2.8 -61.95 1.25 -62.2 0.25 -62.75 M-39.3 -47.3 Q-28.0 -68.7 -11.35 -67.3 L2.95 -66.6 Q8.65 -66.45 7.95 -65.95 28.85 -65.6 35.3 -43.75 41.75 -21.95 35.45 -5.0 38.7 -2.2 37.6 1.9 L37.25 2.8 Q40.3 24.45 49.0 44.2 50.75 48.1 55.05 49.0 L58.65 49.55 65.5 45.05 65.0 46.25 Q62.85 49.55 58.75 49.85 L56.0 51.2 Q39.45 58.6 32.5 42.6 30.35 37.65 30.2 31.95 L29.65 13.7 28.15 13.65 28.05 16.3 28.0 13.05 28.15 12.1 27.9 7.5 28.2 -1.85 30.05 -3.55 Q33.15 -12.95 32.7 -23.2 L30.0 -25.2 Q28.6 -26.3 27.05 -25.9 24.6 -22.9 23.65 -20.05 22.65 -17.25 22.5 -16.0 L21.0 -20.3 Q18.35 -27.6 14.75 -34.5 L11.4 -40.45 Q8.6 -45.2 3.1 -46.85 L0.25 -47.6 -11.4 -47.25 -14.5 -47.35 -15.1 -46.8 -18.0 -42.5 -18.5 -45.5 -20.8 -43.3 Q-24.05 -40.05 -26.1 -35.65 L-29.0 -28.0 -28.3 -37.0 -29.0 -40.0 -30.7 -37.65 Q-33.05 -34.15 -33.65 -28.95 L-34.3 -19.45 M-42.2 -23.5 Q-42.25 -30.55 -40.0 -40.25 L-39.95 -40.3 -41.4 -39.55 Q-43.1 -38.6 -47.1 -26.55 -47.95 -38.0 -44.7 -42.7 -41.4 -47.55 -39.5 -47.5 M-34.3 -19.1 L-35.95 -29.8 Q-36.6 -35.9 -35.5 -40.0 L-36.5 -38.3 Q-40.2 -31.4 -42.15 -23.35 M-39.95 -40.3 L-39.85 -40.9 M35.45 -5.0 Q33.8 0.9 29.8 5.95 29.25 6.6 28.95 7.45 L28.15 12.1 28.15 13.65 28.0 13.05 M29.65 13.7 L30.85 12.55 Q35.05 8.35 37.25 2.8" fill="none" stroke="#000000" stroke-linecap="round" stroke-linejoin="round" stroke-width="2.0"/>
      <path d="M21.0 -20.3 L21.0 -16.05 M14.75 -34.5 Q13.7 -41.3 13.0 -48.05 M14.75 -34.5 L15.35 -30.5 15.8 -25.55 Q16.0 -16.8 15.6 -8.05 L15.2 -2.55 15.0 1.5 15.0 4.0 M0.25 -47.6 L1.6 -48.35 2.5 -48.55 M0.25 -47.6 L-1.5 -46.55 M21.0 -20.3 L21.0 -23.55 21.0 -25.05 M-11.4 -47.25 Q-10.4 -48.35 -6.65 -49.75 -3.0 -51.1 -1.0 -51.2 0.55 -51.3 1.5 -52.55 M-11.4 -47.25 Q-12.9 -45.65 -13.5 -43.05" fill="none" stroke="#ffff99" stroke-linecap="round" stroke-linejoin="round" stroke-width="2.0"/>
    </g>
    </g>
  </g>
  <defs>
    <radialGradient cx="0" cy="0" gradientTransform="matrix(0.0481, 0.1394, -0.165, 0.0569, -7.5, -60.5)" gradientUnits="userSpaceOnUse" id="gradient0" r="819.2" spreadMethod="pad">
      <stop offset="0.0" stop-color="#ffff99"/>
      <stop offset="0.23137254901960785" stop-color="#ffffbb"/>
      <stop offset="0.3176470588235294" stop-color="#ffffff"/>
      <stop offset="0.38823529411764707" stop-color="#ffffbb"/>
      <stop offset="1.0" stop-color="#ffff99"/>
    </radialGradient>
  </defs>
</svg>