<svg xmlns:xlink="http://www.w3.org/1999/xlink" xmlns="http://www.w3.org/2000/svg" height="202.2px" width="161.9px">
  <g transform="matrix(1.0, 0.0, 0.0, 1.0, 74.15, 81.7)">
    <g data-characterId="1384" height="154.7" transform="matrix(1.0, 0.0, 0.0, 1.0, -45.75, -71.3)" width="100.95" xlink:href="#shape0"><g id="shape0" transform="matrix(1.0, 0.0, 0.0, 1.0, 45.75, 71.3)">
      <path d="M10.6 -64.4 L8.6 -64.75 5.85 -64.8 1.4 -64.15 5.85 -64.8 8.6 -64.75 10.6 -64.4 M17.5 -64.4 L16.0 -65.4 12.05 -67.6 16.0 -65.4 17.5 -64.4 M0.85 -69.35 L1.4 -68.45 Q16.55 -73.5 27.6 -61.6 37.65 -50.75 42.55 -36.95 47.05 -24.15 46.5 -10.6 45.9 3.45 47.0 17.45 48.05 31.4 49.0 41.4 49.95 51.35 54.7 61.2 L50.0 59.3 47.75 58.7 47.3 58.65 47.5 59.55 47.6 60.9 47.5 62.35 47.2 63.7 46.7 65.65 46.55 66.1 46.35 66.4 46.1 66.65 45.9 66.7 44.3 61.7 Q43.2 64.55 42.4 67.45 L41.55 69.75 39.8 73.75 Q38.9 76.25 37.4 78.0 L37.45 77.5 36.65 76.4 35.9 75.2 35.4 73.95 34.6 70.9 33.6 67.6 Q31.55 71.75 29.0 75.6 26.4 79.5 23.3 82.9 22.95 79.75 22.9 76.6 22.8 73.4 23.0 70.2 L20.5 72.65 15.2 77.3 12.35 79.4 13.3 77.2 14.05 75.05 14.25 73.95 14.65 70.5 13.35 71.9 12.0 73.3 10.5 74.5 8.95 75.7 8.55 75.95 8.05 75.95 8.5 74.6 Q11.75 60.25 13.4 45.6 14.8 32.75 16.7 19.95 L18.05 12.2 Q20.8 -1.5 20.45 -15.55 20.05 -29.65 12.7 -41.75 11.85 -43.15 10.25 -43.5 -1.55 -46.85 -11.25 -54.05 L-11.8 -53.8 Q-15.55 -40.25 -26.6 -31.1 L-35.95 -22.6 -37.05 -20.5 -38.6 -17.55 -37.05 -20.5 -35.9 -19.9 Q-35.95 -15.0 -36.8 -10.2 -37.05 -8.65 -36.05 -2.05 -35.1 4.5 -31.75 12.45 L-26.35 25.6 Q-24.25 30.7 -22.7 32.8 -21.45 34.55 -17.85 34.7 L-19.2 48.2 Q-19.45 49.05 -24.85 50.6 -30.3 52.1 -39.7 53.95 -42.2 55.8 -43.3 54.95 L-43.35 50.2 -43.35 47.9 -41.5 23.15 Q-40.55 10.55 -43.05 -1.9 -46.05 -16.6 -44.95 -31.55 -44.55 -37.1 -42.55 -42.35 -37.6 -55.4 -26.4 -64.2 -14.1 -73.85 0.85 -69.35 M-38.8 13.65 L-38.7 15.25 Q-38.45 20.3 -37.7 25.35 -37.0 29.8 -37.8 34.25 -38.4 37.7 -39.25 41.15 -40.1 44.85 -39.7 53.95 -40.1 44.85 -39.25 41.15 -38.4 37.7 -37.8 34.25 -37.0 29.8 -37.7 25.35 -38.45 20.3 -38.7 15.25 L-38.8 13.65 -38.9 15.0 -39.05 17.55 Q-39.15 23.25 -39.85 28.8 L-41.45 40.6 -39.85 28.8 Q-39.15 23.25 -39.05 17.55 L-38.9 15.0 -38.8 13.65 -39.0 10.4 -39.4 5.5 Q-39.6 3.05 -40.15 0.7 -41.3 -4.2 -41.85 -9.2 L-42.15 -12.65 -42.1 -13.8 Q-42.05 -14.3 -41.7 -14.05 L-41.65 -13.75 -41.7 -14.05 Q-42.05 -14.3 -42.1 -13.8 L-42.15 -12.65 -41.85 -9.2 Q-41.3 -4.2 -40.15 0.7 -39.6 3.05 -39.4 5.5 L-39.0 10.4 -38.8 13.65 Q-38.5 8.3 -39.55 3.15 L-39.85 1.15 -40.45 -4.3 -41.65 -13.75 -40.45 -4.3 -39.85 1.15 -39.55 3.15 Q-38.5 8.3 -38.8 13.65 M12.35 -65.85 L9.75 -66.2 1.4 -65.55 9.75 -66.2 12.35 -65.85 M1.15 -59.9 L2.9 -60.05 3.1 -60.05 3.25 -60.05 3.1 -60.05 2.9 -60.05 1.15 -59.9 0.25 -59.8 1.15 -59.9 2.3 -60.0 2.9 -60.05 2.3 -60.0 1.15 -59.9 M22.15 -47.15 L19.75 -48.75 14.95 -51.5 Q12.2 -52.9 9.3 -53.95 5.05 -55.45 0.55 -55.2 5.05 -55.45 9.3 -53.95 12.2 -52.9 14.95 -51.5 L19.75 -48.75 22.15 -47.15 M4.6 -60.15 L3.25 -60.05 4.6 -60.15 Q8.35 -60.2 12.1 -59.05 13.2 -58.65 14.35 -58.4 13.2 -58.65 12.1 -59.05 8.35 -60.2 4.6 -60.15 M23.85 -30.45 L23.5 -31.3 21.85 -34.5 19.2 -39.1 Q18.4 -40.55 17.2 -41.7 L16.85 -41.75 17.2 -41.7 Q18.4 -40.55 19.2 -39.1 L21.85 -34.5 23.5 -31.3 23.85 -30.45 M20.7 -30.2 L20.6 -31.0 19.7 -34.0 Q18.55 -37.8 15.8 -40.55 18.55 -37.8 19.7 -34.0 L20.6 -31.0 20.7 -30.2 M27.6 -32.5 L26.85 -33.7 24.85 -37.9 22.7 -41.15 20.8 -42.95 20.4 -43.4 20.8 -42.95 22.7 -41.15 24.85 -37.9 26.85 -33.7 27.6 -32.5 M34.2 -42.85 L33.55 -44.5 Q32.8 -46.15 31.7 -47.6 L30.45 -48.9 31.7 -47.6 Q32.8 -46.15 33.55 -44.5 L34.2 -42.85 M31.9 -39.7 L31.35 -41.1 Q30.1 -44.4 27.6 -46.85 30.1 -44.4 31.35 -41.1 L31.9 -39.7 M11.5 -45.7 L15.2 -43.1 16.85 -41.75 Q20.25 -38.65 21.35 -33.95 L22.0 -31.0 22.5 -28.15 Q23.25 -22.45 23.4 -16.65 L23.35 -14.65 Q23.15 -12.65 23.25 -10.6 L23.2 -8.05 22.8 -2.0 22.6 3.2 22.5 4.9 Q22.05 10.7 20.8 16.4 19.6 22.0 18.75 27.65 L18.3 30.25 Q17.5 34.25 17.25 38.3 L16.65 44.35 15.3 52.65 14.85 54.95 14.25 58.45 Q13.6 62.35 13.2 66.2 13.6 62.35 14.25 58.45 L14.85 54.95 15.3 52.65 16.65 44.35 17.25 38.3 Q17.5 34.25 18.3 30.25 L18.75 27.65 Q19.6 22.0 20.8 16.4 22.05 10.7 22.5 4.9 L22.6 3.2 22.8 -2.0 23.2 -8.05 23.25 -10.6 Q23.15 -12.65 23.35 -14.65 L23.4 -16.65 Q23.25 -22.45 22.5 -28.15 L22.0 -31.0 21.35 -33.95 Q20.25 -38.65 16.85 -41.75 L15.2 -43.1 11.5 -45.7 M29.9 -35.65 L29.55 -36.8 Q28.0 -41.6 24.7 -45.45 28.0 -41.6 29.55 -36.8 L29.9 -35.65 M41.1 57.0 L40.1 54.35 Q39.4 52.25 39.15 50.05 38.55 44.45 37.6 38.85 36.75 34.05 37.15 29.1 37.6 23.65 37.4 18.15 L37.25 10.4 37.25 0.9 Q37.25 -3.7 36.7 -8.25 36.25 -12.35 35.3 -16.4 L33.45 -24.7 32.0 -32.5 31.15 -39.4 Q31.05 -40.75 30.2 -41.7 31.05 -40.75 31.15 -39.4 L32.0 -32.5 33.45 -24.7 35.3 -16.4 Q36.25 -12.35 36.7 -8.25 37.25 -3.7 37.25 0.9 L37.25 10.4 37.4 18.15 Q37.6 23.65 37.15 29.1 36.75 34.05 37.6 38.85 38.55 44.45 39.15 50.05 39.4 52.25 40.1 54.35 L41.1 57.0 M35.05 -42.25 L38.0 -34.8 Q40.0 -29.75 40.95 -24.45 41.7 -20.05 41.4 -15.5 L41.35 -14.55 41.4 -15.5 Q41.7 -20.05 40.95 -24.45 40.0 -29.75 38.0 -34.8 L35.05 -42.25 M47.15 58.15 L47.3 58.65 47.15 58.15 M23.95 32.55 Q24.55 27.2 25.3 21.9 L26.4 15.3 Q27.6 9.4 27.6 3.45 L27.85 -2.55 Q28.3 -7.6 28.0 -12.65 27.9 -15.5 27.95 -18.4 28.15 -24.2 27.6 -29.9 28.15 -24.2 27.95 -18.4 27.9 -15.5 28.0 -12.65 28.3 -7.6 27.85 -2.55 L27.6 3.45 Q27.6 9.4 26.4 15.3 L25.3 21.9 Q24.55 27.2 23.95 32.55 L24.35 25.05 24.65 15.85 24.5 10.1 Q24.1 4.75 24.7 -0.55 L25.2 -5.45 Q25.5 -8.9 24.9 -12.35 24.0 -17.35 23.85 -22.4 24.0 -17.35 24.9 -12.35 25.5 -8.9 25.2 -5.45 L24.7 -0.55 Q24.1 4.75 24.5 10.1 L24.65 15.85 24.35 25.05 23.95 32.55 23.8 34.85 23.6 40.85 23.8 47.2 Q24.15 52.8 24.65 58.4 L25.3 63.05 24.65 58.4 Q24.15 52.8 23.8 47.2 L23.6 40.85 23.8 34.85 23.95 32.55 Q23.2 38.45 23.2 44.35 23.15 49.95 23.5 55.55 L24.05 62.45 24.45 65.05 24.05 62.45 23.5 55.55 Q23.15 49.95 23.2 44.35 23.2 38.45 23.95 32.55 M30.75 -24.7 Q32.3 -19.2 31.8 -13.5 31.3 -7.6 31.45 -1.7 L31.85 8.95 32.1 15.0 Q32.2 19.75 31.65 24.45 L30.35 34.25 29.4 41.15 28.65 48.35 28.35 55.85 Q28.25 61.85 29.6 67.65 28.25 61.85 28.35 55.85 L28.65 48.35 29.4 41.15 30.35 34.25 31.65 24.45 Q32.2 19.75 32.1 15.0 L31.85 8.95 31.45 -1.7 Q31.3 -7.6 31.8 -13.5 32.3 -19.2 30.75 -24.7 M44.3 31.95 L44.1 26.5 43.8 19.0 43.15 8.1 Q42.85 3.65 42.95 -0.85 43.05 -6.7 41.8 -12.35 L41.35 -14.55 40.4 -21.05 Q39.95 -25.7 38.8 -30.2 39.95 -25.7 40.4 -21.05 L41.35 -14.55 41.8 -12.35 Q43.05 -6.7 42.95 -0.85 42.85 3.65 43.15 8.1 L43.8 19.0 44.1 26.5 44.3 31.95 M32.2 -27.3 L33.3 -17.55 33.7 -9.45 Q33.85 -3.7 34.65 2.05 L35.25 8.35 Q35.5 12.7 35.4 17.0 L35.35 24.2 35.35 33.1 35.35 24.2 35.4 17.0 Q35.5 12.7 35.25 8.35 L34.65 2.05 Q33.85 -3.7 33.7 -9.45 L33.3 -17.55 32.2 -27.3 M41.35 -14.55 L41.3 -10.9 41.75 0.0 41.7 4.35 Q41.3 9.35 41.9 14.4 L42.75 23.9 43.1 32.25 43.3 40.6 Q43.45 44.5 44.15 48.25 44.95 52.7 46.3 57.0 44.95 52.7 44.15 48.25 43.45 44.5 43.3 40.6 L43.1 32.25 42.75 23.9 41.9 14.4 Q41.3 9.35 41.7 4.35 L41.75 0.0 41.3 -10.9 41.35 -14.55 M-5.5 -65.85 L-6.35 -66.45 Q-8.75 -68.15 -11.55 -67.3 -8.75 -68.15 -6.35 -66.45 L-5.5 -65.85 M-28.5 -61.55 L-33.05 -56.05 -36.8 -50.7 Q-39.6 -45.9 -41.15 -40.55 L-41.9 -37.35 -42.45 -34.55 -42.7 -32.8 -43.0 -28.45 Q-43.2 -23.35 -42.25 -18.4 -42.0 -17.25 -41.9 -16.1 L-41.7 -14.05 -41.9 -16.1 Q-42.0 -17.25 -42.25 -18.4 -43.2 -23.35 -43.0 -28.45 L-42.7 -32.8 -42.45 -34.55 -41.9 -37.35 -41.15 -40.55 Q-39.6 -45.9 -36.8 -50.7 L-33.05 -56.05 -28.5 -61.55 M31.6 28.8 Q31.05 34.4 31.7 40.0 32.2 44.2 33.15 48.3 34.35 53.2 35.1 58.15 L36.4 68.5 36.6 69.4 36.65 69.65 36.6 69.4 36.4 68.5 35.1 58.15 Q34.35 53.2 33.15 48.3 32.2 44.2 31.7 40.0 31.05 34.4 31.6 28.8 M19.85 23.05 L18.5 31.1 Q17.85 35.3 17.35 39.45 16.95 43.05 16.8 46.65 16.65 49.4 16.8 52.1 L17.5 61.85 16.8 52.1 Q16.65 49.4 16.8 46.65 16.95 43.05 17.35 39.45 17.85 35.3 18.5 31.1 L19.85 23.05 M-16.7 -50.6 L-15.7 -52.15 Q-14.45 -54.6 -13.55 -57.25 -14.45 -54.6 -15.7 -52.15 L-16.7 -50.6 M-19.0 -58.1 L-14.45 -62.75 Q-13.7 -63.45 -12.7 -63.25 -13.7 -63.45 -14.45 -62.75 L-19.0 -58.1 M-1.65 -65.5 Q-3.05 -63.0 -6.95 -60.7 L-5.45 -59.35 -5.65 -58.65 -6.85 -57.75 Q-8.2 -56.7 -9.8 -57.25 -8.2 -56.7 -6.85 -57.75 L-5.65 -58.65 -5.45 -59.35 -6.95 -60.7 Q-3.05 -63.0 -1.65 -65.5 M-8.95 -61.55 L-9.5 -61.8 -11.25 -62.4 -9.5 -61.8 -8.95 -61.55 M-22.75 -60.95 L-18.0 -64.2 Q-13.55 -66.95 -8.1 -66.7 -13.55 -66.95 -18.0 -64.2 L-22.75 -60.95 M-38.85 -33.35 L-37.25 -37.35 -33.4 -45.7 Q-31.1 -50.55 -27.65 -54.65 -31.1 -50.55 -33.4 -45.7 L-37.25 -37.35 -38.85 -33.35 M-39.45 -26.75 Q-36.55 -31.55 -33.15 -36.0 L-29.5 -40.7 -26.05 -45.0 Q-24.05 -47.5 -21.3 -48.6 -24.05 -47.5 -26.05 -45.0 L-29.5 -40.7 -33.15 -36.0 Q-36.55 -31.55 -39.45 -26.75 M-41.45 -22.7 L-38.55 -25.5 -34.35 -29.4 -25.75 -37.2 -22.95 -39.6 Q-20.3 -41.95 -18.7 -45.15 -20.3 -41.95 -22.95 -39.6 L-25.75 -37.2 -34.35 -29.4 -38.55 -25.5 -41.45 -22.7 M-29.65 -39.1 L-31.0 -37.55 -33.1 -34.5 -31.0 -37.55 -29.65 -39.1 M-23.35 -37.4 L-24.55 -36.35 -29.65 -31.9 -24.55 -36.35 -23.35 -37.4 M-31.65 -44.3 L-33.2 -42.4 Q-35.5 -39.1 -37.4 -35.65 -35.5 -39.1 -33.2 -42.4 L-31.65 -44.3 M-33.95 -46.85 Q-35.4 -45.85 -36.4 -44.5 -39.55 -40.4 -40.3 -35.35 -39.55 -40.4 -36.4 -44.5 -35.4 -45.85 -33.95 -46.85 M-35.1 42.6 L-34.9 40.6 -33.85 29.65 Q-33.4 25.05 -33.8 20.5 -34.2 16.35 -33.95 12.4 -34.2 16.35 -33.8 20.5 -33.4 25.05 -33.85 29.65 L-34.9 40.6 -35.1 42.6 M-30.25 22.45 L-30.45 31.4 Q-30.75 37.15 -33.1 47.2 -30.75 37.15 -30.45 31.4 L-30.25 22.45 M-23.35 35.4 L-23.7 37.7 -24.75 41.45 -23.7 37.7 -23.35 35.4 M-29.65 49.8 Q-29.35 43.75 -29.1 42.9 -27.75 38.35 -27.35 33.7 -27.75 38.35 -29.1 42.9 -29.35 43.75 -29.65 49.8" fill="url(#gradient0)" fill-rule="evenodd" stroke="none"/>
      <path d="M0.85 -69.35 Q-14.1 -73.85 -26.4 -64.2 -37.6 -55.4 -42.55 -42.35 -44.55 -37.1 -44.95 -31.55 -46.05 -16.6 -43.05 -1.9 -40.55 10.55 -41.5 23.15 L-43.35 47.9 -43.4 48.6 -43.35 50.2 -43.3 54.95 Q-42.2 55.8 -39.7 53.95 -30.3 52.1 -24.85 50.6 -19.45 49.05 -19.2 48.2 L-17.85 34.7 Q-21.45 34.55 -22.7 32.8 -24.25 30.7 -26.35 25.6 L-31.75 12.45 Q-35.1 4.5 -36.05 -2.05 -37.05 -8.65 -36.8 -10.2 -35.95 -15.0 -35.9 -19.9 L-35.95 -22.6 -26.6 -31.1 Q-15.55 -40.25 -11.8 -53.8 M47.3 58.65 L47.75 58.7 50.0 59.3 54.7 61.2 Q49.95 51.35 49.0 41.4 48.05 31.4 47.0 17.45 45.9 3.45 46.5 -10.6 47.05 -24.15 42.55 -36.95 37.65 -50.75 27.6 -61.6 16.55 -73.5 1.4 -68.45 M-11.25 -54.05 Q-1.55 -46.85 10.25 -43.5 11.85 -43.15 12.7 -41.75 20.05 -29.65 20.45 -15.55 20.8 -1.5 18.05 12.2 L16.7 19.95 Q14.8 32.75 13.4 45.6 11.75 60.25 8.5 74.6 L8.05 75.95 8.55 75.95 8.95 75.7 10.5 74.5 12.0 73.3 13.35 71.9 14.65 70.5 14.25 73.95 14.05 75.05 13.3 77.2 12.35 79.4 15.2 77.3 20.5 72.65 23.0 70.2 Q22.8 73.4 22.9 76.6 22.95 79.75 23.3 82.9 26.4 79.5 29.0 75.6 31.55 71.75 33.6 67.6 L34.6 70.9 35.4 73.95 35.9 75.2 36.65 76.4 37.45 77.5 37.4 78.0 Q38.9 76.25 39.8 73.75 L41.55 69.75 42.4 67.45 Q43.2 64.55 44.3 61.7 L45.9 66.7 46.1 66.65 46.35 66.4 46.55 66.1 46.7 65.65 47.2 63.7 47.5 62.35 47.6 60.9 47.5 59.55 47.3 58.65 47.15 58.15 M-9.8 -57.25 Q-8.2 -56.7 -6.85 -57.75 L-5.65 -58.65 -5.45 -59.35 -6.95 -60.7 Q-3.05 -63.0 -1.65 -65.5 M-37.05 -20.5 L-38.6 -17.55 M-37.05 -20.5 L-35.95 -22.6" fill="none" stroke="#000000" stroke-linecap="round" stroke-linejoin="round" stroke-width="2.0"/>
      <path d="M12.05 -67.6 L16.0 -65.4 17.5 -64.4 M1.4 -64.15 L5.85 -64.8 8.6 -64.75 10.6 -64.4 M-39.7 53.95 Q-40.1 44.85 -39.25 41.15 -38.4 37.7 -37.8 34.25 -37.0 29.8 -37.7 25.35 -38.45 20.3 -38.7 15.25 L-38.8 13.65 -39.0 10.4 -39.4 5.5 Q-39.6 3.05 -40.15 0.7 -41.3 -4.2 -41.85 -9.2 L-42.15 -12.65 -42.1 -13.8 Q-42.05 -14.3 -41.7 -14.05 L-41.65 -13.75 M0.55 -55.2 Q5.05 -55.45 9.3 -53.95 12.2 -52.9 14.95 -51.5 L19.75 -48.75 22.15 -47.15 M3.25 -60.05 L3.1 -60.05 2.9 -60.05 1.15 -59.9 M4.6 -60.15 Q8.35 -60.2 12.1 -59.05 13.2 -58.65 14.35 -58.4 M13.2 66.2 Q13.6 62.35 14.25 58.45 L14.85 54.95 15.3 52.65 16.65 44.35 17.25 38.3 Q17.5 34.25 18.3 30.25 L18.75 27.65 Q19.6 22.0 20.8 16.4 22.05 10.7 22.5 4.9 L22.6 3.2 22.8 -2.0 23.2 -8.05 23.25 -10.6 Q23.15 -12.65 23.35 -14.65 L23.4 -16.65 Q23.25 -22.45 22.5 -28.15 L22.0 -31.0 21.35 -33.95 Q20.25 -38.65 16.85 -41.75 L15.2 -43.1 11.5 -45.7 M41.35 -14.55 L41.4 -15.5 Q41.7 -20.05 40.95 -24.45 40.0 -29.75 38.0 -34.8 L35.05 -42.25 M30.2 -41.7 Q31.05 -40.75 31.15 -39.4 L32.0 -32.5 33.45 -24.7 35.3 -16.4 Q36.25 -12.35 36.7 -8.25 37.25 -3.7 37.25 0.9 L37.25 10.4 37.4 18.15 Q37.6 23.65 37.15 29.1 36.75 34.05 37.6 38.85 38.55 44.45 39.15 50.05 39.4 52.25 40.1 54.35 L41.1 57.0 M29.6 67.65 Q28.25 61.85 28.35 55.85 L28.65 48.35 29.4 41.15 30.35 34.25 31.65 24.45 Q32.2 19.75 32.1 15.0 L31.85 8.95 31.45 -1.7 Q31.3 -7.6 31.8 -13.5 32.3 -19.2 30.75 -24.7 M27.6 -29.9 Q28.15 -24.2 27.95 -18.4 27.9 -15.5 28.0 -12.65 28.3 -7.6 27.85 -2.55 L27.6 3.45 Q27.6 9.4 26.4 15.3 L25.3 21.9 Q24.55 27.2 23.95 32.55 23.2 38.45 23.2 44.35 23.15 49.95 23.5 55.55 L24.05 62.45 24.45 65.05 M46.3 57.0 Q44.95 52.7 44.15 48.25 43.45 44.5 43.3 40.6 L43.1 32.25 42.75 23.9 41.9 14.4 Q41.3 9.35 41.7 4.35 L41.75 0.0 41.3 -10.9 41.35 -14.55 M-12.7 -63.25 Q-13.7 -63.45 -14.45 -62.75 L-19.0 -58.1 M-13.55 -57.25 Q-14.45 -54.6 -15.7 -52.15 L-16.7 -50.6 M-8.1 -66.7 Q-13.55 -66.95 -18.0 -64.2 L-22.75 -60.95 M-18.7 -45.15 Q-20.3 -41.95 -22.95 -39.6 L-25.75 -37.2 -34.35 -29.4 -38.55 -25.5 -41.45 -22.7 M-21.3 -48.6 Q-24.05 -47.5 -26.05 -45.0 L-29.5 -40.7 -33.15 -36.0 Q-36.55 -31.55 -39.45 -26.75 M-27.65 -54.65 Q-31.1 -50.55 -33.4 -45.7 L-37.25 -37.35 -38.85 -33.35 M-24.75 41.45 L-23.7 37.7 -23.35 35.4 M-33.1 47.2 Q-30.75 37.15 -30.45 31.4 L-30.25 22.45" fill="none" stroke="#8a412e" stroke-linecap="round" stroke-linejoin="round" stroke-width="1.5"/>
      <path d="M-38.8 13.65 L-38.9 15.0 -39.05 17.55 Q-39.15 23.25 -39.85 28.8 L-41.45 40.6 M1.4 -65.55 L9.75 -66.2 12.35 -65.85 M1.15 -59.9 L0.25 -59.8 M3.25 -60.05 L4.6 -60.15 M1.15 -59.9 L2.3 -60.0 2.9 -60.05 M27.6 -46.85 Q30.1 -44.4 31.35 -41.1 L31.9 -39.7 M30.45 -48.9 L31.7 -47.6 Q32.8 -46.15 33.55 -44.5 L34.2 -42.85 M20.4 -43.4 L20.8 -42.95 22.7 -41.15 24.85 -37.9 26.85 -33.7 27.6 -32.5 M15.8 -40.55 Q18.55 -37.8 19.7 -34.0 L20.6 -31.0 20.7 -30.2 M16.85 -41.75 L17.2 -41.7 Q18.4 -40.55 19.2 -39.1 L21.85 -34.5 23.5 -31.3 23.85 -30.45 M24.7 -45.45 Q28.0 -41.6 29.55 -36.8 L29.9 -35.65 M23.95 32.55 L23.8 34.85 23.6 40.85 23.8 47.2 Q24.15 52.8 24.65 58.4 L25.3 63.05 M23.85 -22.4 Q24.0 -17.35 24.9 -12.35 25.5 -8.9 25.2 -5.45 L24.7 -0.55 Q24.1 4.75 24.5 10.1 L24.65 15.85 24.35 25.05 23.95 32.55 M35.35 33.1 L35.35 24.2 35.4 17.0 Q35.5 12.7 35.25 8.35 L34.65 2.05 Q33.85 -3.7 33.7 -9.45 L33.3 -17.55 32.2 -27.3 M38.8 -30.2 Q39.95 -25.7 40.4 -21.05 L41.35 -14.55 41.8 -12.35 Q43.05 -6.7 42.95 -0.85 42.85 3.65 43.15 8.1 L43.8 19.0 44.1 26.5 44.3 31.95 M17.5 61.85 L16.8 52.1 Q16.65 49.4 16.8 46.65 16.95 43.05 17.35 39.45 17.85 35.3 18.5 31.1 L19.85 23.05 M36.65 69.65 L36.6 69.4 36.4 68.5 35.1 58.15 Q34.35 53.2 33.15 48.3 32.2 44.2 31.7 40.0 31.05 34.4 31.6 28.8 M-41.7 -14.05 L-41.9 -16.1 Q-42.0 -17.25 -42.25 -18.4 -43.2 -23.35 -43.0 -28.45 L-42.7 -32.8 -42.45 -34.55 -41.9 -37.35 -41.15 -40.55 Q-39.6 -45.9 -36.8 -50.7 L-33.05 -56.05 -28.5 -61.55 M-11.55 -67.3 Q-8.75 -68.15 -6.35 -66.45 L-5.5 -65.85 M-11.25 -62.4 L-9.5 -61.8 -8.95 -61.55 M-38.8 13.65 Q-38.5 8.3 -39.55 3.15 L-39.85 1.15 -40.45 -4.3 -41.65 -13.75 M-40.3 -35.35 Q-39.55 -40.4 -36.4 -44.5 -35.4 -45.85 -33.95 -46.85 M-37.4 -35.65 Q-35.5 -39.1 -33.2 -42.4 L-31.65 -44.3 M-29.65 -31.9 L-24.55 -36.35 -23.35 -37.4 M-33.1 -34.5 L-31.0 -37.55 -29.65 -39.1 M-33.95 12.4 Q-34.2 16.35 -33.8 20.5 -33.4 25.05 -33.85 29.65 L-34.9 40.6 -35.1 42.6 M-27.35 33.7 Q-27.75 38.35 -29.1 42.9 -29.35 43.75 -29.65 49.8" fill="none" stroke="#cf7c72" stroke-linecap="round" stroke-linejoin="round" stroke-width="1.5"/>
    </g>
    </g>
  </g>
  <defs>
    <radialGradient cx="0" cy="0" gradientTransform="matrix(8.0E-4, 0.0806, -0.1487, 0.0014, -4.5, -54.5)" gradientUnits="userSpaceOnUse" id="gradient0" r="819.2" spreadMethod="pad">
      <stop offset="0.0" stop-color="#330000"/>
      <stop offset="0.23137254901960785" stop-color="#7e2d01"/>
      <stop offset="0.3176470588235294" stop-color="#9f410f"/>
      <stop offset="0.38823529411764707" stop-color="#883102"/>
      <stop offset="1.0" stop-color="#480000"/>
    </radialGradient>
  </defs>
</svg>