<svg xmlns:xlink="http://www.w3.org/1999/xlink" xmlns="http://www.w3.org/2000/svg" height="202.2px" width="161.9px">
  <g transform="matrix(1.0, 0.0, 0.0, 1.0, 74.15, 81.7)">
    <g data-characterId="1451" height="155.15" transform="matrix(1.0, 0.0, 0.0, 1.0, -56.05, -71.8)" width="115.0" xlink:href="#shape0"><g id="shape0" transform="matrix(1.0, 0.0, 0.0, 1.0, 56.05, 71.8)">
      <path d="M-29.95 -59.85 Q-28.05 -62.1 -25.0 -63.7 L-22.95 -64.75 Q-16.85 -68.05 -10.55 -70.3 L-9.7 -70.5 -4.65 -71.0 -2.8 -71.2 2.3 -71.2 4.1 -71.1 7.8 -70.7 8.3 -70.6 Q12.8 -69.35 16.9 -67.45 L19.4 -65.95 21.2 -64.5 23.8 -62.45 25.8 -60.8 Q31.9 -54.75 37.05 -48.2 L37.85 -47.05 38.55 -45.95 Q41.1 -42.15 42.65 -37.7 L43.4 -35.5 Q45.95 -27.8 46.95 -19.35 47.9 -11.05 48.3 -2.75 L48.9 5.05 49.3 13.35 Q49.4 20.35 50.9 27.2 L51.75 30.8 53.75 39.6 Q55.2 46.65 58.1 53.35 L58.45 53.85 Q56.15 53.05 54.65 51.65 L53.85 51.1 Q50.75 49.7 47.4 49.2 L45.1 49.0 Q42.95 49.0 41.3 48.05 L40.5 47.75 Q34.65 46.35 32.2 42.8 L31.75 44.65 29.95 52.0 29.6 54.3 Q29.5 56.45 29.0 58.45 L27.1 66.75 26.75 68.6 Q26.2 72.2 24.8 75.5 23.35 78.95 20.7 81.95 20.7 80.0 20.2 78.25 19.6 75.95 18.85 76.4 L17.5 77.85 Q14.5 81.15 10.55 82.85 10.55 82.4 10.7 82.05 12.3 78.7 12.8 75.0 L12.85 74.55 5.5 80.55 6.1 79.25 Q7.9 76.45 9.25 73.2 L9.85 71.3 10.0 70.5 8.75 71.4 Q3.95 75.5 -1.85 77.35 L-0.9 76.0 Q1.95 72.4 2.75 68.1 L-1.3 70.6 Q-3.1 71.75 -3.7 71.35 L-2.95 70.75 -1.75 69.1 Q0.5 65.6 2.15 61.65 5.2 54.2 7.75 46.5 10.15 39.05 10.85 31.3 L11.2 27.15 11.6 23.0 11.6 22.55 Q11.9 17.95 11.65 13.35 L11.3 8.75 Q10.5 0.65 8.55 -7.3 L4.2 -25.3 2.95 -29.85 Q1.65 -34.1 -0.9 -37.8 -4.0 -42.35 -6.4 -47.3 -7.75 -46.65 -8.75 -45.55 L-10.55 -45.8 -10.75 -45.45 -12.85 -46.95 -13.55 -46.25 Q-15.15 -44.7 -16.3 -42.8 L-18.65 -43.75 Q-18.2 -44.85 -17.4 -45.75 L-16.55 -46.7 -17.4 -45.75 Q-18.2 -44.85 -18.65 -43.75 L-19.1 -42.55 -21.25 -43.25 -21.4 -42.8 -23.9 -43.15 -23.9 -42.8 -26.0 -42.55 -26.0 -42.6 Q-26.5 -43.65 -26.35 -44.85 L-26.2 -45.35 -26.35 -44.85 Q-26.5 -43.65 -26.0 -42.6 L-27.65 -42.35 -30.0 -46.0 -30.4 -46.5 -34.15 -42.4 -35.75 -40.35 -36.5 -39.2 -37.7 -36.4 Q-38.15 -32.25 -37.35 -28.0 -36.6 -24.0 -36.65 -19.9 -36.7 -15.0 -37.55 -10.2 -37.8 -8.65 -36.75 -2.1 -35.75 4.4 -32.7 12.2 L-27.4 25.4 Q-25.15 30.7 -23.55 32.8 -22.0 34.8 -17.5 34.7 -17.45 37.45 -18.0 40.05 L-18.5 43.7 -18.8 46.05 -19.1 46.75 -19.8 47.0 -27.2 48.4 -29.1 49.05 -29.9 49.4 -30.45 49.55 -32.45 50.1 -30.6 55.35 -29.3 58.85 -27.2 65.35 -29.65 62.75 -30.3 62.05 Q-31.3 62.2 -30.85 64.0 -30.0 67.4 -29.95 70.9 L-35.45 63.05 -35.8 63.55 Q-36.8 65.95 -36.7 68.6 -36.6 70.6 -37.3 72.25 -38.1 68.8 -40.35 66.1 L-41.0 64.9 -41.2 65.35 -41.1 69.05 -40.85 72.7 -40.55 74.55 -43.0 71.45 -44.15 69.9 -45.6 68.1 -45.65 69.0 -47.95 69.05 -52.7 56.25 -52.95 55.55 -53.7 53.05 -54.15 51.05 -54.45 49.25 Q-55.15 43.65 -55.05 37.75 -55.0 36.15 -55.1 34.5 L-55.3 26.7 -55.55 13.8 -55.4 8.3 -55.1 2.75 Q-54.55 -5.8 -53.2 -14.2 L-52.55 -17.05 Q-51.5 -20.5 -50.85 -23.9 L-50.4 -25.85 Q-49.15 -30.2 -47.4 -34.5 L-44.9 -40.85 -43.85 -43.3 -43.25 -44.6 Q-41.25 -49.3 -38.65 -53.8 L-36.25 -57.9 -34.65 -59.95 -33.45 -60.85 -32.75 -60.7 -30.0 -58.8 -29.95 -59.4 -29.95 -59.85 M-4.15 -56.4 Q-0.9 -57.6 2.3 -59.15 L3.05 -59.55 5.3 -60.6 6.35 -60.95 6.7 -61.05 6.95 -61.15 7.45 -61.5 Q7.8 -61.7 8.15 -61.5 L10.6 -59.45 12.5 -56.9 18.0 -48.4 Q20.85 -44.3 22.65 -39.65 L24.7 -34.45 Q28.45 -24.95 31.6 -15.15 L34.45 -5.05 35.1 -1.9 35.7 1.45 36.2 6.0 36.5 11.05 36.6 13.8 36.5 16.1 36.1 19.3 33.9 33.15 Q33.25 38.0 32.2 42.8 33.25 38.0 33.9 33.15 L36.1 19.3 36.5 16.1 36.6 13.8 36.5 11.05 36.2 6.0 35.7 1.45 35.1 -1.9 34.45 -5.05 31.6 -15.15 Q28.45 -24.95 24.7 -34.45 L22.65 -39.65 Q20.85 -44.3 18.0 -48.4 L12.5 -56.9 10.6 -59.45 8.15 -61.5 Q7.8 -61.7 7.45 -61.5 L6.95 -61.15 6.7 -61.05 6.35 -60.95 5.3 -60.6 3.05 -59.55 2.3 -59.15 Q-0.9 -57.6 -4.15 -56.4 M-32.45 50.1 Q-34.55 43.6 -35.85 36.8 -37.8 26.35 -39.9 16.05 -41.25 9.45 -41.85 2.75 -42.75 -7.45 -41.4 -17.5 -41.2 -18.85 -41.15 -20.25 -40.75 -28.8 -37.7 -36.4 -40.75 -28.8 -41.15 -20.25 -41.2 -18.85 -41.4 -17.5 -42.75 -7.45 -41.85 2.75 -41.25 9.45 -39.9 16.05 -37.8 26.35 -35.85 36.8 -34.55 43.6 -32.45 50.1 M-27.5 -57.25 L-30.0 -58.8 -27.5 -57.25 M-23.4 -46.05 Q-23.95 -44.65 -23.9 -43.15 -23.95 -44.65 -23.4 -46.05 M-19.65 -47.1 Q-20.75 -45.25 -21.25 -43.25 -20.75 -45.25 -19.65 -47.1" fill="url(#gradient0)" fill-rule="evenodd" stroke="none"/>
      <path d="M-29.95 -59.85 Q-28.05 -62.1 -25.0 -63.7 L-22.95 -64.75 Q-16.85 -68.05 -10.55 -70.3 L-9.7 -70.5 -4.65 -71.0 -2.8 -71.2 2.3 -71.2 4.1 -71.1 7.8 -70.7 8.3 -70.6 Q12.8 -69.35 16.9 -67.45 L19.4 -65.95 21.2 -64.5 23.8 -62.45 25.8 -60.8 Q31.9 -54.75 37.05 -48.2 L37.85 -47.05 38.55 -45.95 Q41.1 -42.15 42.65 -37.7 L43.4 -35.5 Q45.95 -27.8 46.95 -19.35 47.9 -11.05 48.3 -2.75 L48.9 5.05 49.3 13.35 Q49.4 20.35 50.9 27.2 L51.75 30.8 53.75 39.6 Q55.2 46.65 58.1 53.35 L58.45 53.85 Q56.15 53.05 54.65 51.65 L53.85 51.1 Q50.75 49.7 47.4 49.2 L45.1 49.0 Q42.95 49.0 41.3 48.05 L40.5 47.75 Q34.65 46.35 32.2 42.8 L31.75 44.65 29.95 52.0 29.6 54.3 Q29.5 56.45 29.0 58.45 L27.1 66.75 26.75 68.6 Q26.2 72.2 24.8 75.5 23.35 78.95 20.7 81.95 20.7 80.0 20.2 78.25 19.6 75.95 18.85 76.4 L17.5 77.85 Q14.5 81.15 10.55 82.85 10.55 82.4 10.7 82.05 12.3 78.7 12.8 75.0 L12.85 74.55 5.5 80.55 6.1 79.25 Q7.9 76.45 9.25 73.2 L9.85 71.3 10.0 70.5 8.75 71.4 Q3.95 75.5 -1.85 77.35 L-0.9 76.0 Q1.95 72.4 2.75 68.1 L-1.3 70.6 Q-3.1 71.75 -3.7 71.35 L-2.95 70.75 -1.75 69.1 Q0.5 65.6 2.15 61.65 5.2 54.2 7.75 46.5 10.15 39.05 10.85 31.3 L11.2 27.15 11.6 23.0 11.6 22.55 Q11.9 17.95 11.65 13.35 L11.3 8.75 Q10.5 0.65 8.55 -7.3 L4.2 -25.3 2.95 -29.85 Q1.65 -34.1 -0.9 -37.8 -4.0 -42.35 -6.4 -47.3 -7.75 -46.65 -8.75 -45.55 M-17.5 34.7 Q-17.45 37.45 -18.0 40.05 L-18.5 43.7 -18.8 46.05 -19.1 46.75 -19.8 47.0 -27.2 48.4 -29.1 49.05 -29.9 49.4 -30.45 49.55 -32.45 50.1 -30.6 55.35 -29.3 58.85 -27.2 65.35 -29.65 62.75 -30.3 62.05 Q-31.3 62.2 -30.85 64.0 -30.0 67.4 -29.95 70.9 L-35.45 63.05 -35.8 63.55 Q-36.8 65.95 -36.7 68.6 -36.6 70.6 -37.3 72.25 -38.1 68.8 -40.35 66.1 L-41.0 64.9 -41.2 65.35 -41.1 69.05 -40.85 72.7 -40.55 74.55 -43.0 71.45 -44.15 69.9 -45.6 68.1 -45.65 69.0 -45.6 73.65 Q-46.9 71.95 -47.95 69.05 L-52.7 56.25 -52.95 55.55 -53.7 53.05 -54.15 51.05 -54.45 49.25 Q-55.15 43.65 -55.05 37.75 -55.0 36.15 -55.1 34.5 L-55.3 26.7 -55.55 13.8 -55.4 8.3 -55.1 2.75 Q-54.55 -5.8 -53.2 -14.2 L-52.55 -17.05 Q-51.5 -20.5 -50.85 -23.9 L-50.4 -25.85 Q-49.15 -30.2 -47.4 -34.5 L-44.9 -40.85 -43.85 -43.3 -43.25 -44.6 Q-41.25 -49.3 -38.65 -53.8 L-36.25 -57.9 -34.65 -59.95 -33.45 -60.85 -32.75 -60.7 -30.0 -58.8 -29.95 -59.4 M32.2 42.8 Q33.25 38.0 33.9 33.15 L36.1 19.3 36.5 16.1 36.6 13.8 36.5 11.05 36.2 6.0 35.7 1.45 35.1 -1.9 34.45 -5.05 31.6 -15.15 Q28.45 -24.95 24.7 -34.45 L22.65 -39.65 Q20.85 -44.3 18.0 -48.4 L12.5 -56.9 10.6 -59.45 8.15 -61.5 Q7.8 -61.7 7.45 -61.5 L6.95 -61.15 6.7 -61.05 6.35 -60.95 5.3 -60.6 3.05 -59.55 2.3 -59.15 Q-0.9 -57.6 -4.15 -56.4 M-30.0 -58.8 L-27.5 -57.25 M-37.7 -36.4 Q-40.75 -28.8 -41.15 -20.25 -41.2 -18.85 -41.4 -17.5 -42.75 -7.45 -41.85 2.75 -41.25 9.45 -39.9 16.05 -37.8 26.35 -35.85 36.8 -34.55 43.6 -32.45 50.1 M-10.75 -45.45 L-10.55 -45.8 M-10.75 -45.45 L-11.05 -45.1 -12.2 -43.25 M-16.3 -42.8 Q-15.15 -44.7 -13.55 -46.25 L-12.85 -46.95 M-18.65 -43.75 Q-18.2 -44.85 -17.4 -45.75 L-16.55 -46.7 M-19.1 -42.55 L-18.65 -43.75 M-26.0 -42.6 Q-26.5 -43.65 -26.35 -44.85 L-26.2 -45.35 M-26.0 -42.6 L-26.0 -42.55 M-23.9 -42.8 L-23.9 -43.15 Q-23.95 -44.65 -23.4 -46.05 M-21.4 -42.8 L-21.25 -43.25 Q-20.75 -45.25 -19.65 -47.1 M-37.7 -36.4 L-36.5 -39.2 -35.75 -40.35 -34.15 -42.4 -30.4 -46.5 -30.0 -46.0 -27.65 -42.35" fill="none" stroke="#170d0d" stroke-linecap="round" stroke-linejoin="round" stroke-width="2.0"/>
      <path d="M11.6 23.0 L7.2 25.7 Q-1.25 30.65 -6.8 32.6 -12.35 34.5 -17.15 34.7 L-17.5 34.7 Q-22.0 34.8 -23.55 32.8 -25.15 30.7 -27.4 25.4 L-32.7 12.2 Q-35.75 4.4 -36.75 -2.1 -37.8 -8.65 -37.55 -10.2 -36.7 -15.0 -36.65 -19.9 -36.6 -24.0 -37.35 -28.0 -38.15 -32.25 -37.7 -36.4" fill="none" stroke="#000000" stroke-linecap="round" stroke-linejoin="round" stroke-width="2.0"/>
    </g>
    </g>
  </g>
  <defs>
    <radialGradient cx="0" cy="0" gradientTransform="matrix(0.0481, 0.1394, -0.165, 0.0569, -7.5, -60.5)" gradientUnits="userSpaceOnUse" id="gradient0" r="819.2" spreadMethod="pad">
      <stop offset="0.0" stop-color="#a37712"/>
      <stop offset="0.18823529411764706" stop-color="#a37712"/>
      <stop offset="0.396078431372549" stop-color="#faeccd"/>
      <stop offset="0.6196078431372549" stop-color="#f0da93"/>
      <stop offset="1.0" stop-color="#a37712"/>
    </radialGradient>
  </defs>
</svg>