<svg xmlns:xlink="http://www.w3.org/1999/xlink" xmlns="http://www.w3.org/2000/svg" height="202.2px" width="161.9px">
  <g transform="matrix(1.0, 0.0, 0.0, 1.0, 74.15, 81.7)">
    <g data-characterId="1415" height="169.15" transform="matrix(1.0, 0.0, 0.0, 1.0, -44.0, -71.15)" width="111.8" xlink:href="#shape0"><g id="shape0" transform="matrix(1.0, 0.0, 0.0, 1.0, 44.0, 71.15)">
      <path d="M36.0 -1.0 Q42.2 4.95 50.5 5.95 L51.0 6.0 Q51.7 6.0 50.1 5.65 L48.95 5.05 Q45.85 2.4 43.35 -0.9 L41.4 -3.95 Q39.85 -6.75 39.35 -9.95 L39.05 -11.0 Q37.55 -15.3 36.85 -19.95 L36.55 -21.0 Q35.8 -22.9 35.35 -25.45 L35.05 -26.5 Q33.5 -30.55 32.8 -34.95 L32.15 -37.55 Q31.6 -39.2 31.35 -41.0 L31.0 -42.5 Q30.2 -44.6 30.25 -47.0 L30.05 -48.5 Q29.0 -52.9 28.3 -57.45 L28.15 -58.05 Q27.6 -60.25 26.3 -61.85 L25.5 -62.55 24.05 -63.55 Q21.45 -65.75 17.5 -67.55 13.95 -69.2 11.8 -70.75 L11.0 -71.05 Q8.5 -71.35 6.5 -70.5 L5.45 -70.1 4.55 -69.85 3.95 -69.7 1.45 -69.8 0.0 -70.0 -13.0 -69.75 -14.05 -69.65 Q-17.5 -68.9 -20.6 -67.15 -21.6 -66.6 -21.8 -65.45 -21.95 -64.7 -22.95 -64.55 L-23.25 -64.0 -23.0 -63.5 M22.5 -23.5 L19.9 -26.4 Q17.25 -29.25 15.35 -32.5 13.0 -36.5 11.9 -41.1 10.75 -46.0 8.8 -50.5 7.5 -53.5 5.0 -56.0 M24.0 -10.0 Q28.2 -1.55 36.0 3.5 33.9 3.75 32.1 2.8 28.8 1.1 26.0 -1.0 28.25 2.2 30.5 4.5 L31.0 5.0 30.05 4.85 29.45 4.7 Q27.95 4.35 26.55 3.45 24.4 2.0 22.0 1.05 L18.4 -0.6 Q19.3 0.75 19.7 2.45 L20.35 5.05 Q22.8 14.05 23.0 23.5 23.1 28.45 21.65 33.05 L20.85 35.45 Q17.85 44.35 13.2 52.15 13.0 52.5 12.95 53.0 12.75 56.8 14.0 60.0 14.15 56.35 17.45 53.9 L18.4 52.9 Q20.55 49.6 23.05 46.55 24.95 44.25 25.75 41.45 L26.4 38.0 Q26.7 35.45 27.7 33.35 L28.55 31.0 29.5 27.5 Q31.15 29.3 30.35 31.6 29.75 33.5 29.6 35.5 29.2 39.65 30.3 43.7 30.75 45.25 30.35 46.95 29.4 50.75 27.0 53.9 26.5 54.5 26.7 55.45 27.0 56.75 27.6 57.95 29.2 61.25 27.6 64.3 L25.45 67.45 Q24.0 69.0 22.9 70.75 21.75 72.5 21.35 74.55 21.0 76.5 21.25 78.45 L21.9 82.5 Q22.55 85.5 21.55 88.2 21.0 89.75 21.0 91.5 L20.8 95.5 23.95 94.4 Q26.75 93.2 24.8 90.3 24.25 89.5 24.2 88.5 24.0 85.6 25.5 83.0 27.25 79.95 26.7 76.55 L26.4 73.95 Q26.25 72.25 26.85 70.6 27.5 68.75 28.55 67.05 30.5 64.0 32.0 60.75 32.5 59.75 32.55 58.5 32.65 55.25 33.9 52.25 34.75 50.25 34.9 48.0 L35.2 43.5 Q35.4 41.15 36.5 39.0 36.85 45.5 37.8 52.05 38.6 57.55 36.75 62.75 36.25 64.25 36.7 65.95 L37.35 70.05 Q37.5 73.5 36.75 76.95 L35.0 84.0 Q33.95 87.65 36.45 90.9 37.25 92.0 37.35 93.5 L37.5 97.75 Q37.75 88.5 43.3 81.0 44.25 79.75 44.15 78.0 44.0 75.75 43.4 73.55 42.05 68.85 42.55 64.05 42.75 62.0 43.65 60.05 44.75 57.75 45.45 55.35 46.0 53.5 45.65 51.55 L44.6 47.45 Q43.25 43.55 45.0 40.0 L45.3 40.55 Q46.4 45.0 47.85 49.4 49.0 52.75 49.75 56.15 50.5 59.5 50.15 62.95 L49.35 70.05 Q49.0 73.25 49.15 76.5 L49.15 82.0 48.7 88.0 Q48.3 92.1 49.15 95.95 49.45 97.15 50.0 97.5 L50.65 96.9 Q51.25 95.0 51.45 93.0 52.5 84.0 55.75 75.7 56.5 73.75 56.5 71.5 56.5 69.0 55.75 66.75 L54.65 63.75 Q54.25 62.75 54.8 61.65 L57.45 55.8 Q58.25 53.75 58.25 51.5 58.35 43.0 54.0 36.0 55.0 36.25 55.4 36.9 57.25 39.75 58.25 43.05 60.35 49.95 61.3 57.0 62.85 68.2 62.55 79.5 L62.5 82.5 Q63.55 75.4 66.05 68.5 67.6 64.3 67.2 60.05 L66.55 54.9 Q66.0 51.5 66.5 48.1 67.0 44.75 67.65 41.45 68.0 39.75 67.65 38.1 67.25 36.25 66.5 34.5 65.0 31.05 62.25 28.25 61.5 27.5 61.25 26.45 61.0 25.5 61.15 24.5 61.5 22.0 59.5 22.2 58.0 22.35 57.75 21.05 L57.25 18.45 56.8 15.5 56.7 14.5 Q56.6 11.85 54.15 10.25 53.75 10.0 53.75 9.5 L53.9 7.0 Q54.15 4.6 52.25 3.2 L51.85 2.55 51.5 2.0 Q50.2 0.6 50.25 -1.5 50.25 -2.25 49.85 -2.95 48.45 -5.5 46.25 -7.3 45.75 -7.75 45.6 -8.5 L45.5 -10.0 Q48.3 -5.95 52.8 -3.2 54.0 -2.5 54.6 -1.3 L55.25 0.45 Q55.8 2.65 56.7 4.2 L57.0 5.5 57.0 6.5 Q57.8 0.05 55.4 -5.45 52.75 -11.65 47.8 -16.3 46.75 -17.25 45.95 -18.35 45.25 -19.25 45.25 -20.5 45.2 -22.85 43.5 -24.5 42.7 -25.3 42.75 -26.5 L42.7 -27.05 Q42.5 -28.25 42.7 -29.45 L42.8 -30.05 Q43.2 -31.7 42.55 -32.55 L40.35 -35.9 39.5 -37.0 Q37.65 -38.9 36.7 -42.05 L36.3 -43.45 36.0 -44.0 Q34.3 -45.9 32.95 -48.95 32.35 -50.2 31.65 -50.7 L30.9 -51.35 30.15 -52.1 M21.0 -34.0 Q20.35 -37.55 17.6 -40.55 L15.0 -43.5 M16.5 -20.0 Q12.8 -20.65 11.55 -24.5 8.6 -33.9 4.45 -42.75 2.25 -47.5 -0.5 -52.0 L-3.65 -56.9 M-21.5 -55.5 Q-20.2 -53.85 -19.65 -52.15 L-19.2 -51.35 Q-18.4 -50.4 -18.3 -49.0 -18.25 -48.5 -17.9 -48.1 L-10.95 -40.55 -9.4 -38.55 Q-8.0 -36.5 -6.15 -34.85 L-4.55 -32.95 Q-2.5 -29.95 -0.55 -26.0 L2.7 -18.55 3.45 -16.95 Q5.2 -13.95 6.95 -12.45 L7.8 -11.1 8.35 -9.9 Q9.3 -8.3 10.75 -6.75 L11.65 -5.6 13.05 -4.1 Q15.6 -2.05 18.4 -0.6 17.45 -2.0 16.0 -3.0 M19.5 -10.5 Q14.75 -9.6 12.35 -13.9 8.05 -21.65 5.05 -30.0 1.65 -39.3 -4.5 -47.0 L-11.5 -55.5 M20.8 95.5 Q19.2 95.55 20.5 96.0 L20.8 95.5 M37.5 98.0 L37.5 97.75 M-24.0 -64.0 Q-26.2 -65.9 -28.65 -64.25 -29.0 -64.0 -29.45 -63.85 L-30.0 -63.5 -34.85 -58.85 -35.6 -58.05 Q-38.45 -54.5 -40.45 -51.0 L-40.95 -50.0 -42.35 -45.95 -42.65 -45.05 -43.15 -43.05 -43.25 -42.0 Q-43.3 -40.3 -43.7 -39.4 L-44.0 -38.0 Q-44.05 -31.95 -43.55 -26.0 L-43.4 -24.5 Q-42.7 -20.0 -42.75 -15.0 L-42.7 -14.5 -42.05 -10.0 Q-41.05 -5.6 -41.15 -1.0 L-41.35 1.5 -41.7 3.95 -42.55 9.0 Q-42.9 11.8 -42.1 14.05 -41.0 17.2 -40.5 20.5 -40.15 22.5 -40.25 24.5 L-40.4 25.55 Q-41.0 27.6 -42.1 29.45 L-42.3 30.05 Q-42.6 31.35 -42.2 32.1 -41.25 33.8 -41.55 36.0 L-42.15 39.95 Q-42.8 43.85 -40.7 47.6 L-40.4 48.5 Q-40.25 49.2 -39.5 50.0 L-38.0 51.0 Q-38.0 49.4 -39.0 48.0 L-39.85 46.45 Q-41.4 42.65 -39.35 39.1 -38.2 37.15 -38.25 35.0 -38.25 34.5 -38.4 34.0 -38.75 33.0 -38.6 32.05 L-38.1 30.9 Q-35.9 27.55 -35.8 23.5 L-35.6 21.5 -35.5 19.5 Q-31.7 26.0 -33.95 33.5 -34.35 35.0 -33.7 36.1 -31.8 39.25 -32.15 43.0 -32.55 47.5 -30.3 51.4 L-27.5 56.0 Q-30.05 50.75 -28.85 45.4 L-28.35 42.5 Q-28.1 39.55 -29.4 36.95 -30.95 33.8 -28.75 31.75 L-28.5 31.0 Q-25.1 38.9 -23.85 47.4 -23.75 48.25 -22.95 48.95 -21.6 50.25 -20.95 51.9 -21.3 48.2 -21.1 44.5 L-20.55 41.5 Q-19.7 38.35 -20.4 35.0 -21.6 34.8 -22.45 33.95 L-23.95 31.95 -24.35 30.95 Q-24.5 30.0 -24.95 29.45 L-25.65 28.7 -26.4 27.45 Q-26.9 25.7 -27.9 24.45 L-28.45 23.5 Q-32.1 14.8 -34.85 5.95 L-37.65 -2.45 Q-38.7 -5.3 -38.4 -8.5 L-37.75 -12.05 Q-37.1 -14.2 -36.75 -16.45 -36.45 -18.7 -36.5 -21.0 -36.55 -23.05 -36.9 -25.0 -37.6 -29.35 -37.5 -34.0 L-37.35 -34.95 -35.6 -39.05 -34.8 -40.35 -32.05 -44.5 -31.4 -45.4 Q-29.65 -47.35 -28.4 -49.45 L-26.4 -52.4 -25.15 -54.1 Q-23.6 -56.35 -21.0 -57.0 M-20.4 35.0 L-20.5 34.5 M-20.95 51.9 Q-20.35 53.5 -20.5 55.5 L-20.95 51.9 Z" fill="none" stroke="#000000" stroke-linecap="round" stroke-linejoin="round" stroke-width="1.5"/>
    </g>
  </g>
  </g>
  <defs>
    </defs>
</svg>