<svg xmlns:xlink="http://www.w3.org/1999/xlink" xmlns="http://www.w3.org/2000/svg" height="98.75px" width="161.15px">
  <g transform="matrix(1.0, 0.0, 0.0, 1.0, 83.0, 71.7)">
    <g data-characterId="1264" height="58.45" transform="matrix(1.0, 0.0, 0.0, 1.0, -57.35, -31.4)" width="113.0" xlink:href="#shape0"><g id="shape0" transform="matrix(1.0, 0.0, 0.0, 1.0, 57.35, 31.4)">
      <path d="M16.5 15.5 Q28.85 17.35 39.8 12.1 52.35 6.1 50.9 -7.65 L50.85 -8.15 50.8 -8.2 50.0 -9.95 49.1 -11.15 Q44.35 -17.5 28.2 -25.75 L24.0 -28.0 28.2 -25.75 Q44.35 -17.5 49.1 -11.15 L50.0 -9.95 50.8 -8.2 50.85 -8.15 50.9 -7.65 Q52.35 6.1 39.8 12.1 28.85 17.35 16.5 15.5 M24.95 -30.9 Q31.0 -30.2 36.8 -27.85 43.5 -25.2 47.15 -21.3 51.8 -16.3 54.45 -10.2 55.9 -6.85 54.3 -3.95 53.55 -6.4 52.25 -8.4 53.55 -6.4 54.3 -3.95 55.45 0.8 54.9 5.75 54.65 8.1 53.5 9.95 49.55 16.2 41.65 17.9 L18.2 22.8 Q6.65 24.85 -5.2 25.25 L-26.2 26.5 Q-39.1 27.2 -49.55 20.5 -60.95 13.25 -54.55 1.55 -48.85 -8.85 -38.3 -14.35 -30.9 -21.05 -21.5 -24.0 L-22.3 -19.55 Q-23.0 -16.25 -23.55 -10.8 L-16.2 -8.05 Q-4.7 -3.65 7.6 -5.3 12.65 -6.0 16.9 -7.95 L25.6 -12.8 24.2 -23.15 23.75 -27.75 24.0 -28.0 24.05 -28.85 24.25 -29.6 24.95 -30.9 M30.5 -16.5 L29.75 -15.55 Q28.05 -13.65 25.6 -12.8 28.05 -13.65 29.75 -15.55 L30.5 -16.5 M-28.25 -12.5 L-23.55 -10.8 -28.25 -12.5 M-24.5 14.0 Q-31.0 12.7 -35.4 8.05 -45.1 -2.15 -38.3 -14.35 -45.1 -2.15 -35.4 8.05 -31.0 12.7 -24.5 14.0" fill="#8d6f4c" fill-rule="evenodd" stroke="none"/>
      <path d="M24.0 -28.0 L28.2 -25.75 Q44.35 -17.5 49.1 -11.15 L50.0 -9.95 50.8 -8.2 50.85 -8.15 50.9 -7.65 Q52.35 6.1 39.8 12.1 28.85 17.35 16.5 15.5 M54.3 -3.95 Q55.9 -6.85 54.45 -10.2 51.8 -16.3 47.15 -21.3 43.5 -25.2 36.8 -27.85 31.0 -30.2 24.95 -30.9 L24.55 -30.25 24.25 -29.6 24.05 -28.85 24.0 -28.0 M23.75 -27.75 L24.2 -23.15 25.6 -12.8 Q28.05 -13.65 29.75 -15.55 L30.5 -16.5 M25.6 -12.8 L16.9 -7.95 Q12.65 -6.0 7.6 -5.3 -4.7 -3.65 -16.2 -8.05 L-23.55 -10.8 -28.25 -12.5 M54.3 -3.95 Q53.55 -6.4 52.25 -8.4 M-38.3 -14.35 Q-48.85 -8.85 -54.55 1.55 -60.95 13.25 -49.55 20.5 -39.1 27.2 -26.2 26.5 L-5.2 25.25 Q6.65 24.85 18.2 22.8 L41.65 17.9 Q49.55 16.2 53.5 9.95 54.65 8.1 54.9 5.75 55.45 0.8 54.3 -3.95 M-23.55 -10.8 Q-23.0 -16.25 -22.3 -19.55 L-21.5 -24.0 Q-30.9 -21.05 -38.3 -14.35 -45.1 -2.15 -35.4 8.05 -31.0 12.7 -24.5 14.0" fill="none" stroke="#000000" stroke-linecap="round" stroke-linejoin="round" stroke-width="2.0"/>
      <path d="M2.8 -0.65 L4.35 -1.7 5.15 -1.7 Q6.45 -1.65 7.3 -0.65 7.5 0.65 6.6 1.35 0.95 5.5 2.8 -0.65 M4.05 -0.15 L3.85 -0.1 3.6 -0.05 3.5 0.05 Q3.15 0.3 3.1 0.7 L3.1 0.8 3.35 1.1 3.55 1.1 Q4.95 0.6 4.05 -0.15 M6.15 -0.15 L6.1 -0.25 Q5.95 -0.5 5.65 -0.55 L5.45 -0.5 5.2 -0.35 Q4.7 0.6 3.85 1.2 5.7 1.75 6.15 -0.15 M19.05 -6.65 L19.0 -6.75 18.6 -7.05 18.4 -7.0 Q17.7 -6.4 17.95 -5.4 18.25 -5.0 18.7 -5.2 L18.8 -5.4 19.05 -6.65 M11.9 -1.3 L13.05 -1.35 13.25 -1.6 Q13.6 -2.0 13.6 -2.55 L13.45 -2.75 13.35 -3.0 13.15 -3.1 12.95 -3.15 12.55 -3.05 12.4 -2.85 12.2 -2.2 Q12.05 -2.8 11.4 -2.9 L11.1 -2.75 Q10.1 -2.2 10.85 -1.35 L11.6 -1.2 11.9 -1.3 M20.2 -7.15 L20.0 -7.25 19.85 -7.1 Q19.0 -5.7 18.95 -4.05 L19.65 -3.95 19.8 -4.05 Q20.55 -5.0 20.6 -6.3 L20.55 -6.5 20.35 -7.05 20.2 -7.15 M28.6 -15.25 Q29.95 -14.65 29.8 -13.15 L29.45 -12.6 Q26.9 -11.0 26.9 -15.0 L27.6 -15.45 28.6 -15.25 M31.85 -14.95 L31.4 -14.9 Q28.65 -15.55 29.65 -18.1 30.5 -17.9 31.15 -17.3 32.1 -16.3 31.85 -14.95 M14.3 -1.1 L12.95 -0.15 10.95 -0.2 Q7.45 -2.15 12.65 -4.4 14.6 -3.8 14.3 -1.1 M24.9 -10.2 Q25.45 -10.7 24.7 -10.95 L24.55 -10.85 Q23.95 -10.35 24.7 -10.1 L24.9 -10.2 M24.15 -8.45 L22.65 -9.7 23.35 -12.85 Q28.05 -11.6 24.15 -8.45 M20.8 -8.9 Q22.35 -7.95 21.1 -3.75 19.8 0.4 16.7 -5.75 19.2 -9.9 20.8 -8.9 M-32.55 -20.05 Q-32.2 -19.55 -32.2 -18.85 -32.2 -18.15 -32.55 -17.65 -32.9 -17.15 -33.4 -17.15 -33.9 -17.15 -34.25 -17.65 -34.6 -18.15 -34.6 -18.85 -34.6 -19.55 -34.25 -20.05 -33.9 -20.55 -33.4 -20.55 L-32.55 -20.05 M-32.65 -11.25 Q-32.25 -10.8 -32.25 -10.15 -32.25 -9.5 -32.65 -9.05 -33.05 -8.6 -33.65 -8.6 -34.25 -8.6 -34.65 -9.05 -35.05 -9.5 -35.05 -10.15 -35.05 -10.8 -34.65 -11.25 -34.25 -11.7 -33.65 -11.7 -33.05 -11.7 -32.65 -11.25 M-35.65 -13.8 L-35.9 -15.4 -34.5 -16.45 -33.55 -14.6 -34.55 -13.35 -35.65 -13.8 M-31.25 -6.65 L-31.25 -6.55 Q-31.2 -6.0 -30.6 -6.05 L-30.45 -6.1 Q-30.1 -6.25 -30.1 -6.6 L-30.2 -6.7 -30.75 -7.0 -30.95 -6.95 -31.25 -6.65 M-32.3 -6.6 L-32.0 -7.55 Q-28.7 -8.3 -28.25 -4.85 L-28.85 -4.6 Q-31.5 -3.6 -32.3 -6.6 M-29.5 -5.5 L-29.5 -5.6 Q-29.7 -6.05 -30.3 -6.1 L-30.4 -6.05 Q-30.4 -5.15 -29.5 -5.5 M-25.4 -1.85 L-25.35 -2.0 -25.3 -2.25 -25.35 -2.35 Q-25.6 -2.8 -26.15 -2.8 L-26.5 -2.65 -27.05 -2.15 -27.0 -1.85 -26.9 -1.65 -26.6 -1.5 -26.55 -1.1 -26.45 -1.0 Q-24.7 -0.15 -24.3 -1.95 L-24.35 -2.05 -24.7 -2.25 -25.4 -1.85 M-23.65 -3.35 L-22.8 -1.9 Q-23.4 0.55 -26.05 0.4 -26.95 0.7 -27.35 -0.15 -29.65 -4.9 -23.65 -3.35 M-17.65 -1.2 L-20.1 -0.3 -20.7 0.4 Q-21.35 1.35 -21.35 2.4 L-21.15 2.6 -20.75 2.8 Q-20.4 2.75 -20.2 2.5 L-19.85 2.1 Q-18.65 2.55 -17.55 1.85 -14.15 -0.15 -17.65 -1.2 M-11.2 -1.4 L-10.95 -1.15 Q-7.8 0.7 -7.2 4.0 -6.9 5.55 -7.65 6.65 -12.95 14.7 -21.0 8.25 -23.5 6.25 -22.9 3.35 -20.95 -5.6 -11.2 -1.4 M-4.5 2.4 L-4.55 2.75 -4.45 3.15 Q-4.25 3.5 -3.85 3.4 L-3.75 3.35 Q-3.0 2.45 -3.85 1.95 L-4.05 2.0 -4.5 2.4 M-2.95 1.9 L-2.9 2.2 -2.6 3.4 -3.95 3.55 Q-3.95 4.5 -2.85 4.65 L-2.6 4.55 Q-0.3 3.3 -2.3 1.5 -2.75 1.55 -2.95 1.9 M-1.75 -0.25 Q1.7 2.35 -1.1 5.65 -2.05 6.75 -3.2 6.05 -9.05 2.6 -2.0 0.0 L-1.75 -0.25 M-21.05 4.5 Q-21.5 5.0 -21.25 6.05 L-20.1 7.3 Q-16.5 10.1 -12.55 8.05 -10.75 7.15 -10.25 5.2 -9.25 1.3 -13.05 -0.6 -16.3 -0.15 -14.25 1.9 -14.15 2.3 -14.2 2.65 -14.3 3.6 -15.0 4.25 L-17.95 4.55 Q-18.5 4.15 -19.2 4.25 L-19.05 4.0 -19.05 3.9 Q-19.2 2.9 -20.25 2.85 L-20.45 2.9 Q-21.15 3.05 -21.4 3.7 L-21.4 3.9 -21.4 4.15 -21.05 4.5" fill="#5b9d17" fill-rule="evenodd" stroke="none"/>
      <path d="M6.15 -0.15 Q5.7 1.75 3.85 1.2 4.7 0.6 5.2 -0.35 L5.45 -0.5 5.65 -0.55 Q5.95 -0.5 6.1 -0.25 L6.15 -0.15 M20.2 -7.15 L20.35 -7.05 20.55 -6.5 20.6 -6.3 Q20.55 -5.0 19.8 -4.05 L19.65 -3.95 18.95 -4.05 Q19.0 -5.7 19.85 -7.1 L20.0 -7.25 20.2 -7.15 M12.2 -2.2 L12.4 -2.85 12.55 -3.05 12.95 -3.15 13.15 -3.1 13.35 -3.0 13.45 -2.75 13.6 -2.55 Q13.6 -2.0 13.25 -1.6 L13.05 -1.35 11.9 -1.3 12.0 -1.45 12.25 -2.05 12.2 -2.15 12.2 -2.2 M24.9 -10.2 L24.7 -10.1 Q23.95 -10.35 24.55 -10.85 L24.7 -10.95 Q25.45 -10.7 24.9 -10.2 M-29.5 -5.5 Q-30.4 -5.15 -30.4 -6.05 L-30.3 -6.1 Q-29.7 -6.05 -29.5 -5.6 L-29.5 -5.5 M-26.6 -1.5 L-25.55 -1.7 -25.4 -1.85 -24.7 -2.25 -24.35 -2.05 -24.3 -1.95 Q-24.7 -0.15 -26.45 -1.0 L-26.55 -1.1 -26.6 -1.5 M-2.95 1.9 Q-2.75 1.55 -2.3 1.5 -0.3 3.3 -2.6 4.55 L-2.85 4.65 Q-3.95 4.5 -3.95 3.55 L-2.6 3.4 -2.9 2.2 -2.95 1.9 M-19.2 4.25 Q-18.5 4.15 -17.95 4.55 L-15.0 4.25 Q-14.3 3.6 -14.2 2.65 -14.15 2.3 -14.25 1.9 -16.3 -0.15 -13.05 -0.6 -9.25 1.3 -10.25 5.2 -10.75 7.15 -12.55 8.05 -16.5 10.1 -20.1 7.3 L-21.25 6.05 Q-21.5 5.0 -21.05 4.5 -20.0 5.35 -19.2 4.25" fill="#34580e" fill-rule="evenodd" stroke="none"/>
      <path d="M4.05 -0.15 Q4.95 0.6 3.55 1.1 L3.35 1.1 3.1 0.8 3.1 0.7 Q3.15 0.3 3.5 0.05 L3.6 -0.05 3.85 -0.1 4.05 -0.15 M19.05 -6.65 L18.8 -5.4 18.7 -5.2 Q18.25 -5.0 17.95 -5.4 17.7 -6.4 18.4 -7.0 L18.6 -7.05 19.0 -6.75 19.05 -6.65 M11.9 -1.3 L11.6 -1.2 10.85 -1.35 Q10.1 -2.2 11.1 -2.75 L11.4 -2.9 Q12.05 -2.8 12.2 -2.2 L12.2 -2.15 12.25 -2.05 12.0 -1.45 11.9 -1.3 M-31.25 -6.65 L-30.95 -6.95 -30.75 -7.0 -30.2 -6.7 -30.1 -6.6 Q-30.1 -6.25 -30.45 -6.1 L-30.6 -6.05 Q-31.2 -6.0 -31.25 -6.55 L-31.25 -6.65 M-26.6 -1.5 L-26.9 -1.65 -27.0 -1.85 -27.05 -2.15 -26.5 -2.65 -26.15 -2.8 Q-25.6 -2.8 -25.35 -2.35 L-25.3 -2.25 -25.35 -2.0 -25.4 -1.85 -25.55 -1.7 -26.6 -1.5 M-17.65 -1.2 Q-14.15 -0.15 -17.55 1.85 -18.65 2.55 -19.85 2.1 L-20.2 2.5 Q-20.4 2.75 -20.75 2.8 L-21.15 2.6 -21.35 2.4 Q-21.35 1.35 -20.7 0.4 L-20.1 -0.3 -17.65 -1.2 M-4.5 2.4 L-4.05 2.0 -3.85 1.95 Q-3.0 2.45 -3.75 3.35 L-3.85 3.4 Q-4.25 3.5 -4.45 3.15 L-4.55 2.75 -4.5 2.4 M-21.05 4.5 L-21.4 4.15 -21.4 3.9 -21.4 3.7 Q-21.15 3.05 -20.45 2.9 L-20.25 2.85 Q-19.2 2.9 -19.05 3.9 L-19.05 4.0 -19.2 4.25 Q-20.0 5.35 -21.05 4.5" fill="#c6f099" fill-rule="evenodd" stroke="none"/>
      <path d="M2.8 -0.65 Q0.95 5.5 6.6 1.35 7.5 0.65 7.3 -0.65 6.45 -1.65 5.15 -1.7 L4.35 -1.7 2.8 -0.65 M14.3 -1.1 Q14.6 -3.8 12.65 -4.4 7.45 -2.15 10.95 -0.2 L12.95 -0.15 14.3 -1.1 M31.85 -14.95 Q32.1 -16.3 31.15 -17.3 30.5 -17.9 29.65 -18.1 28.65 -15.55 31.4 -14.9 L31.85 -14.95 M28.6 -15.25 L27.6 -15.45 26.9 -15.0 Q26.9 -11.0 29.45 -12.6 L29.8 -13.15 Q29.95 -14.65 28.6 -15.25 M20.8 -8.9 Q19.2 -9.9 16.7 -5.75 19.8 0.4 21.1 -3.75 22.35 -7.95 20.8 -8.9 M24.15 -8.45 Q28.05 -11.6 23.35 -12.85 L22.65 -9.7 24.15 -8.45 M-32.55 -20.05 Q-32.2 -19.55 -32.2 -18.85 -32.2 -18.15 -32.55 -17.65 -32.9 -17.15 -33.4 -17.15 -33.9 -17.15 -34.25 -17.65 -34.6 -18.15 -34.6 -18.85 -34.6 -19.55 -34.25 -20.05 -33.9 -20.55 -33.4 -20.55 L-32.55 -20.05 M-35.65 -13.8 L-34.55 -13.35 -33.55 -14.6 -34.5 -16.45 -35.9 -15.4 -35.65 -13.8 M-32.65 -11.25 Q-33.05 -11.7 -33.65 -11.7 -34.25 -11.7 -34.65 -11.25 -35.05 -10.8 -35.05 -10.15 -35.05 -9.5 -34.65 -9.05 -34.25 -8.6 -33.65 -8.6 -33.05 -8.6 -32.65 -9.05 -32.25 -9.5 -32.25 -10.15 -32.25 -10.8 -32.65 -11.25 M-32.3 -6.6 Q-31.5 -3.6 -28.85 -4.6 L-28.25 -4.85 Q-28.7 -8.3 -32.0 -7.55 L-32.3 -6.6 M-23.65 -3.35 L-22.8 -1.9 Q-22.8 -2.5 -23.05 -2.9 -23.3 -3.35 -23.65 -3.35 -29.65 -4.9 -27.35 -0.15 -26.95 0.7 -26.05 0.4 -23.4 0.55 -22.8 -1.9 M-11.2 -1.4 Q-20.95 -5.6 -22.9 3.35 -23.5 6.25 -21.0 8.25 -12.95 14.7 -7.65 6.65 -6.9 5.55 -7.2 4.0 -7.8 0.7 -10.95 -1.15 M-2.0 0.0 Q-9.05 2.6 -3.2 6.05 -2.05 6.75 -1.1 5.65 1.7 2.35 -1.75 -0.25" fill="none" stroke="#000000" stroke-linecap="round" stroke-linejoin="round" stroke-width="2.0"/>
    </g>
  </g>
  </g>
  <defs>
    </defs>
</svg>