<svg xmlns:xlink="http://www.w3.org/1999/xlink" xmlns="http://www.w3.org/2000/svg" height="202.2px" width="161.9px">
  <g transform="matrix(1.0, 0.0, 0.0, 1.0, 74.15, 81.7)">
    <g data-characterId="1395" height="148.45" transform="matrix(1.0, 0.0, 0.0, 1.0, -53.2, -72.55)" width="121.75" xlink:href="#shape0"><g id="shape0" transform="matrix(1.0, 0.0, 0.0, 1.0, 53.2, 72.55)">
      <path d="M-34.4 -56.7 Q-28.2 -61.25 -21.75 -65.6 L-15.4 -69.45 Q-10.25 -72.1 -4.45 -72.0 -2.05 -71.95 0.35 -71.05 L5.25 -71.2 Q6.8 -71.9 8.55 -72.05 16.95 -71.6 24.25 -67.55 L26.3 -65.9 Q34.6 -57.65 41.85 -48.5 43.5 -46.45 44.55 -43.95 46.8 -38.7 47.25 -33.0 47.65 -28.2 49.1 -23.55 50.6 -18.75 53.5 -14.7 60.3 -5.3 61.6 6.05 61.85 8.2 61.6 10.45 L60.05 22.7 Q59.0 30.6 62.7 37.7 L65.9 44.05 Q68.55 49.65 67.75 55.85 64.7 59.75 64.45 64.5 64.3 67.75 65.6 70.7 66.65 73.1 68.05 75.4 61.65 71.85 59.65 64.8 58.4 60.45 58.25 56.25 57.2 61.2 53.7 64.8 47.85 70.9 39.7 72.8 L45.7 66.05 47.3 63.6 Q49.9 57.7 49.45 51.2 L49.45 50.65 49.45 51.15 49.2 52.0 Q45.4 60.9 36.3 64.8 L35.7 63.5 36.45 62.3 Q39.55 56.8 39.95 50.5 L27.15 49.25 26.3 31.05 Q24.65 37.15 20.1 41.95 15.7 46.55 15.35 52.6 10.95 43.85 14.45 34.7 16.1 30.5 17.25 26.1 L17.6 23.15 Q17.25 16.1 14.55 9.5 11.15 1.3 11.55 -7.4 11.85 -13.85 14.9 -19.7 18.6 -26.85 16.75 -34.7 L16.05 -37.7 15.5 -38.25 14.95 -40.85 13.55 -41.4 12.5 -41.25 Q6.9 -37.55 8.05 -30.2 L6.6 -29.35 Q-7.3 -30.9 -20.75 -27.9 L-21.9 -29.9 -23.05 -27.05 -24.65 -29.65 -25.35 -29.9 -25.5 -29.55 -25.7 -26.95 -37.0 -24.7 -36.85 -24.15 Q-34.5 -13.25 -35.4 -10.45 -36.35 -7.75 -36.15 -1.55 -36.0 4.65 -30.65 14.95 -26.7 22.65 -23.5 27.35 L-19.6 33.1 Q-18.95 34.2 -17.6 34.75 L-19.3 45.3 -27.85 46.4 Q-27.5 49.35 -29.1 51.8 L-32.3 56.45 -32.35 56.35 -35.45 47.2 -35.3 46.35 -36.05 47.3 -39.15 54.1 -42.3 48.6 -42.5 54.1 -42.2 56.15 Q-40.85 60.75 -38.0 64.75 -45.5 61.65 -50.2 55.1 -54.6 48.95 -51.25 41.85 -50.2 39.7 -48.3 38.1 -44.2 34.65 -43.45 29.45 -43.05 26.85 -43.4 24.2 -44.0 19.4 -43.3 14.7 -42.25 7.6 -43.75 0.6 -46.0 -10.15 -45.75 -21.15 -45.55 -29.85 -44.55 -38.45 -43.65 -46.25 -37.95 -52.4 L-37.5 -52.05 -33.65 -55.65 -34.4 -56.7 M-29.35 -56.1 L-33.65 -55.65 -29.35 -56.1 M9.2 -68.75 L16.1 -67.9 9.2 -68.75 M25.85 -63.55 L34.8 -52.05 25.85 -63.55 M21.55 -58.4 L21.8 -58.3 Q27.5 -52.45 29.05 -44.3 27.5 -52.45 21.8 -58.3 L21.55 -58.4 M27.3 -57.25 L27.0 -58.1 28.4 -56.65 Q35.85 -48.1 39.7 -37.4 35.85 -48.1 28.4 -56.65 L27.0 -58.1 27.3 -57.25 M24.7 -26.45 L25.0 -30.8 24.7 -26.45 M29.9 -28.5 L30.05 -29.35 Q30.85 -34.75 29.3 -40.0 30.85 -34.75 30.05 -29.35 L29.9 -28.5 M23.0 -30.8 L23.2 -33.1 Q23.5 -41.4 19.25 -48.35 23.5 -41.4 23.2 -33.1 L23.0 -30.8 M36.8 -23.6 L37.25 -31.65 Q37.7 -37.5 34.8 -42.6 37.7 -37.5 37.25 -31.65 L36.8 -23.6 M33.35 -40.3 L32.75 -29.85 Q32.55 -25.3 34.85 -21.3 38.75 -14.45 42.85 -8.05 L44.05 -5.45 Q44.9 -2.85 44.85 -0.15 44.65 10.6 42.55 21.5 41.75 25.65 41.4 29.95 41.0 34.3 43.2 38.25 41.0 34.3 41.4 29.95 41.75 25.65 42.55 21.5 44.65 10.6 44.85 -0.15 44.9 -2.85 44.05 -5.45 L42.85 -8.05 Q38.75 -14.45 34.85 -21.3 32.55 -25.3 32.75 -29.85 L33.35 -40.3 M15.8 0.0 Q13.95 -2.4 13.65 -5.45 13.05 -11.3 14.95 -17.0 13.05 -11.3 13.65 -5.45 13.95 -2.4 15.8 0.0 M18.1 -17.85 L18.75 -20.6 Q21.0 -29.9 19.25 -39.4 21.0 -29.9 18.75 -20.6 L18.1 -17.85 M2.85 -32.5 L3.1 -35.35 Q4.0 -42.0 8.6 -46.9 4.0 -42.0 3.1 -35.35 L2.85 -32.5 M24.15 -11.5 Q24.25 -6.8 21.45 -2.85 20.35 -1.4 19.85 0.5 17.95 7.85 22.4 14.45 27.5 22.15 26.3 31.05 27.5 22.15 22.4 14.45 17.95 7.85 19.85 0.5 20.35 -1.4 21.45 -2.85 24.25 -6.8 24.15 -11.5 M28.15 -5.75 Q26.0 -4.0 25.35 -1.4 22.95 7.95 28.15 15.8 22.95 7.95 25.35 -1.4 26.0 -4.0 28.15 -5.75 M22.15 -24.45 L22.15 -28.5 22.15 -24.45 M33.65 -9.8 L31.5 -13.4 Q25.5 -24.05 26.45 -36.25 25.5 -24.05 31.5 -13.4 L33.65 -9.8 M15.5 44.6 Q16.75 42.25 18.3 40.1 21.35 35.95 22.75 31.0 23.3 28.95 22.9 26.85 21.55 19.2 18.95 11.7 15.0 0.35 20.2 -10.95 L23.3 -18.0 Q24.95 -22.15 23.3 -26.75 24.95 -22.15 23.3 -18.0 L20.2 -10.95 Q15.0 0.35 18.95 11.7 21.55 19.2 22.9 26.85 23.3 28.95 22.75 31.0 21.35 35.95 18.3 40.1 16.75 42.25 15.5 44.6 M43.4 -28.2 L43.15 -33.95 43.4 -28.2 M40.55 -46.6 L42.95 -40.15 Q43.6 -38.35 43.5 -36.55 43.05 -27.0 46.3 -18.1 43.05 -27.0 43.5 -36.55 43.6 -38.35 42.95 -40.15 L40.55 -46.6 M32.5 -21.0 L30.2 -25.05 32.5 -21.0 M39.4 25.6 Q40.4 19.45 42.15 13.45 44.2 6.4 42.5 -0.85 41.9 -3.3 40.8 -5.55 35.65 -16.3 31.9 -27.6 35.65 -16.3 40.8 -5.55 41.9 -3.3 42.5 -0.85 44.2 6.4 42.15 13.45 40.4 19.45 39.4 25.6 M47.45 -2.9 L46.75 -4.9 Q44.85 -8.9 43.5 -13.0 40.1 -23.65 40.25 -34.8 40.1 -23.65 43.5 -13.0 44.85 -8.9 46.75 -4.9 L47.45 -2.9 M47.45 -17.85 Q47.65 -16.6 48.2 -15.5 51.0 -9.7 54.1 -4.1 56.55 0.35 56.75 5.75 57.1 13.9 55.5 22.15 57.1 13.9 56.75 5.75 56.55 0.35 54.1 -4.1 51.0 -9.7 48.2 -15.5 47.65 -16.6 47.45 -17.85 M41.7 -39.7 L43.15 -36.25 41.7 -39.7 M-29.35 -57.5 L-27.05 -59.55 -29.35 -57.5 M13.2 -52.95 L-0.45 -54.9 Q-9.8 -56.35 -19.3 -56.1 -9.8 -56.35 -0.45 -54.9 L13.2 -52.95 M-18.15 -65.3 L-20.75 -62.45 -18.15 -65.3 M-43.2 -39.15 L-43.6 -36.3 Q-44.8 -25.25 -42.3 -14.4 -44.8 -25.25 -43.6 -36.3 L-43.2 -39.15 M-17.55 -32.25 Q-18.2 -33.2 -18.1 -34.3 -17.05 -43.9 -11.55 -52.35 -17.05 -43.9 -18.1 -34.3 -18.2 -33.2 -17.55 -32.25 M-41.75 -22.15 L-42.3 -14.4 -41.35 -8.4 Q-39.2 2.6 -39.75 13.8 -39.2 2.6 -41.35 -8.4 L-42.3 -14.4 -41.75 -22.15 M-14.7 -31.95 L-14.65 -32.25 Q-14.3 -43.2 -7.5 -51.8 -14.3 -43.2 -14.65 -32.25 L-14.7 -31.95 M-0.3 -34.8 L-0.45 -35.5 Q-0.25 -43.35 4.85 -49.5 -0.25 -43.35 -0.45 -35.5 L-0.3 -34.8 M-5.5 -32.25 L-5.65 -33.05 Q-5.1 -41.9 0.25 -49.5 -5.1 -41.9 -5.65 -33.05 L-5.5 -32.25 M-37.7 -27.9 L-38.55 -29.75 Q-39.8 -32.9 -39.45 -36.3 -38.45 -45.35 -32.8 -52.35 -38.45 -45.35 -39.45 -36.3 -39.8 -32.9 -38.55 -29.75 L-37.7 -27.9 M-35.4 -27.35 Q-36.75 -30.0 -36.7 -33.0 -36.6 -42.0 -32.8 -50.05 -36.6 -42.0 -36.7 -33.0 -36.75 -30.0 -35.4 -27.35 M-32.8 -29.05 L-33.0 -30.1 Q-33.75 -42.0 -27.35 -52.35 -33.75 -42.0 -33.0 -30.1 L-32.8 -29.05 M-28.8 -28.5 L-29.25 -30.3 Q-30.8 -39.9 -25.65 -48.6 -30.8 -39.9 -29.25 -30.3 L-28.8 -28.5 M-22.45 -31.35 L-22.4 -33.65 Q-22.25 -40.7 -19.3 -46.9 -22.25 -40.7 -22.4 -33.65 L-22.45 -31.35 M-37.5 -52.05 Q-39.0 -49.9 -39.85 -47.4 -43.9 -35.5 -40.0 -23.6 L-37.0 -24.7 -40.0 -23.6 Q-43.9 -35.5 -39.85 -47.4 -39.0 -49.9 -37.5 -52.05 M-26.3 -31.2 Q-26.75 -42.65 -18.7 -51.2 -26.75 -42.65 -26.3 -31.2 M-8.5 -32.85 Q-9.1 -44.3 -0.9 -52.35 -9.1 -44.3 -8.5 -32.85 M-28.2 28.2 Q-36.75 34.65 -39.75 44.35 L-40.35 43.15 Q-42.05 38.55 -40.3 33.8 L-38.45 29.8 Q-35.5 24.65 -34.45 18.9 -34.2 17.7 -34.45 16.55 -35.5 11.25 -36.85 6.05 -35.5 11.25 -34.45 16.55 -34.2 17.7 -34.45 18.9 -35.5 24.65 -38.45 29.8 L-40.3 33.8 Q-42.05 38.55 -40.35 43.15 L-39.75 44.35 Q-36.75 34.65 -28.2 28.2 M-37.7 33.65 Q-32.85 28.05 -31.75 20.75 L-31.6 19.15 -31.95 14.4 -31.6 19.15 -31.75 20.75 Q-32.85 28.05 -37.7 33.65 M-38.55 37.4 Q-39.1 35.6 -38.35 33.85 L-31.6 19.15 -30.65 14.95 -31.6 19.15 -38.35 33.85 Q-39.1 35.6 -38.55 37.4 M-31.4 48.9 L-29.7 40.8 Q-28.55 35.85 -30.05 31.1 -28.55 35.85 -29.7 40.8 L-31.4 48.9 M-24.75 42.3 L-24.15 41.55 Q-22.95 39.6 -23.35 37.1 -22.95 39.6 -24.15 41.55 L-24.75 42.3 M-38.85 48.35 L-36.55 43.7 -38.85 48.35 M-44.6 54.65 Q-45.85 53.55 -46.2 52.0 -48.0 44.4 -44.6 37.1 -48.0 44.4 -46.2 52.0 -45.85 53.55 -44.6 54.65 M-42.9 59.85 L-44.7 58.2 Q-52.45 50.15 -47.2 40.25 -52.45 50.15 -44.7 58.2 L-42.9 59.85 M-42.3 34.25 L-40.3 30.2 -42.3 34.25 M47.15 30.8 Q51.45 37.35 57.05 42.9 58.35 44.2 60.1 44.3 56.2 37.45 53.35 29.85 51.5 24.85 51.35 19.6 51.15 14.05 51.95 8.55 52.8 2.7 49.85 -2.7 52.8 2.7 51.95 8.55 51.15 14.05 51.35 19.6 51.5 24.85 53.35 29.85 56.2 37.45 60.1 44.3 58.35 44.2 57.05 42.9 51.45 37.35 47.15 30.8 M53.2 34.2 Q50.65 29.6 50.1 24.2 48.9 12.25 50.05 0.25 48.9 12.25 50.1 24.2 50.65 29.6 53.2 34.2 M48.0 45.75 L47.9 46.1 48.0 45.75 M52.9 34.5 Q49.75 30.05 48.85 24.4 47.0 12.8 48.3 0.85 47.0 12.8 48.85 24.4 49.75 30.05 52.9 34.5 M47.9 46.15 L47.95 46.2 47.9 46.1 43.2 38.25 42.1 38.9 47.9 46.15 40.25 61.0 47.9 46.15 M64.7 50.3 L64.85 49.45 Q65.4 45.7 62.4 43.4 65.4 45.7 64.85 49.45 L64.7 50.3 M52.6 49.15 L52.05 47.1 Q50.15 41.35 47.15 36.25 50.15 41.35 52.05 47.1 L52.6 49.15 M26.75 -16.7 Q33.3 -8.35 33.0 1.95 32.85 7.9 32.3 13.9 31.3 25.25 38.25 34.05 L42.1 38.9 38.25 34.05 Q31.3 25.25 32.3 13.9 32.85 7.9 33.0 1.95 33.3 -8.35 26.75 -16.7 M14.65 43.45 L18.1 27.35 14.65 43.45 M29.9 27.35 L30.45 30.25 Q31.4 36.75 30.75 43.45 31.4 36.75 30.45 30.25 L29.9 27.35 M38.55 60.4 L38.85 60.0 Q41.85 53.6 42.25 46.3 41.85 53.6 38.85 60.0 L38.55 60.4 M37.1 28.5 Q34.45 25.0 34.8 20.6 35.75 8.95 37.4 -2.6 35.75 8.95 34.8 20.6 34.45 25.0 37.1 28.5 M62.7 68.75 L62.3 67.95 Q59.95 61.3 60.4 54.05 59.95 61.3 62.3 67.95 L62.7 68.75 M62.7 60.7 L61.85 55.8 62.7 60.7 M58.4 55.5 L58.25 56.25 58.4 55.5 M45.15 69.3 Q46.6 68.8 47.4 67.45 L50.7 61.05 Q52.3 57.9 51.45 54.35 52.3 57.9 50.7 61.05 L47.4 67.45 Q46.6 68.8 45.15 69.3 M49.45 50.05 L49.45 50.65 49.45 50.05 M49.15 65.0 L49.85 63.8 52.25 59.15 Q55.95 51.9 53.5 44.3 55.95 51.9 52.25 59.15 L49.85 63.8 49.15 65.0 M39.1 45.45 L39.95 50.5 39.1 45.45 M-42.3 -4.05 L-41.15 22.7 -42.3 -4.05 M2.55 -67.05 L-2.35 -61.55 2.55 -67.05" fill="url(#gradient0)" fill-rule="evenodd" stroke="none"/>
      <path d="M-34.4 -56.7 Q-28.2 -61.25 -21.75 -65.6 L-15.4 -69.45 Q-10.25 -72.1 -4.45 -72.0 -2.05 -71.95 0.35 -71.05 L5.25 -71.2 Q6.8 -71.9 8.55 -72.05 16.95 -71.6 24.25 -67.55 L26.3 -65.9 Q34.6 -57.65 41.85 -48.5 43.5 -46.45 44.55 -43.95 46.8 -38.7 47.25 -33.0 47.65 -28.2 49.1 -23.55 50.6 -18.75 53.5 -14.7 60.3 -5.3 61.6 6.05 61.85 8.2 61.6 10.45 L60.05 22.7 Q59.0 30.6 62.7 37.7 L65.9 44.05 Q68.55 49.65 67.75 55.85 64.7 59.75 64.45 64.5 64.3 67.75 65.6 70.7 66.65 73.1 68.05 75.4 61.65 71.85 59.65 64.8 58.4 60.45 58.25 56.25 57.2 61.2 53.7 64.8 47.85 70.9 39.7 72.8 L45.7 66.05 47.3 63.6 Q49.9 57.7 49.45 51.2 L49.45 51.15 49.2 52.0 Q45.4 60.9 36.3 64.8 L33.9 65.9 35.7 63.5 36.45 62.3 Q39.55 56.8 39.95 50.5 L27.15 49.25 26.3 31.05 Q24.65 37.15 20.1 41.95 15.7 46.55 15.35 52.6 10.95 43.85 14.45 34.7 16.1 30.5 17.25 26.1 L17.6 23.15 Q17.25 16.1 14.55 9.5 11.15 1.3 11.55 -7.4 11.85 -13.85 14.9 -19.7 18.6 -26.85 16.75 -34.7 L16.05 -37.7 M15.5 -38.25 L14.95 -40.85 13.55 -41.4 12.5 -41.25 Q6.9 -37.55 8.05 -30.2 M6.6 -29.35 Q-7.3 -30.9 -20.75 -27.9 L-21.9 -29.9 -23.05 -27.05 -24.65 -29.65 -25.35 -29.9 -25.5 -29.55 -25.7 -26.95 -37.0 -24.7 -40.0 -23.6 Q-43.9 -35.5 -39.85 -47.4 -39.0 -49.9 -37.5 -52.05 L-33.65 -55.65 -29.35 -56.1 M-36.85 -24.15 Q-34.5 -13.25 -35.4 -10.45 -36.35 -7.75 -36.15 -1.55 -36.0 4.65 -30.65 14.95 -26.7 22.65 -23.5 27.35 L-19.6 33.1 Q-18.95 34.2 -17.6 34.75 L-19.3 45.3 -27.85 46.4 Q-27.5 49.35 -29.1 51.8 L-32.3 56.45 -32.35 56.35 -35.45 47.2 -36.05 47.3 -39.15 54.1 -42.3 48.6 -42.5 54.1 -42.2 56.15 Q-40.85 60.75 -38.0 64.75 -45.5 61.65 -50.2 55.1 -54.6 48.95 -51.25 41.85 -50.2 39.7 -48.3 38.1 -44.2 34.65 -43.45 29.45 -43.05 26.85 -43.4 24.2 -44.0 19.4 -43.3 14.7 -42.25 7.6 -43.75 0.6 -46.0 -10.15 -45.75 -21.15 -45.55 -29.85 -44.55 -38.45 -43.65 -46.25 -37.95 -52.4 L-34.4 -56.7 M43.2 38.25 Q41.0 34.3 41.4 29.95 41.75 25.65 42.55 21.5 44.65 10.6 44.85 -0.15 44.9 -2.85 44.05 -5.45 L42.85 -8.05 Q38.75 -14.45 34.85 -21.3 32.55 -25.3 32.75 -29.85 L33.35 -40.3 M26.3 31.05 Q27.5 22.15 22.4 14.45 17.95 7.85 19.85 0.5 20.35 -1.4 21.45 -2.85 24.25 -6.8 24.15 -11.5 M-19.3 -56.1 Q-9.8 -56.35 -0.45 -54.9 L13.2 -52.95 M-36.85 6.05 Q-35.5 11.25 -34.45 16.55 -34.2 17.7 -34.45 18.9 -35.5 24.65 -38.45 29.8 L-40.3 33.8 Q-42.05 38.55 -40.35 43.15 L-39.75 44.35 Q-36.75 34.65 -28.2 28.2 M-35.45 47.2 L-35.3 46.35 -36.05 47.3 M49.85 -2.7 Q52.8 2.7 51.95 8.55 51.15 14.05 51.35 19.6 51.5 24.85 53.35 29.85 56.2 37.45 60.1 44.3 58.35 44.2 57.05 42.9 51.45 37.35 47.15 30.8 M47.9 46.1 L47.95 46.2 47.9 46.15 42.1 38.9 38.25 34.05 Q31.3 25.25 32.3 13.9 32.85 7.9 33.0 1.95 33.3 -8.35 26.75 -16.7 M47.9 46.1 L43.2 38.25 M58.25 56.25 L58.4 55.5 M49.45 50.65 L49.45 51.2 M49.45 51.15 L49.45 50.65 49.45 50.05 M39.95 50.5 L39.1 45.45 M-2.35 -61.55 L2.55 -67.05" fill="none" stroke="#000000" stroke-linecap="round" stroke-linejoin="round" stroke-width="2.0"/>
      <path d="M16.1 -67.9 L9.2 -68.75 M39.7 -37.4 Q35.85 -48.1 28.4 -56.65 L27.0 -58.1 27.3 -57.25 M29.05 -44.3 Q27.5 -52.45 21.8 -58.3 L21.55 -58.4 M19.25 -48.35 Q23.5 -41.4 23.2 -33.1 L23.0 -30.8 M28.15 15.8 Q22.95 7.95 25.35 -1.4 26.0 -4.0 28.15 -5.75 M23.3 -26.75 Q24.95 -22.15 23.3 -18.0 L20.2 -10.95 Q15.0 0.35 18.95 11.7 21.55 19.2 22.9 26.85 23.3 28.95 22.75 31.0 21.35 35.95 18.3 40.1 16.75 42.25 15.5 44.6 M43.15 -36.25 L41.7 -39.7 M55.5 22.15 Q57.1 13.9 56.75 5.75 56.55 0.35 54.1 -4.1 51.0 -9.7 48.2 -15.5 47.65 -16.6 47.45 -17.85 M40.25 -34.8 Q40.1 -23.65 43.5 -13.0 44.85 -8.9 46.75 -4.9 L47.45 -2.9 M31.9 -27.6 Q35.65 -16.3 40.8 -5.55 41.9 -3.3 42.5 -0.85 44.2 6.4 42.15 13.45 40.4 19.45 39.4 25.6 M-20.75 -62.45 L-18.15 -65.3 M-39.75 13.8 Q-39.2 2.6 -41.35 -8.4 L-42.3 -14.4 -41.75 -22.15 M-11.55 -52.35 Q-17.05 -43.9 -18.1 -34.3 -18.2 -33.2 -17.55 -32.25 M4.85 -49.5 Q-0.25 -43.35 -0.45 -35.5 L-0.3 -34.8 M-32.8 -52.35 Q-38.45 -45.35 -39.45 -36.3 -39.8 -32.9 -38.55 -29.75 L-37.7 -27.9 M-27.35 -52.35 Q-33.75 -42.0 -33.0 -30.1 L-32.8 -29.05 M-0.9 -52.35 Q-9.1 -44.3 -8.5 -32.85 M-18.7 -51.2 Q-26.75 -42.65 -26.3 -31.2 M-31.6 19.15 L-31.95 14.4 M-31.6 19.15 L-31.75 20.75 Q-32.85 28.05 -37.7 33.65 M-36.55 43.7 L-38.85 48.35 M-23.35 37.1 Q-22.95 39.6 -24.15 41.55 L-24.75 42.3 M-30.05 31.1 Q-28.55 35.85 -29.7 40.8 L-31.4 48.9 M-47.2 40.25 Q-52.45 50.15 -44.7 58.2 L-42.9 59.85 M48.3 0.85 Q47.0 12.8 48.85 24.4 49.75 30.05 52.9 34.5 M47.9 46.1 L48.0 45.75 M47.9 46.15 L40.25 61.0 M47.9 46.15 L47.9 46.1 M30.75 43.45 Q31.4 36.75 30.45 30.25 L29.9 27.35 M61.85 55.8 L62.7 60.7 M53.5 44.3 Q55.95 51.9 52.25 59.15 L49.85 63.8 49.15 65.0" fill="none" stroke="#a37712" stroke-linecap="round" stroke-linejoin="round" stroke-width="2.0"/>
      <path d="M34.8 -52.05 L25.85 -63.55 M29.3 -40.0 Q30.85 -34.75 30.05 -29.35 L29.9 -28.5 M25.0 -30.8 L24.7 -26.45 M34.8 -42.6 Q37.7 -37.5 37.25 -31.65 L36.8 -23.6 M8.6 -46.9 Q4.0 -42.0 3.1 -35.35 L2.85 -32.5 M19.25 -39.4 Q21.0 -29.9 18.75 -20.6 L18.1 -17.85 M14.95 -17.0 Q13.05 -11.3 13.65 -5.45 13.95 -2.4 15.8 0.0 M26.45 -36.25 Q25.5 -24.05 31.5 -13.4 L33.65 -9.8 M22.15 -28.5 L22.15 -24.45 M30.2 -25.05 L32.5 -21.0 M46.3 -18.1 Q43.05 -27.0 43.5 -36.55 43.6 -38.35 42.95 -40.15 L40.55 -46.6 M43.15 -33.95 L43.4 -28.2 M-27.05 -59.55 L-29.35 -57.5 M-42.3 -14.4 Q-44.8 -25.25 -43.6 -36.3 L-43.2 -39.15 M-7.5 -51.8 Q-14.3 -43.2 -14.65 -32.25 L-14.7 -31.95 M0.25 -49.5 Q-5.1 -41.9 -5.65 -33.05 L-5.5 -32.25 M-32.8 -50.05 Q-36.6 -42.0 -36.7 -33.0 -36.75 -30.0 -35.4 -27.35 M-19.3 -46.9 Q-22.25 -40.7 -22.4 -33.65 L-22.45 -31.35 M-25.65 -48.6 Q-30.8 -39.9 -29.25 -30.3 L-28.8 -28.5 M-30.65 14.95 L-31.6 19.15 -38.35 33.85 Q-39.1 35.6 -38.55 37.4 M-44.6 37.1 Q-48.0 44.4 -46.2 52.0 -45.85 53.55 -44.6 54.65 M-40.3 30.2 L-42.3 34.25 M50.05 0.25 Q48.9 12.25 50.1 24.2 50.65 29.6 53.2 34.2 M47.15 36.25 Q50.15 41.35 52.05 47.1 L52.6 49.15 M62.4 43.4 Q65.4 45.7 64.85 49.45 L64.7 50.3 M18.1 27.35 L14.65 43.45 M37.4 -2.6 Q35.75 8.95 34.8 20.6 34.45 25.0 37.1 28.5 M42.25 46.3 Q41.85 53.6 38.85 60.0 L38.55 60.4 M60.4 54.05 Q59.95 61.3 62.3 67.95 L62.7 68.75 M51.45 54.35 Q52.3 57.9 50.7 61.05 L47.4 67.45 Q46.6 68.8 45.15 69.3 M-41.15 22.7 L-42.3 -4.05" fill="none" stroke="#f9eeb5" stroke-linecap="round" stroke-linejoin="round" stroke-width="2.0"/>
    </g>
    </g>
  </g>
  <defs>
    <radialGradient cx="0" cy="0" gradientTransform="matrix(0.0481, 0.1394, -0.165, 0.0569, -0.3, -63.0)" gradientUnits="userSpaceOnUse" id="gradient0" r="819.2" spreadMethod="pad">
      <stop offset="0.0" stop-color="#1a1004"/>
      <stop offset="0.18823529411764706" stop-color="#a37712"/>
      <stop offset="0.396078431372549" stop-color="#faeccd"/>
      <stop offset="0.6196078431372549" stop-color="#f0da93"/>
      <stop offset="1.0" stop-color="#a37712"/>
    </radialGradient>
  </defs>
</svg>