<svg xmlns:xlink="http://www.w3.org/1999/xlink" xmlns="http://www.w3.org/2000/svg" height="16.65px" width="27.9px">
  <g transform="matrix(1.0, 0.0, 0.0, 1.0, 11.2, 8.0)">
    <g data-characterId="1307" height="10.75" transform="matrix(1.0, 0.0, 0.0, 1.0, -7.75, -5.75)" width="23.75" xlink:href="#shape0"><g id="shape0" transform="matrix(1.0, 0.0, 0.0, 1.0, 7.75, 5.75)">
      <path d="M-7.15 -1.95 L-7.1 -2.05 -6.95 -2.25 -1.55 -2.7 -1.1 -2.6 Q1.3 -1.6 3.15 -3.15 L3.65 -3.25 Q7.5 -2.05 11.15 -3.1 L12.5 -3.8 13.0 -3.75 13.95 -4.15 13.45 -3.7 Q11.2 -1.8 8.7 -0.7 4.35 0.75 -0.3 0.4 L-2.95 0.15 -3.4 -0.1 -4.85 -0.75 -4.95 -0.85 -5.25 -0.85 -5.8 -0.9 -6.5 -1.15 -7.05 -1.9 -7.15 -1.95" fill="#d18a70" fill-rule="evenodd" stroke="none"/>
      <path d="M13.95 -4.15 L14.3 -4.5 14.4 -4.55 14.6 -4.6 14.85 -4.5 15.0 -4.45 Q15.15 -2.7 13.4 -1.55 L9.5 1.05 Q4.25 6.4 -2.9 3.3 -5.75 2.05 -7.45 -0.65 L-7.65 -1.5 -7.6 -1.8 -7.25 -1.95 -7.15 -1.95 -7.05 -1.9 -6.5 -1.15 -6.35 -1.0 -6.25 -0.9 -5.8 -0.9 -5.25 -0.85 -4.85 -0.75 -3.4 -0.1 -2.95 0.15 -1.25 0.65 Q4.2 1.25 8.7 -0.7 11.2 -1.8 13.45 -3.7 L13.95 -4.15 M-3.55 1.1 L-3.6 1.0 -4.0 0.65 Q-4.3 0.65 -4.25 0.95 L-3.9 1.8 -3.75 1.9 Q-0.5 3.65 3.0 2.6 L3.05 2.4 2.85 1.95 -3.55 1.1" fill="#dda991" fill-rule="evenodd" stroke="none"/>
      <path d="M-3.55 1.1 L2.85 1.95 3.05 2.4 3.0 2.6 Q-0.5 3.65 -3.75 1.9 L-3.9 1.8 -4.25 0.95 Q-4.3 0.65 -4.0 0.65 L-3.6 1.0 -3.55 1.1" fill="#e8c2b5" fill-rule="evenodd" stroke="none"/>
      <path d="M-7.25 -1.8 L-6.9 -1.3 -6.4 -1.1 Q4.7 2.6 13.15 -3.35 L13.2 -3.35 15.5 -5.25" fill="none" stroke="#000000" stroke-linecap="round" stroke-linejoin="round" stroke-width="2.0"/>
      <path d="M0.25 4.4 L4.0 4.25 4.35 4.15" fill="none" stroke="#aa7948" stroke-linecap="round" stroke-linejoin="round" stroke-width="2.0"/>
    </g>
  </g>
  </g>
  <defs>
    </defs>
</svg>