<svg xmlns:xlink="http://www.w3.org/1999/xlink" xmlns="http://www.w3.org/2000/svg" height="202.2px" width="161.9px">
  <g transform="matrix(1.0, 0.0, 0.0, 1.0, 74.15, 81.7)">
    <g data-characterId="1371" height="109.95" transform="matrix(1.0, 0.0, 0.0, 1.0, -47.0, -72.95)" width="93.2" xlink:href="#shape0"><g id="shape0" transform="matrix(1.0, 0.0, 0.0, 1.0, 47.0, 72.95)">
      <path d="M-36.0 23.45 Q-38.75 17.8 -40.4 11.85 -42.45 4.35 -42.8 -3.7 L-43.25 0.65 Q-43.6 6.55 -42.5 12.5 -45.2 6.85 -45.95 0.45 -47.05 -9.3 -45.95 -19.0 -45.0 -27.05 -42.45 -34.85 -40.4 -41.2 -37.35 -48.55 -34.3 -55.9 -28.65 -61.4 -23.0 -66.9 -15.6 -69.7 -8.25 -72.5 -3.45 -72.3 5.65 -73.1 14.35 -70.2 24.3 -67.0 30.9 -60.65 37.5 -54.3 40.35 -44.95 43.15 -35.65 44.7 -25.6 46.25 -15.55 45.4 -4.55 43.45 21.55 24.0 36.5 L23.5 36.0 Q27.2 29.7 28.4 22.55 L28.55 21.8 29.0 18.75 28.0 21.7 27.8 22.25 Q26.7 24.7 24.6 26.55 22.8 28.1 20.5 29.0 22.75 25.25 23.4 20.95 23.85 18.3 23.75 15.65 L23.7 15.1 23.5 13.0 22.25 15.2 Q17.7 22.9 11.9 29.5 14.7 22.8 15.55 15.4 L15.6 14.65 Q15.7 13.75 15.0 13.0 L14.3 15.2 Q11.5 22.9 4.0 26.0 6.4 19.8 8.1 13.35 13.55 -7.65 11.0 -28.9 L10.5 -32.5 Q10.45 -30.6 9.5 -28.75 7.75 -25.3 4.5 -23.0 6.7 -30.1 6.5 -37.5 L5.65 -35.8 4.75 -34.2 Q2.8 -31.0 -0.05 -28.55 0.95 -32.15 2.3 -35.6 4.25 -40.5 3.0 -45.5 0.9 -40.55 -1.8 -35.75 -5.15 -29.7 -11.0 -26.5 -9.35 -35.1 -9.25 -43.9 L-9.5 -51.5 -10.85 -44.65 -11.0 -43.9 Q-12.9 -34.15 -17.5 -25.5 L-17.45 -28.45 Q-17.5 -38.7 -20.8 -48.4 -19.75 -47.75 -19.4 -46.85 -16.95 -40.3 -15.5 -33.5 -16.95 -40.3 -19.4 -46.85 -19.75 -47.75 -20.8 -48.4 L-21.0 -49.0 -24.5 -26.5 -28.65 -46.1 Q-31.15 -36.2 -29.85 -25.95 L-30.45 -25.9 Q-33.75 -34.25 -32.7 -43.2 -35.25 -39.2 -36.35 -34.3 -37.5 -29.4 -36.35 -25.55 -35.2 -21.75 -35.95 -15.4 -36.45 -11.2 -36.35 -6.9 -36.05 4.6 -33.4 11.35 L-33.05 12.3 -29.55 20.5 Q-28.35 22.85 -28.0 25.0 -30.15 24.05 -31.5 22.05 -34.15 17.95 -35.0 13.0 L-35.15 14.65 -34.7 23.35 -36.0 23.45 M-31.0 -50.0 L-32.7 -43.2 -31.0 -50.0 M1.5 -47.5 L0.9 -45.05 -1.5 -37.5 0.9 -45.05 1.5 -47.5 M8.0 -43.5 L7.9 -42.55 7.0 -39.5 7.9 -42.55 8.0 -43.5 M24.0 -47.0 L24.65 -40.5 Q25.1 -32.2 23.5 -24.0 25.1 -32.2 24.65 -40.5 L24.0 -47.0 M31.5 -12.0 Q32.15 -16.95 32.05 -22.0 32.0 -28.25 32.55 -34.45 33.2 -42.1 28.0 -47.5 33.2 -42.1 32.55 -34.45 32.0 -28.25 32.05 -22.0 32.15 -16.95 31.5 -12.0 M38.5 -25.5 Q38.0 -31.25 37.0 -36.9 35.7 -44.4 32.0 -51.0 35.7 -44.4 37.0 -36.9 38.0 -31.25 38.5 -25.5 M35.0 1.5 L29.0 18.75 35.0 1.5 M17.0 -47.0 Q17.9 -41.55 17.7 -36.0 17.3 -26.9 15.5 -18.0 17.3 -26.9 17.7 -36.0 17.9 -41.55 17.0 -47.0 M11.5 15.5 Q12.2 9.5 13.5 3.5 L14.05 -1.0 Q14.15 -10.0 13.9 -19.0 L13.7 -25.0 Q13.5 -31.25 11.0 -37.0 13.5 -31.25 13.7 -25.0 L13.9 -19.0 Q14.15 -10.0 14.05 -1.0 L13.5 3.5 Q12.2 9.5 11.5 15.5 M35.5 9.5 L32.0 18.5 35.5 9.5 M18.5 11.5 L17.4 17.5 16.0 23.5 17.4 17.5 18.5 11.5 M42.0 -2.0 L39.55 10.5 Q37.75 20.0 32.0 27.5 37.75 20.0 39.55 10.5 L42.0 -2.0 M33.0 -10.5 L25.5 15.5 33.0 -10.5 M-26.5 -57.0 L-28.3 -52.45 Q-31.6 -43.25 -31.0 -33.5 -31.6 -43.25 -28.3 -52.45 L-26.5 -57.0 M-12.0 -54.0 L-12.25 -51.0 Q-12.55 -48.05 -13.25 -45.15 -13.95 -42.3 -15.0 -39.5 -13.95 -42.3 -13.25 -45.15 -12.55 -48.05 -12.25 -51.0 L-12.0 -54.0 M-26.0 -47.5 L-25.6 -44.5 -24.5 -34.5 -25.6 -44.5 -26.0 -47.5 M-4.5 -52.0 L-4.8 -49.5 Q-5.05 -40.35 -9.0 -32.0 -5.05 -40.35 -4.8 -49.5 L-4.5 -52.0 M-31.0 -53.0 L-34.1 -48.55 Q-36.4 -45.35 -37.85 -41.95 L-38.7 -40.1 Q-39.7 -38.05 -40.1 -36.0 -40.55 -33.5 -41.45 -31.0 -43.35 -25.65 -44.3 -19.95 L-45.1 -15.5 -45.3 -14.0 Q-45.7 -9.05 -45.0 -4.5 -45.7 -9.05 -45.3 -14.0 L-45.1 -15.5 -44.3 -19.95 Q-43.35 -25.65 -41.45 -31.0 -40.55 -33.5 -40.1 -36.0 -39.7 -38.05 -38.7 -40.1 L-37.85 -41.95 Q-36.4 -45.35 -34.1 -48.55 L-31.0 -53.0" fill="url(#gradient0)" fill-rule="evenodd" stroke="none"/>
      <path d="M32.0 18.5 L35.5 9.5" fill="none" stroke="#000000" stroke-linecap="round" stroke-linejoin="round" stroke-width="2.0"/>
      <path d="M24.0 36.5 Q43.45 21.55 45.4 -4.55 46.25 -15.55 44.7 -25.6 43.15 -35.65 40.35 -44.95 37.5 -54.3 30.9 -60.65 24.3 -67.0 14.35 -70.2 5.65 -73.1 -3.45 -72.3 -8.25 -72.5 -15.6 -69.7 -23.0 -66.9 -28.65 -61.4 -34.3 -55.9 -37.35 -48.55 -40.4 -41.2 -42.45 -34.85 -45.0 -27.05 -45.95 -19.0 -47.05 -9.3 -45.95 0.45 -45.2 6.85 -42.5 12.5 -43.6 6.55 -43.25 0.65 L-42.8 -3.7 Q-42.45 4.35 -40.4 11.85 -38.75 17.8 -36.0 23.45 L-34.5 26.0 -34.7 23.35 -35.15 14.65 -35.0 13.0 Q-34.15 17.95 -31.5 22.05 -30.15 24.05 -28.0 25.0 -28.35 22.85 -29.55 20.5 L-33.05 12.3 -33.4 11.35 Q-36.05 4.6 -36.35 -6.9 -36.45 -11.2 -35.95 -15.4 -35.2 -21.75 -36.35 -25.55 -37.5 -29.4 -36.35 -34.3 -35.25 -39.2 -32.7 -43.2 L-31.0 -50.0 M-20.8 -48.4 Q-17.5 -38.7 -17.45 -28.45 L-17.5 -25.5 Q-12.9 -34.15 -11.0 -43.9 L-10.85 -44.65 -9.5 -51.5 -9.25 -43.9 Q-9.35 -35.1 -11.0 -26.5 -5.15 -29.7 -1.8 -35.75 0.9 -40.55 3.0 -45.5 4.25 -40.5 2.3 -35.6 0.95 -32.15 -0.05 -28.55 2.8 -31.0 4.75 -34.2 L5.65 -35.8 6.5 -37.5 Q6.7 -30.1 4.5 -23.0 7.75 -25.3 9.5 -28.75 10.45 -30.6 10.5 -32.5 L11.0 -28.9 Q13.55 -7.65 8.1 13.35 6.4 19.8 4.0 26.0 11.5 22.9 14.3 15.2 L15.0 13.0 Q15.7 13.75 15.6 14.65 L15.55 15.4 Q14.7 22.8 11.9 29.5 17.7 22.9 22.25 15.2 L23.5 13.0 23.7 15.1 23.75 15.65 Q23.85 18.3 23.4 20.95 22.75 25.25 20.5 29.0 22.8 28.1 24.6 26.55 26.7 24.7 27.8 22.25 L28.0 21.7 29.0 18.75 35.0 1.5 M29.0 18.75 L28.55 21.8 28.4 22.55 Q27.2 29.7 23.5 36.0 M11.9 29.5 L11.5 30.5 M25.5 15.5 L33.0 -10.5 M-15.0 -39.5 Q-13.95 -42.3 -13.25 -45.15 -12.55 -48.05 -12.25 -51.0 L-12.0 -54.0 M-29.85 -25.95 Q-31.15 -36.2 -28.65 -46.1 L-24.5 -26.5 -21.0 -49.0 -20.8 -48.4 M-29.85 -25.95 L-29.5 -23.5 -30.45 -25.9 Q-33.75 -34.25 -32.7 -43.2" fill="none" stroke="#000000" stroke-linecap="round" stroke-linejoin="round" stroke-width="2.0"/>
      <path d="M32.0 -51.0 Q35.7 -44.4 37.0 -36.9 38.0 -31.25 38.5 -25.5 M28.0 -47.5 Q33.2 -42.1 32.55 -34.45 32.0 -28.25 32.05 -22.0 32.15 -16.95 31.5 -12.0 M23.5 -24.0 Q25.1 -32.2 24.65 -40.5 L24.0 -47.0 M7.0 -39.5 L7.9 -42.55 8.0 -43.5 M-1.5 -37.5 L0.9 -45.05 1.5 -47.5 M11.0 -37.0 Q13.5 -31.25 13.7 -25.0 L13.9 -19.0 Q14.15 -10.0 14.05 -1.0 L13.5 3.5 Q12.2 9.5 11.5 15.5 M15.5 -18.0 Q17.3 -26.9 17.7 -36.0 17.9 -41.55 17.0 -47.0 M16.0 23.5 L17.4 17.5 18.5 11.5 M32.0 27.5 Q37.75 20.0 39.55 10.5 L42.0 -2.0 M-31.0 -33.5 Q-31.6 -43.25 -28.3 -52.45 L-26.5 -57.0 M-45.0 -4.5 Q-45.7 -9.05 -45.3 -14.0 L-45.1 -15.5 -44.3 -19.95 Q-43.35 -25.65 -41.45 -31.0 -40.55 -33.5 -40.1 -36.0 -39.7 -38.05 -38.7 -40.1 L-37.85 -41.95 Q-36.4 -45.35 -34.1 -48.55 L-31.0 -53.0 M-9.0 -32.0 Q-5.05 -40.35 -4.8 -49.5 L-4.5 -52.0 M-20.8 -48.4 Q-19.75 -47.75 -19.4 -46.85 -16.95 -40.3 -15.5 -33.5 M-24.5 -34.5 L-25.6 -44.5 -26.0 -47.5" fill="none" stroke="#bc7878" stroke-linecap="round" stroke-linejoin="round" stroke-width="1.5"/>
    </g>
    </g>
  </g>
  <defs>
    <radialGradient cx="0" cy="0" gradientTransform="matrix(0.0011, 0.109, -0.1487, 0.0014, -5.0, -50.5)" gradientUnits="userSpaceOnUse" id="gradient0" r="819.2" spreadMethod="pad">
      <stop offset="0.0" stop-color="#4d2626"/>
      <stop offset="0.2196078431372549" stop-color="#7c3f3f"/>
      <stop offset="0.34901960784313724" stop-color="#bc7878"/>
      <stop offset="0.5019607843137255" stop-color="#854343"/>
      <stop offset="1.0" stop-color="#482424"/>
    </radialGradient>
  </defs>
</svg>