<svg xmlns:xlink="http://www.w3.org/1999/xlink" xmlns="http://www.w3.org/2000/svg" height="202.2px" width="161.9px">
  <g transform="matrix(1.0, 0.0, 0.0, 1.0, 74.15, 81.7)">
    <g data-characterId="1418" height="121.35" transform="matrix(1.0, 0.0, 0.0, 1.0, -44.0, -69.4)" width="97.5" xlink:href="#shape0"><g id="shape0" transform="matrix(1.0, 0.0, 0.0, 1.0, 44.0, 69.4)">
      <path d="M9.0 -36.5 L8.2 -40.4 6.6 -45.05 3.85 -51.95 Q3.0 -54.0 1.4 -55.05 -0.65 -56.4 -3.5 -54.5 -0.65 -56.4 1.4 -55.05 3.0 -54.0 3.85 -51.95 L6.6 -45.05 8.2 -40.4 9.0 -36.5 M16.35 -27.5 L16.05 -33.25 Q15.3 -42.25 12.5 -50.5 L10.8 -54.35 9.5 -56.5 Q3.5 -61.05 -3.5 -64.2 -5.25 -65.05 -7.0 -64.5 -5.25 -65.05 -3.5 -64.2 3.5 -61.05 9.5 -56.5 L10.8 -54.35 12.5 -50.5 Q15.3 -42.25 16.05 -33.25 L16.35 -27.5 Q16.1 -18.7 13.65 -10.45 L11.7 -10.3 11.2 -14.5 9.75 -22.5 9.6 -23.0 9.35 -23.5 Q7.0 -30.85 4.8 -38.3 3.75 -41.75 2.0 -45.0 3.75 -41.75 4.8 -38.3 7.0 -30.85 9.35 -23.5 L9.0 -24.0 8.95 -22.55 8.4 -14.7 8.35 -14.15 7.1 -14.15 6.95 -16.5 Q6.6 -22.2 5.4 -27.7 3.65 -35.55 -0.5 -42.5 -0.2 -37.8 -1.1 -33.3 -1.9 -29.2 -3.5 -25.5 L-6.05 -42.0 Q-7.6 -34.65 -8.4 -27.55 L-10.5 -27.1 Q-10.75 -29.55 -11.5 -31.9 L-11.75 -32.75 -11.8 -32.8 -14.5 -40.25 Q-14.25 -36.05 -14.3 -31.9 L-14.5 -25.75 -15.8 -25.8 Q-16.45 -38.7 -23.6 -49.4 L-24.2 -50.0 -24.25 -49.9 -25.3 -48.6 -24.5 -51.5 -24.0 -53.0 -24.5 -51.5 -25.3 -48.6 -27.65 -45.65 Q-29.2 -43.55 -29.25 -41.0 L-29.5 -23.0 Q-33.1 -28.6 -33.7 -35.35 L-33.7 -35.65 -33.7 -35.7 -34.5 -44.0 Q-35.45 -39.75 -35.75 -35.5 -36.1 -30.7 -35.65 -25.85 L-36.2 -25.8 Q-36.2 -20.45 -37.2 -15.4 -37.65 -13.1 -37.4 -10.65 L-37.0 -8.0 -37.3 -7.5 -37.5 -7.6 -38.2 -7.8 -40.5 -10.95 -42.55 -13.8 Q-43.5 -15.1 -43.6 -16.4 -44.15 -24.25 -43.9 -32.0 -43.65 -38.45 -42.1 -44.5 L-41.0 -48.3 Q-40.15 -51.0 -38.3 -53.35 -34.3 -58.55 -28.4 -57.15 -27.0 -59.05 -26.05 -60.9 L-24.5 -63.2 Q-21.1 -67.15 -15.95 -67.8 -9.25 -67.95 -2.7 -69.1 L0.8 -69.35 7.0 -68.1 Q13.2 -66.55 19.15 -64.2 24.9 -62.1 28.3 -56.8 L30.55 -52.95 Q33.75 -47.05 36.55 -40.9 L36.8 -37.95 Q38.4 -30.75 37.05 -23.65 L36.5 -21.5 34.8 -21.1 Q34.3 -23.3 32.35 -24.8 L31.45 -25.35 30.9 -25.4 30.95 -27.65 Q30.8 -27.65 30.45 -27.9 L30.6 -25.4 Q26.5 -25.55 23.85 -22.15 22.05 -19.8 19.75 -18.1 L19.2 -18.05 16.35 -27.5 M14.0 -52.5 L14.35 -51.0 Q15.6 -45.9 18.2 -41.3 22.9 -33.05 30.45 -27.9 22.9 -33.05 18.2 -41.3 15.6 -45.9 14.35 -51.0 L14.0 -52.5 M-35.0 -50.5 Q-36.95 -47.6 -37.6 -44.1 -39.25 -35.6 -36.75 -27.4 L-36.2 -25.8 -36.75 -27.4 Q-39.25 -35.6 -37.6 -44.1 -36.95 -47.6 -35.0 -50.5 M-11.5 -54.5 Q-10.75 -54.75 -10.25 -55.25 L-5.4 -59.9 -4.6 -60.15 Q1.0 -58.3 6.05 -55.05 L6.7 -54.35 7.25 -53.1 9.85 -44.95 10.15 -44.05 Q10.9 -41.5 11.25 -38.95 L11.7 -35.5 Q12.75 -25.85 12.5 -16.0 12.75 -25.85 11.7 -35.5 L11.25 -38.95 Q10.9 -41.5 10.15 -44.05 L9.85 -44.95 7.25 -53.1 6.7 -54.35 6.05 -55.05 Q1.0 -58.3 -4.6 -60.15 L-5.4 -59.9 -10.25 -55.25 Q-10.75 -54.75 -11.5 -54.5 M30.0 -39.5 L32.5 -38.0 30.0 -39.5 M20.0 -51.5 Q19.75 -48.55 21.35 -45.9 26.45 -37.55 33.25 -30.5 L33.5 -31.0 33.25 -30.5 Q26.45 -37.55 21.35 -45.9 19.75 -48.55 20.0 -51.5 M19.0 -44.5 Q19.0 -43.5 19.45 -42.8 24.65 -34.65 32.5 -29.0 24.65 -34.65 19.45 -42.8 19.0 -43.5 19.0 -44.5 M16.5 -39.5 L16.95 -38.5 Q19.4 -31.8 26.0 -29.0 19.4 -31.8 16.95 -38.5 L16.5 -39.5 M-27.0 -57.0 Q-29.5 -54.4 -30.0 -50.5 -30.75 -44.5 -30.9 -38.5 -31.0 -34.5 -30.5 -30.5 -31.0 -34.5 -30.9 -38.5 -30.75 -44.5 -30.0 -50.5 -29.5 -54.4 -27.0 -57.0 M-15.5 -57.5 L-8.0 -63.0 -15.5 -57.5 M-40.5 -47.5 L-41.3 -43.95 Q-42.25 -38.0 -42.4 -32.0 -42.5 -26.5 -41.4 -21.1 -40.75 -18.0 -39.5 -15.0 -40.75 -18.0 -41.4 -21.1 -42.5 -26.5 -42.4 -32.0 -42.25 -38.0 -41.3 -43.95 L-40.5 -47.5 M-15.5 -44.0 L-14.5 -40.25 -15.5 -44.0 M-6.5 -43.5 L-6.05 -42.0 -6.5 -43.5" fill="url(#gradient0)" fill-rule="evenodd" stroke="none"/>
      <path d="M38.75 -18.45 L38.6 -19.45 39.0 -19.5 Q45.25 -12.25 44.4 -2.4 43.65 6.5 42.0 15.05 40.15 24.85 42.85 34.2 44.05 38.35 46.55 41.95 L48.7 45.55 Q50.4 48.6 53.0 50.95 49.9 52.55 46.25 51.6 L43.5 50.9 43.45 50.85 35.55 48.4 Q33.65 47.7 32.1 45.9 L31.3 44.95 31.3 44.9 31.2 44.8 Q27.95 40.65 26.1 35.5 23.5 28.1 23.5 20.0 L23.35 14.1 Q25.85 10.5 27.55 6.55 L27.95 5.3 Q28.15 4.25 27.8 3.25 L28.5 3.0 Q28.65 -0.15 30.4 -2.85 31.05 -3.8 31.05 -5.0 L32.55 -3.85 33.0 -3.5 32.1 -0.65 32.5 -0.5 Q34.05 1.4 36.3 0.45 L36.6 0.3 Q39.8 -8.8 38.75 -18.45 M31.15 1.6 L32.1 -0.65 31.15 1.6 28.5 3.0 Q30.4 3.25 31.15 1.6 M41.0 -10.0 L41.05 -9.0 Q41.25 -7.5 41.7 -6.05 42.25 -4.1 41.85 -2.05 41.0 1.9 40.65 6.0 L40.25 9.95 Q39.65 15.0 39.95 20.5 40.0 21.0 40.2 21.35 40.9 22.5 40.65 24.0 40.5 25.0 40.7 25.95 40.95 26.9 40.85 28.0 40.5 30.8 41.25 33.1 L41.5 34.5 Q41.65 37.8 42.05 41.0 42.2 42.1 42.8 43.1 L43.25 43.8 Q44.85 45.8 46.5 48.5 44.85 45.8 43.25 43.8 L42.8 43.1 Q42.2 42.1 42.05 41.0 41.65 37.8 41.5 34.5 L41.25 33.1 Q40.5 30.8 40.85 28.0 40.95 26.9 40.7 25.95 40.5 25.0 40.65 24.0 40.9 22.5 40.2 21.35 40.0 21.0 39.95 20.5 39.65 15.0 40.25 9.95 L40.65 6.0 Q41.0 1.9 41.85 -2.05 42.25 -4.1 41.7 -6.05 41.25 -7.5 41.05 -9.0 L41.0 -10.0 M33.0 1.5 Q32.5 4.0 32.4 6.5 32.0 14.75 32.8 22.9 33.5 30.0 35.9 36.7 37.0 39.75 39.0 42.5 37.0 39.75 35.9 36.7 33.5 30.0 32.8 22.9 32.0 14.75 32.4 6.5 32.5 4.0 33.0 1.5 M38.5 2.0 Q37.15 4.3 36.8 6.8 36.0 12.05 36.0 17.5 35.95 25.25 37.95 32.9 40.15 41.15 44.0 49.0 40.15 41.15 37.95 32.9 35.95 25.25 36.0 17.5 36.0 12.05 36.8 6.8 37.15 4.3 38.5 2.0 M28.0 13.5 Q27.5 15.5 27.55 17.5 27.75 25.0 29.05 32.4 29.75 36.5 31.0 40.5 29.75 36.5 29.05 32.4 27.75 25.0 27.55 17.5 27.5 15.5 28.0 13.5 M33.0 43.5 Q31.4 41.0 30.75 38.05 29.55 32.35 29.4 26.6 29.2 16.7 31.25 7.05 29.2 16.7 29.4 26.6 29.55 32.35 30.75 38.05 31.4 41.0 33.0 43.5" fill="url(#gradient1)" fill-rule="evenodd" stroke="none"/>
      <path d="M36.45 -18.6 L38.75 -18.45 Q39.8 -8.8 36.6 0.3 L36.3 0.45 Q34.05 1.4 32.5 -0.5 L32.1 -0.65 33.0 -3.5 32.55 -3.85 33.0 -4.5 Q35.9 -11.15 36.4 -18.3 L36.45 -18.6" fill="#003399" fill-rule="evenodd" stroke="none"/>
      <path d="M-7.0 -64.5 Q-5.25 -65.05 -3.5 -64.2 3.5 -61.05 9.5 -56.5 L10.8 -54.35 12.5 -50.5 Q15.3 -42.25 16.05 -33.25 L16.35 -27.5 19.2 -18.05 19.75 -18.1 Q22.05 -19.8 23.85 -22.15 26.5 -25.55 30.6 -25.4 L30.9 -25.4 31.45 -25.35 32.35 -24.8 Q34.3 -23.3 34.8 -21.1 35.05 -19.85 34.8 -18.4 L34.5 -15.55 Q34.35 -12.6 32.75 -10.3 31.1 -8.05 31.05 -5.0 31.05 -3.8 30.4 -2.85 28.65 -0.15 28.5 3.0 30.4 3.25 31.15 1.6 L32.1 -0.65 33.0 -3.5 M30.45 -27.9 Q22.9 -33.05 18.2 -41.3 15.6 -45.9 14.35 -51.0 L14.0 -52.5 M36.5 -21.5 L37.05 -23.65 Q38.4 -30.75 36.8 -37.95 L36.55 -40.9 Q33.75 -47.05 30.55 -52.95 L28.3 -56.8 Q24.9 -62.1 19.15 -64.2 13.2 -66.55 7.0 -68.1 L0.8 -69.35 -2.7 -69.1 Q-9.25 -67.95 -15.95 -67.8 -21.1 -67.15 -24.5 -63.2 L-26.05 -60.9 Q-27.0 -59.05 -28.4 -57.15 -34.3 -58.55 -38.3 -53.35 -40.15 -51.0 -41.0 -48.3 L-42.1 -44.5 Q-43.65 -38.45 -43.9 -32.0 -44.15 -24.25 -43.6 -16.4 -43.5 -15.1 -42.55 -13.8 L-40.5 -10.95 -38.2 -7.8 -37.5 -7.6 -37.3 -7.5 M-37.0 -8.0 L-37.4 -10.65 Q-37.65 -13.1 -37.2 -15.4 -36.2 -20.45 -36.2 -25.8 L-36.75 -27.4 Q-39.25 -35.6 -37.6 -44.1 -36.95 -47.6 -35.0 -50.5 M30.45 -27.9 Q30.8 -27.65 30.95 -27.65 M33.5 -31.0 L33.25 -30.5 Q26.45 -37.55 21.35 -45.9 19.75 -48.55 20.0 -51.5 M32.5 -38.0 L30.0 -39.5 M7.1 -14.15 L7.05 -6.75 7.25 -8.0 Q8.05 -10.9 8.35 -14.15 L8.4 -14.7 8.95 -22.55 9.0 -24.0 9.35 -23.5 M9.6 -23.0 L9.75 -22.5 11.2 -14.5 11.7 -10.3 12.0 -5.0 13.65 -10.45 Q16.1 -18.7 16.35 -27.5 M7.1 -14.15 L6.95 -16.5 Q6.6 -22.2 5.4 -27.7 3.65 -35.55 -0.5 -42.5 -0.2 -37.8 -1.1 -33.3 -1.9 -29.2 -3.5 -25.5 L-6.05 -42.0 Q-7.6 -34.65 -8.4 -27.55 -8.65 -25.3 -10.05 -23.25 L-10.45 -26.55 -10.5 -27.1 Q-10.75 -29.55 -11.5 -31.9 L-11.75 -32.75 -11.8 -32.8 -14.5 -40.25 Q-14.25 -36.05 -14.3 -31.9 L-14.5 -25.75 -14.5 -25.55 -14.6 -24.4 Q-14.7 -23.3 -15.55 -22.65 L-15.8 -25.8 Q-16.45 -38.7 -23.6 -49.4 L-24.2 -50.0 -24.25 -49.9 -25.3 -48.6 -27.65 -45.65 Q-29.2 -43.55 -29.25 -41.0 L-29.5 -23.0 Q-33.1 -28.6 -33.7 -35.35 L-33.7 -35.65 -33.7 -35.7 -34.5 -44.0 Q-35.45 -39.75 -35.75 -35.5 -36.1 -30.7 -35.65 -25.85 L-35.5 -24.5 -36.2 -25.8 M38.6 -19.45 L38.6 -19.5 38.5 -20.15 36.5 -21.0 36.5 -20.25 36.5 -19.6 36.5 -19.55 36.45 -18.6 36.4 -18.3 Q35.9 -11.15 33.0 -4.5 M38.75 -18.45 L38.6 -19.45 M39.0 -19.5 Q45.25 -12.25 44.4 -2.4 43.65 6.5 42.0 15.05 40.15 24.85 42.85 34.2 44.05 38.35 46.55 41.95 L48.7 45.55 Q50.4 48.6 53.0 50.95 L53.5 50.5 M27.8 3.25 Q28.15 4.25 27.95 5.3 L27.55 6.55 Q25.85 10.5 23.35 14.1 L23.5 20.0 Q23.5 28.1 26.1 35.5 27.95 40.65 31.2 44.8 L31.3 44.9 31.3 44.95 32.1 45.9 Q33.65 47.7 35.55 48.4 L43.45 50.85 43.5 50.9 46.25 51.6 Q49.9 52.55 53.0 50.95 M-8.0 -63.0 L-15.5 -57.5 M-6.05 -42.0 L-6.5 -43.5 M-14.5 -40.25 L-15.5 -44.0 M44.0 49.0 Q40.15 41.15 37.95 32.9 35.95 25.25 36.0 17.5 36.0 12.05 36.8 6.8 37.15 4.3 38.5 2.0 M38.75 -18.45 Q39.8 -8.8 36.6 0.3 L36.3 0.45 Q34.05 1.4 32.5 -0.5 M27.8 3.25 L27.5 2.5 M31.25 7.05 Q29.2 16.7 29.4 26.6 29.55 32.35 30.75 38.05 31.4 41.0 33.0 43.5" fill="none" stroke="#000000" stroke-linecap="round" stroke-linejoin="round" stroke-width="1.5"/>
      <path d="M-3.5 -54.5 Q-0.65 -56.4 1.4 -55.05 3.0 -54.0 3.85 -51.95 L6.6 -45.05 8.2 -40.4 9.0 -36.5 M12.5 -16.0 Q12.75 -25.85 11.7 -35.5 L11.25 -38.95 Q10.9 -41.5 10.15 -44.05 L9.85 -44.95 7.25 -53.1 6.7 -54.35 6.05 -55.05 Q1.0 -58.3 -4.6 -60.15 L-5.4 -59.9 -10.25 -55.25 Q-10.75 -54.75 -11.5 -54.5 M26.0 -29.0 Q19.4 -31.8 16.95 -38.5 L16.5 -39.5 M32.5 -29.0 Q24.65 -34.65 19.45 -42.8 19.0 -43.5 19.0 -44.5 M9.35 -23.5 Q7.0 -30.85 4.8 -38.3 3.75 -41.75 2.0 -45.0 M9.35 -23.5 L9.6 -23.0 M-25.3 -48.6 L-25.5 -48.0 M46.5 48.5 Q44.85 45.8 43.25 43.8 L42.8 43.1 Q42.2 42.1 42.05 41.0 41.65 37.8 41.5 34.5 L41.25 33.1 Q40.5 30.8 40.85 28.0 40.95 26.9 40.7 25.95 40.5 25.0 40.65 24.0 40.9 22.5 40.2 21.35 40.0 21.0 39.95 20.5 39.65 15.0 40.25 9.95 L40.65 6.0 Q41.0 1.9 41.85 -2.05 42.25 -4.1 41.7 -6.05 41.25 -7.5 41.05 -9.0 L41.0 -10.0 M-25.3 -48.6 L-24.5 -51.5 -24.0 -53.0 M-30.5 -30.5 Q-31.0 -34.5 -30.9 -38.5 -30.75 -44.5 -30.0 -50.5 -29.5 -54.4 -27.0 -57.0 M-39.5 -15.0 Q-40.75 -18.0 -41.4 -21.1 -42.5 -26.5 -42.4 -32.0 -42.25 -38.0 -41.3 -43.95 L-40.5 -47.5 M39.0 42.5 Q37.0 39.75 35.9 36.7 33.5 30.0 32.8 22.9 32.0 14.75 32.4 6.5 32.5 4.0 33.0 1.5 M31.0 40.5 Q29.75 36.5 29.05 32.4 27.75 25.0 27.55 17.5 27.5 15.5 28.0 13.5" fill="none" stroke="#ffffff" stroke-linecap="round" stroke-linejoin="round" stroke-width="1.5"/>
    </g>
    </g>
  </g>
  <defs>
    <radialGradient cx="0" cy="0" gradientTransform="matrix(0.0481, 0.1394, -0.165, 0.0569, -7.5, -60.5)" gradientUnits="userSpaceOnUse" id="gradient0" r="819.2" spreadMethod="pad">
      <stop offset="0.0" stop-color="#e6e696"/>
      <stop offset="0.23137254901960785" stop-color="#ffffbb"/>
      <stop offset="0.3176470588235294" stop-color="#ffffff"/>
      <stop offset="0.38823529411764707" stop-color="#ffffbb"/>
      <stop offset="1.0" stop-color="#e6e696"/>
    </radialGradient>
    <radialGradient cx="0" cy="0" gradientTransform="matrix(1.0, 0.0, 0.0, 1.0, 0.0, 0.0)" gradientUnits="userSpaceOnUse" id="gradient1" r="819.2" spreadMethod="pad">
      <stop offset="0.0" stop-color="#e6e696"/>
      <stop offset="0.23137254901960785" stop-color="#ffffbb"/>
      <stop offset="0.3176470588235294" stop-color="#ffffff"/>
      <stop offset="0.38823529411764707" stop-color="#ffffbb"/>
      <stop offset="1.0" stop-color="#e6e696"/>
    </radialGradient>
  </defs>
</svg>