<svg xmlns:xlink="http://www.w3.org/1999/xlink" xmlns="http://www.w3.org/2000/svg" height="105.4px" width="77.1px">
  <g transform="matrix(1.0, 0.0, 0.0, 1.0, 38.65, 52.6)">
    <g data-characterId="1276" height="103.25" transform="matrix(1.0, 0.0, 0.0, 1.0, -38.2, -52.6)" width="72.25" xlink:href="#shape0"><g id="shape0" transform="matrix(1.0, 0.0, 0.0, 1.0, 38.2, 52.6)">
      <path d="M21.35 -3.85 Q22.0 -7.0 24.8 -8.45 L25.55 -8.85 Q30.2 -6.5 30.05 -0.9 L29.95 1.05 29.9 1.2 Q29.55 4.05 28.4 6.85 L28.3 7.2 Q28.0 7.95 28.1 8.85 L28.1 10.7 27.85 11.8 27.2 13.35 Q26.0 15.25 23.45 15.3 L22.3 14.65 21.6 14.15 22.3 14.65 23.45 15.3 Q26.0 15.25 27.2 13.35 L27.85 11.8 28.1 10.7 28.1 8.85 Q28.0 7.95 28.3 7.2 L28.4 6.85 Q29.55 4.05 29.9 1.2 L29.95 1.05 30.05 -0.9 Q30.2 -6.5 25.55 -8.85 L24.8 -8.45 Q22.0 -7.0 21.35 -3.85 M22.5 0.25 Q24.45 -0.55 25.15 -2.7 L25.45 -3.15 26.6 -3.2 27.3 -0.25 27.5 0.75 27.3 -0.25 26.6 -3.2 25.45 -3.15 25.15 -2.7 Q24.45 -0.55 22.5 0.25 M26.3 -35.3 Q32.0 -25.55 33.25 -13.55 34.5 -1.6 30.8 9.75 L30.8 9.8 30.35 10.85 28.85 14.15 26.1 18.65 24.6 19.15 Q24.75 22.25 23.1 25.0 21.4 27.75 19.4 29.9 L15.95 33.55 12.4 37.05 Q7.0 41.95 -0.9 45.95 -8.8 49.95 -13.2 50.15 -17.6 50.3 -19.6 47.75 -21.65 45.2 -25.0 39.5 -28.4 33.8 -32.5 23.7 -36.55 13.55 -35.55 7.8 -34.55 2.05 -34.35 2.25 L-36.25 -1.65 Q-38.35 -5.75 -37.4 -12.35 L-35.8 -22.05 -33.85 -30.3 Q-32.5 -35.4 -26.3 -43.05 -21.05 -49.4 -12.85 -50.95 -6.5 -52.25 0.15 -52.05 6.7 -51.6 13.65 -48.3 20.55 -45.05 26.3 -35.3 M-22.9 -3.75 Q-19.7 4.2 -22.8 12.0 -25.9 19.8 -19.05 21.3 -25.9 19.8 -22.8 12.0 -19.7 4.2 -22.9 -3.75 M25.5 6.75 L25.5 3.75 25.5 6.75" fill="url(#gradient0)" fill-rule="evenodd" stroke="none"/>
      <path d="M27.5 0.75 L27.3 -0.25 26.6 -3.2 25.45 -3.15 25.15 -2.7 Q24.45 -0.55 22.5 0.25 M21.6 14.15 L22.3 14.65 23.45 15.3 Q26.0 15.25 27.2 13.35 L27.85 11.8 28.1 10.7 28.1 8.85 Q28.0 7.95 28.3 7.2 L28.4 6.85 Q29.55 4.05 29.9 1.2 L29.95 1.05 30.05 -0.9 Q30.2 -6.5 25.55 -8.85 L24.8 -8.45 Q22.0 -7.0 21.35 -3.85 M26.3 -35.3 Q32.0 -25.55 33.25 -13.55 34.5 -1.6 30.8 9.75 L30.8 9.8 30.35 10.85 28.85 14.15 26.1 18.65 24.6 19.15 Q24.75 22.25 23.1 25.0 21.4 27.75 19.4 29.9 L15.95 33.55 12.4 37.05 Q7.0 41.95 -0.9 45.95 -8.8 49.95 -13.2 50.15 -17.6 50.3 -19.6 47.75 -21.65 45.2 -25.0 39.5 -28.4 33.8 -32.5 23.7 -36.55 13.55 -35.55 7.8 -34.55 2.05 -34.35 2.25 L-36.25 -1.65 Q-38.35 -5.75 -37.4 -12.35 L-35.8 -22.05 -33.85 -30.3 Q-32.5 -35.4 -26.3 -43.05 -21.05 -49.4 -12.85 -50.95 -6.5 -52.25 0.15 -52.05 6.7 -51.6 13.65 -48.3 20.55 -45.05 26.3 -35.3 M25.5 3.75 L25.5 6.75 M-19.05 21.3 Q-25.9 19.8 -22.8 12.0 -19.7 4.2 -22.9 -3.75" fill="none" stroke="#000000" stroke-linecap="round" stroke-linejoin="round" stroke-width="2.0"/>
      <path d="M-11.3 16.95 Q-11.3 18.2 -11.75 19.05 -12.2 19.95 -12.8 19.95" fill="none" stroke="#000000" stroke-linecap="round" stroke-linejoin="round" stroke-width="2.0"/>
    </g>
    </g>
  </g>
  <defs>
    <radialGradient cx="0" cy="0" gradientTransform="matrix(0.0494, 0.0, 0.0, 0.0681, -16.15, 3.0)" gradientUnits="userSpaceOnUse" id="gradient0" r="819.2" spreadMethod="pad">
      <stop offset="0.0" stop-color="#f8e3dc"/>
      <stop offset="0.6274509803921569" stop-color="#f0d1b3"/>
      <stop offset="1.0" stop-color="#ebc198"/>
    </radialGradient>
  </defs>
</svg>