<svg xmlns:xlink="http://www.w3.org/1999/xlink" xmlns="http://www.w3.org/2000/svg" height="105.4px" width="77.1px">
  <g transform="matrix(1.0, 0.0, 0.0, 1.0, 38.65, 52.6)">
    <g data-characterId="1279" height="103.25" transform="matrix(1.0, 0.0, 0.0, 1.0, -38.65, -52.6)" width="72.7" xlink:href="#shape0"><g id="shape0" transform="matrix(1.0, 0.0, 0.0, 1.0, 38.65, 52.6)">
      <path d="M22.5 0.25 Q24.45 -0.55 25.15 -2.7 L25.45 -3.15 26.6 -3.2 27.3 -0.25 26.6 -3.2 25.45 -3.15 25.15 -2.7 Q24.45 -0.55 22.5 0.25 M30.05 -0.9 L27.3 -0.25 27.5 0.75 29.9 1.2 29.95 1.05 30.05 -0.9 Q30.2 -6.5 25.55 -8.85 L24.8 -8.45 Q22.0 -7.0 21.35 -3.85 22.0 -7.0 24.8 -8.45 L25.55 -8.85 Q30.2 -6.5 30.05 -0.9 M26.3 -35.3 Q32.0 -25.55 33.25 -13.55 34.5 -1.6 30.8 9.75 L30.8 9.8 30.35 10.85 28.85 14.15 26.1 18.65 24.6 19.15 Q24.75 22.25 23.1 25.0 21.4 27.75 19.4 29.9 L15.95 33.55 12.4 37.05 Q7.0 41.95 -0.9 45.95 -8.8 49.95 -13.2 50.15 -17.6 50.3 -19.6 47.75 -21.65 45.2 -25.0 39.5 -28.4 33.8 -32.5 23.7 -36.55 13.55 -35.55 7.8 -34.55 2.05 -34.35 2.25 L-36.25 -1.65 Q-38.35 -5.75 -38.15 -11.95 -37.95 -18.2 -37.3 -21.3 -36.7 -24.45 -36.1 -26.1 -32.5 -35.4 -26.3 -43.05 -21.05 -49.4 -12.85 -50.95 -6.5 -52.25 0.15 -52.05 6.7 -51.6 13.65 -48.3 20.55 -45.05 26.3 -35.3 M25.5 6.75 L25.5 3.75 25.5 6.75 M21.6 14.15 L22.3 14.65 23.45 15.3 Q26.0 15.25 27.2 13.35 L27.85 11.8 28.1 10.7 28.1 8.85 Q28.0 7.95 28.3 7.2 L28.4 6.85 Q29.55 4.05 29.9 1.2 29.55 4.05 28.4 6.85 L28.3 7.2 Q28.0 7.95 28.1 8.85 L28.1 10.7 27.85 11.8 27.2 13.35 Q26.0 15.25 23.45 15.3 L22.3 14.65 21.6 14.15 M-13.05 19.7 Q-12.45 19.7 -12.0 18.8 -11.55 17.95 -11.55 16.7 -11.55 17.95 -12.0 18.8 -12.45 19.7 -13.05 19.7 M-22.75 9.4 L-23.05 10.15 -25.3 16.45 Q-25.25 17.25 -24.35 18.7 -23.3 20.55 -19.05 20.9 -23.3 20.55 -24.35 18.7 -25.25 17.25 -25.3 16.45 L-23.05 10.15 -22.75 9.4" fill="url(#gradient0)" fill-rule="evenodd" stroke="none"/>
      <path d="M27.3 -0.25 L30.05 -0.9 29.95 1.05 29.9 1.2 27.5 0.75 27.3 -0.25" fill="url(#gradient1)" fill-rule="evenodd" stroke="none"/>
      <path d="M27.3 -0.25 L26.6 -3.2 25.45 -3.15 25.15 -2.7 Q24.45 -0.55 22.5 0.25 M30.05 -0.9 Q30.2 -6.5 25.55 -8.85 L24.8 -8.45 Q22.0 -7.0 21.35 -3.85 M26.3 -35.3 Q32.0 -25.55 33.25 -13.55 34.5 -1.6 30.8 9.75 L30.8 9.8 30.35 10.85 28.85 14.15 26.1 18.65 24.6 19.15 Q24.75 22.25 23.1 25.0 21.4 27.75 19.4 29.9 L15.95 33.55 12.4 37.05 Q7.0 41.95 -0.9 45.95 -8.8 49.95 -13.2 50.15 -17.6 50.3 -19.6 47.75 -21.65 45.2 -25.0 39.5 -28.4 33.8 -32.5 23.7 -36.55 13.55 -35.55 7.8 -34.55 2.05 -34.35 2.25 L-36.25 -1.65 Q-38.35 -5.75 -38.15 -11.95 -37.95 -18.2 -37.3 -21.3 -36.7 -24.45 -36.1 -26.1 -32.5 -35.4 -26.3 -43.05 -21.05 -49.4 -12.85 -50.95 -6.5 -52.25 0.15 -52.05 6.7 -51.6 13.65 -48.3 20.55 -45.05 26.3 -35.3 M30.05 -0.9 L29.95 1.05 29.9 1.2 Q29.55 4.05 28.4 6.85 L28.3 7.2 Q28.0 7.95 28.1 8.85 L28.1 10.7 27.85 11.8 27.2 13.35 Q26.0 15.25 23.45 15.3 L22.3 14.65 21.6 14.15 M25.5 3.75 L25.5 6.75 M27.5 0.75 L27.3 -0.25 M-19.05 20.9 Q-23.3 20.55 -24.35 18.7 -25.25 17.25 -25.3 16.45 L-23.05 10.15 -22.75 9.4" fill="none" stroke="#000000" stroke-linecap="round" stroke-linejoin="round" stroke-width="2.0"/>
      <path d="M-11.55 16.7 Q-11.55 17.95 -12.0 18.8 -12.45 19.7 -13.05 19.7" fill="none" stroke="#c08456" stroke-linecap="round" stroke-linejoin="round" stroke-width="2.0"/>
    </g>
    </g>
  </g>
  <defs>
    <radialGradient cx="0" cy="0" gradientTransform="matrix(0.0494, 0.0, 0.0, 0.0681, -16.15, 3.0)" gradientUnits="userSpaceOnUse" id="gradient0" r="819.2" spreadMethod="pad">
      <stop offset="0.0" stop-color="#f3d6c7"/>
      <stop offset="0.6274509803921569" stop-color="#ecc59d"/>
      <stop offset="1.0" stop-color="#e9bb8f"/>
    </radialGradient>
    <radialGradient cx="0" cy="0" gradientTransform="matrix(0.0494, 0.0, 0.0, 0.0681, -16.15, 3.0)" gradientUnits="userSpaceOnUse" id="gradient1" r="819.2" spreadMethod="pad">
      <stop offset="0.0" stop-color="#f1d3b8"/>
      <stop offset="0.6274509803921569" stop-color="#eecba8"/>
      <stop offset="1.0" stop-color="#e8b98a"/>
    </radialGradient>
  </defs>
</svg>