<svg xmlns:xlink="http://www.w3.org/1999/xlink" xmlns="http://www.w3.org/2000/svg" height="202.2px" width="161.9px">
  <g transform="matrix(1.0, 0.0, 0.0, 1.0, 74.15, 81.7)">
    <g data-characterId="1388" height="186.7" transform="matrix(1.0, 0.0, 0.0, 1.0, -53.15, -71.2)" width="117.4" xlink:href="#shape0"><g id="shape0" transform="matrix(1.0, 0.0, 0.0, 1.0, 53.15, 71.2)">
      <path d="M4.0 -54.0 L4.0 -52.1 Q3.8 -48.1 2.2 -44.65 3.8 -48.1 4.0 -52.1 L4.0 -54.0 M-23.0 -68.5 Q-14.25 -70.95 -5.1 -70.65 L7.5 -68.9 Q17.05 -67.65 25.5 -63.5 27.95 -62.3 29.55 -60.0 32.1 -56.45 34.0 -52.55 39.95 -40.55 41.15 -27.3 42.3 -14.75 45.4 -2.7 46.6 1.9 48.4 6.35 52.1 15.35 56.15 24.3 L57.7 27.95 Q59.75 33.4 60.9 39.0 62.4 46.55 63.35 54.15 64.45 62.75 62.65 71.25 61.25 78.0 58.3 84.25 57.6 85.75 56.5 87.0 57.55 79.95 56.0 73.1 55.25 69.85 54.0 67.0 53.3 76.6 49.3 85.2 48.1 87.85 46.5 90.0 L42.5 61.5 Q37.7 74.7 38.15 88.7 38.4 96.0 40.15 103.4 L34.45 96.65 Q29.75 90.95 25.8 84.45 24.0 91.6 23.65 99.05 23.3 107.1 25.0 115.0 22.95 113.6 21.05 112.0 17.3 109.1 14.95 105.1 10.3 97.35 9.05 88.6 8.5 84.55 8.5 80.5 L0.0 101.0 0.15 95.6 Q0.55 87.6 3.25 79.95 6.2 71.5 10.5 63.55 L13.3 57.65 Q17.15 48.45 16.6 38.55 16.1 29.5 15.0 20.75 L13.0 -6.0 8.0 -27.0 6.0 -15.5 5.35 -17.1 Q3.35 -22.25 2.9 -27.7 2.15 -36.25 2.2 -44.65 -1.2 -36.75 -9.0 -33.5 -18.0 -29.85 -25.85 -23.9 L-28.2 -24.35 -25.0 -29.0 -27.95 -28.75 Q-32.65 -27.95 -36.35 -24.7 L-41.9 -19.75 -36.35 -24.7 Q-35.6 -17.2 -36.95 -9.95 L-37.0 -8.5 Q-36.2 0.05 -33.4 8.1 -30.25 17.3 -26.4 26.55 -24.75 30.5 -21.85 33.3 L-20.65 34.1 -16.05 34.45 Q-17.15 41.8 -16.55 49.4 -15.85 57.9 -13.0 66.0 -16.8 62.45 -19.85 58.25 -23.4 53.45 -25.95 47.8 L-28.0 43.0 Q-29.35 51.65 -29.85 60.55 -30.3 68.75 -28.35 76.65 L-27.0 82.0 -32.7 77.45 Q-36.4 74.0 -39.15 69.9 -43.25 63.85 -44.85 56.7 -45.95 51.6 -46.0 46.5 -50.3 56.6 -51.0 70.25 -52.65 61.5 -52.0 53.95 -51.7 50.4 -50.95 46.95 -47.05 28.65 -43.85 10.1 -41.25 -4.8 -41.9 -19.75 L-45.4 -14.45 -45.45 -16.9 Q-45.6 -24.05 -41.75 -30.05 L-45.0 -29.0 -51.5 -19.0 -52.45 -23.75 Q-53.05 -27.3 -52.0 -30.55 -49.05 -39.75 -42.0 -46.5 L-43.15 -46.1 Q-47.7 -44.25 -50.95 -40.65 L-51.55 -41.3 Q-48.4 -49.45 -42.6 -56.0 -36.25 -63.05 -27.85 -67.25 -26.25 -68.05 -24.5 -68.5 L-23.5 -68.5 -23.0 -68.5 M15.45 4.35 L13.0 -6.0 15.45 4.35 15.5 4.45 15.55 4.4 15.45 4.35 M18.0 -1.0 L15.55 4.4 18.0 -1.0 19.4 -0.4 20.0 -5.5 18.0 -1.0 M24.5 33.0 Q21.15 23.6 19.75 13.75 18.75 6.65 19.4 -0.4 18.75 6.65 19.75 13.75 21.15 23.6 24.5 33.0 M18.5 -7.5 L16.95 -12.15 Q14.0 -21.65 13.3 -31.45 12.7 -40.5 13.5 -49.5 12.7 -40.5 13.3 -31.45 14.0 -21.65 16.95 -12.15 L18.5 -7.5 M37.0 -33.0 Q37.1 -37.6 36.0 -42.25 33.85 -51.1 27.5 -57.5 33.85 -51.1 36.0 -42.25 37.1 -37.6 37.0 -33.0 M35.5 88.5 Q32.0 82.3 30.05 75.3 27.5 66.0 28.25 56.35 L29.65 41.9 Q30.65 32.5 30.65 23.1 30.7 13.15 29.3 3.45 28.05 -4.9 25.5 -13.0 28.05 -4.9 29.3 3.45 30.7 13.15 30.65 23.1 30.65 32.5 29.65 41.9 L28.25 56.35 Q27.5 66.0 30.05 75.3 32.0 82.3 35.5 88.5 M59.0 74.0 Q60.0 64.9 59.3 55.65 58.65 46.4 56.75 37.3 54.8 28.1 51.55 19.25 48.3 10.45 44.0 2.0 48.3 10.45 51.55 19.25 54.8 28.1 56.75 37.3 58.65 46.4 59.3 55.65 60.0 64.9 59.0 74.0 M9.0 -32.5 L9.0 -52.5 9.0 -32.5 M24.0 -22.65 L23.2 -30.15 Q21.95 -39.65 18.65 -48.55 21.95 -39.65 23.2 -30.15 L24.0 -22.65 24.0 -11.5 24.0 -22.65 Q23.6 -14.95 23.5 -7.2 23.4 2.05 25.35 11.05 26.35 15.5 27.5 20.0 26.35 15.5 25.35 11.05 23.4 2.05 23.5 -7.2 23.6 -14.95 24.0 -22.65 M30.0 -20.5 L25.5 -47.5 30.0 -20.5 M51.5 51.5 Q51.15 44.55 50.15 37.8 48.75 28.7 45.8 19.75 L42.55 10.8 39.75 3.9 Q38.1 -0.3 36.8 -4.65 34.45 -12.25 33.2 -19.9 31.65 -29.65 32.0 -39.5 31.65 -29.65 33.2 -19.9 34.45 -12.25 36.8 -4.65 38.1 -0.3 39.75 3.9 L42.55 10.8 45.8 19.75 Q48.75 28.7 50.15 37.8 51.15 44.55 51.5 51.5 M48.0 77.0 L33.0 -9.5 48.0 77.0 M20.0 107.0 Q17.6 100.05 16.4 92.95 14.8 83.45 15.8 73.8 16.7 64.7 19.2 55.55 L23.0 42.5 19.2 55.55 Q16.7 64.7 15.8 73.8 14.8 83.45 16.4 92.95 17.6 100.05 20.0 107.0 M2.0 91.0 L5.6 82.05 12.35 64.3 Q15.65 55.45 17.6 46.15 19.55 36.55 19.15 27.05 18.8 18.65 17.0 10.5 18.8 18.65 19.15 27.05 19.55 36.55 17.6 46.15 15.65 55.45 12.35 64.3 L5.6 82.05 2.0 91.0 M-24.0 -33.0 Q-22.2 -33.55 -20.5 -34.35 -13.25 -37.85 -8.25 -44.0 -2.55 -51.1 -0.6 -60.05 -2.55 -51.1 -8.25 -44.0 -13.25 -37.85 -20.5 -34.35 -22.2 -33.55 -24.0 -33.0 M-40.5 -25.0 Q-38.65 -29.5 -36.1 -33.55 -33.65 -37.45 -30.35 -40.8 -23.65 -47.65 -14.95 -51.5 -9.4 -53.95 -5.5 -58.5 -9.4 -53.95 -14.95 -51.5 -23.65 -47.65 -30.35 -40.8 -33.65 -37.45 -36.1 -33.55 -38.65 -29.5 -40.5 -25.0 M-49.5 -25.5 Q-48.15 -34.05 -43.25 -40.85 -37.5 -48.8 -28.45 -52.85 -26.6 -53.7 -24.85 -54.75 -20.85 -57.05 -19.0 -61.5 -20.85 -57.05 -24.85 -54.75 -26.6 -53.7 -28.45 -52.85 -37.5 -48.8 -43.25 -40.85 -48.15 -34.05 -49.5 -25.5 M-32.5 74.5 Q-36.25 68.2 -38.35 61.15 -41.2 51.7 -40.65 42.0 -40.1 32.35 -38.3 22.9 L-35.5 9.0 -38.3 22.9 Q-40.1 32.35 -40.65 42.0 -41.2 51.7 -38.35 61.15 -36.25 68.2 -32.5 74.5 M-44.5 -48.0 L-22.5 -63.5 -44.5 -48.0 M-50.5 56.0 L-38.5 -2.0 -50.5 56.0 M-18.5 54.0 L-25.5 34.0 -18.5 54.0 M-34.0 53.0 L-34.0 25.0 -34.0 53.0" fill="url(#gradient0)" fill-rule="evenodd" stroke="none"/>
      <path d="M-23.5 -68.5 L-24.5 -68.5 Q-26.25 -68.05 -27.85 -67.25 -36.25 -63.05 -42.6 -56.0 -48.4 -49.45 -51.55 -41.3 L-50.95 -40.65 Q-47.7 -44.25 -43.15 -46.1 L-42.0 -46.5 Q-49.05 -39.75 -52.0 -30.55 -53.05 -27.3 -52.45 -23.75 L-51.5 -19.0 -45.0 -29.0 -41.75 -30.05 Q-45.6 -24.05 -45.45 -16.9 L-45.4 -14.45 -41.9 -19.75 M-16.05 34.45 L-20.65 34.1 -21.85 33.3 Q-24.75 30.5 -26.4 26.55 -30.25 17.3 -33.4 8.1 -36.2 0.05 -37.0 -8.5 L-36.95 -9.95 Q-35.6 -17.2 -36.35 -24.7" fill="none" stroke="#000000" stroke-linecap="round" stroke-linejoin="round" stroke-width="2.0"/>
      <path d="M15.0 20.75 Q16.1 29.5 16.6 38.55 17.15 48.45 13.3 57.65 L10.5 63.55 Q6.2 71.5 3.25 79.95 0.55 87.6 0.15 95.6 L0.0 101.0 8.5 80.5 Q8.5 84.55 9.05 88.6 10.3 97.35 14.95 105.1 17.3 109.1 21.05 112.0 22.95 113.6 25.0 115.0 23.3 107.1 23.65 99.05 24.0 91.6 25.8 84.45 29.75 90.95 34.45 96.65 L40.15 103.4 Q38.4 96.0 38.15 88.7 37.7 74.7 42.5 61.5 L46.5 90.0 Q48.1 87.85 49.3 85.2 53.3 76.6 54.0 67.0 55.25 69.85 56.0 73.1 57.55 79.95 56.5 87.0 57.6 85.75 58.3 84.25 61.25 78.0 62.65 71.25 64.45 62.75 63.35 54.15 62.4 46.55 60.9 39.0 59.75 33.4 57.7 27.95 L56.15 24.3 Q52.1 15.35 48.4 6.35 46.6 1.9 45.4 -2.7 42.3 -14.75 41.15 -27.3 39.95 -40.55 34.0 -52.55 32.1 -56.45 29.55 -60.0 27.95 -62.3 25.5 -63.5 17.05 -67.65 7.5 -68.9 L-5.1 -70.65 Q-14.25 -70.95 -23.0 -68.5 M-41.9 -19.75 Q-41.25 -4.8 -43.85 10.1 -47.05 28.65 -50.95 46.95 -51.7 50.4 -52.0 53.95 -52.65 61.5 -51.0 70.25 -50.3 56.6 -46.0 46.5 -45.95 51.6 -44.85 56.7 -43.25 63.85 -39.15 69.9 -36.4 74.0 -32.7 77.45 L-27.0 82.0 -28.35 76.65 Q-30.3 68.75 -29.85 60.55 -29.35 51.65 -28.0 43.0 L-25.95 47.8 Q-23.4 53.45 -19.85 58.25 -16.8 62.45 -13.0 66.0 -15.85 57.9 -16.55 49.4 -17.15 41.8 -16.05 34.45" fill="none" stroke="#000000" stroke-linecap="round" stroke-linejoin="round" stroke-width="2.0"/>
      <path d="M2.2 -44.65 Q3.8 -48.1 4.0 -52.1 L4.0 -54.0 M-41.9 -19.75 L-36.35 -24.7 Q-32.65 -27.95 -27.95 -28.75 L-25.0 -29.0 -28.2 -24.35 -28.6 -21.6 -25.85 -23.9 Q-18.0 -29.85 -9.0 -33.5 -1.2 -36.75 2.2 -44.65 2.15 -36.25 2.9 -27.7 3.35 -22.25 5.35 -17.1 L6.0 -15.5 8.0 -27.0 13.0 -6.0 15.45 4.35 M15.55 4.4 L18.0 -1.0 20.0 -5.5 19.4 -0.4 Q18.75 6.65 19.75 13.75 21.15 23.6 24.5 33.0 M13.0 -6.0 L15.0 20.75" fill="none" stroke="#af9874" stroke-linecap="round" stroke-linejoin="round" stroke-width="2.0"/>
      <path d="M27.5 -57.5 Q33.85 -51.1 36.0 -42.25 37.1 -37.6 37.0 -33.0 M13.5 -49.5 Q12.7 -40.5 13.3 -31.45 14.0 -21.65 16.95 -12.15 L18.5 -7.5 M32.0 -39.5 Q31.65 -29.65 33.2 -19.9 34.45 -12.25 36.8 -4.65 38.1 -0.3 39.75 3.9 L42.55 10.8 45.8 19.75 Q48.75 28.7 50.15 37.8 51.15 44.55 51.5 51.5 M24.0 -11.5 L24.0 -22.65 Q23.6 -14.95 23.5 -7.2 23.4 2.05 25.35 11.05 26.35 15.5 27.5 20.0 M25.5 -47.5 L30.0 -20.5 M18.65 -48.55 Q21.95 -39.65 23.2 -30.15 L24.0 -22.65 M9.0 -52.5 L9.0 -32.5 M44.0 2.0 Q48.3 10.45 51.55 19.25 54.8 28.1 56.75 37.3 58.65 46.4 59.3 55.65 60.0 64.9 59.0 74.0 M25.5 -13.0 Q28.05 -4.9 29.3 3.45 30.7 13.15 30.65 23.1 30.65 32.5 29.65 41.9 L28.25 56.35 Q27.5 66.0 30.05 75.3 32.0 82.3 35.5 88.5 M17.0 10.5 Q18.8 18.65 19.15 27.05 19.55 36.55 17.6 46.15 15.65 55.45 12.35 64.3 L5.6 82.05 2.0 91.0 M23.0 42.5 L19.2 55.55 Q16.7 64.7 15.8 73.8 14.8 83.45 16.4 92.95 17.6 100.05 20.0 107.0 M33.0 -9.5 L48.0 77.0 M-19.0 -61.5 Q-20.85 -57.05 -24.85 -54.75 -26.6 -53.7 -28.45 -52.85 -37.5 -48.8 -43.25 -40.85 -48.15 -34.05 -49.5 -25.5 M-5.5 -58.5 Q-9.4 -53.95 -14.95 -51.5 -23.65 -47.65 -30.35 -40.8 -33.65 -37.45 -36.1 -33.55 -38.65 -29.5 -40.5 -25.0 M-0.6 -60.05 Q-2.55 -51.1 -8.25 -44.0 -13.25 -37.85 -20.5 -34.35 -22.2 -33.55 -24.0 -33.0 M-22.5 -63.5 L-44.5 -48.0 M-35.5 9.0 L-38.3 22.9 Q-40.1 32.35 -40.65 42.0 -41.2 51.7 -38.35 61.15 -36.25 68.2 -32.5 74.5 M-34.0 25.0 L-34.0 53.0 M-25.5 34.0 L-18.5 54.0 M-38.5 -2.0 L-50.5 56.0" fill="none" stroke="#ffffff" stroke-linecap="round" stroke-linejoin="round" stroke-width="2.0"/>
    </g>
    </g>
  </g>
  <defs>
    <radialGradient cx="0" cy="0" gradientTransform="matrix(0.0481, 0.1394, -0.165, 0.0569, -7.5, -60.5)" gradientUnits="userSpaceOnUse" id="gradient0" r="819.2" spreadMethod="pad">
      <stop offset="0.0" stop-color="#eeedbb"/>
      <stop offset="0.17254901960784313" stop-color="#ffffc8"/>
      <stop offset="0.3176470588235294" stop-color="#ffffff"/>
      <stop offset="0.38823529411764707" stop-color="#ffffc8"/>
      <stop offset="0.6549019607843137" stop-color="#ffffff"/>
      <stop offset="1.0" stop-color="#ededb6"/>
    </radialGradient>
  </defs>
</svg>