<svg xmlns:xlink="http://www.w3.org/1999/xlink" xmlns="http://www.w3.org/2000/svg" height="158.3px" width="140.45px">
  <g transform="matrix(1.0, 0.0, 0.0, 1.0, 64.7, 56.15)">
    <g data-characterId="1465" height="23.75" transform="matrix(1.0, 0.0, 0.0, 1.0, -9.6, -4.85)" width="17.1" xlink:href="#shape0"><g id="shape0" transform="matrix(1.0, 0.0, 0.0, 1.0, 9.6, 4.85)">
      <path d="M-8.1 2.1 Q-8.05 -0.25 -6.7 -2.2 -5.45 -3.95 -3.3 -4.25 0.65 -4.75 4.1 -2.9 5.4 -2.25 6.2 -1.05 7.3 0.75 6.7 3.6 L6.4 3.3 3.05 3.85 Q0.0 3.8 -2.55 1.9 -3.9 0.95 -5.05 -0.2 L-6.55 1.8 -8.1 2.1 M5.85 8.3 L6.5 8.55 5.1 12.5 5.7 12.7 6.65 15.55 6.2 16.65 Q3.1 18.25 -0.25 18.25 L-3.75 18.4 Q-4.95 17.55 -6.55 17.1 L-5.85 16.35 -5.5 14.45 -5.0 14.25 -6.55 10.75 -6.4 10.25 -4.4 10.75 Q-2.85 9.3 -1.0 8.25 L0.15 7.75 2.0 7.45 3.7 7.3 4.8 8.7 5.6 8.75 5.85 8.3 M4.8 13.35 L5.1 12.5 4.8 13.35 M-4.2 14.75 L-4.9 14.5 -5.0 14.25 -4.9 14.5 -4.2 14.75" fill="url(#gradient0)" fill-rule="evenodd" stroke="none"/>
      <path d="M-8.1 2.1 L-6.55 1.8 -5.05 -0.2 Q-3.9 0.95 -2.55 1.9 0.0 3.8 3.05 3.85 L6.4 3.3 6.7 3.6 7.0 3.9 6.6 6.15 5.85 8.3 5.6 8.75 4.8 8.7 3.7 7.3 2.0 7.45 0.15 7.75 -1.0 8.25 Q-2.85 9.3 -4.4 10.75 L-6.4 10.25 -7.0 10.1 -7.65 10.1 -8.5 7.9 Q-9.05 6.75 -9.1 4.7 -9.2 2.6 -8.1 2.1 M-3.05 7.65 L-2.45 4.15 -3.05 7.65 M-0.25 6.8 L-0.05 5.45 -0.25 6.8 M-6.55 8.55 L-6.8 4.4 -6.55 8.55 M-5.05 7.9 L-5.05 4.85 -5.05 7.9" fill="url(#gradient1)" fill-rule="evenodd" stroke="none"/>
      <path d="M-8.1 2.1 L-6.55 1.8 -5.05 -0.2 Q-3.9 0.95 -2.55 1.9 0.0 3.8 3.05 3.85 L6.4 3.3 6.7 3.6 7.0 3.9 6.6 6.15 5.85 8.3 5.6 8.75 4.8 8.7 3.7 7.3 2.0 7.45 0.15 7.75 -1.0 8.25 Q-2.85 9.3 -4.4 10.75 L-6.4 10.25 -7.0 10.1 M-7.65 10.1 L-8.5 7.9 Q-9.05 6.75 -9.1 4.7 -9.2 2.6 -8.1 2.1" fill="none" stroke="#000000" stroke-linecap="round" stroke-linejoin="round" stroke-width="2.0"/>
      <path d="M6.7 3.6 Q7.3 0.75 6.2 -1.05 5.4 -2.25 4.1 -2.9 0.65 -4.75 -3.3 -4.25 -5.45 -3.95 -6.7 -2.2 -8.05 -0.25 -8.1 2.1 M6.5 8.55 L5.1 12.5 4.8 13.35 M5.7 12.7 L6.65 15.55 6.2 16.65 Q3.1 18.25 -0.25 18.25 L-3.75 18.4 Q-4.95 17.55 -6.55 17.1 L-5.85 16.35 -5.5 14.45 M-5.0 14.25 L-6.55 10.75 M-5.05 4.85 L-5.05 7.9 M-6.8 4.4 L-6.55 8.55 M-0.05 5.45 L-0.25 6.8 M-2.45 4.15 L-3.05 7.65 M-5.0 14.25 L-4.9 14.5 -4.2 14.75" fill="none" stroke="#000000" stroke-linecap="round" stroke-linejoin="round" stroke-width="2.0"/>
    </g>
    </g>
  </g>
  <defs>
    <radialGradient cx="0" cy="0" gradientTransform="matrix(0.0204, 0.0, 0.0, 0.0266, -4.15, 1.35)" gradientUnits="userSpaceOnUse" id="gradient0" r="819.2" spreadMethod="pad">
      <stop offset="0.0" stop-color="#f9f9f9"/>
      <stop offset="0.17254901960784313" stop-color="#bbbbbb"/>
      <stop offset="1.0" stop-color="#575757"/>
    </radialGradient>
    <radialGradient cx="0" cy="0" gradientTransform="matrix(0.0156, 0.0, 0.0, 0.0156, -6.15, 3.75)" gradientUnits="userSpaceOnUse" id="gradient1" r="819.2" spreadMethod="pad">
      <stop offset="0.0" stop-color="#f9f9f9"/>
      <stop offset="0.17254901960784313" stop-color="#bbbbbb"/>
      <stop offset="1.0" stop-color="#575757"/>
    </radialGradient>
  </defs>
</svg>