<svg xmlns:xlink="http://www.w3.org/1999/xlink" xmlns="http://www.w3.org/2000/svg" height="202.2px" width="161.9px">
  <g transform="matrix(1.0, 0.0, 0.0, 1.0, 74.15, 81.7)">
    <g data-characterId="1389" height="186.7" transform="matrix(1.0, 0.0, 0.0, 1.0, -53.25, -71.2)" width="117.4" xlink:href="#shape0"><g id="shape0" transform="matrix(1.0, 0.0, 0.0, 1.0, 53.25, 71.2)">
      <path d="M-23.0 -68.5 Q-14.25 -71.1 -5.1 -70.65 L7.55 -69.25 12.8 -68.1 Q18.3 -66.7 23.8 -64.5 27.35 -63.0 29.5 -60.0 34.55 -52.85 37.4 -44.55 40.25 -36.2 41.15 -27.3 41.95 -19.6 43.15 -12.1 44.65 -2.5 48.05 6.5 49.15 9.4 50.55 12.15 54.9 20.65 57.7 27.95 60.5 35.25 61.65 42.55 62.75 49.8 63.5 58.3 64.25 66.75 61.55 75.6 58.8 84.45 56.5 87.0 57.4 81.0 56.4 75.15 55.65 70.9 54.0 67.0 53.35 75.6 50.05 83.5 48.65 86.9 46.5 90.0 L42.5 61.5 Q39.1 71.0 38.1 81.0 37.35 88.75 38.7 96.2 L40.15 103.4 Q31.85 94.75 25.8 84.45 23.3 94.05 23.65 103.9 23.85 109.45 25.0 115.0 20.55 112.55 17.35 108.55 14.8 105.2 12.9 101.2 8.3 91.45 8.5 80.5 L0.0 101.0 Q-0.5 90.05 3.05 79.85 6.0 71.45 10.6 63.6 17.3 52.1 16.6 38.55 16.2 30.2 15.15 21.85 L15.0 20.75 Q13.9 12.1 13.4 3.4 L13.0 -6.0 8.0 -27.0 6.0 -15.5 4.7 -18.75 Q3.3 -23.05 2.9 -27.7 2.15 -36.1 2.2 -44.65 -1.2 -36.9 -9.05 -33.65 -18.15 -29.85 -25.85 -23.9 L-28.2 -24.35 Q-27.55 -26.5 -25.95 -28.15 L-25.0 -29.0 Q-31.1 -29.15 -35.95 -25.05 L-36.35 -24.7 Q-36.1 -22.45 -36.15 -20.15 -36.2 -15.25 -37.05 -10.45 -37.3 -8.9 -36.25 -2.35 -35.25 4.15 -32.2 11.95 L-26.9 25.15 Q-24.65 30.45 -23.05 32.55 -21.45 34.65 -16.65 34.45 L-16.05 34.45 Q-17.55 44.35 -15.95 54.35 -15.25 58.75 -13.95 63.1 L-13.0 66.0 -15.5 63.55 Q-20.4 58.6 -23.7 52.5 -26.2 47.85 -28.0 43.0 L-29.8 56.85 Q-30.6 64.2 -29.4 71.4 -28.55 76.6 -27.0 82.0 L-28.8 80.7 Q-32.9 77.6 -36.25 73.75 L-39.2 69.95 -41.6 65.8 Q-43.85 61.5 -44.9 56.7 -46.0 51.6 -46.0 46.5 L-52.0 69.0 -52.4 61.0 Q-52.65 53.85 -51.15 46.9 L-47.7 30.6 -44.35 14.3 Q-42.75 5.95 -42.15 -2.55 -41.55 -11.2 -41.9 -19.75 L-45.4 -14.45 Q-45.85 -19.5 -44.5 -24.35 -43.6 -27.45 -41.75 -30.05 L-45.0 -29.0 -51.5 -19.0 Q-54.85 -28.65 -49.15 -37.25 L-45.8 -42.0 -42.0 -46.5 Q-44.5 -46.1 -46.5 -44.5 L-47.35 -43.75 -50.95 -40.65 -51.55 -41.3 Q-46.4 -54.5 -34.8 -63.15 -30.4 -66.4 -25.55 -68.5 -24.6 -68.9 -23.5 -68.5 L-23.0 -68.5 M4.0 -54.0 Q4.25 -50.2 2.95 -46.6 L2.2 -44.65 2.95 -46.6 Q4.25 -50.2 4.0 -54.0 M18.0 -1.0 L19.4 -0.4 20.0 -5.5 18.0 -1.0 15.55 4.4 18.0 -1.0 M15.45 4.35 L15.5 4.5 15.55 4.4 15.45 4.35 13.0 -6.0 15.45 4.35 M-36.35 -24.7 L-38.2 -23.15 -41.9 -19.75 -38.2 -23.15 -36.35 -24.7 M24.5 33.0 Q23.35 29.55 22.35 26.1 21.0 21.5 20.15 16.8 L19.35 10.65 Q18.8 5.1 19.4 -0.4 18.8 5.1 19.35 10.65 L20.15 16.8 Q21.0 21.5 22.35 26.1 23.35 29.55 24.5 33.0" fill="url(#gradient0)" fill-rule="evenodd" stroke="none"/>
      <path d="M-23.0 -68.5 Q-14.25 -71.1 -5.1 -70.65 L7.55 -69.25 12.8 -68.1 Q18.3 -66.7 23.8 -64.5 27.35 -63.0 29.5 -60.0 34.55 -52.85 37.4 -44.55 40.25 -36.2 41.15 -27.3 41.95 -19.6 43.15 -12.1 44.65 -2.5 48.05 6.5 49.15 9.4 50.55 12.15 54.9 20.65 57.7 27.95 60.5 35.25 61.65 42.55 62.75 49.8 63.5 58.3 64.25 66.75 61.55 75.6 58.8 84.45 56.5 87.0 57.4 81.0 56.4 75.15 55.65 70.9 54.0 67.0 53.35 75.6 50.05 83.5 48.65 86.9 46.5 90.0 L42.5 61.5 Q39.1 71.0 38.1 81.0 37.35 88.75 38.7 96.2 L40.15 103.4 Q31.85 94.75 25.8 84.45 23.3 94.05 23.65 103.9 23.85 109.45 25.0 115.0 20.55 112.55 17.35 108.55 14.8 105.2 12.9 101.2 8.3 91.45 8.5 80.5 L0.0 101.0 Q-0.5 90.05 3.05 79.85 6.0 71.45 10.6 63.6 17.3 52.1 16.6 38.55 16.2 30.2 15.15 21.85 L15.0 20.75 M-36.35 -24.7 Q-36.1 -22.45 -36.15 -20.15 -36.2 -15.25 -37.05 -10.45 -37.3 -8.9 -36.25 -2.35 -35.25 4.15 -32.2 11.95 L-26.9 25.15 Q-24.65 30.45 -23.05 32.55 -21.45 34.65 -16.65 34.45 L-16.05 34.45 Q-17.55 44.35 -15.95 54.35 -15.25 58.75 -13.95 63.1 L-13.0 66.0 -15.5 63.55 Q-20.4 58.6 -23.7 52.5 -26.2 47.85 -28.0 43.0 L-29.8 56.85 Q-30.6 64.2 -29.4 71.4 -28.55 76.6 -27.0 82.0 L-28.8 80.7 Q-32.9 77.6 -36.25 73.75 L-39.2 69.95 -41.6 65.8 Q-43.85 61.5 -44.9 56.7 -46.0 51.6 -46.0 46.5 L-52.0 69.0 -52.4 61.0 Q-52.65 53.85 -51.15 46.9 L-47.7 30.6 -44.35 14.3 Q-42.75 5.95 -42.15 -2.55 -41.55 -11.2 -41.9 -19.75 L-45.4 -14.45 Q-45.85 -19.5 -44.5 -24.35 -43.6 -27.45 -41.75 -30.05 L-45.0 -29.0 -51.5 -19.0 Q-54.85 -28.65 -49.15 -37.25 L-45.8 -42.0 -42.0 -46.5 Q-44.5 -46.1 -46.5 -44.5 L-47.35 -43.75 -50.95 -40.65 -51.15 -40.5 -51.55 -41.3 Q-46.4 -54.5 -34.8 -63.15 -30.4 -66.4 -25.55 -68.5 -24.6 -68.9 -23.5 -68.5" fill="none" stroke="#000000" stroke-linecap="round" stroke-linejoin="round" stroke-width="2.0"/>
      <path d="M15.0 20.75 Q13.9 12.1 13.4 3.4 L13.0 -6.0 8.0 -27.0 6.0 -15.5 4.7 -18.75 Q3.3 -23.05 2.9 -27.7 2.15 -36.1 2.2 -44.65 -1.2 -36.9 -9.05 -33.65 -18.15 -29.85 -25.85 -23.9 L-28.6 -21.6 Q-28.6 -23.05 -28.2 -24.35 -27.55 -26.5 -25.95 -28.15 L-25.0 -29.0 Q-31.1 -29.15 -35.95 -25.05 L-36.35 -24.7 -38.2 -23.15 -41.9 -19.75 M2.2 -44.65 L2.95 -46.6 Q4.25 -50.2 4.0 -54.0 M19.4 -0.4 L20.0 -5.5 18.0 -1.0 15.55 4.4 M15.45 4.35 L13.0 -6.0 M19.4 -0.4 Q18.8 5.1 19.35 10.65 L20.15 16.8 Q21.0 21.5 22.35 26.1 23.35 29.55 24.5 33.0" fill="none" stroke="#af9874" stroke-linecap="round" stroke-linejoin="round" stroke-width="2.0"/>
    </g>
    </g>
  </g>
  <defs>
    <radialGradient cx="0" cy="0" gradientTransform="matrix(0.0481, 0.1394, -0.165, 0.0569, -7.5, -60.5)" gradientUnits="userSpaceOnUse" id="gradient0" r="819.2" spreadMethod="pad">
      <stop offset="0.0" stop-color="#eeedbb"/>
      <stop offset="0.17254901960784313" stop-color="#ffffc8"/>
      <stop offset="0.3176470588235294" stop-color="#ffffff"/>
      <stop offset="0.38823529411764707" stop-color="#ffffc8"/>
      <stop offset="0.6549019607843137" stop-color="#ffffff"/>
      <stop offset="1.0" stop-color="#ededb6"/>
    </radialGradient>
  </defs>
</svg>