<svg xmlns:xlink="http://www.w3.org/1999/xlink" xmlns="http://www.w3.org/2000/svg" height="16.65px" width="27.9px">
  <g transform="matrix(1.0, 0.0, 0.0, 1.0, 11.2, 8.0)">
    <g data-characterId="1345" height="6.95" transform="matrix(1.0, 0.0, 0.0, 1.0, -9.7, -1.7)" width="18.65" xlink:href="#shape0"><g id="shape0" transform="matrix(1.0, 0.0, 0.0, 1.0, 9.7, 1.7)">
      <path d="M-9.1 0.8 L-9.25 0.85 -9.45 0.75 -9.7 0.5 -9.7 0.4 -9.6 0.05 -9.55 -0.15 Q-8.75 -1.1 -7.65 -1.6 L-7.0 -1.6 Q-4.5 -0.4 -3.05 -1.2 -1.55 -2.0 0.15 -1.2 1.9 -0.4 4.8 -0.4 L7.65 -0.05 5.35 0.3 0.25 0.7 -0.6 0.45 -3.95 1.05 -6.35 0.95 -8.35 0.6 -8.55 0.45 -8.7 0.45 -8.75 0.45 -8.95 0.5 -9.15 0.6 -9.1 0.8" fill="#3a4549" fill-rule="evenodd" stroke="none"/>
      <path d="M7.65 -0.05 L8.0 -0.2 8.7 -0.05 8.8 0.05 8.85 0.15 8.85 0.25 8.95 0.45 Q7.25 2.2 4.75 3.15 L2.95 3.75 Q-0.65 5.85 -5.0 5.0 L-6.15 4.6 Q-8.7 3.25 -9.1 0.8 L-9.15 0.6 -8.95 0.5 -8.75 0.45 -8.7 0.45 -8.55 0.45 -8.35 0.6 -8.3 0.75 -8.05 1.1 -6.35 0.95 -3.95 1.05 -3.15 1.1 -1.8 1.05 0.25 0.7 5.35 0.3 7.65 -0.05 M0.45 2.4 L0.25 2.35 -0.4 2.15 -0.55 2.2 -6.25 2.05 -6.6 2.2 -6.7 2.45 -6.35 3.05 Q-2.5 5.05 0.45 2.4" fill="#4f5c66" fill-rule="evenodd" stroke="none"/>
      <path d="M0.45 2.4 Q-2.5 5.05 -6.35 3.05 L-6.7 2.45 -6.6 2.2 -6.25 2.05 -0.55 2.2 -0.4 2.15 0.25 2.35 0.45 2.4" fill="#8d9ca7" fill-rule="evenodd" stroke="none"/>
    </g>
    </g>
    <g data-characterId="1346" height="8.05" transform="matrix(1.0, 0.0, 0.0, 1.0, -9.65, -1.9)" width="20.85" xlink:href="#shape1"><g id="shape1" transform="matrix(1.0, 0.0, 0.0, 1.0, 9.65, 1.9)">
      <path d="M10.7 -1.4 Q9.55 -0.2 8.05 0.1 L5.8 0.6 2.2 0.85 -1.7 1.0 -3.95 1.2 -6.55 1.0 -9.15 0.45" fill="none" stroke="#000000" stroke-linecap="round" stroke-linejoin="round" stroke-width="2.0"/>
      <path d="M-3.65 5.5 L-1.15 5.55 -0.4 5.4 0.0 5.4" fill="none" stroke="#3a4549" stroke-linecap="round" stroke-linejoin="round" stroke-width="2.0"/>
    </g>
  </g>
  </g>
  <defs>
    </defs>
</svg>