<svg xmlns:xlink="http://www.w3.org/1999/xlink" xmlns="http://www.w3.org/2000/svg" height="98.75px" width="161.15px">
  <g transform="matrix(1.0, 0.0, 0.0, 1.0, 83.0, 71.7)">
    <g data-characterId="1263" height="44.15" transform="matrix(1.0, 0.0, 0.0, 1.0, -54.65, -22.5)" width="121.7" xlink:href="#shape0"><g id="shape0" transform="matrix(1.0, 0.0, 0.0, 1.0, 54.65, 22.5)">
      <path d="M24.0 -14.0 L23.5 -13.5 Q22.65 -12.85 21.6 -12.3 L20.4 -11.65 Q19.75 -11.25 19.0 -11.0 14.1 -9.2 9.0 -7.95 L-0.55 -5.75 Q-5.35 -4.65 -7.5 0.0 -5.35 -4.65 -0.55 -5.75 L9.0 -7.95 Q14.1 -9.2 19.0 -11.0 19.75 -11.25 20.4 -11.65 L21.6 -12.3 Q22.65 -12.85 23.5 -13.5 L24.0 -14.0 M-21.55 -20.5 L-18.5 -19.3 Q-6.65 -14.3 3.05 -15.05 12.6 -15.8 24.0 -22.5 L24.5 -22.0 24.5 -19.5 Q24.65 -17.9 27.55 -16.75 L33.6 -14.45 Q31.35 -10.95 28.7 -7.65 L24.05 -2.4 17.9 3.85 13.85 7.65 9.5 11.75 7.95 13.25 -2.6 11.3 Q-6.3 10.35 -10.1 10.75 -19.9 11.2 -29.5 10.4 L-29.95 9.45 -29.5 10.4 -30.0 10.35 -29.95 9.45 Q-31.9 5.05 -33.05 0.35 L-35.0 -8.25 Q-35.4 -10.25 -35.4 -12.25 -25.7 -15.6 -21.55 -20.5 M-27.9 -13.6 Q-26.05 -10.9 -26.5 -7.5 -26.05 -10.9 -27.9 -13.6" fill="#ecc59d" fill-rule="evenodd" stroke="none"/>
      <path d="M-35.4 -12.25 Q-35.4 -10.25 -35.0 -8.25 L-33.05 0.35 Q-31.9 5.05 -29.95 9.45 L-30.0 10.35 -36.75 9.6 Q-46.35 8.7 -50.9 7.5 -55.45 6.3 -53.65 0.8 -51.9 -4.7 -45.1 -7.9 L-35.4 -12.25 M7.95 13.25 L9.5 11.75 13.85 7.65 17.9 3.85 24.05 -2.4 28.7 -7.65 Q31.35 -10.95 33.6 -14.45 35.35 -13.8 44.15 -12.95 52.95 -12.15 63.1 -2.9 73.25 6.3 53.55 10.45 33.8 14.55 18.8 14.15 L20.7 12.0 Q23.6 8.65 26.0 4.9 L29.45 -0.95 26.0 4.9 Q23.6 8.65 20.7 12.0 L18.8 14.15 7.95 13.25 M-41.2 -7.6 L-40.7 -4.9 Q-40.05 -0.9 -38.95 2.95 L-36.75 9.6 -38.95 2.95 Q-40.05 -0.9 -40.7 -4.9 L-41.2 -7.6" fill="#fffff9" fill-rule="evenodd" stroke="none"/>
      <path d="M-7.5 0.0 Q-5.35 -4.65 -0.55 -5.75 L9.0 -7.95 Q14.1 -9.2 19.0 -11.0 19.75 -11.25 20.4 -11.65 L21.6 -12.3 Q22.65 -12.85 23.5 -13.5 L24.0 -14.0 M-26.5 -7.5 Q-26.05 -10.9 -27.9 -13.6" fill="none" stroke="#b9a882" stroke-linecap="round" stroke-linejoin="round" stroke-width="2.0"/>
      <path d="M-21.55 -20.5 Q-25.7 -15.6 -35.4 -12.25 L-45.1 -7.9 Q-51.9 -4.7 -53.65 0.8 -55.45 6.3 -50.9 7.5 -46.35 8.7 -36.75 9.6 L-30.0 10.35 -29.5 10.4 Q-19.9 11.2 -10.1 10.75 -6.3 10.35 -2.6 11.3 L7.95 13.25 18.8 14.15 Q33.8 14.55 53.55 10.45 73.25 6.3 63.1 -2.9 52.95 -12.15 44.15 -12.95 35.35 -13.8 33.6 -14.45 L27.55 -16.75 Q24.65 -17.9 24.5 -19.5 L24.5 -22.0" fill="none" stroke="#000000" stroke-linecap="round" stroke-linejoin="round" stroke-width="2.0"/>
      <path d="M-35.4 -12.25 Q-35.4 -10.25 -35.0 -8.25 L-33.05 0.35 Q-31.9 5.05 -29.95 9.45 L-29.5 10.4 -27.35 13.75 -25.55 16.1 M7.95 13.25 L9.5 11.75 13.85 7.65 17.9 3.85 24.05 -2.4 28.7 -7.65 Q31.35 -10.95 33.6 -14.45 M18.8 14.15 L14.35 18.5 11.95 20.45 M-36.75 9.6 L-38.95 2.95 Q-40.05 -0.9 -40.7 -4.9 L-41.2 -7.6 M-36.75 9.6 L-36.0 11.65 -34.75 14.5 M18.8 14.15 L20.7 12.0 Q23.6 8.65 26.0 4.9 L29.45 -0.95 M7.95 13.25 L5.35 15.5 -1.6 21.15" fill="none" stroke="#000000" stroke-linecap="round" stroke-linejoin="round" stroke-width="2.0"/>
    </g>
  </g>
  </g>
  <defs>
    </defs>
</svg>