<svg xmlns:xlink="http://www.w3.org/1999/xlink" xmlns="http://www.w3.org/2000/svg" height="158.3px" width="140.45px">
  <g transform="matrix(1.0, 0.0, 0.0, 1.0, 64.7, 56.15)">
    <g data-characterId="1469" height="126.45" transform="matrix(1.0, 0.0, 0.0, 1.0, -43.15, -56.15)" width="90.8" xlink:href="#shape0"><g id="shape0" transform="matrix(1.0, 0.0, 0.0, 1.0, 43.15, 56.15)">
      <path d="M-36.4 -12.0 L-34.8 -16.5 -31.25 -25.35 Q-26.5 -36.2 -19.45 -45.5 -16.35 -49.6 -11.65 -51.7 -9.0 -52.9 -5.95 -53.35 L13.45 -55.65 Q20.7 -51.9 24.4 -44.6 27.7 -38.1 30.05 -31.25 32.75 -23.3 34.55 -15.15 L38.2 0.7 24.2 -10.5 Q21.2 -5.95 16.0 -4.6 21.2 -5.95 24.2 -10.5 L38.2 0.7 40.2 2.75 Q44.0 6.95 46.6 12.0 47.7 21.4 46.6 30.6 45.55 39.05 42.4 47.2 40.2 53.0 38.25 58.95 36.65 63.85 34.0 68.15 35.5 61.95 34.95 55.75 L34.95 55.5 Q34.65 52.6 33.9 49.75 31.95 41.95 27.8 35.0 26.05 32.05 23.55 30.0 L21.85 28.9 Q17.35 26.45 13.45 23.2 5.75 16.85 -4.05 16.05 L-20.4 14.9 -32.8 15.55 -32.85 15.75 -32.95 16.25 -33.55 18.5 -33.7 19.0 Q-34.05 20.8 -33.9 22.75 L-33.5 24.5 Q-35.15 23.8 -36.8 22.55 L-38.2 21.4 -38.8 20.8 -40.4 18.7 -41.15 16.9 -41.6 17.0 Q-43.15 8.8 -42.45 1.55 -41.65 -7.4 -40.05 -16.35 L-36.4 -12.0 Q-34.85 -10.85 -32.85 -10.85 L-31.2 -11.3 Q-24.85 -14.35 -18.15 -16.05 -13.8 -16.95 -9.65 -16.15 -2.7 -14.65 1.25 -8.6 2.9 -6.05 5.55 -4.8 10.0 -2.65 14.65 -4.35 10.0 -2.65 5.55 -4.8 2.9 -6.05 1.25 -8.6 -2.7 -14.65 -9.65 -16.15 -13.8 -16.95 -18.15 -16.05 -24.85 -14.35 -31.2 -11.3 L-32.85 -10.85 Q-34.85 -10.85 -36.4 -12.0 M14.65 -4.6 L14.65 -4.35 16.0 -4.6 14.65 -4.6 14.15 -23.5 13.6 -40.9 Q13.4 -46.8 12.0 -52.5 13.4 -46.8 13.6 -40.9 L14.15 -23.5 14.65 -4.6 M-26.3 -3.0 L-27.5 -1.65 -25.9 -2.45 Q-25.05 0.75 -22.15 2.35 L-21.0 2.9 -20.9 2.95 Q-18.5 3.9 -15.8 3.55 -11.45 3.6 -10.5 -0.5 L-7.05 1.6 Q-7.85 -3.7 -12.95 -5.6 -16.95 -7.1 -20.35 -6.4 -22.15 -6.0 -23.75 -5.0 L-23.8 -4.95 -26.3 -3.0 M-16.25 -4.5 L-13.75 -3.95 -13.05 -2.95 -13.3 -1.85 Q-14.05 1.15 -17.0 2.0 -18.1 -1.45 -16.25 -4.5 M-18.8 -4.5 L-19.85 -3.75 -20.25 -5.5 -19.25 -5.5 -18.8 -4.5 M-23.5 -4.5 Q-21.75 -3.85 -20.7 -2.85 -18.8 -1.0 -19.6 2.0 L-20.5 1.75 Q-23.8 -0.4 -23.5 -4.5 M-32.8 15.55 L-41.15 16.9 -32.8 15.55" fill="url(#gradient0)" fill-rule="evenodd" stroke="none"/>
      <path d="M32.55 68.15 Q32.5 64.3 33.15 60.4 33.55 57.9 34.95 55.75 35.5 61.95 34.0 68.15 L32.55 68.15" fill="#000000" fill-rule="evenodd" stroke="none"/>
      <path d="M-26.3 -3.0 L-23.8 -4.95 -23.75 -5.0 Q-22.15 -6.0 -20.35 -6.4 -16.95 -7.1 -12.95 -5.6 -7.85 -3.7 -7.05 1.6 L-10.5 -0.5 Q-11.45 3.6 -15.8 3.55 -18.5 3.9 -20.9 2.95 L-21.0 2.9 -22.15 2.35 Q-25.05 0.75 -25.9 -2.45 L-26.3 -3.0 M-23.5 -4.5 Q-23.8 -0.4 -20.5 1.75 L-19.6 2.0 Q-18.8 -1.0 -20.7 -2.85 -21.75 -3.85 -23.5 -4.5 M-18.8 -4.5 L-19.25 -5.5 -20.25 -5.5 -19.85 -3.75 -18.8 -4.5 M-16.25 -4.5 Q-18.1 -1.45 -17.0 2.0 -14.05 1.15 -13.3 -1.85 L-13.05 -2.95 -13.75 -3.95 -16.25 -4.5" fill="url(#gradient1)" fill-rule="evenodd" stroke="none"/>
      <path d="M38.2 0.7 L34.55 -15.15 Q32.75 -23.3 30.05 -31.25 27.7 -38.1 24.4 -44.6 20.7 -51.9 13.45 -55.65 L-5.95 -53.35 Q-9.0 -52.9 -11.65 -51.7 -16.35 -49.6 -19.45 -45.5 -26.5 -36.2 -31.25 -25.35 L-34.8 -16.5 -36.4 -12.0 Q-34.85 -10.85 -32.85 -10.85 L-31.2 -11.3 Q-24.85 -14.35 -18.15 -16.05 -13.8 -16.95 -9.65 -16.15 -2.7 -14.65 1.25 -8.6 2.9 -6.05 5.55 -4.8 10.0 -2.65 14.65 -4.35 L14.65 -4.6 14.15 -23.5 13.6 -40.9 Q13.4 -46.8 12.0 -52.5 M14.65 -4.35 L16.0 -4.6 Q21.2 -5.95 24.2 -10.5 L38.2 0.7 40.2 2.75 Q44.0 6.95 46.6 12.0 47.7 21.4 46.6 30.6 45.55 39.05 42.4 47.2 40.2 53.0 38.25 58.95 36.65 63.85 34.0 68.15 L32.6 69.8 32.55 68.15 Q32.5 64.3 33.15 60.4 33.55 57.9 34.95 55.75 L34.95 55.5 Q34.65 52.6 33.9 49.75 31.95 41.95 27.8 35.0 26.05 32.05 23.55 30.0 L21.85 28.9 Q17.35 26.45 13.45 23.2 5.75 16.85 -4.05 16.05 L-20.4 14.9 -32.8 15.55 -32.85 15.75 -32.95 16.25 -33.55 18.5 -33.7 19.0 Q-34.05 20.8 -33.9 22.75 L-33.5 24.5 Q-35.15 23.8 -36.8 22.55 L-38.2 21.4 -38.8 20.8 -40.4 18.7 -41.15 16.9 -41.6 17.0 Q-43.15 8.8 -42.45 1.55 -41.65 -7.4 -40.05 -16.35 L-36.4 -12.0 M34.0 68.15 Q35.5 61.95 34.95 55.75 M-25.9 -2.45 L-27.5 -1.65 -26.3 -3.0 M-41.15 16.9 L-32.8 15.55" fill="none" stroke="#000000" stroke-linecap="round" stroke-linejoin="round" stroke-width="2.0"/>
      <path d="M-26.3 -3.0 L-23.8 -4.95 -23.75 -5.0 Q-22.15 -6.0 -20.35 -6.4 -16.95 -7.1 -12.95 -5.6 -7.85 -3.7 -7.05 1.6 L-10.5 -0.5 Q-11.45 3.6 -15.8 3.55 -18.5 3.9 -20.9 2.95 L-21.0 2.9 -22.15 2.35 Q-25.05 0.75 -25.9 -2.45 L-26.3 -3.0 M-23.5 -4.5 Q-23.8 -0.4 -20.5 1.75 L-19.6 2.0 Q-18.8 -1.0 -20.7 -2.85 -21.75 -3.85 -23.5 -4.5 M-18.8 -4.5 L-19.25 -5.5 -20.25 -5.5 -19.85 -3.75 -18.8 -4.5 M-16.25 -4.5 Q-18.1 -1.45 -17.0 2.0 -14.05 1.15 -13.3 -1.85 L-13.05 -2.95 -13.75 -3.95 -16.25 -4.5 Z" fill="none" stroke="#000000" stroke-linecap="round" stroke-linejoin="round" stroke-width="1.5"/>
    </g>
    </g>
  </g>
  <defs>
    <linearGradient gradientTransform="matrix(0.0455, 0.0, 0.0, 0.0344, 0.9, -27.5)" gradientUnits="userSpaceOnUse" id="gradient0" spreadMethod="pad" x1="-819.2" x2="819.2">
      <stop offset="0.0" stop-color="#000000"/>
      <stop offset="0.3215686274509804" stop-color="#022a09"/>
      <stop offset="1.0" stop-color="#000000"/>
    </linearGradient>
    <linearGradient gradientTransform="matrix(0.0101, 0.0, 0.0, 0.0063, -18.0, -1.5)" gradientUnits="userSpaceOnUse" id="gradient1" spreadMethod="pad" x1="-819.2" x2="819.2">
      <stop offset="0.0" stop-color="#283f27"/>
      <stop offset="0.2627450980392157" stop-color="#75bf94"/>
      <stop offset="0.5137254901960784" stop-color="#ffffff"/>
      <stop offset="0.7333333333333333" stop-color="#97cea2"/>
      <stop offset="1.0" stop-color="#526747"/>
    </linearGradient>
  </defs>
</svg>