<svg xmlns:xlink="http://www.w3.org/1999/xlink" xmlns="http://www.w3.org/2000/svg" height="16.65px" width="27.9px">
  <g transform="matrix(1.0, 0.0, 0.0, 1.0, 11.2, 8.0)">
    <g data-characterId="1323" height="8.05" transform="matrix(1.0, 0.0, 0.0, 1.0, -10.15, -2.25)" width="18.05" xlink:href="#shape0"><g id="shape0" transform="matrix(1.0, 0.0, 0.0, 1.0, 10.15, 2.25)">
      <path d="M-9.9 -1.65 L-10.05 -1.2 -10.1 -1.3 -10.05 -1.35 -10.0 -1.55 -9.9 -1.65 M7.2 -0.35 L7.35 -0.9 7.4 -0.85 7.4 -0.75 7.25 -0.45 7.2 -0.35" fill="#e6b380" fill-rule="evenodd" stroke="none"/>
      <path d="M-9.9 -1.65 L-5.25 -1.95 -5.2 -1.85 -5.1 -1.7 -1.95 -1.95 -0.85 -1.95 4.5 -2.25 Q6.3 -2.2 7.35 -0.9 L7.2 -0.35 -2.05 0.5 -2.55 0.6 -4.85 0.35 -5.75 0.55 -7.55 -0.05 -7.7 -0.3 Q-8.95 -0.5 -10.05 -1.2 L-9.9 -1.65" fill="#3a4549" fill-rule="evenodd" stroke="none"/>
      <path d="M-5.75 0.55 L-4.85 0.35 -2.55 0.6 2.3 1.5 5.1 2.0 Q6.15 2.15 6.5 3.05 6.15 4.5 4.25 4.1 L1.45 4.2 Q-2.8 5.5 -7.0 4.6 -8.5 4.25 -9.6 3.15 -9.7 1.8 -8.4 1.3 L-6.15 0.65 -5.75 0.55 M-2.25 2.55 L-2.35 2.5 -5.1 2.05 -5.85 2.1 Q-7.05 2.15 -7.8 2.95 L-7.8 3.15 -7.8 3.35 -7.75 3.5 -7.65 3.7 -7.1 3.85 -5.15 3.9 Q-2.6 4.65 -2.25 2.55" fill="#4f5c66" fill-rule="evenodd" stroke="none"/>
      <path d="M-2.25 2.55 Q-2.6 4.65 -5.15 3.9 L-7.1 3.85 -7.65 3.7 -7.75 3.5 -7.8 3.35 -7.8 3.15 -7.8 2.95 Q-7.05 2.15 -5.85 2.1 L-5.1 2.05 -2.35 2.5 -2.25 2.55" fill="#8d9ca7" fill-rule="evenodd" stroke="none"/>
      <path d="M7.75 -0.6 L3.5 0.5 3.8 -0.55 3.85 -1.55 3.8 -0.55 3.5 0.5 7.75 -0.6 7.9 2.2 6.4 2.95 Q-0.8 1.4 -4.2 1.2 -7.6 0.95 -8.4 2.15 L-9.65 2.3 -10.15 -0.5 -9.3 -1.1 Q-4.7 0.05 0.0 -1.0 L3.85 -1.55 4.95 -1.75 Q6.4 -1.85 7.45 -0.95 L7.75 -0.6 M-0.7 0.95 L3.4 0.5 3.5 0.5 3.4 0.5 -0.7 0.95" fill="#fdf0ac" fill-rule="evenodd" stroke="none"/>
      <path d="M3.85 -1.55 L3.8 -0.55 3.5 0.5 7.75 -0.6 7.45 -0.95 Q6.4 -1.85 4.95 -1.75 L3.85 -1.55 0.0 -1.0 Q-4.7 0.05 -9.3 -1.1 L-10.15 -0.5 -9.65 2.3 -8.4 2.15 Q-7.6 0.95 -4.2 1.2 -0.8 1.4 6.4 2.95 L7.9 2.2 7.75 -0.6 M3.5 0.5 L3.4 0.5 -0.7 0.95 M-9.3 -1.1 L-10.1 -1.25" fill="none" stroke="#000000" stroke-linecap="round" stroke-linejoin="round" stroke-width="1.5"/>
      <path d="M-6.6 4.65 L-5.5 5.05 -5.1 5.1 -4.5 5.2 -3.5 5.3 -3.0 5.15" fill="none" stroke="#3a4549" stroke-linecap="round" stroke-linejoin="round" stroke-width="2.0"/>
    </g>
  </g>
  </g>
  <defs>
    </defs>
</svg>