<svg xmlns:xlink="http://www.w3.org/1999/xlink" xmlns="http://www.w3.org/2000/svg" height="98.75px" width="161.15px">
  <g transform="matrix(1.0, 0.0, 0.0, 1.0, 83.0, 71.7)">
    <g data-characterId="1262" height="27.65" transform="matrix(1.0, 0.0, 0.0, 1.0, -54.9, -22.5)" width="122.85" xlink:href="#shape0"><g id="shape0" transform="matrix(1.0, 0.0, 0.0, 1.0, 54.9, 22.5)">
      <path d="M24.0 -14.0 L23.5 -13.5 Q22.65 -12.85 21.6 -12.3 L20.4 -11.65 Q19.75 -11.25 19.0 -11.0 14.1 -9.2 9.0 -7.95 L-0.55 -5.75 Q-5.35 -4.65 -7.5 0.0 -5.35 -4.65 -0.55 -5.75 L9.0 -7.95 Q14.1 -9.2 19.0 -11.0 19.75 -11.25 20.4 -11.65 L21.6 -12.3 Q22.65 -12.85 23.5 -13.5 L24.0 -14.0 M24.5 -22.0 L24.5 -19.5 Q24.65 -17.9 27.55 -16.75 29.9 -15.85 39.4 -13.35 48.9 -10.9 57.5 -6.7 66.1 -2.5 67.45 4.45 L31.95 4.15 -39.7 4.15 -39.0 -1.65 Q-38.65 -6.2 -37.1 -10.35 -38.65 -6.2 -39.0 -1.65 L-39.7 4.15 -54.4 4.15 Q-53.55 2.55 -51.95 -1.45 -50.45 -5.45 -38.7 -9.75 L-37.1 -10.35 Q-26.6 -14.5 -21.55 -20.5 L-18.5 -19.3 Q-6.65 -14.3 3.05 -15.05 12.6 -15.8 24.0 -22.5 L24.5 -22.0 M35.95 -13.2 Q33.4 -6.85 32.4 -0.15 L31.95 4.15 32.4 -0.15 Q33.4 -6.85 35.95 -13.2 M-27.9 -13.6 Q-26.05 -10.9 -26.5 -7.5 -26.05 -10.9 -27.9 -13.6" fill="#ecc59d" fill-rule="evenodd" stroke="none"/>
      <path d="M-7.5 0.0 Q-5.35 -4.65 -0.55 -5.75 L9.0 -7.95 Q14.1 -9.2 19.0 -11.0 19.75 -11.25 20.4 -11.65 L21.6 -12.3 Q22.65 -12.85 23.5 -13.5 L24.0 -14.0 M-26.5 -7.5 Q-26.05 -10.9 -27.9 -13.6" fill="none" stroke="#b9a882" stroke-linecap="round" stroke-linejoin="round" stroke-width="2.0"/>
      <path d="M67.45 4.45 Q66.1 -2.5 57.5 -6.7 48.9 -10.9 39.4 -13.35 29.9 -15.85 27.55 -16.75 24.65 -17.9 24.5 -19.5 L24.5 -22.0 M-21.55 -20.5 Q-26.6 -14.5 -37.1 -10.35 L-38.7 -9.75 Q-50.45 -5.45 -51.95 -1.45 -53.55 2.55 -54.4 4.15" fill="none" stroke="#000000" stroke-linecap="round" stroke-linejoin="round" stroke-width="2.0"/>
      <path d="M-37.1 -10.35 Q-38.65 -6.2 -39.0 -1.65 L-39.7 4.15 M31.95 4.15 L32.4 -0.15 Q33.4 -6.85 35.95 -13.2 M-37.1 -10.35 L-36.8 -11.2" fill="none" stroke="#66ccff" stroke-linecap="round" stroke-linejoin="round" stroke-width="4.0"/>
      <path d="M-1.6 -5.0 L-0.85 -5.15 Q-0.05 -5.15 0.45 -4.65 1.0 -4.1 1.0 -3.3 1.0 -2.5 0.45 -2.0 -0.05 -1.45 -0.85 -1.45 L-1.6 -1.6 -2.2 -2.0 Q-2.7 -2.5 -2.7 -3.3 -2.7 -4.1 -2.2 -4.65 L-1.6 -5.0 M-11.1 -4.65 Q-10.55 -4.1 -10.55 -3.3 -10.55 -2.5 -11.1 -2.0 -11.6 -1.45 -12.4 -1.45 -13.2 -1.45 -13.75 -2.0 -14.25 -2.5 -14.25 -3.3 -14.25 -4.1 -13.75 -4.65 -13.2 -5.15 -12.4 -5.15 -11.6 -5.15 -11.1 -4.65 M-11.5 -3.0 L-11.65 -2.75 Q-11.7 -2.25 -12.2 -2.3 -11.7 -2.25 -11.65 -2.75 L-11.5 -3.0 M-0.45 -3.45 L-1.15 -3.55 -1.55 -3.35 Q-1.85 -2.55 -1.85 -3.0 -1.85 -2.55 -1.55 -3.35 L-1.15 -3.55 -0.45 -3.45 M-12.65 -3.55 Q-13.5 -3.6 -13.35 -2.5 -13.5 -3.6 -12.65 -3.55 M-0.25 -2.75 L-0.5 -2.6 -1.4 -2.05 -0.5 -2.6 -0.25 -2.75" fill="#01b9fe" fill-rule="evenodd" stroke="none"/>
      <path d="M-1.6 -1.6 L-2.35 -1.45 Q-3.15 -1.45 -3.7 -2.0 -4.2 -2.5 -4.2 -3.3 -4.2 -4.1 -3.7 -4.65 -3.15 -5.15 -2.35 -5.15 L-1.6 -5.0 M-11.1 -4.65 Q-10.55 -4.1 -10.55 -3.3 -10.55 -2.5 -11.1 -2.0 -11.6 -1.45 -12.4 -1.45 -13.2 -1.45 -13.75 -2.0 -14.25 -2.5 -14.25 -3.3 -14.25 -4.1 -13.75 -4.65 -13.2 -5.15 -12.4 -5.15 -11.6 -5.15 -11.1 -4.65" fill="none" stroke="#66ffff" stroke-linecap="round" stroke-linejoin="round" stroke-width="1.5"/>
      <path d="M-12.2 -2.3 Q-11.7 -2.25 -11.65 -2.75 L-11.5 -3.0 M-1.4 -2.05 L-0.5 -2.6 -0.25 -2.75" fill="none" stroke="#000099" stroke-linecap="round" stroke-linejoin="round" stroke-width="1.5"/>
      <path d="M-13.35 -2.5 Q-13.5 -3.6 -12.65 -3.55 M-1.85 -3.0 Q-1.85 -2.55 -1.55 -3.35 L-1.15 -3.55 -0.45 -3.45" fill="none" stroke="#ffffff" stroke-linecap="round" stroke-linejoin="round" stroke-width="1.5"/>
      <path d="M1.35 -4.5 L1.9 -4.7 2.4 -4.5 2.65 -3.95 2.4 -3.45 Q2.2 -3.2 1.9 -3.2 L1.35 -3.45 Q1.15 -3.65 1.15 -3.95 L1.35 -4.5 M7.0 -5.35 L7.25 -4.8 7.0 -4.3 Q6.8 -4.05 6.5 -4.05 6.2 -4.05 5.95 -4.3 L5.75 -4.8 5.95 -5.35 6.5 -5.55 7.0 -5.35 M16.05 -7.1 L15.8 -6.6 Q15.6 -6.35 15.3 -6.35 15.0 -6.35 14.75 -6.6 L14.55 -7.1 14.75 -7.65 15.3 -7.85 15.8 -7.65 16.05 -7.1 M19.25 -7.95 Q18.95 -7.95 18.7 -8.2 L18.5 -8.7 18.7 -9.25 19.25 -9.45 19.75 -9.25 20.0 -8.7 19.75 -8.2 Q19.55 -7.95 19.25 -7.95 M11.05 -6.45 L11.55 -6.25 11.8 -5.7 11.55 -5.2 Q11.35 -4.95 11.05 -4.95 L10.5 -5.2 10.3 -5.7 10.5 -6.25 11.05 -6.45 M30.75 -16.3 L30.5 -15.8 Q30.3 -15.55 30.0 -15.55 29.7 -15.55 29.45 -15.8 L29.25 -16.3 29.45 -16.85 30.0 -17.05 30.5 -16.85 30.75 -16.3 M26.45 -13.9 L27.0 -14.1 27.5 -13.9 27.75 -13.35 27.5 -12.85 Q27.3 -12.6 27.0 -12.6 26.7 -12.6 26.45 -12.85 L26.25 -13.35 26.45 -13.9 M22.75 -11.35 L23.3 -11.55 23.8 -11.35 24.05 -10.8 23.8 -10.3 Q23.6 -10.05 23.3 -10.05 23.0 -10.05 22.75 -10.3 L22.55 -10.8 22.75 -11.35 M-29.95 -15.5 L-29.4 -15.7 -28.9 -15.5 -28.65 -14.95 Q-28.65 -14.65 -28.9 -14.45 -29.1 -14.2 -29.4 -14.2 L-29.95 -14.45 -30.15 -14.95 -29.95 -15.5 M-23.75 -9.15 L-23.2 -9.35 Q-22.9 -9.35 -22.7 -9.15 L-22.45 -8.6 Q-22.45 -8.3 -22.7 -8.1 -22.9 -7.85 -23.2 -7.85 L-23.75 -8.1 -23.95 -8.6 -23.75 -9.15 M-25.95 -12.1 L-25.7 -11.55 Q-25.7 -11.25 -25.95 -11.05 -26.15 -10.8 -26.45 -10.8 -26.75 -10.8 -27.0 -11.05 L-27.2 -11.55 -27.0 -12.1 -26.45 -12.3 -25.95 -12.1 M-19.3 -6.75 L-18.75 -6.95 -18.25 -6.75 -18.0 -6.2 Q-18.0 -5.9 -18.25 -5.7 -18.45 -5.45 -18.75 -5.45 -19.05 -5.45 -19.3 -5.7 L-19.5 -6.2 -19.3 -6.75" fill="#e7e7e7" fill-rule="evenodd" stroke="none"/>
      <path d="M-6.65 -7.35 Q-5.0 -7.35 -3.85 -6.2 -2.7 -5.05 -2.7 -3.4 -2.7 -1.8 -3.85 -0.65 -5.0 0.5 -6.65 0.5 -8.25 0.5 -9.4 -0.65 -10.55 -1.8 -10.55 -3.45 -10.55 -5.05 -9.4 -6.2 -8.25 -7.35 -6.65 -7.35 M-7.15 -3.65 L-7.1 -4.25 Q-6.55 -4.6 -6.45 -5.5 L-7.15 -5.55 Q-8.3 -5.6 -8.9 -4.75 -9.8 -3.45 -9.2 -2.3 -9.8 -3.45 -8.9 -4.75 -8.3 -5.6 -7.15 -5.55 L-6.45 -5.5 Q-6.55 -4.6 -7.1 -4.25 L-7.15 -3.65 M-3.9 -4.15 Q-4.4 -0.55 -8.3 -0.9 -4.4 -0.55 -3.9 -4.15" fill="#01b9fe" fill-rule="evenodd" stroke="none"/>
      <path d="M-6.65 -7.35 Q-5.0 -7.35 -3.85 -6.2 -2.7 -5.05 -2.7 -3.4 -2.7 -1.8 -3.85 -0.65 -5.0 0.5 -6.65 0.5 -8.25 0.5 -9.4 -0.65 -10.55 -1.8 -10.55 -3.45 -10.55 -5.05 -9.4 -6.2 -8.25 -7.35 -6.65 -7.35" fill="none" stroke="#66ffff" stroke-linecap="round" stroke-linejoin="round" stroke-width="1.5"/>
      <path d="M-9.2 -2.3 Q-9.8 -3.45 -8.9 -4.75 -8.3 -5.6 -7.15 -5.55 L-6.45 -5.5 Q-6.55 -4.6 -7.1 -4.25 L-7.15 -3.65" fill="none" stroke="#ffffff" stroke-linecap="round" stroke-linejoin="round" stroke-width="1.5"/>
      <path d="M-8.3 -0.9 Q-4.4 -0.55 -3.9 -4.15" fill="none" stroke="#000099" stroke-linecap="round" stroke-linejoin="round" stroke-width="1.5"/>
    </g>
  </g>
  </g>
  <defs>
    </defs>
</svg>