<svg xmlns:xlink="http://www.w3.org/1999/xlink" xmlns="http://www.w3.org/2000/svg" height="202.2px" width="161.9px">
  <g transform="matrix(1.0, 0.0, 0.0, 1.0, 74.15, 81.7)">
    <g data-characterId="1441" height="103.45" transform="matrix(1.0, 0.0, 0.0, 1.0, -60.0, -72.45)" width="105.15" xlink:href="#shape0"><g id="shape0" transform="matrix(1.0, 0.0, 0.0, 1.0, 60.0, 72.45)">
      <path d="M-28.5 -60.25 Q-28.6 -61.4 -27.9 -61.75 -21.05 -64.95 -14.55 -68.9 -11.1 -71.05 -7.2 -71.65 -3.6 -71.7 -0.45 -69.55 L7.15 -71.95 12.0 -70.95 Q15.3 -70.7 18.2 -69.05 L20.25 -67.85 Q25.6 -64.25 30.1 -59.55 L32.15 -57.15 Q35.5 -52.8 39.5 -49.0 40.7 -47.8 40.75 -46.0 L40.85 -42.8 Q40.95 -39.3 42.2 -35.7 43.1 -33.2 43.35 -30.6 43.9 -25.0 44.6 -19.45 L44.6 -17.75 Q44.25 -14.15 42.65 -11.25 36.3 -0.1 32.0 11.9 30.6 15.85 30.7 20.2 L30.5 27.5 27.8 22.1 27.15 24.9 26.9 26.25 26.8 28.4 27.0 30.5 Q25.9 29.8 25.5 28.6 25.0 27.25 25.2 25.85 L25.3 24.5 25.05 14.75 24.6 14.75 Q23.65 11.1 25.15 7.3 26.9 2.9 27.65 -1.45 30.6 -1.65 30.8 -6.6 30.95 -11.55 33.6 -17.85 L33.05 -18.6 32.85 -21.3 Q32.4 -25.95 28.15 -26.1 L27.45 -25.3 23.5 -19.0 21.5 -22.5 20.5 -16.6 Q18.45 -21.9 16.85 -27.35 L16.0 -30.25 Q15.65 -31.55 14.5 -32.0 L14.0 -26.5 12.9 -29.15 12.05 -31.35 Q10.9 -34.3 8.4 -36.4 5.95 -38.45 2.9 -38.95 L2.4 -38.6 2.85 -39.0 Q9.65 -45.65 13.1 -54.9 14.3 -58.05 14.55 -61.45 14.7 -63.55 15.5 -65.5 12.35 -62.85 8.4 -61.9 4.7 -61.0 1.0 -61.0 -6.7 -61.85 -14.3 -60.7 L-18.65 -60.1 -28.5 -60.25 M25.0 14.0 L25.05 14.75 25.0 14.0 M-41.6 -20.65 L-36.35 -23.3 Q-35.7 -15.7 -36.65 -7.95 L-36.7 -7.45 -36.9 -3.9 Q-36.95 -2.05 -36.55 -0.75 -36.15 0.5 -36.15 2.8 -38.1 -2.1 -39.4 -6.95 L-39.55 -7.45 -40.5 -12.4 Q-40.9 -14.9 -41.65 -17.4 L-41.9 -19.15 -41.6 -20.65" fill="#000000" fill-rule="evenodd" stroke="none"/>
      <path d="M-28.5 -60.25 L-18.65 -60.1 -14.3 -60.7 Q-6.7 -61.85 1.0 -61.0 4.7 -61.0 8.4 -61.9 12.35 -62.85 15.5 -65.5 14.7 -63.55 14.55 -61.45 14.3 -58.05 13.1 -54.9 9.65 -45.65 2.85 -39.0 L2.4 -38.6 Q0.25 -36.55 -2.25 -34.8 -4.25 -33.35 -6.0 -32.7 L-1.2 -40.25 -3.4 -38.75 Q-11.25 -34.1 -19.75 -30.5 L-36.35 -23.3 -41.6 -20.65 -49.5 -16.5 Q-49.6 -18.25 -48.3 -19.65 L-39.0 -29.5 Q-49.9 -25.3 -59.5 -19.0 -57.7 -23.05 -54.65 -26.3 -48.2 -33.1 -41.2 -39.25 -40.35 -39.3 -41.0 -39.5 L-41.2 -39.25 -58.5 -31.5 Q-58.35 -34.35 -56.7 -36.45 L-51.3 -42.85 Q-48.95 -45.45 -45.95 -47.35 -42.75 -49.45 -39.25 -50.9 -38.0 -51.45 -38.2 -52.35 L-39.2 -52.6 -48.5 -50.5 Q-48.2 -52.05 -47.1 -53.1 -44.85 -55.1 -42.2 -56.3 -35.6 -59.5 -28.5 -60.25" fill="#ff99ff" fill-rule="evenodd" stroke="none"/>
      <path d="M-28.5 -60.25 L-18.65 -60.1 -14.3 -60.7 Q-6.7 -61.85 1.0 -61.0 4.7 -61.0 8.4 -61.9 12.35 -62.85 15.5 -65.5 14.7 -63.55 14.55 -61.45 14.3 -58.05 13.1 -54.9 9.65 -45.65 2.85 -39.0 L2.4 -38.6 Q0.25 -36.55 -2.25 -34.8 -4.25 -33.35 -6.0 -32.7 L-1.2 -40.25 -3.4 -38.75 Q-11.25 -34.1 -19.75 -30.5 L-36.35 -23.3 -41.6 -20.65 -49.5 -16.5 Q-49.6 -18.25 -48.3 -19.65 L-39.0 -29.5 Q-49.9 -25.3 -59.5 -19.0 -57.7 -23.05 -54.65 -26.3 -48.2 -33.1 -41.2 -39.25 L-41.0 -39.5 Q-40.35 -39.3 -41.2 -39.25 L-58.5 -31.5 Q-58.35 -34.35 -56.7 -36.45 L-51.3 -42.85 Q-48.95 -45.45 -45.95 -47.35 -42.75 -49.45 -39.25 -50.9 -38.0 -51.45 -38.2 -52.35 L-39.2 -52.6 -48.5 -50.5 Q-48.2 -52.05 -47.1 -53.1 -44.85 -55.1 -42.2 -56.3 -35.6 -59.5 -28.5 -60.25" fill="none" stroke="#000000" stroke-linecap="round" stroke-linejoin="round" stroke-width="2.0"/>
      <path d="M25.05 14.75 L25.3 24.5 25.2 25.85 Q25.0 27.25 25.5 28.6 25.9 29.8 27.0 30.5 L26.8 28.4 26.9 26.25 27.15 24.9 27.8 22.1 30.5 27.5 30.7 20.2 Q30.6 15.85 32.0 11.9 36.3 -0.1 42.65 -11.25 44.25 -14.15 44.6 -17.75 L44.6 -19.45 Q43.9 -25.0 43.35 -30.6 43.1 -33.2 42.2 -35.7 40.95 -39.3 40.85 -42.8 L40.75 -46.0 Q40.7 -47.8 39.5 -49.0 35.5 -52.8 32.15 -57.15 L30.1 -59.55 Q25.6 -64.25 20.25 -67.85 L18.2 -69.05 Q15.3 -70.7 12.0 -70.95 L7.15 -71.95 -0.45 -69.55 Q-3.6 -71.7 -7.2 -71.65 -11.1 -71.05 -14.55 -68.9 -21.05 -64.95 -27.9 -61.75 -28.6 -61.4 -28.5 -60.25 M2.4 -38.6 L2.9 -38.95 Q5.95 -38.45 8.4 -36.4 10.9 -34.3 12.05 -31.35 L12.9 -29.15 14.0 -26.5 14.5 -32.0 Q15.65 -31.55 16.0 -30.25 L16.85 -27.35 Q18.45 -21.9 20.5 -16.6 L21.5 -22.5 23.5 -19.0 27.45 -25.3 28.15 -26.1 Q32.4 -25.95 32.85 -21.3 L33.05 -18.6 33.6 -17.85 Q30.95 -11.55 30.8 -6.6 30.6 -1.65 27.65 -1.45 26.9 2.9 25.15 7.3 23.65 11.1 24.6 14.75 M25.05 14.75 L25.0 14.0 M-41.6 -20.65 L-41.9 -19.15 -41.65 -17.4 Q-40.9 -14.9 -40.5 -12.4 L-39.55 -7.45 -39.4 -6.95 Q-38.1 -2.1 -36.15 2.8 -36.15 0.5 -36.55 -0.75 -36.95 -2.05 -36.9 -3.9 L-36.7 -7.45 -36.65 -7.95 Q-35.7 -15.7 -36.35 -23.3" fill="none" stroke="#000000" stroke-linecap="round" stroke-linejoin="round" stroke-width="2.0"/>
    </g>
  </g>
  </g>
  <defs>
    </defs>
</svg>