<svg xmlns:xlink="http://www.w3.org/1999/xlink" xmlns="http://www.w3.org/2000/svg" height="202.2px" width="161.9px">
  <g transform="matrix(1.0, 0.0, 0.0, 1.0, 74.15, 81.7)">
    <g data-characterId="1414" height="164.1" transform="matrix(1.0, 0.0, 0.0, 1.0, -56.2, -72.35)" width="109.3" xlink:href="#shape0"><g id="shape0" transform="matrix(1.0, 0.0, 0.0, 1.0, 56.2, 72.35)">
      <path d="M7.0 -63.5 L8.1 -63.85 13.0 -64.0 8.1 -63.85 7.0 -63.5 M1.95 -59.85 L-0.5 -62.0 4.0 -62.25 2.0 -64.0 9.75 -66.15 4.75 -67.0 9.75 -66.15 2.0 -64.0 4.0 -62.25 -0.5 -62.0 1.95 -59.85 1.4 -59.5 1.95 -59.85 3.1 -60.35 Q7.3 -61.95 11.05 -59.6 7.3 -61.95 3.1 -60.35 L1.95 -59.85 2.1 -59.7 1.4 -59.5 2.1 -59.7 1.95 -59.85 M0.0 -58.5 L1.4 -59.5 0.0 -58.5 M-6.4 -71.5 L5.2 -68.9 Q8.9 -71.15 13.25 -69.6 L21.65 -66.15 Q23.9 -65.0 26.05 -63.5 33.65 -58.0 38.7 -50.1 41.9 -45.15 42.35 -39.25 43.0 -29.9 42.65 -20.55 42.35 -11.55 44.4 -2.75 L46.2 4.25 Q46.95 7.0 48.0 9.7 51.25 17.95 51.15 26.85 51.1 31.15 51.55 35.45 L52.3 42.4 52.5 45.25 52.6 50.2 51.5 54.5 51.0 49.5 48.65 64.85 48.3 66.6 Q47.0 71.9 45.0 77.0 46.8 70.05 45.5 63.0 43.15 75.3 36.9 86.15 L36.25 85.75 36.0 75.0 Q34.5 79.0 31.8 82.05 28.5 85.75 25.9 89.8 L25.4 89.45 Q27.95 80.5 27.35 71.1 27.25 69.85 27.5 68.6 28.55 63.8 27.2 59.1 L26.1 55.9 Q24.2 51.45 23.75 46.65 L22.5 42.5 Q19.0 34.8 21.1 26.45 22.6 20.35 22.45 14.35 22.35 9.7 19.9 5.8 19.3 4.75 19.25 3.45 18.7 -5.65 19.15 -14.7 19.45 -21.25 16.1 -26.8 14.75 -29.05 12.5 -30.5 15.45 -23.15 16.05 -15.1 L16.65 -14.35 Q16.7 -11.9 15.5 -9.9 13.3 -6.15 14.3 -1.8 L14.35 -0.45 Q14.2 1.0 13.25 2.35 L9.85 7.4 10.4 8.3 8.4 10.5 7.9 9.0 Q9.1 4.45 11.35 0.2 11.75 -0.6 11.7 -1.55 L11.15 -6.05 Q10.65 -9.1 12.15 -11.8 12.75 -12.95 12.65 -14.35 12.35 -17.8 10.55 -20.6 6.15 -27.45 0.45 -33.25 L-1.15 -35.4 Q-3.25 -39.4 -3.45 -44.0 -3.5 -46.0 -4.05 -47.9 -5.4 -52.8 -8.95 -56.45 -8.75 -50.35 -12.65 -45.75 -13.9 -44.2 -14.8 -42.45 L-20.35 -31.25 Q-21.9 -28.15 -24.7 -25.85 -25.5 -25.2 -25.9 -24.25 -27.65 -20.05 -27.8 -15.5 -28.05 -5.9 -33.25 1.95 L-34.45 3.75 Q-31.0 14.6 -26.6 25.1 -24.75 29.5 -22.0 33.55 L-22.2 34.15 -16.8 35.4 -19.25 46.55 -27.95 48.7 -41.8 51.7 Q-47.05 52.8 -52.5 53.1 -54.35 53.3 -55.7 52.3 L-55.0 51.5 -53.3 49.25 Q-50.35 44.85 -47.95 40.1 -46.1 36.55 -46.95 32.45 -47.4 30.2 -47.1 27.9 -46.3 22.1 -44.8 16.7 -43.85 13.25 -44.35 9.8 -44.9 5.95 -46.15 2.15 -47.3 -1.25 -46.7 -4.85 -45.75 -10.5 -44.45 -16.05 -43.35 -20.55 -44.3 -25.1 -45.85 -32.2 -44.3 -39.2 -42.45 -47.5 -38.95 -54.85 -36.5 -59.9 -32.15 -63.55 -26.1 -68.65 -18.45 -70.85 L-11.05 -71.8 -6.55 -71.5 -6.4 -71.5 M26.5 -24.5 L26.45 -26.1 Q26.05 -32.6 22.5 -38.0 26.05 -32.6 26.45 -26.1 L26.5 -24.5 M30.0 -33.5 L28.0 -42.0 30.0 -33.5 M34.5 -41.5 L32.0 -47.5 34.5 -41.5 M45.0 44.5 Q42.15 42.75 41.65 39.55 40.45 31.8 39.7 24.05 L38.75 14.5 Q37.95 6.75 37.45 -1.0 37.3 -3.05 36.45 -4.75 32.2 -13.15 34.5 -22.5 32.2 -13.15 36.45 -4.75 37.3 -3.05 37.45 -1.0 37.95 6.75 38.75 14.5 L39.7 24.05 Q40.45 31.8 41.65 39.55 42.15 42.75 45.0 44.5 M-4.0 -53.5 L-3.2 -51.75 Q-1.7 -47.35 -1.45 -43.0 -1.2 -38.85 2.6 -37.25 4.3 -36.55 5.2 -35.0 L6.15 -33.6 Q8.5 -30.2 10.2 -26.55 12.65 -21.4 13.5 -16.0 12.65 -21.4 10.2 -26.55 8.5 -30.2 6.15 -33.6 L5.2 -35.0 Q4.3 -36.55 2.6 -37.25 -1.2 -38.85 -1.45 -43.0 -1.7 -47.35 -3.2 -51.75 L-4.0 -53.5 M23.0 -19.5 L23.1 -21.45 Q23.35 -28.9 20.0 -35.5 23.35 -28.9 23.1 -21.45 L23.0 -19.5 M28.5 81.0 Q28.45 72.95 29.0 65.0 29.25 61.7 28.8 58.4 28.65 57.2 28.15 56.1 L23.75 46.65 28.15 56.1 Q28.65 57.2 28.8 58.4 29.25 61.7 29.0 65.0 28.45 72.95 28.5 81.0 M36.0 66.5 Q37.9 58.1 34.25 50.35 32.65 46.95 31.6 43.35 29.2 34.8 30.55 25.85 L31.6 18.25 Q32.75 9.15 29.65 0.6 29.35 -0.25 28.5 -1.0 29.35 -0.25 29.65 0.6 32.75 9.15 31.6 18.25 L30.55 25.85 Q29.2 34.8 31.6 43.35 32.65 46.95 34.25 50.35 37.9 58.1 36.0 66.5 M19.5 -19.0 Q21.35 -10.1 20.7 -1.0 20.6 0.85 21.1 2.7 22.75 8.65 25.3 14.1 26.1 15.75 25.65 17.55 L22.9 27.45 Q20.6 34.95 22.5 42.5 20.6 34.95 22.9 27.45 L25.65 17.55 Q26.1 15.75 25.3 14.1 22.75 8.65 21.1 2.7 20.6 0.85 20.7 -1.0 21.35 -10.1 19.5 -19.0 M-3.5 -66.0 L-5.5 -67.0 -3.5 -66.0 M-51.5 51.0 Q-47.9 47.25 -45.4 42.7 -44.35 40.75 -44.7 38.5 L-44.75 37.5 -44.65 31.0 Q-44.15 23.4 -43.25 16.0 L-42.9 13.0 Q-42.7 10.75 -43.2 8.6 -44.5 3.25 -44.7 -2.2 L-44.35 -4.9 Q-41.45 -14.2 -41.8 -23.8 -41.85 -25.65 -42.45 -27.35 -44.25 -32.25 -42.85 -37.25 L-39.0 -50.0 -38.2 -52.4 Q-36.95 -55.9 -34.75 -58.7 -33.5 -60.35 -31.5 -61.6 L-19.9 -68.15 Q-18.5 -68.85 -17.0 -68.85 L-16.1 -68.95 Q-11.55 -70.75 -7.0 -68.5 -11.55 -70.75 -16.1 -68.95 L-17.0 -68.85 Q-18.5 -68.85 -19.9 -68.15 L-31.5 -61.6 Q-33.5 -60.35 -34.75 -58.7 -36.95 -55.9 -38.2 -52.4 L-39.0 -50.0 -42.85 -37.25 Q-44.25 -32.25 -42.45 -27.35 -41.85 -25.65 -41.8 -23.8 -41.45 -14.2 -44.35 -4.9 L-44.7 -2.2 Q-44.5 3.25 -43.2 8.6 -42.7 10.75 -42.9 13.0 L-43.25 16.0 Q-44.15 23.4 -44.65 31.0 L-44.75 37.5 -44.7 38.5 Q-44.35 40.75 -45.4 42.7 -47.9 47.25 -51.5 51.0 M-9.0 -57.0 L-8.95 -56.45 -9.0 -57.0 M-4.0 -57.5 L-5.0 -58.75 1.4 -59.5 -5.0 -58.75 -4.0 -57.5 M-39.0 -43.5 L-38.25 -46.1 Q-35.3 -54.6 -28.5 -61.0 -35.3 -54.6 -38.25 -46.1 L-39.0 -43.5 M-7.0 -61.0 Q-7.1 -61.75 -7.65 -62.15 -10.55 -63.85 -14.0 -63.5 -10.55 -63.85 -7.65 -62.15 -7.1 -61.75 -7.0 -61.0 M-35.5 -28.0 L-36.0 -32.0 -35.5 -28.0 M-39.0 4.5 L-33.95 -1.95 Q-32.25 -4.0 -31.3 -6.4 -29.15 -11.7 -29.35 -17.5 -29.6 -23.75 -27.2 -29.7 -22.15 -32.75 -18.8 -37.6 -13.25 -45.6 -12.5 -55.5 -13.25 -45.6 -18.8 -37.6 -22.15 -32.75 -27.2 -29.7 -29.6 -23.75 -29.35 -17.5 -29.15 -11.7 -31.3 -6.4 -32.25 -4.0 -33.95 -1.95 L-39.0 4.5 M-40.5 -27.0 L-40.55 -29.1 Q-40.75 -37.0 -36.5 -43.5 -40.75 -37.0 -40.55 -29.1 L-40.5 -27.0 M-33.5 -12.0 L-31.0 -25.5 -33.5 -12.0 M-37.0 20.5 L-34.45 3.75 -37.0 20.5" fill="url(#gradient0)" fill-rule="evenodd" stroke="none"/>
      <path d="M4.75 -67.0 L9.75 -66.15 2.0 -64.0 4.0 -62.25 -0.5 -62.0 1.95 -59.85 2.1 -59.7 1.4 -59.5 -5.0 -58.75 -4.0 -57.5 M-6.4 -71.5 L5.2 -68.9 Q8.9 -71.15 13.25 -69.6 L21.65 -66.15 Q23.9 -65.0 26.05 -63.5 33.65 -58.0 38.7 -50.1 41.9 -45.15 42.35 -39.25 43.0 -29.9 42.65 -20.55 42.35 -11.55 44.4 -2.75 L46.2 4.25 Q46.95 7.0 48.0 9.7 51.25 17.95 51.15 26.85 51.1 31.15 51.55 35.45 L52.3 42.4 52.5 45.25 52.6 50.2 51.5 54.5 51.0 49.5 48.65 64.85 48.3 66.6 Q47.0 71.9 45.0 77.0 46.8 70.05 45.5 63.0 43.15 75.3 36.9 86.15 L35.5 89.0 36.25 85.75 36.0 75.0 Q34.5 79.0 31.8 82.05 28.5 85.75 25.9 89.8 L24.5 91.25 25.4 89.45 Q27.95 80.5 27.35 71.1 27.25 69.85 27.5 68.6 28.55 63.8 27.2 59.1 L26.1 55.9 Q24.2 51.45 23.75 46.65 M22.5 42.5 Q19.0 34.8 21.1 26.45 22.6 20.35 22.45 14.35 22.35 9.7 19.9 5.8 19.3 4.75 19.25 3.45 18.7 -5.65 19.15 -14.7 19.45 -21.25 16.1 -26.8 14.75 -29.05 12.5 -30.5 15.45 -23.15 16.05 -15.1 L16.65 -14.35 Q16.7 -11.9 15.5 -9.9 13.3 -6.15 14.3 -1.8 L14.35 -0.45 Q14.2 1.0 13.25 2.35 L9.85 7.4 10.4 8.3 8.4 10.5 7.9 9.0 Q9.1 4.45 11.35 0.2 11.75 -0.6 11.7 -1.55 L11.15 -6.05 Q10.65 -9.1 12.15 -11.8 12.75 -12.95 12.65 -14.35 12.35 -17.8 10.55 -20.6 6.15 -27.45 0.45 -33.25 L-1.15 -35.4 Q-3.25 -39.4 -3.45 -44.0 -3.5 -46.0 -4.05 -47.9 -5.4 -52.8 -8.95 -56.45 -8.75 -50.35 -12.65 -45.75 -13.9 -44.2 -14.8 -42.45 L-20.35 -31.25 Q-21.9 -28.15 -24.7 -25.85 -25.5 -25.2 -25.9 -24.25 -27.65 -20.05 -27.8 -15.5 -28.05 -5.9 -33.25 1.95 L-34.45 3.75 Q-31.0 14.6 -26.6 25.1 -24.75 29.5 -22.0 33.55 M-22.2 34.15 L-16.8 35.4 -19.25 46.55 -27.95 48.7 -41.8 51.7 Q-47.05 52.8 -52.5 53.1 -54.35 53.3 -55.7 52.3 L-55.0 51.5 -53.3 49.25 Q-50.35 44.85 -47.95 40.1 -46.1 36.55 -46.95 32.45 -47.4 30.2 -47.1 27.9 -46.3 22.1 -44.8 16.7 -43.85 13.25 -44.35 9.8 -44.9 5.95 -46.15 2.15 -47.3 -1.25 -46.7 -4.85 -45.75 -10.5 -44.45 -16.05 -43.35 -20.55 -44.3 -25.1 -45.85 -32.2 -44.3 -39.2 -42.45 -47.5 -38.95 -54.85 -36.5 -59.9 -32.15 -63.55 -26.1 -68.65 -18.45 -70.85 L-11.05 -71.8 -6.55 -71.5 M36.9 86.15 L36.25 85.75 M-8.95 -56.45 L-9.0 -57.0 M-34.45 3.75 L-37.0 20.5" fill="none" stroke="#000000" stroke-linecap="round" stroke-linejoin="round" stroke-width="2.0"/>
      <path d="M32.0 -47.5 L34.5 -41.5 M28.0 -42.0 L30.0 -33.5 M22.5 -38.0 Q26.05 -32.6 26.45 -26.1 L26.5 -24.5 M20.0 -35.5 Q23.35 -28.9 23.1 -21.45 L23.0 -19.5 M-36.0 -32.0 L-35.5 -28.0 M-31.0 -25.5 L-33.5 -12.0 M-36.5 -43.5 Q-40.75 -37.0 -40.55 -29.1 L-40.5 -27.0" fill="none" stroke="#9f410f" stroke-linecap="round" stroke-linejoin="round" stroke-width="2.0"/>
      <path d="M13.0 -64.0 L8.1 -63.85 7.0 -63.5 M1.95 -59.85 L3.1 -60.35 Q7.3 -61.95 11.05 -59.6 M1.4 -59.5 L1.95 -59.85 M1.4 -59.5 L0.0 -58.5 M23.75 46.65 L22.5 42.5 Q20.6 34.95 22.9 27.45 L25.65 17.55 Q26.1 15.75 25.3 14.1 22.75 8.65 21.1 2.7 20.6 0.85 20.7 -1.0 21.35 -10.1 19.5 -19.0 M13.5 -16.0 Q12.65 -21.4 10.2 -26.55 8.5 -30.2 6.15 -33.6 L5.2 -35.0 Q4.3 -36.55 2.6 -37.25 -1.2 -38.85 -1.45 -43.0 -1.7 -47.35 -3.2 -51.75 L-4.0 -53.5 M34.5 -22.5 Q32.2 -13.15 36.45 -4.75 37.3 -3.05 37.45 -1.0 37.95 6.75 38.75 14.5 L39.7 24.05 Q40.45 31.8 41.65 39.55 42.15 42.75 45.0 44.5 M28.5 -1.0 Q29.35 -0.25 29.65 0.6 32.75 9.15 31.6 18.25 L30.55 25.85 Q29.2 34.8 31.6 43.35 32.65 46.95 34.25 50.35 37.9 58.1 36.0 66.5 M23.75 46.65 L28.15 56.1 Q28.65 57.2 28.8 58.4 29.25 61.7 29.0 65.0 28.45 72.95 28.5 81.0 M-7.0 -68.5 Q-11.55 -70.75 -16.1 -68.95 L-17.0 -68.85 Q-18.5 -68.85 -19.9 -68.15 L-31.5 -61.6 Q-33.5 -60.35 -34.75 -58.7 -36.95 -55.9 -38.2 -52.4 L-39.0 -50.0 -42.85 -37.25 Q-44.25 -32.25 -42.45 -27.35 -41.85 -25.65 -41.8 -23.8 -41.45 -14.2 -44.35 -4.9 L-44.7 -2.2 Q-44.5 3.25 -43.2 8.6 -42.7 10.75 -42.9 13.0 L-43.25 16.0 Q-44.15 23.4 -44.65 31.0 L-44.75 37.5 -44.7 38.5 Q-44.35 40.75 -45.4 42.7 -47.9 47.25 -51.5 51.0 M-5.5 -67.0 L-3.5 -66.0 M-14.0 -63.5 Q-10.55 -63.85 -7.65 -62.15 -7.1 -61.75 -7.0 -61.0 M-28.5 -61.0 Q-35.3 -54.6 -38.25 -46.1 L-39.0 -43.5 M-12.5 -55.5 Q-13.25 -45.6 -18.8 -37.6 -22.15 -32.75 -27.2 -29.7 -29.6 -23.75 -29.35 -17.5 -29.15 -11.7 -31.3 -6.4 -32.25 -4.0 -33.95 -1.95 L-39.0 4.5" fill="none" stroke="#9f410f" stroke-linecap="round" stroke-linejoin="round" stroke-width="1.5"/>
    </g>
    </g>
  </g>
  <defs>
    <radialGradient cx="0" cy="0" gradientTransform="matrix(8.0E-4, 0.0806, -0.1487, 0.0014, -4.5, -54.5)" gradientUnits="userSpaceOnUse" id="gradient0" r="819.2" spreadMethod="pad">
      <stop offset="0.0" stop-color="#330000"/>
      <stop offset="0.23137254901960785" stop-color="#7e2d01"/>
      <stop offset="0.3176470588235294" stop-color="#9f410f"/>
      <stop offset="0.38823529411764707" stop-color="#883a02"/>
      <stop offset="1.0" stop-color="#330000"/>
    </radialGradient>
  </defs>
</svg>