<svg xmlns:xlink="http://www.w3.org/1999/xlink" xmlns="http://www.w3.org/2000/svg" height="16.65px" width="27.9px">
  <g transform="matrix(1.0, 0.0, 0.0, 1.0, 11.2, 8.0)">
    <g data-characterId="1343" height="8.95" transform="matrix(1.0, 0.0, 0.0, 1.0, -6.6, -3.1)" width="18.4" xlink:href="#shape0"><g id="shape0" transform="matrix(1.0, 0.0, 0.0, 1.0, 6.6, 3.1)">
      <path d="M-1.75 4.8 L-3.9 4.3 Q-5.5 3.95 -5.75 2.2 -5.0 1.2 -3.85 1.1 L-0.3 1.3 2.6 1.55 5.5 1.9 9.1 2.35 Q9.65 2.4 9.9 2.95 L9.75 3.35 8.05 4.1 4.85 4.7 1.6 4.8 -1.75 4.8 M-0.95 4.15 L0.35 3.75 0.2 2.95 -4.15 2.7 Q-4.35 2.95 -4.1 3.2 -2.8 4.25 -0.95 4.15" fill="#4f5c66" fill-rule="evenodd" stroke="none"/>
      <path d="M9.2 -1.55 L9.6 -1.0 9.4 -0.85 7.05 -0.55 2.45 -0.65 -1.0 0.0 -4.95 0.25 -5.6 -0.1 -6.05 0.15 -6.3 0.25 -6.5 0.25 Q-6.75 -0.05 -6.2 -0.55 -4.85 -1.85 -3.2 -2.55 L-2.3 -2.1 -1.4 -2.15 -0.95 -2.4 -0.05 -3.1 Q4.75 -2.95 9.2 -1.55" fill="#3a4549" fill-rule="evenodd" stroke="none"/>
      <path d="M-0.95 4.15 Q-2.8 4.25 -4.1 3.2 -4.35 2.95 -4.15 2.7 L0.2 2.95 0.35 3.75 -0.95 4.15" fill="#8d9ca7" fill-rule="evenodd" stroke="none"/>
      <path d="M2.8 -0.55 L7.95 -1.25 Q10.25 -1.8 11.25 0.1 12.25 2.0 11.35 2.8 L8.2 2.35 Q6.55 1.75 3.45 1.6 0.3 1.5 -4.2 1.55 L-4.55 -0.1 2.8 -0.55 M7.85 0.1 L5.45 0.35 7.85 0.1 10.1 0.1 7.85 0.1 7.65 1.35 7.85 0.1" fill="#fdf0ac" fill-rule="evenodd" stroke="none"/>
      <path d="M2.8 -0.55 L-4.55 -0.1 -4.2 1.55 Q0.3 1.5 3.45 1.6 6.55 1.75 8.2 2.35 L11.35 2.8 Q12.25 2.0 11.25 0.1 10.25 -1.8 7.95 -1.25 L2.8 -0.55 M-4.2 1.55 L-5.45 1.85 M-4.55 -0.1 L-6.45 0.1" fill="none" stroke="#000000" stroke-linecap="round" stroke-linejoin="round" stroke-width="1.5"/>
      <path d="M10.1 0.1 L7.85 0.1 7.65 1.35 M5.45 0.35 L7.85 0.1" fill="none" stroke="#999999" stroke-linecap="round" stroke-linejoin="round" stroke-width="1.5"/>
      <path d="M0.8 5.35 L-2.05 5.1" fill="none" stroke="#3a4549" stroke-linecap="round" stroke-linejoin="round" stroke-width="2.0"/>
    </g>
  </g>
  </g>
  <defs>
    </defs>
</svg>