<svg xmlns:xlink="http://www.w3.org/1999/xlink" xmlns="http://www.w3.org/2000/svg" height="98.75px" width="161.15px">
  <g transform="matrix(1.0, 0.0, 0.0, 1.0, 83.0, 71.7)">
    <g data-characterId="1248" height="37.45" transform="matrix(1.0, 0.0, 0.0, 1.0, -54.6, -22.5)" width="121.75" xlink:href="#shape0"><g id="shape0" transform="matrix(1.0, 0.0, 0.0, 1.0, 54.6, 22.5)">
      <path d="M24.0 -14.0 L23.5 -13.5 Q22.65 -12.85 21.6 -12.3 L20.4 -11.65 Q19.75 -11.25 19.0 -11.0 14.1 -9.2 9.0 -7.95 L-0.55 -5.75 Q-5.35 -4.65 -7.5 0.0 -5.35 -4.65 -0.55 -5.75 L9.0 -7.95 Q14.1 -9.2 19.0 -11.0 19.75 -11.25 20.4 -11.65 L21.6 -12.3 Q22.65 -12.85 23.5 -13.5 L24.0 -14.0 M24.5 -22.0 L24.5 -19.5 Q24.65 -17.9 27.55 -16.75 L39.8 -12.55 Q49.7 -9.25 62.3 -2.95 74.9 3.3 51.0 10.6 27.05 17.9 -2.6 11.3 -6.3 10.35 -10.1 10.75 -32.0 12.55 -41.65 11.1 -51.35 9.65 -53.75 4.25 -56.15 -1.2 -41.55 -7.6 -27.0 -14.05 -21.55 -20.5 L-18.5 -19.3 Q-6.65 -14.3 3.05 -15.05 12.6 -15.8 24.0 -22.5 L24.5 -22.0 M-27.9 -13.6 Q-26.05 -10.9 -26.5 -7.5 -26.05 -10.9 -27.9 -13.6" fill="#ecc59d" fill-rule="evenodd" stroke="none"/>
      <path d="M-7.5 0.0 Q-5.35 -4.65 -0.55 -5.75 L9.0 -7.95 Q14.1 -9.2 19.0 -11.0 19.75 -11.25 20.4 -11.65 L21.6 -12.3 Q22.65 -12.85 23.5 -13.5 L24.0 -14.0 M-26.5 -7.5 Q-26.05 -10.9 -27.9 -13.6" fill="none" stroke="#b9a882" stroke-linecap="round" stroke-linejoin="round" stroke-width="2.0"/>
      <path d="M-21.55 -20.5 Q-27.0 -14.05 -41.55 -7.6 -56.15 -1.2 -53.75 4.25 -51.35 9.65 -41.65 11.1 -32.0 12.55 -10.1 10.75 -6.3 10.35 -2.6 11.3 27.05 17.9 51.0 10.6 74.9 3.3 62.3 -2.95 49.7 -9.25 39.8 -12.55 L27.55 -16.75 Q24.65 -17.9 24.5 -19.5 L24.5 -22.0" fill="none" stroke="#000000" stroke-linecap="round" stroke-linejoin="round" stroke-width="2.0"/>
    </g>
  </g>
  </g>
  <defs>
    </defs>
</svg>