<svg xmlns:xlink="http://www.w3.org/1999/xlink" xmlns="http://www.w3.org/2000/svg" height="16.65px" width="27.9px">
  <g transform="matrix(1.0, 0.0, 0.0, 1.0, 11.2, 8.0)">
    <g data-characterId="1347" height="8.25" transform="matrix(1.0, 0.0, 0.0, 1.0, -9.05, -2.2)" width="17.75" xlink:href="#shape0"><g id="shape0" transform="matrix(1.0, 0.0, 0.0, 1.0, 9.05, 2.2)">
      <path d="M-8.3 0.5 Q-8.95 0.7 -8.65 0.25 L-8.35 -0.35 -8.3 -0.45 Q-6.75 -1.85 -4.8 -1.75 L-4.7 -1.55 -4.65 -1.45 -4.6 -1.35 Q-2.8 -1.1 -1.25 -2.2 2.4 -0.15 6.75 0.15 L6.85 0.2 7.0 0.8 6.8 1.25 6.25 1.35 6.05 1.2 2.1 1.05 1.5 0.85 -0.05 0.6 -2.25 0.6 -3.9 0.5 -5.95 0.35 -6.6 0.45 -7.9 0.4 -8.0 0.4 -8.2 0.45 -8.3 0.5" fill="#d18a70" fill-rule="evenodd" stroke="none"/>
      <path d="M6.25 1.35 L6.25 1.45 Q5.0 2.9 2.9 3.75 0.75 4.6 -1.5 4.95 -5.6 5.55 -8.5 2.75 L-8.75 1.55 -8.75 1.25 -8.65 0.85 -8.6 0.8 -8.3 0.5 -8.2 0.45 -8.0 0.4 -7.9 0.4 -7.6 0.65 -5.15 0.55 -3.9 0.5 -2.25 0.6 -0.05 0.6 1.5 0.85 2.1 1.05 6.05 1.2 6.25 1.35 M-0.95 3.95 L-0.8 3.75 -0.6 3.3 -0.65 3.1 -0.85 2.85 -1.65 2.7 -5.8 2.15 -5.9 1.95 -6.05 1.7 -6.2 1.6 -6.4 1.55 -6.85 1.8 -6.9 2.05 -6.95 2.35 -6.4 3.0 Q-3.9 4.35 -0.95 3.95" fill="#dda991" fill-rule="evenodd" stroke="none"/>
      <path d="M-0.95 3.95 Q-3.9 4.35 -6.4 3.0 L-6.95 2.35 -6.9 2.05 -6.85 1.8 -6.4 1.55 -6.2 1.6 -6.05 1.7 -5.9 1.95 -5.8 2.15 -1.65 2.7 -0.85 2.85 -0.65 3.1 -0.6 3.3 -0.8 3.75 -0.95 3.95" fill="#e8c2b5" fill-rule="evenodd" stroke="none"/>
      <path d="M-8.55 1.05 Q0.7 -0.15 8.2 1.65" fill="none" stroke="#000000" stroke-linecap="round" stroke-linejoin="round" stroke-width="2.0"/>
      <path d="M-4.0 5.25 L-2.75 5.5 -1.75 5.4 -1.0 5.15" fill="none" stroke="#aa7948" stroke-linecap="round" stroke-linejoin="round" stroke-width="2.0"/>
    </g>
  </g>
  </g>
  <defs>
    </defs>
</svg>