<svg xmlns:xlink="http://www.w3.org/1999/xlink" xmlns="http://www.w3.org/2000/svg" height="98.75px" width="161.15px">
  <g transform="matrix(1.0, 0.0, 0.0, 1.0, 83.0, 71.7)">
    <g data-characterId="1261" height="49.9" transform="matrix(1.0, 0.0, 0.0, 1.0, -65.65, -33.4)" width="140.85" xlink:href="#shape0"><g id="shape0" transform="matrix(1.0, 0.0, 0.0, 1.0, 65.65, 33.4)">
      <path d="M70.0 1.9 Q45.3 8.8 41.05 0.95 36.8 -6.9 39.95 -12.15 L40.3 -13.05 Q41.1 -16.25 40.7 -19.65 L40.45 -21.65 Q40.1 -24.7 38.05 -26.75 L37.6 -26.9 Q36.1 -26.35 36.0 -24.8 36.1 -26.35 37.6 -26.9 L38.05 -26.75 Q40.1 -24.7 40.45 -21.65 L40.7 -19.65 Q41.1 -16.25 40.3 -13.05 L39.95 -12.15 Q36.8 -6.9 41.05 0.95 45.3 8.8 70.0 1.9 M34.7 -22.6 Q38.25 -38.4 50.6 -30.0 62.9 -21.65 67.75 -12.75 72.5 -3.85 74.7 2.6 53.8 11.35 39.7 5.2 L38.05 3.25 37.95 3.15 35.7 0.25 Q34.05 -2.0 33.5 -4.65 L33.2 -6.4 33.0 -7.7 36.8 -10.1 Q38.0 -10.9 38.45 -12.4 L39.0 -14.2 39.15 -15.05 Q39.25 -17.15 38.7 -19.0 L38.35 -19.65 36.5 -21.9 Q35.9 -22.6 35.0 -22.6 L34.7 -22.6" fill="url(#gradient0)" fill-rule="evenodd" stroke="none"/>
      <path d="M-32.3 -16.6 L-31.35 -17.15 -31.1 -17.55 -30.4 -18.0 -30.15 -18.05 Q-28.45 -18.05 -27.0 -18.55 L-26.5 -18.65 -21.8 -18.85 -14.75 -18.95 -9.25 -19.2 -2.2 -19.6 8.3 -20.7 13.25 -21.3 23.45 -22.75 25.8 -22.95 32.05 -22.75 34.7 -22.6 35.0 -22.6 Q35.9 -22.6 36.5 -21.9 L38.35 -19.65 38.7 -19.0 Q39.25 -17.15 39.15 -15.05 L39.0 -14.2 38.45 -12.4 Q38.0 -10.9 36.8 -10.1 L33.0 -7.7 32.0 -7.1 30.8 -6.3 24.3 -1.75 Q23.25 -1.0 22.15 -0.4 L20.35 0.6 18.65 1.45 13.25 3.7 11.95 4.05 8.3 4.3 2.55 4.0 Q-1.85 3.45 -6.1 1.9 -8.15 1.15 -10.3 0.9 L-12.1 0.65 -22.3 -0.75 -26.8 -1.65 Q-28.65 -2.2 -30.45 -3.15 -31.7 -3.8 -32.65 -4.6 -34.75 -6.35 -35.7 -9.0 L-35.8 -9.55 Q-36.1 -11.05 -35.7 -11.9 L-34.65 -13.65 -33.2 -15.55 -32.85 -16.0 -32.3 -16.6" fill="url(#gradient1)" fill-rule="evenodd" stroke="none"/>
      <path d="M37.95 3.15 L37.8 3.05 33.9 4.85 Q32.85 5.25 31.85 5.85 L29.7 6.8 24.75 8.6 Q19.9 10.3 15.05 12.35 10.65 14.25 5.95 15.05 L3.35 14.75 Q0.85 13.75 -1.4 12.4 L-1.85 12.45 -2.9 13.5 Q-5.0 16.75 -8.45 15.8 L-14.95 13.95 -18.2 12.95 -20.7 12.1 -22.85 11.35 -26.25 10.45 Q-31.15 9.25 -35.35 6.2 L-36.45 5.55 Q-37.2 5.15 -37.05 4.1 L-35.3 2.05 -33.75 -0.3 Q-33.35 -0.95 -33.25 -1.8 L-33.1 -3.25 -33.0 -4.1 -32.65 -4.6 Q-31.7 -3.8 -30.45 -3.15 -28.65 -2.2 -26.8 -1.65 L-22.3 -0.75 -12.1 0.65 -10.3 0.9 Q-8.15 1.15 -6.1 1.9 -1.85 3.45 2.55 4.0 L8.3 4.3 11.95 4.05 13.25 3.7 18.65 1.45 20.35 0.6 22.15 -0.4 Q23.25 -1.0 24.3 -1.75 L30.8 -6.3 32.0 -7.1 33.0 -7.7 33.2 -6.4 33.5 -4.65 Q34.05 -2.0 35.7 0.25 L37.95 3.15" fill="url(#gradient2)" fill-rule="evenodd" stroke="none"/>
      <path d="M-37.05 4.1 Q-62.75 12.85 -64.85 3.85 -67.0 -5.15 -53.55 -18.25 -40.15 -31.35 -33.05 -25.95 L-32.3 -16.6 -32.85 -16.0 -33.2 -15.55 -34.65 -13.65 -35.7 -11.9 Q-36.1 -11.05 -35.8 -9.55 L-35.7 -9.0 Q-34.75 -6.35 -32.65 -4.6 L-33.0 -4.1 -33.1 -3.25 -33.25 -1.8 Q-33.35 -0.95 -33.75 -0.3 L-35.3 2.05 -37.05 4.1 M-59.45 2.5 L-56.6 4.65 Q-55.2 5.4 -53.7 5.6 -48.7 6.15 -44.05 4.2 -43.45 3.95 -42.9 3.8 -39.8 3.05 -38.25 0.2 L-37.35 -1.15 Q-35.8 -3.25 -36.3 -5.85 L-36.95 -9.3 -37.2 -10.7 Q-37.95 -15.1 -36.95 -19.35 L-36.75 -20.2 Q-36.55 -21.9 -35.35 -22.5 -36.55 -21.9 -36.75 -20.2 L-36.95 -19.35 Q-37.95 -15.1 -37.2 -10.7 L-36.95 -9.3 -36.3 -5.85 Q-35.8 -3.25 -37.35 -1.15 L-38.25 0.2 Q-39.8 3.05 -42.9 3.8 -43.45 3.95 -44.05 4.2 -48.7 6.15 -53.7 5.6 -55.2 5.4 -56.6 4.65 L-59.45 2.5" fill="url(#gradient3)" fill-rule="evenodd" stroke="none"/>
      <path d="M36.0 -24.8 Q36.1 -26.35 37.6 -26.9 L38.05 -26.75 Q40.1 -24.7 40.45 -21.65 L40.7 -19.65 Q41.1 -16.25 40.3 -13.05 L39.95 -12.15 Q36.8 -6.9 41.05 0.95 45.3 8.8 70.0 1.9 M-32.3 -16.6 L-31.35 -17.15 -31.1 -17.55 -30.4 -18.0 -30.15 -18.05 Q-28.45 -18.05 -27.0 -18.55 L-26.5 -18.65 -21.8 -18.85 -14.75 -18.95 -9.25 -19.2 -2.2 -19.6 8.3 -20.7 13.25 -21.3 23.45 -22.75 25.8 -22.95 32.05 -22.75 34.7 -22.6 Q38.25 -38.4 50.6 -30.0 62.9 -21.65 67.75 -12.75 72.5 -3.85 74.7 2.6 53.8 11.35 39.7 5.2 L38.05 3.25 37.95 3.15 37.8 3.05 33.9 4.85 Q32.85 5.25 31.85 5.85 L29.7 6.8 24.75 8.6 Q19.9 10.3 15.05 12.35 10.65 14.25 5.95 15.05 L3.35 14.75 Q0.85 13.75 -1.4 12.4 L-1.85 12.45 -2.9 13.5 Q-5.0 16.75 -8.45 15.8 L-14.95 13.95 -18.2 12.95 -20.7 12.1 -22.85 11.35 -26.25 10.45 Q-31.15 9.25 -35.35 6.2 L-36.45 5.55 Q-37.2 5.15 -37.05 4.1 -62.75 12.85 -64.85 3.85 -67.0 -5.15 -53.55 -18.25 -40.15 -31.35 -33.05 -25.95 L-32.3 -16.6 -32.85 -16.0 -33.2 -15.55 -34.65 -13.65 -35.7 -11.9 Q-36.1 -11.05 -35.8 -9.55 L-35.7 -9.0 Q-34.75 -6.35 -32.65 -4.6 -31.7 -3.8 -30.45 -3.15 -28.65 -2.2 -26.8 -1.65 L-22.3 -0.75 -12.1 0.65 -10.3 0.9 Q-8.15 1.15 -6.1 1.9 -1.85 3.45 2.55 4.0 L8.3 4.3 11.95 4.05 13.25 3.7 18.65 1.45 20.35 0.6 22.15 -0.4 Q23.25 -1.0 24.3 -1.75 L30.8 -6.3 32.0 -7.1 33.0 -7.7 36.8 -10.1 Q38.0 -10.9 38.45 -12.4 L39.0 -14.2 39.15 -15.05 Q39.25 -17.15 38.7 -19.0 L38.35 -19.65 36.5 -21.9 Q35.9 -22.6 35.0 -22.6 L34.7 -22.6 M33.0 -7.7 L33.2 -6.4 33.5 -4.65 Q34.05 -2.0 35.7 0.25 L37.95 3.15 M-35.35 -22.5 Q-36.55 -21.9 -36.75 -20.2 L-36.95 -19.35 Q-37.95 -15.1 -37.2 -10.7 L-36.95 -9.3 -36.3 -5.85 Q-35.8 -3.25 -37.35 -1.15 L-38.25 0.2 Q-39.8 3.05 -42.9 3.8 -43.45 3.95 -44.05 4.2 -48.7 6.15 -53.7 5.6 -55.2 5.4 -56.6 4.65 L-59.45 2.5 M-33.0 -4.1 L-33.1 -3.25 -33.25 -1.8 Q-33.35 -0.95 -33.75 -0.3 L-35.3 2.05 -37.05 4.1" fill="none" stroke="#000000" stroke-linecap="round" stroke-linejoin="round" stroke-width="2.0"/>
    </g>
    </g>
  </g>
  <defs>
    <radialGradient cx="0" cy="0" gradientTransform="matrix(0.017, -0.0332, 0.0385, 0.0238, 53.8, -17.25)" gradientUnits="userSpaceOnUse" id="gradient0" r="819.2" spreadMethod="pad">
      <stop offset="0.0" stop-color="#ffffff"/>
      <stop offset="0.5215686274509804" stop-color="#d3cbc5"/>
      <stop offset="1.0" stop-color="#746558"/>
    </radialGradient>
    <linearGradient gradientTransform="matrix(0.0462, 0.0, 0.0, 0.0332, 7.9, 59.15)" gradientUnits="userSpaceOnUse" id="gradient1" spreadMethod="pad" x1="-819.2" x2="819.2">
      <stop offset="0.0" stop-color="#5e5e32"/>
      <stop offset="0.3137254901960784" stop-color="#81814f"/>
      <stop offset="1.0" stop-color="#5e5e32"/>
    </linearGradient>
    <linearGradient gradientTransform="matrix(0.0459, 0.0, 0.0, 0.0145, 0.55, 4.15)" gradientUnits="userSpaceOnUse" id="gradient2" spreadMethod="pad" x1="-819.2" x2="819.2">
      <stop offset="0.0" stop-color="#ffffff"/>
      <stop offset="0.5215686274509804" stop-color="#d3cbc5"/>
      <stop offset="1.0" stop-color="#746558"/>
    </linearGradient>
    <radialGradient cx="0" cy="0" gradientTransform="matrix(0.0281, 0.0, 0.0, 0.0309, -52.15, -15.55)" gradientUnits="userSpaceOnUse" id="gradient3" r="819.2" spreadMethod="pad">
      <stop offset="0.0" stop-color="#ffffff"/>
      <stop offset="0.5215686274509804" stop-color="#d3cbc5"/>
      <stop offset="1.0" stop-color="#746558"/>
    </radialGradient>
  </defs>
</svg>