<svg xmlns:xlink="http://www.w3.org/1999/xlink" xmlns="http://www.w3.org/2000/svg" height="105.4px" width="77.1px">
  <g transform="matrix(1.0, 0.0, 0.0, 1.0, 38.65, 52.6)">
    <g data-characterId="1275" height="103.65" transform="matrix(1.0, 0.0, 0.0, 1.0, -37.6, -52.6)" width="76.05" xlink:href="#shape0"><g id="shape0" transform="matrix(1.0, 0.0, 0.0, 1.0, 37.6, 52.6)">
      <path d="M34.3 8.45 L32.8 11.75 31.15 10.95 31.8 9.4 32.05 8.3 34.3 8.45" fill="#ecc59d" fill-rule="evenodd" stroke="none"/>
      <path d="M34.75 7.4 L34.3 8.45 32.05 8.3 32.05 6.45 34.75 7.4 M31.45 -1.65 L31.25 -2.65 34.0 -3.3 33.9 -1.35 33.85 -1.2 31.45 -1.65" fill="#e8b98a" fill-rule="evenodd" stroke="none"/>
      <path d="M-27.65 -7.45 Q-26.5 -5.75 -26.95 -3.7 L-31.1 14.95 Q-31.25 15.6 -30.85 16.2 L-30.6 16.55 Q-27.85 19.6 -23.8 19.35 -27.85 19.6 -30.6 16.55 L-30.85 16.2 Q-31.25 15.6 -31.1 14.95 L-26.95 -3.7 Q-26.5 -5.75 -27.65 -7.45 M32.8 11.75 L30.05 16.25 28.55 16.75 Q30.0 21.55 27.3 25.4 L21.45 31.5 Q16.35 36.5 8.05 41.6 -0.3 46.65 -5.55 48.95 -10.8 51.2 -15.6 50.3 -20.45 49.4 -22.1 47.55 -23.75 45.65 -26.45 41.1 -29.2 36.55 -31.9 27.0 -34.6 17.4 -36.7 7.95 -37.05 6.35 -36.8 4.8 -35.95 0.0 -35.9 -4.9 -35.85 -9.0 -36.6 -13.0 -37.5 -17.9 -36.8 -22.75 L-35.95 -26.1 Q-32.35 -35.4 -26.15 -43.05 -20.9 -49.4 -12.7 -50.95 -6.35 -52.25 0.3 -52.05 10.35 -51.35 18.85 -45.75 L25.25 -41.35 Q28.65 -38.9 31.15 -35.3 33.45 -32.0 34.85 -28.1 37.95 -19.4 37.95 -10.3 37.95 -1.15 34.75 7.4 L32.05 6.45 Q31.95 5.6 32.25 4.8 L32.35 4.45 Q33.5 1.7 33.85 -1.2 L33.9 -1.35 34.0 -3.3 31.25 -2.65 30.55 -5.6 29.4 -5.55 29.1 -5.1 Q28.45 -3.0 26.45 -2.15 28.45 -3.0 29.1 -5.1 L29.4 -5.55 30.55 -5.6 31.25 -2.65 31.45 -1.65 33.85 -1.2 Q33.5 1.7 32.35 4.45 L32.25 4.8 Q31.95 5.6 32.05 6.45 L32.05 8.3 31.8 9.4 31.15 10.95 32.8 11.75 M25.3 -6.25 Q25.95 -9.45 28.75 -10.85 L29.5 -11.25 Q34.15 -8.95 34.0 -3.3 34.15 -8.95 29.5 -11.25 L28.75 -10.85 Q25.95 -9.45 25.3 -6.25 M25.55 11.75 L26.25 12.25 27.4 12.9 Q29.95 12.85 31.15 10.95 29.95 12.85 27.4 12.9 L26.25 12.25 25.55 11.75 M-20.05 19.1 Q-19.45 19.1 -19.0 18.15 -18.55 17.2 -18.55 15.85 -18.55 17.2 -19.0 18.15 -19.45 19.1 -20.05 19.1 M29.45 4.35 L29.45 1.35 29.45 4.35" fill="#e4af7a" fill-rule="evenodd" stroke="none"/>
      <path d="M-23.8 19.35 Q-27.85 19.6 -30.6 16.55 L-30.85 16.2 Q-31.25 15.6 -31.1 14.95 L-26.95 -3.7 Q-26.5 -5.75 -27.65 -7.45 M32.8 11.75 L30.05 16.25 28.55 16.75 Q30.0 21.55 27.3 25.4 L21.45 31.5 Q16.35 36.5 8.05 41.6 -0.3 46.65 -5.55 48.95 -10.8 51.2 -15.6 50.3 -20.45 49.4 -22.1 47.55 -23.75 45.65 -26.45 41.1 -29.2 36.55 -31.9 27.0 -34.6 17.4 -36.7 7.95 -37.05 6.35 -36.8 4.8 -35.95 0.0 -35.9 -4.9 -35.85 -9.0 -36.6 -13.0 -37.5 -17.9 -36.8 -22.75 L-35.95 -26.1 Q-32.35 -35.4 -26.15 -43.05 -20.9 -49.4 -12.7 -50.95 -6.35 -52.25 0.3 -52.05 10.35 -51.35 18.85 -45.75 L25.25 -41.35 Q28.65 -38.9 31.15 -35.3 33.45 -32.0 34.85 -28.1 37.95 -19.4 37.95 -10.3 37.95 -1.15 34.75 7.4 L34.3 8.45 32.8 11.75 M31.15 10.95 Q29.95 12.85 27.4 12.9 L26.25 12.25 25.55 11.75 M34.0 -3.3 Q34.15 -8.95 29.5 -11.25 L28.75 -10.85 Q25.95 -9.45 25.3 -6.25 M31.25 -2.65 L30.55 -5.6 29.4 -5.55 29.1 -5.1 Q28.45 -3.0 26.45 -2.15 M31.25 -2.65 L31.45 -1.65 M33.85 -1.2 L33.9 -1.35 34.0 -3.3 M32.05 6.45 Q31.95 5.6 32.25 4.8 L32.35 4.45 Q33.5 1.7 33.85 -1.2 M32.05 8.3 L31.8 9.4 31.15 10.95 M32.05 6.45 L32.05 8.3 M29.45 1.35 L29.45 4.35 M-18.55 15.85 Q-18.55 17.2 -19.0 18.15 -19.45 19.1 -20.05 19.1" fill="none" stroke="#000000" stroke-linecap="round" stroke-linejoin="round" stroke-width="2.0"/>
    </g>
  </g>
  </g>
  <defs>
    </defs>
</svg>