<svg xmlns:xlink="http://www.w3.org/1999/xlink" xmlns="http://www.w3.org/2000/svg" height="202.2px" width="161.9px">
  <g transform="matrix(1.0, 0.0, 0.0, 1.0, 74.15, 81.7)">
    <g data-characterId="1413" height="118.9" transform="matrix(1.0, 0.0, 0.0, 1.0, -47.5, -70.9)" width="100.7" xlink:href="#shape0"><g id="shape0" transform="matrix(1.0, 0.0, 0.0, 1.0, 47.5, 70.9)">
      <path d="M12.65 -24.8 L11.15 -17.55 11.3 -16.75 M11.15 -17.55 Q9.75 -26.25 4.75 -33.5 2.45 -36.8 -0.5 -39.5 L4.4 -26.65 5.0 -26.5 M12.4 -26.95 L12.0 -27.5 M-37.5 -41.0 L-37.3 -40.6 Q-34.5 -30.95 -27.95 -23.35 L-26.6 -22.3 -25.75 -22.0 Q-29.75 -29.35 -31.5 -37.5 -29.85 -34.15 -26.75 -31.8 L-24.9 -29.85 Q-21.1 -25.2 -15.65 -22.1 -19.05 -28.05 -20.95 -34.7 -21.4 -36.3 -21.45 -37.95 L-21.5 -41.5 Q-19.05 -32.25 -10.5 -27.5 -13.4 -34.65 -14.0 -42.0 -7.7 -31.1 4.4 -26.65 M-14.5 -22.0 L-15.65 -22.1" fill="none" stroke="#000000" stroke-linecap="round" stroke-linejoin="round" stroke-width="2.0"/>
      <path d="M-37.3 -40.6 Q-37.75 -31.0 -36.2 -21.6 -35.9 -19.9 -36.15 -18.2 -36.8 -14.15 -36.75 -10.25 -36.7 -3.5 -35.0 3.2 L-32.05 14.1 Q-29.85 21.7 -26.5 28.65 L-21.5 39.0 Q-26.35 35.65 -29.7 30.85 L-31.0 28.5 -29.25 40.2 Q-36.3 34.1 -39.3 24.35 -41.55 20.45 -42.5 15.1 L-44.45 3.85 Q-45.4 -2.0 -46.55 -6.95 -47.7 -11.9 -46.05 -21.65 -44.45 -31.4 -44.5 -34.9 -44.6 -38.4 -43.15 -42.35 -41.7 -46.35 -37.75 -51.15 -36.35 -52.9 -34.55 -54.25 L-20.25 -64.85 Q-18.9 -65.8 -17.45 -66.35 -14.6 -67.3 -11.85 -68.45 -10.0 -69.3 -8.0 -69.45 L1.75 -70.3 9.45 -70.4 16.3 -68.8 20.8 -67.1 Q25.2 -65.45 28.15 -62.1 L40.15 -47.8 Q49.7 -35.95 51.7 -21.0 53.65 -6.1 51.75 8.7 51.0 14.45 49.15 19.8 L46.35 28.55 Q43.85 36.65 38.5 43.0 L39.5 28.5 Q37.7 33.75 35.15 38.8 L32.8 42.85 30.65 45.85 Q29.55 47.3 27.5 47.5 L32.0 24.5 Q29.4 29.4 26.15 33.8 20.9 40.75 14.5 46.5 L16.35 38.4 Q17.85 31.5 17.5 24.5 L17.1 26.0 Q16.5 28.05 15.4 30.05 14.25 32.05 12.8 33.65 11.55 34.9 10.7 36.45 9.25 38.85 7.0 40.0 9.75 32.6 11.65 24.85 13.45 17.55 14.1 10.0 14.9 0.9 14.85 -8.35 14.85 -16.6 12.65 -24.8 L12.4 -26.95" fill="none" stroke="#000000" stroke-linecap="round" stroke-linejoin="round" stroke-width="2.0"/>
    </g>
  </g>
  </g>
  <defs>
    </defs>
</svg>