<svg xmlns:xlink="http://www.w3.org/1999/xlink" xmlns="http://www.w3.org/2000/svg" height="98.75px" width="161.15px">
  <g transform="matrix(1.0, 0.0, 0.0, 1.0, 83.0, 71.7)">
    <g data-characterId="1254" height="53.6" transform="matrix(1.0, 0.0, 0.0, 1.0, -83.0, -31.5)" width="157.15" xlink:href="#shape0"><g id="shape0" transform="matrix(1.0, 0.0, 0.0, 1.0, 83.0, 31.5)">
      <path d="M25.9 -21.3 L22.05 -15.95 17.75 -10.55 13.4 -6.65 11.0 -5.15 Q9.6 -4.35 8.15 -3.7 5.25 -2.35 2.2 -1.6 L-4.0 -1.45 -6.7 -1.4 -9.15 -1.8 -10.25 -2.05 Q-13.0 -2.7 -15.35 -3.75 -17.55 -4.8 -19.45 -6.15 L-22.9 -9.25 -25.05 -12.1 -27.25 -16.15 -21.55 -20.5 Q1.25 -9.4 23.95 -20.3 L25.9 -21.3 M37.75 8.8 L38.85 9.8 38.1 10.0 37.75 8.8 M30.95 10.8 L31.55 11.75 31.1 11.8 30.95 10.8" fill="#ecc59d" fill-rule="evenodd" stroke="none"/>
      <path d="M-27.25 -16.15 L-25.05 -12.1 -22.9 -9.25 -19.45 -6.15 Q-17.55 -4.8 -15.35 -3.75 -13.0 -2.7 -10.25 -2.05 L-9.15 -1.8 -6.7 -1.4 -4.0 -1.45 2.2 -1.6 Q5.25 -2.35 8.15 -3.7 9.6 -4.35 11.0 -5.15 L13.4 -6.65 17.75 -10.55 22.05 -15.95 25.9 -21.3 28.0 -22.5 28.5 -23.0 30.15 -20.05 31.75 -17.05 32.35 -15.75 31.8 -11.65 Q30.9 -5.35 32.6 0.0 34.15 4.8 37.75 8.8 L38.1 10.0 31.55 11.75 30.95 10.8 31.1 11.8 19.6 13.3 7.35 12.95 -2.9 11.25 -13.5 10.9 -22.0 10.85 -33.2 10.05 -45.5 8.15 -47.5 7.75 -47.1 -12.35 -45.9 -16.75 -45.0 -16.5 -32.25 -18.95 -28.0 -20.5 -27.25 -16.15 -31.1 -14.65 -47.1 -12.35 -31.1 -14.65 -27.25 -16.15 M31.55 0.45 Q25.3 -4.65 19.6 -10.15 L18.85 -10.75 19.6 -10.15 Q25.3 -4.65 31.55 0.45 M31.8 -11.65 L22.05 -15.95 31.8 -11.65 M-26.75 -11.15 L-46.5 -4.0 -26.75 -11.15 M2.2 -1.6 L7.35 12.95 2.2 -1.6 M8.5 -3.0 L19.6 13.3 8.5 -3.0 M30.95 10.8 Q23.0 1.3 13.4 -6.65 23.0 1.3 30.95 10.8 M-24.5 -8.0 L-45.5 8.15 -24.5 -8.0 M-10.5 -1.0 L-13.5 10.9 -10.5 -1.0 M-2.9 11.25 L-4.0 -1.45 -2.9 11.25 M-20.0 -5.5 L-33.2 10.05 -20.0 -5.5 M-22.0 10.85 L-15.35 -3.75 -22.0 10.85" fill="#bc935f" fill-rule="evenodd" stroke="none"/>
      <path d="M-45.9 -16.75 L-47.1 -12.35 -47.5 7.75 Q-63.3 16.85 -82.5 12.0 L-73.2 -5.5 Q-62.1 -25.7 -40.0 -29.5 L-39.5 -29.15 Q-43.7 -23.55 -45.85 -16.85 L-45.9 -16.75 M69.0 9.0 L70.0 7.5 70.95 8.1 Q71.35 9.45 70.35 10.05 59.5 17.0 46.0 7.1 L44.6 6.45 Q34.4 -0.85 36.45 -15.4 L36.5 -24.5 36.45 -15.4 Q34.4 -0.85 44.6 6.45 L46.0 7.1 Q59.5 17.0 70.35 10.05 71.35 9.45 70.95 8.1 L70.0 7.5 69.0 9.0 M32.35 -15.75 L32.4 -17.3 Q31.85 -23.0 34.1 -28.2 46.0 -23.8 56.85 -16.65 79.55 -1.6 71.6 21.4 L70.9 21.2 Q56.3 12.9 38.85 9.8 L37.75 8.8 Q34.15 4.8 32.6 0.0 30.9 -5.35 31.8 -11.65 L32.35 -15.75 M-65.5 -3.5 Q-67.6 -1.65 -70.05 -3.0 L-70.75 -3.5 -71.0 -3.8 -70.8 -4.5 Q-65.65 -13.1 -58.5 -20.0 -65.65 -13.1 -70.8 -4.5 L-71.0 -3.8 -70.75 -3.5 -70.05 -3.0 Q-67.6 -1.65 -65.5 -3.5 M59.5 -1.0 L59.65 0.1 62.65 -0.05 62.5 -1.85 Q58.6 -18.6 40.5 -20.5 58.6 -18.6 62.5 -1.85 L62.65 -0.05 59.65 0.1 59.5 -1.0 M-75.75 6.75 L-75.3 7.3 Q-65.7 12.6 -55.2 5.9 L-54.6 5.25 Q-49.75 -1.8 -52.5 -10.95 L-52.45 -13.65 Q-52.35 -20.1 -48.5 -25.0 -52.35 -20.1 -52.45 -13.65 L-52.5 -10.95 Q-49.75 -1.8 -54.6 5.25 L-55.2 5.9 Q-65.7 12.6 -75.3 7.3 L-75.75 6.75" fill="#999966" fill-rule="evenodd" stroke="none"/>
      <path d="M-32.25 -18.95 L-45.0 -16.5 -45.85 -16.85 Q-43.7 -23.55 -39.5 -29.15 L-39.2 -29.55 Q-38.7 -30.2 -38.5 -31.0 -35.65 -28.7 -33.9 -25.25 -32.4 -22.3 -32.25 -18.95" fill="#656545" fill-rule="evenodd" stroke="none"/>
      <path d="M-27.25 -16.15 L-25.05 -12.1 -22.9 -9.25 -19.45 -6.15 Q-17.55 -4.8 -15.35 -3.75 -13.0 -2.7 -10.25 -2.05 L-9.15 -1.8 -6.7 -1.4 -4.0 -1.45 2.2 -1.6 Q5.25 -2.35 8.15 -3.7 9.6 -4.35 11.0 -5.15 L13.4 -6.65 17.75 -10.55 22.05 -15.95 25.9 -21.3 28.0 -23.5 M-21.55 -20.5 L-27.25 -16.15 -28.0 -20.5 -32.25 -18.95 -45.0 -16.5 M-45.9 -16.75 L-47.1 -12.35 -47.5 7.75 Q-63.3 16.85 -82.5 12.0 L-73.2 -5.5 Q-62.1 -25.7 -40.0 -29.5 M32.35 -15.75 L31.75 -17.05 30.15 -20.05 28.5 -23.0 M71.6 21.4 Q79.55 -1.6 56.85 -16.65 46.0 -23.8 34.1 -28.2 31.85 -23.0 32.4 -17.3 L32.35 -15.75 31.8 -11.65 Q30.9 -5.35 32.6 0.0 34.15 4.8 37.75 8.8 L38.85 9.8 Q56.3 12.9 70.9 21.2 L71.5 21.6 71.6 21.4 M-45.85 -16.85 L-45.9 -16.75 M-39.5 -29.15 L-39.2 -29.55 Q-38.7 -30.2 -38.5 -31.0 -35.65 -28.7 -33.9 -25.25 -32.4 -22.3 -32.25 -18.95 M-39.5 -29.15 Q-43.7 -23.55 -45.85 -16.85 M31.1 11.8 L19.6 13.3 7.35 12.95 -2.9 11.25 -13.5 10.9 -22.0 10.85 -33.2 10.05 -45.5 8.15 -47.5 7.75 M31.55 11.75 L30.95 10.8 M31.1 11.8 L31.55 11.75 38.1 10.0 38.85 9.8" fill="none" stroke="#000000" stroke-linecap="round" stroke-linejoin="round" stroke-width="2.0"/>
      <path d="M-47.1 -12.35 L-31.1 -14.65 -27.25 -16.15 M18.85 -10.75 L19.6 -10.15 Q25.3 -4.65 31.55 0.45 M22.05 -15.95 L31.8 -11.65 M-46.5 -4.0 L-26.75 -11.15 M-15.35 -3.75 L-22.0 10.85 M-33.2 10.05 L-20.0 -5.5 M-4.0 -1.45 L-2.9 11.25 M-13.5 10.9 L-10.5 -1.0 M-45.5 8.15 L-24.5 -8.0 M13.4 -6.65 Q23.0 1.3 30.95 10.8 M19.6 13.3 L8.5 -3.0 M7.35 12.95 L2.2 -1.6" fill="none" stroke="#d6ab76" stroke-linecap="round" stroke-linejoin="round" stroke-width="2.0"/>
      <path d="M36.5 -24.5 L36.45 -15.4 Q34.4 -0.85 44.6 6.45 L46.0 7.1 Q59.5 17.0 70.35 10.05 71.35 9.45 70.95 8.1 L70.0 7.5 69.0 9.0 M40.5 -20.5 Q58.6 -18.6 62.5 -1.85 L62.65 -0.05 59.65 0.1 59.5 -1.0 M-58.5 -20.0 Q-65.65 -13.1 -70.8 -4.5 L-71.0 -3.8 -70.75 -3.5 -70.05 -3.0 Q-67.6 -1.65 -65.5 -3.5 M-48.5 -25.0 Q-52.35 -20.1 -52.45 -13.65 L-52.5 -10.95 Q-49.75 -1.8 -54.6 5.25 L-55.2 5.9 Q-65.7 12.6 -75.3 7.3 L-75.75 6.75" fill="none" stroke="#d9bd96" stroke-linecap="round" stroke-linejoin="round" stroke-width="2.0"/>
    </g>
  </g>
  </g>
  <defs>
    </defs>
</svg>