<svg xmlns:xlink="http://www.w3.org/1999/xlink" xmlns="http://www.w3.org/2000/svg" height="158.3px" width="140.45px">
  <g transform="matrix(1.0, 0.0, 0.0, 1.0, 64.7, 56.15)">
    <g data-characterId="1468" height="58.25" transform="matrix(1.0, 0.0, 0.0, 1.0, -46.2, -21.95)" width="97.6" xlink:href="#shape0"><g id="shape0" transform="matrix(1.0, 0.0, 0.0, 1.0, 46.2, 21.95)">
      <path d="M-37.95 5.15 Q-42.5 -1.6 -41.0 -9.4 -40.75 -10.65 -39.65 -11.35 -29.4 -18.75 -16.65 -19.65 -5.8 -21.95 6.45 -21.3 18.7 -20.7 29.0 -14.35 39.3 -8.1 46.7 2.3 54.05 12.65 48.5 25.7 47.5 28.1 44.8 28.5 L43.4 28.45 43.0 28.45 42.45 29.25 37.0 26.25 Q32.65 24.15 22.7 17.5 12.7 10.8 1.1 6.7 -10.5 2.55 -22.55 2.9 -30.35 3.1 -37.6 6.15 L-37.95 5.15 M20.35 -13.85 L20.65 -12.75 19.1 -10.65 Q15.25 -5.45 10.3 -1.4 15.25 -5.45 19.1 -10.65 L20.65 -12.75 20.35 -13.85 M-15.3 -2.45 L-13.55 -4.25 Q-13.3 -8.6 -16.3 -11.7 L-19.25 -6.75 Q-24.15 -5.4 -27.9 -2.2 L-28.5 -2.75 Q-31.55 -6.3 -28.4 -10.6 -31.55 -6.3 -28.5 -2.75 L-27.9 -2.2 Q-24.15 -5.4 -19.25 -6.75 L-16.3 -11.7 Q-13.3 -8.6 -13.55 -4.25 L-15.3 -2.45 M-22.85 -9.8 L-23.1 -9.8 Q-24.15 -9.8 -23.85 -8.45 -24.15 -9.8 -23.1 -9.8 L-22.85 -9.8 M-21.1 -2.45 L-21.1 -2.2 -21.15 -1.9 -22.85 -1.65 -21.15 -1.9 -21.1 -2.2 -21.1 -2.45" fill="#663399" fill-rule="evenodd" stroke="none"/>
      <path d="M42.45 29.25 L43.4 29.95 43.1 35.8 16.45 18.15 Q10.0 14.25 8.9 13.95 3.75 10.8 -2.8 8.75 -9.4 6.65 -18.25 6.6 -27.1 6.5 -38.65 8.55 L-38.75 6.65 -37.6 6.15 Q-30.35 3.1 -22.55 2.9 -10.5 2.55 1.1 6.7 12.7 10.8 22.7 17.5 32.65 24.15 37.0 26.25 L42.45 29.25" fill="#333333" fill-rule="evenodd" stroke="none"/>
      <path d="M16.45 18.15 Q13.7 20.5 11.0 22.2 8.3 23.9 3.2 23.25 L1.5 23.05 -19.65 20.4 Q-34.8 17.1 -39.4 19.1 -44.0 21.05 -45.45 18.7 -46.95 16.35 -38.65 8.55 -27.1 6.5 -18.25 6.6 -9.4 6.65 -2.8 8.75 3.75 10.8 8.9 13.95 10.0 14.25 16.45 18.15 M-3.0 22.2 L1.5 23.05 Q5.3 22.05 7.4 17.45 L8.9 13.95 7.4 17.45 Q5.3 22.05 1.5 23.05 L-3.0 22.2" fill="url(#gradient0)" fill-rule="evenodd" stroke="none"/>
      <path d="M-37.95 5.15 Q-42.5 -1.6 -41.0 -9.4 -40.75 -10.65 -39.65 -11.35 -29.4 -18.75 -16.65 -19.65 -5.8 -21.95 6.45 -21.3 18.7 -20.7 29.0 -14.35 39.3 -8.1 46.7 2.3 54.05 12.65 48.5 25.7 47.5 28.1 44.8 28.5 L43.4 28.45 43.0 28.45 M42.45 29.25 L43.4 29.95 43.1 35.8 16.45 18.15 Q13.7 20.5 11.0 22.2 8.3 23.9 3.2 23.25 L1.5 23.05 -19.65 20.4 Q-34.8 17.1 -39.4 19.1 -44.0 21.05 -45.45 18.7 -46.95 16.35 -38.65 8.55 L-38.75 6.65 -37.6 6.15 Q-30.35 3.1 -22.55 2.9 -10.5 2.55 1.1 6.7 12.7 10.8 22.7 17.5 32.65 24.15 37.0 26.25 L42.45 29.25 M10.3 -1.4 Q15.25 -5.45 19.1 -10.65 L20.65 -12.75 20.35 -13.85 M16.45 18.15 Q10.0 14.25 8.9 13.95 L7.4 17.45 Q5.3 22.05 1.5 23.05 L-3.0 22.2 M8.9 13.95 Q3.75 10.8 -2.8 8.75 -9.4 6.65 -18.25 6.6 -27.1 6.5 -38.65 8.55" fill="none" stroke="#000000" stroke-linecap="round" stroke-linejoin="round" stroke-width="2.0"/>
      <path d="M-22.85 -1.65 L-21.15 -1.9 -21.1 -2.2 -21.1 -2.45 M-23.85 -8.45 Q-24.15 -9.8 -23.1 -9.8 L-22.85 -9.8 M-28.4 -10.6 Q-31.55 -6.3 -28.5 -2.75 L-27.9 -2.2 Q-24.15 -5.4 -19.25 -6.75 L-16.3 -11.7 Q-13.3 -8.6 -13.55 -4.25 L-15.3 -2.45" fill="none" stroke="#ffffff" stroke-linecap="round" stroke-linejoin="round" stroke-width="2.0"/>
    </g>
    </g>
  </g>
  <defs>
    <linearGradient gradientTransform="matrix(0.02, 0.0107, -0.0049, 0.0107, -24.2, 18.4)" gradientUnits="userSpaceOnUse" id="gradient0" spreadMethod="pad" x1="-819.2" x2="819.2">
      <stop offset="0.0" stop-color="#000000"/>
      <stop offset="0.34901960784313724" stop-color="#5a5a5a"/>
      <stop offset="1.0" stop-color="#000000"/>
    </linearGradient>
  </defs>
</svg>