<svg xmlns:xlink="http://www.w3.org/1999/xlink" xmlns="http://www.w3.org/2000/svg" height="98.75px" width="161.15px">
  <g transform="matrix(1.0, 0.0, 0.0, 1.0, 83.0, 71.7)">
    <g data-characterId="1252" height="37.2" transform="matrix(1.0, 0.0, 0.0, 1.0, -58.7, -22.5)" width="115.15" xlink:href="#shape0"><g id="shape0" transform="matrix(1.0, 0.0, 0.0, 1.0, 58.7, 22.5)">
      <path d="M23.1 -21.95 L24.0 -22.5 24.5 -22.0 24.5 -19.5 23.1 -21.95" fill="#ecc59d" fill-rule="evenodd" stroke="none"/>
      <path d="M24.0 -14.0 L23.5 -13.5 Q22.65 -12.85 21.6 -12.3 L20.4 -11.65 Q19.75 -11.25 19.0 -11.0 14.1 -9.2 9.0 -7.95 L-0.55 -5.75 Q-5.35 -4.65 -7.5 0.0 -5.35 -4.65 -0.55 -5.75 L9.0 -7.95 Q14.1 -9.2 19.0 -11.0 19.75 -11.25 20.4 -11.65 L21.6 -12.3 Q22.65 -12.85 23.5 -13.5 L24.0 -14.0 M24.5 -19.5 Q24.65 -17.9 27.55 -16.75 L37.55 -12.95 Q45.2 -10.1 53.35 -4.65 61.5 0.75 44.3 9.35 27.05 17.9 -2.6 11.3 -6.3 10.35 -10.1 10.75 -33.95 11.8 -56.45 5.55 -58.9 4.8 -57.95 -0.9 -57.05 -6.65 -42.0 -10.35 -34.0 -12.35 -28.7 -15.05 -24.1 -17.5 -21.55 -20.5 L-18.5 -19.3 Q-6.65 -14.3 3.05 -15.05 12.2 -15.75 23.1 -21.95 L24.5 -19.5 M-27.9 -13.6 Q-26.05 -10.9 -26.5 -7.5 -26.05 -10.9 -27.9 -13.6" fill="#d9a166" fill-rule="evenodd" stroke="none"/>
      <path d="M24.5 -19.5 Q24.65 -17.9 27.55 -16.75 L37.55 -12.95 Q45.2 -10.1 53.35 -4.65 61.5 0.75 44.3 9.35 27.05 17.9 -2.6 11.3 -6.3 10.35 -10.1 10.75 -33.95 11.8 -56.45 5.55 -58.9 4.8 -57.95 -0.9 -57.05 -6.65 -42.0 -10.35 -34.0 -12.35 -28.7 -15.05 -24.1 -17.5 -21.55 -20.5 M24.5 -22.0 L24.5 -19.5" fill="none" stroke="#000000" stroke-linecap="round" stroke-linejoin="round" stroke-width="2.0"/>
      <path d="M-7.5 0.0 Q-5.35 -4.65 -0.55 -5.75 L9.0 -7.95 Q14.1 -9.2 19.0 -11.0 19.75 -11.25 20.4 -11.65 L21.6 -12.3 Q22.65 -12.85 23.5 -13.5 L24.0 -14.0 M-26.5 -7.5 Q-26.05 -10.9 -27.9 -13.6" fill="none" stroke="#c08456" stroke-linecap="round" stroke-linejoin="round" stroke-width="2.0"/>
    </g>
  </g>
  </g>
  <defs>
    </defs>
</svg>