<svg xmlns:xlink="http://www.w3.org/1999/xlink" xmlns="http://www.w3.org/2000/svg" height="202.2px" width="161.9px">
  <g transform="matrix(1.0, 0.0, 0.0, 1.0, 74.15, 81.7)">
    <g data-characterId="1407" height="136.6" transform="matrix(1.0, 0.0, 0.0, 1.0, -74.15, -71.55)" width="132.35" xlink:href="#shape0"><g id="shape0" transform="matrix(1.0, 0.0, 0.0, 1.0, 74.15, 71.55)">
      <path d="M-17.55 34.75 Q-20.7 40.05 -23.8 42.8 -28.75 47.1 -34.65 46.8 L-36.55 46.6 -34.6 45.2 Q-31.15 42.5 -29.75 38.45 -29.45 37.5 -29.9 36.55 L-30.65 37.85 Q-31.95 39.7 -33.85 41.15 -41.9 47.2 -51.6 45.05 L-53.25 44.6 -51.3 43.15 Q-46.0 38.45 -41.95 32.6 L-39.95 29.4 -42.95 31.95 Q-50.75 38.7 -61.0 36.8 L-54.65 31.15 -53.35 29.85 Q-52.25 28.6 -51.5 27.05 -52.45 28.5 -54.3 28.95 -60.25 30.55 -66.35 30.15 L-68.5 29.9 -66.3 29.1 Q-55.2 24.75 -51.2 13.25 -59.7 20.55 -70.8 18.95 L-73.65 18.4 Q-72.0 18.35 -70.55 17.6 -59.45 11.7 -56.1 0.0 -63.4 10.0 -73.1 8.9 L-65.8 4.0 Q-59.45 -0.45 -55.3 -15.05 -56.95 -11.0 -59.85 -9.4 -62.75 -7.8 -66.45 -8.35 -65.65 -8.5 -61.9 -11.5 -58.2 -14.55 -51.6 -27.9 -46.65 -53.7 -28.05 -63.55 -9.45 -73.45 2.0 -70.3 13.45 -67.2 20.55 -60.55 L25.05 -60.25 Q27.55 -60.25 29.3 -58.6 39.35 -48.9 40.55 -33.8 41.4 -23.5 42.7 -13.4 43.85 -4.35 49.05 6.5 L46.05 4.6 45.1 3.5 44.4 2.35 43.45 -0.3 43.5 2.4 Q43.65 9.55 45.6 16.55 48.05 25.4 54.1 32.2 51.7 32.15 49.55 31.05 L46.05 29.05 Q44.2 27.9 43.45 25.9 L44.55 29.55 Q45.85 33.35 47.85 37.0 51.3 43.4 57.2 47.75 L57.25 47.8 56.85 48.15 Q55.4 49.35 53.5 49.15 L49.5 49.05 49.15 49.0 43.7 48.05 Q46.25 49.55 48.9 50.4 L57.7 53.0 Q54.95 54.2 51.95 54.75 47.4 55.75 42.95 54.15 L50.9 59.55 Q45.5 61.6 39.9 60.85 32.55 60.55 27.6 55.5 L30.1 60.55 Q31.15 62.7 33.1 64.45 L29.8 64.55 Q21.15 63.5 16.85 55.95 13.4 49.75 15.25 42.85 L11.4 52.9 Q9.55 47.9 10.8 42.8 14.3 28.2 17.95 21.85 21.55 15.5 21.8 13.75 22.05 12.0 21.9 6.8 L21.65 -0.05 Q23.5 1.2 25.35 -0.1 27.25 -1.45 27.45 -5.65 27.65 -9.85 28.65 -15.95 29.65 -22.1 25.9 -22.6 22.1 -23.1 20.85 -19.25 19.65 -15.45 14.8 -9.55 10.05 -3.85 14.1 3.65 12.05 3.05 10.5 0.65 8.9 -1.75 9.0 -4.95 9.05 -8.15 13.35 -17.45 17.15 -23.85 15.15 -32.95 13.15 -42.05 2.15 -50.7 -2.6 -41.7 -17.25 -36.55 -28.05 -32.75 -36.35 -24.9 L-37.05 -24.2 -37.6 -23.7 Q-37.65 -19.85 -36.45 -17.15 L-36.0 -16.05 Q-34.85 -13.15 -35.1 -12.45 L-35.95 -7.1 Q-36.6 -2.55 -32.65 8.9 L-29.7 16.7 -27.2 22.1 -29.7 16.7 -27.45 21.5 -27.2 22.1 -24.85 26.0 Q-21.0 31.7 -19.6 33.0 L-17.45 34.4 -17.55 34.75 M2.15 -50.7 L4.8 -55.2 Q5.75 -57.0 4.6 -58.7 5.75 -57.0 4.8 -55.2 L2.15 -50.7 M-51.2 -18.1 Q-51.4 -14.15 -50.6 -10.6 -50.1 -8.4 -48.6 -6.9 -48.45 -7.9 -48.45 -8.9 -48.45 -10.5 -47.55 -11.95 L-46.6 -13.25 -46.4 -10.05 -46.05 -8.4 -45.6 -7.55 -45.15 -6.9 -44.9 -8.75 Q-43.55 -17.35 -37.6 -23.7 -43.55 -17.35 -44.9 -8.75 L-45.15 -6.9 -45.6 -7.55 -46.05 -8.4 -46.4 -10.05 -46.6 -13.25 -47.55 -11.95 Q-48.45 -10.5 -48.45 -8.9 -48.45 -7.9 -48.6 -6.9 -50.1 -8.4 -50.6 -10.6 -51.4 -14.15 -51.2 -18.1" fill="url(#gradient0)" fill-rule="evenodd" stroke="none"/>
      <path d="M57.2 47.75 Q51.3 43.4 47.85 37.0 45.85 33.35 44.55 29.55 L43.45 25.9 Q44.2 27.9 46.05 29.05 L49.55 31.05 Q51.7 32.15 54.1 32.2 48.05 25.4 45.6 16.55 43.65 9.55 43.5 2.4 L43.45 -0.3 44.4 2.35 45.1 3.5 46.05 4.6 49.05 6.5 Q43.85 -4.35 42.7 -13.4 41.4 -23.5 40.55 -33.8 39.35 -48.9 29.3 -58.6 27.55 -60.25 25.05 -60.25 L20.55 -60.55 Q13.45 -67.2 2.0 -70.3 -9.45 -73.45 -28.05 -63.55 -46.65 -53.7 -51.6 -27.9 -58.2 -14.55 -61.9 -11.5 -65.65 -8.5 -66.45 -8.35 -62.75 -7.8 -59.85 -9.4 -56.95 -11.0 -55.3 -15.05 -59.45 -0.45 -65.8 4.0 L-73.1 8.9 Q-63.4 10.0 -56.1 0.0 -59.45 11.7 -70.55 17.6 -72.0 18.35 -73.65 18.4 L-70.8 18.95 Q-59.7 20.55 -51.2 13.25 -55.2 24.75 -66.3 29.1 L-68.5 29.9 -66.35 30.15 Q-60.25 30.55 -54.3 28.95 -52.45 28.5 -51.5 27.05 -52.25 28.6 -53.35 29.85 L-54.65 31.15 -61.0 36.8 Q-50.75 38.7 -42.95 31.95 L-39.95 29.4 -41.95 32.6 Q-46.0 38.45 -51.3 43.15 L-53.25 44.6 -51.6 45.05 Q-41.9 47.2 -33.85 41.15 -31.95 39.7 -30.65 37.85 L-29.9 36.55 Q-29.45 37.5 -29.75 38.45 -31.15 42.5 -34.6 45.2 L-36.55 46.6 -34.65 46.8 Q-28.75 47.1 -23.8 42.8 -20.7 40.05 -17.55 34.75 M-17.45 34.4 L-19.6 33.0 Q-21.0 31.7 -24.85 26.0 L-27.2 22.1 -29.7 16.7 -32.65 8.9 Q-36.6 -2.55 -35.95 -7.1 L-35.1 -12.45 Q-34.85 -13.15 -36.0 -16.05 L-36.45 -17.15 Q-37.65 -19.85 -37.6 -23.7 -43.55 -17.35 -44.9 -8.75 L-45.15 -6.9 -45.6 -7.55 -46.05 -8.4 -46.4 -10.05 -46.6 -13.25 -47.55 -11.95 Q-48.45 -10.5 -48.45 -8.9 -48.45 -7.9 -48.6 -6.9 -50.1 -8.4 -50.6 -10.6 -51.4 -14.15 -51.2 -18.1 M4.6 -58.7 Q5.75 -57.0 4.8 -55.2 L2.15 -50.7 Q13.15 -42.05 15.15 -32.95 17.15 -23.85 13.35 -17.45 9.05 -8.15 9.0 -4.95 8.9 -1.75 10.5 0.65 12.05 3.05 14.1 3.65 10.05 -3.85 14.8 -9.55 19.65 -15.45 20.85 -19.25 22.1 -23.1 25.9 -22.6 29.65 -22.1 28.65 -15.95 27.65 -9.85 27.45 -5.65 27.25 -1.45 25.35 -0.1 23.5 1.2 21.65 -0.05 L21.9 6.8 Q22.05 12.0 21.8 13.75 21.55 15.5 17.95 21.85 14.3 28.2 10.8 42.8 9.55 47.9 11.4 52.9 L15.25 42.85 Q13.4 49.75 16.85 55.95 21.15 63.5 29.8 64.55 L33.1 64.45 Q31.15 62.7 30.1 60.55 L27.6 55.5 Q32.55 60.55 39.9 60.85 45.5 61.6 50.9 59.55 L42.95 54.15 Q47.4 55.75 51.95 54.75 54.95 54.2 57.7 53.0 L48.9 50.4 Q46.25 49.55 43.7 48.05 L49.15 49.0 49.5 49.05 53.5 49.15 Q55.4 49.35 56.85 48.15 L57.25 47.8 57.25 47.75 57.2 47.75 M21.65 -0.05 L21.65 -0.1 21.6 -0.65 M-37.6 -23.7 L-37.05 -24.2 -36.35 -24.9 Q-28.05 -32.75 -17.25 -36.55 -2.6 -41.7 2.15 -50.7" fill="none" stroke="#000000" stroke-linecap="round" stroke-linejoin="round" stroke-width="2.0"/>
      <path d="M36.15 -24.4 Q35.7 -34.6 31.2 -43.75 L30.35 -45.35 M31.3 -27.15 Q31.3 -34.4 26.9 -40.65 L26.25 -41.65 M27.85 -30.15 Q27.05 -34.4 24.95 -38.3 L23.95 -40.3 M17.25 -41.9 Q21.8 -34.4 22.15 -25.85 L22.3 -24.85 M25.55 -26.7 Q26.5 -32.1 23.45 -36.95 L22.55 -38.65 M-49.05 -28.55 Q-48.95 -40.35 -41.1 -49.4 -33.0 -58.75 -22.05 -64.5 -12.7 -69.4 -2.85 -67.6 L-1.15 -67.0 M-60.75 -11.3 Q-56.8 -14.2 -54.9 -18.75 L-54.55 -19.8 M-49.7 -12.9 L-50.2 -25.8 M-37.3 -35.45 Q-33.95 -40.55 -28.55 -43.4 L-26.5 -44.45 M-45.35 -14.75 Q-41.4 -25.9 -31.9 -32.95 -22.35 -40.15 -11.1 -44.85 -2.75 -48.35 0.2 -56.65 M-45.8 -29.95 Q-45.25 -40.65 -36.9 -48.35 -30.1 -54.65 -22.1 -59.4 M-44.45 -28.1 Q-41.9 -39.7 -32.05 -47.1 L-28.3 -49.95" fill="none" stroke="#c7ecfa" stroke-linecap="round" stroke-linejoin="round" stroke-width="1.5"/>
      <path d="M37.05 0.0 Q33.25 -6.3 33.7 -13.95 L33.8 -16.15 M40.25 -3.25 Q36.5 -9.95 36.25 -18.4 L36.15 -22.55 M39.35 19.55 Q37.1 14.45 35.6 9.05 L34.5 4.6 M41.65 46.95 Q34.2 38.7 33.05 27.5 L32.9 25.3 M37.5 53.85 Q27.45 47.85 23.45 37.15 L22.8 34.95 M25.75 59.15 Q21.5 55.75 20.0 50.15 L19.1 46.95 M-11.5 -63.1 L-5.55 -65.4 M-11.3 -56.65 Q-9.2 -59.8 -6.35 -62.2 L-4.6 -63.55 M-46.05 -17.3 Q-44.5 -24.95 -39.95 -30.8 L-38.7 -32.25 M-48.55 6.2 Q-42.7 -2.05 -39.75 -11.2 L-39.15 -12.2 M-14.75 -48.1 Q-5.75 -53.2 -1.4 -62.55 L0.0 -65.4 M-42.35 20.7 Q-39.25 16.35 -38.0 11.05 L-37.55 8.75 M-39.15 26.0 Q-35.55 22.2 -33.9 17.2 L-33.6 16.1 M-35.2 30.35 Q-32.25 27.2 -31.65 22.85 L-31.55 21.6 M-29.95 34.05 Q-27.0 31.85 -26.5 28.4 L-26.5 28.05" fill="none" stroke="#0a4a63" stroke-linecap="round" stroke-linejoin="round" stroke-width="1.5"/>
      <path d="M48.1 43.25 Q42.35 38.6 40.65 31.5 L39.35 26.7 M28.55 40.5 Q25.85 29.15 28.0 17.4 28.35 15.55 29.0 13.8 M27.6 63.3 Q16.65 57.2 17.95 44.4 L18.4 39.8 M11.95 46.45 Q13.95 36.5 18.75 27.35 L19.8 25.55 M45.8 59.15 Q32.95 57.95 26.75 46.7 L23.7 40.95 M52.95 47.65 Q40.0 46.4 37.05 33.5 36.0 28.8 36.35 23.9 M-67.7 6.4 Q-58.5 0.75 -54.9 -9.6 L-54.1 -12.0 M-58.0 14.0 Q-50.75 6.85 -47.7 -3.2 L-47.2 -5.3 M-48.35 32.2 Q-39.45 26.05 -37.45 16.15 L-37.05 14.95 M-31.1 43.7 Q-26.45 42.65 -24.55 37.2 L-24.4 36.55 M-41.9 41.85 Q-36.5 38.75 -33.45 32.95 L-32.0 30.15 M-47.4 42.55 Q-39.35 35.55 -35.55 25.85 L-35.2 24.15 M-48.35 21.6 Q-44.45 14.9 -41.5 7.7 L-40.05 4.1 M-61.7 29.0 Q-52.0 22.4 -47.45 11.45 -45.25 6.2 -42.6 1.15 M-55.7 34.75 Q-47.1 25.75 -41.7 14.7 L-40.05 11.5 M-67.1 17.3 Q-57.1 11.7 -54.55 0.8 L-54.35 -0.5" fill="none" stroke="#27c2e9" stroke-linecap="round" stroke-linejoin="round" stroke-width="1.5"/>
      <path d="M40.25 -3.25 Q36.5 -9.95 36.25 -18.4 L36.15 -22.55 M37.05 0.0 Q33.25 -6.3 33.7 -13.95 L33.8 -16.15 M39.35 19.55 Q37.1 14.45 35.6 9.05 L34.5 4.6 M41.65 46.95 Q34.2 38.7 33.05 27.5 L32.9 25.3 M37.5 53.85 Q27.45 47.85 23.45 37.15 L22.8 34.95 M25.75 59.15 Q21.5 55.75 20.0 50.15 L19.1 46.95" fill="none" stroke="#0a4a63" stroke-linecap="round" stroke-linejoin="round" stroke-width="1.5"/>
      <path d="M20.9 -49.4 Q22.55 -51.9 24.4 -53.9 L25.65 -50.55 Q28.45 -45.8 33.9 -45.35 L33.4 -43.95 32.8 -42.55 Q32.5 -41.8 32.5 -41.0 32.55 -38.9 33.4 -37.1 33.9 -36.0 34.8 -35.0 35.35 -34.35 36.2 -34.4 35.65 -33.95 34.8 -34.15 L32.3 -34.85 Q28.05 -36.1 23.65 -35.6 L22.95 -36.05 21.95 -37.05 Q20.05 -39.7 19.5 -43.05 18.95 -46.5 20.9 -49.4" fill="#d98cd9" fill-rule="evenodd" stroke="none"/>
      <path d="M36.75 -56.35 Q38.6 -57.6 41.05 -57.55 45.05 -58.1 48.7 -60.15 49.4 -60.0 49.15 -58.45 L48.9 -55.4 Q48.95 -51.9 46.9 -49.2 44.7 -46.5 41.35 -47.3 39.95 -47.6 39.25 -46.35 39.0 -43.6 41.65 -42.95 45.4 -41.95 47.45 -38.75 49.0 -36.3 48.55 -33.75 L47.25 -34.05 Q42.8 -36.9 37.6 -36.3 35.7 -36.1 33.4 -37.1 32.55 -38.9 32.5 -41.0 32.5 -41.8 32.8 -42.55 L33.4 -43.95 33.9 -45.35 Q28.45 -45.8 25.65 -50.55 L24.4 -53.9 Q22.55 -51.9 20.9 -49.4 L20.35 -49.65 Q20.2 -50.35 20.3 -50.95 20.7 -53.1 21.95 -54.9 23.45 -57.15 24.45 -59.65 25.9 -63.35 25.95 -67.55 28.75 -67.6 31.2 -66.0 36.05 -62.9 34.95 -57.05 34.7 -55.7 35.05 -54.5 L35.15 -54.15 35.4 -53.7 35.55 -54.65 36.75 -56.35 M36.1 -48.3 Q38.1 -49.75 40.5 -49.75 L46.9 -49.2 40.5 -49.75 Q38.1 -49.75 36.1 -48.3 L36.45 -47.95 Q37.5 -47.15 36.85 -46.05 L35.9 -45.35 36.85 -46.05 Q37.5 -47.15 36.45 -47.95 L36.1 -48.3 35.3 -47.65 36.1 -48.3 33.9 -48.2 33.7 -49.5 31.85 -49.7 Q30.95 -49.5 30.15 -48.5 30.95 -49.5 31.85 -49.7 L33.7 -49.5 33.9 -48.2 36.1 -48.3 M35.9 -52.25 L35.4 -53.7 35.9 -52.25 M31.55 -50.8 L35.15 -54.15 31.55 -50.8" fill="url(#gradient1)" fill-rule="evenodd" stroke="none"/>
      <path d="M36.75 -56.35 Q38.6 -57.6 41.05 -57.55 45.05 -58.1 48.7 -60.15 49.4 -60.0 49.15 -58.45 L48.9 -55.4 Q48.95 -51.9 46.9 -49.2 44.7 -46.5 41.35 -47.3 39.95 -47.6 39.25 -46.35 39.0 -43.6 41.65 -42.95 45.4 -41.95 47.45 -38.75 49.0 -36.3 48.55 -33.75 L48.25 -32.65 Q48.0 -33.55 47.25 -34.05 42.8 -36.9 37.6 -36.3 35.7 -36.1 33.4 -37.1 32.55 -38.9 32.5 -41.0 32.5 -41.8 32.8 -42.55 L33.4 -43.95 33.9 -45.35 Q28.45 -45.8 25.65 -50.55 L24.4 -53.9 Q22.55 -51.9 20.9 -49.4 18.95 -46.5 19.5 -43.05 20.05 -39.7 21.95 -37.05 L22.95 -36.05 23.65 -35.6 Q28.05 -36.1 32.3 -34.85 L34.8 -34.15 Q35.65 -33.95 36.2 -34.4 35.35 -34.35 34.8 -35.0 33.9 -36.0 33.4 -37.1 M35.15 -54.15 L35.05 -54.5 Q34.7 -55.7 34.95 -57.05 36.05 -62.9 31.2 -66.0 28.75 -67.6 25.95 -67.55 25.9 -63.35 24.45 -59.65 23.45 -57.15 21.95 -54.9 20.7 -53.1 20.3 -50.95 20.2 -50.35 20.35 -49.65 M36.1 -48.3 L36.45 -47.95 Q37.5 -47.15 36.85 -46.05 L35.9 -45.35 M35.55 -54.65 L35.15 -54.15 35.4 -53.7 35.55 -54.65 M35.4 -53.7 L35.9 -52.25 M35.3 -47.65 L36.1 -48.3 33.9 -48.2 33.7 -49.5 31.85 -49.7 Q30.95 -49.5 30.15 -48.5" fill="none" stroke="#cc66cc" stroke-linecap="round" stroke-linejoin="round" stroke-width="2.0"/>
      <path d="M36.2 -66.35 L34.7 -66.5 34.3 -66.65 Q33.8 -67.55 34.1 -68.6 34.95 -71.4 37.75 -70.3 39.5 -69.55 40.05 -67.8 40.65 -65.8 39.9 -63.65 38.5 -59.8 36.75 -56.35 L35.55 -54.65 M46.9 -49.2 L50.6 -47.95 52.8 -46.85 Q54.75 -45.75 54.9 -43.65 54.95 -42.95 54.6 -42.5 53.15 -40.65 50.9 -42.0 49.75 -42.65 50.0 -43.9 M46.9 -49.2 L40.5 -49.75 Q38.1 -49.75 36.1 -48.3 M35.15 -54.15 L31.55 -50.8" fill="none" stroke="#ffffcc" stroke-linecap="round" stroke-linejoin="round" stroke-width="2.0"/>
      <path d="M24.55 0.8 Q24.1 1.3 23.5 1.3 22.95 1.3 22.5 0.8 22.05 0.35 22.05 -0.25 22.05 -0.8 22.5 -1.25 22.95 -1.7 23.5 -1.7 24.1 -1.7 24.55 -1.25 25.05 -0.8 25.05 -0.2 25.05 0.35 24.55 0.8 M23.65 2.1 Q24.9 2.1 25.8 3.0 26.75 3.95 26.75 5.2 26.75 6.45 25.8 7.35 24.9 8.3 23.65 8.3 L23.55 8.3 Q22.35 8.25 21.45 7.35 20.55 6.45 20.55 5.2 20.55 3.95 21.45 3.0 22.4 2.1 23.65 2.1 M23.5 8.75 Q24.1 8.75 24.55 9.75 25.05 10.75 25.05 12.1 25.05 13.5 24.55 14.45 24.1 15.45 23.5 15.45 22.95 15.45 22.5 14.45 22.05 13.5 22.05 12.1 22.05 10.75 22.5 9.75 22.95 8.75 23.5 8.75" fill="#01b9fe" fill-rule="evenodd" stroke="none"/>
      <path d="M24.55 0.8 Q24.1 1.3 23.5 1.3 22.95 1.3 22.5 0.8 22.05 0.35 22.05 -0.25 22.05 -0.8 22.5 -1.25 22.95 -1.7 23.5 -1.7 24.1 -1.7 24.55 -1.25 25.05 -0.8 25.05 -0.2 25.05 0.35 24.55 0.8 M23.65 2.1 Q24.9 2.1 25.8 3.0 26.75 3.95 26.75 5.2 26.75 6.45 25.8 7.35 24.9 8.3 23.65 8.3 L23.55 8.3 Q22.35 8.25 21.45 7.35 20.55 6.45 20.55 5.2 20.55 3.95 21.45 3.0 22.4 2.1 23.65 2.1 M23.5 8.75 Q24.1 8.75 24.55 9.75 25.05 10.75 25.05 12.1 25.05 13.5 24.55 14.45 24.1 15.45 23.5 15.45 22.95 15.45 22.5 14.45 22.05 13.5 22.05 12.1 22.05 10.75 22.5 9.75 22.95 8.75 23.5 8.75 Z" fill="none" stroke="#66ffff" stroke-linecap="round" stroke-linejoin="round" stroke-width="1.5"/>
    </g>
    </g>
  </g>
  <defs>
    <radialGradient cx="0" cy="0" gradientTransform="matrix(-0.0041, 0.0719, -0.1251, -0.0071, -2.0, -60.0)" gradientUnits="userSpaceOnUse" id="gradient0" r="819.2" spreadMethod="pad">
      <stop offset="0.0" stop-color="#2351be"/>
      <stop offset="0.3843137254901961" stop-color="#79b3e1"/>
      <stop offset="0.5372549019607843" stop-color="#bad9ef"/>
      <stop offset="0.6862745098039216" stop-color="#79b3e1"/>
      <stop offset="1.0" stop-color="#2351be"/>
    </radialGradient>
    <radialGradient cx="0" cy="0" gradientTransform="matrix(0.0266, 0.0, 0.0, 0.0266, 34.75, -50.65)" gradientUnits="userSpaceOnUse" id="gradient1" r="819.2" spreadMethod="pad">
      <stop offset="0.0" stop-color="#d7b464"/>
      <stop offset="1.0" stop-color="#d98cd9"/>
    </radialGradient>
  </defs>
</svg>