<svg xmlns:xlink="http://www.w3.org/1999/xlink" xmlns="http://www.w3.org/2000/svg" height="98.75px" width="161.15px">
  <g transform="matrix(1.0, 0.0, 0.0, 1.0, 83.0, 71.7)">
    <g data-characterId="1266" height="37.65" transform="matrix(1.0, 0.0, 0.0, 1.0, -54.7, -22.5)" width="122.4" xlink:href="#shape0"><g id="shape0" transform="matrix(1.0, 0.0, 0.0, 1.0, 54.7, 22.5)">
      <path d="M26.05 -17.45 L22.4 -15.0 Q19.7 -13.0 16.75 -11.7 12.9 -9.95 8.9 -8.65 L7.8 -8.25 Q6.05 -7.45 4.0 -7.45 L2.9 -7.3 -2.0 -7.0 Q-3.1 -7.1 -3.45 -6.6 L-4.2 -5.1 -4.85 -3.7 -7.2 -3.35 -10.75 -4.05 -7.2 -3.35 -4.85 -3.7 -5.35 -2.8 -6.0 -1.95 -6.4 -1.55 Q-8.55 0.2 -10.65 1.15 L-10.6 0.3 -10.45 -0.55 -10.5 -2.3 -10.55 -2.45 -10.5 -2.5 -10.5 -2.3 -10.5 -2.5 -10.75 -4.05 -11.05 -6.3 -11.1 -7.2 Q-11.05 -7.95 -11.5 -8.0 L-12.65 -8.1 -14.1 -8.3 -15.55 -8.45 Q-21.3 -9.05 -26.45 -11.85 -28.25 -12.8 -29.15 -14.85 -24.2 -17.35 -21.55 -20.5 L-18.5 -19.3 Q-6.65 -14.3 3.05 -15.05 12.6 -15.8 24.0 -22.5 L24.5 -22.0 24.5 -19.5 Q24.6 -18.4 26.05 -17.45 M-5.35 -2.8 L-7.2 -3.35 -5.35 -2.8 M-7.2 -3.35 L-10.5 -2.5 -7.2 -3.35" fill="#ecc59d" fill-rule="evenodd" stroke="none"/>
      <path d="M-4.85 -3.7 L-4.2 -5.1 -3.45 -6.6 Q-3.1 -7.1 -2.0 -7.0 L2.9 -7.3 4.0 -7.45 Q6.05 -7.45 7.8 -8.25 L8.9 -8.65 Q12.9 -9.95 16.75 -11.7 19.7 -13.0 22.4 -15.0 L26.05 -17.45 Q26.65 -17.1 28.5 -16.5 L40.75 -13.05 Q51.15 -10.15 63.2 -2.55 75.25 5.05 51.15 11.5 27.05 17.9 -2.6 11.3 -6.3 10.35 -10.1 10.75 -33.35 12.15 -43.7 10.05 -54.05 7.9 -54.2 1.8 -54.4 -4.4 -46.25 -7.85 L-34.85 -12.45 Q-31.7 -13.6 -29.15 -14.85 -28.25 -12.8 -26.45 -11.85 -21.3 -9.05 -15.55 -8.45 L-14.1 -8.3 -12.65 -8.1 -11.5 -8.0 Q-11.05 -7.95 -11.1 -7.2 L-11.05 -6.3 -10.75 -4.05 -10.5 -2.5 -10.55 -2.45 -10.5 -2.3 -10.45 -0.55 -10.6 0.3 -10.65 1.15 Q-8.55 0.2 -6.4 -1.55 L-6.0 -1.95 -5.35 -2.8 -4.85 -3.7 -2.6 -3.85 -2.0 -3.75 -2.6 -3.85 -4.85 -3.7 M-13.55 -4.3 L-10.75 -4.05 -13.55 -4.3 M-13.8 -1.15 L-10.55 -2.45 -13.8 -1.15 M-1.15 -1.15 L-2.6 -1.75 -5.35 -2.8 -2.6 -1.75 -1.15 -1.15" fill="#db8b27" fill-rule="evenodd" stroke="none"/>
      <path d="M-4.85 -3.7 L-4.2 -5.1 -3.45 -6.6 Q-3.1 -7.1 -2.0 -7.0 L2.9 -7.3 4.0 -7.45 Q6.05 -7.45 7.8 -8.25 L8.9 -8.65 Q12.9 -9.95 16.75 -11.7 19.7 -13.0 22.4 -15.0 L26.05 -17.45 Q24.6 -18.4 24.5 -19.5 L24.5 -22.0 M-21.55 -20.5 Q-24.2 -17.35 -29.15 -14.85 -28.25 -12.8 -26.45 -11.85 -21.3 -9.05 -15.55 -8.45 L-14.1 -8.3 -12.65 -8.1 -11.5 -8.0 Q-11.05 -7.95 -11.1 -7.2 L-11.05 -6.3 -10.75 -4.05 -7.2 -3.35 -4.85 -3.7 -2.6 -3.85 -2.0 -3.75 M26.05 -17.45 Q26.65 -17.1 28.5 -16.5 L40.75 -13.05 Q51.15 -10.15 63.2 -2.55 75.25 5.05 51.15 11.5 27.05 17.9 -2.6 11.3 -6.3 10.35 -10.1 10.75 -33.35 12.15 -43.7 10.05 -54.05 7.9 -54.2 1.8 -54.4 -4.4 -46.25 -7.85 L-34.85 -12.45 Q-31.7 -13.6 -29.15 -14.85 M-10.5 -2.5 L-10.55 -2.45 -13.8 -1.15 M-10.5 -2.3 L-10.5 -2.5 -10.75 -4.05 -13.55 -4.3 M-5.35 -2.8 L-6.0 -1.95 -6.4 -1.55 Q-8.55 0.2 -10.65 1.15 L-10.6 0.3 -10.45 -0.55 -10.5 -2.3 M-7.2 -3.35 L-5.35 -2.8 -4.85 -3.7 M-5.35 -2.8 L-2.6 -1.75 -1.15 -1.15 M-10.5 -2.5 L-7.2 -3.35" fill="none" stroke="#000000" stroke-linecap="round" stroke-linejoin="round" stroke-width="2.0"/>
    </g>
  </g>
  </g>
  <defs>
    </defs>
</svg>