<svg xmlns:xlink="http://www.w3.org/1999/xlink" xmlns="http://www.w3.org/2000/svg" height="202.2px" width="161.9px">
  <g transform="matrix(1.0, 0.0, 0.0, 1.0, 74.15, 81.7)">
    <g data-characterId="1432" height="159.15" transform="matrix(1.0, 0.0, 0.0, 1.0, -50.85, -71.7)" width="108.85" xlink:href="#shape0"><g id="shape0" transform="matrix(1.0, 0.0, 0.0, 1.0, 50.85, 71.7)">
      <path d="M-6.25 -64.1 L2.15 -64.4 3.1 -65.55 Q5.3 -68.05 8.5 -68.0 5.3 -68.05 3.1 -65.55 L2.15 -64.4 -6.25 -64.1 M-34.25 -53.5 Q-32.2 -56.4 -27.7 -60.8 -23.2 -65.2 -16.7 -67.8 L-8.8 -70.9 -4.55 -71.05 7.15 -70.1 8.7 -70.0 Q13.7 -69.6 18.0 -68.05 22.9 -66.35 33.5 -55.55 L35.15 -50.95 36.95 -45.4 40.0 -33.05 Q42.3 -23.25 42.3 -17.05 L42.35 -15.25 Q33.8 -18.45 26.75 -24.3 22.2 -28.05 18.5 -32.8 13.85 -38.85 11.3 -45.8 8.6 -53.0 1.0 -54.5 8.6 -53.0 11.3 -45.8 13.85 -38.85 18.5 -32.8 22.2 -28.05 26.75 -24.3 33.8 -18.45 42.35 -15.25 42.85 -10.25 45.0 -6.05 L46.0 -6.5 Q45.5 -5.35 45.75 -1.1 46.0 3.2 47.35 6.85 L48.75 10.6 Q49.65 15.5 49.75 24.25 49.8 33.1 52.2 40.85 54.55 48.55 57.45 52.0 L56.0 52.15 Q49.65 49.65 42.75 48.5 L43.0 46.0 42.75 48.5 Q41.7 57.7 36.45 65.3 L33.55 69.55 Q32.65 71.0 31.0 71.5 L31.45 69.0 Q31.7 66.9 31.0 64.5 L29.15 67.6 Q24.05 75.8 17.0 82.5 L18.0 73.5 Q14.7 79.75 8.8 83.7 6.1 85.55 3.0 86.65 L2.35 85.1 Q9.3 77.65 12.2 67.95 14.05 61.75 15.45 55.35 19.45 37.3 18.15 18.7 17.6 11.3 16.55 4.0 12.3 -1.15 9.1 -7.35 4.8 -15.7 2.3 -24.4 -0.2 -33.15 -4.75 -37.9 -9.35 -42.7 -12.2 -47.7 L-23.3 -45.95 -29.45 -45.55 -28.85 -45.1 -30.0 -46.0 -30.6 -46.25 Q-32.05 -44.05 -32.4 -42.9 L-33.85 -41.25 Q-35.1 -40.15 -35.55 -35.2 L-36.95 -20.75 -36.55 -20.4 Q-38.2 -12.5 -36.75 -6.05 -35.35 0.35 -33.05 7.35 L-26.05 28.55 Q-27.75 32.5 -25.7 36.45 L-25.6 36.6 -22.2 43.55 -25.6 36.6 -25.7 36.45 Q-27.75 32.5 -26.05 28.55 -22.8 33.55 -17.45 36.45 L-16.9 36.75 -18.5 48.5 -19.0 48.5 -19.65 47.85 -20.4 46.95 -20.55 46.7 -22.2 43.55 -23.2 44.3 Q-25.6 41.05 -27.65 37.65 L-27.65 37.6 -31.05 31.55 Q-34.35 25.1 -35.0 17.8 L-35.5 10.3 -42.4 32.3 -35.5 10.3 -35.0 17.8 Q-34.35 25.1 -31.05 31.55 L-27.65 37.6 -27.65 37.65 Q-25.6 41.05 -23.2 44.3 L-23.4 46.8 Q-29.75 46.4 -35.8 48.5 L-41.95 50.65 Q-43.9 51.4 -45.75 52.3 L-43.6 48.65 -42.9 47.3 -42.45 46.6 Q-41.65 45.45 -41.35 42.25 -41.1 39.0 -42.4 32.3 L-44.0 46.6 Q-50.5 33.85 -49.5 22.3 -48.5 10.75 -48.55 4.35 -48.55 -2.05 -49.5 -8.25 -50.5 -14.55 -50.3 -23.4 L-50.25 -38.05 Q-50.4 -43.9 -44.65 -49.5 -38.9 -55.15 -37.5 -54.6 L-34.25 -53.5 -30.0 -49.5 -34.25 -53.5 M-23.5 -50.5 Q-22.9 -51.1 -22.9 -52.75 -22.95 -54.4 -21.45 -56.55 -20.0 -58.7 -18.05 -59.6 -16.1 -60.55 -11.15 -57.9 L-2.6 -52.95 Q0.95 -50.7 2.8 -46.85 7.3 -37.5 10.65 -27.95 11.95 -24.2 14.55 -21.05 18.35 -16.3 23.8 -13.55 30.65 -9.95 38.1 -7.8 L43.7 -6.45 44.4 -6.3 43.95 -5.25 43.9 -5.2 43.3 -4.85 37.9 -5.3 37.85 -5.3 37.3 -5.35 Q28.2 -6.65 20.0 -10.5 28.2 -6.65 37.3 -5.35 L37.85 -5.3 37.9 -5.3 43.3 -4.85 43.9 -5.2 43.95 -5.25 44.4 -6.3 43.7 -6.45 38.1 -7.8 Q30.65 -9.95 23.8 -13.55 18.35 -16.3 14.55 -21.05 11.95 -24.2 10.65 -27.95 7.3 -37.5 2.8 -46.85 0.95 -50.7 -2.6 -52.95 L-11.15 -57.9 Q-16.1 -60.55 -18.05 -59.6 -20.0 -58.7 -21.45 -56.55 -22.95 -54.4 -22.9 -52.75 -22.9 -51.1 -23.5 -50.5 M25.95 6.3 Q29.9 12.25 35.4 16.9 L39.0 19.75 34.3 18.3 Q27.75 15.8 22.6 11.0 19.15 7.8 16.55 4.0 19.15 7.8 22.6 11.0 27.75 15.8 34.3 18.3 L39.0 19.75 35.4 16.9 Q29.9 12.25 25.95 6.3 L27.25 5.3 Q34.1 8.4 41.35 10.1 34.1 8.4 27.25 5.3 26.0 4.75 25.2 3.8 L24.6 4.15 25.35 5.4 25.95 6.3 M22.0 -1.0 L23.35 1.85 24.6 4.15 23.35 1.85 22.0 -1.0 M41.35 10.1 L41.45 10.1 42.9 10.45 46.0 11.0 Q44.55 10.45 43.3 9.7 L41.75 8.7 41.35 10.1 M27.0 -4.0 Q33.8 3.25 41.75 8.7 33.8 3.25 27.0 -4.0 M25.5 21.5 L25.55 22.55 25.5 21.5 M24.0 1.5 Q24.4 2.85 25.2 3.8 24.4 2.85 24.0 1.5 M26.0 22.5 L25.55 22.55 25.8 29.8 25.75 37.7 25.05 46.95 Q24.05 56.1 21.5 65.0 24.05 56.1 25.05 46.95 L25.75 37.7 25.8 29.8 27.05 29.65 26.0 22.5 M28.25 37.7 L27.05 29.65 28.25 37.7 28.45 39.25 29.2 37.55 28.25 37.7 M39.5 19.75 L39.0 19.75 39.5 19.75 M33.5 20.0 Q32.45 29.1 29.2 37.55 32.45 29.1 33.5 20.0 M38.5 34.5 L40.3 30.35 Q43.65 21.8 42.5 12.5 43.65 21.8 40.3 30.35 L38.5 34.5 M-23.0 -47.0 L-19.2 -50.4 -17.15 -52.0 Q-14.25 -49.1 -12.2 -47.7 -14.25 -49.1 -17.15 -52.0 L-19.2 -50.4 -23.0 -47.0" fill="#ff0000" fill-rule="evenodd" stroke="none"/>
      <path d="M8.5 -68.0 Q5.3 -68.05 3.1 -65.55 L2.15 -64.4 -6.25 -64.1 M42.35 -15.25 L42.3 -17.05 Q42.3 -23.25 40.0 -33.05 L36.95 -45.4 35.15 -50.95 33.5 -55.55 Q22.9 -66.35 18.0 -68.05 13.7 -69.6 8.7 -70.0 L7.15 -70.1 -4.55 -71.05 -8.8 -70.9 -16.7 -67.8 Q-23.2 -65.2 -27.7 -60.8 -32.2 -56.4 -34.25 -53.5 L-30.0 -49.5 M20.0 -10.5 Q28.2 -6.65 37.3 -5.35 L37.85 -5.3 37.9 -5.3 43.3 -4.85 43.9 -5.2 43.95 -5.25 44.4 -6.3 43.7 -6.45 38.1 -7.8 Q30.65 -9.95 23.8 -13.55 18.35 -16.3 14.55 -21.05 11.95 -24.2 10.65 -27.95 7.3 -37.5 2.8 -46.85 0.95 -50.7 -2.6 -52.95 L-11.15 -57.9 Q-16.1 -60.55 -18.05 -59.6 -20.0 -58.7 -21.45 -56.55 -22.95 -54.4 -22.9 -52.75 -22.9 -51.1 -23.5 -50.5 M42.35 -15.25 Q33.8 -18.45 26.75 -24.3 22.2 -28.05 18.5 -32.8 13.85 -38.85 11.3 -45.8 8.6 -53.0 1.0 -54.5 M-12.2 -47.7 Q-9.35 -42.7 -4.75 -37.9 -0.2 -33.15 2.3 -24.4 4.8 -15.7 9.1 -7.35 12.3 -1.15 16.55 4.0 19.15 7.8 22.6 11.0 27.75 15.8 34.3 18.3 L39.0 19.75 35.4 16.9 Q29.9 12.25 25.95 6.3 L25.35 5.4 24.6 4.15 23.35 1.85 22.0 -1.0 M57.45 52.0 Q54.55 48.55 52.2 40.85 49.8 33.1 49.75 24.25 49.65 15.5 48.75 10.6 L47.35 6.85 Q46.0 3.2 45.75 -1.1 45.5 -5.35 46.0 -6.5 L45.0 -6.05 Q42.85 -10.25 42.35 -15.25 M41.75 8.7 L43.3 9.7 Q44.55 10.45 46.0 11.0 L42.9 10.45 41.45 10.1 41.35 10.1 Q34.1 8.4 27.25 5.3 26.0 4.75 25.2 3.8 24.4 2.85 24.0 1.5 M41.75 8.7 Q33.8 3.25 27.0 -4.0 M43.0 46.0 L42.75 48.5 Q49.65 49.65 56.0 52.15 57.05 52.5 57.5 53.5 L57.45 52.0 M25.55 22.55 L25.5 21.5 M26.0 22.5 L27.05 29.65 28.25 37.7 28.45 39.25 29.2 37.55 Q32.45 29.1 33.5 20.0 M39.0 19.75 L39.5 19.75 M16.55 4.0 Q17.6 11.3 18.15 18.7 19.45 37.3 15.45 55.35 14.05 61.75 12.2 67.95 9.3 77.65 2.35 85.1 1.35 86.2 2.05 86.95 L3.0 86.65 Q6.1 85.55 8.8 83.7 14.7 79.75 18.0 73.5 L17.0 82.5 Q24.05 75.8 29.15 67.6 L31.0 64.5 Q31.7 66.9 31.45 69.0 L31.0 71.5 Q32.65 71.0 33.55 69.55 L36.45 65.3 Q41.7 57.7 42.75 48.5 M42.5 12.5 Q43.65 21.8 40.3 30.35 L38.5 34.5 M25.8 29.8 L25.75 37.7 25.05 46.95 Q24.05 56.1 21.5 65.0 M25.8 29.8 L25.55 22.55 M-34.25 -53.5 L-37.5 -54.6 Q-38.9 -55.15 -44.65 -49.5 -50.4 -43.9 -50.25 -38.05 L-50.3 -23.4 Q-50.5 -14.55 -49.5 -8.25 -48.55 -2.05 -48.55 4.35 -48.5 10.75 -49.5 22.3 -50.5 33.85 -44.0 46.6 L-42.4 32.3 -35.5 10.3 -35.0 17.8 Q-34.35 25.1 -31.05 31.55 L-27.65 37.6 -27.65 37.65 Q-25.6 41.05 -23.2 44.3 L-21.15 47.0 -20.4 46.95 -20.55 46.7 -22.2 43.55 -25.6 36.6 -25.7 36.45 Q-27.75 32.5 -26.05 28.55 L-33.05 7.35 Q-35.35 0.35 -36.75 -6.05 -38.2 -12.5 -36.55 -20.4 L-36.95 -20.75 -35.55 -35.2 Q-35.1 -40.15 -33.85 -41.25 L-32.4 -42.9 Q-32.05 -44.05 -30.6 -46.25 M-30.0 -46.0 L-28.85 -45.1 -29.45 -45.55 -23.3 -45.95 -12.2 -47.7 Q-14.25 -49.1 -17.15 -52.0 L-19.2 -50.4 -23.0 -47.0 M-23.4 46.8 L-21.15 47.0 -19.65 47.85 -20.4 46.95 M-42.4 32.3 Q-41.1 39.0 -41.35 42.25 -41.65 45.45 -42.45 46.6 L-42.9 47.3 -43.6 48.65 -45.75 52.3 Q-43.9 51.4 -41.95 50.65 L-35.8 48.5 Q-29.75 46.4 -23.4 46.8 M-19.65 47.85 L-19.0 48.5 M-18.5 48.5 L-16.9 36.75 -17.45 36.45 Q-22.8 33.55 -26.05 28.55" fill="none" stroke="#000000" stroke-linecap="round" stroke-linejoin="round" stroke-width="2.0"/>
    </g>
  </g>
  </g>
  <defs>
    </defs>
</svg>