<svg xmlns:xlink="http://www.w3.org/1999/xlink" xmlns="http://www.w3.org/2000/svg" height="202.2px" width="161.9px">
  <g transform="matrix(1.0, 0.0, 0.0, 1.0, 74.15, 81.7)">
    <g data-characterId="1422" height="173.65" transform="matrix(1.0, 0.0, 0.0, 1.0, -54.0, -72.1)" width="111.5" xlink:href="#shape0"><g id="shape0" transform="matrix(1.0, 0.0, 0.0, 1.0, 54.0, 72.1)">
      <path d="M-6.5 -70.0 Q-1.05 -71.35 5.6 -71.55 12.2 -71.75 16.3 -70.45 20.35 -69.25 23.25 -67.65 26.1 -66.1 30.9 -60.55 35.65 -55.0 38.65 -49.05 41.65 -43.15 43.9 -36.45 46.05 -29.7 46.1 -21.05 L46.15 -5.2 Q46.2 7.15 45.2 19.25 43.85 35.5 48.8 50.9 49.95 54.55 51.65 58.0 53.95 62.7 55.5 67.4 59.0 78.15 54.25 88.2 L46.0 68.05 Q45.85 72.5 43.55 76.2 34.9 90.15 23.0 101.05 28.55 87.1 29.0 72.05 27.35 77.45 24.25 82.05 18.05 91.2 8.0 95.55 L12.2 87.0 16.9 76.7 Q18.4 73.3 18.0 69.55 16.3 72.75 13.45 75.25 7.45 80.65 0.2 84.4 1.7 78.8 5.6 74.5 7.9 72.0 9.35 68.95 10.75 65.85 10.45 63.95 L7.0 66.95 Q2.55 71.1 -3.0 73.05 L-0.95 69.75 1.95 66.0 3.95 63.8 Q7.4 60.3 8.5 55.55 L7.85 56.65 Q7.0 58.15 5.55 59.3 3.5 60.9 0.8 60.7 2.55 55.7 5.45 51.45 L8.2 47.25 Q12.6 40.15 15.35 32.4 17.8 25.5 21.05 18.8 23.3 14.2 24.85 9.35 L28.55 -1.7 Q28.95 -2.85 29.8 -3.8 30.8 -4.9 31.2 -6.15 33.25 -12.0 33.25 -18.5 33.25 -23.05 29.55 -26.0 L28.7 -25.65 Q25.65 -24.35 24.15 -21.55 22.3 -18.1 21.75 -14.4 L21.0 -8.7 Q19.75 1.9 13.0 10.0 14.65 5.9 15.05 1.3 15.55 -4.0 16.4 -9.3 18.0 -19.05 17.0 -29.0 L14.0 -20.5 12.95 -27.7 12.35 -32.3 Q11.95 -35.6 9.65 -37.85 8.3 -39.2 6.65 -40.05 L6.1 -40.3 1.1 -42.5 -7.25 -45.9 -8.45 -48.05 Q-10.7 -51.8 -9.5 -56.0 L-10.05 -56.3 Q-11.75 -51.95 -16.05 -50.05 L-17.5 -49.25 Q-19.0 -48.4 -20.35 -47.3 L-20.85 -46.9 Q-28.2 -40.75 -30.8 -31.5 L-32.0 -26.35 -32.5 -37.0 -34.2 -31.2 Q-36.55 -22.55 -36.5 -13.5 L-37.5 -12.5 Q-37.85 -5.55 -35.5 1.0 -34.1 4.85 -33.45 9.15 -33.3 10.25 -32.75 10.85 -31.8 18.05 -28.2 24.35 -26.7 26.9 -25.4 29.65 -23.15 34.45 -17.85 35.1 L-19.2 47.6 Q-24.5 49.3 -29.2 51.15 -33.9 53.05 -41.45 52.2 L-49.2 51.55 Q-50.65 49.55 -53.5 49.55 -47.85 39.65 -46.35 31.2 -44.9 22.7 -46.65 9.25 -48.45 -4.25 -44.9 -28.8 -41.35 -53.35 -36.95 -58.9 -32.55 -64.5 -26.15 -67.75 -19.75 -71.0 -5.5 -71.0 L-6.5 -70.0 M-37.5 -31.85 Q-38.45 -24.8 -37.35 -18.05 L-36.5 -13.5 -37.35 -18.05 Q-38.45 -24.8 -37.5 -31.85 L-37.0 -27.5 -37.5 -31.85 M-32.5 -58.0 Q-33.55 -57.4 -34.35 -56.4 -38.05 -51.5 -39.5 -45.5 -38.05 -51.5 -34.35 -56.4 -33.55 -57.4 -32.5 -58.0 M-28.5 -61.0 L-33.0 -53.0 Q-35.75 -47.85 -36.35 -42.0 -36.5 -40.25 -36.8 -38.55 -37.9 -32.6 -36.0 -27.0 -37.9 -32.6 -36.8 -38.55 -36.5 -40.25 -36.35 -42.0 -35.75 -47.85 -33.0 -53.0 L-28.5 -61.0 M22.5 -27.0 Q21.4 -34.85 19.0 -42.5 17.45 -47.55 13.0 -50.5 17.45 -47.55 19.0 -42.5 21.4 -34.85 22.5 -27.0 M39.5 -20.5 L39.5 -5.0 39.65 13.0 Q39.8 21.5 40.3 30.0 40.85 39.05 42.4 48.0 L43.25 52.45 Q44.25 57.0 45.7 61.45 L46.65 64.6 Q48.55 72.2 53.5 78.0 48.55 72.2 46.65 64.6 L45.7 61.45 Q44.25 57.0 43.25 52.45 L42.4 48.0 Q40.85 39.05 40.3 30.0 39.8 21.5 39.65 13.0 L39.5 -5.0 39.5 -20.5 M18.0 -4.5 Q18.85 -6.0 19.1 -8.0 19.85 -13.7 19.65 -19.5 19.4 -28.8 15.6 -37.05 L11.5 -45.5 Q7.7 -52.7 0.0 -54.5 7.7 -52.7 11.5 -45.5 L15.6 -37.05 Q19.4 -28.8 19.65 -19.5 19.85 -13.7 19.1 -8.0 18.85 -6.0 18.0 -4.5 M16.0 -28.0 Q15.85 -31.9 14.6 -35.55 13.65 -38.2 11.65 -40.15 L10.35 -41.3 7.0 -43.45 Q6.0 -44.0 5.1 -44.65 L2.95 -45.9 1.6 -46.65 -0.4 -47.7 -1.6 -48.35 Q-3.8 -49.55 -5.3 -51.65 -8.25 -55.75 -6.5 -61.0 -8.25 -55.75 -5.3 -51.65 -3.8 -49.55 -1.6 -48.35 L-0.4 -47.7 1.6 -46.65 2.95 -45.9 5.1 -44.65 Q6.0 -44.0 7.0 -43.45 L10.35 -41.3 11.65 -40.15 Q13.65 -38.2 14.6 -35.55 15.85 -31.9 16.0 -28.0 M33.5 -26.5 L34.2 -25.4 35.1 -22.55 35.25 -21.5 Q35.7 -11.7 32.9 -2.55 32.4 -0.8 32.2 1.0 32.0 3.4 30.7 5.6 L29.3 7.85 Q28.5 9.1 28.1 10.55 L26.95 14.0 19.9 31.45 18.75 33.25 Q17.7 34.3 17.35 35.45 L16.4 37.45 15.2 39.6 14.75 40.3 Q13.95 41.3 13.5 42.5 12.35 45.45 9.4 47.9 L8.7 48.65 7.3 50.35 Q5.65 52.25 5.5 55.0 5.65 52.25 7.3 50.35 L8.7 48.65 9.4 47.9 Q12.35 45.45 13.5 42.5 13.95 41.3 14.75 40.3 L15.2 39.6 16.4 37.45 17.35 35.45 Q17.7 34.3 18.75 33.25 L19.9 31.45 26.95 14.0 28.1 10.55 Q28.5 9.1 29.3 7.85 L30.7 5.6 Q32.0 3.4 32.2 1.0 32.4 -0.8 32.9 -2.55 35.7 -11.7 35.25 -21.5 L35.1 -22.55 34.2 -25.4 33.5 -26.5 M29.0 -29.5 L28.35 -32.95 Q27.5 -36.5 26.1 -39.85 24.5 -43.75 21.95 -47.1 20.5 -49.0 18.5 -50.5 20.5 -49.0 21.95 -47.1 24.5 -43.75 26.1 -39.85 27.5 -36.5 28.35 -32.95 L29.0 -29.5 M38.5 -29.0 L37.0 -34.0 Q35.75 -38.25 34.05 -42.3 31.95 -47.5 26.5 -49.0 31.95 -47.5 34.05 -42.3 35.75 -38.25 37.0 -34.0 L38.5 -29.0 M-5.0 -69.0 L-5.55 -68.55 Q-6.25 -67.95 -6.0 -67.0 L-4.5 -67.15 Q-2.5 -67.5 -2.0 -66.5 L-2.5 -65.5 Q-2.95 -64.45 -4.05 -64.2 L-5.9 -63.7 Q-7.25 -63.25 -8.25 -62.25 -9.5 -60.95 -8.0 -59.5 -9.5 -60.95 -8.25 -62.25 -7.25 -63.25 -5.9 -63.7 L-4.05 -64.2 Q-2.95 -64.45 -2.5 -65.5 L-2.0 -66.5 Q-2.5 -67.5 -4.5 -67.15 L-6.0 -67.0 Q-6.25 -67.95 -5.55 -68.55 L-5.0 -69.0 M26.0 33.0 Q23.75 41.65 20.35 49.95 17.15 57.85 13.3 65.4 L11.25 69.6 Q8.4 75.6 4.0 80.5 8.4 75.6 11.25 69.6 L13.3 65.4 Q17.15 57.85 20.35 49.95 23.75 41.65 26.0 33.0 M30.5 35.5 L27.5 48.5 Q25.75 56.75 22.6 64.55 21.5 67.25 20.75 70.05 18.9 76.9 15.5 83.0 18.9 76.9 20.75 70.05 21.5 67.25 22.6 64.55 25.75 56.75 27.5 48.5 L30.5 35.5 M32.5 25.0 L31.9 27.45 31.0 30.0 31.9 27.45 32.5 25.0 M34.5 7.5 Q31.1 15.2 28.05 23.0 L25.7 28.35 Q23.35 33.05 21.45 38.0 17.9 47.05 12.85 55.4 L12.15 56.6 Q8.95 62.25 4.0 66.5 8.95 62.25 12.15 56.6 L12.85 55.4 Q17.9 47.05 21.45 38.0 23.35 33.05 25.7 28.35 L28.05 23.0 Q31.1 15.2 34.5 7.5 M37.5 13.5 L37.35 22.5 Q37.1 30.0 36.45 37.5 L34.95 55.5 34.6 60.0 Q34.2 67.0 32.85 73.95 32.5 75.75 32.5 77.5 32.4 81.5 30.5 85.0 32.4 81.5 32.5 77.5 32.5 75.75 32.85 73.95 34.2 67.0 34.6 60.0 L34.95 55.5 36.45 37.5 Q37.1 30.0 37.35 22.5 L37.5 13.5 M-31.0 42.0 L-30.4 40.55 Q-27.55 34.75 -29.0 28.5 -27.55 34.75 -30.4 40.55 L-31.0 42.0 M-38.5 45.0 L-37.8 41.05 Q-35.85 32.4 -35.65 23.5 -35.55 18.0 -35.85 12.5 -36.25 5.6 -38.0 -1.0 -36.25 5.6 -35.85 12.5 -35.55 18.0 -35.65 23.5 -35.85 32.4 -37.8 41.05 L-38.5 45.0 M-39.0 -42.5 Q-41.45 -35.1 -42.45 -27.5 -43.75 -17.75 -44.45 -8.0 -44.8 -2.85 -44.2 2.0 L-43.8 5.0 Q-42.7 14.25 -42.95 24.0 -43.0 26.35 -43.55 28.5 L-43.8 30.0 Q-44.0 32.6 -44.55 35.0 L-44.75 36.5 Q-44.75 38.35 -45.5 40.0 -47.25 43.75 -50.0 47.0 -47.25 43.75 -45.5 40.0 -44.75 38.35 -44.75 36.5 L-44.55 35.0 Q-44.0 32.6 -43.8 30.0 L-43.55 28.5 Q-43.0 26.35 -42.95 24.0 -42.7 14.25 -43.8 5.0 L-44.2 2.0 Q-44.8 -2.85 -44.45 -8.0 -43.75 -17.75 -42.45 -27.5 -41.45 -35.1 -39.0 -42.5" fill="url(#gradient0)" fill-rule="evenodd" stroke="none"/>
      <path d="M-9.5 -56.0 Q-10.7 -51.8 -8.45 -48.05 L-7.25 -45.9 1.1 -42.5 6.1 -40.3 6.65 -40.05 Q8.3 -39.2 9.65 -37.85 11.95 -35.6 12.35 -32.3 L12.95 -27.7 14.0 -20.5 17.0 -29.0 Q18.0 -19.05 16.4 -9.3 15.55 -4.0 15.05 1.3 14.65 5.9 13.0 10.0 19.75 1.9 21.0 -8.7 L21.75 -14.4 Q22.3 -18.1 24.15 -21.55 25.65 -24.35 28.7 -25.65 L29.55 -26.0 Q33.25 -23.05 33.25 -18.5 33.25 -12.0 31.2 -6.15 30.8 -4.9 29.8 -3.8 28.95 -2.85 28.55 -1.7 L24.85 9.35 Q23.3 14.2 21.05 18.8 17.8 25.5 15.35 32.4 12.6 40.15 8.2 47.25 L5.45 51.45 Q2.55 55.7 0.8 60.7 3.5 60.9 5.55 59.3 7.0 58.15 7.85 56.65 L8.5 55.55 Q7.4 60.3 3.95 63.8 L1.95 66.0 -0.95 69.75 -3.0 73.05 Q2.55 71.1 7.0 66.95 L10.45 63.95 Q10.75 65.85 9.35 68.95 7.9 72.0 5.6 74.5 1.7 78.8 0.2 84.4 7.45 80.65 13.45 75.25 16.3 72.75 18.0 69.55 18.4 73.3 16.9 76.7 L12.2 87.0 8.0 95.55 Q18.05 91.2 24.25 82.05 27.35 77.45 29.0 72.05 28.55 87.1 23.0 101.05 34.9 90.15 43.55 76.2 45.85 72.5 46.0 68.05 L54.25 88.2 Q59.0 78.15 55.5 67.4 53.95 62.7 51.65 58.0 49.95 54.55 48.8 50.9 43.85 35.5 45.2 19.25 46.2 7.15 46.15 -5.2 L46.1 -21.05 Q46.05 -29.7 43.9 -36.45 41.65 -43.15 38.65 -49.05 35.65 -55.0 30.9 -60.55 26.1 -66.1 23.25 -67.65 20.35 -69.25 16.3 -70.45 12.2 -71.75 5.6 -71.55 -1.05 -71.35 -6.5 -70.0 M-5.5 -71.0 Q-19.75 -71.0 -26.15 -67.75 -32.55 -64.5 -36.95 -58.9 -41.35 -53.35 -44.9 -28.8 -48.45 -4.25 -46.65 9.25 -44.9 22.7 -46.35 31.2 -47.85 39.65 -53.5 49.55 -50.65 49.55 -49.2 51.55 L-41.45 52.2 Q-33.9 53.05 -29.2 51.15 -24.5 49.3 -19.2 47.6 L-17.85 35.1 Q-23.15 34.45 -25.4 29.65 -26.7 26.9 -28.2 24.35 -31.8 18.05 -32.75 10.85 -33.3 10.25 -33.45 9.15 -34.1 4.85 -35.5 1.0 -37.85 -5.55 -37.5 -12.5 M-36.5 -13.5 L-37.35 -18.05 Q-38.45 -24.8 -37.5 -31.85 M-36.5 -13.5 Q-36.55 -22.55 -34.2 -31.2 L-32.5 -37.0 -32.0 -26.35 -30.8 -31.5 Q-28.2 -40.75 -20.85 -46.9 L-20.35 -47.3 Q-19.0 -48.4 -17.5 -49.25 L-16.05 -50.05 Q-11.75 -51.95 -10.05 -56.3" fill="none" stroke="#000000" stroke-linecap="round" stroke-linejoin="round" stroke-width="2.0"/>
      <path d="M-37.5 -31.85 L-37.0 -27.5" fill="none" stroke="#bcb1eb" stroke-linecap="round" stroke-linejoin="round" stroke-opacity="0.4509804" stroke-width="1.5"/>
      <path d="M26.5 -49.0 Q31.95 -47.5 34.05 -42.3 35.75 -38.25 37.0 -34.0 L38.5 -29.0 M18.5 -50.5 Q20.5 -49.0 21.95 -47.1 24.5 -43.75 26.1 -39.85 27.5 -36.5 28.35 -32.95 L29.0 -29.5 M5.5 55.0 Q5.65 52.25 7.3 50.35 L8.7 48.65 9.4 47.9 Q12.35 45.45 13.5 42.5 13.95 41.3 14.75 40.3 L15.2 39.6 16.4 37.45 17.35 35.45 Q17.7 34.3 18.75 33.25 L19.9 31.45 26.95 14.0 28.1 10.55 Q28.5 9.1 29.3 7.85 L30.7 5.6 Q32.0 3.4 32.2 1.0 32.4 -0.8 32.9 -2.55 35.7 -11.7 35.25 -21.5 L35.1 -22.55 34.2 -25.4 33.5 -26.5 M-6.5 -61.0 Q-8.25 -55.75 -5.3 -51.65 -3.8 -49.55 -1.6 -48.35 L-0.4 -47.7 1.6 -46.65 2.95 -45.9 5.1 -44.65 Q6.0 -44.0 7.0 -43.45 L10.35 -41.3 11.65 -40.15 Q13.65 -38.2 14.6 -35.55 15.85 -31.9 16.0 -28.0 M0.0 -54.5 Q7.7 -52.7 11.5 -45.5 L15.6 -37.05 Q19.4 -28.8 19.65 -19.5 19.85 -13.7 19.1 -8.0 18.85 -6.0 18.0 -4.5 M53.5 78.0 Q48.55 72.2 46.65 64.6 L45.7 61.45 Q44.25 57.0 43.25 52.45 L42.4 48.0 Q40.85 39.05 40.3 30.0 39.8 21.5 39.65 13.0 L39.5 -5.0 39.5 -20.5 M13.0 -50.5 Q17.45 -47.55 19.0 -42.5 21.4 -34.85 22.5 -27.0 M-36.0 -27.0 Q-37.9 -32.6 -36.8 -38.55 -36.5 -40.25 -36.35 -42.0 -35.75 -47.85 -33.0 -53.0 L-28.5 -61.0 M-39.5 -45.5 Q-38.05 -51.5 -34.35 -56.4 -33.55 -57.4 -32.5 -58.0 M-50.0 47.0 Q-47.25 43.75 -45.5 40.0 -44.75 38.35 -44.75 36.5 L-44.55 35.0 Q-44.0 32.6 -43.8 30.0 L-43.55 28.5 Q-43.0 26.35 -42.95 24.0 -42.7 14.25 -43.8 5.0 L-44.2 2.0 Q-44.8 -2.85 -44.45 -8.0 -43.75 -17.75 -42.45 -27.5 -41.45 -35.1 -39.0 -42.5 M-38.0 -1.0 Q-36.25 5.6 -35.85 12.5 -35.55 18.0 -35.65 23.5 -35.85 32.4 -37.8 41.05 L-38.5 45.0 M-29.0 28.5 Q-27.55 34.75 -30.4 40.55 L-31.0 42.0 M30.5 85.0 Q32.4 81.5 32.5 77.5 32.5 75.75 32.85 73.95 34.2 67.0 34.6 60.0 L34.95 55.5 36.45 37.5 Q37.1 30.0 37.35 22.5 L37.5 13.5 M4.0 66.5 Q8.95 62.25 12.15 56.6 L12.85 55.4 Q17.9 47.05 21.45 38.0 23.35 33.05 25.7 28.35 L28.05 23.0 Q31.1 15.2 34.5 7.5 M31.0 30.0 L31.9 27.45 32.5 25.0 M15.5 83.0 Q18.9 76.9 20.75 70.05 21.5 67.25 22.6 64.55 25.75 56.75 27.5 48.5 L30.5 35.5 M4.0 80.5 Q8.4 75.6 11.25 69.6 L13.3 65.4 Q17.15 57.85 20.35 49.95 23.75 41.65 26.0 33.0" fill="none" stroke="#3a01d3" stroke-linecap="round" stroke-linejoin="round" stroke-width="1.5"/>
      <path d="M-8.0 -59.5 Q-9.5 -60.95 -8.25 -62.25 -7.25 -63.25 -5.9 -63.7 L-4.05 -64.2 Q-2.95 -64.45 -2.5 -65.5 L-2.0 -66.5 Q-2.5 -67.5 -4.5 -67.15 L-6.0 -67.0 Q-6.25 -67.95 -5.55 -68.55 L-5.0 -69.0" fill="none" stroke="#1c0165" stroke-linecap="round" stroke-linejoin="round" stroke-width="1.5"/>
    </g>
    </g>
  </g>
  <defs>
    <radialGradient cx="0" cy="0" gradientTransform="matrix(-0.0041, 0.0719, -0.1251, -0.0071, -2.0, -60.0)" gradientUnits="userSpaceOnUse" id="gradient0" r="819.2" spreadMethod="pad">
      <stop offset="0.0" stop-color="#330099"/>
      <stop offset="0.3843137254901961" stop-color="#6948c1"/>
      <stop offset="0.5372549019607843" stop-color="#bcb1eb"/>
      <stop offset="0.6862745098039216" stop-color="#6543c0"/>
      <stop offset="1.0" stop-color="#330099"/>
    </radialGradient>
  </defs>
</svg>