<svg xmlns:xlink="http://www.w3.org/1999/xlink" xmlns="http://www.w3.org/2000/svg" height="202.2px" width="161.9px">
  <g transform="matrix(1.0, 0.0, 0.0, 1.0, 74.15, 81.7)">
    <g data-characterId="1430" height="173.65" transform="matrix(1.0, 0.0, 0.0, 1.0, -54.0, -72.1)" width="111.5" xlink:href="#shape0"><g id="shape0" transform="matrix(1.0, 0.0, 0.0, 1.0, 54.0, 72.1)">
      <path d="M-6.5 -70.0 Q-1.05 -71.35 5.6 -71.55 12.2 -71.75 16.3 -70.45 20.35 -69.25 23.25 -67.65 26.1 -66.1 30.9 -60.55 35.65 -55.0 38.65 -49.05 41.65 -43.15 43.9 -36.45 46.05 -29.7 46.1 -21.05 L46.15 -5.2 Q46.2 7.15 45.2 19.25 43.85 35.5 48.8 50.9 49.95 54.55 51.65 58.0 53.95 62.7 55.5 67.4 59.0 78.15 54.25 88.2 L46.0 68.05 Q45.85 72.5 43.55 76.2 34.9 90.15 23.0 101.05 28.55 87.1 29.0 72.05 27.35 77.45 24.25 82.05 18.05 91.2 8.0 95.55 L12.2 87.0 16.9 76.7 Q18.4 73.3 18.0 69.55 16.3 72.75 13.45 75.25 7.45 80.65 0.2 84.4 1.7 78.8 5.6 74.5 7.9 72.0 9.35 68.95 10.75 65.85 10.45 63.95 L7.0 66.95 Q2.55 71.1 -3.0 73.05 L-0.95 69.75 Q1.25 66.55 3.95 63.8 7.4 60.3 8.5 55.55 L7.85 56.65 Q7.0 58.15 5.55 59.3 3.5 60.9 0.8 60.7 2.55 55.7 5.45 51.45 L8.2 47.25 Q12.6 40.15 15.35 32.4 17.8 25.5 21.05 18.8 23.3 14.2 24.85 9.35 L28.55 -1.7 Q28.95 -2.85 29.8 -3.8 30.8 -4.9 31.2 -6.15 33.25 -12.0 33.25 -18.5 33.25 -23.05 29.55 -26.0 L28.7 -25.65 Q25.65 -24.35 24.15 -21.55 22.3 -18.1 21.75 -14.4 L21.0 -8.7 Q19.75 1.9 13.0 10.0 14.65 5.9 15.05 1.3 15.55 -4.0 16.4 -9.3 18.0 -19.05 17.0 -29.0 L14.0 -20.5 12.95 -27.7 12.35 -32.3 Q11.95 -35.6 9.65 -37.85 8.3 -39.2 6.65 -40.05 L6.1 -40.3 5.5 -41.55 6.1 -40.3 1.1 -42.5 0.5 -44.05 1.1 -42.5 -7.25 -45.9 -8.45 -48.05 Q-10.7 -51.8 -9.5 -56.0 L-10.05 -56.3 Q-11.75 -51.95 -16.05 -50.05 L-17.5 -49.25 -16.4 -50.9 -15.5 -52.0 -16.4 -50.9 -17.5 -49.25 Q-19.0 -48.4 -20.35 -47.3 L-20.85 -46.9 -20.3 -47.9 -18.1 -51.55 -17.0 -53.5 -18.1 -51.55 -20.3 -47.9 -20.85 -46.9 Q-28.2 -40.75 -30.8 -31.5 L-32.25 -31.4 -32.5 -37.0 -34.2 -31.2 Q-36.55 -22.55 -36.5 -13.5 L-37.5 -12.5 Q-37.85 -5.55 -35.5 1.0 -34.1 4.85 -33.45 9.15 -33.3 10.25 -32.5 10.85 -31.8 18.05 -28.2 24.35 -26.7 26.9 -25.4 29.65 -23.15 34.45 -17.85 35.1 L-19.2 47.6 Q-24.5 49.3 -29.2 51.15 -33.9 53.05 -41.45 52.2 L-49.2 51.55 Q-50.65 49.55 -53.5 49.55 -47.85 39.65 -46.35 31.2 -44.9 22.7 -46.65 9.25 -48.45 -4.25 -44.9 -28.8 -41.35 -53.35 -36.95 -58.9 -32.55 -64.5 -26.15 -67.75 -19.75 -71.0 -5.5 -71.0 L-6.5 -70.0 M-37.5 -32.0 Q-38.45 -24.9 -37.35 -18.05 L-36.5 -13.5 -37.35 -18.05 Q-38.45 -24.9 -37.5 -32.0" fill="url(#gradient0)" fill-rule="evenodd" stroke="none"/>
      <path d="M6.1 -40.3 L6.65 -40.05 Q8.3 -39.2 9.65 -37.85 11.95 -35.6 12.35 -32.3 L12.95 -27.7 14.0 -20.5 17.0 -29.0 Q18.0 -19.05 16.4 -9.3 15.55 -4.0 15.05 1.3 14.65 5.9 13.0 10.0 19.75 1.9 21.0 -8.7 L21.75 -14.4 Q22.3 -18.1 24.15 -21.55 25.65 -24.35 28.7 -25.65 L29.55 -26.0 Q33.25 -23.05 33.25 -18.5 33.25 -12.0 31.2 -6.15 30.8 -4.9 29.8 -3.8 28.95 -2.85 28.55 -1.7 L24.85 9.35 Q23.3 14.2 21.05 18.8 17.8 25.5 15.35 32.4 12.6 40.15 8.2 47.25 L5.45 51.45 Q2.55 55.7 0.8 60.7 3.5 60.9 5.55 59.3 7.0 58.15 7.85 56.65 L8.5 55.55 Q7.4 60.3 3.95 63.8 1.25 66.55 -0.95 69.75 L-3.0 73.05 Q2.55 71.1 7.0 66.95 L10.45 63.95 Q10.75 65.85 9.35 68.95 7.9 72.0 5.6 74.5 1.7 78.8 0.2 84.4 7.45 80.65 13.45 75.25 16.3 72.75 18.0 69.55 18.4 73.3 16.9 76.7 L12.2 87.0 8.0 95.55 Q18.05 91.2 24.25 82.05 27.35 77.45 29.0 72.05 28.55 87.1 23.0 101.05 34.9 90.15 43.55 76.2 45.85 72.5 46.0 68.05 L54.25 88.2 Q59.0 78.15 55.5 67.4 53.95 62.7 51.65 58.0 49.95 54.55 48.8 50.9 43.85 35.5 45.2 19.25 46.2 7.15 46.15 -5.2 L46.1 -21.05 Q46.05 -29.7 43.9 -36.45 41.65 -43.15 38.65 -49.05 35.65 -55.0 30.9 -60.55 26.1 -66.1 23.25 -67.65 20.35 -69.25 16.3 -70.45 12.2 -71.75 5.6 -71.55 -1.05 -71.35 -6.5 -70.0 M-5.5 -71.0 Q-19.75 -71.0 -26.15 -67.75 -32.55 -64.5 -36.95 -58.9 -41.35 -53.35 -44.9 -28.8 -48.45 -4.25 -46.65 9.25 -44.9 22.7 -46.35 31.2 -47.85 39.65 -53.5 49.55 -50.65 49.55 -49.2 51.55 L-41.45 52.2 Q-33.9 53.05 -29.2 51.15 -24.5 49.3 -19.2 47.6 L-17.85 35.1 Q-23.15 34.45 -25.4 29.65 -26.7 26.9 -28.2 24.35 -31.8 18.05 -32.5 10.85 -33.3 10.25 -33.45 9.15 -34.1 4.85 -35.5 1.0 -37.85 -5.55 -37.5 -12.5 M-36.5 -13.5 L-37.35 -18.05 Q-38.45 -24.9 -37.5 -32.0 M1.1 -42.5 L6.1 -40.3 M-17.5 -49.25 L-16.05 -50.05 Q-11.75 -51.95 -10.05 -56.3 M-9.5 -56.0 Q-10.7 -51.8 -8.45 -48.05 L-7.25 -45.9 1.1 -42.5 M-20.85 -46.9 L-20.35 -47.3 Q-19.0 -48.4 -17.5 -49.25 M-30.8 -31.5 L-32.0 -26.35 -32.25 -31.4 -32.5 -37.0 -34.2 -31.2 Q-36.55 -22.55 -36.5 -13.5 M-30.8 -31.5 Q-28.2 -40.75 -20.85 -46.9" fill="none" stroke="#000000" stroke-linecap="round" stroke-linejoin="round" stroke-width="2.0"/>
      <path d="M1.1 -42.5 Q1.7 -40.6 1.5 -38.55 L1.5 -38.05 M6.1 -40.3 L5.5 -41.55 M0.5 -44.05 L1.1 -42.5 M6.1 -40.3 Q8.8 -34.3 8.05 -27.05 L8.0 -25.55 M-17.5 -49.25 L-16.4 -50.9 -15.5 -52.0 M-20.85 -46.9 L-20.3 -47.9 -18.1 -51.55 -17.0 -53.5 M-17.5 -49.25 L-18.7 -47.65 Q-20.4 -45.3 -19.0 -42.5 M-20.85 -46.9 L-22.5 -43.5 Q-26.05 -35.35 -26.0 -26.5" fill="none" stroke="#5b3f3c" stroke-linecap="round" stroke-linejoin="round" stroke-width="2.0"/>
    </g>
    </g>
  </g>
  <defs>
    <radialGradient cx="0" cy="0" gradientTransform="matrix(-0.0041, 0.0719, -0.1251, -0.0071, -2.0, -60.0)" gradientUnits="userSpaceOnUse" id="gradient0" r="819.2" spreadMethod="pad">
      <stop offset="0.0" stop-color="#5b3f3c"/>
      <stop offset="0.3843137254901961" stop-color="#a06a63"/>
      <stop offset="0.5372549019607843" stop-color="#ecc6aa"/>
      <stop offset="0.6862745098039216" stop-color="#b1684e"/>
      <stop offset="1.0" stop-color="#58453f"/>
    </radialGradient>
  </defs>
</svg>