<?xml version="1.0" encoding="UTF-8" standalone="no"?>
<svg xmlns:xlink="http://www.w3.org/1999/xlink" height="5.4px" width="19.1px" xmlns="http://www.w3.org/2000/svg">
  <g transform="matrix(1.0, 0.0, 0.0, 1.0, 10.75, 2.15)">
    <path d="M7.85 -0.65 L7.2 0.25 Q-2.05 4.25 -6.35 2.9 -10.7 1.5 -9.95 1.1 L-10.25 -0.05 -6.75 -2.05 -4.7 -1.75 -3.3 -2.15 -1.4 -1.6 2.05 -1.05 5.15 -0.65 Q6.0 -0.5 7.85 -0.65 L4.75 0.3 Q3.3 0.6 0.8 0.3 -1.7 -0.05 -3.2 0.25 L-5.15 0.45 -7.0 -0.2 -10.25 -0.05 -7.0 -0.2 -5.15 0.45 -3.2 0.25 Q-1.7 -0.05 0.8 0.3 3.3 0.6 4.75 0.3 L7.85 -0.65" fill="#e6b380" fill-rule="evenodd" stroke="none"/>
    <path d="M7.85 -0.65 L4.75 0.3 Q3.3 0.6 0.8 0.3 -1.7 -0.05 -3.2 0.25 L-5.15 0.45 -7.0 -0.2 -10.25 -0.05" fill="none" stroke="#000000" stroke-linecap="round" stroke-linejoin="round" stroke-width="1.0"/>
  </g>
</svg>
