<?xml version="1.0" encoding="UTF-8" standalone="no"?>
<svg xmlns:xlink="http://www.w3.org/1999/xlink" height="40.6px" width="40.6px" xmlns="http://www.w3.org/2000/svg">
  <g transform="matrix(1.0, 0.0, 0.0, 1.0, 0.0, 0.0)">
    <path d="M-4.0 -14.55 L-4.0 -20.0 4.0 -20.0 4.0 -14.5 -0.05 -15.05 -4.0 -14.55 M7.4 -13.1 L11.25 -16.95 16.9 -11.3 13.05 -7.45 Q12.05 -9.15 10.55 -10.65 L7.4 -13.1 M14.45 -4.0 L20.0 -4.0 20.0 4.0 14.45 4.0 Q14.95 2.1 14.95 -0.05 14.95 -2.1 14.45 -4.0 M13.0 7.4 L16.95 11.35 11.3 17.0 7.35 13.05 10.55 10.55 13.0 7.4 M4.0 14.45 L4.0 20.0 -4.0 20.0 -4.0 14.45 -0.05 14.95 4.0 14.45 M-7.45 13.05 L-11.35 16.95 -17.0 11.3 -13.1 7.4 -10.65 10.55 Q-9.15 12.05 -7.45 13.05 M-14.5 4.0 L-20.0 4.0 -20.0 -4.0 -14.55 -4.0 Q-15.05 -2.1 -15.05 -0.05 -15.05 2.1 -14.5 4.0 M-13.15 -7.45 L-16.95 -11.25 -11.3 -16.9 -7.5 -13.1 -10.65 -10.65 -13.15 -7.45 M1.75 -1.75 Q2.5 -1.0 2.5 0.0 2.5 1.05 1.75 1.8 1.0 2.5 0.0 2.5 -1.05 2.5 -1.8 1.8 -2.5 1.05 -2.5 0.0 -2.5 -1.0 -1.8 -1.75 -1.05 -2.5 0.0 -2.5 1.0 -2.5 1.75 -1.75" fill="#735f31" fill-rule="evenodd" stroke="none"/>
    <path d="M4.0 -14.5 Q5.8 -14.05 7.4 -13.1 L10.55 -10.65 Q12.05 -9.15 13.05 -7.45 14.0 -5.8 14.45 -4.0 14.95 -2.1 14.95 -0.05 14.95 2.1 14.45 4.0 L13.0 7.4 10.55 10.55 7.35 13.05 Q5.75 13.95 4.0 14.45 L-0.05 14.95 -4.0 14.45 Q-5.8 14.0 -7.45 13.05 -9.15 12.05 -10.65 10.55 L-13.1 7.4 Q-14.05 5.8 -14.5 4.0 -15.05 2.1 -15.05 -0.05 -15.05 -2.1 -14.55 -4.0 -14.1 -5.8 -13.15 -7.45 L-10.65 -10.65 -7.5 -13.1 Q-5.85 -14.05 -4.0 -14.55 L-0.05 -15.05 4.0 -14.5 M9.2 -9.25 Q5.4 -13.0 0.0 -13.0 -5.4 -13.0 -9.2 -9.25 -13.0 -5.4 -13.0 0.0 -13.0 4.5 -10.35 7.85 L-9.45 8.9 -9.2 9.15 Q-5.4 13.0 0.0 13.0 5.4 13.0 9.2 9.15 13.0 5.4 13.0 0.0 13.0 -5.4 9.2 -9.25" fill="#957a40" fill-rule="evenodd" stroke="none"/>
    <path d="M1.75 -1.75 Q1.0 -2.5 0.0 -2.5 -1.05 -2.5 -1.8 -1.75 -2.5 -1.0 -2.5 0.0 -2.5 1.05 -1.8 1.8 -1.05 2.5 0.0 2.5 1.0 2.5 1.75 1.8 2.5 1.05 2.5 0.0 2.5 -1.0 1.75 -1.75 M4.5 -5.75 L3.45 -6.8 5.75 -9.75 3.45 -6.8 4.5 -5.75 M4.25 -10.5 L2.2 -8.05 0.75 -9.5 2.2 -8.05 4.25 -10.5 M1.25 -7.0 L2.2 -8.05 3.45 -6.8 2.25 -5.25 3.45 -6.8 2.2 -8.05 1.25 -7.0 M9.2 -9.25 Q13.0 -5.4 13.0 0.0 13.0 5.4 9.2 9.15 5.4 13.0 0.0 13.0 -5.4 13.0 -9.2 9.15 L-9.45 8.9 -10.35 7.85 Q-13.0 4.5 -13.0 0.0 -13.0 -5.4 -9.2 -9.25 -5.4 -13.0 0.0 -13.0 5.4 -13.0 9.2 -9.25 M-8.5 7.75 L-9.45 8.9 -8.5 7.75 M-8.25 5.75 L-10.35 7.85 -8.25 5.75" fill="#625537" fill-rule="evenodd" stroke="none"/>
    <path d="M-4.0 -14.55 L-4.0 -20.0 4.0 -20.0 4.0 -14.5 Q5.8 -14.05 7.4 -13.1 L11.25 -16.95 16.9 -11.3 13.05 -7.45 Q14.0 -5.8 14.45 -4.0 L20.0 -4.0 20.0 4.0 14.45 4.0 13.0 7.4 16.95 11.35 11.3 17.0 7.35 13.05 Q5.75 13.95 4.0 14.45 L4.0 20.0 -4.0 20.0 -4.0 14.45 Q-5.8 14.0 -7.45 13.05 L-11.35 16.95 -17.0 11.3 -13.1 7.4 Q-14.05 5.8 -14.5 4.0 L-20.0 4.0 -20.0 -4.0 -14.55 -4.0 Q-14.1 -5.8 -13.15 -7.45 L-16.95 -11.25 -11.3 -16.9 -7.5 -13.1 Q-5.85 -14.05 -4.0 -14.55 L-0.05 -15.05 4.0 -14.5 M1.75 -1.75 Q2.5 -1.0 2.5 0.0 2.5 1.05 1.75 1.8 1.0 2.5 0.0 2.5 -1.05 2.5 -1.8 1.8 -2.5 1.05 -2.5 0.0 -2.5 -1.0 -1.8 -1.75 -1.05 -2.5 0.0 -2.5 1.0 -2.5 1.75 -1.75 M14.45 -4.0 Q14.95 -2.1 14.95 -0.05 14.95 2.1 14.45 4.0 M7.4 -13.1 L10.55 -10.65 Q12.05 -9.15 13.05 -7.45 M9.2 -9.25 Q13.0 -5.4 13.0 0.0 13.0 5.4 9.2 9.15 5.4 13.0 0.0 13.0 -5.4 13.0 -9.2 9.15 L-9.45 8.9 -10.35 7.85 Q-13.0 4.5 -13.0 0.0 -13.0 -5.4 -9.2 -9.25 -5.4 -13.0 0.0 -13.0 5.4 -13.0 9.2 -9.25 M13.0 7.4 L10.55 10.55 7.35 13.05 M-13.15 -7.45 L-10.65 -10.65 -7.5 -13.1 M-14.5 4.0 Q-15.05 2.1 -15.05 -0.05 -15.05 -2.1 -14.55 -4.0 M-9.45 8.9 L-8.5 7.75 M-7.45 13.05 Q-9.15 12.05 -10.65 10.55 L-13.1 7.4 M4.0 14.45 L-0.05 14.95 -4.0 14.45 M-10.35 7.85 L-8.25 5.75" fill="none" stroke="#000000" stroke-linecap="round" stroke-linejoin="round" stroke-width="0.6000000000000001"/>
    <path d="M2.25 -5.25 L3.45 -6.8 2.2 -8.05 1.25 -7.0 M0.75 -9.5 L2.2 -8.05 4.25 -10.5 M5.75 -9.75 L3.45 -6.8 4.5 -5.75" fill="none" stroke="#000000" stroke-linecap="round" stroke-linejoin="round" stroke-width="0.05"/>
  </g>
</svg>
