<?xml version="1.0" encoding="UTF-8" standalone="no"?>
<svg xmlns:xlink="http://www.w3.org/1999/xlink" height="50.0px" width="50.0px" xmlns="http://www.w3.org/2000/svg">
  <g transform="matrix(1.0, 0.0, 0.0, 1.0, 0.0, 0.0)">
    <path d="M17.7 -17.65 Q25.0 -10.35 25.0 0.0 25.0 10.35 17.7 17.7 10.35 25.0 0.0 25.0 -10.35 25.0 -17.65 17.7 -25.0 10.35 -25.0 0.0 -25.0 -10.35 -17.65 -17.65 -10.35 -25.0 0.0 -25.0 10.35 -25.0 17.7 -17.65" fill="url(#gradient0)" fill-rule="evenodd" stroke="none"/>
    <path d="M17.7 -17.65 Q25.0 -10.35 25.0 0.0 25.0 10.35 17.7 17.7 10.35 25.0 0.0 25.0 -10.35 25.0 -17.65 17.7 -25.0 10.35 -25.0 0.0 -25.0 -10.35 -17.65 -17.65 -10.35 -25.0 0.0 -25.0 10.35 -25.0 17.7 -17.65 Z" fill="none" stroke="#ffff99" stroke-linecap="round" stroke-linejoin="round" stroke-width="0.05"/>
    <path d="M18.85 -0.3 Q24.2 6.5 19.2 11.75 14.15 17.0 7.4 17.0 0.7 17.0 -4.05 11.9 -8.75 6.9 -8.75 -0.3 -8.75 -7.45 -4.05 -12.5 0.7 -17.55 7.7 -17.75 14.65 -17.9 19.6 -11.75 24.6 -5.55 18.85 -0.3" fill="url(#gradient1)" fill-rule="evenodd" stroke="none"/>
    <path d="M18.85 -0.3 Q24.2 6.5 19.2 11.75 14.15 17.0 7.4 17.0 0.7 17.0 -4.05 11.9 -8.75 6.9 -8.75 -0.3 -8.75 -7.45 -4.05 -12.5 0.7 -17.55 7.7 -17.75 14.65 -17.9 19.6 -11.75 24.6 -5.55 18.85 -0.3 Z" fill="none" stroke="#ffff99" stroke-linecap="round" stroke-linejoin="round" stroke-width="0.05"/>
    <path d="M-15.25 -7.5 Q-12.55 -7.5 -10.65 -5.5 -8.75 -3.45 -8.75 -0.6 -8.75 2.25 -10.65 4.25 -12.55 6.3 -15.25 6.3 -17.9 6.3 -19.8 4.25 -21.7 2.25 -21.7 -0.6 -21.7 -3.45 -19.8 -5.5 -17.9 -7.5 -15.25 -7.5" fill="url(#gradient2)" fill-rule="evenodd" stroke="none"/>
    <path d="M-15.25 -7.5 Q-12.55 -7.5 -10.65 -5.5 -8.75 -3.45 -8.75 -0.6 -8.75 2.25 -10.65 4.25 -12.55 6.3 -15.25 6.3 -17.9 6.3 -19.8 4.25 -21.7 2.25 -21.7 -0.6 -21.7 -3.45 -19.8 -5.5 -17.9 -7.5 -15.25 -7.5 Z" fill="none" stroke="#ffff99" stroke-linecap="round" stroke-linejoin="round" stroke-width="0.05"/>
    <path d="M-23.4 -1.8 Q-22.75 -1.8 -22.3 -1.3 -21.85 -0.85 -21.85 -0.15 -21.85 0.55 -22.3 1.05 -22.75 1.55 -23.4 1.55 -24.05 1.55 -24.5 1.05 -24.95 0.55 -24.95 -0.15 -24.95 -0.85 -24.5 -1.3 -24.05 -1.8 -23.4 -1.8" fill="url(#gradient3)" fill-rule="evenodd" stroke="none"/>
    <path d="M-23.4 -1.8 Q-22.75 -1.8 -22.3 -1.3 -21.85 -0.85 -21.85 -0.15 -21.85 0.55 -22.3 1.05 -22.75 1.55 -23.4 1.55 -24.05 1.55 -24.5 1.05 -24.95 0.55 -24.95 -0.15 -24.95 -0.85 -24.5 -1.3 -24.05 -1.8 -23.4 -1.8 Z" fill="none" stroke="#ffff99" stroke-linecap="round" stroke-linejoin="round" stroke-width="0.05"/>
    <path d="M10.65 -20.3 Q10.65 -19.25 9.85 -18.55 9.1 -17.8 8.0 -17.8 6.9 -17.8 6.1 -18.55 5.3 -19.25 5.3 -20.3 5.3 -21.35 6.1 -22.05 6.9 -22.8 8.0 -22.8 9.1 -22.8 9.85 -22.05 10.65 -21.35 10.65 -20.3" fill="url(#gradient4)" fill-rule="evenodd" stroke="none"/>
    <path d="M10.65 -20.3 Q10.65 -19.25 9.85 -18.55 9.1 -17.8 8.0 -17.8 6.9 -17.8 6.1 -18.55 5.3 -19.25 5.3 -20.3 5.3 -21.35 6.1 -22.05 6.9 -22.8 8.0 -22.8 9.1 -22.8 9.85 -22.05 10.65 -21.35 10.65 -20.3 Z" fill="none" stroke="#ffff99" stroke-linecap="round" stroke-linejoin="round" stroke-width="0.05"/>
    <path d="M8.45 -23.3 L8.25 -22.9 Q8.1 -22.7 7.8 -22.7 L7.35 -22.9 7.15 -23.3 7.35 -23.75 7.8 -23.9 8.25 -23.75 8.45 -23.3" fill="url(#gradient5)" fill-rule="evenodd" stroke="none"/>
    <path d="M8.45 -23.3 L8.25 -22.9 Q8.1 -22.7 7.8 -22.7 L7.35 -22.9 7.15 -23.3 7.35 -23.75 7.8 -23.9 8.25 -23.75 8.45 -23.3 Z" fill="none" stroke="#ffff99" stroke-linecap="round" stroke-linejoin="round" stroke-width="0.05"/>
    <path d="M10.65 19.75 Q10.65 18.7 9.85 18.0 9.1 17.25 8.0 17.25 6.9 17.25 6.1 18.0 5.3 18.7 5.3 19.75 5.3 20.8 6.1 21.5 6.9 22.25 8.0 22.25 9.1 22.25 9.85 21.5 10.65 20.8 10.65 19.75" fill="url(#gradient6)" fill-rule="evenodd" stroke="none"/>
    <path d="M10.65 19.75 Q10.65 18.7 9.85 18.0 9.1 17.25 8.0 17.25 6.9 17.25 6.1 18.0 5.3 18.7 5.3 19.75 5.3 20.8 6.1 21.5 6.9 22.25 8.0 22.25 9.1 22.25 9.85 21.5 10.65 20.8 10.65 19.75 Z" fill="none" stroke="#ffff99" stroke-linecap="round" stroke-linejoin="round" stroke-width="0.05"/>
    <path d="M8.45 22.85 L8.25 22.45 Q8.1 22.25 7.8 22.25 L7.35 22.45 7.15 22.85 7.35 23.3 7.8 23.45 8.25 23.3 8.45 22.85" fill="url(#gradient7)" fill-rule="evenodd" stroke="none"/>
    <path d="M8.45 22.85 L8.25 22.45 Q8.1 22.25 7.8 22.25 L7.35 22.45 7.15 22.85 7.35 23.3 7.8 23.45 8.25 23.3 8.45 22.85 Z" fill="none" stroke="#ffff99" stroke-linecap="round" stroke-linejoin="round" stroke-width="0.05"/>
    <path d="M-1.1 14.8 Q-1.1 14.4 -1.4 14.1 -1.7 13.8 -2.15 13.8 -2.6 13.8 -2.9 14.1 L-3.25 14.8 Q-3.25 15.25 -2.9 15.55 -2.6 15.85 -2.15 15.85 L-1.4 15.55 Q-1.1 15.25 -1.1 14.8" fill="url(#gradient8)" fill-rule="evenodd" stroke="none"/>
    <path d="M-1.1 14.8 Q-1.1 14.4 -1.4 14.1 -1.7 13.8 -2.15 13.8 -2.6 13.8 -2.9 14.1 L-3.25 14.8 Q-3.25 15.25 -2.9 15.55 -2.6 15.85 -2.15 15.85 L-1.4 15.55 Q-1.1 15.25 -1.1 14.8 Z" fill="none" stroke="#ffff99" stroke-linecap="round" stroke-linejoin="round" stroke-width="0.05"/>
    <path d="M-1.1 -15.55 Q-1.1 -15.95 -1.4 -16.25 L-2.15 -16.55 -2.9 -16.25 -3.25 -15.55 Q-3.25 -15.1 -2.9 -14.8 -2.6 -14.5 -2.15 -14.5 -1.7 -14.5 -1.4 -14.8 -1.1 -15.1 -1.1 -15.55" fill="url(#gradient9)" fill-rule="evenodd" stroke="none"/>
    <path d="M-1.1 -15.55 Q-1.1 -15.95 -1.4 -16.25 L-2.15 -16.55 -2.9 -16.25 -3.25 -15.55 Q-3.25 -15.1 -2.9 -14.8 -2.6 -14.5 -2.15 -14.5 -1.7 -14.5 -1.4 -14.8 -1.1 -15.1 -1.1 -15.55 Z" fill="none" stroke="#ffff99" stroke-linecap="round" stroke-linejoin="round" stroke-width="0.05"/>
    <path d="M20.0 -14.65 L19.7 -15.35 18.95 -15.65 Q18.5 -15.65 18.2 -15.35 17.85 -15.05 17.85 -14.65 17.85 -14.2 18.2 -13.9 18.5 -13.6 18.95 -13.6 19.4 -13.6 19.7 -13.9 L20.0 -14.65" fill="url(#gradient10)" fill-rule="evenodd" stroke="none"/>
    <path d="M20.0 -14.65 L19.7 -15.35 18.95 -15.65 Q18.5 -15.65 18.2 -15.35 17.85 -15.05 17.85 -14.65 17.85 -14.2 18.2 -13.9 18.5 -13.6 18.95 -13.6 19.4 -13.6 19.7 -13.9 L20.0 -14.65 Z" fill="none" stroke="#ffff99" stroke-linecap="round" stroke-linejoin="round" stroke-width="0.05"/>
    <path d="M20.0 14.0 L19.7 13.3 18.95 13.0 Q18.5 13.0 18.2 13.3 17.85 13.6 17.85 14.0 17.85 14.45 18.2 14.75 18.5 15.05 18.95 15.05 L19.7 14.75 20.0 14.0" fill="url(#gradient11)" fill-rule="evenodd" stroke="none"/>
    <path d="M20.0 14.0 L19.7 13.3 18.95 13.0 Q18.5 13.0 18.2 13.3 17.85 13.6 17.85 14.0 17.85 14.45 18.2 14.75 18.5 15.05 18.95 15.05 L19.7 14.75 20.0 14.0 Z" fill="none" stroke="#ffff99" stroke-linecap="round" stroke-linejoin="round" stroke-width="0.05"/>
  </g>
  <defs>
    <radialGradient cx="0" cy="0" gradientTransform="matrix(0.0312, 0.0, 0.0, 0.0312, -0.5, 0.0)" gradientUnits="userSpaceOnUse" id="gradient0" r="819.2" spreadMethod="pad">
      <stop offset="0.5019607843137255" stop-color="#ff7016" stop-opacity="0.0"/>
      <stop offset="1.0" stop-color="#ffffff" stop-opacity="0.4"/>
    </radialGradient>
    <radialGradient cx="0" cy="0" gradientTransform="matrix(0.0204, 0.0, 0.0, 0.0218, 7.4, -0.3)" gradientUnits="userSpaceOnUse" id="gradient1" r="819.2" spreadMethod="pad">
      <stop offset="0.5019607843137255" stop-color="#9529c5" stop-opacity="0.0"/>
      <stop offset="0.7490196078431373" stop-color="#c49b63" stop-opacity="0.28235295"/>
      <stop offset="0.8941176470588236" stop-color="#ffd66d" stop-opacity="0.36078432"/>
      <stop offset="1.0" stop-color="#ff4444" stop-opacity="0.0"/>
    </radialGradient>
    <radialGradient cx="0" cy="0" gradientTransform="matrix(0.0082, 0.0, 0.0, 0.0087, -15.25, -0.6)" gradientUnits="userSpaceOnUse" id="gradient2" r="819.2" spreadMethod="pad">
      <stop offset="0.5019607843137255" stop-color="#9529c5" stop-opacity="0.0"/>
      <stop offset="0.7490196078431373" stop-color="#c49b63" stop-opacity="0.28235295"/>
      <stop offset="0.8941176470588236" stop-color="#ffd66d" stop-opacity="0.36078432"/>
      <stop offset="1.0" stop-color="#ff4444" stop-opacity="0.0"/>
    </radialGradient>
    <radialGradient cx="0" cy="0" gradientTransform="matrix(0.002, 0.0, 0.0, 0.0021, -23.4, -0.15)" gradientUnits="userSpaceOnUse" id="gradient3" r="819.2" spreadMethod="pad">
      <stop offset="0.5019607843137255" stop-color="#9529c5" stop-opacity="0.0"/>
      <stop offset="0.7490196078431373" stop-color="#c49b63" stop-opacity="0.28235295"/>
      <stop offset="0.8941176470588236" stop-color="#ffd66d" stop-opacity="0.36078432"/>
      <stop offset="1.0" stop-color="#ff4444" stop-opacity="0.0"/>
    </radialGradient>
    <radialGradient cx="0" cy="0" gradientTransform="matrix(0.0, 0.0031, -0.0034, 0.0, 8.0, -20.3)" gradientUnits="userSpaceOnUse" id="gradient4" r="819.2" spreadMethod="pad">
      <stop offset="0.5019607843137255" stop-color="#9529c5" stop-opacity="0.0"/>
      <stop offset="0.7490196078431373" stop-color="#c49b63" stop-opacity="0.28235295"/>
      <stop offset="0.8941176470588236" stop-color="#ffd66d" stop-opacity="0.36078432"/>
      <stop offset="1.0" stop-color="#ff4444" stop-opacity="0.0"/>
    </radialGradient>
    <radialGradient cx="0" cy="0" gradientTransform="matrix(0.0, 8.0E-4, -8.0E-4, 0.0, 7.8, -23.3)" gradientUnits="userSpaceOnUse" id="gradient5" r="819.2" spreadMethod="pad">
      <stop offset="0.5019607843137255" stop-color="#9529c5" stop-opacity="0.0"/>
      <stop offset="0.7490196078431373" stop-color="#c49b63" stop-opacity="0.28235295"/>
      <stop offset="0.8941176470588236" stop-color="#ffd66d" stop-opacity="0.36078432"/>
      <stop offset="1.0" stop-color="#ff4444" stop-opacity="0.0"/>
    </radialGradient>
    <radialGradient cx="0" cy="0" gradientTransform="matrix(0.0, -0.0031, -0.0034, 0.0, 8.0, 19.75)" gradientUnits="userSpaceOnUse" id="gradient6" r="819.2" spreadMethod="pad">
      <stop offset="0.5019607843137255" stop-color="#9529c5" stop-opacity="0.0"/>
      <stop offset="0.7490196078431373" stop-color="#c49b63" stop-opacity="0.28235295"/>
      <stop offset="0.8941176470588236" stop-color="#ffd66d" stop-opacity="0.36078432"/>
      <stop offset="1.0" stop-color="#ff4444" stop-opacity="0.0"/>
    </radialGradient>
    <radialGradient cx="0" cy="0" gradientTransform="matrix(0.0, -8.0E-4, -8.0E-4, 0.0, 7.8, 22.85)" gradientUnits="userSpaceOnUse" id="gradient7" r="819.2" spreadMethod="pad">
      <stop offset="0.5019607843137255" stop-color="#9529c5" stop-opacity="0.0"/>
      <stop offset="0.7490196078431373" stop-color="#c49b63" stop-opacity="0.28235295"/>
      <stop offset="0.8941176470588236" stop-color="#ffd66d" stop-opacity="0.36078432"/>
      <stop offset="1.0" stop-color="#ff4444" stop-opacity="0.0"/>
    </radialGradient>
    <radialGradient cx="0" cy="0" gradientTransform="matrix(0.0, -0.0013, -0.0014, 0.0, -2.15, 14.8)" gradientUnits="userSpaceOnUse" id="gradient8" r="819.2" spreadMethod="pad">
      <stop offset="0.5019607843137255" stop-color="#9529c5" stop-opacity="0.0"/>
      <stop offset="0.7490196078431373" stop-color="#c49b63" stop-opacity="0.28235295"/>
      <stop offset="0.8941176470588236" stop-color="#ffd66d" stop-opacity="0.36078432"/>
      <stop offset="1.0" stop-color="#ff4444" stop-opacity="0.0"/>
    </radialGradient>
    <radialGradient cx="0" cy="0" gradientTransform="matrix(0.0, -0.0013, -0.0014, 0.0, -2.15, -15.55)" gradientUnits="userSpaceOnUse" id="gradient9" r="819.2" spreadMethod="pad">
      <stop offset="0.5019607843137255" stop-color="#9529c5" stop-opacity="0.0"/>
      <stop offset="0.7490196078431373" stop-color="#c49b63" stop-opacity="0.28235295"/>
      <stop offset="0.8941176470588236" stop-color="#ffd66d" stop-opacity="0.36078432"/>
      <stop offset="1.0" stop-color="#ff4444" stop-opacity="0.0"/>
    </radialGradient>
    <radialGradient cx="0" cy="0" gradientTransform="matrix(0.0, -0.0013, -0.0014, 0.0, 18.95, -14.65)" gradientUnits="userSpaceOnUse" id="gradient10" r="819.2" spreadMethod="pad">
      <stop offset="0.5019607843137255" stop-color="#9529c5" stop-opacity="0.0"/>
      <stop offset="0.7490196078431373" stop-color="#c49b63" stop-opacity="0.28235295"/>
      <stop offset="0.8941176470588236" stop-color="#ffd66d" stop-opacity="0.36078432"/>
      <stop offset="1.0" stop-color="#ff4444" stop-opacity="0.0"/>
    </radialGradient>
    <radialGradient cx="0" cy="0" gradientTransform="matrix(0.0, -0.0013, -0.0014, 0.0, 18.95, 14.0)" gradientUnits="userSpaceOnUse" id="gradient11" r="819.2" spreadMethod="pad">
      <stop offset="0.5019607843137255" stop-color="#9529c5" stop-opacity="0.0"/>
      <stop offset="0.7490196078431373" stop-color="#c49b63" stop-opacity="0.28235295"/>
      <stop offset="0.8941176470588236" stop-color="#ffd66d" stop-opacity="0.36078432"/>
      <stop offset="1.0" stop-color="#ff4444" stop-opacity="0.0"/>
    </radialGradient>
  </defs>
</svg>
