<?xml version="1.0" encoding="UTF-8" standalone="no"?>
<svg xmlns:xlink="http://www.w3.org/1999/xlink" height="50.0px" width="50.0px" xmlns="http://www.w3.org/2000/svg">
  <g transform="matrix(1.0, 0.0, 0.0, 1.0, 0.0, 0.0)">
    <path d="M17.7 -17.65 Q25.0 -10.35 25.0 0.0 25.0 10.35 17.7 17.7 10.35 25.0 0.0 25.0 -10.35 25.0 -17.65 17.7 -25.0 10.35 -25.0 0.0 -25.0 -10.35 -17.65 -17.65 -10.35 -25.0 0.0 -25.0 10.35 -25.0 17.7 -17.65" fill="url(#gradient0)" fill-rule="evenodd" stroke="none"/>
    <path d="M17.7 -17.65 Q25.0 -10.35 25.0 0.0 25.0 10.35 17.7 17.7 10.35 25.0 0.0 25.0 -10.35 25.0 -17.65 17.7 -25.0 10.35 -25.0 0.0 -25.0 -10.35 -17.65 -17.65 -10.35 -25.0 0.0 -25.0 10.35 -25.0 17.7 -17.65 Z" fill="none" stroke="#bf44ff" stroke-linecap="round" stroke-linejoin="round" stroke-width="0.05"/>
    <path d="M10.1 -23.0 Q-4.85 -15.65 -4.65 -1.85 -4.3 -2.8 -3.55 -3.6 -2.05 -5.05 0.0 -5.05 2.05 -5.05 3.5 -3.6 5.0 -2.1 5.0 -0.05 5.0 2.0 3.5 3.45 2.05 4.95 0.0 4.95 -2.05 4.95 -3.55 3.45 -5.0 2.0 -5.0 -0.05 L-5.0 -0.15 -4.65 -1.85" fill="none" stroke="#bf44ff" stroke-linecap="round" stroke-linejoin="round" stroke-width="0.05"/>
    <path d="M22.95 10.0 Q15.6 -4.95 1.8 -4.75 2.75 -4.4 3.55 -3.65 5.0 -2.15 5.0 -0.1 5.0 1.95 3.55 3.4 2.05 4.9 0.0 4.9 -2.05 4.9 -3.5 3.4 -5.0 1.95 -5.0 -0.1 -5.0 -2.15 -3.5 -3.65 -2.05 -5.1 0.0 -5.1 L0.1 -5.1 1.8 -4.75" fill="none" stroke="#bf44ff" stroke-linecap="round" stroke-linejoin="round" stroke-width="0.05"/>
    <path d="M-10.05 22.85 Q4.9 15.5 4.7 1.7 4.35 2.65 3.6 3.45 2.1 4.9 0.05 4.9 -2.0 4.9 -3.45 3.45 -4.95 1.95 -4.95 -0.1 -4.95 -2.15 -3.45 -3.6 -2.0 -5.1 0.05 -5.1 2.1 -5.1 3.6 -3.6 5.05 -2.15 5.05 -0.1 L5.05 0.0 4.7 1.7" fill="none" stroke="#bf44ff" stroke-linecap="round" stroke-linejoin="round" stroke-width="0.05"/>
    <path d="M-22.9 -10.2 Q-15.55 4.75 -1.75 4.55 L-3.5 3.45 Q-4.95 1.95 -4.95 -0.1 -4.95 -2.15 -3.5 -3.6 -2.0 -5.1 0.05 -5.1 2.1 -5.1 3.55 -3.6 5.05 -2.15 5.05 -0.1 5.05 1.95 3.55 3.45 2.1 4.9 0.05 4.9 L-0.05 4.9 -1.75 4.55" fill="none" stroke="#bf44ff" stroke-linecap="round" stroke-linejoin="round" stroke-width="0.05"/>
    <path d="M23.35 -9.15 Q7.55 -14.55 -2.05 -4.65 L0.0 -5.1 Q2.05 -5.05 3.5 -3.6 4.95 -2.15 4.95 -0.15 5.0 2.0 3.55 3.45 2.1 4.9 -0.05 4.85 -2.1 4.9 -3.55 3.45 -5.0 2.0 -5.0 -0.1 -5.0 -2.2 -3.55 -3.65 L-3.5 -3.7 -2.05 -4.65" fill="none" stroke="#bf44ff" stroke-linecap="round" stroke-linejoin="round" stroke-width="0.05"/>
    <path d="M9.05 23.25 Q14.45 7.45 4.55 -2.15 5.0 -1.2 5.0 -0.1 4.95 1.95 3.5 3.4 2.05 4.85 0.05 4.85 -2.1 4.9 -3.55 3.45 -5.0 2.0 -4.95 -0.15 -5.0 -2.2 -3.55 -3.65 -2.1 -5.1 0.0 -5.1 2.1 -5.1 3.55 -3.65 L3.6 -3.6 4.55 -2.15" fill="none" stroke="#bf44ff" stroke-linecap="round" stroke-linejoin="round" stroke-width="0.05"/>
    <path d="M-23.3 9.0 Q-7.5 14.4 2.1 4.5 L0.05 4.95 Q-2.0 4.9 -3.45 3.45 -4.9 2.0 -4.9 0.0 -4.95 -2.15 -3.5 -3.6 -2.05 -5.05 0.1 -5.0 2.15 -5.05 3.6 -3.6 5.05 -2.15 5.05 -0.05 5.05 2.05 3.6 3.5 L3.55 3.55 Q2.9 4.2 2.1 4.5" fill="none" stroke="#bf44ff" stroke-linecap="round" stroke-linejoin="round" stroke-width="0.05"/>
    <path d="M-9.05 -23.45 Q-14.45 -7.65 -4.55 1.95 -5.0 1.0 -5.0 -0.1 -4.95 -2.15 -3.5 -3.6 -2.05 -5.05 -0.05 -5.05 2.1 -5.1 3.55 -3.65 5.0 -2.2 4.95 -0.05 5.0 2.0 3.55 3.45 2.1 4.9 0.0 4.9 -2.1 4.9 -3.55 3.45 L-3.6 3.4 -4.55 1.95" fill="none" stroke="#bf44ff" stroke-linecap="round" stroke-linejoin="round" stroke-width="0.05"/>
  </g>
  <defs>
    <radialGradient cx="0" cy="0" gradientTransform="matrix(0.0312, 0.0, 0.0, 0.0312, -0.5, 0.0)" gradientUnits="userSpaceOnUse" id="gradient0" r="819.2" spreadMethod="pad">
      <stop offset="0.5019607843137255" stop-color="#6a3988" stop-opacity="0.0"/>
      <stop offset="1.0" stop-color="#a944bb" stop-opacity="0.4"/>
    </radialGradient>
  </defs>
</svg>
