<?xml version="1.0" encoding="UTF-8" standalone="no"?>
<svg xmlns:xlink="http://www.w3.org/1999/xlink" height="50.0px" width="50.0px" xmlns="http://www.w3.org/2000/svg">
  <g transform="matrix(1.0, 0.0, 0.0, 1.0, 0.0, 0.0)">
    <path d="M0.5 -11.5 L0.05 -11.55 -0.1 -11.55 -0.25 -11.55 5.15 -20.95 -5.7 -20.95 -0.25 -11.55 -0.7 -11.5 Q-6.3 -11.3 -10.3 -7.35 -14.5 -3.1 -14.5 2.85 -14.5 8.8 -10.3 13.0 -6.05 17.25 -0.1 17.25 5.85 17.25 10.05 13.0 14.3 8.8 14.3 2.85 14.3 -3.1 10.05 -7.35 6.05 -11.35 0.5 -11.5 M17.7 -17.65 Q25.0 -10.35 25.0 0.0 25.0 10.35 17.7 17.7 10.35 25.0 0.0 25.0 -10.35 25.0 -17.65 17.7 -25.0 10.35 -25.0 0.0 -25.0 -10.35 -17.65 -17.65 -10.35 -25.0 0.0 -25.0 10.35 -25.0 17.7 -17.65" fill="url(#gradient0)" fill-rule="evenodd" stroke="none"/>
    <path d="M-0.7 -11.5 L-0.25 -11.55 -5.7 -20.95 5.15 -20.95 -0.25 -11.55 -0.1 -11.55 0.05 -11.55 0.5 -11.5 Q4.1 -11.35 6.7 -8.75 8.15 -7.3 8.9 -5.5 9.55 -3.9 9.55 -2.0 L9.55 -1.9 Q9.55 0.85 8.25 3.0 L6.7 4.9 Q3.9 7.75 -0.1 7.75 -4.1 7.75 -6.95 4.9 L-8.45 3.0 Q-9.75 0.85 -9.75 -1.9 L-9.75 -2.0 Q-9.75 -3.9 -9.1 -5.5 -8.4 -7.3 -6.95 -8.75 -4.35 -11.35 -0.7 -11.5 M-5.0 -5.5 L-9.1 -5.5 -5.0 -5.5 M4.15 -2.0 L9.55 -2.0 4.15 -2.0 M4.15 -5.5 L8.9 -5.5 4.15 -5.5 M4.15 3.0 L8.25 3.0 4.15 3.0 M-5.0 3.0 L-8.45 3.0 -5.0 3.0 M-5.0 -2.0 L-9.75 -2.0 -5.0 -2.0" fill="url(#gradient1)" fill-rule="evenodd" stroke="none"/>
    <path d="M0.5 -11.5 Q6.05 -11.35 10.05 -7.35 14.3 -3.1 14.3 2.85 14.3 8.8 10.05 13.0 5.85 17.25 -0.1 17.25 -6.05 17.25 -10.3 13.0 -14.5 8.8 -14.5 2.85 -14.5 -3.1 -10.3 -7.35 -6.3 -11.3 -0.7 -11.5 -4.35 -11.35 -6.95 -8.75 -8.4 -7.3 -9.1 -5.5 -9.75 -3.9 -9.75 -2.0 L-9.75 -1.9 Q-9.75 0.85 -8.45 3.0 L-6.95 4.9 Q-4.1 7.75 -0.1 7.75 3.9 7.75 6.7 4.9 L8.25 3.0 Q9.55 0.85 9.55 -1.9 L9.55 -2.0 Q9.55 -3.9 8.9 -5.5 8.15 -7.3 6.7 -8.75 4.1 -11.35 0.5 -11.5" fill="url(#gradient2)" fill-rule="evenodd" stroke="none"/>
    <path d="M-0.7 -11.5 L-0.25 -11.55 -5.7 -20.95 5.15 -20.95 -0.25 -11.55 -0.1 -11.55 0.05 -11.55 0.5 -11.5 Q6.05 -11.35 10.05 -7.35 14.3 -3.1 14.3 2.85 14.3 8.8 10.05 13.0 5.85 17.25 -0.1 17.25 -6.05 17.25 -10.3 13.0 -14.5 8.8 -14.5 2.85 -14.5 -3.1 -10.3 -7.35 -6.3 -11.3 -0.7 -11.5 -4.35 -11.35 -6.95 -8.75 -8.4 -7.3 -9.1 -5.5 L-5.0 -5.5 M0.5 -11.5 Q4.1 -11.35 6.7 -8.75 8.15 -7.3 8.9 -5.5 9.55 -3.9 9.55 -2.0 L9.55 -1.9 Q9.55 0.85 8.25 3.0 L6.7 4.9 Q3.9 7.75 -0.1 7.75 -4.1 7.75 -6.95 4.9 L-8.45 3.0 Q-9.75 0.85 -9.75 -1.9 L-9.75 -2.0 Q-9.75 -3.9 -9.1 -5.5 M8.9 -5.5 L4.15 -5.5 M9.55 -2.0 L4.15 -2.0 M17.7 -17.65 Q25.0 -10.35 25.0 0.0 25.0 10.35 17.7 17.7 10.35 25.0 0.0 25.0 -10.35 25.0 -17.65 17.7 -25.0 10.35 -25.0 0.0 -25.0 -10.35 -17.65 -17.65 -10.35 -25.0 0.0 -25.0 10.35 -25.0 17.7 -17.65 M-9.75 -2.0 L-5.0 -2.0 M-8.45 3.0 L-5.0 3.0 M8.25 3.0 L4.15 3.0" fill="none" stroke="#bf44ff" stroke-linecap="round" stroke-linejoin="round" stroke-width="0.05"/>
  </g>
  <defs>
    <radialGradient cx="0" cy="0" gradientTransform="matrix(0.0312, 0.0, 0.0, 0.0312, -0.5, 0.0)" gradientUnits="userSpaceOnUse" id="gradient0" r="819.2" spreadMethod="pad">
      <stop offset="0.5019607843137255" stop-color="#6a3988" stop-opacity="0.0"/>
      <stop offset="1.0" stop-color="#a944bb" stop-opacity="0.4"/>
    </radialGradient>
    <radialGradient cx="0" cy="0" gradientTransform="matrix(0.0312, 0.0, 0.0, 0.0312, -0.5, 0.0)" gradientUnits="userSpaceOnUse" id="gradient1" r="819.2" spreadMethod="pad">
      <stop offset="0.0" stop-color="#6a3988" stop-opacity="0.34117648"/>
      <stop offset="0.5019607843137255" stop-color="#6a3988" stop-opacity="0.3529412"/>
      <stop offset="1.0" stop-color="#a944bb" stop-opacity="0.4"/>
    </radialGradient>
    <radialGradient cx="0" cy="0" gradientTransform="matrix(0.0312, 0.0, 0.0, 0.0312, -0.5, 0.0)" gradientUnits="userSpaceOnUse" id="gradient2" r="819.2" spreadMethod="pad">
      <stop offset="0.0" stop-color="#4e2d6a" stop-opacity="0.34117648"/>
      <stop offset="0.5019607843137255" stop-color="#6a3988" stop-opacity="0.2509804"/>
      <stop offset="1.0" stop-color="#a944bb" stop-opacity="0.4"/>
    </radialGradient>
  </defs>
</svg>
