<?xml version="1.0" encoding="UTF-8" standalone="no"?>
<svg xmlns:xlink="http://www.w3.org/1999/xlink" height="13.3px" width="5.9px" xmlns="http://www.w3.org/2000/svg">
  <g transform="matrix(1.0, 0.0, 0.0, 1.0, 0.0, 0.0)">
    <path d="M5.75 2.05 Q5.8 2.55 5.05 2.6 4.95 1.95 5.3 1.45 5.75 1.7 5.75 2.05 M0.75 1.5 L0.75 0.95 Q0.5 0.45 0.65 0.0 1.45 0.15 0.75 1.5 M1.25 12.85 L1.1 12.75 Q-0.55 11.3 0.3 9.15 1.8 6.6 1.25 3.85 L2.0 5.1 2.7 1.35 3.6 0.65 4.1 0.55 Q3.05 3.6 4.35 6.2 L5.05 4.4 Q6.25 5.95 5.8 8.0 L5.3 9.05 5.05 9.8 5.2 10.25 5.2 11.5 4.9 12.2 4.2 12.75 3.25 13.05 Q3.4 12.5 3.8 12.2 L3.85 11.6 3.65 11.05 3.1 11.1 2.55 10.95 3.1 10.25 3.1 9.55 Q3.2 8.35 2.65 7.45 L2.65 8.4 Q0.85 10.3 1.25 12.85" fill="#ffa600" fill-opacity="0.72156864" fill-rule="evenodd" stroke="none"/>
    <path d="M3.25 13.05 L3.1 13.05 1.85 13.3 1.25 12.85 Q0.85 10.3 2.65 8.4 L2.65 7.45 Q3.2 8.35 3.1 9.55 L3.1 10.25 2.55 10.95 3.1 11.1 3.65 11.05 3.85 11.6 3.8 12.2 Q3.4 12.5 3.25 13.05" fill="#ffdd00" fill-opacity="0.72156864" fill-rule="evenodd" stroke="none"/>
  </g>
</svg>
