<?xml version="1.0" encoding="UTF-8" standalone="no"?>
<svg xmlns:xlink="http://www.w3.org/1999/xlink" height="14.55px" width="5.05px" xmlns="http://www.w3.org/2000/svg">
  <g transform="matrix(1.0, 0.0, 0.0, 1.0, 0.0, 0.0)">
    <path d="M1.0 12.85 L0.55 12.1 Q0.25 11.4 0.45 9.45 L0.9 4.55 1.35 4.8 1.55 5.45 1.45 4.85 Q1.6 3.0 1.3 1.2 L0.7 0.7 2.05 1.3 2.8 5.3 Q2.65 4.2 3.4 3.95 L3.45 5.7 4.05 5.0 Q4.65 4.05 5.4 3.9 L4.8 8.65 5.25 8.4 5.25 9.4 Q5.2 11.5 3.95 12.85 L3.4 13.0 Q3.8 12.5 3.8 11.8 L3.75 11.3 3.4 11.0 3.4 8.8 Q3.3 9.4 2.7 9.85 L2.25 10.0 1.95 10.5 1.4 10.55 Q1.05 10.75 1.05 11.1 L1.0 12.85 M3.7 1.3 Q4.2 1.75 3.95 2.6 L3.3 0.95 3.7 1.3 M1.35 -1.3 Q1.7 -0.8 1.4 -0.3 L1.3 -1.3 1.35 -1.3" fill="#ffa600" fill-opacity="0.72156864" fill-rule="evenodd" stroke="none"/>
    <path d="M1.0 12.85 L1.05 11.1 Q1.05 10.75 1.4 10.55 L1.95 10.5 2.25 10.0 2.7 9.85 Q3.3 9.4 3.4 8.8 L3.4 11.0 3.75 11.3 3.8 11.8 Q3.8 12.5 3.4 13.0 L1.4 13.2 1.15 13.05 1.0 12.85" fill="#ffdd00" fill-opacity="0.72156864" fill-rule="evenodd" stroke="none"/>
  </g>
</svg>
