<?xml version="1.0" encoding="UTF-8" standalone="no"?>
<svg xmlns:xlink="http://www.w3.org/1999/xlink" height="39.1px" width="12.3px" xmlns="http://www.w3.org/2000/svg">
  <g transform="matrix(1.0, 0.0, 0.0, 1.0, 0.0, 0.0)">
    <path d="M0.1 -3.6 L-1.2 -3.6 -0.8 -29.4 Q0.1 -33.05 1.4 -33.8 L1.4 -3.6 0.1 -3.6 0.1 -3.9 0.1 -3.6" fill="url(#gradient0)" fill-rule="evenodd" stroke="none"/>
    <path d="M0.1 -3.0 L0.15 -3.0 0.6 -3.0 0.6 4.85 Q0.15 5.8 -0.3 4.85 L-0.3 -3.0 0.1 -3.0 M0.15 4.65 L0.15 -3.0 0.15 4.65" fill="#8d704b" fill-rule="evenodd" stroke="none"/>
    <path d="M0.1 -3.0 L0.15 -3.0 0.6 -3.0 0.6 4.85 Q0.15 5.8 -0.3 4.85 L-0.3 -3.0 0.1 -3.0 M0.1 -3.6 L-1.2 -3.6 -0.8 -29.4 Q0.1 -33.05 1.4 -33.8 L1.4 -3.6 0.1 -3.6" fill="none" stroke="#000000" stroke-linecap="round" stroke-linejoin="round" stroke-width="0.05"/>
    <path d="M0.1 -3.0 L0.1 -3.6 0.1 -3.9 M0.15 -3.0 L0.15 4.65" fill="none" stroke="#ffff99" stroke-linecap="round" stroke-linejoin="round" stroke-width="0.05"/>
    <path d="M1.0 -33.05 Q0.1 -31.7 -0.25 -30.0 L-0.75 -5.15" fill="none" stroke="#ffffff" stroke-linecap="round" stroke-linejoin="round" stroke-width="0.05"/>
    <path d="M1.45 -4.9 L6.15 -6.25 1.95 -3.65 6.3 -1.15 1.4 -2.3 2.8 2.4 0.25 -1.8 -2.2 2.55 -1.05 -2.3 -5.85 -0.95 -1.65 -3.45 -6.0 -5.9 -1.1 -4.8 -2.5 -9.6 0.15 -5.4 2.5 -9.75 1.45 -4.9" fill="url(#gradient1)" fill-rule="evenodd" stroke="none"/>
    <path d="M1.45 -4.9 L6.15 -6.25 1.95 -3.65 6.3 -1.15 1.4 -2.3 2.8 2.4 0.25 -1.8 -2.2 2.55 -1.05 -2.3 -5.85 -0.95 -1.65 -3.45 -6.0 -5.9 -1.1 -4.8 -2.5 -9.6 0.15 -5.4 2.5 -9.75 1.45 -4.9 Z" fill="none" stroke="#663300" stroke-linecap="round" stroke-linejoin="round" stroke-width="0.05"/>
    <path d="M1.05 -1.2 L-0.8 -1.15 Q-1.8 -1.5 -2.25 -2.5 -2.65 -3.4 -2.25 -4.35 -1.9 -5.35 -0.95 -5.8 0.0 -6.15 1.0 -5.8 1.95 -5.4 2.35 -4.5 2.75 -3.55 2.4 -2.55 2.0 -1.6 1.05 -1.2" fill="url(#gradient2)" fill-rule="evenodd" stroke="none"/>
    <path d="M1.05 -1.2 L-0.8 -1.15 Q-1.8 -1.5 -2.25 -2.5 -2.65 -3.4 -2.25 -4.35 -1.9 -5.35 -0.95 -5.8 0.0 -6.15 1.0 -5.8 1.95 -5.4 2.35 -4.5 2.75 -3.55 2.4 -2.55 2.0 -1.6 1.05 -1.2 Z" fill="none" stroke="#663300" stroke-linecap="round" stroke-linejoin="round" stroke-width="0.05"/>
  </g>
  <defs>
    <linearGradient gradientTransform="matrix(0.0016, 0.0, 0.0, 0.0184, 0.1, -18.7)" gradientUnits="userSpaceOnUse" id="gradient0" spreadMethod="pad" x1="-819.2" x2="819.2">
      <stop offset="0.0" stop-color="#ffffff"/>
      <stop offset="0.2" stop-color="#f5e8a0"/>
      <stop offset="1.0" stop-color="#a78e58"/>
    </linearGradient>
    <radialGradient cx="0" cy="0" gradientTransform="matrix(0.0075, 0.0029, -0.0029, 0.0075, 0.2, -3.6)" gradientUnits="userSpaceOnUse" id="gradient1" r="819.2" spreadMethod="pad">
      <stop offset="0.0" stop-color="#ffffff"/>
      <stop offset="0.2" stop-color="#f5e8a0"/>
      <stop offset="1.0" stop-color="#a78e58"/>
    </radialGradient>
    <radialGradient cx="0" cy="0" gradientTransform="matrix(0.0037, 0.0014, -0.0014, 0.0037, 0.1, -3.45)" gradientUnits="userSpaceOnUse" id="gradient2" r="819.2" spreadMethod="pad">
      <stop offset="0.0" stop-color="#ffffff"/>
      <stop offset="0.2" stop-color="#f5e8a0"/>
      <stop offset="1.0" stop-color="#a78e58"/>
    </radialGradient>
  </defs>
</svg>
