<?xml version="1.0" encoding="UTF-8" standalone="no"?>
<svg xmlns:xlink="http://www.w3.org/1999/xlink" height="40.75px" width="9.9px" xmlns="http://www.w3.org/2000/svg">
  <g transform="matrix(1.0, 0.0, 0.0, 1.0, 0.0, 0.0)">
    <path d="M1.4 -3.6 L-1.2 -3.6 -1.35 -29.4 0.8 -33.25 1.4 -34.65 1.4 -27.25 0.7 -25.15 1.4 -25.15 1.4 -3.6 M-0.55 -4.85 L-0.75 -29.15 0.8 -33.25 -0.75 -29.15 -0.55 -4.85" fill="url(#gradient0)" fill-rule="evenodd" stroke="none"/>
    <path d="M0.6 4.85 Q0.15 5.8 -0.3 4.85 L-0.3 -3.0 0.6 -3.0 0.6 4.85" fill="#acacac" fill-rule="evenodd" stroke="none"/>
    <path d="M1.4 -3.6 L-1.2 -3.6 -1.35 -29.4 0.8 -33.25 1.4 -34.65 1.4 -27.25 0.7 -25.15 1.4 -25.15 1.4 -3.6 M0.6 4.85 Q0.15 5.8 -0.3 4.85 L-0.3 -3.0 0.6 -3.0 0.6 4.85" fill="none" stroke="#000000" stroke-linecap="round" stroke-linejoin="round" stroke-width="0.05"/>
    <path d="M0.8 -33.25 L-0.75 -29.15 -0.55 -4.85" fill="none" stroke="#ffffff" stroke-linecap="round" stroke-linejoin="round" stroke-width="0.05"/>
    <path d="M1.05 -3.9 L2.2 -5.2 5.3 -5.2 2.25 -1.8 Q0.1 -3.05 -2.0 -1.75 L-4.6 -5.2 -2.15 -5.2 -0.85 -3.7 -0.85 -5.2 1.05 -5.2 1.05 -3.9 M-3.7 -4.75 L-1.8 -2.5 -3.7 -4.75 M4.2 -4.75 L2.1 -2.4 4.2 -4.75 M0.0 -2.7 L0.0 -4.85 0.0 -2.7" fill="url(#gradient1)" fill-rule="evenodd" stroke="none"/>
    <path d="M1.05 -3.9 L2.2 -5.2 5.3 -5.2 2.25 -1.8 Q0.1 -3.05 -2.0 -1.75 L-4.6 -5.2 -2.15 -5.2 -0.85 -3.7 -0.85 -5.2 1.05 -5.2 1.05 -3.9" fill="none" stroke="#000000" stroke-linecap="round" stroke-linejoin="round" stroke-width="0.05"/>
    <path d="M0.0 -4.85 L0.0 -2.7 M2.1 -2.4 L4.2 -4.75 M-1.8 -2.5 L-3.7 -4.75" fill="none" stroke="#ffffff" stroke-linecap="round" stroke-linejoin="round" stroke-width="0.05"/>
    <path d="M0.1 4.8 L0.1 5.95 0.1 4.8 M1.45 5.9 L0.8 4.65 1.45 5.9 M0.45 5.45 L0.8 6.1 1.8 6.1 0.85 4.35 -0.55 4.3 -1.4 6.1 -0.6 6.1 -0.15 5.35 -0.15 6.1 0.45 6.1 0.45 5.45 M-1.1 5.9 L-0.5 4.7 -1.1 5.9" fill="url(#gradient2)" fill-rule="evenodd" stroke="none"/>
    <path d="M0.45 5.45 L0.8 6.1 1.8 6.1 0.85 4.35 -0.55 4.3 -1.4 6.1 -0.6 6.1 -0.15 5.35 -0.15 6.1 0.45 6.1 0.45 5.45" fill="none" stroke="#000000" stroke-linecap="round" stroke-linejoin="round" stroke-width="0.05"/>
    <path d="M0.8 4.65 L1.45 5.9 M0.1 5.95 L0.1 4.8 M-0.5 4.7 L-1.1 5.9" fill="none" stroke="#ffffff" stroke-linecap="round" stroke-linejoin="round" stroke-width="0.05"/>
  </g>
  <defs>
    <linearGradient gradientTransform="matrix(0.0016, 0.0, 0.0, 0.0184, 0.1, -18.7)" gradientUnits="userSpaceOnUse" id="gradient0" spreadMethod="pad" x1="-819.2" x2="819.2">
      <stop offset="0.0" stop-color="#ffffff"/>
      <stop offset="0.2" stop-color="#d5d5d5"/>
      <stop offset="1.0" stop-color="#808080"/>
    </linearGradient>
    <linearGradient gradientTransform="matrix(0.006, 0.0, 0.0, 0.0021, 0.3, -3.5)" gradientUnits="userSpaceOnUse" id="gradient1" spreadMethod="pad" x1="-819.2" x2="819.2">
      <stop offset="0.0" stop-color="#ffffff"/>
      <stop offset="0.2" stop-color="#d5d5d5"/>
      <stop offset="1.0" stop-color="#808080"/>
    </linearGradient>
    <linearGradient gradientTransform="matrix(0.002, 0.0, 0.0, -0.0011, 0.2, 5.25)" gradientUnits="userSpaceOnUse" id="gradient2" spreadMethod="pad" x1="-819.2" x2="819.2">
      <stop offset="0.0" stop-color="#ffffff"/>
      <stop offset="0.2" stop-color="#d5d5d5"/>
      <stop offset="1.0" stop-color="#808080"/>
    </linearGradient>
  </defs>
</svg>
