<?xml version="1.0" encoding="UTF-8" standalone="no"?>
<svg xmlns:xlink="http://www.w3.org/1999/xlink" height="37.85px" width="8.3px" xmlns="http://www.w3.org/2000/svg">
  <g transform="matrix(1.0, 0.0, 0.0, 1.0, 0.0, 0.0)">
    <path d="M-0.1 5.25 L-0.4 4.95 -0.45 4.8 Q-0.35 4.35 -0.5 3.85 L-0.55 3.5 -0.45 1.15 -0.4 0.55 -0.25 -1.25 Q-0.1 -2.05 -0.5 -2.85 L-0.65 -3.3 -0.85 -4.85 -0.9 -5.4 -0.85 -6.05 Q-0.85 -6.95 -1.2 -7.75 L-1.35 -8.5 -1.3 -9.1 -1.3 -10.05 -1.65 -11.55 -1.8 -12.0 -1.75 -13.55 -1.65 -14.0 -1.35 -15.2 -1.25 -15.7 -0.65 -19.45 Q-0.45 -20.05 -0.4 -20.7 L-0.4 -21.15 Q-0.55 -22.45 -0.2 -23.7 0.0 -24.3 0.05 -24.95 L0.05 -25.5 0.0 -26.8 -0.1 -27.55 -0.35 -28.35 -0.5 -28.6 Q-0.95 -29.25 -0.85 -30.05 L-0.85 -30.65 -0.95 -32.2 -0.9 -32.3 Q-0.35 -32.5 -0.15 -32.05 L0.1 -31.15 0.2 -30.75 Q1.1 -29.1 1.4 -27.2 L1.95 -25.2 2.05 -24.7 1.95 -23.6 1.95 -23.45 3.15 -24.8 3.45 -25.15 3.85 -25.85 3.9 -25.95 4.0 -26.05 4.15 -25.65 Q3.95 -24.6 3.15 -23.9 L2.4 -23.15 2.3 -22.95 1.95 -22.5 1.65 -21.1 1.05 -19.3 0.95 -18.8 0.75 -17.1 0.3 -14.65 0.25 -14.65 0.25 -15.8 0.3 -19.6 0.4 -20.2 0.65 -21.0 0.75 -21.3 Q0.3 -22.6 1.1 -23.8 0.3 -22.6 0.75 -21.3 L0.9 -21.9 1.1 -23.2 1.1 -23.8 1.0 -25.35 1.1 -23.8 1.1 -23.2 0.9 -21.9 0.75 -21.3 0.65 -21.0 0.4 -20.2 0.3 -19.6 0.25 -15.8 0.25 -14.65 0.25 -14.25 0.25 -14.2 -0.1 -12.35 -0.15 -11.95 0.05 -10.2 0.15 -9.75 0.3 -9.15 0.6 -7.45 0.7 -6.85 0.75 -6.55 0.8 -6.15 0.7 -5.8 Q0.55 -5.35 0.7 -5.0 L1.15 -3.7 1.2 -3.45 1.25 -3.1 1.4 0.8 1.35 0.95 Q0.7 1.65 0.7 2.6 L0.65 3.0 0.65 4.25 0.55 4.7 0.45 5.0 0.15 5.5 -0.1 5.25 M-0.4 -7.7 L-0.65 -8.75 -0.7 -9.55 -0.95 -11.75 -1.0 -12.6 -0.7 -15.3 -1.0 -12.6 -0.95 -11.75 -0.7 -9.55 -0.65 -8.75 -0.4 -7.7 M1.95 -22.5 L1.9 -23.15 1.95 -23.45 1.9 -23.15 1.95 -22.5 M0.55 -0.6 Q0.35 -0.7 0.3 -0.4 0.15 0.25 0.25 0.95 L0.55 -0.6 0.6 -1.5 0.55 -2.3 Q0.3 -4.25 -0.85 -6.05 0.3 -4.25 0.55 -2.3 L0.6 -1.5 0.55 -0.6" fill="#7a4900" fill-rule="evenodd" stroke="none"/>
    <path d="M-3.75 -14.15 Q-3.45 -14.9 -2.7 -14.9 L-1.7 -14.6 -2.45 -14.15 -3.25 -14.05 -3.75 -14.15 M3.65 -27.2 L4.5 -28.6 Q4.65 -27.4 3.95 -26.4 L3.65 -25.85 Q3.3 -26.45 3.65 -27.2" fill="#236217" fill-rule="evenodd" stroke="none"/>
    <path d="M-0.1 5.25 L-0.4 4.95 -0.45 4.8 Q-0.35 4.35 -0.5 3.85 L-0.55 3.5 -0.45 1.15 -0.4 0.55 -0.25 -1.25 Q-0.1 -2.05 -0.5 -2.85 L-0.65 -3.3 -0.85 -4.85 -0.9 -5.4 -0.85 -6.05 Q-0.85 -6.95 -1.2 -7.75 L-1.35 -8.5 -1.3 -9.1 -1.3 -10.05 -1.65 -11.55 -1.8 -12.0 -1.75 -13.55 -1.65 -14.0 -1.35 -15.2 -1.25 -15.7 -0.65 -19.45 Q-0.45 -20.05 -0.4 -20.7 L-0.4 -21.15 Q-0.55 -22.45 -0.2 -23.7 0.0 -24.3 0.05 -24.95 L0.05 -25.5 0.0 -26.8 -0.1 -27.55 -0.35 -28.35 -0.5 -28.6 Q-0.95 -29.25 -0.85 -30.05 L-0.85 -30.65 -0.95 -32.2 -0.9 -32.3 Q-0.35 -32.5 -0.15 -32.05 L0.1 -31.15 0.2 -30.75 Q1.1 -29.1 1.4 -27.2 L1.95 -25.2 2.05 -24.7 1.95 -23.6 1.95 -23.45 1.9 -23.15 1.95 -22.5 1.65 -21.1 1.05 -19.3 0.95 -18.8 0.75 -17.1 0.3 -14.65 0.25 -14.25 M0.25 -14.2 L-0.1 -12.35 -0.15 -11.95 0.05 -10.2 0.15 -9.75 0.3 -9.15 0.6 -7.45 0.7 -6.85 0.75 -6.55 0.8 -6.15 0.7 -5.8 Q0.55 -5.35 0.7 -5.0 L1.15 -3.7 1.2 -3.45 1.25 -3.1 1.4 0.8 1.35 0.95 Q0.7 1.65 0.7 2.6 L0.65 3.0 0.65 4.25 0.55 4.7 0.45 5.0 0.15 5.5 0.05 5.5 -0.05 5.4 -0.1 5.25 0.15 5.5" fill="none" stroke="#000000" stroke-linecap="round" stroke-linejoin="round" stroke-width="0.05"/>
    <path d="M1.95 -23.45 L3.15 -24.8 3.45 -25.15 3.85 -25.85 3.9 -25.95 4.0 -26.05 4.15 -25.65 Q3.95 -24.6 3.15 -23.9 L2.4 -23.15 2.3 -22.95 1.95 -22.5 M0.25 -14.25 L0.25 -14.2 M-3.75 -14.15 L-3.25 -14.05 -2.45 -14.15 -1.7 -14.6 -2.7 -14.9 Q-3.45 -14.9 -3.75 -14.15 M-0.7 -15.3 L-1.0 -12.6 -0.95 -11.75 -0.7 -9.55 -0.65 -8.75 -0.4 -7.7 M3.65 -27.2 L4.5 -28.6 Q4.65 -27.4 3.95 -26.4 L3.65 -25.85 Q3.3 -26.45 3.65 -27.2 M1.1 -23.8 Q0.3 -22.6 0.75 -21.3 L0.9 -21.9 1.1 -23.2 1.1 -23.8 1.0 -25.35 M0.25 -14.65 L0.25 -15.8 0.3 -19.6 0.4 -20.2 0.65 -21.0 0.75 -21.3 M0.25 -14.65 L0.25 -14.25 M0.55 -0.6 L0.25 0.95 Q0.15 0.25 0.3 -0.4 0.35 -0.7 0.55 -0.6 L0.6 -1.5 0.55 -2.3 Q0.3 -4.25 -0.85 -6.05" fill="none" stroke="#000000" stroke-linecap="round" stroke-linejoin="round" stroke-width="0.05"/>
  </g>
</svg>
