<?xml version="1.0" encoding="UTF-8" standalone="no"?>
<svg xmlns:xlink="http://www.w3.org/1999/xlink" height="37.75px" width="6.15px" xmlns="http://www.w3.org/2000/svg">
  <g transform="matrix(1.0, 0.0, 0.0, 1.0, 0.0, 0.0)">
    <path d="M1.4 -5.35 L1.4 -3.6 -1.2 -3.6 -1.15 -5.45 0.05 -7.25 0.1 -7.2 1.4 -5.35 M0.6 4.55 L-0.3 4.55 -0.3 -3.0 0.6 -3.0 0.6 4.55" fill="#7f5e4d" fill-rule="evenodd" stroke="none"/>
    <path d="M-1.15 -5.45 L-1.0 -30.15 Q-0.45 -32.15 0.1 -33.2 1.1 -31.6 1.3 -29.85 L1.4 -5.35 0.1 -7.2 0.05 -7.25 -1.15 -5.45 M0.1 -24.0 L0.1 -23.1 0.1 -24.0 M0.1 -19.55 L0.1 -7.4 0.05 -7.3 0.05 -7.25 0.05 -7.3 0.1 -7.4 0.1 -19.55 M0.1 -7.4 L0.1 -7.2 0.05 -7.3 0.1 -7.2 0.1 -7.4" fill="url(#gradient0)" fill-rule="evenodd" stroke="none"/>
    <path d="M-1.15 -5.45 L-1.0 -30.15 Q-0.45 -32.15 0.1 -33.2 1.1 -31.6 1.3 -29.85 L1.4 -5.35 1.4 -3.6 -1.2 -3.6 -1.15 -5.45 0.05 -7.25 0.05 -7.3 0.1 -7.4 0.1 -19.55 M0.1 -23.1 L0.1 -24.0 M1.4 -5.35 L0.1 -7.2 0.1 -7.4 M0.05 -7.3 L0.1 -7.2 M0.6 4.55 L0.6 -3.0 -0.3 -3.0 -0.3 4.55 0.6 4.55 Z" fill="none" stroke="#000000" stroke-linecap="round" stroke-linejoin="round" stroke-width="0.05"/>
    <path d="M2.15 -2.5 L-2.0 -2.5 -3.0 -4.35 Q0.1 -3.45 3.15 -4.35 L2.15 -2.5 M1.8 -2.9 L-1.65 -2.9 1.8 -2.9" fill="#7f5e4d" fill-rule="evenodd" stroke="none"/>
    <path d="M2.15 -2.5 L-2.0 -2.5 -3.0 -4.35 Q0.1 -3.45 3.15 -4.35 L2.15 -2.5 M-1.65 -2.9 L1.8 -2.9" fill="none" stroke="#000000" stroke-linecap="round" stroke-linejoin="round" stroke-width="0.05"/>
  </g>
  <defs>
    <linearGradient gradientTransform="matrix(0.0016, 0.0, 0.0, 0.0184, 0.1, -18.7)" gradientUnits="userSpaceOnUse" id="gradient0" spreadMethod="pad" x1="-819.2" x2="819.2">
      <stop offset="0.0" stop-color="#effff2"/>
      <stop offset="0.2" stop-color="#ceb8a4"/>
      <stop offset="1.0" stop-color="#6a5136"/>
    </linearGradient>
  </defs>
</svg>
