<?xml version="1.0" encoding="UTF-8" standalone="no"?>
<svg xmlns:xlink="http://www.w3.org/1999/xlink" height="38.3px" width="8.9px" xmlns="http://www.w3.org/2000/svg">
  <g transform="matrix(1.0, 0.0, 0.0, 1.0, 0.0, 0.0)">
    <path d="M1.4 -3.6 L-1.2 -3.6 -1.05 -15.2 -1.0 -30.15 Q-0.45 -32.15 0.1 -33.2 1.1 -31.6 1.3 -29.85 L1.4 -3.6 M0.0 -2.25 L0.0 -1.05 0.0 -2.25 M-0.3 -0.8 L-0.3 -3.0 0.6 -3.0 0.6 -1.55 0.0 -1.05 -0.3 -0.8 0.0 -1.05 0.6 -1.55 0.6 0.25 0.6 2.1 0.6 3.7 0.7 3.75 0.95 4.3 0.7 4.85 0.1 5.1 -0.3 5.0 -0.45 4.85 -0.65 4.3 -0.45 3.75 -0.3 3.65 -0.3 2.85 -0.3 1.0 -0.3 -0.8 M0.6 3.7 L0.1 3.5 Q-0.1 3.5 -0.3 3.65 -0.1 3.5 0.1 3.5 L0.6 3.7 M0.0 0.8 L-0.05 2.6 0.0 0.8 -0.3 1.0 0.0 0.8 0.6 0.25 0.0 0.8 0.0 -1.05 0.0 0.8 M0.1 -32.6 L-0.7 -30.0 -1.05 -15.2 -0.7 -30.0 0.1 -32.6 M0.6 2.1 L-0.05 2.6 -0.3 2.85 -0.05 2.6 0.6 2.1 M-0.05 3.25 L-0.05 2.6 -0.05 3.25 M-0.1 3.8 Q-0.55 3.85 -0.3 5.0 -0.55 3.85 -0.1 3.8" fill="url(#gradient0)" fill-rule="evenodd" stroke="none"/>
    <path d="M1.4 -3.6 L-1.2 -3.6 -1.05 -15.2 -1.0 -30.15 Q-0.45 -32.15 0.1 -33.2 1.1 -31.6 1.3 -29.85 L1.4 -3.6 M0.6 -1.55 L0.6 -3.0 -0.3 -3.0 -0.3 -0.8 0.0 -1.05 0.6 -1.55 0.6 0.25 0.6 2.1 0.6 3.7 0.7 3.75 0.95 4.3 0.7 4.85 0.1 5.1 -0.3 5.0 -0.45 4.85 -0.65 4.3 -0.45 3.75 -0.3 3.65 -0.3 2.85 -0.3 1.0 -0.3 -0.8 M-0.3 3.65 Q-0.1 3.5 0.1 3.5 L0.6 3.7 M0.0 0.8 L-0.3 1.0 M-0.3 2.85 L-0.05 2.6 0.6 2.1 M0.6 0.25 L0.0 0.8" fill="none" stroke="#000000" stroke-linecap="round" stroke-linejoin="round" stroke-width="0.05"/>
    <path d="M0.0 -1.05 L0.0 -2.25 M-1.05 -15.2 L-0.7 -30.0 0.1 -32.6 M-0.05 2.6 L0.0 0.8 0.0 -1.05 M-0.3 5.0 Q-0.55 3.85 -0.1 3.8 M-0.05 2.6 L-0.05 3.25" fill="none" stroke="#ffffff" stroke-linecap="round" stroke-linejoin="round" stroke-width="0.05"/>
    <path d="M0.8 -28.3 L0.9 -3.65 -0.7 -3.65 -0.55 -28.6 0.1 -31.5 Q0.7 -30.0 0.8 -28.3" fill="url(#gradient1)" fill-rule="evenodd" stroke="none"/>
    <path d="M3.8 -4.0 L3.9 -3.55 3.8 -4.0 Q4.45 -4.55 4.55 -3.8 4.65 -3.15 4.15 -3.4 L3.9 -3.55 2.5 -3.1 Q1.75 -2.65 1.1 -2.55 L0.15 -2.5 -0.85 -2.6 -2.2 -3.05 Q-2.9 -3.45 -3.7 -3.55 L-3.95 -3.4 Q-4.45 -3.15 -4.35 -3.8 -4.25 -4.55 -3.55 -4.0 L-2.05 -3.85 -0.4 -3.95 0.6 -3.95 2.25 -3.85 3.8 -4.0 M0.75 -3.35 L1.3 -3.35 1.75 -3.65 0.6 -3.95 1.75 -3.65 1.3 -3.35 0.75 -3.35 M-3.55 -4.0 L-3.7 -3.55 -3.55 -4.0 M-0.55 -3.35 L-1.1 -3.35 -1.55 -3.65 -0.4 -3.95 -1.55 -3.65 -1.1 -3.35 -0.55 -3.35" fill="url(#gradient2)" fill-rule="evenodd" stroke="none"/>
    <path d="M0.65 4.35 L0.65 4.4 Q0.05 5.2 -0.15 4.25 L0.05 4.0 0.2 3.95 Q0.6 4.0 0.65 4.35" fill="#1e1e1e" fill-opacity="0.3137255" fill-rule="evenodd" stroke="none"/>
    <path d="M3.9 -3.55 L3.8 -4.0 2.25 -3.85 0.6 -3.95 1.75 -3.65 1.3 -3.35 0.75 -3.35 M3.8 -4.0 Q4.45 -4.55 4.55 -3.8 4.65 -3.15 4.15 -3.4 L3.9 -3.55 2.5 -3.1 Q1.75 -2.65 1.1 -2.55 L0.15 -2.5 -0.85 -2.6 -2.2 -3.05 Q-2.9 -3.45 -3.7 -3.55 L-3.95 -3.4 Q-4.45 -3.15 -4.35 -3.8 -4.25 -4.55 -3.55 -4.0 L-2.05 -3.85 -0.4 -3.95 0.6 -3.95 M-0.4 -3.95 L-1.55 -3.65 -1.1 -3.35 -0.55 -3.35 M-3.7 -3.55 L-3.55 -4.0" fill="none" stroke="#000000" stroke-linecap="round" stroke-linejoin="round" stroke-width="0.05"/>
  </g>
  <defs>
    <linearGradient gradientTransform="matrix(0.0016, 0.0, 0.0, 0.0184, 0.1, -18.7)" gradientUnits="userSpaceOnUse" id="gradient0" spreadMethod="pad" x1="-819.2" x2="819.2">
      <stop offset="0.0" stop-color="#ffffff"/>
      <stop offset="0.2" stop-color="#e7e7e7"/>
      <stop offset="1.0" stop-color="#afb0bc"/>
    </linearGradient>
    <linearGradient gradientTransform="matrix(0.001, 0.0, 0.0, 0.017, 0.1, -17.6)" gradientUnits="userSpaceOnUse" id="gradient1" spreadMethod="pad" x1="-819.2" x2="819.2">
      <stop offset="0.0" stop-color="#1e1e1e" stop-opacity="0.3019608"/>
      <stop offset="0.5058823529411764" stop-color="#0f0f0f" stop-opacity="0.68235296"/>
      <stop offset="1.0" stop-color="#1e1e1e" stop-opacity="0.3019608"/>
    </linearGradient>
    <linearGradient gradientTransform="matrix(0.0016, 0.0, 0.0, 0.0184, 0.1, -18.7)" gradientUnits="userSpaceOnUse" id="gradient2" spreadMethod="pad" x1="-819.2" x2="819.2">
      <stop offset="0.0" stop-color="#ffffff"/>
      <stop offset="0.2" stop-color="#e7e7e7"/>
      <stop offset="1.0" stop-color="#afb0bc"/>
    </linearGradient>
  </defs>
</svg>
