<?xml version="1.0" encoding="UTF-8" standalone="no"?>
<svg xmlns:xlink="http://www.w3.org/1999/xlink" height="39.55px" width="11.8px" xmlns="http://www.w3.org/2000/svg">
  <g transform="matrix(1.0, 0.0, 0.0, 1.0, 0.0, 0.0)">
    <path d="M0.5 -24.05 L0.5 5.9 Q-0.15 6.8 -0.85 5.9 L-0.85 -24.05 0.5 -24.05" fill="url(#gradient0)" fill-rule="evenodd" stroke="none"/>
    <path d="M0.5 -24.05 L0.5 5.9 Q-0.15 6.8 -0.85 5.9 L-0.85 -24.05 0.5 -24.05 Z" fill="none" stroke="#000000" stroke-linecap="round" stroke-linejoin="round" stroke-width="0.05"/>
    <path d="M-0.75 -31.1 L-0.05 -33.2 0.5 -31.05 -0.3 -31.15 -0.75 -31.1 M2.3 -30.2 L3.55 -30.45 3.15 -29.2 2.5 -29.95 2.3 -30.2 M3.7 -27.6 L5.7 -26.6 3.6 -26.25 3.7 -27.25 3.7 -27.6 M3.05 -25.05 L3.4 -23.35 1.85 -23.95 2.5 -24.45 3.05 -25.05 M0.55 -23.35 L-0.3 -21.3 -0.8 -23.35 -0.3 -23.3 0.55 -23.35 M-2.4 -23.95 L-3.65 -23.5 -3.3 -24.8 -3.0 -24.45 -2.4 -23.95 M-4.15 -26.75 L-6.1 -27.6 -4.1 -28.0 -4.15 -27.25 -4.15 -26.75 M-3.25 -29.75 L-3.35 -31.0 -2.0 -30.75 -3.0 -29.95 -3.25 -29.75" fill="#9b867b" fill-rule="evenodd" stroke="none"/>
    <path d="M0.5 -31.05 Q1.5 -30.9 2.3 -30.2 L2.5 -29.95 3.15 -29.2 Q3.6 -28.5 3.7 -27.6 L3.7 -27.25 3.6 -26.25 3.1 -25.2 3.05 -25.05 2.5 -24.45 1.85 -23.95 0.55 -23.35 -0.3 -23.3 -0.8 -23.35 Q-1.7 -23.5 -2.4 -23.95 L-3.0 -24.45 -3.3 -24.8 Q-4.0 -25.7 -4.15 -26.75 L-4.15 -27.25 -4.1 -28.0 -3.35 -29.6 -3.25 -29.75 -3.0 -29.95 -2.0 -30.75 -0.75 -31.1 -0.3 -31.15 0.5 -31.05 M0.55 -27.35 L0.25 -27.95 -0.3 -28.2 -0.8 -27.95 -1.05 -27.4 -0.8 -26.8 Q-0.65 -26.65 -0.3 -26.6 L0.25 -26.8 0.55 -27.35" fill="url(#gradient1)" fill-rule="evenodd" stroke="none"/>
    <path d="M0.55 -27.35 L0.25 -26.8 -0.3 -26.6 Q-0.65 -26.65 -0.8 -26.8 L-1.05 -27.4 -0.8 -27.95 -0.3 -28.2 0.25 -27.95 0.55 -27.35" fill="url(#gradient2)" fill-rule="evenodd" stroke="none"/>
    <path d="M-0.75 -31.1 L-0.05 -33.2 0.5 -31.05 Q1.5 -30.9 2.3 -30.2 L3.55 -30.45 3.15 -29.2 Q3.6 -28.5 3.7 -27.6 L5.7 -26.6 3.6 -26.25 3.1 -25.2 3.05 -25.05 3.4 -23.35 1.85 -23.95 0.55 -23.35 -0.3 -21.3 -0.8 -23.35 Q-1.7 -23.5 -2.4 -23.95 L-3.65 -23.5 -3.3 -24.8 Q-4.0 -25.7 -4.15 -26.75 L-6.1 -27.6 -4.1 -28.0 -3.35 -29.6 -3.25 -29.75 -3.35 -31.0 -2.0 -30.75 -0.75 -31.1 -0.3 -31.15 0.5 -31.05 M0.55 -27.35 L0.25 -26.8 -0.3 -26.6 Q-0.65 -26.65 -0.8 -26.8 L-1.05 -27.4 -0.8 -27.95 -0.3 -28.2 0.25 -27.95 0.55 -27.35 M2.3 -30.2 L2.5 -29.95 3.15 -29.2 M3.7 -27.6 L3.7 -27.25 3.6 -26.25 M3.05 -25.05 L2.5 -24.45 1.85 -23.95 M-4.15 -26.75 L-4.15 -27.25 -4.1 -28.0 M-3.25 -29.75 L-3.0 -29.95 -2.0 -30.75 M-2.4 -23.95 L-3.0 -24.45 -3.3 -24.8 M0.55 -23.35 L-0.3 -23.3 -0.8 -23.35" fill="none" stroke="#000000" stroke-linecap="round" stroke-linejoin="round" stroke-width="0.05"/>
  </g>
  <defs>
    <linearGradient gradientTransform="matrix(8.0E-4, 0.0, 0.0, 0.0392, -0.2, 14.85)" gradientUnits="userSpaceOnUse" id="gradient0" spreadMethod="pad" x1="-819.2" x2="819.2">
      <stop offset="0.0" stop-color="#413732"/>
      <stop offset="0.5372549019607843" stop-color="#9b867b"/>
      <stop offset="1.0" stop-color="#413732"/>
    </linearGradient>
    <radialGradient cx="0" cy="0" gradientTransform="matrix(0.0052, 0.0, 0.0, 0.0052, -0.95, -27.9)" gradientUnits="userSpaceOnUse" id="gradient1" r="819.2" spreadMethod="pad">
      <stop offset="0.0" stop-color="#b3b3b3"/>
      <stop offset="0.43529411764705883" stop-color="#9b867b"/>
      <stop offset="1.0" stop-color="#413732"/>
    </radialGradient>
    <radialGradient cx="0" cy="0" gradientTransform="matrix(0.0013, 0.0, 0.0, 0.0013, -0.3, -27.4)" gradientUnits="userSpaceOnUse" id="gradient2" r="819.2" spreadMethod="pad">
      <stop offset="0.0" stop-color="#b3b3b3"/>
      <stop offset="0.43529411764705883" stop-color="#9b867b"/>
      <stop offset="1.0" stop-color="#413732"/>
    </radialGradient>
  </defs>
</svg>
