<?xml version="1.0" encoding="UTF-8" standalone="no"?>
<svg xmlns:xlink="http://www.w3.org/1999/xlink" height="38.6px" width="4.2px" xmlns="http://www.w3.org/2000/svg">
  <g transform="matrix(1.0, 0.0, 0.0, 1.0, 0.0, 0.0)">
    <path d="M0.6 3.7 L0.15 3.6 -0.3 3.75 -0.3 -3.2 0.6 -3.2 0.6 3.7" fill="#000000" fill-rule="evenodd" stroke="none"/>
    <path d="M2.05 -29.85 L2.2 -4.25 -1.85 -4.25 -1.55 -30.15 Q-0.7 -32.15 0.15 -33.2 1.75 -31.6 2.05 -29.85" fill="url(#gradient0)" fill-rule="evenodd" stroke="none"/>
    <path d="M-0.3 3.75 L0.15 3.6 0.6 3.7 0.8 3.85 1.1 4.5 0.8 5.15 0.15 5.4 -0.5 5.15 -0.75 4.5 -0.5 3.85 -0.3 3.75" fill="#8d6846" fill-rule="evenodd" stroke="none"/>
    <path d="M2.05 -29.85 L2.2 -4.25 -1.85 -4.25 -1.55 -30.15 Q-0.7 -32.15 0.15 -33.2 1.75 -31.6 2.05 -29.85 M0.6 3.7 L0.15 3.6 -0.3 3.75 -0.5 3.85 -0.75 4.5 -0.5 5.15 0.15 5.4 0.8 5.15 1.1 4.5 0.8 3.85 0.6 3.7 0.6 -3.2 -0.3 -3.2 -0.3 3.75" fill="none" stroke="#000000" stroke-linecap="round" stroke-linejoin="round" stroke-width="0.05"/>
    <path d="M0.8 -3.2 L0.6 -3.7 0.1 -3.85 -0.35 -3.7 -0.55 -3.2 -0.35 -2.75 Q-0.15 -2.55 0.1 -2.55 L0.6 -2.75 0.8 -3.2 M1.5 -2.25 L-1.05 -2.25 -1.9 -4.35 2.3 -4.35 1.5 -2.25" fill="#8d6846" fill-rule="evenodd" stroke="none"/>
    <path d="M0.4 -3.6 L0.3 -3.55 0.25 -3.3 0.0 -3.2 -0.05 -3.2 -0.1 -3.1 Q-0.15 -3.0 -0.35 -3.0 L0.2 -2.7 0.6 -2.95 0.6 -3.1 0.6 -3.45 0.55 -3.5 0.4 -3.6 M0.8 -3.2 L0.6 -2.75 0.1 -2.55 Q-0.15 -2.55 -0.35 -2.75 L-0.55 -3.2 -0.35 -3.7 0.1 -3.85 0.6 -3.7 0.8 -3.2 M-0.1 -3.65 L-0.35 -3.45 -0.35 -3.35 -0.35 -3.2 -0.3 -3.25 -0.25 -3.35 -0.2 -3.35 Q0.2 -3.55 0.0 -3.7 L-0.1 -3.65" fill="#0066ff" fill-rule="evenodd" stroke="none"/>
    <path d="M0.4 -3.6 L0.55 -3.5 0.6 -3.45 0.6 -3.1 0.6 -2.95 0.2 -2.7 -0.35 -3.0 Q-0.15 -3.0 -0.1 -3.1 L-0.05 -3.2 0.0 -3.2 0.25 -3.3 0.3 -3.55 0.4 -3.6" fill="#013f89" fill-rule="evenodd" stroke="none"/>
    <path d="M-0.1 -3.65 L0.0 -3.7 Q0.2 -3.55 -0.2 -3.35 L-0.25 -3.35 -0.3 -3.25 -0.35 -3.2 -0.35 -3.35 -0.35 -3.45 -0.1 -3.65" fill="#8bbffe" fill-rule="evenodd" stroke="none"/>
    <path d="M1.5 -2.25 L-1.05 -2.25 -1.9 -4.35 2.3 -4.35 1.5 -2.25" fill="none" stroke="#000000" stroke-linecap="round" stroke-linejoin="round" stroke-width="0.05"/>
    <path d="M0.8 -3.2 L0.6 -2.75 0.1 -2.55 Q-0.15 -2.55 -0.35 -2.75 L-0.55 -3.2 -0.35 -3.7 0.1 -3.85 0.6 -3.7 0.8 -3.2 Z" fill="none" stroke="#000099" stroke-linecap="round" stroke-linejoin="round" stroke-width="0.05"/>
  </g>
  <defs>
    <linearGradient gradientTransform="matrix(0.0025, 0.0, 0.0, 0.0184, 0.15, -18.7)" gradientUnits="userSpaceOnUse" id="gradient0" spreadMethod="pad" x1="-819.2" x2="819.2">
      <stop offset="0.0" stop-color="#c5c5c5"/>
      <stop offset="0.2" stop-color="#8e8e8e"/>
      <stop offset="1.0" stop-color="#575757"/>
    </linearGradient>
  </defs>
</svg>
