<?xml version="1.0" encoding="UTF-8" standalone="no"?>
<svg xmlns:xlink="http://www.w3.org/1999/xlink" height="39.35px" width="6.15px" xmlns="http://www.w3.org/2000/svg">
  <g transform="matrix(1.0, 0.0, 0.0, 1.0, 0.0, 0.0)">
    <path d="M0.05 -7.25 L0.05 -7.3 0.1 -7.4 0.1 -7.2 0.05 -7.25 M0.05 -7.3 L0.1 -7.2 0.05 -7.3" fill="url(#gradient0)" fill-rule="evenodd" stroke="none"/>
    <path d="M-0.65 -6.2 L-0.55 -29.5 Q-0.2 -31.45 0.15 -31.85 0.8 -30.9 0.95 -29.2 L1.05 -5.9 0.95 -29.2 Q0.8 -30.9 0.15 -31.85 -0.2 -31.45 -0.55 -29.5 L-0.65 -6.2 -1.15 -5.45 -1.0 -30.15 Q-0.45 -32.15 0.1 -33.2 1.1 -31.6 1.3 -29.85 L1.4 -5.35 1.05 -5.9 0.1 -7.2 0.1 -7.4 0.05 -7.3 0.05 -7.25 -0.65 -6.2 M0.1 -19.55 L0.1 -7.4 0.1 -19.55 M0.1 -24.0 L0.1 -23.1 0.1 -24.0" fill="url(#gradient1)" fill-rule="evenodd" stroke="none"/>
    <path d="M-0.65 -6.2 L0.05 -7.25 0.1 -7.2 1.05 -5.9 1.4 -5.35 1.4 -3.95 3.15 -4.35 2.15 -2.5 0.85 -2.5 -0.55 -2.5 -2.0 -2.5 -3.0 -4.35 -1.2 -3.95 -1.15 -5.45 -0.65 -6.2 M0.6 4.3 L0.75 4.35 0.85 4.4 0.95 4.5 0.8 4.9 0.9 5.1 1.0 5.3 0.7 6.05 -0.25 6.15 -0.7 5.3 -0.55 5.15 -0.5 5.1 -0.55 4.95 -0.65 4.35 -0.35 3.95 -0.3 3.95 0.6 4.3 M0.55 -5.45 L0.1 -5.65 -0.35 -5.45 -0.55 -5.0 -0.35 -4.55 Q-0.15 -4.35 0.1 -4.35 L0.55 -4.55 0.75 -5.0 0.55 -5.45 M-1.2 -3.95 Q0.1 -3.8 1.4 -3.95 0.1 -3.8 -1.2 -3.95" fill="#cecee2" fill-rule="evenodd" stroke="none"/>
    <path d="M0.85 -2.5 L0.8 -1.2 0.75 0.9 0.6 4.3 -0.3 3.95 -0.4 1.8 -0.45 -0.35 -0.55 -2.5 0.85 -2.5 M0.75 0.9 L-0.4 1.8 0.75 0.9 M-0.45 -0.35 L0.8 -1.2 -0.45 -0.35" fill="#666666" fill-rule="evenodd" stroke="none"/>
    <path d="M0.55 -5.45 L0.75 -5.0 0.55 -4.55 0.1 -4.35 Q-0.15 -4.35 -0.35 -4.55 L-0.55 -5.0 -0.35 -5.45 0.1 -5.65 0.55 -5.45" fill="#ffffff" fill-rule="evenodd" stroke="none"/>
    <path d="M-0.65 -6.2 L0.05 -7.25 0.05 -7.3 0.1 -7.4 0.1 -7.2 0.05 -7.3 M-1.15 -5.45 L-1.0 -30.15 Q-0.45 -32.15 0.1 -33.2 1.1 -31.6 1.3 -29.85 L1.4 -5.35 1.4 -3.95 3.15 -4.35 2.15 -2.5 0.85 -2.5 0.8 -1.2 0.75 0.9 0.6 4.3 0.75 4.35 0.85 4.4 0.95 4.5 0.8 4.9 0.9 5.1 1.0 5.3 0.7 6.05 -0.25 6.15 -0.7 5.3 -0.55 5.15 -0.5 5.1 -0.55 4.95 -0.65 4.35 -0.35 3.95 -0.3 3.95 -0.4 1.8 -0.45 -0.35 -0.55 -2.5 -2.0 -2.5 -3.0 -4.35 -1.2 -3.95 -1.15 -5.45 -0.65 -6.2 M1.4 -5.35 L1.05 -5.9 0.1 -7.2 M1.4 -3.95 Q0.1 -3.8 -1.2 -3.95 M-0.55 -2.5 L0.85 -2.5 M0.8 -1.2 L-0.45 -0.35 M-0.4 1.8 L0.75 0.9 M0.6 4.3 L-0.3 3.95" fill="none" stroke="#000000" stroke-linecap="round" stroke-linejoin="round" stroke-width="0.05"/>
    <path d="M0.1 -7.4 L0.1 -19.55 M0.1 -23.1 L0.1 -24.0" fill="none" stroke="#ffffff" stroke-linecap="round" stroke-linejoin="round" stroke-width="0.05"/>
    <path d="M1.05 -5.9 L0.95 -29.2 Q0.8 -30.9 0.15 -31.85 -0.2 -31.45 -0.55 -29.5 L-0.65 -6.2" fill="none" stroke="#ffffff" stroke-linecap="round" stroke-linejoin="round" stroke-width="0.05"/>
    <path d="M0.55 -5.45 L0.75 -5.0 0.55 -4.55 0.1 -4.35 Q-0.15 -4.35 -0.35 -4.55 L-0.55 -5.0 -0.35 -5.45 0.1 -5.65 0.55 -5.45 Z" fill="none" stroke="#666666" stroke-linecap="round" stroke-linejoin="round" stroke-width="0.05"/>
  </g>
  <defs>
    <linearGradient gradientTransform="matrix(0.0016, 0.0, 0.0, 0.0184, 0.1, -18.7)" gradientUnits="userSpaceOnUse" id="gradient0" spreadMethod="pad" x1="-819.2" x2="819.2">
      <stop offset="0.0" stop-color="#effff2"/>
      <stop offset="0.2" stop-color="#ceb8a4"/>
      <stop offset="1.0" stop-color="#6a5136"/>
    </linearGradient>
    <linearGradient gradientTransform="matrix(0.0079, 0.0138, -0.025, 0.0143, 12.25, -24.2)" gradientUnits="userSpaceOnUse" id="gradient1" spreadMethod="pad" x1="-819.2" x2="819.2">
      <stop offset="0.0" stop-color="#ceceec"/>
      <stop offset="0.28627450980392155" stop-color="#ffffff"/>
      <stop offset="0.5490196078431373" stop-color="#c1c1d5"/>
      <stop offset="0.7294117647058823" stop-color="#e7e7fb"/>
      <stop offset="0.8509803921568627" stop-color="#a7a7bb"/>
      <stop offset="1.0" stop-color="#acacc0"/>
    </linearGradient>
  </defs>
</svg>
