<?xml version="1.0" encoding="UTF-8" standalone="no"?>
<svg xmlns:xlink="http://www.w3.org/1999/xlink" height="40.35px" width="7.0px" xmlns="http://www.w3.org/2000/svg">
  <g transform="matrix(1.0, 0.0, 0.0, 1.0, 0.0, 0.0)">
    <path d="M1.1 -2.8 L0.35 -0.2 0.25 0.5 0.1 1.55 -0.15 3.25 -0.5 3.35 -0.85 3.45 -0.85 2.15 -0.95 1.45 -1.1 0.65 -0.15 -2.05 0.3 -2.6 1.1 -2.8 M0.1 1.55 L-0.85 2.15 0.1 1.55 M0.25 0.5 L-0.95 1.45 0.25 0.5" fill="#336600" fill-rule="evenodd" stroke="none"/>
    <path d="M1.0 -5.35 L2.55 -4.95 3.9 -3.0 Q4.35 -1.7 3.7 0.7 3.0 3.05 2.1 4.2 L1.7 4.55 1.0 4.35 Q1.95 3.65 2.45 0.7 2.95 -2.25 1.1 -2.8 L0.3 -2.6 -0.15 -2.05 -1.1 0.65 Q-1.45 0.75 -1.75 0.05 -2.6 -1.85 -2.5 -3.95 L-1.85 -4.65 -1.2 -5.15 -0.5 -5.25 1.0 -5.35 M-0.15 3.25 L0.45 3.95 0.05 6.25 0.65 6.95 -0.3 7.05 -0.7 6.45 Q-1.25 5.3 -1.2 4.0 L-0.95 3.55 -0.5 3.35 -0.15 3.25" fill="#67ab6a" fill-rule="evenodd" stroke="none"/>
    <path d="M-1.2 -5.15 Q-5.85 -26.65 2.3 -33.3 L2.55 -33.3 2.5 -33.0 Q1.55 -26.65 2.5 -25.3 -2.05 -16.1 1.0 -5.35 L-0.5 -5.25 -1.2 -5.15 M2.5 -33.0 Q-5.0 -26.1 -0.5 -5.25 -5.0 -26.1 2.5 -33.0" fill="url(#gradient0)" fill-rule="evenodd" stroke="none"/>
    <path d="M-1.2 -5.15 Q-5.85 -26.65 2.3 -33.3 L2.55 -33.3 2.5 -33.0 Q1.55 -26.65 2.5 -25.3 -2.05 -16.1 1.0 -5.35 L2.55 -4.95 3.9 -3.0 Q4.35 -1.7 3.7 0.7 3.0 3.05 2.1 4.2 L1.7 4.55 1.0 4.35 Q1.95 3.65 2.45 0.7 2.95 -2.25 1.1 -2.8 L0.35 -0.2 0.25 0.5 0.1 1.55 -0.15 3.25 0.45 3.95 0.05 6.25 0.65 6.95 -0.3 7.05 -0.7 6.45 Q-1.25 5.3 -1.2 4.0 L-0.95 3.55 -0.85 3.45 -0.85 2.15 -0.95 1.45 -1.1 0.65 Q-1.45 0.75 -1.75 0.05 -2.6 -1.85 -2.5 -3.95 L-1.85 -4.65 -1.2 -5.15 -0.5 -5.25 1.0 -5.35 M1.1 -2.8 L0.3 -2.6 -0.15 -2.05 -1.1 0.65 M-0.95 3.55 L-0.5 3.35 -0.15 3.25 M-0.85 2.15 L0.1 1.55 M-0.95 1.45 L0.25 0.5" fill="none" stroke="#000000" stroke-linecap="round" stroke-linejoin="round" stroke-width="0.05"/>
    <path d="M-0.5 -5.25 Q-5.0 -26.1 2.5 -33.0" fill="none" stroke="#ffffff" stroke-linecap="round" stroke-linejoin="round" stroke-width="0.05"/>
  </g>
  <defs>
    <linearGradient gradientTransform="matrix(-0.0052, -0.0143, 0.0159, -0.0058, 0.25, -19.25)" gradientUnits="userSpaceOnUse" id="gradient0" spreadMethod="pad" x1="-819.2" x2="819.2">
      <stop offset="0.0" stop-color="#99734d"/>
      <stop offset="0.2980392156862745" stop-color="#d0bca8"/>
      <stop offset="0.5686274509803921" stop-color="#98845c"/>
      <stop offset="0.7725490196078432" stop-color="#dcd3c7"/>
      <stop offset="1.0" stop-color="#98845c"/>
    </linearGradient>
  </defs>
</svg>
