<?xml version="1.0" encoding="UTF-8" standalone="no"?>
<svg xmlns:xlink="http://www.w3.org/1999/xlink" height="40.6px" width="8.1px" xmlns="http://www.w3.org/2000/svg">
  <g transform="matrix(1.0, 0.0, 0.0, 1.0, 0.0, 0.0)">
    <path d="M-2.05 2.15 L-1.75 2.5 -2.05 2.2 -2.05 2.15" fill="#75b2cf" fill-rule="evenodd" stroke="none"/>
    <path d="M1.25 -4.55 L-0.45 -4.55 -1.1 -4.55 Q-3.85 -29.1 1.6 -34.1 L2.2 -34.25 4.25 -34.85 Q-1.6 -26.85 1.25 -4.55 M2.2 -34.25 Q-3.2 -29.1 -0.45 -4.55 -3.2 -29.1 2.2 -34.25" fill="url(#gradient0)" fill-rule="evenodd" stroke="none"/>
    <path d="M-2.05 2.2 Q-5.45 -0.7 -2.5 -3.35 L-1.75 -3.35 Q-4.55 -0.85 -2.05 2.15 L-2.05 2.2" fill="#3d2312" fill-rule="evenodd" stroke="none"/>
    <path d="M0.5 3.55 L-0.25 3.4 Q-1.4 0.35 -0.55 -2.85 L0.5 -2.85 Q1.4 0.05 0.5 3.55" fill="#5a3416" fill-rule="evenodd" stroke="none"/>
    <path d="M1.25 -4.55 L-0.45 -4.55 -1.1 -4.55 Q-3.85 -29.1 1.6 -34.1 L2.2 -34.25 4.25 -34.85 Q-1.6 -26.85 1.25 -4.55 M-2.05 2.2 Q-5.45 -0.7 -2.5 -3.35 L-1.75 -3.35 Q-4.55 -0.85 -2.05 2.15 L-1.75 2.5 -2.05 2.2 M0.5 3.55 L-0.25 3.4 Q-1.4 0.35 -0.55 -2.85 L0.5 -2.85 Q1.4 0.05 0.5 3.55" fill="none" stroke="#000000" stroke-linecap="round" stroke-linejoin="round" stroke-width="0.05"/>
    <path d="M-0.45 -4.55 Q-3.2 -29.1 2.2 -34.25" fill="none" stroke="#ffffff" stroke-linecap="round" stroke-linejoin="round" stroke-width="0.05"/>
    <path d="M0.0 -3.05 L-0.55 -3.3 -0.8 -3.9 -0.55 -4.45 0.0 -4.65 0.55 -4.45 0.8 -3.85 0.55 -3.3 Q0.35 -3.05 0.0 -3.05" fill="#ffff00" fill-rule="evenodd" stroke="none"/>
    <path d="M1.3 -4.65 L3.8 -3.9 Q0.5 -3.1 0.05 -1.3 -1.15 -3.35 -3.8 -3.95 L-1.9 -4.4 Q-0.85 -4.8 0.0 -5.6 L1.3 -4.65 M0.0 -3.05 Q0.35 -3.05 0.55 -3.3 L0.8 -3.85 0.55 -4.45 0.0 -4.65 -0.55 -4.45 -0.8 -3.9 -0.55 -3.3 0.0 -3.05" fill="#3d2312" fill-rule="evenodd" stroke="none"/>
    <path d="M1.3 -4.65 L3.8 -3.9 Q0.5 -3.1 0.05 -1.3 -1.15 -3.35 -3.8 -3.95 L-1.9 -4.4 Q-0.85 -4.8 0.0 -5.6 L1.3 -4.65 M0.0 -3.05 L-0.55 -3.3 -0.8 -3.9 -0.55 -4.45 0.0 -4.65 0.55 -4.45 0.8 -3.85 0.55 -3.3 Q0.35 -3.05 0.0 -3.05" fill="none" stroke="#000000" stroke-linecap="round" stroke-linejoin="round" stroke-width="0.05"/>
    <path d="M-0.6 -5.85 L0.45 -6.15 0.25 -7.25 -0.6 -7.1 -0.95 -7.65 -1.0 -7.9 -0.8 -8.2 -0.6 -8.3 -0.5 -8.35 -0.4 -9.9 -1.35 -11.3 -1.2 -11.8 -0.25 -12.5 -0.2 -12.8 -0.15 -13.15 -0.2 -13.4 -0.45 -13.95 M-0.15 -20.0 L-0.25 -23.3 -0.3 -23.4 -0.6 -23.4 -0.7 -23.55 -0.75 -24.55 M-1.05 -14.85 L-0.85 -15.3 Q-1.45 -16.95 -1.1 -18.65 -1.65 -19.55 -1.3 -20.5 L-0.8 -21.3" fill="none" stroke="#ffff00" stroke-linecap="round" stroke-linejoin="round" stroke-width="0.05"/>
    <path d="M0.1 5.75 Q-0.75 4.05 -2.6 3.55 L-1.0 3.65 Q-0.5 3.65 0.1 2.2 L0.3 3.15 Q0.2 3.45 2.75 3.6 0.45 4.25 0.1 5.75" fill="#3d2312" fill-rule="evenodd" stroke="none"/>
    <path d="M0.1 5.75 Q-0.75 4.05 -2.6 3.55 L-1.0 3.65 Q-0.5 3.65 0.1 2.2 L0.3 3.15 Q0.2 3.45 2.75 3.6 0.45 4.25 0.1 5.75 Z" fill="none" stroke="#000000" stroke-linecap="round" stroke-linejoin="round" stroke-width="0.05"/>
  </g>
  <defs>
    <linearGradient gradientTransform="matrix(0.0079, 0.0138, -0.025, 0.0143, 12.25, -24.2)" gradientUnits="userSpaceOnUse" id="gradient0" spreadMethod="pad" x1="-819.2" x2="819.2">
      <stop offset="0.0" stop-color="#ceceec"/>
      <stop offset="0.28627450980392155" stop-color="#ffffff"/>
      <stop offset="0.5490196078431373" stop-color="#c1c1d5"/>
      <stop offset="0.7294117647058823" stop-color="#e7e7fb"/>
      <stop offset="0.8509803921568627" stop-color="#a7a7bb"/>
      <stop offset="1.0" stop-color="#acacc0"/>
    </linearGradient>
  </defs>
</svg>
