<?xml version="1.0" encoding="UTF-8" standalone="no"?>
<svg xmlns:xlink="http://www.w3.org/1999/xlink" height="39.35px" width="18.75px" xmlns="http://www.w3.org/2000/svg">
  <g transform="matrix(1.0, 0.0, 0.0, 1.0, 0.0, 0.0)">
    <path d="M-4.05 -3.85 Q-5.25 -6.1 -6.0 -3.95 -7.15 -5.55 -9.3 -4.4 -6.25 -6.2 -4.9 -8.45 -4.35 -6.6 -2.35 -5.6 L-1.05 -5.45 -1.15 -4.3 -1.2 -4.3 Q-2.9 -5.55 -4.05 -3.85" fill="#000000" fill-rule="evenodd" stroke="none"/>
    <path d="M4.2 -3.85 Q5.4 -6.1 6.15 -3.95 7.3 -5.55 9.45 -4.4 6.4 -6.2 5.05 -8.45 4.5 -6.6 2.5 -5.6 L1.2 -5.45 1.3 -4.3 1.35 -4.3 Q3.05 -5.55 4.2 -3.85" fill="#000000" fill-rule="evenodd" stroke="none"/>
    <path d="M-0.65 -6.2 L-0.55 -29.5 Q-0.2 -31.45 0.15 -31.85 0.8 -30.9 0.95 -29.2 L1.05 -5.9 0.1 -7.2 0.1 -7.4 0.05 -7.3 0.05 -7.25 -0.65 -6.2 M0.1 -24.0 L0.1 -23.1 0.1 -24.0 M0.1 -19.55 L0.1 -7.4 0.1 -19.55" fill="#330000" fill-rule="evenodd" stroke="none"/>
    <path d="M-1.15 -5.45 L-1.0 -30.15 Q-0.45 -32.15 0.1 -33.2 1.1 -31.6 1.3 -29.85 L1.4 -5.35 1.05 -5.9 0.95 -29.2 Q0.8 -30.9 0.15 -31.85 -0.2 -31.45 -0.55 -29.5 L-0.65 -6.2 -1.15 -5.45" fill="#660000" fill-rule="evenodd" stroke="none"/>
    <path d="M0.05 -7.25 L0.05 -7.3 0.1 -7.4 0.1 -7.2 0.05 -7.25 M0.05 -7.3 L0.1 -7.2 0.05 -7.3" fill="url(#gradient0)" fill-rule="evenodd" stroke="none"/>
    <path d="M-1.15 -5.45 L-0.65 -6.2 0.05 -7.25 0.1 -7.2 1.05 -5.9 1.4 -5.35 1.4 -3.95 2.7 -4.2 3.15 -4.35 2.9 -3.85 2.35 -2.8 2.15 -2.5 0.85 -2.5 -0.55 -2.5 -2.0 -2.5 -2.15 -2.75 -2.7 -3.8 -3.0 -4.35 -2.45 -4.2 -1.2 -3.95 -1.15 -5.45 M0.6 4.3 L0.75 4.35 0.85 4.4 0.95 4.5 0.8 4.9 0.9 5.1 1.0 5.3 0.7 6.05 -0.25 6.15 -0.7 5.3 -0.55 5.15 -0.5 5.1 -0.55 4.95 -0.65 4.35 -0.35 3.95 -0.3 3.95 0.6 4.3 M-1.2 -3.95 Q0.1 -3.8 1.4 -3.95 0.1 -3.8 -1.2 -3.95" fill="#3d2312" fill-rule="evenodd" stroke="none"/>
    <path d="M0.85 -2.5 L0.6 4.3 -0.3 3.95 -0.55 -2.5 0.85 -2.5" fill="#000000" fill-rule="evenodd" stroke="none"/>
    <path d="M2.9 -3.85 Q4.1 -3.4 4.4 -1.6 3.4 -2.85 2.35 -2.8 L2.9 -3.85 M-2.15 -2.75 Q-3.55 -2.9 -3.95 -1.6 -4.35 -3.15 -2.7 -3.8 L-2.15 -2.75" fill="#d0c18e" fill-rule="evenodd" stroke="none"/>
    <path d="M-0.65 -6.2 L-0.55 -29.5 Q-0.2 -31.45 0.15 -31.85 0.8 -30.9 0.95 -29.2 L1.05 -5.9" fill="none" stroke="#990000" stroke-linecap="round" stroke-linejoin="round" stroke-width="0.05"/>
    <path d="M1.4 -5.35 L1.3 -29.85 Q1.1 -31.6 0.1 -33.2 -0.45 -32.15 -1.0 -30.15 L-1.15 -5.45 -0.65 -6.2 0.05 -7.25 0.05 -7.3 0.1 -7.4 0.1 -7.2 0.05 -7.3 M1.05 -5.9 L1.4 -5.35 1.4 -3.95 2.7 -4.2 3.15 -4.35 2.9 -3.85 Q4.1 -3.4 4.4 -1.6 3.4 -2.85 2.35 -2.8 L2.15 -2.5 0.85 -2.5 -0.55 -2.5 -2.0 -2.5 -2.15 -2.75 Q-3.55 -2.9 -3.95 -1.6 -4.35 -3.15 -2.7 -3.8 L-3.0 -4.35 -2.45 -4.2 -1.2 -3.95 -1.15 -5.45 M0.6 4.3 L0.75 4.35 0.85 4.4 0.95 4.5 0.8 4.9 0.9 5.1 1.0 5.3 0.7 6.05 -0.25 6.15 -0.7 5.3 -0.55 5.15 -0.5 5.1 -0.55 4.95 -0.65 4.35 -0.35 3.95 -0.3 3.95 0.6 4.3 M2.35 -2.8 L2.9 -3.85 M1.05 -5.9 L0.1 -7.2 M-2.7 -3.8 L-2.15 -2.75 M1.4 -3.95 Q0.1 -3.8 -1.2 -3.95" fill="none" stroke="#000000" stroke-linecap="round" stroke-linejoin="round" stroke-width="0.05"/>
    <path d="M0.1 -23.1 L0.1 -24.0 M0.1 -7.4 L0.1 -19.55" fill="none" stroke="#000000" stroke-linecap="round" stroke-linejoin="round" stroke-width="0.5"/>
    <path d="M0.55 -4.25 L0.75 -3.8 0.55 -3.35 0.1 -3.15 Q-0.15 -3.15 -0.35 -3.35 L-0.55 -3.8 -0.35 -4.25 0.1 -4.45 0.55 -4.25" fill="#ff0000" fill-rule="evenodd" stroke="none"/>
    <path d="M0.55 -4.25 L0.75 -3.8 0.55 -3.35 0.1 -3.15 Q-0.15 -3.15 -0.35 -3.35 L-0.55 -3.8 -0.35 -4.25 0.1 -4.45 0.55 -4.25 Z" fill="none" stroke="#990000" stroke-linecap="round" stroke-linejoin="round" stroke-width="0.05"/>
  </g>
  <defs>
    <linearGradient gradientTransform="matrix(0.0016, 0.0, 0.0, 0.0184, 0.1, -18.7)" gradientUnits="userSpaceOnUse" id="gradient0" spreadMethod="pad" x1="-819.2" x2="819.2">
      <stop offset="0.0" stop-color="#effff2"/>
      <stop offset="0.2" stop-color="#ceb8a4"/>
      <stop offset="1.0" stop-color="#6a5136"/>
    </linearGradient>
  </defs>
</svg>
