<?xml version="1.0" encoding="UTF-8" standalone="no"?>
<svg xmlns:xlink="http://www.w3.org/1999/xlink" height="4.55px" width="8.9px" xmlns="http://www.w3.org/2000/svg">
  <g transform="matrix(1.0, 0.0, 0.0, 1.0, 0.0, 0.0)">
    <path d="M1.45 -3.2 Q0.95 -2.6 0.1 -2.6 -0.7 -2.6 -1.3 -3.2 -1.8 -3.7 -1.8 -4.5 -1.8 -5.3 -1.3 -5.85 -0.7 -6.4 0.1 -6.4 0.95 -6.4 1.45 -5.85 2.05 -5.3 2.05 -4.5 2.05 -3.7 1.45 -3.2" fill="url(#gradient0)" fill-rule="evenodd" stroke="none"/>
    <path d="M1.45 -3.2 Q0.95 -2.6 0.1 -2.6 -0.7 -2.6 -1.3 -3.2 -1.8 -3.7 -1.8 -4.5 -1.8 -5.3 -1.3 -5.85 -0.7 -6.4 0.1 -6.4 0.95 -6.4 1.45 -5.85 2.05 -5.3 2.05 -4.5 2.05 -3.7 1.45 -3.2 Z" fill="none" stroke="#00ff00" stroke-linecap="round" stroke-linejoin="round" stroke-width="0.05"/>
    <path d="M3.05 -4.75 L1.55 -5.7 Q0.55 -5.05 0.45 -3.85 L0.5 -2.85 Q1.9 -3.1 3.05 -4.75 M0.15 -6.6 Q2.0 -6.6 3.85 -4.95 L4.4 -4.35 4.6 -3.7 3.65 -4.4 Q1.9 -2.05 0.15 -2.05 L0.15 -4.7 0.15 -4.65 1.05 -5.85 0.15 -5.95 0.15 -6.6" fill="url(#gradient1)" fill-rule="evenodd" stroke="none"/>
    <path d="M0.15 -2.05 Q-1.65 -2.05 -3.35 -4.4 L-4.3 -3.7 -4.15 -4.35 -3.55 -4.95 Q-1.7 -6.6 0.15 -6.6 L0.15 -5.95 -0.75 -5.85 0.15 -4.65 0.15 -4.7 0.15 -2.05 M-2.75 -4.75 Q-1.6 -3.1 -0.2 -2.85 L-0.15 -3.85 Q-0.25 -5.05 -1.25 -5.7 -2.1 -5.4 -2.75 -4.75" fill="url(#gradient2)" fill-rule="evenodd" stroke="none"/>
    <path d="M3.05 -4.75 Q1.9 -3.1 0.5 -2.85 L0.45 -3.85 Q0.55 -5.05 1.55 -5.7 L3.05 -4.75 M0.15 -6.6 Q2.0 -6.6 3.85 -4.95 L4.4 -4.35 4.6 -3.7 3.65 -4.4 Q1.9 -2.05 0.15 -2.05 -1.65 -2.05 -3.35 -4.4 L-4.3 -3.7 -4.15 -4.35 -3.55 -4.95 Q-1.7 -6.6 0.15 -6.6 M0.15 -5.95 L1.05 -5.85 0.15 -4.65 0.15 -4.7 0.15 -4.65 -0.75 -5.85 0.15 -5.95 M-2.75 -4.75 Q-1.6 -3.1 -0.2 -2.85 L-0.15 -3.85 Q-0.25 -5.05 -1.25 -5.7 -2.1 -5.4 -2.75 -4.75 Z" fill="none" stroke="#000000" stroke-linecap="round" stroke-linejoin="round" stroke-width="0.05"/>
  </g>
  <defs>
    <radialGradient cx="0" cy="0" gradientTransform="matrix(0.0035, 0.0, 0.0, 0.0035, -0.3, -4.9)" gradientUnits="userSpaceOnUse" id="gradient0" r="819.2" spreadMethod="pad">
      <stop offset="0.08235294117647059" stop-color="#ffffff"/>
      <stop offset="0.3333333333333333" stop-color="#5eff00"/>
      <stop offset="0.8549019607843137" stop-color="#005100"/>
      <stop offset="1.0" stop-color="#006800"/>
    </radialGradient>
    <linearGradient gradientTransform="matrix(-0.0054, 0.0, 0.0, 0.0028, 0.15, -4.35)" gradientUnits="userSpaceOnUse" id="gradient1" spreadMethod="pad" x1="-819.2" x2="819.2">
      <stop offset="0.0" stop-color="#0f1d0e"/>
      <stop offset="0.25098039215686274" stop-color="#257525"/>
      <stop offset="0.5176470588235295" stop-color="#afe251"/>
      <stop offset="0.7215686274509804" stop-color="#257525"/>
      <stop offset="1.0" stop-color="#0f1d0e"/>
    </linearGradient>
    <linearGradient gradientTransform="matrix(0.0054, 0.0, 0.0, 0.0028, 0.15, -4.35)" gradientUnits="userSpaceOnUse" id="gradient2" spreadMethod="pad" x1="-819.2" x2="819.2">
      <stop offset="0.0" stop-color="#0f1d0e"/>
      <stop offset="0.25098039215686274" stop-color="#257525"/>
      <stop offset="0.5176470588235295" stop-color="#afe251"/>
      <stop offset="0.7215686274509804" stop-color="#257525"/>
      <stop offset="1.0" stop-color="#0f1d0e"/>
    </linearGradient>
  </defs>
</svg>
