<?xml version="1.0" encoding="UTF-8" standalone="no"?>
<svg xmlns:xlink="http://www.w3.org/1999/xlink" height="43.3px" width="12.8px" xmlns="http://www.w3.org/2000/svg">
  <g transform="matrix(1.0, 0.0, 0.0, 1.0, 0.0, 0.0)">
    <path d="M0.25 -13.6 L0.25 -13.55 0.25 -13.6" fill="#d50000" fill-rule="evenodd" stroke="none"/>
    <path d="M-1.25 -29.35 L-1.25 -29.45 Q-0.4 -33.0 0.25 -33.6 0.5 -33.5 1.75 -29.45 L1.75 -29.35 0.2 -27.75 -1.25 -29.35 0.2 -27.75 1.75 -29.35 1.75 -14.9 1.75 -12.1 0.25 -13.55 0.25 -13.6 0.25 -13.55 -1.25 -12.15 -1.25 -14.9 -1.25 -29.35 M0.2 -27.75 L0.25 -14.9 0.25 -13.6 0.25 -14.9 0.2 -27.75" fill="url(#gradient0)" fill-rule="evenodd" stroke="none"/>
    <path d="M1.75 -12.1 L1.75 -10.55 1.75 -6.55 1.75 -3.5 1.35 -3.5 0.25 -3.5 -0.95 -3.5 -1.25 -3.5 -1.25 -6.55 -1.25 -10.55 -1.25 -12.15 0.25 -13.55 1.75 -12.1 M1.2 -11.75 L0.2 -12.75 -0.95 -11.6 -0.95 -3.5 -0.95 -11.6 0.2 -12.75 1.2 -11.75 1.4 -11.55 1.35 -3.5 1.4 -11.55 1.2 -11.75 -0.4 -11.25 -0.4 -10.6 0.55 -10.5 0.8 -9.75 0.75 -9.65 0.55 -9.6 0.1 -9.6 -0.25 -9.55 -0.3 -9.2 Q0.15 -8.85 0.85 -8.75 L0.8 -7.75 0.15 -7.45 -0.35 -7.55 -0.6 -7.3 -0.35 -7.1 0.55 -6.7 0.55 -6.15 -0.25 -6.0 -0.4 -5.95 -0.4 -5.5 -0.3 -5.3 -0.1 -5.25 0.3 -5.0 -0.1 -5.25 -0.3 -5.3 -0.4 -5.5 -0.4 -5.95 -0.25 -6.0 0.55 -6.15 0.55 -6.7 -0.35 -7.1 -0.6 -7.3 -0.35 -7.55 0.15 -7.45 0.8 -7.75 0.85 -8.75 Q0.15 -8.85 -0.3 -9.2 L-0.25 -9.55 0.1 -9.6 0.55 -9.6 0.75 -9.65 0.8 -9.75 0.55 -10.5 -0.4 -10.6 -0.4 -11.25 1.2 -11.75" fill="#a87735" fill-rule="evenodd" stroke="none"/>
    <path d="M1.75 -29.35 L1.75 -29.45 Q0.5 -33.5 0.25 -33.6 -0.4 -33.0 -1.25 -29.45 L-1.25 -29.35 0.2 -27.75 1.75 -29.35 1.75 -14.9 1.75 -12.1 1.75 -10.55 1.75 -6.55 1.75 -3.5 1.35 -3.5 0.25 -3.5 -0.95 -3.5 -1.25 -3.5 -1.25 -6.55 -1.25 -10.55 -1.25 -12.15 -1.25 -14.9 -1.25 -29.35 M0.25 -13.6 L0.25 -13.55 1.75 -12.1 M0.25 -13.55 L0.25 -13.6 0.25 -14.9 0.2 -27.75 M0.25 -13.55 L-1.25 -12.15" fill="none" stroke="#000000" stroke-linecap="round" stroke-linejoin="round" stroke-width="0.05"/>
    <path d="M1.35 -3.5 L1.4 -11.55 1.2 -11.75 -0.4 -11.25 -0.4 -10.6 0.55 -10.5 0.8 -9.75 0.75 -9.65 0.55 -9.6 0.1 -9.6 -0.25 -9.55 -0.3 -9.2 Q0.15 -8.85 0.85 -8.75 L0.8 -7.75 0.15 -7.45 -0.35 -7.55 -0.6 -7.3 -0.35 -7.1 0.55 -6.7 0.55 -6.15 -0.25 -6.0 -0.4 -5.95 -0.4 -5.5 -0.3 -5.3 -0.1 -5.25 0.3 -5.0 M-0.95 -3.5 L-0.95 -11.6 0.2 -12.75 1.2 -11.75" fill="none" stroke="#ffffcc" stroke-linecap="round" stroke-linejoin="round" stroke-width="0.05"/>
    <path d="M0.55 -2.65 L0.7 -2.95 Q0.7 -3.4 0.15 -3.45 -0.4 -3.5 -0.4 -2.95 -0.4 -2.45 0.2 -2.45 L0.55 -2.65 M1.05 -2.25 L0.95 -2.25 0.25 -1.7 -0.45 -2.25 -0.55 -2.25 Q-5.35 -1.85 -5.35 -0.05 -6.8 -1.0 -5.55 -3.9 L-2.45 -3.65 0.25 -3.85 2.95 -3.65 6.05 -3.9 Q7.3 -1.0 5.85 -0.05 5.85 -1.85 1.05 -2.25 L1.05 -2.3 0.95 -2.25 1.05 -2.3 1.05 -2.25 M1.9 -2.85 L2.95 -3.65 1.9 -2.85 1.05 -2.3 1.9 -2.85 Q5.5 -2.95 5.9 -1.85 5.5 -2.95 1.9 -2.85 M-1.35 -2.85 L-0.55 -2.3 -0.45 -2.25 -0.55 -2.3 -0.55 -2.25 -0.55 -2.3 -1.35 -2.85 Q-4.95 -3.15 -5.65 -1.95 -4.95 -3.15 -1.35 -2.85 L-2.45 -3.65 -1.35 -2.85 M1.7 -3.3 Q0.25 -3.7 -1.25 -3.3 0.25 -3.7 1.7 -3.3" fill="#cc9900" fill-rule="evenodd" stroke="none"/>
    <path d="M-0.55 -2.25 L-0.45 -2.25 0.25 -1.7 0.95 -2.25 1.05 -2.25 1.05 6.6 -0.55 6.6 -0.55 -2.25" fill="#3d2312" fill-rule="evenodd" stroke="none"/>
    <path d="M0.55 -2.65 L0.2 -2.45 Q-0.4 -2.45 -0.4 -2.95 -0.4 -3.5 0.15 -3.45 0.7 -3.4 0.7 -2.95 L0.55 -2.65" fill="#d50000" fill-rule="evenodd" stroke="none"/>
    <path d="M1.05 -2.25 L0.95 -2.25 0.25 -1.7 -0.45 -2.25 -0.55 -2.25 -0.55 6.6 1.05 6.6 1.05 -2.25 1.05 -2.3 0.95 -2.25 M1.9 -2.85 L1.05 -2.3 M2.95 -3.65 L1.9 -2.85 M-0.55 -2.25 Q-5.35 -1.85 -5.35 -0.05 -6.8 -1.0 -5.55 -3.9 L-2.45 -3.65 0.25 -3.85 2.95 -3.65 6.05 -3.9 Q7.3 -1.0 5.85 -0.05 5.85 -1.85 1.05 -2.25 M-0.45 -2.25 L-0.55 -2.3 -0.55 -2.25 M-0.55 -2.3 L-1.35 -2.85 -2.45 -3.65" fill="none" stroke="#000000" stroke-linecap="round" stroke-linejoin="round" stroke-width="0.05"/>
    <path d="M1.9 -2.85 Q5.5 -2.95 5.9 -1.85 M-1.35 -2.85 Q-4.95 -3.15 -5.65 -1.95 M-1.25 -3.3 Q0.25 -3.7 1.7 -3.3" fill="none" stroke="#ffff99" stroke-linecap="round" stroke-linejoin="round" stroke-width="0.05"/>
    <path d="M0.95 8.55 L1.2 7.95 Q1.2 7.0 0.2 6.9 -0.8 6.8 -0.8 7.85 -0.8 9.0 0.15 9.0 L0.95 8.55 M1.4 9.2 Q0.95 9.7 0.25 9.7 -0.4 9.7 -0.9 9.2 -1.35 8.75 -1.35 8.05 -1.35 7.4 -0.9 6.95 L-0.4 6.65 0.25 6.5 Q0.95 6.5 1.4 6.95 1.85 7.4 1.85 8.1 1.85 8.75 1.4 9.2" fill="#cc9900" fill-rule="evenodd" stroke="none"/>
    <path d="M0.95 8.55 L0.15 9.0 Q-0.8 9.0 -0.8 7.85 -0.8 6.8 0.2 6.9 1.2 7.0 1.2 7.95 L0.95 8.55" fill="#d50000" fill-rule="evenodd" stroke="none"/>
    <path d="M1.4 9.2 Q0.95 9.7 0.25 9.7 -0.4 9.7 -0.9 9.2 -1.35 8.75 -1.35 8.05 -1.35 7.4 -0.9 6.95 L-0.4 6.65 0.25 6.5 Q0.95 6.5 1.4 6.95 1.85 7.4 1.85 8.1 1.85 8.75 1.4 9.2 Z" fill="none" stroke="#000000" stroke-linecap="round" stroke-linejoin="round" stroke-width="0.05"/>
  </g>
  <defs>
    <linearGradient gradientTransform="matrix(0.0079, 0.0138, -0.025, 0.0143, 12.25, -24.2)" gradientUnits="userSpaceOnUse" id="gradient0" spreadMethod="pad" x1="-819.2" x2="819.2">
      <stop offset="0.0" stop-color="#ceceec"/>
      <stop offset="0.28627450980392155" stop-color="#ffffff"/>
      <stop offset="0.5490196078431373" stop-color="#c1c1d5"/>
      <stop offset="0.7294117647058823" stop-color="#e7e7fb"/>
      <stop offset="0.8509803921568627" stop-color="#a7a7bb"/>
      <stop offset="1.0" stop-color="#acacc0"/>
    </linearGradient>
  </defs>
</svg>
