<?xml version="1.0" encoding="UTF-8" standalone="no"?>
<svg xmlns:xlink="http://www.w3.org/1999/xlink" height="39.45px" width="14.2px" xmlns="http://www.w3.org/2000/svg">
  <g transform="matrix(1.0, 0.0, 0.0, 1.0, 0.0, 0.0)">
    <path d="M0.65 -3.6 L0.65 -3.35 -0.1 -3.35 -0.35 -18.0 -0.1 -3.35 -0.55 -3.35 -0.55 -3.6 -0.55 -17.5 -0.35 -18.0 0.1 -19.05 0.65 -17.5 0.65 -3.6 M-0.3 3.7 L0.1 3.5 Q0.4 3.5 0.6 3.75 L0.7 3.9 1.0 4.9 0.7 5.85 0.1 6.25 -0.45 5.85 -0.7 4.85 -0.45 3.9 -0.3 3.7 M0.0 5.9 Q-0.65 4.9 0.0 3.85 -0.65 4.9 0.0 5.9" fill="#b8ae51" fill-rule="evenodd" stroke="none"/>
    <path d="M0.6 3.75 Q0.4 3.5 0.1 3.5 L-0.3 3.7 -0.3 -3.0 0.6 -3.0 0.6 3.75" fill="#48411e" fill-rule="evenodd" stroke="none"/>
    <path d="M0.65 -3.6 L0.65 -17.5 0.1 -19.05 -0.35 -18.0 -0.55 -17.5 -0.55 -3.6 -1.4 -3.6 -1.2 -30.15 0.1 -33.2 Q1.35 -31.2 1.5 -29.85 L1.6 -3.6 0.65 -3.6 M-0.9 -30.1 L0.1 -32.6 -0.9 -30.1" fill="url(#gradient0)" fill-rule="evenodd" stroke="none"/>
    <path d="M-0.55 -3.6 L-1.4 -3.6 M1.6 -3.6 L0.65 -3.6 M0.6 3.75 L0.6 -3.0 -0.3 -3.0 -0.3 3.7" fill="none" stroke="#000000" stroke-linecap="round" stroke-linejoin="round" stroke-width="0.05"/>
    <path d="M-0.1 -3.35 L0.65 -3.35 0.65 -3.6 0.65 -17.5 0.1 -19.05 -0.35 -18.0 -0.55 -17.5 -0.55 -3.6 -0.55 -3.35 -0.1 -3.35 M0.6 3.75 Q0.4 3.5 0.1 3.5 L-0.3 3.7 -0.45 3.9 -0.7 4.85 -0.45 5.85 0.1 6.25 0.7 5.85 1.0 4.9 0.7 3.9 0.6 3.75" fill="none" stroke="#000000" stroke-linecap="round" stroke-linejoin="round" stroke-width="0.05"/>
    <path d="M-0.35 -18.0 L-0.1 -3.35 M0.1 -32.6 L-0.9 -30.1" fill="none" stroke="#f4f1dc" stroke-linecap="round" stroke-linejoin="round" stroke-width="0.05"/>
    <path d="M0.0 3.85 Q-0.65 4.9 0.0 5.9" fill="none" stroke="#f4f1dc" stroke-linecap="round" stroke-linejoin="round" stroke-width="0.05"/>
    <path d="M-1.4 -3.6 L-1.2 -30.15 0.1 -33.2 Q1.35 -31.2 1.5 -29.85 L1.6 -3.6" fill="none" stroke="#ffff99" stroke-linecap="round" stroke-linejoin="round" stroke-width="0.05"/>
    <path d="M1.3 -4.15 L1.3 -3.7 -1.6 -3.7 1.3 -3.7 1.3 -3.05 1.3 -2.7 -1.6 -2.7 1.3 -2.7 1.3 -2.2 -1.6 -2.2 -1.6 -2.7 -1.6 -3.05 1.3 -3.05 -1.6 -3.05 -1.6 -3.7 -1.6 -4.15 -1.6 -4.75 -1.6 -5.0 1.3 -5.0 1.3 -4.75 -1.6 -4.75 1.3 -4.75 1.3 -4.15 -1.6 -4.15 1.3 -4.15" fill="#b8ae51" fill-rule="evenodd" stroke="none"/>
    <path d="M3.45 -5.0 L5.05 -5.0 4.35 -4.15 3.45 -4.15 4.35 -4.15 6.15 -4.15 7.0 -3.7 3.45 -3.7 7.0 -3.7 6.15 -3.05 4.3 -3.05 3.45 -3.05 4.3 -3.05 5.05 -2.2 3.45 -2.2 3.45 -2.7 3.45 -3.05 3.45 -3.7 3.45 -4.15 3.45 -4.75 3.45 -5.0 M4.4 -4.75 L3.45 -4.75 4.4 -4.75 M-3.55 -2.2 L-5.1 -2.2 -4.45 -3.05 -6.4 -3.05 -7.2 -3.7 -6.4 -4.15 -4.5 -4.15 -5.1 -5.0 -3.55 -5.0 -3.55 -4.75 -3.55 -4.15 -3.55 -3.7 -3.55 -3.05 -3.55 -2.7 -3.8 -2.7 -3.55 -2.7 -3.55 -2.2 M-4.4 -4.75 L-3.55 -4.75 -4.4 -4.75 M-4.45 -3.05 L-3.55 -3.05 -4.45 -3.05 M-4.5 -4.15 L-3.55 -4.15 -4.5 -4.15 M-3.55 -3.7 L-7.2 -3.7 -3.55 -3.7" fill="#7d6234" fill-rule="evenodd" stroke="none"/>
    <path d="M3.45 -5.0 L3.45 -4.75 3.45 -4.15 3.45 -3.7 1.3 -3.7 3.45 -3.7 3.45 -3.05 1.3 -3.05 3.45 -3.05 3.45 -2.7 3.45 -2.2 1.3 -2.2 1.3 -2.7 1.3 -3.05 1.3 -3.7 1.3 -4.15 3.45 -4.15 1.3 -4.15 1.3 -4.75 1.3 -5.0 3.45 -5.0 M-1.6 -5.0 L-1.6 -4.75 -1.6 -4.15 -1.6 -3.7 -3.55 -3.7 -1.6 -3.7 -1.6 -3.05 -1.6 -2.7 -3.55 -2.7 -1.6 -2.7 -1.6 -2.2 -3.55 -2.2 -3.55 -2.7 -3.55 -3.05 -1.6 -3.05 -3.55 -3.05 -3.55 -3.7 -3.55 -4.15 -3.55 -4.75 -3.55 -5.0 -1.6 -5.0 M3.45 -4.75 L1.3 -4.75 3.45 -4.75 M3.45 -2.7 L1.3 -2.7 3.45 -2.7 M-3.55 -4.15 L-1.6 -4.15 -3.55 -4.15 M-1.6 -4.75 L-3.55 -4.75 -1.6 -4.75" fill="#a9913d" fill-rule="evenodd" stroke="none"/>
    <path d="M4.35 -4.15 L5.05 -5.0 3.45 -5.0 1.3 -5.0 -1.6 -5.0 -3.55 -5.0 -5.1 -5.0 -4.5 -4.15 -6.4 -4.15 -7.2 -3.7 -6.4 -3.05 -4.45 -3.05 -5.1 -2.2 -3.55 -2.2 -1.6 -2.2 1.3 -2.2 3.45 -2.2 5.05 -2.2 4.3 -3.05 6.15 -3.05 7.0 -3.7 6.15 -4.15 4.35 -4.15 3.45 -4.15 1.3 -4.15 -1.6 -4.15 -3.55 -4.15 -4.5 -4.15 M3.45 -3.05 L4.3 -3.05 M1.3 -3.05 L3.45 -3.05 M1.3 -3.05 L-1.6 -3.05 -3.55 -3.05 -4.45 -3.05" fill="none" stroke="#000000" stroke-linecap="round" stroke-linejoin="round" stroke-width="0.05"/>
    <path d="M3.45 -4.75 L4.4 -4.75 M3.45 -3.7 L7.0 -3.7 M1.3 -3.7 L3.45 -3.7 M-1.6 -4.75 L1.3 -4.75 3.45 -4.75 M-1.6 -3.7 L1.3 -3.7 M-1.6 -2.7 L1.3 -2.7 3.45 -2.7 M-3.55 -3.7 L-1.6 -3.7 M-3.55 -2.7 L-1.6 -2.7 M-3.55 -4.75 L-4.4 -4.75 M-3.55 -2.7 L-3.8 -2.7 M-3.55 -4.75 L-1.6 -4.75 M-7.2 -3.7 L-3.55 -3.7" fill="none" stroke="#f4f1dc" stroke-linecap="round" stroke-linejoin="round" stroke-width="0.05"/>
  </g>
  <defs>
    <linearGradient gradientTransform="matrix(0.0, 0.0161, -0.0184, 0.0, 0.4, -18.4)" gradientUnits="userSpaceOnUse" id="gradient0" spreadMethod="pad" x1="-819.2" x2="819.2">
      <stop offset="0.0" stop-color="#ffffff"/>
      <stop offset="0.2" stop-color="#fff6bd" stop-opacity="0.77254903"/>
      <stop offset="1.0" stop-color="#d69078" stop-opacity="0.6313726"/>
    </linearGradient>
  </defs>
</svg>
