<?xml version="1.0" encoding="UTF-8" standalone="no"?>
<svg xmlns:xlink="http://www.w3.org/1999/xlink" height="39.35px" width="7.7px" xmlns="http://www.w3.org/2000/svg">
  <g transform="matrix(1.0, 0.0, 0.0, 1.0, 0.0, 0.0)">
    <path d="M0.05 -7.3 L0.1 -7.2 0.05 -7.3 0.1 -7.4 0.1 -7.2 0.05 -7.25 0.05 -7.3" fill="url(#gradient0)" fill-rule="evenodd" stroke="none"/>
    <path d="M0.6 4.3 L0.75 4.35 0.85 4.4 0.95 4.5 0.8 4.9 0.9 5.1 1.0 5.3 0.7 6.05 -0.25 6.15 -0.7 5.3 -0.55 5.15 -0.5 5.1 -0.55 4.95 -0.65 4.35 -0.35 3.95 -0.3 3.95 0.6 4.3" fill="#3d2312" fill-rule="evenodd" stroke="none"/>
    <path d="M-0.65 -6.2 L-0.55 -29.5 Q-0.2 -31.45 0.15 -31.85 0.8 -30.9 0.95 -29.2 L1.05 -5.9 0.1 -7.2 0.1 -7.4 0.05 -7.3 0.05 -7.25 -0.65 -6.2 M0.1 -24.0 L0.1 -23.1 0.1 -24.0 M0.1 -19.55 L0.1 -7.4 0.1 -19.55 M0.6 4.3 L-0.3 3.95 -0.5 -1.3 0.8 -1.3 0.6 4.3" fill="#000000" fill-rule="evenodd" stroke="none"/>
    <path d="M-1.15 -5.45 L-1.0 -30.15 Q-0.45 -32.15 0.1 -33.2 1.1 -31.6 1.3 -29.85 L1.4 -5.35 1.05 -5.9 1.4 -5.35 1.4 -4.7 -1.2 -4.7 -1.15 -5.45 -0.65 -6.2 -1.15 -5.45 M1.05 -5.9 L0.95 -29.2 Q0.8 -30.9 0.15 -31.85 -0.2 -31.45 -0.55 -29.5 L-0.65 -6.2 0.05 -7.25 0.1 -7.2 1.05 -5.9" fill="#3f1435" fill-rule="evenodd" stroke="none"/>
    <path d="M1.4 -5.35 L1.3 -29.85 Q1.1 -31.6 0.1 -33.2 -0.45 -32.15 -1.0 -30.15 L-1.15 -5.45 -0.65 -6.2 0.05 -7.25 0.05 -7.3 0.1 -7.2 0.1 -7.4 0.05 -7.3 M1.05 -5.9 L1.4 -5.35 1.4 -4.7 M-1.2 -4.7 L-1.15 -5.45 M0.1 -7.2 L1.05 -5.9 M-0.3 3.95 L-0.35 3.95 -0.65 4.35 -0.55 4.95 -0.5 5.1 -0.55 5.15 -0.7 5.3 -0.25 6.15 0.7 6.05 1.0 5.3 0.9 5.1 0.8 4.9 0.95 4.5 0.85 4.4 0.75 4.35 0.6 4.3 -0.3 3.95" fill="none" stroke="#000000" stroke-linecap="round" stroke-linejoin="round" stroke-width="0.05"/>
    <path d="M-0.65 -6.2 L-0.55 -29.5 Q-0.2 -31.45 0.15 -31.85 0.8 -30.9 0.95 -29.2 L1.05 -5.9" fill="none" stroke="#6633cc" stroke-linecap="round" stroke-linejoin="round" stroke-width="0.05"/>
    <path d="M0.1 -23.1 L0.1 -24.0 M0.1 -7.4 L0.1 -19.55" fill="none" stroke="#6b0187" stroke-linecap="round" stroke-linejoin="round" stroke-width="0.5"/>
    <path d="M3.25 -6.2 L2.8 -5.3 2.2 -4.25 3.25 -3.5 3.9 -3.0 3.85 -2.25 3.5 -1.25 3.35 -1.0 3.15 -1.45 2.6 -2.3 2.2 -2.65 2.15 -2.25 1.6 -0.55 1.35 -1.4 0.75 -2.55 0.85 -2.0 0.95 -1.45 0.75 -1.1 0.4 -0.2 0.05 0.6 -0.3 -0.2 -0.65 -1.1 -0.85 -1.45 -0.75 -2.0 -0.65 -2.55 -1.25 -1.4 -1.5 -0.55 -2.05 -2.25 -2.1 -2.65 -2.5 -2.3 -3.05 -1.45 -3.25 -1.0 -3.4 -1.25 -3.75 -2.25 -3.8 -3.0 -3.15 -3.5 -2.1 -4.25 -2.7 -5.3 -3.15 -6.2 -3.25 -6.8 -3.25 -7.6 -2.2 -8.4 -2.2 -7.25 -2.0 -6.3 -1.0 -5.45 0.05 -4.95 Q0.7 -5.15 1.1 -5.45 L2.1 -6.3 2.3 -7.25 2.3 -8.4 3.35 -7.6 3.35 -6.8 3.25 -6.2" fill="url(#gradient1)" fill-rule="evenodd" stroke="none"/>
    <path d="M3.25 -6.2 L2.8 -5.3 2.2 -4.25 3.25 -3.5 3.9 -3.0 3.85 -2.25 3.5 -1.25 3.35 -1.0 3.15 -1.45 2.6 -2.3 2.2 -2.65 2.15 -2.25 1.6 -0.55 1.35 -1.4 0.75 -2.55 0.85 -2.0 0.95 -1.45 0.75 -1.1 0.4 -0.2 0.05 0.6 -0.3 -0.2 -0.65 -1.1 -0.85 -1.45 -0.75 -2.0 -0.65 -2.55 -1.25 -1.4 -1.5 -0.55 -2.05 -2.25 -2.1 -2.65 -2.5 -2.3 -3.05 -1.45 -3.25 -1.0 -3.4 -1.25 -3.75 -2.25 -3.8 -3.0 -3.15 -3.5 -2.1 -4.25 -2.7 -5.3 -3.15 -6.2 -3.25 -6.8 -3.25 -7.6 -2.2 -8.4 -2.2 -7.25 -2.0 -6.3 -1.0 -5.45 0.05 -4.95 Q0.7 -5.15 1.1 -5.45 L2.1 -6.3 2.3 -7.25 2.3 -8.4 3.35 -7.6 3.35 -6.8 3.25 -6.2 Z" fill="none" stroke="#000000" stroke-linecap="round" stroke-linejoin="round" stroke-width="0.05"/>
  </g>
  <defs>
    <linearGradient gradientTransform="matrix(0.0016, 0.0, 0.0, 0.0184, 0.1, -18.7)" gradientUnits="userSpaceOnUse" id="gradient0" spreadMethod="pad" x1="-819.2" x2="819.2">
      <stop offset="0.0" stop-color="#effff2"/>
      <stop offset="0.2" stop-color="#ceb8a4"/>
      <stop offset="1.0" stop-color="#6a5136"/>
    </linearGradient>
    <radialGradient cx="0" cy="0" gradientTransform="matrix(0.0062, 0.0, 0.0, 0.0062, 0.05, -3.9)" gradientUnits="userSpaceOnUse" id="gradient1" r="819.2" spreadMethod="pad">
      <stop offset="0.12941176470588237" stop-color="#2f53e1" stop-opacity="0.9019608"/>
      <stop offset="0.32941176470588235" stop-color="#3f1435"/>
      <stop offset="1.0" stop-color="#000000"/>
    </radialGradient>
  </defs>
</svg>
