<?xml version="1.0" encoding="UTF-8" standalone="no"?>
<svg xmlns:xlink="http://www.w3.org/1999/xlink" height="3.75px" width="15.3px" xmlns="http://www.w3.org/2000/svg">
  <g transform="matrix(1.0, 0.0, 0.0, 1.0, 0.0, 0.0)">
    <path d="M11.55 0.45 L12.7 0.0 Q14.5 0.0 14.85 0.85 15.8 2.2 14.85 3.4 L11.6 3.7 11.05 3.0 9.25 2.95 5.5 3.7 2.35 3.7 Q1.1 3.6 0.6 2.95 L0.6 0.8 0.9 0.7 Q4.7 0.2 8.65 0.75 L11.55 0.45" fill="#81814f" fill-rule="evenodd" stroke="none"/>
    <path d="M11.55 0.45 L8.65 0.75 Q4.7 0.2 0.9 0.7 L0.6 0.8 0.6 2.95 Q1.1 3.6 2.35 3.7 L5.5 3.7 9.25 2.95 11.05 3.0 11.6 3.7 14.85 3.4 Q15.8 2.2 14.85 0.85 14.5 0.0 12.7 0.0 L11.55 0.45 M0.6 0.8 L0.0 0.6 M0.9 0.7 L0.75 0.55 0.6 0.8" fill="none" stroke="#000000" stroke-linecap="round" stroke-linejoin="round" stroke-width="0.05"/>
  </g>
</svg>
