<?xml version="1.0" encoding="UTF-8" standalone="no"?>
<svg xmlns:xlink="http://www.w3.org/1999/xlink" height="4.45px" width="10.85px" xmlns="http://www.w3.org/2000/svg">
  <g transform="matrix(1.0, 0.0, 0.0, 1.0, 0.0, 0.0)">
    <path d="M10.35 1.0 L10.75 1.5 10.9 2.45 Q11.0 3.1 10.65 3.65 L9.65 4.1 5.55 4.8 2.5 4.8 0.95 4.2 Q0.05 3.75 0.05 2.8 0.0 1.5 0.8 0.6 L1.0 0.35 7.95 0.65 10.35 1.0" fill="#ffcc99" fill-rule="evenodd" stroke="none"/>
    <path d="M10.35 1.0 L7.95 0.65 1.0 0.35 0.8 0.6 Q0.0 1.5 0.05 2.8 0.05 3.75 0.95 4.2 L2.5 4.8 5.55 4.8 9.65 4.1 10.65 3.65 Q11.0 3.1 10.9 2.45 L10.75 1.5 10.35 1.0 Z" fill="none" stroke="#000000" stroke-linecap="round" stroke-linejoin="round" stroke-width="0.05"/>
  </g>
</svg>
