<?xml version="1.0" encoding="UTF-8" standalone="no"?>
<svg xmlns:xlink="http://www.w3.org/1999/xlink" height="7.0px" width="8.3px" xmlns="http://www.w3.org/2000/svg">
  <g transform="matrix(1.0, 0.0, 0.0, 1.0, 0.0, 0.0)">
    <path d="M5.15 -0.15 L7.75 -0.5 Q9.05 2.45 7.9 5.15 5.05 6.5 2.2 6.5 0.8 6.5 0.15 5.2 L0.95 4.15 3.1 2.8 3.95 2.1 4.35 1.35 5.15 -0.15" fill="#ffcc99" fill-rule="evenodd" stroke="none"/>
    <path d="M5.15 -0.15 L4.35 1.35 3.95 2.1 3.1 2.8 0.95 4.15 0.15 5.2 Q0.8 6.5 2.2 6.5 5.05 6.5 7.9 5.15 9.05 2.45 7.75 -0.5 L5.15 -0.15 Z" fill="none" stroke="#000000" stroke-linecap="round" stroke-linejoin="round" stroke-width="0.05"/>
  </g>
</svg>
