<?xml version="1.0" encoding="UTF-8" standalone="no"?>
<svg xmlns:xlink="http://www.w3.org/1999/xlink" height="18.7px" width="9.95px" xmlns="http://www.w3.org/2000/svg">
  <g transform="matrix(1.0, 0.0, 0.0, 1.0, 0.0, 0.0)">
    <path d="M2.3 12.85 L1.55 10.1 0.85 7.05 0.5 4.7 Q0.35 3.7 0.7 1.9 2.15 0.95 3.15 0.65 L6.5 0.5 9.0 0.6 9.6 1.15 10.15 2.2 10.4 3.9 10.2 6.75 9.65 9.4 8.7 13.05 8.6 13.4 6.4 13.4 4.35 13.0 2.3 12.85" fill="#81814f" fill-rule="evenodd" stroke="none"/>
    <path d="M2.3 12.85 L4.35 13.0 6.4 13.4 8.6 13.4 9.25 15.25 Q9.5 16.35 9.15 17.3 L8.75 18.45 Q7.35 19.1 5.65 19.2 2.3 19.1 2.2 16.35 L2.25 15.0 2.3 12.85" fill="#3a371f" fill-rule="evenodd" stroke="none"/>
    <path d="M8.7 13.05 L9.65 9.4 10.2 6.75 10.4 3.9 10.15 2.2 9.6 1.15 9.0 0.6 6.5 0.5 3.15 0.65 Q2.15 0.95 0.7 1.9 0.35 3.7 0.5 4.7 L0.85 7.05 1.55 10.1 2.3 12.85 4.35 13.0 6.4 13.4 8.6 13.4" fill="none" stroke="#000000" stroke-linecap="round" stroke-linejoin="round" stroke-width="0.05"/>
    <path d="M8.6 13.4 L8.7 13.05 M2.3 12.85 L2.25 15.0 2.2 16.35 Q2.3 19.1 5.65 19.2 7.35 19.1 8.75 18.45 L9.15 17.3 Q9.5 16.35 9.25 15.25 L8.6 13.4" fill="none" stroke="#000000" stroke-linecap="round" stroke-linejoin="round" stroke-width="0.05"/>
  </g>
</svg>
