<?xml version="1.0" encoding="UTF-8" standalone="no"?>
<svg xmlns:xlink="http://www.w3.org/1999/xlink" height="20.0px" width="20.0px" xmlns="http://www.w3.org/2000/svg">
  <g transform="matrix(1.0, 0.0, 0.0, 1.0, 0.0, 0.0)">
    <path d="M1.65 -1.75 Q2.35 -1.05 2.4 -0.05 2.35 0.95 1.65 1.6 1.05 2.3 0.05 2.3 -0.95 2.3 -1.65 1.6 -2.3 0.95 -2.3 -0.05 -2.3 -1.05 -1.65 -1.75 -0.95 -2.4 0.05 -2.35 1.05 -2.4 1.65 -1.75" fill="#cccccc" fill-rule="evenodd" stroke="none"/>
    <path d="M10.0 -0.05 Q10.0 4.1 7.05 7.05 4.05 10.0 -0.05 10.0 -4.1 10.0 -7.05 7.05 -10.0 4.1 -10.0 -0.05 -10.0 -2.55 -8.9 -4.6 L-7.05 -7.1 Q-4.1 -10.0 -0.05 -10.0 4.05 -10.0 7.05 -7.1 10.0 -4.15 10.0 -0.05 M1.65 -1.75 Q1.05 -2.4 0.05 -2.35 -0.95 -2.4 -1.65 -1.75 -2.3 -1.05 -2.3 -0.05 -2.3 0.95 -1.65 1.6 -0.95 2.3 0.05 2.3 1.05 2.3 1.65 1.6 2.35 0.95 2.4 -0.05 2.35 -1.05 1.65 -1.75 M7.3 2.65 L-7.85 2.65 7.3 2.65 M8.2 -4.5 L-8.9 -4.6 8.2 -4.5" fill="#433221" fill-rule="evenodd" stroke="none"/>
    <path d="M10.0 -0.05 Q10.0 4.1 7.05 7.05 4.05 10.0 -0.05 10.0 -4.1 10.0 -7.05 7.05 -10.0 4.1 -10.0 -0.05 -10.0 -2.55 -8.9 -4.6 L-7.05 -7.1 Q-4.1 -10.0 -0.05 -10.0 4.05 -10.0 7.05 -7.1 10.0 -4.15 10.0 -0.05 M1.65 -1.75 Q2.35 -1.05 2.4 -0.05 2.35 0.95 1.65 1.6 1.05 2.3 0.05 2.3 -0.95 2.3 -1.65 1.6 -2.3 0.95 -2.3 -0.05 -2.3 -1.05 -1.65 -1.75 -0.95 -2.4 0.05 -2.35 1.05 -2.4 1.65 -1.75 M-8.9 -4.6 L8.2 -4.5 M-7.85 2.65 L7.3 2.65" fill="none" stroke="#000000" stroke-linecap="round" stroke-linejoin="round" stroke-width="0.05"/>
  </g>
</svg>
