<?xml version="1.0" encoding="UTF-8" standalone="no"?>
<svg xmlns:xlink="http://www.w3.org/1999/xlink" height="30.65px" width="16.0px" xmlns="http://www.w3.org/2000/svg">
  <g transform="matrix(1.0, 0.0, 0.0, 1.0, 0.0, 0.0)">
    <path d="M8.0 14.1 Q0.0 23.8 -8.0 14.1 L-8.0 -11.7 Q0.0 -9.45 8.0 -11.7 L8.0 14.1 M7.0 12.8 L7.0 -9.75 Q0.0 -7.75 -7.0 -9.75 L-7.0 12.8 Q0.0 21.3 7.0 12.8 0.0 21.3 -7.0 12.8 L-7.0 -9.75 Q0.0 -7.75 7.0 -9.75 L7.0 12.8" fill="url(#gradient0)" fill-rule="evenodd" stroke="none"/>
    <path d="M8.0 14.1 Q0.0 23.8 -8.0 14.1 L-8.0 -11.7 Q0.0 -9.45 8.0 -11.7 L8.0 14.1 M7.0 12.8 Q0.0 21.3 -7.0 12.8 L-7.0 -9.75 Q0.0 -7.75 7.0 -9.75 L7.0 12.8 Z" fill="none" stroke="#000000" stroke-linecap="round" stroke-linejoin="round" stroke-width="0.05"/>
    <path d="M1.3 -2.8 L-2.1 -2.4 -3.1 -1.95 -3.25 -0.75 -2.3 -0.15 Q-1.3 0.5 -0.3 0.4 1.25 0.75 2.55 -0.25 L3.3 -0.95 2.95 -1.65 Q2.5 -2.5 1.65 -2.8 M4.5 -0.95 L5.15 -1.6 Q3.35 -3.45 2.8 -5.9 3.4 -6.75 4.65 -6.7 L5.1 -6.05 5.25 -5.8 5.15 -5.6 4.75 -5.25 M0.45 -4.85 L0.35 -6.7 M-4.65 -0.5 Q-5.15 -1.15 -5.3 -1.9 L-5.4 -2.55 Q-3.1 -3.85 -3.1 -6.2 L-3.65 -6.5 -5.0 -5.95 -5.05 -5.25 -4.8 -4.6 M-1.1 -4.7 L-1.0 -7.4 M-1.1 13.6 L-1.1 11.3 -0.3 10.45 -0.3 4.25 -0.3 4.05 -2.6 4.0 -2.85 2.3 -4.95 2.1 -5.15 2.75 -5.15 3.3 -5.0 3.85 -4.8 4.3 -4.25 4.4 -3.8 4.55 Q-2.8 5.0 -3.0 6.05 L-3.1 6.85 -3.4 6.85 -4.15 6.9 -4.7 7.1 -4.85 7.3 -4.9 7.6 -4.8 7.8 -4.45 8.3 -3.45 8.9 -3.85 9.95 -4.3 10.15 -4.4 11.05 M-0.3 4.05 L-0.3 0.4 M-1.85 8.5 L-1.85 6.8 M3.9 10.95 Q3.9 9.4 2.9 8.3 L3.85 6.8 3.05 5.65 4.4 4.75 4.15 2.25 1.9 2.1 1.8 3.85 1.35 4.0 -0.3 4.25 M1.1 8.25 L1.05 5.95 M-0.3 10.45 L0.55 10.8 Q1.2 12.3 0.85 13.75" fill="none" stroke="#f1e6a5" stroke-linecap="round" stroke-linejoin="round" stroke-width="0.5"/>
  </g>
  <defs>
    <linearGradient gradientTransform="matrix(0.0098, 0.0, 0.0, 0.0187, 0.0, 3.6)" gradientUnits="userSpaceOnUse" id="gradient0" spreadMethod="pad" x1="-819.2" x2="819.2">
      <stop offset="0.0" stop-color="#acacac"/>
      <stop offset="0.5176470588235295" stop-color="#ffffff"/>
      <stop offset="1.0" stop-color="#acacac"/>
    </linearGradient>
  </defs>
</svg>
