<?xml version="1.0" encoding="UTF-8" standalone="no"?>
<svg xmlns:xlink="http://www.w3.org/1999/xlink" height="8.9px" width="8.85px" xmlns="http://www.w3.org/2000/svg">
  <g transform="matrix(1.0, 0.0, 0.0, 1.0, 0.0, 0.0)">
    <path d="M0.0 -4.4 Q1.8 -4.4 3.15 -3.1 4.45 -1.8 4.45 0.05 4.45 1.85 3.15 3.2 1.8 4.5 0.0 4.5 -1.85 4.5 -3.1 3.2 -4.45 1.85 -4.4 0.05 -4.45 -1.8 -3.1 -3.1 -1.85 -4.4 0.0 -4.4 M-0.1 -3.15 Q-1.45 -3.15 -2.4 -2.2 -3.35 -1.25 -3.35 0.1 -3.35 1.45 -2.4 2.45 -1.45 3.4 -0.1 3.4 1.25 3.4 2.2 2.45 3.15 1.45 3.2 0.15 3.15 -1.25 2.2 -2.2 1.25 -3.15 -0.1 -3.15 1.25 -3.15 2.2 -2.2 3.15 -1.25 3.2 0.15 3.15 1.45 2.2 2.45 1.25 3.4 -0.1 3.4 -1.45 3.4 -2.4 2.45 -3.35 1.45 -3.35 0.1 -3.35 -1.25 -2.4 -2.2 -1.45 -3.15 -0.1 -3.15" fill="url(#gradient0)" fill-rule="evenodd" stroke="none"/>
    <path d="M0.0 -4.4 Q1.8 -4.4 3.15 -3.1 4.45 -1.8 4.45 0.05 4.45 1.85 3.15 3.2 1.8 4.5 0.0 4.5 -1.85 4.5 -3.1 3.2 -4.45 1.85 -4.4 0.05 -4.45 -1.8 -3.1 -3.1 -1.85 -4.4 0.0 -4.4" fill="none" stroke="#000000" stroke-linecap="round" stroke-linejoin="round" stroke-width="0.05"/>
    <path d="M-0.1 -3.15 Q1.25 -3.15 2.2 -2.2 3.15 -1.25 3.2 0.15 3.15 1.45 2.2 2.45 1.25 3.4 -0.1 3.4 -1.45 3.4 -2.4 2.45 -3.35 1.45 -3.35 0.1 -3.35 -1.25 -2.4 -2.2 -1.45 -3.15 -0.1 -3.15 Z" fill="none" stroke="#000000" stroke-linecap="round" stroke-linejoin="round" stroke-width="0.05"/>
  </g>
  <defs>
    <radialGradient cx="0" cy="0" gradientTransform="matrix(0.0061, 0.0, 0.0, 0.0061, -1.5, -0.65)" gradientUnits="userSpaceOnUse" id="gradient0" r="819.2" spreadMethod="pad">
      <stop offset="0.0" stop-color="#ffffff"/>
      <stop offset="1.0" stop-color="#979797"/>
    </radialGradient>
  </defs>
</svg>
