<?xml version="1.0" encoding="UTF-8" standalone="no"?>
<svg xmlns:xlink="http://www.w3.org/1999/xlink" height="25.1px" width="15.65px" xmlns="http://www.w3.org/2000/svg">
  <g transform="matrix(1.0, 0.0, 0.0, 1.0, 0.0, 0.0)">
    <path d="M-7.8 7.55 L-7.8 -10.5 Q0.05 -7.9 7.85 -10.5 L7.85 7.55 Q0.05 21.65 -7.8 7.55 M-6.9 6.9 Q0.15 19.6 7.2 6.9 L7.2 -9.4 Q0.15 -7.05 -6.9 -9.4 L-6.9 6.9" fill="url(#gradient0)" fill-rule="evenodd" stroke="none"/>
    <path d="M-6.9 6.9 L-6.9 -9.4 Q0.15 -7.05 7.2 -9.4 L7.2 6.9 Q0.15 19.6 -6.9 6.9" fill="url(#gradient1)" fill-rule="evenodd" stroke="none"/>
    <path d="M-7.8 7.55 L-7.8 -10.5 Q0.05 -7.9 7.85 -10.5 L7.85 7.55 Q0.05 21.65 -7.8 7.55 M-6.9 6.9 L-6.9 -9.4 Q0.15 -7.05 7.2 -9.4 L7.2 6.9 Q0.15 19.6 -6.9 6.9 Z" fill="none" stroke="#000000" stroke-linecap="round" stroke-linejoin="round" stroke-width="0.05"/>
  </g>
  <defs>
    <linearGradient gradientTransform="matrix(0.0095, 0.0, 0.0, 0.0153, 0.05, 2.05)" gradientUnits="userSpaceOnUse" id="gradient0" spreadMethod="pad" x1="-819.2" x2="819.2">
      <stop offset="0.0" stop-color="#ffffff"/>
      <stop offset="1.0" stop-color="#979797"/>
    </linearGradient>
    <linearGradient gradientTransform="matrix(0.0086, 0.0, 0.0, 0.0138, 0.15, 1.9)" gradientUnits="userSpaceOnUse" id="gradient1" spreadMethod="pad" x1="-819.2" x2="819.2">
      <stop offset="0.0" stop-color="#ffffff"/>
      <stop offset="1.0" stop-color="#979797"/>
    </linearGradient>
  </defs>
</svg>
