<?xml version="1.0" encoding="UTF-8" standalone="no"?>
<svg xmlns:xlink="http://www.w3.org/1999/xlink" height="34.0px" width="34.0px" xmlns="http://www.w3.org/2000/svg">
  <g transform="matrix(1.0, 0.0, 0.0, 1.0, 0.0, 0.0)">
    <path d="M8.05 -9.2 L9.4 -7.45 Q11.15 -4.4 9.55 -1.2 9.0 -0.2 7.9 0.15 6.55 0.3 5.3 -0.25 L4.85 -0.65 Q3.8 -1.95 4.05 -3.45 L5.1 -3.9 6.65 -1.85 7.9 -2.55 8.15 -3.7 Q8.25 -6.2 5.9 -7.8 L0.65 -7.55 Q0.95 -6.55 0.4 -5.65 -0.55 -3.95 -1.95 -2.8 L-4.05 -0.7 -4.15 -0.4 -4.1 -0.15 Q-2.3 1.85 0.0 3.3 -1.6 4.1 -3.25 3.0 -4.85 2.0 -5.8 0.45 L-4.95 -2.45 Q-4.4 -4.0 -2.85 -4.9 -1.65 -5.6 -1.55 -7.1 -4.2 -7.55 -5.7 -5.45 L-6.75 -3.4 -6.95 -3.35 -7.65 -3.55 Q-8.1 -3.7 -8.45 -4.0 L-8.8 -4.4 -8.8 -7.6 -7.25 -8.75 -4.35 -9.85 Q-2.4 -10.55 -0.75 -9.55 1.35 -10.75 3.95 -10.7 6.4 -10.7 8.05 -9.2 M-5.4 3.3 Q-5.35 3.95 -5.75 4.5 L-6.95 4.55 -6.95 4.3 Q-6.55 3.15 -5.7 2.35 L-5.4 3.3 M-8.85 0.95 L-8.3 0.65 -7.5 1.5 Q-7.6 2.7 -8.45 3.45 -8.95 3.85 -9.55 4.05 -11.1 4.5 -12.4 3.55 -11.35 2.1 -9.65 2.4 L-9.0 1.7 -8.85 0.95 M1.7 3.85 L1.9 3.85 Q4.5 5.5 6.4 8.05 L6.6 8.65 Q5.6 10.45 3.6 11.1 1.4 11.75 -0.55 11.1 L-6.15 9.65 -6.95 10.2 -7.15 9.75 -7.2 9.45 -7.1 9.05 -6.95 8.8 3.25 8.5 4.2 8.0 Q2.75 7.65 1.9 6.5 1.35 5.7 1.5 4.85 L1.7 3.85" fill="#003300" fill-rule="evenodd" stroke="none"/>
    <path d="M8.05 -9.2 Q6.4 -10.7 3.95 -10.7 1.35 -10.75 -0.75 -9.55 -2.4 -10.55 -4.35 -9.85 L-7.25 -8.75 -8.8 -7.6 -8.8 -4.4 -8.45 -4.0 Q-8.1 -3.7 -7.65 -3.55 L-6.95 -3.35 -6.75 -3.4 -5.7 -5.45 Q-4.2 -7.55 -1.55 -7.1 -1.65 -5.6 -2.85 -4.9 -4.4 -4.0 -4.95 -2.45 L-5.8 0.45 Q-4.85 2.0 -3.25 3.0 -1.6 4.1 0.0 3.3 -2.3 1.85 -4.1 -0.15 L-4.15 -0.4 -4.05 -0.7 -1.95 -2.8 Q-0.55 -3.95 0.4 -5.65 0.95 -6.55 0.65 -7.55 L5.9 -7.8 Q8.25 -6.2 8.15 -3.7 L7.9 -2.55 6.65 -1.85 5.1 -3.9 4.05 -3.45 Q3.8 -1.95 4.85 -0.65 L5.3 -0.25 Q6.55 0.3 7.9 0.15 9.0 -0.2 9.55 -1.2 11.15 -4.4 9.4 -7.45 L8.05 -9.2 M11.4 -9.2 Q13.75 -6.35 14.35 -2.9 15.0 0.8 14.0 4.35 12.95 7.9 10.35 10.35 L8.05 12.1 5.6 13.45 Q2.25 14.95 -1.45 14.55 -5.05 14.2 -8.0 12.2 -11.1 10.15 -12.85 6.95 -14.6 3.7 -14.65 0.0 -14.65 -3.65 -12.9 -6.85 -11.1 -10.1 -8.05 -12.2 -5.05 -14.25 -1.45 -14.55 2.25 -14.85 5.65 -13.55 9.0 -12.1 11.4 -9.2 M1.7 3.85 L1.5 4.85 Q1.35 5.7 1.9 6.5 2.75 7.65 4.2 8.0 L3.25 8.5 -6.95 8.8 -7.1 9.05 -7.2 9.45 -7.15 9.75 -6.95 10.2 -6.15 9.65 -0.55 11.1 Q1.4 11.75 3.6 11.1 5.6 10.45 6.6 8.65 L6.4 8.05 Q4.5 5.5 1.9 3.85 L1.7 3.85 M-8.85 0.95 L-9.0 1.7 -9.65 2.4 Q-11.35 2.1 -12.4 3.55 -11.1 4.5 -9.55 4.05 -8.95 3.85 -8.45 3.45 -7.6 2.7 -7.5 1.5 L-8.3 0.65 -8.85 0.95 M-5.4 3.3 L-5.7 2.35 Q-6.55 3.15 -6.95 4.3 L-6.95 4.55 -5.75 4.5 Q-5.35 3.95 -5.4 3.3" fill="url(#gradient0)" fill-rule="evenodd" stroke="none"/>
    <path d="M11.4 -9.2 Q9.0 -12.1 5.65 -13.55 2.25 -14.85 -1.45 -14.55 -5.05 -14.25 -8.05 -12.2 -11.1 -10.1 -12.9 -6.85 -14.65 -3.65 -14.65 0.0 -14.6 3.7 -12.85 6.95 -11.1 10.15 -8.0 12.2 -5.05 14.2 -1.45 14.55 2.25 14.95 5.6 13.45 L8.05 12.1 10.35 10.35 Q12.95 7.9 14.0 4.35 15.0 0.8 14.35 -2.9 13.75 -6.35 11.4 -9.2 M0.0 -16.5 Q6.85 -16.5 11.7 -11.65 16.5 -6.85 16.5 0.0 16.5 6.85 11.7 11.7 6.85 16.5 0.0 16.5 -6.85 16.5 -11.65 11.7 -16.5 6.85 -16.5 0.0 -16.5 -6.85 -11.65 -11.65 -6.85 -16.5 0.0 -16.5" fill="#346130" fill-rule="evenodd" stroke="none"/>
    <path d="M11.4 -9.2 Q9.0 -12.1 5.65 -13.55 2.25 -14.85 -1.45 -14.55 -5.05 -14.25 -8.05 -12.2 -11.1 -10.1 -12.9 -6.85 -14.65 -3.65 -14.65 0.0 -14.6 3.7 -12.85 6.95 -11.1 10.15 -8.0 12.2 -5.05 14.2 -1.45 14.55 2.25 14.95 5.6 13.45 L8.05 12.1 10.35 10.35 Q12.95 7.9 14.0 4.35 15.0 0.8 14.35 -2.9 13.75 -6.35 11.4 -9.2" fill="none" stroke="#004200" stroke-linecap="round" stroke-linejoin="round" stroke-width="1.0"/>
    <path d="M0.0 -16.5 Q-6.85 -16.5 -11.65 -11.65 -16.5 -6.85 -16.5 0.0 -16.5 6.85 -11.65 11.7 -6.85 16.5 0.0 16.5 6.85 16.5 11.7 11.7 16.5 6.85 16.5 0.0 16.5 -6.85 11.7 -11.65 6.85 -16.5 0.0 -16.5 Z" fill="none" stroke="#000000" stroke-linecap="round" stroke-linejoin="round" stroke-width="1.0"/>
  </g>
  <defs>
    <linearGradient gradientTransform="matrix(0.0179, 0.0, 0.0, 0.0179, -0.05, -0.05)" gradientUnits="userSpaceOnUse" id="gradient0" spreadMethod="pad" x1="-819.2" x2="819.2">
      <stop offset="0.0" stop-color="#6d6154"/>
      <stop offset="1.0" stop-color="#61704b"/>
    </linearGradient>
  </defs>
</svg>
