<?xml version="1.0" encoding="UTF-8" standalone="no"?>
<svg xmlns:xlink="http://www.w3.org/1999/xlink" height="22.1px" width="22.7px" xmlns="http://www.w3.org/2000/svg">
  <g transform="matrix(1.0, 0.0, 0.0, 1.0, 0.0, 0.0)">
    <path d="M-5.75 4.5 L-6.95 4.55 -6.95 4.3 Q-6.55 3.15 -5.7 2.35 L-5.4 3.3 Q-5.35 3.95 -5.75 4.5 M-8.85 0.95 L-8.3 0.65 -7.5 1.5 Q-7.6 2.7 -8.45 3.45 -8.95 3.85 -9.55 4.05 -11.1 4.5 -12.4 3.55 -11.35 2.1 -9.65 2.4 L-9.0 1.7 -8.85 0.95 M1.9 3.85 Q4.5 5.5 6.4 8.05 L6.6 8.65 Q5.6 10.45 3.6 11.1 1.4 11.75 -0.55 11.1 L-6.15 9.65 -6.95 10.2 -7.15 9.75 -7.2 9.45 -7.1 9.05 -6.95 8.8 3.25 8.5 4.2 8.0 Q2.75 7.65 1.9 6.5 1.35 5.7 1.5 4.85 L1.7 3.85 1.9 3.85 M8.05 -9.2 L9.4 -7.45 Q11.15 -4.4 9.55 -1.2 9.0 -0.2 7.9 0.15 6.55 0.3 5.3 -0.25 L4.85 -0.65 Q3.8 -1.95 4.05 -3.45 L5.1 -3.9 6.65 -1.85 7.9 -2.55 8.15 -3.7 Q8.25 -6.2 5.9 -7.8 L0.65 -7.55 Q0.95 -6.55 0.4 -5.65 -0.55 -3.95 -1.95 -2.8 L-4.05 -0.7 -4.15 -0.4 -4.1 -0.15 Q-2.3 1.85 0.0 3.3 -1.6 4.1 -3.25 3.0 -4.85 2.0 -5.8 0.45 L-4.95 -2.45 Q-4.4 -4.0 -2.85 -4.9 -1.65 -5.6 -1.55 -7.1 -4.2 -7.55 -5.7 -5.45 L-6.75 -3.4 -6.95 -3.35 -7.65 -3.55 Q-8.1 -3.7 -8.45 -4.0 L-8.8 -4.4 -8.8 -7.6 -7.25 -8.75 -4.35 -9.85 Q-2.4 -10.55 -0.75 -9.55 1.35 -10.75 3.95 -10.7 6.4 -10.7 8.05 -9.2" fill="#003300" fill-rule="evenodd" stroke="none"/>
  </g>
</svg>
