<?xml version="1.0" encoding="UTF-8" standalone="no"?>
<svg xmlns:xlink="http://www.w3.org/1999/xlink" height="30.6px" width="16.1px" xmlns="http://www.w3.org/2000/svg">
  <g transform="matrix(1.0, 0.0, 0.0, 1.0, 0.0, 0.0)">
    <path d="M0.5 -10.7 Q3.55 -10.7 5.75 -8.1 7.9 -5.55 8.05 -1.5 8.15 2.5 5.2 11.05 2.25 19.55 0.0 19.9 -2.25 19.55 -5.2 11.05 -8.2 2.5 -8.05 -1.5 -7.9 -5.55 -5.75 -8.1 -3.55 -10.7 -0.5 -10.7 L0.0 -10.65 0.5 -10.7 M0.4 -7.3 L0.05 -7.3 -0.3 -7.3 Q-2.5 -7.3 -4.1 -5.45 -5.65 -3.6 -5.75 -0.7 -5.85 2.2 -3.7 8.35 -1.55 14.5 0.05 14.75 1.65 14.5 3.8 8.35 5.95 2.2 5.85 -0.7 5.75 -3.6 4.2 -5.45 2.6 -7.3 0.4 -7.3" fill="#efcc80" fill-rule="evenodd" stroke="none"/>
    <path d="M0.4 -7.3 Q2.6 -7.3 4.2 -5.45 5.75 -3.6 5.85 -0.7 5.95 2.2 3.8 8.35 1.65 14.5 0.05 14.75 -1.55 14.5 -3.7 8.35 -5.85 2.2 -5.75 -0.7 -5.65 -3.6 -4.1 -5.45 -2.5 -7.3 -0.3 -7.3 L0.05 -7.3 0.4 -7.3 M5.1 -1.25 L4.25 -1.35 Q5.05 -0.65 5.15 0.15 L5.1 0.45 4.6 0.4 Q3.4 0.0 2.75 -0.85 L4.0 2.5 Q2.3 0.95 1.0 -1.0 0.85 2.0 2.85 4.4 L3.6 4.65 Q2.9 9.35 -0.2 12.7 L-0.65 12.75 Q1.25 9.35 2.6 5.75 1.05 8.95 -1.9 10.2 L0.4 6.6 1.45 4.45 Q-0.3 6.8 -3.35 7.05 -0.5 5.45 0.8 2.45 -1.1 4.45 -4.0 4.65 -1.15 2.75 -0.1 -0.05 -1.65 1.95 -4.55 1.8 L-0.9 -1.75 Q-2.8 -0.6 -5.0 -0.5 -2.2 -1.7 -1.25 -4.35 -3.0 -2.6 -4.9 -2.4 -3.1 -5.7 0.65 -6.25 L0.75 -5.0 1.75 -4.0 1.55 -5.6 1.6 -5.8 4.1 -3.85 4.35 -2.85 4.1 -3.85 1.6 -5.8 1.55 -5.6 1.75 -4.0 0.75 -5.0 0.65 -6.25 Q-3.1 -5.7 -4.9 -2.4 -3.0 -2.6 -1.25 -4.35 -2.2 -1.7 -5.0 -0.5 -2.8 -0.6 -0.9 -1.75 L-4.55 1.8 Q-1.65 1.95 -0.1 -0.05 -1.15 2.75 -4.0 4.65 -1.1 4.45 0.8 2.45 -0.5 5.45 -3.35 7.05 -0.3 6.8 1.45 4.45 L0.4 6.6 -1.9 10.2 Q1.05 8.95 2.6 5.75 1.25 9.35 -0.65 12.75 L-0.2 12.7 Q2.9 9.35 3.6 4.65 L2.85 4.4 Q0.85 2.0 1.0 -1.0 2.3 0.95 4.0 2.5 L2.75 -0.85 Q3.4 0.0 4.6 0.4 L5.1 0.45 5.15 0.15 Q5.05 -0.65 4.25 -1.35 L5.1 -1.25" fill="#b18e01" fill-rule="evenodd" stroke="none"/>
    <path d="M0.5 -10.7 Q3.55 -10.7 5.75 -8.1 7.9 -5.55 8.05 -1.5 8.15 2.5 5.2 11.05 2.25 19.55 0.0 19.9 -2.25 19.55 -5.2 11.05 -8.2 2.5 -8.05 -1.5 -7.9 -5.55 -5.75 -8.1 -3.55 -10.7 -0.5 -10.7 L0.0 -10.65 0.5 -10.7 M0.4 -7.3 Q2.6 -7.3 4.2 -5.45 5.75 -3.6 5.85 -0.7 5.95 2.2 3.8 8.35 1.65 14.5 0.05 14.75 -1.55 14.5 -3.7 8.35 -5.85 2.2 -5.75 -0.7 -5.65 -3.6 -4.1 -5.45 -2.5 -7.3 -0.3 -7.3 L0.05 -7.3 0.4 -7.3" fill="none" stroke="#000000" stroke-linecap="round" stroke-linejoin="round" stroke-width="0.05"/>
    <path d="M4.35 -2.85 L4.1 -3.85 1.6 -5.8 1.55 -5.6 1.75 -4.0 0.75 -5.0 0.65 -6.25 Q-3.1 -5.7 -4.9 -2.4 -3.0 -2.6 -1.25 -4.35 -2.2 -1.7 -5.0 -0.5 -2.8 -0.6 -0.9 -1.75 L-4.55 1.8 Q-1.65 1.95 -0.1 -0.05 -1.15 2.75 -4.0 4.65 -1.1 4.45 0.8 2.45 -0.5 5.45 -3.35 7.05 -0.3 6.8 1.45 4.45 L0.4 6.6 -1.9 10.2 Q1.05 8.95 2.6 5.75 1.25 9.35 -0.65 12.75 L-0.2 12.7 Q2.9 9.35 3.6 4.65 L2.85 4.4 Q0.85 2.0 1.0 -1.0 2.3 0.95 4.0 2.5 L2.75 -0.85 Q3.4 0.0 4.6 0.4 L5.1 0.45 5.15 0.15 Q5.05 -0.65 4.25 -1.35 L5.1 -1.25" fill="none" stroke="#ffff66" stroke-linecap="round" stroke-linejoin="round" stroke-width="0.05"/>
    <path d="M-2.25 -9.0 L-0.5 -9.2 1.75 -9.05 Q3.0 -8.85 3.6 -8.45 L4.85 -6.9 5.9 -4.75 6.45 -2.9 6.85 -1.1 M-6.9 -0.75 L-6.65 -2.9 Q-6.35 -3.7 -6.3 -4.65 -6.25 -5.55 -5.45 -6.25 L-4.0 -7.65 Q-3.35 -8.35 -2.8 -8.45 -2.25 -8.5 -2.5 -8.85 M-3.8 11.4 Q-4.35 10.35 -4.5 9.5 L-4.9 7.45 Q-5.2 6.25 -5.65 5.6 -6.05 5.0 -6.15 3.85 -6.2 2.75 -6.5 1.6 L-6.9 -0.25 M1.8 15.3 Q1.7 15.8 0.55 16.5 -0.6 17.2 -1.0 16.7 L-1.75 15.5 -2.6 14.0 -3.6 11.8 M6.85 -0.6 Q6.65 0.45 6.6 1.5 L6.3 3.6 5.65 5.55 4.85 7.35 Q4.45 8.25 4.45 9.2 4.5 10.15 3.9 11.25 L3.0 12.85 2.05 14.8" fill="none" stroke="#ffffcc" stroke-linecap="round" stroke-linejoin="round" stroke-width="0.25"/>
  </g>
</svg>
