<?xml version="1.0" encoding="UTF-8" standalone="no"?>
<svg xmlns:xlink="http://www.w3.org/1999/xlink" height="18.25px" width="6.9px" xmlns="http://www.w3.org/2000/svg">
  <g transform="matrix(1.0, 0.0, 0.0, 1.0, 0.0, 0.0)">
    <path d="M2.3 -6.2 Q1.45 -1.55 1.25 1.3 L1.15 3.35 -0.9 3.35 -2.75 -8.2 2.75 -8.45 2.3 -6.2 M1.65 8.15 L-1.35 8.4 -1.3 4.7 1.8 4.45 1.65 8.15" fill="#0000ff" fill-rule="evenodd" stroke="none"/>
    <path d="M2.3 -6.2 Q1.45 -1.55 1.25 1.3 L1.15 3.35 -0.9 3.35 -2.75 -8.2 2.75 -8.45 2.3 -6.2 M1.65 8.15 L-1.35 8.4 -1.3 4.7 1.8 4.45 1.65 8.15 Z" fill="none" stroke="#00cc00" stroke-linecap="round" stroke-linejoin="round" stroke-width="1.4000000000000001"/>
    <path d="M2.3 -6.2 Q1.45 -1.55 1.25 1.3 L1.15 3.35 -0.9 3.35 -2.75 -8.2 2.75 -8.45 2.3 -6.2 M1.65 8.15 L-1.35 8.4 -1.3 4.7 1.8 4.45 1.65 8.15" fill="#00ff00" fill-rule="evenodd" stroke="none"/>
    <path d="M2.3 -6.2 Q1.45 -1.55 1.25 1.3 L1.15 3.35 -0.9 3.35 -2.75 -8.2 2.75 -8.45 2.3 -6.2 M1.65 8.15 L-1.35 8.4 -1.3 4.7 1.8 4.45 1.65 8.15 Z" fill="none" stroke="#99ffcc" stroke-linecap="round" stroke-linejoin="round" stroke-width="0.30000000000000004"/>
  </g>
</svg>
