<?xml version="1.0" encoding="UTF-8" standalone="no"?>
<svg xmlns:xlink="http://www.w3.org/1999/xlink" height="3.2px" width="12.6px" xmlns="http://www.w3.org/2000/svg">
  <g transform="matrix(1.0, 0.0, 0.0, 1.0, 0.0, 0.0)">
    <path d="M0.55 0.7 L0.8 0.6 Q4.0 0.2 7.4 0.65 L9.9 0.4 10.9 0.0 Q12.4 0.0 12.75 0.75 13.55 1.9 12.75 2.9 L9.95 3.15 9.5 2.55 Q8.6 2.3 7.95 2.55 L4.7 3.15 2.05 3.15 Q0.95 3.05 0.55 2.55 L0.55 0.7" fill="#ffcc99" fill-rule="evenodd" stroke="none"/>
    <path d="M0.55 2.55 Q0.95 3.05 2.05 3.15 L4.7 3.15 7.95 2.55 Q8.6 2.3 9.5 2.55 L9.95 3.15 12.75 2.9 Q13.55 1.9 12.75 0.75 12.4 0.0 10.9 0.0 L9.9 0.4 7.4 0.65 Q4.0 0.2 0.8 0.6 L0.55 0.7" fill="none" stroke="#000000" stroke-linecap="round" stroke-linejoin="round" stroke-width="0.05"/>
  </g>
</svg>
