<?xml version="1.0" encoding="UTF-8" standalone="no"?>
<svg xmlns:xlink="http://www.w3.org/1999/xlink" height="5.2px" width="16.45px" xmlns="http://www.w3.org/2000/svg">
  <g transform="matrix(1.0, 0.0, 0.0, 1.0, 0.0, 0.0)">
    <path d="M14.6 0.5 L14.4 0.7 14.1 1.0 14.4 0.7 14.6 0.5 14.85 0.85 Q15.8 2.2 14.85 3.4 L11.6 3.7 11.05 3.0 9.25 2.95 6.75 3.6 6.7 3.6 Q4.0 5.2 0.7 5.2 0.2 5.1 0.25 4.45 -1.55 2.55 -1.0 1.5 L-0.35 0.3 8.65 0.75 11.55 0.45 12.7 0.0 Q14.1 0.0 14.6 0.5 M14.45 1.15 L14.1 1.0 14.45 1.15 M14.1 1.0 L13.9 1.3 Q13.8 1.5 13.85 1.8 L13.65 2.2 13.0 2.25 11.2 2.25 11.05 2.2 11.0 2.05 11.15 0.85 11.0 2.05 11.05 2.2 11.2 2.25 13.0 2.25 13.65 2.2 13.85 1.8 Q13.8 1.5 13.9 1.3 L14.1 1.0 Q13.55 0.25 12.55 0.5 L12.4 0.5 12.35 0.5 11.15 0.85 6.45 1.05 11.15 0.85 12.35 0.5 12.4 0.5 12.55 0.5 Q13.55 0.25 14.1 1.0 M0.05 0.6 L-0.25 1.25 -0.35 1.6 -0.4 1.8 -0.35 1.95 -0.15 2.2 0.2 2.55 0.5 2.95 0.7 3.4 1.15 4.25 1.2 4.35 1.7 4.3 2.45 4.0 3.25 3.7 4.3 3.3 4.95 3.05 5.45 2.9 5.5 2.8 5.55 2.6 5.6 1.95 5.65 1.65 5.9 1.3 Q6.15 1.15 6.45 1.05 6.15 1.15 5.9 1.3 L5.65 1.65 5.6 1.95 5.55 2.6 5.5 2.8 5.45 2.9 4.95 3.05 4.3 3.3 3.25 3.7 2.45 4.0 1.7 4.3 1.2 4.35 1.15 4.25 0.7 3.4 0.5 2.95 0.2 2.55 -0.15 2.2 -0.35 1.95 -0.4 1.8 -0.35 1.6 -0.25 1.25 0.05 0.6 3.9 0.95 5.55 1.0 5.7 1.05 5.55 1.0 3.9 0.95 0.05 0.6 M6.45 1.05 L6.6 1.0 6.75 0.95 6.75 0.9 5.7 1.05 6.75 0.9 6.75 0.95 6.6 1.0 6.45 1.05 5.95 1.05 5.75 1.05 5.7 1.05 5.75 1.05 5.95 1.05 6.45 1.05 M3.9 0.95 L5.7 1.05 3.9 0.95" fill="url(#gradient0)" fill-rule="evenodd" stroke="none"/>
    <path d="M14.1 1.0 L14.4 0.7 14.6 0.5 Q14.1 0.0 12.7 0.0 L11.55 0.45 8.65 0.75 -0.35 0.3 -1.0 1.5 Q-1.55 2.55 0.25 4.45 0.2 5.1 0.7 5.2 4.0 5.2 6.7 3.6 L6.75 3.6 9.25 2.95 11.05 3.0 11.6 3.7 14.85 3.4 Q15.8 2.2 14.85 0.85 L14.6 0.5 M11.15 0.85 L11.0 2.05 11.05 2.2 11.2 2.25 13.0 2.25 13.65 2.2 13.85 1.8 Q13.8 1.5 13.9 1.3 L14.1 1.0 M6.45 1.05 Q6.15 1.15 5.9 1.3 L5.65 1.65 5.6 1.95 5.55 2.6 5.5 2.8 5.45 2.9 4.95 3.05 4.3 3.3 3.25 3.7 2.45 4.0 1.7 4.3 1.2 4.35 1.15 4.25 0.7 3.4 0.5 2.95 0.2 2.55 -0.15 2.2 -0.35 1.95 -0.4 1.8 -0.35 1.6 -0.25 1.25 0.05 0.6 M5.7 1.05 L6.75 0.9 6.75 0.95 6.6 1.0 6.45 1.05 M5.7 1.05 L3.9 0.95" fill="none" stroke="#000000" stroke-linecap="round" stroke-linejoin="round" stroke-width="0.05"/>
    <path d="M14.1 1.0 L14.45 1.15 M14.1 1.0 Q13.55 0.25 12.55 0.5 L12.4 0.5 12.35 0.5 11.15 0.85 6.45 1.05 5.95 1.05 5.75 1.05 5.7 1.05 5.55 1.0 3.9 0.95 0.05 0.6" fill="none" stroke="#ffffff" stroke-linecap="round" stroke-linejoin="round" stroke-width="0.05"/>
  </g>
  <defs>
    <linearGradient gradientTransform="matrix(0.0, 0.0023, -0.0023, 0.0, 7.95, 1.85)" gradientUnits="userSpaceOnUse" id="gradient0" spreadMethod="pad" x1="-819.2" x2="819.2">
      <stop offset="0.0" stop-color="#ffffff"/>
      <stop offset="0.43529411764705883" stop-color="#d3cbc5"/>
      <stop offset="1.0" stop-color="#746558"/>
    </linearGradient>
  </defs>
</svg>
