<?xml version="1.0" encoding="UTF-8" standalone="no"?>
<svg xmlns:xlink="http://www.w3.org/1999/xlink" height="5.2px" width="16.1px" xmlns="http://www.w3.org/2000/svg">
  <g transform="matrix(1.0, 0.0, 0.0, 1.0, 0.0, 0.0)">
    <path d="M9.65 0.7 L11.55 0.45 12.7 0.0 Q14.1 0.0 14.6 0.5 L14.85 0.85 Q15.8 2.2 14.85 3.4 L11.6 3.7 11.05 3.0 9.95 2.85 9.65 0.7" fill="#ffcc99" fill-rule="evenodd" stroke="none"/>
    <path d="M9.65 0.7 L9.95 2.85 Q8.35 3.2 6.85 3.85 4.35 4.85 1.55 5.2 L0.7 5.2 0.4 4.95 0.15 4.55 Q-0.9 3.2 -0.8 1.55 L-0.55 0.7 -0.4 0.3 8.65 0.75 9.65 0.7" fill="#7a4900" fill-rule="evenodd" stroke="none"/>
  </g>
</svg>
