<?xml version="1.0" encoding="UTF-8" standalone="no"?>
<svg xmlns:xlink="http://www.w3.org/1999/xlink" height="11.8px" width="11.3px" xmlns="http://www.w3.org/2000/svg">
  <g transform="matrix(1.0, 0.0, 0.0, 1.0, 0.0, 0.0)">
    <path d="M5.45 0.8 L10.35 1.0 10.75 2.45 10.85 3.4 9.6 4.0 Q8.15 4.65 6.65 4.8 L5.55 4.8 4.85 4.8 4.4 4.8 4.7 4.3 5.3 2.9 5.5 1.55 5.5 1.0 5.45 0.8 M9.95 1.55 Q9.4 0.9 8.6 0.95 L6.95 1.0 5.5 1.0 6.95 1.0 8.6 0.95 Q9.4 0.9 9.95 1.55" fill="url(#gradient0)" fill-rule="evenodd" stroke="none"/>
    <path d="M1.25 7.2 L0.6 6.55 0.55 4.55 Q-0.7 3.15 -0.4 1.15 L-0.1 -0.4 0.15 -0.9 Q1.65 -1.55 2.75 -2.85 L4.2 -4.4 4.35 -4.45 4.5 -4.2 4.5 -2.4 4.6 -2.15 Q5.2 -1.1 5.4 0.3 L5.45 0.8 5.5 1.0 5.5 1.55 5.3 2.9 4.7 4.3 4.4 4.8 3.6 5.8 3.45 6.75 Q2.65 7.6 1.25 7.2 L2.5 6.15 3.05 5.5 2.8 4.7 3.55 3.75 4.1 2.75 4.5 1.35 4.6 1.0 4.6 0.8 4.6 -0.7 4.5 -1.4 3.7 -2.15 3.5 -3.1 3.7 -2.15 4.5 -1.4 4.6 -0.7 4.6 0.8 4.6 1.0 4.5 1.35 4.1 2.75 3.55 3.75 2.8 4.7 3.05 5.5 2.5 6.15 1.25 7.2 M0.75 -0.7 L1.35 -1.4 2.05 -1.95 3.5 -3.1 2.05 -1.95 1.35 -1.4 0.75 -0.7 2.05 0.0 2.7 0.4 2.25 1.65 2.55 2.25 2.25 1.65 2.7 0.4 2.05 0.0 0.75 -0.7 0.3 -0.1 0.1 0.3 Q-0.25 1.05 -0.1 2.0 L0.3 3.45 0.45 3.65 0.5 3.8 Q1.0 4.65 0.9 5.65 L1.05 6.45 0.9 5.65 Q1.0 4.65 0.5 3.8 L0.45 3.65 0.3 3.45 -0.1 2.0 Q-0.25 1.05 0.1 0.3 L0.3 -0.1 0.75 -0.7 M3.5 -3.1 L3.95 -3.6 3.5 -3.1" fill="url(#gradient1)" fill-rule="evenodd" stroke="none"/>
    <path d="M4.4 4.8 L4.85 4.8 5.55 4.8 6.65 4.8 Q8.15 4.65 9.6 4.0 L10.85 3.4 10.75 2.45 10.35 1.0 5.45 0.8" fill="none" stroke="#000000" stroke-linecap="round" stroke-linejoin="round" stroke-width="0.05"/>
    <path d="M5.5 1.0 L6.95 1.0 8.6 0.95 Q9.4 0.9 9.95 1.55" fill="none" stroke="#ffffff" stroke-linecap="round" stroke-linejoin="round" stroke-width="0.05"/>
    <path d="M3.5 -3.1 L2.05 -1.95 1.35 -1.4 0.75 -0.7 0.3 -0.1 0.1 0.3 Q-0.25 1.05 -0.1 2.0 L0.3 3.45 0.45 3.65 0.5 3.8 Q1.0 4.65 0.9 5.65 L1.05 6.45 M3.95 -3.6 L3.5 -3.1" fill="none" stroke="#ffffff" stroke-linecap="round" stroke-linejoin="round" stroke-width="0.05"/>
    <path d="M5.45 0.8 L5.4 0.3 Q5.2 -1.1 4.6 -2.15 L4.5 -2.4 4.5 -4.2 4.35 -4.45 4.2 -4.4 2.75 -2.85 Q1.65 -1.55 0.15 -0.9 L-0.1 -0.4 -0.4 1.15 Q-0.7 3.15 0.55 4.55 L0.6 6.55 1.25 7.2 2.5 6.15 3.05 5.5 2.8 4.7 3.55 3.75 4.1 2.75 4.5 1.35 4.6 1.0 4.6 0.8 4.6 -0.7 4.5 -1.4 3.7 -2.15 3.5 -3.1 M0.75 -0.7 L2.05 0.0 2.7 0.4 2.25 1.65 2.55 2.25 M5.45 0.8 L5.5 1.0 5.5 1.55 5.3 2.9 4.7 4.3 4.4 4.8 3.6 5.8 3.45 6.75 Q2.65 7.6 1.25 7.2" fill="none" stroke="#000000" stroke-linecap="round" stroke-linejoin="round" stroke-width="0.05"/>
  </g>
  <defs>
    <linearGradient gradientTransform="matrix(0.0, 0.0032, -0.0097, 0.0, -2.25, 2.5)" gradientUnits="userSpaceOnUse" id="gradient0" spreadMethod="pad" x1="-819.2" x2="819.2">
      <stop offset="0.0" stop-color="#ffffff"/>
      <stop offset="0.43529411764705883" stop-color="#d3cbc5"/>
      <stop offset="1.0" stop-color="#746558"/>
    </linearGradient>
    <radialGradient cx="0" cy="0" gradientTransform="matrix(0.0063, 0.0, 0.0, 0.0083, 0.85, 0.75)" gradientUnits="userSpaceOnUse" id="gradient1" r="819.2" spreadMethod="pad">
      <stop offset="0.0" stop-color="#ffffff"/>
      <stop offset="0.43529411764705883" stop-color="#d3cbc5"/>
      <stop offset="1.0" stop-color="#746558"/>
    </radialGradient>
  </defs>
</svg>
