<?xml version="1.0" encoding="UTF-8" standalone="no"?>
<svg xmlns:xlink="http://www.w3.org/1999/xlink" height="11.8px" width="5.95px" xmlns="http://www.w3.org/2000/svg">
  <g transform="matrix(1.0, 0.0, 0.0, 1.0, 0.0, 0.0)">
    <path d="M3.7 -3.85 L3.5 -3.1 3.7 -2.15 4.5 -1.4 4.6 -0.7 Q4.75 0.25 4.5 1.35 L4.1 2.75 3.55 3.75 2.8 4.7 3.05 5.5 2.5 6.15 1.25 7.2 0.8 6.75 0.6 6.55 0.55 4.55 Q-0.7 3.15 -0.4 1.15 L-0.1 -0.4 0.15 -0.9 Q1.65 -1.55 2.75 -2.85 L3.7 -3.85 M3.5 -3.1 L2.05 -1.95 1.35 -1.4 0.75 -0.7 0.3 -0.1 0.1 0.3 Q-0.25 1.05 -0.1 2.0 0.0 2.95 0.5 3.8 1.0 4.65 0.9 5.65 L0.8 6.75 0.9 5.65 Q1.0 4.65 0.5 3.8 0.0 2.95 -0.1 2.0 -0.25 1.05 0.1 0.3 L0.3 -0.1 0.75 -0.7 1.35 -1.4 2.05 -1.95 3.5 -3.1 M2.55 2.25 L2.25 1.65 2.7 0.4 2.05 0.0 0.75 -0.7 2.05 0.0 2.7 0.4 2.25 1.65 2.55 2.25" fill="url(#gradient0)" fill-rule="evenodd" stroke="none"/>
    <path d="M3.5 -3.1 L3.7 -3.85 4.2 -4.4 4.35 -4.45 4.5 -4.2 4.5 -2.4 4.6 -2.15 Q5.2 -1.1 5.4 0.3 L5.5 1.55 5.3 2.9 4.7 4.3 3.6 5.8 3.45 6.75 Q2.65 7.6 1.25 7.2 L2.5 6.15 3.05 5.5 2.8 4.7 3.55 3.75 4.1 2.75 4.5 1.35 Q4.75 0.25 4.6 -0.7 L4.5 -1.4 3.7 -2.15 3.5 -3.1" fill="url(#gradient1)" fill-rule="evenodd" stroke="none"/>
    <path d="M3.7 -3.85 L3.5 -3.1 2.05 -1.95 1.35 -1.4 0.75 -0.7 0.3 -0.1 0.1 0.3 Q-0.25 1.05 -0.1 2.0 0.0 2.95 0.5 3.8 1.0 4.65 0.9 5.65 L0.8 6.75" fill="none" stroke="#ffffff" stroke-linecap="round" stroke-linejoin="round" stroke-width="0.05"/>
    <path d="M3.5 -3.1 L3.7 -2.15 4.5 -1.4 4.6 -0.7 Q4.75 0.25 4.5 1.35 L4.1 2.75 3.55 3.75 2.8 4.7 3.05 5.5 2.5 6.15 1.25 7.2 Q2.65 7.6 3.45 6.75 L3.6 5.8 4.7 4.3 5.3 2.9 5.5 1.55 5.4 0.3 Q5.2 -1.1 4.6 -2.15 L4.5 -2.4 4.5 -4.2 4.35 -4.45 4.2 -4.4 3.7 -3.85 2.75 -2.85 Q1.65 -1.55 0.15 -0.9 L-0.1 -0.4 -0.4 1.15 Q-0.7 3.15 0.55 4.55 L0.6 6.55 0.8 6.75 1.25 7.2 M0.75 -0.7 L2.05 0.0 2.7 0.4 2.25 1.65 2.55 2.25" fill="none" stroke="#000000" stroke-linecap="round" stroke-linejoin="round" stroke-width="0.05"/>
  </g>
  <defs>
    <radialGradient cx="0" cy="0" gradientTransform="matrix(0.0063, 0.0, 0.0, 0.0083, 0.85, 0.75)" gradientUnits="userSpaceOnUse" id="gradient0" r="819.2" spreadMethod="pad">
      <stop offset="0.0" stop-color="#ffffff"/>
      <stop offset="0.43529411764705883" stop-color="#d3cbc5"/>
      <stop offset="1.0" stop-color="#746558"/>
    </radialGradient>
    <radialGradient cx="0" cy="0" gradientTransform="matrix(0.0074, 0.0, 0.0, 0.0074, 3.9, -0.65)" gradientUnits="userSpaceOnUse" id="gradient1" r="819.2" spreadMethod="pad">
      <stop offset="0.0" stop-color="#ffff82"/>
      <stop offset="0.5215686274509804" stop-color="#ffef7a"/>
      <stop offset="1.0" stop-color="#745621"/>
    </radialGradient>
  </defs>
</svg>
