<?xml version="1.0" encoding="UTF-8" standalone="no"?>
<svg xmlns:xlink="http://www.w3.org/1999/xlink" height="15.45px" width="5.45px" xmlns="http://www.w3.org/2000/svg">
  <g transform="matrix(1.0, 0.0, 0.0, 1.0, 0.0, 0.0)">
    <path d="M4.4 0.7 L4.65 1.8 Q4.65 2.6 5.0 4.15 L5.15 5.8 Q5.2 8.75 4.65 10.7 4.05 12.65 4.05 13.5 4.05 14.3 3.5 14.9 L3.25 15.5 1.8 15.3 0.8 15.2 0.15 15.1 0.15 14.5 0.05 12.35 -0.25 8.6 Q-0.4 6.7 -0.2 4.7 -0.05 3.2 0.45 2.05 L0.8 1.35 1.55 0.55 Q2.25 0.1 3.0 0.05 4.2 0.3 4.4 0.7" fill="#81814f" fill-rule="evenodd" stroke="none"/>
    <path d="M4.4 0.7 L4.65 1.8 Q4.65 2.6 5.0 4.15 L5.15 5.8 Q5.2 8.75 4.65 10.7 4.05 12.65 4.05 13.5 4.05 14.3 3.5 14.9 L3.25 15.5 M0.15 15.1 L0.15 14.5 0.05 12.35 -0.25 8.6 Q-0.4 6.7 -0.2 4.7 -0.05 3.2 0.45 2.05" fill="none" stroke="#000000" stroke-linecap="round" stroke-linejoin="round" stroke-width="0.05"/>
  </g>
</svg>
