<?xml version="1.0" encoding="UTF-8" standalone="no"?>
<svg xmlns:xlink="http://www.w3.org/1999/xlink" height="15.4px" width="5.6px" xmlns="http://www.w3.org/2000/svg">
  <g transform="matrix(1.0, 0.0, 0.0, 1.0, 0.0, 0.0)">
    <path d="M4.65 3.05 L4.65 6.0 Q4.5 8.25 3.55 10.25 4.5 8.25 4.65 6.0 L4.65 3.05 M0.3 2.15 L1.0 1.45 2.45 0.3 Q2.75 0.1 3.1 0.0 L3.55 0.2 5.05 1.1 Q5.7 3.25 5.65 5.75 L5.25 10.45 Q4.95 12.65 4.05 13.95 3.1 15.2 1.85 15.4 L0.9 14.95 0.25 10.35 0.05 6.45 Q0.0 4.1 0.3 2.15" fill="#81814f" fill-rule="evenodd" stroke="none"/>
    <path d="M3.55 10.25 Q4.5 8.25 4.65 6.0 L4.65 3.05 M5.05 1.1 Q5.7 3.25 5.65 5.75 L5.25 10.45 Q4.95 12.65 4.05 13.95 3.1 15.2 1.85 15.4 L0.9 14.95 0.25 10.35 0.05 6.45 Q0.0 4.1 0.3 2.15" fill="none" stroke="#000000" stroke-linecap="round" stroke-linejoin="round" stroke-width="0.05"/>
  </g>
</svg>
