<?xml version="1.0" encoding="UTF-8" standalone="no"?>
<svg xmlns:xlink="http://www.w3.org/1999/xlink" height="7.0px" width="8.3px" xmlns="http://www.w3.org/2000/svg">
  <g transform="matrix(1.0, 0.0, 0.0, 1.0, 0.0, 0.0)">
    <path d="M2.45 3.2 L3.1 2.8 3.95 2.1 4.35 1.35 5.15 -0.15 7.75 -0.5 Q9.05 2.45 7.9 5.15 5.05 6.5 2.2 6.5 0.8 6.5 0.15 5.2 L0.95 4.15 2.45 3.2 3.15 3.45 2.45 3.2 M5.85 0.5 L5.5 1.1 Q4.55 2.55 3.15 3.45 4.55 2.55 5.5 1.1 L5.85 0.5 M8.0 3.6 L7.4 3.65 7.45 3.5 6.8 2.35 Q5.9 2.15 5.6 2.95 5.8 3.95 6.75 4.3 L4.15 4.85 3.85 4.4 3.55 3.75 3.15 3.45 3.55 3.75 3.85 4.4 4.15 4.85 6.75 4.3 Q5.8 3.95 5.6 2.95 5.9 2.15 6.8 2.35 L7.45 3.5 7.4 3.65 8.0 3.6 M1.1 5.0 Q1.6 4.1 2.7 3.6 L3.15 3.45 2.7 3.6 Q1.6 4.1 1.1 5.0" fill="url(#gradient0)" fill-rule="evenodd" stroke="none"/>
    <path d="M2.45 3.2 L0.95 4.15 0.15 5.2 Q0.8 6.5 2.2 6.5 5.05 6.5 7.9 5.15 9.05 2.45 7.75 -0.5 L5.15 -0.15 4.35 1.35 3.95 2.1 3.1 2.8 2.45 3.2 3.15 3.45 3.55 3.75 3.85 4.4 4.15 4.85 6.75 4.3 Q5.8 3.95 5.6 2.95 5.9 2.15 6.8 2.35 L7.45 3.5 7.4 3.65 8.0 3.6" fill="none" stroke="#000000" stroke-linecap="round" stroke-linejoin="round" stroke-width="0.05"/>
    <path d="M3.15 3.45 Q4.55 2.55 5.5 1.1 L5.85 0.5 M3.15 3.45 L2.7 3.6 Q1.6 4.1 1.1 5.0" fill="none" stroke="#ffffff" stroke-linecap="round" stroke-linejoin="round" stroke-width="0.05"/>
  </g>
  <defs>
    <radialGradient cx="0" cy="0" gradientTransform="matrix(0.006, 0.0, 0.0, 0.006, 4.3, 3.0)" gradientUnits="userSpaceOnUse" id="gradient0" r="819.2" spreadMethod="pad">
      <stop offset="0.0" stop-color="#ececec"/>
      <stop offset="1.0" stop-color="#a0a0a0"/>
    </radialGradient>
  </defs>
</svg>
