<?xml version="1.0" encoding="UTF-8" standalone="no"?>
<svg xmlns:xlink="http://www.w3.org/1999/xlink" height="7.0px" width="8.3px" xmlns="http://www.w3.org/2000/svg">
  <g transform="matrix(1.0, 0.0, 0.0, 1.0, 0.0, 0.0)">
    <path d="M5.55 6.05 L2.2 6.5 Q0.8 6.5 0.15 5.2 L0.95 4.15 3.1 2.8 3.95 2.1 4.35 1.35 5.15 -0.15 7.75 -0.5 Q8.4 0.95 8.45 2.35 L8.1 2.35 7.95 2.4 7.7 2.6 7.1 3.0 6.7 3.3 6.35 3.6 6.0 4.0 Q5.5 4.85 5.55 6.05 5.5 4.85 6.0 4.0 L6.35 3.6 6.7 3.3 7.1 3.0 7.7 2.6 7.95 2.4 8.1 2.35 8.45 2.35 Q8.5 3.8 7.9 5.15 L5.55 6.05 M0.85 5.2 L1.5 4.5 Q2.3 3.95 3.25 3.55 L3.95 3.05 Q5.15 1.9 5.6 0.1 5.15 1.9 3.95 3.05 L3.25 3.55 Q2.3 3.95 1.5 4.5 L0.85 5.2" fill="url(#gradient0)" fill-rule="evenodd" stroke="none"/>
    <path d="M8.45 2.35 Q8.4 0.95 7.75 -0.5 L5.15 -0.15 4.35 1.35 3.95 2.1 3.1 2.8 0.95 4.15 0.15 5.2 Q0.8 6.5 2.2 6.5 L5.55 6.05 Q5.5 4.85 6.0 4.0 L6.35 3.6 6.7 3.3 7.1 3.0 7.7 2.6 7.95 2.4 8.1 2.35 8.45 2.35 Q8.5 3.8 7.9 5.15 L5.55 6.05" fill="none" stroke="#000000" stroke-linecap="round" stroke-linejoin="round" stroke-width="0.05"/>
    <path d="M5.6 0.1 Q5.15 1.9 3.95 3.05 L3.25 3.55 Q2.3 3.95 1.5 4.5 L0.85 5.2" fill="none" stroke="#ffffff" stroke-linecap="round" stroke-linejoin="round" stroke-width="0.05"/>
  </g>
  <defs>
    <linearGradient gradientTransform="matrix(0.0027, 0.0029, -0.0072, 0.0065, 0.25, 7.05)" gradientUnits="userSpaceOnUse" id="gradient0" spreadMethod="pad" x1="-819.2" x2="819.2">
      <stop offset="0.0" stop-color="#ffffff"/>
      <stop offset="0.43529411764705883" stop-color="#d3cbc5"/>
      <stop offset="1.0" stop-color="#746558"/>
    </linearGradient>
  </defs>
</svg>
