<?xml version="1.0" encoding="UTF-8" standalone="no"?>
<svg xmlns:xlink="http://www.w3.org/1999/xlink" height="15.95px" width="6.75px" xmlns="http://www.w3.org/2000/svg">
  <g transform="matrix(1.0, 0.0, 0.0, 1.0, 0.0, 0.0)">
    <path d="M4.0 13.5 L2.7 13.65 2.55 12.0 2.6 10.3 3.1 8.4 3.6 7.55 4.35 6.85 4.25 8.2 4.1 10.0 4.0 11.7 4.0 12.3 4.0 13.5" fill="#3a371f" fill-rule="evenodd" stroke="none"/>
    <path d="M2.7 -0.7 L3.05 -0.45 4.05 0.45 4.6 1.05 6.05 1.55 6.15 3.05 5.7 3.2 5.45 3.25 5.3 3.4 5.45 3.65 6.1 3.9 6.3 4.8 6.15 5.2 5.1 5.45 4.9 6.45 4.35 6.85 3.6 7.55 3.1 8.4 2.6 10.3 2.55 12.0 2.7 13.65 4.0 13.5 4.0 14.1 Q3.2 15.0 2.05 14.75 L1.25 14.55 1.0 14.4 0.8 13.7 Q0.75 13.25 0.95 12.75 L1.05 11.45 1.0 10.3 0.9 9.2 0.65 7.25 0.4 5.4 0.3 4.9 0.05 3.55 -0.2 1.85 -0.3 0.95 -0.4 0.05 -0.45 -1.15 2.45 -0.95 2.7 -0.7 -0.1 -0.65 -0.05 0.65 0.0 0.75 -0.05 0.65 -0.1 -0.65 2.7 -0.7 M1.05 7.05 Q0.9 6.1 1.45 5.3 L2.55 4.05 Q2.85 3.75 3.3 3.6 L3.1 2.25 2.8 0.65 2.55 -0.15 0.35 0.0 0.15 0.2 0.0 0.45 0.0 0.75 0.0 0.45 0.15 0.2 0.35 0.0 2.55 -0.15 2.8 0.65 3.1 2.25 3.3 3.6 Q2.85 3.75 2.55 4.05 L1.45 5.3 Q0.9 6.1 1.05 7.05 L1.4 8.85 1.45 10.5 1.45 12.35 1.3 13.95 1.45 12.35 1.45 10.5 1.4 8.85 1.05 7.05 0.95 6.3 0.7 4.45 0.3 2.65 Q0.0 1.65 0.0 0.75 0.0 1.65 0.3 2.65 L0.7 4.45 0.95 6.3 1.05 7.05 M1.6 6.6 L1.65 6.2 Q2.5 4.7 4.0 3.9 L4.05 3.4 4.0 2.25 4.05 3.4 4.0 3.9 Q2.5 4.7 1.65 6.2 L1.6 6.6" fill="url(#gradient0)" fill-rule="evenodd" stroke="none"/>
    <path d="M4.35 6.85 L4.9 6.45 5.1 5.45 6.15 5.2 6.3 4.8 6.1 3.9 5.45 3.65 5.3 3.4 5.45 3.25 5.7 3.2 6.15 3.05 6.05 1.55 4.6 1.05 4.05 0.45 3.05 -0.45 2.7 -0.7 2.45 -0.95 -0.45 -1.15 -0.4 0.05 -0.3 0.95 -0.2 1.85 0.05 3.55 0.3 4.9 0.4 5.4 0.65 7.25 0.9 9.2 1.0 10.3 1.05 11.45 0.95 12.75 M0.0 0.75 L0.0 0.45 0.15 0.2 0.35 0.0 2.55 -0.15 2.8 0.65 3.1 2.25 3.3 3.6 Q2.85 3.75 2.55 4.05 L1.45 5.3 Q0.9 6.1 1.05 7.05 M4.0 13.5 L2.7 13.65 2.55 12.0 2.6 10.3 3.1 8.4 3.6 7.55 4.35 6.85 4.25 8.2 4.1 10.0 4.0 11.7 4.0 12.3" fill="none" stroke="#000000" stroke-linecap="round" stroke-linejoin="round" stroke-width="0.05"/>
    <path d="M0.95 12.75 Q0.75 13.25 0.8 13.7 M4.0 14.1 L4.0 13.5 4.0 12.3" fill="none" stroke="#000000" stroke-linecap="round" stroke-linejoin="round" stroke-width="0.05"/>
    <path d="M2.7 -0.7 L-0.1 -0.65 -0.05 0.65 0.0 0.75 Q0.0 1.65 0.3 2.65 L0.7 4.45 0.95 6.3 1.05 7.05 1.4 8.85 1.45 10.5 1.45 12.35 1.3 13.95 M4.0 2.25 L4.05 3.4 4.0 3.9 Q2.5 4.7 1.65 6.2 L1.6 6.6" fill="none" stroke="#ffffff" stroke-linecap="round" stroke-linejoin="round" stroke-width="0.05"/>
  </g>
  <defs>
    <linearGradient gradientTransform="matrix(0.004, -2.0E-4, 5.0E-4, 0.0097, 2.2, 6.85)" gradientUnits="userSpaceOnUse" id="gradient0" spreadMethod="pad" x1="-819.2" x2="819.2">
      <stop offset="0.0" stop-color="#ffffff"/>
      <stop offset="0.43529411764705883" stop-color="#d3cbc5"/>
      <stop offset="1.0" stop-color="#746558"/>
    </linearGradient>
  </defs>
</svg>
