<?xml version="1.0" encoding="UTF-8" standalone="no"?>
<svg xmlns:xlink="http://www.w3.org/1999/xlink" height="18.95px" width="12.1px" xmlns="http://www.w3.org/2000/svg">
  <g transform="matrix(1.0, 0.0, 0.0, 1.0, 0.0, 0.0)">
    <path d="M9.1 13.45 L9.45 14.35 8.9 14.5 7.7 14.75 6.7 15.15 5.6 15.5 5.45 15.55 5.65 16.45 5.55 18.1 5.35 19.2 3.0 19.15 2.65 18.1 2.6 16.55 Q2.65 15.9 2.85 15.3 2.35 15.35 2.1 14.95 1.65 14.4 2.05 14.2 L3.75 14.85 5.5 14.5 7.45 14.1 8.95 13.8 9.1 13.45 M11.35 6.8 L11.2 7.35 9.2 7.15 Q9.2 6.85 9.35 6.65 L9.75 6.45 11.35 6.8 M3.25 15.8 L3.1 16.65 Q2.8 17.9 3.6 18.85 2.8 17.9 3.1 16.65 L3.25 15.8 M2.85 15.3 L5.45 15.55 2.85 15.3" fill="url(#gradient0)" fill-rule="evenodd" stroke="none"/>
    <path d="M11.0 3.55 L10.4 5.05 9.75 6.45 10.4 5.05 11.0 3.55 M11.2 7.35 L10.45 8.9 Q9.95 9.7 9.7 10.7 L9.3 12.25 9.25 13.0 9.1 13.45 8.95 13.8 7.45 14.1 5.5 14.5 3.75 14.85 2.05 14.2 1.9 13.35 1.85 13.25 1.4 11.9 1.05 10.45 0.85 9.3 Q0.3 8.5 0.1 7.75 L-0.15 6.35 -0.35 4.55 Q-0.5 3.5 -0.3 2.6 -0.1 1.75 0.5 1.4 L1.65 0.9 7.8 0.6 9.85 0.5 Q10.8 1.25 11.2 2.35 L11.65 4.2 11.55 5.85 11.35 6.8 9.75 6.45 9.35 6.65 Q9.2 6.85 9.2 7.15 L11.2 7.35 M7.8 0.6 L7.2 2.1 Q6.25 2.85 5.1 2.85 3.95 3.05 3.5 4.1 L2.55 2.75 Q2.05 2.05 1.15 1.85 2.05 2.05 2.55 2.75 L3.5 4.1 Q3.95 3.05 5.1 2.85 6.25 2.85 7.2 2.1 L7.8 0.6 M8.95 8.9 L9.2 7.15 8.95 8.9 M4.05 5.1 L3.9 5.95 Q3.5 7.45 4.25 8.75 3.5 7.45 3.9 5.95 L4.05 5.1 M0.6 1.65 Q0.0 2.75 0.15 5.25 0.25 7.7 1.25 8.55 0.25 7.7 0.15 5.25 0.0 2.75 0.6 1.65 M8.0 1.7 L7.9 1.95 Q6.7 3.05 5.1 3.55 L4.85 3.95 5.1 3.55 Q6.7 3.05 7.9 1.95 L8.0 1.7 M2.35 8.8 L1.6 9.0 0.85 9.3 1.6 9.0 2.35 8.8 M7.4 9.95 L3.85 9.1 3.3 8.3 3.85 9.1 7.4 9.95 M1.25 10.1 L1.45 11.05 1.85 13.25 1.45 11.05 1.25 10.1 M6.75 12.55 L6.9 10.6 2.8 10.5 2.5 11.1 Q2.05 11.9 2.3 12.85 2.05 11.9 2.5 11.1 L2.8 10.5 6.9 10.6 6.75 12.55 M4.35 13.05 L4.3 12.15 3.55 12.05 4.3 12.15 4.35 13.05 M5.2 12.05 L4.3 12.15 4.35 11.2 4.3 12.15 5.2 12.05 M6.85 9.2 L5.25 8.75 6.85 9.2 M3.2 5.15 L2.95 7.25 3.2 5.15" fill="url(#gradient1)" fill-rule="evenodd" stroke="none"/>
    <path d="M9.75 6.45 L10.4 5.05 11.0 3.55 M11.2 7.35 L10.45 8.9 Q9.95 9.7 9.7 10.7 L9.3 12.25 9.25 13.0 9.1 13.45 9.45 14.35 8.9 14.5 7.7 14.75 6.7 15.15 5.6 15.5 5.45 15.55 5.65 16.45 5.55 18.1 5.35 19.2 3.0 19.15 2.65 18.1 2.6 16.55 Q2.65 15.9 2.85 15.3 2.35 15.35 2.1 14.95 1.65 14.4 2.05 14.2 L1.9 13.35 1.85 13.25 1.4 11.9 1.05 10.45 0.85 9.3 Q0.3 8.5 0.1 7.75 L-0.15 6.35 -0.35 4.55 Q-0.5 3.5 -0.3 2.6 -0.1 1.75 0.5 1.4 L1.65 0.9 7.8 0.6 9.85 0.5 Q10.8 1.25 11.2 2.35 L11.65 4.2 11.55 5.85 11.35 6.8 11.2 7.35 9.2 7.15 8.95 8.9 M1.15 1.85 Q2.05 2.05 2.55 2.75 L3.5 4.1 Q3.95 3.05 5.1 2.85 6.25 2.85 7.2 2.1 L7.8 0.6 M3.3 8.3 L3.85 9.1 7.4 9.95 M0.85 9.3 L1.6 9.0 2.35 8.8 M4.35 11.2 L4.3 12.15 5.2 12.05 M3.55 12.05 L4.3 12.15 4.35 13.05 M2.3 12.85 Q2.05 11.9 2.5 11.1 L2.8 10.5 6.9 10.6 6.75 12.55 M11.35 6.8 L9.75 6.45 9.35 6.65 Q9.2 6.85 9.2 7.15 M2.95 7.25 L3.2 5.15 M9.1 13.45 L8.95 13.8 7.45 14.1 5.5 14.5 3.75 14.85 2.05 14.2 M5.45 15.55 L2.85 15.3" fill="none" stroke="#000000" stroke-linecap="round" stroke-linejoin="round" stroke-width="0.05"/>
    <path d="M4.85 3.95 L5.1 3.55 Q6.7 3.05 7.9 1.95 L8.0 1.7 M1.25 8.55 Q0.25 7.7 0.15 5.25 0.0 2.75 0.6 1.65 M4.25 8.75 Q3.5 7.45 3.9 5.95 L4.05 5.1 M1.85 13.25 L1.45 11.05 1.25 10.1 M5.25 8.75 L6.85 9.2 M3.6 18.85 Q2.8 17.9 3.1 16.65 L3.25 15.8" fill="none" stroke="#ffffff" stroke-linecap="round" stroke-linejoin="round" stroke-width="0.05"/>
  </g>
  <defs>
    <linearGradient gradientTransform="matrix(0.004, 0.0, 0.0, 0.002, 3.95, 10.1)" gradientUnits="userSpaceOnUse" id="gradient0" spreadMethod="pad" x1="-819.2" x2="819.2">
      <stop offset="0.0" stop-color="#ffffff"/>
      <stop offset="0.43529411764705883" stop-color="#d3cbc5"/>
      <stop offset="1.0" stop-color="#746558"/>
    </linearGradient>
    <radialGradient cx="0" cy="0" gradientTransform="matrix(0.0084, 0.0, 0.0, 0.0107, 3.75, 6.5)" gradientUnits="userSpaceOnUse" id="gradient1" r="819.2" spreadMethod="pad">
      <stop offset="0.0" stop-color="#ffffff"/>
      <stop offset="0.43529411764705883" stop-color="#d3cbc5"/>
      <stop offset="1.0" stop-color="#746558"/>
    </radialGradient>
  </defs>
</svg>
