<?xml version="1.0" encoding="UTF-8" standalone="no"?>
<svg xmlns:xlink="http://www.w3.org/1999/xlink" height="14.85px" width="9.7px" xmlns="http://www.w3.org/2000/svg">
  <g transform="matrix(1.0, 0.0, 0.0, 1.0, 0.0, 0.0)">
    <path d="M1.0 1.2 Q2.15 -1.95 6.05 -1.95 8.8 -1.95 9.8 0.4 10.3 1.55 10.25 2.9 L9.6 5.55 8.8 8.15 7.95 9.4 Q7.45 10.25 7.5 10.75 7.65 12.9 5.25 12.9 3.45 12.9 3.45 11.9 L2.05 9.45 Q0.6 7.15 0.6 4.65 0.4 2.8 1.0 1.2" fill="#000000" fill-rule="evenodd" stroke="none"/>
    <path d="M1.6 4.0 Q2.1 3.55 2.75 3.55 3.45 3.55 3.9 4.0 4.4 4.5 4.4 5.2 4.4 5.85 3.9 6.35 3.45 6.85 2.75 6.85 2.1 6.85 1.6 6.35 1.1 5.85 1.1 5.15 1.1 4.5 1.6 4.0" fill="#ffffff" fill-rule="evenodd" stroke="none"/>
  </g>
</svg>
