<?xml version="1.0" encoding="UTF-8" standalone="no"?>
<svg xmlns:xlink="http://www.w3.org/1999/xlink" height="5.9px" width="15.55px" xmlns="http://www.w3.org/2000/svg">
  <g transform="matrix(1.0, 0.0, 0.0, 1.0, 0.0, 0.0)">
    <path d="M0.4 -0.15 L0.7 -0.45 1.35 -0.1 1.3 0.35 1.35 -0.1 6.4 0.55 Q8.1 0.75 9.7 0.05 L9.75 0.2 9.75 0.65 9.75 0.7 9.95 2.85 8.25 3.3 5.5 3.7 3.4 4.3 3.0 4.8 2.2 4.95 1.5 5.25 1.25 5.45 0.45 4.75 0.1 4.4 -0.4 3.35 0.35 1.5 -0.1 0.25 0.4 -0.15 1.3 0.35 0.4 -0.15 M9.3 2.15 L9.25 0.75 5.85 1.05 9.25 0.75 9.3 2.15 M5.85 1.05 L6.4 0.55 5.85 1.05 5.8 1.05 5.55 2.1 5.05 2.3 3.2 2.7 5.05 2.3 5.55 2.1 5.8 1.05 5.85 1.05 2.85 0.65 5.85 1.05 M2.8 0.6 L2.85 0.65 2.8 0.6 1.3 0.35 2.8 0.6 M1.15 4.6 L0.65 3.75 0.45 3.05 1.65 1.15 1.3 0.4 1.3 0.35 1.3 0.4 1.65 1.15 0.45 3.05 0.65 3.75 1.15 4.6" fill="#5d5542" fill-rule="evenodd" stroke="none"/>
    <path d="M9.75 0.65 L11.4 0.45 12.55 0.0 Q14.35 0.0 14.7 0.85 15.65 2.2 14.7 3.4 L11.45 3.7 10.9 3.0 9.95 2.85 9.75 0.7 9.75 0.65" fill="#ffcc99" fill-rule="evenodd" stroke="none"/>
    <path d="M1.35 -0.1 L0.7 -0.45 0.4 -0.15 -0.1 0.25 0.35 1.5 -0.4 3.35 0.1 4.4 0.45 4.75 1.25 5.45 1.5 5.25 2.2 4.95 3.0 4.8 3.4 4.3 5.5 3.7 8.25 3.3 9.95 2.85 9.75 0.7 9.75 0.65 11.4 0.45 12.55 0.0 Q14.35 0.0 14.7 0.85 15.65 2.2 14.7 3.4 L11.45 3.7 10.9 3.0 9.95 2.85 M1.3 0.35 L1.35 -0.1 6.4 0.55 Q8.1 0.75 9.7 0.05 L9.75 0.2 9.75 0.65 M5.85 1.05 L5.8 1.05 5.55 2.1 5.05 2.3 3.2 2.7 M6.4 0.55 L5.85 1.05 M1.3 0.35 L1.3 0.4 1.65 1.15 0.45 3.05 0.65 3.75 1.15 4.6" fill="none" stroke="#000000" stroke-linecap="round" stroke-linejoin="round" stroke-width="0.05"/>
    <path d="M0.4 -0.15 L1.3 0.35 2.8 0.6 M5.85 1.05 L9.25 0.75 9.3 2.15 M5.85 1.05 L2.85 0.65" fill="none" stroke="#8a8068" stroke-linecap="round" stroke-linejoin="round" stroke-width="0.05"/>
    <path d="M2.85 0.65 L2.8 0.6" fill="none" stroke="#756d57" stroke-linecap="round" stroke-linejoin="round" stroke-width="0.05"/>
  </g>
</svg>
