<?xml version="1.0" encoding="UTF-8" standalone="no"?>
<svg xmlns:xlink="http://www.w3.org/1999/xlink" height="57.3px" width="8.45px" xmlns="http://www.w3.org/2000/svg">
  <g transform="matrix(1.0, 0.0, 0.0, 1.0, 0.0, 0.0)">
    <path d="M0.2 -50.0 L0.2 -49.85 0.2 -50.0 -0.8 -47.3 -1.7 -4.15 -0.8 -47.3 0.2 -50.0 M0.2 -4.15 L-1.7 -4.15 -2.35 -4.15 -1.6 -47.45 0.2 -51.5 2.05 -47.45 2.5 -4.15 1.85 -4.15 0.2 -4.15 0.2 -46.9 0.2 -4.15 M0.2 -49.85 L1.35 -47.05 1.85 -4.15 1.35 -47.05 0.2 -49.85" fill="url(#gradient0)" fill-rule="evenodd" stroke="none"/>
    <path d="M0.2 -49.85 L0.2 -50.0 M-1.7 -4.15 L0.2 -4.15 0.2 -46.9 M-1.7 -4.15 L-2.35 -4.15 -1.6 -47.45 0.2 -51.5 2.05 -47.45 2.5 -4.15 1.85 -4.15 0.2 -4.15" fill="none" stroke="#000000" stroke-linecap="round" stroke-linejoin="round" stroke-width="0.05"/>
    <path d="M0.2 -50.0 L-0.8 -47.3 -1.7 -4.15 M1.85 -4.15 L1.35 -47.05 0.2 -49.85" fill="none" stroke="#ffffff" stroke-linecap="round" stroke-linejoin="round" stroke-width="0.05"/>
    <path d="M1.05 -4.05 L2.75 -3.95 2.05 -3.7 1.1 -3.75 Q1.0 -3.85 1.05 -4.05 M-1.2 -4.1 L-1.15 -3.5 -2.85 -3.75 -1.2 -4.1 M0.45 -3.85 L0.4 -3.65 0.2 -3.2 -0.6 -3.25 Q-1.0 -3.65 -0.65 -4.15 -0.2 -4.65 0.45 -3.85" fill="#fcfcfc" fill-rule="evenodd" stroke="none"/>
    <path d="M0.9 -2.55 L0.8 -1.35 0.75 0.4 0.7 2.15 0.7 4.0 -0.4 3.6 -0.4 3.0 -0.35 2.25 -0.4 1.3 -0.45 -0.2 -0.5 -2.3 -0.3 -2.2 0.15 -1.45 0.9 -2.55 M0.75 0.4 L-0.4 1.3 0.75 0.4 M0.7 2.15 L-0.4 3.0 0.7 2.15 M0.8 -1.35 L-0.45 -0.2 0.8 -1.35" fill="#666666" fill-rule="evenodd" stroke="none"/>
    <path d="M-0.5 -2.3 L-2.55 -2.7 -2.9 -2.75 Q-4.6 -3.8 -4.25 -5.75 L-4.05 -4.9 Q-2.6 -3.75 -1.2 -5.05 L1.55 -4.95 3.7 -4.85 4.15 -5.55 3.9 -3.7 Q2.6 -3.0 0.9 -2.55 L0.15 -1.45 -0.3 -2.2 -0.5 -2.3 M0.7 4.0 L0.8 4.05 0.9 4.15 0.75 4.55 0.85 4.75 0.95 4.95 0.65 5.7 -0.3 5.8 -0.75 4.95 -0.6 4.8 -0.55 4.75 -0.6 4.6 -0.7 4.0 -0.4 3.6 0.7 4.0 M1.05 -4.05 Q1.0 -3.85 1.1 -3.75 L2.05 -3.7 2.75 -3.95 1.05 -4.05 M0.45 -3.85 Q-0.2 -4.65 -0.65 -4.15 -1.0 -3.65 -0.6 -3.25 L0.2 -3.2 0.4 -3.65 0.45 -3.85 M-1.2 -4.1 L-2.85 -3.75 -1.15 -3.5 -1.2 -4.1" fill="#cecee2" fill-rule="evenodd" stroke="none"/>
    <path d="M-0.5 -2.3 L-2.55 -2.7 -2.9 -2.75 Q-4.6 -3.8 -4.25 -5.75 L-4.05 -4.9 Q-2.6 -3.75 -1.2 -5.05 L1.55 -4.95 3.7 -4.85 4.15 -5.55 3.9 -3.7 Q2.6 -3.0 0.9 -2.55 L0.8 -1.35 0.75 0.4 0.7 2.15 0.7 4.0 0.8 4.05 0.9 4.15 0.75 4.55 0.85 4.75 0.95 4.95 0.65 5.7 -0.3 5.8 -0.75 4.95 -0.6 4.8 -0.55 4.75 -0.6 4.6 -0.7 4.0 -0.4 3.6 -0.4 3.0 -0.35 2.25 -0.4 1.3 -0.45 -0.2 -0.5 -2.3 -0.3 -2.2 0.15 -1.45 0.9 -2.55 M1.05 -4.05 L2.75 -3.95 2.05 -3.7 1.1 -3.75 Q1.0 -3.85 1.05 -4.05 M0.45 -3.85 Q-0.2 -4.65 -0.65 -4.15 -1.0 -3.65 -0.6 -3.25 L0.2 -3.2 0.4 -3.65 0.45 -3.85 M-1.2 -4.1 L-2.85 -3.75 -1.15 -3.5 -1.2 -4.1 M-0.4 3.0 L0.7 2.15 M-0.4 1.3 L0.75 0.4 M-0.4 3.6 L0.7 4.0 M-0.45 -0.2 L0.8 -1.35" fill="none" stroke="#000000" stroke-linecap="round" stroke-linejoin="round" stroke-width="0.05"/>
  </g>
  <defs>
    <linearGradient gradientTransform="matrix(0.013, 0.0226, -0.025, 0.0143, 1.35, -27.85)" gradientUnits="userSpaceOnUse" id="gradient0" spreadMethod="pad" x1="-819.2" x2="819.2">
      <stop offset="0.0" stop-color="#ceceec"/>
      <stop offset="0.28627450980392155" stop-color="#ffffff"/>
      <stop offset="0.5490196078431373" stop-color="#c1c1d5"/>
      <stop offset="0.7294117647058823" stop-color="#e7e7fb"/>
      <stop offset="0.8509803921568627" stop-color="#a7a7bb"/>
      <stop offset="1.0" stop-color="#acacc0"/>
    </linearGradient>
  </defs>
</svg>
