<?xml version="1.0" encoding="UTF-8" standalone="no"?>
<svg xmlns:xlink="http://www.w3.org/1999/xlink" height="55.55px" width="11.2px" xmlns="http://www.w3.org/2000/svg">
  <g transform="matrix(1.0, 0.0, 0.0, 1.0, 0.0, 0.0)">
    <path d="M0.05 -48.1 L2.0 -45.15 2.75 -7.8 1.25 -9.3 1.1 -27.65 1.05 -33.45 0.1 -34.65 0.05 -34.7 0.05 -47.15 0.05 -48.1 0.05 -47.15 0.05 -34.7 0.05 -34.65 -0.85 -33.55 -1.05 -9.4 -2.55 -7.9 -1.8 -45.15 0.05 -48.1 M-1.95 -9.1 L-1.35 -44.95 0.05 -47.15 -1.35 -44.95 -1.95 -9.1" fill="url(#gradient0)" fill-rule="evenodd" stroke="none"/>
    <path d="M0.1 -34.65 L1.05 -33.45 1.1 -27.65 1.25 -9.3 2.75 -7.8 2.75 -7.6 1.05 -3.5 -0.9 -3.5 -2.55 -7.6 -2.55 -7.9 -1.05 -9.4 -0.85 -33.55 0.05 -34.65 0.1 -34.65 M-0.2 -33.4 L-0.3 -32.85 -0.25 -32.75 Q0.1 -32.6 0.4 -32.75 L0.45 -32.1 0.4 -31.9 Q0.1 -31.65 -0.35 -31.6 L-0.35 -30.85 -0.2 -30.6 0.4 -30.6 -0.2 -30.6 -0.35 -30.85 -0.35 -31.6 Q0.1 -31.65 0.4 -31.9 L0.45 -32.1 0.4 -32.75 Q0.1 -32.6 -0.25 -32.75 L-0.3 -32.85 -0.2 -33.4 M0.65 -11.45 Q0.15 -10.85 0.0 -10.15 L-0.1 -10.25 -0.2 -10.5 -0.4 -11.0 -0.2 -10.5 -0.1 -10.25 0.0 -10.15 Q0.15 -10.85 0.65 -11.45 M0.0 -14.75 L0.35 -14.65 Q0.65 -14.4 0.55 -14.0 L0.4 -13.85 -0.45 -13.75 -0.45 -14.0 -0.45 -13.75 0.4 -13.85 0.55 -14.0 Q0.65 -14.4 0.35 -14.65 L0.0 -14.75 M0.55 -16.25 L0.5 -16.65 0.4 -17.3 0.0 -17.2 Q-0.25 -17.2 -0.3 -17.0 L-0.45 -15.9 -0.3 -17.0 Q-0.25 -17.2 0.0 -17.2 L0.4 -17.3 0.5 -16.65 0.55 -16.25 M0.45 -25.3 L0.2 -24.95 0.1 -24.8 -0.35 -25.25 -0.45 -25.4 -0.4 -24.25 0.1 -24.8 0.45 -24.45 0.1 -24.8 -0.4 -24.25 -0.45 -25.4 -0.35 -25.25 0.1 -24.8 0.2 -24.95 0.45 -25.3 M-0.55 -7.5 L-0.55 -6.65 -0.55 -6.55 0.55 -6.55 -0.55 -6.55 -0.55 -6.65 -0.55 -7.5 M-0.4 -22.85 L-0.35 -22.5 -0.15 -22.25 0.0 -22.05 -0.15 -21.8 -0.3 -21.15 0.25 -21.7 0.0 -22.05 0.2 -23.35 0.0 -22.05 0.25 -21.7 -0.3 -21.15 -0.15 -21.8 0.0 -22.05 -0.15 -22.25 -0.35 -22.5 -0.4 -22.85 M-0.45 -13.75 L-0.45 -12.9 -0.45 -13.75 M0.65 -29.45 L-0.2 -29.55 -0.2 -29.45 -0.3 -28.25 -0.2 -29.45 -0.2 -29.55 0.65 -29.45 M-0.45 -26.35 L-0.3 -27.4 Q0.45 -26.85 1.1 -27.65 0.45 -26.85 -0.3 -27.4 L-0.45 -26.35 M0.45 -8.9 L-0.65 -8.85 0.45 -8.9 M0.65 -12.9 L-0.3 -12.05 0.65 -12.9 M-0.65 -18.85 Q0.15 -18.8 0.3 -18.15 0.15 -18.8 -0.65 -18.85 M0.3 -20.4 L-0.55 -19.65 0.3 -20.4" fill="url(#gradient1)" fill-rule="evenodd" stroke="none"/>
    <path d="M0.05 -34.7 L0.1 -34.65 0.05 -34.65 0.05 -34.7" fill="url(#gradient2)" fill-rule="evenodd" stroke="none"/>
    <path d="M0.6 3.9 L0.15 3.45 -0.3 3.9 -0.3 -2.7 0.6 -2.7 0.6 3.9" fill="#3a371f" fill-rule="evenodd" stroke="none"/>
    <path d="M-0.3 3.9 L0.15 3.45 0.6 3.9 0.95 4.25 0.95 6.55 0.15 7.45 -0.7 6.55 -0.7 4.25 -0.3 3.9" fill="url(#gradient3)" fill-rule="evenodd" stroke="none"/>
    <path d="M2.75 -7.8 L2.0 -45.15 0.05 -48.1 0.05 -47.15 0.05 -34.7 0.1 -34.65 1.05 -33.45 1.1 -27.65 1.25 -9.3 2.75 -7.8 2.75 -7.6 1.05 -3.5 -0.9 -3.5 -2.55 -7.6 -2.55 -7.9 -1.8 -45.15 0.05 -48.1 M0.4 -30.6 L-0.2 -30.6 -0.35 -30.85 -0.35 -31.6 Q0.1 -31.65 0.4 -31.9 L0.45 -32.1 0.4 -32.75 Q0.1 -32.6 -0.25 -32.75 L-0.3 -32.85 -0.2 -33.4 M0.1 -34.65 L0.05 -34.65 -0.85 -33.55 -1.05 -9.4 -2.55 -7.9 M0.05 -34.65 L0.05 -34.7 M0.45 -24.45 L0.1 -24.8 -0.4 -24.25 -0.45 -25.4 -0.35 -25.25 0.1 -24.8 0.2 -24.95 0.45 -25.3 M-0.45 -15.9 L-0.3 -17.0 Q-0.25 -17.2 0.0 -17.2 L0.4 -17.3 0.5 -16.65 0.55 -16.25 M-0.45 -14.0 L-0.45 -13.75 0.4 -13.85 0.55 -14.0 Q0.65 -14.4 0.35 -14.65 L0.0 -14.75 M-0.4 -11.0 L-0.2 -10.5 -0.1 -10.25 0.0 -10.15 Q0.15 -10.85 0.65 -11.45 M0.6 3.9 L0.15 3.45 -0.3 3.9 -0.7 4.25 -0.7 6.55 0.15 7.45 0.95 6.55 0.95 4.25 0.6 3.9 0.6 -2.7 M-0.3 -2.7 L-0.3 3.9 M1.1 -27.65 Q0.45 -26.85 -0.3 -27.4 L-0.45 -26.35 M-0.3 -28.25 L-0.2 -29.45 -0.2 -29.55 0.65 -29.45 M-0.45 -12.9 L-0.45 -13.75 M0.2 -23.35 L0.0 -22.05 0.25 -21.7 -0.3 -21.15 -0.15 -21.8 0.0 -22.05 -0.15 -22.25 -0.35 -22.5 -0.4 -22.85 M0.55 -6.55 L-0.55 -6.55 -0.55 -6.65 -0.55 -7.5 M-0.55 -19.65 L0.3 -20.4 M0.3 -18.15 Q0.15 -18.8 -0.65 -18.85 M-0.3 -12.05 L0.65 -12.9 M-0.65 -8.85 L0.45 -8.9" fill="none" stroke="#000000" stroke-linecap="round" stroke-linejoin="round" stroke-width="0.05"/>
    <path d="M0.05 -47.15 L-1.35 -44.95 -1.95 -9.1" fill="none" stroke="#ffffff" stroke-linecap="round" stroke-linejoin="round" stroke-width="0.05"/>
    <path d="M5.15 -3.3 L3.5 -3.95 -3.0 -3.95 -4.75 -3.3 -3.0 -2.55 3.5 -2.55 5.15 -3.3 M5.75 -3.3 L3.85 -2.3 -3.5 -2.3 -5.45 -3.3 -3.5 -4.3 3.85 -4.3 5.75 -3.3" fill="url(#gradient4)" fill-rule="evenodd" stroke="none"/>
    <path d="M5.15 -3.3 L3.5 -2.55 -3.0 -2.55 -4.75 -3.3 -3.0 -3.95 3.5 -3.95 5.15 -3.3" fill="url(#gradient5)" fill-rule="evenodd" stroke="none"/>
    <path d="M5.15 -3.3 L3.5 -2.55 -3.0 -2.55 -4.75 -3.3 -3.0 -3.95 3.5 -3.95 5.15 -3.3 M5.75 -3.3 L3.85 -2.3 -3.5 -2.3 -5.45 -3.3 -3.5 -4.3 3.85 -4.3 5.75 -3.3 Z" fill="none" stroke="#000000" stroke-linecap="round" stroke-linejoin="round" stroke-width="0.05"/>
  </g>
  <defs>
    <linearGradient gradientTransform="matrix(0.0127, 0.019, -0.0288, 0.0103, 0.15, -28.9)" gradientUnits="userSpaceOnUse" id="gradient0" spreadMethod="pad" x1="-819.2" x2="819.2">
      <stop offset="0.0" stop-color="#7e7a49"/>
      <stop offset="0.3333333333333333" stop-color="#ffffff"/>
      <stop offset="0.5686274509803921" stop-color="#daccb6"/>
      <stop offset="0.7686274509803922" stop-color="#e8dfd2"/>
      <stop offset="1.0" stop-color="#aea96f"/>
    </linearGradient>
    <linearGradient gradientTransform="matrix(0.0127, 0.019, -0.0288, 0.0103, 0.15, -28.9)" gradientUnits="userSpaceOnUse" id="gradient1" spreadMethod="pad" x1="-819.2" x2="819.2">
      <stop offset="0.0" stop-color="#5f5838"/>
      <stop offset="0.3333333333333333" stop-color="#dad7b6"/>
      <stop offset="0.5686274509803921" stop-color="#c6ac8e"/>
      <stop offset="0.7686274509803922" stop-color="#af8e67"/>
      <stop offset="1.0" stop-color="#877d4e"/>
    </linearGradient>
    <linearGradient gradientTransform="matrix(0.0127, 0.019, -0.0288, 0.0103, 0.15, -28.9)" gradientUnits="userSpaceOnUse" id="gradient2" spreadMethod="pad" x1="-819.2" x2="819.2">
      <stop offset="0.0" stop-color="#676767"/>
      <stop offset="0.3333333333333333" stop-color="#ffffff"/>
      <stop offset="0.5686274509803921" stop-color="#cacaca"/>
      <stop offset="0.7686274509803922" stop-color="#e0e0e0"/>
      <stop offset="1.0" stop-color="#929292"/>
    </linearGradient>
    <linearGradient gradientTransform="matrix(0.0012, 0.0013, -0.001, 9.0E-4, 0.15, 5.35)" gradientUnits="userSpaceOnUse" id="gradient3" spreadMethod="pad" x1="-819.2" x2="819.2">
      <stop offset="0.0" stop-color="#5f5838"/>
      <stop offset="0.3333333333333333" stop-color="#dad7b6"/>
      <stop offset="0.5686274509803921" stop-color="#c6ac8e"/>
      <stop offset="0.7686274509803922" stop-color="#af8e67"/>
      <stop offset="1.0" stop-color="#877d4e"/>
    </linearGradient>
    <linearGradient gradientTransform="matrix(-0.0035, 0.0014, -0.0026, -0.0012, 0.3, -3.3)" gradientUnits="userSpaceOnUse" id="gradient4" spreadMethod="pad" x1="-819.2" x2="819.2">
      <stop offset="0.0" stop-color="#5f5838"/>
      <stop offset="0.3333333333333333" stop-color="#dad7b6"/>
      <stop offset="0.5686274509803921" stop-color="#c6ac8e"/>
      <stop offset="0.7686274509803922" stop-color="#af8e67"/>
      <stop offset="1.0" stop-color="#877d4e"/>
    </linearGradient>
    <linearGradient gradientTransform="matrix(-0.0031, 0.001, -0.0023, -9.0E-4, 0.35, -3.3)" gradientUnits="userSpaceOnUse" id="gradient5" spreadMethod="pad" x1="-819.2" x2="819.2">
      <stop offset="0.0" stop-color="#5f5838"/>
      <stop offset="0.3333333333333333" stop-color="#dad7b6"/>
      <stop offset="0.5686274509803921" stop-color="#c6ac8e"/>
      <stop offset="0.7686274509803922" stop-color="#af8e67"/>
      <stop offset="1.0" stop-color="#877d4e"/>
    </linearGradient>
  </defs>
</svg>
