<?xml version="1.0" encoding="UTF-8" standalone="no"?>
<svg xmlns:xlink="http://www.w3.org/1999/xlink" height="55.8px" width="9.7px" xmlns="http://www.w3.org/2000/svg">
  <g transform="matrix(1.0, 0.0, 0.0, 1.0, 0.0, 0.0)">
    <path d="M0.85 4.25 Q1.75 5.15 1.1 6.4 0.65 7.35 -0.25 7.7 0.4 6.9 0.3 6.1 L0.1 5.75 Q-0.35 5.05 0.25 4.65 L0.7 4.25 0.85 4.25 M0.8 5.3 L0.7 4.25 0.8 5.3" fill="#aa9064" fill-rule="evenodd" stroke="none"/>
    <path d="M-1.5 -11.9 L-1.0 -11.9 -0.8 -11.6 -0.65 -10.9 -0.55 -10.55 -0.45 -10.25 -0.6 -8.35 -0.6 -8.1 -0.3 -7.3 Q0.15 -6.45 -0.2 -5.55 L-0.3 -5.15 0.35 -6.5 0.65 -8.95 0.7 -9.25 0.8 -9.55 0.95 -10.25 0.8 -10.95 0.9 -11.15 1.05 -11.5 1.1 -11.65 2.05 -11.85 2.2 -11.9 2.25 -11.9 3.0 -11.75 3.05 -11.55 3.0 -11.25 Q2.75 -9.65 3.1 -8.2 L3.5 -7.8 3.4 -7.2 3.25 -6.7 3.35 -6.15 Q3.4 -5.5 3.8 -5.55 L4.05 -5.6 5.8 -5.4 5.3 -4.95 4.8 -4.6 3.75 -4.25 3.25 -4.3 3.2 -3.5 2.9 -2.5 2.65 -2.15 2.15 -1.8 2.15 -2.35 1.65 -2.0 1.5 -1.9 1.15 -1.65 0.85 -1.7 0.8 -1.5 0.45 -1.55 Q0.4 -1.45 0.35 -1.5 0.2 -1.5 0.05 -1.65 L-0.75 -1.85 -0.7 -1.3 -1.65 -1.85 -2.5 -2.55 -2.75 -3.25 -3.35 -4.2 -3.5 -5.15 -3.4 -5.65 -2.8 -7.25 Q-2.4 -8.8 -2.35 -10.35 L-3.1 -9.15 Q-3.3 -9.9 -3.0 -10.75 L-2.95 -10.8 -2.1 -11.85 -1.5 -11.9 M2.8 -11.05 L2.75 -10.75 2.7 -10.7 2.65 -10.3 2.6 -10.2 2.55 -9.7 2.55 -9.6 Q2.55 -9.1 2.7 -8.6 L2.7 -8.45 2.75 -8.2 2.8 -8.15 Q2.8 -7.95 3.0 -7.9 L3.05 -7.85 3.05 -7.4 3.0 -7.1 2.95 -6.95 2.95 -6.35 3.0 -5.8 2.95 -6.35 2.95 -6.95 3.0 -7.1 3.05 -7.4 3.05 -7.85 3.0 -7.9 Q2.8 -7.95 2.8 -8.15 L2.75 -8.2 2.7 -8.45 2.7 -8.6 Q2.55 -9.1 2.55 -9.6 L2.55 -9.7 2.6 -10.2 2.65 -10.3 2.7 -10.7 2.75 -10.75 2.8 -11.05 2.8 -11.25 2.6 -11.55 2.8 -11.25 2.8 -11.05 Q2.4 -11.1 2.3 -11.3 L2.2 -11.9 2.3 -11.3 Q2.4 -11.1 2.8 -11.05 M2.3 -7.65 Q2.1 -7.2 2.15 -6.6 L2.25 -6.15 2.4 -6.1 2.7 -7.9 2.3 -7.65 M3.5 -4.65 L3.9 -4.6 4.1 -4.6 4.35 -4.7 4.5 -4.75 4.7 -4.8 Q4.85 -4.8 4.95 -4.95 L5.3 -4.95 4.95 -4.95 Q4.85 -4.8 4.7 -4.8 L4.5 -4.75 4.35 -4.7 4.1 -4.6 3.9 -4.6 3.5 -4.65 M4.7 -5.15 L3.8 -5.55 4.7 -5.15 M0.85 -4.05 L0.8 -3.45 0.65 -1.95 0.8 -3.45 0.85 -4.05 M1.4 -3.65 L0.65 -1.95 0.45 -1.55 0.65 -1.95 1.4 -3.65 M1.95 -3.35 L1.5 -1.9 1.95 -3.35 M2.4 -3.65 L2.15 -2.35 2.4 -3.65 M2.8 -3.6 L2.65 -2.15 2.8 -3.6 M-0.8 -11.6 L-2.05 -11.5 -2.1 -11.5 -2.4 -11.35 -2.4 -11.3 -2.45 -11.25 -2.65 -11.05 -2.95 -10.8 -2.65 -11.05 -2.45 -11.25 -2.4 -11.3 -2.4 -11.35 -2.1 -11.5 -2.05 -11.5 -0.8 -11.6 M-3.2 -4.8 L-3.0 -5.65 -2.6 -6.65 -2.5 -6.95 -2.2 -8.85 -2.5 -6.95 -2.6 -6.65 -3.0 -5.65 -3.2 -4.8 M-0.55 -5.15 L-0.05 -5.05 0.15 -5.2 -0.05 -5.05 -0.55 -5.15 M-2.45 -3.65 L-2.45 -3.35 -2.35 -2.95 Q-2.2 -2.45 -1.75 -2.3 -2.2 -2.45 -2.35 -2.95 L-2.45 -3.35 -2.45 -3.65 M-0.7 -4.05 L-0.2 -2.25 0.05 -1.65 -0.2 -2.25 -0.7 -4.05 M-0.75 -1.85 L-1.4 -2.35 Q-1.95 -2.95 -1.95 -3.65 -1.95 -2.95 -1.4 -2.35 L-0.75 -1.85 M-3.15 -4.45 L-2.75 -3.25 -3.15 -4.45 M-1.4 -3.5 Q-1.3 -2.7 -0.65 -2.25 -1.3 -2.7 -1.4 -3.5" fill="#625537" fill-rule="evenodd" stroke="none"/>
    <path d="M3.4 -7.2 L5.35 -7.15 4.5 -5.9 4.05 -5.6 3.8 -5.55 Q3.4 -5.5 3.35 -6.15 L3.25 -6.7 3.4 -7.2 M3.75 -4.25 L3.85 -4.0 Q4.1 -3.3 3.8 -2.65 L3.5 -3.4 3.55 -2.55 3.45 -2.35 3.05 -1.65 3.0 -2.35 2.9 -2.5 3.2 -3.5 3.25 -4.3 3.75 -4.25 M0.8 -1.5 L0.9 -0.1 0.65 1.3 0.95 3.1 0.85 4.25 0.7 4.25 0.25 4.65 -0.3 4.1 -0.35 3.8 -0.5 2.15 -0.45 0.35 -0.7 -1.25 -0.7 -1.3 -0.75 -1.85 0.05 -1.65 Q0.2 -1.5 0.35 -1.5 0.4 -1.45 0.45 -1.55 L0.8 -1.5 M-2.5 -2.55 L-2.6 -2.4 -2.6 -2.25 Q-2.7 -1.85 -2.45 -1.5 L-2.65 -1.7 -2.75 -1.75 -2.85 -1.9 Q-3.2 -2.25 -3.2 -2.75 L-3.2 -2.95 -3.3 -3.25 -3.5 -3.0 -3.75 -1.9 -3.85 -2.3 -3.9 -3.65 -3.9 -4.2 -3.7 -4.85 -3.5 -5.15 -3.35 -4.2 -2.75 -3.25 -2.5 -2.55 M4.25 -6.8 L3.25 -6.7 4.25 -6.8 M-0.15 1.75 Q0.0 2.45 0.7 2.85 L0.95 3.1 0.7 2.85 Q0.0 2.45 -0.15 1.75 M0.9 -0.1 L-0.7 -1.25 0.9 -0.1 M-0.45 0.35 L-0.3 0.75 0.65 1.3 -0.3 0.75 -0.45 0.35" fill="#453927" fill-rule="evenodd" stroke="none"/>
    <path d="M2.3 -7.65 L2.7 -7.9 2.4 -6.1 2.25 -6.15 2.15 -6.6 Q2.1 -7.2 2.3 -7.65" fill="#66ff00" fill-rule="evenodd" stroke="none"/>
    <path d="M-0.65 -10.9 L-0.3 -10.9 0.05 -10.8 0.15 -10.7 -0.05 -10.55 -0.05 -10.5 -0.45 -10.25 -0.55 -10.55 -0.05 -10.5 -0.55 -10.55 -0.65 -10.9 M-0.6 -8.1 Q0.45 -7.9 -0.15 -7.55 L-0.3 -7.3 -0.6 -8.1 M0.65 -8.95 L0.3 -9.1 Q0.05 -9.35 0.8 -9.55 L0.7 -9.25 0.65 -8.95 M0.8 -10.95 L0.45 -11.25 0.25 -11.45 1.05 -11.5 0.9 -11.15 0.8 -10.95 M0.45 -11.25 L0.9 -11.15 0.45 -11.25" fill="#836d4b" fill-rule="evenodd" stroke="none"/>
    <path d="M0.4 -26.1 L1.0 -26.0 0.85 -26.95 0.4 -26.85 0.85 -26.95 1.0 -26.0 1.05 -25.2 0.3 -25.1 1.05 -25.2 1.0 -26.0 0.4 -26.1 M-1.05 -12.25 L0.05 -46.3 0.7 -47.5 1.4 -45.95 1.75 -12.6 1.4 -45.95 0.7 -47.5 0.05 -46.3 -1.05 -12.25 M-1.5 -11.9 L-0.35 -46.4 0.65 -48.1 1.75 -46.3 2.25 -11.9 2.2 -11.9 2.05 -11.85 1.1 -11.65 1.05 -11.5 0.25 -11.45 0.45 -11.25 0.8 -10.95 0.95 -10.25 0.8 -9.55 Q0.05 -9.35 0.3 -9.1 L0.65 -8.95 0.35 -6.5 -0.3 -5.15 -0.2 -5.55 Q0.15 -6.45 -0.3 -7.3 L-0.15 -7.55 Q0.45 -7.9 -0.6 -8.1 L-0.6 -8.35 -0.45 -10.25 -0.05 -10.5 -0.05 -10.55 0.15 -10.7 0.05 -10.8 -0.3 -10.9 -0.65 -10.9 -0.8 -11.6 -1.0 -11.9 -1.5 -11.9 M0.5 -14.5 Q0.85 -14.3 0.55 -14.15 0.05 -13.85 0.3 -14.55 L0.5 -14.5 0.3 -14.55 Q0.05 -13.85 0.55 -14.15 0.85 -14.3 0.5 -14.5 M0.85 -14.95 L0.9 -15.75 0.4 -15.7 Q-0.4 -15.65 -0.15 -16.4 -0.4 -15.65 0.4 -15.7 L0.9 -15.75 0.95 -16.2 0.9 -15.75 0.85 -14.95 M0.95 -17.6 L0.4 -16.95 -0.15 -17.85 0.4 -16.95 0.95 -17.6 M0.45 -21.95 Q0.5 -22.45 0.8 -21.65 L0.75 -21.55 Q0.4 -21.5 0.45 -21.95 0.4 -21.5 0.75 -21.55 L0.8 -21.65 Q0.5 -22.45 0.45 -21.95 M0.1 -23.35 L1.2 -23.45 1.1 -23.8 1.05 -24.2 1.1 -23.8 1.2 -23.45 0.1 -23.35 M0.3 -19.05 L1.2 -19.35 0.2 -20.25 1.2 -19.35 0.3 -19.05 M-0.25 -12.35 L0.75 -12.25 0.8 -13.0 0.75 -12.25 -0.25 -12.35" fill="url(#gradient0)" fill-rule="evenodd" stroke="none"/>
    <path d="M0.4 -26.85 L0.85 -26.95 1.0 -26.0 1.05 -25.2 0.3 -25.1 M1.0 -26.0 L0.4 -26.1 M2.25 -11.9 L1.75 -46.3 0.65 -48.1 -0.35 -46.4 -1.5 -11.9 -1.0 -11.9 -0.8 -11.6 -0.65 -10.9 -0.3 -10.9 0.05 -10.8 0.15 -10.7 -0.05 -10.55 -0.05 -10.5 -0.45 -10.25 -0.6 -8.35 -0.6 -8.1 Q0.45 -7.9 -0.15 -7.55 L-0.3 -7.3 Q0.15 -6.45 -0.2 -5.55 L-0.3 -5.15 0.35 -6.5 0.65 -8.95 0.3 -9.1 Q0.05 -9.35 0.8 -9.55 L0.95 -10.25 0.8 -10.95 0.45 -11.25 0.25 -11.45 1.05 -11.5 1.1 -11.65 2.05 -11.85 2.2 -11.9 2.25 -11.9 3.0 -11.75 3.05 -11.55 3.0 -11.25 Q2.75 -9.65 3.1 -8.2 L3.5 -7.8 3.4 -7.2 5.35 -7.15 4.5 -5.9 4.05 -5.6 5.8 -5.4 5.3 -4.95 4.8 -4.6 3.75 -4.25 3.25 -4.3 3.2 -3.5 2.9 -2.5 2.65 -2.15 2.15 -1.8 2.15 -2.35 1.65 -2.0 1.5 -1.9 1.15 -1.65 0.85 -1.7 0.8 -1.5 0.9 -0.1 0.65 1.3 0.95 3.1 0.85 4.25 Q1.75 5.15 1.1 6.4 0.65 7.35 -0.25 7.7 0.4 6.9 0.3 6.1 L0.1 5.75 Q-0.35 5.05 0.25 4.65 L-0.3 4.1 -0.35 3.8 -0.5 2.15 -0.45 0.35 -0.7 -1.25 -0.7 -1.3 -1.65 -1.85 -2.5 -2.55 -2.75 -3.25 -3.15 -4.45 M-3.5 -5.15 L-3.4 -5.65 -2.8 -7.25 Q-2.4 -8.8 -2.35 -10.35 L-3.1 -9.15 Q-3.3 -9.9 -3.0 -10.75 L-2.95 -10.8 -2.1 -11.85 -1.5 -11.9 M0.2 -20.25 L1.2 -19.35 0.3 -19.05 M1.05 -24.2 L1.1 -23.8 1.2 -23.45 0.1 -23.35 M0.45 -21.95 Q0.4 -21.5 0.75 -21.55 L0.8 -21.65 Q0.5 -22.45 0.45 -21.95 M-0.15 -16.4 Q-0.4 -15.65 0.4 -15.7 L0.9 -15.75 0.95 -16.2 M-0.15 -17.85 L0.4 -16.95 0.95 -17.6 M0.9 -15.75 L0.85 -14.95 M0.5 -14.5 L0.3 -14.55 Q0.05 -13.85 0.55 -14.15 0.85 -14.3 0.5 -14.5 M2.8 -11.05 Q2.4 -11.1 2.3 -11.3 L2.2 -11.9 M1.05 -11.5 L0.9 -11.15 0.8 -10.95 M0.65 -8.95 L0.7 -9.25 0.8 -9.55 M3.4 -7.2 L3.25 -6.7 4.25 -6.8 M4.05 -5.6 L3.8 -5.55 4.7 -5.15 M3.25 -6.7 L3.35 -6.15 Q3.4 -5.5 3.8 -5.55 M0.45 -1.55 L0.65 -1.95 1.4 -3.65 M0.8 -1.5 L0.45 -1.55 Q0.4 -1.45 0.35 -1.5 0.2 -1.5 0.05 -1.65 L-0.75 -1.85 -0.7 -1.3 M2.15 -2.35 L2.4 -3.65 M0.8 -13.0 L0.75 -12.25 -0.25 -12.35 M0.7 4.25 L0.8 5.3 M0.25 4.65 L0.7 4.25 0.85 4.25 M0.95 3.1 L0.7 2.85 Q0.0 2.45 -0.15 1.75 M-0.55 -10.55 L-0.45 -10.25 M-0.65 -10.9 L-0.55 -10.55 M-0.6 -8.1 L-0.3 -7.3 M-3.5 -5.15 L-3.35 -4.2 -2.75 -3.25 M-1.95 -3.65 Q-1.95 -2.95 -1.4 -2.35 L-0.75 -1.85 M0.05 -1.65 L-0.2 -2.25 -0.7 -4.05 M0.65 1.3 L-0.3 0.75 -0.45 0.35 M-0.7 -1.25 L0.9 -0.1" fill="none" stroke="#000000" stroke-linecap="round" stroke-linejoin="round" stroke-width="0.05"/>
    <path d="M3.75 -4.25 L3.85 -4.0 Q4.1 -3.3 3.8 -2.65 L3.5 -3.4 3.55 -2.55 3.45 -2.35 3.05 -1.65 3.0 -2.35 2.9 -2.5 M-2.5 -2.55 L-2.6 -2.4 -2.6 -2.25 Q-2.7 -1.85 -2.45 -1.5 L-2.65 -1.7 -2.75 -1.75 -2.85 -1.9 Q-3.2 -2.25 -3.2 -2.75 L-3.2 -2.95 -3.3 -3.25 -3.5 -3.0 -3.75 -1.9 -3.85 -2.3 -3.9 -3.65 -3.9 -4.2 -3.7 -4.85 -3.5 -5.15" fill="none" stroke="#000000" stroke-linecap="round" stroke-linejoin="round" stroke-width="0.05"/>
    <path d="M2.3 -7.65 L2.7 -7.9 2.4 -6.1 2.25 -6.15 2.15 -6.6 Q2.1 -7.2 2.3 -7.65" fill="none" stroke="#006600" stroke-linecap="round" stroke-linejoin="round" stroke-width="0.05"/>
    <path d="M2.8 -11.05 L2.8 -11.25 2.6 -11.55 M3.0 -5.8 L2.95 -6.35 2.95 -6.95 3.0 -7.1 3.05 -7.4 3.05 -7.85 3.0 -7.9 Q2.8 -7.95 2.8 -8.15 L2.75 -8.2 2.7 -8.45 2.7 -8.6 Q2.55 -9.1 2.55 -9.6 L2.55 -9.7 2.6 -10.2 2.65 -10.3 2.7 -10.7 2.75 -10.75 2.8 -11.05 M0.9 -11.15 L0.45 -11.25 M5.3 -4.95 L4.95 -4.95 Q4.85 -4.8 4.7 -4.8 L4.5 -4.75 4.35 -4.7 4.1 -4.6 3.9 -4.6 3.5 -4.65 M0.65 -1.95 L0.8 -3.45 0.85 -4.05 M1.5 -1.9 L1.95 -3.35 M2.65 -2.15 L2.8 -3.6 M-2.95 -10.8 L-2.65 -11.05 -2.45 -11.25 -2.4 -11.3 -2.4 -11.35 -2.1 -11.5 -2.05 -11.5 -0.8 -11.6 M-0.05 -10.5 L-0.55 -10.55 M-2.2 -8.85 L-2.5 -6.95 -2.6 -6.65 -3.0 -5.65 -3.2 -4.8 M-1.75 -2.3 Q-2.2 -2.45 -2.35 -2.95 L-2.45 -3.35 -2.45 -3.65 M0.15 -5.2 L-0.05 -5.05 -0.55 -5.15 M-0.65 -2.25 Q-1.3 -2.7 -1.4 -3.5" fill="none" stroke="#ab936b" stroke-linecap="round" stroke-linejoin="round" stroke-width="0.05"/>
    <path d="M1.75 -12.6 L1.4 -45.95 0.7 -47.5 0.05 -46.3 -1.05 -12.25" fill="none" stroke="#f9ffdf" stroke-linecap="round" stroke-linejoin="round" stroke-width="0.05"/>
  </g>
  <defs>
    <linearGradient gradientTransform="matrix(-0.013, 0.0226, 0.025, 0.0143, -0.95, -27.85)" gradientUnits="userSpaceOnUse" id="gradient0" spreadMethod="pad" x1="-819.2" x2="819.2">
      <stop offset="0.0" stop-color="#e0ebcd"/>
      <stop offset="0.28627450980392155" stop-color="#ffffff"/>
      <stop offset="0.5490196078431373" stop-color="#d6d6ba"/>
      <stop offset="0.7294117647058823" stop-color="#f1f2ec"/>
      <stop offset="0.8509803921568627" stop-color="#b8d0a3"/>
      <stop offset="1.0" stop-color="#c4b7a8"/>
    </linearGradient>
  </defs>
</svg>
