<?xml version="1.0" encoding="UTF-8" standalone="no"?>
<svg xmlns:xlink="http://www.w3.org/1999/xlink" height="54.35px" width="9.55px" xmlns="http://www.w3.org/2000/svg">
  <g transform="matrix(1.0, 0.0, 0.0, 1.0, 0.0, 0.0)">
    <path d="M0.6 -2.0 L0.6 4.15 0.1 4.05 -0.3 4.15 -0.3 -2.0 0.1 -1.9 0.6 -2.0" fill="#3a371f" fill-rule="evenodd" stroke="none"/>
    <path d="M0.75 -9.6 L0.15 -9.8 -0.35 -9.6 -0.6 -9.2 -0.35 -8.75 0.15 -8.55 0.75 -8.75 1.0 -9.2 0.75 -9.6 1.0 -9.2 0.75 -8.75 0.15 -8.55 -0.35 -8.75 -0.6 -9.2 -0.35 -9.6 0.15 -9.8 0.75 -9.6 M0.15 -11.4 L1.55 -9.8 1.55 -3.75 3.25 -3.75 3.9 -4.65 4.95 -4.65 Q4.8 -3.7 3.35 -2.6 L1.25 -2.6 1.35 -3.15 1.35 -3.3 1.2 -3.75 1.0 -4.0 0.45 -4.3 0.1 -4.35 Q-0.4 -4.35 -0.8 -4.0 L-0.95 -3.75 -1.1 -3.3 -1.1 -3.15 -1.0 -2.6 -1.1 -3.15 -1.1 -3.3 -0.95 -3.75 -0.8 -4.0 Q-0.4 -4.35 0.1 -4.35 L0.45 -4.3 1.0 -4.0 1.2 -3.75 1.35 -3.3 1.35 -3.15 1.25 -2.6 1.0 -2.25 0.6 -2.0 0.1 -1.9 -0.3 -2.0 -0.8 -2.25 -1.0 -2.6 -3.0 -2.6 Q-4.55 -3.8 -4.6 -4.65 L-3.55 -4.65 -2.85 -3.75 -1.2 -3.75 -1.2 -9.8 0.15 -11.4 M0.75 -6.7 L1.0 -7.1 0.75 -7.55 0.15 -7.7 -0.35 -7.55 -0.6 -7.1 Q-0.65 -6.85 -0.35 -6.7 L0.15 -6.5 0.75 -6.7 0.15 -6.5 -0.35 -6.7 Q-0.65 -6.85 -0.6 -7.1 L-0.35 -7.55 0.15 -7.7 0.75 -7.55 1.0 -7.1 0.75 -6.7 M0.6 -5.6 L0.1 -5.75 -0.45 -5.6 -0.6 -5.2 -0.45 -4.8 0.1 -4.6 0.6 -4.8 0.85 -5.2 0.6 -5.6 0.85 -5.2 0.6 -4.8 0.1 -4.6 -0.45 -4.8 -0.6 -5.2 -0.45 -5.6 0.1 -5.75 0.6 -5.6 M0.6 4.15 L0.9 4.35 Q1.25 4.7 1.25 5.2 L0.9 5.95 Q0.6 6.3 0.1 6.3 L-0.7 5.95 -1.0 5.15 -0.7 4.35 -0.3 4.15 0.1 4.05 0.6 4.15 M-0.85 -4.6 L-0.85 -9.6 -0.85 -4.6" fill="#ffd86f" fill-rule="evenodd" stroke="none"/>
    <path d="M1.55 -9.8 L0.15 -11.4 -1.2 -9.8 -1.2 -45.6 Q0.15 -50.45 1.55 -45.6 L1.55 -9.8 M0.15 -47.0 L0.15 -11.4 0.15 -47.0 M-0.55 -45.95 L-0.55 -11.3 -0.55 -45.95" fill="url(#gradient0)" fill-rule="evenodd" stroke="none"/>
    <path d="M0.75 -9.6 L1.0 -9.2 0.75 -8.75 0.15 -8.55 -0.35 -8.75 -0.6 -9.2 -0.35 -9.6 0.15 -9.8 0.75 -9.6 M0.15 -11.4 L0.15 -47.0 M0.75 -6.7 L0.15 -6.5 -0.35 -6.7 Q-0.65 -6.85 -0.6 -7.1 L-0.35 -7.55 0.15 -7.7 0.75 -7.55 1.0 -7.1 0.75 -6.7 M0.6 -5.6 L0.85 -5.2 0.6 -4.8 0.1 -4.6 -0.45 -4.8 -0.6 -5.2 -0.45 -5.6 0.1 -5.75 0.6 -5.6 M-1.0 -2.6 L-1.1 -3.15 -1.1 -3.3 -0.95 -3.75 -0.8 -4.0 Q-0.4 -4.35 0.1 -4.35 L0.45 -4.3 1.0 -4.0 1.2 -3.75 1.35 -3.3 1.35 -3.15 1.25 -2.6" fill="none" stroke="#000000" stroke-linecap="round" stroke-linejoin="round" stroke-width="0.05"/>
    <path d="M-0.85 -9.6 L-0.85 -4.6 M-0.55 -11.3 L-0.55 -45.95" fill="none" stroke="#ffffff" stroke-linecap="round" stroke-linejoin="round" stroke-width="0.05"/>
  </g>
  <defs>
    <linearGradient gradientTransform="matrix(0.0092, 0.019, -0.0209, 0.0103, 0.2, -28.9)" gradientUnits="userSpaceOnUse" id="gradient0" spreadMethod="pad" x1="-819.2" x2="819.2">
      <stop offset="0.0" stop-color="#676767"/>
      <stop offset="0.3333333333333333" stop-color="#ffffff"/>
      <stop offset="0.5686274509803921" stop-color="#cacaca"/>
      <stop offset="0.7686274509803922" stop-color="#e0e0e0"/>
      <stop offset="1.0" stop-color="#929292"/>
    </linearGradient>
  </defs>
</svg>
