<?xml version="1.0" encoding="UTF-8" standalone="no"?>
<svg xmlns:xlink="http://www.w3.org/1999/xlink" height="5.35px" width="10.85px" xmlns="http://www.w3.org/2000/svg">
  <g transform="matrix(1.0, 0.0, 0.0, 1.0, 0.0, 0.0)">
    <path d="M10.35 1.0 L10.75 1.5 10.9 2.45 Q11.0 3.1 10.65 3.65 L8.95 4.5 Q7.75 5.1 5.9 5.25 L2.5 4.8 0.95 4.2 Q0.05 3.75 0.05 2.8 0.0 1.5 0.8 0.6 L1.0 0.35 6.8 0.15 10.35 1.0 M7.6 3.65 L7.05 3.85 5.85 4.1 5.3 4.05 4.55 4.0 2.95 3.6 4.55 4.0 5.3 4.05 5.85 4.1 7.05 3.85 7.6 3.65" fill="#ffcc99" fill-rule="evenodd" stroke="none"/>
    <path d="M10.35 1.0 L6.8 0.15 1.0 0.35 0.8 0.6 Q0.0 1.5 0.05 2.8 0.05 3.75 0.95 4.2 L2.5 4.8 5.9 5.25 Q7.75 5.1 8.95 4.5 L10.65 3.65 Q11.0 3.1 10.9 2.45 L10.75 1.5 10.35 1.0 M2.95 3.6 L4.55 4.0 5.3 4.05 5.85 4.1 7.05 3.85 7.6 3.65" fill="none" stroke="#000000" stroke-linecap="round" stroke-linejoin="round" stroke-width="0.05"/>
  </g>
</svg>
