<?xml version="1.0" encoding="UTF-8" standalone="no"?>
<svg xmlns:xlink="http://www.w3.org/1999/xlink" height="15.4px" width="5.5px" xmlns="http://www.w3.org/2000/svg">
  <g transform="matrix(1.0, 0.0, 0.0, 1.0, 0.0, 0.0)">
    <path d="M4.4 0.6 L4.75 1.7 Q4.8 2.5 5.2 4.05 L5.45 5.7 Q5.65 8.6 5.2 10.6 4.7 12.6 4.75 13.4 4.8 14.2 4.3 14.85 L4.1 15.45 2.6 15.35 1.6 15.3 0.95 15.2 0.95 14.6 0.7 12.5 0.2 8.75 Q-0.05 6.85 0.05 4.85 0.1 3.35 0.55 2.2 L0.9 1.45 Q1.1 0.95 1.55 0.6 2.25 0.15 3.0 0.05 4.2 0.2 4.4 0.6" fill="#81814f" fill-rule="evenodd" stroke="none"/>
    <path d="M4.4 0.6 L4.75 1.7 Q4.8 2.5 5.2 4.05 L5.45 5.7 Q5.65 8.6 5.2 10.6 4.7 12.6 4.75 13.4 4.8 14.2 4.3 14.85 L4.1 15.45 M0.95 15.2 L0.95 14.6 0.7 12.5 0.2 8.75 Q-0.05 6.85 0.05 4.85 0.1 3.35 0.55 2.2" fill="none" stroke="#000000" stroke-linecap="round" stroke-linejoin="round" stroke-width="0.05"/>
  </g>
</svg>
