<?xml version="1.0" encoding="UTF-8" standalone="no"?>
<svg xmlns:xlink="http://www.w3.org/1999/xlink" height="19.65px" width="10.2px" xmlns="http://www.w3.org/2000/svg">
  <g transform="matrix(1.0, 0.0, 0.0, 1.0, 0.0, 0.0)">
    <path d="M2.3 12.85 L4.35 13.0 6.4 13.4 8.6 13.4 9.05 14.55 8.6 14.65 5.75 14.65 5.4 14.6 5.2 14.55 4.85 14.5 3.3 14.25 2.3 14.05 2.3 12.85" fill="#735f31" fill-rule="evenodd" stroke="none"/>
    <path d="M5.2 14.55 L5.4 14.6 5.75 14.65 8.6 14.65 9.05 14.55 9.25 15.25 Q9.5 16.35 9.15 17.3 L8.75 18.45 Q7.35 19.1 5.65 19.2 L4.95 19.15 4.7 18.7 4.65 18.5 Q4.55 17.35 4.8 16.35 L4.85 16.05 Q4.95 15.25 5.2 14.55" fill="#81814f" fill-rule="evenodd" stroke="none"/>
    <path d="M2.1 1.1 Q2.7 0.8 3.15 0.65 L6.5 0.5 9.0 0.6 9.6 1.15 10.15 2.2 10.4 3.9 10.2 6.75 9.65 9.4 8.7 13.05 8.6 13.4 6.4 13.4 4.35 13.0 2.3 12.85 1.2 9.55 0.6 6.85 0.35 6.15 Q0.15 5.5 0.25 4.6 L0.7 1.9 2.1 1.1 2.65 1.95 2.1 1.1 M6.9 5.95 L6.25 6.05 5.45 6.2 Q4.65 6.4 4.2 5.75 4.65 6.4 5.45 6.2 L6.25 6.05 6.9 5.95 M7.45 1.1 L6.9 1.25 6.1 1.5 Q5.05 1.75 4.75 2.6 5.05 1.75 6.1 1.5 L6.9 1.25 7.45 1.1 M1.95 6.8 L0.6 6.85 1.95 6.8 M1.25 2.35 L1.05 3.15 0.95 3.65 Q0.8 3.95 0.9 4.3 L1.05 5.75 0.9 4.3 Q0.8 3.95 0.95 3.65 L1.05 3.15 1.25 2.35 M5.45 8.9 L5.25 8.5 4.8 8.25 3.75 7.9 3.15 7.8 2.5 7.9 1.5 8.65 2.5 7.9 3.15 7.8 3.75 7.9 4.8 8.25 5.25 8.5 5.45 8.9 6.0 9.9 6.1 10.15 6.25 11.3 6.1 10.15 6.0 9.9 5.45 8.9 5.45 9.15 5.45 11.3 5.45 9.15 5.45 8.9 M7.45 6.65 L6.2 7.0 5.25 7.15 4.5 7.1 Q4.1 7.0 4.0 6.45 4.1 7.0 4.5 7.1 L5.25 7.15 6.2 7.0 7.45 6.65 M1.45 7.9 L1.5 8.65 1.55 9.05 1.8 10.05 2.3 11.65 1.8 10.05 1.55 9.05 1.5 8.65 1.45 7.9 M3.45 10.15 L3.25 8.9 3.45 10.15 4.65 9.85 3.45 10.15 3.35 10.15 2.6 10.25 3.35 10.15 3.45 10.15 M4.95 19.15 Q2.3 18.8 2.2 16.35 L2.25 15.0 2.3 14.05 3.3 14.25 4.85 14.5 5.2 14.55 Q4.95 15.25 4.85 16.05 L4.8 16.35 Q4.55 17.35 4.65 18.5 L4.7 18.7 4.95 19.15 M2.85 15.15 L2.9 15.8 2.95 16.15 Q3.15 17.3 3.75 18.2 3.15 17.3 2.95 16.15 L2.9 15.8 2.85 15.15" fill="url(#gradient0)" fill-rule="evenodd" stroke="none"/>
    <path d="M8.7 13.05 L9.65 9.4 10.2 6.75 10.4 3.9 10.15 2.2 9.6 1.15 9.0 0.6 6.5 0.5 3.15 0.65 Q2.7 0.8 2.1 1.1 L0.7 1.9 0.25 4.6 Q0.15 5.5 0.35 6.15 L0.6 6.85 1.2 9.55 2.3 12.85 4.35 13.0 6.4 13.4 8.6 13.4" fill="none" stroke="#000000" stroke-linecap="round" stroke-linejoin="round" stroke-width="0.05"/>
    <path d="M4.2 5.75 Q4.65 6.4 5.45 6.2 L6.25 6.05 6.9 5.95 M1.05 5.75 L0.9 4.3 Q0.8 3.95 0.95 3.65 L1.05 3.15 1.25 2.35 M5.45 8.9 L6.0 9.9 6.1 10.15 6.25 11.3 M2.3 11.65 L1.8 10.05 1.55 9.05 1.5 8.65 1.45 7.9 M3.75 18.2 Q3.15 17.3 2.95 16.15 L2.9 15.8 2.85 15.15" fill="none" stroke="#ffffff" stroke-linecap="round" stroke-linejoin="round" stroke-width="0.05"/>
    <path d="M2.1 1.1 L2.65 1.95 M4.75 2.6 Q5.05 1.75 6.1 1.5 L6.9 1.25 7.45 1.1 M0.6 6.85 L1.95 6.8 M4.0 6.45 Q4.1 7.0 4.5 7.1 L5.25 7.15 6.2 7.0 7.45 6.65 M1.5 8.65 L2.5 7.9 3.15 7.8 3.75 7.9 4.8 8.25 5.25 8.5 5.45 8.9 5.45 9.15 5.45 11.3 M4.65 9.85 L3.45 10.15 3.35 10.15 2.6 10.25 M3.25 8.9 L3.45 10.15 M8.6 13.4 L8.7 13.05 M5.2 14.55 L5.4 14.6 5.75 14.65 8.6 14.65 9.05 14.55 8.6 13.4 M9.05 14.55 L9.25 15.25 Q9.5 16.35 9.15 17.3 L8.75 18.45 Q7.35 19.1 5.65 19.2 L4.95 19.15 Q2.3 18.8 2.2 16.35 L2.25 15.0 2.3 14.05 2.3 12.85 M5.2 14.55 L4.85 14.5 3.3 14.25 2.3 14.05 M4.95 19.15 L4.7 18.7 4.65 18.5 Q4.55 17.35 4.8 16.35 L4.85 16.05 Q4.95 15.25 5.2 14.55" fill="none" stroke="#000000" stroke-linecap="round" stroke-linejoin="round" stroke-width="0.05"/>
    <path d="M7.85 1.2 L8.25 0.65 7.85 1.2 M4.8 3.45 L5.95 3.25 Q7.7 2.65 8.9 1.45 7.7 2.65 5.95 3.25 L4.8 3.45 M0.7 1.2 L1.7 0.4 Q4.2 -0.65 6.9 -0.4 L8.85 0.2 Q10.0 0.6 9.85 1.9 8.1 3.6 5.65 4.4 3.8 4.9 2.25 3.95 L0.95 2.8 0.4 1.9 0.7 1.2 0.9 1.75 Q1.1 1.95 1.35 1.95 1.1 1.95 0.9 1.75 L0.7 1.2" fill="#81814f" fill-rule="evenodd" stroke="none"/>
    <path d="M8.9 1.45 Q7.7 2.65 5.95 3.25 L4.8 3.45 M8.25 0.65 L7.85 1.2 M0.7 1.2 L0.4 1.9 0.95 2.8 2.25 3.95 Q3.8 4.9 5.65 4.4 8.1 3.6 9.85 1.9 10.0 0.6 8.85 0.2 L6.9 -0.4 Q4.2 -0.65 1.7 0.4 L0.7 1.2 0.9 1.75 Q1.1 1.95 1.35 1.95" fill="none" stroke="#000000" stroke-linecap="round" stroke-linejoin="round" stroke-width="0.05"/>
  </g>
  <defs>
    <radialGradient cx="0" cy="0" gradientTransform="matrix(0.009, 0.0, 0.0, 0.0123, 2.95, 7.35)" gradientUnits="userSpaceOnUse" id="gradient0" r="819.2" spreadMethod="pad">
      <stop offset="0.0" stop-color="#ececec"/>
      <stop offset="1.0" stop-color="#a0a0a0"/>
    </radialGradient>
  </defs>
</svg>
