<?xml version="1.0" encoding="UTF-8" standalone="no"?>
<svg xmlns:xlink="http://www.w3.org/1999/xlink" height="25.25px" width="15.4px" xmlns="http://www.w3.org/2000/svg">
  <g transform="matrix(1.0, 0.0, 0.0, 1.0, 0.0, 0.0)">
    <path d="M11.25 -5.65 L12.7 -6.0 Q11.35 -2.85 11.95 0.35 12.4 2.9 12.15 5.35 12.0 6.5 10.85 9.1 9.65 11.65 11.1 16.3 L9.2 16.85 6.95 16.8 Q7.65 10.85 7.65 5.05 L7.25 4.7 7.35 3.05 Q7.25 2.75 7.6 2.45 L7.9 1.95 9.1 -0.1 Q10.05 -1.8 11.25 -5.65 M1.05 12.25 L-0.05 9.5 Q-1.0 7.25 -1.15 4.55 -1.35 1.8 -2.7 -2.75 L-2.5 -2.9 Q-1.85 -0.35 -0.6 1.5 L0.25 2.75 Q1.2 7.25 1.05 10.0 L1.05 12.25" fill="#467521" fill-rule="evenodd" stroke="none"/>
    <path d="M9.9 -5.15 L9.9 -5.2 11.25 -5.65 Q10.05 -1.8 9.1 -0.1 L7.9 1.95 7.6 2.45 Q7.25 2.75 7.35 3.05 L7.25 4.7 7.65 5.05 Q7.65 10.85 6.95 16.8 L5.95 16.65 6.15 14.3 6.1 13.0 6.3 11.2 Q6.8 7.85 5.65 5.75 L5.9 2.85 6.0 1.7 5.95 1.2 6.55 0.75 Q9.15 -1.65 9.9 -5.15 M2.35 16.6 L1.4 15.05 1.3 14.65 1.2 13.6 1.05 12.25 1.05 10.0 Q1.2 7.25 0.25 2.75 L-0.6 1.5 Q-1.85 -0.35 -2.5 -2.9 L-1.7 -3.65 -1.65 -3.55 -0.85 -1.35 Q-0.35 -0.05 1.25 1.05 L2.4 1.25 2.55 1.7 2.65 2.75 2.55 5.25 2.15 5.55 2.25 7.6 2.6 11.5 2.6 12.9 2.75 14.3 2.45 16.35 2.35 16.6" fill="#e4c377" fill-rule="evenodd" stroke="none"/>
    <path d="M-1.65 -3.55 L1.75 -2.0 Q4.8 -0.55 9.9 -5.15 9.15 -1.65 6.55 0.75 L5.95 1.2 6.0 1.7 Q4.3 2.3 2.55 1.7 L2.4 1.25 1.25 1.05 Q-0.35 -0.05 -0.85 -1.35 L-1.65 -3.55" fill="#004410" fill-rule="evenodd" stroke="none"/>
    <path d="M2.55 1.7 Q4.3 2.3 6.0 1.7 L5.9 2.85 5.65 5.75 Q6.8 7.85 6.3 11.2 L6.1 13.0 6.15 14.3 Q4.6 15.35 2.75 14.3 L2.6 12.9 2.6 11.5 2.25 7.6 2.15 5.55 2.55 5.25 2.65 2.75 2.55 1.7 M4.05 10.35 L4.0 11.5 2.6 11.5 4.0 11.5 4.05 10.35 M4.8 9.8 Q4.2 9.65 3.85 8.95 4.2 9.65 4.8 9.8 M5.9 2.85 L2.65 2.75 5.9 2.85 M3.3 5.95 L3.45 7.55 3.3 5.95 M3.95 12.65 L4.0 11.5 5.25 11.45 4.0 11.5 3.95 12.65 M2.6 12.9 L6.1 13.0 2.6 12.9" fill="url(#gradient0)" fill-rule="evenodd" stroke="none"/>
    <path d="M9.2 16.85 L9.0 17.65 8.65 18.55 7.65 18.9 Q4.0 19.9 2.85 18.1 2.45 17.5 2.35 16.6 L2.45 16.35 2.75 14.3 Q4.6 15.35 6.15 14.3 L5.95 16.65 6.95 16.8 9.2 16.85" fill="#5d5542" fill-rule="evenodd" stroke="none"/>
    <path d="M2.6 11.5 L4.0 11.5 4.05 10.35 M2.65 2.75 L5.9 2.85 M3.85 8.95 Q4.2 9.65 4.8 9.8 M5.25 11.45 L4.0 11.5 3.95 12.65 M3.45 7.55 L3.3 5.95 M6.1 13.0 L2.6 12.9" fill="none" stroke="#000000" stroke-linecap="round" stroke-linejoin="round" stroke-width="0.05"/>
  </g>
  <defs>
    <linearGradient gradientTransform="matrix(0.0026, 0.0, 0.0, 0.0057, 4.25, 8.65)" gradientUnits="userSpaceOnUse" id="gradient0" spreadMethod="pad" x1="-819.2" x2="819.2">
      <stop offset="0.0" stop-color="#45701b"/>
      <stop offset="0.5019607843137255" stop-color="#e2f9db"/>
      <stop offset="1.0" stop-color="#4e5c23"/>
    </linearGradient>
  </defs>
</svg>
