<?xml version="1.0" encoding="UTF-8" standalone="no"?>
<svg xmlns:xlink="http://www.w3.org/1999/xlink" height="13.8px" width="11.45px" xmlns="http://www.w3.org/2000/svg">
  <g transform="matrix(1.0, 0.0, 0.0, 1.0, 0.0, 0.0)">
    <path d="M6.8 4.75 L7.45 4.3 Q8.4 4.45 8.45 5.5 L8.45 5.85 8.45 5.5 Q8.4 4.45 7.45 4.3 L6.8 4.75 M4.25 10.8 L2.85 11.2 2.0 11.0 Q1.1 10.05 1.0 8.7 L0.95 8.1 0.0 7.45 0.9 5.1 0.85 3.85 Q0.75 3.15 1.05 2.6 L1.6 1.5 Q2.05 0.7 3.0 0.35 L6.15 0.15 7.1 0.55 8.3 1.35 Q9.6 2.6 9.65 4.4 9.65 5.6 8.45 5.85 L8.15 6.55 7.7 6.9 7.6 6.95 Q7.3 7.6 7.3 8.3 L7.05 9.4 5.7 10.3 4.25 10.8 5.7 10.3 7.05 9.4 7.3 8.3 Q7.3 7.6 7.6 6.95 L7.7 6.9 8.15 6.55 8.2 6.7 8.65 11.35 8.15 11.8 4.85 11.95 Q4.35 11.45 4.25 10.8 M2.55 5.1 L2.4 5.5 Q2.45 5.85 2.85 6.1 L3.0 6.15 Q4.05 6.2 4.1 5.15 L4.0 4.95 5.0 4.95 4.0 4.95 2.55 5.1 1.8 5.25 2.55 5.1" fill="#ffcc99" fill-rule="evenodd" stroke="none"/>
    <path d="M4.0 4.95 L4.1 5.15 Q4.05 6.2 3.0 6.15 L2.85 6.1 Q2.45 5.85 2.4 5.5 L2.55 5.1 4.0 4.95" fill="#339900" fill-rule="evenodd" stroke="none"/>
    <path d="M8.45 5.85 L8.45 5.5 Q8.4 4.45 7.45 4.3 L6.8 4.75 M8.15 6.55 L8.45 5.85 Q9.65 5.6 9.65 4.4 9.6 2.6 8.3 1.35 L7.1 0.55 6.15 0.15 3.0 0.35 Q2.05 0.7 1.6 1.5 L1.05 2.6 Q0.75 3.15 0.85 3.85 L0.9 5.1 0.0 7.45 0.95 8.1 1.0 8.7 Q1.1 10.05 2.0 11.0 L2.85 11.2 4.25 10.8 5.7 10.3 7.05 9.4 7.3 8.3 Q7.3 7.6 7.6 6.95 L7.7 6.9 8.15 6.55 8.2 6.7 8.65 11.35 8.15 11.8 4.85 11.95 Q4.35 11.45 4.25 10.8 M4.0 4.95 L4.1 5.15 Q4.05 6.2 3.0 6.15 L2.85 6.1 Q2.45 5.85 2.4 5.5 L2.55 5.1 1.8 5.25 M4.0 4.95 L5.0 4.95 M2.55 5.1 L4.0 4.95" fill="none" stroke="#000000" stroke-linecap="round" stroke-linejoin="round" stroke-width="0.05"/>
    <path d="M6.0 8.1 L5.3 6.6 4.85 8.15 Q4.4 6.65 4.2 4.9 4.0 2.8 2.6 1.6 L1.65 1.75 Q1.15 2.25 1.1 2.8 1.0 3.35 1.05 4.35 1.05 5.35 0.3 6.55 -0.65 3.55 1.0 1.2 2.6 -0.95 5.1 -0.45 L5.45 -0.7 5.65 -0.85 5.9 -0.9 6.7 -0.5 Q10.1 1.15 10.45 4.75 L11.4 11.75 10.35 10.6 9.9 12.7 9.15 11.6 9.05 12.35 9.1 12.9 8.6 12.6 7.25 11.45 7.05 12.25 7.0 12.15 6.0 8.1 6.95 9.05 6.65 7.4 7.9 9.0 8.2 7.75 8.35 7.05 8.7 7.5 8.9 6.65 8.7 7.5 8.35 7.05 8.2 7.75 7.9 9.0 6.65 7.4 6.95 9.05 6.0 8.1 M1.7 10.75 L1.75 10.3 1.7 10.75 M1.6 10.1 L1.65 10.15 1.75 10.3 2.25 11.15 3.85 10.9 3.7 11.1 Q3.0 11.9 2.65 11.55 L1.4 12.1 1.3 11.35 0.25 11.85 0.95 8.15 Q1.1 9.35 1.6 10.1" fill="#c39d4f" fill-rule="evenodd" stroke="none"/>
    <path d="M6.0 8.1 L7.0 12.15 7.05 12.25 7.25 11.45 8.6 12.6 9.1 12.9 9.05 12.35 9.15 11.6 9.9 12.7 10.35 10.6 11.4 11.75 10.45 4.75 Q10.1 1.15 6.7 -0.5 L5.9 -0.9 5.65 -0.85 5.45 -0.7 5.1 -0.45 Q2.6 -0.95 1.0 1.2 -0.65 3.55 0.3 6.55 1.05 5.35 1.05 4.35 1.0 3.35 1.1 2.8 1.15 2.25 1.65 1.75 L2.6 1.6 Q4.0 2.8 4.2 4.9 4.4 6.65 4.85 8.15 L5.3 6.6 6.0 8.1 6.95 9.05 6.65 7.4 7.9 9.0 8.2 7.75 8.35 7.05 8.7 7.5 8.9 6.65 M1.6 10.1 L1.65 10.15 1.75 10.3 2.25 11.15 3.85 10.9 3.7 11.1 Q3.0 11.9 2.65 11.55 L1.4 12.1 1.3 11.35 0.25 11.85 0.95 8.15 Q1.1 9.35 1.6 10.1" fill="none" stroke="#000000" stroke-linecap="round" stroke-linejoin="round" stroke-width="0.05"/>
    <path d="M1.75 10.3 L1.7 10.75 M1.75 10.3 L1.6 10.1" fill="none" stroke="#c39d4f" stroke-linecap="round" stroke-linejoin="round" stroke-width="0.05"/>
    <path d="M3.0 9.2 L2.85 8.75 M2.35 9.0 L2.1 8.7 M1.65 9.1 L1.65 8.75 M2.05 11.35 L2.05 10.6 2.1 10.15 M1.75 11.0 L1.75 9.95 M3.05 10.25 L2.65 11.15 Q2.7 10.45 2.35 9.95 L2.1 9.8 M3.6 10.95 L3.65 9.65 3.55 9.25 M4.95 10.4 L5.0 10.0 M4.35 10.6 L4.35 9.95 M5.75 10.05 L5.75 9.5" fill="none" stroke="#c39d4f" stroke-linecap="round" stroke-linejoin="round" stroke-width="0.05"/>
    <path d="M6.45 6.5 L6.1 5.45 5.65 3.95 5.35 2.6 5.3 1.8 M7.7 6.3 L7.3 5.45 6.85 4.05 M10.2 7.8 L10.0 6.55 9.6 4.85 9.05 3.3 8.2 1.8 7.35 0.85 M9.05 5.7 L8.55 4.2 M8.45 5.75 L7.5 2.7 M2.05 0.75 L0.8 2.15 Q0.5 2.55 0.35 3.15 0.1 3.95 0.35 4.95 M4.85 5.6 L4.7 4.45 4.45 3.05 4.0 1.8 3.55 1.05 M8.25 11.1 L7.9 10.0 7.75 9.3 M9.25 10.8 L8.9 9.0" fill="none" stroke="#e4c377" stroke-linecap="round" stroke-linejoin="round" stroke-width="0.05"/>
  </g>
</svg>
