<?xml version="1.0" encoding="UTF-8" standalone="no"?>
<svg xmlns:xlink="http://www.w3.org/1999/xlink" height="17.05px" width="12.15px" xmlns="http://www.w3.org/2000/svg">
  <g transform="matrix(1.0, 0.0, 0.0, 1.0, 0.0, 0.0)">
    <path d="M6.8 4.75 L7.45 4.3 Q8.4 4.45 8.45 5.5 L8.45 5.85 8.45 5.5 Q8.4 4.45 7.45 4.3 L6.8 4.75 M8.45 5.85 Q8.3 6.6 7.7 6.9 L7.6 6.95 Q7.3 7.6 7.3 8.3 L7.05 9.4 5.7 10.3 2.85 11.2 2.0 11.0 Q1.1 10.05 1.0 8.7 L0.95 8.1 0.0 7.45 0.9 5.1 0.85 3.85 Q0.75 3.15 1.05 2.6 L1.6 1.5 Q2.05 0.7 3.0 0.35 L6.15 0.15 7.1 0.55 8.3 1.35 Q9.6 2.6 9.65 4.4 9.65 5.6 8.45 5.85 M2.55 5.1 L2.4 5.5 Q2.45 5.85 2.85 6.1 L3.0 6.15 Q4.05 6.2 4.1 5.15 L4.0 4.95 5.0 4.95 4.0 4.95 2.55 5.1 1.8 5.25 2.55 5.1" fill="#ffcc99" fill-rule="evenodd" stroke="none"/>
    <path d="M4.0 4.95 L4.1 5.15 Q4.05 6.2 3.0 6.15 L2.85 6.1 Q2.45 5.85 2.4 5.5 L2.55 5.1 4.0 4.95" fill="#339900" fill-rule="evenodd" stroke="none"/>
    <path d="M8.45 5.85 L8.45 5.5 Q8.4 4.45 7.45 4.3 L6.8 4.75 M8.45 5.85 Q9.65 5.6 9.65 4.4 9.6 2.6 8.3 1.35 L7.1 0.55 6.15 0.15 3.0 0.35 Q2.05 0.7 1.6 1.5 L1.05 2.6 Q0.75 3.15 0.85 3.85 L0.9 5.1 0.0 7.45 0.95 8.1 1.0 8.7 Q1.1 10.05 2.0 11.0 L2.85 11.2 5.7 10.3 7.05 9.4 7.3 8.3 Q7.3 7.6 7.6 6.95 L7.7 6.9 Q8.3 6.6 8.45 5.85 M4.0 4.95 L4.1 5.15 Q4.05 6.2 3.0 6.15 L2.85 6.1 Q2.45 5.85 2.4 5.5 L2.55 5.1 1.8 5.25 M4.0 4.95 L5.0 4.95 M2.55 5.1 L4.0 4.95" fill="none" stroke="#000000" stroke-linecap="round" stroke-linejoin="round" stroke-width="0.05"/>
    <path d="M5.55 -0.6 Q7.3 -0.5 8.5 0.95 L10.35 3.6 Q10.8 4.3 10.7 5.05 10.35 7.0 10.45 8.8 10.55 10.25 11.8 10.85 L11.1 11.1 Q9.75 11.7 8.3 11.5 L9.5 13.05 7.95 12.7 7.85 13.75 7.8 15.0 6.35 12.85 Q5.25 10.7 5.1 8.5 4.95 6.35 5.5 4.15 6.05 2.1 5.7 0.05 L5.55 -0.6 5.7 0.05 Q5.05 2.3 3.1 3.5 1.1 4.7 0.35 6.9 L0.35 6.8 0.0 7.3 -0.35 4.4 Q-0.25 1.85 1.6 0.3 3.35 -1.3 5.55 -0.6 M6.85 10.55 Q6.25 9.25 6.2 7.8 6.1 5.35 6.75 2.9 7.1 1.5 6.5 0.2 7.1 1.5 6.75 2.9 6.1 5.35 6.2 7.8 6.25 9.25 6.85 10.55 M0.95 8.15 Q2.1 11.35 2.5 11.25 L4.3 10.75 3.4 13.75 2.75 12.5 Q2.1 14.25 2.3 16.25 1.45 15.0 1.35 13.45 L0.8 15.1 0.5 13.95 0.4 12.9 Q0.5 10.55 0.95 8.15 M1.15 10.7 L0.85 13.45 1.15 10.7 M3.95 -0.2 Q2.45 0.65 1.4 2.1 0.0 3.95 0.15 6.3 0.0 3.95 1.4 2.1 2.45 0.65 3.95 -0.2 M8.7 10.7 L8.2 9.35 Q7.4 6.95 7.95 4.6 7.4 6.95 8.2 9.35 L8.7 10.7 M9.95 9.7 L9.7 8.85 9.45 7.5 9.7 8.85 9.95 9.7" fill="#c39d4f" fill-rule="evenodd" stroke="none"/>
    <path d="M5.7 0.05 Q6.05 2.1 5.5 4.15 4.95 6.35 5.1 8.5 5.25 10.7 6.35 12.85 L7.8 15.0 7.85 13.75 7.95 12.7 9.5 13.05 8.3 11.5 Q9.75 11.7 11.1 11.1 L11.8 10.85 Q10.55 10.25 10.45 8.8 10.35 7.0 10.7 5.05 10.8 4.3 10.35 3.6 L8.5 0.95 Q7.3 -0.5 5.55 -0.6 L5.7 0.05 Q5.05 2.3 3.1 3.5 1.1 4.7 0.35 6.9 L0.35 6.8 0.0 7.3 -0.35 4.4 Q-0.25 1.85 1.6 0.3 3.35 -1.3 5.55 -0.6 M0.95 8.15 Q0.5 10.55 0.4 12.9 L0.5 13.95 0.8 15.1 1.35 13.45 Q1.45 15.0 2.3 16.25 2.1 14.25 2.75 12.5 L3.4 13.75 4.3 10.75 2.5 11.25 Q2.1 11.35 0.95 8.15" fill="none" stroke="#000000" stroke-linecap="round" stroke-linejoin="round" stroke-width="0.05"/>
    <path d="M6.5 0.2 Q7.1 1.5 6.75 2.9 6.1 5.35 6.2 7.8 6.25 9.25 6.85 10.55 M9.45 7.5 L9.7 8.85 9.95 9.7 M7.95 4.6 Q7.4 6.95 8.2 9.35 L8.7 10.7 M0.15 6.3 Q0.0 3.95 1.4 2.1 2.45 0.65 3.95 -0.2 M0.85 13.45 L1.15 10.7" fill="none" stroke="#e4c377" stroke-linecap="round" stroke-linejoin="round" stroke-width="0.05"/>
  </g>
</svg>
