<?xml version="1.0" encoding="UTF-8" standalone="no"?>
<svg xmlns:xlink="http://www.w3.org/1999/xlink" height="34.1px" width="12.45px" xmlns="http://www.w3.org/2000/svg">
  <g transform="matrix(1.0, 0.0, 0.0, 1.0, 0.0, 0.0)">
    <path d="M3.9 33.95 L4.05 29.7 4.65 21.35 Q5.0 16.95 3.75 12.6 L2.85 9.05 Q2.25 6.1 2.5 3.2 L2.95 0.55 5.9 0.0 Q6.6 1.1 6.8 2.55 L6.9 3.2 Q7.5 7.25 8.85 11.1 10.45 15.85 11.65 20.75 12.7 24.95 12.35 29.25 L12.0 32.0 Q10.65 33.45 3.9 33.95" fill="#467521" fill-rule="evenodd" stroke="none"/>
    <path d="M2.95 0.55 L2.5 3.2 Q2.25 6.1 2.85 9.05 L3.75 12.6 Q5.0 16.95 4.65 21.35 L4.05 29.7 3.9 33.95 0.0 33.85 Q0.5 31.65 1.3 29.55 2.65 26.15 3.05 22.35 3.6 17.4 2.25 12.75 0.9 8.05 1.5 3.2 L1.8 1.15 2.95 0.55" fill="#e4c377" fill-rule="evenodd" stroke="none"/>
  </g>
</svg>
