<?xml version="1.0" encoding="UTF-8" standalone="no"?>
<svg xmlns:xlink="http://www.w3.org/1999/xlink" height="5.1px" width="10.15px" xmlns="http://www.w3.org/2000/svg">
  <g transform="matrix(1.0, 0.0, 0.0, 1.0, 0.0, 0.0)">
    <path d="M5.6 3.4 L5.55 2.45 5.2 0.45 6.85 0.55 8.9 0.8 9.3 1.15 9.4 1.8 Q9.5 2.25 9.2 2.65 L8.3 2.95 5.6 3.4" fill="#ffcc99" fill-rule="evenodd" stroke="none"/>
    <path d="M5.6 3.4 L5.35 4.45 4.6 4.5 Q3.95 4.7 3.35 4.5 L1.35 4.0 0.75 3.75 Q-0.3 3.15 -0.65 2.4 -0.95 1.9 -0.45 1.15 L0.3 0.25 3.95 -0.45 5.05 -0.5 5.15 0.05 5.2 0.45 5.55 2.45 5.6 3.4" fill="#81814f" fill-rule="evenodd" stroke="none"/>
  </g>
</svg>
