<?xml version="1.0" encoding="UTF-8" standalone="no"?>
<svg xmlns:xlink="http://www.w3.org/1999/xlink" height="9.95px" width="4.1px" xmlns="http://www.w3.org/2000/svg">
  <g transform="matrix(1.0, 0.0, 0.0, 1.0, 0.0, 0.0)">
    <path d="M0.75 3.0 L4.35 3.15 4.55 4.55 Q4.8 6.05 4.5 8.5 4.15 10.9 3.55 11.95 2.9 12.95 2.2 12.95 L1.45 12.6 0.8 12.2 0.6 7.25 Q0.45 4.95 0.75 3.0" fill="#ffcc99" fill-rule="evenodd" stroke="none"/>
    <path d="M4.35 3.15 L4.55 4.55 Q4.8 6.05 4.5 8.5 4.15 10.9 3.55 11.95 2.9 12.95 2.2 12.95 L1.45 12.6 0.8 12.2 0.6 7.25 Q0.45 4.95 0.75 3.0" fill="none" stroke="#000000" stroke-linecap="round" stroke-linejoin="round" stroke-width="0.05"/>
  </g>
</svg>
