<?xml version="1.0" encoding="UTF-8" standalone="no"?>
<svg xmlns:xlink="http://www.w3.org/1999/xlink" height="9.4px" width="6.35px" xmlns="http://www.w3.org/2000/svg">
  <g transform="matrix(1.0, 0.0, 0.0, 1.0, 0.0, 0.0)">
    <path d="M0.45 1.3 Q1.2 1.8 2.3 1.65 3.35 1.45 3.85 -0.35 L4.35 0.1 4.5 0.45 Q5.05 1.95 5.15 3.65 L5.65 7.8 5.45 9.05 -0.35 8.9 -0.7 7.8 Q-0.2 5.9 -0.15 4.3 -0.1 2.7 0.45 1.3 M-0.7 7.8 Q2.55 7.25 5.65 7.8 2.55 7.25 -0.7 7.8" fill="#81814f" fill-rule="evenodd" stroke="none"/>
    <path d="M4.5 0.45 Q5.05 1.95 5.15 3.65 L5.65 7.8 5.45 9.05 -0.35 8.9 -0.7 7.8 Q-0.2 5.9 -0.15 4.3 -0.1 2.7 0.45 1.3 M5.65 7.8 Q2.55 7.25 -0.7 7.8" fill="none" stroke="#000000" stroke-linecap="round" stroke-linejoin="round" stroke-width="0.05"/>
  </g>
</svg>
