<?xml version="1.0" encoding="UTF-8" standalone="no"?>
<svg xmlns:xlink="http://www.w3.org/1999/xlink" height="13.3px" width="6.35px" xmlns="http://www.w3.org/2000/svg">
  <g transform="matrix(1.0, 0.0, 0.0, 1.0, 0.0, 0.0)">
    <path d="M4.45 8.85 Q4.1 11.0 3.55 11.95 2.9 12.95 2.2 12.95 L1.45 12.6 0.8 12.2 0.65 8.75 4.45 8.85" fill="#ffcc99" fill-rule="evenodd" stroke="none"/>
    <path d="M0.65 8.75 L-0.35 8.9 -0.7 7.8 Q-0.2 5.9 -0.15 4.3 -0.1 2.7 0.45 1.3 1.2 1.8 2.3 1.65 3.35 1.45 3.85 -0.35 L4.35 0.1 4.5 0.45 Q5.05 1.95 5.15 3.65 L5.65 7.8 5.45 9.05 4.45 8.85 0.65 8.75" fill="#81814f" fill-rule="evenodd" stroke="none"/>
  </g>
</svg>
