<?xml version="1.0" encoding="UTF-8" standalone="no"?>
<svg xmlns:xlink="http://www.w3.org/1999/xlink" height="7.0px" width="8.3px" xmlns="http://www.w3.org/2000/svg">
  <g transform="matrix(1.0, 0.0, 0.0, 1.0, 0.0, 0.0)">
    <path d="M4.3 1.5 L4.35 1.35 5.15 -0.15 7.75 -0.5 Q9.05 2.45 7.9 5.15 5.05 6.5 2.2 6.5 0.8 6.5 0.15 5.2 L0.95 4.15 3.1 2.8 Q3.4 2.55 3.65 2.4 L4.25 2.85 4.35 2.9 5.15 2.0 5.3 1.85 5.15 2.0 4.35 2.9 4.25 2.85 3.65 2.4 3.95 2.1 4.3 1.5 Q4.9 1.6 5.3 1.85 L5.9 0.85 6.1 0.3 5.9 0.85 5.3 1.85 Q4.9 1.6 4.3 1.5 M5.95 2.3 Q5.65 2.0 5.3 1.85 5.65 2.0 5.95 2.3 M3.15 3.85 L4.1 3.1 4.35 2.9 4.75 3.25 4.9 3.5 4.75 3.25 4.35 2.9 4.1 3.1 3.15 3.85" fill="#7a4900" fill-rule="evenodd" stroke="none"/>
    <path d="M4.3 1.5 Q4.9 1.6 5.3 1.85 L5.9 0.85 6.1 0.3 M5.3 1.85 Q5.65 2.0 5.95 2.3 M3.65 2.4 L4.25 2.85 4.35 2.9 5.15 2.0 5.3 1.85 M4.9 3.5 L4.75 3.25 4.35 2.9 4.1 3.1 3.15 3.85" fill="none" stroke="#000000" stroke-linecap="round" stroke-linejoin="round" stroke-width="0.05"/>
  </g>
</svg>
