<?xml version="1.0" encoding="UTF-8" standalone="no"?>
<svg xmlns:xlink="http://www.w3.org/1999/xlink" height="12.45px" width="4.45px" xmlns="http://www.w3.org/2000/svg">
  <g transform="matrix(1.0, 0.0, 0.0, 1.0, 0.0, 0.0)">
    <path d="M0.9 -0.4 L1.3 -0.3 1.45 0.0 1.45 0.1 2.55 0.5 2.85 0.7 3.4 1.25 4.05 2.7 4.2 4.0 4.05 5.7 3.75 8.1 Q3.6 9.0 3.6 9.95 3.85 10.75 3.7 11.45 L3.55 11.7 2.75 11.95 2.05 12.0 1.1 11.3 1.0 11.1 1.15 10.35 1.0 8.4 0.75 6.75 0.55 5.2 0.3 3.65 0.15 1.95 0.15 1.85 0.1 1.85 -0.25 0.35 -0.2 0.05 0.25 -0.45 0.9 -0.4" fill="#ffcc99" fill-rule="evenodd" stroke="none"/>
  </g>
</svg>
