<?xml version="1.0" encoding="UTF-8" standalone="no"?>
<svg xmlns:xlink="http://www.w3.org/1999/xlink" height="11.85px" width="10.55px" xmlns="http://www.w3.org/2000/svg">
  <g transform="matrix(1.0, 0.0, 0.0, 1.0, 0.0, 0.0)">
    <path d="M8.45 5.85 Q8.3 6.6 7.7 6.9 L7.6 6.95 Q7.3 7.6 7.3 8.3 L7.05 9.4 5.7 10.3 2.85 11.2 2.0 11.0 Q1.1 10.05 1.0 8.7 L0.95 8.1 0.0 7.45 0.9 5.1 0.85 3.85 Q0.75 3.15 1.05 2.6 L1.6 1.5 Q2.05 0.7 3.0 0.35 L6.15 0.15 7.1 0.55 8.3 1.35 Q9.6 2.6 9.65 4.4 9.65 5.6 8.45 5.85 L8.45 5.5 Q8.4 4.45 7.45 4.3 L6.8 4.75 7.45 4.3 Q8.4 4.45 8.45 5.5 L8.45 5.85 M4.75 5.3 L4.0 4.95 4.75 5.3 M2.55 4.6 L2.4 5.5 Q2.45 5.85 2.85 6.1 L3.0 6.15 Q4.05 6.2 4.1 5.15 L4.0 4.95 Q3.3 4.5 2.55 4.6 L2.05 4.6 2.55 4.6" fill="#ffcc99" fill-rule="evenodd" stroke="none"/>
    <path d="M2.55 4.6 Q3.3 4.5 4.0 4.95 L4.1 5.15 Q4.05 6.2 3.0 6.15 L2.85 6.1 Q2.45 5.85 2.4 5.5 L2.55 4.6" fill="#7a4900" fill-rule="evenodd" stroke="none"/>
    <path d="M8.45 5.85 Q9.65 5.6 9.65 4.4 9.6 2.6 8.3 1.35 L7.1 0.55 6.15 0.15 3.0 0.35 Q2.05 0.7 1.6 1.5 L1.05 2.6 Q0.75 3.15 0.85 3.85 L0.9 5.1 0.0 7.45 0.95 8.1 1.0 8.7 Q1.1 10.05 2.0 11.0 L2.85 11.2 5.7 10.3 7.05 9.4 7.3 8.3 Q7.3 7.6 7.6 6.95 L7.7 6.9 Q8.3 6.6 8.45 5.85 L8.45 5.5 Q8.4 4.45 7.45 4.3 L6.8 4.75 M4.0 4.95 L4.75 5.3 M2.55 4.6 Q3.3 4.5 4.0 4.95 L4.1 5.15 Q4.05 6.2 3.0 6.15 L2.85 6.1 Q2.45 5.85 2.4 5.5 L2.55 4.6 2.05 4.6" fill="none" stroke="#000000" stroke-linecap="round" stroke-linejoin="round" stroke-width="0.05"/>
    <path d="M-0.25 1.15 L0.8 0.6 Q3.1 -0.45 5.6 -0.6 7.25 -0.2 8.5 0.65 L8.4 0.0 9.0 0.75 9.2 0.8 9.45 0.75 9.6 0.75 9.6 0.8 9.4 0.95 9.3 1.15 10.0 3.0 10.2 4.25 10.05 6.95 9.8 6.4 9.3 7.85 9.15 7.05 8.55 8.4 8.2 7.2 Q8.05 6.5 8.15 5.6 8.2 4.7 7.9 4.55 L7.3 4.4 6.8 4.75 6.7 4.45 6.75 3.85 6.15 3.7 6.35 3.25 5.2 3.15 5.55 2.5 3.9 2.5 1.7 2.7 -0.1 3.45 0.85 1.9 -0.35 2.55 0.75 1.15 -0.25 1.2 -0.25 1.15" fill="#7a4900" fill-rule="evenodd" stroke="none"/>
    <path d="M-0.25 1.2 L0.75 1.15 -0.35 2.55 0.85 1.9 -0.1 3.45 1.7 2.7 3.9 2.5 5.55 2.5 5.2 3.15 6.35 3.25 6.15 3.7 6.75 3.85 6.7 4.45 6.8 4.75 7.3 4.4 7.9 4.55 Q8.2 4.7 8.15 5.6 8.05 6.5 8.2 7.2 L8.55 8.4 9.15 7.05 9.3 7.85 9.8 6.4 10.05 6.95 10.2 4.25 10.0 3.0 9.3 1.15 9.4 0.95 9.6 0.8 9.6 0.75 9.45 0.75 9.2 0.8 9.0 0.75 8.4 0.0 8.5 0.65 Q7.25 -0.2 5.6 -0.6 3.1 -0.45 0.8 0.6 L-0.25 1.15 -0.3 1.2 -0.25 1.2 Z" fill="none" stroke="#000000" stroke-linecap="round" stroke-linejoin="round" stroke-width="0.05"/>
  </g>
</svg>
