<?xml version="1.0" encoding="UTF-8" standalone="no"?>
<svg xmlns:xlink="http://www.w3.org/1999/xlink" height="8.5px" width="7.1px" xmlns="http://www.w3.org/2000/svg">
  <g transform="matrix(1.0, 0.0, 0.0, 1.0, 0.0, 0.0)">
    <path d="M-26.75 14.65 L-26.4 15.55 -24.85 15.55 -24.65 14.6 -25.9 14.6 -26.25 14.05 -26.75 14.65 M-25.05 11.35 Q-23.25 10.3 -22.1 8.75 L-21.2 9.65 Q-21.1 10.75 -22.0 11.5 -23.3 12.65 -24.95 13.3 L-23.85 13.7 -23.35 14.2 Q-22.85 15.0 -23.25 15.85 -23.8 17.0 -25.3 17.25 -26.3 17.3 -27.15 16.75 L-28.0 16.1 Q-28.35 15.65 -28.3 15.1 -28.3 14.2 -27.75 13.45 L-26.7 12.4 -25.05 11.35" fill="#9d9d9d" fill-opacity="0.17254902" fill-rule="evenodd" stroke="none"/>
  </g>
</svg>
