<?xml version="1.0" encoding="UTF-8" standalone="no"?>
<svg xmlns:xlink="http://www.w3.org/1999/xlink" height="8.5px" width="7.1px" xmlns="http://www.w3.org/2000/svg">
  <g transform="matrix(1.0, 0.0, 0.0, 1.0, 0.0, 0.0)">
    <path d="M-26.8 17.7 L-26.55 16.7 -27.8 16.7 -28.2 16.15 -28.7 16.75 -28.3 17.7 -26.8 17.7 M-24.05 10.85 L-23.15 11.75 Q-23.05 12.85 -23.95 13.6 -25.25 14.75 -26.9 15.4 L-25.8 15.8 Q-25.5 16.0 -25.3 16.35 -24.8 17.1 -25.2 17.95 -25.75 19.1 -27.2 19.35 -28.25 19.4 -29.1 18.85 L-29.95 18.25 Q-30.3 17.75 -30.25 17.25 -30.25 16.3 -29.7 15.55 L-28.65 14.5 -27.0 13.45 Q-25.2 12.4 -24.05 10.85" fill="#9d9d9d" fill-opacity="0.0" fill-rule="evenodd" stroke="none"/>
  </g>
</svg>
