<?xml version="1.0" encoding="UTF-8" standalone="no"?>
<svg xmlns:xlink="http://www.w3.org/1999/xlink" height="4.95px" width="5.75px" xmlns="http://www.w3.org/2000/svg">
  <g transform="matrix(1.0, 0.0, 0.0, 1.0, 0.0, 0.0)">
    <path d="M-0.25 1.35 L0.3 0.25 3.3 -0.35 3.8 0.9 5.0 2.55 Q5.75 3.45 5.35 4.45 L4.6 4.5 Q3.95 4.7 3.35 4.5 L2.65 4.4 1.35 4.0 0.6 3.55 Q0.1 3.15 -0.1 2.55 L-0.25 1.35" fill="#467521" fill-rule="evenodd" stroke="none"/>
    <path d="M1.35 4.0 L2.65 4.4 3.35 4.5 Q3.95 4.7 4.6 4.5 L5.35 4.45 Q5.75 3.45 5.0 2.55 L3.8 0.9 3.3 -0.35 0.3 0.25 -0.25 1.35" fill="none" stroke="#000000" stroke-linecap="round" stroke-linejoin="round" stroke-width="0.05"/>
  </g>
</svg>
