<?xml version="1.0" encoding="UTF-8" standalone="no"?>
<svg xmlns:xlink="http://www.w3.org/1999/xlink" height="4.95px" width="9.65px" xmlns="http://www.w3.org/2000/svg">
  <g transform="matrix(1.0, 0.0, 0.0, 1.0, 0.0, 0.0)">
    <path d="M3.55 0.35 L6.85 0.55 8.9 0.8 9.3 1.15 9.4 1.8 Q9.5 2.25 9.2 2.65 L8.3 2.95 5.45 3.4 5.0 2.55 3.8 0.9 3.55 0.35" fill="#ffcc99" fill-rule="evenodd" stroke="none"/>
    <path d="M5.45 3.4 L5.35 4.45 4.6 4.5 Q3.95 4.7 3.35 4.5 L2.65 4.4 1.35 4.0 0.6 3.55 Q0.1 3.15 -0.1 2.55 L-0.25 1.35 0.3 0.25 3.3 -0.35 3.55 0.35 3.8 0.9 5.0 2.55 5.45 3.4" fill="#467521" fill-rule="evenodd" stroke="none"/>
  </g>
</svg>
