<?xml version="1.0" encoding="UTF-8" standalone="no"?>
<svg xmlns:xlink="http://www.w3.org/1999/xlink" height="13.3px" width="5.6px" xmlns="http://www.w3.org/2000/svg">
  <g transform="matrix(1.0, 0.0, 0.0, 1.0, 0.0, 0.0)">
    <path d="M0.75 3.0 L4.35 3.15 4.55 4.55 Q4.8 6.05 4.5 8.5 4.15 10.9 3.55 11.95 2.9 12.95 2.2 12.95 L1.45 12.6 0.8 12.2 0.6 7.25 Q0.45 4.95 0.75 3.0" fill="#ffcc99" fill-rule="evenodd" stroke="none"/>
    <path d="M4.35 3.15 L4.55 4.55 Q4.8 6.05 4.5 8.5 4.15 10.9 3.55 11.95 2.9 12.95 2.2 12.95 L1.45 12.6 0.8 12.2 0.6 7.25 Q0.45 4.95 0.75 3.0" fill="none" stroke="#000000" stroke-linecap="round" stroke-linejoin="round" stroke-width="0.05"/>
    <path d="M0.45 1.3 Q1.2 1.8 2.3 1.65 3.35 1.45 3.85 -0.35 L4.35 0.1 4.5 0.45 Q5.05 1.95 5.0 3.95 4.95 5.9 5.4 7.8 L5.45 11.75 Q4.7 11.3 3.95 11.1 L2.35 10.75 1.05 10.75 -0.1 11.0 0.0 8.6 -0.15 4.3 Q-0.1 2.7 0.45 1.3 M1.0 10.0 L1.05 10.75 1.0 10.0 M2.35 10.05 L2.35 10.75 2.35 10.05" fill="#42661e" fill-rule="evenodd" stroke="none"/>
    <path d="M4.5 0.45 Q5.05 1.95 5.0 3.95 4.95 5.9 5.4 7.8 L5.45 11.75 Q4.7 11.3 3.95 11.1 L2.35 10.75 1.05 10.75 -0.1 11.0 0.0 8.6 -0.15 4.3 Q-0.1 2.7 0.45 1.3 M2.35 10.75 L2.35 10.05 M1.05 10.75 L1.0 10.0" fill="none" stroke="#000000" stroke-linecap="round" stroke-linejoin="round" stroke-width="0.05"/>
  </g>
</svg>
