<?xml version="1.0" encoding="UTF-8" standalone="no"?>
<svg xmlns:xlink="http://www.w3.org/1999/xlink" height="7.0px" width="8.3px" xmlns="http://www.w3.org/2000/svg">
  <g transform="matrix(1.0, 0.0, 0.0, 1.0, 0.0, 0.0)">
    <path d="M5.15 -0.15 L7.75 -0.5 Q9.05 2.45 7.9 5.15 5.05 6.5 2.2 6.5 0.8 6.5 0.15 5.2 L0.95 4.15 3.1 2.8 Q3.4 2.55 3.65 2.4 L3.95 2.1 4.3 1.5 4.35 1.35 5.15 -0.15 M7.75 4.2 Q7.55 4.25 7.55 4.45 L7.5 4.65 7.25 4.7 7.05 4.75 6.95 4.75 6.65 4.85 6.55 4.85 6.35 4.95 6.2 5.05 5.65 5.25 5.45 5.3 5.25 5.45 4.6 5.65 4.25 5.8 3.75 5.95 3.3 5.95 2.7 6.0 1.9 5.9 1.7 5.85 1.45 5.8 Q1.0 5.7 0.8 5.45 1.0 5.7 1.45 5.8 L1.7 5.85 1.9 5.9 2.7 6.0 3.3 5.95 3.75 5.95 4.25 5.8 4.6 5.65 5.25 5.45 5.45 5.3 5.65 5.25 6.2 5.05 6.35 4.95 6.55 4.85 6.65 4.85 6.95 4.75 7.05 4.75 7.25 4.7 7.5 4.65 7.55 4.45 Q7.55 4.25 7.75 4.2" fill="#5d5542" fill-rule="evenodd" stroke="none"/>
    <path d="M5.15 -0.15 L4.35 1.35 4.3 1.5 3.95 2.1 3.65 2.4 Q3.4 2.55 3.1 2.8 L0.95 4.15 0.15 5.2 Q0.8 6.5 2.2 6.5 5.05 6.5 7.9 5.15 9.05 2.45 7.75 -0.5 L5.15 -0.15 M0.8 5.45 Q1.0 5.7 1.45 5.8 L1.7 5.85 1.9 5.9 2.7 6.0 3.3 5.95 3.75 5.95 4.25 5.8 4.6 5.65 5.25 5.45 5.45 5.3 5.65 5.25 6.2 5.05 6.35 4.95 6.55 4.85 6.65 4.85 6.95 4.75 7.05 4.75 7.25 4.7 7.5 4.65 7.55 4.45 Q7.55 4.25 7.75 4.2" fill="none" stroke="#000000" stroke-linecap="round" stroke-linejoin="round" stroke-width="0.05"/>
  </g>
</svg>
