<?xml version="1.0" encoding="UTF-8" standalone="no"?>
<svg xmlns:xlink="http://www.w3.org/1999/xlink" height="17.35px" width="9.55px" xmlns="http://www.w3.org/2000/svg">
  <g transform="matrix(1.0, 0.0, 0.0, 1.0, 0.0, 0.0)">
    <path d="M6.6 13.35 L6.9 13.2 7.35 13.2 7.2 13.25 6.6 13.35 M7.35 13.2 L7.55 13.1 7.65 13.2 7.35 13.2" fill="#81814f" fill-rule="evenodd" stroke="none"/>
    <path d="M7.1 0.55 L7.1 0.95 7.1 1.15 7.05 1.65 7.0 1.65 6.75 2.05 6.2 2.65 5.7 3.0 5.65 3.35 5.45 3.45 4.85 3.75 5.45 3.45 5.65 3.35 5.5 4.0 5.4 4.8 5.35 4.9 5.2 5.0 5.35 4.9 5.25 5.35 5.2 5.0 5.15 4.7 5.3 4.75 5.4 4.8 5.3 4.75 5.15 4.7 4.85 3.75 4.5 2.95 3.75 2.55 3.4 1.35 3.4 1.3 3.4 1.1 3.4 0.95 3.4 0.8 3.95 0.65 5.55 0.55 7.0 0.55 7.1 0.55 M7.0 1.65 L7.1 1.15 7.0 1.65 M4.85 3.75 L5.5 4.0 4.85 3.75" fill="#ffcc99" fill-rule="evenodd" stroke="none"/>
    <path d="M7.1 0.55 L8.8 0.6 9.6 1.65 10.0 2.8 10.1 4.25 10.0 5.55 9.7 7.35 9.2 9.4 8.75 11.0 8.5 11.8 8.4 12.1 7.95 12.1 7.55 11.6 6.7 11.6 6.2 12.1 5.5 12.05 5.45 12.05 5.8 11.8 6.05 11.35 6.15 11.1 6.05 11.35 5.8 11.8 5.45 12.05 3.0 12.15 1.6 12.2 Q1.0 11.3 1.2 10.25 L1.3 8.45 1.0 7.0 0.7 5.25 0.55 3.85 0.6 2.55 0.7 1.75 2.0 1.1 3.4 0.8 3.4 0.95 3.4 1.1 3.4 1.3 3.4 1.35 3.75 2.55 4.5 2.95 4.85 3.75 5.15 4.7 5.2 5.0 5.25 5.35 5.35 4.9 5.4 4.8 5.45 4.85 5.6 4.7 6.1 4.4 5.6 4.7 5.45 4.85 5.4 4.8 5.5 4.0 5.65 3.35 5.7 3.0 6.2 2.65 6.75 2.05 7.0 1.65 7.05 1.65 7.1 1.15 7.1 0.95 7.1 0.55 M6.3 3.0 L5.65 3.35 6.3 3.0 M6.35 4.2 L5.6 4.0 5.5 4.0 5.6 4.0 6.35 4.2 M6.9 5.5 L6.35 5.3 5.45 4.85 5.35 4.9 5.45 4.85 6.35 5.3 6.9 5.5 M4.5 4.45 L5.15 4.7 4.5 4.45 M3.95 3.35 L4.85 3.75 3.85 4.2 4.85 3.75 3.95 3.35 M2.65 11.15 L2.7 11.5 3.0 12.15 2.7 11.5 2.65 11.15 M7.6 11.0 L7.45 11.3 7.6 11.0 M4.3 5.6 L5.2 5.0 4.3 5.6 M1.65 13.5 L5.2 13.35 5.55 13.65 6.6 13.35 6.95 14.15 7.1 14.85 7.0 15.8 7.7 15.85 7.65 14.5 7.45 13.8 7.3 13.35 7.65 14.05 8.1 14.4 8.3 14.3 8.2 13.95 8.0 13.65 7.65 13.2 8.8 13.15 9.2 13.8 9.5 14.35 Q10.05 15.6 9.8 17.0 4.1 18.6 1.2 17.4 L1.25 16.55 1.65 13.5" fill="#467521" fill-rule="evenodd" stroke="none"/>
    <path d="M1.6 12.2 L3.0 12.15 5.45 12.05 5.5 12.05 6.2 12.1 6.7 11.6 7.55 11.6 7.95 12.1 8.4 12.1 8.8 13.15 7.65 13.2 8.0 13.65 8.2 13.95 8.3 14.3 8.1 14.4 7.65 14.05 7.3 13.35 7.45 13.8 7.65 14.5 7.7 15.85 7.0 15.8 7.1 14.85 6.95 14.15 6.6 13.35 5.55 13.65 5.2 13.35 1.65 13.5 1.6 12.2 M5.2 13.35 L5.1 13.1 5.65 12.6 6.1 12.4 Q5.95 13.05 6.5 12.45 L7.3 12.5 7.25 12.6 6.9 13.2 7.25 12.6 7.3 12.5 6.5 12.45 Q5.95 13.05 6.1 12.4 L5.65 12.6 5.1 13.1 5.2 13.35 M7.65 14.05 L8.0 13.65 7.65 14.05 M6.6 13.35 L7.2 13.25 7.35 13.2 6.9 13.2 6.6 13.35 M7.2 13.25 L7.3 13.35 7.2 13.25 M7.55 13.1 L7.35 13.2 7.65 13.2 7.55 13.1 7.8 12.85 7.95 12.1 7.8 12.85 7.55 13.1 M7.65 14.5 L7.1 14.85 7.65 14.5 M6.95 14.15 L7.45 13.8 6.95 14.15 M5.1 13.1 L5.0 12.95 Q5.05 12.35 5.5 12.05 5.05 12.35 5.0 12.95 L5.1 13.1 M6.1 12.4 L6.2 12.1 6.1 12.4" fill="#5d5542" fill-rule="evenodd" stroke="none"/>
    <path d="M8.5 11.8 L8.75 11.0 9.2 9.4 9.7 7.35 10.0 5.55 10.1 4.25 10.0 2.8 9.6 1.65 8.8 0.6 7.1 0.55 7.1 0.95 M7.1 1.15 L7.05 1.65 M7.1 0.55 L7.0 0.55 5.55 0.55 3.95 0.65 3.4 0.8 3.4 0.95 M3.4 0.8 L2.0 1.1 0.7 1.75 0.6 2.55 0.55 3.85 0.7 5.25 1.0 7.0 1.3 8.45 1.2 10.25 Q1.0 11.3 1.6 12.2 L3.0 12.15 5.45 12.05 5.5 12.05 6.2 12.1 6.7 11.6 7.55 11.6 7.95 12.1 8.4 12.1 M8.8 13.15 L7.65 13.2 8.0 13.65 8.2 13.95 8.3 14.3 8.1 14.4 7.65 14.05 7.3 13.35 7.45 13.8 7.65 14.5 7.7 15.85 7.0 15.8 7.1 14.85 6.95 14.15 6.6 13.35 5.55 13.65 5.2 13.35 1.65 13.5 M8.0 13.65 L7.65 14.05 M6.9 13.2 L7.25 12.6 7.3 12.5 6.5 12.45 Q5.95 13.05 6.1 12.4 L5.65 12.6 5.1 13.1 5.2 13.35 M6.6 13.35 L7.2 13.25 7.35 13.2 6.9 13.2 6.6 13.35 M7.3 13.35 L7.2 13.25 M7.35 13.2 L7.55 13.1 7.8 12.85 7.95 12.1 M7.45 13.8 L6.95 14.15 M7.1 14.85 L7.65 14.5 M7.35 13.2 L7.65 13.2 7.55 13.1 M5.5 12.05 Q5.05 12.35 5.0 12.95 L5.1 13.1 M6.2 12.1 L6.1 12.4" fill="none" stroke="#000000" stroke-linecap="round" stroke-linejoin="round" stroke-width="0.05"/>
    <path d="M7.1 0.95 L7.1 1.15 7.0 1.65 6.75 2.05 6.2 2.65 5.7 3.0 5.65 3.35 6.3 3.0 M3.4 0.95 L3.4 1.1 3.4 1.3 3.4 1.35 3.75 2.55 4.5 2.95 4.85 3.75 5.45 3.45 5.65 3.35 5.5 4.0 5.6 4.0 6.35 4.2 M5.4 4.8 L5.45 4.85 5.6 4.7 6.1 4.4 M5.2 5.0 L5.35 4.9 5.4 4.8 5.3 4.75 5.15 4.7 5.2 5.0 5.25 5.35 5.35 4.9 5.45 4.85 6.35 5.3 6.9 5.5 M5.4 4.8 L5.5 4.0 4.85 3.75 5.15 4.7 4.5 4.45 M3.0 12.15 L2.7 11.5 2.65 11.15 M3.85 4.2 L4.85 3.75 3.95 3.35 M5.45 12.05 L5.8 11.8 6.05 11.35 6.15 11.1 M8.4 12.1 L8.5 11.8 M7.45 11.3 L7.6 11.0 M5.2 5.0 L4.3 5.6 M1.65 13.5 L1.25 16.55 1.2 17.4 Q4.1 18.6 9.8 17.0 10.05 15.6 9.5 14.35 L9.2 13.8 8.8 13.15 8.4 12.1 M1.6 12.2 L1.65 13.5" fill="none" stroke="#000000" stroke-linecap="round" stroke-linejoin="round" stroke-width="0.05"/>
  </g>
</svg>
