<?xml version="1.0" encoding="UTF-8" standalone="no"?>
<svg xmlns:xlink="http://www.w3.org/1999/xlink" height="13.35px" width="10.95px" xmlns="http://www.w3.org/2000/svg">
  <g transform="matrix(1.0, 0.0, 0.0, 1.0, 0.0, 0.0)">
    <path d="M8.25 7.55 L8.4 11.35 8.15 11.8 4.85 11.95 4.8 10.6 2.85 11.2 2.0 11.0 Q1.1 10.05 1.0 8.7 L0.95 8.1 0.0 7.45 0.9 5.1 0.85 3.85 0.85 3.55 1.05 3.5 1.25 3.45 Q1.55 3.95 2.0 3.95 2.55 3.7 2.75 4.15 L3.5 3.95 4.55 4.05 4.7 4.15 4.85 4.2 5.9 4.75 Q5.75 5.6 6.2 6.0 L6.25 5.9 Q6.6 5.4 6.55 4.7 L8.15 5.0 8.25 6.4 8.15 6.55 8.2 6.7 8.2 7.3 8.2 7.45 8.25 7.55 M4.0 4.95 Q3.3 4.5 2.55 4.6 L2.5 4.75 2.4 5.5 Q2.45 5.85 2.85 6.1 L3.0 6.15 Q4.05 6.2 4.1 5.15 L4.0 4.95 4.75 5.3 4.0 4.95" fill="#ffcc99" fill-rule="evenodd" stroke="none"/>
    <path d="M4.1 5.15 Q4.05 6.2 3.0 6.15 L2.85 6.1 Q2.45 5.85 2.4 5.5 L2.5 4.75 2.55 4.6 Q3.3 4.5 4.0 4.95 L4.1 5.15" fill="#2d8f01" fill-rule="evenodd" stroke="none"/>
    <path d="M0.85 3.55 L0.4 3.7 0.35 3.7 -0.4 3.75 Q-0.1 1.8 1.2 0.45 L1.85 -0.05 Q3.6 -1.0 5.55 -0.7 L5.3 -1.15 6.2 -0.75 7.55 -0.8 Q6.9 -0.45 7.8 -0.3 9.1 0.15 9.8 1.45 10.45 2.6 10.55 3.85 10.6 4.8 10.25 5.6 L10.2 5.6 9.4 5.4 8.55 7.2 8.3 7.65 8.25 7.55 8.2 7.45 8.2 7.3 8.25 6.4 8.15 5.0 6.55 4.7 Q6.6 5.4 6.25 5.9 L6.2 6.0 Q5.75 5.6 5.9 4.75 L4.85 4.2 4.7 4.15 4.55 4.05 3.5 3.95 2.75 4.15 Q2.55 3.7 2.0 3.95 1.55 3.95 1.25 3.45 L1.05 3.5 0.85 3.55" fill="#c39d4f" fill-rule="evenodd" stroke="none"/>
    <path d="M4.1 5.15 Q4.05 6.2 3.0 6.15 L2.85 6.1 Q2.45 5.85 2.4 5.5 L2.5 4.75 2.55 4.6 Q3.3 4.5 4.0 4.95 L4.75 5.3" fill="none" stroke="#000000" stroke-linecap="round" stroke-linejoin="round" stroke-width="0.05"/>
  </g>
</svg>
