<?xml version="1.0" encoding="UTF-8" standalone="no"?>
<svg xmlns:xlink="http://www.w3.org/1999/xlink" height="24.2px" width="4.5px" xmlns="http://www.w3.org/2000/svg">
  <g transform="matrix(1.0, 0.0, 0.0, 1.0, 0.0, 0.0)">
    <path d="M0.6 -14.4 L0.8 -13.2 0.6 -12.0 0.15 -11.45 -0.3 -12.0 -0.5 -13.2 -0.3 -14.4 0.15 -14.9 0.6 -14.4" fill="#f00f0f" fill-opacity="0.3019608" fill-rule="evenodd" stroke="none"/>
    <path d="M2.5 -9.4 L0.95 -6.45 0.95 -6.15 0.95 -5.8 0.8 6.55 0.75 9.0 Q0.15 9.6 -0.4 9.0 L-0.4 6.65 -0.55 -6.45 -2.0 -9.4 Q-2.1 -9.95 -0.6 -10.5 L-0.6 -10.85 -1.5 -11.25 2.0 -11.25 0.95 -10.85 0.95 -10.5 Q2.5 -9.95 2.5 -9.4 M-0.4 6.65 L0.8 6.55 -0.4 6.65 M-0.3 -6.05 L0.95 -6.15 -0.3 -6.05 M0.1 -9.95 L-0.2 -9.0 -0.25 -8.75 0.1 -8.25 -0.25 -8.75 -0.2 -9.0 0.1 -9.95 M-0.9 -9.55 L-0.75 -9.35 -0.85 -8.75 -0.95 -8.4 Q-0.95 -7.9 -0.5 -7.55 -0.95 -7.9 -0.95 -8.4 L-0.85 -8.75 -0.75 -9.35 -0.9 -9.55 M0.95 -5.8 L0.45 -5.85 0.05 -5.8 0.45 -5.85 0.95 -5.8 M0.9 -9.3 L1.0 -9.0 0.8 -8.65 0.65 -8.35 0.6 -8.2 Q0.6 -7.9 0.9 -7.7 0.6 -7.9 0.6 -8.2 L0.65 -8.35 0.8 -8.65 1.0 -9.0 0.9 -9.3" fill="#ffcc33" fill-rule="evenodd" stroke="none"/>
    <path d="M2.5 -9.4 L0.95 -6.45 0.95 -6.15 0.95 -5.8 0.8 6.55 0.75 9.0 Q0.15 9.6 -0.4 9.0 L-0.4 6.65 -0.55 -6.45 -2.0 -9.4 Q-2.1 -9.95 -0.6 -10.5 L-0.6 -10.85 -1.5 -11.25 2.0 -11.25 0.95 -10.85 0.95 -10.5 Q2.5 -9.95 2.5 -9.4" fill="none" stroke="#000000" stroke-linecap="round" stroke-linejoin="round" stroke-width="0.05"/>
    <path d="M0.6 -14.4 L0.8 -13.2 0.6 -12.0 0.15 -11.45 -0.3 -12.0 -0.5 -13.2 -0.3 -14.4 0.15 -14.9 0.6 -14.4" fill="none" stroke="#ffcc00" stroke-linecap="round" stroke-linejoin="round" stroke-width="0.05"/>
    <path d="M0.9 -7.7 Q0.6 -7.9 0.6 -8.2 L0.65 -8.35 0.8 -8.65 1.0 -9.0 0.9 -9.3 M0.05 -5.8 L0.45 -5.85 0.95 -5.8 M-0.5 -7.55 Q-0.95 -7.9 -0.95 -8.4 L-0.85 -8.75 -0.75 -9.35 -0.9 -9.55 M0.1 -8.25 L-0.25 -8.75 -0.2 -9.0 0.1 -9.95 M0.95 -6.15 L-0.3 -6.05 M0.8 6.55 L-0.4 6.65" fill="none" stroke="#ff0000" stroke-linecap="round" stroke-linejoin="round" stroke-width="0.05"/>
  </g>
</svg>
