<?xml version="1.0" encoding="UTF-8" standalone="no"?>
<svg xmlns:xlink="http://www.w3.org/1999/xlink" height="22.35px" width="5.4px" xmlns="http://www.w3.org/2000/svg">
  <g transform="matrix(1.0, 0.0, 0.0, 1.0, 0.0, 0.0)">
    <path d="M1.1 -12.4 Q1.45 -12.05 1.45 -11.55 1.45 -11.05 1.1 -10.75 0.8 -10.4 0.3 -10.4 -0.2 -10.4 -0.55 -10.75 L-0.85 -11.55 -0.55 -12.4 0.3 -12.7 Q0.8 -12.7 1.1 -12.4" fill="#579c1f" fill-opacity="0.68235296" fill-rule="evenodd" stroke="none"/>
    <path d="M-0.65 -9.95 L0.3 -9.85 1.9 -10.9 1.9 -11.1 Q2.1 -12.15 1.3 -12.85 L0.6 -13.25 Q-0.1 -13.3 0.1 -13.6 2.0 -13.6 3.3 -12.4 L3.8 -11.0 3.65 -10.85 Q3.25 -10.25 3.2 -9.55 L2.95 -8.8 2.25 -7.85 2.0 -6.95 Q1.25 -6.0 1.0 -4.85 0.6 -3.15 0.55 -1.4 L0.45 1.75 Q0.3 4.95 0.8 8.15 0.95 9.0 0.7 8.65 L0.3 8.1 -0.3 6.6 -0.65 5.5 -0.85 3.9 -0.7 1.75 Q-0.65 1.25 -0.75 0.75 -1.05 -0.7 -0.7 -2.25 L-0.55 -3.5 -0.25 -5.15 0.0 -7.5 -0.65 -8.4 -1.25 -9.4 Q-1.85 -10.0 -1.4 -10.55 L-0.65 -9.95 -0.6 -9.4 -0.4 -9.05 -0.15 -8.75 0.1 -8.55 0.35 -8.1 0.1 -8.55 -0.15 -8.75 -0.4 -9.05 -0.6 -9.4 -0.65 -9.95 M-0.2 -0.1 L-0.2 0.45 -0.25 2.4 -0.2 0.45 -0.2 -0.1 -0.3 -0.9 -0.4 -1.2 -0.3 -0.9 -0.2 -0.1 -0.1 -0.5 0.0 -1.05 0.1 -1.5 0.05 -2.1 0.0 -2.35 -0.1 -3.4 -0.15 -3.85 -0.1 -4.05 -0.05 -4.6 0.1 -5.35 0.3 -5.85 0.3 -5.9 0.35 -6.2 0.5 -6.6 1.4 -8.2 1.75 -8.75 2.1 -9.35 2.3 -9.9 2.1 -9.35 1.75 -8.75 1.4 -8.2 0.5 -6.6 0.35 -6.2 0.3 -5.9 0.3 -5.85 0.1 -5.35 -0.05 -4.6 -0.1 -4.05 -0.15 -3.85 -0.1 -3.4 0.0 -2.35 0.05 -2.1 0.1 -1.5 0.0 -1.05 -0.1 -0.5 -0.2 -0.1 M0.3 -5.85 L0.3 -5.7 0.3 -5.25 0.25 -4.9 -0.1 -4.05 0.25 -4.9 0.3 -5.25 0.3 -5.7 0.3 -5.85 M2.25 -11.95 L2.5 -11.55 2.6 -11.1 2.65 -10.4 2.6 -9.95 2.55 -9.6 2.3 -8.75 2.55 -9.6 2.6 -9.95 2.65 -10.4 2.6 -11.1 2.5 -11.55 2.25 -11.95" fill="#534d2d" fill-rule="evenodd" stroke="none"/>
    <path d="M-0.65 -9.95 L-1.4 -10.55 Q-1.85 -10.0 -1.25 -9.4 L-0.65 -8.4 0.0 -7.5 -0.25 -5.15 -0.55 -3.5 -0.7 -2.25 Q-1.05 -0.7 -0.75 0.75 -0.65 1.25 -0.7 1.75 L-0.85 3.9 -0.65 5.5 -0.3 6.6 0.3 8.1 0.7 8.65 Q0.95 9.0 0.8 8.15 0.3 4.95 0.45 1.75 L0.55 -1.4 Q0.6 -3.15 1.0 -4.85 1.25 -6.0 2.0 -6.95 L2.25 -7.85 2.95 -8.8 3.2 -9.55 Q3.25 -10.25 3.65 -10.85 L3.8 -11.0 3.3 -12.4 Q2.0 -13.6 0.1 -13.6 -0.1 -13.3 0.6 -13.25 L1.3 -12.85 Q2.1 -12.15 1.9 -11.1 L1.9 -10.9 0.3 -9.85 -0.65 -9.95" fill="none" stroke="#000000" stroke-linecap="round" stroke-linejoin="round" stroke-width="0.05"/>
    <path d="M1.1 -12.4 Q1.45 -12.05 1.45 -11.55 1.45 -11.05 1.1 -10.75 0.8 -10.4 0.3 -10.4 -0.2 -10.4 -0.55 -10.75 L-0.85 -11.55 -0.55 -12.4 0.3 -12.7 Q0.8 -12.7 1.1 -12.4" fill="none" stroke="#00ff00" stroke-linecap="round" stroke-linejoin="round" stroke-width="0.05"/>
    <path d="M-0.65 -9.95 L-0.6 -9.4 -0.4 -9.05 -0.15 -8.75 0.1 -8.55 0.35 -8.1 M2.3 -8.75 L2.55 -9.6 2.6 -9.95 2.65 -10.4 2.6 -11.1 2.5 -11.55 2.25 -11.95 M-0.4 -1.2 L-0.3 -0.9 -0.2 -0.1 -0.1 -0.5 0.0 -1.05 0.1 -1.5 0.05 -2.1 0.0 -2.35 -0.1 -3.4 -0.15 -3.85 -0.1 -4.05 -0.05 -4.6 0.1 -5.35 0.3 -5.85 0.3 -5.9 0.35 -6.2 0.5 -6.6 1.4 -8.2 1.75 -8.75 2.1 -9.35 2.3 -9.9 M-0.1 -4.05 L0.25 -4.9 0.3 -5.25 0.3 -5.7 0.3 -5.85 M-0.25 2.4 L-0.2 0.45 -0.2 -0.1" fill="none" stroke="#332e1c" stroke-linecap="round" stroke-linejoin="round" stroke-width="0.05"/>
  </g>
</svg>
