<?xml version="1.0" encoding="UTF-8" standalone="no"?>
<svg xmlns:xlink="http://www.w3.org/1999/xlink" height="24.2px" width="9.55px" xmlns="http://www.w3.org/2000/svg">
  <g transform="matrix(1.0, 0.0, 0.0, 1.0, 0.0, 0.0)">
    <path d="M0.8 -13.2 L0.6 -12.0 0.15 -11.45 -0.3 -12.0 -0.5 -13.2 -0.3 -14.4 0.15 -14.9 0.6 -14.4 0.8 -13.2" fill="#dc0e03" fill-opacity="0.77254903" fill-rule="evenodd" stroke="none"/>
    <path d="M0.95 -10.85 L0.95 -10.5 0.95 -9.4 0.95 -6.45 0.9 -1.75 0.75 9.0 Q0.15 9.6 -0.4 9.0 L-0.5 -1.75 -0.55 -6.45 -0.6 -9.4 -0.6 -10.5 -0.6 -10.85 -0.6 -11.25 0.95 -11.25 0.95 -10.85 0.2 -10.85 0.95 -10.85 M0.2 -10.5 L0.2 -10.85 0.2 -10.5 0.95 -10.5 0.2 -10.5 0.2 -9.4 0.2 -6.45 0.2 -9.4 0.2 -10.5 -0.6 -10.5 0.2 -10.5 M0.95 -9.4 L0.2 -9.4 0.95 -9.4 M0.2 -1.75 L0.9 -1.75 0.2 -1.75 0.2 -6.45 0.95 -6.45 0.2 -6.45 0.2 -1.75 0.2 8.7 0.2 -1.75 -0.5 -1.75 0.2 -1.75 M0.2 -10.85 L-0.6 -10.85 0.2 -10.85 M-0.55 -6.45 L0.2 -6.45 -0.55 -6.45 M-0.6 -9.4 L0.2 -9.4 -0.6 -9.4" fill="#c9b34f" fill-rule="evenodd" stroke="none"/>
    <path d="M0.95 -10.85 L0.2 -10.85 -0.6 -10.85 M0.2 -10.5 L0.95 -10.5 M0.2 -9.4 L0.95 -9.4 M0.2 -6.45 L0.95 -6.45 M0.9 -1.75 L0.2 -1.75 -0.5 -1.75 M0.2 -9.4 L-0.6 -9.4 M-0.6 -10.5 L0.2 -10.5 M0.2 -6.45 L-0.55 -6.45" fill="none" stroke="#00ccff" stroke-linecap="round" stroke-linejoin="round" stroke-width="0.05"/>
    <path d="M0.95 -10.85 L0.95 -10.5 0.95 -9.4 0.95 -6.45 0.9 -1.75 0.75 9.0 Q0.15 9.6 -0.4 9.0 L-0.5 -1.75 -0.55 -6.45 -0.6 -9.4 -0.6 -10.5 -0.6 -10.85 -0.6 -11.25 0.95 -11.25 0.95 -10.85" fill="none" stroke="#000000" stroke-linecap="round" stroke-linejoin="round" stroke-width="0.05"/>
    <path d="M0.2 -10.85 L0.2 -10.5 0.2 -9.4 0.2 -6.45 0.2 -1.75 0.2 8.7" fill="none" stroke="#dfffff" stroke-linecap="round" stroke-linejoin="round" stroke-width="0.05"/>
    <path d="M0.8 -13.2 L0.6 -12.0 0.15 -11.45 -0.3 -12.0 -0.5 -13.2 -0.3 -14.4 0.15 -14.9 0.6 -14.4 0.8 -13.2 Z" fill="none" stroke="#33ffff" stroke-linecap="round" stroke-linejoin="round" stroke-width="0.05"/>
    <path d="M3.75 -14.2 L5.05 -14.15 4.45 -9.45 -3.9 -9.45 -4.5 -14.15 -3.2 -14.2 -2.35 -11.35 2.9 -11.35 3.75 -14.2 M3.75 -3.15 L2.9 -6.0 -2.35 -6.0 -3.2 -3.15 -4.5 -3.2 -3.9 -7.9 4.45 -7.9 5.05 -3.2 3.75 -3.15 M-3.7 -13.5 L-2.9 -10.45 3.45 -10.45 4.25 -13.5 3.45 -10.45 -2.9 -10.45 -3.7 -13.5 M4.25 -3.85 L3.45 -6.9 -2.9 -6.9 -3.7 -3.85 -2.9 -6.9 3.45 -6.9 4.25 -3.85" fill="#c9b34f" fill-rule="evenodd" stroke="none"/>
    <path d="M3.75 -14.2 L2.9 -11.35 -2.35 -11.35 -3.2 -14.2 -4.5 -14.15 -3.9 -9.45 4.45 -9.45 5.05 -14.15 3.75 -14.2 M3.75 -3.15 L2.9 -6.0 -2.35 -6.0 -3.2 -3.15 -4.5 -3.2 -3.9 -7.9 4.45 -7.9 5.05 -3.2 3.75 -3.15" fill="none" stroke="#000000" stroke-linecap="round" stroke-linejoin="round" stroke-width="0.05"/>
    <path d="M-3.7 -3.85 L-2.9 -6.9 3.45 -6.9 4.25 -3.85 M4.25 -13.5 L3.45 -10.45 -2.9 -10.45 -3.7 -13.5" fill="none" stroke="#ffcc00" stroke-linecap="round" stroke-linejoin="round" stroke-opacity="0.92156863" stroke-width="0.05"/>
    <path d="M0.15 -9.9 L0.9 -9.6 1.25 -8.85 Q1.25 -8.4 0.9 -8.1 0.6 -7.75 0.15 -7.75 -0.25 -7.75 -0.6 -8.1 -0.9 -8.4 -0.9 -8.85 L-0.6 -9.6 0.15 -9.9" fill="#c9b34f" fill-rule="evenodd" stroke="none"/>
    <path d="M-1.75 -8.85 L-0.9 -8.85 Q-0.9 -8.4 -0.6 -8.1 -0.25 -7.75 0.15 -7.75 L0.15 -6.85 Q-0.6 -6.85 -1.2 -7.45 -1.75 -8.0 -1.75 -8.85" fill="#00ff00" fill-rule="evenodd" stroke="none"/>
    <path d="M0.15 -10.8 L0.15 -9.9 -0.6 -9.6 -0.9 -8.85 -1.75 -8.85 Q-1.75 -9.65 -1.2 -10.25 -0.6 -10.8 0.15 -10.8" fill="#ff9900" fill-rule="evenodd" stroke="none"/>
    <path d="M0.15 -9.9 L0.15 -10.8 0.2 -10.8 Q1.05 -10.8 1.6 -10.25 2.2 -9.65 2.2 -8.85 L1.25 -8.85 0.9 -9.6 0.15 -9.9" fill="#33ccff" fill-rule="evenodd" stroke="none"/>
    <path d="M1.25 -8.85 L2.2 -8.85 2.2 -8.8 Q2.2 -8.0 1.6 -7.45 1.05 -6.85 0.2 -6.85 L0.15 -6.85 0.15 -7.75 Q0.6 -7.75 0.9 -8.1 1.25 -8.4 1.25 -8.85" fill="#ffff00" fill-rule="evenodd" stroke="none"/>
    <path d="M0.15 -10.8 L0.15 -9.9 0.9 -9.6 1.25 -8.85 2.2 -8.85 Q2.2 -9.65 1.6 -10.25 1.05 -10.8 0.2 -10.8 L0.15 -10.8 Q-0.6 -10.8 -1.2 -10.25 -1.75 -9.65 -1.75 -8.85 L-0.9 -8.85 -0.6 -9.6 0.15 -9.9 M1.25 -8.85 Q1.25 -8.4 0.9 -8.1 0.6 -7.75 0.15 -7.75 L0.15 -6.85 0.2 -6.85 Q1.05 -6.85 1.6 -7.45 2.2 -8.0 2.2 -8.8 L2.2 -8.85 M-0.9 -8.85 Q-0.9 -8.4 -0.6 -8.1 -0.25 -7.75 0.15 -7.75 M-1.75 -8.85 Q-1.75 -8.0 -1.2 -7.45 -0.6 -6.85 0.15 -6.85" fill="none" stroke="#000000" stroke-linecap="round" stroke-linejoin="round" stroke-width="0.05"/>
  </g>
</svg>
