<?xml version="1.0" encoding="UTF-8" standalone="no"?>
<svg xmlns:xlink="http://www.w3.org/1999/xlink" height="24.2px" width="1.55px" xmlns="http://www.w3.org/2000/svg">
  <g transform="matrix(1.0, 0.0, 0.0, 1.0, 0.0, 0.0)">
    <path d="M0.6 -14.4 L0.8 -13.2 0.6 -12.0 0.15 -11.45 -0.3 -12.0 -0.5 -13.2 -0.3 -14.4 0.15 -14.9 0.6 -14.4" fill="#158eac" fill-opacity="0.3019608" fill-rule="evenodd" stroke="none"/>
    <path d="M0.95 -10.85 L0.95 -10.5 0.95 -9.4 0.95 -6.45 0.9 -1.75 0.75 9.0 Q0.15 9.6 -0.4 9.0 L-0.5 -1.75 -0.55 -6.45 -0.6 -9.4 -0.6 -10.5 -0.6 -10.85 -0.6 -11.25 0.95 -11.25 0.95 -10.85 0.2 -10.85 0.95 -10.85 M0.2 -10.5 L0.2 -10.85 0.2 -10.5 0.95 -10.5 0.2 -10.5 0.2 -9.4 0.2 -10.5 -0.6 -10.5 0.2 -10.5 M0.95 -6.45 L0.2 -6.45 0.95 -6.45 M0.95 -9.4 L0.2 -9.4 0.95 -9.4 M0.2 -1.75 L0.2 -6.45 0.2 -9.4 0.2 -6.45 0.2 -1.75 0.9 -1.75 0.2 -1.75 0.2 8.7 0.2 -1.75 -0.5 -1.75 0.2 -1.75 M-0.6 -9.4 L0.2 -9.4 -0.6 -9.4 M-0.55 -6.45 L0.2 -6.45 -0.55 -6.45 M0.2 -10.85 L-0.6 -10.85 0.2 -10.85" fill="#cdffff" fill-rule="evenodd" stroke="none"/>
    <path d="M0.6 -14.4 L0.8 -13.2 0.6 -12.0 0.15 -11.45 -0.3 -12.0 -0.5 -13.2 -0.3 -14.4 0.15 -14.9 0.6 -14.4 M0.95 -10.85 L0.2 -10.85 -0.6 -10.85 M0.2 -10.5 L0.95 -10.5 M0.2 -9.4 L0.95 -9.4 M0.2 -6.45 L0.95 -6.45 M0.2 -1.75 L0.9 -1.75 M0.2 -6.45 L-0.55 -6.45 M0.2 -9.4 L-0.6 -9.4 M0.2 -1.75 L-0.5 -1.75 M0.2 -10.5 L-0.6 -10.5" fill="none" stroke="#00ccff" stroke-linecap="round" stroke-linejoin="round" stroke-width="0.05"/>
    <path d="M0.2 -10.85 L0.2 -10.5 0.2 -9.4 0.2 -6.45 0.2 -1.75 0.2 8.7" fill="none" stroke="#dfffff" stroke-linecap="round" stroke-linejoin="round" stroke-width="0.05"/>
  </g>
</svg>
