<?xml version="1.0" encoding="UTF-8" standalone="no"?>
<svg xmlns:xlink="http://www.w3.org/1999/xlink" height="6.5px" width="15.0px" xmlns="http://www.w3.org/2000/svg">
  <g transform="matrix(1.0, 0.0, 0.0, 1.0, 0.0, 0.0)">
    <path d="M10.5 0.6 L11.55 0.45 12.7 0.0 Q14.5 0.0 14.85 0.85 15.8 2.2 14.85 3.4 L11.6 3.7 11.05 3.0 10.05 2.85 10.5 0.6" fill="#ffcc99" fill-rule="evenodd" stroke="none"/>
    <path d="M0.35 0.7 L8.8 0.0 10.3 -0.15 10.5 0.6 10.05 2.85 Q9.7 4.45 8.75 5.8 L8.25 6.35 7.45 6.0 Q3.6 4.25 2.0 4.15 1.15 4.1 0.75 3.75 0.25 3.35 0.3 2.6 L0.35 0.7 M8.8 0.0 L8.85 0.15 Q9.35 1.15 9.15 2.25 L8.75 3.65 Q8.3 5.0 7.45 6.0 8.3 5.0 8.75 3.65 L9.15 2.25 Q9.35 1.15 8.85 0.15 L8.8 0.0" fill="#0099cc" fill-rule="evenodd" stroke="none"/>
    <path d="M0.35 0.7 L8.8 0.0 10.3 -0.15 10.5 0.6 11.55 0.45 12.7 0.0 Q14.5 0.0 14.85 0.85 15.8 2.2 14.85 3.4 L11.6 3.7 11.05 3.0 10.05 2.85 Q9.7 4.45 8.75 5.8 L8.25 6.35 7.45 6.0 Q3.6 4.25 2.0 4.15 1.15 4.1 0.75 3.75 M10.5 0.6 L10.05 2.85" fill="none" stroke="#000000" stroke-linecap="round" stroke-linejoin="round" stroke-width="0.05"/>
    <path d="M7.45 6.0 Q8.3 5.0 8.75 3.65 L9.15 2.25 Q9.35 1.15 8.85 0.15 L8.8 0.0" fill="none" stroke="#ffffff" stroke-linecap="round" stroke-linejoin="round" stroke-width="0.05"/>
  </g>
</svg>
