<?xml version="1.0" encoding="UTF-8" standalone="no"?>
<svg xmlns:xlink="http://www.w3.org/1999/xlink" height="6.45px" width="7.15px" xmlns="http://www.w3.org/2000/svg">
  <g transform="matrix(1.0, 0.0, 0.0, 1.0, 0.0, 0.0)">
    <path d="M5.4 -0.15 L7.15 -0.4 Q7.75 -0.55 8.05 0.7 L8.35 3.3 Q4.5 4.05 4.55 5.8 L4.1 5.85 Q4.0 5.85 3.95 5.95 L3.9 6.0 3.8 6.05 2.85 5.6 2.65 5.85 2.55 5.8 2.3 5.75 2.05 5.3 1.85 5.4 1.75 5.45 1.65 5.4 1.55 5.15 1.4 5.1 1.2 5.05 1.25 4.4 1.7 4.2 Q2.8 4.45 3.2 3.3 3.6 2.1 5.0 0.85 L5.4 -0.15" fill="#ffcc99" fill-rule="evenodd" stroke="none"/>
    <path d="M5.4 -0.15 L5.0 0.85 Q3.6 2.1 3.2 3.3 2.8 4.45 1.7 4.2 L1.25 4.4 1.2 5.05 1.4 5.1 1.55 5.15 1.65 5.4 1.75 5.45 1.85 5.4 2.05 5.3 2.3 5.75 2.55 5.8 2.65 5.85 2.85 5.6 3.8 6.05 3.9 6.0 3.95 5.95 Q4.0 5.85 4.1 5.85 L4.55 5.8 Q4.5 4.05 8.35 3.3 L8.05 0.7 Q7.75 -0.55 7.15 -0.4" fill="none" stroke="#000000" stroke-linecap="round" stroke-linejoin="round" stroke-width="0.05"/>
  </g>
</svg>
