<?xml version="1.0" encoding="UTF-8" standalone="no"?>
<svg xmlns:xlink="http://www.w3.org/1999/xlink" height="14.9px" width="6.7px" xmlns="http://www.w3.org/2000/svg">
  <g transform="matrix(1.0, 0.0, 0.0, 1.0, 0.0, 0.0)">
    <path d="M3.05 0.9 L3.15 0.95 4.25 2.1 Q4.7 2.8 4.75 4.15 4.8 5.45 4.2 7.65 3.55 9.8 3.65 14.8 L2.7 14.85 2.1 14.95 1.0 14.8 0.65 7.25 0.2 3.5 0.15 0.05 1.95 0.25 Q2.55 0.5 3.05 0.9" fill="#ffcc99" fill-rule="evenodd" stroke="none"/>
    <path d="M3.05 0.9 L3.15 0.95 4.25 2.1 Q4.7 2.8 4.75 4.15 4.8 5.45 4.2 7.65 3.55 9.8 3.65 14.8 M1.0 14.8 L0.65 7.25 0.2 3.5 0.15 0.05" fill="none" stroke="#000000" stroke-linecap="round" stroke-linejoin="round" stroke-width="0.05"/>
    <path d="M5.25 11.7 L5.55 12.1 4.9 13.65 Q1.85 15.4 -1.1 13.6 -1.4 12.05 0.0 11.1 L0.8 11.05 -0.2 12.3 4.35 12.2 4.3 11.5 Q3.6 10.95 4.45 11.25 L5.25 11.7" fill="#cccccc" fill-rule="evenodd" stroke="none"/>
    <path d="M5.25 11.7 L5.55 12.1 4.9 13.65 Q1.85 15.4 -1.1 13.6 -1.4 12.05 0.0 11.1 L0.8 11.05 -0.2 12.3 4.35 12.2 4.3 11.5 Q3.6 10.95 4.45 11.25 L5.25 11.7 Z" fill="none" stroke="#000000" stroke-linecap="round" stroke-linejoin="round" stroke-width="0.05"/>
  </g>
</svg>
