<?xml version="1.0" encoding="UTF-8" standalone="no"?>
<svg xmlns:xlink="http://www.w3.org/1999/xlink" height="20.5px" width="10.65px" xmlns="http://www.w3.org/2000/svg">
  <g transform="matrix(1.0, 0.0, 0.0, 1.0, 0.0, 0.0)">
    <path d="M0.6 1.4 L0.55 1.3 0.75 0.25 1.65 -0.4 3.5 -0.9 5.45 -1.25 7.25 -1.05 8.9 -0.5 9.8 0.35 10.05 1.15 9.6 1.95 8.45 2.95 7.1 3.8 5.25 4.2 3.85 3.95 Q3.25 3.85 2.75 3.55 L1.55 2.55 0.6 1.4 M8.85 13.95 L9.75 15.5 10.2 16.65 10.35 17.5 10.4 18.15 9.5 18.45 8.6 18.85 7.4 19.2 5.85 19.25 4.5 19.2 4.7 17.65 5.0 16.25 5.6 14.55 Q7.3 14.55 8.85 13.95 M3.35 18.6 L2.85 18.0 2.4 17.4 2.1 16.95 1.9 16.85 1.7 16.7 1.65 16.45 1.75 16.0 Q1.75 15.7 1.9 15.35 L2.1 14.6 2.2 13.95 2.45 14.05 Q2.6 16.3 3.35 18.6 M8.75 0.15 L8.35 0.6 7.8 1.15 7.1 1.6 6.4 1.95 7.1 1.6 7.8 1.15 8.35 0.6 8.75 0.15 M9.3 1.05 L8.75 1.6 9.3 1.05" fill="#81814f" fill-rule="evenodd" stroke="none"/>
    <path d="M0.6 1.4 L1.55 2.55 2.75 3.55 Q3.25 3.85 3.85 3.95 L5.25 4.2 7.1 3.8 8.45 2.95 9.6 1.95 10.05 1.15 10.25 1.8 10.3 2.2 10.25 2.45 10.2 3.2 10.2 3.95 10.2 4.75 10.15 5.55 10.05 5.9 9.8 6.55 9.6 7.2 9.35 7.85 9.15 8.5 9.0 9.25 8.95 9.75 8.9 10.05 8.85 10.8 8.85 11.1 8.8 11.9 8.75 12.35 7.1 12.75 5.5 12.9 3.95 12.8 2.35 12.5 Q2.6 11.5 2.35 10.7 L1.85 9.0 1.5 7.85 Q0.7 7.9 0.15 7.0 -0.4 6.05 -0.15 5.4 L0.3 3.9 0.5 2.1 0.55 1.35 0.6 1.4 M4.5 19.2 L3.85 18.95 3.35 18.6 Q2.6 16.3 2.45 14.05 L5.6 14.55 5.0 16.25 4.7 17.65 4.5 19.2 M5.1 7.9 L5.85 8.05 Q6.75 8.05 7.5 7.5 8.25 6.85 8.15 5.9 L7.7 4.9 8.15 5.9 Q8.25 6.85 7.5 7.5 6.75 8.05 5.85 8.05 L5.1 7.9 M6.1 9.05 L6.3 10.55 Q6.4 11.4 6.1 11.9 6.4 11.4 6.3 10.55 L6.1 9.05 M4.3 5.3 L2.9 5.4 4.3 5.3" fill="url(#gradient0)" fill-rule="evenodd" stroke="none"/>
    <path d="M8.75 12.35 L8.75 13.1 8.85 13.85 8.85 13.95 Q7.3 14.55 5.6 14.55 L2.45 14.05 2.2 13.95 2.3 13.15 2.35 12.9 2.35 12.5 3.95 12.8 5.5 12.9 7.1 12.75 8.75 12.35" fill="#735f31" fill-rule="evenodd" stroke="none"/>
    <path d="M10.05 1.15 L9.8 0.35 8.9 -0.5 7.25 -1.05 5.45 -1.25 3.5 -0.9 1.65 -0.4 0.75 0.25 0.55 1.3 0.6 1.4 1.55 2.55 2.75 3.55 Q3.25 3.85 3.85 3.95 L5.25 4.2 7.1 3.8 8.45 2.95 9.6 1.95 10.05 1.15 10.25 1.8 10.3 2.2 10.25 2.45 10.2 3.2 10.2 3.95 10.2 4.75 10.15 5.55 10.05 5.9 9.8 6.55 9.6 7.2 9.35 7.85 9.15 8.5 9.0 9.25 8.95 9.75 8.9 10.05 8.85 10.8 8.85 11.1 8.8 11.9 8.75 12.35 8.75 13.1 8.85 13.85 8.85 13.95 9.75 15.5 10.2 16.65 10.35 17.5 10.4 18.15 9.5 18.45 8.6 18.85 7.4 19.2 5.85 19.25 4.5 19.2 3.85 18.95 3.35 18.6 Q2.6 16.3 2.45 14.05 L5.6 14.55 5.0 16.25 4.7 17.65 4.5 19.2 M1.7 16.7 L1.65 16.45 1.75 16.0 Q1.75 15.7 1.9 15.35 L2.1 14.6 2.2 13.95 2.3 13.15 2.35 12.9 2.35 12.5 Q2.6 11.5 2.35 10.7 L1.85 9.0 1.5 7.85 Q0.7 7.9 0.15 7.0 -0.4 6.05 -0.15 5.4 L0.3 3.9 0.5 2.1 0.55 1.35 0.55 1.3 M8.75 1.6 L9.3 1.05 M6.4 1.95 L7.1 1.6 7.8 1.15 8.35 0.6 8.75 0.15 M7.7 4.9 L8.15 5.9 Q8.25 6.85 7.5 7.5 6.75 8.05 5.85 8.05 L5.1 7.9 M2.9 5.4 L4.3 5.3 M6.1 11.9 Q6.4 11.4 6.3 10.55 L6.1 9.05 M8.75 12.35 L7.1 12.75 5.5 12.9 3.95 12.8 2.35 12.5 M5.6 14.55 Q7.3 14.55 8.85 13.95 M2.2 13.95 L2.45 14.05" fill="none" stroke="#000000" stroke-linecap="round" stroke-linejoin="round" stroke-width="0.05"/>
  </g>
  <defs>
    <radialGradient cx="0" cy="0" gradientTransform="matrix(0.009, 0.0, 0.0, 0.0123, 3.0, 7.2)" gradientUnits="userSpaceOnUse" id="gradient0" r="819.2" spreadMethod="pad">
      <stop offset="0.0" stop-color="#ececec"/>
      <stop offset="1.0" stop-color="#a0a0a0"/>
    </radialGradient>
  </defs>
</svg>
