<?xml version="1.0" encoding="UTF-8" standalone="no"?>
<svg xmlns:xlink="http://www.w3.org/1999/xlink" height="19.9px" width="10.25px" xmlns="http://www.w3.org/2000/svg">
  <g transform="matrix(1.0, 0.0, 0.0, 1.0, 0.0, 0.0)">
    <path d="M6.8 -0.3 L8.8 0.25 9.1 0.4 Q9.85 0.8 10.1 1.6 L10.2 2.55 10.15 3.05 10.1 5.55 10.05 5.75 9.15 8.4 8.95 9.4 8.85 9.9 8.85 10.1 8.75 11.05 8.75 11.25 8.65 12.95 Q8.65 13.6 8.8 14.15 L8.9 14.5 9.0 14.9 9.4 16.8 9.45 17.1 9.4 17.7 9.3 17.9 9.1 18.35 8.4 19.05 7.6 19.3 6.1 19.5 4.45 19.35 4.25 19.3 3.75 19.1 3.35 18.85 3.25 18.75 2.2 17.4 2.0 17.15 1.9 17.0 1.75 16.1 1.8 15.5 2.1 14.3 2.15 14.15 2.2 13.85 2.2 13.75 2.2 13.55 2.25 13.05 2.3 12.65 2.3 12.6 2.3 12.35 2.35 11.85 2.2 10.85 2.2 10.65 1.65 8.9 1.6 8.7 1.4 8.0 1.35 8.0 0.7 7.7 0.55 7.55 0.1 6.8 Q-0.1 5.9 0.1 4.95 L0.3 4.05 0.35 3.85 0.45 2.3 0.45 1.6 Q0.5 1.15 0.5 1.5 L0.9 1.05 Q1.2 0.75 1.65 0.55 L2.75 0.15 6.5 -0.35 6.8 -0.3 M4.85 7.2 L4.6 8.25 4.65 8.25 5.0 8.25 6.0 8.2 6.6 8.1 Q7.45 7.8 7.9 7.0 L7.95 6.9 8.05 6.15 8.0 5.85 Q7.9 5.3 7.4 5.15 M1.4 8.0 L1.05 6.7 0.75 4.65 0.65 3.65 0.65 3.55 0.5 2.1 0.5 1.5 M4.55 8.7 L4.6 8.25 4.45 8.25 2.45 8.2 2.15 8.15 1.4 8.0 M6.0 9.2 Q6.55 10.2 6.25 11.35 L6.0 12.05 M2.3 12.65 L2.45 12.7 4.35 13.0 4.75 13.0 7.0 12.85 7.4 12.7 7.9 12.6 8.0 12.6 8.3 12.5 M8.8 14.15 L8.3 14.3 8.1 14.35 7.3 14.5 5.5 14.7 5.25 15.3 5.15 15.5 Q4.45 17.25 4.45 19.35 M5.5 14.7 L3.45 14.4 3.15 14.35 2.4 14.25 2.55 15.5 2.7 16.1 2.7 16.2 2.8 16.6 2.8 16.7 2.95 17.4 3.25 18.35 3.25 18.75 M2.4 14.25 L2.15 14.15 M2.4 14.25 L2.2 13.85" fill="none" stroke="#000000" stroke-linecap="round" stroke-linejoin="round" stroke-width="0.05"/>
  </g>
</svg>
