<?xml version="1.0" encoding="UTF-8" standalone="no"?>
<svg xmlns:xlink="http://www.w3.org/1999/xlink" height="20.65px" width="10.95px" xmlns="http://www.w3.org/2000/svg">
  <g transform="matrix(1.0, 0.0, 0.0, 1.0, 0.0, 0.0)">
    <path d="M0.55 1.3 L0.75 0.25 1.65 -0.4 3.5 -0.9 5.45 -1.25 7.25 -1.05 8.9 -0.5 9.8 0.35 10.05 1.15 10.25 1.8 10.3 2.2 10.25 2.45 10.25 2.7 Q7.7 3.8 4.95 3.65 2.6 3.5 0.45 2.75 L0.5 2.1 0.55 1.4 0.6 1.4 0.55 1.3 M9.1 8.7 L9.0 9.25 8.95 9.75 8.9 10.05 8.85 10.8 8.85 11.1 8.8 11.9 8.75 12.35 Q6.95 13.15 4.9 13.0 L4.8 12.9 Q4.45 12.6 3.95 12.65 L3.6 12.75 2.65 12.5 2.45 10.75 2.05 9.3 1.95 8.65 3.95 8.0 4.4 7.75 4.45 7.7 5.1 7.95 5.15 7.95 5.15 8.0 8.3 8.75 9.1 8.7 M5.1 7.95 L5.15 8.0 5.1 7.95 M4.75 12.45 L4.8 11.95 Q4.9 11.2 4.5 10.45 4.9 11.2 4.8 11.95 L4.75 12.45 M4.4 7.75 L4.45 7.7 4.4 7.75" fill="#ffcc99" fill-rule="evenodd" stroke="none"/>
    <path d="M0.45 2.75 Q2.6 3.5 4.95 3.65 7.7 3.8 10.25 2.7 L10.2 3.2 10.2 3.95 10.2 4.75 10.15 5.55 10.05 5.9 9.8 6.55 9.6 7.2 9.35 7.85 9.15 8.5 9.1 8.7 8.3 8.75 5.15 8.0 5.15 7.95 5.85 8.05 Q6.75 8.05 7.5 7.5 8.25 6.85 8.15 5.9 L7.7 4.9 8.15 5.9 Q8.25 6.85 7.5 7.5 6.75 8.05 5.85 8.05 L5.15 7.95 5.1 7.95 4.45 7.7 4.4 7.75 3.95 8.0 1.95 8.65 1.85 7.9 Q0.7 7.9 0.15 7.0 -0.4 6.05 -0.15 5.4 L0.25 4.1 0.3 3.9 0.45 2.75 M9.15 13.95 Q10.3 14.95 10.5 16.15 L10.7 18.05 Q9.7 18.45 9.05 18.75 6.75 19.65 4.95 19.35 4.25 16.45 6.75 14.55 L9.15 13.95 M3.35 18.6 L2.85 18.0 2.4 17.4 2.1 16.95 1.9 16.85 Q1.75 16.8 1.35 17.25 1.3 15.6 2.2 13.95 L2.45 14.05 Q2.6 16.3 3.35 18.6 M4.45 7.7 L3.6 7.35 3.15 7.0 1.6 5.75 1.1 5.2 0.6 4.45 0.5 4.35 0.25 4.1 0.5 4.35 0.6 4.45 1.1 5.2 1.6 5.75 3.15 7.0 3.6 7.35 4.45 7.7" fill="#0099cc" fill-rule="evenodd" stroke="none"/>
    <path d="M0.6 1.4 L0.55 1.4 0.55 1.35 0.6 1.4" fill="url(#gradient0)" fill-rule="evenodd" stroke="none"/>
    <path d="M8.75 12.35 L9.15 13.95 6.75 14.55 4.85 14.7 5.0 14.5 5.25 13.65 4.9 13.0 Q6.95 13.15 8.75 12.35 M2.2 13.95 L2.65 12.5 3.6 12.75 Q3.35 12.85 3.2 13.05 2.95 13.45 3.0 13.9 L3.2 14.4 2.45 14.05 2.2 13.95" fill="#d0d0d0" fill-rule="evenodd" stroke="none"/>
    <path d="M3.9 13.65 L4.0 13.4 3.85 13.15 3.55 13.05 Q3.4 13.05 3.3 13.2 L3.25 13.5 3.35 13.7 3.65 13.8 3.9 13.65 M3.6 12.75 L3.95 12.65 Q4.45 12.6 4.8 12.9 L4.9 13.0 5.25 13.65 5.0 14.5 4.85 14.7 4.2 14.95 Q3.75 15.0 3.4 14.65 L3.2 14.4 3.0 13.9 Q2.95 13.45 3.2 13.05 3.35 12.85 3.6 12.75" fill="#0000cc" fill-rule="evenodd" stroke="none"/>
    <path d="M3.9 13.65 L3.65 13.8 3.35 13.7 3.25 13.5 3.3 13.2 Q3.4 13.05 3.55 13.05 L3.85 13.15 4.0 13.4 3.9 13.65" fill="#ffffff" fill-rule="evenodd" stroke="none"/>
    <path d="M4.95 19.35 L3.85 18.95 3.35 18.6 Q2.6 16.3 2.45 14.05 L3.2 14.4 3.4 14.65 Q3.75 15.0 4.2 14.95 L4.85 14.7 6.75 14.55 Q4.25 16.45 4.95 19.35" fill="#13cefd" fill-rule="evenodd" stroke="none"/>
    <path d="M10.25 2.7 L10.25 2.45 10.3 2.2 10.25 1.8 10.05 1.15 9.8 0.35 8.9 -0.5 7.25 -1.05 5.45 -1.25 3.5 -0.9 1.65 -0.4 0.75 0.25 0.55 1.3 0.55 1.35 0.55 1.4 0.5 2.1 0.45 2.75 Q2.6 3.5 4.95 3.65 7.7 3.8 10.25 2.7 L10.2 3.2 10.2 3.95 10.2 4.75 10.15 5.55 10.05 5.9 9.8 6.55 9.6 7.2 9.35 7.85 9.15 8.5 9.1 8.7 9.0 9.25 8.95 9.75 8.9 10.05 8.85 10.8 8.85 11.1 8.8 11.9 8.75 12.35 9.15 13.95 Q10.3 14.95 10.5 16.15 L10.7 18.05 M4.95 19.35 L3.85 18.95 3.35 18.6 M1.35 17.25 Q1.3 15.6 2.2 13.95 L2.65 12.5 2.45 10.75 2.05 9.3 1.95 8.65 1.85 7.9 Q0.7 7.9 0.15 7.0 -0.4 6.05 -0.15 5.4 L0.25 4.1 0.3 3.9 0.45 2.75 M7.7 4.9 L8.15 5.9 Q8.25 6.85 7.5 7.5 6.75 8.05 5.85 8.05 L5.15 7.95 5.1 7.95 4.45 7.7 4.4 7.75 3.95 8.0 1.95 8.65 M5.15 8.0 L8.3 8.75 9.1 8.7 M0.25 4.1 L0.5 4.35 0.6 4.45 1.1 5.2 1.6 5.75 3.15 7.0 3.6 7.35 4.45 7.7 M4.5 10.45 Q4.9 11.2 4.8 11.95 L4.75 12.45 M5.15 8.0 L5.1 7.95 M9.15 13.95 L6.75 14.55 4.85 14.7 M4.9 13.0 Q6.95 13.15 8.75 12.35 M2.65 12.5 L3.6 12.75 M2.45 14.05 L2.2 13.95 M3.2 14.4 L2.45 14.05" fill="none" stroke="#000000" stroke-linecap="round" stroke-linejoin="round" stroke-width="0.05"/>
    <path d="M3.6 12.75 L3.95 12.65 Q4.45 12.6 4.8 12.9 L4.9 13.0 5.25 13.65 5.0 14.5 4.85 14.7 4.2 14.95 Q3.75 15.0 3.4 14.65 L3.2 14.4 3.0 13.9 Q2.95 13.45 3.2 13.05 3.35 12.85 3.6 12.75 Z" fill="none" stroke="#ffffff" stroke-linecap="round" stroke-linejoin="round" stroke-width="0.05"/>
  </g>
  <defs>
    <radialGradient cx="0" cy="0" gradientTransform="matrix(0.009, 0.0, 0.0, 0.0123, 3.0, 7.2)" gradientUnits="userSpaceOnUse" id="gradient0" r="819.2" spreadMethod="pad">
      <stop offset="0.0" stop-color="#ececec"/>
      <stop offset="1.0" stop-color="#a0a0a0"/>
    </radialGradient>
  </defs>
</svg>
