<?xml version="1.0" encoding="UTF-8" standalone="no"?>
<svg xmlns:xlink="http://www.w3.org/1999/xlink" height="6.2px" width="15.4px" xmlns="http://www.w3.org/2000/svg">
  <g transform="matrix(1.0, 0.0, 0.0, 1.0, 0.0, 0.0)">
    <path d="M3.1 4.4 L1.9 5.6 1.8 5.65 Q0.85 5.2 0.5 4.4 L0.25 3.75 -0.15 1.8 Q-0.2 0.95 0.1 0.15 L0.25 -0.45 1.65 -0.55 2.3 -0.45 2.25 0.55 2.2 0.5 2.05 0.5 1.95 0.5 1.9 0.55 1.8 0.7 1.8 0.75 1.8 1.05 1.8 1.1 1.75 1.35 1.75 1.55 1.75 1.65 1.75 1.75 1.75 1.8 1.75 1.95 1.75 2.1 1.75 2.2 1.75 2.25 1.75 2.4 1.75 2.55 1.75 2.65 1.8 2.7 1.85 2.8 2.1 2.85 2.2 2.85 2.3 3.35 Q2.45 4.0 3.1 4.4 M3.35 -0.35 L5.2 0.05 5.25 0.1 5.25 0.5 5.15 0.5 5.05 0.5 4.95 0.55 4.9 0.6 4.85 1.05 4.85 1.15 4.85 1.35 4.85 1.45 4.85 1.55 4.9 1.65 4.95 1.65 5.2 1.7 5.3 1.7 5.3 2.0 5.55 2.95 5.85 3.9 5.95 3.95 6.0 4.0 5.65 4.2 5.45 4.3 4.3 4.15 Q3.6 3.3 3.35 2.45 L3.5 2.4 3.55 2.4 3.75 2.05 3.8 1.85 3.8 1.45 3.75 1.3 3.75 1.2 3.65 1.15 3.65 1.05 3.5 0.7 3.25 0.55 3.25 0.5 3.35 -0.35 M5.9 0.25 L7.15 0.35 8.8 0.75 8.95 0.95 8.95 1.0 9.0 1.0 9.15 1.2 Q9.6 2.0 9.65 2.9 L8.5 3.25 Q7.95 3.1 7.4 3.55 L6.8 3.7 6.2 2.05 6.1 1.6 6.2 1.55 6.25 1.5 6.5 1.4 6.5 1.1 6.5 1.0 6.5 0.9 6.5 0.8 6.4 0.55 5.9 0.55 5.9 0.25 M10.75 0.55 L11.55 0.45 12.7 0.0 14.35 0.4 Q14.95 0.75 15.2 1.55 L15.25 2.15 14.85 3.4 11.6 3.7 11.0 3.1 10.65 2.9 Q11.15 2.05 10.8 1.0 L10.75 0.55 M12.9 0.55 L13.75 0.85 13.25 1.35 13.3 1.45 12.95 2.05 13.3 1.45 13.25 1.35 13.75 0.85 12.9 0.55 M2.5 1.9 L2.5 1.85 2.45 1.8 2.45 1.75 2.5 1.85 2.5 1.9" fill="#443028" fill-rule="evenodd" stroke="none"/>
    <path d="M8.95 0.95 L9.0 1.0 8.95 1.0 8.95 0.95" fill="#ffcc99" fill-rule="evenodd" stroke="none"/>
    <path d="M2.2 2.85 L2.1 2.85 1.85 2.8 1.8 2.7 1.75 2.65 1.75 2.55 1.75 2.4 1.75 2.25 1.75 2.2 1.75 2.1 1.75 1.95 1.75 1.8 1.75 1.75 1.75 1.65 1.75 1.55 1.75 1.35 1.8 1.1 1.8 1.05 1.8 0.75 1.8 0.7 1.9 0.55 1.95 0.5 2.05 0.5 2.2 0.5 2.25 0.55 2.4 0.5 2.45 0.5 2.6 0.5 2.65 0.5 2.75 0.5 2.85 0.5 3.25 0.5 3.25 0.55 3.5 0.7 3.65 1.05 3.65 1.15 3.75 1.2 3.75 1.3 3.8 1.45 3.8 1.85 3.75 2.05 3.55 2.4 3.5 2.4 3.35 2.45 3.15 2.55 3.1 2.6 3.05 2.6 2.8 2.7 2.75 2.7 2.6 2.75 2.4 2.8 2.3 2.8 2.2 2.85 M5.9 0.55 L6.4 0.55 6.5 0.8 6.5 0.9 6.5 1.0 6.5 1.1 6.5 1.4 6.25 1.5 6.2 1.55 6.1 1.6 5.8 1.65 5.7 1.65 5.6 1.65 5.5 1.65 5.4 1.65 5.3 1.7 5.2 1.7 4.95 1.65 4.9 1.65 4.85 1.55 4.85 1.45 4.85 1.35 4.85 1.15 4.85 1.05 4.9 0.6 4.95 0.55 5.05 0.5 5.15 0.5 5.25 0.5 5.45 0.55 5.55 0.55 5.65 0.55 5.75 0.55 5.85 0.55 5.9 0.55 M5.45 1.25 L5.65 1.2 5.95 1.2 6.0 1.2 6.0 1.15 5.95 0.85 5.25 0.9 5.3 1.3 5.4 1.25 5.45 1.25 M2.45 1.75 L2.55 1.6 2.6 1.6 2.7 1.6 2.75 1.7 2.8 1.75 2.85 2.0 3.2 1.95 3.15 1.0 2.9 1.05 2.8 1.1 2.7 1.1 2.35 1.15 2.25 1.2 2.2 1.2 2.15 1.4 2.15 1.95 2.5 1.9 2.5 1.85 2.45 1.75 M2.85 2.0 L2.85 2.15 2.85 2.4 Q2.5 2.4 2.5 2.05 L2.45 2.0 2.5 1.9 2.45 2.0 2.5 2.05 Q2.5 2.4 2.85 2.4 L2.85 2.15 2.85 2.0" fill="#b58820" fill-rule="evenodd" stroke="none"/>
    <path d="M2.3 -0.45 L3.35 -0.35 3.25 0.5 2.85 0.5 2.75 0.5 2.65 0.5 2.6 0.5 2.45 0.5 2.4 0.5 2.25 0.55 2.3 -0.45 M5.25 0.1 L5.9 0.25 5.9 0.55 5.85 0.55 5.75 0.55 5.65 0.55 5.55 0.55 5.45 0.55 5.25 0.5 5.25 0.1 M8.8 0.75 L10.75 0.55 10.8 1.0 Q11.15 2.05 10.65 2.9 L9.65 2.9 Q9.6 2.0 9.15 1.2 L9.0 1.0 8.95 0.95 8.8 0.75 M6.8 3.7 L6.05 3.85 5.85 3.9 5.55 2.95 5.3 2.0 5.3 1.7 5.4 1.65 5.5 1.65 5.6 1.65 5.7 1.65 5.8 1.65 6.1 1.6 6.2 2.05 6.8 3.7 M4.3 4.15 L3.1 4.4 Q2.45 4.0 2.3 3.35 L2.2 2.85 2.3 2.8 2.4 2.8 2.6 2.75 2.75 2.7 2.8 2.7 3.05 2.6 3.1 2.6 3.15 2.55 3.35 2.45 Q3.6 3.3 4.3 4.15 M5.45 1.25 L5.4 1.25 5.3 1.3 5.25 0.9 5.95 0.85 6.0 1.15 6.0 1.2 5.95 1.2 5.65 1.2 5.45 1.25 M2.5 1.9 L2.15 1.95 2.15 1.4 2.2 1.2 2.25 1.2 2.35 1.15 2.7 1.1 2.8 1.1 2.9 1.05 3.15 1.0 3.2 1.95 2.85 2.0 2.8 1.75 2.75 1.7 2.7 1.6 2.6 1.6 2.55 1.6 2.45 1.75 2.45 1.8 2.5 1.85 2.5 1.9" fill="#000000" fill-rule="evenodd" stroke="none"/>
    <path d="M3.1 4.4 L1.9 5.6 1.8 5.65 Q0.85 5.2 0.5 4.4 L0.25 3.75 -0.15 1.8 Q-0.2 0.95 0.1 0.15 L0.25 -0.45 1.65 -0.55 2.3 -0.45 3.35 -0.35 5.2 0.05 5.25 0.1 5.9 0.25 7.15 0.35 8.8 0.75 10.75 0.55 11.55 0.45 12.7 0.0 14.35 0.4 Q14.95 0.75 15.2 1.55 L15.25 2.15 14.85 3.4 11.6 3.7 11.0 3.1 10.65 2.9 9.65 2.9 8.5 3.25 Q7.95 3.1 7.4 3.55 L6.8 3.7 6.05 3.85 6.0 4.0 5.65 4.2 5.45 4.3 4.3 4.15 3.1 4.4 Q2.45 4.0 2.3 3.35 L2.2 2.85 2.1 2.85 1.85 2.8 1.8 2.7 1.75 2.65 1.75 2.55 1.75 2.4 1.75 2.25 1.75 2.2 1.75 2.1 1.75 1.95 1.75 1.8 1.75 1.75 1.75 1.65 1.75 1.55 1.75 1.35 1.8 1.1 1.8 1.05 1.8 0.75 1.8 0.7 1.9 0.55 1.95 0.5 2.05 0.5 2.2 0.5 2.25 0.55 2.3 -0.45 M12.95 2.05 L13.3 1.45 13.25 1.35 13.75 0.85 12.9 0.55 M10.65 2.9 Q11.15 2.05 10.8 1.0 L10.75 0.55 M9.0 1.0 L9.15 1.2 Q9.6 2.0 9.65 2.9 M8.95 0.95 L9.0 1.0 M8.95 1.0 L8.95 0.95 8.8 0.75 M6.1 1.6 L6.2 1.55 6.25 1.5 6.5 1.4 6.5 1.1 6.5 1.0 6.5 0.9 6.5 0.8 6.4 0.55 5.9 0.55 5.85 0.55 5.75 0.55 5.65 0.55 5.55 0.55 5.45 0.55 5.25 0.5 5.15 0.5 5.05 0.5 4.95 0.55 4.9 0.6 4.85 1.05 4.85 1.15 4.85 1.35 4.85 1.45 4.85 1.55 4.9 1.65 4.95 1.65 5.2 1.7 5.3 1.7 5.4 1.65 5.5 1.65 5.6 1.65 5.7 1.65 5.8 1.65 6.1 1.6 6.2 2.05 6.8 3.7 M5.9 0.25 L5.9 0.55 M5.25 0.5 L5.25 0.1 M5.45 1.25 L5.4 1.25 5.3 1.3 5.25 0.9 5.95 0.85 6.0 1.15 6.0 1.2 5.95 1.2 5.65 1.2 5.45 1.25 M5.3 1.7 L5.3 2.0 5.55 2.95 5.85 3.9 6.05 3.85 M5.85 3.9 L5.95 3.95 6.0 4.0 M3.35 2.45 L3.5 2.4 3.55 2.4 3.75 2.05 3.8 1.85 3.8 1.45 3.75 1.3 3.75 1.2 3.65 1.15 3.65 1.05 3.5 0.7 3.25 0.55 3.25 0.5 2.85 0.5 2.75 0.5 2.65 0.5 2.6 0.5 2.45 0.5 2.4 0.5 2.25 0.55 M2.45 1.75 L2.55 1.6 2.6 1.6 2.7 1.6 2.75 1.7 2.8 1.75 2.85 2.0 3.2 1.95 3.15 1.0 2.9 1.05 2.8 1.1 2.7 1.1 2.35 1.15 2.25 1.2 2.2 1.2 2.15 1.4 2.15 1.95 2.5 1.9 2.5 1.85 2.45 1.8 2.45 1.75 2.5 1.85 2.5 1.9 2.45 2.0 2.5 2.05 Q2.5 2.4 2.85 2.4 L2.85 2.15 2.85 2.0 M2.2 2.85 L2.3 2.8 2.4 2.8 2.6 2.75 2.75 2.7 2.8 2.7 3.05 2.6 3.1 2.6 3.15 2.55 3.35 2.45 Q3.6 3.3 4.3 4.15 M3.35 -0.35 L3.25 0.5" fill="none" stroke="#000000" stroke-linecap="round" stroke-linejoin="round" stroke-width="0.05"/>
  </g>
</svg>
