<?xml version="1.0" encoding="UTF-8" standalone="no"?>
<svg xmlns:xlink="http://www.w3.org/1999/xlink" height="4.2px" width="14.7px" xmlns="http://www.w3.org/2000/svg">
  <g transform="matrix(1.0, 0.0, 0.0, 1.0, 0.0, 0.0)">
    <path d="M14.7 0.6 L14.5 0.95 Q14.35 1.15 14.35 1.5 L14.35 1.65 14.45 1.8 Q14.65 2.15 14.4 2.4 L14.15 2.8 13.95 3.5 11.6 3.7 11.05 3.0 10.65 2.9 10.9 1.65 10.8 1.0 10.75 0.65 10.75 0.55 11.55 0.45 12.7 0.0 Q14.2 0.0 14.7 0.6 M12.95 2.05 Q13.05 1.65 13.45 1.5 L12.9 1.2 13.75 0.85 12.9 0.55 13.75 0.85 12.9 1.2 13.45 1.5 Q13.05 1.65 12.95 2.05" fill="#443028" fill-rule="evenodd" stroke="none"/>
    <path d="M13.95 3.5 L14.15 2.8 14.4 2.4 Q14.65 2.15 14.45 1.8 L14.35 1.65 14.35 1.5 Q14.35 1.15 14.5 0.95 L14.7 0.6 14.85 0.85 Q15.8 2.2 14.85 3.4 L13.95 3.5 M8.95 1.0 L8.95 0.95 9.0 1.0 8.95 1.0 M7.15 0.35 L8.25 2.6 7.6 3.45 5.5 3.95 2.35 4.15 Q1.1 4.0 0.6 2.95 L0.6 0.8 0.9 0.7 Q3.35 -0.5 7.15 0.35" fill="#ffcc99" fill-rule="evenodd" stroke="none"/>
    <path d="M10.75 0.55 L10.75 0.65 10.8 1.0 10.9 1.65 10.65 2.9 9.65 2.9 Q9.65 1.85 9.2 1.2 L9.0 1.0 9.2 1.2 Q9.65 1.85 9.65 2.9 L9.25 2.95 7.6 3.45 8.25 2.6 7.15 0.35 8.65 0.75 8.8 0.75 8.95 0.95 8.8 0.75 10.75 0.55 M9.0 1.0 L8.95 0.95 8.95 1.0 9.0 1.0 M8.95 1.0 L8.65 1.65 8.55 1.85 8.35 2.4 8.25 2.6 8.35 2.4 8.55 1.85 8.65 1.65 8.95 1.0" fill="#e6b380" fill-rule="evenodd" stroke="none"/>
    <path d="M13.95 3.5 L14.15 2.8 14.4 2.4 Q14.65 2.15 14.45 1.8 L14.35 1.65 14.35 1.5 Q14.35 1.15 14.5 0.95 L14.7 0.6 Q14.2 0.0 12.7 0.0 L11.55 0.45 10.75 0.55 10.75 0.65 10.8 1.0 10.9 1.65 10.65 2.9 11.05 3.0 11.6 3.7 13.95 3.5 14.85 3.4 Q15.8 2.2 14.85 0.85 L14.7 0.6 M12.9 0.55 L13.75 0.85 12.9 1.2 13.45 1.5 Q13.05 1.65 12.95 2.05 M9.0 1.0 L8.95 0.95 8.95 1.0 8.65 1.65 8.55 1.85 8.35 2.4 8.25 2.6 7.15 0.35 8.65 0.75 8.8 0.75 10.75 0.55 M9.0 1.0 L9.2 1.2 Q9.65 1.85 9.65 2.9 L10.65 2.9 M9.65 2.9 L9.25 2.95 7.6 3.45 5.5 3.95 2.35 4.15 Q1.1 4.0 0.6 2.95 M0.6 0.8 L0.9 0.7 Q3.35 -0.5 7.15 0.35 M8.95 0.95 L8.8 0.75 M7.6 3.45 L8.25 2.6" fill="none" stroke="#000000" stroke-linecap="round" stroke-linejoin="round" stroke-width="0.05"/>
  </g>
</svg>
