<?xml version="1.0" encoding="UTF-8" standalone="no"?>
<svg xmlns:xlink="http://www.w3.org/1999/xlink" height="10.4px" width="13.2px" xmlns="http://www.w3.org/2000/svg">
  <g transform="matrix(1.0, 0.0, 0.0, 1.0, 0.0, 0.0)">
    <path d="M8.4 0.35 L10.35 1.0 10.75 1.5 10.9 2.45 Q11.0 3.1 10.65 3.65 L8.85 4.4 8.25 4.65 8.85 2.8 8.85 2.6 8.9 2.05 Q8.9 1.2 8.4 0.35 M7.3 4.9 L6.45 5.0 4.95 5.1 5.75 3.75 5.8 3.6 7.0 1.9 7.4 1.5 7.6 2.05 7.6 3.45 7.3 4.9 M5.75 3.75 L7.6 3.45 5.75 3.75" fill="#ffcc99" fill-rule="evenodd" stroke="none"/>
    <path d="M-1.65 -1.05 L-1.65 -1.1 -1.05 -1.6 Q0.7 -2.45 2.7 -2.25 L4.75 -2.4 8.6 -2.6 Q7.75 -2.4 7.2 -1.75 L6.8 -1.35 6.7 -0.5 6.75 0.05 6.85 0.35 6.8 0.35 Q6.3 0.25 6.1 -0.05 L6.1 -0.1 5.6 -1.4 4.65 -1.35 4.55 -0.4 4.7 0.75 Q4.85 1.45 5.3 2.0 L4.7 1.9 4.4 1.7 3.2 -0.8 0.9 -0.7 Q0.2 0.9 0.85 2.45 1.15 3.1 1.85 3.6 L1.8 3.65 Q0.9 3.4 0.4 2.8 L-0.65 0.95 -0.8 0.5 -0.85 0.2 -1.0 -0.8 -1.2 -1.05 -1.65 -1.05" fill="#75614e" fill-rule="evenodd" stroke="none"/>
    <path d="M-1.65 -1.05 L-1.2 -1.05 -1.0 -0.8 -0.85 0.2 -0.8 0.5 -0.65 0.95 0.4 2.8 Q0.9 3.4 1.8 3.65 L1.85 3.6 Q1.15 3.1 0.85 2.45 0.2 0.9 0.9 -0.7 L3.2 -0.8 4.4 1.7 4.7 1.9 5.3 2.0 Q4.85 1.45 4.7 0.75 L4.55 -0.4 4.65 -1.35 5.6 -1.4 6.1 -0.1 6.1 -0.05 Q6.3 0.25 6.8 0.35 L6.85 0.35 6.75 0.05 6.7 -0.5 6.8 -1.35 7.2 -1.75 Q7.75 -2.4 8.6 -2.6 L9.8 -3.0 9.1 -1.45 8.25 0.15 8.15 0.3 7.4 1.5 7.0 1.9 5.8 3.6 5.75 3.75 4.95 5.1 3.45 7.0 2.55 7.2 2.3 7.15 1.5 6.85 Q0.6 6.5 0.45 7.35 -0.15 7.55 -0.85 7.05 L-1.1 6.4 Q-0.6 5.65 -0.95 4.8 L-1.8 2.95 Q-2.7 1.1 -2.0 -0.6 L-1.65 -1.05" fill="#330033" fill-rule="evenodd" stroke="none"/>
    <path d="M8.25 4.65 L7.3 4.9 7.6 3.45 7.6 2.05 7.4 1.5 8.15 0.3 8.4 0.35 Q8.9 1.2 8.9 2.05 L8.85 2.6 8.85 2.8 8.25 4.65" fill="#5f4936" fill-rule="evenodd" stroke="none"/>
    <path d="M8.6 -2.6 L4.75 -2.4 2.7 -2.25 Q0.7 -2.45 -1.05 -1.6 L-1.65 -1.1 -1.65 -1.05 -1.2 -1.05 -1.0 -0.8 -0.85 0.2 -0.8 0.5 -0.65 0.95 0.4 2.8 Q0.9 3.4 1.8 3.65 L1.85 3.6 Q1.15 3.1 0.85 2.45 0.2 0.9 0.9 -0.7 L3.2 -0.8 4.4 1.7 4.7 1.9 5.3 2.0 Q4.85 1.45 4.7 0.75 L4.55 -0.4 4.65 -1.35 5.6 -1.4 6.1 -0.1 6.1 -0.05 Q6.3 0.25 6.8 0.35 L6.85 0.35 6.75 0.05 6.7 -0.5 6.8 -1.35 7.2 -1.75 Q7.75 -2.4 8.6 -2.6 L9.8 -3.0 9.1 -1.45 8.25 0.15 8.4 0.35 10.35 1.0 M10.65 3.65 L8.85 4.4 8.25 4.65 7.3 4.9 6.45 5.0 4.95 5.1 3.45 7.0 2.55 7.2 2.3 7.15 1.5 6.85 Q0.6 6.5 0.45 7.35 -0.15 7.55 -0.85 7.05 L-1.1 6.4 Q-0.6 5.65 -0.95 4.8 L-1.8 2.95 Q-2.7 1.1 -2.0 -0.6 L-1.65 -1.05 M8.15 0.3 L8.25 0.15 M8.4 0.35 Q8.9 1.2 8.9 2.05 L8.85 2.6 8.85 2.8 8.25 4.65 M8.15 0.3 L8.4 0.35 M4.95 5.1 L5.75 3.75 5.8 3.6 7.0 1.9 7.4 1.5 8.15 0.3 M7.4 1.5 L7.6 2.05 7.6 3.45 7.3 4.9 M7.6 3.45 L5.75 3.75" fill="none" stroke="#000000" stroke-linecap="round" stroke-linejoin="round" stroke-width="0.05"/>
  </g>
</svg>
