<?xml version="1.0" encoding="UTF-8" standalone="no"?>
<svg xmlns:xlink="http://www.w3.org/1999/xlink" height="7.0px" width="8.3px" xmlns="http://www.w3.org/2000/svg">
  <g transform="matrix(1.0, 0.0, 0.0, 1.0, 0.0, 0.0)">
    <path d="M2.2 3.4 L3.1 2.8 3.95 2.1 4.35 1.35 5.15 -0.15 7.75 -0.5 Q9.05 2.45 7.9 5.15 L4.5 6.3 4.45 5.45 4.35 4.85 Q4.1 4.3 3.55 3.9 L3.35 3.75 2.95 3.55 2.75 3.45 2.2 3.4" fill="#3c2c22" fill-rule="evenodd" stroke="none"/>
    <path d="M2.2 3.4 L2.75 3.45 2.95 3.55 3.35 3.75 3.55 3.9 Q4.1 4.3 4.35 4.85 L4.45 5.45 4.5 6.3 2.2 6.5 Q0.8 6.5 0.15 5.2 L0.95 4.15 2.2 3.4" fill="#444444" fill-rule="evenodd" stroke="none"/>
    <path d="M4.5 6.3 L7.9 5.15 Q9.05 2.45 7.75 -0.5 L5.15 -0.15 4.35 1.35 3.95 2.1 3.1 2.8 2.2 3.4 2.75 3.45 2.95 3.55 3.35 3.75 3.55 3.9 Q4.1 4.3 4.35 4.85 L4.45 5.45 4.5 6.3 2.2 6.5 Q0.8 6.5 0.15 5.2 L0.95 4.15 2.2 3.4" fill="none" stroke="#000000" stroke-linecap="round" stroke-linejoin="round" stroke-width="0.05"/>
  </g>
</svg>
