<?xml version="1.0" encoding="UTF-8" standalone="no"?>
<svg xmlns:xlink="http://www.w3.org/1999/xlink" height="19.65px" width="12.25px" xmlns="http://www.w3.org/2000/svg">
  <g transform="matrix(1.0, 0.0, 0.0, 1.0, 0.0, 0.0)">
    <path d="M9.7 14.55 L9.2 14.65 5.9 14.65 5.5 14.6 5.2 14.55 4.85 14.5 3.05 14.25 1.85 14.05 1.9 12.85 4.25 13.0 6.65 13.4 9.2 13.4 9.7 14.55" fill="#735f31" fill-rule="evenodd" stroke="none"/>
    <path d="M5.2 14.55 L5.5 14.6 5.9 14.65 9.2 14.65 9.7 14.55 9.9 15.25 Q10.25 16.35 9.85 17.3 L9.35 18.45 Q7.75 19.1 5.75 19.2 L4.95 19.15 4.65 18.7 4.6 18.5 Q4.5 17.35 4.8 16.35 L4.85 16.05 Q4.95 15.25 5.2 14.55" fill="#81814f" fill-rule="evenodd" stroke="none"/>
    <path d="M1.65 1.1 L2.85 0.65 6.75 0.5 9.65 0.6 10.35 1.15 11.1 2.25 Q11.4 2.9 11.5 4.0 11.55 5.05 11.2 6.6 L10.4 8.95 Q10.0 9.75 9.3 13.05 L9.2 13.4 6.65 13.4 4.25 13.0 1.9 12.85 Q1.0 11.0 0.6 9.55 L-0.1 6.85 -0.5 6.15 Q-0.8 5.5 -0.7 4.6 L0.0 1.9 1.65 1.1 2.3 1.95 1.65 1.1 M7.85 1.1 L7.2 1.25 6.3 1.5 Q5.05 1.75 4.7 2.6 5.05 1.75 6.3 1.5 L7.2 1.25 7.85 1.1 M7.2 5.95 L6.45 6.05 5.55 6.2 Q4.6 6.4 4.1 5.75 4.6 6.4 5.55 6.2 L6.45 6.05 7.2 5.95 M1.5 6.8 L-0.1 6.85 1.5 6.8 M0.65 2.35 L0.45 3.15 0.3 3.65 Q0.15 3.95 0.25 4.3 L0.45 5.75 0.25 4.3 Q0.15 3.95 0.3 3.65 L0.45 3.15 0.65 2.35 M5.55 8.9 L5.3 8.5 4.8 8.25 3.55 7.9 2.85 7.8 2.1 7.9 Q1.45 8.05 0.9 8.65 1.45 8.05 2.1 7.9 L2.85 7.8 3.55 7.9 4.8 8.25 5.3 8.5 5.55 8.9 6.15 9.9 6.3 10.15 6.45 11.3 6.3 10.15 6.15 9.9 5.55 8.9 5.55 9.15 5.55 11.3 5.55 9.15 5.55 8.9 M8.4 6.65 L6.95 7.1 5.6 7.2 4.45 7.1 Q3.95 7.0 3.85 6.45 3.95 7.0 4.45 7.1 L5.6 7.2 6.95 7.1 8.4 6.65 M0.9 7.9 L0.9 8.65 1.0 9.05 1.25 10.05 1.9 11.65 1.25 10.05 1.0 9.05 0.9 8.65 0.9 7.9 M3.2 10.15 L3.0 8.9 3.2 10.15 4.6 9.85 3.2 10.15 3.1 10.15 2.25 10.25 3.1 10.15 3.2 10.15 M5.2 14.55 Q4.95 15.25 4.85 16.05 L4.8 16.35 Q4.5 17.35 4.6 18.5 L4.65 18.7 4.95 19.15 Q1.85 18.8 1.75 16.35 L1.8 15.0 1.85 14.05 3.05 14.25 4.85 14.5 5.2 14.55 M2.5 15.15 L2.6 15.8 2.65 16.15 Q2.85 17.3 3.55 18.2 2.85 17.3 2.65 16.15 L2.6 15.8 2.5 15.15" fill="url(#gradient0)" fill-rule="evenodd" stroke="none"/>
    <path d="M9.3 13.05 Q10.0 9.75 10.4 8.95 L11.2 6.6 Q11.55 5.05 11.5 4.0 11.4 2.9 11.1 2.25 L10.35 1.15 9.65 0.6 6.75 0.5 2.85 0.65 1.65 1.1 0.0 1.9 -0.7 4.6 Q-0.8 5.5 -0.5 6.15 L-0.1 6.85 0.6 9.55 Q1.0 11.0 1.9 12.85 L4.25 13.0 6.65 13.4 9.2 13.4" fill="none" stroke="#000000" stroke-linecap="round" stroke-linejoin="round" stroke-width="0.05"/>
    <path d="M4.1 5.75 Q4.6 6.4 5.55 6.2 L6.45 6.05 7.2 5.95 M0.45 5.75 L0.25 4.3 Q0.15 3.95 0.3 3.65 L0.45 3.15 0.65 2.35 M5.55 8.9 L6.15 9.9 6.3 10.15 6.45 11.3 M1.9 11.65 L1.25 10.05 1.0 9.05 0.9 8.65 0.9 7.9 M3.55 18.2 Q2.85 17.3 2.65 16.15 L2.6 15.8 2.5 15.15" fill="none" stroke="#ffffff" stroke-linecap="round" stroke-linejoin="round" stroke-width="0.05"/>
    <path d="M1.65 1.1 L2.3 1.95 M4.7 2.6 Q5.05 1.75 6.3 1.5 L7.2 1.25 7.85 1.1 M-0.1 6.85 L1.5 6.8 M3.85 6.45 Q3.95 7.0 4.45 7.1 L5.6 7.2 6.95 7.1 8.4 6.65 M0.9 8.65 Q1.45 8.05 2.1 7.9 L2.85 7.8 3.55 7.9 4.8 8.25 5.3 8.5 5.55 8.9 5.55 9.15 5.55 11.3 M4.6 9.85 L3.2 10.15 3.1 10.15 2.25 10.25 M3.0 8.9 L3.2 10.15 M9.7 14.55 L9.2 14.65 5.9 14.65 5.5 14.6 5.2 14.55 Q4.95 15.25 4.85 16.05 L4.8 16.35 Q4.5 17.35 4.6 18.5 L4.65 18.7 4.95 19.15 5.75 19.2 Q7.75 19.1 9.35 18.45 L9.85 17.3 Q10.25 16.35 9.9 15.25 L9.7 14.55 9.2 13.4 9.3 13.05 M1.9 12.85 L1.85 14.05 3.05 14.25 4.85 14.5 5.2 14.55 M1.85 14.05 L1.8 15.0 1.75 16.35 Q1.85 18.8 4.95 19.15" fill="none" stroke="#000000" stroke-linecap="round" stroke-linejoin="round" stroke-width="0.05"/>
    <path d="M8.3 1.2 L8.75 0.65 8.3 1.2 M4.75 3.45 L6.1 3.25 Q8.15 2.65 9.55 1.45 8.15 2.65 6.1 3.25 L4.75 3.45 M0.0 1.2 L1.15 0.4 Q4.05 -0.65 7.2 -0.4 L9.45 0.2 Q10.8 0.6 10.65 1.9 8.6 3.6 5.75 4.4 3.6 4.9 1.8 3.95 L0.3 2.8 -0.35 1.9 0.0 1.2 0.25 1.75 0.75 1.95 0.25 1.75 0.0 1.2" fill="#81814f" fill-rule="evenodd" stroke="none"/>
    <path d="M9.55 1.45 Q8.15 2.65 6.1 3.25 L4.75 3.45 M8.75 0.65 L8.3 1.2 M0.0 1.2 L-0.35 1.9 0.3 2.8 1.8 3.95 Q3.6 4.9 5.75 4.4 8.6 3.6 10.65 1.9 10.8 0.6 9.45 0.2 L7.2 -0.4 Q4.05 -0.65 1.15 0.4 L0.0 1.2 0.25 1.75 0.75 1.95" fill="none" stroke="#000000" stroke-linecap="round" stroke-linejoin="round" stroke-width="0.05"/>
  </g>
  <defs>
    <radialGradient cx="0" cy="0" gradientTransform="matrix(0.0105, 0.0, 0.0, 0.0123, 2.6, 7.35)" gradientUnits="userSpaceOnUse" id="gradient0" r="819.2" spreadMethod="pad">
      <stop offset="0.0" stop-color="#ececec"/>
      <stop offset="1.0" stop-color="#a0a0a0"/>
    </radialGradient>
  </defs>
</svg>
