<?xml version="1.0" encoding="UTF-8" standalone="no"?>
<svg xmlns:xlink="http://www.w3.org/1999/xlink" height="12.4px" width="9.8px" xmlns="http://www.w3.org/2000/svg">
  <g transform="matrix(1.0, 0.0, 0.0, 1.0, 0.0, 0.0)">
    <path d="M6.8 4.75 L7.45 4.3 Q8.4 4.45 8.45 5.5 L8.45 5.85 8.45 5.5 Q8.4 4.45 7.45 4.3 L6.8 4.75 M1.0 8.8 L0.95 8.1 -0.15 7.55 Q0.1 6.15 0.9 5.1 L0.85 4.25 0.85 3.85 Q0.75 3.15 0.95 2.6 L1.25 1.45 Q1.3 0.85 2.95 0.3 L6.15 0.15 7.1 0.55 8.3 1.35 Q9.6 2.6 9.65 4.4 9.65 5.6 8.45 5.85 L8.15 6.55 7.7 6.9 7.6 6.95 7.55 7.05 7.6 6.95 7.7 6.9 8.15 6.55 8.2 6.7 8.4 9.7 5.55 12.0 Q4.7 12.75 4.4 12.1 3.95 11.65 3.85 11.1 6.3 10.6 6.8 10.2 L7.2 9.4 7.3 8.3 7.55 7.05 Q6.65 7.05 6.0 7.95 5.55 8.55 4.7 8.95 L3.6 8.8 3.25 8.6 1.0 8.8 M2.55 5.1 L2.45 5.15 2.4 5.2 2.3 5.3 2.4 5.55 2.45 5.75 2.55 5.85 2.85 6.1 3.0 6.15 Q4.05 6.2 4.1 5.15 L4.0 4.95 2.55 5.1 M5.0 4.95 L4.0 4.95 5.0 4.95 M1.8 5.25 L2.45 5.15 1.8 5.25 M1.9 9.75 L1.75 9.65 Q2.45 8.95 3.15 9.25 L3.55 9.65 Q3.65 9.8 3.05 9.85 L1.9 9.75" fill="#ffcc99" fill-rule="evenodd" stroke="none"/>
    <path d="M2.45 5.15 L2.5 5.15 2.55 5.1 4.0 4.95 4.1 5.15 Q4.05 6.2 3.0 6.15 L2.85 6.1 2.55 5.85 2.45 5.75 2.4 5.55 2.3 5.3 2.4 5.2 2.45 5.15" fill="#000000" fill-rule="evenodd" stroke="none"/>
    <path d="M2.55 5.1 L2.5 5.15 2.45 5.15 2.55 5.1" fill="#663300" fill-rule="evenodd" stroke="none"/>
    <path d="M1.0 8.8 L3.25 8.6 3.6 8.8 4.7 8.95 Q5.55 8.55 6.0 7.95 6.65 7.05 7.55 7.05 L7.3 8.3 7.2 9.4 6.8 10.2 Q6.3 10.6 3.85 11.1 L2.95 11.35 Q2.25 11.45 1.65 10.8 0.95 10.15 1.0 9.3 L1.0 8.8 M1.9 9.75 L3.05 9.85 Q3.65 9.8 3.55 9.65 L3.15 9.25 Q2.45 8.95 1.75 9.65 L1.9 9.75" fill="#d9bd96" fill-rule="evenodd" stroke="none"/>
    <path d="M8.45 5.85 L8.45 5.5 Q8.4 4.45 7.45 4.3 L6.8 4.75 M8.15 6.55 L8.45 5.85 Q9.65 5.6 9.65 4.4 9.6 2.6 8.3 1.35 L7.1 0.55 6.15 0.15 2.95 0.3 Q1.3 0.85 1.25 1.45 L0.95 2.6 Q0.75 3.15 0.85 3.85 L0.85 4.25 0.9 5.1 Q0.1 6.15 -0.15 7.55 L0.95 8.1 1.0 8.8 1.0 9.3 Q0.95 10.15 1.65 10.8 2.25 11.45 2.95 11.35 L3.85 11.1 Q6.3 10.6 6.8 10.2 L7.2 9.4 7.3 8.3 7.55 7.05 7.6 6.95 7.7 6.9 8.15 6.55 8.2 6.7 8.4 9.7 M4.4 12.1 Q3.95 11.65 3.85 11.1 M2.45 5.15 L2.5 5.15 2.55 5.1 2.45 5.15 2.4 5.2 2.3 5.3 2.4 5.55 2.45 5.75 2.55 5.85 2.85 6.1 3.0 6.15 Q4.05 6.2 4.1 5.15 L4.0 4.95 2.55 5.1 M2.45 5.15 L1.8 5.25 M4.0 4.95 L5.0 4.95" fill="none" stroke="#000000" stroke-linecap="round" stroke-linejoin="round" stroke-width="0.05"/>
    <path d="M1.0 8.8 L3.25 8.6 3.6 8.8 4.7 8.95 Q5.55 8.55 6.0 7.95 6.65 7.05 7.55 7.05 M1.9 9.75 L3.05 9.85 Q3.65 9.8 3.55 9.65 L3.15 9.25 Q2.45 8.95 1.75 9.65 L1.9 9.75 Z" fill="none" stroke="#75614e" stroke-linecap="round" stroke-linejoin="round" stroke-width="0.05"/>
  </g>
</svg>
