<?xml version="1.0" encoding="UTF-8" standalone="no"?>
<svg xmlns:xlink="http://www.w3.org/1999/xlink" height="8.55px" width="9.2px" xmlns="http://www.w3.org/2000/svg">
  <g transform="matrix(1.0, 0.0, 0.0, 1.0, 0.0, 0.0)">
    <path d="M6.5 4.7 L6.2 4.65 Q6.4 3.05 5.3 2.1 4.45 1.5 3.4 2.1 2.35 2.65 1.8 2.45 L1.15 2.15 0.8 2.8 Q0.5 1.7 1.25 0.75 2.0 0.25 2.85 -0.15 L6.3 -0.4 7.05 -0.3 Q7.75 -0.15 8.55 0.8 L8.7 0.95 9.2 1.5 9.2 1.8 Q9.95 2.75 9.9 4.1 9.9 5.1 9.4 6.0 L8.9 7.25 8.85 7.4 Q8.6 7.0 8.5 7.5 L8.3 8.1 8.2 6.1 8.45 5.6 8.25 5.0 8.0 4.65 7.85 4.55 6.6 4.7 6.5 4.7 M7.4 4.1 L7.2 3.7 7.15 3.6 7.1 3.85 7.4 4.1 7.55 4.4 7.65 4.35 7.9 3.85 7.95 3.9 8.05 4.1 8.4 3.7 8.05 4.1 7.95 3.9 7.9 3.85 7.65 4.35 7.55 4.4 7.4 4.1 7.1 3.85 7.15 3.6 7.2 3.7 7.4 4.1" fill="#5f4936" fill-rule="evenodd" stroke="none"/>
    <path d="M6.5 4.7 L6.2 4.65 Q6.4 3.05 5.3 2.1 4.45 1.5 3.4 2.1 2.35 2.65 1.8 2.45 L1.15 2.15 0.8 2.8 Q0.5 1.7 1.25 0.75 2.0 0.25 2.85 -0.15 L6.3 -0.4 7.05 -0.3 Q7.75 -0.15 8.55 0.8 L8.7 0.95 9.2 1.5 9.2 1.8 Q9.95 2.75 9.9 4.1 9.9 5.1 9.4 6.0 L8.9 7.25 8.85 7.4 Q8.6 7.0 8.5 7.5 L8.3 8.1 8.2 6.1 8.45 5.6 8.25 5.0 8.0 4.65 7.85 4.55 6.6 4.7 6.5 4.7" fill="none" stroke="#000000" stroke-linecap="round" stroke-linejoin="round" stroke-width="0.05"/>
    <path d="M6.5 4.7 L7.15 4.95 6.5 5.25 6.6 5.3 6.7 5.3 7.05 5.3 6.95 5.35 6.7 5.3 M8.4 3.7 L8.05 4.1 7.95 3.9 7.9 3.85 7.65 4.35 7.55 4.4 7.4 4.1 7.1 3.85 7.15 3.6 7.2 3.7 7.4 4.1" fill="none" stroke="#75614e" stroke-linecap="round" stroke-linejoin="round" stroke-width="0.05"/>
  </g>
</svg>
