<?xml version="1.0" encoding="UTF-8" standalone="no"?>
<svg xmlns:xlink="http://www.w3.org/1999/xlink" height="6.95px" width="8.3px" xmlns="http://www.w3.org/2000/svg">
  <g transform="matrix(1.0, 0.0, 0.0, 1.0, 0.0, 0.0)">
    <path d="M5.15 -0.15 L6.25 -0.3 6.45 0.45 Q6.7 1.25 6.6 2.1 L7.1 2.05 Q7.9 2.1 8.45 2.85 L8.2 4.05 7.9 5.15 7.4 5.4 6.1 5.95 4.8 6.25 2.9 6.45 1.55 6.45 Q0.6 6.2 0.15 5.2 L1.4 3.9 3.1 2.8 4.4 1.35 5.15 -0.15 M1.4 3.9 L2.0 4.45 3.5 4.4 5.35 3.7 Q6.15 3.3 6.5 2.45 L6.6 2.1 6.5 2.45 Q6.15 3.3 5.35 3.7 5.7 3.75 6.05 3.95 L7.1 4.6 7.4 5.4 7.1 4.6 6.05 3.95 Q5.7 3.75 5.35 3.7 L3.5 4.4 2.0 4.45 1.4 3.9" fill="#5d3e29" fill-rule="evenodd" stroke="none"/>
    <path d="M6.25 -0.3 L7.75 -0.5 8.15 1.05 8.45 2.85 Q7.9 2.1 7.1 2.05 L6.6 2.1 Q6.7 1.25 6.45 0.45 L6.25 -0.3" fill="#492e1e" fill-rule="evenodd" stroke="none"/>
    <path d="M7.75 -0.5 L8.15 1.05 8.45 2.85 8.2 4.05 7.9 5.15 7.4 5.4 6.1 5.95 4.8 6.25 2.9 6.45 1.55 6.45 Q0.6 6.2 0.15 5.2 L1.4 3.9 3.1 2.8 4.4 1.35 5.15 -0.15" fill="none" stroke="#000000" stroke-linecap="round" stroke-linejoin="round" stroke-width="0.05"/>
    <path d="M6.6 2.1 Q6.7 1.25 6.45 0.45 L6.25 -0.3 M8.45 2.85 Q7.9 2.1 7.1 2.05 L6.6 2.1 6.5 2.45 Q6.15 3.3 5.35 3.7 5.7 3.75 6.05 3.95 L7.1 4.6 7.4 5.4 M5.35 3.7 L3.5 4.4 2.0 4.45 1.4 3.9" fill="none" stroke="#000000" stroke-linecap="round" stroke-linejoin="round" stroke-width="0.05"/>
  </g>
</svg>
