<?xml version="1.0" encoding="UTF-8" standalone="no"?>
<svg xmlns:xlink="http://www.w3.org/1999/xlink" height="15.1px" width="7.8px" xmlns="http://www.w3.org/2000/svg">
  <g transform="matrix(1.0, 0.0, 0.0, 1.0, 0.0, 0.0)">
    <path d="M-1.05 2.7 L-1.15 1.3 Q-1.25 0.35 -0.95 -0.3 L0.05 -0.55 0.25 -0.5 1.2 -0.2 1.35 1.05 0.75 1.8 Q0.2 1.95 -0.45 2.4 L-1.05 2.7 -0.45 2.4 Q0.2 1.95 0.75 1.8 L1.35 1.05 1.2 -0.2 1.95 0.05 2.5 0.35 3.25 0.55 Q3.6 0.7 3.4 1.1 L2.4 2.75 2.1 3.2 1.1 3.3 0.3 3.55 2.1 3.55 2.8 2.85 4.6 2.9 4.7 3.9 4.75 4.5 3.95 3.6 2.4 3.8 1.75 4.55 1.8 4.65 Q2.05 5.35 1.4 5.9 L1.4 6.05 2.2 6.6 1.95 8.2 Q1.65 8.85 1.75 9.55 L1.95 10.75 2.0 12.15 Q1.9 13.0 2.55 14.55 L0.75 14.3 0.9 13.25 1.0 11.35 0.85 9.4 0.3 6.15 -0.15 4.05 -0.3 3.5 -0.95 2.95 -1.05 2.7 M4.05 1.7 L4.4 2.3 3.25 2.15 3.95 1.45 4.05 1.7 M0.75 1.8 L0.85 2.5 1.1 3.3 0.85 2.5 0.75 1.8 M2.65 1.2 L1.35 1.05 2.65 1.2 M0.3 3.55 L-0.3 3.5 0.3 3.55" fill="#5d3e29" fill-rule="evenodd" stroke="none"/>
    <path d="M3.25 0.55 L4.05 0.95 Q5.25 0.8 6.25 0.1 L5.65 0.75 Q5.0 1.5 4.05 1.7 L3.95 1.45 4.05 0.95 3.95 1.45 3.25 2.15 4.4 2.3 Q5.45 2.55 6.6 2.0 L6.2 2.4 Q5.5 3.0 4.6 2.9 L2.8 2.85 2.1 3.55 0.3 3.55 1.1 3.3 2.1 3.2 2.4 2.75 3.4 1.1 Q3.6 0.7 3.25 0.55 M4.75 4.5 L4.5 5.5 4.25 6.85 4.1 7.95 4.0 9.85 3.95 10.9 3.9 12.6 3.9 14.3 2.55 14.55 Q1.9 13.0 2.0 12.15 L1.95 10.75 1.75 9.55 Q1.65 8.85 1.95 8.2 L2.2 6.6 1.4 6.05 1.4 5.9 Q2.05 5.35 1.8 4.65 L1.75 4.55 2.4 3.8 3.95 3.6 4.75 4.5 M3.25 2.15 L2.8 2.85 3.25 2.15 M3.35 8.3 L3.45 7.4 3.8 5.75 3.45 7.4 3.35 8.3" fill="#492e1e" fill-rule="evenodd" stroke="none"/>
    <path d="M1.2 -0.2 L0.25 -0.5 0.05 -0.55 -0.95 -0.3 Q-1.25 0.35 -1.15 1.3 L-1.05 2.7 -0.95 2.95 -0.3 3.5 0.3 3.55 2.1 3.55 2.8 2.85 3.25 2.15 3.95 1.45 4.05 0.95 3.25 0.55 2.5 0.35 1.95 0.05 1.2 -0.2" fill="none" stroke="#000000" stroke-linecap="round" stroke-linejoin="round" stroke-width="0.05"/>
    <path d="M-1.05 2.7 L-0.45 2.4 Q0.2 1.95 0.75 1.8 L1.35 1.05 1.2 -0.2 M4.05 0.95 Q5.25 0.8 6.25 0.1 L5.65 0.75 Q5.0 1.5 4.05 1.7 L4.4 2.3 Q5.45 2.55 6.6 2.0 L6.2 2.4 Q5.5 3.0 4.6 2.9 L4.7 3.9 4.75 4.5 4.5 5.5 4.25 6.85 4.1 7.95 4.0 9.85 3.95 10.9 3.9 12.6 3.9 14.3 M0.75 14.3 L0.9 13.25 1.0 11.35 0.85 9.4 0.3 6.15 -0.15 4.05 -0.3 3.5 M3.95 1.45 L4.05 1.7 M3.25 0.55 Q3.6 0.7 3.4 1.1 L2.4 2.75 2.1 3.2 1.1 3.3 0.3 3.55 M2.8 2.85 L4.6 2.9 M4.4 2.3 L3.25 2.15 M1.1 3.3 L0.85 2.5 0.75 1.8 M2.55 14.55 Q1.9 13.0 2.0 12.15 L1.95 10.75 1.75 9.55 Q1.65 8.85 1.95 8.2 L2.2 6.6 1.4 6.05 1.4 5.9 Q2.05 5.35 1.8 4.65 L1.75 4.55 2.4 3.8 3.95 3.6 4.75 4.5 M1.35 1.05 L2.65 1.2 M3.8 5.75 L3.45 7.4 3.35 8.3" fill="none" stroke="#000000" stroke-linecap="round" stroke-linejoin="round" stroke-width="0.05"/>
  </g>
</svg>
