<?xml version="1.0" encoding="UTF-8" standalone="no"?>
<svg xmlns:xlink="http://www.w3.org/1999/xlink" height="12.25px" width="9.6px" xmlns="http://www.w3.org/2000/svg">
  <g transform="matrix(1.0, 0.0, 0.0, 1.0, 0.0, 0.0)">
    <path d="M8.1 6.6 L8.15 6.55 8.2 6.7 8.1 6.6" fill="#ffcc99" fill-rule="evenodd" stroke="none"/>
    <path d="M6.8 4.75 L7.4 4.35 6.8 4.75 M7.4 4.35 L7.45 4.3 Q8.4 4.45 8.45 5.5 L8.45 5.85 8.15 6.55 8.1 6.6 7.7 6.9 7.6 6.95 Q7.3 7.6 7.3 8.3 L7.1 9.4 6.4 10.2 4.65 10.9 6.4 10.2 7.1 9.4 7.3 8.3 Q7.3 7.6 7.6 6.95 L7.7 6.9 8.1 6.6 8.2 6.7 8.65 11.35 8.15 11.8 4.85 11.95 Q4.35 11.45 4.65 10.9 L2.85 11.2 2.0 11.0 Q1.1 10.05 1.0 8.7 L0.95 8.1 0.0 7.45 0.9 5.1 0.85 3.85 Q0.75 3.15 1.05 2.6 L1.35 1.95 2.05 2.7 2.85 2.55 Q5.2 1.65 7.05 3.0 L7.4 4.35 M3.35 3.35 L3.1 3.8 2.65 4.1 2.5 4.25 Q2.4 4.55 2.45 5.15 2.4 4.55 2.5 4.25 L2.65 4.1 3.1 3.8 3.35 3.35 M1.8 5.25 L2.45 5.15 2.55 5.1 2.45 5.15 1.8 5.25 M3.25 5.05 L2.55 5.1 2.4 5.5 Q2.45 5.85 2.85 6.1 L3.0 6.15 Q4.05 6.2 4.1 5.15 L4.0 4.95 4.05 4.95 5.0 4.95 4.05 4.95 4.0 4.95 3.25 5.05 3.2 4.4 3.2 4.35 3.6 4.2 Q4.15 3.95 4.3 3.4 4.15 3.95 3.6 4.2 L3.2 4.35 3.2 4.4 3.25 5.05 M5.0 3.7 L4.55 4.15 4.15 4.35 4.1 4.45 4.05 4.95 4.1 4.45 4.15 4.35 4.55 4.15 5.0 3.7" fill="#6f3a15" fill-rule="evenodd" stroke="none"/>
    <path d="M4.0 4.95 L4.1 5.15 Q4.05 6.2 3.0 6.15 L2.85 6.1 Q2.45 5.85 2.4 5.5 L2.55 5.1 3.25 5.05 4.0 4.95" fill="#000000" fill-rule="evenodd" stroke="none"/>
    <path d="M8.45 5.85 L8.45 5.5 Q8.4 4.45 7.45 4.3 L7.4 4.35 7.05 3.0 Q5.2 1.65 2.85 2.55 L2.05 2.7 1.35 1.95 1.6 1.5 Q2.05 0.7 3.0 0.35 L5.6 0.0 7.1 0.3 Q7.65 0.4 8.6 1.25 9.55 2.1 9.6 3.85 9.65 5.55 8.6 5.8 L8.45 5.85" fill="#552811" fill-rule="evenodd" stroke="none"/>
    <path d="M7.4 4.35 L6.8 4.75 M8.45 5.85 L8.45 5.5 Q8.4 4.45 7.45 4.3 L7.4 4.35 M1.35 1.95 L1.05 2.6 Q0.75 3.15 0.85 3.85 L0.9 5.1 0.0 7.45 0.95 8.1 1.0 8.7 Q1.1 10.05 2.0 11.0 L2.85 11.2 4.65 10.9 6.4 10.2 7.1 9.4 7.3 8.3 Q7.3 7.6 7.6 6.95 L7.7 6.9 8.1 6.6 8.15 6.55 8.45 5.85 8.6 5.8 Q9.65 5.55 9.6 3.85 9.55 2.1 8.6 1.25 7.65 0.4 7.1 0.3 L5.6 0.0 3.0 0.35 Q2.05 0.7 1.6 1.5 L1.35 1.95 M2.55 5.1 L2.45 5.15 1.8 5.25 M4.0 4.95 L4.1 5.15 Q4.05 6.2 3.0 6.15 L2.85 6.1 Q2.45 5.85 2.4 5.5 L2.55 5.1 3.25 5.05 4.0 4.95 4.05 4.95 5.0 4.95 M8.2 6.7 L8.65 11.35 8.15 11.8 4.85 11.95 Q4.35 11.45 4.65 10.9 M8.15 6.55 L8.2 6.7" fill="none" stroke="#000000" stroke-linecap="round" stroke-linejoin="round" stroke-width="0.05"/>
    <path d="M2.45 5.15 Q2.4 4.55 2.5 4.25 L2.65 4.1 3.1 3.8 3.35 3.35 M3.25 5.05 L3.2 4.4 3.2 4.35 3.6 4.2 Q4.15 3.95 4.3 3.4 M4.05 4.95 L4.1 4.45 4.15 4.35 4.55 4.15 5.0 3.7" fill="none" stroke="#000000" stroke-linecap="round" stroke-linejoin="round" stroke-width="0.05"/>
  </g>
</svg>
