<?xml version="1.0" encoding="UTF-8" standalone="no"?>
<svg xmlns:xlink="http://www.w3.org/1999/xlink" height="82.9px" width="14.3px" xmlns="http://www.w3.org/2000/svg">
  <g transform="matrix(1.0, 0.0, 0.0, 1.0, 0.0, 0.0)">
    <path d="M-1.35 -15.3 L0.75 -15.25 1.0 -15.05 1.85 -14.8 2.2 -14.45 0.9 -14.45 0.9 -7.65 0.9 -1.2 -0.6 -0.4 0.9 -1.2 0.9 5.15 0.9 15.55 1.8 15.55 Q2.65 15.95 1.75 16.3 L1.65 16.3 -0.5 16.25 -0.7 16.05 -1.6 15.8 -1.9 15.45 -0.6 15.5 -0.6 5.85 -0.6 -0.4 -0.6 -6.95 0.9 -7.65 -0.6 -6.95 -0.6 -14.5 -1.55 -14.55 Q-2.4 -14.95 -1.5 -15.3 L-1.35 -15.3 M-0.6 -14.5 L0.9 -14.45 -0.6 -14.5 M-0.6 5.85 L0.9 5.15 -0.6 5.85 M-0.6 15.5 L0.9 15.55 -0.6 15.5" fill="#4a2c15" fill-rule="evenodd" stroke="none"/>
    <path d="M-1.35 -15.3 L-1.3 -15.85 -1.4 -18.4 Q-1.65 -24.35 -1.2 -29.9 -1.15 -31.6 -0.4 -33.3 0.05 -34.4 0.85 -35.55 2.15 -37.6 4.05 -38.6 L6.4 -40.1 7.3 -40.95 6.9 -35.9 5.7 -35.35 Q4.4 -34.35 4.6 -32.5 L3.7 -32.25 3.75 -32.0 4.7 -31.05 4.35 -28.05 3.6 -27.65 Q0.55 -22.95 1.15 -17.3 L1.0 -15.05 0.75 -15.25 -1.35 -15.3 M-0.55 -15.9 Q-0.45 -20.85 -0.6 -25.3 -0.8 -30.15 0.55 -33.45 1.8 -36.65 3.75 -37.8 5.55 -38.9 6.4 -40.1 5.55 -38.9 3.75 -37.8 1.8 -36.65 0.55 -33.45 -0.8 -30.15 -0.6 -25.3 -0.45 -20.85 -0.55 -15.9" fill="url(#gradient0)" fill-rule="evenodd" stroke="none"/>
    <path d="M1.65 16.3 L1.6 16.85 1.65 19.4 Q1.9 25.15 1.5 30.9 1.35 32.65 0.65 34.3 L-0.6 36.55 Q-1.9 38.65 -3.75 39.6 -5.15 40.35 -6.1 41.15 L-7.0 41.95 -6.65 36.9 Q-5.75 36.6 -5.4 36.35 -4.1 35.4 -4.35 33.5 L-3.4 33.25 -3.5 33.0 -4.45 32.05 -4.1 29.05 -3.3 28.65 Q-0.3 23.95 -0.85 18.3 L-0.7 16.05 -0.5 16.25 1.65 16.3 M0.8 16.9 Q0.7 22.15 0.9 26.3 1.05 31.2 -0.25 34.5 -1.6 37.7 -3.45 38.8 -5.4 40.0 -6.1 41.15 -5.4 40.0 -3.45 38.8 -1.6 37.7 -0.25 34.5 1.05 31.2 0.9 26.3 0.7 22.15 0.8 16.9" fill="url(#gradient1)" fill-rule="evenodd" stroke="none"/>
    <path d="M6.4 -40.1 L4.05 -38.6 Q2.15 -37.6 0.85 -35.55 0.05 -34.4 -0.4 -33.3 -1.15 -31.6 -1.2 -29.9 -1.65 -24.35 -1.4 -18.4 L-1.3 -15.85 -1.35 -15.3 0.75 -15.25 1.0 -15.05 1.15 -17.3 Q0.55 -22.95 3.6 -27.65 L4.35 -28.05 4.7 -31.05 3.75 -32.0 3.7 -32.25 4.6 -32.5 Q4.4 -34.35 5.7 -35.35 L6.9 -35.9 7.3 -40.95 6.4 -40.1 M0.9 -14.45 L2.2 -14.45 1.85 -14.8 1.0 -15.05 M0.9 15.55 L1.8 15.55 Q2.65 15.95 1.75 16.3 L1.65 16.3 1.6 16.85 1.65 19.4 Q1.9 25.15 1.5 30.9 1.35 32.65 0.65 34.3 L-0.6 36.55 Q-1.9 38.65 -3.75 39.6 -5.15 40.35 -6.1 41.15 L-7.0 41.95 -6.65 36.9 Q-5.75 36.6 -5.4 36.35 -4.1 35.4 -4.35 33.5 L-3.4 33.25 -3.5 33.0 -4.45 32.05 -4.1 29.05 -3.3 28.65 Q-0.3 23.95 -0.85 18.3 L-0.7 16.05 -1.6 15.8 -1.9 15.45 -0.6 15.5 0.9 15.55 M0.9 -14.45 L-0.6 -14.5 -1.55 -14.55 Q-2.4 -14.95 -1.5 -15.3 L-1.35 -15.3 M1.65 16.3 L-0.5 16.25 -0.7 16.05" fill="none" stroke="#000000" stroke-linecap="round" stroke-linejoin="round" stroke-width="0.05"/>
    <path d="M0.9 -1.2 L0.9 -7.65 -0.6 -6.95 -0.6 -0.4 0.9 -1.2 0.9 5.15 0.9 15.55 M-0.6 15.5 L-0.6 5.85 -0.6 -0.4 M0.9 -7.65 L0.9 -14.45 M-0.6 -14.5 L-0.6 -6.95 M0.9 5.15 L-0.6 5.85" fill="none" stroke="#000000" stroke-linecap="round" stroke-linejoin="round" stroke-width="0.05"/>
    <path d="M6.4 -40.1 Q5.55 -38.9 3.75 -37.8 1.8 -36.65 0.55 -33.45 -0.8 -30.15 -0.6 -25.3 -0.45 -20.85 -0.55 -15.9 M-6.1 41.15 Q-5.4 40.0 -3.45 38.8 -1.6 37.7 -0.25 34.5 1.05 31.2 0.9 26.3 0.7 22.15 0.8 16.9" fill="none" stroke="#ffffff" stroke-linecap="round" stroke-linejoin="round" stroke-width="0.05"/>
  </g>
  <defs>
    <radialGradient cx="0" cy="0" gradientTransform="matrix(0.0068, 0.0024, -0.0073, 0.0207, 3.15, -24.25)" gradientUnits="userSpaceOnUse" id="gradient0" r="819.2" spreadMethod="pad">
      <stop offset="0.0" stop-color="#917c6f"/>
      <stop offset="0.8117647058823529" stop-color="#d3cbc5"/>
      <stop offset="1.0" stop-color="#ffffff"/>
    </radialGradient>
    <radialGradient cx="0" cy="0" gradientTransform="matrix(-0.0068, -0.0024, 0.0073, -0.0207, -2.9, 25.25)" gradientUnits="userSpaceOnUse" id="gradient1" r="819.2" spreadMethod="pad">
      <stop offset="0.0" stop-color="#917c6f"/>
      <stop offset="0.8117647058823529" stop-color="#d3cbc5"/>
      <stop offset="1.0" stop-color="#ffffff"/>
    </radialGradient>
  </defs>
</svg>
