<?xml version="1.0" encoding="UTF-8" standalone="no"?>
<svg xmlns:xlink="http://www.w3.org/1999/xlink" height="81.95px" width="11.1px" xmlns="http://www.w3.org/2000/svg">
  <g transform="matrix(1.0, 0.0, 0.0, 1.0, 0.0, 0.0)">
    <path d="M-0.4 -8.85 L-0.45 -9.4 -0.6 -12.0 0.9 -12.0 1.05 -8.1 1.1 -4.3 1.15 0.3 1.1 4.85 1.0 9.6 0.9 12.65 -0.6 12.65 -0.6 12.4 Q-1.55 11.7 -1.35 10.85 -1.2 10.1 -1.3 9.35 -1.5 7.0 -2.15 5.0 L-2.35 4.05 -3.9 4.4 -2.55 3.15 -2.55 1.55 -3.8 1.2 -4.65 0.7 -4.7 0.45 -2.55 0.6 -2.55 -0.25 -2.55 -0.45 -3.65 -1.95 -2.5 -1.35 -1.55 -4.95 -0.4 -8.85 -0.35 -5.3 -0.4 -8.85 M-0.5 10.25 Q-0.25 7.95 -0.3 5.45 L-0.3 0.55 -0.3 -4.3 -0.35 -5.3 -0.6 -4.5 -1.1 -3.15 Q-1.9 -0.9 -1.8 1.4 -1.75 3.7 -1.3 5.95 L-0.5 10.25 -0.6 12.4 -0.5 10.25 M-2.55 3.15 L-2.35 4.05 -2.55 3.15 M-2.55 1.55 L-2.55 0.6 -2.55 1.55 M-2.55 -0.45 L-2.5 -1.35 -2.55 -0.45" fill="url(#gradient0)" fill-rule="evenodd" stroke="none"/>
    <path d="M-0.4 -8.85 L-0.45 -9.4 -0.6 -12.0 0.9 -12.0 1.05 -8.1 1.1 -4.3 1.15 0.3 1.1 4.85 1.0 9.6 0.9 12.65 -0.6 12.65 -0.6 12.4 -0.5 10.25 Q-0.25 7.95 -0.3 5.45 L-0.3 0.55 -0.3 -4.3 -0.35 -5.3 -0.4 -8.85" fill="none" stroke="#000000" stroke-linecap="round" stroke-linejoin="round" stroke-width="0.05"/>
    <path d="M-0.6 12.4 Q-1.55 11.7 -1.35 10.85 -1.2 10.1 -1.3 9.35 -1.5 7.0 -2.15 5.0 L-2.35 4.05 -3.9 4.4 -2.55 3.15 -2.55 1.55 -3.8 1.2 -4.65 0.7 -4.7 0.45 -2.55 0.6 -2.55 -0.25 -2.55 -0.4 -2.55 -0.45 -3.65 -1.95 -2.5 -1.35 -1.55 -4.95 -0.4 -8.85 M-0.35 -5.3 L-0.6 -4.5 -1.1 -3.15 Q-1.9 -0.9 -1.8 1.4 -1.75 3.7 -1.3 5.95 L-0.5 10.25 M-2.55 -0.45 L-2.55 -0.25 M-2.5 -1.35 L-2.55 -0.45 M-2.55 0.6 L-2.55 1.55 M-2.35 4.05 L-2.55 3.15" fill="none" stroke="#000000" stroke-linecap="round" stroke-linejoin="round" stroke-width="0.05"/>
    <path d="M-1.1 -19.55 L-1.25 -20.75 -1.25 -21.5 Q-1.35 -25.85 -0.25 -29.7 L0.35 -31.45 0.55 -30.9 0.7 -30.15 1.05 -25.25 1.2 -21.25 1.2 -20.5 1.2 -19.95 1.2 -20.5 1.2 -21.25 1.05 -25.25 0.7 -30.15 0.55 -30.9 0.35 -31.45 -0.25 -29.7 Q-1.35 -25.85 -1.25 -21.5 L-1.25 -20.75 -1.1 -19.55 M-1.35 -17.75 Q-3.0 -19.8 -3.9 -22.3 L-3.9 -23.1 -3.0 -24.7 -2.6 -25.5 Q-2.35 -27.1 -2.25 -28.65 -1.95 -33.25 -1.0 -38.05 L-0.15 -40.2 0.1 -39.9 0.4 -38.95 0.75 -36.95 1.85 -31.5 2.5 -28.1 2.55 -27.45 2.45 -26.6 Q1.95 -25.15 2.85 -23.9 3.85 -22.55 3.35 -20.9 2.8 -19.05 1.25 -18.0 0.7 -17.45 0.0 -17.3 -1.0 -17.25 -1.35 -17.75 -1.0 -17.25 0.0 -17.3 0.7 -17.45 1.25 -18.0 2.85 -18.1 4.05 -17.4 5.35 -16.55 5.65 -15.45 L3.75 -16.0 2.05 -16.15 1.7 -16.05 3.45 -14.8 4.7 -13.0 5.05 -11.9 Q4.35 -13.45 2.85 -13.75 L1.5 -13.8 Q2.4 -13.5 2.75 -12.75 L3.75 -10.8 3.6 -10.85 2.4 -11.6 Q1.65 -12.1 1.0 -11.9 L1.0 -10.4 -0.75 -10.25 -0.95 -11.8 -1.65 -11.8 -2.95 -11.4 -3.1 -11.2 Q-3.55 -10.75 -3.2 -11.6 -2.65 -13.15 -1.1 -13.65 L-1.35 -13.9 -3.2 -13.6 -4.0 -13.15 -3.5 -14.35 Q-2.7 -15.7 -0.95 -15.85 L-0.95 -16.05 -3.45 -15.8 -5.45 -14.65 Q-4.8 -16.85 -2.75 -17.6 L-1.35 -17.75 M-0.95 -15.65 L0.05 -15.55 0.45 -15.65 0.85 -15.8 0.45 -15.65 0.05 -15.55 -0.95 -15.65 -0.9 -14.75 -0.95 -15.65 -0.95 -15.85 -0.95 -15.65 M2.25 -22.4 L2.25 -22.0 2.0 -21.35 1.5 -20.6 1.2 -20.5 1.5 -20.6 2.0 -21.35 2.25 -22.0 2.25 -22.4 M1.9 -23.05 L1.95 -22.45 Q1.9 -21.7 1.3 -21.3 L1.2 -21.25 1.3 -21.3 Q1.9 -21.7 1.95 -22.45 L1.9 -23.05 M0.9 -14.95 L0.85 -14.95 0.4 -14.8 -0.4 -14.7 -0.9 -14.75 -0.4 -14.7 0.4 -14.8 0.85 -14.95 0.9 -14.95 0.85 -15.8 0.8 -16.95 0.85 -15.8 0.9 -14.95 0.9 -14.2 0.95 -13.15 0.9 -14.2 0.6 -14.2 -0.15 -14.1 -0.85 -14.05 -0.15 -14.1 0.6 -14.2 0.9 -14.2 0.9 -14.95 M-0.8 -12.25 L-0.85 -14.05 -0.8 -12.25 M-2.55 -21.5 L-2.1 -20.85 -1.6 -20.55 -2.1 -20.85 -2.55 -21.5 M-2.9 -23.75 L-2.7 -23.05 -2.25 -22.1 -1.75 -21.6 -1.25 -21.5 -1.75 -21.6 -2.25 -22.1 -2.7 -23.05 -2.9 -23.75 M-0.8 -16.75 L-0.95 -16.05 -0.8 -16.75 -0.75 -16.75 -0.5 -16.65 0.25 -16.75 -0.5 -16.65 -0.75 -16.75 -0.8 -16.75 M-0.9 -14.75 L-0.85 -14.05 -0.9 -14.75" fill="url(#gradient1)" fill-rule="evenodd" stroke="none"/>
    <path d="M1.2 -19.95 L1.2 -20.5 1.2 -21.25 1.05 -25.25 0.7 -30.15 0.55 -30.9 0.35 -31.45 -0.25 -29.7 Q-1.35 -25.85 -1.25 -21.5 L-1.25 -20.75 -1.1 -19.55 M1.25 -18.0 Q2.8 -19.05 3.35 -20.9 3.85 -22.55 2.85 -23.9 1.95 -25.15 2.45 -26.6 L2.55 -27.45 2.5 -28.1 1.85 -31.5 0.75 -36.95 0.4 -38.95 0.1 -39.9 -0.15 -40.2 -1.0 -38.05 Q-1.95 -33.25 -2.25 -28.65 -2.35 -27.1 -2.6 -25.5 L-3.0 -24.7 -3.9 -23.1 -3.9 -22.3 Q-3.0 -19.8 -1.35 -17.75 -1.0 -17.25 0.0 -17.3 0.7 -17.45 1.25 -18.0 2.85 -18.1 4.05 -17.4 5.35 -16.55 5.65 -15.45 L3.75 -16.0 2.05 -16.15 1.7 -16.05 3.45 -14.8 4.7 -13.0 5.05 -11.9 Q4.35 -13.45 2.85 -13.75 L1.5 -13.8 Q2.4 -13.5 2.75 -12.75 L3.75 -10.8 3.6 -10.85 2.4 -11.6 Q1.65 -12.1 1.0 -11.9 L1.0 -10.4 -0.75 -10.25 -0.95 -11.8 -1.65 -11.8 -2.95 -11.4 -3.1 -11.2 Q-3.55 -10.75 -3.2 -11.6 -2.65 -13.15 -1.1 -13.65 L-1.35 -13.9 -3.2 -13.6 -4.0 -13.15 -3.5 -14.35 Q-2.7 -15.7 -0.95 -15.85 L-0.95 -16.05 -3.45 -15.8 -5.45 -14.65 Q-4.8 -16.85 -2.75 -17.6 L-1.35 -17.75 M-0.95 -15.65 L-0.9 -14.75 -0.85 -14.05 -0.8 -12.25 M0.9 -14.95 L0.85 -15.8 0.8 -16.95 M0.95 -13.15 L0.9 -14.2 0.9 -14.95 M-0.95 -16.05 L-0.8 -16.75 M-0.95 -15.65 L-0.95 -15.85" fill="none" stroke="#000000" stroke-linecap="round" stroke-linejoin="round" stroke-width="0.05"/>
    <path d="M1.2 -21.25 L1.3 -21.3 Q1.9 -21.7 1.95 -22.45 L1.9 -23.05 M1.2 -20.5 L1.5 -20.6 2.0 -21.35 2.25 -22.0 2.25 -22.4 M0.85 -15.8 L0.45 -15.65 0.05 -15.55 -0.95 -15.65 M-0.9 -14.75 L-0.4 -14.7 0.4 -14.8 0.85 -14.95 0.9 -14.95 M0.9 -14.2 L0.6 -14.2 -0.15 -14.1 -0.85 -14.05 M-1.25 -21.5 L-1.75 -21.6 -2.25 -22.1 -2.7 -23.05 -2.9 -23.75 M-1.6 -20.55 L-2.1 -20.85 -2.55 -21.5 M-0.8 -16.75 L-0.75 -16.75 -0.5 -16.65 0.25 -16.75" fill="none" stroke="#990000" stroke-linecap="round" stroke-linejoin="round" stroke-width="0.05"/>
    <path d="M1.55 19.3 Q3.2 21.35 4.1 23.85 L4.1 24.65 3.2 26.25 2.8 27.05 Q2.55 28.65 2.45 30.2 2.15 34.8 1.2 39.6 L0.35 41.75 0.1 41.45 -0.2 40.5 -0.55 38.5 -1.65 33.05 -2.3 29.65 -2.35 29.0 -2.25 28.15 Q-1.75 26.7 -2.65 25.45 -3.65 24.1 -3.15 22.45 -2.6 20.6 -1.05 19.55 -0.5 19.0 0.2 18.85 1.2 18.8 1.55 19.3 1.2 18.8 0.2 18.85 -0.5 19.0 -1.05 19.55 -2.65 19.65 -3.85 18.95 -5.15 18.1 -5.45 17.0 L-3.55 17.55 -1.85 17.7 -1.5 17.6 Q-2.4 17.2 -3.25 16.35 L-4.5 14.55 -4.85 13.45 Q-4.15 15.0 -2.65 15.3 L-1.3 15.35 Q-2.2 15.05 -2.55 14.3 L-3.55 12.35 -3.4 12.4 -2.2 13.15 Q-1.45 13.65 -0.8 13.45 L-0.8 11.95 0.95 11.8 1.15 13.35 1.85 13.35 3.15 12.95 3.3 12.75 Q3.75 12.3 3.4 13.15 2.85 14.7 1.3 15.2 L1.55 15.45 3.4 15.15 4.2 14.7 3.7 15.9 Q2.9 17.25 1.15 17.4 L1.15 17.6 3.65 17.35 5.65 16.2 Q5.0 18.4 2.95 19.15 L1.55 19.3 M1.3 21.1 L1.45 22.3 1.45 23.05 Q1.55 27.4 0.45 31.25 L-0.15 33.0 -0.35 32.45 -0.5 31.7 -0.85 26.8 -1.0 22.8 -1.0 22.05 -1.0 21.5 -1.0 22.05 -1.0 22.8 -0.85 26.8 -0.5 31.7 -0.35 32.45 -0.15 33.0 0.45 31.25 Q1.55 27.4 1.45 23.05 L1.45 22.3 1.3 21.1 M1.15 17.2 L0.15 17.1 -0.25 17.2 -0.65 17.35 -0.25 17.2 0.15 17.1 1.15 17.2 1.1 16.3 1.15 17.2 1.15 17.4 1.15 17.2 M-1.7 24.6 L-1.75 24.0 Q-1.7 23.25 -1.1 22.85 L-1.0 22.8 -1.1 22.85 Q-1.7 23.25 -1.75 24.0 L-1.7 24.6 M-2.05 23.95 L-2.05 23.55 -1.8 22.9 -1.3 22.15 -1.0 22.05 -1.3 22.15 -1.8 22.9 -2.05 23.55 -2.05 23.95 M-0.7 16.5 L-0.65 16.5 -0.2 16.35 0.6 16.25 1.1 16.3 0.6 16.25 -0.2 16.35 -0.65 16.5 -0.7 16.5 -0.65 17.35 -0.6 18.5 -0.65 17.35 -0.7 16.5 -0.7 15.75 -0.75 14.7 -0.7 15.75 -0.7 16.5 M1.05 15.6 L0.35 15.65 -0.4 15.75 -0.7 15.75 -0.4 15.75 0.35 15.65 1.05 15.6 1.0 13.8 1.05 15.6 1.1 16.3 1.05 15.6 M-0.05 18.3 L0.7 18.2 0.95 18.3 1.0 18.3 0.95 18.3 0.7 18.2 -0.05 18.3 M2.75 23.05 L2.3 22.4 1.8 22.1 2.3 22.4 2.75 23.05 M3.1 25.3 L2.9 24.6 2.45 23.65 1.95 23.15 1.45 23.05 1.95 23.15 2.45 23.65 2.9 24.6 3.1 25.3 M1.0 18.3 L1.15 17.6 1.0 18.3" fill="url(#gradient2)" fill-rule="evenodd" stroke="none"/>
    <path d="M-1.05 19.55 Q-2.6 20.6 -3.15 22.45 -3.65 24.1 -2.65 25.45 -1.75 26.7 -2.25 28.15 L-2.35 29.0 -2.3 29.65 -1.65 33.05 -0.55 38.5 -0.2 40.5 0.1 41.45 0.35 41.75 1.2 39.6 Q2.15 34.8 2.45 30.2 2.55 28.65 2.8 27.05 L3.2 26.25 4.1 24.65 4.1 23.85 Q3.2 21.35 1.55 19.3 1.2 18.8 0.2 18.85 -0.5 19.0 -1.05 19.55 -2.65 19.65 -3.85 18.95 -5.15 18.1 -5.45 17.0 L-3.55 17.55 -1.85 17.7 -1.5 17.6 Q-2.4 17.2 -3.25 16.35 L-4.5 14.55 -4.85 13.45 Q-4.15 15.0 -2.65 15.3 L-1.3 15.35 Q-2.2 15.05 -2.55 14.3 L-3.55 12.35 -3.4 12.4 -2.2 13.15 Q-1.45 13.65 -0.8 13.45 L-0.8 11.95 0.95 11.8 1.15 13.35 1.85 13.35 3.15 12.95 3.3 12.75 Q3.75 12.3 3.4 13.15 2.85 14.7 1.3 15.2 L1.55 15.45 3.4 15.15 4.2 14.7 3.7 15.9 Q2.9 17.25 1.15 17.4 L1.15 17.6 3.65 17.35 5.65 16.2 Q5.0 18.4 2.95 19.15 L1.55 19.3 M-1.0 21.5 L-1.0 22.05 -1.0 22.8 -0.85 26.8 -0.5 31.7 -0.35 32.45 -0.15 33.0 0.45 31.25 Q1.55 27.4 1.45 23.05 L1.45 22.3 1.3 21.1 M1.15 17.2 L1.1 16.3 1.05 15.6 1.0 13.8 M-0.7 16.5 L-0.65 17.35 -0.6 18.5 M-0.7 16.5 L-0.7 15.75 -0.75 14.7 M1.15 17.4 L1.15 17.2 M1.15 17.6 L1.0 18.3" fill="none" stroke="#000000" stroke-linecap="round" stroke-linejoin="round" stroke-width="0.05"/>
    <path d="M-1.0 22.05 L-1.3 22.15 -1.8 22.9 -2.05 23.55 -2.05 23.95 M-1.0 22.8 L-1.1 22.85 Q-1.7 23.25 -1.75 24.0 L-1.7 24.6 M-0.65 17.35 L-0.25 17.2 0.15 17.1 1.15 17.2 M1.1 16.3 L0.6 16.25 -0.2 16.35 -0.65 16.5 -0.7 16.5 M-0.7 15.75 L-0.4 15.75 0.35 15.65 1.05 15.6 M1.45 23.05 L1.95 23.15 2.45 23.65 2.9 24.6 3.1 25.3 M1.8 22.1 L2.3 22.4 2.75 23.05 M1.0 18.3 L0.95 18.3 0.7 18.2 -0.05 18.3" fill="none" stroke="#990000" stroke-linecap="round" stroke-linejoin="round" stroke-width="0.05"/>
  </g>
  <defs>
    <linearGradient gradientTransform="matrix(9.0E-4, 0.0, 0.0, 0.0151, 0.2, 0.3)" gradientUnits="userSpaceOnUse" id="gradient0" spreadMethod="pad" x1="-819.2" x2="819.2">
      <stop offset="0.0" stop-color="#98845c"/>
      <stop offset="0.5333333333333333" stop-color="#d0bca8"/>
      <stop offset="1.0" stop-color="#98845c"/>
    </linearGradient>
    <linearGradient gradientTransform="matrix(0.0046, 0.0, 0.0, 0.014, -0.25, -28.75)" gradientUnits="userSpaceOnUse" id="gradient1" spreadMethod="pad" x1="-819.2" x2="819.2">
      <stop offset="0.0" stop-color="#98845c"/>
      <stop offset="0.5333333333333333" stop-color="#d0bca8"/>
      <stop offset="1.0" stop-color="#98845c"/>
    </linearGradient>
    <linearGradient gradientTransform="matrix(-0.0046, 0.0, 0.0, -0.014, 0.45, 30.3)" gradientUnits="userSpaceOnUse" id="gradient2" spreadMethod="pad" x1="-819.2" x2="819.2">
      <stop offset="0.0" stop-color="#98845c"/>
      <stop offset="0.5333333333333333" stop-color="#d0bca8"/>
      <stop offset="1.0" stop-color="#98845c"/>
    </linearGradient>
  </defs>
</svg>
