<?xml version="1.0" encoding="UTF-8" standalone="no"?>
<svg xmlns:xlink="http://www.w3.org/1999/xlink" height="81.65px" width="15.05px" xmlns="http://www.w3.org/2000/svg">
  <g transform="matrix(1.0, 0.0, 0.0, 1.0, 0.0, 0.0)">
    <path d="M1.25 -15.85 L1.25 -14.05 1.25 -15.85 2.3 -15.6 Q4.5 -14.6 5.9 -12.45 L5.85 -12.35 5.6 -12.55 Q3.65 -14.1 1.25 -14.05 L1.25 -12.65 Q3.05 -11.9 3.8 -9.95 L2.5 -10.95 1.25 -11.45 1.25 13.0 1.25 14.2 1.25 13.0 1.95 12.95 Q3.05 12.8 3.65 12.05 L3.8 12.15 Q3.8 13.0 3.05 13.6 2.3 14.2 1.25 14.2 L1.25 16.1 1.25 17.6 1.25 16.1 2.1 16.15 Q4.15 16.35 5.45 14.8 L5.55 14.9 Q5.55 16.0 4.3 16.8 3.05 17.6 1.25 17.6 L1.25 18.9 0.45 18.9 0.45 -17.2 0.45 18.9 -0.5 18.9 -0.5 17.05 -0.5 15.4 -0.5 17.05 -1.3 17.05 Q-3.55 16.45 -4.95 14.5 L-4.8 14.35 -3.9 14.85 Q-2.25 15.65 -0.5 15.4 L-0.5 13.55 -0.5 12.2 -0.5 13.55 Q-1.95 13.45 -2.6 12.0 L-2.85 11.3 -0.5 12.2 -0.5 -11.85 -0.5 -12.9 -0.5 -11.85 -3.2 -11.3 -3.25 -11.35 -1.8 -12.5 -0.5 -12.9 -0.5 -14.0 Q-2.9 -14.15 -5.05 -12.95 L-6.05 -12.35 Q-4.8 -14.85 -2.25 -15.45 L-0.5 -16.0 -0.5 -17.2 0.45 -17.2 1.25 -17.2 1.25 -15.85 M1.25 -12.65 L1.25 -11.45 1.25 -12.65 M-0.5 -16.0 L-0.5 -14.0 -0.5 -16.0" fill="url(#gradient0)" fill-rule="evenodd" stroke="none"/>
    <path d="M1.25 -14.05 L1.25 -15.85 1.25 -17.2 0.45 -17.2 -0.5 -17.2 -0.5 -16.0 -2.25 -15.45 Q-4.8 -14.85 -6.05 -12.35 L-5.05 -12.95 Q-2.9 -14.15 -0.5 -14.0 L-0.5 -12.9 -0.5 -11.85 -0.5 12.2 -0.5 13.55 -0.5 15.4 -0.5 17.05 -0.5 18.9 0.45 18.9 1.25 18.9 1.25 17.6 1.25 16.1 1.25 14.2 1.25 13.0 1.25 -11.45 1.25 -12.65 1.25 -14.05 Q3.65 -14.1 5.6 -12.55 L5.85 -12.35 5.9 -12.35 6.0 -12.25 5.9 -12.45 Q4.5 -14.6 2.3 -15.6 L1.25 -15.85 M1.25 -12.65 Q3.05 -11.9 3.8 -9.95 L2.5 -10.95 1.25 -11.45 M-0.5 -14.0 L-0.5 -16.0 M-3.25 -11.35 L-1.8 -12.5 -0.5 -12.9 M-3.25 -11.35 L-3.35 -11.3 -3.2 -11.3 -0.5 -11.85 M-0.5 13.55 Q-1.95 13.45 -2.6 12.0 L-2.85 11.3 -0.5 12.2 M-0.5 17.05 L-1.3 17.05 Q-3.55 16.45 -4.95 14.5 L-5.2 14.1 -4.8 14.35 -3.9 14.85 Q-2.25 15.65 -0.5 15.4 M3.8 12.15 L3.8 12.1 3.8 11.95 3.75 12.05 3.65 12.05 Q3.05 12.8 1.95 12.95 L1.25 13.0 M5.55 14.9 L5.65 14.6 5.45 14.8 Q4.15 16.35 2.1 16.15 L1.25 16.1 M3.8 12.15 Q3.8 13.0 3.05 13.6 2.3 14.2 1.25 14.2 M5.55 14.9 Q5.55 16.0 4.3 16.8 3.05 17.6 1.25 17.6" fill="none" stroke="#000000" stroke-linecap="round" stroke-linejoin="round" stroke-width="0.05"/>
    <path d="M0.45 -17.2 L0.45 18.9" fill="none" stroke="#8d6846" stroke-linecap="round" stroke-linejoin="round" stroke-width="0.05"/>
    <path d="M7.4 -32.55 Q8.15 -30.1 7.4 -27.75 L6.75 -25.7 6.7 -27.05 Q6.65 -28.8 5.25 -30.1 L5.2 -25.55 4.6 -22.6 3.7 -19.9 2.7 -17.75 1.75 -16.95 0.25 -16.15 -1.2 -16.95 -2.15 -17.75 -3.15 -19.9 -4.05 -22.6 -4.65 -25.55 -4.75 -30.1 Q-6.15 -28.8 -6.2 -27.05 L-6.25 -25.7 -6.9 -27.75 Q-7.65 -30.1 -6.9 -32.55 L-5.8 -34.85 -4.7 -36.55 Q-3.05 -38.8 -0.3 -39.9 L0.25 -40.05 0.85 -39.9 Q3.55 -38.8 5.2 -36.55 L6.3 -34.85 7.4 -32.55 M-4.75 -30.1 L-3.25 -30.8 0.25 -31.45 Q2.0 -31.4 3.75 -30.8 L5.25 -30.1 3.75 -30.8 Q2.0 -31.4 0.25 -31.45 L-3.25 -30.8 -4.75 -30.1 M2.35 -31.75 Q2.7 -34.65 1.35 -37.1 L0.6 -37.5 1.35 -37.1 Q2.7 -34.65 2.35 -31.75 M4.45 -29.45 L4.55 -28.95 4.6 -27.65 4.55 -28.95 4.45 -29.45 M1.85 -28.65 Q3.6 -27.85 4.55 -26.5 L5.2 -25.55 4.55 -26.5 Q3.6 -27.85 1.85 -28.65 L1.8 -28.05 2.65 -27.35 1.35 -26.9 1.15 -26.05 1.05 -25.3 1.1 -23.2 1.4 -22.6 1.1 -23.2 1.05 -25.3 1.15 -26.05 1.35 -26.9 2.65 -27.35 1.8 -28.05 1.85 -28.65 1.95 -30.4 1.85 -28.65 M7.25 -28.9 Q7.35 -31.3 6.25 -33.35 L3.7 -37.0 Q2.25 -38.65 1.0 -39.05 L-1.1 -38.9 Q-3.05 -37.7 -4.2 -36.2 -5.4 -34.7 -6.2 -32.9 -7.0 -31.15 -6.7 -28.7 -7.0 -31.15 -6.2 -32.9 -5.4 -34.7 -4.2 -36.2 -3.05 -37.7 -1.1 -38.9 L1.0 -39.05 Q2.25 -38.65 3.7 -37.0 L6.25 -33.35 Q7.35 -31.3 7.25 -28.9 M4.4 -25.6 L4.4 -25.2 4.35 -24.0 4.4 -25.2 4.4 -25.6 M1.15 -26.05 Q2.7 -25.05 3.85 -23.6 L4.6 -22.6 3.85 -23.6 Q2.7 -25.05 1.15 -26.05 M1.55 -22.5 L1.6 -22.55 1.4 -22.6 1.55 -22.5 2.5 -21.55 3.7 -19.9 2.5 -21.55 1.55 -22.5 0.95 -21.7 Q0.45 -20.55 0.9 -19.3 1.15 -18.65 0.5 -18.75 L0.7 -18.65 2.7 -17.75 0.7 -18.65 0.5 -18.75 Q1.15 -18.65 0.9 -19.3 0.45 -20.55 0.95 -21.7 L1.55 -22.5 M3.85 -22.0 Q3.85 -21.5 3.5 -21.2 3.85 -21.5 3.85 -22.0 M3.0 -19.55 L2.8 -19.25 2.6 -18.55 2.8 -19.25 3.0 -19.55 M1.75 -16.95 L0.7 -18.65 1.75 -16.95 M0.05 -36.95 L-0.45 -36.35 -0.55 -36.1 -0.85 -35.15 -0.9 -34.95 -0.95 -34.75 -1.1 -34.0 -1.15 -33.8 -1.2 -33.55 -1.25 -33.35 -1.3 -32.2 -1.25 -33.35 -1.2 -33.55 -1.15 -33.8 -1.1 -34.0 -0.95 -34.75 -0.9 -34.95 -0.85 -35.15 -0.55 -36.1 -0.45 -36.35 0.05 -36.95 M-1.8 -31.75 Q-2.2 -34.65 -0.8 -37.1 L-0.05 -37.5 -0.8 -37.1 Q-2.2 -34.65 -1.8 -31.75 M-1.1 -30.45 L-0.95 -29.45 -0.9 -29.15 -0.9 -28.9 -0.85 -28.5 -0.9 -28.1 -1.0 -27.95 -1.1 -27.85 -1.05 -27.8 Q-0.95 -27.7 -0.85 -27.7 L-0.45 -27.5 -0.35 -27.4 -0.3 -27.35 0.0 -25.7 0.05 -25.3 0.05 -24.9 0.15 -24.15 0.15 -23.0 Q0.15 -22.8 -0.05 -22.7 L-0.15 -22.65 -0.3 -22.45 -0.25 -22.4 -0.05 -21.85 0.0 -21.25 0.0 -20.6 Q0.0 -20.3 -0.15 -20.05 0.0 -20.3 0.0 -20.6 L0.0 -21.25 -0.05 -21.85 -0.25 -22.4 -0.3 -22.45 -0.15 -22.65 -0.05 -22.7 Q0.15 -22.8 0.15 -23.0 L0.15 -24.15 0.05 -24.9 0.05 -25.3 0.0 -25.7 -0.3 -27.35 -0.35 -27.4 -0.45 -27.5 -0.85 -27.7 Q-0.95 -27.7 -1.05 -27.8 L-1.1 -27.85 -1.0 -27.95 -0.9 -28.1 -0.85 -28.5 -0.9 -28.9 -0.9 -29.15 -0.95 -29.45 -1.1 -30.45 M-1.4 -30.4 L-1.3 -28.65 -1.25 -28.05 -2.1 -27.35 -0.8 -26.9 -0.6 -26.05 -3.35 -23.6 -4.05 -22.6 -3.35 -23.6 -0.6 -26.05 -0.8 -26.9 -2.1 -27.35 -1.25 -28.05 -1.3 -28.65 Q-3.1 -27.85 -4.05 -26.5 L-4.65 -25.55 -4.05 -26.5 Q-3.1 -27.85 -1.3 -28.65 L-1.4 -30.4 M-4.05 -25.7 L-4.0 -25.4 -3.95 -24.25 -4.0 -25.4 -4.05 -25.7 M-4.0 -29.65 L-4.2 -28.95 -4.35 -27.3 -4.2 -28.95 -4.0 -29.65 M-0.6 -26.05 L-0.5 -25.3 -0.55 -23.2 -0.85 -22.6 -0.55 -23.2 -0.5 -25.3 -0.6 -26.05 M-0.85 -22.6 L-1.05 -22.55 -1.0 -22.5 -0.85 -22.6 M-3.15 -19.9 L-1.95 -21.55 -1.0 -22.5 -0.4 -21.7 Q-0.05 -20.9 -0.15 -20.05 L-0.35 -19.3 Q-0.65 -18.65 0.05 -18.75 L-2.15 -17.75 0.05 -18.75 Q-0.65 -18.65 -0.35 -19.3 L-0.15 -20.05 Q-0.05 -20.9 -0.4 -21.7 L-1.0 -22.5 -1.95 -21.55 -3.15 -19.9 M-2.5 -20.1 L-2.45 -19.7 -2.3 -18.75 -2.45 -19.7 -2.5 -20.1 M-3.15 -22.6 L-3.0 -22.2 -2.85 -21.6 -3.0 -22.2 -3.15 -22.6 M0.25 -18.35 L0.25 -16.15 0.25 -18.35 -1.2 -16.95 0.25 -18.35 0.25 -18.75 0.05 -18.75 0.25 -18.75 0.25 -18.35" fill="url(#gradient1)" fill-rule="evenodd" stroke="none"/>
    <path d="M7.4 -32.55 Q8.15 -30.1 7.4 -27.75 L6.75 -25.7 6.7 -27.05 Q6.65 -28.8 5.25 -30.1 L5.2 -25.55 4.6 -22.6 3.7 -19.9 2.7 -17.75 1.75 -16.95 0.25 -16.15 -1.2 -16.95 -2.15 -17.75 -3.15 -19.9 -4.05 -22.6 -4.65 -25.55 -4.75 -30.1 Q-6.15 -28.8 -6.2 -27.05 L-6.25 -25.7 -6.9 -27.75 Q-7.65 -30.1 -6.9 -32.55 L-5.8 -34.85 -4.7 -36.55 Q-3.05 -38.8 -0.3 -39.9 L0.25 -40.05 0.85 -39.9 Q3.55 -38.8 5.2 -36.55 L6.3 -34.85 7.4 -32.55 M0.6 -37.5 L1.35 -37.1 Q2.7 -34.65 2.35 -31.75 M5.25 -30.1 L3.75 -30.8 Q2.0 -31.4 0.25 -31.45 L-3.25 -30.8 -4.75 -30.1 M1.4 -22.6 L1.1 -23.2 1.05 -25.3 1.15 -26.05 1.35 -26.9 2.65 -27.35 1.8 -28.05 1.85 -28.65 1.95 -30.4 M5.2 -25.55 L4.55 -26.5 Q3.6 -27.85 1.85 -28.65 M4.6 -22.6 L3.85 -23.6 Q2.7 -25.05 1.15 -26.05 M1.55 -22.5 L1.4 -22.6 1.6 -22.55 1.55 -22.5 2.5 -21.55 3.7 -19.9 M1.55 -22.5 L0.95 -21.7 Q0.45 -20.55 0.9 -19.3 1.15 -18.65 0.5 -18.75 L0.7 -18.65 2.7 -17.75 M0.7 -18.65 L1.75 -16.95 M-0.05 -37.5 L-0.8 -37.1 Q-2.2 -34.65 -1.8 -31.75 M-4.05 -22.6 L-3.35 -23.6 -0.6 -26.05 -0.8 -26.9 -2.1 -27.35 -1.25 -28.05 -1.3 -28.65 Q-3.1 -27.85 -4.05 -26.5 L-4.65 -25.55 M-1.3 -28.65 L-1.4 -30.4 M-0.85 -22.6 L-0.55 -23.2 -0.5 -25.3 -0.6 -26.05 M-0.85 -22.6 L-1.05 -22.55 -1.0 -22.5 -0.85 -22.6 M-2.15 -17.75 L0.05 -18.75 Q-0.65 -18.65 -0.35 -19.3 L-0.15 -20.05 Q-0.05 -20.9 -0.4 -21.7 L-1.0 -22.5 -1.95 -21.55 -3.15 -19.9 M-1.2 -16.95 L0.25 -18.35 0.25 -18.75 0.05 -18.75 M0.25 -16.15 L0.25 -18.35" fill="none" stroke="#000000" stroke-linecap="round" stroke-linejoin="round" stroke-width="0.05"/>
    <path d="M4.6 -27.65 L4.55 -28.95 4.45 -29.45 M4.35 -24.0 L4.4 -25.2 4.4 -25.6 M-6.7 -28.7 Q-7.0 -31.15 -6.2 -32.9 -5.4 -34.7 -4.2 -36.2 -3.05 -37.7 -1.1 -38.9 L1.0 -39.05 Q2.25 -38.65 3.7 -37.0 L6.25 -33.35 Q7.35 -31.3 7.25 -28.9 M2.6 -18.55 L2.8 -19.25 3.0 -19.55 M3.5 -21.2 Q3.85 -21.5 3.85 -22.0 M-1.3 -32.2 L-1.25 -33.35 -1.2 -33.55 -1.15 -33.8 -1.1 -34.0 -0.95 -34.75 -0.9 -34.95 -0.85 -35.15 -0.55 -36.1 -0.45 -36.35 0.05 -36.95 M-0.15 -20.05 Q0.0 -20.3 0.0 -20.6 L0.0 -21.25 -0.05 -21.85 -0.25 -22.4 -0.3 -22.45 -0.15 -22.65 -0.05 -22.7 Q0.15 -22.8 0.15 -23.0 L0.15 -24.15 0.05 -24.9 0.05 -25.3 0.0 -25.7 -0.3 -27.35 -0.35 -27.4 -0.45 -27.5 -0.85 -27.7 Q-0.95 -27.7 -1.05 -27.8 L-1.1 -27.85 -1.0 -27.95 -0.9 -28.1 -0.85 -28.5 -0.9 -28.9 -0.9 -29.15 -0.95 -29.45 -1.1 -30.45 M-4.35 -27.3 L-4.2 -28.95 -4.0 -29.65 M-3.95 -24.25 L-4.0 -25.4 -4.05 -25.7 M-2.85 -21.6 L-3.0 -22.2 -3.15 -22.6 M-2.3 -18.75 L-2.45 -19.7 -2.5 -20.1" fill="none" stroke="#8d6846" stroke-linecap="round" stroke-linejoin="round" stroke-width="0.05"/>
    <path d="M7.4 34.1 Q8.15 31.65 7.4 29.3 L6.75 27.25 6.7 28.6 Q6.65 30.35 5.25 31.65 L5.2 27.1 4.6 24.15 3.7 21.45 2.7 19.3 1.75 18.5 0.25 17.7 -1.2 18.5 -2.15 19.3 -3.15 21.45 -4.05 24.15 -4.65 27.1 -4.75 31.65 Q-6.15 30.35 -6.2 28.6 L-6.25 27.25 -6.9 29.3 Q-7.65 31.65 -6.9 34.1 L-5.8 36.4 -4.7 38.1 Q-3.05 40.35 -0.3 41.45 L0.25 41.6 0.85 41.45 Q3.55 40.35 5.2 38.1 L6.3 36.4 7.4 34.1 M-4.75 31.65 L-3.25 32.35 0.25 33.0 Q2.0 32.95 3.75 32.35 L5.25 31.65 3.75 32.35 Q2.0 32.95 0.25 33.0 L-3.25 32.35 -4.75 31.65 M2.35 33.3 Q2.7 36.2 1.35 38.65 L0.6 39.05 1.35 38.65 Q2.7 36.2 2.35 33.3 M4.45 31.0 L4.55 30.5 4.6 29.2 4.55 30.5 4.45 31.0 M1.85 30.2 Q3.6 29.4 4.55 28.05 L5.2 27.1 4.55 28.05 Q3.6 29.4 1.85 30.2 L1.8 29.6 2.65 28.9 1.35 28.45 1.15 27.6 1.05 26.85 1.1 24.75 1.4 24.15 1.1 24.75 1.05 26.85 1.15 27.6 1.35 28.45 2.65 28.9 1.8 29.6 1.85 30.2 1.95 31.95 1.85 30.2 M7.25 30.45 Q7.35 32.85 6.25 34.9 L3.7 38.55 Q2.25 40.2 1.0 40.6 L-1.1 40.45 Q-3.05 39.25 -4.2 37.75 -5.4 36.25 -6.2 34.45 -7.0 32.7 -6.7 30.25 -7.0 32.7 -6.2 34.45 -5.4 36.25 -4.2 37.75 -3.05 39.25 -1.1 40.45 L1.0 40.6 Q2.25 40.2 3.7 38.55 L6.25 34.9 Q7.35 32.85 7.25 30.45 M4.4 27.15 L4.4 26.75 4.35 25.55 4.4 26.75 4.4 27.15 M1.15 27.6 Q2.7 26.6 3.85 25.15 L4.6 24.15 3.85 25.15 Q2.7 26.6 1.15 27.6 M1.55 24.05 L1.6 24.1 1.4 24.15 1.55 24.05 2.5 23.1 3.7 21.45 2.5 23.1 1.55 24.05 0.95 23.25 Q0.45 22.1 0.9 20.85 1.15 20.2 0.5 20.3 L0.7 20.2 2.7 19.3 0.7 20.2 0.5 20.3 Q1.15 20.2 0.9 20.85 0.45 22.1 0.95 23.25 L1.55 24.05 M3.0 21.1 L2.8 20.8 2.6 20.1 2.8 20.8 3.0 21.1 M3.85 23.55 Q3.85 23.05 3.5 22.75 3.85 23.05 3.85 23.55 M1.75 18.5 L0.7 20.2 1.75 18.5 M0.05 38.5 L-0.45 37.9 -0.55 37.65 -0.85 36.7 -0.9 36.5 -0.95 36.3 -1.1 35.55 -1.15 35.35 -1.2 35.1 -1.25 34.9 -1.3 33.75 -1.25 34.9 -1.2 35.1 -1.15 35.35 -1.1 35.55 -0.95 36.3 -0.9 36.5 -0.85 36.7 -0.55 37.65 -0.45 37.9 0.05 38.5 M-1.8 33.3 Q-2.2 36.2 -0.8 38.65 L-0.05 39.05 -0.8 38.65 Q-2.2 36.2 -1.8 33.3 M-1.1 32.0 L-0.95 31.0 -0.9 30.7 -0.9 30.45 -0.85 30.05 -0.9 29.65 -1.0 29.5 -1.1 29.4 -1.05 29.35 -0.85 29.25 -0.45 29.05 -0.35 28.95 -0.3 28.9 0.0 27.25 0.05 26.85 0.05 26.45 0.15 25.7 0.15 24.55 -0.05 24.25 -0.15 24.2 -0.3 24.0 -0.25 23.95 -0.05 23.4 0.0 22.8 0.0 22.15 Q0.0 21.85 -0.15 21.6 0.0 21.85 0.0 22.15 L0.0 22.8 -0.05 23.4 -0.25 23.95 -0.3 24.0 -0.15 24.2 -0.05 24.25 0.15 24.55 0.15 25.7 0.05 26.45 0.05 26.85 0.0 27.25 -0.3 28.9 -0.35 28.95 -0.45 29.05 -0.85 29.25 -1.05 29.35 -1.1 29.4 -1.0 29.5 -0.9 29.65 -0.85 30.05 -0.9 30.45 -0.9 30.7 -0.95 31.0 -1.1 32.0 M-1.4 31.95 L-1.3 30.2 -1.25 29.6 -2.1 28.9 -0.8 28.45 -0.6 27.6 -3.35 25.15 -4.05 24.15 -3.35 25.15 -0.6 27.6 -0.8 28.45 -2.1 28.9 -1.25 29.6 -1.3 30.2 Q-3.1 29.4 -4.05 28.05 L-4.65 27.1 -4.05 28.05 Q-3.1 29.4 -1.3 30.2 L-1.4 31.95 M-4.05 27.25 L-4.0 26.95 -3.95 25.8 -4.0 26.95 -4.05 27.25 M-4.0 31.2 L-4.2 30.5 -4.35 28.85 -4.2 30.5 -4.0 31.2 M-0.6 27.6 L-0.5 26.85 -0.55 24.75 -0.85 24.15 -0.55 24.75 -0.5 26.85 -0.6 27.6 M-0.85 24.15 L-1.05 24.1 -1.0 24.05 -0.85 24.15 M-3.15 21.45 L-1.95 23.1 -1.0 24.05 -0.4 23.25 Q-0.05 22.45 -0.15 21.6 L-0.35 20.85 Q-0.65 20.2 0.05 20.3 L-2.15 19.3 0.05 20.3 Q-0.65 20.2 -0.35 20.85 L-0.15 21.6 Q-0.05 22.45 -0.4 23.25 L-1.0 24.05 -1.95 23.1 -3.15 21.45 M-2.5 21.65 L-2.45 21.25 -2.3 20.3 -2.45 21.25 -2.5 21.65 M-3.15 24.15 L-3.0 23.75 -2.85 23.15 -3.0 23.75 -3.15 24.15 M0.25 19.9 L0.25 17.7 0.25 19.9 -1.2 18.5 0.25 19.9 0.25 20.3 0.05 20.3 0.25 20.3 0.25 19.9" fill="url(#gradient2)" fill-rule="evenodd" stroke="none"/>
    <path d="M7.4 34.1 Q8.15 31.65 7.4 29.3 L6.75 27.25 6.7 28.6 Q6.65 30.35 5.25 31.65 L5.2 27.1 4.6 24.15 3.7 21.45 2.7 19.3 1.75 18.5 0.25 17.7 -1.2 18.5 -2.15 19.3 -3.15 21.45 -4.05 24.15 -4.65 27.1 -4.75 31.65 Q-6.15 30.35 -6.2 28.6 L-6.25 27.25 -6.9 29.3 Q-7.65 31.65 -6.9 34.1 L-5.8 36.4 -4.7 38.1 Q-3.05 40.35 -0.3 41.45 L0.25 41.6 0.85 41.45 Q3.55 40.35 5.2 38.1 L6.3 36.4 7.4 34.1 M0.6 39.05 L1.35 38.65 Q2.7 36.2 2.35 33.3 M5.25 31.65 L3.75 32.35 Q2.0 32.95 0.25 33.0 L-3.25 32.35 -4.75 31.65 M1.4 24.15 L1.1 24.75 1.05 26.85 1.15 27.6 1.35 28.45 2.65 28.9 1.8 29.6 1.85 30.2 1.95 31.95 M5.2 27.1 L4.55 28.05 Q3.6 29.4 1.85 30.2 M4.6 24.15 L3.85 25.15 Q2.7 26.6 1.15 27.6 M1.55 24.05 L1.4 24.15 1.6 24.1 1.55 24.05 2.5 23.1 3.7 21.45 M1.55 24.05 L0.95 23.25 Q0.45 22.1 0.9 20.85 1.15 20.2 0.5 20.3 L0.7 20.2 2.7 19.3 M0.7 20.2 L1.75 18.5 M-0.05 39.05 L-0.8 38.65 Q-2.2 36.2 -1.8 33.3 M-4.05 24.15 L-3.35 25.15 -0.6 27.6 -0.8 28.45 -2.1 28.9 -1.25 29.6 -1.3 30.2 Q-3.1 29.4 -4.05 28.05 L-4.65 27.1 M-1.3 30.2 L-1.4 31.95 M-0.85 24.15 L-0.55 24.75 -0.5 26.85 -0.6 27.6 M-0.85 24.15 L-1.05 24.1 -1.0 24.05 -0.85 24.15 M-2.15 19.3 L0.05 20.3 Q-0.65 20.2 -0.35 20.85 L-0.15 21.6 Q-0.05 22.45 -0.4 23.25 L-1.0 24.05 -1.95 23.1 -3.15 21.45 M-1.2 18.5 L0.25 19.9 0.25 20.3 0.05 20.3 M0.25 17.7 L0.25 19.9" fill="none" stroke="#000000" stroke-linecap="round" stroke-linejoin="round" stroke-width="0.05"/>
    <path d="M4.6 29.2 L4.55 30.5 4.45 31.0 M4.35 25.55 L4.4 26.75 4.4 27.15 M-6.7 30.25 Q-7.0 32.7 -6.2 34.45 -5.4 36.25 -4.2 37.75 -3.05 39.25 -1.1 40.45 L1.0 40.6 Q2.25 40.2 3.7 38.55 L6.25 34.9 Q7.35 32.85 7.25 30.45 M3.5 22.75 Q3.85 23.05 3.85 23.55 M2.6 20.1 L2.8 20.8 3.0 21.1 M-1.3 33.75 L-1.25 34.9 -1.2 35.1 -1.15 35.35 -1.1 35.55 -0.95 36.3 -0.9 36.5 -0.85 36.7 -0.55 37.65 -0.45 37.9 0.05 38.5 M-0.15 21.6 Q0.0 21.85 0.0 22.15 L0.0 22.8 -0.05 23.4 -0.25 23.95 -0.3 24.0 -0.15 24.2 -0.05 24.25 0.15 24.55 0.15 25.7 0.05 26.45 0.05 26.85 0.0 27.25 -0.3 28.9 -0.35 28.95 -0.45 29.05 -0.85 29.25 -1.05 29.35 -1.1 29.4 -1.0 29.5 -0.9 29.65 -0.85 30.05 -0.9 30.45 -0.9 30.7 -0.95 31.0 -1.1 32.0 M-4.35 28.85 L-4.2 30.5 -4.0 31.2 M-3.95 25.8 L-4.0 26.95 -4.05 27.25 M-2.85 23.15 L-3.0 23.75 -3.15 24.15 M-2.3 20.3 L-2.45 21.25 -2.5 21.65" fill="none" stroke="#8d6846" stroke-linecap="round" stroke-linejoin="round" stroke-width="0.05"/>
  </g>
  <defs>
    <linearGradient gradientTransform="matrix(0.0015, 0.0, 0.0, 0.022, 0.4, 1.35)" gradientUnits="userSpaceOnUse" id="gradient0" spreadMethod="pad" x1="-819.2" x2="819.2">
      <stop offset="0.0" stop-color="#302518"/>
      <stop offset="0.5450980392156862" stop-color="#685135"/>
      <stop offset="1.0" stop-color="#302518"/>
    </linearGradient>
    <radialGradient cx="0" cy="0" gradientTransform="matrix(0.0116, 0.0, 0.0, 0.0206, 0.5, -33.25)" gradientUnits="userSpaceOnUse" id="gradient1" r="819.2" spreadMethod="pad">
      <stop offset="0.0" stop-color="#685135"/>
      <stop offset="1.0" stop-color="#302518"/>
    </radialGradient>
    <radialGradient cx="0" cy="0" gradientTransform="matrix(0.0116, 0.0, 0.0, -0.0206, 0.5, 34.8)" gradientUnits="userSpaceOnUse" id="gradient2" r="819.2" spreadMethod="pad">
      <stop offset="0.0" stop-color="#685135"/>
      <stop offset="1.0" stop-color="#302518"/>
    </radialGradient>
  </defs>
</svg>
