<?xml version="1.0" encoding="UTF-8" standalone="no"?>
<svg xmlns:xlink="http://www.w3.org/1999/xlink" height="80.0px" width="20.0px" xmlns="http://www.w3.org/2000/svg">
  <g transform="matrix(1.0, 0.0, 0.0, 1.0, 0.0, 0.0)">
    <path d="M1.0 -11.2 L1.0 -8.2 0.05 -6.65 -1.0 -5.0 -1.0 -11.2 0.05 -11.2 1.0 -11.2 M0.05 -6.65 L0.05 -11.2 0.05 -6.65" fill="#ffffff" fill-rule="evenodd" stroke="none"/>
    <path d="M1.0 5.05 L1.0 11.1 0.05 11.1 0.05 6.6 0.05 11.1 -1.0 11.1 -1.0 8.25 0.05 6.6 1.0 5.05" fill="#000000" fill-rule="evenodd" stroke="none"/>
    <path d="M-1.0 -11.2 L-1.0 -21.6 1.0 -21.6 1.0 -11.2 0.05 -11.2 -1.0 -11.2 M1.0 -8.2 L1.0 5.05 0.05 6.6 0.05 -6.65 1.0 -8.2 M1.0 11.1 L1.0 21.0 -1.0 21.0 -1.0 11.1 0.05 11.1 0.05 17.05 0.05 11.1 1.0 11.1 M-1.0 8.25 L-1.0 -5.0 0.05 -6.65 0.05 6.6 -1.0 8.25 M0.05 -18.2 L0.05 -11.2 0.05 -18.2" fill="url(#gradient0)" fill-rule="evenodd" stroke="none"/>
    <path d="M-1.0 -11.2 L-1.0 -21.6 1.0 -21.6 1.0 -11.2 1.0 -8.2 1.0 5.05 1.0 11.1 1.0 21.0 -1.0 21.0 -1.0 11.1 -1.0 8.25 -1.0 -5.0 -1.0 -11.2" fill="none" stroke="#000000" stroke-linecap="round" stroke-linejoin="round" stroke-width="0.05"/>
    <path d="M0.05 -11.2 L0.05 -18.2 M0.05 -11.2 L0.05 -6.65 0.05 6.6 0.05 11.1 0.05 17.05" fill="none" stroke="#ffff66" stroke-linecap="round" stroke-linejoin="round" stroke-width="0.05"/>
    <path d="M1.55 -24.8 Q3.05 -24.45 4.25 -23.25 6.0 -21.5 6.0 -19.0 6.0 -16.5 4.25 -14.8 2.5 -13.0 0.0 -13.0 -2.5 -13.0 -4.25 -14.8 -6.0 -16.5 -6.0 -19.0 -6.0 -21.5 -4.25 -23.25 -3.05 -24.45 -1.5 -24.8 -2.6 -24.45 -3.5 -23.5 -5.0 -22.1 -5.0 -20.0 -5.0 -17.95 -3.5 -16.5 -2.1 -15.0 0.0 -15.0 2.1 -15.0 3.6 -16.5 5.0 -17.95 5.0 -20.0 5.0 -22.1 3.6 -23.5 2.65 -24.45 1.55 -24.8" fill="url(#gradient1)" fill-rule="evenodd" stroke="none"/>
    <path d="M1.55 -24.8 Q2.65 -24.45 3.6 -23.5 5.0 -22.1 5.0 -20.0 5.0 -17.95 3.6 -16.5 2.1 -15.0 0.0 -15.0 -2.1 -15.0 -3.5 -16.5 -5.0 -17.95 -5.0 -20.0 -5.0 -22.1 -3.5 -23.5 -2.6 -24.45 -1.5 -24.8 -3.05 -24.45 -4.25 -23.25 -6.0 -21.5 -6.0 -19.0 -6.0 -16.5 -4.25 -14.8 -2.5 -13.0 0.0 -13.0 2.5 -13.0 4.25 -14.8 6.0 -16.5 6.0 -19.0 6.0 -21.5 4.25 -23.25 3.05 -24.45 1.55 -24.8 Z" fill="none" stroke="#000000" stroke-linecap="round" stroke-linejoin="round" stroke-width="0.05"/>
    <path d="M5.0 19.0 Q5.0 16.95 3.6 15.5 2.1 14.0 0.0 14.0 -2.1 14.0 -3.5 15.5 -5.0 16.95 -5.0 19.0 -5.0 21.1 -3.5 22.5 -2.6 23.45 -1.5 23.8 -3.05 23.45 -4.25 22.25 -6.0 20.5 -6.0 18.0 -6.0 15.5 -4.25 13.8 -2.5 12.0 0.0 12.0 2.5 12.0 4.25 13.8 6.0 15.5 6.0 18.0 6.0 20.5 4.25 22.25 3.05 23.45 1.55 23.8 2.65 23.45 3.6 22.5 5.0 21.1 5.0 19.0" fill="url(#gradient2)" fill-rule="evenodd" stroke="none"/>
    <path d="M5.0 19.0 Q5.0 16.95 3.6 15.5 2.1 14.0 0.0 14.0 -2.1 14.0 -3.5 15.5 -5.0 16.95 -5.0 19.0 -5.0 21.1 -3.5 22.5 -2.6 23.45 -1.5 23.8 -3.05 23.45 -4.25 22.25 -6.0 20.5 -6.0 18.0 -6.0 15.5 -4.25 13.8 -2.5 12.0 0.0 12.0 2.5 12.0 4.25 13.8 6.0 15.5 6.0 18.0 6.0 20.5 4.25 22.25 3.05 23.45 1.55 23.8 2.65 23.45 3.6 22.5 5.0 21.1 5.0 19.0 Z" fill="none" stroke="#000000" stroke-linecap="round" stroke-linejoin="round" stroke-width="0.05"/>
    <path d="M7.05 -37.1 Q10.0 -34.15 10.0 -30.0 10.0 -25.9 7.05 -22.95 4.2 -20.1 0.25 -20.0 L-0.3 -20.0 Q-2.2 -20.15 -3.55 -21.5 -5.0 -22.95 -5.0 -25.05 -5.0 -27.1 -3.55 -28.55 -2.1 -30.0 -0.1 -30.0 L0.05 -30.0 Q2.1 -30.05 3.5 -31.5 5.0 -32.95 5.0 -35.0 5.0 -37.1 3.5 -38.55 2.15 -39.9 0.25 -40.0 4.2 -39.95 7.05 -37.1 M1.0 -26.05 Q0.6 -26.45 0.0 -26.45 -0.6 -26.45 -1.0 -26.05 L-1.45 -25.0 Q-1.45 -24.45 -1.0 -24.0 -0.6 -23.6 0.0 -23.6 0.6 -23.6 1.0 -24.0 1.4 -24.45 1.4 -25.0 1.4 -25.6 1.0 -26.05 M0.0 26.4 Q-0.6 26.4 -1.0 26.0 L-1.45 25.0 Q-1.45 24.4 -1.0 23.95 -0.6 23.55 0.0 23.55 0.6 23.55 1.0 23.95 1.4 24.4 1.4 25.0 1.4 25.55 1.0 26.0 0.6 26.4 0.0 26.4" fill="#000000" fill-rule="evenodd" stroke="none"/>
    <path d="M1.0 -26.05 Q1.4 -25.6 1.4 -25.0 1.4 -24.45 1.0 -24.0 0.6 -23.6 0.0 -23.6 -0.6 -23.6 -1.0 -24.0 -1.45 -24.45 -1.45 -25.0 L-1.0 -26.05 Q-0.6 -26.45 0.0 -26.45 0.6 -26.45 1.0 -26.05 M0.0 26.4 Q0.6 26.4 1.0 26.0 1.4 25.55 1.4 25.0 1.4 24.4 1.0 23.95 0.6 23.55 0.0 23.55 -0.6 23.55 -1.0 23.95 -1.45 24.4 -1.45 25.0 L-1.0 26.0 Q-0.6 26.4 0.0 26.4 M-0.3 40.0 Q-4.25 39.85 -7.1 37.05 -10.0 34.1 -10.0 30.0 -10.0 25.85 -7.1 22.9 -4.25 20.1 -0.3 20.0 L0.25 20.0 Q2.15 20.1 3.5 21.45 5.0 22.9 5.0 25.0 5.0 27.05 3.5 28.5 2.1 29.95 0.05 30.0 L-0.1 30.0 Q-2.1 30.0 -3.55 31.45 -5.0 32.9 -5.0 34.95 -5.0 37.05 -3.55 38.5 -2.2 39.85 -0.3 40.0" fill="#ffffff" fill-rule="evenodd" stroke="none"/>
    <path d="M7.05 -37.1 Q4.2 -39.95 0.25 -40.0 2.15 -39.9 3.5 -38.55 5.0 -37.1 5.0 -35.0 5.0 -32.95 3.5 -31.5 2.1 -30.05 0.05 -30.0 L-0.1 -30.0 Q-2.1 -30.0 -3.55 -28.55 -5.0 -27.1 -5.0 -25.05 -5.0 -22.95 -3.55 -21.5 -2.2 -20.15 -0.3 -20.0 L0.25 -20.0 Q4.2 -20.1 7.05 -22.95 10.0 -25.9 10.0 -30.0 10.0 -34.15 7.05 -37.1 M-0.3 40.0 Q-4.25 39.85 -7.1 37.05 -10.0 34.1 -10.0 30.0 -10.0 25.85 -7.1 22.9 -4.25 20.1 -0.3 20.0 L0.25 20.0 Q2.15 20.1 3.5 21.45 5.0 22.9 5.0 25.0 5.0 27.05 3.5 28.5 2.1 29.95 0.05 30.0 L-0.1 30.0 Q-2.1 30.0 -3.55 31.45 -5.0 32.9 -5.0 34.95 -5.0 37.05 -3.55 38.5 -2.2 39.85 -0.3 40.0 L0.25 40.0 M-0.3 -40.0 L0.25 -40.0" fill="none" stroke="#000000" stroke-linecap="round" stroke-linejoin="round" stroke-width="0.05"/>
  </g>
  <defs>
    <linearGradient gradientTransform="matrix(0.0012, 0.0, 0.0, 0.026, 0.0, -0.3)" gradientUnits="userSpaceOnUse" id="gradient0" spreadMethod="pad" x1="-819.2" x2="819.2">
      <stop offset="0.0" stop-color="#996715"/>
      <stop offset="0.13725490196078433" stop-color="#e3af39"/>
      <stop offset="0.49411764705882355" stop-color="#fff4b5"/>
      <stop offset="0.8705882352941177" stop-color="#e3af39"/>
      <stop offset="1.0" stop-color="#9e6a16"/>
    </linearGradient>
    <linearGradient gradientTransform="matrix(0.0073, 0.0, 0.0, 0.0073, 0.0, -19.0)" gradientUnits="userSpaceOnUse" id="gradient1" spreadMethod="pad" x1="-819.2" x2="819.2">
      <stop offset="0.0" stop-color="#996715"/>
      <stop offset="0.13725490196078433" stop-color="#e3af39"/>
      <stop offset="0.49411764705882355" stop-color="#fff4b5"/>
      <stop offset="0.8705882352941177" stop-color="#e3af39"/>
      <stop offset="1.0" stop-color="#9e6a16"/>
    </linearGradient>
    <linearGradient gradientTransform="matrix(0.0073, 0.0, 0.0, -0.0073, 0.0, 18.0)" gradientUnits="userSpaceOnUse" id="gradient2" spreadMethod="pad" x1="-819.2" x2="819.2">
      <stop offset="0.0" stop-color="#996715"/>
      <stop offset="0.13725490196078433" stop-color="#e3af39"/>
      <stop offset="0.49411764705882355" stop-color="#fff4b5"/>
      <stop offset="0.8705882352941177" stop-color="#e3af39"/>
      <stop offset="1.0" stop-color="#9e6a16"/>
    </linearGradient>
  </defs>
</svg>
