<?xml version="1.0" encoding="UTF-8" standalone="no"?>
<svg xmlns:xlink="http://www.w3.org/1999/xlink" height="87.4px" width="13.0px" xmlns="http://www.w3.org/2000/svg">
  <g transform="matrix(1.0, 0.0, 0.0, 1.0, 0.0, 0.0)">
    <path d="M0.85 -13.3 L0.85 15.25 -0.65 15.25 -0.65 -13.3 0.85 -13.3 M0.25 -12.7 L0.25 14.05 0.25 -12.7" fill="#a0783b" fill-rule="evenodd" stroke="none"/>
    <path d="M1.2 11.35 L1.95 11.1 Q3.5 10.8 4.8 11.65 2.9 12.25 1.2 11.35 M1.65 -10.6 Q1.85 -10.85 2.1 -10.45 3.25 -9.45 3.2 -7.95 2.15 -8.8 1.65 -10.2 L1.65 -10.6 M5.95 -10.65 L6.55 -10.1 7.05 -9.5 Q7.5 -9.0 7.3 -8.65 L7.05 -8.7 Q5.6 -9.2 4.3 -9.85 3.1 -10.4 2.25 -11.35 L3.25 -11.45 Q4.8 -11.65 5.95 -10.65 M-2.25 -10.15 Q-3.1 -9.45 -5.1 -9.1 -4.0 -10.6 -2.05 -11.2 L-0.95 -11.35 -2.25 -10.15 M-4.95 10.55 L-5.2 10.2 -2.55 10.5 Q-1.45 10.65 -0.9 11.7 L-2.75 13.3 -5.65 14.25 Q-5.35 12.8 -3.55 12.15 -2.5 11.65 -1.25 11.75 L-2.9 11.55 -4.95 10.55" fill="#ffcc00" fill-opacity="0.92156863" fill-rule="evenodd" stroke="none"/>
    <path d="M5.95 -10.65 Q4.8 -11.65 3.25 -11.45 L2.25 -11.35 Q3.1 -10.4 4.3 -9.85 5.6 -9.2 7.05 -8.7 L7.3 -8.65 Q7.5 -9.0 7.05 -9.5 L6.55 -10.1 5.95 -10.65 M1.65 -10.6 L1.65 -10.2 Q2.15 -8.8 3.2 -7.95 3.25 -9.45 2.1 -10.45 1.85 -10.85 1.65 -10.6 M1.2 11.35 Q2.9 12.25 4.8 11.65 3.5 10.8 1.95 11.1 L1.2 11.35 M0.85 -13.3 L-0.65 -13.3 -0.65 15.25 0.85 15.25 0.85 -13.3 M-2.25 -10.15 Q-3.1 -9.45 -5.1 -9.1 -4.0 -10.6 -2.05 -11.2 L-0.95 -11.35 -2.25 -10.15 M-4.95 10.55 L-5.2 10.2 -2.55 10.5 Q-1.45 10.65 -0.9 11.7 L-2.75 13.3 -5.65 14.25 Q-5.35 12.8 -3.55 12.15 -2.5 11.65 -1.25 11.75 L-2.9 11.55 -4.95 10.55" fill="none" stroke="#000000" stroke-linecap="round" stroke-linejoin="round" stroke-width="0.05"/>
    <path d="M0.25 14.05 L0.25 -12.7" fill="none" stroke="#ffcc00" stroke-linecap="round" stroke-linejoin="round" stroke-width="0.05"/>
    <path d="M-2.05 -14.1 L-2.45 -14.85 Q-4.3 -16.95 -5.0 -19.5 -3.85 -18.65 -2.1 -18.15 L-3.0 -19.1 Q-6.15 -22.4 -5.55 -27.0 -5.05 -24.3 -2.7 -22.5 -3.95 -23.95 -4.4 -25.85 -5.65 -30.1 -4.35 -34.3 -4.15 -31.3 -2.6 -28.8 -4.4 -33.8 -2.85 -38.8 -2.5 -35.7 -1.2 -33.05 -1.95 -39.0 1.95 -43.15 L1.6 -42.2 Q1.15 -40.3 1.3 -38.5 -0.6 -31.65 2.55 -25.35 1.45 -25.65 1.0 -26.55 L0.2 -27.85 Q0.4 -26.6 0.75 -25.4 1.25 -22.95 2.15 -20.4 4.0 -14.55 -2.05 -14.1 M-0.45 -21.45 L-0.55 -23.0 -1.5 -23.95 0.15 -24.3 -1.5 -23.95 -0.55 -23.0 0.3 -22.45 0.8 -19.35 0.3 -22.45 -0.55 -23.0 -0.45 -21.45 -0.3 -19.95 -1.1 -20.45 -1.35 -20.0 -0.75 -19.15 -1.35 -20.0 -1.1 -20.45 -0.3 -19.95 -0.45 -21.45 -2.35 -21.05 -3.6 -21.9 -2.35 -21.05 -0.45 -21.45 M-0.75 -25.65 L-2.25 -27.7 -0.3 -28.0 -2.25 -27.7 -0.75 -25.65 M-1.5 -29.6 L-0.05 -29.6 -0.3 -29.95 -1.8 -31.9 -0.3 -29.95 -0.05 -29.6 -1.5 -29.6 M-1.45 -16.45 L-1.05 -17.1 -0.2 -16.65 0.05 -17.4 0.45 -17.85 0.75 -16.35 1.05 -16.4 1.3 -16.55 1.4 -16.75 Q1.7 -17.35 1.35 -17.85 1.7 -17.35 1.4 -16.75 L1.3 -16.55 1.05 -16.4 0.75 -16.35 0.45 -17.85 0.05 -17.4 -0.2 -16.65 -1.05 -17.1 -1.45 -16.45" fill="#c9b34f" fill-rule="evenodd" stroke="none"/>
    <path d="M-2.05 -14.1 Q4.0 -14.55 2.15 -20.4 1.25 -22.95 0.75 -25.4 0.4 -26.6 0.2 -27.85 L1.0 -26.55 Q1.45 -25.65 2.55 -25.35 -0.6 -31.65 1.3 -38.5 3.1 -30.75 5.25 -23.15 6.3 -19.7 5.05 -16.1 2.9 -9.2 -2.85 -13.05 L-2.05 -13.5 -2.05 -14.1 M0.5 -13.25 L2.15 -13.95 2.75 -14.55 4.2 -17.2 Q5.3 -19.95 4.6 -22.8 L3.0 -28.45 2.3 -31.95 1.65 -34.45 2.3 -31.95 3.0 -28.45 4.6 -22.8 Q5.3 -19.95 4.2 -17.2 L2.75 -14.55 2.15 -13.95 0.5 -13.25" fill="#ffcc33" fill-rule="evenodd" stroke="none"/>
    <path d="M1.3 -38.5 Q1.15 -40.3 1.6 -42.2 L1.95 -43.15 Q-1.95 -39.0 -1.2 -33.05 -2.5 -35.7 -2.85 -38.8 -4.4 -33.8 -2.6 -28.8 -4.15 -31.3 -4.35 -34.3 -5.65 -30.1 -4.4 -25.85 -3.95 -23.95 -2.7 -22.5 -5.05 -24.3 -5.55 -27.0 -6.15 -22.4 -3.0 -19.1 L-2.1 -18.15 Q-3.85 -18.65 -5.0 -19.5 -4.3 -16.95 -2.45 -14.85 L-2.05 -14.1 Q4.0 -14.55 2.15 -20.4 1.25 -22.95 0.75 -25.4 0.4 -26.6 0.2 -27.85 L1.0 -26.55 Q1.45 -25.65 2.55 -25.35 -0.6 -31.65 1.3 -38.5 3.1 -30.75 5.25 -23.15 6.3 -19.7 5.05 -16.1 2.9 -9.2 -2.85 -13.05 L-2.05 -13.5 -2.05 -14.1" fill="none" stroke="#000000" stroke-linecap="round" stroke-linejoin="round" stroke-width="0.05"/>
    <path d="M1.65 -34.45 L2.3 -31.95 3.0 -28.45 4.6 -22.8 Q5.3 -19.95 4.2 -17.2 L2.75 -14.55 2.15 -13.95 0.5 -13.25" fill="none" stroke="#ffffcc" stroke-linecap="round" stroke-linejoin="round" stroke-width="0.05"/>
    <path d="M1.35 -17.85 Q1.7 -17.35 1.4 -16.75 L1.3 -16.55 1.05 -16.4 0.75 -16.35 0.45 -17.85 0.05 -17.4 -0.2 -16.65 -1.05 -17.1 -1.45 -16.45 M0.15 -24.3 L-1.5 -23.95 -0.55 -23.0 0.3 -22.45 0.8 -19.35 M-0.75 -19.15 L-1.35 -20.0 -1.1 -20.45 -0.3 -19.95 -0.45 -21.45 -2.35 -21.05 -3.6 -21.9 M-1.8 -31.9 L-0.3 -29.95 -0.05 -29.6 -1.5 -29.6 M-0.3 -28.0 L-2.25 -27.7 -0.75 -25.65 M-0.55 -23.0 L-0.45 -21.45" fill="none" stroke="#ffff00" stroke-linecap="round" stroke-linejoin="round" stroke-width="0.05"/>
    <path d="M3.4 15.2 L3.8 15.95 Q5.65 18.05 6.35 20.6 5.2 19.75 3.45 19.25 L4.35 20.2 Q7.5 23.5 6.9 28.1 6.4 25.4 4.05 23.6 5.3 25.05 5.75 26.95 7.0 31.2 5.7 35.4 5.5 32.4 3.95 29.9 5.75 34.9 4.2 39.9 3.85 36.8 2.55 34.15 3.3 40.1 -0.6 44.25 L-0.25 43.3 Q0.2 41.4 0.05 39.6 1.95 32.75 -1.2 26.45 -0.1 26.75 0.35 27.65 L1.15 28.95 0.6 26.5 Q0.1 24.05 -0.8 21.5 -2.65 15.65 3.4 15.2 M1.8 22.55 L1.9 24.1 2.85 25.05 1.2 25.4 2.85 25.05 1.9 24.1 1.05 23.55 0.55 20.45 1.05 23.55 1.9 24.1 1.8 22.55 1.65 21.05 2.45 21.55 2.7 21.1 2.1 20.25 2.7 21.1 2.45 21.55 1.65 21.05 1.8 22.55 3.7 22.15 4.95 23.0 3.7 22.15 1.8 22.55 M2.85 30.7 L1.4 30.7 1.65 31.05 3.15 33.0 1.65 31.05 1.4 30.7 2.85 30.7 M2.1 26.75 L3.6 28.8 1.65 29.1 3.6 28.8 2.1 26.75 M2.8 17.55 L2.4 18.2 1.55 17.75 1.3 18.5 0.9 18.95 0.6 17.45 0.3 17.5 Q0.15 17.5 0.05 17.65 L-0.05 17.85 Q-0.35 18.45 0.0 18.95 -0.35 18.45 -0.05 17.85 L0.05 17.65 Q0.15 17.5 0.3 17.5 L0.6 17.45 0.9 18.95 1.3 18.5 1.55 17.75 2.4 18.2 2.8 17.55" fill="#c9b34f" fill-rule="evenodd" stroke="none"/>
    <path d="M3.4 15.2 Q-2.65 15.65 -0.8 21.5 0.1 24.05 0.6 26.5 L1.15 28.95 0.35 27.65 Q-0.1 26.75 -1.2 26.45 1.95 32.75 0.05 39.6 -1.75 31.85 -3.9 24.25 -4.95 20.8 -3.7 17.2 -1.55 10.3 4.2 14.15 L3.4 14.6 3.4 15.2 M0.85 14.35 L-0.8 15.05 -1.4 15.65 -2.85 18.3 Q-3.95 21.05 -3.25 23.9 L-1.65 29.55 -0.95 33.05 -0.3 35.55 -0.95 33.05 -1.65 29.55 -3.25 23.9 Q-3.95 21.05 -2.85 18.3 L-1.4 15.65 -0.8 15.05 0.85 14.35" fill="#ffcc33" fill-rule="evenodd" stroke="none"/>
    <path d="M0.05 39.6 Q0.2 41.4 -0.25 43.3 L-0.6 44.25 Q3.3 40.1 2.55 34.15 3.85 36.8 4.2 39.9 5.75 34.9 3.95 29.9 5.5 32.4 5.7 35.4 7.0 31.2 5.75 26.95 5.3 25.05 4.05 23.6 6.4 25.4 6.9 28.1 7.5 23.5 4.35 20.2 L3.45 19.25 Q5.2 19.75 6.35 20.6 5.65 18.05 3.8 15.95 L3.4 15.2 Q-2.65 15.65 -0.8 21.5 0.1 24.05 0.6 26.5 L1.15 28.95 0.35 27.65 Q-0.1 26.75 -1.2 26.45 1.95 32.75 0.05 39.6 -1.75 31.85 -3.9 24.25 -4.95 20.8 -3.7 17.2 -1.55 10.3 4.2 14.15 L3.4 14.6 3.4 15.2" fill="none" stroke="#000000" stroke-linecap="round" stroke-linejoin="round" stroke-width="0.05"/>
    <path d="M-0.3 35.55 L-0.95 33.05 -1.65 29.55 -3.25 23.9 Q-3.95 21.05 -2.85 18.3 L-1.4 15.65 -0.8 15.05 0.85 14.35" fill="none" stroke="#ffffcc" stroke-linecap="round" stroke-linejoin="round" stroke-width="0.05"/>
    <path d="M0.0 18.95 Q-0.35 18.45 -0.05 17.85 L0.05 17.65 Q0.15 17.5 0.3 17.5 L0.6 17.45 0.9 18.95 1.3 18.5 1.55 17.75 2.4 18.2 2.8 17.55 M1.2 25.4 L2.85 25.05 1.9 24.1 1.05 23.55 0.55 20.45 M2.1 20.25 L2.7 21.1 2.45 21.55 1.65 21.05 1.8 22.55 3.7 22.15 4.95 23.0 M1.65 29.1 L3.6 28.8 2.1 26.75 M3.15 33.0 L1.65 31.05 1.4 30.7 2.85 30.7 M1.9 24.1 L1.8 22.55" fill="none" stroke="#ffff00" stroke-linecap="round" stroke-linejoin="round" stroke-width="0.05"/>
  </g>
</svg>
