<?xml version="1.0" encoding="UTF-8" standalone="no"?>
<svg xmlns:xlink="http://www.w3.org/1999/xlink" height="70.0px" width="70.0px" xmlns="http://www.w3.org/2000/svg">
  <g transform="matrix(1.0, 0.0, 0.0, 1.0, 0.0, 0.0)">
    <path d="M35.9 0.05 Q49.8 0.3 59.7 10.25 70.0 20.5 70.0 35.05 70.0 49.5 59.7 59.75 49.8 69.7 35.9 70.0 L34.95 70.0 34.8 70.0 33.9 70.0 Q27.35 69.6 22.6 64.8 17.5 59.7 17.5 52.45 17.5 45.25 22.6 40.1 27.6 35.1 34.75 35.0 L35.2 35.0 Q42.35 34.9 47.35 29.8 52.5 24.7 52.5 17.55 52.5 10.25 47.35 5.1 42.6 0.35 35.9 0.05 M38.55 21.0 Q37.05 22.5 35.0 22.5 32.9 22.5 31.45 21.0 30.0 19.55 30.0 17.5 30.0 15.45 31.45 13.95 32.9 12.5 35.0 12.5 37.05 12.5 38.55 13.95 40.0 15.45 40.0 17.5 40.0 19.55 38.55 21.0 M35.0 47.5 Q32.9 47.5 31.45 48.95 30.0 50.45 30.0 52.5 30.0 54.55 31.45 56.0 32.9 57.5 35.0 57.5 37.05 57.5 38.55 56.0 40.0 54.55 40.0 52.5 40.0 50.45 38.55 48.95 37.05 47.5 35.0 47.5" fill="#000000" fill-rule="evenodd" stroke="none"/>
    <path d="M35.9 0.05 Q42.6 0.35 47.35 5.1 52.5 10.25 52.5 17.55 52.5 24.7 47.35 29.8 42.35 34.9 35.2 35.0 L34.75 35.0 Q27.6 35.1 22.6 40.1 17.5 45.25 17.5 52.45 17.5 59.7 22.6 64.8 27.35 69.6 33.9 70.0 20.1 69.6 10.25 59.75 0.0 49.5 0.0 35.0 0.0 20.5 10.25 10.25 20.1 0.4 33.95 0.05 L34.8 0.0 34.95 0.0 35.9 0.05 M38.55 21.0 Q40.0 19.55 40.0 17.5 40.0 15.45 38.55 13.95 37.05 12.5 35.0 12.5 32.9 12.5 31.45 13.95 30.0 15.45 30.0 17.5 30.0 19.55 31.45 21.0 32.9 22.5 35.0 22.5 37.05 22.5 38.55 21.0 M35.0 47.5 Q37.05 47.5 38.55 48.95 40.0 50.45 40.0 52.5 40.0 54.55 38.55 56.0 37.05 57.5 35.0 57.5 32.9 57.5 31.45 56.0 30.0 54.55 30.0 52.5 30.0 50.45 31.45 48.95 32.9 47.5 35.0 47.5" fill="#ffffff" fill-rule="evenodd" stroke="none"/>
  </g>
</svg>
