<?xml version="1.0" encoding="UTF-8" standalone="no"?>
<svg xmlns:xlink="http://www.w3.org/1999/xlink" height="4.05px" width="14.7px" xmlns="http://www.w3.org/2000/svg">
  <g transform="matrix(1.0, 0.0, 0.0, 1.0, 0.0, 0.0)">
    <path d="M6.35 0.55 L6.25 1.65 5.95 2.35 5.6 2.65 5.65 3.95 4.0 4.2 2.1 3.95 0.65 3.3 0.6 1.1 0.6 0.8 6.0 0.5 6.35 0.55 M0.6 1.1 L1.95 1.0 3.55 0.9 5.0 0.85 Q5.65 0.85 6.0 0.5 5.65 0.85 5.0 0.85 L3.55 0.9 1.95 1.0 0.6 1.1" fill="#446237" fill-rule="evenodd" stroke="none"/>
    <path d="M13.95 0.15 Q14.95 0.45 15.25 1.55 15.5 2.55 14.85 3.4 L11.6 3.7 11.05 3.0 Q9.6 2.65 8.1 3.35 7.4 3.35 7.15 2.75 L7.05 2.6 6.45 2.65 7.05 2.6 7.15 2.75 Q7.4 3.35 8.1 3.35 L6.7 3.75 5.65 3.95 5.6 2.65 5.95 2.35 6.25 1.65 6.35 0.55 7.1 0.6 7.75 0.65 13.95 0.15 Q14.55 0.65 14.0 1.15 L14.3 1.6 14.0 1.15 Q14.55 0.65 13.95 0.15 M5.95 2.35 L6.65 2.3 6.9 1.75 7.1 0.6 6.9 1.75 6.65 2.3 7.1 2.25 6.65 2.3 5.95 2.35 M7.05 2.6 L7.1 2.5 7.1 2.25 7.3 1.95 7.5 1.45 7.75 0.65 7.5 1.45 7.3 1.95 7.1 2.25 7.1 2.5 7.05 2.6 M5.6 2.65 L6.45 2.65 6.7 3.75 6.45 2.65 5.6 2.65" fill="#625537" fill-rule="evenodd" stroke="none"/>
    <path d="M8.1 3.35 Q9.6 2.65 11.05 3.0 L11.6 3.7 14.85 3.4 Q15.5 2.55 15.25 1.55 14.95 0.45 13.95 0.15 L7.75 0.65 7.1 0.6 6.35 0.55 6.0 0.5 0.6 0.8 M0.65 3.3 L2.1 3.95 4.0 4.2 5.65 3.95 6.7 3.75 8.1 3.35" fill="none" stroke="#000000" stroke-linecap="round" stroke-linejoin="round" stroke-width="0.05"/>
    <path d="M13.95 0.15 Q14.55 0.65 14.0 1.15 L14.3 1.6 M5.65 3.95 L5.6 2.65 5.95 2.35 6.25 1.65 6.35 0.55 M6.7 3.75 L6.45 2.65 5.6 2.65 M8.1 3.35 Q7.4 3.35 7.15 2.75 L7.05 2.6 6.45 2.65 M7.75 0.65 L7.5 1.45 7.3 1.95 7.1 2.25 7.1 2.5 7.05 2.6 M7.1 0.6 L6.9 1.75 6.65 2.3 7.1 2.25 M6.65 2.3 L5.95 2.35" fill="none" stroke="#112f04" stroke-linecap="round" stroke-linejoin="round" stroke-width="0.05"/>
    <path d="M6.0 0.5 Q5.65 0.85 5.0 0.85 L3.55 0.9 1.95 1.0 0.6 1.1" fill="none" stroke="#7f913a" stroke-linecap="round" stroke-linejoin="round" stroke-width="0.05"/>
  </g>
</svg>
