<?xml version="1.0" encoding="UTF-8" standalone="no"?>
<svg xmlns:xlink="http://www.w3.org/1999/xlink" height="10.35px" width="11.4px" xmlns="http://www.w3.org/2000/svg">
  <g transform="matrix(1.0, 0.0, 0.0, 1.0, 0.0, 0.0)">
    <path d="M3.75 1.25 L3.7 4.15 3.65 4.55 3.4 5.05 2.35 5.25 1.2 4.9 0.0 4.55 -0.45 4.05 Q-0.45 2.8 0.05 1.65 L0.7 0.25 1.7 -1.6 2.1 -1.25 2.25 -0.9 2.5 0.1 2.55 0.85 3.75 1.25 M0.95 4.4 L0.5 4.3 0.4 4.2 0.1 4.1 0.0 4.0 -0.05 3.75 Q0.1 2.85 0.5 1.85 L1.15 0.2 Q1.4 -0.7 2.1 -1.25 1.4 -0.7 1.15 0.2 L0.5 1.85 Q0.1 2.85 -0.05 3.75 L0.0 4.0 0.1 4.1 0.4 4.2 0.5 4.3 0.95 4.4 M8.05 0.4 L10.85 1.25 10.9 1.85 10.75 3.55 10.15 3.95 7.9 4.7 5.35 4.85 5.75 3.6 6.65 2.2 7.7 1.0 8.05 0.4 M8.1 0.95 L10.0 1.3 8.1 0.95 M1.95 3.7 L2.35 4.1 1.95 3.7 M2.5 3.05 L2.4 2.3 2.25 2.05 2.05 2.15 Q1.65 2.4 1.75 3.0 1.65 2.4 2.05 2.15 L2.25 2.05 2.4 2.3 2.5 3.05" fill="#446237" fill-rule="evenodd" stroke="none"/>
    <path d="M4.1 -3.4 L4.55 -3.25 4.8 -2.4 4.05 -2.55 4.1 -3.4 M4.0 -0.5 L3.95 -1.75 5.05 -1.5 5.35 -0.3 4.0 -0.5" fill="#112f04" fill-rule="evenodd" stroke="none"/>
    <path d="M4.55 -3.25 L4.1 -3.4 4.1 -4.2 6.1 -4.0 5.9 -3.25 4.55 -3.25 M4.05 -2.55 L4.8 -2.4 7.1 -2.55 6.95 -1.8 5.9 -1.55 5.05 -1.5 3.95 -1.75 4.05 -2.55 M4.1 0.35 L4.0 -0.5 5.35 -0.3 Q6.0 -0.8 6.2 -0.15 L6.15 0.05 6.1 0.45 5.2 0.65 4.1 0.35" fill="#1d4206" fill-rule="evenodd" stroke="none"/>
    <path d="M3.25 -3.85 L3.55 -1.95 3.65 -0.5 3.75 1.25 2.55 0.85 2.5 0.1 2.25 -0.9 2.1 -1.25 1.7 -1.6 3.25 -3.85 M2.9 -2.5 L2.1 -1.25 2.9 -2.5" fill="#445b35" fill-rule="evenodd" stroke="none"/>
    <path d="M4.1 -3.4 L4.05 -2.55 3.95 -1.75 4.0 -0.5 4.1 0.35 4.1 2.1 4.15 4.75 4.0 5.65 2.95 6.15 Q2.2 5.95 1.85 5.4 1.65 5.05 1.05 5.2 L0.25 4.8 0.0 4.55 1.2 4.9 2.35 5.25 3.4 5.05 3.65 4.55 3.7 4.15 3.75 1.25 3.65 -0.5 3.55 -1.95 3.25 -3.85 3.8 -4.2 4.1 -4.2 4.1 -3.4" fill="#3d512f" fill-rule="evenodd" stroke="none"/>
    <path d="M4.15 4.75 L4.1 2.1 4.1 0.35 5.2 0.65 6.1 0.45 6.15 0.05 8.05 0.4 7.7 1.0 6.65 2.2 5.75 3.6 5.35 4.85 4.15 4.75 M4.85 4.15 Q5.45 4.05 5.35 3.7 L5.4 3.25 5.35 2.95 5.15 2.6 5.4 2.55 Q5.85 2.35 5.45 2.05 6.0 2.25 6.3 1.85 5.85 1.65 6.6 1.15 L6.65 1.0 6.1 0.45 6.65 1.0 6.6 1.15 Q5.85 1.65 6.3 1.85 6.0 2.25 5.45 2.05 5.85 2.35 5.4 2.55 L5.15 2.6 5.35 2.95 5.4 3.25 5.35 3.7 Q5.45 4.05 4.85 4.15 M4.1 2.1 L4.6 2.1 Q5.15 2.0 5.1 1.6 L5.25 1.65 Q5.05 1.2 5.2 0.65 5.05 1.2 5.25 1.65 L5.1 1.6 Q5.15 2.0 4.6 2.1 L4.1 2.1" fill="#364929" fill-rule="evenodd" stroke="none"/>
    <path d="M4.55 -3.25 L4.1 -3.4 4.05 -2.55 4.8 -2.4 4.55 -3.25 5.9 -3.25 6.1 -4.0 4.1 -4.2 4.1 -3.4 M4.1 -4.2 L3.8 -4.2 3.25 -3.85 3.55 -1.95 3.65 -0.5 3.75 1.25 3.7 4.15 3.65 4.55 3.4 5.05 2.35 5.25 1.2 4.9 0.0 4.55 0.25 4.8 1.05 5.2 Q1.65 5.05 1.85 5.4 2.2 5.95 2.95 6.15 L4.0 5.65 4.15 4.75 4.1 2.1 4.1 0.35 4.0 -0.5 3.95 -1.75 4.05 -2.55 M2.1 -1.25 L1.7 -1.6 0.7 0.25 0.05 1.65 Q-0.45 2.8 -0.45 4.05 L0.0 4.55 M3.75 1.25 L2.55 0.85 2.5 0.1 2.25 -0.9 2.1 -1.25 M5.05 -1.5 L3.95 -1.75 M3.25 -3.85 L1.7 -1.6 M4.8 -2.4 L7.1 -2.55 6.95 -1.8 5.9 -1.55 5.05 -1.5 5.35 -0.3 Q6.0 -0.8 6.2 -0.15 L6.15 0.05 8.05 0.4 10.85 1.25 M10.75 3.55 L10.15 3.95 7.9 4.7 5.35 4.85 4.15 4.75 M5.35 -0.3 L4.0 -0.5 M8.05 0.4 L7.7 1.0 6.65 2.2 5.75 3.6 5.35 4.85 M6.1 0.45 L6.65 1.0 6.6 1.15 Q5.85 1.65 6.3 1.85 6.0 2.25 5.45 2.05 5.85 2.35 5.4 2.55 L5.15 2.6 5.35 2.95 5.4 3.25 5.35 3.7 Q5.45 4.05 4.85 4.15 M6.15 0.05 L6.1 0.45 5.2 0.65 Q5.05 1.2 5.25 1.65 L5.1 1.6 Q5.15 2.0 4.6 2.1 L4.1 2.1 M1.75 3.0 Q1.65 2.4 2.05 2.15 L2.25 2.05 2.4 2.3 2.5 3.05 M2.35 4.1 L1.95 3.7 M5.2 0.65 L4.1 0.35" fill="none" stroke="#112f04" stroke-linecap="round" stroke-linejoin="round" stroke-width="0.05"/>
    <path d="M2.1 -1.25 Q1.4 -0.7 1.15 0.2 L0.5 1.85 Q0.1 2.85 -0.05 3.75 L0.0 4.0 0.1 4.1 0.4 4.2 0.5 4.3 0.95 4.4 M2.1 -1.25 L2.9 -2.5 M10.0 1.3 L8.1 0.95" fill="none" stroke="#7f913a" stroke-linecap="round" stroke-linejoin="round" stroke-width="0.05"/>
  </g>
</svg>
