<?xml version="1.0" encoding="UTF-8" standalone="no"?>
<svg xmlns:xlink="http://www.w3.org/1999/xlink" height="15.45px" width="5.45px" xmlns="http://www.w3.org/2000/svg">
  <g transform="matrix(1.0, 0.0, 0.0, 1.0, 0.0, 0.0)">
    <path d="M4.4 0.7 L4.65 1.8 Q4.65 2.6 5.0 4.15 L5.1 5.0 5.15 5.8 Q5.2 8.75 4.65 10.7 4.05 12.65 4.05 13.5 4.05 14.3 3.5 14.9 L3.25 15.5 1.8 15.3 0.8 15.2 0.15 15.1 0.15 14.5 0.05 12.35 -0.25 8.6 Q-0.4 6.7 -0.2 4.7 -0.05 3.2 0.45 2.05 L0.8 1.35 1.55 0.55 Q2.25 0.1 3.0 0.05 4.2 0.3 4.4 0.7 M4.25 6.1 Q4.05 6.15 3.95 6.3 L3.8 6.1 3.6 6.05 3.1 6.4 3.0 6.35 2.7 6.0 2.5 6.1 2.1 6.3 1.95 6.1 1.8 5.65 1.95 6.1 2.1 6.3 2.5 6.1 2.7 6.0 3.0 6.35 3.1 6.4 3.6 6.05 3.8 6.1 3.95 6.3 Q4.05 6.15 4.25 6.1 M3.3 2.55 L3.25 3.0 3.45 3.4 Q3.9 3.9 3.9 4.55 L3.9 4.9 3.95 4.95 5.1 5.0 3.95 4.95 3.9 4.9 3.9 4.55 Q3.9 3.9 3.45 3.4 L3.25 3.0 3.3 2.55 M1.1 2.5 Q0.45 3.8 0.35 5.15 0.15 7.25 0.45 9.6 L0.8 14.3 0.45 9.6 Q0.15 7.25 0.35 5.15 0.45 3.8 1.1 2.5 M3.85 11.05 L3.7 10.95 3.45 11.1 3.4 11.05 3.25 10.75 3.1 10.65 2.9 11.0 2.8 11.05 2.55 10.7 2.5 10.65 2.4 10.9 2.05 11.15 1.9 11.05 1.8 10.6 1.9 11.05 2.05 11.15 2.4 10.9 2.5 10.65 2.55 10.7 2.8 11.05 2.9 11.0 3.1 10.65 3.25 10.75 3.4 11.05 3.45 11.1 3.7 10.95 3.85 11.05 M4.6 8.3 L4.3 8.4 4.15 8.5 4.05 8.3 3.9 8.1 3.5 8.5 3.25 8.5 2.95 8.15 2.9 8.25 2.45 8.7 2.1 8.75 1.75 8.4 1.6 7.85 1.75 8.4 2.1 8.75 2.45 8.7 2.9 8.25 2.95 8.15 3.25 8.5 3.5 8.5 3.9 8.1 4.05 8.3 4.15 8.5 4.3 8.4 4.6 8.3" fill="#446237" fill-rule="evenodd" stroke="none"/>
    <path d="M4.4 0.7 L4.65 1.8 Q4.65 2.6 5.0 4.15 L5.1 5.0 5.15 5.8 Q5.2 8.75 4.65 10.7 4.05 12.65 4.05 13.5 4.05 14.3 3.5 14.9 L3.25 15.5 M0.15 15.1 L0.15 14.5 0.05 12.35 -0.25 8.6 Q-0.4 6.7 -0.2 4.7 -0.05 3.2 0.45 2.05 M5.1 5.0 L3.95 4.95 3.9 4.9 3.9 4.55 Q3.9 3.9 3.45 3.4 L3.25 3.0 3.3 2.55 M1.8 5.65 L1.95 6.1 2.1 6.3 2.5 6.1 2.7 6.0 3.0 6.35 3.1 6.4 3.6 6.05 3.8 6.1 3.95 6.3 Q4.05 6.15 4.25 6.1 M1.6 7.85 L1.75 8.4 2.1 8.75 2.45 8.7 2.9 8.25 2.95 8.15 3.25 8.5 3.5 8.5 3.9 8.1 4.05 8.3 4.15 8.5 4.3 8.4 4.6 8.3 M1.8 10.6 L1.9 11.05 2.05 11.15 2.4 10.9 2.5 10.65 2.55 10.7 2.8 11.05 2.9 11.0 3.1 10.65 3.25 10.75 3.4 11.05 3.45 11.1 3.7 10.95 3.85 11.05" fill="none" stroke="#000000" stroke-linecap="round" stroke-linejoin="round" stroke-width="0.05"/>
    <path d="M0.8 14.3 L0.45 9.6 Q0.15 7.25 0.35 5.15 0.45 3.8 1.1 2.5" fill="none" stroke="#7f913a" stroke-linecap="round" stroke-linejoin="round" stroke-width="0.05"/>
  </g>
</svg>
