<?xml version="1.0" encoding="UTF-8" standalone="no"?>
<svg xmlns:xlink="http://www.w3.org/1999/xlink" height="15.05px" width="5.85px" xmlns="http://www.w3.org/2000/svg">
  <g transform="matrix(1.0, 0.0, 0.0, 1.0, 0.0, 0.0)">
    <path d="M2.95 0.1 Q4.05 1.65 4.4 3.25 L4.55 4.0 4.6 6.0 4.0 9.75 3.55 8.45 3.55 8.4 2.6 8.05 Q1.95 7.8 1.65 7.0 L0.45 7.2 0.25 3.25 0.0 0.15 2.95 0.1 M2.85 5.9 L3.65 5.85 4.15 6.25 4.6 6.0 4.15 6.25 3.65 5.85 2.85 5.9 M2.3 3.6 Q2.3 4.25 3.0 4.0 L3.35 3.75 Q3.7 4.35 4.55 4.0 3.7 4.35 3.35 3.75 L3.0 4.0 Q2.3 4.25 2.3 3.6" fill="#446237" fill-rule="evenodd" stroke="none"/>
    <path d="M4.3 11.3 L4.25 11.8 3.85 15.05 2.1 15.05 2.05 14.1 Q1.95 13.0 2.45 12.15 2.7 11.6 3.25 11.2 L4.3 11.3 M4.25 11.8 Q3.2 11.4 2.45 12.15 3.2 11.4 4.25 11.8" fill="#112f04" fill-rule="evenodd" stroke="none"/>
    <path d="M4.0 9.75 L4.4 9.9 4.8 10.15 4.7 10.95 4.3 11.3 3.25 11.2 Q2.7 11.6 2.45 12.15 1.95 13.0 2.05 14.1 L2.1 15.05 0.45 15.15 0.6 12.55 0.4 11.15 -0.25 10.7 -0.9 8.6 -1.0 7.9 Q-0.8 7.5 0.0 7.3 L0.45 7.2 1.65 7.0 Q1.95 7.8 2.6 8.05 L3.55 8.4 3.55 8.45 4.0 9.75 M1.3 9.05 L2.5 9.25 2.75 10.55 1.65 11.9 2.75 10.55 2.5 9.25 1.3 9.05 M3.3 9.45 L2.9 8.6 2.2 8.45 1.55 8.1 1.25 7.4 -1.0 7.9 1.25 7.4 1.55 8.1 2.2 8.45 2.9 8.6 3.3 9.45" fill="#364929" fill-rule="evenodd" stroke="none"/>
    <path d="M2.95 0.1 Q4.05 1.65 4.4 3.25 L4.55 4.0 4.6 6.0 4.0 9.75 4.4 9.9 4.8 10.15 4.7 10.95 4.3 11.3 4.25 11.8 3.85 15.05 M0.45 15.15 L0.6 12.55 0.4 11.15 -0.25 10.7 -0.9 8.6 -1.0 7.9 Q-0.8 7.5 0.0 7.3 L0.45 7.2 0.25 3.25 0.0 0.15 M4.55 4.0 Q3.7 4.35 3.35 3.75 L3.0 4.0 Q2.3 4.25 2.3 3.6 M4.6 6.0 L4.15 6.25 3.65 5.85 2.85 5.9 M0.45 7.2 L1.65 7.0 Q1.95 7.8 2.6 8.05 L3.55 8.4 3.55 8.45 4.0 9.75 M-1.0 7.9 L1.25 7.4 1.55 8.1 2.2 8.45 2.9 8.6 3.3 9.45 M1.65 11.9 L2.75 10.55 2.5 9.25 1.3 9.05 M4.3 11.3 L3.25 11.2 Q2.7 11.6 2.45 12.15 3.2 11.4 4.25 11.8 M2.45 12.15 Q1.95 13.0 2.05 14.1 L2.1 15.05" fill="none" stroke="#000000" stroke-linecap="round" stroke-linejoin="round" stroke-width="0.05"/>
    <path d="M0.85 7.1 L0.5 0.75 M0.15 7.95 Q-0.7 7.95 -0.35 9.05 L-0.2 9.7 0.85 10.6 Q1.05 12.6 0.9 14.6" fill="none" stroke="#7f913a" stroke-linecap="round" stroke-linejoin="round" stroke-width="0.05"/>
  </g>
</svg>
