<?xml version="1.0" encoding="UTF-8" standalone="no"?>
<svg xmlns:xlink="http://www.w3.org/1999/xlink" height="12.9px" width="12.5px" xmlns="http://www.w3.org/2000/svg">
  <g transform="matrix(1.0, 0.0, 0.0, 1.0, 0.0, 0.0)">
    <path d="M4.55 7.55 L5.3 6.6 Q6.5 5.45 8.0 6.3 L8.2 6.7 8.65 11.35 8.15 11.8 4.85 11.95 Q4.2 11.35 4.25 10.45 4.2 8.9 4.55 7.55" fill="#ffcc99" fill-rule="evenodd" stroke="none"/>
    <path d="M4.55 7.55 Q4.2 8.9 4.25 10.45 4.2 11.35 4.85 11.95 L8.15 11.8 8.65 11.35 8.2 6.7 8.0 6.3 Q6.5 5.45 5.3 6.6 L4.55 7.55 Z" fill="none" stroke="#000000" stroke-linecap="round" stroke-linejoin="round" stroke-width="0.05"/>
    <path d="M8.45 5.85 Q8.3 6.6 7.7 6.9 L7.6 6.95 Q7.3 7.6 7.3 8.3 L7.05 9.4 5.9 10.4 Q4.9 10.95 3.5 11.2 2.1 11.45 1.4 10.8 0.7 10.1 0.85 9.25 L0.95 8.1 0.0 7.45 0.9 5.1 0.85 3.85 Q0.75 3.15 1.05 2.6 L1.6 1.5 Q2.05 0.7 3.0 0.35 L6.15 0.15 7.1 0.55 8.3 1.35 Q9.6 2.6 9.65 4.4 9.65 5.6 8.45 5.85 M1.8 5.25 L2.55 5.1 1.8 5.25 M4.0 4.95 L2.55 5.1 2.4 5.5 Q2.45 5.85 2.85 6.1 L3.0 6.15 Q4.05 6.2 4.1 5.15 L4.0 4.95 5.0 4.95 4.0 4.95" fill="#ffcc99" fill-rule="evenodd" stroke="none"/>
    <path d="M4.1 5.15 Q4.05 6.2 3.0 6.15 L2.85 6.1 Q2.45 5.85 2.4 5.5 L2.55 5.1 4.0 4.95 4.1 5.15" fill="#663300" fill-rule="evenodd" stroke="none"/>
    <path d="M8.45 5.85 Q9.65 5.6 9.65 4.4 9.6 2.6 8.3 1.35 L7.1 0.55 6.15 0.15 3.0 0.35 Q2.05 0.7 1.6 1.5 L1.05 2.6 Q0.75 3.15 0.85 3.85 L0.9 5.1 0.0 7.45 0.95 8.1 0.85 9.25 Q0.7 10.1 1.4 10.8 2.1 11.45 3.5 11.2 4.9 10.95 5.9 10.4 L7.05 9.4 7.3 8.3 Q7.3 7.6 7.6 6.95 L7.7 6.9 Q8.3 6.6 8.45 5.85 M2.55 5.1 L1.8 5.25 M4.1 5.15 Q4.05 6.2 3.0 6.15 L2.85 6.1 Q2.45 5.85 2.4 5.5 L2.55 5.1 4.0 4.95 5.0 4.95" fill="none" stroke="#000000" stroke-linecap="round" stroke-linejoin="round" stroke-width="0.05"/>
    <path d="M7.55 -0.35 L7.6 -0.35 8.1 0.2 8.5 0.65 9.1 0.7 Q10.0 2.0 9.9 3.05 L9.55 5.4 8.5 8.75 Q8.1 7.85 8.1 6.8 L8.0 4.5 7.35 4.6 5.45 6.45 6.55 3.8 3.65 3.25 -1.4 3.65 -0.5 3.15 Q-1.4 2.4 -2.6 2.05 -1.35 2.35 -0.3 1.5 L-1.15 1.25 -1.9 0.95 -1.15 0.85 Q1.05 0.0 3.45 -0.55 L5.5 -0.6 Q6.4 -0.75 7.4 -0.2 L7.2 -0.7 7.55 -0.35" fill="#663300" fill-rule="evenodd" stroke="none"/>
    <path d="M7.55 -0.35 L7.2 -0.7 7.4 -0.2 Q6.4 -0.75 5.5 -0.6 L3.45 -0.55 Q1.05 0.0 -1.15 0.85 L-1.9 0.95 -1.15 1.25 -0.3 1.5 Q-1.35 2.35 -2.6 2.05 -1.4 2.4 -0.5 3.15 L-1.4 3.65 3.65 3.25 6.55 3.8 5.45 6.45 7.35 4.6 8.0 4.5 8.1 6.8 Q8.1 7.85 8.5 8.75 L9.55 5.4 9.9 3.05 Q10.0 2.0 9.1 0.7 L8.5 0.65 8.1 0.2 7.6 -0.35 7.55 -0.35 Z" fill="none" stroke="#000000" stroke-linecap="round" stroke-linejoin="round" stroke-width="0.05"/>
  </g>
</svg>
