<?xml version="1.0" encoding="UTF-8" standalone="no"?>
<svg xmlns:xlink="http://www.w3.org/1999/xlink" height="14.3px" width="4.9px" xmlns="http://www.w3.org/2000/svg">
  <g transform="matrix(1.0, 0.0, 0.0, 1.0, 0.0, 0.0)">
    <path d="M0.25 2.45 Q0.4 2.25 1.05 2.1 1.7 1.95 3.0 2.55 L5.05 1.4 5.05 3.75 4.85 7.0 4.35 10.65 4.1 12.4 Q3.9 14.05 4.1 15.7 L3.35 15.45 1.8 15.3 1.25 15.4 0.15 15.1 0.25 2.45" fill="#845125" fill-rule="evenodd" stroke="none"/>
    <path d="M0.25 2.45 L0.15 15.1 M4.1 15.7 Q3.9 14.05 4.1 12.4 L4.35 10.65 4.85 7.0 5.05 3.75 5.05 1.4" fill="none" stroke="#000000" stroke-linecap="round" stroke-linejoin="round" stroke-width="0.05"/>
  </g>
</svg>
