<?xml version="1.0" encoding="UTF-8" standalone="no"?>
<svg xmlns:xlink="http://www.w3.org/1999/xlink" height="7.0px" width="8.3px" xmlns="http://www.w3.org/2000/svg">
  <g transform="matrix(1.0, 0.0, 0.0, 1.0, 0.0, 0.0)">
    <path d="M5.15 -0.15 L7.75 -0.5 Q8.4 0.95 8.45 2.35 L8.35 3.7 Q8.15 3.25 7.5 3.35 7.15 3.35 6.95 3.65 6.45 4.2 7.0 4.65 6.45 4.2 6.95 3.65 7.15 3.35 7.5 3.35 8.15 3.25 8.35 3.7 L7.9 5.15 5.55 6.05 4.6 6.25 4.6 6.2 4.5 5.8 4.45 5.55 3.8 4.5 Q3.45 3.9 2.85 3.7 L2.6 3.6 2.3 3.55 1.9 3.6 3.1 2.8 3.6 2.45 3.75 2.3 3.95 2.1 4.15 1.75 4.35 1.35 5.15 -0.15 M5.85 2.35 Q5.15 1.8 4.15 1.75 5.15 1.8 5.85 2.35 M5.2 3.15 Q4.65 2.35 3.75 2.3 4.65 2.35 5.2 3.15" fill="#663333" fill-rule="evenodd" stroke="none"/>
    <path d="M1.9 3.6 L2.3 3.55 2.6 3.6 2.85 3.7 Q3.45 3.9 3.8 4.5 L4.45 5.55 4.5 5.8 4.6 6.2 4.6 6.25 2.2 6.5 Q0.8 6.5 0.15 5.2 L0.95 4.15 1.9 3.6 M2.15 4.2 L2.85 3.7 2.15 4.2 M3.35 5.05 L2.9 5.15 3.35 5.05" fill="#696d67" fill-rule="evenodd" stroke="none"/>
    <path d="M5.15 -0.15 L4.35 1.35 4.15 1.75 Q5.15 1.8 5.85 2.35 M7.0 4.65 Q6.45 4.2 6.95 3.65 7.15 3.35 7.5 3.35 8.15 3.25 8.35 3.7 L8.45 2.35 Q8.4 0.95 7.75 -0.5 M4.6 6.25 L5.55 6.05 7.9 5.15 8.35 3.7 M4.15 1.75 L3.95 2.1 3.75 2.3 Q4.65 2.35 5.2 3.15 M3.75 2.3 L3.6 2.45 3.1 2.8 1.9 3.6 2.3 3.55 2.6 3.6 2.85 3.7 Q3.45 3.9 3.8 4.5 L4.45 5.55 4.5 5.8 4.6 6.2 4.6 6.25 2.2 6.5 Q0.8 6.5 0.15 5.2 L0.95 4.15 1.9 3.6 M2.9 5.15 L3.35 5.05 M2.85 3.7 L2.15 4.2" fill="none" stroke="#000000" stroke-linecap="round" stroke-linejoin="round" stroke-width="0.05"/>
  </g>
</svg>
