<?xml version="1.0" encoding="UTF-8" standalone="no"?>
<svg xmlns:xlink="http://www.w3.org/1999/xlink" height="16.4px" width="5.2px" xmlns="http://www.w3.org/2000/svg">
  <g transform="matrix(1.0, 0.0, 0.0, 1.0, 0.0, 0.0)">
    <path d="M-0.35 15.5 L-0.2 10.55 Q-0.05 6.8 -0.25 3.1 L-0.4 -0.05 1.4 0.5 Q2.4 0.75 3.35 0.5 L3.75 5.05 4.25 10.3 4.7 14.55 3.95 14.25 3.85 14.1 Q4.0 13.65 3.65 13.65 L2.9 13.75 2.8 14.75 1.7 15.15 1.5 14.65 0.35 14.15 0.6 15.0 0.15 15.6 -0.35 15.5" fill="#845125" fill-rule="evenodd" stroke="none"/>
    <path d="M4.7 14.55 L4.8 15.6 Q4.25 16.1 3.35 16.15 L0.65 16.25 -0.35 15.95 -0.35 15.5 0.15 15.6 0.6 15.0 0.35 14.15 1.5 14.65 1.7 15.15 2.8 14.75 2.9 13.75 3.65 13.65 Q4.0 13.65 3.85 14.1 L3.95 14.25 4.7 14.55" fill="#663333" fill-rule="evenodd" stroke="none"/>
    <path d="M-0.35 15.5 L-0.2 10.55 Q-0.05 6.8 -0.25 3.1 L-0.4 -0.05 M3.35 0.5 L3.75 5.05 4.25 10.3 4.7 14.55 4.8 15.6 Q4.25 16.1 3.35 16.15 L0.65 16.25 -0.35 15.95 -0.35 15.5 0.15 15.6 0.6 15.0 0.35 14.15 1.5 14.65 1.7 15.15 2.8 14.75 2.9 13.75 3.65 13.65 Q4.0 13.65 3.85 14.1 L3.95 14.25 4.7 14.55" fill="none" stroke="#000000" stroke-linecap="round" stroke-linejoin="round" stroke-width="0.05"/>
  </g>
</svg>
