<?xml version="1.0" encoding="UTF-8" standalone="no"?>
<svg xmlns:xlink="http://www.w3.org/1999/xlink" height="19.25px" width="10.95px" xmlns="http://www.w3.org/2000/svg">
  <g transform="matrix(1.0, 0.0, 0.0, 1.0, 0.0, 0.0)">
    <path d="M10.35 1.05 L10.2 1.7 9.3 2.3 8.2 2.15 8.15 3.1 6.9 3.35 6.4 2.8 5.75 2.7 5.25 3.55 Q5.25 4.1 5.55 4.6 L6.6 7.25 Q5.45 7.1 5.0 6.2 4.35 4.9 4.35 3.5 L3.55 3.3 3.5 3.0 3.3 2.85 Q2.25 3.1 1.75 2.45 L2.0 1.35 1.75 1.2 Q0.8 1.5 0.85 0.7 3.05 -0.1 5.35 -0.1 8.1 -0.15 10.35 1.05 M4.6 1.45 L4.35 3.5 4.6 1.45" fill="#663333" fill-rule="evenodd" stroke="none"/>
    <path d="M6.6 7.25 L5.55 4.6 Q5.25 4.1 5.25 3.55 L5.75 2.7 6.4 2.8 6.9 3.35 8.15 3.1 8.2 2.15 9.3 2.3 10.2 1.7 10.35 1.05 10.9 1.2 Q10.9 3.6 10.3 6.0 L9.2 10.5 Q8.9 11.8 9.35 13.45 9.95 15.65 10.15 17.85 L10.05 18.45 7.65 19.05 Q7.15 18.05 7.25 16.75 L7.2 12.8 6.85 8.55 6.6 7.25 6.85 8.55 7.2 12.8 7.25 16.75 Q7.15 18.05 7.65 19.05 4.95 19.45 2.7 18.2 L1.6 17.4 1.75 13.4 Q1.5 10.85 0.7 8.2 -0.2 5.6 -0.05 2.95 L0.0 1.25 0.85 0.7 Q0.8 1.5 1.75 1.2 L2.0 1.35 1.75 2.45 Q2.25 3.1 3.3 2.85 L3.5 3.0 3.55 3.3 4.35 3.5 Q4.35 4.9 5.0 6.2 5.45 7.1 6.6 7.25 M6.85 8.55 Q6.15 7.3 4.45 6.9 2.45 6.7 1.15 5.55 L1.85 5.4 Q3.45 4.95 3.55 3.3 3.45 4.95 1.85 5.4 L1.15 5.55 Q2.45 6.7 4.45 6.9 6.15 7.3 6.85 8.55 M6.05 10.45 L6.3 10.55 6.45 10.45 6.55 10.3 6.45 10.1 6.3 10.05 6.05 10.1 6.0 10.3 6.05 10.45 M6.4 17.15 L6.35 17.35 6.4 17.5 6.6 17.6 6.75 17.5 6.85 17.35 6.75 17.15 6.6 17.1 6.4 17.15 M6.35 14.05 L6.55 14.15 6.7 14.05 6.75 13.9 6.7 13.7 6.55 13.65 6.35 13.7 6.3 13.9 6.35 14.05" fill="#845125" fill-rule="evenodd" stroke="none"/>
    <path d="M6.05 10.45 L6.0 10.3 6.05 10.1 6.3 10.05 6.45 10.1 6.55 10.3 6.45 10.45 6.3 10.55 6.05 10.45 M6.35 14.05 L6.3 13.9 6.35 13.7 6.55 13.65 6.7 13.7 6.75 13.9 6.7 14.05 6.55 14.15 6.35 14.05 M6.4 17.15 L6.6 17.1 6.75 17.15 6.85 17.35 6.75 17.5 6.6 17.6 6.4 17.5 6.35 17.35 6.4 17.15" fill="#e4c377" fill-rule="evenodd" stroke="none"/>
    <path d="M10.35 1.05 L10.2 1.7 9.3 2.3 8.2 2.15 8.15 3.1 6.9 3.35 6.4 2.8 5.75 2.7 5.25 3.55 Q5.25 4.1 5.55 4.6 L6.6 7.25 6.85 8.55 7.2 12.8 7.25 16.75 Q7.15 18.05 7.65 19.05 M10.05 18.45 L10.15 17.85 Q9.95 15.65 9.35 13.45 8.9 11.8 9.2 10.5 L10.3 6.0 Q10.9 3.6 10.9 1.2 L10.35 1.05 Q8.1 -0.15 5.35 -0.1 3.05 -0.1 0.85 0.7 0.8 1.5 1.75 1.2 L2.0 1.35 1.75 2.45 Q2.25 3.1 3.3 2.85 L3.5 3.0 3.55 3.3 4.35 3.5 4.6 1.45 M0.85 0.7 L0.0 1.25 -0.05 2.95 Q-0.2 5.6 0.7 8.2 1.5 10.85 1.75 13.4 L1.6 17.4 M3.55 3.3 Q3.45 4.95 1.85 5.4 L1.15 5.55 Q2.45 6.7 4.45 6.9 6.15 7.3 6.85 8.55 M6.05 10.45 L6.0 10.3 6.05 10.1 6.3 10.05 6.45 10.1 6.55 10.3 6.45 10.45 6.3 10.55 6.05 10.45 M6.6 7.25 Q5.45 7.1 5.0 6.2 4.35 4.9 4.35 3.5 M6.35 14.05 L6.3 13.9 6.35 13.7 6.55 13.65 6.7 13.7 6.75 13.9 6.7 14.05 6.55 14.15 6.35 14.05 M6.4 17.15 L6.6 17.1 6.75 17.15 6.85 17.35 6.75 17.5 6.6 17.6 6.4 17.5 6.35 17.35 6.4 17.15 Z" fill="none" stroke="#000000" stroke-linecap="round" stroke-linejoin="round" stroke-width="0.05"/>
  </g>
</svg>
