<?xml version="1.0" encoding="UTF-8" standalone="no"?>
<svg xmlns:xlink="http://www.w3.org/1999/xlink" height="11.45px" width="9.05px" xmlns="http://www.w3.org/2000/svg">
  <g transform="matrix(1.0, 0.0, 0.0, 1.0, 0.0, 0.0)">
    <path d="M6.4 5.2 L7.0 4.8 6.4 5.2 M4.0 10.9 L2.6 11.25 Q1.85 11.4 1.6 10.75 L1.15 9.35 0.9 8.35 0.0 7.75 0.85 5.55 0.8 4.35 Q0.7 3.7 1.0 3.2 L1.5 2.15 Q1.95 1.4 2.8 1.1 L5.75 0.9 6.65 1.25 7.8 2.05 Q9.05 3.2 9.05 4.85 9.05 6.0 7.95 6.25 L7.65 6.9 7.25 7.2 7.15 7.3 Q6.85 7.9 6.85 8.55 L6.65 9.6 5.35 10.4 4.0 10.9 5.35 10.4 6.65 9.6 6.85 8.55 Q6.85 7.9 7.15 7.3 L7.25 7.2 7.65 6.9 7.7 7.05 8.15 11.4 7.65 11.8 4.55 11.95 Q4.05 11.55 4.0 10.9 M1.7 5.7 L2.2 5.5 1.7 5.7 M3.75 5.4 L2.2 5.5 2.25 5.95 2.3 6.15 2.7 6.5 3.65 6.35 3.85 5.9 3.75 5.4 4.7 5.65 3.75 5.4" fill="#ffcc99" fill-rule="evenodd" stroke="none"/>
    <path d="M3.75 5.4 L3.85 5.9 3.65 6.35 2.7 6.5 2.3 6.15 2.25 5.95 2.2 5.5 3.75 5.4" fill="#00ccff" fill-rule="evenodd" stroke="none"/>
    <path d="M7.0 4.8 L6.4 5.2 M7.95 6.25 Q9.05 6.0 9.05 4.85 9.05 3.2 7.8 2.05 L6.65 1.25 5.75 0.9 2.8 1.1 Q1.95 1.4 1.5 2.15 L1.0 3.2 Q0.7 3.7 0.8 4.35 L0.85 5.55 0.0 7.75 0.9 8.35 1.15 9.35 1.6 10.75 Q1.85 11.4 2.6 11.25 L4.0 10.9 5.35 10.4 6.65 9.6 6.85 8.55 Q6.85 7.9 7.15 7.3 L7.25 7.2 7.65 6.9 7.7 7.05 8.15 11.4 7.65 11.8 4.55 11.95 Q4.05 11.55 4.0 10.9 M2.2 5.5 L1.7 5.7 M3.75 5.4 L3.85 5.9 3.65 6.35 2.7 6.5 2.3 6.15 2.25 5.95 2.2 5.5 3.75 5.4 4.7 5.65" fill="none" stroke="#000000" stroke-linecap="round" stroke-linejoin="round" stroke-width="0.05"/>
  </g>
</svg>
