<?xml version="1.0" encoding="UTF-8" standalone="no"?>
<svg xmlns:xlink="http://www.w3.org/1999/xlink" height="3.6px" width="6.7px" xmlns="http://www.w3.org/2000/svg">
  <g transform="matrix(1.0, 0.0, 0.0, 1.0, 0.0, 0.0)">
    <path d="M4.45 11.9 Q4.3 12.4 3.8 12.3 L3.65 12.3 Q3.1 11.8 3.15 11.35 L3.75 11.0 4.1 10.9 4.45 11.9 M8.95 11.6 L8.15 11.95 8.0 12.0 7.45 12.15 7.05 12.2 6.15 12.2 7.05 12.2 7.45 12.15 8.0 12.0 8.15 11.95 8.95 11.6 M5.0 12.35 L5.25 10.75 Q7.15 10.4 8.3 9.55 9.45 8.65 9.7 9.1 9.9 9.55 9.75 10.1 9.55 10.6 9.85 11.25 8.5 12.5 6.8 12.55 L5.0 12.35" fill="#663333" fill-rule="evenodd" stroke="none"/>
    <path d="M3.15 11.35 L3.75 11.0 4.1 10.9 4.45 11.9 M6.15 12.2 L7.05 12.2 7.45 12.15 8.0 12.0 8.15 11.95 8.95 11.6 M5.0 12.35 L5.25 10.75 Q7.15 10.4 8.3 9.55 9.45 8.65 9.7 9.1 9.9 9.55 9.75 10.1 9.55 10.6 9.85 11.25" fill="none" stroke="#000000" stroke-linecap="round" stroke-linejoin="round" stroke-width="0.05"/>
  </g>
</svg>
