<?xml version="1.0" encoding="UTF-8" standalone="no"?>
<svg xmlns:xlink="http://www.w3.org/1999/xlink" height="12.7px" width="13.55px" xmlns="http://www.w3.org/2000/svg">
  <g transform="matrix(1.0, 0.0, 0.0, 1.0, 0.0, 0.0)">
    <path d="M9.4 -0.45 L9.5 -0.5 10.65 0.9 8.25 4.6 8.75 4.75 9.05 5.1 14.8 5.55 15.1 5.2 15.3 5.2 15.55 5.15 15.75 5.25 16.05 5.8 15.95 6.25 15.1 6.3 14.85 5.95 8.7 5.35 8.7 5.2 Q8.65 5.1 8.6 5.15 L8.45 5.0 8.15 4.95 7.65 5.15 Q6.5 5.85 5.75 6.9 L5.5 6.75 5.9 6.0 Q6.2 5.1 7.0 4.85 L7.9 4.55 9.8 2.05 10.45 1.0 9.4 -0.45 M15.05 5.95 L15.8 5.9 Q15.75 5.35 15.15 5.4 L14.95 5.55 15.05 5.95 M5.1 4.65 L6.45 4.55 6.9 4.8 6.85 4.85 5.1 4.9 5.1 4.65 M4.0 7.8 L3.35 7.85 3.3 7.5 4.05 7.45 4.0 7.8" fill="#c39d4f" fill-rule="evenodd" stroke="none"/>
    <path d="M10.8 -2.15 L10.35 -1.85 9.8 -1.75 9.4 -2.5 9.8 -1.75 10.35 -1.85 10.8 -2.15 11.3 -1.55 9.5 -0.5 9.4 -0.45 8.1 -0.5 7.9 -0.7 7.25 -1.5 8.1 -1.9 8.8 -2.3 9.4 -2.5 10.05 -2.9 10.8 -2.15 M8.1 -0.5 L8.85 -0.9 8.55 -1.25 7.9 -0.7 8.55 -1.25 8.85 -0.9 9.9 -1.6 8.85 -0.9 8.1 -0.5 M10.35 -1.85 L9.9 -1.6 9.8 -1.75 9.3 -1.65 8.55 -1.25 8.1 -1.9 8.55 -1.25 9.3 -1.65 9.8 -1.75 9.9 -1.6 10.35 -1.85" fill="#5f5354" fill-rule="evenodd" stroke="none"/>
    <path d="M13.35 6.15 L13.55 6.15 13.55 6.6 13.35 6.6 13.35 6.15 M11.7 8.9 Q12.25 8.95 11.95 9.6 11.6 10.2 11.7 8.9 M11.9 6.3 Q12.0 6.6 11.75 6.9 11.45 7.2 11.7 6.0 L11.9 6.3 M11.95 8.0 Q11.9 8.65 11.6 8.2 11.2 7.7 11.45 7.45 L11.7 7.25 11.95 8.0 M13.35 7.0 L13.55 7.0 13.55 7.45 13.35 7.45 13.35 7.0" fill="#99ffff" fill-rule="evenodd" stroke="none"/>
    <path d="M5.1 4.65 L5.1 4.9 4.9 5.0 Q3.85 5.3 3.55 4.55 L5.1 4.65 M5.5 6.75 L5.75 6.9 6.1 7.35 6.1 8.2 5.5 8.8 4.65 8.8 4.3 8.5 4.0 7.8 4.05 7.45 4.3 6.95 5.05 6.7 5.5 6.75 M3.35 7.85 Q2.95 8.75 2.5 7.8 L2.55 7.45 3.3 7.5 3.35 7.85" fill="#c2f1f8" fill-opacity="0.6509804" fill-rule="evenodd" stroke="none"/>
    <path d="M9.4 -2.5 L9.8 -1.75 10.35 -1.85 10.8 -2.15 10.05 -2.9 9.4 -2.5 8.8 -2.3 8.1 -1.9 8.55 -1.25 9.3 -1.65 9.8 -1.75 9.9 -1.6 10.35 -1.85 M7.9 -0.7 L8.55 -1.25 8.85 -0.9 9.9 -1.6 M8.85 -0.9 L8.1 -0.5 9.4 -0.45 9.5 -0.5 11.3 -1.55 10.8 -2.15 M8.1 -0.5 L7.9 -0.7 7.25 -1.5 8.1 -1.9" fill="none" stroke="#000000" stroke-linecap="round" stroke-linejoin="round" stroke-width="0.05"/>
    <path d="M5.1 4.9 L4.9 5.0 Q3.85 5.3 3.55 4.55 L5.1 4.65 M5.5 6.75 L5.75 6.9 6.1 7.35 6.1 8.2 5.5 8.8 4.65 8.8 4.3 8.5 4.0 7.8 4.05 7.45 4.3 6.95 5.05 6.7 5.5 6.75 M3.35 7.85 Q2.95 8.75 2.5 7.8 L2.55 7.45 3.3 7.5 3.35 7.85 Z" fill="none" stroke="#c39d4f" stroke-linecap="round" stroke-linejoin="round" stroke-width="0.05"/>
  </g>
</svg>
