<?xml version="1.0" encoding="UTF-8" standalone="no"?>
<svg xmlns:xlink="http://www.w3.org/1999/xlink" height="9.35px" width="12.65px" xmlns="http://www.w3.org/2000/svg">
  <g transform="matrix(1.0, 0.0, 0.0, 1.0, 0.0, 0.0)">
    <path d="M-1.65 4.2 L0.05 2.7 -1.8 2.6 -2.5 2.35 -1.55 2.2 Q-0.8 1.75 -0.2 0.9 0.25 0.25 0.75 -0.05 L3.05 -1.15 4.25 -1.2 5.0 -1.25 5.65 -1.0 Q6.65 -1.1 7.65 -0.45 L7.95 -0.25 8.0 -0.25 Q7.85 -0.85 8.05 -0.55 L8.4 -0.05 8.65 0.3 8.75 0.35 9.05 0.25 9.15 0.2 9.25 0.3 9.2 0.4 9.15 0.65 9.7 0.85 9.9 1.0 10.0 1.05 9.9 1.25 9.5 1.3 9.7 2.1 10.05 3.05 Q10.3 3.9 10.05 4.7 L9.75 5.7 9.45 6.75 Q9.35 7.3 9.05 7.4 8.9 6.5 8.65 7.55 L8.55 8.05 Q8.25 8.25 8.15 7.65 L8.0 6.55 8.4 6.15 8.25 5.3 8.0 4.65 7.95 4.55 6.95 4.6 6.45 5.05 6.15 4.1 6.0 3.75 4.95 3.6 4.25 3.75 4.25 3.7 4.45 3.4 4.6 3.1 2.85 3.7 1.55 4.25 0.2 4.4 -0.45 4.35 0.7 3.6 -1.6 4.25 -1.65 4.2" fill="#663300" fill-rule="evenodd" stroke="none"/>
    <path d="M-1.65 4.2 L0.05 2.7 -1.8 2.6 -2.5 2.35 -1.55 2.2 Q-0.8 1.75 -0.2 0.9 0.25 0.25 0.75 -0.05 L3.05 -1.15 4.25 -1.2 5.0 -1.25 5.65 -1.0 Q6.65 -1.1 7.65 -0.45 L7.95 -0.25 8.0 -0.25 Q7.85 -0.85 8.05 -0.55 L8.4 -0.05 8.65 0.3 8.75 0.35 9.05 0.25 9.15 0.2 9.25 0.3 9.2 0.4 9.15 0.65 9.7 0.85 9.9 1.0 10.0 1.05 9.9 1.25 9.5 1.3 9.7 2.1 10.05 3.05 Q10.3 3.9 10.05 4.7 L9.75 5.7 9.45 6.75 Q9.35 7.3 9.05 7.4 8.9 6.5 8.65 7.55 L8.55 8.05 Q8.25 8.25 8.15 7.65 L8.0 6.55 8.4 6.15 8.25 5.3 8.0 4.65 7.95 4.55 6.95 4.6 6.45 5.05 6.15 4.1 6.0 3.75 4.95 3.6 4.25 3.75 4.2 3.75 4.25 3.7 4.45 3.4 4.6 3.1 2.85 3.7 1.55 4.25 0.2 4.4 -0.45 4.35 0.7 3.6 -1.6 4.25 -1.7 4.3 -1.65 4.2 Z" fill="none" stroke="#000000" stroke-linecap="round" stroke-linejoin="round" stroke-width="0.05"/>
  </g>
</svg>
