<?xml version="1.0" encoding="UTF-8" standalone="no"?>
<svg xmlns:xlink="http://www.w3.org/1999/xlink" height="28.4px" width="11.25px" xmlns="http://www.w3.org/2000/svg">
  <g transform="matrix(1.0, 0.0, 0.0, 1.0, 0.0, 0.0)">
    <path d="M-1.1 27.05 L0.25 27.15 0.35 26.2 1.8 26.45 2.5 26.8 2.5 27.3 2.75 27.65 5.0 27.9 5.15 27.15 6.95 27.3 7.35 28.25 10.0 28.4 10.05 30.15 7.8 30.25 Q3.05 30.25 -1.2 27.9 L-1.1 27.05" fill="#663333" fill-rule="evenodd" stroke="none"/>
    <path d="M6.6 6.8 L6.9 6.7 7.15 6.8 7.25 7.1 7.15 7.35 6.9 7.45 6.6 7.35 6.5 7.1 6.6 6.8 M7.35 15.65 L7.25 15.4 7.35 15.1 7.65 15.0 7.9 15.1 8.0 15.4 7.9 15.65 7.65 15.75 7.35 15.65 M8.65 22.8 L8.4 22.9 8.1 22.8 8.0 22.55 8.1 22.25 8.4 22.15 8.65 22.25 8.75 22.55 8.65 22.8" fill="#e4c377" fill-rule="evenodd" stroke="none"/>
    <path d="M6.6 6.8 L6.5 7.1 6.6 7.35 6.9 7.45 7.15 7.35 7.25 7.1 7.15 6.8 6.9 6.7 6.6 6.8 M7.25 1.95 L7.6 6.3 8.45 14.45 Q8.7 17.1 9.25 19.55 10.3 23.95 10.0 28.4 L7.35 28.25 6.95 27.3 5.15 27.15 5.0 27.9 2.75 27.65 2.5 27.3 2.5 26.8 1.8 26.45 0.35 26.2 0.25 27.15 -1.1 27.05 Q-0.5 24.45 -0.35 21.65 -0.1 16.8 1.25 12.2 L4.5 1.85 7.25 1.95 M8.65 22.8 L8.75 22.55 8.65 22.25 8.4 22.15 8.1 22.25 8.0 22.55 8.1 22.8 8.4 22.9 8.65 22.8 M7.35 15.65 L7.65 15.75 7.9 15.65 8.0 15.4 7.9 15.1 7.65 15.0 7.35 15.1 7.25 15.4 7.35 15.65" fill="#845125" fill-rule="evenodd" stroke="none"/>
    <path d="M6.6 6.8 L6.9 6.7 7.15 6.8 7.25 7.1 7.15 7.35 6.9 7.45 6.6 7.35 6.5 7.1 6.6 6.8 M10.0 28.4 Q10.3 23.95 9.25 19.55 8.7 17.1 8.45 14.45 L7.6 6.3 7.25 1.95 M-1.1 27.05 L0.25 27.15 0.35 26.2 1.8 26.45 2.5 26.8 2.5 27.3 2.75 27.65 5.0 27.9 5.15 27.15 6.95 27.3 7.35 28.25 10.0 28.4 10.05 30.15 7.8 30.25 Q3.05 30.25 -1.2 27.9 M7.35 15.65 L7.25 15.4 7.35 15.1 7.65 15.0 7.9 15.1 8.0 15.4 7.9 15.65 7.65 15.75 7.35 15.65 M8.65 22.8 L8.4 22.9 8.1 22.8 8.0 22.55 8.1 22.25 8.4 22.15 8.65 22.25 8.75 22.55 8.65 22.8 Z" fill="none" stroke="#000000" stroke-linecap="round" stroke-linejoin="round" stroke-width="0.05"/>
  </g>
</svg>
