<?xml version="1.0" encoding="UTF-8" standalone="no"?>
<svg xmlns:xlink="http://www.w3.org/1999/xlink" height="36.35px" width="12.9px" xmlns="http://www.w3.org/2000/svg">
  <g transform="matrix(1.0, 0.0, 0.0, 1.0, 0.0, 0.0)">
    <path d="M3.8 -8.5 L5.75 -8.5 7.3 -8.0 8.15 -7.7 8.35 -7.7 8.35 -5.25 8.15 -5.25 7.95 -5.25 7.95 -7.4 5.8 -8.05 3.4 -8.05 5.8 -8.05 7.95 -7.4 7.95 -5.25 7.3 -5.25 5.75 -5.25 3.8 -5.25 3.4 -5.25 3.4 -8.05 3.4 -8.5 3.8 -8.5 M5.95 -7.1 L5.35 -7.35 4.8 -7.1 4.55 -6.55 4.8 -5.95 Q5.05 -5.7 5.35 -5.7 L5.95 -5.95 6.2 -6.55 5.95 -7.1" fill="#999999" fill-rule="evenodd" stroke="none"/>
    <path d="M5.95 -7.1 L6.2 -6.55 5.95 -5.95 5.35 -5.7 Q5.05 -5.7 4.8 -5.95 L4.55 -6.55 4.8 -7.1 5.35 -7.35 5.95 -7.1" fill="#666666" fill-rule="evenodd" stroke="none"/>
    <path d="M3.8 -8.5 L3.8 -13.0 Q3.8 -13.85 4.45 -14.5 5.1 -15.15 5.95 -15.15 L6.0 -15.15 Q6.9 -15.15 7.5 -14.5 8.15 -13.85 8.15 -13.0 L8.15 -7.7 7.3 -8.0 7.3 -13.3 Q6.7 -14.25 5.75 -14.05 L5.75 -8.5 3.8 -8.5 M8.15 -5.25 L8.15 -3.15 Q8.15 -2.25 7.5 -1.6 6.9 -1.0 6.0 -1.0 L5.95 -1.0 Q5.1 -1.0 4.45 -1.6 3.85 -2.2 3.8 -2.95 L3.8 -3.15 3.8 -5.25 5.75 -5.25 5.75 -2.1 7.3 -3.4 7.3 -5.25 7.95 -5.25 8.15 -5.25" fill="url(#gradient0)" fill-rule="evenodd" stroke="none"/>
    <path d="M5.75 -8.5 L5.75 -14.05 Q6.7 -14.25 7.3 -13.3 L7.3 -8.0 5.75 -8.5 M5.75 -5.25 L7.3 -5.25 7.3 -3.4 5.75 -2.1 5.75 -5.25" fill="url(#gradient1)" fill-rule="evenodd" stroke="none"/>
    <path d="M8.15 -7.7 L8.15 -13.0 Q8.15 -13.85 7.5 -14.5 6.9 -15.15 6.0 -15.15 L5.95 -15.15 Q5.1 -15.15 4.45 -14.5 3.8 -13.85 3.8 -13.0 L3.8 -8.5 M8.15 -5.25 L8.15 -3.15 Q8.15 -2.25 7.5 -1.6 6.9 -1.0 6.0 -1.0 L5.95 -1.0 Q5.1 -1.0 4.45 -1.6 3.85 -2.2 3.8 -2.95 L3.8 -3.15 3.8 -5.25" fill="none" stroke="#ccffff" stroke-linecap="round" stroke-linejoin="round" stroke-width="0.05"/>
    <path d="M3.8 -8.5 L5.75 -8.5 7.3 -8.0 8.15 -7.7 8.35 -7.7 8.35 -5.25 8.15 -5.25 7.95 -5.25 7.3 -5.25 5.75 -5.25 3.8 -5.25 3.4 -5.25 3.4 -8.05 3.4 -8.5 3.8 -8.5 M5.95 -7.1 L6.2 -6.55 5.95 -5.95 5.35 -5.7 Q5.05 -5.7 4.8 -5.95 L4.55 -6.55 4.8 -7.1 5.35 -7.35 5.95 -7.1" fill="none" stroke="#000000" stroke-linecap="round" stroke-linejoin="round" stroke-width="0.05"/>
    <path d="M3.4 -8.05 L5.8 -8.05 7.95 -7.4 7.95 -5.25" fill="none" stroke="#cccccc" stroke-linecap="round" stroke-linejoin="round" stroke-width="0.05"/>
    <path d="M1.7 -21.6 L1.7 -23.0 1.7 -24.95 1.7 -27.0 1.7 -28.85 1.7 -30.85 1.7 -32.6 2.95 -32.6 3.5 -32.6 3.5 -30.85 3.5 -28.85 3.5 -27.0 3.5 -24.95 3.5 -23.0 3.5 -21.6 2.95 -21.6 1.7 -21.6 M1.7 -11.15 L1.7 -13.65 3.2 -13.65 3.2 -12.6 1.7 -11.15 M2.95 -23.0 L2.95 -21.6 2.95 -23.0 1.7 -23.0 2.95 -23.0 2.95 -24.95 2.95 -23.0 3.5 -23.0 2.95 -23.0 M2.95 -28.85 L2.95 -30.85 2.95 -28.85 3.5 -28.85 2.95 -28.85 1.7 -28.85 2.95 -28.85 2.95 -27.0 2.95 -24.95 2.95 -27.0 1.7 -27.0 2.95 -27.0 3.5 -27.0 2.95 -27.0 2.95 -28.85 M2.95 -30.85 L3.5 -30.85 2.95 -30.85 2.95 -32.6 2.95 -30.85 1.7 -30.85 2.95 -30.85 M2.95 -24.95 L3.5 -24.95 2.95 -24.95 1.7 -24.95 2.95 -24.95" fill="#666666" fill-rule="evenodd" stroke="none"/>
    <path d="M3.5 -21.6 L4.4 -21.6 4.4 -15.5 4.5 -15.5 4.95 -15.5 4.95 -11.05 4.95 -10.3 3.8 -10.3 3.8 0.15 1.7 0.15 1.7 0.1 1.7 -5.25 1.7 -10.75 1.7 -11.15 3.2 -12.6 3.2 -13.65 3.2 -15.5 4.4 -15.5 3.2 -15.5 3.2 -13.65 1.7 -13.65 -0.05 -13.65 -0.05 -19.1 0.65 -21.6 1.3 -21.6 1.7 -21.6 2.95 -21.6 3.5 -21.6 M3.7 -16.0 L3.7 -19.2 3.7 -21.15 1.3 -21.6 3.7 -21.15 3.7 -19.2 3.7 -16.0 M3.8 -10.3 L3.2 -10.3 3.2 -12.6 3.2 -10.3 3.8 -10.3 M4.5 -14.0 L4.65 -14.3 4.5 -14.6 4.2 -14.7 3.9 -14.6 3.8 -14.3 3.9 -14.0 4.2 -13.85 Q4.45 -13.85 4.5 -14.0 L4.5 -13.1 4.5 -14.0 M4.5 -12.45 L4.55 -12.55 4.7 -12.8 4.55 -13.1 4.5 -13.1 4.3 -13.2 4.0 -13.1 3.9 -12.8 4.0 -12.55 4.3 -12.4 4.5 -12.45 4.95 -11.05 4.5 -12.45 M4.5 -15.5 L4.5 -14.6 4.5 -15.5 M3.25 -0.7 L3.25 -9.8 3.25 -0.7 M1.2 -17.0 L3.7 -19.2 1.2 -17.0 M2.4 -16.5 L0.45 -14.95 2.4 -16.5" fill="#999999" fill-rule="evenodd" stroke="none"/>
    <path d="M1.7 0.1 Q0.85 1.9 -2.2 3.75 -3.75 2.35 -3.45 1.55 0.6 0.1 1.7 -5.25 L1.7 0.1" fill="#333333" fill-rule="evenodd" stroke="none"/>
    <path d="M4.5 -14.6 L4.65 -14.3 4.5 -14.0 Q4.45 -13.85 4.2 -13.85 L3.9 -14.0 3.8 -14.3 3.9 -14.6 4.2 -14.7 4.5 -14.6 4.5 -14.0 4.5 -14.6 M4.5 -13.1 L4.55 -13.1 4.7 -12.8 4.55 -12.55 4.5 -12.45 4.3 -12.4 4.0 -12.55 3.9 -12.8 4.0 -13.1 4.3 -13.2 4.5 -13.1 4.5 -12.45 4.5 -13.1" fill="#ffff00" fill-rule="evenodd" stroke="none"/>
    <path d="M1.7 -21.6 L1.7 -23.0 1.7 -24.95 1.7 -27.0 1.7 -28.85 1.7 -30.85 1.7 -32.6 2.95 -32.6 3.5 -32.6 3.5 -30.85 3.5 -28.85 3.5 -27.0 3.5 -24.95 3.5 -23.0 3.5 -21.6 4.4 -21.6 4.4 -15.5 4.5 -15.5 4.95 -15.5 4.95 -11.05 4.95 -10.3 3.8 -10.3 3.8 0.15 1.7 0.15 1.7 0.1 Q0.85 1.9 -2.2 3.75 -3.75 2.35 -3.45 1.55 0.6 0.1 1.7 -5.25 L1.7 -10.75 1.7 -11.15 1.7 -13.65 -0.05 -13.65 -0.05 -19.1 0.65 -21.6 1.3 -21.6 1.7 -21.6 2.95 -21.6 3.5 -21.6 M2.95 -23.0 L1.7 -23.0 M2.95 -28.85 L3.5 -28.85 M3.5 -30.85 L2.95 -30.85 1.7 -30.85 M3.5 -24.95 L2.95 -24.95 1.7 -24.95 M2.95 -23.0 L3.5 -23.0 M2.95 -27.0 L1.7 -27.0 M2.95 -27.0 L3.5 -27.0 M2.95 -28.85 L1.7 -28.85 M4.4 -15.5 L3.2 -15.5 3.2 -13.65 3.2 -12.6 3.2 -10.3 3.8 -10.3 M3.2 -13.65 L1.7 -13.65 M1.7 0.1 L1.7 -5.25" fill="none" stroke="#000000" stroke-linecap="round" stroke-linejoin="round" stroke-width="0.05"/>
    <path d="M2.95 -21.6 L2.95 -23.0 2.95 -24.95 2.95 -27.0 2.95 -28.85 2.95 -30.85 2.95 -32.6" fill="none" stroke="#999999" stroke-linecap="round" stroke-linejoin="round" stroke-width="0.05"/>
    <path d="M1.3 -21.6 L3.7 -21.15 3.7 -19.2 3.7 -16.0 M4.5 -14.0 L4.5 -13.1 4.5 -12.45 4.95 -11.05 M4.5 -14.0 L4.5 -14.6 4.5 -15.5 M0.45 -14.95 L2.4 -16.5 M3.7 -19.2 L1.2 -17.0 M3.25 -9.8 L3.25 -0.7" fill="none" stroke="#cccccc" stroke-linecap="round" stroke-linejoin="round" stroke-width="0.05"/>
    <path d="M5.0 -6.25 L-0.65 -6.4 Q-4.15 -7.2 -4.2 -9.6 -4.25 -12.05 -3.9 -13.35 -3.6 -14.65 -2.0 -15.85 -0.45 -17.1 0.3 -17.2" fill="none" stroke="#000000" stroke-linecap="round" stroke-linejoin="round" stroke-width="0.75"/>
  </g>
  <defs>
    <linearGradient gradientTransform="matrix(-0.0041, 0.007, -0.0075, -0.0043, 6.0, -8.0)" gradientUnits="userSpaceOnUse" id="gradient0" spreadMethod="pad" x1="-819.2" x2="819.2">
      <stop offset="0.0" stop-color="#ffff68"/>
      <stop offset="1.0" stop-color="#a58c51"/>
    </linearGradient>
    <linearGradient gradientTransform="matrix(-0.0041, 0.007, -0.0075, -0.0043, 6.0, -8.0)" gradientUnits="userSpaceOnUse" id="gradient1" spreadMethod="pad" x1="-819.2" x2="819.2">
      <stop offset="0.0" stop-color="#ffffcc"/>
      <stop offset="1.0" stop-color="#c0ad83"/>
    </linearGradient>
  </defs>
</svg>
