<?xml version="1.0" encoding="UTF-8" standalone="no"?>
<svg xmlns:xlink="http://www.w3.org/1999/xlink" height="29.35px" width="7.8px" xmlns="http://www.w3.org/2000/svg">
  <g transform="matrix(1.0, 0.0, 0.0, 1.0, 0.0, 0.0)">
    <path d="M0.85 -13.85 L0.6 -14.5 -0.05 -14.75 -0.7 -14.5 -1.0 -13.85 -0.7 -13.15 Q-0.45 -12.9 -0.05 -12.9 L0.6 -13.15 0.85 -13.85 M-1.75 -12.4 L0.0 -12.0 1.5 -12.3 0.0 -12.0 -1.75 -12.4 -2.75 -13.15 Q-3.9 -14.25 -3.9 -15.9 -3.9 -17.5 -2.75 -18.6 L-1.75 -19.35 -1.75 -15.9 1.5 -15.9 1.5 -19.45 2.75 -18.6 Q3.9 -17.5 3.9 -15.9 3.9 -14.25 2.75 -13.15 L1.5 -12.3 1.5 2.75 0.0 2.45 -1.75 2.85 0.0 2.45 1.5 2.75 Q2.2 3.0 2.8 3.6 3.9 4.7 3.9 6.35 3.9 7.9 2.8 9.05 L1.5 9.9 1.5 6.35 -1.75 6.35 -1.75 9.75 -2.75 9.05 Q-3.9 7.9 -3.9 6.35 -3.9 4.7 -2.75 3.6 L-1.75 2.85 -1.75 -12.4 M0.6 3.6 L-0.05 3.35 Q-0.45 3.35 -0.7 3.6 L-1.0 4.3 -0.7 4.95 -0.05 5.2 0.6 4.95 0.85 4.3 0.6 3.6 M0.4 1.45 L0.4 -11.0 -0.75 -11.0 -0.75 1.45 0.4 1.45" fill="#7c6654" fill-rule="evenodd" stroke="none"/>
    <path d="M0.85 -13.85 L0.6 -13.15 -0.05 -12.9 Q-0.45 -12.9 -0.7 -13.15 L-1.0 -13.85 -0.7 -14.5 -0.05 -14.75 0.6 -14.5 0.85 -13.85 M0.6 3.6 L0.85 4.3 0.6 4.95 -0.05 5.2 -0.7 4.95 -1.0 4.3 -0.7 3.6 Q-0.45 3.35 -0.05 3.35 L0.6 3.6 M0.4 1.45 L-0.75 1.45 -0.75 -11.0 0.4 -11.0 0.4 1.45" fill="#604e42" fill-rule="evenodd" stroke="none"/>
    <path d="M0.85 -13.85 L0.6 -13.15 -0.05 -12.9 Q-0.45 -12.9 -0.7 -13.15 L-1.0 -13.85 -0.7 -14.5 -0.05 -14.75 0.6 -14.5 0.85 -13.85 M1.5 -12.3 L0.0 -12.0 -1.75 -12.4 -1.75 2.85 0.0 2.45 1.5 2.75 1.5 -12.3 2.75 -13.15 Q3.9 -14.25 3.9 -15.9 3.9 -17.5 2.75 -18.6 L1.5 -19.45 1.5 -15.9 -1.75 -15.9 -1.75 -19.35 -2.75 -18.6 Q-3.9 -17.5 -3.9 -15.9 -3.9 -14.25 -2.75 -13.15 L-1.75 -12.4 M0.6 3.6 L-0.05 3.35 Q-0.45 3.35 -0.7 3.6 L-1.0 4.3 -0.7 4.95 -0.05 5.2 0.6 4.95 0.85 4.3 0.6 3.6 M1.5 2.75 Q2.2 3.0 2.8 3.6 3.9 4.7 3.9 6.35 3.9 7.9 2.8 9.05 L1.5 9.9 1.5 6.35 -1.75 6.35 -1.75 9.75 -2.75 9.05 Q-3.9 7.9 -3.9 6.35 -3.9 4.7 -2.75 3.6 L-1.75 2.85 M0.4 1.45 L-0.75 1.45 -0.75 -11.0 0.4 -11.0 0.4 1.45 Z" fill="none" stroke="#000000" stroke-linecap="round" stroke-linejoin="round" stroke-width="0.05"/>
  </g>
</svg>
