<?xml version="1.0" encoding="UTF-8" standalone="no"?>
<svg xmlns:xlink="http://www.w3.org/1999/xlink" height="22.0px" width="16.0px" xmlns="http://www.w3.org/2000/svg">
  <g transform="matrix(1.0, 0.0, 0.0, 1.0, 0.0, 0.0)">
    <path d="M-4.0 -4.8 L-3.55 -5.7 Q-2.1 -8.0 0.0 -8.0 2.05 -8.0 3.5 -5.7 5.0 -3.35 5.0 -0.05 5.0 3.3 3.5 5.65 2.05 8.0 0.0 8.0 -2.1 8.0 -3.55 5.65 -5.0 3.3 -5.0 -0.05 -5.0 -2.7 -4.05 -4.75 L-4.0 -4.8" fill="#33ff99" fill-rule="evenodd" stroke="none"/>
    <path d="M6.0 -9.0 Q6.0 -8.15 5.35 -7.6 L4.85 -7.2 4.9 -7.1 Q7.0 -4.2 7.0 -0.05 7.0 2.15 6.45 4.05 L7.35 4.3 Q8.0 4.6 8.0 5.0 8.0 5.45 7.35 5.7 L5.95 6.0 5.6 6.0 4.9 7.05 4.8 7.2 5.35 7.55 Q6.0 8.2 6.0 9.0 6.0 9.85 5.35 10.4 4.8 11.0 3.95 11.0 3.15 11.0 2.55 10.4 L2.1 9.6 0.0 10.0 -2.05 9.6 -2.65 10.4 Q-3.2 11.0 -4.05 11.0 -4.85 11.0 -5.45 10.4 -6.0 9.85 -6.0 9.0 -6.0 8.2 -5.45 7.55 L-4.85 7.2 -4.95 7.05 Q-7.0 4.15 -7.0 -0.05 -7.0 -2.2 -6.45 -4.0 L-7.45 -4.3 Q-8.0 -4.55 -8.0 -5.0 -8.0 -5.4 -7.45 -5.7 L-6.05 -6.0 -5.65 -5.95 -4.95 -7.1 -4.85 -7.2 -5.45 -7.6 Q-6.0 -8.15 -6.0 -9.0 -6.0 -9.8 -5.45 -10.45 -4.85 -11.0 -4.05 -11.0 -3.2 -11.0 -2.65 -10.45 L-2.1 -9.55 0.0 -10.0 2.1 -9.55 2.55 -10.45 Q3.15 -11.0 3.95 -11.0 4.8 -11.0 5.35 -10.45 6.0 -9.8 6.0 -9.0 M4.85 -7.2 L3.95 -7.0 Q3.15 -7.0 2.55 -7.6 2.0 -8.15 2.0 -9.0 L2.1 -9.55 Q3.6 -8.9 4.85 -7.2 M-4.0 -4.8 L-3.55 -5.7 Q-2.1 -8.0 0.0 -8.0 2.05 -8.0 3.5 -5.7 5.0 -3.35 5.0 -0.05 5.0 3.3 3.5 5.65 2.05 8.0 0.0 8.0 -2.1 8.0 -3.55 5.65 -5.0 3.3 -5.0 -0.05 -5.0 -2.7 -4.05 -4.75 -4.2 -4.5 -4.65 -4.3 -5.2 -4.0 -6.05 -4.0 L-6.45 -4.0 -5.65 -5.95 -4.65 -5.7 Q-4.0 -5.4 -4.0 -5.0 L-4.0 -4.8 -4.05 -4.75 M5.6 6.0 L4.55 5.7 Q4.0 5.45 4.0 5.0 4.0 4.6 4.55 4.3 L5.95 4.0 6.45 4.05 5.6 6.0 M2.1 9.6 L2.0 9.0 Q2.0 8.2 2.55 7.55 3.15 7.0 3.95 7.0 L4.8 7.2 Q3.6 8.9 2.1 9.6 M-4.85 -7.2 Q-3.65 -8.9 -2.1 -9.55 L-2.0 -9.0 Q-2.0 -8.15 -2.65 -7.6 -3.2 -7.0 -4.05 -7.0 L-4.85 -7.2 M-4.85 7.2 Q-3.65 8.9 -2.05 9.6 L-2.0 9.0 Q-2.0 8.2 -2.65 7.55 -3.2 7.0 -4.05 7.0 L-4.85 7.2 Z" fill="none" stroke="#000000" stroke-linecap="round" stroke-linejoin="round" stroke-width="0.05"/>
  </g>
</svg>
