<?xml version="1.0" encoding="UTF-8" standalone="no"?>
<svg xmlns:xlink="http://www.w3.org/1999/xlink" height="98.45px" width="15.45px" xmlns="http://www.w3.org/2000/svg">
  <g transform="matrix(1.0, 0.0, 0.0, 1.0, 0.0, 0.0)">
    <path d="M-0.4 -15.05 L-0.4 -34.2 1.2 -34.2 1.2 -15.05 -0.4 -15.05 M1.2 -14.25 L1.2 18.15 -0.4 18.15 -0.4 -9.1 -0.4 -10.9 -0.4 -12.4 -0.4 -13.95 -0.4 -14.25 1.2 -14.25 M1.2 18.9 L1.2 25.9 -0.4 25.9 -0.4 18.9 1.2 18.9 M1.2 26.65 L1.2 40.65 -0.4 40.65 -0.4 26.65 1.2 26.65" fill="url(#gradient0)" fill-rule="evenodd" stroke="none"/>
    <path d="M1.2 -15.05 L1.7 -15.05 1.7 -14.25 1.2 -14.25 -0.4 -14.25 -0.95 -14.25 -0.95 -15.05 -0.4 -15.05 1.2 -15.05 M1.2 18.15 L1.35 18.15 1.35 18.9 1.2 18.9 -0.4 18.9 -0.55 18.9 -0.55 18.15 -0.4 18.15 1.2 18.15 M1.2 25.9 L1.6 25.9 1.6 26.65 1.2 26.65 -0.4 26.65 -0.7 26.65 -0.7 25.9 -0.4 25.9 1.2 25.9" fill="#fdf0ac" fill-rule="evenodd" stroke="none"/>
    <path d="M-7.3 -3.1 L-7.45 -2.55 Q-7.75 -1.3 -9.3 -1.1 -11.65 -1.4 -11.95 -3.75 -12.3 -6.6 -9.55 -7.1 L-9.0 -6.85 Q-7.9 -5.95 -7.45 -4.9 -7.95 -4.7 -8.4 -4.45 L-8.85 -4.5 -9.05 -5.25 Q-9.45 -5.9 -10.25 -5.85 -11.95 -5.0 -11.1 -3.35 -10.5 -2.25 -9.4 -2.55 L-8.75 -3.3 -7.3 -3.1" fill="url(#gradient1)" fill-rule="evenodd" stroke="none"/>
    <path d="M-0.4 -9.1 Q-3.05 -7.9 -4.35 -5.8 -5.65 -3.7 -7.3 -3.1 L-8.75 -3.3 -9.05 -4.05 -8.85 -4.5 -8.4 -4.45 Q-7.95 -4.7 -7.45 -4.9 -5.8 -5.9 -4.7 -7.7 -3.2 -10.05 -0.4 -10.9 L-0.4 -9.1" fill="#fe8f2c" fill-rule="evenodd" stroke="none"/>
    <path d="M-0.4 -15.05 L-0.4 -34.2 1.2 -34.2 1.2 -15.05 M1.2 -14.25 L1.2 18.15 M1.2 18.9 L1.2 25.9 M1.2 26.65 L1.2 40.65 M-0.4 40.65 L-0.4 26.65 M-0.4 25.9 L-0.4 18.9 M-0.4 18.15 L-0.4 -9.1 -0.4 -10.9 -0.4 -12.4 M-0.4 -13.95 L-0.4 -14.25" fill="none" stroke="#000000" stroke-linecap="round" stroke-linejoin="round" stroke-width="0.05"/>
    <path d="M1.2 -15.05 L1.7 -15.05 1.7 -14.25 1.2 -14.25 -0.4 -14.25 -0.95 -14.25 -0.95 -15.05 -0.4 -15.05 1.2 -15.05 M1.2 18.15 L1.35 18.15 1.35 18.9 1.2 18.9 -0.4 18.9 -0.55 18.9 -0.55 18.15 -0.4 18.15 1.2 18.15 M1.2 25.9 L1.6 25.9 1.6 26.65 1.2 26.65 -0.4 26.65 -0.7 26.65 -0.7 25.9 -0.4 25.9 1.2 25.9 M-0.4 -9.1 Q-3.05 -7.9 -4.35 -5.8 -5.65 -3.7 -7.3 -3.1 L-7.45 -2.55 Q-7.75 -1.3 -9.3 -1.1 -11.65 -1.4 -11.95 -3.75 -12.3 -6.6 -9.55 -7.1 L-9.0 -6.85 Q-7.9 -5.95 -7.45 -4.9 -5.8 -5.9 -4.7 -7.7 -3.2 -10.05 -0.4 -10.9 M-0.4 -12.4 L-0.4 -13.95 M-8.85 -4.5 L-9.05 -5.25 Q-9.45 -5.9 -10.25 -5.85 -11.95 -5.0 -11.1 -3.35 -10.5 -2.25 -9.4 -2.55 L-8.75 -3.3 -9.05 -4.05 -8.85 -4.5 -8.4 -4.45 Q-7.95 -4.7 -7.45 -4.9 M-8.75 -3.3 L-7.3 -3.1" fill="none" stroke="#000000" stroke-linecap="round" stroke-linejoin="round" stroke-width="0.05"/>
    <path d="M1.55 -21.65 L0.55 -27.05 -0.7 -28.0 -1.1 -32.0 Q-2.3 -33.45 -3.5 -32.8 -5.15 -31.95 -6.9 -27.05 -6.95 -35.7 -4.25 -39.2 -1.55 -42.7 -0.95 -44.55 -0.4 -46.45 -0.55 -47.85 -0.65 -49.2 0.35 -50.8 L1.4 -52.05 Q0.15 -49.7 0.8 -47.0 1.45 -44.3 1.4 -43.05 L1.35 -41.4 0.7 -40.95 Q-1.35 -39.4 -0.9 -36.1 -0.75 -34.95 0.15 -34.55 L0.7 -34.55 1.7 -34.6 2.55 -35.7 3.2 -36.6 3.35 -36.6 3.15 -35.9 Q3.9 -33.05 2.15 -31.25 L1.75 -25.8 1.55 -21.65 M0.85 -41.55 L0.5 -42.1 0.15 -42.2 -0.2 -42.1 -0.6 -40.65 -1.2 -40.35 -1.35 -39.65 -2.7 -38.4 -2.45 -37.75 -2.5 -37.45 -3.7 -37.5 -3.7 -36.8 -3.6 -36.65 -3.4 -36.5 -2.6 -35.65 -2.6 -35.55 -4.5 -34.7 -4.1 -34.05 -3.5 -32.8 -4.1 -34.05 -4.5 -34.7 -2.6 -35.55 -2.6 -35.65 -3.4 -36.5 -3.6 -36.65 -3.7 -36.8 -3.7 -37.5 -2.5 -37.45 -2.45 -37.75 -2.7 -38.4 -1.35 -39.65 -1.2 -40.35 -0.6 -40.65 -0.2 -42.1 0.15 -42.2 0.5 -42.1 0.85 -41.55 M-0.35 -28.3 L-0.4 -30.35 -0.5 -31.4 -0.55 -31.55 -0.55 -31.85 Q-0.5 -32.2 0.0 -32.1 L0.25 -32.05 0.6 -31.95 0.7 -31.95 0.85 -31.9 1.05 -33.1 1.2 -33.1 Q1.65 -33.0 1.75 -33.3 1.9 -33.7 1.7 -33.75 L0.85 -34.0 0.75 -34.15 0.7 -34.55 0.75 -34.15 0.85 -34.0 1.7 -33.75 Q1.9 -33.7 1.75 -33.3 1.65 -33.0 1.2 -33.1 L1.05 -33.1 0.85 -31.9 0.7 -31.95 0.6 -31.95 0.25 -32.05 0.0 -32.1 Q-0.5 -32.2 -0.55 -31.85 L-0.55 -31.55 -0.5 -31.4 -0.4 -30.35 -0.35 -28.3 M0.2 -49.7 L0.1 -47.95 Q-0.05 -43.1 -3.2 -39.45 -6.3 -35.8 -6.2 -30.8 -6.3 -35.8 -3.2 -39.45 -0.05 -43.1 0.1 -47.95 L0.2 -49.7" fill="url(#gradient2)" fill-rule="evenodd" stroke="none"/>
    <path d="M0.7 -40.95 Q1.85 -40.35 2.35 -39.0 L2.7 -38.35 2.55 -35.7 1.7 -34.6 0.7 -34.55 0.15 -34.55 Q-0.75 -34.95 -0.9 -36.1 -1.35 -39.4 0.7 -40.95 M0.85 -40.05 L0.6 -40.1 Q-0.3 -39.95 -0.4 -39.0 L-0.3 -38.75 Q-0.2 -38.65 -0.25 -38.45 L-0.3 -38.3 Q-0.3 -38.0 -0.1 -37.95 L0.05 -38.1 0.25 -38.45 0.3 -38.45 0.7 -38.45 0.9 -38.65 Q1.35 -39.25 0.95 -39.95 L0.85 -40.05 M-0.25 -37.25 L-0.35 -37.2 Q-0.9 -36.65 -0.1 -36.6 L-0.05 -36.6 Q0.35 -37.05 -0.25 -37.25" fill="#e47301" fill-rule="evenodd" stroke="none"/>
    <path d="M0.85 -40.05 L0.95 -39.95 Q1.35 -39.25 0.9 -38.65 L0.7 -38.45 0.3 -38.45 0.25 -38.45 0.05 -38.1 -0.1 -37.95 Q-0.3 -38.0 -0.3 -38.3 L-0.25 -38.45 Q-0.2 -38.65 -0.3 -38.75 L-0.4 -39.0 Q-0.3 -39.95 0.6 -40.1 L0.85 -40.05 M-0.25 -37.25 Q0.35 -37.05 -0.05 -36.6 L-0.1 -36.6 Q-0.9 -36.65 -0.35 -37.2 L-0.25 -37.25" fill="#ffbf3e" fill-rule="evenodd" stroke="none"/>
    <path d="M1.55 -21.65 L0.55 -27.05 -0.7 -28.0 -1.1 -32.0 Q-2.3 -33.45 -3.5 -32.8 -5.15 -31.95 -6.9 -27.05 -6.95 -35.7 -4.25 -39.2 -1.55 -42.7 -0.95 -44.55 -0.4 -46.45 -0.55 -47.85 -0.65 -49.2 0.35 -50.8 L1.4 -52.05 Q0.15 -49.7 0.8 -47.0 1.45 -44.3 1.4 -43.05 L1.35 -41.4 0.7 -40.95 Q-1.35 -39.4 -0.9 -36.1 -0.75 -34.95 0.15 -34.55 L0.7 -34.55 1.7 -34.6 2.55 -35.7 3.2 -36.6 3.35 -36.6 3.15 -35.9 Q3.9 -33.05 2.15 -31.25 L1.75 -25.8" fill="none" stroke="#000000" stroke-linecap="round" stroke-linejoin="round" stroke-width="0.05"/>
    <path d="M1.75 -25.8 L1.55 -21.65" fill="none" stroke="#000000" stroke-linecap="round" stroke-linejoin="round" stroke-width="0.05"/>
    <path d="M0.7 -40.95 Q1.85 -40.35 2.35 -39.0 L2.7 -38.35 2.55 -35.7" fill="none" stroke="#ffbf3e" stroke-linecap="round" stroke-linejoin="round" stroke-width="0.05"/>
    <path d="M-3.5 -32.8 L-4.1 -34.05 -4.5 -34.7 -2.6 -35.55 -2.6 -35.65 -3.4 -36.5 -3.6 -36.65 -3.7 -36.8 -3.7 -37.5 -2.5 -37.45 -2.45 -37.75 -2.7 -38.4 -1.35 -39.65 -1.2 -40.35 -0.6 -40.65 -0.2 -42.1 0.15 -42.2 0.5 -42.1 0.85 -41.55 M0.7 -34.55 L0.75 -34.15 0.85 -34.0 1.7 -33.75 Q1.9 -33.7 1.75 -33.3 1.65 -33.0 1.2 -33.1 L1.05 -33.1 0.85 -31.9 0.7 -31.95 0.6 -31.95 0.25 -32.05 0.0 -32.1 Q-0.5 -32.2 -0.55 -31.85 L-0.55 -31.55 -0.5 -31.4 -0.4 -30.35 -0.35 -28.3 M-6.2 -30.8 Q-6.3 -35.8 -3.2 -39.45 -0.05 -43.1 0.1 -47.95 L0.2 -49.7" fill="none" stroke="#fdf0ac" stroke-linecap="round" stroke-linejoin="round" stroke-width="0.05"/>
    <path d="M-0.55 46.15 L0.35 45.75 1.5 44.75 0.8 42.85 -0.15 42.9 -0.15 43.25 0.25 44.5 -0.95 43.4 Q-2.7 41.3 -0.5 39.5 L0.6 39.35 1.65 39.8 Q2.6 41.0 2.6 42.4 L2.3 44.75 Q1.7 47.0 -0.6 46.2 L-0.55 46.15" fill="url(#gradient3)" fill-rule="evenodd" stroke="none"/>
    <path d="M-0.6 46.2 Q1.7 47.0 2.3 44.75 L2.6 42.4 Q2.6 41.0 1.65 39.8 L0.6 39.35 -0.5 39.5 Q-2.7 41.3 -0.95 43.4 L0.25 44.5 -0.15 43.25 -0.15 42.9 0.8 42.85 1.5 44.75 0.35 45.75 -0.55 46.15 -0.6 46.15 -0.6 46.2 Z" fill="none" stroke="#000000" stroke-linecap="round" stroke-linejoin="round" stroke-width="0.05"/>
  </g>
  <defs>
    <linearGradient gradientTransform="matrix(0.001, 0.0, 0.0, 0.0492, 0.4, 6.05)" gradientUnits="userSpaceOnUse" id="gradient0" spreadMethod="pad" x1="-819.2" x2="819.2">
      <stop offset="0.0" stop-color="#97721e"/>
      <stop offset="0.5450980392156862" stop-color="#f0cf99"/>
      <stop offset="1.0" stop-color="#88671c"/>
    </linearGradient>
    <linearGradient gradientTransform="matrix(0.0029, 0.0, 0.0, 0.0037, -9.7, -4.15)" gradientUnits="userSpaceOnUse" id="gradient1" spreadMethod="pad" x1="-819.2" x2="819.2">
      <stop offset="0.0" stop-color="#97721e"/>
      <stop offset="0.5450980392156862" stop-color="#f0cf99"/>
      <stop offset="1.0" stop-color="#88671c"/>
    </linearGradient>
    <linearGradient gradientTransform="matrix(0.006, 0.002, -0.0049, 0.0145, -2.65, -39.85)" gradientUnits="userSpaceOnUse" id="gradient2" spreadMethod="pad" x1="-819.2" x2="819.2">
      <stop offset="0.0" stop-color="#97721e"/>
      <stop offset="0.5450980392156862" stop-color="#f0cf99"/>
      <stop offset="1.0" stop-color="#88671c"/>
    </linearGradient>
    <linearGradient gradientTransform="matrix(0.0026, 1.0E-4, -1.0E-4, 0.0043, 0.4, 42.85)" gradientUnits="userSpaceOnUse" id="gradient3" spreadMethod="pad" x1="-819.2" x2="819.2">
      <stop offset="0.0" stop-color="#97721e"/>
      <stop offset="0.5450980392156862" stop-color="#f0cf99"/>
      <stop offset="1.0" stop-color="#88671c"/>
    </linearGradient>
  </defs>
</svg>
