<?xml version="1.0" encoding="UTF-8" standalone="no"?>
<svg xmlns:xlink="http://www.w3.org/1999/xlink" height="101.2px" width="19.0px" xmlns="http://www.w3.org/2000/svg">
  <g transform="matrix(1.0, 0.0, 0.0, 1.0, 0.0, 0.0)">
    <path d="M1.2 7.4 L1.2 18.15 -0.4 18.15 -0.4 7.4 1.2 7.4 M1.2 18.9 L1.2 25.9 -0.4 25.9 -0.4 18.9 1.2 18.9 M1.2 26.65 L1.2 40.65 -0.4 40.65 -0.4 26.65 1.2 26.65" fill="url(#gradient0)" fill-rule="evenodd" stroke="none"/>
    <path d="M1.2 -3.25 L1.7 -3.25 1.7 -2.65 1.3 -2.65 -0.5 -2.65 -0.85 -2.65 -0.85 -3.25 -0.4 -3.25 0.15 -3.25 1.2 -3.25 M1.3 6.8 L1.9 6.8 1.9 7.4 1.2 7.4 -0.4 7.4 -1.0 7.4 -1.0 6.8 -0.5 6.8 1.3 6.8 M1.2 18.15 L1.35 18.15 1.35 18.9 1.2 18.9 -0.4 18.9 -0.55 18.9 -0.55 18.15 -0.4 18.15 1.2 18.15 M1.2 25.9 L1.6 25.9 1.6 26.65 1.2 26.65 -0.4 26.65 -0.7 26.65 -0.7 25.9 -0.4 25.9 1.2 25.9 M-0.8 -14.25 L-1.85 -14.25 -2.4 -14.25 -2.95 -14.25 -2.95 -14.5 -2.95 -14.95 -2.65 -15.05 -2.95 -14.95 -2.95 -15.05 -2.65 -15.05 -2.4 -15.05 -0.8 -15.05 -0.3 -15.05 -0.3 -14.25 -0.8 -14.25" fill="#fdf0ac" fill-rule="evenodd" stroke="none"/>
    <path d="M-2.95 -14.95 L-2.95 -14.5 Q-8.3 -13.95 -10.05 -12.6 -11.85 -11.3 -12.35 -11.3 L-12.8 -11.35 -12.85 -11.8 -12.6 -12.7 -12.15 -12.65 Q-11.45 -12.9 -9.05 -14.1 -6.65 -15.35 -2.95 -14.95" fill="#ffffc8" fill-rule="evenodd" stroke="none"/>
    <path d="M1.2 -3.25 L0.15 -3.25 -0.4 -3.25 -0.4 -4.45 Q-0.35 -7.4 -1.45 -9.0 -2.4 -10.45 -2.4 -12.85 L-2.4 -14.25 -1.85 -14.25 -0.8 -14.25 -0.8 -12.85 Q-0.8 -10.25 0.15 -9.0 1.15 -7.5 1.2 -4.45 L1.2 -3.25 M0.15 -3.25 Q0.45 -6.25 -0.4 -7.95 L-1.55 -10.75 -1.75 -12.65 -1.85 -14.25 -1.75 -12.65 -1.55 -10.75 -0.4 -7.95 Q0.45 -6.25 0.15 -3.25 M-2.4 -26.25 L-0.8 -26.25 -0.8 -15.05 -2.4 -15.05 -2.4 -26.25" fill="url(#gradient1)" fill-rule="evenodd" stroke="none"/>
    <path d="M-0.5 -2.65 L1.3 -2.65 Q0.8 2.1 1.3 6.8 L-0.5 6.8 Q-0.95 2.1 -0.5 -2.65" fill="#fdedb7" fill-rule="evenodd" stroke="none"/>
    <path d="M-12.15 -12.65 L-12.6 -12.7 -12.85 -13.2 -13.05 -13.35 Q-13.8 -13.7 -14.3 -13.0 L-14.6 -12.5 Q-14.95 -11.7 -14.4 -11.1 L-14.2 -11.0 Q-13.6 -10.7 -13.1 -11.15 L-12.8 -11.35 -12.35 -11.3 -12.45 -11.15 -12.6 -10.9 -13.5 -10.1 Q-14.3 -9.7 -15.05 -10.25 L-15.35 -10.5 -15.7 -11.45 Q-15.9 -12.7 -15.1 -13.75 -14.55 -14.5 -13.5 -14.55 L-13.2 -14.55 -12.55 -14.05 -12.35 -13.75 -12.25 -13.55 -12.15 -12.65" fill="url(#gradient2)" fill-rule="evenodd" stroke="none"/>
    <path d="M1.3 -2.65 Q0.8 2.1 1.3 6.8 M1.2 7.4 L1.2 18.15 1.35 18.15 1.35 18.9 1.2 18.9 1.2 25.9 1.6 25.9 1.6 26.65 1.2 26.65 1.2 40.65 M-0.4 40.65 L-0.4 26.65 -0.7 26.65 -0.7 25.9 -0.4 25.9 -0.4 18.9 -0.55 18.9 -0.55 18.15 -0.4 18.15 -0.4 7.4 M-0.5 6.8 Q-0.95 2.1 -0.5 -2.65 M1.2 -3.25 L1.2 -4.45 Q1.15 -7.5 0.15 -9.0 -0.8 -10.25 -0.8 -12.85 L-0.8 -14.25 -1.85 -14.25 -2.4 -14.25 -2.95 -14.25 -2.95 -14.5 -2.95 -14.95 -2.95 -15.05 -2.65 -15.05 -2.4 -15.05 -2.4 -26.25 M-0.8 -26.25 L-0.8 -15.05 -0.3 -15.05 -0.3 -14.25 -0.8 -14.25 M-0.4 -3.25 L-0.4 -4.45 Q-0.35 -7.4 -1.45 -9.0 -2.4 -10.45 -2.4 -12.85 L-2.4 -14.25 M-2.4 -15.05 L-0.8 -15.05 M1.2 25.9 L-0.4 25.9 M-0.4 26.65 L1.2 26.65 M1.2 18.9 L-0.4 18.9 M1.2 18.15 L-0.4 18.15" fill="none" stroke="#000000" stroke-linecap="round" stroke-linejoin="round" stroke-width="0.05"/>
    <path d="M1.3 -2.65 L1.7 -2.65 1.7 -3.25 1.2 -3.25 0.15 -3.25 -0.4 -3.25 -0.85 -3.25 -0.85 -2.65 -0.5 -2.65 1.3 -2.65 M1.3 6.8 L1.9 6.8 1.9 7.4 1.2 7.4 -0.4 7.4 -1.0 7.4 -1.0 6.8 -0.5 6.8 1.3 6.8 M-2.95 -14.95 Q-6.65 -15.35 -9.05 -14.1 -11.45 -12.9 -12.15 -12.65 L-12.6 -12.7 -12.85 -11.8 -12.8 -11.35 -12.35 -11.3 Q-11.85 -11.3 -10.05 -12.6 -8.3 -13.95 -2.95 -14.5 M-12.6 -12.7 L-12.85 -13.2 -13.05 -13.35 Q-13.8 -13.7 -14.3 -13.0 L-14.6 -12.5 Q-14.95 -11.7 -14.4 -11.1 L-14.2 -11.0 Q-13.6 -10.7 -13.1 -11.15 L-12.8 -11.35 M-12.35 -11.3 L-12.45 -11.15 -12.6 -10.9 -13.5 -10.1 Q-14.3 -9.7 -15.05 -10.25 L-15.35 -10.5 -15.7 -11.45 Q-15.9 -12.7 -15.1 -13.75 -14.55 -14.5 -13.5 -14.55 L-13.2 -14.55 -12.55 -14.05 -12.35 -13.75 -12.25 -13.55 -12.15 -12.65" fill="none" stroke="#000000" stroke-linecap="round" stroke-linejoin="round" stroke-width="0.05"/>
    <path d="M-1.85 -14.25 L-1.75 -12.65 -1.55 -10.75 -0.4 -7.95 Q0.45 -6.25 0.15 -3.25" fill="none" stroke="#ffffc8" stroke-linecap="round" stroke-linejoin="round" stroke-width="0.05"/>
    <path d="M-2.95 -14.95 L-2.65 -15.05" fill="none" stroke="#97721e" stroke-linecap="round" stroke-linejoin="round" stroke-width="0.05"/>
    <path d="M0.45 -43.45 L0.1 -42.65 Q-0.25 -42.3 -0.75 -42.3 -1.25 -42.3 -1.6 -42.65 -1.95 -42.95 -1.95 -43.45 L-1.6 -44.3 Q-1.25 -44.65 -0.75 -44.65 -0.25 -44.65 0.1 -44.3 L0.45 -43.45 M1.75 -41.35 Q2.35 -41.35 2.75 -40.95 3.15 -40.55 3.15 -39.95 3.15 -39.35 2.75 -39.0 2.35 -38.6 1.75 -38.6 1.15 -38.6 0.75 -39.0 0.4 -39.35 0.4 -39.95 0.4 -40.55 0.75 -40.95 1.15 -41.35 1.75 -41.35 M1.0 -40.05 L1.0 -40.0 0.85 -39.95 0.8 -39.85 0.8 -39.75 Q0.9 -39.5 1.15 -39.65 L1.2 -39.7 1.0 -40.05 M1.35 -41.05 Q0.75 -40.95 0.95 -40.35 L1.3 -40.15 Q2.3 -40.55 1.35 -41.05 M1.9 -31.5 L1.7 -31.95 1.9 -32.4 2.35 -32.6 2.8 -32.4 3.0 -31.95 2.8 -31.5 2.35 -31.3 Q2.1 -31.3 1.9 -31.5 M2.1 -32.0 Q2.55 -32.0 2.2 -32.25 L2.15 -32.25 2.05 -32.05 2.1 -32.0 M-0.8 -43.85 L-1.15 -44.2 -1.25 -44.1 Q-1.7 -43.9 -1.35 -43.5 L-1.05 -43.45 -0.9 -43.55 -0.75 -43.8 -0.8 -43.85" fill="#ffff00" fill-opacity="0.67058825" fill-rule="evenodd" stroke="none"/>
    <path d="M1.35 -41.05 Q2.3 -40.55 1.3 -40.15 L0.95 -40.35 Q0.75 -40.95 1.35 -41.05 M1.0 -40.05 L1.2 -39.7 1.15 -39.65 Q0.9 -39.5 0.8 -39.75 L0.8 -39.85 0.85 -39.95 1.0 -40.0 1.0 -40.05 M2.1 -32.0 L2.05 -32.05 2.15 -32.25 2.2 -32.25 Q2.55 -32.0 2.1 -32.0 M-0.8 -43.85 L-0.75 -43.8 -0.9 -43.55 -1.05 -43.45 -1.35 -43.5 Q-1.7 -43.9 -1.25 -44.1 L-1.15 -44.2 -0.8 -43.85" fill="#ffffc8" fill-rule="evenodd" stroke="none"/>
    <path d="M0.7 -42.3 Q-1.2 -40.85 -1.3 -38.5 L-1.3 -38.1 -1.1 -37.5 Q-0.5 -36.35 0.85 -36.5 2.0 -36.75 2.65 -37.9 L2.8 -38.6 Q3.7 -37.65 2.75 -36.4 2.1 -35.5 1.95 -34.5 L2.25 -34.35 2.85 -33.55 2.55 -32.85 2.4 -33.15 2.2 -33.3 1.65 -33.3 1.45 -33.2 0.95 -32.9 Q0.3 -32.05 1.05 -31.2 L1.55 -30.7 2.15 -31.0 1.65 -30.3 Q1.0 -29.8 0.3 -29.9 L-0.2 -29.55 -0.35 -28.95 Q-0.4 -23.6 -0.85 -20.2 L-1.15 -22.1 Q-1.65 -23.9 -2.7 -25.0 L-2.65 -26.8 -2.65 -27.85 -2.5 -29.3 -2.2 -29.7 -1.55 -30.4 Q-0.8 -31.3 -0.45 -32.9 -0.15 -34.55 -1.7 -35.35 -3.25 -34.6 -3.75 -33.35 L-4.5 -30.9 Q-5.1 -32.3 -5.05 -34.1 -5.05 -35.9 -4.6 -37.4 -5.9 -35.55 -6.7 -33.15 L-7.05 -31.85 Q-7.95 -34.6 -7.45 -37.5 -7.1 -39.55 -5.85 -41.4 -6.1 -41.6 -7.15 -40.4 -8.15 -39.25 -8.7 -37.15 -9.0 -41.05 -8.15 -42.6 -7.3 -44.2 -5.2 -46.05 -3.75 -47.4 -2.7 -50.15 L-1.85 -53.05 -1.85 -45.15 -2.65 -44.85 Q-3.3 -44.15 -3.4 -43.25 -3.55 -42.3 -2.85 -41.7 L-1.1 -41.8 0.1 -42.15 0.7 -42.3 M2.1 -33.85 L1.65 -34.1 1.0 -34.35 0.55 -35.2 1.4 -35.6 Q2.65 -36.25 2.85 -37.65 2.65 -36.25 1.4 -35.6 L0.55 -35.2 1.0 -34.35 1.65 -34.1 2.1 -33.85 M-2.7 -50.15 L-2.7 -49.75 Q-2.8 -49.0 -3.15 -48.35 -4.15 -46.35 -5.85 -44.8 L-7.0 -43.5 Q-8.45 -41.75 -8.4 -39.55 -8.45 -41.75 -7.0 -43.5 L-5.85 -44.8 Q-4.15 -46.35 -3.15 -48.35 -2.8 -49.0 -2.7 -49.75 L-2.7 -50.15 M-2.65 -27.85 L-2.25 -27.85 -2.2 -28.7 -2.2 -29.7 -2.2 -28.7 -2.25 -27.85 -2.15 -27.8 Q-1.75 -27.55 -1.9 -26.6 L-1.05 -26.1 -1.1 -28.65 Q-1.1 -29.55 -0.45 -30.35 L1.05 -30.4 -0.45 -30.35 Q-1.1 -29.55 -1.1 -28.65 L-1.05 -26.1 -1.9 -26.6 Q-1.75 -27.55 -2.15 -27.8 L-2.25 -27.85 -2.65 -27.85 M-1.9 -26.6 L-2.65 -26.8 -1.9 -26.6 M-1.05 -26.1 L-1.05 -25.05 -1.1 -23.1 -1.15 -22.1 -1.1 -23.1 -1.05 -25.05 -1.05 -26.1 M0.55 -35.2 Q0.1 -35.75 -0.5 -35.55 L-0.75 -35.4 -0.5 -35.55 Q0.1 -35.75 0.55 -35.2 M-3.9 -37.6 L-4.2 -36.65 -4.55 -32.7 -4.2 -36.65 -3.9 -37.6 M-5.85 -44.8 L-6.1 -42.95 -4.7 -44.45 Q-5.4 -42.85 -5.1 -41.3 L-4.55 -39.25 -4.1 -40.1 -3.55 -40.85 Q-3.75 -39.4 -3.25 -38.1 L-2.6 -36.85 -1.95 -37.9 -1.6 -38.05 -1.3 -38.1 -1.6 -38.05 -1.95 -37.9 -2.6 -36.85 -3.25 -38.1 Q-3.75 -39.4 -3.55 -40.85 L-4.1 -40.1 -4.55 -39.25 -5.1 -41.3 Q-5.4 -42.85 -4.7 -44.45 L-6.1 -42.95 -5.85 -44.8 M-5.65 -41.0 Q-6.45 -39.5 -6.9 -37.7 -7.35 -35.9 -7.15 -33.65 -7.35 -35.9 -6.9 -37.7 -6.45 -39.5 -5.65 -41.0" fill="url(#gradient3)" fill-rule="evenodd" stroke="none"/>
    <path d="M0.7 -42.3 Q-1.2 -40.85 -1.3 -38.5 L-1.3 -38.1 -1.1 -37.5 Q-0.5 -36.35 0.85 -36.5 2.0 -36.75 2.65 -37.9 L2.8 -38.6 Q3.7 -37.65 2.75 -36.4 2.1 -35.5 1.95 -34.5 L2.25 -34.35 2.85 -33.55 2.55 -32.85 2.4 -33.15 2.2 -33.3 1.65 -33.3 1.45 -33.2 0.95 -32.9 Q0.3 -32.05 1.05 -31.2 L1.55 -30.7 2.15 -31.0 1.65 -30.3 Q1.0 -29.8 0.3 -29.9 L-0.2 -29.55 -0.35 -28.95 Q-0.4 -23.6 -0.85 -20.2 L-1.15 -22.1 Q-1.65 -23.9 -2.7 -25.0 L-2.65 -26.8 -2.65 -27.85 -2.5 -29.3 -2.2 -29.7 -1.55 -30.4 Q-0.8 -31.3 -0.45 -32.9 -0.15 -34.55 -1.7 -35.35 -3.25 -34.6 -3.75 -33.35 L-4.5 -30.9 Q-5.1 -32.3 -5.05 -34.1 -5.05 -35.9 -4.6 -37.4 -5.9 -35.55 -6.7 -33.15 L-7.05 -31.85 Q-7.95 -34.6 -7.45 -37.5 -7.1 -39.55 -5.85 -41.4 -6.1 -41.6 -7.15 -40.4 -8.15 -39.25 -8.7 -37.15 -9.0 -41.05 -8.15 -42.6 -7.3 -44.2 -5.2 -46.05 -3.75 -47.4 -2.7 -50.15 L-1.85 -53.05 -1.85 -45.15 -2.65 -44.85 Q-3.3 -44.15 -3.4 -43.25 -3.55 -42.3 -2.85 -41.7 L-1.1 -41.8 0.1 -42.15 0.7 -42.3" fill="none" stroke="#000000" stroke-linecap="round" stroke-linejoin="round" stroke-width="0.05"/>
    <path d="M2.85 -37.65 Q2.65 -36.25 1.4 -35.6 L0.55 -35.2 1.0 -34.35 1.65 -34.1 2.1 -33.85 M-8.4 -39.55 Q-8.45 -41.75 -7.0 -43.5 L-5.85 -44.8 Q-4.15 -46.35 -3.15 -48.35 -2.8 -49.0 -2.7 -49.75 L-2.7 -50.15 M-7.15 -33.65 Q-7.35 -35.9 -6.9 -37.7 -6.45 -39.5 -5.65 -41.0 M-1.3 -38.1 L-1.6 -38.05 -1.95 -37.9 -2.6 -36.85 -3.25 -38.1 Q-3.75 -39.4 -3.55 -40.85 L-4.1 -40.1 -4.55 -39.25 -5.1 -41.3 Q-5.4 -42.85 -4.7 -44.45 L-6.1 -42.95 -5.85 -44.8 M-4.55 -32.7 L-4.2 -36.65 -3.9 -37.6 M-0.75 -35.4 L-0.5 -35.55 Q0.1 -35.75 0.55 -35.2 M-2.2 -29.7 L-2.2 -28.7 -2.25 -27.85 -2.15 -27.8 Q-1.75 -27.55 -1.9 -26.6 L-1.05 -26.1 -1.1 -28.65 Q-1.1 -29.55 -0.45 -30.35 L1.05 -30.4 M-1.15 -22.1 L-1.1 -23.1 -1.05 -25.05 -1.05 -26.1 M-2.65 -26.8 L-1.9 -26.6 M-2.25 -27.85 L-2.65 -27.85" fill="none" stroke="#ffffc8" stroke-linecap="round" stroke-linejoin="round" stroke-width="0.05"/>
    <path d="M0.45 -43.45 L0.1 -42.65 Q-0.25 -42.3 -0.75 -42.3 -1.25 -42.3 -1.6 -42.65 -1.95 -42.95 -1.95 -43.45 L-1.6 -44.3 Q-1.25 -44.65 -0.75 -44.65 -0.25 -44.65 0.1 -44.3 L0.45 -43.45 M1.75 -41.35 Q2.35 -41.35 2.75 -40.95 3.15 -40.55 3.15 -39.95 3.15 -39.35 2.75 -39.0 2.35 -38.6 1.75 -38.6 1.15 -38.6 0.75 -39.0 0.4 -39.35 0.4 -39.95 0.4 -40.55 0.75 -40.95 1.15 -41.35 1.75 -41.35 M1.9 -31.5 L1.7 -31.95 1.9 -32.4 2.35 -32.6 2.8 -32.4 3.0 -31.95 2.8 -31.5 2.35 -31.3 Q2.1 -31.3 1.9 -31.5 Z" fill="none" stroke="#ffffae" stroke-linecap="round" stroke-linejoin="round" stroke-width="0.05"/>
    <path d="M-0.4 39.75 L-0.4 38.85 0.15 39.2 0.85 39.7 1.6 39.75 2.05 40.35 Q3.5 42.5 2.65 45.05 L1.65 46.9 1.7 45.85 2.0 45.45 Q2.3 44.45 1.9 43.65 L1.6 44.0 1.5 42.8 1.4 43.4 1.0 44.35 0.85 43.75 0.8 43.7 0.25 44.2 0.0 43.2 -1.0 44.45 Q-0.2 42.55 -0.3 40.55 L-0.4 39.75 -0.3 40.55 Q-0.2 42.55 -1.0 44.45 L0.0 43.2 0.25 44.2 0.8 43.7 0.85 43.75 1.0 44.35 1.4 43.4 1.5 42.8 1.6 44.0 1.9 43.65 2.0 42.4 1.9 43.65 Q2.3 44.45 2.0 45.45 L1.7 45.85 1.7 44.6 1.0 46.5 Q0.5 47.4 -0.8 48.15 L0.3 44.5 Q-0.35 46.0 -1.2 46.9 -2.05 47.8 -3.05 47.9 L-2.8 47.5 Q-0.65 43.95 -0.4 39.75 M1.55 41.45 Q1.6 41.9 1.05 42.35 0.35 42.45 0.0 41.9 L-0.05 41.25 Q0.0 40.15 0.85 39.7 0.0 40.15 -0.05 41.25 L0.0 41.9 Q0.35 42.45 1.05 42.35 1.6 41.9 1.55 41.45 M0.85 43.75 L0.7 44.7 -0.2 47.25 0.7 44.7 0.85 43.75 M-1.0 44.45 L-1.25 45.35 Q-1.7 47.0 -2.8 47.5 -1.7 47.0 -1.25 45.35 L-1.0 44.45" fill="url(#gradient4)" fill-rule="evenodd" stroke="none"/>
    <path d="M0.85 39.7 L0.15 39.2 -0.4 38.85 -0.4 39.75 Q-0.65 43.95 -2.8 47.5 L-3.05 47.9 Q-2.05 47.8 -1.2 46.9 -0.35 46.0 0.3 44.5 L-0.8 48.15 Q0.5 47.4 1.0 46.5 L1.7 44.6 1.7 45.85 1.65 46.9 2.65 45.05 Q3.5 42.5 2.05 40.35 L1.6 39.75 0.85 39.7 Q0.0 40.15 -0.05 41.25 L0.0 41.9 Q0.35 42.45 1.05 42.35 1.6 41.9 1.55 41.45" fill="none" stroke="#000000" stroke-linecap="round" stroke-linejoin="round" stroke-width="0.05"/>
    <path d="M0.15 39.2 L0.25 38.55 0.6 38.15 0.7 37.85 0.6 37.6 0.45 37.45 0.1 37.3 0.05 37.1 0.15 36.4 0.5 36.3 0.6 36.15 0.7 36.15 0.55 35.95 0.15 35.55 0.05 35.35 Q0.0 34.9 0.35 34.4 L0.85 33.6 M-0.4 39.75 L-0.3 40.55 Q-0.2 42.55 -1.0 44.45 L0.0 43.2 0.25 44.2 0.8 43.7 0.85 43.75 1.0 44.35 1.4 43.4 1.5 42.8 1.6 44.0 1.9 43.65 2.0 42.4 M-0.2 47.25 L0.7 44.7 0.85 43.75 M1.9 43.65 Q2.3 44.45 2.0 45.45 L1.7 45.85 M-2.8 47.5 Q-1.7 47.0 -1.25 45.35 L-1.0 44.45" fill="none" stroke="#fdedb7" stroke-linecap="round" stroke-linejoin="round" stroke-width="0.05"/>
  </g>
  <defs>
    <linearGradient gradientTransform="matrix(0.001, 0.0, 0.0, 0.0492, 0.4, 6.05)" gradientUnits="userSpaceOnUse" id="gradient0" spreadMethod="pad" x1="-819.2" x2="819.2">
      <stop offset="0.0" stop-color="#97721e"/>
      <stop offset="0.5450980392156862" stop-color="#f0cf99"/>
      <stop offset="1.0" stop-color="#88671c"/>
    </linearGradient>
    <linearGradient gradientTransform="matrix(0.001, 0.0, 0.0, 0.0068, -1.6, -20.65)" gradientUnits="userSpaceOnUse" id="gradient1" spreadMethod="pad" x1="-819.2" x2="819.2">
      <stop offset="0.0" stop-color="#97721e"/>
      <stop offset="0.5450980392156862" stop-color="#f0cf99"/>
      <stop offset="1.0" stop-color="#88671c"/>
    </linearGradient>
    <linearGradient gradientTransform="matrix(0.0022, 0.0, 0.0, 0.0028, -13.95, -12.25)" gradientUnits="userSpaceOnUse" id="gradient2" spreadMethod="pad" x1="-819.2" x2="819.2">
      <stop offset="0.0" stop-color="#97721e"/>
      <stop offset="0.5450980392156862" stop-color="#f0cf99"/>
      <stop offset="1.0" stop-color="#88671c"/>
    </linearGradient>
    <linearGradient gradientTransform="matrix(0.0114, 0.0014, -0.0018, 0.015, -5.95, -40.7)" gradientUnits="userSpaceOnUse" id="gradient3" spreadMethod="pad" x1="-819.2" x2="819.2">
      <stop offset="0.0" stop-color="#97721e"/>
      <stop offset="0.5450980392156862" stop-color="#f0cf99"/>
      <stop offset="1.0" stop-color="#88671c"/>
    </linearGradient>
    <linearGradient gradientTransform="matrix(0.0026, 1.0E-4, -1.0E-4, 0.0043, 0.4, 42.85)" gradientUnits="userSpaceOnUse" id="gradient4" spreadMethod="pad" x1="-819.2" x2="819.2">
      <stop offset="0.0" stop-color="#97721e"/>
      <stop offset="0.5450980392156862" stop-color="#f0cf99"/>
      <stop offset="1.0" stop-color="#88671c"/>
    </linearGradient>
  </defs>
</svg>
