<?xml version="1.0" encoding="UTF-8" standalone="no"?>
<svg xmlns:xlink="http://www.w3.org/1999/xlink" height="87.9px" width="5.4px" xmlns="http://www.w3.org/2000/svg">
  <g transform="matrix(1.0, 0.0, 0.0, 1.0, 0.0, 0.0)">
    <path d="M1.2 -34.2 L1.2 46.4 -0.4 46.4 -0.4 -34.2 1.2 -34.2" fill="#4a2c15" fill-rule="evenodd" stroke="none"/>
    <path d="M1.2 -34.2 L1.2 46.4 -0.4 46.4 -0.4 -34.2 1.2 -34.2 Z" fill="none" stroke="#000000" stroke-linecap="round" stroke-linejoin="round" stroke-width="0.05"/>
    <path d="M0.45 -32.0 Q-0.85 -31.85 -1.65 -30.6 L-2.25 -29.3 Q-1.85 -34.95 0.4 -41.5 2.55 -35.4 3.15 -29.2 L2.5 -30.55 Q1.7 -31.85 0.45 -32.0 L0.4 -37.95 0.45 -32.0 M-1.65 -30.6 Q-1.15 -35.95 0.4 -40.75 1.95 -35.85 2.5 -30.55 1.95 -35.85 0.4 -40.75 -1.15 -35.95 -1.65 -30.6" fill="url(#gradient0)" fill-rule="evenodd" stroke="none"/>
    <path d="M0.45 -32.0 Q-0.85 -31.85 -1.65 -30.6 L-2.25 -29.3 Q-1.85 -34.95 0.4 -41.5 2.55 -35.4 3.15 -29.2 L2.5 -30.55 Q1.7 -31.85 0.45 -32.0 L0.4 -37.95" fill="none" stroke="#000000" stroke-linecap="round" stroke-linejoin="round" stroke-width="0.05"/>
    <path d="M2.5 -30.55 Q1.95 -35.85 0.4 -40.75 -1.15 -35.95 -1.65 -30.6" fill="none" stroke="#ffffff" stroke-linecap="round" stroke-linejoin="round" stroke-width="0.05"/>
  </g>
  <defs>
    <linearGradient gradientTransform="matrix(0.0018, 0.0, 0.0, 0.0037, 0.35, -35.95)" gradientUnits="userSpaceOnUse" id="gradient0" spreadMethod="pad" x1="-819.2" x2="819.2">
      <stop offset="0.0" stop-color="#ffffff"/>
      <stop offset="0.2" stop-color="#d3cbc5"/>
      <stop offset="1.0" stop-color="#917c6f"/>
    </linearGradient>
  </defs>
</svg>
