<?xml version="1.0" encoding="UTF-8" standalone="no"?>
<svg xmlns:xlink="http://www.w3.org/1999/xlink" height="97.2px" width="11.95px" xmlns="http://www.w3.org/2000/svg">
  <g transform="matrix(1.0, 0.0, 0.0, 1.0, 0.0, 0.0)">
    <path d="M0.05 -5.0 L1.2 -5.0 1.2 45.0 -0.4 45.0 -0.4 -5.0 0.05 -5.0 M1.2 -18.35 L0.05 -18.35 -0.4 -18.35 -0.4 -34.2 1.2 -34.2 1.2 -18.35" fill="#4a2c15" fill-rule="evenodd" stroke="none"/>
    <path d="M0.05 -5.0 L0.05 -18.35 0.05 -5.0 -0.4 -5.0 -0.4 -18.35 0.05 -18.35 1.2 -18.35 1.2 -5.0 0.05 -5.0 M0.45 46.5 L-0.15 46.3 -0.4 45.8 -0.15 45.3 0.45 45.1 1.05 45.3 1.3 45.8 1.05 46.3 0.45 46.5" fill="#ffcc33" fill-rule="evenodd" stroke="none"/>
    <path d="M0.05 -5.0 L1.2 -5.0 1.2 -18.35 0.05 -18.35 -0.4 -18.35 -0.4 -5.0 0.05 -5.0 M1.2 -18.35 L1.2 -34.2 -0.4 -34.2 -0.4 -18.35 M0.45 46.5 L-0.15 46.3 -0.4 45.8 -0.15 45.3 0.45 45.1 1.05 45.3 1.3 45.8 1.05 46.3 0.45 46.5 M-0.4 -5.0 L-0.4 45.0 1.2 45.0 1.2 -5.0" fill="none" stroke="#000000" stroke-linecap="round" stroke-linejoin="round" stroke-width="0.05"/>
    <path d="M0.05 -18.35 L0.05 -5.0" fill="none" stroke="#ffffcc" stroke-linecap="round" stroke-linejoin="round" stroke-width="0.05"/>
    <path d="M0.35 -31.55 L0.35 -33.1 0.35 -31.55 M-1.4 -33.1 L0.35 -33.1 1.6 -33.1 2.7 -33.1 6.05 -27.85 1.45 -31.7 0.35 -30.45 -0.95 -31.75 -5.9 -27.5 -2.2 -33.1 -1.4 -33.1 -3.25 -30.5 -1.4 -33.1 M3.95 -30.2 L1.6 -33.1 3.95 -30.2" fill="#8c5e2f" fill-rule="evenodd" stroke="none"/>
    <path d="M1.6 -33.1 L0.35 -33.1 -1.4 -33.1 -2.2 -33.1 -5.9 -27.5 -0.95 -31.75 0.35 -30.45 1.45 -31.7 6.05 -27.85 2.7 -33.1 1.6 -33.1" fill="none" stroke="#000000" stroke-linecap="round" stroke-linejoin="round" stroke-width="0.05"/>
    <path d="M0.35 -33.1 L0.35 -31.55 M-1.4 -33.1 L-3.25 -30.5 M1.6 -33.1 L3.95 -30.2" fill="none" stroke="#ffff66" stroke-linecap="round" stroke-linejoin="round" stroke-width="0.05"/>
    <path d="M2.65 -50.7 Q0.7 -45.6 1.75 -43.15 L3.65 -37.5 Q4.55 -34.2 1.75 -32.5 -1.0 -30.8 -2.25 -33.4 -3.2 -35.3 -1.95 -37.2 -0.4 -39.55 -0.3 -42.15 -0.25 -43.3 -0.55 -44.45 L-1.15 -47.65 1.4 -50.0 2.65 -50.7 M0.85 -35.1 L0.35 -34.45 0.1 -34.65 0.15 -35.6 0.5 -36.5 1.7 -36.3 2.0 -36.25 2.15 -34.75 Q1.65 -32.5 -0.55 -33.15 -2.75 -33.85 -0.55 -37.95 1.7 -42.05 -0.4 -46.65 L1.8 -49.65 -0.4 -46.65 Q1.7 -42.05 -0.55 -37.95 -2.75 -33.85 -0.55 -33.15 1.65 -32.5 2.15 -34.75 L2.0 -36.25 1.7 -36.3 0.5 -36.5 0.15 -35.6 0.1 -34.65 0.35 -34.45 0.85 -35.1" fill="url(#gradient0)" fill-rule="evenodd" stroke="none"/>
    <path d="M2.65 -50.7 Q0.7 -45.6 1.75 -43.15 L3.65 -37.5 Q4.55 -34.2 1.75 -32.5 -1.0 -30.8 -2.25 -33.4 -3.2 -35.3 -1.95 -37.2 -0.4 -39.55 -0.3 -42.15 -0.25 -43.3 -0.55 -44.45 L-1.15 -47.65 1.4 -50.0 2.65 -50.7" fill="none" stroke="#000000" stroke-linecap="round" stroke-linejoin="round" stroke-width="0.05"/>
    <path d="M1.8 -49.65 L-0.4 -46.65 Q1.7 -42.05 -0.55 -37.95 -2.75 -33.85 -0.55 -33.15 1.65 -32.5 2.15 -34.75 L2.0 -36.25 1.7 -36.3 0.5 -36.5 0.15 -35.6 0.1 -34.65 0.35 -34.45 0.85 -35.1" fill="none" stroke="#ffff66" stroke-linecap="round" stroke-linejoin="round" stroke-width="0.05"/>
  </g>
  <defs>
    <radialGradient cx="0" cy="0" gradientTransform="matrix(0.0118, 0.0, 0.0, 0.0118, 0.6, -41.25)" gradientUnits="userSpaceOnUse" id="gradient0" r="819.2" spreadMethod="pad">
      <stop offset="0.0" stop-color="#ac8853"/>
      <stop offset="0.7764705882352941" stop-color="#ffc635"/>
      <stop offset="1.0" stop-color="#ffff35"/>
    </radialGradient>
  </defs>
</svg>
