<?xml version="1.0" encoding="UTF-8" standalone="no"?>
<svg xmlns:xlink="http://www.w3.org/1999/xlink" height="99.65px" width="4.95px" xmlns="http://www.w3.org/2000/svg">
  <g transform="matrix(1.0, 0.0, 0.0, 1.0, 0.0, 0.0)">
    <path d="M1.2 3.3 L1.2 7.4 0.15 10.85 Q-1.3 18.95 0.15 27.6 L1.2 31.05 Q2.7 38.15 1.2 46.4 L0.2 43.25 Q1.0 38.45 -0.4 31.05 L-1.45 27.6 Q-2.95 19.25 -1.45 10.85 L-0.4 7.4 -0.4 3.3 0.0 3.3 1.2 3.3 M-0.4 -3.2 L-0.4 -34.2 1.2 -34.2 1.2 -3.2 0.0 -3.2 -0.4 -3.2" fill="#000000" fill-rule="evenodd" stroke="none"/>
    <path d="M1.2 -3.2 L1.65 -3.2 1.65 3.3 1.2 3.3 0.0 3.3 -0.4 3.3 -0.75 3.3 -0.75 -3.2 -0.4 -3.2 0.0 -3.2 1.2 -3.2 M0.0 3.3 L0.0 -3.2 0.0 3.3" fill="#b49a6e" fill-rule="evenodd" stroke="none"/>
    <path d="M1.2 -3.2 L1.65 -3.2 1.65 3.3 1.2 3.3 1.2 7.4 0.15 10.85 Q-1.3 18.95 0.15 27.6 L1.2 31.05 Q2.7 38.15 1.2 46.4 L0.2 43.25 Q1.0 38.45 -0.4 31.05 L-1.45 27.6 Q-2.95 19.25 -1.45 10.85 L-0.4 7.4 -0.4 3.3 -0.75 3.3 -0.75 -3.2 -0.4 -3.2 -0.4 -34.2 1.2 -34.2 1.2 -3.2 0.0 -3.2 -0.4 -3.2 M0.0 3.3 L1.2 3.3 M0.0 3.3 L-0.4 3.3" fill="none" stroke="#000000" stroke-linecap="round" stroke-linejoin="round" stroke-width="0.05"/>
    <path d="M0.0 -3.2 L0.0 3.3" fill="none" stroke="#ffffcc" stroke-linecap="round" stroke-linejoin="round" stroke-width="0.05"/>
    <path d="M-1.55 -33.3 L0.25 -53.25 2.45 -35.0 0.65 -33.7 -1.6 -33.15 -1.55 -33.3" fill="url(#gradient0)" fill-rule="evenodd" stroke="none"/>
    <path d="M2.7 -32.4 L2.65 -32.15 2.6 -31.1 2.45 -31.0 2.15 -30.9 2.0 -30.85 1.75 -30.75 0.95 -30.65 0.65 -30.6 0.15 -30.55 -0.45 -30.65 2.55 -32.45 -0.45 -30.65 0.15 -30.55 0.65 -30.6 0.95 -30.65 1.75 -30.75 2.0 -30.85 2.15 -30.9 2.45 -31.0 2.55 -30.9 Q2.35 -30.8 2.4 -30.5 L2.4 -29.85 2.35 -29.7 2.25 -29.45 Q2.1 -29.2 2.1 -28.8 L2.05 -28.35 2.05 -28.2 1.95 -27.6 1.65 -26.25 1.6 -26.1 1.55 -25.2 1.5 -24.6 1.5 -24.55 1.45 -24.3 1.35 -23.55 1.3 -23.25 Q1.1 -22.45 0.3 -22.55 L0.15 -22.6 Q-0.65 -22.6 -0.6 -23.4 L-0.55 -23.65 -0.5 -23.7 Q-0.4 -23.95 -0.45 -24.3 L-0.75 -25.75 -0.75 -25.8 -0.9 -26.4 -0.95 -26.65 -1.15 -27.15 -1.25 -27.6 -1.3 -27.75 -1.35 -29.15 -1.35 -29.25 -1.35 -30.45 -1.65 -33.2 -1.6 -33.15 0.65 -33.7 2.45 -35.0 2.75 -32.7 2.55 -32.45 2.7 -32.4 M1.8 -28.1 L1.9 -28.2 2.05 -28.2 1.9 -28.2 1.7 -28.25 1.8 -28.1 1.55 -27.95 0.6 -27.55 0.45 -27.5 -1.15 -27.15 0.45 -27.5 0.6 -27.55 1.55 -27.95 1.8 -28.1 M-1.35 -29.15 L0.45 -28.5 1.7 -28.25 0.45 -28.5 -1.35 -29.15 M-0.75 -25.75 L0.95 -25.3 1.1 -25.25 1.55 -25.2 1.1 -25.25 0.95 -25.3 -0.75 -25.75 M-0.5 -23.7 L0.45 -23.85 1.5 -24.55 0.45 -23.85 -0.5 -23.7 M-1.35 -30.45 L-0.8 -30.45 -0.45 -30.65 -0.8 -30.45 -1.35 -30.45" fill="#b49a6e" fill-rule="evenodd" stroke="none"/>
    <path d="M2.7 -32.4 L2.65 -32.15 2.6 -31.1 2.55 -30.9 Q2.35 -30.8 2.4 -30.5 L2.4 -29.85 2.35 -29.7 2.25 -29.45 Q2.1 -29.2 2.1 -28.8 L2.05 -28.35 2.05 -28.2 1.95 -27.6 1.65 -26.25 1.6 -26.1 1.55 -25.2 1.5 -24.6 1.5 -24.55 1.45 -24.3 1.35 -23.55 1.3 -23.25 Q1.1 -22.45 0.3 -22.55 L0.15 -22.6 Q-0.65 -22.6 -0.6 -23.4 L-0.55 -23.65 -0.5 -23.7 Q-0.4 -23.95 -0.45 -24.3 L-0.75 -25.75 -0.75 -25.8 -0.9 -26.4 -0.95 -26.65 -1.15 -27.15 -1.25 -27.6 -1.3 -27.75 -1.35 -29.15 -1.35 -29.25 -1.35 -30.45 -1.65 -33.2 -1.55 -33.3 0.25 -53.25 2.45 -35.0 2.75 -32.7 2.7 -32.45 2.7 -32.4 M2.55 -32.45 L-0.45 -30.65 0.15 -30.55 0.65 -30.6 0.95 -30.65 1.75 -30.75 2.0 -30.85 2.15 -30.9 2.45 -31.0 2.6 -31.1 M2.55 -32.45 L2.75 -32.7 M2.45 -35.0 L0.65 -33.7 -1.6 -33.15 -1.55 -33.3 M1.9 -28.2 L1.8 -28.1 1.55 -27.95 0.6 -27.55 0.45 -27.5 -1.15 -27.15 M1.7 -28.25 L0.45 -28.5 -1.35 -29.15 M1.9 -28.2 L2.05 -28.2 M1.7 -28.25 L1.9 -28.2 M1.55 -25.2 L1.1 -25.25 0.95 -25.3 -0.75 -25.75 M1.5 -24.55 L0.45 -23.85 -0.5 -23.7 M-0.45 -30.65 L-0.8 -30.45 -1.35 -30.45" fill="none" stroke="#000000" stroke-linecap="round" stroke-linejoin="round" stroke-width="0.05"/>
  </g>
  <defs>
    <linearGradient gradientTransform="matrix(1.0E-4, 0.0119, -0.0123, 1.0E-4, 0.5, -43.2)" gradientUnits="userSpaceOnUse" id="gradient0" spreadMethod="pad" x1="-819.2" x2="819.2">
      <stop offset="0.0" stop-color="#00ff00"/>
      <stop offset="1.0" stop-color="#000000"/>
    </linearGradient>
  </defs>
</svg>
