<?xml version="1.0" encoding="UTF-8" standalone="no"?>
<svg xmlns:xlink="http://www.w3.org/1999/xlink" height="99.35px" width="11.05px" xmlns="http://www.w3.org/2000/svg">
  <g transform="matrix(1.0, 0.0, 0.0, 1.0, 0.0, 0.0)">
    <path d="M0.4 -25.85 L0.05 -26.55 0.45 -26.95 0.5 -28.1 0.15 -28.65 0.5 -28.1 0.45 -26.95 0.05 -26.55 0.4 -25.85 M1.25 -29.9 L1.25 -24.95 1.25 -23.7 0.95 -23.15 -0.3 -23.15 -0.6 -23.7 -0.6 -29.9 1.25 -29.9 M0.95 -7.9 L1.25 -7.35 1.25 13.55 1.25 19.5 1.25 21.45 0.95 22.35 -0.3 22.35 -0.6 21.45 -0.6 -7.35 -0.3 -7.9 0.95 -7.9 M0.95 36.45 L1.25 37.25 1.25 44.9 1.25 46.4 -0.6 46.4 -0.6 37.25 -0.3 36.45 0.95 36.45 M-0.15 43.8 L0.35 44.15 0.0 44.55 -0.25 44.2 0.0 44.55 0.35 44.15 -0.15 43.8 M0.15 45.25 L0.0 44.95 -0.1 44.85 -0.1 44.6 0.0 44.55 0.9 45.4 0.0 44.55 -0.1 44.6 -0.1 44.85 0.0 44.95 0.15 45.25 M1.25 44.9 L0.35 44.15 0.4 44.05 0.55 43.8 Q0.8 43.5 0.55 43.25 0.3 42.95 0.4 42.85 0.3 42.95 0.55 43.25 0.8 43.5 0.55 43.8 L0.4 44.05 0.35 44.15 1.25 44.9 M0.65 42.2 L0.9 42.05 0.85 41.65 0.75 41.25 0.65 41.1 Q-0.25 40.95 0.0 41.9 -0.25 40.95 0.65 41.1 L0.75 41.25 0.85 41.65 0.9 42.05 0.65 42.2 M0.1 39.75 Q-0.2 38.75 0.65 38.85 L0.65 39.55 0.65 38.85 Q-0.2 38.75 0.1 39.75 M-0.15 19.25 L0.55 19.45 0.55 17.5 0.25 17.8 0.1 15.95 0.05 15.15 0.1 14.85 0.2 14.65 Q0.4 14.2 0.8 14.45 0.4 14.2 0.2 14.65 L0.1 14.85 0.05 15.15 0.1 15.95 0.25 17.8 0.55 17.5 0.55 16.2 0.55 17.5 0.8 17.1 0.55 17.5 0.55 19.45 -0.15 19.25 M0.55 20.05 L0.55 19.45 0.95 19.45 1.25 19.5 0.95 19.45 0.55 19.45 0.55 20.05 M1.25 13.55 L0.95 12.85 0.9 12.7 0.0 12.75 Q0.1 11.7 -0.15 11.0 L0.25 10.95 0.65 11.0 0.25 10.95 -0.15 11.0 Q0.1 11.7 0.0 12.75 L0.9 12.7 0.95 12.85 1.25 13.55 M0.95 9.85 L0.0 9.8 0.95 9.85 M0.35 -25.25 L0.35 -24.3 1.0 -24.5 1.25 -24.95 1.0 -24.5 0.35 -24.3 -0.15 -24.45 -0.35 -24.85 -0.15 -24.45 0.35 -24.3 0.35 -25.25 M0.55 -3.45 Q0.05 -3.55 0.15 -4.0 L0.2 -4.15 Q0.6 -4.4 0.6 -5.15 L0.5 -5.4 0.1 -5.9 Q-0.1 -6.2 0.15 -6.25 -0.1 -6.2 0.1 -5.9 L0.5 -5.4 0.6 -5.15 Q0.6 -4.4 0.2 -4.15 L0.15 -4.0 Q0.05 -3.55 0.55 -3.45 M0.65 -1.3 L0.25 -1.75 0.05 -1.65 0.15 -1.05 0.55 0.25 0.5 0.9 0.15 1.25 0.0 1.2 0.5 2.6 0.95 2.95 0.65 4.0 -0.1 4.4 -0.1 5.15 0.4 5.55 0.75 6.05 0.65 6.25 Q0.1 6.45 0.35 7.05 L0.7 7.9 0.1 8.65 0.7 7.9 0.35 7.05 Q0.1 6.45 0.65 6.25 L0.75 6.05 0.4 5.55 -0.1 5.15 -0.1 4.4 0.65 4.0 0.95 2.95 0.5 2.6 0.0 1.2 0.15 1.25 0.5 0.9 0.55 0.25 0.15 -1.05 0.05 -1.65 0.25 -1.75 0.65 -1.3 M1.25 37.25 L-0.6 37.25 1.25 37.25 M-0.6 21.45 L1.25 21.45 -0.6 21.45 M1.25 -23.7 L-0.6 -23.7 1.25 -23.7 M-0.6 -7.35 L1.25 -7.35 -0.6 -7.35" fill="#845125" fill-rule="evenodd" stroke="none"/>
    <path d="M0.95 -23.15 L0.95 -7.9 -0.3 -7.9 -0.3 -23.15 0.95 -23.15 M0.95 22.35 L0.95 36.45 -0.3 36.45 -0.3 22.35 0.95 22.35" fill="url(#gradient0)" fill-rule="evenodd" stroke="none"/>
    <path d="M1.25 -29.9 L1.25 -24.95 1.25 -23.7 0.95 -23.15 0.95 -7.9 1.25 -7.35 1.25 13.55 1.25 19.5 1.25 21.45 0.95 22.35 0.95 36.45 1.25 37.25 1.25 44.9 1.25 46.4 -0.6 46.4 -0.6 37.25 -0.3 36.45 -0.3 22.35 -0.6 21.45 -0.6 -7.35 -0.3 -7.9 -0.3 -23.15 -0.6 -23.7 -0.6 -29.9" fill="none" stroke="#000000" stroke-linecap="round" stroke-linejoin="round" stroke-width="0.05"/>
    <path d="M0.95 36.45 L-0.3 36.45 M-0.6 37.25 L1.25 37.25 M0.95 22.35 L-0.3 22.35 M1.25 21.45 L-0.6 21.45 M-0.3 -7.9 L0.95 -7.9 M1.25 -7.35 L-0.6 -7.35 M-0.6 -23.7 L1.25 -23.7 M0.95 -23.15 L-0.3 -23.15" fill="none" stroke="#ffcc00" stroke-linecap="round" stroke-linejoin="round" stroke-width="0.05"/>
    <path d="M0.15 -28.65 L0.5 -28.1 0.45 -26.95 0.05 -26.55 0.4 -25.85 M1.25 -24.95 L1.0 -24.5 0.35 -24.3 -0.15 -24.45 -0.35 -24.85 M0.1 8.65 L0.7 7.9 0.35 7.05 Q0.1 6.45 0.65 6.25 L0.75 6.05 0.4 5.55 -0.1 5.15 -0.1 4.4 0.65 4.0 0.95 2.95 0.5 2.6 0.0 1.2 0.15 1.25 0.5 0.9 0.55 0.25 0.15 -1.05 0.05 -1.65 0.25 -1.75 0.65 -1.3 M0.15 -6.25 Q-0.1 -6.2 0.1 -5.9 L0.5 -5.4 0.6 -5.15 Q0.6 -4.4 0.2 -4.15 L0.15 -4.0 Q0.05 -3.55 0.55 -3.45 M0.35 -24.3 L0.35 -25.25 M0.0 9.8 L0.95 9.85 M0.65 11.0 L0.25 10.95 -0.15 11.0 Q0.1 11.7 0.0 12.75 L0.9 12.7 0.95 12.85 1.25 13.55 M0.8 14.45 Q0.4 14.2 0.2 14.65 L0.1 14.85 0.05 15.15 0.1 15.95 0.25 17.8 0.55 17.5 0.55 16.2 M0.55 17.5 L0.8 17.1 M1.25 19.5 L0.95 19.45 0.55 19.45 0.55 20.05 M0.55 17.5 L0.55 19.45 -0.15 19.25 M0.65 39.55 L0.65 38.85 Q-0.2 38.75 0.1 39.75 M0.0 41.9 Q-0.25 40.95 0.65 41.1 L0.75 41.25 0.85 41.65 0.9 42.05 0.65 42.2 M0.4 42.85 Q0.3 42.95 0.55 43.25 0.8 43.5 0.55 43.8 L0.4 44.05 0.35 44.15 1.25 44.9 M0.9 45.4 L0.0 44.55 -0.1 44.6 -0.1 44.85 0.0 44.95 0.15 45.25 M-0.25 44.2 L0.0 44.55 0.35 44.15 -0.15 43.8" fill="none" stroke="#ff9900" stroke-linecap="round" stroke-linejoin="round" stroke-width="0.05"/>
    <path d="M3.45 -39.1 Q2.25 -40.7 0.5 -40.7 -1.25 -40.7 -2.5 -39.1 -3.7 -37.55 -3.7 -35.35 -3.7 -33.1 -2.5 -31.55 -1.25 -30.0 0.5 -30.0 2.25 -30.0 3.45 -31.55 4.65 -33.1 4.65 -35.35 4.65 -37.55 3.45 -39.1 M3.85 -31.25 Q2.45 -29.5 0.45 -29.5 -1.55 -29.5 -3.0 -31.25 -4.35 -33.0 -4.35 -35.45 -4.35 -37.9 -3.0 -39.65 -1.55 -41.4 0.45 -41.4 2.45 -41.4 3.85 -39.65 5.25 -37.9 5.25 -35.45 5.25 -33.0 3.85 -31.25" fill="url(#gradient1)" fill-rule="evenodd" stroke="none"/>
    <path d="M3.45 -39.1 Q4.65 -37.55 4.65 -35.35 4.65 -33.1 3.45 -31.55 2.25 -30.0 0.5 -30.0 -1.25 -30.0 -2.5 -31.55 -3.7 -33.1 -3.7 -35.35 -3.7 -37.55 -2.5 -39.1 -1.25 -40.7 0.5 -40.7 2.25 -40.7 3.45 -39.1 M3.85 -31.25 Q2.45 -29.5 0.45 -29.5 -1.55 -29.5 -3.0 -31.25 -4.35 -33.0 -4.35 -35.45 -4.35 -37.9 -3.0 -39.65 -1.55 -41.4 0.45 -41.4 2.45 -41.4 3.85 -39.65 5.25 -37.9 5.25 -35.45 5.25 -33.0 3.85 -31.25 Z" fill="none" stroke="#ffcc00" stroke-linecap="round" stroke-linejoin="round" stroke-width="0.05"/>
    <path d="M-0.2 -18.4 L-0.3 -18.4 Q-2.15 -18.85 -3.5 -21.25 -5.1 -24.15 -5.1 -28.25 -5.1 -32.35 -3.5 -35.25 -1.85 -38.15 0.45 -38.15 2.75 -38.15 4.35 -35.25 5.95 -32.35 5.95 -28.25 5.95 -24.15 4.35 -21.25 3.0 -18.8 1.15 -18.4 L0.95 -18.4 0.95 -19.15 1.15 -19.2 Q2.75 -19.6 3.9 -21.75 5.3 -24.35 5.3 -28.05 5.3 -31.75 3.9 -34.35 2.5 -36.95 0.5 -36.95 -1.5 -36.95 -2.95 -34.35 -4.3 -31.75 -4.3 -28.05 -4.3 -24.35 -2.95 -21.75 -1.8 -19.7 -0.3 -19.25 L-0.2 -19.2 -0.2 -18.4" fill="url(#gradient2)" fill-rule="evenodd" stroke="none"/>
    <path d="M0.95 -18.4 L1.15 -18.4 Q3.0 -18.8 4.35 -21.25 5.95 -24.15 5.95 -28.25 5.95 -32.35 4.35 -35.25 2.75 -38.15 0.45 -38.15 -1.85 -38.15 -3.5 -35.25 -5.1 -32.35 -5.1 -28.25 -5.1 -24.15 -3.5 -21.25 -2.15 -18.85 -0.3 -18.4 L-0.2 -18.4 M-0.2 -19.2 L-0.3 -19.25 Q-1.8 -19.7 -2.95 -21.75 -4.3 -24.35 -4.3 -28.05 -4.3 -31.75 -2.95 -34.35 -1.5 -36.95 0.5 -36.95 2.5 -36.95 3.9 -34.35 5.3 -31.75 5.3 -28.05 5.3 -24.35 3.9 -21.75 2.75 -19.6 1.15 -19.2 L0.95 -19.15" fill="none" stroke="#ffcc00" stroke-linecap="round" stroke-linejoin="round" stroke-width="0.05"/>
    <path d="M2.85 -31.0 Q1.85 -29.95 0.45 -29.95 -0.95 -29.95 -1.95 -31.0 -3.0 -31.95 -3.0 -33.3 -3.0 -34.7 -1.95 -35.7 -0.95 -36.75 0.45 -36.75 1.85 -36.75 2.85 -35.7 3.9 -34.7 3.9 -33.3 3.9 -31.95 2.85 -31.0" fill="url(#gradient3)" fill-rule="evenodd" stroke="none"/>
    <path d="M2.85 -31.0 Q1.85 -29.95 0.45 -29.95 -0.95 -29.95 -1.95 -31.0 -3.0 -31.95 -3.0 -33.3 -3.0 -34.7 -1.95 -35.7 -0.95 -36.75 0.45 -36.75 1.85 -36.75 2.85 -35.7 3.9 -34.7 3.9 -33.3 3.9 -31.95 2.85 -31.0 Z" fill="none" stroke="#ff6600" stroke-linecap="round" stroke-linejoin="round" stroke-width="0.7000000000000001"/>
    <path d="M0.45 -31.15 Q0.0 -32.0 0.15 -32.5 L0.5 -33.35 0.8 -34.15 Q0.95 -34.75 0.45 -35.7 M1.8 -31.9 Q1.55 -32.4 1.65 -32.85 L1.8 -33.35 2.1 -33.85 Q2.2 -34.45 1.8 -35.0 M2.6 -31.2 Q1.7 -30.35 0.45 -30.35 -0.75 -30.35 -1.65 -31.2 -2.55 -32.1 -2.55 -33.35 -2.55 -34.55 -1.65 -35.45 -0.75 -36.35 0.45 -36.35 1.7 -36.35 2.6 -35.45 3.45 -34.55 3.45 -33.35 3.45 -32.1 2.6 -31.2 M-0.9 -31.9 Q-1.15 -32.4 -1.05 -32.85 L-0.9 -33.35 -0.6 -33.85 Q-0.5 -34.45 -0.9 -35.0" fill="none" stroke="#ffcc00" stroke-linecap="round" stroke-linejoin="round" stroke-width="0.05"/>
    <path d="M-1.9 -36.65 Q-1.65 -37.3 -1.75 -38.1 L-1.8 -38.25 Q-1.95 -39.05 -1.75 -39.7 L-1.7 -40.1 -1.6 -42.85 -1.5 -44.05 -1.15 -47.0 -0.55 -49.5 -0.05 -50.7 Q0.65 -52.15 1.9 -52.95 1.25 -52.0 1.25 -50.45 L1.25 -50.3 1.15 -49.1 1.15 -48.45 1.0 -48.1 0.95 -47.9 1.0 -43.4 1.05 -43.25 1.15 -42.6 Q1.15 -42.2 1.3 -42.0 L1.35 -41.8 1.5 -41.3 1.9 -40.2 2.95 -38.1 3.25 -37.15 3.25 -36.3 3.15 -36.1 2.95 -35.45 2.75 -35.1 2.7 -34.9 Q2.15 -34.95 1.9 -35.3 1.7 -35.65 1.3 -35.8 L0.95 -35.8 0.85 -35.7 Q0.6 -35.15 -0.25 -35.3 L-0.6 -35.5 -0.8 -35.55 -1.45 -35.65 -2.1 -35.65 -2.4 -35.65 -2.0 -36.4 -1.8 -36.55 -1.9 -36.65 M0.1 -38.3 Q-0.25 -37.8 0.15 -37.45 L-0.8 -37.3 -1.0 -37.25 -1.8 -36.55 -1.0 -37.25 -0.8 -37.3 0.15 -37.45 Q-0.25 -37.8 0.1 -38.3 M-1.2 -40.7 L-1.25 -39.75 -0.9 -39.3 Q-0.3 -38.75 -0.95 -38.35 -0.3 -38.75 -0.9 -39.3 L-1.25 -39.75 -1.2 -40.7 M-0.05 -47.6 L0.0 -47.1 Q-0.1 -46.1 -0.55 -45.2 L0.2 -43.75 Q0.8 -42.95 0.4 -42.0 -0.1 -40.85 0.25 -39.55 1.6 -38.7 1.65 -37.45 L1.35 -37.05 0.85 -36.7 0.7 -36.9 Q0.25 -37.55 0.8 -37.9 0.25 -37.55 0.7 -36.9 L0.85 -36.7 1.35 -37.05 1.65 -37.45 Q1.6 -38.7 0.25 -39.55 L-0.4 -40.6 -0.55 -41.0 -0.1 -41.9 -0.25 -42.6 -0.4 -43.0 -0.25 -42.6 -0.1 -41.9 -0.55 -41.0 -0.4 -40.6 0.25 -39.55 Q-0.1 -40.85 0.4 -42.0 0.8 -42.95 0.2 -43.75 L-0.55 -45.2 Q-0.1 -46.1 0.0 -47.1 L-0.05 -47.6 M1.05 -40.25 Q1.75 -40.0 1.5 -39.15 1.75 -40.0 1.05 -40.25" fill="url(#gradient4)" fill-rule="evenodd" stroke="none"/>
    <path d="M-1.9 -36.65 Q-1.65 -37.3 -1.75 -38.1 L-1.8 -38.25 Q-1.95 -39.05 -1.75 -39.7 L-1.7 -40.1 -1.6 -42.85 -1.5 -44.05 -1.15 -47.0 -0.55 -49.5 -0.05 -50.7 Q0.65 -52.15 1.9 -52.95 1.25 -52.0 1.25 -50.45 L1.25 -50.3 1.15 -49.1 1.15 -48.45 1.0 -48.1 0.95 -47.9 1.0 -43.4 1.05 -43.25 1.15 -42.6 Q1.15 -42.2 1.3 -42.0 L1.35 -41.8 1.5 -41.3 1.9 -40.2 2.95 -38.1 3.25 -37.15 3.25 -36.3 3.15 -36.1 2.95 -35.45 2.75 -35.1 2.7 -34.9 Q2.15 -34.95 1.9 -35.3 1.7 -35.65 1.3 -35.8 L0.95 -35.8 0.85 -35.7 Q0.6 -35.15 -0.25 -35.3 L-0.6 -35.5 -0.8 -35.55 -1.45 -35.65 -2.1 -35.65 -2.4 -35.65 -2.0 -36.4 -1.9 -36.65 M-1.8 -36.55 L-1.0 -37.25 -0.8 -37.3 0.15 -37.45 Q-0.25 -37.8 0.1 -38.3 M-2.0 -36.4 L-1.8 -36.55" fill="none" stroke="#000000" stroke-linecap="round" stroke-linejoin="round" stroke-width="0.05"/>
    <path d="M0.8 -37.9 Q0.25 -37.55 0.7 -36.9 L0.85 -36.7 1.35 -37.05 1.65 -37.45 Q1.6 -38.7 0.25 -39.55 L-0.4 -40.6 -0.55 -41.0 -0.1 -41.9 -0.25 -42.6 -0.4 -43.0 M1.5 -39.15 Q1.75 -40.0 1.05 -40.25 M0.25 -39.55 Q-0.1 -40.85 0.4 -42.0 0.8 -42.95 0.2 -43.75 L-0.55 -45.2 Q-0.1 -46.1 0.0 -47.1 L-0.05 -47.6 M-0.95 -38.35 Q-0.3 -38.75 -0.9 -39.3 L-1.25 -39.75 -1.2 -40.7" fill="none" stroke="#ffcc00" stroke-linecap="round" stroke-linejoin="round" stroke-width="0.05"/>
  </g>
  <defs>
    <linearGradient gradientTransform="matrix(8.0E-4, 0.0, 0.0, 0.0093, 0.3, -15.55)" gradientUnits="userSpaceOnUse" id="gradient0" spreadMethod="pad" x1="-819.2" x2="819.2">
      <stop offset="0.0" stop-color="#d8b42c"/>
      <stop offset="0.5450980392156862" stop-color="#e8e786"/>
      <stop offset="1.0" stop-color="#d7b433"/>
    </linearGradient>
    <linearGradient gradientTransform="matrix(0.0043, 0.004, -0.0049, 0.0053, 0.4, -35.45)" gradientUnits="userSpaceOnUse" id="gradient1" spreadMethod="pad" x1="-819.2" x2="819.2">
      <stop offset="0.0" stop-color="#d8b42c"/>
      <stop offset="0.5450980392156862" stop-color="#ffffff"/>
      <stop offset="1.0" stop-color="#d7b433"/>
    </linearGradient>
    <linearGradient gradientTransform="matrix(0.0049, 0.0046, -0.0083, 0.0088, 0.4, -28.3)" gradientUnits="userSpaceOnUse" id="gradient2" spreadMethod="pad" x1="-819.2" x2="819.2">
      <stop offset="0.0" stop-color="#d8b42c"/>
      <stop offset="0.5450980392156862" stop-color="#ffffff"/>
      <stop offset="1.0" stop-color="#d7b433"/>
    </linearGradient>
    <radialGradient cx="0" cy="0" gradientTransform="matrix(0.0054, 0.0, 0.0, 0.0054, -0.55, -34.55)" gradientUnits="userSpaceOnUse" id="gradient3" r="819.2" spreadMethod="pad">
      <stop offset="0.0" stop-color="#ffbf5b"/>
      <stop offset="0.5058823529411764" stop-color="#f05e00" stop-opacity="0.4"/>
      <stop offset="1.0" stop-color="#912300" stop-opacity="0.78039217"/>
    </radialGradient>
    <linearGradient gradientTransform="matrix(0.0, 0.0107, -0.011, 0.0, 0.45, -43.95)" gradientUnits="userSpaceOnUse" id="gradient4" spreadMethod="pad" x1="-819.2" x2="819.2">
      <stop offset="0.0" stop-color="#ffbf5b"/>
      <stop offset="0.5058823529411764" stop-color="#d0c18e"/>
      <stop offset="1.0" stop-color="#65532c"/>
    </linearGradient>
  </defs>
</svg>
