<?xml version="1.0" encoding="UTF-8" standalone="no"?>
<svg xmlns:xlink="http://www.w3.org/1999/xlink" height="89.75px" width="7.65px" xmlns="http://www.w3.org/2000/svg">
  <g transform="matrix(1.0, 0.0, 0.0, 1.0, 0.0, 0.0)">
    <path d="M-0.5 25.6 L-0.5 -5.8 1.1 -5.8 1.1 25.6 -0.5 25.6 M1.1 30.9 L1.1 39.85 -0.5 39.85 -0.5 30.9 1.1 30.9 M1.1 42.2 L1.1 46.25 -0.5 46.25 -0.5 42.2 1.1 42.2" fill="#5b4735" fill-rule="evenodd" stroke="none"/>
    <path d="M1.1 25.6 L1.1 30.9 -0.5 30.9 -0.5 25.6 1.1 25.6 M1.1 39.85 L1.1 42.2 -0.5 42.2 -0.5 39.85 1.1 39.85" fill="#ffcc00" fill-rule="evenodd" stroke="none"/>
    <path d="M-0.5 25.6 L-0.5 -5.8 1.1 -5.8 1.1 25.6 1.1 30.9 1.1 39.85 1.1 42.2 1.1 46.25 -0.5 46.25 -0.5 42.2 -0.5 39.85 -0.5 30.9 -0.5 25.6 Z" fill="none" stroke="#000000" stroke-linecap="round" stroke-linejoin="round" stroke-width="0.05"/>
    <path d="M-1.7 -40.05 L0.25 -43.5 2.25 -40.05 0.25 -37.8 -1.7 -40.05" fill="#bdaa8e" fill-rule="evenodd" stroke="none"/>
    <path d="M2.25 -40.05 L3.55 -2.5 0.25 -2.5 0.25 -37.8 2.25 -40.05 M0.9 -24.85 L1.45 -24.6 1.85 -24.85 1.45 -24.6 0.9 -24.85 M1.85 -6.2 L1.45 -5.1 1.25 -5.0 Q1.55 -4.15 2.55 -4.05 1.55 -4.15 1.25 -5.0 L1.45 -5.1 1.85 -6.2 M1.65 -11.5 L0.9 -11.5 1.15 -10.4 1.05 -10.25 1.05 -9.7 Q1.05 -9.45 1.2 -9.15 L2.0 -8.95 1.35 -8.5 0.75 -8.05 1.35 -8.5 2.0 -8.95 1.2 -9.15 Q1.05 -9.45 1.05 -9.7 L1.05 -10.25 1.15 -10.4 0.9 -11.5 1.65 -11.5 M0.55 -15.7 L2.0 -15.7 2.25 -14.8 0.75 -14.45 1.15 -14.1 Q2.4 -14.3 2.0 -13.3 L0.9 -12.6 2.0 -13.3 Q2.4 -14.3 1.15 -14.1 L0.75 -14.45 2.25 -14.8 2.0 -15.7 0.55 -15.7 M2.35 -23.95 L2.2 -22.65 1.3 -23.2 2.2 -22.65 2.35 -23.95 M1.85 -21.2 L0.55 -21.35 0.8 -20.65 0.55 -19.35 1.05 -19.55 2.35 -19.2 1.85 -17.9 0.55 -18.25 0.75 -17.35 0.55 -18.25 1.85 -17.9 2.35 -19.2 1.05 -19.55 0.55 -19.35 0.8 -20.65 0.55 -21.35 1.85 -21.2 M0.55 -36.55 L1.65 -36.9 1.5 -35.85 0.9 -35.6 1.1 -34.7 2.0 -34.5 1.45 -33.45 0.5 -33.1 2.05 -31.7 1.6 -30.9 1.1 -30.75 0.95 -30.8 0.85 -30.85 0.75 -30.7 1.9 -30.0 1.5 -29.05 0.55 -28.7 1.35 -28.35 1.65 -27.75 1.1 -27.6 1.45 -27.2 Q1.75 -26.8 1.3 -26.5 1.75 -26.8 1.45 -27.2 L1.1 -27.6 1.65 -27.75 1.35 -28.35 0.55 -28.7 1.5 -29.05 1.9 -30.0 0.75 -30.7 0.85 -30.85 0.95 -30.8 1.1 -30.75 1.6 -30.9 2.05 -31.7 0.5 -33.1 1.45 -33.45 2.0 -34.5 1.1 -34.7 0.9 -35.6 1.5 -35.85 1.65 -36.9 0.55 -36.55 M0.25 3.7 L3.75 3.7 4.1 14.25 0.25 14.25 0.25 3.7 M1.85 9.1 L0.65 9.3 1.85 9.1 M1.85 6.95 L2.45 9.5 Q2.75 10.4 1.95 10.15 L1.3 11.2 2.4 11.9 3.1 11.7 3.2 11.85 Q3.4 12.5 2.9 12.8 3.4 12.5 3.2 11.85 L3.1 11.7 2.4 11.9 1.3 11.2 1.95 10.15 Q2.75 10.4 2.45 9.5 L1.85 6.95 M1.65 7.65 L1.4 7.5 Q0.8 6.7 1.3 6.2 2.15 5.45 2.85 6.0 L2.75 7.1 2.85 6.0 Q2.15 5.45 1.3 6.2 0.8 6.7 1.4 7.5 L1.65 7.65" fill="#977c57" fill-rule="evenodd" stroke="none"/>
    <path d="M0.25 -2.5 L-2.95 -2.5 -2.85 -5.65 -2.1 -27.4 -1.7 -40.05 0.25 -37.8 0.25 -2.5 M0.25 14.25 L-3.55 14.25 -3.2 3.7 0.25 3.7 0.25 14.25 M-2.4 12.25 L-1.3 12.05 -1.45 11.45 -1.6 10.95 -2.45 10.75 -2.4 9.5 -1.85 9.65 -1.35 9.05 -1.25 8.9 -2.05 8.15 Q-2.35 7.85 -1.85 7.5 -2.35 7.85 -2.05 8.15 L-1.25 8.9 -1.35 9.05 -1.85 9.65 -2.4 9.5 -2.45 10.75 -1.6 10.95 -1.45 11.45 -1.3 12.05 -2.4 12.25 M-0.9 -16.65 L-1.0 -19.65 -1.3 -19.7 Q-1.8 -19.95 -1.3 -20.45 -1.8 -19.95 -1.3 -19.7 L-1.0 -19.65 -0.9 -16.65 M-2.55 -4.05 L-1.1 -4.2 -2.55 -4.05 M-1.9 -5.75 L-2.85 -5.65 -1.9 -5.75 M-2.1 -27.4 L-1.25 -28.25 -2.1 -27.4" fill="#af9874" fill-rule="evenodd" stroke="none"/>
    <path d="M-1.7 -40.05 L0.25 -43.5 2.25 -40.05 3.55 -2.5 0.25 -2.5 -2.95 -2.5 -2.85 -5.65 -2.1 -27.4 -1.7 -40.05 0.25 -37.8 2.25 -40.05 M0.25 -37.8 L0.25 -2.5 M0.25 3.7 L3.75 3.7 4.1 14.25 0.25 14.25 -3.55 14.25 -3.2 3.7 0.25 3.7 0.25 14.25" fill="none" stroke="#000000" stroke-linecap="round" stroke-linejoin="round" stroke-width="0.05"/>
    <path d="M1.3 -26.5 Q1.75 -26.8 1.45 -27.2 L1.1 -27.6 1.65 -27.75 1.35 -28.35 0.55 -28.7 1.5 -29.05 1.9 -30.0 0.75 -30.7 0.85 -30.85 0.95 -30.8 1.1 -30.75 1.6 -30.9 2.05 -31.7 0.5 -33.1 1.45 -33.45 2.0 -34.5 1.1 -34.7 0.9 -35.6 1.5 -35.85 1.65 -36.9 0.55 -36.55 M0.75 -17.35 L0.55 -18.25 1.85 -17.9 2.35 -19.2 1.05 -19.55 0.55 -19.35 0.8 -20.65 0.55 -21.35 1.85 -21.2 M1.3 -23.2 L2.2 -22.65 2.35 -23.95 M0.9 -12.6 L2.0 -13.3 Q2.4 -14.3 1.15 -14.1 L0.75 -14.45 2.25 -14.8 2.0 -15.7 0.55 -15.7 M0.75 -8.05 L1.35 -8.5 2.0 -8.95 1.2 -9.15 Q1.05 -9.45 1.05 -9.7 L1.05 -10.25 1.15 -10.4 0.9 -11.5 1.65 -11.5 M2.55 -4.05 Q1.55 -4.15 1.25 -5.0 L1.45 -5.1 1.85 -6.2 M1.85 -24.85 L1.45 -24.6 0.9 -24.85 M2.75 7.1 L2.85 6.0 Q2.15 5.45 1.3 6.2 0.8 6.7 1.4 7.5 L1.65 7.65 M2.9 12.8 Q3.4 12.5 3.2 11.85 L3.1 11.7 2.4 11.9 1.3 11.2 1.95 10.15 Q2.75 10.4 2.45 9.5 L1.85 6.95 M0.65 9.3 L1.85 9.1 M-1.25 -28.25 L-2.1 -27.4 M-2.85 -5.65 L-1.9 -5.75 M-1.1 -4.2 L-2.55 -4.05 M-1.3 -20.45 Q-1.8 -19.95 -1.3 -19.7 L-1.0 -19.65 -0.9 -16.65 M-1.85 7.5 Q-2.35 7.85 -2.05 8.15 L-1.25 8.9 -1.35 9.05 -1.85 9.65 -2.4 9.5 -2.45 10.75 -1.6 10.95 -1.45 11.45 -1.3 12.05 -2.4 12.25" fill="none" stroke="#ffff66" stroke-linecap="round" stroke-linejoin="round" stroke-width="0.05"/>
  </g>
</svg>
