<?xml version="1.0" encoding="UTF-8" standalone="no"?>
<svg xmlns:xlink="http://www.w3.org/1999/xlink" height="7.25px" width="14.55px" xmlns="http://www.w3.org/2000/svg">
  <g transform="matrix(1.0, 0.0, 0.0, 1.0, 0.0, 0.0)">
    <path d="M11.25 0.5 Q12.8 -0.35 14.65 0.5 L15.1 1.8 Q15.3 2.7 14.85 3.4 L11.4 3.4 11.25 0.5" fill="#ffcc99" fill-rule="evenodd" stroke="none"/>
    <path d="M9.7 6.95 L8.4 6.25 6.8 5.7 5.25 5.25 1.9 4.45 0.6 4.35 0.6 0.8 3.8 0.65 10.35 0.35 10.4 0.9 10.45 0.95 10.45 1.25 10.5 1.3 10.5 1.35 10.5 2.25 10.5 2.7 10.45 3.15 10.35 3.75 10.3 4.05 9.7 6.95 M3.6 2.0 Q4.05 1.5 3.8 0.65 4.05 1.5 3.6 2.0 M2.75 1.0 L2.85 2.0 2.8 2.15 2.4 2.85 2.8 2.15 2.85 2.0 2.75 1.0 M6.95 3.05 Q6.65 3.55 6.95 4.0 L7.0 4.1 6.8 5.7 7.0 4.1 6.95 4.0 Q6.65 3.55 6.95 3.05 M5.35 3.65 L5.25 5.25 5.35 3.65 M8.95 1.6 L8.7 2.1 8.55 2.4 Q8.45 3.0 8.8 3.45 L8.85 3.65 8.9 4.0 Q9.0 4.75 8.4 6.25 9.0 4.75 8.9 4.0 L8.85 3.65 8.8 3.45 Q8.45 3.0 8.55 2.4 L8.7 2.1 8.95 1.6" fill="#e78d1e" fill-rule="evenodd" stroke="none"/>
    <path d="M11.25 0.5 L11.4 3.4 11.3 3.95 11.25 4.25 11.15 4.5 10.65 7.3 9.7 6.95 10.3 4.05 10.35 3.75 10.45 3.15 10.5 2.7 10.5 2.25 10.5 1.35 10.5 1.3 10.45 1.25 10.45 0.95 10.4 0.9 10.35 0.35 11.15 0.3 11.2 0.5 11.25 0.5" fill="url(#gradient0)" fill-rule="evenodd" stroke="none"/>
    <path d="M11.4 3.4 L14.85 3.4 Q15.3 2.7 15.1 1.8 L14.65 0.5 Q12.8 -0.35 11.25 0.5 L11.4 3.4 11.3 3.95 11.25 4.25 11.15 4.5 10.65 7.3 9.7 6.95 8.4 6.25 6.8 5.7 5.25 5.25 1.9 4.45 0.6 4.35 M0.6 0.8 L3.8 0.65 10.35 0.35 11.15 0.3 11.25 0.5 11.2 0.5 M10.35 0.35 L10.4 0.9 10.45 0.95 10.45 1.25 10.5 1.3 10.5 1.35 10.5 2.25 10.5 2.7 10.45 3.15 10.35 3.75 10.3 4.05 9.7 6.95" fill="none" stroke="#000000" stroke-linecap="round" stroke-linejoin="round" stroke-width="0.05"/>
    <path d="M8.4 6.25 Q9.0 4.75 8.9 4.0 L8.85 3.65 8.8 3.45 Q8.45 3.0 8.55 2.4 L8.7 2.1 8.95 1.6 M5.25 5.25 L5.35 3.65 M6.8 5.7 L7.0 4.1 6.95 4.0 Q6.65 3.55 6.95 3.05 M2.4 2.85 L2.8 2.15 2.85 2.0 2.75 1.0 M3.8 0.65 Q4.05 1.5 3.6 2.0" fill="none" stroke="#fff18a" stroke-linecap="round" stroke-linejoin="round" stroke-width="0.05"/>
  </g>
  <defs>
    <linearGradient gradientTransform="matrix(-2.0E-4, -0.0039, 0.0043, -2.0E-4, 10.55, 3.8)" gradientUnits="userSpaceOnUse" id="gradient0" spreadMethod="pad" x1="-819.2" x2="819.2">
      <stop offset="0.0" stop-color="#c6a226"/>
      <stop offset="0.5450980392156862" stop-color="#ffed97"/>
      <stop offset="1.0" stop-color="#c6a226"/>
    </linearGradient>
  </defs>
</svg>
