<?xml version="1.0" encoding="UTF-8" standalone="no"?>
<svg xmlns:xlink="http://www.w3.org/1999/xlink" height="16.7px" width="7.1px" xmlns="http://www.w3.org/2000/svg">
  <g transform="matrix(1.0, 0.0, 0.0, 1.0, 0.0, 0.0)">
    <path d="M0.05 5.15 L0.55 5.25 3.45 5.35 5.35 4.95 5.4 5.75 5.45 6.6 5.35 8.6 4.9 11.1 4.8 11.45 4.05 13.65 3.4 14.6 2.35 15.3 1.35 15.25 Q0.75 14.95 0.7 14.5 L0.6 13.05 0.5 12.4 0.4 11.7 0.1 8.7 0.05 5.15 M0.55 5.25 L0.45 5.65 0.5 6.6 0.5 6.8 0.55 7.1 0.6 8.1 0.55 8.35 0.5 8.55 0.55 8.75 0.6 9.35 0.6 9.6 0.65 10.65 0.7 10.85 0.7 11.0 0.75 11.2 0.75 11.4 0.75 11.2 0.7 11.0 0.7 10.85 0.65 10.65 0.6 9.6 0.6 9.35 0.55 8.75 0.5 8.55 0.55 8.35 0.6 8.1 0.55 7.1 0.5 6.8 0.5 6.6 0.45 5.65 0.55 5.25 M0.75 11.4 L3.7 8.65 4.85 7.3 5.45 6.6 4.85 7.3 3.7 8.65 0.75 11.4 0.8 12.95 0.75 11.4 0.4 11.7 0.75 11.4 M1.0 14.35 Q2.85 13.2 4.3 11.65 L4.9 11.1 4.3 11.65 Q2.85 13.2 1.0 14.35 L1.1 14.6 1.0 14.35 0.95 14.15 0.95 13.85 0.9 13.7 0.85 13.5 0.85 13.35 0.8 13.15 0.8 12.95 3.8 10.5 5.35 8.6 3.8 10.5 0.8 12.95 0.8 13.15 0.85 13.35 0.85 13.5 0.9 13.7 0.95 13.85 0.95 14.15 1.0 14.35 0.7 14.5 1.0 14.35 M0.6 13.05 L0.8 12.95 0.6 13.05" fill="url(#gradient0)" fill-rule="evenodd" stroke="none"/>
    <path d="M2.6 -0.55 Q3.65 -0.75 4.45 -1.3 4.75 0.0 5.3 1.2 L6.45 4.55 5.35 4.95 3.45 5.35 0.55 5.25 0.05 5.15 -0.65 4.95 -0.4 3.15 Q0.0 1.5 -0.15 0.0 L2.15 -0.5 2.6 -0.55 2.75 0.05 Q2.9 0.75 3.2 1.3 L3.25 1.4 3.2 1.3 Q2.9 0.75 2.75 0.05 L2.6 -0.55 M4.85 0.95 L4.3 1.1 4.05 1.15 3.25 1.4 4.05 1.15 4.3 1.1 4.85 0.95 M3.25 1.4 L2.7 1.55 3.25 1.4 3.75 2.3 4.35 3.15 3.75 2.3 3.25 1.4 M5.45 2.6 L4.9 2.9 4.35 3.15 4.9 2.9 5.45 2.6 M2.7 1.55 L2.8 1.85 2.95 2.35 3.15 2.95 3.35 3.45 3.15 2.95 2.95 2.35 2.8 1.85 2.7 1.55 0.8 1.75 0.3 1.75 0.8 1.75 2.7 1.55 2.45 0.65 2.35 0.2 2.25 -0.2 2.35 0.2 2.45 0.65 2.7 1.55 M4.35 3.15 L3.35 3.45 0.35 3.7 0.2 3.65 0.1 3.65 -0.15 3.45 0.1 3.65 0.2 3.65 0.35 3.7 3.35 3.45 4.35 3.15 4.45 3.25 4.75 3.6 5.05 3.9 4.75 3.6 4.45 3.25 4.35 3.15 M4.0 4.65 L3.75 4.25 3.55 3.9 3.35 3.45 3.55 3.9 3.75 4.25 4.0 4.65" fill="url(#gradient1)" fill-rule="evenodd" stroke="none"/>
    <path d="M5.35 4.95 L6.45 4.55 5.3 1.2 Q4.75 0.0 4.45 -1.3 3.65 -0.75 2.6 -0.55 L2.15 -0.5 -0.15 0.0 Q0.0 1.5 -0.4 3.15 L-0.65 4.95 0.05 5.15 0.55 5.25 3.45 5.35 5.35 4.95 5.4 5.75 5.45 6.6 5.35 8.6 4.9 11.1 4.8 11.45 4.05 13.65 3.4 14.6 2.35 15.3 1.35 15.25 Q0.75 14.95 0.7 14.5 L0.6 13.05 0.5 12.4 0.4 11.7 0.1 8.7 0.05 5.15 M3.25 1.4 L4.05 1.15 4.3 1.1 4.85 0.95 M2.7 1.55 L3.25 1.4 M4.35 3.15 L4.9 2.9 5.45 2.6 M2.7 1.55 L0.8 1.75 0.3 1.75 M-0.15 3.45 L0.1 3.65 0.2 3.65 0.35 3.7 3.35 3.45 4.35 3.15 M5.45 6.6 L4.85 7.3 3.7 8.65 0.75 11.4 0.4 11.7 M0.8 12.95 L3.8 10.5 5.35 8.6 M4.9 11.1 L4.3 11.65 Q2.85 13.2 1.0 14.35 L0.7 14.5 M0.8 12.95 L0.6 13.05" fill="none" stroke="#000000" stroke-linecap="round" stroke-linejoin="round" stroke-width="0.05"/>
    <path d="M2.6 -0.55 L2.75 0.05 Q2.9 0.75 3.2 1.3 L3.25 1.4 3.75 2.3 4.35 3.15 4.45 3.25 4.75 3.6 5.05 3.9 M3.35 3.45 L3.15 2.95 2.95 2.35 2.8 1.85 2.7 1.55 2.45 0.65 2.35 0.2 2.25 -0.2 M0.75 11.4 L0.75 11.2 0.7 11.0 0.7 10.85 0.65 10.65 0.6 9.6 0.6 9.35 0.55 8.75 0.5 8.55 0.55 8.35 0.6 8.1 0.55 7.1 0.5 6.8 0.5 6.6 0.45 5.65 0.55 5.25 M3.35 3.45 L3.55 3.9 3.75 4.25 4.0 4.65 M0.75 11.4 L0.8 12.95 0.8 13.15 0.85 13.35 0.85 13.5 0.9 13.7 0.95 13.85 0.95 14.15 1.0 14.35 1.1 14.6" fill="none" stroke="#ffffff" stroke-linecap="round" stroke-linejoin="round" stroke-width="0.05"/>
  </g>
  <defs>
    <linearGradient gradientTransform="matrix(0.0028, 0.0, 0.0, 0.0094, 1.6, 7.65)" gradientUnits="userSpaceOnUse" id="gradient0" spreadMethod="pad" x1="-819.2" x2="819.2">
      <stop offset="0.0" stop-color="#ffffff"/>
      <stop offset="0.43529411764705883" stop-color="#d3cbc5"/>
      <stop offset="1.0" stop-color="#746558"/>
    </linearGradient>
    <linearGradient gradientTransform="matrix(0.0043, 0.0, 0.0, 0.0041, 1.3, 2.1)" gradientUnits="userSpaceOnUse" id="gradient1" spreadMethod="pad" x1="-819.2" x2="819.2">
      <stop offset="0.0" stop-color="#ffffff"/>
      <stop offset="0.43529411764705883" stop-color="#d3cbc5"/>
      <stop offset="1.0" stop-color="#746558"/>
    </linearGradient>
  </defs>
</svg>
