<?xml version="1.0" encoding="UTF-8" standalone="no"?>
<svg xmlns:xlink="http://www.w3.org/1999/xlink" height="6.75px" width="8.65px" xmlns="http://www.w3.org/2000/svg">
  <g transform="matrix(1.0, 0.0, 0.0, 1.0, 0.0, 0.0)">
    <path d="M7.95 5.0 L6.5 5.7 2.95 6.25 Q0.8 6.15 -0.2 5.4 L3.1 2.8 3.95 2.1 4.35 1.35 5.15 -0.15 7.75 -0.5 Q9.0 2.35 7.95 5.0 L7.95 4.95 7.8 4.8 7.75 4.8 5.75 5.5 Q4.85 5.9 4.2 5.25 L4.3 4.95 4.85 4.4 Q5.25 4.0 4.7 3.9 5.25 4.0 4.85 4.4 L4.3 4.95 4.2 5.25 Q4.85 5.9 5.75 5.5 L7.75 4.8 7.8 4.8 7.95 4.95 7.95 5.0 M5.3 3.1 Q5.8 3.05 5.6 3.55 5.35 4.0 5.95 4.65 L6.15 4.45 Q7.25 4.05 7.8 4.8 7.25 4.05 6.15 4.45 L5.95 4.65 Q5.35 4.0 5.6 3.55 5.8 3.05 5.3 3.1 M7.95 4.95 L7.9 4.4 6.75 3.25 6.85 3.05 Q7.4 2.35 7.0 1.75 7.4 2.35 6.85 3.05 L6.75 3.25 7.9 4.4 7.95 4.95 M5.85 0.5 L5.5 1.1 3.75 3.05 Q2.9 3.5 2.35 4.05 L1.1 5.0 1.45 5.45 1.65 5.65 1.95 5.75 3.5 5.85 1.95 5.75 1.65 5.65 1.45 5.45 1.1 5.0 2.35 4.05 Q2.9 3.5 3.75 3.05 L5.5 1.1 5.85 0.5" fill="url(#gradient0)" fill-rule="evenodd" stroke="none"/>
    <path d="M7.95 5.0 Q9.0 2.35 7.75 -0.5 L5.15 -0.15 4.35 1.35 3.95 2.1 3.1 2.8 -0.2 5.4 Q0.8 6.15 2.95 6.25 L6.5 5.7 7.95 5.0" fill="none" stroke="#000000" stroke-linecap="round" stroke-linejoin="round" stroke-width="0.05"/>
    <path d="M7.95 5.0 L7.95 4.95 7.8 4.8 7.75 4.8 5.75 5.5 Q4.85 5.9 4.2 5.25 L4.3 4.95 4.85 4.4 Q5.25 4.0 4.7 3.9 M3.5 5.85 L1.95 5.75 1.65 5.65 1.45 5.45 1.1 5.0 2.35 4.05 Q2.9 3.5 3.75 3.05 L5.5 1.1 5.85 0.5 M7.0 1.75 Q7.4 2.35 6.85 3.05 L6.75 3.25 7.9 4.4 7.95 4.95 M7.8 4.8 Q7.25 4.05 6.15 4.45 L5.95 4.65 Q5.35 4.0 5.6 3.55 5.8 3.05 5.3 3.1" fill="none" stroke="#fff18a" stroke-linecap="round" stroke-linejoin="round" stroke-width="0.05"/>
  </g>
  <defs>
    <linearGradient gradientTransform="matrix(0.0031, 0.0029, -0.0029, 0.0031, 3.75, 2.55)" gradientUnits="userSpaceOnUse" id="gradient0" spreadMethod="pad" x1="-819.2" x2="819.2">
      <stop offset="0.0" stop-color="#c6a226"/>
      <stop offset="0.5450980392156862" stop-color="#ffed97"/>
      <stop offset="1.0" stop-color="#bf9c26"/>
    </linearGradient>
  </defs>
</svg>
