<?xml version="1.0" encoding="UTF-8" standalone="no"?>
<svg xmlns:xlink="http://www.w3.org/1999/xlink" height="13.1px" width="13.9px" xmlns="http://www.w3.org/2000/svg">
  <g transform="matrix(1.0, 0.0, 0.0, 1.0, 0.0, 0.0)">
    <path d="M4.1 10.9 L3.1 11.5 Q1.55 12.35 -0.15 12.0 0.0 11.9 0.7 11.7 L1.15 11.25 0.9 11.45 0.2 11.55 0.5 11.35 1.1 10.65 1.1 10.5 1.1 10.45 0.85 10.75 Q0.4 11.0 0.8 10.25 1.25 9.35 1.05 8.45 L1.3 9.25 Q1.65 10.45 2.4 11.2 L4.1 10.9 M3.75 -0.35 L5.9 -0.75 Q7.1 -0.8 8.35 0.65 9.6 2.05 10.05 4.0 L10.95 8.55 Q11.3 9.85 13.65 10.95 L12.0 10.95 13.75 11.4 10.5 11.7 11.85 12.2 10.7 12.25 Q8.75 12.0 7.35 10.6 6.95 10.15 6.8 9.4 L6.55 7.55 6.35 5.8 6.2 4.85 5.7 3.2 5.2 2.5 4.25 1.75 3.0 1.8 2.5 2.85 1.7 4.4 1.3 4.85 0.85 5.4 0.65 5.75 0.35 6.45 0.0 4.85 Q-0.15 4.0 0.25 2.35 0.65 0.7 1.85 0.1 3.05 -0.5 3.75 -0.35" fill="#663300" fill-rule="evenodd" stroke="none"/>
    <path d="M3.75 -0.35 Q3.05 -0.5 1.85 0.1 0.65 0.7 0.25 2.35 -0.15 4.0 0.0 4.85 L0.35 6.45 0.65 5.75 0.85 5.4 1.3 4.85 1.7 4.4 2.5 2.85 3.0 1.8 4.25 1.75 5.2 2.5 5.7 3.2 6.2 4.85 6.35 5.8 6.55 7.55 6.8 9.4 Q6.95 10.15 7.35 10.6 8.75 12.0 10.7 12.25 L11.85 12.2 10.5 11.7 13.75 11.4 12.0 10.95 13.65 10.95 Q11.3 9.85 10.95 8.55 L10.05 4.0 Q9.6 2.05 8.35 0.65 7.1 -0.8 5.9 -0.75 L3.75 -0.35 M4.1 10.9 L2.4 11.2 Q1.65 10.45 1.3 9.25 L1.05 8.45 Q1.25 9.35 0.8 10.25 0.4 11.0 0.85 10.75 L1.1 10.45 1.1 10.5 1.1 10.65 0.5 11.35 0.2 11.55 0.9 11.45 1.15 11.25 0.7 11.7 Q0.0 11.9 -0.15 12.0 1.55 12.35 3.1 11.5 L4.1 10.9 4.25 10.85 4.5 11.5 4.85 11.95 M4.1 10.9 L4.25 10.85" fill="none" stroke="#000000" stroke-linecap="round" stroke-linejoin="round" stroke-width="0.05"/>
    <path d="M4.5 10.7 Q3.6 11.3 2.65 12.35 L1.9 10.75 1.85 10.6 Q1.65 10.15 2.05 9.8 L2.1 9.55 2.7 10.05 Q3.5 10.65 4.5 10.7" fill="#663300" fill-rule="evenodd" stroke="none"/>
    <path d="M4.5 10.7 Q3.5 10.65 2.7 10.05 L2.1 9.55 2.05 9.8 Q1.65 10.15 1.85 10.6 L1.9 10.75 2.65 12.35 Q3.6 11.3 4.5 10.7 Z" fill="none" stroke="#000000" stroke-linecap="round" stroke-linejoin="round" stroke-width="0.05"/>
  </g>
</svg>
