<?xml version="1.0" encoding="UTF-8" standalone="no"?>
<svg xmlns:xlink="http://www.w3.org/1999/xlink" height="15.35px" width="45.7px" xmlns="http://www.w3.org/2000/svg">
  <g transform="matrix(1.0, 0.0, 0.0, 1.0, 0.0, 0.0)">
    <path d="M9.45 -5.65 L17.1 -3.7 28.25 -2.05 Q37.05 -0.85 37.05 0.3 L37.05 0.5 Q37.0 1.6 28.2 2.8 L17.3 4.35 9.45 6.1 1.6 7.85 -0.05 7.95 -2.15 7.6 Q-4.7 6.9 -5.75 5.85 -8.6 3.0 -8.65 0.5 L-8.65 0.3 Q-8.65 -2.3 -5.75 -5.2 -4.7 -6.25 -2.15 -6.95 L1.8 -7.35 2.0 -7.3 2.05 -7.3 Q4.0 -7.15 9.45 -5.65" fill="url(#gradient0)" fill-rule="evenodd" stroke="none"/>
  </g>
  <defs>
    <radialGradient cx="0" cy="0" gradientTransform="matrix(0.0253, 0.0, 0.0, 0.0129, -0.6, 0.5)" gradientUnits="userSpaceOnUse" id="gradient0" r="819.2" spreadMethod="pad">
      <stop offset="0.0" stop-color="#e16c17" stop-opacity="0.72156864"/>
      <stop offset="1.0" stop-color="#f5e41b" stop-opacity="0.0"/>
    </radialGradient>
  </defs>
</svg>
