<?xml version="1.0" encoding="UTF-8" standalone="no"?>
<svg xmlns:xlink="http://www.w3.org/1999/xlink" height="6.2px" width="14.7px" xmlns="http://www.w3.org/2000/svg">
  <g transform="matrix(1.0, 0.0, 0.0, 1.0, 0.0, 0.0)">
    <path d="M10.6 0.6 L11.55 0.45 12.7 0.0 Q14.5 0.0 14.85 0.85 15.8 2.2 14.85 3.4 L11.6 3.7 11.05 3.0 10.95 3.0 10.6 0.6" fill="#ffcc99" fill-rule="evenodd" stroke="none"/>
    <path d="M7.95 5.0 L6.15 4.55 0.6 3.5 0.6 0.8 8.2 0.35 8.2 0.4 8.25 0.5 8.25 1.05 9.25 0.9 9.4 0.9 9.4 0.95 9.5 1.6 9.35 1.85 9.25 1.85 9.2 1.9 8.3 1.95 8.35 2.3 8.35 2.8 8.35 2.9 8.4 2.9 8.45 2.95 9.4 3.0 9.6 3.15 9.6 3.4 9.6 3.5 9.5 4.15 9.45 4.2 8.4 4.05 8.25 4.05 8.15 4.2 7.95 5.0" fill="#f1e1b3" fill-rule="evenodd" stroke="none"/>
    <path d="M10.6 0.6 L10.95 3.0 10.35 6.2 Q9.25 5.45 7.95 5.0 L8.15 4.2 8.25 4.05 8.4 4.05 9.45 4.2 9.5 4.15 9.6 3.5 9.6 3.4 9.6 3.15 9.4 3.0 8.45 2.95 8.4 2.9 8.35 2.9 8.35 2.8 8.35 2.3 8.3 1.95 9.2 1.9 9.25 1.85 9.35 1.85 9.5 1.6 9.4 0.95 9.4 0.9 9.25 0.9 8.25 1.05 8.25 0.5 8.2 0.4 8.2 0.35 10.15 0.25 10.6 0.6" fill="url(#gradient0)" fill-rule="evenodd" stroke="none"/>
    <path d="M10.95 3.0 L11.05 3.0 11.6 3.7 14.85 3.4 Q15.8 2.2 14.85 0.85 14.5 0.0 12.7 0.0 L11.55 0.45 10.6 0.6 10.95 3.0 10.35 6.2 Q9.25 5.45 7.95 5.0 L6.15 4.55 0.6 3.5 M0.6 0.8 L8.2 0.35 10.15 0.25 10.6 0.6 M8.2 0.35 L8.2 0.4 8.25 0.5 8.25 1.05 9.25 0.9 9.4 0.9 9.4 0.95 9.5 1.6 9.35 1.85 9.25 1.85 9.2 1.9 8.3 1.95 8.35 2.3 8.35 2.8 8.35 2.9 8.4 2.9 8.45 2.95 9.4 3.0 9.6 3.15 9.6 3.4 9.6 3.5 9.5 4.15 9.45 4.2 8.4 4.05 8.25 4.05 8.15 4.2 7.95 5.0" fill="none" stroke="#000000" stroke-linecap="round" stroke-linejoin="round" stroke-width="0.05"/>
  </g>
  <defs>
    <linearGradient gradientTransform="matrix(-1.0E-4, 0.0033, -0.0043, -1.0E-4, 6.05, 2.9)" gradientUnits="userSpaceOnUse" id="gradient0" spreadMethod="pad" x1="-819.2" x2="819.2">
      <stop offset="0.0" stop-color="#c6a226"/>
      <stop offset="0.5450980392156862" stop-color="#ffed97"/>
      <stop offset="1.0" stop-color="#bf9c26"/>
    </linearGradient>
  </defs>
</svg>
