<?xml version="1.0" encoding="UTF-8" standalone="no"?>
<svg xmlns:xlink="http://www.w3.org/1999/xlink" height="8.35px" width="12.1px" xmlns="http://www.w3.org/2000/svg">
  <g transform="matrix(1.0, 0.0, 0.0, 1.0, 0.0, 0.0)">
    <path d="M3.95 -1.9 L4.6 0.7 Q4.9 2.65 4.2 3.9 L3.4 6.15 3.1 6.45 2.2 6.45 1.7 5.65 Q-2.65 4.05 -0.45 -0.25 L0.5 -1.05 3.3 -1.5 3.95 -1.9 M4.05 1.7 L4.05 1.35 4.1 0.35 4.1 0.2 Q4.25 -0.75 3.7 -1.35 4.25 -0.75 4.1 0.2 L4.1 0.35 4.05 1.35 4.05 1.7 M3.1 -0.35 L3.2 0.35 3.25 1.65 Q3.4 3.3 2.8 4.8 L2.55 5.3 2.8 4.8 Q3.4 3.3 3.25 1.65 L3.2 0.35 3.1 -0.35 M0.2 -0.25 Q-0.8 0.4 -0.7 1.6 L-0.35 3.05 -0.2 3.3 0.35 4.15 Q0.65 4.65 1.25 4.75 L1.6 4.75 1.25 4.75 Q0.65 4.65 0.35 4.15 L-0.2 3.3 -0.35 3.05 -0.7 1.6 Q-0.8 0.4 0.2 -0.25" fill="url(#gradient0)" fill-rule="evenodd" stroke="none"/>
    <path d="M3.95 -1.9 L4.6 0.7 Q4.9 2.65 4.2 3.9 L3.4 6.15 3.1 6.45 2.2 6.45 1.7 5.65 Q-2.65 4.05 -0.45 -0.25 L0.5 -1.05 3.3 -1.5 3.95 -1.9" fill="none" stroke="#000000" stroke-linecap="round" stroke-linejoin="round" stroke-width="0.05"/>
    <path d="M2.55 5.3 L2.8 4.8 Q3.4 3.3 3.25 1.65 L3.2 0.35 3.1 -0.35" fill="none" stroke="#000000" stroke-linecap="round" stroke-linejoin="round" stroke-width="0.05"/>
    <path d="M3.7 -1.35 Q4.25 -0.75 4.1 0.2 L4.1 0.35 4.05 1.35 4.05 1.7 M1.6 4.75 L1.25 4.75 Q0.65 4.65 0.35 4.15 L-0.2 3.3 -0.35 3.05 -0.7 1.6 Q-0.8 0.4 0.2 -0.25" fill="none" stroke="#ffffff" stroke-linecap="round" stroke-linejoin="round" stroke-width="0.05"/>
    <path d="M10.75 1.5 L10.9 2.45 Q11.0 3.1 10.65 3.65 L9.2 3.75 6.75 3.85 4.2 3.9 Q4.9 2.65 4.6 0.7 L7.0 0.9 10.35 1.0 10.75 1.5" fill="#ffcc99" fill-rule="evenodd" stroke="none"/>
    <path d="M4.6 0.7 L7.0 0.9 10.35 1.0 M10.65 3.65 L9.2 3.75 6.75 3.85 4.2 3.9" fill="none" stroke="#000000" stroke-linecap="round" stroke-linejoin="round" stroke-width="0.05"/>
  </g>
  <defs>
    <radialGradient cx="0" cy="0" gradientTransform="matrix(0.0058, 0.0, 0.0, 0.0058, 0.55, 1.2)" gradientUnits="userSpaceOnUse" id="gradient0" r="819.2" spreadMethod="pad">
      <stop offset="0.0" stop-color="#ececec"/>
      <stop offset="1.0" stop-color="#a0a0a0"/>
    </radialGradient>
  </defs>
</svg>
