<?xml version="1.0" encoding="UTF-8" standalone="no"?>
<svg xmlns:xlink="http://www.w3.org/1999/xlink" height="5.95px" width="7.4px" xmlns="http://www.w3.org/2000/svg">
  <g transform="matrix(1.0, 0.0, 0.0, 1.0, 0.0, 0.0)">
    <path d="M7.45 4.75 Q5.1 5.55 3.3 5.45 1.45 5.3 1.05 4.55 L3.7 2.45 4.4 1.8 4.75 1.15 Q4.9 0.65 5.5 -0.15 L7.8 -0.5 Q8.35 0.7 8.45 1.9 L6.6 1.8 6.6 2.7 5.65 2.9 5.1 3.65 4.9 3.8 Q4.4 4.4 5.9 4.75 L6.5 3.9 6.85 4.0 7.3 4.25 7.45 4.75 7.3 4.25 6.85 4.0 6.5 3.9 5.9 4.75 Q4.4 4.4 4.9 3.8 L5.1 3.65 5.65 2.9 6.6 2.7 6.6 1.8 8.45 1.9 8.35 3.2 8.15 4.0 7.95 4.5 7.5 4.7 7.45 4.75 M6.15 0.4 L5.8 0.95 Q4.95 2.2 3.7 3.0 L3.3 3.15 Q2.3 3.6 1.9 4.4 2.3 3.6 3.3 3.15 L3.7 3.0 Q4.95 2.2 5.8 0.95 L6.15 0.4 M6.6 2.7 L6.5 3.9 6.6 2.7 M6.85 4.0 L7.4 3.95 8.15 4.0 7.4 3.95 6.85 4.0" fill="url(#gradient0)" fill-rule="evenodd" stroke="none"/>
    <path d="M8.45 1.9 Q8.35 0.7 7.8 -0.5 L5.5 -0.15 Q4.9 0.65 4.75 1.15 L4.4 1.8 3.7 2.45 1.05 4.55 Q1.45 5.3 3.3 5.45 5.1 5.55 7.45 4.75 M8.45 1.9 L8.35 3.2 8.15 4.0 7.95 4.5 7.5 4.7" fill="none" stroke="#000000" stroke-linecap="round" stroke-linejoin="round" stroke-width="0.05"/>
    <path d="M1.9 4.4 Q2.3 3.6 3.3 3.15 L3.7 3.0 Q4.95 2.2 5.8 0.95 L6.15 0.4" fill="none" stroke="#ffffff" stroke-linecap="round" stroke-linejoin="round" stroke-width="0.05"/>
    <path d="M7.45 4.75 L7.3 4.25 6.85 4.0 6.5 3.9 5.9 4.75 Q4.4 4.4 4.9 3.8 L5.1 3.65 5.65 2.9 6.6 2.7 6.6 1.8 8.45 1.9 M7.5 4.7 L7.45 4.75 M8.15 4.0 L7.4 3.95 6.85 4.0 M6.5 3.9 L6.6 2.7" fill="none" stroke="#fff18a" stroke-linecap="round" stroke-linejoin="round" stroke-width="0.05"/>
  </g>
  <defs>
    <linearGradient gradientTransform="matrix(0.0031, 0.0029, -0.0029, 0.0031, 3.75, 2.55)" gradientUnits="userSpaceOnUse" id="gradient0" spreadMethod="pad" x1="-819.2" x2="819.2">
      <stop offset="0.0" stop-color="#c6a226"/>
      <stop offset="0.5450980392156862" stop-color="#ffed97"/>
      <stop offset="1.0" stop-color="#bf9c26"/>
    </linearGradient>
  </defs>
</svg>
