<?xml version="1.0" encoding="UTF-8" standalone="no"?>
<svg xmlns:xlink="http://www.w3.org/1999/xlink" height="15.9px" width="5.1px" xmlns="http://www.w3.org/2000/svg">
  <g transform="matrix(1.0, 0.0, 0.0, 1.0, 0.0, 0.0)">
    <path d="M3.7 1.45 L4.25 2.1 Q4.7 2.8 4.75 4.15 L4.5 6.7 4.5 8.85 Q4.5 11.1 5.0 13.65 L5.15 14.55 5.2 14.7 5.2 15.4 3.95 15.85 1.95 16.1 0.45 15.8 0.1 15.4 0.25 14.9 0.6 12.15 0.55 8.8 0.55 6.9 0.4 4.75 0.25 1.8 0.15 0.2 3.15 0.7 3.3 0.85 3.4 1.0 3.7 1.45 3.3 0.85 3.7 1.45 M1.95 0.95 L0.55 0.75 1.95 0.95 M2.9 12.2 L3.0 12.45 2.95 12.6 2.3 13.05 1.95 13.35 1.85 13.55 Q1.85 13.85 2.15 13.95 L2.45 14.0 2.45 14.05 2.25 15.1 2.25 15.15 2.1 15.2 1.85 15.25 0.85 15.1 0.25 14.9 0.85 15.1 1.85 15.25 2.1 15.2 2.25 15.15 2.25 15.1 2.45 14.05 2.45 14.0 2.15 13.95 Q1.85 13.85 1.85 13.55 L1.95 13.35 2.3 13.05 2.95 12.6 3.0 12.45 2.9 12.2 M3.45 12.35 L3.8 12.65 Q4.0 13.05 3.8 13.5 L3.65 13.65 Q3.35 13.85 3.0 13.85 L2.95 13.85 2.85 14.25 2.85 14.4 2.7 15.05 3.85 15.15 5.2 14.7 3.85 15.15 2.7 15.05 2.85 14.4 2.85 14.25 2.95 13.85 3.0 13.85 Q3.35 13.85 3.65 13.65 L3.8 13.5 Q4.0 13.05 3.8 12.65 L3.45 12.35" fill="#806a41" fill-rule="evenodd" stroke="none"/>
    <path d="M3.7 1.45 L4.25 2.1 Q4.7 2.8 4.75 4.15 L4.5 6.7 4.5 8.85 Q4.5 11.1 5.0 13.65 L5.15 14.55 5.2 14.7 5.2 15.4 3.95 15.85 1.95 16.1 0.45 15.8 0.1 15.4 0.25 14.9 0.6 12.15 0.55 8.8 0.55 6.9 0.4 4.75 0.25 1.8 0.15 0.2 M3.7 1.45 L3.3 0.85" fill="none" stroke="#000000" stroke-linecap="round" stroke-linejoin="round" stroke-width="0.05"/>
    <path d="M3.15 0.7 L3.3 0.85 3.4 1.0 3.7 1.45 M0.55 0.75 L1.95 0.95" fill="none" stroke="#000000" stroke-linecap="round" stroke-linejoin="round" stroke-width="0.05"/>
    <path d="M5.2 14.7 L3.85 15.15 2.7 15.05 2.85 14.4 2.85 14.25 2.95 13.85 3.0 13.85 Q3.35 13.85 3.65 13.65 L3.8 13.5 Q4.0 13.05 3.8 12.65 L3.45 12.35 M0.25 14.9 L0.85 15.1 1.85 15.25 2.1 15.2 2.25 15.15 2.25 15.1 2.45 14.05 2.45 14.0 2.15 13.95 Q1.85 13.85 1.85 13.55 L1.95 13.35 2.3 13.05 2.95 12.6 3.0 12.45 2.9 12.2" fill="none" stroke="#fff18a" stroke-linecap="round" stroke-linejoin="round" stroke-width="0.05"/>
  </g>
</svg>
