<?xml version="1.0" encoding="UTF-8" standalone="no"?>
<svg xmlns:xlink="http://www.w3.org/1999/xlink" height="19.85px" width="10.65px" xmlns="http://www.w3.org/2000/svg">
  <g transform="matrix(1.0, 0.0, 0.0, 1.0, 0.0, 0.0)">
    <path d="M0.6 1.4 L0.55 1.4 0.55 1.35 0.6 1.4" fill="url(#gradient0)" fill-rule="evenodd" stroke="none"/>
    <path d="M8.85 13.95 L9.75 15.5 10.2 16.65 10.35 17.5 10.4 18.15 9.5 18.45 8.6 18.85 7.4 19.2 5.85 19.25 4.5 19.2 3.85 18.95 3.35 18.6 2.85 18.0 2.4 17.4 2.1 16.95 1.9 16.85 1.7 16.7 1.65 16.45 1.75 16.0 Q1.75 15.7 1.9 15.35 L2.1 14.6 2.2 13.95 2.45 14.05 5.6 14.55 Q7.3 14.55 8.85 13.95" fill="#806a41" fill-rule="evenodd" stroke="none"/>
    <path d="M2.35 12.5 L3.95 12.8 5.5 12.9 7.1 12.75 8.75 12.35 8.75 13.1 8.85 13.85 8.85 13.95 Q7.3 14.55 5.6 14.55 L2.45 14.05 2.2 13.95 2.3 13.15 2.35 12.9 2.35 12.5" fill="#604e31" fill-rule="evenodd" stroke="none"/>
    <path d="M0.6 1.4 L0.55 1.3 0.75 0.25 Q1.15 0.05 1.95 -0.2 L3.65 -0.45 5.5 -0.55 7.35 -0.55 8.9 -0.25 9.75 0.35 10.05 1.15 10.25 1.8 10.3 2.2 10.25 2.45 10.2 3.2 10.2 3.95 10.2 4.75 10.15 5.55 10.05 5.9 9.8 6.55 9.6 7.2 9.35 7.85 9.15 8.5 9.0 9.25 8.95 9.75 8.9 10.05 8.85 10.8 8.85 11.1 8.8 11.9 8.75 12.35 7.1 12.75 5.5 12.9 3.95 12.8 2.35 12.5 Q2.6 11.5 2.35 10.7 L1.85 9.0 1.5 7.85 Q0.7 7.9 0.15 7.0 -0.4 6.05 -0.15 5.4 L0.3 3.9 0.5 2.1 0.55 1.4 0.6 1.4 M5.1 7.9 L5.85 8.05 Q6.75 8.05 7.5 7.5 8.25 6.85 8.15 5.9 L7.7 4.9 8.15 5.9 Q8.25 6.85 7.5 7.5 6.75 8.05 5.85 8.05 L5.1 7.9 M4.3 5.3 L2.9 5.4 4.3 5.3" fill="#d4b675" fill-rule="evenodd" stroke="none"/>
    <path d="M8.75 12.35 L8.8 11.9 8.85 11.1 8.85 10.8 8.9 10.05 8.95 9.75 9.0 9.25 9.15 8.5 9.35 7.85 9.6 7.2 9.8 6.55 10.05 5.9 10.15 5.55 10.2 4.75 10.2 3.95 10.2 3.2 10.25 2.45 10.3 2.2 10.25 1.8 10.05 1.15 9.75 0.35 8.9 -0.25 7.35 -0.55 5.5 -0.55 3.65 -0.45 1.95 -0.2 Q1.15 0.05 0.75 0.25 L0.55 1.3 0.6 1.4 M0.55 1.4 L0.5 2.1 0.3 3.9 -0.15 5.4 Q-0.4 6.05 0.15 7.0 0.7 7.9 1.5 7.85 L1.85 9.0 2.35 10.7 Q2.6 11.5 2.35 12.5 L3.95 12.8 5.5 12.9 7.1 12.75 8.75 12.35 8.75 13.1 8.85 13.85 8.85 13.95 9.75 15.5 10.2 16.65 10.35 17.5 10.4 18.15 9.5 18.45 8.6 18.85 7.4 19.2 5.85 19.25 4.5 19.2 3.85 18.95 3.35 18.6 M1.7 16.7 L1.65 16.45 1.75 16.0 Q1.75 15.7 1.9 15.35 L2.1 14.6 2.2 13.95 2.3 13.15 2.35 12.9 2.35 12.5 M7.7 4.9 L8.15 5.9 Q8.25 6.85 7.5 7.5 6.75 8.05 5.85 8.05 L5.1 7.9 M0.55 1.3 L0.55 1.35 0.55 1.4 M2.9 5.4 L4.3 5.3 M8.85 13.95 Q7.3 14.55 5.6 14.55 L2.45 14.05 2.2 13.95" fill="none" stroke="#000000" stroke-linecap="round" stroke-linejoin="round" stroke-width="0.05"/>
    <path d="M3.05 7.1 L3.95 7.15" fill="none" stroke="#000000" stroke-linecap="round" stroke-linejoin="round" stroke-width="0.05"/>
  </g>
  <defs>
    <radialGradient cx="0" cy="0" gradientTransform="matrix(0.009, 0.0, 0.0, 0.0123, 3.0, 7.2)" gradientUnits="userSpaceOnUse" id="gradient0" r="819.2" spreadMethod="pad">
      <stop offset="0.0" stop-color="#ececec"/>
      <stop offset="1.0" stop-color="#a0a0a0"/>
    </radialGradient>
  </defs>
</svg>
