<?xml version="1.0" encoding="UTF-8" standalone="no"?>
<svg xmlns:xlink="http://www.w3.org/1999/xlink" height="23.0px" width="7.25px" xmlns="http://www.w3.org/2000/svg">
  <g transform="matrix(1.0, 0.0, 0.0, 1.0, 0.0, 0.0)">
    <path d="M6.45 0.0 L7.4 -0.35 7.0 1.45 Q6.7 2.55 6.7 3.7 L6.9 5.85 Q7.15 7.4 6.8 9.0 L6.25 9.65 6.1 9.9 6.15 10.1 6.8 11.1 6.85 13.65 6.15 14.3 Q5.65 14.75 5.8 15.25 L6.6 16.1 6.8 17.55 6.8 19.1 6.45 20.55 Q6.0 21.5 5.15 22.05 L5.0 20.5 3.75 22.65 3.6 21.85 3.45 20.7 3.25 20.3 2.55 21.95 1.45 20.1 Q1.05 19.3 0.95 18.45 0.85 17.7 0.9 16.95 L1.1 16.6 2.1 14.95 1.75 14.45 1.05 13.75 1.0 13.05 Q0.85 11.45 1.8 10.2 L1.15 9.15 0.95 8.95 0.85 7.45 0.65 6.05 0.25 4.2 0.15 3.0 Q0.2 2.2 0.5 1.5 L1.1 0.0 1.75 0.25 1.35 1.0 0.9 2.1 Q0.75 2.7 0.75 3.35 0.75 4.05 0.9 4.75 L1.1 5.6 1.3 6.4 1.5 8.0 Q1.45 8.95 2.1 9.5 2.5 9.85 2.5 10.5 L1.75 11.35 1.55 13.3 1.9 13.65 Q2.45 14.25 2.45 14.9 L2.5 15.25 1.75 16.4 1.7 16.5 1.5 16.65 Q1.35 17.1 1.45 17.55 L1.45 17.85 1.55 18.9 Q1.6 19.65 1.8 20.1 L2.15 20.55 2.2 20.55 2.9 19.55 3.25 19.05 3.45 19.45 3.9 21.45 4.1 21.15 5.05 19.2 5.45 20.8 5.55 20.65 5.95 19.85 6.15 19.05 Q6.4 17.75 6.15 16.6 L5.7 16.15 5.1 15.45 5.05 15.05 5.25 14.45 Q5.65 13.7 6.35 13.3 L6.35 11.35 Q5.35 10.55 5.45 9.35 L5.8 9.05 6.4 8.55 6.4 8.4 6.4 6.45 6.1 5.1 Q5.7 4.2 5.8 3.3 L6.1 2.05 6.45 0.0" fill="url(#gradient0)" fill-rule="evenodd" stroke="none"/>
    <path d="M3.0 10.4 L3.05 10.05 3.1 10.0 Q3.25 10.2 3.0 10.4" fill="url(#gradient1)" fill-rule="evenodd" stroke="none"/>
    <path d="M3.45 11.7 L5.2 11.85 3.9 14.15 3.4 12.95 Q2.95 11.9 3.45 11.7" fill="url(#gradient2)" fill-rule="evenodd" stroke="none"/>
    <path d="M6.45 0.0 L6.1 2.05 5.8 3.3 Q5.7 4.2 6.1 5.1 L6.4 6.45 6.4 8.4 6.4 8.55 5.8 9.05 5.45 9.35 Q5.35 10.55 6.35 11.35 L6.35 13.3 Q5.65 13.7 5.25 14.45 L5.05 15.05 5.1 15.45 5.7 16.15 6.15 16.6 Q6.4 17.75 6.15 19.05 L5.95 19.85 5.55 20.65 5.45 20.8 5.05 19.2 4.1 21.15 3.9 21.45 3.45 19.45 3.25 19.05 2.9 19.55 2.2 20.55 2.15 20.55 1.8 20.1 Q1.6 19.65 1.55 18.9 L1.45 17.85 1.45 17.55 Q1.35 17.1 1.5 16.65 L1.7 16.5 1.75 16.4 2.5 15.25 2.45 14.9 Q2.45 14.25 1.9 13.65 L1.55 13.3 1.75 11.35 2.5 10.5 Q2.5 9.85 2.1 9.5 1.45 8.95 1.5 8.0 L1.3 6.4 1.1 5.6 0.9 4.75 Q0.75 4.05 0.75 3.35 0.75 2.7 0.9 2.1 L1.35 1.0 1.75 0.25 3.45 0.65 6.45 0.0 M3.8 7.7 Q3.2 7.8 3.5 8.25 L3.65 8.45 3.9 8.55 4.1 8.65 4.5 8.25 Q5.1 7.6 4.95 6.75 L4.65 6.05 4.25 5.5 Q3.95 4.95 3.95 4.35 L4.95 2.4 3.95 4.35 Q3.95 4.95 4.25 5.5 L4.65 6.05 4.95 6.75 Q5.1 7.6 4.5 8.25 L4.1 8.65 3.9 8.55 3.65 8.45 3.5 8.25 Q3.2 7.8 3.8 7.7 M2.25 3.75 Q1.4 3.9 1.7 4.8 L3.2 4.85 Q3.65 4.35 3.25 3.55 2.3 2.95 2.25 2.15 L2.85 1.95 Q3.6 1.65 3.65 1.15 L3.45 0.65 3.65 1.15 Q3.6 1.65 2.85 1.95 L2.25 2.15 Q2.3 2.95 3.25 3.55 3.65 4.35 3.2 4.85 L1.7 4.8 Q1.4 3.9 2.25 3.75 M1.1 5.6 L4.25 5.5 1.1 5.6 M3.0 10.4 L2.9 10.75 3.1 10.9 3.35 10.9 3.65 10.9 3.8 10.55 3.7 9.7 3.0 8.5 Q2.35 7.55 3.25 6.75 2.35 7.55 3.0 8.5 L3.7 9.7 3.8 10.55 3.65 10.9 3.35 10.9 3.1 10.9 2.9 10.75 3.0 10.4 Q3.25 10.2 3.1 10.0 L3.05 10.05 3.0 10.4 M3.45 11.7 Q2.95 11.9 3.4 12.95 L3.9 14.15 5.2 11.85 3.45 11.7 M3.9 14.15 L3.9 14.8 4.1 15.05 4.15 16.3 3.25 16.25 3.4 16.9 3.45 17.45 3.5 17.55 2.35 17.95 2.2 18.0 Q2.8 18.55 2.9 19.55 2.8 18.55 2.2 18.0 L2.35 17.95 3.5 17.55 3.45 17.45 3.4 16.9 3.25 16.25 4.15 16.3 4.1 15.05 3.9 14.8 3.9 14.15" fill="url(#gradient3)" fill-rule="evenodd" stroke="none"/>
    <path d="M1.75 0.25 L1.1 0.0 0.5 1.5 Q0.2 2.2 0.15 3.0 L0.25 4.2 0.65 6.05 0.85 7.45 0.95 8.95 1.15 9.15 1.8 10.2 Q0.85 11.45 1.0 13.05 L1.05 13.75 1.75 14.45 2.1 14.95 1.1 16.6 0.9 16.95 Q0.85 17.7 0.95 18.45 1.05 19.3 1.45 20.1 L2.55 21.95 3.25 20.3 3.45 20.7 3.6 21.85 3.75 22.65 5.0 20.5 5.15 22.05 Q6.0 21.5 6.45 20.55 L6.8 19.1 6.8 17.55 6.6 16.1 5.8 15.25 Q5.65 14.75 6.15 14.3 L6.85 13.65 6.8 11.1 6.15 10.1 6.1 9.9 6.25 9.65 6.8 9.0 Q7.15 7.4 6.9 5.85 L6.7 3.7 Q6.7 2.55 7.0 1.45 L7.4 -0.35 6.45 0.0 6.1 2.05 5.8 3.3 Q5.7 4.2 6.1 5.1 L6.4 6.45 6.4 8.4 6.4 8.55 5.8 9.05 5.45 9.35 Q5.35 10.55 6.35 11.35 L6.35 13.3 Q5.65 13.7 5.25 14.45 L5.05 15.05 5.1 15.45 5.7 16.15 6.15 16.6 Q6.4 17.75 6.15 19.05 L5.95 19.85 5.55 20.65 5.45 20.8 5.05 19.2 4.1 21.15 3.9 21.45 3.45 19.45 3.25 19.05 2.9 19.55 2.2 20.55 2.15 20.55 1.8 20.1 Q1.6 19.65 1.55 18.9 L1.45 17.85 1.45 17.55 Q1.35 17.1 1.5 16.65 L1.7 16.5 1.75 16.4 2.5 15.25 2.45 14.9 Q2.45 14.25 1.9 13.65 L1.55 13.3 1.75 11.35 2.5 10.5 Q2.5 9.85 2.1 9.5 1.45 8.95 1.5 8.0 L1.3 6.4 1.1 5.6 0.9 4.75 Q0.75 4.05 0.75 3.35 0.75 2.7 0.9 2.1 L1.35 1.0 1.75 0.25 3.45 0.65 6.45 0.0 M4.25 5.5 L1.1 5.6" fill="none" stroke="#000000" stroke-linecap="round" stroke-linejoin="round" stroke-width="0.05"/>
    <path d="M3.45 0.65 L3.65 1.15 Q3.6 1.65 2.85 1.95 L2.25 2.15 Q2.3 2.95 3.25 3.55 3.65 4.35 3.2 4.85 L1.7 4.8 Q1.4 3.9 2.25 3.75 M4.95 2.4 L3.95 4.35 Q3.95 4.95 4.25 5.5 L4.65 6.05 4.95 6.75 Q5.1 7.6 4.5 8.25 L4.1 8.65 3.9 8.55 3.65 8.45 3.5 8.25 Q3.2 7.8 3.8 7.7 M3.25 6.75 Q2.35 7.55 3.0 8.5 L3.7 9.7 3.8 10.55 3.65 10.9 3.35 10.9 3.1 10.9 2.9 10.75 3.0 10.4 3.05 10.05 3.1 10.0 Q3.25 10.2 3.0 10.4 M3.45 11.7 Q2.95 11.9 3.4 12.95 L3.9 14.15 5.2 11.85 3.45 11.7 M2.9 19.55 Q2.8 18.55 2.2 18.0 L2.35 17.95 3.5 17.55 3.45 17.45 3.4 16.9 3.25 16.25 4.15 16.3 4.1 15.05 3.9 14.8 3.9 14.15" fill="none" stroke="#fff18a" stroke-linecap="round" stroke-linejoin="round" stroke-width="0.05"/>
  </g>
  <defs>
    <linearGradient gradientTransform="matrix(0.0, -0.0138, 0.0043, 0.0, 1.1, 11.05)" gradientUnits="userSpaceOnUse" id="gradient0" spreadMethod="pad" x1="-819.2" x2="819.2">
      <stop offset="0.0" stop-color="#c6a226"/>
      <stop offset="0.5450980392156862" stop-color="#ffed97"/>
      <stop offset="1.0" stop-color="#bf9c26"/>
    </linearGradient>
    <linearGradient gradientTransform="matrix(1.0E-4, -0.0125, 0.0129, 1.0E-4, 3.6, 10.85)" gradientUnits="userSpaceOnUse" id="gradient1" spreadMethod="pad" x1="-819.2" x2="819.2">
      <stop offset="0.0" stop-color="#ecd39d"/>
      <stop offset="0.5450980392156862" stop-color="#fff5d5"/>
      <stop offset="1.0" stop-color="#e8cb8a"/>
    </linearGradient>
    <linearGradient gradientTransform="matrix(1.0E-4, -0.0125, 0.0129, 1.0E-4, 3.6, 10.85)" gradientUnits="userSpaceOnUse" id="gradient2" spreadMethod="pad" x1="-819.2" x2="819.2">
      <stop offset="0.0" stop-color="#ecd39d"/>
      <stop offset="0.5450980392156862" stop-color="#fff7e6"/>
      <stop offset="1.0" stop-color="#e8cb8a"/>
    </linearGradient>
    <linearGradient gradientTransform="matrix(1.0E-4, -0.0125, 0.0129, 1.0E-4, 3.6, 10.85)" gradientUnits="userSpaceOnUse" id="gradient3" spreadMethod="pad" x1="-819.2" x2="819.2">
      <stop offset="0.0" stop-color="#e2b872"/>
      <stop offset="0.5450980392156862" stop-color="#fff7e6"/>
      <stop offset="1.0" stop-color="#e1b66c"/>
    </linearGradient>
  </defs>
</svg>
