<?xml version="1.0" encoding="UTF-8" standalone="no"?>
<svg xmlns:xlink="http://www.w3.org/1999/xlink" height="14.65px" width="11.35px" xmlns="http://www.w3.org/2000/svg">
  <g transform="matrix(1.0, 0.0, 0.0, 1.0, 0.0, 0.0)">
    <path d="M2.0 0.35 L3.25 -0.2 4.8 -0.6 6.5 -0.55 7.55 -0.05 8.95 0.85 9.65 1.8 10.15 3.25 10.3 4.95 10.1 6.8 10.0 8.45 10.15 9.7 10.85 12.25 9.15 12.15 8.8 12.05 8.05 11.9 7.65 12.75 7.3 13.75 7.3 13.2 6.5 14.0 6.65 13.45 6.75 12.85 6.6 13.05 6.4 13.25 6.15 13.7 5.85 14.0 5.8 14.0 5.85 13.6 5.9 13.15 5.2 13.95 4.75 14.05 5.2 13.3 5.15 13.25 4.85 13.5 4.5 13.7 4.55 13.6 4.85 12.5 Q5.55 9.85 5.45 7.15 5.35 4.05 3.65 1.8 L2.9 1.85 2.75 1.8 1.95 1.55 1.65 1.4 1.6 1.5 1.05 2.6 Q0.75 3.15 0.85 3.85 L0.9 5.1 Q0.95 6.45 0.45 7.5 L1.2 8.1 1.45 9.0 1.85 10.2 2.15 10.5 2.25 11.55 2.5 12.65 2.45 12.6 Q1.9 11.8 2.15 12.6 L2.15 13.2 1.25 12.45 1.4 13.75 0.65 13.05 0.65 13.25 0.5 13.0 Q0.0 12.2 -0.2 11.1 -0.7 8.25 -0.4 5.35 L-0.3 3.9 0.15 1.95 Q0.65 0.85 1.4 0.15 L2.0 0.35 M4.25 0.95 L5.3 0.5 7.0 2.45 Q7.8 3.65 7.85 5.25 L7.95 6.35 8.0 7.95 8.05 9.5 8.05 11.9 8.05 9.5 8.0 7.95 7.95 6.35 7.85 5.25 Q7.8 3.65 7.0 2.45 L5.3 0.5 4.25 0.95" fill="#c39d4f" fill-rule="evenodd" stroke="none"/>
    <path d="M2.0 0.35 L3.25 -0.2 4.8 -0.6 6.5 -0.55 7.55 -0.05 8.95 0.85 9.65 1.8 10.15 3.25 10.3 4.95 10.1 6.8 10.0 8.45 10.15 9.7 10.85 12.25 9.15 12.15 M1.65 1.4 L1.6 1.5 1.05 2.6 Q0.75 3.15 0.85 3.85 L0.9 5.1 Q0.95 6.45 0.45 7.5 L1.2 8.1 1.45 9.0 1.85 10.2 2.15 10.5" fill="none" stroke="#000000" stroke-linecap="round" stroke-linejoin="round" stroke-width="0.05"/>
    <path d="M9.15 12.15 L8.8 12.05 8.05 11.9 7.65 12.75 7.3 13.75 7.3 13.2 6.5 14.0 6.65 13.45 6.75 12.85 6.6 13.05 6.4 13.25 6.15 13.7 5.85 14.0 5.8 14.0 5.85 13.6 5.9 13.15 5.2 13.95 4.75 14.05 5.2 13.3 5.15 13.25 4.85 13.5 4.5 13.7 4.55 13.6 4.85 12.5 Q5.55 9.85 5.45 7.15 5.35 4.05 3.65 1.8 L2.9 1.85 2.75 1.8 1.95 1.55 1.65 1.4 M2.15 10.5 L2.25 11.55 2.5 12.65 2.45 12.6 Q1.9 11.8 2.15 12.6 L2.15 13.2 1.25 12.45 1.4 13.75 0.65 13.05 0.65 13.25 0.5 13.0 Q0.0 12.2 -0.2 11.1 -0.7 8.25 -0.4 5.35 L-0.3 3.9 0.15 1.95 Q0.65 0.85 1.4 0.15 L2.0 0.35 M8.05 11.9 L8.05 9.5 8.0 7.95 7.95 6.35 7.85 5.25 Q7.8 3.65 7.0 2.45 L5.3 0.5 4.25 0.95" fill="none" stroke="#000000" stroke-linecap="round" stroke-linejoin="round" stroke-width="0.05"/>
    <path d="M4.1 1.45 Q5.55 3.35 5.8 6.0 6.05 8.45 5.75 10.95 L5.55 12.45" fill="none" stroke="#e4c377" stroke-linecap="round" stroke-linejoin="round" stroke-width="0.05"/>
    <path d="M3.05 0.35 Q4.85 -0.8 6.6 0.0 L7.15 0.35 M6.5 1.05 Q7.45 2.2 7.95 3.85 L8.3 4.65 7.55 1.5 M8.4 1.6 L8.9 3.85 9.0 4.55 M9.15 2.05 L9.45 3.55 M0.6 11.8 Q0.0 9.8 -0.1 7.6 L0.05 3.3 Q0.2 1.55 1.5 0.8 M1.4 11.8 Q0.95 10.7 0.75 9.35 L0.7 8.45 M6.45 12.25 Q7.05 10.1 6.7 7.9 L6.5 6.25 Q6.35 4.1 5.6 2.15 M6.85 3.45 Q7.3 5.65 7.35 7.8 7.45 10.25 6.9 12.6" fill="none" stroke="#e4c377" stroke-linecap="round" stroke-linejoin="round" stroke-width="0.05"/>
  </g>
</svg>
