<?xml version="1.0" encoding="UTF-8" standalone="no"?>
<svg xmlns:xlink="http://www.w3.org/1999/xlink" height="36.05px" width="14.05px" xmlns="http://www.w3.org/2000/svg">
  <g transform="matrix(1.0, 0.0, 0.0, 1.0, 0.0, 0.0)">
    <path d="M3.25 11.95 Q2.5 5.1 0.05 1.9 L0.0 1.45 0.05 1.0 Q0.15 0.4 0.6 0.0 1.95 0.9 2.85 3.1 L4.3 7.0 5.3 11.6 Q5.75 14.5 6.0 22.5 6.25 30.5 11.85 34.35 L14.05 35.6 11.65 36.05 Q8.35 35.9 6.65 32.65 4.9 29.4 4.55 26.3 L4.1 21.0 3.25 11.95 M11.6 35.0 L11.35 34.9 11.25 34.8 11.6 34.55 11.85 34.7 12.05 35.15 12.0 35.4 11.75 35.65 Q10.85 35.8 10.1 35.0 L10.65 34.05 Q10.3 34.1 10.15 34.3 9.7 34.8 9.0 34.55 8.9 34.4 8.95 34.25 L9.25 33.95 9.7 33.3 9.6 33.1 8.9 32.9 8.65 33.05 8.35 33.15 8.05 33.25 Q7.9 32.35 8.65 31.95 L8.2 31.7 7.55 31.65 7.55 30.95 6.9 30.3 6.85 29.65 5.85 27.7 6.85 29.65 6.9 30.3 7.55 30.95 7.55 31.65 8.2 31.7 8.65 31.95 Q7.9 32.35 8.05 33.25 L8.35 33.15 8.65 33.05 8.9 32.9 9.6 33.1 9.7 33.3 9.25 33.95 8.95 34.25 Q8.9 34.4 9.0 34.55 9.7 34.8 10.15 34.3 10.3 34.1 10.65 34.05 L10.1 35.0 Q10.85 35.8 11.75 35.65 L12.0 35.4 12.05 35.15 11.85 34.7 11.6 34.55 11.25 34.8 11.35 34.9 11.6 35.0" fill="url(#gradient0)" fill-rule="evenodd" stroke="none"/>
    <path d="M3.25 11.95 L4.1 21.0 4.55 26.3 Q4.9 29.4 6.65 32.65 8.35 35.9 11.65 36.05 L14.05 35.6 11.85 34.35 Q6.25 30.5 6.0 22.5 5.75 14.5 5.3 11.6 L4.3 7.0 2.85 3.1 Q1.95 0.9 0.6 0.0 0.15 0.4 0.05 1.0 L0.0 1.45 0.05 1.9 Q2.5 5.1 3.25 11.95" fill="none" stroke="#000000" stroke-linecap="round" stroke-linejoin="round" stroke-width="0.05"/>
    <path d="M5.85 27.7 L6.85 29.65 6.9 30.3 7.55 30.95 7.55 31.65 8.2 31.7 8.65 31.95 Q7.9 32.35 8.05 33.25 L8.35 33.15 8.65 33.05 8.9 32.9 9.6 33.1 9.7 33.3 9.25 33.95 8.95 34.25 Q8.9 34.4 9.0 34.55 9.7 34.8 10.15 34.3 10.3 34.1 10.65 34.05 L10.1 35.0 Q10.85 35.8 11.75 35.65 L12.0 35.4 12.05 35.15 11.85 34.7 11.6 34.55 11.25 34.8 11.35 34.9 11.6 35.0" fill="none" stroke="#66ffff" stroke-linecap="round" stroke-linejoin="round" stroke-width="0.05"/>
  </g>
  <defs>
    <linearGradient gradientTransform="matrix(0.0035, 0.0224, -0.0217, 0.0034, 7.05, 18.05)" gradientUnits="userSpaceOnUse" id="gradient0" spreadMethod="pad" x1="-819.2" x2="819.2">
      <stop offset="0.0" stop-color="#2351be"/>
      <stop offset="0.3843137254901961" stop-color="#79b3e1"/>
      <stop offset="0.5372549019607843" stop-color="#bad9ef"/>
      <stop offset="0.6862745098039216" stop-color="#79b3e1"/>
      <stop offset="1.0" stop-color="#2351be"/>
    </linearGradient>
  </defs>
</svg>
