<?xml version="1.0" encoding="UTF-8" standalone="no"?>
<svg xmlns:xlink="http://www.w3.org/1999/xlink" height="3.7px" width="15.15px" xmlns="http://www.w3.org/2000/svg">
  <g transform="matrix(1.0, 0.0, 0.0, 1.0, 0.0, 0.0)">
    <path d="M0.9 0.7 Q4.7 0.2 8.65 0.75 L11.55 0.45 12.7 0.0 Q14.5 0.0 14.85 0.85 15.8 2.2 14.85 3.4 L11.6 3.7 11.05 3.0 Q10.05 2.7 7.9 3.0 L4.6 3.5 2.25 3.7 1.35 3.45 Q0.0 3.45 0.15 2.05 L0.9 0.7" fill="#ffcc99" fill-rule="evenodd" stroke="none"/>
    <path d="M1.35 3.45 L2.25 3.7 4.6 3.5 7.9 3.0 Q10.05 2.7 11.05 3.0 L11.6 3.7 14.85 3.4 Q15.8 2.2 14.85 0.85 14.5 0.0 12.7 0.0 L11.55 0.45 8.65 0.75 Q4.7 0.2 0.9 0.7" fill="none" stroke="#000000" stroke-linecap="round" stroke-linejoin="round" stroke-width="0.05"/>
  </g>
</svg>
