<?xml version="1.0" encoding="UTF-8" standalone="no"?>
<svg xmlns:xlink="http://www.w3.org/1999/xlink" height="6.3px" width="2.15px" xmlns="http://www.w3.org/2000/svg">
  <g transform="matrix(1.0, 0.0, 0.0, 1.0, 0.0, 0.0)">
    <path d="M9.5 -1.45 Q9.95 -1.45 10.25 -0.55 L10.55 0.55 10.55 0.6 10.1 0.65 10.1 0.55 10.05 0.15 9.8 -0.45 9.55 0.15 9.5 0.7 9.45 1.65 9.55 2.85 9.55 3.1 9.8 3.7 10.05 3.1 10.05 3.05 10.1 2.85 10.55 2.9 10.5 3.05 10.25 3.95 Q9.95 4.85 9.5 4.85 9.05 4.85 8.7 3.95 L8.5 2.9 8.4 1.7 8.45 0.75 Q8.5 0.0 8.7 -0.55 9.05 -1.45 9.5 -1.45" fill="#ccffff" fill-rule="evenodd" stroke="none"/>
    <path d="M9.5 -1.45 Q9.05 -1.45 8.7 -0.55 8.5 0.0 8.45 0.75 L8.4 1.7 8.5 2.9 8.7 3.95 Q9.05 4.85 9.5 4.85 9.95 4.85 10.25 3.95 L10.5 3.05 10.55 2.9 10.1 2.85 10.05 3.05 10.05 3.1 9.8 3.7 9.55 3.1 9.55 2.85 9.45 1.65 9.5 0.7 9.55 0.15 9.8 -0.45 10.05 0.15 10.1 0.55 10.1 0.65 10.55 0.6 10.55 0.55 10.25 -0.55 Q9.95 -1.45 9.5 -1.45 Z" fill="none" stroke="#000000" stroke-linecap="round" stroke-linejoin="round" stroke-width="0.05"/>
  </g>
</svg>
