<?xml version="1.0" encoding="UTF-8" standalone="no"?>
<svg xmlns:xlink="http://www.w3.org/1999/xlink" height="3.9px" width="10.1px" xmlns="http://www.w3.org/2000/svg">
  <g transform="matrix(1.0, 0.0, 0.0, 1.0, 0.0, 0.0)">
    <path d="M10.35 1.0 L10.75 1.5 10.9 2.45 10.65 3.8 9.2 3.75 7.9 3.75 Q8.35 2.35 7.85 0.8 L10.35 1.0 M5.95 3.9 L2.1 3.7 Q0.75 2.25 0.8 0.65 1.6 -0.35 4.6 0.2 L4.9 0.9 Q5.9 2.25 5.95 3.9" fill="#ffcc99" fill-rule="evenodd" stroke="none"/>
    <path d="M7.9 3.75 L6.75 3.85 5.95 3.9 Q5.9 2.25 4.9 0.9 L4.6 0.2 5.1 0.3 6.1 0.5 7.85 0.8 Q8.35 2.35 7.9 3.75 M6.5 1.55 L6.1 0.5 6.5 1.55" fill="#99ccff" fill-rule="evenodd" stroke="none"/>
    <path d="M10.65 3.8 L9.2 3.75 7.9 3.75 6.75 3.85 5.95 3.9 2.1 3.7 M0.8 0.65 Q1.6 -0.35 4.6 0.2 L5.1 0.3 6.1 0.5 7.85 0.8 10.35 1.0 M6.1 0.5 L6.5 1.55 M7.9 3.75 Q8.35 2.35 7.85 0.8 M5.95 3.9 Q5.9 2.25 4.9 0.9 L4.6 0.2" fill="none" stroke="#000000" stroke-linecap="round" stroke-linejoin="round" stroke-width="0.05"/>
  </g>
</svg>
