<?xml version="1.0" encoding="UTF-8" standalone="no"?>
<svg xmlns:xlink="http://www.w3.org/1999/xlink" height="32.1px" width="18.65px" xmlns="http://www.w3.org/2000/svg">
  <g transform="matrix(1.0, 0.0, 0.0, 1.0, 0.0, 0.0)">
    <path d="M2.95 13.3 Q4.5 12.75 6.45 11.55 8.35 10.3 10.45 8.1 L10.5 8.1 12.5 6.5 Q13.85 5.4 15.1 5.9 L14.7 6.4 13.6 7.65 12.75 8.45 12.0 9.05 11.35 9.55 10.55 10.2 9.35 11.25 8.1 12.5 7.1 13.6 6.8 13.95 6.0 15.0 5.55 15.65 Q3.9 18.2 3.4 21.25 3.25 22.4 3.4 23.55 3.6 24.9 4.2 26.15 4.7 27.2 5.55 28.05 L6.0 28.4 7.1 29.0 8.1 29.25 8.4 29.25 9.35 29.35 10.55 29.3 11.35 29.1 12.75 28.55 13.6 28.2 14.0 27.95 14.65 27.2 14.7 27.1 Q15.2 25.95 16.1 25.0 17.3 23.7 18.65 24.6 17.8 25.15 17.15 25.85 L15.55 27.8 Q13.7 30.85 10.35 31.65 8.3 31.95 6.6 30.9 L4.2 29.2 Q1.55 26.7 0.5 23.4 L0.1 21.45 Q-0.1 19.85 0.2 18.35 0.8 15.55 2.8 13.55 L2.95 13.3" fill="url(#gradient0)" fill-rule="evenodd" stroke="none"/>
    <path d="M14.7 0.55 Q14.6 0.85 14.0 0.95 L13.6 0.95 13.3 1.1 12.45 0.85 12.65 1.4 Q12.6 2.6 11.55 1.85 L11.35 1.25 11.1 2.35 10.6 3.1 9.75 3.6 9.35 3.5 9.15 2.7 9.1 2.5 8.85 2.95 7.9 3.95 7.05 3.9 Q6.9 3.25 7.2 2.45 L6.9 3.15 Q6.4 4.25 5.6 4.75 L4.95 4.65 4.75 4.4 4.6 4.15 4.6 3.25 4.85 2.45 4.15 3.05 3.6 2.95 3.3 2.4 3.3 2.2 Q4.05 0.65 5.6 0.2 L10.0 -0.4 Q12.3 -0.5 14.25 0.35 L14.35 0.4 14.7 0.55" fill="url(#gradient1)" fill-rule="evenodd" stroke="none"/>
    <path d="M14.7 0.55 L15.05 0.65 Q15.7 1.2 16.05 2.1 16.65 3.6 15.85 4.8 L15.1 5.9 Q13.85 5.4 12.5 6.5 L10.5 8.1 10.45 8.1 Q8.35 10.3 6.45 11.55 4.5 12.75 2.95 13.3 L3.55 12.55 Q5.05 10.75 6.9 9.25 8.4 8.1 8.9 6.45 9.35 4.95 8.25 3.9 L7.9 3.95 8.85 2.95 9.1 2.5 9.15 2.7 9.35 3.5 9.75 3.6 10.6 3.1 11.1 2.35 11.35 1.25 11.55 1.85 Q12.6 2.6 12.65 1.4 L12.45 0.85 13.3 1.1 13.6 0.95 14.0 0.95 Q14.6 0.85 14.7 0.55" fill="url(#gradient2)" fill-rule="evenodd" stroke="none"/>
    <path d="M15.1 5.9 L15.85 4.8 Q16.65 3.6 16.05 2.1 15.7 1.2 15.05 0.65 L14.7 0.55 Q14.6 0.85 14.0 0.95 L13.6 0.95 13.3 1.1 12.45 0.85 12.65 1.4 Q12.6 2.6 11.55 1.85 L11.35 1.25 11.1 2.35 10.6 3.1 9.75 3.6 9.35 3.5 9.15 2.7 9.1 2.5 8.85 2.95 7.9 3.95 8.25 3.9 Q9.35 4.95 8.9 6.45 8.4 8.1 6.9 9.25 5.05 10.75 3.55 12.55 L2.95 13.3 Q4.5 12.75 6.45 11.55 8.35 10.3 10.45 8.1 L10.5 8.1 12.5 6.5 Q13.85 5.4 15.1 5.9 L14.7 6.4 13.6 7.65 12.75 8.45 12.0 9.05 11.35 9.55 10.55 10.2 9.35 11.25 8.1 12.5 7.1 13.6 6.8 13.95 6.0 15.0 5.55 15.65 Q3.9 18.2 3.4 21.25 3.25 22.4 3.4 23.55 3.6 24.9 4.2 26.15 4.7 27.2 5.55 28.05 L6.0 28.4 7.1 29.0 8.1 29.25 8.4 29.25 9.35 29.35 10.55 29.3 11.35 29.1 12.75 28.55 13.6 28.2 14.0 27.95 14.65 27.2 14.7 27.1 Q15.2 25.95 16.1 25.0 17.3 23.7 18.65 24.6 17.8 25.15 17.15 25.85 L15.55 27.8 Q13.7 30.85 10.35 31.65 8.3 31.95 6.6 30.9 L4.2 29.2 Q1.55 26.7 0.5 23.4 L0.1 21.45 Q-0.1 19.85 0.2 18.35 0.8 15.55 2.8 13.55 L2.95 13.3 M14.7 0.55 L14.35 0.4 14.25 0.35 Q12.3 -0.5 10.0 -0.4 L5.6 0.2 Q4.05 0.65 3.3 2.2 L3.3 2.4 3.6 2.95 4.15 3.05 4.85 2.45 4.6 3.25 4.6 4.15 4.75 4.4 4.95 4.65 5.6 4.75 Q6.4 4.25 6.9 3.15 L7.2 2.45 Q6.9 3.25 7.05 3.9 L7.9 3.95" fill="none" stroke="#000000" stroke-linecap="round" stroke-linejoin="round" stroke-width="0.05"/>
    <path d="M14.7 6.4 L14.7 27.1 M9.35 11.25 L9.35 29.35 M6.0 15.0 L6.0 28.4 M7.1 29.0 L7.1 13.6 M8.1 12.5 L8.1 29.25 M10.55 29.3 L10.55 10.2 M11.35 9.55 L11.35 29.1 M12.75 28.55 L12.75 8.45 M13.6 7.65 L13.6 28.2" fill="none" stroke="#66ffff" stroke-linecap="round" stroke-linejoin="round" stroke-width="0.05"/>
  </g>
  <defs>
    <linearGradient gradientTransform="matrix(-3.0E-4, 0.0194, -0.0193, -3.0E-4, 9.3, 15.85)" gradientUnits="userSpaceOnUse" id="gradient0" spreadMethod="pad" x1="-819.2" x2="819.2">
      <stop offset="0.0" stop-color="#889add"/>
      <stop offset="0.5137254901960784" stop-color="#55eeed"/>
      <stop offset="1.0" stop-color="#7782dd"/>
    </linearGradient>
    <linearGradient gradientTransform="matrix(-3.0E-4, 0.0194, -0.0193, -3.0E-4, 9.3, 15.85)" gradientUnits="userSpaceOnUse" id="gradient1" spreadMethod="pad" x1="-819.2" x2="819.2">
      <stop offset="0.0" stop-color="#b7c1ea"/>
      <stop offset="0.5137254901960784" stop-color="#a3f5f4"/>
      <stop offset="1.0" stop-color="#7782dd"/>
    </linearGradient>
    <radialGradient cx="0" cy="0" gradientTransform="matrix(0.0109, 0.0, 0.0, 0.0106, 8.1, 4.8)" gradientUnits="userSpaceOnUse" id="gradient2" r="819.2" spreadMethod="pad">
      <stop offset="0.0" stop-color="#889add"/>
      <stop offset="0.5137254901960784" stop-color="#55eeed"/>
      <stop offset="1.0" stop-color="#1f287a"/>
    </radialGradient>
  </defs>
</svg>
