<?xml version="1.0" encoding="UTF-8" standalone="no"?>
<svg xmlns:xlink="http://www.w3.org/1999/xlink" height="33.7px" width="20.6px" xmlns="http://www.w3.org/2000/svg">
  <g transform="matrix(1.0, 0.0, 0.0, 1.0, 0.0, 0.0)">
    <path d="M9.95 2.6 L9.8 2.4 Q9.85 1.45 10.55 0.95 11.75 0.1 13.5 0.0 14.2 0.0 14.75 0.45 15.65 1.0 16.05 2.1 L16.2 2.45 Q16.55 3.75 15.85 4.8 L14.85 6.25 14.3 5.3 14.6 4.0 14.3 5.3 14.85 6.25 14.7 6.4 13.6 7.65 12.75 8.45 12.0 9.05 11.35 9.55 10.55 10.2 9.35 11.25 8.1 12.5 7.1 13.6 6.8 13.95 6.0 15.0 5.55 15.65 Q3.9 18.2 3.4 21.25 3.25 22.4 3.4 23.55 3.6 24.9 4.2 26.15 4.7 27.2 5.55 28.05 L6.0 28.4 7.1 29.0 8.1 29.25 8.4 29.25 9.35 29.35 10.55 29.3 11.35 29.1 12.75 28.55 13.6 28.2 14.0 27.95 14.65 27.2 14.7 27.1 Q15.2 25.95 16.1 25.0 17.3 23.7 18.65 24.6 17.8 25.15 17.15 25.85 L15.55 27.8 Q13.7 30.85 10.35 31.65 8.3 31.95 6.6 30.9 L4.2 29.2 Q1.55 26.7 0.5 23.4 L0.1 21.45 Q-0.1 19.85 0.2 18.35 1.0 14.75 4.05 12.4 5.65 11.15 7.45 10.15 L9.85 8.65 9.5 9.1 5.3 12.8 9.5 9.1 9.85 8.65 10.55 8.05 12.55 6.05 13.2 5.2 Q13.9 3.9 12.65 3.4 L12.6 3.45 Q11.9 2.25 10.55 2.4 L9.95 2.6 10.55 2.4 Q11.9 2.25 12.6 3.45 11.8 4.05 10.8 3.75 L10.5 3.35 9.95 2.6 M13.15 1.7 L13.2 2.3 Q13.25 3.1 12.65 3.4 13.25 3.1 13.2 2.3 L13.15 1.7 M14.1 3.5 Q14.1 5.4 13.05 6.75 12.0 8.05 10.55 8.05 12.0 8.05 13.05 6.75 14.1 5.4 14.1 3.5" fill="url(#gradient0)" fill-rule="evenodd" stroke="none"/>
    <path d="M14.85 6.25 L15.85 4.8 Q16.55 3.75 16.2 2.45 L16.05 2.1 Q15.65 1.0 14.75 0.45 14.2 0.0 13.5 0.0 11.75 0.1 10.55 0.95 9.85 1.45 9.8 2.4 L9.95 2.6 10.5 3.35 10.8 3.75 Q11.8 4.05 12.6 3.45 L12.65 3.4 Q13.25 3.1 13.2 2.3 L13.15 1.7 M14.85 6.25 L14.7 6.4 13.6 7.65 12.75 8.45 12.0 9.05 11.35 9.55 10.55 10.2 9.35 11.25 8.1 12.5 7.1 13.6 6.8 13.95 6.0 15.0 5.55 15.65 Q3.9 18.2 3.4 21.25 3.25 22.4 3.4 23.55 3.6 24.9 4.2 26.15 4.7 27.2 5.55 28.05 L6.0 28.4 7.1 29.0 8.1 29.25 8.4 29.25 9.35 29.35 10.55 29.3 11.35 29.1 12.75 28.55 13.6 28.2 14.0 27.95 14.65 27.2 14.7 27.1 Q15.2 25.95 16.1 25.0 17.3 23.7 18.65 24.6 17.8 25.15 17.15 25.85 L15.55 27.8 Q13.7 30.85 10.35 31.65 8.3 31.95 6.6 30.9 L4.2 29.2 Q1.55 26.7 0.5 23.4 L0.1 21.45 Q-0.1 19.85 0.2 18.35 1.0 14.75 4.05 12.4 5.65 11.15 7.45 10.15 L9.85 8.65 10.55 8.05 12.55 6.05 13.2 5.2 Q13.9 3.9 12.65 3.4" fill="none" stroke="#000000" stroke-linecap="round" stroke-linejoin="round" stroke-width="0.05"/>
    <path d="M14.7 6.4 L14.7 27.1 M9.35 29.35 L9.35 11.25 M10.55 10.2 L10.55 29.3 M8.1 12.5 L8.1 29.25 M7.1 13.6 L7.1 29.0 M6.0 15.0 L6.0 28.4 M11.35 29.1 L11.35 9.55 M12.75 8.45 L12.75 28.55 M13.6 28.2 L13.6 7.65" fill="none" stroke="#ff33ff" stroke-linecap="round" stroke-linejoin="round" stroke-width="0.05"/>
    <path d="M16.2 2.45 L17.05 2.35 Q18.15 3.35 19.7 2.75 L20.05 2.6 20.6 1.35 20.2 0.5 19.45 0.65 19.35 0.9 19.5 1.2 M9.95 2.6 L10.55 2.4 Q11.9 2.25 12.6 3.45 M14.85 6.25 L17.4 6.5 17.7 5.65 17.5 5.45 17.05 5.4 M14.6 4.0 L14.3 5.3 14.85 6.25 M9.85 8.65 L10.0 7.9 Q9.35 7.05 8.5 6.85 L7.9 6.7 7.05 7.9 M10.55 8.05 Q12.0 8.05 13.05 6.75 14.1 5.4 14.1 3.5 M9.95 2.6 Q9.05 3.6 7.85 3.8 L7.0 3.95 5.5 3.0 5.7 1.65 6.45 1.2 6.75 1.35 7.0 1.8 7.0 2.0 6.95 2.15 6.55 2.1 M10.0 7.9 L10.1 7.25 9.8 6.85 10.05 3.65 10.5 3.35 M9.85 8.65 L9.5 9.1 5.3 12.8 M10.0 7.9 L10.55 8.05" fill="none" stroke="#ccff00" stroke-linecap="round" stroke-linejoin="round" stroke-width="0.05"/>
    <path d="M9.1 -0.1 Q10.45 -0.1 10.9 1.1 L11.55 -0.85 13.3 -2.0 14.25 -1.7 13.85 -0.75 14.3 0.1 15.0 -0.4 Q16.3 -0.9 17.1 0.5 L17.35 1.35 17.2 2.2 16.6 1.75 15.75 2.2 16.55 3.0 Q16.7 5.2 14.5 6.15 L14.3 6.25 14.05 5.55 13.9 5.15 Q13.05 6.5 11.35 6.6 L10.5 6.6 Q9.6 6.5 9.1 5.75 L10.15 5.3 10.55 4.45 10.0 4.4 9.2 3.35 Q8.85 2.85 8.95 2.2 9.05 1.0 8.45 -0.05 L9.1 -0.1 M13.1 1.6 L14.25 0.9 14.3 0.1 14.25 0.9 13.1 1.6 12.9 1.6 11.95 1.6 11.55 1.8 11.8 2.35 11.65 2.65 13.4 2.75 13.75 2.55 Q14.1 2.35 13.8 1.95 L13.1 1.65 13.8 1.95 Q14.1 2.35 13.75 2.55 L13.4 2.75 13.9 3.05 13.4 2.75 11.65 2.65 11.8 2.35 11.55 1.8 11.95 1.6 12.9 1.6 13.1 1.65 13.1 1.6 M13.95 3.1 L13.95 3.05 13.9 3.05 13.95 3.1 15.35 3.1 15.75 2.2 15.35 3.1 13.95 3.1 Q14.35 3.75 14.3 4.35 14.3 4.95 13.9 5.15 14.3 4.95 14.3 4.35 14.35 3.75 13.95 3.1 M11.55 1.8 L10.9 1.1 11.55 1.8 M10.55 4.45 Q10.35 4.1 10.65 3.6 11.0 3.05 11.65 2.65 11.0 3.05 10.65 3.6 10.35 4.1 10.55 4.45" fill="#cc0033" fill-rule="evenodd" stroke="none"/>
    <path d="M9.1 -0.1 Q10.45 -0.1 10.9 1.1 L11.55 -0.85 13.3 -2.0 14.25 -1.7 13.85 -0.75 14.3 0.1 15.0 -0.4 Q16.3 -0.9 17.1 0.5 L17.35 1.35 17.2 2.2 16.6 1.75 15.75 2.2 16.55 3.0 Q16.7 5.2 14.5 6.15 L14.3 6.25 14.05 5.55 13.9 5.15 Q13.05 6.5 11.35 6.6 L10.5 6.6 Q9.6 6.5 9.1 5.75 L10.15 5.3 10.55 4.45 10.0 4.4 9.2 3.35 Q8.85 2.85 8.95 2.2 9.05 1.0 8.45 -0.05 L9.1 -0.1 M14.3 0.1 L14.25 0.9 13.1 1.6 12.9 1.6 11.95 1.6 11.55 1.8 11.8 2.35 11.65 2.65 13.4 2.75 13.9 3.05 13.95 3.05 13.95 3.1 15.35 3.1 15.75 2.2 M13.1 1.65 L13.8 1.95 Q14.1 2.35 13.75 2.55 L13.4 2.75 M13.9 3.05 L13.95 3.1 Q14.35 3.75 14.3 4.35 14.3 4.95 13.9 5.15 M12.9 1.6 L13.1 1.65 M11.65 2.65 Q11.0 3.05 10.65 3.6 10.35 4.1 10.55 4.45 M10.9 1.1 L11.55 1.8" fill="none" stroke="#000000" stroke-linecap="round" stroke-linejoin="round" stroke-width="0.05"/>
  </g>
  <defs>
    <linearGradient gradientTransform="matrix(-3.0E-4, 0.0194, -0.0193, -3.0E-4, 9.3, 15.85)" gradientUnits="userSpaceOnUse" id="gradient0" spreadMethod="pad" x1="-819.2" x2="819.2">
      <stop offset="0.0" stop-color="#996715"/>
      <stop offset="0.13725490196078433" stop-color="#e3af39"/>
      <stop offset="0.49411764705882355" stop-color="#fff4b5"/>
      <stop offset="0.8705882352941177" stop-color="#e3af39"/>
      <stop offset="1.0" stop-color="#9e6a16"/>
    </linearGradient>
  </defs>
</svg>
