<?xml version="1.0" encoding="UTF-8" standalone="no"?>
<svg xmlns:xlink="http://www.w3.org/1999/xlink" height="33.85px" width="21.15px" xmlns="http://www.w3.org/2000/svg">
  <g transform="matrix(1.0, 0.0, 0.0, 1.0, 0.0, 0.0)">
    <path d="M6.45 2.35 Q6.3 0.45 7.8 -0.55 L8.45 -0.9 9.15 -2.4 9.1 -2.85 Q11.75 -5.3 14.2 -3.0 14.8 -2.4 15.0 -1.55 L15.15 0.1 Q16.75 1.65 15.9 3.45 14.75 6.05 12.95 8.2 L12.25 9.0 11.25 10.0 10.6 10.6 9.25 11.65 8.95 11.85 8.1 12.5 7.3 13.2 6.05 14.4 5.55 14.95 5.1 15.55 Q1.95 19.75 3.6 24.55 3.95 25.6 5.1 26.05 L5.15 26.05 6.05 26.3 7.3 26.4 8.1 26.3 9.25 25.9 10.35 25.1 10.6 24.9 11.25 24.35 12.25 23.6 12.95 23.1 Q14.5 22.05 16.15 21.2 18.45 19.95 20.65 21.45 21.1 22.35 20.65 23.35 L20.35 23.95 20.2 24.05 Q20.1 23.85 20.15 23.5 L19.8 22.9 18.05 22.2 Q14.7 22.95 12.85 25.8 9.9 30.5 4.3 29.6 2.0 29.05 0.95 26.95 -1.7 21.7 1.35 16.5 3.35 13.05 6.55 10.4 L9.3 8.3 Q11.4 6.9 13.05 4.8 15.5 1.7 13.6 -1.55 L12.45 -1.95 11.25 -2.25 10.9 -2.05 10.55 -1.85 10.3 -1.5 10.2 -1.15 10.15 -0.2 10.15 -0.05 9.95 0.25 9.35 0.7 8.85 0.95 8.3 0.65 Q7.65 0.5 7.1 1.2 L6.5 2.35 6.45 2.35" fill="#11f2c0" fill-opacity="0.5019608" fill-rule="evenodd" stroke="none"/>
    <path d="M6.45 2.35 Q6.3 0.45 7.8 -0.55 L8.45 -0.9 9.15 -2.4 9.1 -2.85 Q11.75 -5.3 14.2 -3.0 14.8 -2.4 15.0 -1.55 L15.15 0.1 Q16.75 1.65 15.9 3.45 14.75 6.05 12.95 8.2 L12.25 9.0 11.25 10.0 10.6 10.6 9.25 11.65 8.95 11.85 8.1 12.5 7.3 13.2 6.05 14.4 5.55 14.95 5.1 15.55 Q1.95 19.75 3.6 24.55 3.95 25.6 5.1 26.05 L5.15 26.05 6.05 26.3 7.3 26.4 8.1 26.3 9.25 25.9 10.35 25.1 10.6 24.9 11.25 24.35 12.25 23.6 12.95 23.1 Q14.5 22.05 16.15 21.2 18.45 19.95 20.65 21.45 21.1 22.35 20.65 23.35 L20.35 23.95 20.2 24.05 Q20.1 23.85 20.15 23.5 L19.8 22.9 18.05 22.2 Q14.7 22.95 12.85 25.8 9.9 30.5 4.3 29.6 2.0 29.05 0.95 26.95 -1.7 21.7 1.35 16.5 3.35 13.05 6.55 10.4 L9.3 8.3 Q11.4 6.9 13.05 4.8 15.5 1.7 13.6 -1.55 L12.45 -1.95 11.25 -2.25 10.9 -2.05 10.55 -1.85 10.3 -1.5 10.2 -1.15 10.15 -0.2 10.15 -0.05 9.95 0.25 9.35 0.7 8.85 0.95 8.3 0.65 Q7.65 0.5 7.1 1.2 L6.5 2.35 6.45 2.4 6.45 2.35" fill="none" stroke="#339999" stroke-linecap="round" stroke-linejoin="round" stroke-width="0.05"/>
    <path d="M12.95 8.2 L12.95 13.65 M12.95 20.95 L12.95 23.1 M10.6 10.6 L10.6 15.1 M10.6 20.95 L10.6 24.9 M11.25 24.35 L11.25 20.95 M11.25 15.1 L11.25 10.0 M8.1 12.5 L8.1 16.75 M8.1 20.95 L8.1 26.3 M9.25 25.9 L9.25 20.95 M9.25 15.1 L9.25 11.65 M6.05 14.4 L6.05 16.75 M6.05 20.95 L6.05 26.3 M7.3 26.4 L7.3 20.95 M7.3 16.75 L7.3 13.2 M5.1 15.55 L5.1 16.75 M5.1 20.95 L5.1 26.05 M12.25 23.6 L12.25 20.95 M12.25 13.65 L12.25 9.0" fill="none" stroke="#33ffcc" stroke-linecap="round" stroke-linejoin="round" stroke-width="0.05"/>
    <path d="M12.95 13.65 L12.95 20.95 M10.6 15.1 L10.6 20.95 M11.25 20.95 L11.25 15.1 M8.1 16.75 L8.1 20.95 M9.25 20.95 L9.25 15.1 M6.05 16.75 L6.05 20.95 M7.3 20.95 L7.3 16.75 M5.1 16.75 L5.1 20.95 M12.25 20.95 L12.25 13.65" fill="none" stroke="#abfee4" stroke-linecap="round" stroke-linejoin="round" stroke-width="0.05"/>
  </g>
</svg>
