<?xml version="1.0" encoding="UTF-8" standalone="no"?>
<svg xmlns:xlink="http://www.w3.org/1999/xlink" height="5.9px" width="7.4px" xmlns="http://www.w3.org/2000/svg">
  <g transform="matrix(1.0, 0.0, 0.0, 1.0, 0.0, 0.0)">
    <path d="M5.5 -0.15 L7.8 -0.5 Q8.65 2.25 8.35 3.5 8.0 4.75 6.1 4.55 4.1 5.45 3.1 5.4 1.35 5.25 1.05 4.55 L1.75 3.65 3.7 2.45 4.35 1.9 4.4 1.8 4.75 1.15 Q4.9 0.65 5.5 -0.15" fill="#ccffff" fill-rule="evenodd" stroke="none"/>
    <path d="M5.5 -0.15 Q4.9 0.65 4.75 1.15 L4.4 1.8 4.35 1.9 3.7 2.45 1.75 3.65 1.05 4.55 Q1.35 5.25 3.1 5.4 4.1 5.45 6.1 4.55 8.0 4.75 8.35 3.5 8.65 2.25 7.8 -0.5 L5.5 -0.15 Z" fill="none" stroke="#000000" stroke-linecap="round" stroke-linejoin="round" stroke-width="0.05"/>
  </g>
</svg>
