<?xml version="1.0" encoding="UTF-8" standalone="no"?>
<svg xmlns:xlink="http://www.w3.org/1999/xlink" height="6.2px" width="7.35px" xmlns="http://www.w3.org/2000/svg">
  <g transform="matrix(1.0, 0.0, 0.0, 1.0, 0.0, 0.0)">
    <path d="M4.35 1.9 L4.4 1.8 4.75 1.15 Q4.9 0.65 5.5 -0.15 L7.8 -0.5 Q8.95 2.1 7.95 4.5 5.4 5.7 2.85 5.7 1.6 5.7 1.05 4.55 L1.75 3.65 3.45 2.6 3.7 2.45 4.35 1.9 Q4.85 1.8 5.2 2.15 4.85 1.8 4.35 1.9 M4.75 3.45 L4.55 3.25 3.45 2.6 4.55 3.25 4.75 3.45" fill="#ccffff" fill-rule="evenodd" stroke="none"/>
    <path d="M3.45 2.6 L1.75 3.65 1.05 4.55 Q1.6 5.7 2.85 5.7 5.4 5.7 7.95 4.5 8.95 2.1 7.8 -0.5 L5.5 -0.15 Q4.9 0.65 4.75 1.15 L4.4 1.8 4.35 1.9 Q4.85 1.8 5.2 2.15 M4.35 1.9 L3.7 2.45 3.45 2.6 4.55 3.25 4.75 3.45" fill="none" stroke="#000000" stroke-linecap="round" stroke-linejoin="round" stroke-width="0.05"/>
  </g>
</svg>
