<?xml version="1.0" encoding="UTF-8" standalone="no"?>
<svg xmlns:xlink="http://www.w3.org/1999/xlink" height="14.0px" width="4.6px" xmlns="http://www.w3.org/2000/svg">
  <g transform="matrix(1.0, 0.0, 0.0, 1.0, 0.0, 0.0)">
    <path d="M0.9 9.1 L0.65 7.25 0.2 3.5 0.15 0.05 1.95 0.25 Q2.55 0.5 3.05 0.9 L3.15 0.95 4.25 2.1 Q4.7 2.8 4.75 4.15 L4.3 7.65 Q3.85 9.4 3.75 12.3 L3.35 12.1 3.15 11.95 3.0 11.7 2.8 11.4 2.75 11.15 2.6 10.7 2.5 10.5 1.9 9.65 1.7 9.45 1.5 9.35 0.9 9.1" fill="#ffcc99" fill-rule="evenodd" stroke="none"/>
    <path d="M3.75 12.3 L3.7 13.6 2.75 14.05 1.3 13.7 1.05 10.25 0.95 9.65 0.9 9.1 1.5 9.35 1.7 9.45 1.9 9.65 2.5 10.5 2.6 10.7 2.75 11.15 2.8 11.4 3.0 11.7 3.15 11.95 3.35 12.1 3.75 12.3 M0.95 9.65 Q2.15 10.0 2.25 11.0 L2.3 11.45 Q2.3 12.0 2.75 12.25 L3.35 12.1 2.75 12.25 Q2.3 12.0 2.3 11.45 L2.25 11.0 Q2.15 10.0 0.95 9.65" fill="#ccffff" fill-rule="evenodd" stroke="none"/>
    <path d="M0.9 9.1 L0.65 7.25 0.2 3.5 0.15 0.05 M3.05 0.9 L3.15 0.95 4.25 2.1 Q4.7 2.8 4.75 4.15 L4.3 7.65 Q3.85 9.4 3.75 12.3 L3.7 13.6 M1.3 13.7 L1.05 10.25 0.95 9.65 0.9 9.1 1.5 9.35 1.7 9.45 1.9 9.65 2.5 10.5 2.6 10.7 2.75 11.15 2.8 11.4 3.0 11.7 3.15 11.95 3.35 12.1 3.75 12.3 M3.35 12.1 L2.75 12.25 Q2.3 12.0 2.3 11.45 L2.25 11.0 Q2.15 10.0 0.95 9.65" fill="none" stroke="#000000" stroke-linecap="round" stroke-linejoin="round" stroke-width="0.05"/>
  </g>
</svg>
