<?xml version="1.0" encoding="UTF-8" standalone="no"?>
<svg xmlns:xlink="http://www.w3.org/1999/xlink" height="14.75px" width="4.6px" xmlns="http://www.w3.org/2000/svg">
  <g transform="matrix(1.0, 0.0, 0.0, 1.0, 0.0, 0.0)">
    <path d="M1.0 10.0 L0.9 9.2 0.65 7.25 0.4 5.4 0.1 3.5 0.0 1.3 Q0.0 0.65 0.15 0.05 L0.5 0.0 1.95 0.25 3.0 0.65 3.25 0.8 4.25 2.05 4.6 3.6 4.5 5.55 4.3 7.35 4.15 9.05 4.15 10.6 4.25 11.85 3.85 11.9 3.8 11.9 2.85 11.65 2.75 11.55 2.05 9.95 2.0 9.95 1.0 10.0 M2.05 9.95 L2.0 9.9 2.0 9.95 2.0 9.9 2.05 9.95" fill="#5d5542" fill-rule="evenodd" stroke="none"/>
    <path d="M1.0 10.0 L2.0 9.95 2.05 9.95 2.75 11.55 2.85 11.65 3.8 11.9 3.85 11.9 4.25 11.85 4.45 12.2 4.3 12.5 4.35 13.7 4.2 14.05 Q4.05 13.9 4.0 14.25 3.9 14.55 2.75 14.7 L2.05 14.75 1.25 14.55 1.0 14.4 1.0 14.35 1.0 14.3 0.9 13.6 0.55 11.3 Q0.2 9.4 1.0 10.0 M0.7 10.55 L1.55 10.55 2.3 12.45 4.3 12.5 2.3 12.45 1.55 10.55 0.7 10.55" fill="#8a7a62" fill-rule="evenodd" stroke="none"/>
    <path d="M0.5 0.0 L0.15 0.05 Q0.0 0.65 0.0 1.3 L0.1 3.5 0.4 5.4 0.65 7.25 0.9 9.2 1.0 10.0 2.0 9.95 2.0 9.9 2.05 9.95 2.75 11.55 2.85 11.65 3.8 11.9 3.85 11.9 4.25 11.85 4.15 10.6 4.15 9.05 4.3 7.35 4.5 5.55 4.6 3.6 4.25 2.05 3.25 0.8 3.0 0.65 M1.0 10.0 Q0.2 9.4 0.55 11.3 M1.0 14.3 L1.0 14.35 1.0 14.4 M4.3 12.5 L2.3 12.45 1.55 10.55 0.7 10.55 M4.45 12.2 L4.25 11.85" fill="none" stroke="#000000" stroke-linecap="round" stroke-linejoin="round" stroke-width="0.05"/>
    <path d="M0.55 11.3 L0.9 13.6 1.0 14.3 M4.2 14.05 L4.35 13.7 4.3 12.5 4.45 12.2" fill="none" stroke="#000000" stroke-linecap="round" stroke-linejoin="round" stroke-width="0.05"/>
  </g>
</svg>
