<?xml version="1.0" encoding="UTF-8" standalone="no"?>
<svg xmlns:xlink="http://www.w3.org/1999/xlink" height="20.5px" width="11.4px" xmlns="http://www.w3.org/2000/svg">
  <g transform="matrix(1.0, 0.0, 0.0, 1.0, 0.0, 0.0)">
    <path d="M0.6 1.4 L0.55 1.3 0.75 0.25 1.65 -0.4 3.5 -0.9 5.45 -1.25 7.25 -1.05 8.9 -0.5 9.8 0.35 10.05 1.15 10.25 1.8 10.3 2.2 10.25 2.45 10.2 3.2 10.2 3.95 10.2 4.75 10.15 5.55 10.05 5.9 9.8 6.55 9.6 7.2 9.35 7.85 9.15 8.5 9.0 9.25 8.95 9.75 8.9 10.05 8.85 10.8 8.85 11.1 8.8 11.9 8.75 12.35 8.75 13.1 8.85 13.85 8.85 13.95 9.75 15.5 10.2 16.65 10.35 17.5 10.4 18.15 9.5 18.45 8.6 18.85 7.4 19.2 5.85 19.25 4.5 19.2 3.85 18.95 3.35 18.6 2.85 18.0 2.4 17.4 2.1 16.95 1.9 16.85 1.7 16.7 1.65 16.45 1.75 16.0 Q1.75 15.7 1.9 15.35 L2.1 14.6 2.2 13.95 2.3 13.15 2.35 12.9 2.35 12.5 Q2.6 11.5 2.35 10.7 L1.85 9.0 1.5 7.85 Q1.15 8.55 -0.05 7.85 -1.3 7.1 -0.9 5.9 L-0.15 3.9 0.35 2.4 0.55 1.4 0.6 1.4 M3.6 7.15 Q4.85 8.15 5.8 8.1 6.75 8.05 7.55 7.45 8.3 6.85 8.3 6.1 L8.05 4.35 8.3 6.1 Q8.3 6.85 7.55 7.45 6.75 8.05 5.8 8.1 4.85 8.15 3.6 7.15" fill="#ffcc99" fill-rule="evenodd" stroke="none"/>
    <path d="M0.6 1.4 L0.55 1.4 0.55 1.35 0.6 1.4" fill="url(#gradient0)" fill-rule="evenodd" stroke="none"/>
    <path d="M3.35 18.6 L3.85 18.95 4.5 19.2 5.85 19.25 7.4 19.2 8.6 18.85 9.5 18.45 10.4 18.15 10.35 17.5 10.2 16.65 9.75 15.5 8.85 13.95 8.85 13.85 8.75 13.1 8.75 12.35 8.8 11.9 8.85 11.1 8.85 10.8 8.9 10.05 8.95 9.75 9.0 9.25 9.15 8.5 9.35 7.85 9.6 7.2 9.8 6.55 10.05 5.9 10.15 5.55 10.2 4.75 10.2 3.95 10.2 3.2 10.25 2.45 10.3 2.2 10.25 1.8 10.05 1.15 9.8 0.35 8.9 -0.5 7.25 -1.05 5.45 -1.25 3.5 -0.9 1.65 -0.4 0.75 0.25 0.55 1.3 0.6 1.4 M0.55 1.4 L0.35 2.4 -0.15 3.9 -0.9 5.9 Q-1.3 7.1 -0.05 7.85 1.15 8.55 1.5 7.85 L1.85 9.0 2.35 10.7 Q2.6 11.5 2.35 12.5 L2.35 12.9 2.3 13.15 2.2 13.95 2.1 14.6 1.9 15.35 Q1.75 15.7 1.75 16.0 L1.65 16.45 1.7 16.7 M8.05 4.35 L8.3 6.1 Q8.3 6.85 7.55 7.45 6.75 8.05 5.8 8.1 4.85 8.15 3.6 7.15 M0.55 1.35 L0.55 1.3 M0.55 1.4 L0.55 1.35" fill="none" stroke="#000000" stroke-linecap="round" stroke-linejoin="round" stroke-width="0.05"/>
  </g>
  <defs>
    <radialGradient cx="0" cy="0" gradientTransform="matrix(0.009, 0.0, 0.0, 0.0123, 3.0, 7.2)" gradientUnits="userSpaceOnUse" id="gradient0" r="819.2" spreadMethod="pad">
      <stop offset="0.0" stop-color="#ececec"/>
      <stop offset="1.0" stop-color="#a0a0a0"/>
    </radialGradient>
  </defs>
</svg>
