<?xml version="1.0" encoding="UTF-8" standalone="no"?>
<svg xmlns:xlink="http://www.w3.org/1999/xlink" height="10.45px" width="10.25px" xmlns="http://www.w3.org/2000/svg">
  <g transform="matrix(1.0, 0.0, 0.0, 1.0, 0.0, 0.0)">
    <path d="M10.0 2.8 L8.55 3.0 Q6.15 3.15 4.2 2.05 6.15 3.15 8.55 3.0 L10.0 2.8 9.95 4.45 9.95 4.8 9.95 5.85 9.15 5.85 9.95 5.85 9.7 8.4 9.25 10.15 Q5.8 8.5 2.4 6.45 0.75 5.45 -0.2 3.7 L-0.2 2.7 0.0 0.65 0.2 -0.3 Q3.45 1.55 7.25 1.2 L8.9 0.65 Q9.6 1.35 10.0 2.75 L10.0 2.8 M1.55 1.2 L0.45 0.95 0.0 0.65 0.45 0.95 1.55 1.2 M6.65 4.2 L9.95 4.45 6.65 4.2 M9.3 7.3 Q7.85 7.0 7.1 6.25 7.85 7.0 9.3 7.3 M3.45 5.6 Q5.45 7.05 7.75 7.95 L9.7 8.4 7.75 7.95 Q5.45 7.05 3.45 5.6 M0.9 3.25 L-0.2 2.7 0.9 3.25" fill="#ccffff" fill-opacity="0.6627451" fill-rule="evenodd" stroke="none"/>
    <path d="M4.2 2.05 Q6.15 3.15 8.55 3.0 L10.0 2.8 10.0 2.75 Q9.6 1.35 8.9 0.65 L7.25 1.2 Q3.45 1.55 0.2 -0.3 L0.0 0.65 0.45 0.95 1.55 1.2 M9.95 5.85 L9.95 4.8 9.95 4.45 6.65 4.2 M9.95 5.85 L9.15 5.85 M9.95 4.45 L10.0 2.8 M-0.2 2.7 L-0.2 3.7 Q0.75 5.45 2.4 6.45 5.8 8.5 9.25 10.15 L9.7 8.4 7.75 7.95 Q5.45 7.05 3.45 5.6 M7.1 6.25 Q7.85 7.0 9.3 7.3 M9.7 8.4 L9.95 5.85 M0.0 0.65 L-0.2 2.7 0.9 3.25" fill="none" stroke="#0099cc" stroke-linecap="round" stroke-linejoin="round" stroke-width="0.05"/>
  </g>
</svg>
