<?xml version="1.0" encoding="UTF-8" standalone="no"?>
<svg xmlns:xlink="http://www.w3.org/1999/xlink" height="66.8px" width="4.8px" xmlns="http://www.w3.org/2000/svg">
  <g transform="matrix(1.0, 0.0, 0.0, 1.0, 0.0, 0.0)">
    <path d="M0.65 -15.75 L0.05 46.35 -0.95 46.35 -1.35 -15.75 -0.2 -15.75 0.65 -15.75" fill="#ffffff" fill-rule="evenodd" stroke="none"/>
    <path d="M1.55 -17.9 L0.05 -16.15 -0.2 -15.75 -0.6 -16.05 -0.85 -16.3 -1.8 -17.65 -2.3 -18.95 -2.35 -19.85 -2.2 -20.2 -1.05 -20.3 -0.3 -19.6 -0.3 -19.25 -0.1 -19.55 Q0.35 -20.3 1.25 -20.45 L1.8 -20.4 2.2 -20.1 2.4 -19.35 Q2.2 -18.5 1.55 -17.9" fill="#cd0101" fill-opacity="0.78039217" fill-rule="evenodd" stroke="none"/>
    <path d="M1.55 -17.9 Q2.2 -18.5 2.4 -19.35 L2.2 -20.1 1.8 -20.4 1.25 -20.45 Q0.35 -20.3 -0.1 -19.55 L-0.3 -19.25 -0.3 -19.6 -1.05 -20.3 -2.2 -20.2 -2.35 -19.85 -2.3 -18.95 -1.8 -17.65 -0.85 -16.3 -0.6 -16.05 -0.2 -15.75 0.05 -16.15 1.55 -17.9 M0.65 -15.75 L-0.2 -15.75 -1.35 -15.75 -0.95 46.35 0.05 46.35 0.65 -15.75 Z" fill="none" stroke="#000000" stroke-linecap="round" stroke-linejoin="round" stroke-width="0.05"/>
  </g>
</svg>
