<?xml version="1.0" encoding="UTF-8" standalone="no"?>
<svg xmlns:xlink="http://www.w3.org/1999/xlink" height="70.75px" width="9.95px" xmlns="http://www.w3.org/2000/svg">
  <g transform="matrix(1.0, 0.0, 0.0, 1.0, 0.0, 0.0)">
    <path d="M-0.85 -17.3 L0.5 -17.3 0.5 46.55 Q-0.15 47.45 -0.85 46.55 L-0.85 -17.3" fill="url(#gradient0)" fill-rule="evenodd" stroke="none"/>
    <path d="M-0.85 -17.3 L0.5 -17.3 0.5 46.55 Q-0.15 47.45 -0.85 46.55 L-0.85 -17.3 Z" fill="none" stroke="#000000" stroke-linecap="round" stroke-linejoin="round" stroke-width="0.05"/>
    <path d="M-0.55 -22.0 L0.05 -23.75 0.5 -21.95 -0.15 -22.05 -0.55 -22.0 M2.0 -21.25 L3.05 -21.45 2.75 -20.4 2.2 -21.05 2.0 -21.25 M3.2 -19.05 L4.9 -18.2 3.1 -17.9 3.2 -18.75 3.2 -19.05 M2.65 -16.9 L2.95 -15.5 1.65 -16.0 2.2 -16.4 2.65 -16.9 M0.55 -15.5 L-0.15 -13.75 -0.6 -15.5 -0.15 -15.45 0.55 -15.5 M-1.95 -16.0 L-3.0 -15.6 -2.7 -16.7 -2.45 -16.4 -1.95 -16.0 M-3.4 -18.35 L-5.05 -19.05 -3.35 -19.4 -3.4 -18.75 -3.4 -18.35 M-2.65 -20.85 L-2.75 -21.9 -1.6 -21.7 -2.45 -21.05 -2.65 -20.85" fill="#9b867b" fill-rule="evenodd" stroke="none"/>
    <path d="M0.5 -21.95 Q1.35 -21.85 2.0 -21.25 L2.2 -21.05 2.75 -20.4 3.2 -19.05 3.2 -18.75 3.1 -17.9 2.7 -17.05 2.65 -16.9 2.2 -16.4 1.65 -16.0 Q1.15 -15.65 0.55 -15.5 L-0.15 -15.45 -0.6 -15.5 Q-1.35 -15.6 -1.95 -16.0 L-2.45 -16.4 -2.7 -16.7 Q-3.3 -17.45 -3.4 -18.35 L-3.4 -18.75 -3.35 -19.4 -2.75 -20.75 -2.65 -20.85 -2.45 -21.05 -1.6 -21.7 -0.55 -22.0 -0.15 -22.05 0.5 -21.95 M0.55 -18.85 L0.3 -19.35 -0.15 -19.55 Q-0.45 -19.55 -0.6 -19.35 L-0.8 -18.9 -0.6 -18.4 Q-0.45 -18.25 -0.15 -18.2 L0.3 -18.4 0.55 -18.85" fill="url(#gradient1)" fill-rule="evenodd" stroke="none"/>
    <path d="M0.55 -18.85 L0.3 -18.4 -0.15 -18.2 Q-0.45 -18.25 -0.6 -18.4 L-0.8 -18.9 -0.6 -19.35 Q-0.45 -19.55 -0.15 -19.55 L0.3 -19.35 0.55 -18.85" fill="url(#gradient2)" fill-rule="evenodd" stroke="none"/>
    <path d="M-0.55 -22.0 L0.05 -23.75 0.5 -21.95 Q1.35 -21.85 2.0 -21.25 L3.05 -21.45 2.75 -20.4 3.2 -19.05 4.9 -18.2 3.1 -17.9 2.7 -17.05 2.65 -16.9 2.95 -15.5 1.65 -16.0 Q1.15 -15.65 0.55 -15.5 L-0.15 -13.75 -0.6 -15.5 Q-1.35 -15.6 -1.95 -16.0 L-3.0 -15.6 -2.7 -16.7 Q-3.3 -17.45 -3.4 -18.35 L-5.05 -19.05 -3.35 -19.4 -2.75 -20.75 -2.65 -20.85 -2.75 -21.9 -1.6 -21.7 -0.55 -22.0 -0.15 -22.05 0.5 -21.95 M0.55 -18.85 L0.3 -18.4 -0.15 -18.2 Q-0.45 -18.25 -0.6 -18.4 L-0.8 -18.9 -0.6 -19.35 Q-0.45 -19.55 -0.15 -19.55 L0.3 -19.35 0.55 -18.85 M2.0 -21.25 L2.2 -21.05 2.75 -20.4 M3.2 -19.05 L3.2 -18.75 3.1 -17.9 M2.65 -16.9 L2.2 -16.4 1.65 -16.0 M-3.4 -18.35 L-3.4 -18.75 -3.35 -19.4 M-2.65 -20.85 L-2.45 -21.05 -1.6 -21.7 M-1.95 -16.0 L-2.45 -16.4 -2.7 -16.7 M0.55 -15.5 L-0.15 -15.45 -0.6 -15.5" fill="none" stroke="#000000" stroke-linecap="round" stroke-linejoin="round" stroke-width="0.05"/>
  </g>
  <defs>
    <linearGradient gradientTransform="matrix(8.0E-4, 0.0, 0.0, 0.0392, -0.2, 14.85)" gradientUnits="userSpaceOnUse" id="gradient0" spreadMethod="pad" x1="-819.2" x2="819.2">
      <stop offset="0.0" stop-color="#413732"/>
      <stop offset="0.5372549019607843" stop-color="#9b867b"/>
      <stop offset="1.0" stop-color="#413732"/>
    </linearGradient>
    <radialGradient cx="0" cy="0" gradientTransform="matrix(0.0043, 0.0, 0.0, 0.0043, -0.7, -19.3)" gradientUnits="userSpaceOnUse" id="gradient1" r="819.2" spreadMethod="pad">
      <stop offset="0.0" stop-color="#b3b3b3"/>
      <stop offset="0.43529411764705883" stop-color="#9b867b"/>
      <stop offset="1.0" stop-color="#413732"/>
    </radialGradient>
    <radialGradient cx="0" cy="0" gradientTransform="matrix(0.0011, 0.0, 0.0, 0.0011, -0.15, -18.9)" gradientUnits="userSpaceOnUse" id="gradient2" r="819.2" spreadMethod="pad">
      <stop offset="0.0" stop-color="#b3b3b3"/>
      <stop offset="0.43529411764705883" stop-color="#9b867b"/>
      <stop offset="1.0" stop-color="#413732"/>
    </radialGradient>
  </defs>
</svg>
