<?xml version="1.0" encoding="UTF-8" standalone="no"?>
<svg xmlns:xlink="http://www.w3.org/1999/xlink" height="67.2px" width="7.75px" xmlns="http://www.w3.org/2000/svg">
  <g transform="matrix(1.0, 0.0, 0.0, 1.0, 0.0, 0.0)">
    <path d="M-2.4 -14.6 L-2.2 -14.35 -1.75 -13.55 -1.0 -12.4 Q-0.25 -11.45 0.65 -11.95 2.65 -14.3 1.8 -17.55 L1.25 -18.8 Q0.25 -20.25 -1.25 -19.2 L-1.5 -19.35 Q-1.25 -21.0 0.55 -20.9 L1.4 -20.65 Q3.6 -19.0 3.85 -16.2 L4.15 -14.6 Q4.6 -12.9 4.05 -11.45 L4.0 -11.3 2.4 -8.5 1.65 -8.1 1.85 -6.25 1.05 -5.05 0.9 -4.9 0.85 -4.95 -2.05 -8.95 -2.0 -10.55 Q-3.25 -11.75 -2.9 -13.6 L-2.6 -14.65 -2.4 -14.6 M1.85 -10.75 Q2.35 -10.75 2.7 -11.35 L3.0 -12.85 2.7 -11.35 Q2.35 -10.75 1.85 -10.75 M-0.6 -9.8 L0.3 -9.45 Q2.7 -9.1 4.0 -11.3 2.7 -9.1 0.3 -9.45 L-0.6 -9.8 M0.15 -4.2 L0.45 -1.95 0.5 -0.6 0.4 5.4 0.25 10.15 Q0.0 12.0 0.2 14.15 0.4 16.25 0.2 20.25 0.05 24.25 0.3 31.0 0.5 37.7 0.0 46.3 -0.6 45.5 -0.65 44.6 L-0.85 42.15 -1.0 39.7 Q-1.15 37.5 -0.95 35.4 -0.6 32.2 -1.0 29.1 -1.45 25.4 -1.2 21.8 -0.95 18.65 -1.3 15.4 -1.65 11.95 -1.25 8.45 -0.8 4.75 -0.75 1.1 -0.7 -0.2 -1.15 -1.6 -1.9 -3.95 -2.1 -6.45 L-2.1 -6.7 0.15 -4.2" fill="#3a2e1f" fill-rule="evenodd" stroke="none"/>
    <path d="M-2.05 -8.95 L0.85 -4.95 0.9 -4.9 1.05 -5.05 3.45 -4.5 3.65 -4.3 3.6 -4.05 3.45 -3.85 Q2.25 -3.5 1.3 -4.35 L0.9 -4.75 2.9 -1.85 2.9 -1.6 2.7 -1.35 2.35 -1.35 2.1 -1.55 Q1.05 -2.65 0.55 -4.0 L0.85 -4.95 0.55 -4.0 0.15 -4.2 -2.1 -6.7 -2.05 -8.95" fill="#375511" fill-rule="evenodd" stroke="none"/>
    <path d="M-2.4 -14.6 L-2.6 -14.65 -3.0 -15.15 -2.05 -15.35 -1.6 -15.7 Q-0.45 -16.7 -0.7 -18.3 -0.45 -16.7 -1.6 -15.7 L-2.05 -15.35 -3.0 -15.15 -3.4 -15.65 -2.7 -17.85 Q-2.45 -18.7 -1.55 -18.85 L-1.25 -19.2 -0.7 -18.55 -0.7 -18.3 -0.55 -18.3 Q0.1 -17.1 -0.35 -15.85 -0.65 -15.0 -1.5 -14.6 L-2.4 -14.6" fill="#375511" fill-opacity="0.6" fill-rule="evenodd" stroke="none"/>
    <path d="M4.0 -11.3 L4.05 -11.45 Q4.6 -12.9 4.15 -14.6 L3.85 -16.2 Q3.6 -19.0 1.4 -20.65 L0.55 -20.9 Q-1.25 -21.0 -1.5 -19.35 L-1.25 -19.2 Q0.25 -20.25 1.25 -18.8 L1.8 -17.55 Q2.65 -14.3 0.65 -11.95 -0.25 -11.45 -1.0 -12.4 L-1.75 -13.55 -2.2 -14.35 -2.4 -14.6 M-2.6 -14.65 L-2.9 -13.6 Q-3.25 -11.75 -2.0 -10.55 L-2.05 -8.95 0.85 -4.95 0.9 -4.9 1.05 -5.05 1.85 -6.25 1.65 -8.1 2.4 -8.5 4.0 -11.3 Q2.7 -9.1 0.3 -9.45 L-0.6 -9.8 M3.0 -12.85 L2.7 -11.35 Q2.35 -10.75 1.85 -10.75 M4.0 -11.3 L4.05 -11.45 M0.55 -4.0 Q1.05 -2.65 2.1 -1.55 L2.35 -1.35 2.7 -1.35 2.9 -1.6 2.9 -1.85 0.9 -4.75 1.3 -4.35 Q2.25 -3.5 3.45 -3.85 L3.6 -4.05 3.65 -4.3 3.45 -4.5 1.05 -5.05 M0.55 -4.0 L0.85 -4.95 M0.15 -4.2 L0.55 -4.0 M-2.1 -6.7 L-2.1 -6.45 Q-1.9 -3.95 -1.15 -1.6 -0.7 -0.2 -0.75 1.1 -0.8 4.75 -1.25 8.45 -1.65 11.95 -1.3 15.4 -0.95 18.65 -1.2 21.8 -1.45 25.4 -1.0 29.1 -0.6 32.2 -0.95 35.4 -1.15 37.5 -1.0 39.7 L-0.85 42.15 -0.65 44.6 Q-0.6 45.5 0.0 46.3 0.5 37.7 0.3 31.0 0.05 24.25 0.2 20.25 0.4 16.25 0.2 14.15 0.0 12.0 0.25 10.15 L0.4 5.4 0.5 -0.6 0.45 -1.95 0.15 -4.2 -2.1 -6.7 -2.05 -8.95 M-1.5 -19.35 L-1.55 -18.85 M-0.7 -18.55 L-0.55 -18.3" fill="none" stroke="#000000" stroke-linecap="round" stroke-linejoin="round" stroke-width="0.05"/>
    <path d="M-2.4 -14.6 L-2.6 -14.65 -3.0 -15.15 -2.05 -15.35 -1.6 -15.7 Q-0.45 -16.7 -0.7 -18.3 L-0.55 -18.3 Q0.1 -17.1 -0.35 -15.85 -0.65 -15.0 -1.5 -14.6 L-2.4 -14.6 M-1.55 -18.85 L-1.25 -19.2 -0.7 -18.55 -0.7 -18.3 M-1.55 -18.85 Q-2.45 -18.7 -2.7 -17.85 L-3.4 -15.65 -3.0 -15.15" fill="none" stroke="#00ff00" stroke-linecap="round" stroke-linejoin="round" stroke-width="0.05"/>
  </g>
</svg>
