<?xml version="1.0" encoding="UTF-8" standalone="no"?>
<svg xmlns:xlink="http://www.w3.org/1999/xlink" height="7.1px" width="14.7px" xmlns="http://www.w3.org/2000/svg">
  <g transform="matrix(1.0, 0.0, 0.0, 1.0, 0.0, 0.0)">
    <path d="M12.55 0.05 L12.7 0.0 Q14.5 0.0 14.85 0.85 15.8 2.2 14.85 3.4 L12.75 3.6 12.8 2.9 Q12.9 1.5 12.55 0.05" fill="#ffcc99" fill-rule="evenodd" stroke="none"/>
    <path d="M10.4 5.3 L7.5 4.65 5.1 4.15 2.55 3.65 0.6 3.5 Q0.6 1.85 0.75 0.8 L0.9 0.7 Q3.45 0.6 5.7 -0.3 7.8 -1.15 10.1 -1.5 L10.2 -1.5 10.55 -0.7 11.65 -0.7 11.75 0.45 11.6 1.4 10.7 1.65 10.8 2.55 11.7 2.65 11.7 3.65 11.5 4.65 10.5 4.65 10.4 5.3" fill="url(#gradient0)" fill-rule="evenodd" stroke="none"/>
    <path d="M10.2 -1.5 L11.95 -1.65 12.55 0.05 Q12.9 1.5 12.8 2.9 L12.75 3.6 12.35 5.05 12.2 5.45 10.4 5.3 10.5 4.65 11.5 4.65 11.7 3.65 11.7 2.65 10.8 2.55 10.7 1.65 11.6 1.4 11.75 0.45 11.65 -0.7 10.55 -0.7 10.2 -1.5" fill="#517f20" fill-rule="evenodd" stroke="none"/>
    <path d="M10.2 -1.5 L11.95 -1.65 12.55 0.05 12.7 0.0 Q14.5 0.0 14.85 0.85 15.8 2.2 14.85 3.4 L12.75 3.6 12.35 5.05 12.2 5.45 10.4 5.3 7.5 4.65 5.1 4.15 2.55 3.65 0.6 3.5 M0.9 0.7 Q3.45 0.6 5.7 -0.3 7.8 -1.15 10.1 -1.5 L10.2 -1.5 10.55 -0.7 11.65 -0.7 11.75 0.45 11.6 1.4 10.7 1.65 10.8 2.55 11.7 2.65 11.7 3.65 11.5 4.65 10.5 4.65 10.4 5.3 M12.55 0.05 Q12.9 1.5 12.8 2.9 L12.75 3.6" fill="none" stroke="#000000" stroke-linecap="round" stroke-linejoin="round" stroke-width="0.05"/>
  </g>
  <defs>
    <linearGradient gradientTransform="matrix(0.0068, 0.0, 0.0, 0.0042, 6.15, 1.9)" gradientUnits="userSpaceOnUse" id="gradient0" spreadMethod="pad" x1="-819.2" x2="819.2">
      <stop offset="0.0" stop-color="#a17821"/>
      <stop offset="1.0" stop-color="#95952f"/>
    </linearGradient>
  </defs>
</svg>
