<?xml version="1.0" encoding="UTF-8" standalone="no"?>
<svg xmlns:xlink="http://www.w3.org/1999/xlink" height="7.2px" width="14.7px" xmlns="http://www.w3.org/2000/svg">
  <g transform="matrix(1.0, 0.0, 0.0, 1.0, 0.0, 0.0)">
    <path d="M12.55 0.05 L12.7 0.0 Q14.5 0.0 14.85 0.85 15.8 2.2 14.85 3.4 L12.75 3.6 12.75 3.3 12.8 3.05 12.8 1.1 12.75 0.65 12.55 0.05" fill="#ffcc99" fill-rule="evenodd" stroke="none"/>
    <path d="M0.6 0.8 L0.9 0.7 3.25 0.5 4.15 0.15 5.05 -0.15 6.0 -0.55 6.25 -0.6 7.2 -0.9 7.45 -1.0 9.25 -1.5 9.45 -1.5 11.4 -1.7 11.6 -1.75 Q12.0 -1.8 12.1 -1.35 L12.15 -1.15 12.55 0.05 12.7 0.0 Q14.5 0.0 14.85 0.85 15.8 2.2 14.85 3.4 L12.75 3.6 12.65 4.35 12.5 4.85 12.45 5.05 12.35 5.3 12.2 5.45 12.0 5.45 11.15 5.4 10.9 5.35 10.3 5.25 10.05 5.2 9.75 5.15 9.0 5.0 8.1 4.75 7.85 4.65 6.9 4.5 6.35 4.4 5.4 4.25 4.4 4.0 4.2 3.95 3.6 3.75 3.35 3.7 2.95 3.7 2.25 3.7 Q1.1 3.6 0.6 2.95 M12.55 0.05 L12.75 0.65 12.8 1.1 12.8 3.05 12.75 3.3 12.75 3.6" fill="none" stroke="#000000" stroke-linecap="round" stroke-linejoin="round" stroke-width="0.05"/>
  </g>
</svg>
