<?xml version="1.0" encoding="UTF-8" standalone="no"?>
<svg xmlns:xlink="http://www.w3.org/1999/xlink" height="15.4px" width="6.2px" xmlns="http://www.w3.org/2000/svg">
  <g transform="matrix(1.0, 0.0, 0.0, 1.0, 0.0, 0.0)">
    <path d="M5.95 2.45 L6.15 3.8 6.1 5.75 5.7 9.75 5.05 13.4 Q4.7 14.3 5.0 14.95 L4.1 15.45 2.6 15.35 1.6 15.3 0.95 15.2 0.95 14.6 0.7 12.5 0.2 8.75 -0.05 5.25 Q-0.1 3.65 0.2 2.85 L0.8 1.5 1.55 0.6 Q2.25 0.15 3.0 0.05 4.2 0.2 4.5 0.55 L5.3 1.35 Q5.8 1.8 5.95 2.45" fill="#6b4d21" fill-rule="evenodd" stroke="none"/>
    <path d="M5.95 2.45 L6.15 3.8 6.1 5.75 5.7 9.75 5.05 13.4 Q4.7 14.3 5.0 14.95 L4.1 15.45 M0.95 15.2 L0.95 14.6 0.7 12.5 0.2 8.75 -0.05 5.25 Q-0.1 3.65 0.2 2.85" fill="none" stroke="#000000" stroke-linecap="round" stroke-linejoin="round" stroke-width="0.05"/>
  </g>
</svg>
