<?xml version="1.0" encoding="UTF-8" standalone="no"?>
<svg xmlns:xlink="http://www.w3.org/1999/xlink" height="6.2px" width="7.35px" xmlns="http://www.w3.org/2000/svg">
  <g transform="matrix(1.0, 0.0, 0.0, 1.0, 0.0, 0.0)">
    <path d="M4.55 1.65 L4.75 1.15 Q4.9 0.65 5.5 -0.15 L7.8 -0.5 Q8.95 2.1 7.95 4.5 5.4 5.7 2.85 5.7 1.6 5.7 1.05 4.55 L1.75 3.65 3.15 2.8 3.7 2.45 4.4 1.8 4.55 1.65 5.0 1.7 5.35 1.1 5.0 1.7 4.55 1.65 M3.25 3.45 L3.8 3.0 4.55 3.35 4.8 4.05 4.55 3.35 3.8 3.0 3.25 3.45 M6.1 2.7 L5.0 1.7 4.2 2.7 3.8 3.0 3.15 2.8 3.8 3.0 4.2 2.7 5.0 1.7 6.1 2.7" fill="#715e31" fill-rule="evenodd" stroke="none"/>
    <path d="M3.15 2.8 L1.75 3.65 1.05 4.55 Q1.6 5.7 2.85 5.7 5.4 5.7 7.95 4.5 8.95 2.1 7.8 -0.5 L5.5 -0.15 Q4.9 0.65 4.75 1.15 L4.55 1.65 5.0 1.7 5.35 1.1 M4.55 1.65 L4.4 1.8 3.7 2.45 3.15 2.8 3.8 3.0 4.2 2.7 5.0 1.7 6.1 2.7 M4.8 4.05 L4.55 3.35 3.8 3.0 3.25 3.45" fill="none" stroke="#000000" stroke-linecap="round" stroke-linejoin="round" stroke-width="0.05"/>
  </g>
</svg>
