<?xml version="1.0" encoding="UTF-8" standalone="no"?>
<svg xmlns:xlink="http://www.w3.org/1999/xlink" height="14.0px" width="4.65px" xmlns="http://www.w3.org/2000/svg">
  <g transform="matrix(1.0, 0.0, 0.0, 1.0, 0.0, 0.0)">
    <path d="M3.65 0.3 Q4.15 0.45 4.2 0.95 L4.45 2.15 4.8 4.15 4.6 7.7 Q4.3 9.9 4.75 14.0 L2.75 14.05 1.3 13.7 1.05 10.25 0.65 7.25 0.2 3.5 0.15 0.05 2.1 0.15 3.65 0.3" fill="#c47222" fill-rule="evenodd" stroke="none"/>
    <path d="M3.65 0.3 Q4.15 0.45 4.2 0.95 L4.45 2.15 4.8 4.15 4.6 7.7 Q4.3 9.9 4.75 14.0 M1.3 13.7 L1.05 10.25 0.65 7.25 0.2 3.5 0.15 0.05" fill="none" stroke="#000000" stroke-linecap="round" stroke-linejoin="round" stroke-width="0.05"/>
  </g>
</svg>
