<?xml version="1.0" encoding="UTF-8" standalone="no"?>
<svg xmlns:xlink="http://www.w3.org/1999/xlink" height="20.5px" width="12.05px" xmlns="http://www.w3.org/2000/svg">
  <g transform="matrix(1.0, 0.0, 0.0, 1.0, 0.0, 0.0)">
    <path d="M0.6 1.4 L0.55 1.3 0.75 0.25 1.2 -0.2 1.65 -0.4 1.9 -0.45 Q1.55 0.75 1.9 2.1 L2.6 2.85 2.9 2.9 3.15 2.95 2.85 4.05 4.05 3.9 4.2 2.9 5.25 2.65 6.0 2.2 6.9 1.1 7.2 0.45 7.4 -1.0 8.9 -0.5 9.8 0.35 10.05 1.15 10.25 1.8 10.3 2.2 10.25 2.45 10.2 3.2 10.2 3.95 10.2 4.75 10.15 5.55 10.05 5.9 9.8 6.55 9.6 7.2 9.35 7.85 9.15 8.5 9.0 9.25 8.95 9.75 8.9 10.05 8.85 10.8 8.85 11.1 8.65 12.55 Q6.0 13.75 4.4 15.45 L4.35 15.4 2.6 13.4 2.3 13.15 2.3 13.1 2.35 12.9 2.35 12.5 Q2.6 11.5 2.35 10.7 L1.85 9.0 1.65 8.45 Q1.15 8.55 0.05 7.6 -1.05 6.6 -0.75 5.6 L-0.15 3.85 0.35 2.4 0.55 1.4 0.6 1.4 M4.6 7.75 Q4.85 8.15 5.8 8.1 6.75 8.05 7.55 7.45 8.3 6.85 8.3 6.1 L8.2 5.1 8.3 6.1 Q8.3 6.85 7.55 7.45 6.75 8.05 5.8 8.1 4.85 8.15 4.6 7.75" fill="#db8b27" fill-rule="evenodd" stroke="none"/>
    <path d="M7.4 -1.0 L7.2 0.45 6.9 1.1 6.0 2.2 5.25 2.65 4.2 2.9 4.05 3.9 2.85 4.05 3.15 2.95 2.9 2.9 2.6 2.85 1.9 2.1 Q1.55 0.75 1.9 -0.45 L3.5 -0.9 5.45 -1.25 7.25 -1.05 7.35 -1.0 7.4 -1.0" fill="#ffcc99" fill-rule="evenodd" stroke="none"/>
    <path d="M0.6 1.4 L0.55 1.4 0.55 1.35 0.6 1.4" fill="url(#gradient0)" fill-rule="evenodd" stroke="none"/>
    <path d="M2.3 13.15 L2.6 13.4 4.35 15.4 4.4 15.45 Q6.0 13.75 8.65 12.55 L8.8 11.9 8.75 12.35 8.8 13.1 8.75 13.45 8.8 13.1 8.8 13.7 8.75 13.45 8.8 13.9 Q8.15 14.0 6.8 15.0 5.4 16.0 4.2 17.95 L4.1 17.5 Q3.45 15.6 2.2 14.15 L2.2 13.95 2.3 13.15" fill="url(#gradient1)" fill-rule="evenodd" stroke="none"/>
    <path d="M2.2 14.15 Q3.45 15.6 4.1 17.5 L4.2 17.95 Q5.4 16.0 6.8 15.0 8.15 14.0 8.8 13.9 L8.8 13.7 8.8 13.9 8.75 13.45 8.8 13.7 9.4 14.6 11.25 18.1 9.5 18.45 8.6 18.85 7.4 19.2 5.85 19.25 4.5 19.2 3.85 18.95 3.35 18.6 2.85 18.0 2.5 17.75 2.25 17.7 Q2.15 17.6 1.7 18.25 1.2 18.85 1.4 17.75 L1.55 16.45 1.6 16.0 1.75 15.4 1.95 14.75 2.2 14.15" fill="#c47222" fill-rule="evenodd" stroke="none"/>
    <path d="M1.9 -0.45 L1.65 -0.4 1.2 -0.2 0.75 0.25 0.55 1.3 0.6 1.4 M0.55 1.4 L0.35 2.4 -0.15 3.85 -0.75 5.6 Q-1.05 6.6 0.05 7.6 1.15 8.55 1.65 8.45 L1.85 9.0 2.35 10.7 Q2.6 11.5 2.35 12.5 L2.35 12.9 2.3 13.1 M8.65 12.55 L8.85 11.1 8.85 10.8 8.9 10.05 8.95 9.75 9.0 9.25 9.15 8.5 9.35 7.85 9.6 7.2 9.8 6.55 10.05 5.9 10.15 5.55 10.2 4.75 10.2 3.95 10.2 3.2 10.25 2.45 10.3 2.2 10.25 1.8 10.05 1.15 9.8 0.35 8.9 -0.5 7.4 -1.0 7.2 0.45 6.9 1.1 6.0 2.2 5.25 2.65 4.2 2.9 4.05 3.9 2.85 4.05 3.15 2.95 2.9 2.9 2.6 2.85 1.9 2.1 Q1.55 0.75 1.9 -0.45 L3.5 -0.9 5.45 -1.25 7.25 -1.05 7.35 -1.0 7.4 -1.1 7.4 -1.0 7.35 -1.0 M8.2 5.1 L8.3 6.1 Q8.3 6.85 7.55 7.45 6.75 8.05 5.8 8.1 4.85 8.15 4.6 7.75 M0.55 1.35 L0.55 1.3 M0.55 1.4 L0.55 1.35 M8.8 13.1 L8.75 12.35 8.8 11.9 8.65 12.55 M2.2 14.15 L1.95 14.75 1.75 15.4 1.6 16.0 1.55 16.45 1.4 17.75 M3.35 18.6 L3.85 18.95 4.5 19.2 5.85 19.25 7.4 19.2 8.6 18.85 9.5 18.45 11.25 18.1 9.4 14.6 8.8 13.7 8.8 13.9 8.75 13.45 8.8 13.1 8.8 13.7 8.75 13.45 M2.3 13.15 L2.2 13.95 2.2 14.15" fill="none" stroke="#000000" stroke-linecap="round" stroke-linejoin="round" stroke-width="0.05"/>
    <path d="M2.3 13.1 L2.3 13.15 2.6 13.4 4.35 15.4 4.4 15.45 Q6.0 13.75 8.65 12.55 M8.8 13.9 Q8.15 14.0 6.8 15.0 5.4 16.0 4.2 17.95 L4.1 17.5 Q3.45 15.6 2.2 14.15" fill="none" stroke="#f2d15b" stroke-linecap="round" stroke-linejoin="round" stroke-width="0.05"/>
    <path d="M2.5 5.85 L2.45 6.05 2.5 6.2 2.7 6.3 2.85 6.2 2.95 6.05 2.85 5.85 2.7 5.8 2.5 5.85 2.7 5.75 2.8 5.7 2.85 5.7 2.9 5.7 2.95 5.7 3.2 5.9 3.35 6.5 3.2 7.05 2.85 7.3 Q2.6 7.3 2.45 7.05 2.3 6.85 2.3 6.5 2.3 6.15 2.45 5.9 L2.5 5.85" fill="#00cc00" fill-rule="evenodd" stroke="none"/>
    <path d="M2.5 5.85 L2.7 5.8 2.85 5.85 2.95 6.05 2.85 6.2 2.7 6.3 2.5 6.2 2.45 6.05 2.5 5.85" fill="#93fe92" fill-rule="evenodd" stroke="none"/>
    <path d="M3.6 5.75 Q4.05 6.2 4.05 6.75 4.1 7.8 3.05 7.95 2.4 7.9 2.15 7.3 1.8 6.3 2.65 5.7 L2.8 5.7 2.7 5.75 2.5 5.85 2.45 5.9 Q2.3 6.15 2.3 6.5 2.3 6.85 2.45 7.05 2.6 7.3 2.85 7.3 L3.2 7.05 3.35 6.5 3.2 5.9 2.95 5.7 3.6 5.75 M2.7 5.75 L2.65 5.7 2.7 5.75" fill="#006600" fill-rule="evenodd" stroke="none"/>
    <path d="M7.65 -0.95 L7.5 0.9 7.2 1.9 6.2 3.4 4.95 4.9 3.6 5.75 Q4.05 6.2 4.05 6.75 4.1 7.8 3.05 7.95 2.4 7.9 2.15 7.3 1.8 6.3 2.65 5.7 1.75 5.35 1.4 4.3 1.15 3.45 1.2 2.55 L1.3 0.6 1.3 -0.4 M2.95 5.7 L2.9 5.7 M2.85 5.7 L2.8 5.7 2.65 5.7 2.7 5.75 M3.6 5.75 L2.95 5.7" fill="none" stroke="#f2d15b" stroke-linecap="round" stroke-linejoin="round" stroke-width="0.05"/>
  </g>
  <defs>
    <radialGradient cx="0" cy="0" gradientTransform="matrix(0.009, 0.0, 0.0, 0.0123, 3.0, 7.2)" gradientUnits="userSpaceOnUse" id="gradient0" r="819.2" spreadMethod="pad">
      <stop offset="0.0" stop-color="#ececec"/>
      <stop offset="1.0" stop-color="#a0a0a0"/>
    </radialGradient>
    <linearGradient gradientTransform="matrix(0.0041, 0.0, 0.0, 0.0041, 4.4, 15.5)" gradientUnits="userSpaceOnUse" id="gradient1" spreadMethod="pad" x1="-819.2" x2="819.2">
      <stop offset="0.0" stop-color="#e0bf38"/>
      <stop offset="0.5137254901960784" stop-color="#ffffff"/>
      <stop offset="1.0" stop-color="#e0bf38"/>
    </linearGradient>
  </defs>
</svg>
