<?xml version="1.0" encoding="UTF-8" standalone="no"?>
<svg xmlns:xlink="http://www.w3.org/1999/xlink" height="17.05px" width="12.15px" xmlns="http://www.w3.org/2000/svg">
  <g transform="matrix(1.0, 0.0, 0.0, 1.0, 0.0, 0.0)">
    <path d="M0.1 7.15 L0.35 6.8 0.35 6.9 Q1.1 4.7 3.1 3.5 5.05 2.3 5.7 0.05 6.05 2.1 5.5 4.15 4.95 6.35 5.1 8.5 5.25 10.35 6.05 12.2 L4.85 11.95 Q4.35 11.5 4.25 10.85 L4.3 10.75 2.55 11.25 2.5 11.25 2.4 11.25 Q1.95 10.95 0.95 8.15 L0.95 8.2 0.95 8.1 0.0 7.45 0.1 7.15 M8.4 11.6 L8.3 11.5 8.45 11.55 8.4 11.6 M2.55 5.1 L2.4 5.5 Q2.45 5.85 2.85 6.1 L3.0 6.15 Q4.05 6.2 4.1 5.15 L4.0 4.95 2.55 5.1 1.8 5.25 2.55 5.1 M5.0 4.95 L4.0 4.95 5.0 4.95" fill="#ffcc99" fill-rule="evenodd" stroke="none"/>
    <path d="M4.1 5.15 Q4.05 6.2 3.0 6.15 L2.85 6.1 Q2.45 5.85 2.4 5.5 L2.55 5.1 4.0 4.95 4.1 5.15" fill="#339900" fill-rule="evenodd" stroke="none"/>
    <path d="M0.1 7.15 L0.0 7.3 -0.35 4.4 Q-0.25 1.85 1.6 0.3 3.35 -1.3 5.55 -0.6 7.3 -0.5 8.5 0.95 L10.35 3.6 Q10.8 4.3 10.7 5.05 10.35 7.0 10.45 8.8 10.55 10.25 11.8 10.85 L11.1 11.1 8.45 11.55 8.3 11.5 8.4 11.6 9.5 13.05 7.95 12.7 7.85 13.75 7.8 15.0 6.35 12.85 6.05 12.2 Q5.25 10.35 5.1 8.5 4.95 6.35 5.5 4.15 6.05 2.1 5.7 0.05 5.05 2.3 3.1 3.5 1.1 4.7 0.35 6.9 L0.35 6.8 0.1 7.15 M3.95 -0.2 L3.25 0.3 1.4 2.1 0.95 2.8 Q0.05 4.35 0.15 6.3 0.05 4.35 0.95 2.8 L1.4 2.1 3.25 0.3 3.95 -0.2 M6.85 10.55 Q6.25 9.25 6.2 7.8 6.1 5.35 6.75 2.9 7.1 1.55 6.55 0.3 7.1 1.55 6.75 2.9 6.1 5.35 6.2 7.8 6.25 9.25 6.85 10.55 M0.95 8.2 L0.95 8.15 Q1.95 10.95 2.4 11.25 L2.5 11.25 2.55 11.25 4.3 10.75 4.25 10.85 3.4 13.75 2.75 12.5 Q2.1 14.25 2.3 16.25 1.45 15.0 1.35 13.45 L0.8 15.1 0.5 13.95 0.4 12.9 Q0.5 10.55 0.95 8.2 M8.7 10.7 L8.55 10.25 8.2 9.35 Q7.4 6.95 7.95 4.6 7.4 6.95 8.2 9.35 L8.55 10.25 8.7 10.7 M9.95 9.7 L9.7 8.85 9.45 7.5 9.7 8.85 9.95 9.7 M1.15 10.7 L0.85 13.45 1.15 10.7" fill="#c39d4f" fill-rule="evenodd" stroke="none"/>
    <path d="M4.1 5.15 Q4.05 6.2 3.0 6.15 L2.85 6.1 Q2.45 5.85 2.4 5.5 L2.55 5.1 1.8 5.25 M4.0 4.95 L5.0 4.95 M2.55 5.1 L4.0 4.95" fill="none" stroke="#000000" stroke-linecap="round" stroke-linejoin="round" stroke-width="0.05"/>
    <path d="M6.55 0.3 Q7.1 1.55 6.75 2.9 6.1 5.35 6.2 7.8 6.25 9.25 6.85 10.55 M0.15 6.3 Q0.05 4.35 0.95 2.8 L1.4 2.1 3.25 0.3 3.95 -0.2 M9.45 7.5 L9.7 8.85 9.95 9.7 M7.95 4.6 Q7.4 6.95 8.2 9.35 L8.55 10.25 8.7 10.7 M0.85 13.45 L1.15 10.7" fill="none" stroke="#e4c377" stroke-linecap="round" stroke-linejoin="round" stroke-width="0.05"/>
  </g>
</svg>
