<?xml version="1.0" encoding="UTF-8" standalone="no"?>
<svg xmlns:xlink="http://www.w3.org/1999/xlink" height="11.8px" width="10.15px" xmlns="http://www.w3.org/2000/svg">
  <g transform="matrix(1.0, 0.0, 0.0, 1.0, 0.0, 0.0)">
    <path d="M5.85 4.6 L8.05 7.7 Q8.8 5.45 6.75 4.65 L5.85 4.6 M0.75 1.2 L1.05 1.15 2.6 0.25 Q3.7 1.85 5.4 3.15 L6.25 2.9 Q8.45 2.85 9.75 4.55 11.1 7.85 8.9 10.35 6.2 13.4 2.75 10.9 -0.3 8.65 1.9 5.05 L0.1 1.7 Q0.25 1.3 0.75 1.2 L0.95 1.55 2.5 4.45 0.95 1.55 0.75 1.2 M2.15 5.75 L1.8 6.5 Q1.3 8.2 2.5 9.5 3.8 10.85 5.7 10.85 3.8 10.85 2.5 9.5 1.3 8.2 1.8 6.5 L2.15 5.75 M2.75 6.75 Q2.7 9.15 4.65 9.5 L5.35 9.1 3.15 6.5 2.8 6.45 2.75 6.75 M3.65 5.85 L5.85 8.5 3.65 5.85" fill="url(#gradient0)" fill-rule="evenodd" stroke="none"/>
    <path d="M5.85 4.6 L8.05 7.7 Q8.8 5.45 6.75 4.65 L5.85 4.6 M0.75 1.2 Q0.25 1.3 0.1 1.7 L1.9 5.05 Q-0.3 8.65 2.75 10.9 6.2 13.4 8.9 10.35 11.1 7.85 9.75 4.55 8.45 2.85 6.25 2.9 L5.4 3.15 Q3.7 1.85 2.6 0.25 L1.05 1.15 0.75 1.2 M2.75 6.75 L2.8 6.45 3.15 6.5 5.35 9.1 4.65 9.5 Q2.7 9.15 2.75 6.75" fill="none" stroke="#000000" stroke-linecap="round" stroke-linejoin="round" stroke-width="0.05"/>
    <path d="M0.75 1.2 L0.95 1.55 2.5 4.45 M5.7 10.85 Q3.8 10.85 2.5 9.5 1.3 8.2 1.8 6.5 L2.15 5.75 M5.85 8.5 L3.65 5.85" fill="none" stroke="#ffffff" stroke-linecap="round" stroke-linejoin="round" stroke-width="0.05"/>
  </g>
  <defs>
    <linearGradient gradientTransform="matrix(0.0052, -0.0035, 0.0041, 0.0061, 5.1, 6.0)" gradientUnits="userSpaceOnUse" id="gradient0" spreadMethod="pad" x1="-819.2" x2="819.2">
      <stop offset="0.0" stop-color="#cdc2b5"/>
      <stop offset="0.5215686274509804" stop-color="#c1a993"/>
      <stop offset="1.0" stop-color="#836c58"/>
    </linearGradient>
  </defs>
</svg>
