<?xml version="1.0" encoding="UTF-8" standalone="no"?>
<svg xmlns:xlink="http://www.w3.org/1999/xlink" height="15.4px" width="5.6px" xmlns="http://www.w3.org/2000/svg">
  <g transform="matrix(1.0, 0.0, 0.0, 1.0, 0.0, 0.0)">
    <path d="M2.05 5.65 L2.1 6.6 2.0 5.8 2.05 5.65" fill="#81814f" fill-rule="evenodd" stroke="none"/>
    <path d="M5.6 6.5 L5.4 6.25 5.4 6.05 5.4 5.25 5.4 5.1 5.15 4.05 5.15 3.95 5.0 3.6 4.8 3.55 Q4.2 3.4 3.95 3.7 L3.75 4.1 3.65 5.1 3.65 5.35 3.55 6.15 Q3.55 6.65 3.05 6.95 L2.55 7.05 2.3 6.9 2.1 6.6 2.3 6.9 2.55 7.05 3.05 6.95 Q3.55 6.65 3.55 6.15 L3.65 5.35 3.65 5.1 3.75 4.1 3.95 3.7 Q4.2 3.4 4.8 3.55 L5.0 3.6 5.15 3.95 5.15 4.05 5.4 5.1 5.4 5.25 5.4 6.05 5.4 6.25 5.6 6.5 5.35 9.55 5.0 8.95 4.95 8.6 4.75 8.05 3.95 8.15 3.8 8.35 3.25 9.4 3.05 9.5 2.75 9.45 3.05 9.5 3.25 9.4 3.8 8.35 3.95 8.15 4.75 8.05 4.95 8.6 5.0 8.95 5.35 9.55 5.25 10.45 5.05 11.65 Q4.7 13.0 4.05 13.95 3.1 15.2 1.85 15.4 L0.9 14.95 0.25 10.35 0.05 6.45 Q0.0 4.1 0.3 2.15 L1.0 1.45 2.45 0.3 Q2.75 0.1 3.1 0.0 L3.55 0.2 5.05 1.1 5.2 1.5 Q5.7 3.5 5.65 5.75 L5.6 6.5 M2.05 5.65 L2.0 5.25 2.0 4.9 2.05 2.9 2.1 2.6 Q2.2 2.05 2.65 1.7 L2.95 1.5 3.6 1.25 3.85 1.25 4.55 1.35 5.2 1.5 4.55 1.35 3.85 1.25 3.6 1.25 2.95 1.5 2.65 1.7 Q2.2 2.05 2.1 2.6 L2.05 2.9 2.0 4.9 2.0 5.25 2.05 5.65 2.0 5.8 2.1 6.6 2.05 5.65 M2.1 6.6 L2.15 6.95 2.15 7.2 2.3 7.9 2.4 8.5 2.75 9.45 2.75 9.5 Q3.3 10.5 4.3 11.15 L4.55 11.3 5.05 11.65 4.55 11.3 4.3 11.15 Q3.3 10.5 2.75 9.5 L2.75 9.45 2.4 8.5 2.3 7.9 2.15 7.2 2.15 6.95 2.1 6.6 M1.1 2.2 L0.8 6.0 Q0.6 10.2 1.5 14.2 0.6 10.2 0.8 6.0 L1.1 2.2 M4.1 11.95 L3.75 11.8 4.1 11.95 M3.7 12.95 L3.35 12.65 3.7 12.95 M3.3 14.0 Q3.2 13.7 2.95 13.7 3.2 13.7 3.3 14.0" fill="url(#gradient0)" fill-rule="evenodd" stroke="none"/>
    <path d="M2.1 6.6 L2.3 6.9 2.55 7.05 3.05 6.95 Q3.55 6.65 3.55 6.15 L3.65 5.35 3.65 5.1 3.75 4.1 3.95 3.7 Q4.2 3.4 4.8 3.55 L5.0 3.6 5.15 3.95 5.15 4.05 5.4 5.1 5.4 5.25 5.4 6.05 5.4 6.25 5.6 6.5 5.65 5.75 Q5.7 3.5 5.2 1.5 L4.55 1.35 3.85 1.25 3.6 1.25 2.95 1.5 2.65 1.7 Q2.2 2.05 2.1 2.6 L2.05 2.9 2.0 4.9 2.0 5.25 2.05 5.65 2.1 6.6 2.0 5.8 2.05 5.65 M0.3 2.15 Q0.0 4.1 0.05 6.45 L0.25 10.35 0.9 14.95 1.85 15.4 Q3.1 15.2 4.05 13.95 4.7 13.0 5.05 11.65 L4.55 11.3 4.3 11.15 Q3.3 10.5 2.75 9.5 L2.75 9.45 2.4 8.5 2.3 7.9 2.15 7.2 2.15 6.95 2.1 6.6 M2.75 9.45 L3.05 9.5 3.25 9.4 3.8 8.35 3.95 8.15 4.75 8.05 4.95 8.6 5.0 8.95 5.35 9.55 5.6 6.5 M3.75 11.8 L4.1 11.95 M5.05 11.65 L5.25 10.45 5.35 9.55 M5.2 1.5 L5.05 1.1 M2.95 13.7 Q3.2 13.7 3.3 14.0 M3.35 12.65 L3.7 12.95" fill="none" stroke="#000000" stroke-linecap="round" stroke-linejoin="round" stroke-width="0.05"/>
    <path d="M1.5 14.2 Q0.6 10.2 0.8 6.0 L1.1 2.2" fill="none" stroke="#ffffff" stroke-linecap="round" stroke-linejoin="round" stroke-width="0.05"/>
  </g>
  <defs>
    <radialGradient cx="0" cy="0" gradientTransform="matrix(0.0037, 0.0, 0.0, 0.015, 1.55, 7.45)" gradientUnits="userSpaceOnUse" id="gradient0" r="819.2" spreadMethod="pad">
      <stop offset="0.0" stop-color="#ffecd5"/>
      <stop offset="0.5215686274509804" stop-color="#c7b39e"/>
      <stop offset="1.0" stop-color="#836c58"/>
    </radialGradient>
  </defs>
</svg>
