<?xml version="1.0" encoding="UTF-8" standalone="no"?>
<svg xmlns:xlink="http://www.w3.org/1999/xlink" height="14.9px" width="9.55px" xmlns="http://www.w3.org/2000/svg">
  <g transform="matrix(1.0, 0.0, 0.0, 1.0, 0.0, 0.0)">
    <path d="M5.65 4.3 L6.3 3.9 6.25 3.15 5.8 2.8 5.6 2.9 5.65 4.3 M4.95 1.35 L4.95 1.5 Q5.9 1.3 6.8 1.95 7.85 2.75 7.4 4.25 L6.9 4.95 5.35 5.8 4.6 6.05 3.85 4.7 3.8 4.6 Q3.05 3.4 1.65 3.45 L1.75 1.45 4.95 1.35 1.75 1.45 1.65 3.45 1.55 6.1 1.4 8.9 Q1.15 10.25 1.75 11.3 L4.15 13.3 3.95 14.05 3.8 14.8 1.1 14.65 0.15 5.45 -0.7 5.25 Q-2.05 4.35 -2.0 2.65 L-2.0 2.4 Q-1.65 1.65 -0.95 1.5 L-0.35 1.3 -0.3 1.2 -0.25 1.05 -0.25 0.1 4.9 -0.1 4.95 1.35 M4.6 0.35 L3.7 0.55 0.4 0.7 3.7 0.55 4.6 0.35 M0.15 5.45 L0.9 5.55 0.15 5.45 M1.4 14.1 L1.1 11.65 0.85 9.45 0.7 6.15 0.85 9.45 1.1 11.65 1.4 14.1 M-0.7 2.85 Q-1.25 3.1 -1.25 3.8 L-1.2 3.95 -0.2 4.5 -0.25 2.75 -0.7 2.85 M-0.9 2.05 Q-1.95 2.45 -1.7 3.8 L-1.55 4.15 -0.7 5.25 -1.55 4.15 -1.7 3.8 Q-1.95 2.45 -0.9 2.05 M0.6 1.35 L-0.35 1.3 0.6 1.35 M0.0 0.7 L-0.25 1.05 0.0 0.7" fill="url(#gradient0)" fill-rule="evenodd" stroke="none"/>
    <path d="M1.65 3.45 Q3.05 3.4 3.8 4.6 L3.85 4.7 4.6 6.05 5.35 5.8 5.2 9.0 Q5.0 10.9 4.3 12.75 L4.15 13.3 1.75 11.3 Q1.15 10.25 1.4 8.9 L1.55 6.1 1.65 3.45 M1.75 8.65 L2.1 9.4 Q2.75 9.75 3.25 9.25 L3.3 8.6 Q3.15 6.45 3.85 4.7 3.15 6.45 3.3 8.6 L3.25 9.25 Q2.75 9.75 2.1 9.4 L1.75 8.65" fill="url(#gradient1)" fill-rule="evenodd" stroke="none"/>
    <path d="M5.65 4.3 L6.3 3.9 6.25 3.15 5.8 2.8 5.6 2.9 5.65 4.3 M5.35 5.8 L6.9 4.95 7.4 4.25 Q7.85 2.75 6.8 1.95 5.9 1.3 4.95 1.5 L4.95 1.35 1.75 1.45 1.65 3.45 Q3.05 3.4 3.8 4.6 L3.85 4.7 4.6 6.05 5.35 5.8 5.2 9.0 Q5.0 10.9 4.3 12.75 L4.15 13.3 3.95 14.05 3.8 14.8 M1.1 14.65 L0.15 5.45 -0.7 5.25 Q-2.05 4.35 -2.0 2.65 L-2.0 2.4 Q-1.65 1.65 -0.95 1.5 L-0.35 1.3 -0.3 1.2 -0.25 1.05 -0.25 0.1 4.9 -0.1 4.95 1.35 M4.15 13.3 L1.75 11.3 Q1.15 10.25 1.4 8.9 L1.55 6.1 1.65 3.45 M0.9 5.55 L0.15 5.45 M3.85 4.7 Q3.15 6.45 3.3 8.6 L3.25 9.25 Q2.75 9.75 2.1 9.4 L1.75 8.65 M-0.7 2.85 Q-1.25 3.1 -1.25 3.8 L-1.2 3.95 -0.2 4.5 -0.25 2.75 -0.7 2.85 M-0.35 1.3 L0.6 1.35" fill="none" stroke="#000000" stroke-linecap="round" stroke-linejoin="round" stroke-width="0.05"/>
    <path d="M0.7 6.15 L0.85 9.45 1.1 11.65 1.4 14.1 M-0.7 5.25 L-1.55 4.15 -1.7 3.8 Q-1.95 2.45 -0.9 2.05 M-0.25 1.05 L0.0 0.7" fill="none" stroke="#ffffff" stroke-linecap="round" stroke-linejoin="round" stroke-width="0.05"/>
    <path d="M0.4 0.7 L3.7 0.55 4.6 0.35" fill="none" stroke="#ffffff" stroke-linecap="round" stroke-linejoin="round" stroke-width="0.05"/>
  </g>
  <defs>
    <radialGradient cx="0" cy="0" gradientTransform="matrix(0.0072, 0.0, 0.0, 0.0183, 0.7, 6.45)" gradientUnits="userSpaceOnUse" id="gradient0" r="819.2" spreadMethod="pad">
      <stop offset="0.0" stop-color="#fff4e7"/>
      <stop offset="0.5215686274509804" stop-color="#d3c4b2"/>
      <stop offset="1.0" stop-color="#836c58"/>
    </radialGradient>
    <radialGradient cx="0" cy="0" gradientTransform="matrix(0.0072, 0.0, 0.0, 0.0183, 0.7, 6.45)" gradientUnits="userSpaceOnUse" id="gradient1" r="819.2" spreadMethod="pad">
      <stop offset="0.0" stop-color="#ffecd5"/>
      <stop offset="0.5215686274509804" stop-color="#c7b39e"/>
      <stop offset="1.0" stop-color="#836c58"/>
    </radialGradient>
  </defs>
</svg>
