<?xml version="1.0" encoding="UTF-8" standalone="no"?>
<svg xmlns:xlink="http://www.w3.org/1999/xlink" height="13.25px" width="13.85px" xmlns="http://www.w3.org/2000/svg">
  <g transform="matrix(1.0, 0.0, 0.0, 1.0, 0.0, 0.0)">
    <path d="M4.2 1.35 L4.3 1.4 Q6.4 2.7 7.25 3.95 L6.9 4.0 7.2 4.45 7.4 5.35 6.25 5.5 5.65 4.1 6.05 4.1 6.9 4.0 6.05 4.1 4.1 2.5 4.2 1.35" fill="#4a3623" fill-rule="evenodd" stroke="none"/>
    <path d="M4.55 -1.1 L5.6 -0.3 6.6 -0.35 Q9.0 -0.45 10.6 1.3 L10.6 3.75 10.4 3.85 Q9.05 4.9 7.4 5.35 L7.2 4.45 6.9 4.0 7.25 3.95 Q6.4 2.7 4.3 1.4 L4.2 1.35 4.55 -1.1 M9.15 3.1 L8.25 3.55 7.25 3.95 8.25 3.55 9.15 3.1 M5.9 0.25 L5.6 -0.3 5.9 0.25 M6.35 0.45 L6.8 0.25 Q8.6 0.0 9.8 1.3 8.6 0.0 6.8 0.25 L6.35 0.45 M6.05 4.1 L5.65 4.1 6.25 5.5 3.95 5.35 3.95 5.1 Q3.85 4.95 4.1 2.5 L6.05 4.1 M5.3 3.95 L5.65 4.1 5.3 3.95" fill="url(#gradient0)" fill-rule="evenodd" stroke="none"/>
    <path d="M5.6 -0.3 L4.55 -1.1 M4.2 1.35 L4.3 1.4 Q6.4 2.7 7.25 3.95 L8.25 3.55 9.15 3.1 M10.6 1.3 Q9.0 -0.45 6.6 -0.35 L5.6 -0.3 5.9 0.25 M7.4 5.35 Q9.05 4.9 10.4 3.85 L10.6 3.75 M6.9 4.0 L6.05 4.1 5.65 4.1 6.25 5.5 7.4 5.35 7.2 4.45 6.9 4.0 7.25 3.95 M5.65 4.1 L5.3 3.95 M4.1 2.5 L6.05 4.1 M3.95 5.35 L6.25 5.5" fill="none" stroke="#000000" stroke-linecap="round" stroke-linejoin="round" stroke-width="0.05"/>
    <path d="M9.8 1.3 Q8.6 0.0 6.8 0.25 L6.35 0.45" fill="none" stroke="#ffffff" stroke-linecap="round" stroke-linejoin="round" stroke-width="0.05"/>
    <path d="M-0.75 -1.85 L-1.55 -3.4 -1.65 -4.25 -1.5 -4.55 Q-0.5 -5.25 0.55 -5.4 -0.5 -5.25 -1.5 -4.55 L-1.65 -4.25 -1.55 -3.4 -0.75 -1.85 M-0.6 5.9 L-1.7 5.15 Q-2.8 4.45 -3.1 3.0 L-3.2 1.05 Q-3.1 0.35 -2.55 0.0 -1.55 -0.7 -0.25 -1.05 L-1.0 -1.1 -1.7 -1.7 -2.1 -2.35 Q-2.75 -3.75 -2.0 -4.6 L-0.25 -5.65 2.25 -6.0 2.9 -6.45 2.95 -6.25 3.3 -5.2 Q4.45 -0.6 3.35 4.15 L2.65 4.7 2.05 4.7 0.6 5.1 Q-0.05 5.35 -0.6 5.9 -0.05 5.35 0.6 5.1 L2.05 4.7 2.65 4.7 3.35 4.15 Q4.45 -0.6 3.3 -5.2 L2.95 -6.25 2.9 -6.45 Q3.05 -7.1 3.4 -6.45 L4.25 -4.75 4.65 -3.5 4.75 -3.15 4.65 1.8 Q4.65 3.5 4.1 5.15 L4.05 5.35 2.95 5.6 0.4 6.2 -0.2 6.4 Q-0.5 6.6 -0.6 6.2 L-0.6 5.9 M-0.75 -3.9 Q-0.75 -3.1 0.0 -2.45 L0.4 -3.55 Q0.35 -4.65 -0.55 -4.2 L-0.75 -3.9 M-0.2 5.95 L0.2 5.6 0.6 5.1 0.2 5.6 -0.2 5.95 M2.45 -5.05 L2.2 -1.15 Q1.9 1.25 0.95 3.3 1.9 1.25 2.2 -1.15 L2.45 -5.05 M-0.25 1.0 L-1.2 0.95 -1.55 1.25 Q-1.7 2.2 -1.05 2.65 L-0.5 3.05 -0.25 1.0 M-0.55 5.15 Q-2.9 4.1 -2.65 1.2 L-1.75 0.0 -0.8 -0.1 -1.75 0.0 -2.65 1.2 Q-2.9 4.1 -0.55 5.15" fill="url(#gradient1)" fill-rule="evenodd" stroke="none"/>
    <path d="M2.9 -6.45 L2.25 -6.0 -0.25 -5.65 -2.0 -4.6 Q-2.75 -3.75 -2.1 -2.35 L-1.7 -1.7 -1.0 -1.1 -0.25 -1.05 Q-1.55 -0.7 -2.55 0.0 -3.1 0.35 -3.2 1.05 L-3.1 3.0 Q-2.8 4.45 -1.7 5.15 L-0.6 5.9 Q-0.05 5.35 0.6 5.1 L2.05 4.7 2.65 4.7 3.35 4.15 Q4.45 -0.6 3.3 -5.2 L2.95 -6.25 2.9 -6.45 Q3.05 -7.1 3.4 -6.45 L4.25 -4.75 4.65 -3.5 4.75 -3.15 4.65 1.8 Q4.65 3.5 4.1 5.15 L4.05 5.35 2.95 5.6 0.4 6.2 -0.2 6.4 Q-0.5 6.6 -0.6 6.2 L-0.6 5.9 M-0.75 -3.9 Q-0.75 -3.1 0.0 -2.45 L0.4 -3.55 Q0.35 -4.65 -0.55 -4.2 L-0.75 -3.9 M0.95 3.3 Q1.9 1.25 2.2 -1.15 L2.45 -5.05 M-0.25 1.0 L-1.2 0.95 -1.55 1.25 Q-1.7 2.2 -1.05 2.65 L-0.5 3.05 -0.25 1.0" fill="none" stroke="#000000" stroke-linecap="round" stroke-linejoin="round" stroke-width="0.05"/>
    <path d="M0.55 -5.4 Q-0.5 -5.25 -1.5 -4.55 L-1.65 -4.25 -1.55 -3.4 -0.75 -1.85 M0.6 5.1 L0.2 5.6 -0.2 5.95 M-0.8 -0.1 L-1.75 0.0 -2.65 1.2 Q-2.9 4.1 -0.55 5.15" fill="none" stroke="#ffffff" stroke-linecap="round" stroke-linejoin="round" stroke-width="0.05"/>
  </g>
  <defs>
    <radialGradient cx="0" cy="0" gradientTransform="matrix(0.0059, 0.0, 0.0, 0.0041, 7.65, 0.95)" gradientUnits="userSpaceOnUse" id="gradient0" r="819.2" spreadMethod="pad">
      <stop offset="0.0" stop-color="#fff4e7"/>
      <stop offset="0.5215686274509804" stop-color="#d3c4b2"/>
      <stop offset="1.0" stop-color="#836c58"/>
    </radialGradient>
    <radialGradient cx="0" cy="0" gradientTransform="matrix(0.0074, 0.0, 0.0, 0.0085, 0.3, -0.25)" gradientUnits="userSpaceOnUse" id="gradient1" r="819.2" spreadMethod="pad">
      <stop offset="0.0" stop-color="#fff4e7"/>
      <stop offset="0.5215686274509804" stop-color="#d3c4b2"/>
      <stop offset="1.0" stop-color="#836c58"/>
    </radialGradient>
  </defs>
</svg>
