<?xml version="1.0" encoding="UTF-8" standalone="no"?>
<svg xmlns:xlink="http://www.w3.org/1999/xlink" height="4.2px" width="14.7px" xmlns="http://www.w3.org/2000/svg">
  <g transform="matrix(1.0, 0.0, 0.0, 1.0, 0.0, 0.0)">
    <path d="M0.6 0.8 L0.9 0.7 Q3.35 -0.5 7.15 0.35 L8.65 0.75 8.8 0.75 10.75 0.55 11.55 0.45 12.7 0.0 Q14.2 0.0 14.7 0.6 L14.85 0.85 Q15.8 2.2 14.85 3.4 L11.6 3.7 11.05 3.0 10.65 2.9 9.65 2.9 9.25 2.95 7.6 3.45 5.5 3.95 2.35 4.15 Q1.1 4.0 0.6 2.95 L0.6 0.8" fill="#ffcc99" fill-rule="evenodd" stroke="none"/>
    <path d="M0.6 0.8 L0.9 0.7 Q3.35 -0.5 7.15 0.35 L8.65 0.75 8.8 0.75 10.75 0.55 11.55 0.45 12.7 0.0 Q14.2 0.0 14.7 0.6 L14.85 0.85 Q15.8 2.2 14.85 3.4 L11.6 3.7 11.05 3.0 10.65 2.9 9.65 2.9 9.25 2.95 7.6 3.45 5.5 3.95 2.35 4.15 Q1.1 4.0 0.6 2.95" fill="none" stroke="#000000" stroke-linecap="round" stroke-linejoin="round" stroke-width="0.05"/>
  </g>
</svg>
