<?xml version="1.0" encoding="UTF-8" standalone="no"?>
<svg xmlns:xlink="http://www.w3.org/1999/xlink" height="7.8px" width="15.25px" xmlns="http://www.w3.org/2000/svg">
  <g transform="matrix(1.0, 0.0, 0.0, 1.0, 0.0, 0.0)">
    <path d="M4.1 -1.15 L4.1 -1.9 Q4.15 -2.3 3.4 -2.3 L2.45 -2.15 2.15 -1.7 2.0 -1.05 2.15 -1.7 2.45 -2.15 3.4 -2.3 Q4.15 -2.3 4.1 -1.9 L4.1 -1.15 M2.3 -2.45 L3.2 -2.7 4.1 -2.6 4.35 -2.35 4.6 -1.95 4.8 -1.4 5.3 -2.25 7.2 -2.35 7.8 -1.45 8.0 -1.0 8.1 -0.5 8.8 -0.15 9.8 -0.1 9.8 0.55 13.95 0.3 14.8 0.7 Q15.25 1.65 14.85 2.75 L14.6 3.4 11.25 3.35 10.8 2.95 10.05 2.85 7.7 3.45 4.6 3.95 3.0 4.3 2.35 4.4 Q1.85 4.95 0.75 5.1 -0.95 1.9 0.45 -0.6 1.2 -0.7 1.6 -0.25 L1.7 -1.25 2.05 -2.3 2.3 -2.45 M2.55 -0.85 L3.2 -0.6 3.75 -0.6 3.7 -1.15 3.4 -1.5 2.7 -1.3 2.55 -0.85 M7.3 -1.55 L6.9 -1.95 6.35 -2.2 Q5.55 -2.25 5.45 -1.5 5.55 -2.25 6.35 -2.2 L6.9 -1.95 7.3 -1.55 M5.95 -0.8 Q6.05 -0.65 6.25 -0.65 L6.6 -0.8 6.7 -1.15 6.6 -1.5 6.25 -1.65 5.95 -1.5 5.8 -1.15 Q5.8 -0.95 5.95 -0.8 M4.65 0.3 L4.45 -0.1 8.8 -0.15 4.45 -0.1 4.65 0.3 5.2 0.3 5.6 0.25 6.4 0.3 6.95 0.35 8.35 0.45 6.95 0.35 6.4 0.3 5.6 0.25 5.2 0.3 4.65 0.3 5.1 1.35 6.95 1.4 7.7 3.45 6.95 1.4 5.1 1.35 4.65 0.3 1.4 0.7 1.05 0.85 0.7 0.8 1.05 0.85 1.4 0.7 4.65 0.3 M13.9 0.8 L13.7 0.75 13.1 0.75 12.85 0.75 12.3 0.85 10.3 1.05 12.3 0.85 12.85 0.75 13.1 0.75 13.7 0.75 13.9 0.8 13.95 0.3 13.9 0.8 14.35 1.05 13.9 0.8 13.65 2.45 10.3 2.1 13.65 2.45 13.9 0.8 M10.05 2.85 L9.8 0.55 10.05 2.85 M1.05 0.35 L4.45 -0.1 1.05 0.35 M1.9 1.05 Q1.65 2.75 2.35 4.4 1.65 2.75 1.9 1.05 M2.5 2.1 Q2.35 3.2 3.0 4.3 2.35 3.2 2.5 2.1" fill="url(#gradient0)" fill-rule="evenodd" stroke="none"/>
    <path d="M2.3 -2.45 L3.2 -2.7 4.1 -2.6 4.35 -2.35 4.6 -1.95 4.8 -1.4 5.3 -2.25 7.2 -2.35 7.8 -1.45 8.0 -1.0 8.1 -0.5 8.8 -0.15 9.8 -0.1 9.8 0.55 13.95 0.3 14.8 0.7 Q15.25 1.65 14.85 2.75 L14.6 3.4 11.25 3.35 10.8 2.95 10.05 2.85 7.7 3.45 4.6 3.95 3.0 4.3 2.35 4.4 Q1.85 4.95 0.75 5.1 -0.95 1.9 0.45 -0.6 1.2 -0.7 1.6 -0.25 L1.7 -1.25 2.05 -2.3 2.3 -2.45 M2.55 -0.85 L2.7 -1.3 3.4 -1.5 3.7 -1.15 3.75 -0.6 3.2 -0.6 2.55 -0.85 M5.95 -0.8 Q5.8 -0.95 5.8 -1.15 L5.95 -1.5 6.25 -1.65 6.6 -1.5 6.7 -1.15 6.6 -0.8 6.25 -0.65 Q6.05 -0.65 5.95 -0.8 M8.8 -0.15 L4.45 -0.1 4.65 0.3 5.1 1.35 6.95 1.4 7.7 3.45 M13.9 0.8 L13.95 0.3 M13.9 0.8 L13.65 2.45 10.3 2.1 M9.8 0.55 L10.05 2.85 M3.0 4.3 Q2.35 3.2 2.5 2.1 M2.35 4.4 Q1.65 2.75 1.9 1.05 M4.45 -0.1 L1.05 0.35" fill="none" stroke="#000000" stroke-linecap="round" stroke-linejoin="round" stroke-width="0.05"/>
    <path d="M2.0 -1.05 L2.15 -1.7 2.45 -2.15 3.4 -2.3 Q4.15 -2.3 4.1 -1.9 L4.1 -1.15 M4.65 0.3 L5.2 0.3 5.6 0.25 6.4 0.3 6.95 0.35 8.35 0.45 M10.3 1.05 L12.3 0.85 12.85 0.75 13.1 0.75 13.7 0.75 13.9 0.8 14.35 1.05 M4.65 0.3 L1.4 0.7 1.05 0.85 0.7 0.8" fill="none" stroke="#ffffff" stroke-linecap="round" stroke-linejoin="round" stroke-width="0.05"/>
    <path d="M5.45 -1.5 Q5.55 -2.25 6.35 -2.2 L6.9 -1.95 7.3 -1.55" fill="none" stroke="#ffffff" stroke-linecap="round" stroke-linejoin="round" stroke-width="0.05"/>
  </g>
  <defs>
    <radialGradient cx="0" cy="0" gradientTransform="matrix(0.0114, 0.0, 0.0, 0.0054, 6.65, 0.55)" gradientUnits="userSpaceOnUse" id="gradient0" r="819.2" spreadMethod="pad">
      <stop offset="0.0" stop-color="#fff4e7"/>
      <stop offset="0.5215686274509804" stop-color="#d3c4b2"/>
      <stop offset="1.0" stop-color="#836c58"/>
    </radialGradient>
  </defs>
</svg>
