<?xml version="1.0" encoding="UTF-8" standalone="no"?>
<svg xmlns:xlink="http://www.w3.org/1999/xlink" height="20.1px" width="12.6px" xmlns="http://www.w3.org/2000/svg">
  <g transform="matrix(1.0, 0.0, 0.0, 1.0, 0.0, 0.0)">
    <path d="M7.1 -0.95 L7.75 -0.9 8.35 -0.45 8.55 -0.4 9.35 -0.15 10.1 0.1 11.2 0.65 Q11.65 1.1 11.6 1.8 L11.5 3.7 11.5 5.6 Q11.5 6.5 11.1 7.35 L10.65 8.45 10.15 9.65 9.45 11.4 Q9.15 12.2 9.2 13.1 L8.6 13.3 8.55 13.55 7.95 13.5 7.85 13.3 7.0 13.4 6.05 13.25 5.95 12.65 5.35 12.55 4.95 12.5 3.9 12.7 Q3.5 12.75 3.65 13.25 L3.15 13.2 Q3.05 12.7 2.55 12.7 2.1 12.7 2.15 13.2 L1.85 13.2 1.85 13.1 Q1.85 12.85 1.4 12.8 1.45 11.9 1.15 11.2 L0.4 9.7 -0.25 8.15 -0.4 7.45 Q-1.0 7.4 -1.0 6.6 L-0.95 5.05 -0.8 3.75 -0.35 2.15 Q0.05 1.2 0.85 0.8 L1.7 0.25 1.75 0.25 2.55 -0.1 2.55 -0.05 2.55 0.3 2.75 0.7 2.8 0.7 4.25 1.1 5.4 1.0 Q6.3 0.9 7.05 0.25 7.35 0.0 7.25 -0.4 L7.1 -0.95 M9.85 14.95 L10.1 16.3 9.5 17.6 9.0 18.4 5.05 18.8 4.95 18.8 Q4.6 19.15 4.0 19.15 L3.6 18.9 4.15 18.8 4.35 18.65 4.7 18.35 4.75 18.15 Q5.25 17.35 4.9 16.4 L4.35 15.1 4.75 15.1 5.1 15.15 6.1 15.05 6.2 14.5 7.0 14.55 Q7.05 15.25 7.65 14.65 L7.85 14.45 8.8 14.4 Q8.85 14.85 9.35 14.85 L9.7 14.75 9.85 14.95 M1.85 15.1 L1.55 14.05 1.75 13.85 2.1 13.9 2.1 14.0 Q1.8 14.15 1.9 14.75 L1.85 15.1 M1.75 0.25 L1.65 0.45 1.65 0.75 Q1.35 1.05 1.55 1.6 L2.15 2.2 2.75 2.55 3.25 2.55 4.4 2.65 5.6 2.55 7.0 2.1 Q7.95 1.75 8.2 1.1 L8.45 0.4 8.35 -0.45 8.45 0.4 8.2 1.1 Q7.95 1.75 7.0 2.1 L5.6 2.55 4.4 2.65 3.25 2.55 2.75 2.55 2.15 2.2 1.55 1.6 Q1.35 1.05 1.65 0.75 L1.65 0.45 1.75 0.25 M6.7 1.75 L6.45 1.4 6.3 1.1 6.45 1.4 6.7 1.75 M8.45 0.4 L7.9 0.1 8.45 0.4 M2.65 2.1 L3.05 1.4 2.65 2.1 M7.75 0.8 L7.05 0.25 7.75 0.8 M7.1 0.95 L7.7 1.4 7.1 0.95 M2.75 4.4 L2.95 3.7 4.2 3.45 5.3 3.2 6.35 3.1 7.35 2.9 8.35 2.6 7.35 2.9 6.35 3.1 5.3 3.2 4.2 3.45 2.95 3.7 2.75 4.4 M3.65 1.3 L3.25 2.55 3.65 1.3 M1.65 0.75 L1.8 0.6 2.4 0.35 2.55 0.3 2.4 0.35 1.8 0.6 1.65 0.75 M6.9 3.65 L3.5 4.1 2.95 5.1 3.5 4.1 6.9 3.65 M1.75 3.65 L2.1 4.0 2.05 4.75 2.1 4.0 1.75 3.65 M0.65 9.4 L1.1 8.7 2.15 8.5 5.0 8.65 5.65 9.05 5.9 9.35 6.05 10.55 6.1 11.7 6.05 10.55 5.9 9.35 5.65 9.05 5.0 8.65 2.15 8.5 1.1 8.7 0.65 9.4 1.55 11.4 1.8 12.25 1.55 11.4 0.65 9.4 0.15 7.8 0.65 9.4 M1.8 7.35 L2.15 7.0 2.55 7.35 2.15 7.0 1.8 7.35 M4.3 7.95 L4.95 8.05 6.5 8.05 Q7.7 8.05 8.55 7.35 L8.7 6.95 8.55 7.35 Q7.7 8.05 6.5 8.05 L4.95 8.05 4.3 7.95 M2.15 2.2 L2.8 0.7 2.15 2.2 M0.35 2.9 L2.95 3.7 0.35 2.9 M3.3 11.6 L3.2 10.35 4.7 10.6 3.2 10.35 3.3 11.6 M2.9 9.35 L3.2 10.35 1.7 10.55 3.2 10.35 2.9 9.35 M7.95 6.7 L7.65 7.0 Q6.35 7.85 4.9 7.35 6.35 7.85 7.65 7.0 L7.95 6.7 M9.3 7.4 L8.75 8.05 8.05 9.35 7.5 11.1 Q7.3 11.9 7.65 12.4 7.3 11.9 7.5 11.1 L8.05 9.35 8.75 8.05 9.3 7.4 M6.6 11.8 L6.3 8.7 6.6 11.8 M9.35 6.25 L9.65 2.75 9.35 6.25 M5.05 18.8 L5.5 18.25 5.35 16.65 5.0 15.6 4.75 15.1 5.0 15.6 5.35 16.65 5.5 18.25 5.05 18.8 M-0.4 7.45 L-0.05 7.6 -0.4 7.45 M0.0 2.4 L-0.5 5.05 Q-0.9 7.1 0.0 7.2 -0.9 7.1 -0.5 5.05 L0.0 2.4" fill="url(#gradient0)" fill-rule="evenodd" stroke="none"/>
    <path d="M2.55 -0.1 L3.3 -0.35 5.15 -0.7 7.1 -0.95 7.25 -0.4 Q7.35 0.0 7.05 0.25 6.3 0.9 5.4 1.0 L4.25 1.1 2.8 0.7 2.75 0.7 2.55 0.3 2.55 -0.05 2.55 -0.1" fill="#333300" fill-rule="evenodd" stroke="none"/>
    <path d="M7.95 13.5 L8.55 13.55 8.8 14.4 7.85 14.45 7.95 13.5 M7.0 14.55 L6.2 14.5 6.05 13.25 7.0 13.4 7.0 14.55 M5.5 13.7 L5.35 13.65 4.7 13.7 5.0 13.9 5.55 13.9 Q5.7 14.2 5.35 14.35 L4.45 14.25 4.3 13.25 4.35 13.2 5.4 13.25 5.5 13.7 M3.15 13.2 L3.65 13.25 3.65 14.35 2.9 14.3 3.15 13.2 M2.15 13.2 L2.1 13.9 1.75 13.85 1.85 13.2 2.15 13.2" fill="#886646" fill-rule="evenodd" stroke="none"/>
    <path d="M9.2 13.1 L9.5 13.05 9.6 13.45 9.95 13.8 Q10.35 14.35 10.05 14.9 L9.85 14.95 9.7 14.75 9.35 14.85 Q8.85 14.85 8.8 14.4 L8.55 13.55 8.6 13.3 9.2 13.1 M1.55 14.05 Q0.65 14.0 1.15 13.0 L1.4 12.8 Q1.85 12.85 1.85 13.1 L1.85 13.2 1.75 13.85 1.55 14.05 M9.6 13.45 L9.7 14.75 9.6 13.45 M7.0 13.4 L7.85 13.3 7.95 13.5 7.85 14.45 7.65 14.65 Q7.05 15.25 7.0 14.55 L7.0 13.4 M3.15 13.2 L2.9 14.3 2.8 14.4 Q2.05 14.75 2.1 14.0 L2.1 13.9 2.15 13.2 Q2.1 12.7 2.55 12.7 3.05 12.7 3.15 13.2" fill="#72533d" fill-rule="evenodd" stroke="none"/>
    <path d="M6.2 14.5 L6.1 15.05 5.1 15.15 4.75 15.1 4.35 15.1 3.8 14.95 3.65 14.35 3.65 13.25 Q3.5 12.75 3.9 12.7 L4.95 12.5 5.35 12.55 5.95 12.65 6.05 13.25 6.2 14.5 M5.5 13.7 L5.55 13.9 5.5 13.7 5.4 13.25 4.35 13.2 4.3 13.25 4.45 14.25 5.35 14.35 Q5.7 14.2 5.55 13.9 L5.0 13.9 4.7 13.7 5.35 13.65 5.5 13.7 M4.0 14.5 L3.95 13.9 3.9 13.0 3.95 12.95 4.0 12.9 4.65 12.8 4.8 12.75 5.35 12.55 4.8 12.75 4.65 12.8 4.0 12.9 3.95 12.95 3.9 13.0 3.95 13.9 4.0 14.5" fill="#c39d4f" fill-rule="evenodd" stroke="none"/>
    <path d="M3.6 18.9 Q2.85 18.9 2.2 18.3 1.7 17.9 1.55 17.2 1.4 16.45 1.65 15.65 L1.85 15.1 1.9 14.75 Q1.8 14.15 2.1 14.0 2.05 14.75 2.8 14.4 L2.9 14.3 3.65 14.35 3.8 14.95 4.35 15.1 4.9 16.4 Q5.25 17.35 4.75 18.15 L4.7 18.35 4.35 18.65 4.15 18.8 3.6 18.9 M2.35 15.15 L1.8 16.3 2.15 17.4 Q2.5 18.3 3.25 18.35 2.5 18.3 2.15 17.4 L1.8 16.3 2.35 15.15 M4.55 16.3 L4.5 17.3 4.0 18.4 4.5 17.3 4.55 16.3" fill="url(#gradient1)" fill-rule="evenodd" stroke="none"/>
    <path d="M2.55 -0.1 L3.3 -0.35 5.15 -0.7 7.1 -0.95 7.75 -0.9 8.35 -0.45 8.55 -0.4 9.35 -0.15 10.1 0.1 11.2 0.65 Q11.65 1.1 11.6 1.8 L11.5 3.7 11.5 5.6 Q11.5 6.5 11.1 7.35 L10.65 8.45 10.15 9.65 9.45 11.4 Q9.15 12.2 9.2 13.1 L9.5 13.05 9.6 13.45 9.95 13.8 Q10.35 14.35 10.05 14.9 L9.85 14.95 10.1 16.3 9.5 17.6 9.0 18.4 5.05 18.8 4.95 18.8 Q4.6 19.15 4.0 19.15 L3.6 18.9 Q2.85 18.9 2.2 18.3 1.7 17.9 1.55 17.2 1.4 16.45 1.65 15.65 L1.85 15.1 1.55 14.05 Q0.65 14.0 1.15 13.0 L1.4 12.8 Q1.45 11.9 1.15 11.2 L0.4 9.7 -0.25 8.15 -0.4 7.45 Q-1.0 7.4 -1.0 6.6 L-0.95 5.05 -0.8 3.75 -0.35 2.15 Q0.05 1.2 0.85 0.8 L1.7 0.25 1.75 0.25 2.55 -0.1 2.55 -0.05 2.55 0.3 2.75 0.7 2.8 0.7 4.25 1.1 5.4 1.0 Q6.3 0.9 7.05 0.25 7.35 0.0 7.25 -0.4 L7.1 -0.95 M8.35 -0.45 L8.45 0.4 8.2 1.1 Q7.95 1.75 7.0 2.1 L5.6 2.55 4.4 2.65 3.25 2.55 2.75 2.55 2.15 2.2 1.55 1.6 Q1.35 1.05 1.65 0.75 L1.65 0.45 1.75 0.25 M8.35 2.6 L7.35 2.9 6.35 3.1 5.3 3.2 4.2 3.45 2.95 3.7 2.75 4.4 M7.7 1.4 L7.1 0.95 M7.05 0.25 L7.75 0.8 M3.05 1.4 L2.65 2.1 M2.55 0.3 L2.4 0.35 1.8 0.6 1.65 0.75 M2.95 3.7 L0.35 2.9 M2.8 0.7 L2.15 2.2 M8.7 6.95 L8.55 7.35 Q7.7 8.05 6.5 8.05 L4.95 8.05 4.3 7.95 M2.55 7.35 L2.15 7.0 1.8 7.35 M6.1 11.7 L6.05 10.55 5.9 9.35 5.65 9.05 5.0 8.65 2.15 8.5 1.1 8.7 0.65 9.4 M1.7 10.55 L3.2 10.35 2.9 9.35 M4.7 10.6 L3.2 10.35 3.3 11.6 M7.65 12.4 Q7.3 11.9 7.5 11.1 L8.05 9.35 8.75 8.05 9.3 7.4 M9.65 2.75 L9.35 6.25 M8.55 13.55 L8.6 13.3 9.2 13.1 M7.95 13.5 L8.55 13.55 8.8 14.4 Q8.85 14.85 9.35 14.85 L9.7 14.75 9.6 13.45 M7.0 13.4 L7.85 13.3 7.95 13.5 7.85 14.45 8.8 14.4 M7.85 14.45 L7.65 14.65 Q7.05 15.25 7.0 14.55 L6.2 14.5 6.1 15.05 5.1 15.15 4.75 15.1 5.0 15.6 5.35 16.65 5.5 18.25 5.05 18.8 M9.7 14.75 L9.85 14.95 M5.55 13.9 L5.5 13.7 5.35 13.65 4.7 13.7 5.0 13.9 5.55 13.9 Q5.7 14.2 5.35 14.35 L4.45 14.25 4.3 13.25 4.35 13.2 5.4 13.25 5.5 13.7 M6.05 13.25 L5.95 12.65 5.35 12.55 4.95 12.5 3.9 12.7 Q3.5 12.75 3.65 13.25 L3.15 13.2 2.9 14.3 3.65 14.35 3.65 13.25 M7.0 14.55 L7.0 13.4 6.05 13.25 6.2 14.5 M3.15 13.2 Q3.05 12.7 2.55 12.7 2.1 12.7 2.15 13.2 L2.1 13.9 2.1 14.0 Q2.05 14.75 2.8 14.4 L2.9 14.3 M4.35 15.1 L3.8 14.95 3.65 14.35 M4.75 15.1 L4.35 15.1 4.9 16.4 Q5.25 17.35 4.75 18.15 L4.7 18.35 4.35 18.65 4.15 18.8 3.6 18.9 M2.15 13.2 L1.85 13.2 1.75 13.85 2.1 13.9 M1.85 13.2 L1.85 13.1 Q1.85 12.85 1.4 12.8 M2.1 14.0 Q1.8 14.15 1.9 14.75 L1.85 15.1 M1.75 13.85 L1.55 14.05 M4.0 18.4 L4.5 17.3 4.55 16.3 M-0.05 7.6 L-0.4 7.45" fill="none" stroke="#000000" stroke-linecap="round" stroke-linejoin="round" stroke-width="0.05"/>
    <path d="M7.9 0.1 L8.45 0.4 M6.3 1.1 L6.45 1.4 6.7 1.75 M3.25 2.55 L3.65 1.3 M2.05 4.75 L2.1 4.0 1.75 3.65 M2.95 5.1 L3.5 4.1 6.9 3.65 M0.65 9.4 L1.55 11.4 1.8 12.25 M0.65 9.4 L0.15 7.8 M4.9 7.35 Q6.35 7.85 7.65 7.0 L7.95 6.7 M6.3 8.7 L6.6 11.8 M3.25 18.35 Q2.5 18.3 2.15 17.4 L1.8 16.3 2.35 15.15 M0.0 7.2 Q-0.9 7.1 -0.5 5.05 L0.0 2.4" fill="none" stroke="#ffffff" stroke-linecap="round" stroke-linejoin="round" stroke-width="0.05"/>
    <path d="M5.35 12.55 L4.8 12.75 4.65 12.8 4.0 12.9 3.95 12.95 3.9 13.0 3.95 13.9 4.0 14.5" fill="none" stroke="#ffffff" stroke-linecap="round" stroke-linejoin="round" stroke-width="0.05"/>
  </g>
  <defs>
    <radialGradient cx="0" cy="0" gradientTransform="matrix(0.0094, 0.0, 0.0, 0.0117, 3.6, 6.25)" gradientUnits="userSpaceOnUse" id="gradient0" r="819.2" spreadMethod="pad">
      <stop offset="0.0" stop-color="#fff4e7"/>
      <stop offset="0.5215686274509804" stop-color="#d3c4b2"/>
      <stop offset="1.0" stop-color="#836c58"/>
    </radialGradient>
    <radialGradient cx="0" cy="0" gradientTransform="matrix(0.0028, 0.0, 0.0, 0.0034, 2.85, 16.35)" gradientUnits="userSpaceOnUse" id="gradient1" r="819.2" spreadMethod="pad">
      <stop offset="0.0" stop-color="#cdc2b5"/>
      <stop offset="0.5215686274509804" stop-color="#c1a993"/>
      <stop offset="1.0" stop-color="#836c58"/>
    </radialGradient>
  </defs>
</svg>
