<?xml version="1.0" encoding="UTF-8" standalone="no"?>
<svg xmlns:xlink="http://www.w3.org/1999/xlink" height="20.1px" width="12.55px" xmlns="http://www.w3.org/2000/svg">
  <g transform="matrix(1.0, 0.0, 0.0, 1.0, 0.0, 0.0)">
    <path d="M-0.05 7.6 L-0.35 7.5 -0.4 7.45 -0.25 8.15 -0.2 8.3 -0.1 8.45 -0.05 8.7 0.1 9.15 0.2 9.25 0.35 9.7 0.9 10.7 0.95 10.85 1.15 11.2 1.2 11.3 1.4 12.1 1.4 12.8 Q1.7 12.75 1.85 13.0 L1.85 13.1 1.85 13.2 2.15 13.2 2.15 13.0 Q2.2 12.7 2.55 12.75 L2.85 12.75 2.95 12.8 3.15 13.2 3.65 13.25 3.6 13.0 Q3.55 12.8 3.65 12.65 L3.85 12.5 4.25 12.5 5.65 12.55 5.95 12.65 6.0 12.75 6.05 13.25 6.7 13.4 7.0 13.4 7.2 13.2 7.35 13.15 7.9 13.25 8.0 13.25 7.95 13.5 8.55 13.55 8.55 13.25 9.2 13.1 9.2 12.8 9.25 12.35 9.8 10.55 10.15 9.65 10.6 8.65 10.65 8.45 11.05 7.45 11.1 7.35 11.2 7.15 11.4 6.6 11.45 6.45 11.5 5.6 11.5 3.7 11.45 3.55 11.5 2.65 11.5 1.8 11.5 1.5 11.2 0.65 11.15 0.6 10.7 0.4 10.1 0.1 9.7 -0.05 9.35 -0.15 9.05 -0.25 8.55 -0.4 8.35 -0.45 8.35 -0.4 8.4 -0.35 8.45 0.5 8.3 1.0 8.2 1.1 7.8 1.65 7.25 2.0 7.0 2.1 6.45 2.3 4.65 2.65 4.4 2.65 3.4 2.6 Q2.7 2.55 2.15 2.2 L1.65 1.8 1.55 1.6 Q1.35 1.2 1.55 0.85 1.65 0.65 1.8 0.7 L1.85 0.7 2.25 0.45 2.4 0.35 2.6 0.25 2.7 0.6 2.75 0.65 2.8 0.7 3.2 0.85 3.3 0.9 5.2 1.0 5.4 1.0 6.35 0.7 6.5 0.6 6.75 0.45 7.05 0.25 7.05 0.2 7.2 0.05 7.25 -0.3 7.2 -0.35 7.1 -0.95 6.05 -0.85 5.9 -0.8 5.55 -0.8 5.45 -0.75 5.15 -0.7 5.0 -0.7 4.45 -0.6 4.35 -0.55 3.9 -0.45 3.8 -0.4 2.85 -0.2 2.4 -0.05 2.15 0.05 1.85 0.3 1.75 0.35 1.6 0.45 1.2 0.7 0.9 0.9 0.8 0.9 0.75 0.95 0.55 1.1 0.5 1.1 0.25 1.35 0.2 1.4 -0.3 2.15 -0.6 2.9 -0.7 3.05 -0.8 3.65 -0.9 3.95 -0.9 4.05 -1.05 6.0 -0.85 7.15 -0.75 7.35 -0.65 7.35 -0.4 7.45 M8.35 -0.45 L8.3 -0.5 7.75 -0.9 7.65 -0.95 7.55 -0.95 7.1 -0.95 M7.75 0.8 L7.25 0.4 7.05 0.25 M9.35 6.25 L9.55 4.4 9.65 2.75 M0.35 2.9 L0.7 2.95 2.4 3.5 2.95 3.7 3.05 3.65 5.3 3.2 7.35 2.9 8.35 2.6 M7.1 0.95 L7.7 1.4 M2.65 2.1 L3.05 1.4 M2.15 2.2 L2.45 1.35 2.8 0.7 M2.75 4.4 L2.8 4.15 2.95 3.7 M0.8 9.3 Q0.75 8.7 1.35 8.6 L2.15 8.5 2.8 8.5 4.75 8.55 5.0 8.65 5.2 8.7 5.35 8.8 5.9 9.35 6.0 9.55 6.1 10.55 6.1 11.7 M1.8 7.35 L2.15 6.9 2.15 6.85 2.55 7.35 M4.7 10.6 L3.6 10.35 3.2 10.35 3.25 11.05 3.3 11.6 M2.9 9.35 L3.2 10.35 1.7 10.55 M4.3 7.95 L5.6 8.1 7.4 7.85 7.65 7.85 7.75 7.8 8.15 7.65 8.25 7.6 8.7 6.95 M9.3 7.4 Q8.6 7.9 8.25 8.7 L7.95 9.35 7.7 10.15 7.5 11.1 7.5 11.95 Q7.5 12.25 7.65 12.4 M9.6 13.45 L9.6 13.5 9.65 13.8 9.65 14.6 9.7 14.7 9.7 14.75 9.85 14.95 10.1 15.0 10.15 14.95 10.15 14.25 10.1 13.95 10.05 13.75 Q9.95 13.4 9.6 13.45 L9.55 13.2 9.5 13.05 9.2 13.1 M7.95 13.5 L7.85 14.1 7.85 14.45 8.8 14.4 8.7 14.1 8.55 13.55 M7.85 14.45 L7.85 14.5 7.7 14.7 7.6 14.75 7.4 14.8 7.2 14.9 7.1 14.95 7.0 14.55 6.2 14.5 6.25 14.8 6.2 15.0 5.95 15.15 5.1 15.15 4.85 15.1 4.75 15.1 5.05 15.6 5.1 15.7 5.2 15.95 5.3 16.15 5.45 16.65 5.5 16.85 5.55 17.85 5.3 18.5 5.05 18.8 6.25 18.8 6.45 18.75 7.55 18.7 8.05 18.7 8.55 18.55 8.7 18.55 9.0 18.4 9.2 18.05 9.25 18.0 9.55 17.6 9.55 17.5 9.7 17.25 9.7 17.2 9.75 17.15 9.95 16.7 10.0 16.5 10.1 16.3 10.05 15.9 9.9 15.3 9.9 15.1 9.85 15.05 9.85 14.95 M8.8 14.4 Q8.85 14.75 9.2 14.8 L9.35 14.8 9.65 14.75 9.7 14.75 M7.0 14.55 L7.0 14.45 6.95 13.8 Q6.9 13.55 7.0 13.4 M5.45 13.25 L5.4 13.25 4.65 13.15 4.45 13.15 Q4.3 13.1 4.3 13.25 4.15 13.75 4.4 14.2 L4.45 14.25 5.35 14.35 5.45 14.3 5.55 13.9 5.45 13.95 5.0 13.9 4.7 13.7 5.05 13.6 5.5 13.7 5.45 13.25 M5.55 13.9 L5.55 13.85 5.55 13.75 5.5 13.7 M6.2 14.5 L6.2 13.95 6.15 13.6 6.05 13.25 M3.15 13.2 L3.1 13.3 3.0 13.7 2.9 14.3 3.35 14.35 3.65 14.35 3.65 14.1 3.65 13.25 M2.9 14.3 L2.85 14.5 2.8 14.55 2.65 14.6 2.2 14.3 2.15 14.1 2.1 14.0 2.05 14.0 1.9 14.4 1.95 14.75 1.85 15.1 1.8 15.15 1.65 15.65 1.5 16.25 1.45 16.55 Q1.35 17.2 1.7 17.75 L1.8 17.95 2.55 18.65 2.85 18.75 2.9 18.8 3.1 18.8 3.2 18.85 3.6 18.9 4.05 18.8 4.15 18.8 4.35 18.65 4.4 18.6 4.7 18.35 4.75 18.15 4.85 17.9 5.0 17.05 4.9 16.4 4.65 15.7 4.5 15.5 4.35 15.1 3.8 14.95 3.75 14.9 3.65 14.35 M4.75 15.1 L4.35 15.1 M1.4 12.8 L1.35 12.8 1.05 12.95 1.05 13.05 1.05 13.65 1.05 13.75 Q1.0 14.0 1.2 14.05 L1.55 14.05 1.65 14.0 1.75 13.85 1.85 13.2 M1.75 13.85 L2.1 13.9 2.1 13.25 2.15 13.2 M2.1 14.0 L2.1 13.95 2.1 13.9 M1.55 14.05 L1.6 14.25 1.75 14.75 1.8 14.85 1.85 15.1 M4.55 16.3 Q4.6 17.3 4.15 18.15 L4.0 18.4 M3.6 18.9 L3.7 18.95 3.8 19.0 4.2 19.1 4.6 19.05 4.7 19.05 5.0 18.85 5.05 18.8" fill="none" stroke="#000000" stroke-linecap="round" stroke-linejoin="round" stroke-width="0.05"/>
  </g>
</svg>
