<?xml version="1.0" encoding="UTF-8" standalone="no"?>
<svg xmlns:xlink="http://www.w3.org/1999/xlink" height="14.5px" width="6.05px" xmlns="http://www.w3.org/2000/svg">
  <g transform="matrix(1.0, 0.0, 0.0, 1.0, 0.0, 0.0)">
    <path d="M4.1 5.05 L4.55 5.65 4.1 5.05 M3.0 3.45 L3.5 4.95 3.0 3.45 M0.1 3.55 L0.1 0.35 3.1 0.45 4.35 2.4 Q4.8 3.5 4.65 4.7 L4.55 5.65 Q4.05 7.25 4.0 8.95 L4.0 9.6 Q3.7 11.3 3.65 13.1 L3.7 14.6 1.4 14.5 0.95 11.0 0.6 9.05 0.25 7.0 0.1 3.55 M1.35 7.35 L2.1 9.15 1.35 7.35 M1.9 4.5 L2.55 7.15 1.9 4.5 M2.7 10.8 L3.15 12.4 2.7 10.8" fill="#ffcc99" fill-rule="evenodd" stroke="none"/>
    <path d="M3.5 4.95 L3.0 3.45 M4.55 5.65 L4.1 5.05 M0.1 3.55 L0.1 0.35 M3.1 0.45 L4.35 2.4 5.65 3.35 M4.35 2.4 Q4.8 3.5 4.65 4.7 L4.55 5.65 5.15 6.95 M0.6 9.05 L0.25 7.0 -0.15 8.2 M4.0 8.95 L4.0 9.6 4.0 9.35 4.0 8.95 Q4.05 7.25 4.55 5.65 M0.95 11.0 L0.6 9.05 0.2 10.8 M4.0 9.6 L4.4 10.7 M2.1 9.15 L1.35 7.35 M0.25 7.0 L0.1 3.55 -0.4 5.25 M2.55 7.15 L1.9 4.5 M4.0 9.6 Q3.7 11.3 3.65 13.1 L3.7 14.6 1.4 14.5 0.95 11.0 0.55 12.4 M3.15 12.4 L2.7 10.8" fill="none" stroke="#000000" stroke-linecap="round" stroke-linejoin="round" stroke-width="0.05"/>
  </g>
</svg>
