<?xml version="1.0" encoding="UTF-8" standalone="no"?>
<svg xmlns:xlink="http://www.w3.org/1999/xlink" height="16.0px" width="7.05px" xmlns="http://www.w3.org/2000/svg">
  <g transform="matrix(1.0, 0.0, 0.0, 1.0, 0.0, 0.0)">
    <path d="M5.25 4.0 Q3.5 5.05 1.5 5.3 L-0.2 5.65 0.0 2.85 Q1.75 2.7 3.3 1.85 L4.5 1.2 5.25 4.0 M-0.2 7.05 L0.95 6.8 4.4 5.85 4.4 5.9 Q3.1 7.05 1.4 7.85 L-0.25 8.7 -0.2 7.05 M-0.35 10.4 L0.2 10.0 3.35 8.0 5.5 6.25 5.65 9.9 Q5.5 11.8 5.95 13.6 L6.15 14.9 6.15 15.5 -0.85 15.25 -0.35 10.4" fill="#845125" fill-rule="evenodd" stroke="none"/>
    <path d="M5.4 4.85 L5.35 4.85 5.4 4.85 5.5 6.25 3.35 8.0 0.2 10.0 -0.35 10.4 -0.25 8.7 1.4 7.85 Q3.1 7.05 4.4 5.9 L4.55 5.8 4.4 5.85 0.95 6.8 -0.2 7.05 -0.2 5.65 1.5 5.3 Q3.5 5.05 5.25 4.0 L5.4 4.85 M5.35 4.85 L4.55 5.8 5.35 4.85 M6.15 15.5 L6.2 16.9 -0.7 16.7 -0.85 15.25 6.15 15.5" fill="#663c1e" fill-rule="evenodd" stroke="none"/>
    <path d="M5.4 4.85 L5.35 4.85 4.55 5.8 4.4 5.85 0.95 6.8 -0.2 7.05 -0.2 5.65 1.5 5.3 Q3.5 5.05 5.25 4.0 L4.5 1.2 M5.4 4.85 L5.25 4.0 M4.4 5.9 L4.55 5.8 M4.4 5.9 Q3.1 7.05 1.4 7.85 L-0.25 8.7 -0.35 10.4 0.2 10.0 3.35 8.0 5.5 6.25 5.4 4.85 M0.0 2.85 L-0.2 5.65 M5.5 6.25 L5.65 9.9 Q5.5 11.8 5.95 13.6 L6.15 14.9 6.15 15.5 6.2 16.9 -0.7 16.7 -0.85 15.25 -0.35 10.4 M-0.25 8.7 L-0.2 7.05 M6.15 15.5 L-0.85 15.25" fill="none" stroke="#000000" stroke-linecap="round" stroke-linejoin="round" stroke-width="0.05"/>
  </g>
</svg>
