<?xml version="1.0" encoding="UTF-8" standalone="no"?>
<svg xmlns:xlink="http://www.w3.org/1999/xlink" height="4.2px" width="14.7px" xmlns="http://www.w3.org/2000/svg">
  <g transform="matrix(1.0, 0.0, 0.0, 1.0, 0.0, 0.0)">
    <path d="M2.55 0.55 L2.45 1.1 Q2.3 2.55 2.8 3.3 L1.95 3.2 0.6 2.95 0.6 0.8 0.9 0.7 2.55 0.55" fill="#ffcc99" fill-rule="evenodd" stroke="none"/>
    <path d="M11.1 0.55 L11.4 1.45 11.6 1.9 11.85 2.0 12.95 1.9 13.55 1.85 14.2 1.5 14.25 1.35 13.85 0.2 14.65 0.5 Q15.75 1.75 15.05 3.05 L14.85 3.4 13.0 3.6 11.6 3.7 11.05 3.0 Q8.95 2.8 6.85 3.45 L3.5 4.2 3.25 4.05 2.8 3.3 Q2.3 2.55 2.45 1.1 L2.55 0.55 2.85 0.05 7.3 0.6 Q9.25 0.9 11.1 0.55 M14.4 2.1 L14.9 2.65 15.05 3.05 14.9 2.65 14.4 2.1 M13.9 2.6 L13.2 2.65 Q13.1 2.65 13.05 2.75 12.95 3.1 13.0 3.6 12.95 3.1 13.05 2.75 13.1 2.65 13.2 2.65 L13.9 2.6 M3.0 1.15 L3.15 2.65 3.2 2.85 3.5 3.3 3.2 2.85 3.15 2.65 3.0 1.15" fill="#5b4937" fill-rule="evenodd" stroke="none"/>
    <path d="M13.85 0.2 L14.25 1.35 14.2 1.5 13.55 1.85 12.95 1.9 11.85 2.0 11.6 1.9 11.4 1.45 11.1 0.55 12.15 0.25 12.7 0.0 13.85 0.2" fill="#6f5943" fill-rule="evenodd" stroke="none"/>
    <path d="M11.1 0.55 L11.4 1.45 11.6 1.9 11.85 2.0 12.95 1.9 13.55 1.85 14.2 1.5 14.25 1.35 13.85 0.2 12.7 0.0 12.15 0.25 11.1 0.55 Q9.25 0.9 7.3 0.6 L2.85 0.05 2.55 0.55 2.45 1.1 Q2.3 2.55 2.8 3.3 L3.25 4.05 3.5 4.2 6.85 3.45 Q8.95 2.8 11.05 3.0 L11.6 3.7 13.0 3.6 Q12.95 3.1 13.05 2.75 13.1 2.65 13.2 2.65 L13.9 2.6 M15.05 3.05 L14.9 2.65 14.4 2.1 M13.85 0.2 L14.65 0.5 Q15.75 1.75 15.05 3.05 L14.85 3.4 13.0 3.6 M3.5 3.3 L3.2 2.85 3.15 2.65 3.0 1.15 M0.6 0.8 L0.9 0.7 2.55 0.55 M2.8 3.3 L1.95 3.2 0.6 2.95" fill="none" stroke="#000000" stroke-linecap="round" stroke-linejoin="round" stroke-width="0.05"/>
  </g>
</svg>
