<?xml version="1.0" encoding="UTF-8" standalone="no"?>
<svg xmlns:xlink="http://www.w3.org/1999/xlink" height="20.8px" width="5.4px" xmlns="http://www.w3.org/2000/svg">
  <g transform="matrix(1.0, 0.0, 0.0, 1.0, 0.0, 0.0)">
    <path d="M-0.45 -2.7 Q-2.05 -8.05 -1.5 -11.6 -1.05 -15.0 2.2 -16.35 L1.2 -13.55 0.55 -13.15 Q0.05 -12.65 0.05 -11.9 0.05 -11.15 0.55 -10.65 0.85 -10.35 1.25 -10.2 0.15 -5.85 0.85 -2.75 L0.1 -2.75 -0.45 -2.7 M-0.45 -13.25 Q-1.95 -8.95 0.1 -2.75 -1.95 -8.95 -0.45 -13.25" fill="url(#gradient0)" fill-rule="evenodd" stroke="none"/>
    <path d="M0.85 -2.75 L1.55 -2.45 Q2.0 -2.15 2.4 -2.1 L0.7 -2.15 -0.55 -2.0 Q-2.8 -1.3 -2.8 1.45 -3.25 -0.45 -2.55 -1.55 -1.9 -2.6 -0.45 -2.7 L0.1 -2.75 0.85 -2.75 M0.7 2.25 L0.7 3.2 -0.55 4.45 -0.55 3.5 0.7 2.25" fill="#8c5e2f" fill-rule="evenodd" stroke="none"/>
    <path d="M0.7 -2.15 L0.7 2.25 -0.55 3.5 -0.55 -2.0 0.7 -2.15" fill="#3a2e1f" fill-rule="evenodd" stroke="none"/>
    <path d="M-0.45 -2.7 Q-2.05 -8.05 -1.5 -11.6 -1.05 -15.0 2.2 -16.35 L1.2 -13.55 0.55 -13.15 Q0.05 -12.65 0.05 -11.9 0.05 -11.15 0.55 -10.65 0.85 -10.35 1.25 -10.2 0.15 -5.85 0.85 -2.75 L1.55 -2.45 Q2.0 -2.15 2.4 -2.1 L0.7 -2.15 0.7 2.25 0.7 3.2 -0.55 4.45 -0.55 3.5 -0.55 -2.0 Q-2.8 -1.3 -2.8 1.45 -3.25 -0.45 -2.55 -1.55 -1.9 -2.6 -0.45 -2.7 L0.1 -2.75 0.85 -2.75 M0.7 -2.15 L-0.55 -2.0 M-0.55 3.5 L0.7 2.25" fill="none" stroke="#000000" stroke-linecap="round" stroke-linejoin="round" stroke-width="0.05"/>
    <path d="M0.1 -2.75 Q-1.95 -8.95 -0.45 -13.25" fill="none" stroke="#ffcccc" stroke-linecap="round" stroke-linejoin="round" stroke-width="0.05"/>
  </g>
  <defs>
    <linearGradient gradientTransform="matrix(0.0, -0.0071, 0.0083, 0.0, 0.25, -9.55)" gradientUnits="userSpaceOnUse" id="gradient0" spreadMethod="pad" x1="-819.2" x2="819.2">
      <stop offset="0.0" stop-color="#301f14"/>
      <stop offset="0.2980392156862745" stop-color="#c4643c"/>
      <stop offset="0.5411764705882353" stop-color="#542814"/>
      <stop offset="0.788235294117647" stop-color="#d75c28"/>
      <stop offset="1.0" stop-color="#753212"/>
    </linearGradient>
  </defs>
</svg>
