<?xml version="1.0" encoding="UTF-8" standalone="no"?>
<svg xmlns:xlink="http://www.w3.org/1999/xlink" height="17.95px" width="4.4px" xmlns="http://www.w3.org/2000/svg">
  <g transform="matrix(1.0, 0.0, 0.0, 1.0, 0.0, 0.0)">
    <path d="M1.0 -3.9 L0.95 -3.8 2.25 -4.55 2.25 -4.3 1.65 -3.15 0.75 -1.9 0.6 -1.8 0.6 -1.7 Q0.8 0.05 0.55 1.7 L0.65 2.05 Q0.75 2.6 0.25 2.85 L0.05 2.95 -0.2 2.85 Q-0.7 2.6 -0.55 2.05 L-0.45 1.7 Q-0.75 0.05 -0.5 -1.7 L-0.5 -1.8 -0.7 -1.9 -1.55 -3.15 -2.15 -4.3 -2.15 -4.55 -0.9 -3.8 Q-0.55 -3.1 -0.1 -3.1 L1.0 -3.9" fill="#3a371f" fill-rule="evenodd" stroke="none"/>
    <path d="M-0.9 -3.8 L-0.95 -3.95 -1.45 -5.7 -1.4 -8.25 -1.1 -11.4 -0.5 -13.95 0.05 -15.0 0.55 -13.95 1.15 -11.4 1.5 -8.25 1.5 -5.7 1.0 -3.9 -0.1 -3.1 Q-0.55 -3.1 -0.9 -3.8 M-0.1 -12.75 L-0.1 -3.1 -0.1 -12.75" fill="url(#gradient0)" fill-rule="evenodd" stroke="none"/>
    <path d="M-0.1 -3.1 L-0.1 -12.75" fill="none" stroke="#000000" stroke-linecap="round" stroke-linejoin="round" stroke-width="0.05"/>
  </g>
  <defs>
    <linearGradient gradientTransform="matrix(0.0017, 0.0, 0.0, 0.0228, 0.0, -22.1)" gradientUnits="userSpaceOnUse" id="gradient0" spreadMethod="pad" x1="-819.2" x2="819.2">
      <stop offset="0.0" stop-color="#ffffff"/>
      <stop offset="0.2" stop-color="#d3cbc5"/>
      <stop offset="1.0" stop-color="#917c6f"/>
    </linearGradient>
  </defs>
</svg>
