<?xml version="1.0" encoding="UTF-8" standalone="no"?>
<svg xmlns:xlink="http://www.w3.org/1999/xlink" height="39.1px" width="12.3px" xmlns="http://www.w3.org/2000/svg">
  <g transform="matrix(1.0, 0.0, 0.0, 1.0, 0.0, 0.0)">
    <path d="M-1.15 -7.4 L-0.8 -29.4 Q0.1 -33.05 1.4 -33.8 L1.4 -7.7 0.45 -5.95 -0.25 -5.95 -0.7 -6.7 -1.15 -7.4 M1.0 -33.05 Q0.1 -31.7 -0.25 -30.0 L-0.7 -6.7 -0.25 -30.0 Q0.1 -31.7 1.0 -33.05" fill="url(#gradient0)" fill-rule="evenodd" stroke="none"/>
    <path d="M0.6 -1.0 L0.6 4.85 Q0.15 5.8 -0.3 4.85 L-0.3 -0.8 -0.2 -0.95 0.15 -0.95 0.6 -1.0 M0.15 4.65 L0.15 -0.95 0.15 4.65" fill="#8d704b" fill-rule="evenodd" stroke="none"/>
    <path d="M1.4 -7.7 L2.5 -9.75 1.55 -5.45 1.0 -5.8 0.45 -5.95 1.4 -7.7 M2.05 -5.05 L6.2 -6.25 2.55 -4.0 2.35 -4.5 2.05 -5.05 M2.6 -3.3 L6.3 -1.15 2.2 -2.1 2.4 -2.55 2.6 -3.3 M1.7 -1.55 L2.85 2.4 0.7 -1.05 1.1 -1.2 1.7 -1.55 M-0.3 -0.8 L-2.2 2.55 -1.3 -1.35 -0.8 -1.1 -0.2 -0.95 -0.3 -0.8 M-1.95 -2.0 L-5.8 -0.9 -2.4 -3.0 -2.2 -2.45 -1.95 -2.0 M-2.35 -3.9 L-6.0 -5.9 -1.9 -5.0 -2.25 -4.35 -2.35 -3.9 M-1.3 -5.55 L-2.5 -9.6 -1.15 -7.4 -0.7 -6.7 -0.25 -5.95 -0.95 -5.75 -1.3 -5.55" fill="url(#gradient1)" fill-rule="evenodd" stroke="none"/>
    <path d="M1.55 -5.45 L2.05 -5.05 2.35 -4.5 2.55 -4.0 2.6 -3.3 2.4 -2.55 2.2 -2.1 1.7 -1.55 1.1 -1.2 0.7 -1.05 0.6 -1.0 0.15 -0.95 -0.2 -0.95 -0.8 -1.1 -1.3 -1.35 -1.95 -2.0 -2.2 -2.45 -2.4 -3.0 -2.35 -3.9 -2.25 -4.35 -1.9 -5.0 -1.3 -5.55 -0.95 -5.75 -0.25 -5.95 0.45 -5.95 1.0 -5.8 1.55 -5.45" fill="url(#gradient2)" fill-rule="evenodd" stroke="none"/>
    <path d="M0.15 -0.95 L0.15 4.65" fill="none" stroke="#ffff99" stroke-linecap="round" stroke-linejoin="round" stroke-width="0.05"/>
    <path d="M-0.7 -6.7 L-0.25 -30.0 Q0.1 -31.7 1.0 -33.05" fill="none" stroke="#ffffff" stroke-linecap="round" stroke-linejoin="round" stroke-width="0.05"/>
  </g>
  <defs>
    <linearGradient gradientTransform="matrix(0.0016, 0.0, 0.0, 0.0184, 0.1, -18.7)" gradientUnits="userSpaceOnUse" id="gradient0" spreadMethod="pad" x1="-819.2" x2="819.2">
      <stop offset="0.0" stop-color="#ffffff"/>
      <stop offset="0.2" stop-color="#f5e8a0"/>
      <stop offset="1.0" stop-color="#a78e58"/>
    </linearGradient>
    <radialGradient cx="0" cy="0" gradientTransform="matrix(0.0075, 0.0029, -0.0029, 0.0075, 0.2, -3.6)" gradientUnits="userSpaceOnUse" id="gradient1" r="819.2" spreadMethod="pad">
      <stop offset="0.0" stop-color="#ffffff"/>
      <stop offset="0.2" stop-color="#f5e8a0"/>
      <stop offset="1.0" stop-color="#a78e58"/>
    </radialGradient>
    <radialGradient cx="0" cy="0" gradientTransform="matrix(0.0037, 0.0014, -0.0014, 0.0037, 0.1, -3.45)" gradientUnits="userSpaceOnUse" id="gradient2" r="819.2" spreadMethod="pad">
      <stop offset="0.0" stop-color="#ffffff"/>
      <stop offset="0.2" stop-color="#f5e8a0"/>
      <stop offset="1.0" stop-color="#a78e58"/>
    </radialGradient>
  </defs>
</svg>
