<?xml version="1.0" encoding="UTF-8" standalone="no"?>
<svg xmlns:xlink="http://www.w3.org/1999/xlink" height="3.7px" width="14.7px" xmlns="http://www.w3.org/2000/svg">
  <g transform="matrix(1.0, 0.0, 0.0, 1.0, 0.0, 0.0)">
    <path d="M9.7 0.7 L11.55 0.45 12.7 0.0 Q14.5 0.0 14.85 0.85 15.8 2.2 14.85 3.4 L11.6 3.7 11.05 3.0 9.9 2.85 9.65 1.9 9.6 1.0 9.65 0.85 9.7 0.75 9.7 0.7 M9.05 2.9 L7.9 3.0 4.6 3.5 2.25 3.7 Q1.1 3.6 0.6 2.95 L0.6 0.8 0.9 0.7 Q4.7 0.2 8.65 0.75 L8.7 0.75 8.6 1.35 8.65 1.5 8.65 1.75 8.7 1.95 8.7 2.0 9.05 2.9" fill="#ffcc99" fill-rule="evenodd" stroke="none"/>
    <path d="M9.7 0.7 L9.7 0.75 9.65 0.85 9.6 1.0 9.65 1.9 9.9 2.85 9.05 2.9 8.7 2.0 8.7 1.95 8.65 1.75 8.65 1.5 8.6 1.35 8.7 0.75 9.7 0.7 M9.65 1.9 L9.45 1.9 9.1 1.9 8.7 1.95 9.1 1.9 9.45 1.9 9.65 1.9" fill="#e2bf3f" fill-rule="evenodd" stroke="none"/>
    <path d="M9.9 2.85 L11.05 3.0 11.6 3.7 14.85 3.4 Q15.8 2.2 14.85 0.85 14.5 0.0 12.7 0.0 L11.55 0.45 9.7 0.7 9.7 0.75 9.65 0.85 9.6 1.0 9.65 1.9 9.9 2.85 9.05 2.9 7.9 3.0 4.6 3.5 2.25 3.7 Q1.1 3.6 0.6 2.95 M0.6 0.8 L0.9 0.7 Q4.7 0.2 8.65 0.75 L8.7 0.75 9.7 0.7 M9.05 2.9 L8.7 2.0 8.7 1.95 8.65 1.75 8.65 1.5 8.6 1.35 8.7 0.75" fill="none" stroke="#000000" stroke-linecap="round" stroke-linejoin="round" stroke-width="0.05"/>
    <path d="M8.7 1.95 L9.1 1.9 9.45 1.9 9.65 1.9" fill="none" stroke="#ffffff" stroke-linecap="round" stroke-linejoin="round" stroke-width="0.05"/>
  </g>
</svg>
