<?xml version="1.0" encoding="UTF-8" standalone="no"?>
<svg xmlns:xlink="http://www.w3.org/1999/xlink" height="5.1px" width="10.6px" xmlns="http://www.w3.org/2000/svg">
  <g transform="matrix(1.0, 0.0, 0.0, 1.0, 0.0, 0.0)">
    <path d="M10.35 1.0 L10.75 1.5 10.9 2.45 Q11.0 3.1 10.65 3.65 L9.2 3.75 6.75 3.85 4.95 3.95 5.2 2.45 5.6 0.8 7.0 0.9 10.35 1.0" fill="#ffcc99" fill-rule="evenodd" stroke="none"/>
    <path d="M4.4 -0.35 L4.65 -0.4 5.1 -0.1 5.45 0.15 5.6 0.8 5.2 2.45 4.95 3.95 4.8 4.15 4.45 4.4 3.05 4.65 2.5 4.35 1.55 3.85 Q0.55 3.2 0.3 2.6 0.3 1.95 0.6 1.55 1.25 0.85 2.1 0.35 3.0 -0.3 4.4 -0.35 L4.3 0.95 3.7 2.8 4.3 0.95 4.4 -0.35 M5.0 0.35 L5.1 -0.1 5.0 0.35" fill="#ff99ff" fill-rule="evenodd" stroke="none"/>
    <path d="M5.1 -0.1 L4.65 -0.4 4.4 -0.35 4.3 0.95 3.7 2.8 M10.35 1.0 L7.0 0.9 5.6 0.8 5.2 2.45 4.95 3.95 6.75 3.85 9.2 3.75 10.65 3.65 M5.6 0.8 L5.45 0.15 5.1 -0.1 5.0 0.35 M4.4 -0.35 Q3.0 -0.3 2.1 0.35 1.25 0.85 0.6 1.55 0.3 1.95 0.3 2.6" fill="none" stroke="#000000" stroke-linecap="round" stroke-linejoin="round" stroke-width="0.05"/>
  </g>
</svg>
