<?xml version="1.0" encoding="UTF-8" standalone="no"?>
<svg xmlns:xlink="http://www.w3.org/1999/xlink" height="15.4px" width="6.2px" xmlns="http://www.w3.org/2000/svg">
  <g transform="matrix(1.0, 0.0, 0.0, 1.0, 0.0, 0.0)">
    <path d="M0.0 3.8 Q0.05 2.7 0.25 2.2 L0.85 1.2 1.55 0.6 Q2.25 0.15 3.0 0.05 4.2 0.2 4.5 0.55 L5.3 1.35 Q5.8 1.8 5.95 2.45 L6.15 3.8 6.15 4.1 6.1 4.1 0.0 3.8 M3.2 3.1 Q4.5 3.05 5.75 3.55 4.5 3.05 3.2 3.1" fill="#ff99ff" fill-rule="evenodd" stroke="none"/>
    <path d="M6.15 4.1 L6.1 5.75 5.35 9.7 4.45 13.3 Q4.15 14.2 4.3 14.85 L4.1 15.45 2.6 15.35 1.6 15.3 0.95 15.2 0.95 14.6 0.7 12.5 0.2 8.75 -0.05 4.9 0.0 3.8 6.1 4.1 6.15 4.1" fill="#ffcc99" fill-rule="evenodd" stroke="none"/>
    <path d="M6.15 4.1 L6.1 5.75 5.35 9.7 4.45 13.3 Q4.15 14.2 4.3 14.85 L4.1 15.45 M0.95 15.2 L0.95 14.6 0.7 12.5 0.2 8.75 -0.05 4.9 0.0 3.8 Q0.05 2.7 0.25 2.2 M5.95 2.45 L6.15 3.8 6.15 4.1 6.1 4.1 0.0 3.8 M5.75 3.55 Q4.5 3.05 3.2 3.1" fill="none" stroke="#000000" stroke-linecap="round" stroke-linejoin="round" stroke-width="0.05"/>
  </g>
</svg>
