<?xml version="1.0" encoding="UTF-8" standalone="no"?>
<svg xmlns:xlink="http://www.w3.org/1999/xlink" height="6.2px" width="7.35px" xmlns="http://www.w3.org/2000/svg">
  <g transform="matrix(1.0, 0.0, 0.0, 1.0, 0.0, 0.0)">
    <path d="M3.1 2.8 L3.7 2.45 4.4 1.8 4.75 1.15 Q4.9 0.65 5.5 -0.15 L7.8 -0.5 Q8.95 2.1 7.95 4.5 5.4 5.7 2.85 5.7 1.6 5.7 1.05 4.55 L1.75 3.65 3.1 2.8 3.7 3.0 3.1 2.8 M6.15 0.4 L5.8 0.95 Q4.95 2.2 3.7 3.0 4.95 2.2 5.8 0.95 L6.15 0.4 M8.05 3.15 L7.5 3.2 7.55 3.05 7.0 2.05 Q6.15 1.85 5.9 2.6 6.1 3.45 6.95 3.75 L4.6 4.25 4.35 3.85 4.1 3.3 3.7 3.0 4.1 3.3 4.35 3.85 4.6 4.25 6.95 3.75 Q6.1 3.45 5.9 2.6 6.15 1.85 7.0 2.05 L7.55 3.05 7.5 3.2 8.05 3.15 M1.9 4.4 Q2.3 3.6 3.3 3.15 L3.7 3.0 3.3 3.15 Q2.3 3.6 1.9 4.4" fill="url(#gradient0)" fill-rule="evenodd" stroke="none"/>
    <path d="M3.1 2.8 L1.75 3.65 1.05 4.55 Q1.6 5.7 2.85 5.7 5.4 5.7 7.95 4.5 8.95 2.1 7.8 -0.5 L5.5 -0.15 Q4.9 0.65 4.75 1.15 L4.4 1.8 3.7 2.45 3.1 2.8 3.7 3.0 4.1 3.3 4.35 3.85 4.6 4.25 6.95 3.75 Q6.1 3.45 5.9 2.6 6.15 1.85 7.0 2.05 L7.55 3.05 7.5 3.2 8.05 3.15" fill="none" stroke="#000000" stroke-linecap="round" stroke-linejoin="round" stroke-width="0.05"/>
    <path d="M3.7 3.0 Q4.95 2.2 5.8 0.95 L6.15 0.4 M3.7 3.0 L3.3 3.15 Q2.3 3.6 1.9 4.4" fill="none" stroke="#ffffff" stroke-linecap="round" stroke-linejoin="round" stroke-width="0.05"/>
  </g>
  <defs>
    <radialGradient cx="0" cy="0" gradientTransform="matrix(0.0053, 0.0, 0.0, 0.0053, 4.75, 2.6)" gradientUnits="userSpaceOnUse" id="gradient0" r="819.2" spreadMethod="pad">
      <stop offset="0.0" stop-color="#ececec"/>
      <stop offset="1.0" stop-color="#a0a0a0"/>
    </radialGradient>
  </defs>
</svg>
