<?xml version="1.0" encoding="UTF-8" standalone="no"?>
<svg xmlns:xlink="http://www.w3.org/1999/xlink" height="5.95px" width="6.9px" xmlns="http://www.w3.org/2000/svg">
  <g transform="matrix(1.0, 0.0, 0.0, 1.0, 0.0, 0.0)">
    <path d="M4.65 1.4 L4.75 1.15 Q4.9 0.65 5.5 -0.15 L7.8 -0.5 Q8.95 2.1 7.95 4.5 L3.5 5.45 Q1.6 5.6 1.5 4.65 L1.95 4.0 3.7 2.45 3.9 2.25 4.45 2.55 4.6 2.35 5.2 1.6 4.6 2.35 4.45 2.55 3.9 2.25 4.4 1.8 4.65 1.4 5.2 1.6 5.35 1.35 5.7 0.75 5.35 1.35 5.2 1.6 4.65 1.4 M3.55 3.4 L4.45 2.55 4.7 2.65 5.05 2.9 5.15 3.15 5.05 2.9 4.7 2.65 4.45 2.55 3.55 3.4 M5.95 2.15 L5.75 1.85 5.2 1.6 5.75 1.85 5.95 2.15" fill="#ffffff" fill-rule="evenodd" stroke="none"/>
    <path d="M3.9 2.25 L3.7 2.45 1.95 4.0 1.5 4.65 Q1.6 5.6 3.5 5.45 L7.95 4.5 Q8.95 2.1 7.8 -0.5 L5.5 -0.15 Q4.9 0.65 4.75 1.15 L4.65 1.4 5.2 1.6 5.35 1.35 5.7 0.75 M5.2 1.6 L5.75 1.85 5.95 2.15 M5.15 3.15 L5.05 2.9 4.7 2.65 4.45 2.55 3.55 3.4 M3.9 2.25 L4.45 2.55 4.6 2.35 5.2 1.6 M4.65 1.4 L4.4 1.8 3.9 2.25" fill="none" stroke="#000000" stroke-linecap="round" stroke-linejoin="round" stroke-width="0.05"/>
  </g>
</svg>
