<?xml version="1.0" encoding="UTF-8" standalone="no"?>
<svg xmlns:xlink="http://www.w3.org/1999/xlink" height="15.95px" width="6.35px" xmlns="http://www.w3.org/2000/svg">
  <g transform="matrix(1.0, 0.0, 0.0, 1.0, 0.0, 0.0)">
    <path d="M3.05 0.9 L3.15 0.95 4.25 2.1 4.65 3.25 3.05 3.45 1.45 3.5 Q0.65 3.45 0.2 3.05 L0.2 2.95 0.15 0.05 1.95 0.25 Q2.55 0.5 3.05 0.9" fill="#ffcc99" fill-rule="evenodd" stroke="none"/>
    <path d="M4.65 3.25 Q5.05 3.3 5.4 4.5 5.75 5.65 5.55 6.35 L4.75 6.35 4.55 6.35 0.3 6.45 Q-0.7 6.05 -0.5 4.65 -0.3 3.2 0.1 3.0 L0.2 3.05 Q0.65 3.45 1.45 3.5 L3.05 3.45 4.65 3.25 M1.15 4.35 L1.7 4.55 4.05 4.15 1.7 4.55 1.15 4.35" fill="#ffffff" fill-rule="evenodd" stroke="none"/>
    <path d="M4.75 6.35 L4.6 7.75 4.5 9.15 4.65 10.75 5.05 12.5 5.6 13.75 Q5.95 14.65 5.75 15.5 L5.75 15.75 0.8 15.5 0.1 15.25 0.05 15.15 Q0.65 10.7 0.3 6.45 L4.55 6.35 4.75 6.35 M1.8 14.85 L1.85 14.3 1.85 12.45 1.85 14.3 1.8 14.85 M4.65 15.0 L4.45 14.65 4.15 12.95 4.0 11.6 4.15 12.95 4.45 14.65 4.65 15.0 M3.2 15.15 L3.1 13.8 3.2 15.15" fill="url(#gradient0)" fill-rule="evenodd" stroke="none"/>
    <path d="M3.05 0.9 L3.15 0.95 4.25 2.1 4.65 3.25 Q5.05 3.3 5.4 4.5 5.75 5.65 5.55 6.35 L4.75 6.35 4.6 7.75 4.5 9.15 4.65 10.75 5.05 12.5 5.6 13.75 Q5.95 14.65 5.75 15.5 L5.75 15.75 0.8 15.5 0.1 15.25 0.05 15.15 Q0.65 10.7 0.3 6.45 -0.7 6.05 -0.5 4.65 -0.3 3.2 0.1 3.0 L0.2 2.95 0.15 0.05 M0.2 3.05 L0.1 3.0 M0.2 3.05 L0.2 2.95 M4.05 4.15 L1.7 4.55 1.15 4.35 M4.65 3.25 L3.05 3.45 1.45 3.5 Q0.65 3.45 0.2 3.05 M0.3 6.45 L4.55 6.35 4.75 6.35 M3.1 13.8 L3.2 15.15 M4.0 11.6 L4.15 12.95 4.45 14.65 4.65 15.0 M1.85 12.45 L1.85 14.3 1.8 14.85" fill="none" stroke="#000000" stroke-linecap="round" stroke-linejoin="round" stroke-width="0.05"/>
  </g>
  <defs>
    <linearGradient gradientTransform="matrix(0.0, 0.0035, -0.0057, 0.0, 2.9, 11.05)" gradientUnits="userSpaceOnUse" id="gradient0" spreadMethod="pad" x1="-819.2" x2="819.2">
      <stop offset="0.0" stop-color="#ffffff"/>
      <stop offset="1.0" stop-color="#e8bdf0"/>
    </linearGradient>
  </defs>
</svg>
