<?xml version="1.0" encoding="UTF-8" standalone="no"?>
<svg xmlns:xlink="http://www.w3.org/1999/xlink" height="20.85px" width="12.45px" xmlns="http://www.w3.org/2000/svg">
  <g transform="matrix(1.0, 0.0, 0.0, 1.0, 0.0, 0.0)">
    <path d="M9.0 14.0 L9.5 14.65 10.1 15.5 10.75 16.6 11.2 17.7 11.0 17.85 10.1 18.2 9.7 18.15 9.5 18.15 8.05 18.75 6.3 19.3 Q4.85 19.5 3.75 18.65 L2.95 18.05 2.0 17.25 1.4 16.55 1.95 14.05 3.55 14.35 5.4 14.7 7.3 14.4 9.0 14.0 M9.5 14.65 L7.05 15.35 9.5 14.65" fill="#81814f" fill-rule="evenodd" stroke="none"/>
    <path d="M7.7 -1.45 L8.45 -1.35 8.25 -0.05 8.2 1.3 Q8.25 2.05 8.55 2.8 8.8 3.55 9.4 4.05 L10.45 4.75 10.15 5.85 9.8 6.9 9.1 8.7 8.75 9.55 4.45 9.25 3.8 8.55 3.35 8.6 Q2.35 8.6 2.05 9.4 L1.45 9.25 Q1.5 8.9 0.65 8.45 L-0.65 7.4 -1.05 6.65 Q-1.45 5.65 -0.95 4.8 L0.2 3.3 Q0.25 4.2 0.9 4.95 L1.3 5.25 2.4 5.3 4.25 4.8 5.3 4.25 Q6.0 3.75 6.3 3.05 L7.0 1.35 7.5 -0.5 7.7 -1.45 M9.1 5.3 Q9.2 6.0 8.75 6.65 L7.55 7.8 5.1 8.35 4.5 8.15 3.35 7.6 Q2.8 7.0 2.7 6.15 2.8 7.0 3.35 7.6 L4.5 8.15 5.1 8.35 7.55 7.8 8.75 6.65 Q9.2 6.0 9.1 5.3" fill="url(#gradient0)" fill-rule="evenodd" stroke="none"/>
    <path d="M0.2 3.3 L0.25 3.15 Q0.0 2.2 0.2 1.25 0.4 0.3 1.15 -0.3 L2.15 -0.9 3.15 -1.15 5.0 -1.5 6.8 -1.5 7.7 -1.45 7.5 -0.5 7.0 1.35 6.3 3.05 Q6.0 3.75 5.3 4.25 L4.25 4.8 2.4 5.3 1.3 5.25 0.9 4.95 Q0.25 4.2 0.2 3.3 M8.45 -1.35 L9.45 -0.95 9.9 -0.6 Q10.45 0.85 10.55 2.5 L10.55 3.3 10.45 4.75 9.4 4.05 Q8.8 3.55 8.55 2.8 8.25 2.05 8.2 1.3 L8.25 -0.05 8.45 -1.35 M8.75 9.55 L8.45 10.6 Q8.35 11.5 8.55 12.45 L9.0 14.0 7.3 14.4 5.4 14.7 3.55 14.35 1.95 14.05 2.2 12.6 2.3 11.2 2.05 9.4 Q2.35 8.6 3.35 8.6 L3.8 8.55 4.45 9.25 8.75 9.55 M2.7 3.0 L3.05 3.75 Q2.55 4.2 2.4 5.3 2.55 4.2 3.05 3.75 L2.7 3.0 M4.15 2.75 L3.1 3.7 3.05 3.7 3.05 3.75 3.05 3.7 3.1 3.7 4.15 2.75 M0.85 1.3 L0.75 2.05 0.25 3.15 0.75 2.05 0.85 1.3 M3.9 11.75 L4.05 12.85 3.9 11.75" fill="#ffcc99" fill-rule="evenodd" stroke="none"/>
    <path d="M0.2 3.3 L0.25 3.15 Q0.0 2.2 0.2 1.25 0.4 0.3 1.15 -0.3 L2.15 -0.9 3.15 -1.15 5.0 -1.5 6.8 -1.5 7.7 -1.45 8.45 -1.35 9.45 -0.95 9.9 -0.6 Q10.45 0.85 10.55 2.5 L10.55 3.3 10.45 4.75 10.15 5.85 9.8 6.9 9.1 8.7 8.75 9.55 8.45 10.6 Q8.35 11.5 8.55 12.45 L9.0 14.0 9.5 14.65 10.1 15.5 10.75 16.6 11.2 17.7 11.0 17.85 10.1 18.2 9.7 18.15 9.5 18.15 8.05 18.75 6.3 19.3 Q4.85 19.5 3.75 18.65 L2.95 18.05 M1.4 16.55 L1.95 14.05 2.2 12.6 2.3 11.2 2.05 9.4 1.45 9.25 Q1.5 8.9 0.65 8.45 L-0.65 7.4 -1.05 6.65 Q-1.45 5.65 -0.95 4.8 L0.2 3.3 Q0.25 4.2 0.9 4.95 L1.3 5.25 2.4 5.3 Q2.55 4.2 3.05 3.75 L2.7 3.0 M2.4 5.3 L4.25 4.8 5.3 4.25 Q6.0 3.75 6.3 3.05 L7.0 1.35 7.5 -0.5 7.7 -1.45 M8.45 -1.35 L8.25 -0.05 8.2 1.3 Q8.25 2.05 8.55 2.8 8.8 3.55 9.4 4.05 L10.45 4.75 M0.25 3.15 L0.75 2.05 0.85 1.3 M3.05 3.75 L3.05 3.7 3.1 3.7 4.15 2.75 M2.05 9.4 Q2.35 8.6 3.35 8.6 L3.8 8.55 4.45 9.25 8.75 9.55 M2.7 6.15 Q2.8 7.0 3.35 7.6 L4.5 8.15 5.1 8.35 7.55 7.8 8.75 6.65 Q9.2 6.0 9.1 5.3 M7.05 15.35 L9.5 14.65 M1.95 14.05 L3.55 14.35 5.4 14.7 7.3 14.4 9.0 14.0 M4.05 12.85 L3.9 11.75" fill="none" stroke="#000000" stroke-linecap="round" stroke-linejoin="round" stroke-width="0.05"/>
  </g>
  <defs>
    <radialGradient cx="0" cy="0" gradientTransform="matrix(0.009, 0.0, 0.0, 0.0123, 3.0, 7.2)" gradientUnits="userSpaceOnUse" id="gradient0" r="819.2" spreadMethod="pad">
      <stop offset="0.0" stop-color="#ececec"/>
      <stop offset="1.0" stop-color="#a0a0a0"/>
    </radialGradient>
  </defs>
</svg>
