<?xml version="1.0" encoding="UTF-8" standalone="no"?>
<svg xmlns:xlink="http://www.w3.org/1999/xlink" height="20.9px" width="12.05px" xmlns="http://www.w3.org/2000/svg">
  <g transform="matrix(1.0, 0.0, 0.0, 1.0, 0.0, 0.0)">
    <path d="M2.95 18.55 L3.05 18.25 1.4 16.9 1.8 14.6 2.1 14.25 2.15 13.7 2.45 12.1 Q2.65 11.2 2.35 10.3 1.75 10.3 1.2 10.65 L0.75 11.0 0.7 11.2 0.55 11.65 Q0.15 10.8 0.2 9.9 L0.15 7.95 -0.2 7.7 Q-1.05 7.25 -1.2 6.2 -1.3 5.2 -0.8 4.4 L0.3 3.1 0.2 1.25 Q0.2 0.65 0.35 0.1 1.1 -0.65 2.1 -0.9 L4.75 -1.55 5.1 -1.45 5.75 -1.45 8.85 -1.05 9.2 -0.9 10.3 -0.1 10.7 0.35 10.8 0.85 10.65 1.8 10.7 3.6 10.7 4.5 10.45 5.65 9.9 7.4 9.45 9.0 9.05 10.4 Q8.75 11.35 9.0 12.2 L8.4 11.5 Q8.3 12.4 8.75 13.35 L9.0 14.1 9.3 14.5 9.35 14.7 9.9 15.6 Q10.4 16.65 10.55 17.65 L10.45 18.2 10.05 18.4 Q9.15 18.85 8.3 18.95 L6.7 19.35 4.75 19.15 3.05 18.25 M10.65 1.8 L10.65 1.45 10.15 2.1 8.7 3.3 8.0 3.7 Q8.75 4.35 8.95 5.15 9.15 6.15 8.55 7.0 L7.35 8.0 5.75 8.45 4.55 8.45 4.75 9.05 5.55 9.05 5.65 9.1 6.15 9.6 6.65 10.95 6.85 10.9 Q7.65 11.05 8.4 11.5 L8.6 10.65 Q8.75 9.75 9.05 8.95 L9.35 8.2 9.95 6.5 10.25 5.4 10.7 3.6 M10.35 0.45 L10.5 0.75 10.65 1.45 M10.3 -0.1 Q9.8 0.65 9.1 1.05 L8.25 1.5 M8.0 3.7 L7.75 3.8 6.15 3.9 4.8 3.5 4.8 4.15 4.65 4.95 4.7 5.05 4.3 6.2 4.2 6.75 4.6 6.85 4.65 6.35 5.85 5.05 5.6 4.8 5.45 4.0 M6.35 4.55 L6.6 4.65 Q6.95 4.55 6.9 5.1 7.4 5.1 7.0 5.3 6.45 5.6 6.85 5.1 L6.9 5.1 M8.3 5.25 L7.8 5.35 7.9 6.0 Q8.8 6.15 7.75 6.5 7.4 6.55 7.65 6.15 L7.9 6.0 M7.5 5.35 L7.8 5.35 M3.5 0.8 L4.5 0.95 6.35 0.65 7.8 0.05 9.2 -0.9 M0.8 0.45 Q1.05 1.35 0.65 2.35 L0.45 2.95 1.1 2.65 3.7 3.0 4.8 3.5 M0.15 7.95 L0.95 8.1 1.05 7.25 1.0 7.1 0.8 6.45 1.0 5.75 1.2 5.0 1.25 4.0 1.1 2.65 M0.55 3.2 L0.8 3.9 Q0.5 4.65 -0.3 4.95 0.4 5.9 0.55 7.05 M1.75 3.2 Q2.2 3.2 2.5 3.5 L2.8 4.2 3.7 3.0 M1.0 5.75 L2.4 6.0 2.45 5.35 2.65 4.5 1.2 5.0 M2.8 4.2 L2.75 4.35 3.05 4.4 4.8 4.15 M2.75 4.35 L2.65 4.5 3.05 4.4 3.7 4.5 4.65 4.95 M1.25 4.0 L2.75 4.35 M0.45 2.95 L0.3 3.1 M4.2 6.75 L3.4 6.35 2.5 6.55 2.7 7.2 3.35 7.85 Q3.9 8.45 4.55 8.45 4.1 7.95 4.15 7.2 L4.2 6.75 M2.4 6.0 L3.4 6.35 4.3 6.2 M4.8 8.05 L4.6 6.85 M2.35 10.3 L2.05 9.45 1.6 8.0 0.95 8.1 1.1 9.1 1.0 9.25 Q0.45 10.1 0.75 11.0 M2.5 6.55 L1.0 7.1 M1.6 8.0 L2.5 7.4 2.7 7.2 M5.55 9.75 L5.45 11.5 5.15 12.7 4.8 12.95 M2.4 6.0 L2.5 6.55 M9.3 14.5 L5.9 15.25 M9.0 14.1 L8.85 14.15 7.85 14.45 5.9 14.85 4.85 14.9 4.65 15.7 5.1 15.75 M2.85 11.25 L2.75 12.4 2.9 12.85 M2.35 15.9 L2.75 15.8 2.75 14.95 Q2.9 14.2 2.2 14.1 L2.1 14.25 M4.1 15.7 L4.55 16.05 4.65 15.7 4.1 15.7 2.75 14.95 M4.8 16.2 L4.55 16.05 4.1 16.5 3.85 16.7 Q3.25 16.9 2.95 16.3 L2.75 15.8 4.1 15.7 M3.85 11.85 L3.75 12.45" fill="none" stroke="#000000" stroke-linecap="round" stroke-linejoin="round" stroke-width="0.05"/>
  </g>
</svg>
