<?xml version="1.0" encoding="UTF-8" standalone="no"?>
<svg xmlns:xlink="http://www.w3.org/1999/xlink" height="12.85px" width="16.3px" xmlns="http://www.w3.org/2000/svg">
  <g transform="matrix(1.0, 0.0, 0.0, 1.0, 0.0, 0.0)">
    <path d="M0.4 1.65 L0.85 1.15 2.45 0.05 Q3.45 -0.65 4.5 -0.9 L5.0 -0.7 6.35 -0.9 6.45 -0.9 7.2 -0.45 8.1 0.25 8.55 0.55 9.65 1.45 10.2 2.5 11.05 5.5 11.55 7.3 11.95 8.0 Q12.65 9.0 13.75 9.35 12.95 9.6 12.25 9.35 11.6 9.45 11.05 9.0 11.5 10.25 12.8 10.95 11.4 11.3 10.3 10.65 L10.05 10.3 10.35 11.05 10.55 11.75 10.25 11.55 Q9.5 11.35 9.0 10.95 L8.85 10.75 8.55 10.55 Q7.85 9.75 7.65 8.95 L7.3 7.65 7.3 7.6 7.15 6.7 7.0 5.6 6.65 7.05 Q6.1 5.9 6.0 4.4 L5.9 3.0 5.9 2.35 Q5.25 3.8 3.95 4.5 4.3 3.7 4.3 2.45 L1.75 6.55 Q1.6 4.8 2.15 2.85 L0.9 4.7 0.1 5.85 Q-0.25 3.75 0.4 1.65 -0.25 3.75 0.1 5.85 L0.9 4.7 0.9 5.1 Q0.95 6.45 0.45 7.5 L1.2 8.1 1.45 9.0 1.85 10.2 Q2.05 10.6 2.7 10.7 L3.1 10.7 2.75 11.0 Q1.75 11.95 0.55 11.95 L1.5 10.75 0.85 11.1 -1.15 11.65 -1.15 11.6 Q-0.1 10.85 0.05 10.2 -1.25 10.8 -2.55 10.8 -1.85 10.35 -1.55 9.65 L-0.7 7.1 -0.35 5.55 0.05 2.65 Q0.1 2.05 0.4 1.65 M3.15 10.7 L3.9 10.45 4.15 10.35 4.0 10.8 Q3.5 11.3 2.8 11.4 L3.15 10.7" fill="#ffffcc" fill-rule="evenodd" stroke="none"/>
    <path d="M0.9 4.7 L2.15 2.85 Q1.6 4.8 1.75 6.55 L4.3 2.45 Q4.3 3.7 3.95 4.5 5.25 3.8 5.9 2.35 L5.9 3.0 6.0 4.4 Q6.1 5.9 6.65 7.05 L7.0 5.6 7.15 6.7 7.3 7.6 7.3 7.65 7.65 8.95 Q7.85 9.75 8.55 10.55 L8.85 10.75 9.0 10.95 Q9.5 11.35 10.25 11.55 L10.55 11.75 10.35 11.05 10.05 10.3 10.3 10.65 Q11.4 11.3 12.8 10.95 11.5 10.25 11.05 9.0 11.6 9.45 12.25 9.35 12.95 9.6 13.75 9.35 12.65 9.0 11.95 8.0 L11.55 7.3 11.05 5.5 10.2 2.5 9.65 1.45 8.55 0.55 8.1 0.25 7.2 -0.45 6.45 -0.9 6.35 -0.9 5.0 -0.7 4.5 -0.9 Q3.45 -0.65 2.45 0.05 L0.85 1.15 0.4 1.65 Q-0.25 3.75 0.1 5.85 L0.9 4.7 0.9 5.1 Q0.95 6.45 0.45 7.5 L1.2 8.1 1.45 9.0 1.85 10.2 Q2.05 10.6 2.7 10.7 L3.1 10.7 3.15 10.65 3.15 10.7 3.9 10.45 4.15 10.35 4.0 10.8 Q3.5 11.3 2.8 11.4 L3.15 10.7 3.1 10.7 2.75 11.0 Q1.75 11.95 0.55 11.95 L1.5 10.75 0.85 11.1 -1.15 11.65 -1.25 11.65 -1.15 11.6 Q-0.1 10.85 0.05 10.2 -1.25 10.8 -2.55 10.8 -1.85 10.35 -1.55 9.65 L-0.7 7.1 -0.35 5.55 0.05 2.65 Q0.1 2.05 0.4 1.65" fill="none" stroke="#000000" stroke-linecap="round" stroke-linejoin="round" stroke-width="0.05"/>
    <path d="M6.85 4.4 L6.45 3.35 6.4 2.8 6.45 2.85 Q6.75 3.6 7.3 4.2 L7.3 4.15 7.25 3.7 7.1 2.3 7.6 3.3 8.2 4.2 8.2 4.1 7.8 2.2 7.95 2.4 8.85 3.8 8.7 2.3 8.6 1.8 8.65 1.85 9.2 2.95 9.45 3.3 9.55 2.95 9.45 2.15 9.4 1.9 9.45 2.0 9.9 3.15 M0.45 2.6 Q0.45 2.1 0.8 1.7 L1.4 1.1 1.75 0.85 0.9 2.4 Q1.45 1.7 2.25 1.3 L2.25 1.8 2.0 2.35 2.1 2.35 2.75 1.8 3.05 1.6 3.05 1.95 3.0 2.65 3.05 2.8 3.3 2.9" fill="none" stroke="#ffffff" stroke-linecap="round" stroke-linejoin="round" stroke-width="0.05"/>
  </g>
</svg>
