<?xml version="1.0" encoding="UTF-8" standalone="no"?>
<svg xmlns:xlink="http://www.w3.org/1999/xlink" height="47.15px" width="34.4px" xmlns="http://www.w3.org/2000/svg">
  <g transform="matrix(1.0, 0.0, 0.0, 1.0, 0.0, 0.0)">
    <path d="M4.7 4.05 Q8.35 1.35 10.7 0.15 13.05 -1.1 15.45 -0.4 17.85 0.25 20.1 2.4 22.3 4.5 24.35 7.85 26.4 11.2 26.7 15.35 L27.1 22.0 Q27.35 27.35 28.5 32.6 29.1 35.25 30.5 37.5 32.95 41.35 32.65 45.7 L32.55 46.5 31.65 46.2 30.25 45.55 29.5 45.35 28.6 45.2 28.9 44.15 Q26.35 39.75 21.55 38.85 L15.95 38.45 6.45 38.2 Q2.85 37.7 0.55 40.3 L0.7 41.2 Q-3.25 37.6 -0.65 32.5 L1.2 28.4 Q2.9 24.0 5.45 19.95 7.7 16.3 7.6 12.05 7.45 7.7 4.85 4.6 4.7 4.4 4.7 4.05 M2.65 30.75 L2.0 32.3 Q0.4 36.25 0.55 40.3 0.4 36.25 2.0 32.3 L2.65 30.75 M24.95 24.85 L25.1 27.35 Q25.3 31.95 26.65 36.3 L28.9 44.15 26.65 36.3 Q25.3 31.95 25.1 27.35 L24.95 24.85" fill="#151515" fill-rule="evenodd" stroke="none"/>
    <path d="M4.7 4.05 Q8.35 1.35 10.7 0.15 13.05 -1.1 15.45 -0.4 17.85 0.25 20.1 2.4 22.3 4.5 24.35 7.85 26.4 11.2 26.7 15.35 L27.1 22.0 Q27.35 27.35 28.5 32.6 29.1 35.25 30.5 37.5 32.95 41.35 32.65 45.7 L32.55 46.5 31.65 46.2 30.25 45.55 29.5 45.35 28.6 45.2 28.9 44.15 26.65 36.3 Q25.3 31.95 25.1 27.35 L24.95 24.85" fill="none" stroke="#000000" stroke-linecap="round" stroke-linejoin="round" stroke-width="0.05"/>
    <path d="M28.9 44.15 Q26.35 39.75 21.55 38.85 L15.95 38.45 6.45 38.2 Q2.85 37.7 0.55 40.3 L0.7 41.2 Q-3.25 37.6 -0.65 32.5 L1.2 28.4 Q2.9 24.0 5.45 19.95 7.7 16.3 7.6 12.05 7.45 7.7 4.85 4.6 4.7 4.4 4.7 4.05 M0.55 40.3 Q0.4 36.25 2.0 32.3 L2.65 30.75" fill="none" stroke="#000000" stroke-linecap="round" stroke-linejoin="round" stroke-width="0.05"/>
  </g>
</svg>
