<?xml version="1.0" encoding="UTF-8" standalone="no"?>
<svg xmlns:xlink="http://www.w3.org/1999/xlink" height="32.2px" width="5.3px" xmlns="http://www.w3.org/2000/svg">
  <g transform="matrix(1.0, 0.0, 0.0, 1.0, 0.0, 0.0)">
    <path d="M-2.4 17.0 L-3.05 9.9 Q-3.5 4.9 -3.45 0.0 L-3.2 -0.65 -2.9 -1.3 -2.45 -1.85 -1.9 -2.3 -0.85 -2.25 0.0 -2.0 0.7 -1.4 1.8 -0.25 1.85 1.85 1.8 2.6 1.65 3.3 1.5 3.45 1.1 3.65 0.9 3.45 0.7 2.85 0.65 2.0 0.55 1.1 0.45 0.8 -0.45 -0.25 -1.25 -0.15 Q-2.25 0.95 -2.15 2.65 L-1.4 12.35 Q-0.95 16.65 -0.65 21.05 L-0.55 24.35 -0.6 24.35 -1.65 24.35 -0.6 24.35 -0.55 24.35 -0.6 26.15 -0.7 27.75 -0.95 29.9 -1.25 29.05 -1.3 27.8 -1.45 26.15 -1.55 25.4 -1.65 24.35 -2.25 18.55 -2.4 17.0 -1.3 16.95 -2.4 17.0 M-1.45 26.15 L-0.6 26.15 -1.45 26.15 M-0.7 27.75 L-1.3 27.8 -0.7 27.75" fill="#4a2c15" fill-rule="evenodd" stroke="none"/>
    <path d="M-0.55 24.35 L-0.65 21.05 Q-0.95 16.65 -1.4 12.35 L-2.15 2.65 Q-2.25 0.95 -1.25 -0.15 L-0.45 -0.25 0.45 0.8 0.55 1.1 0.65 2.0 0.7 2.85 0.9 3.45 1.1 3.65 1.5 3.45 1.65 3.3 1.8 2.6 1.85 1.85 1.8 -0.25 0.7 -1.4 0.0 -2.0 -0.85 -2.25 -1.9 -2.3 -2.45 -1.85 -2.9 -1.3 -3.2 -0.65 -3.45 0.0 Q-3.5 4.9 -3.05 9.9 L-2.4 17.0 -2.25 18.55 -1.65 24.35 -1.55 25.4 -1.45 26.15 -1.3 27.8 -1.25 29.05 -0.95 29.9 -0.7 27.75 -0.6 26.15 -0.55 24.35" fill="none" stroke="#000000" stroke-linecap="round" stroke-linejoin="round" stroke-width="0.05"/>
    <path d="M-2.4 17.0 L-1.3 16.95 M-1.65 24.35 L-0.6 24.35 -0.55 24.35 M-1.3 27.8 L-0.7 27.75 M-0.6 26.15 L-1.45 26.15" fill="none" stroke="#e4c377" stroke-linecap="round" stroke-linejoin="round" stroke-width="0.05"/>
  </g>
</svg>
