<?xml version="1.0" encoding="UTF-8" standalone="no"?>
<svg xmlns:xlink="http://www.w3.org/1999/xlink" height="7.0px" width="8.3px" xmlns="http://www.w3.org/2000/svg">
  <g transform="matrix(1.0, 0.0, 0.0, 1.0, 0.0, 0.0)">
    <path d="M5.15 -0.15 L7.75 -0.5 8.1 0.35 Q8.9 2.85 7.9 5.15 5.05 6.5 2.2 6.5 0.8 6.5 0.15 5.2 L1.35 4.4 3.1 2.8 3.35 2.6 3.95 2.1 4.35 1.35 5.15 -0.15" fill="#333333" fill-rule="evenodd" stroke="none"/>
    <path d="M5.15 -0.15 L4.35 1.35 3.95 2.1 3.35 2.6 3.1 2.8 1.35 4.4 0.15 5.2 Q0.8 6.5 2.2 6.5 5.05 6.5 7.9 5.15 8.9 2.85 8.1 0.35 L7.75 -0.5 5.15 -0.15 Z" fill="none" stroke="#000000" stroke-linecap="round" stroke-linejoin="round" stroke-width="0.05"/>
  </g>
</svg>
