<?xml version="1.0" encoding="UTF-8" standalone="no"?>
<svg xmlns:xlink="http://www.w3.org/1999/xlink" height="16.05px" width="5.05px" xmlns="http://www.w3.org/2000/svg">
  <g transform="matrix(1.0, 0.0, 0.0, 1.0, 0.0, 0.0)">
    <path d="M0.15 0.4 L3.75 0.15 Q4.4 1.7 4.45 4.25 L4.55 8.8 4.65 12.15 4.85 14.2 4.75 14.2 4.3 14.2 3.9 14.2 3.1 14.25 Q2.7 14.35 2.55 14.05 L2.55 13.9 2.6 13.45 2.65 13.2 2.75 11.65 2.65 11.35 0.65 10.75 0.65 9.5 0.3 5.05 Q0.0 2.75 0.15 0.4" fill="#9d6236" fill-rule="evenodd" stroke="none"/>
    <path d="M4.85 14.2 L5.15 16.0 Q2.65 16.6 0.1 15.55 L0.65 10.75 2.65 11.35 2.75 11.65 2.65 13.2 2.6 13.45 2.55 13.9 2.55 14.05 Q2.7 14.35 3.1 14.25 L3.9 14.2 4.3 14.2 4.75 14.2 4.85 14.2" fill="#814a2e" fill-rule="evenodd" stroke="none"/>
    <path d="M0.1 15.55 L0.65 10.75 0.65 9.5 0.3 5.05 Q0.0 2.75 0.15 0.4" fill="none" stroke="#000000" stroke-linecap="round" stroke-linejoin="round" stroke-width="0.05"/>
    <path d="M3.75 0.15 Q4.4 1.7 4.45 4.25 L4.55 8.8 4.65 12.15 4.85 14.2 5.15 16.0 Q2.65 16.6 0.1 15.55 M4.85 14.2 L4.75 14.2 4.3 14.2 3.9 14.2 3.1 14.25 Q2.7 14.35 2.55 14.05 L2.55 13.9 2.6 13.45 2.65 13.2 2.75 11.65 2.65 11.35 0.65 10.75" fill="none" stroke="#000000" stroke-linecap="round" stroke-linejoin="round" stroke-width="0.05"/>
  </g>
</svg>
