<?xml version="1.0" encoding="UTF-8" standalone="no"?>
<svg xmlns:xlink="http://www.w3.org/1999/xlink" height="20.3px" width="11.5px" xmlns="http://www.w3.org/2000/svg">
  <g transform="matrix(1.0, 0.0, 0.0, 1.0, 0.0, 0.0)">
    <path d="M10.45 1.25 L10.65 2.5 11.25 6.1 11.3 8.5 10.5 12.0 9.8 12.5 Q7.85 13.25 6.0 13.0 L4.7 12.9 3.4 13.0 1.55 12.7 0.9 12.75 0.2 8.95 -0.05 6.0 -0.05 2.9 0.35 3.45 1.7 4.7 2.15 5.45 2.3 5.4 2.65 5.05 2.9 5.15 Q3.55 6.75 3.3 7.55 L3.6 6.85 Q3.85 6.1 3.7 5.3 L4.05 5.1 4.2 4.5 Q4.8 4.65 4.6 5.5 L4.45 6.0 Q5.25 5.75 5.15 4.6 L5.15 4.35 Q7.05 4.1 8.65 3.0 L10.05 1.95 10.45 1.25 M10.3 13.25 Q10.65 14.05 10.55 15.7 L10.45 17.55 Q9.55 18.75 8.25 19.05 L6.2 19.55 Q4.1 19.55 2.25 18.75 1.75 18.55 1.35 18.2 L1.25 18.1 1.05 17.9 0.85 16.75 Q0.75 15.65 1.0 14.7 L1.0 14.55 1.0 13.55 1.8 13.6 2.8 13.7 3.8 14.15 4.05 15.0 3.5 16.95 4.35 16.7 4.45 13.9 5.2 15.15 5.5 15.1 4.8 13.5 6.15 13.6 9.6 13.5 9.7 13.75 9.6 13.5 10.3 13.25 M1.4 0.7 L2.25 0.3 3.2 -0.05 Q5.0 -0.5 6.9 -0.05 L5.45 2.75 4.85 3.55 4.5 3.6 Q4.05 3.75 3.7 4.0 L3.6 3.9 3.55 3.2 3.9 2.3 3.95 2.05 Q3.35 1.4 3.5 2.25 L3.0 3.2 2.35 2.45 Q1.6 1.65 1.4 0.7 M2.55 0.6 L2.9 0.7 Q4.45 1.3 5.85 0.35 4.45 1.3 2.9 0.7 L2.55 0.6 M10.05 11.3 Q10.3 11.8 10.0 12.2 L9.8 12.5 10.0 12.2 Q10.3 11.8 10.05 11.3 M1.5 14.5 L1.8 13.6 1.5 14.5 M1.3 11.9 L1.55 12.7 1.3 11.9" fill="#9d6236" fill-rule="evenodd" stroke="none"/>
    <path d="M10.5 12.0 L10.3 13.25 9.6 13.5 6.15 13.6 4.8 13.5 5.5 15.1 5.2 15.15 4.45 13.9 4.35 16.7 3.5 16.95 4.05 15.0 3.8 14.15 2.8 13.7 1.8 13.6 1.0 13.55 0.9 12.75 1.55 12.7 3.4 13.0 4.7 12.9 6.0 13.0 Q7.85 13.25 9.8 12.5 L10.5 12.0 M3.4 13.0 L3.05 13.3 3.4 13.0 M4.8 13.5 L4.55 13.5 4.0 14.1 3.8 14.15 4.0 14.1 4.55 13.5 4.7 13.25 4.7 12.9 4.7 13.25 4.55 13.5 4.8 13.5" fill="#854b27" fill-rule="evenodd" stroke="none"/>
    <path d="M6.9 -0.05 L7.35 -0.75 7.5 -0.75 Q9.15 -0.6 10.2 0.55 L10.45 1.25 10.05 1.95 8.65 3.0 Q7.05 4.1 5.15 4.35 L4.85 3.55 5.45 2.75 6.9 -0.05 M-0.05 2.9 Q-0.05 1.95 0.4 1.35 0.75 0.8 1.4 0.5 L1.4 0.7 Q1.6 1.65 2.35 2.45 L3.0 3.2 3.1 3.7 2.55 4.35 2.55 4.4 2.3 5.1 2.15 4.8 2.05 4.1 2.05 3.85 1.7 4.7 0.35 3.45 -0.05 2.9 M0.9 2.0 L0.4 1.35 0.9 2.0 M2.35 3.55 L2.05 3.85 2.35 3.55 M9.65 1.05 L10.2 0.55 9.65 1.05 M8.0 0.6 L8.6 -0.2 8.0 0.6" fill="#212121" fill-rule="evenodd" stroke="none"/>
    <path d="M4.85 3.55 L5.15 4.35 5.15 4.6 Q5.25 5.75 4.45 6.0 L4.6 5.5 Q4.8 4.65 4.2 4.5 L4.05 5.1 3.7 5.3 Q3.85 6.1 3.6 6.85 L3.3 7.55 Q3.55 6.75 2.9 5.15 L2.65 5.05 2.3 5.4 2.15 5.45 1.7 4.7 2.05 3.85 2.05 4.1 2.15 4.8 2.3 5.1 2.55 4.4 2.55 4.35 3.1 3.7 3.0 3.2 3.5 2.25 Q3.35 1.4 3.95 2.05 L3.9 2.3 3.55 3.2 3.6 3.9 3.4 3.8 3.1 3.7 3.4 3.8 3.6 3.9 3.7 4.0 Q4.05 3.75 4.5 3.6 L4.85 3.55 M2.65 5.05 L2.55 4.4 2.65 5.05 M4.2 4.5 L4.2 4.35 3.7 4.0 4.2 4.35 4.2 4.5 M3.4 4.3 L3.15 4.25 3.05 4.3 2.95 4.85 3.05 4.3 3.15 4.25 3.4 4.3 M2.9 5.15 L2.95 5.15 3.7 5.3 2.95 5.15 2.9 5.15" fill="#53345c" fill-rule="evenodd" stroke="none"/>
    <path d="M4.2 4.5 L4.05 5.1 3.7 5.3 2.95 5.15 2.9 5.15 2.65 5.05 2.55 4.4 M3.6 3.9 L3.55 3.2 3.9 2.3 3.95 2.05 Q3.35 1.4 3.5 2.25 L3.0 3.2 3.1 3.7 3.4 3.8 3.6 3.9 3.7 4.0 4.2 4.35 4.2 4.5 M3.1 3.7 L2.55 4.35" fill="none" stroke="#000000" stroke-linecap="round" stroke-linejoin="round" stroke-width="0.05"/>
    <path d="M6.9 -0.05 L7.35 -0.75 7.5 -0.75 Q9.15 -0.6 10.2 0.55 L10.45 1.25 10.65 2.5 11.25 6.1 11.3 8.5 10.5 12.0 10.3 13.25 Q10.65 14.05 10.55 15.7 L10.45 17.55 Q9.55 18.75 8.25 19.05 L6.2 19.55 Q4.1 19.55 2.25 18.75 1.75 18.55 1.35 18.2 M1.0 14.7 L1.0 14.55 1.0 13.55 0.9 12.75 0.2 8.95 -0.05 6.0 -0.05 2.9 Q-0.05 1.95 0.4 1.35 0.75 0.8 1.4 0.5 L1.4 0.7 2.25 0.3 3.2 -0.05 Q5.0 -0.5 6.9 -0.05 L5.45 2.75 4.85 3.55 5.15 4.35 Q7.05 4.1 8.65 3.0 L10.05 1.95 10.45 1.25 M5.15 4.35 L5.15 4.6 Q5.25 5.75 4.45 6.0 L4.6 5.5 Q4.8 4.65 4.2 4.5 M3.7 5.3 Q3.85 6.1 3.6 6.85 L3.3 7.55 Q3.55 6.75 2.9 5.15 M2.65 5.05 L2.3 5.4 2.15 5.45 1.7 4.7 0.35 3.45 -0.05 2.9 M3.7 4.0 Q4.05 3.75 4.5 3.6 L4.85 3.55 M5.85 0.35 Q4.45 1.3 2.9 0.7 L2.55 0.6 M0.4 1.35 L0.9 2.0 M1.4 0.7 Q1.6 1.65 2.35 2.45 L3.0 3.2 M2.05 3.85 L2.35 3.55 M2.55 4.35 L2.55 4.4 2.3 5.1 2.15 4.8 2.05 4.1 2.05 3.85 1.7 4.7 M9.6 13.5 L9.7 13.75 M1.55 12.7 L3.4 13.0 4.7 12.9 6.0 13.0 Q7.85 13.25 9.8 12.5 L10.0 12.2 Q10.3 11.8 10.05 11.3 M9.6 13.5 L6.15 13.6 4.8 13.5 5.5 15.1 5.2 15.15 4.45 13.9 4.35 16.7 3.5 16.95 4.05 15.0 3.8 14.15 2.8 13.7 1.8 13.6 1.5 14.5 M3.8 14.15 L4.0 14.1 4.55 13.5 4.7 13.25 4.7 12.9 M4.55 13.5 L4.8 13.5 M3.05 13.3 L3.4 13.0 M1.8 13.6 L1.0 13.55 M0.9 12.75 L1.55 12.7 1.3 11.9 M10.2 0.55 L9.65 1.05 M10.5 12.0 L9.8 12.5 M10.3 13.25 L9.6 13.5 M8.6 -0.2 L8.0 0.6" fill="none" stroke="#000000" stroke-linecap="round" stroke-linejoin="round" stroke-width="0.05"/>
    <path d="M2.95 4.85 L3.05 4.3 3.15 4.25 3.4 4.3" fill="none" stroke="#dfcfe4" stroke-linecap="round" stroke-linejoin="round" stroke-width="0.05"/>
  </g>
</svg>
