<?xml version="1.0" encoding="UTF-8" standalone="no"?>
<svg xmlns:xlink="http://www.w3.org/1999/xlink" height="12.2px" width="9.65px" xmlns="http://www.w3.org/2000/svg">
  <g transform="matrix(1.0, 0.0, 0.0, 1.0, 0.0, 0.0)">
    <path d="M6.8 4.75 L7.45 4.3 Q8.4 4.45 8.45 5.5 L8.45 5.85 8.45 5.5 Q8.4 4.45 7.45 4.3 L6.8 4.75 M3.35 11.05 L2.85 11.2 2.0 11.0 Q1.1 10.05 1.0 8.7 L0.95 8.1 0.0 7.45 0.9 5.1 0.85 3.85 Q0.75 3.15 1.05 2.6 L1.6 1.5 Q2.05 0.7 3.0 0.35 L6.15 0.15 7.1 0.55 8.3 1.35 Q9.6 2.6 9.65 4.4 9.65 5.6 8.45 5.85 L8.15 6.55 7.7 6.9 7.6 7.25 7.65 8.3 7.55 9.85 Q7.45 10.65 6.3 10.8 L3.35 11.0 3.35 11.05 3.35 11.0 6.3 10.8 Q7.45 10.65 7.55 9.85 L7.65 8.3 7.6 7.25 7.7 6.9 8.15 6.55 8.45 6.7 9.0 11.1 8.15 11.8 3.9 11.95 3.35 11.05 M2.55 5.1 L2.4 5.5 Q2.45 5.85 2.85 6.1 L3.0 6.15 Q4.05 6.2 4.1 5.15 L4.0 4.95 5.0 4.95 4.0 4.95 2.55 5.1 1.8 5.25 2.55 5.1" fill="#ffcc99" fill-rule="evenodd" stroke="none"/>
    <path d="M4.0 4.95 L4.1 5.15 Q4.05 6.2 3.0 6.15 L2.85 6.1 Q2.45 5.85 2.4 5.5 L2.55 5.1 4.0 4.95" fill="#339900" fill-rule="evenodd" stroke="none"/>
    <path d="M8.45 5.85 L8.45 5.5 Q8.4 4.45 7.45 4.3 L6.8 4.75 M8.15 6.55 L8.45 5.85 Q9.65 5.6 9.65 4.4 9.6 2.6 8.3 1.35 L7.1 0.55 6.15 0.15 3.0 0.35 Q2.05 0.7 1.6 1.5 L1.05 2.6 Q0.75 3.15 0.85 3.85 L0.9 5.1 0.0 7.45 0.95 8.1 1.0 8.7 Q1.1 10.05 2.0 11.0 L2.85 11.2 3.35 11.05 3.35 11.0 6.3 10.8 Q7.45 10.65 7.55 9.85 L7.65 8.3 7.6 7.25 7.7 6.9 8.15 6.55 8.45 6.7 9.0 11.1 8.15 11.8 3.9 11.95 3.35 11.05 M4.0 4.95 L4.1 5.15 Q4.05 6.2 3.0 6.15 L2.85 6.1 Q2.45 5.85 2.4 5.5 L2.55 5.1 1.8 5.25 M4.0 4.95 L5.0 4.95 M2.55 5.1 L4.0 4.95" fill="none" stroke="#000000" stroke-linecap="round" stroke-linejoin="round" stroke-width="0.05"/>
  </g>
</svg>
