<?xml version="1.0" encoding="UTF-8" standalone="no"?>
<svg xmlns:xlink="http://www.w3.org/1999/xlink" height="8.15px" width="10.8px" xmlns="http://www.w3.org/2000/svg">
  <g transform="matrix(1.0, 0.0, 0.0, 1.0, 0.0, 0.0)">
    <path d="M8.45 2.35 L8.65 2.6 8.95 3.3 9.3 2.35 Q10.05 3.85 9.6 5.3 9.25 6.4 8.45 6.6 L8.5 6.1 8.4 6.2 Q8.55 5.5 8.05 4.85 L7.3 4.4 7.35 3.9 Q7.4 2.9 7.85 3.05 L8.35 3.8 8.45 2.35 M5.1 3.7 Q5.2 4.2 4.7 4.4 L1.55 4.65 2.3 3.2 Q2.55 2.55 2.6 3.55 2.8 3.65 3.25 3.15 3.6 2.7 3.55 3.4 L3.45 3.45 4.25 3.1 4.15 3.55 4.25 3.65 4.45 3.55 4.85 3.6 4.7 3.75 5.05 3.65 5.1 3.7 M0.6 8.0 L2.2 8.05 4.15 9.15 4.35 9.55 4.25 9.55 4.05 9.5 3.85 9.6 3.95 9.65 3.95 9.7 3.45 9.7 Q3.7 10.05 3.45 10.05 2.3 10.15 1.75 9.3 L1.9 10.15 1.15 9.65 0.8 10.5 0.6 9.65 0.1 10.5 0.3 9.35 -1.05 9.9 -0.15 8.9 0.1 8.6 0.6 8.0" fill="#5d5542" fill-rule="evenodd" stroke="none"/>
    <path d="M4.7 4.4 L4.9 4.5 5.05 4.9 4.8 6.25 2.6 6.5 Q1.3 6.6 1.45 5.3 L1.4 4.95 Q1.35 4.7 1.55 4.65 L4.7 4.4" fill="#ffffff" fill-rule="evenodd" stroke="none"/>
    <path d="M8.45 2.35 L8.35 3.8 7.85 3.05 Q7.4 2.9 7.35 3.9 L7.3 4.4 8.05 4.85 Q8.55 5.5 8.4 6.2 L8.5 6.1 8.45 6.6 Q9.25 6.4 9.6 5.3 10.05 3.85 9.3 2.35 L8.95 3.3 8.65 2.6 8.45 2.35 M5.05 4.9 L5.5 5.0 5.9 4.8 7.3 4.4 M5.05 3.65 L5.1 3.65 5.1 3.7 Q5.2 4.2 4.7 4.4 L4.9 4.5 5.05 4.9 4.8 6.25 2.6 6.5 Q1.3 6.6 1.45 5.3 L1.0 5.0 Q0.45 5.0 0.6 5.45 M1.55 4.65 Q1.35 4.7 1.4 4.95 L1.45 5.3 M5.05 3.65 L4.7 3.75 4.85 3.6 4.45 3.55 4.25 3.65 4.15 3.55 4.25 3.1 3.45 3.45 3.55 3.4 Q3.6 2.7 3.25 3.15 2.8 3.65 2.6 3.55 2.55 2.55 2.3 3.2 L1.55 4.65 4.7 4.4 M0.6 8.0 L2.2 8.05 4.15 9.15 4.35 9.55 4.25 9.55 4.05 9.5 3.85 9.6 3.95 9.65 3.95 9.7 3.45 9.7 Q3.7 10.05 3.45 10.05 2.3 10.15 1.75 9.3 L1.9 10.15 1.15 9.65 0.8 10.5 0.6 9.65 0.1 10.5 0.3 9.35 -1.05 9.9 -0.15 8.9 0.1 8.6 0.6 8.0 Z" fill="none" stroke="#000000" stroke-linecap="round" stroke-linejoin="round" stroke-width="0.05"/>
  </g>
</svg>
