<?xml version="1.0" encoding="UTF-8" standalone="no"?>
<svg xmlns:xlink="http://www.w3.org/1999/xlink" height="28.35px" width="19.35px" xmlns="http://www.w3.org/2000/svg">
  <g transform="matrix(1.0, 0.0, 0.0, 1.0, 0.0, 0.0)">
    <path d="M0.25 25.0 L0.35 22.45 Q0.3 20.85 0.4 19.3 L0.45 18.7 0.85 15.75 1.65 12.2 2.75 8.55 3.0 7.85 3.6 6.4 Q4.55 3.8 6.05 1.75 L6.25 1.3 Q6.65 1.0 7.45 0.85 L8.45 0.65 8.95 0.5 10.5 0.2 11.55 0.0 12.15 0.0 12.65 0.45 13.1 3.05 13.55 5.15 14.0 7.3 14.7 10.55 15.5 13.85 16.45 17.35 17.45 21.0 17.8 22.25 16.75 22.35 16.65 22.4 17.0 25.2 15.1 25.45 14.15 25.6 14.05 25.7 13.95 25.55 13.85 25.2 Q13.65 24.1 13.9 22.95 L11.2 23.45 11.2 23.55 11.3 24.15 11.55 26.15 11.45 26.15 11.1 26.1 10.15 26.15 9.65 26.0 9.4 25.75 Q9.0 25.25 9.0 24.6 L8.85 23.15 8.4 23.1 7.1 23.0 6.85 23.0 6.6 25.9 4.85 25.45 4.55 25.2 Q4.1 24.2 4.5 23.2 L3.2 22.95 2.5 22.85 2.15 22.65 2.05 23.55 Q1.75 24.25 1.95 24.85 2.1 25.3 1.9 25.45 L1.3 25.3 0.25 25.0" fill="#9d6236" fill-rule="evenodd" stroke="none"/>
    <path d="M17.8 22.25 L18.6 24.6 19.1 26.1 19.35 26.95 15.85 27.55 12.9 28.25 11.1 28.35 8.4 28.25 7.2 28.1 Q4.9 27.9 2.6 27.15 L1.45 26.8 0.8 26.75 0.0 26.35 0.25 25.0 1.3 25.3 1.9 25.45 Q2.1 25.3 1.95 24.85 1.75 24.25 2.05 23.55 L2.15 22.65 2.5 22.85 3.2 22.95 4.5 23.2 Q4.1 24.2 4.55 25.2 L4.85 25.45 6.6 25.9 6.85 23.0 7.1 23.0 8.4 23.1 8.85 23.15 9.0 24.6 Q9.0 25.25 9.4 25.75 L9.65 26.0 10.15 26.15 11.1 26.1 11.45 26.15 11.55 26.15 11.3 24.15 11.2 23.55 11.2 23.45 13.9 22.95 Q13.65 24.1 13.85 25.2 L13.95 25.55 14.05 25.7 14.15 25.6 15.1 25.45 17.0 25.2 16.65 22.4 16.75 22.35 17.8 22.25" fill="#814a2e" fill-rule="evenodd" stroke="none"/>
    <path d="M19.35 26.95 L15.85 27.55 12.9 28.25 11.1 28.35 8.4 28.25 7.2 28.1 Q4.9 27.9 2.6 27.15 L1.45 26.8 0.8 26.75 0.0 26.35" fill="none" stroke="#000000" stroke-linecap="round" stroke-linejoin="round" stroke-width="0.05"/>
    <path d="M0.25 25.0 L1.3 25.3 1.9 25.45 Q2.1 25.3 1.95 24.85 1.75 24.25 2.05 23.55 L2.15 22.65 2.5 22.85 3.2 22.95 4.5 23.2 Q4.1 24.2 4.55 25.2 L4.85 25.45 6.6 25.9 6.85 23.0 7.1 23.0 8.4 23.1 8.85 23.15 9.0 24.6 Q9.0 25.25 9.4 25.75 L9.65 26.0 10.15 26.15 11.1 26.1 11.45 26.15 11.55 26.15 11.3 24.15 11.2 23.55 11.2 23.45 13.9 22.95 Q13.65 24.1 13.85 25.2 L13.95 25.55 14.05 25.7 14.15 25.6 15.1 25.45 17.0 25.2 16.65 22.4 16.75 22.35 17.8 22.25" fill="none" stroke="#000000" stroke-linecap="round" stroke-linejoin="round" stroke-width="0.05"/>
  </g>
</svg>
