<?xml version="1.0" encoding="UTF-8" standalone="no"?>
<svg xmlns:xlink="http://www.w3.org/1999/xlink" height="18.35px" width="9.9px" xmlns="http://www.w3.org/2000/svg">
  <g transform="matrix(1.0, 0.0, 0.0, 1.0, 0.0, 0.0)">
    <path d="M4.05 -10.15 Q4.75 -9.55 4.9 -6.5 5.0 -3.45 3.65 -1.75 2.3 -0.1 -0.5 3.7 1.1 4.85 2.2 5.3 L4.15 5.8 Q4.45 7.2 2.95 7.85 -2.35 6.8 -4.55 4.9 -5.35 3.55 -4.8 -0.5 -4.25 -4.55 -1.35 -8.05 L-0.55 -9.05 0.75 -10.2 Q3.3 -10.8 4.05 -10.15 M3.1 -6.85 L3.15 -6.25 3.45 -5.85 2.3 -2.75 Q1.35 -0.55 -1.5 1.8 1.35 -0.55 2.3 -2.75 L3.45 -5.85 3.15 -6.25 3.1 -6.85" fill="#50882d" fill-rule="evenodd" stroke="none"/>
    <path d="M-0.55 -9.05 L-1.35 -8.05 Q-4.25 -4.55 -4.8 -0.5 -5.35 3.55 -4.55 4.9 -2.35 6.8 2.95 7.85 4.45 7.2 4.15 5.8 L2.2 5.3 Q1.1 4.85 -0.5 3.7 2.3 -0.1 3.65 -1.75 5.0 -3.45 4.9 -6.5 4.75 -9.55 4.05 -10.15 M-1.5 1.8 Q1.35 -0.55 2.3 -2.75 L3.45 -5.85 3.15 -6.25 3.1 -6.85" fill="none" stroke="#000000" stroke-linecap="round" stroke-linejoin="round" stroke-width="0.05"/>
  </g>
</svg>
