<?xml version="1.0" encoding="UTF-8" standalone="no"?>
<svg xmlns:xlink="http://www.w3.org/1999/xlink" height="23.25px" width="12.1px" xmlns="http://www.w3.org/2000/svg">
  <g transform="matrix(1.0, 0.0, 0.0, 1.0, 0.0, 0.0)">
    <path d="M4.95 -11.7 L4.95 -10.8 4.95 -7.8 Q4.35 -7.5 3.9 -7.5 L3.6 -7.55 3.8 -9.35 Q3.9 -9.95 3.45 -10.1 2.45 -10.25 1.9 -9.2 L1.95 -9.5 Q2.0 -10.1 2.2 -10.5 2.85 -11.95 4.95 -11.7 M4.9 -6.5 L4.85 -5.05 4.9 -2.9 3.2 -2.95 3.45 -4.75 3.65 -6.3 3.85 -6.2 4.9 -6.5 M5.0 -1.9 L5.0 -1.8 5.6 -1.55 6.0 -0.45 6.3 0.95 6.35 2.3 5.8 0.95 5.55 0.8 5.15 0.45 5.1 0.6 2.95 0.75 2.95 -0.95 3.05 -1.65 3.4 -1.85 5.0 -1.9 M4.85 1.35 Q4.15 3.2 3.75 5.15 L3.2 8.05 Q2.9 7.05 2.25 6.4 L2.0 6.15 Q2.8 5.45 2.65 4.55 L2.4 4.0 3.0 2.2 3.0 1.65 3.0 1.45 4.85 1.35 M2.1 8.75 L1.55 8.85 Q0.4 8.9 -0.25 9.6 L-2.75 11.5 -1.85 9.15 -2.45 9.4 Q-4.35 9.1 -5.7 10.35 L-5.4 9.25 -5.3 8.95 -4.7 8.35 -4.8 8.35 -5.35 8.3 -4.4 6.75 Q-3.6 6.7 -2.7 6.05 L-2.05 6.75 -1.2 7.3 -0.7 7.5 0.75 7.6 1.2 7.0 1.5 7.4 2.1 8.75 M2.25 2.4 L2.1 3.0 2.05 3.0 2.15 2.65 2.25 2.4 M-1.85 9.15 L-0.7 7.5 -1.85 9.15 M-4.7 8.35 L-3.4 7.85 -2.05 6.75 -3.4 7.85 -4.7 8.35" fill="#50882d" fill-rule="evenodd" stroke="none"/>
    <path d="M1.9 -9.2 Q2.45 -10.25 3.45 -10.1 3.9 -9.95 3.8 -9.35 L3.6 -7.55 3.65 -6.3 3.45 -4.75 3.2 -2.95 3.05 -1.65 2.95 -0.95 2.95 0.75 3.0 1.45 3.0 1.65 3.0 2.2 2.4 4.0 1.6 4.1 1.05 3.9 -0.6 3.2 1.05 3.9 1.6 4.1 2.4 4.0 2.65 4.55 Q2.8 5.45 2.0 6.15 L1.2 7.0 0.75 7.6 -0.7 7.5 -1.2 7.3 -2.05 6.75 -2.7 6.05 -3.0 5.65 -2.95 5.55 -2.45 5.35 -1.55 4.45 -0.6 3.2 -0.6 3.15 -0.35 2.55 0.0 2.3 0.05 1.6 0.35 0.55 0.5 0.0 1.0 -2.5 1.25 -6.75 1.55 -8.45 1.8 -9.05 1.9 -9.2 M2.25 1.85 L2.2 1.65 2.05 -0.05 2.2 -2.0 2.2 -2.2 2.35 -3.3 2.7 -5.25 3.0 -7.15 3.0 -8.8 3.0 -7.15 2.7 -5.25 2.35 -3.3 2.2 -2.2 2.2 -2.0 2.05 -0.05 2.2 1.65 2.25 1.85 2.25 2.4 2.25 1.85 M2.05 3.0 L2.1 3.0 2.25 2.4 2.15 2.65 2.05 3.0 0.6 3.1 2.05 3.0 M-2.45 5.35 Q-2.0 6.25 -1.35 6.6 L0.0 7.15 0.9 6.0 Q0.25 5.75 0.3 5.2 L0.8 5.15 Q1.85 5.2 1.6 4.1 1.85 5.2 0.8 5.15 L0.3 5.2 Q0.25 5.75 0.9 6.0 L0.0 7.15 -1.35 6.6 Q-2.0 6.25 -2.45 5.35" fill="#5a3416" fill-rule="evenodd" stroke="none"/>
    <path d="M3.6 -7.55 L3.9 -7.5 Q4.35 -7.5 4.95 -7.8 L4.9 -6.5 3.85 -6.2 3.65 -6.3 3.6 -7.55 M4.9 -2.9 L5.0 -1.9 3.4 -1.85 3.05 -1.65 3.2 -2.95 4.9 -2.9 M5.1 0.6 L4.95 1.05 4.85 1.35 3.0 1.45 2.95 0.75 5.1 0.6 M3.2 8.05 L3.15 8.5 2.1 8.75 1.5 7.4 1.2 7.0 2.0 6.15 2.25 6.4 Q2.9 7.05 3.2 8.05" fill="#775434" fill-rule="evenodd" stroke="none"/>
    <path d="M4.95 -7.8 L4.95 -10.8 4.95 -11.7 M2.2 -10.5 Q2.0 -10.1 1.95 -9.5 L1.9 -9.2 Q2.45 -10.25 3.45 -10.1 3.9 -9.95 3.8 -9.35 L3.6 -7.55 3.65 -6.3 3.45 -4.75 3.2 -2.95 3.05 -1.65 2.95 -0.95 2.95 0.75 3.0 1.45 3.0 1.65 3.0 2.2 2.4 4.0 1.6 4.1 1.05 3.9 -0.6 3.2 M4.95 -7.8 L4.9 -6.5 4.85 -5.05 4.9 -2.9 5.0 -1.9 5.0 -1.8 5.6 -1.55 6.0 -0.45 6.3 0.95 6.35 2.3 5.8 0.95 5.55 0.8 5.15 0.45 5.1 0.6 4.95 1.05 4.85 1.35 Q4.15 3.2 3.75 5.15 L3.2 8.05 3.15 8.5 2.1 8.75 1.55 8.85 Q0.4 8.9 -0.25 9.6 L-2.75 11.5 -1.85 9.15 -2.45 9.4 Q-4.35 9.1 -5.7 10.35 L-5.75 10.4 -5.4 9.25 -5.3 8.95 -4.7 8.35 -4.8 8.35 -5.35 8.3 -4.4 6.75 Q-3.6 6.7 -2.7 6.05 M-0.6 3.15 L-0.35 2.55 0.0 2.3 0.05 1.6 0.35 0.55 0.5 0.0 1.0 -2.5 1.25 -6.75 1.55 -8.45 1.8 -9.05 1.9 -9.2 M2.25 1.85 L2.25 2.4 M-0.7 7.5 L-1.85 9.15 M-5.4 9.25 L-5.7 10.35 M-2.05 6.75 L-3.4 7.85 -4.7 8.35" fill="none" stroke="#000000" stroke-linecap="round" stroke-linejoin="round" stroke-width="0.05"/>
    <path d="M3.6 -7.55 L3.9 -7.5 Q4.35 -7.5 4.95 -7.8 M-2.7 6.05 L-3.0 5.65 -2.95 5.55 -2.45 5.35 -1.55 4.45 -0.6 3.2 -0.6 3.15 M3.65 -6.3 L3.85 -6.2 4.9 -6.5 M3.0 -8.8 L3.0 -7.15 2.7 -5.25 2.35 -3.3 2.2 -2.2 2.2 -2.0 2.05 -0.05 2.2 1.65 2.25 1.85 M2.25 2.4 L2.1 3.0 2.05 3.0 0.6 3.1 M3.05 -1.65 L3.4 -1.85 5.0 -1.9 M4.9 -2.9 L3.2 -2.95 M3.0 1.45 L4.85 1.35 M2.95 0.75 L5.1 0.6 M1.6 4.1 Q1.85 5.2 0.8 5.15 L0.3 5.2 Q0.25 5.75 0.9 6.0 L0.0 7.15 -1.35 6.6 Q-2.0 6.25 -2.45 5.35 M2.4 4.0 L2.65 4.55 Q2.8 5.45 2.0 6.15 L2.25 6.4 Q2.9 7.05 3.2 8.05 M2.1 8.75 L1.5 7.4 1.2 7.0 0.75 7.6 -0.7 7.5 -1.2 7.3 -2.05 6.75 -2.7 6.05 M1.2 7.0 L2.0 6.15" fill="none" stroke="#000000" stroke-linecap="round" stroke-linejoin="round" stroke-width="0.05"/>
  </g>
</svg>
