<?xml version="1.0" encoding="UTF-8" standalone="no"?>
<svg xmlns:xlink="http://www.w3.org/1999/xlink" height="23.25px" width="12.1px" xmlns="http://www.w3.org/2000/svg">
  <g transform="matrix(1.0, 0.0, 0.0, 1.0, 0.0, 0.0)">
    <path d="M4.95 -11.7 L4.95 -10.8 4.85 -5.05 5.0 -1.8 5.6 -1.55 6.0 -0.45 6.3 0.95 6.35 2.3 5.8 0.95 5.55 0.8 5.15 0.45 4.95 1.05 Q4.2 3.05 3.75 5.15 L3.15 8.5 1.55 8.85 Q0.4 8.9 -0.25 9.6 L-2.75 11.5 -1.85 9.15 -2.45 9.4 Q-4.35 9.1 -5.7 10.35 L-5.4 9.25 -5.3 8.95 -4.7 8.35 -3.4 7.85 -1.4 6.0 -0.45 4.55 -1.4 6.0 -3.4 7.85 -4.7 8.35 -4.8 8.35 -5.35 8.3 -4.4 6.75 Q-3.4 6.65 -2.25 5.65 -1.4 5.4 -0.45 4.55 L0.1 2.95 1.1 -0.6 Q1.65 -2.35 1.65 -4.7 1.65 -7.0 1.95 -9.5 2.0 -10.1 2.2 -10.5 2.85 -11.95 4.95 -11.7 M2.5 1.8 L2.15 2.65 1.7 4.35 1.1 5.55 Q-0.6 7.15 -1.85 9.15 -0.6 7.15 1.1 5.55 L1.7 4.35 2.15 2.65 2.5 1.8" fill="#50882d" fill-rule="evenodd" stroke="none"/>
    <path d="M-1.85 9.15 L-2.75 11.5 -0.25 9.6 Q0.4 8.9 1.55 8.85 L3.15 8.5 3.75 5.15 Q4.2 3.05 4.95 1.05 L5.15 0.45 5.55 0.8 5.8 0.95 6.35 2.3 6.3 0.95 6.0 -0.45 5.6 -1.55 5.0 -1.8 4.85 -5.05 4.95 -10.8 4.95 -11.7 M2.2 -10.5 Q2.0 -10.1 1.95 -9.5 1.65 -7.0 1.65 -4.7 1.65 -2.35 1.1 -0.6 L0.1 2.95 -0.45 4.55 -1.4 6.0 -3.4 7.85 -4.7 8.35 -5.3 8.95 -5.4 9.25 -5.7 10.35 Q-4.35 9.1 -2.45 9.4 L-1.85 9.15 Q-0.6 7.15 1.1 5.55 L1.7 4.35 2.15 2.65 2.5 1.8 M-0.45 4.55 Q-1.4 5.4 -2.25 5.65 -3.4 6.65 -4.4 6.75 L-5.35 8.3 -4.8 8.35 -4.7 8.35 M-5.7 10.35 L-5.75 10.4 -5.4 9.25" fill="none" stroke="#000000" stroke-linecap="round" stroke-linejoin="round" stroke-width="0.05"/>
  </g>
</svg>
