<?xml version="1.0" encoding="UTF-8" standalone="no"?>
<svg xmlns:xlink="http://www.w3.org/1999/xlink" height="48.75px" width="33.2px" xmlns="http://www.w3.org/2000/svg">
  <g transform="matrix(1.0, 0.0, 0.0, 1.0, 0.0, 0.0)">
    <path d="M-0.65 0.8 L-0.25 -20.2 0.6 -20.2 1.05 0.8 1.05 2.55 1.1 5.0 Q0.2 6.1 -0.75 5.0 L-0.7 2.55 -0.65 0.8 1.05 0.8 -0.65 0.8 M1.05 2.55 L-0.7 2.55 1.05 2.55" fill="url(#gradient0)" fill-rule="evenodd" stroke="none"/>
    <path d="M-0.65 0.8 L-0.25 -20.2 0.6 -20.2 1.05 0.8 1.05 2.55 1.1 5.0 Q0.2 6.1 -0.75 5.0 L-0.7 2.55 -0.65 0.8" fill="none" stroke="#000000" stroke-linecap="round" stroke-linejoin="round" stroke-width="0.05"/>
    <path d="M-0.65 0.8 L1.05 0.8 M-0.7 2.55 L1.05 2.55" fill="none" stroke="#ffff99" stroke-linecap="round" stroke-linejoin="round" stroke-width="0.05"/>
    <path d="M10.8 -38.85 L11.3 -38.35 11.55 -38.05 Q15.7 -33.75 16.1 -27.9 L16.15 -26.65 16.15 -26.35 Q16.05 -19.7 11.4 -14.95 16.05 -19.7 16.15 -26.35 L16.15 -26.65 16.1 -27.9 Q15.7 -33.75 11.55 -38.05 L11.3 -38.35 10.8 -38.85 10.0 -39.9 11.95 -38.35 12.2 -38.05 Q16.35 -33.75 16.75 -27.9 L16.8 -26.65 16.8 -26.35 Q16.7 -19.65 11.95 -14.9 L10.5 -13.55 11.4 -14.95 10.4 -15.95 10.7 -16.25 10.95 -16.55 Q14.9 -21.1 15.7 -26.85 L15.6 -27.4 Q14.55 -33.1 10.55 -37.4 L10.6 -37.4 10.0 -38.0 10.8 -38.85 M-4.35 -32.85 Q-2.7 -34.25 -0.6 -34.45 L-0.1 -43.15 0.1 -43.2 0.2 -43.2 0.45 -43.15 0.95 -34.45 Q3.15 -34.3 4.85 -32.9 L5.55 -32.3 6.0 -31.85 Q7.45 -30.1 7.7 -27.9 L7.75 -27.05 7.75 -26.35 Q7.55 -24.15 6.1 -22.4 L5.55 -21.8 5.05 -21.3 Q3.25 -19.8 0.95 -19.6 L0.25 -19.6 0.1 -19.6 0.25 -19.6 0.95 -19.6 0.45 -10.5 0.1 -10.5 -0.1 -10.5 -0.6 -19.65 Q-2.8 -19.9 -4.5 -21.35 L-5.0 -21.8 -5.55 -22.45 Q-6.95 -24.2 -7.1 -26.35 L-7.15 -27.05 -7.1 -27.9 Q-6.9 -30.1 -5.45 -31.75 L-5.0 -32.3 -4.35 -32.85 M0.95 -34.45 L0.25 -34.5 0.1 -34.5 0.25 -34.5 0.95 -34.45 M0.1 -32.7 L0.1 -34.5 0.1 -32.7 Q-2.1 -32.6 -3.65 -31.05 -5.3 -29.4 -5.3 -27.05 -5.3 -24.7 -3.65 -23.05 -2.1 -21.5 0.1 -21.4 L0.35 -21.4 Q2.7 -21.4 4.35 -23.05 6.0 -24.7 6.0 -27.05 6.0 -29.4 4.35 -31.05 2.7 -32.7 0.35 -32.7 L0.1 -32.7 M0.1 -19.6 L0.1 -21.4 0.1 -19.6 0.1 -10.5 0.1 -19.6 -0.6 -19.65 0.1 -19.6 M0.1 -34.5 L0.1 -43.2 0.1 -34.5 -0.6 -34.45 0.1 -34.5 M-10.0 -15.85 L-10.95 -14.9 -9.7 -13.65 -11.55 -14.9 Q-16.4 -19.75 -16.4 -26.65 -16.4 -33.35 -11.75 -38.1 L-11.55 -38.35 -9.55 -40.0 -10.35 -38.9 -9.5 -38.05 -10.15 -37.45 Q-14.25 -33.2 -15.3 -27.4 L-15.35 -26.85 Q-14.55 -20.95 -10.55 -16.45 L-10.0 -15.85 M-10.95 -14.9 Q-15.8 -19.75 -15.8 -26.65 -15.8 -33.35 -11.15 -38.1 L-10.95 -38.35 -10.35 -38.9 -10.95 -38.35 -11.15 -38.1 Q-15.8 -33.35 -15.8 -26.65 -15.8 -19.75 -10.95 -14.9" fill="url(#gradient1)" fill-rule="evenodd" stroke="none"/>
    <path d="M10.0 -38.0 L10.6 -37.4 10.55 -37.4 6.0 -31.85 5.55 -32.3 4.85 -32.9 10.0 -38.0 M15.6 -27.4 L15.7 -26.85 7.75 -26.35 7.75 -27.05 7.7 -27.9 15.6 -27.4 M10.95 -16.55 L10.7 -16.25 10.4 -15.95 5.05 -21.3 5.55 -21.8 6.1 -22.4 10.95 -16.55 M-4.5 -21.35 L-10.0 -15.85 -10.55 -16.45 -5.55 -22.45 -5.0 -21.8 -4.5 -21.35 M-9.5 -38.05 L-4.35 -32.85 -5.0 -32.3 -5.45 -31.75 -10.15 -37.45 -9.5 -38.05 M-7.1 -27.9 L-7.15 -27.05 -7.1 -26.35 -15.35 -26.85 -15.3 -27.4 -7.1 -27.9" fill="url(#gradient2)" fill-rule="evenodd" stroke="none"/>
    <path d="M11.4 -14.95 Q16.05 -19.7 16.15 -26.35 L16.15 -26.65 16.1 -27.9 Q15.7 -33.75 11.55 -38.05 L11.3 -38.35 10.8 -38.85 M-10.35 -38.9 L-10.95 -38.35 -11.15 -38.1 Q-15.8 -33.35 -15.8 -26.65 -15.8 -19.75 -10.95 -14.9" fill="none" stroke="#ffff99" stroke-linecap="round" stroke-linejoin="round" stroke-width="0.05"/>
    <path d="M10.8 -38.85 L10.0 -38.0 10.6 -37.4 10.55 -37.4 Q14.55 -33.1 15.6 -27.4 L15.7 -26.85 Q14.9 -21.1 10.95 -16.55 L10.7 -16.25 10.4 -15.95 11.4 -14.95 10.5 -13.55 11.95 -14.9 Q16.7 -19.65 16.8 -26.35 L16.8 -26.65 16.75 -27.9 Q16.35 -33.75 12.2 -38.05 L11.95 -38.35 10.0 -39.9 10.8 -38.85 M-4.35 -32.85 Q-2.7 -34.25 -0.6 -34.45 L-0.1 -43.15 0.1 -43.2 0.2 -43.2 0.45 -43.15 0.95 -34.45 Q3.15 -34.3 4.85 -32.9 L10.0 -38.0 M4.85 -32.9 L5.55 -32.3 6.0 -31.85 10.55 -37.4 M0.1 -34.5 L0.25 -34.5 0.95 -34.45 M0.1 -32.7 L0.35 -32.7 Q2.7 -32.7 4.35 -31.05 6.0 -29.4 6.0 -27.05 6.0 -24.7 4.35 -23.05 2.7 -21.4 0.35 -21.4 L0.1 -21.4 Q-2.1 -21.5 -3.65 -23.05 -5.3 -24.7 -5.3 -27.05 -5.3 -29.4 -3.65 -31.05 -2.1 -32.6 0.1 -32.7 M0.1 -19.6 L0.25 -19.6 0.95 -19.6 Q3.25 -19.8 5.05 -21.3 L5.55 -21.8 6.1 -22.4 Q7.55 -24.15 7.75 -26.35 L7.75 -27.05 7.7 -27.9 Q7.45 -30.1 6.0 -31.85 M0.1 -34.5 L-0.6 -34.45 M7.7 -27.9 L15.6 -27.4 M15.7 -26.85 L7.75 -26.35 M0.95 -19.6 L0.45 -10.5 0.1 -10.5 -0.1 -10.5 -0.6 -19.65 Q-2.8 -19.9 -4.5 -21.35 L-10.0 -15.85 -10.95 -14.9 -9.7 -13.65 -11.55 -14.9 Q-16.4 -19.75 -16.4 -26.65 -16.4 -33.35 -11.75 -38.1 L-11.55 -38.35 -9.55 -40.0 -10.35 -38.9 -9.5 -38.05 -4.35 -32.85 -5.0 -32.3 -5.45 -31.75 Q-6.9 -30.1 -7.1 -27.9 L-7.15 -27.05 -7.1 -26.35 Q-6.95 -24.2 -5.55 -22.45 L-5.0 -21.8 -4.5 -21.35 M0.1 -19.6 L-0.6 -19.65 M6.1 -22.4 L10.95 -16.55 M10.4 -15.95 L5.05 -21.3 M-15.35 -26.85 L-15.3 -27.4 Q-14.25 -33.2 -10.15 -37.45 L-9.5 -38.05 M-5.45 -31.75 L-10.15 -37.45 M-7.1 -26.35 L-15.35 -26.85 Q-14.55 -20.95 -10.55 -16.45 L-5.55 -22.45 M-15.3 -27.4 L-7.1 -27.9 M-10.0 -15.85 L-10.55 -16.45" fill="none" stroke="#000000" stroke-linecap="round" stroke-linejoin="round" stroke-width="0.05"/>
    <path d="M0.1 -34.5 L0.1 -32.7 M0.1 -21.4 L0.1 -19.6 0.1 -10.5 M0.1 -43.2 L0.1 -34.5" fill="none" stroke="#ffffcc" stroke-linecap="round" stroke-linejoin="round" stroke-width="0.05"/>
  </g>
  <defs>
    <linearGradient gradientTransform="matrix(0.001, 0.0, 0.0, 0.0154, 0.15, -7.6)" gradientUnits="userSpaceOnUse" id="gradient0" spreadMethod="pad" x1="-819.2" x2="819.2">
      <stop offset="0.0" stop-color="#9f9f5b"/>
      <stop offset="0.4823529411764706" stop-color="#ffffe2"/>
      <stop offset="1.0" stop-color="#9f9f5b"/>
    </linearGradient>
    <linearGradient gradientTransform="matrix(0.0202, 0.0, 0.0, 0.0091, 0.25, -27.05)" gradientUnits="userSpaceOnUse" id="gradient1" spreadMethod="pad" x1="-819.2" x2="819.2">
      <stop offset="0.0" stop-color="#d8cb2c"/>
      <stop offset="0.5450980392156862" stop-color="#ffffff"/>
      <stop offset="1.0" stop-color="#d7ca33"/>
    </linearGradient>
    <linearGradient gradientTransform="matrix(0.0176, 0.0, 0.0, 0.0038, -0.2, -34.7)" gradientUnits="userSpaceOnUse" id="gradient2" spreadMethod="pad" x1="-819.2" x2="819.2">
      <stop offset="0.0" stop-color="#9f9f5b"/>
      <stop offset="0.4823529411764706" stop-color="#ffffe2"/>
      <stop offset="1.0" stop-color="#9f9f5b"/>
    </linearGradient>
  </defs>
</svg>
