<?xml version="1.0" encoding="UTF-8" standalone="no"?>
<svg xmlns:xlink="http://www.w3.org/1999/xlink" height="43.6px" width="29.85px" xmlns="http://www.w3.org/2000/svg">
  <g transform="matrix(1.0, 0.0, 0.0, 1.0, 0.0, 0.0)">
    <path d="M-0.6 -32.1 L0.9 -32.1 0.9 -6.7 Q0.15 -5.45 -0.6 -5.3 L-0.6 -32.1" fill="#2b2111" fill-rule="evenodd" stroke="none"/>
    <path d="M0.9 -6.7 L1.2 -3.2 1.3 1.15 1.25 5.1 Q0.15 6.0 -0.8 5.1 L-0.95 2.15 -0.9 -1.35 -0.6 -5.3 Q0.15 -5.45 0.9 -6.7 M-0.95 2.15 Q0.3 2.0 1.3 1.15 0.3 2.0 -0.95 2.15 M1.2 -3.2 L0.7 -2.75 -0.75 -1.5 -0.9 -1.35 -0.75 -1.5 0.7 -2.75 1.2 -3.2" fill="#48341e" fill-rule="evenodd" stroke="none"/>
    <path d="M-0.6 -32.1 L-0.95 -32.55 Q-1.8 -33.75 -1.8 -35.2 L-1.25 -34.8 -0.75 -34.25 -0.65 -34.65 -0.2 -36.85 Q0.0 -38.05 0.5 -38.05 L0.75 -34.35 1.35 -34.75 2.0 -35.4 2.0 -34.5 1.5 -32.8 0.9 -32.1 -0.6 -32.1" fill="url(#gradient0)" fill-rule="evenodd" stroke="none"/>
    <path d="M0.9 -32.1 L1.5 -32.8 2.0 -34.5 2.0 -35.4 1.35 -34.75 0.75 -34.35 0.5 -38.05 Q0.0 -38.05 -0.2 -36.85 L-0.65 -34.65 -0.75 -34.25 -1.25 -34.8 -1.8 -35.2 Q-1.8 -33.75 -0.95 -32.55 L-0.6 -32.1 0.9 -32.1 0.9 -6.7 1.2 -3.2 1.3 1.15 1.25 5.1 Q0.15 6.0 -0.8 5.1 L-0.95 2.15 -0.9 -1.35 -0.6 -5.3 -0.6 -32.1 M-0.9 -1.35 L-0.75 -1.5 0.7 -2.75 1.2 -3.2 M1.3 1.15 Q0.3 2.0 -0.95 2.15 M0.9 -6.7 Q0.15 -5.45 -0.6 -5.3" fill="none" stroke="#000000" stroke-linecap="round" stroke-linejoin="round" stroke-width="0.05"/>
    <path d="M-14.8 -28.75 L-14.15 -30.85 -13.25 -32.95 -12.05 -34.9 -9.75 -37.55 -9.3 -36.2 -8.7 -35.0 -7.85 -33.8 -7.6 -33.5 -7.9 -32.2 Q-7.9 -31.0 -7.05 -30.2 -6.2 -29.35 -5.0 -29.35 -3.8 -29.35 -2.95 -30.2 L-2.75 -30.4 -1.85 -30.25 1.1 -29.8 Q2.55 -29.8 3.9 -30.5 4.75 -29.75 5.9 -29.75 7.15 -29.75 8.05 -30.65 8.95 -31.55 8.95 -32.8 8.95 -33.75 8.45 -34.5 L8.7 -35.0 9.8 -37.5 10.6 -36.75 11.5 -35.8 12.2 -34.85 13.9 -31.65 14.65 -29.45 14.85 -28.3 13.95 -28.05 13.85 -28.6 13.45 -30.35 12.15 -33.3 10.35 -35.8 12.15 -33.3 13.45 -30.35 13.85 -28.6 13.95 -28.05 14.85 -28.3 14.9 -26.15 14.75 -23.3 13.8 -23.45 14.75 -23.3 13.55 -20.1 12.0 -17.1 11.75 -17.65 12.15 -18.35 12.7 -19.9 13.8 -23.45 13.9 -24.35 Q14.1 -26.25 13.95 -28.05 14.1 -26.25 13.9 -24.35 L13.8 -23.45 12.7 -19.9 12.15 -18.35 11.75 -17.65 12.0 -17.1 10.05 -14.95 9.8 -16.9 Q9.55 -18.85 8.4 -20.5 L7.95 -21.15 Q8.5 -21.8 8.5 -22.65 8.5 -23.6 7.8 -24.3 7.15 -24.95 6.2 -24.95 5.25 -24.95 4.55 -24.3 L4.2 -23.85 3.35 -24.15 0.05 -25.0 -3.25 -24.2 -3.3 -24.25 Q-4.1 -25.05 -5.25 -25.05 -6.4 -25.05 -7.25 -24.25 -8.05 -23.4 -8.05 -22.25 L-7.75 -20.95 -8.6 -19.55 -9.6 -16.85 -9.95 -14.95 -10.55 -15.5 -12.6 -18.25 -14.2 -21.15 Q-14.9 -22.95 -14.95 -24.8 L-14.9 -28.05 -14.8 -28.6 -14.8 -28.75 M-14.25 -28.05 L-14.9 -28.05 -14.25 -28.05 -14.15 -28.8 -12.95 -32.4 -11.8 -34.4 -10.45 -35.75 -11.8 -34.4 -12.95 -32.4 -14.15 -28.8 -14.25 -28.05 -12.8 -27.8 -14.25 -28.05 Q-14.5 -26.3 -14.25 -24.4 L-13.65 -21.65 -14.25 -24.4 Q-14.5 -26.3 -14.25 -28.05 M1.9 -25.5 L2.0 -27.7 2.05 -28.8 2.0 -27.7 5.55 -27.65 2.4 -26.9 5.55 -27.65 2.0 -27.7 1.9 -25.5 M12.7 -27.85 L13.95 -28.05 12.7 -27.85 M11.5 -18.0 L11.75 -17.65 11.5 -18.0 M10.45 -16.3 L11.75 -17.65 10.45 -16.3 M-13.65 -21.65 L-14.2 -21.15 -13.65 -21.65 Q-13.2 -20.05 -12.3 -18.6 L-10.65 -16.3 -12.3 -18.6 Q-13.2 -20.05 -13.65 -21.65 M-1.05 -25.6 L-1.0 -27.6 -5.1 -27.25 -5.2 -27.25 -5.2 -27.2 -5.1 -27.25 -1.6 -27.2 -5.1 -27.25 -5.2 -27.2 -5.2 -27.25 -5.1 -27.25 -1.0 -27.6 -0.95 -29.1 -1.0 -27.6 -1.05 -25.6 M-0.15 -29.25 L-0.15 -25.55 -0.15 -29.25" fill="url(#gradient1)" fill-rule="evenodd" stroke="none"/>
    <path d="M14.85 -28.3 L14.65 -29.45 13.9 -31.65 12.2 -34.85 11.5 -35.8 10.6 -36.75 9.8 -37.5 8.7 -35.0 8.45 -34.5 Q8.95 -33.75 8.95 -32.8 8.95 -31.55 8.05 -30.65 7.15 -29.75 5.9 -29.75 4.75 -29.75 3.9 -30.5 2.55 -29.8 1.1 -29.8 L-1.85 -30.25 -2.75 -30.4 -2.95 -30.2 Q-3.8 -29.35 -5.0 -29.35 -6.2 -29.35 -7.05 -30.2 -7.9 -31.0 -7.9 -32.2 L-7.6 -33.5 -7.85 -33.8 -8.7 -35.0 -9.3 -36.2 -9.75 -37.55 -12.05 -34.9 -13.25 -32.95 -14.15 -30.85 -14.8 -28.75 M-14.8 -28.6 L-14.9 -28.05 -14.95 -24.8 Q-14.9 -22.95 -14.2 -21.15 L-12.6 -18.25 -10.55 -15.5 -9.95 -14.95 -9.6 -16.85 -8.6 -19.55 -7.75 -20.95 -8.05 -22.25 Q-8.05 -23.4 -7.25 -24.25 -6.4 -25.05 -5.25 -25.05 -4.1 -25.05 -3.3 -24.25 L-3.25 -24.2 0.05 -25.0 3.35 -24.15 4.2 -23.85 4.55 -24.3 Q5.25 -24.95 6.2 -24.95 7.15 -24.95 7.8 -24.3 8.5 -23.6 8.5 -22.65 8.5 -21.8 7.95 -21.15 L8.4 -20.5 Q9.55 -18.85 9.8 -16.9 L10.05 -14.95 12.0 -17.1 13.55 -20.1 14.75 -23.3 14.9 -26.15 14.85 -28.3" fill="none" stroke="#000000" stroke-linecap="round" stroke-linejoin="round" stroke-width="0.05"/>
    <path d="M-0.15 -25.55 L-0.15 -29.25" fill="none" stroke="#beac9a" stroke-linecap="round" stroke-linejoin="round" stroke-width="0.05"/>
    <path d="M-14.8 -28.75 L-14.8 -28.6 M-14.9 -28.05 L-14.25 -28.05 -12.8 -27.8 M2.05 -28.8 L2.0 -27.7 5.55 -27.65 2.4 -26.9 M2.0 -27.7 L1.9 -25.5 M14.85 -28.3 L13.95 -28.05 12.7 -27.85 M13.8 -23.45 L14.75 -23.3 M11.75 -17.65 L11.5 -18.0 M12.0 -17.1 L11.75 -17.65 M-14.2 -21.15 L-13.65 -21.65 M-1.6 -27.2 L-5.1 -27.25 -5.2 -27.2 -5.2 -27.25 -5.1 -27.25 -1.0 -27.6 -0.95 -29.1 M-1.0 -27.6 L-1.05 -25.6" fill="none" stroke="#000000" stroke-linecap="round" stroke-linejoin="round" stroke-width="0.05"/>
    <path d="M-14.25 -28.05 L-14.15 -28.8 -12.95 -32.4 -11.8 -34.4 -10.45 -35.75 M13.95 -28.05 L13.85 -28.6 13.45 -30.35 12.15 -33.3 10.35 -35.8 M13.95 -28.05 Q14.1 -26.25 13.9 -24.35 L13.8 -23.45 12.7 -19.9 12.15 -18.35 11.75 -17.65 10.45 -16.3 M-13.65 -21.65 L-14.25 -24.4 Q-14.5 -26.3 -14.25 -28.05 M-10.65 -16.3 L-12.3 -18.6 Q-13.2 -20.05 -13.65 -21.65" fill="none" stroke="#cccccc" stroke-linecap="round" stroke-linejoin="round" stroke-width="0.05"/>
  </g>
  <defs>
    <linearGradient gradientTransform="matrix(0.0023, 0.0, 0.0, 0.0036, 0.1, -35.1)" gradientUnits="userSpaceOnUse" id="gradient0" spreadMethod="pad" x1="-819.2" x2="819.2">
      <stop offset="0.0" stop-color="#444444"/>
      <stop offset="0.5137254901960784" stop-color="#888888"/>
      <stop offset="1.0" stop-color="#564036"/>
    </linearGradient>
    <linearGradient gradientTransform="matrix(0.0183, 0.0, 0.0, 0.0138, 0.0, -26.25)" gradientUnits="userSpaceOnUse" id="gradient1" spreadMethod="pad" x1="-819.2" x2="819.2">
      <stop offset="0.0" stop-color="#444444"/>
      <stop offset="0.5137254901960784" stop-color="#888888"/>
      <stop offset="1.0" stop-color="#564036"/>
    </linearGradient>
  </defs>
</svg>
