<?xml version="1.0" encoding="UTF-8" standalone="no"?>
<svg xmlns:xlink="http://www.w3.org/1999/xlink" height="43.3px" width="30.6px" xmlns="http://www.w3.org/2000/svg">
  <g transform="matrix(1.0, 0.0, 0.0, 1.0, 0.0, 0.0)">
    <path d="M-3.2 -36.2 L-5.55 -33.85 -8.4 -33.85 -8.4 -29.85 -1.6 -29.85 -1.6 -31.35 1.95 -31.35 1.95 -29.85 9.2 -29.85 9.2 -33.85 6.35 -33.85 4.0 -36.2 14.35 -36.2 14.35 -15.95 4.15 -15.95 6.7 -18.45 9.2 -18.45 9.2 -25.4 1.95 -25.4 1.95 -24.25 1.95 -23.05 1.95 -21.55 0.9 -21.55 -0.55 -21.55 -1.6 -21.55 -1.6 -23.05 -1.6 -24.25 -1.6 -25.4 -8.4 -25.4 -8.4 -18.45 -5.9 -18.45 -3.35 -15.95 -13.55 -15.95 -13.55 -36.2 -3.2 -36.2 M0.9 -5.75 L1.95 -2.75 1.95 -2.35 1.95 2.85 1.95 4.75 1.95 6.05 -0.7 6.05 -1.6 6.05 -1.6 4.75 -1.6 2.85 -1.6 -2.35 -1.6 -2.75 -0.55 -5.75 0.0 -5.75 -0.7 -2.35 0.0 -5.75 0.9 -5.75 M2.05 -32.1 Q1.35 -31.6 0.25 -31.6 -0.75 -31.6 -1.55 -32.1 L-1.85 -32.35 Q-2.25 -32.75 -2.25 -33.25 -2.25 -33.95 -1.55 -34.4 L0.15 -34.75 0.25 -34.75 2.05 -34.4 Q2.85 -33.95 2.85 -33.25 2.85 -32.55 2.05 -32.1 M10.25 -29.85 L9.2 -29.85 10.25 -29.85 M1.95 -28.8 L1.95 -29.85 1.95 -28.8 8.3 -28.8 1.95 -28.8 1.95 -25.4 1.95 -28.8 M-1.6 -28.8 L-7.5 -28.8 -1.6 -28.8 -1.6 -29.85 -1.6 -28.8 -1.6 -25.4 -1.6 -28.8 M-9.6 -29.85 L-8.4 -29.85 -9.6 -29.85 M-9.6 -25.4 L-8.4 -25.4 -9.6 -25.4 M10.25 -25.4 L9.2 -25.4 10.25 -25.4 M-1.0 -23.05 L-1.6 -23.05 -1.0 -23.05 -1.0 -24.25 -1.0 -23.05 -1.0 -22.15 -1.0 -23.05 1.95 -23.05 -1.0 -23.05 M-1.6 -24.25 L-1.0 -24.25 -1.6 -24.25 M-0.7 -2.35 L-1.6 -2.35 -0.7 -2.35 -0.7 2.85 -0.7 4.75 -0.7 2.85 -0.7 -2.35 1.95 -2.35 -0.7 -2.35 M-1.0 -31.05 L-1.0 -24.25 -1.0 -31.05 M-1.6 2.85 L-0.7 2.85 -1.6 2.85 M1.95 4.75 L-0.7 4.75 -1.6 4.75 -0.7 4.75 1.95 4.75 M-0.7 6.05 L-0.7 4.75 -0.7 6.05 M1.95 2.85 L-0.7 2.85 1.95 2.85 M-1.0 -24.25 L1.95 -24.25 -1.0 -24.25 M0.15 -34.75 Q-2.05 -34.05 -1.85 -32.35 -2.05 -34.05 0.15 -34.75" fill="#845125" fill-rule="evenodd" stroke="none"/>
    <path d="M4.0 -36.2 L3.5 -36.75 3.0 -37.25 15.7 -37.25 15.7 -14.9 14.35 -14.9 3.1 -14.9 3.55 -15.35 4.15 -15.95 14.35 -15.95 14.35 -36.2 4.0 -36.2 M-3.35 -15.95 L-2.75 -15.35 -2.3 -14.9 -13.55 -14.9 -14.9 -14.9 -14.9 -37.25 -2.2 -37.25 -2.7 -36.75 -3.2 -36.2 -13.55 -36.2 -13.55 -15.95 -3.35 -15.95 M3.55 -15.35 L15.1 -15.35 15.1 -36.75 3.5 -36.75 15.1 -36.75 15.1 -15.35 3.55 -15.35 M-2.75 -15.35 L-14.3 -15.35 -14.3 -36.75 -2.7 -36.75 -14.3 -36.75 -14.3 -15.35 -2.75 -15.35" fill="#ce9125" fill-rule="evenodd" stroke="none"/>
    <path d="M0.9 -21.55 L0.9 -5.75 0.0 -5.75 -0.55 -5.75 -0.55 -21.55 0.9 -21.55" fill="#3d2312" fill-rule="evenodd" stroke="none"/>
    <path d="M-3.2 -36.2 L-5.55 -33.85 -8.4 -33.85 -8.4 -29.85 -1.6 -29.85 -1.6 -31.35 1.95 -31.35 1.95 -29.85 9.2 -29.85 9.2 -33.85 6.35 -33.85 4.0 -36.2 3.5 -36.75 3.0 -37.25 15.7 -37.25 15.7 -14.9 14.35 -14.9 3.1 -14.9 3.55 -15.35 4.15 -15.95 6.7 -18.45 9.2 -18.45 9.2 -25.4 1.95 -25.4 1.95 -24.25 1.95 -23.05 1.95 -21.55 0.9 -21.55 0.9 -5.75 1.95 -2.75 1.95 -2.35 1.95 2.85 1.95 4.75 1.95 6.05 -0.7 6.05 -1.6 6.05 -1.6 4.75 -1.6 2.85 -1.6 -2.35 -1.6 -2.75 -0.55 -5.75 -0.55 -21.55 -1.6 -21.55 -1.6 -23.05 -1.6 -24.25 -1.6 -25.4 -8.4 -25.4 -8.4 -18.45 -5.9 -18.45 -3.35 -15.95 -2.75 -15.35 -2.3 -14.9 -13.55 -14.9 -14.9 -14.9 -14.9 -37.25 -2.2 -37.25 -2.7 -36.75 -3.2 -36.2 M2.05 -32.1 Q1.35 -31.6 0.25 -31.6 -0.75 -31.6 -1.55 -32.1 L-1.85 -32.35 Q-2.25 -32.75 -2.25 -33.25 -2.25 -33.95 -1.55 -34.4 L0.15 -34.75 0.25 -34.75 2.05 -34.4 Q2.85 -33.95 2.85 -33.25 2.85 -32.55 2.05 -32.1 M8.3 -28.8 L1.95 -28.8 1.95 -25.4 M1.95 -29.85 L1.95 -28.8 M9.2 -29.85 L10.25 -29.85 M9.2 -25.4 L10.25 -25.4 M-8.4 -25.4 L-9.6 -25.4 M-8.4 -29.85 L-9.6 -29.85 M-1.6 -29.85 L-1.6 -28.8 -1.6 -25.4 M-7.5 -28.8 L-1.6 -28.8 M-1.6 -23.05 L-1.0 -23.05 1.95 -23.05 M-1.0 -24.25 L-1.6 -24.25 M-1.6 -2.35 L-0.7 -2.35 1.95 -2.35 M0.0 -5.75 L-0.55 -5.75 M-0.7 2.85 L-1.6 2.85 M-1.6 4.75 L-0.7 4.75 1.95 4.75 M0.9 -5.75 L0.0 -5.75 M-0.7 2.85 L1.95 2.85 M0.9 -21.55 L-0.55 -21.55 M1.95 -24.25 L-1.0 -24.25" fill="none" stroke="#000000" stroke-linecap="round" stroke-linejoin="round" stroke-width="0.05"/>
    <path d="M3.5 -36.75 L15.1 -36.75 15.1 -15.35 3.55 -15.35 M-2.7 -36.75 L-14.3 -36.75 -14.3 -15.35 -2.75 -15.35 M-1.0 -23.05 L-1.0 -24.25 -1.0 -31.05 M-1.0 -23.05 L-1.0 -22.15 M-0.7 -2.35 L0.0 -5.75 M-0.7 4.75 L-0.7 2.85 -0.7 -2.35 M-0.7 4.75 L-0.7 6.05 M-1.85 -32.35 Q-2.05 -34.05 0.15 -34.75" fill="none" stroke="#ffff99" stroke-linecap="round" stroke-linejoin="round" stroke-width="0.05"/>
  </g>
</svg>
