<?xml version="1.0" encoding="UTF-8" standalone="no"?>
<svg xmlns:xlink="http://www.w3.org/1999/xlink" height="45.3px" width="32.45px" xmlns="http://www.w3.org/2000/svg">
  <g transform="matrix(1.0, 0.0, 0.0, 1.0, 0.0, 0.0)">
    <path d="M0.95 -34.75 L1.15 -35.3 Q1.15 -36.2 0.25 -36.2 -0.7 -36.2 -0.7 -35.35 -0.7 -34.4 0.2 -34.4 0.65 -34.4 0.95 -34.75 M2.1 -35.3 Q2.1 -34.75 1.55 -34.35 L0.25 -33.95 Q-0.5 -33.95 -1.05 -34.35 -1.55 -34.75 -1.55 -35.3 -1.55 -35.85 -1.05 -36.25 -0.5 -36.65 0.25 -36.65 L1.55 -36.25 Q2.1 -35.85 2.1 -35.3 M-0.55 -14.7 L0.2 -14.6 0.9 -14.7 0.2 -14.6 -0.55 -14.7 -1.1 -15.0 Q-1.6 -15.4 -1.6 -15.95 -1.6 -16.5 -1.1 -16.9 L0.2 -17.3 Q1.0 -17.3 1.5 -16.9 2.0 -16.5 2.0 -15.95 2.0 -15.4 1.5 -15.0 L0.9 -14.7 0.9 -3.55 -0.55 -3.55 -0.55 -14.7 M0.95 -15.35 L1.15 -15.9 Q1.15 -16.85 0.25 -16.8 -0.7 -16.75 -0.7 -15.9 L-0.55 -15.4 Q-0.25 -14.95 0.2 -14.95 L0.95 -15.35" fill="#5a3416" fill-rule="evenodd" stroke="none"/>
    <path d="M-0.55 -3.55 L0.9 -3.55 1.25 -3.55 1.25 8.65 -1.0 8.65 -1.0 -3.55 -0.55 -3.55" fill="#3d2312" fill-rule="evenodd" stroke="none"/>
    <path d="M0.95 -34.75 Q0.65 -34.4 0.2 -34.4 -0.7 -34.4 -0.7 -35.35 -0.7 -36.2 0.25 -36.2 1.15 -36.2 1.15 -35.3 L0.95 -34.75 M0.95 -15.35 L0.2 -14.95 Q-0.25 -14.95 -0.55 -15.4 L-0.7 -15.9 Q-0.7 -16.75 0.25 -16.8 1.15 -16.85 1.15 -15.9 L0.95 -15.35" fill="#66ff00" fill-rule="evenodd" stroke="none"/>
    <path d="M2.1 -35.3 Q2.1 -34.75 1.55 -34.35 L0.25 -33.95 Q-0.5 -33.95 -1.05 -34.35 -1.55 -34.75 -1.55 -35.3 -1.55 -35.85 -1.05 -36.25 -0.5 -36.65 0.25 -36.65 L1.55 -36.25 Q2.1 -35.85 2.1 -35.3 M0.9 -14.7 L0.2 -14.6 -0.55 -14.7 -0.55 -3.55 0.9 -3.55 0.9 -14.7 1.5 -15.0 Q2.0 -15.4 2.0 -15.95 2.0 -16.5 1.5 -16.9 1.0 -17.3 0.2 -17.3 L-1.1 -16.9 Q-1.6 -16.5 -1.6 -15.95 -1.6 -15.4 -1.1 -15.0 L-0.55 -14.7 M0.9 -3.55 L1.25 -3.55 1.25 8.65 -1.0 8.65 -1.0 -3.55 -0.55 -3.55" fill="none" stroke="#000000" stroke-linecap="round" stroke-linejoin="round" stroke-width="0.05"/>
    <path d="M0.2 -26.8 Q1.85 -29.9 3.5 -31.2 L0.2 -31.55 0.2 -33.0 0.2 -33.9 Q6.95 -33.9 13.7 -27.9 L15.7 -25.7 16.45 -23.35 12.95 -25.9 Q6.6 -17.35 0.2 -17.35 L0.2 -26.8 M15.7 -24.8 L13.7 -27.0 Q6.95 -33.0 0.2 -33.0 6.95 -33.0 13.7 -27.0 L15.7 -24.8 M10.8 -27.2 Q8.4 -29.55 5.3 -30.65 1.65 -28.25 1.3 -23.9 L1.5 -20.25 Q6.6 -21.15 10.8 -27.2" fill="url(#gradient0)" fill-rule="evenodd" stroke="none"/>
    <path d="M0.2 -31.55 L-3.05 -31.2 Q-1.45 -29.9 0.2 -26.8 L0.2 -17.35 Q-6.35 -17.35 -12.55 -25.9 L-16.0 -23.35 -15.65 -24.85 -15.45 -25.7 -13.3 -27.9 Q-6.55 -33.9 0.2 -33.9 L0.2 -33.0 0.2 -31.55 M-15.65 -24.85 L-13.3 -27.0 Q-6.55 -33.0 0.2 -33.0 -6.55 -33.0 -13.3 -27.0 L-15.65 -24.85 M-10.35 -27.2 Q-6.15 -21.15 -1.05 -20.25 L-0.9 -23.9 Q-1.25 -28.25 -4.9 -30.65 -8.0 -29.55 -10.35 -27.2" fill="url(#gradient1)" fill-rule="evenodd" stroke="none"/>
    <path d="M0.2 -26.8 Q1.85 -29.9 3.5 -31.2 L0.2 -31.55 -3.05 -31.2 Q-1.45 -29.9 0.2 -26.8 M0.2 -17.35 Q6.6 -17.35 12.95 -25.9 L16.45 -23.35 15.7 -25.7 13.7 -27.9 Q6.95 -33.9 0.2 -33.9 -6.55 -33.9 -13.3 -27.9 L-15.45 -25.7 -15.65 -24.85 -16.0 -23.35 -12.55 -25.9 Q-6.35 -17.35 0.2 -17.35 M10.8 -27.2 Q6.6 -21.15 1.5 -20.25 L1.3 -23.9 Q1.65 -28.25 5.3 -30.65 8.4 -29.55 10.8 -27.2 M-10.35 -27.2 Q-6.15 -21.15 -1.05 -20.25 L-0.9 -23.9 Q-1.25 -28.25 -4.9 -30.65 -8.0 -29.55 -10.35 -27.2" fill="none" stroke="#000000" stroke-linecap="round" stroke-linejoin="round" stroke-width="0.05"/>
    <path d="M0.2 -33.0 Q6.95 -33.0 13.7 -27.0 L15.7 -24.8 M0.2 -33.0 Q-6.55 -33.0 -13.3 -27.0 L-15.65 -24.85" fill="none" stroke="#ccffcc" stroke-linecap="round" stroke-linejoin="round" stroke-width="0.05"/>
  </g>
  <defs>
    <linearGradient gradientTransform="matrix(-0.0199, 0.0, 0.0, 0.0101, 0.2, -25.7)" gradientUnits="userSpaceOnUse" id="gradient0" spreadMethod="pad" x1="-819.2" x2="819.2">
      <stop offset="0.0" stop-color="#0f1d0e"/>
      <stop offset="0.25098039215686274" stop-color="#257525"/>
      <stop offset="0.5176470588235295" stop-color="#afe251"/>
      <stop offset="0.7215686274509804" stop-color="#257525"/>
      <stop offset="1.0" stop-color="#0f1d0e"/>
    </linearGradient>
    <linearGradient gradientTransform="matrix(0.0199, 0.0, 0.0, 0.0101, 0.2, -25.7)" gradientUnits="userSpaceOnUse" id="gradient1" spreadMethod="pad" x1="-819.2" x2="819.2">
      <stop offset="0.0" stop-color="#0f1d0e"/>
      <stop offset="0.25098039215686274" stop-color="#257525"/>
      <stop offset="0.5176470588235295" stop-color="#afe251"/>
      <stop offset="0.7215686274509804" stop-color="#257525"/>
      <stop offset="1.0" stop-color="#0f1d0e"/>
    </linearGradient>
  </defs>
</svg>
