<?xml version="1.0" encoding="UTF-8" standalone="no"?>
<svg xmlns:xlink="http://www.w3.org/1999/xlink" height="40.8px" width="9.9px" xmlns="http://www.w3.org/2000/svg">
  <g transform="matrix(1.0, 0.0, 0.0, 1.0, 0.0, 0.0)">
    <path d="M-1.2 -4.05 L-1.35 -29.4 0.8 -33.25 1.4 -34.65 1.4 -27.25 0.7 -25.15 1.4 -25.15 1.4 -4.3 1.05 -3.9 1.05 -5.2 -0.55 -5.2 -0.85 -5.2 -0.85 -3.7 -1.2 -4.05 M0.8 -33.25 L-0.75 -29.15 -0.55 -5.2 -0.75 -29.15 0.8 -33.25" fill="url(#gradient0)" fill-rule="evenodd" stroke="none"/>
    <path d="M0.6 -2.4 L0.6 4.55 0.1 4.7 -0.3 4.55 -0.3 -2.4 0.6 -2.4" fill="#acacac" fill-rule="evenodd" stroke="none"/>
    <path d="M1.4 -4.3 L2.2 -5.2 5.3 -5.2 2.25 -1.8 Q1.4 -2.3 0.6 -2.4 L-0.3 -2.4 Q-1.15 -2.3 -2.0 -1.75 L-4.6 -5.2 -2.15 -5.2 -1.2 -4.05 -0.85 -3.7 -0.85 -5.2 -0.55 -5.2 1.05 -5.2 1.05 -3.9 1.4 -4.3 M-3.7 -4.75 L-1.8 -2.5 -3.7 -4.75 M0.0 -2.7 L0.0 -4.85 0.0 -2.7 M4.2 -4.75 L2.1 -2.4 4.2 -4.75" fill="url(#gradient1)" fill-rule="evenodd" stroke="none"/>
    <path d="M0.6 4.55 L0.85 4.35 1.85 6.15 0.8 6.15 0.45 5.45 0.45 6.15 -0.15 6.15 -0.15 5.35 -0.6 6.15 -1.35 6.15 -0.55 4.35 -0.3 4.55 0.1 4.7 0.6 4.55" fill="url(#gradient2)" fill-rule="evenodd" stroke="none"/>
    <path d="M-0.55 -5.2 L-0.75 -29.15 0.8 -33.25 M2.1 -2.4 L4.2 -4.75 M0.0 -4.85 L0.0 -2.7 M-1.8 -2.5 L-3.7 -4.75" fill="none" stroke="#ffffff" stroke-linecap="round" stroke-linejoin="round" stroke-width="0.05"/>
  </g>
  <defs>
    <linearGradient gradientTransform="matrix(0.0016, 0.0, 0.0, 0.0184, 0.1, -18.7)" gradientUnits="userSpaceOnUse" id="gradient0" spreadMethod="pad" x1="-819.2" x2="819.2">
      <stop offset="0.0" stop-color="#ffffff"/>
      <stop offset="0.2" stop-color="#d5d5d5"/>
      <stop offset="1.0" stop-color="#808080"/>
    </linearGradient>
    <linearGradient gradientTransform="matrix(0.006, 0.0, 0.0, 0.0021, 0.3, -3.5)" gradientUnits="userSpaceOnUse" id="gradient1" spreadMethod="pad" x1="-819.2" x2="819.2">
      <stop offset="0.0" stop-color="#ffffff"/>
      <stop offset="0.2" stop-color="#d5d5d5"/>
      <stop offset="1.0" stop-color="#808080"/>
    </linearGradient>
    <linearGradient gradientTransform="matrix(0.002, 0.0, 0.0, -0.0011, 0.2, 5.25)" gradientUnits="userSpaceOnUse" id="gradient2" spreadMethod="pad" x1="-819.2" x2="819.2">
      <stop offset="0.0" stop-color="#ffffff"/>
      <stop offset="0.2" stop-color="#d5d5d5"/>
      <stop offset="1.0" stop-color="#808080"/>
    </linearGradient>
  </defs>
</svg>
