<?xml version="1.0" encoding="UTF-8" standalone="no"?>
<svg xmlns:xlink="http://www.w3.org/1999/xlink" height="12.4px" width="17.3px" xmlns="http://www.w3.org/2000/svg">
  <g transform="matrix(1.0, 0.0, 0.0, 1.0, 0.0, 0.0)">
    <path d="M-7.4 -6.4 Q-3.8 -6.9 -1.05 -4.1 L-0.7 -3.25 -0.3 -2.75 0.55 -1.95 Q4.6 0.65 8.35 3.85 L8.7 4.25 Q6.75 7.1 3.05 5.0 -0.65 2.9 -2.7 2.25 L-7.0 0.6 -8.1 -0.4 Q-8.95 -1.8 -8.35 -4.6 -8.15 -5.55 -7.4 -6.4" fill="#50882d" fill-rule="evenodd" stroke="none"/>
    <path d="M-7.4 -6.4 Q-3.8 -6.9 -1.05 -4.1 L-0.7 -3.25 -0.3 -2.75 0.55 -1.95 Q4.6 0.65 8.35 3.85 L8.7 4.25 Q6.75 7.1 3.05 5.0 -0.65 2.9 -2.7 2.25 L-7.0 0.6 -8.1 -0.4" fill="none" stroke="#000000" stroke-linecap="round" stroke-linejoin="round" stroke-width="0.05"/>
  </g>
</svg>
