<?xml version="1.0" encoding="UTF-8" standalone="no"?>
<svg xmlns:xlink="http://www.w3.org/1999/xlink" height="9.75px" width="16.9px" xmlns="http://www.w3.org/2000/svg">
  <g transform="matrix(1.0, 0.0, 0.0, 1.0, 0.0, 0.0)">
    <path d="M-6.4 -4.95 Q-4.65 -5.05 -1.6 -2.85 L3.95 1.3 7.85 4.05 8.35 4.5 Q5.05 5.45 1.4 3.45 -2.3 1.45 -4.25 1.1 -6.25 0.7 -6.9 -0.1 L-8.55 -2.6 Q-8.6 -3.5 -6.4 -4.95" fill="#50882d" fill-rule="evenodd" stroke="none"/>
    <path d="M-6.4 -4.95 Q-4.65 -5.05 -1.6 -2.85 L3.95 1.3 7.85 4.05 8.35 4.5 Q5.05 5.45 1.4 3.45 -2.3 1.45 -4.25 1.1 -6.25 0.7 -6.9 -0.1 L-8.55 -2.6" fill="none" stroke="#000000" stroke-linecap="round" stroke-linejoin="round" stroke-width="0.05"/>
  </g>
</svg>
