<?xml version="1.0" encoding="UTF-8" standalone="no"?>
<svg xmlns:xlink="http://www.w3.org/1999/xlink" height="13.8px" width="13.3px" xmlns="http://www.w3.org/2000/svg">
  <g transform="matrix(1.0, 0.0, 0.0, 1.0, 0.0, 0.0)">
    <path d="M-5.3 -7.05 L-1.0 -6.55 2.4 -5.15 Q5.65 -3.65 6.25 -0.15 L6.65 2.2 Q4.55 -1.2 3.05 -1.8 L1.35 -2.55 Q0.1 -3.05 -0.8 -2.2 L1.65 0.55 Q2.35 1.45 2.55 2.4 L2.85 3.7 2.1 5.6 1.45 6.75 Q1.2 6.55 1.1 5.95 L0.55 3.55 Q0.1 1.75 -1.75 0.4 L-4.0 -1.05 -4.05 -0.35 -3.0 3.1 -3.05 3.25 Q-4.45 2.35 -5.3 0.9 L-5.95 -0.15 Q-5.7 -1.6 -6.4 -2.95 -6.75 -3.6 -6.65 -4.15 L-6.6 -4.8 -6.55 -5.0 -6.4 -5.3 -6.3 -5.4 Q-6.25 -6.3 -5.3 -7.05" fill="#50882d" fill-rule="evenodd" stroke="none"/>
    <path d="M-5.3 -7.05 L-1.0 -6.55 2.4 -5.15 Q5.65 -3.65 6.25 -0.15 L6.65 2.2 Q4.55 -1.2 3.05 -1.8 L1.35 -2.55 Q0.1 -3.05 -0.8 -2.2 L1.65 0.55 Q2.35 1.45 2.55 2.4 L2.85 3.7 2.1 5.6 1.45 6.75 Q1.2 6.55 1.1 5.95 L0.55 3.55 Q0.1 1.75 -1.75 0.4 L-4.0 -1.05 -4.05 -0.35 -3.0 3.1 -2.95 3.15 -3.05 3.25 Q-4.45 2.35 -5.3 0.9 L-5.95 -0.15 Q-5.7 -1.6 -6.4 -2.95 -6.75 -3.6 -6.65 -4.15 L-6.6 -4.8 -6.55 -5.0 -6.4 -5.3 -6.3 -5.4" fill="none" stroke="#000000" stroke-linecap="round" stroke-linejoin="round" stroke-width="0.05"/>
  </g>
</svg>
