<?xml version="1.0" encoding="UTF-8" standalone="no"?>
<svg xmlns:xlink="http://www.w3.org/1999/xlink" height="29.15px" width="42.1px" xmlns="http://www.w3.org/2000/svg">
  <g transform="matrix(1.0, 0.0, 0.0, 1.0, 0.0, 0.0)">
    <path d="M-21.25 -9.0 L-21.2 -9.25 -21.05 -9.9 -20.85 -10.5 -19.15 -13.85 -17.55 -14.45 -15.6 -9.85 Q-14.25 -7.05 -12.45 -4.5 L-10.65 -2.2 -8.95 -0.2 -7.75 1.05 -4.75 3.95 -3.4 5.1 -2.2 6.05 -0.35 7.45 2.15 9.2 3.6 10.0 2.75 10.55 -0.95 9.1 -2.2 8.3 -2.95 7.4 -2.2 7.35 -2.0 7.85 Q-0.4 9.4 2.15 9.2 -0.4 9.4 -2.0 7.85 L-2.2 7.35 -2.95 7.4 -4.1 6.05 Q-5.6 5.65 -6.85 4.5 L-7.75 3.8 -10.4 0.85 -12.65 -0.55 -13.55 -1.25 -14.9 -2.3 Q-16.3 -3.2 -16.55 -4.7 L-17.95 -5.8 -18.05 -5.85 -18.8 -6.4 Q-20.3 -7.5 -21.25 -9.0 M-12.45 -4.5 L-16.55 -4.7 -12.45 -4.5 M-7.75 1.05 L-8.35 1.35 Q-9.6 1.7 -10.4 0.85 -9.6 1.7 -8.35 1.35 L-7.75 1.05 M-15.15 -3.65 Q-13.2 -1.8 -10.8 -0.65 -10.05 -0.25 -8.95 -0.2 -10.05 -0.25 -10.8 -0.65 -13.2 -1.8 -15.15 -3.65 M-14.0 -5.35 L-14.8 -5.45 Q-19.0 -6.3 -21.05 -9.9 -19.0 -6.3 -14.8 -5.45 L-14.0 -5.35 M-8.5 2.2 Q-7.35 3.75 -5.35 4.7 L-3.4 5.1 -5.35 4.7 Q-7.35 3.75 -8.5 2.2 M-4.1 6.05 L-2.55 6.25 -2.2 6.05 -2.55 6.25 -4.1 6.05" fill="#5a3416" fill-rule="evenodd" stroke="none"/>
    <path d="M-20.7 -4.15 Q-21.8 -6.4 -21.25 -9.0 -20.3 -7.5 -18.8 -6.4 L-20.7 -4.15 M3.6 10.0 Q5.65 11.1 7.85 11.9 14.0 14.0 20.65 13.5 16.95 14.7 13.1 14.7 8.5 14.45 4.1 12.75 1.05 11.65 -1.9 10.15 L-0.95 9.1 2.75 10.55 3.6 10.0 M-3.15 9.45 L-4.5 8.7 -8.25 6.35 -7.7 5.65 -6.85 4.5 Q-5.6 5.65 -4.1 6.05 L-2.95 7.4 -2.2 8.3 -3.15 9.45 M-9.3 5.65 L-11.25 4.35 -14.65 1.85 -13.45 0.55 -12.65 -0.55 -10.4 0.85 -7.75 3.8 -9.3 5.65 M-15.8 0.9 L-18.6 -1.5 -19.9 -2.9 -19.4 -3.15 -17.95 -5.8 -16.55 -4.7 Q-16.3 -3.2 -14.9 -2.3 L-13.55 -1.25 Q-14.35 0.0 -15.55 0.75 L-15.8 0.9" fill="#50882d" fill-rule="evenodd" stroke="none"/>
    <path d="M-1.9 10.15 L-3.15 9.45 -2.2 8.3 -0.95 9.1 -1.9 10.15 M-8.25 6.35 L-8.3 6.3 -9.3 5.65 -7.75 3.8 -6.85 4.5 -7.7 5.65 -8.25 6.35 M-14.65 1.85 L-15.8 0.9 -15.55 0.75 Q-14.35 0.0 -13.55 -1.25 L-12.65 -0.55 -13.45 0.55 -14.65 1.85 M-19.9 -2.9 L-20.7 -4.15 -18.8 -6.4 -18.05 -5.85 -17.95 -5.8 -19.4 -3.15 -19.9 -2.9" fill="#775434" fill-rule="evenodd" stroke="none"/>
    <path d="M-20.7 -4.15 Q-21.8 -6.4 -21.25 -9.0 L-21.2 -9.25 -21.05 -9.9 -20.85 -10.5 -19.15 -13.85 -17.55 -14.45 -15.6 -9.85 Q-14.25 -7.05 -12.45 -4.5 L-10.65 -2.2 -8.95 -0.2 -7.75 1.05 -4.75 3.95 -3.4 5.1 -2.2 6.05 -0.35 7.45 2.15 9.2 3.6 10.0 Q5.65 11.1 7.85 11.9 14.0 14.0 20.65 13.5 16.95 14.7 13.1 14.7 8.5 14.45 4.1 12.75 1.05 11.65 -1.9 10.15 L-3.15 9.45 -4.5 8.7 -8.25 6.35 M-8.3 6.3 L-9.3 5.65 -11.25 4.35 -14.65 1.85 -15.8 0.9 -18.6 -1.5 -19.9 -2.9 -20.7 -4.15 M-18.8 -6.4 Q-20.3 -7.5 -21.25 -9.0 M-17.95 -5.8 L-16.55 -4.7 -12.45 -4.5 M-18.8 -6.4 L-18.05 -5.85 -17.95 -5.8" fill="none" stroke="#000000" stroke-linecap="round" stroke-linejoin="round" stroke-width="0.05"/>
    <path d="M-8.25 6.35 L-8.3 6.3 M-20.7 -4.15 L-18.8 -6.4 M-17.95 -5.8 L-19.4 -3.15 -19.9 -2.9 M-13.55 -1.25 L-12.65 -0.55 -10.4 0.85 Q-9.6 1.7 -8.35 1.35 L-7.75 1.05 M-16.55 -4.7 Q-16.3 -3.2 -14.9 -2.3 L-13.55 -1.25 Q-14.35 0.0 -15.55 0.75 L-15.8 0.9 M-21.05 -9.9 Q-19.0 -6.3 -14.8 -5.45 L-14.0 -5.35 M-8.95 -0.2 Q-10.05 -0.25 -10.8 -0.65 -13.2 -1.8 -15.15 -3.65 M-6.85 4.5 L-7.75 3.8 -9.3 5.65 M-3.4 5.1 L-5.35 4.7 Q-7.35 3.75 -8.5 2.2 M-6.85 4.5 L-7.7 5.65 -8.25 6.35 M-1.9 10.15 L-0.95 9.1 -2.2 8.3 -3.15 9.45 M2.15 9.2 Q-0.4 9.4 -2.0 7.85 L-2.2 7.35 -2.95 7.4 -2.2 8.3 M-2.2 6.05 L-2.55 6.25 -4.1 6.05 -2.95 7.4 M-4.1 6.05 Q-5.6 5.65 -6.85 4.5 M-12.65 -0.55 L-13.45 0.55 -14.65 1.85 M-7.75 3.8 L-10.4 0.85 M-0.95 9.1 L2.75 10.55 3.6 10.0" fill="none" stroke="#000000" stroke-linecap="round" stroke-linejoin="round" stroke-width="0.05"/>
  </g>
</svg>
