<?xml version="1.0" encoding="UTF-8" standalone="no"?>
<svg xmlns:xlink="http://www.w3.org/1999/xlink" height="29.15px" width="42.45px" xmlns="http://www.w3.org/2000/svg">
  <g transform="matrix(1.0, 0.0, 0.0, 1.0, 0.0, 0.0)">
    <path d="M-19.7 -2.65 Q-24.15 -7.1 -19.15 -13.85 L-17.55 -14.45 Q-16.0 -9.7 -13.3 -5.65 -10.05 -0.95 -5.9 3.05 -1.75 7.05 3.0 9.7 7.6 12.35 12.8 13.15 L20.65 13.5 19.25 14.0 Q13.65 15.6 5.8 13.45 -1.85 10.5 -4.55 8.8 L-11.3 4.45 Q-15.3 1.8 -19.7 -2.65" fill="#50882d" fill-rule="evenodd" stroke="none"/>
    <path d="M-19.7 -2.65 Q-15.3 1.8 -11.3 4.45 L-4.55 8.8 Q-1.85 10.5 5.8 13.45 13.65 15.6 19.25 14.0 L20.65 13.5 12.8 13.15 Q7.6 12.35 3.0 9.7 -1.75 7.05 -5.9 3.05 -10.05 -0.95 -13.3 -5.65 -16.0 -9.7 -17.55 -14.45 L-19.15 -13.85 Q-24.15 -7.1 -19.7 -2.65 Z" fill="none" stroke="#000000" stroke-linecap="round" stroke-linejoin="round" stroke-width="0.05"/>
  </g>
</svg>
