<?xml version="1.0" encoding="UTF-8" standalone="no"?>
<svg xmlns:xlink="http://www.w3.org/1999/xlink" height="43.25px" width="20.45px" xmlns="http://www.w3.org/2000/svg">
  <g transform="matrix(1.0, 0.0, 0.0, 1.0, 0.0, 0.0)">
    <path d="M5.05 -16.1 L6.1 -15.5 6.75 -14.85 7.8 -14.0 8.8 -12.65 9.4 -11.0 Q9.55 -10.05 9.2 -9.2 L8.5 -9.0 7.25 -8.6 6.35 -8.25 5.0 -7.85 2.9 -7.65 2.05 -7.65 1.5 -7.65 0.3 -7.8 -1.1 -8.0 -2.3 -7.7 -3.55 -7.6 -6.0 -7.85 -7.05 -8.25 -7.6 -8.7 -8.35 -9.5 -9.15 -10.2 Q-9.6 -10.3 -9.55 -11.3 -9.55 -12.3 -9.05 -12.9 L-7.15 -14.45 -7.1 -14.55 Q-7.15 -14.95 -6.65 -15.15 L-5.5 -15.9 -4.2 -16.7 -3.05 -17.05 -1.45 -17.5 0.7 -17.65 1.75 -17.55 2.9 -17.45 Q3.45 -17.6 3.95 -17.15 L4.5 -16.75 5.05 -16.1 M9.35 13.5 L9.35 14.75 9.0 15.3 8.15 14.75 8.05 14.95 7.95 15.55 Q7.9 16.3 7.1 16.75 L6.75 16.25 6.6 16.6 6.35 17.25 5.5 17.2 5.4 17.65 5.05 18.05 4.75 18.2 4.65 17.95 4.35 17.0 4.15 17.65 3.6 19.75 Q3.2 20.8 2.3 21.4 L2.55 20.2 Q2.4 20.0 2.25 19.95 L2.25 20.1 1.35 20.85 Q0.3 21.7 -0.15 23.0 -0.45 23.85 -1.2 23.9 L-1.2 22.95 -1.25 22.55 -2.1 23.45 -2.2 23.05 -2.3 22.45 -2.6 19.9 -3.15 21.05 -3.15 20.1 -3.2 19.55 -3.45 16.7 -3.5 16.35 -3.7 14.05 -3.8 12.05 -4.2 12.1 -4.4 12.0 -4.5 11.45 -4.3 11.35 Q-3.85 10.75 -2.95 10.75 L-3.0 11.35 -2.95 12.3 -3.0 13.15 -2.95 14.95 -2.8 16.35 -2.75 17.35 Q-2.85 16.4 -2.2 15.45 -1.95 14.85 -1.95 16.0 L-1.9 18.45 -1.8 19.3 -1.5 21.15 -1.3 21.7 -1.2 22.1 -0.8 20.9 -0.5 20.55 Q-0.6 19.1 0.2 17.9 L0.85 16.35 1.0 15.9 1.15 15.6 1.5 14.95 1.45 15.75 1.55 16.8 1.7 18.0 1.9 17.65 2.45 16.15 3.4 13.6 Q3.45 13.35 3.65 13.2 L3.55 11.15 4.3 11.25 4.85 12.2 5.15 13.1 5.2 13.8 5.2 14.0 Q5.25 14.9 4.5 15.35 3.4 16.1 3.65 16.3 L4.35 16.3 6.0 15.9 7.45 14.65 Q7.9 13.95 7.85 13.2 L7.7 11.95 7.0 10.45 Q7.85 10.8 8.05 11.4 L8.2 11.65 Q8.95 11.5 8.4 12.35 L8.55 12.55 Q8.45 13.25 9.15 12.95 L9.3 13.05 Q8.3 13.45 9.15 13.6 L9.35 13.5 M-6.1 -14.7 L-5.85 -14.55 -4.45 -14.3 -2.2 -14.15 -0.1 -14.5 Q0.75 -14.7 1.55 -15.3 L2.2 -16.1 2.4 -16.55 2.2 -16.1 1.55 -15.3 Q0.75 -14.7 -0.1 -14.5 L-2.2 -14.15 -4.45 -14.3 -5.85 -14.55 -6.1 -14.7 M0.5 -13.6 L0.55 -12.1 0.7 -12.05 Q2.1 -12.2 0.65 -14.15 L0.5 -13.6 M3.5 -13.5 L3.7 -13.65 Q4.1 -14.2 3.3 -14.75 L2.55 -15.3 Q2.85 -14.25 2.65 -13.3 3.25 -13.2 3.5 -13.5 M5.9 7.9 L6.0 7.7 6.3 6.95 7.05 6.85 7.4 6.15 7.35 5.6 7.75 6.0 8.2 6.65 8.7 7.4 8.8 7.85 Q8.2 8.2 7.95 7.6 L7.75 7.4 Q7.2 7.35 7.75 7.8 L7.95 7.95 8.2 8.25 7.65 8.85 7.45 8.75 5.9 7.9 M4.8 8.05 L5.05 8.35 5.5 9.15 4.8 8.8 2.9 8.6 Q3.05 7.7 2.25 8.15 L2.0 8.35 1.25 7.9 0.9 7.85 0.55 8.0 0.1 8.15 -0.5 8.0 -1.1 8.05 -1.2 7.95 Q-1.4 7.8 -1.55 7.75 -1.9 7.5 -1.95 8.15 L-1.95 8.2 -2.2 8.1 Q-2.3 8.0 -2.45 8.0 L-2.45 7.65 Q-2.15 7.4 -1.7 7.2 L-1.6 7.0 -0.2 6.65 Q-0.25 7.15 0.25 7.4 L0.5 7.35 Q1.3 6.15 1.4 7.35 L2.7 7.45 Q3.5 7.6 4.1 8.05 L4.8 8.05 M-5.5 -12.65 L-5.2 -12.75 -5.15 -12.8 -5.0 -13.1 Q-5.1 -13.85 -5.75 -13.9 L-6.35 -14.1 Q-6.45 -13.3 -5.7 -12.65 L-5.5 -12.65 M-2.7 -13.2 L-2.45 -11.75 -2.35 -11.75 Q-2.0 -11.75 -1.9 -12.0 -1.5 -12.9 -2.2 -13.2 L-2.7 -13.2" fill="#5a3416" fill-rule="evenodd" stroke="none"/>
    <path d="M3.95 -17.15 Q4.55 -17.8 4.15 -18.45 L4.8 -17.7 Q5.35 -16.85 5.05 -16.1 L4.5 -16.75 3.95 -17.15 M6.1 -15.5 Q6.45 -16.25 6.3 -17.1 L7.15 -16.2 7.25 -15.85 Q7.35 -15.2 6.75 -14.85 L6.1 -15.5 M7.3 -3.7 L7.4 -3.25 7.4 -2.8 7.05 -2.3 5.9 -2.15 Q3.7 -2.75 3.4 -3.05 L2.7 -3.5 Q1.6 -4.15 0.1 -4.15 L0.45 -3.05 Q0.5 -2.15 0.9 -1.1 1.15 -0.4 2.05 -0.05 L3.45 0.25 5.75 0.75 6.65 0.9 Q7.45 0.85 6.95 1.5 L6.7 1.8 4.2 1.9 2.65 1.35 2.55 1.3 1.85 1.15 2.25 1.7 3.25 2.65 4.9 3.95 Q5.7 4.55 6.85 4.6 L7.3 4.85 7.3 4.95 5.6 5.1 Q4.4 4.75 3.75 4.15 2.95 3.7 2.45 3.1 L1.85 2.5 1.75 2.35 1.5 2.0 1.05 0.7 1.85 1.15 1.05 0.7 Q-0.05 0.45 -0.25 -0.35 L-0.75 -2.05 -0.8 -2.15 -1.15 -3.25 -1.55 -4.35 -1.9 -5.1 -1.9 -5.3 -1.95 -4.45 -2.0 -4.1 -2.1 -2.35 -2.1 -2.1 -2.2 -1.55 -2.25 -1.1 -2.4 0.15 Q-1.55 0.85 -1.55 1.85 L-1.55 2.6 Q-1.3 3.5 -1.7 4.3 L-2.05 5.1 -2.2 5.45 -2.85 5.95 -3.5 5.75 -3.35 5.65 -3.05 5.25 -2.55 4.1 -2.45 2.8 -2.7 1.2 -2.85 0.8 Q-3.7 1.15 -4.4 1.65 L-4.5 1.7 -4.9 1.9 -5.9 2.15 -5.95 1.9 Q-5.9 1.15 -5.35 0.8 L-5.15 0.6 Q-4.3 -0.05 -3.55 -0.35 L-3.15 -0.5 -3.4 -3.85 -2.85 -4.65 -2.6 -5.3 -2.25 -6.9 -2.2 -7.5 -2.25 -6.9 -2.6 -5.3 -2.85 -4.65 -3.4 -3.85 -3.85 -3.7 -5.5 -3.35 Q-6.6 -3.25 -7.4 -2.65 L-7.45 -2.6 -7.7 -2.45 Q-8.3 -2.4 -8.35 -2.8 L-8.45 -3.05 -8.5 -3.45 -8.45 -3.95 -8.4 -3.95 -8.1 -4.2 -8.0 -4.2 -5.35 -4.75 -4.45 -5.0 -4.25 -5.35 -4.25 -5.4 -3.95 -5.8 Q-3.45 -6.75 -3.55 -7.6 L-2.3 -7.7 -1.1 -8.0 0.3 -6.05 Q0.75 -5.65 1.55 -5.5 L6.5 -4.15 7.05 -3.85 7.3 -3.7 M7.65 5.55 Q8.6 5.85 9.3 6.65 L9.3 6.85 Q9.2 8.1 10.25 8.95 L10.4 9.95 Q10.45 11.35 10.9 12.85 L10.65 12.95 9.35 13.5 9.15 13.6 Q8.3 13.45 9.3 13.05 L9.15 12.95 Q8.45 13.25 8.55 12.55 L8.4 12.35 Q8.95 11.5 8.2 11.65 L8.05 11.4 Q7.85 10.8 7.0 10.45 L5.5 9.15 5.05 8.35 4.8 8.05 4.9 6.75 5.4 7.3 5.9 7.9 7.45 8.75 7.65 8.85 8.2 8.25 7.95 7.95 7.75 7.8 Q7.2 7.35 7.75 7.4 L7.95 7.6 Q8.2 8.2 8.8 7.85 L8.7 7.4 8.2 6.65 7.75 6.0 7.35 5.6 7.35 5.45 7.65 5.55 M-5.65 9.25 L-6.05 9.0 -6.1 7.65 -3.8 6.7 -3.3 6.75 -3.15 6.85 -2.8 6.9 -2.75 6.85 -2.6 6.75 -2.55 7.3 -2.45 7.65 -2.55 7.3 -2.6 6.75 -1.6 5.95 -1.6 7.0 -1.7 7.2 Q-2.15 7.4 -2.45 7.65 L-2.45 8.0 -3.35 8.25 Q-3.4 7.4 -4.15 7.55 -4.8 7.8 -4.5 8.65 L-5.65 9.25 M-7.15 -14.45 Q-8.1 -15.0 -8.15 -16.05 L-8.05 -16.85 -7.35 -15.5 -6.65 -15.15 Q-7.15 -14.95 -7.1 -14.55 L-7.15 -14.45 M-4.2 -16.7 L-4.3 -18.3 -3.05 -17.05 -4.2 -16.7 M0.7 -17.65 L0.8 -18.1 0.6 -19.35 1.5 -18.5 1.75 -17.55 0.7 -17.65 M3.5 -13.5 Q3.25 -13.2 2.65 -13.3 2.85 -14.25 2.55 -15.3 L3.3 -14.75 Q4.1 -14.2 3.7 -13.65 L3.5 -13.5 M0.5 -13.6 L0.65 -14.15 Q2.1 -12.2 0.7 -12.05 L0.55 -12.1 0.5 -13.6 M-1.95 8.2 L-1.95 8.15 Q-1.9 7.5 -1.55 7.75 -1.4 7.8 -1.2 7.95 L-1.1 8.05 -0.5 8.0 0.1 8.15 0.55 8.0 0.9 7.85 1.25 7.9 2.0 8.35 2.25 8.15 Q3.05 7.7 2.9 8.6 L2.8 9.45 Q2.65 10.55 3.55 11.15 L3.65 13.2 Q3.45 13.35 3.4 13.6 L2.45 16.15 1.9 17.65 1.7 18.0 1.55 16.8 1.45 15.75 1.5 14.95 1.15 15.6 1.0 15.9 0.85 16.35 0.2 17.9 Q-0.6 19.1 -0.5 20.55 L-0.8 20.9 -1.2 22.1 -1.3 21.7 -1.5 21.15 -1.8 19.3 -1.9 18.45 -1.95 16.0 Q-1.95 14.85 -2.2 15.45 -2.85 16.4 -2.75 17.35 L-2.8 16.35 -2.95 14.95 -3.0 13.15 Q-2.8 13.15 -2.65 13.4 L-2.2 14.15 -1.95 13.05 -1.6 11.8 -1.45 11.2 Q-1.25 10.55 -1.85 10.35 L-2.0 10.4 -2.1 10.45 Q-2.8 10.7 -3.0 11.35 L-2.95 10.75 -1.95 8.2 M0.7 10.8 L0.6 11.15 0.6 11.35 0.45 12.45 0.2 13.45 0.0 14.6 0.0 14.7 0.15 14.7 1.35 13.95 1.4 13.85 1.95 13.5 2.25 12.5 2.4 11.5 1.2 11.65 Q1.1 11.55 1.15 11.45 L1.15 11.0 1.15 10.9 1.05 10.8 0.7 10.8 M8.7 9.9 L8.5 10.1 Q7.9 10.75 8.6 11.45 L9.7 11.5 9.65 11.35 8.7 9.9 M-5.5 -12.65 L-5.7 -12.65 Q-6.45 -13.3 -6.35 -14.1 L-5.75 -13.9 Q-5.1 -13.85 -5.0 -13.1 L-5.15 -12.8 -5.2 -12.75 -5.5 -12.65 M-2.7 -13.2 L-2.2 -13.2 Q-1.5 -12.9 -1.9 -12.0 -2.0 -11.75 -2.35 -11.75 L-2.45 -11.75 -2.7 -13.2 M0.1 -4.15 Q-0.6 -4.2 -0.9 -4.85 L-1.65 -6.2 -2.2 -7.5 -2.3 -7.7 -2.2 -7.5 -1.65 -6.2 -0.9 -4.85 Q-0.6 -4.2 0.1 -4.15 M-2.25 -6.9 L-2.0 -5.65 -1.9 -5.3 -2.0 -5.65 -2.25 -6.9 M-2.4 0.15 L-2.6 0.5 -2.85 0.8 -2.6 0.5 -2.4 0.15 M-0.85 15.2 L-0.95 15.2 -1.3 14.55 -1.5 16.2 -1.6 17.45 -1.55 17.5 -1.55 17.55 Q-1.15 17.7 -1.05 18.3 L-0.95 18.55 -0.7 18.15 -0.45 17.75 Q-0.35 16.55 -0.5 15.45 L-0.55 14.45 -0.6 14.55 -0.7 15.0 -0.7 15.2 -0.85 15.2" fill="#ae8257" fill-rule="evenodd" stroke="none"/>
    <path d="M9.2 -9.2 L8.95 -8.6 Q9.2 -6.4 8.7 -5.4 L7.95 -4.2 7.3 -3.7 7.05 -3.85 6.5 -4.15 1.55 -5.5 Q0.75 -5.65 0.3 -6.05 L-1.1 -8.0 0.3 -7.8 1.5 -7.65 2.05 -7.65 2.9 -7.65 5.0 -7.85 6.35 -8.25 7.25 -8.6 8.5 -9.0 9.2 -9.2 M7.4 -2.8 L6.95 -1.25 6.65 0.9 5.75 0.75 3.45 0.25 2.05 -0.05 Q1.15 -0.4 0.9 -1.1 0.5 -2.15 0.45 -3.05 L0.1 -4.15 Q1.6 -4.15 2.7 -3.5 L3.4 -3.05 Q3.7 -2.75 5.9 -2.15 L7.05 -2.3 7.4 -2.8 M6.7 1.8 L7.95 2.8 Q8.05 3.15 7.4 3.9 L7.4 4.5 7.3 4.85 6.85 4.6 Q5.7 4.55 4.9 3.95 L3.25 2.65 2.25 1.7 1.85 1.15 2.55 1.3 2.65 1.35 4.2 1.9 6.7 1.8 M-3.35 5.65 L-3.95 4.4 -4.55 2.65 -4.9 1.9 -4.5 1.7 -4.4 1.65 Q-3.7 1.15 -2.85 0.8 L-2.7 1.2 -2.45 2.8 -2.55 4.1 -3.05 5.25 -3.35 5.65 M-5.35 0.8 L-6.7 -0.35 -7.7 -2.45 -7.45 -2.6 -7.4 -2.65 Q-6.6 -3.25 -5.5 -3.35 L-3.85 -3.7 -3.4 -3.85 -3.15 -0.5 -3.55 -0.35 Q-4.3 -0.05 -5.15 0.6 L-5.35 0.8 M-8.4 -3.95 L-8.8 -5.4 -9.15 -7.2 -9.3 -8.8 -9.15 -10.2 -8.35 -9.5 -7.6 -8.7 -7.05 -8.25 -6.0 -7.85 -3.55 -7.6 Q-3.45 -6.75 -3.95 -5.8 L-4.25 -5.4 -4.25 -5.35 -4.45 -5.0 -5.35 -4.75 -8.0 -4.2 -8.1 -4.2 -8.4 -3.95" fill="#4d2b13" fill-rule="evenodd" stroke="none"/>
    <path d="M1.05 0.7 L1.5 2.0 -1.1 2.1 -1.55 2.6 -1.55 1.85 Q-1.55 0.85 -2.4 0.15 L-2.25 -1.1 -2.2 -1.55 -2.1 -2.1 -2.1 -2.35 -2.0 -4.1 -1.95 -4.45 -1.9 -5.3 -1.9 -5.1 -1.55 -4.35 -1.15 -3.25 -0.8 -2.15 -0.75 -2.05 -0.25 -0.35 Q-0.05 0.45 1.05 0.7" fill="#3f2310" fill-rule="evenodd" stroke="none"/>
    <path d="M0.7 10.8 L1.05 10.8 1.15 10.9 1.15 11.0 1.15 11.45 Q1.1 11.55 1.2 11.65 L2.4 11.5 2.25 12.5 1.95 13.5 1.4 13.85 1.35 13.95 0.15 14.7 0.0 14.7 0.0 14.6 0.2 13.45 0.45 12.45 0.6 11.35 0.6 11.15 0.7 10.8 M1.35 12.3 L1.25 12.35 Q0.7 12.55 1.0 13.0 L1.0 13.2 1.15 13.3 1.2 13.25 1.55 13.0 1.6 13.0 Q1.95 12.55 1.35 12.3 M9.0 10.8 L8.9 10.75 8.75 10.8 8.7 10.9 8.6 11.0 8.85 11.25 8.95 11.2 9.0 11.2 9.1 11.1 9.1 11.05 9.1 10.95 9.0 10.8 M8.7 9.9 L9.65 11.35 9.7 11.5 8.6 11.45 Q7.9 10.75 8.5 10.1 L8.7 9.9 M-4.1 8.1 L-3.85 8.35 -3.8 8.3 -3.7 8.15 -3.7 8.1 -3.85 7.95 -3.95 7.95 -4.1 8.1 M-3.35 8.25 L-4.1 8.5 -4.5 8.65 Q-4.8 7.8 -4.15 7.55 -3.4 7.4 -3.35 8.25 M-3.0 13.15 L-2.95 12.3 -3.0 11.35 Q-2.8 10.7 -2.1 10.45 L-2.0 10.4 -1.85 10.35 Q-1.25 10.55 -1.45 11.2 L-1.6 11.8 -1.95 13.05 -2.2 14.15 -2.65 13.4 Q-2.8 13.15 -3.0 13.15 M-2.25 11.7 L-2.25 11.75 Q-3.05 11.95 -2.35 12.45 L-2.3 12.45 Q-1.55 12.15 -2.25 11.7 M-0.85 15.2 L-0.7 15.2 -0.7 15.0 -0.6 14.55 -0.55 14.45 -0.5 15.45 Q-0.35 16.55 -0.45 17.75 L-0.7 18.15 -0.95 18.55 -1.05 18.3 Q-1.15 17.7 -1.55 17.55 L-1.55 17.5 -1.6 17.45 -1.5 16.2 -1.3 14.55 -0.95 15.2 -0.85 15.2" fill="#341e0e" fill-rule="evenodd" stroke="none"/>
    <path d="M1.35 12.3 Q1.95 12.55 1.6 13.0 L1.55 13.0 1.2 13.25 1.15 13.3 1.0 13.2 1.0 13.0 Q0.7 12.55 1.25 12.35 L1.35 12.3 M9.0 10.8 L9.1 10.95 9.1 11.05 9.1 11.1 9.0 11.2 8.95 11.2 8.85 11.25 8.6 11.0 8.7 10.9 8.75 10.8 8.9 10.75 9.0 10.8 M-4.1 8.1 L-3.95 7.95 -3.85 7.95 -3.7 8.1 -3.7 8.15 -3.8 8.3 -3.85 8.35 -4.1 8.1 M-2.25 11.7 Q-1.55 12.15 -2.3 12.45 L-2.35 12.45 Q-3.05 11.95 -2.25 11.75 L-2.25 11.7" fill="#e47301" fill-rule="evenodd" stroke="none"/>
    <path d="M-4.5 11.45 L-4.9 12.0 Q-5.05 12.7 -4.8 13.35 L-4.1 14.5 Q-4.3 14.7 -4.7 14.5 -6.15 14.05 -6.65 12.85 L-6.9 11.45 Q-6.8 10.55 -6.2 9.75 L-5.95 9.45 -5.65 9.25 -4.5 8.65 -4.1 8.5 -3.35 8.25 -2.45 8.0 Q-2.3 8.0 -2.2 8.1 L-1.95 8.2 -2.95 10.75 Q-3.85 10.75 -4.3 11.35 L-4.5 11.45 M5.5 9.15 L7.0 10.45 7.7 11.95 7.85 13.2 Q7.9 13.95 7.45 14.65 L6.0 15.9 4.35 16.3 3.65 16.3 Q3.4 16.1 4.5 15.35 5.25 14.9 5.2 14.0 L5.2 13.8 5.15 13.1 4.85 12.2 4.3 11.25 3.55 11.15 Q2.65 10.55 2.8 9.45 L2.9 8.6 4.8 8.8 5.5 9.15 M6.65 11.15 Q6.7 10.85 6.35 10.75 L6.2 10.7 5.1 10.6 Q4.45 10.7 4.3 11.25 4.45 10.7 5.1 10.6 L6.2 10.7 6.35 10.75 Q6.7 10.85 6.65 11.15 M7.45 14.65 L7.0 14.0 Q6.2 13.2 5.2 13.8 6.2 13.2 7.0 14.0 L7.45 14.65 M-4.9 12.0 L-5.65 11.85 -5.9 10.55 -5.95 9.45 -5.9 10.55 -5.65 11.85 -4.9 12.0 M-3.85 10.65 L-4.4 10.35 -4.25 9.95 -3.75 8.9 -4.25 9.95 -4.4 10.35 -3.85 10.65" fill="#8e6a46" fill-rule="evenodd" stroke="none"/>
    <path d="M7.4 4.5 L7.65 5.55 7.35 5.45 7.35 5.6 7.4 6.15 7.05 6.85 6.3 6.95 6.0 7.7 5.9 7.9 5.4 7.3 4.9 6.75 4.8 8.05 4.1 8.05 Q3.5 7.6 2.7 7.45 L1.4 7.35 Q1.3 6.15 0.5 7.35 L0.25 7.4 Q-0.25 7.15 -0.2 6.65 L-1.6 7.0 -1.6 5.95 -2.6 6.75 -2.75 6.85 -2.85 5.95 -2.2 5.45 -2.05 5.1 -1.7 4.3 Q-1.3 3.5 -1.55 2.6 L-1.1 2.1 1.5 2.0 1.75 2.35 1.85 2.5 2.45 3.1 Q2.95 3.7 3.75 4.15 4.4 4.75 5.6 5.1 L7.3 4.95 7.4 4.9 7.3 4.85 7.4 4.9 7.3 4.95 7.3 4.85 7.4 4.5 M1.4 3.3 L1.75 2.35 1.4 3.3 M7.35 5.6 L7.3 5.55 7.35 5.45 7.3 5.55 7.35 5.6" fill="url(#gradient0)" fill-rule="evenodd" stroke="none"/>
    <path d="M1.75 2.35 L1.4 3.3" fill="none" stroke="#004410" stroke-linecap="round" stroke-linejoin="round" stroke-width="0.05"/>
    <path d="M7.4 4.5 L7.65 5.55 M-2.75 6.85 L-2.85 5.95" fill="none" stroke="#000000" stroke-linecap="round" stroke-linejoin="round" stroke-width="0.05"/>
    <path d="M5.05 -16.1 L6.1 -15.5 6.75 -14.85 7.8 -14.0 8.8 -12.65 9.4 -11.0 Q9.55 -10.05 9.2 -9.2 L8.95 -8.6 Q9.2 -6.4 8.7 -5.4 L7.95 -4.2 7.3 -3.7 7.4 -3.25 7.4 -2.8 6.95 -1.25 6.65 0.9 Q7.45 0.85 6.95 1.5 L6.7 1.8 7.95 2.8 Q8.05 3.15 7.4 3.9 L7.4 4.5 7.3 4.85 7.4 4.9 7.3 4.95 5.6 5.1 Q4.4 4.75 3.75 4.15 2.95 3.7 2.45 3.1 L1.85 2.5 1.75 2.35 1.5 2.0 1.05 0.7 Q-0.05 0.45 -0.25 -0.35 L-0.75 -2.05 -0.8 -2.15 -1.15 -3.25 -1.55 -4.35 -1.9 -5.1 -1.9 -5.3 -1.95 -4.45 -2.0 -4.1 -2.1 -2.35 -2.1 -2.1 -2.2 -1.55 -2.25 -1.1 -2.4 0.15 Q-1.55 0.85 -1.55 1.85 L-1.55 2.6 Q-1.3 3.5 -1.7 4.3 L-2.05 5.1 -2.2 5.45 -2.85 5.95 -3.5 5.75 -3.35 5.65 -3.95 4.4 -4.55 2.65 -4.9 1.9 -5.9 2.15 -5.95 1.9 Q-5.9 1.15 -5.35 0.8 L-6.7 -0.35 -7.7 -2.45 Q-8.3 -2.4 -8.35 -2.8 L-8.45 -3.05 -8.5 -3.45 -8.45 -3.95 -8.4 -3.95 -8.8 -5.4 -9.15 -7.2 -9.3 -8.8 -9.15 -10.2 Q-9.6 -10.3 -9.55 -11.3 -9.55 -12.3 -9.05 -12.9 L-7.15 -14.45 -7.1 -14.55 Q-7.15 -14.95 -6.65 -15.15 L-5.5 -15.9 -4.2 -16.7 -3.05 -17.05 -1.45 -17.5 0.7 -17.65 1.75 -17.55 2.9 -17.45 Q3.45 -17.6 3.95 -17.15 L4.5 -16.75 5.05 -16.1 M7.65 5.55 Q8.6 5.85 9.3 6.65 L9.3 6.85 Q9.2 8.1 10.25 8.95 L10.4 9.95 Q10.45 11.35 10.9 12.85 L10.65 12.95 9.35 13.5 9.35 14.75 9.0 15.3 8.15 14.75 8.05 14.95 7.95 15.55 Q7.9 16.3 7.1 16.75 L6.75 16.25 6.6 16.6 6.35 17.25 5.5 17.2 5.4 17.65 5.05 18.05 4.75 18.2 4.65 17.95 4.35 17.0 4.15 17.65 3.6 19.75 Q3.2 20.8 2.3 21.4 L2.55 20.2 Q2.4 20.0 2.25 19.95 L2.25 20.1 1.35 20.85 Q0.3 21.7 -0.15 23.0 -0.45 23.85 -1.2 23.9 L-1.2 22.95 -1.25 22.55 -2.1 23.45 -2.2 23.05 -2.3 22.45 -2.6 19.9 -3.15 21.05 -3.15 20.1 -3.2 19.55 -3.45 16.7 -3.5 16.35 -3.7 14.05 -3.8 12.05 -4.2 12.1 -4.4 12.0 -4.5 11.45 -4.9 12.0 Q-5.05 12.7 -4.8 13.35 L-4.1 14.5 Q-4.3 14.7 -4.7 14.5 -6.15 14.05 -6.65 12.85 L-6.9 11.45 Q-6.8 10.55 -6.2 9.75 L-5.95 9.45 -5.65 9.25 -6.05 9.0 -6.1 7.65 -3.8 6.7 -3.3 6.75 -3.15 6.85 -2.8 6.9 -2.75 6.85 -2.6 6.75 -1.6 5.95 -1.6 7.0 -1.7 7.2 Q-2.15 7.4 -2.45 7.65 L-2.45 8.0 Q-2.3 8.0 -2.2 8.1 L-1.95 8.2 -1.95 8.15 Q-1.9 7.5 -1.55 7.75 -1.4 7.8 -1.2 7.95 L-1.1 8.05 -0.5 8.0 0.1 8.15 0.55 8.0 0.9 7.85 1.25 7.9 2.0 8.35 2.25 8.15 Q3.05 7.7 2.9 8.6 L2.8 9.45 Q2.65 10.55 3.55 11.15 L4.3 11.25 Q4.45 10.7 5.1 10.6 L6.2 10.7 6.35 10.75 Q6.7 10.85 6.65 11.15 M2.4 -16.55 L2.2 -16.1 1.55 -15.3 Q0.75 -14.7 -0.1 -14.5 L-2.2 -14.15 -4.45 -14.3 -5.85 -14.55 -6.1 -14.7 M-1.1 -8.0 L0.3 -7.8 1.5 -7.65 2.05 -7.65 2.9 -7.65 5.0 -7.85 6.35 -8.25 7.25 -8.6 8.5 -9.0 9.2 -9.2 M7.4 -2.8 L7.05 -2.3 5.9 -2.15 Q3.7 -2.75 3.4 -3.05 L2.7 -3.5 Q1.6 -4.15 0.1 -4.15 -0.6 -4.2 -0.9 -4.85 L-1.65 -6.2 -2.2 -7.5 -2.3 -7.7 -1.1 -8.0 M7.35 5.45 L7.3 5.55 7.35 5.6 7.35 5.45 7.65 5.55 M5.9 7.9 L6.0 7.7 6.3 6.95 7.05 6.85 7.4 6.15 7.35 5.6 7.75 6.0 8.2 6.65 8.7 7.4 8.8 7.85 Q8.2 8.2 7.95 7.6 L7.75 7.4 Q7.2 7.35 7.75 7.8 L7.95 7.95 8.2 8.25 7.65 8.85 7.45 8.75 5.9 7.9 5.4 7.3 4.9 6.75 4.8 8.05 5.05 8.35 5.5 9.15 7.0 10.45 Q7.85 10.8 8.05 11.4 L8.2 11.65 Q8.95 11.5 8.4 12.35 L8.55 12.55 Q8.45 13.25 9.15 12.95 L9.3 13.05 Q8.3 13.45 9.15 13.6 L9.35 13.5 M7.3 4.95 L7.3 4.85 M1.85 1.15 L1.05 0.7 M6.7 1.8 L4.2 1.9 2.65 1.35 2.55 1.3 1.85 1.15 M2.9 8.6 L4.8 8.8 5.5 9.15 M4.8 8.05 L4.1 8.05 Q3.5 7.6 2.7 7.45 L1.4 7.35 Q1.3 6.15 0.5 7.35 L0.25 7.4 Q-0.25 7.15 -0.2 6.65 L-1.6 7.0 M0.7 10.8 L0.6 11.15 0.6 11.35 0.45 12.45 0.2 13.45 0.0 14.6 0.0 14.7 0.15 14.7 1.35 13.95 1.4 13.85 1.95 13.5 2.25 12.5 2.4 11.5 1.2 11.65 Q1.1 11.55 1.15 11.45 L1.15 11.0 1.15 10.9 1.05 10.8 0.7 10.8 M4.3 11.25 L4.85 12.2 5.15 13.1 5.2 13.8 Q6.2 13.2 7.0 14.0 L7.45 14.65 Q7.9 13.95 7.85 13.2 L7.7 11.95 7.0 10.45 M8.7 9.9 L9.65 11.35 9.7 11.5 8.6 11.45 Q7.9 10.75 8.5 10.1 L8.7 9.9 M5.2 13.8 L5.2 14.0 Q5.25 14.9 4.5 15.35 3.4 16.1 3.65 16.3 L4.35 16.3 6.0 15.9 7.45 14.65 M-3.0 13.15 L-2.95 14.95 -2.8 16.35 -2.75 17.35 Q-2.85 16.4 -2.2 15.45 -1.95 14.85 -1.95 16.0 L-1.9 18.45 -1.8 19.3 -1.5 21.15 -1.3 21.7 -1.2 22.1 -0.8 20.9 -0.5 20.55 Q-0.6 19.1 0.2 17.9 L0.85 16.35 1.0 15.9 1.15 15.6 1.5 14.95 1.45 15.75 1.55 16.8 1.7 18.0 1.9 17.65 2.45 16.15 3.4 13.6 Q3.45 13.35 3.65 13.2 L3.55 11.15 M-3.4 -3.85 L-2.85 -4.65 -2.6 -5.3 -2.25 -6.9 -2.2 -7.5 M-3.55 -7.6 L-2.3 -7.7 M-9.15 -10.2 L-8.35 -9.5 -7.6 -8.7 -7.05 -8.25 -6.0 -7.85 -3.55 -7.6 M-7.7 -2.45 L-7.45 -2.6 -7.4 -2.65 Q-6.6 -3.25 -5.5 -3.35 L-3.85 -3.7 -3.4 -3.85 M-1.9 -5.3 L-2.0 -5.65 -2.25 -6.9 M-4.9 1.9 L-4.5 1.7 -4.4 1.65 Q-3.7 1.15 -2.85 0.8 L-2.6 0.5 -2.4 0.15 M-5.95 9.45 L-5.9 10.55 -5.65 11.85 -4.9 12.0 M-2.45 7.65 L-2.55 7.3 -2.6 6.75 M-4.5 8.65 L-4.1 8.5 -3.35 8.25 Q-3.4 7.4 -4.15 7.55 -4.8 7.8 -4.5 8.65 L-5.65 9.25 M-3.75 8.9 L-4.25 9.95 -4.4 10.35 -3.85 10.65 M-4.5 11.45 L-4.3 11.35 Q-3.85 10.75 -2.95 10.75 L-1.95 8.2 M-3.0 11.35 L-2.95 12.3 -3.0 13.15 Q-2.8 13.15 -2.65 13.4 L-2.2 14.15 -1.95 13.05 -1.6 11.8 -1.45 11.2 Q-1.25 10.55 -1.85 10.35 L-2.0 10.4 -2.1 10.45 Q-2.8 10.7 -3.0 11.35 L-2.95 10.75 M-2.45 8.0 L-3.35 8.25 M-0.85 15.2 L-0.95 15.2 -1.3 14.55 -1.5 16.2 -1.6 17.45 -1.55 17.5 -1.55 17.55 Q-1.15 17.7 -1.05 18.3 L-0.95 18.55 -0.7 18.15 -0.45 17.75 Q-0.35 16.55 -0.5 15.45 L-0.55 14.45 -0.6 14.55 -0.7 15.0 -0.7 15.2 -0.85 15.2 Z" fill="none" stroke="#000000" stroke-linecap="round" stroke-linejoin="round" stroke-width="0.05"/>
  </g>
  <defs>
    <radialGradient cx="0" cy="0" gradientTransform="matrix(0.0097, -8.0E-4, 0.0014, 0.0124, -3.0, -2.25)" gradientUnits="userSpaceOnUse" id="gradient0" r="819.2" spreadMethod="pad">
      <stop offset="0.0" stop-color="#bce05a"/>
      <stop offset="1.0" stop-color="#50882d"/>
    </radialGradient>
  </defs>
</svg>
