<?xml version="1.0" encoding="UTF-8" standalone="no"?>
<svg xmlns:xlink="http://www.w3.org/1999/xlink" height="33.35px" width="16.0px" xmlns="http://www.w3.org/2000/svg">
  <g transform="matrix(1.0, 0.0, 0.0, 1.0, 0.0, 0.0)">
    <path d="M4.45 -4.05 L6.25 -4.0 5.9 -3.1 Q5.25 -1.45 5.0 0.25 L5.0 0.45 3.75 1.9 Q2.1 3.6 -0.15 4.65 L-0.7 4.45 -0.85 3.1 1.4 2.6 1.9 2.35 1.9 -0.05 2.5 -0.45 2.8 -2.3 2.85 -2.95 3.8 -3.15 4.45 -4.05 M5.35 2.0 L5.75 2.8 Q6.45 4.3 6.75 5.9 L0.7 5.6 0.3 5.35 0.2 5.15 Q2.4 4.55 4.15 3.1 L5.35 2.0 M6.8 7.25 Q6.55 8.85 5.8 10.45 L3.1 16.2 Q2.0 16.05 1.3 15.5 -0.6 14.0 -1.3 11.55 L-2.2 7.35 -1.6 7.45 Q-0.45 7.05 0.3 6.3 2.15 7.7 4.45 7.65 L6.8 7.25 M-2.35 6.3 L-2.55 5.2 -0.9 4.9 -0.25 5.75 -0.45 6.05 Q-1.25 6.85 -2.35 6.3" fill="url(#gradient0)" fill-rule="evenodd" stroke="none"/>
    <path d="M5.7 -15.45 L5.55 -15.45 Q5.8 -13.05 3.6 -12.2 1.4 -11.4 0.55 -11.35 L-0.55 -11.3 Q-2.2 -11.45 -3.2 -11.9 L-4.7 -12.5 -5.1 -12.8 Q-5.8 -13.2 -5.85 -14.05 L-4.6 -15.65 Q-2.55 -16.8 0.0 -17.0 L4.15 -16.8 5.55 -15.55 5.7 -15.45 M2.1 -16.5 L2.95 -16.05 2.65 -15.3 Q1.1 -14.25 -0.85 -13.75 -3.55 -13.15 -4.6 -15.65 -3.55 -13.15 -0.85 -13.75 1.1 -14.25 2.65 -15.3 L2.95 -16.05 2.1 -16.5 M6.0 -11.2 L7.2 -11.4 7.35 -10.0 6.2 -9.65 5.95 -7.55 Q1.95 -7.05 -1.5 -8.05 L-1.4 -8.3 -1.4 -9.45 Q0.8 -9.3 2.9 -10.05 L6.0 -11.2 6.2 -9.65 6.0 -11.2 M5.0 0.45 L5.35 2.0 4.15 3.1 Q2.4 4.55 0.2 5.15 L-0.15 4.65 Q2.1 3.6 3.75 1.9 L5.0 0.45 M6.75 5.9 L6.8 7.25 4.45 7.65 Q2.15 7.7 0.3 6.3 L0.3 5.35 0.7 5.6 6.75 5.9 M-8.6 -7.55 L-8.4 -8.8 -4.95 -8.7 -5.5 -8.95 -7.95 -10.45 -7.55 -11.8 -6.85 -10.85 -4.25 -9.6 -4.3 -8.55 -4.05 -8.0 -4.75 -7.7 -8.6 -7.55 M6.2 -9.65 L2.8 -8.65 -1.4 -8.3 2.8 -8.65 6.2 -9.65 M-4.95 -8.7 L-4.3 -8.55 -4.95 -8.7" fill="#845125" fill-rule="evenodd" stroke="none"/>
    <path d="M5.55 -15.45 L5.7 -15.45 6.05 -14.65 Q5.85 -12.45 6.0 -11.2 5.85 -12.45 6.05 -14.65 L5.7 -15.45 6.55 -14.7 Q7.0 -14.25 7.2 -11.4 L6.0 -11.2 2.9 -10.05 Q0.8 -9.3 -1.4 -9.45 L-1.7 -9.8 -2.4 -9.95 -2.7 -10.0 -3.65 -9.95 -4.25 -9.6 -6.85 -10.85 -7.55 -11.8 -7.05 -12.75 -5.85 -14.05 Q-5.8 -13.2 -5.1 -12.8 L-4.7 -12.5 -3.2 -11.9 Q-2.2 -11.45 -0.55 -11.3 L0.55 -11.35 Q1.4 -11.4 3.6 -12.2 5.8 -13.05 5.55 -15.45 M6.2 -9.65 L7.35 -10.0 7.3 -8.25 Q7.2 -6.05 6.25 -4.0 L4.45 -4.05 Q5.6 -5.6 6.0 -7.45 L5.95 -7.55 6.0 -7.45 Q5.6 -5.6 4.45 -4.05 L3.8 -3.15 2.85 -2.95 2.8 -2.3 2.5 -0.45 1.9 -0.05 1.9 2.35 1.4 2.6 -0.85 3.1 -0.7 4.45 -0.9 4.9 -2.55 5.2 -2.6 4.95 -2.65 4.75 -3.1 3.35 -3.95 3.3 -4.3 2.8 -5.55 0.0 -6.65 -0.4 -6.75 -1.05 -6.8 -4.2 -6.8 -4.25 -5.15 -4.15 -3.65 -5.65 -2.65 -6.8 Q-2.05 -5.6 -1.8 -4.15 L-1.7 -3.45 Q0.45 -2.55 2.85 -2.95 0.45 -2.55 -1.7 -3.45 L-1.8 -4.15 Q-2.05 -5.6 -2.65 -6.8 L-3.65 -5.65 -5.15 -4.15 -6.8 -4.25 -6.85 -4.25 -7.65 -4.85 Q-8.85 -5.8 -8.6 -7.55 L-4.75 -7.7 -4.05 -8.0 -3.5 -7.6 -2.45 -7.3 Q-2.0 -7.35 -1.8 -7.65 L-1.5 -8.05 Q1.95 -7.05 5.95 -7.55 L6.2 -9.65 M-8.4 -8.8 L-7.95 -10.45 -5.5 -8.95 -4.95 -8.7 -8.4 -8.8 M-4.5 0.15 L1.9 -0.05 -4.5 0.15 -4.95 -0.05 -4.5 0.15 M-5.55 0.0 L-4.95 -0.05 -5.55 0.0 M-0.55 -11.3 L-0.7 -11.2 Q-1.25 -10.7 -2.65 -10.65 L-3.55 -11.1 Q-4.2 -11.55 -4.35 -12.05 -4.45 -12.45 -4.7 -12.5 -4.45 -12.45 -4.35 -12.05 -4.2 -11.55 -3.55 -11.1 L-2.65 -10.65 Q-1.25 -10.7 -0.7 -11.2 L-0.55 -11.3 M-2.65 -10.65 L-2.7 -10.0 -2.65 -10.65 M-2.7 -9.4 L-2.7 -9.3 -2.6 -9.35 -2.4 -9.25 -2.25 -9.2 -2.0 -9.0 -2.0 -8.55 Q-2.1 -8.2 -2.7 -7.95 L-3.05 -8.2 -3.55 -8.75 -3.35 -9.05 -2.7 -9.4 M-2.7 -7.95 L-2.7 -9.3 -2.7 -7.95 M-2.45 -7.3 L-2.65 -6.8 -2.45 -7.3 M-3.1 3.35 L-0.85 3.1 -3.1 3.35" fill="url(#gradient1)" fill-rule="evenodd" stroke="none"/>
    <path d="M-2.2 7.35 Q-3.4 7.1 -3.65 5.75 L-3.3 5.1 -2.65 4.75 -2.6 4.95 -2.85 5.3 -2.9 5.9 -2.35 6.3 Q-1.25 6.85 -0.45 6.05 L-0.25 5.75 -0.9 4.9 -0.7 4.45 -0.15 4.65 0.2 5.15 0.3 5.35 0.3 6.3 Q-0.45 7.05 -1.6 7.45 L-2.2 7.35 M-1.4 -9.45 L-1.4 -8.3 -1.5 -8.05 -1.8 -7.65 Q-2.0 -7.35 -2.45 -7.3 L-3.5 -7.6 -4.05 -8.0 -4.3 -8.55 -4.25 -9.6 -3.65 -9.95 -2.7 -10.0 -2.4 -9.95 -1.7 -9.8 -1.4 -9.45 M-2.6 -9.35 L-2.7 -9.4 -3.35 -9.05 -3.55 -8.75 -3.05 -8.2 -2.7 -7.95 Q-2.1 -8.2 -2.0 -8.55 L-2.0 -9.0 -2.25 -9.2 -2.4 -9.25 -2.6 -9.35" fill="#c39d4f" fill-rule="evenodd" stroke="none"/>
    <path d="M7.2 -11.4 Q7.0 -14.25 6.55 -14.7 L5.7 -15.45 M7.35 -10.0 L7.2 -11.4 M6.25 -4.0 Q7.2 -6.05 7.3 -8.25 L7.35 -10.0 M6.25 -4.0 L5.9 -3.1 Q5.25 -1.45 5.0 0.25 M5.0 0.45 L5.35 2.0 5.75 2.8 Q6.45 4.3 6.75 5.9 L6.8 7.25 Q6.55 8.85 5.8 10.45 L3.1 16.2 Q2.0 16.05 1.3 15.5 -0.6 14.0 -1.3 11.55 L-2.2 7.35 M-2.65 4.75 L-3.1 3.35 M-6.8 -4.2 L-6.85 -4.25 M-4.5 0.15 L-4.95 -0.05 M-2.6 -9.35 L-2.7 -9.4 -2.7 -9.3 -2.6 -9.35 -2.4 -9.25 -2.25 -9.2 -2.0 -9.0 -2.0 -8.55 Q-2.1 -8.2 -2.7 -7.95 L-3.05 -8.2 -3.55 -8.75 -3.35 -9.05 -2.7 -9.4 M-2.7 -9.3 L-2.7 -7.95 M-2.35 6.3 L-2.55 5.2 -2.6 4.95 -2.65 4.75" fill="none" stroke="#000000" stroke-linecap="round" stroke-linejoin="round" stroke-width="0.05"/>
    <path d="M5.7 -15.45 L5.55 -15.55 4.15 -16.8 0.0 -17.0 Q-2.55 -16.8 -4.6 -15.65 -3.55 -13.15 -0.85 -13.75 1.1 -14.25 2.65 -15.3 L2.95 -16.05 2.1 -16.5 M5.7 -15.45 L6.05 -14.65 Q5.85 -12.45 6.0 -11.2 L7.2 -11.4 M6.0 -11.2 L6.2 -9.65 7.35 -10.0 M6.2 -9.65 L5.95 -7.55 6.0 -7.45 Q5.6 -5.6 4.45 -4.05 L6.25 -4.0 M5.0 0.25 L5.0 0.45 3.75 1.9 Q2.1 3.6 -0.15 4.65 L0.2 5.15 0.3 5.35 0.7 5.6 6.75 5.9 M-2.2 7.35 Q-3.4 7.1 -3.65 5.75 L-3.3 5.1 -2.65 4.75 M-3.1 3.35 L-3.95 3.3 -4.3 2.8 -5.55 0.0 -6.65 -0.4 -6.75 -1.05 -6.8 -4.2 M-6.85 -4.25 L-7.65 -4.85 Q-8.85 -5.8 -8.6 -7.55 L-8.4 -8.8 -7.95 -10.45 -7.55 -11.8 -7.05 -12.75 -5.85 -14.05 -4.6 -15.65 M-5.85 -14.05 Q-5.8 -13.2 -5.1 -12.8 L-4.7 -12.5 -3.2 -11.9 Q-2.2 -11.45 -0.55 -11.3 L0.55 -11.35 Q1.4 -11.4 3.6 -12.2 5.8 -13.05 5.55 -15.45 M1.9 -0.05 L2.5 -0.45 2.8 -2.3 2.85 -2.95 Q0.45 -2.55 -1.7 -3.45 L-1.8 -4.15 Q-2.05 -5.6 -2.65 -6.8 L-3.65 -5.65 -5.15 -4.15 -6.8 -4.25 -6.85 -4.25 M2.85 -2.95 L3.8 -3.15 4.45 -4.05 M-1.4 -8.3 L2.8 -8.65 6.2 -9.65 M6.0 -11.2 L2.9 -10.05 Q0.8 -9.3 -1.4 -9.45 L-1.4 -8.3 -1.5 -8.05 Q1.95 -7.05 5.95 -7.55 M0.2 5.15 Q2.4 4.55 4.15 3.1 L5.35 2.0 M-0.85 3.1 L1.4 2.6 1.9 2.35 1.9 -0.05 -4.5 0.15 M-4.95 -0.05 L-5.55 0.0 M0.3 6.3 Q2.15 7.7 4.45 7.65 L6.8 7.25 M0.3 5.35 L0.3 6.3 Q-0.45 7.05 -1.6 7.45 L-2.2 7.35 M-4.7 -12.5 Q-4.45 -12.45 -4.35 -12.05 -4.2 -11.55 -3.55 -11.1 L-2.65 -10.65 Q-1.25 -10.7 -0.7 -11.2 L-0.55 -11.3 M-1.4 -9.45 L-1.7 -9.8 -2.4 -9.95 -2.7 -10.0 -3.65 -9.95 -4.25 -9.6 -4.3 -8.55 -4.05 -8.0 -3.5 -7.6 -2.45 -7.3 Q-2.0 -7.35 -1.8 -7.65 L-1.5 -8.05 M-2.7 -10.0 L-2.65 -10.65 M-8.6 -7.55 L-4.75 -7.7 -4.05 -8.0 M-4.3 -8.55 L-4.95 -8.7 -8.4 -8.8 M-2.65 -6.8 L-2.45 -7.3 M-4.95 -8.7 L-5.5 -8.95 -7.95 -10.45 M-7.55 -11.8 L-6.85 -10.85 -4.25 -9.6 M-2.6 4.95 L-2.85 5.3 -2.9 5.9 -2.35 6.3 Q-1.25 6.85 -0.45 6.05 L-0.25 5.75 -0.9 4.9 -2.55 5.2 M-0.15 4.65 L-0.7 4.45 -0.9 4.9 M-0.7 4.45 L-0.85 3.1 -3.1 3.35" fill="none" stroke="#000000" stroke-linecap="round" stroke-linejoin="round" stroke-width="0.05"/>
  </g>
  <defs>
    <radialGradient cx="0" cy="0" gradientTransform="matrix(0.0083, -8.0E-4, 0.0012, 0.0124, -2.5, -2.25)" gradientUnits="userSpaceOnUse" id="gradient0" r="819.2" spreadMethod="pad">
      <stop offset="0.0" stop-color="#bce05a"/>
      <stop offset="1.0" stop-color="#50882d"/>
    </radialGradient>
    <radialGradient cx="0" cy="0" gradientTransform="matrix(0.0068, 0.0, 0.0, 0.0078, -2.8, -7.85)" gradientUnits="userSpaceOnUse" id="gradient1" r="819.2" spreadMethod="pad">
      <stop offset="0.0" stop-color="#ac7846"/>
      <stop offset="1.0" stop-color="#52291b"/>
    </radialGradient>
  </defs>
</svg>
