<?xml version="1.0" encoding="UTF-8" standalone="no"?>
<svg xmlns:xlink="http://www.w3.org/1999/xlink" height="32.35px" width="14.6px" xmlns="http://www.w3.org/2000/svg">
  <g transform="matrix(1.0, 0.0, 0.0, 1.0, 0.0, 0.0)">
    <path d="M-2.3 -11.4 Q-2.4 -10.4 -1.95 -9.5 -0.8 -8.9 0.35 -8.6 L1.25 -8.15 Q2.85 -7.0 3.3 -5.1 2.85 -7.0 1.25 -8.15 L0.35 -8.6 Q-0.8 -8.9 -1.95 -9.5 -2.4 -10.4 -2.3 -11.4 M4.4 -15.8 Q6.75 -14.2 7.0 -13.0 L7.4 -9.2 Q7.55 -6.6 5.9 -3.25 4.2 0.05 5.7 2.75 7.15 5.35 6.65 8.35 5.65 10.35 4.8 12.4 L3.1 16.2 Q1.0 16.35 -0.45 13.65 -1.95 10.95 -2.2 7.5 -2.45 4.05 -4.55 0.2 L-4.95 -0.05 Q-7.1 -3.15 -7.2 -7.2 -7.35 -11.25 -5.45 -14.45 -3.9 -16.05 -0.65 -16.15 L4.4 -15.8 M3.0 0.9 Q2.3 1.25 1.75 2.05 1.35 2.6 1.3 3.3 1.35 2.6 1.75 2.05 2.3 1.25 3.0 0.9 M-3.55 -7.25 L-3.55 -4.75 -2.95 -4.8 -1.45 -4.4 -0.2 -4.1 -1.45 -4.4 -2.95 -4.8 -3.55 -4.75 Q-3.3 -3.5 -2.35 -2.5 L-2.05 -2.1 0.2 -2.05 -2.05 -2.1 -2.35 -2.5 Q-3.3 -3.5 -3.55 -4.75 L-4.25 -4.45 -3.55 -4.75 -3.55 -7.25 M-1.2 0.45 Q-1.35 -0.8 -2.05 -2.1 L-2.9 -1.95 -2.05 -2.1 Q-1.35 -0.8 -1.2 0.45 M-4.8 -10.85 L-4.9 -9.2 -5.2 -8.95 Q-6.35 -8.3 -6.45 -6.9 -6.35 -8.3 -5.2 -8.95 L-4.9 -9.2 -4.8 -10.85" fill="url(#gradient0)" fill-rule="evenodd" stroke="none"/>
    <path d="M3.3 -5.1 Q2.85 -7.0 1.25 -8.15 L0.35 -8.6 Q-0.8 -8.9 -1.95 -9.5 -2.4 -10.4 -2.3 -11.4 M-6.45 -6.9 Q-6.35 -8.3 -5.2 -8.95 L-4.9 -9.2 -4.8 -10.85 M-0.2 -4.1 L-1.45 -4.4 -2.95 -4.8 -3.55 -4.75 Q-3.3 -3.5 -2.35 -2.5 L-2.05 -2.1 0.2 -2.05 M-2.9 -1.95 L-2.05 -2.1 Q-1.35 -0.8 -1.2 0.45 M-3.55 -4.75 L-4.25 -4.45 M-3.55 -4.75 L-3.55 -7.25 M1.3 3.3 Q1.35 2.6 1.75 2.05 2.3 1.25 3.0 0.9" fill="none" stroke="#004410" stroke-linecap="round" stroke-linejoin="round" stroke-width="0.05"/>
    <path d="M4.4 -15.8 L-0.65 -16.15 Q-3.9 -16.05 -5.45 -14.45 -7.35 -11.25 -7.2 -7.2 -7.1 -3.15 -4.95 -0.05 L-4.55 0.2 Q-2.45 4.05 -2.2 7.5 -1.95 10.95 -0.45 13.65 1.0 16.35 3.1 16.2 L4.8 12.4 Q5.65 10.35 6.65 8.35 7.15 5.35 5.7 2.75 4.2 0.05 5.9 -3.25 7.55 -6.6 7.4 -9.2 L7.0 -13.0 Q6.75 -14.2 4.4 -15.8 Z" fill="none" stroke="#000000" stroke-linecap="round" stroke-linejoin="round" stroke-width="0.05"/>
  </g>
  <defs>
    <radialGradient cx="0" cy="0" gradientTransform="matrix(0.0083, -8.0E-4, 0.0012, 0.0124, -2.5, -2.25)" gradientUnits="userSpaceOnUse" id="gradient0" r="819.2" spreadMethod="pad">
      <stop offset="0.0" stop-color="#bce05a"/>
      <stop offset="1.0" stop-color="#50882d"/>
    </radialGradient>
  </defs>
</svg>
