<?xml version="1.0" encoding="UTF-8" standalone="no"?>
<svg xmlns:xlink="http://www.w3.org/1999/xlink" height="13.85px" width="16.1px" xmlns="http://www.w3.org/2000/svg">
  <g transform="matrix(1.0, 0.0, 0.0, 1.0, 0.0, 0.0)">
    <path d="M-4.4 -7.65 Q-2.35 -7.6 -0.65 -6.7 L0.3 -6.25 3.05 -4.35 3.15 -4.3 5.35 -1.75 5.45 -1.6 5.55 -1.4 6.55 0.75 6.75 1.2 6.85 1.5 7.25 2.6 7.85 4.5 4.15 5.45 Q1.8 6.1 -1.3 4.9 -1.2 3.75 -1.6 2.2 -2.1 0.65 -3.05 -0.35 L-5.15 -2.1 Q-6.25 -2.8 -6.65 -5.45 L-6.2 -6.3 Q-6.0 -7.15 -4.95 -7.5 L-4.4 -7.65 M3.0 -0.65 L3.15 -0.75 Q4.2 -0.7 4.6 0.1 4.7 0.55 4.4 0.7 L3.15 0.55 2.9 0.1 3.0 -0.65 2.9 0.1 3.15 0.55 4.4 0.7 Q4.7 0.55 4.6 0.1 4.2 -0.7 3.15 -0.75 L3.0 -0.65 M0.0 -4.7 L0.2 -4.65 1.15 -4.3 Q1.45 -4.15 1.7 -3.95 L1.9 -3.8 2.0 -3.75 2.85 -3.2 Q3.35 -2.65 3.05 -2.0 L2.9 -1.85 Q2.45 -1.65 2.0 -1.6 1.05 -1.55 0.2 -1.95 L-0.55 -2.35 Q-1.45 -2.9 -1.5 -3.9 L-1.45 -4.05 Q-0.95 -4.8 0.0 -4.7 -0.95 -4.8 -1.45 -4.05 L-1.5 -3.9 Q-1.45 -2.9 -0.55 -2.35 L0.2 -1.95 Q1.05 -1.55 2.0 -1.6 2.45 -1.65 2.9 -1.85 L3.05 -2.0 Q3.35 -2.65 2.85 -3.2 L2.0 -3.75 1.9 -3.8 1.7 -3.95 Q1.45 -4.15 1.15 -4.3 L0.2 -4.65 0.0 -4.7 M4.0 4.15 L3.45 2.9 Q2.1 0.0 -0.85 -1.3 2.1 0.0 3.45 2.9 L4.0 4.15" fill="#50882d" fill-rule="evenodd" stroke="none"/>
    <path d="M1.15 -6.45 L0.3 -6.25 1.15 -6.45 2.35 -6.25 7.5 -5.35 Q11.85 -4.35 4.4 -4.8 L3.05 -4.35 0.3 -6.25 -0.65 -6.7 Q-2.35 -7.6 -4.4 -7.65 L0.0 -8.1 Q2.3 -7.95 4.8 -6.9 L1.15 -6.45 M3.15 -4.3 L4.15 -4.15 Q7.15 -4.0 8.85 -1.3 L5.35 -1.75 3.15 -4.3 M5.55 -1.4 Q7.75 -1.0 9.45 0.7 L6.55 0.75 5.55 -1.4 M6.85 1.5 Q8.35 1.25 9.35 2.7 L7.25 2.6 6.85 1.5" fill="#004410" fill-rule="evenodd" stroke="none"/>
    <path d="M0.3 -6.25 L1.15 -6.45 4.8 -6.9 Q2.3 -7.95 0.0 -8.1 L-4.4 -7.65 Q-2.35 -7.6 -0.65 -6.7 L0.3 -6.25 3.05 -4.35 4.4 -4.8 Q11.85 -4.35 7.5 -5.35 L2.35 -6.25 1.15 -6.45 M3.15 -4.3 L4.15 -4.15 Q7.15 -4.0 8.85 -1.3 L5.35 -1.75 5.45 -1.6 5.55 -1.4 Q7.75 -1.0 9.45 0.7 L6.55 0.75 6.75 1.2 6.85 1.5 Q8.35 1.25 9.35 2.7 L7.25 2.6 7.85 4.5 M-1.3 4.9 Q-1.2 3.75 -1.6 2.2 -2.1 0.65 -3.05 -0.35 L-5.15 -2.1 Q-6.25 -2.8 -6.65 -5.45 L-6.2 -6.3 Q-6.0 -7.15 -4.95 -7.5 L-4.4 -7.65 M3.05 -4.35 L3.15 -4.3 5.35 -1.75 M6.85 1.5 L7.25 2.6 M-0.85 -1.3 Q2.1 0.0 3.45 2.9 L4.0 4.15 M5.55 -1.4 L6.55 0.75" fill="none" stroke="#000000" stroke-linecap="round" stroke-linejoin="round" stroke-width="0.05"/>
    <path d="M0.0 -4.7 Q-0.95 -4.8 -1.45 -4.05 L-1.5 -3.9 Q-1.45 -2.9 -0.55 -2.35 L0.2 -1.95 Q1.05 -1.55 2.0 -1.6 2.45 -1.65 2.9 -1.85 L3.05 -2.0 Q3.35 -2.65 2.85 -3.2 L2.0 -3.75 1.9 -3.8 1.7 -3.95 Q1.45 -4.15 1.15 -4.3 L0.2 -4.65 0.0 -4.7 M3.0 -0.65 L2.9 0.1 3.15 0.55 4.4 0.7 Q4.7 0.55 4.6 0.1 4.2 -0.7 3.15 -0.75 L3.0 -0.65 Z" fill="none" stroke="#004410" stroke-linecap="round" stroke-linejoin="round" stroke-width="0.05"/>
  </g>
</svg>
