<?xml version="1.0" encoding="UTF-8" standalone="no"?>
<svg xmlns:xlink="http://www.w3.org/1999/xlink" height="26.55px" width="31.8px" xmlns="http://www.w3.org/2000/svg">
  <g transform="matrix(1.0, 0.0, 0.0, 1.0, 0.0, 0.0)">
    <path d="M-2.45 7.1 L-3.05 7.75 -4.25 8.7 -5.65 9.4 -5.7 9.4 Q-6.8 9.7 -7.75 10.25 L-10.45 11.85 -11.85 12.6 -12.9 13.05 -13.1 13.25 -15.85 12.9 Q-16.0 11.55 -15.35 10.1 L-13.45 7.95 -13.0 7.2 -11.6 4.25 -10.05 2.55 -8.8 0.8 -6.6 -1.8 -4.55 -4.1 -1.7 -6.85 0.85 -8.9 3.3 -10.65 5.95 -12.25 7.75 -13.3 4.95 -10.7 1.95 -8.05 -0.6 -5.45 -4.0 -1.55 0.55 -4.7 3.7 -6.75 6.4 -8.35 Q8.05 -9.35 9.8 -10.05 L12.85 -11.3 15.8 -12.2 15.85 -12.15 13.15 -10.7 10.05 -9.1 6.6 -6.9 3.55 -4.65 0.95 -2.55 -1.9 -0.4 -4.55 1.75 -3.4 2.0 -4.15 3.0 -3.4 2.0 -2.65 2.6 -1.75 3.6 -1.75 4.4 Q-1.8 5.75 -2.4 7.05 L-2.45 7.1 M-2.95 5.05 L-3.3 4.75 -3.35 4.6 -3.05 4.0 -2.6 3.95 -3.05 4.0 -3.35 4.6 -3.3 4.75 -2.95 5.05 M-2.3 5.35 L-2.65 5.5 -3.2 6.1 -3.35 6.8 -3.35 7.25 -3.6 7.3 -3.7 7.3 Q-4.1 7.3 -4.3 7.55 -4.65 8.05 -4.25 8.7 -4.65 8.05 -4.3 7.55 -4.1 7.3 -3.7 7.3 L-3.6 7.3 -3.35 7.25 -3.35 6.8 -3.2 6.1 -2.65 5.5 -2.3 5.35 M-10.05 2.55 Q-8.55 1.15 -6.9 0.35 L-6.15 0.15 -4.0 -1.55 -6.15 0.15 -6.9 0.35 Q-8.55 1.15 -10.05 2.55 M-2.6 3.95 L-1.75 3.6 -2.6 3.95 M-5.4 2.9 L-6.2 2.95 -7.45 4.15 -6.2 2.95 -5.4 2.9 M-7.5 4.15 L-7.45 4.15 -7.5 4.15 Q-9.05 4.65 -10.2 5.65 -11.3 6.6 -11.5 7.85 L-11.6 8.45 -9.1 6.9 Q-7.9 5.9 -7.5 4.15 M-3.35 7.25 L-3.05 7.75 -3.35 7.25 M-4.45 6.75 L-4.75 7.15 -4.65 7.65 -4.75 7.15 -4.45 6.75 M-5.25 8.6 L-5.65 8.65 Q-5.95 9.0 -5.65 9.4 -5.95 9.0 -5.65 8.65 L-5.25 8.6 M-5.2 1.75 L-4.55 1.75 -5.2 1.75 M-13.3 11.2 Q-13.5 9.7 -11.8 8.2 L-11.5 7.85 -11.8 8.2 Q-13.5 9.7 -13.3 11.2" fill="url(#gradient0)" fill-rule="evenodd" stroke="none"/>
    <path d="M-3.4 2.0 Q-2.25 0.75 -0.55 0.1 L2.45 -0.85 4.65 -1.35 4.15 0.35 Q3.9 2.2 5.5 3.4 L5.7 3.45 3.5 5.5 4.55 7.1 1.5 7.0 -2.4 7.1 -2.4 7.05 Q-1.8 5.75 -1.75 4.4 L-1.75 3.6 -2.65 2.6 -3.4 2.0 M-1.75 3.6 L5.5 3.4 -1.75 3.6" fill="#386130" fill-opacity="0.7529412" fill-rule="evenodd" stroke="none"/>
    <path d="M15.85 -12.15 L15.8 -12.2 15.85 -12.15 M-7.45 4.15 L-7.5 4.15 -7.45 4.15" fill="#009933" fill-rule="evenodd" stroke="none"/>
    <path d="M-7.5 4.15 Q-7.9 5.9 -9.1 6.9 L-11.6 8.45 -11.5 7.85 Q-11.3 6.6 -10.2 5.65 -9.05 4.65 -7.5 4.15" fill="#00ff00" fill-rule="evenodd" stroke="none"/>
    <path d="M-2.45 7.1 L-3.05 7.75 -4.25 8.7 -5.65 9.4 -5.7 9.4 Q-6.8 9.7 -7.75 10.25 L-10.45 11.85 -11.85 12.6 -12.9 13.05 -13.1 13.25 -15.85 12.9 Q-16.0 11.55 -15.35 10.1 L-13.45 7.95 -13.0 7.2 -11.6 4.25 -10.05 2.55 -8.8 0.8 -6.6 -1.8 -4.55 -4.1 -1.7 -6.85 0.85 -8.9 3.3 -10.65 5.95 -12.25 7.75 -13.3 4.95 -10.7 1.95 -8.05 -0.6 -5.45 -4.0 -1.55 0.55 -4.7 3.7 -6.75 6.4 -8.35 Q8.05 -9.35 9.8 -10.05 L12.85 -11.3 15.8 -12.2 15.9 -12.2 15.85 -12.15 13.15 -10.7 10.05 -9.1 6.6 -6.9 3.55 -4.65 0.95 -2.55 -1.9 -0.4 -4.55 1.75 -3.4 2.0 Q-2.25 0.75 -0.55 0.1 L2.45 -0.85 4.65 -1.35 7.15 -1.45 M-2.4 7.1 L1.5 7.0 4.55 7.1 3.5 5.5 5.7 3.45 5.5 3.4 -1.75 3.6 -1.75 4.4 Q-1.8 5.75 -2.4 7.05 L-2.45 7.1 -2.4 7.1 M4.55 7.1 L6.55 7.7 M5.7 3.45 L7.8 3.7 9.45 4.3 M4.65 -1.35 L4.15 0.35 Q3.9 2.2 5.5 3.4 M-3.4 2.0 L-4.15 3.0 M-1.75 3.6 L-2.65 2.6 -3.4 2.0 M-1.75 3.6 L-2.6 3.95 M-4.0 -1.55 L-6.15 0.15 -6.9 0.35 Q-8.55 1.15 -10.05 2.55 M-7.5 4.15 Q-9.05 4.65 -10.2 5.65 -11.3 6.6 -11.5 7.85 L-11.6 8.45 -9.1 6.9 Q-7.9 5.9 -7.5 4.15 M-4.55 1.75 L-5.2 1.75" fill="none" stroke="#000000" stroke-linecap="round" stroke-linejoin="round" stroke-width="0.05"/>
    <path d="M-4.25 8.7 Q-4.65 8.05 -4.3 7.55 -4.1 7.3 -3.7 7.3 L-3.6 7.3 -3.35 7.25 -3.35 6.8 -3.2 6.1 -2.65 5.5 -2.3 5.35 M-2.6 3.95 L-3.05 4.0 -3.35 4.6 -3.3 4.75 -2.95 5.05 M-5.65 9.4 Q-5.95 9.0 -5.65 8.65 L-5.25 8.6 M-4.65 7.65 L-4.75 7.15 -4.45 6.75 M-3.05 7.75 L-3.35 7.25" fill="none" stroke="#004410" stroke-linecap="round" stroke-linejoin="round" stroke-width="0.05"/>
    <path d="M-7.45 4.15 L-6.2 2.95 -5.4 2.9 M-7.5 4.15 L-7.45 4.15 M-11.5 7.85 L-11.8 8.2 Q-13.5 9.7 -13.3 11.2" fill="none" stroke="#000000" stroke-linecap="round" stroke-linejoin="round" stroke-width="0.05"/>
    <path d="M-9.55 1.25 L-8.4 0.4 -7.0 -0.25 -7.3 0.1 -6.5 -0.35 -4.75 -0.9 Q-5.85 -0.3 -6.25 0.6 L-6.3 0.9 -7.35 1.15 -7.2 1.2 Q-6.55 1.2 -7.05 1.4 L-8.7 2.25 -8.5 2.55 -9.15 2.75 Q-10.05 3.1 -10.95 3.55 -10.75 4.05 -11.1 4.35 L-11.35 4.6 -11.45 4.6 Q-11.65 4.2 -11.35 3.8 L-11.1 3.6 -11.0 3.0 -9.9 1.35 Q-9.3 0.7 -9.55 1.25 L-9.55 1.5 -9.55 1.25 M-8.7 2.25 L-9.5 1.6 -9.55 1.5 -9.5 1.6 -8.7 2.25 M-7.3 0.1 L-7.45 0.35 Q-7.65 0.7 -7.35 1.15 -7.65 0.7 -7.45 0.35 L-7.3 0.1 M-10.95 3.55 L-11.1 3.6 -10.95 3.55" fill="#004410" fill-rule="evenodd" stroke="none"/>
    <path d="M-8.7 2.25 L-8.5 2.55 -9.15 2.75 Q-10.05 3.1 -10.95 3.55 L-11.1 3.6 -11.0 3.0 -9.9 1.35 Q-9.3 0.7 -9.55 1.25 M-9.55 1.5 L-9.5 1.6 -8.7 2.25" fill="none" stroke="#000000" stroke-linecap="round" stroke-linejoin="round" stroke-width="0.05"/>
    <path d="M-9.55 1.25 L-8.4 0.4 -7.0 -0.25 -7.3 0.1 -6.5 -0.35 -4.75 -0.9 Q-5.85 -0.3 -6.25 0.6 L-6.3 0.9 -7.35 1.15 -7.2 1.2 Q-6.55 1.2 -7.05 1.4 L-8.7 2.25 M-10.95 3.55 Q-10.75 4.05 -11.1 4.35 L-11.35 4.6 -11.4 4.75 -11.45 4.6 Q-11.65 4.2 -11.35 3.8 L-11.1 3.6 M-9.55 1.25 L-9.55 1.5 M-7.35 1.15 Q-7.65 0.7 -7.45 0.35 L-7.3 0.1" fill="none" stroke="#000000" stroke-linecap="round" stroke-linejoin="round" stroke-width="0.05"/>
  </g>
  <defs>
    <linearGradient gradientTransform="matrix(0.0024, -0.0038, 0.0131, 0.0082, -2.15, 0.45)" gradientUnits="userSpaceOnUse" id="gradient0" spreadMethod="pad" x1="-819.2" x2="819.2">
      <stop offset="0.0" stop-color="#50882d"/>
      <stop offset="1.0" stop-color="#000000"/>
    </linearGradient>
  </defs>
</svg>
