<?xml version="1.0" encoding="UTF-8" standalone="no"?>
<svg xmlns:xlink="http://www.w3.org/1999/xlink" height="14.95px" width="12.5px" xmlns="http://www.w3.org/2000/svg">
  <g transform="matrix(1.0, 0.0, 0.0, 1.0, 0.0, 0.0)">
    <path d="M3.35 0.9 L4.05 0.1 Q5.3 -1.2 7.25 -0.85 9.15 -0.5 11.15 0.4 12.8 1.15 12.4 3.55 L12.2 4.45 Q11.3 7.6 6.35 14.05 L0.65 13.6 Q-0.15 12.75 0.0 10.15 L0.55 8.6 2.3 3.25 2.4 3.0 Q2.7 1.85 3.35 0.9 M6.35 0.8 Q7.3 1.4 7.2 0.35 L7.0 0.2 Q6.1 -0.15 6.35 0.8 L3.95 4.1 2.4 3.0 3.95 4.1 6.35 0.8 Q6.1 -0.15 7.0 0.2 L7.2 0.35 Q7.3 1.4 6.35 0.8 M10.85 4.9 L10.5 4.65 Q9.9 4.05 9.9 3.3 L9.9 3.0 8.7 2.8 8.25 3.45 Q8.55 4.5 8.25 5.65 L8.15 6.15 4.35 6.65 4.45 4.65 3.95 4.1 4.45 4.65 4.35 6.65 8.15 6.15 8.25 5.65 Q8.55 4.5 8.25 3.45 L8.7 2.8 9.9 3.0 9.9 3.3 Q9.9 4.05 10.5 4.65 L10.85 4.9 M3.85 12.05 L3.85 12.45 3.75 12.55 3.6 12.6 3.2 12.4 3.0 12.3 3.1 11.35 3.55 10.95 Q5.1 9.9 7.0 9.7 L5.9 8.85 7.0 9.7 Q5.1 9.9 3.55 10.95 L3.1 11.35 3.0 12.3 3.2 12.4 3.6 12.6 3.75 12.55 3.85 12.45 3.85 12.05 M4.35 6.65 L4.2 7.5 3.8 7.95 4.85 8.4 5.9 8.4 6.6 7.85 Q7.2 7.6 7.75 7.85 L7.95 8.1 7.95 8.3 7.95 8.7 7.95 8.3 7.95 8.1 7.75 7.85 Q7.2 7.6 6.6 7.85 L5.9 8.4 4.85 8.4 3.8 7.95 2.85 9.15 1.6 9.55 0.7 9.55 1.6 9.55 2.85 9.15 3.8 7.95 4.2 7.5 4.35 6.65 M3.15 6.85 L1.85 8.6 0.55 8.6 1.85 8.6 3.15 6.85" fill="#fef078" fill-rule="evenodd" stroke="none"/>
    <path d="M3.35 0.9 Q2.7 1.85 2.4 3.0 L2.3 3.25 0.55 8.6 0.0 10.15 Q-0.15 12.75 0.65 13.6 M6.35 14.05 Q11.3 7.6 12.2 4.45 L12.4 3.55" fill="none" stroke="#000000" stroke-linecap="round" stroke-linejoin="round" stroke-width="0.05"/>
    <path d="M2.4 3.0 L3.95 4.1 6.35 0.8 Q6.1 -0.15 7.0 0.2 L7.2 0.35 Q7.3 1.4 6.35 0.8 M3.95 4.1 L4.45 4.65 4.35 6.65 8.15 6.15 8.25 5.65 Q8.55 4.5 8.25 3.45 L8.7 2.8 9.9 3.0 9.9 3.3 Q9.9 4.05 10.5 4.65 L10.85 4.9 M0.55 8.6 L1.85 8.6 3.15 6.85 M7.95 8.7 L7.95 8.3 7.95 8.1 7.75 7.85 Q7.2 7.6 6.6 7.85 L5.9 8.4 4.85 8.4 3.8 7.95 2.85 9.15 1.6 9.55 0.7 9.55 M3.8 7.95 L4.2 7.5 4.35 6.65 M5.9 8.85 L7.0 9.7 Q5.1 9.9 3.55 10.95 L3.1 11.35 3.0 12.3 3.2 12.4 3.6 12.6 3.75 12.55 3.85 12.45 3.85 12.05" fill="none" stroke="#ffffff" stroke-linecap="round" stroke-linejoin="round" stroke-width="0.05"/>
  </g>
</svg>
