<?xml version="1.0" encoding="UTF-8" standalone="no"?>
<svg xmlns:xlink="http://www.w3.org/1999/xlink" height="5.85px" width="7.95px" xmlns="http://www.w3.org/2000/svg">
  <g transform="matrix(1.0, 0.0, 0.0, 1.0, 0.0, 0.0)">
    <path d="M4.15 -2.6 Q5.55 -1.9 6.7 -1.0 L6.05 0.9 5.4 2.0 5.0 2.05 4.9 2.1 4.65 2.4 4.55 2.65 4.2 2.6 3.9 2.8 3.75 3.1 3.75 3.25 2.8 3.1 3.35 2.75 3.3 2.5 3.25 2.35 3.05 1.8 Q2.75 0.5 3.35 -0.5 2.75 0.5 3.05 1.8 L3.25 2.35 2.0 2.8 1.4 2.4 0.55 2.65 0.5 2.45 0.95 2.0 1.4 1.8 1.35 0.9 0.65 1.3 0.25 1.4 -0.55 1.0 -1.0 1.25 -1.25 1.3 -1.25 1.25 -1.2 0.9 -1.05 0.8 -0.85 0.65 Q-0.5 0.45 -0.15 0.35 -0.15 -0.95 0.75 -2.2 L1.4 -2.4 1.8 -2.2 2.2 -1.75 2.9 -2.1 4.15 -2.6 M4.3 0.05 Q4.15 -0.75 3.65 -0.55 L3.35 -0.5 1.95 -1.35 Q1.1 -0.45 1.3 0.75 L1.35 0.9 1.3 0.75 Q1.1 -0.45 1.95 -1.35 L3.35 -0.5 3.65 -0.55 Q4.15 -0.75 4.3 0.05" fill="#fef078" fill-rule="evenodd" stroke="none"/>
    <path d="M4.15 -2.6 L2.9 -2.1 2.2 -1.75 1.8 -2.2 1.4 -2.4 0.75 -2.2 Q-0.15 -0.95 -0.15 0.35 -0.5 0.45 -0.85 0.65 L-1.05 0.8 -1.2 0.9 -1.25 1.25 -1.25 1.3 -1.0 1.25 -0.55 1.0 0.25 1.4 0.65 1.3 1.35 0.9 1.3 0.75 Q1.1 -0.45 1.95 -1.35 L3.35 -0.5 3.65 -0.55 Q4.15 -0.75 4.3 0.05 M3.25 2.35 L3.3 2.5 3.35 2.75 2.8 3.1 3.75 3.25 3.75 3.1 3.9 2.8 4.2 2.6 4.55 2.65 4.65 2.4 4.9 2.1 5.0 2.05 5.4 2.0 6.05 0.9 6.7 -1.0 M3.35 -0.5 Q2.75 0.5 3.05 1.8 L3.25 2.35 2.0 2.8 1.4 2.4 0.55 2.65 0.5 2.45 0.95 2.0 1.4 1.8 1.35 0.9" fill="none" stroke="#000000" stroke-linecap="round" stroke-linejoin="round" stroke-width="0.05"/>
  </g>
</svg>
