<?xml version="1.0" encoding="UTF-8" standalone="no"?>
<svg xmlns:xlink="http://www.w3.org/1999/xlink" height="8.45px" width="14.35px" xmlns="http://www.w3.org/2000/svg">
  <g transform="matrix(1.0, 0.0, 0.0, 1.0, 0.0, 0.0)">
    <path d="M-3.0 -0.65 L-2.85 -0.85 -2.8 -1.1 -1.8 -2.9 0.75 -3.15 Q1.9 -1.7 3.6 -1.25 L3.55 -0.65 3.5 -0.4 2.05 -0.4 1.9 0.65 0.95 0.0 0.0 0.0 -0.55 -0.2 -0.9 -0.4 -1.45 -0.65 -2.0 -0.8 -3.0 -0.65" fill="#bca37f" fill-rule="evenodd" stroke="none"/>
    <path d="M1.9 0.65 L3.1 1.15 Q1.45 2.0 -0.25 2.3 L-4.2 3.65 -8.95 5.3 -7.0 3.1 Q-6.4 2.45 -5.55 2.25 L-3.6 1.6 0.0 0.0 0.95 0.0 1.9 0.65" fill="url(#gradient0)" fill-rule="evenodd" stroke="none"/>
    <path d="M-7.65 1.5 L-10.3 2.15 -8.2 0.5 Q-6.65 -0.65 -4.9 -0.45 L-3.0 -0.65 -2.0 -0.8 -1.45 -0.65 -0.9 -0.4 -2.5 -0.05 -4.05 0.35 Q-5.95 0.65 -7.65 1.5" fill="url(#gradient1)" fill-rule="evenodd" stroke="none"/>
    <path d="M-7.0 3.1 L-10.65 3.75 -10.75 3.75 Q-9.2 2.55 -7.65 1.5 -5.95 0.65 -4.05 0.35 L-2.5 -0.05 -0.9 -0.4 -0.55 -0.2 0.0 0.0 -3.6 1.6 -5.55 2.25 Q-6.4 2.45 -7.0 3.1" fill="url(#gradient2)" fill-rule="evenodd" stroke="none"/>
    <path d="M-3.0 -0.65 L-2.85 -0.85 -2.8 -1.1 -1.8 -2.9 0.75 -3.15 Q1.9 -1.7 3.6 -1.25 L3.55 -0.65 3.5 -0.4 2.05 -0.4 1.9 0.65 3.1 1.15 Q1.45 2.0 -0.25 2.3 L-4.2 3.65 -8.95 5.3 -7.0 3.1 -10.65 3.75 -10.75 3.75 Q-9.2 2.55 -7.65 1.5 L-10.3 2.15 -8.2 0.5 Q-6.65 -0.65 -4.9 -0.45 L-3.0 -0.65 -2.0 -0.8 -1.45 -0.65 -0.9 -0.4 -0.55 -0.2 0.0 0.0 0.95 0.0 1.9 0.65 M-0.9 -0.4 L-2.5 -0.05 -4.05 0.35 Q-5.95 0.65 -7.65 1.5 M0.0 0.0 L-3.6 1.6 -5.55 2.25 Q-6.4 2.45 -7.0 3.1" fill="none" stroke="#000000" stroke-linecap="round" stroke-linejoin="round" stroke-width="0.05"/>
  </g>
  <defs>
    <linearGradient gradientTransform="matrix(0.0074, 0.0, 0.0, 0.0032, -2.95, 2.65)" gradientUnits="userSpaceOnUse" id="gradient0" spreadMethod="pad" x1="-819.2" x2="819.2">
      <stop offset="0.0" stop-color="#ffffff"/>
      <stop offset="0.43529411764705883" stop-color="#d3cbc5"/>
      <stop offset="1.0" stop-color="#746558"/>
    </linearGradient>
    <linearGradient gradientTransform="matrix(0.0057, 0.0, 0.0, 0.0018, -5.6, 0.7)" gradientUnits="userSpaceOnUse" id="gradient1" spreadMethod="pad" x1="-819.2" x2="819.2">
      <stop offset="0.0" stop-color="#ffffff"/>
      <stop offset="0.43529411764705883" stop-color="#d3cbc5"/>
      <stop offset="1.0" stop-color="#746558"/>
    </linearGradient>
    <linearGradient gradientTransform="matrix(0.0065, 0.0, 0.0, 0.0025, -5.4, 1.65)" gradientUnits="userSpaceOnUse" id="gradient2" spreadMethod="pad" x1="-819.2" x2="819.2">
      <stop offset="0.0" stop-color="#ffffff"/>
      <stop offset="0.43529411764705883" stop-color="#d3cbc5"/>
      <stop offset="1.0" stop-color="#746558"/>
    </linearGradient>
  </defs>
</svg>
