<?xml version="1.0" encoding="UTF-8" standalone="no"?>
<svg xmlns:xlink="http://www.w3.org/1999/xlink" height="10.35px" width="17.6px" xmlns="http://www.w3.org/2000/svg">
  <g transform="matrix(1.0, 0.0, 0.0, 1.0, 0.0, 0.0)">
    <path d="M-3.3 -0.65 L-3.15 -0.9 -3.05 -1.25 -1.85 -3.4 1.3 -3.75 Q2.7 -1.95 4.8 -1.4 L4.7 -0.65 4.65 -0.35 2.85 -0.35 2.7 0.9 1.55 0.15 0.35 0.15 -0.3 -0.1 -0.75 -0.35 -1.4 -0.65 -2.1 -0.85 -3.3 -0.65" fill="#bca37f" fill-rule="evenodd" stroke="none"/>
    <path d="M-9.0 1.95 L-12.25 2.75 -9.65 0.75 Q-7.8 -0.65 -5.65 -0.4 L-3.3 -0.65 -2.1 -0.85 -1.4 -0.65 -0.75 -0.35 -2.7 0.05 -4.6 0.55 Q-6.95 0.9 -9.0 1.95" fill="url(#gradient0)" fill-rule="evenodd" stroke="none"/>
    <path d="M-8.2 3.95 L-12.65 4.7 -12.8 4.7 -9.0 1.95 Q-6.95 0.9 -4.6 0.55 L-2.7 0.05 -0.75 -0.35 -0.3 -0.1 0.35 0.15 -4.05 2.1 -6.4 2.9 Q-7.5 3.1 -8.2 3.95" fill="url(#gradient1)" fill-rule="evenodd" stroke="none"/>
    <path d="M2.7 0.9 L4.15 1.55 Q2.15 2.55 0.05 2.95 L-4.8 4.6 -10.6 6.6 -8.2 3.95 Q-7.5 3.1 -6.4 2.9 L-4.05 2.1 0.35 0.15 1.55 0.15 2.7 0.9" fill="url(#gradient2)" fill-rule="evenodd" stroke="none"/>
    <path d="M-3.3 -0.65 L-3.15 -0.9 -3.05 -1.25 -1.85 -3.4 1.3 -3.75 Q2.7 -1.95 4.8 -1.4 L4.7 -0.65 4.65 -0.35 2.85 -0.35 2.7 0.9 4.15 1.55 Q2.15 2.55 0.05 2.95 L-4.8 4.6 -10.6 6.6 -8.2 3.95 -12.65 4.7 -12.8 4.7 -9.0 1.95 -12.25 2.75 -9.65 0.75 Q-7.8 -0.65 -5.65 -0.4 L-3.3 -0.65 -2.1 -0.85 -1.4 -0.65 -0.75 -0.35 -0.3 -0.1 0.35 0.15 1.55 0.15 2.7 0.9 M-9.0 1.95 Q-6.95 0.9 -4.6 0.55 L-2.7 0.05 -0.75 -0.35 M0.35 0.15 L-4.05 2.1 -6.4 2.9 Q-7.5 3.1 -8.2 3.95" fill="none" stroke="#000000" stroke-linecap="round" stroke-linejoin="round" stroke-width="0.05"/>
  </g>
  <defs>
    <linearGradient gradientTransform="matrix(0.007, 0.0, 0.0, 0.0022, -6.5, 0.95)" gradientUnits="userSpaceOnUse" id="gradient0" spreadMethod="pad" x1="-819.2" x2="819.2">
      <stop offset="0.0" stop-color="#ffffff"/>
      <stop offset="0.43529411764705883" stop-color="#d3cbc5"/>
      <stop offset="1.0" stop-color="#746558"/>
    </linearGradient>
    <linearGradient gradientTransform="matrix(0.008, 0.0, 0.0, 0.0031, -6.25, 2.15)" gradientUnits="userSpaceOnUse" id="gradient1" spreadMethod="pad" x1="-819.2" x2="819.2">
      <stop offset="0.0" stop-color="#ffffff"/>
      <stop offset="0.43529411764705883" stop-color="#d3cbc5"/>
      <stop offset="1.0" stop-color="#746558"/>
    </linearGradient>
    <linearGradient gradientTransform="matrix(0.009, 0.0, 0.0, 0.0039, -3.25, 3.35)" gradientUnits="userSpaceOnUse" id="gradient2" spreadMethod="pad" x1="-819.2" x2="819.2">
      <stop offset="0.0" stop-color="#ffffff"/>
      <stop offset="0.43529411764705883" stop-color="#d3cbc5"/>
      <stop offset="1.0" stop-color="#746558"/>
    </linearGradient>
  </defs>
</svg>
