<?xml version="1.0" encoding="UTF-8" standalone="no"?>
<svg xmlns:xlink="http://www.w3.org/1999/xlink" height="17.95px" width="20.4px" xmlns="http://www.w3.org/2000/svg">
  <g transform="matrix(1.0, 0.0, 0.0, 1.0, 0.0, 0.0)">
    <path d="M15.0 2.95 L15.6 5.55 20.4 9.65 Q19.45 15.6 13.8 15.7 8.15 15.75 3.95 17.95 L0.25 15.75 0.0 15.6 5.0 11.8 5.25 8.5 Q3.45 7.15 1.1 7.05 L1.55 6.45 2.3 6.15 Q5.65 5.0 8.3 6.95 L9.8 6.15 Q9.15 2.8 9.75 0.0 11.9 -0.1 13.4 1.35 L15.0 2.95 M14.6 5.15 L14.55 4.65 14.5 4.45 14.2 3.65 14.15 3.45 14.05 3.25 13.65 2.6 13.15 2.05 13.0 1.85 12.55 1.5 12.4 1.4 11.65 0.95 11.55 0.9 Q11.35 0.55 10.75 0.6 L10.1 0.8 10.75 0.6 Q11.35 0.55 11.55 0.9 L11.65 0.95 12.4 1.4 12.55 1.5 13.0 1.85 13.15 2.05 13.65 2.6 14.05 3.25 14.15 3.45 14.2 3.65 14.5 4.45 14.55 4.65 14.6 5.15 M11.0 6.15 L11.5 6.25 11.65 6.15 11.7 6.05 11.5 5.7 11.45 5.55 Q11.95 5.25 12.3 5.85 L12.4 5.9 12.4 5.75 12.55 5.5 Q12.9 5.4 13.45 5.8 L13.95 6.0 14.0 6.0 13.35 4.0 Q12.55 2.3 10.6 1.7 L10.55 2.1 Q10.5 4.25 10.95 6.2 L10.95 6.25 11.0 6.15 10.95 6.25 10.95 6.2 11.0 6.15 M14.7 7.2 L14.8 7.35 14.85 7.85 14.85 7.95 14.95 8.05 15.05 8.15 15.65 8.2 15.45 8.4 Q14.8 8.95 14.45 9.6 L14.6 9.6 14.75 9.65 Q15.1 9.55 15.25 9.8 L15.0 10.05 14.95 10.15 14.75 10.35 14.25 10.75 14.6 10.8 14.85 10.9 15.15 11.15 14.8 11.35 14.0 11.9 14.15 12.15 14.4 12.25 Q14.85 12.35 14.75 12.75 L14.65 12.8 14.4 12.85 14.15 12.95 13.75 13.05 13.4 13.05 Q13.0 13.0 12.9 13.25 L13.35 13.4 14.1 13.85 11.9 14.15 10.3 13.8 11.9 14.15 14.1 13.85 13.35 13.4 12.9 13.25 Q13.0 13.0 13.4 13.05 L13.75 13.05 14.15 12.95 14.4 12.85 14.65 12.8 14.75 12.75 Q14.85 12.35 14.4 12.25 L14.15 12.15 14.0 11.9 14.8 11.35 15.15 11.15 14.85 10.9 14.6 10.8 14.25 10.75 14.75 10.35 14.95 10.15 15.0 10.05 15.25 9.8 Q15.1 9.55 14.75 9.65 L14.6 9.6 14.45 9.6 Q14.8 8.95 15.45 8.4 L15.65 8.2 15.05 8.15 14.95 8.05 14.85 7.95 14.85 7.85 14.8 7.35 14.7 7.2 M10.9 11.05 Q12.1 10.45 12.5 9.4 L11.5 9.4 Q8.8 9.7 7.55 12.0 L8.8 12.1 10.9 11.05 M10.3 8.65 L9.8 8.9 9.8 8.8 9.7 8.55 9.25 8.9 8.95 9.1 8.8 9.3 8.45 9.55 8.35 9.5 8.35 9.4 8.05 9.75 7.7 10.0 7.55 10.25 7.4 10.5 7.2 10.8 7.4 10.5 7.55 10.25 7.7 10.0 8.05 9.75 8.35 9.4 8.35 9.5 8.45 9.55 8.8 9.3 8.95 9.1 9.25 8.9 9.7 8.55 9.8 8.8 9.8 8.9 10.3 8.65 M8.2 7.7 L7.95 7.8 7.75 7.9 6.95 8.5 6.7 8.6 6.55 8.7 6.1 8.9 6.0 8.95 5.85 9.25 5.8 9.35 5.8 9.6 5.9 11.45 5.9 11.7 5.65 12.1 5.5 12.2 5.3 12.35 4.6 12.85 Q4.3 13.0 3.9 13.3 L3.7 13.5 3.45 13.7 2.55 14.35 3.45 13.7 3.7 13.5 3.9 13.3 Q4.3 13.0 4.6 12.85 L5.3 12.35 5.5 12.2 5.65 12.1 5.9 11.7 5.9 11.45 5.8 9.6 5.8 9.35 5.85 9.25 6.0 8.95 6.1 8.9 6.55 8.7 6.7 8.6 6.95 8.5 7.75 7.9 7.95 7.8 8.2 7.7 M6.15 6.8 L5.9 6.75 5.45 6.75 4.75 6.5 4.45 6.45 2.95 6.55 2.75 6.6 Q2.45 6.65 2.4 6.9 2.45 6.65 2.75 6.6 L2.95 6.55 4.45 6.45 4.75 6.5 5.45 6.75 5.9 6.75 6.15 6.8 M5.25 8.5 L8.3 6.95 5.25 8.5 M2.1 15.95 L2.15 15.05 Q2.8 14.85 2.2 15.0 L0.25 15.75 2.2 15.0 Q2.8 14.85 2.15 15.05 L2.1 15.95" fill="#fef078" fill-rule="evenodd" stroke="none"/>
    <path d="M10.9 11.05 L8.8 12.1 7.55 12.0 Q8.8 9.7 11.5 9.4 L12.5 9.4 Q12.1 10.45 10.9 11.05" fill="#ffffff" fill-rule="evenodd" stroke="none"/>
    <path d="M10.95 6.2 Q10.5 4.25 10.55 2.1 L10.6 1.7 Q12.55 2.3 13.35 4.0 L14.0 6.0 13.95 6.0 13.45 5.8 Q12.9 5.4 12.55 5.5 L12.4 5.75 12.4 5.9 12.3 5.85 Q11.95 5.25 11.45 5.55 L11.5 5.7 11.7 6.05 11.65 6.15 11.5 6.25 11.0 6.15 10.95 6.2" fill="#be9330" fill-rule="evenodd" stroke="none"/>
    <path d="M15.0 2.95 L15.6 5.55 20.4 9.65 Q19.45 15.6 13.8 15.7 8.15 15.75 3.95 17.95 L0.25 15.75 0.0 15.6 5.0 11.8 5.25 8.5 Q3.45 7.15 1.1 7.05 L1.55 6.45 2.3 6.15 Q5.65 5.0 8.3 6.95 L9.8 6.15 Q9.15 2.8 9.75 0.0 11.9 -0.1 13.4 1.35 L15.0 2.95 M10.9 11.05 L8.8 12.1 7.55 12.0 Q8.8 9.7 11.5 9.4 L12.5 9.4 Q12.1 10.45 10.9 11.05 M8.3 6.95 L5.25 8.5" fill="none" stroke="#000000" stroke-linecap="round" stroke-linejoin="round" stroke-width="0.05"/>
    <path d="M10.95 6.2 Q10.5 4.25 10.55 2.1 L10.6 1.7 Q12.55 2.3 13.35 4.0 L14.0 6.0 13.95 6.0 13.45 5.8 Q12.9 5.4 12.55 5.5 L12.4 5.75 12.4 5.9 12.3 5.85 Q11.95 5.25 11.45 5.55 L11.5 5.7 11.7 6.05 11.65 6.15 11.5 6.25 11.0 6.15 10.95 6.25 10.95 6.2 M0.25 15.75 L2.2 15.0 Q2.8 14.85 2.15 15.05 L2.1 15.95" fill="none" stroke="#9c8441" stroke-linecap="round" stroke-linejoin="round" stroke-width="0.05"/>
    <path d="M10.1 0.8 L10.75 0.6 Q11.35 0.55 11.55 0.9 L11.65 0.95 12.4 1.4 12.55 1.5 13.0 1.85 13.15 2.05 13.65 2.6 14.05 3.25 14.15 3.45 14.2 3.65 14.5 4.45 14.55 4.65 14.6 5.15 M10.3 13.8 L11.9 14.15 14.1 13.85 13.35 13.4 12.9 13.25 Q13.0 13.0 13.4 13.05 L13.75 13.05 14.15 12.95 14.4 12.85 14.65 12.8 14.75 12.75 Q14.85 12.35 14.4 12.25 L14.15 12.15 14.0 11.9 14.8 11.35 15.15 11.15 14.85 10.9 14.6 10.8 14.25 10.75 14.75 10.35 14.95 10.15 15.0 10.05 15.25 9.8 Q15.1 9.55 14.75 9.65 L14.6 9.6 14.45 9.6 Q14.8 8.95 15.45 8.4 L15.65 8.2 15.05 8.15 14.95 8.05 14.85 7.95 14.85 7.85 14.8 7.35 14.7 7.2 M2.4 6.9 Q2.45 6.65 2.75 6.6 L2.95 6.55 4.45 6.45 4.75 6.5 5.45 6.75 5.9 6.75 6.15 6.8 M2.55 14.35 L3.45 13.7 3.7 13.5 3.9 13.3 Q4.3 13.0 4.6 12.85 L5.3 12.35 5.5 12.2 5.65 12.1 5.9 11.7 5.9 11.45 5.8 9.6 5.8 9.35 5.85 9.25 6.0 8.95 6.1 8.9 6.55 8.7 6.7 8.6 6.95 8.5 7.75 7.9 7.95 7.8 8.2 7.7 M7.2 10.8 L7.4 10.5 7.55 10.25 7.7 10.0 8.05 9.75 8.35 9.4 8.35 9.5 8.45 9.55 8.8 9.3 8.95 9.1 9.25 8.9 9.7 8.55 9.8 8.8 9.8 8.9 10.3 8.65" fill="none" stroke="#ffffff" stroke-linecap="round" stroke-linejoin="round" stroke-width="0.05"/>
  </g>
</svg>
