<?xml version="1.0" encoding="UTF-8" standalone="no"?>
<svg xmlns:xlink="http://www.w3.org/1999/xlink" height="25.0px" width="34.45px" xmlns="http://www.w3.org/2000/svg">
  <g transform="matrix(1.0, 0.0, 0.0, 1.0, 0.0, 0.0)">
    <path d="M3.0 -0.25 Q3.7 -1.25 6.65 -2.3 9.6 -3.4 14.5 -3.8 17.8 -4.35 20.5 -6.2 L22.4 -7.9 22.7 -7.45 Q22.75 -5.85 21.7 -4.55 19.95 -2.3 17.15 -1.9 L17.55 -1.65 23.7 -2.15 25.6 -2.6 Q27.7 -3.0 29.55 -4.35 L29.1 -3.7 27.05 -2.15 Q23.75 0.0 19.75 0.55 L24.75 1.0 Q29.35 1.7 33.85 0.5 31.75 2.45 28.95 3.5 25.1 4.9 21.0 4.45 27.5 6.45 34.25 5.25 34.85 5.75 33.05 6.95 30.05 8.85 26.4 9.25 L22.35 9.35 28.4 9.95 33.1 10.05 33.6 10.1 34.55 9.6 Q31.8 13.45 27.05 13.45 22.7 13.45 18.7 12.3 21.9 14.0 25.45 14.9 27.35 15.35 28.95 14.6 28.4 15.75 27.1 15.9 L19.55 15.6 13.75 14.05 Q15.35 14.85 17.05 15.5 L20.45 16.5 15.05 16.8 Q11.85 16.2 9.15 14.25 L9.3 14.7 11.95 16.7 8.95 16.25 Q7.4 15.65 6.05 14.25 L4.45 12.35 5.0 14.3 4.45 14.15 3.35 13.35 2.2 12.1 Q1.35 11.05 0.1 10.6 1.45 10.2 2.3 8.65 3.25 6.9 3.4 4.55 3.5 2.6 2.5 1.15 L3.0 -0.25" fill="url(#gradient0)" fill-rule="evenodd" stroke="none"/>
    <path d="M0.1 10.6 Q1.35 11.05 2.2 12.1 L3.35 13.35 4.45 14.15 5.0 14.3 4.45 12.35 6.05 14.25 Q7.4 15.65 8.95 16.25 L11.95 16.7 9.3 14.7 9.15 14.25 Q11.85 16.2 15.05 16.8 L20.45 16.5 17.05 15.5 Q15.35 14.85 13.75 14.05 L19.55 15.6 27.1 15.9 Q28.4 15.75 28.95 14.6 27.35 15.35 25.45 14.9 21.9 14.0 18.7 12.3 22.7 13.45 27.05 13.45 31.8 13.45 34.55 9.6 L33.6 10.1 33.1 10.05 28.4 9.95 22.35 9.35 26.4 9.25 Q30.05 8.85 33.05 6.95 34.85 5.75 34.25 5.25 27.5 6.45 21.0 4.45 25.1 4.9 28.95 3.5 31.75 2.45 33.85 0.5 29.35 1.7 24.75 1.0 L19.75 0.55 Q23.75 0.0 27.05 -2.15 L29.1 -3.7 29.55 -4.35 Q27.7 -3.0 25.6 -2.6 L23.7 -2.15 17.55 -1.65 17.15 -1.9 Q19.95 -2.3 21.7 -4.55 22.75 -5.85 22.7 -7.45 L22.4 -7.9 20.5 -6.2 Q17.8 -4.35 14.5 -3.8 9.6 -3.4 6.65 -2.3 3.7 -1.25 3.0 -0.25" fill="none" stroke="#000000" stroke-linecap="round" stroke-linejoin="round" stroke-width="0.05"/>
    <path d="M21.5 -1.0 L17.75 -0.3 13.9 -0.1 12.35 0.0 9.3 0.4 Q7.5 0.7 5.65 1.65 5.45 1.65 5.35 1.8 M21.6 -5.9 Q20.35 -4.8 18.75 -4.2 L15.25 -3.0 13.15 -2.55 9.25 -1.75 5.8 -0.8 4.25 0.1 M29.8 2.85 L25.9 2.9 22.1 2.5 18.5 2.0 16.15 1.85 12.3 2.15 10.0 2.65 6.95 3.55 Q6.0 3.8 5.15 4.25 M30.85 10.95 L27.5 11.35 23.85 11.15 20.5 10.4 16.85 9.6 Q15.25 9.4 13.5 9.55 L10.7 9.55 8.0 9.6 5.2 9.6 M32.4 6.6 L28.65 7.45 27.15 7.65 23.4 7.15 19.7 6.35 16.0 5.7 13.2 5.4 9.9 5.85 7.35 6.6 5.55 7.15 M23.6 15.55 L20.45 14.5 16.9 12.8 14.5 11.75 13.2 11.15 M4.2 11.85 Q3.1 11.35 2.4 10.7 L2.05 10.15 M9.25 15.05 Q7.65 14.6 6.55 13.2 L6.15 12.6" fill="none" stroke="#ffffff" stroke-linecap="round" stroke-linejoin="round" stroke-width="0.05"/>
  </g>
  <defs>
    <radialGradient cx="0" cy="0" gradientTransform="matrix(0.0325, 0.0, 0.0, 0.0311, 3.6, 5.0)" gradientUnits="userSpaceOnUse" id="gradient0" r="819.2" spreadMethod="pad">
      <stop offset="0.0" stop-color="#fef078"/>
      <stop offset="1.0" stop-color="#ffffff"/>
    </radialGradient>
  </defs>
</svg>
