<?xml version="1.0" encoding="UTF-8" standalone="no"?>
<svg xmlns:xlink="http://www.w3.org/1999/xlink" height="26.15px" width="31.6px" xmlns="http://www.w3.org/2000/svg">
  <g transform="matrix(1.0, 0.0, 0.0, 1.0, 0.0, 0.0)">
    <path d="M15.95 -2.5 L15.95 -1.2 -15.65 -1.2 -15.65 -2.5 -15.65 -4.05 15.95 -4.05 15.95 -2.5 -15.65 -2.5 15.95 -2.5" fill="url(#gradient0)" fill-rule="evenodd" stroke="none"/>
    <path d="M1.35 2.2 L3.1 2.2 3.1 9.55 3.1 11.0 3.1 14.75 2.55 14.75 2.55 14.2 1.9 14.2 1.35 14.2 1.35 2.2 1.35 14.2 -1.0 14.2 -1.95 14.2 -1.95 14.75 -2.55 14.75 -2.55 11.0 -2.55 9.55 -2.55 2.2 -1.0 2.2 -0.35 2.2 -0.35 13.8 -0.35 2.2 1.35 2.2 M-1.0 2.2 L-1.0 14.2 -1.0 2.2" fill="url(#gradient1)" fill-rule="evenodd" stroke="none"/>
    <path d="M2.55 14.75 L3.1 14.75 3.1 11.0 3.1 9.55 3.1 2.2 6.35 2.2 6.35 9.55 4.95 11.0 4.95 14.75 6.35 15.7 2.55 15.7 2.55 14.75 M-5.9 15.7 L-4.25 14.75 -4.25 11.0 -5.9 9.55 -5.9 2.2 -2.55 2.2 -2.55 9.55 -2.55 11.0 -2.55 14.75 -1.95 14.75 -1.95 15.7 -5.9 15.7 M6.35 9.55 L3.1 9.55 6.35 9.55 M3.1 11.0 L4.95 11.0 3.1 11.0 M3.1 14.75 L4.95 14.75 3.1 14.75 M-4.25 11.0 L-2.55 11.0 -4.25 11.0 M-2.55 14.75 L-4.25 14.75 -2.55 14.75 M-2.55 9.55 L-5.9 9.55 -2.55 9.55" fill="#3a2e1f" fill-rule="evenodd" stroke="none"/>
    <path d="M1.35 14.2 L1.9 14.2 2.55 14.2 2.55 14.75 2.55 15.7 6.35 15.7 6.35 16.85 7.05 16.85 7.05 15.15 8.3 15.15 8.3 20.0 7.05 20.0 7.05 18.15 6.35 18.15 6.35 19.4 4.8 19.4 4.8 21.7 3.7 21.7 3.7 19.4 2.8 19.4 2.8 22.1 1.65 22.1 0.2 22.1 -1.45 22.1 -2.55 22.1 -2.55 19.4 -3.35 19.4 -3.35 21.3 -4.4 21.3 -4.4 19.4 -5.9 19.4 -5.9 18.15 -6.4 18.15 -6.4 20.25 -7.6 20.25 -7.6 15.0 -6.4 15.0 -6.4 16.85 -5.9 16.85 -5.9 15.7 -1.95 15.7 -1.95 16.05 -1.55 16.05 2.55 16.05 2.55 15.7 2.55 16.05 -1.55 16.05 -1.95 16.05 -1.95 15.7 -1.95 14.75 -1.95 14.2 -1.0 14.2 1.35 14.2 M0.2 20.15 L0.2 22.1 0.2 20.15 M1.65 20.15 L1.65 22.1 1.65 20.15 M-1.55 16.05 L-1.45 14.6 1.9 14.2 -1.45 14.6 -1.55 16.05 M-1.45 22.1 L-1.45 20.0 -1.45 22.1 M6.9 17.4 L-6.4 17.4 6.9 17.4 M6.35 16.85 L-5.9 16.85 6.35 16.85 M-5.9 18.15 L6.35 18.15 -5.9 18.15" fill="url(#gradient2)" fill-rule="evenodd" stroke="none"/>
    <path d="M15.95 -2.5 L15.95 -1.2 -15.65 -1.2 -15.65 -2.5 -15.65 -4.05 15.95 -4.05 15.95 -2.5 -15.65 -2.5 M1.35 2.2 L1.35 1.55 M3.1 2.2 L1.35 2.2 1.35 14.2 1.9 14.2 2.55 14.2 2.55 14.75 3.1 14.75 3.1 11.0 3.1 9.55 3.1 2.2 6.35 2.2 6.35 9.55 4.95 11.0 4.95 14.75 6.35 15.7 6.35 16.85 7.05 16.85 7.05 15.15 8.3 15.15 8.3 20.0 7.05 20.0 7.05 18.15 6.35 18.15 6.35 19.4 4.8 19.4 4.8 21.7 3.7 21.7 3.7 19.4 2.8 19.4 2.8 22.1 1.65 22.1 0.2 22.1 -1.45 22.1 -2.55 22.1 -2.55 19.4 -3.35 19.4 -3.35 21.3 -4.4 21.3 -4.4 19.4 -5.9 19.4 -5.9 18.15 -6.4 18.15 -6.4 20.25 -7.6 20.25 -7.6 15.0 -6.4 15.0 -6.4 16.85 -5.9 16.85 -5.9 15.7 -4.25 14.75 -4.25 11.0 -5.9 9.55 -5.9 2.2 -2.55 2.2 -1.0 2.2 -1.0 0.4 M4.95 11.0 L3.1 11.0 M3.1 9.55 L6.35 9.55 M2.55 15.7 L2.55 16.05 -1.55 16.05 -1.95 16.05 -1.95 15.7 -5.9 15.7 M2.55 14.75 L2.55 15.7 6.35 15.7 M4.95 14.75 L3.1 14.75 M1.65 22.1 L1.65 20.15 M0.2 22.1 L0.2 20.15 M-1.0 2.2 L-0.35 2.2 1.35 2.2 M-2.55 11.0 L-4.25 11.0 M-2.55 2.2 L-2.55 9.55 -2.55 11.0 -2.55 14.75 -1.95 14.75 -1.95 14.2 -1.0 14.2 -1.0 2.2 M-5.9 9.55 L-2.55 9.55 M-4.25 14.75 L-2.55 14.75 M-1.95 15.7 L-1.95 14.75 M-1.45 20.0 L-1.45 22.1 M-1.0 14.2 L1.35 14.2 M6.35 18.15 L-5.9 18.15 M-5.9 16.85 L6.35 16.85" fill="none" stroke="#000000" stroke-linecap="round" stroke-linejoin="round" stroke-width="0.05"/>
    <path d="M-0.35 2.2 L-0.35 0.8 M1.9 14.2 L-1.45 14.6 -1.55 16.05 M-0.35 2.2 L-0.35 13.8 M-6.4 17.4 L6.9 17.4" fill="none" stroke="#81814f" stroke-linecap="round" stroke-linejoin="round" stroke-width="0.05"/>
  </g>
  <defs>
    <radialGradient cx="0" cy="0" gradientTransform="matrix(0.0194, 0.0, 0.0, 0.0194, 0.15, -2.65)" gradientUnits="userSpaceOnUse" id="gradient0" r="819.2" spreadMethod="pad">
      <stop offset="0.0" stop-color="#82714a"/>
      <stop offset="1.0" stop-color="#3c3122"/>
    </radialGradient>
    <linearGradient gradientTransform="matrix(-0.0036, 0.0, 0.0, 0.0075, -0.15, -18.25)" gradientUnits="userSpaceOnUse" id="gradient1" spreadMethod="pad" x1="-819.2" x2="819.2">
      <stop offset="0.0" stop-color="#362f1f"/>
      <stop offset="0.4470588235294118" stop-color="#82714a"/>
      <stop offset="1.0" stop-color="#3c3122"/>
    </linearGradient>
    <radialGradient cx="0" cy="0" gradientTransform="matrix(0.007, 0.0, 0.0, 0.0132, 0.15, 16.15)" gradientUnits="userSpaceOnUse" id="gradient2" r="819.2" spreadMethod="pad">
      <stop offset="0.0" stop-color="#82714a"/>
      <stop offset="1.0" stop-color="#3c3122"/>
    </radialGradient>
  </defs>
</svg>
