<?xml version="1.0" encoding="UTF-8" standalone="no"?>
<svg xmlns:xlink="http://www.w3.org/1999/xlink" height="31.5px" width="42.8px" xmlns="http://www.w3.org/2000/svg">
  <g transform="matrix(1.0, 0.0, 0.0, 1.0, 0.0, 0.0)">
    <path d="M-17.9 -8.65 L-13.95 -14.25 -13.1 -13.65 -17.0 -8.0 -17.25 -8.45 -17.8 -8.65 -17.9 -8.65" fill="#3a2e1f" fill-rule="evenodd" stroke="none"/>
    <path d="M-17.9 -8.65 L-17.8 -8.65 -17.25 -8.45 -17.0 -8.0 -17.0 -7.9 -17.0 -7.8 -17.25 -7.35 Q-17.45 -7.1 -17.8 -7.1 L-18.35 -7.35 -18.55 -7.75 -18.55 -7.9 -18.35 -8.45 -17.9 -8.65" fill="#735f31" fill-rule="evenodd" stroke="none"/>
    <path d="M-17.9 -8.65 L-17.8 -8.65 -17.25 -8.45 -17.0 -8.0 -17.0 -7.9 -17.0 -7.8 -11.0 -2.4 M-17.9 -8.65 L-18.35 -8.45 -18.55 -7.9 -18.55 -7.75 -18.35 -7.35 -17.8 -7.1 Q-17.45 -7.1 -17.25 -7.35 L-17.0 -7.8 M-18.55 -7.75 L-19.0 -2.95" fill="none" stroke="#000000" stroke-linecap="round" stroke-linejoin="round" stroke-width="0.05"/>
    <path d="M-9.15 -10.55 L-9.35 -10.75 -9.25 -10.7 -9.15 -10.55" fill="#625537" fill-rule="evenodd" stroke="none"/>
    <path d="M-9.15 -10.55 Q-9.05 -10.25 -9.4 -9.6 -9.8 -8.8 -10.7 -7.95 L-12.35 -6.6 -13.4 -6.45 -21.35 -14.5 -20.4 -14.7 -19.8 -15.1 -14.35 -9.6 Q-11.75 -8.65 -9.75 -11.15 -11.75 -8.65 -14.35 -9.6 L-19.8 -15.1 -18.8 -16.05 -17.45 -17.65 Q-17.1 -18.4 -17.25 -18.7 L-9.75 -11.15 -9.35 -10.75 -9.15 -10.55" fill="url(#gradient0)" fill-rule="evenodd" stroke="none"/>
    <path d="M-19.8 -15.1 L-20.4 -14.7 -21.35 -14.5 -21.5 -14.55 Q-21.8 -14.85 -21.3 -15.65 L-20.0 -17.3 -18.4 -18.6 -17.35 -18.8 -17.3 -18.75 -17.25 -18.7 Q-17.1 -18.4 -17.45 -17.65 L-18.8 -16.05 -19.8 -15.1" fill="#51462f" fill-rule="evenodd" stroke="none"/>
    <path d="M-21.35 -14.5 L-13.4 -6.45 -12.35 -6.6 -10.7 -7.95 Q-9.8 -8.8 -9.4 -9.6 -9.05 -10.25 -9.15 -10.55 L-9.35 -10.75 -9.75 -11.15 -17.25 -18.7 Q-17.1 -18.4 -17.45 -17.65 L-18.8 -16.05 -19.8 -15.1 -20.4 -14.7 -21.35 -14.5 -21.5 -14.55 Q-21.8 -14.85 -21.3 -15.65 L-20.0 -17.3 -18.4 -18.6 -17.35 -18.8 -17.3 -18.75 -17.25 -18.7 M-9.15 -10.55 L-9.25 -10.7 -9.35 -10.75" fill="none" stroke="#000000" stroke-linecap="round" stroke-linejoin="round" stroke-width="0.05"/>
    <path d="M-9.75 -11.15 Q-11.75 -8.65 -14.35 -9.6 L-19.8 -15.1" fill="none" stroke="#51462f" stroke-linecap="round" stroke-linejoin="round" stroke-width="0.05"/>
    <path d="M-7.4 -8.55 L0.25 -9.15 0.35 -9.15 7.75 -8.6 Q7.55 -7.1 5.5 -6.05 L3.7 -4.95 Q2.55 -4.35 1.65 -4.25 L0.35 -2.95 0.2 -3.0 -0.95 -4.25 -1.25 -4.25 Q-2.25 -4.35 -3.4 -4.95 L-5.25 -6.05 Q-7.25 -7.1 -7.4 -8.55" fill="#4b412c" fill-rule="evenodd" stroke="none"/>
    <path d="M0.2 -3.0 L0.35 -2.95 0.2 -2.95 0.2 -3.0 M0.3 2.4 L0.2 2.45 0.15 2.35 0.3 2.4" fill="#625537" fill-rule="evenodd" stroke="none"/>
    <path d="M-7.4 -8.55 Q-7.25 -7.1 -5.25 -6.05 L-3.4 -4.95 Q-2.25 -4.35 -1.25 -4.25 L-0.95 -4.25 0.2 -3.0 0.2 -2.95 0.35 -2.95 1.65 -4.25 Q2.55 -4.35 3.7 -4.95 L5.5 -6.05 Q7.55 -7.1 7.75 -8.6 L11.2 -7.95 Q13.2 -2.3 11.15 6.55 L10.8 7.9 10.4 9.4 5.3 8.9 4.55 3.3 0.3 2.4 0.15 2.35 0.2 2.45 -3.95 3.3 -4.65 8.9 -9.8 9.4 -10.75 5.45 -11.0 4.3 Q-12.35 -3.05 -10.6 -7.95 L-7.4 -8.55 M0.2 -2.95 L0.2 1.15 0.15 2.35 0.2 1.15 0.2 -2.95 M-6.05 1.35 L-5.9 -1.75 0.2 -3.0 -5.9 -1.75 -6.05 1.35 M10.8 7.9 L6.25 7.7 5.7 2.2 0.2 1.15 5.7 2.2 6.25 7.7 10.8 7.9" fill="url(#gradient1)" fill-rule="evenodd" stroke="none"/>
    <path d="M7.75 -8.6 L0.35 -9.15 0.25 -9.15 -7.4 -8.55 Q-7.25 -7.1 -5.25 -6.05 L-3.4 -4.95 Q-2.25 -4.35 -1.25 -4.25 L-0.95 -4.25 0.2 -3.0 0.35 -2.95 1.65 -4.25 Q2.55 -4.35 3.7 -4.95 L5.5 -6.05 Q7.55 -7.1 7.75 -8.6 L11.2 -7.95 Q13.2 -2.3 11.15 6.55 L10.8 7.9 10.4 9.4 5.3 8.9 4.55 3.3 0.3 2.4 0.2 2.45 -3.95 3.3 -4.65 8.9 -9.8 9.4 -10.75 5.45 -11.0 4.3 Q-12.35 -3.05 -10.6 -7.95 L-7.4 -8.55 M0.2 -3.0 L0.2 -2.95 0.2 1.15 0.15 2.35 0.3 2.4" fill="none" stroke="#000000" stroke-linecap="round" stroke-linejoin="round" stroke-width="0.05"/>
    <path d="M0.2 1.15 L5.7 2.2 6.25 7.7 10.8 7.9 M0.2 -3.0 L-5.9 -1.75 -6.05 1.35" fill="none" stroke="#4b412c" stroke-linecap="round" stroke-linejoin="round" stroke-width="0.05"/>
    <path d="M-0.35 -2.1 L-0.2 -2.15 -0.1 -2.1 0.0 -1.9 -0.1 -1.8 -0.2 -1.7 -0.35 -1.8 -0.4 -1.9 -0.35 -2.1 M-1.3 -1.9 L-1.2 -1.7 -1.3 -1.6 -1.45 -1.5 -1.6 -1.6 -1.65 -1.7 -1.6 -1.9 -1.45 -1.9 -1.3 -1.9 M-2.7 -1.65 L-2.55 -1.6 -2.5 -1.45 -2.55 -1.35 -2.7 -1.25 -2.85 -1.35 -2.9 -1.45 -2.85 -1.6 -2.7 -1.65 M-4.15 -1.35 L-3.95 -1.4 -3.85 -1.35 -3.75 -1.2 -3.85 -1.1 -3.95 -1.0 Q-4.05 -1.0 -4.15 -1.1 L-4.15 -1.2 -4.15 -1.35 M1.0 -0.25 L1.15 -0.25 1.25 -0.05 1.15 0.05 1.0 0.15 0.85 0.05 0.8 -0.05 0.85 -0.25 1.0 -0.25 M3.75 0.35 L3.7 0.5 3.55 0.55 3.4 0.5 3.35 0.35 3.4 0.2 3.55 0.15 3.7 0.2 3.75 0.35 M2.1 -0.05 L2.3 -0.1 2.4 -0.05 2.5 0.1 2.4 0.25 2.3 0.3 2.1 0.25 2.1 0.1 2.1 -0.05 M6.2 0.65 L6.3 0.85 6.2 0.95 6.1 1.05 5.9 0.95 5.85 0.85 5.9 0.65 6.1 0.6 6.2 0.65 M4.65 0.4 L4.8 0.35 4.95 0.4 5.05 0.55 4.95 0.7 4.8 0.8 4.65 0.7 4.6 0.55 4.65 0.4 M6.6 1.4 L6.75 1.35 6.9 1.4 6.95 1.6 6.9 1.7 6.75 1.8 6.6 1.7 6.55 1.6 6.6 1.4 M-4.95 -0.8 L-4.8 -0.8 -4.65 -0.8 -4.6 -0.6 -4.65 -0.5 -4.8 -0.4 -4.95 -0.5 -5.0 -0.6 -4.95 -0.8 M-5.1 0.5 L-4.95 0.45 -4.8 0.5 -4.7 0.65 -4.8 0.8 -4.95 0.85 -5.1 0.8 -5.15 0.65 -5.1 0.5 M-4.9 1.75 L-4.8 1.9 -4.9 2.05 -5.0 2.15 -5.2 2.05 -5.2 1.9 -5.2 1.75 -5.0 1.7 -4.9 1.75 M8.45 6.4 L8.6 6.35 8.75 6.4 8.85 6.55 8.75 6.7 8.6 6.8 8.45 6.7 8.4 6.55 8.45 6.4 M10.0 6.4 L10.1 6.55 10.0 6.7 9.9 6.8 9.7 6.7 9.65 6.55 9.7 6.4 9.9 6.35 10.0 6.4 M11.25 6.4 L11.35 6.55 11.25 6.7 11.15 6.8 11.0 6.7 10.95 6.55 11.0 6.4 11.15 6.35 11.25 6.4 M6.65 2.7 L6.85 2.65 6.95 2.7 7.05 2.85 6.95 3.0 6.85 3.05 6.65 3.0 6.65 2.85 6.65 2.7 M7.15 3.95 L7.2 4.1 7.15 4.25 7.0 4.35 6.85 4.25 6.8 4.1 6.85 3.95 7.0 3.9 7.15 3.95 M6.95 5.2 L7.15 5.2 7.25 5.2 7.35 5.4 7.25 5.5 7.15 5.6 6.95 5.5 6.95 5.4 6.95 5.2 M7.2 6.3 L7.35 6.3 7.5 6.3 7.55 6.5 7.5 6.6 7.35 6.7 7.2 6.6 7.15 6.5 7.2 6.3" fill="#4b412c" fill-rule="evenodd" stroke="none"/>
    <path d="M-11.0 4.3 L-6.05 1.35" fill="none" stroke="#4b412c" stroke-linecap="round" stroke-linejoin="round" stroke-width="0.05"/>
    <path d="M-5.45 1.9 L-5.25 1.9 -5.15 1.9 -5.05 2.1 -5.15 2.2 -5.25 2.3 -5.45 2.2 -5.5 2.1 -5.45 1.9 M-6.55 2.6 L-6.35 2.55 -6.25 2.6 -6.15 2.75 -6.25 2.9 -6.35 3.0 -6.55 2.9 -6.55 2.75 -6.55 2.6 M-7.25 3.45 L-7.35 3.55 -7.45 3.65 -7.65 3.55 -7.65 3.45 -7.65 3.3 -7.45 3.25 -7.35 3.3 -7.25 3.45 M-8.35 4.1 L-8.45 4.25 -8.55 4.35 -8.7 4.25 -8.75 4.1 -8.7 3.95 -8.55 3.9 -8.45 3.95 -8.35 4.1 M-9.8 4.65 L-9.65 4.6 -9.55 4.65 -9.45 4.8 -9.55 4.9 -9.65 5.0 -9.8 4.9 -9.85 4.8 -9.8 4.65 M-10.9 5.3 L-10.75 5.25 -10.6 5.3 -10.55 5.45 -10.6 5.6 -10.75 5.7 -10.9 5.6 -10.95 5.45 -10.9 5.3" fill="#4b412c" fill-rule="evenodd" stroke="none"/>
    <path d="M15.2 -10.9 L16.4 -11.3 18.15 -6.5 16.9 -6.05 15.2 -10.9 M14.1 -10.55 L15.8 -5.65 14.65 -5.25 12.9 -10.1 14.1 -10.55" fill="#3a2e1f" fill-rule="evenodd" stroke="none"/>
    <path d="M16.85 -18.85 L16.9 -18.9 18.0 -18.75 19.65 -17.4 20.9 -15.8 Q21.35 -15.05 21.15 -14.75 L21.05 -14.65 20.05 -14.9 Q19.25 -15.3 18.4 -16.2 L17.05 -17.8 Q16.7 -18.55 16.85 -18.85" fill="#51462f" fill-rule="evenodd" stroke="none"/>
    <path d="M13.1 -6.75 L13.0 -6.65 12.9 -6.6 13.1 -6.75" fill="#625537" fill-rule="evenodd" stroke="none"/>
    <path d="M16.85 -18.85 Q16.7 -18.55 17.05 -17.8 L18.4 -16.2 Q19.25 -15.3 20.05 -14.9 L21.05 -14.65 13.1 -6.75 12.9 -6.6 Q12.6 -6.45 11.95 -6.8 11.15 -7.25 10.35 -8.1 L9.0 -9.75 Q8.55 -10.55 8.85 -10.85 L16.85 -18.85" fill="url(#gradient2)" fill-rule="evenodd" stroke="none"/>
    <path d="M21.05 -14.65 L21.15 -14.75 Q21.35 -15.05 20.9 -15.8 L19.65 -17.4 18.0 -18.75 16.9 -18.9 16.85 -18.85 Q16.7 -18.55 17.05 -17.8 L18.4 -16.2 Q19.25 -15.3 20.05 -14.9 L21.05 -14.65 13.1 -6.75 13.0 -6.65 12.9 -6.6 Q12.6 -6.45 11.95 -6.8 11.15 -7.25 10.35 -8.1 L9.0 -9.75 Q8.55 -10.55 8.85 -10.85 L16.85 -18.85 M12.9 -6.6 L13.1 -6.75" fill="none" stroke="#000000" stroke-linecap="round" stroke-linejoin="round" stroke-width="0.05"/>
    <path d="M16.1 -16.4 L17.05 -15.5 Q17.25 -15.3 17.45 -15.5 L17.55 -15.6 17.6 -15.55 16.7 -14.7 16.8 -14.85 16.9 -15.05 16.8 -15.3 16.3 -15.8 16.15 -15.9 16.05 -15.95 15.85 -15.8 15.75 -15.75 15.7 -15.75 15.9 -15.95 16.0 -16.15 16.05 -16.35 16.1 -16.4 M10.4 -10.65 L11.15 -11.4 11.15 -11.35 11.1 -11.25 11.1 -11.15 11.15 -11.1 11.25 -11.1 11.75 -11.05 11.75 -11.45 11.7 -11.6 11.55 -11.65 11.35 -11.55 11.35 -11.6 11.95 -12.2 11.85 -11.9 11.75 -11.45 11.8 -11.05 12.6 -11.0 12.9 -11.0 13.05 -11.1 13.1 -11.15 13.15 -11.1 12.4 -10.35 12.35 -10.35 12.4 -10.45 12.5 -10.55 12.45 -10.65 12.35 -10.7 11.8 -10.75 11.8 -10.35 11.8 -10.25 11.8 -10.2 11.85 -10.15 12.0 -10.1 12.15 -10.2 12.2 -10.25 12.25 -10.2 11.55 -9.5 11.5 -9.55 11.6 -9.7 11.7 -9.85 11.75 -10.3 11.75 -10.75 10.95 -10.8 10.45 -10.65 10.4 -10.65 M12.7 -11.75 L12.65 -11.75 12.1 -12.35 13.4 -13.65 14.0 -13.1 14.0 -13.05 13.45 -13.3 12.95 -13.15 12.9 -13.1 13.75 -12.2 Q14.0 -12.0 14.2 -12.2 L14.35 -12.4 14.4 -12.35 13.4 -11.35 13.35 -11.4 13.55 -11.55 Q13.75 -11.75 13.55 -12.0 L12.65 -12.85 12.6 -12.8 Q12.4 -12.6 12.45 -12.25 L12.6 -11.95 12.7 -11.75 M14.9 -15.2 L15.0 -15.3 15.15 -15.35 15.35 -15.4 15.65 -15.3 15.95 -15.1 16.1 -14.9 16.2 -14.7 16.25 -14.5 16.25 -14.3 16.1 -14.05 15.75 -13.85 15.35 -13.9 Q15.15 -13.95 15.0 -14.15 L14.8 -14.5 Q14.7 -14.7 14.75 -14.9 L14.9 -15.2 M14.95 -14.8 L15.15 -14.5 15.35 -14.3 15.8 -14.0 16.05 -14.05 Q16.25 -14.25 15.85 -14.7 L15.65 -14.9 15.45 -15.1 15.3 -15.2 14.95 -15.2 14.85 -15.0 14.95 -14.8 M14.3 -13.25 L14.85 -13.8 15.05 -13.6 14.5 -13.05 14.3 -13.25" fill="#51462f" fill-rule="evenodd" stroke="none"/>
    <path d="M-2.8 -15.8 L1.6 -15.8 1.1 -15.55 0.95 -15.5 0.85 -15.35 0.75 -15.05 0.7 -14.8 0.75 -14.5 0.9 -14.15 0.95 -14.1 1.15 -13.9 1.55 -13.85 -2.75 -13.85 -2.45 -13.9 -2.25 -14.1 -2.2 -14.15 Q-2.0 -14.3 -1.95 -14.5 L-1.95 -14.8 -1.95 -15.05 -2.1 -15.35 -2.25 -15.5 -2.35 -15.55 -2.8 -15.8" fill="#51462f" fill-rule="evenodd" stroke="none"/>
    <path d="M-3.4 -15.65 L-3.4 -18.25 -3.4 -18.5 Q-3.3 -19.9 -2.3 -20.9 -1.15 -22.05 0.35 -22.05 1.95 -22.05 3.05 -20.9 4.05 -19.85 4.15 -18.4 L4.15 -18.25 4.15 -10.4 4.15 -10.25 4.1 -10.05 Q3.95 -9.25 3.05 -8.65 1.95 -7.9 0.35 -7.9 -1.15 -7.9 -2.3 -8.65 -3.3 -9.25 -3.4 -10.2 L-3.4 -10.25 -3.4 -10.3 -3.4 -10.4 -3.4 -13.9 -3.15 -13.9 -2.95 -13.85 -2.75 -13.85 1.55 -13.85 1.7 -13.85 2.1 -13.9 2.35 -14.1 2.4 -14.15 2.6 -14.5 2.6 -14.8 2.6 -15.05 2.45 -15.35 2.35 -15.5 2.2 -15.55 1.65 -15.8 1.6 -15.8 -2.8 -15.8 -2.95 -15.8 -3.4 -15.65" fill="url(#gradient3)" fill-rule="evenodd" stroke="none"/>
    <path d="M-3.4 -10.25 L-3.4 -10.2 Q-3.3 -9.25 -2.3 -8.65 -1.15 -7.9 0.35 -7.9 1.95 -7.9 3.05 -8.65 3.95 -9.25 4.1 -10.05 L6.25 -9.0 6.25 -8.8 Q6.05 -7.2 4.5 -6.1 2.75 -4.8 0.25 -4.8 -2.25 -4.8 -4.05 -6.1 -5.55 -7.25 -5.75 -8.8 L-5.75 -8.9 -3.4 -10.25" fill="url(#gradient4)" fill-rule="evenodd" stroke="none"/>
    <path d="M-3.4 -15.65 L-2.95 -15.8 -2.8 -15.8 -2.35 -15.55 -2.25 -15.5 -2.1 -15.35 -1.95 -15.05 -1.95 -14.8 -1.95 -14.5 Q-2.0 -14.3 -2.2 -14.15 L-2.25 -14.1 -2.45 -13.9 -2.75 -13.85 -2.95 -13.85 -3.15 -13.9 -3.4 -13.9 -3.6 -14.1 -3.65 -14.15 -3.85 -14.5 -3.85 -14.8 -3.85 -15.05 -3.7 -15.35 -3.6 -15.5 -3.5 -15.55 -3.4 -15.65 M1.6 -15.8 L1.65 -15.8 2.2 -15.55 2.35 -15.5 2.45 -15.35 2.6 -15.05 2.6 -14.8 2.6 -14.5 2.4 -14.15 2.35 -14.1 2.1 -13.9 1.7 -13.85 1.55 -13.85 1.15 -13.9 0.95 -14.1 0.9 -14.15 0.75 -14.5 0.7 -14.8 0.75 -15.05 0.85 -15.35 0.95 -15.5 1.1 -15.55 1.6 -15.8" fill="#33ff99" fill-rule="evenodd" stroke="none"/>
    <path d="M4.1 -10.05 L4.15 -10.25 4.15 -10.4 4.15 -18.25 4.15 -18.4 Q4.05 -19.85 3.05 -20.9 1.95 -22.05 0.35 -22.05 -1.15 -22.05 -2.3 -20.9 -3.3 -19.9 -3.4 -18.5 L-3.4 -18.25 -3.4 -15.65 -2.95 -15.8 -2.8 -15.8 1.6 -15.8 1.65 -15.8 2.2 -15.55 2.35 -15.5 2.45 -15.35 2.6 -15.05 2.6 -14.8 2.6 -14.5 2.4 -14.15 2.35 -14.1 2.1 -13.9 1.7 -13.85 1.55 -13.85 -2.75 -13.85 -2.95 -13.85 -3.15 -13.9 -3.4 -13.9 -3.4 -10.4 -3.4 -10.3 -3.4 -10.25 -3.4 -10.2 Q-3.3 -9.25 -2.3 -8.65 -1.15 -7.9 0.35 -7.9 1.95 -7.9 3.05 -8.65 3.95 -9.25 4.1 -10.05 L6.25 -9.0 6.25 -8.8 Q6.05 -7.2 4.5 -6.1 2.75 -4.8 0.25 -4.8 -2.25 -4.8 -4.05 -6.1 -5.55 -7.25 -5.75 -8.8 L-5.75 -8.9 -3.4 -10.25 M1.6 -15.8 L1.1 -15.55 0.95 -15.5 0.85 -15.35 0.75 -15.05 0.7 -14.8 0.75 -14.5 0.9 -14.15 0.95 -14.1 1.15 -13.9 1.55 -13.85 M-2.75 -13.85 L-2.45 -13.9 -2.25 -14.1 -2.2 -14.15 Q-2.0 -14.3 -1.95 -14.5 L-1.95 -14.8 -1.95 -15.05 -2.1 -15.35 -2.25 -15.5 -2.35 -15.55 -2.8 -15.8 M-3.4 -15.65 L-3.5 -15.55 -3.6 -15.5 -3.7 -15.35 -3.85 -15.05 -3.85 -14.8 -3.85 -14.5 -3.65 -14.15 -3.6 -14.1 -3.4 -13.9" fill="none" stroke="#000000" stroke-linecap="round" stroke-linejoin="round" stroke-width="0.05"/>
    <path d="M4.1 -18.5 Q3.9 -17.9 3.0 -17.45 1.9 -16.9 0.3 -16.9 -1.25 -16.9 -2.35 -17.45 -3.4 -17.95 -3.45 -18.65 -3.35 -20.0 -2.35 -21.0 -1.25 -22.1 0.3 -22.1 1.9 -22.1 3.0 -21.0 4.05 -19.95 4.1 -18.5" fill="url(#gradient5)" fill-rule="evenodd" stroke="none"/>
  </g>
  <defs>
    <linearGradient gradientTransform="matrix(-0.0025, 0.0025, 0.004, 0.004, -15.5, -13.05)" gradientUnits="userSpaceOnUse" id="gradient0" spreadMethod="pad" x1="-819.2" x2="819.2">
      <stop offset="0.0" stop-color="#625537"/>
      <stop offset="0.39215686274509803" stop-color="#a59163"/>
      <stop offset="0.49019607843137253" stop-color="#c2b69a"/>
      <stop offset="0.5882352941176471" stop-color="#907e55"/>
      <stop offset="1.0" stop-color="#625537"/>
    </linearGradient>
    <radialGradient cx="0" cy="0" gradientTransform="matrix(0.0143, 0.0, 0.0, 0.0143, 0.35, -0.95)" gradientUnits="userSpaceOnUse" id="gradient1" r="819.2" spreadMethod="pad">
      <stop offset="0.0" stop-color="#a59163"/>
      <stop offset="1.0" stop-color="#625537"/>
    </radialGradient>
    <linearGradient gradientTransform="matrix(-0.0025, -0.0025, -0.0053, 0.0053, 14.9, -12.7)" gradientUnits="userSpaceOnUse" id="gradient2" spreadMethod="pad" x1="-819.2" x2="819.2">
      <stop offset="0.0" stop-color="#625537"/>
      <stop offset="0.39215686274509803" stop-color="#a59163"/>
      <stop offset="0.49019607843137253" stop-color="#c2b69a"/>
      <stop offset="0.5882352941176471" stop-color="#907e55"/>
      <stop offset="1.0" stop-color="#625537"/>
    </linearGradient>
    <linearGradient gradientTransform="matrix(0.0047, 0.0, 0.0, 0.0065, 0.35, -13.25)" gradientUnits="userSpaceOnUse" id="gradient3" spreadMethod="pad" x1="-819.2" x2="819.2">
      <stop offset="0.0" stop-color="#625537"/>
      <stop offset="0.39215686274509803" stop-color="#a59163"/>
      <stop offset="1.0" stop-color="#625537"/>
    </linearGradient>
    <linearGradient gradientTransform="matrix(0.0073, 0.0, 0.0, 0.0033, 0.25, -7.55)" gradientUnits="userSpaceOnUse" id="gradient4" spreadMethod="pad" x1="-819.2" x2="819.2">
      <stop offset="0.0" stop-color="#625537"/>
      <stop offset="0.39215686274509803" stop-color="#a59163"/>
      <stop offset="0.49019607843137253" stop-color="#c2b69a"/>
      <stop offset="0.5882352941176471" stop-color="#907e55"/>
      <stop offset="1.0" stop-color="#625537"/>
    </linearGradient>
    <radialGradient cx="0" cy="0" gradientTransform="matrix(0.006, 0.0, 0.0, 0.0062, -1.05, -20.15)" gradientUnits="userSpaceOnUse" id="gradient5" r="819.2" spreadMethod="pad">
      <stop offset="0.0" stop-color="#d7cdb9"/>
      <stop offset="0.1450980392156863" stop-color="#a59163"/>
      <stop offset="0.5568627450980392" stop-color="#625537" stop-opacity="0.0"/>
    </radialGradient>
  </defs>
</svg>
