<?xml version="1.0" encoding="UTF-8" standalone="no"?>
<svg xmlns:xlink="http://www.w3.org/1999/xlink" height="21.4px" width="8.95px" xmlns="http://www.w3.org/2000/svg">
  <g transform="matrix(1.0, 0.0, 0.0, 1.0, 0.0, 0.0)">
    <path d="M0.15 7.75 L0.45 8.85 Q0.45 9.6 -0.1 10.15 -0.6 10.7 -1.4 10.7 -2.15 10.7 -2.7 10.15 -3.25 9.6 -3.25 8.85 -3.25 8.1 -2.7 7.55 -2.25 7.05 -1.55 7.0 L-1.4 7.0 Q-0.6 7.0 -0.1 7.55 L0.15 7.75" fill="#625537" fill-rule="evenodd" stroke="none"/>
    <path d="M-1.55 7.0 L2.1 -8.05 4.45 -7.45 0.15 7.75 -0.1 7.55 Q-0.6 7.0 -1.4 7.0 L-1.55 7.0" fill="#3c3322" fill-rule="evenodd" stroke="none"/>
    <path d="M-1.55 7.0 L2.1 -8.05 4.45 -7.45 0.15 7.75 0.45 8.85 Q0.45 9.6 -0.1 10.15 -0.6 10.7 -1.4 10.7 -2.15 10.7 -2.7 10.15 -3.25 9.6 -3.25 8.85 -3.25 8.1 -2.7 7.55 -2.25 7.05 -1.55 7.0 L-1.4 7.0 Q-0.6 7.0 -0.1 7.55 L0.15 7.75" fill="none" stroke="#000000" stroke-linecap="round" stroke-linejoin="round" stroke-width="0.05"/>
    <path d="M1.4 1.3 L-1.2 8.05 -2.75 8.0 -4.45 4.85 Q-2.95 -2.5 -4.5 -10.7 L-2.35 -10.45 -0.95 -8.5 -1.35 -7.7 -1.45 -1.75 1.4 1.3" fill="url(#gradient0)" fill-rule="evenodd" stroke="none"/>
    <path d="M-1.35 -7.7 L3.1 -6.85 2.75 -5.2 2.6 -4.5 2.5 -3.85 2.3 -3.05 1.45 1.3 1.4 1.3 -1.45 -1.75 -1.35 -7.7 M2.3 -3.05 L1.25 -3.3 0.7 -4.15 0.1 -5.25 0.25 -6.05 2.75 -5.2 0.25 -6.05 0.1 -5.25 2.6 -4.5 0.1 -5.25 0.7 -4.15 2.5 -3.85 0.7 -4.15 1.25 -3.3 2.3 -3.05" fill="#625537" fill-rule="evenodd" stroke="none"/>
    <path d="M-0.95 -8.5 L-1.35 -7.7 -1.45 -1.75 1.4 1.3 M2.75 -5.2 L0.25 -6.05 0.1 -5.25 2.6 -4.5 M0.1 -5.25 L0.7 -4.15 2.5 -3.85 M0.7 -4.15 L1.25 -3.3 2.3 -3.05" fill="none" stroke="#51462f" stroke-linecap="round" stroke-linejoin="round" stroke-width="0.05"/>
    <path d="M1.4 1.3 L-1.2 8.05 -2.75 8.0 -4.45 4.85 Q-2.95 -2.5 -4.5 -10.7 L-2.35 -10.45 -0.95 -8.5 M-1.35 -7.7 L3.1 -6.85 2.75 -5.2 2.6 -4.5 2.5 -3.85 2.3 -3.05 1.45 1.3 1.4 1.3" fill="none" stroke="#000000" stroke-linecap="round" stroke-linejoin="round" stroke-width="0.05"/>
  </g>
  <defs>
    <linearGradient gradientTransform="matrix(0.0042, 6.0E-4, 0.001, -0.0073, -2.1, -4.7)" gradientUnits="userSpaceOnUse" id="gradient0" spreadMethod="pad" x1="-819.2" x2="819.2">
      <stop offset="0.0" stop-color="#a59163"/>
      <stop offset="1.0" stop-color="#625537"/>
    </linearGradient>
  </defs>
</svg>
