<?xml version="1.0" encoding="UTF-8" standalone="no"?>
<svg xmlns:xlink="http://www.w3.org/1999/xlink" height="18.85px" width="9.7px" xmlns="http://www.w3.org/2000/svg">
  <g transform="matrix(1.0, 0.0, 0.0, 1.0, 0.0, 0.0)">
    <path d="M3.55 3.95 L4.0 6.0 Q5.05 11.6 4.6 18.85 L-4.6 18.85 -4.7 17.45 -4.7 16.25 Q-5.2 4.9 -2.35 0.0 L2.25 0.0 3.55 3.95 M-4.7 17.45 L0.7 17.45 Q-0.95 7.75 4.0 6.0 -0.95 7.75 0.7 17.45 L-4.7 17.45" fill="url(#gradient0)" fill-rule="evenodd" stroke="none"/>
    <path d="M3.55 3.95 L4.0 6.0 Q5.05 11.6 4.6 18.85 L-4.6 18.85 -4.7 17.45 -4.7 16.25 Q-5.2 4.9 -2.35 0.0 L2.25 0.0 3.55 3.95" fill="none" stroke="#000000" stroke-linecap="round" stroke-linejoin="round" stroke-width="0.05"/>
    <path d="M4.0 6.0 Q-0.95 7.75 0.7 17.45 L-4.7 17.45" fill="none" stroke="#4b412c" stroke-linecap="round" stroke-linejoin="round" stroke-width="0.05"/>
    <path d="M2.2 4.45 L2.35 4.5 2.45 4.7 2.35 4.85 2.2 4.95 2.0 4.85 1.95 4.7 2.0 4.5 2.2 4.45 M0.85 5.55 L1.05 5.5 1.2 5.55 1.3 5.75 1.2 5.9 1.05 6.0 0.85 5.9 0.8 5.75 0.85 5.55 M0.45 6.8 L0.55 7.0 0.45 7.15 0.3 7.25 0.1 7.15 0.05 7.0 0.1 6.8 0.3 6.75 0.45 6.8 M-0.45 8.1 L-0.25 8.05 -0.1 8.1 0.0 8.3 -0.1 8.45 -0.25 8.55 -0.45 8.45 -0.5 8.3 -0.45 8.1 M-0.8 9.55 L-0.6 9.5 -0.45 9.55 -0.35 9.75 -0.45 9.9 -0.6 10.0 -0.8 9.9 -0.85 9.75 -0.8 9.55 M-0.7 11.0 L-0.6 11.2 -0.7 11.35 -0.85 11.45 -1.05 11.35 -1.1 11.2 -1.05 11.0 -0.85 10.95 -0.7 11.0 M-1.15 12.45 L-0.95 12.4 -0.8 12.45 -0.7 12.65 -0.8 12.8 -0.95 12.9 -1.15 12.8 -1.2 12.65 -1.15 12.45 M-0.95 13.85 L-0.8 13.9 -0.7 14.1 -0.8 14.25 -0.95 14.35 -1.15 14.25 -1.2 14.1 -1.15 13.9 -0.95 13.85 M-0.75 15.35 L-0.65 15.55 -0.75 15.7 -0.9 15.8 -1.1 15.7 -1.15 15.55 -1.1 15.35 -0.9 15.3 -0.75 15.35 M-3.4 16.05 L-3.2 16.0 -3.05 16.05 -2.95 16.25 -3.05 16.4 -3.2 16.5 -3.4 16.4 -3.45 16.25 -3.4 16.05 M-4.55 16.05 L-4.45 16.25 -4.55 16.4 -4.7 16.5 -4.9 16.4 -4.95 16.25 -4.9 16.05 -4.7 16.0 -4.55 16.05 M-1.55 16.05 L-1.45 16.25 -1.55 16.4 -1.7 16.5 -1.9 16.4 -1.95 16.25 -1.9 16.05 -1.7 16.0 -1.55 16.05" fill="#4b412c" fill-rule="evenodd" stroke="none"/>
  </g>
  <defs>
    <radialGradient cx="0" cy="0" gradientTransform="matrix(0.013, 0.0, 0.0, 0.0353, 2.55, 11.2)" gradientUnits="userSpaceOnUse" id="gradient0" r="819.2" spreadMethod="pad">
      <stop offset="0.0" stop-color="#625537"/>
      <stop offset="0.39215686274509803" stop-color="#a59163"/>
      <stop offset="0.49019607843137253" stop-color="#c2b69a"/>
      <stop offset="0.5882352941176471" stop-color="#907e55"/>
      <stop offset="1.0" stop-color="#625537"/>
    </radialGradient>
  </defs>
</svg>
