<?xml version="1.0" encoding="UTF-8" standalone="no"?>
<svg xmlns:xlink="http://www.w3.org/1999/xlink" height="19.4px" width="16.55px" xmlns="http://www.w3.org/2000/svg">
  <g transform="matrix(1.0, 0.0, 0.0, 1.0, 0.0, 0.0)">
    <path d="M6.95 22.35 Q5.1 22.85 5.15 25.0 6.35 24.45 8.05 26.45 6.05 26.25 5.15 27.9 7.2 28.75 6.95 30.6 5.6 28.85 3.7 30.4 4.95 31.7 3.9 33.6 3.65 31.75 1.25 31.85 1.95 33.55 -0.2 34.7 0.4 33.15 -1.7 31.85 -1.95 33.8 -4.35 33.6 -2.6 32.0 -4.15 30.4 -5.25 31.4 -7.4 30.6 -5.2 29.8 -5.6 27.9 -7.05 28.95 -8.5 26.45 -6.65 27.3 -5.6 25.0 -7.75 24.65 -7.4 22.35 -6.4 23.65 -4.15 22.5 -5.6 20.75 -4.35 19.3 -3.95 21.45 -1.7 21.05 -1.65 19.2 -0.2 18.2 -0.75 19.6 1.25 21.05 1.6 19.5 3.9 19.3 2.65 20.65 3.7 22.5 L6.95 22.35 M1.4 28.05 Q2.05 27.4 2.05 26.45 2.05 25.5 1.4 24.8 0.75 24.15 -0.2 24.15 -1.15 24.15 -1.8 24.8 -2.45 25.5 -2.45 26.45 -2.45 27.4 -1.8 28.05 -1.15 28.7 -0.2 28.7 0.75 28.7 1.4 28.05" fill="url(#gradient0)" fill-rule="evenodd" stroke="none"/>
    <path d="M0.55 27.15 L0.85 26.45 0.55 25.75 Q0.25 25.45 -0.15 25.45 -0.55 25.45 -0.85 25.75 L-1.15 26.45 -0.85 27.15 Q-0.55 27.45 -0.15 27.45 L0.55 27.15 M1.4 28.05 Q0.75 28.7 -0.2 28.7 -1.15 28.7 -1.8 28.05 -2.45 27.4 -2.45 26.45 -2.45 25.5 -1.8 24.8 -1.15 24.15 -0.2 24.15 0.75 24.15 1.4 24.8 2.05 25.5 2.05 26.45 2.05 27.4 1.4 28.05" fill="url(#gradient1)" fill-rule="evenodd" stroke="none"/>
    <path d="M6.95 22.35 Q5.1 22.85 5.15 25.0 6.35 24.45 8.05 26.45 6.05 26.25 5.15 27.9 7.2 28.75 6.95 30.6 5.6 28.85 3.7 30.4 4.95 31.7 3.9 33.6 3.65 31.75 1.25 31.85 1.95 33.55 -0.2 34.7 0.4 33.15 -1.7 31.85 -1.95 33.8 -4.35 33.6 -2.6 32.0 -4.15 30.4 -5.25 31.4 -7.4 30.6 -5.2 29.8 -5.6 27.9 -7.05 28.95 -8.5 26.45 -6.65 27.3 -5.6 25.0 -7.75 24.65 -7.4 22.35 -6.4 23.65 -4.15 22.5 -5.6 20.75 -4.35 19.3 -3.95 21.45 -1.7 21.05 -1.65 19.2 -0.2 18.2 -0.75 19.6 1.25 21.05 1.6 19.5 3.9 19.3 2.65 20.65 3.7 22.5 L6.95 22.35 M0.55 27.15 L-0.15 27.45 Q-0.55 27.45 -0.85 27.15 L-1.15 26.45 -0.85 25.75 Q-0.55 25.45 -0.15 25.45 0.25 25.45 0.55 25.75 L0.85 26.45 0.55 27.15 M1.4 28.05 Q0.75 28.7 -0.2 28.7 -1.15 28.7 -1.8 28.05 -2.45 27.4 -2.45 26.45 -2.45 25.5 -1.8 24.8 -1.15 24.15 -0.2 24.15 0.75 24.15 1.4 24.8 2.05 25.5 2.05 26.45 2.05 27.4 1.4 28.05 Z" fill="none" stroke="#000000" stroke-linecap="round" stroke-linejoin="round" stroke-width="0.05"/>
    <path d="M5.4 23.45 Q3.95 23.8 4.0 25.45 4.9 25.05 6.2 26.55 4.7 26.4 4.0 27.7 5.55 28.35 5.95 29.15 4.35 28.4 2.9 29.6 3.85 30.6 3.05 32.05 2.85 30.65 1.0 30.7 1.55 32.0 -0.1 32.9 0.35 31.7 -1.25 30.7 -1.45 32.2 -3.3 32.05 -1.95 30.85 -3.15 29.6 L-5.6 29.75 Q-3.95 29.15 -4.25 27.7 -5.35 28.5 -6.45 26.55 -5.05 27.2 -4.25 25.45 -5.9 25.2 -5.6 23.45 L-3.15 23.55 Q-4.25 22.2 -3.3 21.1 -3.0 22.75 -1.25 22.45 -1.2 21.0 -0.1 20.25 -0.5 21.3 1.0 22.45 1.3 21.25 3.05 21.1 2.1 22.15 2.9 23.55 L5.4 23.45 Z" fill="none" stroke="#ffead5" stroke-linecap="round" stroke-linejoin="round" stroke-width="0.05"/>
    <path d="M0.95 26.55 Q-0.25 28.2 -1.1 26.55 L-1.1 15.3 0.95 15.3 0.95 26.55" fill="url(#gradient2)" fill-rule="evenodd" stroke="none"/>
    <path d="M0.95 26.55 Q-0.25 28.2 -1.1 26.55 L-1.1 15.3 0.95 15.3 0.95 26.55 Z" fill="none" stroke="#000000" stroke-linecap="round" stroke-linejoin="round" stroke-width="0.05"/>
  </g>
  <defs>
    <linearGradient gradientTransform="matrix(0.0071, 0.0071, -0.0071, 0.0071, -0.25, 26.45)" gradientUnits="userSpaceOnUse" id="gradient0" spreadMethod="pad" x1="-819.2" x2="819.2">
      <stop offset="0.0" stop-color="#be9c7c"/>
      <stop offset="0.2980392156862745" stop-color="#ede3de"/>
      <stop offset="0.5686274509803921" stop-color="#b49d87"/>
      <stop offset="0.7725490196078432" stop-color="#e1dad0"/>
      <stop offset="1.0" stop-color="#a48d6c"/>
    </linearGradient>
    <linearGradient gradientTransform="matrix(0.0071, 0.0071, -0.0071, 0.0071, -0.25, 26.45)" gradientUnits="userSpaceOnUse" id="gradient1" spreadMethod="pad" x1="-819.2" x2="819.2">
      <stop offset="0.0" stop-color="#aa7755"/>
      <stop offset="0.2980392156862745" stop-color="#ceb3a8"/>
      <stop offset="0.5686274509803921" stop-color="#876f56"/>
      <stop offset="0.7725490196078432" stop-color="#cdbeb1"/>
      <stop offset="1.0" stop-color="#8d7758"/>
    </linearGradient>
    <linearGradient gradientTransform="matrix(0.0013, 0.0, 0.0, 0.0074, -0.1, 21.3)" gradientUnits="userSpaceOnUse" id="gradient2" spreadMethod="pad" x1="-819.2" x2="819.2">
      <stop offset="0.0" stop-color="#625537"/>
      <stop offset="0.39215686274509803" stop-color="#a59163"/>
      <stop offset="0.49019607843137253" stop-color="#c2b69a"/>
      <stop offset="0.5882352941176471" stop-color="#907e55"/>
      <stop offset="1.0" stop-color="#625537"/>
    </linearGradient>
  </defs>
</svg>
