<?xml version="1.0" encoding="UTF-8" standalone="no"?>
<svg xmlns:xlink="http://www.w3.org/1999/xlink" height="23.6px" width="6.2px" xmlns="http://www.w3.org/2000/svg">
  <g transform="matrix(1.0, 0.0, 0.0, 1.0, 0.0, 0.0)">
    <path d="M-0.8 19.65 L-0.8 4.9 -1.4 4.9 -1.6 4.75 -2.65 3.9 Q-2.85 1.9 -1.45 0.0 L-0.7 0.0 -0.7 2.45 0.8 2.45 0.8 10.0 1.45 10.8 2.05 18.8 1.85 19.3 1.5 19.15 0.8 19.0 Q0.0 19.0 -0.8 19.65 M-0.4 18.85 L-0.4 2.8 -0.4 18.85" fill="url(#gradient0)" fill-rule="evenodd" stroke="none"/>
    <path d="M-1.6 4.75 L-1.4 4.9 -0.8 4.9 -0.8 19.65 -0.85 19.7 -1.6 19.7 -1.6 7.7 -1.6 4.75" fill="url(#gradient1)" fill-rule="evenodd" stroke="none"/>
    <path d="M-0.8 19.65 Q0.0 19.0 0.8 19.0 L1.5 19.15 1.85 19.3 2.35 19.6 2.45 19.7 Q3.1 20.5 3.1 21.25 L3.1 21.35 2.45 22.9 Q1.75 23.6 0.8 23.6 0.0 23.6 -0.85 22.9 L-1.35 21.95 -1.4 21.55 -1.5 21.25 Q-1.5 20.5 -1.05 19.95 L-0.85 19.7 -0.8 19.65" fill="#625537" fill-rule="evenodd" stroke="none"/>
    <path d="M-1.6 4.75 L-1.4 4.9 -0.8 4.9 -0.8 19.65 Q0.0 19.0 0.8 19.0 L1.5 19.15 1.85 19.3 2.05 18.8 1.45 10.8 0.8 10.0 0.8 2.45 -0.7 2.45 -0.7 0.0 -1.45 0.0 Q-2.85 1.9 -2.65 3.9 L-1.6 4.75 -1.6 7.7 -1.6 19.7 -0.85 19.7 -0.8 19.65 M1.85 19.3 L2.35 19.6 2.45 19.7 Q3.1 20.5 3.1 21.25 L3.1 21.35 2.45 22.9 Q1.75 23.6 0.8 23.6 0.0 23.6 -0.85 22.9 L-1.35 21.95 -1.4 21.55 Q-2.95 21.7 -3.1 18.05 -3.25 14.0 -1.6 7.7 M-0.85 19.7 L-1.05 19.95 Q-1.5 20.5 -1.5 21.25 L-1.4 21.55" fill="none" stroke="#000000" stroke-linecap="round" stroke-linejoin="round" stroke-width="0.05"/>
    <path d="M-0.4 2.8 L-0.4 18.85" fill="none" stroke="#81814f" stroke-linecap="round" stroke-linejoin="round" stroke-width="0.05"/>
  </g>
  <defs>
    <radialGradient cx="0" cy="0" gradientTransform="matrix(0.0064, 0.0, 0.0, 0.0094, 0.05, 10.15)" gradientUnits="userSpaceOnUse" id="gradient0" r="819.2" spreadMethod="pad">
      <stop offset="0.0" stop-color="#a59163"/>
      <stop offset="1.0" stop-color="#625537"/>
    </radialGradient>
    <radialGradient cx="0" cy="0" gradientTransform="matrix(0.0043, 0.0, 0.0, 0.0082, -0.8, 10.15)" gradientUnits="userSpaceOnUse" id="gradient1" r="819.2" spreadMethod="pad">
      <stop offset="0.0" stop-color="#82714a"/>
      <stop offset="1.0" stop-color="#3c3122"/>
    </radialGradient>
  </defs>
</svg>
