<?xml version="1.0" encoding="UTF-8" standalone="no"?>
<svg xmlns:xlink="http://www.w3.org/1999/xlink" height="26.7px" width="38.6px" xmlns="http://www.w3.org/2000/svg">
  <g transform="matrix(1.0, 0.0, 0.0, 1.0, 0.0, 0.0)">
    <path d="M12.45 10.9 L12.45 10.95 12.45 10.9" fill="#553885" fill-rule="evenodd" stroke="none"/>
    <path d="M-12.1 -6.7 L-8.6 -2.0 -8.55 -1.95 -8.75 -1.85 Q-9.5 -1.5 -10.25 -1.45 -9.5 -1.5 -8.75 -1.85 L-8.55 -1.95 -5.2 1.4 -2.45 3.55 -3.6 3.55 -3.95 3.5 -4.1 3.45 -5.85 3.05 -6.5 3.15 -7.25 3.4 -8.3 3.4 -8.6 3.25 -8.65 3.2 -9.6 2.05 -9.85 1.3 -10.0 1.15 Q-11.1 0.6 -11.7 -0.6 L-12.15 -1.5 -13.0 -2.95 -13.3 -3.45 -13.65 -3.95 -14.85 -5.0 -15.3 -5.15 -15.45 -5.2 -16.0 -5.65 -16.55 -6.2 -17.15 -6.75 -17.5 -7.05 -17.65 -7.2 -18.35 -8.5 -18.55 -9.0 -19.35 -9.85 Q-20.1 -10.5 -20.55 -10.4 L-19.7 -12.25 -18.25 -14.1 -18.2 -14.1 -18.0 -14.05 Q-16.55 -13.4 -15.7 -12.1 L-15.1 -11.3 -12.1 -6.7 M-15.85 -11.7 L-16.15 -10.7 -16.35 -9.2 -16.15 -10.7 -15.85 -11.7 M-15.7 -11.15 L-15.85 -10.55 -15.7 -11.15" fill="#5f5354" fill-rule="evenodd" stroke="none"/>
    <path d="M-4.1 3.45 L-3.9 3.9 Q-3.5 4.2 -3.55 4.7 L-3.7 4.95 -3.8 5.1 -4.25 5.55 -4.5 5.55 -4.9 5.5 -5.2 5.35 -6.05 4.7 -7.25 3.4 -6.5 3.15 -5.85 3.05 -4.1 3.45 M-8.65 3.2 L-9.6 3.95 -10.1 4.7 Q-10.4 3.15 -9.6 2.05 L-8.65 3.2 M-12.15 -1.5 L-12.45 -1.4 -13.1 -1.05 Q-13.85 -0.45 -14.15 -0.6 L-14.1 -1.15 -13.8 -2.1 -13.35 -2.7 Q-13.6 -3.2 -14.0 -3.05 -14.7 -3.4 -15.45 -4.0 L-15.65 -4.55 -15.45 -5.2 -15.3 -5.15 -14.85 -5.0 -13.65 -3.95 -13.3 -3.45 -13.0 -2.95 -12.15 -1.5 M-16.55 -6.2 L-18.1 -5.1 Q-17.95 -5.45 -17.95 -5.85 L-17.65 -7.2 -17.5 -7.05 -17.15 -6.75 -16.55 -6.2 M-13.35 -2.7 L-13.0 -2.95 -13.35 -2.7 M-3.4 6.8 L-3.9 6.15 -3.75 5.65 Q-3.8 5.2 -3.4 5.25 L-1.7 6.75 Q-0.8 7.35 -0.55 8.25 L-1.3 8.45 -1.65 8.35 -2.25 7.9 -2.75 7.45 -3.4 6.8 -2.75 7.45 -3.45 7.85 -4.15 8.35 -4.15 8.25 -4.05 8.0 Q-3.6 7.55 -3.4 6.8 M5.55 10.2 L2.8 10.1 2.65 10.0 1.7 10.9 1.7 10.5 1.9 9.75 0.4 9.45 Q-0.3 9.3 -0.25 8.7 L-0.2 8.45 0.6 8.1 1.45 8.15 2.25 8.65 Q3.7 9.75 5.45 9.85 L5.85 9.95 5.55 10.2 M6.15 10.1 Q6.35 9.95 6.6 9.95 L8.65 10.3 12.45 10.9 17.35 10.0 17.55 9.95 Q17.6 10.8 16.6 11.15 L14.9 11.55 14.3 11.55 13.95 11.55 12.7 11.3 12.5 11.1 12.45 10.9 12.45 10.95 Q11.45 11.7 10.0 11.5 L9.65 11.45 8.85 12.6 8.8 12.4 Q8.6 11.95 8.65 11.3 L7.5 11.0 6.8 10.9 6.2 10.9 6.15 10.1 M8.65 11.3 L9.65 11.45 8.65 11.3 M1.9 9.75 L2.25 9.85 2.65 10.0 2.25 9.85 1.9 9.75" fill="#552811" fill-rule="evenodd" stroke="none"/>
    <path d="M-15.1 -11.3 Q-13.45 -11.15 -11.85 -11.3 L-11.65 -10.85 -11.15 -9.75 -10.9 -9.25 -10.85 -9.25 Q-10.8 -10.35 -10.9 -11.45 L-9.95 -11.65 -9.55 -11.15 -9.5 -11.1 -9.6 -11.75 Q-8.35 -12.1 -7.15 -12.7 -6.7 -12.85 -6.25 -13.1 -8.15 -8.95 -12.1 -6.7 L-15.1 -11.3 M-8.6 -2.0 L-6.4 -2.7 -1.0 -2.6 Q-4.95 -0.95 -5.2 1.4 L-8.55 -1.95 -8.6 -2.0" fill="url(#gradient0)" fill-rule="evenodd" stroke="none"/>
    <path d="M-12.1 -6.7 L-8.6 -2.0 -8.55 -1.95 -5.2 1.4 -2.45 3.55 -3.6 3.55 -3.95 3.5 -4.1 3.45 -3.9 3.9 Q-3.5 4.2 -3.55 4.7 L-3.7 4.95 -3.8 5.1 -4.25 5.55 -4.5 5.55 -4.9 5.5 -5.2 5.35 -6.05 4.7 -7.25 3.4 M-8.65 3.2 L-9.6 3.95 -10.1 4.7 Q-10.4 3.15 -9.6 2.05 M-12.15 -1.5 L-12.45 -1.4 -13.1 -1.05 Q-13.85 -0.45 -14.15 -0.6 L-14.1 -1.15 -13.8 -2.1 -13.35 -2.7 Q-13.6 -3.2 -14.0 -3.05 -14.7 -3.4 -15.45 -4.0 L-15.65 -4.55 -15.45 -5.2 M-16.55 -6.2 L-18.1 -5.1 Q-17.95 -5.45 -17.95 -5.85 L-17.65 -7.2 M-18.25 -14.1 L-18.2 -14.1 -18.0 -14.05 Q-16.55 -13.4 -15.7 -12.1 L-15.1 -11.3 -12.1 -6.7 M-13.0 -2.95 L-13.35 -2.7 M-2.75 7.45 L-2.25 7.9 -1.65 8.35 -1.3 8.45 -0.55 8.25 Q-0.8 7.35 -1.7 6.75 L-3.4 5.25 Q-3.8 5.2 -3.75 5.65 L-3.9 6.15 -3.4 6.8 -2.75 7.45 -3.45 7.85 -4.15 8.35 -4.15 8.25 -4.05 8.0 Q-3.6 7.55 -3.4 6.8 M5.55 10.2 L2.8 10.1 2.65 10.0 1.7 10.9 1.7 10.5 1.9 9.75 0.4 9.45 Q-0.3 9.3 -0.25 8.7 L-0.2 8.45 0.6 8.1 1.45 8.15 2.25 8.65 Q3.7 9.75 5.45 9.85 L5.85 9.95 5.55 10.2 6.15 10.1 Q6.35 9.95 6.6 9.95 L8.65 10.3 12.45 10.9 17.35 10.0 17.55 9.95 Q17.6 10.8 16.6 11.15 L14.9 11.55 14.3 11.55 13.95 11.55 12.7 11.3 12.5 11.1 12.45 10.9 12.45 10.95 Q11.45 11.7 10.0 11.5 L9.65 11.45 8.85 12.6 8.8 12.4 Q8.6 11.95 8.65 11.3 L7.5 11.0 6.8 10.9 6.2 10.9 6.15 10.1 M2.65 10.0 L2.25 9.85 1.9 9.75 M9.65 11.45 L8.65 11.3" fill="none" stroke="#000000" stroke-linecap="round" stroke-linejoin="round" stroke-width="0.05"/>
    <path d="M-15.85 -10.55 L-15.7 -11.15 M-16.35 -9.2 L-16.15 -10.7 -15.85 -11.7 M-10.25 -1.45 Q-9.5 -1.5 -8.75 -1.85 L-8.55 -1.95" fill="none" stroke="#000000" stroke-linecap="round" stroke-linejoin="round" stroke-width="0.05"/>
    <path d="M-7.25 3.4 L-8.3 3.4 -8.6 3.25 -8.65 3.2 -9.6 2.05 -9.85 1.3 -10.0 1.15 Q-11.1 0.6 -11.7 -0.6 L-12.15 -1.5 -13.0 -2.95 -13.3 -3.45 -13.65 -3.95 -14.85 -5.0 -15.3 -5.15 -15.45 -5.2 -16.0 -5.65 -16.55 -6.2 -17.15 -6.75 -17.5 -7.05 -17.65 -7.2 -18.35 -8.5 -18.55 -9.0 -19.35 -9.85 Q-20.1 -10.5 -20.55 -10.4 M-7.25 3.4 L-6.5 3.15 -5.85 3.05 -4.1 3.45" fill="none" stroke="#006600" stroke-linecap="round" stroke-linejoin="round" stroke-width="1.0"/>
    <path d="M-15.1 -11.3 Q-13.45 -11.15 -11.85 -11.3 L-11.65 -10.85 -11.15 -9.75 -10.9 -9.25 -10.85 -9.25 Q-10.8 -10.35 -10.9 -11.45 L-9.95 -11.65 -9.55 -11.15 -9.5 -11.1 -9.6 -11.75 Q-8.35 -12.1 -7.15 -12.7 -6.7 -12.85 -6.25 -13.1 -8.15 -8.95 -12.1 -6.7 M-8.6 -2.0 L-6.4 -2.7 -1.0 -2.6 Q-4.95 -0.95 -5.2 1.4" fill="none" stroke="#003c00" stroke-linecap="round" stroke-linejoin="round" stroke-width="0.05"/>
  </g>
  <defs>
    <linearGradient gradientTransform="matrix(0.004, -0.0046, 0.009, 0.0079, 8.65, 7.5)" gradientUnits="userSpaceOnUse" id="gradient0" spreadMethod="pad" x1="-819.2" x2="819.2">
      <stop offset="0.0" stop-color="#26561d" stop-opacity="0.67058825"/>
      <stop offset="1.0" stop-color="#399f39" stop-opacity="0.2"/>
    </linearGradient>
  </defs>
</svg>
