<?xml version="1.0" encoding="UTF-8" standalone="no"?>
<svg xmlns:xlink="http://www.w3.org/1999/xlink" height="45.05px" width="25.25px" xmlns="http://www.w3.org/2000/svg">
  <g transform="matrix(1.0, 0.0, 0.0, 1.0, 0.0, 0.0)">
    <path d="M8.2 -4.9 L7.45 -4.85 Q3.95 -4.8 0.95 -3.2 L2.25 -3.45 7.4 -3.3 2.25 -3.45 0.95 -3.2 Q3.95 -4.8 7.45 -4.85 L8.2 -4.9 M7.55 -1.45 L7.45 -1.35 7.5 -1.25 8.4 -0.9 7.5 -1.25 7.55 -1.45 8.45 -1.7 7.55 -1.45 M-6.65 -12.5 Q-4.35 -13.55 -1.95 -13.05 1.9 -12.4 4.95 -9.9 7.05 -8.65 8.55 -6.4 9.5 -5.0 9.85 -3.35 L10.1 -1.15 Q10.0 3.05 6.85 5.6 6.45 6.75 6.6 7.75 6.95 9.8 6.6 11.85 L6.45 13.15 Q6.25 17.1 4.25 20.6 L3.1 22.25 1.75 23.6 2.25 26.25 Q1.65 28.5 -0.25 30.2 -0.95 30.3 -1.45 30.8 L-2.2 31.45 -4.1 31.75 -5.65 31.8 -6.5 31.4 Q-9.45 30.0 -10.95 27.2 L-11.45 25.8 Q-11.8 23.9 -11.65 21.95 -11.55 21.1 -11.8 20.25 -12.3 18.6 -13.15 17.0 -13.6 16.1 -13.65 15.0 -13.75 12.5 -13.5 10.05 -13.25 7.5 -12.6 5.1 L-12.25 4.1 -12.15 4.0 -12.2 3.95 -12.15 3.9 -12.25 3.9 -15.15 1.15 Q-12.55 -1.9 -11.65 -5.75 L-11.4 -6.55 Q-10.45 -9.0 -8.3 -10.1 -7.2 -10.55 -6.4 -11.2 L-6.65 -12.5 M-6.95 10.25 L-8.35 8.25 Q-9.65 5.7 -12.15 4.0 -9.65 5.7 -8.35 8.25 L-6.95 10.25 M3.15 10.95 L2.35 14.45 2.1 15.15 1.2 16.9 Q-0.55 20.25 -3.15 22.95 -0.55 20.25 1.2 16.9 L2.1 15.15 2.35 14.45 3.15 10.95 M1.0 10.8 Q2.2 8.75 4.0 7.7 L5.35 6.75 6.85 5.6 5.35 6.75 4.0 7.7 Q2.2 8.75 1.0 10.8 M0.0 25.3 L1.75 23.6 0.0 25.3 M-10.25 10.95 L-10.55 11.7 Q-11.15 13.8 -9.9 15.55 -11.15 13.8 -10.55 11.7 L-10.25 10.95" fill="#3d2312" fill-rule="evenodd" stroke="none"/>
    <path d="M7.4 -3.3 L2.25 -3.45 0.95 -3.2 Q3.95 -4.8 7.45 -4.85 L8.2 -4.9 M7.5 -1.25 L7.45 -1.35 7.55 -1.45 8.45 -1.7 M6.85 5.6 Q10.0 3.05 10.1 -1.15 L9.85 -3.35 Q9.5 -5.0 8.55 -6.4 7.05 -8.65 4.95 -9.9 1.9 -12.4 -1.95 -13.05 -4.35 -13.55 -6.65 -12.5 M-15.15 1.15 L-12.25 3.9 -12.2 3.95 -12.15 4.0 Q-9.65 5.7 -8.35 8.25 L-6.95 10.25 M-12.15 3.9 L-12.2 3.95 -12.25 4.1 -12.6 5.1 Q-13.25 7.5 -13.5 10.05 -13.75 12.5 -13.65 15.0 -13.6 16.1 -13.15 17.0 -12.3 18.6 -11.8 20.25 -11.55 21.1 -11.65 21.95 -11.8 23.9 -11.45 25.8 L-10.95 27.2 Q-9.45 30.0 -6.5 31.4 L-5.65 31.8 -4.1 31.75 -2.2 31.45 -1.45 30.8 Q-0.95 30.3 -0.25 30.2 1.65 28.5 2.25 26.25 L1.75 23.6 0.0 25.3 M7.5 -1.25 L8.4 -0.9 M1.75 23.6 L3.1 22.25 4.25 20.6 Q6.25 17.1 6.45 13.15 L6.6 11.85 Q6.95 9.8 6.6 7.75 6.45 6.75 6.85 5.6 L5.35 6.75 4.0 7.7 Q2.2 8.75 1.0 10.8 M-3.15 22.95 Q-0.55 20.25 1.2 16.9 L2.1 15.15 2.35 14.45 3.15 10.95 M-9.9 15.55 Q-11.15 13.8 -10.55 11.7 L-10.25 10.95" fill="none" stroke="#000000" stroke-linecap="round" stroke-linejoin="round" stroke-width="0.05"/>
  </g>
</svg>
