<?xml version="1.0" encoding="UTF-8" standalone="no"?>
<svg xmlns:xlink="http://www.w3.org/1999/xlink" height="61.05px" width="33.45px" xmlns="http://www.w3.org/2000/svg">
  <g transform="matrix(1.0, 0.0, 0.0, 1.0, 0.0, 0.0)">
    <path d="M7.75 4.8 Q7.95 9.55 7.05 14.3 6.2 18.65 3.4 22.15 1.8 24.2 1.45 25.75 L0.85 27.75 -0.05 30.2 Q-0.9 31.15 -2.5 31.45 L-5.55 31.5 Q-6.95 31.35 -7.8 30.15 -8.7 28.9 -9.75 28.35 -11.85 26.15 -12.3 23.05 L-13.2 16.7 -13.65 11.4 Q-13.8 7.4 -13.35 3.3 L-12.95 1.55 -12.35 0.65 Q-11.7 1.5 -11.15 2.5 -7.85 7.85 -1.65 9.2 0.3 9.65 2.05 8.6 L7.75 4.8 M2.55 9.7 L2.95 10.2 2.85 11.0 Q2.4 13.2 1.6 15.3 L-0.2 19.4 -1.75 22.65 -0.2 19.4 1.6 15.3 Q2.4 13.2 2.85 11.0 L2.95 10.2 2.55 9.7 M-3.65 10.6 L-4.1 11.75 -3.7 11.8 -3.55 16.0 -5.35 15.4 -4.1 11.75 -5.35 15.4 -3.55 16.0 -3.7 11.8 -4.1 11.75 -3.65 10.6 -3.75 9.7 -3.65 10.6 -3.7 11.8 -2.7 12.05 Q-2.4 12.05 -2.2 12.3 L-2.0 12.9 Q-0.85 14.15 -0.65 15.85 L-0.5 16.7 Q-0.2 16.85 0.05 16.95 -0.2 16.85 -0.5 16.7 L-0.65 15.85 Q-0.85 14.15 -2.0 12.9 L-2.2 12.3 Q-2.4 12.05 -2.7 12.05 L-3.7 11.8 -3.65 10.6 M-2.2 15.7 L-2.35 15.6 -2.25 15.75 -2.2 15.7 M-10.1 14.15 L-8.55 14.6 -8.55 15.25 Q-8.25 17.3 -6.75 18.6 L-9.3 23.55 -6.75 18.6 Q-8.25 17.3 -8.55 15.25 L-8.55 14.6 -10.1 14.15 M-3.3 23.85 L-3.35 19.85 Q-4.95 20.15 -6.15 19.05 L-6.75 18.6 -5.35 15.4 -8.55 14.6 Q-8.55 13.4 -7.25 12.6 -5.95 11.75 -4.1 11.75 -5.95 11.75 -7.25 12.6 -8.55 13.4 -8.55 14.6 L-5.35 15.4 -6.75 18.6 -6.15 19.05 Q-4.95 20.15 -3.35 19.85 L-3.3 23.85 M-2.45 16.15 Q-1.55 16.15 -0.5 16.7 -1.0 18.55 -2.75 19.6 L-3.35 19.85 -3.55 16.0 -2.45 16.15 -3.55 16.0 -3.35 19.85 -2.75 19.6 Q-1.0 18.55 -0.5 16.7 -1.55 16.15 -2.45 16.15 M-6.2 20.0 L-6.2 19.7 -6.35 19.85 -6.2 20.0 M-2.7 12.05 L-2.0 12.9 -2.7 12.05 M-10.95 15.1 Q-11.2 13.35 -10.95 11.6 -10.6 9.35 -9.85 7.3 -10.6 9.35 -10.95 11.6 -11.2 13.35 -10.95 15.1" fill="#333333" fill-rule="evenodd" stroke="none"/>
    <path d="M2.45 -13.05 L2.55 -13.0 2.5 -13.15 2.45 -13.05 M-1.6 -16.7 L-1.2 -25.6 -0.45 -25.1 2.5 -13.15 3.65 -14.55 Q5.8 -17.35 7.25 -20.75 8.85 -24.45 9.55 -28.3 L9.6 -23.5 9.25 -18.9 Q8.6 -14.25 6.25 -10.25 L2.55 -13.0 2.8 -6.3 Q1.75 -5.6 0.3 -5.5 L-0.75 -6.05 Q-1.25 -6.45 -1.4 -7.05 -2.65 -11.85 -1.6 -16.7 M9.65 -8.45 Q13.8 -12.45 15.75 -17.8 16.45 -14.05 15.2 -10.55 14.35 -8.25 12.2 -6.4 L10.8 -7.7 9.65 -8.45 M-12.9 -7.95 Q-15.1 -10.4 -15.05 -13.8 L-15.0 -14.8 Q-14.85 -11.35 -11.7 -10.3 -12.2 -10.3 -12.55 -9.6 -12.9 -8.9 -12.9 -7.95 M-10.4 -11.95 Q-11.05 -16.45 -10.95 -20.7 -10.85 -25.3 -9.25 -29.5 -8.4 -27.4 -8.15 -25.1 L-6.95 -15.45 -6.85 -11.7 -8.5 -10.45 -10.4 -11.95" fill="url(#gradient0)" fill-rule="evenodd" stroke="none"/>
    <path d="M-1.6 -16.7 Q-2.65 -11.85 -1.4 -7.05 -1.25 -6.45 -0.75 -6.05 L0.3 -5.5 Q1.75 -5.6 2.8 -6.3 L2.55 -13.0 6.25 -10.25 9.65 -8.45 10.8 -7.7 12.2 -6.4 13.05 -4.8 13.25 -4.35 13.5 -3.95 16.15 -3.8 16.75 -1.4 7.75 4.8 2.05 8.6 Q0.3 9.65 -1.65 9.2 -7.85 7.85 -11.15 2.5 -11.7 1.5 -12.35 0.65 L-12.45 0.55 -14.35 -1.2 Q-16.05 -2.4 -16.7 -4.3 L-16.05 -5.05 Q-14.95 -6.3 -13.4 -6.2 L-12.9 -7.95 Q-12.9 -8.9 -12.55 -9.6 -12.2 -10.3 -11.7 -10.3 L-10.4 -11.9 -10.4 -11.95 -8.5 -10.45 -6.85 -11.7 -6.95 -15.45 -6.05 -16.1 Q-4.0 -17.35 -1.6 -16.7" fill="#000000" fill-rule="evenodd" stroke="none"/>
    <path d="M2.45 -13.05 L2.55 -13.0 2.5 -13.15 2.45 -13.05 M6.25 -10.25 Q8.6 -14.25 9.25 -18.9 L9.6 -23.5 9.55 -28.3 Q8.85 -24.45 7.25 -20.75 5.8 -17.35 3.65 -14.55 L2.5 -13.15 -0.45 -25.1 -1.2 -25.6 -1.6 -16.7 Q-2.65 -11.85 -1.4 -7.05 -1.25 -6.45 -0.75 -6.05 L0.3 -5.5 Q1.75 -5.6 2.8 -6.3 L2.55 -13.0 6.25 -10.25 9.65 -8.45 Q13.8 -12.45 15.75 -17.8 16.45 -14.05 15.2 -10.55 14.35 -8.25 12.2 -6.4 L13.05 -4.8 13.25 -4.35 13.5 -3.95 16.15 -3.8 16.75 -1.4 7.75 4.8 Q7.95 9.55 7.05 14.3 6.2 18.65 3.4 22.15 1.8 24.2 1.45 25.75 L0.85 27.75 -0.05 30.2 Q-0.9 31.15 -2.5 31.45 L-5.55 31.5 Q-6.95 31.35 -7.8 30.15 -8.7 28.9 -9.75 28.35 -11.85 26.15 -12.3 23.05 L-13.2 16.7 -13.65 11.4 Q-13.8 7.4 -13.35 3.3 L-12.95 1.55 -12.35 0.65 -12.45 0.55 -14.35 -1.2 Q-16.05 -2.4 -16.7 -4.3 L-16.05 -5.05 Q-14.95 -6.3 -13.4 -6.2 L-12.9 -7.95 Q-15.1 -10.4 -15.05 -13.8 L-15.0 -14.8 Q-14.85 -11.35 -11.7 -10.3 L-10.4 -11.9 -10.4 -11.95 Q-11.05 -16.45 -10.95 -20.7 -10.85 -25.3 -9.25 -29.5 -8.4 -27.4 -8.15 -25.1 L-6.95 -15.45 -6.05 -16.1 Q-4.0 -17.35 -1.6 -16.7 M12.2 -6.4 L10.8 -7.7 9.65 -8.45 M-1.75 22.65 L-0.2 19.4 1.6 15.3 Q2.4 13.2 2.85 11.0 L2.95 10.2 2.55 9.7 M-12.35 0.65 Q-11.7 1.5 -11.15 2.5 -7.85 7.85 -1.65 9.2 0.3 9.65 2.05 8.6 L7.75 4.8 M-11.7 -10.3 Q-12.2 -10.3 -12.55 -9.6 -12.9 -8.9 -12.9 -7.95 M-6.95 -15.45 L-6.85 -11.7 -8.5 -10.45 -10.4 -11.95 M-9.85 7.3 Q-10.6 9.35 -10.95 11.6 -11.2 13.35 -10.95 15.1" fill="none" stroke="#000000" stroke-linecap="round" stroke-linejoin="round" stroke-width="0.05"/>
    <path d="M-3.75 9.7 L-3.65 10.6 -3.7 11.8 -2.7 12.05 Q-2.4 12.05 -2.2 12.3 L-2.0 12.9 Q-0.85 14.15 -0.65 15.85 L-0.5 16.7 Q-0.2 16.85 0.05 16.95 M-4.1 11.75 L-5.35 15.4 -3.55 16.0 -3.7 11.8 -4.1 11.75 -3.65 10.6 M-2.45 16.15 L-3.55 16.0 -3.35 19.85 -2.75 19.6 Q-1.0 18.55 -0.5 16.7 -1.55 16.15 -2.45 16.15 M-4.1 11.75 Q-5.95 11.75 -7.25 12.6 -8.55 13.4 -8.55 14.6 L-5.35 15.4 -6.75 18.6 -6.15 19.05 Q-4.95 20.15 -3.35 19.85 L-3.3 23.85 M-9.3 23.55 L-6.75 18.6 Q-8.25 17.3 -8.55 15.25 L-8.55 14.6 -10.1 14.15 M-2.0 12.9 L-2.7 12.05" fill="none" stroke="#ff0000" stroke-linecap="round" stroke-linejoin="round" stroke-width="0.05"/>
  </g>
  <defs>
    <radialGradient cx="0" cy="0" gradientTransform="matrix(0.0164, 0.0, 0.0, 0.0164, -3.45, -7.95)" gradientUnits="userSpaceOnUse" id="gradient0" r="819.2" spreadMethod="pad">
      <stop offset="0.0" stop-color="#e8f1c0"/>
      <stop offset="1.0" stop-color="#727138"/>
    </radialGradient>
  </defs>
</svg>
