<?xml version="1.0" encoding="UTF-8" standalone="no"?>
<svg xmlns:xlink="http://www.w3.org/1999/xlink" height="39.6px" width="20.75px" xmlns="http://www.w3.org/2000/svg">
  <g transform="matrix(1.0, 0.0, 0.0, 1.0, 0.0, 0.0)">
    <path d="M-1.7 -10.55 Q0.25 -10.6 1.95 -9.7 L4.9 -7.75 6.15 -6.5 6.75 -5.4 Q7.5 -3.6 7.65 -1.65 L7.6 -0.2 Q7.3 2.1 5.65 3.8 4.15 5.45 3.95 7.55 L3.4 9.25 2.6 9.2 Q2.05 10.65 0.95 12.1 L0.0 11.25 -0.75 10.75 -1.25 10.45 -2.4 9.85 Q-3.55 9.25 -4.9 9.05 L-6.35 5.7 -8.1 4.95 -8.6 4.65 Q-9.05 4.1 -9.0 3.6 -8.75 1.85 -9.4 0.25 L-9.9 -1.05 Q-10.4 -2.9 -12.0 -3.8 -13.05 -4.4 -13.1 -5.65 -13.15 -6.4 -12.65 -6.7 L-11.65 -7.05 -8.1 -8.65 -6.4 -9.45 -5.35 -9.9 Q-3.8 -10.85 -1.85 -10.55 L-1.85 -10.5 -1.7 -10.55 M5.2 -5.75 L6.15 -6.5 5.2 -5.75 M1.15 -4.65 L2.4 -5.85 4.9 -7.75 2.4 -5.85 1.15 -4.65 M-4.7 2.1 Q-3.35 3.6 -1.45 4.0 L1.7 4.35 -1.45 4.0 Q-3.35 3.6 -4.7 2.1" fill="#5f5354" fill-rule="evenodd" stroke="none"/>
    <path d="M-8.1 4.95 L-6.35 5.7 -4.9 9.05 Q-3.55 9.25 -2.4 9.85 L-1.25 10.45 -0.75 10.75 0.0 11.25 -0.6 13.35 -1.55 16.95 -2.15 19.4 -2.45 21.4 -2.35 24.3 -1.75 27.1 Q-1.45 28.1 -2.15 29.0 L-2.65 28.95 -5.05 28.05 -6.25 27.6 -7.15 27.45 -7.55 27.45 -7.8 26.7 -7.65 25.05 -7.05 23.25 -6.8 22.25 -6.6 21.2 -6.6 19.25 Q-7.1 12.85 -7.85 6.65 L-8.1 4.95" fill="#552811" fill-rule="evenodd" stroke="none"/>
    <path d="M4.9 -7.75 L1.95 -9.7 Q0.25 -10.6 -1.7 -10.55 L-1.85 -10.55 M-11.65 -7.05 L-12.65 -6.7 Q-13.15 -6.4 -13.1 -5.65 -13.05 -4.4 -12.0 -3.8 -10.4 -2.9 -9.9 -1.05 L-9.4 0.25 Q-8.75 1.85 -9.0 3.6 -9.05 4.1 -8.6 4.65 L-8.1 4.95 M0.0 11.25 L0.95 12.1 Q2.05 10.65 2.6 9.2 L3.4 9.25 3.95 7.55 Q4.15 5.45 5.65 3.8 7.3 2.1 7.6 -0.2 L7.65 -1.65 Q7.5 -3.6 6.75 -5.4 L6.15 -6.5 4.9 -7.75" fill="none" stroke="#000000" stroke-linecap="round" stroke-linejoin="round" stroke-width="0.05"/>
    <path d="M-1.85 -10.5 L-1.85 -10.55 M6.15 -6.5 L5.2 -5.75 M4.9 -7.75 L2.4 -5.85 1.15 -4.65 M1.7 4.35 L-1.45 4.0 Q-3.35 3.6 -4.7 2.1 M-8.1 4.95 L-7.85 6.65 Q-7.1 12.85 -6.6 19.25 L-6.6 21.2 -6.8 22.25 -7.05 23.25 -7.65 25.05 -7.8 26.7 -7.55 27.45 -7.15 27.45 -6.25 27.6 -5.05 28.05 -2.65 28.95 -2.15 29.0 Q-1.45 28.1 -1.75 27.1 L-2.35 24.3 -2.45 21.4 -2.15 19.4 -1.55 16.95 -0.6 13.35 0.0 11.25" fill="none" stroke="#000000" stroke-linecap="round" stroke-linejoin="round" stroke-width="0.05"/>
    <path d="M-8.1 4.95 L-6.35 5.7 -4.9 9.05 Q-3.55 9.25 -2.4 9.85 L-1.25 10.45 -0.75 10.75 0.0 11.25" fill="none" stroke="#006600" stroke-linecap="round" stroke-linejoin="round" stroke-width="1.0"/>
  </g>
</svg>
