<?xml version="1.0" encoding="UTF-8" standalone="no"?>
<svg xmlns:xlink="http://www.w3.org/1999/xlink" height="61.05px" width="33.45px" xmlns="http://www.w3.org/2000/svg">
  <g transform="matrix(1.0, 0.0, 0.0, 1.0, 0.0, 0.0)">
    <path d="M7.75 4.8 Q7.95 9.55 7.05 14.3 6.2 18.65 3.4 22.15 1.8 24.2 1.45 25.75 L0.85 27.75 -0.05 30.2 Q-0.9 31.15 -2.5 31.45 L-5.55 31.5 Q-6.95 31.35 -7.8 30.15 -8.7 28.9 -9.75 28.35 -11.85 26.15 -12.3 23.05 L-13.2 16.7 -13.65 11.4 Q-13.8 7.4 -13.35 3.3 L-12.95 1.55 -12.35 0.65 Q-11.7 1.5 -11.15 2.5 -7.85 7.85 -1.65 9.2 0.3 9.65 2.05 8.6 L7.75 4.8 M2.55 9.7 L2.95 10.2 2.85 11.0 Q2.4 13.2 1.6 15.3 L-0.2 19.4 -1.75 22.65 -0.2 19.4 1.6 15.3 Q2.4 13.2 2.85 11.0 L2.95 10.2 2.55 9.7 M-2.35 15.6 L-6.5 14.95 -6.65 12.95 -6.35 12.65 -5.45 11.9 -4.5 11.85 Q-3.35 11.95 -2.55 12.95 -3.35 11.95 -4.5 11.85 L-5.45 11.9 -6.35 12.65 -6.65 12.95 -6.5 14.95 -2.35 15.6 -2.25 15.75 -2.2 15.7 -2.35 15.6 M-2.55 17.25 Q-3.25 17.35 -3.0 17.9 L-2.85 18.35 -1.95 18.0 Q-1.4 16.75 -2.25 15.75 -1.4 16.75 -1.95 18.0 L-2.85 18.35 -3.0 17.9 Q-3.25 17.35 -2.55 17.25 M-6.2 19.7 L-6.3 17.85 Q-4.3 18.05 -2.9 16.4 L-2.25 15.75 -2.9 16.4 Q-4.3 18.05 -6.3 17.85 L-6.2 19.7 -6.35 19.85 -6.2 20.0 -6.2 19.7 M-8.75 18.05 Q-8.0 18.35 -8.55 18.85 L-8.8 19.0 Q-10.05 18.9 -10.2 17.45 L-9.55 16.4 -9.6 16.35 Q-8.5 14.85 -6.5 14.95 L-6.3 17.85 -9.55 16.4 -6.3 17.85 -6.5 14.95 Q-8.5 14.85 -9.6 16.35 L-9.55 16.4 -10.2 17.45 Q-10.05 18.9 -8.8 19.0 L-8.55 18.85 Q-8.0 18.35 -8.75 18.05 M-9.05 12.95 L-8.3 11.9 -6.9 12.6 -6.65 12.95 -6.9 12.6 -8.3 11.9 -9.05 12.95 M-1.2 24.55 Q-2.5 24.5 -3.15 23.5 L-3.95 22.1 -4.75 20.2 -6.2 20.0 -4.75 20.2 -3.95 22.1 -3.15 23.5 Q-2.5 24.5 -1.2 24.55 M-10.95 15.1 Q-11.2 13.35 -10.95 11.6 -10.6 9.35 -9.85 7.3 -10.6 9.35 -10.95 11.6 -11.2 13.35 -10.95 15.1 M-7.15 8.1 L-6.9 12.6 -7.15 8.1 M-6.9 19.95 L-8.2 20.8 -8.95 21.9 -8.1 25.0 -8.7 25.95 -8.1 25.0 -8.95 21.9 -8.2 20.8 -6.9 19.95 M-5.8 23.2 L-6.2 20.0 -5.8 23.2" fill="#553885" fill-rule="evenodd" stroke="none"/>
    <path d="M2.45 -13.05 L2.55 -13.0 2.5 -13.15 2.45 -13.05 M-1.6 -16.7 L-1.2 -25.6 -0.45 -25.1 2.5 -13.15 3.65 -14.55 Q5.8 -17.35 7.25 -20.75 8.85 -24.45 9.55 -28.3 L9.6 -23.5 9.25 -18.9 Q8.6 -14.25 6.25 -10.25 L2.55 -13.0 2.8 -6.3 Q1.75 -5.6 0.3 -5.5 L-0.75 -6.05 Q-1.25 -6.45 -1.4 -7.05 -2.65 -11.85 -1.6 -16.7 -2.65 -11.85 -1.4 -7.05 -1.25 -6.45 -0.75 -6.05 L0.3 -5.5 Q1.75 -5.6 2.8 -6.3 L2.55 -13.0 6.25 -10.25 9.65 -8.45 Q13.8 -12.45 15.75 -17.8 16.45 -14.05 15.2 -10.55 14.35 -8.25 12.2 -6.4 L13.05 -4.8 13.25 -4.35 13.5 -3.95 16.15 -3.8 16.75 -1.4 7.75 4.8 2.05 8.6 Q0.3 9.65 -1.65 9.2 -7.85 7.85 -11.15 2.5 -11.7 1.5 -12.35 0.65 L-12.45 0.55 -14.35 -1.2 Q-16.05 -2.4 -16.7 -4.3 L-16.05 -5.05 Q-14.95 -6.3 -13.4 -6.2 L-12.9 -7.95 Q-15.1 -10.4 -15.05 -13.8 L-15.0 -14.8 Q-14.85 -11.35 -11.7 -10.3 L-10.4 -11.9 -10.4 -11.95 Q-11.05 -16.45 -10.95 -20.7 -10.85 -25.3 -9.25 -29.5 -8.4 -27.4 -8.15 -25.1 L-6.95 -15.45 -6.05 -16.1 Q-4.0 -17.35 -1.6 -16.7 M9.65 -8.45 L10.8 -7.7 12.2 -6.4 10.8 -7.7 9.65 -8.45 M-11.2 -4.3 L-8.45 0.7 Q-7.35 2.45 -5.8 3.65 L-4.5 4.3 -2.6 4.75 0.85 4.2 Q2.95 3.65 4.9 2.55 8.9 0.15 12.55 -2.95 8.9 0.15 4.9 2.55 2.95 3.65 0.85 4.2 L-2.6 4.75 -4.5 4.3 -5.8 3.65 Q-7.35 2.45 -8.45 0.7 L-11.2 -4.3 M-10.4 -11.95 L-8.5 -10.45 -6.85 -11.7 -6.95 -15.45 -6.85 -11.7 -8.5 -10.45 -10.4 -11.95 M-10.4 -6.75 L-9.5 -8.2 -8.35 -8.1 -5.75 -4.0 Q-4.35 -1.8 -1.95 -0.5 L-0.85 -1.35 Q0.65 -2.3 2.3 -2.15 0.65 -2.3 -0.85 -1.35 L-1.95 -0.5 Q-4.35 -1.8 -5.75 -4.0 L-8.35 -8.1 -9.5 -8.2 -10.4 -6.75 M-12.9 -7.95 Q-12.9 -8.9 -12.55 -9.6 -12.2 -10.3 -11.7 -10.3 -12.2 -10.3 -12.55 -9.6 -12.9 -8.9 -12.9 -7.95" fill="url(#gradient0)" fill-rule="evenodd" stroke="none"/>
    <path d="M2.45 -13.05 L2.55 -13.0 2.5 -13.15 2.45 -13.05 M6.25 -10.25 Q8.6 -14.25 9.25 -18.9 L9.6 -23.5 9.55 -28.3 Q8.85 -24.45 7.25 -20.75 5.8 -17.35 3.65 -14.55 L2.5 -13.15 -0.45 -25.1 -1.2 -25.6 -1.6 -16.7 Q-2.65 -11.85 -1.4 -7.05 -1.25 -6.45 -0.75 -6.05 L0.3 -5.5 Q1.75 -5.6 2.8 -6.3 L2.55 -13.0 6.25 -10.25 9.65 -8.45 Q13.8 -12.45 15.75 -17.8 16.45 -14.05 15.2 -10.55 14.35 -8.25 12.2 -6.4 L13.05 -4.8 13.25 -4.35 13.5 -3.95 16.15 -3.8 16.75 -1.4 7.75 4.8 Q7.95 9.55 7.05 14.3 6.2 18.65 3.4 22.15 1.8 24.2 1.45 25.75 L0.85 27.75 -0.05 30.2 Q-0.9 31.15 -2.5 31.45 L-5.55 31.5 Q-6.95 31.35 -7.8 30.15 -8.7 28.9 -9.75 28.35 -11.85 26.15 -12.3 23.05 L-13.2 16.7 -13.65 11.4 Q-13.8 7.4 -13.35 3.3 L-12.95 1.55 -12.35 0.65 -12.45 0.55 -14.35 -1.2 Q-16.05 -2.4 -16.7 -4.3 L-16.05 -5.05 Q-14.95 -6.3 -13.4 -6.2 L-12.9 -7.95 Q-15.1 -10.4 -15.05 -13.8 L-15.0 -14.8 Q-14.85 -11.35 -11.7 -10.3 L-10.4 -11.9 -10.4 -11.95 Q-11.05 -16.45 -10.95 -20.7 -10.85 -25.3 -9.25 -29.5 -8.4 -27.4 -8.15 -25.1 L-6.95 -15.45 -6.05 -16.1 Q-4.0 -17.35 -1.6 -16.7 M12.2 -6.4 L10.8 -7.7 9.65 -8.45 M-12.35 0.65 Q-11.7 1.5 -11.15 2.5 -7.85 7.85 -1.65 9.2 0.3 9.65 2.05 8.6 L7.75 4.8 M12.55 -2.95 Q8.9 0.15 4.9 2.55 2.95 3.65 0.85 4.2 L-2.6 4.75 -4.5 4.3 -5.8 3.65 Q-7.35 2.45 -8.45 0.7 L-11.2 -4.3 M-1.75 22.65 L-0.2 19.4 1.6 15.3 Q2.4 13.2 2.85 11.0 L2.95 10.2 2.55 9.7 M-11.7 -10.3 Q-12.2 -10.3 -12.55 -9.6 -12.9 -8.9 -12.9 -7.95 M2.3 -2.15 Q0.65 -2.3 -0.85 -1.35 L-1.95 -0.5 Q-4.35 -1.8 -5.75 -4.0 L-8.35 -8.1 -9.5 -8.2 -10.4 -6.75 M-6.95 -15.45 L-6.85 -11.7 -8.5 -10.45 -10.4 -11.95 M-2.55 12.95 Q-3.35 11.95 -4.5 11.85 L-5.45 11.9 -6.35 12.65 -6.65 12.95 -6.5 14.95 -2.35 15.6 -2.2 15.7 -2.25 15.75 Q-1.4 16.75 -1.95 18.0 L-2.85 18.35 -3.0 17.9 Q-3.25 17.35 -2.55 17.25 M-2.35 15.6 L-2.25 15.75 -2.9 16.4 Q-4.3 18.05 -6.3 17.85 L-6.2 19.7 -6.2 20.0 -4.75 20.2 -3.95 22.1 -3.15 23.5 Q-2.5 24.5 -1.2 24.55 M-6.65 12.95 L-6.9 12.6 -8.3 11.9 -9.05 12.95 M-9.55 16.4 L-6.3 17.85 -6.5 14.95 Q-8.5 14.85 -9.6 16.35 L-9.55 16.4 -10.2 17.45 Q-10.05 18.9 -8.8 19.0 L-8.55 18.85 Q-8.0 18.35 -8.75 18.05 M-6.2 19.7 L-6.35 19.85 -6.2 20.0 -5.8 23.2 M-8.7 25.95 L-8.1 25.0 -8.95 21.9 -8.2 20.8 -6.9 19.95 M-6.9 12.6 L-7.15 8.1 M-9.85 7.3 Q-10.6 9.35 -10.95 11.6 -11.2 13.35 -10.95 15.1" fill="none" stroke="#000000" stroke-linecap="round" stroke-linejoin="round" stroke-width="0.05"/>
  </g>
  <defs>
    <radialGradient cx="0" cy="0" gradientTransform="matrix(0.0206, 0.0, 0.0, 0.0206, -5.5, -8.05)" gradientUnits="userSpaceOnUse" id="gradient0" r="819.2" spreadMethod="pad">
      <stop offset="0.0" stop-color="#dddcd7"/>
      <stop offset="0.29411764705882354" stop-color="#9e9c96"/>
      <stop offset="1.0" stop-color="#5d5c4e"/>
    </radialGradient>
  </defs>
</svg>
