<?xml version="1.0" encoding="UTF-8" standalone="no"?>
<svg xmlns:xlink="http://www.w3.org/1999/xlink" height="31.2px" width="14.5px" xmlns="http://www.w3.org/2000/svg">
  <g transform="matrix(1.0, 0.0, 0.0, 1.0, 0.0, 0.0)">
    <path d="M3.3 -14.15 Q4.35 -12.7 5.65 -11.75 6.4 -11.15 6.6 -10.35 7.85 -5.5 6.7 -0.8 4.95 6.4 4.05 13.75 L3.85 14.3 3.2 14.85 -0.1 15.65 -3.55 15.4 -4.25 9.2 -4.55 5.4 Q-4.75 0.25 -5.7 -4.85 L-7.2 -14.2 -7.2 -14.55 -6.45 -15.55 3.3 -14.15 M3.65 -11.05 L4.15 -6.8 Q4.2 -4.65 3.65 -2.55 2.4 1.95 2.3 6.5 2.4 1.95 3.65 -2.55 4.2 -4.65 4.15 -6.8 L3.65 -11.05" fill="#333333" fill-rule="evenodd" stroke="none"/>
    <path d="M3.3 -14.15 Q4.35 -12.7 5.65 -11.75 6.4 -11.15 6.6 -10.35 7.85 -5.5 6.7 -0.8 4.95 6.4 4.05 13.75 L3.85 14.3 3.2 14.85 -0.1 15.65 -3.55 15.4 -4.25 9.2 -4.55 5.4 Q-4.75 0.25 -5.7 -4.85 L-7.2 -14.2 -7.2 -14.55 -6.45 -15.55 M2.3 6.5 Q2.4 1.95 3.65 -2.55 4.2 -4.65 4.15 -6.8 L3.65 -11.05" fill="none" stroke="#000000" stroke-linecap="round" stroke-linejoin="round" stroke-width="0.05"/>
  </g>
</svg>
