<?xml version="1.0" encoding="UTF-8" standalone="no"?>
<svg xmlns:xlink="http://www.w3.org/1999/xlink" height="30.0px" width="9.05px" xmlns="http://www.w3.org/2000/svg">
  <g transform="matrix(1.0, 0.0, 0.0, 1.0, 0.0, 0.0)">
    <path d="M1.65 -10.6 L1.6 -11.55 2.05 -12.0 2.05 -14.9 Q3.4 -14.75 4.45 -14.05 L4.85 -13.55 4.4 -9.9 4.35 -9.85 4.1 -9.55 Q2.9 -9.65 2.05 -8.85 L1.65 -10.6 2.05 -8.85 Q2.9 -9.65 4.1 -9.55 L4.35 -9.85 4.4 -9.8 Q4.7 -7.7 3.95 -5.7 L2.2 -1.15 1.65 0.6 Q1.5 1.2 1.5 1.85 L-1.15 2.8 -1.35 2.75 Q-0.5 -0.65 0.2 -4.15 0.45 -5.3 0.35 -6.4 0.15 -8.6 0.4 -10.35 L1.1 -10.7 0.4 -10.35 Q0.15 -8.6 0.35 -6.4 0.45 -5.3 0.2 -4.15 -0.5 -0.65 -1.35 2.75 L-1.35 2.85 -2.2 3.1 Q-1.4 0.25 -1.6 -2.7 L-1.65 -6.0 Q-1.55 -8.6 -0.85 -11.05 -0.5 -12.15 0.55 -12.6 L0.8 -12.25 1.1 -10.7 1.65 -10.6" fill="#552811" fill-rule="evenodd" stroke="none"/>
    <path d="M-1.15 2.8 L1.5 1.85 3.5 0.7 4.9 2.75 5.05 3.55 4.7 4.5 4.3 6.25 4.1 7.45 Q3.6 10.75 4.15 14.15 L3.9 14.5 Q0.15 15.7 -3.4 14.5 -4.05 13.15 -4.0 11.75 L-3.95 10.3 -4.0 7.7 -3.8 6.8 Q-3.0 5.05 -2.8 3.45 L-2.2 3.1 -1.35 2.85 -1.15 2.8 M3.0 8.5 L3.8 7.6 4.1 7.45 3.8 7.6 3.0 8.5 M1.4 9.05 Q2.2 7.75 3.45 6.8 3.85 6.5 4.3 6.25 3.85 6.5 3.45 6.8 2.2 7.75 1.4 9.05" fill="#5f5354" fill-rule="evenodd" stroke="none"/>
    <path d="M4.35 -9.85 L4.4 -9.9 4.85 -13.55 4.45 -14.05 Q3.4 -14.75 2.05 -14.9 L2.05 -12.0 1.6 -11.55 1.65 -10.6 2.05 -8.85 Q2.9 -9.65 4.1 -9.55 L4.35 -9.85" fill="none" stroke="#000000" stroke-linecap="round" stroke-linejoin="round" stroke-width="0.05"/>
    <path d="M4.4 -9.8 L4.4 -9.9 M1.65 -10.6 L1.1 -10.7 0.4 -10.35 Q0.15 -8.6 0.35 -6.4 0.45 -5.3 0.2 -4.15 -0.5 -0.65 -1.35 2.75 L-1.35 2.85 -1.15 2.8 M1.5 1.85 Q1.5 1.2 1.65 0.6 L2.2 -1.15 3.95 -5.7 Q4.7 -7.7 4.4 -9.8 M1.1 -10.7 L0.8 -12.25 0.55 -12.6 Q-0.5 -12.15 -0.85 -11.05 -1.55 -8.6 -1.65 -6.0 L-1.6 -2.7 Q-1.4 0.25 -2.2 3.1 L-2.8 3.45 Q-3.0 5.05 -3.8 6.8 L-4.0 7.7 -3.95 10.3 -4.0 11.75 Q-4.05 13.15 -3.4 14.5 0.15 15.7 3.9 14.5 L4.15 14.15 Q3.6 10.75 4.1 7.45 L3.8 7.6 3.0 8.5 M3.5 0.7 L4.9 2.75 5.05 3.55 4.7 4.5 4.3 6.25 4.1 7.45 M4.3 6.25 Q3.85 6.5 3.45 6.8 2.2 7.75 1.4 9.05" fill="none" stroke="#000000" stroke-linecap="round" stroke-linejoin="round" stroke-width="0.05"/>
    <path d="M-1.15 2.8 L1.5 1.85 3.5 0.7 M-2.2 3.1 L-1.35 2.85" fill="none" stroke="#006600" stroke-linecap="round" stroke-linejoin="round" stroke-width="1.0"/>
  </g>
</svg>
