<?xml version="1.0" encoding="UTF-8" standalone="no"?>
<svg xmlns:xlink="http://www.w3.org/1999/xlink" height="26.65px" width="44.15px" xmlns="http://www.w3.org/2000/svg">
  <g transform="matrix(1.0, 0.0, 0.0, 1.0, 0.0, 0.0)">
    <path d="M-1.25 -6.85 L-1.85 -8.75 -0.55 -9.8 1.7 -8.25 2.5 -8.95 2.45 -9.95 Q3.1 -10.75 4.0 -10.55 4.8 -9.0 6.25 -8.95 7.25 -9.85 6.8 -11.15 L7.3 -11.55 10.15 -10.7 10.85 -11.7 10.15 -10.7 7.3 -11.55 6.8 -11.15 Q7.25 -9.85 6.25 -8.95 4.8 -9.0 4.0 -10.55 3.1 -10.75 2.45 -9.95 L2.5 -8.95 1.7 -8.25 -0.55 -9.8 -1.85 -8.75 -1.25 -6.85 M9.95 -9.3 L1.5 -7.0 0.85 -6.75 -0.1 -6.4 -2.9 -6.1 -2.95 -6.2 -4.25 -9.55 2.45 -11.35 Q7.8 -12.7 13.3 -13.3 L14.35 -10.6 9.95 -9.3" fill="url(#gradient0)" fill-rule="evenodd" stroke="none"/>
    <path d="M0.85 -6.75 L1.5 -7.0 9.95 -9.3 Q11.25 -9.1 11.95 -8.0 L12.55 -7.0 13.05 -6.1 14.1 -6.0 Q15.35 -6.15 15.9 -5.15 L16.95 -3.3 Q14.4 -3.55 15.9 0.25 14.9 -2.05 12.45 -2.05 L12.0 -1.95 9.5 2.85 5.45 5.65 4.9 6.15 Q4.5 6.95 3.6 7.15 1.1 7.15 -0.05 9.6 L-1.7 10.2 -3.55 8.65 -3.35 7.15 -5.25 5.65 -3.7 5.15 -2.8 2.9 -3.3 3.0 Q-4.65 4.05 -6.35 3.65 L-7.45 3.45 -9.15 3.95 Q-10.35 2.8 -9.7 1.35 L-9.35 0.7 -11.05 0.4 -11.8 -0.15 -9.7 -0.95 -9.35 -2.8 -5.85 -3.35 Q-4.7 -5.0 -2.9 -5.35 -0.5 -5.25 0.85 -6.75 M3.85 -1.4 Q2.3 -1.25 0.85 -0.3 L0.1 0.6 Q-0.2 1.35 -0.85 1.7 -2.1 2.05 -2.8 2.9 -2.1 2.05 -0.85 1.7 -0.2 1.35 0.1 0.6 L0.85 -0.3 Q2.3 -1.25 3.85 -1.4 M1.5 -7.0 L1.15 -5.55 Q-0.7 -4.95 -1.7 -3.3 -2.1 -2.65 -2.85 -2.2 -4.05 -1.45 -5.6 -1.6 L-9.7 -0.95 -5.6 -1.6 Q-4.05 -1.45 -2.85 -2.2 -2.1 -2.65 -1.7 -3.3 -0.7 -4.95 1.15 -5.55 L1.5 -7.0" fill="#553885" fill-rule="evenodd" stroke="none"/>
    <path d="M-9.35 -2.8 L-9.7 -0.95 -11.8 -0.15 -11.05 0.4 -9.35 0.7 -9.7 1.35 Q-10.35 2.8 -9.15 3.95 L-9.65 4.05 -10.1 4.65 -22.05 5.25 -21.0 3.4 Q-19.5 0.75 -16.4 0.6 L-16.4 0.65 -16.15 0.6 -15.0 -0.9 Q-13.9 -2.45 -12.05 -2.8 L-9.35 -2.8 M16.95 -3.3 L18.0 -1.5 19.75 -1.25 Q21.35 -1.0 21.8 0.45 L22.1 2.3 21.9 6.1 21.15 4.0 Q19.75 3.45 18.05 3.55 L16.0 0.55 15.9 0.25 Q14.4 -3.55 16.95 -3.3 M-1.7 10.2 L-2.0 10.25 Q-8.15 10.75 -13.9 12.2 -14.65 12.35 -15.3 12.8 L-15.85 13.35 Q-15.8 11.1 -13.85 9.7 -12.3 8.65 -10.65 7.85 -8.05 6.6 -5.25 5.65 L-3.35 7.15 -3.55 8.65 -1.7 10.2 M-11.8 -0.15 L-13.9 0.25 -16.15 0.6 -13.9 0.25 -11.8 -0.15" fill="#666666" fill-rule="evenodd" stroke="none"/>
    <path d="M10.85 -11.7 L10.15 -10.7 7.3 -11.55 6.8 -11.15 Q7.25 -9.85 6.25 -8.95 4.8 -9.0 4.0 -10.55 3.1 -10.75 2.45 -9.95 L2.5 -8.95 1.7 -8.25 -0.55 -9.8 -1.85 -8.75 -1.25 -6.85 M0.85 -6.75 L1.5 -7.0 9.95 -9.3 14.35 -10.6 13.3 -13.3 Q7.8 -12.7 2.45 -11.35 L-4.25 -9.55 -2.95 -6.2 -2.9 -6.1 -0.1 -6.4 0.85 -6.75 Q-0.5 -5.25 -2.9 -5.35 -4.7 -5.0 -5.85 -3.35 L-9.35 -2.8 -9.7 -0.95 -5.6 -1.6 Q-4.05 -1.45 -2.85 -2.2 -2.1 -2.65 -1.7 -3.3 -0.7 -4.95 1.15 -5.55 L1.5 -7.0 M-2.8 2.9 Q-2.1 2.05 -0.85 1.7 -0.2 1.35 0.1 0.6 L0.85 -0.3 Q2.3 -1.25 3.85 -1.4 M9.95 -9.3 Q11.25 -9.1 11.95 -8.0 L12.55 -7.0 13.05 -6.1 14.1 -6.0 Q15.35 -6.15 15.9 -5.15 L16.95 -3.3 18.0 -1.5 19.75 -1.25 Q21.35 -1.0 21.8 0.45 L22.1 2.3 21.9 6.1 21.15 4.0 Q19.75 3.45 18.05 3.55 L16.0 0.55 15.9 0.25 Q14.9 -2.05 12.45 -2.05 L12.0 -1.95 9.5 2.85 5.45 5.65 4.9 6.15 Q4.5 6.95 3.6 7.15 1.1 7.15 -0.05 9.6 L-1.7 10.2 -2.0 10.25 Q-8.15 10.75 -13.9 12.2 -14.65 12.35 -15.3 12.8 L-15.85 13.35 Q-15.8 11.1 -13.85 9.7 -12.3 8.65 -10.65 7.85 -8.05 6.6 -5.25 5.65 L-3.7 5.15 -2.8 2.9 -3.3 3.0 Q-4.65 4.05 -6.35 3.65 L-7.45 3.45 -9.15 3.95 -9.65 4.05 -10.1 4.65 -22.05 5.25 -21.0 3.4 Q-19.5 0.75 -16.4 0.6 L-16.15 0.6 -15.0 -0.9 Q-13.9 -2.45 -12.05 -2.8 L-9.35 -2.8 M15.9 0.25 Q14.4 -3.55 16.95 -3.3 M-9.7 -0.95 L-11.8 -0.15 -11.05 0.4 -9.35 0.7 -9.7 1.35 Q-10.35 2.8 -9.15 3.95 M-1.7 10.2 L-3.55 8.65 -3.35 7.15 -5.25 5.65 M-16.15 0.6 L-16.4 0.65 -16.4 0.6 M-16.15 0.6 L-13.9 0.25 -11.8 -0.15" fill="none" stroke="#000000" stroke-linecap="round" stroke-linejoin="round" stroke-width="0.05"/>
  </g>
  <defs>
    <linearGradient gradientTransform="matrix(0.0109, -0.0033, 0.0013, 0.0042, 5.05, -9.7)" gradientUnits="userSpaceOnUse" id="gradient0" spreadMethod="pad" x1="-819.2" x2="819.2">
      <stop offset="0.0" stop-color="#5d5c4e"/>
      <stop offset="0.5137254901960784" stop-color="#dddcd7"/>
      <stop offset="1.0" stop-color="#5d5c4e"/>
    </linearGradient>
  </defs>
</svg>
