<?xml version="1.0" encoding="UTF-8" standalone="no"?>
<svg xmlns:xlink="http://www.w3.org/1999/xlink" height="45.85px" width="16.85px" xmlns="http://www.w3.org/2000/svg">
  <g transform="matrix(1.0, 0.0, 0.0, 1.0, 0.0, 0.0)">
    <path d="M-2.85 18.45 L-2.05 17.65 -1.9 17.5 -1.3 16.65 -0.45 15.4 Q0.35 14.2 0.75 12.8 L2.25 7.7 2.6 6.35 2.8 5.2 3.05 1.0 Q2.95 -2.4 2.55 -4.35 L1.45 -7.9 -0.25 -11.65 -1.0 -13.2 -1.6 -14.2 Q-2.0 -14.85 -2.55 -15.3 L-3.15 -15.7 -1.3 -15.65 -1.25 -18.25 Q-1.1 -22.7 0.2 -26.85 L1.3 -15.35 3.25 -15.0 5.2 -12.0 11.9 -18.45 7.5 -10.45 6.6 -8.8 8.15 -3.6 8.75 0.3 10.65 0.65 11.0 0.75 11.15 0.95 11.6 2.6 11.55 3.0 11.15 3.65 10.75 3.75 10.35 3.9 9.0 4.2 Q8.95 7.2 8.5 9.2 L7.75 12.65 13.35 18.4 6.95 14.75 4.2 18.45 1.5 19.0 -2.85 18.45 M6.6 -8.8 L5.2 -6.5 Q2.85 -7.7 2.6 -9.75 L5.2 -12.0 2.6 -9.75 Q2.85 -7.7 5.2 -6.5 L6.6 -8.8 M7.5 -10.45 L7.3 -10.8 6.8 -11.3 7.3 -10.8 7.5 -10.45 M-1.3 -15.65 L1.3 -15.35 -1.3 -15.65 M10.3 3.4 L10.75 3.75 10.3 3.4 10.35 3.9 10.3 3.4 10.25 1.1 Q10.3 0.6 10.65 0.65 10.3 0.6 10.25 1.1 L10.3 3.4 M9.0 4.2 L8.05 4.9 7.4 5.15 Q5.35 2.1 6.35 -0.35 L8.75 0.3 6.35 -0.35 Q5.35 2.1 7.4 5.15 L8.05 4.9 9.0 4.2 M4.6 8.2 L2.6 6.35 4.6 8.2 M3.65 6.15 L2.8 5.2 3.65 6.15 M6.95 14.75 L3.85 12.85 3.75 12.15 Q3.6 10.7 5.1 9.8 L5.55 9.75 7.75 12.65 5.55 9.75 5.1 9.8 Q3.6 10.7 3.75 12.15 L3.85 12.85 6.95 14.75" fill="url(#gradient0)" fill-rule="evenodd" stroke="none"/>
    <path d="M-2.85 18.45 L-2.05 17.65 -1.9 17.5 -1.3 16.65 -0.45 15.4 Q0.35 14.2 0.75 12.8 L2.25 7.7 2.6 6.35 2.8 5.2 3.05 1.0 Q2.95 -2.4 2.55 -4.35 L1.45 -7.9 -0.25 -11.65 -1.0 -13.2 -1.6 -14.2 Q-2.0 -14.85 -2.55 -15.3 L-3.15 -15.7 -1.3 -15.65 -1.25 -18.25 Q-1.1 -22.7 0.2 -26.85 L1.3 -15.35 3.25 -15.0 5.2 -12.0 11.9 -18.45 7.5 -10.45 6.6 -8.8 8.15 -3.6 8.75 0.3 10.65 0.65 M10.75 3.75 L10.35 3.9 9.0 4.2 Q8.95 7.2 8.5 9.2 L7.75 12.65 13.35 18.4 6.95 14.75 4.2 18.45 1.5 19.0 -2.85 18.45 -3.5 18.35 M5.2 -12.0 L2.6 -9.75 Q2.85 -7.7 5.2 -6.5 L6.6 -8.8 M1.3 -15.35 L-1.3 -15.65 M11.15 3.65 L10.75 3.75 M8.75 0.3 L6.35 -0.35 Q5.35 2.1 7.4 5.15 L8.05 4.9 9.0 4.2 M7.75 12.65 L5.55 9.75 5.1 9.8 Q3.6 10.7 3.75 12.15 L3.85 12.85 6.95 14.75" fill="none" stroke="#000000" stroke-linecap="round" stroke-linejoin="round" stroke-width="0.05"/>
    <path d="M10.65 0.65 L11.0 0.75 11.15 0.95 11.6 2.6 11.55 3.0 11.15 3.65 11.1 3.65 10.75 3.75 10.3 3.4 10.25 1.1 Q10.3 0.6 10.65 0.65 M6.8 -11.3 L7.3 -10.8 7.5 -10.45 M10.35 3.9 L10.3 3.4 M2.8 5.2 L3.65 6.15 M2.6 6.35 L4.6 8.2" fill="none" stroke="#000000" stroke-linecap="round" stroke-linejoin="round" stroke-width="0.05"/>
  </g>
  <defs>
    <linearGradient gradientTransform="matrix(8.0E-4, -0.0202, 0.0043, 2.0E-4, 5.05, 1.35)" gradientUnits="userSpaceOnUse" id="gradient0" spreadMethod="pad" x1="-819.2" x2="819.2">
      <stop offset="0.0" stop-color="#564036"/>
      <stop offset="0.5137254901960784" stop-color="#aa9960"/>
      <stop offset="1.0" stop-color="#564036"/>
    </linearGradient>
  </defs>
</svg>
