<?xml version="1.0" encoding="UTF-8" standalone="no"?>
<svg xmlns:xlink="http://www.w3.org/1999/xlink" height="45.85px" width="19.1px" xmlns="http://www.w3.org/2000/svg">
  <g transform="matrix(1.0, 0.0, 0.0, 1.0, 0.0, 0.0)">
    <path d="M5.2 -12.0 L11.9 -18.45 6.6 -8.8 Q8.15 -5.25 8.85 -1.65 9.0 -0.65 9.3 0.3 L15.95 2.1 9.75 4.1 Q10.0 6.85 8.9 9.65 L7.75 12.65 13.35 18.4 6.95 14.75 4.2 18.45 1.5 19.0 -2.85 18.45 -2.05 17.65 -1.9 17.5 -1.3 16.65 -0.45 15.4 Q0.35 14.2 0.75 12.8 L2.25 7.7 Q3.15 4.4 3.05 1.0 2.95 -2.4 2.55 -4.35 L1.45 -7.9 -0.25 -11.65 -1.0 -13.2 -1.6 -14.2 Q-2.0 -14.85 -2.55 -15.3 L-3.15 -15.7 -1.3 -15.65 -1.25 -18.25 Q-1.1 -22.7 0.2 -26.85 L1.3 -15.35 3.25 -15.0 5.2 -12.0" fill="url(#gradient0)" fill-rule="evenodd" stroke="none"/>
  </g>
  <defs>
    <linearGradient gradientTransform="matrix(8.0E-4, -0.0202, 0.0043, 2.0E-4, 5.05, 1.35)" gradientUnits="userSpaceOnUse" id="gradient0" spreadMethod="pad" x1="-819.2" x2="819.2">
      <stop offset="0.0" stop-color="#5d5c4e"/>
      <stop offset="0.5137254901960784" stop-color="#dddcd7"/>
      <stop offset="1.0" stop-color="#5d5c4e"/>
    </linearGradient>
  </defs>
</svg>
