<?xml version="1.0" encoding="UTF-8" standalone="no"?>
<svg xmlns:xlink="http://www.w3.org/1999/xlink" height="33.3px" width="53.65px" xmlns="http://www.w3.org/2000/svg">
  <g transform="matrix(1.0, 0.0, 0.0, 1.0, 0.0, 0.0)">
    <path d="M5.9 -11.15 L8.15 -9.4 8.2 -9.15 Q8.45 -7.2 10.05 -5.95 L10.1 -5.9 12.2 -3.85 12.3 -3.75 13.25 -2.25 16.45 1.65 18.2 3.4 21.7 6.9 24.45 10.15 Q24.7 13.25 23.7 16.1 L23.3 15.85 22.85 15.55 21.85 14.7 20.65 13.6 Q20.1 13.2 19.4 12.95 L19.15 12.75 Q19.1 12.5 18.65 12.55 L18.35 12.5 Q17.85 11.95 17.15 12.0 16.05 12.1 15.5 11.45 L15.2 11.1 14.0 9.55 13.65 9.1 13.5 8.95 11.7 7.45 11.0 7.2 Q9.95 6.8 9.05 5.85 L8.7 5.4 7.9 4.05 7.45 3.35 7.35 3.2 7.15 3.1 6.45 3.0 Q5.5 2.8 4.7 2.25 L3.8 1.65 2.5 0.7 1.25 -0.35 0.95 -0.5 -0.75 -0.1 -0.95 -0.05 -1.5 0.1 -1.9 -0.05 -3.65 -0.1 -3.9 -0.05 -4.5 -0.45 Q-5.4 -1.15 -6.25 -0.8 L-6.5 -0.85 -7.3 -1.2 -8.1 -1.1 -8.85 -0.85 -10.55 -0.8 -11.3 -0.9 -11.65 -0.9 -12.7 -1.1 -13.0 -1.2 -13.6 -1.35 -13.95 -1.4 -14.5 -1.4 -16.5 -1.7 -16.6 -1.75 -16.95 -1.85 -17.3 -2.0 -17.6 -2.1 -18.8 -2.05 -20.35 -1.3 -20.55 -1.2 -20.75 -1.2 -21.5 -1.25 -21.65 -1.3 Q-22.8 -1.5 -23.75 -0.95 L-23.7 -3.2 -23.3 -6.95 Q-23.05 -8.35 -22.05 -9.05 L-14.65 -8.4 -13.2 -9.1 -7.65 -11.15 -4.05 -11.7 Q-2.65 -11.85 -1.35 -12.45 L-1.25 -12.5 Q0.6 -13.35 2.7 -12.9 4.7 -12.85 5.9 -11.15 M-20.85 1.55 L-20.95 1.7 -21.0 1.5 -20.85 1.55 M8.75 -5.55 L8.3 -5.25 7.55 -4.6 Q6.6 -4.0 5.55 -3.55 L5.75 -3.75 7.0 -4.7 7.6 -5.2 8.85 -6.65 7.6 -5.2 7.0 -4.7 5.75 -3.75 5.55 -3.55 Q6.6 -4.0 7.55 -4.6 L8.3 -5.25 8.75 -5.55 M13.5 5.95 L13.5 5.2 Q12.5 0.35 9.15 -3.2 12.5 0.35 13.5 5.2 L13.5 5.95 M9.7 1.35 L9.0 2.95 7.45 3.35 9.0 2.95 9.7 1.35 M17.0 8.9 L19.95 10.0 17.0 8.9 M-3.1 -11.45 L-4.2 -10.0 Q-5.1 -8.9 -6.1 -7.95 L-7.3 -6.9 -6.1 -7.95 Q-5.1 -8.9 -4.2 -10.0 L-3.1 -11.45 M-4.6 -8.65 L-2.65 -10.6 Q-1.85 -11.4 -1.25 -12.5 -1.85 -11.4 -2.65 -10.6 L-4.6 -8.65 M-13.2 -3.2 L-10.95 -3.65 Q-6.4 -4.8 -1.9 -3.5 -6.4 -4.8 -10.95 -3.65 L-13.2 -3.2" fill="#5f5354" fill-rule="evenodd" stroke="none"/>
    <path d="M15.2 11.1 Q14.75 15.4 11.7 17.5 12.7 14.35 13.2 11.1 L13.5 8.95 13.65 9.1 14.0 9.55 15.2 11.1 M11.0 7.2 L10.35 11.3 10.1 12.0 9.7 12.85 Q8.05 16.35 4.9 18.45 6.8 15.75 7.55 12.45 L7.75 10.75 8.05 6.95 7.9 4.05 8.7 5.4 9.05 5.85 Q9.95 6.8 11.0 7.2 M6.45 3.0 L6.55 5.65 6.45 6.6 Q6.05 10.1 4.45 13.3 L3.45 15.1 Q2.0 17.6 -0.35 19.25 -0.95 19.7 -0.95 19.4 L-0.05 18.2 Q1.95 14.85 3.1 11.05 L3.6 9.4 Q4.7 5.5 3.8 1.65 L4.7 2.25 Q5.5 2.8 6.45 3.0 M2.5 0.7 L2.45 3.85 Q2.35 6.25 0.55 11.15 -1.25 16.05 -4.9 18.15 L-5.65 18.1 -5.4 17.85 -4.55 16.75 -4.0 16.15 Q-3.55 15.65 -3.35 15.0 L-3.15 14.45 -2.3 12.2 -2.05 11.7 -1.95 11.4 -1.75 10.55 -1.05 7.9 Q-0.05 4.25 -0.6 0.55 L-0.75 -0.1 0.95 -0.5 1.25 -0.35 2.5 0.7 M-4.0 4.85 L-5.3 5.65 -5.1 5.1 -4.6 4.0 Q-3.7 2.3 -3.9 -0.05 L-3.65 -0.1 -1.9 -0.05 -1.5 0.1 -1.6 1.3 Q-2.1 2.95 -3.2 4.15 L-4.0 4.85 M-11.65 -0.9 L-12.05 -0.2 -12.25 0.95 Q-12.25 1.7 -12.65 1.9 -12.9 0.7 -12.7 -1.1 L-11.65 -0.9 M-16.5 -1.7 Q-15.95 0.35 -17.35 1.7 L-17.35 1.3 -17.6 -2.1 -17.3 -2.0 -16.95 -1.85 -16.6 -1.75 -16.5 -1.7 M-20.55 -1.2 L-20.55 -0.95 -20.6 0.35 Q-20.55 1.05 -20.85 1.55 L-21.0 1.5 -21.1 1.15 Q-21.2 0.75 -21.45 0.45 -22.15 -0.5 -21.65 -1.3 L-21.5 -1.25 -20.75 -1.2 -20.55 -1.2" fill="#552811" fill-rule="evenodd" stroke="none"/>
    <path d="M-3.15 14.45 Q-4.15 11.0 -4.35 8.3 -4.5 6.55 -4.0 4.85 L-3.2 4.15 Q-3.35 7.55 -1.95 11.4 L-2.05 11.7 -2.3 12.2 -3.15 14.45 M-7.3 -1.2 L-7.9 0.45 -8.1 1.7 Q-8.2 5.65 -7.9 9.6 L-7.35 13.35 Q-8.75 12.1 -8.85 10.15 -8.95 8.6 -9.35 7.1 L-9.6 5.85 -9.7 2.65 -9.7 1.9 Q-9.65 0.3 -8.85 -0.85 L-8.1 -1.1 -7.3 -1.2" fill="#37160b" fill-rule="evenodd" stroke="none"/>
    <path d="M10.45 -12.95 Q15.0 -14.0 19.7 -13.75 L16.7 -12.3 Q12.3 -10.25 10.05 -5.95 8.45 -7.2 8.2 -9.15 L8.15 -9.4 5.9 -11.15 Q8.1 -12.25 10.45 -12.95 M12.3 -3.75 L14.95 -5.1 Q15.45 -2.55 16.65 -0.05 L17.1 0.8 16.45 1.65 13.25 -2.25 12.3 -3.75 M18.2 3.4 Q18.75 3.05 19.4 3.0 L24.45 1.65 Q27.05 1.25 29.4 0.3 L22.85 5.65 21.7 6.9 18.2 3.4" fill="url(#gradient0)" fill-rule="evenodd" stroke="none"/>
    <path d="M5.9 -11.15 L8.15 -9.4 8.2 -9.15 Q8.45 -7.2 10.05 -5.95 M10.1 -5.9 L12.2 -3.85 M16.45 1.65 L18.2 3.4 21.7 6.9 24.45 10.15 M-23.75 -0.95 L-23.7 -3.2 -23.3 -6.95 Q-23.05 -8.35 -22.05 -9.05 L-14.65 -8.4 -13.2 -9.1 -7.65 -11.15 -4.05 -11.7 Q-2.65 -11.85 -1.35 -12.45 L-1.25 -12.5 Q0.6 -13.35 2.7 -12.9 4.7 -12.85 5.9 -11.15 M12.3 -3.75 L13.25 -2.25 16.45 1.65" fill="none" stroke="#000000" stroke-linecap="round" stroke-linejoin="round" stroke-width="0.05"/>
    <path d="M10.45 -12.95 Q8.1 -12.25 5.9 -11.15 M10.05 -5.95 L10.1 -5.9 M12.2 -3.85 L12.3 -3.75 M15.2 11.1 Q14.75 15.4 11.7 17.5 12.7 14.35 13.2 11.1 L13.5 8.95 M11.0 7.2 L10.35 11.3 10.1 12.0 9.7 12.85 Q8.05 16.35 4.9 18.45 6.8 15.75 7.55 12.45 L7.75 10.75 8.05 6.95 7.9 4.05 M7.45 3.35 L7.35 3.2 7.15 3.1 6.45 3.0 6.55 5.65 6.45 6.6 Q6.05 10.1 4.45 13.3 L3.45 15.1 Q2.0 17.6 -0.35 19.25 -0.95 19.7 -0.95 19.4 L-0.05 18.2 Q1.95 14.85 3.1 11.05 L3.6 9.4 Q4.7 5.5 3.8 1.65 M2.5 0.7 L2.45 3.85 Q2.35 6.25 0.55 11.15 -1.25 16.05 -4.9 18.15 L-5.65 18.1 -5.4 17.85 -4.55 16.75 -4.0 16.15 Q-3.55 15.65 -3.35 15.0 L-3.15 14.45 Q-4.15 11.0 -4.35 8.3 -4.5 6.55 -4.0 4.85 L-5.3 5.65 -5.1 5.1 -4.6 4.0 Q-3.7 2.3 -3.9 -0.05 M-7.3 -1.2 L-7.9 0.45 -8.1 1.7 Q-8.2 5.65 -7.9 9.6 L-7.35 13.35 Q-8.75 12.1 -8.85 10.15 -8.95 8.6 -9.35 7.1 L-9.6 5.85 -9.7 2.65 -9.7 1.9 Q-9.65 0.3 -8.85 -0.85 M-11.65 -0.9 L-12.05 -0.2 -12.25 0.95 Q-12.25 1.7 -12.65 1.9 -12.9 0.7 -12.7 -1.1 M-16.5 -1.7 Q-15.95 0.35 -17.35 1.7 L-17.35 1.3 -17.6 -2.1 M-20.55 -1.2 L-20.55 -0.95 -20.6 0.35 Q-20.55 1.05 -20.85 1.55 L-20.95 1.7 -21.0 1.5 -21.1 1.15 Q-21.2 0.75 -21.45 0.45 -22.15 -0.5 -21.65 -1.3 M8.85 -6.65 L7.6 -5.2 7.0 -4.7 5.75 -3.75 5.55 -3.55 Q6.6 -4.0 7.55 -4.6 L8.3 -5.25 8.75 -5.55 M9.15 -3.2 Q12.5 0.35 13.5 5.2 L13.5 5.95 M19.95 10.0 L17.0 8.9 M7.45 3.35 L9.0 2.95 9.7 1.35 M-1.9 -3.5 Q-6.4 -4.8 -10.95 -3.65 L-13.2 -3.2 M-1.25 -12.5 Q-1.85 -11.4 -2.65 -10.6 L-4.6 -8.65 M-7.3 -6.9 L-6.1 -7.95 Q-5.1 -8.9 -4.2 -10.0 L-3.1 -11.45 M-0.75 -0.1 L-0.95 -0.05 -1.5 0.1 -1.6 1.3 Q-2.1 2.95 -3.2 4.15 -3.35 7.55 -1.95 11.4 L-1.75 10.55 -1.05 7.9 Q-0.05 4.25 -0.6 0.55 L-0.75 -0.1 M-3.2 4.15 L-4.0 4.85 M-3.15 14.45 L-2.3 12.2 -2.05 11.7 -1.95 11.4" fill="none" stroke="#000000" stroke-linecap="round" stroke-linejoin="round" stroke-width="0.05"/>
    <path d="M23.7 16.1 L23.3 15.85 22.85 15.55 21.85 14.7 20.65 13.6 Q20.1 13.2 19.4 12.95 L19.15 12.75 Q19.1 12.5 18.65 12.55 L18.35 12.5 Q17.85 11.95 17.15 12.0 16.05 12.1 15.5 11.45 L15.2 11.1 14.0 9.55 13.65 9.1 13.5 8.95 11.7 7.45 11.0 7.2 Q9.95 6.8 9.05 5.85 L8.7 5.4 7.9 4.05 7.45 3.35 M3.8 1.65 L2.5 0.7 1.25 -0.35 0.95 -0.5 -0.75 -0.1 M-3.9 -0.05 L-4.5 -0.45 Q-5.4 -1.15 -6.25 -0.8 L-6.5 -0.85 -7.3 -1.2 -8.1 -1.1 -8.85 -0.85 -10.55 -0.8 -11.3 -0.9 -11.65 -0.9 -12.7 -1.1 -13.0 -1.2 -13.6 -1.35 -13.95 -1.4 -14.5 -1.4 -16.5 -1.7 -16.6 -1.75 -16.95 -1.85 -17.3 -2.0 -17.6 -2.1 -18.8 -2.05 -20.35 -1.3 -20.55 -1.2 -20.75 -1.2 -21.5 -1.25 -21.65 -1.3 Q-22.8 -1.5 -23.75 -0.95 M3.8 1.65 L4.7 2.25 Q5.5 2.8 6.45 3.0 M-1.5 0.1 L-1.9 -0.05 -3.65 -0.1 -3.9 -0.05" fill="none" stroke="#006600" stroke-linecap="round" stroke-linejoin="round" stroke-width="1.0"/>
    <path d="M10.05 -5.95 Q12.3 -10.25 16.7 -12.3 L19.7 -13.75 Q15.0 -14.0 10.45 -12.95 M12.3 -3.75 L14.95 -5.1 M17.1 0.8 L16.45 1.65 M18.2 3.4 Q18.75 3.05 19.4 3.0 L24.45 1.65 Q27.05 1.25 29.4 0.3 L22.85 5.65 21.7 6.9" fill="none" stroke="#003c00" stroke-linecap="round" stroke-linejoin="round" stroke-width="0.05"/>
    <path d="M14.95 -5.1 Q15.45 -2.55 16.65 -0.05 L17.1 0.8" fill="none" stroke="#003c00" stroke-linecap="round" stroke-linejoin="round" stroke-width="0.05"/>
  </g>
  <defs>
    <linearGradient gradientTransform="matrix(0.0066, -0.0056, 0.0078, 0.0092, 17.55, -6.9)" gradientUnits="userSpaceOnUse" id="gradient0" spreadMethod="pad" x1="-819.2" x2="819.2">
      <stop offset="0.0" stop-color="#26561d" stop-opacity="0.67058825"/>
      <stop offset="1.0" stop-color="#399f39" stop-opacity="0.2"/>
    </linearGradient>
  </defs>
</svg>
