<?xml version="1.0" encoding="UTF-8" standalone="no"?>
<svg xmlns:xlink="http://www.w3.org/1999/xlink" height="37.75px" width="53.15px" xmlns="http://www.w3.org/2000/svg">
  <g transform="matrix(1.0, 0.0, 0.0, 1.0, 0.0, 0.0)">
    <path d="M10.45 -12.95 Q15.0 -14.0 19.7 -13.75 L16.7 -12.3 Q12.3 -10.25 10.05 -5.95 8.45 -7.2 8.2 -9.15 L8.15 -9.4 5.9 -11.15 Q8.1 -12.25 10.45 -12.95 M12.3 -3.75 Q14.65 -5.3 17.55 -5.9 22.3 -6.8 26.7 -8.9 L21.9 -4.1 20.3 -2.65 18.4 -0.75 16.45 1.65 13.25 -2.25 12.3 -3.75 M18.2 3.4 Q18.75 3.05 19.4 3.0 L24.45 1.65 Q27.05 1.25 29.4 0.3 L22.85 5.65 21.7 6.9 18.2 3.4" fill="url(#gradient0)" fill-rule="evenodd" stroke="none"/>
    <path d="M5.9 -11.15 L8.15 -9.4 8.2 -9.15 Q8.45 -7.2 10.05 -5.95 L12.3 -3.75 13.25 -2.25 16.45 1.65 18.2 3.4 21.7 6.9 24.45 10.15 Q24.8 14.65 22.55 18.55 L22.45 18.7 22.0 19.05 20.0 19.5 19.25 19.35 17.2 19.25 17.1 19.3 Q15.95 19.55 14.9 19.95 L11.5 21.4 7.8 22.9 4.8 23.35 -1.35 23.95 -2.45 23.5 Q-4.8 22.35 -6.75 20.25 L-7.95 19.25 -9.1 18.1 Q-10.35 16.25 -11.15 14.2 L-11.45 12.7 Q-11.6 11.5 -12.05 10.5 L-13.1 8.15 Q-13.9 6.55 -15.4 5.45 L-18.65 3.55 Q-21.4 2.05 -23.75 0.0 L-23.7 -3.2 -23.3 -6.95 Q-23.05 -8.35 -22.05 -9.05 L-14.65 -8.4 -13.2 -9.1 -7.65 -11.15 -4.05 -11.7 Q-2.65 -11.85 -1.35 -12.45 0.55 -13.35 2.7 -12.9 4.7 -12.85 5.9 -11.15 M22.1 15.65 L16.8 15.85 Q14.4 17.55 12.5 19.7 11.9 20.35 11.5 21.4 11.9 20.35 12.5 19.7 14.4 17.55 16.8 15.85 L14.85 15.9 16.8 15.85 22.1 15.65 M18.9 16.45 L17.1 19.3 18.9 16.45 M2.15 6.75 Q5.0 3.75 9.0 2.95 L9.7 1.35 9.0 2.95 Q5.0 3.75 2.15 6.75 M13.5 5.95 L13.5 5.2 Q12.5 0.35 9.15 -3.2 12.5 0.35 13.5 5.2 L13.5 5.95 M17.0 8.9 L19.95 10.0 17.0 8.9 M2.7 22.1 L5.1 21.4 Q9.3 19.95 12.4 17.25 13.3 16.5 13.65 15.45 14.2 13.65 13.25 12.05 L11.05 8.65 13.25 12.05 Q14.2 13.65 13.65 15.45 13.3 16.5 12.4 17.25 9.3 19.95 5.1 21.4 L2.7 22.1 M-0.25 21.85 L-0.45 20.6 -0.9 20.25 Q-4.85 17.5 -8.1 14.05 -4.85 17.5 -0.9 20.25 L-0.45 20.6 -0.25 21.85 M-13.2 -3.2 L-10.95 -3.65 Q-6.4 -4.8 -1.9 -3.5 -6.4 -4.8 -10.95 -3.65 L-13.2 -3.2" fill="#553885" fill-rule="evenodd" stroke="none"/>
    <path d="M10.05 -5.95 Q12.3 -10.25 16.7 -12.3 L19.7 -13.75 Q15.0 -14.0 10.45 -12.95 M12.3 -3.75 Q14.65 -5.3 17.55 -5.9 22.3 -6.8 26.7 -8.9 L21.9 -4.1 20.3 -2.65 18.4 -0.75 16.45 1.65 M18.2 3.4 Q18.75 3.05 19.4 3.0 L24.45 1.65 Q27.05 1.25 29.4 0.3 L22.85 5.65 21.7 6.9" fill="none" stroke="#66ff66" stroke-linecap="round" stroke-linejoin="round" stroke-width="0.05"/>
    <path d="M10.45 -12.95 Q8.1 -12.25 5.9 -11.15 L8.15 -9.4 8.2 -9.15 Q8.45 -7.2 10.05 -5.95 L12.3 -3.75 13.25 -2.25 16.45 1.65 18.2 3.4 21.7 6.9 24.45 10.15 M22.45 18.7 L22.0 19.05 20.0 19.5 19.25 19.35 17.2 19.25 17.1 19.3 Q15.95 19.55 14.9 19.95 L11.5 21.4 7.8 22.9 4.8 23.35 -1.35 23.95 -2.45 23.5 Q-4.8 22.35 -6.75 20.25 L-7.95 19.25 -9.1 18.1 Q-10.35 16.25 -11.15 14.2 L-11.45 12.7 Q-11.6 11.5 -12.05 10.5 L-13.1 8.15 Q-13.9 6.55 -15.4 5.45 L-18.65 3.55 Q-21.4 2.05 -23.75 0.0 L-23.7 -3.2 -23.3 -6.95 Q-23.05 -8.35 -22.05 -9.05 L-14.65 -8.4 -13.2 -9.1 -7.65 -11.15 -4.05 -11.7 Q-2.65 -11.85 -1.35 -12.45 0.55 -13.35 2.7 -12.9 4.7 -12.85 5.9 -11.15 M11.05 8.65 L13.25 12.05 Q14.2 13.65 13.65 15.45 13.3 16.5 12.4 17.25 9.3 19.95 5.1 21.4 L2.7 22.1 M19.95 10.0 L17.0 8.9 M9.15 -3.2 Q12.5 0.35 13.5 5.2 L13.5 5.95 M9.7 1.35 L9.0 2.95 Q5.0 3.75 2.15 6.75 M11.5 21.4 Q11.9 20.35 12.5 19.7 14.4 17.55 16.8 15.85 L14.85 15.9 M17.1 19.3 L18.9 16.45 M16.8 15.85 L22.1 15.65 M-1.9 -3.5 Q-6.4 -4.8 -10.95 -3.65 L-13.2 -3.2 M-8.1 14.05 Q-4.85 17.5 -0.9 20.25 L-0.45 20.6 -0.25 21.85" fill="none" stroke="#000000" stroke-linecap="round" stroke-linejoin="round" stroke-width="0.05"/>
  </g>
  <defs>
    <linearGradient gradientTransform="matrix(0.0066, -0.0056, 0.0078, 0.0092, 17.55, -6.9)" gradientUnits="userSpaceOnUse" id="gradient0" spreadMethod="pad" x1="-819.2" x2="819.2">
      <stop offset="0.0" stop-color="#4fff00" stop-opacity="0.67058825"/>
      <stop offset="1.0" stop-color="#49ff40" stop-opacity="0.2"/>
    </linearGradient>
  </defs>
</svg>
