<?xml version="1.0" encoding="UTF-8" standalone="no"?>
<svg xmlns:xlink="http://www.w3.org/1999/xlink" height="37.75px" width="53.15px" xmlns="http://www.w3.org/2000/svg">
  <g transform="matrix(1.0, 0.0, 0.0, 1.0, 0.0, 0.0)">
    <path d="M5.9 -11.15 Q8.1 -12.25 10.45 -12.95 15.0 -14.0 19.7 -13.75 L16.7 -12.3 Q12.3 -10.25 10.05 -5.95 8.45 -7.2 8.2 -9.15 L8.15 -9.4 5.9 -11.15 M12.3 -3.75 Q14.65 -5.3 17.55 -5.9 22.3 -6.8 26.7 -8.9 L21.9 -4.1 20.3 -2.65 18.4 -0.75 16.45 1.65 13.25 -2.25 12.3 -3.75 M18.2 3.4 Q18.75 3.05 19.4 3.0 L24.45 1.65 Q27.05 1.25 29.4 0.3 L22.85 5.65 21.7 6.9 18.2 3.4" fill="url(#gradient0)" fill-rule="evenodd" stroke="none"/>
    <path d="M5.9 -11.15 L8.15 -9.4 8.2 -9.15 Q8.45 -7.2 10.05 -5.95 L12.3 -3.75 13.25 -2.25 16.45 1.65 18.2 3.4 21.7 6.9 24.45 10.15 Q24.8 14.65 22.55 18.55 L22.45 18.7 22.0 19.05 20.0 19.5 19.25 19.35 17.2 19.25 17.1 19.3 Q15.95 19.55 14.9 19.95 L11.5 21.4 7.8 22.9 4.8 23.35 -1.35 23.95 -2.45 23.5 Q-4.8 22.35 -6.75 20.25 L-7.95 19.25 -9.1 18.1 Q-10.35 16.25 -11.15 14.2 L-11.45 12.7 Q-11.6 11.5 -12.05 10.5 L-13.1 8.15 Q-13.9 6.55 -15.4 5.45 L-18.65 3.55 Q-21.4 2.05 -23.75 0.0 L-23.7 -3.2 -23.3 -6.95 Q-23.05 -8.35 -22.05 -9.05 L-14.65 -8.4 -13.2 -9.1 -7.65 -11.15 -4.05 -11.7 Q-2.65 -11.85 -1.35 -12.45 0.55 -13.35 2.7 -12.9 4.7 -12.85 5.9 -11.15" fill="#553885" fill-rule="evenodd" stroke="none"/>
  </g>
  <defs>
    <linearGradient gradientTransform="matrix(0.0066, -0.0056, 0.0078, 0.0092, 17.55, -6.9)" gradientUnits="userSpaceOnUse" id="gradient0" spreadMethod="pad" x1="-819.2" x2="819.2">
      <stop offset="0.0" stop-color="#4fff00" stop-opacity="0.67058825"/>
      <stop offset="1.0" stop-color="#49ff40" stop-opacity="0.2"/>
    </linearGradient>
  </defs>
</svg>
