<?xml version="1.0" encoding="UTF-8" standalone="no"?>
<svg xmlns:xlink="http://www.w3.org/1999/xlink" height="31.25px" width="39.25px" xmlns="http://www.w3.org/2000/svg">
  <g transform="matrix(1.0, 0.0, 0.0, 1.0, 0.0, 0.0)">
    <path d="M-8.8 -2.35 L-10.0 -2.35 -9.4 -4.8 -8.8 -2.35 M-16.65 -0.5 L-17.8 0.7 -18.15 1.2 -19.3 1.1 -18.25 -0.25 Q-17.6 -1.1 -17.75 -2.35 L-16.65 -0.5 M-17.75 3.0 L-17.5 1.95 -17.3 2.25 Q-16.65 3.25 -15.45 3.55 L-17.65 4.8 Q-17.9 3.85 -17.75 3.0 M-12.9 3.35 L-12.85 2.85 -12.95 1.95 Q-13.15 0.75 -12.7 1.15 L-12.35 1.65 -10.85 3.2 -12.9 3.35 M-1.65 0.65 L-2.15 -4.0 -0.25 -2.05 -1.35 0.45 -1.65 0.65 M-25.3 2.55 Q-25.45 0.9 -24.8 -0.15 L-23.45 0.2 Q-23.05 0.2 -22.55 1.0 L-21.95 -0.3 Q-21.3 -1.85 -20.15 -3.1 L-20.15 -1.95 Q-19.9 -0.55 -20.05 1.05 L-20.05 1.15 Q-20.15 2.95 -18.9 5.25 L-23.15 4.75 -22.65 1.25 -22.55 1.0 -22.65 1.25 -24.5 2.2 -24.0 4.7 -24.8 4.7 -25.1 4.45 -25.25 4.3 -25.25 2.6 -25.25 2.55 -24.8 1.15 -24.5 2.2 -24.8 1.15 -25.25 2.55 -25.3 2.55" fill="#ffffcc" fill-rule="evenodd" stroke="none"/>
    <path d="M5.25 -10.15 L4.1 -8.3 2.05 -4.6 1.25 -3.6 -0.25 -2.05 -2.15 -4.0 -1.65 0.65 -3.25 1.7 -6.7 2.0 Q-8.0 2.05 -9.1 2.65 L-10.7 3.2 -10.85 3.2 -12.35 1.65 -12.7 1.15 Q-13.15 0.75 -12.95 1.95 L-12.85 2.85 -12.9 3.35 -15.45 3.55 Q-16.65 3.25 -17.3 2.25 L-17.5 1.95 -17.75 3.0 -18.15 1.2 -17.8 0.7 -16.65 -0.5 -12.4 -1.9 -12.05 -2.0 -11.4 -0.9 -10.1 -1.0 -10.75 -2.2 -10.0 -2.35 -8.8 -2.35 -6.0 -3.65 Q-4.4 -4.55 -3.95 -6.2 L-3.4 -8.25 -2.2 -10.5 -0.75 -11.85 Q0.55 -12.8 2.25 -12.65 3.6 -12.45 4.15 -11.0 L5.25 -10.15 M-14.5 0.85 Q-10.2 0.2 -8.05 -0.75 L-7.55 -1.05 Q-5.0 -2.4 -3.1 -4.4 -1.8 -5.7 -1.05 -7.5 -1.8 -5.7 -3.1 -4.4 -5.0 -2.4 -7.55 -1.05 L-8.05 -0.75 Q-10.2 0.2 -14.5 0.85 L-14.8 0.75 -15.35 0.85 -14.5 0.85 M-16.4 2.5 L-16.25 1.95 Q-16.05 1.35 -15.35 0.85 -16.05 1.35 -16.25 1.95 L-16.4 2.5 M-4.75 0.55 L-4.5 0.75 -4.9 0.4 -4.75 0.55" fill="#990000" fill-rule="evenodd" stroke="none"/>
    <path d="M-18.15 1.2 L-17.75 3.0 Q-17.9 3.85 -17.65 4.8 L-18.45 5.3 -18.9 5.25 Q-20.15 2.95 -20.05 1.15 L-20.05 1.05 -19.3 1.1 -18.15 1.2 M-25.5 2.9 L-25.45 2.9 -25.3 2.6 -25.25 2.6 -25.25 4.3 Q-25.85 3.6 -25.5 2.9 M-22.65 1.25 L-23.15 4.75 -24.0 4.7 -24.5 2.2 -22.65 1.25" fill="#720101" fill-rule="evenodd" stroke="none"/>
    <path d="M7.4 -8.2 L6.95 -8.0 7.4 -8.2 M-0.25 -2.05 L1.25 -3.6 2.05 -4.6 4.1 -8.3 5.25 -10.15 Q7.5 -12.2 10.4 -12.15 11.0 -11.85 11.4 -12.35 L11.45 -12.35 11.95 -11.95 Q14.3 -4.6 10.1 2.15 L9.2 3.55 8.4 4.4 7.85 7.05 Q7.05 8.05 5.95 8.25 L3.8 8.4 1.0 9.15 Q0.35 9.4 -0.2 9.85 L-1.8 11.2 -2.75 11.8 -2.9 11.9 -4.55 12.0 -4.65 12.0 -6.85 11.7 -10.4 11.15 -11.9 11.25 Q-13.0 11.7 -13.85 12.3 L-14.25 12.45 Q-16.05 11.45 -17.9 11.7 L-18.5 12.65 Q-20.4 12.3 -21.9 11.15 L-22.05 11.0 -22.05 11.1 -22.7 12.4 -23.2 11.4 -24.45 7.8 Q-24.55 7.5 -24.8 7.3 L-25.05 7.25 -25.45 7.3 -25.7 7.05 -25.65 5.25 -26.45 4.7 -25.5 2.9 Q-25.85 3.6 -25.25 4.3 L-25.1 4.45 -24.8 4.7 -24.0 4.7 -23.15 4.75 -18.9 5.25 -18.45 5.3 -17.65 4.8 -15.45 3.55 -12.9 3.35 -10.85 3.2 -10.7 3.2 -9.1 2.65 Q-8.0 2.05 -6.7 2.0 L-3.25 1.7 -1.65 0.65 -1.35 0.45 -0.25 -2.05 M9.65 -1.55 L9.25 -1.25 9.65 -1.55 M7.7 -5.0 L7.35 -4.8 7.7 -5.0 M7.3 -2.0 L7.05 -1.85 7.3 -2.0 M9.85 -5.65 L9.5 -5.35 9.85 -5.65 M8.1 2.2 Q7.8 2.25 7.55 2.45 7.8 2.25 8.1 2.2 M5.7 0.45 Q5.1 0.3 4.95 0.7 5.1 0.3 5.7 0.45 M10.35 -9.65 L9.7 -9.4 10.35 -9.65" fill="#333333" fill-rule="evenodd" stroke="none"/>
    <path d="M-10.75 -2.2 L-10.1 -1.0 -11.4 -0.9 -12.05 -2.0 -13.65 -4.7 -16.05 -4.55 Q-16.7 -4.55 -16.4 -5.0 L-16.3 -5.3 Q-15.45 -6.25 -14.0 -6.6 L-11.8 -6.35 -11.65 -6.05 -11.8 -5.85 -12.5 -5.2 -13.65 -4.7 -12.5 -5.2 -11.6 -3.85 -10.75 -2.2 M-2.9 11.9 L-0.85 14.5 1.0 16.75 Q1.8 17.65 2.05 18.6 L0.05 17.55 -1.05 16.7 -3.75 13.25 -4.6 12.05 -4.55 12.0 -2.9 11.9" fill="#5f4936" fill-rule="evenodd" stroke="none"/>
    <path d="M6.95 -8.0 L7.4 -8.2 M-0.25 -2.05 L1.25 -3.6 2.05 -4.6 4.1 -8.3 5.25 -10.15 4.15 -11.0 Q3.6 -12.45 2.25 -12.65 0.55 -12.8 -0.75 -11.85 L-2.2 -10.5 -3.4 -8.25 -3.95 -6.2 Q-4.4 -4.55 -6.0 -3.65 L-8.8 -2.35 -10.0 -2.35 -10.75 -2.2 -10.1 -1.0 -11.4 -0.9 -12.05 -2.0 -12.4 -1.9 -16.65 -0.5 -17.8 0.7 -18.15 1.2 -17.75 3.0 -17.5 1.95 -17.3 2.25 Q-16.65 3.25 -15.45 3.55 L-12.9 3.35 -12.85 2.85 -12.95 1.95 Q-13.15 0.75 -12.7 1.15 L-12.35 1.65 -10.85 3.2 -10.7 3.2 -9.1 2.65 Q-8.0 2.05 -6.7 2.0 L-3.25 1.7 -1.65 0.65 -2.15 -4.0 -0.25 -2.05 -1.35 0.45 -1.65 0.65 M9.5 -5.35 L9.85 -5.65 M7.05 -1.85 L7.3 -2.0 M7.35 -4.8 L7.7 -5.0 M9.25 -1.25 L9.65 -1.55 M5.25 -10.15 Q7.5 -12.2 10.4 -12.15 11.0 -11.85 11.4 -12.35 L11.45 -12.35 11.95 -11.95 Q14.3 -4.6 10.1 2.15 L9.2 3.55 8.4 4.4 7.85 7.05 Q7.05 8.05 5.95 8.25 L3.8 8.4 1.0 9.15 Q0.35 9.4 -0.2 9.85 L-1.8 11.2 -2.75 11.8 -2.9 11.9 -0.85 14.5 1.0 16.75 Q1.8 17.65 2.05 18.6 L0.05 17.55 -1.05 16.7 -3.75 13.25 -4.6 12.05 -4.65 12.0 -6.85 11.7 -10.4 11.15 -11.9 11.25 Q-13.0 11.7 -13.85 12.3 L-14.25 12.45 Q-16.05 11.45 -17.9 11.7 L-18.5 12.65 Q-20.4 12.3 -21.9 11.15 L-22.05 11.0 -22.05 11.1 -22.7 12.4 -23.2 11.4 -24.45 7.8 Q-24.55 7.5 -24.8 7.3 L-25.05 7.25 -25.45 7.3 -25.7 7.05 -25.65 5.25 -26.45 4.7 -25.5 2.9 -25.45 2.9 -25.3 2.6 -25.3 2.55 Q-25.45 0.9 -24.8 -0.15 L-23.45 0.2 Q-23.05 0.2 -22.55 1.0 L-21.95 -0.3 Q-21.3 -1.85 -20.15 -3.1 L-20.15 -1.95 Q-19.9 -0.55 -20.05 1.05 L-19.3 1.1 -18.25 -0.25 Q-17.6 -1.1 -17.75 -2.35 L-16.65 -0.5 M9.7 -9.4 L10.35 -9.65 M4.95 0.7 Q5.1 0.3 5.7 0.45 M7.55 2.45 Q7.8 2.25 8.1 2.2 M-12.5 -5.2 L-11.8 -5.85 -11.65 -6.05 -11.8 -6.35 -14.0 -6.6 Q-15.45 -6.25 -16.3 -5.3 L-16.4 -5.0 Q-16.7 -4.55 -16.05 -4.55 L-13.65 -4.7 -12.5 -5.2 -11.6 -3.85 -10.75 -2.2 M-13.65 -4.7 L-12.05 -2.0 M-8.8 -2.35 L-9.4 -4.8 -10.0 -2.35 M-1.05 -7.5 Q-1.8 -5.7 -3.1 -4.4 -5.0 -2.4 -7.55 -1.05 L-8.05 -0.75 Q-10.2 0.2 -14.5 0.85 L-15.35 0.85 Q-16.05 1.35 -16.25 1.95 L-16.4 2.5 M-4.55 12.0 L-4.65 12.0 M-2.9 11.9 L-4.55 12.0 M-14.5 0.85 L-14.8 0.75 -15.35 0.85 M-10.85 3.2 L-12.9 3.35 M-18.15 1.2 L-19.3 1.1 M-18.9 5.25 Q-20.15 2.95 -20.05 1.15 L-20.05 1.05 M-18.9 5.25 L-18.45 5.3 -17.65 4.8 Q-17.9 3.85 -17.75 3.0 M-15.45 3.55 L-17.65 4.8 M-22.55 1.0 L-22.65 1.25 -23.15 4.75 -18.9 5.25 M-25.25 2.55 L-25.25 2.6 -25.25 4.3 -25.1 4.45 -24.8 4.7 -24.0 4.7 -24.5 2.2 -24.8 1.15 -25.25 2.55 -25.3 2.6 M-24.0 4.7 L-23.15 4.75 M-22.65 1.25 L-24.5 2.2 M-25.5 2.9 Q-25.85 3.6 -25.25 4.3" fill="none" stroke="#000000" stroke-linecap="round" stroke-linejoin="round" stroke-width="0.05"/>
  </g>
</svg>
