<?xml version="1.0" encoding="UTF-8" standalone="no"?>
<svg xmlns:xlink="http://www.w3.org/1999/xlink" height="30.35px" width="41.5px" xmlns="http://www.w3.org/2000/svg">
  <g transform="matrix(1.0, 0.0, 0.0, 1.0, 0.0, 0.0)">
    <path d="M5.2 -7.25 L5.05 -7.6 4.65 -8.85 4.7 -9.25 4.75 -11.8 Q6.0 -13.25 8.1 -13.6 9.05 -14.0 10.15 -14.05 L10.35 -13.85 10.55 -13.7 10.6 -13.65 11.0 -13.6 12.3 -12.15 12.95 -12.85 13.1 -12.8 13.4 -12.35 13.65 -11.55 13.65 -11.15 14.5 -11.65 14.8 -12.25 15.45 -13.45 15.55 -12.05 14.25 -9.7 15.5 -10.2 18.3 -10.4 20.3 -10.1 21.4 -9.6 Q19.15 -9.4 16.85 -8.55 15.55 -8.0 15.15 -6.6 L15.7 -6.5 17.3 -6.6 Q17.95 -6.85 18.25 -6.4 L16.7 -5.2 15.4 -4.25 Q15.55 -3.7 16.45 -3.75 L17.75 -3.55 18.5 -3.15 15.7 -2.0 15.4 -0.7 15.1 -0.55 Q14.6 -0.55 14.45 -0.3 L13.8 0.0 13.1 0.8 13.0 0.75 12.3 0.0 11.8 -0.8 11.6 -1.15 9.9 -3.45 9.25 -3.85 Q8.65 -4.05 8.25 -4.65 L6.95 -6.55 5.2 -7.25 M11.65 -6.65 L11.8 -6.75 12.0 -6.75 11.65 -6.65 12.0 -6.75 11.8 -6.75 11.65 -6.65 M12.65 -4.8 L12.65 -5.1 13.05 -5.9 Q13.2 -6.3 12.9 -6.45 L12.0 -6.75 12.55 -7.25 12.4 -7.45 11.6 -7.5 10.65 -7.55 11.8 -8.8 10.9 -8.95 Q10.25 -8.85 9.95 -8.55 10.25 -8.85 10.9 -8.95 L11.8 -8.8 10.65 -7.55 11.6 -7.5 12.4 -7.45 12.55 -7.25 12.0 -6.75 12.9 -6.45 Q13.2 -6.3 13.05 -5.9 L12.65 -5.1 12.65 -4.8" fill="#5f5354" fill-rule="evenodd" stroke="none"/>
    <path d="M11.6 -1.15 L11.4 -0.8 Q11.3 0.9 10.5 2.45 L10.85 4.15 Q10.65 5.05 9.85 6.0 L9.35 6.5 Q6.4 8.3 3.25 9.05 0.55 9.7 -1.9 11.35 L-4.6 12.9 -10.3 14.2 Q-12.4 14.7 -14.55 15.85 L-15.45 16.3 Q-16.55 16.0 -17.4 15.3 L-18.75 13.8 -18.9 13.5 -18.8 13.5 -19.2 12.15 -19.45 10.55 -18.8 11.45 -17.0 14.0 -16.0 13.85 -12.65 12.25 -16.0 13.85 -16.65 12.15 -17.25 9.85 -17.3 9.8 -17.3 9.75 -17.35 9.5 -17.45 7.55 Q-17.3 6.35 -16.55 5.35 -16.3 7.15 -15.5 8.8 L-15.5 8.85 Q-14.75 10.5 -13.2 11.75 L-12.65 12.25 -9.8 11.1 -9.9 10.95 Q-10.5 10.45 -10.5 9.6 L-9.8 10.0 -8.7 10.45 -6.0 8.5 -6.85 7.2 -6.9 7.05 -4.9 7.9 -2.0 6.3 -2.9 4.55 -2.15 4.85 -0.75 5.5 0.05 5.0 1.65 3.55 0.85 2.45 0.7 2.05 2.5 2.55 2.9 1.55 3.35 0.5 3.95 -1.4 4.9 -5.45 5.15 -6.0 5.2 -7.25 6.95 -6.55 8.25 -4.65 Q8.65 -4.05 9.25 -3.85 L9.9 -3.45 11.6 -1.15 M1.65 3.55 L2.5 2.55 1.65 3.55 M6.1 5.8 Q6.85 5.5 7.35 4.85 8.5 3.45 8.15 1.7 7.85 0.15 6.75 -0.95 7.85 0.15 8.15 1.7 8.5 3.45 7.35 4.85 6.85 5.5 6.1 5.8 M-8.7 10.45 L-9.25 10.85 -9.8 11.1 -9.25 10.85 -8.7 10.45 M-18.8 13.5 L-17.35 14.0 -17.0 14.0 -17.35 14.0 -18.8 13.5 M-2.0 6.3 L-0.75 5.5 -2.0 6.3 M-6.0 8.5 L-4.9 7.9 -6.0 8.5" fill="#552811" fill-rule="evenodd" stroke="none"/>
    <path d="M-19.45 10.55 Q-20.2 9.0 -20.1 7.2 L-19.2 7.05 -17.35 9.5 -17.3 9.75 -17.3 9.8 -17.25 9.85 -16.65 12.15 -16.0 13.85 -17.0 14.0 -18.8 11.45 -19.45 10.55 M-15.5 8.8 L-12.6 7.4 -12.95 6.9 Q-13.4 5.95 -13.3 5.0 L-12.9 5.6 -11.5 6.8 -8.45 5.15 -8.75 4.75 Q-9.35 3.9 -9.4 2.9 L-8.95 3.4 Q-8.4 4.05 -7.2 4.3 L-5.1 2.25 -5.3 2.2 -5.8 1.5 -6.1 0.7 -5.05 1.0 -4.0 1.1 -3.25 0.3 -2.35 -1.45 -3.35 -1.9 -3.6 -2.15 -3.8 -2.6 -2.05 -2.4 -2.05 -2.65 -2.0 -4.7 -1.95 -7.7 Q-1.95 -8.6 -1.4 -9.35 L0.65 -10.3 2.0 -10.25 3.1 -9.85 3.45 -9.75 4.2 -8.9 3.4 -5.75 2.2 -2.1 1.2 0.15 0.4 1.35 Q-0.8 2.9 -2.4 3.95 L-5.35 5.8 -7.4 7.4 -10.5 9.6 -12.95 11.5 -13.2 11.75 Q-14.75 10.5 -15.5 8.85 L-15.5 8.8 M-8.45 5.15 L-7.2 4.3 -8.45 5.15 M-2.35 -1.45 L-2.05 -2.4 -2.35 -1.45 M-5.1 2.25 L-4.0 1.1 -5.1 2.25 M-17.3 9.75 L-17.5 9.85 Q-17.5 10.8 -18.8 11.45 -17.5 10.8 -17.5 9.85 L-17.3 9.75 M-12.6 7.4 L-11.5 6.8 -12.6 7.4" fill="#471d0e" fill-rule="evenodd" stroke="none"/>
    <path d="M5.2 -7.25 L5.05 -7.6 4.65 -8.85 4.7 -9.25 4.75 -11.8 Q6.0 -13.25 8.1 -13.6 9.05 -14.0 10.15 -14.05 L10.35 -13.85 10.55 -13.7 10.6 -13.65 11.0 -13.6 12.3 -12.15 12.95 -12.85 13.1 -12.8 13.4 -12.35 13.65 -11.55 13.65 -11.15 14.5 -11.65 14.8 -12.25 15.45 -13.45 15.55 -12.05 14.25 -9.7 15.5 -10.2 18.3 -10.4 20.3 -10.1 21.4 -9.6 Q19.15 -9.4 16.85 -8.55 15.55 -8.0 15.15 -6.6 L15.7 -6.5 17.3 -6.6 Q17.95 -6.85 18.25 -6.4 L16.7 -5.2 15.4 -4.25 Q15.55 -3.7 16.45 -3.75 L17.75 -3.55 18.5 -3.15 15.7 -2.0 15.4 -0.7 15.1 -0.55 Q14.6 -0.55 14.45 -0.3 L13.8 0.0 13.1 0.8 13.0 0.75 12.3 0.0 11.8 -0.8 11.6 -1.15 11.4 -0.8 Q11.3 0.9 10.5 2.45 L10.85 4.15 Q10.65 5.05 9.85 6.0 L9.35 6.5 Q6.4 8.3 3.25 9.05 0.55 9.7 -1.9 11.35 L-4.6 12.9 -10.3 14.2 Q-12.4 14.7 -14.55 15.85 L-15.45 16.3 Q-16.55 16.0 -17.4 15.3 L-18.75 13.8 -18.9 13.5 -18.9 13.35 -18.8 13.5 -19.2 12.15 -19.45 10.55 Q-20.2 9.0 -20.1 7.2 L-19.2 7.05 -17.35 9.5 -17.45 7.55 Q-17.3 6.35 -16.55 5.35 -16.3 7.15 -15.5 8.8 L-12.6 7.4 -12.95 6.9 Q-13.4 5.95 -13.3 5.0 L-12.9 5.6 -11.5 6.8 -8.45 5.15 -8.75 4.75 Q-9.35 3.9 -9.4 2.9 L-8.95 3.4 Q-8.4 4.05 -7.2 4.3 L-5.1 2.25 -5.3 2.2 -5.8 1.5 -6.1 0.7 -5.05 1.0 -4.0 1.1 -3.25 0.3 -2.35 -1.45 -3.35 -1.9 -3.6 -2.15 -3.8 -2.6 -2.05 -2.4 -2.05 -2.65 -2.0 -4.7 -1.95 -7.7 Q-1.95 -8.6 -1.4 -9.35 L0.65 -10.3 2.0 -10.25 3.1 -9.85 3.45 -9.75 4.2 -8.9 3.4 -5.75 2.2 -2.1 1.2 0.15 0.4 1.35 Q-0.8 2.9 -2.4 3.95 L-5.35 5.8 -7.4 7.4 -10.5 9.6 -9.8 10.0 -8.7 10.45 -6.0 8.5 -6.85 7.2 -6.9 7.05 -4.9 7.9 -2.0 6.3 -2.9 4.55 -2.15 4.85 -0.75 5.5 0.05 5.0 1.65 3.55 0.85 2.45 0.7 2.05 2.5 2.55 2.9 1.55 3.35 0.5 3.95 -1.4 4.9 -5.45 5.15 -6.0 5.2 -7.25 M6.75 -0.95 Q7.85 0.15 8.15 1.7 8.5 3.45 7.35 4.85 6.85 5.5 6.1 5.8 M2.5 2.55 L1.65 3.55 M-2.05 -2.4 L-2.35 -1.45 M-7.2 4.3 L-8.45 5.15 M-9.8 11.1 L-9.25 10.85 -8.7 10.45 M-10.5 9.6 Q-10.5 10.45 -9.9 10.95 L-9.8 11.1 -12.65 12.25 -16.0 13.85 -17.0 14.0 -17.35 14.0 -18.8 13.5 M-4.9 7.9 L-6.0 8.5 M-0.75 5.5 L-2.0 6.3 M-4.0 1.1 L-5.1 2.25 M-13.2 11.75 Q-14.75 10.5 -15.5 8.85 L-15.5 8.8 M-17.0 14.0 L-18.8 11.45 -19.45 10.55 M-18.8 11.45 Q-17.5 10.8 -17.5 9.85 L-17.3 9.75 -17.35 9.5 M-17.3 9.75 L-17.3 9.8 -17.25 9.85 -16.65 12.15 -16.0 13.85 M-11.5 6.8 L-12.6 7.4 M-13.2 11.75 L-12.95 11.5 -10.5 9.6 M-12.65 12.25 L-13.2 11.75" fill="none" stroke="#000000" stroke-linecap="round" stroke-linejoin="round" stroke-width="0.05"/>
    <path d="M9.95 -8.55 Q10.25 -8.85 10.9 -8.95 L11.8 -8.8 10.65 -7.55 11.6 -7.5 12.4 -7.45 12.55 -7.25 12.0 -6.75 12.9 -6.45 Q13.2 -6.3 13.05 -5.9 L12.65 -5.1 12.65 -4.8 M11.65 -6.65 L12.0 -6.75 11.8 -6.75 11.65 -6.65" fill="none" stroke="#000000" stroke-linecap="round" stroke-linejoin="round" stroke-width="0.05"/>
    <path d="M5.2 -7.25 L6.95 -6.55 8.25 -4.65 Q8.65 -4.05 9.25 -3.85 L9.9 -3.45 11.6 -1.15" fill="none" stroke="#006600" stroke-linecap="round" stroke-linejoin="round" stroke-width="1.0"/>
  </g>
</svg>
