<?xml version="1.0" encoding="UTF-8" standalone="no"?>
<svg xmlns:xlink="http://www.w3.org/1999/xlink" height="25.3px" width="52.9px" xmlns="http://www.w3.org/2000/svg">
  <g transform="matrix(1.0, 0.0, 0.0, 1.0, 0.0, 0.0)">
    <path d="M9.75 -6.95 L11.05 -7.05 11.45 -6.7 11.8 -6.05 11.85 -5.85 9.45 -4.8 11.1 -4.0 10.6 -3.0 10.3 -2.85 10.0 -2.65 9.6 -2.6 9.15 -2.6 8.65 -2.65 10.55 -1.0 9.25 -0.7 8.1 -0.5 9.45 0.6 8.4 1.05 5.15 1.95 8.4 1.05 9.45 0.6 8.1 -0.5 9.25 -0.7 10.55 -1.0 8.65 -2.65 9.15 -2.6 9.6 -2.6 10.0 -2.65 10.3 -2.85 10.6 -3.0 11.1 -4.0 9.45 -4.8 11.85 -5.85 11.8 -6.05 11.45 -6.7 11.05 -7.05 9.75 -6.95 M-15.45 3.55 L-12.9 3.35 -10.85 3.2 -10.7 3.2 -9.1 2.65 Q-8.0 2.05 -6.7 2.0 L-4.0 1.75 -3.25 1.7 -1.65 0.65 -1.35 0.45 -0.25 -2.05 1.25 -3.6 2.05 -4.6 4.1 -8.3 5.25 -10.15 Q7.5 -12.2 10.4 -12.15 11.0 -11.85 11.4 -12.35 L14.85 -11.8 15.4 -11.55 13.5 -9.9 19.4 -10.1 17.5 -9.25 15.15 -8.0 23.9 -7.65 23.45 -7.35 19.75 -6.1 15.95 -5.1 19.05 -4.6 Q21.85 -4.35 24.55 -4.65 25.6 -4.95 26.15 -4.15 L26.45 -3.7 Q26.1 -3.05 25.4 -2.9 L23.0 -2.35 20.55 -1.65 14.6 -1.0 24.4 1.15 24.85 1.4 24.5 1.6 Q23.5 2.15 22.4 2.3 17.4 2.45 12.45 2.1 L13.6 2.55 16.35 4.0 18.65 5.75 Q15.05 4.95 11.4 4.7 10.05 4.7 9.2 3.55 L8.4 4.4 7.85 7.05 Q7.05 8.05 5.95 8.25 L3.8 8.4 1.0 9.15 Q0.35 9.4 -0.2 9.85 L-1.8 11.2 -2.75 11.8 -4.55 12.0 -6.85 11.7 -10.4 11.15 -11.9 11.25 Q-13.0 11.7 -13.85 12.3 L-14.25 12.45 Q-16.05 11.45 -17.9 11.7 L-18.5 12.65 Q-20.4 12.3 -21.9 11.15 L-22.05 11.0 -22.7 12.4 -23.2 11.4 -24.45 7.8 Q-24.55 7.5 -24.8 7.3 L-25.05 7.25 -25.45 7.3 -25.7 7.05 -25.65 5.25 -26.45 4.7 -25.5 2.9 Q-25.85 3.6 -25.25 4.3 L-25.1 4.45 -24.8 4.7 -24.0 4.7 -23.15 4.75 -18.9 5.25 -18.45 5.3 -17.65 4.8 -15.45 3.55" fill="#553885" fill-rule="evenodd" stroke="none"/>
    <path d="M-8.8 -2.35 L-10.0 -2.35 -9.4 -4.8 -8.8 -2.35 M-12.4 -1.9 L-13.95 -1.45 -13.75 -3.15 -12.4 -1.9 M-16.65 -0.5 L-17.8 0.7 -18.15 1.2 -19.3 1.1 -18.25 -0.25 Q-17.6 -1.1 -17.75 -2.35 L-16.65 -0.5 M-17.75 3.0 L-17.5 1.95 -17.3 2.25 Q-16.65 3.25 -15.45 3.55 L-17.65 4.8 Q-17.9 3.85 -17.75 3.0 M-12.9 3.35 L-12.85 2.85 -12.95 1.95 Q-13.15 0.75 -12.7 1.15 L-12.35 1.65 -10.85 3.2 -12.9 3.35 M-6.7 2.0 L-6.7 -1.3 -4.9 0.4 -4.75 0.55 -4.5 0.75 -4.0 1.75 -6.7 2.0 M-1.65 0.65 L-2.15 -4.0 -0.25 -2.05 -1.35 0.45 -1.65 0.65 M-25.3 2.55 Q-25.55 0.0 -24.75 -2.55 L-23.85 -4.75 -23.6 -4.75 -23.65 -4.5 Q-24.3 -1.7 -22.55 1.0 L-21.95 -0.3 Q-21.3 -1.85 -20.15 -3.1 L-20.15 -1.95 Q-19.9 -0.55 -20.05 1.05 L-20.05 1.15 Q-20.15 2.95 -18.9 5.25 L-23.15 4.75 -22.65 1.25 -24.5 2.2 -24.8 1.15 -25.25 2.55 -24.8 1.15 -24.5 2.2 -24.0 4.7 -24.8 4.7 -25.1 4.45 -25.25 4.3 -25.25 2.6 -25.25 2.55 -25.3 2.55 M-22.55 1.0 L-22.65 1.25 -22.55 1.0" fill="#ffffcc" fill-rule="evenodd" stroke="none"/>
    <path d="M-8.8 -2.35 L-6.0 -3.65 Q-4.4 -4.55 -3.95 -6.2 L-3.4 -8.25 -2.2 -10.5 -0.75 -11.85 Q0.55 -12.8 2.25 -12.65 3.6 -12.45 4.15 -11.0 L5.25 -10.15 4.1 -8.3 2.05 -4.6 1.25 -3.6 -0.25 -2.05 -2.15 -4.0 -1.65 0.65 -3.25 1.7 -4.0 1.75 -4.5 0.75 -4.9 0.4 -6.7 -1.3 -6.7 2.0 Q-8.0 2.05 -9.1 2.65 L-10.7 3.2 -10.85 3.2 -12.35 1.65 -12.7 1.15 Q-13.15 0.75 -12.95 1.95 L-12.85 2.85 -12.9 3.35 -15.45 3.55 Q-16.65 3.25 -17.3 2.25 L-17.5 1.95 -17.75 3.0 -18.15 1.2 -17.8 0.7 -16.65 -0.5 -13.95 -1.45 -12.4 -1.9 -10.0 -2.35 -8.8 -2.35 M-14.5 0.85 Q-10.2 0.2 -8.05 -0.75 L-7.55 -1.05 Q-5.0 -2.4 -3.1 -4.4 -1.8 -5.7 -1.05 -7.5 -1.8 -5.7 -3.1 -4.4 -5.0 -2.4 -7.55 -1.05 L-8.05 -0.75 Q-10.2 0.2 -14.5 0.85 L-14.8 0.75 -15.35 0.85 -14.5 0.85 M-16.4 2.5 L-16.25 1.95 Q-16.05 1.35 -15.35 0.85 -16.05 1.35 -16.25 1.95 L-16.4 2.5" fill="#990000" fill-rule="evenodd" stroke="none"/>
    <path d="M-18.15 1.2 L-17.75 3.0 Q-17.9 3.85 -17.65 4.8 L-18.45 5.3 -18.9 5.25 Q-20.15 2.95 -20.05 1.15 L-20.05 1.05 -19.3 1.1 -18.15 1.2 M-25.5 2.9 L-25.45 2.9 -25.3 2.6 -25.25 2.6 -25.25 4.3 Q-25.85 3.6 -25.5 2.9 M-24.5 2.2 L-22.65 1.25 -23.15 4.75 -24.0 4.7 -24.5 2.2" fill="#720101" fill-rule="evenodd" stroke="none"/>
    <path d="M5.15 1.95 L8.4 1.05 9.45 0.6 8.1 -0.5 9.25 -0.7 10.55 -1.0 8.65 -2.65 9.15 -2.6 9.6 -2.6 10.0 -2.65 10.3 -2.85 10.6 -3.0 11.1 -4.0 9.45 -4.8 11.85 -5.85 11.8 -6.05 11.45 -6.7 11.05 -7.05 9.75 -6.95 M5.25 -10.15 L4.15 -11.0 Q3.6 -12.45 2.25 -12.65 0.55 -12.8 -0.75 -11.85 L-2.2 -10.5 -3.4 -8.25 -3.95 -6.2 Q-4.4 -4.55 -6.0 -3.65 L-8.8 -2.35 -10.0 -2.35 -12.4 -1.9 -13.95 -1.45 -16.65 -0.5 -17.8 0.7 -18.15 1.2 -17.75 3.0 -17.5 1.95 -17.3 2.25 Q-16.65 3.25 -15.45 3.55 L-12.9 3.35 -12.85 2.85 -12.95 1.95 Q-13.15 0.75 -12.7 1.15 L-12.35 1.65 -10.85 3.2 -10.7 3.2 -9.1 2.65 Q-8.0 2.05 -6.7 2.0 L-6.7 -1.3 -4.9 0.4 -4.5 0.75 -4.0 1.75 -3.25 1.7 -1.65 0.65 -2.15 -4.0 -0.25 -2.05 1.25 -3.6 2.05 -4.6 4.1 -8.3 5.25 -10.15 Q7.5 -12.2 10.4 -12.15 11.0 -11.85 11.4 -12.35 L14.85 -11.8 15.4 -11.55 13.5 -9.9 19.4 -10.1 17.5 -9.25 15.15 -8.0 23.9 -7.65 23.45 -7.35 19.75 -6.1 15.95 -5.1 19.05 -4.6 Q21.85 -4.35 24.55 -4.65 25.6 -4.95 26.15 -4.15 L26.45 -3.7 Q26.1 -3.05 25.4 -2.9 L23.0 -2.35 20.55 -1.65 14.6 -1.0 24.4 1.15 24.85 1.4 24.5 1.6 Q23.5 2.15 22.4 2.3 17.4 2.45 12.45 2.1 L13.6 2.55 16.35 4.0 18.65 5.75 Q15.05 4.95 11.4 4.7 10.05 4.7 9.2 3.55 L8.4 4.4 7.85 7.05 Q7.05 8.05 5.95 8.25 L3.8 8.4 1.0 9.15 Q0.35 9.4 -0.2 9.85 L-1.8 11.2 -2.75 11.8 -4.55 12.0 -6.85 11.7 -10.4 11.15 -11.9 11.25 Q-13.0 11.7 -13.85 12.3 L-14.25 12.45 Q-16.05 11.45 -17.9 11.7 L-18.5 12.65 Q-20.4 12.3 -21.9 11.15 L-22.05 11.0 -22.7 12.4 -23.2 11.4 -24.45 7.8 Q-24.55 7.5 -24.8 7.3 L-25.05 7.25 -25.45 7.3 -25.7 7.05 -25.65 5.25 -26.45 4.7 -25.5 2.9 -25.45 2.9 -25.3 2.6 -25.3 2.55 Q-25.55 0.0 -24.75 -2.55 L-23.85 -4.75 -23.6 -4.75 -23.65 -4.5 Q-24.3 -1.7 -22.55 1.0 L-21.95 -0.3 Q-21.3 -1.85 -20.15 -3.1 L-20.15 -1.95 Q-19.9 -0.55 -20.05 1.05 L-19.3 1.1 -18.25 -0.25 Q-17.6 -1.1 -17.75 -2.35 L-16.65 -0.5 M-12.4 -1.9 L-13.75 -3.15 -13.95 -1.45 M-8.8 -2.35 L-9.4 -4.8 -10.0 -2.35 M-1.05 -7.5 Q-1.8 -5.7 -3.1 -4.4 -5.0 -2.4 -7.55 -1.05 L-8.05 -0.75 Q-10.2 0.2 -14.5 0.85 L-15.35 0.85 Q-16.05 1.35 -16.25 1.95 L-16.4 2.5 M-1.65 0.65 L-1.35 0.45 -0.25 -2.05 M-4.5 0.75 L-4.75 0.55 -4.9 0.4 M-4.0 1.75 L-6.7 2.0 M-12.9 3.35 L-10.85 3.2 M-14.5 0.85 L-14.8 0.75 -15.35 0.85 M-19.3 1.1 L-18.15 1.2 M-20.05 1.05 L-20.05 1.15 Q-20.15 2.95 -18.9 5.25 L-18.45 5.3 -17.65 4.8 Q-17.9 3.85 -17.75 3.0 M-15.45 3.55 L-17.65 4.8 M-22.65 1.25 L-22.55 1.0 M-25.25 2.55 L-24.8 1.15 -24.5 2.2 -22.65 1.25 -23.15 4.75 -18.9 5.25 M-25.25 2.6 L-25.25 2.55 -25.3 2.6 M-25.25 2.6 L-25.25 4.3 -25.1 4.45 -24.8 4.7 -24.0 4.7 -24.5 2.2 M-24.0 4.7 L-23.15 4.75 M-25.25 4.3 Q-25.85 3.6 -25.5 2.9" fill="none" stroke="#000000" stroke-linecap="round" stroke-linejoin="round" stroke-width="0.05"/>
  </g>
</svg>
