<?xml version="1.0" encoding="UTF-8" standalone="no"?>
<svg xmlns:xlink="http://www.w3.org/1999/xlink" height="36.35px" width="46.7px" xmlns="http://www.w3.org/2000/svg">
  <g transform="matrix(1.0, 0.0, 0.0, 1.0, 0.0, 0.0)">
    <path d="M-5.6 15.0 L-6.7 16.55 -6.9 16.3 -7.0 14.8 -5.6 15.0 M-8.85 14.55 L-10.25 17.4 Q-10.9 16.05 -10.45 14.65 L-10.1 13.95 -8.85 14.55 M-12.2 12.6 Q-13.4 14.1 -13.2 16.25 L-13.25 16.6 -13.65 16.0 Q-14.25 14.45 -13.9 13.15 -13.85 12.85 -14.1 12.65 L-12.2 12.6 M-15.35 12.85 Q-16.5 15.05 -16.85 16.6 L-17.0 17.65 Q-18.25 15.1 -17.45 12.4 L-16.15 12.65 -15.35 12.85 M-18.35 12.3 L-19.25 14.2 -20.0 16.6 -20.3 15.0 Q-20.45 13.7 -20.1 12.55 L-20.05 12.35 -18.35 12.3" fill="#ffffcc" fill-rule="evenodd" stroke="none"/>
    <path d="M3.25 7.3 L2.85 8.2 1.35 8.4 -6.15 8.85 -8.0 8.8 -8.95 8.45 -7.9 8.15 -5.7 7.35 Q-2.1 6.15 1.55 6.85 L2.9 7.15 3.25 7.3" fill="#00ff00" fill-rule="evenodd" stroke="none"/>
    <path d="M9.2 5.7 L9.65 6.15 9.95 6.6 9.95 7.45 9.25 8.75 Q9.5 9.6 10.1 10.45 11.05 11.85 10.05 13.1 9.25 13.45 8.65 14.1 8.15 14.6 7.75 15.25 7.15 16.3 6.0 16.65 L3.35 17.25 3.3 17.25 3.25 17.25 -2.45 16.95 -3.55 16.5 -4.5 15.75 -5.4 15.1 -5.6 15.0 -7.0 14.8 -8.85 14.55 -10.1 13.95 -12.2 12.6 -14.1 12.65 -14.5 12.9 -15.35 12.85 -16.15 12.65 -17.45 12.4 -18.35 12.3 -20.05 12.35 -20.5 12.3 -20.05 10.75 -17.5 11.25 -16.4 10.45 -16.05 10.15 -15.95 8.9 -16.65 8.5 -17.2 8.4 -17.35 9.15 -17.95 9.5 -19.4 9.5 -18.5 7.95 -18.1 7.35 -16.3 5.3 -13.95 5.4 -11.35 6.25 -10.0 5.85 -7.75 5.6 -6.8 4.95 -6.6 4.8 Q-1.95 3.1 2.95 3.85 L8.55 5.0 9.2 5.7 M2.9 7.15 L1.55 6.85 Q-2.1 6.15 -5.7 7.35 L-7.9 8.15 -8.95 8.45 -8.0 8.8 -6.15 8.85 1.35 8.4 2.85 8.2 3.25 7.3 3.15 7.1 Q3.05 6.95 2.9 7.15 M-12.45 10.1 L-12.95 8.75 -12.45 10.1 M-13.85 9.9 L-14.3 7.85 -12.15 7.95 -10.8 8.45 -9.75 10.4 -10.8 8.45 -12.15 7.95 -14.3 7.85 -13.85 9.9 M5.75 12.75 Q6.1 13.1 6.1 13.5 L5.85 14.5 Q5.7 14.75 5.45 14.65 4.95 14.5 4.6 14.15 L4.45 14.7 3.6 16.65 3.25 17.25 3.6 16.65 4.45 14.7 4.6 14.15 Q4.95 14.5 5.45 14.65 5.7 14.75 5.85 14.5 L6.1 13.5 Q6.1 13.1 5.75 12.75 M4.0 11.75 Q3.45 10.65 4.45 9.9 5.55 9.05 6.85 9.3 L7.25 9.05 7.45 8.65 7.0 7.15 7.45 8.65 7.25 9.05 6.85 9.3 Q5.55 9.05 4.45 9.9 3.45 10.65 4.0 11.75 M-10.8 8.45 L-8.95 8.45 -10.8 8.45" fill="#333333" fill-rule="evenodd" stroke="none"/>
    <path d="M-6.6 4.8 Q-9.55 1.1 -11.85 -3.05 L-14.0 -6.85 Q-15.65 -9.8 -16.7 -13.0 L-14.4 -14.85 -13.55 -13.8 -13.55 -15.35 -10.35 -16.65 -7.65 -17.6 -6.65 -15.65 -6.4 -17.85 -5.95 -17.95 -4.75 -15.9 -4.9 -18.15 0.35 -18.7 7.85 -17.6 7.75 -16.65 8.75 -17.3 Q14.2 -15.4 18.7 -11.7 L19.5 -10.9 19.4 -10.1 20.05 -10.3 22.2 -7.55 22.65 -6.95 19.6 -4.95 23.45 -5.65 23.7 -5.5 22.75 -4.85 22.1 -4.45 21.55 -3.95 22.45 -3.95 23.25 -4.25 24.05 -4.65 24.5 -3.8 16.15 1.25 Q12.5 3.3 9.2 5.7 L8.55 5.0 2.95 3.85 Q-1.95 3.1 -6.6 4.8 M-12.4 -13.65 L-11.95 -11.85 Q-10.5 -3.5 -4.8 2.6 -10.5 -3.5 -11.95 -11.85 L-12.4 -13.65 M-8.5 -14.4 L-8.6 -12.75 Q-8.15 -4.15 -2.6 2.4 -8.15 -4.15 -8.6 -12.75 L-8.5 -14.4 M-4.8 -15.3 L-4.75 -14.25 Q-5.4 -6.2 -2.4 1.3 -5.4 -6.2 -4.75 -14.25 L-4.8 -15.3 M-1.1 -16.8 L-1.4 -13.8 Q-1.95 -5.85 -0.9 2.25 -1.95 -5.85 -1.4 -13.8 L-1.1 -16.8 M17.4 -6.45 L16.55 -6.0 Q10.75 -2.25 7.75 3.35 10.75 -2.25 16.55 -6.0 L17.4 -6.45 M15.7 -10.9 L14.25 -9.75 Q8.45 -4.95 6.1 2.05 8.45 -4.95 14.25 -9.75 L15.7 -10.9 M5.1 -15.75 L4.45 -13.9 Q2.1 -6.15 0.95 1.85 2.1 -6.15 4.45 -13.9 L5.1 -15.75 M10.3 -12.55 L3.15 1.65 10.3 -12.55" fill="url(#gradient0)" fill-rule="evenodd" stroke="none"/>
    <path d="M-20.05 10.75 Q-21.0 10.45 -21.75 9.55 -22.6 8.4 -21.75 7.3 L-21.25 6.85 -20.55 6.75 Q-19.3 6.75 -18.1 7.35 L-18.5 7.95 Q-20.0 7.25 -20.75 8.1 -21.0 9.15 -19.8 9.3 L-19.4 9.5 -17.95 9.5 -17.35 9.15 -17.2 8.4 -16.65 8.5 -15.95 8.9 -16.05 10.15 -16.4 10.45 -17.5 11.25 -20.05 10.75" fill="#cccccc" fill-rule="evenodd" stroke="none"/>
    <path d="M-6.6 4.8 Q-9.55 1.1 -11.85 -3.05 L-14.0 -6.85 Q-15.65 -9.8 -16.7 -13.0 L-14.4 -14.85 -13.55 -13.8 -13.55 -15.35 -10.35 -16.65 -7.65 -17.6 -6.65 -15.65 -6.4 -17.85 -5.95 -17.95 -4.75 -15.9 -4.9 -18.15 0.35 -18.7 7.85 -17.6 7.75 -16.65 8.75 -17.3 Q14.2 -15.4 18.7 -11.7 L19.5 -10.9 19.4 -10.1 20.05 -10.3 22.2 -7.55 22.65 -6.95 19.6 -4.95 23.45 -5.65 23.7 -5.5 23.7 -5.55 23.7 -5.5 22.75 -4.85 22.1 -4.45 21.55 -3.95 22.45 -3.95 23.25 -4.25 24.05 -4.65 24.5 -3.8 16.15 1.25 Q12.5 3.3 9.2 5.7 L9.65 6.15 9.95 6.6 9.95 7.45 9.25 8.75 Q9.5 9.6 10.1 10.45 11.05 11.85 10.05 13.1 9.25 13.45 8.65 14.1 M3.35 17.25 L3.3 17.25 3.25 17.25 -2.45 16.95 -3.55 16.5 -4.5 15.75 -5.4 15.1 -5.6 15.0 -6.7 16.55 -6.9 16.3 -7.0 14.8 -8.85 14.55 -10.25 17.4 Q-10.9 16.05 -10.45 14.65 L-10.1 13.95 -12.2 12.6 Q-13.4 14.1 -13.2 16.25 L-13.25 16.6 -13.65 16.0 Q-14.25 14.45 -13.9 13.15 -13.85 12.85 -14.1 12.65 L-14.5 12.9 -15.35 12.85 Q-16.5 15.05 -16.85 16.6 L-17.0 17.65 Q-18.25 15.1 -17.45 12.4 L-18.35 12.3 -19.25 14.2 -20.0 16.6 -20.3 15.0 Q-20.45 13.7 -20.1 12.55 L-20.05 12.35 -20.5 12.3 -20.05 10.75 Q-21.0 10.45 -21.75 9.55 -22.6 8.4 -21.75 7.3 L-21.25 6.85 -20.55 6.75 Q-19.3 6.75 -18.1 7.35 L-16.3 5.3 -13.95 5.4 -11.35 6.25 -10.0 5.85 -7.75 5.6 -6.8 4.95 -6.6 4.8 Q-1.95 3.1 2.95 3.85 L8.55 5.0 9.2 5.7 M2.9 7.15 L1.55 6.85 Q-2.1 6.15 -5.7 7.35 L-7.9 8.15 -8.95 8.45 -8.0 8.8 -6.15 8.85 1.35 8.4 2.85 8.2 3.25 7.3 2.9 7.15 Q3.05 6.95 3.15 7.1 L3.25 7.3 M-19.4 9.5 L-17.95 9.5 -17.35 9.15 -17.2 8.4 -16.65 8.5 -15.95 8.9 -16.05 10.15 -16.4 10.45 -17.5 11.25 -20.05 10.75 M-18.1 7.35 L-18.5 7.95 -19.4 9.5 -19.8 9.3 Q-21.0 9.15 -20.75 8.1 -20.0 7.25 -18.5 7.95 M-20.05 12.35 L-18.35 12.3 M-9.75 10.4 L-10.8 8.45 -12.15 7.95 -14.3 7.85 -13.85 9.9 M-12.95 8.75 L-12.45 10.1 M-14.1 12.65 L-12.2 12.6 M-17.45 12.4 L-16.15 12.65 -15.35 12.85 M-10.1 13.95 L-8.85 14.55 M-7.0 14.8 L-5.6 15.0 M-8.95 8.45 L-10.8 8.45 M7.0 7.15 L7.45 8.65 7.25 9.05 6.85 9.3 Q5.55 9.05 4.45 9.9 3.45 10.65 4.0 11.75 M3.25 17.25 L3.6 16.65 4.45 14.7 4.6 14.15 Q4.95 14.5 5.45 14.65 5.7 14.75 5.85 14.5 L6.1 13.5 Q6.1 13.1 5.75 12.75" fill="none" stroke="#000000" stroke-linecap="round" stroke-linejoin="round" stroke-width="0.05"/>
    <path d="M0.95 1.85 Q2.1 -6.15 4.45 -13.9 L5.1 -15.75 M6.1 2.05 Q8.45 -4.95 14.25 -9.75 L15.7 -10.9 M7.75 3.35 Q10.75 -2.25 16.55 -6.0 L17.4 -6.45 M-0.9 2.25 Q-1.95 -5.85 -1.4 -13.8 L-1.1 -16.8 M-2.4 1.3 Q-5.4 -6.2 -4.75 -14.25 L-4.8 -15.3 M-2.6 2.4 Q-8.15 -4.15 -8.6 -12.75 L-8.5 -14.4 M-4.8 2.6 Q-10.5 -3.5 -11.95 -11.85 L-12.4 -13.65 M3.15 1.65 L10.3 -12.55" fill="none" stroke="#00ff00" stroke-linecap="round" stroke-linejoin="round" stroke-width="0.05"/>
    <path d="M-7.65 5.65 L-7.15 6.75 -8.4 6.35 -9.55 7.3 -9.25 6.05 -10.45 5.6 -9.0 5.25 -8.65 3.95 -8.05 4.95 -6.5 4.6 -7.65 5.65" fill="#cccccc" fill-rule="evenodd" stroke="none"/>
    <path d="M-7.65 5.65 L-7.15 6.75 -8.4 6.35 -9.55 7.3 -9.25 6.05 -10.45 5.6 -9.0 5.25 -8.65 3.95 -8.05 4.95 -6.5 4.6 -7.65 5.65 Z" fill="none" stroke="#000000" stroke-linecap="round" stroke-linejoin="round" stroke-width="0.05"/>
  </g>
  <defs>
    <radialGradient cx="0" cy="0" gradientTransform="matrix(0.0329, 0.0, 0.0, 0.0281, 1.3, 3.65)" gradientUnits="userSpaceOnUse" id="gradient0" r="819.2" spreadMethod="pad">
      <stop offset="0.0" stop-color="#ff00ff"/>
      <stop offset="1.0" stop-color="#00ff00"/>
    </radialGradient>
  </defs>
</svg>
