<?xml version="1.0" encoding="UTF-8" standalone="no"?>
<svg xmlns:xlink="http://www.w3.org/1999/xlink" height="35.3px" width="36.5px" xmlns="http://www.w3.org/2000/svg">
  <g transform="matrix(1.0, 0.0, 0.0, 1.0, 0.0, 0.0)">
    <path d="M7.45 4.65 L8.55 5.0 9.65 6.15 9.95 6.6 9.95 7.45 9.25 8.75 Q9.5 9.6 10.1 10.45 11.05 11.85 10.05 13.1 9.25 13.45 8.65 14.1 8.15 14.6 7.75 15.25 7.15 16.3 6.0 16.65 L3.35 17.25 3.3 17.25 3.25 17.25 -2.45 16.95 -3.55 16.5 -4.5 15.75 -4.4 15.3 Q-4.85 14.4 -5.85 13.85 L-7.0 12.9 -7.8 11.9 -8.35 10.95 -8.55 10.75 -9.25 9.75 -9.8 8.65 -10.0 8.5 -10.25 8.45 -10.8 8.45 -10.9 8.45 -13.2 6.85 -13.35 6.15 -13.45 5.6 -11.35 6.25 -10.0 5.85 -7.75 5.6 -6.8 4.95 Q-5.45 3.9 -3.8 3.9 L-2.15 3.65 -0.4 3.2 Q1.25 2.95 2.9 3.65 L4.55 4.25 6.7 4.45 7.45 4.65 M1.2 4.9 L0.9 5.35 0.35 6.2 0.0 6.65 0.35 6.2 0.9 5.35 1.2 4.9 M2.8 8.25 L2.85 8.2 2.9 8.05 3.25 7.3 3.15 7.1 Q3.05 6.95 2.9 7.15 L1.4 6.8 0.0 6.65 Q-2.85 6.4 -5.7 7.35 L-7.9 8.15 -8.95 8.45 -8.7 8.6 -8.0 8.8 -7.75 8.9 -5.35 10.9 Q-4.05 11.9 -3.3 11.95 L-1.3 12.2 Q-0.15 11.95 0.9 11.0 L2.8 8.25 M4.0 11.75 Q3.45 10.65 4.45 9.9 5.55 9.05 6.85 9.3 L7.25 9.05 7.45 8.65 7.0 7.15 7.45 8.65 7.25 9.05 6.85 9.3 Q5.55 9.05 4.45 9.9 3.45 10.65 4.0 11.75 M2.1 5.45 L1.4 6.8 2.1 5.45 M5.75 12.75 Q6.1 13.1 6.1 13.5 L5.85 14.5 Q5.7 14.75 5.45 14.65 4.95 14.5 4.6 14.15 L4.45 14.7 3.6 16.65 3.25 17.25 3.6 16.65 4.45 14.7 4.6 14.15 Q4.95 14.5 5.45 14.65 5.7 14.75 5.85 14.5 L6.1 13.5 Q6.1 13.1 5.75 12.75 M-10.25 8.45 L-8.95 8.45 -10.25 8.45" fill="#5f5354" fill-rule="evenodd" stroke="none"/>
    <path d="M-4.5 15.75 L-5.6 15.0 -6.7 16.55 -6.9 16.3 -7.0 14.8 -8.85 14.55 -10.25 17.4 Q-10.9 16.05 -10.45 14.65 L-10.1 13.95 -12.2 12.6 Q-13.4 14.1 -13.2 16.25 L-13.25 16.6 -13.65 16.0 Q-14.25 14.45 -13.9 13.15 -13.85 12.85 -14.1 12.65 L-14.5 12.9 -15.35 12.85 Q-16.5 15.05 -16.85 16.6 L-17.0 17.65 Q-18.25 15.1 -17.45 12.4 L-18.35 12.3 -19.25 14.2 -20.0 16.6 -20.3 15.0 Q-20.45 13.7 -20.1 12.55 L-20.05 12.35 -20.5 12.3 -20.05 10.75 Q-19.4 9.15 -18.35 7.75 L-16.45 5.45 -13.35 6.15 -13.2 6.85 -10.9 8.45 Q-11.2 9.3 -10.75 10.15 L-9.6 10.95 Q-8.95 11.4 -8.35 10.95 L-7.8 11.9 -7.0 12.9 -5.85 13.85 Q-4.85 14.4 -4.4 15.3 L-4.5 15.75 M-20.05 12.35 L-18.35 12.3 -20.05 12.35 M-17.7 8.95 L-17.8 9.05 Q-16.85 10.0 -15.35 10.4 L-13.75 10.65 -12.95 10.5 -12.7 9.75 -13.15 8.35 Q-14.15 7.8 -15.65 7.55 -17.15 7.55 -17.7 8.95 M-7.0 14.8 L-5.6 15.0 -7.0 14.8 M-10.1 13.95 L-8.85 14.55 -10.1 13.95 M-17.45 12.4 L-15.35 12.85 -17.45 12.4 M-14.1 12.65 L-12.2 12.6 -14.1 12.65" fill="#552811" fill-rule="evenodd" stroke="none"/>
    <path d="M8.75 -6.3 L7.9 -7.25 8.75 -6.3 M4.55 4.25 L5.05 2.4 6.1 -0.55 7.4 -5.15 7.75 -6.55 7.8 -6.7 7.9 -7.25 Q9.0 -12.45 9.15 -17.65 L10.15 -8.5 10.3 -6.1 10.2 -3.6 10.0 -3.55 9.5 -2.95 9.25 -2.25 9.95 -1.5 7.45 4.65 6.7 4.45 4.55 4.25 M8.55 5.0 Q11.15 0.65 13.9 -3.55 L14.75 -4.85 15.25 -5.05 15.35 -5.05 Q14.9 -3.2 14.85 -1.3 L14.9 -0.85 15.55 -1.3 15.65 -1.3 15.85 -0.9 16.0 -0.25 16.0 -0.2 11.45 5.1 Q11.05 5.55 10.8 6.1 L9.9 6.4 9.65 6.15 8.55 5.0 M-0.4 3.2 Q0.8 1.45 -0.75 -2.95 -2.35 -7.35 -9.6 -3.65 -3.25 -9.2 -1.5 -7.1 L0.95 -4.3 1.65 -3.15 1.7 -2.35 3.2 -2.45 Q3.85 0.2 2.9 3.65 1.25 2.95 -0.4 3.2 M8.5 -5.45 L7.75 -6.55 8.5 -5.45" fill="url(#gradient0)" fill-rule="evenodd" stroke="none"/>
    <path d="M2.8 8.25 L2.9 8.05 2.8 8.25 1.55 8.9 Q0.65 10.3 -0.9 10.6 -2.45 10.9 -4.15 10.2 -5.85 9.5 -7.75 8.9 L-8.0 8.8 -8.7 8.6 -8.95 8.45 -7.9 8.15 -5.7 7.35 Q-2.85 6.4 0.0 6.65 L1.4 6.8 2.9 7.15 3.25 7.3 2.9 8.05 2.85 8.2 2.8 8.25 M-7.75 8.9 Q-8.2 8.6 -8.7 8.6 -8.2 8.6 -7.75 8.9" fill="#ffffff" fill-rule="evenodd" stroke="none"/>
    <path d="M-7.75 8.9 Q-5.85 9.5 -4.15 10.2 -2.45 10.9 -0.9 10.6 0.65 10.3 1.55 8.9 L2.8 8.25 0.9 11.0 Q-0.15 11.95 -1.3 12.2 L-3.3 11.95 Q-4.05 11.9 -5.35 10.9 L-7.75 8.9" fill="#000000" fill-rule="evenodd" stroke="none"/>
    <path d="M7.45 4.65 L8.55 5.0 M9.9 6.4 L9.95 6.6 9.95 7.45 9.25 8.75 Q9.5 9.6 10.1 10.45 11.05 11.85 10.05 13.1 9.25 13.45 8.65 14.1 M3.35 17.25 L3.3 17.25 3.25 17.25 -2.45 16.95 -3.55 16.5 -4.5 15.75 -5.6 15.0 -6.7 16.55 -6.9 16.3 -7.0 14.8 -8.85 14.55 -10.25 17.4 Q-10.9 16.05 -10.45 14.65 L-10.1 13.95 -12.2 12.6 Q-13.4 14.1 -13.2 16.25 L-13.25 16.6 -13.65 16.0 Q-14.25 14.45 -13.9 13.15 -13.85 12.85 -14.1 12.65 L-14.5 12.9 -15.35 12.85 Q-16.5 15.05 -16.85 16.6 L-17.0 17.65 Q-18.25 15.1 -17.45 12.4 L-18.35 12.3 -19.25 14.2 -20.0 16.6 -20.3 15.0 Q-20.45 13.7 -20.1 12.55 L-20.05 12.35 -20.5 12.3 -20.05 10.75 M-16.45 5.45 L-13.35 6.15 -13.45 5.6 M6.7 4.45 L7.45 4.65 M0.0 6.65 L0.35 6.2 0.9 5.35 1.2 4.9 M2.8 8.25 L2.85 8.2 2.9 8.05 3.25 7.3 2.9 7.15 1.4 6.8 0.0 6.65 Q-2.85 6.4 -5.7 7.35 L-7.9 8.15 -8.95 8.45 -8.7 8.6 -8.0 8.8 -7.75 8.9 Q-5.85 9.5 -4.15 10.2 -2.45 10.9 -0.9 10.6 0.65 10.3 1.55 8.9 L2.8 8.25 M3.25 7.3 L3.15 7.1 Q3.05 6.95 2.9 7.15 M7.0 7.15 L7.45 8.65 7.25 9.05 6.85 9.3 Q5.55 9.05 4.45 9.9 3.45 10.65 4.0 11.75 M9.65 6.15 L9.95 6.6 M1.4 6.8 L2.1 5.45 M-8.35 10.95 Q-8.95 11.4 -9.6 10.95 L-10.75 10.15 Q-11.2 9.3 -10.9 8.45 L-10.8 8.45 -10.25 8.45 -8.95 8.45 M-18.35 12.3 L-20.05 12.35 M-17.7 8.95 L-17.8 9.05 Q-16.85 10.0 -15.35 10.4 L-13.75 10.65 -12.95 10.5 -12.7 9.75 -13.15 8.35 Q-14.15 7.8 -15.65 7.55 -17.15 7.55 -17.7 8.95 M-12.2 12.6 L-14.1 12.65 M-15.35 12.85 L-17.45 12.4 M-8.85 14.55 L-10.1 13.95 M-5.6 15.0 L-7.0 14.8 M2.9 3.65 Q1.25 2.95 -0.4 3.2" fill="none" stroke="#000000" stroke-linecap="round" stroke-linejoin="round" stroke-width="0.05"/>
    <path d="M-20.05 10.75 Q-19.4 9.15 -18.35 7.75 L-16.45 5.45 M-13.45 5.6 L-11.35 6.25 -10.0 5.85 -7.75 5.6 -6.8 4.95 Q-5.45 3.9 -3.8 3.9 L-2.15 3.65 -0.4 3.2 M2.9 3.65 L4.55 4.25 6.7 4.45 M9.65 6.15 L8.55 5.0 M3.25 17.25 L3.6 16.65 4.45 14.7 4.6 14.15 Q4.95 14.5 5.45 14.65 5.7 14.75 5.85 14.5 L6.1 13.5 Q6.1 13.1 5.75 12.75" fill="none" stroke="#000000" stroke-linecap="round" stroke-linejoin="round" stroke-width="0.05"/>
    <path d="M9.9 6.4 L9.65 6.15" fill="none" stroke="#66ff66" stroke-linecap="round" stroke-linejoin="round" stroke-width="0.05"/>
    <path d="M-10.25 8.45 L-10.0 8.5 -9.8 8.65 -9.25 9.75 -8.55 10.75 -8.35 10.95 -7.8 11.9 -7.0 12.9 -5.85 13.85 Q-4.85 14.4 -4.4 15.3 L-4.5 15.75 M-10.9 8.45 L-13.2 6.85 -13.35 6.15" fill="none" stroke="#006600" stroke-linecap="round" stroke-linejoin="round" stroke-width="1.0"/>
    <path d="M7.9 -7.25 L8.75 -6.3 M4.55 4.25 L5.05 2.4 6.1 -0.55 7.4 -5.15 7.75 -6.55 7.8 -6.7 7.9 -7.25 Q9.0 -12.45 9.15 -17.65 L10.15 -8.5 10.3 -6.1 10.2 -3.6 10.0 -3.55 9.5 -2.95 9.25 -2.25 9.95 -1.5 7.45 4.65 M8.55 5.0 Q11.15 0.65 13.9 -3.55 L14.75 -4.85 15.25 -5.05 15.35 -5.05 Q14.9 -3.2 14.85 -1.3 L14.9 -0.85 15.55 -1.3 15.65 -1.3 15.85 -0.9 16.0 -0.25 16.0 -0.2 11.45 5.1 Q11.05 5.55 10.8 6.1 L9.9 6.4 M-0.4 3.2 Q0.8 1.45 -0.75 -2.95 -2.35 -7.35 -9.6 -3.65 -3.25 -9.2 -1.5 -7.1 L0.95 -4.3 1.65 -3.15 1.7 -2.35 3.2 -2.45 Q3.85 0.2 2.9 3.65 M7.75 -6.55 L8.5 -5.45 M2.9 8.05 L2.8 8.25 M-8.7 8.6 Q-8.2 8.6 -7.75 8.9" fill="none" stroke="#003c00" stroke-linecap="round" stroke-linejoin="round" stroke-width="0.05"/>
  </g>
  <defs>
    <linearGradient gradientTransform="matrix(0.002, -0.0114, 0.0119, 0.002, 16.75, -4.75)" gradientUnits="userSpaceOnUse" id="gradient0" spreadMethod="pad" x1="-819.2" x2="819.2">
      <stop offset="0.0" stop-color="#26561d" stop-opacity="0.67058825"/>
      <stop offset="1.0" stop-color="#399f39" stop-opacity="0.2"/>
    </linearGradient>
  </defs>
</svg>
