<?xml version="1.0" encoding="UTF-8" standalone="no"?>
<svg xmlns:xlink="http://www.w3.org/1999/xlink" height="24.65px" width="27.8px" xmlns="http://www.w3.org/2000/svg">
  <g transform="matrix(1.0, 0.0, 0.0, 1.0, 0.0, 0.0)">
    <path d="M2.45 0.4 L4.1 0.85 Q7.75 2.15 10.5 4.6 L12.9 6.75 Q12.0 6.65 11.8 8.5 L11.45 10.35 11.8 8.5 Q12.0 6.65 12.9 6.75 L10.5 4.6 Q7.75 2.15 4.1 0.85 L2.45 0.4 Q12.2 0.8 18.7 9.0 25.15 17.15 28.1 25.05 16.75 22.4 11.75 13.1 6.75 3.8 0.3 0.4 L2.45 0.4 M17.0 13.1 L14.8 9.2 14.3 8.5 12.9 6.75 14.3 8.5 14.8 9.2 17.8 9.55 14.8 9.2 17.0 13.1 19.8 13.25 Q20.9 13.85 21.45 15.1 20.9 13.85 19.8 13.25 L17.0 13.1 17.15 13.4 17.5 14.05 17.15 13.4 17.0 13.1 M17.2 18.85 L16.85 17.35 Q16.5 15.75 17.5 14.05 L20.0 18.25 21.5 20.25 20.0 18.25 17.5 14.05 Q16.5 15.75 16.85 17.35 L17.2 18.85 M10.5 4.6 L11.9 4.1 10.5 4.6" fill="#4d7437" fill-rule="evenodd" stroke="none"/>
    <path d="M11.45 10.35 L11.8 8.5 Q12.0 6.65 12.9 6.75 L10.5 4.6 Q7.75 2.15 4.1 0.85 L2.45 0.4 0.3 0.4 Q6.75 3.8 11.75 13.1 16.75 22.4 28.1 25.05 25.15 17.15 18.7 9.0 12.2 0.8 2.45 0.4 M12.9 6.75 L14.3 8.5 14.8 9.2 17.8 9.55 M11.9 4.1 L10.5 4.6 M21.5 20.25 L20.0 18.25 17.5 14.05 Q16.5 15.75 16.85 17.35 L17.2 18.85 M21.45 15.1 Q20.9 13.85 19.8 13.25 L17.0 13.1 17.15 13.4 17.5 14.05 M14.8 9.2 L17.0 13.1" fill="none" stroke="#000000" stroke-linecap="round" stroke-linejoin="round" stroke-width="0.05"/>
  </g>
</svg>
