<?xml version="1.0" encoding="UTF-8" standalone="no"?>
<svg xmlns:xlink="http://www.w3.org/1999/xlink" height="26.55px" width="29.85px" xmlns="http://www.w3.org/2000/svg">
  <g transform="matrix(1.0, 0.0, 0.0, 1.0, 0.0, 0.0)">
    <path d="M20.5 10.2 L20.05 10.55 Q19.5 10.35 19.15 10.85 19.2 11.6 19.4 12.0 L18.05 11.4 Q17.95 11.95 17.15 11.8 L21.55 17.6 22.1 18.5 21.35 18.0 18.25 15.9 15.45 14.55 13.55 13.35 Q12.45 12.35 12.0 10.9 L11.4 9.05 10.95 7.45 10.45 6.05 Q9.65 4.35 8.35 2.85 L8.25 2.5 9.9 3.1 11.7 5.95 12.95 7.9 14.25 9.8 15.8 11.6 14.25 9.8 12.95 7.9 11.7 5.95 9.9 3.1 Q11.1 3.45 12.05 4.35 L13.85 6.2 15.4 7.55 Q16.9 8.65 18.6 9.45 L20.5 10.2 M20.45 18.9 L18.75 18.6 19.05 19.7 18.95 19.75 19.95 21.25 20.2 21.65 16.8 20.9 14.65 20.2 18.4 25.9 16.75 25.25 Q14.75 24.5 13.65 22.6 L12.35 20.1 Q11.75 18.95 10.75 18.3 L9.7 17.55 9.25 17.0 8.3 15.5 6.45 13.75 6.1 13.35 5.6 12.0 Q5.4 10.9 5.6 9.7 L6.0 6.15 5.95 5.55 5.65 4.4 5.1 2.85 8.6 4.5 Q9.05 5.55 9.1 6.75 L9.25 10.05 Q9.35 11.95 10.85 13.1 L13.5 15.1 15.4 16.3 17.7 17.45 20.5 18.85 20.45 18.9 M12.95 6.5 L15.1 8.95 12.95 6.5 M7.7 5.15 L8.0 6.75 8.7 9.85 Q9.15 11.45 10.0 12.85 10.95 14.45 12.45 15.4 L15.1 17.25 12.45 15.4 Q10.95 14.45 10.0 12.85 9.15 11.45 8.7 9.85 L8.0 6.75 7.7 5.15 M6.35 4.4 Q6.85 5.4 6.85 6.45 6.8 8.15 6.9 9.85 7.0 11.5 7.65 12.7 L8.65 14.2 7.65 12.7 Q7.0 11.5 6.9 9.85 6.8 8.15 6.85 6.45 6.85 5.4 6.35 4.4" fill="#0000ff" fill-opacity="0.48235294" fill-rule="evenodd" stroke="none"/>
    <path d="M20.95 26.65 L18.9 26.45 Q17.0 25.95 15.3 25.1 13.9 24.4 12.65 23.45 L11.25 22.05 8.75 19.0 7.0 16.85 4.45 14.1 3.95 13.55 4.15 9.3 4.25 6.75 4.0 3.8 4.0 3.55 1.5 1.25 0.65 0.55 0.5 0.35 Q0.55 0.2 0.8 0.15 L3.9 0.2 4.95 0.55 5.55 0.9 5.65 1.0 6.3 0.8 7.6 1.4 8.0 1.7 9.45 1.95 11.2 2.1 12.55 2.3 13.4 3.15 14.7 5.05 15.6 6.1 17.15 7.35 19.4 8.65 22.45 9.65 25.25 10.4 Q26.25 10.6 27.05 11.05 L27.2 11.15 26.15 11.3 22.9 10.9 20.5 10.2 18.6 9.45 Q16.9 8.65 15.4 7.55 L13.85 6.2 12.05 4.35 Q11.1 3.45 9.9 3.1 L8.25 2.5 8.35 2.85 Q9.65 4.35 10.45 6.05 L10.95 7.45 11.4 9.05 12.0 10.9 Q12.45 12.35 13.55 13.35 L15.45 14.55 18.25 15.9 21.35 18.0 22.1 18.5 22.35 18.8 22.65 18.85 Q24.0 20.0 25.3 20.6 26.9 21.35 28.55 21.4 L30.35 21.45 30.25 21.6 30.1 21.7 29.75 21.9 29.4 22.25 29.15 22.55 Q27.15 22.85 25.4 22.1 L22.3 20.2 20.55 18.85 20.5 18.85 17.7 17.45 15.4 16.3 13.5 15.1 10.85 13.1 Q9.35 11.95 9.25 10.05 L9.1 6.75 Q9.05 5.55 8.6 4.5 L5.1 2.85 5.65 4.4 5.95 5.55 6.0 6.15 5.6 9.7 Q5.4 10.9 5.6 12.0 L6.1 13.35 6.45 13.75 8.3 15.5 9.25 17.0 9.7 17.55 10.75 18.3 Q11.75 18.95 12.35 20.1 L13.65 22.6 Q14.75 24.5 16.75 25.25 L18.4 25.9 20.95 26.65" fill="url(#gradient0)" fill-rule="evenodd" stroke="none"/>
    <path d="M20.95 26.65 L18.9 26.45 Q17.0 25.95 15.3 25.1 13.9 24.4 12.65 23.45 L11.25 22.05 8.75 19.0 7.0 16.85 4.45 14.1 3.95 13.55 4.15 9.3 4.25 6.75 4.0 3.8 4.0 3.55 1.5 1.25 0.65 0.55 0.5 0.35 Q0.55 0.2 0.8 0.15 L3.9 0.2 4.95 0.55 5.55 0.9 5.65 1.0 6.3 0.8 7.6 1.4 8.0 1.7 9.45 1.95 11.2 2.1 12.55 2.3 13.4 3.15 14.7 5.05 15.6 6.1 17.15 7.35 19.4 8.65 22.45 9.65 25.25 10.4 Q26.25 10.6 27.05 11.05 L27.2 11.15 26.15 11.3 22.9 10.9 20.5 10.2 20.05 10.55 Q19.5 10.35 19.15 10.85 19.2 11.6 19.4 12.0 L18.05 11.4 Q17.95 11.95 17.15 11.8 L21.55 17.6 22.1 18.5 22.65 18.85 Q24.0 20.0 25.3 20.6 26.9 21.35 28.55 21.4 L30.35 21.45 30.25 21.6 30.1 21.7 29.75 21.9 29.4 22.25 29.15 22.55 Q27.15 22.85 25.4 22.1 L22.3 20.2 20.55 18.85 20.45 18.9 18.75 18.6 19.05 19.7 18.95 19.75 19.95 21.25 20.2 21.65 16.8 20.9 14.65 20.2 18.4 25.9 20.95 26.65 21.0 26.65 20.95 26.65 M9.9 3.1 L8.25 2.5 8.35 2.85 Q9.65 4.35 10.45 6.05 L10.95 7.45 11.4 9.05 12.0 10.9 Q12.45 12.35 13.55 13.35 L15.45 14.55 18.25 15.9 21.35 18.0 22.1 18.5 22.35 18.8 22.65 18.85 M20.55 18.85 L20.5 18.85 17.7 17.45 15.4 16.3 13.5 15.1 10.85 13.1 Q9.35 11.95 9.25 10.05 L9.1 6.75 Q9.05 5.55 8.6 4.5 L5.1 2.85 5.65 4.4 5.95 5.55 6.0 6.15 5.6 9.7 Q5.4 10.9 5.6 12.0 L6.1 13.35 6.45 13.75 8.3 15.5 9.25 17.0 9.7 17.55 10.75 18.3 Q11.75 18.95 12.35 20.1 L13.65 22.6 Q14.75 24.5 16.75 25.25 L18.4 25.9 M9.9 3.1 L11.7 5.95 12.95 7.9 14.25 9.8 15.8 11.6 M15.1 8.95 L12.95 6.5 M20.5 10.2 L18.6 9.45 Q16.9 8.65 15.4 7.55 L13.85 6.2 12.05 4.35 Q11.1 3.45 9.9 3.1 M8.65 14.2 L7.65 12.7 Q7.0 11.5 6.9 9.85 6.8 8.15 6.85 6.45 6.85 5.4 6.35 4.4 M15.1 17.25 L12.45 15.4 Q10.95 14.45 10.0 12.85 9.15 11.45 8.7 9.85 L8.0 6.75 7.7 5.15" fill="none" stroke="#000000" stroke-linecap="round" stroke-linejoin="round" stroke-width="0.05"/>
  </g>
  <defs>
    <radialGradient cx="0" cy="0" gradientTransform="matrix(0.0379, 0.0, 0.0, 0.0315, 26.2, 19.95)" gradientUnits="userSpaceOnUse" id="gradient0" r="819.2" spreadMethod="pad">
      <stop offset="0.0" stop-color="#b39c88"/>
      <stop offset="0.43137254901960786" stop-color="#97786c"/>
      <stop offset="1.0" stop-color="#4b352e"/>
    </radialGradient>
  </defs>
</svg>
