<?xml version="1.0" encoding="UTF-8" standalone="no"?>
<svg xmlns:xlink="http://www.w3.org/1999/xlink" height="22.85px" width="21.25px" xmlns="http://www.w3.org/2000/svg">
  <g transform="matrix(1.0, 0.0, 0.0, 1.0, 0.0, 0.0)">
    <path d="M0.65 0.2 Q1.9 -0.35 3.5 -0.15 L4.45 -0.3 6.55 2.35 6.75 2.6 Q7.35 4.3 8.75 5.45 L10.2 6.8 Q11.5 7.7 12.4 8.9 L14.0 11.75 Q14.8 13.4 14.05 15.1 13.55 16.3 12.25 16.1 10.4 15.95 9.55 14.3 L8.7 12.4 8.7 12.35 7.7 9.8 6.2 6.25 4.8 3.7 4.05 2.55 Q3.05 1.4 1.65 0.55 L0.65 0.2" fill="#2b3155" fill-rule="evenodd" stroke="none"/>
    <path d="M6.75 2.6 L9.95 4.7 12.0 6.45 12.3 6.95 12.75 7.9 14.9 8.15 14.7 8.7 15.3 9.9 16.2 9.85 17.75 12.55 17.85 12.65 19.05 12.85 17.85 14.15 17.7 14.4 17.95 14.5 18.4 14.55 18.9 14.55 21.5 17.0 21.9 18.3 Q21.65 19.75 20.6 20.8 L18.8 22.2 17.8 22.55 Q15.4 22.55 13.1 21.6 10.05 20.35 8.1 17.5 6.4 14.9 6.15 11.75 L5.6 8.15 Q5.0 5.3 4.05 2.55 L4.8 3.7 6.2 6.25 7.7 9.8 8.7 12.35 8.65 12.4 8.7 12.4 9.55 14.3 Q10.4 15.95 12.25 16.1 13.55 16.3 14.05 15.1 14.8 13.4 14.0 11.75 L12.4 8.9 Q11.5 7.7 10.2 6.8 L10.75 6.3 10.2 6.8 8.75 5.45 Q7.35 4.3 6.75 2.6 M14.05 10.25 L14.6 10.1 14.05 10.25 M13.7 21.35 Q12.95 19.9 12.6 18.3 L12.25 16.1 12.6 18.3 Q12.95 19.9 13.7 21.35 M14.45 16.05 L17.4 18.1 Q18.9 19.05 20.75 19.5 18.9 19.05 17.4 18.1 L14.45 16.05 M15.0 13.65 L17.05 13.75 15.0 13.65 M8.55 16.5 Q8.0 15.1 8.3 13.65 8.4 13.0 8.65 12.4 8.4 13.0 8.3 13.65 8.0 15.1 8.55 16.5" fill="#cfb59c" fill-opacity="0.6" fill-rule="evenodd" stroke="none"/>
    <path d="M4.45 -0.3 L6.55 2.35 6.75 2.6 9.95 4.7 12.0 6.45 12.3 6.95 12.75 7.9 14.9 8.15 14.7 8.7 15.3 9.9 16.2 9.85 17.75 12.55 17.85 12.65 19.05 12.85 17.85 14.15 17.7 14.4 17.95 14.5 18.4 14.55 18.9 14.55 21.5 17.0 21.9 18.3 Q21.65 19.75 20.6 20.8 L18.8 22.2 17.8 22.55 Q15.4 22.55 13.1 21.6 10.05 20.35 8.1 17.5 6.4 14.9 6.15 11.75 L5.6 8.15 Q5.0 5.3 4.05 2.55 3.05 1.4 1.65 0.55 L0.65 0.2 M10.2 6.8 Q11.5 7.7 12.4 8.9 L14.0 11.75 Q14.8 13.4 14.05 15.1 13.55 16.3 12.25 16.1 L12.6 18.3 Q12.95 19.9 13.7 21.35 M14.6 10.1 L14.05 10.25 M10.2 6.8 L10.75 6.3 M6.75 2.6 Q7.35 4.3 8.75 5.45 L10.2 6.8 M4.05 2.55 L4.8 3.7 6.2 6.25 7.7 9.8 8.7 12.35 8.7 12.4 9.55 14.3 Q10.4 15.95 12.25 16.1 M8.65 12.4 Q8.4 13.0 8.3 13.65 8.0 15.1 8.55 16.5 M17.05 13.75 L15.0 13.65 M20.75 19.5 Q18.9 19.05 17.4 18.1 L14.45 16.05 M8.7 12.35 L8.65 12.4" fill="none" stroke="#000000" stroke-linecap="round" stroke-linejoin="round" stroke-width="0.05"/>
  </g>
</svg>
