<?xml version="1.0" encoding="UTF-8" standalone="no"?>
<svg xmlns:xlink="http://www.w3.org/1999/xlink" height="29.55px" width="29.8px" xmlns="http://www.w3.org/2000/svg">
  <g transform="matrix(1.0, 0.0, 0.0, 1.0, 0.0, 0.0)">
    <path d="M17.95 18.75 L18.7 18.85 Q19.4 19.05 21.05 20.1 22.7 21.1 25.8 22.25 L24.15 21.85 20.85 21.05 17.1 19.85 Q16.05 19.45 15.4 18.7 L12.55 16.2 10.0 14.15 7.8 11.55 6.9 9.8 Q6.0 8.15 5.75 6.45 3.95 6.65 3.0 8.9 L3.05 11.25 2.75 11.65 3.55 12.35 3.75 13.9 Q4.6 18.4 7.7 20.0 L7.9 20.05 8.35 20.25 7.95 21.05 Q8.6 21.15 8.9 21.7 L9.95 23.35 Q10.7 24.5 12.15 24.9 13.55 25.3 14.15 25.9 15.85 27.55 17.3 28.25 L19.55 29.5 18.1 29.15 15.25 27.85 Q10.8 25.75 7.25 22.1 5.3 20.0 4.15 17.75 L3.85 17.1 Q2.75 14.65 2.4 13.25 L2.35 13.05 1.85 10.8 1.6 9.7 -0.95 9.4 -0.5 11.75 0.45 13.45 0.85 13.6 1.3 14.5 Q-0.3 15.15 0.25 17.95 0.05 18.75 0.65 19.8 L1.65 21.25 Q-0.4 19.7 -0.55 19.1 -0.75 18.15 -0.3 16.35 0.1 14.55 -0.95 12.2 -2.0 9.85 -2.8 8.8 L-4.0 6.85 -3.3 5.95 -2.5 5.25 -2.0 5.05 -2.45 5.85 -2.6 7.55 Q0.25 9.05 1.75 8.4 3.3 7.75 3.75 5.95 4.15 4.15 4.0 3.3 L3.75 1.7 5.0 -0.05 6.5 2.55 5.2 4.8 6.5 4.85 Q7.65 5.2 8.75 5.7 9.1 5.75 9.4 6.05 L10.05 7.05 11.9 7.8 Q12.55 8.1 13.25 8.75 13.95 9.35 15.3 9.65 L17.85 10.1 15.45 10.2 12.15 8.85 Q10.6 8.15 9.9 8.3 8.8 6.6 7.3 6.55 L7.45 7.55 Q7.65 8.85 8.4 10.2 8.5 10.9 8.95 11.5 L10.45 13.3 12.9 15.45 15.25 17.35 Q16.4 18.5 17.95 18.75" fill="#755a34" fill-rule="evenodd" stroke="none"/>
    <path d="M17.95 18.75 Q16.4 18.5 15.25 17.35 L12.9 15.45 10.45 13.3 8.95 11.5 Q8.5 10.9 8.4 10.2 L8.8 9.15 9.9 9.4 9.9 8.3 Q10.6 8.15 12.15 8.85 L15.45 10.2 15.6 11.05 13.7 11.35 14.45 12.1 12.85 11.75 Q13.6 12.95 14.0 14.25 14.35 15.55 15.4 16.65 L17.95 18.75 M0.65 19.8 Q0.05 18.75 0.25 17.95 -0.3 15.15 1.3 14.5 L0.85 13.6 0.45 13.45 -0.5 11.75 -0.95 9.4 1.6 9.7 1.85 10.8 1.15 12.75 1.9 12.3 1.95 12.7 Q2.0 13.05 2.4 13.25 2.75 14.65 3.85 17.1 L4.15 17.75 3.6 17.6 3.05 17.05 2.75 17.0 2.75 17.5 2.45 17.9 2.15 17.6 2.0 17.4 1.85 17.15 1.75 16.95 1.65 16.75 1.5 16.5 Q1.35 16.4 1.35 16.65 L1.2 17.5 0.85 18.8 0.8 19.0 0.65 19.8 M14.15 25.9 Q13.55 25.3 12.15 24.9 10.7 24.5 9.95 23.35 L8.9 21.7 Q8.6 21.15 7.95 21.05 L8.35 20.25 7.9 20.05 7.7 20.0 7.05 18.0 6.6 17.9 6.45 17.75 6.3 17.75 Q5.1 15.25 4.55 12.4 L3.75 13.9 3.55 12.35 2.75 11.65 3.05 11.25 3.0 8.9 Q3.95 6.65 5.75 6.45 6.0 8.15 6.9 9.8 L7.8 11.55 6.75 11.75 Q7.3 13.65 8.35 15.4 L8.7 15.75 8.35 14.4 9.65 14.65 9.85 14.5 10.0 14.15 12.55 16.2 15.4 18.7 14.15 18.3 14.0 18.55 14.0 18.8 15.0 19.9 14.5 20.05 12.3 19.0 12.5 19.75 11.75 19.45 10.95 19.05 9.9 18.25 11.1 20.2 Q11.65 21.2 11.6 22.25 11.55 23.3 14.15 25.9" fill="#45027d" fill-opacity="0.6117647" fill-rule="evenodd" stroke="none"/>
    <path d="M15.4 18.7 Q16.05 19.45 17.1 19.85 L20.85 21.05 24.15 21.85 25.8 22.25 Q22.7 21.1 21.05 20.1 19.4 19.05 18.7 18.85 L17.95 18.75 Q16.4 18.5 15.25 17.35 L12.9 15.45 10.45 13.3 8.95 11.5 Q8.5 10.9 8.4 10.2 7.65 8.85 7.45 7.55 L7.3 6.55 Q8.8 6.6 9.9 8.3 10.6 8.15 12.15 8.85 L15.45 10.2 17.85 10.1 15.3 9.65 Q13.95 9.35 13.25 8.75 12.55 8.1 11.9 7.8 L10.05 7.05 9.4 6.05 Q9.1 5.75 8.75 5.7 7.65 5.2 6.5 4.85 L5.2 4.8 6.5 2.55 5.0 -0.05 3.75 1.7 4.0 3.3 Q4.15 4.15 3.75 5.95 3.3 7.75 1.75 8.4 0.25 9.05 -2.6 7.55 L-2.45 5.85 -2.0 5.05 -2.5 5.25 -3.3 5.95 -4.0 6.85 -2.8 8.8 Q-2.0 9.85 -0.95 12.2 0.1 14.55 -0.3 16.35 -0.75 18.15 -0.55 19.1 -0.4 19.7 1.65 21.25 L0.65 19.8 Q0.05 18.75 0.25 17.95 -0.3 15.15 1.3 14.5 L0.85 13.6 0.45 13.45 -0.5 11.75 -0.95 9.4 1.6 9.7 1.85 10.8 2.35 13.05 2.4 13.25 Q2.75 14.65 3.85 17.1 L4.15 17.75 Q5.3 20.0 7.25 22.1 10.8 25.75 15.25 27.85 L18.1 29.15 19.55 29.5 17.3 28.25 Q15.85 27.55 14.15 25.9 13.55 25.3 12.15 24.9 10.7 24.5 9.95 23.35 L8.9 21.7 Q8.6 21.15 7.95 21.05 L8.35 20.25 7.9 20.05 7.7 20.0 Q4.6 18.4 3.75 13.9 L3.55 12.35 2.75 11.65 3.05 11.25 3.0 8.9 Q3.95 6.65 5.75 6.45 6.0 8.15 6.9 9.8 L7.8 11.55 10.0 14.15 12.55 16.2 15.4 18.7 14.15 18.3 14.0 18.55 14.0 18.8 15.0 19.9 14.5 20.05 12.3 19.0 12.5 19.75 11.75 19.45 10.95 19.05 9.9 18.25 11.1 20.2 Q11.65 21.2 11.6 22.25 11.55 23.3 14.15 25.9 M17.95 18.75 L15.4 16.65 Q14.35 15.55 14.0 14.25 13.6 12.95 12.85 11.75 L14.45 12.1 13.7 11.35 15.6 11.05 15.45 10.2 M9.9 8.3 L9.9 9.4 8.8 9.15 8.4 10.2 M7.8 11.55 L6.75 11.75 Q7.3 13.65 8.35 15.4 L8.7 15.75 8.35 14.4 9.65 14.65 9.85 14.5 10.0 14.15 M3.75 13.9 L4.55 12.4 Q5.1 15.25 6.3 17.75 L6.45 17.75 6.6 17.9 7.05 18.0 7.7 20.0 M1.85 10.8 L1.15 12.75 1.9 12.3 1.95 12.7 Q2.0 13.05 2.4 13.25 M0.65 19.8 L0.8 19.0 0.85 18.8 1.2 17.5 1.35 16.65 Q1.35 16.4 1.5 16.5 L1.65 16.75 1.75 16.95 1.85 17.15 2.0 17.4 2.15 17.6 2.45 17.9 2.75 17.5 2.75 17.0 3.05 17.05 3.6 17.6 4.15 17.75" fill="none" stroke="#000000" stroke-linecap="round" stroke-linejoin="round" stroke-width="0.05"/>
  </g>
</svg>
