<?xml version="1.0" encoding="UTF-8" standalone="no"?>
<svg xmlns:xlink="http://www.w3.org/1999/xlink" height="24.7px" width="9.75px" xmlns="http://www.w3.org/2000/svg">
  <g transform="matrix(1.0, 0.0, 0.0, 1.0, 0.0, 0.0)">
    <path d="M3.35 2.45 Q4.35 5.85 4.05 9.35 L3.85 11.95 4.45 14.65 5.6 17.1 7.2 18.9 7.6 19.25 7.25 18.75 6.75 17.5 5.8 14.4 5.25 10.7 5.6 7.35 6.65 3.35 8.3 4.5 Q10.3 8.6 10.8 12.4 11.25 16.2 11.0 19.9 L11.2 22.3 10.6 23.35 9.1 23.0 Q5.75 22.1 3.45 19.7 2.2 18.4 1.8 16.85 1.35 15.1 1.45 13.2 1.55 11.0 2.5 8.95 3.95 5.85 3.35 2.45 M8.7 12.35 Q8.5 11.55 7.7 11.2 L5.25 10.7 7.7 11.2 Q8.5 11.55 8.7 12.35 M8.55 8.45 L6.85 7.15 5.6 7.35 6.85 7.15 8.55 8.45 M2.45 15.3 Q2.75 14.1 3.2 13.0 L3.85 11.95 3.2 13.0 Q2.75 14.1 2.45 15.3 M4.1 18.45 L3.95 17.55 Q3.9 16.65 4.1 15.8 4.2 15.2 4.45 14.65 4.2 15.2 4.1 15.8 3.9 16.65 3.95 17.55 L4.1 18.45 M10.05 16.35 L5.8 14.4 10.05 16.35 M6.75 17.5 L11.0 19.9 6.75 17.5 M6.15 20.9 L5.6 17.1 6.15 20.9" fill="#44a4bb" fill-opacity="0.3529412" fill-rule="evenodd" stroke="none"/>
    <path d="M2.3 -1.1 L3.25 -1.35 Q4.9 -1.5 6.3 -0.45 L6.55 0.4 Q6.9 1.85 6.65 3.35 L5.6 7.35 5.25 10.7 5.8 14.4 6.75 17.5 7.25 18.75 7.2 18.9 5.6 17.1 4.45 14.65 3.85 11.95 4.05 9.35 Q4.35 5.85 3.35 2.45 L1.55 0.35 1.5 -0.2 Q1.4 -0.95 2.3 -1.1" fill="url(#gradient0)" fill-rule="evenodd" stroke="none"/>
    <path d="M2.3 -1.1 Q1.4 -0.95 1.5 -0.2 L1.55 0.35 3.35 2.45 Q4.35 5.85 4.05 9.35 L3.85 11.95 4.45 14.65 5.6 17.1 7.2 18.9 7.6 19.25 7.25 18.75 6.75 17.5 5.8 14.4 5.25 10.7 5.6 7.35 6.65 3.35 Q6.9 1.85 6.55 0.4 L6.3 -0.45 M11.0 19.9 Q11.25 16.2 10.8 12.4 10.3 8.6 8.3 4.5 L6.65 3.35 M5.6 7.35 L6.85 7.15 8.55 8.45 M5.25 10.7 L7.7 11.2 Q8.5 11.55 8.7 12.35 M3.35 2.45 Q3.95 5.85 2.5 8.95 1.55 11.0 1.45 13.2 1.35 15.1 1.8 16.85 2.2 18.4 3.45 19.7 5.75 22.1 9.1 23.0 L10.6 23.35 11.2 22.3 11.0 19.9 6.75 17.5 M5.8 14.4 L10.05 16.35 M4.45 14.65 Q4.2 15.2 4.1 15.8 3.9 16.65 3.95 17.55 L4.1 18.45 M3.85 11.95 L3.2 13.0 Q2.75 14.1 2.45 15.3 M5.6 17.1 L6.15 20.9" fill="none" stroke="#000000" stroke-linecap="round" stroke-linejoin="round" stroke-width="0.05"/>
  </g>
  <defs>
    <radialGradient cx="0" cy="0" gradientTransform="matrix(0.0216, 0.0, 0.0, 0.0179, 5.6, 11.65)" gradientUnits="userSpaceOnUse" id="gradient0" r="819.2" spreadMethod="pad">
      <stop offset="0.0" stop-color="#fafcfa"/>
      <stop offset="0.43137254901960786" stop-color="#dfecec"/>
      <stop offset="1.0" stop-color="#a5a5b8"/>
    </radialGradient>
  </defs>
</svg>
