<?xml version="1.0" encoding="UTF-8" standalone="no"?>
<svg xmlns:xlink="http://www.w3.org/1999/xlink" height="29.8px" width="25.0px" xmlns="http://www.w3.org/2000/svg">
  <g transform="matrix(1.0, 0.0, 0.0, 1.0, 0.0, 0.0)">
    <path d="M24.95 16.1 Q21.25 16.3 17.85 14.75 21.3 18.9 25.35 22.15 L25.6 22.4 Q17.7 23.7 12.25 17.35 12.15 23.85 15.1 29.95 L14.5 29.75 Q11.6 29.3 9.05 27.8 3.75 24.55 1.7 18.9 0.0 14.3 0.9 9.35 1.8 4.7 1.0 0.15 L3.35 0.45 4.25 1.25 6.85 1.25 8.35 1.4 18.4 10.0 25.45 16.05 24.95 16.1 M4.25 1.25 Q5.65 2.75 6.2 4.85 6.95 7.65 9.25 9.35 13.25 12.4 12.25 17.35 13.25 12.4 9.25 9.35 6.95 7.65 6.2 4.85 5.65 2.75 4.25 1.25 M4.85 17.15 Q4.05 16.35 3.9 15.2 7.5 14.05 6.4 18.05 L5.8 20.1 Q5.05 22.45 7.25 23.55 L10.6 24.85 Q11.5 28.1 14.5 29.75 11.5 28.1 10.6 24.85 L7.25 23.55 Q5.05 22.45 5.8 20.1 L6.4 18.05 Q7.5 14.05 3.9 15.2 4.05 16.35 4.85 17.15 M6.85 1.25 Q11.65 6.8 16.15 12.65 L17.85 14.75 16.15 12.65 Q11.65 6.8 6.85 1.25" fill="url(#gradient0)" fill-rule="evenodd" stroke="none"/>
    <path d="M24.95 16.1 Q21.25 16.3 17.85 14.75 21.3 18.9 25.35 22.15 L25.6 22.4 Q17.7 23.7 12.25 17.35 12.15 23.85 15.1 29.95 L14.5 29.75 Q11.6 29.3 9.05 27.8 3.75 24.55 1.7 18.9 0.0 14.3 0.9 9.35 1.8 4.7 1.0 0.15 L3.35 0.45 4.25 1.25 6.85 1.25 8.35 1.4 18.4 10.0 25.45 16.05 24.95 16.1 M12.25 17.35 Q13.25 12.4 9.25 9.35 6.95 7.65 6.2 4.85 5.65 2.75 4.25 1.25 M17.85 14.75 L16.15 12.65 Q11.65 6.8 6.85 1.25" fill="none" stroke="#000000" stroke-linecap="round" stroke-linejoin="round" stroke-width="0.05"/>
    <path d="M14.5 29.75 Q11.5 28.1 10.6 24.85 L7.25 23.55 Q5.05 22.45 5.8 20.1 L6.4 18.05 Q7.5 14.05 3.9 15.2 4.05 16.35 4.85 17.15" fill="none" stroke="#ff99ff" stroke-linecap="round" stroke-linejoin="round" stroke-width="0.05"/>
  </g>
  <defs>
    <linearGradient gradientTransform="matrix(-3.0E-4, -0.0161, 0.0157, -3.0E-4, -14.45, 14.15)" gradientUnits="userSpaceOnUse" id="gradient0" spreadMethod="pad" x1="-819.2" x2="819.2">
      <stop offset="0.0" stop-color="#003366"/>
      <stop offset="0.43137254901960786" stop-color="#23c2d3"/>
      <stop offset="1.0" stop-color="#ff3366"/>
    </linearGradient>
  </defs>
</svg>
