<?xml version="1.0" encoding="UTF-8" standalone="no"?>
<svg xmlns:xlink="http://www.w3.org/1999/xlink" height="37.5px" width="48.55px" xmlns="http://www.w3.org/2000/svg">
  <g transform="matrix(1.0, 0.0, 0.0, 1.0, 0.0, 0.0)">
    <path d="M13.3 6.6 Q13.95 4.65 15.85 3.9 L18.2 2.9 19.1 2.3 Q18.4 3.35 18.3 4.65 L19.8 4.25 19.55 5.15 19.8 5.35 20.6 5.45 18.45 6.65 16.7 7.4 16.65 7.4 16.55 7.4 15.8 7.2 14.85 6.9 14.4 6.8 13.3 6.6 M18.65 1.25 Q17.15 2.3 15.3 3.0 L13.45 3.65 9.8 4.95 6.35 5.85 Q6.25 4.25 7.05 2.9 L8.85 -0.35 10.3 -3.9 Q10.7 -4.9 10.5 -5.95 11.5 -3.4 11.85 -0.45 12.95 -1.55 13.65 -1.25 L13.65 -0.3 14.8 -0.45 Q14.15 0.15 14.4 0.7 L18.1 0.5 18.45 0.75 18.65 1.25 M24.25 10.35 L18.7 8.0 Q19.55 7.25 20.4 6.65 L21.05 6.05 21.15 6.75 Q21.1 8.1 21.55 8.45 22.15 8.0 23.0 8.15 L23.5 9.05 23.7 9.0 Q24.5 8.85 24.85 9.45 L24.25 10.35 M44.7 4.85 L44.65 5.1 44.5 6.9 Q44.35 9.05 43.0 10.9 L42.15 12.05 42.15 13.05 Q40.8 12.95 39.85 13.75 L41.75 14.6 Q40.85 15.05 40.05 15.6 39.75 15.75 39.5 16.0 L41.75 17.75 41.15 18.6 41.3 21.05 40.35 21.55 40.9 22.55 41.05 23.1 40.9 23.35 Q41.0 24.3 41.4 25.15 L39.45 23.1 Q38.5 21.85 37.85 20.45 L37.4 19.45 Q36.7 18.1 36.35 16.55 L36.3 16.0 Q36.25 15.2 36.5 14.45 L37.2 13.05 Q37.6 11.7 38.6 11.1 L38.85 10.9 Q39.8 9.25 41.15 8.0 L43.45 6.05 44.7 4.85 M41.25 11.0 L38.85 10.9 41.25 11.0 M22.45 14.0 Q22.9 14.25 22.8 14.75 L23.2 15.0 Q23.65 15.4 23.6 16.3 23.55 17.3 24.15 18.0 L23.3 17.5 Q21.45 16.7 20.2 15.15 L22.45 14.0 M39.3 19.3 L37.4 19.45 39.3 19.3 M38.9 16.0 L36.3 16.0 38.9 16.0 M38.6 13.2 L37.2 13.05 38.6 13.2 M7.05 5.1 L7.65 4.55 9.55 2.8 12.05 0.9 9.55 2.8 7.65 4.55 7.05 5.1 M17.15 4.9 L14.85 6.9 17.15 4.9 M17.35 5.7 L15.8 7.2 17.35 5.7 M9.3 4.55 L12.25 2.2 9.3 4.55" fill="#0000ff" fill-opacity="0.48235294" fill-rule="evenodd" stroke="none"/>
    <path d="M1.8 7.2 L2.3 6.75 3.55 5.45 6.6 1.6 7.4 0.05 8.65 -2.85 Q9.35 -4.7 9.3 -6.6 9.25 -8.9 7.9 -10.6 L9.1 -9.3 Q10.4 -7.85 10.5 -5.95 10.7 -4.9 10.3 -3.9 L8.85 -0.35 7.05 2.9 Q6.25 4.25 6.35 5.85 L9.8 4.95 13.45 3.65 15.3 3.0 Q17.15 2.3 18.65 1.25 19.9 0.25 21.0 -0.6 21.7 -1.25 21.95 -2.35 L21.95 -1.65 21.5 -0.4 Q20.7 1.4 19.1 2.3 L18.2 2.9 15.85 3.9 Q13.95 4.65 13.3 6.6 L10.15 6.25 7.45 6.15 3.7 6.65 1.8 7.2 3.7 6.65 7.45 6.15 10.15 6.25 13.3 6.6 14.4 6.8 14.85 6.9 15.8 7.2 16.55 7.4 16.65 7.4 16.7 7.45 18.7 8.0 16.7 7.45 16.7 7.4 18.45 6.65 20.6 5.45 21.45 4.55 22.7 2.45 22.35 3.85 Q21.95 5.1 21.05 6.05 L20.4 6.65 Q19.55 7.25 18.7 8.0 L24.25 10.35 25.05 10.7 24.25 10.35 24.85 9.45 25.15 8.2 25.25 9.05 25.05 10.7 Q27.35 11.6 29.7 11.9 L31.65 12.25 Q34.35 12.4 36.45 10.75 L38.0 9.55 39.4 8.2 Q41.2 5.9 43.5 4.15 44.45 3.45 45.6 3.1 46.55 2.7 47.35 2.65 45.7 3.35 44.7 4.85 L43.45 6.05 41.15 8.0 Q39.8 9.25 38.85 10.9 L38.6 11.1 Q37.6 11.7 37.2 13.05 L36.5 14.45 Q36.25 15.2 36.3 16.0 L36.35 16.55 Q36.7 18.1 37.4 19.45 L37.85 20.45 Q38.5 21.85 39.45 23.1 L41.4 25.15 44.65 26.85 43.9 26.9 39.35 25.5 Q37.85 24.95 37.25 23.6 L36.35 21.25 35.45 19.05 Q34.45 16.85 32.5 15.6 L31.15 15.55 Q29.35 15.7 27.6 14.75 26.95 14.45 26.3 14.25 L22.45 14.0 20.2 15.15 Q21.45 16.7 23.3 17.5 L24.15 18.0 26.25 18.8 22.55 17.8 19.8 16.75 18.25 15.95 18.05 15.9 16.4 16.7 14.75 17.25 Q10.25 18.9 5.6 19.65 L3.7 19.25 Q2.55 18.9 1.75 18.0 0.45 16.6 -0.15 15.15 -1.6 11.9 -0.25 8.9 L-0.25 8.35 1.8 7.2 M11.05 15.4 L11.65 15.3 12.0 14.55 Q12.35 13.45 11.35 12.85 12.35 12.75 12.75 11.95 L12.3 11.3 11.85 11.2 12.6 10.75 Q13.4 10.4 13.2 9.7 L12.15 8.85 13.2 9.7 Q13.4 10.4 12.6 10.75 L11.85 11.2 12.3 11.3 12.75 11.95 Q12.35 12.75 11.35 12.85 12.35 13.45 12.0 14.55 L11.65 15.3 11.05 15.4 M16.95 14.3 L17.95 13.6 18.1 13.05 17.25 12.45 18.5 11.55 17.35 11.3 17.6 11.0 Q17.95 10.5 17.75 9.9 L16.95 9.5 17.75 9.9 Q17.95 10.5 17.6 11.0 L17.35 11.3 18.5 11.55 17.25 12.45 18.1 13.05 17.95 13.6 16.95 14.3 M20.2 15.15 L18.25 15.95 20.2 15.15 M7.55 12.25 L8.1 11.6 Q8.65 10.75 7.8 10.0 L8.7 9.3 8.35 9.05 7.05 8.35 8.35 9.05 8.7 9.3 7.8 10.0 Q8.65 10.75 8.1 11.6 L7.55 12.25" fill="url(#gradient0)" fill-rule="evenodd" stroke="none"/>
    <path d="M10.5 -5.95 Q10.4 -7.85 9.1 -9.3 L7.9 -10.6 Q9.25 -8.9 9.3 -6.6 9.35 -4.7 8.65 -2.85 L7.4 0.05 6.6 1.6 3.55 5.45 2.3 6.75 1.8 7.2 3.7 6.65 7.45 6.15 10.15 6.25 13.3 6.6 Q13.95 4.65 15.85 3.9 L18.2 2.9 19.1 2.3 Q20.7 1.4 21.5 -0.4 L21.95 -1.65 21.95 -2.35 Q21.7 -1.25 21.0 -0.6 19.9 0.25 18.65 1.25 17.15 2.3 15.3 3.0 L13.45 3.65 9.8 4.95 6.35 5.85 Q6.25 4.25 7.05 2.9 L8.85 -0.35 10.3 -3.9 Q10.7 -4.9 10.5 -5.95 11.5 -3.4 11.85 -0.45 12.95 -1.55 13.65 -1.25 L13.65 -0.3 14.8 -0.45 Q14.15 0.15 14.4 0.7 L18.1 0.5 18.45 0.75 18.65 1.25 M47.65 2.5 L47.35 2.65 47.6 2.6 47.65 2.5 M44.7 4.85 Q45.7 3.35 47.35 2.65 46.55 2.7 45.6 3.1 44.45 3.45 43.5 4.15 41.2 5.9 39.4 8.2 L38.0 9.55 36.45 10.75 Q34.35 12.4 31.65 12.25 L29.7 11.9 Q27.35 11.6 25.05 10.7 L24.25 10.35 18.7 8.0 16.7 7.45 16.65 7.4 16.55 7.4 15.8 7.2 14.85 6.9 14.4 6.8 13.3 6.6 M41.4 25.15 Q41.0 24.3 40.9 23.35 L41.05 23.1 40.9 22.55 40.35 21.55 41.3 21.05 41.15 18.6 41.75 17.75 39.5 16.0 Q39.75 15.75 40.05 15.6 40.85 15.05 41.75 14.6 L39.85 13.75 Q40.8 12.95 42.15 13.05 L42.15 12.05 43.0 10.9 Q44.35 9.05 44.5 6.9 L44.65 5.1 44.7 4.85 43.45 6.05 41.15 8.0 Q39.8 9.25 38.85 10.9 L41.25 11.0 M22.45 14.0 L26.3 14.25 Q26.95 14.45 27.6 14.75 29.35 15.7 31.15 15.55 L32.5 15.6 Q34.45 16.85 35.45 19.05 L36.35 21.25 37.25 23.6 Q37.85 24.95 39.35 25.5 L43.9 26.9 44.65 26.85 41.4 25.15 39.45 23.1 Q38.5 21.85 37.85 20.45 L37.4 19.45 Q36.7 18.1 36.35 16.55 L36.3 16.0 Q36.25 15.2 36.5 14.45 L37.2 13.05 Q37.6 11.7 38.6 11.1 L38.85 10.9 M21.05 6.05 Q21.95 5.1 22.35 3.85 L22.7 2.45 21.45 4.55 20.6 5.45 18.45 6.65 16.7 7.4 16.65 7.4 M24.85 9.45 Q24.5 8.85 23.7 9.0 L23.5 9.05 23.0 8.15 Q22.15 8.0 21.55 8.45 21.1 8.1 21.15 6.75 L21.05 6.05 20.4 6.65 Q19.55 7.25 18.7 8.0 M25.05 10.7 L25.25 9.05 25.15 8.2 24.85 9.45 24.25 10.35 M24.15 18.0 Q23.55 17.3 23.6 16.3 23.65 15.4 23.2 15.0 L22.8 14.75 Q22.9 14.25 22.45 14.0 L20.2 15.15 Q21.45 16.7 23.3 17.5 L24.15 18.0 26.25 18.8 22.55 17.8 19.8 16.75 18.25 15.95 18.05 15.9 16.4 16.7 14.75 17.25 Q10.25 18.9 5.6 19.65 L3.7 19.25 Q2.55 18.9 1.75 18.0 0.45 16.6 -0.15 15.15 -1.6 11.9 -0.25 8.9 L-0.25 8.35 1.8 7.2 M37.2 13.05 L38.6 13.2 M36.3 16.0 L38.9 16.0 M37.4 19.45 L39.3 19.3 M20.6 5.45 L19.8 5.35 19.55 5.15 19.8 4.25 18.3 4.65 Q18.4 3.35 19.1 2.3 M12.15 8.85 L13.2 9.7 Q13.4 10.4 12.6 10.75 L11.85 11.2 12.3 11.3 12.75 11.95 Q12.35 12.75 11.35 12.85 12.35 13.45 12.0 14.55 L11.65 15.3 11.05 15.4 M16.95 9.5 L17.75 9.9 Q17.95 10.5 17.6 11.0 L17.35 11.3 18.5 11.55 17.25 12.45 18.1 13.05 17.95 13.6 16.95 14.3 M15.8 7.2 L17.35 5.7 M14.85 6.9 L17.15 4.9 M12.05 0.9 L9.55 2.8 7.65 4.55 7.05 5.1 M7.05 8.35 L8.35 9.05 8.7 9.3 7.8 10.0 Q8.65 10.75 8.1 11.6 L7.55 12.25 M18.25 15.95 L20.2 15.15 M12.25 2.2 L9.3 4.55" fill="none" stroke="#000000" stroke-linecap="round" stroke-linejoin="round" stroke-width="0.05"/>
  </g>
  <defs>
    <radialGradient cx="0" cy="0" gradientTransform="matrix(0.0633, -0.0042, 0.0015, 0.0226, 11.2, 19.65)" gradientUnits="userSpaceOnUse" id="gradient0" r="819.2" spreadMethod="pad">
      <stop offset="0.0" stop-color="#4b352e"/>
      <stop offset="0.3686274509803922" stop-color="#97786c"/>
      <stop offset="0.49411764705882355" stop-color="#b39c88"/>
      <stop offset="0.6274509803921569" stop-color="#97786c"/>
      <stop offset="1.0" stop-color="#4b352e"/>
    </radialGradient>
  </defs>
</svg>
