<?xml version="1.0" encoding="UTF-8" standalone="no"?>
<svg xmlns:xlink="http://www.w3.org/1999/xlink" height="31.2px" width="52.45px" xmlns="http://www.w3.org/2000/svg">
  <g transform="matrix(1.0, 0.0, 0.0, 1.0, 0.0, 0.0)">
    <path d="M8.3 4.95 L9.5 2.75 11.0 -0.5 12.3 -3.15 Q13.35 -5.05 15.4 -6.1 16.8 -6.75 18.35 -6.95 L19.1 -6.7 18.85 -5.7 20.25 -6.35 Q21.65 -5.3 22.2 -3.9 23.0 -2.1 22.7 0.0 L20.45 -0.1 22.15 1.35 21.45 1.8 Q20.15 2.6 18.6 2.55 L18.85 3.55 17.0 4.5 Q15.2 5.1 14.35 6.6 L13.6 6.6 13.45 6.6 11.25 6.6 13.8 4.75 Q14.85 3.9 15.35 2.65 L15.4 2.55 Q16.1 0.7 15.85 -1.3 L15.7 -1.8 Q14.7 -2.0 13.95 -1.4 L13.8 -1.25 Q12.8 -0.4 12.15 0.65 10.55 3.15 8.3 4.95 M14.35 -4.0 Q13.9 -3.2 13.55 -2.05 13.5 -1.8 13.8 -1.25 13.5 -1.8 13.55 -2.05 13.9 -3.2 14.35 -4.0 M16.0 -2.2 L17.0 -3.15 20.25 -5.1 17.0 -3.15 16.0 -2.2 M16.45 -0.35 L17.45 -0.65 Q19.1 -1.35 20.7 -1.55 19.1 -1.35 17.45 -0.65 L16.45 -0.35 M36.05 10.45 L36.4 9.95 39.15 7.95 Q40.35 7.1 41.75 6.6 L45.35 5.7 48.3 5.85 48.6 6.0 Q50.0 6.85 50.6 8.35 L51.6 11.95 Q51.9 13.75 51.8 15.65 L51.7 16.15 51.2 17.7 Q50.4 19.7 48.1 20.4 L47.65 20.3 44.15 19.15 41.5 18.25 39.8 17.4 37.2 15.85 Q35.7 14.85 35.6 13.15 L39.05 14.45 41.8 15.15 Q43.1 15.3 44.3 14.65 L45.05 14.0 45.05 13.2 44.7 12.2 44.05 11.35 48.7 9.0 44.05 11.35 Q42.35 10.35 40.2 10.5 L40.15 10.45 40.15 10.5 38.25 10.45 36.05 10.45 M43.6 7.65 L41.2 9.3 40.15 10.45 41.2 9.3 43.6 7.65 M50.7 14.0 L47.2 14.5 45.05 14.0 47.2 14.5 50.7 14.0 M46.6 19.35 Q45.45 18.95 44.45 18.0 L41.8 15.15 44.45 18.0 Q45.45 18.95 46.6 19.35 M30.85 8.85 L30.9 8.65 Q31.3 7.85 31.8 7.35 L32.55 6.0 Q32.7 5.65 32.3 5.5 L31.95 5.45 31.15 5.55 28.35 8.05 28.25 8.05 Q28.55 6.95 29.4 5.95 30.7 4.4 32.45 3.7 L34.8 3.9 Q36.5 4.35 35.65 6.0 35.15 6.95 34.25 7.5 L34.15 7.5 34.15 7.55 Q32.65 8.5 30.85 8.85 M31.95 5.45 L32.45 3.7 31.95 5.45 M35.15 5.05 L32.55 6.0 35.15 5.05 M34.15 7.5 L31.8 7.35 34.15 7.5 M26.4 20.25 Q26.4 18.9 25.2 18.25 24.3 17.8 24.25 17.0 24.2 16.6 24.3 16.65 25.95 17.35 27.25 18.7 L28.05 19.8 Q29.2 21.35 28.6 23.1 28.3 23.95 27.55 24.1 L27.15 24.15 Q25.4 24.5 23.75 23.7 L22.45 22.45 21.5 20.85 Q21.05 19.7 21.0 18.55 L22.9 20.55 23.3 20.85 23.75 23.7 23.3 20.85 25.85 21.15 27.55 24.1 25.85 21.15 25.95 21.1 26.35 20.85 26.4 20.25 27.7 20.45 26.4 20.25 M15.35 2.65 L17.15 3.2 15.35 2.65" fill="#cfb59c" fill-opacity="0.6" fill-rule="evenodd" stroke="none"/>
    <path d="M8.3 4.95 Q10.55 3.15 12.15 0.65 12.8 -0.4 13.8 -1.25 L13.95 -1.4 Q14.7 -2.0 15.7 -1.8 L15.85 -1.3 Q16.1 0.7 15.4 2.55 L15.35 2.65 Q14.85 3.9 13.8 4.75 L11.25 6.6 13.45 6.6 13.6 6.7 13.6 6.6 14.35 6.6 16.65 6.5 16.85 6.8 17.45 7.35 17.9 7.35 Q19.15 7.45 19.15 6.55 L20.8 6.6 Q22.75 6.7 24.7 7.35 L27.05 8.4 28.15 8.35 28.35 8.05 31.15 5.55 31.95 5.45 32.3 5.5 Q32.7 5.65 32.55 6.0 L31.8 7.35 Q31.3 7.85 30.9 8.65 L30.85 8.85 Q30.75 9.25 31.2 9.55 31.65 9.95 32.25 9.95 L36.05 10.45 38.25 10.45 40.15 10.5 40.2 10.5 Q42.35 10.35 44.05 11.35 L44.7 12.2 45.05 13.2 45.05 14.0 44.3 14.65 Q43.1 15.3 41.8 15.15 L39.05 14.45 35.6 13.15 Q33.85 13.0 32.3 13.95 L30.75 14.85 27.7 16.05 24.3 16.65 Q24.2 16.6 24.25 17.0 24.3 17.8 25.2 18.25 26.4 18.9 26.4 20.25 L26.35 20.85 25.95 21.1 25.85 21.15 23.3 20.85 22.9 20.55 21.0 18.55 18.8 18.3 16.05 18.55 13.9 18.9 13.0 19.0 9.55 19.0 6.15 18.75 5.2 19.05 3.1 18.9 Q1.4 18.05 0.45 16.35 L-0.3 14.4 Q-0.65 12.65 -0.65 10.7 -0.65 9.7 -0.15 8.95 L0.5 8.15 Q1.45 7.45 2.8 6.95 3.75 6.45 4.95 6.3 6.7 5.85 8.3 4.95 M13.6 6.7 Q13.15 7.9 13.35 8.2 L13.8 8.4 14.2 8.4 14.5 8.25 14.65 8.05 14.6 7.85 Q14.2 7.1 13.6 6.7 M20.7 8.95 L20.95 9.15 22.05 9.35 22.15 9.15 22.2 8.4 22.0 8.1 Q21.7 7.65 20.6 8.1 L20.7 8.95 M11.25 16.65 L14.7 16.4 18.35 15.85 21.5 14.95 24.45 13.8 27.15 13.05 28.7 12.75 27.15 13.05 24.45 13.8 21.5 14.95 18.35 15.85 14.7 16.4 11.25 16.65 M16.2 8.6 L15.55 9.15 Q15.45 9.4 15.5 9.7 L15.7 9.9 16.2 9.75 16.65 9.5 16.2 8.6 M10.3 9.85 L10.6 9.8 Q11.6 9.4 10.85 8.8 10.1 8.4 9.65 8.8 9.55 9.65 10.3 9.85 M7.2 10.2 L7.15 10.2 Q6.75 10.7 6.5 11.3 6.4 11.6 6.45 12.0 L7.3 12.6 Q8.65 13.1 9.25 11.7 L9.1 11.25 Q8.65 10.15 7.5 10.0 L7.2 10.2 M3.85 8.95 L3.8 9.2 3.9 9.85 4.0 10.0 4.2 10.15 Q5.5 10.2 5.85 9.1 L5.7 8.85 Q5.4 8.3 4.55 8.35 L3.85 8.95" fill="#2b3155" fill-rule="evenodd" stroke="none"/>
    <path d="M19.15 6.55 Q19.15 7.45 17.9 7.35 L17.45 7.35 16.85 6.8 16.65 6.5 19.15 6.55 M13.6 6.7 Q14.2 7.1 14.6 7.85 L14.65 8.05 14.5 8.25 14.2 8.4 13.8 8.4 13.35 8.2 Q13.15 7.9 13.6 6.7 M20.7 8.95 L20.6 8.1 Q21.7 7.65 22.0 8.1 L22.2 8.4 22.15 9.15 22.05 9.35 20.95 9.15 20.7 8.95 M10.3 9.85 Q9.55 9.65 9.65 8.8 10.1 8.4 10.85 8.8 11.6 9.4 10.6 9.8 L10.3 9.85 M16.2 8.6 L16.65 9.5 16.2 9.75 15.7 9.9 15.5 9.7 Q15.45 9.4 15.55 9.15 L16.2 8.6 M3.85 8.95 L4.55 8.35 Q5.4 8.3 5.7 8.85 L5.85 9.1 Q5.5 10.2 4.2 10.15 L4.0 10.0 3.9 9.85 3.8 9.2 3.85 8.95 M7.2 10.2 L7.5 10.0 Q8.65 10.15 9.1 11.25 L9.25 11.7 Q8.65 13.1 7.3 12.6 L6.45 12.0 Q6.4 11.6 6.5 11.3 6.75 10.7 7.15 10.2 L7.2 10.2" fill="#275854" fill-rule="evenodd" stroke="none"/>
    <path d="M14.35 6.6 Q15.2 5.1 17.0 4.5 L18.85 3.55 18.6 2.55 Q20.15 2.6 21.45 1.8 L22.15 1.35 20.45 -0.1 22.7 0.0 Q23.0 -2.1 22.2 -3.9 21.65 -5.3 20.25 -6.35 L18.85 -5.7 19.1 -6.7 18.35 -6.95 Q16.8 -6.75 15.4 -6.1 13.35 -5.05 12.3 -3.15 L11.0 -0.5 9.5 2.75 8.3 4.95 Q10.55 3.15 12.15 0.65 12.8 -0.4 13.8 -1.25 13.5 -1.8 13.55 -2.05 13.9 -3.2 14.35 -4.0 M13.45 6.6 L11.25 6.6 13.8 4.75 Q14.85 3.9 15.35 2.65 L15.4 2.55 Q16.1 0.7 15.85 -1.3 L15.7 -1.8 Q14.7 -2.0 13.95 -1.4 L13.8 -1.25 M20.7 -1.55 Q19.1 -1.35 17.45 -0.65 L16.45 -0.35 M20.25 -5.1 L17.0 -3.15 16.0 -2.2 M35.6 13.15 Q35.7 14.85 37.2 15.85 L39.8 17.4 41.5 18.25 44.15 19.15 47.65 20.3 48.1 20.4 Q50.4 19.7 51.2 17.7 L51.7 16.15 51.8 15.65 Q51.9 13.75 51.6 11.95 L50.6 8.35 Q50.0 6.85 48.6 6.0 L48.3 5.85 45.35 5.7 41.75 6.6 Q40.35 7.1 39.15 7.95 L36.4 9.95 36.05 10.45 38.25 10.45 40.15 10.5 40.15 10.45 41.2 9.3 43.6 7.65 M44.05 11.35 L44.7 12.2 45.05 13.2 45.05 14.0 47.2 14.5 50.7 14.0 M48.7 9.0 L44.05 11.35 Q42.35 10.35 40.2 10.5 L40.15 10.5 M45.05 14.0 L44.3 14.65 Q43.1 15.3 41.8 15.15 L44.45 18.0 Q45.45 18.95 46.6 19.35 M30.85 8.85 L30.9 8.65 Q31.3 7.85 31.8 7.35 L32.55 6.0 Q32.7 5.65 32.3 5.5 L31.95 5.45 31.15 5.55 28.35 8.05 28.15 8.35 27.05 8.4 24.7 7.35 Q22.75 6.7 20.8 6.6 L19.15 6.55 Q19.15 7.45 17.9 7.35 L17.45 7.35 16.85 6.8 16.65 6.5 14.35 6.6 13.6 6.6 13.6 6.7 Q14.2 7.1 14.6 7.85 L14.65 8.05 14.5 8.25 14.2 8.4 13.8 8.4 13.35 8.2 Q13.15 7.9 13.6 6.7 L13.45 6.6 13.6 6.6 M32.55 6.0 L35.15 5.05 M32.45 3.7 L31.95 5.45 M34.15 7.5 L34.25 7.5 Q35.15 6.95 35.65 6.0 36.5 4.35 34.8 3.9 L32.45 3.7 Q30.7 4.4 29.4 5.95 28.55 6.95 28.25 8.05 L28.15 8.35 M34.15 7.55 L34.25 7.5 M36.05 10.45 L32.25 9.95 Q31.65 9.95 31.2 9.55 30.75 9.25 30.85 8.85 32.65 8.5 34.15 7.55 M31.8 7.35 L34.15 7.5 M20.7 8.95 L20.6 8.1 Q21.7 7.65 22.0 8.1 L22.2 8.4 22.15 9.15 22.05 9.35 20.95 9.15 20.7 8.95 M28.7 12.75 L27.15 13.05 24.45 13.8 21.5 14.95 18.35 15.85 14.7 16.4 11.25 16.65 M24.3 16.65 Q24.2 16.6 24.25 17.0 24.3 17.8 25.2 18.25 26.4 18.9 26.4 20.25 L27.7 20.45 M23.75 23.7 L23.3 20.85 22.9 20.55 21.0 18.55 Q21.05 19.7 21.5 20.85 L22.45 22.45 23.75 23.7 Q25.4 24.5 27.15 24.15 L27.55 24.1 25.85 21.15 23.3 20.85 M26.4 20.25 L26.35 20.85 25.95 21.1 25.85 21.15 M27.55 24.1 Q28.3 23.95 28.6 23.1 29.2 21.35 28.05 19.8 L27.25 18.7 Q25.95 17.35 24.3 16.65 L27.7 16.05 30.75 14.85 32.3 13.95 Q33.85 13.0 35.6 13.15 L39.05 14.45 41.8 15.15 M17.15 3.2 L15.35 2.65 M10.3 9.85 Q9.55 9.65 9.65 8.8 10.1 8.4 10.85 8.8 11.6 9.4 10.6 9.8 L10.3 9.85 M16.2 8.6 L16.65 9.5 16.2 9.75 15.7 9.9 15.5 9.7 Q15.45 9.4 15.55 9.15 L16.2 8.6 M19.15 6.55 L16.65 6.5 M8.3 4.95 Q6.7 5.85 4.95 6.3 3.75 6.45 2.8 6.95 1.45 7.45 0.5 8.15 L-0.15 8.95 Q-0.65 9.7 -0.65 10.7 -0.65 12.65 -0.3 14.4 L0.45 16.35 Q1.4 18.05 3.1 18.9 L5.2 19.05 6.15 18.75 9.55 19.0 13.0 19.0 13.9 18.9 16.05 18.55 18.8 18.3 21.0 18.55 M3.85 8.95 L4.55 8.35 Q5.4 8.3 5.7 8.85 L5.85 9.1 Q5.5 10.2 4.2 10.15 L4.0 10.0 3.9 9.85 3.8 9.2 3.85 8.95 M7.2 10.2 L7.5 10.0 Q8.65 10.15 9.1 11.25 L9.25 11.7 Q8.65 13.1 7.3 12.6 L6.45 12.0 Q6.4 11.6 6.5 11.3 6.75 10.7 7.15 10.2 L7.2 10.2 Z" fill="none" stroke="#000000" stroke-linecap="round" stroke-linejoin="round" stroke-width="0.05"/>
  </g>
</svg>
