<?xml version="1.0" encoding="UTF-8" standalone="no"?>
<svg xmlns:xlink="http://www.w3.org/1999/xlink" height="30.35px" width="61.1px" xmlns="http://www.w3.org/2000/svg">
  <g transform="matrix(1.0, 0.0, 0.0, 1.0, 0.0, 0.0)">
    <path d="M15.2 -0.35 L15.3 -0.3 13.25 2.0 Q10.4 5.25 10.2 9.6 L11.8 9.55 Q13.35 6.05 16.15 3.55 L16.7 3.15 Q15.2 5.05 14.25 7.4 L13.45 9.7 16.55 9.6 Q17.25 7.2 19.15 5.45 L20.15 4.6 Q18.5 6.6 18.3 9.25 L19.8 9.9 Q20.85 9.45 21.85 8.95 22.35 7.15 23.45 6.0 L24.3 5.15 Q23.05 7.1 23.15 9.25 L23.55 9.7 25.15 9.3 26.2 10.05 26.5 10.05 Q26.9 7.75 28.35 6.2 L28.95 5.3 27.7 10.0 28.4 9.3 29.95 9.7 30.8 10.1 Q31.35 9.05 32.15 8.55 L32.3 8.6 32.25 8.7 Q31.7 9.35 32.25 10.3 L32.9 10.05 34.2 11.45 35.3 11.05 35.65 11.6 Q36.85 12.3 38.3 12.1 L39.4 11.85 39.85 11.25 43.3 11.45 46.25 9.8 53.55 9.8 Q55.4 9.8 57.0 10.6 L60.55 12.2 57.35 11.75 52.15 10.05 49.25 11.1 48.4 11.2 45.95 11.25 44.4 11.9 43.3 12.85 42.3 12.65 40.45 13.7 39.6 13.9 39.4 13.9 38.8 15.6 38.6 16.9 38.6 17.9 Q37.45 17.15 37.9 15.1 L37.9 14.75 Q37.5 13.75 36.25 13.25 L34.6 13.3 33.25 12.1 32.65 13.2 32.55 11.95 30.95 11.2 29.65 11.75 29.05 11.15 28.8 13.75 28.55 13.45 Q27.8 12.7 27.85 11.65 26.75 11.05 24.8 11.1 L24.45 11.4 Q23.85 12.9 24.65 14.45 L24.0 13.6 Q23.3 12.65 23.3 11.5 L21.3 10.85 20.8 11.25 20.7 11.4 20.9 13.35 Q21.25 14.9 20.9 15.7 L19.65 12.7 19.7 12.65 19.35 11.95 18.3 11.1 18.2 11.25 17.9 11.2 17.25 11.0 16.2 11.7 Q16.1 13.2 16.55 14.6 L17.4 17.25 16.4 15.65 14.65 12.25 12.55 11.6 Q13.15 16.55 15.05 21.15 L13.9 19.0 Q11.7 15.25 10.9 10.9 L10.35 10.95 9.9 11.3 9.5 11.05 9.1 11.35 8.9 12.45 9.4 15.4 Q10.3 19.65 12.45 23.45 L11.85 22.75 Q9.05 18.25 7.6 12.95 L7.95 12.15 7.45 11.85 6.9 11.85 6.35 11.5 6.25 13.0 Q6.1 19.0 9.65 24.0 5.55 19.05 4.6 12.7 L5.05 11.9 Q4.55 11.6 4.3 12.35 L4.25 12.6 2.75 11.75 2.3 11.9 2.05 12.35 1.6 12.35 1.0 12.0 0.25 12.4 -0.55 11.8 -0.35 10.55 1.55 10.75 1.9 9.75 Q2.55 10.65 3.55 10.25 L4.0 9.65 4.85 10.1 Q5.7 5.25 8.75 1.35 L10.1 -0.3 10.0 0.15 Q7.35 3.1 6.75 7.4 6.6 8.4 6.75 9.75 L6.75 9.85 6.75 9.8 6.85 9.75 8.05 10.15 8.55 10.0 Q10.45 3.9 15.2 -0.35 M26.5 10.05 L27.7 10.0 26.5 10.05 M29.05 11.15 L28.35 11.05 27.85 11.65 28.35 11.05 29.05 11.15 M24.45 11.4 L23.65 11.1 23.3 11.5 23.65 11.1 24.45 11.4 M21.85 8.95 L22.7 8.75 23.15 9.25 22.7 8.75 21.85 8.95 M33.25 12.1 L32.55 11.95 33.25 12.1 M30.8 10.1 L31.85 10.4 32.25 10.3 31.85 10.4 30.8 10.1 M8.9 12.45 Q8.55 12.85 8.2 12.45 L7.95 12.15 8.2 12.45 Q8.55 12.85 8.9 12.45 M8.55 10.0 L9.75 9.9 10.2 9.6 9.75 9.9 8.55 10.0 M6.35 11.5 Q5.85 11.4 5.7 11.9 L5.6 12.35 5.05 11.9 5.6 12.35 5.7 11.9 Q5.85 11.4 6.35 11.5 M4.85 10.1 L5.4 10.35 5.9 10.35 6.75 9.85 5.9 10.35 5.4 10.35 4.85 10.1 M16.55 9.6 L18.3 9.25 16.55 9.6 M12.55 11.6 L12.0 11.95 11.5 11.2 10.9 10.9 11.5 11.2 12.0 11.95 12.55 11.6 M11.8 9.55 L13.45 9.7 11.8 9.55 M16.2 11.7 L15.55 12.5 14.65 12.25 15.55 12.5 16.2 11.7 M20.7 11.4 L19.7 12.65 20.7 11.4" fill="#755a34" fill-rule="evenodd" stroke="none"/>
    <path d="M57.35 11.75 L56.45 12.15 52.75 13.1 52.55 14.35 52.45 14.35 51.5 13.35 50.5 13.75 Q50.0 13.95 49.55 14.25 L47.8 15.55 47.65 16.6 47.65 17.1 47.7 17.55 47.95 19.1 47.95 19.3 45.3 17.55 45.2 18.55 43.9 16.4 Q42.75 17.65 42.35 19.3 41.35 24.0 42.9 28.35 L42.8 28.4 38.6 17.9 38.6 16.9 38.8 15.6 40.15 16.1 39.6 13.9 40.45 13.7 42.3 12.65 43.3 12.85 44.4 11.9 47.5 13.65 47.05 12.35 48.65 12.65 48.4 11.2 49.25 11.1 52.15 10.05 57.35 11.75" fill="#45027d" fill-opacity="0.6117647" fill-rule="evenodd" stroke="none"/>
    <path d="M15.3 -0.3 L15.45 -0.5 15.2 -0.35 Q10.45 3.9 8.55 10.0 L8.05 10.15 6.85 9.75 6.75 9.8 6.75 9.85 5.9 10.35 5.4 10.35 4.85 10.1 Q5.7 5.25 8.75 1.35 L10.1 -0.3 10.0 0.15 Q7.35 3.1 6.75 7.4 6.6 8.4 6.75 9.75 L6.75 9.85 M15.3 -0.3 L13.25 2.0 Q10.4 5.25 10.2 9.6 L11.8 9.55 Q13.35 6.05 16.15 3.55 L16.7 3.15 Q15.2 5.05 14.25 7.4 L13.45 9.7 16.55 9.6 Q17.25 7.2 19.15 5.45 L20.15 4.6 Q18.5 6.6 18.3 9.25 L19.8 9.9 Q20.85 9.45 21.85 8.95 22.35 7.15 23.45 6.0 L24.3 5.15 Q23.05 7.1 23.15 9.25 L23.55 9.7 25.15 9.3 26.2 10.05 26.5 10.05 Q26.9 7.75 28.35 6.2 L28.95 5.3 27.7 10.0 28.4 9.3 29.95 9.7 30.8 10.1 Q31.35 9.05 32.15 8.55 L32.3 8.55 32.3 8.6 32.25 8.7 Q31.7 9.35 32.25 10.3 L32.9 10.05 34.2 11.45 35.3 11.05 35.65 11.6 Q36.85 12.3 38.3 12.1 L39.4 11.85 39.85 11.25 43.3 11.45 46.25 9.8 53.55 9.8 Q55.4 9.8 57.0 10.6 L60.55 12.2 57.35 11.75 56.45 12.15 52.75 13.1 52.55 14.35 52.45 14.35 51.5 13.35 50.5 13.75 Q50.0 13.95 49.55 14.25 L47.8 15.55 47.65 16.6 47.65 17.1 47.7 17.55 47.95 19.1 47.95 19.3 45.3 17.55 45.2 18.55 43.9 16.4 Q42.75 17.65 42.35 19.3 41.35 24.0 42.9 28.35 L43.5 29.85 42.8 28.4 38.6 17.9 Q37.45 17.15 37.9 15.1 L37.9 14.75 Q37.5 13.75 36.25 13.25 L34.6 13.3 33.25 12.1 32.65 13.2 32.55 11.95 30.95 11.2 29.65 11.75 29.05 11.15 28.8 13.75 28.55 13.45 Q27.8 12.7 27.85 11.65 26.75 11.05 24.8 11.1 L24.45 11.4 Q23.85 12.9 24.65 14.45 L24.0 13.6 Q23.3 12.65 23.3 11.5 L21.3 10.85 20.8 11.25 20.7 11.4 20.9 13.35 Q21.25 14.9 20.9 15.7 L19.65 12.7 19.35 11.95 18.3 11.1 18.2 11.25 17.9 11.2 17.25 11.0 16.2 11.7 Q16.1 13.2 16.55 14.6 L17.4 17.25 16.4 15.65 14.65 12.25 12.55 11.6 Q13.15 16.55 15.05 21.15 L13.9 19.0 Q11.7 15.25 10.9 10.9 L10.35 10.95 9.9 11.3 9.5 11.05 9.1 11.35 8.9 12.45 9.4 15.4 Q10.3 19.65 12.45 23.45 L11.85 22.75 Q9.05 18.25 7.6 12.95 L7.95 12.15 7.45 11.85 6.9 11.85 6.35 11.5 6.25 13.0 Q6.1 19.0 9.65 24.0 5.55 19.05 4.6 12.7 L5.05 11.9 Q4.55 11.6 4.3 12.35 L4.25 12.6 2.75 11.75 2.3 11.9 2.05 12.35 1.6 12.35 1.0 12.0 0.25 12.4 -0.55 11.8 -0.35 10.55 1.55 10.75 1.9 9.75 Q2.55 10.65 3.55 10.25 L4.0 9.65 4.85 10.1 M48.4 11.2 L49.25 11.1 52.15 10.05 57.35 11.75 M44.4 11.9 L45.95 11.25 48.4 11.2 48.65 12.65 47.05 12.35 47.5 13.65 44.4 11.9 43.3 12.85 42.3 12.65 40.45 13.7 39.6 13.9 40.15 16.1 38.8 15.6 38.6 16.9 38.6 17.9 M32.25 10.3 L31.85 10.4 30.8 10.1 M32.55 11.95 L33.25 12.1 M23.15 9.25 L22.7 8.75 21.85 8.95 M23.3 11.5 L23.65 11.1 24.45 11.4 M27.85 11.65 L28.35 11.05 29.05 11.15 M27.7 10.0 L26.5 10.05 M38.8 15.6 L39.4 13.9 39.6 13.9 M13.45 9.7 L11.8 9.55 M10.9 10.9 L11.5 11.2 12.0 11.95 12.55 11.6 M18.3 9.25 L16.55 9.6 M5.05 11.9 L5.6 12.35 5.7 11.9 Q5.85 11.4 6.35 11.5 M10.2 9.6 L9.75 9.9 8.55 10.0 M7.95 12.15 L8.2 12.45 Q8.55 12.85 8.9 12.45 M19.35 11.95 L19.7 12.65 20.7 11.4 M14.65 12.25 L15.55 12.5 16.2 11.7" fill="none" stroke="#000000" stroke-linecap="round" stroke-linejoin="round" stroke-width="0.05"/>
  </g>
</svg>
