<?xml version="1.0" encoding="UTF-8" standalone="no"?>
<svg xmlns:xlink="http://www.w3.org/1999/xlink" height="47.1px" width="63.45px" xmlns="http://www.w3.org/2000/svg">
  <g transform="matrix(1.0, 0.0, 0.0, 1.0, 0.0, 0.0)">
    <path d="M9.7 0.55 Q10.0 -0.3 10.65 -0.55 16.4 -2.15 21.4 -5.4 L29.4 -10.4 31.6 -11.8 23.6 -4.0 20.75 -0.7 29.2 -3.5 23.75 2.25 29.85 0.65 29.35 1.55 28.65 2.25 24.3 5.1 18.25 8.25 Q13.75 5.35 10.45 1.15 L9.7 0.55" fill="#0066cc" fill-rule="evenodd" stroke="none"/>
    <path d="M24.3 5.1 L26.45 8.55 35.0 6.75 34.55 10.1 35.8 10.6 37.85 10.1 38.4 10.35 38.65 11.9 Q39.0 14.75 38.9 17.65 L38.4 19.55 36.8 19.75 Q34.4 19.75 32.3 18.55 L29.55 22.15 25.75 19.65 24.7 22.5 24.3 22.75 17.3 21.35 Q13.65 24.25 9.35 25.5 L6.7 25.25 Q3.25 23.7 1.25 20.85 L-1.5 16.65 -2.55 14.15 -1.6 11.85 -0.95 9.7 Q-0.5 7.9 0.8 6.45 4.2 2.6 8.5 0.65 L9.7 0.55 10.45 1.15 Q13.75 5.35 18.25 8.25 L24.3 5.1 M31.0 17.35 Q33.2 13.45 32.7 9.15 L32.0 9.05 Q29.9 9.25 27.95 9.95 29.9 9.25 32.0 9.05 L32.7 9.15 Q33.2 13.45 31.0 17.35 M32.3 18.55 Q33.8 15.45 34.3 12.0 L34.55 10.1 34.3 12.0 Q33.8 15.45 32.3 18.55 M36.95 17.35 L37.9 16.0 37.25 12.05 36.0 11.9 35.7 11.9 36.0 11.9 37.25 12.05 37.9 16.0 36.95 17.35 M26.45 8.55 L26.7 11.05 Q26.95 15.45 25.75 19.65 26.95 15.45 26.7 11.05 L26.45 8.55 M23.95 17.2 Q26.15 12.1 23.6 7.4 L19.95 9.15 23.6 7.4 Q26.15 12.1 23.95 17.2 M17.3 21.35 Q19.25 20.1 20.4 18.05 22.05 15.0 20.9 11.7 20.15 9.6 18.25 8.25 20.15 9.6 20.9 11.7 22.05 15.0 20.4 18.05 19.25 20.1 17.3 21.35 M19.45 12.85 L19.9 11.4 Q19.5 10.65 18.8 10.15 13.6 6.35 8.85 1.75 8.35 1.9 7.9 2.15 5.15 3.85 2.9 6.1 5.15 3.85 7.9 2.15 8.35 1.9 8.85 1.75 13.6 6.35 18.8 10.15 19.5 10.65 19.9 11.4 L19.45 12.85" fill="url(#gradient0)" fill-rule="evenodd" stroke="none"/>
    <path d="M38.4 10.35 Q41.5 9.8 43.15 6.9 L45.9 1.75 Q48.5 -3.4 54.05 -5.25 57.2 -6.25 60.4 -6.1 L53.9 -2.15 Q53.5 -1.9 53.35 -1.45 52.3 1.2 52.85 4.2 53.85 7.75 52.1 10.95 51.0 13.0 48.8 14.1 46.75 15.0 44.65 14.15 44.4 16.25 46.45 16.95 L48.2 17.45 Q52.0 18.1 53.15 21.55 L53.75 23.35 54.65 27.2 Q55.2 28.8 56.75 30.25 58.55 31.95 60.9 32.15 59.55 34.1 57.1 34.75 51.25 36.45 46.6 32.7 43.65 30.25 43.45 26.65 L43.2 19.95 Q42.0 17.65 39.6 17.35 L38.9 17.65 Q39.0 14.75 38.65 11.9 L38.4 10.35 M55.4 33.05 L53.95 32.5 Q51.55 31.5 49.35 30.2 47.0 28.7 45.95 26.0 47.0 28.7 49.35 30.2 51.55 31.5 53.95 32.5 L55.4 33.05 M54.65 27.2 L51.9 27.0 49.05 26.1 Q46.25 24.95 45.35 22.1 46.25 24.95 49.05 26.1 L51.9 27.0 54.65 27.2 M53.75 23.35 Q51.9 24.3 50.45 24.0 L50.2 23.9 44.65 18.3 50.2 23.9 50.45 24.0 Q51.9 24.3 53.75 23.35 M50.5 10.75 L49.4 10.8 Q46.5 11.7 44.0 13.15 46.5 11.7 49.4 10.8 L50.5 10.75 M52.85 4.2 Q49.55 4.35 48.0 7.4 L46.9 8.9 Q45.2 10.6 43.35 11.9 45.2 10.6 46.9 8.9 L48.0 7.4 Q49.55 4.35 52.85 4.2 M52.05 -0.95 Q50.55 -1.0 49.55 0.15 47.55 2.45 46.85 5.3 L45.45 8.85 Q44.7 10.35 43.2 10.9 44.7 10.35 45.45 8.85 L46.85 5.3 Q47.55 2.45 49.55 0.15 50.55 -1.0 52.05 -0.95" fill="url(#gradient1)" fill-rule="evenodd" stroke="none"/>
    <path d="M9.7 0.55 Q10.0 -0.3 10.65 -0.55 16.4 -2.15 21.4 -5.4 L29.4 -10.4 31.6 -11.8 23.6 -4.0 20.75 -0.7 29.2 -3.5 23.75 2.25 29.85 0.65 29.35 1.55 28.65 2.25 24.3 5.1 26.45 8.55 35.0 6.75 34.55 10.1 35.8 10.6 37.85 10.1 38.4 10.35 38.65 11.9 Q39.0 14.75 38.9 17.65 L38.4 19.55 36.8 19.75 Q34.4 19.75 32.3 18.55 L29.55 22.15 25.75 19.65 24.7 22.5 24.3 22.75 17.3 21.35 Q13.65 24.25 9.35 25.5 L6.7 25.25 Q3.25 23.7 1.25 20.85 L-1.5 16.65 -2.55 14.15 -1.6 11.85 -0.95 9.7 Q-0.5 7.9 0.8 6.45 4.2 2.6 8.5 0.65 L9.7 0.55 10.45 1.15 Q13.75 5.35 18.25 8.25 L24.3 5.1 M34.55 10.1 L34.3 12.0 Q33.8 15.45 32.3 18.55 M25.75 19.65 Q26.95 15.45 26.7 11.05 L26.45 8.55 M18.25 8.25 Q20.15 9.6 20.9 11.7 22.05 15.0 20.4 18.05 19.25 20.1 17.3 21.35" fill="none" stroke="#000000" stroke-linecap="round" stroke-linejoin="round" stroke-width="0.05"/>
    <path d="M27.95 9.95 Q29.9 9.25 32.0 9.05 L32.7 9.15 Q33.2 13.45 31.0 17.35 M35.7 11.9 L36.0 11.9 37.25 12.05 37.9 16.0 36.95 17.35 M19.95 9.15 L23.6 7.4 Q26.15 12.1 23.95 17.2 M2.9 6.1 Q5.15 3.85 7.9 2.15 8.35 1.9 8.85 1.75 13.6 6.35 18.8 10.15 19.5 10.65 19.9 11.4 L19.45 12.85" fill="none" stroke="#66cccc" stroke-linecap="round" stroke-linejoin="round" stroke-width="0.05"/>
    <path d="M38.4 10.35 Q41.5 9.8 43.15 6.9 L45.9 1.75 Q48.5 -3.4 54.05 -5.25 57.2 -6.25 60.4 -6.1 L53.9 -2.15 Q53.5 -1.9 53.35 -1.45 52.3 1.2 52.85 4.2 53.85 7.75 52.1 10.95 51.0 13.0 48.8 14.1 46.75 15.0 44.65 14.15 44.4 16.25 46.45 16.95 L48.2 17.45 Q52.0 18.1 53.15 21.55 L53.75 23.35 54.65 27.2 Q55.2 28.8 56.75 30.25 58.55 31.95 60.9 32.15 59.55 34.1 57.1 34.75 51.25 36.45 46.6 32.7 43.65 30.25 43.45 26.65 L43.2 19.95 Q42.0 17.65 39.6 17.35 L38.9 17.65 M43.2 10.9 Q44.7 10.35 45.45 8.85 L46.85 5.3 Q47.55 2.45 49.55 0.15 50.55 -1.0 52.05 -0.95 M43.35 11.9 Q45.2 10.6 46.9 8.9 L48.0 7.4 Q49.55 4.35 52.85 4.2 M44.0 13.15 Q46.5 11.7 49.4 10.8 L50.5 10.75 M44.65 18.3 L50.2 23.9 50.45 24.0 Q51.9 24.3 53.75 23.35 M45.35 22.1 Q46.25 24.95 49.05 26.1 L51.9 27.0 54.65 27.2 M45.95 26.0 Q47.0 28.7 49.35 30.2 51.55 31.5 53.95 32.5 L55.4 33.05" fill="none" stroke="#ff66cc" stroke-linecap="round" stroke-linejoin="round" stroke-width="0.05"/>
  </g>
  <defs>
    <linearGradient gradientTransform="matrix(0.0, 0.0161, -0.0157, 0.0, -25.35, 14.55)" gradientUnits="userSpaceOnUse" id="gradient0" spreadMethod="pad" x1="-819.2" x2="819.2">
      <stop offset="0.0" stop-color="#003366"/>
      <stop offset="0.43137254901960786" stop-color="#23c2d3"/>
      <stop offset="1.0" stop-color="#ff3366"/>
    </linearGradient>
    <linearGradient gradientTransform="matrix(0.0137, 0.0, 0.0, 0.0253, 49.65, 14.6)" gradientUnits="userSpaceOnUse" id="gradient1" spreadMethod="pad" x1="-819.2" x2="819.2">
      <stop offset="0.0" stop-color="#0273e3"/>
      <stop offset="1.0" stop-color="#ff3366" stop-opacity="0.2901961"/>
    </linearGradient>
  </defs>
</svg>
