<?xml version="1.0" encoding="UTF-8" standalone="no"?>
<svg xmlns:xlink="http://www.w3.org/1999/xlink" height="22.65px" width="30.35px" xmlns="http://www.w3.org/2000/svg">
  <g transform="matrix(1.0, 0.0, 0.0, 1.0, 0.0, 0.0)">
    <path d="M24.7 11.3 L27.95 11.25 23.8 11.65 23.2 11.65 Q21.2 11.6 19.55 12.45 19.8 13.95 19.5 15.25 L19.45 15.55 19.9 16.05 20.5 16.4 20.6 16.45 Q21.25 17.0 21.6 17.95 21.9 18.65 22.75 18.8 23.1 18.85 23.45 19.3 L24.0 19.75 24.15 20.6 23.55 21.1 25.0 22.8 26.65 25.05 27.7 27.2 27.95 28.3 26.05 25.75 23.3 22.4 Q23.25 21.9 23.35 21.5 L23.55 21.1 23.35 21.5 Q23.25 21.9 23.3 22.4 L23.05 22.7 22.25 23.15 Q23.25 24.7 23.0 26.55 L22.9 27.7 22.45 29.2 22.25 25.85 21.8 24.15 21.35 23.2 20.2 23.35 16.85 23.25 Q15.9 22.75 14.7 22.65 L10.9 22.45 9.1 22.25 6.55 21.7 2.8 21.45 1.8 21.2 Q1.35 20.25 0.35 19.8 L0.15 19.7 0.35 19.3 0.5 19.3 Q1.15 18.8 1.45 17.85 L1.8 17.0 2.0 16.45 4.15 14.45 4.2 14.3 4.25 14.0 4.25 13.8 Q5.7 12.35 7.35 11.15 L10.0 9.1 Q11.05 8.4 12.55 8.25 L18.5 7.7 19.3 7.75 30.5 6.55 25.5 7.6 20.35 8.7 19.9 10.75 24.7 11.3 M20.35 8.7 L20.4 8.2 19.65 8.05 19.3 7.75 19.65 8.05 20.4 8.2 20.35 8.7 M21.35 23.2 L22.25 23.15 21.35 23.2 M19.9 10.75 L19.55 12.05 19.55 12.45 19.55 12.05 19.9 10.75 M12.9 16.9 L15.05 17.3 Q16.2 16.4 16.9 15.0 16.45 13.2 15.2 11.75 13.35 11.45 11.6 11.8 10.15 11.85 9.25 12.9 8.45 13.85 8.1 14.8 L8.2 15.05 8.35 15.3 8.6 15.5 8.75 15.75 9.55 16.45 12.9 16.9 M6.15 17.6 L6.15 18.7 6.85 18.8 6.35 17.85 6.15 17.6 M2.05 19.25 L1.4 19.5 0.5 19.3 1.4 19.5 2.05 19.25 2.7 18.95 2.05 18.3 1.9 18.7 2.05 19.25 M6.15 18.7 L2.7 18.95 6.15 18.7 M3.75 17.35 Q4.9 16.35 5.15 15.2 L4.4 15.35 5.15 15.2 Q4.9 16.35 3.75 17.35 M10.9 19.3 L9.85 19.25 9.75 19.3 8.35 18.45 Q7.5 18.2 6.85 18.8 7.5 18.2 8.35 18.45 L9.75 19.3 9.85 19.25 10.9 19.3" fill="url(#gradient0)" fill-rule="evenodd" stroke="none"/>
    <path d="M25.5 7.6 L24.8 8.4 25.85 8.8 25.4 9.0 23.45 9.65 Q23.4 10.4 24.1 10.9 24.45 11.0 24.7 11.3 L19.9 10.75 20.35 8.7 25.5 7.6 M23.8 11.65 L23.8 11.8 Q23.3 12.2 22.65 12.4 L23.2 13.6 Q21.65 14.05 20.9 15.5 L20.65 16.2 20.6 16.45 20.5 16.4 19.9 16.05 19.45 15.55 19.5 15.25 Q19.8 13.95 19.55 12.45 21.2 11.6 23.2 11.65 L23.8 11.65 M26.05 25.75 Q25.95 26.65 25.5 26.05 L25.0 25.35 24.9 26.05 24.5 26.35 23.7 25.05 22.9 27.7 23.0 26.55 Q23.25 24.7 22.25 23.15 L23.05 22.7 23.3 22.4 26.05 25.75 M22.25 25.85 Q22.0 25.4 21.55 25.65 L21.55 25.55 21.1 26.05 Q21.15 24.8 20.2 23.35 L21.35 23.2 21.8 24.15 22.25 25.85" fill="#0000ff" fill-opacity="0.48235294" fill-rule="evenodd" stroke="none"/>
    <path d="M8.6 15.5 L8.35 15.3 8.2 15.05 8.1 14.8 Q8.45 13.85 9.25 12.9 10.15 11.85 11.6 11.8 13.35 11.45 15.2 11.75 16.45 13.2 16.9 15.0 16.2 16.4 15.05 17.3 L12.9 16.9 Q13.9 17.05 14.55 16.5 14.95 16.05 14.9 15.2 14.85 14.7 14.6 14.35 L13.6 12.85 12.35 12.9 Q10.65 12.9 9.65 14.0 8.95 14.8 8.6 15.5 M14.95 13.65 Q14.55 12.8 13.6 12.85 14.55 12.8 14.95 13.65" fill="#000000" fill-rule="evenodd" stroke="none"/>
    <path d="M6.15 17.6 L6.35 17.85 6.85 18.8 6.15 18.7 6.15 17.6 M2.05 19.25 L1.9 18.7 2.05 18.3 2.7 18.95 2.05 19.25" fill="#ffffcc" fill-rule="evenodd" stroke="none"/>
    <path d="M8.6 15.5 Q8.95 14.8 9.65 14.0 10.65 12.9 12.35 12.9 L13.6 12.85 14.6 14.35 Q14.85 14.7 14.9 15.2 14.95 16.05 14.55 16.5 13.9 17.05 12.9 16.9 L9.55 16.45 8.75 15.75 8.6 15.5" fill="#0066cc" fill-rule="evenodd" stroke="none"/>
    <path d="M25.5 7.6 L24.8 8.4 25.85 8.8 25.4 9.0 23.45 9.65 Q23.4 10.4 24.1 10.9 24.45 11.0 24.7 11.3 L27.95 11.25 23.8 11.65 23.8 11.8 Q23.3 12.2 22.65 12.4 L23.2 13.6 Q21.65 14.05 20.9 15.5 L20.65 16.2 20.6 16.45 Q21.25 17.0 21.6 17.95 21.9 18.65 22.75 18.8 23.1 18.85 23.45 19.3 L24.0 19.75 24.15 20.6 23.55 21.1 25.0 22.8 26.65 25.05 27.7 27.2 27.95 28.3 26.05 25.75 Q25.95 26.65 25.5 26.05 L25.0 25.35 24.9 26.05 24.5 26.35 23.7 25.05 22.9 27.7 22.45 29.2 22.25 25.85 Q22.0 25.4 21.55 25.65 L21.55 25.55 21.1 26.05 Q21.15 24.8 20.2 23.35 L16.85 23.25 Q15.9 22.75 14.7 22.65 L10.9 22.45 9.1 22.25 6.55 21.7 2.8 21.45 1.8 21.2 Q1.35 20.25 0.35 19.8 L0.15 19.7 0.35 19.3 0.5 19.3 Q1.15 18.8 1.45 17.85 L1.8 17.0 2.0 16.45 4.15 14.45 4.2 14.3 4.25 14.0 4.25 13.8 Q5.7 12.35 7.35 11.15 L10.0 9.1 Q11.05 8.4 12.55 8.25 L18.5 7.7 19.3 7.75 30.5 6.55 25.5 7.6 20.35 8.7 19.9 10.75 24.7 11.3 M19.3 7.75 L19.65 8.05 20.4 8.2 20.35 8.7 M23.8 11.65 L23.2 11.65 Q21.2 11.6 19.55 12.45 19.8 13.95 19.5 15.25 L19.45 15.55 19.9 16.05 20.5 16.4 20.6 16.45 M23.55 21.1 L23.35 21.5 Q23.25 21.9 23.3 22.4 L26.05 25.75 M22.25 25.85 L21.8 24.15 21.35 23.2 20.2 23.35 M22.25 23.15 L21.35 23.2 M23.3 22.4 L23.05 22.7 22.25 23.15 Q23.25 24.7 23.0 26.55 L22.9 27.7 M19.55 12.45 L19.55 12.05 19.9 10.75 M12.9 16.9 L15.05 17.3 Q16.2 16.4 16.9 15.0 16.45 13.2 15.2 11.75 13.35 11.45 11.6 11.8 10.15 11.85 9.25 12.9 8.45 13.85 8.1 14.8 L8.2 15.05 8.35 15.3 8.6 15.5 Q8.95 14.8 9.65 14.0 10.65 12.9 12.35 12.9 L13.6 12.85 Q14.55 12.8 14.95 13.65 M8.6 15.5 L8.75 15.75 9.55 16.45 12.9 16.9 Q13.9 17.05 14.55 16.5 14.95 16.05 14.9 15.2 14.85 14.7 14.6 14.35 L13.6 12.85 M6.15 17.6 L6.15 18.7 6.85 18.8 6.35 17.85 6.15 17.6 M0.5 19.3 L1.4 19.5 2.05 19.25 1.9 18.7 2.05 18.3 2.7 18.95 6.15 18.7 M2.7 18.95 L2.05 19.25 M6.85 18.8 Q7.5 18.2 8.35 18.45 L9.75 19.3 9.85 19.25 10.9 19.3 M4.4 15.35 L5.15 15.2 Q4.9 16.35 3.75 17.35" fill="none" stroke="#000000" stroke-linecap="round" stroke-linejoin="round" stroke-width="0.05"/>
  </g>
  <defs>
    <radialGradient cx="0" cy="0" gradientTransform="matrix(0.0216, 0.0, 0.0, 0.0179, 9.95, 12.8)" gradientUnits="userSpaceOnUse" id="gradient0" r="819.2" spreadMethod="pad">
      <stop offset="0.0" stop-color="#b39c88"/>
      <stop offset="0.43137254901960786" stop-color="#97786c"/>
      <stop offset="1.0" stop-color="#4b352e"/>
    </radialGradient>
  </defs>
</svg>
