<?xml version="1.0" encoding="UTF-8" standalone="no"?>
<svg xmlns:xlink="http://www.w3.org/1999/xlink" height="22.95px" width="28.75px" xmlns="http://www.w3.org/2000/svg">
  <g transform="matrix(1.0, 0.0, 0.0, 1.0, 0.0, 0.0)">
    <path d="M14.65 18.55 L14.65 18.6 14.65 18.55" fill="#886646" fill-rule="evenodd" stroke="none"/>
    <path d="M3.7 19.5 L4.2 18.7 4.5 19.65 3.7 19.5 M5.8 18.45 L5.2 18.9 4.95 18.15 5.8 18.45 M3.4 18.1 L2.3 18.8 1.85 18.05 3.4 18.1" fill="#bd9c84" fill-rule="evenodd" stroke="none"/>
    <path d="M24.9 3.95 L25.75 4.3 25.85 4.95 25.8 5.65 25.75 5.75 24.9 7.0 24.45 7.3 21.2 8.65 20.95 9.05 Q20.55 9.7 20.65 10.45 L20.35 11.05 Q20.05 11.6 20.4 12.2 20.95 12.85 21.9 12.6 L22.8 12.3 24.05 12.25 24.6 13.0 24.65 13.35 Q22.85 14.15 20.8 14.75 L20.5 15.75 21.6 17.35 21.85 17.7 Q24.35 18.3 26.8 17.75 L27.4 18.65 Q26.25 19.85 24.25 20.15 23.6 20.15 23.15 20.55 L22.9 20.95 22.95 21.65 Q24.2 23.45 26.45 24.4 26.85 24.55 27.25 24.75 27.95 25.05 28.2 25.65 L26.65 26.1 Q24.7 26.2 23.1 25.2 22.5 24.8 21.9 24.55 L18.0 24.25 16.25 24.45 Q14.55 24.6 12.8 23.95 10.5 23.0 8.25 23.15 7.4 23.25 6.6 22.8 4.7 21.7 2.55 22.1 2.05 22.3 1.8 22.1 L0.85 20.0 1.05 19.8 3.7 19.5 4.5 19.65 7.35 19.75 7.05 19.35 5.8 18.45 4.95 18.15 3.4 18.1 1.85 18.05 1.0 18.0 1.4 17.05 Q2.05 15.35 3.05 14.0 3.8 12.8 5.15 11.95 L7.6 10.35 8.15 10.7 8.8 10.65 10.25 10.2 10.9 11.55 10.75 12.55 10.05 13.25 Q9.55 14.05 8.55 14.5 7.4 14.95 7.05 16.05 L6.75 16.35 5.1 15.15 4.95 14.75 3.05 14.0 4.95 14.75 5.1 15.15 6.75 16.35 7.05 16.05 Q7.4 14.95 8.55 14.5 9.55 14.05 10.05 13.25 L10.75 12.55 10.9 11.55 10.25 10.2 11.8 8.95 11.9 8.2 14.45 7.9 14.65 8.2 17.1 8.15 17.4 7.45 17.8 7.35 20.05 6.6 Q21.1 7.2 21.4 6.25 L21.45 5.9 24.9 3.95 M21.9 24.55 L20.8 23.25 21.0 22.55 Q21.55 21.2 22.9 20.95 21.55 21.2 21.0 22.55 L20.8 23.25 21.9 24.55 M6.95 17.75 L6.75 16.35 6.95 17.75 M7.05 16.05 L9.55 18.45 10.35 18.9 9.55 18.45 7.05 16.05 M10.45 18.9 L12.95 18.85 Q14.05 19.1 14.65 18.6 16.15 18.9 17.05 18.2 17.7 19.6 17.75 21.0 L17.7 21.2 Q17.1 21.35 16.5 21.65 L13.55 22.0 12.35 22.75 12.3 22.7 11.85 22.25 9.75 20.55 10.1 20.0 10.45 18.95 10.1 20.0 9.75 20.55 11.85 22.25 12.3 22.7 12.35 22.75 13.55 22.0 16.5 21.65 Q17.1 21.35 17.7 21.2 L17.75 21.0 Q17.7 19.6 17.05 18.2 16.15 18.9 14.65 18.6 14.05 19.1 12.95 18.85 L10.45 18.9 10.35 18.9 10.45 18.95 10.45 18.9 M7.35 19.75 L8.15 19.6 9.75 20.55 8.15 19.6 7.35 19.75 M17.05 18.2 L17.6 17.65 Q19.45 16.65 21.6 17.35 19.45 16.65 17.6 17.65 L17.05 18.2 M14.5 14.35 L13.8 14.1 Q12.75 13.85 11.9 14.55 L11.65 15.2 Q11.4 15.75 11.85 16.35 L12.5 16.8 14.05 16.75 14.25 16.65 14.8 16.05 14.85 15.1 Q14.95 14.7 14.5 14.35 M20.8 23.25 L18.15 21.4 17.7 21.2 18.15 21.4 20.8 23.25 M12.35 22.75 L12.8 23.95 12.35 22.75 M10.75 12.55 L13.0 12.8 15.35 12.2 Q16.7 13.3 18.2 12.75 19.35 12.25 20.4 12.2 19.35 12.25 18.2 12.75 16.7 13.3 15.35 12.2 L13.0 12.8 10.75 12.55 M14.05 16.75 L14.65 18.55 14.05 16.75 M14.65 18.6 L14.65 18.55 14.65 18.6" fill="url(#gradient0)" fill-rule="evenodd" stroke="none"/>
    <path d="M14.5 14.35 Q14.95 14.7 14.85 15.1 L14.8 16.05 14.25 16.65 14.05 16.75 12.5 16.8 11.85 16.35 Q11.4 15.75 11.65 15.2 L11.9 14.55 Q12.75 13.85 13.8 14.1 L14.5 14.35" fill="#00ffff" fill-rule="evenodd" stroke="none"/>
    <path d="M7.6 10.35 L8.8 9.5 Q10.25 8.55 11.9 8.2 L11.8 8.95 10.25 10.2 8.8 10.65 8.15 10.7 7.6 10.35 M14.45 7.9 L17.4 7.45 17.1 8.15 14.65 8.2 14.45 7.9 M20.05 6.6 L21.45 5.9 21.4 6.25 Q21.1 7.2 20.05 6.6" fill="#4a3623" fill-rule="evenodd" stroke="none"/>
    <path d="M27.85 3.25 L25.75 4.3 27.85 3.25 Q28.4 3.45 28.95 3.95 L29.6 4.9 Q29.5 6.3 28.55 7.05 L28.05 7.35 26.25 8.1 24.75 8.6 21.2 8.65 24.45 7.3 24.9 7.0 25.75 5.75 25.8 5.65 25.85 4.95 25.75 4.3 24.9 3.95 25.6 3.55 Q26.8 2.9 27.85 3.25 M29.05 5.05 L25.8 5.65 29.05 5.05 M24.9 7.0 L25.8 7.2 28.55 7.05 25.8 7.2 24.9 7.0" fill="#cfb59c" fill-opacity="0.6" fill-rule="evenodd" stroke="none"/>
    <path d="M25.75 4.3 L27.85 3.25 Q26.8 2.9 25.6 3.55 L24.9 3.95 25.75 4.3 25.85 4.95 25.8 5.65 29.05 5.05 M21.2 8.65 L24.45 7.3 24.9 7.0 25.75 5.75 25.8 5.65 M27.85 3.25 Q28.4 3.45 28.95 3.95 L29.6 4.9 Q29.5 6.3 28.55 7.05 L28.05 7.35 26.25 8.1 24.75 8.6 21.2 8.65 20.95 9.05 Q20.55 9.7 20.65 10.45 L20.35 11.05 Q20.05 11.6 20.4 12.2 20.95 12.85 21.9 12.6 L22.8 12.3 24.05 12.25 24.6 13.0 24.65 13.35 Q22.85 14.15 20.8 14.75 L20.5 15.75 21.6 17.35 21.85 17.7 Q24.35 18.3 26.8 17.75 L27.4 18.65 Q26.25 19.85 24.25 20.15 23.6 20.15 23.15 20.55 L22.9 20.95 22.95 21.65 Q24.2 23.45 26.45 24.4 26.85 24.55 27.25 24.75 27.95 25.05 28.2 25.65 L26.65 26.1 Q24.7 26.2 23.1 25.2 22.5 24.8 21.9 24.55 L18.0 24.25 16.25 24.45 Q14.55 24.6 12.8 23.95 10.5 23.0 8.25 23.15 7.4 23.25 6.6 22.8 4.7 21.7 2.55 22.1 2.05 22.3 1.8 22.1 L0.85 20.0 1.05 19.8 3.7 19.5 4.2 18.7 4.5 19.65 7.35 19.75 7.05 19.35 5.8 18.45 5.2 18.9 4.95 18.15 3.4 18.1 2.3 18.8 1.85 18.05 1.0 18.0 1.4 17.05 Q2.05 15.35 3.05 14.0 3.8 12.8 5.15 11.95 L7.6 10.35 8.8 9.5 Q10.25 8.55 11.9 8.2 L14.45 7.9 17.4 7.45 17.8 7.35 20.05 6.6 21.45 5.9 24.9 3.95 M28.55 7.05 L25.8 7.2 24.9 7.0 M21.45 5.9 L21.4 6.25 Q21.1 7.2 20.05 6.6 M22.9 20.95 Q21.55 21.2 21.0 22.55 L20.8 23.25 21.9 24.55 M3.05 14.0 L4.95 14.75 5.1 15.15 6.75 16.35 7.05 16.05 Q7.4 14.95 8.55 14.5 9.55 14.05 10.05 13.25 L10.75 12.55 10.9 11.55 10.25 10.2 8.8 10.65 8.15 10.7 7.6 10.35 M11.9 8.2 L11.8 8.95 10.25 10.2 M14.45 7.9 L14.65 8.2 17.1 8.15 17.4 7.45 M10.35 18.9 L9.55 18.45 7.05 16.05 M6.75 16.35 L6.95 17.75 M3.4 18.1 L1.85 18.05 M4.5 19.65 L3.7 19.5 M10.45 18.95 L10.1 20.0 9.75 20.55 11.85 22.25 12.3 22.7 12.35 22.75 13.55 22.0 16.5 21.65 Q17.1 21.35 17.7 21.2 L17.75 21.0 Q17.7 19.6 17.05 18.2 16.15 18.9 14.65 18.6 14.05 19.1 12.95 18.85 L10.45 18.9 10.45 18.95 M10.35 18.9 L10.45 18.9 M9.75 20.55 L8.15 19.6 7.35 19.75 M5.8 18.45 L4.95 18.15 M21.6 17.35 Q19.45 16.65 17.6 17.65 L17.05 18.2 M14.5 14.35 L13.8 14.1 Q12.75 13.85 11.9 14.55 L11.65 15.2 Q11.4 15.75 11.85 16.35 L12.5 16.8 14.05 16.75 14.25 16.65 14.8 16.05 14.85 15.1 Q14.95 14.7 14.5 14.35 M14.65 18.55 L14.05 16.75 M20.4 12.2 Q19.35 12.25 18.2 12.75 16.7 13.3 15.35 12.2 L13.0 12.8 10.75 12.55 M12.8 23.95 L12.35 22.75 M17.7 21.2 L18.15 21.4 20.8 23.25 M14.65 18.55 L14.65 18.6" fill="none" stroke="#000000" stroke-linecap="round" stroke-linejoin="round" stroke-width="0.05"/>
  </g>
  <defs>
    <radialGradient cx="0" cy="0" gradientTransform="matrix(0.0255, -0.0064, 0.0042, 0.0168, 8.0, 12.1)" gradientUnits="userSpaceOnUse" id="gradient0" r="819.2" spreadMethod="pad">
      <stop offset="0.0" stop-color="#b89a76"/>
      <stop offset="1.0" stop-color="#7c603f"/>
    </radialGradient>
  </defs>
</svg>
