<?xml version="1.0" encoding="UTF-8" standalone="no"?>
<svg xmlns:xlink="http://www.w3.org/1999/xlink" height="26.05px" width="28.55px" xmlns="http://www.w3.org/2000/svg">
  <g transform="matrix(1.0, 0.0, 0.0, 1.0, 0.0, 0.0)">
    <path d="M28.25 1.0 L25.75 3.75 24.85 4.6 24.65 4.7 Q23.4 5.4 22.3 6.45 L21.9 6.85 21.4 7.2 20.95 8.0 20.9 8.15 Q20.25 9.5 20.7 10.7 L21.1 10.9 Q22.2 11.05 22.65 12.0 23.1 12.85 22.85 13.85 24.45 15.0 24.25 16.95 24.2 17.6 23.75 18.05 24.4 19.7 24.1 21.4 L24.05 22.0 22.65 23.9 20.65 25.25 Q18.3 26.0 16.1 25.75 L13.25 25.2 11.25 25.1 Q9.0 25.25 7.0 25.95 6.5 26.2 6.1 25.95 L4.85 25.7 2.95 24.75 2.15 24.35 0.7 24.2 0.05 23.5 0.5 21.9 0.85 22.05 1.65 22.2 3.05 22.45 3.3 22.45 4.45 22.55 5.2 22.65 6.15 22.75 6.6 22.45 7.55 22.25 8.55 21.95 9.8 21.65 10.8 21.6 12.1 21.35 13.4 21.0 16.05 20.95 16.45 20.2 Q13.75 19.85 12.05 19.1 L11.45 18.95 10.6 18.9 8.3 19.3 Q7.75 19.45 7.15 19.7 L6.1 20.1 5.3 20.45 3.65 20.4 2.55 20.35 1.2 19.8 1.25 19.7 1.75 18.0 Q2.05 16.0 3.0 14.4 L4.0 14.25 5.25 13.05 7.25 11.5 8.9 10.65 11.85 9.6 Q12.95 9.1 14.2 9.2 14.75 8.6 15.9 8.45 17.1 8.2 18.3 7.4 19.0 6.9 19.8 6.75 L20.15 6.35 22.75 4.5 23.9 3.55 Q24.65 2.7 25.55 2.15 L26.95 1.2 28.6 0.0 28.25 1.0 M21.4 21.4 L20.8 20.1 20.35 20.0 19.1 20.4 18.65 20.65 17.05 19.85 16.5 20.05 16.45 20.2 16.5 20.05 17.05 19.85 18.65 20.65 19.1 20.4 20.35 20.0 20.8 20.1 21.4 21.4 M23.75 18.05 L23.2 17.5 22.8 17.1 Q22.15 16.15 21.0 15.9 22.15 16.15 22.8 17.1 L23.2 17.5 23.75 18.05 M22.85 13.85 L22.7 13.75 21.4 13.55 22.7 13.75 22.85 13.85 M5.85 24.5 L2.15 24.35 5.85 24.5 M16.4 19.25 Q14.3 19.1 12.45 18.2 10.55 17.25 7.75 18.65 4.9 20.05 2.0 18.7 4.9 20.05 7.75 18.65 10.55 17.25 12.45 18.2 14.3 19.1 16.4 19.25 M19.55 10.6 L21.1 10.9 19.55 10.6" fill="url(#gradient0)" fill-rule="evenodd" stroke="none"/>
    <path d="M24.85 4.6 L25.75 3.75 28.25 1.0 28.3 3.95 28.25 4.45 28.25 4.7 27.2 6.35 22.3 6.45 27.2 6.35 Q26.35 7.2 25.2 7.65 24.15 8.1 23.2 8.7 21.8 9.55 20.7 10.7 20.25 9.5 20.9 8.15 L20.95 8.0 21.4 7.2 21.9 6.85 22.3 6.45 Q23.4 5.4 24.65 4.7 L24.85 4.6 28.3 3.95 24.85 4.6 M23.2 8.7 L22.7 8.7 Q21.6 8.7 20.9 8.15 21.6 8.7 22.7 8.7 L23.2 8.7" fill="#44a4bb" fill-opacity="0.3529412" fill-rule="evenodd" stroke="none"/>
    <path d="M3.65 20.4 L5.3 20.45 6.1 20.1 6.6 21.8 6.75 21.55 Q7.05 20.9 7.15 19.7 7.75 19.45 8.3 19.3 L10.6 18.9 10.75 20.6 10.95 20.3 11.45 18.95 12.05 19.1 Q13.75 19.85 16.45 20.2 L16.05 20.95 13.4 21.0 12.1 21.35 10.8 21.6 9.8 21.65 9.1 20.1 8.55 21.95 7.55 22.25 6.6 22.45 6.15 22.75 5.2 22.65 4.9 21.25 4.7 21.55 4.5 22.1 4.45 22.55 3.3 22.45 3.3 21.4 3.65 20.4" fill="#000000" fill-rule="evenodd" stroke="none"/>
    <path d="M2.55 20.35 L3.65 20.4 3.3 21.4 3.15 21.9 2.8 21.3 2.55 20.35 M6.1 20.1 L7.15 19.7 Q7.05 20.9 6.75 21.55 L6.6 21.8 6.1 20.1 M10.6 18.9 L11.45 18.95 10.95 20.3 10.75 20.6 10.6 18.9 M0.85 22.05 L1.4 21.1 1.65 22.2 0.85 22.05 M4.45 22.55 L4.5 22.1 4.7 21.55 4.9 21.25 5.2 22.65 4.45 22.55 M8.55 21.95 L9.1 20.1 9.8 21.65 8.55 21.95" fill="#d0c18e" fill-rule="evenodd" stroke="none"/>
    <path d="M28.25 1.0 L25.75 3.75 24.85 4.6 28.3 3.95 28.25 1.0 28.6 0.0 26.95 1.2 25.55 2.15 Q24.65 2.7 23.9 3.55 L22.75 4.5 20.15 6.35 19.8 6.75 Q19.0 6.9 18.3 7.4 17.1 8.2 15.9 8.45 14.75 8.6 14.2 9.2 12.95 9.1 11.85 9.6 L8.9 10.65 7.25 11.5 5.25 13.05 4.0 14.25 3.0 14.4 Q2.05 16.0 1.75 18.0 L1.25 19.7 1.2 19.8 2.55 20.35 3.65 20.4 5.3 20.45 6.1 20.1 M7.15 19.7 Q7.75 19.45 8.3 19.3 L10.6 18.9 M11.45 18.95 L12.05 19.1 Q13.75 19.85 16.45 20.2 L16.5 20.05 17.05 19.85 18.65 20.65 19.1 20.4 20.35 20.0 20.8 20.1 21.4 21.4 M27.2 6.35 L28.25 4.7 28.25 4.45 28.3 3.95 M24.85 4.6 L24.65 4.7 Q23.4 5.4 22.3 6.45 L27.2 6.35 Q26.35 7.2 25.2 7.65 24.15 8.1 23.2 8.7 21.8 9.55 20.7 10.7 L21.1 10.9 Q22.2 11.05 22.65 12.0 23.1 12.85 22.85 13.85 24.45 15.0 24.25 16.95 24.2 17.6 23.75 18.05 24.4 19.7 24.1 21.4 L24.05 22.0 22.65 23.9 20.65 25.25 Q18.3 26.0 16.1 25.75 L13.25 25.2 11.25 25.1 Q9.0 25.25 7.0 25.95 6.5 26.2 6.1 25.95 L4.85 25.7 2.95 24.75 2.15 24.35 0.7 24.2 0.05 23.5 0.5 21.9 0.85 22.05 1.65 22.2 3.05 22.45 3.3 22.45 3.3 21.4 3.15 21.9 M22.3 6.45 L21.9 6.85 21.4 7.2 20.95 8.0 20.9 8.15 Q21.6 8.7 22.7 8.7 L23.2 8.7 M20.9 8.15 Q20.25 9.5 20.7 10.7 M21.4 13.55 L22.7 13.75 22.85 13.85 M21.0 15.9 Q22.15 16.15 22.8 17.1 L23.2 17.5 23.75 18.05 M4.45 22.55 L5.2 22.65 6.15 22.75 6.6 22.45 7.55 22.25 8.55 21.95 M9.8 21.65 L10.8 21.6 12.1 21.35 13.4 21.0 16.05 20.95 16.45 20.2 M3.3 22.45 L4.45 22.55 M2.0 18.7 Q4.9 20.05 7.75 18.65 10.55 17.25 12.45 18.2 14.3 19.1 16.4 19.25 M2.15 24.35 L5.85 24.5 M21.1 10.9 L19.55 10.6" fill="none" stroke="#000000" stroke-linecap="round" stroke-linejoin="round" stroke-width="0.05"/>
  </g>
  <defs>
    <radialGradient cx="0" cy="0" gradientTransform="matrix(0.0216, 0.0, 0.0, 0.0179, 9.95, 12.8)" gradientUnits="userSpaceOnUse" id="gradient0" r="819.2" spreadMethod="pad">
      <stop offset="0.0" stop-color="#fafcfa"/>
      <stop offset="0.43137254901960786" stop-color="#dfecec"/>
      <stop offset="1.0" stop-color="#a5a5b8"/>
    </radialGradient>
  </defs>
</svg>
