<?xml version="1.0" encoding="UTF-8" standalone="no"?>
<svg xmlns:xlink="http://www.w3.org/1999/xlink" height="25.7px" width="30.6px" xmlns="http://www.w3.org/2000/svg">
  <g transform="matrix(1.0, 0.0, 0.0, 1.0, 0.0, 0.0)">
    <path d="M2.8 25.3 Q0.9 25.4 0.25 23.55 -0.2 22.2 0.85 21.55 L2.5 21.8 Q3.45 22.05 4.35 22.6 L7.05 24.2 Q8.5 25.0 10.1 25.45 L12.95 25.35 Q14.2 24.65 14.5 23.15 15.15 20.3 13.35 18.1 12.15 16.7 10.35 16.7 L9.9 16.3 8.9 16.55 8.4 16.85 6.8 17.15 4.2 17.75 4.0 17.8 2.6 17.55 1.2 17.2 0.55 16.7 0.95 15.45 Q1.8 14.05 2.8 12.75 L3.85 12.9 4.4 13.35 4.55 13.45 Q5.8 14.5 7.45 14.55 L8.8 14.0 13.0 14.1 13.8 14.65 15.5 16.75 Q15.95 17.45 16.05 18.25 16.4 21.1 16.0 23.85 L15.45 24.1 14.85 25.15 Q13.4 27.55 10.75 27.9 9.45 27.45 8.45 26.7 5.9 24.95 2.8 25.3 M22.1 16.3 L21.85 17.65 Q21.35 17.95 20.8 18.05 L19.65 18.15 Q17.95 17.65 17.15 16.15 L22.1 16.3" fill="#0066cc" fill-rule="evenodd" stroke="none"/>
    <path d="M2.5 21.8 L4.0 17.8 4.2 17.75 6.8 17.15 8.4 16.85 Q6.8 19.2 6.5 22.0 L6.25 21.95 Q4.4 20.2 4.2 17.75 4.4 20.2 6.25 21.95 L6.5 22.0 Q6.8 19.2 8.4 16.85 L8.9 16.55 9.9 16.3 10.35 16.7 Q12.15 16.7 13.35 18.1 15.15 20.3 14.5 23.15 14.2 24.65 12.95 25.35 L10.1 25.45 Q8.5 25.0 7.05 24.2 L4.35 22.6 Q3.45 22.05 2.5 21.8 M20.05 13.0 Q19.2 13.05 19.1 14.2 L19.15 14.95 Q19.45 15.05 19.75 15.3 L20.3 15.75 21.1 15.65 21.6 14.6 Q22.05 15.35 22.1 16.3 L17.15 16.15 17.05 15.35 Q16.85 13.8 17.8 12.6 18.6 12.05 19.45 12.6 L20.05 13.0 M13.45 21.85 L12.7 20.7 Q11.75 19.25 11.2 17.65 L10.6 23.1 8.9 16.55 10.6 23.1 11.2 17.65 Q11.75 19.25 12.7 20.7 L13.45 21.85" fill="#ffffcc" fill-rule="evenodd" stroke="none"/>
    <path d="M20.05 13.0 L20.8 13.6 21.6 14.6 21.1 15.65 20.3 15.75 19.75 15.3 Q19.45 15.05 19.15 14.95 L19.1 14.2 Q19.2 13.05 20.05 13.0" fill="#ff0000" fill-rule="evenodd" stroke="none"/>
    <path d="M26.8 10.6 L27.5 11.3 Q29.3 13.55 30.2 16.2 30.95 18.55 30.6 21.15 L30.0 23.8 Q29.45 25.45 27.95 26.15 L26.95 25.9 Q28.1 24.15 28.25 22.05 L28.35 17.95 28.05 16.05 26.8 10.6 28.05 16.05 28.35 17.95 28.25 22.05 Q28.1 24.15 26.95 25.9 L26.3 26.9 23.2 29.8 22.4 29.5 22.1 28.85 21.45 28.5 19.9 30.15 18.3 27.7 Q16.55 27.45 15.25 28.2 L13.85 28.8 12.35 29.3 Q9.2 29.6 6.45 28.05 L5.05 26.95 Q4.15 25.85 2.8 25.3 5.9 24.95 8.45 26.7 9.45 27.45 10.75 27.9 13.4 27.55 14.85 25.15 L15.45 24.1 16.0 23.85 Q16.4 21.1 16.05 18.25 15.95 17.45 15.5 16.75 L13.8 14.65 13.0 14.1 8.8 14.0 7.45 14.55 Q5.8 14.5 4.55 13.45 L4.4 13.35 7.4 10.65 Q8.9 9.5 10.6 8.75 11.65 8.25 12.85 8.05 15.1 7.55 17.0 5.35 15.1 7.55 12.85 8.05 11.65 8.25 10.6 8.75 8.9 9.5 7.4 10.65 L4.4 13.35 3.85 12.9 Q5.65 10.8 7.7 9.15 9.85 7.5 12.75 7.4 14.2 7.05 15.45 5.85 L16.6 4.45 20.55 6.65 21.55 5.35 Q22.85 5.1 23.75 6.05 25.85 8.05 26.8 10.6 M21.45 28.5 L22.15 27.75 23.2 26.0 24.85 22.9 Q25.35 22.05 25.5 20.85 L25.65 18.8 Q25.8 17.0 25.15 15.2 L23.25 10.45 Q22.35 8.35 20.55 6.65 22.35 8.35 23.25 10.45 L25.15 15.2 Q25.8 17.0 25.65 18.8 L25.5 20.85 Q25.35 22.05 24.85 22.9 L23.2 26.0 22.15 27.75 21.45 28.5 M25.35 9.8 Q23.85 6.4 22.3 6.0 L21.35 6.75 22.3 6.0 Q23.85 6.4 25.35 9.8 M21.6 14.6 L20.8 13.6 20.05 13.0 19.45 12.6 Q18.6 12.05 17.8 12.6 16.85 13.8 17.05 15.35 L17.15 16.15 Q17.95 17.65 19.65 18.15 L20.8 18.05 Q21.35 17.95 21.85 17.65 L22.1 16.3 Q22.05 15.35 21.6 14.6 M20.55 10.25 L19.85 10.1 15.7 12.8 19.85 10.1 20.55 10.25" fill="url(#gradient0)" fill-rule="evenodd" stroke="none"/>
    <path d="M26.95 25.9 L27.95 26.15 Q29.45 25.45 30.0 23.8 L30.6 21.15 Q30.95 18.55 30.2 16.2 29.3 13.55 27.5 11.3 L26.8 10.6 28.05 16.05 28.35 17.95 28.25 22.05 Q28.1 24.15 26.95 25.9 L26.3 26.9 23.2 29.8 22.4 29.5 22.1 28.85 21.45 28.5 19.9 30.15 18.3 27.7 Q16.55 27.45 15.25 28.2 L13.85 28.8 12.35 29.3 Q9.2 29.6 6.45 28.05 L5.05 26.95 Q4.15 25.85 2.8 25.3 0.9 25.4 0.25 23.55 -0.2 22.2 0.85 21.55 L2.5 21.8 4.0 17.8 2.6 17.55 1.2 17.2 0.55 16.7 0.95 15.45 Q1.8 14.05 2.8 12.75 L3.85 12.9 Q5.65 10.8 7.7 9.15 9.85 7.5 12.75 7.4 14.2 7.05 15.45 5.85 L16.6 4.45 20.55 6.65 21.55 5.35 Q22.85 5.1 23.75 6.05 25.85 8.05 26.8 10.6 M20.55 6.65 Q22.35 8.35 23.25 10.45 L25.15 15.2 Q25.8 17.0 25.65 18.8 L25.5 20.85 Q25.35 22.05 24.85 22.9 L23.2 26.0 22.15 27.75 21.45 28.5 M21.6 14.6 L20.8 13.6 20.05 13.0 Q19.2 13.05 19.1 14.2 L19.15 14.95 Q19.45 15.05 19.75 15.3 L20.3 15.75 21.1 15.65 21.6 14.6 Q22.05 15.35 22.1 16.3 L21.85 17.65 Q21.35 17.95 20.8 18.05 L19.65 18.15 Q17.95 17.65 17.15 16.15 L17.05 15.35 Q16.85 13.8 17.8 12.6 18.6 12.05 19.45 12.6 L20.05 13.0 M8.4 16.85 L6.8 17.15 4.2 17.75 Q4.4 20.2 6.25 21.95 L6.5 22.0 Q6.8 19.2 8.4 16.85 L8.9 16.55 9.9 16.3 10.35 16.7 Q12.15 16.7 13.35 18.1 15.15 20.3 14.5 23.15 14.2 24.65 12.95 25.35 L10.1 25.45 Q8.5 25.0 7.05 24.2 L4.35 22.6 Q3.45 22.05 2.5 21.8 M4.4 13.35 L4.55 13.45 Q5.8 14.5 7.45 14.55 L8.8 14.0 13.0 14.1 13.8 14.65 15.5 16.75 Q15.95 17.45 16.05 18.25 16.4 21.1 16.0 23.85 L15.45 24.1 14.85 25.15 Q13.4 27.55 10.75 27.9 9.45 27.45 8.45 26.7 5.9 24.95 2.8 25.3 M3.85 12.9 L4.4 13.35 M4.2 17.75 L4.0 17.8 M8.9 16.55 L10.6 23.1 11.2 17.65 Q11.75 19.25 12.7 20.7 L13.45 21.85 M15.7 12.8 L19.85 10.1 20.55 10.25 M17.15 16.15 L22.1 16.3" fill="none" stroke="#000000" stroke-linecap="round" stroke-linejoin="round" stroke-width="0.05"/>
    <path d="M21.35 6.75 L22.3 6.0 Q23.85 6.4 25.35 9.8 M4.4 13.35 L7.4 10.65 Q8.9 9.5 10.6 8.75 11.65 8.25 12.85 8.05 15.1 7.55 17.0 5.35" fill="none" stroke="#66cccc" stroke-linecap="round" stroke-linejoin="round" stroke-width="0.05"/>
  </g>
  <defs>
    <linearGradient gradientTransform="matrix(0.0, 0.0161, -0.0157, 0.0, 14.6, 18.45)" gradientUnits="userSpaceOnUse" id="gradient0" spreadMethod="pad" x1="-819.2" x2="819.2">
      <stop offset="0.0" stop-color="#003366"/>
      <stop offset="0.43137254901960786" stop-color="#23c2d3"/>
      <stop offset="1.0" stop-color="#ff3366"/>
    </linearGradient>
  </defs>
</svg>
