<?xml version="1.0" encoding="UTF-8" standalone="no"?>
<svg xmlns:xlink="http://www.w3.org/1999/xlink" height="8.65px" width="8.15px" xmlns="http://www.w3.org/2000/svg">
  <g transform="matrix(1.0, 0.0, 0.0, 1.0, 0.0, 0.0)">
    <path d="M5.25 4.65 L5.45 2.6 5.8 0.1 6.3 0.0 6.8 0.3 6.85 0.8 Q6.95 2.7 6.4 4.55 L5.25 4.65" fill="url(#gradient0)" fill-rule="evenodd" stroke="none"/>
    <path d="M6.4 4.55 Q7.15 4.2 7.35 4.9 L7.35 5.3 7.75 5.55 7.95 5.8 8.05 5.95 8.15 6.25 Q7.7 7.05 6.8 7.15 L5.55 7.4 Q4.85 7.5 4.4 8.0 3.8 8.6 2.9 8.65 L1.2 8.1 Q-0.85 6.9 0.55 4.85 L0.8 5.8 1.1 6.45 1.4 6.7 1.75 6.85 2.3 6.9 2.8 6.7 4.5 5.3 Q4.4 4.55 5.15 4.6 L5.25 4.65 6.4 4.55 M4.5 5.3 L4.6 5.35 7.35 5.3 4.6 5.35 4.5 5.3" fill="#954820" fill-rule="evenodd" stroke="none"/>
    <path d="M5.25 4.65 L5.45 2.6 5.8 0.1 6.3 0.0 6.8 0.3 6.85 0.8 Q6.95 2.7 6.4 4.55 7.15 4.2 7.35 4.9 L7.35 5.3 7.75 5.55 7.95 5.8 8.05 5.95 8.15 6.25 Q7.7 7.05 6.8 7.15 L5.55 7.4 Q4.85 7.5 4.4 8.0 3.8 8.6 2.9 8.65 L1.2 8.1 Q-0.85 6.9 0.55 4.85 L0.8 5.8 1.1 6.45 1.4 6.7 1.75 6.85 2.3 6.9 2.8 6.7 4.5 5.3 Q4.4 4.55 5.15 4.6 L5.25 4.65 6.4 4.55 M7.35 5.3 L4.6 5.35 4.5 5.3" fill="none" stroke="#000000" stroke-linecap="round" stroke-linejoin="round" stroke-width="0.05"/>
  </g>
  <defs>
    <linearGradient gradientTransform="matrix(1.0, 0.0, 0.0, 1.0, -56.3, -37.5)" gradientUnits="userSpaceOnUse" id="gradient0" spreadMethod="pad" x1="-819.2" x2="819.2">
      <stop offset="0.0" stop-color="#f3aca3"/>
      <stop offset="0.34509803921568627" stop-color="#e7d4a2"/>
      <stop offset="1.0" stop-color="#f1e4c9"/>
    </linearGradient>
  </defs>
</svg>
