<?xml version="1.0" encoding="UTF-8" standalone="no"?>
<svg xmlns:xlink="http://www.w3.org/1999/xlink" height="9.15px" width="7.0px" xmlns="http://www.w3.org/2000/svg">
  <g transform="matrix(1.0, 0.0, 0.0, 1.0, 0.0, 0.0)">
    <path d="M5.1 4.1 Q5.0 3.45 5.2 2.75 L5.4 1.6 Q5.4 0.5 6.05 -0.05 L6.55 -0.15 6.85 0.45 6.95 1.35 6.75 3.25 6.45 4.65 5.8 4.55 5.35 4.05 5.1 4.1 M0.85 8.2 L0.7 8.2 Q0.25 8.05 0.45 7.75 L1.45 7.7 Q0.85 7.75 0.85 8.2 0.85 7.75 1.45 7.7 L2.15 8.3 Q1.8 8.95 1.05 8.5 L0.85 8.2" fill="url(#gradient0)" fill-rule="evenodd" stroke="none"/>
    <path d="M5.1 4.1 L5.35 4.05 5.8 4.55 6.45 4.65 Q7.0 4.7 7.0 5.45 L6.75 7.05 6.65 7.9 4.7 8.3 3.0 8.8 1.85 8.95 1.5 9.0 0.45 8.65 0.1 8.05 Q-0.2 7.55 0.3 6.6 0.8 5.55 1.95 6.05 L2.65 6.0 2.9 5.9 3.3 5.85 3.55 5.6 3.7 5.35 3.7 4.85 3.7 4.7 3.95 4.2 5.1 4.1 M5.8 4.55 L5.8 4.65 5.65 6.0 5.8 4.65 5.8 4.55 M5.15 7.4 L4.15 8.1 3.2 8.2 2.15 8.3 3.2 8.2 4.15 8.1 5.15 7.4 M3.1 6.85 L3.05 6.4 2.9 5.9 3.05 6.4 3.1 6.85 M3.3 5.85 Q3.65 6.65 4.45 6.7 L4.65 6.45 Q4.85 5.95 4.4 5.6 L3.7 5.35 4.4 5.6 Q4.85 5.95 4.65 6.45 L4.45 6.7 Q3.65 6.65 3.3 5.85 M1.45 7.7 L0.45 7.75 Q0.25 8.05 0.7 8.2 L0.85 8.2 1.05 8.5 Q1.8 8.95 2.15 8.3 L1.45 7.7 M2.6 6.5 L2.65 6.0 2.6 6.5 M0.45 7.75 L0.1 8.05 0.45 7.75" fill="#3c3531" fill-rule="evenodd" stroke="none"/>
    <path d="M6.45 4.65 L6.75 3.25 6.95 1.35 6.85 0.45 6.55 -0.15 6.05 -0.05 Q5.4 0.5 5.4 1.6 L5.2 2.75 Q5.0 3.45 5.1 4.1 L5.35 4.05 5.8 4.55 6.45 4.65 Q7.0 4.7 7.0 5.45 L6.75 7.05 6.65 7.9 4.7 8.3 3.0 8.8 1.85 8.95 1.5 9.0 0.45 8.65 0.1 8.05 Q-0.2 7.55 0.3 6.6 0.8 5.55 1.95 6.05 L2.65 6.0 2.9 5.9 3.3 5.85 3.55 5.6 3.7 5.35 3.0 5.7 2.9 5.75 Q2.1 5.65 1.55 5.15 L1.55 4.9 1.95 4.5 2.3 4.75 3.0 5.7 M5.65 6.0 L5.8 4.65 5.8 4.55 M5.1 4.1 L3.95 4.2 3.7 4.7 3.7 4.85 3.7 5.35 4.4 5.6 Q4.85 5.95 4.65 6.45 L4.45 6.7 Q3.65 6.65 3.3 5.85 M2.9 5.9 L3.05 6.4 3.1 6.85 M2.15 8.3 L3.2 8.2 4.15 8.1 5.15 7.4 M1.45 7.7 L0.45 7.75 Q0.25 8.05 0.7 8.2 L0.85 8.2 Q0.85 7.75 1.45 7.7 L2.15 8.3 Q1.8 8.95 1.05 8.5 L0.85 8.2 M0.1 8.05 L0.45 7.75 M2.65 6.0 L2.6 6.5" fill="none" stroke="#000000" stroke-linecap="round" stroke-linejoin="round" stroke-width="0.05"/>
  </g>
  <defs>
    <linearGradient gradientTransform="matrix(1.0, 0.0, 0.0, 1.0, 0.0, 0.0)" gradientUnits="userSpaceOnUse" id="gradient0" spreadMethod="pad" x1="-819.2" x2="819.2">
      <stop offset="0.0" stop-color="#f3aca3"/>
      <stop offset="0.34509803921568627" stop-color="#ddc1a6"/>
      <stop offset="1.0" stop-color="#a8926f"/>
    </linearGradient>
  </defs>
</svg>
