<?xml version="1.0" encoding="UTF-8" standalone="no"?>
<svg xmlns:xlink="http://www.w3.org/1999/xlink" height="5.35px" width="14.55px" xmlns="http://www.w3.org/2000/svg">
  <g transform="matrix(1.0, 0.0, 0.0, 1.0, 0.0, 0.0)">
    <path d="M0.15 2.45 Q0.35 2.15 0.9 2.2 L3.05 2.55 3.35 2.65 5.45 3.55 5.8 3.7 6.3 3.9 Q7.8 4.4 9.25 5.15 L11.1 5.9 12.6 6.3 14.3 6.65 14.55 6.8 14.0 7.3 12.6 7.55 12.3 7.55 11.35 7.5 10.65 7.4 10.6 7.35 10.25 7.25 10.2 7.3 9.05 6.95 7.55 6.85 7.3 6.85 7.35 6.8 Q5.2 7.75 3.45 6.75 0.95 6.25 0.0 4.75 L0.1 3.95 0.45 3.75 0.2 3.1 0.2 3.0 0.2 2.65 0.15 2.45 M1.15 3.4 Q2.5 3.35 3.8 4.0 L4.2 4.2 5.65 4.9 6.4 5.3 6.65 5.4 9.4 6.35 9.75 6.45 11.75 6.95 12.05 7.1 12.3 7.55 12.05 7.1 11.75 6.95 9.75 6.45 9.4 6.35 6.65 5.4 6.4 5.3 5.65 4.9 4.2 4.2 3.8 4.0 Q2.5 3.35 1.15 3.4 M5.35 5.6 Q4.95 6.1 4.5 5.5 L4.35 5.35 4.25 5.35 3.9 5.4 Q3.5 5.3 3.4 4.8 L3.25 5.1 3.0 5.35 2.55 5.35 Q1.8 5.05 1.65 4.25 1.8 5.05 2.55 5.35 L3.0 5.35 3.25 5.1 3.4 4.8 Q3.5 5.3 3.9 5.4 L4.25 5.35 4.35 5.35 4.5 5.5 Q4.95 6.1 5.35 5.6" fill="url(#gradient0)" fill-rule="evenodd" stroke="none"/>
    <path d="M0.15 2.45 Q0.35 2.15 0.9 2.2 L3.05 2.55 3.35 2.65 5.45 3.55 5.8 3.7 6.3 3.9 Q7.8 4.4 9.25 5.15 L11.1 5.9 12.6 6.3 14.3 6.65 14.55 6.8 14.0 7.3 12.6 7.55 12.3 7.55 11.35 7.5 10.65 7.4 10.6 7.35 10.25 7.25 10.25 7.3 10.2 7.3 9.05 6.95 7.55 6.85 7.3 6.85 7.35 6.8 Q5.2 7.75 3.45 6.75 0.95 6.25 0.0 4.75 L0.1 3.95 0.45 3.75 M12.3 7.55 L12.05 7.1 11.75 6.95 9.75 6.45 9.4 6.35 6.65 5.4 6.4 5.3 5.65 4.9 4.2 4.2 3.8 4.0 Q2.5 3.35 1.15 3.4 M1.65 4.25 Q1.8 5.05 2.55 5.35 L3.0 5.35 3.25 5.1 3.4 4.8 Q3.5 5.3 3.9 5.4 L4.25 5.35 4.35 5.35 4.5 5.5 Q4.95 6.1 5.35 5.6" fill="none" stroke="#000000" stroke-linecap="round" stroke-linejoin="round" stroke-width="0.05"/>
  </g>
  <defs>
    <linearGradient gradientTransform="matrix(-0.0063, -0.0016, 0.001, -0.0051, 5.95, 7.0)" gradientUnits="userSpaceOnUse" id="gradient0" spreadMethod="pad" x1="-819.2" x2="819.2">
      <stop offset="0.0" stop-color="#ebe0c9"/>
      <stop offset="0.34509803921568627" stop-color="#d7b464"/>
      <stop offset="1.0" stop-color="#c08a32"/>
    </linearGradient>
  </defs>
</svg>
