<?xml version="1.0" encoding="UTF-8" standalone="no"?>
<svg xmlns:xlink="http://www.w3.org/1999/xlink" height="5.45px" width="17.8px" xmlns="http://www.w3.org/2000/svg">
  <g transform="matrix(1.0, 0.0, 0.0, 1.0, 0.0, 0.0)">
    <path d="M15.65 1.8 L14.55 2.2 13.75 2.45 13.75 2.4 13.65 2.4 13.2 2.45 13.25 2.5 13.2 2.5 11.75 2.75 11.7 2.75 10.05 3.35 9.8 3.45 9.85 3.4 Q7.85 5.3 5.45 5.1 2.5 5.8 0.75 4.8 L0.55 4.0 0.85 3.6 0.35 3.1 0.25 3.0 0.15 2.65 0.0 2.5 Q0.1 2.1 0.7 1.9 L3.25 1.25 3.65 1.2 6.35 1.1 6.8 1.1 7.45 1.05 11.25 0.9 13.6 0.75 15.45 0.45 17.5 0.0 17.8 0.0 17.4 0.75 16.0 1.65 15.65 1.8 15.15 1.45 14.8 1.45 12.35 1.9 11.9 2.0 8.45 2.35 8.15 2.35 7.15 2.3 5.2 2.3 4.7 2.3 Q3.05 2.3 1.5 2.95 3.05 2.3 4.7 2.3 L5.2 2.3 7.15 2.3 8.15 2.35 8.45 2.35 11.9 2.0 12.35 1.9 14.8 1.45 15.15 1.45 15.65 1.8 M7.1 3.15 Q6.85 3.8 6.1 3.4 L5.9 3.35 5.75 3.4 5.4 3.6 Q4.9 3.7 4.6 3.25 L4.55 3.6 4.35 4.0 3.85 4.2 Q2.95 4.25 2.4 3.55 2.95 4.25 3.85 4.2 L4.35 4.0 4.55 3.6 4.6 3.25 Q4.9 3.7 5.4 3.6 L5.75 3.4 5.9 3.35 6.1 3.4 Q6.85 3.8 7.1 3.15" fill="url(#gradient0)" fill-rule="evenodd" stroke="none"/>
    <path d="M15.65 1.8 L15.15 1.45 14.8 1.45 12.35 1.9 11.9 2.0 8.45 2.35 8.15 2.35 7.15 2.3 5.2 2.3 4.7 2.3 Q3.05 2.3 1.5 2.95 M2.4 3.55 Q2.95 4.25 3.85 4.2 L4.35 4.0 4.55 3.6 4.6 3.25 Q4.9 3.7 5.4 3.6 L5.75 3.4 5.9 3.35 6.1 3.4 Q6.85 3.8 7.1 3.15" fill="none" stroke="#000000" stroke-linecap="round" stroke-linejoin="round" stroke-width="0.05"/>
  </g>
  <defs>
    <linearGradient gradientTransform="matrix(0.0076, -0.0018, 0.0013, 0.0053, -5.55, 3.25)" gradientUnits="userSpaceOnUse" id="gradient0" spreadMethod="pad" x1="-819.2" x2="819.2">
      <stop offset="0.0" stop-color="#f59f94"/>
      <stop offset="0.34509803921568627" stop-color="#ebd9fb"/>
      <stop offset="1.0" stop-color="#d6bdf7"/>
    </linearGradient>
  </defs>
</svg>
