<?xml version="1.0" encoding="UTF-8" standalone="no"?>
<svg xmlns:xlink="http://www.w3.org/1999/xlink" height="9.05px" width="7.95px" xmlns="http://www.w3.org/2000/svg">
  <g transform="matrix(1.0, 0.0, 0.0, 1.0, 0.0, 0.0)">
    <path d="M0.8 1.0 Q1.25 0.75 1.75 0.55 L5.3 0.1 6.65 0.05 7.25 0.4 7.55 2.05 7.15 2.05 6.85 1.5 Q6.35 1.5 6.1 1.85 L5.85 2.2 5.45 2.25 5.45 2.4 5.4 2.25 3.85 2.3 3.6 2.45 3.55 2.65 2.95 2.95 Q1.65 3.35 0.25 4.35 L0.5 2.6 0.7 1.5 0.8 1.0 M7.7 2.75 L7.9 3.6 Q8.45 5.65 7.45 7.35 6.0 9.15 3.8 9.1 2.25 9.1 1.0 7.85 0.1 6.95 0.15 5.65 L1.15 4.9 3.0 3.85 3.65 3.6 3.9 4.35 5.2 4.5 5.6 3.7 5.5 3.1 6.0 2.95 6.1 3.7 6.25 3.9 6.95 4.0 7.2 3.5 7.3 2.75 7.7 2.75 M5.4 2.25 L5.45 2.25 5.4 2.25 M1.55 5.95 Q1.05 5.95 1.1 5.5 L1.15 4.9 1.1 5.5 Q1.05 5.95 1.55 5.95" fill="url(#gradient0)" fill-rule="evenodd" stroke="none"/>
    <path d="M7.55 2.05 L7.7 2.75 7.3 2.75 7.2 3.5 6.95 4.0 6.25 3.9 6.1 3.7 6.0 2.95 5.5 3.1 5.45 2.4 5.5 3.1 5.6 3.7 5.2 4.5 3.9 4.35 3.65 3.6 3.0 3.85 1.15 4.9 0.15 5.65 0.25 4.35 Q1.65 3.35 2.95 2.95 L3.55 2.65 3.6 2.45 3.85 2.3 5.4 2.25 5.45 2.4 5.0 3.15 4.85 3.25 4.65 3.15 3.85 2.3 4.65 3.15 4.85 3.25 5.0 3.15 5.45 2.4 5.45 2.25 5.85 2.2 Q6.2 2.7 6.85 2.4 L7.2 2.2 7.3 2.75 7.2 2.2 6.85 2.4 Q6.2 2.7 5.85 2.2 L6.1 1.85 Q6.35 1.5 6.85 1.5 L7.15 2.05 7.55 2.05 M5.85 2.2 L6.0 2.95 5.85 2.2 M7.15 2.05 L7.2 2.2 7.15 2.05 M3.55 2.65 L3.65 3.6 3.55 2.65" fill="#4a3623" fill-rule="evenodd" stroke="none"/>
    <path d="M7.25 0.4 L7.55 2.05 7.7 2.75 7.9 3.6 Q8.45 5.65 7.45 7.35 6.0 9.15 3.8 9.1 2.25 9.1 1.0 7.85 0.1 6.95 0.15 5.65 L0.25 4.35 0.5 2.6 0.7 1.5 0.8 1.0 M1.15 4.9 L1.1 5.5 Q1.05 5.95 1.55 5.95" fill="none" stroke="#000000" stroke-linecap="round" stroke-linejoin="round" stroke-width="0.05"/>
    <path d="M5.45 2.4 L5.4 2.25 3.85 2.3 4.65 3.15 4.85 3.25 5.0 3.15 5.45 2.4 5.45 2.25 5.4 2.25 M6.0 2.95 L5.85 2.2 5.45 2.25 M5.5 3.1 L6.0 2.95 6.1 3.7 6.25 3.9 6.95 4.0 7.2 3.5 7.3 2.75 7.2 2.2 6.85 2.4 Q6.2 2.7 5.85 2.2 L6.1 1.85 Q6.35 1.5 6.85 1.5 L7.15 2.05 7.55 2.05 M5.45 2.4 L5.5 3.1 5.6 3.7 5.2 4.5 3.9 4.35 3.65 3.6 3.0 3.85 1.15 4.9 0.15 5.65 M7.2 2.2 L7.15 2.05 M7.3 2.75 L7.7 2.75 M0.25 4.35 Q1.65 3.35 2.95 2.95 L3.55 2.65 3.6 2.45 3.85 2.3 M3.65 3.6 L3.55 2.65" fill="none" stroke="#000000" stroke-linecap="round" stroke-linejoin="round" stroke-width="0.05"/>
  </g>
  <defs>
    <linearGradient gradientTransform="matrix(0.0074, 0.0, 0.0, 0.0055, 2.0, 4.7)" gradientUnits="userSpaceOnUse" id="gradient0" spreadMethod="pad" x1="-819.2" x2="819.2">
      <stop offset="0.0" stop-color="#ebe0c9"/>
      <stop offset="0.34509803921568627" stop-color="#d7b464"/>
      <stop offset="1.0" stop-color="#c08a32"/>
    </linearGradient>
  </defs>
</svg>
