<?xml version="1.0" encoding="UTF-8" standalone="no"?>
<svg xmlns:xlink="http://www.w3.org/1999/xlink" height="9.05px" width="7.95px" xmlns="http://www.w3.org/2000/svg">
  <g transform="matrix(1.0, 0.0, 0.0, 1.0, 0.0, 0.0)">
    <path d="M0.8 1.0 Q1.25 0.75 1.75 0.55 L5.3 0.1 6.65 0.05 7.25 0.4 7.9 3.6 8.1 5.05 3.6 5.0 3.7 4.65 2.05 4.2 1.25 4.3 1.1 4.65 0.25 4.4 0.5 2.6 0.7 1.5 0.8 1.0" fill="url(#gradient0)" fill-rule="evenodd" stroke="none"/>
    <path d="M3.3 6.3 Q3.25 7.0 2.6 6.7 L0.9 6.15 0.7 5.85 1.1 4.65 1.25 4.3 2.05 4.2 3.7 4.65 3.6 5.0 3.3 6.3 M1.85 5.8 L2.8 5.7 2.45 5.6 2.6 5.4 Q2.7 5.25 2.85 5.25 L1.4 5.2 1.35 5.35 Q1.3 5.8 1.85 5.8 M2.85 5.25 L3.3 5.45 Q3.55 5.95 2.8 5.7 3.55 5.95 3.3 5.45 L2.85 5.25" fill="#ffa300" fill-opacity="0.88235295" fill-rule="evenodd" stroke="none"/>
    <path d="M8.1 5.05 L7.9 6.4 3.3 6.3 3.6 5.0 8.1 5.05 M0.15 5.75 L0.25 4.4 1.1 4.65 0.7 5.85 0.15 5.75 M1.85 5.8 Q1.3 5.8 1.35 5.35 L1.4 5.2 2.85 5.25 Q2.7 5.25 2.6 5.4 L2.45 5.6 2.8 5.7 1.85 5.8" fill="#3d2312" fill-rule="evenodd" stroke="none"/>
    <path d="M7.9 6.4 L7.45 7.35 Q6.0 9.15 3.8 9.1 2.25 9.1 1.0 7.85 0.15 7.0 0.15 5.75 L0.7 5.85 0.9 6.15 2.6 6.7 Q3.25 7.0 3.3 6.3 L7.9 6.4" fill="#396020" fill-rule="evenodd" stroke="none"/>
    <path d="M7.25 0.4 L7.9 3.6 8.1 5.05 7.9 6.4 7.45 7.35 Q6.0 9.15 3.8 9.1 2.25 9.1 1.0 7.85 0.15 7.0 0.15 5.75 L0.25 4.4 0.5 2.6 0.7 1.5 0.8 1.0 M0.7 5.85 L0.9 6.15 2.6 6.7 Q3.25 7.0 3.3 6.3 L3.6 5.0 3.7 4.65 2.05 4.2 1.25 4.3 1.1 4.65 0.7 5.85 0.15 5.75 M1.85 5.8 L2.8 5.7 2.45 5.6 2.6 5.4 Q2.7 5.25 2.85 5.25 L1.4 5.2 1.35 5.35 Q1.3 5.8 1.85 5.8 M1.1 4.65 L0.25 4.4 M2.8 5.7 Q3.55 5.95 3.3 5.45 L2.85 5.25 M8.1 5.05 L3.6 5.0 M3.3 6.3 L7.9 6.4" fill="none" stroke="#000000" stroke-linecap="round" stroke-linejoin="round" stroke-width="0.05"/>
  </g>
  <defs>
    <linearGradient gradientTransform="matrix(0.0074, 0.0, 0.0, 0.0055, 2.0, 4.7)" gradientUnits="userSpaceOnUse" id="gradient0" spreadMethod="pad" x1="-819.2" x2="819.2">
      <stop offset="0.0" stop-color="#f3aca3"/>
      <stop offset="0.34509803921568627" stop-color="#ffada6"/>
      <stop offset="1.0" stop-color="#ff70c4"/>
    </linearGradient>
  </defs>
</svg>
