<?xml version="1.0" encoding="UTF-8" standalone="no"?>
<svg xmlns:xlink="http://www.w3.org/1999/xlink" height="12.55px" width="14.35px" xmlns="http://www.w3.org/2000/svg">
  <g transform="matrix(1.0, 0.0, 0.0, 1.0, 0.0, 0.0)">
    <path d="M7.85 14.3 L7.85 14.35 7.85 14.3" fill="url(#gradient0)" fill-rule="evenodd" stroke="none"/>
    <path d="M7.75 12.05 L6.1 11.6 6.65 11.4 7.8 11.35 8.4 11.55 7.75 12.05" fill="#000000" fill-rule="evenodd" stroke="none"/>
    <path d="M7.85 14.3 L8.05 14.4 7.35 15.05 6.0 15.65 Q5.9 15.2 5.45 14.9 L5.6 14.75 5.8 14.6 5.85 14.5 5.85 14.25 5.85 14.5 5.8 14.6 5.6 14.75 5.45 14.9 Q5.9 15.2 6.0 15.65 L5.6 15.75 4.05 16.05 3.35 16.2 2.7 15.45 2.85 15.4 Q3.1 14.95 3.7 14.75 L4.1 14.65 4.35 14.85 4.7 14.95 5.15 14.95 5.4 14.9 5.45 14.9 5.4 14.9 5.15 14.95 4.7 14.95 4.35 14.85 4.1 14.65 4.8 14.4 5.85 14.25 7.25 14.25 7.6 14.2 7.85 14.3 7.85 14.35 7.85 14.3" fill="#483700" fill-rule="evenodd" stroke="none"/>
    <path d="M16.35 7.9 Q16.1 9.2 16.1 10.8 L16.0 14.65 Q16.0 15.45 15.45 15.95 L11.45 16.4 8.95 16.1 Q8.2 16.05 7.35 15.35 L7.35 15.05 8.05 14.4 7.85 14.3 7.6 14.2 7.25 14.25 7.15 12.9 7.15 12.75 5.15 12.4 Q4.7 12.95 3.55 13.2 L2.9 12.4 Q2.95 11.4 3.8 10.8 L4.35 10.15 4.4 10.1 4.5 9.8 4.5 9.75 4.6 9.35 5.15 8.65 6.25 7.1 6.75 6.15 Q8.0 4.6 10.0 4.15 12.15 3.65 14.05 4.6 16.1 5.75 16.4 7.9 L16.35 7.9 M9.35 9.5 L9.8 9.9 10.05 10.3 10.2 10.7 10.05 11.2 Q9.55 12.8 7.15 12.9 9.55 12.8 10.05 11.2 L10.2 10.7 10.05 10.3 9.8 9.9 9.35 9.5 M7.75 12.05 L8.4 11.55 7.8 11.35 6.65 11.4 6.1 11.6 7.75 12.05 M7.95 13.6 L7.9 14.2 7.85 14.3 7.9 14.2 7.95 13.6 M9.35 14.7 L8.65 14.5 7.9 14.2 8.65 14.5 9.35 14.7 M10.55 14.35 Q10.4 13.6 9.8 13.15 10.4 13.6 10.55 14.35" fill="url(#gradient1)" fill-rule="evenodd" stroke="none"/>
    <path d="M15.45 15.95 Q16.0 15.45 16.0 14.65 L16.1 10.8 Q16.1 9.2 16.35 7.9 M6.75 6.15 L6.25 7.1 5.15 8.65 4.6 9.35 M3.55 13.2 Q4.7 12.95 5.15 12.4 L7.15 12.75 7.15 12.9 Q9.55 12.8 10.05 11.2 L10.2 10.7 10.05 10.3 9.8 9.9 9.35 9.5 M7.85 14.3 L7.9 14.2 7.95 13.6 M7.35 15.05 L7.35 15.35 M7.85 14.3 L7.85 14.35 M7.15 12.9 L7.25 14.25" fill="none" stroke="#000000" stroke-linecap="round" stroke-linejoin="round" stroke-width="0.05"/>
    <path d="M16.35 7.9 L16.4 7.9 Q16.1 5.75 14.05 4.6 12.15 3.65 10.0 4.15 8.0 4.6 6.75 6.15 M4.6 9.35 L4.5 9.75 4.5 9.8 4.4 10.1 4.35 10.15 3.8 10.8 Q2.95 11.4 2.9 12.4 L3.55 13.2 M7.9 14.2 L8.65 14.5 9.35 14.7 M7.85 14.3 L8.05 14.4 7.35 15.05 6.0 15.65 Q5.9 15.2 5.45 14.9 L5.6 14.75 5.8 14.6 5.85 14.5 5.85 14.25 4.8 14.4 4.1 14.65 4.35 14.85 4.7 14.95 5.15 14.95 5.4 14.9 5.45 14.9 M7.85 14.35 L7.85 14.3 7.6 14.2 7.25 14.25 5.85 14.25 M4.1 14.65 L3.7 14.75 Q3.1 14.95 2.85 15.4 L2.7 15.45 3.35 16.2 4.05 16.05 5.6 15.75 6.0 15.65 M2.5 16.25 L2.35 15.85 2.35 15.75 2.4 15.9 2.5 16.25 2.4 16.25 2.1 16.05 2.1 16.1 2.1 16.2 2.25 16.55 Q1.9 16.4 2.1 16.1 M9.8 13.15 Q10.4 13.6 10.55 14.35" fill="none" stroke="#000000" stroke-linecap="round" stroke-linejoin="round" stroke-width="0.05"/>
  </g>
  <defs>
    <linearGradient gradientTransform="matrix(0.0076, -0.0018, 0.0013, 0.0053, 7.85, 10.8)" gradientUnits="userSpaceOnUse" id="gradient0" spreadMethod="pad" x1="-819.2" x2="819.2">
      <stop offset="0.0" stop-color="#f3aca3"/>
      <stop offset="0.34509803921568627" stop-color="#e7d4a2"/>
      <stop offset="1.0" stop-color="#f1e4c9"/>
    </linearGradient>
    <linearGradient gradientTransform="matrix(0.0076, -0.0018, 0.0013, 0.0053, 7.85, 10.8)" gradientUnits="userSpaceOnUse" id="gradient1" spreadMethod="pad" x1="-819.2" x2="819.2">
      <stop offset="0.0" stop-color="#ebe0c9"/>
      <stop offset="0.34509803921568627" stop-color="#d7b464"/>
      <stop offset="1.0" stop-color="#c08a32"/>
    </linearGradient>
  </defs>
</svg>
