<?xml version="1.0" encoding="UTF-8" standalone="no"?>
<svg xmlns:xlink="http://www.w3.org/1999/xlink" height="16.15px" width="14.65px" xmlns="http://www.w3.org/2000/svg">
  <g transform="matrix(1.0, 0.0, 0.0, 1.0, 0.0, 0.0)">
    <path d="M12.6 16.45 L12.65 16.15 12.75 16.2 12.9 16.4 12.6 16.45" fill="url(#gradient0)" fill-rule="evenodd" stroke="none"/>
    <path d="M6.1 11.6 L6.65 11.4 7.8 11.35 8.4 11.55 7.75 12.05 6.1 11.6" fill="#000000" fill-rule="evenodd" stroke="none"/>
    <path d="M6.15 12.5 L7.15 12.75 7.15 12.9 Q9.55 12.8 10.05 11.2 L10.2 10.7 10.2 10.55 10.7 10.5 11.55 10.75 11.55 10.55 11.6 10.5 11.8 10.6 12.6 11.05 12.45 10.85 12.4 10.75 13.2 11.1 13.85 11.45 14.0 11.6 13.55 11.45 14.0 11.95 Q14.45 12.5 14.5 13.2 L13.65 13.0 13.8 13.3 14.05 13.85 14.2 14.4 14.2 14.8 14.1 14.85 13.75 14.8 13.55 14.75 13.6 15.0 13.65 15.55 13.75 16.05 13.75 16.35 13.7 16.45 13.5 16.65 13.1 16.55 12.9 16.4 12.75 16.2 12.65 16.15 12.6 16.45 11.95 18.25 11.9 18.15 11.65 17.9 11.35 17.3 11.25 16.95 11.2 16.85 11.1 17.25 10.9 17.85 10.5 18.6 10.25 18.95 9.95 19.2 9.9 17.95 9.75 18.1 9.5 18.65 8.4 19.8 8.4 19.55 8.3 19.15 8.1 18.4 8.05 18.4 7.95 18.65 7.7 19.05 6.65 20.0 6.75 19.8 6.85 19.25 6.9 18.65 6.85 18.05 6.7 17.55 6.6 17.55 6.55 17.6 6.45 18.05 6.4 18.6 6.25 18.3 6.0 17.75 5.5 16.85 5.35 15.85 5.35 15.65 5.0 16.2 Q4.85 15.45 5.1 14.75 L5.25 14.45 5.5 14.2 5.6 13.95 Q5.2 14.15 4.9 14.5 L5.0 14.05 5.15 13.75 5.3 13.45 6.0 12.8 6.15 12.5 M9.3 13.3 L8.9 13.5 8.75 13.55 8.75 13.35 8.65 13.1 8.6 13.1 7.95 13.55 8.0 14.25 8.1 14.15 8.3 14.15 Q8.8 14.2 8.95 14.75 L8.95 14.65 9.15 14.25 9.3 14.3 9.7 14.5 9.95 14.8 10.35 15.35 10.55 14.7 10.55 14.25 10.5 13.55 10.4 13.65 10.15 14.1 10.1 14.15 10.05 14.1 9.95 13.8 9.85 13.3 9.75 13.2 9.3 13.3" fill="#513d2f" fill-rule="evenodd" stroke="none"/>
    <path d="M9.3 13.3 L9.75 13.2 9.85 13.3 9.95 13.8 10.05 14.1 10.1 14.15 10.15 14.1 10.4 13.65 10.5 13.55 10.55 14.25 10.55 14.7 10.35 15.35 9.95 14.8 9.7 14.5 9.3 14.3 9.15 14.25 8.95 14.65 8.95 14.75 Q8.8 14.2 8.3 14.15 L8.1 14.15 8.0 14.25 7.95 13.55 8.6 13.1 8.65 13.1 8.75 13.35 8.75 13.55 8.9 13.5 9.3 13.3" fill="url(#gradient1)" fill-rule="evenodd" stroke="none"/>
    <path d="M13.75 16.35 L13.75 16.05 13.65 15.55 13.6 15.0 13.55 14.75 13.75 14.8 14.1 14.85 14.2 14.8 14.2 14.4 14.05 13.85 13.8 13.3 13.65 13.0 14.5 13.2 Q14.45 12.5 14.0 11.95 L13.55 11.45 14.0 11.6 13.85 11.45 13.2 11.1 12.4 10.75 12.45 10.85 12.6 11.05 11.8 10.6 11.6 10.5 11.55 10.55 11.55 10.75 10.7 10.5 10.2 10.55 10.2 10.7 10.05 11.2 Q9.55 12.8 7.15 12.9 L7.15 12.75 6.15 12.5 5.9 12.4 Q5.3 14.15 2.5 12.8 0.85 11.35 2.75 10.25 4.6 9.1 6.35 6.2 8.1 3.3 11.6 3.95 15.1 4.55 16.05 6.25 L16.15 6.65 16.3 7.15 16.4 7.9 16.35 7.9 Q16.1 9.2 16.1 10.8 L16.0 14.65 Q16.0 15.45 15.45 15.95 L13.75 16.35 M9.35 9.5 L9.8 9.9 10.05 10.3 10.2 10.55 10.05 10.3 9.8 9.9 9.35 9.5 M6.1 11.6 L7.75 12.05 8.4 11.55 7.8 11.35 6.65 11.4 6.1 11.6" fill="url(#gradient2)" fill-rule="evenodd" stroke="none"/>
    <path d="M13.75 16.35 L13.75 16.05 13.65 15.55 13.6 15.0 13.55 14.75 13.75 14.8 14.1 14.85 14.2 14.8 14.2 14.4 14.05 13.85 13.8 13.3 13.65 13.0 14.5 13.2 Q14.45 12.5 14.0 11.95 L13.55 11.45 14.0 11.6 13.85 11.45 13.2 11.1 12.4 10.75 12.45 10.85 12.6 11.05 11.8 10.6 11.6 10.5 11.55 10.55 11.55 10.75 10.7 10.5 10.2 10.55 10.2 10.7 10.05 11.2 Q9.55 12.8 7.15 12.9 L7.15 12.75 6.15 12.5 6.0 12.8 5.3 13.45 5.15 13.75 5.0 14.05 4.9 14.5 Q5.2 14.15 5.6 13.95 L5.5 14.2 5.25 14.45 5.1 14.75 Q4.85 15.45 5.0 16.2 L5.35 15.65 5.35 15.85 5.5 16.85 6.0 17.75 6.25 18.3 6.4 18.6 6.45 18.05 6.55 17.6 6.6 17.55 6.7 17.55 6.85 18.05 6.9 18.65 6.85 19.25 6.75 19.8 6.65 20.0 7.7 19.05 7.95 18.65 8.05 18.4 8.1 18.4 8.3 19.15 8.4 19.55 8.4 19.8 9.5 18.65 9.75 18.1 9.9 17.95 9.95 19.2 10.25 18.95 10.5 18.6 10.9 17.85 11.1 17.25 11.2 16.85 11.25 16.95 11.35 17.3 11.65 17.9 11.9 18.15 11.95 18.25 12.6 16.45 12.65 16.15 12.75 16.2 12.9 16.4 13.1 16.55 13.5 16.65 13.7 16.45 13.75 16.35 M15.45 15.95 Q16.0 15.45 16.0 14.65 L16.1 10.8 Q16.1 9.2 16.35 7.9 M6.35 6.2 Q4.6 9.1 2.75 10.25 0.85 11.35 2.5 12.8 5.3 14.15 5.9 12.4 L6.15 12.5 M10.2 10.55 L10.05 10.3 9.8 9.9 9.35 9.5 M9.3 13.3 L9.75 13.2 9.85 13.3 9.95 13.8 10.05 14.1 10.1 14.15 10.15 14.1 10.4 13.65 10.5 13.55 10.55 14.25 10.55 14.7 10.35 15.35 9.95 14.8 9.7 14.5 9.3 14.3 9.15 14.25 8.95 14.65 8.95 14.75 Q8.8 14.2 8.3 14.15 L8.1 14.15 8.0 14.25 7.95 13.55 8.6 13.1 8.65 13.1 8.75 13.35 8.75 13.55 8.9 13.5 9.3 13.3" fill="none" stroke="#000000" stroke-linecap="round" stroke-linejoin="round" stroke-width="0.05"/>
    <path d="M16.35 7.9 L16.4 7.9 16.3 7.15 16.15 6.65 16.05 6.25 Q15.1 4.55 11.6 3.95 8.1 3.3 6.35 6.2" fill="none" stroke="#000000" stroke-linecap="round" stroke-linejoin="round" stroke-width="0.05"/>
  </g>
  <defs>
    <linearGradient gradientTransform="matrix(0.0076, -0.0018, 0.0013, 0.0053, 7.85, 10.8)" gradientUnits="userSpaceOnUse" id="gradient0" spreadMethod="pad" x1="-819.2" x2="819.2">
      <stop offset="0.0" stop-color="#f3aca3"/>
      <stop offset="0.34509803921568627" stop-color="#e7d4a2"/>
      <stop offset="1.0" stop-color="#f1e4c9"/>
    </linearGradient>
    <linearGradient gradientTransform="matrix(0.0076, -0.0018, 0.0013, 0.0053, 7.85, 10.8)" gradientUnits="userSpaceOnUse" id="gradient1" spreadMethod="pad" x1="-819.2" x2="819.2">
      <stop offset="0.0" stop-color="#f3aca3"/>
      <stop offset="0.34509803921568627" stop-color="#ddc1a6"/>
      <stop offset="1.0" stop-color="#cda79e"/>
    </linearGradient>
    <linearGradient gradientTransform="matrix(0.0076, -0.0018, 0.0013, 0.0053, 7.85, 10.8)" gradientUnits="userSpaceOnUse" id="gradient2" spreadMethod="pad" x1="-819.2" x2="819.2">
      <stop offset="0.0" stop-color="#f3aca3"/>
      <stop offset="0.34509803921568627" stop-color="#ddc1a6"/>
      <stop offset="1.0" stop-color="#a8926f"/>
    </linearGradient>
  </defs>
</svg>
