<?xml version="1.0" encoding="UTF-8" standalone="no"?>
<svg xmlns:xlink="http://www.w3.org/1999/xlink" height="12.45px" width="15.15px" xmlns="http://www.w3.org/2000/svg">
  <g transform="matrix(1.0, 0.0, 0.0, 1.0, 0.0, 0.0)">
    <path d="M7.15 12.9 L7.15 12.75 5.15 12.4 Q4.3 13.35 1.3 13.45 0.9 12.35 3.15 10.7 5.35 9.0 6.75 6.15 8.1 3.3 13.2 4.2 15.1 4.55 16.05 6.25 L16.15 6.65 16.3 7.15 16.4 7.9 16.35 7.9 Q16.1 9.2 16.1 10.8 L16.0 14.65 Q16.0 15.45 15.45 15.95 L11.45 16.4 8.95 16.1 Q8.2 16.05 7.35 15.35 L7.15 12.9 Q9.55 12.8 10.05 11.2 L10.2 10.7 10.05 10.3 9.8 9.9 9.35 9.5 9.8 9.9 10.05 10.3 10.2 10.7 10.05 11.2 Q9.55 12.8 7.15 12.9 M7.75 12.05 L8.4 11.55 7.8 11.35 6.65 11.4 6.1 11.6 7.75 12.05" fill="url(#gradient0)" fill-rule="evenodd" stroke="none"/>
    <path d="M7.75 12.05 L6.1 11.6 6.65 11.4 7.8 11.35 8.4 11.55 7.75 12.05" fill="#000000" fill-rule="evenodd" stroke="none"/>
    <path d="M7.15 12.9 Q9.55 12.8 10.05 11.2 L10.2 10.7 10.05 10.3 9.8 9.9 9.35 9.5" fill="none" stroke="#000000" stroke-linecap="round" stroke-linejoin="round" stroke-width="0.05"/>
  </g>
  <defs>
    <linearGradient gradientTransform="matrix(0.0076, -0.0018, 0.0013, 0.0053, 7.85, 10.8)" gradientUnits="userSpaceOnUse" id="gradient0" spreadMethod="pad" x1="-819.2" x2="819.2">
      <stop offset="0.0" stop-color="#f3aca3"/>
      <stop offset="0.34509803921568627" stop-color="#e7d4a2"/>
      <stop offset="1.0" stop-color="#f1e4c9"/>
    </linearGradient>
  </defs>
</svg>
