<?xml version="1.0" encoding="UTF-8" standalone="no"?>
<svg xmlns:xlink="http://www.w3.org/1999/xlink" height="12.45px" width="16.8px" xmlns="http://www.w3.org/2000/svg">
  <g transform="matrix(1.0, 0.0, 0.0, 1.0, 0.0, 0.0)">
    <path d="M7.75 12.05 L6.1 11.6 6.65 11.4 7.8 11.35 8.4 11.55 7.75 12.05 M9.05 13.3 L10.6 13.9 11.05 13.75 Q10.65 14.45 9.85 14.5 L9.65 14.5 8.7 14.3 8.2 14.3 8.0 14.25 7.9 14.05 7.95 13.6 Q8.2 13.15 8.95 13.25 L9.05 13.3 M6.85 13.45 L7.2 13.65 7.05 14.2 6.4 14.55 5.8 14.7 4.75 14.35 Q5.4 14.45 5.7 14.05 L6.5 13.45 6.85 13.45" fill="#000000" fill-rule="evenodd" stroke="none"/>
    <path d="M7.15 12.9 L7.15 12.75 5.15 12.4 Q4.3 13.35 1.3 13.45 0.6 12.35 1.75 10.8 2.85 9.2 5.5 6.25 8.1 3.3 13.2 4.2 15.1 4.55 16.05 6.25 L16.15 6.65 16.3 7.15 16.4 7.9 16.35 7.9 Q16.1 9.2 16.1 10.8 L16.0 14.65 Q16.0 15.45 15.45 15.95 L11.45 16.4 8.95 16.1 Q8.2 16.05 7.35 15.35 L7.2 13.65 7.2 13.45 7.15 12.9 Q9.55 12.8 10.05 11.2 L10.2 10.7 10.05 10.3 9.8 9.9 9.35 9.5 9.8 9.9 10.05 10.3 10.2 10.7 10.05 11.2 Q9.55 12.8 7.15 12.9 M7.75 12.05 L8.4 11.55 7.8 11.35 6.65 11.4 6.1 11.6 7.75 12.05 M9.05 13.3 L8.95 13.25 Q8.2 13.15 7.95 13.6 L7.9 14.05 8.0 14.25 8.2 14.3 8.7 14.3 9.65 14.5 9.85 14.5 Q10.65 14.45 11.05 13.75 L10.6 13.9 9.05 13.3" fill="url(#gradient0)" fill-rule="evenodd" stroke="none"/>
    <path d="M7.15 12.9 Q9.55 12.8 10.05 11.2 L10.2 10.7 10.05 10.3 9.8 9.9 9.35 9.5" fill="none" stroke="#000000" stroke-linecap="round" stroke-linejoin="round" stroke-width="0.05"/>
    <path d="M12.25 5.6 L12.1 5.6 Q10.9 5.65 10.0 6.45 9.05 7.35 9.05 8.6 L9.05 8.7 9.15 9.3 Q9.3 10.1 10.0 10.7 L10.7 11.2 Q11.4 11.6 12.25 11.6 13.6 11.6 14.5 10.7 15.45 9.85 15.45 8.6 15.45 7.35 14.5 6.45 13.75 5.75 12.75 5.65 L12.25 5.6 M12.4 12.05 Q10.9 12.05 9.8 11.05 8.75 10.1 8.75 8.65 8.75 7.25 9.8 6.25 10.9 5.3 12.4 5.3 13.9 5.3 14.95 6.25 16.05 7.25 16.05 8.7 16.05 10.1 14.95 11.05 L13.25 12.0 12.4 12.05" fill="#ffcc00" fill-rule="evenodd" stroke="none"/>
    <path d="M12.25 5.6 L12.75 5.65 Q13.75 5.75 14.5 6.45 15.45 7.35 15.45 8.6 15.45 9.85 14.5 10.7 13.6 11.6 12.25 11.6 11.4 11.6 10.7 11.2 L10.0 10.7 Q9.3 10.1 9.15 9.3 L9.05 8.7 9.05 8.6 Q9.05 7.35 10.0 6.45 10.9 5.65 12.1 5.6 L12.25 5.6 M14.75 7.25 L10.7 11.2 14.75 7.25 M12.1 5.6 L9.05 8.7 12.1 5.6 M9.15 9.3 L12.75 5.65 9.15 9.3" fill="#d9f5ff" fill-opacity="0.101960786" fill-rule="evenodd" stroke="none"/>
    <path d="M10.7 11.2 L14.75 7.25 M12.75 5.65 L9.15 9.3 M9.05 8.7 L12.1 5.6" fill="none" stroke="#ffffff" stroke-linecap="round" stroke-linejoin="round" stroke-width="0.05"/>
    <path d="M13.3 12.3 L13.45 12.35 13.55 12.55 13.45 12.7 13.3 12.8 13.1 12.7 13.05 12.55 13.1 12.35 13.3 12.3 M17.35 9.5 L17.45 9.7 17.35 9.85 17.2 9.95 17.0 9.85 16.95 9.7 17.0 9.5 17.2 9.45 17.35 9.5 M17.2 11.05 L17.4 11.0 17.55 11.05 17.65 11.25 17.55 11.4 17.4 11.5 17.2 11.4 17.15 11.25 17.2 11.05 M17.85 14.3 L17.75 14.45 17.6 14.55 17.4 14.45 17.35 14.3 17.4 14.1 17.6 14.05 17.75 14.1 17.85 14.3 M17.65 12.55 L17.75 12.75 17.65 12.9 17.5 13.0 17.3 12.9 17.25 12.75 17.3 12.55 17.5 12.5 17.65 12.55 M16.95 15.25 L17.1 15.3 17.2 15.5 17.1 15.65 16.95 15.75 16.75 15.65 16.7 15.5 16.75 15.3 16.95 15.25 M15.35 15.8 L15.55 15.75 15.7 15.8 15.8 16.0 15.7 16.15 15.55 16.25 15.35 16.15 15.3 16.0 15.35 15.8 M13.7 13.75 L13.85 13.8 13.95 14.0 13.85 14.15 13.7 14.25 13.5 14.15 13.45 14.0 13.5 13.8 13.7 13.75 M14.3 15.0 L14.5 14.95 14.65 15.0 14.75 15.2 14.65 15.35 14.5 15.45 14.3 15.35 14.25 15.2 14.3 15.0" fill="#ffcc00" fill-rule="evenodd" stroke="none"/>
  </g>
  <defs>
    <linearGradient gradientTransform="matrix(0.0076, -0.0018, 0.0013, 0.0053, 7.85, 10.8)" gradientUnits="userSpaceOnUse" id="gradient0" spreadMethod="pad" x1="-819.2" x2="819.2">
      <stop offset="0.0" stop-color="#f59f94"/>
      <stop offset="0.34509803921568627" stop-color="#ebd9fb"/>
      <stop offset="1.0" stop-color="#d6bdf7"/>
    </linearGradient>
  </defs>
</svg>
