<?xml version="1.0" encoding="UTF-8" standalone="no"?>
<svg xmlns:xlink="http://www.w3.org/1999/xlink" height="9.25px" width="22.85px" xmlns="http://www.w3.org/2000/svg">
  <g transform="matrix(1.0, 0.0, 0.0, 1.0, 0.0, 0.0)">
    <path d="M22.55 6.3 Q21.1 7.4 19.1 7.3 17.65 7.2 16.5 7.9 15.65 8.85 14.35 8.85 L10.35 8.45 7.3 9.25 Q6.35 8.85 5.8 7.9 4.4 7.05 2.7 7.55 L2.3 7.4 0.0 5.85 0.2 5.45 Q1.5 4.8 3.0 4.3 6.8 3.4 9.6 0.8 10.05 0.35 10.7 0.2 L12.55 0.35 Q14.75 2.05 17.2 3.25 18.95 4.2 20.85 4.45 L22.55 4.8 22.85 5.5 22.55 6.3 M10.2 4.7 L10.05 5.35 Q9.6 6.5 8.6 7.25 9.6 6.5 10.05 5.35 L10.2 4.7 M7.0 4.05 L6.6 4.7 Q5.95 5.7 4.95 6.25 5.95 5.7 6.6 4.7 L7.0 4.05 M14.25 7.0 L13.55 4.8 14.25 7.0 M18.0 5.85 L17.15 5.6 Q16.75 5.3 16.75 4.9 16.75 5.3 17.15 5.6 L18.0 5.85" fill="url(#gradient0)" fill-rule="evenodd" stroke="none"/>
    <path d="M22.55 6.3 Q21.1 7.4 19.1 7.3 17.65 7.2 16.5 7.9 15.65 8.85 14.35 8.85 L10.35 8.45 7.3 9.25 Q6.35 8.85 5.8 7.9 4.4 7.05 2.7 7.55 L2.3 7.4 0.0 5.85 0.2 5.45 Q1.5 4.8 3.0 4.3 6.8 3.4 9.6 0.8 10.05 0.35 10.7 0.2 L12.55 0.35 Q14.75 2.05 17.2 3.25 18.95 4.2 20.85 4.45 L22.55 4.8 22.85 5.5 22.55 6.3 M16.75 4.9 Q16.75 5.3 17.15 5.6 L18.0 5.85 M13.55 4.8 L14.25 7.0 M4.95 6.25 Q5.95 5.7 6.6 4.7 L7.0 4.05 M8.6 7.25 Q9.6 6.5 10.05 5.35 L10.2 4.7" fill="none" stroke="#000000" stroke-linecap="round" stroke-linejoin="round" stroke-width="0.05"/>
  </g>
  <defs>
    <radialGradient cx="0" cy="0" gradientTransform="matrix(0.0192, 0.0, 0.0, 0.0121, 11.35, 1.55)" gradientUnits="userSpaceOnUse" id="gradient0" r="819.2" spreadMethod="pad">
      <stop offset="0.0" stop-color="#f3aca3"/>
      <stop offset="0.6862745098039216" stop-color="#ca4b1c"/>
      <stop offset="1.0" stop-color="#ab1616"/>
    </radialGradient>
  </defs>
</svg>
