<?xml version="1.0" encoding="UTF-8" standalone="no"?>
<svg xmlns:xlink="http://www.w3.org/1999/xlink" height="9.8px" width="21.1px" xmlns="http://www.w3.org/2000/svg">
  <g transform="matrix(1.0, 0.0, 0.0, 1.0, 0.0, 0.0)">
    <path d="M16.3 5.1 L16.35 5.5 15.75 5.65 11.2 6.85 Q8.7 7.0 6.7 5.75 7.0 4.55 7.45 3.55 L7.6 3.15 11.8 1.95 13.3 1.65 Q13.8 1.8 14.3 2.1 16.1 3.0 16.3 5.1 M6.2 6.6 L6.2 6.9 6.5 7.4 Q8.8 8.45 11.45 8.0 L15.8 7.35 16.45 7.15 16.4 6.5 17.85 6.2 Q19.2 5.95 20.25 6.95 L20.05 7.35 19.85 7.65 15.85 8.05 Q14.9 8.25 14.1 8.65 12.05 9.75 9.95 10.25 7.0 10.8 4.15 9.8 1.5 8.75 1.0 5.75 L1.3 5.3 Q1.65 5.0 2.0 5.05 4.3 5.45 6.2 6.6 M9.15 4.0 L11.0 4.5 Q13.15 5.15 14.8 3.5 13.15 5.15 11.0 4.5 L9.15 4.0" fill="#705234" fill-rule="evenodd" stroke="none"/>
    <path d="M6.7 5.75 Q8.7 7.0 11.2 6.85 L15.75 5.65 16.35 5.5 16.4 6.5 16.45 7.15 15.8 7.35 11.45 8.0 Q8.8 8.45 6.5 7.4 L6.2 6.9 6.2 6.6 6.7 5.75" fill="#5a4229" fill-rule="evenodd" stroke="none"/>
    <path d="M19.4 2.75 L20.5 2.65 21.0 2.35 20.5 2.65 19.4 2.75 M16.3 5.1 Q17.45 3.0 19.35 1.6 20.2 1.05 21.25 0.8 L22.1 0.65 21.0 2.35 20.3 3.15 19.55 3.55 18.05 3.8 19.55 3.55 20.3 3.15 19.3 4.15 Q18.2 5.2 16.8 5.55 L16.35 5.5 16.3 5.1 M17.15 4.7 L19.3 4.15 17.15 4.7" fill="#e47301" fill-rule="evenodd" stroke="none"/>
    <path d="M21.0 2.35 L20.5 2.65 19.4 2.75 M20.3 3.15 L21.0 2.35 22.1 0.65 21.25 0.8 Q20.2 1.05 19.35 1.6 17.45 3.0 16.3 5.1 L16.35 5.5 16.8 5.55 Q18.2 5.2 19.3 4.15 L17.15 4.7 M20.3 3.15 L19.55 3.55 18.05 3.8 M6.7 5.75 Q8.7 7.0 11.2 6.85 L15.75 5.65 16.35 5.5 16.4 6.5 16.45 7.15 15.8 7.35 11.45 8.0 Q8.8 8.45 6.5 7.4 L6.2 6.9 6.2 6.6 Q4.3 5.45 2.0 5.05 1.65 5.0 1.3 5.3 L1.0 5.75 Q1.5 8.75 4.15 9.8 7.0 10.8 9.95 10.25 12.05 9.75 14.1 8.65 14.9 8.25 15.85 8.05 L19.85 7.65 20.05 7.35 20.25 6.95 Q19.2 5.95 17.85 6.2 L16.4 6.5 M16.3 5.1 Q16.1 3.0 14.3 2.1 13.8 1.8 13.3 1.65 L11.8 1.95 7.6 3.15 7.45 3.55 Q7.0 4.55 6.7 5.75 L6.2 6.6 M14.8 3.5 Q13.15 5.15 11.0 4.5 L9.15 4.0 M19.3 4.15 L20.3 3.15" fill="none" stroke="#000000" stroke-linecap="round" stroke-linejoin="round" stroke-width="0.05"/>
  </g>
</svg>
