<?xml version="1.0" encoding="UTF-8" standalone="no"?>
<svg xmlns:xlink="http://www.w3.org/1999/xlink" height="14.65px" width="18.65px" xmlns="http://www.w3.org/2000/svg">
  <g transform="matrix(1.0, 0.0, 0.0, 1.0, 0.0, 0.0)">
    <path d="M21.4 -3.4 Q19.65 -2.15 18.25 -0.75 16.65 0.9 16.05 3.25 15.5 5.4 16.35 7.45 16.0 8.4 14.85 8.75 L12.05 9.3 Q10.35 9.55 8.45 8.85 L6.9 9.05 6.15 8.5 5.85 7.6 Q6.15 6.75 6.65 6.5 7.05 6.25 7.1 6.3 8.0 4.3 9.5 2.5 L11.9 0.05 Q13.85 -1.65 16.35 -2.65 18.75 -3.6 21.15 -3.75 21.55 -3.8 21.5 -3.55 L21.4 -3.4 M14.7 7.05 Q12.25 7.95 9.75 7.75 12.25 7.95 14.7 7.05 M8.55 7.75 Q7.35 7.75 7.05 6.35 L6.7 7.1 7.05 6.35 7.1 6.3 7.05 6.35 Q7.35 7.75 8.55 7.75" fill="#396020" fill-rule="evenodd" stroke="none"/>
    <path d="M23.1 -5.05 Q22.6 -5.25 22.45 -4.8 L22.5 -4.65 22.55 -3.2 Q23.25 -3.1 23.65 -3.7 L23.25 -4.3 Q23.75 -4.65 23.4 -4.9 L23.1 -5.05 M21.15 -3.75 L21.45 -4.55 22.0 -5.3 23.65 -5.15 24.15 -4.75 24.3 -4.4 24.5 -3.5 24.2 -2.7 21.6 -2.6 21.4 -3.4 21.5 -3.55 Q21.55 -3.8 21.15 -3.75" fill="#ffcc33" fill-rule="evenodd" stroke="none"/>
    <path d="M23.1 -5.05 L23.4 -4.9 Q23.75 -4.65 23.25 -4.3 L23.65 -3.7 Q23.25 -3.1 22.55 -3.2 L22.5 -4.65 22.45 -4.8 Q22.6 -5.25 23.1 -5.05" fill="#a07001" fill-rule="evenodd" stroke="none"/>
    <path d="M23.1 -5.05 Q22.6 -5.25 22.45 -4.8 L22.5 -4.65 22.55 -3.2 Q23.25 -3.1 23.65 -3.7 L23.25 -4.3 Q23.75 -4.65 23.4 -4.9 L23.1 -5.05 M21.15 -3.75 L21.45 -4.55 22.0 -5.3 23.65 -5.15 24.15 -4.75 24.3 -4.4 24.5 -3.5 24.2 -2.7 21.6 -2.6 21.4 -3.4 Q19.65 -2.15 18.25 -0.75 16.65 0.9 16.05 3.25 15.5 5.4 16.35 7.45 16.0 8.4 14.85 8.75 L12.05 9.3 Q10.35 9.55 8.45 8.85 L6.9 9.05 6.15 8.5 5.85 7.6 Q6.15 6.75 6.65 6.5 7.05 6.25 7.1 6.3 8.0 4.3 9.5 2.5 L11.9 0.05 Q13.85 -1.65 16.35 -2.65 18.75 -3.6 21.15 -3.75 21.55 -3.8 21.5 -3.55 L21.4 -3.4 M6.7 7.1 L7.05 6.35 7.1 6.3 M7.05 6.35 Q7.35 7.75 8.55 7.75 M9.75 7.75 Q12.25 7.95 14.7 7.05" fill="none" stroke="#000000" stroke-linecap="round" stroke-linejoin="round" stroke-width="0.05"/>
  </g>
</svg>
