<?xml version="1.0" encoding="UTF-8" standalone="no"?>
<svg xmlns:xlink="http://www.w3.org/1999/xlink" height="9.25px" width="22.85px" xmlns="http://www.w3.org/2000/svg">
  <g transform="matrix(1.0, 0.0, 0.0, 1.0, 0.0, 0.0)">
    <path d="M22.55 6.3 Q21.1 7.4 19.1 7.3 17.65 7.2 16.5 7.9 15.65 8.85 14.35 8.85 L10.35 8.45 7.3 9.25 Q6.35 8.85 5.8 7.9 4.4 7.05 2.7 7.55 L2.3 7.4 0.0 5.85 0.2 5.45 Q1.5 4.8 3.0 4.3 6.8 3.4 9.6 0.8 10.05 0.35 10.7 0.2 L12.55 0.35 Q14.75 2.05 17.2 3.25 18.95 4.2 20.85 4.45 L22.55 4.8 22.85 5.5 22.55 6.3" fill="url(#gradient0)" fill-rule="evenodd" stroke="none"/>
  </g>
  <defs>
    <radialGradient cx="0" cy="0" gradientTransform="matrix(0.0192, 0.0, 0.0, 0.0121, 11.35, 1.55)" gradientUnits="userSpaceOnUse" id="gradient0" r="819.2" spreadMethod="pad">
      <stop offset="0.0" stop-color="#f3aca3"/>
      <stop offset="0.6862745098039216" stop-color="#ca4b1c"/>
      <stop offset="1.0" stop-color="#ab1616"/>
    </radialGradient>
  </defs>
</svg>
