<?xml version="1.0" encoding="UTF-8" standalone="no"?>
<svg xmlns:xlink="http://www.w3.org/1999/xlink" height="9.9px" width="18.9px" xmlns="http://www.w3.org/2000/svg">
  <g transform="matrix(1.0, 0.0, 0.0, 1.0, 0.0, 0.0)">
    <path d="M6.65 -0.5 L6.85 0.0 Q8.95 1.25 11.45 1.1 L14.15 0.85 Q15.3 0.55 16.1 -0.1 L15.65 3.05 15.6 3.25 15.05 5.45 12.4 5.9 8.45 5.6 6.95 5.0 6.65 3.4 6.65 -0.5" fill="#363636" fill-rule="evenodd" stroke="none"/>
    <path d="M6.65 -0.5 Q7.05 -1.45 8.05 -1.6 L11.45 -2.05 14.85 -1.6 Q15.7 -1.4 16.25 -0.5 L16.1 -0.1 Q15.3 0.55 14.15 0.85 L11.45 1.1 Q8.95 1.25 6.85 0.0 L6.65 -0.5 M15.6 3.25 L16.9 3.5 19.35 4.3 20.8 5.0 20.95 5.45 20.6 6.2 20.25 6.4 18.85 7.0 16.75 7.5 Q12.35 8.1 7.9 7.7 5.7 7.6 3.65 6.8 L2.5 6.2 2.05 5.45 2.3 5.1 Q2.95 4.55 3.7 4.3 5.15 3.75 6.65 3.4 L6.95 5.0 8.45 5.6 12.4 5.9 15.05 5.45 15.6 3.25" fill="#424242" fill-rule="evenodd" stroke="none"/>
  </g>
</svg>
