<?xml version="1.0" encoding="UTF-8" standalone="no"?>
<svg xmlns:xlink="http://www.w3.org/1999/xlink" height="15.5px" width="21.05px" xmlns="http://www.w3.org/2000/svg">
  <g transform="matrix(1.0, 0.0, 0.0, 1.0, 0.0, 0.0)">
    <path d="M17.2 0.8 Q18.55 -0.4 20.3 0.25 L20.25 0.35 19.6 0.8 18.0 1.0 17.2 0.8" fill="#000000" fill-rule="evenodd" stroke="none"/>
    <path d="M14.05 12.65 L13.7 14.25 12.65 14.25 12.85 15.05 Q7.5 16.2 2.4 14.25 L2.0 13.25 1.85 14.6 1.1 11.9 0.7 12.85 Q-0.6 10.25 0.6 7.7 L1.3 7.3 1.6 6.55 Q3.95 5.25 6.6 5.55 L6.1 5.9 Q10.75 5.9 13.1 9.75 L14.05 12.65 M4.5 11.75 L5.05 12.15 4.9 10.6 5.55 11.1 4.3 8.4 5.55 11.1 4.9 10.6 5.05 12.15 4.5 11.75" fill="#212121" fill-rule="evenodd" stroke="none"/>
    <path d="M20.7 4.1 L21.0 7.6 20.35 7.05 20.15 3.7 20.7 4.1 20.15 3.7 20.35 7.05 21.0 7.6 Q21.5 12.75 16.1 12.6 L14.05 12.65 13.1 9.75 15.5 9.55 17.3 9.2 17.7 8.7 17.85 7.1 17.7 4.25 17.2 0.8 18.0 1.0 19.6 0.8 20.25 0.35 20.7 4.1 M18.3 3.95 L19.2 3.45 20.15 3.7 19.2 3.45 18.3 3.95 18.3 7.1 18.3 3.95 17.7 4.25 18.3 3.95 18.2 1.8 18.3 3.95 M19.6 0.8 L20.15 3.7 19.6 0.8 M14.55 11.75 L16.45 11.55 18.9 11.0 19.75 10.35 20.35 7.05 18.3 7.1 20.35 7.05 19.75 10.35 18.9 11.0 16.45 11.55 14.55 11.75 M18.3 7.1 L17.85 7.1 18.3 7.1 18.3 8.85 18.2 9.1 18.3 8.85 18.3 7.1 M16.45 11.55 L16.25 10.9 15.9 10.2 15.5 9.55 15.9 10.2 16.25 10.9 16.45 11.55 M18.9 11.0 L18.8 10.45 Q18.75 9.65 18.2 9.1 18.75 9.65 18.8 10.45 L18.9 11.0 M14.1 10.4 L15.9 10.2 16.05 10.15 Q17.55 10.15 18.2 9.1 17.55 10.15 16.05 10.15 L15.9 10.2 14.1 10.4 M17.7 8.7 L18.2 9.1 17.7 8.7" fill="#3a372a" fill-rule="evenodd" stroke="none"/>
    <path d="M21.0 7.6 L20.7 4.1 20.15 3.7 20.35 7.05 21.0 7.6 Q21.5 12.75 16.1 12.6 L14.05 12.65 13.7 14.25 12.65 14.25 12.85 15.05 Q7.5 16.2 2.4 14.25 L2.0 13.25 1.85 14.6 1.1 11.9 0.7 12.85 Q-0.6 10.25 0.6 7.7 L1.3 7.3 1.6 6.55 Q3.95 5.25 6.6 5.55 L6.1 5.9 Q10.75 5.9 13.1 9.75 L15.5 9.55 17.3 9.2 17.7 8.7 17.85 7.1 17.7 4.25 17.2 0.8 Q18.55 -0.4 20.3 0.25 L20.25 0.35 20.7 4.1 M17.2 0.8 L18.0 1.0 19.6 0.8 20.25 0.35 M20.15 3.7 L19.2 3.45 18.3 3.95 17.7 4.25 M18.3 7.1 L20.35 7.05 19.75 10.35 18.9 11.0 16.45 11.55 14.55 11.75 M20.15 3.7 L19.6 0.8 M17.85 7.1 L18.3 7.1 M18.2 9.1 Q18.75 9.65 18.8 10.45 L18.9 11.0 M15.9 10.2 L15.5 9.55 M15.9 10.2 L16.25 10.9 16.45 11.55 M18.2 9.1 L17.7 8.7 M4.3 8.4 L5.55 11.1 4.9 10.6 5.05 12.15 4.5 11.75 M14.05 12.65 L13.1 9.75" fill="none" stroke="#000000" stroke-linecap="round" stroke-linejoin="round" stroke-width="0.05"/>
    <path d="M18.3 3.95 L18.3 7.1 18.3 8.85 18.2 9.1 Q17.55 10.15 16.05 10.15 L15.9 10.2 14.1 10.4 M18.3 3.95 L18.2 1.8" fill="none" stroke="#534d3e" stroke-linecap="round" stroke-linejoin="round" stroke-width="0.05"/>
  </g>
</svg>
