<?xml version="1.0" encoding="UTF-8" standalone="no"?>
<svg xmlns:xlink="http://www.w3.org/1999/xlink" height="7.55px" width="11.9px" xmlns="http://www.w3.org/2000/svg">
  <g transform="matrix(1.0, 0.0, 0.0, 1.0, 0.0, 0.0)">
    <path d="M10.25 1.35 L11.45 0.85 11.9 1.3 Q12.3 2.3 12.35 3.45 L10.05 5.65 9.6 5.7 9.95 6.85 Q7.95 5.1 8.25 6.55 L7.55 6.3 7.1 6.1 6.1 5.85 3.0 5.4 Q3.1 5.8 2.8 6.0 2.1 5.75 2.15 6.3 L1.3 5.55 Q0.3 4.85 0.45 3.9 L0.85 3.65 1.7 3.35 1.95 3.4 2.35 3.45 3.15 3.5 4.15 3.8 5.45 3.7 6.2 3.5 7.1 3.3 8.15 3.1 8.85 2.85 Q9.4 2.5 9.5 1.65 L10.25 1.35" fill="#003333" fill-rule="evenodd" stroke="none"/>
    <path d="M8.15 3.1 L7.1 3.3 7.05 1.9 7.6 2.6 8.15 3.1 M6.2 3.5 L5.45 3.7 5.25 2.25 6.2 3.5 M4.15 3.8 L3.15 3.5 3.2 3.1 3.3 2.2 3.75 3.0 4.15 3.8 M1.7 3.35 L0.85 3.65 0.65 2.55 1.7 3.35" fill="#3d2312" fill-rule="evenodd" stroke="none"/>
    <path d="M10.25 1.35 L9.5 1.65 Q9.4 2.5 8.85 2.85 L8.15 3.1 7.6 2.6 7.05 1.9 7.1 3.3 6.2 3.5 5.25 2.25 5.45 3.7 4.15 3.8 3.75 3.0 Q4.7 2.7 5.3 2.2 5.9 1.7 7.4 1.15 L10.5 -0.7 10.15 0.4 10.0 1.25 10.25 1.35 M3.15 3.5 L2.35 3.45 Q2.75 3.2 3.2 3.1 L3.15 3.5" fill="#2b441a" fill-rule="evenodd" stroke="none"/>
    <path d="M0.85 3.65 L0.45 3.9 Q0.3 4.85 1.3 5.55 L2.15 6.3 Q2.1 5.75 2.8 6.0 3.1 5.8 3.0 5.4 L6.1 5.85 7.1 6.1 7.55 6.3 8.25 6.55 Q7.95 5.1 9.95 6.85 L9.6 5.7 10.05 5.65 12.35 3.45 Q12.3 2.3 11.9 1.3 L11.45 0.85 10.25 1.35 9.5 1.65 Q9.4 2.5 8.85 2.85 L8.15 3.1 7.1 3.3 6.2 3.5 5.45 3.7 4.15 3.8 3.15 3.5 2.35 3.45 1.95 3.4 1.7 3.35 0.85 3.65 0.65 2.55 1.7 3.35 M10.25 1.35 L10.0 1.25 10.15 0.4 10.5 -0.7 7.4 1.15 Q5.9 1.7 5.3 2.2 4.7 2.7 3.75 3.0 L4.15 3.8 M8.15 3.1 L7.6 2.6 7.05 1.9 7.1 3.3 M6.2 3.5 L5.25 2.25 5.45 3.7 M3.75 3.0 L3.3 2.2 3.2 3.1 3.15 3.5 M3.2 3.1 Q2.75 3.2 2.35 3.45" fill="none" stroke="#000000" stroke-linecap="round" stroke-linejoin="round" stroke-width="0.05"/>
  </g>
</svg>
