<?xml version="1.0" encoding="UTF-8" standalone="no"?>
<svg xmlns:xlink="http://www.w3.org/1999/xlink" height="7.1px" width="11.9px" xmlns="http://www.w3.org/2000/svg">
  <g transform="matrix(1.0, 0.0, 0.0, 1.0, 0.0, 0.0)">
    <path d="M10.25 1.35 L11.55 1.2 11.85 1.7 Q12.0 2.8 11.75 3.95 L8.95 5.45 8.5 5.4 8.55 6.55 Q7.05 4.35 7.0 5.85 6.7 5.85 6.35 5.45 L6.0 5.1 5.05 4.6 2.2 3.35 1.85 3.95 Q1.25 3.45 1.15 4.05 L0.5 3.1 Q-0.25 2.15 0.1 1.3 L0.55 1.15 1.45 1.1 1.7 1.2 2.05 1.35 2.85 1.6 3.75 2.1 5.0 2.4 5.8 2.4 6.7 2.45 7.75 2.5 8.5 2.45 Q9.15 2.2 9.4 1.45 L10.25 1.35" fill="#212121" fill-rule="evenodd" stroke="none"/>
    <path d="M7.75 2.5 L6.7 2.45 7.05 1.05 7.35 1.85 7.75 2.5 M5.8 2.4 L5.0 2.4 5.2 0.95 5.8 2.4 M3.75 2.1 L2.85 1.6 3.0 1.25 3.3 0.35 3.55 1.25 3.75 2.1 M1.45 1.1 L0.55 1.15 0.65 0.0 1.45 1.1" fill="#d2c28c" fill-rule="evenodd" stroke="none"/>
    <path d="M10.25 1.35 L9.4 1.45 Q9.15 2.2 8.5 2.45 L7.75 2.5 7.35 1.85 7.05 1.05 6.7 2.45 5.8 2.4 5.2 0.95 5.0 2.4 3.75 2.1 3.55 1.25 5.25 0.9 Q5.95 0.55 7.55 0.4 L11.0 -0.55 10.4 0.4 10.05 1.2 10.25 1.35 M2.85 1.6 L2.05 1.35 3.0 1.25 2.85 1.6" fill="#99ff00" fill-rule="evenodd" stroke="none"/>
    <path d="M0.55 1.15 L0.1 1.3 Q-0.25 2.15 0.5 3.1 L1.15 4.05 Q1.25 3.45 1.85 3.95 L2.2 3.35 5.05 4.6 6.0 5.1 6.35 5.45 Q6.7 5.85 7.0 5.85 7.05 4.35 8.55 6.55 L8.5 5.4 8.95 5.45 11.75 3.95 Q12.0 2.8 11.85 1.7 L11.55 1.2 10.25 1.35 9.4 1.45 Q9.15 2.2 8.5 2.45 L7.75 2.5 6.7 2.45 5.8 2.4 5.0 2.4 3.75 2.1 2.85 1.6 2.05 1.35 1.7 1.2 1.45 1.1 0.55 1.15 0.65 0.0 1.45 1.1 M7.75 2.5 L7.35 1.85 7.05 1.05 6.7 2.45 M5.8 2.4 L5.2 0.95 5.0 2.4 M10.25 1.35 L10.05 1.2 10.4 0.4 11.0 -0.55 7.55 0.4 Q5.95 0.55 5.25 0.9 L3.55 1.25 3.75 2.1 M3.55 1.25 L3.3 0.35 3.0 1.25 2.85 1.6 M3.0 1.25 L2.05 1.35" fill="none" stroke="#000000" stroke-linecap="round" stroke-linejoin="round" stroke-width="0.05"/>
  </g>
</svg>
