<?xml version="1.0" encoding="UTF-8" standalone="no"?>
<svg xmlns:xlink="http://www.w3.org/1999/xlink" height="35.45px" width="26.4px" xmlns="http://www.w3.org/2000/svg">
  <g transform="matrix(1.0, 0.0, 0.0, 1.0, 0.0, 0.0)">
    <path d="M-11.25 10.7 L-11.5 8.85 Q-11.6 6.35 -10.55 4.2 L-9.85 2.8 Q-9.1 1.35 -8.9 -0.3 L-8.5 -4.2 -8.3 -8.0 -8.05 -11.05 -7.35 -15.2 -6.55 -18.1 -4.4 -19.5 -1.45 -21.15 -0.75 -21.45 0.5 -21.95 1.25 -22.15 1.9 -22.0 2.4 -21.75 2.7 -21.45 2.8 -21.3 2.8 -21.05 3.15 -20.1 4.05 -18.0 4.7 -16.3 5.9 -12.3 6.75 -8.1 7.35 -4.5 7.95 -0.95 8.5 2.4 8.9 6.5 9.05 10.0 Q6.8 9.8 4.45 8.4 2.05 6.95 0.0 6.5 -2.05 6.05 -4.25 8.15 -6.5 10.25 -9.25 10.5 L-11.25 10.7 M0.8 -3.5 L2.45 -3.3 0.8 -3.5 M-4.8 -0.7 L-1.9 -1.1 3.5 -0.8 -1.9 -1.1 -4.8 -0.7" fill="#3d2312" fill-rule="evenodd" stroke="none"/>
    <path d="M-11.25 10.7 L-10.25 12.15 -12.7 11.2 -13.15 10.95 -13.2 10.9 -12.55 7.2 -11.65 3.55 -10.95 1.0 -10.35 -1.6 -10.0 -4.25 -9.85 -6.9 -9.6 -9.6 -9.15 -12.3 -8.45 -14.9 -6.8 -18.95 -5.1 -21.75 -3.95 -23.15 3.4 -22.85 4.05 -21.4 5.75 -17.95 6.6 -16.2 7.35 -14.45 8.05 -12.85 8.6 -11.3 9.15 -9.65 9.6 -8.1 10.05 -6.4 10.8 -3.1 11.35 0.1 11.65 1.6 11.95 3.15 12.7 7.6 13.2 10.65 13.05 10.65 Q11.9 11.35 10.2 11.9 L8.95 12.3 8.9 12.2 9.05 10.0 8.9 6.5 8.5 2.4 7.95 -0.95 7.35 -4.5 6.75 -8.1 5.9 -12.3 4.7 -16.3 4.05 -18.0 3.15 -20.1 2.8 -21.05 2.8 -21.3 2.7 -21.45 2.4 -21.75 1.9 -22.0 1.25 -22.15 0.5 -21.95 -0.75 -21.45 -1.45 -21.15 -4.4 -19.5 -6.55 -18.1 -7.35 -15.2 -8.05 -11.05 -8.3 -8.0 -8.5 -4.2 -8.9 -0.3 Q-9.1 1.35 -9.85 2.8 L-10.55 4.2 Q-11.6 6.35 -11.5 8.85 L-11.25 10.7" fill="#ffcc66" fill-rule="evenodd" stroke="none"/>
    <path d="M8.95 12.3 L10.2 11.9 Q11.9 11.35 13.05 10.65 L13.2 10.65 12.7 7.6 11.95 3.15 11.65 1.6 11.35 0.1 10.8 -3.1 10.05 -6.4 9.6 -8.1 9.15 -9.65 8.6 -11.3 8.05 -12.85 7.35 -14.45 6.6 -16.2 5.75 -17.95 4.05 -21.4 3.4 -22.85 -3.95 -23.15 -5.1 -21.75 -6.8 -18.95 -8.45 -14.9 -9.15 -12.3 -9.6 -9.6 -9.85 -6.9 -10.0 -4.25 -10.35 -1.6 -10.95 1.0 -11.65 3.55 -12.55 7.2 -13.2 10.9 -13.15 10.95 -12.7 11.2 -10.25 12.15 -11.25 10.7 -11.5 8.85 Q-11.6 6.35 -10.55 4.2 L-9.85 2.8 Q-9.1 1.35 -8.9 -0.3 L-8.5 -4.2 -8.3 -8.0 -8.05 -11.05 -7.35 -15.2 -6.55 -18.1 -4.4 -19.5 -1.45 -21.15 -0.75 -21.45 0.5 -21.95 1.25 -22.15 1.9 -22.0 2.4 -21.75 2.7 -21.45 2.8 -21.3 2.8 -21.05 3.15 -20.1 4.05 -18.0 4.7 -16.3 5.9 -12.3 6.75 -8.1 7.35 -4.5 7.95 -0.95 8.5 2.4 8.9 6.5 9.05 10.0 8.9 12.2 8.9 12.3 8.95 12.3 M3.5 -0.8 L-1.9 -1.1 -4.8 -0.7 M2.45 -3.3 L0.8 -3.5 M9.05 10.0 Q6.8 9.8 4.45 8.4 2.05 6.95 0.0 6.5 -2.05 6.05 -4.25 8.15 -6.5 10.25 -9.25 10.5 L-11.25 10.7" fill="none" stroke="#000000" stroke-linecap="round" stroke-linejoin="round" stroke-width="0.05"/>
  </g>
</svg>
