<?xml version="1.0" encoding="UTF-8" standalone="no"?>
<svg xmlns:xlink="http://www.w3.org/1999/xlink" height="48.2px" width="26.4px" xmlns="http://www.w3.org/2000/svg">
  <g transform="matrix(1.0, 0.0, 0.0, 1.0, 0.0, 0.0)">
    <path d="M9.05 21.9 L8.9 17.15 8.5 11.55 7.95 7.0 7.35 2.15 6.75 -2.75 5.9 -8.4 4.7 -13.85 4.05 -16.2 3.15 -19.05 2.8 -20.3 2.8 -20.7 2.7 -20.85 2.4 -21.25 1.9 -21.6 1.25 -21.8 0.5 -21.55 -0.75 -20.9 -1.45 -20.45 -4.4 -18.2 -6.55 -16.35 -7.35 -12.35 -8.05 -6.7 -8.3 -2.6 -8.5 2.55 -8.9 7.9 Q-9.1 10.15 -9.85 12.1 L-10.55 14.0 Q-11.6 16.95 -11.5 20.3 L-11.25 22.85 -10.25 24.8 -12.7 23.5 -13.15 23.15 -13.2 23.1 -12.55 18.1 -11.65 13.15 -10.95 9.65 -10.35 6.1 -10.0 2.5 -9.85 -1.1 -9.6 -4.75 -9.15 -8.4 -8.45 -11.95 Q-7.8 -14.8 -6.8 -17.5 L-5.1 -21.25 -3.95 -23.15 3.4 -22.75 4.05 -20.8 5.75 -16.1 6.6 -13.7 7.35 -11.35 8.05 -9.15 8.6 -7.05 9.15 -4.85 9.6 -2.7 10.05 -0.4 10.8 4.05 11.35 8.4 11.65 10.45 11.95 12.55 12.7 18.65 13.2 22.75 13.2 22.8 13.05 22.8 Q11.9 23.75 10.2 24.5 L8.95 25.05 8.9 24.9 9.05 21.9 M13.2 22.75 L13.05 22.8 13.2 22.75" fill="#855c36" fill-rule="evenodd" stroke="none"/>
    <path d="M-11.25 22.85 L-11.5 20.3 Q-11.6 16.95 -10.55 14.0 L-9.85 12.1 Q-9.1 10.15 -8.9 7.9 L-8.5 2.55 -8.3 -2.6 -8.05 -6.7 -7.35 -12.35 -6.55 -16.35 -4.4 -18.2 -1.45 -20.45 -0.75 -20.9 0.5 -21.55 1.25 -21.8 1.9 -21.6 2.4 -21.25 2.7 -20.85 2.8 -20.7 2.8 -20.3 3.15 -19.05 4.05 -16.2 4.7 -13.85 5.9 -8.4 6.75 -2.75 7.35 2.15 7.95 7.0 8.5 11.55 8.9 17.15 9.05 21.9 4.45 21.6 -0.35 21.65 -3.75 21.9 -9.25 22.6 -11.25 22.85 M0.8 3.55 L2.45 3.8 0.8 3.55 M-4.8 7.35 L-1.9 6.8 3.5 7.2 -1.9 6.8 -4.8 7.35" fill="#745230" fill-rule="evenodd" stroke="none"/>
    <path d="M-11.25 22.85 L-11.5 20.3 Q-11.6 16.95 -10.55 14.0 L-9.85 12.1 Q-9.1 10.15 -8.9 7.9 L-8.5 2.55 -8.3 -2.6 -8.05 -6.7 -7.35 -12.35 -6.55 -16.35 -4.4 -18.2 -1.45 -20.45 -0.75 -20.9 0.5 -21.55 1.25 -21.8 1.9 -21.6 2.4 -21.25 2.7 -20.85 2.8 -20.7 2.8 -20.3 3.15 -19.05 4.05 -16.2 4.7 -13.85 5.9 -8.4 6.75 -2.75 7.35 2.15 7.95 7.0 8.5 11.55 8.9 17.15 9.05 21.9 8.9 24.9 8.9 25.05 8.95 25.05 10.2 24.5 Q11.9 23.75 13.05 22.8 L13.2 22.75 12.7 18.65 11.95 12.55 11.65 10.45 11.35 8.4 10.8 4.05 10.05 -0.4 9.6 -2.7 9.15 -4.85 8.6 -7.05 8.05 -9.15 7.35 -11.35 6.6 -13.7 5.75 -16.1 4.05 -20.8 3.4 -22.75 -3.95 -23.15 -5.1 -21.25 -6.8 -17.5 Q-7.8 -14.8 -8.45 -11.95 L-9.15 -8.4 -9.6 -4.75 -9.85 -1.1 -10.0 2.5 -10.35 6.1 -10.95 9.65 -11.65 13.15 -12.55 18.1 -13.2 23.1 -13.15 23.15 -12.7 23.5 -10.25 24.8 -11.25 22.85 -9.25 22.6 -3.75 21.9 -0.35 21.65 4.45 21.6 9.05 21.9 M2.45 3.8 L0.8 3.55 M13.05 22.8 L13.2 22.8 13.2 22.75 M3.5 7.2 L-1.9 6.8 -4.8 7.35" fill="none" stroke="#000000" stroke-linecap="round" stroke-linejoin="round" stroke-width="0.05"/>
  </g>
</svg>
