<?xml version="1.0" encoding="UTF-8" standalone="no"?>
<svg xmlns:xlink="http://www.w3.org/1999/xlink" height="7.4px" width="14.45px" xmlns="http://www.w3.org/2000/svg">
  <g transform="matrix(1.0, 0.0, 0.0, 1.0, 0.0, 0.0)">
    <path d="M2.05 0.1 L9.0 -0.3 9.85 -0.35 10.35 -0.15 10.45 0.65 10.4 3.0 10.2 4.3 10.1 6.0 Q10.1 6.6 9.55 7.05 8.1 6.3 6.45 5.8 L4.6 5.45 Q3.1 5.4 1.95 4.65 2.5 3.1 2.25 1.35 L2.05 0.1 M8.55 5.7 L8.7 4.7 Q9.2 2.25 9.0 -0.3 9.2 2.25 8.7 4.7 L8.55 5.7" fill="#845125" fill-rule="evenodd" stroke="none"/>
    <path d="M1.95 4.65 L0.9 4.6 0.9 4.45 Q1.7 2.1 0.4 0.1 L2.05 0.1 2.25 1.35 Q2.5 3.1 1.95 4.65" fill="#3a2e1f" fill-rule="evenodd" stroke="none"/>
    <path d="M10.45 0.65 L12.5 0.15 14.4 0.55 Q14.9 1.05 14.85 1.75 L14.7 3.35 11.25 3.65 10.4 3.0 10.45 0.65" fill="#e8a059" fill-rule="evenodd" stroke="none"/>
    <path d="M2.05 0.1 L9.0 -0.3 9.85 -0.35 10.35 -0.15 10.45 0.65 12.5 0.15 14.4 0.55 Q14.9 1.05 14.85 1.75 L14.7 3.35 11.25 3.65 10.4 3.0 10.2 4.3 10.1 6.0 Q10.1 6.6 9.55 7.05 8.1 6.3 6.45 5.8 L4.6 5.45 Q3.1 5.4 1.95 4.65 L0.9 4.6 0.8 4.6 0.9 4.45 Q1.7 2.1 0.4 0.1 L2.05 0.1 2.25 1.35 Q2.5 3.1 1.95 4.65 M10.45 0.65 L10.4 3.0" fill="none" stroke="#000000" stroke-linecap="round" stroke-linejoin="round" stroke-width="0.05"/>
    <path d="M9.0 -0.3 Q9.2 2.25 8.7 4.7 L8.55 5.7" fill="none" stroke="#ffcc66" stroke-linecap="round" stroke-linejoin="round" stroke-width="0.05"/>
  </g>
</svg>
