<?xml version="1.0" encoding="UTF-8" standalone="no"?>
<svg xmlns:xlink="http://www.w3.org/1999/xlink" height="13.8px" width="13.15px" xmlns="http://www.w3.org/2000/svg">
  <g transform="matrix(1.0, 0.0, 0.0, 1.0, 0.0, 0.0)">
    <path d="M3.55 4.95 L2.65 5.7 Q-1.2 4.95 -1.1 0.3 L5.1 -8.1 Q5.6 -6.0 5.55 -3.95 L7.95 -3.85 7.7 -0.15 11.9 0.25 12.05 0.4 11.75 1.15 11.05 1.45 Q8.7 1.85 6.5 2.6 L5.95 2.6 3.6 4.75 3.55 4.95 M5.55 -3.95 L5.8 0.5 3.45 3.6 3.6 4.75 3.45 3.6 5.8 0.5 5.55 -3.95 M6.15 -3.2 L7.35 -3.2 6.15 -3.2 M2.4 -0.35 Q1.9 0.0 2.25 0.95 L3.65 1.05 3.6 0.0 2.9 -0.5 2.4 -0.35 M4.8 -5.05 L4.5 -4.4 Q4.35 -2.25 2.9 -0.5 4.35 -2.25 4.5 -4.4 L4.8 -5.05 4.7 -6.7 -0.5 0.1 4.7 -6.7 4.8 -5.05 5.0 0.15 3.2 2.65 5.0 0.15 4.8 -5.05 M2.65 2.05 L1.45 1.5 0.7 1.65 Q-0.25 2.85 0.75 3.85 L1.5 4.35 2.7 3.45 2.8 2.5 2.65 2.05 M7.85 0.4 L11.2 0.55 7.85 0.4 M5.95 2.6 L7.7 -0.15 5.95 2.6" fill="#cc9900" fill-rule="evenodd" stroke="none"/>
    <path d="M11.05 1.45 Q11.65 3.4 10.3 4.85 L10.0 5.15 3.55 4.95 3.6 4.75 5.95 2.6 6.5 2.6 Q8.7 1.85 11.05 1.45" fill="#3d2312" fill-rule="evenodd" stroke="none"/>
    <path d="M2.4 -0.35 L2.9 -0.5 3.6 0.0 3.65 1.05 2.25 0.95 Q1.9 0.0 2.4 -0.35 M2.65 2.05 L2.8 2.5 2.7 3.45 1.5 4.35 0.75 3.85 Q-0.25 2.85 0.7 1.65 L1.45 1.5 2.65 2.05 M1.65 2.9 Q1.65 2.25 1.0 2.25 0.35 2.25 0.35 2.85 L0.55 3.35 Q0.75 3.55 1.0 3.55 1.65 3.55 1.65 2.9 M2.8 0.15 L2.6 0.0 Q2.2 0.0 2.2 0.35 L2.35 0.55 2.55 0.7 2.75 0.6 2.9 0.35 2.8 0.15" fill="#ff0000" fill-rule="evenodd" stroke="none"/>
    <path d="M2.8 0.15 L2.9 0.35 2.75 0.6 2.55 0.7 2.35 0.55 2.2 0.35 Q2.2 0.0 2.6 0.0 L2.8 0.15 M1.65 2.9 Q1.65 3.55 1.0 3.55 0.75 3.55 0.55 3.35 L0.35 2.85 Q0.35 2.25 1.0 2.25 1.65 2.25 1.65 2.9" fill="#ff99cc" fill-rule="evenodd" stroke="none"/>
    <path d="M3.55 4.95 L2.65 5.7 Q-1.2 4.95 -1.1 0.3 L5.1 -8.1 Q5.6 -6.0 5.55 -3.95 L7.95 -3.85 7.7 -0.15 11.9 0.25 12.05 0.4 11.75 1.15 11.05 1.45 Q11.65 3.4 10.3 4.85 L10.0 5.15 3.55 4.95 3.6 4.75 3.45 3.6 5.8 0.5 5.55 -3.95 M2.4 -0.35 Q1.9 0.0 2.25 0.95 L3.65 1.05 3.6 0.0 2.9 -0.5 2.4 -0.35 M2.9 -0.5 Q4.35 -2.25 4.5 -4.4 L4.8 -5.05 M11.05 1.45 Q8.7 1.85 6.5 2.6 L5.95 2.6 3.6 4.75 M2.65 2.05 L1.45 1.5 0.7 1.65 Q-0.25 2.85 0.75 3.85 L1.5 4.35 2.7 3.45 2.8 2.5 2.65 2.05 M7.7 -0.15 L5.95 2.6" fill="none" stroke="#000000" stroke-linecap="round" stroke-linejoin="round" stroke-width="0.05"/>
    <path d="M7.35 -3.2 L6.15 -3.2 M4.8 -5.05 L4.7 -6.7 -0.5 0.1 M4.8 -5.05 L5.0 0.15 3.2 2.65 M11.2 0.55 L7.85 0.4" fill="none" stroke="#ffff99" stroke-linecap="round" stroke-linejoin="round" stroke-width="0.05"/>
  </g>
</svg>
