<?xml version="1.0" encoding="UTF-8" standalone="no"?>
<svg xmlns:xlink="http://www.w3.org/1999/xlink" height="15.4px" width="5.45px" xmlns="http://www.w3.org/2000/svg">
  <g transform="matrix(1.0, 0.0, 0.0, 1.0, 0.0, 0.0)">
    <path d="M0.95 1.4 L1.65 0.55 Q2.35 0.1 3.1 0.0 4.0 0.25 4.3 1.1 L5.2 4.05 5.4 5.75 Q5.55 8.65 4.8 11.45 L4.05 13.65 3.4 14.6 2.35 15.3 1.35 15.25 Q0.75 14.95 0.7 14.5 L0.5 12.4 0.1 8.7 0.05 4.75 Q0.2 2.8 0.95 1.4" fill="#443028" fill-rule="evenodd" stroke="none"/>
    <path d="M0.95 1.4 L1.65 0.55 Q2.35 0.1 3.1 0.0 4.0 0.25 4.3 1.1 L5.2 4.05 5.4 5.75 Q5.55 8.65 4.8 11.45 L4.05 13.65 3.4 14.6 2.35 15.3 1.35 15.25 Q0.75 14.95 0.7 14.5 L0.5 12.4 0.1 8.7 0.05 4.75 Q0.2 2.8 0.95 1.4 Z" fill="none" stroke="#000000" stroke-linecap="round" stroke-linejoin="round" stroke-width="0.05"/>
  </g>
</svg>
