<?xml version="1.0" encoding="UTF-8" standalone="no"?>
<svg xmlns:xlink="http://www.w3.org/1999/xlink" height="7.0px" width="11.2px" xmlns="http://www.w3.org/2000/svg">
  <g transform="matrix(1.0, 0.0, 0.0, 1.0, 0.0, 0.0)">
    <path d="M3.9 0.85 L4.9 -0.25 7.5 -0.35 8.05 0.9 Q8.8 2.65 8.8 4.6 L6.7 5.6 Q2.05 7.55 -2.4 5.95 L0.05 3.85 0.7 3.9 1.1 4.05 0.7 3.9 0.05 3.85 1.35 2.85 1.6 2.8 1.55 2.7 3.9 0.85 Q4.35 0.85 4.75 1.2 4.35 0.85 3.9 0.85 M5.85 0.1 L4.75 1.2 5.85 0.1 M4.75 1.2 L5.0 1.5 Q5.45 2.1 5.45 3.0 L7.0 2.7 7.4 3.55 7.15 4.55 6.6 4.75 Q5.6 5.15 5.1 4.2 L5.1 3.5 5.45 3.0 5.1 3.5 5.1 4.2 Q5.6 5.15 6.6 4.75 L7.15 4.55 7.4 3.55 7.0 2.7 5.45 3.0 Q5.45 2.1 5.0 1.5 L4.75 1.2 2.8 2.8 4.75 1.2 M5.1 3.5 L3.8 2.95 2.8 2.8 3.8 2.95 5.1 3.5 M2.8 2.8 L1.1 4.05 2.8 2.8 1.6 2.8 2.8 2.8 M5.1 4.2 L1.1 4.05 5.1 4.2 M-1.2 5.55 L1.1 4.05 -1.2 5.55" fill="#cc9900" fill-rule="evenodd" stroke="none"/>
    <path d="M4.75 1.2 L5.85 0.1 M4.75 1.2 L2.8 2.8 1.1 4.05 -1.2 5.55" fill="none" stroke="#ffff99" stroke-linecap="round" stroke-linejoin="round" stroke-width="0.05"/>
    <path d="M0.05 3.85 L-2.4 5.95 Q2.05 7.55 6.7 5.6 L8.8 4.6 Q8.8 2.65 8.05 0.9 L7.5 -0.35 4.9 -0.25 3.9 0.85 Q4.35 0.85 4.75 1.2 L5.0 1.5 Q5.45 2.1 5.45 3.0 L5.1 3.5 5.1 4.2 Q5.6 5.15 6.6 4.75 L7.15 4.55 7.4 3.55 7.0 2.7 5.45 3.0 M2.8 2.8 L3.8 2.95 5.1 3.5 M1.55 2.7 L1.35 2.85 1.6 2.8 2.8 2.8 M1.55 2.7 L3.9 0.85 M0.05 3.85 L0.7 3.9 1.1 4.05 5.1 4.2 M1.35 2.85 L0.05 3.85" fill="none" stroke="#000000" stroke-linecap="round" stroke-linejoin="round" stroke-width="0.05"/>
  </g>
</svg>
