<?xml version="1.0" encoding="UTF-8" standalone="no"?>
<svg xmlns:xlink="http://www.w3.org/1999/xlink" height="15.6px" width="9.25px" xmlns="http://www.w3.org/2000/svg">
  <g transform="matrix(1.0, 0.0, 0.0, 1.0, 0.0, 0.0)">
    <path d="M4.7 0.9 Q6.0 2.7 7.0 4.75 7.55 5.9 7.7 7.2 L8.0 9.7 7.95 12.1 7.9 12.7 Q7.2 15.3 4.15 15.5 L3.2 15.45 3.0 15.3 2.95 15.4 Q1.65 15.1 0.8 14.4 L-0.55 12.6 Q-1.35 10.6 -1.15 8.7 L-1.05 7.6 -0.75 4.45 0.05 0.3 0.2 -0.1 4.7 0.9 M4.7 13.55 Q4.85 14.4 4.45 15.1 L4.15 15.5 4.45 15.1 Q4.85 14.4 4.7 13.55 M2.5 14.65 L3.0 15.3 2.5 14.65" fill="#e2dbb2" fill-rule="evenodd" stroke="none"/>
    <path d="M4.7 0.9 Q6.0 2.7 7.0 4.75 7.55 5.9 7.7 7.2 L8.0 9.7 7.95 12.1 7.9 12.7 Q7.2 15.3 4.15 15.5 L3.2 15.45 2.95 15.4 Q1.65 15.1 0.8 14.4 L-0.55 12.6 Q-1.35 10.6 -1.15 8.7 L-1.05 7.6 -0.75 4.45 0.05 0.3 0.2 -0.1 M4.15 15.5 L4.45 15.1 Q4.85 14.4 4.7 13.55 M3.2 15.45 L3.0 15.3 2.5 14.65" fill="none" stroke="#000000" stroke-linecap="round" stroke-linejoin="round" stroke-width="0.05"/>
  </g>
</svg>
