<?xml version="1.0" encoding="UTF-8" standalone="no"?>
<svg xmlns:xlink="http://www.w3.org/1999/xlink" height="20.95px" width="13.5px" xmlns="http://www.w3.org/2000/svg">
  <g transform="matrix(1.0, 0.0, 0.0, 1.0, 0.0, 0.0)">
    <path d="M6.05 14.55 L6.05 15.25 2.9 15.35 2.55 14.75 2.65 13.3 5.9 13.15 6.05 14.55" fill="#ffcc66" fill-rule="evenodd" stroke="none"/>
    <path d="M9.0 0.1 L9.15 0.1 9.9 0.1 Q12.7 5.5 12.05 11.4 L10.65 11.45 9.1 11.4 6.55 11.0 6.0 10.7 Q6.85 6.4 6.05 1.9 L9.0 0.1 M0.75 11.75 L-0.65 11.95 -0.95 10.55 Q-1.9 5.65 -0.5 1.0 L0.35 1.2 2.05 2.45 Q1.75 5.85 2.4 9.45 L2.6 10.85 0.75 11.75" fill="#845125" fill-rule="evenodd" stroke="none"/>
    <path d="M9.1 14.45 Q10.75 16.25 10.15 18.7 L10.0 19.05 Q6.25 21.0 2.05 19.7 0.65 19.25 0.4 17.9 L1.15 14.75 2.55 14.75 2.9 15.35 6.05 15.25 6.05 14.55 9.05 14.45 9.1 14.45" fill="#e2dbb2" fill-rule="evenodd" stroke="none"/>
    <path d="M8.6 12.7 L9.2 13.1 Q9.65 13.7 9.1 14.35 L9.05 14.45 6.05 14.55 5.9 13.15 8.6 12.7 M1.15 14.75 L1.45 13.45 1.65 13.4 2.65 13.3 2.55 14.75 1.15 14.75" fill="#3a2e1f" fill-rule="evenodd" stroke="none"/>
    <path d="M9.0 0.1 L6.05 1.9 Q6.85 6.4 6.0 10.7 L6.55 11.0 9.1 11.4 8.6 12.7 5.9 13.15 2.65 13.3 1.65 13.4 0.75 11.75 2.6 10.85 2.4 9.45 Q1.75 5.85 2.05 2.45 L0.35 1.2 1.1 0.65 Q5.0 -1.85 9.05 0.05 L9.0 0.1 M3.7 7.75 L3.3 5.8 3.7 7.75" fill="#e8a059" fill-rule="evenodd" stroke="none"/>
    <path d="M9.1 11.4 L10.65 11.45 12.05 11.4 Q12.7 5.5 9.9 0.1 L9.15 0.1 9.0 0.1 6.05 1.9 Q6.85 6.4 6.0 10.7 L6.55 11.0 9.1 11.4 8.6 12.7 9.2 13.1 Q9.65 13.7 9.1 14.35 L9.1 14.45 Q10.75 16.25 10.15 18.7 L10.0 19.05 M0.4 17.9 L1.15 14.75 1.45 13.45 1.65 13.4 0.75 11.75 -0.65 11.95 -0.95 10.55 Q-1.9 5.65 -0.5 1.0 L0.35 1.2 1.1 0.65 Q5.0 -1.85 9.05 0.05 L9.15 0.1 M0.35 1.2 L2.05 2.45 Q1.75 5.85 2.4 9.45 L2.6 10.85 0.75 11.75 M3.3 5.8 L3.7 7.75 M9.05 14.45 L6.05 14.55 6.05 15.25 2.9 15.35 2.55 14.75 1.15 14.75 M9.05 14.45 L9.1 14.35 M6.05 14.55 L5.9 13.15 2.65 13.3 2.55 14.75 M5.9 13.15 L8.6 12.7 M1.65 13.4 L2.65 13.3" fill="none" stroke="#000000" stroke-linecap="round" stroke-linejoin="round" stroke-width="0.05"/>
  </g>
</svg>
