<?xml version="1.0" encoding="UTF-8" standalone="no"?>
<svg xmlns:xlink="http://www.w3.org/1999/xlink" height="21.2px" width="11.5px" xmlns="http://www.w3.org/2000/svg">
  <g transform="matrix(1.0, 0.0, 0.0, 1.0, 0.0, 0.0)">
    <path d="M-0.2 3.0 Q0.05 4.65 2.5 5.8 4.9 6.95 9.9 1.0 11.75 5.8 9.75 10.75 L8.75 13.25 5.7 13.35 5.3 12.5 3.8 12.6 Q3.2 12.75 3.35 13.35 L1.65 13.45 Q-0.35 8.9 -0.3 3.8 L-0.2 3.0 M6.55 8.05 L5.75 8.2 Q4.35 8.25 3.1 7.6 4.35 8.25 5.75 8.2 L6.55 8.05 M5.65 14.55 L8.8 14.05 8.85 14.05 9.9 15.8 10.75 17.8 10.8 18.05 9.95 19.1 Q7.6 20.05 4.95 20.25 2.25 20.45 0.6 18.95 L1.8 14.45 3.55 14.55 3.65 15.0 Q4.8 15.05 5.6 14.55 L5.65 14.55" fill="#523b30" fill-rule="evenodd" stroke="none"/>
    <path d="M9.9 1.0 Q4.9 6.95 2.5 5.8 0.05 4.65 -0.2 3.0 -0.8 2.6 -0.65 2.0 L-0.55 1.5 Q4.9 -2.9 9.95 0.55 L9.9 1.0 M7.85 0.75 L5.05 2.05 7.85 0.75" fill="#855c36" fill-rule="evenodd" stroke="none"/>
    <path d="M1.65 13.45 L3.35 13.35 3.55 14.5 3.55 14.55 1.8 14.45 1.65 13.45 M5.7 13.35 L8.75 13.25 8.85 14.05 8.8 14.05 5.65 14.55 5.65 14.45 5.7 13.35" fill="#5e4226" fill-rule="evenodd" stroke="none"/>
    <path d="M3.35 13.35 Q3.2 12.75 3.8 12.6 L5.3 12.5 5.7 13.35 5.65 14.45 5.6 14.55 Q4.8 15.05 3.65 15.0 L3.55 14.55 3.55 14.5 3.35 13.35" fill="#ac7839" fill-rule="evenodd" stroke="none"/>
    <path d="M3.35 13.35 Q3.2 12.75 3.8 12.6 L5.3 12.5 5.7 13.35 8.75 13.25 9.75 10.75 Q11.75 5.8 9.9 1.0 M5.6 14.55 Q4.8 15.05 3.65 15.0 L3.55 14.55 M5.6 14.55 L5.65 14.45 5.7 13.35 M3.35 13.35 L3.55 14.5" fill="none" stroke="#000000" stroke-linecap="round" stroke-linejoin="round" stroke-width="0.05"/>
    <path d="M-0.2 3.0 Q0.05 4.65 2.5 5.8 4.9 6.95 9.9 1.0 L9.95 0.55 Q4.9 -2.9 -0.55 1.5 L-0.65 2.0 Q-0.8 2.6 -0.2 3.0 L-0.3 3.8 Q-0.35 8.9 1.65 13.45 L3.35 13.35 M3.1 7.6 Q4.35 8.25 5.75 8.2 L6.55 8.05 M5.05 2.05 L7.85 0.75 M8.85 14.05 L8.8 14.05 5.65 14.55 5.6 14.55 M3.55 14.55 L1.8 14.45 0.6 18.95 Q2.25 20.45 4.95 20.25 7.6 20.05 9.95 19.1 L10.8 18.05 10.75 17.8 9.9 15.8 8.85 14.05 8.75 13.25 M3.55 14.5 L3.55 14.55 M1.8 14.45 L1.65 13.45" fill="none" stroke="#000000" stroke-linecap="round" stroke-linejoin="round" stroke-width="0.05"/>
  </g>
</svg>
