<?xml version="1.0" encoding="UTF-8" standalone="no"?>
<svg xmlns:xlink="http://www.w3.org/1999/xlink" height="18.35px" width="15.4px" xmlns="http://www.w3.org/2000/svg">
  <g transform="matrix(1.0, 0.0, 0.0, 1.0, 0.0, 0.0)">
    <path d="M6.8 4.75 L7.45 4.3 Q8.4 4.45 8.45 5.5 L8.45 5.85 8.45 5.5 Q8.4 4.45 7.45 4.3 L6.8 4.75 M4.25 10.8 L2.85 11.2 Q2.35 11.35 1.9 10.7 L1.25 9.25 0.95 8.1 0.0 7.45 0.9 5.1 0.85 3.85 Q0.75 3.15 1.05 2.6 L1.6 1.5 Q2.05 0.7 3.0 0.35 L6.15 0.15 7.1 0.55 8.3 1.35 Q9.6 2.6 9.65 4.4 9.65 5.6 8.45 5.85 L8.15 6.55 7.7 6.9 7.6 6.95 Q7.3 7.6 7.3 8.3 L7.05 9.4 5.7 10.3 4.25 10.8 5.7 10.3 7.05 9.4 7.3 8.3 Q7.3 7.6 7.6 6.95 L7.7 6.9 8.15 6.55 8.2 6.7 8.65 11.35 8.15 11.8 4.85 11.95 Q4.35 11.45 4.25 10.8 M2.45 5.75 L2.85 6.1 3.85 5.95 4.1 5.45 4.0 4.95 2.45 5.3 2.45 5.75 M5.1 4.55 L4.0 4.95 5.1 4.55 M1.8 5.25 L2.45 5.3 1.8 5.25" fill="#ffcc99" fill-rule="evenodd" stroke="none"/>
    <path d="M2.45 5.75 L2.45 5.3 4.0 4.95 4.1 5.45 3.85 5.95 2.85 6.1 2.45 5.75" fill="#fe0188" fill-rule="evenodd" stroke="none"/>
    <path d="M8.45 5.85 L8.45 5.5 Q8.4 4.45 7.45 4.3 L6.8 4.75 M8.15 6.55 L8.45 5.85 Q9.65 5.6 9.65 4.4 9.6 2.6 8.3 1.35 L7.1 0.55 6.15 0.15 3.0 0.35 Q2.05 0.7 1.6 1.5 L1.05 2.6 Q0.75 3.15 0.85 3.85 L0.9 5.1 0.0 7.45 0.95 8.1 1.25 9.25 1.9 10.7 Q2.35 11.35 2.85 11.2 L4.25 10.8 5.7 10.3 7.05 9.4 7.3 8.3 Q7.3 7.6 7.6 6.95 L7.7 6.9 8.15 6.55 8.2 6.7 8.65 11.35 8.15 11.8 4.85 11.95 Q4.35 11.45 4.25 10.8 M2.45 5.75 L2.85 6.1 3.85 5.95 4.1 5.45 4.0 4.95 2.45 5.3 2.45 5.75 M2.45 5.3 L1.8 5.25 M4.0 4.95 L5.1 4.55" fill="none" stroke="#000000" stroke-linecap="round" stroke-linejoin="round" stroke-width="0.05"/>
    <path d="M3.15 11.05 L3.15 10.65 4.15 10.65 4.8 12.5 4.4 12.6 Q4.4 11.95 4.05 11.5 3.65 11.05 3.15 11.05 3.65 11.05 4.05 11.5 4.4 11.95 4.4 12.6 L3.55 12.7 3.3 11.95 3.15 11.05 M6.0 13.05 Q6.35 11.55 5.9 10.2 L6.9 9.7 8.25 8.8 9.1 8.4 9.25 8.6 Q9.75 9.6 9.65 10.7 L9.55 11.3 9.1 11.7 Q7.7 13.05 6.0 13.1 L6.0 13.05 6.3 12.9 6.75 12.1 6.75 11.8 6.65 10.9 6.65 10.7 6.7 10.2 6.8 10.15 8.2 9.45 8.65 9.15 8.2 9.45 6.8 10.15 6.7 10.2 6.65 10.7 6.65 10.9 6.75 11.8 6.75 12.1 6.3 12.9 6.0 13.05" fill="#5a3416" fill-rule="evenodd" stroke="none"/>
    <path d="M4.8 12.5 L4.15 10.65 3.15 10.65 3.15 11.05 3.3 11.95 3.55 12.7 M6.0 13.05 Q6.35 11.55 5.9 10.2 L6.9 9.7 8.25 8.8 9.1 8.4 9.25 8.6 Q9.75 9.6 9.65 10.7 L9.55 11.3 M6.0 13.1 L6.0 13.05" fill="none" stroke="#000000" stroke-linecap="round" stroke-linejoin="round" stroke-width="0.05"/>
    <path d="M3.15 11.05 Q3.65 11.05 4.05 11.5 4.4 11.95 4.4 12.6 L4.75 12.7 4.95 12.8 Q5.5 13.2 6.0 13.05 L6.3 12.9 6.75 12.1 6.75 11.8 6.65 10.9 6.65 10.7 6.7 10.2 6.8 10.15 8.2 9.45 8.65 9.15" fill="none" stroke="#fff18a" stroke-linecap="round" stroke-linejoin="round" stroke-width="0.05"/>
    <path d="M3.75 -0.35 L5.9 -0.75 Q7.1 -0.8 8.35 0.65 9.6 2.05 10.05 4.0 L10.95 8.55 Q11.3 9.85 13.65 10.95 L12.0 10.95 13.75 11.4 10.5 11.7 11.85 12.2 10.7 12.25 Q8.75 12.0 7.35 10.6 6.95 10.15 6.8 9.4 L6.55 7.55 6.35 5.8 6.2 4.85 5.7 3.2 5.2 2.5 4.25 1.75 3.0 1.8 2.5 2.85 1.7 4.4 1.3 4.85 0.85 5.4 0.65 5.75 0.35 6.45 0.0 4.85 Q-0.15 4.0 0.25 2.35 0.65 0.7 1.85 0.1 3.05 -0.5 3.75 -0.35 M9.05 3.3 L9.15 5.35 8.55 4.4 8.4 6.1 6.8 4.1 7.2 6.5 6.8 4.1 8.4 6.1 8.55 4.4 9.15 5.35 9.05 3.3 M4.1 10.9 L3.1 11.5 Q1.55 12.35 -0.15 12.0 0.0 11.9 0.7 11.7 L1.0 11.55 1.15 11.25 0.9 11.45 0.2 11.55 0.5 11.35 1.1 10.65 1.1 10.5 1.1 10.45 0.85 10.75 Q0.4 11.0 0.8 10.25 1.25 9.35 1.05 8.45 L1.3 9.25 Q1.65 10.45 2.4 11.2 L4.1 10.9" fill="#cccccc" fill-rule="evenodd" stroke="none"/>
    <path d="M3.75 -0.35 Q3.05 -0.5 1.85 0.1 0.65 0.7 0.25 2.35 -0.15 4.0 0.0 4.85 L0.35 6.45 0.65 5.75 0.85 5.4 1.3 4.85 1.7 4.4 2.5 2.85 3.0 1.8 4.25 1.75 5.2 2.5 5.7 3.2 6.2 4.85 6.35 5.8 6.55 7.55 6.8 9.4 Q6.95 10.15 7.35 10.6 8.75 12.0 10.7 12.25 L11.85 12.2 10.5 11.7 13.75 11.4 12.0 10.95 13.65 10.95 Q11.3 9.85 10.95 8.55 L10.05 4.0 Q9.6 2.05 8.35 0.65 7.1 -0.8 5.9 -0.75 L3.75 -0.35 M4.1 10.9 L2.4 11.2 Q1.65 10.45 1.3 9.25 L1.05 8.45 Q1.25 9.35 0.8 10.25 0.4 11.0 0.85 10.75 L1.1 10.45 1.1 10.5 1.1 10.65 0.5 11.35 0.2 11.55 0.9 11.45 1.15 11.25 1.0 11.55 0.7 11.7 Q0.0 11.9 -0.15 12.0 1.55 12.35 3.1 11.5 L4.1 10.9 4.25 10.85 4.5 11.5 4.85 11.95 M4.1 10.9 L4.25 10.85" fill="none" stroke="#000000" stroke-linecap="round" stroke-linejoin="round" stroke-width="0.05"/>
    <path d="M7.2 6.5 L6.8 4.1 8.4 6.1 8.55 4.4 9.15 5.35 9.05 3.3" fill="none" stroke="#ffffff" stroke-linecap="round" stroke-linejoin="round" stroke-width="0.05"/>
    <path d="M1.2 8.35 L2.05 8.25 Q2.45 8.15 3.1 8.6 4.3 9.0 5.4 8.4 L6.55 7.6 6.95 9.75 Q5.8 11.1 5.0 11.45 L3.55 12.05 2.6 12.45 2.1 11.95 1.3 10.75 Q0.95 9.95 0.9 9.25 L1.2 8.35 M1.95 9.85 L1.9 9.85 1.9 9.9 3.95 10.1 3.3 9.5 3.0 9.45 2.65 9.45 1.95 9.85" fill="#cccccc" fill-rule="evenodd" stroke="none"/>
    <path d="M4.85 -3.95 L4.75 -3.95 Q4.2 -3.95 4.2 -3.4 4.2 -2.95 4.7 -2.9 L4.75 -2.9 5.15 -3.15 5.3 -3.45 Q5.3 -3.9 4.85 -3.95 L4.85 -4.2 4.85 -3.95 M-1.2 -1.95 L-1.65 -2.85 -0.7 -2.9 -0.4 -2.4 Q0.25 -2.55 0.45 -2.1 0.0 -1.25 1.05 -0.7 2.75 0.0 3.95 -1.55 4.6 -2.9 3.3 -3.65 L4.2 -4.0 4.6 -5.0 4.95 -5.05 5.35 -3.95 6.1 -3.55 5.75 -2.4 Q5.65 -1.9 5.85 -1.4 L6.15 -1.0 7.85 -0.95 Q8.75 -1.45 8.65 -2.5 L8.45 -2.9 8.6 -3.35 10.3 -3.95 9.95 -3.15 9.6 -3.25 9.45 -3.2 Q9.05 -3.15 9.05 -2.7 9.05 -2.45 9.2 -2.3 L9.55 -2.2 Q8.9 -0.5 8.65 1.25 4.4 0.85 0.75 1.85 L-0.7 -1.05 -0.4 -1.25 -0.35 -1.25 -0.25 -1.55 Q-0.25 -2.0 -0.8 -2.05 L-1.2 -1.95 M-1.0 -2.35 L-0.8 -2.05 -1.0 -2.35 M4.45 -1.1 L4.7 -2.9 4.45 -1.1 M7.75 0.6 Q4.4 0.25 1.05 1.15 L-0.35 -1.25 1.05 1.15 Q4.4 0.25 7.75 0.6 M8.35 0.65 L9.2 -2.3 8.35 0.65" fill="#cc9900" fill-rule="evenodd" stroke="none"/>
    <path d="M4.7 -2.9 Q4.2 -2.95 4.2 -3.4 4.2 -3.95 4.75 -3.95 L4.85 -3.95 Q5.3 -3.9 5.3 -3.45 L5.15 -3.15 4.75 -2.9 4.7 -2.9 M9.95 -3.15 L10.15 -2.75 10.0 -2.45 9.6 -2.2 9.55 -2.2 9.2 -2.3 Q9.05 -2.45 9.05 -2.7 9.05 -3.15 9.45 -3.2 L9.6 -3.25 9.95 -3.15 M-0.7 -1.05 L-0.8 -1.05 Q-1.35 -1.05 -1.35 -1.55 L-1.2 -1.95 -0.8 -2.05 Q-0.25 -2.0 -0.25 -1.55 L-0.35 -1.25 -0.4 -1.25 -0.7 -1.05" fill="#d50000" fill-rule="evenodd" stroke="none"/>
    <path d="M-1.2 -1.95 L-1.65 -2.85 -0.7 -2.9 -0.4 -2.4 Q0.25 -2.55 0.45 -2.1 0.0 -1.25 1.05 -0.7 2.75 0.0 3.95 -1.55 4.6 -2.9 3.3 -3.65 L4.2 -4.0 4.6 -5.0 4.95 -5.05 5.35 -3.95 6.1 -3.55 5.75 -2.4 Q5.65 -1.9 5.85 -1.4 L6.15 -1.0 7.85 -0.95 Q8.75 -1.45 8.65 -2.5 L8.45 -2.9 8.6 -3.35 10.3 -3.95 9.95 -3.15 M9.55 -2.2 Q8.9 -0.5 8.65 1.25 4.4 0.85 0.75 1.85 L-0.7 -1.05 M1.2 8.35 L2.05 8.25 Q2.45 8.15 3.1 8.6 4.3 9.0 5.4 8.4 L6.55 7.6 6.95 9.75 Q5.8 11.1 5.0 11.45 L3.55 12.05 2.6 12.45 2.1 11.95 1.3 10.75 Q0.95 9.95 0.9 9.25 L1.2 8.35 M1.9 9.9 L1.95 9.85 1.9 9.85 1.9 9.9 3.95 10.1 3.3 9.5 3.0 9.45 2.65 9.45 1.95 9.85" fill="none" stroke="#000000" stroke-linecap="round" stroke-linejoin="round" stroke-width="0.05"/>
    <path d="M4.85 -3.95 L4.85 -4.2 M-0.8 -2.05 L-1.0 -2.35 M4.7 -2.9 L4.45 -1.1 M-0.35 -1.25 L1.05 1.15 Q4.4 0.25 7.75 0.6 M9.2 -2.3 L8.35 0.65" fill="none" stroke="#ffff99" stroke-linecap="round" stroke-linejoin="round" stroke-width="0.05"/>
  </g>
</svg>
