<?xml version="1.0" encoding="UTF-8" standalone="no"?>
<svg xmlns:xlink="http://www.w3.org/1999/xlink" height="15.75px" width="12.8px" xmlns="http://www.w3.org/2000/svg">
  <g transform="matrix(1.0, 0.0, 0.0, 1.0, 0.0, 0.0)">
    <path d="M4.85 11.95 Q4.2 11.35 4.25 10.45 4.2 8.9 4.55 7.55 L5.3 6.6 Q6.5 5.45 8.0 6.3 L8.2 6.7 8.65 11.35 8.15 11.8 4.85 11.95" fill="#e8a059" fill-rule="evenodd" stroke="none"/>
    <path d="M4.85 11.95 L8.15 11.8 8.65 11.35 8.2 6.7 8.0 6.3 Q6.5 5.45 5.3 6.6 L4.55 7.55 Q4.2 8.9 4.25 10.45 4.2 11.35 4.85 11.95 Z" fill="none" stroke="#000000" stroke-linecap="round" stroke-linejoin="round" stroke-width="0.05"/>
    <path d="M4.0 4.95 L4.1 5.15 Q4.05 6.2 3.0 6.15 L2.85 6.1 Q2.45 5.85 2.4 5.5 L2.55 5.1 4.0 4.95" fill="#523b30" fill-rule="evenodd" stroke="none"/>
    <path d="M8.45 5.85 Q8.3 6.6 7.7 6.9 L7.6 6.95 Q7.3 7.6 7.3 8.3 L7.05 9.4 5.7 10.3 2.85 11.2 2.0 11.0 Q1.1 10.05 1.0 8.7 L0.95 8.1 0.0 7.45 0.9 5.1 0.85 3.85 Q0.75 3.15 1.05 2.6 L1.6 1.5 Q2.05 0.7 3.0 0.35 L6.15 0.15 7.1 0.55 8.3 1.35 Q9.6 2.6 9.65 4.4 9.65 5.6 8.45 5.85 L8.45 5.5 Q8.4 4.45 7.45 4.3 L6.8 4.75 7.45 4.3 Q8.4 4.45 8.45 5.5 L8.45 5.85 M2.55 5.1 L2.4 5.5 Q2.45 5.85 2.85 6.1 L3.0 6.15 Q4.05 6.2 4.1 5.15 L4.0 4.95 5.0 4.95 4.0 4.95 2.55 5.1 1.8 5.25 2.55 5.1" fill="#e8a059" fill-rule="evenodd" stroke="none"/>
    <path d="M8.45 5.85 Q9.65 5.6 9.65 4.4 9.6 2.6 8.3 1.35 L7.1 0.55 6.15 0.15 3.0 0.35 Q2.05 0.7 1.6 1.5 L1.05 2.6 Q0.75 3.15 0.85 3.85 L0.9 5.1 0.0 7.45 0.95 8.1 1.0 8.7 Q1.1 10.05 2.0 11.0 L2.85 11.2 5.7 10.3 7.05 9.4 7.3 8.3 Q7.3 7.6 7.6 6.95 L7.7 6.9 Q8.3 6.6 8.45 5.85 L8.45 5.5 Q8.4 4.45 7.45 4.3 L6.8 4.75 M4.0 4.95 L4.1 5.15 Q4.05 6.2 3.0 6.15 L2.85 6.1 Q2.45 5.85 2.4 5.5 L2.55 5.1 1.8 5.25 M4.0 4.95 L5.0 4.95 M2.55 5.1 L4.0 4.95" fill="none" stroke="#000000" stroke-linecap="round" stroke-linejoin="round" stroke-width="0.05"/>
    <path d="M2.9 -1.65 L2.95 -1.7 Q3.9 -2.65 5.2 -3.0 L6.8 -2.9 7.3 -2.7 Q9.6 -1.6 11.35 0.05 12.75 1.35 12.45 3.2 L11.45 4.1 Q12.3 5.35 11.65 6.55 L11.1 7.15 10.35 7.3 10.15 8.9 Q9.85 9.85 10.2 10.8 10.4 11.3 9.95 11.7 L8.15 11.9 5.45 12.5 3.45 12.75 1.55 12.3 Q0.9 11.15 0.6 9.8 L0.15 8.65 -0.25 7.55 -0.25 6.65 -0.1 6.45 2.1 7.35 3.45 7.6 5.45 6.8 Q6.65 6.2 7.85 6.35 6.4 4.5 3.95 3.8 L0.9 3.1 0.85 3.0 0.55 1.85 Q0.3 -0.35 2.25 -1.65 L2.85 -1.7 2.9 -1.65 3.75 -1.25 2.9 -1.65 M10.35 7.3 L10.2 7.3 9.8 7.15 9.9 6.5 9.8 7.15 10.2 7.3 10.35 7.3 M10.7 2.85 L10.5 2.55 Q9.5 1.35 8.05 0.5 9.5 1.35 10.5 2.55 L10.7 2.85 M11.1 3.45 L11.45 4.1 11.1 3.45 M2.1 0.5 L1.95 0.35 1.7 0.3 Q0.85 0.5 0.65 1.2 L0.9 2.1 2.05 2.15 2.15 1.85 Q2.3 1.15 2.1 0.5 M10.6 4.5 L7.3 2.75 10.6 4.5 M9.8 7.15 L9.35 8.05 8.75 8.05 7.85 6.35 8.75 8.05 9.35 8.05 9.8 7.15 M6.2 10.4 L6.95 10.2 Q8.1 9.7 8.45 8.65 8.1 9.7 6.95 10.2 L6.2 10.4 M3.85 8.75 L4.45 8.8 Q5.95 8.45 7.05 7.7 5.95 8.45 4.45 8.8 L3.85 8.75" fill="#8c5e2f" fill-rule="evenodd" stroke="none"/>
    <path d="M2.1 0.5 Q2.3 1.15 2.15 1.85 L2.05 2.15 0.9 2.1 0.65 1.2 Q0.85 0.5 1.7 0.3 L1.95 0.35 2.1 0.5" fill="#ffcc66" fill-rule="evenodd" stroke="none"/>
    <path d="M2.9 -1.65 L3.75 -1.25 M2.95 -1.7 Q3.9 -2.65 5.2 -3.0 L6.8 -2.9 7.3 -2.7 Q9.6 -1.6 11.35 0.05 12.75 1.35 12.45 3.2 L11.45 4.1 Q12.3 5.35 11.65 6.55 L11.1 7.15 10.35 7.3 10.15 8.9 Q9.85 9.85 10.2 10.8 10.4 11.3 9.95 11.7 L8.15 11.9 5.45 12.5 3.45 12.75 1.55 12.3 Q0.9 11.15 0.6 9.8 L0.15 8.65 -0.25 7.55 -0.25 6.65 -0.1 6.45 2.1 7.35 3.45 7.6 5.45 6.8 Q6.65 6.2 7.85 6.35 6.4 4.5 3.95 3.8 L0.9 3.1 0.85 3.0 0.55 1.85 Q0.3 -0.35 2.25 -1.65 L2.85 -1.7 2.95 -1.7 M2.9 -1.65 L2.85 -1.7 M11.45 4.1 L11.1 3.45 M8.05 0.5 Q9.5 1.35 10.5 2.55 L10.7 2.85 M9.9 6.5 L9.8 7.15 10.2 7.3 10.35 7.3 M2.1 0.5 Q2.3 1.15 2.15 1.85 L2.05 2.15 0.9 2.1 0.65 1.2 Q0.85 0.5 1.7 0.3 L1.95 0.35 2.1 0.5 M7.05 7.7 Q5.95 8.45 4.45 8.8 L3.85 8.75 M8.45 8.65 Q8.1 9.7 6.95 10.2 L6.2 10.4 M7.85 6.35 L8.75 8.05 9.35 8.05 9.8 7.15 M7.3 2.75 L10.6 4.5" fill="none" stroke="#000000" stroke-linecap="round" stroke-linejoin="round" stroke-width="0.05"/>
  </g>
</svg>
