<?xml version="1.0" encoding="UTF-8" standalone="no"?>
<svg xmlns:xlink="http://www.w3.org/1999/xlink" height="7.3px" width="1.9px" xmlns="http://www.w3.org/2000/svg">
  <g transform="matrix(1.0, 0.0, 0.0, 1.0, 0.0, 0.0)">
    <path d="M6.15 5.3 L5.35 5.45 5.25 5.5 5.4 5.65 5.8 6.0 M4.35 11.85 Q4.45 11.35 4.95 10.95 L5.0 10.95 4.55 10.15 M5.75 10.35 L5.0 10.95 5.2 11.2 5.55 11.4 5.95 11.45 M6.15 7.7 L5.25 8.15 5.25 8.2 5.55 8.4 5.95 8.6 M4.55 7.3 Q4.65 7.85 5.2 8.15 L5.25 8.2 Q4.5 8.55 4.25 9.25 M4.35 6.2 L5.25 5.5 Q4.9 5.1 4.85 4.55" fill="none" stroke="#000000" stroke-linecap="round" stroke-linejoin="round" stroke-width="0.05"/>
  </g>
</svg>
