<?xml version="1.0" encoding="UTF-8" standalone="no"?>
<svg xmlns:xlink="http://www.w3.org/1999/xlink" height="16.1px" width="6.1px" xmlns="http://www.w3.org/2000/svg">
  <g transform="matrix(1.0, 0.0, 0.0, 1.0, 0.0, 0.0)">
    <path d="M4.75 1.55 L4.85 8.85 Q4.95 11.45 5.25 12.4 L5.45 12.95 4.95 13.75 5.8 15.6 Q2.65 17.0 -0.3 14.9 L0.45 10.15 0.15 0.05 Q2.3 0.45 4.2 1.2 L4.75 1.55 M4.6 14.1 L3.75 14.25 2.3 14.35 1.25 14.05 0.95 13.85 1.25 14.05 2.3 14.35 3.75 14.25 4.6 14.1 M2.25 1.15 L2.2 1.45 2.1 1.65 1.25 2.05 Q0.45 2.3 0.45 1.55 0.45 2.3 1.25 2.05 L2.1 1.65 2.2 1.45 2.25 1.15" fill="#625537" fill-rule="evenodd" stroke="none"/>
    <path d="M4.75 1.55 L4.85 8.85 Q4.95 11.45 5.25 12.4 M0.45 10.15 L0.15 0.05 M0.45 1.55 Q0.45 2.3 1.25 2.05 L2.1 1.65 2.2 1.45 2.25 1.15 M0.95 13.85 L1.25 14.05 2.3 14.35 3.75 14.25 4.6 14.1" fill="none" stroke="#000000" stroke-linecap="round" stroke-linejoin="round" stroke-width="0.05"/>
    <path d="M5.25 12.4 L5.45 12.95 4.95 13.75 5.8 15.6 Q2.65 17.0 -0.3 14.9 L0.45 10.15" fill="none" stroke="#000000" stroke-linecap="round" stroke-linejoin="round" stroke-width="0.05"/>
  </g>
</svg>
