<?xml version="1.0" encoding="UTF-8" standalone="no"?>
<svg xmlns:xlink="http://www.w3.org/1999/xlink" height="20.25px" width="11.15px" xmlns="http://www.w3.org/2000/svg">
  <g transform="matrix(1.0, 0.0, 0.0, 1.0, 0.0, 0.0)">
    <path d="M8.05 -0.85 L8.25 -0.75 Q9.3 -0.5 9.75 0.45 10.2 1.3 10.25 2.2 L10.25 3.2 10.2 4.75 9.8 6.6 9.3 7.85 Q8.95 8.8 9.05 9.7 L9.15 11.7 8.75 12.35 7.6 12.7 7.1 12.75 6.55 12.85 5.5 12.9 4.0 12.8 3.95 12.8 3.55 12.75 3.3 12.7 2.35 12.5 Q1.95 11.8 2.15 10.8 2.35 9.8 2.15 9.1 L1.8 8.1 1.75 8.1 Q0.65 8.1 0.05 7.2 -0.55 6.25 -0.4 5.5 L0.05 3.9 0.45 2.4 0.55 1.4 0.6 1.4 0.55 1.3 0.75 0.25 1.0 -0.05 1.35 -0.3 1.4 0.05 1.55 0.85 2.25 2.65 2.7 3.55 3.1 3.95 Q3.25 3.25 3.6 2.9 4.2 2.35 4.9 2.05 L5.9 1.5 7.2 0.7 Q7.95 0.0 8.05 -0.85 M8.9 13.95 L9.55 14.2 10.0 14.35 Q9.85 14.65 10.55 14.95 L10.7 15.7 9.75 15.5 5.1 15.8 4.5 14.75 3.05 15.65 1.9 15.25 1.25 15.35 Q1.45 14.55 2.2 14.0 L2.25 13.95 3.55 14.25 4.45 14.35 5.3 14.5 6.5 14.55 8.1 14.25 8.85 13.95 8.9 13.95 M8.25 -0.75 Q8.5 0.1 7.95 1.05 L6.8 2.3 Q6.0 2.85 5.95 3.85 L6.0 4.35 Q5.0 3.6 3.85 3.75 L3.1 3.95 3.85 3.75 Q5.0 3.6 6.0 4.35 L5.95 3.85 Q6.0 2.85 6.8 2.3 L7.95 1.05 Q8.5 0.1 8.25 -0.75 M4.25 7.4 Q5.1 8.2 6.0 8.15 6.9 8.05 7.7 7.45 8.5 6.85 8.55 6.1 L7.85 3.4 8.55 6.1 Q8.5 6.85 7.7 7.45 6.9 8.05 6.0 8.15 5.1 8.2 4.25 7.4 M3.55 4.65 L3.05 4.6 3.0 4.6 3.0 4.5 3.0 4.4 3.0 3.95 1.4 4.45 0.95 4.6 Q1.45 2.8 1.05 0.85 L1.0 -0.05 1.05 0.85 Q1.45 2.8 0.95 4.6 L1.4 4.45 3.0 3.95 3.0 4.4 3.0 4.5 3.0 4.6 3.05 4.6 3.55 4.65 M4.3 5.3 L3.3 5.35 3.3 5.3 3.3 5.35 4.3 5.3 M3.1 6.2 L3.3 5.35 3.1 6.2 M6.65 11.4 L6.7 11.75 6.65 12.3 6.55 12.85 6.65 12.3 6.7 11.75 6.65 11.4 M2.65 7.7 L2.4 7.9 1.75 8.1 2.4 7.9 2.65 7.7 M2.9 11.15 Q2.85 11.55 2.95 11.95 L3.1 12.3 3.3 12.7 3.1 12.3 2.95 11.95 Q2.85 11.55 2.9 11.15 M3.3 5.3 L3.05 4.85 3.05 4.75 3.0 4.6 3.05 4.75 3.05 4.85 3.3 5.3 M7.7 11.9 L7.6 12.7 7.7 11.9 M4.45 14.35 L4.5 14.75 4.45 14.35 M3.8 12.25 L4.0 12.8 3.8 12.25" fill="#81814f" fill-rule="evenodd" stroke="none"/>
    <path d="M5.5 12.9 L5.55 13.75 5.5 14.1 5.3 14.5 4.45 14.35 3.55 14.25 3.3 13.65 3.3 13.1 3.3 13.0 3.55 12.75 3.95 12.8 4.0 12.8 5.5 12.9 M4.8 13.6 L4.6 13.55 3.9 13.4 Q3.8 13.4 3.75 13.5 L3.75 13.95 4.8 14.0 4.9 13.9 4.8 13.6" fill="#735f31" fill-rule="evenodd" stroke="none"/>
    <path d="M0.55 1.4 L0.55 1.35 0.6 1.4 0.55 1.4" fill="url(#gradient0)" fill-rule="evenodd" stroke="none"/>
    <path d="M2.2 14.0 L2.2 13.95 2.25 13.95 2.2 14.0" fill="#b17444" fill-rule="evenodd" stroke="none"/>
    <path d="M1.35 -0.3 L2.75 -0.7 4.2 -0.95 5.95 -0.95 7.3 -0.9 8.05 -0.85 Q7.95 0.0 7.2 0.7 L5.9 1.5 4.9 2.05 Q4.2 2.35 3.6 2.9 3.25 3.25 3.1 3.95 L2.7 3.55 2.25 2.65 1.55 0.85 1.4 0.05 1.35 -0.3" fill="#ffcc99" fill-rule="evenodd" stroke="none"/>
    <path d="M8.75 12.35 L8.75 13.1 8.85 13.85 8.85 13.9 8.85 13.95 8.1 14.25 6.5 14.55 5.3 14.5 5.5 14.1 5.55 13.75 5.5 12.9 6.55 12.85 7.1 12.75 7.6 12.7 8.75 12.35 M2.2 13.95 L2.3 13.15 2.35 12.9 2.35 12.5 3.3 12.7 3.55 12.75 3.3 13.0 3.3 13.1 3.3 13.65 3.55 14.25 2.25 13.95 2.2 13.95 M4.8 13.6 L4.9 13.9 4.8 14.0 3.75 13.95 3.75 13.5 Q3.8 13.4 3.9 13.4 L4.6 13.55 4.8 13.6" fill="#534d2d" fill-rule="evenodd" stroke="none"/>
    <path d="M9.75 15.5 L10.2 16.65 10.35 17.5 10.4 18.15 9.5 18.45 8.6 18.85 7.4 19.2 5.85 19.25 4.5 19.2 3.85 18.95 3.35 18.6 2.85 18.0 2.4 17.4 2.1 16.95 1.9 16.85 1.7 16.7 1.65 16.45 1.75 16.0 Q1.75 15.7 1.9 15.35 L1.9 15.25 3.05 15.65 4.5 14.75 5.1 15.8 9.75 15.5" fill="#625537" fill-rule="evenodd" stroke="none"/>
    <path d="M8.05 -0.85 L8.25 -0.75 Q9.3 -0.5 9.75 0.45 10.2 1.3 10.25 2.2 L10.25 3.2 10.2 4.75 9.8 6.6 9.3 7.85 Q8.95 8.8 9.05 9.7 L9.15 11.7 8.75 12.35 8.75 13.1 8.85 13.85 8.85 13.9 8.85 13.95 8.1 14.25 6.5 14.55 5.3 14.5 4.45 14.35 3.55 14.25 2.25 13.95 2.2 13.95 2.3 13.15 2.35 12.9 2.35 12.5 Q1.95 11.8 2.15 10.8 2.35 9.8 2.15 9.1 L1.8 8.1 1.75 8.1 Q0.65 8.1 0.05 7.2 -0.55 6.25 -0.4 5.5 L0.05 3.9 0.45 2.4 0.55 1.4 0.55 1.35 0.55 1.3 0.75 0.25 1.0 -0.05 1.35 -0.3 2.75 -0.7 4.2 -0.95 5.95 -0.95 7.3 -0.9 8.05 -0.85 M9.75 15.5 L10.2 16.65 10.35 17.5 10.4 18.15 9.5 18.45 8.6 18.85 7.4 19.2 5.85 19.25 4.5 19.2 3.85 18.95 3.35 18.6 M1.7 16.7 L1.65 16.45 1.75 16.0 Q1.75 15.7 1.9 15.35 L1.9 15.25 M2.2 14.0 L2.2 13.95 M7.85 3.4 L8.55 6.1 Q8.5 6.85 7.7 7.45 6.9 8.05 6.0 8.15 5.1 8.2 4.25 7.4 M0.6 1.4 L0.55 1.3 M3.3 5.3 L3.3 5.35 4.3 5.3 M5.5 12.9 L4.0 12.8 3.95 12.8 3.55 12.75 3.3 12.7 2.35 12.5 M5.5 12.9 L6.55 12.85 7.1 12.75 7.6 12.7 8.75 12.35" fill="none" stroke="#000000" stroke-linecap="round" stroke-linejoin="round" stroke-width="0.05"/>
    <path d="M8.85 13.9 L8.9 13.95 9.55 14.2 10.0 14.35 Q9.85 14.65 10.55 14.95 L10.7 15.7 9.75 15.5 5.1 15.8 4.5 14.75 3.05 15.65 1.9 15.25 1.25 15.35 Q1.45 14.55 2.2 14.0 M8.05 -0.85 Q7.95 0.0 7.2 0.7 L5.9 1.5 4.9 2.05 Q4.2 2.35 3.6 2.9 3.25 3.25 3.1 3.95 L3.85 3.75 Q5.0 3.6 6.0 4.35 L5.95 3.85 Q6.0 2.85 6.8 2.3 L7.95 1.05 Q8.5 0.1 8.25 -0.75 M3.1 3.95 L2.7 3.55 2.25 2.65 1.55 0.85 1.4 0.05 1.35 -0.3 M1.0 -0.05 L1.05 0.85 Q1.45 2.8 0.95 4.6 L1.4 4.45 3.0 3.95 3.0 4.4 3.0 4.5 3.0 4.6 3.05 4.6 3.55 4.65 M3.0 4.6 L3.05 4.75 3.05 4.85 3.3 5.3 M3.3 12.7 L3.1 12.3 2.95 11.95 Q2.85 11.55 2.9 11.15 M1.75 8.1 L2.4 7.9 2.65 7.7 M6.55 12.85 L6.65 12.3 6.7 11.75 6.65 11.4 M3.3 5.35 L3.1 6.2 M5.3 14.5 L5.5 14.1 5.55 13.75 5.5 12.9 M3.55 12.75 L3.3 13.0 3.3 13.1 3.3 13.65 3.55 14.25 M7.6 12.7 L7.7 11.9 M4.8 13.6 L4.9 13.9 4.8 14.0 3.75 13.95 3.75 13.5 Q3.8 13.4 3.9 13.4 L4.6 13.55 4.8 13.6 M4.5 14.75 L4.45 14.35 M4.0 12.8 L3.8 12.25" fill="none" stroke="#000000" stroke-linecap="round" stroke-linejoin="round" stroke-width="0.05"/>
  </g>
  <defs>
    <radialGradient cx="0" cy="0" gradientTransform="matrix(0.009, 0.0, 0.0, 0.0123, 3.0, 7.2)" gradientUnits="userSpaceOnUse" id="gradient0" r="819.2" spreadMethod="pad">
      <stop offset="0.0" stop-color="#ececec"/>
      <stop offset="1.0" stop-color="#a0a0a0"/>
    </radialGradient>
  </defs>
</svg>
