<?xml version="1.0" encoding="UTF-8" standalone="no"?>
<svg xmlns:xlink="http://www.w3.org/1999/xlink" height="12.4px" width="9.2px" xmlns="http://www.w3.org/2000/svg">
  <g transform="matrix(1.0, 0.0, 0.0, 1.0, 0.0, 0.0)">
    <path d="M6.8 4.75 L7.45 4.3 Q8.4 4.45 8.45 5.5 L8.45 5.85 8.45 5.5 Q8.4 4.45 7.45 4.3 L6.8 4.75 M4.4 10.35 L2.7 10.7 Q2.05 10.6 1.85 10.2 L1.45 9.0 1.2 8.1 0.45 7.5 Q0.95 6.45 0.9 5.1 L0.85 3.85 Q0.75 3.15 1.05 2.6 L1.6 1.5 Q2.05 0.7 3.0 0.35 L6.15 0.15 7.1 0.55 8.3 1.35 Q9.6 2.6 9.65 4.4 9.65 5.6 8.45 5.85 L8.15 6.55 7.7 6.9 7.6 6.95 Q7.25 7.6 7.25 7.9 L6.9 8.65 5.6 9.75 4.5 10.3 4.45 10.3 4.4 10.3 4.4 10.35 4.4 10.3 4.45 10.3 4.5 10.3 5.6 9.75 6.9 8.65 7.25 7.9 Q7.25 7.6 7.6 6.95 L7.7 6.9 8.15 6.55 8.2 6.7 8.05 11.65 Q7.25 11.85 6.7 12.25 6.15 12.65 4.35 11.95 L4.4 10.35 4.9 10.15 4.5 10.3 4.9 10.15 4.4 10.35 M2.8 4.85 L2.55 4.85 2.4 5.5 Q2.45 5.85 2.85 6.1 L3.0 6.15 Q4.05 6.2 4.1 5.15 L4.0 4.95 5.0 4.95 4.0 4.95 3.8 4.9 2.8 4.85 3.2 4.5 2.8 4.85 M4.25 4.55 L3.8 4.9 4.25 4.55" fill="#ffcc99" fill-rule="evenodd" stroke="none"/>
    <path d="M4.0 4.95 L4.1 5.15 Q4.05 6.2 3.0 6.15 L2.85 6.1 Q2.45 5.85 2.4 5.5 L2.55 4.85 2.8 4.85 3.8 4.9 4.0 4.95" fill="#b5b479" fill-rule="evenodd" stroke="none"/>
    <path d="M8.45 5.85 L8.45 5.5 Q8.4 4.45 7.45 4.3 L6.8 4.75 M8.15 6.55 L8.45 5.85 Q9.65 5.6 9.65 4.4 9.6 2.6 8.3 1.35 L7.1 0.55 6.15 0.15 3.0 0.35 Q2.05 0.7 1.6 1.5 L1.05 2.6 Q0.75 3.15 0.85 3.85 L0.9 5.1 Q0.95 6.45 0.45 7.5 L1.2 8.1 1.45 9.0 1.85 10.2 Q2.05 10.6 2.7 10.7 L4.4 10.35 4.4 10.3 4.45 10.3 4.5 10.3 5.6 9.75 6.9 8.65 7.25 7.9 Q7.25 7.6 7.6 6.95 L7.7 6.9 8.15 6.55 8.2 6.7 8.05 11.65 M4.35 11.95 L4.4 10.35 4.9 10.15 4.5 10.3 M4.0 4.95 L4.1 5.15 Q4.05 6.2 3.0 6.15 L2.85 6.1 Q2.45 5.85 2.4 5.5 L2.55 4.85 2.8 4.85 3.2 4.5 M2.8 4.85 L3.8 4.9 4.25 4.55 M4.0 4.95 L5.0 4.95 M3.8 4.9 L4.0 4.95" fill="none" stroke="#000000" stroke-linecap="round" stroke-linejoin="round" stroke-width="0.05"/>
  </g>
</svg>
