<?xml version="1.0" encoding="UTF-8" standalone="no"?>
<svg xmlns:xlink="http://www.w3.org/1999/xlink" height="18.9px" width="12.8px" xmlns="http://www.w3.org/2000/svg">
  <g transform="matrix(1.0, 0.0, 0.0, 1.0, 0.0, 0.0)">
    <path d="M2.9 10.7 L2.55 12.15 2.5 11.45 2.15 13.3 1.4 14.75 0.9 15.3 Q1.5 14.45 1.3 13.35 L0.4 14.95 Q0.1 12.35 -0.05 9.6 L-0.35 6.75 Q-0.7 4.35 0.25 2.2 1.05 0.4 2.7 -0.4 L5.35 -1.0 Q5.7 -0.8 6.0 -0.65 L6.8 -0.95 Q7.9 -0.7 8.65 0.25 L9.8 1.4 Q10.3 3.2 10.25 5.05 10.25 6.25 10.7 7.6 11.0 8.7 11.6 9.65 L12.15 10.8 12.35 11.3 11.65 11.1 11.75 11.85 11.15 11.2 Q10.5 12.95 10.85 14.85 L11.1 15.9 10.65 15.65 9.2 14.05 Q8.95 16.0 9.7 17.9 8.55 17.25 7.75 15.95 L7.2 15.15 6.6 17.1 Q6.0 15.15 6.7 12.9 7.9 9.1 6.9 5.35 6.45 3.65 5.25 2.5 L4.75 2.4 4.15 2.9 Q2.7 4.35 0.9 4.7 1.05 6.2 0.45 7.5 L1.2 8.1 2.0 9.65 Q2.45 10.8 2.9 10.7 M0.3 4.75 L0.9 4.7 0.3 4.75" fill="#651e00" fill-rule="evenodd" stroke="none"/>
    <path d="M4.75 2.4 L4.15 2.9 Q2.7 4.35 0.9 4.7 1.05 6.2 0.45 7.5 L1.2 8.1 2.0 9.65 Q2.45 10.8 2.9 10.7 L4.1 10.55 M0.9 4.7 L0.3 4.75" fill="none" stroke="#000000" stroke-linecap="round" stroke-linejoin="round" stroke-width="0.05"/>
    <path d="M2.9 10.7 L2.55 12.15 2.5 11.45 2.15 13.3 1.4 14.75 0.9 15.3 Q1.5 14.45 1.3 13.35 L0.4 14.95 Q0.1 12.35 -0.05 9.6 L-0.35 6.75 Q-0.7 4.35 0.25 2.2 1.05 0.4 2.7 -0.4 L5.35 -1.0 Q5.7 -0.8 6.0 -0.65 L6.8 -0.95 Q7.9 -0.7 8.65 0.25 L9.8 1.4 Q10.3 3.2 10.25 5.05 10.25 6.25 10.7 7.6 11.0 8.7 11.6 9.65 L12.15 10.8 12.35 11.3 11.65 11.1 11.75 11.85 11.15 11.2 Q10.5 12.95 10.85 14.85 L11.1 15.9 10.65 15.65 9.2 14.05 Q8.95 16.0 9.7 17.9 8.55 17.25 7.75 15.95 L7.2 15.15 6.6 17.1 Q6.0 15.15 6.7 12.9 7.9 9.1 6.9 5.35 6.45 3.65 5.25 2.5 L4.75 2.4" fill="none" stroke="#000000" stroke-linecap="round" stroke-linejoin="round" stroke-width="0.05"/>
    <path d="M5.85 1.5 L6.7 2.9 7.7 5.95" fill="none" stroke="#883300" stroke-linecap="round" stroke-linejoin="round" stroke-width="0.05"/>
    <path d="M7.1 1.35 L7.35 1.7 8.45 5.0 8.7 6.55 8.6 7.8 M9.4 5.65 Q9.75 3.75 8.9 1.9 L8.7 1.6 M0.1 3.95 Q0.6 2.65 1.55 1.65 L1.75 1.5 M0.8 3.95 Q1.95 3.7 2.75 2.8 L3.15 2.4 M0.7 3.65 L1.1 3.1 1.5 2.5 M0.8 11.2 L0.6 9.0 0.6 8.7 M1.75 12.55 L1.75 11.75 1.7 10.9 M6.8 14.85 Q6.7 13.0 7.3 11.2 L7.5 10.6 M8.7 16.3 Q8.25 15.25 8.25 14.05 L8.35 10.6 8.5 9.6 M10.0 14.35 L9.4 12.25 9.2 10.9" fill="none" stroke="#883300" stroke-linecap="round" stroke-linejoin="round" stroke-width="0.05"/>
  </g>
</svg>
