<?xml version="1.0" encoding="UTF-8" standalone="no"?>
<svg xmlns:xlink="http://www.w3.org/1999/xlink" height="18.35px" width="19.55px" xmlns="http://www.w3.org/2000/svg">
  <g transform="matrix(1.0, 0.0, 0.0, 1.0, 0.0, 0.0)">
    <path d="M16.3 -14.75 L16.1 -14.5 Q15.15 -13.55 14.2 -13.5 L13.95 -13.3 11.75 -10.75 11.35 -10.5 10.9 -10.7 11.9 -11.5 12.1 -11.8 11.9 -11.5 10.9 -10.7 11.35 -10.5 11.75 -10.75 13.95 -13.3 14.2 -13.5 15.05 -14.05 14.2 -13.5 Q15.15 -13.55 16.1 -14.5 L16.3 -14.75 M17.9 -13.65 Q16.8 -11.9 15.05 -10.55 12.15 -8.2 9.25 -6.85 9.8 -6.65 10.65 -7.1 L12.85 -7.95 Q10.95 -5.7 8.6 -4.6 L4.5 -2.95 4.15 -2.8 5.05 -2.75 Q3.3 -1.45 1.45 -0.75 L0.0 0.05 0.05 -0.25 Q1.75 -3.05 4.15 -5.35 L8.3 -9.8 10.35 -12.3 10.2 -11.8 10.1 -11.6 9.95 -11.4 Q12.45 -13.6 15.25 -15.2 17.45 -16.55 19.55 -18.3 18.25 -16.15 16.65 -14.3 14.65 -12.05 12.4 -10.6 L17.25 -13.25 17.9 -13.65 M12.25 -9.7 L13.75 -10.2 12.25 -9.7 13.0 -9.45 12.25 -9.7 11.9 -9.5 7.3 -7.3 11.9 -9.5 12.25 -9.7 M11.75 -10.75 L12.1 -10.2 11.75 -10.75 M5.65 -5.5 L7.7 -5.35 8.0 -5.2 8.65 -5.6 8.0 -5.2 Q8.75 -5.2 9.75 -5.8 L10.2 -6.05 9.75 -5.8 Q8.75 -5.2 8.0 -5.2 L7.7 -5.35 5.65 -5.5 5.35 -5.35 4.15 -4.2 3.85 -3.8 4.25 -4.9 3.85 -3.8 4.15 -4.2 5.35 -5.35 5.65 -5.5 5.8 -5.6 5.65 -5.5 M5.8 -4.55 L5.25 -4.5 4.15 -4.2 5.25 -4.5 5.8 -4.55 M3.85 -3.8 L3.45 -3.45 Q1.55 -2.1 0.05 -0.25 1.55 -2.1 3.45 -3.45 L3.85 -3.8 M10.9 -10.7 L10.65 -10.65 10.25 -10.15 10.0 -9.95 Q8.0 -9.45 7.3 -7.3 L7.05 -6.65 5.8 -5.6 6.3 -6.85 5.8 -5.6 7.05 -6.65 7.3 -7.3 Q8.0 -9.45 10.0 -9.95 L10.25 -10.15 10.65 -10.65 10.9 -10.7" fill="url(#gradient0)" fill-rule="evenodd" stroke="none"/>
    <path d="M12.1 -11.8 L11.9 -11.5 10.9 -10.7 11.35 -10.5 11.75 -10.75 13.95 -13.3 14.2 -13.5 15.05 -14.05 M14.2 -13.5 Q15.15 -13.55 16.1 -14.5 L16.3 -14.75 M17.9 -13.65 Q16.8 -11.9 15.05 -10.55 12.15 -8.2 9.25 -6.85 9.8 -6.65 10.65 -7.1 L12.85 -7.95 Q10.95 -5.7 8.6 -4.6 L4.5 -2.95 4.15 -2.8 5.05 -2.75 Q3.3 -1.45 1.45 -0.75 L0.0 0.05 0.05 -0.25 Q1.75 -3.05 4.15 -5.35 L8.3 -9.8 10.35 -12.3 10.2 -11.8 10.1 -11.6 9.95 -11.4 Q12.45 -13.6 15.25 -15.2 17.45 -16.55 19.55 -18.3 18.25 -16.15 16.65 -14.3 14.65 -12.05 12.4 -10.6 L17.25 -13.25 17.9 -13.65 M6.3 -6.85 L5.8 -5.6 7.05 -6.65 7.3 -7.3 Q8.0 -9.45 10.0 -9.95 L10.25 -10.15 10.65 -10.65 10.9 -10.7 M4.25 -4.9 L3.85 -3.8 4.15 -4.2 5.35 -5.35 5.65 -5.5 5.8 -5.6 M0.05 -0.25 Q1.55 -2.1 3.45 -3.45 L3.85 -3.8 M4.15 -4.2 L5.25 -4.5 5.8 -4.55 M8.65 -5.6 L8.0 -5.2 Q8.75 -5.2 9.75 -5.8 L10.2 -6.05 M8.0 -5.2 L7.7 -5.35 5.65 -5.5 M12.1 -10.2 L11.75 -10.75 M13.0 -9.45 L12.25 -9.7 11.9 -9.5 7.3 -7.3 M13.75 -10.2 L12.25 -9.7" fill="none" stroke="#cff1fe" stroke-linecap="round" stroke-linejoin="round" stroke-opacity="0.24313726" stroke-width="0.05"/>
  </g>
  <defs>
    <linearGradient gradientTransform="matrix(0.01, -0.0091, 0.0033, 0.0043, 9.75, -9.1)" gradientUnits="userSpaceOnUse" id="gradient0" spreadMethod="pad" x1="-819.2" x2="819.2">
      <stop offset="0.0" stop-color="#e6f8fd" stop-opacity="0.24313726"/>
      <stop offset="1.0" stop-color="#ffffff" stop-opacity="0.0"/>
    </linearGradient>
  </defs>
</svg>
