<?xml version="1.0" encoding="UTF-8" standalone="no"?>
<svg xmlns:xlink="http://www.w3.org/1999/xlink" height="24.45px" width="10.55px" xmlns="http://www.w3.org/2000/svg">
  <g transform="matrix(1.0, 0.0, 0.0, 1.0, 0.0, 0.0)">
    <path d="M7.5 4.5 L7.0 3.85 Q7.65 3.85 7.75 4.6 L7.5 4.5 M9.2 7.15 Q9.75 7.1 9.4 7.7 L9.3 7.7 Q8.7 7.45 9.2 7.15 M3.25 1.0 L3.55 0.95 Q3.95 1.0 3.75 1.1 3.3 1.5 3.25 1.0" fill="#000000" fill-rule="evenodd" stroke="none"/>
    <path d="M10.65 8.1 L10.65 8.9 9.65 9.55 7.65 10.2 6.95 10.4 6.15 11.45 6.0 11.25 5.15 10.35 5.7 9.7 Q6.35 9.25 7.05 9.35 L8.65 9.5 Q9.4 9.55 9.85 9.1 L10.65 8.1 M6.25 1.55 L6.4 1.6 6.15 2.45 5.3 3.5 Q4.8 4.3 4.0 3.7 L3.9 3.75 3.7 4.4 Q3.35 5.35 2.4 5.25 L1.7 3.8 2.7 2.85 3.85 2.95 Q4.6 3.1 5.4 2.7 6.15 2.35 6.25 1.55 M9.7 4.85 L9.85 5.1 8.7 6.5 8.35 6.75 7.8 7.25 7.2 7.15 6.55 7.05 5.0 7.25 Q4.35 7.8 4.1 8.55 L3.35 7.2 Q3.75 6.4 4.45 6.1 L5.0 6.05 6.65 6.25 7.1 6.45 7.35 6.35 8.8 5.65 9.7 4.85" fill="url(#gradient0)" fill-rule="evenodd" stroke="none"/>
    <path d="M10.65 8.1 L9.85 9.1 Q9.4 9.55 8.65 9.5 L7.05 9.35 Q6.35 9.25 5.7 9.7 L5.15 10.35 4.1 8.55 Q4.35 7.8 5.0 7.25 L6.55 7.05 7.2 7.15 7.8 7.25 8.35 6.75 8.7 6.5 9.85 5.1 Q10.6 6.45 10.65 8.1 M6.15 11.45 L6.95 10.4 7.65 10.2 9.65 9.55 10.65 8.9 Q10.55 10.7 9.7 12.75 9.05 13.95 9.1 15.2 8.5 13.45 7.05 12.25 L6.15 11.45 M6.25 1.55 Q6.15 2.35 5.4 2.7 4.6 3.1 3.85 2.95 L2.7 2.85 1.7 3.8 0.7 1.6 0.4 1.2 0.55 0.35 0.9 -0.15 Q3.55 0.0 5.95 1.35 L6.25 1.55 M2.4 5.25 Q3.35 5.35 3.7 4.4 L3.9 3.75 4.0 3.7 Q4.8 4.3 5.3 3.5 L6.15 2.45 6.4 1.6 7.25 2.2 Q8.75 3.3 9.65 4.7 L9.7 4.85 8.8 5.65 7.35 6.35 7.1 6.45 6.65 6.25 5.0 6.05 4.45 6.1 Q3.75 6.4 3.35 7.2 L2.4 5.25 M7.5 4.5 L7.75 4.6 Q7.65 3.85 7.0 3.85 L7.5 4.5 M3.25 1.0 Q3.3 1.5 3.75 1.1 3.95 1.0 3.55 0.95 L3.25 1.0 M9.2 7.15 Q8.7 7.45 9.3 7.7 L9.4 7.7 Q9.75 7.1 9.2 7.15" fill="url(#gradient1)" fill-rule="evenodd" stroke="none"/>
    <path d="M6.0 11.25 L6.15 11.45 7.05 12.25 Q8.5 13.45 9.1 15.2 9.1 16.15 9.5 17.2 10.75 20.65 10.95 24.3 8.35 18.45 6.35 12.3 L6.0 11.25" fill="url(#gradient2)" fill-rule="evenodd" stroke="none"/>
    <path d="M10.65 8.9 L10.65 8.1 9.85 9.1 Q9.4 9.55 8.65 9.5 L7.05 9.35 Q6.35 9.25 5.7 9.7 L5.15 10.35 6.0 11.25 6.15 11.45 6.95 10.4 7.65 10.2 9.65 9.55 10.65 8.9 Q10.55 10.7 9.7 12.75 9.05 13.95 9.1 15.2 9.1 16.15 9.5 17.2 10.75 20.65 10.95 24.3 8.35 18.45 6.35 12.3 L6.0 11.25 M6.4 1.6 L6.25 1.55 Q6.15 2.35 5.4 2.7 4.6 3.1 3.85 2.95 L2.7 2.85 1.7 3.8 2.4 5.25 Q3.35 5.35 3.7 4.4 L3.9 3.75 4.0 3.7 Q4.8 4.3 5.3 3.5 L6.15 2.45 6.4 1.6 7.25 2.2 Q8.75 3.3 9.65 4.7 L9.7 4.85 9.85 5.1 Q10.6 6.45 10.65 8.1 M6.25 1.55 L5.95 1.35 Q3.55 0.0 0.9 -0.15 L0.55 0.35 0.4 1.2 0.7 1.6 1.7 3.8 M7.5 4.5 L7.75 4.6 Q7.65 3.85 7.0 3.85 L7.5 4.5 M9.7 4.85 L8.8 5.65 7.35 6.35 7.1 6.45 6.65 6.25 5.0 6.05 4.45 6.1 Q3.75 6.4 3.35 7.2 L4.1 8.55 Q4.35 7.8 5.0 7.25 L6.55 7.05 7.2 7.15 7.8 7.25 8.35 6.75 8.7 6.5 9.85 5.1 M3.25 1.0 Q3.3 1.5 3.75 1.1 3.95 1.0 3.55 0.95 L3.25 1.0 M9.2 7.15 Q8.7 7.45 9.3 7.7 L9.4 7.7 Q9.75 7.1 9.2 7.15 M9.1 15.2 Q8.5 13.45 7.05 12.25 L6.15 11.45 M3.35 7.2 L2.4 5.25 M4.1 8.55 L5.15 10.35" fill="none" stroke="#000000" stroke-linecap="round" stroke-linejoin="round" stroke-width="0.05"/>
  </g>
  <defs>
    <linearGradient gradientTransform="matrix(0.0026, -0.0017, 0.0011, 0.0016, 3.25, 2.5)" gradientUnits="userSpaceOnUse" id="gradient0" spreadMethod="pad" x1="-819.2" x2="819.2">
      <stop offset="0.0" stop-color="#000000"/>
      <stop offset="0.49411764705882355" stop-color="#555555"/>
      <stop offset="1.0" stop-color="#000000"/>
    </linearGradient>
    <radialGradient cx="0" cy="0" gradientTransform="matrix(0.007, -0.0045, 0.0082, 0.0127, 4.45, 5.1)" gradientUnits="userSpaceOnUse" id="gradient1" r="819.2" spreadMethod="pad">
      <stop offset="0.0" stop-color="#e2eb3f"/>
      <stop offset="1.0" stop-color="#585321"/>
    </radialGradient>
    <linearGradient gradientTransform="matrix(0.0027, -0.0047, 0.0057, 0.0033, 8.55, 17.75)" gradientUnits="userSpaceOnUse" id="gradient2" spreadMethod="pad" x1="-819.2" x2="819.2">
      <stop offset="0.0" stop-color="#828282"/>
      <stop offset="0.4392156862745098" stop-color="#dddddd"/>
      <stop offset="0.6352941176470588" stop-color="#979797"/>
      <stop offset="1.0" stop-color="#ffffff"/>
    </linearGradient>
  </defs>
</svg>
