<?xml version="1.0" encoding="UTF-8" standalone="no"?>
<svg xmlns:xlink="http://www.w3.org/1999/xlink" height="24.05px" width="20.05px" xmlns="http://www.w3.org/2000/svg">
  <g transform="matrix(1.0, 0.0, 0.0, 1.0, 0.0, 0.0)">
    <path d="M7.6 -11.8 L9.15 -14.0 9.4 -14.5 10.25 -14.85 10.95 -14.8 Q12.3 -12.15 12.3 -9.05 L12.3 -8.65 10.7 -8.8 Q9.85 -9.35 9.55 -10.15 L9.05 -11.4 7.6 -11.8 M6.55 -10.3 Q6.95 -9.3 8.1 -9.55 L8.8 -9.7 8.9 -9.65 Q8.8 -8.5 9.85 -8.45 L11.35 -8.25 12.3 -8.45 12.2 -7.3 Q11.95 -5.2 11.1 -3.55 L11.0 -3.4 Q10.4 -3.45 9.75 -3.85 L8.2 -4.9 8.0 -5.1 7.9 -5.6 7.2 -7.35 6.85 -7.85 Q6.15 -8.35 5.2 -8.3 L6.55 -10.3 M2.6 -3.2 L4.05 -3.0 4.65 -2.45 Q5.35 -1.6 6.4 -0.85 L7.6 -0.2 Q5.8 0.7 3.25 1.0 1.8 1.05 0.6 1.8 2.0 0.25 2.3 -1.85 L2.6 -3.2 M8.4 -0.65 L6.9 -0.9 Q6.25 -1.1 5.9 -1.85 L5.15 -3.5 4.0 -4.6 3.1 -4.75 4.25 -6.8 6.0 -6.65 Q6.85 -6.3 7.1 -5.3 L7.35 -4.55 7.6 -3.95 Q7.9 -3.75 8.35 -3.7 L8.8 -3.5 10.85 -3.15 Q9.9 -1.65 8.4 -0.65 M8.0 -2.25 L8.05 -2.1 Q8.85 -2.1 8.45 -2.65 7.9 -2.95 8.0 -2.25 M11.15 -11.85 Q10.65 -11.5 11.3 -11.3 11.5 -11.15 11.35 -11.6 L11.15 -11.85 M10.45 -6.6 L10.1 -5.8 10.15 -5.45 Q10.85 -5.95 10.45 -6.6" fill="url(#gradient0)" fill-rule="evenodd" stroke="none"/>
    <path d="M2.7 -3.45 L2.6 -3.2 2.3 -1.85 Q2.0 0.25 0.6 1.8 -0.35 2.3 -1.1 3.25 -3.8 6.45 -7.25 8.7 -3.0 2.85 1.9 -2.55 L2.7 -3.45" fill="url(#gradient1)" fill-rule="evenodd" stroke="none"/>
    <path d="M8.0 -2.25 Q7.9 -2.95 8.45 -2.65 8.85 -2.1 8.05 -2.1 L8.0 -2.25 M10.45 -6.6 Q10.85 -5.95 10.15 -5.45 L10.1 -5.8 10.45 -6.6 M11.15 -11.85 L11.35 -11.6 Q11.5 -11.15 11.3 -11.3 10.65 -11.5 11.15 -11.85" fill="#000000" fill-rule="evenodd" stroke="none"/>
    <path d="M7.6 -11.8 L9.05 -11.4 9.55 -10.15 Q9.85 -9.35 10.7 -8.8 L12.3 -8.65 12.3 -8.45 11.35 -8.25 9.85 -8.45 Q8.8 -8.5 8.9 -9.65 L8.8 -9.7 8.1 -9.55 Q6.95 -9.3 6.55 -10.3 L7.6 -11.8 M5.2 -8.3 Q6.15 -8.35 6.85 -7.85 L7.2 -7.35 7.9 -5.6 8.0 -5.1 8.2 -4.9 9.75 -3.85 Q10.4 -3.45 11.0 -3.4 L10.85 -3.15 8.8 -3.5 8.35 -3.7 Q7.9 -3.75 7.6 -3.95 L7.35 -4.55 7.1 -5.3 Q6.85 -6.3 6.0 -6.65 L4.25 -6.8 5.2 -8.3 M7.6 -0.2 L6.4 -0.85 Q5.35 -1.6 4.65 -2.45 L4.05 -3.0 2.6 -3.2 2.7 -3.45 Q2.65 -3.85 3.1 -4.75 L4.0 -4.6 5.15 -3.5 5.9 -1.85 Q6.25 -1.1 6.9 -0.9 L8.4 -0.65 7.6 -0.2" fill="url(#gradient2)" fill-rule="evenodd" stroke="none"/>
    <path d="M12.3 -9.05 Q12.3 -12.15 10.95 -14.8 L10.25 -14.85 9.4 -14.5 9.15 -14.0 7.6 -11.8 6.55 -10.3 5.2 -8.3 4.25 -6.8 3.1 -4.75 Q2.65 -3.85 2.7 -3.45 L1.9 -2.55 Q-3.0 2.85 -7.25 8.7 -3.8 6.45 -1.1 3.25 -0.35 2.3 0.6 1.8 1.8 1.05 3.25 1.0 5.8 0.7 7.6 -0.2 L8.4 -0.65 Q9.9 -1.65 10.85 -3.15 L11.0 -3.4 M12.3 -8.45 L12.3 -8.65 M11.1 -3.55 Q11.95 -5.2 12.2 -7.3 L12.3 -8.45" fill="none" stroke="#000000" stroke-linecap="round" stroke-linejoin="round" stroke-width="0.5"/>
    <path d="M2.7 -3.45 L2.6 -3.2 2.3 -1.85 Q2.0 0.25 0.6 1.8" fill="none" stroke="#000000" stroke-linecap="round" stroke-linejoin="round" stroke-width="0.5"/>
    <path d="M7.6 -11.8 L9.05 -11.4 9.55 -10.15 Q9.85 -9.35 10.7 -8.8 L12.3 -8.65 12.3 -9.05 M6.55 -10.3 Q6.95 -9.3 8.1 -9.55 L8.8 -9.7 8.9 -9.65 Q8.8 -8.5 9.85 -8.45 L11.35 -8.25 12.3 -8.45 M5.2 -8.3 Q6.15 -8.35 6.85 -7.85 L7.2 -7.35 7.9 -5.6 8.0 -5.1 8.2 -4.9 9.75 -3.85 Q10.4 -3.45 11.0 -3.4 L11.1 -3.55 M2.6 -3.2 L4.05 -3.0 4.65 -2.45 Q5.35 -1.6 6.4 -0.85 L7.6 -0.2 M8.4 -0.65 L6.9 -0.9 Q6.25 -1.1 5.9 -1.85 L5.15 -3.5 4.0 -4.6 3.1 -4.75 M4.25 -6.8 L6.0 -6.65 Q6.85 -6.3 7.1 -5.3 L7.35 -4.55 7.6 -3.95 Q7.9 -3.75 8.35 -3.7 L8.8 -3.5 10.85 -3.15 M8.0 -2.25 L8.05 -2.1 Q8.85 -2.1 8.45 -2.65 7.9 -2.95 8.0 -2.25 M11.15 -11.85 Q10.65 -11.5 11.3 -11.3 11.5 -11.15 11.35 -11.6 L11.15 -11.85 M10.45 -6.6 L10.1 -5.8 10.15 -5.45 Q10.85 -5.95 10.45 -6.6 Z" fill="none" stroke="#000000" stroke-linecap="round" stroke-linejoin="round" stroke-width="0.05"/>
  </g>
  <defs>
    <radialGradient cx="0" cy="0" gradientTransform="matrix(0.0083, 0.0043, -0.0078, 0.0151, 7.8, -8.45)" gradientUnits="userSpaceOnUse" id="gradient0" r="819.2" spreadMethod="pad">
      <stop offset="0.0" stop-color="#e2eb3f"/>
      <stop offset="1.0" stop-color="#585321"/>
    </radialGradient>
    <linearGradient gradientTransform="matrix(0.0061, 0.0, 0.0, 0.0074, -2.25, 2.65)" gradientUnits="userSpaceOnUse" id="gradient1" spreadMethod="pad" x1="-819.2" x2="819.2">
      <stop offset="0.0" stop-color="#828282"/>
      <stop offset="0.4392156862745098" stop-color="#dddddd"/>
      <stop offset="0.6352941176470588" stop-color="#979797"/>
      <stop offset="1.0" stop-color="#ffffff"/>
    </linearGradient>
    <linearGradient gradientTransform="matrix(0.0031, 0.0016, -0.001, 0.0019, 9.7, -10.95)" gradientUnits="userSpaceOnUse" id="gradient2" spreadMethod="pad" x1="-819.2" x2="819.2">
      <stop offset="0.0" stop-color="#000000"/>
      <stop offset="0.49411764705882355" stop-color="#555555"/>
      <stop offset="1.0" stop-color="#000000"/>
    </linearGradient>
  </defs>
</svg>
