<?xml version="1.0" encoding="UTF-8" standalone="no"?>
<svg xmlns:xlink="http://www.w3.org/1999/xlink" height="24.05px" width="20.05px" xmlns="http://www.w3.org/2000/svg">
  <g transform="matrix(1.0, 0.0, 0.0, 1.0, 0.0, 0.0)">
    <path d="M2.7 -3.45 L2.3 -1.85 Q2.0 0.25 0.6 1.8 -0.35 2.3 -1.1 3.25 -3.8 6.45 -7.25 8.7 -3.0 2.85 1.9 -2.55 L2.7 -3.45" fill="url(#gradient0)" fill-rule="evenodd" stroke="none"/>
    <path d="M2.7 -3.45 Q2.55 -4.95 9.15 -14.0 L9.4 -14.5 10.25 -14.85 10.95 -14.8 Q11.9 -12.9 12.2 -10.7 L11.5 -10.05 11.45 -9.8 Q10.3 -9.15 8.95 -8.75 L8.7 -7.7 Q9.3 -8.2 10.2 -8.2 10.65 -4.95 8.15 -1.8 6.65 0.0 4.45 0.85 L3.25 1.0 Q1.8 1.05 0.6 1.8 2.0 0.25 2.3 -1.85 L2.7 -3.45" fill="url(#gradient1)" fill-rule="evenodd" stroke="none"/>
    <path d="M4.45 0.85 Q6.65 0.0 8.15 -1.8 10.65 -4.95 10.2 -8.2 9.3 -8.2 8.7 -7.7 L8.95 -8.75 Q10.3 -9.15 11.45 -9.8 L11.5 -10.05 12.2 -10.7 Q12.4 -9.1 12.2 -7.3 11.45 -0.55 4.45 0.85" fill="url(#gradient2)" fill-rule="evenodd" stroke="none"/>
    <path d="M12.2 -10.7 Q11.9 -12.9 10.95 -14.8 L10.25 -14.85 9.4 -14.5 9.15 -14.0 Q2.55 -4.95 2.7 -3.45 L2.3 -1.85 Q2.0 0.25 0.6 1.8 1.8 1.05 3.25 1.0 L4.45 0.85 Q11.45 -0.55 12.2 -7.3 12.4 -9.1 12.2 -10.7 M2.7 -3.45 L1.9 -2.55 Q-3.0 2.85 -7.25 8.7 -3.8 6.45 -1.1 3.25 -0.35 2.3 0.6 1.8" fill="none" stroke="#000000" stroke-linecap="round" stroke-linejoin="round" stroke-width="0.5"/>
    <path d="M4.45 0.85 Q6.65 0.0 8.15 -1.8 10.65 -4.95 10.2 -8.2 9.3 -8.2 8.7 -7.7 L8.95 -8.75 Q10.3 -9.15 11.45 -9.8 L11.5 -10.05 12.2 -10.7" fill="none" stroke="#000000" stroke-linecap="round" stroke-linejoin="round" stroke-width="0.05"/>
  </g>
  <defs>
    <linearGradient gradientTransform="matrix(0.0061, 0.0, 0.0, 0.0074, -2.25, 2.65)" gradientUnits="userSpaceOnUse" id="gradient0" spreadMethod="pad" x1="-819.2" x2="819.2">
      <stop offset="0.0" stop-color="#828282"/>
      <stop offset="0.4392156862745098" stop-color="#dddddd"/>
      <stop offset="0.6352941176470588" stop-color="#979797"/>
      <stop offset="1.0" stop-color="#ffffff"/>
    </linearGradient>
    <radialGradient cx="0" cy="0" gradientTransform="matrix(0.0083, 0.0043, -0.0078, 0.0151, 7.8, -8.45)" gradientUnits="userSpaceOnUse" id="gradient1" r="819.2" spreadMethod="pad">
      <stop offset="0.0" stop-color="#d81b1b"/>
      <stop offset="1.0" stop-color="#280202"/>
    </radialGradient>
    <linearGradient gradientTransform="matrix(0.0031, 0.0016, -0.001, 0.0019, 10.85, -11.05)" gradientUnits="userSpaceOnUse" id="gradient2" spreadMethod="pad" x1="-819.2" x2="819.2">
      <stop offset="0.0" stop-color="#000000"/>
      <stop offset="0.49411764705882355" stop-color="#555555"/>
      <stop offset="1.0" stop-color="#000000"/>
    </linearGradient>
  </defs>
</svg>
