<?xml version="1.0" encoding="UTF-8" standalone="no"?>
<svg xmlns:xlink="http://www.w3.org/1999/xlink" height="24.05px" width="20.05px" xmlns="http://www.w3.org/2000/svg">
  <g transform="matrix(1.0, 0.0, 0.0, 1.0, 0.0, 0.0)">
    <path d="M7.8 -12.1 L9.15 -14.0 9.4 -14.5 10.25 -14.85 10.95 -14.8 11.55 -13.45 Q10.8 -12.85 10.7 -11.9 10.8 -11.1 11.25 -10.4 11.2 -11.3 12.05 -11.6 L12.3 -8.9 11.75 -8.8 Q10.75 -8.8 9.7 -8.1 8.3 -7.3 7.7 -5.95 7.75 -5.4 7.95 -5.0 8.55 -4.55 9.1 -4.5 10.35 -4.65 10.9 -5.8 L10.65 -6.35 10.6 -6.4 9.6 -6.2 9.25 -5.65 9.65 -5.95 10.1 -5.85 10.05 -5.65 Q9.35 -4.75 8.55 -5.5 8.5 -6.35 9.4 -7.15 9.9 -7.6 10.55 -7.4 L12.2 -7.1 Q11.85 -4.45 10.55 -2.65 8.7 -4.0 6.45 -3.55 5.2 -3.4 4.3 -2.45 4.3 -1.9 4.45 -1.4 L4.75 -0.65 5.85 -0.4 6.7 -0.8 6.9 -1.05 7.0 -1.35 6.95 -1.5 6.9 -1.65 6.55 -1.35 6.45 -1.2 5.9 -1.1 5.3 -1.5 5.25 -2.25 Q6.95 -4.0 8.85 -2.25 L9.55 -1.55 Q7.3 0.5 3.25 1.0 1.8 1.05 0.6 1.8 2.0 0.25 2.3 -1.85 L2.7 -3.45 Q2.65 -4.05 3.75 -5.95 4.45 -6.65 5.4 -6.5 L5.65 -6.45 5.7 -6.45 5.85 -5.7 Q5.5 -5.0 4.9 -4.6 L4.15 -4.5 4.2 -4.45 4.9 -4.35 5.8 -4.6 Q6.75 -5.0 7.1 -6.0 7.0 -6.6 6.5 -7.0 L4.4 -7.05 7.15 -11.15 8.8 -11.25 9.15 -10.7 9.5 -9.8 8.7 -8.5 Q7.35 -8.15 7.3 -8.9 L7.45 -9.0 8.15 -9.45 8.2 -9.5 8.6 -9.5 8.0 -9.7 7.1 -9.4 Q6.45 -9.0 6.25 -8.3 L6.5 -7.75 7.25 -7.65 Q9.6 -7.65 10.15 -10.1 L9.65 -11.75 8.9 -11.9 7.8 -12.1" fill="url(#gradient0)" fill-rule="evenodd" stroke="none"/>
    <path d="M11.55 -13.45 L12.05 -11.6 Q11.2 -11.3 11.25 -10.4 10.8 -11.1 10.7 -11.9 10.8 -12.85 11.55 -13.45 M12.3 -8.9 L12.2 -7.3 12.2 -7.1 10.55 -7.4 Q9.9 -7.6 9.4 -7.15 8.5 -6.35 8.55 -5.5 9.35 -4.75 10.05 -5.65 L10.1 -5.85 9.65 -5.95 9.25 -5.65 9.6 -6.2 10.6 -6.4 10.65 -6.35 10.9 -5.8 Q10.35 -4.65 9.1 -4.5 8.55 -4.55 7.95 -5.0 7.75 -5.4 7.7 -5.95 8.3 -7.3 9.7 -8.1 10.75 -8.8 11.75 -8.8 L12.3 -8.9 M10.55 -2.65 L9.55 -1.55 8.85 -2.25 Q6.95 -4.0 5.25 -2.25 L5.3 -1.5 5.9 -1.1 6.45 -1.2 6.55 -1.35 6.9 -1.65 6.95 -1.5 7.0 -1.35 6.9 -1.05 6.7 -0.8 5.85 -0.4 4.75 -0.65 4.45 -1.4 Q4.3 -1.9 4.3 -2.45 5.2 -3.4 6.45 -3.55 8.7 -4.0 10.55 -2.65 M3.75 -5.95 L4.4 -7.05 6.5 -7.0 Q7.0 -6.6 7.1 -6.0 6.75 -5.0 5.8 -4.6 L4.9 -4.35 4.2 -4.45 4.15 -4.5 4.9 -4.6 Q5.5 -5.0 5.85 -5.7 L5.7 -6.45 5.65 -6.45 5.4 -6.5 Q4.45 -6.65 3.75 -5.95 M7.15 -11.15 L7.8 -12.1 8.9 -11.9 9.65 -11.75 10.15 -10.1 Q9.6 -7.65 7.25 -7.65 L6.5 -7.75 6.25 -8.3 Q6.45 -9.0 7.1 -9.4 L8.0 -9.7 8.6 -9.5 8.2 -9.5 8.15 -9.45 7.45 -9.0 7.3 -8.9 Q7.35 -8.15 8.7 -8.5 L9.5 -9.8 9.15 -10.7 8.8 -11.25 7.15 -11.15" fill="url(#gradient1)" fill-rule="evenodd" stroke="none"/>
    <path d="M0.6 1.8 Q-0.35 2.3 -1.1 3.25 -3.8 6.45 -7.25 8.7 -3.0 2.85 1.9 -2.55 L2.7 -3.45 2.3 -1.85 Q2.0 0.25 0.6 1.8" fill="url(#gradient2)" fill-rule="evenodd" stroke="none"/>
    <path d="M7.8 -12.1 L9.15 -14.0 9.4 -14.5 10.25 -14.85 10.95 -14.8 11.55 -13.45 12.05 -11.6 12.3 -8.9 12.2 -7.3 12.2 -7.1 Q11.85 -4.45 10.55 -2.65 L9.55 -1.55 Q7.3 0.5 3.25 1.0 1.8 1.05 0.6 1.8 -0.35 2.3 -1.1 3.25 -3.8 6.45 -7.25 8.7 -3.0 2.85 1.9 -2.55 L2.7 -3.45 Q2.65 -4.05 3.75 -5.95 L4.4 -7.05 7.15 -11.15 7.8 -12.1 M0.6 1.8 Q2.0 0.25 2.3 -1.85 L2.7 -3.45" fill="none" stroke="#000000" stroke-linecap="round" stroke-linejoin="round" stroke-width="0.5"/>
    <path d="M7.8 -12.1 L8.9 -11.9 9.65 -11.75 10.15 -10.1 Q9.6 -7.65 7.25 -7.65 L6.5 -7.75 6.25 -8.3 Q6.45 -9.0 7.1 -9.4 L8.0 -9.7 8.6 -9.5 8.2 -9.5 8.15 -9.45 7.45 -9.0 7.3 -8.9 Q7.35 -8.15 8.7 -8.5 L9.5 -9.8 9.15 -10.7 8.8 -11.25 7.15 -11.15 M3.75 -5.95 Q4.45 -6.65 5.4 -6.5 L5.65 -6.45 5.7 -6.45 5.85 -5.7 Q5.5 -5.0 4.9 -4.6 L4.15 -4.5 4.2 -4.45 4.9 -4.35 5.8 -4.6 Q6.75 -5.0 7.1 -6.0 7.0 -6.6 6.5 -7.0 L4.4 -7.05 M10.55 -2.65 Q8.7 -4.0 6.45 -3.55 5.2 -3.4 4.3 -2.45 4.3 -1.9 4.45 -1.4 L4.75 -0.65 5.85 -0.4 6.7 -0.8 6.9 -1.05 7.0 -1.35 6.95 -1.5 6.9 -1.65 6.55 -1.35 6.45 -1.2 5.9 -1.1 5.3 -1.5 5.25 -2.25 Q6.95 -4.0 8.85 -2.25 L9.55 -1.55 M12.3 -8.9 L11.75 -8.8 Q10.75 -8.8 9.7 -8.1 8.3 -7.3 7.7 -5.95 7.75 -5.4 7.95 -5.0 8.55 -4.55 9.1 -4.5 10.35 -4.65 10.9 -5.8 L10.65 -6.35 10.6 -6.4 9.6 -6.2 9.25 -5.65 9.65 -5.95 10.1 -5.85 10.05 -5.65 Q9.35 -4.75 8.55 -5.5 8.5 -6.35 9.4 -7.15 9.9 -7.6 10.55 -7.4 L12.2 -7.1 M11.55 -13.45 Q10.8 -12.85 10.7 -11.9 10.8 -11.1 11.25 -10.4 11.2 -11.3 12.05 -11.6" fill="none" stroke="#000000" stroke-linecap="round" stroke-linejoin="round" stroke-width="0.05"/>
  </g>
  <defs>
    <radialGradient cx="0" cy="0" gradientTransform="matrix(0.0083, 0.0043, -0.0078, 0.0151, 7.8, -8.45)" gradientUnits="userSpaceOnUse" id="gradient0" r="819.2" spreadMethod="pad">
      <stop offset="0.0" stop-color="#24aa24"/>
      <stop offset="1.0" stop-color="#172813"/>
    </radialGradient>
    <linearGradient gradientTransform="matrix(0.0031, 0.0016, -0.001, 0.0019, 9.7, -10.95)" gradientUnits="userSpaceOnUse" id="gradient1" spreadMethod="pad" x1="-819.2" x2="819.2">
      <stop offset="0.0" stop-color="#000000"/>
      <stop offset="0.49411764705882355" stop-color="#555555"/>
      <stop offset="1.0" stop-color="#000000"/>
    </linearGradient>
    <linearGradient gradientTransform="matrix(-0.0039, 0.0046, -0.0056, -0.0048, -2.25, 2.55)" gradientUnits="userSpaceOnUse" id="gradient2" spreadMethod="pad" x1="-819.2" x2="819.2">
      <stop offset="0.0" stop-color="#000000"/>
      <stop offset="1.0" stop-color="#51750b"/>
    </linearGradient>
  </defs>
</svg>
