<?xml version="1.0" encoding="UTF-8" standalone="no"?>
<svg xmlns:xlink="http://www.w3.org/1999/xlink" height="24.05px" width="20.05px" xmlns="http://www.w3.org/2000/svg">
  <g transform="matrix(1.0, 0.0, 0.0, 1.0, 0.0, 0.0)">
    <path d="M2.7 -3.45 Q2.55 -4.95 9.15 -14.0 L9.4 -14.5 10.25 -14.85 10.95 -14.8 Q12.6 -11.5 12.25 -7.45 L12.2 -7.3 12.0 -6.15 11.9 -6.2 9.9 -6.1 Q8.9 -5.65 8.55 -4.65 8.2 -3.65 8.65 -2.65 8.95 -1.95 9.55 -1.55 L8.55 -0.75 Q6.45 0.6 3.25 1.0 1.8 1.05 0.6 1.8 2.0 0.25 2.3 -1.85 L2.7 -3.45 M8.55 -0.75 Q7.85 -1.3 7.45 -2.15 6.75 -3.65 7.25 -5.15 7.8 -6.6 9.25 -7.3 L12.25 -7.45 9.25 -7.3 Q7.8 -6.6 7.25 -5.15 6.75 -3.65 7.45 -2.15 7.85 -1.3 8.55 -0.75" fill="url(#gradient0)" fill-rule="evenodd" stroke="none"/>
    <path d="M12.0 -6.15 Q11.4 -3.3 9.55 -1.55 8.95 -1.95 8.65 -2.65 8.2 -3.65 8.55 -4.65 8.9 -5.65 9.9 -6.1 L11.9 -6.2 12.0 -6.15 M0.6 1.8 Q-0.35 2.3 -1.1 3.25 -3.8 6.45 -7.25 8.7 -3.0 2.85 1.9 -2.55 L2.7 -3.45 2.3 -1.85 Q2.0 0.25 0.6 1.8" fill="#000000" fill-rule="evenodd" stroke="none"/>
    <path d="M2.7 -3.45 Q2.55 -4.95 9.15 -14.0 L9.4 -14.5 10.25 -14.85 10.95 -14.8 Q12.6 -11.5 12.25 -7.45 L12.2 -7.3 12.0 -6.15 Q11.4 -3.3 9.55 -1.55 L8.55 -0.75 Q6.45 0.6 3.25 1.0 1.8 1.05 0.6 1.8 -0.35 2.3 -1.1 3.25 -3.8 6.45 -7.25 8.7 -3.0 2.85 1.9 -2.55 L2.7 -3.45 2.3 -1.85 Q2.0 0.25 0.6 1.8 M9.55 -1.55 Q8.95 -1.95 8.65 -2.65 8.2 -3.65 8.55 -4.65 8.9 -5.65 9.9 -6.1 L11.9 -6.2 12.0 -6.15" fill="none" stroke="#000000" stroke-linecap="round" stroke-linejoin="round" stroke-width="0.5"/>
    <path d="M12.25 -7.45 L9.25 -7.3 Q7.8 -6.6 7.25 -5.15 6.75 -3.65 7.45 -2.15 7.85 -1.3 8.55 -0.75" fill="none" stroke="#000000" stroke-linecap="round" stroke-linejoin="round" stroke-width="0.5"/>
  </g>
  <defs>
    <radialGradient cx="0" cy="0" gradientTransform="matrix(0.0083, 0.0043, -0.0078, 0.0151, 7.8, -8.45)" gradientUnits="userSpaceOnUse" id="gradient0" r="819.2" spreadMethod="pad">
      <stop offset="0.0" stop-color="#282257"/>
      <stop offset="1.0" stop-color="#0b0a21"/>
    </radialGradient>
  </defs>
</svg>
