<?xml version="1.0" encoding="UTF-8" standalone="no"?>
<svg xmlns:xlink="http://www.w3.org/1999/xlink" height="23.8px" width="19.8px" xmlns="http://www.w3.org/2000/svg">
  <g transform="matrix(1.0, 0.0, 0.0, 1.0, 0.0, 0.0)">
    <path d="M2.7 -3.45 Q2.55 -4.95 9.15 -14.0 L9.4 -14.5 10.25 -14.85 10.95 -14.8 Q12.35 -12.0 12.3 -8.65 L12.25 -7.6 12.25 -7.45 12.2 -7.3 12.15 -6.75 12.0 -6.15 Q11.55 -3.95 10.35 -2.45 L10.3 -2.4 9.55 -1.55 9.0 -1.1 8.55 -0.75 Q6.45 0.6 3.25 1.0 1.8 1.05 0.6 1.8 2.0 0.25 2.3 -1.85 L2.7 -3.45 M10.3 -2.4 L10.35 -2.45 10.0 -2.55 Q9.25 -2.8 8.85 -3.5 L8.7 -3.8 Q8.3 -4.7 8.6 -5.6 L8.7 -5.85 6.9 -6.5 6.8 -6.3 Q6.2 -4.65 6.9 -3.15 L7.15 -2.75 Q7.8 -1.65 9.0 -1.1 7.8 -1.65 7.15 -2.75 L6.9 -3.15 Q6.2 -4.65 6.8 -6.3 L6.9 -6.5 Q7.55 -7.95 8.95 -8.65 L9.25 -8.75 Q10.65 -9.3 12.1 -8.75 L12.3 -8.65 12.1 -8.75 Q10.65 -9.3 9.25 -8.75 L8.95 -8.65 Q7.55 -7.95 6.9 -6.5 L8.7 -5.85 9.8 -6.9 10.1 -7.0 9.25 -8.75 10.1 -7.0 9.8 -6.9 8.7 -5.85 8.6 -5.6 Q8.3 -4.7 8.7 -3.8 L8.85 -3.5 Q9.25 -2.8 10.0 -2.55 L10.35 -2.45 10.3 -2.4 M12.15 -6.75 L11.95 -6.85 11.6 -7.0 Q10.85 -7.25 10.1 -7.0 10.85 -7.25 11.6 -7.0 L11.95 -6.85 12.15 -6.75 M7.15 -2.75 L8.85 -3.5 7.15 -2.75" fill="url(#gradient0)" fill-rule="evenodd" stroke="none"/>
    <path d="M0.6 1.8 Q-0.35 2.3 -1.1 3.25 -3.8 6.45 -7.25 8.7 -3.0 2.85 1.9 -2.55 L2.7 -3.45 2.3 -1.85 Q2.0 0.25 0.6 1.8" fill="#ffffff" fill-opacity="0.6" fill-rule="evenodd" stroke="none"/>
    <path d="M0.6 1.8 Q-0.35 2.3 -1.1 3.25 -3.8 6.45 -7.25 8.7 -3.0 2.85 1.9 -2.55 L2.7 -3.45 2.3 -1.85 Q2.0 0.25 0.6 1.8" fill="none" stroke="#36d7fe" stroke-linecap="round" stroke-linejoin="round" stroke-opacity="0.2509804" stroke-width="0.05"/>
    <path d="M2.7 -3.45 Q2.55 -4.95 9.15 -14.0 L9.4 -14.5 10.25 -14.85 10.95 -14.8 Q12.35 -12.0 12.3 -8.65 L12.25 -7.6 12.25 -7.45 12.2 -7.3 12.15 -6.75 12.0 -6.15 Q11.55 -3.95 10.35 -2.45 L10.3 -2.4 9.55 -1.55 9.0 -1.1 8.55 -0.75 Q6.45 0.6 3.25 1.0 1.8 1.05 0.6 1.8" fill="none" stroke="#666666" stroke-linecap="round" stroke-linejoin="round" stroke-width="0.5"/>
    <path d="M9.0 -1.1 Q7.8 -1.65 7.15 -2.75 L6.9 -3.15 Q6.2 -4.65 6.8 -6.3 L6.9 -6.5 Q7.55 -7.95 8.95 -8.65 L9.25 -8.75 Q10.65 -9.3 12.1 -8.75 L12.3 -8.65 M6.9 -6.5 L8.7 -5.85 9.8 -6.9 10.1 -7.0 9.25 -8.75 M8.7 -5.85 L8.6 -5.6 Q8.3 -4.7 8.7 -3.8 L8.85 -3.5 Q9.25 -2.8 10.0 -2.55 L10.35 -2.45 10.3 -2.4 M8.85 -3.5 L7.15 -2.75 M10.1 -7.0 Q10.85 -7.25 11.6 -7.0 L11.95 -6.85 12.15 -6.75" fill="none" stroke="#ffffff" stroke-linecap="round" stroke-linejoin="round" stroke-width="0.5"/>
  </g>
  <defs>
    <radialGradient cx="0" cy="0" gradientTransform="matrix(0.0083, 0.0043, -0.0078, 0.0151, 7.8, -8.45)" gradientUnits="userSpaceOnUse" id="gradient0" r="819.2" spreadMethod="pad">
      <stop offset="0.0" stop-color="#ececec"/>
      <stop offset="1.0" stop-color="#858c92"/>
    </radialGradient>
  </defs>
</svg>
