<?xml version="1.0" encoding="UTF-8" standalone="no"?>
<svg xmlns:xlink="http://www.w3.org/1999/xlink" height="20.95px" width="26.65px" xmlns="http://www.w3.org/2000/svg">
  <g transform="matrix(1.0, 0.0, 0.0, 1.0, 0.0, 0.0)">
    <path d="M0.6 1.75 L-1.1 1.9 -0.45 4.6 Q-2.9 5.75 -5.65 5.65 L-9.75 4.95 Q-11.65 4.4 -13.1 3.25 L-13.8 2.7 Q-11.35 3.7 -8.55 3.75 -6.4 3.95 -4.8 3.75 L-2.5 3.35 -2.75 2.35 -3.9 0.8 2.05 -0.7 2.45 -0.3 Q2.85 0.1 0.65 1.75 L0.6 1.75" fill="url(#gradient0)" fill-rule="evenodd" stroke="none"/>
    <path d="M6.75 -10.45 L8.7 -13.35 9.4 -14.5 10.95 -14.8 Q12.55 -11.75 12.35 -8.25 12.3 -6.75 11.85 -5.35 L11.85 -5.3 11.9 -5.1 11.75 -5.0 Q10.1 -5.45 8.3 -6.25 L7.5 -6.0 8.5 -7.4 9.15 -8.0 9.0 -8.4 Q8.4 -9.75 6.75 -10.45 M11.7 -4.9 Q10.85 -2.45 8.85 -0.95 L7.25 -1.5 Q5.85 -2.1 4.5 -1.9 4.1 -2.7 4.65 -3.8 L4.3 -4.05 2.9 -4.35 Q3.5 -5.85 5.9 -9.35 7.2 -9.4 8.0 -8.55 L8.15 -8.4 Q7.05 -7.55 6.4 -6.35 L6.0 -5.2 5.95 -4.05 Q7.5 -6.05 9.9 -5.3 10.75 -4.95 11.7 -4.9 M8.35 -0.65 Q6.35 0.65 3.25 1.0 1.8 1.05 0.65 1.75 L0.65 1.8 0.6 1.75 0.65 1.75 Q2.85 0.1 2.45 -0.3 L2.05 -0.7 2.25 -1.6 2.3 -1.8 2.3 -1.85 2.7 -3.45 2.7 -3.65 3.85 -3.5 4.05 -0.65 Q4.15 -0.3 5.25 -0.85 L6.5 -1.05 7.75 -0.75 8.35 -0.65 M11.85 -5.3 L11.75 -5.0 11.85 -5.3 11.8 -5.35 11.85 -5.35 11.8 -5.35 11.85 -5.3" fill="url(#gradient1)" fill-rule="evenodd" stroke="none"/>
    <path d="M11.75 -5.0 L11.7 -4.9 Q10.75 -4.95 9.9 -5.3 7.5 -6.05 5.95 -4.05 L6.0 -5.2 6.4 -6.35 Q7.05 -7.55 8.15 -8.4 L8.0 -8.55 Q7.2 -9.4 5.9 -9.35 L6.75 -10.45 Q8.4 -9.75 9.0 -8.4 L9.15 -8.0 8.5 -7.4 7.5 -6.0 8.3 -6.25 Q10.1 -5.45 11.75 -5.0 M8.85 -0.95 L8.35 -0.65 7.75 -0.75 6.5 -1.05 5.25 -0.85 Q4.15 -0.3 4.05 -0.65 L3.85 -3.5 2.7 -3.65 2.9 -4.35 4.3 -4.05 4.65 -3.8 Q4.1 -2.7 4.5 -1.9 5.85 -2.1 7.25 -1.5 L8.85 -0.95" fill="url(#gradient2)" fill-rule="evenodd" stroke="none"/>
    <path d="M6.75 -10.45 L8.7 -13.35 9.4 -14.5 10.95 -14.8 Q12.55 -11.75 12.35 -8.25 12.3 -6.75 11.85 -5.35 L11.85 -5.3 11.75 -5.0 11.7 -4.9 Q10.85 -2.45 8.85 -0.95 L8.35 -0.65 Q6.35 0.65 3.25 1.0 1.8 1.05 0.65 1.75 L0.65 1.8 M0.6 1.75 L-1.1 1.9 -0.45 4.6 Q-2.9 5.75 -5.65 5.65 L-9.75 4.95 Q-11.65 4.4 -13.1 3.25 L-13.8 2.7 Q-11.35 3.7 -8.55 3.75 -6.4 3.95 -4.8 3.75 L-2.5 3.35 -2.75 2.35 -3.9 0.8 2.05 -0.7 2.25 -1.6 2.3 -1.8 2.3 -1.85 2.7 -3.45 2.7 -3.65 2.9 -4.35 Q3.5 -5.85 5.9 -9.35 L6.75 -10.45 M0.6 1.75 L0.65 1.75 Q2.85 0.1 2.45 -0.3 L2.05 -0.7" fill="none" stroke="#000000" stroke-linecap="round" stroke-linejoin="round" stroke-width="0.5"/>
    <path d="M11.85 -5.3 L11.9 -5.1 11.75 -5.0 Q10.1 -5.45 8.3 -6.25 L7.5 -6.0 8.5 -7.4 9.15 -8.0 9.0 -8.4 Q8.4 -9.75 6.75 -10.45 M11.85 -5.3 L11.8 -5.35 11.85 -5.35 M5.9 -9.35 Q7.2 -9.4 8.0 -8.55 L8.15 -8.4 Q7.05 -7.55 6.4 -6.35 L6.0 -5.2 5.95 -4.05 Q7.5 -6.05 9.9 -5.3 10.75 -4.95 11.7 -4.9 M8.35 -0.65 L7.75 -0.75 6.5 -1.05 5.25 -0.85 Q4.15 -0.3 4.05 -0.65 L3.85 -3.5 2.7 -3.65 M2.9 -4.35 L4.3 -4.05 4.65 -3.8 Q4.1 -2.7 4.5 -1.9 5.85 -2.1 7.25 -1.5 L8.85 -0.95" fill="none" stroke="#000000" stroke-linecap="round" stroke-linejoin="round" stroke-width="0.05"/>
  </g>
  <defs>
    <linearGradient gradientTransform="matrix(0.0061, 0.0, 0.0, 0.0074, -2.25, 2.65)" gradientUnits="userSpaceOnUse" id="gradient0" spreadMethod="pad" x1="-819.2" x2="819.2">
      <stop offset="0.0" stop-color="#b1b182"/>
      <stop offset="0.4392156862745098" stop-color="#ffffdd"/>
      <stop offset="0.6352941176470588" stop-color="#b4bb97"/>
      <stop offset="1.0" stop-color="#ffffed"/>
    </linearGradient>
    <radialGradient cx="0" cy="0" gradientTransform="matrix(0.0083, 0.0043, -0.0078, 0.0151, 7.8, -8.45)" gradientUnits="userSpaceOnUse" id="gradient1" r="819.2" spreadMethod="pad">
      <stop offset="0.0" stop-color="#f1f187"/>
      <stop offset="1.0" stop-color="#585321"/>
    </radialGradient>
    <linearGradient gradientTransform="matrix(0.0031, 0.0016, -0.001, 0.0019, 9.7, -10.95)" gradientUnits="userSpaceOnUse" id="gradient2" spreadMethod="pad" x1="-819.2" x2="819.2">
      <stop offset="0.0" stop-color="#000000"/>
      <stop offset="0.49411764705882355" stop-color="#d1d1d1"/>
      <stop offset="1.0" stop-color="#000000"/>
    </linearGradient>
  </defs>
</svg>
