<?xml version="1.0" encoding="UTF-8" standalone="no"?>
<svg xmlns:xlink="http://www.w3.org/1999/xlink" height="4.55px" width="8.4px" xmlns="http://www.w3.org/2000/svg">
  <g transform="matrix(1.0, 0.0, 0.0, 1.0, 0.0, 0.0)">
    <path d="M0.6 -0.25 Q0.15 0.85 -0.5 0.35 -0.7 0.2 -0.85 0.15 -3.95 0.45 -4.85 2.4 -5.0 1.1 -4.15 0.15 -3.35 -0.85 -2.65 -1.1 L-1.15 -1.75 0.3 -2.15 Q1.1 -1.9 0.85 -1.7 L0.6 -0.25 0.85 -1.7 1.75 -1.9 2.6 -1.85 3.1 -1.65 3.45 -0.85 Q3.75 -0.4 3.1 -0.45 2.6 -0.2 2.45 -0.7 2.3 -1.2 1.95 -1.1 L0.6 -0.25 M-2.5 -0.4 L-0.15 -1.4 0.1 -1.2 Q0.75 -0.2 -0.3 -0.35 0.75 -0.2 0.1 -1.2 L-0.15 -1.4 -2.5 -0.4" fill="#333333" fill-rule="evenodd" stroke="none"/>
    <path d="M0.85 -1.7 Q1.1 -1.9 0.3 -2.15 L-1.15 -1.75 -2.65 -1.1 Q-3.35 -0.85 -4.15 0.15 -5.0 1.1 -4.85 2.4 -3.95 0.45 -0.85 0.15 -0.7 0.2 -0.5 0.35 0.15 0.85 0.6 -0.25 L0.85 -1.7 1.75 -1.9 2.6 -1.85 3.1 -1.65 3.45 -0.85 Q3.75 -0.4 3.1 -0.45 2.6 -0.2 2.45 -0.7 2.3 -1.2 1.95 -1.1 L0.6 -0.25 M-0.3 -0.35 Q0.75 -0.2 0.1 -1.2 L-0.15 -1.4 -2.5 -0.4" fill="none" stroke="#000000" stroke-linecap="round" stroke-linejoin="round" stroke-width="0.05"/>
  </g>
</svg>
