<?xml version="1.0" encoding="UTF-8" standalone="no"?>
<svg xmlns:xlink="http://www.w3.org/1999/xlink" height="11.15px" width="17.1px" xmlns="http://www.w3.org/2000/svg">
  <g transform="matrix(1.0, 0.0, 0.0, 1.0, 0.0, 0.0)">
    <path d="M1.9 -0.3 L0.2 -0.45 Q-1.65 0.55 -2.4 2.35 L-2.45 3.05 -3.95 3.45 -4.15 2.55 -4.1 1.25 -4.0 0.05 Q-3.8 -0.95 -2.85 -2.15 L-2.65 -2.5 Q-2.45 -3.0 -1.8 -2.8 L-1.6 -2.8 Q-0.55 -2.95 0.6 -2.3 L0.65 -2.25 2.25 -0.65 1.9 -0.3 M0.1 -1.8 L0.6 -2.3 0.1 -1.8 M-1.95 -2.25 L-1.8 -2.8 -1.95 -2.25" fill="#333333" fill-rule="evenodd" stroke="none"/>
    <path d="M-2.45 3.05 L-2.4 2.35 Q-1.65 0.55 0.2 -0.45 L1.9 -0.3 2.25 0.15 2.25 0.6 Q1.6 3.55 -1.6 3.2 L-1.8 3.1 -2.45 3.05" fill="url(#gradient0)" fill-rule="evenodd" stroke="none"/>
    <path d="M-4.1 1.25 Q-4.6 0.8 -4.55 0.05 L-4.4 -0.65 Q-4.0 -1.95 -2.85 -2.15 -3.8 -0.95 -4.0 0.05 L-4.1 1.25" fill="url(#gradient1)" fill-rule="evenodd" stroke="none"/>
    <path d="M0.6 -2.3 L2.45 -4.6 4.55 -6.75 5.5 -7.2 7.25 -6.55 8.9 -4.55 Q9.95 -2.95 8.6 -1.1 7.25 0.7 5.95 0.95 L5.3 0.75 4.7 0.4 4.5 -0.8 4.5 -1.55 4.95 -2.1 5.6 -2.55 6.2 -1.95 Q6.5 -1.6 6.15 -1.25 L5.95 -1.05 M-2.45 3.05 L-2.4 2.35 Q-1.65 0.55 0.2 -0.45 L1.9 -0.3 2.25 -0.65 0.65 -2.25 0.6 -2.3 0.1 -1.8 M1.9 -0.3 L2.25 0.15 2.25 0.6 Q1.6 3.55 -1.6 3.2 L-1.8 3.1 -2.45 3.05 -3.95 3.45 -4.15 2.55 -4.1 1.25 Q-4.6 0.8 -4.55 0.05 L-4.4 -0.65 Q-4.0 -1.95 -2.85 -2.15 L-2.65 -2.5 Q-2.45 -3.0 -1.8 -2.8 L-1.1 -4.6 Q-0.7 -5.75 -0.75 -6.65 -0.8 -7.55 -1.8 -7.7 L-4.2 -7.7 Q-6.55 -7.2 -7.45 -5.0 -8.1 -3.55 -7.3 -2.1 L-4.9 -2.2 -4.3 -2.65 -3.95 -3.9 -4.2 -4.15 -4.75 -4.15 -4.95 -4.0 -5.15 -3.7 M-1.8 -2.8 L-1.6 -2.8 Q-0.55 -2.95 0.6 -2.3 M-1.8 -2.8 L-1.95 -2.25 M-2.85 -2.15 Q-3.8 -0.95 -4.0 0.05 L-4.1 1.25" fill="none" stroke="#000000" stroke-linecap="round" stroke-linejoin="round" stroke-width="0.05"/>
  </g>
  <defs>
    <radialGradient cx="0" cy="0" gradientTransform="matrix(0.0037, 0.0, 0.0, 0.0037, -0.1, 1.3)" gradientUnits="userSpaceOnUse" id="gradient0" r="819.2" spreadMethod="pad">
      <stop offset="0.0" stop-color="#89df55"/>
      <stop offset="0.2" stop-color="#1f4723"/>
      <stop offset="1.0" stop-color="#000000"/>
    </radialGradient>
    <radialGradient cx="0" cy="0" gradientTransform="matrix(0.0029, 0.0, 0.0, 0.0029, -3.85, -0.65)" gradientUnits="userSpaceOnUse" id="gradient1" r="819.2" spreadMethod="pad">
      <stop offset="0.0" stop-color="#89df55"/>
      <stop offset="0.2" stop-color="#1f4723"/>
      <stop offset="1.0" stop-color="#000000"/>
    </radialGradient>
  </defs>
</svg>
