<?xml version="1.0" encoding="UTF-8" standalone="no"?>
<svg xmlns:xlink="http://www.w3.org/1999/xlink" height="13.95px" width="11.75px" xmlns="http://www.w3.org/2000/svg">
  <g transform="matrix(1.0, 0.0, 0.0, 1.0, 0.0, 0.0)">
    <path d="M-3.45 4.6 L-3.75 4.9 Q-4.5 4.0 -4.8 2.75 -5.35 0.75 -5.1 -1.45 -4.95 -3.15 -3.5 -4.0 L-1.5 -5.25 Q-0.15 -5.95 0.5 -7.35 L0.6 -7.6 Q0.8 -8.65 1.5 -9.05 L1.9 -8.5 1.7 -8.05 Q1.35 -7.2 1.6 -6.35 L3.4 -5.05 Q4.85 -4.15 5.7 -2.75 5.85 -1.7 5.25 -0.8 4.25 0.65 2.85 1.3 L-1.95 2.9 -3.45 4.6 M1.75 -0.55 L-0.3 0.2 -0.75 -0.35 -0.8 -0.9 -3.1 0.1 -2.25 -1.95 -2.05 -2.05 Q-0.9 -2.75 0.15 -2.35 L1.1 -1.9 1.35 -2.1 Q2.3 -2.7 2.5 -3.5 2.3 -2.7 1.35 -2.1 L1.1 -1.9 0.15 -2.35 Q-0.9 -2.75 -2.05 -2.05 L-2.25 -1.95 -3.1 0.1 -0.8 -0.9 -0.75 -0.35 -0.3 0.2 1.75 -0.55 M-3.5 0.0 L-4.25 -1.65 -3.5 0.0 M-3.1 0.1 L-3.45 2.4 -3.1 0.1 M-2.6 -2.25 L-3.4 -3.45 -2.6 -2.25 M0.05 -5.3 Q-0.6 -3.65 -2.0 -2.25 L-2.25 -1.95 -2.0 -2.25 Q-0.6 -3.65 0.05 -5.3" fill="#396020" fill-rule="evenodd" stroke="none"/>
    <path d="M2.85 1.3 Q4.25 0.65 5.25 -0.8 5.85 -1.7 5.7 -2.75 L6.5 -3.35 6.55 -2.1 Q6.55 -1.45 6.15 -1.1 L6.35 -1.15 Q6.7 -1.45 6.15 -0.4 5.35 1.15 3.75 2.2 L6.0 2.0 4.95 2.95 Q2.45 4.2 -0.05 4.2 L-3.55 4.8 -3.45 4.6 -1.3 4.15 Q-0.05 3.95 1.05 3.3 2.3 2.6 2.85 1.3" fill="#003300" fill-rule="evenodd" stroke="none"/>
    <path d="M-3.45 4.6 L-1.95 2.9 2.85 1.3 Q2.3 2.6 1.05 3.3 -0.05 3.95 -1.3 4.15 L-3.45 4.6" fill="url(#gradient0)" fill-rule="evenodd" stroke="none"/>
    <path d="M5.7 -2.75 Q4.85 -4.15 3.4 -5.05 L1.6 -6.35 Q1.35 -7.2 1.7 -8.05 L1.9 -8.5 1.5 -9.05 Q0.8 -8.65 0.6 -7.6 L0.5 -7.35 Q-0.15 -5.95 -1.5 -5.25 L-3.5 -4.0 Q-4.95 -3.15 -5.1 -1.45 -5.35 0.75 -4.8 2.75 -4.5 4.0 -3.75 4.9 L-3.45 4.6 -1.95 2.9 2.85 1.3 Q4.25 0.65 5.25 -0.8 5.85 -1.7 5.7 -2.75 L6.5 -3.35 6.55 -2.1 Q6.55 -1.45 6.15 -1.1 L6.35 -1.15 Q6.7 -1.45 6.15 -0.4 5.35 1.15 3.75 2.2 L6.0 2.0 4.95 2.95 Q2.45 4.2 -0.05 4.2 L-3.55 4.8 -3.65 4.85 -3.75 4.9 M2.5 -3.5 Q2.3 -2.7 1.35 -2.1 L1.1 -1.9 0.15 -2.35 Q-0.9 -2.75 -2.05 -2.05 L-2.25 -1.95 -3.1 0.1 -0.8 -0.9 -0.75 -0.35 -0.3 0.2 1.75 -0.55 M2.85 1.3 Q2.3 2.6 1.05 3.3 -0.05 3.95 -1.3 4.15 L-3.45 4.6 -3.55 4.8 M-2.25 -1.95 L-2.0 -2.25 Q-0.6 -3.65 0.05 -5.3 M-3.4 -3.45 L-2.6 -2.25 M-3.45 2.4 L-3.1 0.1 M-4.25 -1.65 L-3.5 0.0" fill="none" stroke="#000000" stroke-linecap="round" stroke-linejoin="round" stroke-width="0.05"/>
  </g>
  <defs>
    <radialGradient cx="0" cy="0" gradientTransform="matrix(0.0044, 0.0, 0.0, 0.0044, -0.3, 2.95)" gradientUnits="userSpaceOnUse" id="gradient0" r="819.2" spreadMethod="pad">
      <stop offset="0.0" stop-color="#9eff66"/>
      <stop offset="0.12941176470588237" stop-color="#4e952f"/>
      <stop offset="0.36470588235294116" stop-color="#000000"/>
    </radialGradient>
  </defs>
</svg>
