<?xml version="1.0" encoding="UTF-8" standalone="no"?>
<svg xmlns:xlink="http://www.w3.org/1999/xlink" height="16.2px" width="14.0px" xmlns="http://www.w3.org/2000/svg">
  <g transform="matrix(1.0, 0.0, 0.0, 1.0, 0.0, 0.0)">
    <path d="M2.65 2.05 L5.35 1.35 7.7 1.15 8.2 1.4 8.4 1.9 8.35 2.15 7.9 2.9 7.8 2.75 5.75 3.05 4.95 3.4 4.2 3.9 3.7 7.6 4.2 8.45 3.8 9.65 3.65 9.8 3.25 9.6 Q2.2 8.75 1.9 7.45 L1.75 6.65 2.15 2.6 2.65 2.05 3.0 3.25 2.65 2.05 M5.4 2.4 L5.35 1.35 5.4 2.4" fill="#151515" fill-rule="evenodd" stroke="none"/>
    <path d="M7.9 2.9 Q8.85 4.25 8.2 5.8 L7.7 6.7 Q6.85 7.95 5.25 8.55 L4.2 8.45 3.7 7.6 4.2 3.9 4.95 3.4 5.75 3.05 7.8 2.75 7.9 2.9 M7.05 3.75 L7.45 4.2 Q8.05 5.15 7.4 6.1 8.05 5.15 7.45 4.2 L7.05 3.75" fill="url(#gradient0)" fill-rule="evenodd" stroke="none"/>
    <path d="M1.75 6.65 L1.45 6.45 Q0.65 4.85 1.65 3.4 L2.15 2.6 1.75 6.65" fill="url(#gradient1)" fill-rule="evenodd" stroke="none"/>
    <path d="M5.35 1.35 L4.95 -0.45 4.05 -2.85 2.8 -4.95 2.0 -5.9 0.1 -0.9 2.65 2.05 5.35 1.35 7.7 1.15 8.2 1.4 8.4 1.9 8.35 2.15 7.9 2.9 M4.2 8.45 L3.8 9.65 3.65 9.8 3.25 9.6 Q2.2 8.75 1.9 7.45 L1.75 6.65 1.45 6.45 Q0.65 4.85 1.65 3.4 L2.15 2.6 2.65 2.05 3.0 3.25 M5.35 1.35 L5.4 2.4 M2.15 2.6 L1.75 6.65 M0.1 2.7 L0.0 1.5 0.1 -0.9 -1.9 -2.65 -2.7 -1.85 -3.8 0.1 -4.6 2.55 -5.0 5.5 -5.05 6.95" fill="none" stroke="#000000" stroke-linecap="round" stroke-linejoin="round" stroke-width="0.5"/>
    <path d="M7.9 2.9 Q8.85 4.25 8.2 5.8 L7.7 6.7 Q6.85 7.95 5.25 8.55 L4.2 8.45 3.7 7.6 4.2 3.9 4.95 3.4 5.75 3.05 7.8 2.75 7.9 2.9" fill="none" stroke="#000000" stroke-linecap="round" stroke-linejoin="round" stroke-width="0.5"/>
    <path d="M7.4 6.1 Q8.05 5.15 7.45 4.2 L7.05 3.75" fill="none" stroke="#666666" stroke-linecap="round" stroke-linejoin="round" stroke-width="0.5"/>
  </g>
  <defs>
    <radialGradient cx="0" cy="0" gradientTransform="matrix(0.0061, 0.0, 0.0, 0.0061, 5.9, 5.2)" gradientUnits="userSpaceOnUse" id="gradient0" r="819.2" spreadMethod="pad">
      <stop offset="0.0" stop-color="#f8f807"/>
      <stop offset="0.2" stop-color="#686868"/>
      <stop offset="1.0" stop-color="#000000"/>
    </radialGradient>
    <radialGradient cx="0" cy="0" gradientTransform="matrix(0.0028, 0.0, 0.0, 0.0028, 1.0, 4.4)" gradientUnits="userSpaceOnUse" id="gradient1" r="819.2" spreadMethod="pad">
      <stop offset="0.0" stop-color="#828282"/>
      <stop offset="1.0" stop-color="#000000"/>
    </radialGradient>
  </defs>
</svg>
