<?xml version="1.0" encoding="UTF-8" standalone="no"?>
<svg xmlns:xlink="http://www.w3.org/1999/xlink" height="15.1px" width="17.0px" xmlns="http://www.w3.org/2000/svg">
  <g transform="matrix(1.0, 0.0, 0.0, 1.0, 0.0, 0.0)">
    <path d="M7.9 2.9 L7.8 2.75 5.75 3.05 4.95 3.4 4.2 3.9 3.7 7.6 4.2 8.45 3.8 9.65 3.65 9.8 3.25 9.6 Q2.2 8.75 1.9 7.45 L1.75 6.65 2.15 2.6 2.2 2.55 2.65 2.05 3.8 1.75 3.9 2.2 3.9 2.45 3.9 2.2 3.8 1.75 5.35 1.35 7.7 1.15 8.2 1.4 8.4 1.9 8.35 2.15 7.9 2.9 M5.4 2.4 L5.35 1.35 5.4 2.4 M3.0 3.25 L2.65 2.05 3.0 3.25 M2.6 3.35 Q2.65 2.85 2.2 2.55 2.65 2.85 2.6 3.35" fill="#151515" fill-rule="evenodd" stroke="none"/>
    <path d="M1.75 6.65 L1.45 6.45 Q0.65 4.85 1.65 3.4 L2.15 2.6 1.75 6.65" fill="url(#gradient0)" fill-rule="evenodd" stroke="none"/>
    <path d="M4.2 8.45 L3.7 7.6 4.2 3.9 4.95 3.4 5.75 3.05 7.8 2.75 7.9 2.9 Q8.85 4.25 8.2 5.8 L7.7 6.7 Q6.85 7.95 5.25 8.55 L4.2 8.45 M7.05 3.75 L7.45 4.2 Q8.05 5.15 7.4 6.1 8.05 5.15 7.45 4.2 L7.05 3.75" fill="url(#gradient1)" fill-rule="evenodd" stroke="none"/>
    <path d="M-3.05 -2.1 L-3.25 -3.1 -2.75 -3.95 -1.45 -4.8 M3.8 1.75 Q3.6 0.0 2.4 -1.15 0.95 -2.5 -0.85 -3.25 L-2.75 -3.95 M7.9 2.9 L7.8 2.75 5.75 3.05 4.95 3.4 4.2 3.9 3.7 7.6 4.2 8.45 5.25 8.55 Q6.85 7.95 7.7 6.7 L8.2 5.8 Q8.85 4.25 7.9 2.9 L8.35 2.15 8.4 1.9 8.2 1.4 7.7 1.15 5.35 1.35 5.4 2.4 M3.8 1.75 L2.65 2.05 3.0 3.25 M3.8 1.75 L3.9 2.2 3.9 2.45 M2.2 2.55 L1.5 2.2 Q-0.25 1.3 -2.2 0.9 -3.75 0.75 -5.3 0.9 L-6.2 1.25 -8.0 2.1 Q-7.8 2.8 -7.0 2.95 M2.15 2.6 L2.2 2.55 2.65 2.05 M2.2 2.55 Q2.65 2.85 2.6 3.35 M2.15 2.6 L1.65 3.4 Q0.65 4.85 1.45 6.45 L1.75 6.65 2.15 2.6 M4.2 8.45 L3.8 9.65 3.65 9.8 3.25 9.6 Q2.2 8.75 1.9 7.45 L1.75 6.65 M5.35 1.35 L3.8 1.75 M-8.0 2.1 L-8.05 2.0 -7.9 0.6" fill="none" stroke="#000000" stroke-linecap="round" stroke-linejoin="round" stroke-width="0.5"/>
    <path d="M7.4 6.1 Q8.05 5.15 7.45 4.2 L7.05 3.75" fill="none" stroke="#666666" stroke-linecap="round" stroke-linejoin="round" stroke-width="0.5"/>
  </g>
  <defs>
    <radialGradient cx="0" cy="0" gradientTransform="matrix(0.0028, 0.0, 0.0, 0.0028, 1.0, 4.4)" gradientUnits="userSpaceOnUse" id="gradient0" r="819.2" spreadMethod="pad">
      <stop offset="0.0" stop-color="#828282"/>
      <stop offset="1.0" stop-color="#000000"/>
    </radialGradient>
    <radialGradient cx="0" cy="0" gradientTransform="matrix(0.0061, 0.0, 0.0, 0.0061, 5.9, 5.2)" gradientUnits="userSpaceOnUse" id="gradient1" r="819.2" spreadMethod="pad">
      <stop offset="0.0" stop-color="#00ff33"/>
      <stop offset="0.2" stop-color="#528648"/>
      <stop offset="1.0" stop-color="#000000"/>
    </radialGradient>
  </defs>
</svg>
