<?xml version="1.0" encoding="UTF-8" standalone="no"?>
<svg xmlns:xlink="http://www.w3.org/1999/xlink" height="14.4px" width="14.2px" xmlns="http://www.w3.org/2000/svg">
  <g transform="matrix(1.0, 0.0, 0.0, 1.0, 0.0, 0.0)">
    <path d="M3.9 1.7 L5.35 1.35 7.7 1.15 8.2 1.4 8.4 1.9 8.35 2.15 7.9 2.9 7.8 2.75 5.75 3.05 4.95 3.4 4.2 3.9 3.7 7.6 4.2 8.45 3.8 9.65 3.65 9.8 3.25 9.6 Q2.2 8.75 1.9 7.45 L1.75 6.65 2.15 2.6 2.4 2.35 2.55 2.9 2.4 2.35 2.65 2.05 3.9 1.7 4.2 2.3 3.9 1.7 M5.4 2.4 L5.35 1.35 5.4 2.4 M3.0 3.25 L2.65 2.05 3.0 3.25" fill="#151515" fill-rule="evenodd" stroke="none"/>
    <path d="M1.75 6.65 L1.45 6.45 Q0.65 4.85 1.65 3.4 L2.15 2.6 1.75 6.65" fill="url(#gradient0)" fill-rule="evenodd" stroke="none"/>
    <path d="M7.9 2.9 Q8.85 4.25 8.2 5.8 L7.7 6.7 Q6.85 7.95 5.25 8.55 L4.2 8.45 3.7 7.6 4.2 3.9 4.95 3.4 5.75 3.05 7.8 2.75 7.9 2.9 M7.05 3.75 L7.45 4.2 Q8.05 5.15 7.4 6.1 8.05 5.15 7.45 4.2 L7.05 3.75" fill="url(#gradient1)" fill-rule="evenodd" stroke="none"/>
    <path d="M-3.25 6.4 L-2.9 6.15 -2.45 6.25 Q-2.0 6.8 -2.3 7.4 L-2.45 7.65 Q-2.7 8.2 -3.5 7.95 -4.95 7.5 -5.15 5.9 -5.35 4.1 -5.05 2.35 L-4.35 -0.35 -1.8 -0.25 Q-1.55 -1.55 -0.85 -2.6 L0.3 -4.1 2.25 -1.1 3.9 1.7 5.35 1.35 7.7 1.15 8.2 1.4 8.4 1.9 8.35 2.15 7.9 2.9 M4.2 8.45 L3.8 9.65 3.65 9.8 3.25 9.6 Q2.2 8.75 1.9 7.45 L1.75 6.65 1.45 6.45 Q0.65 4.85 1.65 3.4 L2.15 2.6 2.4 2.35 0.95 1.15 Q-0.3 0.2 -1.8 -0.25 L-2.1 2.45 Q-2.2 3.65 -1.2 4.6 -0.7 4.5 -0.35 4.05 L-0.25 2.9 -0.5 2.6 Q-1.1 2.0 -1.15 2.9 M5.35 1.35 L5.4 2.4 M3.9 1.7 L4.2 2.3 M3.9 1.7 L2.65 2.05 3.0 3.25 M2.4 2.35 L2.55 2.9 M2.65 2.05 L2.4 2.35 M1.75 6.65 L2.15 2.6" fill="none" stroke="#000000" stroke-linecap="round" stroke-linejoin="round" stroke-width="0.5"/>
    <path d="M7.9 2.9 Q8.85 4.25 8.2 5.8 L7.7 6.7 Q6.85 7.95 5.25 8.55 L4.2 8.45 3.7 7.6 4.2 3.9 4.95 3.4 5.75 3.05 7.8 2.75 7.9 2.9" fill="none" stroke="#000000" stroke-linecap="round" stroke-linejoin="round" stroke-width="0.5"/>
    <path d="M7.4 6.1 Q8.05 5.15 7.45 4.2 L7.05 3.75" fill="none" stroke="#666666" stroke-linecap="round" stroke-linejoin="round" stroke-width="0.5"/>
  </g>
  <defs>
    <radialGradient cx="0" cy="0" gradientTransform="matrix(0.0028, 0.0, 0.0, 0.0028, 1.0, 4.4)" gradientUnits="userSpaceOnUse" id="gradient0" r="819.2" spreadMethod="pad">
      <stop offset="0.0" stop-color="#828282"/>
      <stop offset="1.0" stop-color="#000000"/>
    </radialGradient>
    <radialGradient cx="0" cy="0" gradientTransform="matrix(0.0061, 0.0, 0.0, 0.0061, 5.9, 5.2)" gradientUnits="userSpaceOnUse" id="gradient1" r="819.2" spreadMethod="pad">
      <stop offset="0.0" stop-color="#93fc03"/>
      <stop offset="0.2" stop-color="#686868"/>
      <stop offset="1.0" stop-color="#000000"/>
    </radialGradient>
  </defs>
</svg>
