<?xml version="1.0" encoding="UTF-8" standalone="no"?>
<svg xmlns:xlink="http://www.w3.org/1999/xlink" height="18.05px" width="14.95px" xmlns="http://www.w3.org/2000/svg">
  <g transform="matrix(1.0, 0.0, 0.0, 1.0, 0.0, 0.0)">
    <path d="M4.1 1.7 L5.35 1.35 8.2 1.4 10.2 1.9 8.75 2.9 6.55 3.2 5.15 3.75 Q4.55 3.95 3.65 4.5 L3.7 7.6 4.2 8.45 3.75 9.65 3.65 9.8 3.25 9.6 Q2.7 9.1 2.25 8.05 L1.75 6.65 2.15 2.6 2.6 2.1 2.65 2.05 4.1 1.7 4.3 2.15 4.1 1.7 M5.35 1.35 L5.4 2.4 5.35 1.35 M3.0 3.25 L2.65 2.05 3.0 3.25" fill="#151515" fill-rule="evenodd" stroke="none"/>
    <path d="M8.75 2.9 L8.9 3.45 Q9.05 4.0 8.6 4.95 L7.6 6.6 6.7 7.8 Q5.9 8.6 4.7 8.7 L4.2 8.45 3.7 7.6 3.65 4.5 Q4.55 3.95 5.15 3.75 L6.55 3.2 8.75 2.9 M7.4 6.1 L7.7 5.7 8.25 4.25 Q8.6 3.25 7.05 3.75 8.6 3.25 8.25 4.25 L7.7 5.7 7.4 6.1" fill="url(#gradient0)" fill-rule="evenodd" stroke="none"/>
    <path d="M1.75 6.65 L1.35 5.65 Q1.25 4.95 1.45 4.2 L2.15 2.6 1.75 6.65" fill="url(#gradient1)" fill-rule="evenodd" stroke="none"/>
    <path d="M-2.2 13.2 L-2.65 12.45 -2.95 10.8 -2.85 9.15 -4.15 9.95 -4.1 8.0 -3.75 6.25 Q-3.45 5.1 -2.75 3.95 L-2.25 3.3 -4.25 3.65 -4.15 3.3 -3.65 2.0 -2.85 -0.05 -2.35 -1.4 -2.2 -1.35 -1.45 -0.85 -0.95 -0.6 -0.3 -0.15 0.15 0.15 0.6 -0.8 1.65 -2.45 2.1 -3.15 2.8 -1.75 3.3 -0.5 3.9 1.3 4.1 1.7 5.35 1.35 8.2 1.4 10.2 1.9 8.75 2.9 M4.2 8.45 L3.75 9.65 3.65 9.8 3.25 9.6 Q2.7 9.1 2.25 8.05 L1.75 6.65 1.35 5.65 Q1.25 4.95 1.45 4.2 L2.15 2.6 2.6 2.1 2.3 1.6 1.75 1.3 0.15 0.15 -0.25 1.85 -0.6 4.3 -0.05 4.05 0.3 3.85 0.4 3.75 Q-0.2 5.0 -0.3 6.7 L-0.35 8.2 Q-0.3 9.55 0.25 10.8 L0.85 9.9 Q1.05 9.65 1.35 9.5 L1.35 10.25 1.6 11.15 2.45 12.55 Q3.05 13.5 2.95 14.4 M5.4 2.4 L5.35 1.35 M4.1 1.7 L4.3 2.15 M2.65 2.05 L2.6 2.1 M4.1 1.7 L2.65 2.05 3.0 3.25 M1.75 6.65 L2.15 2.6" fill="none" stroke="#000000" stroke-linecap="round" stroke-linejoin="round" stroke-width="0.5"/>
    <path d="M8.75 2.9 L8.9 3.45 Q9.05 4.0 8.6 4.95 L7.6 6.6 6.7 7.8 Q5.9 8.6 4.7 8.7 L4.2 8.45 3.7 7.6 3.65 4.5 Q4.55 3.95 5.15 3.75 L6.55 3.2 8.75 2.9" fill="none" stroke="#000000" stroke-linecap="round" stroke-linejoin="round" stroke-width="0.5"/>
    <path d="M7.05 3.75 Q8.6 3.25 8.25 4.25 L7.7 5.7 7.4 6.1" fill="none" stroke="#fee761" stroke-linecap="round" stroke-linejoin="round" stroke-opacity="0.7529412" stroke-width="0.05"/>
  </g>
  <defs>
    <radialGradient cx="0" cy="0" gradientTransform="matrix(0.0061, 0.0, 0.0, 0.0061, 5.9, 5.2)" gradientUnits="userSpaceOnUse" id="gradient0" r="819.2" spreadMethod="pad">
      <stop offset="0.0" stop-color="#fdfcca"/>
      <stop offset="0.2" stop-color="#c6c609"/>
      <stop offset="1.0" stop-color="#000000"/>
    </radialGradient>
    <radialGradient cx="0" cy="0" gradientTransform="matrix(0.0028, 0.0, 0.0, 0.0028, 1.0, 4.4)" gradientUnits="userSpaceOnUse" id="gradient1" r="819.2" spreadMethod="pad">
      <stop offset="0.0" stop-color="#fdfcca"/>
      <stop offset="0.2" stop-color="#c6c609"/>
      <stop offset="1.0" stop-color="#000000"/>
    </radialGradient>
  </defs>
</svg>
