<?xml version="1.0" encoding="UTF-8" standalone="no"?>
<svg xmlns:xlink="http://www.w3.org/1999/xlink" height="7.4px" width="19.15px" xmlns="http://www.w3.org/2000/svg">
  <g transform="matrix(1.0, 0.0, 0.0, 1.0, 0.0, 0.0)">
    <path d="M19.15 3.2 L19.15 3.25 Q17.05 1.65 14.55 1.8 16.05 2.1 17.2 2.65 19.25 3.7 19.55 5.9 L19.1 5.45 Q17.1 3.7 14.25 3.2 L15.6 4.05 Q17.55 5.5 17.25 7.8 L16.7 6.9 Q15.55 5.4 13.7 4.55 L12.75 4.2 Q11.6 4.45 10.85 3.8 L9.95 3.75 9.25 3.1 11.45 3.2 11.55 3.1 10.05 2.1 9.75 1.75 9.95 1.75 10.05 1.6 9.95 1.4 9.5 1.25 11.25 0.9 13.05 0.85 14.45 0.85 16.55 1.2 Q18.15 1.75 19.15 3.2" fill="#458988" fill-rule="evenodd" stroke="none"/>
    <path d="M11.25 0.9 L9.5 1.25 9.95 1.4 10.05 1.6 9.95 1.75 9.75 1.75 10.05 2.1 11.55 3.1 11.45 3.2 9.25 3.1 9.95 3.75 10.95 5.25 10.0 4.95 7.3 4.45 Q5.65 4.6 4.75 3.45 L4.35 3.55 Q3.3 2.95 1.8 2.65 L0.7 2.4 Q0.2 2.15 0.6 1.95 L0.65 0.75 0.7 0.65 1.55 0.8 3.9 0.55 6.15 0.5 Q7.15 0.8 8.05 0.5 9.75 0.2 11.25 0.85 L11.25 0.9" fill="#3a371f" fill-rule="evenodd" stroke="none"/>
    <path d="M19.15 3.2 Q18.15 1.75 16.55 1.2 L14.45 0.85 13.05 0.85 11.25 0.9 9.5 1.25 9.95 1.4 10.05 1.6 9.95 1.75 9.75 1.75 10.05 2.1 11.55 3.1 11.45 3.2 9.25 3.1 9.95 3.75 10.85 3.8 Q11.6 4.45 12.75 4.2 L13.7 4.55 Q15.55 5.4 16.7 6.9 L17.25 7.8 Q17.55 5.5 15.6 4.05 L14.25 3.2 Q17.1 3.7 19.1 5.45 L19.55 5.9 Q19.25 3.7 17.2 2.65 16.05 2.1 14.55 1.8 17.05 1.65 19.15 3.25 L19.2 3.3 19.15 3.2 M0.7 0.65 L1.55 0.8 3.9 0.55 6.15 0.5 Q7.15 0.8 8.05 0.5 9.75 0.2 11.25 0.85 L11.25 0.9 M9.95 3.75 L10.95 5.25 10.0 4.95 7.3 4.45 Q5.65 4.6 4.75 3.45 L4.35 3.55 Q3.3 2.95 1.8 2.65 L0.7 2.4 Q0.2 2.15 0.6 1.95 M0.65 0.75 L0.65 0.65 0.7 0.65" fill="none" stroke="#000000" stroke-linecap="round" stroke-linejoin="round" stroke-width="0.05"/>
  </g>
</svg>
