<?xml version="1.0" encoding="UTF-8" standalone="no"?>
<svg xmlns:xlink="http://www.w3.org/1999/xlink" height="16.8px" width="34.0px" xmlns="http://www.w3.org/2000/svg">
  <g transform="matrix(1.0, 0.0, 0.0, 1.0, 0.0, 0.0)">
    <path d="M4.85 -1.7 L3.3 -1.8 Q1.05 -1.2 -0.1 0.5 L-0.95 2.2 -1.0 2.85 Q-0.8 4.35 0.15 5.45 L0.95 6.4 1.5 7.05 1.6 6.95 1.7 4.35 2.4 5.65 4.7 9.15 4.65 8.25 Q4.7 6.9 5.35 5.75 L6.2 7.15 8.2 9.65 9.45 10.7 10.75 11.55 11.4 11.8 11.05 11.15 10.3 9.65 9.45 8.0 8.7 6.3 Q10.35 7.05 11.6 8.05 L13.85 9.7 Q16.15 11.45 18.85 11.6 L21.15 11.95 22.0 11.9 24.85 11.05 26.55 10.3 Q21.5 10.75 17.05 8.45 L14.85 7.1 12.55 5.5 11.85 4.85 15.0 4.7 22.1 6.7 25.7 7.8 27.45 7.45 Q28.6 7.3 29.35 6.5 L30.2 5.5 31.0 4.4 Q28.9 6.0 26.25 5.7 23.5 5.6 21.3 4.3 L18.25 2.55 Q16.0 1.4 13.65 1.2 L12.4 1.15 Q13.55 0.25 14.95 0.25 17.9 0.1 20.7 1.3 L21.55 1.5 25.0 1.45 26.4 0.55 Q23.1 0.25 20.0 -1.05 18.05 -1.95 16.0 -2.5 L12.15 -2.6 8.7 -1.9 4.85 -1.7 Z" fill="none" stroke="#21172b" stroke-linecap="round" stroke-linejoin="round" stroke-opacity="0.16078432" stroke-width="2.0"/>
    <path d="M4.85 -1.7 L8.7 -1.9 12.15 -2.6 16.0 -2.5 Q18.05 -1.95 20.0 -1.05 23.1 0.25 26.4 0.55 L25.0 1.45 21.55 1.5 20.7 1.3 Q17.9 0.1 14.95 0.25 13.55 0.25 12.4 1.15 L13.65 1.2 Q16.0 1.4 18.25 2.55 L21.3 4.3 Q23.5 5.6 26.25 5.7 28.9 6.0 31.0 4.4 L30.2 5.5 29.35 6.5 Q28.6 7.3 27.45 7.45 L25.7 7.8 22.1 6.7 15.0 4.7 11.85 4.85 12.55 5.5 14.85 7.1 17.05 8.45 Q21.5 10.75 26.55 10.3 L24.85 11.05 22.0 11.9 21.15 11.95 18.85 11.6 Q16.15 11.45 13.85 9.7 L11.6 8.05 Q10.35 7.05 8.7 6.3 L9.45 8.0 10.3 9.65 11.05 11.15 11.4 11.8 10.75 11.55 9.45 10.7 8.2 9.65 6.2 7.15 5.35 5.75 Q4.7 6.9 4.65 8.25 L4.7 9.15 2.4 5.65 1.7 4.35 1.6 6.95 1.5 7.05 0.95 6.4 0.15 5.45 Q-0.8 4.35 -1.0 2.85 L-0.95 2.2 -0.1 0.5 Q1.05 -1.2 3.3 -1.8 L4.85 -1.7" fill="url(#gradient0)" fill-rule="evenodd" stroke="none"/>
    <path d="M8.7 -1.9 L4.85 -1.7 3.3 -1.8 Q1.05 -1.2 -0.1 0.5 L-0.95 2.2 -1.0 2.85 Q-0.8 4.35 0.15 5.45 L0.95 6.4 1.5 7.05 1.6 6.95 1.7 4.35 2.4 5.65 4.7 9.15 4.65 8.25 Q4.7 6.9 5.35 5.75 L6.2 7.15 8.2 9.65 9.45 10.7 10.75 11.55 11.4 11.8 11.05 11.15 10.3 9.65 9.45 8.0 8.7 6.3 Q10.35 7.05 11.6 8.05 L13.85 9.7 Q16.15 11.45 18.85 11.6 L21.15 11.95 22.0 11.9 24.85 11.05 26.55 10.3 Q21.5 10.75 17.05 8.45 L14.85 7.1 12.55 5.5 11.85 4.85 15.0 4.7 22.1 6.7 25.7 7.8 27.45 7.45 Q28.6 7.3 29.35 6.5 L30.2 5.5 31.0 4.4 Q28.9 6.0 26.25 5.7 23.5 5.6 21.3 4.3 L18.25 2.55 Q16.0 1.4 13.65 1.2 L12.4 1.15 Q13.55 0.25 14.95 0.25 17.9 0.1 20.7 1.3 L21.55 1.5 25.0 1.45 26.4 0.55 Q23.1 0.25 20.0 -1.05 18.05 -1.95 16.0 -2.5 L12.15 -2.6 8.7 -1.9 Z" fill="none" stroke="#7e529a" stroke-linecap="round" stroke-linejoin="round" stroke-opacity="0.16078432" stroke-width="1.0"/>
  </g>
  <defs>
    <radialGradient cx="0" cy="0" gradientTransform="matrix(0.0118, 0.0, 0.0, 0.0118, 11.15, 1.0)" gradientUnits="userSpaceOnUse" id="gradient0" r="819.2" spreadMethod="pad">
      <stop offset="0.0" stop-color="#ad7bcc" stop-opacity="0.36078432"/>
      <stop offset="1.0" stop-color="#331e37" stop-opacity="0.101960786"/>
    </radialGradient>
  </defs>
</svg>
