<?xml version="1.0" encoding="UTF-8" standalone="no"?>
<svg xmlns:xlink="http://www.w3.org/1999/xlink" height="11.5px" width="22.9px" xmlns="http://www.w3.org/2000/svg">
  <g transform="matrix(1.0, 0.0, 0.0, 1.0, 0.0, 0.0)">
    <path d="M0.65 2.5 L4.7 3.05 3.5 5.0 8.6 4.1 8.1 4.75 9.3 5.1 Q11.5 4.7 13.5 5.6 16.15 6.75 18.25 9.3 18.25 7.45 17.05 6.1 L15.5 4.9 14.95 4.35 Q18.85 5.35 21.55 8.45 21.25 6.0 19.25 4.5 L15.9 2.1 Q18.7 2.45 21.2 3.65 20.85 2.4 19.75 1.75 15.9 -0.35 11.4 -0.1 L6.7 -0.2 4.2 -0.05 Q2.7 -0.1 1.2 0.4 L0.9 0.6" fill="none" stroke="#94fed4" stroke-linecap="round" stroke-linejoin="round" stroke-opacity="0.2509804" stroke-width="2.0"/>
  </g>
</svg>
