<?xml version="1.0" encoding="UTF-8" standalone="no"?>
<svg xmlns:xlink="http://www.w3.org/1999/xlink" height="10.5px" width="21.9px" xmlns="http://www.w3.org/2000/svg">
  <g transform="matrix(1.0, 0.0, 0.0, 1.0, 0.0, 0.0)">
    <path d="M0.9 0.6 L1.2 0.4 Q2.7 -0.1 4.2 -0.05 L6.7 -0.2 11.4 -0.1 Q15.9 -0.35 19.75 1.75 20.85 2.4 21.2 3.65 18.7 2.45 15.9 2.1 L19.25 4.5 Q21.25 6.0 21.55 8.45 18.85 5.35 14.95 4.35 L15.5 4.9 17.05 6.1 Q18.25 7.45 18.25 9.3 16.15 6.75 13.5 5.6 11.5 4.7 9.3 5.1 L8.1 4.75 8.6 4.1 3.5 5.0 4.7 3.05 0.65 2.5 0.5 2.35 0.45 2.25 Q0.25 1.65 0.75 1.15 L0.9 0.6" fill="url(#gradient0)" fill-rule="evenodd" stroke="none"/>
    <path d="M0.65 2.5 L4.7 3.05 3.5 5.0 8.6 4.1 8.1 4.75 9.3 5.1 Q11.5 4.7 13.5 5.6 16.15 6.75 18.25 9.3 18.25 7.45 17.05 6.1 L15.5 4.9 14.95 4.35 Q18.85 5.35 21.55 8.45 21.25 6.0 19.25 4.5 L15.9 2.1 Q18.7 2.45 21.2 3.65 20.85 2.4 19.75 1.75 15.9 -0.35 11.4 -0.1 L6.7 -0.2 4.2 -0.05 Q2.7 -0.1 1.2 0.4 L0.9 0.6" fill="none" stroke="#03ef85" stroke-linecap="round" stroke-linejoin="round" stroke-opacity="0.16078432" stroke-width="1.0"/>
  </g>
  <defs>
    <radialGradient cx="0" cy="0" gradientTransform="matrix(0.0118, 0.0, 0.0, 0.0118, 23.75, -5.35)" gradientUnits="userSpaceOnUse" id="gradient0" r="819.2" spreadMethod="pad">
      <stop offset="0.0" stop-color="#57f7d2" stop-opacity="0.36078432"/>
      <stop offset="1.0" stop-color="#c5fcef" stop-opacity="0.101960786"/>
    </radialGradient>
  </defs>
</svg>
