<?xml version="1.0" encoding="UTF-8" standalone="no"?>
<svg xmlns:xlink="http://www.w3.org/1999/xlink" height="9.95px" width="9.7px" xmlns="http://www.w3.org/2000/svg">
  <g transform="matrix(1.0, 0.0, 0.0, 1.0, 0.0, 0.0)">
    <path d="M7.85 -0.1 L7.85 0.15 Q7.65 0.7 7.8 1.35 L9.25 2.0 8.2 2.55 6.95 3.7 Q5.25 6.0 4.6 8.85 3.2 6.9 4.0 4.85 2.25 6.5 0.55 7.35 L1.0 5.75 1.6 4.6 Q3.7 2.15 6.1 0.0 L7.85 -0.1" fill="url(#gradient0)" fill-rule="evenodd" stroke="none"/>
    <path d="M6.1 0.0 Q3.7 2.15 1.6 4.6 L1.0 5.75 0.55 7.35 Q2.25 6.5 4.0 4.85 3.2 6.9 4.6 8.85 5.25 6.0 6.95 3.7 L8.2 2.55 9.25 2.0 7.8 1.35 Q7.65 0.7 7.85 0.15 L7.85 -0.1" fill="none" stroke="#e2ffce" stroke-linecap="round" stroke-linejoin="round" stroke-opacity="0.28235295" stroke-width="1.0"/>
  </g>
  <defs>
    <radialGradient cx="0" cy="0" gradientTransform="matrix(0.012, 0.0, 0.0, 0.012, -20.6, 7.15)" gradientUnits="userSpaceOnUse" id="gradient0" r="819.2" spreadMethod="pad">
      <stop offset="0.0" stop-color="#d1f7d2" stop-opacity="0.36078432"/>
      <stop offset="1.0" stop-color="#e5ffef" stop-opacity="0.101960786"/>
    </radialGradient>
  </defs>
</svg>
