<?xml version="1.0" encoding="UTF-8" standalone="no"?>
<svg xmlns:xlink="http://www.w3.org/1999/xlink" height="13.35px" width="8.55px" xmlns="http://www.w3.org/2000/svg">
  <g transform="matrix(1.0, 0.0, 0.0, 1.0, 0.0, 0.0)">
    <path d="M7.4 -0.7 Q11.7 -0.7 11.7 3.95 11.6 4.7 10.95 4.85 10.5 4.45 10.1 2.5 9.8 0.9 8.7 0.8 L7.05 0.55 Q7.5 1.6 7.7 4.25 8.0 8.6 10.85 8.6 L11.65 8.85 12.35 9.2 12.35 9.55 11.75 9.8 Q10.1 9.8 8.2 8.55 5.95 7.05 6.45 5.15 L5.65 5.9 5.3 5.85 5.0 8.0 Q5.0 9.4 6.5 10.8 L8.15 12.2 7.75 12.65 Q7.0 12.65 5.4 10.8 3.8 8.9 3.8 7.9 L4.1 5.6 Q4.1 4.6 4.4 3.15 4.9 1.05 5.75 0.35 L5.8 0.4 6.1 -0.05 Q5.8 -0.7 7.4 -0.7" fill="#3c1d49" fill-opacity="0.7529412" fill-rule="evenodd" stroke="none"/>
  </g>
</svg>
