<?xml version="1.0" encoding="UTF-8" standalone="no"?>
<svg xmlns:xlink="http://www.w3.org/1999/xlink" height="6.35px" width="6.85px" xmlns="http://www.w3.org/2000/svg">
  <g transform="matrix(1.0, 0.0, 0.0, 1.0, 0.0, 0.0)">
    <path d="M8.05 1.1 L7.9 1.55 7.65 1.85 7.15 2.35 6.15 4.35 Q5.6 5.05 5.55 5.9 L5.55 6.2 4.7 6.3 4.3 6.45 4.2 6.3 4.25 5.55 3.0 5.95 2.85 5.95 2.75 5.9 2.75 5.0 1.2 5.9 Q1.15 5.65 1.25 5.55 L3.15 3.05 4.8 1.4 5.8 0.4 6.15 0.15 Q6.95 0.0 7.65 0.65 L8.05 1.1 M5.55 1.45 L4.8 1.4 5.55 1.45 6.4 1.8 7.15 2.35 6.4 1.8 5.25 3.55 6.15 4.35 5.25 3.55 6.4 1.8 5.55 1.45 4.4 3.2 5.25 3.55 4.25 5.55 5.25 3.55 4.4 3.2 5.55 1.45 M3.15 3.05 L4.4 3.2 3.3 5.0 4.4 3.2 3.15 3.05" fill="#b9a882" fill-rule="evenodd" stroke="none"/>
    <path d="M8.05 1.1 L7.9 1.55 7.65 1.85 7.15 2.35 6.15 4.35 Q5.6 5.05 5.55 5.9 L5.55 6.2 4.7 6.3 4.3 6.45 4.2 6.3 4.25 5.55 3.0 5.95 2.85 5.95 2.75 5.9 2.75 5.0 1.2 5.9 Q1.15 5.65 1.25 5.55 L3.15 3.05 4.8 1.4 5.8 0.4 6.15 0.15 Q6.95 0.0 7.65 0.65 L8.05 1.1 M7.15 2.35 L6.4 1.8 5.25 3.55 6.15 4.35 M6.4 1.8 L5.55 1.45 4.4 3.2 5.25 3.55 4.25 5.55 M4.4 3.2 L3.3 5.0 M4.4 3.2 L3.15 3.05 M4.8 1.4 L5.55 1.45" fill="none" stroke="#000000" stroke-linecap="round" stroke-linejoin="round" stroke-width="0.05"/>
  </g>
</svg>
