<?xml version="1.0" encoding="UTF-8" standalone="no"?>
<svg xmlns:xlink="http://www.w3.org/1999/xlink" height="15.2px" width="4.05px" xmlns="http://www.w3.org/2000/svg">
  <g transform="matrix(1.0, 0.0, 0.0, 1.0, 0.0, 0.0)">
    <path d="M2.6 14.05 Q2.6 14.5 2.2 14.7 L1.7 14.55 Q1.2 10.6 0.95 6.5 L0.8 4.25 0.75 2.9 Q0.7 2.05 0.8 1.5 0.85 0.95 1.1 0.55 L1.4 0.55 1.65 0.9 1.45 4.6 1.45 6.0 2.15 9.5 2.45 10.95 Q2.85 12.4 2.6 13.85 L2.6 14.05" fill="url(#gradient0)" fill-rule="evenodd" stroke="none"/>
    <path d="M1.65 0.9 L2.15 0.6 2.55 0.8 Q3.7 3.3 3.7 6.15 L3.7 10.65 3.8 12.8 3.7 14.15 2.6 14.05 2.6 13.85 Q2.85 12.4 2.45 10.95 3.2 9.2 2.9 7.15 L2.4 3.4 2.1 1.35 1.65 0.9" fill="url(#gradient1)" fill-rule="evenodd" stroke="none"/>
    <path d="M2.6 14.05 Q2.6 14.5 2.2 14.7 L1.7 14.55 Q1.2 10.6 0.95 6.5 L0.8 4.25 0.75 2.9 Q0.7 2.05 0.8 1.5 0.85 0.95 1.1 0.55 L1.4 0.55 1.65 0.9 2.15 0.6 2.55 0.8 Q3.7 3.3 3.7 6.15 L3.7 10.65 3.8 12.8 3.7 14.15 2.6 14.05 2.6 13.85 Q2.85 12.4 2.45 10.95 L2.15 9.5 1.45 6.0 1.45 4.6 1.65 0.9 2.1 1.35 2.4 3.4 2.9 7.15 Q3.2 9.2 2.45 10.95" fill="none" stroke="#e2ffce" stroke-linecap="round" stroke-linejoin="round" stroke-opacity="0.28235295" stroke-width="1.0"/>
  </g>
  <defs>
    <radialGradient cx="0" cy="0" gradientTransform="matrix(0.0089, 0.0, 0.0, 0.0089, 1.7, 7.6)" gradientUnits="userSpaceOnUse" id="gradient0" r="819.2" spreadMethod="pad">
      <stop offset="0.0" stop-color="#d1f7d2" stop-opacity="0.36078432"/>
      <stop offset="1.0" stop-color="#e5ffef" stop-opacity="0.101960786"/>
    </radialGradient>
    <radialGradient cx="0" cy="0" gradientTransform="matrix(0.0085, 0.0, 0.0, 0.0085, 2.75, 7.4)" gradientUnits="userSpaceOnUse" id="gradient1" r="819.2" spreadMethod="pad">
      <stop offset="0.0" stop-color="#d1f7d2" stop-opacity="0.36078432"/>
      <stop offset="1.0" stop-color="#e5ffef" stop-opacity="0.101960786"/>
    </radialGradient>
  </defs>
</svg>
