<?xml version="1.0" encoding="UTF-8" standalone="no"?>
<svg xmlns:xlink="http://www.w3.org/1999/xlink" height="14.2px" width="3.05px" xmlns="http://www.w3.org/2000/svg">
  <g transform="matrix(1.0, 0.0, 0.0, 1.0, 0.0, 0.0)">
    <path d="M2.6 14.05 Q2.6 14.5 2.2 14.7 L1.7 14.55 Q1.2 10.6 0.95 6.5 L0.8 4.25 0.75 2.9 Q0.7 2.05 0.8 1.5 0.85 0.95 1.1 0.55 L1.4 0.55 1.65 0.9 1.45 4.6 1.45 6.0 2.15 9.5 2.45 10.95 Q2.85 12.4 2.6 13.85 L2.6 14.05 2.6 13.85 Q2.85 12.4 2.45 10.95 3.2 9.2 2.9 7.15 L2.4 3.4 2.1 1.35 1.65 0.9 2.15 0.6 2.55 0.8 Q3.7 3.3 3.7 6.15 L3.7 10.65 3.8 12.8 3.7 14.15 2.6 14.05" fill="#b9a882" fill-rule="evenodd" stroke="none"/>
    <path d="M2.45 10.95 L2.15 9.5 1.45 6.0 1.45 4.6 1.65 0.9 1.4 0.55 1.1 0.55 Q0.85 0.95 0.8 1.5 0.7 2.05 0.75 2.9 L0.8 4.25 0.95 6.5 Q1.2 10.6 1.7 14.55 L2.2 14.7 Q2.6 14.5 2.6 14.05 L2.6 13.85 Q2.85 12.4 2.45 10.95 3.2 9.2 2.9 7.15 L2.4 3.4 2.1 1.35 1.65 0.9 2.15 0.6 2.55 0.8 Q3.7 3.3 3.7 6.15 L3.7 10.65 3.8 12.8 3.7 14.15 2.6 14.05" fill="none" stroke="#000000" stroke-linecap="round" stroke-linejoin="round" stroke-width="0.05"/>
  </g>
</svg>
