<?xml version="1.0" encoding="UTF-8" standalone="no"?>
<svg xmlns:xlink="http://www.w3.org/1999/xlink" height="14.65px" width="15.15px" xmlns="http://www.w3.org/2000/svg">
  <g transform="matrix(1.0, 0.0, 0.0, 1.0, 0.0, 0.0)">
    <path d="M5.0 1.9 L5.8 1.9 7.5 3.15 10.15 4.6 11.55 5.35 12.95 6.25 Q10.2 6.9 7.95 5.5 9.45 8.65 12.45 10.4 L13.6 11.2 13.55 11.25 Q12.1 11.45 10.7 10.7 8.2 9.3 6.45 7.0 L6.4 6.95 6.4 8.7 6.2 10.45 5.7 11.95 5.45 12.55 Q5.0 11.95 5.0 11.3 L4.75 9.85 4.15 8.3 2.65 5.5 2.5 8.6 2.45 8.75 2.25 8.6 1.7 7.5 1.0 5.75 0.6 4.0 0.5 2.35 0.45 0.5 0.55 -0.1" fill="none" stroke="#21172b" stroke-linecap="round" stroke-linejoin="round" stroke-opacity="0.16078432" stroke-width="2.0"/>
    <path d="M11.55 5.35 L12.95 6.25 Q10.2 6.9 7.95 5.5 9.45 8.65 12.45 10.4 L13.6 11.2 13.55 11.25 Q12.1 11.45 10.7 10.7 8.2 9.3 6.45 7.0 L6.4 6.95 6.4 8.7 6.2 10.45 5.7 11.95 5.45 12.55 Q5.0 11.95 5.0 11.3 L4.75 9.85 4.15 8.3 2.65 5.5 2.5 8.6 2.25 8.6 1.7 7.5 1.0 5.75 0.6 4.0 0.5 2.35 0.45 0.5 0.55 -0.1 Q1.45 0.1 2.3 0.55 L3.7 1.2 5.0 1.9 5.8 1.9 7.5 3.15 10.15 4.6 11.55 5.35" fill="url(#gradient0)" fill-rule="evenodd" stroke="none"/>
    <path d="M5.0 1.9 L5.8 1.9 7.5 3.15 10.15 4.6 11.55 5.35 12.95 6.25 Q10.2 6.9 7.95 5.5 9.45 8.65 12.45 10.4 L13.6 11.2 13.55 11.25 Q12.1 11.45 10.7 10.7 8.2 9.3 6.45 7.0 L6.4 6.95 6.4 8.7 6.2 10.45 5.7 11.95 5.45 12.55 Q5.0 11.95 5.0 11.3 L4.75 9.85 4.15 8.3 2.65 5.5 2.5 8.6 2.45 8.75 2.25 8.6 1.7 7.5 1.0 5.75 0.6 4.0 0.5 2.35 0.45 0.5 0.55 -0.1" fill="none" stroke="#7e529a" stroke-linecap="round" stroke-linejoin="round" stroke-opacity="0.16078432" stroke-width="1.0"/>
  </g>
  <defs>
    <radialGradient cx="0" cy="0" gradientTransform="matrix(0.0118, 0.0, 0.0, 0.0118, 4.35, 7.0)" gradientUnits="userSpaceOnUse" id="gradient0" r="819.2" spreadMethod="pad">
      <stop offset="0.0" stop-color="#ad7bcc" stop-opacity="0.36078432"/>
      <stop offset="1.0" stop-color="#331e37" stop-opacity="0.101960786"/>
    </radialGradient>
  </defs>
</svg>
