<?xml version="1.0" encoding="UTF-8" standalone="no"?>
<svg xmlns:xlink="http://www.w3.org/1999/xlink" height="15.15px" width="4.75px" xmlns="http://www.w3.org/2000/svg">
  <g transform="matrix(1.0, 0.0, 0.0, 1.0, 0.0, 0.0)">
    <path d="M1.95 15.4 Q1.55 14.75 1.6 13.65 L1.6 10.7 1.25 6.7 1.1 5.15 0.95 4.55 Q0.5 3.3 0.85 2.1 1.9 1.05 3.35 1.3 L4.1 0.85 Q4.6 0.55 4.45 1.3 3.5 3.0 2.8 4.8 2.4 5.8 2.6 6.9 L3.0 10.65 3.15 13.15 Q3.15 13.85 3.5 14.35 3.8 14.85 3.7 15.05 3.6 15.25 3.35 15.05 L3.15 14.95 2.75 14.9 1.95 15.4" fill="url(#gradient0)" fill-rule="evenodd" stroke="none"/>
    <path d="M1.95 15.4 Q1.55 14.75 1.6 13.65 L1.6 10.7 1.25 6.7 1.1 5.15 0.95 4.55 Q0.5 3.3 0.85 2.1 M4.45 1.3 Q3.5 3.0 2.8 4.8 2.4 5.8 2.6 6.9 L3.0 10.65 3.15 13.15 Q3.15 13.85 3.5 14.35 3.8 14.85 3.7 15.05 3.6 15.25 3.35 15.05 L3.15 14.95" fill="none" stroke="#e2ffce" stroke-linecap="round" stroke-linejoin="round" stroke-opacity="0.28235295" stroke-width="1.0"/>
  </g>
  <defs>
    <radialGradient cx="0" cy="0" gradientTransform="matrix(0.0118, 0.0, 0.0, 0.0118, 2.05, 7.65)" gradientUnits="userSpaceOnUse" id="gradient0" r="819.2" spreadMethod="pad">
      <stop offset="0.0" stop-color="#d1f7d2" stop-opacity="0.36078432"/>
      <stop offset="1.0" stop-color="#e5ffef" stop-opacity="0.101960786"/>
    </radialGradient>
  </defs>
</svg>
