<?xml version="1.0" encoding="UTF-8" standalone="no"?>
<svg xmlns:xlink="http://www.w3.org/1999/xlink" height="18.25px" width="9.5px" xmlns="http://www.w3.org/2000/svg">
  <g transform="matrix(1.0, 0.0, 0.0, 1.0, 0.0, 0.0)">
    <path d="M1.7 15.55 Q1.0 14.2 1.2 12.8 L1.4 11.6 1.5 10.7 1.5 9.1 1.5 8.1 1.4 6.5 1.35 5.55 1.25 4.95 0.8 2.95 0.8 2.45 1.05 1.35 1.45 0.9 M4.15 2.15 L5.9 3.8 4.1 3.75 5.95 4.9 Q6.85 5.65 7.25 6.55 L7.85 8.2 8.25 9.2 Q6.8 8.35 5.3 8.1 L6.9 10.05 7.8 11.1 Q8.2 11.45 8.15 12.3 7.15 11.45 5.75 11.6 L4.8 11.65 7.0 13.45 Q7.8 14.2 8.15 15.25 L8.2 16.15 6.75 15.35 Q6.15 14.9 5.4 14.65 L4.45 14.5 5.7 16.05 6.25 17.15" fill="none" stroke="#21172b" stroke-linecap="round" stroke-linejoin="round" stroke-opacity="0.16078432" stroke-width="2.0"/>
    <path d="M1.45 0.9 L2.1 0.85 2.25 0.85 4.15 2.15 5.9 3.8 4.1 3.75 5.95 4.9 Q6.85 5.65 7.25 6.55 L7.85 8.2 8.25 9.2 Q6.8 8.35 5.3 8.1 L6.9 10.05 7.8 11.1 Q8.2 11.45 8.15 12.3 7.15 11.45 5.75 11.6 L4.8 11.65 7.0 13.45 Q7.8 14.2 8.15 15.25 L8.2 16.15 6.75 15.35 Q6.15 14.9 5.4 14.65 L4.45 14.5 5.7 16.05 6.25 17.15 4.85 16.8 Q3.95 16.25 3.05 15.85 L2.25 15.65 1.7 15.55 Q1.0 14.2 1.2 12.8 L1.4 11.6 1.5 10.7 1.5 9.1 1.5 8.1 1.4 6.5 1.35 5.55 1.25 4.95 0.8 2.95 0.8 2.45 1.05 1.35 1.45 0.9" fill="url(#gradient0)" fill-rule="evenodd" stroke="none"/>
    <path d="M4.15 2.15 L5.9 3.8 4.1 3.75 5.95 4.9 Q6.85 5.65 7.25 6.55 L7.85 8.2 8.25 9.2 Q6.8 8.35 5.3 8.1 L6.9 10.05 7.8 11.1 Q8.2 11.45 8.15 12.3 7.15 11.45 5.75 11.6 L4.8 11.65 7.0 13.45 Q7.8 14.2 8.15 15.25 L8.2 16.15 6.75 15.35 Q6.15 14.9 5.4 14.65 L4.45 14.5 5.7 16.05 6.25 17.15 M1.7 15.55 Q1.0 14.2 1.2 12.8 L1.4 11.6 1.5 10.7 1.5 9.1 1.5 8.1 1.4 6.5 1.35 5.55 1.25 4.95 0.8 2.95 0.8 2.45 1.05 1.35 1.45 0.9" fill="none" stroke="#7e529a" stroke-linecap="round" stroke-linejoin="round" stroke-opacity="0.16078432" stroke-width="1.0"/>
  </g>
  <defs>
    <radialGradient cx="0" cy="0" gradientTransform="matrix(0.0118, 0.0, 0.0, 0.0118, 2.8, 8.5)" gradientUnits="userSpaceOnUse" id="gradient0" r="819.2" spreadMethod="pad">
      <stop offset="0.0" stop-color="#ad7bcc" stop-opacity="0.36078432"/>
      <stop offset="1.0" stop-color="#331e37" stop-opacity="0.101960786"/>
    </radialGradient>
  </defs>
</svg>
