<?xml version="1.0" encoding="UTF-8" standalone="no"?>
<svg xmlns:xlink="http://www.w3.org/1999/xlink" height="20.2px" width="10.35px" xmlns="http://www.w3.org/2000/svg">
  <g transform="matrix(1.0, 0.0, 0.0, 1.0, 0.0, 0.0)">
    <path d="M6.35 0.05 L7.65 0.8 Q9.0 2.0 9.3 4.15 L9.65 6.1 9.8 6.6 Q8.4 8.15 7.8 10.05 L7.6 10.95 Q7.4 13.9 8.85 16.35 L8.25 16.85 5.9 18.25 Q5.15 18.35 4.35 17.6 L3.65 17.15 Q3.6 16.0 4.2 14.75 L4.5 14.1 Q4.85 12.55 4.45 11.0 L3.9 8.85 3.65 8.1 2.15 5.85 1.45 4.9 Q1.5 3.55 2.15 2.3 L2.75 0.75" fill="none" stroke="#e2ffce" stroke-linecap="round" stroke-linejoin="round" stroke-opacity="0.28235295" stroke-width="2.0"/>
    <path d="M6.35 0.05 L7.65 0.8 Q9.0 2.0 9.3 4.15 L9.65 6.1 9.8 6.6 Q8.4 8.15 7.8 10.05 L7.6 10.95 Q7.4 13.9 8.85 16.35 L8.25 16.85 5.9 18.25 Q5.15 18.35 4.35 17.6 L3.65 17.15 Q3.6 16.0 4.2 14.75 L4.5 14.1 Q4.85 12.55 4.45 11.0 L3.9 8.85 3.65 8.1 2.15 5.85 1.45 4.9 Q1.5 3.55 2.15 2.3 L2.75 0.75 2.6 0.35 6.35 0.05" fill="url(#gradient0)" fill-rule="evenodd" stroke="none"/>
    <path d="M6.35 0.05 L7.65 0.8 Q9.0 2.0 9.3 4.15 L9.65 6.1 9.8 6.6 Q8.4 8.15 7.8 10.05 L7.6 10.95 Q7.4 13.9 8.85 16.35 L8.25 16.85 5.9 18.25 Q5.15 18.35 4.35 17.6 L3.65 17.15 Q3.6 16.0 4.2 14.75 L4.5 14.1 Q4.85 12.55 4.45 11.0 L3.9 8.85 3.65 8.1 2.15 5.85 1.45 4.9 Q1.5 3.55 2.15 2.3 L2.75 0.75" fill="none" stroke="#e2ffce" stroke-linecap="round" stroke-linejoin="round" stroke-opacity="0.28235295" stroke-width="1.0"/>
  </g>
  <defs>
    <radialGradient cx="0" cy="0" gradientTransform="matrix(0.0085, 0.0, 0.0, 0.0118, 3.55, 7.75)" gradientUnits="userSpaceOnUse" id="gradient0" r="819.2" spreadMethod="pad">
      <stop offset="0.0" stop-color="#d1f7d2" stop-opacity="0.36078432"/>
      <stop offset="1.0" stop-color="#e5ffef" stop-opacity="0.101960786"/>
    </radialGradient>
  </defs>
</svg>
