<?xml version="1.0" encoding="UTF-8" standalone="no"?>
<svg xmlns:xlink="http://www.w3.org/1999/xlink" height="29.65px" width="18.5px" xmlns="http://www.w3.org/2000/svg">
  <g transform="matrix(1.0, 0.0, 0.0, 1.0, 0.0, 0.0)">
    <path d="M12.65 -3.45 L14.3 -2.8 13.8 -2.6 12.8 -2.2 13.8 -2.0 14.6 -1.65 15.35 -1.0 16.25 -0.25 17.15 0.9 17.65 2.05 17.8 2.55 17.8 2.6 17.75 2.55 Q17.0 2.0 16.05 1.6 L14.6 1.15 14.3 1.0 15.7 2.85 Q16.65 4.3 17.15 5.9 L17.45 7.35 17.5 8.15 17.4 9.7 17.25 11.15 Q16.7 9.5 15.6 8.25 14.7 7.3 13.75 7.0 L14.25 8.5 14.65 11.5 14.7 12.8 14.65 13.5 14.45 14.7 Q14.35 13.7 13.75 13.1 L12.6 12.1 11.95 11.7 12.45 13.4 Q13.15 15.05 13.0 16.8 L12.75 18.55 12.55 19.15 12.25 19.75 11.45 17.75 Q10.8 16.6 9.65 15.85 L10.2 18.5 10.25 19.85 Q10.15 21.65 9.6 23.15 L9.35 23.7 9.0 24.2 8.75 23.05 Q8.5 21.55 7.5 20.05 L6.6 18.85 6.2 18.65 5.8 18.4 5.8 19.05 6.1 21.25 6.6 23.5 5.85 22.85 Q4.75 22.0 4.1 20.7 L3.4 19.1 3.2 18.25 3.15 17.3 2.35 19.75 Q1.95 19.2 1.7 18.0 1.35 16.55 1.55 15.2 L1.7 14.0 1.85 13.05 1.95 12.55 2.2 11.5 2.35 10.3 2.35 9.8 2.35 8.55 2.35 8.0 2.35 7.85 2.25 7.5 2.05 6.85 1.75 6.3 1.6 6.05 1.45 5.15 1.35 4.0 1.3 3.0 1.45 2.1 1.6 1.7 2.0 0.3 2.4 -0.55" fill="none" stroke="#21172b" stroke-linecap="round" stroke-linejoin="round" stroke-opacity="0.16078432" stroke-width="2.0"/>
    <path d="M2.4 -0.55 L2.45 -0.65 2.5 -0.65 3.35 -0.25 4.0 -0.05 6.65 -0.15 7.35 -0.35 9.15 -0.95 10.0 -1.3 10.35 -1.45 10.8 -2.1 11.05 -2.7 11.15 -2.9 11.95 -3.3 12.05 -3.35 12.3 -3.35 12.65 -3.45 14.3 -2.8 13.8 -2.6 12.8 -2.2 13.8 -2.0 14.6 -1.65 15.35 -1.0 16.25 -0.25 17.15 0.9 17.65 2.05 17.8 2.55 17.75 2.55 Q17.0 2.0 16.05 1.6 L14.6 1.15 14.3 1.0 15.7 2.85 Q16.65 4.3 17.15 5.9 L17.45 7.35 17.5 8.15 17.4 9.7 17.25 11.15 Q16.7 9.5 15.6 8.25 14.7 7.3 13.75 7.0 L14.25 8.5 14.65 11.5 14.7 12.8 14.65 13.5 14.45 14.7 Q14.35 13.7 13.75 13.1 L12.6 12.1 11.95 11.7 12.45 13.4 Q13.15 15.05 13.0 16.8 L12.75 18.55 12.55 19.15 12.25 19.75 11.45 17.75 Q10.8 16.6 9.65 15.85 L10.2 18.5 10.25 19.85 Q10.15 21.65 9.6 23.15 L9.35 23.7 9.0 24.2 8.75 23.05 Q8.5 21.55 7.5 20.05 L6.6 18.85 6.2 18.65 5.8 18.4 5.8 19.05 6.1 21.25 6.6 23.5 5.85 22.85 Q4.75 22.0 4.1 20.7 L3.4 19.1 3.2 18.25 3.15 17.3 2.35 19.75 Q1.95 19.2 1.7 18.0 1.35 16.55 1.55 15.2 L1.7 14.0 1.85 13.05 1.95 12.55 2.2 11.5 2.35 10.3 2.35 9.8 2.35 8.55 2.35 8.0 2.35 7.85 2.25 7.5 2.05 6.85 1.75 6.3 1.6 6.05 1.45 5.15 1.35 4.0 1.3 3.0 1.45 2.1 1.6 1.7 2.0 0.3 2.4 -0.55" fill="url(#gradient0)" fill-rule="evenodd" stroke="none"/>
    <path d="M12.65 -3.45 L14.3 -2.8 13.8 -2.6 12.8 -2.2 13.8 -2.0 14.6 -1.65 15.35 -1.0 16.25 -0.25 17.15 0.9 17.65 2.05 17.8 2.55 17.8 2.6 17.75 2.55 Q17.0 2.0 16.05 1.6 L14.6 1.15 14.3 1.0 15.7 2.85 Q16.65 4.3 17.15 5.9 L17.45 7.35 17.5 8.15 17.4 9.7 17.25 11.15 Q16.7 9.5 15.6 8.25 14.7 7.3 13.75 7.0 L14.25 8.5 14.65 11.5 14.7 12.8 14.65 13.5 14.45 14.7 Q14.35 13.7 13.75 13.1 L12.6 12.1 11.95 11.7 12.45 13.4 Q13.15 15.05 13.0 16.8 L12.75 18.55 12.55 19.15 12.25 19.75 11.45 17.75 Q10.8 16.6 9.65 15.85 L10.2 18.5 10.25 19.85 Q10.15 21.65 9.6 23.15 L9.35 23.7 9.0 24.2 8.75 23.05 Q8.5 21.55 7.5 20.05 L6.6 18.85 6.2 18.65 5.8 18.4 5.8 19.05 6.1 21.25 6.6 23.5 5.85 22.85 Q4.75 22.0 4.1 20.7 L3.4 19.1 3.2 18.25 3.15 17.3 2.35 19.75 Q1.95 19.2 1.7 18.0 1.35 16.55 1.55 15.2 L1.7 14.0 1.85 13.05 1.95 12.55 2.2 11.5 2.35 10.3 2.35 9.8 2.35 8.55 2.35 8.0 2.35 7.85 2.25 7.5 2.05 6.85 1.75 6.3 1.6 6.05 1.45 5.15 1.35 4.0 1.3 3.0 1.45 2.1 1.6 1.7 2.0 0.3 2.4 -0.55" fill="none" stroke="#7e529a" stroke-linecap="round" stroke-linejoin="round" stroke-opacity="0.16078432" stroke-width="1.0"/>
  </g>
  <defs>
    <radialGradient cx="0" cy="0" gradientTransform="matrix(0.0118, 0.0, 0.0, 0.0118, 6.0, 6.9)" gradientUnits="userSpaceOnUse" id="gradient0" r="819.2" spreadMethod="pad">
      <stop offset="0.0" stop-color="#ad7bcc" stop-opacity="0.36078432"/>
      <stop offset="1.0" stop-color="#331e37" stop-opacity="0.101960786"/>
    </radialGradient>
  </defs>
</svg>
