<?xml version="1.0" encoding="UTF-8" standalone="no"?>
<svg xmlns:xlink="http://www.w3.org/1999/xlink" height="17.75px" width="11.45px" xmlns="http://www.w3.org/2000/svg">
  <g transform="matrix(1.0, 0.0, 0.0, 1.0, 0.0, 0.0)">
    <path d="M0.9 5.25 Q1.25 4.85 1.45 5.15 L1.5 5.25 1.5 5.45 Q1.45 6.1 0.9 6.0 L0.95 5.55 0.9 5.25 M2.4 5.55 L2.45 5.15 Q2.45 4.8 3.55 4.8 4.6 4.75 4.9 5.1 5.15 5.75 4.55 6.2 L2.75 6.15 2.4 5.55" fill="#ffffff" fill-rule="evenodd" stroke="none"/>
    <path d="M1.5 5.25 L1.55 5.45 1.55 5.6 1.45 5.95 1.45 6.05 1.1 6.35 0.8 6.35 0.75 6.3 0.9 6.0 Q1.45 6.1 1.5 5.45 L1.5 5.25 M4.9 5.1 L5.1 5.45 5.15 5.55 5.1 5.7 5.1 5.75 5.1 5.85 4.9 6.45 4.85 6.5 4.75 6.65 4.65 6.75 3.7 6.95 3.4 6.85 3.2 6.75 2.9 6.55 2.75 6.45 2.45 6.05 2.4 5.75 2.4 5.55 2.75 6.15 4.55 6.2 Q5.15 5.75 4.9 5.1 M2.2 7.7 Q2.05 7.2 2.25 6.45 2.4 5.75 2.4 6.55 L2.35 7.75 2.2 7.7 M1.5 7.5 L1.75 6.5 1.9 6.15 Q2.15 7.2 1.45 7.8 L1.5 7.5" fill="#000000" fill-rule="evenodd" stroke="none"/>
    <path d="M0.85 5.25 L0.9 5.1 0.85 3.85 Q0.75 3.15 1.05 2.6 L1.6 1.5 Q2.05 0.7 3.0 0.35 L6.15 0.15 7.1 0.55 8.3 1.35 Q9.6 2.6 9.65 4.4 9.65 5.6 8.45 5.85 L8.15 6.55 7.7 6.9 7.6 6.95 Q7.3 7.6 7.3 8.3 L7.05 9.4 5.7 10.3 4.25 10.8 5.7 10.3 7.05 9.4 7.3 8.3 Q7.3 7.6 7.6 6.95 L7.7 6.9 8.15 6.55 8.2 6.7 7.55 11.4 Q6.6 11.55 6.2 12.05 L4.85 11.95 Q4.35 11.45 4.25 10.8 L2.85 11.2 Q2.35 11.35 1.85 10.55 1.3 9.75 1.2 9.05 L0.95 8.1 0.8 7.3 0.75 6.45 0.75 6.3 0.8 6.35 1.1 6.35 1.45 6.05 1.45 5.95 1.55 5.6 1.55 5.45 1.5 5.25 1.45 5.15 Q1.25 4.85 0.9 5.25 L0.85 5.25 M6.8 4.75 L7.45 4.3 Q8.4 4.45 8.45 5.5 L8.45 5.85 8.45 5.5 Q8.4 4.45 7.45 4.3 L6.8 4.75 M6.3 4.2 L6.05 4.05 6.0 4.1 5.85 4.35 6.25 4.4 6.3 4.3 6.3 4.2 M5.2 3.7 L5.15 3.65 5.05 3.65 Q4.75 3.7 4.75 4.0 4.95 4.25 5.25 4.0 L5.25 3.9 5.2 3.7 M5.7 3.3 L5.95 3.45 Q6.75 3.2 6.05 2.75 5.5 2.8 5.7 3.3 M2.4 5.55 L2.4 5.75 2.45 6.05 2.75 6.45 2.9 6.55 3.2 6.75 3.4 6.85 3.7 6.95 4.65 6.75 4.75 6.65 4.85 6.5 4.9 6.45 5.1 5.85 5.1 5.75 5.1 5.7 5.15 5.55 5.1 5.45 4.9 5.1 Q4.6 4.75 3.55 4.8 2.45 4.8 2.45 5.15 L2.4 5.55 M2.8 8.7 L2.6 8.65 2.55 8.65 1.95 8.6 2.55 8.65 2.6 8.65 2.8 8.7 2.85 8.3 2.8 8.7 3.1 8.75 3.35 8.8 3.4 8.8 3.45 8.8 3.6 8.85 3.45 8.8 3.4 8.8 3.35 8.8 3.1 8.75 2.8 8.7 2.8 9.25 2.8 8.7 M3.7 8.5 L3.6 8.85 3.7 8.5 M4.4 9.05 L3.9 8.9 3.65 8.85 3.6 8.85 3.65 8.85 3.9 8.9 4.4 9.05 M1.5 7.5 L1.45 7.8 Q2.15 7.2 1.9 6.15 L1.75 6.5 1.5 7.5 M2.2 7.7 L2.35 7.75 2.4 6.55 Q2.4 5.75 2.25 6.45 2.05 7.2 2.2 7.7 M1.95 8.6 L1.95 9.1 1.95 8.6 1.35 8.6 1.95 8.6 1.95 8.25 1.95 8.6 M3.5 9.5 L3.6 8.85 3.5 9.5" fill="#458988" fill-rule="evenodd" stroke="none"/>
    <path d="M5.7 3.3 Q5.5 2.8 6.05 2.75 6.75 3.2 5.95 3.45 L5.7 3.3 M5.2 3.7 L5.25 3.9 5.25 4.0 Q4.95 4.25 4.75 4.0 4.75 3.7 5.05 3.65 L5.15 3.65 5.2 3.7 M6.3 4.2 L6.3 4.3 6.25 4.4 5.85 4.35 6.0 4.1 6.05 4.05 6.3 4.2" fill="#336460" fill-rule="evenodd" stroke="none"/>
    <path d="M8.45 5.85 Q9.65 5.6 9.65 4.4 9.6 2.6 8.3 1.35 L7.1 0.55 6.15 0.15 3.0 0.35 Q2.05 0.7 1.6 1.5 L1.05 2.6 Q0.75 3.15 0.85 3.85 L0.9 5.1 0.85 5.25 M0.9 5.25 Q1.25 4.85 1.45 5.15 L1.5 5.25 1.55 5.45 1.55 5.6 1.45 5.95 1.45 6.05 1.1 6.35 0.8 6.35 0.75 6.3 0.75 6.45 0.8 7.3 0.95 8.1 1.2 9.05 Q1.3 9.75 1.85 10.55 2.35 11.35 2.85 11.2 L4.25 10.8 5.7 10.3 7.05 9.4 7.3 8.3 Q7.3 7.6 7.6 6.95 L7.7 6.9 8.15 6.55 8.45 5.85 8.45 5.5 Q8.4 4.45 7.45 4.3 L6.8 4.75 M4.9 5.1 L5.1 5.45 5.15 5.55 5.1 5.7 5.1 5.75 5.1 5.85 4.9 6.45 4.85 6.5 4.75 6.65 4.65 6.75 3.7 6.95 3.4 6.85 3.2 6.75 2.9 6.55 2.75 6.45 2.45 6.05 2.4 5.75 2.4 5.55 2.45 5.15 Q2.45 4.8 3.55 4.8 4.6 4.75 4.9 5.1 5.15 5.75 4.55 6.2 L2.75 6.15 2.4 5.55 M0.9 5.25 L0.95 5.55 0.9 6.0 Q1.45 6.1 1.5 5.45 L1.5 5.25 M1.95 8.6 L2.55 8.65 2.6 8.65 2.8 8.7 3.1 8.75 3.35 8.8 3.4 8.8 3.45 8.8 3.6 8.85 3.65 8.85 3.9 8.9 4.4 9.05 M1.5 7.5 L1.45 7.8 Q2.15 7.2 1.9 6.15 L1.75 6.5 1.5 7.5 M2.2 7.7 L2.35 7.75 2.4 6.55 Q2.4 5.75 2.25 6.45 2.05 7.2 2.2 7.7 M1.95 8.6 L1.35 8.6 M4.25 10.8 Q4.35 11.45 4.85 11.95 M7.55 11.4 L8.2 6.7 8.15 6.55 M0.9 6.0 L0.75 6.3" fill="none" stroke="#000000" stroke-linecap="round" stroke-linejoin="round" stroke-width="0.05"/>
    <path d="M2.8 8.7 L2.85 8.3 M3.6 8.85 L3.7 8.5 M2.8 8.7 L2.8 9.25 M1.95 9.1 L1.95 8.6 1.95 8.25 M3.6 8.85 L3.5 9.5" fill="none" stroke="#000000" stroke-linecap="round" stroke-linejoin="round" stroke-width="0.05"/>
    <path d="M1.55 -1.65 L0.75 -0.7 Q0.7 0.0 0.95 0.7 L1.4 2.0 1.5 2.7 M4.05 -2.5 L4.6 -1.85 Q4.15 -0.6 3.35 0.5 L3.1 0.95 Q3.2 1.6 3.65 1.9 M2.7 -2.2 Q3.3 -1.5 2.65 -0.8 2.0 0.0 2.05 0.95 L2.25 1.85 2.35 2.3 M5.85 -2.45 L6.1 -1.65 6.15 -1.4 4.35 0.75 4.25 1.05 4.55 1.7 M8.3 -2.5 L8.4 -1.7 Q8.0 -0.65 7.1 0.05 6.4 0.5 5.8 1.05 L5.75 1.6 6.0 2.0 M11.8 2.4 L11.25 2.9 8.95 3.15 8.55 3.45 8.4 3.9 M10.75 0.7 L10.55 1.2 8.95 1.85 Q8.35 2.1 8.0 2.65 7.75 3.1 7.75 3.65 M10.1 -0.75 L8.75 0.35 7.7 1.2 7.05 1.7 6.95 2.15 7.1 2.55 M0.6 1.95 L1.0 2.3 1.15 3.05 M0.35 14.1 L0.4 12.9 Q0.5 12.15 0.9 11.5 L1.6 10.0 1.65 9.7 Q1.45 9.75 1.3 9.9 L0.5 10.7 M1.45 15.25 Q0.75 14.75 0.95 13.9 L1.2 12.85 1.8 11.5 2.35 10.5 2.15 9.9 M4.95 13.45 L4.85 11.95 4.6 10.45 4.35 9.8 M2.5 14.85 Q2.15 13.95 2.3 13.1 L2.65 11.7 2.9 10.6 2.75 10.0 M3.65 14.7 Q3.55 13.7 3.7 12.85 L3.9 11.45 3.8 10.5 3.5 9.9 M5.5 11.05 L5.15 10.0" fill="none" stroke="#ffffff" stroke-linecap="round" stroke-linejoin="round" stroke-width="0.05"/>
  </g>
</svg>
