<?xml version="1.0" encoding="UTF-8" standalone="no"?>
<svg xmlns:xlink="http://www.w3.org/1999/xlink" height="23.15px" width="20.45px" xmlns="http://www.w3.org/2000/svg">
  <g transform="matrix(1.0, 0.0, 0.0, 1.0, 0.0, 0.0)">
    <path d="M2.7 -0.45 L3.0 2.2 Q3.7 2.1 4.35 0.7 L4.95 -0.45 Q5.45 1.0 5.4 2.45 L7.1 0.8 7.7 -0.05 Q8.45 2.6 7.9 5.3 L5.3 4.4 5.3 6.05 Q4.2 6.0 3.1 5.4 L2.65 3.85 Q1.25 4.85 1.25 6.5 0.4 5.25 0.35 3.8 -1.55 5.3 -0.4 7.75 L0.65 9.45 1.4 10.5 Q0.75 11.8 1.15 13.3 L3.4 11.3 Q3.75 12.85 3.0 14.35 L2.75 15.15 3.3 15.05 Q5.8 14.0 6.2 11.3 6.9 13.75 5.9 16.0 8.8 14.3 9.45 10.95 L9.5 10.3 Q10.5 13.05 12.85 14.6 L13.7 15.05 Q11.85 12.8 11.7 10.0 13.85 11.35 16.55 11.55 L17.3 11.5 13.7 8.05 17.6 8.2 Q15.55 6.85 13.9 5.05 12.6 3.65 12.6 1.85 12.6 0.75 12.25 -0.4 10.1 -2.7 7.45 -4.2 L5.2 -5.15 Q2.25 -4.6 0.9 -2.0 -0.1 0.0 0.5 2.15 L0.9 1.5 1.15 1.05 Q1.7 0.1 2.45 -0.4 L2.7 -0.45 M0.9 1.5 L0.85 2.15 0.35 3.8" fill="none" stroke="#21172b" stroke-linecap="round" stroke-linejoin="round" stroke-opacity="0.16078432" stroke-width="2.0"/>
    <path d="M0.35 3.8 Q0.4 5.25 1.25 6.5 1.25 4.85 2.65 3.85 L3.1 5.4 Q4.2 6.0 5.3 6.05 L5.3 4.4 7.9 5.3 Q8.45 2.6 7.7 -0.05 L7.1 0.8 5.4 2.45 Q5.45 1.0 4.95 -0.45 L4.35 0.7 Q3.7 2.1 3.0 2.2 L2.7 -0.45 2.45 -0.4 Q1.7 0.1 1.15 1.05 L0.9 1.5 0.5 2.15 Q-0.1 0.0 0.9 -2.0 2.25 -4.6 5.2 -5.15 L7.45 -4.2 Q10.1 -2.7 12.25 -0.4 12.6 0.75 12.6 1.85 12.6 3.65 13.9 5.05 15.55 6.85 17.6 8.2 L13.7 8.05 17.3 11.5 16.55 11.55 Q13.85 11.35 11.7 10.0 11.85 12.8 13.7 15.05 L12.85 14.6 Q10.5 13.05 9.5 10.3 L9.45 10.95 Q8.8 14.3 5.9 16.0 6.9 13.75 6.2 11.3 5.8 14.0 3.3 15.05 L2.75 15.15 3.0 14.35 Q3.75 12.85 3.4 11.3 L1.15 13.3 Q0.75 11.8 1.4 10.5 L0.65 9.45 -0.4 7.75 Q-1.55 5.3 0.35 3.8" fill="url(#gradient0)" fill-rule="evenodd" stroke="none"/>
    <path d="M0.9 1.5 L1.15 1.05 Q1.7 0.1 2.45 -0.4 L2.7 -0.45 3.0 2.2 Q3.7 2.1 4.35 0.7 L4.95 -0.45 Q5.45 1.0 5.4 2.45 L7.1 0.8 7.7 -0.05 Q8.45 2.6 7.9 5.3 L5.3 4.4 5.3 6.05 Q4.2 6.0 3.1 5.4 L2.65 3.85 Q1.25 4.85 1.25 6.5 0.4 5.25 0.35 3.8 L0.85 2.15 0.9 1.5" fill="#552811" fill-opacity="0.34117648" fill-rule="evenodd" stroke="none"/>
    <path d="M0.9 1.5 L1.15 1.05 Q1.7 0.1 2.45 -0.4 L2.7 -0.45 3.0 2.2 Q3.7 2.1 4.35 0.7 L4.95 -0.45 Q5.45 1.0 5.4 2.45 L7.1 0.8 7.7 -0.05 Q8.45 2.6 7.9 5.3 L5.3 4.4 5.3 6.05 Q4.2 6.0 3.1 5.4 L2.65 3.85 Q1.25 4.85 1.25 6.5 0.4 5.25 0.35 3.8 -1.55 5.3 -0.4 7.75 L0.65 9.45 1.4 10.5 Q0.75 11.8 1.15 13.3 L3.4 11.3 Q3.75 12.85 3.0 14.35 L2.75 15.15 3.3 15.05 Q5.8 14.0 6.2 11.3 6.9 13.75 5.9 16.0 8.8 14.3 9.45 10.95 L9.5 10.3 Q10.5 13.05 12.85 14.6 L13.7 15.05 Q11.85 12.8 11.7 10.0 13.85 11.35 16.55 11.55 L17.3 11.5 13.7 8.05 17.6 8.2 Q15.55 6.85 13.9 5.05 12.6 3.65 12.6 1.85 12.6 0.75 12.25 -0.4 10.1 -2.7 7.45 -4.2 L5.2 -5.15 Q2.25 -4.6 0.9 -2.0 -0.1 0.0 0.5 2.15 L0.9 1.5 0.85 2.15 0.35 3.8" fill="none" stroke="#7e529a" stroke-linecap="round" stroke-linejoin="round" stroke-opacity="0.16078432" stroke-width="1.0"/>
  </g>
  <defs>
    <radialGradient cx="0" cy="0" gradientTransform="matrix(0.0118, 0.0, 0.0, 0.0118, 3.6, 3.95)" gradientUnits="userSpaceOnUse" id="gradient0" r="819.2" spreadMethod="pad">
      <stop offset="0.0" stop-color="#ad7bcc" stop-opacity="0.36078432"/>
      <stop offset="1.0" stop-color="#331e37" stop-opacity="0.101960786"/>
    </radialGradient>
  </defs>
</svg>
