<?xml version="1.0" encoding="UTF-8" standalone="no"?>
<svg xmlns:xlink="http://www.w3.org/1999/xlink" height="19.75px" width="12.35px" xmlns="http://www.w3.org/2000/svg">
  <g transform="matrix(1.0, 0.0, 0.0, 1.0, 0.0, 0.0)">
    <path d="M7.65 11.15 L7.65 10.8 7.8 10.5 7.95 10.1 8.05 9.75 Q8.35 9.3 8.25 8.7 L8.1 8.85 7.8 9.25 7.65 9.65 Q7.6 9.2 7.7 8.8 L8.1 7.7 9.0 6.5 9.5 5.7 9.8 4.8 10.0 4.05 9.35 4.4 8.3 5.2 8.1 5.45 Q8.05 5.05 8.15 4.75 8.3 4.05 8.6 3.5 L9.7 1.9 10.85 0.3 Q11.35 -0.5 11.25 -1.7 L10.9 -1.35 10.2 -0.8 9.4 -0.35 Q8.9 0.0 8.5 0.5 L8.45 -0.45 8.6 -1.35 9.65 -3.3 Q10.05 -3.95 9.95 -4.8 L9.85 -5.75 9.75 -6.0 9.4 -5.4 8.6 -4.35 7.4 -3.2 Q6.6 -2.5 5.6 -2.15 L5.8 -2.95 6.2 -3.85 Q6.4 -4.3 6.05 -4.75 L5.95 -4.55 5.55 -3.7 4.5 -2.5 3.0 -1.1 2.1 0.2 2.0 -0.35 1.95 -0.5 1.85 -0.6 1.65 -0.95 1.75 0.15 1.6 1.35 1.15 2.85 0.9 3.65 Q0.85 4.35 0.95 5.05 L1.2 6.3 Q1.4 7.1 1.95 7.8 L3.2 9.25 3.9 10.35 4.7 11.75" fill="none" stroke="#94fed4" stroke-linecap="round" stroke-linejoin="round" stroke-opacity="0.2509804" stroke-width="2.0"/>
    <path d="M4.95 4.55 L4.2 4.6 4.1 4.3 4.2 3.75 Q4.75 3.25 5.1 4.1 L4.95 4.55 M1.45 4.95 L1.2 4.75 Q0.7 4.0 1.55 3.7 L2.15 4.25 2.0 4.5 1.45 4.95" fill="#e6fff5" fill-rule="evenodd" stroke="none"/>
    <path d="M4.7 11.75 L3.9 10.35 3.2 9.25 1.95 7.8 Q1.4 7.1 1.2 6.3 L0.95 5.05 Q0.85 4.35 0.9 3.65 L1.15 2.85 1.6 1.35 1.75 0.15 1.65 -0.95 1.85 -0.6 1.95 -0.5 2.0 -0.35 2.1 0.2 3.0 -1.1 4.5 -2.5 5.55 -3.7 5.95 -4.55 6.05 -4.75 Q6.4 -4.3 6.2 -3.85 L5.8 -2.95 5.6 -2.15 Q6.6 -2.5 7.4 -3.2 L8.6 -4.35 9.4 -5.4 9.75 -6.0 9.85 -5.75 9.95 -4.8 Q10.05 -3.95 9.65 -3.3 L8.6 -1.35 8.45 -0.45 8.5 0.5 Q8.9 0.0 9.4 -0.35 L10.2 -0.8 10.9 -1.35 11.25 -1.7 Q11.35 -0.5 10.85 0.3 L9.7 1.9 8.6 3.5 Q8.3 4.05 8.15 4.75 8.05 5.05 8.1 5.45 L8.3 5.2 9.35 4.4 10.0 4.05 9.8 4.8 9.5 5.7 9.0 6.5 8.1 7.7 7.7 8.8 Q7.6 9.2 7.65 9.65 L7.8 9.25 8.1 8.85 8.25 8.7 Q8.35 9.3 8.05 9.75 L7.95 10.1 7.8 10.5 7.65 10.8 7.65 11.15 7.3 11.45 6.6 11.65 4.7 11.75 M1.45 4.95 L2.0 4.5 2.15 4.25 1.55 3.7 Q0.7 4.0 1.2 4.75 L1.45 4.95 M4.95 4.55 L5.1 4.1 Q4.75 3.25 4.2 3.75 L4.1 4.3 4.2 4.6 4.95 4.55" fill="url(#gradient0)" fill-rule="evenodd" stroke="none"/>
    <path d="M9.75 -6.0 L9.4 -5.4 8.6 -4.35 7.4 -3.2 Q6.6 -2.5 5.6 -2.15 L5.8 -2.95 6.2 -3.85 Q6.4 -4.3 6.05 -4.75 L5.95 -4.55 5.55 -3.7 4.5 -2.5 3.0 -1.1 2.1 0.2 2.0 -0.35 1.95 -0.5 1.85 -0.6 1.65 -0.95 1.75 0.15 1.6 1.35 1.15 2.85 0.9 3.65 Q0.85 4.35 0.95 5.05 L1.2 6.3 Q1.4 7.1 1.95 7.8 L3.2 9.25 3.9 10.35 4.7 11.75 M7.65 11.15 L7.65 10.8 7.8 10.5 7.95 10.1 8.05 9.75 Q8.35 9.3 8.25 8.7 L8.1 8.85 7.8 9.25 7.65 9.65 Q7.6 9.2 7.7 8.8 L8.1 7.7 9.0 6.5 9.5 5.7 9.8 4.8 10.0 4.05 9.35 4.4 8.3 5.2 8.1 5.45 Q8.05 5.05 8.15 4.75 8.3 4.05 8.6 3.5 L9.7 1.9 10.85 0.3 Q11.35 -0.5 11.25 -1.7 L10.9 -1.35 10.2 -0.8 9.4 -0.35 Q8.9 0.0 8.5 0.5 L8.45 -0.45 8.6 -1.35 9.65 -3.3 Q10.05 -3.95 9.95 -4.8 L9.85 -5.75 9.75 -6.0" fill="none" stroke="#03ef85" stroke-linecap="round" stroke-linejoin="round" stroke-opacity="0.16078432" stroke-width="1.0"/>
  </g>
  <defs>
    <radialGradient cx="0" cy="0" gradientTransform="matrix(0.0118, 0.0, 0.0, 0.0118, 3.6, 3.95)" gradientUnits="userSpaceOnUse" id="gradient0" r="819.2" spreadMethod="pad">
      <stop offset="0.0" stop-color="#57f7d2" stop-opacity="0.36078432"/>
      <stop offset="1.0" stop-color="#c5fcef" stop-opacity="0.101960786"/>
    </radialGradient>
  </defs>
</svg>
