<?xml version="1.0" encoding="UTF-8" standalone="no"?>
<svg xmlns:xlink="http://www.w3.org/1999/xlink" height="16.9px" width="17.7px" xmlns="http://www.w3.org/2000/svg">
  <g transform="matrix(1.0, 0.0, 0.0, 1.0, 0.0, 0.0)">
    <path d="M12.95 13.85 L12.6 14.6 Q11.45 14.65 10.45 15.15 9.8 15.45 9.25 15.95 L8.1 16.9 7.25 15.2 7.2 14.8 7.1 14.25 7.45 13.4 Q7.85 12.5 8.6 12.3 L9.15 12.25 8.6 12.3 Q7.85 12.5 7.45 13.4 L7.1 14.25 7.1 14.5 5.2 14.3 Q4.15 14.35 3.55 15.0 L2.85 15.6 2.75 15.35 Q2.55 14.7 2.85 13.85 L3.25 12.75 1.5 12.9 Q0.7 13.1 0.0 13.55 L0.35 12.15 Q0.6 11.45 1.0 10.8 1.2 10.45 1.55 10.25 1.9 10.05 2.35 10.0 L4.6 10.0 Q5.15 10.15 5.65 10.65 L5.8 11.25 6.95 10.9 8.8 11.0 8.9 11.25 9.15 12.25 Q10.0 12.25 10.6 11.75 L11.0 11.45 11.7 11.1 11.95 11.15 12.95 13.85 M7.15 11.4 L6.45 11.5 Q3.75 12.0 3.35 14.6 3.75 12.0 6.45 11.5 L7.15 11.4 M3.85 10.45 L2.1 10.8 0.65 12.75 2.1 10.8 3.85 10.45 M3.25 12.75 Q3.65 12.15 4.35 11.8 L5.8 11.25 4.35 11.8 Q3.65 12.15 3.25 12.75 M10.25 12.3 L9.65 12.8 Q8.3 14.1 8.25 16.05 8.3 14.1 9.65 12.8 L10.25 12.3" fill="#552811" fill-rule="evenodd" stroke="none"/>
    <path d="M4.6 10.0 Q3.9 9.6 4.75 9.35 L6.25 9.1 Q6.95 9.05 7.55 8.45 L8.45 7.7 Q9.1 7.2 9.95 6.75 10.65 5.6 10.35 3.9 L10.15 2.6 9.8 1.3 9.55 0.95 9.25 0.65 Q10.7 0.0 12.25 0.15 L13.05 0.0 14.25 3.05 15.1 5.6 Q15.9 5.85 16.35 6.5 L16.6 6.9 15.6 6.95 Q16.6 7.3 17.15 8.0 L17.4 8.4 Q16.7 8.0 15.9 8.4 17.1 9.05 17.7 10.3 L15.85 10.15 Q17.15 10.6 17.35 11.9 L17.35 11.95 15.25 11.75 16.1 12.9 14.2 13.0 12.95 13.85 11.95 11.15 11.7 11.1 11.0 11.45 10.6 11.75 Q10.0 12.25 9.15 12.25 L8.9 11.25 8.8 11.0 6.95 10.9 5.8 11.25 5.65 10.65 Q5.15 10.15 4.6 10.0" fill="url(#gradient0)" fill-rule="evenodd" stroke="none"/>
    <path d="M4.6 10.0 Q3.9 9.6 4.75 9.35 L6.25 9.1 Q6.95 9.05 7.55 8.45 L8.45 7.7 Q9.1 7.2 9.95 6.75 10.65 5.6 10.35 3.9 L10.15 2.6 9.8 1.3 9.55 0.95 9.25 0.65 Q10.7 0.0 12.25 0.15 L13.05 0.0 14.25 3.05 15.1 5.6 M14.2 13.0 L12.95 13.85 12.6 14.6 Q11.45 14.65 10.45 15.15 9.8 15.45 9.25 15.95 L8.1 16.9 7.25 15.2 7.1 14.5 5.2 14.3 Q4.15 14.35 3.55 15.0 L2.85 15.6 2.75 15.35 Q2.55 14.7 2.85 13.85 L3.25 12.75 1.5 12.9 Q0.7 13.1 0.0 13.55 L0.35 12.15 Q0.6 11.45 1.0 10.8 1.2 10.45 1.55 10.25 1.9 10.05 2.35 10.0 L4.6 10.0 M5.8 11.25 L6.95 10.9 M9.15 12.25 Q10.0 12.25 10.6 11.75 L11.0 11.45 M9.15 12.25 L8.6 12.3 Q7.85 12.5 7.45 13.4 L7.1 14.25 7.2 14.8 7.25 15.2 M5.8 11.25 L4.35 11.8 Q3.65 12.15 3.25 12.75 M7.1 14.25 L7.1 14.5 7.2 14.8" fill="none" stroke="#000000" stroke-linecap="round" stroke-linejoin="round" stroke-width="0.05"/>
    <path d="M15.1 5.6 Q15.9 5.85 16.35 6.5 L16.6 6.9 15.6 6.95 Q16.6 7.3 17.15 8.0 L17.4 8.4 Q16.7 8.0 15.9 8.4 17.1 9.05 17.7 10.3 L15.85 10.15 Q17.15 10.6 17.35 11.9 L17.35 11.95 15.25 11.75 16.1 12.9 14.2 13.0 M4.6 10.0 Q5.15 10.15 5.65 10.65 L5.8 11.25 M6.95 10.9 L8.8 11.0 8.9 11.25 9.15 12.25 M11.0 11.45 L11.7 11.1 11.95 11.15 12.95 13.85" fill="none" stroke="#000000" stroke-linecap="round" stroke-linejoin="round" stroke-width="0.05"/>
    <path d="M0.65 12.75 L2.1 10.8 3.85 10.45 M3.35 14.6 Q3.75 12.0 6.45 11.5 L7.15 11.4 M8.25 16.05 Q8.3 14.1 9.65 12.8 L10.25 12.3" fill="none" stroke="#ffcc00" stroke-linecap="round" stroke-linejoin="round" stroke-width="0.05"/>
  </g>
  <defs>
    <linearGradient gradientTransform="matrix(-7.0E-4, 0.0097, -0.0098, -7.0E-4, 12.6, 8.0)" gradientUnits="userSpaceOnUse" id="gradient0" spreadMethod="pad" x1="-819.2" x2="819.2">
      <stop offset="0.0" stop-color="#533a24"/>
      <stop offset="0.2980392156862745" stop-color="#604428"/>
      <stop offset="1.0" stop-color="#efd8a9"/>
    </linearGradient>
  </defs>
</svg>
