<?xml version="1.0" encoding="UTF-8" standalone="no"?>
<svg xmlns:xlink="http://www.w3.org/1999/xlink" height="13.25px" width="17.45px" xmlns="http://www.w3.org/2000/svg">
  <g transform="matrix(1.0, 0.0, 0.0, 1.0, 0.0, 0.0)">
    <path d="M3.85 2.9 L4.35 2.65 Q5.8 2.05 7.1 1.8 L6.95 2.05 8.2 1.65 10.95 1.55 9.65 2.55 10.6 2.4 Q12.85 2.65 14.85 1.6 L16.05 0.55 Q16.65 -0.3 17.1 0.15 L17.1 0.55 16.95 1.7 Q15.8 3.85 13.6 5.2 15.6 4.8 17.15 3.65 L17.55 3.35 17.25 4.8 16.65 6.05 Q15.7 7.45 14.15 8.1 L15.55 8.0 Q15.1 9.25 14.25 10.0 13.25 10.95 12.1 11.15 L13.1 11.3 Q11.15 13.15 8.45 13.15 7.3 13.35 5.95 13.15 4.0 12.65 2.65 11.4 L1.65 10.3 Q1.2 9.7 1.1 8.95 0.9 7.6 0.25 6.7 L0.1 6.5 Q0.35 5.95 0.75 5.5 L2.55 3.75 3.85 2.9 Q5.15 3.5 5.6 4.9 5.9 5.9 6.35 6.0 L6.55 5.95 Q6.95 6.0 7.25 6.2 8.15 6.75 8.9 6.7 9.9 6.45 9.4 5.55 9.9 6.45 8.9 6.7 8.15 6.75 7.25 6.2 6.95 6.0 6.55 5.95 L6.35 6.0 Q5.9 5.9 5.6 4.9 5.15 3.5 3.85 2.9 M4.45 8.0 L4.3 6.45 Q4.25 5.45 3.55 4.85 L2.55 3.75 3.55 4.85 Q4.25 5.45 4.3 6.45 L4.45 8.0" fill="url(#gradient0)" fill-rule="evenodd" stroke="none"/>
    <path d="M2.55 3.75 L0.75 5.5 Q0.35 5.95 0.1 6.5 L0.25 6.7 Q0.9 7.6 1.1 8.95 1.2 9.7 1.65 10.3 L2.65 11.4 Q4.0 12.65 5.95 13.15 7.3 13.35 8.45 13.15 11.15 13.15 13.1 11.3 L12.1 11.15 Q13.25 10.95 14.25 10.0 15.1 9.25 15.55 8.0 L14.15 8.1 Q15.7 7.45 16.65 6.05 L17.25 4.8 17.55 3.35 17.15 3.65 Q15.6 4.8 13.6 5.2 15.8 3.85 16.95 1.7 L17.1 0.55 17.1 0.15 Q16.65 -0.3 16.05 0.55 L14.85 1.6 Q12.85 2.65 10.6 2.4 L9.65 2.55 10.95 1.55 8.2 1.65 6.95 2.05 7.1 1.8 Q5.8 2.05 4.35 2.65 L3.85 2.9 2.55 3.75" fill="none" stroke="#000000" stroke-linecap="round" stroke-linejoin="round" stroke-width="0.05"/>
    <path d="M3.85 2.9 Q5.15 3.5 5.6 4.9 5.9 5.9 6.35 6.0 L6.55 5.95 Q6.95 6.0 7.25 6.2 8.15 6.75 8.9 6.7 9.9 6.45 9.4 5.55 M2.55 3.75 L3.55 4.85 Q4.25 5.45 4.3 6.45 L4.45 8.0" fill="none" stroke="#000000" stroke-linecap="round" stroke-linejoin="round" stroke-width="1.0"/>
  </g>
  <defs>
    <linearGradient gradientTransform="matrix(-7.0E-4, 0.0097, -0.0098, -7.0E-4, 12.6, 8.0)" gradientUnits="userSpaceOnUse" id="gradient0" spreadMethod="pad" x1="-819.2" x2="819.2">
      <stop offset="0.0" stop-color="#342d25"/>
      <stop offset="1.0" stop-color="#736742"/>
    </linearGradient>
  </defs>
</svg>
