<?xml version="1.0" encoding="UTF-8" standalone="no"?>
<svg xmlns:xlink="http://www.w3.org/1999/xlink" height="22.55px" width="17.15px" xmlns="http://www.w3.org/2000/svg">
  <g transform="matrix(1.0, 0.0, 0.0, 1.0, 0.0, 0.0)">
    <path d="M8.75 -7.5 L10.05 -2.5 Q10.4 -5.2 12.15 -7.25 13.2 -8.55 14.8 -8.8 13.2 -4.35 10.9 -0.3 12.5 -1.95 14.7 -2.15 L17.35 -1.75 Q17.75 -0.85 16.35 -0.5 L12.3 0.45 12.35 2.05 12.2 2.9 Q17.7 8.6 11.55 12.6 10.4 13.4 9.1 13.6 1.8 14.75 0.35 7.3 0.0 5.45 1.4 4.3 4.85 1.55 9.2 2.0 L9.15 1.35 10.25 -0.55 10.05 -2.45 9.75 -0.3 Q7.65 -2.75 8.0 -5.95 L8.35 -7.7 8.75 -7.5" fill="#000000" fill-rule="evenodd" stroke="none"/>
  </g>
</svg>
