<?xml version="1.0" encoding="UTF-8" standalone="no"?>
<svg xmlns:xlink="http://www.w3.org/1999/xlink" height="13.5px" width="9.9px" xmlns="http://www.w3.org/2000/svg">
  <g transform="matrix(1.0, 0.0, 0.0, 1.0, 0.0, 0.0)">
    <path d="M0.85 0.0 Q4.45 0.1 7.9 0.95 L8.1 1.05 Q8.0 2.3 7.5 3.75 7.2 4.6 7.3 5.6 L7.65 7.35 8.1 8.45 8.35 8.65 Q9.05 9.3 9.9 8.95 L9.1 11.75 8.85 12.4 Q6.4 13.9 3.5 13.35 L2.75 13.3 1.95 11.7 Q0.95 9.3 0.35 6.8 -0.2 4.55 0.15 2.3 0.3 1.1 0.85 0.0" fill="url(#gradient0)" fill-rule="evenodd" stroke="none"/>
    <path d="M8.1 1.05 Q8.0 2.3 7.5 3.75 7.2 4.6 7.3 5.6 L7.65 7.35 8.1 8.45 8.35 8.65 Q9.05 9.3 9.9 8.95 M8.85 12.4 Q6.4 13.9 3.5 13.35 L2.75 13.3 1.95 11.7 Q0.95 9.3 0.35 6.8 -0.2 4.55 0.15 2.3 0.3 1.1 0.85 0.0" fill="none" stroke="#000000" stroke-linecap="round" stroke-linejoin="round" stroke-width="0.05"/>
  </g>
  <defs>
    <linearGradient gradientTransform="matrix(0.0066, 0.0086, -0.0078, 0.006, 13.35, 7.3)" gradientUnits="userSpaceOnUse" id="gradient0" spreadMethod="pad" x1="-819.2" x2="819.2">
      <stop offset="0.0" stop-color="#723356"/>
      <stop offset="1.0" stop-color="#fefdce"/>
    </linearGradient>
  </defs>
</svg>
