<?xml version="1.0" encoding="UTF-8" standalone="no"?>
<svg xmlns:xlink="http://www.w3.org/1999/xlink" height="13.5px" width="9.85px" xmlns="http://www.w3.org/2000/svg">
  <g transform="matrix(1.0, 0.0, 0.0, 1.0, 0.0, 0.0)">
    <path d="M0.85 0.0 Q4.45 0.1 7.9 0.95 L8.1 1.05 Q8.0 2.3 7.5 3.75 7.2 4.6 7.3 5.6 L7.65 7.35 8.1 8.45 8.35 8.65 Q9.05 9.3 9.9 8.95 L9.1 11.75 8.85 12.4 Q7.75 13.1 6.55 13.35 L6.65 10.1 6.2 11.15 4.9 13.5 3.5 13.35 2.75 13.3 1.95 11.7 1.8 11.35 2.4 11.3 Q5.0 10.4 4.9 7.6 L4.75 7.65 Q2.9 8.6 0.8 8.5 L0.35 6.8 0.1 5.5 Q2.4 5.25 4.05 3.85 L4.4 3.6 0.05 3.95 0.15 2.3 Q0.3 1.1 0.85 0.0" fill="url(#gradient0)" fill-rule="evenodd" stroke="none"/>
    <path d="M6.55 13.35 L4.9 13.5 6.2 11.15 6.65 10.1 6.55 13.35 M1.8 11.35 L0.8 8.5 Q2.9 8.6 4.75 7.65 L4.9 7.6 Q5.0 10.4 2.4 11.3 L1.8 11.35 M0.1 5.5 L0.05 3.95 4.4 3.6 4.05 3.85 Q2.4 5.25 0.1 5.5" fill="url(#gradient1)" fill-rule="evenodd" stroke="none"/>
    <path d="M8.1 1.05 Q8.0 2.3 7.5 3.75 7.2 4.6 7.3 5.6 L7.65 7.35 8.1 8.45 8.35 8.65 Q9.05 9.3 9.9 8.95 M8.85 12.4 Q7.75 13.1 6.55 13.35 L4.9 13.5 3.5 13.35 2.75 13.3 1.95 11.7 1.8 11.35 0.8 8.5 0.35 6.8 0.1 5.5 0.05 3.95 0.15 2.3 Q0.3 1.1 0.85 0.0" fill="none" stroke="#000000" stroke-linecap="round" stroke-linejoin="round" stroke-width="0.05"/>
  </g>
  <defs>
    <linearGradient gradientTransform="matrix(0.0066, 0.0086, -0.0078, 0.006, 13.35, 7.3)" gradientUnits="userSpaceOnUse" id="gradient0" spreadMethod="pad" x1="-819.2" x2="819.2">
      <stop offset="0.0" stop-color="#533a24"/>
      <stop offset="0.2980392156862745" stop-color="#604428"/>
      <stop offset="1.0" stop-color="#efd8a9"/>
    </linearGradient>
    <linearGradient gradientTransform="matrix(0.0066, 0.0086, -0.0078, 0.006, 13.35, 7.3)" gradientUnits="userSpaceOnUse" id="gradient1" spreadMethod="pad" x1="-819.2" x2="819.2">
      <stop offset="0.0" stop-color="#291b12"/>
      <stop offset="0.2980392156862745" stop-color="#422e1c"/>
      <stop offset="1.0" stop-color="#cf8b27"/>
    </linearGradient>
  </defs>
</svg>
