<?xml version="1.0" encoding="UTF-8" standalone="no"?>
<svg xmlns:xlink="http://www.w3.org/1999/xlink" height="10.7px" width="22.4px" xmlns="http://www.w3.org/2000/svg">
  <g transform="matrix(1.0, 0.0, 0.0, 1.0, 0.0, 0.0)">
    <path d="M20.4 1.55 L21.45 0.65 21.3 1.95 20.95 3.1 22.25 2.75 22.3 3.4 21.5 4.15 20.6 4.7 22.45 6.15 22.45 6.45 19.95 6.4 Q20.95 7.1 21.2 8.0 L21.2 8.5 18.35 7.2 18.8 8.1 Q19.55 9.7 18.8 10.7 L15.85 7.2 15.9 8.1 12.6 6.15 Q8.7 3.95 5.4 6.8 L4.6 6.5 Q1.7 4.65 0.2 1.4 L0.15 1.3 Q4.7 0.75 8.85 2.2 13.25 3.7 17.15 1.35 L17.3 1.05 18.05 0.3 18.65 0.0 19.0 1.15 20.0 0.15 20.4 1.55" fill="url(#gradient0)" fill-rule="evenodd" stroke="none"/>
    <path d="M20.4 1.55 L20.0 0.15 19.0 1.15 18.65 0.0 18.05 0.3 17.3 1.05 17.15 1.35 Q13.25 3.7 8.85 2.2 4.7 0.75 0.15 1.3 L0.2 1.4 Q1.7 4.65 4.6 6.5 L5.4 6.8 Q8.7 3.95 12.6 6.15 L15.9 8.1 15.85 7.2 18.8 10.7 Q19.55 9.7 18.8 8.1 L18.35 7.2 21.2 8.5 21.2 8.0 Q20.95 7.1 19.95 6.4 L22.45 6.45 22.45 6.15 20.6 4.7 21.5 4.15 22.3 3.4 22.25 2.75 20.95 3.1 21.3 1.95 21.45 0.65 20.4 1.55 M0.15 1.3 L0.1 1.25 0.2 1.4" fill="none" stroke="#000000" stroke-linecap="round" stroke-linejoin="round" stroke-width="0.05"/>
  </g>
  <defs>
    <linearGradient gradientTransform="matrix(0.0172, 0.0, 0.0, 0.01, 10.75, -19.3)" gradientUnits="userSpaceOnUse" id="gradient0" spreadMethod="pad" x1="-819.2" x2="819.2">
      <stop offset="0.0" stop-color="#755e9e"/>
      <stop offset="1.0" stop-color="#000000"/>
    </linearGradient>
  </defs>
</svg>
