<?xml version="1.0" encoding="UTF-8" standalone="no"?>
<svg xmlns:xlink="http://www.w3.org/1999/xlink" height="16.05px" width="25.2px" xmlns="http://www.w3.org/2000/svg">
  <g transform="matrix(1.0, 0.0, 0.0, 1.0, 0.0, 0.0)">
    <path d="M11.5 7.1 Q12.95 6.45 14.2 7.1 15.85 7.65 15.95 8.65 L15.8 9.7 Q15.35 10.95 14.45 11.55 L11.45 11.6 Q10.15 10.75 10.15 9.3 10.15 7.65 11.5 7.1" fill="#ffffff" fill-rule="evenodd" stroke="none"/>
    <path d="M17.6 5.35 L25.2 5.65 24.95 6.5 24.45 7.2 Q22.35 9.5 19.6 9.75 L20.95 11.45 Q21.55 12.5 21.1 13.35 L20.65 12.7 20.35 12.6 20.55 13.6 Q20.7 14.5 20.4 15.25 L18.6 13.25 18.75 15.55 Q18.15 14.5 18.0 14.9 L17.95 16.05 17.2 15.1 17.1 14.55 17.2 15.1 17.1 15.9 15.95 13.1 15.75 13.1 15.55 14.1 Q14.9 14.25 14.45 13.8 14.1 13.55 13.95 14.6 L13.0 14.5 12.4 13.75 12.05 15.35 11.35 14.95 10.5 13.75 10.3 12.9 9.65 15.4 Q8.6 14.1 8.3 12.4 L7.15 15.55 Q5.8 13.4 6.8 11.2 5.45 12.55 4.7 14.55 3.7 12.45 4.15 10.45 3.35 11.2 3.1 12.05 2.75 13.25 2.75 13.75 2.15 12.65 2.2 11.1 L2.15 10.05 1.55 11.1 0.7 13.1 0.35 12.4 Q0.0 11.55 0.0 10.75 0.05 9.15 0.55 7.65 0.95 6.45 1.6 5.5 2.75 3.8 4.9 3.45 L10.0 3.2 10.5 3.25 11.9 2.95 13.6 2.1 Q14.75 1.5 16.1 1.0 18.2 0.25 20.25 0.0 L20.05 0.45 Q18.75 2.3 17.6 5.35 L17.1 5.3 17.6 5.35 M15.8 5.15 L14.75 4.95 11.15 4.15 14.75 4.95 15.8 5.15 M15.6 12.6 L15.75 13.1 15.6 12.6 M11.5 7.1 Q10.15 7.65 10.15 9.3 10.15 10.75 11.45 11.6 L14.45 11.55 Q15.35 10.95 15.8 9.7 L15.95 8.65 Q15.85 7.65 14.2 7.1 12.95 6.45 11.5 7.1" fill="url(#gradient0)" fill-rule="evenodd" stroke="none"/>
    <path d="M17.2 15.1 L17.95 16.05 18.0 14.9 Q18.15 14.5 18.75 15.55 L18.6 13.25 20.4 15.25 Q20.7 14.5 20.55 13.6 L20.35 12.6 20.65 12.7 21.1 13.35 Q21.55 12.5 20.95 11.45 L19.6 9.75 Q22.35 9.5 24.45 7.2 L24.95 6.5 25.2 5.65 17.6 5.35 17.1 5.3 M17.6 5.35 Q18.75 2.3 20.05 0.45 L20.25 0.0 Q18.2 0.25 16.1 1.0 14.75 1.5 13.6 2.1 L11.9 2.95 10.5 3.25 10.0 3.2 4.9 3.45 Q2.75 3.8 1.6 5.5 0.95 6.45 0.55 7.65 0.05 9.15 0.0 10.75 0.0 11.55 0.35 12.4 L0.7 13.1 1.55 11.1 2.15 10.05 2.2 11.1 Q2.15 12.65 2.75 13.75 2.75 13.25 3.1 12.05 3.35 11.2 4.15 10.45 3.7 12.45 4.7 14.55 5.45 12.55 6.8 11.2 5.8 13.4 7.15 15.55 L8.3 12.4 Q8.6 14.1 9.65 15.4 L10.3 12.9 10.5 13.75 11.35 14.95 12.05 15.35 12.4 13.75 13.0 14.5 13.95 14.6 Q14.1 13.55 14.45 13.8 14.9 14.25 15.55 14.1 L15.75 13.1 15.6 12.6 M11.15 4.15 L14.75 4.95 15.8 5.15 M17.2 15.1 L17.1 14.55 M15.75 13.1 L15.95 13.1 M17.1 15.9 L17.2 15.1" fill="none" stroke="#000000" stroke-linecap="round" stroke-linejoin="round" stroke-width="0.05"/>
    <path d="M11.5 7.1 Q12.95 6.45 14.2 7.1 15.85 7.65 15.95 8.65 L15.8 9.7 Q15.35 10.95 14.45 11.55 L11.45 11.6 Q10.15 10.75 10.15 9.3 10.15 7.65 11.5 7.1 Z" fill="none" stroke="#000000" stroke-linecap="round" stroke-linejoin="round" stroke-width="1.0"/>
  </g>
  <defs>
    <linearGradient gradientTransform="matrix(-7.0E-4, 0.0097, -0.0098, -7.0E-4, 12.6, 8.0)" gradientUnits="userSpaceOnUse" id="gradient0" spreadMethod="pad" x1="-819.2" x2="819.2">
      <stop offset="0.0" stop-color="#737373"/>
      <stop offset="1.0" stop-color="#d5d5d5"/>
    </linearGradient>
  </defs>
</svg>
