<?xml version="1.0" encoding="UTF-8" standalone="no"?>
<svg xmlns:xlink="http://www.w3.org/1999/xlink" height="29.45px" width="34.3px" xmlns="http://www.w3.org/2000/svg">
  <g transform="matrix(1.0, 0.0, 0.0, 1.0, 0.0, 0.0)">
    <path d="M26.9 -26.5 L25.85 -25.8 25.55 -24.5 24.55 -24.1 23.6 -22.6 21.6 -19.4 16.85 -13.35 20.5 -13.2 Q24.6 -12.25 28.35 -13.95 30.75 -14.6 32.7 -13.2 L30.3 -13.2 29.45 -12.4 28.2 -12.75 26.7 -12.45 Q22.25 -11.85 18.0 -12.55 L16.2 -11.9 15.75 -11.7 10.35 -6.6 8.1 -4.5 5.45 -2.45 Q3.3 -0.85 2.1 1.4 L1.85 1.8 1.4 1.9 Q-0.55 1.75 -1.35 0.05 L-1.5 -0.1 -1.6 -0.9 -0.7 -1.65 1.9 -3.0 Q5.2 -4.2 8.0 -6.05 11.6 -8.35 13.85 -11.45 14.7 -12.55 15.1 -13.9 L15.6 -15.9 Q14.85 -17.4 14.95 -18.9 L14.9 -19.65 14.6 -21.1 Q14.45 -21.8 14.45 -22.45 L14.5 -22.9 15.0 -24.4 16.65 -25.4 16.95 -26.05 18.25 -26.5 19.1 -26.7 19.9 -26.45 18.15 -25.8 Q16.85 -24.6 15.9 -23.1 L15.7 -22.2 15.9 -15.05 15.7 -13.75 Q19.2 -17.2 21.9 -21.15 22.9 -22.7 23.0 -24.5 22.95 -25.3 23.3 -26.0 25.4 -27.75 27.75 -27.55 L28.25 -27.25 28.35 -27.0 27.9 -26.9 26.9 -26.5" fill="#ffffff" fill-rule="evenodd" stroke="none"/>
    <path d="M25.55 -24.5 L25.85 -25.8 26.9 -26.5 Q25.55 -22.55 27.8 -18.9 L27.55 -18.85 Q28.25 -18.45 27.3 -17.9 L27.25 -17.8 Q27.75 -17.3 28.55 -17.25 28.05 -16.1 28.7 -15.15 L28.55 -15.15 Q27.3 -14.6 28.35 -13.95 24.6 -12.25 20.5 -13.2 L16.85 -13.35 21.6 -19.4 23.6 -22.6 24.55 -24.1 25.55 -24.5 M23.3 -26.0 Q22.95 -25.3 23.0 -24.5 22.9 -22.7 21.9 -21.15 19.2 -17.2 15.7 -13.75 L15.9 -15.05 15.7 -22.2 15.9 -23.1 Q16.85 -24.6 18.15 -25.8 L18.4 -24.3 19.35 -24.25 19.35 -22.65 19.55 -22.9 Q21.0 -24.8 23.3 -26.0 M14.45 -22.45 Q14.45 -21.8 14.6 -21.1 L14.9 -19.65 14.95 -18.9 Q14.85 -17.4 15.6 -15.9 L15.1 -13.9 Q14.7 -12.55 13.85 -11.45 11.6 -8.35 8.0 -6.05 5.2 -4.2 1.9 -3.0 5.3 -5.35 7.05 -8.75 L7.7 -10.3 8.75 -9.85 8.8 -10.4 8.95 -10.7 9.45 -10.6 9.3 -11.65 Q11.8 -13.3 12.15 -15.8 L12.7 -18.0 14.3 -22.45 14.45 -22.45 M2.1 1.4 Q3.3 -0.85 5.45 -2.45 L8.1 -4.5 10.35 -6.6 15.75 -11.7 16.2 -11.9 18.0 -12.55 Q22.25 -11.85 26.7 -12.45 L25.25 -11.6 24.3 -11.15 21.7 -10.95 22.25 -10.35 20.65 -10.15 20.65 -9.75 20.15 -9.6 19.1 -9.2 19.2 -8.9 Q19.45 -8.4 18.75 -8.15 L14.45 -6.6 Q10.55 -4.95 7.5 -2.75 L4.0 -0.15 2.1 1.4 M24.75 -19.4 L24.6 -19.6 Q23.8 -18.5 23.15 -17.2 L23.5 -16.05 24.95 -18.85 24.55 -18.55 24.75 -19.4" fill="url(#gradient0)" fill-rule="evenodd" stroke="none"/>
    <path d="M25.55 -24.5 L25.85 -25.8 26.9 -26.5 27.9 -26.9 28.35 -27.0 28.25 -27.25 27.75 -27.55 Q25.4 -27.75 23.3 -26.0 21.0 -24.8 19.55 -22.9 L19.35 -22.65 19.35 -24.25 18.4 -24.3 18.15 -25.8 19.9 -26.45 19.1 -26.7 18.25 -26.5 16.95 -26.05 16.65 -25.4 15.0 -24.4 14.5 -22.9 14.45 -22.45 M1.9 -3.0 L-0.7 -1.65 -1.6 -0.9 -1.5 -0.1 M15.75 -11.7 L16.2 -11.9 M26.7 -12.45 L28.2 -12.75 29.45 -12.4 30.3 -13.2 32.7 -13.2 Q30.75 -14.6 28.35 -13.95 27.3 -14.6 28.55 -15.15 L28.7 -15.15 Q28.05 -16.1 28.55 -17.25 27.75 -17.3 27.25 -17.8 L27.3 -17.9 Q28.25 -18.45 27.55 -18.85 L27.8 -18.9 Q25.55 -22.55 26.9 -26.5 M14.5 -22.9 L14.3 -22.45 12.7 -18.0 12.15 -15.8 Q11.8 -13.3 9.3 -11.65 L9.45 -10.6 8.95 -10.7 8.8 -10.4 8.75 -9.85 7.7 -10.3 7.05 -8.75 Q5.3 -5.35 1.9 -3.0 M2.1 1.4 L4.0 -0.15 7.5 -2.75 Q10.55 -4.95 14.45 -6.6 L18.75 -8.15 Q19.45 -8.4 19.2 -8.9 L19.1 -9.2 20.15 -9.6 20.65 -9.75 20.65 -10.15 22.25 -10.35 21.7 -10.95 24.3 -11.15 25.25 -11.6 26.7 -12.45 M24.75 -19.4 L24.6 -19.6 Q23.8 -18.5 23.15 -17.2 L23.5 -16.05 24.95 -18.85 24.55 -18.55 24.75 -19.4 Z" fill="none" stroke="#ffffff" stroke-linecap="round" stroke-linejoin="round" stroke-width="0.05"/>
  </g>
  <defs>
    <linearGradient gradientTransform="matrix(0.0164, -0.0135, 0.0058, 0.0062, 13.75, -13.15)" gradientUnits="userSpaceOnUse" id="gradient0" spreadMethod="pad" x1="-819.2" x2="819.2">
      <stop offset="0.0" stop-color="#ff2424"/>
      <stop offset="1.0" stop-color="#fffc23" stop-opacity="0.47058824"/>
    </linearGradient>
  </defs>
</svg>
