<?xml version="1.0" encoding="UTF-8" standalone="no"?>
<svg xmlns:xlink="http://www.w3.org/1999/xlink" height="14.35px" width="19.9px" xmlns="http://www.w3.org/2000/svg">
  <g transform="matrix(1.0, 0.0, 0.0, 1.0, 0.0, 0.0)">
    <path d="M9.95 -0.2 L9.95 -0.15 9.85 -0.2 9.95 -0.2" fill="#2d2d2d" fill-rule="evenodd" stroke="none"/>
    <path d="M2.15 -2.05 L2.0 -2.2 2.65 -2.9 3.05 -2.85 3.75 -2.35 4.25 -2.95 Q5.4 -3.25 6.3 -2.5 L6.25 -3.55 6.3 -4.55 6.55 -5.0 8.05 -4.95 8.15 -4.95 Q9.25 -3.7 9.75 -2.0 10.05 -0.85 9.95 -0.2 L9.85 -0.2 7.0 -2.6 6.75 -2.65 6.65 -2.65 6.7 -2.5 Q7.6 -1.1 7.6 0.45 7.65 2.65 6.75 4.4 L6.05 1.15 Q5.65 -0.5 4.3 -1.55 L4.3 0.4 Q4.25 1.85 3.25 2.85 3.65 1.25 3.05 -0.6 2.8 -1.55 2.15 -2.05 M3.25 -1.9 L4.3 0.4 3.25 -1.9 M5.25 -1.75 L6.2 0.3 6.9 2.25 6.2 0.3 5.25 -1.75 M8.75 -2.2 L6.25 -3.55 8.75 -2.2" fill="url(#gradient0)" fill-rule="evenodd" stroke="none"/>
    <path d="M-9.7 -0.6 Q-10.2 -1.35 -9.65 -1.95 L-8.55 -2.45 Q-6.8 -2.15 -4.9 -2.5 -4.0 -2.5 -3.85 -3.45 L-3.8 -3.7 -3.1 -5.75 -2.05 -7.1 0.75 -7.15 3.2 -6.9 Q4.75 -6.8 6.25 -6.15 7.3 -5.8 8.05 -5.05 L8.05 -4.95 6.55 -5.0 6.3 -4.55 6.25 -3.55 6.3 -2.5 Q5.4 -3.25 4.25 -2.95 L3.75 -2.35 3.05 -2.85 2.65 -2.9 2.0 -2.2 2.15 -2.05 0.35 2.35 -1.65 3.75 -2.1 4.7 Q-2.6 5.25 -2.7 5.8 -2.9 7.0 -4.25 7.2 L-5.65 6.95 -5.9 6.65 -6.2 6.0 -6.55 5.15 -5.9 5.15 -5.8 6.05 -5.25 6.5 -4.95 6.35 Q-3.5 5.55 -3.5 3.9 L-3.6 2.65 -3.65 1.65 -4.05 1.3 -5.05 0.6 -8.35 -1.05 -8.8 -1.15 -9.6 -0.6 -9.7 -0.6 M-8.7 1.55 L-8.8 0.45 -7.95 0.9 Q-5.95 1.9 -5.95 4.0 L-6.7 4.25 Q-6.5 2.6 -8.05 1.8 L-8.7 1.55" fill="#ffffff" fill-rule="evenodd" stroke="none"/>
    <path d="M-8.35 -1.05 L-5.05 0.6 -4.05 1.3 -3.65 1.65 -3.6 2.65 -5.95 1.65 -5.25 2.95 Q-4.55 3.95 -3.5 3.9 -3.5 5.55 -4.95 6.35 L-5.25 6.5 -5.8 6.05 -5.9 5.15 -5.95 4.0 Q-5.95 1.9 -7.95 0.9 L-8.8 0.45 -8.35 -1.05" fill="#990000" fill-rule="evenodd" stroke="none"/>
    <path d="M-9.6 -0.6 L-8.8 -1.15 -8.35 -1.05 -8.8 0.45 -8.7 1.55 -8.35 2.7 Q-9.7 1.6 -9.65 0.1 L-9.65 -0.5 -9.6 -0.6 M-3.6 2.65 L-3.5 3.9 Q-4.55 3.95 -5.25 2.95 L-5.95 1.65 -3.6 2.65 M-5.9 5.15 L-6.55 5.15 -7.75 4.95 -8.35 4.2 -6.7 4.25 -5.95 4.0 -5.9 5.15" fill="#ffff99" fill-rule="evenodd" stroke="none"/>
    <path d="M8.05 -5.05 Q7.3 -5.8 6.25 -6.15 4.75 -6.8 3.2 -6.9 L0.75 -7.15 -2.05 -7.1 -3.1 -5.75 -3.8 -3.7 -3.85 -3.45 Q-4.0 -2.5 -4.9 -2.5 -6.8 -2.15 -8.55 -2.45 L-9.65 -1.95 Q-10.2 -1.35 -9.7 -0.6 L-9.65 -0.5 -9.65 0.1 Q-9.7 1.6 -8.35 2.7 L-8.7 1.55 -8.8 0.45 -8.35 -1.05 -5.05 0.6 -4.05 1.3 -3.65 1.65 -3.6 2.65 -3.5 3.9 Q-3.5 5.55 -4.95 6.35 L-5.25 6.5 -5.8 6.05 -5.9 5.15 -6.55 5.15 -6.2 6.0 -5.9 6.65 -5.65 6.95 -4.25 7.2 Q-2.9 7.0 -2.7 5.8 -2.6 5.25 -2.1 4.7 L-1.65 3.75 0.35 2.35 2.15 -2.05 2.0 -2.2 2.65 -2.9 3.05 -2.85 3.75 -2.35 4.25 -2.95 Q5.4 -3.25 6.3 -2.5 L6.25 -3.55 6.3 -4.55 6.55 -5.0 8.05 -4.95 8.15 -4.95 8.05 -5.05 M-9.6 -0.6 L-8.8 -1.15 -8.35 -1.05 M9.95 -0.2 L9.95 -0.15 9.9 -0.1 9.85 -0.2 M-9.65 -0.5 L-9.6 -0.6 M-3.6 2.65 L-5.95 1.65 -5.25 2.95 Q-4.55 3.95 -3.5 3.9 M-8.7 1.55 L-8.05 1.8 Q-6.5 2.6 -6.7 4.25 L-5.95 4.0 Q-5.95 1.9 -7.95 0.9 L-8.8 0.45 M-6.7 4.25 L-8.35 4.2 -7.75 4.95 -6.55 5.15 M-5.9 5.15 L-5.95 4.0" fill="none" stroke="#000000" stroke-linecap="round" stroke-linejoin="round" stroke-width="0.05"/>
    <path d="M8.15 -4.95 Q9.25 -3.7 9.75 -2.0 10.05 -0.85 9.95 -0.2 M9.85 -0.2 L7.0 -2.6 6.75 -2.65 6.65 -2.65 6.7 -2.5 Q7.6 -1.1 7.6 0.45 7.65 2.65 6.75 4.4 L6.05 1.15 Q5.65 -0.5 4.3 -1.55 L4.3 0.4 Q4.25 1.85 3.25 2.85 3.65 1.25 3.05 -0.6 2.8 -1.55 2.15 -2.05 M6.25 -3.55 L8.75 -2.2 M6.9 2.25 L6.2 0.3 5.25 -1.75 M4.3 0.4 L3.25 -1.9" fill="none" stroke="#ffffff" stroke-linecap="round" stroke-linejoin="round" stroke-width="0.05"/>
  </g>
  <defs>
    <linearGradient gradientTransform="matrix(0.0019, 0.0044, -0.0052, 0.0023, 5.95, -0.3)" gradientUnits="userSpaceOnUse" id="gradient0" spreadMethod="pad" x1="-819.2" x2="819.2">
      <stop offset="0.0" stop-color="#ff2424"/>
      <stop offset="1.0" stop-color="#fffc23" stop-opacity="0.47058824"/>
    </linearGradient>
  </defs>
</svg>
