<?xml version="1.0" encoding="UTF-8" standalone="no"?>
<svg xmlns:xlink="http://www.w3.org/1999/xlink" height="25.6px" width="28.9px" xmlns="http://www.w3.org/2000/svg">
  <g transform="matrix(1.0, 0.0, 0.0, 1.0, 0.0, 0.0)">
    <path d="M-5.75 -4.9 L-4.6 -6.4 -3.15 -7.85 Q-1.55 -9.15 0.55 -9.8 L-0.55 -8.7 4.0 -9.05 3.6 -8.55 6.85 -8.1 Q8.15 -7.55 8.9 -6.35 10.2 -4.25 9.55 -2.0 L8.15 -0.7 Q5.8 0.7 3.1 0.1 L2.05 -0.15 -0.65 0.1 -1.75 1.85 -2.15 2.15 Q-4.5 3.3 -6.9 3.9 L-9.8 4.45 -9.95 4.45 -9.1 2.75 -8.35 1.0 Q-7.0 -2.15 -7.95 -5.45 L-7.75 -5.9 -6.85 -5.85 -6.05 -5.35 -5.8 -4.9 -5.75 -4.8 -5.75 -4.9 M-2.15 -1.45 L-1.65 -1.45 0.1 -2.8 0.4 -3.1 0.45 -5.6 Q-0.45 -7.1 -2.15 -7.0 -4.4 -5.7 -4.85 -3.1 L-4.2 -3.85 Q-2.8 -5.1 -2.0 -4.0 L-1.8 -3.7 Q-1.35 -2.55 -2.15 -1.45 M-6.35 2.2 Q-4.45 1.5 -3.45 -0.35 -4.9 -0.2 -5.8 0.65 -6.5 1.35 -6.35 2.2" fill="#3a2e1f" fill-rule="evenodd" stroke="none"/>
    <path d="M9.55 -2.0 Q10.6 -0.95 11.75 -0.3 12.7 0.2 12.85 1.3 L10.95 5.8 Q11.3 6.7 12.25 7.0 L14.4 7.9 Q16.55 9.0 17.5 11.1 16.55 12.7 16.2 14.4 L16.1 15.4 15.8 15.8 Q15.25 13.55 16.25 11.5 15.25 9.05 12.55 8.55 L9.75 8.0 Q9.4 7.35 9.8 6.5 L10.35 5.0 11.0 3.1 Q11.5 1.8 10.75 0.7 9.85 -0.8 8.15 -0.7 L9.55 -2.0 M-7.95 -5.45 L-7.65 -8.1 Q-7.5 -8.9 -6.75 -8.95 L-6.5 -8.8 Q-4.85 -7.2 -5.75 -4.9 L-5.8 -4.9 -6.05 -5.35 -6.85 -5.85 -7.75 -5.9 -7.95 -5.45 M-4.85 -3.1 Q-4.4 -5.7 -2.15 -7.0 -0.45 -7.1 0.45 -5.6 L0.4 -3.1 0.1 -2.8 -1.65 -1.45 -2.15 -1.45 Q-1.35 -2.55 -1.8 -3.7 L-2.0 -4.0 Q-2.8 -5.1 -4.2 -3.85 L-4.85 -3.1" fill="#af9874" fill-rule="evenodd" stroke="none"/>
    <path d="M-6.35 2.2 Q-6.5 1.35 -5.8 0.65 -4.9 -0.2 -3.45 -0.35 -4.45 1.5 -6.35 2.2" fill="#ff0000" fill-rule="evenodd" stroke="none"/>
    <path d="M-10.0 4.55 L-11.1 5.75 -11.4 5.2 -11.35 4.85 -10.0 4.5 -10.0 4.55" fill="#000000" fill-rule="evenodd" stroke="none"/>
    <path d="M-5.75 -4.9 L-4.6 -6.4 -3.15 -7.85 Q-1.55 -9.15 0.55 -9.8 L-0.55 -8.7 4.0 -9.05 3.6 -8.55 6.85 -8.1 Q8.15 -7.55 8.9 -6.35 10.2 -4.25 9.55 -2.0 10.6 -0.95 11.75 -0.3 12.7 0.2 12.85 1.3 L10.95 5.8 Q11.3 6.7 12.25 7.0 L14.4 7.9 Q16.55 9.0 17.5 11.1 16.55 12.7 16.2 14.4 L16.1 15.4 15.8 15.8 Q15.25 13.55 16.25 11.5 15.25 9.05 12.55 8.55 L9.75 8.0 Q9.4 7.35 9.8 6.5 L10.35 5.0 11.0 3.1 Q11.5 1.8 10.75 0.7 9.85 -0.8 8.15 -0.7 5.8 0.7 3.1 0.1 L2.05 -0.15 -0.65 0.1 -1.75 1.85 -2.15 2.15 Q-4.5 3.3 -6.9 3.9 L-9.8 4.45 -9.95 4.5 -10.0 4.55 -11.1 5.75 -11.4 5.2 -11.35 4.85 -10.0 4.5 -9.95 4.45 -9.1 2.75 -8.35 1.0 Q-7.0 -2.15 -7.95 -5.45 L-7.65 -8.1 Q-7.5 -8.9 -6.75 -8.95 L-6.5 -8.8 Q-4.85 -7.2 -5.75 -4.9 L-5.75 -4.8 -5.8 -4.9 M9.55 -2.0 L8.15 -0.7 M-2.15 -1.45 L-1.65 -1.45 0.1 -2.8 0.4 -3.1 0.45 -5.6 Q-0.45 -7.1 -2.15 -7.0 -4.4 -5.7 -4.85 -3.1 M-10.0 4.5 L-9.95 4.5 M-10.0 4.5 L-10.0 4.55" fill="none" stroke="#000000" stroke-linecap="round" stroke-linejoin="round" stroke-width="0.05"/>
  </g>
</svg>
