<?xml version="1.0" encoding="UTF-8" standalone="no"?>
<svg xmlns:xlink="http://www.w3.org/1999/xlink" height="9.0px" width="13.0px" xmlns="http://www.w3.org/2000/svg">
  <g transform="matrix(1.0, 0.0, 0.0, 1.0, 0.0, 0.0)">
    <path d="M2.85 -4.3 L5.4 -0.7 3.55 -1.05 3.75 -0.35 6.5 0.65 5.7 0.85 4.2 1.0 2.1 1.05 2.15 1.3 2.5 2.1 Q3.15 2.9 4.2 3.1 L4.6 3.45 3.3 3.6 Q1.75 3.4 0.15 2.3 L0.2 3.1 1.0 4.2 0.55 4.5 -2.8 3.35 -2.65 4.15 -2.8 4.3 -4.0 3.7 -6.05 2.25 -6.35 1.5 -6.5 0.65 -5.9 0.2 -4.9 0.1 -3.2 -0.15 Q-1.85 -0.85 -1.75 -2.1 L-1.4 -3.85 1.2 -4.35 2.85 -4.3" fill="url(#gradient0)" fill-rule="evenodd" stroke="none"/>
    <path d="M2.85 -4.3 L1.2 -4.35 -1.4 -3.85 -1.75 -2.1 Q-1.85 -0.85 -3.2 -0.15 L-4.9 0.1 -5.9 0.2 -6.5 0.65 -6.35 1.5 -6.05 2.25 -4.0 3.7 -2.8 4.3 -2.65 4.15 -2.8 3.35 0.55 4.5 1.0 4.2 0.2 3.1 0.15 2.3 Q1.75 3.4 3.3 3.6 L4.6 3.45 4.2 3.1 Q3.15 2.9 2.5 2.1 L2.15 1.3 2.1 1.05 4.2 1.0 5.7 0.85 6.5 0.65 3.75 -0.35 3.55 -1.05 5.4 -0.7 2.85 -4.3 Z" fill="none" stroke="#000000" stroke-linecap="round" stroke-linejoin="round" stroke-width="0.05"/>
  </g>
  <defs>
    <linearGradient gradientTransform="matrix(0.0079, 0.0, 0.0, 0.0055, 0.0, 0.0)" gradientUnits="userSpaceOnUse" id="gradient0" spreadMethod="pad" x1="-819.2" x2="819.2">
      <stop offset="0.0" stop-color="#5aa428"/>
      <stop offset="1.0" stop-color="#004400"/>
    </linearGradient>
  </defs>
</svg>
