<?xml version="1.0" encoding="UTF-8" standalone="no"?>
<svg xmlns:xlink="http://www.w3.org/1999/xlink" height="17.8px" width="16.4px" xmlns="http://www.w3.org/2000/svg">
  <g transform="matrix(1.0, 0.0, 0.0, 1.0, 0.0, 0.0)">
    <path d="M-4.9 3.8 L-4.8 3.25 -4.0 0.6 Q-2.95 -2.3 -1.4 -5.0 0.05 -7.6 2.5 -8.9 L2.8 -8.6 4.45 -7.1 Q5.8 -6.0 7.6 -6.25 L5.95 -5.55 Q5.25 -5.2 5.1 -4.6 L5.9 -3.7 Q6.7 -2.8 8.05 -2.45 L4.65 -2.25 Q4.95 -1.05 5.9 -0.3 L8.2 0.95 8.15 1.0 4.65 0.95 6.15 6.75 4.6 5.75 5.1 7.25 2.3 6.15 2.15 6.2 2.35 7.5 1.8 7.25 -0.6 7.0 Q-0.4 6.55 -0.55 6.0 L-1.05 4.6 -1.85 4.75 -2.45 5.1 Q-3.4 5.9 -3.9 7.05 -4.5 7.05 -4.95 6.75 L-5.4 6.05 -4.9 3.8" fill="url(#gradient0)" fill-rule="evenodd" stroke="none"/>
    <path d="M-4.9 3.8 L-5.4 6.05 -8.2 6.75 -8.0 5.15 -4.9 3.8 M-3.9 7.05 Q-3.4 5.9 -2.45 5.1 L-1.85 4.75 -1.05 4.6 -0.55 6.0 Q-0.4 6.55 -0.6 7.0 L-1.6 7.95 -3.0 8.3 -6.0 8.9 -6.25 8.8 -5.7 8.4 -4.5 7.55 -3.9 7.05" fill="#999999" fill-rule="evenodd" stroke="none"/>
    <path d="M8.2 0.95 L5.9 -0.3 Q4.95 -1.05 4.65 -2.25 L8.05 -2.45 Q6.7 -2.8 5.9 -3.7 L5.1 -4.6 Q5.25 -5.2 5.95 -5.55 L7.6 -6.25 Q5.8 -6.0 4.45 -7.1 L2.8 -8.6 2.5 -8.9 Q0.05 -7.6 -1.4 -5.0 -2.95 -2.3 -4.0 0.6 L-4.8 3.25 -4.9 3.8 -5.4 6.05 -4.95 6.75 Q-4.5 7.05 -3.9 7.05 -3.4 5.9 -2.45 5.1 L-1.85 4.75 -1.05 4.6 -0.55 6.0 Q-0.4 6.55 -0.6 7.0 L1.8 7.25 2.35 7.5 2.15 6.2 2.3 6.15 5.1 7.25 4.6 5.75 6.15 6.75 4.65 0.95 8.15 1.0 8.2 0.95 M-3.9 7.05 L-4.5 7.55 -5.7 8.4 -6.25 8.8 -6.0 8.9 -3.0 8.3 -1.6 7.95 -0.6 7.0 M-4.9 3.8 L-8.0 5.15 -8.2 6.75 -5.4 6.05" fill="none" stroke="#000000" stroke-linecap="round" stroke-linejoin="round" stroke-width="0.05"/>
  </g>
  <defs>
    <linearGradient gradientTransform="matrix(-0.0081, -0.0015, 0.0018, -0.0098, 1.4, -0.7)" gradientUnits="userSpaceOnUse" id="gradient0" spreadMethod="pad" x1="-819.2" x2="819.2">
      <stop offset="0.0" stop-color="#c9a261"/>
      <stop offset="1.0" stop-color="#957033"/>
    </linearGradient>
  </defs>
</svg>
