<?xml version="1.0" encoding="UTF-8" standalone="no"?>
<svg xmlns:xlink="http://www.w3.org/1999/xlink" height="18.15px" width="10.6px" xmlns="http://www.w3.org/2000/svg">
  <g transform="matrix(1.0, 0.0, 0.0, 1.0, 0.0, 0.0)">
    <path d="M5.05 -0.6 Q5.35 0.1 5.25 0.8 L3.55 0.0 3.6 0.25 4.5 2.2 Q4.9 3.3 4.65 4.25 L3.55 3.0 3.35 5.7 3.9 6.35 Q4.2 7.45 3.6 8.4 L2.5 9.1 2.3 8.1 1.95 7.35 -0.6 6.9 -3.2 6.3 -5.3 7.85 Q-5.5 5.9 -3.9 4.7 L-3.1 3.75 -1.8 0.7 -1.15 -0.7 Q-0.6 -1.5 -0.85 -2.3 -1.8 -5.15 -3.15 -7.9 L-2.35 -9.05 3.6 -5.05 Q5.0 -4.0 5.3 -2.35 L3.35 -3.1 3.95 -2.45 5.05 -0.6" fill="url(#gradient0)" fill-rule="evenodd" stroke="none"/>
    <path d="M5.05 -0.6 Q5.35 0.1 5.25 0.8 L3.55 0.0 3.6 0.25 4.5 2.2 Q4.9 3.3 4.65 4.25 L3.55 3.0 3.35 5.7 3.9 6.35 Q4.2 7.45 3.6 8.4 L2.5 9.1 2.3 8.1 1.95 7.35 -0.6 6.9 -3.2 6.3 -5.3 7.85 Q-5.5 5.9 -3.9 4.7 L-3.1 3.75 -1.8 0.7 -1.15 -0.7 Q-0.6 -1.5 -0.85 -2.3 -1.8 -5.15 -3.15 -7.9 L-2.35 -9.05 3.6 -5.05 Q5.0 -4.0 5.3 -2.35 L3.35 -3.1 3.95 -2.45 5.05 -0.6 Z" fill="none" stroke="#000000" stroke-linecap="round" stroke-linejoin="round" stroke-width="0.05"/>
  </g>
  <defs>
    <linearGradient gradientTransform="matrix(-0.001, 0.0058, -0.0099, -0.0017, -0.1, 3.25)" gradientUnits="userSpaceOnUse" id="gradient0" spreadMethod="pad" x1="-819.2" x2="819.2">
      <stop offset="0.0" stop-color="#478220"/>
      <stop offset="1.0" stop-color="#e4fcad"/>
    </linearGradient>
  </defs>
</svg>
