<?xml version="1.0" encoding="UTF-8" standalone="no"?>
<svg xmlns:xlink="http://www.w3.org/1999/xlink" height="12.5px" width="17.95px" xmlns="http://www.w3.org/2000/svg">
  <g transform="matrix(1.0, 0.0, 0.0, 1.0, 0.0, 0.0)">
    <path d="M1.45 -4.7 L1.5 -4.55 0.15 -4.4 4.7 -3.0 6.15 -1.2 2.9 -1.05 Q5.2 -0.95 7.05 0.3 L8.15 1.3 Q5.9 0.45 3.95 1.9 6.65 1.7 8.75 3.05 L9.2 4.45 Q7.6 3.6 5.85 3.65 L5.25 3.9 Q4.95 4.45 5.65 4.25 6.8 4.25 7.55 5.1 L2.65 6.05 1.3 6.35 -1.1 5.95 Q0.85 3.7 0.9 0.9 L0.5 1.35 Q-1.35 2.9 -4.0 3.65 L-4.05 3.55 -5.55 1.75 Q-3.95 0.0 -3.35 -2.45 -5.05 -0.8 -6.9 -0.15 L-8.0 -2.0 -8.6 -3.2 Q-6.5 -4.7 -5.0 -5.3 L-2.6 -6.15 -0.3 -5.65 1.15 -5.0 1.45 -4.7" fill="url(#gradient0)" fill-rule="evenodd" stroke="none"/>
    <path d="M-1.1 5.95 L-2.2 5.3 -4.0 3.65 Q-1.35 2.9 0.5 1.35 L0.9 0.9 Q0.85 3.7 -1.1 5.95 M-5.55 1.75 L-6.9 -0.15 Q-5.05 -0.8 -3.35 -2.45 -3.95 0.0 -5.55 1.75" fill="url(#gradient1)" fill-rule="evenodd" stroke="none"/>
    <path d="M1.5 -4.55 L1.45 -4.7 1.15 -5.0 -0.3 -5.65 -2.6 -6.15 M1.5 -4.55 L0.15 -4.4 4.7 -3.0 6.15 -1.2 2.9 -1.05 Q5.2 -0.95 7.05 0.3 L8.15 1.3 Q5.9 0.45 3.95 1.9 6.65 1.7 8.75 3.05 L9.2 4.45 Q7.6 3.6 5.85 3.65 L5.25 3.9 Q4.95 4.45 5.65 4.25 6.8 4.25 7.55 5.1 L2.65 6.05 1.3 6.35 -1.1 5.95 -2.2 5.3 -4.0 3.65 -4.05 3.55 -5.55 1.75 -6.9 -0.15 -8.0 -2.0 -8.6 -3.2 -8.75 -2.95" fill="none" stroke="#000000" stroke-linecap="round" stroke-linejoin="round" stroke-width="0.05"/>
  </g>
  <defs>
    <radialGradient cx="0" cy="0" gradientTransform="matrix(0.0121, 0.0, 0.0, 0.0121, 0.3, 0.1)" gradientUnits="userSpaceOnUse" id="gradient0" r="819.2" spreadMethod="pad">
      <stop offset="0.0" stop-color="#d7d675"/>
      <stop offset="1.0" stop-color="#8b7030"/>
    </radialGradient>
    <radialGradient cx="0" cy="0" gradientTransform="matrix(0.0121, 0.0, 0.0, 0.0121, 0.3, 0.1)" gradientUnits="userSpaceOnUse" id="gradient1" r="819.2" spreadMethod="pad">
      <stop offset="0.0" stop-color="#271c0c"/>
      <stop offset="1.0" stop-color="#6b5625"/>
    </radialGradient>
  </defs>
</svg>
