<?xml version="1.0" encoding="UTF-8" standalone="no"?>
<svg xmlns:xlink="http://www.w3.org/1999/xlink" height="12.5px" width="17.95px" xmlns="http://www.w3.org/2000/svg">
  <g transform="matrix(1.0, 0.0, 0.0, 1.0, 0.0, 0.0)">
    <path d="M1.45 -4.7 L1.5 -4.55 0.15 -4.4 4.7 -3.0 6.15 -1.2 2.9 -1.05 Q5.2 -0.95 7.05 0.3 L8.15 1.3 Q5.9 0.45 3.95 1.9 6.65 1.7 8.75 3.05 L9.2 4.45 Q7.6 3.6 5.85 3.65 L5.25 3.9 Q4.95 4.45 5.65 4.25 6.8 4.25 7.55 5.1 L2.65 6.05 1.3 6.35 Q-0.7 6.5 -2.2 5.3 L-4.05 3.55 Q-6.35 1.05 -8.0 -2.0 L-8.6 -3.2 Q-6.5 -4.7 -5.0 -5.3 L-2.6 -6.15 -0.3 -5.65 1.15 -5.0 1.45 -4.7" fill="url(#gradient0)" fill-rule="evenodd" stroke="none"/>
    <path d="M1.45 -4.7 L1.15 -5.0 -0.3 -5.65 -2.6 -6.15 M-8.6 -3.2 L-8.0 -2.0 Q-6.35 1.05 -4.05 3.55 L-2.2 5.3 Q-0.7 6.5 1.3 6.35 L2.65 6.05 7.55 5.1 Q6.8 4.25 5.65 4.25 4.95 4.45 5.25 3.9 L5.85 3.65 Q7.6 3.6 9.2 4.45 L8.75 3.05 Q6.65 1.7 3.95 1.9 5.9 0.45 8.15 1.3 L7.05 0.3 Q5.2 -0.95 2.9 -1.05 L6.15 -1.2 4.7 -3.0 0.15 -4.4 1.5 -4.55 1.45 -4.7 M-8.6 -3.2 L-8.75 -2.95" fill="none" stroke="#000000" stroke-linecap="round" stroke-linejoin="round" stroke-width="0.05"/>
  </g>
  <defs>
    <linearGradient gradientTransform="matrix(-0.0081, 0.0017, -0.0021, -0.0098, 0.55, -0.55)" gradientUnits="userSpaceOnUse" id="gradient0" spreadMethod="pad" x1="-819.2" x2="819.2">
      <stop offset="0.0" stop-color="#c9a261"/>
      <stop offset="1.0" stop-color="#957033"/>
    </linearGradient>
  </defs>
</svg>
