<?xml version="1.0" encoding="UTF-8" standalone="no"?>
<svg xmlns:xlink="http://www.w3.org/1999/xlink" height="29.85px" width="19.85px" xmlns="http://www.w3.org/2000/svg">
  <g transform="matrix(1.0, 0.0, 0.0, 1.0, 0.0, 0.0)">
    <path d="M4.55 -13.35 L6.65 -12.7 Q7.1 -11.4 6.55 -10.35 L5.1 -7.75 6.1 -7.65 6.85 -7.25 7.5 -6.75 7.35 -5.65 6.8 -4.9 6.85 -4.75 6.95 -4.65 7.6 -4.2 Q7.85 -4.0 8.2 -3.85 L8.8 -4.15 9.35 -3.25 9.9 -1.55 10.0 -0.6 8.7 0.65 10.55 1.9 10.5 4.0 10.15 5.9 8.5 6.4 8.5 7.55 Q8.75 9.0 8.35 10.35 L6.5 11.1 6.1 10.85 5.1 11.05 4.15 12.0 3.45 12.1 2.15 11.55 1.5 11.1 -2.35 11.65 Q-6.6 9.65 -9.3 6.35 L-8.75 5.95 Q-6.45 4.2 -3.8 4.55 L-2.55 4.75 -2.3 5.85 -1.85 6.2 -1.6 5.65 -1.15 5.4 -0.8 5.35 -0.2 5.45 0.6 5.7 1.3 6.0 1.4 6.15 1.7 6.45 1.95 6.7 2.35 6.9 2.8 6.95 3.15 6.65 Q3.8 6.25 4.55 6.0 L5.6 6.05 5.15 3.5 Q4.95 2.0 6.05 0.95 L5.3 0.0 Q3.65 -1.4 4.2 -3.6 L3.6 -3.7 2.65 -4.0 1.65 -4.7 2.15 -7.3 Q-2.05 -9.3 -0.6 -14.1 -0.45 -14.55 -0.85 -15.05 -1.4 -15.7 -2.55 -15.85 L-3.65 -14.95 Q-1.65 -19.9 2.4 -16.1 3.65 -14.95 4.55 -13.35" fill="url(#gradient0)" fill-rule="evenodd" stroke="none"/>
    <path d="M4.55 -13.35 L6.65 -12.7 Q7.1 -11.4 6.55 -10.35 L5.1 -7.75 6.1 -7.65 6.85 -7.25 7.5 -6.75 7.35 -5.65 6.8 -4.9 6.85 -4.75 6.95 -4.65 7.6 -4.2 Q7.85 -4.0 8.2 -3.85 L8.8 -4.15 9.35 -3.25 9.9 -1.55 10.0 -0.6 8.7 0.65 10.55 1.9 10.5 4.0 10.15 5.9 8.5 6.4 8.5 7.55 Q8.75 9.0 8.35 10.35 L6.5 11.1 6.1 10.85 5.1 11.05 4.15 12.0 3.45 12.1 2.15 11.55 1.5 11.1 -2.35 11.65 Q-6.6 9.65 -9.3 6.35 L-8.75 5.95 Q-6.45 4.2 -3.8 4.55 L-2.55 4.75 -2.3 5.85 -1.85 6.2 -1.6 5.65 -1.15 5.4 -0.8 5.35 -0.2 5.45 0.6 5.7 1.3 6.0 1.4 6.15 1.7 6.45 1.95 6.7 2.35 6.9 2.8 6.95 3.15 6.65 Q3.8 6.25 4.55 6.0 L5.6 6.05 5.15 3.5 Q4.95 2.0 6.05 0.95 L5.3 0.0 Q3.65 -1.4 4.2 -3.6 L3.6 -3.7 2.65 -4.0 1.65 -4.7 2.15 -7.3 Q-2.05 -9.3 -0.6 -14.1 -0.45 -14.55 -0.85 -15.05 -1.4 -15.7 -2.55 -15.85 L-3.65 -14.95 Q-1.65 -19.9 2.4 -16.1 3.65 -14.95 4.55 -13.35 Z" fill="none" stroke="#000000" stroke-linecap="round" stroke-linejoin="round" stroke-width="0.05"/>
  </g>
  <defs>
    <radialGradient cx="0" cy="0" gradientTransform="matrix(0.0119, 0.0, 0.0, 0.0191, -0.8, -1.25)" gradientUnits="userSpaceOnUse" id="gradient0" r="819.2" spreadMethod="pad">
      <stop offset="0.0" stop-color="#d7d675"/>
      <stop offset="1.0" stop-color="#8b7030"/>
    </radialGradient>
  </defs>
</svg>
