<?xml version="1.0" encoding="UTF-8" standalone="no"?>
<svg xmlns:xlink="http://www.w3.org/1999/xlink" height="22.4px" width="17.6px" xmlns="http://www.w3.org/2000/svg">
  <g transform="matrix(1.0, 0.0, 0.0, 1.0, 0.0, 0.0)">
    <path d="M0.85 -7.15 L0.45 -7.3 -1.9 -7.7 0.45 -7.3 0.85 -7.15 M-1.7 -8.95 L-0.8 -11.2 -0.1 -11.1 Q2.15 -10.55 4.05 -9.45 L4.85 -8.85 7.1 -5.65 8.2 -3.5 5.7 -2.6 4.15 -5.3 3.6 -6.0 2.95 -5.9 Q2.15 -4.75 2.95 -3.4 L3.95 -1.65 2.95 -3.4 Q2.15 -4.75 2.95 -5.9 L3.6 -6.0 4.15 -5.3 5.7 -2.6 3.95 -1.65 0.45 0.2 -1.1 -3.25 -1.65 -4.95 Q-2.0 -6.35 -1.9 -7.7 L-1.7 -8.95 -1.05 -8.8 -0.8 -8.65 -1.05 -8.8 -1.7 -8.95" fill="url(#gradient0)" fill-rule="evenodd" stroke="none"/>
    <path d="M5.7 -2.6 L6.6 -1.1 8.2 2.2 8.7 4.05 Q9.05 6.75 7.95 9.1 L7.45 9.45 6.25 10.35 Q3.95 11.3 1.5 11.2 L-0.4 10.9 Q-3.05 10.05 -5.45 8.8 L-6.8 7.95 -7.65 7.1 -8.8 4.9 -8.35 4.9 -8.05 4.9 -7.7 4.7 -7.35 4.65 Q-5.55 5.35 -4.05 6.6 L-3.0 7.35 Q-1.0 8.65 1.3 9.0 4.65 9.5 7.05 7.1 L7.05 6.7 7.0 4.65 Q6.7 1.0 3.95 -1.65 L5.7 -2.6" fill="url(#gradient1)" fill-rule="evenodd" stroke="none"/>
    <path d="M-1.9 -7.7 L0.45 -7.3 0.85 -7.15 M5.7 -2.6 L8.2 -3.5 7.1 -5.65 4.85 -8.85 4.05 -9.45 Q2.15 -10.55 -0.1 -11.1 L-0.8 -11.2 -1.7 -8.95 -1.05 -8.8 -0.8 -8.65 M3.95 -1.65 L2.95 -3.4 Q2.15 -4.75 2.95 -5.9 L3.6 -6.0 4.15 -5.3 5.7 -2.6 6.6 -1.1 8.2 2.2 8.7 4.05 Q9.05 6.75 7.95 9.1 L7.45 9.45 6.25 10.35 Q3.95 11.3 1.5 11.2 L-0.4 10.9 Q-3.05 10.05 -5.45 8.8 L-6.8 7.95 -7.65 7.1 -8.8 4.9 -8.35 4.9 -8.05 4.9 -7.7 4.7 -7.35 4.65 Q-5.55 5.35 -4.05 6.6 L-3.0 7.35 Q-1.0 8.65 1.3 9.0 4.65 9.5 7.05 7.1 L7.05 6.7 7.0 4.65 Q6.7 1.0 3.95 -1.65 L0.45 0.2 -1.1 -3.25 -1.65 -4.95 Q-2.0 -6.35 -1.9 -7.7 L-1.7 -8.95 M5.7 -2.6 L3.95 -1.65" fill="none" stroke="#000000" stroke-linecap="round" stroke-linejoin="round" stroke-width="0.05"/>
  </g>
  <defs>
    <linearGradient gradientTransform="matrix(-0.0055, 0.0014, -0.0013, -0.0052, 1.75, -5.9)" gradientUnits="userSpaceOnUse" id="gradient0" spreadMethod="pad" x1="-819.2" x2="819.2">
      <stop offset="0.0" stop-color="#393939"/>
      <stop offset="1.0" stop-color="#cecece"/>
    </linearGradient>
    <radialGradient cx="0" cy="0" gradientTransform="matrix(0.0115, 0.0, 0.0, 0.0115, 0.0, 4.3)" gradientUnits="userSpaceOnUse" id="gradient1" r="819.2" spreadMethod="pad">
      <stop offset="0.0" stop-color="#5aa428"/>
      <stop offset="1.0" stop-color="#004400"/>
    </radialGradient>
  </defs>
</svg>
