<?xml version="1.0" encoding="UTF-8" standalone="no"?>
<svg xmlns:xlink="http://www.w3.org/1999/xlink" height="17.8px" width="24.65px" xmlns="http://www.w3.org/2000/svg">
  <g transform="matrix(1.0, 0.0, 0.0, 1.0, 0.0, 0.0)">
    <path d="M7.85 -3.6 L9.4 -3.85 Q13.4 -2.55 12.65 2.25 L12.45 2.75 9.05 2.1 Q4.55 4.25 3.45 9.05 L0.6 9.7 3.15 10.55 Q-0.2 11.85 -3.8 11.8 L-2.45 12.6 -1.9 13.1 -5.6 12.85 -6.55 12.35 -5.5 13.95 Q-14.2 9.95 -11.1 1.4 -10.75 0.35 -9.55 -0.1 L-7.45 -0.8 Q-6.7 2.8 -6.4 7.75 -4.25 3.65 -3.65 -1.9 L-0.3 -2.65 Q0.95 0.55 1.5 5.05 2.65 1.1 2.75 -3.15 L3.8 -3.3 5.75 -3.35 6.85 0.0 Q7.6 -1.75 7.85 -3.6 M-6.4 7.75 L-6.55 8.0 -6.4 8.0 -6.4 7.75" fill="url(#gradient0)" fill-rule="evenodd" stroke="none"/>
    <path d="M-7.45 -0.8 L-3.65 -1.9 Q-4.25 3.65 -6.4 7.75 L-6.4 8.0 -6.55 8.0 -6.4 7.75 Q-6.7 2.8 -7.45 -0.8 M-0.3 -2.65 L2.75 -3.15 Q2.65 1.1 1.5 5.05 0.95 0.55 -0.3 -2.65 M5.75 -3.35 L7.85 -3.6 Q7.6 -1.75 6.85 0.0 L5.75 -3.35" fill="url(#gradient1)" fill-rule="evenodd" stroke="none"/>
    <path d="M7.85 -3.6 L9.4 -3.85 Q13.4 -2.55 12.65 2.25 L12.45 2.75 9.05 2.1 Q4.55 4.25 3.45 9.05 L0.6 9.7 3.15 10.55 Q-0.2 11.85 -3.8 11.8 L-2.45 12.6 -1.9 13.1 -5.6 12.85 -6.55 12.35 -5.5 13.95 Q-14.2 9.95 -11.1 1.4 -10.75 0.35 -9.55 -0.1 L-7.45 -0.8 -3.65 -1.9 -0.3 -2.65 2.75 -3.15 3.8 -3.3 5.75 -3.35 7.85 -3.6 Z" fill="none" stroke="#000000" stroke-linecap="round" stroke-linejoin="round" stroke-width="0.05"/>
  </g>
  <defs>
    <radialGradient cx="0" cy="0" gradientTransform="matrix(0.0167, 0.0, 0.0, 0.0167, 0.45, 5.05)" gradientUnits="userSpaceOnUse" id="gradient0" r="819.2" spreadMethod="pad">
      <stop offset="0.0" stop-color="#5aa428"/>
      <stop offset="1.0" stop-color="#004400"/>
    </radialGradient>
    <radialGradient cx="0" cy="0" gradientTransform="matrix(0.0167, 0.0, 0.0, 0.0167, 0.45, 5.05)" gradientUnits="userSpaceOnUse" id="gradient1" r="819.2" spreadMethod="pad">
      <stop offset="0.0" stop-color="#38661a"/>
      <stop offset="1.0" stop-color="#001a00"/>
    </radialGradient>
  </defs>
</svg>
