<?xml version="1.0" encoding="UTF-8" standalone="no"?>
<svg xmlns:xlink="http://www.w3.org/1999/xlink" height="17.8px" width="24.65px" xmlns="http://www.w3.org/2000/svg">
  <g transform="matrix(1.0, 0.0, 0.0, 1.0, 0.0, 0.0)">
    <path d="M9.4 -3.85 Q13.4 -2.55 12.65 2.25 L12.45 2.75 9.05 2.1 Q4.55 4.25 3.45 9.05 L0.6 9.7 3.15 10.55 Q-0.2 11.85 -3.8 11.8 L-2.45 12.6 -1.9 13.1 -5.6 12.85 -6.55 12.35 -5.5 13.95 Q-14.2 9.95 -11.1 1.4 -10.75 0.35 -9.55 -0.1 -3.1 -2.45 3.8 -3.3 L9.4 -3.85" fill="url(#gradient0)" fill-rule="evenodd" stroke="none"/>
    <path d="M9.4 -3.85 Q13.4 -2.55 12.65 2.25 L12.45 2.75 9.05 2.1 Q4.55 4.25 3.45 9.05 L0.6 9.7 3.15 10.55 Q-0.2 11.85 -3.8 11.8 L-2.45 12.6 -1.9 13.1 -5.6 12.85 -6.55 12.35 -5.5 13.95 Q-14.2 9.95 -11.1 1.4 -10.75 0.35 -9.55 -0.1 -3.1 -2.45 3.8 -3.3 L9.4 -3.85 Z" fill="none" stroke="#000000" stroke-linecap="round" stroke-linejoin="round" stroke-width="0.05"/>
  </g>
  <defs>
    <linearGradient gradientTransform="matrix(-0.0015, -0.0101, 0.0107, -0.0016, 0.4, 5.05)" gradientUnits="userSpaceOnUse" id="gradient0" spreadMethod="pad" x1="-819.2" x2="819.2">
      <stop offset="0.0" stop-color="#c9a261"/>
      <stop offset="1.0" stop-color="#957033"/>
    </linearGradient>
  </defs>
</svg>
