<?xml version="1.0" encoding="UTF-8" standalone="no"?>
<svg xmlns:xlink="http://www.w3.org/1999/xlink" height="23.9px" width="60.55px" xmlns="http://www.w3.org/2000/svg">
  <g transform="matrix(1.0, 0.0, 0.0, 1.0, 0.0, 0.0)">
    <path d="M-1.7 -8.8 L-1.05 -9.4 Q3.35 -12.35 8.85 -11.8 L6.95 -10.85 9.35 -10.4 10.4 -10.35 Q16.95 -10.2 23.3 -12.2 L25.55 -12.6 23.8 -11.45 25.75 -11.65 25.65 -11.3 25.7 -11.1 25.85 -11.05 26.35 -11.15 21.15 -7.55 Q20.05 -6.85 18.6 -6.6 17.2 -6.95 15.9 -7.55 10.8 -9.75 6.3 -7.85 10.8 -9.75 15.9 -7.55 17.2 -6.95 18.6 -6.6 25.05 -4.6 31.1 -7.0 L31.25 -6.9 30.55 -5.9 32.95 -6.9 32.8 -6.1 31.4 -4.7 Q25.15 -2.05 18.2 -1.2 L19.55 -0.6 18.8 -0.3 Q17.35 0.1 17.05 0.95 L18.55 0.95 18.95 1.1 14.65 2.7 Q16.95 3.05 18.9 4.5 16.15 4.4 13.55 5.2 L15.25 7.5 Q13.25 7.85 11.35 7.1 L13.55 10.25 Q9.95 10.55 7.9 7.4 L7.9 9.95 6.85 9.6 6.3 8.05 6.05 8.55 Q5.45 10.9 4.4 11.3 L3.95 9.1 Q3.25 6.45 2.6 7.05 L2.5 7.1 Q-1.0 6.4 -3.15 3.5 L-3.1 5.0 -3.6 3.95 Q-4.55 1.5 -4.2 -1.2 -0.95 -3.85 3.1 -5.15 L3.25 -5.2 3.3 -5.3 2.25 -5.65 3.65 -8.0 2.25 -6.75 2.4 -8.95 1.7 -8.35 1.5 -10.4 0.8 -9.1 0.65 -10.05 -0.1 -9.15 -1.7 -8.8 M7.25 2.4 L6.3 1.45 5.5 2.05 5.15 3.1 4.4 2.1 3.8 0.8 3.7 3.65 3.6 3.9 3.25 3.65 1.3 1.45 1.45 4.1 0.3 3.0 -0.75 1.6 -0.75 5.05 -1.4 4.45 Q-2.5 3.6 -2.65 2.05 L-3.15 3.5 -2.65 2.05 Q-2.5 3.6 -1.4 4.45 L-0.75 5.05 -0.75 1.6 0.3 3.0 1.45 4.1 1.3 1.45 3.25 3.65 3.6 3.9 3.7 3.65 3.8 0.8 4.4 2.1 5.15 3.1 5.5 2.05 6.3 1.45 7.25 2.4 M7.65 -3.55 Q6.4 -5.3 4.4 -3.65 L4.25 -3.5 3.6 -3.7 Q0.75 -2.6 -1.05 -0.6 L-1.4 0.0 Q3.45 0.7 8.1 -1.3 L7.55 -2.15 7.65 -3.55 M8.1 -1.3 L9.1 -0.6 Q13.5 1.35 18.2 -1.2 13.5 1.35 9.1 -0.6 L8.1 -1.3 M24.75 -4.4 L19.9 -4.9 Q16.35 -5.0 12.9 -6.45 L12.15 -6.35 11.65 -6.0 10.75 -5.0 13.25 -4.85 11.05 -3.9 13.9 -4.1 10.75 -2.05 13.9 -4.1 11.05 -3.9 13.25 -4.85 10.75 -5.0 11.65 -6.0 12.15 -6.35 12.9 -6.45 Q16.35 -5.0 19.9 -4.9 L24.75 -4.4 M11.5 -9.6 L9.8 -9.75 10.4 -10.35 9.8 -9.75 11.5 -9.6" fill="url(#gradient0)" fill-rule="evenodd" stroke="none"/>
    <path d="M4.95 -1.35 L3.45 -1.45 3.3 -2.65 4.1 -3.3 5.3 -3.0 5.4 -1.95 4.95 -1.35" fill="#ffaa00" fill-rule="evenodd" stroke="none"/>
    <path d="M-1.7 -8.8 L-0.1 -9.15 0.65 -10.05 0.8 -9.1 1.5 -10.4 1.7 -8.35 2.4 -8.95 2.25 -6.75 3.65 -8.0 2.25 -5.65 3.3 -5.3 3.25 -5.2 3.1 -5.15 Q-0.95 -3.85 -4.2 -1.2 L-6.65 -1.85 -9.0 -2.7 Q-13.45 -1.35 -17.85 -3.3 L-20.05 -3.65 -27.6 -3.25 Q-22.1 -7.35 -15.6 -6.3 L-12.65 -6.6 Q-7.45 -8.9 -1.7 -8.8 M0.6 -6.45 L-0.6 -5.8 -11.2 -5.05 -0.6 -5.8 0.6 -6.45 M-2.55 -3.3 L-3.45 -3.65 -5.35 -3.75 -3.45 -3.65 -2.55 -3.3" fill="url(#gradient1)" fill-rule="evenodd" stroke="none"/>
    <path d="M4.95 -1.35 L5.4 -1.95 5.3 -3.0 4.1 -3.3 3.3 -2.65 3.45 -1.45 4.95 -1.35 M8.1 -1.3 Q3.45 0.7 -1.4 0.0 L-1.05 -0.6 Q0.75 -2.6 3.6 -3.7 L4.25 -3.5 4.4 -3.65 Q6.4 -5.3 7.65 -3.55 L7.55 -2.15 8.1 -1.3" fill="url(#gradient2)" fill-rule="evenodd" stroke="none"/>
    <path d="M10.4 -10.35 L9.35 -10.4 6.95 -10.85 8.85 -11.8 Q3.35 -12.35 -1.05 -9.4 L-1.7 -8.8 Q-7.45 -8.9 -12.65 -6.6 L-15.6 -6.3 Q-22.1 -7.35 -27.6 -3.25 L-20.05 -3.65 -17.85 -3.3 Q-13.45 -1.35 -9.0 -2.7 L-6.65 -1.85 -4.2 -1.2 Q-4.55 1.5 -3.6 3.95 L-3.1 5.0 -3.15 3.5 -2.65 2.05 Q-2.5 3.6 -1.4 4.45 L-0.75 5.05 -0.75 1.6 0.3 3.0 1.45 4.1 1.3 1.45 3.25 3.65 3.6 3.9 3.7 3.65 3.8 0.8 4.4 2.1 5.15 3.1 5.5 2.05 6.3 1.45 7.25 2.4 M8.1 -1.3 L7.55 -2.15 7.65 -3.55 M18.2 -1.2 Q13.5 1.35 9.1 -0.6 L8.1 -1.3 M6.3 -7.85 Q10.8 -9.75 15.9 -7.55 17.2 -6.95 18.6 -6.6 20.05 -6.85 21.15 -7.55 L26.35 -11.15 25.85 -11.05 25.7 -11.1 25.65 -11.3 25.75 -11.65 23.8 -11.45 25.55 -12.6 23.3 -12.2 Q16.95 -10.2 10.4 -10.35 L9.8 -9.75 11.5 -9.6 M10.75 -2.05 L13.9 -4.1 11.05 -3.9 13.25 -4.85 10.75 -5.0 11.65 -6.0 12.15 -6.35 12.9 -6.45 Q16.35 -5.0 19.9 -4.9 L24.75 -4.4 M-3.15 3.5 Q-1.0 6.4 2.5 7.1 L2.6 7.05 Q3.25 6.45 3.95 9.1 L4.4 11.3 Q5.45 10.9 6.05 8.55 L6.3 8.05 6.85 9.6 7.9 9.95 7.9 7.4 Q9.95 10.55 13.55 10.25 L11.35 7.1 Q13.25 7.85 15.25 7.5 L13.55 5.2 Q16.15 4.4 18.9 4.5 16.95 3.05 14.65 2.7 L18.95 1.1 18.55 0.95 17.05 0.95 Q17.35 0.1 18.8 -0.3 L19.55 -0.6 18.2 -1.2 Q25.15 -2.05 31.4 -4.7 L32.8 -6.1 32.95 -6.9 30.55 -5.9 31.25 -6.9 31.3 -7.05 31.1 -7.0 Q25.05 -4.6 18.6 -6.6 M9.35 -10.4 L10.4 -10.35 M31.4 -4.7 L31.8 -4.9 31.35 -4.7 31.4 -4.7 M-5.35 -3.75 L-3.45 -3.65 -2.55 -3.3 M-11.2 -5.05 L-0.6 -5.8 0.6 -6.45" fill="none" stroke="#000000" stroke-linecap="round" stroke-linejoin="round" stroke-width="0.05"/>
  </g>
  <defs>
    <radialGradient cx="0" cy="0" gradientTransform="matrix(0.0296, 0.0, 0.0, 0.0296, 1.7, -7.6)" gradientUnits="userSpaceOnUse" id="gradient0" r="819.2" spreadMethod="pad">
      <stop offset="0.0" stop-color="#d7d675"/>
      <stop offset="1.0" stop-color="#8b7030"/>
    </radialGradient>
    <linearGradient gradientTransform="matrix(-0.0191, 0.0, 0.0, -0.0056, -12.0, -5.8)" gradientUnits="userSpaceOnUse" id="gradient1" spreadMethod="pad" x1="-819.2" x2="819.2">
      <stop offset="0.0" stop-color="#483515"/>
      <stop offset="1.0" stop-color="#c8a962"/>
    </linearGradient>
    <radialGradient cx="0" cy="0" gradientTransform="matrix(0.0296, 0.0, 0.0, 0.0296, 1.7, -7.6)" gradientUnits="userSpaceOnUse" id="gradient2" r="819.2" spreadMethod="pad">
      <stop offset="0.0" stop-color="#271c0c"/>
      <stop offset="1.0" stop-color="#6b5625"/>
    </radialGradient>
  </defs>
</svg>
