<?xml version="1.0" encoding="UTF-8" standalone="no"?>
<svg xmlns:xlink="http://www.w3.org/1999/xlink" height="26.2px" width="32.45px" xmlns="http://www.w3.org/2000/svg">
  <g transform="matrix(1.0, 0.0, 0.0, 1.0, 0.0, 0.0)">
    <path d="M-4.9 1.5 L-5.3 2.95 Q-5.4 1.8 -5.85 0.85 L-6.3 0.0 -6.95 -0.75 -7.05 -3.25 -7.45 -7.0 -7.3 -8.9 -6.5 -10.55 -6.25 -9.9 -5.85 -10.25 Q-2.85 -12.75 1.6 -12.5 3.8 -12.35 6.15 -13.1 L6.5 -13.05 Q5.8 -12.05 4.8 -11.65 L4.3 -11.3 7.05 -11.5 12.1 -12.15 13.1 -12.5 11.65 -11.15 Q9.9 -9.5 7.6 -9.05 9.35 -8.8 10.95 -7.8 11.9 -7.35 12.9 -7.05 L17.05 -6.85 Q15.8 -5.7 14.35 -5.3 L13.5 -4.9 14.2 -4.4 Q15.5 -3.8 16.85 -3.3 19.6 -2.15 21.6 -4.4 L22.1 -4.95 Q22.6 -3.5 21.7 -2.25 L20.2 -0.45 Q21.8 -1.45 23.6 -0.7 L24.95 0.0 Q23.0 -0.05 21.65 1.25 20.5 2.3 19.5 3.5 L22.35 3.2 23.8 3.5 24.45 3.8 21.8 4.65 Q21.3 4.85 20.9 5.15 L19.75 6.15 Q18.85 7.2 17.6 7.8 19.7 7.85 21.5 6.95 20.8 8.15 19.7 8.85 L18.55 9.55 Q16.7 10.55 14.65 10.65 12.8 10.95 10.95 10.65 L10.1 10.35 Q11.95 12.15 14.2 13.1 10.65 13.05 7.05 12.1 L3.65 10.7 2.05 9.7 2.7 11.4 Q0.45 10.25 -1.0 8.2 L-1.65 7.15 -2.75 5.15 -2.95 4.75 -3.6 3.5 -4.9 1.5 -4.95 -0.4 -4.05 1.5 -4.15 -0.15 -4.45 -1.8 -2.8 0.45 Q-2.75 0.05 -2.85 -0.3 L-3.75 -2.85 -2.85 -0.3 Q-2.75 0.05 -2.8 0.45 L-4.45 -1.8 -4.15 -0.15 -4.05 1.5 -4.95 -0.4 -4.9 1.5 M0.1 5.15 Q0.6 6.65 1.95 7.5 L1.55 5.6 Q2.8 7.3 4.85 7.0 L5.2 6.7 5.35 6.4 5.45 6.1 5.05 5.2 5.95 5.85 Q6.6 6.25 7.15 5.85 L7.1 5.55 7.0 5.15 6.2 3.7 7.0 5.15 7.1 5.55 7.15 5.85 Q6.6 6.25 5.95 5.85 L5.05 5.2 5.45 6.1 5.35 6.4 5.2 6.7 4.85 7.0 Q2.8 7.3 1.55 5.6 L1.95 7.5 Q0.6 6.65 0.1 5.15 M-3.0 -4.4 L-1.6 -3.45 -1.75 -4.2 Q-2.15 -5.55 -3.1 -6.15 -2.15 -5.55 -1.75 -4.2 L-1.6 -3.45 -3.0 -4.4" fill="url(#gradient0)" fill-rule="evenodd" stroke="none"/>
    <path d="M-4.9 1.5 L-3.6 3.5 -2.95 4.75 -2.75 5.15 -1.65 7.15 -1.0 8.2 Q0.45 10.25 2.7 11.4 L2.05 9.7 3.65 10.7 7.05 12.1 Q10.65 13.05 14.2 13.1 11.95 12.15 10.1 10.35 L10.95 10.65 Q12.8 10.95 14.65 10.65 16.7 10.55 18.55 9.55 L19.7 8.85 Q20.8 8.15 21.5 6.95 19.7 7.85 17.6 7.8 18.85 7.2 19.75 6.15 L20.9 5.15 Q21.3 4.85 21.8 4.65 L24.45 3.8 23.8 3.5 22.35 3.2 19.5 3.5 Q20.5 2.3 21.65 1.25 23.0 -0.05 24.95 0.0 L23.6 -0.7 Q21.8 -1.45 20.2 -0.45 L21.7 -2.25 Q22.6 -3.5 22.1 -4.95 L21.6 -4.4 Q19.6 -2.15 16.85 -3.3 15.5 -3.8 14.2 -4.4 L13.5 -4.9 14.35 -5.3 Q15.8 -5.7 17.05 -6.85 L12.9 -7.05 Q11.9 -7.35 10.95 -7.8 9.35 -8.8 7.6 -9.05 9.9 -9.5 11.65 -11.15 L13.1 -12.5 12.1 -12.15 7.05 -11.5 4.3 -11.3 4.8 -11.65 Q5.8 -12.05 6.5 -13.05 L6.15 -13.1 Q3.8 -12.35 1.6 -12.5 -2.85 -12.75 -5.85 -10.25 L-6.25 -9.9 -6.5 -10.55 -7.3 -8.9 -7.45 -7.0 -7.05 -3.25 -6.95 -0.75 -6.3 0.0 -5.85 0.85 Q-5.4 1.8 -5.3 2.95 L-4.9 1.5 -4.95 -0.4 -4.05 1.5 -4.15 -0.15 -4.45 -1.8 -2.8 0.45 Q-2.75 0.05 -2.85 -0.3 L-3.75 -2.85 M-3.1 -6.15 Q-2.15 -5.55 -1.75 -4.2 L-1.6 -3.45 -3.0 -4.4 M6.2 3.7 L7.0 5.15 7.1 5.55 7.15 5.85 Q6.6 6.25 5.95 5.85 L5.05 5.2 5.45 6.1 5.35 6.4 5.2 6.7 4.85 7.0 Q2.8 7.3 1.55 5.6 L1.95 7.5 Q0.6 6.65 0.1 5.15" fill="none" stroke="#000000" stroke-linecap="round" stroke-linejoin="round" stroke-width="0.05"/>
  </g>
  <defs>
    <radialGradient cx="0" cy="0" gradientTransform="matrix(0.0296, 0.0, 0.0, 0.0296, 1.7, -7.6)" gradientUnits="userSpaceOnUse" id="gradient0" r="819.2" spreadMethod="pad">
      <stop offset="0.0" stop-color="#c9a261"/>
      <stop offset="1.0" stop-color="#957033"/>
    </radialGradient>
  </defs>
</svg>
