<?xml version="1.0" encoding="UTF-8" standalone="no"?>
<svg xmlns:xlink="http://www.w3.org/1999/xlink" height="20.4px" width="13.75px" xmlns="http://www.w3.org/2000/svg">
  <g transform="matrix(1.0, 0.0, 0.0, 1.0, 0.0, 0.0)">
    <path d="M-5.65 7.0 Q-4.75 6.25 -3.8 5.65 L-3.5 5.5 -2.5 4.75 -2.3 4.55 -2.15 4.35 -0.9 2.8 0.75 -0.25 2.1 -4.05 2.6 -6.3 2.7 -6.95 Q3.0 -8.3 3.6 -9.2 4.0 -9.8 4.65 -10.1 L4.9 -10.2 Q5.7 -10.25 6.2 -9.65 L6.7 -9.1 6.85 -8.65 6.85 -8.55 Q7.0 -7.7 6.35 -7.4 L6.3 -7.35 6.15 -7.25 5.55 -6.8 5.55 -6.75 5.15 -6.05 5.15 -5.75 5.15 -5.1 5.5 -3.4 5.95 -1.95 6.05 -0.65 5.95 0.05 5.5 1.15 5.15 1.55 3.95 3.05 3.65 3.75 3.55 4.1 3.5 4.25 3.15 5.55 Q2.75 6.15 2.5 6.9 L2.45 7.15 Q2.25 7.85 1.5 8.05 L1.0 8.2 0.85 8.25 -0.6 8.6 -0.65 8.6 -1.3 8.65 -2.1 8.7 -2.35 8.7 -2.9 8.65 -3.2 8.5 -4.4 7.8 -5.65 7.0 M-2.75 5.85 Q-3.1 6.9 -4.05 7.55 L-4.4 7.8 -4.05 7.55 Q-3.1 6.9 -2.75 5.85 M0.15 5.7 L0.25 6.25 0.0 7.35 -0.65 8.6 0.0 7.35 0.25 6.25 0.15 5.7 M-1.4 5.95 Q-1.3 6.4 -1.5 6.8 -2.0 7.9 -2.9 8.65 -2.0 7.9 -1.5 6.8 -1.3 6.4 -1.4 5.95 M1.15 7.4 L1.0 8.2 1.15 7.4" fill="url(#gradient0)" fill-rule="evenodd" stroke="none"/>
    <path d="M1.0 8.2 L1.5 8.05 Q2.25 7.85 2.45 7.15 L2.5 6.9 Q2.75 6.15 3.15 5.55 L3.5 4.25 3.55 4.1 3.65 3.75 3.95 3.05 5.15 1.55 5.5 1.15 5.95 0.05 6.05 -0.65 5.95 -1.95 5.5 -3.4 5.15 -5.1 5.15 -5.75 5.15 -6.05 5.55 -6.75 5.55 -6.8 6.15 -7.25 6.3 -7.35 6.35 -7.4 Q7.0 -7.7 6.85 -8.55 L6.85 -8.65 6.7 -9.1 6.2 -9.65 Q5.7 -10.25 4.9 -10.2 L4.65 -10.1 Q4.0 -9.8 3.6 -9.2 3.0 -8.3 2.7 -6.95 L2.6 -6.3 2.1 -4.05 0.75 -0.25 -0.9 2.8 -2.15 4.35 -2.3 4.55 -2.5 4.75 -3.5 5.5 -3.8 5.65 Q-4.75 6.25 -5.65 7.0 L-5.75 7.05 -6.15 7.4 -6.85 7.7 M-4.4 7.8 L-4.05 7.55 Q-3.1 6.9 -2.75 5.85 M6.3 -7.35 L6.9 -6.55 M5.55 -6.8 Q6.15 -6.4 6.25 -5.5 M-6.15 8.6 L-4.4 7.8 M-2.9 8.65 Q-2.0 7.9 -1.5 6.8 -1.3 6.4 -1.4 5.95 M-0.65 8.6 L0.0 7.35 0.25 6.25 0.15 5.7 M1.0 8.2 L1.15 7.4 M-0.6 8.6 L-0.65 8.6 -2.35 10.2 M1.0 8.2 L0.15 9.55 M-2.9 8.65 Q-3.7 9.3 -4.85 9.65" fill="none" stroke="#000000" stroke-linecap="round" stroke-linejoin="round" stroke-width="0.05"/>
  </g>
  <defs>
    <radialGradient cx="0" cy="0" gradientTransform="matrix(0.0061, 0.002, -0.0054, 0.0165, -0.35, -4.3)" gradientUnits="userSpaceOnUse" id="gradient0" r="819.2" spreadMethod="pad">
      <stop offset="0.0" stop-color="#7e6a56"/>
      <stop offset="1.0" stop-color="#5c483a"/>
    </radialGradient>
  </defs>
</svg>
