<?xml version="1.0" encoding="UTF-8" standalone="no"?>
<svg xmlns:xlink="http://www.w3.org/1999/xlink" height="19.6px" width="10.65px" xmlns="http://www.w3.org/2000/svg">
  <g transform="matrix(1.0, 0.0, 0.0, 1.0, 0.0, 0.0)">
    <path d="M-2.2 5.25 L-1.7 5.25 -1.15 6.6 -1.45 7.15 -2.8 7.8 Q-3.75 8.3 -3.85 9.85 L-4.25 9.05 Q-4.1 7.55 -3.2 6.55 L-2.3 5.4 -2.2 5.25" fill="#27160c" fill-rule="evenodd" stroke="none"/>
    <path d="M-0.45 6.55 L0.15 5.25 0.3 5.1 0.75 5.1 Q1.7 4.25 1.25 3.05 L1.15 2.45 1.65 2.85 Q2.1 1.75 2.15 0.65 L2.35 0.9 2.55 0.8 2.65 0.35 2.75 -0.1 3.4 -0.35 2.9 -2.85 3.85 -2.6 3.85 -3.15 4.2 -3.6 4.3 -2.05 Q5.1 -1.6 5.35 -0.15 L4.45 -0.2 4.95 0.7 3.9 0.65 Q4.75 1.15 4.65 2.95 4.25 1.95 3.7 2.1 4.65 3.9 4.5 5.75 4.0 4.05 3.2 3.25 3.8 5.9 2.2 8.1 2.3 6.7 1.85 5.5 L1.85 7.1 Q1.65 7.9 0.6 8.5 L0.0 8.55 Q1.25 6.8 0.15 7.2 L0.05 7.25 -0.45 6.55" fill="#684f31" fill-rule="evenodd" stroke="none"/>
    <path d="M-2.2 5.25 Q1.75 -0.2 2.75 -7.1 3.2 -10.5 6.4 -9.55 L6.3 -7.9 Q6.1 -7.05 5.1 -6.8 L4.7 -6.05 Q4.2 -5.0 4.2 -3.6 L3.85 -3.15 3.85 -2.6 2.9 -2.85 3.4 -0.35 2.75 -0.1 2.65 0.35 2.55 0.8 2.35 0.9 2.15 0.65 Q2.1 1.75 1.65 2.85 L1.15 2.45 1.25 3.05 Q1.7 4.25 0.75 5.1 L0.3 5.1 0.15 5.25 -0.45 6.55 -1.15 6.6 -1.7 5.25 -2.2 5.25" fill="url(#gradient0)" fill-rule="evenodd" stroke="none"/>
    <path d="M4.2 -3.6 Q4.2 -5.0 4.7 -6.05 L5.1 -6.8 Q6.1 -7.05 6.3 -7.9 L6.4 -9.55 Q3.2 -10.5 2.75 -7.1 1.75 -0.2 -2.2 5.25 L-1.7 5.25 -1.15 6.6 -0.45 6.55 0.15 5.25 0.3 5.1 0.75 5.1 Q1.7 4.25 1.25 3.05 L1.15 2.45 1.65 2.85 Q2.1 1.75 2.15 0.65 L2.35 0.9 2.55 0.8 2.65 0.35 2.75 -0.1 3.4 -0.35 2.9 -2.85 3.85 -2.6 3.85 -3.15 4.2 -3.6 4.3 -2.05 Q5.1 -1.6 5.35 -0.15 L4.45 -0.2 4.95 0.7 3.9 0.65 Q4.75 1.15 4.65 2.95 4.25 1.95 3.7 2.1 4.65 3.9 4.5 5.75 4.0 4.05 3.2 3.25 3.8 5.9 2.2 8.1 2.3 6.7 1.85 5.5 L1.85 7.1 Q1.65 7.9 0.6 8.5 L0.0 8.55 Q1.25 6.8 0.15 7.2 L0.05 7.25 -0.45 6.55 M-2.2 5.25 L-2.3 5.4 -3.2 6.55 Q-4.1 7.55 -4.25 9.05 L-3.85 9.85 Q-3.75 8.3 -2.8 7.8 L-1.45 7.15 -1.15 6.6" fill="none" stroke="#000000" stroke-linecap="round" stroke-linejoin="round" stroke-width="0.05"/>
  </g>
  <defs>
    <radialGradient cx="0" cy="0" gradientTransform="matrix(0.0061, 0.002, -0.0054, 0.0165, -0.35, -4.3)" gradientUnits="userSpaceOnUse" id="gradient0" r="819.2" spreadMethod="pad">
      <stop offset="0.0" stop-color="#910000"/>
      <stop offset="1.0" stop-color="#331e03"/>
    </radialGradient>
  </defs>
</svg>
