<?xml version="1.0" encoding="UTF-8" standalone="no"?>
<svg xmlns:xlink="http://www.w3.org/1999/xlink" height="24.4px" width="16.05px" xmlns="http://www.w3.org/2000/svg">
  <g transform="matrix(1.0, 0.0, 0.0, 1.0, 0.0, 0.0)">
    <path d="M-7.0 -6.9 L-7.4 -9.85 Q-7.7 -11.55 -7.25 -11.85 L-6.7 -12.05 -6.1 -11.05 -5.9 -10.4 Q-5.95 -9.45 -5.6 -8.55 L-3.5 -3.25 -1.75 0.6 Q0.8 5.9 5.3 9.75 6.85 11.0 8.55 11.9 L4.2 12.1 1.85 11.5 Q0.55 11.15 -0.5 10.4 -2.55 8.95 -4.0 7.0 -5.95 4.2 -6.45 0.7 L-6.05 -0.15 -6.5 -0.7 -7.0 -0.9 Q-7.6 -2.75 -7.25 -4.2 -6.9 -5.65 -7.0 -6.9 M5.55 10.8 L4.65 10.4 5.55 10.8 M5.05 11.2 L4.8 11.0 Q3.55 9.85 3.0 8.3 L2.8 8.15 Q1.45 7.4 0.45 6.25 -0.4 5.35 -0.75 4.25 L-0.85 3.95 -2.5 1.7 -2.8 1.1 Q-3.15 0.15 -4.2 0.05 L-4.15 -0.4 Q-3.95 -1.7 -4.5 -2.8 L-4.7 -3.2 -5.0 -4.5 -5.3 -5.45 -5.45 -5.8 -5.85 -7.65 -5.95 -8.35 Q-6.1 -9.7 -6.7 -10.55 -6.1 -9.7 -5.95 -8.35 L-5.85 -7.65 -5.45 -5.8 -5.3 -5.45 -5.0 -4.5 -4.7 -3.2 -4.5 -2.8 Q-3.95 -1.7 -4.15 -0.4 L-4.2 0.05 Q-3.15 0.15 -2.8 1.1 L-2.5 1.7 -0.85 3.95 -0.75 4.25 Q-0.4 5.35 0.45 6.25 1.45 7.4 2.8 8.15 L3.0 8.3 3.5 8.65 3.7 8.8 3.5 8.65 3.0 8.3 Q3.55 9.85 4.8 11.0 L5.05 11.2 M-4.45 3.95 L-4.45 3.55 Q-4.6 2.55 -4.0 1.8 L-4.15 1.15 -4.2 0.05 -4.15 1.15 -4.0 1.8 -3.9 2.15 -3.7 2.95 -2.8 3.6 -2.5 4.05 Q-1.35 6.55 0.65 8.4 L1.65 9.3 2.0 9.45 1.65 9.3 0.65 8.4 Q-1.35 6.55 -2.5 4.05 L-2.8 3.6 -3.7 2.95 -3.9 2.15 -4.0 1.8 Q-4.6 2.55 -4.45 3.55 L-4.45 3.95 M-2.75 6.7 L-2.85 6.15 Q-2.85 5.7 -3.0 5.25 L-3.7 3.0 -3.7 2.95 -3.7 3.0 -3.0 5.25 Q-2.85 5.7 -2.85 6.15 L-2.75 6.7 M-6.15 -2.2 L-5.4 -2.8 -5.4 -3.2 -5.35 -3.7 Q-5.2 -4.1 -5.4 -4.35 -5.2 -4.1 -5.35 -3.7 L-5.4 -3.2 -5.4 -2.8 -5.3 -1.6 Q-5.2 -0.95 -5.4 -0.4 -5.75 0.65 -5.15 1.7 -5.75 0.65 -5.4 -0.4 -5.2 -0.95 -5.3 -1.6 L-5.4 -2.8 -6.15 -2.2" fill="url(#gradient0)" fill-rule="evenodd" stroke="none"/>
    <path d="M-7.0 -6.9 Q-6.9 -5.65 -7.25 -4.2 -7.6 -2.75 -7.0 -0.9 L-6.5 -0.7 -6.05 -0.15 -6.45 0.7 Q-5.95 4.2 -4.0 7.0 -2.55 8.95 -0.5 10.4 0.55 11.15 1.85 11.5 L4.2 12.1 8.55 11.9 Q6.85 11.0 5.3 9.75 0.8 5.9 -1.75 0.6 L-3.5 -3.25 -5.6 -8.55 Q-5.95 -9.45 -5.9 -10.4 L-6.1 -11.05 -6.7 -12.05 -7.25 -11.85 Q-7.7 -11.55 -7.4 -9.85 L-7.0 -6.9 M-6.7 -10.55 Q-6.1 -9.7 -5.95 -8.35 L-5.85 -7.65 -5.45 -5.8 -5.3 -5.45 -5.0 -4.5 -4.7 -3.2 -4.5 -2.8 Q-3.95 -1.7 -4.15 -0.4 L-4.2 0.05 Q-3.15 0.15 -2.8 1.1 L-2.5 1.7 -0.85 3.95 -0.75 4.25 Q-0.4 5.35 0.45 6.25 1.45 7.4 2.8 8.15 L3.0 8.3 3.5 8.65 3.7 8.8 M-5.4 -4.35 Q-5.2 -4.1 -5.35 -3.7 L-5.4 -3.2 -5.4 -2.8 -5.3 -1.6 Q-5.2 -0.95 -5.4 -0.4 -5.75 0.65 -5.15 1.7 M-5.4 -2.8 L-6.15 -2.2 M-4.2 0.05 L-4.15 1.15 -4.0 1.8 -3.9 2.15 -3.7 2.95 -2.8 3.6 -2.5 4.05 Q-1.35 6.55 0.65 8.4 L1.65 9.3 2.0 9.45 M-3.7 2.95 L-3.7 3.0 -3.0 5.25 Q-2.85 5.7 -2.85 6.15 L-2.75 6.7 M-4.0 1.8 Q-4.6 2.55 -4.45 3.55 L-4.45 3.95 M3.0 8.3 Q3.55 9.85 4.8 11.0 L5.05 11.2 M4.65 10.4 L5.55 10.8" fill="none" stroke="#d8c8a7" stroke-linecap="round" stroke-linejoin="round" stroke-opacity="0.52156866" stroke-width="0.05"/>
  </g>
  <defs>
    <linearGradient gradientTransform="matrix(-0.0078, -0.0153, 0.0047, -0.0024, -0.25, 0.65)" gradientUnits="userSpaceOnUse" id="gradient0" spreadMethod="pad" x1="-819.2" x2="819.2">
      <stop offset="0.0" stop-color="#c4b177" stop-opacity="0.2627451"/>
      <stop offset="1.0" stop-color="#715e3e" stop-opacity="0.4627451"/>
    </linearGradient>
  </defs>
</svg>
