<?xml version="1.0" encoding="UTF-8" standalone="no"?>
<svg xmlns:xlink="http://www.w3.org/1999/xlink" height="12.35px" width="14.9px" xmlns="http://www.w3.org/2000/svg">
  <g transform="matrix(1.0, 0.0, 0.0, 1.0, 0.0, 0.0)">
    <path d="M-5.1 5.45 L-5.25 5.5 -6.2 5.9 Q-7.0 5.6 -7.25 4.85 L-7.45 4.0 Q-6.75 2.8 -5.1 2.95 L-4.1 2.55 -0.95 1.55 Q0.5 1.1 1.3 0.0 L2.5 -1.95 3.95 -4.3 4.9 -5.7 5.4 -6.15 6.8 -6.1 7.45 -5.35 Q7.3 -3.85 6.35 -2.5 L4.95 0.1 4.05 1.55 Q3.5 2.1 2.8 2.1 L1.85 1.25 1.4 2.1 0.7 2.4 -0.15 2.8 -3.15 4.4 -4.4 5.1 -4.45 5.15 -5.1 5.45 M-3.7 4.1 L-3.15 4.4 -3.7 4.1" fill="url(#gradient0)" fill-rule="evenodd" stroke="none"/>
    <path d="M-5.1 5.45 L-5.25 5.5 -6.2 5.9 Q-7.0 5.6 -7.25 4.85 L-7.45 4.0 Q-6.75 2.8 -5.1 2.95 L-4.1 2.55 -0.95 1.55 Q0.5 1.1 1.3 0.0 L2.5 -1.95 3.95 -4.3 4.9 -5.7 5.4 -6.15 6.8 -6.1 7.45 -5.35 Q7.3 -3.85 6.35 -2.5 L4.95 0.1 4.05 1.55 Q3.5 2.1 2.8 2.1 L1.85 1.25 1.4 2.1 0.7 2.4 -0.15 2.8 -3.15 4.4 -1.95 4.65 M-4.4 5.1 L-4.45 5.15 -5.1 5.45 -3.15 6.2 M-3.15 4.4 L-4.4 5.1 -3.6 5.3 -2.35 5.4 M-3.15 4.4 L-3.7 4.1" fill="none" stroke="#000000" stroke-linecap="round" stroke-linejoin="round" stroke-width="0.05"/>
  </g>
  <defs>
    <radialGradient cx="0" cy="0" gradientTransform="matrix(0.0024, 0.0057, -0.0244, 0.0104, -5.55, -0.4)" gradientUnits="userSpaceOnUse" id="gradient0" r="819.2" spreadMethod="pad">
      <stop offset="0.0" stop-color="#7e6a56"/>
      <stop offset="1.0" stop-color="#5c483a"/>
    </radialGradient>
  </defs>
</svg>
