<?xml version="1.0" encoding="UTF-8" standalone="no"?>
<svg xmlns:xlink="http://www.w3.org/1999/xlink" height="22.9px" width="13.45px" xmlns="http://www.w3.org/2000/svg">
  <g transform="matrix(1.0, 0.0, 0.0, 1.0, 0.0, 0.0)">
    <path d="M-5.05 6.85 L-0.85 4.45 Q0.45 3.65 1.25 2.35 2.35 0.45 2.25 -1.6 2.2 -3.25 0.5 -4.55 L-0.4 -4.45 -0.8 -3.65 Q-3.15 -5.8 -4.55 -3.45 L-4.6 -3.8 -6.35 -5.6 -5.1 -8.2 -4.1 -8.75 -2.3 -11.45 3.6 -10.1 4.2 -8.0 5.3 -5.95 3.5 -5.35 Q3.2 -5.05 4.35 -4.55 7.4 -3.25 6.55 0.1 5.8 3.05 3.5 4.4 L3.05 5.55 0.6 7.6 1.15 6.05 -2.7 9.75 -2.1 7.7 -6.7 11.45 -5.05 6.85 M1.7 -4.75 L0.5 -4.55 1.7 -4.75" fill="url(#gradient0)" fill-rule="evenodd" stroke="none"/>
    <path d="M0.5 -4.55 Q2.2 -3.25 2.25 -1.6 2.35 0.45 1.25 2.35 0.45 3.65 -0.85 4.45 L-5.05 6.85 -5.05 6.8 -6.4 6.45 -6.15 2.85 -5.3 1.05 Q-4.65 2.95 -0.45 0.95 -4.65 2.95 -5.3 1.05 L-4.4 -1.45 -4.55 -3.45 Q-3.15 -5.8 -0.8 -3.65 L-0.4 -4.45 0.5 -4.55 M0.1 -1.4 Q-2.7 0.0 -4.4 -1.45 -2.7 0.0 0.1 -1.4 M-1.55 3.15 L-5.8 3.35 -6.15 2.85 -5.8 3.35 -1.55 3.15" fill="url(#gradient1)" fill-rule="evenodd" stroke="none"/>
    <path d="M0.5 -4.55 Q2.2 -3.25 2.25 -1.6 2.35 0.45 1.25 2.35 0.45 3.65 -0.85 4.45 L-5.05 6.85 -6.7 11.45 -2.1 7.7 -2.7 9.75 1.15 6.05 0.6 7.6 3.05 5.55 3.5 4.4 Q5.8 3.05 6.55 0.1 7.4 -3.25 4.35 -4.55 3.2 -5.05 3.5 -5.35 L5.3 -5.95 4.2 -8.0 3.6 -10.1 -2.3 -11.45 -4.1 -8.75 -5.1 -8.2 -6.35 -5.6 -4.6 -3.8 -4.55 -3.45 Q-3.15 -5.8 -0.8 -3.65 L-0.4 -4.45 0.5 -4.55 1.7 -4.75 M-4.55 -3.45 L-4.4 -1.45 Q-2.7 0.0 0.1 -1.4 M-5.3 1.05 L-6.15 2.85 -5.8 3.35 -1.55 3.15 M-6.15 2.85 L-6.4 6.45 -5.05 6.8 -5.05 6.85 M-5.3 1.05 Q-4.65 2.95 -0.45 0.95 M-4.4 -1.45 L-5.3 1.05" fill="none" stroke="#000000" stroke-linecap="round" stroke-linejoin="round" stroke-width="0.05"/>
  </g>
  <defs>
    <radialGradient cx="0" cy="0" gradientTransform="matrix(0.0061, 0.0021, -0.0031, 0.0092, -3.1, -0.1)" gradientUnits="userSpaceOnUse" id="gradient0" r="819.2" spreadMethod="pad">
      <stop offset="0.0" stop-color="#69477c"/>
      <stop offset="1.0" stop-color="#381d2e"/>
    </radialGradient>
    <linearGradient gradientTransform="matrix(-0.005, -0.0018, 0.0024, -0.0065, -2.1, 1.15)" gradientUnits="userSpaceOnUse" id="gradient1" spreadMethod="pad" x1="-819.2" x2="819.2">
      <stop offset="0.0" stop-color="#5332a3"/>
      <stop offset="1.0" stop-color="#ff483a"/>
    </linearGradient>
  </defs>
</svg>
