<?xml version="1.0" encoding="UTF-8" standalone="no"?>
<svg xmlns:xlink="http://www.w3.org/1999/xlink" height="29.85px" width="35.2px" xmlns="http://www.w3.org/2000/svg">
  <g transform="matrix(1.0, 0.0, 0.0, 1.0, 0.0, 0.0)">
    <path d="M5.75 -13.8 L8.25 -14.2 8.5 -14.2 9.05 -14.2 10.35 -14.15 11.45 -13.8 11.8 -13.65 Q13.5 -13.25 14.75 -11.95 L14.9 -11.75 16.75 -9.5 17.4 -8.1 17.5 -7.85 Q17.8 -7.05 16.95 -7.0 L16.7 -6.9 15.5 -6.25 14.55 -6.35 Q14.45 -6.45 14.3 -6.5 L14.2 -6.0 14.15 -5.9 13.4 -5.85 Q13.2 -5.55 12.45 -5.55 L12.35 -7.7 11.9 -8.7 11.85 -8.75 10.0 -10.9 9.4 -11.5 8.15 -12.5 5.75 -13.8 M11.7 -12.7 L8.15 -12.5 11.7 -12.7 M14.85 -8.3 L13.5 -8.8 11.9 -8.7 13.5 -8.8 14.85 -8.3 M13.15 -10.75 L12.65 -10.9 11.4 -11.25 10.75 -11.3 Q10.2 -11.45 10.0 -10.9 10.2 -11.45 10.75 -11.3 L11.4 -11.25 12.65 -10.9 13.15 -10.75" fill="url(#gradient0)" fill-rule="evenodd" stroke="none"/>
    <path d="M12.45 -5.55 Q12.35 -3.9 11.6 -2.45 L9.25 2.05 Q8.65 3.85 6.85 3.5 L5.25 3.2 3.25 3.0 2.6 3.35 Q-0.6 4.05 -3.45 5.85 -5.75 7.3 -7.2 9.3 L-8.85 11.95 -10.15 14.95 -12.15 14.45 Q-13.1 14.05 -13.6 13.0 L-15.4 8.9 -16.7 4.7 -16.9 3.25 -17.0 1.7 -16.95 -6.8 Q-16.85 -8.1 -16.1 -9.2 L-14.55 -10.95 Q-13.45 -12.0 -12.15 -12.65 L-8.65 -14.05 Q-3.7 -15.3 1.2 -14.75 L4.05 -14.25 4.7 -14.15 5.75 -13.8 8.15 -12.5 9.4 -11.5 10.0 -10.9 11.85 -8.75 11.9 -8.7 12.35 -7.7 12.45 -5.55 M-1.1 -9.4 L0.55 -11.85 Q2.55 -12.15 4.45 -11.4 2.55 -12.15 0.55 -11.85 L-1.1 -9.4 M9.25 2.05 Q9.05 -1.8 6.15 -3.85 L5.9 -3.8 Q4.25 -2.3 3.65 -0.3 1.45 -3.55 -2.55 -2.3 L-4.25 -3.95 Q-5.65 -4.05 -6.5 -3.1 L-5.35 -5.45 0.9 -4.7 1.2 -5.6 Q1.4 -7.0 1.05 -8.3 L3.0 -8.75 5.85 -7.75 7.35 -7.65 8.3 -8.75 9.15 -10.05 9.4 -11.5 9.15 -10.05 8.3 -8.75 7.35 -7.65 5.85 -7.75 3.0 -8.75 1.05 -8.3 Q1.4 -7.0 1.2 -5.6 L0.9 -4.7 -5.35 -5.45 -6.5 -3.1 Q-5.65 -4.05 -4.25 -3.95 L-2.55 -2.3 Q1.45 -3.55 3.65 -0.3 4.25 -2.3 5.9 -3.8 L6.15 -3.85 Q9.05 -1.8 9.25 2.05 M-15.35 -1.75 L-15.2 -1.4 -14.9 -1.3 -14.55 -1.4 -14.45 -1.75 -14.55 -2.05 -14.9 -2.2 -15.2 -2.05 -15.35 -1.75 M-13.75 -3.85 L-13.9 -3.45 -13.75 -3.05 -13.35 -2.9 Q-13.1 -2.9 -12.95 -3.05 -12.8 -3.2 -12.8 -3.45 L-12.95 -3.85 -13.35 -4.0 -13.75 -3.85 M-12.25 -1.75 L-12.15 -1.45 -11.9 -1.35 Q-11.75 -1.35 -11.65 -1.45 L-11.55 -1.75 -11.65 -2.0 -11.9 -2.15 -12.15 -2.0 -12.25 -1.75 M-7.3 -3.75 Q-7.8 -5.9 -6.7 -7.75 -6.05 -8.95 -5.05 -9.7 -3.95 -10.65 -2.4 -11.05 L-0.9 -11.55 0.55 -11.85 -0.9 -11.55 -2.4 -11.05 -4.4 -8.2 -2.4 -11.05 Q-3.95 -10.65 -5.05 -9.7 L-6.25 -6.75 -5.05 -9.7 Q-6.05 -8.95 -6.7 -7.75 -7.8 -5.9 -7.3 -3.75 M-7.5 4.2 Q-6.85 3.8 -6.85 2.8 -6.85 2.3 -7.0 1.9 -7.25 1.3 -7.85 0.95 L-8.35 0.95 Q-8.9 0.95 -9.25 1.3 -9.9 1.9 -9.75 2.9 L-9.4 3.9 -9.2 4.2 -8.7 4.3 -8.25 4.45 -7.5 4.2 M-4.8 4.3 Q-4.1 2.45 -5.5 1.3 -6.25 0.65 -6.5 -0.3 -6.25 0.65 -5.5 1.3 -4.1 2.45 -4.8 4.3 M-14.65 0.75 L-14.75 1.25 -14.75 3.0 -14.7 3.15 -14.4 3.75 -13.8 3.95 -13.2 3.95 Q-12.3 3.55 -12.3 2.4 -12.35 0.7 -13.65 -0.05 -14.45 0.05 -14.65 0.75" fill="url(#gradient1)" fill-rule="evenodd" stroke="none"/>
    <path d="M-16.7 4.7 L-17.0 4.4 -17.5 3.65 -16.9 3.25 -16.7 4.7 M-12.25 -1.75 L-12.15 -2.0 -11.9 -2.15 -11.65 -2.0 -11.55 -1.75 -11.65 -1.45 Q-11.75 -1.35 -11.9 -1.35 L-12.15 -1.45 -12.25 -1.75 M-13.75 -3.85 L-13.35 -4.0 -12.95 -3.85 -12.8 -3.45 Q-12.8 -3.2 -12.95 -3.05 -13.1 -2.9 -13.35 -2.9 L-13.75 -3.05 -13.9 -3.45 -13.75 -3.85 M-15.35 -1.75 L-15.2 -2.05 -14.9 -2.2 -14.55 -2.05 -14.45 -1.75 -14.55 -1.4 -14.9 -1.3 -15.2 -1.4 -15.35 -1.75" fill="#000000" fill-rule="evenodd" stroke="none"/>
    <path d="M-7.0 1.9 Q-6.85 2.3 -6.85 2.8 -6.85 3.8 -7.5 4.2 L-8.3 3.45 -7.9 2.8 -7.85 2.7 -7.0 1.9 -7.85 2.7 -7.9 2.8 -8.3 3.45 -7.5 4.2 -8.25 4.45 -8.7 4.3 -9.2 4.2 -9.4 3.9 -9.75 2.9 Q-9.9 1.9 -9.25 1.3 -8.9 0.95 -8.35 0.95 L-7.85 0.95 Q-7.25 1.3 -7.0 1.9 M-8.85 2.9 L-9.4 3.9 -8.85 2.9 -9.35 2.3 -9.75 2.9 -9.35 2.3 -8.35 0.95 -9.35 2.3 -8.85 2.9 -8.3 2.05 -8.0 1.55 -8.3 2.05 -8.85 2.9 -8.3 3.45 -8.85 2.9 M-8.7 4.3 L-8.3 3.45 -8.7 4.3 M-7.85 2.7 L-8.3 2.05 -7.85 2.7" fill="url(#gradient2)" fill-rule="evenodd" stroke="none"/>
    <path d="M-14.75 3.0 L-14.75 1.25 -14.65 0.75 -13.6 1.25 -14.05 2.2 -14.65 3.05 -14.05 2.2 -13.6 1.25 -14.65 0.75 Q-14.45 0.05 -13.65 -0.05 -12.35 0.7 -12.3 2.4 -12.3 3.55 -13.2 3.95 L-13.8 3.95 -14.4 3.75 -14.7 3.15 -14.65 3.05 -14.75 3.0 M-13.0 1.8 L-13.6 1.25 -13.0 1.8 M-14.05 2.2 L-13.25 3.0 -13.0 2.45 -13.25 3.0 -13.8 3.95 -13.25 3.0 -14.05 2.2" fill="url(#gradient3)" fill-rule="evenodd" stroke="none"/>
    <path d="M-17.5 3.65 Q-17.85 2.65 -17.0 1.7 L-16.9 3.25 -17.5 3.65" fill="#cbcbcb" fill-rule="evenodd" stroke="none"/>
    <path d="M5.75 -13.8 L8.25 -14.2 8.5 -14.2 9.05 -14.2 10.35 -14.15 11.45 -13.8 11.8 -13.65 Q13.5 -13.25 14.75 -11.95 L14.9 -11.75 16.75 -9.5 17.4 -8.1 17.5 -7.85 Q17.8 -7.05 16.95 -7.0 L16.7 -6.9 15.5 -6.25 14.55 -6.35 Q14.45 -6.45 14.3 -6.5 L14.2 -6.0 14.2 -5.85 14.15 -5.9 13.4 -5.85 Q13.2 -5.55 12.45 -5.55 M-16.7 4.7 L-17.0 4.4 -17.5 3.65 Q-17.85 2.65 -17.0 1.7 M8.15 -12.5 L11.7 -12.7 M9.4 -11.5 L9.15 -10.05 8.3 -8.75 7.35 -7.65 5.85 -7.75 3.0 -8.75 1.05 -8.3 Q1.4 -7.0 1.2 -5.6 L0.9 -4.7 -5.35 -5.45 -6.5 -3.1 Q-5.65 -4.05 -4.25 -3.95 L-2.55 -2.3 Q1.45 -3.55 3.65 -0.3 4.25 -2.3 5.9 -3.8 L6.15 -3.85 Q9.05 -1.8 9.25 2.05 M4.45 -11.4 Q2.55 -12.15 0.55 -11.85 L-1.1 -9.4 M10.0 -10.9 Q10.2 -11.45 10.75 -11.3 L11.4 -11.25 12.65 -10.9 13.15 -10.75 M11.9 -8.7 L13.5 -8.8 14.85 -8.3 M0.55 -11.85 L-0.9 -11.55 -2.4 -11.05 -4.4 -8.2 M-2.4 -11.05 Q-3.95 -10.65 -5.05 -9.7 L-6.25 -6.75 M-5.05 -9.7 Q-6.05 -8.95 -6.7 -7.75 -7.8 -5.9 -7.3 -3.75 M-7.5 4.2 Q-6.85 3.8 -6.85 2.8 -6.85 2.3 -7.0 1.9 L-7.85 2.7 -7.9 2.8 -8.3 3.45 -7.5 4.2 -8.25 4.45 -8.7 4.3 -9.2 4.2 -9.4 3.9 -9.75 2.9 Q-9.9 1.9 -9.25 1.3 -8.9 0.95 -8.35 0.95 L-7.85 0.95 Q-7.25 1.3 -7.0 1.9 M-9.75 2.9 L-9.35 2.3 -8.35 0.95 M-9.35 2.3 L-8.85 2.9 -8.3 2.05 -8.0 1.55 M-8.3 2.05 L-7.85 2.7 M-8.3 3.45 L-8.7 4.3 M-8.85 2.9 L-8.3 3.45 M-9.4 3.9 L-8.85 2.9 M-6.5 -0.3 Q-6.25 0.65 -5.5 1.3 -4.1 2.45 -4.8 4.3 M-14.65 0.75 L-14.75 1.25 -14.75 3.0 -14.7 3.15 -14.65 3.05 -14.05 2.2 -13.6 1.25 -14.65 0.75 Q-14.45 0.05 -13.65 -0.05 -12.35 0.7 -12.3 2.4 -12.3 3.55 -13.2 3.95 L-13.8 3.95 -14.4 3.75 -14.7 3.15 M-13.0 2.45 L-13.25 3.0 -13.8 3.95 M-13.25 3.0 L-14.05 2.2 M-13.6 1.25 L-13.0 1.8 M-16.9 3.25 L-17.5 3.65" fill="none" stroke="#000000" stroke-linecap="round" stroke-linejoin="round" stroke-width="0.05"/>
    <path d="M12.45 -5.55 Q12.35 -3.9 11.6 -2.45 L9.25 2.05 Q8.65 3.85 6.85 3.5 L5.25 3.2 3.25 3.0 2.6 3.35 Q-0.6 4.05 -3.45 5.85 -5.75 7.3 -7.2 9.3 L-8.85 11.95 -10.15 14.95 -12.15 14.45 Q-13.1 14.05 -13.6 13.0 L-15.4 8.9 -16.7 4.7 -16.9 3.25 -17.0 1.7 -16.95 -6.8 Q-16.85 -8.1 -16.1 -9.2 L-14.55 -10.95 Q-13.45 -12.0 -12.15 -12.65 L-8.65 -14.05 Q-3.7 -15.3 1.2 -14.75 L4.05 -14.25 4.7 -14.15 5.75 -13.8 8.15 -12.5 9.4 -11.5 10.0 -10.9 11.85 -8.75 11.9 -8.7 12.35 -7.7 12.45 -5.55 Z" fill="none" stroke="#000000" stroke-linecap="round" stroke-linejoin="round" stroke-width="0.05"/>
    <path d="M9.15 -10.05 L9.4 -11.5 10.0 -10.9 11.85 -8.75 11.9 -8.7 12.35 -7.7 12.45 -5.55 Q12.35 -3.9 11.6 -2.45 L9.25 2.05 Q9.05 -1.8 6.15 -3.85 L5.9 -3.8 Q4.25 -2.3 3.65 -0.3 1.45 -3.55 -2.55 -2.3 L-4.25 -3.95 Q-5.65 -4.05 -6.5 -3.1 L-5.35 -5.45 0.9 -4.7 1.2 -5.6 Q1.4 -7.0 1.05 -8.3 L3.0 -8.75 5.85 -7.75 7.35 -7.65 8.3 -8.75 9.15 -10.05" fill="url(#gradient4)" fill-rule="evenodd" stroke="none"/>
  </g>
  <defs>
    <linearGradient gradientTransform="matrix(-0.0035, 0.0015, -0.0021, -0.0048, 12.6, -10.3)" gradientUnits="userSpaceOnUse" id="gradient0" spreadMethod="pad" x1="-819.2" x2="819.2">
      <stop offset="0.0" stop-color="#c4b177" stop-opacity="0.56078434"/>
      <stop offset="1.0" stop-color="#715e3e" stop-opacity="0.7019608"/>
    </linearGradient>
    <radialGradient cx="0" cy="0" gradientTransform="matrix(0.0266, 0.0, 0.0, 0.0266, -10.65, -2.55)" gradientUnits="userSpaceOnUse" id="gradient1" r="819.2" spreadMethod="pad">
      <stop offset="0.0" stop-color="#7e6a56"/>
      <stop offset="1.0" stop-color="#5c483a"/>
    </radialGradient>
    <radialGradient cx="0" cy="0" gradientTransform="matrix(0.0018, 0.0, 0.0, 0.0018, -8.9, 2.05)" gradientUnits="userSpaceOnUse" id="gradient2" r="819.2" spreadMethod="pad">
      <stop offset="0.0" stop-color="#ffffff"/>
      <stop offset="1.0" stop-color="#000000"/>
    </radialGradient>
    <radialGradient cx="0" cy="0" gradientTransform="matrix(0.0015, 0.0, 0.0, 0.0018, -14.05, 1.65)" gradientUnits="userSpaceOnUse" id="gradient3" r="819.2" spreadMethod="pad">
      <stop offset="0.0" stop-color="#ffffff"/>
      <stop offset="1.0" stop-color="#000000"/>
    </radialGradient>
    <linearGradient gradientTransform="matrix(0.0116, 0.0, 0.0, 0.0083, 2.95, -4.75)" gradientUnits="userSpaceOnUse" id="gradient4" spreadMethod="pad" x1="-819.2" x2="819.2">
      <stop offset="0.0" stop-color="#c4b177" stop-opacity="0.34117648"/>
      <stop offset="1.0" stop-color="#493a29" stop-opacity="0.4"/>
    </linearGradient>
  </defs>
</svg>
