<?xml version="1.0" encoding="UTF-8" standalone="no"?>
<svg xmlns:xlink="http://www.w3.org/1999/xlink" height="34.2px" width="44.3px" xmlns="http://www.w3.org/2000/svg">
  <g transform="matrix(1.0, 0.0, 0.0, 1.0, 0.0, 0.0)">
    <path d="M3.95 -15.0 L4.35 -15.6 Q5.1 -16.65 5.0 -17.9 5.1 -16.65 4.35 -15.6 L3.95 -15.0 Q2.65 -15.6 1.15 -15.3 -0.1 -15.15 -1.25 -14.6 L-4.05 -13.35 Q-5.7 -12.55 -7.8 -12.15 -9.65 -11.9 -10.7 -10.4 L-10.75 -10.25 -12.35 -9.6 Q-13.95 -8.85 -15.5 -8.3 -16.15 -8.5 -14.65 -10.6 -13.15 -12.75 -7.1 -14.0 L-5.4 -15.0 -3.65 -16.1 -1.95 -17.25 Q-0.45 -18.15 1.3 -18.4 3.2 -18.85 5.0 -17.9 L6.4 -17.35 Q7.9 -16.85 9.2 -15.95 8.95 -14.4 8.1 -13.25 L7.65 -12.7 8.1 -13.25 Q8.95 -14.4 9.2 -15.95 L9.8 -15.35 10.75 -13.9 12.3 -10.7 11.0 -9.3 12.3 -10.7 14.05 -7.15 Q14.65 -6.0 14.7 -4.55 14.75 -2.75 14.2 -1.3 L13.45 0.5 13.0 1.35 12.9 1.55 Q12.1 2.6 10.8 3.1 L10.35 3.0 12.2 -0.4 11.6 -2.7 11.25 -5.7 11.9 -6.65 Q11.95 -8.25 11.0 -9.3 L8.35 -10.6 8.7 -11.0 Q8.8 -11.5 8.3 -12.05 L7.7 -12.7 7.65 -12.7 3.95 -15.0 M14.7 -4.55 L11.6 -2.7 14.7 -4.55" fill="#27160c" fill-rule="evenodd" stroke="none"/>
    <path d="M3.95 -15.0 L7.65 -12.7 7.7 -12.7 8.3 -12.05 Q8.8 -11.5 8.7 -11.0 L8.35 -10.6 7.3 -9.45 6.75 -8.45 5.95 -6.65 Q5.25 -5.25 3.8 -4.6 L2.35 -4.55 Q1.4 -4.75 0.6 -5.25 L-1.9 -6.85 -3.15 -7.25 -5.1 -7.35 -7.3 -6.65 -5.1 -7.35 -3.15 -7.25 -1.9 -6.85 0.6 -5.25 Q1.4 -4.75 2.35 -4.55 L3.8 -4.6 Q5.25 -5.25 5.95 -6.65 L6.75 -8.45 7.3 -9.45 8.35 -10.6 11.0 -9.3 Q11.95 -8.25 11.9 -6.65 L11.25 -5.7 11.6 -2.7 12.2 -0.4 10.35 3.0 8.65 5.1 7.2 5.3 3.7 5.5 1.95 5.9 1.3 5.9 0.3 5.15 -0.45 4.35 -1.1 4.1 Q-0.1 3.7 0.0 2.95 L0.0 1.95 Q-0.05 1.05 0.15 0.3 0.35 -0.6 0.85 -1.4 -0.8 -1.5 -1.1 -3.05 -1.25 -3.75 -1.7 -4.15 -3.0 -5.5 -4.85 -6.0 L-7.3 -6.65 -7.8 -6.45 -9.55 -5.4 -11.05 -4.05 -12.05 -2.95 Q-13.3 -1.55 -15.0 -0.8 L-15.45 -0.6 -16.6 -0.9 Q-17.3 -1.45 -17.6 -2.15 L-18.95 -1.55 -19.55 -1.05 Q-20.4 -0.25 -20.65 1.0 L-20.7 1.05 -21.8 1.35 -23.35 2.5 Q-23.85 3.0 -24.0 3.7 -24.15 4.45 -23.65 4.85 -22.4 5.7 -22.3 6.0 L-24.5 6.1 Q-24.3 6.7 -23.55 7.0 L-22.85 7.25 -22.95 7.35 -24.25 7.75 Q-25.2 7.75 -26.2 7.2 -27.2 6.6 -27.55 5.7 -28.2 3.9 -27.55 2.35 L-26.0 -1.3 Q-25.15 -3.05 -23.2 -2.8 L-19.65 -2.5 Q-20.75 -3.8 -20.45 -5.4 -20.2 -6.75 -19.3 -7.9 -18.85 -8.5 -18.7 -9.25 -18.45 -10.65 -17.35 -11.7 L-16.15 -12.65 -14.75 -13.65 -13.05 -14.9 Q-11.9 -15.7 -10.6 -16.2 L-7.0 -17.65 -6.4 -17.65 -6.2 -17.5 Q-5.35 -16.25 -5.4 -15.0 L-7.1 -14.0 Q-13.15 -12.75 -14.65 -10.6 -16.15 -8.5 -15.5 -8.3 -13.95 -8.85 -12.35 -9.6 L-10.75 -10.25 -10.7 -10.4 Q-9.65 -11.9 -7.8 -12.15 -5.7 -12.55 -4.05 -13.35 L-1.25 -14.6 Q-0.1 -15.15 1.15 -15.3 2.65 -15.6 3.95 -15.0 M-7.95 3.95 Q-7.9 5.7 -5.85 6.45 -4.75 6.7 -4.55 7.7 -4.25 9.25 -4.65 10.8 -5.1 12.65 -7.0 13.05 L-10.7 13.9 -12.2 14.4 -15.1 15.35 -16.8 15.65 Q-18.5 15.55 -19.95 14.45 -21.55 13.25 -21.7 11.15 L-21.65 9.4 -19.9 10.9 Q-20.5 9.55 -19.9 8.3 -19.3 10.7 -17.05 11.55 L-16.85 9.8 Q-16.75 10.95 -16.15 11.55 L-15.8 11.95 -14.45 11.8 -13.05 10.75 -12.0 9.5 Q-11.3 7.9 -11.85 6.35 -12.35 5.05 -13.55 3.85 L-14.45 3.0 -14.7 2.85 Q-14.55 2.25 -14.0 2.0 L-12.75 1.9 -12.05 2.5 -10.8 2.2 -9.4 2.15 Q-8.75 2.35 -8.4 3.05 L-7.95 3.95 M11.25 -5.7 Q10.2 -4.95 9.7 -3.75 L8.9 -2.3 Q7.8 -0.7 5.9 -0.2 L4.55 -0.25 0.85 -1.4 4.55 -0.25 5.9 -0.2 Q7.8 -0.7 8.9 -2.3 L9.7 -3.75 Q10.2 -4.95 11.25 -5.7 M-11.15 -9.4 L-10.75 -10.25 -11.15 -9.4 M-17.6 -2.15 L-17.85 -3.3 Q-17.9 -4.15 -17.6 -4.85 -16.75 -6.65 -15.5 -8.3 -16.75 -6.65 -17.6 -4.85 -17.9 -4.15 -17.85 -3.3 L-17.6 -2.15 M-18.95 -1.55 Q-19.25 -1.55 -19.45 -1.8 L-19.65 -2.5 -19.45 -1.8 Q-19.25 -1.55 -18.95 -1.55" fill="url(#gradient0)" fill-rule="evenodd" stroke="none"/>
    <path d="M13.0 1.35 L14.95 0.85 13.6 2.4 16.05 1.6 15.5 2.3 13.75 4.25 16.4 3.9 Q14.65 5.85 11.9 6.1 L14.9 6.7 Q12.8 7.9 10.3 7.75 L13.75 9.05 Q9.75 9.75 5.85 8.35 L7.45 10.15 4.25 8.8 Q3.05 8.2 1.95 5.9 L3.7 5.5 7.2 5.3 8.65 5.1 10.35 3.0 10.8 3.1 Q12.1 2.6 12.9 1.55 L13.0 1.35 M-14.85 2.85 L-14.85 2.95 -15.4 2.6 Q-14.85 4.55 -16.6 5.25 L-16.05 3.7 -16.15 3.25 -16.35 4.3 -17.05 5.15 -18.2 6.0 -18.8 6.35 -18.15 3.8 -18.35 3.05 -18.55 3.5 Q-19.5 4.1 -19.9 5.45 -20.65 2.95 -19.65 0.85 -20.6 1.8 -20.7 1.1 L-20.65 1.0 Q-20.4 -0.25 -19.55 -1.05 L-18.95 -1.55 -17.6 -2.15 Q-17.3 -1.45 -16.6 -0.9 L-15.45 -0.6 -15.0 -0.8 -14.85 -0.2 Q-15.4 1.05 -14.95 2.5 L-14.85 2.85" fill="#684f31" fill-rule="evenodd" stroke="none"/>
    <path d="M-1.1 4.1 L-2.5 4.2 Q-2.95 4.9 -3.6 4.45 -5.3 3.45 -7.1 3.45 L-7.3 3.5 -7.35 3.35 -7.85 3.7 -7.95 3.95 -8.4 3.05 Q-8.75 2.35 -9.4 2.15 L-10.8 2.2 -12.05 2.5 -12.75 1.9 -14.0 2.0 Q-14.55 2.25 -14.7 2.85 L-14.85 2.85 -14.95 2.5 Q-15.4 1.05 -14.85 -0.2 L-15.0 -0.8 Q-13.3 -1.55 -12.05 -2.95 L-11.05 -4.05 -9.55 -5.4 -7.8 -6.45 -7.3 -6.65 -4.85 -6.0 Q-3.0 -5.5 -1.7 -4.15 -1.25 -3.75 -1.1 -3.05 -0.8 -1.5 0.85 -1.4 0.35 -0.6 0.15 0.3 -0.05 1.05 0.0 1.95 L0.0 2.95 Q-0.1 3.7 -1.1 4.1 M-5.65 -4.5 L-6.1 -5.25 Q-7.25 -5.35 -8.35 -4.7 -10.4 -3.65 -10.35 -1.4 L-9.85 -1.3 -8.1 -1.8 Q-5.85 -2.5 -5.65 -4.5 M-12.1 -1.05 Q-12.5 -1.35 -13.0 -0.9 L-13.15 -0.75 -13.35 -0.2 -12.5 0.15 -12.2 -0.1 Q-11.85 -0.55 -12.1 -1.05 M-3.65 -3.6 L-4.75 -3.25 -4.9 -2.9 Q-5.0 -2.3 -4.4 -2.15 L-3.95 -2.15 -3.7 -2.4 -3.4 -2.85 -3.65 -3.6 M-7.1 -0.3 L-5.4 1.15 -5.25 1.35 Q-5.85 2.7 -7.35 3.35 -5.85 2.7 -5.25 1.35 L-5.4 1.15 -7.1 -0.3 M-2.4 1.1 Q-1.25 2.25 -2.1 3.6 L-2.5 4.2 -2.1 3.6 Q-1.25 2.25 -2.4 1.1" fill="#3d2312" fill-rule="evenodd" stroke="none"/>
    <path d="M-12.1 -1.05 Q-11.85 -0.55 -12.2 -0.1 L-12.5 0.15 -13.35 -0.2 -13.15 -0.75 -13.0 -0.9 Q-12.5 -1.35 -12.1 -1.05 M-5.65 -4.5 Q-5.85 -2.5 -8.1 -1.8 L-9.85 -1.3 -10.35 -1.4 Q-10.4 -3.65 -8.35 -4.7 -7.25 -5.35 -6.1 -5.25 L-5.65 -4.5 M-9.65 -2.4 L-9.4 -1.85 -9.3 -1.9 Q-9.65 -2.35 -8.9 -3.1 L-7.0 -4.7 Q-7.75 -4.75 -8.7 -3.8 -9.65 -2.9 -9.65 -2.4 M-3.65 -3.6 L-3.4 -2.85 -3.7 -2.4 -3.95 -2.15 -4.4 -2.15 Q-5.0 -2.3 -4.9 -2.9 L-4.75 -3.25 -3.65 -3.6" fill="#000000" fill-rule="evenodd" stroke="none"/>
    <path d="M-9.65 -2.4 Q-9.65 -2.9 -8.7 -3.8 -7.75 -4.75 -7.0 -4.7 L-8.9 -3.1 Q-9.65 -2.35 -9.3 -1.9 L-9.4 -1.85 -9.65 -2.4" fill="#ffffff" fill-rule="evenodd" stroke="none"/>
    <path d="M5.0 -17.9 Q5.1 -16.65 4.35 -15.6 L3.95 -15.0 7.65 -12.7 8.1 -13.25 Q8.95 -14.4 9.2 -15.95 7.9 -16.85 6.4 -17.35 L5.0 -17.9 Q3.2 -18.85 1.3 -18.4 -0.45 -18.15 -1.95 -17.25 L-3.65 -16.1 -5.4 -15.0 -7.1 -14.0 Q-13.15 -12.75 -14.65 -10.6 -16.15 -8.5 -15.5 -8.3 -13.95 -8.85 -12.35 -9.6 L-10.75 -10.25 -10.7 -10.4 Q-9.65 -11.9 -7.8 -12.15 -5.7 -12.55 -4.05 -13.35 L-1.25 -14.6 Q-0.1 -15.15 1.15 -15.3 2.65 -15.6 3.95 -15.0 M8.35 -10.6 L8.7 -11.0 Q8.8 -11.5 8.3 -12.05 L7.7 -12.7 7.65 -12.7 M12.3 -10.7 L10.75 -13.9 9.8 -15.35 9.2 -15.95 M-7.3 -6.65 L-5.1 -7.35 -3.15 -7.25 -1.9 -6.85 0.6 -5.25 Q1.4 -4.75 2.35 -4.55 L3.8 -4.6 Q5.25 -5.25 5.95 -6.65 L6.75 -8.45 7.3 -9.45 8.35 -10.6 11.0 -9.3 12.3 -10.7 14.05 -7.15 Q14.65 -6.0 14.7 -4.55 14.75 -2.75 14.2 -1.3 L13.45 0.5 13.0 1.35 14.95 0.85 13.6 2.4 16.05 1.6 15.5 2.3 13.75 4.25 16.4 3.9 Q14.65 5.85 11.9 6.1 L14.9 6.7 Q12.8 7.9 10.3 7.75 L13.75 9.05 Q9.75 9.75 5.85 8.35 L7.45 10.15 4.25 8.8 Q3.05 8.2 1.95 5.9 L1.3 5.9 0.3 5.15 -0.45 4.35 -1.1 4.1 -2.5 4.2 Q-2.95 4.9 -3.6 4.45 -5.3 3.45 -7.1 3.45 L-7.3 3.5 -7.85 3.7 -7.95 3.95 Q-7.9 5.7 -5.85 6.45 -4.75 6.7 -4.55 7.7 -4.25 9.25 -4.65 10.8 -5.1 12.65 -7.0 13.05 L-10.7 13.9 -12.2 14.4 -15.1 15.35 -16.8 15.65 Q-18.5 15.55 -19.95 14.45 -21.55 13.25 -21.7 11.15 L-21.65 9.4 -19.9 10.9 Q-20.5 9.55 -19.9 8.3 -19.3 10.7 -17.05 11.55 L-16.85 9.8 Q-16.75 10.95 -16.15 11.55 L-15.8 11.95 -14.45 11.8 -13.05 10.75 -12.0 9.5 Q-11.3 7.9 -11.85 6.35 -12.35 5.05 -13.55 3.85 L-14.45 3.0 -14.7 2.85 Q-14.55 2.25 -14.0 2.0 L-12.75 1.9 -12.05 2.5 -10.8 2.2 -9.4 2.15 Q-8.75 2.35 -8.4 3.05 L-7.95 3.95 M-14.85 2.85 L-14.85 2.95 -15.4 2.6 Q-14.85 4.55 -16.6 5.25 L-16.05 3.7 -16.15 3.25 -16.35 4.3 -17.05 5.15 -18.2 6.0 -18.8 6.35 -18.15 3.8 -18.35 3.05 -18.55 3.5 Q-19.5 4.1 -19.9 5.45 -20.65 2.95 -19.65 0.85 -20.6 1.8 -20.7 1.1 L-20.65 1.0 -20.7 1.05 -21.8 1.35 -23.35 2.5 Q-23.85 3.0 -24.0 3.7 -24.15 4.45 -23.65 4.85 -22.4 5.7 -22.3 6.0 L-24.5 6.1 Q-24.3 6.7 -23.55 7.0 L-22.85 7.25 -22.95 7.35 -24.25 7.75 Q-25.2 7.75 -26.2 7.2 -27.2 6.6 -27.55 5.7 -28.2 3.9 -27.55 2.35 L-26.0 -1.3 Q-25.15 -3.05 -23.2 -2.8 L-19.65 -2.5 Q-20.75 -3.8 -20.45 -5.4 -20.2 -6.75 -19.3 -7.9 -18.85 -8.5 -18.7 -9.25 -18.45 -10.65 -17.35 -11.7 L-16.15 -12.65 -14.75 -13.65 -13.05 -14.9 Q-11.9 -15.7 -10.6 -16.2 L-7.0 -17.65 -6.4 -17.65 -6.2 -17.5 Q-5.35 -16.25 -5.4 -15.0 M0.85 -1.4 L4.55 -0.25 5.9 -0.2 Q7.8 -0.7 8.9 -2.3 L9.7 -3.75 Q10.2 -4.95 11.25 -5.7 L11.9 -6.65 Q11.95 -8.25 11.0 -9.3 M11.25 -5.7 L11.6 -2.7 14.7 -4.55 M11.6 -2.7 L12.2 -0.4 10.35 3.0 10.8 3.1 Q12.1 2.6 12.9 1.55 L13.0 1.35 M10.35 3.0 L8.65 5.1 7.2 5.3 3.7 5.5 1.95 5.9 M-1.1 4.1 Q-0.1 3.7 0.0 2.95 L0.0 1.95 Q-0.05 1.05 0.15 0.3 0.35 -0.6 0.85 -1.4 -0.8 -1.5 -1.1 -3.05 -1.25 -3.75 -1.7 -4.15 -3.0 -5.5 -4.85 -6.0 L-7.3 -6.65 -7.8 -6.45 -9.55 -5.4 -11.05 -4.05 -12.05 -2.95 Q-13.3 -1.55 -15.0 -0.8 L-14.85 -0.2 Q-15.4 1.05 -14.95 2.5 L-14.85 2.85 M-10.75 -10.25 L-11.15 -9.4 M-15.0 -0.8 L-15.45 -0.6 -16.6 -0.9 Q-17.3 -1.45 -17.6 -2.15 L-18.95 -1.55 -19.55 -1.05 Q-20.4 -0.25 -20.65 1.0 M-19.65 -2.5 L-19.45 -1.8 Q-19.25 -1.55 -18.95 -1.55 M-15.5 -8.3 Q-16.75 -6.65 -17.6 -4.85 -17.9 -4.15 -17.85 -3.3 L-17.6 -2.15 M-12.1 -1.05 Q-11.85 -0.55 -12.2 -0.1 L-12.5 0.15 -13.35 -0.2 -13.15 -0.75 -13.0 -0.9 Q-12.5 -1.35 -12.1 -1.05 M-5.65 -4.5 Q-5.85 -2.5 -8.1 -1.8 L-9.85 -1.3 -10.35 -1.4 Q-10.4 -3.65 -8.35 -4.7 -7.25 -5.35 -6.1 -5.25 L-5.65 -4.5 M-3.65 -3.6 L-3.4 -2.85 -3.7 -2.4 -3.95 -2.15 -4.4 -2.15 Q-5.0 -2.3 -4.9 -2.9 L-4.75 -3.25 -3.65 -3.6 M-2.5 4.2 L-2.1 3.6 Q-1.25 2.25 -2.4 1.1 M-7.35 3.35 Q-5.85 2.7 -5.25 1.35 L-5.4 1.15 -7.1 -0.3 M-7.35 3.35 L-7.85 3.7" fill="none" stroke="#000000" stroke-linecap="round" stroke-linejoin="round" stroke-width="0.05"/>
  </g>
  <defs>
    <radialGradient cx="0" cy="0" gradientTransform="matrix(0.0266, 0.0, 0.0, 0.0266, -10.65, -2.55)" gradientUnits="userSpaceOnUse" id="gradient0" r="819.2" spreadMethod="pad">
      <stop offset="0.0" stop-color="#910000"/>
      <stop offset="1.0" stop-color="#331e03"/>
    </radialGradient>
  </defs>
</svg>
