<?xml version="1.0" encoding="UTF-8" standalone="no"?>
<svg xmlns:xlink="http://www.w3.org/1999/xlink" height="21.8px" width="7.5px" xmlns="http://www.w3.org/2000/svg">
  <g transform="matrix(1.0, 0.0, 0.0, 1.0, 0.0, 0.0)">
    <path d="M-0.3 -1.95 Q-0.75 -3.85 -1.5 -5.4 L-3.8 -11.05 Q-4.35 -12.5 -3.9 -13.8 L-3.5 -13.7 Q-2.9 -13.6 -2.8 -12.7 L-2.65 -12.3 1.15 -2.6 2.3 1.35 3.4 6.4 Q3.45 7.4 2.0 8.0 L1.2 7.95 Q0.9 7.6 0.9 6.9 L0.3 1.15 -0.3 -1.95" fill="#262315" fill-rule="evenodd" stroke="none"/>
    <path d="M-0.3 -1.95 L0.3 1.15 0.9 6.9 Q0.9 7.6 1.2 7.95 L2.0 8.0 Q3.45 7.4 3.4 6.4 L2.3 1.35 1.15 -2.6 -2.65 -12.3 -2.8 -12.7 Q-2.9 -13.6 -3.5 -13.7 L-3.9 -13.8 Q-4.35 -12.5 -3.8 -11.05 L-1.5 -5.4 Q-0.75 -3.85 -0.3 -1.95 Z" fill="none" stroke="#000000" stroke-linecap="round" stroke-linejoin="round" stroke-width="0.05"/>
  </g>
</svg>
