<?xml version="1.0" encoding="UTF-8" standalone="no"?>
<svg xmlns:xlink="http://www.w3.org/1999/xlink" height="34.45px" width="10.55px" xmlns="http://www.w3.org/2000/svg">
  <g transform="matrix(1.0, 0.0, 0.0, 1.0, 0.0, 0.0)">
    <path d="M-0.5 -15.1 L2.55 -15.45 Q5.25 -13.5 4.65 -9.95 L4.35 -8.3 Q4.2 -9.5 3.45 -10.4 L3.45 -6.15 2.7 -8.2 2.55 -4.35 1.65 -6.6 1.6 -3.85 1.25 -5.35 0.7 -4.2 -0.2 0.75 Q-0.6 3.65 0.15 6.65 L0.45 7.85 0.45 8.25 -0.4 9.0 0.45 9.7 Q0.2 14.4 2.4 19.0 -0.35 17.3 -2.05 14.55 -3.4 12.3 -4.25 9.9 -6.15 4.9 -5.75 -0.4 L-5.45 -2.75 Q-4.85 -6.2 -3.5 -9.3 L-2.3 -11.45 Q-1.05 -13.25 -0.5 -15.1 M2.8 -14.05 L3.05 -13.45 3.15 -12.4 3.0 -11.55 2.25 -11.1 2.0 -10.65 1.35 -10.0 0.15 -9.45 -1.1 -8.5 Q-2.6 -6.95 -3.4 -5.0 L-4.05 -2.7 Q-4.6 0.45 -4.75 3.7 -4.9 6.65 -3.8 9.45 -4.9 6.65 -4.75 3.7 -4.6 0.45 -4.05 -2.7 L-3.4 -5.0 Q-2.6 -6.95 -1.1 -8.5 L0.15 -9.45 1.35 -10.0 2.0 -10.65 2.25 -11.1 3.0 -11.55 3.15 -12.4 3.05 -13.45 2.8 -14.05" fill="url(#gradient0)" fill-rule="evenodd" stroke="none"/>
    <path d="M-0.5 -15.1 L2.55 -15.45 Q5.25 -13.5 4.65 -9.95 L4.35 -8.3 Q4.2 -9.5 3.45 -10.4 L3.45 -6.15 2.7 -8.2 2.55 -4.35 1.65 -6.6 1.6 -3.85 1.25 -5.35 0.7 -4.2 -0.2 0.75 Q-0.6 3.65 0.15 6.65 L0.45 7.85 0.45 8.25 -0.4 9.0 0.45 9.7 Q0.2 14.4 2.4 19.0 -0.35 17.3 -2.05 14.55 -3.4 12.3 -4.25 9.9 -6.15 4.9 -5.75 -0.4 L-5.45 -2.75 Q-4.85 -6.2 -3.5 -9.3 L-2.3 -11.45 Q-1.05 -13.25 -0.5 -15.1 M-3.8 9.45 Q-4.9 6.65 -4.75 3.7 -4.6 0.45 -4.05 -2.7 L-3.4 -5.0 Q-2.6 -6.95 -1.1 -8.5 L0.15 -9.45 1.35 -10.0 2.0 -10.65 2.25 -11.1 3.0 -11.55 3.15 -12.4 3.05 -13.45 2.8 -14.05" fill="none" stroke="#000000" stroke-linecap="round" stroke-linejoin="round" stroke-width="0.05"/>
  </g>
  <defs>
    <radialGradient cx="0" cy="0" gradientTransform="matrix(0.0056, 0.0029, -0.011, 0.0216, -0.4, -11.45)" gradientUnits="userSpaceOnUse" id="gradient0" r="819.2" spreadMethod="pad">
      <stop offset="0.0" stop-color="#969a3a"/>
      <stop offset="1.0" stop-color="#5f6130"/>
    </radialGradient>
  </defs>
</svg>
