<?xml version="1.0" encoding="UTF-8" standalone="no"?>
<svg xmlns:xlink="http://www.w3.org/1999/xlink" height="35.55px" width="18.1px" xmlns="http://www.w3.org/2000/svg">
  <g transform="matrix(1.0, 0.0, 0.0, 1.0, 0.0, 0.0)">
    <path d="M3.55 -13.3 L3.55 -12.65 3.2 -11.65 2.65 -11.0 1.75 -10.9 1.4 -10.6 0.5 -10.3 -0.8 -10.4 -2.35 -10.05 Q-4.4 -9.35 -5.95 -7.95 L-7.55 -6.15 Q-9.45 -3.55 -10.95 -0.75 -12.4 1.85 -12.65 4.9 -12.4 1.85 -10.95 -0.75 -9.45 -3.55 -7.55 -6.15 L-5.95 -7.95 Q-4.4 -9.35 -2.35 -10.05 L-0.8 -10.4 0.5 -10.3 1.4 -10.6 1.75 -10.9 2.65 -11.0 3.2 -11.65 3.55 -12.65 3.55 -13.3 M4.0 -14.7 Q5.55 -11.75 3.4 -8.85 L2.45 -7.5 Q2.8 -8.6 2.55 -9.8 L0.7 -5.95 0.9 -8.1 -0.9 -4.75 -0.7 -7.15 -1.95 -4.7 -1.65 -6.2 -2.6 -5.4 -5.65 -1.4 -5.7 -1.2 -6.0 0.0 Q-7.15 3.05 -5.55 5.7 L-7.25 4.05 Q-8.65 7.1 -6.8 9.95 L-8.95 8.95 Q-8.75 12.0 -7.6 14.6 L-9.2 13.9 Q-9.8 13.35 -10.45 12.85 -9.75 17.1 -6.65 19.85 -7.0 19.6 -7.3 19.45 -9.75 18.3 -11.3 15.9 L-12.1 14.7 Q-13.1 12.6 -13.35 10.2 -13.55 7.6 -13.25 5.1 -12.75 -0.25 -10.05 -4.8 L-8.8 -6.8 Q-6.75 -9.65 -4.15 -11.85 L-2.1 -13.2 Q-0.25 -14.3 1.1 -15.7 L4.0 -14.7" fill="url(#gradient0)" fill-rule="evenodd" stroke="none"/>
    <path d="M-12.65 4.9 Q-12.4 1.85 -10.95 -0.75 -9.45 -3.55 -7.55 -6.15 L-5.95 -7.95 Q-4.4 -9.35 -2.35 -10.05 L-0.8 -10.4 0.5 -10.3 1.4 -10.6 1.75 -10.9 2.65 -11.0 3.2 -11.65 3.55 -12.65 3.55 -13.3 M4.0 -14.7 Q5.55 -11.75 3.4 -8.85 L2.45 -7.5 Q2.8 -8.6 2.55 -9.8 L0.7 -5.95 0.9 -8.1 -0.9 -4.75 -0.7 -7.15 -1.95 -4.7 -1.65 -6.2 -2.6 -5.4 -5.65 -1.4 -5.7 -1.2 -6.0 0.0 Q-7.15 3.05 -5.55 5.7 L-7.25 4.05 Q-8.65 7.1 -6.8 9.95 L-8.95 8.95 Q-8.75 12.0 -7.6 14.6 L-9.2 13.9 Q-9.8 13.35 -10.45 12.85 -9.75 17.1 -6.65 19.85 -7.0 19.6 -7.3 19.45 -9.75 18.3 -11.3 15.9 L-12.1 14.7 Q-13.1 12.6 -13.35 10.2 -13.55 7.6 -13.25 5.1 -12.75 -0.25 -10.05 -4.8 L-8.8 -6.8 Q-6.75 -9.65 -4.15 -11.85 L-2.1 -13.2 Q-0.25 -14.3 1.1 -15.7 L4.0 -14.7 Z" fill="none" stroke="#000000" stroke-linecap="round" stroke-linejoin="round" stroke-width="0.05"/>
  </g>
  <defs>
    <radialGradient cx="0" cy="0" gradientTransform="matrix(0.0038, 0.005, -0.0194, 0.0145, -0.4, -12.4)" gradientUnits="userSpaceOnUse" id="gradient0" r="819.2" spreadMethod="pad">
      <stop offset="0.0" stop-color="#910000"/>
      <stop offset="1.0" stop-color="#331e03"/>
    </radialGradient>
  </defs>
</svg>
