<?xml version="1.0" encoding="UTF-8" standalone="no"?>
<svg xmlns:xlink="http://www.w3.org/1999/xlink" height="33.45px" width="12.6px" xmlns="http://www.w3.org/2000/svg">
  <g transform="matrix(1.0, 0.0, 0.0, 1.0, 0.0, 0.0)">
    <path d="M-6.85 11.1 L-8.55 12.7 Q-6.4 9.75 -7.05 4.0 -7.7 -1.8 -4.1 -8.05 -4.85 -13.1 0.65 -15.4 L2.3 -14.95 Q2.95 -14.7 3.3 -14.05 5.45 -10.3 1.35 -9.8 L0.5 -7.75 Q-2.95 -7.85 -4.45 -4.15 -5.95 -0.45 -5.6 3.35 -5.3 7.15 -6.85 11.1 M1.05 -12.6 Q0.5 -12.25 0.35 -11.4 L0.35 -10.55 0.8 -9.9 1.35 -9.8 0.8 -9.9 0.35 -10.55 0.35 -11.4 Q0.5 -12.25 1.05 -12.6" fill="url(#gradient0)" fill-rule="evenodd" stroke="none"/>
    <path d="M-6.85 11.1 Q-5.3 7.15 -5.6 3.35 -5.95 -0.45 -4.45 -4.15 -2.95 -7.85 0.5 -7.75 L1.65 -5.75 Q-1.45 -4.9 0.05 -1.8 L0.3 -1.45 Q1.3 -0.65 1.8 0.35 2.55 1.75 1.55 2.9 L1.25 1.95 0.85 1.4 Q0.1 0.2 -1.15 0.5 -2.2 2.1 -1.45 3.25 -0.25 3.45 0.8 5.45 L1.0 6.2 Q1.4 7.55 0.85 8.9 L0.7 8.85 Q0.65 7.8 -0.05 7.0 -0.95 6.1 -2.1 6.1 L-2.25 7.2 -2.1 8.45 -1.55 9.05 Q1.6 13.7 -1.65 18.0 L-1.75 18.0 Q-0.3 13.6 -3.85 10.8 -2.15 15.15 -6.2 17.45 L-6.15 17.2 Q-4.1 14.05 -6.85 11.1 M-1.95 -5.4 L-2.4 -4.5 -2.4 -4.15 Q-2.15 -2.15 -1.45 -0.95 L-2.05 -1.25 -2.3 -1.2 -2.7 -0.85 -3.05 0.75 Q-3.45 3.35 -1.5 5.1 L-3.8 4.15 -4.35 4.8 -4.35 5.9 Q-2.95 7.5 -2.2 10.5 L-4.55 8.05 -6.0 9.95 -5.3 10.15 -4.55 11.65 -4.75 12.45 -4.55 11.65 -5.3 10.15 -6.0 9.95 -4.55 8.05 -2.2 10.5 Q-2.95 7.5 -4.35 5.9 L-4.35 4.8 -3.8 4.15 -1.5 5.1 Q-3.45 3.35 -3.05 0.75 L-2.7 -0.85 -2.3 -1.2 -2.05 -1.25 -1.45 -0.95 Q-2.15 -2.15 -2.4 -4.15 L-2.4 -4.5 -1.95 -5.4" fill="#e54f03" fill-opacity="0.77254903" fill-rule="evenodd" stroke="none"/>
    <path d="M1.35 -9.8 Q5.45 -10.3 3.3 -14.05 2.95 -14.7 2.3 -14.95 L0.65 -15.4 Q-4.85 -13.1 -4.1 -8.05 -7.7 -1.8 -7.05 4.0 -6.4 9.75 -8.55 12.7 L-6.85 11.1 Q-5.3 7.15 -5.6 3.35 -5.95 -0.45 -4.45 -4.15 -2.95 -7.85 0.5 -7.75 L1.35 -9.8 0.8 -9.9 0.35 -10.55 0.35 -11.4 Q0.5 -12.25 1.05 -12.6" fill="none" stroke="#000000" stroke-linecap="round" stroke-linejoin="round" stroke-width="0.05"/>
    <path d="M0.7 8.85 L0.55 9.4 0.85 8.9 M-1.65 18.0 L-1.8 18.05 -1.75 18.0 M0.55 9.4 L0.5 9.75" fill="none" stroke="#e78d1e" stroke-linecap="round" stroke-linejoin="round" stroke-width="0.05"/>
    <path d="M0.85 8.9 Q1.4 7.55 1.0 6.2 L0.8 5.45 Q-0.25 3.45 -1.45 3.25 -2.2 2.1 -1.15 0.5 0.1 0.2 0.85 1.4 L1.25 1.95 1.55 2.9 Q2.55 1.75 1.8 0.35 1.3 -0.65 0.3 -1.45 L0.05 -1.8 Q-1.45 -4.9 1.65 -5.75 L0.5 -7.75 M0.7 8.85 Q0.65 7.8 -0.05 7.0 -0.95 6.1 -2.1 6.1 L-2.25 7.2 -2.1 8.45 -1.55 9.05 Q1.6 13.7 -1.65 18.0 M-1.75 18.0 Q-0.3 13.6 -3.85 10.8 -2.15 15.15 -6.2 17.45 L-6.15 17.2 Q-4.1 14.05 -6.85 11.1 M-4.75 12.45 L-4.55 11.65 -5.3 10.15 -6.0 9.95 -4.55 8.05 -2.2 10.5 Q-2.95 7.5 -4.35 5.9 L-4.35 4.8 -3.8 4.15 -1.5 5.1 Q-3.45 3.35 -3.05 0.75 L-2.7 -0.85 -2.3 -1.2 -2.05 -1.25 -1.45 -0.95 Q-2.15 -2.15 -2.4 -4.15 L-2.4 -4.5 -1.95 -5.4" fill="none" stroke="#ffcc33" stroke-linecap="round" stroke-linejoin="round" stroke-width="0.05"/>
  </g>
  <defs>
    <radialGradient cx="0" cy="0" gradientTransform="matrix(0.0056, 0.0029, -0.011, 0.0216, -2.25, -9.8)" gradientUnits="userSpaceOnUse" id="gradient0" r="819.2" spreadMethod="pad">
      <stop offset="0.0" stop-color="#69477c"/>
      <stop offset="1.0" stop-color="#381d2e"/>
    </radialGradient>
  </defs>
</svg>
