<?xml version="1.0" encoding="UTF-8" standalone="no"?>
<svg xmlns:xlink="http://www.w3.org/1999/xlink" height="30.2px" width="13.0px" xmlns="http://www.w3.org/2000/svg">
  <g transform="matrix(1.0, 0.0, 0.0, 1.0, 0.0, 0.0)">
    <path d="M5.5 -8.7 L5.5 8.25 0.0 14.1 -5.5 8.25 -5.5 -8.7 0.0 -14.1 5.5 -8.7 Z" fill="none" stroke="#fdf2ff" stroke-linecap="round" stroke-linejoin="round" stroke-opacity="0.52156866" stroke-width="2.0"/>
    <path d="M0.0 -10.2 L1.8 -8.85 3.05 -7.95 3.05 -3.6 3.05 -1.2 3.05 3.45 3.05 7.5 0.0 9.75 -2.05 8.3 -3.2 7.5 -3.2 4.75 -3.2 2.35 -3.2 -4.1 -3.2 -7.95 0.0 -10.2 M3.05 3.45 L-2.05 8.3 3.05 3.45 M-3.2 4.75 L3.05 -1.2 -3.2 4.75 M3.05 -3.6 L-3.2 2.35 3.05 -3.6 M-3.2 -4.1 L1.8 -8.85 -3.2 -4.1" fill="#fff2ff" fill-opacity="0.5529412" fill-rule="evenodd" stroke="none"/>
    <path d="M5.5 -8.7 L3.05 -7.95 1.8 -8.85 0.0 -10.2 0.0 -14.1 5.5 -8.7" fill="#ffffff" fill-opacity="0.5529412" fill-rule="evenodd" stroke="none"/>
    <path d="M3.05 -7.95 L5.5 -8.7 5.5 8.25 3.05 7.5 3.05 3.45 3.05 -1.2 3.05 -3.6 3.05 -7.95 M0.0 9.75 L0.0 14.1 -5.5 8.25 -3.2 7.5 -2.05 8.3 0.0 9.75" fill="#ffdfff" fill-opacity="0.5529412" fill-rule="evenodd" stroke="none"/>
    <path d="M3.05 7.5 L5.5 8.25 0.0 14.1 0.0 9.75 3.05 7.5" fill="#ffbbff" fill-opacity="0.5529412" fill-rule="evenodd" stroke="none"/>
    <path d="M-3.2 -7.95 L-3.2 -4.1 -3.2 2.35 -3.2 4.75 -3.2 7.5 -5.5 8.25 -5.5 -8.7 -3.2 -7.95" fill="#ffffff" fill-opacity="0.6509804" fill-rule="evenodd" stroke="none"/>
    <path d="M0.0 -14.1 L0.0 -10.2 -3.2 -7.95 -5.5 -8.7 0.0 -14.1" fill="#ffffff" fill-opacity="0.7137255" fill-rule="evenodd" stroke="none"/>
    <path d="M3.05 -7.95 L5.5 -8.7 M0.0 -14.1 L0.0 -10.2 1.8 -8.85 3.05 -7.95 M3.05 7.5 L5.5 8.25 M3.05 7.5 L0.0 9.75 0.0 14.1 M-3.2 7.5 L-3.2 4.75 -3.2 2.35 -3.2 -4.1 -3.2 -7.95 -5.5 -8.7 M-5.5 8.25 L-3.2 7.5 -2.05 8.3 3.05 3.45 M0.0 -10.2 L-3.2 -7.95 M-2.05 8.3 L0.0 9.75 M-3.2 2.35 L3.05 -3.6" fill="none" stroke="#fdf2ff" stroke-linecap="round" stroke-linejoin="round" stroke-width="0.05"/>
    <path d="M5.5 -8.7 L0.0 -14.1 -5.5 -8.7 -5.5 8.25 0.0 14.1 5.5 8.25 5.5 -8.7 M3.05 -7.95 L3.05 -3.6 3.05 -1.2 3.05 3.45 3.05 7.5" fill="none" stroke="#fdf2ff" stroke-linecap="round" stroke-linejoin="round" stroke-width="0.05"/>
    <path d="M1.8 -8.85 L-3.2 -4.1" fill="none" stroke="#fdf2ff" stroke-linecap="round" stroke-linejoin="round" stroke-width="0.5"/>
    <path d="M3.05 -1.2 L-3.2 4.75" fill="none" stroke="#fdf2ff" stroke-linecap="round" stroke-linejoin="round" stroke-width="1.0"/>
  </g>
</svg>
