<?xml version="1.0" encoding="UTF-8" standalone="no"?>
<svg xmlns:xlink="http://www.w3.org/1999/xlink" height="3.9px" width="10.4px" xmlns="http://www.w3.org/2000/svg">
  <g transform="matrix(1.0, 0.0, 0.0, 1.0, 0.0, 0.0)">
    <path d="M5.0 -1.95 L5.2 -1.9 5.0 -1.6 2.6 -0.4 Q1.55 0.1 0.5 1.0 -0.4 1.7 -1.45 1.9 L-3.15 1.9 Q-4.4 1.95 -5.2 1.25 L-1.4 0.45 1.1 -0.3 Q3.25 -1.1 5.0 -1.95" fill="#000000" fill-rule="evenodd" stroke="none"/>
    <path d="M5.0 -1.95 L5.2 -1.9 5.0 -1.6 2.6 -0.4 Q1.55 0.1 0.5 1.0 -0.4 1.7 -1.45 1.9 L-3.15 1.9 Q-4.4 1.95 -5.2 1.25 L-1.4 0.45 1.1 -0.3 Q3.25 -1.1 5.0 -1.95 Z" fill="none" stroke="#000000" stroke-linecap="round" stroke-linejoin="round" stroke-width="0.05"/>
  </g>
</svg>
