<?xml version="1.0" encoding="UTF-8" standalone="no"?>
<svg xmlns:xlink="http://www.w3.org/1999/xlink" height="11.25px" width="11.3px" xmlns="http://www.w3.org/2000/svg">
  <g transform="matrix(1.0, 0.0, 0.0, 1.0, 0.0, 0.0)">
    <path d="M4.95 -5.05 Q5.4 -6.05 5.65 -5.25 L2.95 1.05 2.2 0.85 2.35 1.3 2.4 1.55 2.35 1.8 1.95 2.15 0.55 3.2 -0.25 3.55 -1.15 3.9 -2.5 4.55 -5.65 5.25 Q1.75 2.45 4.95 -5.05" fill="#002f1e" fill-rule="evenodd" stroke="none"/>
    <path d="M4.95 -5.05 Q1.75 2.45 -5.65 5.25 L-2.5 4.55 -1.15 3.9 -0.25 3.55 0.55 3.2 1.95 2.15 2.35 1.8 2.4 1.55 2.35 1.3 2.2 0.85 2.95 1.05 5.65 -5.25 Q5.4 -6.05 4.95 -5.05 M-2.5 4.55 L-4.4 5.65 M-3.05 5.5 L-2.1 4.9 -1.8 4.65 -1.15 3.9 M-0.25 3.55 L-1.3 4.75 M0.55 3.2 L-0.3 4.45" fill="none" stroke="#000000" stroke-linecap="round" stroke-linejoin="round" stroke-width="0.05"/>
  </g>
</svg>
