<?xml version="1.0" encoding="UTF-8" standalone="no"?>
<svg xmlns:xlink="http://www.w3.org/1999/xlink" height="11.25px" width="11.3px" xmlns="http://www.w3.org/2000/svg">
  <g transform="matrix(1.0, 0.0, 0.0, 1.0, 0.0, 0.0)">
    <path d="M3.2 -1.7 L4.95 -5.05 Q5.4 -6.05 5.65 -5.25 L3.85 -0.85 2.95 1.05 2.2 0.85 2.35 1.3 2.4 1.55 2.35 1.8 1.95 2.15 0.55 3.2 -0.25 3.55 -1.15 3.9 -2.5 4.55 -5.65 5.25 Q0.0 3.1 3.2 -1.7" fill="#000000" fill-rule="evenodd" stroke="none"/>
    <path d="M3.2 -1.7 Q0.0 3.1 -5.65 5.25 L-2.5 4.55 -1.15 3.9 -0.25 3.55 0.55 3.2 1.95 2.15 2.35 1.8 2.4 1.55 2.35 1.3 2.2 0.85 2.95 1.05 3.85 -0.85 5.65 -5.25 Q5.4 -6.05 4.95 -5.05 L3.2 -1.7 M-2.5 4.55 L-4.4 5.65 M-1.15 3.9 L-1.6 4.5 Q-0.9 4.45 -0.25 3.55 M-1.6 4.5 L-1.8 4.65 -2.1 4.9 -3.05 5.5 M0.55 3.2 L-0.3 4.45" fill="none" stroke="#000000" stroke-linecap="round" stroke-linejoin="round" stroke-width="0.05"/>
  </g>
</svg>
