<?xml version="1.0" encoding="UTF-8" standalone="no"?>
<svg xmlns:xlink="http://www.w3.org/1999/xlink" height="26.3px" width="16.1px" xmlns="http://www.w3.org/2000/svg">
  <g transform="matrix(1.0, 0.0, 0.0, 1.0, 0.0, 0.0)">
    <path d="M6.85 -1.4 L7.25 0.15 7.3 1.7 Q7.4 4.6 6.35 7.45 5.7 9.2 4.75 10.4 4.0 11.35 2.85 11.75 L0.05 12.4 Q-2.85 11.95 -4.85 9.7 -6.8 7.6 -7.15 4.7 -7.4 2.7 -7.15 0.7 -6.85 -1.65 -6.15 -3.9 L-4.9 -8.1 Q-4.25 -10.25 -2.85 -11.8 -2.25 -12.4 -1.3 -12.4 1.5 -12.2 3.5 -10.3 L4.25 -9.35 5.55 -5.9 6.85 -1.4 Z" fill="none" stroke="#6acc09" stroke-linecap="round" stroke-linejoin="round" stroke-opacity="0.2" stroke-width="1.5"/>
    <path d="M5.3 -6.95 L5.45 -6.55 6.15 -4.4 6.4 -3.8 7.05 -1.5 7.1 -1.2 7.3 0.15 7.4 0.65 7.6 1.7 7.55 2.15 6.3 7.5 6.05 8.25 4.8 10.45 Q3.85 11.8 2.0 12.05 L-0.25 12.25 -0.9 12.15 Q-2.5 11.7 -3.75 10.8 L-4.0 10.6 -4.4 10.2 -5.3 9.15 -5.75 8.65 -6.05 8.25 Q-6.95 6.5 -7.45 4.75 L-7.5 4.3 -7.6 2.75 -7.45 0.65 -7.35 0.15 -7.1 -1.35 -6.75 -2.5 -6.15 -3.95 -5.85 -4.5 -5.55 -5.3 -4.85 -7.35 -4.65 -8.05 -4.55 -8.5 -4.15 -9.6 -4.05 -9.85 -3.9 -10.1 -3.3 -11.35 -3.05 -11.7 Q-2.3 -12.3 -1.3 -12.4 L0.1 -12.2 0.15 -12.2 0.6 -12.0 1.4 -11.8 3.4 -10.55 3.95 -10.05 4.0 -10.0 4.3 -9.45 4.85 -8.2 5.1 -7.45 5.3 -6.95 M1.35 8.7 L1.1 8.65 Q0.85 8.45 0.75 8.05 0.85 8.45 1.1 8.65 L1.35 8.7 M1.2 3.05 L1.25 3.3 Q1.0 3.8 0.45 3.75 L0.05 3.6 -0.15 3.2 Q-0.2 2.55 0.45 2.45 -0.2 2.55 -0.15 3.2 L0.05 3.6 0.45 3.75 Q1.0 3.8 1.25 3.3 L1.2 3.05 M3.95 5.65 L3.8 6.1 3.4 6.0 2.9 5.45 Q2.65 4.95 3.2 4.85 2.65 4.95 2.9 5.45 L3.4 6.0 3.8 6.1 3.95 5.65 M-4.0 1.7 L-4.25 1.7 Q-4.85 1.35 -4.3 1.2 -3.85 1.1 -3.8 1.5 L-4.0 1.7 -3.8 1.5 Q-3.85 1.1 -4.3 1.2 -4.85 1.35 -4.25 1.7 L-4.0 1.7 M-1.1 -2.45 Q-1.0 -2.05 -1.25 -1.7 -1.8 -1.05 -2.45 -1.7 -3.3 -2.5 -2.6 -3.05 -3.3 -2.5 -2.45 -1.7 -1.8 -1.05 -1.25 -1.7 -1.0 -2.05 -1.1 -2.45 M-1.4 -7.2 L-1.1 -7.25 -0.95 -7.2 -0.85 -6.75 Q-0.95 -6.4 -1.25 -6.45 -1.75 -6.55 -1.4 -6.9 -1.75 -6.55 -1.25 -6.45 -0.95 -6.4 -0.85 -6.75 L-0.95 -7.2 -1.1 -7.25 -1.4 -7.2 M1.2 -4.35 Q0.55 -4.15 0.6 -4.75 0.55 -4.15 1.2 -4.35 M1.8 -0.6 Q1.9 -0.2 1.5 -0.25 1.25 -0.3 1.35 -0.6 1.25 -0.3 1.5 -0.25 1.9 -0.2 1.8 -0.6 M3.3 -7.05 Q3.15 -6.7 2.9 -7.05 3.15 -6.7 3.3 -7.05" fill="url(#gradient0)" fill-rule="evenodd" stroke="none"/>
    <path d="M5.3 -6.95 L5.45 -6.55 6.15 -4.4 6.4 -3.8 7.05 -1.5 7.1 -1.2 7.3 0.15 7.4 0.65 7.6 1.7 7.55 2.15 6.3 7.5 6.05 8.25 4.8 10.45 Q3.85 11.8 2.0 12.05 L-0.25 12.25 -0.9 12.15 Q-2.5 11.7 -3.75 10.8 L-4.0 10.6 -4.4 10.2 -5.3 9.15 -5.75 8.65 -6.05 8.25 Q-6.95 6.5 -7.45 4.75 L-7.5 4.3 -7.6 2.75 -7.45 0.65 -7.35 0.15 -7.1 -1.35 -6.75 -2.5 M-5.85 -4.5 L-5.55 -5.3 -4.85 -7.35 M-4.15 -9.6 L-4.05 -9.85 -3.9 -10.1" fill="none" stroke="#000000" stroke-linecap="round" stroke-linejoin="round" stroke-width="0.05"/>
    <path d="M2.9 -7.05 Q3.15 -6.7 3.3 -7.05 M1.35 -0.6 Q1.25 -0.3 1.5 -0.25 1.9 -0.2 1.8 -0.6 M0.6 -4.75 Q0.55 -4.15 1.2 -4.35 M-1.4 -6.9 Q-1.75 -6.55 -1.25 -6.45 -0.95 -6.4 -0.85 -6.75 L-0.95 -7.2 -1.1 -7.25 -1.4 -7.2 M-2.6 -3.05 Q-3.3 -2.5 -2.45 -1.7 -1.8 -1.05 -1.25 -1.7 -1.0 -2.05 -1.1 -2.45 M-4.0 1.7 L-3.8 1.5 Q-3.85 1.1 -4.3 1.2 -4.85 1.35 -4.25 1.7 L-4.0 1.7 M3.2 4.85 Q2.65 4.95 2.9 5.45 L3.4 6.0 3.8 6.1 3.95 5.65 M0.45 2.45 Q-0.2 2.55 -0.15 3.2 L0.05 3.6 0.45 3.75 Q1.0 3.8 1.25 3.3 L1.2 3.05 M0.75 8.05 Q0.85 8.45 1.1 8.65 L1.35 8.7" fill="none" stroke="#8dcc00" stroke-linecap="round" stroke-linejoin="round" stroke-opacity="0.36078432" stroke-width="0.05"/>
    <path d="M5.05 -5.3 L5.3 -4.5 Q7.2 -0.6 6.5 3.95 L6.6 4.55 Q4.9 11.4 1.1 11.45 -2.75 11.45 -4.5 9.25 -6.35 7.05 -6.35 4.95 -0.55 9.4 1.95 5.85 4.4 2.3 4.95 0.0 5.5 -2.3 4.75 -4.05 L5.05 -5.3" fill="#24320a" fill-opacity="0.7019608" fill-rule="evenodd" stroke="none"/>
    <path d="M-5.0 -0.5 L-4.95 -0.85 -4.75 -1.0 -4.6 -1.1 Q-4.25 -1.05 -4.15 -0.6 L-4.1 -0.5 -4.2 -0.15 -4.35 0.1 Q-4.8 0.25 -4.95 -0.3 L-5.0 -0.5 M-4.85 0.95 Q-2.2 2.2 -4.35 4.1 -5.05 4.7 -5.55 3.85 -6.85 1.75 -4.85 0.95" fill="#ddff9b" fill-opacity="0.72156864" fill-rule="evenodd" stroke="none"/>
  </g>
  <defs>
    <radialGradient cx="0" cy="0" gradientTransform="matrix(0.0108, 0.0, 0.0, 0.0158, -1.85, -2.4)" gradientUnits="userSpaceOnUse" id="gradient0" r="819.2" spreadMethod="pad">
      <stop offset="0.0" stop-color="#5a881c" stop-opacity="0.7019608"/>
      <stop offset="1.0" stop-color="#375511" stop-opacity="0.7019608"/>
    </radialGradient>
  </defs>
</svg>
