<?xml version="1.0" encoding="UTF-8" standalone="no"?>
<svg xmlns:xlink="http://www.w3.org/1999/xlink" height="9.3px" width="9.35px" xmlns="http://www.w3.org/2000/svg">
  <g transform="matrix(1.0, 0.0, 0.0, 1.0, 0.0, 0.0)">
    <path d="M2.95 -0.5 Q3.4 -1.25 3.3 -2.0 3.4 -1.25 2.95 -0.5 M0.1 -4.5 L1.35 -4.05 Q2.0 -3.55 2.8 -3.15 L3.3 -2.0 Q4.75 -1.45 4.7 -0.15 L4.35 1.4 3.85 2.05 3.55 2.2 Q2.95 2.0 2.95 1.35 2.65 4.0 0.15 4.55 L-1.55 4.8 Q-3.8 4.6 -4.45 2.5 -4.8 1.45 -4.55 0.45 -4.15 -1.0 -3.15 -2.2 L-2.1 -3.3 -1.15 -4.0 Q-0.55 -4.5 0.1 -4.5" fill="url(#gradient0)" fill-rule="evenodd" stroke="none"/>
    <path d="M3.3 -2.0 Q3.4 -1.25 2.95 -0.5 M2.8 -3.15 L3.3 -2.0 Q4.75 -1.45 4.7 -0.15 L4.35 1.4 3.85 2.05 3.55 2.2 Q2.95 2.0 2.95 1.35 2.65 4.0 0.15 4.55 L-1.55 4.8 Q-3.8 4.6 -4.45 2.5 -4.8 1.45 -4.55 0.45 -4.15 -1.0 -3.15 -2.2 L-2.1 -3.3 -1.15 -4.0 Q-0.55 -4.5 0.1 -4.5" fill="none" stroke="#000000" stroke-linecap="round" stroke-linejoin="round" stroke-width="0.05"/>
    <path d="M-1.3 -1.6 L-1.5 -1.45 -1.7 -1.35 Q-2.15 -1.45 -2.15 -1.85 L-2.1 -1.95 -2.0 -2.15 -1.75 -2.2 -1.6 -2.15 -1.3 -1.65 -1.3 -1.6 M-3.55 0.5 Q-3.95 -1.0 -2.4 -0.75 -0.95 0.7 -2.8 0.95 -3.45 1.05 -3.55 0.5" fill="#ddff9b" fill-opacity="0.72156864" fill-rule="evenodd" stroke="none"/>
    <path d="M2.2 -1.7 L2.75 -2.0 2.65 0.1 2.45 1.2 Q1.55 4.35 -0.4 4.4 -2.35 4.4 -3.25 3.4 -4.2 2.35 -4.2 1.35 -1.2 3.6 0.15 2.25 1.5 0.85 1.85 -0.1 L2.2 -1.7" fill="#24320a" fill-opacity="0.38039216" fill-rule="evenodd" stroke="none"/>
  </g>
  <defs>
    <radialGradient cx="0" cy="0" gradientTransform="matrix(0.0066, 0.0, 0.0, 0.0066, -1.65, -0.75)" gradientUnits="userSpaceOnUse" id="gradient0" r="819.2" spreadMethod="pad">
      <stop offset="0.0" stop-color="#5a881c" stop-opacity="0.7019608"/>
      <stop offset="1.0" stop-color="#30470e" stop-opacity="0.7019608"/>
    </radialGradient>
  </defs>
</svg>
