<?xml version="1.0" encoding="UTF-8" standalone="no"?>
<svg xmlns:xlink="http://www.w3.org/1999/xlink" height="4.55px" width="15.9px" xmlns="http://www.w3.org/2000/svg">
  <g transform="matrix(1.0, 0.0, 0.0, 1.0, 0.0, 0.0)">
    <path d="M11.05 0.7 L13.0 0.75 Q16.15 1.9 14.15 2.55 L12.2 2.8 10.95 2.75 11.1 1.8 11.1 1.65 11.05 1.0 11.05 0.8 11.05 0.7" fill="#4b5963" fill-rule="evenodd" stroke="none"/>
    <path d="M11.05 0.7 L11.05 0.8 11.05 1.0 11.1 1.65 11.1 1.8 10.95 2.75 10.9 2.95 10.8 3.2 Q10.7 3.5 10.15 3.45 L9.9 3.5 9.8 3.5 9.65 3.55 9.4 3.55 9.4 2.45 9.4 2.25 9.35 0.65 11.05 0.7" fill="#d0c18e" fill-rule="evenodd" stroke="none"/>
    <path d="M9.4 3.55 L9.05 4.65 7.0 4.4 -0.95 4.15 -0.5 3.25 Q0.0 1.95 0.15 0.5 L1.7 0.65 5.65 0.25 8.4 0.15 Q9.1 0.0 9.35 0.65 L9.4 2.25 9.4 2.45 9.4 3.55" fill="#333333" fill-rule="evenodd" stroke="none"/>
    <path d="M11.05 0.7 L11.05 0.8 11.05 1.0 11.1 1.65 11.1 1.8 10.95 2.75 10.9 2.95 10.8 3.2 Q10.7 3.5 10.15 3.45 L9.9 3.5 9.8 3.5 9.65 3.55 9.4 3.55 9.05 4.65 7.0 4.4 -0.95 4.15 M0.15 0.5 L1.7 0.65 5.65 0.25 8.4 0.15 Q9.1 0.0 9.35 0.65 L9.4 2.25 9.4 2.45 9.4 3.55" fill="none" stroke="#000000" stroke-linecap="round" stroke-linejoin="round" stroke-width="0.05"/>
    <path d="M10.95 2.75 L12.2 2.8 14.15 2.55 Q16.15 1.9 13.0 0.75 L11.05 0.7 9.35 0.65" fill="none" stroke="#000000" stroke-linecap="round" stroke-linejoin="round" stroke-width="0.05"/>
  </g>
</svg>
