<?xml version="1.0" encoding="UTF-8" standalone="no"?>
<svg xmlns:xlink="http://www.w3.org/1999/xlink" height="5.7px" width="15.1px" xmlns="http://www.w3.org/2000/svg">
  <g transform="matrix(1.0, 0.0, 0.0, 1.0, 0.0, 0.0)">
    <path d="M9.65 0.7 L10.45 0.6 11.55 0.45 12.7 0.0 Q14.5 0.0 14.85 0.85 15.8 2.2 14.85 3.4 L11.6 3.7 11.05 3.0 10.7 2.9 9.85 2.85 9.95 2.0 9.9 1.8 9.9 1.7 9.85 1.55 9.85 1.35 9.65 0.7" fill="#4b5963" fill-rule="evenodd" stroke="none"/>
    <path d="M9.65 0.7 L9.85 1.35 9.85 1.55 9.9 1.7 9.9 1.8 9.95 2.0 9.85 2.85 Q10.15 5.85 8.75 4.8 7.35 3.7 5.7 3.95 L2.3 4.15 Q0.5 4.15 0.4 3.75 L0.2 2.6 Q0.1 1.85 0.6 0.8 L0.9 0.7 Q7.35 -0.95 8.55 -0.6 9.75 -0.25 9.65 0.7" fill="#8e6a46" fill-rule="evenodd" stroke="none"/>
    <path d="M9.85 2.85 L10.7 2.9 11.05 3.0 11.6 3.7 14.85 3.4 Q15.8 2.2 14.85 0.85 14.5 0.0 12.7 0.0 L11.55 0.45 10.45 0.6 9.65 0.7 9.85 1.35 9.85 1.55 9.9 1.7 9.9 1.8 9.95 2.0 9.85 2.85 Q10.15 5.85 8.75 4.8 7.35 3.7 5.7 3.95 L2.3 4.15 Q0.5 4.15 0.4 3.75 M0.6 0.8 L0.9 0.7 Q7.35 -0.95 8.55 -0.6 9.75 -0.25 9.65 0.7" fill="none" stroke="#000000" stroke-linecap="round" stroke-linejoin="round" stroke-width="0.05"/>
  </g>
</svg>
