<?xml version="1.0" encoding="UTF-8" standalone="no"?>
<svg xmlns:xlink="http://www.w3.org/1999/xlink" height="7.65px" width="18.05px" xmlns="http://www.w3.org/2000/svg">
  <g transform="matrix(1.0, 0.0, 0.0, 1.0, 0.0, 0.0)">
    <path d="M2.8 2.0 Q2.35 2.2 2.15 2.5 L2.05 2.75 Q2.3 3.45 1.6 3.2 0.95 2.8 0.65 1.95 L0.95 0.45 1.7 -0.05 1.9 0.9 2.85 1.15 2.8 2.0 M1.1 1.8 L1.25 2.0 1.65 2.1 2.05 2.0 2.2 1.8 2.05 1.6 1.65 1.5 1.25 1.6 1.1 1.8" fill="#447d0b" fill-rule="evenodd" stroke="none"/>
    <path d="M0.35 -0.05 L0.0 -0.9 0.6 -1.6 9.3 -0.35 9.4 0.85 5.85 0.6 3.6 -0.2 2.05 -0.75 0.35 -0.05 M10.85 0.4 L13.3 0.35 13.1 1.0 13.15 2.3 12.75 3.3 11.6 2.8 10.9 2.7 10.85 0.85 10.85 0.4 M9.55 3.3 Q7.7 3.55 5.95 4.2 L2.8 5.55 1.4 6.05 0.35 4.05 0.8 3.4 2.7 4.35 Q4.25 3.4 5.95 2.8 7.7 2.2 9.55 1.9 L9.55 3.3" fill="url(#gradient0)" fill-rule="evenodd" stroke="none"/>
    <path d="M0.35 -0.05 L2.05 -0.75 3.6 -0.2 5.85 0.6 9.4 0.85 9.3 -0.35 9.55 -0.8 10.65 -0.75 10.85 0.4 10.85 0.85 10.9 2.7 10.95 3.25 9.55 3.3 9.55 1.9 Q7.7 2.2 5.95 2.8 4.25 3.4 2.7 4.35 L0.8 3.4 -1.2 3.45 -2.95 3.95 -3.4 1.5 Q-1.75 0.35 0.35 -0.05 M13.3 0.35 L14.65 0.3 14.55 1.35 14.4 2.85 14.2 3.7 12.75 3.3 13.15 2.3 13.1 1.0 13.3 0.35 M14.4 2.85 L13.15 2.3 14.4 2.85 M14.55 1.35 L13.1 1.0 14.55 1.35 M9.55 1.9 L9.4 0.85 9.55 1.9 M2.8 2.0 L2.85 1.15 1.9 0.9 1.7 -0.05 0.95 0.45 0.65 1.95 Q0.95 2.8 1.6 3.2 2.3 3.45 2.05 2.75 L2.15 2.5 Q2.35 2.2 2.8 2.0 M1.1 1.8 L1.25 1.6 1.65 1.5 2.05 1.6 2.2 1.8 2.05 2.0 1.65 2.1 1.25 2.0 1.1 1.8" fill="url(#gradient1)" fill-rule="evenodd" stroke="none"/>
    <path d="M9.3 -0.35 L0.6 -1.6 0.0 -0.9 0.35 -0.05 2.05 -0.75 3.6 -0.2 5.85 0.6 9.4 0.85 9.3 -0.35 9.55 -0.8 10.65 -0.75 10.85 0.4 13.3 0.35 14.65 0.3 14.55 1.35 14.4 2.85 14.2 3.7 12.75 3.3 11.6 2.8 10.9 2.7 10.95 3.25 9.55 3.3 Q7.7 3.55 5.95 4.2 L2.8 5.55 1.4 6.05 0.35 4.05 0.8 3.4 -1.2 3.45 -2.95 3.95 -3.4 1.5 Q-1.75 0.35 0.35 -0.05 M13.3 0.35 L13.1 1.0 14.55 1.35 M13.15 2.3 L14.4 2.85 M13.1 1.0 L13.15 2.3 12.75 3.3 M10.9 2.7 L10.85 0.85 10.85 0.4 M9.4 0.85 L9.55 1.9 9.55 3.3 M9.55 1.9 Q7.7 2.2 5.95 2.8 4.25 3.4 2.7 4.35 L0.8 3.4 M2.8 2.0 Q2.35 2.2 2.15 2.5 L2.05 2.75 Q2.3 3.45 1.6 3.2 0.95 2.8 0.65 1.95 L0.95 0.45 1.7 -0.05 1.9 0.9 2.85 1.15 2.8 2.0 M1.1 1.8 L1.25 1.6 1.65 1.5 2.05 1.6 2.2 1.8 2.05 2.0 1.65 2.1 1.25 2.0 1.1 1.8 Z" fill="none" stroke="#000000" stroke-linecap="round" stroke-linejoin="round" stroke-width="0.05"/>
  </g>
  <defs>
    <linearGradient gradientTransform="matrix(-1.0E-4, 0.004, -0.0055, -1.0E-4, -17.8, 0.5)" gradientUnits="userSpaceOnUse" id="gradient0" spreadMethod="pad" x1="-819.2" x2="819.2">
      <stop offset="0.0" stop-color="#35691f"/>
      <stop offset="0.4823529411764706" stop-color="#d9fdce"/>
      <stop offset="1.0" stop-color="#35691f"/>
    </linearGradient>
    <linearGradient gradientTransform="matrix(0.0, -0.0023, 0.0055, -1.0E-4, 27.3, 1.25)" gradientUnits="userSpaceOnUse" id="gradient1" spreadMethod="pad" x1="-819.2" x2="819.2">
      <stop offset="0.0" stop-color="#afcf63"/>
      <stop offset="0.4823529411764706" stop-color="#ffffff"/>
      <stop offset="1.0" stop-color="#afcf63"/>
    </linearGradient>
  </defs>
</svg>
