<?xml version="1.0" encoding="UTF-8" standalone="no"?>
<svg xmlns:xlink="http://www.w3.org/1999/xlink" height="2.8px" width="15.0px" xmlns="http://www.w3.org/2000/svg">
  <g transform="matrix(1.0, 0.0, 0.0, 1.0, 0.0, 0.0)">
    <path d="M14.8 1.7 L12.95 1.45 13.2 0.75 12.95 1.45 14.8 1.7 14.65 2.5 14.65 3.2 12.75 3.3 9.95 2.65 9.9 2.5 10.2 0.5 13.2 0.75 15.05 1.05 14.8 1.7 M14.65 2.5 L12.8 2.25 12.95 1.45 12.8 2.25 14.65 2.5 M11.0 2.0 L12.8 2.25 12.75 3.3 12.8 2.25 11.0 2.0 M10.85 1.15 L12.95 1.45 10.85 1.15 M1.3 2.35 L0.75 2.25 Q0.0 2.15 0.05 1.65 L2.95 1.45 5.25 1.0 9.45 1.1 Q9.7 1.25 9.4 1.4 L8.85 1.45 9.4 1.4 Q7.95 3.15 5.55 3.2 3.2 3.2 1.3 2.35 L2.9 2.3 1.3 2.35 M8.85 1.45 L6.9 1.5 Q4.95 1.6 2.9 2.3 L4.7 2.55 Q6.95 2.5 8.85 1.45" fill="#3d2312" fill-rule="evenodd" stroke="none"/>
    <path d="M14.8 1.7 L15.05 1.05 13.2 0.75 10.2 0.5 9.9 2.5 9.95 2.65 12.75 3.3 14.65 3.2 14.65 2.5 14.8 1.7" fill="none" stroke="#000000" stroke-linecap="round" stroke-linejoin="round" stroke-width="0.05"/>
    <path d="M13.2 0.75 L12.95 1.45 14.8 1.7 M12.75 3.3 L12.8 2.25 11.0 2.0 M12.95 1.45 L12.8 2.25 14.65 2.5 M12.95 1.45 L10.85 1.15 M9.4 1.4 Q9.7 1.25 9.45 1.1 L5.25 1.0 2.95 1.45 0.05 1.65 Q0.0 2.15 0.75 2.25 L1.3 2.35 2.9 2.3 Q4.95 1.6 6.9 1.5 L8.85 1.45 9.4 1.4 Q7.95 3.15 5.55 3.2 3.2 3.2 1.3 2.35 M8.85 1.45 Q6.95 2.5 4.7 2.55 L2.9 2.3" fill="none" stroke="#000000" stroke-linecap="round" stroke-linejoin="round" stroke-width="0.05"/>
  </g>
</svg>
