<?xml version="1.0" encoding="UTF-8" standalone="no"?>
<svg xmlns:xlink="http://www.w3.org/1999/xlink" height="3.25px" width="14.85px" xmlns="http://www.w3.org/2000/svg">
  <g transform="matrix(1.0, 0.0, 0.0, 1.0, 0.0, 0.0)">
    <path d="M0.5 1.25 L9.2 0.8 10.1 1.0 11.5 0.45 13.35 0.1 14.4 0.25 14.95 1.3 Q14.8 1.85 15.0 2.5 L14.8 2.95 13.35 3.15 12.3 2.95 10.75 2.55 10.2 2.85 Q9.85 3.0 9.45 2.55 L0.75 3.2 0.15 2.65 Q0.65 2.05 0.5 1.25 M2.8 2.2 L4.55 1.8 6.15 1.65 7.7 1.65 6.15 1.65 4.55 1.8 2.8 2.2" fill="#474260" fill-rule="evenodd" stroke="none"/>
    <path d="M0.15 2.65 L0.75 3.2 9.45 2.55 Q9.85 3.0 10.2 2.85 L10.75 2.55 12.3 2.95 13.35 3.15 14.8 2.95 15.0 2.5 Q14.8 1.85 14.95 1.3 L14.4 0.25 13.35 0.1 11.5 0.45 10.1 1.0 9.2 0.8 0.5 1.25 M7.7 1.65 L6.15 1.65 4.55 1.8 2.8 2.2" fill="none" stroke="#000000" stroke-linecap="round" stroke-linejoin="round" stroke-width="0.05"/>
  </g>
</svg>
