<?xml version="1.0" encoding="UTF-8" standalone="no"?>
<svg xmlns:xlink="http://www.w3.org/1999/xlink" height="4.3px" width="16.0px" xmlns="http://www.w3.org/2000/svg">
  <g transform="matrix(1.0, 0.0, 0.0, 1.0, 0.0, 0.0)">
    <path d="M14.8 1.7 L12.95 1.45 13.2 0.75 12.95 1.45 14.8 1.7 14.65 2.5 12.8 2.25 12.95 1.45 12.8 2.25 14.65 2.5 14.65 3.2 12.75 3.3 9.95 2.65 9.9 2.5 10.2 0.5 13.2 0.75 15.05 1.05 14.8 1.7 M11.0 2.0 L12.8 2.25 12.75 3.3 12.8 2.25 11.0 2.0 M10.85 1.15 L12.95 1.45 10.85 1.15" fill="#b49a6e" fill-rule="evenodd" stroke="none"/>
    <path d="M7.2 3.3 L6.0 3.6 3.95 3.7 Q2.0 3.45 0.1 4.2 L-0.85 2.4 Q-1.1 1.45 -0.7 0.75 -0.35 0.0 0.0 -0.1 L0.2 -0.05 2.4 0.45 6.2 0.25 Q6.0 0.25 5.85 0.6 L5.7 0.9 5.65 1.4 5.7 0.9 5.85 0.6 Q6.0 0.25 6.2 0.25 L6.8 0.2 8.7 0.3 9.8 0.55 Q8.75 1.75 9.3 2.95 L8.05 2.9 8.0 2.55 8.0 2.05 8.05 1.85 8.1 1.45 Q8.15 1.1 8.35 0.85 L8.7 0.3 8.35 0.85 Q8.15 1.1 8.1 1.45 L8.05 1.85 8.0 2.05 8.0 2.55 8.05 2.9 7.3 3.3 7.2 3.25 7.2 3.3 M2.75 2.65 L4.05 2.5 5.1 2.75 6.4 3.15 7.2 3.25 6.4 3.15 5.1 2.75 4.05 2.5 2.75 2.65 2.95 2.9 2.95 2.95 3.0 3.3 2.95 2.95 2.95 2.9 2.75 2.65 2.65 2.55 2.25 2.3 1.35 1.35 2.25 2.3 2.65 2.55 2.75 2.65 0.7 2.8 0.2 2.05 0.1 1.65 Q0.0 1.1 0.2 0.5 0.0 1.1 0.1 1.65 L0.2 2.05 0.7 2.8 2.75 2.65 M6.45 0.7 L6.8 0.2 6.45 0.7" fill="#918970" fill-rule="evenodd" stroke="none"/>
    <path d="M6.2 0.25 L2.4 0.45 0.2 -0.05 0.0 -0.1 Q-0.35 0.0 -0.7 0.75 -1.1 1.45 -0.85 2.4 L0.1 4.2 Q2.0 3.45 3.95 3.7 L6.0 3.6 7.2 3.3 7.3 3.3 8.05 2.9 9.3 2.95 Q8.75 1.75 9.8 0.55 L8.7 0.3 6.8 0.2 6.2 0.25 M7.2 3.25 L6.4 3.15 5.1 2.75 4.05 2.5 2.75 2.65 0.7 2.8 0.2 2.05 0.1 1.65 Q0.0 1.1 0.2 0.5 M14.8 1.7 L15.05 1.05 13.2 0.75 10.2 0.5 9.9 2.5 9.95 2.65 12.75 3.3 14.65 3.2 14.65 2.5 14.8 1.7 M8.7 0.3 L8.35 0.85 Q8.15 1.1 8.1 1.45 L8.05 1.85 8.0 2.05 8.0 2.55 8.05 2.9 M7.3 3.3 L7.2 3.25" fill="none" stroke="#000000" stroke-linecap="round" stroke-linejoin="round" stroke-width="0.05"/>
    <path d="M13.2 0.75 L12.95 1.45 14.8 1.7 M12.75 3.3 L12.8 2.25 11.0 2.0 M12.95 1.45 L12.8 2.25 14.65 2.5 M12.95 1.45 L10.85 1.15" fill="none" stroke="#000000" stroke-linecap="round" stroke-linejoin="round" stroke-width="0.05"/>
    <path d="M2.75 2.65 L2.95 2.9 2.95 2.95 3.0 3.3 M6.8 0.2 L6.45 0.7 M6.2 0.25 Q6.0 0.25 5.85 0.6 L5.7 0.9 5.65 1.4 M1.35 1.35 L2.25 2.3 2.65 2.55 2.75 2.65" fill="none" stroke="#3e2617" stroke-linecap="round" stroke-linejoin="round" stroke-width="0.05"/>
  </g>
</svg>
