<?xml version="1.0" encoding="UTF-8" standalone="no"?>
<svg xmlns:xlink="http://www.w3.org/1999/xlink" height="5.45px" width="17.3px" xmlns="http://www.w3.org/2000/svg">
  <g transform="matrix(1.0, 0.0, 0.0, 1.0, 0.0, 0.0)">
    <path d="M-1.35 2.25 L-2.1 2.6 -2.7 1.3 -2.6 1.15 Q-1.4 0.0 0.15 0.25 L-0.2 -0.05 -0.9 -0.5 -1.35 -0.75 -1.45 -0.9 -1.1 -1.55 1.25 -0.1 1.4 -0.1 0.65 -1.5 1.3 -1.6 1.75 -1.15 Q2.75 0.1 4.3 0.0 L6.15 0.5 3.7 0.65 3.25 0.85 2.35 1.35 2.15 2.1 1.9 2.15 1.6 2.4 1.45 2.7 1.7 3.85 1.1 3.85 0.5 2.45 0.65 1.7 Q0.35 0.8 -2.05 1.5 L-1.8 1.9 -1.6 2.0 -1.4 2.15 -1.35 2.25 M8.25 1.0 L8.55 0.5 9.35 0.55 9.8 0.45 Q10.55 0.15 10.65 0.8 L10.75 2.8 10.55 3.5 10.45 3.55 9.6 3.5 9.5 3.5 9.5 3.45 9.2 3.45 8.1 3.45 8.25 1.0 M13.25 0.25 L14.3 0.15 14.55 1.15 14.6 3.3 13.15 3.2 13.55 2.5 13.25 0.25 M9.5 3.45 L9.35 0.55 9.5 3.45" fill="url(#gradient0)" fill-rule="evenodd" stroke="none"/>
    <path d="M6.15 0.5 L7.25 0.75 8.25 1.0 8.1 3.45 6.8 3.55 4.0 3.7 1.7 3.85 1.45 2.7 1.6 2.4 1.9 2.15 2.15 2.1 2.35 1.35 3.25 0.85 3.7 0.65 6.15 0.5 M10.65 0.8 L11.85 0.4 13.25 0.25 13.55 2.5 13.15 3.2 10.75 2.8 10.65 0.8 M4.0 3.7 L4.2 3.05 Q4.4 2.75 4.65 2.75 L6.4 2.8 6.8 3.55 6.4 2.8 4.65 2.75 Q4.4 2.75 4.2 3.05 L4.0 3.7 M4.65 2.75 L3.25 0.85 4.65 2.75" fill="url(#gradient1)" fill-rule="evenodd" stroke="none"/>
    <path d="M-1.35 2.25 L-2.1 2.6 -2.7 1.3 -2.6 1.15 Q-1.4 0.0 0.15 0.25 L-0.2 -0.05 -0.9 -0.5 -1.35 -0.75 -1.45 -0.9 -1.1 -1.55 1.25 -0.1 1.4 -0.1 0.65 -1.5 1.3 -1.6 1.75 -1.15 Q2.75 0.1 4.3 0.0 L6.15 0.5 7.25 0.75 8.25 1.0 8.55 0.5 9.35 0.55 9.8 0.45 Q10.55 0.15 10.65 0.8 L11.85 0.4 13.25 0.25 14.3 0.15 14.55 1.15 14.6 3.3 13.15 3.2 10.75 2.8 10.55 3.5 10.45 3.55 9.6 3.5 9.5 3.5 9.2 3.45 8.1 3.45 6.8 3.55 4.0 3.7 1.7 3.85 1.1 3.85 0.5 2.45 0.65 1.7 Q0.35 0.8 -2.05 1.5 L-1.8 1.9 -1.6 2.0 -1.4 2.15 -1.25 2.15 -1.35 2.25 M13.25 0.25 L13.55 2.5 13.15 3.2 M10.75 2.8 L10.65 0.8 M9.5 3.45 L9.2 3.45 M8.1 3.45 L8.25 1.0 M9.35 0.55 L9.5 3.45 M6.15 0.5 L3.7 0.65 3.25 0.85 2.35 1.35 2.15 2.1 1.9 2.15 1.6 2.4 1.45 2.7 1.7 3.85" fill="none" stroke="#000000" stroke-linecap="round" stroke-linejoin="round" stroke-width="0.05"/>
    <path d="M6.8 3.55 L6.4 2.8 4.65 2.75 Q4.4 2.75 4.2 3.05 L4.0 3.7 M3.25 0.85 L4.65 2.75" fill="none" stroke="#ffff99" stroke-linecap="round" stroke-linejoin="round" stroke-width="0.05"/>
  </g>
  <defs>
    <linearGradient gradientTransform="matrix(-1.0E-4, 0.0032, -0.0033, -1.0E-4, 1.95, 0.9)" gradientUnits="userSpaceOnUse" id="gradient0" spreadMethod="pad" x1="-819.2" x2="819.2">
      <stop offset="0.0" stop-color="#d8cb2c"/>
      <stop offset="0.5450980392156862" stop-color="#ffffff"/>
      <stop offset="1.0" stop-color="#d7ca33"/>
    </linearGradient>
    <linearGradient gradientTransform="matrix(2.0E-4, 0.0022, -0.0021, 2.0E-4, 4.8, 2.05)" gradientUnits="userSpaceOnUse" id="gradient1" spreadMethod="pad" x1="-819.2" x2="819.2">
      <stop offset="0.0" stop-color="#9f9f5b"/>
      <stop offset="0.4823529411764706" stop-color="#ffffe2"/>
      <stop offset="1.0" stop-color="#9f9f5b"/>
    </linearGradient>
  </defs>
</svg>
