<?xml version="1.0" encoding="UTF-8" standalone="no"?>
<svg xmlns:xlink="http://www.w3.org/1999/xlink" height="5.25px" width="14.85px" xmlns="http://www.w3.org/2000/svg">
  <g transform="matrix(1.0, 0.0, 0.0, 1.0, 0.0, 0.0)">
    <path d="M9.05 0.85 L9.35 0.85 10.1 1.0 11.2 0.55 11.5 0.45 13.35 0.1 13.95 0.15 11.45 1.1 11.2 0.65 11.2 0.55 11.2 0.65 11.45 1.1 13.95 0.15 14.4 0.25 14.95 1.3 Q14.8 1.85 15.0 2.5 L14.8 2.95 13.35 3.15 12.3 2.95 11.35 2.7 10.75 2.55 10.2 2.85 Q9.85 3.0 9.45 2.55 L9.15 2.6 8.95 2.65 8.5 2.7 8.6 0.85 9.05 0.85 M8.05 0.9 L8.0 1.65 8.0 2.8 0.75 3.2 0.15 2.65 Q0.65 2.05 0.5 1.25 L8.05 0.9 M11.5 1.8 L13.5 2.5 11.5 1.8 11.35 2.7 11.5 1.8 11.5 1.45 11.5 1.8 M14.05 1.3 L12.9 1.4 11.5 1.45 11.45 1.1 11.5 1.45 12.9 1.4 14.05 1.3 M2.8 2.2 L4.55 1.8 6.15 1.65 8.0 1.65 6.15 1.65 4.55 1.8 2.8 2.2" fill="#333333" fill-rule="evenodd" stroke="none"/>
    <path d="M9.05 0.85 L8.9 -0.15 8.8 -0.15 8.6 0.85 8.5 2.7 8.6 2.9 Q8.8 3.35 8.95 2.65 L9.15 2.6 8.75 3.9 Q8.55 4.25 8.35 4.15 L8.3 4.1 8.0 2.8 8.0 1.65 8.05 0.9 Q8.05 -0.15 8.55 -1.1 L9.05 -1.1 9.2 -0.65 9.35 0.85 9.05 0.85" fill="url(#gradient0)" fill-rule="evenodd" stroke="none"/>
    <path d="M8.6 0.85 L8.8 -0.15 8.9 -0.15 9.05 0.85 9.35 0.85 9.2 -0.65 9.05 -1.1 8.55 -1.1 Q8.05 -0.15 8.05 0.9 L8.0 1.65 8.0 2.8 8.3 4.1 8.35 4.15 Q8.55 4.25 8.75 3.9 L9.15 2.6 8.95 2.65 Q8.8 3.35 8.6 2.9 L8.5 2.7 8.6 0.85 9.05 0.85 M13.95 0.15 L13.35 0.1 11.5 0.45 11.2 0.55 10.1 1.0 9.35 0.85 M13.95 0.15 L14.4 0.25 14.95 1.3 Q14.8 1.85 15.0 2.5 L14.8 2.95 13.35 3.15 12.3 2.95 11.35 2.7 10.75 2.55 10.2 2.85 Q9.85 3.0 9.45 2.55 L9.15 2.6 M8.5 2.7 L8.95 2.65 M8.0 1.65 L6.15 1.65 4.55 1.8 2.8 2.2 M0.15 2.65 L0.75 3.2 8.0 2.8 M8.05 0.9 L0.5 1.25" fill="none" stroke="#000000" stroke-linecap="round" stroke-linejoin="round" stroke-width="0.05"/>
    <path d="M11.2 0.55 L11.2 0.65 11.45 1.1 13.95 0.15 M11.45 1.1 L11.5 1.45 12.9 1.4 14.05 1.3 M11.35 2.7 L11.5 1.8 11.5 1.45 M13.5 2.5 L11.5 1.8" fill="none" stroke="#ff0000" stroke-linecap="round" stroke-linejoin="round" stroke-width="0.05"/>
  </g>
  <defs>
    <linearGradient gradientTransform="matrix(1.0E-4, 0.0032, -0.0033, 1.0E-4, 8.65, 1.5)" gradientUnits="userSpaceOnUse" id="gradient0" spreadMethod="pad" x1="-819.2" x2="819.2">
      <stop offset="0.0" stop-color="#564036"/>
      <stop offset="0.5137254901960784" stop-color="#aa9960"/>
      <stop offset="1.0" stop-color="#564036"/>
    </linearGradient>
  </defs>
</svg>
