<?xml version="1.0" encoding="UTF-8" standalone="no"?>
<svg xmlns:xlink="http://www.w3.org/1999/xlink" height="6.45px" width="16.55px" xmlns="http://www.w3.org/2000/svg">
  <g transform="matrix(1.0, 0.0, 0.0, 1.0, 0.0, 0.0)">
    <path d="M0.3 3.2 L0.25 3.25 0.25 3.2 0.3 3.2 0.25 3.2 0.2 2.4 0.3 3.2 M0.4 3.7 L0.65 4.05 0.4 3.75 0.4 3.7" fill="#6a7d8c" fill-rule="evenodd" stroke="none"/>
    <path d="M7.8 -0.85 Q7.15 -0.2 6.35 0.1 L5.7 0.5 3.75 1.1 3.2 1.15 0.35 1.5 0.25 1.5 0.1 1.8 Q0.0 2.1 0.2 2.4 L0.25 3.2 0.25 3.25 0.3 3.2 6.75 3.75 7.5 4.0 9.1 4.85 7.25 4.95 5.4 4.55 3.75 4.45 2.5 4.4 1.0 4.8 0.35 5.1 0.15 5.25 -0.75 5.35 Q-0.95 5.25 -0.55 5.1 L-0.1 4.7 0.2 4.2 0.0 4.25 -0.2 4.4 -0.35 4.45 -1.35 4.2 -0.95 4.1 Q-0.35 3.95 -0.1 3.55 L-0.1 3.45 -0.05 3.25 -0.15 2.6 -0.2 2.45 -1.35 2.15 -0.2 1.35 0.1 1.0 Q0.2 0.5 -0.15 0.25 L-1.4 -0.2 0.55 -0.05 2.0 0.0 Q4.8 0.05 7.8 -0.85 M9.35 -0.65 L9.3 0.7 10.45 0.6 12.15 0.25 12.7 0.0 14.15 0.25 14.2 1.2 14.2 1.8 14.1 2.55 14.0 2.6 12.6 2.7 11.05 3.0 9.75 2.85 9.6 3.7 9.9 4.25 7.75 3.5 7.1 3.2 6.25 2.8 6.0 2.65 9.7 2.35 9.65 2.0 10.8 1.6 9.5 1.55 9.55 1.75 7.6 1.9 5.75 1.75 5.7 1.6 Q5.95 0.95 6.45 0.55 L7.5 -0.2 9.0 -1.05 9.3 -1.1 9.5 -1.05 9.35 -0.65 M9.3 0.7 L9.5 1.55 9.3 0.7 M9.75 2.85 L9.7 2.35 9.75 2.85 M0.4 3.7 L0.3 3.5 0.25 3.25 0.3 3.5 0.4 3.7 0.4 3.75 0.65 4.05 0.4 3.7 M0.95 4.5 L0.65 4.05 0.95 4.5 M2.6 0.8 L2.0 0.0 2.6 0.8 M0.55 -0.05 L0.25 1.5 0.55 -0.05" fill="url(#gradient0)" fill-rule="evenodd" stroke="none"/>
    <path d="M7.8 -0.85 L9.0 -1.05 7.5 -0.2 6.45 0.55 Q5.95 0.95 5.7 1.6 L5.75 1.75 7.6 1.9 9.55 1.75 9.5 1.55 10.8 1.6 9.65 2.0 9.7 2.35 6.0 2.65 6.25 2.8 7.1 3.2 7.75 3.5 9.9 4.25 10.0 4.3 11.05 4.15 10.95 4.45 Q10.8 4.8 10.25 4.8 L9.1 4.85 7.5 4.0 6.75 3.75 0.3 3.2 0.2 2.4 Q0.0 2.1 0.1 1.8 L0.25 1.5 0.35 1.5 3.2 1.15 3.75 1.1 5.7 0.5 6.35 0.1 Q7.15 -0.2 7.8 -0.85 M3.75 1.55 L3.75 1.1 3.75 1.55 M9.5 -1.05 L10.2 -0.75 10.4 -0.55 9.35 -0.65 9.5 -1.05 M14.15 0.25 L14.65 0.5 15.1 1.6 15.15 2.45 15.0 2.75 14.45 3.45 11.6 3.7 11.05 3.0 12.6 2.7 14.0 2.6 14.35 2.85 14.45 3.45 14.35 2.85 14.0 2.6 14.1 2.55 14.2 1.8 14.2 1.2 14.5 1.25 15.1 1.6 14.5 1.25 14.2 1.2 14.15 0.25 M15.15 2.45 L14.65 1.95 14.2 1.8 14.65 1.95 15.15 2.45 M13.0 3.1 L12.7 2.85 12.6 2.7 12.7 2.85 13.0 3.1 M9.65 2.0 L9.55 1.75 9.65 2.0 M2.95 2.85 L3.25 1.45 3.2 1.15 3.25 1.45 2.95 2.85 M10.25 4.8 L10.0 4.3 10.25 4.8" fill="url(#gradient1)" fill-rule="evenodd" stroke="none"/>
    <path d="M9.3 0.7 L10.45 0.6 12.15 0.25 12.7 0.0 14.15 0.25 14.65 0.5 15.1 1.6 15.15 2.45 15.0 2.75 14.45 3.45 11.6 3.7 11.05 3.0 9.75 2.85 M0.4 3.75 L0.65 4.05" fill="none" stroke="#000000" stroke-linecap="round" stroke-linejoin="round" stroke-width="0.05"/>
    <path d="M9.0 -1.05 L7.8 -0.85 Q7.15 -0.2 6.35 0.1 L5.7 0.5 3.75 1.1 3.75 1.55 M9.5 -1.05 L10.2 -0.75 10.4 -0.55 9.35 -0.65 9.3 0.7 9.5 1.55 10.8 1.6 9.65 2.0 9.7 2.35 6.0 2.65 6.25 2.8 7.1 3.2 7.75 3.5 9.9 4.25 10.0 4.3 11.05 4.15 10.95 4.45 Q10.8 4.8 10.25 4.8 L9.1 4.85 7.25 4.95 5.4 4.55 3.75 4.45 2.5 4.4 1.0 4.8 0.35 5.1 0.15 5.25 -0.75 5.35 Q-0.95 5.25 -0.55 5.1 L-0.1 4.7 0.2 4.2 0.0 4.25 -0.2 4.4 -0.35 4.45 -1.35 4.2 -0.95 4.1 Q-0.35 3.95 -0.1 3.55 L-0.1 3.45 -0.05 3.25 -0.15 2.6 -0.2 2.45 -1.35 2.15 -0.2 1.35 0.1 1.0 Q0.2 0.5 -0.15 0.25 L-1.4 -0.2 0.55 -0.05 2.0 0.0 Q4.8 0.05 7.8 -0.85 M9.75 2.85 L9.6 3.7 9.9 4.25 M9.0 -1.05 L7.5 -0.2 6.45 0.55 Q5.95 0.95 5.7 1.6 L5.75 1.75 7.6 1.9 9.55 1.75 9.5 1.55 M9.5 -1.05 L9.3 -1.1 9.0 -1.05 M9.35 -0.65 L9.5 -1.05 M15.1 1.6 L14.5 1.25 14.2 1.2 14.2 1.8 14.65 1.95 15.15 2.45 M14.2 1.2 L14.15 0.25 M14.45 3.45 L14.35 2.85 14.0 2.6 12.6 2.7 12.7 2.85 13.0 3.1 M14.0 2.6 L14.1 2.55 14.2 1.8 M11.05 3.0 L12.6 2.7 M9.7 2.35 L9.75 2.85 M9.55 1.75 L9.65 2.0 M9.1 4.85 L7.5 4.0 6.75 3.75 0.3 3.2 0.25 3.25 0.3 3.5 0.4 3.7 0.65 4.05 0.95 4.5 M3.75 1.1 L3.2 1.15 3.25 1.45 2.95 2.85 M3.2 1.15 L0.35 1.5 0.25 1.5 0.1 1.8 Q0.0 2.1 0.2 2.4 L0.3 3.2 0.25 3.2 M2.0 0.0 L2.6 0.8 M10.0 4.3 L10.25 4.8 M0.25 1.5 L0.55 -0.05" fill="none" stroke="#000000" stroke-linecap="round" stroke-linejoin="round" stroke-width="0.05"/>
  </g>
  <defs>
    <linearGradient gradientTransform="matrix(0.0, 0.0033, -0.008, 0.0, 4.8, 2.15)" gradientUnits="userSpaceOnUse" id="gradient0" spreadMethod="pad" x1="-819.2" x2="819.2">
      <stop offset="0.0" stop-color="#564036"/>
      <stop offset="0.5137254901960784" stop-color="#a38a6d"/>
      <stop offset="1.0" stop-color="#564036"/>
    </linearGradient>
    <linearGradient gradientTransform="matrix(0.0, 0.0025, -0.0047, 0.0, 9.05, 2.2)" gradientUnits="userSpaceOnUse" id="gradient1" spreadMethod="pad" x1="-819.2" x2="819.2">
      <stop offset="0.0" stop-color="#564036"/>
      <stop offset="0.5137254901960784" stop-color="#aa9960"/>
      <stop offset="1.0" stop-color="#564036"/>
    </linearGradient>
  </defs>
</svg>
