<?xml version="1.0" encoding="UTF-8" standalone="no"?>
<svg xmlns:xlink="http://www.w3.org/1999/xlink" height="4.55px" width="15.9px" xmlns="http://www.w3.org/2000/svg">
  <g transform="matrix(1.0, 0.0, 0.0, 1.0, 0.0, 0.0)">
    <path d="M9.35 0.65 L9.4 2.25 9.4 2.45 Q9.5 3.75 9.05 4.65 L8.0 4.55 7.0 4.4 -0.95 4.15 -0.5 3.25 Q0.0 1.95 0.15 0.5 L1.7 0.65 5.65 0.25 8.4 0.15 Q9.1 0.0 9.35 0.65 M8.3 2.15 Q8.6 3.25 8.15 4.2 L8.0 4.55 8.15 4.2 Q8.6 3.25 8.3 2.15 M7.1 2.35 Q7.5 3.2 7.05 4.2 L7.0 4.4 7.05 4.2 Q7.5 3.2 7.1 2.35" fill="#ded8cf" fill-rule="evenodd" stroke="none"/>
    <path d="M9.35 0.65 L13.0 0.75 Q16.15 1.9 14.15 2.55 L12.2 2.8 Q10.7 2.85 9.4 2.25 L9.35 0.65" fill="#4b5963" fill-rule="evenodd" stroke="none"/>
    <path d="M9.35 0.65 L9.4 2.25 9.4 2.45 Q9.5 3.75 9.05 4.65 L8.0 4.55 7.0 4.4 -0.95 4.15 M0.15 0.5 L-0.1 0.35 M9.35 0.65 Q9.1 0.0 8.4 0.15 L5.65 0.25 1.7 0.65 0.15 0.5" fill="none" stroke="#000000" stroke-linecap="round" stroke-linejoin="round" stroke-width="0.05"/>
    <path d="M9.4 2.25 Q10.7 2.85 12.2 2.8 L14.15 2.55 Q16.15 1.9 13.0 0.75 L9.35 0.65 M7.0 4.4 L7.05 4.2 Q7.5 3.2 7.1 2.35 M8.0 4.55 L8.15 4.2 Q8.6 3.25 8.3 2.15" fill="none" stroke="#000000" stroke-linecap="round" stroke-linejoin="round" stroke-width="0.05"/>
  </g>
</svg>
