<?xml version="1.0" encoding="UTF-8" standalone="no"?>
<svg xmlns:xlink="http://www.w3.org/1999/xlink" height="4.15px" width="15.1px" xmlns="http://www.w3.org/2000/svg">
  <g transform="matrix(1.0, 0.0, 0.0, 1.0, 0.0, 0.0)">
    <path d="M10.45 0.6 L10.55 1.0 10.65 1.3 10.65 1.4 10.7 2.0 10.7 2.9 9.85 2.85 8.45 3.3 5.7 3.95 2.3 4.15 Q0.5 4.15 0.4 3.75 L0.2 2.6 Q0.1 1.85 0.6 0.8 L0.9 0.7 Q4.7 0.2 8.65 0.75 L9.65 0.7 10.45 0.6 M9.85 1.35 L9.65 0.7 9.85 1.35 10.65 1.3 9.85 1.35 9.85 1.55 9.9 1.7 9.9 1.8 9.95 2.0 10.6 2.0 10.7 2.0 10.6 2.0 9.95 2.0 9.9 1.8 9.9 1.7 9.85 1.55 9.85 1.35 M9.95 2.0 L9.85 2.85 9.95 2.0" fill="#636147" fill-rule="evenodd" stroke="none"/>
    <path d="M10.45 0.6 L11.55 0.45 12.7 0.0 Q14.5 0.0 14.85 0.85 15.8 2.2 14.85 3.4 L11.6 3.7 11.05 3.0 10.7 2.9 10.7 2.0 10.65 1.4 10.65 1.3 10.55 1.0 10.45 0.6" fill="#4b5963" fill-rule="evenodd" stroke="none"/>
    <path d="M10.7 2.9 L11.05 3.0 11.6 3.7 14.85 3.4 Q15.8 2.2 14.85 0.85 14.5 0.0 12.7 0.0 L11.55 0.45 10.45 0.6 10.55 1.0 10.65 1.3 10.65 1.4 10.7 2.0 10.7 2.9 9.85 2.85 8.45 3.3 5.7 3.95 2.3 4.15 Q0.5 4.15 0.4 3.75 M0.6 0.8 L0.9 0.7 Q4.7 0.2 8.65 0.75 L9.65 0.7 10.45 0.6 M10.65 1.3 L9.85 1.35 9.85 1.55 9.9 1.7 9.9 1.8 9.95 2.0 10.6 2.0 10.7 2.0 M9.85 2.85 L9.95 2.0 M9.65 0.7 L9.85 1.35" fill="none" stroke="#000000" stroke-linecap="round" stroke-linejoin="round" stroke-width="0.05"/>
  </g>
</svg>
