<?xml version="1.0" encoding="UTF-8" standalone="no"?>
<svg xmlns:xlink="http://www.w3.org/1999/xlink" height="8.35px" width="11.55px" xmlns="http://www.w3.org/2000/svg">
  <g transform="matrix(1.0, 0.0, 0.0, 1.0, 0.0, 0.0)">
    <path d="M4.6 2.8 L4.7 1.85 5.0 1.8 7.3 1.9 9.35 1.95 10.15 2.3 Q9.8 2.5 10.0 2.7 10.55 3.1 10.25 3.55 L8.45 3.1 6.7 2.75 4.95 2.8 4.6 2.8" fill="#b49a6e" fill-rule="evenodd" stroke="none"/>
    <path d="M1.25 -1.3 Q1.45 -0.75 1.1 -0.2 1.45 -0.75 1.25 -1.3 L1.6 -1.35 3.3 -1.5 3.55 -1.6 3.95 -1.9 4.6 0.4 4.7 1.85 4.6 2.8 4.1 4.8 3.4 6.15 3.1 6.45 2.2 6.45 1.7 5.65 Q-2.65 4.05 -0.45 -0.25 L0.5 -1.05 1.25 -1.3 M4.05 1.35 L4.0 0.3 3.55 -1.6 4.0 0.3 4.05 1.35 M1.8 -0.55 L1.6 -1.35 1.8 -0.55 M3.1 -0.35 L3.2 0.35 3.25 1.45 3.25 1.65 3.25 2.75 2.8 4.8 2.55 5.3 2.8 4.8 3.25 2.75 3.25 1.65 3.25 1.45 3.2 0.35 3.1 -0.35 M2.65 0.65 L2.4 0.7 1.55 1.15 1.25 0.55 1.55 1.15 2.4 0.7 2.65 0.65 M0.3 2.35 Q0.55 1.7 1.25 1.3 L1.55 1.15 1.75 1.8 0.95 2.65 1.75 1.8 1.55 1.15 1.25 1.3 Q0.55 1.7 0.3 2.35 M2.05 2.8 L1.75 1.8 2.8 1.4 1.75 1.8 2.05 2.8 M0.2 -0.25 L-0.1 0.2 Q-1.5 3.1 1.25 4.75 -1.5 3.1 -0.1 0.2 L0.2 -0.25" fill="#918970" fill-rule="evenodd" stroke="none"/>
    <path d="M1.25 -1.3 L0.5 -1.05 -0.45 -0.25 Q-2.65 4.05 1.7 5.65 L2.2 6.45 3.1 6.45 3.4 6.15 4.1 4.8 4.6 2.8 4.7 1.85 4.6 0.4 3.95 -1.9 3.55 -1.6 3.3 -1.5 1.6 -1.35 1.25 -1.3 M4.7 1.85 L5.0 1.8 7.3 1.9 9.35 1.95 10.15 2.3 Q9.8 2.5 10.0 2.7 10.55 3.1 10.25 3.55 L8.45 3.1 6.7 2.75 4.95 2.8 4.6 2.8 M2.55 5.3 L2.8 4.8 3.25 2.75 3.25 1.65 3.25 1.45 3.2 0.35 3.1 -0.35" fill="none" stroke="#000000" stroke-linecap="round" stroke-linejoin="round" stroke-width="0.05"/>
    <path d="M3.55 -1.6 L4.0 0.3 4.05 1.35 M1.25 4.75 Q-1.5 3.1 -0.1 0.2 L0.2 -0.25" fill="none" stroke="#ddbca3" stroke-linecap="round" stroke-linejoin="round" stroke-width="0.05"/>
    <path d="M1.1 -0.2 Q1.45 -0.75 1.25 -1.3 M1.6 -1.35 L1.8 -0.55 M2.8 1.4 L1.75 1.8 2.05 2.8 M0.95 2.65 L1.75 1.8 1.55 1.15 1.25 1.3 Q0.55 1.7 0.3 2.35 M1.25 0.55 L1.55 1.15 2.4 0.7 2.65 0.65" fill="none" stroke="#3e2617" stroke-linecap="round" stroke-linejoin="round" stroke-width="0.05"/>
  </g>
</svg>
