<?xml version="1.0" encoding="UTF-8" standalone="no"?>
<svg xmlns:xlink="http://www.w3.org/1999/xlink" height="4.2px" width="10.3px" xmlns="http://www.w3.org/2000/svg">
  <g transform="matrix(1.0, 0.0, 0.0, 1.0, 0.0, 0.0)">
    <path d="M5.65 2.15 L8.7 1.95 5.65 2.15 M0.2 1.4 L0.2 1.35 0.3 1.2 1.6 0.6 2.7 0.45 Q3.8 0.85 4.65 1.55 L4.95 1.6 6.45 1.3 8.95 1.15 Q10.2 1.2 10.45 1.55 L10.1 3.25 3.35 3.6 3.05 3.75 2.7 4.0 2.4 4.0 2.55 4.1 2.1 4.4 1.7 4.35 1.25 4.25 0.8 3.6 Q0.0 2.55 0.2 1.4" fill="#63565e" fill-rule="evenodd" stroke="none"/>
    <path d="M8.7 1.95 L5.65 2.15 M10.45 1.55 Q10.2 1.2 8.95 1.15 L6.45 1.3 4.95 1.6 4.65 1.55 Q3.8 0.85 2.7 0.45 L1.6 0.6 0.3 1.2 0.2 1.35 0.2 1.4 M2.1 4.4 L2.55 4.1 2.4 4.0 2.7 4.0 3.05 3.75 3.35 3.6 10.1 3.25 M2.55 4.1 L2.7 4.0 3.4 4.3 3.55 4.4 3.85 4.6 M3.55 4.4 L2.55 4.1 M3.35 3.6 L3.45 3.6 4.55 4.25" fill="none" stroke="#000000" stroke-linecap="round" stroke-linejoin="round" stroke-width="0.05"/>
  </g>
</svg>
