<?xml version="1.0" encoding="UTF-8" standalone="no"?>
<svg xmlns:xlink="http://www.w3.org/1999/xlink" height="2.9px" width="9.9px" xmlns="http://www.w3.org/2000/svg">
  <g transform="matrix(1.0, 0.0, 0.0, 1.0, 0.0, 0.0)">
    <path d="M9.35 1.95 L10.15 2.3 Q9.8 2.5 10.0 2.7 10.55 3.1 10.25 3.55 L8.45 3.1 6.7 2.75 4.95 2.8 3.0 2.75 Q2.1 2.55 1.05 2.75 L0.8 2.75 0.65 2.4 Q0.55 1.85 0.7 1.45 L0.55 1.2 0.45 1.0 0.55 0.75 Q1.65 0.45 2.85 1.3 L3.35 1.5 5.0 1.8 7.3 1.9 9.35 1.95" fill="#000000" fill-rule="evenodd" stroke="none"/>
    <path d="M9.35 1.95 L10.15 2.3 Q9.8 2.5 10.0 2.7 10.55 3.1 10.25 3.55 L8.45 3.1 6.7 2.75 4.95 2.8 3.0 2.75 Q2.1 2.55 1.05 2.75 L0.8 2.75 0.65 2.4 Q0.55 1.85 0.7 1.45 L0.55 1.2 0.45 1.0 0.55 0.75 Q1.65 0.45 2.85 1.3 L3.35 1.5 5.0 1.8 7.3 1.9 9.35 1.95 Z" fill="none" stroke="#ffffff" stroke-linecap="round" stroke-linejoin="round" stroke-width="0.05"/>
  </g>
</svg>
