<?xml version="1.0" encoding="UTF-8" standalone="no"?>
<svg xmlns:xlink="http://www.w3.org/1999/xlink" height="15.25px" width="12.5px" xmlns="http://www.w3.org/2000/svg">
  <g transform="matrix(1.0, 0.0, 0.0, 1.0, 0.0, 0.0)">
    <path d="M9.75 0.95 L10.75 1.5 10.9 2.45 Q11.0 3.1 10.5 3.5 10.0 3.9 8.45 4.1 L5.15 4.4 2.5 4.8 0.95 4.2 Q0.05 3.75 0.05 2.8 0.0 1.5 0.8 0.6 0.9 0.45 1.65 0.25 L4.55 0.45 7.85 0.8 9.75 0.95 M8.5 1.75 L7.45 1.55 5.9 1.8 5.2 2.15 5.9 1.8 7.45 1.55 8.5 1.75" fill="#cfd7da" fill-rule="evenodd" stroke="none"/>
    <path d="M5.2 2.15 L5.9 1.8 7.45 1.55 8.5 1.75" fill="none" stroke="#000000" stroke-linecap="round" stroke-linejoin="round" stroke-width="0.05"/>
    <path d="M9.75 0.95 L7.85 0.8 4.55 0.45 1.65 0.25 M2.5 4.8 L5.15 4.4 8.45 4.1 Q10.0 3.9 10.5 3.5" fill="none" stroke="#000000" stroke-linecap="round" stroke-linejoin="round" stroke-width="0.05"/>
    <path d="M0.35 -0.7 Q0.8 0.3 2.05 0.0 L3.0 -0.95 3.4 -1.7 3.3 -2.15 3.1 -2.4 2.6 -2.65 3.1 -2.4 3.3 -2.15 3.4 -1.7 3.0 -0.95 2.05 0.0 Q0.8 0.3 0.35 -0.7 L2.6 -2.65 3.15 -3.25 Q4.15 -4.45 4.7 -5.9 L5.0 -6.95 Q6.7 -4.55 5.9 -1.8 5.85 -0.95 5.35 -0.55 L4.75 -0.15 Q4.15 1.35 3.8 3.0 L3.3 2.7 Q2.05 3.05 1.6 4.05 2.05 3.05 3.3 2.7 L3.8 3.0 Q4.15 1.35 4.75 -0.15 L5.35 -0.55 Q5.85 -0.95 5.9 -1.8 L6.35 -1.35 6.9 -1.85 7.1 -2.15 7.3 -2.35 Q8.5 -2.05 9.35 -2.85 L10.25 -3.9 10.45 -3.15 Q10.55 -2.3 9.8 -1.6 L7.05 1.15 6.85 1.3 6.5 1.3 6.2 1.5 5.95 1.8 5.9 2.05 6.0 2.1 6.2 2.25 6.2 2.6 5.6 3.9 4.45 3.75 3.25 5.55 2.75 5.5 1.85 5.45 1.4 4.85 1.6 4.05 0.35 4.2 0.45 3.5 Q0.8 1.8 -0.5 1.0 L-1.4 0.95 0.35 -0.7 M1.15 3.4 Q1.65 2.55 2.55 2.35 L3.05 2.3 Q4.1 0.65 3.9 -1.0 L4.35 -1.1 Q5.25 -2.2 5.35 -3.45 5.4 -4.6 4.7 -5.9 5.4 -4.6 5.35 -3.45 5.25 -2.2 4.35 -1.1 L3.9 -1.0 Q4.1 0.65 3.05 2.3 L2.55 2.35 Q1.65 2.55 1.15 3.4 M10.2 -2.95 L7.45 -0.35 Q6.0 0.7 5.05 2.2 L5.4 2.7 5.4 2.85 Q4.95 3.25 4.05 3.2 3.2 3.8 2.75 4.95 L2.2 5.0 1.7 4.75 2.2 5.0 2.75 4.95 Q3.2 3.8 4.05 3.2 4.95 3.25 5.4 2.85 L5.4 2.7 5.05 2.2 Q6.0 0.7 7.45 -0.35 L10.2 -2.95 M3.8 -2.65 L5.35 -3.45 3.8 -2.65" fill="url(#gradient0)" fill-rule="evenodd" stroke="none"/>
    <path d="M-1.4 0.95 L-0.5 1.0 Q0.8 1.8 0.45 3.5 L0.35 4.2 1.6 4.05 1.4 4.85 1.85 5.45 1.9 5.5 Q0.9 5.75 0.2 6.5 L0.25 6.85 0.6 7.55 0.95 7.7 1.9 7.75 1.5 8.05 1.1 8.3 Q-0.45 7.9 -1.15 6.45 L-0.05 3.9 Q0.3 2.75 -0.55 1.85 L-1.6 1.9 -1.4 0.95" fill="url(#gradient1)" fill-rule="evenodd" stroke="none"/>
    <path d="M0.35 -0.7 L-1.4 0.95 -0.5 1.0 Q0.8 1.8 0.45 3.5 L0.35 4.2 1.6 4.05 Q2.05 3.05 3.3 2.7 L3.8 3.0 Q4.15 1.35 4.75 -0.15 L5.35 -0.55 Q5.85 -0.95 5.9 -1.8 6.7 -4.55 5.0 -6.95 L4.7 -5.9 Q4.15 -4.45 3.15 -3.25 L2.6 -2.65 0.35 -0.7 M5.9 -1.8 L6.35 -1.35 6.9 -1.85 7.1 -2.15 7.3 -2.35 Q8.5 -2.05 9.35 -2.85 L10.25 -3.9 10.45 -3.15 Q10.55 -2.3 9.8 -1.6 L7.05 1.15 6.85 1.3 6.5 1.3 6.2 1.5 5.95 1.8 5.9 2.05 6.0 2.1 6.2 2.25 6.2 2.6 5.6 3.9 4.45 3.75 3.25 5.55 2.75 5.5 1.9 5.5 Q0.9 5.75 0.2 6.5 L0.25 6.85 0.6 7.55 0.95 7.7 1.9 7.75 1.5 8.05 1.1 8.3 Q-0.45 7.9 -1.15 6.45 L-0.05 3.9 Q0.3 2.75 -0.55 1.85 L-1.6 1.9 -1.4 0.95 M1.85 5.45 L1.9 5.5 M1.6 4.05 L1.4 4.85 1.85 5.45 2.75 5.5" fill="none" stroke="#000000" stroke-linecap="round" stroke-linejoin="round" stroke-width="0.05"/>
    <path d="M2.6 -2.65 L3.1 -2.4 3.3 -2.15 3.4 -1.7 3.0 -0.95 2.05 0.0 Q0.8 0.3 0.35 -0.7 M4.7 -5.9 Q5.4 -4.6 5.35 -3.45 5.25 -2.2 4.35 -1.1 L3.9 -1.0 Q4.1 0.65 3.05 2.3 L2.55 2.35 Q1.65 2.55 1.15 3.4 M5.35 -3.45 L3.8 -2.65 M1.7 4.75 L2.2 5.0 2.75 4.95 Q3.2 3.8 4.05 3.2 4.95 3.25 5.4 2.85 L5.4 2.7 5.05 2.2 Q6.0 0.7 7.45 -0.35 L10.2 -2.95" fill="none" stroke="#ffff99" stroke-linecap="round" stroke-linejoin="round" stroke-width="0.05"/>
  </g>
  <defs>
    <linearGradient gradientTransform="matrix(0.0015, -0.0053, 0.0055, 0.0016, 7.3, -0.3)" gradientUnits="userSpaceOnUse" id="gradient0" spreadMethod="pad" x1="-819.2" x2="819.2">
      <stop offset="0.0" stop-color="#9f9f5b"/>
      <stop offset="0.4823529411764706" stop-color="#ffffe2"/>
      <stop offset="1.0" stop-color="#9f9f5b"/>
    </linearGradient>
    <linearGradient gradientTransform="matrix(-2.0E-4, -0.0046, 0.0045, -2.0E-4, 0.15, 4.6)" gradientUnits="userSpaceOnUse" id="gradient1" spreadMethod="pad" x1="-819.2" x2="819.2">
      <stop offset="0.0" stop-color="#d8cb2c"/>
      <stop offset="0.5450980392156862" stop-color="#ffffff"/>
      <stop offset="1.0" stop-color="#d7ca33"/>
    </linearGradient>
  </defs>
</svg>
