<?xml version="1.0" encoding="UTF-8" standalone="no"?>
<svg xmlns:xlink="http://www.w3.org/1999/xlink" height="4.0px" width="10.3px" xmlns="http://www.w3.org/2000/svg">
  <g transform="matrix(1.0, 0.0, 0.0, 1.0, 0.0, 0.0)">
    <path d="M5.55 3.7 L5.35 2.75 5.3 2.65 5.3 1.9 5.35 1.75 5.35 1.55 5.45 1.45 5.35 1.55 5.35 1.75 5.3 1.9 5.3 2.65 5.35 2.75 5.55 3.7 3.35 3.6 3.05 3.75 2.7 4.0 2.55 4.1 2.1 4.4 1.7 4.35 1.25 4.25 0.8 3.6 Q0.0 2.55 0.2 1.4 L0.2 1.35 0.3 1.2 1.6 0.6 2.7 0.45 Q3.8 0.85 4.65 1.55 L4.95 1.6 5.45 1.45 6.45 1.3 8.95 1.15 Q10.2 1.2 10.45 1.55 L10.1 3.25 5.55 3.7 M6.3 1.95 Q7.5 1.65 8.7 1.95 7.5 1.65 6.3 1.95 L5.65 2.15 6.3 1.95 6.3 3.3 6.3 1.95" fill="#333333" fill-rule="evenodd" stroke="none"/>
    <path d="M5.55 3.7 L10.1 3.25 M10.45 1.55 Q10.2 1.2 8.95 1.15 L6.45 1.3 5.45 1.45 4.95 1.6 4.65 1.55 Q3.8 0.85 2.7 0.45 L1.6 0.6 0.3 1.2 0.2 1.35 0.2 1.4 M2.1 4.4 L2.55 4.1 2.7 4.0 3.05 3.75 3.35 3.6 5.55 3.7 M6.3 1.95 L5.65 2.15 M8.7 1.95 Q7.5 1.65 6.3 1.95" fill="none" stroke="#000000" stroke-linecap="round" stroke-linejoin="round" stroke-width="0.05"/>
    <path d="M5.45 1.45 L5.35 1.55 5.35 1.75 5.3 1.9 5.3 2.65 5.35 2.75 5.55 3.7 M6.3 1.95 L6.3 3.3" fill="none" stroke="#ff0000" stroke-linecap="round" stroke-linejoin="round" stroke-width="0.05"/>
  </g>
</svg>
