<?xml version="1.0" encoding="UTF-8" standalone="no"?>
<svg xmlns:xlink="http://www.w3.org/1999/xlink" height="13.15px" width="12.95px" xmlns="http://www.w3.org/2000/svg">
  <g transform="matrix(1.0, 0.0, 0.0, 1.0, 0.0, 0.0)">
    <path d="M10.35 1.0 L10.75 1.5 10.9 2.45 10.85 3.9 8.85 4.55 5.45 4.7 2.5 4.8 0.95 4.2 Q0.05 3.75 0.05 2.8 0.0 1.5 0.8 0.6 L1.0 0.35 Q2.9 -1.7 5.85 0.45 L8.1 0.4 Q9.2 0.45 10.35 1.0 M9.05 1.75 L8.7 1.55 7.65 1.35 6.1 1.6 5.4 1.95 6.1 1.6 7.65 1.35 8.7 1.55 9.05 1.75" fill="#4b5963" fill-rule="evenodd" stroke="none"/>
    <path d="M5.4 1.95 L6.1 1.6 7.65 1.35 8.7 1.55 9.05 1.75" fill="none" stroke="#000000" stroke-linecap="round" stroke-linejoin="round" stroke-width="0.05"/>
    <path d="M10.35 1.0 Q9.2 0.45 8.1 0.4 L5.85 0.45 Q2.9 -1.7 1.0 0.35 M2.5 4.8 L5.45 4.7 8.85 4.55 10.85 3.9" fill="none" stroke="#000000" stroke-linecap="round" stroke-linejoin="round" stroke-width="0.05"/>
    <path d="M4.15 -4.1 L4.35 -4.4 Q5.05 -4.4 4.9 -3.9 L4.15 -4.1 M4.15 -3.8 L4.25 -3.8 4.45 -3.6 Q4.65 -2.85 4.2 -2.05 4.0 -1.7 3.7 -1.7 L3.65 -1.75 3.25 -2.25 3.2 -2.45 4.15 -3.8 M3.1 -1.85 L3.45 -1.15 2.8 1.0 2.0 0.9 1.75 0.7 1.65 0.6 1.7 -0.75 3.1 -1.85" fill="#2b2717" fill-rule="evenodd" stroke="none"/>
    <path d="M1.5 -2.35 Q2.1 -2.65 2.55 -3.3 L4.15 -5.5 6.0 -5.45 Q6.7 -5.5 6.55 -4.95 L6.35 -4.35 6.55 -4.95 7.3 -4.2 7.3 -4.0 Q6.85 -4.1 6.35 -4.35 L6.15 -4.0 6.75 -3.35 6.55 -3.0 5.8 -3.3 6.15 -4.0 5.8 -3.3 5.45 -2.6 5.85 -2.35 6.2 -1.6 5.85 -1.75 5.15 -1.95 5.1 -0.8 Q5.75 -0.45 5.6 0.05 L4.9 -0.15 4.9 0.2 Q5.0 0.8 4.55 1.3 L5.05 1.85 Q4.9 1.9 4.3 1.4 L3.85 2.3 Q3.6 2.95 3.5 3.8 3.4 4.4 2.9 4.8 L2.8 3.4 2.5 4.1 Q1.9 5.3 1.85 4.8 L1.7 3.2 Q1.45 3.55 1.35 3.95 L0.6 6.35 -0.45 7.4 -0.8 7.6 -1.85 7.4 -1.85 7.35 -0.95 6.8 Q-0.25 6.4 -0.05 5.7 L0.05 5.0 Q0.0 4.0 0.1 3.05 L0.2 2.65 0.4 2.45 0.2 1.95 Q-0.05 1.75 -0.35 1.75 L0.1 0.25 Q1.05 0.5 0.55 -0.45 L0.45 -0.55 0.7 -1.05 Q0.9 -0.6 0.95 -1.05 L0.95 -1.55 1.2 -1.85 1.45 -1.7 1.5 -2.35 M2.3 -1.85 L1.4 -0.6 Q1.1 0.0 1.4 0.45 L0.95 1.5 0.4 2.45 0.95 1.5 1.4 0.45 Q1.1 0.0 1.4 -0.6 L2.3 -1.85 M4.15 -3.8 L3.2 -2.45 3.25 -2.25 3.65 -1.75 3.7 -1.7 Q4.0 -1.7 4.2 -2.05 4.65 -2.85 4.45 -3.6 L4.25 -3.8 4.15 -3.8 M4.15 -4.1 L4.9 -3.9 Q5.05 -4.4 4.35 -4.4 L4.15 -4.1 M3.1 -1.85 L1.7 -0.75 1.65 0.6 1.75 0.7 2.0 0.9 2.8 1.0 3.45 -1.15 3.1 -1.85 M4.3 1.4 L4.55 1.3 4.3 1.4 M5.1 -0.8 L4.9 -0.15 5.1 -0.8 M5.45 -2.6 L5.15 -1.95 5.45 -2.6 M3.8 -0.45 L3.5 0.6 3.3 1.2 1.65 2.5 3.3 1.2 3.5 0.6 3.8 -0.45" fill="url(#gradient0)" fill-rule="evenodd" stroke="none"/>
    <path d="M1.5 -2.35 L1.45 -1.7 1.2 -1.85 Q0.8 -2.2 0.2 -2.35 L-0.55 -2.6 Q-0.75 -2.7 -0.55 -2.7 L1.5 -2.35 M0.95 -1.55 L0.95 -1.05 Q0.9 -0.6 0.7 -1.05 L0.4 -1.3 Q0.0 -1.8 -0.45 -1.8 L0.15 -1.85 Q0.8 -1.9 0.95 -1.55 M0.45 -0.55 L0.55 -0.45 Q1.05 0.5 0.1 0.25 L-1.25 -0.1 Q-1.85 -0.2 -2.0 -0.45 L0.45 -0.55 M-0.35 1.75 Q-0.05 1.75 0.2 1.95 L0.4 2.45 0.2 2.65 0.1 3.05 -0.1 2.75 -0.5 2.1 Q-0.7 1.75 -0.35 1.75" fill="url(#gradient1)" fill-rule="evenodd" stroke="none"/>
    <path d="M6.55 -4.95 Q6.7 -5.5 6.0 -5.45 L4.15 -5.5 2.55 -3.3 Q2.1 -2.65 1.5 -2.35 M1.2 -1.85 L0.95 -1.55 M0.7 -1.05 L0.45 -0.55 M0.1 0.25 L-0.35 1.75 M0.4 2.45 L0.95 1.5 1.4 0.45 Q1.1 0.0 1.4 -0.6 L2.3 -1.85 M6.15 -4.0 L6.35 -4.35 6.55 -4.95 M6.15 -4.0 L5.8 -3.3 5.45 -2.6 5.15 -1.95 5.1 -0.8 4.9 -0.15 4.9 0.2 Q5.0 0.8 4.55 1.3 L4.3 1.4 3.85 2.3 Q3.6 2.95 3.5 3.8 3.4 4.4 2.9 4.8 L2.8 3.4 2.5 4.1 Q1.9 5.3 1.85 4.8 L1.7 3.2 Q1.45 3.55 1.35 3.95 L0.6 6.35 -0.45 7.4 -0.8 7.6 -1.85 7.4 -1.85 7.35 -0.95 6.8 Q-0.25 6.4 -0.05 5.7 L0.05 5.0 Q0.0 4.0 0.1 3.05 L0.2 2.65 0.4 2.45" fill="none" stroke="#000000" stroke-linecap="round" stroke-linejoin="round" stroke-width="0.05"/>
    <path d="M1.5 -2.35 L1.45 -1.7 1.2 -1.85 Q0.8 -2.2 0.2 -2.35 L-0.55 -2.6 Q-0.75 -2.7 -0.55 -2.7 L1.5 -2.35 M0.95 -1.55 L0.95 -1.05 Q0.9 -0.6 0.7 -1.05 L0.4 -1.3 Q0.0 -1.8 -0.45 -1.8 L0.15 -1.85 Q0.8 -1.9 0.95 -1.55 M0.45 -0.55 L0.55 -0.45 Q1.05 0.5 0.1 0.25 L-1.25 -0.1 Q-1.85 -0.2 -2.0 -0.45 L0.45 -0.55 M-0.35 1.75 Q-0.05 1.75 0.2 1.95 L0.4 2.45 M4.15 -3.8 L3.2 -2.45 3.25 -2.25 3.65 -1.75 3.7 -1.7 Q4.0 -1.7 4.2 -2.05 4.65 -2.85 4.45 -3.6 L4.25 -3.8 4.15 -3.8 M4.15 -4.1 L4.9 -3.9 Q5.05 -4.4 4.35 -4.4 L4.15 -4.1 M3.1 -1.85 L1.7 -0.75 1.65 0.6 1.75 0.7 2.0 0.9 2.8 1.0 3.45 -1.15 3.1 -1.85 M6.55 -4.95 L7.3 -4.2 7.3 -4.0 Q6.85 -4.1 6.35 -4.35 M5.8 -3.3 L6.55 -3.0 6.75 -3.35 6.15 -4.0 M5.45 -2.6 L5.85 -2.35 6.2 -1.6 5.85 -1.75 5.15 -1.95 M5.1 -0.8 Q5.75 -0.45 5.6 0.05 L4.9 -0.15 M4.55 1.3 L5.05 1.85 Q4.9 1.9 4.3 1.4 M0.1 3.05 L-0.1 2.75 -0.5 2.1 Q-0.7 1.75 -0.35 1.75 M1.65 2.5 L3.3 1.2 3.5 0.6 3.8 -0.45" fill="none" stroke="#000000" stroke-linecap="round" stroke-linejoin="round" stroke-width="0.05"/>
  </g>
  <defs>
    <linearGradient gradientTransform="matrix(0.0044, 0.0027, -0.0043, 0.0068, 1.65, -0.95)" gradientUnits="userSpaceOnUse" id="gradient0" spreadMethod="pad" x1="-819.2" x2="819.2">
      <stop offset="0.0" stop-color="#564036"/>
      <stop offset="0.5137254901960784" stop-color="#a38a6d"/>
      <stop offset="1.0" stop-color="#564036"/>
    </linearGradient>
    <linearGradient gradientTransform="matrix(0.0043, 0.0016, -0.0016, 0.0044, -0.95, -3.95)" gradientUnits="userSpaceOnUse" id="gradient1" spreadMethod="pad" x1="-819.2" x2="819.2">
      <stop offset="0.0" stop-color="#564036"/>
      <stop offset="0.5137254901960784" stop-color="#aa9960"/>
      <stop offset="1.0" stop-color="#564036"/>
    </linearGradient>
  </defs>
</svg>
