<?xml version="1.0" encoding="UTF-8" standalone="no"?>
<svg xmlns:xlink="http://www.w3.org/1999/xlink" height="14.1px" width="8.8px" xmlns="http://www.w3.org/2000/svg">
  <g transform="matrix(1.0, 0.0, 0.0, 1.0, 0.0, 0.0)">
    <path d="M3.05 4.85 L2.7 6.05 3.05 4.85 M3.6 2.1 L3.4 3.6 3.6 2.1 M3.2 0.7 Q4.0 1.15 4.6 1.95 5.3 8.25 3.25 14.45 L2.3 14.45 Q3.05 11.4 2.45 8.25 L1.9 6.55 Q2.1 4.65 2.65 2.7 L3.2 0.7 2.65 2.7 Q2.1 4.65 1.9 6.55 L2.45 8.25 Q3.05 11.4 2.3 14.45 L0.65 14.35 Q0.4 13.1 0.3 10.9 L-0.2 5.2 Q-0.55 1.75 0.55 0.75 L3.2 0.7" fill="url(#gradient0)" fill-rule="evenodd" stroke="none"/>
    <path d="M3.4 3.6 L3.6 2.1 M2.7 6.05 L3.05 4.85 M2.3 14.45 L3.25 14.45 Q5.3 8.25 4.6 1.95 4.0 1.15 3.2 0.7 L2.65 2.7 Q2.1 4.65 1.9 6.55 L2.45 8.25 Q3.05 11.4 2.3 14.45 L0.65 14.35 Q0.4 13.1 0.3 10.9 L-0.2 5.2 Q-0.55 1.75 0.55 0.75 L3.2 0.7" fill="none" stroke="#000000" stroke-linecap="round" stroke-linejoin="round" stroke-width="0.05"/>
    <path d="M3.65 0.55 L3.45 1.9 3.5 2.85 Q3.3 3.8 3.4 4.65 L3.3 5.2 Q0.2 6.6 -3.15 5.6 L-1.7 2.6 -0.35 0.35 3.65 0.55 M-1.7 2.6 L-0.85 2.85 -0.85 2.95 0.1 3.75 0.35 3.85 1.05 3.15 1.35 2.8 3.5 2.85 1.35 2.8 1.05 3.15 0.35 3.85 0.1 3.75 -0.85 2.95 -0.85 2.85 -1.7 2.6" fill="url(#gradient1)" fill-rule="evenodd" stroke="none"/>
    <path d="M3.65 0.55 Q4.8 0.85 4.7 2.05 L4.4 5.9 Q0.4 8.0 -4.0 7.15 L-3.15 5.6 Q0.2 6.6 3.3 5.2 L3.4 4.65 Q3.3 3.8 3.5 2.85 L3.45 1.9 3.65 0.55" fill="url(#gradient2)" fill-rule="evenodd" stroke="none"/>
    <path d="M-3.15 5.6 L-4.0 7.15 Q0.4 8.0 4.4 5.9 L4.7 2.05 Q4.8 0.85 3.65 0.55 L3.45 1.9 3.5 2.85 Q3.3 3.8 3.4 4.65 L3.3 5.2 Q0.2 6.6 -3.15 5.6 L-1.7 2.6 -0.35 0.35 3.65 0.55 M3.5 2.85 L1.35 2.8 1.05 3.15 0.35 3.85 0.1 3.75 -0.85 2.95 -0.85 2.85 -1.7 2.6" fill="none" stroke="#000000" stroke-linecap="round" stroke-linejoin="round" stroke-width="0.05"/>
  </g>
  <defs>
    <linearGradient gradientTransform="matrix(0.0029, 0.0, 0.0, 0.0055, 1.55, -7.65)" gradientUnits="userSpaceOnUse" id="gradient0" spreadMethod="pad" x1="-819.2" x2="819.2">
      <stop offset="0.0" stop-color="#35691f"/>
      <stop offset="0.4823529411764706" stop-color="#d9fdce"/>
      <stop offset="1.0" stop-color="#35691f"/>
    </linearGradient>
    <linearGradient gradientTransform="matrix(0.0034, 0.0, 0.0, 0.0055, 0.55, -9.0)" gradientUnits="userSpaceOnUse" id="gradient1" spreadMethod="pad" x1="-819.2" x2="819.2">
      <stop offset="0.0" stop-color="#35691f"/>
      <stop offset="0.4823529411764706" stop-color="#d9fdce"/>
      <stop offset="1.0" stop-color="#35691f"/>
    </linearGradient>
    <linearGradient gradientTransform="matrix(0.0061, 0.0, 0.0, 0.0055, 0.1, -10.1)" gradientUnits="userSpaceOnUse" id="gradient2" spreadMethod="pad" x1="-819.2" x2="819.2">
      <stop offset="0.0" stop-color="#afcf63"/>
      <stop offset="0.4823529411764706" stop-color="#ffffff"/>
      <stop offset="1.0" stop-color="#afcf63"/>
    </linearGradient>
  </defs>
</svg>
