<?xml version="1.0" encoding="UTF-8" standalone="no"?>
<svg xmlns:xlink="http://www.w3.org/1999/xlink" height="16.05px" width="11.2px" xmlns="http://www.w3.org/2000/svg">
  <g transform="matrix(1.0, 0.0, 0.0, 1.0, 0.0, 0.0)">
    <path d="M3.6 2.1 L3.4 3.6 3.6 2.1 M2.3 14.45 L0.65 14.35 Q0.4 13.1 0.3 10.9 L-0.2 5.2 Q-0.55 1.75 0.7 0.2 2.1 0.1 3.2 0.7 L2.65 2.7 Q2.1 4.65 1.9 6.55 L2.45 8.25 Q3.05 11.4 2.3 14.45 3.05 11.4 2.45 8.25 L1.9 6.55 Q2.1 4.65 2.65 2.7 L3.2 0.7 Q4.0 1.15 4.6 1.95 5.3 8.25 3.25 14.45 L2.3 14.45 M3.05 4.85 L2.7 6.05 3.05 4.85" fill="url(#gradient0)" fill-rule="evenodd" stroke="none"/>
    <path d="M3.4 3.6 L3.6 2.1 M3.2 0.7 Q2.1 0.1 0.7 0.2 -0.55 1.75 -0.2 5.2 L0.3 10.9 Q0.4 13.1 0.65 14.35 L2.3 14.45 Q3.05 11.4 2.45 8.25 L1.9 6.55 Q2.1 4.65 2.65 2.7 L3.2 0.7 Q4.0 1.15 4.6 1.95 5.3 8.25 3.25 14.45 L2.3 14.45 M2.7 6.05 L3.05 4.85" fill="none" stroke="#000000" stroke-linecap="round" stroke-linejoin="round" stroke-width="0.05"/>
    <path d="M2.6 0.4 L3.25 0.3 2.75 0.85 Q2.65 3.6 5.5 4.3 2.4 5.4 -0.95 4.85 L-1.2 4.6 -1.35 4.4 -0.6 4.0 0.3 4.3 3.5 4.0 3.8 3.95 3.15 3.4 Q2.05 2.25 2.3 0.7 2.05 2.25 3.15 3.4 L3.8 3.95 3.5 4.0 0.3 4.3 -0.6 4.0 -1.35 4.4 -1.4 4.2 -1.4 3.95 -1.2 3.3 -1.35 3.15 -2.0 2.85 -2.4 3.15 -3.3 2.65 -2.4 1.45 -3.15 0.9 -5.7 0.7 -4.7 -0.4 Q-3.05 -2.1 -1.15 -1.4 L-1.8 -1.1 -2.25 -0.7 -1.65 -0.4 -0.1 -0.6 Q0.05 -0.35 0.9 -0.1 L2.6 0.4 2.3 0.7 2.6 0.4 M-2.4 1.45 L-2.35 1.45 Q-0.5 2.65 1.7 2.8 L1.6 2.05 1.55 1.85 1.8 1.4 2.3 0.7 1.8 1.4 1.55 1.85 1.6 2.05 1.7 2.8 Q-0.5 2.65 -2.35 1.45 L-2.4 1.45 M-4.2 0.3 L-3.1 0.2 -2.25 0.7 Q-0.45 1.8 1.6 2.05 -0.45 1.8 -2.25 0.7 L-3.1 0.2 -4.2 0.3" fill="url(#gradient1)" fill-rule="evenodd" stroke="none"/>
    <path d="M-1.35 4.4 L-1.2 4.6 -0.95 4.85 Q2.4 5.4 5.5 4.3 2.65 3.6 2.75 0.85 L3.25 0.3 2.6 0.4 2.3 0.7 1.8 1.4 1.55 1.85 1.6 2.05 1.7 2.8 Q-0.5 2.65 -2.35 1.45 L-2.4 1.45 -3.15 0.9 -5.7 0.7 -4.7 -0.4 Q-3.05 -2.1 -1.15 -1.4 L-1.8 -1.1 -2.25 -0.7 -1.65 -0.4 -0.1 -0.6 Q0.05 -0.35 0.9 -0.1 L2.6 0.4 M-1.35 4.4 L-1.4 4.2 -1.4 3.95 -1.2 3.3 -1.35 3.15 -2.0 2.85 -2.4 3.15 -3.3 2.65 -2.4 1.45" fill="none" stroke="#000000" stroke-linecap="round" stroke-linejoin="round" stroke-width="0.05"/>
    <path d="M2.3 0.7 Q2.05 2.25 3.15 3.4 L3.8 3.95 3.5 4.0 0.3 4.3 -0.6 4.0 -1.35 4.4 M1.6 2.05 Q-0.45 1.8 -2.25 0.7 L-3.1 0.2 -4.2 0.3" fill="none" stroke="#ffff99" stroke-linecap="round" stroke-linejoin="round" stroke-width="0.05"/>
  </g>
  <defs>
    <linearGradient gradientTransform="matrix(0.0029, 0.0, 0.0, 0.0055, 1.55, -7.65)" gradientUnits="userSpaceOnUse" id="gradient0" spreadMethod="pad" x1="-819.2" x2="819.2">
      <stop offset="0.0" stop-color="#9f9f5b"/>
      <stop offset="0.4823529411764706" stop-color="#ffffe2"/>
      <stop offset="1.0" stop-color="#9f9f5b"/>
    </linearGradient>
    <linearGradient gradientTransform="matrix(0.0061, 6.0E-4, -5.0E-4, 0.0054, 1.65, -14.25)" gradientUnits="userSpaceOnUse" id="gradient1" spreadMethod="pad" x1="-819.2" x2="819.2">
      <stop offset="0.0" stop-color="#9f9f5b"/>
      <stop offset="0.4823529411764706" stop-color="#ffffe2"/>
      <stop offset="1.0" stop-color="#9f9f5b"/>
    </linearGradient>
  </defs>
</svg>
