<?xml version="1.0" encoding="UTF-8" standalone="no"?>
<svg xmlns:xlink="http://www.w3.org/1999/xlink" height="14.8px" width="3.6px" xmlns="http://www.w3.org/2000/svg">
  <g transform="matrix(1.0, 0.0, 0.0, 1.0, 0.0, 0.0)">
    <path d="M1.65 2.6 Q0.55 2.4 0.95 1.25 1.8 0.4 2.9 0.9 L3.25 1.6 3.4 1.65 Q4.1 1.5 4.15 2.15 2.8 4.8 3.3 7.85 3.75 10.8 4.35 13.65 4.75 15.7 3.65 14.95 L3.4 14.75 2.3 14.65 3.4 14.75 3.65 14.95 Q3.05 15.9 1.8 15.25 L1.65 15.1 Q1.7 14.6 2.2 14.6 2.9 11.85 2.1 9.05 1.25 6.1 1.55 3.15 L1.65 2.6 M2.3 14.65 L2.2 14.6 2.3 14.65" fill="#b49a6e" fill-rule="evenodd" stroke="none"/>
    <path d="M3.65 14.95 Q4.75 15.7 4.35 13.65 3.75 10.8 3.3 7.85 2.8 4.8 4.15 2.15 4.1 1.5 3.4 1.65 L3.25 1.6 2.9 0.9 Q1.8 0.4 0.95 1.25 0.55 2.4 1.65 2.6 M2.3 14.65 L3.4 14.75 3.65 14.95 Q3.05 15.9 1.8 15.25 L1.65 15.1 Q1.7 14.6 2.2 14.6" fill="none" stroke="#000000" stroke-linecap="round" stroke-linejoin="round" stroke-width="0.05"/>
    <path d="M1.65 2.6 L1.55 3.15 Q1.25 6.1 2.1 9.05 2.9 11.85 2.2 14.6 L2.3 14.65" fill="none" stroke="#000000" stroke-linecap="round" stroke-linejoin="round" stroke-width="0.05"/>
  </g>
</svg>
