<?xml version="1.0" encoding="UTF-8" standalone="no"?>
<svg xmlns:xlink="http://www.w3.org/1999/xlink" height="5.9px" width="9.75px" xmlns="http://www.w3.org/2000/svg">
  <g transform="matrix(1.0, 0.0, 0.0, 1.0, 0.0, 0.0)">
    <path d="M7.45 -0.05 L7.85 0.2 Q8.4 1.3 8.25 2.55 8.2 3.25 8.45 4.1 L7.25 4.15 Q5.7 5.15 3.85 5.65 -1.2 6.15 -1.3 3.55 0.3 5.7 2.5 3.0 L5.1 0.1 6.9 -0.15 7.45 -0.05 M5.75 2.05 Q4.55 2.8 4.2 3.85 L4.4 4.45 3.85 5.65 4.4 4.45 4.2 3.85 Q4.55 2.8 5.75 2.05 6.15 1.6 6.8 1.7 L7.15 1.9 6.8 1.7 Q6.15 1.6 5.75 2.05 L5.55 2.6 5.75 3.0 Q6.45 3.65 6.95 3.0 7.9 2.7 7.15 1.9 7.9 2.7 6.95 3.0 6.45 3.65 5.75 3.0 L5.55 2.6 5.75 2.05" fill="url(#gradient0)" fill-rule="evenodd" stroke="none"/>
    <path d="M7.45 -0.05 L7.85 0.2 Q8.4 1.3 8.25 2.55 8.2 3.25 8.45 4.1 L7.25 4.15 Q5.7 5.15 3.85 5.65 -1.2 6.15 -1.3 3.55 0.3 5.7 2.5 3.0 L5.1 0.1 6.9 -0.15 7.45 -0.05 M7.15 1.9 L6.8 1.7 Q6.15 1.6 5.75 2.05 L5.55 2.6 5.75 3.0 Q6.45 3.65 6.95 3.0 7.9 2.7 7.15 1.9 M3.85 5.65 L4.4 4.45 4.2 3.85 Q4.55 2.8 5.75 2.05" fill="none" stroke="#000000" stroke-linecap="round" stroke-linejoin="round" stroke-width="0.05"/>
  </g>
  <defs>
    <linearGradient gradientTransform="matrix(0.0038, 0.0025, -0.0033, 0.0029, 3.2, 2.6)" gradientUnits="userSpaceOnUse" id="gradient0" spreadMethod="pad" x1="-819.2" x2="819.2">
      <stop offset="0.0" stop-color="#896d29"/>
      <stop offset="0.32941176470588235" stop-color="#fff29a"/>
      <stop offset="0.7490196078431373" stop-color="#917d33"/>
      <stop offset="1.0" stop-color="#4b3623"/>
    </linearGradient>
  </defs>
</svg>
