<?xml version="1.0" encoding="UTF-8" standalone="no"?>
<svg xmlns:xlink="http://www.w3.org/1999/xlink" height="6.2px" width="7.45px" xmlns="http://www.w3.org/2000/svg">
  <g transform="matrix(1.0, 0.0, 0.0, 1.0, 0.0, 0.0)">
    <path d="M8.15 2.7 L8.35 3.55 7.9 4.0 6.75 3.7 Q6.4 3.9 6.1 4.2 L5.4 4.9 Q4.5 5.65 3.6 6.05 L2.2 6.25 0.9 4.85 Q1.3 4.3 2.15 4.15 L3.15 3.4 4.2 2.4 5.45 0.5 Q5.85 0.15 6.4 0.1 L7.55 0.05 7.8 0.8 8.15 2.7 M1.85 4.95 L2.5 4.65 2.15 4.15 2.5 4.65 1.85 4.95 M2.6 5.3 L2.9 5.2 2.5 4.65 4.0 3.45 4.85 2.65 4.2 2.4 4.85 2.65 4.0 3.45 2.5 4.65 2.9 5.2 2.6 5.3 M2.95 5.65 L2.9 5.2 4.3 4.25 5.6 2.95 6.4 3.6 5.6 2.95 4.3 4.25 2.9 5.2 2.95 5.65 M6.45 1.55 L5.6 2.95 4.85 2.65 5.3 2.0 5.45 1.65 5.3 2.0 4.85 2.65 5.6 2.95 6.45 1.55" fill="#3d2312" fill-rule="evenodd" stroke="none"/>
    <path d="M8.15 2.7 L8.35 3.55 7.9 4.0 6.75 3.7 Q6.4 3.9 6.1 4.2 L5.4 4.9 Q4.5 5.65 3.6 6.05 L2.2 6.25 0.9 4.85 Q1.3 4.3 2.15 4.15 L3.15 3.4 4.2 2.4 5.45 0.5 Q5.85 0.15 6.4 0.1 L7.55 0.05 7.8 0.8 8.15 2.7" fill="none" stroke="#000000" stroke-linecap="round" stroke-linejoin="round" stroke-width="0.05"/>
    <path d="M5.45 1.65 L5.3 2.0 4.85 2.65 5.6 2.95 6.45 1.55 M6.4 3.6 L5.6 2.95 4.3 4.25 2.9 5.2 2.95 5.65 M4.2 2.4 L4.85 2.65 4.0 3.45 2.5 4.65 2.9 5.2 2.6 5.3 M2.15 4.15 L2.5 4.65 1.85 4.95" fill="none" stroke="#000000" stroke-linecap="round" stroke-linejoin="round" stroke-width="0.05"/>
  </g>
</svg>
