<?xml version="1.0" encoding="UTF-8" standalone="no"?>
<svg xmlns:xlink="http://www.w3.org/1999/xlink" height="7.9px" width="12.0px" xmlns="http://www.w3.org/2000/svg">
  <g transform="matrix(1.0, 0.0, 0.0, 1.0, 0.0, 0.0)">
    <path d="M8.15 2.7 L8.35 3.55 7.9 4.0 6.75 3.7 Q6.4 3.9 6.1 4.2 L5.4 4.9 Q4.5 5.65 3.6 6.05 L2.2 6.25 0.9 4.85 Q1.3 4.3 2.15 4.15 L3.15 3.4 4.2 2.4 5.45 0.5 Q5.85 0.15 6.4 0.1 L7.55 0.05 7.8 0.8 8.15 2.7 M1.85 4.95 L2.5 4.65 2.15 4.15 2.5 4.65 1.85 4.95 M2.6 5.3 L2.9 5.2 2.5 4.65 4.0 3.45 4.85 2.65 4.2 2.4 4.85 2.65 4.0 3.45 2.5 4.65 2.9 5.2 2.6 5.3 M2.95 5.65 L2.9 5.2 4.3 4.25 5.6 2.95 6.4 3.6 5.6 2.95 4.3 4.25 2.9 5.2 2.95 5.65 M6.45 1.55 L5.6 2.95 4.85 2.65 5.3 2.0 5.45 1.65 5.3 2.0 4.85 2.65 5.6 2.95 6.45 1.55" fill="#000000" fill-rule="evenodd" stroke="none"/>
    <path d="M8.15 2.7 L8.35 3.55 7.9 4.0 6.75 3.7 Q6.4 3.9 6.1 4.2 L5.4 4.9 Q4.5 5.65 3.6 6.05 L2.2 6.25 0.9 4.85 Q1.3 4.3 2.15 4.15 L3.15 3.4 4.2 2.4 5.45 0.5 Q5.85 0.15 6.4 0.1 L7.55 0.05 7.8 0.8 8.15 2.7 M5.45 1.65 L5.3 2.0 4.85 2.65 5.6 2.95 6.45 1.55 M6.4 3.6 L5.6 2.95 4.3 4.25 2.9 5.2 2.95 5.65 M4.2 2.4 L4.85 2.65 4.0 3.45 2.5 4.65 2.9 5.2 2.6 5.3 M2.15 4.15 L2.5 4.65 1.85 4.95" fill="none" stroke="#ffffff" stroke-linecap="round" stroke-linejoin="round" stroke-width="0.05"/>
    <path d="M2.0 0.85 L1.1 0.9 Q0.55 0.35 0.95 -0.1 L4.1 -0.4 4.15 -0.25 4.0 2.3 5.95 3.25 8.5 2.6 8.75 2.55 8.95 2.9 9.0 3.15 9.0 3.5 Q8.7 4.3 7.75 4.8 L5.6 6.3 Q4.1 7.45 2.1 7.4 L0.45 6.9 Q0.1 5.75 0.5 4.75 L1.0 3.85 1.1 3.75 1.85 3.05 1.1 3.75 Q0.15 3.05 -0.9 3.2 L-1.0 3.2 -1.5 4.1 -2.05 4.4 -2.8 4.15 Q-3.35 3.05 -2.45 1.9 L-0.55 1.95 0.85 2.5 1.85 3.05 2.6 2.45 2.6 2.3 2.6 2.2 Q2.6 1.35 2.0 0.85 L3.05 0.55 2.0 0.85 M3.4 3.5 L4.0 2.3 3.4 3.5 M1.35 5.1 L1.1 4.8 1.05 4.7 0.5 4.75 1.05 4.7 1.1 4.8 1.35 5.1 M1.5 6.15 L1.35 6.3 1.15 6.5 1.35 6.3 1.5 6.15 1.05 5.85 1.5 6.15 1.7 5.85 1.5 6.15 1.55 6.15 1.7 6.25 2.0 6.35 1.7 6.25 1.55 6.15 1.5 6.15 M3.9 4.9 L3.65 4.45 3.25 4.4 Q2.65 4.6 2.75 5.2 2.65 4.6 3.25 4.4 L3.65 4.45 3.9 4.9" fill="#ffffff" fill-rule="evenodd" stroke="none"/>
    <path d="M4.0 2.3 L4.15 -0.25 4.1 -0.4 0.95 -0.1 Q0.55 0.35 1.1 0.9 L2.0 0.85 3.05 0.55 M0.5 4.75 Q0.1 5.75 0.45 6.9 L2.1 7.4 Q4.1 7.45 5.6 6.3 L7.75 4.8 Q8.7 4.3 9.0 3.5 L9.0 3.15 8.95 2.9 8.75 2.55 8.5 2.6 5.95 3.25 4.0 2.3 3.4 3.5 M2.0 0.85 Q2.6 1.35 2.6 2.2 L2.6 2.3 2.6 2.45 1.85 3.05 1.1 3.75 1.0 3.85 0.5 4.75 1.05 4.7 1.1 4.8 1.35 5.1 M1.85 3.05 L0.85 2.5 -0.55 1.95 -2.45 1.9 Q-3.35 3.05 -2.8 4.15 L-2.05 4.4 -1.5 4.1 -1.0 3.2 -0.9 3.2 Q0.15 3.05 1.1 3.75 M1.05 5.85 L1.5 6.15 1.7 5.85 M1.5 6.15 L1.55 6.15 1.7 6.25 2.0 6.35 M2.75 5.2 Q2.65 4.6 3.25 4.4 L3.65 4.45 3.9 4.9 M1.15 6.5 L1.35 6.3 1.5 6.15" fill="none" stroke="#000000" stroke-linecap="round" stroke-linejoin="round" stroke-width="0.05"/>
  </g>
</svg>
