<?xml version="1.0" encoding="UTF-8" standalone="no"?>
<svg xmlns:xlink="http://www.w3.org/1999/xlink" height="6.25px" width="7.5px" xmlns="http://www.w3.org/2000/svg">
  <g transform="matrix(1.0, 0.0, 0.0, 1.0, 0.0, 0.0)">
    <path d="M7.55 -0.1 L7.85 0.15 Q8.25 1.25 8.15 2.5 L8.3 4.05 7.4 4.1 Q6.2 5.1 4.8 5.6 L1.3 6.05 0.8 5.8 Q3.45 3.55 5.3 0.5 L5.75 0.05 7.1 -0.2 7.55 -0.1 M6.25 2.0 L6.1 2.55 6.25 2.95 7.15 2.95 Q7.9 2.65 7.3 1.85 L7.05 1.65 Q6.55 1.55 6.25 2.0 5.3 2.75 5.05 3.8 L5.2 4.4 4.8 5.6 5.2 4.4 5.05 3.8 Q5.3 2.75 6.25 2.0" fill="url(#gradient0)" fill-rule="evenodd" stroke="none"/>
    <path d="M6.25 2.0 Q6.55 1.55 7.05 1.65 L7.3 1.85 Q7.9 2.65 7.15 2.95 L6.25 2.95 6.1 2.55 6.25 2.0" fill="#ffffff" fill-rule="evenodd" stroke="none"/>
    <path d="M7.55 -0.1 L7.85 0.15 Q8.25 1.25 8.15 2.5 L8.3 4.05 7.4 4.1 Q6.2 5.1 4.8 5.6 L1.3 6.05 0.8 5.8 Q3.45 3.55 5.3 0.5 L5.75 0.05 7.1 -0.2 7.55 -0.1 M6.25 2.0 L6.1 2.55 6.25 2.95 7.15 2.95 Q7.9 2.65 7.3 1.85 L7.05 1.65 Q6.55 1.55 6.25 2.0 5.3 2.75 5.05 3.8 L5.2 4.4 4.8 5.6" fill="none" stroke="#000000" stroke-linecap="round" stroke-linejoin="round" stroke-width="0.05"/>
  </g>
  <defs>
    <linearGradient gradientTransform="matrix(0.0029, 0.0025, -0.0025, 0.0029, 4.3, 2.55)" gradientUnits="userSpaceOnUse" id="gradient0" spreadMethod="pad" x1="-819.2" x2="819.2">
      <stop offset="0.0" stop-color="#9f9f5b"/>
      <stop offset="0.4823529411764706" stop-color="#ffffe2"/>
      <stop offset="1.0" stop-color="#9f9f5b"/>
    </linearGradient>
  </defs>
</svg>
