<?xml version="1.0" encoding="UTF-8" standalone="no"?>
<svg xmlns:xlink="http://www.w3.org/1999/xlink" height="6.45px" width="7.15px" xmlns="http://www.w3.org/2000/svg">
  <g transform="matrix(1.0, 0.0, 0.0, 1.0, 0.0, 0.0)">
    <path d="M5.45 -0.2 L7.2 -0.45 Q7.8 -0.6 8.1 0.65 L8.4 3.25 Q4.55 4.0 4.6 5.75 L4.15 5.8 4.0 5.9 3.95 5.95 3.85 6.0 2.9 5.55 2.7 5.8 2.6 5.75 2.35 5.7 2.1 5.25 1.9 5.35 1.8 5.4 1.7 5.35 1.6 5.1 1.45 5.05 1.25 5.0 1.3 4.35 1.75 4.15 Q2.85 4.4 3.25 3.25 3.65 2.05 5.05 0.8 L5.45 -0.2" fill="#333333" fill-rule="evenodd" stroke="none"/>
    <path d="M5.45 -0.2 L5.05 0.8 Q3.65 2.05 3.25 3.25 2.85 4.4 1.75 4.15 L1.3 4.35 1.25 5.0 1.45 5.05 1.6 5.1 1.7 5.35 1.8 5.4 1.9 5.35 2.1 5.25 2.35 5.7 2.6 5.75 2.7 5.8 2.9 5.55 3.85 6.0 3.95 5.95 4.0 5.9 4.15 5.8 4.6 5.75 Q4.55 4.0 8.4 3.25 L8.1 0.65 Q7.8 -0.6 7.2 -0.45" fill="none" stroke="#000000" stroke-linecap="round" stroke-linejoin="round" stroke-width="0.05"/>
  </g>
</svg>
