<?xml version="1.0" encoding="UTF-8" standalone="no"?>
<svg xmlns:xlink="http://www.w3.org/1999/xlink" height="7.5px" width="9.2px" xmlns="http://www.w3.org/2000/svg">
  <g transform="matrix(1.0, 0.0, 0.0, 1.0, 0.0, 0.0)">
    <path d="M5.15 -0.15 L7.75 -0.5 Q8.95 2.2 8.85 4.5 L8.8 4.45 7.85 3.45 7.6 3.4 Q6.65 3.45 5.85 4.0 L5.65 3.3 5.35 2.9 Q4.8 2.2 3.85 2.2 4.8 2.2 5.35 2.9 L5.65 3.3 5.85 4.0 Q6.65 3.45 7.6 3.4 L7.85 3.45 8.8 4.45 8.85 4.5 8.8 4.9 Q5.0 6.9 2.85 7.0 L1.1 6.65 0.95 6.6 Q0.25 6.15 -0.15 5.35 L0.35 4.85 0.55 5.0 1.45 4.9 1.7 4.65 1.25 4.45 0.95 4.2 0.95 4.15 3.1 2.45 3.85 2.2 3.95 2.1 4.35 1.35 5.15 -0.15 M3.75 5.9 L3.45 5.7 3.3 5.6 3.2 5.85 2.9 6.05 2.4 5.9 2.25 6.55 1.5 5.9 1.15 6.5 1.1 6.65 1.15 6.5 1.5 5.9 2.25 6.55 2.4 5.9 2.9 6.05 3.2 5.85 3.3 5.6 3.45 5.7 3.75 5.9 M3.7 4.5 L4.6 4.4 Q5.35 4.15 5.1 3.5 L4.7 3.7 3.35 4.3 3.7 4.5" fill="url(#gradient0)" fill-rule="evenodd" stroke="none"/>
    <path d="M0.95 4.2 L1.25 4.45 1.7 4.65 1.45 4.9 0.55 5.0 0.35 4.85 -0.25 3.7 -0.35 3.35 Q-0.5 2.3 0.35 1.85 L0.3 2.0 0.2 2.55 Q0.25 3.45 0.9 4.15 L0.95 4.2 M3.7 4.5 L3.35 4.3 4.7 3.7 5.1 3.5 Q5.35 4.15 4.6 4.4 L3.7 4.5" fill="#2b2111" fill-rule="evenodd" stroke="none"/>
    <path d="M5.15 -0.15 L4.35 1.35 3.95 2.1 3.85 2.2 3.1 2.45 0.95 4.15 0.95 4.2 M8.85 4.5 Q8.95 2.2 7.75 -0.5 M1.1 6.65 L2.85 7.0 Q5.0 6.9 8.8 4.9 L8.85 4.5 M0.35 4.85 L-0.15 5.35 Q0.25 6.15 0.95 6.6" fill="none" stroke="#000000" stroke-linecap="round" stroke-linejoin="round" stroke-width="0.05"/>
    <path d="M3.85 2.2 Q4.8 2.2 5.35 2.9 L5.65 3.3 5.85 4.0 Q6.65 3.45 7.6 3.4 L7.85 3.45 8.8 4.45 8.85 4.5 M0.95 4.2 L1.25 4.45 1.7 4.65 1.45 4.9 0.55 5.0 0.35 4.85 -0.25 3.7 -0.35 3.35 Q-0.5 2.3 0.35 1.85 L0.3 2.0 0.2 2.55 Q0.25 3.45 0.9 4.15 L0.95 4.2 M0.95 6.6 L1.1 6.65 1.15 6.5 1.5 5.9 2.25 6.55 2.4 5.9 2.9 6.05 3.2 5.85 3.3 5.6 3.45 5.7 3.75 5.9 M3.7 4.5 L3.35 4.3 4.7 3.7 5.1 3.5 Q5.35 4.15 4.6 4.4 L3.7 4.5 Z" fill="none" stroke="#000000" stroke-linecap="round" stroke-linejoin="round" stroke-width="0.05"/>
  </g>
  <defs>
    <linearGradient gradientTransform="matrix(0.0032, 0.0054, -0.004, 0.0024, 2.05, 4.3)" gradientUnits="userSpaceOnUse" id="gradient0" spreadMethod="pad" x1="-819.2" x2="819.2">
      <stop offset="0.0" stop-color="#564036"/>
      <stop offset="0.5137254901960784" stop-color="#a38a6d"/>
      <stop offset="1.0" stop-color="#564036"/>
    </linearGradient>
  </defs>
</svg>
