<?xml version="1.0" encoding="UTF-8" standalone="no"?>
<svg xmlns:xlink="http://www.w3.org/1999/xlink" height="15.85px" width="4.8px" xmlns="http://www.w3.org/2000/svg">
  <g transform="matrix(1.0, 0.0, 0.0, 1.0, 0.0, 0.0)">
    <path d="M3.55 0.4 L4.15 0.85 4.1 2.05 4.2 3.8 4.25 5.3 4.25 7.25 Q4.2 8.2 4.45 9.05 L4.6 10.75 4.65 11.85 4.7 12.85 4.8 14.6 4.75 15.05 2.65 16.15 Q1.85 16.05 1.15 15.65 L0.6 15.35 Q0.45 14.55 0.6 13.7 L0.75 11.85 0.7 9.95 0.6 8.55 0.5 7.15 0.25 5.65 0.1 4.65 0.1 4.35 0.0 2.55 0.05 0.9 0.1 0.3 3.55 0.4 M2.55 15.1 L2.4 13.8 2.25 12.35 2.2 10.75 2.1 9.1 2.0 7.15 1.9 5.4 1.9 4.2 1.95 2.45 2.0 1.15 1.95 2.45 1.9 4.2 1.9 5.4 2.0 7.15 2.1 9.1 2.2 10.75 2.25 12.35 2.4 13.8 2.55 15.1" fill="#3d2312" fill-rule="evenodd" stroke="none"/>
    <path d="M4.15 0.85 L4.1 2.05 4.2 3.8 4.25 5.3 4.25 7.25 Q4.2 8.2 4.45 9.05 L4.6 10.75 4.65 11.85 4.7 12.85 4.8 14.6 4.75 15.05 2.65 16.15 Q1.85 16.05 1.15 15.65 L0.6 15.35 Q0.45 14.55 0.6 13.7 L0.75 11.85 0.7 9.95 0.6 8.55 0.5 7.15 0.25 5.65 0.1 4.65 0.1 4.35 0.0 2.55 0.05 0.9 0.1 0.3" fill="none" stroke="#000000" stroke-linecap="round" stroke-linejoin="round" stroke-width="0.05"/>
    <path d="M3.55 0.4 L4.15 0.85 M2.0 1.15 L1.95 2.45 1.9 4.2 1.9 5.4 2.0 7.15 2.1 9.1 2.2 10.75 2.25 12.35 2.4 13.8 2.55 15.1" fill="none" stroke="#000000" stroke-linecap="round" stroke-linejoin="round" stroke-width="0.05"/>
  </g>
</svg>
