<?xml version="1.0" encoding="UTF-8" standalone="no"?>
<svg xmlns:xlink="http://www.w3.org/1999/xlink" height="14.95px" width="3.9px" xmlns="http://www.w3.org/2000/svg">
  <g transform="matrix(1.0, 0.0, 0.0, 1.0, 0.0, 0.0)">
    <path d="M3.5 12.85 L3.5 12.45 3.5 12.85" fill="#474260" fill-rule="evenodd" stroke="none"/>
    <path d="M3.5 12.45 L3.45 11.8 3.5 11.8 3.5 12.45" fill="#546549" fill-rule="evenodd" stroke="none"/>
    <path d="M1.15 14.4 L1.15 13.7 1.6 13.4 1.8 12.05 1.85 11.8 1.75 11.3 1.6 9.95 1.6 9.5 1.5 8.55 1.4 7.6 1.2 6.75 1.05 6.3 0.85 5.25 0.85 5.05 0.7 4.3 0.6 3.6 0.4 1.65 Q0.3 0.6 0.6 -0.2 1.75 -0.1 3.05 1.0 L3.1 1.35 3.6 2.75 4.1 3.85 4.25 5.4 4.1 7.3 3.8 8.9 3.45 10.85 3.45 11.8 3.5 12.45 3.5 12.85 3.6 13.1 4.15 14.35 Q3.3 14.85 2.25 14.7 L1.75 14.75 1.15 14.4" fill="#433c30" fill-rule="evenodd" stroke="none"/>
    <path d="M0.6 -0.2 Q0.3 0.6 0.4 1.65 L0.6 3.6 0.7 4.3 0.85 5.05 0.85 5.25 1.05 6.3 1.2 6.75 1.4 7.6 1.5 8.55 1.6 9.5 1.6 9.95 1.75 11.3 1.85 11.8 1.8 12.05 1.6 13.4 1.15 13.7 1.15 14.4 M4.15 14.35 L3.6 13.1 3.5 12.85 3.5 12.45 3.45 11.8 3.45 10.85 3.8 8.9 4.1 7.3 4.25 5.4 4.1 3.85 3.6 2.75 3.1 1.35 3.05 1.0 M3.5 12.85 L3.5 12.45" fill="none" stroke="#000000" stroke-linecap="round" stroke-linejoin="round" stroke-width="0.05"/>
  </g>
</svg>
