<?xml version="1.0" encoding="UTF-8" standalone="no"?>
<svg xmlns:xlink="http://www.w3.org/1999/xlink" height="16.7px" width="8.45px" xmlns="http://www.w3.org/2000/svg">
  <g transform="matrix(1.0, 0.0, 0.0, 1.0, 0.0, 0.0)">
    <path d="M-1.7 3.65 Q-1.05 1.6 0.2 -0.15 2.85 0.1 5.05 1.4 L5.35 2.4 5.35 2.5 5.4 2.55 5.4 3.0 Q4.9 5.75 6.0 8.05 L5.25 8.0 4.4 8.0 3.3 7.2 Q1.6 5.9 -0.5 6.45 L-2.45 6.75 -2.05 4.8 -1.7 3.65 0.25 3.45 -1.7 3.65 M-2.05 4.8 L2.15 4.5 3.3 5.4 4.45 6.45 3.3 5.4 2.15 4.5 -2.05 4.8" fill="url(#gradient0)" fill-rule="evenodd" stroke="none"/>
    <path d="M-0.5 6.45 Q1.6 5.9 3.3 7.2 L4.4 8.0 5.25 8.0 Q4.9 9.25 5.4 10.35 L5.7 10.95 4.35 10.7 3.9 11.9 Q2.95 13.9 3.0 16.0 L1.4 16.35 0.5 16.55 0.4 14.95 Q0.1 12.7 0.35 10.45 L-0.55 10.75 Q-0.15 8.6 -0.5 6.45 M4.35 10.7 L0.35 10.45 4.35 10.7" fill="url(#gradient1)" fill-rule="evenodd" stroke="none"/>
    <path d="M5.25 8.0 L6.0 8.05 Q4.9 5.75 5.4 3.0 L5.4 2.55 5.35 2.5 5.35 2.4 5.05 1.4 Q2.85 0.1 0.2 -0.15 -1.05 1.6 -1.7 3.65 L0.25 3.45 M5.4 2.55 L5.35 2.4 M4.45 6.45 L3.3 5.4 2.15 4.5 -2.05 4.8 -2.45 6.75 -0.5 6.45 Q1.6 5.9 3.3 7.2 L4.4 8.0 5.25 8.0 Q4.9 9.25 5.4 10.35 L5.7 10.95 4.35 10.7 3.9 11.9 Q2.95 13.9 3.0 16.0 L1.4 16.35 0.5 16.55 0.4 14.95 Q0.1 12.7 0.35 10.45 L-0.55 10.75 Q-0.15 8.6 -0.5 6.45 M0.35 10.45 L4.35 10.7 M-1.7 3.65 L-2.05 4.8" fill="none" stroke="#000000" stroke-linecap="round" stroke-linejoin="round" stroke-width="0.05"/>
  </g>
  <defs>
    <linearGradient gradientTransform="matrix(0.0033, 0.0, 0.0, 0.0055, 1.8, -2.0)" gradientUnits="userSpaceOnUse" id="gradient0" spreadMethod="pad" x1="-819.2" x2="819.2">
      <stop offset="0.0" stop-color="#afcf63"/>
      <stop offset="0.4823529411764706" stop-color="#ffffff"/>
      <stop offset="1.0" stop-color="#afcf63"/>
    </linearGradient>
    <linearGradient gradientTransform="matrix(0.0025, 1.0E-4, -2.0E-4, 0.0055, 2.3, -9.7)" gradientUnits="userSpaceOnUse" id="gradient1" spreadMethod="pad" x1="-819.2" x2="819.2">
      <stop offset="0.0" stop-color="#35691f"/>
      <stop offset="0.4823529411764706" stop-color="#d9fdce"/>
      <stop offset="1.0" stop-color="#35691f"/>
    </linearGradient>
  </defs>
</svg>
