<?xml version="1.0" encoding="UTF-8" standalone="no"?>
<svg xmlns:xlink="http://www.w3.org/1999/xlink" height="15.05px" width="7.05px" xmlns="http://www.w3.org/2000/svg">
  <g transform="matrix(1.0, 0.0, 0.0, 1.0, 0.0, 0.0)">
    <path d="M0.45 6.05 Q-0.55 6.0 -0.7 4.9 L-0.85 2.4 Q-0.85 1.0 0.0 -0.05 L0.5 -0.25 0.95 -0.35 1.95 -0.3 Q3.3 -0.5 4.1 0.6 5.9 3.0 6.2 6.0 L4.45 6.25 0.45 6.05 4.45 6.25 4.0 12.3 4.0 14.1 Q2.7 15.1 1.25 14.5 L1.0 14.4 0.95 12.75 Q1.3 10.0 0.7 7.25 L0.45 6.05" fill="#29271f" fill-rule="evenodd" stroke="none"/>
    <path d="M4.45 6.25 L4.0 12.3 M0.95 12.75 Q1.3 10.0 0.7 7.25 L0.45 6.05" fill="none" stroke="#000000" stroke-linecap="round" stroke-linejoin="round" stroke-width="0.05"/>
    <path d="M4.45 6.25 L6.2 6.0 Q5.9 3.0 4.1 0.6 3.3 -0.5 1.95 -0.3 L0.95 -0.35 0.5 -0.25 0.0 -0.05 Q-0.85 1.0 -0.85 2.4 L-0.7 4.9 Q-0.55 6.0 0.45 6.05 L4.45 6.25 M4.0 12.3 L4.0 14.1 M1.0 14.4 L0.95 12.75" fill="none" stroke="#000000" stroke-linecap="round" stroke-linejoin="round" stroke-width="0.05"/>
  </g>
</svg>
