<?xml version="1.0" encoding="UTF-8" standalone="no"?>
<svg xmlns:xlink="http://www.w3.org/1999/xlink" height="19.3px" width="6.5px" xmlns="http://www.w3.org/2000/svg">
  <g transform="matrix(1.0, 0.0, 0.0, 1.0, 0.0, 0.0)">
    <path d="M3.4 2.0 L3.9 2.85 Q4.65 4.35 4.55 6.2 L4.3 7.7 4.2 8.05 Q3.5 11.15 3.75 12.5 L2.05 12.5 1.2 5.45 1.0 3.65 1.45 2.85 2.05 2.75 2.3 2.15 3.4 2.0 M3.7 6.0 L4.2 6.2 4.55 6.2 4.2 6.2 3.7 6.0 3.45 7.35 4.2 8.05 3.45 7.35 3.7 6.0 2.9 4.95 3.7 6.0 M3.9 2.85 Q3.5 2.85 3.2 3.5 2.9 4.1 2.9 4.95 L2.5 5.05 1.2 5.45 2.5 5.05 2.9 4.95 Q2.9 4.1 3.2 3.5 3.5 2.85 3.9 2.85" fill="url(#gradient0)" fill-rule="evenodd" stroke="none"/>
    <path d="M-0.4 1.95 L-0.15 1.35 Q0.1 1.05 0.45 1.05 0.8 1.05 1.05 1.35 L1.3 1.95 1.05 2.6 0.45 2.85 -0.15 2.6 -0.4 1.95" fill="#ffffff" fill-rule="evenodd" stroke="none"/>
    <path d="M-1.0 -0.6 L-1.15 -0.2 -1.25 0.3 -1.15 0.75 -0.35 0.65 -0.25 -1.05 -0.3 -2.75 -0.65 -3.0 -0.2 -3.5 -0.1 -3.75 0.15 -4.0 0.45 -4.0 0.55 -3.85 0.5 -3.65 0.55 -3.5 0.7 -3.35 1.05 -3.0 0.95 -2.9 0.8 -2.75 0.65 -1.05 0.75 0.55 1.25 0.65 1.45 0.45 1.75 0.05 1.85 -0.45 1.7 -1.05 2.5 -0.7 2.45 0.45 3.65 0.2 3.8 0.6 3.9 1.65 3.4 2.0 2.3 2.15 2.05 2.75 1.45 2.85 1.0 3.65 1.2 5.45 2.05 12.5 3.75 12.5 4.5 11.9 4.65 13.0 4.25 13.4 4.4 14.75 Q3.25 15.7 1.3 15.05 L1.15 14.75 Q1.15 14.2 1.3 13.7 0.6 13.25 0.9 12.5 L1.05 12.25 Q0.9 9.0 0.25 5.7 L-0.25 3.45 -1.15 2.55 -1.8 1.25 Q-2.1 0.0 -1.1 -0.65 L-1.0 -0.6 M-0.4 1.95 L-0.15 2.6 0.45 2.85 1.05 2.6 1.3 1.95 1.05 1.35 Q0.8 1.05 0.45 1.05 0.1 1.05 -0.15 1.35 L-0.4 1.95 M2.3 2.15 L2.05 1.4 2.45 0.45 2.05 1.4 2.3 2.15 M3.85 13.7 L4.25 13.4 4.2 13.25 3.85 13.7 Q3.5 14.05 2.8 14.0 L1.3 13.7 2.8 14.0 Q3.5 14.05 3.85 13.7 M1.05 12.25 L2.05 12.5 1.05 12.25" fill="url(#gradient1)" fill-rule="evenodd" stroke="none"/>
    <path d="M-1.0 -0.6 L-1.15 -0.2 -1.25 0.3 -1.15 0.75 -0.35 0.65 -0.25 -1.05 -0.3 -2.75 -0.65 -3.0 -0.2 -3.5 -0.1 -3.75 0.15 -4.0 0.45 -4.0 0.55 -3.85 0.5 -3.65 0.55 -3.5 0.7 -3.35 1.05 -3.0 0.95 -2.9 0.8 -2.75 0.65 -1.05 0.75 0.55 1.25 0.65 1.45 0.45 1.75 0.05 1.85 -0.45 1.7 -1.05 2.5 -0.7 2.45 0.45 3.65 0.2 3.8 0.6 3.9 1.65 3.4 2.0 3.9 2.85 Q4.65 4.35 4.55 6.2 L4.3 7.7 4.2 8.05 Q3.5 11.15 3.75 12.5 L4.5 11.9 4.65 13.0 4.25 13.4 4.4 14.75 Q3.25 15.7 1.3 15.05 L1.15 14.75 Q1.15 14.2 1.3 13.7 0.6 13.25 0.9 12.5 L1.05 12.25 Q0.9 9.0 0.25 5.7 L-0.25 3.45 -1.15 2.55 -1.8 1.25 Q-2.1 0.0 -1.1 -0.65 L-0.8 -0.85 -1.0 -0.6 M-0.4 1.95 L-0.15 1.35 Q0.1 1.05 0.45 1.05 0.8 1.05 1.05 1.35 L1.3 1.95 1.05 2.6 0.45 2.85 -0.15 2.6 -0.4 1.95 M2.45 0.45 L2.05 1.4 2.3 2.15 3.4 2.0 M2.3 2.15 L2.05 2.75 1.45 2.85 1.0 3.65 1.2 5.45 2.05 12.5 3.75 12.5 M3.85 13.7 L4.2 13.25 4.25 13.4 3.85 13.7 Q3.5 14.05 2.8 14.0 L1.3 13.7 M2.05 12.5 L1.05 12.25" fill="none" stroke="#000000" stroke-linecap="round" stroke-linejoin="round" stroke-width="0.05"/>
    <path d="M1.2 5.45 L2.5 5.05 2.9 4.95 Q2.9 4.1 3.2 3.5 3.5 2.85 3.9 2.85 M4.2 8.05 L3.45 7.35 3.7 6.0 2.9 4.95 M4.55 6.2 L4.2 6.2 3.7 6.0" fill="none" stroke="#ffff99" stroke-linecap="round" stroke-linejoin="round" stroke-width="0.05"/>
  </g>
  <defs>
    <linearGradient gradientTransform="matrix(0.0028, 0.0, 0.0, 0.0021, 2.15, 1.3)" gradientUnits="userSpaceOnUse" id="gradient0" spreadMethod="pad" x1="-819.2" x2="819.2">
      <stop offset="0.0" stop-color="#9f9f5b"/>
      <stop offset="0.4823529411764706" stop-color="#ffffe2"/>
      <stop offset="1.0" stop-color="#9f9f5b"/>
    </linearGradient>
    <linearGradient gradientTransform="matrix(0.0036, -4.0E-4, 0.001, 0.01, 1.05, 3.9)" gradientUnits="userSpaceOnUse" id="gradient1" spreadMethod="pad" x1="-819.2" x2="819.2">
      <stop offset="0.0" stop-color="#d8cb2c"/>
      <stop offset="0.5450980392156862" stop-color="#ffffff"/>
      <stop offset="1.0" stop-color="#d7ca33"/>
    </linearGradient>
  </defs>
</svg>
