<?xml version="1.0" encoding="UTF-8" standalone="no"?>
<svg xmlns:xlink="http://www.w3.org/1999/xlink" height="19.2px" width="10.25px" xmlns="http://www.w3.org/2000/svg">
  <g transform="matrix(1.0, 0.0, 0.0, 1.0, 0.0, 0.0)">
    <path d="M2.45 2.3 L2.95 2.7 2.7 1.75 2.7 1.2 Q4.95 2.55 5.55 4.95 L5.65 5.15 Q5.0 6.1 4.8 7.3 L4.8 7.6 4.9 10.05 4.35 11.3 4.7 11.7 Q3.95 12.8 4.85 13.75 L3.15 14.4 Q1.55 12.95 1.45 10.6 1.4 8.8 1.7 6.9 1.85 5.7 2.85 5.6 3.1 5.45 3.0 5.05 L2.45 2.3 M3.95 8.05 L4.8 7.6 3.95 8.05 M1.15 4.7 L1.25 5.5 0.85 6.2 0.6 5.9 Q0.0 4.75 0.35 3.65 0.95 3.5 1.15 4.7 M2.55 8.35 L4.6 6.85 2.55 8.35 M-0.25 6.15 Q0.45 7.95 0.25 10.0 L0.05 12.35 -1.35 13.25 -1.8 13.6 Q-1.7 12.05 -0.65 10.7 L-0.3 9.8 -0.25 6.15" fill="url(#gradient0)" fill-rule="evenodd" stroke="none"/>
    <path d="M-1.15 0.3 L-0.95 0.0 -0.65 -0.2 -0.35 -0.5 0.0 -0.75 0.35 -0.7 2.05 -0.5 Q2.75 -0.55 3.3 -0.85 L3.4 -0.95 3.8 -1.2 Q4.85 -0.55 5.8 0.0 L7.2 1.4 Q8.1 2.5 8.45 3.65 L6.9 3.3 6.7 2.95 6.55 2.7 6.45 2.6 5.75 2.15 5.9 2.4 Q7.05 4.15 7.25 6.1 L5.65 5.15 5.55 4.95 Q4.95 2.55 2.7 1.2 L2.7 1.75 2.95 2.7 2.45 2.3 3.0 5.05 Q3.1 5.45 2.85 5.6 1.85 5.7 1.7 6.9 1.4 8.8 1.45 10.6 1.55 12.95 3.15 14.4 L4.85 13.75 Q3.95 12.8 4.7 11.7 L4.35 11.3 4.9 10.05 4.9 10.35 5.0 10.5 5.85 10.95 Q6.6 11.3 6.85 12.1 L6.7 12.05 6.05 11.8 5.35 11.55 6.35 12.45 Q7.6 13.55 7.9 15.45 L7.95 16.55 7.55 15.1 6.4 14.4 5.35 14.0 Q6.4 14.85 6.45 16.4 L6.2 18.0 Q6.4 16.2 4.75 15.6 L4.1 15.65 3.75 15.6 Q3.25 15.25 2.7 15.25 L1.55 15.1 Q1.0 15.0 0.4 15.35 L0.3 14.95 -0.15 15.25 -1.15 16.4 Q-1.35 15.6 -1.05 14.8 L-0.4 13.45 0.15 12.3 0.05 12.35 0.25 10.0 Q0.45 7.95 -0.25 6.15 L-0.6 4.4 -0.6 3.85 -0.65 3.45 -0.65 3.0 -0.75 1.2 -1.1 0.95 -1.15 0.3 M-0.4 1.35 L-0.65 3.0 -0.4 1.35 M2.0 1.5 L2.45 2.3 2.0 1.5 M1.15 4.7 Q0.95 3.5 0.35 3.65 0.0 4.75 0.6 5.9 L0.85 6.2 1.25 5.5 1.15 4.7" fill="url(#gradient1)" fill-rule="evenodd" stroke="none"/>
    <path d="M5.65 5.15 L7.25 6.1 Q7.05 4.15 5.9 2.4 L5.75 2.15 6.45 2.6 6.55 2.7 6.7 2.95 6.9 3.3 8.45 3.65 Q8.1 2.5 7.2 1.4 L5.8 0.0 Q4.85 -0.55 3.8 -1.2 L3.4 -0.95 3.3 -0.85 Q2.75 -0.55 2.05 -0.5 L0.35 -0.7 0.0 -0.75 -0.35 -0.5 -0.65 -0.2 -0.95 0.0 -1.15 0.3 M5.65 5.15 L5.55 4.95 Q4.95 2.55 2.7 1.2 L2.7 1.75 2.95 2.7 2.45 2.3 2.0 1.5" fill="none" stroke="#000000" stroke-linecap="round" stroke-linejoin="round" stroke-width="0.05"/>
    <path d="M-1.15 0.3 L-1.1 0.95 -0.75 1.2 -0.65 3.0 -0.4 1.35 M2.45 2.3 L3.0 5.05 Q3.1 5.45 2.85 5.6 1.85 5.7 1.7 6.9 1.4 8.8 1.45 10.6 1.55 12.95 3.15 14.4 L4.85 13.75 Q3.95 12.8 4.7 11.7 L4.35 11.3 4.9 10.05 4.8 7.6 3.95 8.05 M1.15 4.7 L1.25 5.5 0.85 6.2 0.6 5.9 Q0.0 4.75 0.35 3.65 0.95 3.5 1.15 4.7 M4.8 7.6 L4.8 7.3 Q5.0 6.1 5.65 5.15 M4.6 6.85 L2.55 8.35 M-0.25 6.15 Q0.45 7.95 0.25 10.0 L0.05 12.35 0.15 12.3 -0.4 13.45 -1.05 14.8 Q-1.35 15.6 -1.15 16.4 L-0.15 15.25 0.3 14.95 0.4 15.35 Q1.0 15.0 1.55 15.1 L2.7 15.25 Q3.25 15.25 3.75 15.6 L4.1 15.65 4.75 15.6 Q6.4 16.2 6.2 18.0 L6.45 16.4 Q6.4 14.85 5.35 14.0 L6.4 14.4 7.55 15.1 7.95 16.55 7.9 15.45 Q7.6 13.55 6.35 12.45 L5.35 11.55 6.05 11.8 6.7 12.05 6.85 12.1 Q6.6 11.3 5.85 10.95 L5.0 10.5 4.9 10.35 4.9 10.05 M-0.65 3.0 L-0.65 3.45 -0.6 3.85 -0.6 4.4 -0.25 6.15 -0.3 9.8 -0.65 10.7 Q-1.7 12.05 -1.8 13.6 L-1.35 13.25 0.05 12.35 M-0.65 3.45 L-0.6 4.4" fill="none" stroke="#000000" stroke-linecap="round" stroke-linejoin="round" stroke-width="0.05"/>
  </g>
  <defs>
    <linearGradient gradientTransform="matrix(0.0063, 0.0, 0.0, 0.0047, 4.6, 5.85)" gradientUnits="userSpaceOnUse" id="gradient0" spreadMethod="pad" x1="-819.2" x2="819.2">
      <stop offset="0.0" stop-color="#564036"/>
      <stop offset="0.5137254901960784" stop-color="#a38a6d"/>
      <stop offset="1.0" stop-color="#564036"/>
    </linearGradient>
    <linearGradient gradientTransform="matrix(0.0063, 0.0, 0.0, 0.0047, 4.6, 5.85)" gradientUnits="userSpaceOnUse" id="gradient1" spreadMethod="pad" x1="-819.2" x2="819.2">
      <stop offset="0.0" stop-color="#564036"/>
      <stop offset="0.5137254901960784" stop-color="#aa9960"/>
      <stop offset="1.0" stop-color="#564036"/>
    </linearGradient>
  </defs>
</svg>
