<?xml version="1.0" encoding="UTF-8" standalone="no"?>
<svg xmlns:xlink="http://www.w3.org/1999/xlink" height="14.45px" width="3.05px" xmlns="http://www.w3.org/2000/svg">
  <g transform="matrix(1.0, 0.0, 0.0, 1.0, 0.0, 0.0)">
    <path d="M2.3 1.0 L2.8 0.65 3.1 0.6 3.45 0.65 3.85 1.55 4.15 2.7 4.2 3.85 4.3 5.8 4.35 7.0 4.35 8.35 4.3 9.65 4.05 11.55 3.9 13.4 3.65 12.3 3.9 13.4 Q4.2 14.1 4.05 15.0 L3.6 15.05 1.85 15.0 1.85 14.5 Q2.0 13.65 2.4 12.9 L2.6 12.05 2.45 10.65 2.4 9.95 2.25 8.95 2.0 7.1 1.75 5.2 Q1.45 3.1 1.3 1.0 L1.45 0.75 Q2.05 0.4 2.3 1.0 L2.5 1.5 2.3 1.0 M3.65 12.3 L3.65 11.0 3.7 9.25 3.7 7.3 3.6 6.15 3.4 4.25 3.4 3.3 Q3.35 2.35 2.7 1.65 L2.5 1.5 2.6 2.5 2.65 3.8 2.7 5.5 2.8 7.3 3.1 9.2 3.4 11.1 3.65 12.3" fill="#b49a6e" fill-rule="evenodd" stroke="none"/>
    <path d="M2.3 1.0 L2.5 1.5 2.6 2.5 2.65 3.8 2.7 5.5 2.8 7.3 3.1 9.2 3.4 11.1 3.65 12.3 3.9 13.4 Q4.2 14.1 4.05 15.0 L3.6 15.05 1.85 15.0 1.85 14.5 Q2.0 13.65 2.4 12.9 L2.6 12.05 2.45 10.65 2.4 9.95 2.25 8.95 2.0 7.1 1.75 5.2 Q1.45 3.1 1.3 1.0 L1.45 0.75 Q2.05 0.4 2.3 1.0" fill="none" stroke="#000000" stroke-linecap="round" stroke-linejoin="round" stroke-width="0.05"/>
    <path d="M3.9 13.4 L4.05 11.55 4.3 9.65 4.35 8.35 4.35 7.0 4.3 5.8 4.2 3.85 4.15 2.7 3.85 1.55 3.45 0.65 3.1 0.6 2.8 0.65 2.3 1.0 M2.5 1.5 L2.7 1.65 Q3.35 2.35 3.4 3.3 L3.4 4.25 3.6 6.15 3.7 7.3 3.7 9.25 3.65 11.0 3.65 12.3" fill="none" stroke="#000000" stroke-linecap="round" stroke-linejoin="round" stroke-width="0.05"/>
  </g>
</svg>
