<?xml version="1.0" encoding="UTF-8" standalone="no"?>
<svg xmlns:xlink="http://www.w3.org/1999/xlink" height="29.85px" width="12.7px" xmlns="http://www.w3.org/2000/svg">
  <g transform="matrix(1.0, 0.0, 0.0, 1.0, 0.0, 0.0)">
    <path d="M5.6 18.15 L5.35 28.15 4.9 27.95 4.35 29.55 3.95 27.6 3.75 26.6 3.4 27.1 3.0 27.4 2.9 27.3 2.6 27.05 2.35 26.7 1.5 26.8 1.55 26.05 0.6 27.05 1.4 17.8 1.65 15.5 1.95 15.55 2.55 16.15 3.9 16.2 4.6 16.15 5.6 16.1 5.6 18.15 M2.55 16.15 L1.55 26.05 2.55 16.15 M4.6 16.15 L3.95 27.6 4.6 16.15" fill="#396020" fill-rule="evenodd" stroke="none"/>
    <path d="M10.1 2.15 L11.1 3.7 10.7 8.9 8.6 10.8 4.25 10.35 3.75 9.35 3.45 9.7 3.05 10.05 0.35 10.3 3.05 10.05 3.45 9.7 3.75 9.35 4.25 10.35 8.6 10.8 8.7 11.35 Q8.85 12.35 8.5 13.1 L8.25 13.3 6.3 13.8 2.25 13.5 1.4 13.3 0.4 12.8 0.35 10.3 Q-0.5 10.05 -0.8 9.4 -2.75 5.75 0.2 2.4 3.85 6.15 8.8 3.6 9.75 3.1 10.1 2.15 M8.95 14.6 Q9.45 16.3 8.9 17.5 L8.6 18.15 5.6 18.15 5.6 16.1 Q6.05 16.2 6.25 15.8 L6.35 15.5 8.6 14.75 8.95 14.6 M1.4 17.8 L-0.05 17.45 -0.5 17.4 -0.2 15.0 0.0 15.2 1.65 15.5 1.4 17.8 M3.7 11.85 L6.75 11.95 3.7 11.85 1.55 11.45 3.7 11.85 3.45 9.7 3.7 11.85" fill="url(#gradient0)" fill-rule="evenodd" stroke="none"/>
    <path d="M8.5 13.1 L8.9 13.35 9.1 14.45 8.95 14.6 8.6 14.75 6.35 15.5 6.3 13.8 8.25 13.3 8.5 13.1 M-0.2 15.0 L-0.2 13.35 0.4 12.8 1.4 13.3 2.25 13.5 1.95 15.55 1.65 15.5 0.0 15.2 -0.2 15.0" fill="#3d2312" fill-rule="evenodd" stroke="none"/>
    <path d="M1.45 1.2 Q5.15 -1.2 8.85 0.25 L9.15 0.45 9.15 1.1 Q7.25 3.1 4.3 2.6 L1.65 1.95 1.45 1.2" fill="#0a0f02" fill-rule="evenodd" stroke="none"/>
    <path d="M10.1 2.15 Q9.75 3.1 8.8 3.6 3.85 6.15 0.2 2.4 L1.45 1.2 1.65 1.95 4.3 2.6 Q7.25 3.1 9.15 1.1 L9.15 0.45 Q10.05 0.85 10.3 1.65 L10.1 2.15 M6.3 13.8 L6.35 15.5 6.25 15.8 Q6.05 16.2 5.6 16.1 L4.6 16.15 3.9 16.2 2.55 16.15 1.95 15.55 2.25 13.5 6.3 13.8 M4.7 14.9 L3.0 14.9 4.7 14.9" fill="url(#gradient1)" fill-rule="evenodd" stroke="none"/>
    <path d="M8.6 10.8 L10.7 8.9 11.1 3.7 10.1 2.15 Q9.75 3.1 8.8 3.6 3.85 6.15 0.2 2.4 -2.75 5.75 -0.8 9.4 -0.5 10.05 0.35 10.3 L3.05 10.05 3.45 9.7 3.75 9.35 4.25 10.35 8.6 10.8 8.7 11.35 Q8.85 12.35 8.5 13.1 L8.9 13.35 9.1 14.45 8.95 14.6 Q9.45 16.3 8.9 17.5 L8.6 18.15 5.6 18.15 5.35 28.15 4.9 27.95 4.35 29.55 3.95 27.6 3.75 26.6 3.4 27.1 3.0 27.4 2.9 27.3 2.6 27.05 2.35 26.7 1.5 26.8 1.55 26.05 0.6 27.05 1.4 17.8 1.65 15.5 0.0 15.2 -0.2 15.0 -0.2 13.35 0.4 12.8 0.35 10.3 M-0.5 17.4 L-0.2 15.0 M1.45 1.2 L1.65 1.95 4.3 2.6 Q7.25 3.1 9.15 1.1 L9.15 0.45 Q10.05 0.85 10.3 1.65 L10.1 2.15 M1.45 1.2 L0.2 2.4 M1.55 11.45 L3.7 11.85 3.45 9.7 M6.75 11.95 L3.7 11.85 M6.35 15.5 L8.6 14.75 8.95 14.6 M8.5 13.1 L8.25 13.3 6.3 13.8 6.35 15.5 6.25 15.8 Q6.05 16.2 5.6 16.1 L5.6 18.15 M3.0 14.9 L4.7 14.9 M0.4 12.8 L1.4 13.3 2.25 13.5 6.3 13.8 M1.95 15.55 L1.65 15.5 M2.55 16.15 L1.95 15.55 2.25 13.5 M2.55 16.15 L3.9 16.2 4.6 16.15 5.6 16.1" fill="none" stroke="#000000" stroke-linecap="round" stroke-linejoin="round" stroke-width="0.05"/>
    <path d="M3.95 27.6 L4.6 16.15 M1.55 26.05 L2.55 16.15" fill="none" stroke="#66ff66" stroke-linecap="round" stroke-linejoin="round" stroke-width="0.05"/>
    <path d="M3.9 4.8 Q5.75 4.8 7.6 6.45 L8.15 7.05 8.35 7.7 7.4 7.0 Q5.65 9.35 3.9 9.35 L3.9 6.75 4.8 5.55 3.9 5.45 3.9 4.8 M6.8 6.65 Q6.15 6.0 5.3 5.7 4.3 6.35 4.2 7.55 L4.25 8.55 Q5.65 8.3 6.8 6.65" fill="url(#gradient2)" fill-rule="evenodd" stroke="none"/>
    <path d="M3.9 9.35 Q2.1 9.35 0.4 7.0 L-0.55 7.7 -0.4 7.05 0.2 6.45 Q2.05 4.8 3.9 4.8 L3.9 5.45 3.0 5.55 3.9 6.75 3.9 9.35 M2.5 5.7 Q1.65 6.0 1.0 6.65 2.15 8.3 3.55 8.55 L3.6 7.55 Q3.5 6.35 2.5 5.7" fill="url(#gradient3)" fill-rule="evenodd" stroke="none"/>
    <path d="M3.9 4.8 Q5.75 4.8 7.6 6.45 L8.15 7.05 8.35 7.7 7.4 7.0 Q5.65 9.35 3.9 9.35 2.1 9.35 0.4 7.0 L-0.55 7.7 -0.4 7.05 0.2 6.45 Q2.05 4.8 3.9 4.8 M3.9 5.45 L4.8 5.55 3.9 6.75 3.0 5.55 3.9 5.45 M6.8 6.65 Q5.65 8.3 4.25 8.55 L4.2 7.55 Q4.3 6.35 5.3 5.7 6.15 6.0 6.8 6.65 M2.5 5.7 Q1.65 6.0 1.0 6.65 2.15 8.3 3.55 8.55 L3.6 7.55 Q3.5 6.35 2.5 5.7 Z" fill="none" stroke="#000000" stroke-linecap="round" stroke-linejoin="round" stroke-width="0.05"/>
  </g>
  <defs>
    <linearGradient gradientTransform="matrix(0.0061, 0.0, 0.0, 0.0055, 4.45, 4.65)" gradientUnits="userSpaceOnUse" id="gradient0" spreadMethod="pad" x1="-819.2" x2="819.2">
      <stop offset="0.0" stop-color="#35691f"/>
      <stop offset="0.4823529411764706" stop-color="#d9fdce"/>
      <stop offset="1.0" stop-color="#35691f"/>
    </linearGradient>
    <linearGradient gradientTransform="matrix(0.0061, 0.0, 0.0, 0.0055, 4.45, 4.65)" gradientUnits="userSpaceOnUse" id="gradient1" spreadMethod="pad" x1="-819.2" x2="819.2">
      <stop offset="0.0" stop-color="#afcf63"/>
      <stop offset="0.4823529411764706" stop-color="#ffffff"/>
      <stop offset="1.0" stop-color="#afcf63"/>
    </linearGradient>
    <linearGradient gradientTransform="matrix(-0.0054, 0.0, 0.0, 0.0028, 3.9, 7.05)" gradientUnits="userSpaceOnUse" id="gradient2" spreadMethod="pad" x1="-819.2" x2="819.2">
      <stop offset="0.0" stop-color="#0f1d0e"/>
      <stop offset="0.25098039215686274" stop-color="#257525"/>
      <stop offset="0.5176470588235295" stop-color="#afe251"/>
      <stop offset="0.7215686274509804" stop-color="#257525"/>
      <stop offset="1.0" stop-color="#0f1d0e"/>
    </linearGradient>
    <linearGradient gradientTransform="matrix(0.0054, 0.0, 0.0, 0.0028, 3.9, 7.05)" gradientUnits="userSpaceOnUse" id="gradient3" spreadMethod="pad" x1="-819.2" x2="819.2">
      <stop offset="0.0" stop-color="#0f1d0e"/>
      <stop offset="0.25098039215686274" stop-color="#257525"/>
      <stop offset="0.5176470588235295" stop-color="#afe251"/>
      <stop offset="0.7215686274509804" stop-color="#257525"/>
      <stop offset="1.0" stop-color="#0f1d0e"/>
    </linearGradient>
  </defs>
</svg>
