<?xml version="1.0" encoding="UTF-8" standalone="no"?>
<svg xmlns:xlink="http://www.w3.org/1999/xlink" height="18.05px" width="9.75px" xmlns="http://www.w3.org/2000/svg">
  <g transform="matrix(1.0, 0.0, 0.0, 1.0, 0.0, 0.0)">
    <path d="M2.5 11.95 L2.55 11.8 2.55 11.9 2.5 11.95" fill="#333333" fill-rule="evenodd" stroke="none"/>
    <path d="M0.9 1.35 L2.15 1.0 3.2 0.5 5.05 0.05 6.05 -0.05 7.05 -0.05 8.1 0.3 9.65 1.15 10.2 1.6 10.15 4.0 9.95 4.95 9.45 6.5 9.2 7.1 8.75 8.2 7.95 8.9 7.5 10.45 7.4 10.9 7.4 11.7 7.5 12.05 7.85 12.8 8.2 13.7 8.2 13.75 8.5 15.3 8.2 16.5 7.5 17.85 6.75 17.9 5.2 17.95 3.8 17.8 3.75 17.75 3.4 17.6 Q2.9 17.7 2.65 17.3 L2.45 17.1 2.4 16.95 2.35 16.9 2.1 16.15 1.9 15.35 Q1.6 14.4 1.95 13.6 L2.5 11.95 2.55 11.9 2.55 11.8 2.6 11.45 2.45 10.85 1.8 9.4 1.25 8.2 0.8 8.0 0.5 7.45 0.5 5.65 0.6 4.15 0.65 3.3 0.9 1.35 M4.3 11.8 L4.45 11.3 4.25 10.7 4.45 11.3 4.3 11.8 M3.1 6.25 Q2.5 6.95 1.45 7.25 L0.5 7.45 1.45 7.25 Q2.5 6.95 3.1 6.25 M1.45 4.6 L3.05 4.15 1.45 4.6 M4.3 3.7 L4.1 5.55 4.3 3.7 M7.95 3.75 L5.85 3.3 7.95 3.75 M8.3 5.75 L6.55 5.1 5.3 4.65 6.55 5.1 8.3 5.75 M6.55 1.35 L5.95 1.75 4.95 2.5 5.95 1.75 6.55 1.35 M5.4 16.1 L6.15 13.95 5.4 16.1 M6.3 9.65 L5.55 9.35 4.25 8.15 5.55 9.35 6.3 9.65 M7.5 7.4 L5.8 6.65 4.8 6.1 5.8 6.65 7.5 7.4 M2.35 9.15 L3.15 8.6 2.35 9.15" fill="#474260" fill-rule="evenodd" stroke="none"/>
    <path d="M0.9 1.35 L2.15 1.0 3.2 0.5 5.05 0.05 6.05 -0.05 7.05 -0.05 8.1 0.3 9.65 1.15 10.2 1.6 10.15 4.0 9.95 4.95 9.45 6.5 9.2 7.1 8.75 8.2 7.95 8.9 7.5 10.45 7.4 10.9 7.4 11.7 7.5 12.05 7.85 12.8 8.2 13.7 8.2 13.75 8.5 15.3 8.2 16.5 7.5 17.85 6.75 17.9 5.2 17.95 3.8 17.8 M2.4 16.95 L2.35 16.9 M2.1 16.15 L1.9 15.35 Q1.6 14.4 1.95 13.6 L2.5 11.95 2.55 11.8 2.6 11.45 2.45 10.85 1.8 9.4 1.25 8.2 0.8 8.0 0.5 7.45 0.5 5.65 0.6 4.15 0.65 3.3 M4.95 2.5 L5.95 1.75 6.55 1.35 M5.3 4.65 L6.55 5.1 8.3 5.75 M5.85 3.3 L7.95 3.75 M4.1 5.55 L4.3 3.7 M3.05 4.15 L1.45 4.6 M0.5 7.45 L1.45 7.25 Q2.5 6.95 3.1 6.25 M4.25 10.7 L4.45 11.3 4.3 11.8 M2.5 11.95 L2.55 11.9 2.55 11.8 M3.15 8.6 L2.35 9.15 M4.8 6.1 L5.8 6.65 7.5 7.4 M4.25 8.15 L5.55 9.35 6.3 9.65 M6.15 13.95 L5.4 16.1" fill="none" stroke="#000000" stroke-linecap="round" stroke-linejoin="round" stroke-width="0.05"/>
  </g>
</svg>
