<?xml version="1.0" encoding="UTF-8" standalone="no"?>
<svg xmlns:xlink="http://www.w3.org/1999/xlink" height="19.65px" width="10.2px" xmlns="http://www.w3.org/2000/svg">
  <g transform="matrix(1.0, 0.0, 0.0, 1.0, 0.0, 0.0)">
    <path d="M5.45 10.9 L5.55 10.8 5.85 10.65 6.05 10.55 6.15 10.55 7.05 10.45 7.95 10.25 8.15 10.05 8.5 8.5 8.5 8.3 8.6 7.8 8.85 5.9 9.0 5.65 Q9.45 5.15 9.95 5.3 L9.65 6.95 9.35 7.9 9.2 8.5 Q9.0 9.2 8.95 9.85 L8.85 10.4 8.5 11.0 8.3 11.25 7.75 12.5 Q7.65 12.85 7.85 13.1 L8.1 13.4 6.4 13.4 4.35 13.0 3.0 12.8 Q3.45 12.15 2.9 11.65 L2.6 11.1 3.7 11.15 3.95 11.1 4.5 11.05 4.7 11.05 5.45 10.9" fill="#4b5963" fill-rule="evenodd" stroke="none"/>
    <path d="M2.1 1.1 Q2.7 0.8 3.15 0.65 L6.5 0.5 9.0 0.6 9.6 1.15 10.15 2.2 10.4 3.9 10.35 5.5 10.25 5.4 9.95 5.3 Q9.45 5.15 9.0 5.65 L8.85 5.9 8.6 7.8 8.5 8.3 8.5 8.5 8.15 10.05 7.95 10.25 7.05 10.45 6.15 10.55 6.05 10.55 5.85 10.65 5.55 10.8 5.45 10.9 5.45 9.15 5.45 8.9 5.25 8.5 4.8 8.25 3.75 7.9 3.15 7.8 2.5 7.9 1.5 8.65 2.5 7.9 3.15 7.8 3.75 7.9 4.8 8.25 5.25 8.5 5.45 8.9 5.45 9.15 5.45 10.9 4.7 11.05 4.5 11.05 3.95 11.1 3.7 11.15 2.6 11.1 1.9 10.95 1.8 10.05 1.7 9.6 1.6 9.55 1.1 9.25 0.6 6.85 0.35 6.15 Q0.15 5.5 0.25 4.6 L0.7 1.9 2.1 1.1 2.65 1.95 2.1 1.1 M6.9 5.95 L6.25 6.05 5.45 6.2 Q4.65 6.4 4.2 5.75 4.65 6.4 5.45 6.2 L6.25 6.05 6.9 5.95 M7.45 1.1 L6.9 1.25 6.1 1.5 Q5.05 1.75 4.75 2.6 5.05 1.75 6.1 1.5 L6.9 1.25 7.45 1.1 M4.95 19.15 Q2.3 18.8 2.2 16.35 L2.25 15.0 2.3 14.05 3.3 14.25 4.85 14.5 5.2 14.55 Q4.95 15.25 4.85 16.05 L4.8 16.35 Q4.55 17.35 4.65 18.5 L4.7 18.7 4.95 19.15 M1.25 2.35 L1.05 3.15 0.95 3.65 Q0.8 3.95 0.9 4.3 L1.05 5.75 0.9 4.3 Q0.8 3.95 0.95 3.65 L1.05 3.15 1.25 2.35 M7.45 6.65 L6.2 7.0 5.25 7.15 4.5 7.1 Q4.1 7.0 4.0 6.45 4.1 7.0 4.5 7.1 L5.25 7.15 6.2 7.0 7.45 6.65 M1.45 7.9 L1.5 8.65 1.45 7.9 M1.5 8.65 L1.55 9.05 1.7 9.6 1.55 9.05 1.5 8.65 M3.45 10.15 L3.25 8.9 3.45 10.15 4.65 9.85 3.45 10.15 3.35 10.15 2.6 10.25 3.35 10.15 3.45 10.15 M1.95 6.8 L0.6 6.85 1.95 6.8 M6.1 8.45 L6.15 9.95 6.1 8.45 M2.85 15.15 L2.9 15.8 2.95 16.15 Q3.15 17.3 3.75 18.2 3.15 17.3 2.95 16.15 L2.9 15.8 2.85 15.15" fill="#918970" fill-rule="evenodd" stroke="none"/>
    <path d="M9.05 14.55 L9.25 15.25 Q9.5 16.35 9.15 17.3 L8.75 18.45 Q7.35 19.1 5.65 19.2 L4.95 19.15 4.7 18.7 4.65 18.5 Q4.55 17.35 4.8 16.35 L4.85 16.05 Q4.95 15.25 5.2 14.55 L5.4 14.6 5.75 14.65 8.6 14.65 9.05 14.55" fill="#4f4f31" fill-rule="evenodd" stroke="none"/>
    <path d="M8.1 13.4 L8.6 13.4 9.05 14.55 8.6 14.65 5.75 14.65 5.4 14.6 5.2 14.55 4.85 14.5 3.3 14.25 2.3 14.05 2.3 12.85 3.0 12.8 4.35 13.0 6.4 13.4 8.1 13.4" fill="#292212" fill-rule="evenodd" stroke="none"/>
    <path d="M9.95 5.3 L10.25 5.4 10.35 5.5 10.4 3.9 10.15 2.2 9.6 1.15 9.0 0.6 6.5 0.5 3.15 0.65 Q2.7 0.8 2.1 1.1 L2.65 1.95 M4.75 2.6 Q5.05 1.75 6.1 1.5 L6.9 1.25 7.45 1.1 M5.45 10.9 L5.55 10.8 5.85 10.65 6.05 10.55 6.15 10.55 7.05 10.45 7.95 10.25 8.15 10.05 8.5 8.5 8.5 8.3 8.6 7.8 8.85 5.9 9.0 5.65 Q9.45 5.15 9.95 5.3 L9.65 6.95 9.35 7.9 9.2 8.5 Q9.0 9.2 8.95 9.85 L8.85 10.4 8.5 11.0 8.3 11.25 7.75 12.5 Q7.65 12.85 7.85 13.1 L8.1 13.4 8.6 13.4 9.05 14.55 9.25 15.25 Q9.5 16.35 9.15 17.3 L8.75 18.45 Q7.35 19.1 5.65 19.2 L4.95 19.15 Q2.3 18.8 2.2 16.35 L2.25 15.0 2.3 14.05 2.3 12.85 3.0 12.8 Q3.45 12.15 2.9 11.65 L2.6 11.1 1.9 10.95 1.8 10.05 1.7 9.6 1.6 9.55 1.1 9.25 0.6 6.85 0.35 6.15 Q0.15 5.5 0.25 4.6 L0.7 1.9 2.1 1.1 M1.5 8.65 L2.5 7.9 3.15 7.8 3.75 7.9 4.8 8.25 5.25 8.5 5.45 8.9 5.45 9.15 5.45 10.9 4.7 11.05 4.5 11.05 3.95 11.1 3.7 11.15 2.6 11.1 M4.0 6.45 Q4.1 7.0 4.5 7.1 L5.25 7.15 6.2 7.0 7.45 6.65 M0.6 6.85 L1.95 6.8 M4.65 9.85 L3.45 10.15 3.35 10.15 2.6 10.25 M3.25 8.9 L3.45 10.15 M5.2 14.55 L5.4 14.6 5.75 14.65 8.6 14.65 9.05 14.55 M3.0 12.8 L4.35 13.0 6.4 13.4 8.1 13.4 M5.2 14.55 L4.85 14.5 3.3 14.25 2.3 14.05 M4.95 19.15 L4.7 18.7 4.65 18.5 Q4.55 17.35 4.8 16.35 L4.85 16.05 Q4.95 15.25 5.2 14.55" fill="none" stroke="#000000" stroke-linecap="round" stroke-linejoin="round" stroke-width="0.05"/>
    <path d="M1.5 8.65 L1.45 7.9" fill="none" stroke="#ffffff" stroke-linecap="round" stroke-linejoin="round" stroke-width="0.05"/>
    <path d="M4.2 5.75 Q4.65 6.4 5.45 6.2 L6.25 6.05 6.9 5.95 M1.05 5.75 L0.9 4.3 Q0.8 3.95 0.95 3.65 L1.05 3.15 1.25 2.35 M1.7 9.6 L1.55 9.05 1.5 8.65 M6.15 9.95 L6.1 8.45 M3.75 18.2 Q3.15 17.3 2.95 16.15 L2.9 15.8 2.85 15.15" fill="none" stroke="#ddbca3" stroke-linecap="round" stroke-linejoin="round" stroke-width="0.05"/>
    <path d="M4.8 3.45 L5.95 3.25 Q7.7 2.65 8.9 1.45 7.7 2.65 5.95 3.25 L4.8 3.45 M7.85 1.2 L8.25 0.65 7.85 1.2 M0.7 1.2 L1.7 0.4 Q4.2 -0.65 6.9 -0.4 L8.85 0.2 Q10.0 0.6 9.85 1.9 8.1 3.6 5.65 4.4 L4.0 4.55 3.75 4.55 Q3.4 3.9 3.4 3.15 L3.25 1.75 Q2.95 2.0 2.9 2.4 L2.85 2.55 2.45 2.05 2.2 1.6 2.1 1.3 2.1 1.2 Q1.8 1.35 1.8 1.75 L1.75 2.7 1.45 2.55 1.3 2.45 Q1.2 2.8 1.25 3.15 L0.95 2.8 0.4 1.9 0.7 1.2 0.9 1.75 Q1.1 1.95 1.35 1.95 1.1 1.95 0.9 1.75 L0.7 1.2" fill="#4f4f31" fill-rule="evenodd" stroke="none"/>
    <path d="M8.25 0.65 L7.85 1.2 M8.9 1.45 Q7.7 2.65 5.95 3.25 L4.8 3.45 M0.7 1.2 L0.4 1.9 0.95 2.8 1.25 3.15 Q1.2 2.8 1.3 2.45 L1.45 2.55 1.75 2.7 1.8 1.75 Q1.8 1.35 2.1 1.2 L2.1 1.3 2.2 1.6 2.45 2.05 2.85 2.55 2.9 2.4 Q2.95 2.0 3.25 1.75 L3.4 3.15 Q3.4 3.9 3.75 4.55 L4.0 4.55 5.65 4.4 Q8.1 3.6 9.85 1.9 10.0 0.6 8.85 0.2 L6.9 -0.4 Q4.2 -0.65 1.7 0.4 L0.7 1.2 0.9 1.75 Q1.1 1.95 1.35 1.95" fill="none" stroke="#000000" stroke-linecap="round" stroke-linejoin="round" stroke-width="0.05"/>
  </g>
</svg>
