<?xml version="1.0" encoding="UTF-8" standalone="no"?>
<svg xmlns:xlink="http://www.w3.org/1999/xlink" height="17.75px" width="8.95px" xmlns="http://www.w3.org/2000/svg">
  <g transform="matrix(1.0, 0.0, 0.0, 1.0, 0.0, 0.0)">
    <path d="M8.65 1.7 L9.55 4.1 9.6 5.7 9.45 6.5 9.25 7.35 7.9 8.5 7.05 8.85 6.45 9.85 6.8 10.4 6.7 10.8 Q6.05 11.05 6.7 11.3 7.0 11.45 6.75 11.75 L6.55 11.9 7.05 12.45 6.65 12.8 6.5 13.2 8.4 13.15 8.85 13.9 8.8 14.75 7.55 16.35 6.55 17.25 6.0 17.7 Q5.3 17.65 5.35 16.85 L5.1 15.8 5.05 15.65 Q4.35 15.45 3.95 16.2 L3.0 17.35 Q2.45 16.9 2.25 16.15 L1.85 15.1 1.7 14.9 Q1.55 14.4 1.7 13.95 L2.05 13.0 Q3.35 12.45 4.85 13.3 5.4 13.05 4.8 12.7 L4.55 12.5 4.8 11.95 4.65 11.7 4.6 11.6 4.85 11.2 5.1 10.95 5.1 10.85 5.0 10.6 Q4.2 10.3 5.0 9.6 L4.25 8.7 4.25 8.5 4.6 8.0 4.25 7.75 3.95 7.75 2.9 8.2 Q2.1 8.5 1.55 7.95 L0.9 6.95 0.85 6.8 Q0.55 5.95 0.75 5.3 L1.05 4.05 1.55 2.9 1.95 1.9 2.75 0.7 2.3 0.3 3.95 0.2 5.15 0.7 5.55 0.5 Q7.4 -0.15 9.35 -0.05 L9.2 0.05 7.9 0.55 8.35 1.05 8.65 1.7 M3.65 14.3 L3.1 14.05 2.65 14.5 2.85 14.75 3.65 15.3 2.85 14.75 2.65 14.5 3.1 14.05 3.65 14.3 M4.85 13.3 L5.25 14.05 6.5 13.2 5.25 14.05 4.85 13.3 M5.35 12.55 L6.25 12.55 5.35 12.55 M6.75 14.15 L7.1 13.9 7.5 13.85 7.9 14.2 8.05 14.55 7.8 15.0 7.1 15.55 7.8 15.0 8.05 14.55 7.9 14.2 7.5 13.85 7.1 13.9 6.75 14.15 M4.9 0.9 L7.9 0.55 4.9 0.9 4.1 1.05 3.85 1.35 3.55 2.0 4.15 2.75 4.35 2.8 Q5.3 2.8 5.4 1.85 L5.15 1.25 5.4 1.85 7.8 1.6 5.4 1.85 Q5.3 2.8 4.35 2.8 L4.15 2.75 3.85 3.15 3.5 4.4 3.5 5.45 3.75 6.7 3.95 7.15 3.75 6.7 3.5 5.45 3.5 4.4 3.85 3.15 4.15 2.75 3.55 2.0 1.95 1.9 3.55 2.0 3.85 1.35 4.1 1.05 Q3.5 0.65 2.8 0.55 L2.75 0.7 2.8 0.55 Q3.5 0.65 4.1 1.05 L4.9 0.9 5.15 0.7 4.9 0.9 M4.95 3.35 L5.3 4.5 5.8 4.5 7.7 4.55 Q8.7 4.55 9.55 4.1 8.7 4.55 7.7 4.55 L5.8 4.5 5.3 4.5 5.3 5.75 5.95 6.0 7.8 6.1 9.6 5.7 7.8 6.1 5.95 6.0 5.3 5.75 5.3 4.5 4.95 3.35 M5.35 9.7 L6.45 9.85 5.35 9.7 M5.45 11.0 L6.1 11.05 5.45 11.0 M7.05 8.85 L5.25 8.4 4.6 8.0 5.25 8.4 7.05 8.85 M4.95 6.9 L6.0 7.6 7.45 7.75 9.25 7.35 7.45 7.75 6.0 7.6 4.95 6.9 4.25 7.75 4.95 6.9 5.3 5.75 4.95 6.9 M3.75 6.7 L0.9 6.95 3.75 6.7 M3.85 3.15 L1.55 2.9 3.85 3.15 M3.5 5.45 L0.75 5.3 3.5 5.45 M1.05 4.05 L1.6 4.25 3.5 4.4 1.6 4.25 1.05 4.05 M5.0 3.0 L5.4 3.2 7.2 3.1 8.5 2.7 7.2 3.1 5.4 3.2 5.0 3.0" fill="#000000" fill-rule="evenodd" stroke="none"/>
    <path d="M8.65 1.7 L9.55 4.1 9.6 5.7 9.45 6.5 9.25 7.35 7.9 8.5 7.05 8.85 6.45 9.85 6.8 10.4 6.7 10.8 Q6.05 11.05 6.7 11.3 7.0 11.45 6.75 11.75 L6.55 11.9 7.05 12.45 6.65 12.8 6.5 13.2 8.4 13.15 8.85 13.9 8.8 14.75 7.55 16.35 6.55 17.25 6.0 17.7 Q5.3 17.65 5.35 16.85 L5.1 15.8 5.05 15.65 Q4.35 15.45 3.95 16.2 L3.0 17.35 Q2.45 16.9 2.25 16.15 L1.85 15.1 1.7 14.9 Q1.55 14.4 1.7 13.95 L2.05 13.0 Q3.35 12.45 4.85 13.3 5.4 13.05 4.8 12.7 L4.55 12.5 4.8 11.95 4.65 11.7 4.6 11.6 4.85 11.2 5.1 10.95 5.1 10.85 5.0 10.6 Q4.2 10.3 5.0 9.6 L4.25 8.7 4.25 8.5 4.6 8.0 4.25 7.75 3.95 7.75 2.9 8.2 Q2.1 8.5 1.55 7.95 L0.9 6.95 0.85 6.8 Q0.55 5.95 0.75 5.3 L1.05 4.05 1.55 2.9 1.95 1.9 2.75 0.7 2.3 0.3 3.95 0.2 5.15 0.7 5.55 0.5 Q7.4 -0.15 9.35 -0.05 L9.2 0.05 7.9 0.55 8.35 1.05 8.65 1.7 M5.15 1.25 L5.4 1.85 7.8 1.6 M9.55 4.1 Q8.7 4.55 7.7 4.55 L5.8 4.5 5.3 4.5 5.3 5.75 5.95 6.0 7.8 6.1 9.6 5.7 M8.5 2.7 L7.2 3.1 5.4 3.2 5.0 3.0 M5.4 1.85 Q5.3 2.8 4.35 2.8 L4.15 2.75 3.85 3.15 3.5 4.4 3.5 5.45 3.75 6.7 3.95 7.15 M4.15 2.75 L3.55 2.0 1.95 1.9 M3.55 2.0 L3.85 1.35 4.1 1.05 Q3.5 0.65 2.8 0.55 L2.75 0.7 M4.1 1.05 L4.9 0.9 5.15 0.7 M3.5 4.4 L1.6 4.25 1.05 4.05 M0.75 5.3 L3.5 5.45 M1.55 2.9 L3.85 3.15 M4.25 7.75 L4.95 6.9 5.3 5.75 M0.9 6.95 L3.75 6.7 M9.25 7.35 L7.45 7.75 6.0 7.6 4.95 6.9 M4.6 8.0 L5.25 8.4 7.05 8.85 M6.1 11.05 L5.45 11.0 M6.45 9.85 L5.35 9.7 M5.3 4.5 L4.95 3.35 M7.9 0.55 L4.9 0.9 M7.1 15.55 L7.8 15.0 8.05 14.55 7.9 14.2 7.5 13.85 7.1 13.9 6.75 14.15 M6.25 12.55 L5.35 12.55 M6.5 13.2 L5.25 14.05 4.85 13.3 M3.65 15.3 L2.85 14.75 2.65 14.5 3.1 14.05 3.65 14.3" fill="none" stroke="#ffffff" stroke-linecap="round" stroke-linejoin="round" stroke-width="0.05"/>
  </g>
</svg>
