<?xml version="1.0" encoding="UTF-8" standalone="no"?>
<svg xmlns:xlink="http://www.w3.org/1999/xlink" height="18.05px" width="9.75px" xmlns="http://www.w3.org/2000/svg">
  <g transform="matrix(1.0, 0.0, 0.0, 1.0, 0.0, 0.0)">
    <path d="M0.9 1.35 L2.15 1.0 3.2 0.5 5.05 0.05 6.05 -0.05 7.05 -0.05 8.1 0.3 9.65 1.15 10.2 1.6 10.15 4.0 9.95 4.95 9.45 6.5 9.2 7.1 8.75 8.2 7.95 8.9 7.5 10.45 7.4 10.9 7.4 11.7 7.5 12.05 7.85 12.8 8.2 13.7 8.2 13.75 8.5 15.3 8.2 16.5 7.5 17.85 6.75 17.9 5.2 17.95 3.8 17.8 3.75 17.75 3.4 17.6 Q2.9 17.7 2.65 17.3 L2.45 17.1 2.4 16.95 2.35 16.9 2.1 16.15 1.9 15.35 Q1.6 14.4 1.95 13.6 L2.5 11.95 2.55 11.8 2.6 11.45 2.45 10.85 1.8 9.4 1.25 8.2 0.8 8.0 0.5 7.45 0.5 5.65 0.6 4.15 0.65 3.3 0.9 1.35 M5.4 16.1 L6.15 13.95 5.4 16.1 M6.3 9.65 L5.55 9.35 4.25 8.15 5.55 9.35 6.3 9.65 M7.5 7.4 L5.8 6.65 4.8 6.1 5.8 6.65 7.5 7.4 M2.35 9.15 L3.15 8.6 2.35 9.15 M2.55 11.8 L2.55 11.9 2.5 11.95 2.55 11.9 2.55 11.8 M4.3 11.8 L4.45 11.3 4.25 10.7 4.45 11.3 4.3 11.8 M3.1 6.25 Q2.5 6.95 1.45 7.25 L0.5 7.45 1.45 7.25 Q2.5 6.95 3.1 6.25 M1.45 4.6 L3.05 4.15 1.45 4.6 M4.3 3.7 L4.1 5.55 4.3 3.7 M7.95 3.75 L5.85 3.3 7.95 3.75 M8.3 5.75 L6.55 5.1 5.3 4.65 6.55 5.1 8.3 5.75 M6.55 1.35 L5.95 1.75 4.95 2.5 5.95 1.75 6.55 1.35" fill="#333333" fill-rule="evenodd" stroke="none"/>
    <path d="M0.9 1.35 L2.15 1.0 3.2 0.5 5.05 0.05 6.05 -0.05 7.05 -0.05 8.1 0.3 9.65 1.15 10.2 1.6 10.15 4.0 9.95 4.95 9.45 6.5 9.2 7.1 8.75 8.2 7.95 8.9 7.5 10.45 7.4 10.9 7.4 11.7 7.5 12.05 7.85 12.8 8.2 13.7 8.2 13.75 8.5 15.3 8.2 16.5 7.5 17.85 6.75 17.9 5.2 17.95 3.8 17.8 M2.4 16.95 L2.35 16.9 M2.1 16.15 L1.9 15.35 Q1.6 14.4 1.95 13.6 L2.5 11.95 2.55 11.8 2.6 11.45 2.45 10.85 1.8 9.4 1.25 8.2 0.8 8.0 0.5 7.45 0.5 5.65 0.6 4.15 0.65 3.3 M4.95 2.5 L5.95 1.75 6.55 1.35 M5.3 4.65 L6.55 5.1 8.3 5.75 M5.85 3.3 L7.95 3.75 M4.1 5.55 L4.3 3.7 M3.05 4.15 L1.45 4.6 M0.5 7.45 L1.45 7.25 Q2.5 6.95 3.1 6.25 M4.25 10.7 L4.45 11.3 4.3 11.8 M2.5 11.95 L2.55 11.9 2.55 11.8 M3.15 8.6 L2.35 9.15 M4.8 6.1 L5.8 6.65 7.5 7.4 M4.25 8.15 L5.55 9.35 6.3 9.65 M6.15 13.95 L5.4 16.1" fill="none" stroke="#000000" stroke-linecap="round" stroke-linejoin="round" stroke-width="0.05"/>
    <path d="M10.1 2.7 L9.75 2.2 8.8 1.95 M6.2 2.15 L6.4 3.05 6.75 3.0 6.75 2.95 6.8 3.0 7.2 3.2 M6.75 3.0 L6.8 3.0 7.3 5.25 5.75 5.1 5.0 6.4 5.15 6.6 Q5.75 7.15 6.45 7.0 L7.2 6.95 7.8 6.65 7.95 6.5 8.05 6.4 Q8.6 6.1 8.65 5.4 L8.7 5.25 8.8 4.45 8.7 4.2 8.55 3.9 Q8.3 3.2 7.55 3.0 M9.65 2.95 L9.65 3.7 9.3 4.25 8.8 4.45 M8.7 5.25 L9.3 5.4 9.5 5.65 9.5 5.75 8.65 5.4 M8.7 4.2 L9.2 3.75 9.25 2.8 M6.4 3.05 L5.45 3.45 4.9 4.1 4.6 4.9 5.75 5.1 6.75 3.0 M4.9 4.1 L3.1 3.7 M2.75 7.3 L3.7 6.8 3.9 6.7 4.25 6.55 4.8 6.2 4.65 5.8 4.6 4.9 3.7 4.9 1.9 5.25 Q1.15 5.15 1.5 5.55 M3.7 6.8 L3.85 7.7 3.7 8.0 2.75 8.6 M4.25 6.55 Q4.65 7.45 4.4 8.7 L3.95 9.2 M3.25 8.9 Q3.9 8.55 3.95 7.8 L3.9 6.7 M5.95 12.1 Q6.35 11.65 5.85 11.25 L5.9 11.25 4.8 10.9 4.9 10.45 Q5.6 10.0 6.4 9.65 L6.95 9.35 7.0 8.85 7.0 8.65 Q6.7 8.2 6.1 8.35 L6.45 7.0 M7.95 6.5 L8.75 6.9 9.0 7.25 M7.8 6.65 L8.2 6.95 8.7 7.65 M4.45 2.1 L5.45 3.45 M5.0 6.4 L4.8 6.2 M7.0 14.5 L7.45 13.7 Q7.25 13.25 7.45 12.75 L7.6 12.4" fill="none" stroke="#ff0000" stroke-linecap="round" stroke-linejoin="round" stroke-width="0.05"/>
  </g>
</svg>
