<?xml version="1.0" encoding="UTF-8" standalone="no"?>
<svg xmlns:xlink="http://www.w3.org/1999/xlink" height="19.15px" width="13.55px" xmlns="http://www.w3.org/2000/svg">
  <g transform="matrix(1.0, 0.0, 0.0, 1.0, 0.0, 0.0)">
    <path d="M9.2 15.25 L9.4 16.95 Q7.75 17.65 6.45 17.75 L6.4 18.25 4.25 19.0 Q3.5 18.65 3.15 17.7 L3.15 17.6 1.7 17.2 Q1.1 16.2 1.25 14.95 L1.65 15.15 2.85 15.25 2.9 15.6 Q2.85 15.85 3.25 16.15 L5.4 16.45 6.0 16.4 6.6 16.15 6.85 15.5 9.2 15.25 M4.0 18.35 L4.7 18.15 5.55 18.0 5.45 17.15 5.4 16.45 5.45 17.15 5.55 18.0 4.7 18.15 4.0 18.35 M6.45 17.75 L6.0 16.4 6.45 17.75 M5.45 17.15 L3.85 17.3 5.45 17.15 M3.15 17.6 L3.25 16.15 3.15 17.6" fill="url(#gradient0)" fill-rule="evenodd" stroke="none"/>
    <path d="M6.6 13.35 L6.75 13.35 6.85 15.5 6.6 16.15 6.0 16.4 5.4 16.45 3.25 16.15 Q2.85 15.85 2.9 15.6 L2.85 15.25 3.05 13.35 3.3 13.1 4.25 13.1 6.6 13.35 M5.85 14.65 L5.9 14.2 5.85 14.65 4.35 14.55 4.5 14.35 5.9 14.2 5.9 14.1 5.8 13.65 3.95 13.55 3.55 15.25 5.15 15.6 5.8 15.15 5.85 14.65" fill="url(#gradient1)" fill-rule="evenodd" stroke="none"/>
    <path d="M6.75 13.35 L8.2 13.3 8.9 13.2 9.15 13.85 9.2 15.25 6.85 15.5 6.75 13.35 M1.25 14.95 L1.15 13.05 3.05 13.35 2.85 15.25 1.65 15.15 1.25 14.95 M5.85 14.65 L5.8 15.15 5.15 15.6 3.55 15.25 3.95 13.55 5.8 13.65 5.9 14.1 5.9 14.2 4.5 14.35 4.35 14.55 5.85 14.65" fill="#2b2717" fill-rule="evenodd" stroke="none"/>
    <path d="M4.25 13.1 L4.7 12.05 4.4 11.45 Q4.3 10.85 4.95 10.45 L4.5 9.85 4.55 9.1 Q4.1 8.7 4.35 8.15 L5.0 8.5 5.3 9.25 6.85 9.5 6.6 10.25 6.5 10.45 6.85 10.85 6.55 11.35 6.6 13.35 4.25 13.1 M4.7 12.05 L6.2 12.15 4.7 12.05 M5.25 10.55 L6.5 10.45 5.25 10.55" fill="#9a7952" fill-rule="evenodd" stroke="none"/>
    <path d="M4.25 13.1 L4.7 12.05 4.4 11.45 Q4.3 10.85 4.95 10.45 L4.5 9.85 4.55 9.1 Q4.1 8.7 4.35 8.15 M6.85 9.5 L6.6 10.25 6.5 10.45 6.85 10.85 6.55 11.35 6.6 13.35 6.75 13.35 8.2 13.3 8.9 13.2 9.15 13.85 9.2 15.25 9.4 16.95 Q7.75 17.65 6.45 17.75 L6.4 18.25 4.25 19.0 Q3.5 18.65 3.15 17.7 L3.15 17.6 1.7 17.2 Q1.1 16.2 1.25 14.95 L1.15 13.05 3.05 13.35 3.3 13.1 4.25 13.1 6.6 13.35 M6.5 10.45 L5.25 10.55 M6.2 12.15 L4.7 12.05 M5.9 14.2 L5.85 14.65 5.8 15.15 5.15 15.6 3.55 15.25 3.95 13.55 5.8 13.65 5.9 14.1 5.9 14.2 4.5 14.35 4.35 14.55 5.85 14.65 M2.85 15.25 L2.9 15.6 Q2.85 15.85 3.25 16.15 L5.4 16.45 6.0 16.4 6.6 16.15 6.85 15.5 6.75 13.35 M6.0 16.4 L6.45 17.75 M5.4 16.45 L5.45 17.15 5.55 18.0 4.7 18.15 4.0 18.35 M6.85 15.5 L9.2 15.25 M3.05 13.35 L2.85 15.25 1.65 15.15 1.25 14.95 M3.25 16.15 L3.15 17.6 M3.85 17.3 L5.45 17.15" fill="none" stroke="#000000" stroke-linecap="round" stroke-linejoin="round" stroke-width="0.05"/>
    <path d="M10.35 1.95 L11.7 2.5 Q12.3 4.1 12.05 5.85 L11.7 7.55 10.5 8.85 9.65 9.35 8.1 10.05 7.3 10.2 5.5 9.9 5.15 9.1 Q5.85 7.25 7.95 6.4 L8.9 5.75 Q10.6 4.15 10.35 1.95 M3.8 8.8 L2.6 9.5 2.35 10.05 Q1.2 10.25 0.15 9.5 -1.15 8.7 -1.35 7.45 -1.6 6.05 -1.3 4.75 -0.8 5.6 -0.05 5.85 L1.8 6.8 Q2.5 7.1 3.0 7.6 3.7 8.15 3.8 8.8 M-1.25 2.75 Q-0.7 1.55 0.75 1.4 L1.45 1.15 1.5 1.25 Q1.6 2.1 2.6 2.35 L4.8 2.55 8.05 1.55 Q8.55 1.5 9.05 1.15 L9.15 0.9 10.0 1.75 9.45 2.35 7.95 3.05 9.45 2.35 Q8.9 4.2 7.2 5.35 L5.2 6.25 Q5.25 6.0 5.45 5.85 L7.95 3.05 1.65 2.9 1.95 3.7 3.35 4.9 3.75 5.7 Q4.05 6.5 3.95 7.05 L3.35 6.25 Q2.6 5.5 1.3 5.35 -1.05 5.0 -1.25 2.75 M1.65 2.9 L1.1 2.3 1.5 1.25 1.1 2.3 1.65 2.9 M10.5 7.95 Q10.5 6.9 10.65 5.9 L11.25 3.6 10.65 5.9 Q10.5 6.9 10.5 7.95 M9.85 8.35 L10.5 8.85 9.85 8.35 M8.65 8.6 L9.05 8.9 9.65 9.35 9.05 8.9 8.75 9.15 9.05 8.9 8.65 8.6" fill="url(#gradient2)" fill-rule="evenodd" stroke="none"/>
    <path d="M5.15 9.1 L4.4 8.75 3.8 8.8 Q3.7 8.15 3.0 7.6 2.5 7.1 1.8 6.8 L-0.05 5.85 Q-0.8 5.6 -1.3 4.75 L-1.25 2.75 Q-1.05 5.0 1.3 5.35 2.6 5.5 3.35 6.25 L3.95 7.05 Q4.05 6.5 3.75 5.7 L3.35 4.9 1.95 3.7 1.65 2.9 7.95 3.05 5.45 5.85 Q5.25 6.0 5.2 6.25 L7.2 5.35 Q8.9 4.2 9.45 2.35 L10.0 1.75 Q10.2 1.8 10.35 1.95 10.6 4.15 8.9 5.75 L7.95 6.4 Q5.85 7.25 5.15 9.1" fill="url(#gradient3)" fill-rule="evenodd" stroke="none"/>
    <path d="M1.45 1.15 L1.45 0.95 3.35 0.4 7.25 -0.15 8.65 0.1 Q9.2 0.3 9.15 0.9 L9.05 1.15 Q8.55 1.5 8.05 1.55 L4.8 2.55 2.6 2.35 Q1.6 2.1 1.5 1.25 L1.45 1.15" fill="#2b2717" fill-rule="evenodd" stroke="none"/>
    <path d="M10.35 1.95 L11.7 2.5 Q12.3 4.1 12.05 5.85 L11.7 7.55 10.5 8.85 9.65 9.35 8.1 10.05 7.3 10.2 5.5 9.9 5.15 9.1 4.4 8.75 3.8 8.8 2.6 9.5 2.35 10.05 Q1.2 10.25 0.15 9.5 -1.15 8.7 -1.35 7.45 -1.6 6.05 -1.3 4.75 L-1.25 2.75 Q-0.7 1.55 0.75 1.4 L1.45 1.15 1.45 0.95 3.35 0.4 7.25 -0.15 8.65 0.1 Q9.2 0.3 9.15 0.9 L10.0 1.75 Q10.2 1.8 10.35 1.95 10.6 4.15 8.9 5.75 L7.95 6.4 Q5.85 7.25 5.15 9.1 M9.15 0.9 L9.05 1.15 Q8.55 1.5 8.05 1.55 L4.8 2.55 2.6 2.35 Q1.6 2.1 1.5 1.25 L1.1 2.3 1.65 2.9 7.95 3.05 9.45 2.35 10.0 1.75 M7.95 3.05 L5.45 5.85 Q5.25 6.0 5.2 6.25 L7.2 5.35 Q8.9 4.2 9.45 2.35 M1.5 1.25 L1.45 1.15 M-1.25 2.75 Q-1.05 5.0 1.3 5.35 2.6 5.5 3.35 6.25 L3.95 7.05 Q4.05 6.5 3.75 5.7 L3.35 4.9 1.95 3.7 1.65 2.9 M3.8 8.8 Q3.7 8.15 3.0 7.6 2.5 7.1 1.8 6.8 L-0.05 5.85 Q-0.8 5.6 -1.3 4.75 M9.65 9.35 L9.05 8.9 8.75 9.15 M9.05 8.9 L8.65 8.6 M10.5 8.85 L9.85 8.35 M11.25 3.6 L10.65 5.9 Q10.5 6.9 10.5 7.95" fill="none" stroke="#000000" stroke-linecap="round" stroke-linejoin="round" stroke-width="0.05"/>
  </g>
  <defs>
    <linearGradient gradientTransform="matrix(0.0063, 0.0, 0.0, 0.0047, 4.6, 5.85)" gradientUnits="userSpaceOnUse" id="gradient0" spreadMethod="pad" x1="-819.2" x2="819.2">
      <stop offset="0.0" stop-color="#564036"/>
      <stop offset="0.5137254901960784" stop-color="#a38a6d"/>
      <stop offset="1.0" stop-color="#564036"/>
    </linearGradient>
    <linearGradient gradientTransform="matrix(0.0063, 0.0, 0.0, 0.0047, 4.6, 5.85)" gradientUnits="userSpaceOnUse" id="gradient1" spreadMethod="pad" x1="-819.2" x2="819.2">
      <stop offset="0.0" stop-color="#564036"/>
      <stop offset="0.5137254901960784" stop-color="#aa9960"/>
      <stop offset="1.0" stop-color="#564036"/>
    </linearGradient>
    <linearGradient gradientTransform="matrix(0.0073, 0.0, 0.0, 0.005, 4.7, 6.25)" gradientUnits="userSpaceOnUse" id="gradient2" spreadMethod="pad" x1="-819.2" x2="819.2">
      <stop offset="0.0" stop-color="#564036"/>
      <stop offset="0.5137254901960784" stop-color="#a38a6d"/>
      <stop offset="1.0" stop-color="#564036"/>
    </linearGradient>
    <linearGradient gradientTransform="matrix(0.0073, 0.0, 0.0, 0.005, 4.7, 6.25)" gradientUnits="userSpaceOnUse" id="gradient3" spreadMethod="pad" x1="-819.2" x2="819.2">
      <stop offset="0.0" stop-color="#564036"/>
      <stop offset="0.5137254901960784" stop-color="#aa9960"/>
      <stop offset="1.0" stop-color="#564036"/>
    </linearGradient>
  </defs>
</svg>
