<?xml version="1.0" encoding="UTF-8" standalone="no"?>
<svg xmlns:xlink="http://www.w3.org/1999/xlink" height="19.6px" width="10.55px" xmlns="http://www.w3.org/2000/svg">
  <g transform="matrix(1.0, 0.0, 0.0, 1.0, 0.0, 0.0)">
    <path d="M5.85 1.05 Q5.5 1.2 5.4 1.6 L4.9 2.1 5.0 3.1 Q4.05 3.3 3.45 4.05 L3.35 3.2 3.9 2.6 4.05 2.15 3.35 2.15 Q3.05 1.9 3.2 1.35 L3.15 1.4 Q2.7 0.6 3.2 0.2 L5.2 -0.2 Q6.6 -0.45 6.8 0.6 L5.85 1.05" fill="#4b5963" fill-rule="evenodd" stroke="none"/>
    <path d="M8.8 0.45 L9.4 0.95 9.75 1.2 Q11.0 2.9 10.4 5.0 L10.25 6.0 Q10.2 7.4 9.15 8.15 L8.35 8.95 Q7.95 9.5 7.95 10.15 8.0 10.9 8.45 11.55 9.05 12.35 8.85 13.25 L6.7 13.5 5.1 13.5 2.9 13.55 1.3 13.55 0.55 13.25 0.45 12.95 0.75 11.65 Q1.55 9.95 0.9 8.4 L0.5 7.35 Q-0.15 5.45 0.15 3.45 0.35 2.25 1.1 1.2 0.75 0.6 1.4 0.5 L4.6 -0.35 Q6.7 -0.7 8.4 0.15 L8.8 0.45 Q8.2 1.75 7.1 2.8 L6.6 3.4 6.5 2.35 6.3 1.7 5.85 1.05 6.3 1.7 6.5 2.35 6.6 3.4 7.1 2.8 Q8.2 1.75 8.8 0.45 M3.45 4.05 Q4.05 3.3 5.0 3.1 L4.9 2.1 5.4 1.6 Q5.5 1.2 5.85 1.05 L6.8 0.6 Q6.6 -0.45 5.2 -0.2 L3.2 0.2 Q2.7 0.6 3.15 1.4 L1.0 2.65 1.1 1.2 1.0 2.65 3.15 1.4 3.2 1.35 Q3.05 1.9 3.35 2.15 L4.05 2.15 3.9 2.6 3.35 3.2 3.45 4.05 3.0 5.55 3.5 5.65 3.75 5.85 3.85 6.1 3.9 6.5 Q3.5 7.0 3.25 7.7 2.9 8.95 3.75 9.9 2.9 8.95 3.25 7.7 3.5 7.0 3.9 6.5 L3.85 6.1 3.75 5.85 3.5 5.65 3.0 5.55 3.45 4.05 M5.9 5.0 Q5.8 5.85 6.2 6.5 L6.4 6.6 Q7.25 6.65 7.9 6.1 L8.0 5.85 7.8 4.4 7.65 4.2 6.65 4.1 5.85 4.2 6.65 4.1 7.65 4.2 7.8 4.4 8.0 5.85 7.9 6.1 Q7.25 6.65 6.4 6.6 L6.2 6.5 Q5.8 5.85 5.9 5.0 M6.85 11.65 L7.15 12.35 Q7.25 12.95 6.7 13.5 7.25 12.95 7.15 12.35 L6.85 11.65 M2.55 11.4 L2.3 11.8 Q2.15 12.85 2.9 13.55 2.15 12.85 2.3 11.8 L2.55 11.4 M4.6 12.75 L5.1 13.5 4.6 12.75" fill="#ded8cf" fill-rule="evenodd" stroke="none"/>
    <path d="M1.3 13.55 L2.9 13.55 5.1 13.5 6.7 13.5 8.85 13.25 9.75 18.1 8.4 18.65 5.15 19.15 Q2.9 18.9 1.05 17.45 1.05 15.75 1.2 14.45 L1.3 13.55 M3.85 14.8 L7.25 14.85 3.85 14.8 3.65 16.3 3.85 14.8 1.7 14.6 3.85 14.8" fill="#433c30" fill-rule="evenodd" stroke="none"/>
    <path d="M8.85 13.25 Q9.05 12.35 8.45 11.55 8.0 10.9 7.95 10.15 7.95 9.5 8.35 8.95 L9.15 8.15 Q10.2 7.4 10.25 6.0 L10.4 5.0 Q11.0 2.9 9.75 1.2 L9.4 0.95 8.8 0.45 Q8.2 1.75 7.1 2.8 L6.6 3.4 6.5 2.35 6.3 1.7 5.85 1.05 Q5.5 1.2 5.4 1.6 L4.9 2.1 5.0 3.1 Q4.05 3.3 3.45 4.05 L3.0 5.55 3.5 5.65 3.75 5.85 3.85 6.1 3.9 6.5 Q3.5 7.0 3.25 7.7 2.9 8.95 3.75 9.9 M8.8 0.45 L8.4 0.15 Q6.7 -0.7 4.6 -0.35 L1.4 0.5 Q0.75 0.6 1.1 1.2 L1.0 2.65 3.15 1.4 Q2.7 0.6 3.2 0.2 L5.2 -0.2 Q6.6 -0.45 6.8 0.6 L5.85 1.05 M5.85 4.2 L6.65 4.1 7.65 4.2 7.8 4.4 8.0 5.85 7.9 6.1 Q7.25 6.65 6.4 6.6 L6.2 6.5 Q5.8 5.85 5.9 5.0 M3.45 4.05 L3.35 3.2 3.9 2.6 4.05 2.15 3.35 2.15 Q3.05 1.9 3.2 1.35 L3.15 1.4 M1.1 1.2 Q0.35 2.25 0.15 3.45 -0.15 5.45 0.5 7.35 L0.9 8.4 Q1.55 9.95 0.75 11.65 L0.45 12.95 0.55 13.25 1.3 13.55 2.9 13.55 Q2.15 12.85 2.3 11.8 L2.55 11.4 M6.7 13.5 Q7.25 12.95 7.15 12.35 L6.85 11.65 M8.85 13.25 L6.7 13.5 5.1 13.5 2.9 13.55 M1.3 13.55 L1.2 14.45 Q1.05 15.75 1.05 17.45 2.9 18.9 5.15 19.15 L8.4 18.65 9.75 18.1 8.85 13.25 M3.65 16.3 L3.85 14.8 1.7 14.6 M7.25 14.85 L3.85 14.8 M5.1 13.5 L4.6 12.75" fill="none" stroke="#000000" stroke-linecap="round" stroke-linejoin="round" stroke-width="0.05"/>
  </g>
</svg>
