<?xml version="1.0" encoding="UTF-8" standalone="no"?>
<svg xmlns:xlink="http://www.w3.org/1999/xlink" height="17.8px" width="13.1px" xmlns="http://www.w3.org/2000/svg">
  <g transform="matrix(1.0, 0.0, 0.0, 1.0, 0.0, 0.0)">
    <path d="M0.9 5.15 L0.6 4.65 0.65 4.25 1.05 2.6 1.6 1.5 Q2.05 0.7 3.0 0.35 L6.15 0.15 7.1 0.55 8.3 1.35 Q9.6 2.6 9.65 4.4 9.65 5.6 8.45 5.85 L8.15 6.55 7.7 6.9 7.6 6.95 Q7.3 7.6 7.3 8.3 L7.05 9.4 5.7 10.3 4.25 10.8 5.7 10.3 7.05 9.4 7.3 8.3 Q7.3 7.6 7.6 6.95 L7.7 6.9 8.15 6.55 8.2 6.7 8.65 11.35 8.15 11.8 4.25 11.95 4.25 10.8 2.7 11.2 Q1.8 11.35 1.45 10.4 1.05 9.45 1.15 9.15 L1.25 8.8 1.2 8.6 1.05 8.0 0.9 7.55 0.9 7.2 0.85 7.15 0.8 6.65 1.1 6.7 1.25 6.7 1.65 6.35 1.7 6.25 1.65 5.8 1.5 5.5 Q1.3 5.15 0.9 5.15 M6.8 4.75 L7.45 4.3 Q8.4 4.45 8.45 5.5 L8.45 5.85 8.45 5.5 Q8.4 4.45 7.45 4.3 L6.8 4.75 M5.35 5.75 L5.25 5.5 5.05 5.25 4.85 5.1 4.05 4.95 3.3 5.1 Q3.05 5.2 2.85 5.45 L2.75 5.8 2.75 6.0 2.75 6.25 3.0 6.9 3.05 7.0 4.05 7.35 Q4.7 7.25 5.0 6.95 L5.15 6.8 Q5.5 6.3 5.35 5.75 M6.35 6.85 L6.1 7.3 5.6 7.65 5.45 7.85 5.5 8.75 5.45 7.85 5.6 7.65 6.1 7.3 6.35 6.85" fill="#4b5963" fill-rule="evenodd" stroke="none"/>
    <path d="M0.9 5.15 Q1.3 5.15 1.5 5.5 L1.25 6.2 0.9 6.4 1.0 6.0 0.9 5.6 0.9 5.15 M2.75 6.25 L2.75 6.0 2.75 5.8 2.85 5.45 Q3.05 5.2 3.3 5.1 L4.05 4.95 4.85 5.1 5.05 5.25 5.25 5.5 5.35 5.75 5.3 5.8 5.3 5.9 5.2 6.15 4.8 6.6 4.75 6.65 4.3 6.8 3.9 6.85 Q3.35 6.75 2.95 6.45 L2.75 6.25" fill="#ffffff" fill-rule="evenodd" stroke="none"/>
    <path d="M1.5 5.5 L1.65 5.8 1.7 6.25 1.65 6.35 1.25 6.7 1.1 6.7 0.8 6.65 0.8 6.55 0.85 6.5 0.9 6.4 1.25 6.2 1.5 5.5 M2.75 6.25 L2.95 6.45 Q3.35 6.75 3.9 6.85 L4.3 6.8 4.75 6.65 4.8 6.6 5.2 6.15 5.3 5.9 5.3 5.8 5.35 5.75 Q5.5 6.3 5.15 6.8 L5.0 6.95 Q4.7 7.25 4.05 7.35 L3.05 7.0 3.0 6.9 2.75 6.25" fill="#233623" fill-rule="evenodd" stroke="none"/>
    <path d="M8.45 5.85 Q9.65 5.6 9.65 4.4 9.6 2.6 8.3 1.35 L7.1 0.55 6.15 0.15 3.0 0.35 Q2.05 0.7 1.6 1.5 L1.05 2.6 0.65 4.25 0.6 4.65 0.9 5.15 Q1.3 5.15 1.5 5.5 L1.65 5.8 1.7 6.25 1.65 6.35 1.25 6.7 1.1 6.7 0.8 6.65 0.85 7.15 0.9 7.2 0.9 7.55 1.05 8.0 1.2 8.6 1.25 8.8 1.15 9.15 Q1.05 9.45 1.45 10.4 1.8 11.35 2.7 11.2 L4.25 10.8 5.7 10.3 7.05 9.4 7.3 8.3 Q7.3 7.6 7.6 6.95 L7.7 6.9 8.15 6.55 8.45 5.85 8.45 5.5 Q8.4 4.45 7.45 4.3 L6.8 4.75 M5.35 5.75 L5.25 5.5 5.05 5.25 4.85 5.1 4.05 4.95 3.3 5.1 Q3.05 5.2 2.85 5.45 L2.75 5.8 2.75 6.0 2.75 6.25 2.95 6.45 Q3.35 6.75 3.9 6.85 L4.3 6.8 4.75 6.65 4.8 6.6 5.2 6.15 5.3 5.9 5.3 5.8 5.35 5.75 Q5.5 6.3 5.15 6.8 L5.0 6.95 Q4.7 7.25 4.05 7.35 L3.05 7.0 3.0 6.9 2.75 6.25 M0.9 5.15 L0.9 5.6 1.0 6.0 0.9 6.4 1.25 6.2 1.5 5.5 M0.8 6.65 L0.8 6.55 0.85 6.5 0.9 6.4 M4.25 10.8 L4.25 11.95 M8.65 11.35 L8.2 6.7 8.15 6.55 M5.5 8.75 L5.45 7.85 5.6 7.65 6.1 7.3 6.35 6.85" fill="none" stroke="#000000" stroke-linecap="round" stroke-linejoin="round" stroke-width="0.05"/>
    <path d="M2.0 8.9 L1.85 9.2 1.8 9.3 1.1 9.2 1.2 8.6 2.0 8.9 3.6 9.1 3.6 9.3 3.25 9.8 3.0 9.85 2.9 9.55 2.9 9.35 2.8 9.2 2.8 9.25 2.75 9.35 2.65 9.45 2.15 9.6 2.1 9.3 2.0 8.9" fill="#d9bd96" fill-rule="evenodd" stroke="none"/>
    <path d="M2.0 8.9 L1.85 9.2 1.8 9.3 1.1 9.2 1.2 8.6 2.0 8.9 3.6 9.1 4.05 9.05 M3.6 9.1 L3.6 9.3 3.25 9.8 3.0 9.85 2.9 9.55 2.9 9.35 2.8 9.2 2.8 9.25 2.75 9.35 2.65 9.45 2.15 9.6 2.1 9.3 2.0 8.9" fill="none" stroke="#000000" stroke-linecap="round" stroke-linejoin="round" stroke-width="0.05"/>
    <path d="M6.2 3.55 L5.75 3.7 5.05 3.7 5.0 3.6 4.6 3.9 4.25 4.0 4.05 3.95 3.8 3.75 3.7 3.5 3.15 3.55 1.95 3.9 1.4 3.75 1.75 2.95 0.15 3.8 -0.95 4.2 0.3 2.85 -0.9 3.1 0.8 1.9 0.3 1.75 1.3 1.35 9.6 4.05 9.8 5.9 9.65 6.95 Q9.3 7.85 9.55 8.75 L9.65 8.9 9.0 8.8 9.6 10.15 9.05 9.85 8.8 9.65 8.55 9.45 8.45 9.3 8.35 9.2 8.25 9.35 Q7.9 8.3 8.05 7.5 L8.05 5.85 7.55 5.45 6.55 6.2 6.85 5.2 6.15 5.75 Q6.15 5.1 6.3 4.5 L6.6 3.3 6.2 3.55" fill="#ffffff" fill-rule="evenodd" stroke="none"/>
    <path d="M5.7 5.95 L5.65 6.5 5.2 7.15 4.15 7.65 4.0 7.65 Q3.3 7.65 2.8 7.15 L2.4 6.5 2.3 5.95 Q2.3 5.25 2.8 4.75 3.3 4.25 4.0 4.25 4.7 4.25 5.2 4.75 5.7 5.25 5.7 5.95" fill="#8de7fc" fill-opacity="0.15294118" fill-rule="evenodd" stroke="none"/>
    <path d="M5.7 5.95 L5.65 6.5 5.2 7.15 4.15 7.65 4.0 7.65 Q3.3 7.65 2.8 7.15 L2.4 6.5 2.3 5.95 Q2.3 5.25 2.8 4.75 3.3 4.25 4.0 4.25 4.7 4.25 5.2 4.75 5.7 5.25 5.7 5.95 Z" fill="none" stroke="#ffeb74" stroke-linecap="round" stroke-linejoin="round" stroke-width="0.30000000000000004"/>
    <path d="M10.4 7.3 L10.3 7.45 10.15 7.55 9.95 7.45 9.9 7.3 9.95 7.1 10.15 7.05 10.3 7.1 10.4 7.3 M10.0 5.7 L10.1 5.9 10.0 6.05 9.85 6.15 9.65 6.05 9.6 5.9 9.65 5.7 9.85 5.65 10.0 5.7 M4.1 8.1 L4.3 8.05 4.45 8.1 4.55 8.3 4.45 8.45 4.3 8.55 4.1 8.45 4.05 8.3 4.1 8.1 M5.0 9.65 L5.1 9.85 5.0 10.0 4.85 10.1 4.65 10.0 4.6 9.85 4.65 9.65 4.85 9.6 5.0 9.65 M10.05 8.6 L10.15 8.8 10.05 8.95 9.9 9.05 9.7 8.95 9.65 8.8 9.7 8.6 9.9 8.55 10.05 8.6 M7.55 10.65 L7.65 10.85 7.55 11.0 7.4 11.1 7.2 11.0 7.15 10.85 7.2 10.65 7.4 10.6 7.55 10.65 M6.05 10.65 L6.15 10.85 6.05 11.0 5.9 11.1 5.7 11.0 5.65 10.85 5.7 10.65 5.9 10.6 6.05 10.65 M8.8 9.75 L9.0 9.7 9.15 9.75 9.25 9.95 9.15 10.1 9.0 10.2 8.8 10.1 8.75 9.95 8.8 9.75" fill="#ffeb74" fill-rule="evenodd" stroke="none"/>
    <path d="M1.55 7.3 L0.95 8.85 Q0.65 8.5 0.45 8.5 L-0.45 7.55 -0.85 6.9 Q0.15 8.0 1.55 7.3 M3.95 8.4 L2.45 8.85 2.35 7.3 3.05 7.8 Q4.0 8.0 5.15 7.3 L4.55 8.05 3.95 8.4" fill="#ffffff" fill-rule="evenodd" stroke="none"/>
    <path d="M9.4 0.85 L9.25 1.5 9.2 2.35 Q8.15 3.1 7.45 3.1 L5.85 2.8 3.9 2.25 2.15 1.45 1.25 1.1 1.1 1.05 1.35 0.35 2.1 0.25 3.85 0.65 5.6 1.05 7.35 1.05 8.85 0.85 9.4 0.85" fill="#363636" fill-rule="evenodd" stroke="none"/>
    <path d="M1.35 0.35 L1.35 -1.25 1.05 -2.95 0.95 -4.5 Q5.4 -6.5 9.85 -4.8 L10.5 -4.3 10.55 -4.05 10.55 -3.6 10.25 -2.3 9.65 -0.35 9.4 0.85 8.85 0.85 7.35 1.05 5.6 1.05 3.85 0.65 2.1 0.25 1.35 0.35 M9.25 1.5 L10.55 1.9 11.4 2.85 11.55 3.0 9.75 3.75 8.85 4.05 7.8 4.05 6.65 4.05 5.35 4.0 4.05 4.05 1.8 3.85 -0.2 3.1 -1.15 2.3 -1.55 1.7 -0.8 0.95 1.1 1.05 1.25 1.1 2.15 1.45 3.9 2.25 5.85 2.8 7.45 3.1 Q8.15 3.1 9.2 2.35 L9.25 1.5 M1.95 -3.9 L10.55 -3.6 1.95 -3.9" fill="#424242" fill-rule="evenodd" stroke="none"/>
    <path d="M1.35 0.35 L1.35 -1.25 1.05 -2.95 0.95 -4.5 Q5.4 -6.5 9.85 -4.8 L10.5 -4.3 10.55 -4.05 10.55 -3.6 10.25 -2.3 9.65 -0.35 9.4 0.85 9.25 1.5 10.55 1.9 11.4 2.85 11.55 3.0 9.75 3.75 8.85 4.05 7.8 4.05 6.65 4.05 5.35 4.0 4.05 4.05 1.8 3.85 -0.2 3.1 -1.15 2.3 -1.55 1.7 -0.8 0.95 1.1 1.05 1.35 0.35 2.1 0.25 3.85 0.65 5.6 1.05 7.35 1.05 8.85 0.85 9.4 0.85 M10.55 -3.6 L1.95 -3.9 M1.1 1.05 L1.25 1.1 2.15 1.45 3.9 2.25 5.85 2.8 7.45 3.1 Q8.15 3.1 9.2 2.35 L9.25 1.5" fill="none" stroke="#000000" stroke-linecap="round" stroke-linejoin="round" stroke-width="0.05"/>
  </g>
</svg>
