<?xml version="1.0" encoding="UTF-8" standalone="no"?>
<svg xmlns:xlink="http://www.w3.org/1999/xlink" height="13.15px" width="8.7px" xmlns="http://www.w3.org/2000/svg">
  <g transform="matrix(1.0, 0.0, 0.0, 1.0, 0.0, 0.0)">
    <path d="M0.5 5.35 L0.45 4.5 Q0.4 4.1 0.5 3.75 L1.05 2.1 Q1.25 1.35 2.7 -0.05 4.15 -1.45 6.15 -0.75 8.15 -0.1 8.6 0.95 L9.15 2.75 9.15 4.6 8.9 6.35 8.45 8.75 Q8.25 10.55 8.4 11.3 L8.45 11.45 8.15 11.55 Q6.2 12.55 4.4 11.85 L4.35 11.7 4.3 11.15 3.4 11.2 Q2.45 11.0 1.9 10.25 1.35 9.45 1.25 8.45 L1.0 6.95 1.3 6.8 1.8 6.25 1.35 5.8 0.5 5.35 M7.75 5.85 L7.75 6.75 Q7.8 7.65 7.5 8.2 L6.7 9.25 5.55 10.2 4.3 11.15 5.55 10.2 6.7 9.25 7.5 8.2 Q7.8 7.65 7.75 6.75 L7.75 5.85 M6.45 5.4 L6.5 5.2 Q6.35 4.75 5.8 4.95 L4.05 5.7 2.9 6.3 3.25 7.5 4.4 7.7 5.3 7.1 6.05 6.15 6.45 5.4 M7.25 4.45 L7.2 6.2 5.85 7.25 5.4 8.1 Q5.0 8.75 5.25 9.45 5.0 8.75 5.4 8.1 L5.85 7.25 7.2 6.2 7.25 4.45" fill="#474260" fill-rule="evenodd" stroke="none"/>
    <path d="M1.8 6.25 L1.3 6.8 1.0 6.95 0.75 6.3 1.8 6.25 M6.45 5.4 L6.05 6.15 5.3 7.1 4.4 7.7 3.25 7.5 2.9 6.3 Q3.45 6.85 4.2 6.75 L5.45 6.1 6.45 5.4" fill="#16151e" fill-rule="evenodd" stroke="none"/>
    <path d="M0.5 5.35 L1.35 5.8 1.8 6.25 0.75 6.3 0.5 5.35 M2.9 6.3 L4.05 5.7 5.8 4.95 Q6.35 4.75 6.5 5.2 L6.45 5.4 5.45 6.1 4.2 6.75 Q3.45 6.85 2.9 6.3" fill="#c492f5" fill-rule="evenodd" stroke="none"/>
    <path d="M8.4 11.3 Q8.25 10.55 8.45 8.75 L8.9 6.35 9.15 4.6 9.15 2.75 8.6 0.95 Q8.15 -0.1 6.15 -0.75 4.15 -1.45 2.7 -0.05 1.25 1.35 1.05 2.1 L0.5 3.75 Q0.4 4.1 0.45 4.5 L0.5 5.35 1.35 5.8 1.8 6.25 1.3 6.8 1.0 6.95 1.25 8.45 Q1.35 9.45 1.9 10.25 2.45 11.0 3.4 11.2 L4.3 11.15 5.55 10.2 6.7 9.25 7.5 8.2 Q7.8 7.65 7.75 6.75 L7.75 5.85 M2.9 6.3 L4.05 5.7 5.8 4.95 Q6.35 4.75 6.5 5.2 L6.45 5.4 6.05 6.15 5.3 7.1 4.4 7.7 3.25 7.5 2.9 6.3 Q3.45 6.85 4.2 6.75 L5.45 6.1 6.45 5.4 M1.8 6.25 L0.75 6.3 1.0 6.95 M5.25 9.45 Q5.0 8.75 5.4 8.1 L5.85 7.25 7.2 6.2 7.25 4.45 M0.5 5.35 L0.75 6.3" fill="none" stroke="#000000" stroke-linecap="round" stroke-linejoin="round" stroke-width="0.05"/>
  </g>
</svg>
