<?xml version="1.0" encoding="UTF-8" standalone="no"?>
<svg xmlns:xlink="http://www.w3.org/1999/xlink" height="14.95px" width="16.15px" xmlns="http://www.w3.org/2000/svg">
  <g transform="matrix(1.0, 0.0, 0.0, 1.0, 0.0, 0.0)">
    <path d="M8.35 6.2 L8.15 6.55 8.2 6.7 8.2 6.9 8.4 8.65 7.2 9.0 6.7 9.1 6.35 9.15 6.3 9.0 5.5 8.65 5.3 8.45 5.15 8.3 4.7 7.85 4.45 7.75 3.5 7.5 3.3 7.55 2.75 7.55 2.5 7.55 1.35 7.9 1.05 8.0 0.9 7.55 0.9 7.2 0.85 7.15 0.8 6.65 1.1 6.7 1.25 6.7 1.65 6.35 1.7 6.35 1.7 6.3 2.45 6.4 2.8 6.45 3.0 6.9 3.05 7.0 4.05 7.35 Q4.7 7.25 5.0 6.95 L5.15 6.8 5.35 6.5 5.5 6.45 6.6 6.35 8.35 6.2 M1.7 6.35 L2.45 6.4 1.7 6.35 M7.2 9.0 L7.3 8.3 Q7.3 7.6 7.6 6.95 L7.7 6.9 8.15 6.55 7.7 6.9 7.6 6.95 Q7.3 7.6 7.3 8.3 L7.2 9.0 M6.35 6.85 L6.1 7.3 5.6 7.65 5.45 7.85 5.5 8.65 5.45 7.85 5.6 7.65 6.1 7.3 6.35 6.85" fill="#4b5963" fill-rule="evenodd" stroke="none"/>
    <path d="M0.9 6.4 L0.95 6.2 1.2 6.25 0.9 6.4 M5.05 6.5 L4.8 6.6 4.75 6.65 4.3 6.8 3.9 6.85 Q3.35 6.75 2.95 6.45 L5.05 6.5 M1.25 6.25 L1.2 6.25 0.95 6.2 1.25 6.25" fill="#ffffff" fill-rule="evenodd" stroke="none"/>
    <path d="M0.8 6.65 L0.8 6.55 0.85 6.5 0.9 6.4 1.2 6.25 1.25 6.25 1.7 6.3 1.7 6.35 1.2 6.25 1.7 6.35 1.65 6.35 1.25 6.7 1.1 6.7 0.8 6.65 M2.95 6.45 Q3.35 6.75 3.9 6.85 L4.3 6.8 4.75 6.65 4.8 6.6 5.05 6.5 5.35 6.5 5.15 6.8 5.0 6.95 Q4.7 7.25 4.05 7.35 L3.05 7.0 3.0 6.9 2.8 6.45 2.95 6.45" fill="#233623" fill-rule="evenodd" stroke="none"/>
    <path d="M4.9 8.75 L5.05 8.5 5.25 8.45 5.3 8.45 5.5 8.65 6.3 9.0 6.35 9.15 5.25 9.2 4.9 8.75" fill="#252d30" fill-rule="evenodd" stroke="none"/>
    <path d="M0.5 2.05 Q0.85 0.5 1.95 -0.35 3.35 -1.35 4.8 -1.25 L5.4 -1.2 5.5 -1.2 Q6.95 -1.05 7.8 0.2 L7.95 0.45 8.3 1.15 8.35 1.25 8.45 1.5 8.65 2.1 8.95 2.15 Q10.25 2.3 11.4 2.9 L11.75 3.1 11.8 3.15 12.05 3.3 12.8 4.05 12.95 4.55 12.05 5.65 8.35 6.2 6.6 6.35 5.5 6.45 5.35 6.5 5.05 6.5 2.95 6.45 2.8 6.45 2.45 6.4 1.7 6.3 1.25 6.25 0.95 6.2 0.25 6.0 -0.05 5.95 -0.05 6.0 Q-2.75 5.25 -2.45 4.95 L-3.2 4.05 Q-2.1 2.5 -0.35 2.15 L-0.3 2.2 0.5 2.05 0.3 3.35 0.8 3.5 4.25 4.15 6.15 4.0 8.75 3.05 8.65 2.1 8.75 3.05 6.15 4.0 4.25 4.15 0.8 3.5 0.3 3.35 0.5 2.05 M1.05 2.75 L1.15 2.35 Q1.9 -0.1 4.6 -0.75 4.95 -0.8 5.4 -1.2 4.95 -0.8 4.6 -0.75 1.9 -0.1 1.15 2.35 L1.05 2.75 M7.95 0.45 L7.75 0.65 7.6 0.8 7.55 0.9 7.35 0.85 6.7 0.95 6.15 0.95 Q6.1 0.85 6.6 0.5 L6.75 0.35 Q7.15 0.1 7.4 0.15 L7.8 0.2 7.4 0.15 Q7.15 0.1 6.75 0.35 L6.6 0.5 Q6.1 0.85 6.15 0.95 L6.7 0.95 7.35 0.85 7.55 0.9 7.6 0.8 7.75 0.65 7.95 0.45 M6.75 1.55 L7.55 0.9 7.85 1.0 8.35 1.25 7.85 1.0 7.55 0.9 6.75 1.55 M11.4 2.9 L11.25 3.05 10.95 3.4 9.65 4.4 9.3 4.5 9.65 4.4 10.95 3.4 11.25 3.05 11.4 2.9 M9.25 5.5 L8.45 5.55 5.3 5.6 2.85 5.5 1.3 5.25 0.9 5.2 Q-0.95 4.8 -2.0 4.0 L-1.4 3.15 -0.3 2.2 -1.4 3.15 -2.0 4.0 Q-0.95 4.8 0.9 5.2 L1.3 5.25 2.85 5.5 5.3 5.6 8.45 5.55 9.25 5.5" fill="#918970" fill-rule="evenodd" stroke="none"/>
    <path d="M8.2 6.9 Q9.6 7.0 9.95 8.3 L9.8 8.95 10.25 9.65 10.05 10.5 9.25 11.45 9.0 11.75 8.7 12.0 Q6.9 13.45 4.45 13.7 2.3 13.8 0.9 12.4 0.35 11.0 0.3 9.65 L0.4 9.4 0.55 9.2 0.9 9.0 0.95 9.1 3.8 8.5 4.6 8.35 4.9 8.75 5.25 9.2 4.65 9.25 4.0 9.3 1.3 9.85 1.1 9.9 0.6 9.75 0.4 9.4 0.6 9.75 1.1 9.9 1.3 9.85 4.0 9.3 4.65 9.25 5.25 9.2 6.35 9.15 6.7 9.1 7.2 9.0 8.4 8.65 8.4 8.6 8.25 7.25 8.2 6.9 M8.25 7.25 Q9.35 7.65 8.7 8.4 L8.4 8.6 8.7 8.4 Q9.35 7.65 8.25 7.25 M5.0 10.8 L6.2 10.45 Q7.35 10.15 8.3 9.45 7.35 10.15 6.2 10.45 L5.0 10.8 M8.2 10.65 L9.0 10.0 8.2 10.65" fill="#4f4f31" fill-rule="evenodd" stroke="none"/>
    <path d="M0.5 2.05 Q0.85 0.5 1.95 -0.35 3.35 -1.35 4.8 -1.25 L5.4 -1.2 5.5 -1.2 Q6.95 -1.05 7.8 0.2 L7.95 0.45 8.3 1.15 8.35 1.25 8.45 1.5 8.65 2.1 8.95 2.15 Q10.25 2.3 11.4 2.9 L11.75 3.1 M11.8 3.15 L12.05 3.3 12.8 4.05 12.95 4.55 12.05 5.65 8.35 6.2 8.15 6.55 8.2 6.7 8.2 6.9 Q9.6 7.0 9.95 8.3 L9.8 8.95 10.25 9.65 10.05 10.5 9.25 11.45 9.0 11.75 8.7 12.0 Q6.9 13.45 4.45 13.7 2.3 13.8 0.9 12.4 0.35 11.0 0.3 9.65 L0.4 9.4 0.55 9.2 0.9 9.0 3.8 8.5 4.6 8.35 4.9 8.75 5.25 9.2 4.65 9.25 4.0 9.3 1.3 9.85 1.1 9.9 0.6 9.75 0.4 9.4 M1.35 7.9 L1.05 8.0 0.9 7.55 0.9 7.2 0.85 7.15 0.8 6.65 0.8 6.55 0.85 6.5 0.9 6.4 0.95 6.2 0.25 6.1 -0.05 6.0 Q-2.75 5.25 -2.45 4.95 L-3.2 4.05 Q-2.1 2.5 -0.35 2.15 L0.5 2.05 0.3 3.35 0.8 3.5 4.25 4.15 6.15 4.0 8.75 3.05 8.65 2.1 M5.05 6.5 L4.8 6.6 4.75 6.65 4.3 6.8 3.9 6.85 Q3.35 6.75 2.95 6.45 L2.8 6.45 3.0 6.9 3.05 7.0 4.05 7.35 Q4.7 7.25 5.0 6.95 L5.15 6.8 5.35 6.5 5.05 6.5 2.95 6.45 M2.45 6.4 L1.7 6.35 1.65 6.35 1.25 6.7 1.1 6.7 0.8 6.65 M1.7 6.35 L1.7 6.3 M1.25 6.25 L1.2 6.25 1.7 6.35 M2.45 6.4 L2.8 6.45 M0.95 6.2 L1.2 6.25 0.9 6.4 M0.95 9.1 L3.8 8.5 M8.4 8.65 L8.4 8.6 8.25 7.25 8.2 6.9 8.4 8.65 7.2 9.0 6.7 9.1 6.35 9.15 5.25 9.2 M8.15 6.55 L7.7 6.9 7.6 6.95 Q7.3 7.6 7.3 8.3 L7.2 9.0 M8.4 8.6 L8.7 8.4 Q9.35 7.65 8.25 7.25 M8.35 6.2 L6.6 6.35 5.5 6.45 5.35 6.5 M5.5 8.65 L5.45 7.85 5.6 7.65 6.1 7.3 6.35 6.85 M5.3 8.45 L5.5 8.65 6.3 9.0 6.35 9.15 M9.0 10.0 L8.2 10.65 M8.3 9.45 Q7.35 10.15 6.2 10.45 L5.0 10.8" fill="none" stroke="#000000" stroke-linecap="round" stroke-linejoin="round" stroke-width="0.05"/>
    <path d="M5.4 -1.2 Q4.95 -0.8 4.6 -0.75 1.9 -0.1 1.15 2.35 L1.05 2.75 M-0.3 2.2 L-1.4 3.15 -2.0 4.0 Q-0.95 4.8 0.9 5.2 L1.3 5.25 2.85 5.5 5.3 5.6 8.45 5.55 9.25 5.5" fill="none" stroke="#ddbca3" stroke-linecap="round" stroke-linejoin="round" stroke-width="0.05"/>
    <path d="M11.75 3.1 L11.8 3.15 M9.3 4.5 L9.65 4.4 10.95 3.4 11.25 3.05 11.4 2.9 M8.35 1.25 L7.85 1.0 7.55 0.9 6.75 1.55 M7.8 0.2 L7.4 0.15 Q7.15 0.1 6.75 0.35 L6.6 0.5 Q6.1 0.85 6.15 0.95 L6.7 0.95 7.35 0.85 7.55 0.9 7.6 0.8 7.75 0.65 7.95 0.45" fill="none" stroke="#3e2617" stroke-linecap="round" stroke-linejoin="round" stroke-width="0.05"/>
    <path d="M3.5 7.5 L4.45 7.75 4.7 7.85 5.15 8.3 5.3 8.45 5.25 8.45 5.05 8.5 Q4.95 8.9 4.55 8.85 4.65 8.5 4.25 8.5 L4.15 8.75 4.0 8.85 3.85 8.85 3.6 8.5 3.6 8.6 Q3.55 9.0 3.15 8.9 L3.0 8.8 2.65 8.3 2.6 8.4 2.6 8.85 2.2 8.85 Q1.9 8.75 1.95 8.45 2.0 8.15 1.85 8.35 L1.6 8.7 1.4 8.45 1.35 7.9 2.5 7.55 2.75 7.55 3.3 7.55 3.5 7.5" fill="#b49a6e" fill-rule="evenodd" stroke="none"/>
    <path d="M3.5 7.5 L4.45 7.75 4.7 7.85 5.15 8.3 5.3 8.45 5.25 8.45 5.05 8.5 Q4.95 8.9 4.55 8.85 4.65 8.5 4.25 8.5 L4.15 8.75 4.0 8.85 3.85 8.85 3.6 8.5 3.6 8.6 Q3.55 9.0 3.15 8.9 L3.0 8.8 2.65 8.3 2.6 8.4 2.6 8.85 2.2 8.85 Q1.9 8.75 1.95 8.45 2.0 8.15 1.85 8.35 L1.6 8.7 1.4 8.45 1.35 7.9 2.5 7.55 2.75 7.55 3.3 7.55 3.5 7.5 Z" fill="none" stroke="#000000" stroke-linecap="round" stroke-linejoin="round" stroke-width="0.05"/>
  </g>
</svg>
