<?xml version="1.0" encoding="UTF-8" standalone="no"?>
<svg xmlns:xlink="http://www.w3.org/1999/xlink" height="12.95px" width="13.4px" xmlns="http://www.w3.org/2000/svg">
  <g transform="matrix(1.0, 0.0, 0.0, 1.0, 0.0, 0.0)">
    <path d="M0.9 5.35 L1.3 5.55 1.5 5.7 0.9 6.4 0.9 5.35 M2.75 6.25 L2.85 5.65 5.05 5.25 5.35 5.75 5.05 6.5 4.3 6.8 3.5 6.75 2.75 6.25" fill="#ffffff" fill-rule="evenodd" stroke="none"/>
    <path d="M1.5 5.7 L1.65 5.8 1.7 6.25 1.65 6.35 1.25 6.7 1.1 6.7 0.8 6.65 0.8 6.55 0.85 6.5 0.9 6.4 1.5 5.7 M5.35 5.75 Q5.5 6.3 5.15 6.8 L5.0 6.95 Q4.7 7.25 4.05 7.35 L3.05 7.0 3.0 6.9 2.75 6.25 3.5 6.75 4.3 6.8 5.05 6.5 5.35 5.75" fill="#233623" fill-rule="evenodd" stroke="none"/>
    <path d="M6.8 4.75 L7.45 4.3 Q8.4 4.45 8.45 5.5 L8.45 5.85 8.45 5.5 Q8.4 4.45 7.45 4.3 L6.8 4.75 M0.6 4.65 L0.65 4.25 1.05 2.6 1.6 1.5 Q2.05 0.7 3.0 0.35 L6.15 0.15 7.1 0.55 8.3 1.35 Q9.6 2.6 9.65 4.4 9.65 5.6 8.45 5.85 L8.15 6.55 7.7 6.9 7.6 6.95 Q7.3 7.6 7.3 8.3 L7.2 9.7 Q7.15 10.4 6.3 10.7 L4.45 11.15 6.3 10.7 Q7.15 10.4 7.2 9.7 L7.3 8.3 Q7.3 7.6 7.6 6.95 L7.7 6.9 8.15 6.55 8.2 6.7 8.65 11.35 8.15 11.8 4.25 11.95 4.45 11.15 3.0 11.25 Q2.25 11.3 1.8 10.8 1.3 10.25 1.3 9.55 L1.25 8.95 1.25 8.8 1.2 8.6 1.05 8.0 0.9 7.55 0.9 7.2 0.85 7.15 0.8 6.65 1.1 6.7 1.25 6.7 1.65 6.35 1.7 6.25 1.65 5.8 1.5 5.7 1.3 5.55 0.9 5.35 0.6 4.65 1.2 4.65 1.55 4.65 1.2 4.65 0.6 4.65 M1.95 4.7 L2.0 5.1 1.95 4.7 M5.2 9.5 Q2.8 8.85 1.25 8.95 2.8 8.85 5.2 9.5 M5.35 5.75 L5.05 5.25 2.85 5.65 2.75 6.25 3.0 6.9 3.05 7.0 4.05 7.35 Q4.7 7.25 5.0 6.95 L5.15 6.8 Q5.5 6.3 5.35 5.75 M6.4 6.45 L6.35 6.85 6.1 7.3 5.6 7.65 5.45 7.85 5.5 8.75 5.45 7.85 5.6 7.65 6.1 7.3 6.35 6.85 6.4 6.45 M2.85 9.7 L1.95 9.5 2.85 9.7 M5.85 4.9 L2.85 5.05 5.85 4.9" fill="#cfd7da" fill-rule="evenodd" stroke="none"/>
    <path d="M8.45 5.85 L8.45 5.5 Q8.4 4.45 7.45 4.3 L6.8 4.75 M8.15 6.55 L8.45 5.85 Q9.65 5.6 9.65 4.4 9.6 2.6 8.3 1.35 L7.1 0.55 6.15 0.15 3.0 0.35 Q2.05 0.7 1.6 1.5 L1.05 2.6 0.65 4.25 0.6 4.65 0.9 5.35 1.3 5.55 1.5 5.7 0.9 6.4 0.85 6.5 0.8 6.55 0.8 6.65 0.85 7.15 0.9 7.2 0.9 7.55 1.05 8.0 1.2 8.6 1.25 8.8 1.25 8.95 Q2.8 8.85 5.2 9.5 M2.0 5.1 L1.95 4.7 M1.5 5.7 L1.65 5.8 1.7 6.25 1.65 6.35 1.25 6.7 1.1 6.7 0.8 6.65 M2.75 6.25 L2.85 5.65 5.05 5.25 5.35 5.75 Q5.5 6.3 5.15 6.8 L5.0 6.95 Q4.7 7.25 4.05 7.35 L3.05 7.0 3.0 6.9 2.75 6.25 3.5 6.75 4.3 6.8 5.05 6.5 5.35 5.75 M1.25 8.95 L1.3 9.55 Q1.3 10.25 1.8 10.8 2.25 11.3 3.0 11.25 L4.45 11.15 6.3 10.7 Q7.15 10.4 7.2 9.7 L7.3 8.3 Q7.3 7.6 7.6 6.95 L7.7 6.9 8.15 6.55 8.2 6.7 8.65 11.35 M4.25 11.95 L4.45 11.15 M1.95 9.5 L2.85 9.7 M5.5 8.75 L5.45 7.85 5.6 7.65 6.1 7.3 6.35 6.85 6.4 6.45 M0.9 5.35 L0.9 6.4" fill="none" stroke="#000000" stroke-linecap="round" stroke-linejoin="round" stroke-width="0.05"/>
    <path d="M0.6 4.65 L1.2 4.65 1.55 4.65 M2.85 5.05 L5.85 4.9" fill="none" stroke="#ffffff" stroke-linecap="round" stroke-linejoin="round" stroke-width="0.05"/>
    <path d="M6.05 3.9 Q5.7 4.45 6.0 5.0 L6.05 5.15 6.7 5.7 Q5.5 5.9 4.65 5.0 L4.35 2.8 3.95 2.3 2.7 2.0 Q2.25 2.45 2.15 1.75 L1.45 2.35 1.0 3.45 -0.1 4.05 Q-0.1 4.65 -0.55 4.65 -0.85 4.0 -0.35 3.5 L0.05 2.55 Q0.15 1.8 0.5 1.2 1.1 0.7 1.8 0.5 L2.0 0.35 Q2.5 0.0 3.15 -0.1 L4.15 -0.5 7.05 -0.45 9.4 0.7 Q10.0 0.9 10.05 1.05 10.05 1.2 9.8 1.15 L9.7 1.25 Q10.15 3.05 11.85 3.9 L12.25 4.3 11.95 4.3 10.9 4.15 Q10.8 4.5 11.15 4.95 11.85 5.75 11.8 6.8 11.7 8.05 12.75 8.85 L12.05 8.85 Q11.2 8.6 10.45 7.95 9.95 8.2 10.35 8.6 L11.1 9.35 Q10.55 9.5 10.1 9.1 L9.0 8.25 9.35 8.8 9.4 8.95 9.4 9.0 9.05 8.9 Q8.7 8.7 8.5 8.5 8.25 8.25 8.25 7.85 8.25 7.4 8.0 7.55 7.9 8.45 7.75 7.6 L7.7 6.85 Q8.2 6.45 8.3 5.7 8.35 4.95 7.8 4.5 6.95 4.45 6.85 4.95 L6.7 4.7 6.6 4.3 Q6.3 4.45 6.05 3.9 6.75 3.1 6.55 2.1 6.4 1.4 5.9 0.95 L4.1 1.05 5.9 0.95 Q6.4 1.4 6.55 2.1 6.75 3.1 6.05 3.9" fill="#ffffff" fill-rule="evenodd" stroke="none"/>
    <path d="M9.4 8.95 L9.35 8.8 9.0 8.25 10.1 9.1 Q10.55 9.5 11.1 9.35 L10.35 8.6 Q9.95 8.2 10.45 7.95 11.2 8.6 12.05 8.85 L12.75 8.85 Q11.7 8.05 11.8 6.8 11.85 5.75 11.15 4.95 10.8 4.5 10.9 4.15 L11.95 4.3 12.25 4.3 11.85 3.9 Q10.15 3.05 9.7 1.25 L9.8 1.15 Q10.05 1.2 10.05 1.05 10.0 0.9 9.4 0.7 L7.05 -0.45 4.15 -0.5 3.15 -0.1 Q2.5 0.0 2.0 0.35 L1.8 0.5 Q1.1 0.7 0.5 1.2 0.15 1.8 0.05 2.55 L-0.35 3.5 Q-0.85 4.0 -0.55 4.65 -0.1 4.65 -0.1 4.05 L1.0 3.45 1.45 2.35 2.15 1.75 Q2.25 2.45 2.7 2.0 L3.95 2.3 4.35 2.8 4.65 5.0 Q5.5 5.9 6.7 5.7 L6.05 5.15 6.0 5.0 Q5.7 4.45 6.05 3.9 6.75 3.1 6.55 2.1 6.4 1.4 5.9 0.95 L4.1 1.05 M6.05 3.9 Q6.3 4.45 6.6 4.3 L6.7 4.7 6.85 4.95 Q6.95 4.45 7.8 4.5 8.35 4.95 8.3 5.7 8.2 6.45 7.7 6.85 L7.75 7.6 Q7.9 8.45 8.0 7.55 8.25 7.4 8.25 7.85 8.25 8.25 8.5 8.5 8.7 8.7 9.05 8.9 L9.4 9.0 9.45 9.0 9.4 8.95" fill="none" stroke="#000000" stroke-linecap="round" stroke-linejoin="round" stroke-width="0.05"/>
  </g>
</svg>
