<?xml version="1.0" encoding="UTF-8" standalone="no"?>
<svg xmlns:xlink="http://www.w3.org/1999/xlink" height="12.8px" width="9.2px" xmlns="http://www.w3.org/2000/svg">
  <g transform="matrix(1.0, 0.0, 0.0, 1.0, 0.0, 0.0)">
    <path d="M5.35 5.75 L5.4 5.9 5.3 5.9 5.3 5.8 5.35 5.75" fill="#233623" fill-rule="evenodd" stroke="none"/>
    <path d="M0.9 5.15 L0.65 4.8 0.6 4.65 0.65 4.25 0.95 2.9 1.05 2.6 1.2 2.25 1.6 1.5 1.7 1.35 Q2.15 0.65 3.0 0.35 L3.85 0.1 6.15 0.15 6.4 0.25 7.1 0.55 8.3 1.35 Q9.05 2.05 9.4 2.95 L9.55 3.6 9.65 4.4 Q9.65 5.6 8.45 5.85 L8.45 5.5 Q8.4 4.45 7.45 4.3 L6.8 4.75 7.45 4.3 Q8.4 4.45 8.45 5.5 L8.45 5.85 8.15 6.55 7.7 6.9 7.6 6.95 Q7.3 7.6 7.3 8.3 L7.05 9.4 5.7 10.3 4.25 10.8 5.7 10.3 7.05 9.4 7.3 8.3 Q7.3 7.6 7.6 6.95 L7.7 6.9 8.15 6.55 8.2 6.7 8.55 10.2 8.35 10.5 Q7.9 10.85 7.35 11.0 L5.65 11.4 Q4.7 11.6 4.3 11.05 L4.25 10.8 2.7 11.2 Q1.8 11.35 1.45 10.4 1.05 9.45 1.15 9.15 L1.25 8.85 1.25 8.8 1.2 8.6 1.05 8.0 0.9 7.55 0.9 7.2 0.85 7.15 0.8 6.65 1.25 6.7 Q1.8 6.55 1.6 6.05 L1.55 6.0 1.5 5.95 1.55 6.0 1.5 6.05 1.5 5.95 1.45 5.9 1.4 5.85 1.2 5.65 0.9 5.15 M5.5 8.75 L4.3 8.55 4.15 9.0 4.05 9.35 4.0 9.45 3.8 9.25 3.2 8.4 2.3 9.5 2.0 7.95 2.0 8.0 1.25 8.85 2.0 8.0 2.0 7.95 2.3 9.5 3.2 8.4 3.8 9.25 4.0 9.45 4.05 9.35 4.15 9.0 4.3 8.55 5.5 8.75 5.45 7.85 5.6 7.65 6.1 7.3 6.35 6.85 6.1 7.3 5.6 7.65 5.45 7.85 5.5 8.75 M5.4 5.9 L5.35 5.75 5.05 5.25 Q4.3 5.85 3.0 6.1 L2.75 6.25 3.0 6.9 3.05 7.0 4.05 7.35 Q4.7 7.25 5.0 6.95 L5.15 6.8 5.4 5.9 M1.95 4.7 L2.0 5.1 1.95 4.7 M5.45 4.75 L4.15 4.5 5.45 4.75" fill="#333333" fill-rule="evenodd" stroke="none"/>
    <path d="M1.4 5.85 L1.45 5.9 1.5 5.95 1.4 5.85 M1.6 6.05 Q1.8 6.55 1.25 6.7 L0.8 6.65 0.9 6.4 1.6 6.05 M5.3 5.9 L5.4 5.9 5.15 6.8 5.0 6.95 Q4.7 7.25 4.05 7.35 L3.05 7.0 3.0 6.9 2.75 6.25 3.5 6.75 5.05 6.5 5.3 5.9" fill="#000000" fill-rule="evenodd" stroke="none"/>
    <path d="M0.9 5.15 L1.2 5.65 1.4 5.85 1.5 5.95 1.5 6.05 1.55 6.0 1.6 6.05 0.9 6.4 0.95 6.0 0.9 5.15 M5.35 5.75 L5.3 5.8 5.3 5.9 5.05 6.5 3.5 6.75 2.75 6.25 3.0 6.1 Q4.3 5.85 5.05 5.25 L5.35 5.75 M1.55 6.0 L1.6 6.05 1.55 6.0" fill="#ff0000" fill-rule="evenodd" stroke="none"/>
    <path d="M8.55 10.2 L9.35 10.5 9.7 10.7 Q10.0 11.15 9.45 11.6 L9.3 11.85 Q6.8 13.25 4.0 12.6 3.2 12.3 3.25 11.45 L4.3 11.05 Q4.7 11.6 5.65 11.4 L7.35 11.0 Q7.9 10.85 8.35 10.5 L8.55 10.2" fill="url(#gradient0)" fill-rule="evenodd" stroke="none"/>
    <path d="M8.45 5.85 Q9.65 5.6 9.65 4.4 L9.55 3.6 9.4 2.95 Q9.05 2.05 8.3 1.35 L7.1 0.55 6.4 0.25 6.15 0.15 3.85 0.1 3.0 0.35 Q2.15 0.65 1.7 1.35 L1.6 1.5 1.2 2.25 1.05 2.6 0.95 2.9 0.65 4.25 0.6 4.65 0.65 4.8 0.9 5.15 1.2 5.65 1.4 5.85 1.45 5.9 1.5 5.95 1.55 6.0 1.6 6.05 1.55 6.0 1.5 6.05 1.5 5.95 1.4 5.85 M0.8 6.65 L0.85 7.15 0.9 7.2 0.9 7.55 1.05 8.0 1.2 8.6 1.25 8.8 1.25 8.85 1.15 9.15 Q1.05 9.45 1.45 10.4 1.8 11.35 2.7 11.2 L4.25 10.8 5.7 10.3 7.05 9.4 7.3 8.3 Q7.3 7.6 7.6 6.95 L7.7 6.9 8.15 6.55 8.2 6.7 8.55 10.2 9.35 10.5 9.7 10.7 Q10.0 11.15 9.45 11.6 L9.3 11.85 Q6.8 13.25 4.0 12.6 3.2 12.3 3.25 11.45 L4.3 11.05 4.25 10.8 M5.5 8.75 L5.45 7.85 5.6 7.65 6.1 7.3 6.35 6.85 M5.4 5.9 L5.35 5.75 5.3 5.8 5.3 5.9 5.05 6.5 3.5 6.75 2.75 6.25 3.0 6.1 Q4.3 5.85 5.05 5.25 L5.35 5.75 M3.05 7.0 L3.0 6.9 M8.45 5.85 L8.45 5.5 Q8.4 4.45 7.45 4.3 L6.8 4.75 M8.15 6.55 L8.45 5.85 M0.9 5.15 L0.95 6.0 0.9 6.4 1.6 6.05 M2.0 5.1 L1.95 4.7 M0.9 6.4 L0.8 6.65 M4.3 11.05 Q4.7 11.6 5.65 11.4 L7.35 11.0 Q7.9 10.85 8.35 10.5 L8.55 10.2 M4.15 4.5 L5.45 4.75" fill="none" stroke="#000000" stroke-linecap="round" stroke-linejoin="round" stroke-width="0.05"/>
    <path d="M1.25 8.85 L2.0 8.0 2.0 7.95 2.3 9.5 3.2 8.4 3.8 9.25 4.0 9.45 4.05 9.35 4.15 9.0 4.3 8.55 5.5 8.75" fill="none" stroke="#ff0000" stroke-linecap="round" stroke-linejoin="round" stroke-width="0.05"/>
  </g>
  <defs>
    <linearGradient gradientTransform="matrix(0.004, 0.0, 0.0, 0.0016, 6.5, 11.5)" gradientUnits="userSpaceOnUse" id="gradient0" spreadMethod="pad" x1="-819.2" x2="819.2">
      <stop offset="0.0" stop-color="#564036"/>
      <stop offset="0.5137254901960784" stop-color="#aa9960"/>
      <stop offset="1.0" stop-color="#564036"/>
    </linearGradient>
  </defs>
</svg>
