<?xml version="1.0" encoding="UTF-8" standalone="no"?>
<svg xmlns:xlink="http://www.w3.org/1999/xlink" height="12.25px" width="9.05px" xmlns="http://www.w3.org/2000/svg">
  <g transform="matrix(1.0, 0.0, 0.0, 1.0, 0.0, 0.0)">
    <path d="M0.9 5.15 L0.6 4.65 0.65 4.25 1.05 2.6 1.6 1.5 Q2.05 0.7 3.0 0.35 L6.15 0.15 7.1 0.55 8.3 1.35 Q9.6 2.6 9.65 4.4 9.65 5.6 8.45 5.85 L8.45 5.5 Q8.4 4.45 7.45 4.3 L7.0 4.65 7.45 4.3 Q8.4 4.45 8.45 5.5 L8.45 5.85 8.35 6.55 7.7 6.9 7.6 6.95 Q7.3 7.6 7.3 8.3 L7.05 9.4 5.7 10.3 3.6 10.8 5.7 10.3 7.05 9.4 7.3 8.3 Q7.3 7.6 7.6 6.95 L7.7 6.9 8.35 6.55 8.45 6.75 9.1 11.4 Q8.4 11.55 8.15 11.8 L3.8 12.0 3.6 10.8 2.45 11.0 Q1.35 10.95 1.35 10.2 L1.25 9.2 1.2 8.85 1.2 8.6 0.9 7.95 0.9 7.6 0.9 7.2 0.85 7.15 0.8 6.65 1.1 6.7 1.25 6.7 1.65 6.35 1.7 6.25 1.65 5.8 1.5 5.5 Q1.3 5.85 0.9 5.15 M1.65 8.25 L1.85 8.6 1.8 8.6 1.6 8.6 1.2 8.6 1.6 8.6 1.8 8.6 1.85 8.6 1.65 8.25 M5.35 5.75 L5.25 5.5 5.05 5.25 4.85 5.1 Q4.5 4.95 3.95 5.35 L2.85 5.45 2.75 5.8 2.75 6.0 2.75 6.25 3.0 6.9 3.05 7.0 4.05 7.35 Q4.7 7.25 5.0 6.95 L5.15 6.8 Q5.5 6.3 5.35 5.75 M5.85 4.9 L5.45 4.75 4.05 4.9 2.6 5.3 4.05 4.9 5.45 4.75 5.85 4.9 M1.85 8.6 L1.95 8.6 2.35 8.5 2.65 8.5 2.65 8.8 2.65 8.5 2.35 8.5 1.95 8.6 1.85 8.6 M3.5 8.95 L3.55 8.5 3.45 8.5 3.1 8.5 2.75 8.5 2.65 8.5 2.65 8.45 2.65 8.1 2.65 8.45 2.65 8.5 2.75 8.5 3.1 8.5 3.45 8.5 3.55 8.5 3.5 8.95 M4.55 8.85 L4.35 8.6 4.3 8.55 4.1 8.55 3.65 8.55 3.55 8.5 3.6 8.25 3.55 8.5 3.65 8.55 4.1 8.55 4.3 8.55 4.35 8.6 4.55 8.85 M1.95 4.7 L2.0 5.1 1.95 4.7 M6.4 6.45 L6.35 6.85 6.1 7.3 5.6 7.65 5.45 7.85 5.5 8.75 5.45 7.85 5.6 7.65 6.1 7.3 6.35 6.85 6.4 6.45 M1.9 8.9 L1.8 8.6 1.9 8.9" fill="#4b5963" fill-rule="evenodd" stroke="none"/>
    <path d="M0.9 5.15 Q1.3 5.85 1.5 5.5 L1.25 6.2 0.9 6.4 1.0 6.0 0.9 5.6 0.9 5.15 M5.35 5.75 L5.3 5.8 5.3 5.9 5.2 6.15 4.8 6.6 4.75 6.65 4.3 6.8 3.9 6.85 Q3.35 6.75 2.95 6.45 L2.75 6.25 2.75 6.0 2.75 5.8 2.85 5.45 3.95 5.35 Q4.5 4.95 4.85 5.1 L5.05 5.25 5.25 5.5 5.35 5.75" fill="#ffffff" fill-rule="evenodd" stroke="none"/>
    <path d="M1.5 5.5 L1.65 5.8 1.7 6.25 1.65 6.35 1.25 6.7 1.1 6.7 0.8 6.65 0.8 6.55 0.85 6.5 0.9 6.4 1.25 6.2 1.5 5.5 M2.75 6.25 L2.95 6.45 Q3.35 6.75 3.9 6.85 L4.3 6.8 4.75 6.65 4.8 6.6 5.2 6.15 5.3 5.9 5.3 5.8 5.35 5.75 Q5.5 6.3 5.15 6.8 L5.0 6.95 Q4.7 7.25 4.05 7.35 L3.05 7.0 3.0 6.9 2.75 6.25" fill="#233623" fill-rule="evenodd" stroke="none"/>
    <path d="M8.45 5.85 Q9.65 5.6 9.65 4.4 9.6 2.6 8.3 1.35 L7.1 0.55 6.15 0.15 3.0 0.35 Q2.05 0.7 1.6 1.5 L1.05 2.6 0.65 4.25 0.6 4.65 0.9 5.15 Q1.3 5.85 1.5 5.5 L1.65 5.8 1.7 6.25 1.65 6.35 1.25 6.7 1.1 6.7 0.8 6.65 0.85 7.15 0.9 7.2 0.9 7.6 0.9 7.95 1.2 8.6 1.6 8.6 1.8 8.6 1.85 8.6 1.65 8.25 M2.75 6.25 L2.95 6.45 Q3.35 6.75 3.9 6.85 L4.3 6.8 4.75 6.65 4.8 6.6 5.2 6.15 5.3 5.9 5.3 5.8 5.35 5.75 5.25 5.5 5.05 5.25 4.85 5.1 Q4.5 4.95 3.95 5.35 L2.85 5.45 2.75 5.8 2.75 6.0 2.75 6.25 3.0 6.9 3.05 7.0 4.05 7.35 Q4.7 7.25 5.0 6.95 L5.15 6.8 Q5.5 6.3 5.35 5.75 M8.45 5.85 L8.45 5.5 Q8.4 4.45 7.45 4.3 L7.0 4.65 M2.6 5.3 L4.05 4.9 5.45 4.75 5.85 4.9 M8.35 6.55 L8.45 5.85 M0.9 5.15 L0.9 5.6 1.0 6.0 0.9 6.4 1.25 6.2 1.5 5.5 M2.0 5.1 L1.95 4.7 M3.6 8.25 L3.55 8.5 3.65 8.55 4.1 8.55 4.3 8.55 4.35 8.6 4.55 8.85 M2.65 8.1 L2.65 8.45 2.65 8.5 2.75 8.5 3.1 8.5 3.45 8.5 3.55 8.5 3.5 8.95 M2.65 8.8 L2.65 8.5 2.35 8.5 1.95 8.6 1.85 8.6 M0.9 6.4 L0.85 6.5 0.8 6.55 0.8 6.65 M1.2 8.6 L1.2 8.85 1.25 9.2 1.35 10.2 Q1.35 10.95 2.45 11.0 L3.6 10.8 5.7 10.3 7.05 9.4 7.3 8.3 Q7.3 7.6 7.6 6.95 L7.7 6.9 8.35 6.55 8.45 6.75 9.1 11.4 M3.8 12.0 L3.6 10.8 M1.8 8.6 L1.9 8.9 M5.5 8.75 L5.45 7.85 5.6 7.65 6.1 7.3 6.35 6.85 6.4 6.45" fill="none" stroke="#000000" stroke-linecap="round" stroke-linejoin="round" stroke-width="0.05"/>
  </g>
</svg>
