<?xml version="1.0" encoding="UTF-8" standalone="no"?>
<svg xmlns:xlink="http://www.w3.org/1999/xlink" height="10.8px" width="8.1px" xmlns="http://www.w3.org/2000/svg">
  <g transform="matrix(1.0, 0.0, 0.0, 1.0, 0.0, 0.0)">
    <path d="M7.75 8.75 L7.0 9.7 7.6 10.95 5.65 11.2 5.15 10.7 6.0 9.65 5.3 9.0 5.8 7.95 6.85 7.65 7.3 7.8 7.65 8.1 7.75 8.75 M6.0 9.65 L7.0 9.7 6.0 9.65" fill="#b49a6e" fill-rule="evenodd" stroke="none"/>
    <path d="M7.75 8.75 L7.0 9.7 7.6 10.95 5.65 11.2 5.15 10.7 6.0 9.65 5.3 9.0 5.8 7.95 6.85 7.65 7.3 7.8 7.65 8.1 7.75 8.75 M7.0 9.7 L6.0 9.65" fill="none" stroke="#000000" stroke-linecap="round" stroke-linejoin="round" stroke-width="0.05"/>
    <path d="M7.1 2.75 L6.6 2.45 6.4 2.15 Q6.2 1.7 5.75 1.65 L5.75 1.5 5.75 1.35 5.95 1.1 6.1 0.95 6.0 0.5 6.1 0.95 5.95 1.1 5.75 1.35 5.75 1.5 5.75 1.65 Q6.2 1.7 6.4 2.15 L6.6 2.45 7.1 2.75 M1.6 2.2 L2.1 1.5 Q2.9 0.75 3.8 0.6 L5.65 0.45 6.0 0.5 7.45 1.1 Q8.25 1.7 8.6 2.5 L8.95 3.7 8.7 5.2 Q8.35 5.95 7.45 6.35 8.05 7.1 6.9 7.15 L6.45 7.1 6.4 7.2 6.35 7.35 6.8 7.5 6.75 9.4 Q5.25 10.35 3.45 10.55 L1.5 10.4 Q1.2 9.75 1.2 9.0 L1.2 8.8 1.1 8.65 1.1 8.25 1.1 8.05 1.0 6.85 1.0 6.6 Q1.85 6.3 1.25 5.55 L1.0 5.3 0.95 5.25 0.9 4.8 0.85 4.6 1.25 2.95 1.6 2.2 2.1 2.6 1.6 2.2 M5.1 2.65 L5.05 2.4 5.25 2.15 5.55 1.9 5.75 1.65 5.55 1.9 5.25 2.15 5.05 2.4 5.1 2.65 M7.55 4.3 Q7.15 4.5 6.85 4.8 L6.45 5.4 6.45 5.7 6.45 5.4 6.85 4.8 Q7.15 4.5 7.55 4.3 M1.5 8.35 L1.6 8.9 1.2 8.8 1.6 8.9 1.5 8.35 M1.95 4.8 L1.95 5.05 1.95 5.4 1.95 5.05 1.95 4.8 M2.75 5.3 L2.65 5.85 2.7 6.25 Q3.05 6.8 3.9 6.85 L4.3 6.65 5.1 5.95 4.9 5.3 4.5 5.05 4.0 4.9 3.5 5.05 2.75 5.3 M3.8 8.7 L3.9 9.25 Q4.45 8.5 4.75 8.45 L5.15 8.15 3.85 8.35 3.8 8.7 2.85 8.95 2.85 9.2 2.85 8.95 3.8 8.7 M2.75 8.4 L2.85 8.95 2.15 8.95 2.1 8.25 2.15 8.95 2.85 8.95 2.75 8.4 M2.4 7.15 L2.15 6.55 1.85 6.25 Q1.65 6.85 1.8 7.3 L2.15 7.5 Q2.6 7.5 2.4 7.15 M5.5 7.05 L6.45 7.1 5.5 7.05 M1.65 9.3 L1.6 8.9 2.15 8.95 2.2 9.35 2.15 8.95 1.6 8.9 1.65 9.3 M5.15 8.15 L5.75 7.45 6.0 7.25 6.35 7.35 6.0 7.25 5.75 7.45 5.15 8.15 M7.05 5.85 L7.45 6.35 7.05 5.85" fill="#b49a6e" fill-rule="evenodd" stroke="none"/>
    <path d="M1.0 5.3 L1.25 5.55 Q1.85 6.3 1.0 6.6 L1.05 6.0 1.0 5.3 M3.6 5.45 Q2.95 5.6 3.35 6.15 L3.6 6.2 Q4.4 5.85 3.6 5.45 M2.75 5.3 L3.5 5.05 4.0 4.9 4.5 5.05 4.9 5.3 5.1 5.95 4.3 6.65 3.9 6.85 Q3.05 6.8 2.7 6.25 L2.65 5.85 2.75 5.3 M3.8 8.7 L3.85 8.35 5.15 8.15 4.75 8.45 Q4.45 8.5 3.9 9.25 L3.8 8.7 M2.4 7.15 Q2.6 7.5 2.15 7.5 L1.8 7.3 Q1.65 6.85 1.85 6.25 L2.15 6.55 2.4 7.15" fill="#26211c" fill-rule="evenodd" stroke="none"/>
    <path d="M3.6 5.45 Q4.4 5.85 3.6 6.2 L3.35 6.15 Q2.95 5.6 3.6 5.45" fill="#37d52b" fill-rule="evenodd" stroke="none"/>
    <path d="M6.0 0.5 L6.1 0.95 5.95 1.1 5.75 1.35 5.75 1.5 5.75 1.65 Q6.2 1.7 6.4 2.15 L6.6 2.45 7.1 2.75 M6.0 0.5 L5.65 0.45 3.8 0.6 Q2.9 0.75 2.1 1.5 L1.6 2.2 2.1 2.6 M5.75 1.65 L5.55 1.9 5.25 2.15 5.05 2.4 5.1 2.65 M7.45 6.35 Q8.35 5.95 8.7 5.2 L8.95 3.7 8.6 2.5 Q8.25 1.7 7.45 1.1 L6.0 0.5 M1.6 2.2 L1.25 2.95 0.85 4.6" fill="none" stroke="#000000" stroke-linecap="round" stroke-linejoin="round" stroke-width="0.05"/>
    <path d="M6.45 5.7 L6.45 5.4 6.85 4.8 Q7.15 4.5 7.55 4.3 M0.85 4.6 L0.9 4.8 0.95 5.25 1.0 5.3 1.25 5.55 Q1.85 6.3 1.0 6.6 L1.0 6.85 1.1 8.05 1.1 8.25 1.1 8.65 1.2 8.8 1.6 8.9 1.5 8.35 M1.0 5.3 L1.05 6.0 1.0 6.6 M0.95 5.25 L0.95 5.3 1.0 5.3 M1.95 5.4 L1.95 5.05 1.95 4.8 M2.75 5.3 L3.5 5.05 4.0 4.9 4.5 5.05 4.9 5.3 5.1 5.95 4.3 6.65 3.9 6.85 Q3.05 6.8 2.7 6.25 L2.65 5.85 2.75 5.3 M3.8 8.7 L3.9 9.25 Q4.45 8.5 4.75 8.45 L5.15 8.15 3.85 8.35 3.8 8.7 2.85 8.95 2.85 9.2 M2.1 8.25 L2.15 8.95 2.85 8.95 2.75 8.4 M2.4 7.15 L2.15 6.55 1.85 6.25 Q1.65 6.85 1.8 7.3 L2.15 7.5 Q2.6 7.5 2.4 7.15 M1.2 8.8 L1.2 9.0 Q1.2 9.75 1.5 10.4 L3.45 10.55 Q5.25 10.35 6.75 9.4 L6.8 7.5 6.35 7.35 6.0 7.25 5.75 7.45 5.15 8.15 M2.2 9.35 L2.15 8.95 1.6 8.9 1.65 9.3 M6.45 7.1 L5.5 7.05 M6.35 7.35 L6.4 7.2 6.45 7.1 6.9 7.15 Q8.05 7.1 7.45 6.35 L7.05 5.85" fill="none" stroke="#000000" stroke-linecap="round" stroke-linejoin="round" stroke-width="0.05"/>
  </g>
</svg>
