<?xml version="1.0" encoding="UTF-8" standalone="no"?>
<svg xmlns:xlink="http://www.w3.org/1999/xlink" height="13.0px" width="12.15px" xmlns="http://www.w3.org/2000/svg">
  <g transform="matrix(1.0, 0.0, 0.0, 1.0, 0.0, 0.0)">
    <path d="M2.75 6.25 L2.95 6.45 Q3.35 6.75 3.9 6.85 L4.3 6.8 4.75 6.65 4.8 6.6 5.2 6.15 5.3 5.9 5.3 5.8 5.35 5.75 Q5.5 6.3 5.15 6.8 L5.0 6.95 Q4.7 7.25 4.05 7.35 L3.05 7.0 3.0 6.9 2.75 6.25 M1.5 5.5 L1.65 5.8 1.7 6.25 1.65 6.35 1.25 6.7 1.1 6.7 0.8 6.65 0.8 6.55 0.85 6.5 0.9 6.4 1.25 6.2 1.5 5.5" fill="#233623" fill-rule="evenodd" stroke="none"/>
    <path d="M0.6 4.4 L0.65 4.25 1.05 2.6 1.6 1.5 Q2.05 0.7 3.0 0.35 L6.15 0.15 7.1 0.55 8.3 1.35 Q9.6 2.6 9.65 4.4 9.65 5.6 8.45 5.85 L8.45 5.5 Q8.4 4.45 7.45 4.3 L6.8 4.75 7.45 4.3 Q8.4 4.45 8.45 5.5 L8.45 5.85 8.15 6.55 7.7 6.9 7.6 6.95 Q7.3 7.6 7.3 8.3 L7.05 9.4 5.7 10.3 4.25 10.8 5.7 10.3 7.05 9.4 7.3 8.3 Q7.3 7.6 7.6 6.95 L7.7 6.9 8.15 6.55 8.2 6.7 8.65 11.35 8.15 11.8 4.25 11.95 4.25 10.8 2.9 11.2 Q2.2 11.35 1.9 10.4 L1.4 9.15 1.25 8.85 1.25 8.8 1.2 8.6 1.05 8.0 0.9 7.55 0.9 7.2 0.85 7.15 0.8 6.65 1.1 6.7 1.25 6.7 1.65 6.35 1.7 6.25 1.65 5.8 1.5 5.5 Q1.3 5.15 0.9 5.15 L0.6 4.65 0.6 4.4 0.65 4.45 0.6 4.4 M1.35 5.0 L1.05 4.95 0.85 4.75 0.75 4.55 0.65 4.45 0.75 4.55 0.85 4.75 1.05 4.95 1.35 5.0 M2.75 6.25 L3.0 6.9 3.05 7.0 4.05 7.35 Q4.7 7.25 5.0 6.95 L5.15 6.8 Q5.5 6.3 5.35 5.75 L5.25 5.5 5.05 5.25 4.85 5.1 4.05 4.95 Q3.3 4.85 2.85 5.45 L2.75 5.8 2.75 6.0 2.75 6.25 M1.95 4.7 L2.0 5.1 1.95 4.7 M4.9 7.7 L4.9 8.15 4.9 8.25 4.4 8.6 3.55 8.65 3.4 8.65 3.25 8.95 2.7 8.75 2.65 8.75 2.25 8.95 2.15 8.95 1.85 8.8 1.75 8.8 1.25 8.85 1.75 8.8 1.85 8.8 2.15 8.95 2.25 8.95 2.65 8.75 2.7 8.75 3.25 8.95 3.4 8.65 3.55 8.65 4.4 8.6 4.9 8.25 4.9 8.15 4.9 7.7 M5.7 4.6 Q5.35 4.3 4.85 4.35 L4.65 4.35 Q3.95 4.5 3.3 4.8 L2.75 5.05 2.5 5.1 Q2.25 5.05 2.4 4.85 2.25 5.05 2.5 5.1 L2.75 5.05 3.3 4.8 Q3.95 4.5 4.65 4.35 L4.85 4.35 Q5.35 4.3 5.7 4.6 M6.4 6.45 L6.35 6.85 6.1 7.3 5.6 7.65 5.45 7.85 5.5 8.75 5.45 7.85 5.6 7.65 6.1 7.3 6.35 6.85 6.4 6.45" fill="#546549" fill-rule="evenodd" stroke="none"/>
    <path d="M5.35 5.75 L5.3 5.8 5.3 5.9 5.2 6.15 4.8 6.6 4.75 6.65 4.3 6.8 3.9 6.85 Q3.35 6.75 2.95 6.45 L2.75 6.25 2.75 6.0 2.75 5.8 2.85 5.45 Q3.3 4.85 4.05 4.95 L4.85 5.1 5.05 5.25 5.25 5.5 5.35 5.75 M0.9 6.4 L1.0 6.0 0.9 5.6 0.9 5.15 Q1.3 5.15 1.5 5.5 L1.25 6.2 0.9 6.4" fill="#ccff00" fill-rule="evenodd" stroke="none"/>
    <path d="M8.45 5.85 Q9.65 5.6 9.65 4.4 9.6 2.6 8.3 1.35 L7.1 0.55 6.15 0.15 3.0 0.35 Q2.05 0.7 1.6 1.5 L1.05 2.6 0.65 4.25 0.6 4.4 0.65 4.45 M5.35 5.75 L5.3 5.8 5.3 5.9 5.2 6.15 4.8 6.6 4.75 6.65 4.3 6.8 3.9 6.85 Q3.35 6.75 2.95 6.45 L2.75 6.25 3.0 6.9 3.05 7.0 4.05 7.35 Q4.7 7.25 5.0 6.95 L5.15 6.8 Q5.5 6.3 5.35 5.75 L5.25 5.5 5.05 5.25 4.85 5.1 4.05 4.95 Q3.3 4.85 2.85 5.45 L2.75 5.8 2.75 6.0 2.75 6.25 M8.45 5.85 L8.45 5.5 Q8.4 4.45 7.45 4.3 L6.8 4.75 M8.15 6.55 L8.45 5.85 M0.9 6.4 L1.0 6.0 0.9 5.6 0.9 5.15 0.6 4.65 0.6 4.4 M1.5 5.5 L1.65 5.8 1.7 6.25 1.65 6.35 1.25 6.7 1.1 6.7 0.8 6.65 0.85 7.15 0.9 7.2 0.9 7.55 1.05 8.0 1.2 8.6 1.25 8.8 1.25 8.85 1.75 8.8 1.85 8.8 2.15 8.95 2.25 8.95 2.65 8.75 2.7 8.75 3.25 8.95 3.4 8.65 3.55 8.65 4.4 8.6 4.9 8.25 4.9 8.15 4.9 7.7 M2.0 5.1 L1.95 4.7 M0.9 5.15 Q1.3 5.15 1.5 5.5 L1.25 6.2 0.9 6.4 0.85 6.5 0.8 6.55 0.8 6.65 M1.25 8.85 L1.4 9.15 1.9 10.4 Q2.2 11.35 2.9 11.2 L4.25 10.8 5.7 10.3 7.05 9.4 7.3 8.3 Q7.3 7.6 7.6 6.95 L7.7 6.9 8.15 6.55 8.2 6.7 8.65 11.35 M4.25 11.95 L4.25 10.8 M5.5 8.75 L5.45 7.85 5.6 7.65 6.1 7.3 6.35 6.85 6.4 6.45" fill="none" stroke="#000000" stroke-linecap="round" stroke-linejoin="round" stroke-width="0.05"/>
    <path d="M0.65 4.45 L0.75 4.55 0.85 4.75 1.05 4.95 1.35 5.0 M2.4 4.85 Q2.25 5.05 2.5 5.1 L2.75 5.05 3.3 4.8 Q3.95 4.5 4.65 4.35 L4.85 4.35 Q5.35 4.3 5.7 4.6" fill="none" stroke="#3e3722" stroke-linecap="round" stroke-linejoin="round" stroke-width="0.05"/>
    <path d="M4.5 0.25 L4.3 0.0 4.05 -0.15 4.0 -0.2 3.6 -0.1 M11.65 10.8 L11.4 10.15 11.25 9.35 11.15 8.4 11.05 7.6 10.8 6.8 10.35 6.0 9.95 5.2 9.6 4.3 9.2 3.4 8.75 2.75 8.05 1.85 7.6 1.3 6.85 0.8 6.45 0.55 6.0 0.35 5.85 0.35 6.15 0.1 6.55 0.2 6.85 0.5 7.15 0.6 7.7 1.05 8.45 1.65 9.15 2.35 9.45 2.85 10.15 4.7 10.7 6.5 11.15 7.45 11.4 8.15 11.85 9.15 12.25 10.25 M5.05 0.65 L5.75 0.75 6.3 1.05 6.7 1.65 7.15 2.45 7.65 3.2 8.15 4.0 8.7 4.7 9.45 5.5 9.95 6.2 10.1 7.05 10.15 8.05 10.15 9.65 10.15 11.25 10.2 12.05 10.25 12.3 M4.25 1.15 L5.1 1.2 5.6 1.65 5.85 2.1 6.55 3.5 7.05 4.3 7.5 5.0 7.85 5.65 8.05 6.45 8.1 7.25 8.35 8.4 8.3 9.6 8.25 10.25 8.3 12.05 8.35 12.75 M3.5 1.6 L4.0 1.65 4.1 1.7 4.5 2.05 4.65 2.25 4.9 2.5 5.05 2.75 5.4 3.0 5.65 3.2 5.85 3.55 6.1 4.0 6.2 4.45 6.25 5.0 6.4 5.45 6.55 5.95 6.8 6.5 6.9 6.75 6.9 7.25 6.95 8.3 6.95 8.85 6.7 9.5 6.5 10.15 M3.85 0.5 L3.25 0.05 2.9 0.0 2.7 0.1 1.8 0.85 1.85 0.8 2.05 0.75 2.35 0.75 2.65 0.8 M2.35 1.55 L1.65 1.5 1.6 1.5 Q1.15 1.9 1.0 2.55 L0.9 2.8 0.8 2.95 0.6 3.3 0.35 3.7 Q0.25 3.9 0.3 4.1 L0.15 5.1 0.15 6.0 0.2 7.05 Q0.1 8.05 0.35 9.0 L0.45 9.6 0.45 11.25 0.4 12.45 M1.8 0.85 Q1.45 1.0 1.25 1.45 L1.1 1.7 0.7 2.3 0.65 2.55 0.8 2.95" fill="none" stroke="#3e3722" stroke-linecap="round" stroke-linejoin="round" stroke-width="0.05"/>
  </g>
</svg>
