<?xml version="1.0" encoding="UTF-8" standalone="no"?>
<svg xmlns:xlink="http://www.w3.org/1999/xlink" height="12.9px" width="10.8px" xmlns="http://www.w3.org/2000/svg">
  <g transform="matrix(1.0, 0.0, 0.0, 1.0, 0.0, 0.0)">
    <path d="M0.6 4.65 L0.65 4.25 1.05 2.6 1.6 1.5 Q2.05 0.7 3.0 0.35 L6.15 0.15 7.1 0.55 8.3 1.35 Q9.6 2.6 9.65 4.4 9.65 5.6 8.45 5.85 L8.45 5.5 Q8.4 4.45 7.45 4.3 L6.8 4.75 7.45 4.3 Q8.4 4.45 8.45 5.5 L8.45 5.85 8.15 6.55 7.7 6.9 7.6 6.95 Q7.3 7.6 7.3 8.3 L7.05 9.4 5.7 10.3 4.25 10.8 5.7 10.3 7.05 9.4 7.3 8.3 Q7.3 7.6 7.6 6.95 L7.7 6.9 8.15 6.55 8.2 6.7 8.65 11.35 8.15 11.8 4.25 11.95 4.25 10.8 2.7 11.2 Q1.8 11.35 1.45 10.4 1.05 9.45 1.15 9.15 L1.25 8.8 1.2 8.6 1.05 8.0 0.9 7.55 0.9 7.2 0.85 7.15 0.8 6.65 1.1 6.7 1.25 6.7 1.65 6.35 1.7 6.25 1.65 5.8 1.5 5.5 Q1.3 5.15 0.9 5.15 L0.6 4.65 1.05 4.6 1.2 4.6 1.55 4.65 1.2 4.6 1.05 4.6 0.6 4.65 M5.85 4.9 L5.45 4.75 4.15 4.5 3.85 4.55 3.75 4.5 3.7 4.45 3.05 4.65 3.7 4.45 3.75 4.5 3.85 4.55 4.15 4.5 5.45 4.75 5.85 4.9 M5.35 5.75 L5.25 5.5 5.05 5.25 4.85 5.1 4.05 4.95 Q3.3 4.85 2.85 5.45 L2.75 5.8 2.75 6.0 2.75 6.25 3.0 6.9 3.05 7.0 4.05 7.35 Q4.7 7.25 5.0 6.95 L5.15 6.8 Q5.5 6.3 5.35 5.75 M1.95 4.7 L2.0 5.1 1.95 4.7 M1.85 8.6 L1.95 8.6 2.35 8.5 2.65 8.5 2.65 8.8 2.65 8.5 2.35 8.5 1.95 8.6 1.85 8.6 1.8 8.6 1.6 8.6 1.2 8.6 1.6 8.6 1.8 8.6 1.85 8.6 1.65 8.25 1.85 8.6 M3.5 8.95 L3.55 8.5 3.45 8.5 3.1 8.5 2.75 8.5 2.65 8.5 2.65 8.45 2.65 8.1 2.65 8.45 2.65 8.5 2.75 8.5 3.1 8.5 3.45 8.5 3.55 8.5 3.5 8.95 M4.55 8.85 L4.35 8.6 4.3 8.55 4.1 8.55 3.65 8.55 3.55 8.5 3.6 8.25 3.55 8.5 3.65 8.55 4.1 8.55 4.3 8.55 4.35 8.6 4.55 8.85 M6.4 6.45 L6.35 6.85 6.1 7.3 5.6 7.65 5.45 7.85 5.5 8.75 5.45 7.85 5.6 7.65 6.1 7.3 6.35 6.85 6.4 6.45 M1.9 8.9 L1.8 8.6 1.9 8.9" fill="#4b5963" fill-rule="evenodd" stroke="none"/>
    <path d="M2.75 6.25 L2.75 6.0 2.75 5.8 2.85 5.45 Q3.3 4.85 4.05 4.95 L4.85 5.1 5.05 5.25 5.25 5.5 5.35 5.75 5.3 5.8 5.3 5.9 5.2 6.15 4.8 6.6 4.75 6.65 4.3 6.8 3.9 6.85 Q3.35 6.75 2.95 6.45 L2.75 6.25 M0.9 6.4 L1.0 6.0 0.9 5.6 0.9 5.15 Q1.3 5.15 1.5 5.5 L1.25 6.2 0.9 6.4" fill="#ffffff" fill-rule="evenodd" stroke="none"/>
    <path d="M2.75 6.25 L2.95 6.45 Q3.35 6.75 3.9 6.85 L4.3 6.8 4.75 6.65 4.8 6.6 5.2 6.15 5.3 5.9 5.3 5.8 5.35 5.75 Q5.5 6.3 5.15 6.8 L5.0 6.95 Q4.7 7.25 4.05 7.35 L3.05 7.0 3.0 6.9 2.75 6.25 M0.9 6.4 L1.25 6.2 1.5 5.5 1.65 5.8 1.7 6.25 1.65 6.35 1.25 6.7 1.1 6.7 0.8 6.65 0.8 6.55 0.85 6.5 0.9 6.4" fill="#233623" fill-rule="evenodd" stroke="none"/>
    <path d="M8.45 5.85 Q9.65 5.6 9.65 4.4 9.6 2.6 8.3 1.35 L7.1 0.55 6.15 0.15 3.0 0.35 Q2.05 0.7 1.6 1.5 L1.05 2.6 0.65 4.25 0.6 4.65 1.05 4.6 1.2 4.6 1.55 4.65 M3.05 4.65 L3.7 4.45 3.75 4.5 3.85 4.55 4.15 4.5 5.45 4.75 5.85 4.9 M8.45 5.85 L8.45 5.5 Q8.4 4.45 7.45 4.3 L6.8 4.75 M5.35 5.75 L5.25 5.5 5.05 5.25 4.85 5.1 4.05 4.95 Q3.3 4.85 2.85 5.45 L2.75 5.8 2.75 6.0 2.75 6.25 2.95 6.45 Q3.35 6.75 3.9 6.85 L4.3 6.8 4.75 6.65 4.8 6.6 5.2 6.15 5.3 5.9 5.3 5.8 5.35 5.75 Q5.5 6.3 5.15 6.8 L5.0 6.95 Q4.7 7.25 4.05 7.35 L3.05 7.0 3.0 6.9 2.75 6.25 M8.15 6.55 L8.45 5.85 M0.9 5.15 L0.9 5.6 1.0 6.0 0.9 6.4 1.25 6.2 1.5 5.5 Q1.3 5.15 0.9 5.15 L0.6 4.65 M2.0 5.1 L1.95 4.7 M1.5 5.5 L1.65 5.8 1.7 6.25 1.65 6.35 1.25 6.7 1.1 6.7 0.8 6.65 0.85 7.15 0.9 7.2 0.9 7.55 1.05 8.0 1.2 8.6 1.6 8.6 1.8 8.6 1.85 8.6 1.65 8.25 M3.6 8.25 L3.55 8.5 3.65 8.55 4.1 8.55 4.3 8.55 4.35 8.6 4.55 8.85 M2.65 8.1 L2.65 8.45 2.65 8.5 2.75 8.5 3.1 8.5 3.45 8.5 3.55 8.5 3.5 8.95 M2.65 8.8 L2.65 8.5 2.35 8.5 1.95 8.6 1.85 8.6 M0.8 6.65 L0.8 6.55 0.85 6.5 0.9 6.4 M1.2 8.6 L1.25 8.8 1.15 9.15 Q1.05 9.45 1.45 10.4 1.8 11.35 2.7 11.2 L4.25 10.8 5.7 10.3 7.05 9.4 7.3 8.3 Q7.3 7.6 7.6 6.95 L7.7 6.9 8.15 6.55 8.2 6.7 8.65 11.35 M4.25 11.95 L4.25 10.8 M1.8 8.6 L1.9 8.9 M5.5 8.75 L5.45 7.85 5.6 7.65 6.1 7.3 6.35 6.85 6.4 6.45" fill="none" stroke="#000000" stroke-linecap="round" stroke-linejoin="round" stroke-width="0.05"/>
    <path d="M2.35 -0.2 Q4.6 -1.15 6.9 -0.25 L7.35 -0.2 8.5 0.85 8.7 0.45 8.9 1.05 9.05 1.05 Q9.15 0.95 9.3 0.9 L9.5 0.9 9.45 1.25 9.45 1.45 9.85 1.65 9.8 2.2 Q9.7 3.45 10.0 4.8 L9.85 5.85 Q9.5 6.75 9.75 7.65 L9.85 7.8 9.2 7.7 9.8 9.05 9.25 8.75 9.0 8.55 8.75 8.35 8.65 8.2 8.55 8.1 8.45 8.25 Q8.1 7.2 8.25 6.4 L8.25 4.75 7.75 4.35 6.75 5.1 7.05 4.1 6.35 4.65 6.5 3.4 6.8 2.2 6.4 2.45 5.95 2.6 5.25 2.6 5.2 2.5 4.8 2.8 4.45 2.9 4.25 2.85 4.0 2.65 3.9 2.4 3.35 2.45 2.15 2.8 1.6 2.65 1.95 1.85 0.35 2.7 -0.75 3.1 0.5 1.75 -0.7 2.0 1.0 0.8 0.5 0.65 2.35 -0.2" fill="#000000" fill-rule="evenodd" stroke="none"/>
  </g>
</svg>
