<?xml version="1.0" encoding="UTF-8" standalone="no"?>
<svg xmlns:xlink="http://www.w3.org/1999/xlink" height="12.2px" width="9.05px" xmlns="http://www.w3.org/2000/svg">
  <g transform="matrix(1.0, 0.0, 0.0, 1.0, 0.0, 0.0)">
    <path d="M0.6 4.1 L0.65 3.7 1.05 2.6 1.6 1.5 Q2.05 0.7 3.0 0.35 L6.15 0.15 7.1 0.55 8.3 1.35 Q9.6 2.6 9.65 4.4 9.65 5.6 8.45 5.85 L8.45 5.5 Q8.4 4.45 7.45 4.3 L6.8 4.75 7.45 4.3 Q8.4 4.45 8.45 5.5 L8.45 5.85 8.15 6.55 7.7 6.9 7.6 6.95 Q7.3 7.6 7.3 8.3 L7.05 9.4 5.7 10.3 4.25 10.8 5.7 10.3 7.05 9.4 7.3 8.3 Q7.3 7.6 7.6 6.95 L7.7 6.9 8.15 6.55 8.2 6.7 8.65 11.35 8.15 11.8 4.85 11.95 Q4.35 11.45 4.25 10.8 L2.85 11.2 Q2.35 11.35 1.85 10.4 L1.25 8.85 1.25 8.8 1.05 8.0 0.9 7.55 0.9 7.2 0.85 7.15 0.8 6.65 0.8 6.1 1.1 6.15 1.25 6.15 1.65 5.8 1.7 5.7 1.65 5.25 1.6 5.15 1.5 4.95 Q1.3 4.6 0.9 4.6 L0.6 4.1 1.05 4.05 1.2 4.05 1.55 4.1 1.2 4.05 1.05 4.05 0.6 4.1 M5.35 5.2 L5.25 4.95 5.05 4.7 4.85 4.55 4.05 4.4 Q3.3 4.3 2.85 4.9 L2.8 5.05 2.75 5.25 2.75 5.45 2.75 5.7 3.0 6.35 3.05 6.45 4.05 6.8 Q4.6 6.75 5.0 6.4 L5.15 6.25 Q5.5 5.75 5.35 5.2 M5.85 4.35 L5.45 4.2 4.8 4.05 4.5 4.0 4.15 3.95 3.85 4.0 3.75 3.95 3.7 3.9 3.05 4.1 3.7 3.9 3.75 3.95 3.85 4.0 4.15 3.95 4.5 4.0 4.8 4.05 5.45 4.2 5.85 4.35 M1.95 4.15 L2.0 4.55 1.95 4.15 M3.65 8.7 L3.6 8.65 3.45 8.6 2.4 8.35 2.25 8.4 2.05 8.4 1.95 8.45 2.1 8.7 2.15 8.8 2.1 8.95 2.1 9.0 1.75 9.35 2.05 9.35 2.1 9.4 2.3 9.5 2.4 9.6 2.5 9.65 3.3 9.8 3.5 9.75 3.65 9.7 3.95 9.2 3.9 9.0 3.65 8.7 M1.7 6.25 L1.65 6.45 Q1.55 6.9 1.6 7.35 2.05 7.4 1.95 6.75 L1.8 5.65 1.7 6.25 M3.35 10.1 L2.9 10.2 2.85 10.2 2.35 10.05 2.2 9.95 1.9 9.8 2.2 9.95 2.35 10.05 2.85 10.2 2.9 10.2 3.35 10.1 M1.65 8.45 L1.95 8.45 1.65 8.45 M2.65 7.35 L2.25 5.65 Q2.05 6.55 2.3 7.35 L2.65 7.35 M6.4 6.45 L6.35 6.85 6.1 7.3 5.6 7.65 5.45 7.85 5.5 8.75 5.45 7.85 5.6 7.65 6.1 7.3 6.35 6.85 6.4 6.45" fill="#4b5963" fill-rule="evenodd" stroke="none"/>
    <path d="M2.75 5.7 L2.75 5.45 2.75 5.25 2.8 5.05 2.85 4.9 Q3.3 4.3 4.05 4.4 L4.85 4.55 5.05 4.7 5.25 4.95 5.35 5.2 5.3 5.25 5.3 5.35 5.2 5.6 4.8 6.05 4.75 6.1 4.3 6.25 3.9 6.3 Q3.35 6.2 2.95 5.9 L2.75 5.7 M0.9 4.6 Q1.3 4.6 1.5 4.95 L1.25 5.65 1.15 5.7 0.9 5.85 1.0 5.45 0.9 5.05 0.9 4.6" fill="#ffffff" fill-rule="evenodd" stroke="none"/>
    <path d="M5.35 5.2 Q5.5 5.75 5.15 6.25 L5.0 6.4 Q4.6 6.75 4.05 6.8 L3.05 6.45 3.0 6.35 2.75 5.7 2.95 5.9 Q3.35 6.2 3.9 6.3 L4.3 6.25 4.75 6.1 4.8 6.05 5.2 5.6 5.3 5.35 5.3 5.25 5.35 5.2 M1.5 4.95 L1.6 5.15 1.65 5.25 1.7 5.7 1.65 5.8 1.25 6.15 1.1 6.15 0.8 6.1 0.8 6.0 0.85 5.95 0.9 5.85 1.15 5.7 1.25 5.65 1.5 4.95 M1.7 6.25 L1.8 5.65 1.95 6.75 Q2.05 7.4 1.6 7.35 1.55 6.9 1.65 6.45 L1.7 6.25 M2.65 7.35 L2.3 7.35 Q2.05 6.55 2.25 5.65 L2.65 7.35" fill="#233623" fill-rule="evenodd" stroke="none"/>
    <path d="M3.65 8.7 L3.3 8.75 3.25 8.7 3.05 8.55 3.05 8.6 3.05 8.85 2.9 8.8 2.85 8.75 2.65 8.7 2.6 8.75 2.45 8.75 2.1 8.7 1.95 8.45 2.05 8.4 2.25 8.4 2.4 8.35 3.45 8.6 3.6 8.65 3.65 8.7 M2.5 9.65 Q2.45 9.3 2.75 9.35 L2.85 9.4 2.95 9.6 3.2 9.4 3.3 9.4 3.65 9.7 3.5 9.75 3.3 9.8 2.5 9.65" fill="#80703c" fill-rule="evenodd" stroke="none"/>
    <path d="M2.1 8.7 L2.45 8.75 2.6 8.75 2.65 8.7 2.85 8.75 2.9 8.8 3.05 8.85 3.05 8.6 3.05 8.55 3.25 8.7 3.3 8.75 3.65 8.7 3.9 9.0 3.95 9.2 3.65 9.7 3.3 9.4 3.2 9.4 2.95 9.6 2.85 9.4 2.75 9.35 Q2.45 9.3 2.5 9.65 L2.4 9.6 2.3 9.5 2.1 9.4 2.05 9.35 1.75 9.35 2.1 9.0 2.1 8.95 2.15 8.8 2.1 8.7" fill="#2d3539" fill-rule="evenodd" stroke="none"/>
    <path d="M8.45 5.85 Q9.65 5.6 9.65 4.4 9.6 2.6 8.3 1.35 L7.1 0.55 6.15 0.15 3.0 0.35 Q2.05 0.7 1.6 1.5 L1.05 2.6 0.65 3.7 0.6 4.1 1.05 4.05 1.2 4.05 1.55 4.1 M2.75 5.7 L2.75 5.45 2.75 5.25 2.8 5.05 2.85 4.9 Q3.3 4.3 4.05 4.4 L4.85 4.55 5.05 4.7 5.25 4.95 5.35 5.2 Q5.5 5.75 5.15 6.25 L5.0 6.4 Q4.6 6.75 4.05 6.8 L3.05 6.45 3.0 6.35 2.75 5.7 2.95 5.9 Q3.35 6.2 3.9 6.3 L4.3 6.25 4.75 6.1 4.8 6.05 5.2 5.6 5.3 5.35 5.3 5.25 5.35 5.2 M8.45 5.85 L8.45 5.5 Q8.4 4.45 7.45 4.3 L6.8 4.75 M3.05 4.1 L3.7 3.9 3.75 3.95 3.85 4.0 4.15 3.95 4.5 4.0 4.8 4.05 5.45 4.2 5.85 4.35 M8.15 6.55 L8.45 5.85 M2.0 4.55 L1.95 4.15 M0.6 4.1 L0.9 4.6 Q1.3 4.6 1.5 4.95 L1.6 5.15 1.65 5.25 1.7 5.7 1.65 5.8 1.25 6.15 1.1 6.15 0.8 6.1 0.8 6.65 0.85 7.15 0.9 7.2 0.9 7.55 1.05 8.0 1.25 8.8 1.25 8.85 1.85 10.4 Q2.35 11.35 2.85 11.2 L4.25 10.8 5.7 10.3 7.05 9.4 7.3 8.3 Q7.3 7.6 7.6 6.95 L7.7 6.9 8.15 6.55 8.2 6.7 8.65 11.35 8.15 11.8 4.85 11.95 Q4.35 11.45 4.25 10.8 M0.9 5.85 L0.85 5.95 0.8 6.0 0.8 6.1 M0.9 4.6 L0.9 5.05 1.0 5.45 0.9 5.85 1.15 5.7 1.25 5.65 1.5 4.95 M2.1 8.7 L2.45 8.75 2.6 8.75 2.65 8.7 2.85 8.75 2.9 8.8 3.05 8.85 3.05 8.6 3.05 8.55 3.25 8.7 3.3 8.75 3.65 8.7 3.6 8.65 3.45 8.6 2.4 8.35 2.25 8.4 2.05 8.4 1.95 8.45 2.1 8.7 2.15 8.8 2.1 8.95 2.1 9.0 1.75 9.35 2.05 9.35 2.1 9.4 2.3 9.5 2.4 9.6 2.5 9.65 Q2.45 9.3 2.75 9.35 L2.85 9.4 2.95 9.6 3.2 9.4 3.3 9.4 3.65 9.7 3.95 9.2 3.9 9.0 3.65 8.7 M1.7 6.25 L1.8 5.65 1.95 6.75 Q2.05 7.4 1.6 7.35 1.55 6.9 1.65 6.45 L1.7 6.25 M1.95 8.45 L1.65 8.45 M1.9 9.8 L2.2 9.95 2.35 10.05 2.85 10.2 2.9 10.2 3.35 10.1 M3.65 9.7 L3.5 9.75 3.3 9.8 2.5 9.65 M2.65 7.35 L2.25 5.65 Q2.05 6.55 2.3 7.35 L2.65 7.35 M5.5 8.75 L5.45 7.85 5.6 7.65 6.1 7.3 6.35 6.85 6.4 6.45" fill="none" stroke="#000000" stroke-linecap="round" stroke-linejoin="round" stroke-width="0.05"/>
  </g>
</svg>
