<?xml version="1.0" encoding="UTF-8" standalone="no"?>
<svg xmlns:xlink="http://www.w3.org/1999/xlink" height="12.2px" width="9.65px" xmlns="http://www.w3.org/2000/svg">
  <g transform="matrix(1.0, 0.0, 0.0, 1.0, 0.0, 0.0)">
    <path d="M6.8 4.75 L7.45 4.3 Q8.4 4.45 8.45 5.5 L8.45 5.85 8.45 5.5 Q8.4 4.45 7.45 4.3 L6.8 4.75 M4.25 10.8 L2.85 11.2 2.0 11.0 Q1.1 10.05 1.0 8.7 L0.95 8.1 0.0 7.45 0.9 5.1 0.85 3.85 Q0.75 3.15 1.05 2.6 L1.6 1.5 Q2.05 0.7 3.0 0.35 L6.15 0.15 7.1 0.55 8.3 1.35 Q9.6 2.6 9.65 4.4 9.65 5.6 8.45 5.85 L8.15 6.55 7.7 6.9 7.6 6.95 Q7.3 7.6 7.3 8.3 L7.05 9.4 5.7 10.3 4.25 10.8 5.7 10.3 7.05 9.4 7.3 8.3 Q7.3 7.6 7.6 6.95 L7.7 6.9 8.15 6.55 8.2 6.7 8.65 11.35 8.15 11.8 4.85 11.95 Q4.35 11.45 4.25 10.8 M2.5 5.15 L2.45 5.15 2.4 5.2 2.3 5.3 2.4 5.55 2.45 5.75 2.55 5.85 2.85 6.1 3.0 6.15 Q4.05 6.2 4.1 5.15 L4.0 4.95 2.55 5.1 2.5 5.15 M1.8 5.25 L2.55 5.1 1.8 5.25 M5.0 4.95 L4.0 4.95 5.0 4.95" fill="#ffcc99" fill-rule="evenodd" stroke="none"/>
    <path d="M2.4 5.55 L2.3 5.3 2.4 5.2 2.45 5.15 2.5 5.15 2.65 5.3 2.65 5.4 2.55 5.5 2.5 5.55 2.45 5.55 2.4 5.55" fill="#ffffff" fill-rule="evenodd" stroke="none"/>
    <path d="M2.5 5.15 L2.55 5.1 4.0 4.95 4.1 5.15 Q4.05 6.2 3.0 6.15 L2.85 6.1 2.55 5.85 2.9 5.95 3.0 5.85 3.05 5.65 3.05 5.6 2.75 5.35 2.7 5.35 2.65 5.4 2.65 5.3 2.5 5.15 M2.5 5.55 L2.45 5.75 2.4 5.55 2.45 5.55 2.5 5.55" fill="#0099ff" fill-rule="evenodd" stroke="none"/>
    <path d="M2.55 5.85 L2.45 5.75 2.5 5.55 2.55 5.5 2.65 5.4 2.7 5.35 2.75 5.35 3.05 5.6 3.05 5.65 3.0 5.85 2.9 5.95 2.55 5.85" fill="#000000" fill-rule="evenodd" stroke="none"/>
    <path d="M8.45 5.85 L8.45 5.5 Q8.4 4.45 7.45 4.3 L6.8 4.75 M8.15 6.55 L8.45 5.85 Q9.65 5.6 9.65 4.4 9.6 2.6 8.3 1.35 L7.1 0.55 6.15 0.15 3.0 0.35 Q2.05 0.7 1.6 1.5 L1.05 2.6 Q0.75 3.15 0.85 3.85 L0.9 5.1 0.0 7.45 0.95 8.1 1.0 8.7 Q1.1 10.05 2.0 11.0 L2.85 11.2 4.25 10.8 5.7 10.3 7.05 9.4 7.3 8.3 Q7.3 7.6 7.6 6.95 L7.7 6.9 8.15 6.55 8.2 6.7 8.65 11.35 8.15 11.8 4.85 11.95 Q4.35 11.45 4.25 10.8 M2.5 5.15 L2.55 5.1 1.8 5.25 M2.45 5.75 L2.55 5.85 2.85 6.1 3.0 6.15 Q4.05 6.2 4.1 5.15 L4.0 4.95 2.55 5.1 M2.45 5.75 L2.4 5.55 M4.0 4.95 L5.0 4.95" fill="none" stroke="#000000" stroke-linecap="round" stroke-linejoin="round" stroke-width="0.05"/>
  </g>
</svg>
