<?xml version="1.0" encoding="UTF-8" standalone="no"?>
<svg xmlns:xlink="http://www.w3.org/1999/xlink" height="37.8px" width="51.3px" xmlns="http://www.w3.org/2000/svg">
  <g transform="matrix(1.0, 0.0, 0.0, 1.0, 0.0, 0.0)">
    <path d="M0.35 13.2 L-1.45 11.8 Q-1.15 9.9 0.7 9.65 1.65 8.1 2.75 7.0 L2.45 6.35 Q1.85 5.45 0.65 5.45 1.85 5.45 2.45 6.35 L2.75 7.0 Q1.65 8.1 0.7 9.65 -1.15 9.9 -1.45 11.8 L0.35 13.2 M7.8 1.65 L8.85 1.85 10.2 1.35 11.25 1.2 Q12.25 0.7 11.9 -0.35 L11.25 -1.75 Q12.0 -2.5 11.9 -3.45 L11.85 -4.05 12.75 -4.15 13.25 -4.05 12.75 -4.15 11.85 -4.05 11.9 -3.45 Q12.0 -2.5 11.25 -1.75 L11.9 -0.35 Q12.25 0.7 11.25 1.2 L14.05 2.7 11.25 1.2 10.2 1.35 8.85 1.85 7.8 1.65 8.6 2.15 9.3 3.65 Q7.7 4.65 6.35 6.0 L6.55 6.85 Q8.25 7.6 9.1 9.3 L8.15 11.05 9.1 9.3 Q8.25 7.6 6.55 6.85 L6.35 6.0 Q7.7 4.65 9.3 3.65 L8.6 2.15 7.8 1.65 6.55 1.0 6.2 -0.5 3.9 -2.05 3.05 -1.0 1.4 -1.9 2.0 -2.7 1.95 -3.3 0.5 -3.9 0.45 -4.45 -1.7 -5.8 -1.85 -6.4 -1.7 -5.8 0.45 -4.45 0.5 -3.9 1.95 -3.3 2.0 -2.7 1.4 -1.9 3.05 -1.0 3.9 -2.05 6.2 -0.5 6.55 1.0 7.8 1.65 M3.15 -8.6 L2.7 -8.35 2.25 -8.15 Q1.6 -7.55 1.4 -6.7 3.25 -4.95 5.7 -4.55 L5.55 -3.85 4.55 -2.8 5.55 -3.85 5.7 -4.55 Q3.25 -4.95 1.4 -6.7 1.6 -7.55 2.25 -8.15 L2.7 -8.35 3.15 -8.6 M25.65 18.9 L-25.65 18.9 -25.65 -18.9 25.65 -18.9 25.65 18.9 M-12.3 1.3 Q-10.95 0.6 -10.55 -0.8 -10.95 0.6 -12.3 1.3 L-11.1 3.1 -11.4 3.4 Q-13.15 4.1 -14.0 5.75 -13.15 4.1 -11.4 3.4 L-11.1 3.1 -12.3 1.3 -13.2 -0.55 -11.85 -1.9 -13.2 -0.55 -12.3 1.3 M-7.75 5.25 L-6.7 4.25 Q-5.15 4.6 -3.7 5.35 L-2.95 5.55 -2.15 3.85 -1.7 3.6 -1.5 3.55 -1.15 2.15 -2.8 0.45 -2.05 -1.0 -2.8 0.45 -1.15 2.15 -1.5 3.55 -1.7 3.6 -2.15 3.85 -2.95 5.55 -3.7 5.35 Q-5.15 4.6 -6.7 4.25 L-7.75 5.25 -8.0 6.55 -10.45 7.3 -11.35 10.25 -10.45 7.3 -8.0 6.55 -7.75 5.25 -7.45 3.8 -8.1 2.3 -7.9 1.9 -7.25 1.25 -6.2 0.6 -5.8 -0.05 -6.2 -2.2 -5.95 -2.65 -5.6 -3.05 -5.0 -3.5 -4.35 -3.45 -5.0 -3.5 -5.6 -3.05 -5.95 -2.65 -6.2 -2.2 -5.8 -0.05 -6.2 0.6 -7.25 1.25 -7.9 1.9 -8.1 2.3 -7.45 3.8 -7.75 5.25" fill="url(#gradient0)" fill-rule="evenodd" stroke="none"/>
    <path d="M4.55 -2.8 L5.55 -3.85 5.7 -4.55 Q3.25 -4.95 1.4 -6.7 1.6 -7.55 2.25 -8.15 L2.7 -8.35 3.15 -8.6 M8.15 11.05 L9.1 9.3 Q8.25 7.6 6.55 6.85 L6.35 6.0 Q7.7 4.65 9.3 3.65 L8.6 2.15 7.8 1.65 6.55 1.0 6.2 -0.5 3.9 -2.05 3.05 -1.0 1.4 -1.9 2.0 -2.7 1.95 -3.3 0.5 -3.9 0.45 -4.45 -1.7 -5.8 -1.85 -6.4 M13.25 -4.05 L12.75 -4.15 11.85 -4.05 11.9 -3.45 Q12.0 -2.5 11.25 -1.75 L11.9 -0.35 Q12.25 0.7 11.25 1.2 L14.05 2.7 M11.25 1.2 L10.2 1.35 8.85 1.85 7.8 1.65 M0.65 5.45 Q1.85 5.45 2.45 6.35 L2.75 7.0 Q1.65 8.1 0.7 9.65 -1.15 9.9 -1.45 11.8 L0.35 13.2 M-14.0 5.75 Q-13.15 4.1 -11.4 3.4 L-11.1 3.1 -12.3 1.3 -13.2 -0.55 -11.85 -1.9 M-11.35 10.25 L-10.45 7.3 -8.0 6.55 -7.75 5.25 -7.45 3.8 -8.1 2.3 -7.9 1.9 -7.25 1.25 -6.2 0.6 -5.8 -0.05 -6.2 -2.2 -5.95 -2.65 -5.6 -3.05 -5.0 -3.5 -4.35 -3.45 M-2.05 -1.0 L-2.8 0.45 -1.15 2.15 -1.5 3.55 -1.7 3.6 -2.15 3.85 -2.95 5.55 -3.7 5.35 Q-5.15 4.6 -6.7 4.25 L-7.75 5.25 M-10.55 -0.8 Q-10.95 0.6 -12.3 1.3" fill="none" stroke="#ff9900" stroke-linecap="round" stroke-linejoin="round" stroke-width="0.05"/>
  </g>
  <defs>
    <linearGradient gradientTransform="matrix(0.0, 0.0228, -0.0231, 0.0, 0.0, 0.0)" gradientUnits="userSpaceOnUse" id="gradient0" spreadMethod="pad" x1="-819.2" x2="819.2">
      <stop offset="0.0" stop-color="#ffaf24" stop-opacity="0.7019608"/>
      <stop offset="1.0" stop-color="#b72b15" stop-opacity="0.7019608"/>
    </linearGradient>
  </defs>
</svg>
