<?xml version="1.0" encoding="UTF-8" standalone="no"?>
<svg xmlns:xlink="http://www.w3.org/1999/xlink" height="10.5px" width="23.5px" xmlns="http://www.w3.org/2000/svg">
  <g transform="matrix(1.0, 0.0, 0.0, 1.0, 0.0, 0.0)">
    <path d="M7.6 46.7 L9.5 48.65 9.85 49.55 Q10.1 51.1 9.3 52.35 L8.35 53.25 7.1 54.2 Q5.0 55.4 2.75 55.65 L-3.4 56.1 -7.95 55.05 Q-10.6 54.35 -12.6 52.6 -14.6 50.8 -12.6 51.45 L-11.2 52.05 -11.2 52.35 -10.8 52.3 -9.1 52.45 -4.6 52.75 -0.55 52.65 Q3.55 52.05 5.8 48.6 L5.25 47.1 4.55 46.55 4.45 45.75 4.7 45.6 Q6.45 45.6 7.6 46.7" fill="#291f78" fill-opacity="0.5803922" fill-rule="evenodd" stroke="none"/>
  </g>
</svg>
