<?xml version="1.0" encoding="UTF-8" standalone="no"?>
<svg xmlns:xlink="http://www.w3.org/1999/xlink" height="16.8px" width="49.65px" xmlns="http://www.w3.org/2000/svg">
  <g transform="matrix(1.0, 0.0, 0.0, 1.0, 0.0, 0.0)">
    <path d="M10.7 48.9 Q8.5 50.0 6.2 50.3 3.85 50.3 1.4 51.3 L-3.4 52.55 Q-5.0 52.8 -6.45 53.8 L-7.4 54.95 Q-4.45 56.5 -1.35 57.55 L2.9 57.3 7.5 57.55 Q10.15 57.6 12.85 58.9 15.1 59.75 17.5 59.75 20.0 59.55 22.4 58.7 L26.8 57.95 30.35 57.3 33.95 56.9 Q36.85 56.7 39.3 54.95 39.75 54.75 40.1 54.35 36.75 52.5 33.25 51.85 30.4 51.85 27.55 50.6 26.9 50.1 26.2 50.0 L22.7 49.3 18.5 48.4 15.95 47.7 Q13.3 47.7 10.7 48.9 M17.2 45.6 Q19.55 45.7 21.95 46.5 L26.95 48.05 32.1 49.45 37.35 50.85 Q39.5 51.25 41.25 53.5 40.7 56.95 38.85 58.05 L36.25 58.6 29.4 59.85 22.9 61.05 Q21.1 61.5 19.6 62.05 16.1 62.65 12.75 61.5 10.35 60.4 7.9 59.95 L2.75 60.1 -1.1 59.6 Q-2.95 59.55 -4.8 58.4 -6.5 57.45 -8.15 56.9 L-8.3 56.1 -8.4 54.75 -8.4 53.4 Q-6.2 51.05 -3.5 50.3 L2.35 48.65 6.75 48.05 Q9.45 47.3 12.3 46.15 14.75 45.1 17.2 45.6" fill="#9b8ae1" fill-opacity="0.5803922" fill-rule="evenodd" stroke="none"/>
  </g>
</svg>
