<?xml version="1.0" encoding="UTF-8" standalone="no"?>
<svg xmlns:xlink="http://www.w3.org/1999/xlink" height="15.15px" width="48.6px" xmlns="http://www.w3.org/2000/svg">
  <g transform="matrix(1.0, 0.0, 0.0, 1.0, 0.0, 0.0)">
    <path d="M10.4 47.9 Q12.95 46.8 15.55 46.35 20.25 46.65 24.85 48.3 29.55 50.05 34.35 51.2 L35.25 51.45 39.2 53.2 Q42.2 54.55 39.7 56.3 37.15 58.0 34.05 58.05 L26.9 58.7 24.8 59.0 22.4 60.1 Q20.9 60.45 19.35 61.05 15.8 62.3 12.4 60.25 11.85 59.9 11.3 59.7 7.5 57.75 3.6 57.85 L3.3 57.75 -0.15 57.95 Q-2.9 58.1 -5.55 57.05 -7.3 56.35 -7.75 53.85 -6.9 51.85 -5.15 51.3 -0.35 49.65 4.55 49.35 7.5 49.15 10.4 47.9" fill="#6633cc" fill-opacity="0.7529412" fill-rule="evenodd" stroke="none"/>
  </g>
</svg>
