<?xml version="1.0" encoding="UTF-8" standalone="no"?>
<svg xmlns:xlink="http://www.w3.org/1999/xlink" height="6.5px" width="42.05px" xmlns="http://www.w3.org/2000/svg">
  <g transform="matrix(1.0, 0.0, 0.0, 1.0, 0.0, 0.0)">
    <path d="M28.8 52.25 Q32.7 52.4 36.5 53.85 L36.55 54.35 Q36.1 56.15 34.75 55.9 L33.45 55.85 Q28.65 56.2 23.95 57.75 19.2 59.25 14.5 58.5 12.65 58.2 10.85 57.35 6.35 55.2 1.75 56.1 L-2.65 56.4 Q-3.7 56.4 -4.65 55.9 L-4.7 55.7 -4.75 55.6 -4.95 55.6 -5.1 55.5 -5.2 55.3 -5.4 55.05 -5.45 54.95 -5.45 54.75 -5.4 54.65 -5.3 54.5 -5.2 54.35 -5.2 54.55 -5.15 54.75 Q-2.35 55.9 0.6 55.05 5.85 53.4 11.05 55.5 14.4 56.95 17.9 56.45 L25.35 54.95 Q27.15 54.45 28.65 52.35 L28.8 52.25" fill="#291f78" fill-opacity="0.5803922" fill-rule="evenodd" stroke="none"/>
  </g>
</svg>
