<?xml version="1.0" encoding="UTF-8" standalone="no"?>
<svg xmlns:xlink="http://www.w3.org/1999/xlink" height="24.2px" width="21.5px" xmlns="http://www.w3.org/2000/svg">
  <g transform="matrix(1.0, 0.0, 0.0, 1.0, 0.0, 0.0)">
    <path d="M10.4 -0.4 L12.4 0.15 15.45 1.35 Q16.85 2.0 18.2 2.9 L20.4 4.5 Q21.4 5.5 21.5 6.75 L18.35 5.45 19.05 6.4 19.5 7.45 19.85 8.9 20.05 10.35 20.05 10.6 18.4 9.35 Q19.4 11.4 19.2 13.7 L17.35 12.25 Q18.35 14.45 17.8 16.9 L16.9 15.9 15.8 14.95 Q17.0 16.7 16.6 19.0 16.1 17.65 14.8 16.9 15.55 19.0 14.6 20.85 L13.3 18.95 13.25 19.8 Q13.3 21.15 12.85 22.4 L12.35 23.8 Q12.35 21.5 11.55 20.85 L10.95 20.35 11.05 21.65 10.35 20.15 Q9.5 20.95 9.55 22.2 L9.6 23.05 Q8.55 21.1 8.25 19.2 L8.2 19.0 7.8 19.7 7.45 20.65 7.35 20.9 6.7 19.95 Q6.05 18.6 6.6 17.1 L4.8 18.7 Q4.05 17.55 4.95 15.7 L5.3 14.95 Q4.25 15.15 3.7 16.35 L3.35 16.9 3.2 17.1 3.0 15.55 Q2.9 13.4 4.25 11.8 2.8 12.4 1.9 13.6 L1.75 13.7 Q1.2 11.45 2.1 9.3 L2.7 8.0 Q1.5 8.25 0.8 9.1 L0.35 9.8 Q0.2 6.8 1.9 4.55 L0.0 5.9 1.2 3.8 Q1.8 2.8 2.75 2.05 3.75 1.3 4.9 0.8 6.55 0.15 8.35 -0.15 L10.4 -0.4 M16.7 5.2 L17.85 6.1 Q19.15 7.25 19.85 8.9 19.15 7.25 17.85 6.1 L16.7 5.2 M16.0 11.45 L14.75 10.65 11.15 9.25 11.55 12.7 11.45 13.65 11.05 15.2 10.75 17.4 10.95 20.35 10.75 17.4 11.05 15.2 11.45 13.65 11.55 12.7 11.15 9.25 11.1 5.6 10.7 1.95 10.35 0.6 9.65 0.45 8.45 0.8 8.3 1.75 8.35 4.45 8.5 5.2 9.1 9.05 9.35 12.65 9.4 15.05 9.7 17.4 10.35 20.15 9.7 17.4 9.4 15.05 9.35 12.65 9.1 9.05 8.5 5.2 8.35 4.45 8.3 1.75 8.45 0.8 9.65 0.45 10.35 0.6 10.7 1.95 11.1 5.6 11.15 9.25 14.75 10.65 16.0 11.45 M17.25 4.5 L14.2 3.2 10.7 1.95 14.2 3.2 17.25 4.5 M18.5 12.05 L17.95 11.0 16.05 8.4 17.95 11.0 18.5 12.05 M11.1 5.6 L14.75 7.15 Q15.85 7.6 16.9 8.2 15.85 7.6 14.75 7.15 L11.1 5.6 M1.05 7.7 Q1.5 6.55 2.35 5.7 3.6 4.6 5.0 3.75 3.6 4.6 2.35 5.7 1.5 6.55 1.05 7.7 M10.1 17.8 L9.85 15.35 9.85 14.15 Q10.0 12.25 9.75 10.4 L9.2 6.75 8.9 4.4 Q8.75 2.75 9.05 1.3 8.75 2.75 8.9 4.4 L9.2 6.75 9.75 10.4 Q10.0 12.25 9.85 14.15 L9.85 15.35 10.1 17.8 M8.3 1.75 Q6.55 2.1 4.95 2.75 3.65 3.2 2.55 4.0 L1.9 4.55 2.55 4.0 Q3.65 3.2 4.95 2.75 6.55 2.1 8.3 1.75 M2.1 12.1 L2.8 9.55 Q3.3 8.0 4.55 7.35 3.3 8.0 2.8 9.55 L2.1 12.1 M9.4 15.05 Q8.8 15.2 8.25 15.5 7.45 15.9 6.7 16.45 7.45 15.9 8.25 15.5 8.8 15.2 9.4 15.05 M8.4 18.1 L9.7 17.4 8.4 18.1 M5.25 14.35 Q5.6 14.1 6.0 14.0 7.65 13.25 9.35 12.65 7.65 13.25 6.0 14.0 5.6 14.1 5.25 14.35 M8.5 5.2 L5.55 6.2 2.9 7.4 5.55 6.2 8.5 5.2 M9.1 9.05 L7.25 9.65 Q5.75 10.1 4.5 11.15 5.75 10.1 7.25 9.65 L9.1 9.05 M7.15 19.85 L7.05 19.05 Q7.15 17.7 8.1 16.6 7.15 17.7 7.05 19.05 L7.15 19.85 M9.15 21.15 L9.05 19.45 9.15 18.8 9.05 19.45 9.15 21.15 M3.5 15.6 Q3.55 14.35 4.2 13.2 5.0 11.65 6.25 10.95 5.0 11.65 4.2 13.2 3.55 14.35 3.5 15.6 M4.9 17.5 Q5.0 16.95 5.3 16.55 L6.7 14.5 5.3 16.55 Q5.0 16.95 4.9 17.5 M11.55 12.7 L14.45 13.8 15.15 14.2 14.45 13.8 11.55 12.7 M13.85 14.45 L14.7 15.25 Q15.7 16.35 16.2 17.5 15.7 16.35 14.7 15.25 L13.85 14.45 M12.55 18.2 L10.75 17.4 12.55 18.2 M12.25 16.4 L12.85 16.9 Q13.9 18.0 14.35 19.3 13.9 18.0 12.85 16.9 L12.25 16.4 M11.05 15.2 L12.5 15.8 Q13.3 16.15 14.05 16.65 13.3 16.15 12.5 15.8 L11.05 15.2 M17.25 15.2 Q16.7 13.1 14.9 12.25 16.7 13.1 17.25 15.2 M12.25 20.95 L11.9 18.85 12.25 20.95" fill="url(#gradient0)" fill-rule="evenodd" stroke="none"/>
    <path d="M10.4 -0.4 L12.4 0.15 15.45 1.35 Q16.85 2.0 18.2 2.9 L20.4 4.5 Q21.4 5.5 21.5 6.75 L18.35 5.45 19.05 6.4 19.5 7.45 19.85 8.9 20.05 10.35 20.05 10.6 18.4 9.35 Q19.4 11.4 19.2 13.7 L17.35 12.25 Q18.35 14.45 17.8 16.9 L16.9 15.9 15.8 14.95 Q17.0 16.7 16.6 19.0 16.1 17.65 14.8 16.9 15.55 19.0 14.6 20.85 L13.3 18.95 13.25 19.8 Q13.3 21.15 12.85 22.4 L12.35 23.8 Q12.35 21.5 11.55 20.85 L10.95 20.35 11.05 21.65 10.35 20.15 Q9.5 20.95 9.55 22.2 L9.6 23.05 Q8.55 21.1 8.25 19.2 L8.2 19.0 7.8 19.7 7.45 20.65 7.35 20.9 6.7 19.95 Q6.05 18.6 6.6 17.1 L4.8 18.7 Q4.05 17.55 4.95 15.7 L5.3 14.95 Q4.25 15.15 3.7 16.35 L3.35 16.9 3.2 17.1 3.0 15.55 Q2.9 13.4 4.25 11.8 2.8 12.4 1.9 13.6 L1.75 13.7 Q1.2 11.45 2.1 9.3 L2.7 8.0 Q1.5 8.25 0.8 9.1 L0.35 9.8 Q0.2 6.8 1.9 4.55 L0.0 5.9 1.2 3.8 Q1.8 2.8 2.75 2.05 3.75 1.3 4.9 0.8 6.55 0.15 8.35 -0.15 L10.4 -0.4 M10.95 20.35 L10.75 17.4 11.05 15.2 11.45 13.65 11.55 12.7 11.15 9.25 11.1 5.6 10.7 1.95 10.35 0.6 9.65 0.45 8.45 0.8 8.3 1.75 8.35 4.45 8.5 5.2 9.1 9.05 9.35 12.65 9.4 15.05 9.7 17.4 10.35 20.15 M10.7 1.95 L14.2 3.2 17.25 4.5 M11.15 9.25 L14.75 10.65 16.0 11.45 M16.9 8.2 Q15.85 7.6 14.75 7.15 L11.1 5.6 M1.9 4.55 L2.55 4.0 Q3.65 3.2 4.95 2.75 6.55 2.1 8.3 1.75 M4.5 11.15 Q5.75 10.1 7.25 9.65 L9.1 9.05 M2.9 7.4 L5.55 6.2 8.5 5.2 M9.35 12.65 Q7.65 13.25 6.0 14.0 5.6 14.1 5.25 14.35 M9.7 17.4 L8.4 18.1 M6.7 16.45 Q7.45 15.9 8.25 15.5 8.8 15.2 9.4 15.05 M15.15 14.2 L14.45 13.8 11.55 12.7 M10.75 17.4 L12.55 18.2 M14.05 16.65 Q13.3 16.15 12.5 15.8 L11.05 15.2" fill="none" stroke="#000000" stroke-linecap="round" stroke-linejoin="round" stroke-width="0.05"/>
    <path d="M19.85 8.9 Q19.15 7.25 17.85 6.1 L16.7 5.2 M16.05 8.4 L17.95 11.0 18.5 12.05 M9.05 1.3 Q8.75 2.75 8.9 4.4 L9.2 6.75 9.75 10.4 Q10.0 12.25 9.85 14.15 L9.85 15.35 10.1 17.8 M5.0 3.75 Q3.6 4.6 2.35 5.7 1.5 6.55 1.05 7.7 M4.55 7.35 Q3.3 8.0 2.8 9.55 L2.1 12.1 M6.7 14.5 L5.3 16.55 Q5.0 16.95 4.9 17.5 M6.25 10.95 Q5.0 11.65 4.2 13.2 3.55 14.35 3.5 15.6 M9.15 18.8 L9.05 19.45 9.15 21.15 M8.1 16.6 Q7.15 17.7 7.05 19.05 L7.15 19.85 M16.2 17.5 Q15.7 16.35 14.7 15.25 L13.85 14.45 M14.35 19.3 Q13.9 18.0 12.85 16.9 L12.25 16.4 M11.9 18.85 L12.25 20.95 M14.9 12.25 Q16.7 13.1 17.25 15.2" fill="none" stroke="#886646" stroke-linecap="round" stroke-linejoin="round" stroke-width="0.05"/>
  </g>
  <defs>
    <radialGradient cx="0" cy="0" gradientTransform="matrix(0.0166, 9.0E-4, 0.0, 0.0196, 10.2, 15.3)" gradientUnits="userSpaceOnUse" id="gradient0" r="819.2" spreadMethod="pad">
      <stop offset="0.0" stop-color="#685135"/>
      <stop offset="1.0" stop-color="#302518"/>
    </radialGradient>
  </defs>
</svg>
