<?xml version="1.0" encoding="UTF-8" standalone="no"?>
<svg xmlns:xlink="http://www.w3.org/1999/xlink" height="5.65px" width="11.95px" xmlns="http://www.w3.org/2000/svg">
  <g transform="matrix(1.0, 0.0, 0.0, 1.0, 0.0, 0.0)">
    <path d="M5.3 1.0 L6.75 1.3 9.7 1.05 13.0 0.0 12.7 0.35 Q11.0 2.4 8.35 2.5 7.2 2.35 6.35 2.85 L7.0 2.0 6.35 2.85 6.1 3.05 5.8 3.25 4.95 3.7 4.5 3.9 3.65 4.05 3.4 4.05 2.7 4.1 2.35 4.1 2.15 4.1 2.05 4.05 Q1.75 4.05 1.55 3.65 L1.05 2.85 1.15 1.75 1.1 1.65 3.4 1.15 Q2.4 -0.15 2.9 -1.55 3.25 -0.65 3.85 0.15 L4.0 0.25 Q4.25 0.5 4.6 0.55 5.6 -0.05 6.3 -0.85 L6.0 0.15 5.3 1.0 4.85 1.4 Q3.65 2.2 2.3 2.6 L3.0 2.7 3.4 2.8 5.8 2.5 6.5 2.25 6.75 2.1 6.9 1.95 6.75 2.1 6.5 2.25 5.8 2.5 3.4 2.8 3.0 2.7 2.3 2.6 Q3.65 2.2 4.85 1.4 L5.3 1.0 M7.0 2.0 L7.1 1.85 6.9 1.95 7.0 2.0 M3.4 1.15 L4.6 0.55 3.4 1.15" fill="url(#gradient0)" fill-rule="evenodd" stroke="none"/>
    <path d="M6.35 2.85 Q7.2 2.35 8.35 2.5 11.0 2.4 12.7 0.35 L13.0 0.0 9.7 1.05 6.75 1.3 5.3 1.0 4.85 1.4 Q3.65 2.2 2.3 2.6 L3.0 2.7 3.4 2.8 5.8 2.5 6.5 2.25 6.75 2.1 6.9 1.95 7.1 1.85 7.0 2.0 6.35 2.85 6.1 3.05 5.8 3.25 4.95 3.7 4.5 3.9 3.65 4.05 3.4 4.05 2.7 4.1 2.35 4.1 2.15 4.1 2.05 4.05 Q1.75 4.05 1.55 3.65 L1.05 2.85 1.15 1.75 1.1 1.65 3.4 1.15 Q2.4 -0.15 2.9 -1.55 3.25 -0.65 3.85 0.15 L4.0 0.25 Q4.25 0.5 4.6 0.55 5.6 -0.05 6.3 -0.85 L6.0 0.15 5.3 1.0 M4.6 0.55 L3.4 1.15" fill="none" stroke="#000000" stroke-linecap="round" stroke-linejoin="round" stroke-width="0.05"/>
  </g>
  <defs>
    <linearGradient gradientTransform="matrix(-0.0078, 0.0017, -7.0E-4, -0.0034, 6.5, 2.9)" gradientUnits="userSpaceOnUse" id="gradient0" spreadMethod="pad" x1="-819.2" x2="819.2">
      <stop offset="0.0" stop-color="#3a2e1f"/>
      <stop offset="1.0" stop-color="#000000"/>
    </linearGradient>
  </defs>
</svg>
