<?xml version="1.0" encoding="UTF-8" standalone="no"?>
<svg xmlns:xlink="http://www.w3.org/1999/xlink" height="25.0px" width="25.0px" xmlns="http://www.w3.org/2000/svg">
  <g transform="matrix(1.0, 0.0, 0.0, 1.0, 0.0, 0.0)">
    <path d="M8.5 -2.75 Q11.7 0.45 12.1 4.8 L12.15 6.1 Q12.15 11.25 8.5 14.9 L7.85 15.5 Q5.5 17.55 2.6 18.25 L1.7 18.45 -0.3 18.55 Q-5.5 18.55 -9.15 14.9 L-9.35 14.7 Q-12.85 11.1 -12.85 6.1 -12.85 0.9 -9.15 -2.75 L-8.5 -3.4 Q-5.0 -6.45 -0.3 -6.45 L1.55 -6.3 2.6 -6.1 Q5.55 -5.45 7.85 -3.35 L8.5 -2.75" fill="#0000ff" fill-rule="evenodd" stroke="none"/>
  </g>
</svg>
