<?xml version="1.0" encoding="UTF-8" standalone="no"?>
<svg xmlns:xlink="http://www.w3.org/1999/xlink" height="23.45px" width="23.45px" xmlns="http://www.w3.org/2000/svg">
  <g transform="matrix(1.0, 0.0, 0.0, 1.0, 0.0, 0.0)">
    <path d="M49.5 -10.35 Q52.75 -13.2 57.15 -13.2 L58.9 -13.05 59.9 -12.9 Q62.65 -12.25 64.85 -10.3 L65.4 -9.75 Q68.4 -6.75 68.8 -2.65 L68.85 -1.45 Q68.85 3.4 65.4 6.8 L64.8 7.4 Q62.65 9.3 59.9 9.95 L59.05 10.15 57.15 10.25 Q52.3 10.25 48.85 6.8 L48.7 6.65 Q45.4 3.25 45.4 -1.45 45.4 -6.3 48.85 -9.75 L49.5 -10.35 51.0 -10.5 Q54.2 -10.5 56.45 -7.95 58.75 -5.35 58.75 -1.75 58.75 1.9 56.45 4.45 54.2 7.0 51.0 7.0 L48.7 6.65 51.0 7.0 Q54.2 7.0 56.45 4.45 58.75 1.9 58.75 -1.75 58.75 -5.35 56.45 -7.95 54.2 -10.5 51.0 -10.5 L49.5 -10.35 M56.55 9.55 L59.35 9.75 59.9 8.9 60.05 8.7 61.7 5.25 65.9 3.4 65.95 3.25 66.3 -1.5 66.3 -2.15 68.8 -2.65 66.3 -2.15 66.3 -1.5 65.95 3.25 65.9 3.4 61.7 5.25 60.05 8.7 59.9 8.9 59.35 9.75 59.05 10.15 59.35 9.75 56.55 9.55 M57.15 8.6 L60.05 8.7 57.15 8.6 M62.75 -0.65 L62.75 -1.4 62.5 -5.0 61.85 -4.95 62.5 -5.0 63.3 -5.1 62.5 -5.0 62.75 -1.4 62.75 -0.65 63.85 -0.75 62.75 -0.65 61.85 -0.6 62.75 -0.65 M60.75 -8.55 L61.5 -8.7 59.9 -11.75 59.5 -12.35 57.4 -12.05 59.5 -12.35 59.05 -12.9 56.7 -12.55 59.05 -12.9 59.5 -12.35 59.9 -11.75 61.5 -8.7 60.75 -8.55 M59.05 -12.9 L58.9 -13.05 59.05 -12.9 M52.65 0.4 Q53.45 -0.5 53.45 -1.9 53.45 -3.25 52.65 -4.2 51.85 -5.15 50.7 -5.15 49.6 -5.15 48.8 -4.2 48.0 -3.25 48.0 -1.9 48.0 -0.5 48.8 0.4 49.6 1.35 50.7 1.35 51.85 1.35 52.65 0.4 M66.3 -2.15 Q66.2 -6.6 64.85 -10.3 66.2 -6.6 66.3 -2.15" fill="url(#gradient0)" fill-rule="evenodd" stroke="none"/>
    <path d="M52.65 0.4 Q51.85 1.35 50.7 1.35 49.6 1.35 48.8 0.4 48.0 -0.5 48.0 -1.9 48.0 -3.25 48.8 -4.2 49.6 -5.15 50.7 -5.15 51.85 -5.15 52.65 -4.2 53.45 -3.25 53.45 -1.9 53.45 -0.5 52.65 0.4" fill="#00ff00" fill-rule="evenodd" stroke="none"/>
    <path d="M49.5 -10.35 Q52.75 -13.2 57.15 -13.2 L58.9 -13.05 59.9 -12.9 Q62.65 -12.25 64.85 -10.3 L65.4 -9.75 Q68.4 -6.75 68.8 -2.65 L68.85 -1.45 Q68.85 3.4 65.4 6.8 L64.8 7.4 Q62.65 9.3 59.9 9.95 L59.05 10.15 57.15 10.25 Q52.3 10.25 48.85 6.8 L48.7 6.65 Q45.4 3.25 45.4 -1.45 45.4 -6.3 48.85 -9.75 L49.5 -10.35" fill="none" stroke="#000000" stroke-linecap="round" stroke-linejoin="round" stroke-width="0.05"/>
    <path d="M49.5 -10.35 L51.0 -10.5 Q54.2 -10.5 56.45 -7.95 58.75 -5.35 58.75 -1.75 58.75 1.9 56.45 4.45 54.2 7.0 51.0 7.0 L48.7 6.65 M57.4 -12.05 L59.5 -12.35 59.05 -12.9 56.7 -12.55 M58.9 -13.05 L59.05 -12.9 M59.5 -12.35 L59.9 -11.75 61.5 -8.7 60.75 -8.55 M68.8 -2.65 L66.3 -2.15 66.3 -1.5 65.95 3.25 65.9 3.4 61.7 5.25 60.05 8.7 59.9 8.9 59.35 9.75 59.05 10.15 M61.85 -4.95 L62.5 -5.0 63.3 -5.1 M63.85 -0.75 L62.75 -0.65 61.85 -0.6 M62.5 -5.0 L62.75 -1.4 62.75 -0.65 M60.05 8.7 L57.15 8.6 M59.35 9.75 L56.55 9.55 M64.85 -10.3 Q66.2 -6.6 66.3 -2.15" fill="none" stroke="#00ff00" stroke-linecap="round" stroke-linejoin="round" stroke-width="0.05"/>
    <path d="M52.65 0.4 Q51.85 1.35 50.7 1.35 49.6 1.35 48.8 0.4 48.0 -0.5 48.0 -1.9 48.0 -3.25 48.8 -4.2 49.6 -5.15 50.7 -5.15 51.85 -5.15 52.65 -4.2 53.45 -3.25 53.45 -1.9 53.45 -0.5 52.65 0.4 Z" fill="none" stroke="#000000" stroke-linecap="round" stroke-linejoin="round" stroke-width="0.05"/>
  </g>
  <defs>
    <radialGradient cx="0" cy="0" gradientTransform="matrix(0.0148, 0.0, 0.0, 0.0148, 54.0, -4.45)" gradientUnits="userSpaceOnUse" id="gradient0" r="819.2" spreadMethod="pad">
      <stop offset="0.0" stop-color="#3f4039"/>
      <stop offset="0.8274509803921568" stop-color="#282d22"/>
      <stop offset="1.0" stop-color="#1e1e1e"/>
    </radialGradient>
  </defs>
</svg>
