<?xml version="1.0" encoding="UTF-8" standalone="no"?>
<svg xmlns:xlink="http://www.w3.org/1999/xlink" height="10.25px" width="10.25px" xmlns="http://www.w3.org/2000/svg">
  <g transform="matrix(1.0, 0.0, 0.0, 1.0, 0.0, 0.0)">
    <path d="M8.75 8.75 Q7.2 10.25 5.15 10.3 3.0 10.25 1.5 8.75 0.0 7.3 0.0 5.15 0.0 3.05 1.5 1.55 3.0 0.0 5.15 0.05 7.2 0.0 8.75 1.55 10.25 3.05 10.25 5.15 10.25 7.3 8.75 8.75" fill="url(#gradient0)" fill-rule="evenodd" stroke="none"/>
    <path d="M8.75 8.75 Q7.2 10.25 5.15 10.3 3.0 10.25 1.5 8.75 0.0 7.3 0.0 5.15 0.0 3.05 1.5 1.55 3.0 0.0 5.15 0.05 7.2 0.0 8.75 1.55 10.25 3.05 10.25 5.15 10.25 7.3 8.75 8.75 Z" fill="none" stroke="#00ff00" stroke-linecap="round" stroke-linejoin="round" stroke-width="0.05"/>
    <path d="M1.4 8.0 Q-0.1 6.65 1.6 5.85 4.3 6.75 2.35 8.1 L1.4 8.0 M3.0 8.0 L3.2 7.95 Q3.55 8.0 3.65 8.3 L3.7 8.4 3.4 8.85 3.2 8.95 Q2.55 8.85 2.7 8.3 L3.0 8.0" fill="#c9f9c8" fill-opacity="0.7529412" fill-rule="evenodd" stroke="none"/>
  </g>
  <defs>
    <radialGradient cx="0" cy="0" gradientTransform="matrix(0.0069, 0.0, 0.0, 0.0069, 5.1, 5.15)" gradientUnits="userSpaceOnUse" id="gradient0" r="819.2" spreadMethod="pad">
      <stop offset="0.0" stop-color="#4fff00" stop-opacity="0.67058825"/>
      <stop offset="1.0" stop-color="#0a6b01" stop-opacity="0.2"/>
    </radialGradient>
  </defs>
</svg>
