<?xml version="1.0" encoding="UTF-8" standalone="no"?>
<svg xmlns:xlink="http://www.w3.org/1999/xlink" height="8.05px" width="11.55px" xmlns="http://www.w3.org/2000/svg">
  <g transform="matrix(1.0, 0.0, 0.0, 1.0, 0.0, 0.0)">
    <path d="M8.4 0.8 L9.0 2.65 8.6 2.95 7.45 3.5 6.4 4.3 4.9 5.5 Q4.15 6.1 3.55 6.85 L2.55 7.9 2.2 8.05 0.9 7.7 0.3 7.6 0.0 6.8 0.95 6.15 1.8 5.4 2.45 4.85 3.3 4.15 3.85 3.7 4.3 3.2 4.35 3.15 5.65 1.95 5.7 1.95 6.9 0.55 Q7.1 0.35 7.35 0.25 7.55 0.05 7.8 0.0 L8.4 0.8 M3.65 6.95 L4.5 6.35 5.6 5.55 7.15 4.4 8.5 3.6 8.9 3.35 Q9.2 4.25 8.45 4.55 7.85 4.75 7.3 5.1 L6.2 5.8 4.95 6.4 3.7 7.05 3.65 6.95 M2.5 6.85 L3.05 6.2 4.3 4.9 7.6 2.2 7.6 2.05 Q7.8 1.45 7.25 0.8 L6.9 0.55 7.25 0.8 Q7.8 1.45 7.6 2.05 L7.6 2.2 4.3 4.9 3.05 6.2 2.5 6.85 M2.45 4.85 L3.5 5.05 4.65 4.05 3.85 3.7 4.65 4.05 3.5 5.05 2.45 4.85 M4.35 3.15 L5.05 3.6 6.7 2.6 6.7 2.55 5.7 1.95 6.7 2.55 6.7 2.6 5.05 3.6 4.35 3.15" fill="#696d67" fill-rule="evenodd" stroke="none"/>
    <path d="M8.4 0.8 L8.85 0.45 9.45 0.2 Q9.9 0.0 11.05 0.9 12.2 1.8 10.6 3.05 L8.9 3.35 8.5 3.6 7.15 4.4 5.6 5.55 4.5 6.35 3.65 6.95 3.55 6.85 Q4.15 6.1 4.9 5.5 L6.4 4.3 7.45 3.5 8.6 2.95 9.0 2.65 8.4 0.8" fill="#7e847b" fill-rule="evenodd" stroke="none"/>
    <path d="M8.9 3.35 L10.6 3.05 Q12.2 1.8 11.05 0.9 9.9 0.0 9.45 0.2 L8.85 0.45 8.4 0.8 9.0 2.65 8.6 2.95 7.45 3.5 6.4 4.3 4.9 5.5 Q4.15 6.1 3.55 6.85 L2.55 7.9 2.2 8.05 0.9 7.7 0.3 7.6 0.0 6.8 0.95 6.15 1.8 5.4 2.45 4.85 3.3 4.15 3.85 3.7 4.3 3.2 4.35 3.15 5.65 1.95 5.7 1.95 6.9 0.55 Q7.1 0.35 7.35 0.25 7.55 0.05 7.8 0.0 L8.4 0.8 M3.65 6.95 L4.5 6.35 5.6 5.55 7.15 4.4 8.5 3.6 8.9 3.35 Q9.2 4.25 8.45 4.55 7.85 4.75 7.3 5.1 L6.2 5.8 4.95 6.4 3.7 7.05 3.4 7.15 2.55 7.9 M6.9 0.55 L7.25 0.8 Q7.8 1.45 7.6 2.05 L7.6 2.2 4.3 4.9 3.05 6.2 2.5 6.85 M3.65 6.95 L3.4 7.15" fill="none" stroke="#000000" stroke-linecap="round" stroke-linejoin="round" stroke-width="0.05"/>
    <path d="M5.7 1.95 L6.7 2.55 6.7 2.6 5.05 3.6 4.35 3.15 M3.85 3.7 L4.65 4.05 3.5 5.05 2.45 4.85" fill="none" stroke="#00ff00" stroke-linecap="round" stroke-linejoin="round" stroke-width="0.05"/>
  </g>
</svg>
