<?xml version="1.0" encoding="UTF-8" standalone="no"?>
<svg xmlns:xlink="http://www.w3.org/1999/xlink" height="4.25px" width="12.45px" xmlns="http://www.w3.org/2000/svg">
  <g transform="matrix(1.0, 0.0, 0.0, 1.0, 0.0, 0.0)">
    <path d="M6.4 0.55 Q7.4 0.05 8.3 0.05 L9.6 0.15 9.0 1.0 7.65 1.8 7.0 1.75 6.95 1.3 Q7.0 0.75 6.4 0.55 7.0 0.75 6.95 1.3 L7.0 1.75 6.1 2.5 Q4.85 2.85 3.7 3.35 L3.0 3.1 Q2.2 3.5 1.75 3.85 0.7 4.5 -0.45 4.2 L-2.15 4.0 -2.85 3.8 Q-1.3 3.6 0.15 3.0 L2.45 1.75 6.4 0.55 M3.0 3.1 L3.0 2.5 2.45 1.75 3.0 2.5 3.0 3.1" fill="#7e847b" fill-rule="evenodd" stroke="none"/>
    <path d="M7.0 1.75 L7.65 1.8 9.0 1.0 9.6 0.15 8.3 0.05 Q7.4 0.05 6.4 0.55 L2.45 1.75 0.15 3.0 Q-1.3 3.6 -2.85 3.8 L-2.15 4.0 -0.45 4.2 Q0.7 4.5 1.75 3.85 2.2 3.5 3.0 3.1 L3.7 3.35 Q4.85 2.85 6.1 2.5 L7.0 1.75" fill="none" stroke="#000000" stroke-linecap="round" stroke-linejoin="round" stroke-width="0.05"/>
    <path d="M6.4 0.55 Q7.0 0.75 6.95 1.3 L7.0 1.75 M2.45 1.75 L3.0 2.5 3.0 3.1" fill="none" stroke="#00ff00" stroke-linecap="round" stroke-linejoin="round" stroke-width="0.05"/>
  </g>
</svg>
