<?xml version="1.0" encoding="UTF-8" standalone="no"?>
<svg xmlns:xlink="http://www.w3.org/1999/xlink" height="11.55px" width="8.6px" xmlns="http://www.w3.org/2000/svg">
  <g transform="matrix(1.0, 0.0, 0.0, 1.0, 0.0, 0.0)">
    <path d="M7.85 8.75 Q8.4 9.2 7.75 9.55 6.85 9.85 6.3 10.6 L5.45 11.45 5.05 11.55 4.9 11.4 4.65 10.0 4.0 9.0 Q2.55 7.55 0.5 7.55 0.0 7.55 0.0 7.3 0.35 6.55 0.95 6.15 L1.05 6.1 1.85 5.0 2.15 4.55 2.8 3.5 3.3 2.45 3.75 1.35 Q3.95 0.6 4.55 0.15 L4.85 0.0 Q5.85 0.05 6.6 0.4 L7.75 0.6 Q8.6 1.05 8.15 1.95 L8.1 2.0 Q7.45 2.65 7.15 3.5 L6.8 4.9 Q6.5 5.7 6.75 6.7 L6.85 7.1 7.85 8.75 M5.4 10.25 L6.9 9.1 7.15 8.85 6.75 8.35 6.4 7.9 6.35 7.75 5.8 6.25 Q5.45 4.85 6.2 3.55 L6.5 2.9 Q6.95 2.0 7.8 1.5 L7.75 0.6 7.8 1.5 Q6.95 2.0 6.5 2.9 L6.2 3.55 Q5.45 4.85 5.8 6.25 L6.35 7.75 6.4 7.9 6.75 8.35 7.15 8.85 6.9 9.1 5.4 10.25 M2.8 3.5 L4.35 4.2 5.1 4.7 5.2 4.25 5.35 3.55 4.85 3.15 Q4.15 2.5 3.3 2.45 4.15 2.5 4.85 3.15 L5.35 3.55 5.2 4.25 5.1 4.7 4.35 4.2 2.8 3.5 M3.75 1.35 L4.45 1.55 Q5.25 2.0 5.9 2.55 L5.95 2.4 6.25 1.95 6.25 1.55 5.95 1.4 5.05 1.0 5.95 1.4 6.25 1.55 6.25 1.95 5.95 2.4 5.9 2.55 Q5.25 2.0 4.45 1.55 L3.75 1.35 M4.3 7.3 L2.9 6.45 Q2.05 6.05 1.05 6.1 2.05 6.05 2.9 6.45 L4.3 7.3 4.3 7.35 4.35 7.35 4.6 6.85 4.75 6.4 4.55 6.1 Q4.05 5.25 2.15 4.55 4.05 5.25 4.55 6.1 L4.75 6.4 4.6 6.85 4.35 7.35 4.3 7.3 M6.0 8.85 L6.75 8.35 6.0 8.85 M5.4 8.6 L6.4 7.9 5.4 8.6" fill="#696d67" fill-rule="evenodd" stroke="none"/>
    <path d="M8.1 2.0 L8.2 4.5 8.6 6.5 8.6 7.6 8.6 7.7 7.85 8.75 6.85 7.1 6.75 6.7 Q6.5 5.7 6.8 4.9 L7.15 3.5 Q7.45 2.65 8.1 2.0 M8.2 4.5 L6.8 4.9 8.2 4.5 M8.6 6.5 L7.5 6.75 6.85 7.1 7.5 6.75 8.6 6.5" fill="#40413f" fill-rule="evenodd" stroke="none"/>
    <path d="M7.85 8.75 Q8.4 9.2 7.75 9.55 6.85 9.85 6.3 10.6 L5.45 11.45 5.05 11.55 4.9 11.4 4.65 10.0 4.0 9.0 Q2.55 7.55 0.5 7.55 0.0 7.55 0.0 7.3 0.35 6.55 0.95 6.15 L1.05 6.1 1.85 5.0 2.15 4.55 2.8 3.5 3.3 2.45 3.75 1.35 Q3.95 0.6 4.55 0.15 L4.85 0.0 Q5.85 0.05 6.6 0.4 L7.75 0.6 Q8.6 1.05 8.15 1.95 L8.1 2.0 8.2 4.5 8.6 6.5 8.6 7.6 8.6 7.7 7.85 8.75 6.85 7.1 6.75 6.7 Q6.5 5.7 6.8 4.9 L7.15 3.5 Q7.45 2.65 8.1 2.0 M7.75 0.6 L7.8 1.5 Q6.95 2.0 6.5 2.9 L6.2 3.55 Q5.45 4.85 5.8 6.25 L6.35 7.75 6.4 7.9 6.75 8.35 7.15 8.85 6.9 9.1 5.4 10.25 M6.8 4.9 L8.2 4.5 M6.85 7.1 L7.5 6.75 8.6 6.5" fill="none" stroke="#000000" stroke-linecap="round" stroke-linejoin="round" stroke-width="0.05"/>
    <path d="M5.05 1.0 L5.95 1.4 6.25 1.55 6.25 1.95 5.95 2.4 5.9 2.55 Q5.25 2.0 4.45 1.55 L3.75 1.35 M3.3 2.45 Q4.15 2.5 4.85 3.15 L5.35 3.55 5.2 4.25 5.1 4.7 4.35 4.2 2.8 3.5 M4.35 7.35 L4.6 6.85 4.75 6.4 4.55 6.1 Q4.05 5.25 2.15 4.55 M1.05 6.1 Q2.05 6.05 2.9 6.45 L4.3 7.3 4.3 7.35 4.35 7.35 M6.4 7.9 L5.4 8.6 M6.75 8.35 L6.0 8.85" fill="none" stroke="#00ff00" stroke-linecap="round" stroke-linejoin="round" stroke-width="0.05"/>
  </g>
</svg>
