<?xml version="1.0" encoding="UTF-8" standalone="no"?>
<svg xmlns:xlink="http://www.w3.org/1999/xlink" height="44.65px" width="29.75px" xmlns="http://www.w3.org/2000/svg">
  <g transform="matrix(1.0, 0.0, 0.0, 1.0, 0.0, 0.0)">
    <path d="M24.9 5.3 L24.9 4.95 25.05 5.25 24.9 5.3" fill="#430101" fill-opacity="0.77254903" fill-rule="evenodd" stroke="none"/>
    <path d="M17.5 11.3 L17.55 11.25 17.6 11.3 17.5 11.3" fill="#dc0e03" fill-opacity="0.77254903" fill-rule="evenodd" stroke="none"/>
    <path d="M0.05 14.7 L0.0 14.4 0.2 14.5 0.05 14.7" fill="#a70303" fill-opacity="0.77254903" fill-rule="evenodd" stroke="none"/>
    <path d="M8.15 21.2 L8.3 21.3 8.05 21.25 8.15 21.2" fill="#ba1701" fill-opacity="0.77254903" fill-rule="evenodd" stroke="none"/>
    <path d="M20.75 1.15 L11.0 11.2 10.7 11.15 9.6 10.85 7.35 9.9 7.2 9.85 6.05 9.1 16.6 0.1 Q18.85 0.35 20.75 1.15 M18.5 11.1 L22.7 2.2 23.85 3.2 20.4 10.55 18.5 11.1 M24.55 4.2 L24.9 5.55 Q24.75 7.2 24.0 8.1 L23.85 8.3 21.95 9.8 24.55 4.2 M4.2 5.4 Q4.4 3.25 7.2 1.7 10.25 0.0 14.55 0.0 L15.15 0.0 4.55 7.35 Q4.2 6.6 4.2 5.75 L4.2 5.55 4.2 5.4" fill="#ffcc03" fill-opacity="0.77254903" fill-rule="evenodd" stroke="none"/>
    <path d="M20.75 1.15 L21.85 1.7 22.7 2.2 18.5 11.1 17.6 11.3 17.55 11.25 17.5 11.3 15.9 11.5 14.55 11.55 11.0 11.2 20.75 1.15 M23.85 3.2 L24.55 4.2 21.95 9.8 21.85 9.85 20.4 10.55 23.85 3.2 M15.15 0.0 L16.6 0.1 6.05 9.1 5.6 8.7 5.0 8.0 4.55 7.35 15.15 0.0" fill="#fee481" fill-opacity="0.77254903" fill-rule="evenodd" stroke="none"/>
    <path d="M11.0 11.2 L14.55 11.55 15.9 11.5 6.9 20.9 6.15 20.65 6.9 20.9 7.7 21.15 10.45 32.65 6.15 20.65 6.05 20.6 9.6 10.85 6.05 20.6 4.2 19.7 2.3 18.4 7.35 9.9 9.6 10.85 10.7 11.15 11.0 11.2 M0.7 16.15 L0.1 14.85 0.05 14.8 0.05 14.75 0.05 14.7 0.2 14.5 5.0 8.0 5.6 8.7 0.7 16.15 M19.75 21.5 L17.1 32.1 12.75 22.0 13.1 22.05 14.4 22.05 14.85 22.05 15.55 22.05 16.25 22.0 19.15 18.5 19.3 19.25 19.75 21.5 16.25 22.0 19.75 21.5 M15.45 38.45 L14.6 41.9 8.3 21.3 8.15 21.2 17.5 11.3 17.6 11.3 18.5 15.5 11.2 21.85 10.85 21.8 15.45 38.45 M10.85 21.8 L8.3 21.3 10.85 21.8" fill="#ffc603" fill-opacity="0.77254903" fill-rule="evenodd" stroke="none"/>
    <path d="M15.9 11.5 L17.5 11.3 8.15 21.2 8.05 21.25 7.7 21.15 8.05 21.25 8.3 21.3 14.6 41.9 14.25 43.3 10.45 32.65 7.7 21.15 6.9 20.9 15.9 11.5 M17.1 32.1 L15.45 38.45 10.85 21.8 11.2 21.85 18.5 15.5 19.15 18.5 16.25 22.0 15.55 22.05 14.85 22.05 14.4 22.05 13.1 22.05 12.75 22.0 17.1 32.1 M11.2 21.85 L12.1 21.95 12.75 22.0 12.1 21.95 11.2 21.85" fill="#fece5f" fill-opacity="0.77254903" fill-rule="evenodd" stroke="none"/>
    <path d="M17.6 11.3 L18.5 11.1 20.4 10.55 21.85 9.85 21.95 9.8 23.85 8.3 24.4 9.8 19.3 19.25 19.15 18.5 18.5 15.5 17.6 11.3 M27.25 17.55 L27.05 17.85 Q26.1 18.85 24.55 19.7 L21.3 21.1 25.25 12.1 27.25 17.55 M14.15 43.35 L1.45 17.55 2.3 18.4 4.2 19.7 6.05 20.6 6.15 20.65 10.45 32.65 14.25 43.3 14.15 43.35" fill="#ad9302" fill-opacity="0.77254903" fill-rule="evenodd" stroke="none"/>
    <path d="M1.45 17.55 L0.7 16.15 5.6 8.7 6.05 9.1 7.2 9.85 7.35 9.9 2.3 18.4 1.45 17.55 M0.0 14.4 L0.0 14.05 Q0.0 13.2 0.3 12.45 L1.05 10.7 4.2 4.85 4.2 5.55 4.2 5.75 Q4.2 6.6 4.55 7.35 L5.0 8.0 0.2 14.5 0.0 14.4 M24.4 9.8 L25.25 12.1 21.3 21.1 20.95 21.2 19.75 21.5 19.3 19.25 24.4 9.8" fill="#daae03" fill-opacity="0.77254903" fill-rule="evenodd" stroke="none"/>
    <path d="M25.05 5.25 L27.8 11.0 28.45 12.3 28.75 14.05 28.65 15.15 27.25 17.55 25.25 12.1 24.4 9.8 23.85 8.3 24.0 8.1 Q24.75 7.2 24.9 5.55 L24.9 5.75 24.9 5.3 25.05 5.25 M27.05 17.85 L14.35 43.65 14.25 43.3 14.6 41.9 15.45 38.45 17.1 32.1 19.75 21.5 20.95 21.2 21.3 21.1 24.55 19.7 Q26.1 18.85 27.05 17.85" fill="#5c3701" fill-opacity="0.77254903" fill-rule="evenodd" stroke="none"/>
    <path d="M22.7 2.2 L21.85 1.7 20.75 1.15 Q18.85 0.35 16.6 0.1 L15.15 0.0 14.55 0.0 Q10.25 0.0 7.2 1.7 4.4 3.25 4.2 5.4 M22.7 2.2 L23.85 3.2 24.55 4.2 24.9 5.55 M24.9 4.95 L25.05 5.25 27.8 11.0 28.45 12.3 28.75 14.05 28.65 15.15 27.25 17.55 M27.05 17.85 L14.35 43.65 M14.15 43.35 L1.45 17.55 0.7 16.15 0.1 14.85 M0.05 14.7 L0.0 14.4 0.0 14.05 Q0.0 13.2 0.3 12.45 L1.05 10.7 4.2 4.85" fill="none" stroke="#ffff01" stroke-linecap="round" stroke-linejoin="round" stroke-width="1.0"/>
    <path d="M11.0 11.2 L14.55 11.55 15.9 11.5 17.5 11.3 17.6 11.3 18.5 11.1 20.4 10.55 21.85 9.85 21.95 9.8 23.85 8.3 24.4 9.8 25.25 12.1 27.25 17.55 27.05 17.85 Q26.1 18.85 24.55 19.7 L21.3 21.1 M24.9 5.55 L24.9 5.3 24.9 4.95 M14.35 43.65 L14.35 43.7 14.3 43.65 14.15 43.35 M0.1 14.85 L0.05 14.8 0.05 14.75 0.05 14.7 M4.2 4.85 L4.2 5.4 M24.9 5.3 L24.9 5.75 24.9 5.55 Q24.75 7.2 24.0 8.1 L23.85 8.3 M20.95 21.2 L19.75 21.5 17.1 32.1 15.45 38.45 14.6 41.9 14.25 43.3 14.35 43.65 M10.7 11.15 L9.6 10.85 6.05 20.6 6.15 20.65 6.9 20.9 7.7 21.15 8.05 21.25 8.3 21.3 10.85 21.8 11.2 21.85 12.1 21.95 12.75 22.0 13.1 22.05 14.4 22.05 14.85 22.05 15.55 22.05 16.25 22.0 19.75 21.5 19.3 19.25 19.15 18.5 18.5 15.5 17.6 11.3 M4.2 5.55 L4.2 4.85 M4.55 7.35 Q4.2 6.6 4.2 5.75 L4.2 5.55 M5.0 8.0 L4.55 7.35 M5.0 8.0 L5.6 8.7 6.05 9.1 7.2 9.85 7.35 9.9 9.6 10.85 M2.3 18.4 L4.2 19.7 6.05 20.6 M2.3 18.4 L1.45 17.55 M14.25 43.3 L10.45 32.65 6.15 20.65" fill="none" stroke="#ffff01" stroke-linecap="round" stroke-linejoin="round" stroke-width="0.05"/>
  </g>
</svg>
