<?xml version="1.0" encoding="UTF-8" standalone="no"?>
<svg xmlns:xlink="http://www.w3.org/1999/xlink" height="29.6px" width="12.6px" xmlns="http://www.w3.org/2000/svg">
  <g transform="matrix(1.0, 0.0, 0.0, 1.0, 0.0, 0.0)">
    <path d="M0.8 0.0 L-5.3 0.0 -6.3 0.0 Q-0.3 -6.7 -3.45 -14.2 -6.25 -20.7 -0.3 -29.6 L-0.55 -27.5 Q-1.55 -18.1 2.9 -14.2 7.7 -6.85 5.75 0.0 L0.8 0.0 Q1.4 -0.7 0.75 -1.4 L-0.2 -2.4 Q-1.05 -3.25 -0.85 -4.1 -0.75 -5.15 -0.2 -5.95 L1.2 -7.75 2.35 -9.45 3.1 -11.35 Q1.9 -13.2 -0.15 -13.5 -1.6 -13.8 -1.6 -12.55 -1.15 -11.75 -0.35 -11.95 -1.15 -11.75 -1.6 -12.55 -1.6 -13.8 -0.15 -13.5 1.9 -13.2 3.1 -11.35 L2.35 -9.45 1.2 -7.75 -0.2 -5.95 Q-0.75 -5.15 -0.85 -4.1 -1.05 -3.25 -0.2 -2.4 L0.75 -1.4 Q1.4 -0.7 0.8 0.0 M-5.3 0.0 Q0.7 -6.7 -2.4 -14.2 -4.85 -19.9 -0.55 -27.5 -4.85 -19.9 -2.4 -14.2 0.7 -6.7 -5.3 0.0" fill="url(#gradient0)" fill-rule="evenodd" stroke="none"/>
    <path d="M0.8 0.0 L-5.3 0.0 -6.3 0.0 Q-0.3 -6.7 -3.45 -14.2 -6.25 -20.7 -0.3 -29.6 L-0.55 -27.5 Q-1.55 -18.1 2.9 -14.2 7.7 -6.85 5.75 0.0 L0.8 0.0" fill="none" stroke="#000000" stroke-linecap="round" stroke-linejoin="round" stroke-width="0.05"/>
    <path d="M0.8 0.0 Q1.4 -0.7 0.75 -1.4 L-0.2 -2.4 Q-1.05 -3.25 -0.85 -4.1 -0.75 -5.15 -0.2 -5.95 L1.2 -7.75 2.35 -9.45 3.1 -11.35 Q1.9 -13.2 -0.15 -13.5 -1.6 -13.8 -1.6 -12.55 -1.15 -11.75 -0.35 -11.95" fill="none" stroke="#000000" stroke-linecap="round" stroke-linejoin="round" stroke-width="0.05"/>
    <path d="M-0.55 -27.5 Q-4.85 -19.9 -2.4 -14.2 0.7 -6.7 -5.3 0.0" fill="none" stroke="#ffffff" stroke-linecap="round" stroke-linejoin="round" stroke-width="0.05"/>
  </g>
  <defs>
    <linearGradient gradientTransform="matrix(0.0077, 0.0, 0.0, 0.0181, 0.0, -14.8)" gradientUnits="userSpaceOnUse" id="gradient0" spreadMethod="pad" x1="-819.2" x2="819.2">
      <stop offset="0.0" stop-color="#c6a226"/>
      <stop offset="0.5450980392156862" stop-color="#ffed97"/>
      <stop offset="1.0" stop-color="#bf9c26"/>
    </linearGradient>
  </defs>
</svg>
