<?xml version="1.0" encoding="UTF-8" standalone="no"?>
<svg xmlns:xlink="http://www.w3.org/1999/xlink" height="30.0px" width="12.6px" xmlns="http://www.w3.org/2000/svg">
  <g transform="matrix(1.0, 0.0, 0.0, 1.0, 0.0, 0.0)">
    <path d="M-1.3 -21.0 L-1.65 -20.35 -1.9 -20.45 -2.25 -20.2 Q-2.5 -19.35 -2.05 -18.6 L-1.7 -18.55 Q-1.0 -18.1 -1.65 -17.55 L-1.9 -17.5 -1.55 -15.85 -1.2 -15.5 -0.1 -15.5 0.2 -15.05 0.25 -14.7 0.25 -14.35 -0.3 -13.8 -0.35 -11.75 2.7 -12.2 3.4 -9.5 0.7 -9.65 -0.65 -6.35 -0.15 -6.3 0.0 -6.3 2.5 -6.35 3.0 -6.4 3.15 -6.4 3.6 -6.35 3.5 -6.0 3.4 -5.75 3.3 -5.35 2.95 -3.85 2.9 -3.5 2.85 -1.75 2.8 -1.55 2.6 -1.5 Q1.95 -1.4 1.5 -1.75 L0.6 -2.35 0.5 -2.5 0.35 -2.6 -0.15 -1.1 -0.25 -0.85 -0.4 -0.1 -0.4 0.0 -0.4 -0.1 -0.25 -0.85 -0.15 -1.1 0.35 -2.6 0.5 -2.5 0.6 -2.35 1.5 -1.75 Q1.95 -1.4 2.6 -1.5 L2.8 -1.55 2.85 -1.75 2.9 -3.5 2.95 -3.85 3.3 -5.35 3.4 -5.75 3.5 -6.0 3.6 -6.35 3.15 -6.4 3.0 -6.4 2.5 -6.35 0.0 -6.3 -0.15 -6.3 -0.65 -6.35 0.7 -9.65 3.4 -9.5 2.7 -12.2 -0.35 -11.75 -0.3 -13.8 0.25 -14.35 0.25 -14.7 0.2 -15.05 -0.1 -15.5 -1.2 -15.5 -1.55 -15.85 -1.9 -17.5 -1.65 -17.55 Q-1.0 -18.1 -1.7 -18.55 L-2.05 -18.6 Q-2.5 -19.35 -2.25 -20.2 L-1.9 -20.45 -1.65 -20.35 -1.3 -21.0 M-0.4 0.0 L-5.3 0.0 -6.3 0.0 Q-0.3 -6.7 -3.45 -14.2 -6.25 -20.7 -0.3 -29.6 L-0.55 -27.5 Q-1.55 -18.1 2.9 -14.2 7.7 -6.85 5.75 0.0 L-0.4 0.0 M-0.55 -27.5 Q-4.85 -19.9 -2.4 -14.2 0.7 -6.7 -5.3 0.0 0.7 -6.7 -2.4 -14.2 -4.85 -19.9 -0.55 -27.5" fill="url(#gradient0)" fill-rule="evenodd" stroke="none"/>
    <path d="M-0.4 0.0 L-0.4 -0.1 -0.25 -0.85 -0.15 -1.1 0.35 -2.6 0.5 -2.5 0.6 -2.35 1.5 -1.75 Q1.95 -1.4 2.6 -1.5 L2.8 -1.55 2.85 -1.75 2.9 -3.5 2.95 -3.85 3.3 -5.35 3.4 -5.75 3.5 -6.0 3.6 -6.35 3.15 -6.4 3.0 -6.4 2.5 -6.35 0.0 -6.3 -0.15 -6.3 -0.65 -6.35 0.7 -9.65 3.4 -9.5 2.7 -12.2 -0.35 -11.75 -0.3 -13.8 0.25 -14.35 0.25 -14.7 0.2 -15.05 -0.1 -15.5 -1.2 -15.5 -1.55 -15.85 -1.9 -17.5 -1.65 -17.55 Q-1.0 -18.1 -1.7 -18.55 L-2.05 -18.6 Q-2.5 -19.35 -2.25 -20.2 L-1.9 -20.45 -1.65 -20.35 -1.3 -21.0 M-0.4 0.0 L-5.3 0.0 -6.3 0.0 Q-0.3 -6.7 -3.45 -14.2 -6.25 -20.7 -0.3 -29.6 L-0.55 -27.5 Q-1.55 -18.1 2.9 -14.2 7.7 -6.85 5.75 0.0 L-0.4 0.0 -0.5 0.4" fill="none" stroke="#000000" stroke-linecap="round" stroke-linejoin="round" stroke-width="0.05"/>
    <path d="M-5.3 0.0 Q0.7 -6.7 -2.4 -14.2 -4.85 -19.9 -0.55 -27.5" fill="none" stroke="#f0cf99" stroke-linecap="round" stroke-linejoin="round" stroke-width="0.05"/>
  </g>
  <defs>
    <linearGradient gradientTransform="matrix(0.0077, 0.0, 0.0, 0.0181, 0.0, -14.8)" gradientUnits="userSpaceOnUse" id="gradient0" spreadMethod="pad" x1="-819.2" x2="819.2">
      <stop offset="0.0" stop-color="#97721e"/>
      <stop offset="0.5450980392156862" stop-color="#f0cf99"/>
      <stop offset="1.0" stop-color="#88671c"/>
    </linearGradient>
  </defs>
</svg>
