<?xml version="1.0" encoding="UTF-8" standalone="no"?>
<svg xmlns:xlink="http://www.w3.org/1999/xlink" height="42.65px" width="45.05px" xmlns="http://www.w3.org/2000/svg">
  <g transform="matrix(1.0, 0.0, 0.0, 1.0, 0.0, 0.0)">
    <path d="M-0.25 -21.1 Q9.1 -21.1 15.7 -14.85 22.3 -8.6 22.3 0.25 22.3 9.05 15.7 15.3 9.1 21.55 -0.25 21.55 -9.55 21.55 -16.15 15.3 -22.75 9.05 -22.75 0.25 -22.75 -8.6 -16.15 -14.85 -9.55 -21.1 -0.25 -21.1" fill="url(#gradient0)" fill-rule="evenodd" stroke="none"/>
    <path d="M-14.75 -6.65 L-13.15 -9.0 -11.2 -11.2 -8.8 -13.25 Q-7.5 -14.1 -6.1 -14.65 -4.65 -15.2 -3.1 -15.35 L0.0 -15.8 3.15 -15.35 6.1 -14.65 8.8 -13.2 11.2 -11.25 13.7 -8.65 Q14.65 -7.25 15.05 -5.55 L15.65 -2.25 Q15.9 -0.35 15.75 1.65 L15.2 4.7 14.05 7.45 12.25 10.0 10.05 12.25 7.5 14.1 4.65 15.25 1.6 16.0 -1.3 16.15 -4.45 15.4 -7.9 14.0 -9.6 13.0 -9.35 12.9 -9.2 12.8 -9.15 12.65 -9.3 12.35 -9.45 11.7 -8.75 11.55 -4.9 11.5 -1.15 11.35 2.1 11.45 3.2 13.05 5.25 12.95 7.95 12.5 9.65 11.55 9.75 10.65 9.65 8.45 9.4 4.9 9.25 3.7 13.1 1.9 10.05 1.55 12.5 0.05 12.7 -0.15 10.0 -0.4 Q10.7 -1.45 12.3 -2.0 L12.65 -2.25 10.2 -3.25 12.65 -2.25 12.3 -2.0 Q10.7 -1.45 10.0 -0.4 L12.7 -0.15 12.5 0.05 10.05 1.55 13.1 1.9 9.25 3.7 1.9 4.35 1.8 5.6 1.3 5.85 -0.15 5.9 -0.6 6.0 -1.05 5.95 -1.25 6.05 -1.85 6.1 -3.6 5.8 -4.15 4.55 -3.9 3.9 -2.35 3.45 Q-1.55 3.25 -1.15 3.65 L-1.35 4.65 -2.3 4.85 -2.7 4.7 -2.3 4.85 -1.35 4.65 -1.15 3.65 Q-1.55 3.25 -2.35 3.45 L-3.9 3.9 -4.15 4.55 -3.6 5.8 -1.85 6.1 -9.7 6.6 -10.25 6.15 Q-10.35 4.9 -11.2 4.1 L-14.25 4.3 -14.5 4.75 -14.85 6.4 -15.55 3.3 -15.85 0.0 -15.8 -3.5 -14.35 -2.45 -15.1 -1.05 Q-15.65 0.8 -13.9 2.15 -12.3 3.4 -10.3 3.05 -8.5 2.8 -7.5 1.5 L-6.6 0.1 -6.95 -1.8 -4.3 -2.35 -2.4 -2.4 -1.05 -2.4 -1.65 -1.0 Q-2.05 0.8 -0.85 1.95 0.45 3.25 2.4 3.55 3.9 3.8 5.4 3.15 7.5 2.45 7.75 0.15 L7.6 -1.25 6.85 -2.65 Q8.4 -3.3 10.2 -3.25 L11.4 -5.3 10.2 -6.4 8.85 -7.45 8.3 -7.95 -1.25 -7.3 1.3 -11.3 -3.1 -9.2 -3.55 -9.65 -3.65 -10.0 -3.95 -11.35 -4.25 -12.7 -4.45 -13.2 -4.65 -13.55 -7.1 -8.3 -11.15 -9.25 -9.2 -6.8 -14.75 -6.65 M13.7 -8.65 L12.35 -9.05 Q11.35 -8.9 10.65 -8.3 L10.2 -6.4 10.65 -8.3 Q11.35 -8.9 12.35 -9.05 L13.7 -8.65 M-2.4 -2.4 L-1.9 2.5 -1.55 2.65 0.05 3.2 Q0.55 4.25 0.2 5.25 L-0.15 5.9 0.2 5.25 Q0.55 4.25 0.05 3.2 L-1.55 2.65 -1.9 2.5 -2.4 -2.4 M-7.25 4.9 L-7.15 4.35 -6.9 4.05 Q-6.1 4.1 -5.75 4.45 -5.15 5.15 -5.45 5.95 -7.1 6.55 -8.65 5.95 -9.55 5.05 -9.65 3.75 L-6.25 2.8 -6.6 0.1 -6.25 2.8 -9.65 3.75 Q-9.55 5.05 -8.65 5.95 -7.1 6.55 -5.45 5.95 -5.15 5.15 -5.75 4.45 -6.1 4.1 -6.9 4.05 L-7.15 4.35 -7.25 4.9 M-0.2 12.6 L-2.0 12.65 Q-3.85 13.0 -5.65 12.7 L-3.85 14.55 -0.2 12.6" fill="url(#gradient1)" fill-rule="evenodd" stroke="none"/>
    <path d="M-9.2 -6.8 L-11.15 -9.25 -7.1 -8.3 -4.65 -13.55 -4.45 -13.2 -4.25 -12.7 -3.95 -11.35 -3.65 -10.0 -3.55 -9.65 -3.1 -9.2 1.3 -11.3 -1.25 -7.3 -2.9 -7.1 -3.4 -6.2 -3.85 -5.55 -4.1 -5.25 -5.25 -5.05 Q-7.15 -5.0 -7.9 -6.8 L-9.2 -6.8 M5.1 -1.7 L5.4 -0.8 5.2 0.3 Q4.8 1.2 3.85 1.55 L1.55 1.6 -0.4 0.5 -0.45 -0.1 Q-0.6 -2.15 1.4 -2.9 3.8 -3.65 5.1 -1.7 M-13.65 -0.2 L-13.05 -1.8 Q-12.15 -3.3 -10.4 -3.15 L-9.2 -2.6 Q-8.4 -2.1 -8.4 -1.25 L-8.6 -0.4 Q-9.25 0.9 -10.85 1.15 -12.15 1.2 -13.1 0.6 L-13.65 -0.2" fill="#ffff00" fill-rule="evenodd" stroke="none"/>
    <path d="M-1.05 -2.4 L0.2 -3.7 Q1.25 -4.4 2.6 -4.65 L4.0 -4.75 6.85 -2.65 7.6 -1.25 7.75 0.15 Q7.5 2.45 5.4 3.15 3.9 3.8 2.4 3.55 0.45 3.25 -0.85 1.95 -2.05 0.8 -1.65 -1.0 L-1.05 -2.4 M5.1 -1.7 Q3.8 -3.65 1.4 -2.9 -0.6 -2.15 -0.45 -0.1 L-0.4 0.5 1.55 1.6 3.85 1.55 Q4.8 1.2 5.2 0.3 L5.4 -0.8 5.1 -1.7 M-13.65 -0.2 L-13.1 0.6 Q-12.15 1.2 -10.85 1.15 -9.25 0.9 -8.6 -0.4 L-8.4 -1.25 Q-8.4 -2.1 -9.2 -2.6 L-10.4 -3.15 Q-12.15 -3.3 -13.05 -1.8 L-13.65 -0.2 M-6.95 -1.8 L-6.6 0.1 -7.5 1.5 Q-8.5 2.8 -10.3 3.05 -12.3 3.4 -13.9 2.15 -15.65 0.8 -15.1 -1.05 L-14.35 -2.45 Q-13.7 -3.35 -12.6 -3.85 L-8.95 -4.0 -8.15 -3.25 -6.95 -1.8 M-0.2 12.6 L-3.85 14.55 -5.65 12.7 Q-3.85 13.0 -2.0 12.65 L-0.2 12.6" fill="#cc3300" fill-rule="evenodd" stroke="none"/>
    <path d="M-15.8 -3.5 L-14.75 -6.65 -9.2 -6.8 -7.9 -6.8 Q-7.15 -5.0 -5.25 -5.05 L-4.1 -5.25 -3.85 -5.55 -3.4 -6.2 -2.9 -7.1 -1.25 -7.3 8.3 -7.95 8.85 -7.45 10.2 -6.4 11.4 -5.3 10.2 -3.25 Q8.4 -3.3 6.85 -2.65 L4.0 -4.75 2.6 -4.65 Q1.25 -4.4 0.2 -3.7 L-1.05 -2.4 -2.4 -2.4 -4.3 -2.35 -6.95 -1.8 -8.15 -3.25 -8.95 -4.0 -12.6 -3.85 Q-13.7 -3.35 -14.35 -2.45 L-15.8 -3.5" fill="#996600" fill-rule="evenodd" stroke="none"/>
    <path d="M-9.6 13.0 L-11.1 11.7 -10.75 11.45 -10.6 11.1 -10.6 10.4 -8.2 10.2 -6.8 10.35 -3.1 10.15 -0.55 10.1 3.3 10.2 4.3 11.5 6.7 11.3 8.1 10.75 8.5 10.1 8.05 7.8 7.35 5.35 4.8 5.45 2.8 5.5 2.35 6.8 -1.05 7.05 -4.8 7.4 -11.55 7.45 -11.95 6.35 -12.75 5.95 -13.45 6.15 -14.1 7.0 -14.15 7.75 -14.85 6.4 -14.5 4.75 -14.25 4.3 -11.2 4.1 Q-10.35 4.9 -10.25 6.15 L-9.7 6.6 -1.85 6.1 -1.5 6.15 -1.25 6.05 -0.6 6.0 -0.15 5.9 1.3 5.85 1.8 5.6 1.9 4.35 9.25 3.7 9.4 4.9 9.65 8.45 9.75 10.65 9.65 11.55 7.95 12.5 5.25 12.95 3.2 13.05 2.1 11.45 -1.15 11.35 -4.9 11.5 -8.75 11.55 -9.45 11.7 -9.3 12.35 -9.15 12.65 -9.2 12.8 -9.35 12.9 -9.6 13.0" fill="#7e4201" fill-rule="evenodd" stroke="none"/>
    <path d="M-11.1 11.7 L-12.2 10.45 -13.95 8.2 -14.15 7.75 -14.1 7.0 -13.45 6.15 -12.75 5.95 -11.95 6.35 -11.55 7.45 -4.8 7.4 -1.05 7.05 -0.55 10.1 -1.05 7.05 2.35 6.8 2.8 5.5 4.8 5.45 7.35 5.35 8.05 7.8 8.5 10.1 8.1 10.75 6.7 11.3 4.3 11.5 3.3 10.2 -0.55 10.1 -3.1 10.15 -6.8 10.35 -8.2 10.2 -8.55 8.3 -8.2 10.2 -10.6 10.4 -10.6 11.1 -10.75 11.45 -11.1 11.7 M-4.65 9.95 L-4.8 7.4 -4.65 9.95 M-12.2 10.45 L-12.5 8.55 -12.85 6.75 -12.5 8.55 -12.2 10.45 M5.8 11.0 L4.8 5.45 5.8 11.0" fill="#ffcc99" fill-rule="evenodd" stroke="none"/>
    <path d="M-14.75 -6.65 L-13.15 -9.0 -11.2 -11.2 -8.8 -13.25 Q-7.5 -14.1 -6.1 -14.65 -4.65 -15.2 -3.1 -15.35 L0.0 -15.8 3.15 -15.35 6.1 -14.65 8.8 -13.2 11.2 -11.25 13.7 -8.65 Q14.65 -7.25 15.05 -5.55 L15.65 -2.25 Q15.9 -0.35 15.75 1.65 L15.2 4.7 14.05 7.45 12.25 10.0 10.05 12.25 7.5 14.1 4.65 15.25 1.6 16.0 -1.3 16.15 -4.45 15.4 -7.9 14.0 -9.6 13.0 -11.1 11.7 -12.2 10.45 -13.95 8.2 -14.15 7.95 -14.15 7.75 -14.85 6.4 -15.55 3.3 -15.85 0.0 -15.8 -3.5 -14.75 -6.65 -9.2 -6.8 -11.15 -9.25 -7.1 -8.3 -4.65 -13.55 -4.45 -13.2 -4.25 -12.7 -3.95 -11.35 -3.65 -10.0 -3.55 -9.65 -3.1 -9.2 1.3 -11.3 -1.25 -7.3 8.3 -7.95 8.85 -7.45 10.2 -6.4 10.65 -8.3 Q11.35 -8.9 12.35 -9.05 L13.7 -8.65 M6.85 -2.65 L4.0 -4.75 2.6 -4.65 Q1.25 -4.4 0.2 -3.7 L-1.05 -2.4 -1.65 -1.0 Q-2.05 0.8 -0.85 1.95 0.45 3.25 2.4 3.55 3.9 3.8 5.4 3.15 7.5 2.45 7.75 0.15 L7.6 -1.25 6.85 -2.65 Q8.4 -3.3 10.2 -3.25 L11.4 -5.3 10.2 -6.4 M5.1 -1.7 Q3.8 -3.65 1.4 -2.9 -0.6 -2.15 -0.45 -0.1 L-0.4 0.5 1.55 1.6 3.85 1.55 Q4.8 1.2 5.2 0.3 L5.4 -0.8 5.1 -1.7 M10.2 -3.25 L12.65 -2.25 12.3 -2.0 Q10.7 -1.45 10.0 -0.4 L12.7 -0.15 12.5 0.05 10.05 1.55 13.1 1.9 9.25 3.7 9.4 4.9 9.65 8.45 9.75 10.65 9.65 11.55 7.95 12.5 5.25 12.95 3.2 13.05 2.1 11.45 -1.15 11.35 -4.9 11.5 -8.75 11.55 -9.45 11.7 -9.3 12.35 -9.15 12.65 -9.2 12.8 -9.35 12.9 -9.6 13.0 M-13.65 -0.2 L-13.1 0.6 Q-12.15 1.2 -10.85 1.15 -9.25 0.9 -8.6 -0.4 L-8.4 -1.25 Q-8.4 -2.1 -9.2 -2.6 L-10.4 -3.15 Q-12.15 -3.3 -13.05 -1.8 L-13.65 -0.2 M-14.35 -2.45 L-15.1 -1.05 Q-15.65 0.8 -13.9 2.15 -12.3 3.4 -10.3 3.05 -8.5 2.8 -7.5 1.5 L-6.6 0.1 -6.95 -1.8 -8.15 -3.25 -8.95 -4.0 -12.6 -3.85 Q-13.7 -3.35 -14.35 -2.45 L-15.8 -3.5 M-9.2 -6.8 L-7.9 -6.8 Q-7.15 -5.0 -5.25 -5.05 L-4.1 -5.25 -3.85 -5.55 -3.4 -6.2 -2.9 -7.1 -1.25 -7.3 M-6.95 -1.8 L-4.3 -2.35 -2.4 -2.4 -1.05 -2.4 M-0.15 5.9 L0.2 5.25 Q0.55 4.25 0.05 3.2 L-1.55 2.65 -1.9 2.5 -2.4 -2.4 M-2.7 4.7 L-2.3 4.85 -1.35 4.65 -1.15 3.65 Q-1.55 3.25 -2.35 3.45 L-3.9 3.9 -4.15 4.55 -3.6 5.8 -1.85 6.1 -1.25 6.05 -1.05 5.95 -0.6 6.0 -0.15 5.9 1.3 5.85 1.8 5.6 1.9 4.35 9.25 3.7 M-1.85 6.1 L-1.5 6.15 -1.25 6.05 -0.6 6.0 M-6.6 0.1 L-6.25 2.8 -9.65 3.75 Q-9.55 5.05 -8.65 5.95 -7.1 6.55 -5.45 5.95 -5.15 5.15 -5.75 4.45 -6.1 4.1 -6.9 4.05 L-7.15 4.35 -7.25 4.9 M-8.2 10.2 L-6.8 10.35 -3.1 10.15 -0.55 10.1 -1.05 7.05 -4.8 7.4 -4.65 9.95 M-8.55 8.3 L-8.2 10.2 -10.6 10.4 -10.6 11.1 -10.75 11.45 -11.1 11.7 M-14.85 6.4 L-14.5 4.75 -14.25 4.3 -11.2 4.1 Q-10.35 4.9 -10.25 6.15 L-9.7 6.6 -1.85 6.1 M-14.15 7.75 L-14.1 7.0 -13.45 6.15 -12.75 5.95 -11.95 6.35 -11.55 7.45 -4.8 7.4 M-13.95 8.2 L-14.15 7.75 M-12.85 6.75 L-12.5 8.55 -12.2 10.45 M-0.2 12.6 L-3.85 14.55 -5.65 12.7 Q-3.85 13.0 -2.0 12.65 L-0.2 12.6 M-1.05 7.05 L2.35 6.8 2.8 5.5 4.8 5.45 7.35 5.35 8.05 7.8 8.5 10.1 8.1 10.75 6.7 11.3 4.3 11.5 3.3 10.2 -0.55 10.1 M4.8 5.45 L5.8 11.0" fill="none" stroke="#ffffcc" stroke-linecap="round" stroke-linejoin="round" stroke-width="0.05"/>
  </g>
  <defs>
    <radialGradient cx="0" cy="0" gradientTransform="matrix(0.0284, 0.0, 0.0, 0.0284, -0.25, 0.25)" gradientUnits="userSpaceOnUse" id="gradient0" r="819.2" spreadMethod="pad">
      <stop offset="0.6784313725490196" stop-color="#ffffff" stop-opacity="0.6"/>
      <stop offset="0.8784313725490196" stop-color="#ffffff" stop-opacity="0.101960786"/>
      <stop offset="1.0" stop-color="#ffffff" stop-opacity="0.0"/>
    </radialGradient>
    <radialGradient cx="0" cy="0" gradientTransform="matrix(0.0312, 0.0, 0.0, 0.0312, -7.25, -8.2)" gradientUnits="userSpaceOnUse" id="gradient1" r="819.2" spreadMethod="pad">
      <stop offset="0.0" stop-color="#fbecb9"/>
      <stop offset="0.20392156862745098" stop-color="#f5db4b"/>
      <stop offset="0.611764705882353" stop-color="#ea9322"/>
      <stop offset="0.8862745098039215" stop-color="#943c1b"/>
      <stop offset="1.0" stop-color="#612112"/>
    </radialGradient>
  </defs>
</svg>
