<?xml version="1.0" encoding="UTF-8" standalone="no"?>
<svg xmlns:xlink="http://www.w3.org/1999/xlink" height="22.45px" width="13.75px" xmlns="http://www.w3.org/2000/svg">
  <g transform="matrix(1.0, 0.0, 0.0, 1.0, 0.0, 0.0)">
    <path d="M-4.35 -0.25 L-3.8 -0.95 Q-1.55 -3.4 1.7 -2.55 2.75 -1.35 2.5 0.3 1.85 4.35 -2.15 5.4 L-2.3 5.4 Q-1.9 6.4 -2.0 7.35 -2.2 9.85 -1.25 12.0 L-1.35 13.85 -0.8 15.15 -1.0 15.6 -4.1 16.65 Q-5.15 17.0 -5.8 17.8 -7.55 19.75 -9.95 19.7 L-11.2 18.2 -11.1 17.75 -11.05 17.75 -9.4 16.45 -10.7 16.35 -10.95 16.0 -10.35 15.65 -10.95 15.1 -11.15 14.35 Q-8.15 13.55 -5.7 11.7 -5.85 7.55 -8.5 4.15 L-7.75 3.55 Q-6.0 2.05 -4.65 0.2 L-4.45 0.05 -4.35 -0.25 M-8.55 18.2 L-9.05 18.45 -9.65 18.55 Q-10.55 18.5 -11.05 17.75 -10.55 18.5 -9.65 18.55 L-9.05 18.45 -8.55 18.2 M-7.1 13.5 Q-6.4 13.65 -6.0 14.35 L-5.85 14.55 -6.0 14.35 Q-6.4 13.65 -7.1 13.5 L-7.75 13.75 -8.2 13.9 -8.3 13.95 -9.5 14.45 -8.3 13.95 -8.2 13.9 -7.75 13.75 -7.1 13.5 -7.0 13.45 -6.45 13.15 -5.95 12.9 -5.65 12.7 -5.25 12.4 -4.75 12.05 -4.5 11.65 -4.55 11.05 -5.0 9.25 -5.1 8.8 -5.3 7.75 -5.95 6.05 -6.4 5.55 -7.1 5.05 -7.4 4.65 -7.25 4.5 -6.45 4.55 -7.25 4.5 -7.4 4.65 -7.1 5.05 -6.4 5.55 -5.95 6.05 -5.3 7.75 -5.1 8.8 -5.0 9.25 -4.55 11.05 -4.5 11.65 -4.75 12.05 -5.25 12.4 -5.65 12.7 -5.95 12.9 -6.45 13.15 -7.0 13.45 -7.1 13.5 M-6.45 15.3 L-6.6 15.1 -8.2 13.9 -6.6 15.1 -6.45 15.3 M-5.95 12.9 Q-5.25 13.25 -5.1 13.75 L-5.05 14.0 -5.1 13.75 Q-5.25 13.25 -5.95 12.9 M-2.3 11.6 L-3.4 11.65 -3.15 12.2 -2.9 12.9 -2.9 13.65 -3.05 14.1 Q-3.3 14.6 -3.75 14.2 -3.3 14.6 -3.05 14.1 L-2.9 13.65 -2.9 12.9 -3.15 12.2 -3.4 11.65 -2.3 11.6 M-3.15 4.8 L-3.45 5.05 -3.85 5.05 Q-4.35 4.9 -4.35 4.45 L-4.25 3.9 -3.95 3.5 -3.4 3.35 -2.95 3.55 -2.55 4.1 Q-2.25 4.6 -2.15 5.4 -2.25 4.6 -2.55 4.1 L-2.95 3.55 -3.4 3.35 -3.95 3.5 -4.25 3.9 -4.35 4.45 Q-4.35 4.9 -3.85 5.05 L-3.45 5.05 -3.15 4.8 M-0.9 1.5 L-1.45 1.5 Q-1.75 1.6 -1.9 1.8 L-1.9 2.15 -1.45 2.45 -0.7 2.55 Q0.0 2.6 0.6 2.15 1.45 1.5 1.45 0.45 L1.4 -0.15 1.15 -1.1 0.9 -1.6 0.45 -1.95 -0.1 -2.05 Q-1.1 -2.0 -1.85 -1.3 L-2.4 -0.8 -3.75 0.55 -4.15 0.95 -5.65 2.55 -5.95 3.1 Q-6.2 3.7 -5.65 3.6 -6.2 3.7 -5.95 3.1 L-5.65 2.55 -4.15 0.95 -3.75 0.55 -2.4 -0.8 -1.85 -1.3 Q-1.1 -2.0 -0.1 -2.05 L0.45 -1.95 0.9 -1.6 1.15 -1.1 1.4 -0.15 1.45 0.45 Q1.45 1.5 0.6 2.15 0.0 2.6 -0.7 2.55 L-1.45 2.45 -1.9 2.15 -1.9 1.8 Q-1.75 1.6 -1.45 1.5 L-0.9 1.5" fill="url(#gradient0)" fill-rule="evenodd" stroke="none"/>
    <path d="M-5.65 3.6 Q-6.2 3.7 -5.95 3.1 L-5.65 2.55 -4.15 0.95 -3.75 0.55 -2.4 -0.8 -1.85 -1.3 Q-1.1 -2.0 -0.1 -2.05 L0.45 -1.95 0.9 -1.6 1.15 -1.1 1.4 -0.15 1.45 0.45 Q1.45 1.5 0.6 2.15 0.0 2.6 -0.7 2.55 L-1.45 2.45 -1.9 2.15 -1.9 1.8 Q-1.75 1.6 -1.45 1.5 L-0.9 1.5 M-2.15 5.4 Q-2.25 4.6 -2.55 4.1 L-2.95 3.55 -3.4 3.35 -3.95 3.5 -4.25 3.9 -4.35 4.45 Q-4.35 4.9 -3.85 5.05 L-3.45 5.05 -3.15 4.8 M-9.5 14.45 L-8.3 13.95 -8.2 13.9 -7.75 13.75 -7.1 13.5 -7.0 13.45 -6.45 13.15 -5.95 12.9 -5.65 12.7 -5.25 12.4 -4.75 12.05 -4.5 11.65 -4.55 11.05 -5.0 9.25 -5.1 8.8 -5.3 7.75 -5.95 6.05 -6.4 5.55 -7.1 5.05 -7.4 4.65 -7.25 4.5 -6.45 4.55 M-3.75 14.2 Q-3.3 14.6 -3.05 14.1 L-2.9 13.65 -2.9 12.9 -3.15 12.2 -3.4 11.65 -2.3 11.6 M-5.05 14.0 L-5.1 13.75 Q-5.25 13.25 -5.95 12.9 M-8.2 13.9 L-6.6 15.1 -6.45 15.3 M-5.85 14.55 L-6.0 14.35 Q-6.4 13.65 -7.1 13.5 M-11.05 17.75 Q-10.55 18.5 -9.65 18.55 L-9.05 18.45 -8.55 18.2" fill="none" stroke="#be8b58" stroke-linecap="round" stroke-linejoin="round" stroke-width="0.05"/>
    <path d="M-4.65 0.2 L-4.65 0.15 -4.45 0.05 -4.4 -0.2 -4.35 -0.25 -3.8 -0.95 Q-1.55 -3.4 1.7 -2.55 2.75 -1.35 2.5 0.3 1.85 4.35 -2.15 5.4 L-2.3 5.4 Q-1.9 6.4 -2.0 7.35 -2.2 9.85 -1.25 12.0 L-1.35 13.85 -0.8 15.15 -1.0 15.6 -4.1 16.65 Q-5.15 17.0 -5.8 17.8 -7.55 19.75 -9.95 19.7 L-11.2 18.2 -11.1 17.75 -11.05 17.75 -9.4 16.45 -10.7 16.35 -10.95 16.0 -10.35 15.65 -10.95 15.1 -11.15 14.35 Q-8.15 13.55 -5.7 11.7 -5.85 7.55 -8.5 4.15 L-7.75 3.55 Q-6.0 2.05 -4.65 0.2 L-4.45 0.05 -4.35 -0.25" fill="none" stroke="#000000" stroke-linecap="round" stroke-linejoin="round" stroke-width="0.05"/>
  </g>
  <defs>
    <linearGradient gradientTransform="matrix(-9.0E-4, 0.0149, -0.0138, -8.0E-4, -4.15, 8.35)" gradientUnits="userSpaceOnUse" id="gradient0" spreadMethod="pad" x1="-819.2" x2="819.2">
      <stop offset="0.0" stop-color="#5b3f24"/>
      <stop offset="0.5176470588235295" stop-color="#9c6c3d"/>
      <stop offset="1.0" stop-color="#5b3f24"/>
    </linearGradient>
  </defs>
</svg>
