<?xml version="1.0" encoding="UTF-8" standalone="no"?>
<svg xmlns:xlink="http://www.w3.org/1999/xlink" height="26.55px" width="67.8px" xmlns="http://www.w3.org/2000/svg">
  <g transform="matrix(1.0, 0.0, 0.0, 1.0, 0.0, 0.0)">
    <path d="M18.9 -22.1 Q23.65 -21.1 27.65 -17.6 30.85 -14.8 34.2 -16.75 31.75 -13.65 28.05 -14.0 25.25 -14.35 21.5 -16.8 17.75 -19.3 15.9 -16.9 14.05 -14.5 15.1 -12.35 16.1 -10.25 16.85 -10.35 17.6 -10.5 19.7 -11.35 19.5 -8.85 17.75 -7.8 12.55 -5.15 9.85 -11.0 9.05 -12.7 9.45 -14.45 10.2 -18.4 13.25 -20.45 15.8 -22.3 18.9 -22.1 M16.0 -9.05 Q14.65 -8.25 12.4 -11.05 10.15 -13.85 13.65 -17.9 17.15 -22.0 21.0 -19.4 24.75 -16.85 29.1 -15.2 24.75 -16.85 21.0 -19.4 17.15 -22.0 13.65 -17.9 10.15 -13.85 12.4 -11.05 14.65 -8.25 16.0 -9.05" fill="#9f641c" fill-rule="evenodd" stroke="none"/>
    <path d="M18.9 -22.1 Q23.65 -21.1 27.65 -17.6 30.85 -14.8 34.2 -16.75 31.75 -13.65 28.05 -14.0 25.25 -14.35 21.5 -16.8 17.75 -19.3 15.9 -16.9 14.05 -14.5 15.1 -12.35 16.1 -10.25 16.85 -10.35 17.6 -10.5 19.7 -11.35 19.5 -8.85 17.75 -7.8 12.55 -5.15 9.85 -11.0 9.05 -12.7 9.45 -14.45 10.2 -18.4 13.25 -20.45 15.8 -22.3 18.9 -22.1" fill="none" stroke="#000000" stroke-linecap="round" stroke-linejoin="round" stroke-width="0.05"/>
    <path d="M29.1 -15.2 Q24.75 -16.85 21.0 -19.4 17.15 -22.0 13.65 -17.9 10.15 -13.85 12.4 -11.05 14.65 -8.25 16.0 -9.05" fill="none" stroke="#ffff00" stroke-linecap="round" stroke-linejoin="round" stroke-width="0.05"/>
    <path d="M-18.3 -21.7 Q-23.05 -20.7 -27.05 -17.2 -30.25 -14.4 -33.6 -16.35 -31.15 -13.25 -27.45 -13.6 -24.65 -13.95 -20.9 -16.4 -17.15 -18.9 -15.3 -16.5 -13.45 -14.1 -14.5 -11.95 -15.5 -9.85 -16.25 -9.95 L-19.1 -10.95 Q-18.9 -8.45 -17.15 -7.4 -11.95 -4.75 -9.25 -10.6 -8.45 -12.3 -8.85 -14.05 -9.6 -18.0 -12.65 -20.05 -15.2 -21.9 -18.3 -21.7 M-15.4 -8.65 Q-14.05 -7.85 -11.8 -10.65 -9.55 -13.45 -13.05 -17.5 -16.55 -21.6 -20.4 -19.0 -24.15 -16.45 -28.5 -14.8 -24.15 -16.45 -20.4 -19.0 -16.55 -21.6 -13.05 -17.5 -9.55 -13.45 -11.8 -10.65 -14.05 -7.85 -15.4 -8.65" fill="#9f641c" fill-rule="evenodd" stroke="none"/>
    <path d="M-18.3 -21.7 Q-23.05 -20.7 -27.05 -17.2 -30.25 -14.4 -33.6 -16.35 -31.15 -13.25 -27.45 -13.6 -24.65 -13.95 -20.9 -16.4 -17.15 -18.9 -15.3 -16.5 -13.45 -14.1 -14.5 -11.95 -15.5 -9.85 -16.25 -9.95 L-19.1 -10.95 Q-18.9 -8.45 -17.15 -7.4 -11.95 -4.75 -9.25 -10.6 -8.45 -12.3 -8.85 -14.05 -9.6 -18.0 -12.65 -20.05 -15.2 -21.9 -18.3 -21.7" fill="none" stroke="#000000" stroke-linecap="round" stroke-linejoin="round" stroke-width="0.05"/>
    <path d="M-28.5 -14.8 Q-24.15 -16.45 -20.4 -19.0 -16.55 -21.6 -13.05 -17.5 -9.55 -13.45 -11.8 -10.65 -14.05 -7.85 -15.4 -8.65" fill="none" stroke="#ffff00" stroke-linecap="round" stroke-linejoin="round" stroke-width="0.05"/>
    <path d="M7.55 -19.95 L8.95 -19.3 9.6 -21.3 9.05 -21.8 8.35 -22.3 6.9 -22.2 Q1.75 -21.7 1.75 -16.05 1.75 -21.7 6.9 -22.2 L8.35 -22.3 9.05 -21.8 9.6 -21.3 8.95 -19.3 7.55 -19.95 Q5.3 -20.7 3.2 -18.65 2.3 -17.7 1.75 -16.05 L1.65 -15.8 Q4.4 -17.1 7.1 -16.45 L7.2 -16.75 Q7.8 -18.25 7.55 -19.95 M-1.75 -15.65 L-1.75 -8.9 1.9 -8.8 1.65 -15.8 1.9 -8.8 -1.75 -8.9 -1.75 -15.65 -1.9 -16.0 -2.4 -16.75 Q-4.65 -19.2 -7.5 -19.55 L-7.55 -17.7 -7.4 -16.15 -1.75 -15.65 M-8.75 -18.6 L-8.7 -19.6 -7.5 -19.55 -8.7 -19.6 -8.75 -18.6 M7.55 -12.15 L6.15 -13.25 5.45 -13.45 4.75 -13.7 Q4.45 -13.8 4.15 -14.0 4.45 -13.8 4.75 -13.7 L5.45 -13.45 6.15 -13.25 7.55 -12.15 M6.75 -10.0 L5.3 -11.2 4.75 -11.55 Q3.8 -12.2 2.7 -12.5 3.8 -12.2 4.75 -11.55 L5.3 -11.2 6.75 -10.0 M0.2 -0.2 L0.0 -3.1 0.2 -0.2 -6.0 -0.2 -8.05 -2.6 -9.45 -11.25 -10.05 -12.5 -10.05 -13.2 -9.55 -26.75 9.95 -26.75 10.9 -15.3 10.1 -13.15 8.75 -3.1 6.1 -0.2 0.2 -0.2 M4.7 -2.6 L4.7 -5.45 4.55 -9.0 3.3 -9.2 4.55 -9.0 4.7 -5.45 4.7 -2.6 M-4.95 -5.2 L-4.7 -6.05 4.2 -6.3 4.7 -5.45 4.2 -6.3 -4.7 -6.05 -4.95 -5.2 M7.3 -3.8 Q7.6 -8.05 9.5 -11.9 L10.1 -13.15 9.5 -11.9 Q7.6 -8.05 7.3 -3.8 M-8.7 -19.6 L-8.15 -21.7 Q-2.8 -21.85 -2.4 -16.75 -2.8 -21.85 -8.15 -21.7 L-8.7 -19.6 M-7.1 -3.8 Q-7.25 -7.9 -9.4 -11.2 L-9.45 -11.25 -9.4 -11.2 Q-7.25 -7.9 -7.1 -3.8 M-4.25 -14.15 L-4.8 -13.9 Q-6.6 -13.25 -8.25 -12.15 -6.6 -13.25 -4.8 -13.9 L-4.25 -14.15 M-5.45 -3.1 Q-5.8 -6.25 -4.8 -9.15 L-4.25 -9.45 -3.55 -9.65 -4.25 -9.45 -4.8 -9.15 Q-5.8 -6.25 -5.45 -3.1 M-0.75 -19.8 L-0.5 -17.2 -0.75 -19.8 M-3.15 -12.25 L-3.4 -12.2 -4.25 -12.05 Q-5.8 -11.75 -6.8 -10.7 -5.8 -11.75 -4.25 -12.05 L-3.4 -12.2 -3.15 -12.25 M0.9 -5.45 L-1.45 -5.2 0.9 -5.45 M3.5 -23.35 L-3.8 -23.35 3.5 -23.35" fill="url(#gradient0)" fill-rule="evenodd" stroke="none"/>
    <path d="M7.55 -19.95 Q7.8 -18.25 7.2 -16.75 L7.1 -16.45 Q4.4 -17.1 1.65 -15.8 L1.75 -16.05 Q2.3 -17.7 3.2 -18.65 5.3 -20.7 7.55 -19.95 M-1.75 -15.65 L-7.4 -16.15 -7.55 -17.7 -7.5 -19.55 Q-4.65 -19.2 -2.4 -16.75 L-1.9 -16.0 -1.75 -15.65" fill="#9f641c" fill-rule="evenodd" stroke="none"/>
    <path d="M0.2 -0.2 L6.1 -0.2 M8.75 -3.1 L10.1 -13.15 M10.9 -15.3 L9.95 -26.75 -9.55 -26.75 -10.05 -13.2 M-8.05 -2.6 L-9.45 -11.25 M0.2 -0.2 L-6.0 -0.2" fill="none" stroke="#000000" stroke-linecap="round" stroke-linejoin="round" stroke-width="0.05"/>
    <path d="M1.75 -16.05 Q1.75 -21.7 6.9 -22.2 L8.35 -22.3 9.05 -21.8 9.6 -21.3 8.95 -19.3 7.55 -19.95 Q7.8 -18.25 7.2 -16.75 L7.1 -16.45 Q4.4 -17.1 1.65 -15.8 L1.9 -8.8 -1.75 -8.9 -1.75 -15.65 -7.4 -16.15 -7.55 -17.7 -7.5 -19.55 -8.7 -19.6 -8.75 -18.6 M7.55 -19.95 Q5.3 -20.7 3.2 -18.65 2.3 -17.7 1.75 -16.05 L1.65 -15.8 M3.3 -9.2 L4.55 -9.0 4.7 -5.45 4.7 -2.6 M0.0 -3.1 L0.2 -0.2 M6.1 -0.2 L8.75 -3.1 M10.1 -13.15 L9.5 -11.9 Q7.6 -8.05 7.3 -3.8 M4.7 -5.45 L4.2 -6.3 -4.7 -6.05 -4.95 -5.2 M10.1 -13.15 L10.9 -15.3 M-10.05 -13.2 L-10.05 -12.5 -9.45 -11.25 -9.4 -11.2 Q-7.25 -7.9 -7.1 -3.8 M-2.4 -16.75 Q-2.8 -21.85 -8.15 -21.7 L-8.7 -19.6 M-1.75 -15.65 L-1.9 -16.0 -2.4 -16.75 Q-4.65 -19.2 -7.5 -19.55 M-0.5 -17.2 L-0.75 -19.8 M-3.55 -9.65 L-4.25 -9.45 -4.8 -9.15 Q-5.8 -6.25 -5.45 -3.1 M-6.0 -0.2 L-8.05 -2.6 M-3.8 -23.35 L3.5 -23.35 M-1.45 -5.2 L0.9 -5.45" fill="none" stroke="#000000" stroke-linecap="round" stroke-linejoin="round" stroke-width="0.05"/>
    <path d="M4.15 -14.0 Q4.45 -13.8 4.75 -13.7 L5.45 -13.45 6.15 -13.25 7.55 -12.15 M2.7 -12.5 Q3.8 -12.2 4.75 -11.55 L5.3 -11.2 6.75 -10.0 M-8.25 -12.15 Q-6.6 -13.25 -4.8 -13.9 L-4.25 -14.15 M-6.8 -10.7 Q-5.8 -11.75 -4.25 -12.05 L-3.4 -12.2 -3.15 -12.25" fill="none" stroke="#9f641c" stroke-linecap="round" stroke-linejoin="round" stroke-width="1.0"/>
  </g>
  <defs>
    <linearGradient gradientTransform="matrix(0.0128, 0.0, 0.0, 0.0162, 0.4, -13.5)" gradientUnits="userSpaceOnUse" id="gradient0" spreadMethod="pad" x1="-819.2" x2="819.2">
      <stop offset="0.0" stop-color="#5b3f24"/>
      <stop offset="0.5176470588235295" stop-color="#9c6c3d"/>
      <stop offset="1.0" stop-color="#5b3f24"/>
    </linearGradient>
  </defs>
</svg>
