<?xml version="1.0" encoding="UTF-8" standalone="no"?>
<svg xmlns:xlink="http://www.w3.org/1999/xlink" height="26.55px" width="56.7px" xmlns="http://www.w3.org/2000/svg">
  <g transform="matrix(1.0, 0.0, 0.0, 1.0, 0.0, 0.0)">
    <path d="M23.15 -10.5 Q25.1 -12.85 24.75 -16.0 24.35 -19.95 20.9 -20.6 L20.45 -20.35 Q20.1 -18.1 18.55 -16.8 L16.55 -15.75 16.45 -16.0 16.3 -16.1 Q15.25 -14.8 13.95 -14.0 L12.6 -15.5 Q11.35 -15.25 10.5 -14.25 L9.95 -14.25 10.5 -14.25 Q11.35 -15.25 12.6 -15.5 L13.95 -14.0 Q15.25 -14.8 16.3 -16.1 L16.45 -16.0 16.55 -15.75 18.55 -16.8 Q20.1 -18.1 20.45 -20.35 L20.9 -20.6 Q24.35 -19.95 24.75 -16.0 25.1 -12.85 23.15 -10.5 M11.6 -13.0 L11.05 -11.65 Q9.5 -11.6 8.35 -12.45 7.55 -13.0 6.9 -13.75 7.95 -16.4 10.05 -18.25 L10.9 -18.7 12.0 -17.0 Q14.3 -18.9 14.65 -22.0 15.8 -21.0 16.1 -19.45 16.3 -18.5 15.85 -17.75 18.35 -20.25 17.75 -23.9 22.35 -25.9 26.2 -22.3 30.15 -18.55 28.05 -13.5 26.3 -9.2 21.85 -7.8 L17.5 -6.6 Q22.5 -8.05 23.35 -13.05 23.8 -15.75 21.95 -17.75 21.4 -15.2 20.4 -13.1 L17.45 -13.85 17.05 -13.65 16.8 -12.45 16.8 -12.05 16.85 -11.75 17.0 -11.25 Q14.45 -11.45 12.55 -13.05 L11.6 -13.0 M-21.05 -17.75 Q-22.9 -15.75 -22.45 -13.05 -21.6 -8.05 -16.6 -6.6 L-20.95 -7.8 Q-25.4 -9.2 -27.15 -13.5 -29.25 -18.55 -25.3 -22.3 -21.45 -25.9 -16.85 -23.9 -17.45 -20.25 -14.95 -17.75 -15.4 -18.5 -15.2 -19.45 -14.9 -21.0 -13.75 -22.0 -13.4 -18.9 -11.1 -17.0 L-10.0 -18.7 Q-9.5 -18.6 -9.15 -18.25 -7.05 -16.4 -6.0 -13.75 L-7.45 -12.45 Q-8.6 -11.6 -10.15 -11.65 L-10.7 -13.0 -11.65 -13.05 Q-13.55 -11.45 -16.1 -11.25 L-15.95 -11.75 -15.9 -12.05 -15.9 -12.45 -16.15 -13.65 -16.55 -13.85 -19.5 -13.1 Q-20.5 -15.2 -21.05 -17.75 M-22.25 -10.5 Q-24.2 -12.85 -23.85 -16.0 -23.45 -19.95 -20.0 -20.6 L-19.55 -20.35 Q-19.2 -18.1 -17.65 -16.8 -16.75 -16.05 -15.65 -15.75 L-15.55 -16.0 -15.4 -16.1 Q-14.35 -14.8 -13.05 -14.0 L-11.7 -15.5 Q-10.45 -15.25 -9.6 -14.25 L-9.05 -14.25 -9.6 -14.25 Q-10.45 -15.25 -11.7 -15.5 L-13.05 -14.0 Q-14.35 -14.8 -15.4 -16.1 L-15.55 -16.0 -15.65 -15.75 Q-16.75 -16.05 -17.65 -16.8 -19.2 -18.1 -19.55 -20.35 L-20.0 -20.6 Q-23.45 -19.95 -23.85 -16.0 -24.2 -12.85 -22.25 -10.5" fill="#4f4f31" fill-rule="evenodd" stroke="none"/>
    <path d="M9.95 -14.25 L10.5 -14.25 Q11.35 -15.25 12.6 -15.5 L13.95 -14.0 Q15.25 -14.8 16.3 -16.1 L16.45 -16.0 16.55 -15.75 18.55 -16.8 Q20.1 -18.1 20.45 -20.35 L20.9 -20.6 Q24.35 -19.95 24.75 -16.0 25.1 -12.85 23.15 -10.5 M11.6 -13.0 L11.05 -11.65 Q9.5 -11.6 8.35 -12.45 7.55 -13.0 6.9 -13.75 7.95 -16.4 10.05 -18.25 L10.9 -18.7 12.0 -17.0 Q14.3 -18.9 14.65 -22.0 15.8 -21.0 16.1 -19.45 16.3 -18.5 15.85 -17.75 18.35 -20.25 17.75 -23.9 22.35 -25.9 26.2 -22.3 30.15 -18.55 28.05 -13.5 26.3 -9.2 21.85 -7.8 L17.5 -6.6 Q22.5 -8.05 23.35 -13.05 23.8 -15.75 21.95 -17.75 21.4 -15.2 20.4 -13.1 L17.45 -13.85 17.05 -13.65 16.8 -12.45 16.8 -12.05 16.85 -11.75 17.0 -11.25 Q14.45 -11.45 12.55 -13.05 L11.6 -13.0 M-21.05 -17.75 Q-20.5 -15.2 -19.5 -13.1 L-16.55 -13.85 -16.15 -13.65 -15.9 -12.45 -15.9 -12.05 -15.95 -11.75 -16.1 -11.25 Q-13.55 -11.45 -11.65 -13.05 L-10.7 -13.0 -10.15 -11.65 Q-8.6 -11.6 -7.45 -12.45 L-6.0 -13.75 Q-7.05 -16.4 -9.15 -18.25 -9.5 -18.6 -10.0 -18.7 L-11.1 -17.0 Q-13.4 -18.9 -13.75 -22.0 -14.9 -21.0 -15.2 -19.45 -15.4 -18.5 -14.95 -17.75 -17.45 -20.25 -16.85 -23.9 -21.45 -25.9 -25.3 -22.3 -29.25 -18.55 -27.15 -13.5 -25.4 -9.2 -20.95 -7.8 L-16.6 -6.6 Q-21.6 -8.05 -22.45 -13.05 -22.9 -15.75 -21.05 -17.75 M-9.05 -14.25 L-9.6 -14.25 Q-10.45 -15.25 -11.7 -15.5 L-13.05 -14.0 Q-14.35 -14.8 -15.4 -16.1 L-15.55 -16.0 -15.65 -15.75 Q-16.75 -16.05 -17.65 -16.8 -19.2 -18.1 -19.55 -20.35 L-20.0 -20.6 Q-23.45 -19.95 -23.85 -16.0 -24.2 -12.85 -22.25 -10.5" fill="none" stroke="#000000" stroke-linecap="round" stroke-linejoin="round" stroke-width="0.05"/>
    <path d="M10.9 -22.3 L10.9 -14.5 7.3 -8.5 7.3 -5.9 7.3 -4.35 7.25 -2.25 7.15 -0.2 -6.15 -0.2 -6.4 -7.55 -7.2 -9.2 -8.45 -11.4 -10.05 -14.35 -9.95 -22.8 Q-9.4 -24.4 -8.4 -25.4 -7.4 -26.4 -5.95 -26.75 L7.15 -26.75 Q9.7 -25.5 10.9 -22.3 M1.65 -19.8 L1.2 -19.2 1.2 -17.9 1.25 -17.3 1.25 -15.4 1.25 -13.45 Q1.3 -11.4 0.8 -9.55 L-1.15 -9.55 -0.15 -12.95 -1.15 -9.55 0.8 -9.55 Q1.3 -11.4 1.25 -13.45 L1.25 -15.4 1.25 -17.3 1.2 -17.9 1.2 -19.2 1.65 -19.8 Q0.95 -16.2 4.45 -14.95 L5.15 -14.75 Q6.5 -14.55 7.6 -15.55 L7.85 -17.4 1.7 -20.15 1.65 -19.8 M8.0 -20.95 L8.25 -22.85 Q8.4 -23.75 9.15 -24.25 8.4 -23.75 8.25 -22.85 L8.0 -20.95 M8.7 -14.75 L9.3 -13.9 7.45 -12.55 7.3 -8.5 7.45 -12.55 9.3 -13.9 8.7 -14.75 M1.25 -17.3 L1.5 -15.3 1.5 -14.85 1.9 -13.8 2.7 -12.75 3.2 -12.3 2.7 -12.75 1.9 -13.8 1.5 -14.85 1.5 -15.3 1.25 -17.3 M8.35 -18.95 Q8.6 -18.1 8.0 -17.55 L7.85 -17.4 8.0 -17.55 Q8.6 -18.1 8.35 -18.95 M4.7 -11.55 L5.15 -14.75 4.7 -11.55 M2.2 -20.95 L7.15 -18.95 2.2 -20.95 M4.45 -2.5 L4.45 -6.75 5.4 -6.1 7.3 -4.35 5.4 -6.1 4.45 -6.75 4.45 -2.5 M0.1 -2.35 L-0.1 -7.6 2.5 -7.5 2.45 -3.65 2.35 -2.7 2.45 -3.65 2.5 -7.5 -0.1 -7.6 0.1 -2.35 M4.45 -7.45 L4.45 -6.75 2.5 -7.5 2.5 -8.5 2.5 -7.5 4.45 -6.75 4.45 -7.45 M3.65 -10.85 L5.5 -10.75 3.65 -10.85 M-7.9 -14.35 L-8.35 -12.8 -7.95 -12.4 -6.7 -11.9 -6.4 -7.55 -6.7 -11.9 -7.95 -12.4 -8.35 -12.8 -7.9 -14.35 M-8.05 -21.65 L-7.65 -22.8 Q-7.55 -23.0 -7.6 -23.3 L-7.7 -23.8 -7.9 -24.4 -8.4 -25.4 -7.9 -24.4 -7.7 -23.8 -7.6 -23.3 Q-7.55 -23.0 -7.65 -22.8 L-8.05 -21.65 M-0.15 -19.55 L-0.3 -21.1 -0.4 -21.55 -1.2 -22.15 -0.4 -21.55 0.45 -22.5 -0.4 -21.55 -0.3 -21.1 -0.15 -19.55 M-5.6 -15.2 Q-4.35 -14.95 -2.7 -15.9 -2.1 -16.3 -1.75 -16.85 L-1.7 -16.9 -1.4 -17.95 Q-1.25 -19.05 -1.6 -20.15 -4.9 -19.5 -8.2 -17.8 -7.2 -15.55 -5.6 -15.2 L-5.55 -11.1 -5.4 -11.1 -4.75 -10.25 -5.4 -11.1 -5.55 -11.1 -5.6 -15.2 M-4.35 -13.1 L-3.55 -13.55 -3.1 -14.0 Q-2.55 -14.5 -2.25 -15.3 L-2.05 -15.8 -1.75 -16.85 -2.05 -15.8 -2.25 -15.3 Q-2.55 -14.5 -3.1 -14.0 L-3.55 -13.55 -4.35 -13.1 M-1.7 -16.9 L-1.5 -17.5 -1.4 -17.95 -1.5 -17.5 -1.7 -16.9 M-8.2 -17.8 L-8.6 -18.45 -7.9 -20.25 -8.6 -18.45 -8.2 -17.8 M-7.65 -19.3 L-2.5 -21.3 -7.65 -19.3 M-0.3 -8.35 L-0.1 -7.6 -2.5 -7.05 -3.95 -6.35 -4.05 -8.0 -3.95 -6.35 -2.5 -7.05 -2.5 -8.0 -2.5 -7.05 -0.1 -7.6 -0.3 -8.35 M-5.9 -10.6 L-5.6 -11.1 -5.55 -11.1 -5.6 -11.1 -5.9 -10.6 M-2.1 -2.5 L-2.5 -7.05 -2.1 -2.5 M-5.75 -3.9 L-5.4 -4.6 -3.95 -6.35 -3.75 -2.0 -3.95 -6.35 -5.4 -4.6 -5.75 -3.9" fill="url(#gradient0)" fill-rule="evenodd" stroke="none"/>
    <path d="M1.65 -19.8 L1.7 -20.15 7.85 -17.4 7.6 -15.55 Q6.5 -14.55 5.15 -14.75 L4.45 -14.95 Q0.95 -16.2 1.65 -19.8 M5.15 -15.3 L5.15 -14.75 5.15 -15.3 M-5.6 -15.2 Q-7.2 -15.55 -8.2 -17.8 -4.9 -19.5 -1.6 -20.15 -1.25 -19.05 -1.4 -17.95 L-1.7 -16.9 -1.75 -16.85 Q-2.1 -16.3 -2.7 -15.9 -4.35 -14.95 -5.6 -15.2" fill="#4f4f31" fill-rule="evenodd" stroke="none"/>
    <path d="M10.9 -22.3 L10.9 -14.5 M7.15 -0.2 L-6.15 -0.2 M-10.05 -14.35 L-9.95 -22.8 M-5.95 -26.75 L7.15 -26.75 M2.5 -8.5 L2.5 -7.5 4.45 -6.75 4.45 -7.45 M2.35 -2.7 L2.45 -3.65 2.5 -7.5 -0.1 -7.6 0.1 -2.35 M7.3 -4.35 L5.4 -6.1 4.45 -6.75 4.45 -2.5 M-4.05 -8.0 L-3.95 -6.35 -2.5 -7.05 -2.5 -8.0 M-2.5 -7.05 L-0.1 -7.6 -0.3 -8.35 M-3.75 -2.0 L-3.95 -6.35 -5.4 -4.6 -5.75 -3.9 M-2.5 -7.05 L-2.1 -2.5" fill="none" stroke="#000000" stroke-linecap="round" stroke-linejoin="round" stroke-width="0.05"/>
    <path d="M10.9 -14.5 L7.3 -8.5 7.3 -5.9 7.3 -4.35 7.25 -2.25 7.15 -0.2 M-6.15 -0.2 L-6.4 -7.55 -7.2 -9.2 -8.45 -11.4 -10.05 -14.35 M-9.95 -22.8 Q-9.4 -24.4 -8.4 -25.4 -7.4 -26.4 -5.95 -26.75 M7.15 -26.75 Q9.7 -25.5 10.9 -22.3 M9.15 -24.25 Q8.4 -23.75 8.25 -22.85 L8.0 -20.95 M-0.15 -12.95 L-1.15 -9.55 0.8 -9.55 Q1.3 -11.4 1.25 -13.45 L1.25 -15.4 1.25 -17.3 1.2 -17.9 1.2 -19.2 1.65 -19.8 1.7 -20.15 7.85 -17.4 8.0 -17.55 Q8.6 -18.1 8.35 -18.95 M3.2 -12.3 L2.7 -12.75 1.9 -13.8 1.5 -14.85 1.5 -15.3 1.25 -17.3 M7.3 -8.5 L7.45 -12.55 9.3 -13.9 8.7 -14.75 M7.85 -17.4 L7.6 -15.55 Q6.5 -14.55 5.15 -14.75 L4.45 -14.95 Q0.95 -16.2 1.65 -19.8 M-1.2 -22.15 L-0.4 -21.55 0.45 -22.5 M-0.4 -21.55 L-0.3 -21.1 -0.15 -19.55 M-8.4 -25.4 L-7.9 -24.4 -7.7 -23.8 -7.6 -23.3 Q-7.55 -23.0 -7.65 -22.8 L-8.05 -21.65 M-6.4 -7.55 L-6.7 -11.9 -7.95 -12.4 -8.35 -12.8 -7.9 -14.35 M-5.6 -15.2 Q-4.35 -14.95 -2.7 -15.9 -2.1 -16.3 -1.75 -16.85 L-1.7 -16.9 -1.4 -17.95 Q-1.25 -19.05 -1.6 -20.15 -4.9 -19.5 -8.2 -17.8 -7.2 -15.55 -5.6 -15.2 M-7.9 -20.25 L-8.6 -18.45 -8.2 -17.8 M-1.4 -17.95 L-1.5 -17.5 -1.7 -16.9 M-1.75 -16.85 L-2.05 -15.8 -2.25 -15.3 Q-2.55 -14.5 -3.1 -14.0 L-3.55 -13.55 -4.35 -13.1" fill="none" stroke="#000000" stroke-linecap="round" stroke-linejoin="round" stroke-width="0.05"/>
    <path d="M5.15 -14.75 L5.15 -15.3 M5.15 -14.75 L4.7 -11.55 M7.15 -18.95 L2.2 -20.95 M5.5 -10.75 L3.65 -10.85 M-5.6 -15.2 L-5.55 -11.1 -5.4 -11.1 -4.75 -10.25 M-2.5 -21.3 L-7.65 -19.3 M-5.55 -11.1 L-5.6 -11.1 -5.9 -10.6" fill="none" stroke="#4f4f31" stroke-linecap="round" stroke-linejoin="round" stroke-width="1.0"/>
  </g>
  <defs>
    <linearGradient gradientTransform="matrix(0.0128, 0.0, 0.0, 0.0162, 0.4, -13.5)" gradientUnits="userSpaceOnUse" id="gradient0" spreadMethod="pad" x1="-819.2" x2="819.2">
      <stop offset="0.0" stop-color="#442d23"/>
      <stop offset="0.5176470588235295" stop-color="#7d563c"/>
      <stop offset="1.0" stop-color="#442d23"/>
    </linearGradient>
  </defs>
</svg>
