<?xml version="1.0" encoding="UTF-8" standalone="no"?>
<svg xmlns:xlink="http://www.w3.org/1999/xlink" height="28.2px" width="58.55px" xmlns="http://www.w3.org/2000/svg">
  <g transform="matrix(1.0, 0.0, 0.0, 1.0, 0.0, 0.0)">
    <path d="M13.2 -25.45 Q15.05 -25.7 16.15 -24.7 19.6 -23.1 16.85 -18.95 15.2 -16.4 14.15 -13.5 12.85 -9.75 16.5 -8.85 19.35 -9.55 22.2 -10.8 23.85 -11.45 25.35 -10.55 L27.7 -9.25 29.7 -9.9 Q29.05 -7.05 26.25 -6.3 L21.75 -7.35 19.25 -6.05 Q14.3 -2.95 10.45 -6.75 9.85 -7.35 9.7 -8.2 8.75 -13.1 9.7 -18.1 10.25 -21.1 13.4 -22.4 14.1 -22.7 14.0 -23.55 L13.75 -24.7 13.45 -24.75 13.2 -24.95 13.2 -25.45 M23.8 -8.25 L26.25 -7.45 25.95 -8.8 Q22.2 -10.2 17.95 -8.1 13.65 -6.0 12.6 -7.75 11.55 -9.5 12.0 -12.4 12.45 -15.35 14.8 -20.25 L12.45 -20.2 12.35 -19.4 12.45 -20.2 14.8 -20.25 Q12.45 -15.35 12.0 -12.4 11.55 -9.5 12.6 -7.75 13.65 -6.0 17.95 -8.1 22.2 -10.2 25.95 -8.8 L26.25 -7.45 23.8 -8.25" fill="#3d5a8b" fill-rule="evenodd" stroke="none"/>
    <path d="M13.2 -25.45 Q15.05 -25.7 16.15 -24.7 19.6 -23.1 16.85 -18.95 15.2 -16.4 14.15 -13.5 12.85 -9.75 16.5 -8.85 19.35 -9.55 22.2 -10.8 23.85 -11.45 25.35 -10.55 L27.7 -9.25 29.7 -9.9 Q29.05 -7.05 26.25 -6.3 L21.75 -7.35 19.25 -6.05 Q14.3 -2.95 10.45 -6.75 9.85 -7.35 9.7 -8.2 8.75 -13.1 9.7 -18.1 10.25 -21.1 13.4 -22.4 14.1 -22.7 14.0 -23.55 L13.75 -24.7 13.45 -24.75 13.2 -24.95 13.2 -25.45" fill="none" stroke="#000000" stroke-linecap="round" stroke-linejoin="round" stroke-width="0.05"/>
    <path d="M12.35 -19.4 L12.45 -20.2 14.8 -20.25 Q12.45 -15.35 12.0 -12.4 11.55 -9.5 12.6 -7.75 13.65 -6.0 17.95 -8.1 22.2 -10.2 25.95 -8.8 L26.25 -7.45 23.8 -8.25" fill="none" stroke="#3399ff" stroke-linecap="round" stroke-linejoin="round" stroke-width="0.05"/>
    <path d="M-12.35 -25.45 Q-14.2 -25.7 -15.3 -24.7 -18.75 -23.1 -16.0 -18.95 -14.35 -16.4 -13.3 -13.5 -12.0 -9.75 -15.65 -8.85 -18.5 -9.55 -21.35 -10.8 -23.0 -11.45 -24.5 -10.55 L-26.85 -9.25 -28.85 -9.9 Q-28.2 -7.05 -25.4 -6.3 L-20.9 -7.35 -18.4 -6.05 Q-13.45 -2.95 -9.6 -6.75 -9.0 -7.35 -8.85 -8.2 -7.9 -13.1 -8.85 -18.1 -9.4 -21.1 -12.55 -22.4 -13.25 -22.7 -13.15 -23.55 L-12.9 -24.7 -12.6 -24.75 -12.35 -24.95 -12.35 -25.45 M-22.95 -8.25 L-25.4 -7.45 -25.1 -8.8 Q-21.35 -10.2 -17.1 -8.1 -12.8 -6.0 -11.75 -7.75 -10.7 -9.5 -11.15 -12.4 -11.6 -15.35 -13.95 -20.25 L-11.6 -20.2 -11.5 -19.4 -11.6 -20.2 -13.95 -20.25 Q-11.6 -15.35 -11.15 -12.4 -10.7 -9.5 -11.75 -7.75 -12.8 -6.0 -17.1 -8.1 -21.35 -10.2 -25.1 -8.8 L-25.4 -7.45 -22.95 -8.25" fill="#3d5a8b" fill-rule="evenodd" stroke="none"/>
    <path d="M-12.35 -25.45 Q-14.2 -25.7 -15.3 -24.7 -18.75 -23.1 -16.0 -18.95 -14.35 -16.4 -13.3 -13.5 -12.0 -9.75 -15.65 -8.85 -18.5 -9.55 -21.35 -10.8 -23.0 -11.45 -24.5 -10.55 L-26.85 -9.25 -28.85 -9.9 Q-28.2 -7.05 -25.4 -6.3 L-20.9 -7.35 -18.4 -6.05 Q-13.45 -2.95 -9.6 -6.75 -9.0 -7.35 -8.85 -8.2 -7.9 -13.1 -8.85 -18.1 -9.4 -21.1 -12.55 -22.4 -13.25 -22.7 -13.15 -23.55 L-12.9 -24.7 -12.6 -24.75 -12.35 -24.95 -12.35 -25.45" fill="none" stroke="#000000" stroke-linecap="round" stroke-linejoin="round" stroke-width="0.05"/>
    <path d="M-11.5 -19.4 L-11.6 -20.2 -13.95 -20.25 Q-11.6 -15.35 -11.15 -12.4 -10.7 -9.5 -11.75 -7.75 -12.8 -6.0 -17.1 -8.1 -21.35 -10.2 -25.1 -8.8 L-25.4 -7.45 -22.95 -8.25" fill="none" stroke="#3399ff" stroke-linecap="round" stroke-linejoin="round" stroke-width="0.05"/>
    <path d="M2.25 -20.7 L7.6 -17.45 7.75 -17.15 7.6 -16.9 Q6.05 -15.25 4.2 -16.0 3.75 -16.15 3.4 -16.45 2.55 -17.3 2.25 -18.55 L2.05 -19.65 2.25 -20.7 M-7.05 -18.0 L-5.65 -18.95 -2.75 -20.3 -1.6 -20.5 -2.0 -17.6 Q-2.85 -16.25 -4.3 -15.95 -6.85 -15.65 -7.05 -18.0" fill="#3d5a8b" fill-rule="evenodd" stroke="none"/>
    <path d="M11.0 -13.2 L10.9 -13.15 10.9 -13.1 11.0 -5.65 9.35 -2.0 8.15 -0.65 7.1 -0.3 6.95 -0.55 6.35 -1.55 6.95 -0.55 7.1 -0.3 4.2 0.2 4.0 0.2 3.85 -0.6 3.75 -0.95 3.85 -0.6 4.0 0.2 0.55 0.25 0.0 0.25 -2.75 0.2 -3.65 0.1 -3.65 -0.7 -3.65 -1.05 -3.65 -0.7 -3.65 0.1 -5.8 -0.2 -5.9 -0.2 Q-6.45 -0.15 -6.8 -0.65 -8.05 -2.1 -8.85 -3.7 L-9.9 -6.6 -10.05 -12.25 -10.05 -12.5 -10.3 -15.9 -10.05 -19.3 -9.75 -20.45 Q-9.05 -22.25 -8.8 -23.65 L-8.25 -26.25 -7.95 -26.75 9.05 -26.75 Q9.65 -25.75 9.65 -24.4 9.65 -23.1 10.05 -21.85 10.45 -20.65 10.9 -19.8 L11.2 -16.85 Q11.4 -15.5 11.0 -13.2 M8.25 -5.65 L8.95 -6.85 Q10.0 -8.45 10.15 -10.25 L10.15 -11.8 Q10.05 -12.6 10.75 -13.05 L10.9 -13.1 10.75 -13.05 Q10.05 -12.6 10.15 -11.8 L10.15 -10.25 Q10.0 -8.45 8.95 -6.85 L8.25 -5.65 M2.25 -20.7 Q2.05 -21.4 2.6 -21.8 L2.95 -21.95 3.95 -21.85 5.25 -21.2 7.45 -19.4 Q8.4 -18.65 8.85 -17.55 L8.75 -17.4 8.1 -16.9 7.75 -17.15 8.1 -16.9 8.75 -17.4 8.85 -17.55 Q8.4 -18.65 7.45 -19.4 L5.25 -21.2 3.95 -21.85 2.95 -21.95 2.6 -21.8 Q2.05 -21.4 2.25 -20.7 L2.05 -19.65 Q1.45 -18.95 1.6 -17.9 1.9 -15.45 3.9 -14.2 4.4 -13.9 5.0 -13.75 6.9 -13.0 8.3 -14.5 L8.45 -15.1 Q8.7 -16.0 8.1 -16.9 L7.6 -16.9 8.1 -16.9 Q8.7 -16.0 8.45 -15.1 L8.3 -14.5 Q6.9 -13.0 5.0 -13.75 4.4 -13.9 3.9 -14.2 1.9 -15.45 1.6 -17.9 1.45 -18.95 2.05 -19.65 L2.25 -18.55 Q2.55 -17.3 3.4 -16.45 3.75 -16.15 4.2 -16.0 6.05 -15.25 7.6 -16.9 L7.75 -17.15 7.6 -17.45 2.25 -20.7 M10.9 -13.15 L10.75 -13.05 10.9 -13.15 M-7.9 -4.6 L-8.65 -5.65 -9.2 -7.1 -9.6 -9.45 -10.05 -12.25 -9.6 -9.45 -9.2 -7.1 -8.65 -5.65 -7.9 -4.6 M-2.75 -13.7 L-3.05 -13.1 -3.0 -13.0 Q-1.9 -11.1 0.1 -10.65 L1.5 -10.8 Q2.6 -11.0 3.1 -12.1 L3.45 -12.95 2.7 -14.0 3.45 -12.95 3.1 -12.1 Q2.6 -11.0 1.5 -10.8 L0.1 -10.65 Q-1.9 -11.1 -3.0 -13.0 L-3.05 -13.1 -2.75 -13.7 M0.35 -20.25 L0.35 -21.1 0.35 -20.25 M6.15 -8.3 L6.4 -7.9 6.65 -7.75 6.95 -7.7 7.3 -7.9 7.55 -8.1 7.9 -8.55 7.75 -9.05 Q6.1 -12.25 2.55 -9.9 6.1 -12.25 7.75 -9.05 L7.9 -8.55 7.55 -8.1 7.3 -7.9 6.95 -7.7 6.65 -7.75 6.4 -7.9 6.15 -8.3 M-5.1 -8.7 L-4.9 -7.9 -4.25 -7.5 Q-3.1 -6.75 -1.65 -6.45 L1.15 -6.95 3.95 -7.5 Q4.85 -7.75 5.1 -8.6 L4.6 -9.2 5.1 -8.6 Q4.85 -7.75 3.95 -7.5 L1.15 -6.95 -1.65 -6.45 Q-3.1 -6.75 -4.25 -7.5 L-4.9 -7.9 -5.1 -8.7 M0.0 -0.6 L0.0 -0.35 0.0 0.25 0.0 -0.35 0.0 -0.6 M-0.35 -20.05 L-0.35 -21.1 -0.35 -20.05 M-1.55 -20.45 L-1.6 -20.5 -1.55 -20.45 -1.55 -20.9 -2.0 -21.45 -2.35 -21.75 Q-5.3 -21.05 -8.1 -20.0 -8.7 -19.3 -8.15 -18.75 L-7.05 -18.0 -8.15 -18.75 Q-8.7 -19.3 -8.1 -20.0 -5.3 -21.05 -2.35 -21.75 L-2.0 -21.45 -1.55 -20.9 -1.55 -20.45 M-1.6 -20.5 L-2.75 -20.3 -5.65 -18.95 -7.05 -18.0 Q-6.85 -15.65 -4.3 -15.95 -2.85 -16.25 -2.0 -17.6 L-1.6 -20.5 M-7.55 -17.45 Q-8.4 -15.4 -7.6 -13.65 L-7.45 -13.45 Q-6.15 -13.05 -4.9 -13.7 -3.3 -14.45 -2.6 -15.85 -2.25 -16.55 -2.0 -17.6 -2.25 -16.55 -2.6 -15.85 -3.3 -14.45 -4.9 -13.7 -6.15 -13.05 -7.45 -13.45 L-7.6 -13.65 Q-8.4 -15.4 -7.55 -17.45 M-6.5 -9.2 L-7.15 -8.3 -8.1 -8.7 -8.1 -9.2 Q-6.75 -12.75 -3.2 -9.9 -6.75 -12.75 -8.1 -9.2 L-8.1 -8.7 -7.15 -8.3 -6.5 -9.2 M-5.65 -1.65 L-5.9 -0.2 -5.65 -1.65 M-1.65 -1.2 L-1.05 -1.55 Q0.4 -2.25 1.85 -1.55 0.4 -2.25 -1.05 -1.55 L-1.65 -1.2 M-4.6 -23.65 L5.3 -24.75 -4.6 -23.65 M-2.0 -4.85 L1.3 -4.85 -2.0 -4.85" fill="url(#gradient0)" fill-rule="evenodd" stroke="none"/>
    <path d="M10.9 -13.15 L10.9 -13.1 11.0 -5.65 M8.15 -0.65 L7.1 -0.3 4.2 0.2 4.0 0.2 0.55 0.25 0.0 0.25 -2.75 0.2 -3.65 0.1 -5.8 -0.2 M11.0 -13.2 Q11.4 -15.5 11.2 -16.85 L10.9 -19.8 M9.05 -26.75 L-7.95 -26.75 M-10.05 -19.3 L-10.3 -15.9 -10.05 -12.5 M2.25 -20.7 L7.6 -17.45 M7.75 -17.15 L7.6 -16.9 Q6.05 -15.25 4.2 -16.0 3.75 -16.15 3.4 -16.45 2.55 -17.3 2.25 -18.55 L2.05 -19.65 2.25 -20.7 M-1.6 -20.5 L-1.55 -20.45 M-7.05 -18.0 L-5.65 -18.95 -2.75 -20.3 -1.6 -20.5 M-7.05 -18.0 Q-6.85 -15.65 -4.3 -15.95 -2.85 -16.25 -2.0 -17.6 M-10.05 -12.25 L-9.9 -6.6" fill="none" stroke="#000000" stroke-linecap="round" stroke-linejoin="round" stroke-width="0.05"/>
    <path d="M10.9 -13.1 L11.0 -13.2 10.9 -13.15 10.75 -13.05 Q10.05 -12.6 10.15 -11.8 L10.15 -10.25 Q10.0 -8.45 8.95 -6.85 L8.25 -5.65 M11.0 -5.65 L9.35 -2.0 8.15 -0.65 M10.9 -13.1 L10.75 -13.05 M10.9 -19.8 Q10.45 -20.65 10.05 -21.85 9.65 -23.1 9.65 -24.4 9.65 -25.75 9.05 -26.75 M-7.95 -26.75 L-8.25 -26.25 -8.8 -23.65 Q-9.05 -22.25 -9.75 -20.45 L-10.05 -19.3 M-10.05 -12.5 L-10.05 -12.25 -9.6 -9.45 -9.2 -7.1 -8.65 -5.65 -7.9 -4.6 M7.75 -17.15 L8.1 -16.9 8.75 -17.4 8.85 -17.55 Q8.4 -18.65 7.45 -19.4 L5.25 -21.2 3.95 -21.85 2.95 -21.95 2.6 -21.8 Q2.05 -21.4 2.25 -20.7 M7.6 -17.45 L7.75 -17.15 M7.6 -16.9 L8.1 -16.9 Q8.7 -16.0 8.45 -15.1 L8.3 -14.5 Q6.9 -13.0 5.0 -13.75 4.4 -13.9 3.9 -14.2 1.9 -15.45 1.6 -17.9 1.45 -18.95 2.05 -19.65 M0.35 -21.1 L0.35 -20.25 M2.7 -14.0 L3.45 -12.95 3.1 -12.1 Q2.6 -11.0 1.5 -10.8 L0.1 -10.65 Q-1.9 -11.1 -3.0 -13.0 L-3.05 -13.1 -2.75 -13.7 M4.6 -9.2 L5.1 -8.6 Q4.85 -7.75 3.95 -7.5 L1.15 -6.95 -1.65 -6.45 Q-3.1 -6.75 -4.25 -7.5 L-4.9 -7.9 -5.1 -8.7 M-0.35 -21.1 L-0.35 -20.05 M-1.55 -20.45 L-1.55 -20.9 -2.0 -21.45 -2.35 -21.75 Q-5.3 -21.05 -8.1 -20.0 -8.7 -19.3 -8.15 -18.75 L-7.05 -18.0 M-1.6 -20.5 L-2.0 -17.6 Q-2.25 -16.55 -2.6 -15.85 -3.3 -14.45 -4.9 -13.7 -6.15 -13.05 -7.45 -13.45 L-7.6 -13.65 Q-8.4 -15.4 -7.55 -17.45 M-9.9 -6.6 L-8.85 -3.7 Q-8.05 -2.1 -6.8 -0.65 -6.45 -0.15 -5.9 -0.2 L-5.8 -0.2 M1.85 -1.55 Q0.4 -2.25 -1.05 -1.55 L-1.65 -1.2 M1.3 -4.85 L-2.0 -4.85 M5.3 -24.75 L-4.6 -23.65" fill="none" stroke="#000000" stroke-linecap="round" stroke-linejoin="round" stroke-width="0.05"/>
    <path d="M7.1 -0.3 L7.1 -0.15 7.05 0.35 M2.55 -9.9 Q6.1 -12.25 7.75 -9.05 L7.9 -8.55 7.55 -8.1 7.3 -7.9 6.95 -7.7 6.65 -7.75 6.4 -7.9 6.15 -8.3 M0.0 0.25 L0.0 -0.35 0.0 -0.6 M4.0 0.2 L3.85 -0.6 3.75 -0.95 M7.1 -0.3 L6.95 -0.55 6.35 -1.55 M0.0 0.25 L0.1 0.95 M-3.65 0.1 L-3.65 0.8 M4.0 0.2 L3.85 0.95 M-5.9 -0.2 L-5.65 -1.65 M-3.2 -9.9 Q-6.75 -12.75 -8.1 -9.2 L-8.1 -8.7 -7.15 -8.3 -6.5 -9.2 M-5.9 -0.2 L-5.8 0.6 M-3.65 0.1 L-3.65 -0.7 -3.65 -1.05" fill="none" stroke="#3d5a8b" stroke-linecap="round" stroke-linejoin="round" stroke-width="1.0"/>
  </g>
  <defs>
    <linearGradient gradientTransform="matrix(0.0128, 0.0, 0.0, 0.0162, 0.4, -13.5)" gradientUnits="userSpaceOnUse" id="gradient0" spreadMethod="pad" x1="-819.2" x2="819.2">
      <stop offset="0.0" stop-color="#674333"/>
      <stop offset="0.5176470588235295" stop-color="#ac755e"/>
      <stop offset="1.0" stop-color="#694634"/>
    </linearGradient>
  </defs>
</svg>
