<?xml version="1.0" encoding="UTF-8" standalone="no"?>
<svg xmlns:xlink="http://www.w3.org/1999/xlink" height="26.9px" width="81.05px" xmlns="http://www.w3.org/2000/svg">
  <g transform="matrix(1.0, 0.0, 0.0, 1.0, 0.0, 0.0)">
    <path d="M12.95 -20.5 Q14.95 -22.15 17.3 -23.05 L21.85 -24.8 Q24.55 -25.75 27.4 -26.05 L30.85 -25.8 27.4 -26.05 Q24.55 -25.75 21.85 -24.8 L17.3 -23.05 Q14.95 -22.15 12.95 -20.5 M12.15 -20.7 L12.2 -20.85 Q14.7 -22.25 17.15 -23.8 19.55 -25.3 22.35 -26.15 L27.4 -26.9 31.85 -26.05 30.85 -25.8 Q23.75 -24.0 19.1 -21.05 L18.45 -21.75 18.45 -21.0 Q15.05 -19.8 13.05 -18.35 L12.8 -19.15 12.15 -20.7 M27.75 -13.05 L35.25 -13.3 40.1 -11.0 36.45 -8.85 30.4 -9.45 27.5 -9.55 22.2 -9.6 14.8 -9.5 14.9 -11.0 15.05 -12.55 24.75 -13.0 27.75 -13.05 M29.85 -26.15 L26.65 -26.35 Q19.05 -25.35 12.85 -20.8 19.05 -25.35 26.65 -26.35 L29.85 -26.15 M38.95 -10.75 L34.6 -12.95 15.2 -12.3 34.6 -12.95 38.95 -10.75 M36.3 -11.15 L14.9 -11.0 36.3 -11.15" fill="#8a7a62" fill-rule="evenodd" stroke="none"/>
    <path d="M12.15 -20.7 L12.8 -19.15 13.05 -18.35 13.65 -16.65 13.9 -15.9 14.25 -14.95 Q14.25 -13.85 13.4 -13.3 13.75 -15.0 12.5 -16.25 11.55 -14.15 12.5 -11.9 14.85 -12.15 15.3 -14.75 L15.05 -12.55 14.9 -11.0 14.8 -9.5 14.75 -7.9 13.25 -9.65 12.45 -10.35 12.1 -10.25 11.85 -9.55 11.6 -9.4 Q11.15 -9.5 11.05 -9.95 10.8 -10.9 10.8 -11.9 L10.75 -12.05 9.35 -11.9 9.35 -17.6 11.55 -18.9 Q11.75 -19.95 11.05 -20.8 10.5 -21.45 9.75 -21.5 10.85 -21.95 11.7 -21.15 L12.1 -20.8 12.15 -20.7" fill="#4a3623" fill-rule="evenodd" stroke="none"/>
    <path d="M13.65 -16.65 L19.2 -15.8 Q22.25 -15.7 25.35 -15.75 L26.15 -15.95 Q26.8 -16.65 26.15 -17.5 24.95 -18.95 23.1 -18.6 L22.95 -18.8 Q24.3 -19.75 26.0 -19.55 27.8 -19.65 29.4 -18.8 31.05 -17.9 32.2 -16.4 L29.55 -16.1 Q28.65 -15.85 28.15 -15.2 L30.25 -13.75 27.85 -13.95 27.75 -13.05 24.75 -13.0 25.25 -14.45 14.25 -14.95 13.9 -15.9 13.65 -16.65 M27.5 -9.55 Q27.9 -8.25 29.05 -7.95 L29.25 -7.65 Q26.3 -5.3 22.65 -6.35 20.55 -7.05 19.25 -8.95 20.8 -8.65 22.2 -9.6 L27.5 -9.55 M26.15 -14.05 L27.85 -13.95 28.15 -15.2 27.85 -13.95 26.15 -14.05 M20.1 -8.5 Q21.1 -7.7 22.4 -7.25 25.7 -6.15 28.65 -7.7 25.7 -6.15 22.4 -7.25 21.1 -7.7 20.1 -8.5 M30.8 -16.7 Q30.8 -17.2 29.1 -18.4 27.35 -19.65 24.05 -19.05 27.35 -19.65 29.1 -18.4 30.8 -17.2 30.8 -16.7" fill="#665848" fill-rule="evenodd" stroke="none"/>
    <path d="M30.85 -25.8 L27.4 -26.05 Q24.55 -25.75 21.85 -24.8 L17.3 -23.05 Q14.95 -22.15 12.95 -20.5 M13.05 -18.35 Q15.05 -19.8 18.45 -21.0 L18.45 -21.75 19.1 -21.05 Q23.75 -24.0 30.85 -25.8 L31.85 -26.05 27.4 -26.9 22.35 -26.15 Q19.55 -25.3 17.15 -23.8 14.7 -22.25 12.2 -20.85 L12.15 -20.7 M13.65 -16.65 L19.2 -15.8 Q22.25 -15.7 25.35 -15.75 L26.15 -15.95 Q26.8 -16.65 26.15 -17.5 24.95 -18.95 23.1 -18.6 L22.5 -18.45 22.95 -18.8 Q24.3 -19.75 26.0 -19.55 27.8 -19.65 29.4 -18.8 31.05 -17.9 32.2 -16.4 L29.55 -16.1 Q28.65 -15.85 28.15 -15.2 L30.25 -13.75 27.85 -13.95 27.75 -13.05 35.25 -13.3 40.1 -11.0 36.45 -8.85 30.4 -9.45 27.5 -9.55 Q27.9 -8.25 29.05 -7.95 L29.55 -7.9 29.25 -7.65 Q26.3 -5.3 22.65 -6.35 20.55 -7.05 19.25 -8.95 20.8 -8.65 22.2 -9.6 L14.8 -9.5 M12.1 -20.8 L12.2 -20.85 M15.05 -12.55 L24.75 -13.0 25.25 -14.45 14.25 -14.95 M28.15 -15.2 L27.85 -13.95 26.15 -14.05 M24.75 -13.0 L27.75 -13.05 M22.2 -9.6 L27.5 -9.55 M14.9 -11.0 L36.3 -11.15" fill="none" stroke="#000000" stroke-linecap="round" stroke-linejoin="round" stroke-width="0.05"/>
    <path d="M12.15 -20.7 L12.8 -19.15 13.05 -18.35 13.65 -16.65 13.9 -15.9 14.25 -14.95 Q14.25 -13.85 13.4 -13.3 L13.35 -13.2 13.4 -13.3 Q13.75 -15.0 12.5 -16.25 11.55 -14.15 12.5 -11.9 14.85 -12.15 15.3 -14.75 L15.05 -12.55 14.9 -11.0 14.8 -9.5 14.75 -7.9 13.25 -9.65 12.45 -10.35 12.1 -10.25 11.85 -9.55 11.6 -9.4 Q11.15 -9.5 11.05 -9.95 10.8 -10.9 10.8 -11.9 L10.75 -12.05 9.35 -11.9 M9.35 -17.6 L11.55 -18.9 Q11.75 -19.95 11.05 -20.8 10.5 -21.45 9.75 -21.5 10.85 -21.95 11.7 -21.15 L12.1 -20.8 12.15 -20.7" fill="none" stroke="#000000" stroke-linecap="round" stroke-linejoin="round" stroke-width="0.05"/>
    <path d="M28.65 -7.7 Q25.7 -6.15 22.4 -7.25 21.1 -7.7 20.1 -8.5 M12.85 -20.8 Q19.05 -25.35 26.65 -26.35 L29.85 -26.15 M24.05 -19.05 Q27.35 -19.65 29.1 -18.4 30.8 -17.2 30.8 -16.7 M15.2 -12.3 L34.6 -12.95 38.95 -10.75" fill="none" stroke="#cccccc" stroke-linecap="round" stroke-linejoin="round" stroke-width="0.05"/>
    <path d="M-13.8 -20.5 Q-15.8 -22.15 -18.15 -23.05 L-22.7 -24.8 Q-25.4 -25.75 -28.25 -26.05 L-31.7 -25.8 -28.25 -26.05 Q-25.4 -25.75 -22.7 -24.8 L-18.15 -23.05 Q-15.8 -22.15 -13.8 -20.5 M-13.0 -20.7 L-13.05 -20.85 -18.0 -23.8 Q-20.4 -25.3 -23.2 -26.15 L-28.25 -26.9 -32.7 -26.05 -31.7 -25.8 Q-24.6 -24.0 -19.95 -21.05 L-19.3 -21.75 -19.3 -21.0 Q-15.9 -19.8 -13.9 -18.35 L-13.65 -19.15 -13.0 -20.7 M-28.6 -13.05 L-36.1 -13.3 -40.95 -11.0 -37.3 -8.85 -31.25 -9.45 -28.35 -9.55 -23.05 -9.6 -15.65 -9.5 -15.75 -11.0 -15.9 -12.55 -25.6 -13.0 -28.6 -13.05 M-30.7 -26.15 L-27.5 -26.35 Q-19.9 -25.35 -13.7 -20.8 -19.9 -25.35 -27.5 -26.35 L-30.7 -26.15 M-39.8 -10.75 L-35.45 -12.95 -16.05 -12.3 -35.45 -12.95 -39.8 -10.75 M-37.15 -11.15 L-15.75 -11.0 -37.15 -11.15" fill="#8a7a62" fill-rule="evenodd" stroke="none"/>
    <path d="M-13.0 -20.7 L-13.65 -19.15 -13.9 -18.35 -14.5 -16.65 -14.75 -15.9 -15.1 -14.95 Q-15.1 -13.85 -14.25 -13.3 -14.6 -15.0 -13.35 -16.25 -12.4 -14.15 -13.35 -11.9 -15.7 -12.15 -16.15 -14.75 L-15.9 -12.55 -15.75 -11.0 -15.65 -9.5 -15.6 -7.9 -14.1 -9.65 -13.3 -10.35 -12.95 -10.25 -12.7 -9.55 -12.45 -9.4 Q-12.0 -9.5 -11.9 -9.95 L-11.65 -11.9 -11.6 -12.05 -10.2 -11.9 -10.2 -17.6 -12.4 -18.9 Q-12.6 -19.95 -11.9 -20.8 -11.35 -21.45 -10.6 -21.5 -11.7 -21.95 -12.55 -21.15 L-12.95 -20.8 -13.0 -20.7" fill="#4a3623" fill-rule="evenodd" stroke="none"/>
    <path d="M-14.5 -16.65 L-20.05 -15.8 Q-23.1 -15.7 -26.2 -15.75 L-27.0 -15.95 Q-27.65 -16.65 -27.0 -17.5 -25.8 -18.95 -23.95 -18.6 L-23.8 -18.8 Q-25.15 -19.75 -26.85 -19.55 -28.65 -19.65 -30.25 -18.8 -31.9 -17.9 -33.05 -16.4 L-30.4 -16.1 Q-29.5 -15.85 -29.0 -15.2 L-31.1 -13.75 -28.7 -13.95 -28.6 -13.05 -25.6 -13.0 -26.1 -14.45 -15.1 -14.95 -14.75 -15.9 -14.5 -16.65 M-28.35 -9.55 Q-28.75 -8.25 -29.9 -7.95 L-30.1 -7.65 Q-27.15 -5.3 -23.5 -6.35 -21.4 -7.05 -20.1 -8.95 -21.65 -8.65 -23.05 -9.6 L-28.35 -9.55 M-28.7 -13.95 L-29.0 -15.2 -28.7 -13.95 -27.0 -14.05 -28.7 -13.95 M-20.95 -8.5 Q-21.95 -7.7 -23.25 -7.25 -26.55 -6.15 -29.5 -7.7 -26.55 -6.15 -23.25 -7.25 -21.95 -7.7 -20.95 -8.5 M-31.65 -16.7 Q-31.65 -17.2 -29.95 -18.4 -28.2 -19.65 -24.9 -19.05 -28.2 -19.65 -29.95 -18.4 -31.65 -17.2 -31.65 -16.7" fill="#665848" fill-rule="evenodd" stroke="none"/>
    <path d="M-31.7 -25.8 L-28.25 -26.05 Q-25.4 -25.75 -22.7 -24.8 L-18.15 -23.05 Q-15.8 -22.15 -13.8 -20.5 M-13.9 -18.35 Q-15.9 -19.8 -19.3 -21.0 L-19.3 -21.75 -19.95 -21.05 Q-24.6 -24.0 -31.7 -25.8 L-32.7 -26.05 -28.25 -26.9 -23.2 -26.15 Q-20.4 -25.3 -18.0 -23.8 L-13.05 -20.85 -13.0 -20.7 M-14.5 -16.65 L-20.05 -15.8 Q-23.1 -15.7 -26.2 -15.75 L-27.0 -15.95 Q-27.65 -16.65 -27.0 -17.5 -25.8 -18.95 -23.95 -18.6 L-23.35 -18.45 -23.8 -18.8 Q-25.15 -19.75 -26.85 -19.55 -28.65 -19.65 -30.25 -18.8 -31.9 -17.9 -33.05 -16.4 L-30.4 -16.1 Q-29.5 -15.85 -29.0 -15.2 L-31.1 -13.75 -28.7 -13.95 -28.6 -13.05 -36.1 -13.3 -40.95 -11.0 -37.3 -8.85 -31.25 -9.45 -28.35 -9.55 Q-28.75 -8.25 -29.9 -7.95 L-30.4 -7.9 -30.1 -7.65 Q-27.15 -5.3 -23.5 -6.35 -21.4 -7.05 -20.1 -8.95 -21.65 -8.65 -23.05 -9.6 L-15.65 -9.5 M-12.95 -20.8 L-13.05 -20.85 M-15.9 -12.55 L-25.6 -13.0 -26.1 -14.45 -15.1 -14.95 M-28.7 -13.95 L-27.0 -14.05 M-29.0 -15.2 L-28.7 -13.95 M-25.6 -13.0 L-28.6 -13.05 M-28.35 -9.55 L-23.05 -9.6 M-15.75 -11.0 L-37.15 -11.15" fill="none" stroke="#000000" stroke-linecap="round" stroke-linejoin="round" stroke-width="0.05"/>
    <path d="M-13.0 -20.7 L-13.65 -19.15 -13.9 -18.35 -14.5 -16.65 -14.75 -15.9 -15.1 -14.95 Q-15.1 -13.85 -14.25 -13.3 L-14.2 -13.2 -14.25 -13.3 Q-14.6 -15.0 -13.35 -16.25 -12.4 -14.15 -13.35 -11.9 -15.7 -12.15 -16.15 -14.75 L-15.9 -12.55 -15.75 -11.0 -15.65 -9.5 -15.6 -7.9 -14.1 -9.65 -13.3 -10.35 -12.95 -10.25 -12.7 -9.55 -12.45 -9.4 Q-12.0 -9.5 -11.9 -9.95 L-11.65 -11.9 -11.6 -12.05 -10.2 -11.9 M-10.2 -17.6 L-12.4 -18.9 Q-12.6 -19.95 -11.9 -20.8 -11.35 -21.45 -10.6 -21.5 -11.7 -21.95 -12.55 -21.15 L-12.95 -20.8 -13.0 -20.7" fill="none" stroke="#000000" stroke-linecap="round" stroke-linejoin="round" stroke-width="0.05"/>
    <path d="M-29.5 -7.7 Q-26.55 -6.15 -23.25 -7.25 -21.95 -7.7 -20.95 -8.5 M-13.7 -20.8 Q-19.9 -25.35 -27.5 -26.35 L-30.7 -26.15 M-24.9 -19.05 Q-28.2 -19.65 -29.95 -18.4 -31.65 -17.2 -31.65 -16.7 M-16.05 -12.3 L-35.45 -12.95 -39.8 -10.75" fill="none" stroke="#cccccc" stroke-linecap="round" stroke-linejoin="round" stroke-width="0.05"/>
    <path d="M9.55 -26.7 L9.75 -21.65 10.8 -21.1 Q11.4 -20.55 11.4 -19.8 12.3 -17.35 11.75 -14.4 L10.05 -13.6 9.4 -13.0 Q10.65 -8.95 10.2 -4.65 L6.95 -1.15 1.85 -0.1 Q0.6 0.0 -0.1 -0.95 -1.1 0.2 -2.55 -0.05 L-4.4 -0.45 Q-7.65 -1.45 -10.1 -3.7 L-10.5 -12.4 -12.45 -12.65 -12.85 -15.45 -12.8 -18.35 -11.9 -18.55 -11.6 -26.3 7.35 -26.9 9.55 -26.7 M6.65 -20.55 L9.75 -21.65 6.65 -20.55 2.55 -18.8 1.9 -17.6 2.5 -17.3 7.15 -17.5 6.65 -20.55 M10.35 -19.95 L11.4 -19.8 10.35 -19.95 M8.6 -17.6 L7.15 -17.5 8.6 -17.6 M-1.65 -17.35 L-1.95 -9.8 -0.85 -9.65 Q0.8 -9.55 2.05 -10.7 L1.9 -17.6 2.05 -10.7 Q0.8 -9.55 -0.85 -9.65 L-1.95 -9.8 -1.65 -17.35 Q-2.25 -18.25 -3.2 -18.65 L-3.6 -18.8 -8.2 -20.55 -8.2 -16.75 -2.25 -17.3 -1.65 -17.35 M6.15 -5.8 Q4.95 -7.55 2.75 -7.85 L-3.4 -7.55 -4.1 -7.4 -5.3 -7.1 -6.1 -5.35 -5.3 -7.1 -4.1 -7.4 -3.4 -7.55 2.75 -7.85 Q4.95 -7.55 6.15 -5.8 M1.1 -3.25 L0.05 -3.05 -1.75 -2.75 0.05 -3.05 1.1 -3.25 M7.45 -8.35 L8.5 -5.8 7.45 -8.35 6.55 -9.1 7.45 -8.35 Q7.3 -10.75 8.75 -12.4 L9.4 -13.0 8.75 -12.4 Q7.3 -10.75 7.45 -8.35 M9.95 -16.65 L10.05 -13.6 9.95 -16.65 M4.5 -15.45 L2.5 -17.3 4.5 -15.45 M7.35 -26.9 L7.4 -23.25 7.35 -26.9 M-4.5 -15.25 L-2.25 -17.3 -4.5 -15.25 M1.5 -6.05 L-2.1 -5.8 1.5 -6.05 M5.1 -24.4 L-5.05 -23.5 5.1 -24.4 M-9.5 -24.9 L-9.3 -22.75 -9.5 -24.9 M-10.1 -13.6 L-10.5 -12.4 -10.1 -13.6 -10.55 -16.2 Q-10.7 -17.15 -10.1 -16.65 -10.7 -17.15 -10.55 -16.2 L-10.1 -13.6 Q-7.7 -13.1 -7.2 -10.7 -6.95 -9.2 -7.3 -7.75 L-5.7 -8.9 -7.3 -7.75 Q-6.95 -9.2 -7.2 -10.7 -7.7 -13.1 -10.1 -13.6 M-8.45 -5.35 L-7.3 -7.75 -8.45 -5.35 M-0.6 -2.3 L-0.1 -0.95 -0.6 -2.3 M-10.9 -19.25 L-10.55 -20.55 -8.2 -20.55 -10.55 -20.55 -10.9 -19.25 M-0.25 -19.95 L-0.15 -17.85 -0.25 -19.95 M-8.2 -16.75 L-9.35 -16.65 -8.2 -16.75 M2.4 -22.55 L-0.1 -22.5 -2.05 -22.05 -0.1 -22.5 2.4 -22.55" fill="#927a54" fill-rule="evenodd" stroke="none"/>
    <path d="M6.65 -20.55 L7.15 -17.5 2.5 -17.3 1.9 -17.6 2.55 -18.8 6.65 -20.55 M-1.65 -17.35 L-2.25 -17.3 -8.2 -16.75 -8.2 -20.55 -3.6 -18.8 -3.2 -18.65 Q-2.25 -18.25 -1.65 -17.35" fill="#ff3300" fill-rule="evenodd" stroke="none"/>
    <path d="M9.55 -26.7 L9.75 -21.65 10.8 -21.1 Q11.4 -20.55 11.4 -19.8 12.3 -17.35 11.75 -14.4 L10.05 -13.6 9.4 -13.0 Q10.65 -8.95 10.2 -4.65 L6.95 -1.15 1.85 -0.1 Q0.6 0.0 -0.1 -0.95 -1.1 0.2 -2.55 -0.05 L-4.4 -0.45 Q-7.65 -1.45 -10.1 -3.7 L-10.5 -12.4 -12.45 -12.65 -12.85 -15.45 -12.8 -18.35 -11.9 -18.55 -11.6 -26.3 7.35 -26.9 9.55 -26.7 M11.4 -19.8 L10.35 -19.95 M9.75 -21.65 L6.65 -20.55 7.15 -17.5 8.6 -17.6 M6.65 -20.55 L2.55 -18.8 1.9 -17.6 2.5 -17.3 7.15 -17.5 M2.5 -17.3 L4.5 -15.45 M6.55 -9.1 L7.45 -8.35 Q7.3 -10.75 8.75 -12.4 L9.4 -13.0 M10.05 -13.6 L9.95 -16.65 M8.5 -5.8 L7.45 -8.35 M-1.75 -2.75 L0.05 -3.05 1.1 -3.25 M-6.1 -5.35 L-5.3 -7.1 -4.1 -7.4 -3.4 -7.55 2.75 -7.85 Q4.95 -7.55 6.15 -5.8 M1.9 -17.6 L2.05 -10.7 Q0.8 -9.55 -0.85 -9.65 L-1.95 -9.8 -1.65 -17.35 -2.25 -17.3 -4.5 -15.25 M7.4 -23.25 L7.35 -26.9 M-1.65 -17.35 Q-2.25 -18.25 -3.2 -18.65 L-3.6 -18.8 -8.2 -20.55 -8.2 -16.75 -2.25 -17.3 M-2.05 -22.05 L-0.1 -22.5 2.4 -22.55 M-9.35 -16.65 L-8.2 -16.75 M-0.15 -17.85 L-0.25 -19.95 M-8.2 -20.55 L-10.55 -20.55 -10.9 -19.25 M-10.1 -16.65 Q-10.7 -17.15 -10.55 -16.2 L-10.1 -13.6 Q-7.7 -13.1 -7.2 -10.7 -6.95 -9.2 -7.3 -7.75 L-5.7 -8.9 M-0.1 -0.95 L-0.6 -2.3 M-7.3 -7.75 L-8.45 -5.35 M-10.5 -12.4 L-10.1 -13.6 M-9.3 -22.75 L-9.5 -24.9 M-5.05 -23.5 L5.1 -24.4 M-2.1 -5.8 L1.5 -6.05" fill="none" stroke="#000000" stroke-linecap="round" stroke-linejoin="round" stroke-width="0.05"/>
  </g>
</svg>
