<?xml version="1.0" encoding="UTF-8" standalone="no"?>
<svg xmlns:xlink="http://www.w3.org/1999/xlink" height="28.35px" width="74.7px" xmlns="http://www.w3.org/2000/svg">
  <g transform="matrix(1.0, 0.0, 0.0, 1.0, 0.0, 0.0)">
    <path d="M32.4 -25.15 Q35.0 -24.9 37.15 -23.3 L36.9 -23.15 35.95 -23.25 28.65 -23.7 Q26.15 -23.55 23.95 -22.25 L23.2 -22.2 22.05 -22.3 Q21.0 -22.25 20.3 -23.0 20.05 -23.3 19.45 -23.3 L17.95 -22.95 16.85 -22.7 9.1 -22.5 6.45 -22.7 Q10.55 -24.65 15.2 -24.5 L18.05 -24.6 20.85 -24.45 21.65 -24.05 Q22.1 -23.65 22.6 -23.6 23.0 -23.5 23.3 -23.9 L23.9 -24.5 24.9 -25.05 29.85 -25.35 32.4 -25.15 M12.65 -16.15 Q9.9 -17.35 7.75 -19.35 7.45 -19.65 7.6 -20.2 L8.0 -21.0 15.15 -17.1 Q15.95 -16.65 16.8 -16.5 L17.85 -16.3 19.9 -15.6 20.9 -15.0 Q21.8 -14.25 22.9 -13.95 L23.35 -13.45 23.7 -13.15 Q25.05 -14.5 26.8 -13.45 L28.9 -12.15 33.1 -9.3 Q34.95 -7.95 35.25 -5.85 L34.65 -6.2 33.8 -7.0 31.7 -8.5 28.6 -10.0 26.05 -10.9 Q25.05 -11.15 24.55 -12.0 24.3 -12.45 23.7 -12.5 L22.8 -12.35 Q21.9 -11.9 21.25 -12.9 20.7 -13.7 19.75 -13.95 19.25 -14.1 18.75 -14.4 L17.75 -14.9 16.65 -15.1 Q15.05 -15.2 13.55 -15.8 L12.65 -16.15 M9.75 -15.0 L11.8 -13.2 12.75 -12.3 13.75 -11.45 16.9 -8.75 17.75 -7.95 18.6 -7.3 19.7 -7.1 20.5 -7.0 21.0 -6.3 Q21.25 -5.1 20.85 -4.0 19.6 -0.2 15.95 1.2 16.55 0.1 17.6 -0.9 19.2 -2.35 18.85 -4.35 L18.25 -4.8 17.65 -5.15 17.15 -6.0 16.6 -6.5 15.7 -6.8 Q14.0 -7.2 12.75 -8.35 L11.75 -9.2 Q10.75 -10.0 10.75 -11.3 L10.6 -12.25 Q9.95 -14.1 8.3 -15.25 L8.05 -15.45 8.8 -15.5 Q9.35 -15.4 9.75 -15.0" fill="#251e16" fill-rule="evenodd" stroke="none"/>
    <path d="M32.4 -25.15 Q35.0 -24.9 37.15 -23.3 L36.9 -23.15 35.95 -23.25 28.65 -23.7 Q26.15 -23.55 23.95 -22.25 L23.2 -22.2 22.05 -22.3 Q21.0 -22.25 20.3 -23.0 20.05 -23.3 19.45 -23.3 L17.95 -22.95 16.85 -22.7 9.1 -22.5 6.45 -22.7 Q10.55 -24.65 15.2 -24.5 L18.05 -24.6 20.85 -24.45 21.65 -24.05 Q22.1 -23.65 22.6 -23.6 23.0 -23.5 23.3 -23.9 L23.9 -24.5 24.9 -25.05 29.85 -25.35 32.4 -25.15" fill="none" stroke="#000000" stroke-linecap="round" stroke-linejoin="round" stroke-width="0.05"/>
    <path d="M12.65 -16.15 Q9.9 -17.35 7.75 -19.35 7.45 -19.65 7.6 -20.2 L8.0 -21.0 15.15 -17.1 Q15.95 -16.65 16.8 -16.5 L17.85 -16.3 19.9 -15.6 20.9 -15.0 Q21.8 -14.25 22.9 -13.95 L23.35 -13.45 23.7 -13.15 Q25.05 -14.5 26.8 -13.45 L28.9 -12.15 33.1 -9.3 Q34.95 -7.95 35.25 -5.85 L34.65 -6.2 33.8 -7.0 31.7 -8.5 28.6 -10.0 26.05 -10.9 Q25.05 -11.15 24.55 -12.0 24.3 -12.45 23.7 -12.5 L22.8 -12.35 Q21.9 -11.9 21.25 -12.9 20.7 -13.7 19.75 -13.95 19.25 -14.1 18.75 -14.4 L17.75 -14.9 16.65 -15.1 Q15.05 -15.2 13.55 -15.8 L12.65 -16.15 M9.75 -15.0 L11.8 -13.2 12.75 -12.3 13.75 -11.45 16.9 -8.75 17.75 -7.95 18.6 -7.3 19.7 -7.1 20.5 -7.0 21.0 -6.3 Q21.25 -5.1 20.85 -4.0 19.6 -0.2 15.95 1.2 16.55 0.1 17.6 -0.9 19.2 -2.35 18.85 -4.35 L18.25 -4.8 17.65 -5.15 17.15 -6.0 16.6 -6.5 15.7 -6.8 Q14.0 -7.2 12.75 -8.35 L11.75 -9.2 Q10.75 -10.0 10.75 -11.3 L10.6 -12.25 Q9.95 -14.1 8.3 -15.25 L8.05 -15.45 8.8 -15.5 Q9.35 -15.4 9.75 -15.0 Z" fill="none" stroke="#000000" stroke-linecap="round" stroke-linejoin="round" stroke-width="0.05"/>
    <path d="M-32.8 -25.15 Q-35.4 -24.9 -37.55 -23.3 L-37.3 -23.15 -36.35 -23.25 -29.05 -23.7 Q-26.55 -23.55 -24.35 -22.25 L-23.6 -22.2 -22.45 -22.3 Q-21.4 -22.25 -20.7 -23.0 -20.45 -23.3 -19.85 -23.3 L-18.35 -22.95 -17.25 -22.7 -9.5 -22.5 -6.85 -22.7 Q-10.95 -24.65 -15.6 -24.5 L-18.45 -24.6 -21.25 -24.45 -22.05 -24.05 Q-22.5 -23.65 -23.0 -23.6 -23.4 -23.5 -23.7 -23.9 L-24.3 -24.5 -25.3 -25.05 -30.25 -25.35 -32.8 -25.15 M-10.15 -15.0 L-12.2 -13.2 -13.15 -12.3 -14.15 -11.45 -17.3 -8.75 -18.15 -7.95 -19.0 -7.3 -20.1 -7.1 -20.9 -7.0 -21.4 -6.3 Q-21.65 -5.1 -21.25 -4.0 -20.0 -0.2 -16.35 1.2 -16.95 0.1 -18.0 -0.9 -19.6 -2.35 -19.25 -4.35 L-18.65 -4.8 Q-18.25 -4.9 -18.05 -5.15 -17.75 -5.5 -17.55 -6.0 L-17.0 -6.5 -16.1 -6.8 Q-14.4 -7.2 -13.15 -8.35 L-12.15 -9.2 Q-11.15 -10.0 -11.15 -11.3 L-11.0 -12.25 Q-10.35 -14.1 -8.7 -15.25 L-8.45 -15.45 -9.2 -15.5 -10.15 -15.0 M-13.05 -16.15 Q-10.3 -17.35 -8.15 -19.35 -7.85 -19.65 -8.0 -20.2 L-8.4 -21.0 -15.55 -17.1 Q-16.35 -16.65 -17.2 -16.5 L-18.25 -16.3 -20.3 -15.6 -21.3 -15.0 Q-22.2 -14.25 -23.3 -13.95 L-23.75 -13.45 -24.1 -13.15 Q-25.45 -14.5 -27.2 -13.45 L-29.3 -12.15 -33.5 -9.3 Q-35.35 -7.95 -35.65 -5.85 -35.3 -5.95 -35.05 -6.2 L-34.2 -7.0 -32.1 -8.5 -29.0 -10.0 -26.45 -10.9 Q-25.45 -11.15 -24.95 -12.0 L-24.1 -12.5 -23.2 -12.35 Q-22.3 -11.9 -21.65 -12.9 -21.1 -13.7 -20.15 -13.95 L-19.15 -14.4 -18.15 -14.9 -17.05 -15.1 Q-15.45 -15.2 -13.95 -15.8 L-13.05 -16.15" fill="#251e16" fill-rule="evenodd" stroke="none"/>
    <path d="M-32.8 -25.15 Q-35.4 -24.9 -37.55 -23.3 L-37.3 -23.15 -36.35 -23.25 -29.05 -23.7 Q-26.55 -23.55 -24.35 -22.25 L-23.6 -22.2 -22.45 -22.3 Q-21.4 -22.25 -20.7 -23.0 -20.45 -23.3 -19.85 -23.3 L-18.35 -22.95 -17.25 -22.7 -9.5 -22.5 -6.85 -22.7 Q-10.95 -24.65 -15.6 -24.5 L-18.45 -24.6 -21.25 -24.45 -22.05 -24.05 Q-22.5 -23.65 -23.0 -23.6 -23.4 -23.5 -23.7 -23.9 L-24.3 -24.5 -25.3 -25.05 -30.25 -25.35 -32.8 -25.15" fill="none" stroke="#000000" stroke-linecap="round" stroke-linejoin="round" stroke-width="0.05"/>
    <path d="M-10.15 -15.0 L-12.2 -13.2 -13.15 -12.3 -14.15 -11.45 -17.3 -8.75 -18.15 -7.95 -19.0 -7.3 -20.1 -7.1 -20.9 -7.0 -21.4 -6.3 Q-21.65 -5.1 -21.25 -4.0 -20.0 -0.2 -16.35 1.2 -16.95 0.1 -18.0 -0.9 -19.6 -2.35 -19.25 -4.35 L-18.65 -4.8 Q-18.25 -4.9 -18.05 -5.15 -17.75 -5.5 -17.55 -6.0 L-17.0 -6.5 -16.1 -6.8 Q-14.4 -7.2 -13.15 -8.35 L-12.15 -9.2 Q-11.15 -10.0 -11.15 -11.3 L-11.0 -12.25 Q-10.35 -14.1 -8.7 -15.25 L-8.45 -15.45 -9.2 -15.5 -10.15 -15.0 M-13.05 -16.15 Q-10.3 -17.35 -8.15 -19.35 -7.85 -19.65 -8.0 -20.2 L-8.4 -21.0 -15.55 -17.1 Q-16.35 -16.65 -17.2 -16.5 L-18.25 -16.3 -20.3 -15.6 -21.3 -15.0 Q-22.2 -14.25 -23.3 -13.95 L-23.75 -13.45 -24.1 -13.15 Q-25.45 -14.5 -27.2 -13.45 L-29.3 -12.15 -33.5 -9.3 Q-35.35 -7.95 -35.65 -5.85 -35.3 -5.95 -35.05 -6.2 L-34.2 -7.0 -32.1 -8.5 -29.0 -10.0 -26.45 -10.9 Q-25.45 -11.15 -24.95 -12.0 L-24.1 -12.5 -23.2 -12.35 Q-22.3 -11.9 -21.65 -12.9 -21.1 -13.7 -20.15 -13.95 L-19.15 -14.4 -18.15 -14.9 -17.05 -15.1 Q-15.45 -15.2 -13.95 -15.8 L-13.05 -16.15 Z" fill="none" stroke="#000000" stroke-linecap="round" stroke-linejoin="round" stroke-width="0.05"/>
    <path d="M1.65 -22.25 L8.55 -20.55 9.35 -20.4 Q8.3 -15.7 3.8 -17.2 1.7 -18.05 1.5 -20.35 L1.55 -21.75 1.65 -22.25 M-9.3 -19.3 L-4.15 -21.4 -2.05 -22.2 Q-1.35 -21.6 -1.55 -20.75 -2.15 -18.6 -4.0 -17.1 L-6.9 -16.9 Q-8.8 -17.3 -9.3 -19.3" fill="#553885" fill-rule="evenodd" stroke="none"/>
    <path d="M7.8 -23.45 L9.5 -21.05 9.35 -20.4 9.5 -21.05 7.8 -23.45 M1.55 -21.75 L1.5 -20.35 Q1.7 -18.05 3.8 -17.2 8.3 -15.7 9.35 -20.4 L8.55 -20.55 1.65 -22.25 1.55 -22.3 1.55 -21.75 0.7 -13.25 0.5 -11.15 -2.2 -11.05 -2.2 -8.95 -0.25 -9.4 1.65 -9.3 1.65 -10.95 1.65 -9.3 -0.25 -9.4 -2.2 -8.95 -2.2 -11.05 0.5 -11.15 0.7 -13.25 1.55 -21.75 M7.45 -16.0 L7.85 -15.25 7.5 -14.0 6.1 -13.1 5.55 -13.05 5.55 -9.05 5.55 -13.05 6.1 -13.1 7.5 -14.0 7.85 -15.25 7.45 -16.0 M5.55 -9.05 L5.55 -5.9 5.55 -0.95 -2.3 -0.7 -6.6 -0.85 -6.85 -4.35 -7.25 -7.7 -7.3 -9.4 Q-12.05 -11.8 -11.95 -17.55 -11.9 -22.9 -7.5 -25.55 -6.0 -26.5 -4.1 -26.9 0.85 -27.35 5.7 -26.9 12.15 -22.4 10.55 -14.65 L9.9 -12.0 Q9.65 -11.2 8.9 -10.75 7.4 -9.8 5.55 -9.05 M1.65 -5.3 L1.65 -9.3 3.75 -8.25 3.8 -10.5 3.75 -8.25 1.65 -9.3 1.65 -5.3 M4.0 -5.05 L3.75 -8.25 5.0 -6.75 5.55 -5.9 5.0 -6.75 3.75 -8.25 4.0 -5.05 M-9.3 -19.3 Q-8.8 -17.3 -6.9 -16.9 L-4.0 -17.1 Q-2.15 -18.6 -1.55 -20.75 -1.35 -21.6 -2.05 -22.2 L-4.15 -21.4 -9.3 -19.3 -10.4 -19.75 -9.3 -22.0 -10.4 -19.75 -9.3 -19.3 M-6.1 -10.35 L-5.9 -6.0 -6.85 -4.35 -5.9 -6.0 -6.1 -10.35 M-5.65 -3.75 L-5.9 -6.0 -4.35 -7.75 -4.25 -4.85 -4.35 -7.75 -5.9 -6.0 -5.65 -3.75 M-2.1 -5.3 L-2.2 -8.95 -4.35 -7.75 -4.35 -10.85 -4.35 -7.75 -2.2 -8.95 -2.1 -5.3 M-0.25 -9.4 L-0.2 -6.35 -0.25 -9.4 M-0.7 -14.5 L-1.05 -13.6 -1.45 -12.8 -1.95 -12.1 -2.55 -11.5 -2.8 -11.05 -2.2 -11.05 -2.8 -11.05 -2.55 -11.5 -1.95 -12.1 -1.45 -12.8 -1.05 -13.6 -0.7 -14.5 M-8.95 -15.55 L-9.65 -14.0 -9.45 -13.5 Q-9.05 -13.2 -8.55 -13.05 L-7.4 -12.85 -7.3 -9.4 -7.4 -12.85 -8.55 -13.05 Q-9.05 -13.2 -9.45 -13.5 L-9.65 -14.0 -8.95 -15.55" fill="#161025" fill-rule="evenodd" stroke="none"/>
    <path d="M-9.3 -19.3 L-4.15 -21.4 -2.05 -22.2 Q-1.35 -21.6 -1.55 -20.75 -2.15 -18.6 -4.0 -17.1 L-6.9 -16.9 Q-8.8 -17.3 -9.3 -19.3" fill="none" stroke="#000000" stroke-linecap="round" stroke-linejoin="round" stroke-width="0.05"/>
    <path d="M1.65 -22.25 L8.55 -20.55 9.35 -20.4 Q8.3 -15.7 3.8 -17.2 1.7 -18.05 1.5 -20.35 L1.55 -21.75 1.55 -22.3 1.65 -22.25 M5.55 -9.05 L5.55 -5.9 5.55 -0.95 -2.3 -0.7 -6.6 -0.85 -6.85 -4.35 -7.25 -7.7 -7.3 -9.4 Q-12.05 -11.8 -11.95 -17.55 -11.9 -22.9 -7.5 -25.55 -6.0 -26.5 -4.1 -26.9 0.85 -27.35 5.7 -26.9 12.15 -22.4 10.55 -14.65 L9.9 -12.0 Q9.65 -11.2 8.9 -10.75 7.4 -9.8 5.55 -9.05" fill="none" stroke="#000000" stroke-linecap="round" stroke-linejoin="round" stroke-width="0.05"/>
    <path d="M9.35 -20.4 L9.5 -21.05 7.8 -23.45 M1.55 -21.75 L0.7 -13.25 0.5 -11.15 -2.2 -11.05 -2.2 -8.95 -0.25 -9.4 1.65 -9.3 1.65 -10.95 M5.55 -9.05 L5.55 -13.05 6.1 -13.1 7.5 -14.0 7.85 -15.25 7.45 -16.0 M1.65 -9.3 L3.75 -8.25 3.8 -10.5 M5.55 -5.9 L5.0 -6.75 3.75 -8.25 4.0 -5.05 M1.65 -9.3 L1.65 -5.3 M-9.3 -19.3 L-10.4 -19.75 -9.3 -22.0 M-7.3 -9.4 L-7.4 -12.85 -8.55 -13.05 Q-9.05 -13.2 -9.45 -13.5 L-9.65 -14.0 -8.95 -15.55 M-2.2 -11.05 L-2.8 -11.05 -2.55 -11.5 -1.95 -12.1 -1.45 -12.8 -1.05 -13.6 -0.7 -14.5 M-0.2 -6.35 L-0.25 -9.4 M-4.35 -10.85 L-4.35 -7.75 -2.2 -8.95 -2.1 -5.3 M-4.25 -4.85 L-4.35 -7.75 -5.9 -6.0 -5.65 -3.75 M-6.85 -4.35 L-5.9 -6.0 -6.1 -10.35" fill="none" stroke="#553885" stroke-linecap="round" stroke-linejoin="round" stroke-width="0.05"/>
  </g>
</svg>
