<?xml version="1.0" encoding="UTF-8" standalone="no"?>
<svg xmlns:xlink="http://www.w3.org/1999/xlink" height="16.7px" width="6.3px" xmlns="http://www.w3.org/2000/svg">
  <g transform="matrix(1.0, 0.0, 0.0, 1.0, 0.0, 0.0)">
    <path d="M0.85 -8.4 Q2.3 -7.85 2.5 -6.3 L2.5 -5.85 Q1.1 -4.9 0.75 -3.3 0.5 -2.1 0.8 -0.75 L1.5 4.0 Q1.7 5.85 2.3 7.45 L1.65 8.15 Q1.1 8.55 0.7 7.8 L0.3 7.25 0.1 7.15 -0.75 8.0 Q-2.5 8.75 -3.65 7.05 L-3.7 6.75 -3.55 6.05 Q-1.85 4.2 -2.25 1.75 L-2.4 -0.35 -2.5 -3.8 Q-2.6 -4.9 -3.35 -5.55 L-3.8 -6.05 -3.65 -6.35 -2.8 -7.05 -1.9 -6.75 0.1 -8.35 0.85 -8.4" fill="#a5a384" fill-rule="evenodd" stroke="none"/>
    <path d="M0.85 -8.4 Q2.3 -7.85 2.5 -6.3 L2.5 -5.85 Q1.1 -4.9 0.75 -3.3 0.5 -2.1 0.8 -0.75 L1.5 4.0 Q1.7 5.85 2.3 7.45 L1.65 8.15 Q1.1 8.55 0.7 7.8 L0.3 7.25 0.1 7.15 -0.75 8.0 Q-2.5 8.75 -3.65 7.05 L-3.7 6.75 -3.55 6.05 Q-1.85 4.2 -2.25 1.75 L-2.4 -0.35 -2.5 -3.8 Q-2.6 -4.9 -3.35 -5.55 L-3.8 -6.05 -3.65 -6.35 -2.8 -7.05 -1.9 -6.75 0.1 -8.35 0.85 -8.4 Z" fill="none" stroke="#000000" stroke-linecap="round" stroke-linejoin="round" stroke-width="0.05"/>
  </g>
</svg>
