<?xml version="1.0" encoding="UTF-8" standalone="no"?>
<svg xmlns:xlink="http://www.w3.org/1999/xlink" height="16.25px" width="16.25px" xmlns="http://www.w3.org/2000/svg">
  <g transform="matrix(1.0, 0.0, 0.0, 1.0, 0.0, 0.0)">
    <path d="M3.1 -4.8 L3.3 -4.15 Q3.7 -2.85 3.4 -1.45 3.7 -2.85 3.3 -4.15 L3.1 -4.8 M4.1 -5.85 L4.3 -2.45 Q4.4 0.0 3.1 2.05 L2.2 3.9 1.1 7.6 Q-1.2 8.9 -3.95 8.0 L-4.3 7.4 Q-5.35 5.5 -6.0 3.5 L-7.8 -2.25 Q-8.6 -4.85 -8.05 -7.5 L-4.65 -7.85 0.2 -7.6 Q2.5 -7.45 4.1 -5.85 M0.0 6.2 Q0.0 4.2 0.7 2.55 1.6 0.35 2.1 -2.05 2.6 -4.3 2.0 -6.45 2.6 -4.3 2.1 -2.05 1.6 0.35 0.7 2.55 0.0 4.2 0.0 6.2" fill="#70231c" fill-rule="evenodd" stroke="none"/>
    <path d="M2.2 3.9 L3.1 2.05 Q4.4 0.0 4.3 -2.45 L4.1 -5.85 8.0 -6.15 4.85 -3.55 7.2 -3.25 Q6.5 -2.05 5.2 -1.4 L4.9 -1.15 5.4 -0.9 5.65 -0.5 5.1 -0.3 5.15 0.1 5.3 0.4 5.45 0.75 5.2 1.15 4.95 1.4 4.4 1.4 4.4 1.6 4.25 1.7 3.85 1.9 4.0 2.65 3.2 2.9 3.15 3.0 2.85 3.45 2.8 3.75 2.2 3.9" fill="#5b1b17" fill-rule="evenodd" stroke="none"/>
    <path d="M3.4 -1.45 Q3.7 -2.85 3.3 -4.15 L3.1 -4.8 M2.2 3.9 L3.1 2.05 Q4.4 0.0 4.3 -2.45 L4.1 -5.85 8.0 -6.15 4.85 -3.55 7.2 -3.25 Q6.5 -2.05 5.2 -1.4 L4.9 -1.15 5.4 -0.9 5.65 -0.5 5.1 -0.3 5.15 0.1 5.3 0.4 5.45 0.75 5.2 1.15 4.95 1.4 4.4 1.4 4.4 1.6 4.25 1.7 3.85 1.9 4.0 2.65 3.2 2.9 3.15 3.0 2.85 3.45 2.8 3.75 2.2 3.9 1.1 7.6 M-8.05 -7.5 Q-8.6 -4.85 -7.8 -2.25 L-6.0 3.5 Q-5.35 5.5 -4.3 7.4 L-3.95 8.0 M2.0 -6.45 Q2.6 -4.3 2.1 -2.05 1.6 0.35 0.7 2.55 0.0 4.2 0.0 6.2" fill="none" stroke="#000000" stroke-linecap="round" stroke-linejoin="round" stroke-width="0.05"/>
  </g>
</svg>
