<?xml version="1.0" encoding="UTF-8" standalone="no"?>
<svg xmlns:xlink="http://www.w3.org/1999/xlink" height="16.25px" width="12.4px" xmlns="http://www.w3.org/2000/svg">
  <g transform="matrix(1.0, 0.0, 0.0, 1.0, 0.0, 0.0)">
    <path d="M3.4 -1.45 L3.4 -2.8 3.1 -4.8 3.4 -2.8 3.4 -1.45 M4.1 -5.85 L4.3 -2.45 Q4.45 -0.75 3.6 1.0 L2.3 3.95 1.1 7.6 -0.1 7.95 -2.55 8.4 -3.95 8.0 -5.3 5.4 -7.65 -1.85 Q-8.05 -3.2 -8.1 -4.9 L-8.05 -7.5 -4.65 -7.85 -2.2 -7.75 1.35 -7.4 Q3.05 -7.1 4.1 -5.85 M2.0 -6.45 Q2.5 -4.9 2.2 -3.15 L1.4 0.3 0.75 2.55 0.3 4.3 0.0 6.2 0.3 4.3 0.75 2.55 1.4 0.3 2.2 -3.15 Q2.5 -4.9 2.0 -6.45 M-1.65 1.15 Q-1.2 1.2 -1.25 0.8 -1.35 0.0 -1.95 -0.7 L-4.8 -0.75 -5.3 -2.95 -6.3 -2.95 -7.65 -1.85 -6.3 -2.95 -5.3 -2.95 -3.55 -3.05 -3.5 -3.2 Q-3.4 -3.55 -3.65 -3.9 -3.9 -4.25 -3.45 -4.55 L-2.85 -4.4 Q-1.45 -4.3 -0.5 -5.1 L-0.5 -5.3 Q0.4 -4.9 1.7 -4.8 0.4 -4.9 -0.5 -5.3 L-0.5 -5.1 Q-1.45 -4.3 -2.85 -4.4 L-3.45 -4.55 Q-3.9 -4.25 -3.65 -3.9 -3.4 -3.55 -3.5 -3.2 L-3.55 -3.05 -5.3 -2.95 -4.8 -0.75 -1.95 -0.7 -0.4 -0.75 0.05 -0.3 -0.4 -0.75 -1.95 -0.7 Q-1.35 0.0 -1.25 0.8 -1.2 1.2 -1.65 1.15 M-2.7 2.7 Q-3.75 2.9 -3.3 3.85 -3.15 4.15 -3.3 4.35 -3.6 5.0 -4.45 5.0 -5.0 5.0 -5.3 5.4 -5.0 5.0 -4.45 5.0 -3.6 5.0 -3.3 4.35 -3.15 4.15 -3.3 3.85 -3.75 2.9 -2.7 2.7" fill="#301f14" fill-rule="evenodd" stroke="none"/>
    <path d="M3.1 -4.8 L3.4 -2.8 3.4 -1.45 M4.1 -5.85 L4.3 -2.45 Q4.45 -0.75 3.6 1.0 L2.3 3.95 1.1 7.6 M-3.95 8.0 L-5.3 5.4 -7.65 -1.85 Q-8.05 -3.2 -8.1 -4.9 L-8.05 -7.5 M0.0 6.2 L0.3 4.3 0.75 2.55 1.4 0.3 2.2 -3.15 Q2.5 -4.9 2.0 -6.45" fill="none" stroke="#000000" stroke-linecap="round" stroke-linejoin="round" stroke-width="0.05"/>
    <path d="M-7.65 -1.85 L-6.3 -2.95 -5.3 -2.95 -3.55 -3.05 -3.5 -3.2 Q-3.4 -3.55 -3.65 -3.9 -3.9 -4.25 -3.45 -4.55 L-2.85 -4.4 Q-1.45 -4.3 -0.5 -5.1 L-0.5 -5.3 Q0.4 -4.9 1.7 -4.8 M-5.3 -2.95 L-4.8 -0.75 -1.95 -0.7 -0.4 -0.75 0.05 -0.3 M-5.3 5.4 Q-5.0 5.0 -4.45 5.0 -3.6 5.0 -3.3 4.35 -3.15 4.15 -3.3 3.85 -3.75 2.9 -2.7 2.7 M-1.95 -0.7 Q-1.35 0.0 -1.25 0.8 -1.2 1.2 -1.65 1.15" fill="none" stroke="#ff6600" stroke-linecap="round" stroke-linejoin="round" stroke-width="0.05"/>
  </g>
</svg>
