<?xml version="1.0" encoding="UTF-8" standalone="no"?>
<svg xmlns:xlink="http://www.w3.org/1999/xlink" height="12.15px" width="5.1px" xmlns="http://www.w3.org/2000/svg">
  <g transform="matrix(1.0, 0.0, 0.0, 1.0, 0.0, 0.0)">
    <path d="M0.05 1.75 Q0.65 -0.25 0.4 -2.3 0.25 -3.7 0.9 -5.15 L1.95 -5.6 2.4 -5.25 3.1 -4.45 3.25 -3.95 3.35 -3.3 3.05 -2.7 Q1.3 0.0 0.9 3.15 L0.5 5.4 0.35 6.1 -0.55 6.55 -0.65 6.45 Q-0.6 4.8 -0.15 3.15 L-0.1 2.8 0.05 1.75" fill="#a5a384" fill-rule="evenodd" stroke="none"/>
    <path d="M0.05 1.75 L-0.1 2.8 -0.15 2.8 -0.95 0.35 Q-2.05 -2.05 -1.6 -4.5 L-1.2 -4.7 -1.0 -4.1 Q-0.3 -1.25 0.05 1.75 M0.5 5.4 L0.9 3.15 1.65 4.8 1.7 5.1 1.25 5.6 1.1 5.65 0.5 5.4" fill="#848062" fill-rule="evenodd" stroke="none"/>
    <path d="M0.9 3.15 Q1.3 0.0 3.05 -2.7 L3.35 -3.3 3.25 -3.95 3.1 -4.45 2.4 -5.25 1.95 -5.6 0.9 -5.15 Q0.25 -3.7 0.4 -2.3 0.65 -0.25 0.05 1.75 L-0.1 2.8 -0.15 3.15 Q-0.6 4.8 -0.65 6.45 L-0.55 6.55 0.35 6.1 0.5 5.4 0.9 3.15 1.65 4.8 1.7 5.1 1.25 5.6 1.1 5.65 0.5 5.4 M0.05 1.75 Q-0.3 -1.25 -1.0 -4.1 L-1.2 -4.7 -1.6 -4.5 Q-2.05 -2.05 -0.95 0.35 L-0.15 2.8 -0.15 3.15" fill="none" stroke="#000000" stroke-linecap="round" stroke-linejoin="round" stroke-width="0.05"/>
  </g>
</svg>
