<?xml version="1.0" encoding="UTF-8" standalone="no"?>
<svg xmlns:xlink="http://www.w3.org/1999/xlink" height="11.85px" width="6.25px" xmlns="http://www.w3.org/2000/svg">
  <g transform="matrix(1.0, 0.0, 0.0, 1.0, 0.0, 0.0)">
    <path d="M1.7 -1.35 L0.5 -1.1 0.4 -1.0 0.65 -0.5 0.5 1.55 -0.7 2.25 0.5 1.55 0.65 -0.5 0.4 -1.0 0.5 -1.1 1.7 -1.35 M2.1 -5.3 L2.55 -4.4 3.15 -2.9 Q3.4 -2.0 2.0 5.65 L-1.1 5.75 -1.0 3.4 Q-0.9 1.85 -1.65 -0.45 L-3.05 -4.9 -3.05 -4.95 2.1 -5.3" fill="#301f14" fill-rule="evenodd" stroke="none"/>
    <path d="M2.0 5.65 Q3.4 -2.0 3.15 -2.9 L2.55 -4.4 2.1 -5.3 M-3.05 -4.95 L-3.05 -4.9 -1.65 -0.45 Q-0.9 1.85 -1.0 3.4 L-1.1 5.75" fill="none" stroke="#000000" stroke-linecap="round" stroke-linejoin="round" stroke-width="0.05"/>
    <path d="M-0.7 2.25 L0.5 1.55 0.65 -0.5 0.4 -1.0 0.5 -1.1 1.7 -1.35" fill="none" stroke="#ff6600" stroke-linecap="round" stroke-linejoin="round" stroke-width="0.05"/>
  </g>
</svg>
