<?xml version="1.0" encoding="UTF-8" standalone="no"?>
<svg xmlns:xlink="http://www.w3.org/1999/xlink" height="10.2px" width="13.35px" xmlns="http://www.w3.org/2000/svg">
  <g transform="matrix(1.0, 0.0, 0.0, 1.0, 0.0, 0.0)">
    <path d="M-4.75 1.15 L-3.4 0.2 -2.75 0.3 -1.55 0.8 -0.3 0.35 Q0.6 0.0 0.95 -1.0 L1.65 -2.45 0.95 -1.0 Q0.6 0.0 -0.3 0.35 L-1.55 0.8 -2.75 0.3 -3.4 0.2 -4.75 1.15 -5.6 0.8 -6.25 0.95 -4.45 -0.75 -3.1 -0.55 -1.3 -0.75 -0.6 -1.05 0.4 -2.0 0.85 -2.8 Q1.3 -3.65 1.4 -5.0 2.95 -5.55 4.65 -4.95 L5.05 -3.55 Q5.15 -3.15 5.7 -3.05 L6.25 -2.9 6.45 -2.45 6.65 -1.25 Q6.6 -0.45 6.3 -0.55 L6.25 -1.0 5.7 -1.45 5.1 -0.8 4.55 0.2 4.15 0.75 2.8 2.2 Q2.35 2.75 2.2 3.4 L0.8 3.8 Q0.1 4.1 -0.35 4.6 L-0.8 4.95 Q-1.2 4.65 -1.65 4.6 L-2.15 4.35 -3.15 4.95 Q-2.6 3.8 -1.85 3.0 L-1.7 2.95 Q-2.45 2.7 -3.2 2.95 L-3.35 3.05 -4.35 3.75 -4.85 3.75 -5.85 3.4 -5.95 3.45 -6.2 3.65 Q-6.25 3.75 -6.65 3.9 L-5.65 2.3 -4.75 1.15 M2.05 -0.45 Q1.55 0.9 0.3 2.05 L-1.1 2.2 -1.7 2.95 -1.1 2.2 0.3 2.05 Q1.55 0.9 2.05 -0.45" fill="#70231c" fill-rule="evenodd" stroke="none"/>
    <path d="M1.65 -2.45 L0.95 -1.0 Q0.6 0.0 -0.3 0.35 L-1.55 0.8 -2.75 0.3 -3.4 0.2 -4.75 1.15 -5.65 2.3 -6.65 3.9 Q-6.25 3.75 -6.2 3.65 L-5.95 3.45 -5.85 3.4 -4.85 3.75 -4.35 3.75 -3.35 3.05 -3.2 2.95 Q-2.45 2.7 -1.7 2.95 L-1.1 2.2 0.3 2.05 Q1.55 0.9 2.05 -0.45 M-4.75 1.15 L-5.6 0.8 -6.25 0.95 -4.45 -0.75 -3.1 -0.55 -1.3 -0.75 -0.6 -1.05 0.4 -2.0 0.85 -2.8 Q1.3 -3.65 1.4 -5.0 M4.65 -4.95 L5.05 -3.55 Q5.15 -3.15 5.7 -3.05 L6.25 -2.9 6.45 -2.45 6.65 -1.25 Q6.6 -0.45 6.3 -0.55 L6.25 -1.0 5.7 -1.45 5.1 -0.8 4.55 0.2 4.15 0.75 2.8 2.2 Q2.35 2.75 2.2 3.4 L0.8 3.8 Q0.1 4.1 -0.35 4.6 L-0.8 4.95 Q-1.2 4.65 -1.65 4.6 L-2.15 4.35 -3.15 4.95 Q-2.6 3.8 -1.85 3.0 L-1.7 2.95 M-6.65 3.9 L-6.7 3.9 -6.65 3.9 Z" fill="none" stroke="#000000" stroke-linecap="round" stroke-linejoin="round" stroke-width="0.05"/>
  </g>
</svg>
