<?xml version="1.0" encoding="UTF-8" standalone="no"?>
<svg xmlns:xlink="http://www.w3.org/1999/xlink" height="23.7px" width="23.15px" xmlns="http://www.w3.org/2000/svg">
  <g transform="matrix(1.0, 0.0, 0.0, 1.0, 0.0, 0.0)">
    <path d="M0.7 -7.15 L1.2 -6.3 Q0.0 -5.65 -1.0 -6.75 L-0.4 -7.3 0.7 -7.15 M-1.8 -7.9 L-1.3 -7.35 Q-3.0 -5.45 -5.4 -6.3 -6.3 -6.55 -6.6 -7.5 L-5.5 -8.25 Q-3.65 -9.1 -1.8 -7.9" fill="#3d2312" fill-rule="evenodd" stroke="none"/>
    <path d="M0.7 -7.15 L-0.4 -7.3 -1.0 -6.75 Q0.0 -5.65 1.2 -6.3 L0.7 -7.15 M-0.5 -10.6 L2.05 -9.15 4.8 -7.05 Q4.7 -6.7 4.75 -6.35 4.75 -6.0 4.25 -5.55 L3.3 -5.45 Q3.4 -4.6 4.5 -4.0 L5.35 -2.2 5.2 -1.95 Q4.7 -1.75 4.8 -1.25 4.7 -1.75 5.2 -1.95 L5.35 -2.2 4.5 -4.0 Q3.4 -4.6 3.3 -5.45 L4.25 -5.55 Q4.75 -6.0 4.75 -6.35 4.7 -6.7 4.8 -7.05 L6.45 -5.4 8.85 -2.8 11.25 0.15 11.3 0.15 10.85 1.15 8.35 5.65 6.65 8.35 5.6 9.7 3.1 11.7 2.15 11.75 1.2 10.7 -0.15 8.7 -1.5 6.1 -2.55 4.1 Q-3.35 2.6 -4.6 1.3 -5.8 0.0 -7.35 -0.7 -9.7 -1.45 -11.85 -3.0 L-11.8 -4.45 Q-11.75 -6.4 -10.75 -8.0 -9.75 -9.65 -8.4 -10.85 -7.35 -11.7 -5.85 -11.85 L-4.1 -11.45 Q-2.25 -11.35 -0.5 -10.6 L-0.8 -9.9 -1.35 -9.75 -1.7 -8.95 -1.4 -8.3 Q-1.2 -7.9 -1.8 -7.9 -3.65 -9.1 -5.5 -8.25 L-6.6 -7.5 Q-6.3 -6.55 -5.4 -6.3 -3.0 -5.45 -1.3 -7.35 L-1.8 -7.9 Q-1.2 -7.9 -1.4 -8.3 L-1.7 -8.95 -1.35 -9.75 -0.8 -9.9 -0.5 -10.6 M3.55 0.2 L2.6 -0.25 2.3 -0.15 Q1.95 0.0 1.9 -0.5 1.85 -1.85 1.15 -2.85 0.85 -3.3 0.8 -3.85 L0.75 -4.6 1.35 -5.1 1.45 -5.15 3.3 -5.45 1.45 -5.15 1.35 -5.1 0.75 -4.6 0.8 -3.85 Q0.85 -3.3 1.15 -2.85 1.85 -1.85 1.9 -0.5 1.95 0.0 2.3 -0.15 L2.6 -0.25 3.55 0.2 M-6.65 -3.85 L-7.4 -2.85 -7.45 -2.7 -7.25 -2.15 -6.85 -1.7 -7.1 -1.1 -7.35 -0.7 -7.1 -1.1 -6.85 -1.7 -7.25 -2.15 -7.45 -2.7 -7.4 -2.85 -6.65 -3.85 M2.2 2.9 L1.8 2.15 0.2 0.0 -1.75 -2.35 Q-3.0 -3.65 -4.85 -4.4 -3.0 -3.65 -1.75 -2.35 L0.2 0.0 1.8 2.15 2.2 2.9 M6.5 3.25 Q6.15 3.65 5.65 3.5 L5.2 3.55 4.35 4.6 3.9 5.7 2.1 5.55 0.95 5.05 0.6 5.25 -0.45 3.75 -0.3 2.5 0.15 2.25 -0.3 2.5 -0.45 3.75 0.6 5.25 0.95 5.05 2.1 5.55 3.9 5.7 4.35 4.6 5.2 3.55 5.65 3.5 Q6.15 3.65 6.5 3.25 M-0.8 6.85 L0.05 6.1 0.45 5.85 0.6 5.25 0.45 5.85 0.05 6.1 Q0.55 7.05 1.45 7.5 L2.5 7.2 3.45 7.5 Q4.4 7.3 5.3 7.85 L5.55 7.3 5.45 6.65 5.1 6.35 5.55 5.5 Q5.35 4.7 4.35 4.6 5.35 4.7 5.55 5.5 L5.1 6.35 5.45 6.65 5.55 7.3 5.3 7.85 Q4.4 7.3 3.45 7.5 L2.5 7.2 1.45 7.5 Q0.55 7.05 0.05 6.1 L-0.8 6.85 M-0.4 -4.55 L0.75 -4.6 -0.4 -4.55 M5.3 7.85 L5.0 8.25 5.3 7.85 M8.7 0.4 L7.4 0.25 8.7 0.4 9.0 0.0 10.15 0.2 10.45 -0.2 10.15 0.2 9.0 0.0 8.7 0.4 8.55 1.25 8.7 0.4" fill="#301f14" fill-rule="evenodd" stroke="none"/>
    <path d="M0.7 -7.15 L-0.4 -7.3 -1.0 -6.75 Q0.0 -5.65 1.2 -6.3 L0.7 -7.15 M4.8 -7.05 L2.05 -9.15 -0.5 -10.6 Q-2.25 -11.35 -4.1 -11.45 L-5.85 -11.85 Q-7.35 -11.7 -8.4 -10.85 -9.75 -9.65 -10.75 -8.0 -11.75 -6.4 -11.8 -4.45 L-11.85 -3.0 Q-9.7 -1.45 -7.35 -0.7 -5.8 0.0 -4.6 1.3 -3.35 2.6 -2.55 4.1 L-1.5 6.1 -0.15 8.7 1.2 10.7 2.15 11.75 3.1 11.7 5.6 9.7 6.65 8.35 8.35 5.65 10.85 1.15 11.3 0.15 11.25 0.15 8.85 -2.8 6.45 -5.4 4.8 -7.05 M-1.8 -7.9 L-1.3 -7.35 Q-3.0 -5.45 -5.4 -6.3 -6.3 -6.55 -6.6 -7.5 L-5.5 -8.25 Q-3.65 -9.1 -1.8 -7.9 M-4.85 -4.4 Q-3.0 -3.65 -1.75 -2.35 L0.2 0.0 1.8 2.15 2.2 2.9 M11.3 0.15 L11.3 0.1 11.25 0.15" fill="none" stroke="#000000" stroke-linecap="round" stroke-linejoin="round" stroke-width="0.05"/>
    <path d="M-0.5 -10.6 L-0.8 -9.9 -1.35 -9.75 -1.7 -8.95 -1.4 -8.3 Q-1.2 -7.9 -1.8 -7.9 M4.8 -7.05 Q4.7 -6.7 4.75 -6.35 4.75 -6.0 4.25 -5.55 L3.3 -5.45 Q3.4 -4.6 4.5 -4.0 L5.35 -2.2 5.2 -1.95 Q4.7 -1.75 4.8 -1.25 M3.3 -5.45 L1.45 -5.15 1.35 -5.1 0.75 -4.6 0.8 -3.85 Q0.85 -3.3 1.15 -2.85 1.85 -1.85 1.9 -0.5 1.95 0.0 2.3 -0.15 L2.6 -0.25 3.55 0.2 M-7.35 -0.7 L-7.1 -1.1 -6.85 -1.7 -7.25 -2.15 -7.45 -2.7 -7.4 -2.85 -6.65 -3.85 M0.15 2.25 L-0.3 2.5 -0.45 3.75 0.6 5.25 0.95 5.05 2.1 5.55 3.9 5.7 4.35 4.6 5.2 3.55 5.65 3.5 Q6.15 3.65 6.5 3.25 M10.45 -0.2 L10.15 0.2 9.0 0.0 8.7 0.4 8.55 1.25 M7.4 0.25 L8.7 0.4 M0.6 5.25 L0.45 5.85 0.05 6.1 Q0.55 7.05 1.45 7.5 L2.5 7.2 3.45 7.5 Q4.4 7.3 5.3 7.85 L5.55 7.3 5.45 6.65 5.1 6.35 5.55 5.5 Q5.35 4.7 4.35 4.6 M5.0 8.25 L5.3 7.85 M0.75 -4.6 L-0.4 -4.55 M0.05 6.1 L-0.8 6.85" fill="none" stroke="#ff6600" stroke-linecap="round" stroke-linejoin="round" stroke-width="0.05"/>
  </g>
</svg>
