<?xml version="1.0" encoding="UTF-8" standalone="no"?>
<svg xmlns:xlink="http://www.w3.org/1999/xlink" height="4.35px" width="11.35px" xmlns="http://www.w3.org/2000/svg">
  <g transform="matrix(1.0, 0.0, 0.0, 1.0, 0.0, 0.0)">
    <path d="M-4.25 -0.15 L-5.15 -0.5 -5.0 -1.15 Q-4.1 -2.1 -3.0 -1.75 2.45 -1.75 6.2 1.7 L5.3 1.5 4.9 1.35 Q0.6 -0.7 -4.25 -0.15 0.6 -0.7 4.9 1.35 L5.3 1.5 4.85 2.5 3.45 2.05 Q-0.9 1.35 -4.25 -0.15" fill="#a5a384" fill-rule="evenodd" stroke="none"/>
    <path d="M5.3 1.5 L6.2 1.7 Q2.45 -1.75 -3.0 -1.75 -4.1 -2.1 -5.0 -1.15 L-5.15 -0.5 -4.25 -0.15 Q0.6 -0.7 4.9 1.35 L5.3 1.5 4.85 2.5 3.45 2.05 Q-0.9 1.35 -4.25 -0.15" fill="none" stroke="#000000" stroke-linecap="round" stroke-linejoin="round" stroke-width="0.05"/>
  </g>
</svg>
