<?xml version="1.0" encoding="UTF-8" standalone="no"?>
<svg xmlns:xlink="http://www.w3.org/1999/xlink" height="13.65px" width="8.25px" xmlns="http://www.w3.org/2000/svg">
  <g transform="matrix(1.0, 0.0, 0.0, 1.0, 0.0, 0.0)">
    <path d="M2.75 -5.15 Q0.6 -3.0 2.35 -0.6 4.0 1.7 4.5 4.25 L3.75 4.7 Q2.25 4.05 1.3 5.3 L0.8 5.95 0.0 6.1 -0.85 5.2 Q-0.8 1.25 -2.4 -2.5 L-3.65 -3.45 -3.75 -4.15 -3.35 -4.65 -1.75 -4.95 -1.85 -6.7 Q-0.6 -7.7 1.0 -7.55 2.2 -6.95 2.6 -5.65 L2.75 -5.15" fill="#a5a384" fill-rule="evenodd" stroke="none"/>
    <path d="M2.75 -5.15 Q0.6 -3.0 2.35 -0.6 4.0 1.7 4.5 4.25 L3.75 4.7 Q2.25 4.05 1.3 5.3 L0.8 5.95 0.0 6.1 -0.85 5.2 Q-0.8 1.25 -2.4 -2.5 L-3.65 -3.45 -3.75 -4.15 -3.35 -4.65 -1.75 -4.95 -1.85 -6.7 Q-0.6 -7.7 1.0 -7.55 2.2 -6.95 2.6 -5.65 L2.75 -5.15 Z" fill="none" stroke="#000000" stroke-linecap="round" stroke-linejoin="round" stroke-width="0.05"/>
  </g>
</svg>
