<?xml version="1.0" encoding="UTF-8" standalone="no"?>
<svg xmlns:xlink="http://www.w3.org/1999/xlink" height="13.35px" width="10.55px" xmlns="http://www.w3.org/2000/svg">
  <g transform="matrix(1.0, 0.0, 0.0, 1.0, 0.0, 0.0)">
    <path d="M-5.25 -4.7 L-2.3 -6.05 1.55 -6.7 4.65 -6.65 Q5.1 -5.25 5.15 -3.55 L5.25 -1.45 5.3 1.0 5.1 3.7 5.05 3.95 4.8 5.0 Q3.4 6.05 1.75 6.2 L-0.55 6.65 -1.35 5.85 Q-2.7 4.45 -3.35 2.8 L-4.5 -0.35 -5.25 -4.7 M3.15 -4.55 L2.9 -0.85 3.25 2.9 2.9 -0.85 3.15 -4.55 M1.2 1.75 L1.05 2.5 1.2 1.75 0.15 1.2 -2.35 1.7 -3.35 -0.6 Q-2.6 -0.45 -1.95 -0.9 L-1.95 -2.4 Q-1.0 -3.0 0.1 -2.85 L0.65 -3.45 0.1 -2.85 Q-1.0 -3.0 -1.95 -2.4 L-1.95 -0.9 Q-2.6 -0.45 -3.35 -0.6 L-2.35 1.7 0.15 1.2 1.2 1.75 1.35 0.85 1.25 0.1 1.5 -0.35 2.2 -1.0 1.5 -0.35 1.25 0.1 1.35 0.85 1.2 1.75 M3.15 4.15 L4.05 3.75 5.05 3.95 4.05 3.75 3.15 4.15 M-4.5 -0.35 L-3.35 -0.6 -4.5 -0.35 M2.9 -0.85 L3.75 -0.35 4.3 -0.8 4.45 -1.15 5.25 -1.45 4.45 -1.15 4.3 -0.8 3.75 -0.35 2.9 -0.85" fill="#301f14" fill-rule="evenodd" stroke="none"/>
    <path d="M4.65 -6.65 Q5.1 -5.25 5.15 -3.55 L5.25 -1.45 5.3 1.0 5.1 3.7 M5.05 3.95 L4.8 5.0 M-0.55 6.65 L-1.35 5.85 Q-2.7 4.45 -3.35 2.8 L-4.5 -0.35 -5.25 -4.7 M3.25 2.9 L2.9 -0.85 3.15 -4.55" fill="none" stroke="#000000" stroke-linecap="round" stroke-linejoin="round" stroke-width="0.05"/>
    <path d="M5.1 3.7 L5.05 3.95 4.05 3.75 3.15 4.15 M0.65 -3.45 L0.1 -2.85 Q-1.0 -3.0 -1.95 -2.4 L-1.95 -0.9 Q-2.6 -0.45 -3.35 -0.6 L-2.35 1.7 0.15 1.2 1.2 1.75 1.35 0.85 1.25 0.1 1.5 -0.35 2.2 -1.0 M5.25 -1.45 L4.45 -1.15 4.3 -0.8 3.75 -0.35 2.9 -0.85 M-3.35 -0.6 L-4.5 -0.35 M1.05 2.5 L1.2 1.75" fill="none" stroke="#ff6600" stroke-linecap="round" stroke-linejoin="round" stroke-width="0.05"/>
  </g>
</svg>
