<?xml version="1.0" encoding="UTF-8" standalone="no"?>
<svg xmlns:xlink="http://www.w3.org/1999/xlink" height="16.95px" width="14.75px" xmlns="http://www.w3.org/2000/svg">
  <g transform="matrix(1.0, 0.0, 0.0, 1.0, 0.0, 0.0)">
    <path d="M1.45 -7.35 L1.5 -7.65 1.7 -7.9 2.4 -8.3 2.65 -8.35 3.15 -7.85 Q4.9 -4.9 5.45 -1.75 L4.95 -1.2 4.55 -0.75 4.0 -0.75 3.65 -1.8 2.9 -3.4 Q1.95 -5.35 1.45 -7.35 1.95 -5.35 2.9 -3.4 L3.65 -1.8 Q3.5 -1.2 2.6 -1.35 L2.3 -1.5 1.8 -2.5 1.65 -2.2 Q1.45 -1.95 1.1 -2.05 0.7 -1.8 0.35 -1.85 L0.6 -5.65 0.65 -5.65 0.65 -5.75 0.3 -6.55 0.6 -7.15 1.1 -7.4 1.45 -7.35 M1.8 -2.5 L1.55 -3.65 0.65 -5.65 1.55 -3.65 1.8 -2.5 M2.6 -0.85 L3.35 -0.25 3.15 1.0 Q2.5 3.5 0.7 2.5 2.15 1.05 2.05 -0.9 L2.6 -0.85 M0.65 -0.85 L1.25 -0.65 0.45 0.85 0.25 1.15 -0.7 1.15 0.65 -0.85 M6.45 -5.2 L5.2 -5.05 5.4 -7.35 Q9.0 -7.25 8.9 -4.1 7.9 -5.4 6.45 -5.2 M-5.8 2.65 Q-5.1 0.95 -1.8 0.1 L-0.45 1.75 Q-2.65 2.65 -3.55 2.0 L-4.4 2.5 -5.75 2.75 -5.8 2.65 M2.95 4.35 L5.05 5.3 Q4.4 6.6 3.65 7.15 L1.95 7.15 Q0.55 7.55 0.0 8.6 -0.6 5.9 2.95 4.35 M0.15 3.5 L0.3 3.6 Q1.25 4.65 -0.35 5.1 L-3.85 5.7 -5.4 5.75 -2.85 3.7 Q-0.6 2.0 0.15 3.5 M6.05 0.5 L5.2 3.8 4.8 4.45 4.35 4.35 3.65 3.9 3.7 3.5 4.95 -0.15 6.05 0.5" fill="#a5a384" fill-rule="evenodd" stroke="none"/>
    <path d="M3.65 -1.8 L4.0 -0.75 4.55 -0.75 4.95 -1.2 5.45 -1.75 Q4.9 -4.9 3.15 -7.85 L2.65 -8.35 2.4 -8.3 1.7 -7.9 1.5 -7.65 1.45 -7.35 Q1.95 -5.35 2.9 -3.4 L3.65 -1.8 Q3.5 -1.2 2.6 -1.35 L2.3 -1.5 1.8 -2.5 1.65 -2.2 Q1.45 -1.95 1.1 -2.05 0.7 -1.8 0.35 -1.85 L0.6 -5.65 0.65 -5.75 0.3 -6.55 0.6 -7.15 1.1 -7.4 1.45 -7.35 M0.65 -5.65 L0.65 -5.75 M0.65 -5.65 L1.55 -3.65 1.8 -2.5 M0.65 -0.85 L-0.7 1.15 0.25 1.15 0.45 0.85 1.25 -0.65 0.65 -0.85 M2.6 -0.85 L2.05 -0.9 Q2.15 1.05 0.7 2.5 2.5 3.5 3.15 1.0 L3.35 -0.25 2.6 -0.85 M6.45 -5.2 L5.2 -5.05 5.4 -7.35 Q9.0 -7.25 8.9 -4.1 7.9 -5.4 6.45 -5.2 M6.05 0.5 L4.95 -0.15 3.7 3.5 3.65 3.9 4.35 4.35 4.8 4.45 5.2 3.8 6.05 0.5 M0.15 3.5 Q-0.6 2.0 -2.85 3.7 L-5.4 5.75 -3.85 5.7 -0.35 5.1 Q1.25 4.65 0.3 3.6 L0.15 3.5 M2.95 4.35 Q-0.6 5.9 0.0 8.6 0.55 7.55 1.95 7.15 L3.65 7.15 Q4.4 6.6 5.05 5.3 L2.95 4.35 M-5.75 2.75 L-4.4 2.5 -3.55 2.0 Q-2.65 2.65 -0.45 1.75 L-1.8 0.1 Q-5.1 0.95 -5.8 2.65 L-5.85 2.75 -5.75 2.75 Z" fill="none" stroke="#000000" stroke-linecap="round" stroke-linejoin="round" stroke-width="0.05"/>
  </g>
</svg>
