<?xml version="1.0" encoding="UTF-8" standalone="no"?>
<svg xmlns:xlink="http://www.w3.org/1999/xlink" height="24.8px" width="47.4px" xmlns="http://www.w3.org/2000/svg">
  <g transform="matrix(1.0, 0.0, 0.0, 1.0, 0.0, 0.0)">
    <path d="M22.1 -10.0 L22.35 -12.55 22.85 -11.0 Q23.6 -7.6 22.05 -4.7 L21.6 -4.15 20.25 -3.5 19.95 -4.05 19.75 -4.85 20.8 -6.05 22.1 -10.0 M18.6 -3.15 Q18.45 -2.1 17.05 -1.2 L16.35 -1.05 15.7 -0.9 18.4 -3.1 18.6 -3.15 M-5.85 2.85 L-5.4 3.25 -4.8 3.3 -5.25 6.8 -7.15 7.05 Q-7.85 9.8 -9.3 12.0 L-8.75 7.3 -9.05 7.15 -9.8 7.1 -10.55 7.3 -11.15 6.95 -10.9 4.35 -10.65 4.05 -10.4 3.9 -10.1 3.85 -9.9 4.0 -9.65 4.05 Q-7.75 4.6 -5.85 2.85 M-12.35 4.5 L-11.9 5.45 -12.0 5.65 -13.7 5.9 -13.35 7.3 Q-12.8 9.4 -13.15 11.65 L-18.85 11.7 -18.95 11.65 -18.95 11.5 Q-17.3 9.1 -16.8 6.05 -17.35 5.15 -18.45 4.85 L-18.55 4.75 -18.5 3.7 -21.35 1.95 -21.75 1.45 Q-21.85 0.1 -20.9 -0.4 L-15.1 -0.8 Q-11.9 -0.45 -10.85 1.95 L-13.2 3.55 -13.0 3.85 -12.35 4.5 M-1.5 1.6 L-0.25 4.45 0.65 4.4 0.4 5.55 0.2 6.05 -0.1 6.45 -1.15 6.55 Q-1.35 6.6 -1.4 6.75 L-2.5 9.15 -2.4 8.65 -2.4 8.05 -2.65 6.85 -3.9 6.65 -3.2 4.4 -2.95 4.0 -1.95 3.9 -1.75 3.6 -1.55 3.0 -1.5 1.6 M8.1 3.2 L8.25 2.05 9.0 1.65 Q9.1 0.9 9.35 0.25 L9.55 0.35 9.7 0.55 9.8 0.7 9.8 0.95 9.85 1.3 10.0 1.5 10.95 1.15 10.9 1.75 10.45 2.15 9.8 2.7 9.65 3.6 8.95 2.7 8.2 3.2 8.1 3.2 M12.0 0.3 Q13.25 0.2 14.35 -0.85 14.75 -0.5 12.95 0.55 L12.0 1.1 12.0 0.3 M6.5 3.9 L4.5 4.8 4.2 6.35 3.35 5.45 2.75 5.85 1.75 5.8 1.9 4.35 2.15 4.15 3.25 3.9 3.45 3.25 3.1 2.25 3.25 2.2 3.4 2.3 4.15 3.6 4.25 3.65 4.9 3.6 Q5.75 3.35 6.3 2.7 L6.55 3.45 6.5 3.9" fill="#a5a384" fill-rule="evenodd" stroke="none"/>
    <path d="M20.8 -6.05 L18.45 -5.3 17.65 -4.8 18.1 -5.5 22.1 -10.0 20.8 -6.05 M22.85 -11.0 L24.9 -5.25 Q25.25 -4.1 24.85 -3.0 23.95 -0.3 22.35 -0.1 L22.55 -0.8 Q23.1 -2.8 21.6 -4.15 L22.05 -4.7 Q23.6 -7.6 22.85 -11.0" fill="#848062" fill-rule="evenodd" stroke="none"/>
    <path d="M2.15 -12.8 Q0.9 -11.5 -0.75 -10.95 L-1.8 -10.8 0.55 -12.65 2.15 -12.8 M8.1 -10.2 Q6.95 -8.95 5.4 -8.4 L4.9 -8.45 8.2 -11.05 8.1 -10.2 M-21.35 1.95 L-21.7 3.0 -21.7 3.85 Q-23.75 -0.65 -19.2 -3.05 L-16.95 -4.05 Q-13.75 -4.7 -10.85 -6.15 -9.75 -6.75 -8.85 -7.65 -9.4 -5.4 -11.25 -4.35 -6.75 -5.0 -2.85 -7.45 0.0 -9.3 3.5 -9.85 L-1.25 -7.05 Q-4.95 -4.8 -7.65 -1.5 L-7.45 -1.7 -6.0 -2.35 -5.25 -2.4 -4.75 -2.5 -4.75 -2.45 -5.85 -1.45 -6.2 -1.1 -6.25 -0.95 -6.2 -0.9 -6.05 -0.9 -5.15 -0.95 -4.4 -1.2 -3.75 -1.55 -3.15 -1.95 Q-3.3 -1.15 -4.0 -0.5 L-6.55 1.15 -7.8 1.95 -4.2 1.05 -5.85 2.85 Q-7.75 4.6 -9.65 4.05 L-9.9 4.0 -10.1 3.85 -10.4 3.9 -10.65 4.05 -10.9 4.35 -12.35 4.5 -13.0 3.85 -13.2 3.55 -10.85 1.95 Q-11.9 -0.45 -15.1 -0.8 L-20.9 -0.4 Q-21.85 0.1 -21.75 1.45 L-21.35 1.95" fill="#000000" fill-rule="evenodd" stroke="none"/>
    <path d="M20.8 -6.05 L18.45 -5.3 17.65 -4.8 18.1 -5.5 22.1 -10.0 22.35 -12.55 22.85 -11.0 24.9 -5.25 Q25.25 -4.1 24.85 -3.0 23.95 -0.3 22.35 -0.1 L22.55 -0.8 Q23.1 -2.8 21.6 -4.15 L20.25 -3.5 19.95 -4.05 19.75 -4.85 20.8 -6.05 22.1 -10.0 M18.6 -3.15 Q18.45 -2.1 17.05 -1.2 L16.35 -1.05 15.7 -0.9 18.4 -3.1 18.6 -3.15 M22.85 -11.0 Q23.6 -7.6 22.05 -4.7 L21.6 -4.15 M-4.75 -2.5 L-4.5 -2.5 -4.75 -2.45 M-5.85 2.85 L-5.4 3.25 -4.8 3.3 -5.25 6.8 -7.15 7.05 Q-7.85 9.8 -9.3 12.0 L-8.75 7.3 -9.05 7.15 -9.8 7.1 -10.55 7.3 -11.15 6.95 -10.9 4.35 M-12.35 4.5 L-11.9 5.45 -12.0 5.65 -13.7 5.9 -13.35 7.3 Q-12.8 9.4 -13.15 11.65 L-18.85 11.7 -18.95 11.65 -18.95 11.5 Q-17.3 9.1 -16.8 6.05 -17.35 5.15 -18.45 4.85 L-18.55 4.75 -18.5 3.7 -21.35 1.95 M-1.5 1.6 L-0.25 4.45 0.65 4.4 0.4 5.55 0.2 6.05 -0.1 6.45 -1.15 6.55 Q-1.35 6.6 -1.4 6.75 L-2.5 9.15 -2.4 8.65 -2.4 8.05 -2.65 6.85 -3.9 6.65 -3.2 4.4 -2.95 4.0 -1.95 3.9 -1.75 3.6 -1.55 3.0 -1.5 1.6 M8.1 3.2 L8.25 2.05 9.0 1.65 Q9.1 0.9 9.35 0.25 L9.55 0.35 9.7 0.55 9.8 0.7 9.8 0.95 9.85 1.3 10.0 1.5 10.95 1.15 10.9 1.75 10.45 2.15 9.8 2.7 9.65 3.6 8.95 2.7 8.2 3.2 8.1 3.2 M12.0 0.3 Q13.25 0.2 14.35 -0.85 14.75 -0.5 12.95 0.55 L12.0 1.1 12.0 0.3 M6.5 3.9 L4.5 4.8 4.2 6.35 3.35 5.45 2.75 5.85 1.75 5.8 1.9 4.35 2.15 4.15 3.25 3.9 3.45 3.25 3.1 2.25 3.25 2.2 3.4 2.3 4.15 3.6 4.25 3.65 4.9 3.6 Q5.75 3.35 6.3 2.7 L6.55 3.45 6.5 3.9 Z" fill="none" stroke="#000000" stroke-linecap="round" stroke-linejoin="round" stroke-width="0.05"/>
  </g>
</svg>
