<?xml version="1.0" encoding="UTF-8" standalone="no"?>
<svg xmlns:xlink="http://www.w3.org/1999/xlink" height="20.95px" width="26.85px" xmlns="http://www.w3.org/2000/svg">
  <g transform="matrix(1.0, 0.0, 0.0, 1.0, 0.0, 0.0)">
    <path d="M9.5 -3.2 L10.35 -2.9 11.65 -0.65 Q12.7 1.7 13.2 4.15 13.75 6.55 13.05 8.75 L12.15 8.85 7.8 9.35 6.3 9.7 1.65 10.45 -2.8 10.3 Q-5.15 10.2 -7.1 9.1 L-8.6 8.0 Q-10.2 6.75 -11.35 5.15 -12.85 3.2 -13.3 1.55 -13.6 1.2 -12.75 0.25 -11.9 -0.7 -10.75 -2.4 L-9.05 -4.9 Q-7.3 -7.25 -6.25 -9.65 L-5.75 -10.2 -4.65 -10.5 -3.7 -9.7 -2.85 -9.25 -1.0 -8.9 1.8 -6.25 Q3.35 -5.05 5.0 -4.6 6.95 -4.15 8.7 -3.3 L9.5 -3.2 M12.25 7.2 L10.5 7.3 6.3 7.9 2.35 9.4 6.3 7.9 10.5 7.3 12.25 7.2 M-7.1 9.1 L-8.7 7.25 Q-9.4 6.5 -9.75 5.45 -10.35 3.85 -11.5 2.55 -10.35 3.85 -9.75 5.45 -9.4 6.5 -8.7 7.25 L-7.1 9.1" fill="#70231c" fill-rule="evenodd" stroke="none"/>
    <path d="M-3.7 -9.7 L-0.8 -9.8 -0.75 -9.75 -2.0 -9.35 Q1.65 -9.05 5.2 -10.15 L2.05 -8.6 1.25 -8.0 1.25 -7.9 2.05 -7.95 1.9 -6.65 4.95 -6.9 5.05 -6.9 4.65 -6.15 4.35 -5.75 5.85 -5.65 5.7 -5.05 5.95 -4.65 6.2 -4.5 6.45 -4.65 7.1 -5.0 7.15 -5.0 7.3 -4.2 7.6 -4.3 Q7.85 -4.35 8.1 -4.55 L8.2 -4.5 8.7 -3.9 9.0 -3.9 9.15 -3.95 9.5 -3.2 8.7 -3.3 Q6.95 -4.15 5.0 -4.6 3.35 -5.05 1.8 -6.25 L-1.0 -8.9 -2.85 -9.25 -3.7 -9.7" fill="#5b1b17" fill-rule="evenodd" stroke="none"/>
    <path d="M-3.7 -9.7 L-0.8 -9.8 -0.75 -9.75 -2.0 -9.35 Q1.65 -9.05 5.2 -10.15 L2.05 -8.6 1.25 -8.0 1.25 -7.9 2.05 -7.95 1.9 -6.65 4.95 -6.9 5.05 -6.9 4.65 -6.15 4.35 -5.75 5.85 -5.65 5.7 -5.05 5.95 -4.65 6.2 -4.5 6.45 -4.65 7.1 -5.0 7.15 -5.0 7.3 -4.2 7.6 -4.3 Q7.85 -4.35 8.1 -4.55 L8.2 -4.5 8.7 -3.9 9.0 -3.9 9.15 -3.95 9.5 -3.2 10.35 -2.9 M13.05 8.75 L12.15 8.85 7.8 9.35 6.3 9.7 1.65 10.45 -2.8 10.3 Q-5.15 10.2 -7.1 9.1 L-8.6 8.0 Q-10.2 6.75 -11.35 5.15 -12.85 3.2 -13.3 1.55 M-4.65 -10.5 L-3.7 -9.7 -2.85 -9.25 -1.0 -8.9 1.8 -6.25 Q3.35 -5.05 5.0 -4.6 6.95 -4.15 8.7 -3.3 L9.5 -3.2 M-11.5 2.55 Q-10.35 3.85 -9.75 5.45 -9.4 6.5 -8.7 7.25 L-7.1 9.1 M2.35 9.4 L6.3 7.9 10.5 7.3 12.25 7.2" fill="none" stroke="#000000" stroke-linecap="round" stroke-linejoin="round" stroke-width="0.05"/>
  </g>
</svg>
