<?xml version="1.0" encoding="UTF-8" standalone="no"?>
<svg xmlns:xlink="http://www.w3.org/1999/xlink" height="20.9px" width="26.7px" xmlns="http://www.w3.org/2000/svg">
  <g transform="matrix(1.0, 0.0, 0.0, 1.0, 0.0, 0.0)">
    <path d="M0.15 -7.7 L1.85 -6.3 Q2.6 -5.75 3.5 -5.4 4.8 -4.75 6.25 -4.25 6.6 -3.0 6.25 -2.2 L4.7 -2.15 4.45 -1.0 4.7 -2.15 6.25 -2.2 Q6.6 -3.0 6.25 -4.25 L7.5 -3.8 10.35 -2.9 11.0 -1.85 Q12.05 0.0 12.5 1.75 L13.3 5.4 Q13.55 7.1 13.05 8.75 L1.35 10.4 1.6 8.85 1.1 7.75 0.8 6.75 2.3 4.9 1.9 4.2 2.3 4.9 0.8 6.75 1.1 7.75 2.3 6.75 2.8 6.8 Q3.75 6.8 3.55 6.15 3.75 6.8 2.8 6.8 L2.3 6.75 1.1 7.75 1.6 8.85 1.35 10.4 -0.7 10.25 -3.9 10.2 Q-5.5 10.0 -7.1 9.1 L-9.95 6.6 -11.85 4.15 -13.3 1.55 Q-13.15 0.2 -11.95 -1.0 L-10.25 -3.2 -8.3 -6.15 Q-7.5 -7.25 -6.85 -8.45 L-5.75 -10.2 -4.65 -10.5 -3.7 -9.7 Q-2.55 -8.85 -1.0 -8.9 L0.15 -7.7 0.05 -7.2 Q0.0 -6.45 -0.5 -5.7 L-3.65 -5.9 -3.9 -4.6 -4.15 -4.55 -6.4 -4.1 -5.55 -3.7 Q-4.25 -2.65 -4.05 -0.9 L-3.75 -0.85 -3.05 -1.0 -1.1 -1.4 -0.85 -1.9 -0.05 -2.25 0.9 -2.3 0.25 -3.35 0.9 -2.3 -0.05 -2.25 -0.85 -1.9 -1.1 -1.4 -3.05 -1.0 -3.75 -0.85 -4.05 -0.9 Q-4.25 -2.65 -5.55 -3.7 L-6.4 -4.1 -4.15 -4.55 -3.9 -4.6 -3.65 -5.9 -0.5 -5.7 Q0.0 -6.45 0.05 -7.2 L0.15 -7.7 M0.9 -2.3 L0.95 -1.05 0.35 -0.4 0.7 0.55 0.9 1.55 0.7 0.55 0.35 -0.4 0.95 -1.05 0.9 -2.3 M3.25 0.0 Q3.85 -0.2 4.3 -0.8 L4.45 -1.0 Q5.65 -0.4 6.0 0.7 5.4 1.5 5.9 2.3 L7.3 2.65 5.9 2.3 Q5.4 1.5 6.0 0.7 5.65 -0.4 4.45 -1.0 L4.3 -0.8 Q3.85 -0.2 3.25 0.0 M0.7 0.55 L1.9 0.6 0.7 0.55 M2.35 9.4 L4.35 8.65 6.3 7.9 8.4 7.55 12.25 7.2 8.4 7.55 6.3 7.9 4.35 8.65 2.35 9.4 M-11.5 2.55 L-10.55 3.85 -10.15 4.7 -9.15 6.35 -7.1 9.1 -9.15 6.35 -10.15 4.7 -10.55 3.85 -11.5 2.55 M-10.2 1.75 L-9.75 2.65 -10.05 3.4 -8.85 3.65 -8.05 4.25 -7.5 3.9 -6.9 4.05 -7.5 3.9 -8.05 4.25 -8.85 3.65 -10.05 3.4 -10.55 3.85 -10.05 3.4 -9.75 2.65 -10.2 1.75 -10.05 0.95 -10.0 0.4 Q-10.1 -0.7 -9.6 -0.55 -10.1 -0.7 -10.0 0.4 L-10.05 0.95 -10.2 1.75 -9.7 1.6 Q-8.55 1.45 -7.7 2.3 L-7.15 2.3 -7.7 2.3 Q-8.55 1.45 -9.7 1.6 L-10.2 1.75 M-5.5 5.8 L-6.4 5.5 -6.85 4.8 -6.7 4.45 -6.5 4.15 -6.9 3.2 -7.1 2.7 -7.15 2.3 Q-6.85 2.3 -6.65 2.1 L-6.45 1.55 -6.65 2.1 Q-6.85 2.3 -7.15 2.3 L-7.1 2.7 -6.9 3.2 -6.5 4.15 -6.7 4.45 -6.85 4.8 -6.4 5.5 -5.5 5.8 M-7.5 -2.45 Q-6.95 -2.65 -6.7 -3.25 L-6.7 -3.4 -6.75 -3.55 -6.4 -4.1 -6.75 -3.55 -6.7 -3.4 -6.7 -3.25 Q-6.95 -2.65 -7.5 -2.45" fill="#301f14" fill-rule="evenodd" stroke="none"/>
    <path d="M6.25 -4.25 Q4.8 -4.75 3.5 -5.4 2.6 -5.75 1.85 -6.3 L0.15 -7.7 -1.0 -8.9 Q-2.55 -8.85 -3.7 -9.7 L-4.65 -10.5 M10.35 -2.9 L7.5 -3.8 6.25 -4.25 M1.35 10.4 L13.05 8.75 M12.25 7.2 L8.4 7.55 6.3 7.9 4.35 8.65 2.35 9.4 M-13.3 1.55 L-11.85 4.15 -9.95 6.6 -7.1 9.1 -9.15 6.35 -10.15 4.7 -10.55 3.85 -11.5 2.55 M-7.1 9.1 Q-5.5 10.0 -3.9 10.2 L-0.7 10.25 1.35 10.4" fill="none" stroke="#000000" stroke-linecap="round" stroke-linejoin="round" stroke-width="0.05"/>
    <path d="M0.15 -7.7 L0.05 -7.2 Q0.0 -6.45 -0.5 -5.7 L-3.65 -5.9 -3.9 -4.6 -4.15 -4.55 -6.4 -4.1 -5.55 -3.7 Q-4.25 -2.65 -4.05 -0.9 L-3.75 -0.85 -3.05 -1.0 -1.1 -1.4 -0.85 -1.9 -0.05 -2.25 0.9 -2.3 0.25 -3.35 M7.3 2.65 L5.9 2.3 Q5.4 1.5 6.0 0.7 5.65 -0.4 4.45 -1.0 L4.3 -0.8 Q3.85 -0.2 3.25 0.0 M6.25 -4.25 Q6.6 -3.0 6.25 -2.2 L4.7 -2.15 4.45 -1.0 M0.9 1.55 L0.7 0.55 0.35 -0.4 0.95 -1.05 0.9 -2.3 M1.9 0.6 L0.7 0.55 M1.9 4.2 L2.3 4.9 0.8 6.75 1.1 7.75 2.3 6.75 2.8 6.8 Q3.75 6.8 3.55 6.15 M1.1 7.75 L1.6 8.85 1.35 10.4 M-6.4 -4.1 L-6.75 -3.55 -6.7 -3.4 -6.7 -3.25 Q-6.95 -2.65 -7.5 -2.45 M-6.45 1.55 L-6.65 2.1 Q-6.85 2.3 -7.15 2.3 L-7.1 2.7 -6.9 3.2 -6.5 4.15 -6.7 4.45 -6.85 4.8 -6.4 5.5 -5.5 5.8 M-9.6 -0.55 Q-10.1 -0.7 -10.0 0.4 L-10.05 0.95 -10.2 1.75 -9.7 1.6 Q-8.55 1.45 -7.7 2.3 L-7.15 2.3 M-6.9 4.05 L-7.5 3.9 -8.05 4.25 -8.85 3.65 -10.05 3.4 -10.55 3.85 M-10.05 3.4 L-9.75 2.65 -10.2 1.75" fill="none" stroke="#ff6600" stroke-linecap="round" stroke-linejoin="round" stroke-width="0.05"/>
  </g>
</svg>
