<?xml version="1.0" encoding="UTF-8" standalone="no"?>
<svg xmlns:xlink="http://www.w3.org/1999/xlink" height="8.95px" width="19.8px" xmlns="http://www.w3.org/2000/svg">
  <g transform="matrix(1.0, 0.0, 0.0, 1.0, 0.0, 0.0)">
    <path d="M-2.2 -2.6 L-1.7 -2.95 -1.25 -3.25 -1.2 -5.05 -0.7 -4.25 -0.25 -3.95 0.05 -3.9 0.4 -4.25 1.15 -6.1 3.0 -6.15 3.95 -5.6 4.15 -4.35 3.4 -4.0 2.7 -3.5 2.5 -3.0 2.45 -2.8 2.25 -2.6 1.9 -2.6 1.7 -2.9 Q1.2 -3.1 1.25 -2.3 L-0.6 -1.75 -1.15 -1.35 -2.2 -2.6 M-7.95 -0.45 L-7.45 -0.85 -6.9 -2.95 -5.85 -1.55 -5.65 -1.6 -5.65 -1.05 Q-5.7 0.05 -6.5 0.6 L-7.95 0.55 -7.95 -0.45 M-4.85 -1.8 L-4.6 -2.3 -4.15 -4.25 -3.45 -2.85 -2.7 -2.65 -2.4 -0.9 -4.45 -0.5 -4.85 -1.8" fill="#848062" fill-rule="evenodd" stroke="none"/>
    <path d="M1.9 -2.6 L2.1 -1.65 2.35 -1.4 Q3.5 -1.2 4.3 -2.25 L5.55 -2.35 5.75 -2.75 Q8.0 -2.6 7.85 -4.7 L7.9 -4.85 9.25 -4.6 10.45 -4.45 9.75 -2.7 10.5 -1.75 9.4 0.8 7.9 1.35 7.6 2.05 5.2 2.8 Q1.25 0.95 -3.3 1.5 L-6.55 1.95 -7.8 2.3 -9.3 0.55 -9.0 0.0 -9.0 -0.1 -9.1 -0.4 -9.15 -0.85 -8.85 -1.6 -8.3 -2.35 -8.2 -2.35 -7.95 -0.45 -7.95 0.55 -6.5 0.6 Q-5.7 0.05 -5.65 -1.05 L-5.65 -1.6 -5.55 -3.0 -4.85 -1.8 -4.45 -0.5 -2.4 -0.9 -2.7 -2.65 -2.65 -3.2 -2.2 -2.6 -1.15 -1.35 -0.05 -1.3 1.1 -1.3 1.25 -2.3 Q1.2 -3.1 1.7 -2.9 L1.9 -2.6" fill="#a5a384" fill-rule="evenodd" stroke="none"/>
    <path d="M-2.2 -2.6 L-1.7 -2.95 -1.25 -3.25 -1.2 -5.05 -0.7 -4.25 -0.25 -3.95 0.05 -3.9 0.4 -4.25 1.15 -6.1 3.0 -6.15 3.95 -5.6 4.15 -4.35 3.4 -4.0 2.7 -3.5 2.5 -3.0 2.45 -2.8 2.25 -2.6 1.9 -2.6 2.1 -1.65 2.35 -1.4 Q3.5 -1.2 4.3 -2.25 L5.55 -2.35 5.75 -2.75 Q8.0 -2.6 7.85 -4.7 L7.85 -4.8 7.9 -4.85 9.25 -4.6 10.45 -4.45 9.75 -2.7 10.5 -1.75 9.4 0.8 7.9 1.35 7.6 2.05 5.2 2.8 Q1.25 0.95 -3.3 1.5 L-6.55 1.95 -7.8 2.3 -9.3 0.55 -9.0 0.0 -9.0 -0.1 -9.1 -0.4 -9.15 -0.85 -8.85 -1.6 -8.3 -2.35 -8.2 -2.35 -7.95 -0.45 -7.45 -0.85 -6.9 -2.95 -5.85 -1.55 -5.65 -1.6 -5.55 -3.0 -4.85 -1.8 -4.6 -2.3 -4.15 -4.25 -3.45 -2.85 -2.7 -2.65 -2.65 -3.2 -2.2 -2.6 -1.15 -1.35 -0.6 -1.75 1.25 -2.3 Q1.2 -3.1 1.7 -2.9 L1.9 -2.6 M-1.15 -1.35 L-0.05 -1.3 1.1 -1.3 1.25 -2.3 M-7.95 -0.45 L-7.95 0.55 -6.5 0.6 Q-5.7 0.05 -5.65 -1.05 L-5.65 -1.6 M-4.85 -1.8 L-4.45 -0.5 -2.4 -0.9 -2.7 -2.65" fill="none" stroke="#000000" stroke-linecap="round" stroke-linejoin="round" stroke-width="0.05"/>
  </g>
</svg>
