<?xml version="1.0" encoding="UTF-8" standalone="no"?>
<svg xmlns:xlink="http://www.w3.org/1999/xlink" height="9.75px" width="21.05px" xmlns="http://www.w3.org/2000/svg">
  <g transform="matrix(1.0, 0.0, 0.0, 1.0, 0.0, 0.0)">
    <path d="M6.8 -2.3 L8.9 -2.0 Q9.4 -1.3 8.1 -1.6 L9.55 -0.8 9.8 -0.5 7.85 -0.4 9.45 0.6 Q10.3 1.2 10.55 2.25 9.25 1.25 7.6 1.4 L7.5 1.4 7.6 1.45 Q8.65 2.35 9.15 3.55 L8.5 3.3 6.3 2.2 6.25 2.2 6.25 2.25 7.2 3.15 Q6.85 3.55 5.25 2.6 L4.45 2.2 3.95 1.55 5.15 1.15 5.6 1.05 6.45 0.6 6.8 0.45 Q7.15 -0.25 6.9 -1.4 L6.9 -1.5 6.8 -2.3" fill="#344d20" fill-rule="evenodd" stroke="none"/>
    <path d="M4.9 -3.2 L5.6 -3.1 6.55 -2.9 6.8 -2.3 6.9 -1.5 6.9 -1.4 Q7.15 -0.25 6.8 0.45 L6.45 0.6 5.6 1.05 5.15 1.15 Q4.35 -0.1 4.85 -1.3 L5.0 -1.5 Q5.25 -2.0 5.85 -1.85 L6.2 -1.75 Q6.45 -1.5 6.9 -1.4 6.45 -1.5 6.2 -1.75 L5.85 -1.85 Q5.25 -2.0 5.0 -1.5 L4.85 -1.3 Q4.35 -0.1 5.15 1.15 L3.95 1.55 2.55 1.3 0.55 0.4 0.3 0.25 -1.55 -0.3 -3.3 -0.75 -5.2 -1.05 -7.05 -1.25 -9.0 -1.1 -9.3 -1.05 -10.3 -2.5 Q-10.65 -3.05 -10.3 -3.5 L-10.2 -3.55 -9.55 -3.6 -9.25 -3.45 -8.3 -2.85 Q-7.5 -3.4 -6.65 -3.65 L-4.1 -3.3 -1.35 -3.15 -0.7 -2.9 1.2 -3.25 Q3.1 -3.4 4.9 -3.2 M0.3 0.25 Q0.0 -0.4 0.8 -0.8 L2.05 -0.25 Q1.9 0.55 2.55 1.3 1.9 0.55 2.05 -0.25 L0.8 -0.8 Q0.0 -0.4 0.3 0.25 M2.05 -0.25 L2.55 -0.8 2.9 -0.85 Q3.6 -0.9 4.0 -0.4 3.6 -0.9 2.9 -0.85 L2.55 -0.8 2.05 -0.25 M3.15 -1.5 L3.2 -2.15 3.75 -2.25 4.35 -1.9 3.75 -2.25 3.2 -2.15 3.15 -1.5" fill="#42662b" fill-rule="evenodd" stroke="none"/>
    <path d="M-9.55 -3.6 Q-7.55 -4.5 -5.4 -4.65 -3.0 -5.05 -0.8 -5.8 L0.0 -6.2 0.25 -6.15 1.0 -5.7 1.7 -5.35 Q3.3 -4.8 4.55 -3.6 L4.9 -3.2 Q3.1 -3.4 1.2 -3.25 L-0.7 -2.9 -1.35 -3.15 -4.1 -3.3 -6.65 -3.65 Q-7.5 -3.4 -8.3 -2.85 L-9.25 -3.45 -9.55 -3.6 M-3.4 -4.15 L1.7 -5.35 -3.4 -4.15" fill="#990000" fill-rule="evenodd" stroke="none"/>
    <path d="M6.55 -2.9 L6.8 -2.3 8.9 -2.0 Q9.4 -1.3 8.1 -1.6 L9.55 -0.8 9.8 -0.5 7.85 -0.4 9.45 0.6 Q10.3 1.2 10.55 2.25 9.25 1.25 7.6 1.4 L7.5 1.4 7.6 1.45 Q8.65 2.35 9.15 3.55 L8.5 3.3 6.3 2.2 6.25 2.2 6.25 2.25 7.2 3.15 Q6.85 3.55 5.25 2.6 L4.45 2.2 3.95 1.55 2.55 1.3 0.55 0.4 0.45 0.35 0.3 0.25 -1.55 -0.3 -3.3 -0.75 -5.2 -1.05 -7.05 -1.25 -9.0 -1.1 -9.3 -1.05 -10.3 -2.5 Q-10.65 -3.05 -10.3 -3.5 L-10.2 -3.55 -9.55 -3.6 -9.25 -3.45 -8.3 -2.85 Q-7.5 -3.4 -6.65 -3.65 L-4.1 -3.3 -1.35 -3.15 -0.7 -2.9 M2.55 1.3 Q1.9 0.55 2.05 -0.25 L0.8 -0.8 Q0.0 -0.4 0.3 0.25 L0.55 0.4 M6.9 -1.4 Q6.45 -1.5 6.2 -1.75 L5.85 -1.85 Q5.25 -2.0 5.0 -1.5 L4.85 -1.3 Q4.35 -0.1 5.15 1.15 L5.6 1.05 6.45 0.6 6.8 0.45 Q7.15 -0.25 6.9 -1.4 L6.9 -1.5 6.8 -2.3 M4.35 -1.9 L3.75 -2.25 3.2 -2.15 3.15 -1.5 M4.0 -0.4 Q3.6 -0.9 2.9 -0.85 L2.55 -0.8 2.05 -0.25 M5.15 1.15 L3.95 1.55" fill="none" stroke="#000000" stroke-linecap="round" stroke-linejoin="round" stroke-width="0.05"/>
    <path d="M-9.55 -3.6 Q-7.55 -4.5 -5.4 -4.65 -3.0 -5.05 -0.8 -5.8 L0.0 -6.2 0.25 -6.15 1.0 -5.7 1.7 -5.35 Q3.3 -4.8 4.55 -3.6 L4.9 -3.2 M1.7 -5.35 L-3.4 -4.15" fill="none" stroke="#000000" stroke-linecap="round" stroke-linejoin="round" stroke-width="0.05"/>
  </g>
</svg>
