<?xml version="1.0" encoding="UTF-8" standalone="no"?>
<svg xmlns:xlink="http://www.w3.org/1999/xlink" height="7.75px" width="17.5px" xmlns="http://www.w3.org/2000/svg">
  <g transform="matrix(1.0, 0.0, 0.0, 1.0, 0.0, 0.0)">
    <path d="M-9.55 -3.6 Q-7.55 -4.5 -5.4 -4.65 -3.0 -5.05 -0.8 -5.8 L0.0 -6.2 0.25 -6.15 1.0 -5.7 1.7 -5.35 Q3.3 -4.8 4.55 -3.6 L4.9 -3.2 Q3.1 -3.4 1.2 -3.25 L-0.7 -2.9 -1.35 -3.15 -4.1 -3.3 -6.65 -3.65 Q-7.5 -3.4 -8.3 -2.85 L-9.25 -3.45 -9.55 -3.6 M-3.4 -4.15 L1.7 -5.35 -3.4 -4.15" fill="#ff9900" fill-rule="evenodd" stroke="none"/>
    <path d="M6.9 -1.5 L6.9 -1.4 6.85 -1.4 6.9 -1.5" fill="#70231c" fill-rule="evenodd" stroke="none"/>
    <path d="M4.9 -3.2 L5.6 -3.1 6.55 -2.9 6.8 -2.3 6.9 -1.5 6.85 -1.4 6.9 -1.4 Q7.15 -0.25 6.8 0.45 L6.45 0.6 5.6 1.05 5.15 1.15 3.95 1.55 2.55 1.3 0.55 0.4 0.3 0.25 -1.55 -0.3 -3.3 -0.75 -5.2 -1.05 -7.05 -1.25 -9.0 -1.1 -9.3 -1.05 -10.3 -2.5 Q-10.65 -3.05 -10.3 -3.5 L-10.2 -3.55 -9.55 -3.6 -9.25 -3.45 -8.3 -2.85 Q-7.5 -3.4 -6.65 -3.65 L-4.1 -3.3 -1.35 -3.15 -0.7 -2.9 1.2 -3.25 Q3.1 -3.4 4.9 -3.2 M0.3 0.25 Q0.0 -0.4 0.8 -0.8 L2.05 -0.25 Q1.9 0.55 2.55 1.3 1.9 0.55 2.05 -0.25 L0.8 -0.8 Q0.0 -0.4 0.3 0.25 M5.15 1.15 Q4.35 -0.1 4.85 -1.3 L5.0 -1.5 Q5.25 -2.0 5.85 -1.85 L6.2 -1.75 6.85 -1.4 6.2 -1.75 5.85 -1.85 Q5.25 -2.0 5.0 -1.5 L4.85 -1.3 Q4.35 -0.1 5.15 1.15 M3.15 -1.5 L3.2 -2.15 3.75 -2.25 4.35 -1.9 3.75 -2.25 3.2 -2.15 3.15 -1.5 M2.05 -0.25 L2.55 -0.8 2.9 -0.85 Q3.6 -0.9 4.0 -0.4 3.6 -0.9 2.9 -0.85 L2.55 -0.8 2.05 -0.25" fill="#301f14" fill-rule="evenodd" stroke="none"/>
    <path d="M-9.55 -3.6 Q-7.55 -4.5 -5.4 -4.65 -3.0 -5.05 -0.8 -5.8 L0.0 -6.2 0.25 -6.15 1.0 -5.7 1.7 -5.35 Q3.3 -4.8 4.55 -3.6 L4.9 -3.2 M6.55 -2.9 L6.8 -2.3 6.9 -1.5 6.9 -1.4 Q7.15 -0.25 6.8 0.45 L6.45 0.6 5.6 1.05 5.15 1.15 3.95 1.55 2.55 1.3 0.55 0.4 0.45 0.35 0.3 0.25 -1.55 -0.3 -3.3 -0.75 -5.2 -1.05 -7.05 -1.25 -9.0 -1.1 -9.3 -1.05 -10.3 -2.5 Q-10.65 -3.05 -10.3 -3.5 L-10.2 -3.55 -9.55 -3.6 -9.25 -3.45 -8.3 -2.85 Q-7.5 -3.4 -6.65 -3.65 L-4.1 -3.3 -1.35 -3.15 -0.7 -2.9 M0.3 0.25 L0.55 0.4 M6.9 -1.4 L6.85 -1.4 M1.7 -5.35 L-3.4 -4.15" fill="none" stroke="#000000" stroke-linecap="round" stroke-linejoin="round" stroke-width="0.05"/>
    <path d="M2.55 1.3 Q1.9 0.55 2.05 -0.25 L0.8 -0.8 Q0.0 -0.4 0.3 0.25 M4.0 -0.4 Q3.6 -0.9 2.9 -0.85 L2.55 -0.8 2.05 -0.25 M4.35 -1.9 L3.75 -2.25 3.2 -2.15 3.15 -1.5 M6.85 -1.4 L6.2 -1.75 5.85 -1.85 Q5.25 -2.0 5.0 -1.5 L4.85 -1.3 Q4.35 -0.1 5.15 1.15" fill="none" stroke="#ff6600" stroke-linecap="round" stroke-linejoin="round" stroke-width="0.05"/>
  </g>
</svg>
