<?xml version="1.0" encoding="UTF-8" standalone="no"?>
<svg xmlns:xlink="http://www.w3.org/1999/xlink" height="19.85px" width="39.7px" xmlns="http://www.w3.org/2000/svg">
  <g transform="matrix(1.0, 0.0, 0.0, 1.0, 0.0, 0.0)">
    <path d="M-0.05 -2.65 L1.45 -2.6 1.55 -2.45 1.5 -2.35 1.3 -2.15 1.3 -2.1 1.95 -1.65 1.8 -1.2 6.05 -0.85 9.8 0.1 12.6 0.55 15.75 0.45 Q17.5 0.3 18.6 -0.95 L19.4 -1.95 19.5 -2.05 20.1 -1.5 Q20.05 -0.7 19.6 -0.1 L17.25 3.1 15.35 3.85 13.8 4.1 9.85 3.7 9.1 3.5 11.1 4.95 11.55 6.6 Q11.85 8.7 10.4 10.2 L8.9 11.6 Q7.55 12.8 5.65 12.95 L3.45 13.05 1.3 12.35 3.7 12.15 Q5.0 11.75 5.8 10.6 L6.05 9.65 5.7 9.2 5.2 8.6 4.65 8.25 3.1 8.25 1.8 8.35 1.55 8.75 -0.15 8.85 -1.7 7.4 -3.05 7.45 -3.15 7.3 -3.1 6.75 -3.05 6.7 -2.8 6.2 -1.2 6.35 Q-0.5 5.65 -0.75 4.6 L-1.0 3.65 -1.1 3.45 -1.2 3.7 -1.65 4.55 -2.2 5.3 -3.0 5.3 -3.55 5.65 -4.8 5.65 -4.95 6.2 -5.1 6.7 -6.05 6.15 -6.4 6.7 -6.5 7.1 -6.95 7.0 -7.35 6.5 -8.2 6.45 Q-8.85 7.15 -8.6 7.9 L-8.15 9.3 -9.35 8.0 -9.95 6.1 -11.95 6.55 -11.6 8.8 -11.9 8.7 -12.25 8.35 -12.95 6.65 -13.1 6.35 -14.5 6.55 -15.7 6.75 -16.0 7.05 Q-16.45 7.6 -16.15 8.25 L-16.0 8.8 -15.85 9.5 Q-16.1 9.65 -16.4 9.0 L-17.5 6.5 -19.6 5.95 Q-19.5 4.55 -18.7 3.4 -18.2 2.65 -17.3 2.5 -16.55 2.95 -15.9 2.85 L-13.2 2.2 Q-11.9 1.75 -11.25 0.7 -10.9 0.1 -10.2 -0.2 L-8.45 -0.9 -5.7 -1.7 Q-2.9 -2.8 -0.05 -2.65 M-1.75 -0.6 L-4.3 -0.35 -5.6 0.05 -4.85 0.3 -3.45 0.8 -2.7 0.3 -1.75 -0.6 M-3.65 1.7 L-4.1 1.25 -8.05 0.85 -10.35 2.5 -9.4 4.3 -8.35 4.5 -6.55 4.0 Q-5.05 3.35 -3.25 3.4 L-3.65 1.7 M-11.35 2.5 L-11.9 2.9 Q-13.55 3.6 -15.4 3.8 L-15.8 4.8 -11.9 4.25 -10.25 4.7 -10.5 3.95 -11.35 2.5 M1.8 -1.2 L-1.05 -0.1 1.8 -1.2 M6.25 5.0 Q4.95 5.0 4.05 5.95 3.1 6.9 3.1 8.25 3.1 6.9 4.05 5.95 4.95 5.0 6.25 5.0 M9.45 8.85 L8.85 8.4 Q6.95 7.45 5.2 8.6 6.95 7.45 8.85 8.4 L9.45 8.85 M7.0 11.75 L5.8 10.6 7.0 11.75 M0.7 6.7 L0.75 7.65 1.0 8.0 1.8 8.35 1.0 8.0 0.75 7.65 0.7 6.7 M2.75 3.75 Q2.1 2.2 2.7 0.9 L3.05 0.15 2.7 0.9 Q2.1 2.2 2.75 3.75 L5.85 3.3 9.1 3.5 5.85 3.3 2.75 3.75 0.25 3.85 2.75 3.75 M9.85 3.7 L9.3 2.55 9.8 0.95 9.3 2.55 9.85 3.7 M6.55 0.15 L6.1 0.45 5.95 1.0 5.85 3.3 5.95 1.0 6.1 0.45 6.55 0.15 M13.8 4.1 L13.1 3.55 12.75 1.35 13.1 3.55 13.8 4.1 M17.25 3.1 L16.75 2.6 16.05 1.5 16.75 2.6 17.25 3.1" fill="#a5a384" fill-rule="evenodd" stroke="none"/>
    <path d="M6.05 -0.85 L1.8 -1.2 1.95 -1.65 1.3 -2.1 1.3 -2.15 1.5 -2.35 1.55 -2.45 1.45 -2.6 -0.05 -2.65 1.9 -2.95 5.2 -3.55 7.7 -4.15 Q8.9 -4.55 9.85 -5.4 L10.8 -6.3 11.4 -6.8 11.2 -3.9 10.9 -3.6 10.15 -3.15 9.3 -2.7 6.05 -0.85 M8.0 -3.6 L9.3 -2.7 8.0 -3.6 M6.05 -1.5 L4.85 -2.45 6.05 -1.5" fill="#848062" fill-rule="evenodd" stroke="none"/>
    <path d="M-3.05 6.7 L-3.8 6.45 -4.5 6.2 -4.95 6.2 -4.8 5.65 -3.55 5.65 -3.0 5.3 -2.2 5.3 -1.65 4.55 -1.2 3.7 -1.1 3.45 -1.0 3.65 -0.75 4.6 Q-0.5 5.65 -1.2 6.35 L-2.8 6.2 -3.05 6.7 M-1.75 -0.6 L-2.7 0.3 -3.45 0.8 -4.85 0.3 -5.6 0.05 -4.3 -0.35 -1.75 -0.6 M-11.35 2.5 L-10.5 3.95 -10.25 4.7 -11.9 4.25 -15.8 4.8 -15.4 3.8 Q-13.55 3.6 -11.9 2.9 L-11.35 2.5" fill="#1e1d15" fill-rule="evenodd" stroke="none"/>
    <path d="M-3.65 1.7 L-3.25 3.4 Q-5.05 3.35 -6.55 4.0 L-8.35 4.5 -9.4 4.3 -10.35 2.5 -8.05 0.85 -4.1 1.25 -3.65 1.7" fill="url(#gradient0)" fill-rule="evenodd" stroke="none"/>
    <path d="M-0.05 -2.65 L1.45 -2.6 1.55 -2.45 1.5 -2.35 1.3 -2.15 1.3 -2.1 1.95 -1.65 1.8 -1.2 6.05 -0.85 9.3 -2.7 8.0 -3.6 M-0.05 -2.65 L1.9 -2.95 5.2 -3.55 7.7 -4.15 Q8.9 -4.55 9.85 -5.4 L10.8 -6.3 11.4 -6.8 11.2 -3.9 10.9 -3.6 10.15 -3.15 9.3 -2.7 M4.85 -2.45 L6.05 -1.5 M6.05 -0.85 L9.8 0.1 12.6 0.55 15.75 0.45 Q17.5 0.3 18.6 -0.95 L19.4 -1.95 19.5 -2.05 20.1 -1.5 Q20.05 -0.7 19.6 -0.1 L17.25 3.1 15.35 3.85 13.8 4.1 9.85 3.7 9.1 3.5 11.1 4.95 11.55 6.6 Q11.85 8.7 10.4 10.2 L8.9 11.6 Q7.55 12.8 5.65 12.95 L3.45 13.05 1.3 12.35 3.7 12.15 Q5.0 11.75 5.8 10.6 L6.05 9.65 5.7 9.2 5.2 8.6 4.65 8.25 3.1 8.25 1.8 8.35 1.55 8.75 -0.15 8.85 -1.7 7.4 -3.05 7.45 -3.15 7.3 -3.1 6.75 -3.05 6.7 -2.8 6.2 -1.2 6.35 Q-0.5 5.65 -0.75 4.6 L-1.0 3.65 -1.1 3.45 -1.2 3.7 -1.65 4.55 -2.2 5.3 -3.0 5.3 -3.55 5.65 -4.8 5.65 -4.95 6.2 -5.1 6.7 -6.05 6.15 -6.4 6.7 -6.5 7.1 -6.95 7.0 -7.35 6.5 -8.2 6.45 Q-8.85 7.15 -8.6 7.9 L-8.15 9.3 -9.35 8.0 -9.95 6.1 -11.95 6.55 -11.6 8.8 -11.9 8.7 -12.25 8.35 -12.95 6.65 -13.1 6.35 -14.5 6.55 -15.7 6.75 -16.0 7.05 Q-16.45 7.6 -16.15 8.25 L-16.0 8.8 -15.85 9.5 Q-16.1 9.65 -16.4 9.0 L-17.5 6.5 -19.6 5.95 Q-19.5 4.55 -18.7 3.4 -18.2 2.65 -17.3 2.5 -16.55 2.95 -15.9 2.85 L-13.2 2.2 Q-11.9 1.75 -11.25 0.7 -10.9 0.1 -10.2 -0.2 L-8.45 -0.9 -5.7 -1.7 Q-2.9 -2.8 -0.05 -2.65 M16.05 1.5 L16.75 2.6 17.25 3.1 M12.75 1.35 L13.1 3.55 13.8 4.1 M9.1 3.5 L5.85 3.3 2.75 3.75 0.25 3.85 M5.85 3.3 L5.95 1.0 6.1 0.45 6.55 0.15 M9.8 0.95 L9.3 2.55 9.85 3.7 M3.05 0.15 L2.7 0.9 Q2.1 2.2 2.75 3.75 M1.8 8.35 L1.0 8.0 0.75 7.65 0.7 6.7 M5.8 10.6 L7.0 11.75 M5.2 8.6 Q6.95 7.45 8.85 8.4 L9.45 8.85 M3.1 8.25 Q3.1 6.9 4.05 5.95 4.95 5.0 6.25 5.0 M-1.05 -0.1 L1.8 -1.2" fill="none" stroke="#000000" stroke-linecap="round" stroke-linejoin="round" stroke-width="0.05"/>
  </g>
  <defs>
    <radialGradient cx="0" cy="0" gradientTransform="matrix(0.005, 0.0, 0.0, 0.0031, -7.05, 2.75)" gradientUnits="userSpaceOnUse" id="gradient0" r="819.2" spreadMethod="pad">
      <stop offset="0.0" stop-color="#00ff00"/>
      <stop offset="0.3803921568627451" stop-color="#1e1d15"/>
    </radialGradient>
  </defs>
</svg>
