<?xml version="1.0" encoding="UTF-8" standalone="no"?>
<svg xmlns:xlink="http://www.w3.org/1999/xlink" height="15.75px" width="38.45px" xmlns="http://www.w3.org/2000/svg">
  <g transform="matrix(1.0, 0.0, 0.0, 1.0, 0.0, 0.0)">
    <path d="M8.6 -1.15 Q6.2 -1.05 3.85 -1.2 L2.95 -1.15 1.3 -1.95 2.95 -1.15 3.85 -1.2 Q6.2 -1.05 8.6 -1.15 L10.65 -1.7 Q12.55 -2.35 13.9 -3.5 L15.8 -5.35 Q15.4 -3.55 14.0 -2.3 L16.15 -2.9 Q17.5 -3.3 18.5 -4.4 19.15 -5.1 19.2 -4.75 19.25 -4.3 18.95 -3.85 17.0 -0.7 13.5 0.2 15.4 0.0 17.1 -0.65 L16.8 -0.45 15.9 0.2 Q12.9 2.05 9.55 1.8 L11.4 2.2 Q10.6 2.9 9.6 2.85 7.5 3.1 5.5 2.3 L5.8 2.7 4.7 2.05 Q4.2 2.55 4.5 2.9 L3.85 2.55 3.75 2.35 Q3.6 3.0 2.3 2.05 1.4 1.4 0.6 1.45 0.65 1.0 -0.15 1.15 L-2.55 0.9 -1.8 0.4 Q-4.5 -0.45 -7.05 0.8 -7.95 1.2 -8.65 1.8 L-8.85 2.25 -10.65 2.85 -11.1 3.05 -13.8 3.6 Q-14.65 3.6 -15.25 4.0 L-13.3 3.85 -12.45 3.75 Q-11.45 4.1 -10.6 3.5 L-9.2 3.9 -6.35 4.35 Q-3.95 4.9 -2.6 3.05 L-2.6 2.95 -1.25 2.1 -0.45 2.25 -0.3 2.25 -0.15 2.3 1.35 2.9 Q1.55 4.45 0.7 5.75 -0.15 7.1 -1.5 7.95 -4.35 6.85 -7.2 6.9 L-8.2 7.35 Q-8.6 6.8 -9.25 6.65 L-13.1 6.25 Q-14.8 5.8 -15.95 7.0 -17.05 6.75 -17.9 6.15 L-18.05 6.2 -18.75 6.15 Q-19.25 5.85 -19.25 5.25 -18.75 3.95 -17.9 3.1 L-17.2 3.3 -16.9 3.15 -16.3 3.05 -11.3 1.65 -10.6 0.65 -8.2 -0.05 -6.35 -1.4 Q-4.0 -2.65 -1.3 -3.1 L-1.15 -3.1 -1.65 -2.4 -0.9 -2.4 Q0.45 -2.4 0.8 -1.95 L1.3 -1.95 2.3 -2.05 Q4.15 -2.35 5.8 -3.05 7.45 -3.65 9.0 -4.7 10.25 -5.5 11.15 -6.7 L12.3 -7.8 Q11.85 -5.2 9.85 -3.55 L10.4 -3.45 11.5 -4.2 Q11.05 -2.9 9.65 -2.35 8.3 -1.85 9.6 -1.75 L9.5 -1.6 8.6 -1.15 M-0.95 -0.45 L0.55 -1.7 0.8 -1.95 0.55 -1.7 -0.95 -0.45 M-0.25 4.3 Q0.1 3.55 -0.45 2.25 0.1 3.55 -0.25 4.3 M-4.25 -0.45 L-2.0 -2.05 -1.65 -2.4 -2.0 -2.05 -4.25 -0.45 M-15.75 4.45 L-15.25 4.0 -15.75 4.45 M2.95 -1.15 Q1.25 -1.15 -0.2 -0.25 1.25 -1.15 2.95 -1.15" fill="url(#gradient0)" fill-rule="evenodd" stroke="none"/>
    <path d="M1.35 2.9 L-0.15 2.3 -0.3 2.25 -0.45 2.25 -1.25 2.1 -2.6 2.95 -2.6 2.65 -2.7 1.85 -3.35 1.75 Q-5.8 1.4 -8.2 2.25 L-8.85 2.25 -8.65 1.8 Q-7.95 1.2 -7.05 0.8 -4.5 -0.45 -1.8 0.4 L-2.55 0.9 -2.7 1.15 -3.35 1.75 -2.7 1.15 -2.55 0.9 -0.15 1.15 Q0.65 1.0 0.6 1.45 1.4 1.4 2.3 2.05 L2.2 2.25 1.35 2.9 M-0.3 2.25 L0.6 1.45 -0.3 2.25 M-10.6 3.5 Q-11.45 4.1 -12.45 3.75 L-13.3 3.85 -15.25 4.0 Q-14.65 3.6 -13.8 3.6 L-11.1 3.05 -10.6 3.5 M-1.25 2.1 L-2.7 1.85 -1.25 2.1" fill="#344d20" fill-rule="evenodd" stroke="none"/>
    <path d="M-2.6 2.95 L-2.6 3.05 Q-3.95 4.9 -6.35 4.35 L-9.2 3.9 -10.6 3.5 -11.1 3.05 -10.65 2.85 -8.85 2.25 -8.2 2.25 Q-5.8 1.4 -3.35 1.75 L-2.7 1.85 -2.6 2.65 -2.6 2.95" fill="#ffff00" fill-rule="evenodd" stroke="none"/>
    <path d="M1.3 -1.95 L2.95 -1.15 3.85 -1.2 Q6.2 -1.05 8.6 -1.15 L9.5 -1.6 9.6 -1.75 Q8.3 -1.85 9.65 -2.35 11.05 -2.9 11.5 -4.2 L10.4 -3.45 9.85 -3.55 Q11.85 -5.2 12.3 -7.8 L11.15 -6.7 Q10.25 -5.5 9.0 -4.7 7.45 -3.65 5.8 -3.05 4.15 -2.35 2.3 -2.05 L1.3 -1.95 0.8 -1.95 0.55 -1.7 -0.95 -0.45 M2.3 2.05 Q3.6 3.0 3.75 2.35 L3.85 2.55 4.5 2.9 Q4.2 2.55 4.7 2.05 L5.8 2.7 5.5 2.3 Q7.5 3.1 9.6 2.85 10.6 2.9 11.4 2.2 L9.55 1.8 Q12.9 2.05 15.9 0.2 L16.8 -0.45 17.1 -0.65 Q15.4 0.0 13.5 0.2 17.0 -0.7 18.95 -3.85 19.25 -4.3 19.2 -4.75 19.15 -5.1 18.5 -4.4 17.5 -3.3 16.15 -2.9 L14.0 -2.3 Q15.4 -3.55 15.8 -5.35 L13.9 -3.5 Q12.55 -2.35 10.65 -1.7 L8.6 -1.15 M1.35 2.9 L-0.15 2.3 -0.3 2.25 -0.45 2.25 Q0.1 3.55 -0.25 4.3 M2.3 2.05 Q1.4 1.4 0.6 1.45 L-0.3 2.25 M1.35 2.9 L2.2 2.25 2.3 2.05 M0.8 -1.95 Q0.45 -2.4 -0.9 -2.4 L-1.65 -2.4 -2.0 -2.05 -4.25 -0.45 M-1.65 -2.4 L-1.15 -3.1 -1.3 -3.1 Q-4.0 -2.65 -6.35 -1.4 L-8.2 -0.05 -10.6 0.65 -11.3 1.65 -16.3 3.05 -16.9 3.15 -17.2 3.3 -17.9 3.1 Q-18.75 3.95 -19.25 5.25 -19.25 5.85 -18.75 6.15 L-18.05 6.2 -17.9 6.15 Q-17.05 6.75 -15.95 7.0 -14.8 5.8 -13.1 6.25 L-9.25 6.65 Q-8.6 6.8 -8.2 7.35 M-0.45 2.25 L-1.25 2.1 -2.6 2.95 -2.6 3.05 Q-3.95 4.9 -6.35 4.35 L-9.2 3.9 -10.6 3.5 Q-11.45 4.1 -12.45 3.75 L-13.3 3.85 -15.25 4.0 -15.75 4.45 M-3.35 1.75 L-2.7 1.15 -2.55 0.9 -1.8 0.4 Q-4.5 -0.45 -7.05 0.8 -7.95 1.2 -8.65 1.8 L-8.85 2.25 -8.2 2.25 Q-5.8 1.4 -3.35 1.75 L-2.7 1.85 -1.25 2.1 M-2.6 2.95 L-2.6 2.65 -2.7 1.85 M-2.55 0.9 L-0.15 1.15 Q0.65 1.0 0.6 1.45 M-11.1 3.05 L-13.8 3.6 Q-14.65 3.6 -15.25 4.0 M-11.1 3.05 L-10.6 3.5 M-8.85 2.25 L-10.65 2.85 -11.1 3.05 M-0.2 -0.25 Q1.25 -1.15 2.95 -1.15" fill="none" stroke="#000000" stroke-linecap="round" stroke-linejoin="round" stroke-width="0.05"/>
  </g>
  <defs>
    <linearGradient gradientTransform="matrix(0.0097, 0.0, 0.0, 0.0081, 6.85, 1.3)" gradientUnits="userSpaceOnUse" id="gradient0" spreadMethod="pad" x1="-819.2" x2="819.2">
      <stop offset="0.0" stop-color="#42662b"/>
      <stop offset="1.0" stop-color="#c050bb"/>
    </linearGradient>
  </defs>
</svg>
