<?xml version="1.0" encoding="UTF-8" standalone="no"?>
<svg xmlns:xlink="http://www.w3.org/1999/xlink" height="19.45px" width="19.5px" xmlns="http://www.w3.org/2000/svg">
  <g transform="matrix(1.0, 0.0, 0.0, 1.0, 0.0, 0.0)">
    <path d="M1.5 -7.2 Q1.6 -8.15 2.7 -7.65 L2.75 -7.2 Q2.75 -6.5 2.15 -6.5 1.5 -6.5 1.5 -7.2 M4.2 -6.1 Q4.2 -6.75 4.95 -6.75 5.7 -6.75 5.7 -6.1 5.6 -5.25 4.95 -5.25 L4.35 -5.65 4.2 -6.1 M4.1 -1.35 L3.1 0.6 2.8 1.75 3.9 2.0 8.4 1.8 8.85 1.95 7.7 2.65 4.55 3.0 2.55 2.65 Q2.25 3.55 2.2 5.85 L4.45 5.45 5.85 5.25 4.5 6.2 Q3.35 6.85 2.15 6.9 L2.15 7.35 Q1.75 10.4 -0.8 10.4 -2.25 10.4 -1.95 9.65 -1.95 8.55 -1.2 8.25 L-0.75 8.4 Q-1.45 8.55 -1.6 8.9 L-1.65 9.4 Q-1.65 10.05 -1.35 10.05 1.1 10.05 1.35 6.85 0.35 6.6 -0.4 5.7 L-1.35 4.05 -2.25 4.8 Q-2.85 5.4 -4.05 5.4 L-4.95 5.15 -4.95 4.95 Q-3.05 5.1 -2.55 3.8 -2.15 2.75 -0.9 3.3 -0.55 3.55 0.0 4.75 0.55 5.6 1.45 5.8 L1.8 2.25 0.9 1.65 -0.5 0.3 Q-1.2 0.3 -2.25 1.55 -3.3 2.75 -4.95 2.75 -6.4 2.75 -6.9 2.2 L-7.2 1.65 -6.9 1.35 -6.4 1.75 -4.95 2.1 Q-4.4 2.1 -2.4 0.25 -0.8 -1.25 0.45 0.0 L2.0 1.3 2.5 -0.25 3.25 -1.9 Q2.0 -2.9 1.25 -2.9 -0.6 -2.9 -2.8 -1.45 -5.0 0.0 -6.3 0.0 -7.75 0.0 -8.6 -0.8 L-9.45 -1.95 -8.55 -1.25 Q-7.55 -0.6 -6.6 -0.6 -5.15 -0.6 -3.1 -2.0 L-0.5 -3.75 2.05 -3.9 Q3.05 -3.65 3.65 -3.15 L4.0 -2.85 Q5.3 -4.35 6.85 -5.3 8.85 -6.5 8.85 -5.1 L7.15 -4.05 5.05 -2.35 9.9 -2.1 Q9.9 -1.85 10.05 -1.8 9.35 -0.95 6.75 -0.95 L4.15 -1.4 4.1 -1.35 M-3.45 -8.7 Q-3.45 -8.55 -3.6 -8.5 L-3.8 -8.25 Q-3.8 -7.8 -3.05 -7.8 -2.2 -7.8 -2.25 -8.2 -2.35 -8.8 -1.95 -9.05 L-1.65 -8.45 Q-1.65 -7.2 -3.1 -7.2 -4.4 -7.2 -4.4 -8.25 L-4.4 -8.7 -3.9 -9.0 -3.55 -8.95 -3.45 -8.7 M-6.4 -2.6 L-4.8 -3.05 -4.5 -2.75 Q-5.45 -1.8 -6.45 -1.8 -7.55 -1.8 -8.35 -2.4 L-9.05 -3.3 Q-8.75 -3.45 -8.15 -3.05 -7.45 -2.6 -6.4 -2.6 M-4.0 9.95 Q-4.35 10.35 -4.85 10.35 -5.9 10.35 -5.9 9.3 -5.9 8.2 -4.8 8.2 -3.75 8.2 -3.75 9.3 L-4.0 9.95" fill="#000066" fill-rule="evenodd" stroke="none"/>
    <path d="M1.5 -7.2 Q1.6 -8.15 2.7 -7.65 L2.75 -7.2 Q2.75 -6.5 2.15 -6.5 1.5 -6.5 1.5 -7.2 M4.2 -6.1 Q4.2 -6.75 4.95 -6.75 5.7 -6.75 5.7 -6.1 5.6 -5.25 4.95 -5.25 L4.35 -5.65 4.2 -6.1 M4.1 -1.35 L3.1 0.6 2.8 1.75 3.9 2.0 8.4 1.8 8.85 1.95 7.7 2.65 4.55 3.0 2.55 2.65 Q2.25 3.55 2.2 5.85 L4.45 5.45 5.85 5.25 4.5 6.2 Q3.35 6.85 2.15 6.9 L2.15 7.35 Q1.75 10.4 -0.8 10.4 -2.25 10.4 -1.95 9.65 -1.95 8.55 -1.2 8.25 L-0.75 8.4 Q-1.45 8.55 -1.6 8.9 L-1.65 9.4 Q-1.65 10.05 -1.35 10.05 1.1 10.05 1.35 6.85 0.35 6.6 -0.4 5.7 L-1.35 4.05 -2.25 4.8 Q-2.85 5.4 -4.05 5.4 L-4.95 5.15 -4.95 4.95 Q-3.05 5.1 -2.55 3.8 -2.15 2.75 -0.9 3.3 -0.55 3.55 0.0 4.75 0.55 5.6 1.45 5.8 L1.8 2.25 0.9 1.65 -0.5 0.3 Q-1.2 0.3 -2.25 1.55 -3.3 2.75 -4.95 2.75 -6.4 2.75 -6.9 2.2 L-7.2 1.65 -6.9 1.35 -6.4 1.75 -4.95 2.1 Q-4.4 2.1 -2.4 0.25 -0.8 -1.25 0.45 0.0 L2.0 1.3 2.5 -0.25 3.25 -1.9 Q2.0 -2.9 1.25 -2.9 -0.6 -2.9 -2.8 -1.45 -5.0 0.0 -6.3 0.0 -7.75 0.0 -8.6 -0.8 L-9.45 -1.95 -8.55 -1.25 Q-7.55 -0.6 -6.6 -0.6 -5.15 -0.6 -3.1 -2.0 L-0.5 -3.75 2.05 -3.9 Q3.05 -3.65 3.65 -3.15 L4.0 -2.85 Q5.3 -4.35 6.85 -5.3 8.85 -6.5 8.85 -5.1 L7.15 -4.05 5.05 -2.35 9.9 -2.1 Q9.9 -1.85 10.05 -1.8 9.35 -0.95 6.75 -0.95 L4.15 -1.4 4.1 -1.35 M-3.45 -8.7 Q-3.45 -8.55 -3.6 -8.5 L-3.8 -8.25 Q-3.8 -7.8 -3.05 -7.8 -2.2 -7.8 -2.25 -8.2 -2.35 -8.8 -1.95 -9.05 L-1.65 -8.45 Q-1.65 -7.2 -3.1 -7.2 -4.4 -7.2 -4.4 -8.25 L-4.4 -8.7 -3.9 -9.0 -3.55 -8.95 -3.45 -8.7 M-6.4 -2.6 L-4.8 -3.05 -4.5 -2.75 Q-5.45 -1.8 -6.45 -1.8 -7.55 -1.8 -8.35 -2.4 L-9.05 -3.3 Q-8.75 -3.45 -8.15 -3.05 -7.45 -2.6 -6.4 -2.6 M-4.0 9.95 Q-4.35 10.35 -4.85 10.35 -5.9 10.35 -5.9 9.3 -5.9 8.2 -4.8 8.2 -3.75 8.2 -3.75 9.3 L-4.0 9.95 Z" fill="none" stroke="#00ffff" stroke-linecap="round" stroke-linejoin="round" stroke-width="0.05"/>
  </g>
</svg>
