<?xml version="1.0" encoding="UTF-8" standalone="no"?>
<svg xmlns:xlink="http://www.w3.org/1999/xlink" height="16.95px" width="18.3px" xmlns="http://www.w3.org/2000/svg">
  <g transform="matrix(1.0, 0.0, 0.0, 1.0, 0.0, 0.0)">
    <path d="M8.85 -6.9 Q9.45 -5.9 9.45 -5.4 9.45 -3.6 7.65 -3.6 7.2 -3.6 6.9 -4.15 L6.75 -4.7 Q6.75 -5.4 7.45 -5.4 L7.8 -5.3 Q7.4 -5.0 7.4 -4.35 L8.15 -4.2 Q8.85 -4.2 8.85 -5.05 L8.2 -6.3 Q7.5 -7.3 7.5 -7.75 L7.55 -8.25 8.1 -8.6 Q8.2 -8.0 8.85 -6.9 M2.2 -7.45 L2.55 -7.25 3.05 -7.6 Q3.25 -8.0 3.9 -8.0 L3.95 -7.55 3.7 -6.85 Q3.35 -6.35 2.65 -6.35 1.75 -6.35 1.5 -7.25 L1.5 -7.65 1.75 -7.7 2.2 -7.45 M1.65 -0.1 L1.15 1.65 Q1.85 2.45 3.35 2.45 4.35 2.45 4.65 0.75 L4.35 -0.5 Q4.05 -1.25 4.05 -2.3 L4.15 -3.25 Q4.4 -3.55 5.7 -4.05 L5.85 -3.95 5.9 -3.75 4.95 -1.55 5.2 -0.65 Q5.45 -1.15 6.15 -0.85 L8.3 0.05 Q8.6 0.05 8.75 -0.2 8.9 -0.4 9.3 -0.45 L9.35 -0.15 9.1 0.35 8.4 0.75 Q7.85 0.75 7.35 0.3 6.85 -0.2 6.35 -0.2 L5.85 0.15 5.5 0.5 5.55 0.8 5.05 2.25 Q4.4 3.35 3.5 3.35 2.25 3.35 1.35 2.7 L0.8 2.2 Q0.05 3.1 -1.1 3.3 L-1.05 3.6 Q-1.05 4.25 -1.6 4.9 -2.35 5.9 -3.95 5.9 -6.1 5.9 -7.0 3.5 -7.55 2.2 -7.55 0.95 -7.55 -2.0 -5.05 -4.95 L-2.6 -7.95 -3.15 -9.3 -3.0 -9.3 -2.6 -8.7 -2.3 -7.95 Q-2.3 -7.6 -4.3 -4.7 -6.3 -1.75 -6.3 0.95 -6.3 1.8 -5.7 3.05 -4.95 4.65 -3.9 4.65 -2.85 4.65 -2.4 3.7 L-2.2 3.25 Q-3.8 3.05 -4.4 1.55 -4.75 0.7 -4.7 -0.2 -4.7 -1.6 -2.85 -2.7 -0.95 -3.9 -0.8 -5.9 L-0.75 -5.9 Q-0.3 -5.5 -0.3 -5.0 -0.3 -4.15 -1.95 -2.55 -3.6 -0.95 -3.6 -0.3 -3.6 2.1 -1.95 2.1 0.2 2.1 0.55 0.45 0.7 -0.4 0.45 -1.7 L0.8 -1.8 Q1.7 -1.8 1.65 -0.1 M1.15 5.15 Q1.95 5.15 1.95 5.95 L1.75 6.45 Q1.55 6.8 1.1 6.8 0.3 6.8 0.3 5.95 0.3 5.15 1.15 5.15 M4.65 6.6 L4.35 6.6 4.25 6.25 Q4.25 5.9 4.65 5.85 L5.0 6.3 4.65 6.6 M-7.35 5.3 Q-6.3 6.65 -4.5 7.4 L-4.55 7.55 -4.8 7.65 Q-8.2 7.65 -8.85 3.9 -8.85 3.2 -8.55 3.0 L-7.35 5.3" fill="#ff3300" fill-rule="evenodd" stroke="none"/>
    <path d="M8.85 -6.9 Q9.45 -5.9 9.45 -5.4 9.45 -3.6 7.65 -3.6 7.2 -3.6 6.9 -4.15 L6.75 -4.7 Q6.75 -5.4 7.45 -5.4 L7.8 -5.3 Q7.4 -5.0 7.4 -4.35 L8.15 -4.2 Q8.85 -4.2 8.85 -5.05 L8.2 -6.3 Q7.5 -7.3 7.5 -7.75 L7.55 -8.25 8.1 -8.6 Q8.2 -8.0 8.85 -6.9 M2.2 -7.45 L2.55 -7.25 3.05 -7.6 Q3.25 -8.0 3.9 -8.0 L3.95 -7.55 3.7 -6.85 Q3.35 -6.35 2.65 -6.35 1.75 -6.35 1.5 -7.25 L1.5 -7.65 1.75 -7.7 2.2 -7.45 M1.65 -0.1 L1.15 1.65 Q1.85 2.45 3.35 2.45 4.35 2.45 4.65 0.75 L4.35 -0.5 Q4.05 -1.25 4.05 -2.3 L4.15 -3.25 Q4.4 -3.55 5.7 -4.05 L5.85 -3.95 5.9 -3.75 4.95 -1.55 5.2 -0.65 Q5.45 -1.15 6.15 -0.85 L8.3 0.05 Q8.6 0.05 8.75 -0.2 8.9 -0.4 9.3 -0.45 L9.35 -0.15 9.1 0.35 8.4 0.75 Q7.85 0.75 7.35 0.3 6.85 -0.2 6.35 -0.2 L5.85 0.15 5.5 0.5 5.55 0.8 5.05 2.25 Q4.4 3.35 3.5 3.35 2.25 3.35 1.35 2.7 L0.8 2.2 Q0.05 3.1 -1.1 3.3 L-1.05 3.6 Q-1.05 4.25 -1.6 4.9 -2.35 5.9 -3.95 5.9 -6.1 5.9 -7.0 3.5 -7.55 2.2 -7.55 0.95 -7.55 -2.0 -5.05 -4.95 L-2.6 -7.95 -3.15 -9.3 -3.0 -9.3 -2.6 -8.7 -2.3 -7.95 Q-2.3 -7.6 -4.3 -4.7 -6.3 -1.75 -6.3 0.95 -6.3 1.8 -5.7 3.05 -4.95 4.65 -3.9 4.65 -2.85 4.65 -2.4 3.7 L-2.2 3.25 Q-3.8 3.05 -4.4 1.55 -4.75 0.7 -4.7 -0.2 -4.7 -1.6 -2.85 -2.7 -0.95 -3.9 -0.8 -5.9 L-0.75 -5.9 Q-0.3 -5.5 -0.3 -5.0 -0.3 -4.15 -1.95 -2.55 -3.6 -0.95 -3.6 -0.3 -3.6 2.1 -1.95 2.1 0.2 2.1 0.55 0.45 0.7 -0.4 0.45 -1.7 L0.8 -1.8 Q1.7 -1.8 1.65 -0.1 M1.15 5.15 Q1.95 5.15 1.95 5.95 L1.75 6.45 Q1.55 6.8 1.1 6.8 0.3 6.8 0.3 5.95 0.3 5.15 1.15 5.15 M4.65 6.6 L4.35 6.6 4.25 6.25 Q4.25 5.9 4.65 5.85 L5.0 6.3 4.65 6.6 M-7.35 5.3 Q-6.3 6.65 -4.5 7.4 L-4.55 7.55 -4.8 7.65 Q-8.2 7.65 -8.85 3.9 -8.85 3.2 -8.55 3.0 L-7.35 5.3 Z" fill="none" stroke="#ffe500" stroke-linecap="round" stroke-linejoin="round" stroke-width="0.05"/>
  </g>
</svg>
