<?xml version="1.0" encoding="UTF-8" standalone="no"?>
<svg xmlns:xlink="http://www.w3.org/1999/xlink" height="19.15px" width="18.85px" xmlns="http://www.w3.org/2000/svg">
  <g transform="matrix(1.0, 0.0, 0.0, 1.0, 0.0, 0.0)">
    <path d="M-8.5 4.0 L-8.2 3.35 Q-7.95 3.05 -7.55 3.05 -7.15 3.05 -6.85 3.35 -6.6 3.6 -6.6 4.0 -6.6 4.4 -6.85 4.7 L-7.55 4.95 -8.2 4.7 -8.5 4.0 M9.15 -1.85 L9.35 -0.7 9.15 0.5 8.7 0.95 8.25 0.5 8.05 -0.7 8.25 -1.85 8.7 -2.35 9.15 -1.85 M8.1 -4.05 Q7.85 -4.3 7.85 -4.65 L8.1 -5.2 Q8.3 -5.45 8.65 -5.45 L9.25 -5.2 9.45 -4.65 9.25 -4.05 8.65 -3.85 Q8.3 -3.85 8.1 -4.05 M4.2 -4.45 L4.45 -5.15 Q4.85 -5.6 4.85 -6.45 L-5.15 -6.75 -5.35 -6.35 -5.75 -6.2 Q-3.4 -5.15 -0.95 -4.65 -0.1 -4.35 0.1 -3.6 L-0.2 -2.6 4.25 -2.55 Q5.55 -2.9 6.4 -2.0 L5.95 -1.15 5.95 2.65 -3.3 2.95 -2.6 5.5 Q-2.4 6.25 -1.6 6.5 L2.35 6.6 2.05 9.6 Q1.15 8.7 1.45 7.15 L-2.85 7.15 -3.95 4.9 -4.45 2.4 5.2 1.7 5.2 1.55 Q4.8 0.35 5.35 -0.9 L5.0 -1.15 -7.8 -1.8 Q-4.45 -2.6 -1.0 -2.6 -2.05 -4.35 -4.05 -4.35 -5.5 -4.35 -6.4 -5.3 L-6.9 -5.85 Q-9.05 -5.9 -9.4 -8.2 L-9.3 -8.6 Q-8.6 -10.2 -7.75 -9.1 L-8.2 -8.1 -7.75 -6.75 -6.55 -6.3 Q-5.8 -7.75 -3.95 -7.95 L-1.75 -8.1 2.25 -8.0 Q4.35 -7.95 5.6 -6.55 L5.25 -4.85 4.35 -4.4 4.2 -4.45" fill="#000000" fill-rule="evenodd" stroke="none"/>
    <path d="M4.2 -4.45 L4.35 -4.4 5.25 -4.85 5.6 -6.55 Q4.35 -7.95 2.25 -8.0 L-1.75 -8.1 -3.95 -7.95 Q-5.8 -7.75 -6.55 -6.3 L-7.75 -6.75 -8.2 -8.1 -7.75 -9.1 Q-8.6 -10.2 -9.3 -8.6 L-9.4 -8.2 Q-9.05 -5.9 -6.9 -5.85 L-6.4 -5.3 Q-5.5 -4.35 -4.05 -4.35 -2.05 -4.35 -1.0 -2.6 -4.45 -2.6 -7.8 -1.8 L5.0 -1.15 5.35 -0.9 Q4.8 0.35 5.2 1.55 L5.2 1.7 -4.45 2.4 -3.95 4.9 -2.85 7.15 1.45 7.15 Q1.15 8.7 2.05 9.6 L2.35 6.6 -1.6 6.5 Q-2.4 6.25 -2.6 5.5 L-3.3 2.95 5.95 2.65 5.95 -1.15 6.4 -2.0 Q5.55 -2.9 4.25 -2.55 L-0.2 -2.6 0.1 -3.6 Q-0.1 -4.35 -0.95 -4.65 -3.4 -5.15 -5.75 -6.2 L-5.35 -6.35 -5.15 -6.75 4.85 -6.45 Q4.85 -5.6 4.45 -5.15 L4.2 -4.45 M8.1 -4.05 Q8.3 -3.85 8.65 -3.85 L9.25 -4.05 9.45 -4.65 9.25 -5.2 8.65 -5.45 Q8.3 -5.45 8.1 -5.2 L7.85 -4.65 Q7.85 -4.3 8.1 -4.05 M9.15 -1.85 L8.7 -2.35 8.25 -1.85 8.05 -0.7 8.25 0.5 8.7 0.95 9.15 0.5 9.35 -0.7 9.15 -1.85 M-8.5 4.0 L-8.2 4.7 -7.55 4.95 -6.85 4.7 Q-6.6 4.4 -6.6 4.0 -6.6 3.6 -6.85 3.35 -7.15 3.05 -7.55 3.05 -7.95 3.05 -8.2 3.35 L-8.5 4.0 Z" fill="none" stroke="#aa66ff" stroke-linecap="round" stroke-linejoin="round" stroke-width="0.05"/>
  </g>
</svg>
