<?xml version="1.0" encoding="UTF-8" standalone="no"?>
<svg xmlns:xlink="http://www.w3.org/1999/xlink" height="15.7px" width="42.75px" xmlns="http://www.w3.org/2000/svg">
  <g transform="matrix(1.0, 0.0, 0.0, 1.0, 0.0, 0.0)">
    <path d="M17.45 -0.5 L17.0 -1.1 16.95 -2.0 Q17.4 -3.05 18.5 -3.4 19.5 -3.6 20.15 -2.7 21.1 -1.5 20.85 0.05 20.5 2.4 18.55 3.5 14.8 5.55 10.5 4.25 9.0 3.9 7.7 3.1 L3.75 0.8 Q2.9 0.25 1.95 0.0 L-0.05 0.3 0.0 0.35 0.8 0.95 2.35 2.75 2.55 3.5 Q2.5 4.2 2.1 4.7 0.2 7.2 -2.8 7.3 -4.7 7.5 -6.0 6.15 -7.25 4.8 -6.4 3.2 -4.9 1.9 -3.25 2.95 -2.7 3.25 -2.8 3.75 L-4.2 4.3 M-6.25 -4.95 L-6.35 -4.05 -4.9 -3.95 -4.4 -4.3 -3.95 -5.85 Q-4.5 -6.9 -5.6 -7.3 L-6.95 -7.2 Q-9.0 -6.65 -9.55 -4.75 -9.9 -3.35 -9.35 -2.0 L-8.75 -1.25 -7.9 -0.9 -6.05 -1.45 -2.05 -1.1 Q-1.0 -0.6 -0.05 0.3 1.5 -1.25 3.95 -1.35 L5.3 -0.75 Q6.95 0.35 8.95 0.9 11.0 1.3 12.8 0.05 L13.6 -0.7 Q15.1 -2.4 14.6 -4.7 L13.9 -5.9 Q12.4 -7.2 10.45 -6.95 9.15 -6.95 8.1 -5.9 7.5 -5.2 7.2 -4.4 6.6 -2.7 8.35 -2.1 L10.8 -2.65 10.75 -3.85 10.05 -4.0 M-0.05 0.3 L-0.1 0.35 -0.05 0.35 -0.05 0.3 M0.0 0.35 L-0.05 0.35 -0.25 0.6 -0.45 0.55 -0.85 0.5 -5.1 0.75 -6.8 1.45 -12.35 3.85 -17.15 4.5 -18.8 4.0 Q-20.4 3.45 -20.85 1.9 -20.85 -0.3 -20.05 -2.5 -19.45 -4.15 -17.8 -4.75 -14.85 -5.8 -12.75 -3.55 -11.75 -2.45 -12.45 -1.15 -13.0 -0.75 -13.6 -0.45 L-15.9 -0.5 -16.0 -0.8 Q-16.1 -1.35 -15.65 -1.8 M-0.1 0.35 L-0.45 0.55 M-0.85 0.5 L-0.1 0.35" fill="none" stroke="#000000" stroke-linecap="round" stroke-linejoin="round" stroke-width="1.0"/>
  </g>
</svg>
