<?xml version="1.0" encoding="UTF-8" standalone="no"?>
<svg xmlns:xlink="http://www.w3.org/1999/xlink" height="20.65px" width="53.25px" xmlns="http://www.w3.org/2000/svg">
  <g transform="matrix(1.0, 0.0, 0.0, 1.0, 0.0, 0.0)">
    <path d="M0.0 -1.65 L5.2 -6.4 6.5 -6.35 Q9.55 -5.7 11.45 -3.1 L11.6 -2.45 11.75 -2.4 Q12.5 -1.85 13.55 -2.1 L15.1 -2.9 16.2 -2.3 M-27.9 4.5 Q-27.35 2.95 -25.7 2.55 L-21.2 2.1 -20.05 0.45 Q-19.2 -0.5 -18.1 -0.3 L-12.95 2.3 Q-11.95 2.75 -11.3 1.65 -7.2 -5.2 -1.2 -1.6 L-0.15 -1.15 0.9 -0.45 Q2.0 -2.4 3.95 -3.15 L5.15 -3.65 5.6 -3.25 5.85 -3.3 6.5 -3.25 7.0 -3.15 7.5 -2.9 7.85 -2.6 Q8.5 4.8 12.85 1.4 L13.65 0.8 Q16.15 2.65 19.15 2.75 L20.95 1.3 24.35 1.9 M4.2 13.25 Q5.05 13.35 5.85 12.65 7.0 11.7 6.4 10.25 L2.15 9.75 2.05 8.8 Q3.3 7.1 5.3 6.3 5.3 5.65 5.0 5.3 2.7 2.55 -1.3 1.6 L-0.6 -0.75 -1.2 -1.6 Q-7.85 -0.2 -4.7 6.4 -4.35 7.2 -5.45 7.85 L-12.0 7.45 Q-11.55 8.55 -11.6 9.75 L-11.85 11.0 Q-13.65 11.15 -15.45 10.4 L-16.5 9.9 M-0.6 -0.75 L-0.15 -1.15 M-0.3 -1.65 Q-5.85 -9.6 -12.2 -2.6 -13.3 -1.35 -15.1 -2.25 L-16.5 -2.5" fill="none" stroke="#000033" stroke-linecap="round" stroke-linejoin="round" stroke-width="1.0"/>
  </g>
</svg>
