<?xml version="1.0" encoding="UTF-8" standalone="no"?>
<svg xmlns:xlink="http://www.w3.org/1999/xlink" height="18.9px" width="43.9px" xmlns="http://www.w3.org/2000/svg">
  <g transform="matrix(1.0, 0.0, 0.0, 1.0, 0.0, 0.0)">
    <path d="M23.45 -0.1 L22.7 0.2 22.0 0.3 21.6 0.3 20.3 -1.0 18.85 1.35 18.15 1.5 17.6 1.3 17.25 1.15 17.1 0.7 16.8 -2.1 Q15.8 -2.75 14.8 -2.1 13.6 -1.35 12.5 -0.05 10.95 1.6 8.95 0.7 L8.4 0.25 8.15 -1.85 Q7.45 -0.75 6.0 -0.65 L5.65 -0.75 5.3 -1.4 5.55 -4.3 Q4.4 -4.4 3.55 -3.8 1.45 -2.35 0.6 -0.15 L1.8 0.15 1.95 1.1 1.2 2.65 1.65 3.1 Q2.3 3.6 3.15 3.5 4.4 2.45 5.9 3.3 L6.4 3.75 6.35 4.85 2.65 7.9 2.15 8.65 2.1 9.15 3.05 10.2 Q4.85 10.5 6.4 9.45 L7.5 8.4 Q8.75 6.7 10.15 5.15 L10.85 4.65 11.85 5.05 10.85 7.75 12.3 7.05 13.9 7.6 14.45 7.45 14.75 7.2 14.8 7.15 14.75 6.9 M-8.6 -2.25 L-7.75 -1.8 -6.9 -2.35 -5.95 -1.9 -5.7 -2.75 Q-5.1 -4.15 -3.65 -4.25 L-3.2 -6.05 Q-2.75 -7.2 -1.75 -7.65 L-0.95 -6.3 Q0.3 -3.75 0.1 -1.2 1.25 -3.8 3.4 -5.85 4.1 -6.45 4.95 -6.9 L5.55 -4.3 Q6.65 -4.3 7.4 -3.55 8.15 -2.85 8.15 -1.85 L9.3 -2.4 10.3 -1.55 10.75 -1.35 11.35 -1.5 11.85 -2.0 M-10.8 8.75 L-8.55 8.8 -8.5 8.1 -10.95 6.2 -10.9 5.15 Q-10.1 4.5 -9.3 4.7 -6.7 5.8 -3.95 7.05 L-2.0 7.0 -1.1 6.3 -0.65 5.3 -1.0 4.65 Q-2.95 4.05 -4.3 2.6 L-4.7 1.9 -4.7 1.35 Q-3.15 -0.85 -0.45 -0.25 L-0.15 -0.15 -0.15 -0.7 Q-0.15 -2.15 -1.15 -3.2 -2.2 -4.25 -3.65 -4.25 L-3.85 -1.7 -4.75 -1.15 -5.15 -1.2 -5.55 -1.45 -5.95 -1.9 Q-5.9 -0.2 -7.15 0.6 L-7.45 0.85 Q-9.3 0.8 -10.4 -1.1 L-11.15 -1.8 Q-12.2 -2.4 -13.3 -2.25 -14.25 -0.85 -14.2 0.7 L-14.9 1.15 Q-16.05 0.85 -16.5 -0.1 L-16.9 -0.85 -17.7 -1.0 -18.2 0.75 -19.05 0.9 -19.45 0.6 M0.6 -0.15 L-0.15 -0.15 M-0.15 -0.7 L0.1 -1.2" fill="none" stroke="#000033" stroke-linecap="round" stroke-linejoin="round" stroke-width="1.0"/>
  </g>
</svg>
