<?xml version="1.0" encoding="UTF-8" standalone="no"?>
<svg xmlns:xlink="http://www.w3.org/1999/xlink" height="15.0px" width="5.05px" xmlns="http://www.w3.org/2000/svg">
  <g transform="matrix(1.0, 0.0, 0.0, 1.0, 0.0, 0.0)">
    <path d="M0.6 -0.55 Q0.2 1.45 0.15 3.45 L0.05 7.45 -0.8 7.5 -1.9 6.95 -2.55 6.5 -2.05 4.35 -1.85 3.75 Q-0.6 -0.65 -0.45 -5.35 L-0.3 -7.5 2.5 -7.45 2.5 -6.95 2.2 -5.9 1.75 -4.95 0.6 -0.55" fill="#0f263d" fill-rule="evenodd" stroke="none"/>
    <path d="M0.6 -0.55 Q0.2 1.45 0.15 3.45 L0.05 7.45 -0.8 7.5 -1.9 6.95 -2.55 6.5 -2.05 4.35 -1.85 3.75 Q-0.6 -0.65 -0.45 -5.35 L-0.3 -7.5 2.5 -7.45 2.5 -6.95 2.2 -5.9 1.75 -4.95 0.6 -0.55 Z" fill="none" stroke="#000000" stroke-linecap="round" stroke-linejoin="round" stroke-width="0.05"/>
  </g>
</svg>
