<?xml version="1.0" encoding="UTF-8" standalone="no"?>
<svg xmlns:xlink="http://www.w3.org/1999/xlink" height="42.9px" width="55.75px" xmlns="http://www.w3.org/2000/svg">
  <g transform="matrix(1.0, 0.0, 0.0, 1.0, 0.0, 0.0)">
    <path d="M4.75 -7.0 Q4.5 -9.55 6.4 -11.3 7.4 -12.2 8.85 -12.15 L14.2 -12.4 Q15.8 -12.75 16.95 -13.55 18.75 -14.65 18.85 -16.95 18.95 -18.6 17.75 -19.65 16.0 -21.25 13.7 -20.9 12.0 -20.5 11.6 -18.75 L12.3 -17.15 12.75 -17.05 13.85 -17.45 M6.35 -0.1 L7.05 -1.15 Q8.65 -1.9 10.45 -1.65 L12.6 -0.85 16.25 0.95 Q19.3 2.55 22.75 2.35 25.35 2.1 27.05 0.3 27.4 -0.1 27.4 -0.65 L27.15 -2.15 Q26.55 -4.0 24.75 -4.9 22.45 -6.05 20.6 -4.5 20.15 -4.1 20.05 -3.4 L20.05 -2.35 20.6 -1.85 20.85 -1.65 21.25 -1.65 21.55 -1.8 M3.05 4.3 Q3.5 5.0 4.65 5.05 L5.65 5.65 6.45 6.6 Q6.8 7.45 6.95 8.45 L7.5 13.45 Q7.6 15.05 8.35 16.7 L9.2 17.95 Q11.2 20.2 14.1 19.4 L16.05 18.5 Q18.45 17.3 18.2 14.75 18.15 13.9 17.4 13.7 16.5 13.35 15.6 13.15 13.9 13.55 13.8 15.15 L14.5 15.2 M-7.5 -7.0 Q-9.55 -7.0 -11.45 -6.2 -13.6 -5.25 -16.05 -5.85 -17.45 -6.15 -18.55 -7.5 -19.9 -9.1 -20.0 -11.1 -20.1 -12.95 -18.85 -14.45 -17.2 -16.35 -14.7 -16.15 L-13.65 -15.35 -13.55 -15.0 -13.5 -14.6 -13.6 -14.15 -13.95 -13.35 -14.4 -12.8 -15.0 -12.65 -15.6 -12.6 -16.0 -12.9 -16.35 -13.25 M-6.0 4.5 Q-7.4 5.2 -8.25 6.0 -9.4 7.0 -9.7 8.35 L-10.35 12.15 Q-10.7 14.6 -11.3 16.95 -11.6 18.05 -12.45 18.8 L-14.9 20.5 Q-16.55 21.5 -18.05 20.15 -19.35 18.95 -19.55 17.2 -19.95 14.05 -17.35 12.25 -15.6 13.05 -15.55 14.85 L-15.55 15.55 -16.3 16.15 -16.75 16.15 -17.1 15.75 M-10.65 0.05 L-12.7 -0.25 -14.35 0.55 -15.55 1.6 Q-18.2 4.65 -21.65 6.85 L-23.35 7.5 -24.3 7.5 Q-25.85 6.7 -26.7 5.1 -28.1 2.5 -26.5 0.1 -24.85 -0.6 -23.7 0.4 -23.35 0.7 -23.25 1.2 -23.15 1.6 -23.2 2.1 L-24.15 2.1" fill="none" stroke="#000000" stroke-linecap="round" stroke-linejoin="round" stroke-width="1.0"/>
  </g>
</svg>
