<?xml version="1.0" encoding="UTF-8" standalone="no"?>
<svg xmlns:xlink="http://www.w3.org/1999/xlink" height="35.55px" width="33.85px" xmlns="http://www.w3.org/2000/svg">
  <g transform="matrix(1.0, 0.0, 0.0, 1.0, 0.0, 0.0)">
    <path d="M16.95 17.15 L-16.9 17.15 -16.9 -18.4 16.95 -18.4 16.95 17.15" fill="url(#gradient0)" fill-rule="evenodd" stroke="none"/>
    <path d="M6.85 -7.95 Q6.55 -7.6 6.85 -7.1 L6.85 -6.8 5.8 -6.45 4.9 -5.3 M2.55 -7.05 L3.15 -7.45 3.2 -8.15 2.85 -8.8 3.85 -9.3 M10.2 -0.45 L8.55 -0.2 8.45 -0.05 8.3 0.25 8.1 0.45 7.75 0.6 8.65 1.8 9.7 1.3 10.3 1.7 10.55 1.55 M6.95 -3.1 L9.6 -3.55 M7.75 0.6 L7.45 0.2 Q7.35 0.7 7.0 0.3 L6.3 -0.2 Q5.55 -0.1 5.9 0.55 M8.85 5.7 L7.7 5.3 7.7 5.15 7.8 4.85 7.8 4.7 7.35 4.35 6.0 4.6 5.4 4.1 5.3 3.7 Q5.05 3.1 4.5 3.3 M5.2 7.9 Q4.5 7.75 4.1 7.1 L3.95 6.75 M-7.8 -2.75 L-8.9 -1.4 Q-9.7 -1.95 -10.25 -1.2 M-6.45 -5.4 L-8.4 -6.0 M-6.9 1.35 Q-7.25 1.1 -7.4 1.6 L-7.55 2.15 -6.55 2.1 M-9.65 4.0 L-9.2 2.75 -8.1 2.75 -7.95 2.7 -7.55 2.15 M-4.5 5.3 L-6.65 5.25 -6.7 5.75 -7.7 6.65 M-6.25 4.3 Q-6.85 4.35 -6.75 4.9 L-6.65 5.25 M-2.9 7.2 L-3.15 7.65 Q-3.9 7.95 -3.75 8.6 L-3.6 8.9" fill="none" stroke="#ff9900" stroke-linecap="round" stroke-linejoin="round" stroke-width="0.05"/>
  </g>
  <defs>
    <radialGradient cx="0" cy="0" gradientTransform="matrix(0.0135, 0.0, 0.0, 0.0135, 0.0, -0.05)" gradientUnits="userSpaceOnUse" id="gradient0" r="819.2" spreadMethod="pad">
      <stop offset="0.07058823529411765" stop-color="#feff89"/>
      <stop offset="0.23529411764705882" stop-color="#ffad24"/>
      <stop offset="1.0" stop-color="#4d0000"/>
    </radialGradient>
  </defs>
</svg>
