<?xml version="1.0" encoding="UTF-8" standalone="no"?>
<svg xmlns:xlink="http://www.w3.org/1999/xlink" height="21.35px" width="21.7px" xmlns="http://www.w3.org/2000/svg">
  <g transform="matrix(1.0, 0.0, 0.0, 1.0, 0.0, 0.0)">
    <path d="M-7.05 -2.6 L-6.25 -6.25 -5.55 -5.4 -5.3 -5.8 Q-5.1 -6.3 -5.05 -6.75 L-4.95 -7.85 -4.85 -8.05 -1.55 -6.9 -1.5 -6.1 Q-1.8 -5.15 -2.6 -4.2 -3.65 -2.9 -3.9 -1.0 L-5.35 -5.2 -5.65 1.0 -6.45 -0.75 -7.05 -2.6" fill="#000000" fill-rule="evenodd" stroke="none"/>
    <path d="M-3.9 -1.0 L-2.6 0.8 -2.6 0.0 -2.55 -0.15 -0.4 -0.35 -0.5 -2.35 1.0 -1.2 1.8 -2.55 1.6 -3.15 3.2 -3.7 4.75 -7.25 4.1 -8.45 5.05 -8.95 6.6 -9.2 6.9 -9.15 7.05 -9.1 Q8.0 -9.65 9.35 -9.8 9.95 -9.7 10.5 -9.3 L11.65 -8.35 12.1 -8.0 12.15 -7.2 10.35 -8.05 8.4 -7.5 8.6 -5.9 9.45 -4.65 Q9.7 -3.0 9.15 -1.45 L8.95 -1.0 Q8.75 -2.8 7.5 -4.0 L7.0 -4.45 3.9 -0.7 1.6 1.55 0.15 2.6 Q0.35 5.1 -0.85 7.1 L-1.6 8.35 -1.85 6.85 -1.75 4.8 -1.8 2.85 -3.4 3.0 Q-4.75 5.6 -5.7 8.15 L-6.2 9.2 Q-6.7 10.25 -6.8 11.55 -7.6 7.1 -5.95 3.0 L-5.8 2.6 -6.55 2.35 -9.55 5.7 -9.4 5.05 Q-9.0 3.05 -7.7 1.55 L-8.65 -1.8 -7.95 -0.55 -8.05 -4.7 -7.9 -5.25 -7.75 -5.45 -7.05 -2.6 -6.45 -0.75 -5.65 1.0 -5.35 -5.2 -3.9 -1.0" fill="#21120a" fill-rule="evenodd" stroke="none"/>
  </g>
</svg>
