<?xml version="1.0" encoding="UTF-8" standalone="no"?>
<svg xmlns:xlink="http://www.w3.org/1999/xlink" height="12.5px" width="17.25px" xmlns="http://www.w3.org/2000/svg">
  <g transform="matrix(1.0, 0.0, 0.0, 1.0, 0.0, 0.0)">
    <path d="M-3.9 -1.0 L-2.6 0.8 -2.6 0.0 -2.55 -0.2 -0.4 -0.35 -0.5 -2.35 1.0 -1.2 1.5 -1.9 Q1.95 -2.6 1.6 -3.15 L2.8 -3.55 3.4 -4.0 3.8 -5.05 4.75 -7.25 4.1 -8.45 Q4.95 -9.45 5.95 -9.4 7.55 -9.25 8.2 -8.0 8.7 -7.05 8.6 -5.95 L6.9 -4.35 6.0 -3.25 Q4.25 -0.45 1.65 1.6 L-0.1 2.7 -4.25 3.05 -4.25 3.1 -7.2 2.15 -7.9 1.3 -8.65 -1.8 -7.95 -0.55 -8.35 -4.1 -7.9 -5.25 -7.6 -5.5 -7.05 -2.6 Q-6.65 -0.65 -5.65 1.0 L-5.5 0.9 -5.35 -5.2 -3.9 -1.0 -5.35 -5.2 -5.5 0.9 -5.65 1.0 Q-6.65 -0.65 -7.05 -2.6 L-6.25 -6.25 -5.55 -5.4 -5.25 -5.8 Q-4.75 -6.75 -4.95 -7.85 L-4.85 -8.05 -1.55 -6.9 Q-1.35 -6.0 -1.8 -5.5 -2.8 -4.35 -3.4 -3.0 -3.85 -2.1 -3.9 -1.0 M-7.3 1.05 L-7.95 -0.55 -7.3 1.05" fill="url(#gradient0)" fill-rule="evenodd" stroke="none"/>
    <path d="M-7.95 -0.55 L-8.65 -1.8 -7.9 1.3 -7.2 2.15 -4.25 3.1 -4.25 3.05 -0.1 2.7 1.65 1.6 Q4.25 -0.45 6.0 -3.25 L6.9 -4.35 8.6 -5.95 Q8.7 -7.05 8.2 -8.0 7.55 -9.25 5.95 -9.4 4.95 -9.45 4.1 -8.45 L4.75 -7.25 3.8 -5.05 3.4 -4.0 2.8 -3.55 1.6 -3.15 Q1.95 -2.6 1.5 -1.9 L1.0 -1.2 -0.5 -2.35 -0.4 -0.35 -2.55 -0.2 -2.6 0.0 -2.6 0.8 -3.9 -1.0 -5.35 -5.2 -5.5 0.9 -5.65 1.0 Q-6.65 -0.65 -7.05 -2.6 L-7.6 -5.5 -7.9 -5.25 -8.35 -4.1 -7.95 -0.55 -7.3 1.05 M-4.95 -7.85 Q-4.75 -6.75 -5.25 -5.8 L-5.55 -5.4 -6.25 -6.25 -7.05 -2.6 M-4.85 -8.05 L-1.55 -6.9 Q-1.35 -6.0 -1.8 -5.5 -2.8 -4.35 -3.4 -3.0 -3.85 -2.1 -3.9 -1.0 M-4.95 -7.85 L-4.9 -8.05 -4.85 -8.05" fill="none" stroke="#00ffcc" stroke-linecap="round" stroke-linejoin="round" stroke-width="0.05"/>
  </g>
  <defs>
    <radialGradient cx="0" cy="0" gradientTransform="matrix(0.0163, 0.0, 0.0, 0.0198, -3.4, -9.4)" gradientUnits="userSpaceOnUse" id="gradient0" r="819.2" spreadMethod="pad">
      <stop offset="0.0" stop-color="#66ffd1" stop-opacity="0.72156864"/>
      <stop offset="0.8196078431372549" stop-color="#0fca51" stop-opacity="0.43137255"/>
      <stop offset="1.0" stop-color="#91ffae" stop-opacity="0.8235294"/>
    </radialGradient>
  </defs>
</svg>
