<?xml version="1.0" encoding="UTF-8" standalone="no"?>
<svg xmlns:xlink="http://www.w3.org/1999/xlink" height="26.7px" width="26.0px" xmlns="http://www.w3.org/2000/svg">
  <g transform="matrix(1.0, 0.0, 0.0, 1.0, 0.0, 0.0)">
    <path d="M-4.8 -12.65 Q-0.8 -14.8 4.55 -13.85 L4.55 -12.75 4.1 -12.55 Q1.8 -12.45 -0.15 -11.5 L0.5 -10.15 -0.15 -9.05 Q-2.35 -8.65 -3.9 -7.15 L-3.85 -7.05 2.15 -8.4 2.25 -10.25 4.5 -10.15 4.7 -10.2 Q5.8 -10.1 6.65 -10.55 L7.15 -12.3 Q15.7 -6.1 9.5 2.0 L9.25 2.35 8.9 2.5 6.85 2.9 8.8 0.65 Q7.95 -0.75 6.65 -1.65 L5.9 -2.1 6.65 -1.65 Q7.95 -0.75 8.8 0.65 L6.85 2.9 6.35 3.75 5.45 4.25 5.65 4.95 4.7 5.45 Q9.15 8.4 6.2 12.55 5.2 7.25 0.0 5.45 0.7 7.2 0.25 8.35 -0.55 8.2 -1.05 7.5 -2.2 5.85 -3.25 5.2 -4.25 6.75 -3.15 8.45 -5.35 6.65 -6.65 4.1 -7.6 5.9 -6.95 7.85 -8.2 6.55 -8.75 5.0 L-9.0 5.35 Q-9.75 6.7 -9.1 8.3 -11.4 7.2 -11.45 4.25 L-10.85 3.5 Q-9.25 2.15 -10.1 0.6 -7.55 0.05 -7.0 -2.1 L-7.7 -3.0 -10.4 -3.45 -10.95 -3.15 -10.85 -4.25 -11.25 -4.75 -11.25 -6.15 -10.2 -7.55 -9.35 -8.75 Q-7.35 -11.35 -4.8 -12.65 L-4.7 -10.85 -3.6 -10.45 -2.15 -10.55 -1.75 -9.55 -2.15 -10.55 -3.6 -10.45 -4.7 -10.85 -4.8 -12.65 M3.15 5.1 Q2.85 5.95 2.1 5.55 1.7 5.05 1.7 4.45 3.3 2.3 6.15 1.7 7.15 1.4 7.05 0.55 L6.65 -0.1 5.15 -0.15 5.3 0.6 6.0 0.5 5.3 0.6 5.15 -0.15 6.65 -0.1 7.05 0.55 Q7.15 1.4 6.15 1.7 3.3 2.3 1.7 4.45 1.7 5.05 2.1 5.55 2.85 5.95 3.15 5.1 M10.95 -4.85 L10.55 -4.3 Q9.95 -4.15 9.45 -4.65 L8.4 -5.7 7.4 -5.75 Q5.45 -5.25 4.3 -3.85 L3.55 -3.75 2.5 -4.25 2.2 -4.75 1.4 -5.55 0.95 -5.95 -1.0 -5.4 -2.85 -4.7 -5.6 -4.45 Q-6.75 -4.8 -7.5 -5.75 L-9.35 -8.75 -7.5 -5.75 Q-6.75 -4.8 -5.6 -4.45 L-2.85 -4.7 -1.0 -5.4 0.95 -5.95 1.4 -5.55 2.2 -4.75 2.5 -4.25 3.55 -3.75 4.3 -3.85 Q5.45 -5.25 7.4 -5.75 L8.4 -5.7 9.45 -4.65 Q9.95 -4.15 10.55 -4.3 L10.95 -4.85 M10.05 -7.65 Q8.9 -7.4 8.25 -8.25 L8.0 -8.45 2.85 -8.7 8.0 -8.45 8.25 -8.25 Q8.9 -7.4 10.05 -7.65 M1.4 2.65 L2.45 2.0 3.0 1.65 3.35 -0.4 Q0.05 -5.5 -4.85 -2.55 L-4.8 -2.25 Q-3.55 2.45 1.4 2.65 M-7.15 2.05 L-6.5 3.5 -6.3 2.95 Q-5.15 1.2 -6.1 -1.05 -7.4 0.25 -7.15 2.05" fill="url(#gradient0)" fill-rule="evenodd" stroke="none"/>
    <path d="M4.5 -10.15 L2.25 -10.25 2.15 -8.4 -3.85 -7.05 -3.9 -7.15 Q-2.35 -8.65 -0.15 -9.05 L0.5 -10.15 -0.15 -11.5 Q1.8 -12.45 4.1 -12.55 3.6 -11.45 4.05 -10.5 L4.5 -10.15 M1.4 2.65 Q-3.55 2.45 -4.8 -2.25 L-4.85 -2.55 Q0.05 -5.5 3.35 -0.4 L3.0 1.65 2.45 2.0 1.4 2.65 Q-3.95 0.45 -1.25 -2.4 1.15 -2.6 1.1 0.0 L0.25 0.45 -0.55 0.35 -1.0 -0.35 -0.55 0.35 0.25 0.45 1.1 0.0 Q1.15 -2.6 -1.25 -2.4 -3.95 0.45 1.4 2.65 M-10.95 -3.15 L-10.4 -3.45 -7.7 -3.0 -7.0 -2.1 Q-7.55 0.05 -10.1 0.6 L-10.9 0.95 -12.7 0.7 -13.9 0.15 Q-14.0 -2.65 -10.95 -3.15 M-12.7 0.7 Q-12.05 0.4 -11.2 0.7 -8.95 -0.1 -8.75 -2.2 L-11.45 -2.25 -12.0 -1.55 Q-11.65 -0.6 -10.55 -0.7 L-10.3 -0.85 Q-9.8 -1.4 -10.55 -1.5 -9.8 -1.4 -10.3 -0.85 L-10.55 -0.7 Q-11.65 -0.6 -12.0 -1.55 L-11.45 -2.25 -8.75 -2.2 Q-8.95 -0.1 -11.2 0.7 -12.05 0.4 -12.7 0.7 M-7.15 2.05 Q-7.4 0.25 -6.1 -1.05 -5.15 1.2 -6.3 2.95 L-6.5 3.5 -7.15 2.05" fill="#e78d1e" fill-rule="evenodd" stroke="none"/>
    <path d="M4.55 -12.75 L4.55 -13.85 Q-0.8 -14.8 -4.8 -12.65 -7.35 -11.35 -9.35 -8.75 L-10.2 -7.55 -11.25 -6.15 -11.25 -4.75 -10.85 -4.25 -10.95 -3.15 M6.85 2.9 L8.8 0.65 Q7.95 -0.75 6.65 -1.65 L5.9 -2.1 M6.85 2.9 L8.9 2.5 9.25 2.35 9.5 2.0 Q15.7 -6.1 7.15 -12.3 M-10.1 0.6 Q-9.25 2.15 -10.85 3.5 L-11.45 4.25 Q-11.4 7.2 -9.1 8.3 -9.75 6.7 -9.0 5.35 L-8.75 5.0 Q-8.2 6.55 -6.95 7.85 -7.6 5.9 -6.65 4.1 -5.35 6.65 -3.15 8.45 -4.25 6.75 -3.25 5.2 -2.2 5.85 -1.05 7.5 -0.55 8.2 0.25 8.35 0.7 7.2 0.0 5.45 5.2 7.25 6.2 12.55 9.15 8.4 4.7 5.45 L5.65 4.95 5.45 4.25 6.35 3.75 6.85 2.9" fill="none" stroke="#6600ff" stroke-linecap="round" stroke-linejoin="round" stroke-width="0.05"/>
    <path d="M-4.8 -12.65 L-4.7 -10.85 -3.6 -10.45 -2.15 -10.55 -1.75 -9.55 M4.1 -12.55 L4.55 -12.75 M7.15 -12.3 L6.65 -10.55 Q5.8 -10.1 4.7 -10.2 L4.5 -10.15 2.25 -10.25 2.15 -8.4 -3.85 -7.05 -3.9 -7.15 Q-2.35 -8.65 -0.15 -9.05 L0.5 -10.15 -0.15 -11.5 Q1.8 -12.45 4.1 -12.55 3.6 -11.45 4.05 -10.5 L4.5 -10.15 M2.85 -8.7 L8.0 -8.45 8.25 -8.25 Q8.9 -7.4 10.05 -7.65 M-9.35 -8.75 L-7.5 -5.75 Q-6.75 -4.8 -5.6 -4.45 L-2.85 -4.7 -1.0 -5.4 0.95 -5.95 1.4 -5.55 2.2 -4.75 2.5 -4.25 3.55 -3.75 4.3 -3.85 Q5.45 -5.25 7.4 -5.75 L8.4 -5.7 9.45 -4.65 Q9.95 -4.15 10.55 -4.3 L10.95 -4.85 M6.0 0.5 L5.3 0.6 5.15 -0.15 6.65 -0.1 7.05 0.55 Q7.15 1.4 6.15 1.7 3.3 2.3 1.7 4.45 1.7 5.05 2.1 5.55 2.85 5.95 3.15 5.1 M1.4 2.65 L2.45 2.0 3.0 1.65 3.35 -0.4 Q0.05 -5.5 -4.85 -2.55 L-4.8 -2.25 Q-3.55 2.45 1.4 2.65 -3.95 0.45 -1.25 -2.4 1.15 -2.6 1.1 0.0 L0.25 0.45 -0.55 0.35 -1.0 -0.35 M-10.95 -3.15 L-10.4 -3.45 -7.7 -3.0 -7.0 -2.1 Q-7.55 0.05 -10.1 0.6 L-10.9 0.95 -12.7 0.7 -13.9 0.15 Q-14.0 -2.65 -10.95 -3.15 M-10.55 -1.5 Q-9.8 -1.4 -10.3 -0.85 L-10.55 -0.7 Q-11.65 -0.6 -12.0 -1.55 L-11.45 -2.25 -8.75 -2.2 Q-8.95 -0.1 -11.2 0.7 -12.05 0.4 -12.7 0.7 M-7.15 2.05 Q-7.4 0.25 -6.1 -1.05 -5.15 1.2 -6.3 2.95 L-6.5 3.5 -7.15 2.05 Z" fill="none" stroke="#99ff00" stroke-linecap="round" stroke-linejoin="round" stroke-width="0.05"/>
  </g>
  <defs>
    <radialGradient cx="0" cy="0" gradientTransform="matrix(0.0204, 0.0, 0.0, 0.0198, -5.65, -1.85)" gradientUnits="userSpaceOnUse" id="gradient0" r="819.2" spreadMethod="pad">
      <stop offset="0.0" stop-color="#c28bda" stop-opacity="0.72156864"/>
      <stop offset="0.8196078431372549" stop-color="#4227ad" stop-opacity="0.43137255"/>
      <stop offset="1.0" stop-color="#000000" stop-opacity="0.43137255"/>
    </radialGradient>
  </defs>
</svg>
