<?xml version="1.0" encoding="UTF-8" standalone="no"?>
<svg xmlns:xlink="http://www.w3.org/1999/xlink" height="56.25px" width="31.2px" xmlns="http://www.w3.org/2000/svg">
  <g transform="matrix(1.0, 0.0, 0.0, 1.0, 0.0, 0.0)">
    <path d="M-13.8 -0.85 Q-13.1 -2.45 -11.55 -2.9 L-10.6 -2.75 Q-8.15 -1.45 -9.15 1.2 -9.5 2.15 -10.45 2.5 L-12.2 2.4 -12.9 2.2 -13.1 1.95 Q-14.05 0.7 -13.8 -0.85 M5.0 -1.05 Q4.95 0.25 3.95 1.35 L2.9 2.35 Q1.9 2.9 0.6 3.15 L-1.8 2.4 Q-3.85 1.2 -4.2 -1.0 -4.3 -2.6 -3.25 -3.95 -1.6 -6.1 1.15 -5.6 4.2 -5.1 4.9 -2.15 L5.0 -1.05" fill="#ffffff" fill-rule="evenodd" stroke="none"/>
    <path d="M1.0 -44.2 L1.5 -44.35 Q2.0 -44.05 2.5 -43.8 2.95 -42.6 2.45 -41.65 L1.5 -41.15 0.45 -41.85 Q0.25 -42.75 0.65 -43.6 L1.0 -44.2 M-10.55 -37.6 Q-8.75 -37.65 -8.3 -36.0 -7.8 -34.0 -8.85 -32.15 -9.8 -30.45 -8.45 -28.95 -9.95 -28.7 -10.75 -29.8 -11.3 -30.5 -11.15 -31.45 L-10.7 -34.05 -12.0 -36.25 -11.1 -37.3 -10.55 -37.6" fill="url(#gradient0)" fill-rule="evenodd" stroke="none"/>
    <path d="M-13.8 -0.85 L-15.05 -3.4 -15.4 -4.7 -15.15 -7.5 Q-14.8 -8.9 -14.05 -10.1 L-12.25 -12.2 Q-10.5 -13.65 -9.35 -15.35 -8.8 -16.15 -8.5 -17.05 -7.85 -18.8 -9.0 -20.6 -9.55 -21.45 -10.55 -22.0 -9.0 -21.85 -7.85 -20.95 -6.65 -20.05 -6.5 -18.7 -6.35 -17.75 -5.65 -16.85 -5.0 -16.05 -3.9 -16.2 -2.7 -16.3 -2.3 -17.55 -2.0 -18.6 -2.15 -19.6 -2.4 -20.95 -3.1 -22.35 L-3.5 -24.0 Q-3.55 -24.85 -3.2 -25.55 -1.7 -28.95 1.45 -30.65 L1.9 -30.35 3.3 -30.45 2.55 -29.5 1.75 -28.7 Q0.6 -27.4 1.05 -25.85 L1.95 -23.8 Q2.45 -22.75 3.55 -22.55 3.9 -22.65 4.25 -22.85 5.35 -23.35 5.35 -24.6 L5.25 -26.5 6.3 -26.8 Q7.2 -26.9 7.9 -26.2 9.05 -24.85 8.2 -23.3 L8.45 -22.2 Q9.25 -19.6 11.4 -18.1 L13.3 -16.5 14.6 -14.9 15.65 -12.4 Q16.0 -11.05 15.55 -9.9 L14.5 -8.05 13.6 -6.95 Q12.8 -5.75 12.6 -4.35 12.35 -2.1 12.65 0.1 11.05 -0.9 10.8 -2.95 10.5 -5.6 10.85 -8.45 L9.75 -6.7 Q9.3 -5.75 9.15 -4.7 L8.9 -1.8 8.65 1.2 Q8.35 3.3 7.25 5.45 L7.2 4.75 5.25 2.3 5.7 4.7 Q6.0 6.65 5.15 8.45 4.65 9.45 4.05 9.05 4.05 6.8 3.0 4.85 L1.8 9.7 Q0.65 9.6 -0.3 8.65 -1.4 7.5 -1.5 5.75 -4.0 8.3 -3.65 11.9 L-4.6 10.45 Q-6.05 7.95 -6.95 5.15 -7.55 8.3 -10.2 10.1 L-10.7 10.35 -10.6 10.15 -10.35 10.05 Q-9.15 7.25 -10.25 4.25 -12.1 6.15 -12.1 8.75 L-12.55 7.65 -13.35 5.25 Q-13.7 4.1 -12.9 2.2 L-12.2 2.4 -10.45 2.5 Q-9.5 2.15 -9.15 1.2 -8.15 -1.45 -10.6 -2.75 L-11.55 -2.9 Q-13.1 -2.45 -13.8 -0.85 M5.0 -1.05 L4.9 -2.15 Q4.2 -5.1 1.15 -5.6 -1.6 -6.1 -3.25 -3.95 -4.3 -2.6 -4.2 -1.0 -3.85 1.2 -1.8 2.4 L0.6 3.15 Q1.9 2.9 2.9 2.35 L3.95 1.35 Q4.95 0.25 5.0 -1.05 M7.25 -9.65 L-7.0 -7.55 -6.65 3.35 -7.0 -7.55 7.25 -9.65 M-7.25 -11.45 L-7.0 -7.55 -14.2 -6.9 -7.0 -7.55 -7.25 -11.45" fill="url(#gradient1)" fill-rule="evenodd" stroke="none"/>
    <path d="M1.0 -44.2 L1.5 -44.35 Q2.0 -44.05 2.5 -43.8 2.95 -42.6 2.45 -41.65 L1.5 -41.15 0.45 -41.85 Q0.25 -42.75 0.65 -43.6 L1.0 -44.2 M-12.9 2.2 Q-13.7 4.1 -13.35 5.25 L-12.55 7.65 -12.1 8.75 Q-12.1 6.15 -10.25 4.25 -9.15 7.25 -10.35 10.05 L-10.6 10.15 -10.7 10.35 -10.2 10.1 Q-7.55 8.3 -6.95 5.15 -6.05 7.95 -4.6 10.45 L-3.65 11.9 Q-4.0 8.3 -1.5 5.75 -1.4 7.5 -0.3 8.65 0.65 9.6 1.8 9.7 L3.0 4.85 Q4.05 6.8 4.05 9.05 4.65 9.45 5.15 8.45 6.0 6.65 5.7 4.7 L5.25 2.3 7.2 4.75 7.25 5.45 Q8.35 3.3 8.65 1.2 L8.9 -1.8 9.15 -4.7 Q9.3 -5.75 9.75 -6.7 L10.85 -8.45 Q10.5 -5.6 10.8 -2.95 11.05 -0.9 12.65 0.1 12.35 -2.1 12.6 -4.35 12.8 -5.75 13.6 -6.95 L14.5 -8.05 15.55 -9.9 Q16.0 -11.05 15.65 -12.4 L14.6 -14.9 13.3 -16.5 11.4 -18.1 Q9.25 -19.6 8.45 -22.2 L8.2 -23.3 Q9.05 -24.85 7.9 -26.2 7.2 -26.9 6.3 -26.8 L5.25 -26.5 5.35 -24.6 Q5.35 -23.35 4.25 -22.85 3.9 -22.65 3.55 -22.55 2.45 -22.75 1.95 -23.8 L1.05 -25.85 Q0.6 -27.4 1.75 -28.7 L2.55 -29.5 3.3 -30.45 1.9 -30.35 1.45 -30.65 Q-1.7 -28.95 -3.2 -25.55 -3.55 -24.85 -3.5 -24.0 L-3.1 -22.35 Q-2.4 -20.95 -2.15 -19.6 -2.0 -18.6 -2.3 -17.55 -2.7 -16.3 -3.9 -16.2 -5.0 -16.05 -5.65 -16.85 -6.35 -17.75 -6.5 -18.7 -6.65 -20.05 -7.85 -20.95 -9.0 -21.85 -10.55 -22.0 -9.55 -21.45 -9.0 -20.6 -7.85 -18.8 -8.5 -17.05 -8.8 -16.15 -9.35 -15.35 -10.5 -13.65 -12.25 -12.2 L-14.05 -10.1 Q-14.8 -8.9 -15.15 -7.5 L-15.4 -4.7 -15.05 -3.4 -13.8 -0.85 Q-13.1 -2.45 -11.55 -2.9 L-10.6 -2.75 Q-8.15 -1.45 -9.15 1.2 -9.5 2.15 -10.45 2.5 L-12.2 2.4 -12.9 2.2 -13.1 1.95 Q-14.05 0.7 -13.8 -0.85 M5.0 -1.05 Q4.95 0.25 3.95 1.35 L2.9 2.35 Q1.9 2.9 0.6 3.15 L-1.8 2.4 Q-3.85 1.2 -4.2 -1.0 -4.3 -2.6 -3.25 -3.95 -1.6 -6.1 1.15 -5.6 4.2 -5.1 4.9 -2.15 L5.0 -1.05 M-10.55 -37.6 Q-8.75 -37.65 -8.3 -36.0 -7.8 -34.0 -8.85 -32.15 -9.8 -30.45 -8.45 -28.95 -9.95 -28.7 -10.75 -29.8 -11.3 -30.5 -11.15 -31.45 L-10.7 -34.05 -12.0 -36.25 -11.1 -37.3 -10.55 -37.6 M-14.2 -6.9 L-7.0 -7.55 -7.25 -11.45 M-6.65 3.35 L-7.0 -7.55 7.25 -9.65" fill="none" stroke="#ff33ff" stroke-linecap="round" stroke-linejoin="round" stroke-width="0.05"/>
  </g>
  <defs>
    <radialGradient cx="0" cy="0" fx="19.200000000000003" fy="0" gradientTransform="matrix(0.0261, 0.005, -0.0073, 0.0381, -6.05, -17.2)" gradientUnits="userSpaceOnUse" id="gradient0" r="819.2" spreadMethod="pad">
      <stop offset="0.0" stop-color="#f4b5ee" stop-opacity="0.83137256"/>
      <stop offset="0.30196078431372547" stop-color="#ec79e1" stop-opacity="0.72156864"/>
      <stop offset="0.8196078431372549" stop-color="#db359f" stop-opacity="0.43137255"/>
      <stop offset="1.0" stop-color="#3e0944" stop-opacity="0.43137255"/>
    </radialGradient>
    <radialGradient cx="0" cy="0" fx="19.200000000000003" fy="0" gradientTransform="matrix(0.0261, 0.005, -0.0073, 0.0381, -6.05, -17.2)" gradientUnits="userSpaceOnUse" id="gradient1" r="819.2" spreadMethod="pad">
      <stop offset="0.0" stop-color="#f4b5ee" stop-opacity="0.83137256"/>
      <stop offset="0.30196078431372547" stop-color="#ec79e1" stop-opacity="0.72156864"/>
      <stop offset="0.4627450980392157" stop-color="#6be0bc" stop-opacity="0.6431373"/>
      <stop offset="0.8196078431372549" stop-color="#db359f" stop-opacity="0.43137255"/>
      <stop offset="1.0" stop-color="#3e0944" stop-opacity="0.43137255"/>
    </radialGradient>
  </defs>
</svg>
