<?xml version="1.0" encoding="UTF-8" standalone="no"?>
<svg xmlns:xlink="http://www.w3.org/1999/xlink" height="28.9px" width="34.25px" xmlns="http://www.w3.org/2000/svg">
  <g transform="matrix(1.0, 0.0, 0.0, 1.0, 0.0, 0.0)">
    <path d="M-11.45 -0.45 L-11.35 -0.55 -11.65 -0.6 -11.7 -3.25 -10.75 -2.85 Q-9.9 -2.5 -9.2 -1.9 L-8.15 -0.8 Q-11.7 0.1 -11.45 -0.45 M4.1 -2.1 L0.1 -1.05 -4.1 0.05 Q-4.45 0.1 -4.0 0.25 L-6.15 -0.25 -6.35 -0.95 Q-4.95 -2.9 -2.25 -3.2 0.4 -3.65 2.8 -2.6 L4.1 -2.1 M-10.5 -1.75 L-10.65 -1.4 -10.1 -0.9 -9.75 -1.05 -9.6 -1.4 Q-9.6 -1.8 -9.75 -1.8 L-10.5 -1.75 M-4.2 -0.45 Q-3.6 -0.45 -3.6 -1.2 -3.6 -1.9 -4.2 -1.85 -4.85 -1.8 -4.85 -1.2 L-4.8 -0.65 -4.2 -0.45" fill="#ff0000" fill-rule="evenodd" stroke="none"/>
    <path d="M5.4 1.0 L4.45 2.5 2.3 2.35 1.5 1.6 Q0.35 0.35 0.95 -1.0 1.55 -1.0 3.45 0.4 4.35 1.05 5.4 1.0 M7.05 -11.55 L5.0 -11.1 Q2.55 -10.45 0.75 -9.2 L-0.9 -7.65 Q-2.0 -6.65 -3.15 -6.75 L-3.4 -6.65 -3.65 -6.8 0.2 -9.95 Q1.8 -11.15 2.5 -11.4 L6.9 -11.85 7.05 -11.55 M0.3 -4.8 Q-0.25 -4.35 -0.5 -4.35 -1.95 -4.35 -1.95 -5.65 -1.95 -7.35 2.65 -6.3 7.25 -5.25 7.25 -4.85 L7.2 -4.55 6.8 -4.55 2.85 -4.9 Q2.4 -5.25 1.35 -5.25 0.9 -5.25 0.3 -4.8 M15.75 -10.25 Q15.8 -9.2 16.55 -8.7 16.5 -8.55 16.2 -8.55 15.5 -8.55 15.15 -9.9 15.0 -10.6 15.0 -11.4 15.0 -11.75 15.35 -11.75 15.7 -11.4 15.75 -10.25 M12.0 -10.35 L11.75 -8.55 Q11.75 -8.05 12.2 -7.25 L12.2 -7.2 Q12.35 -7.05 12.0 -7.05 11.3 -7.05 11.1 -7.75 L11.1 -8.6 11.2 -9.55 Q11.35 -10.15 12.0 -10.35 M-3.3 -12.75 L-4.35 -11.05 -5.45 -9.15 -5.9 -9.0 -5.95 -8.95 -6.05 -9.2 Q-6.05 -9.9 -5.15 -11.35 -4.15 -12.9 -3.35 -12.95 L-3.3 -12.75 M-10.65 -10.95 L-11.05 -10.05 Q-11.5 -9.45 -12.05 -9.45 L-12.65 -9.6 Q-11.95 -9.95 -11.55 -10.75 -11.3 -11.3 -10.7 -11.15 L-10.65 -10.95 M-11.3 -5.85 L-9.6 -5.75 -9.45 -5.55 Q-10.1 -5.1 -10.4 -5.1 -11.0 -5.1 -11.3 -5.85 M-5.55 -3.35 L-4.35 -4.45 -4.25 -5.35 Q-4.25 -7.5 -6.0 -7.5 -7.55 -7.5 -8.0 -5.95 -8.35 -4.95 -8.1 -3.95 L-8.1 -3.8 Q-9.0 -4.25 -9.0 -5.1 -9.0 -7.85 -6.4 -8.05 -3.8 -8.25 -3.8 -5.4 L-3.9 -4.2 Q-4.15 -3.55 -5.15 -3.15 L-5.55 -3.35 M-6.3 -3.5 L-7.05 -0.55 Q-7.8 2.15 -7.8 3.0 L-7.6 3.35 -7.4 3.7 -7.6 4.35 Q-7.95 4.8 -8.55 4.8 -9.15 4.8 -9.45 4.35 L-9.6 3.8 -7.8 -0.5 -7.4 -2.9 Q-7.1 -4.45 -6.6 -4.55 L-6.3 -3.5" fill="#000000" fill-rule="evenodd" stroke="none"/>
    <path d="M-11.7 -3.25 L-11.85 -5.5 -11.7 -6.1 -13.75 -10.15 -14.15 -11.7 Q-14.35 -14.9 -12.45 -17.3 -12.75 -15.6 -12.05 -14.05 -11.05 -11.7 -8.8 -10.25 -7.0 -12.05 -4.75 -13.2 L-2.15 -14.1 3.2 -15.2 Q6.4 -15.6 8.35 -13.25 L10.2 -10.7 Q12.6 -11.15 14.95 -12.45 L16.6 -13.6 18.05 -15.0 19.95 -17.55 20.0 -13.0 Q19.75 -10.75 18.05 -9.4 L15.75 -7.6 Q14.05 -6.35 11.95 -5.55 11.25 -5.2 10.55 -4.95 L8.6 -0.4 7.4 0.1 Q6.35 0.9 5.4 1.0 4.35 1.05 3.45 0.4 1.55 -1.0 0.95 -1.0 0.35 0.35 1.5 1.6 L2.3 2.35 4.45 2.5 5.9 2.6 6.45 3.1 6.6 4.15 5.15 4.45 4.5 4.55 4.35 6.45 2.5 6.85 2.15 5.9 1.0 5.95 0.45 7.35 0.0 8.05 -0.2 8.0 -0.55 7.3 -0.65 7.05 -1.55 8.3 -2.25 8.55 -2.2 7.6 -2.5 7.15 -3.05 7.55 -3.95 9.95 -6.2 11.35 -5.7 6.8 -6.8 8.5 -7.5 8.7 -7.5 6.75 Q-8.05 8.2 -9.15 9.2 L-9.45 7.25 -9.65 6.75 -10.65 10.35 -11.0 11.25 -11.7 9.95 -12.35 8.7 -12.2 5.5 Q-12.15 4.7 -12.4 3.95 -13.15 1.6 -11.6 -0.2 L-11.45 -0.45 Q-11.7 0.1 -8.15 -0.8 L-9.2 -1.9 Q-9.9 -2.5 -10.75 -2.85 L-11.7 -3.25 M7.05 -11.55 L6.9 -11.85 2.5 -11.4 Q1.8 -11.15 0.2 -9.95 L-3.65 -6.8 -3.4 -6.65 -3.15 -6.75 Q-2.0 -6.65 -0.9 -7.65 L0.75 -9.2 Q2.55 -10.45 5.0 -11.1 L7.05 -11.55 M4.1 -2.1 L2.8 -2.6 Q0.4 -3.65 -2.25 -3.2 -4.95 -2.9 -6.35 -0.95 L-6.15 -0.25 -4.0 0.25 Q-4.45 0.1 -4.1 0.05 L0.1 -1.05 4.1 -2.1 M-11.3 -5.85 Q-11.0 -5.1 -10.4 -5.1 -10.1 -5.1 -9.45 -5.55 L-9.6 -5.75 -11.3 -5.85 M-10.65 -10.95 L-10.7 -11.15 Q-11.3 -11.3 -11.55 -10.75 -11.95 -9.95 -12.65 -9.6 L-12.05 -9.45 Q-11.5 -9.45 -11.05 -10.05 L-10.65 -10.95 M-3.3 -12.75 L-3.35 -12.95 Q-4.15 -12.9 -5.15 -11.35 -6.05 -9.9 -6.05 -9.2 L-5.95 -8.95 -5.9 -9.0 -5.45 -9.15 -4.35 -11.05 -3.3 -12.75 M12.0 -10.35 Q11.35 -10.15 11.2 -9.55 L11.1 -8.6 11.1 -7.75 Q11.3 -7.05 12.0 -7.05 12.35 -7.05 12.2 -7.2 L12.2 -7.25 Q11.75 -8.05 11.75 -8.55 L12.0 -10.35 M15.75 -10.25 Q15.7 -11.4 15.35 -11.75 15.0 -11.75 15.0 -11.4 15.0 -10.6 15.15 -9.9 15.5 -8.55 16.2 -8.55 16.5 -8.55 16.55 -8.7 15.8 -9.2 15.75 -10.25 M0.3 -4.8 Q0.9 -5.25 1.35 -5.25 2.4 -5.25 2.85 -4.9 L6.8 -4.55 7.2 -4.55 7.25 -4.85 Q7.25 -5.25 2.65 -6.3 -1.95 -7.35 -1.95 -5.65 -1.95 -4.35 -0.5 -4.35 -0.25 -4.35 0.3 -4.8 M-6.3 -3.5 L-6.6 -4.55 Q-7.1 -4.45 -7.4 -2.9 L-7.8 -0.5 -9.6 3.8 -9.45 4.35 Q-9.15 4.8 -8.55 4.8 -7.95 4.8 -7.6 4.35 L-7.4 3.7 -7.6 3.35 -7.8 3.0 Q-7.8 2.15 -7.05 -0.55 L-6.3 -3.5 M-5.55 -3.35 L-5.15 -3.15 Q-4.15 -3.55 -3.9 -4.2 L-3.8 -5.4 Q-3.8 -8.25 -6.4 -8.05 -9.0 -7.85 -9.0 -5.1 -9.0 -4.25 -8.1 -3.8 L-8.1 -3.95 Q-8.35 -4.95 -8.0 -5.95 -7.55 -7.5 -6.0 -7.5 -4.25 -7.5 -4.25 -5.35 L-4.35 -4.45 -5.55 -3.35" fill="#21120a" fill-rule="evenodd" stroke="none"/>
    <path d="M-10.5 -1.75 L-9.75 -1.8 Q-9.6 -1.8 -9.6 -1.4 L-9.75 -1.05 -10.1 -0.9 -10.65 -1.4 -10.5 -1.75 M-4.2 -0.45 L-4.8 -0.65 -4.85 -1.2 Q-4.85 -1.8 -4.2 -1.85 -3.6 -1.9 -3.6 -1.2 -3.6 -0.45 -4.2 -0.45" fill="#ffcc99" fill-rule="evenodd" stroke="none"/>
  </g>
</svg>
