<?xml version="1.0" encoding="UTF-8" standalone="no"?>
<svg xmlns:xlink="http://www.w3.org/1999/xlink" height="36.6px" width="32.85px" xmlns="http://www.w3.org/2000/svg">
  <g transform="matrix(1.0, 0.0, 0.0, 1.0, 0.0, 0.0)">
    <path d="M4.15 4.85 L3.4 4.9 3.35 4.85 3.5 3.15 4.45 4.35 4.35 4.85 4.15 4.85" fill="url(#gradient0)" fill-rule="evenodd" stroke="none"/>
    <path d="M15.45 -22.3 L15.55 -21.85 Q13.35 -21.15 12.15 -19.35 11.5 -18.3 11.25 -17.1 10.95 -15.95 11.2 -14.65 L11.45 -13.35 Q11.75 -11.75 10.9 -10.45 9.75 -8.65 7.8 -7.7 11.75 -7.75 13.65 -11.3 L14.3 -12.8 15.2 -13.0 16.05 -13.1 17.85 -12.75 17.9 -12.6 16.3 -11.4 Q14.9 -10.35 14.7 -8.75 L14.3 -6.45 Q14.15 -5.8 13.65 -5.4 L10.4 -2.7 12.95 -2.4 13.2 -2.55 Q15.55 -2.65 17.3 -3.8 L17.6 -3.65 16.8 -1.35 14.75 -0.1 14.15 0.3 11.7 0.45 Q11.05 0.65 10.6 1.05 L9.05 2.3 9.25 2.75 13.1 2.05 Q12.55 4.25 10.65 4.95 9.7 5.3 8.8 5.85 L5.95 4.85 5.4 4.95 4.45 4.85 4.45 4.35 4.75 2.6 4.9 2.35 7.1 1.45 7.35 0.7 6.55 -0.55 6.95 -1.1 Q7.9 -1.95 7.95 -3.35 8.0 -4.4 6.85 -4.8 8.0 -4.4 7.95 -3.35 7.9 -1.95 6.95 -1.1 L6.55 -0.55 7.35 0.7 7.1 1.45 4.9 2.35 4.75 2.6 4.45 4.35 3.5 3.15 3.35 4.85 3.3 4.9 2.35 6.4 2.05 6.2 1.15 4.75 0.3 3.85 Q1.3 5.6 0.55 7.5 L0.25 8.05 -0.15 6.45 -2.4 5.5 Q-1.65 7.1 -2.4 8.6 L-3.1 9.9 -3.7 10.65 -4.0 10.15 Q-3.75 8.9 -4.45 7.65 L-5.05 6.5 Q-5.35 9.1 -6.15 11.65 L-6.45 12.9 -6.55 13.4 Q-8.0 10.1 -7.75 8.05 L-8.05 7.35 -8.1 7.0 -8.05 6.5 Q-9.9 8.65 -10.05 11.35 L-10.15 11.8 Q-10.6 11.65 -10.75 10.7 L-10.95 8.85 Q-11.2 7.2 -10.1 6.2 L-12.15 7.2 Q-12.9 7.6 -13.05 8.35 L-13.3 11.0 -13.65 11.35 Q-14.65 10.0 -14.3 8.45 -13.65 5.65 -11.75 3.6 L-11.6 3.2 -12.2 2.35 -12.05 0.6 Q-11.45 1.9 -10.25 2.55 L-9.2 3.15 -8.95 2.65 -9.35 1.25 -9.95 0.15 Q-10.55 -0.75 -11.65 -1.25 L-11.8 -1.4 Q-12.35 -0.9 -12.2 0.0 L-12.35 0.35 -12.75 0.2 -13.25 -0.9 -12.85 -1.95 Q-12.9 -3.8 -14.0 -5.05 L-14.05 -7.1 -13.55 -8.45 -12.8 -9.25 -11.9 -6.25 -11.35 -6.3 Q-11.4 -8.5 -10.3 -10.45 L-8.65 -12.6 -6.55 -13.9 -1.75 -15.3 Q0.35 -15.95 1.65 -17.95 3.05 -20.0 2.65 -22.3 L4.45 -19.7 Q5.7 -17.85 4.3 -16.15 3.8 -15.6 3.2 -15.25 2.25 -14.65 2.6 -14.2 L4.85 -15.35 6.6 -16.2 7.25 -17.0 8.55 -20.45 9.65 -22.5 Q10.2 -23.2 11.0 -23.2 L12.5 -23.1 Q14.1 -23.05 15.45 -22.3 M-11.3 -5.65 L-11.35 -6.3 -11.3 -5.65 M2.65 -1.8 Q-0.65 -1.9 -3.65 -0.4 L-5.8 1.55 -6.55 2.65 -3.8 2.75 Q-1.65 2.0 0.0 0.55 L2.65 -1.8 M-9.25 -2.4 Q-9.7 -3.95 -8.85 -5.3 L-8.1 -6.3 Q-7.45 -7.15 -8.05 -8.05 -7.45 -7.15 -8.1 -6.3 L-8.85 -5.3 Q-9.7 -3.95 -9.25 -2.4 M-6.85 -0.6 L-7.2 -3.3 -7.0 -4.1 -4.8 -6.9 Q-4.1 -7.9 -4.75 -8.95 -4.1 -7.9 -4.8 -6.9 L-7.0 -4.1 -7.2 -3.3 -6.85 -0.6 M-4.15 -2.1 Q-5.45 -3.5 -4.25 -4.8 L-3.9 -5.1 -3.3 -5.5 -3.3 -6.55 -3.3 -5.5 -3.9 -5.1 -4.25 -4.8 Q-5.45 -3.5 -4.15 -2.1" fill="url(#gradient1)" fill-rule="evenodd" stroke="none"/>
    <path d="M2.65 -1.8 L0.0 0.55 Q-1.65 2.0 -3.8 2.75 L-6.55 2.65 -5.8 1.55 -3.65 -0.4 Q-0.65 -1.9 2.65 -1.8 M-12.2 0.0 Q-12.35 -0.9 -11.8 -1.4 L-11.65 -1.25 Q-10.55 -0.75 -9.95 0.15 L-9.35 1.25 -8.95 2.65 -9.2 3.15 -10.25 2.55 Q-11.45 1.9 -12.05 0.6 L-12.0 0.45 -12.1 0.45 -12.2 0.0 M-10.65 -0.05 L-10.95 -0.2 -11.1 0.7 -10.95 1.65 -10.8 1.65 -10.65 -0.05 M-3.05 -0.45 L-3.3 -0.45 -3.3 0.7 -3.15 2.0 -3.05 1.95 -3.05 -0.45" fill="#660000" fill-rule="evenodd" stroke="none"/>
    <path d="M-10.65 -0.05 L-10.8 1.65 -10.95 1.65 -11.1 0.7 -10.95 -0.2 -10.65 -0.05 M-3.05 -0.45 L-3.05 1.95 -3.15 2.0 -3.3 0.7 -3.3 -0.45 -3.05 -0.45" fill="#ffff00" fill-rule="evenodd" stroke="none"/>
    <path d="M15.45 -22.3 Q14.1 -23.05 12.5 -23.1 L11.0 -23.2 Q10.2 -23.2 9.65 -22.5 L8.55 -20.45 7.25 -17.0 6.6 -16.2 4.85 -15.35 2.6 -14.2 Q2.25 -14.65 3.2 -15.25 3.8 -15.6 4.3 -16.15 5.7 -17.85 4.45 -19.7 L2.65 -22.3 Q3.05 -20.0 1.65 -17.95 0.35 -15.95 -1.75 -15.3 L-6.55 -13.9 -8.65 -12.6 -10.3 -10.45 Q-11.4 -8.5 -11.35 -6.3 L-11.3 -5.65 M15.45 -22.3 L16.35 -22.0 15.55 -21.85 Q13.35 -21.15 12.15 -19.35 11.5 -18.3 11.25 -17.1 10.95 -15.95 11.2 -14.65 L11.45 -13.35 Q11.75 -11.75 10.9 -10.45 9.75 -8.65 7.8 -7.7 11.75 -7.75 13.65 -11.3 L14.3 -12.8 15.2 -13.0 16.05 -13.1 17.85 -12.75 18.45 -12.8 17.9 -12.6 16.3 -11.4 Q14.9 -10.35 14.7 -8.75 L14.3 -6.45 Q14.15 -5.8 13.65 -5.4 L10.4 -2.7 12.95 -2.4 13.2 -2.55 Q15.55 -2.65 17.3 -3.8 L18.15 -4.8 17.6 -3.65 16.8 -1.35 14.75 -0.1 14.15 0.3 11.7 0.45 Q11.05 0.65 10.6 1.05 L9.05 2.3 9.25 2.75 13.1 2.05 Q12.55 4.25 10.65 4.95 9.7 5.3 8.8 5.85 L5.95 4.85 5.4 4.95 4.15 4.85 3.4 4.9 3.3 4.9 2.35 6.4 2.1 6.8 2.05 6.2 1.15 4.75 0.3 3.85 Q1.3 5.6 0.55 7.5 L0.25 8.05 -0.15 6.45 -2.4 5.5 Q-1.65 7.1 -2.4 8.6 L-3.1 9.9 -3.7 10.65 -4.75 11.0 -4.0 10.15 Q-3.75 8.9 -4.45 7.65 L-5.05 6.5 Q-5.35 9.1 -6.15 11.65 L-6.45 12.9 -6.55 13.4 Q-8.0 10.1 -7.75 8.05 L-8.05 7.35 -8.1 7.0 -8.05 6.5 Q-9.9 8.65 -10.05 11.35 L-10.15 11.8 Q-10.6 11.65 -10.75 10.7 L-10.95 8.85 Q-11.2 7.2 -10.1 6.2 L-12.15 7.2 Q-12.9 7.6 -13.05 8.35 L-13.3 11.0 -13.4 11.45 -13.65 11.35 Q-14.65 10.0 -14.3 8.45 -13.65 5.65 -11.75 3.6 L-11.6 3.2 -12.2 2.35 -12.05 0.6 -12.1 0.45 -12.35 0.35 -12.75 0.2 -13.25 -0.9 -12.85 -1.95 Q-12.9 -3.8 -14.0 -5.05 L-14.05 -7.1 -13.55 -8.45 -12.8 -9.25 -11.9 -6.25 M6.85 -4.8 Q8.0 -4.4 7.95 -3.35 7.9 -1.95 6.95 -1.1 L6.55 -0.55 7.35 0.7 7.1 1.45 4.9 2.35 4.75 2.6 4.45 4.35 3.5 3.15 3.35 4.85 3.3 4.9 M4.45 4.85 L5.4 4.95 M4.35 4.85 L4.45 4.85 M4.35 4.85 L4.15 4.85 M2.65 -1.8 Q-0.65 -1.9 -3.65 -0.4 L-5.8 1.55 -6.55 2.65 -3.8 2.75 Q-1.65 2.0 0.0 0.55 L2.65 -1.8 M-12.2 0.0 Q-12.35 -0.9 -11.8 -1.4 L-11.65 -1.25 Q-10.55 -0.75 -9.95 0.15 L-9.35 1.25 -8.95 2.65 M-9.2 3.15 L-10.25 2.55 Q-11.45 1.9 -12.05 0.6 L-12.0 0.45 -12.1 0.45 -12.2 0.0 M-4.75 -8.95 Q-4.1 -7.9 -4.8 -6.9 L-7.0 -4.1 -7.2 -3.3 -6.85 -0.6 M-8.05 -8.05 Q-7.45 -7.15 -8.1 -6.3 L-8.85 -5.3 Q-9.7 -3.95 -9.25 -2.4 M-3.3 -6.55 L-3.3 -5.5 -3.9 -5.1 -4.25 -4.8 Q-5.45 -3.5 -4.15 -2.1" fill="none" stroke="#ffcc00" stroke-linecap="round" stroke-linejoin="round" stroke-width="0.05"/>
  </g>
  <defs>
    <radialGradient cx="0" cy="0" gradientTransform="matrix(0.0013, 0.0, 0.0, 0.0013, 3.9, 4.0)" gradientUnits="userSpaceOnUse" id="gradient0" r="819.2" spreadMethod="pad">
      <stop offset="0.0" stop-color="#fff200" stop-opacity="0.72156864"/>
      <stop offset="0.8196078431372549" stop-color="#db5802" stop-opacity="0.43137255"/>
      <stop offset="1.0" stop-color="#87451b" stop-opacity="0.43137255"/>
    </radialGradient>
    <radialGradient cx="0" cy="0" gradientTransform="matrix(0.0253, 0.0, 0.0, 0.0253, -4.15, -6.25)" gradientUnits="userSpaceOnUse" id="gradient1" r="819.2" spreadMethod="pad">
      <stop offset="0.0" stop-color="#fff200" stop-opacity="0.72156864"/>
      <stop offset="0.8196078431372549" stop-color="#db5802" stop-opacity="0.43137255"/>
      <stop offset="1.0" stop-color="#87451b" stop-opacity="0.43137255"/>
    </radialGradient>
  </defs>
</svg>
