<?xml version="1.0" encoding="UTF-8" standalone="no"?>
<svg xmlns:xlink="http://www.w3.org/1999/xlink" height="27.8px" width="23.4px" xmlns="http://www.w3.org/2000/svg">
  <g transform="matrix(1.0, 0.0, 0.0, 1.0, 0.0, 0.0)">
    <path d="M-10.9 -4.95 L-10.95 -5.25 Q-9.65 -9.1 -6.1 -11.4 -4.6 -12.3 -3.0 -13.0 1.0 -14.55 5.35 -13.45 L6.8 -12.7 7.45 -12.05 Q9.0 -10.8 10.15 -8.95 L10.5 -8.15 11.7 -3.6 10.7 -3.4 9.7 -4.65 7.8 -6.9 6.9 -7.35 Q5.65 -7.2 5.1 -6.1 4.7 -5.4 4.6 -4.55 4.45 -3.6 4.95 -2.75 4.45 -3.6 4.6 -4.55 4.7 -5.4 5.1 -6.1 5.65 -7.2 6.9 -7.35 L7.8 -6.9 9.7 -4.65 10.7 -3.4 11.7 -3.6 11.55 -0.55 11.0 1.0 9.85 2.65 Q9.25 3.6 8.15 4.0 7.3 4.4 6.55 4.85 5.65 5.45 4.75 5.25 L-0.05 3.95 -1.45 4.55 -1.2 6.15 -3.15 6.0 Q-3.8 7.4 -3.55 8.85 -3.1 11.2 -2.8 13.9 L-4.0 12.55 Q-5.05 10.4 -5.15 8.15 L-5.4 6.15 -5.55 5.75 -5.9 5.5 -6.9 8.25 -7.4 7.85 -8.0 6.4 -7.95 5.95 Q-8.6 6.4 -8.75 7.05 L-9.05 8.65 -9.3 5.45 Q-10.05 6.25 -10.25 7.15 -10.9 9.7 -10.45 12.05 L-10.65 12.15 Q-11.55 10.35 -11.55 8.2 L-11.25 5.3 -10.8 4.2 -10.65 2.85 -11.15 0.5 -8.8 0.0 Q-8.4 -0.05 -8.3 -0.5 -8.1 -1.1 -8.2 -1.75 -8.3 -2.75 -9.0 -3.45 L-10.2 -4.55 -10.9 -4.95 M4.05 -1.05 L3.35 -0.8 3.4 0.55 Q3.65 1.1 4.55 1.5 L6.15 2.35 -0.05 3.95 6.15 2.35 4.55 1.5 Q3.65 1.1 3.4 0.55 L3.35 -0.8 4.05 -1.05 M2.35 -1.4 L2.85 -2.1 Q2.95 -3.45 2.25 -4.75 1.5 -6.05 -0.15 -5.85 L-3.55 -5.2 Q-4.3 -4.95 -4.85 -4.4 L-5.45 -3.55 -5.4 -2.9 -5.65 -2.5 Q-5.6 -1.0 -4.75 -0.1 L-4.5 0.2 -3.7 0.8 Q-2.1 0.55 -0.4 -0.25 L0.6 -0.55 1.7 -1.1 2.35 -1.4 M-6.95 2.9 L-7.5 -0.25 -8.6 3.35 -6.95 2.9" fill="url(#gradient0)" fill-rule="evenodd" stroke="none"/>
    <path d="M-10.9 -4.95 L-10.2 -4.55 -9.0 -3.45 Q-8.3 -2.75 -8.2 -1.75 -8.1 -1.1 -8.3 -0.5 -8.4 -0.05 -8.8 0.0 L-11.15 0.5 -11.7 -1.05 -10.4 -1.55 -10.9 -4.95 M2.35 -1.4 L1.7 -1.1 0.6 -0.55 -0.4 -0.25 Q-2.1 0.55 -3.7 0.8 L-4.5 0.2 -4.75 -0.1 Q-5.6 -1.0 -5.65 -2.5 L-5.4 -2.9 -5.45 -3.55 -4.85 -4.4 Q-4.3 -4.95 -3.55 -5.2 L-0.15 -5.85 Q1.5 -6.05 2.25 -4.75 2.95 -3.45 2.85 -2.1 L2.35 -1.4 M-10.4 -1.55 L-10.5 -1.15 -10.4 -0.75 -9.8 -0.45 -9.15 -1.25 -9.8 -1.75 -10.25 -1.65 -10.35 -1.55 -10.4 -1.55 M-3.25 -1.55 L-2.5 -0.85 Q-1.95 -1.15 -1.75 -1.55 L-2.5 -2.3 Q-2.5 -1.75 -2.85 -1.6 L-3.25 -1.55 M-6.95 2.9 L-8.6 3.35 -7.5 -0.25 -6.95 2.9" fill="#003300" fill-rule="evenodd" stroke="none"/>
    <path d="M-10.4 -1.55 L-10.35 -1.55 -10.25 -1.65 -9.8 -1.75 -9.15 -1.25 -9.8 -0.45 -10.4 -0.75 -10.5 -1.15 -10.4 -1.55 M-3.25 -1.55 L-2.85 -1.6 Q-2.5 -1.75 -2.5 -2.3 L-1.75 -1.55 Q-1.95 -1.15 -2.5 -0.85 L-3.25 -1.55" fill="#00ffcc" fill-rule="evenodd" stroke="none"/>
    <path d="M11.7 -3.6 L10.5 -8.15 10.15 -8.95 Q9.0 -10.8 7.45 -12.05 L6.8 -12.7 5.35 -13.45 Q1.0 -14.55 -3.0 -13.0 -4.6 -12.3 -6.1 -11.4 -9.65 -9.1 -10.95 -5.25 L-10.9 -4.95 -10.2 -4.55 -9.0 -3.45 Q-8.3 -2.75 -8.2 -1.75 -8.1 -1.1 -8.3 -0.5 -8.4 -0.05 -8.8 0.0 L-11.15 0.5 -10.65 2.85 -10.8 4.2 -11.25 5.3 -11.55 8.2 Q-11.55 10.35 -10.65 12.15 L-10.35 12.7 -10.45 12.05 Q-10.9 9.7 -10.25 7.15 -10.05 6.25 -9.3 5.45 L-9.05 8.65 -8.75 7.05 Q-8.6 6.4 -7.95 5.95 L-8.0 6.4 -7.4 7.85 -6.9 8.25 -5.9 5.5 -5.55 5.75 -5.4 6.15 -5.15 8.15 Q-5.05 10.4 -4.0 12.55 L-2.8 13.9 Q-3.1 11.2 -3.55 8.85 -3.8 7.4 -3.15 6.0 L-1.2 6.15 -1.45 4.55 -0.05 3.95 6.15 2.35 4.55 1.5 Q3.65 1.1 3.4 0.55 L3.35 -0.8 4.05 -1.05 M11.7 -3.6 L10.7 -3.4 9.7 -4.65 7.8 -6.9 6.9 -7.35 Q5.65 -7.2 5.1 -6.1 4.7 -5.4 4.6 -4.55 4.45 -3.6 4.95 -2.75 M2.35 -1.4 L2.85 -2.1 Q2.95 -3.45 2.25 -4.75 1.5 -6.05 -0.15 -5.85 L-3.55 -5.2 Q-4.3 -4.95 -4.85 -4.4 L-5.45 -3.55 -5.4 -2.9 -5.65 -2.5 Q-5.6 -1.0 -4.75 -0.1 L-4.5 0.2 -3.7 0.8 Q-2.1 0.55 -0.4 -0.25 L0.6 -0.55 1.7 -1.1 2.35 -1.4 M-0.05 3.95 L4.75 5.25 Q5.65 5.45 6.55 4.85 7.3 4.4 8.15 4.0 9.25 3.6 9.85 2.65 L11.0 1.0 11.55 -0.55 11.7 -3.6 M-10.9 -4.95 L-10.4 -1.55 -11.7 -1.05 -11.15 0.5 M-6.95 2.9 L-7.5 -0.25 -8.6 3.35 -6.95 2.9 Z" fill="none" stroke="#00ffcc" stroke-linecap="round" stroke-linejoin="round" stroke-width="0.05"/>
  </g>
  <defs>
    <radialGradient cx="0" cy="0" gradientTransform="matrix(0.0204, 0.0, 0.0, 0.0198, -5.65, -1.85)" gradientUnits="userSpaceOnUse" id="gradient0" r="819.2" spreadMethod="pad">
      <stop offset="0.0" stop-color="#66ffd1" stop-opacity="0.72156864"/>
      <stop offset="0.8196078431372549" stop-color="#0fca51" stop-opacity="0.43137255"/>
      <stop offset="1.0" stop-color="#054718" stop-opacity="0.43137255"/>
    </radialGradient>
  </defs>
</svg>
