<?xml version="1.0" encoding="UTF-8" standalone="no"?>
<svg xmlns:xlink="http://www.w3.org/1999/xlink" height="18.2px" width="32.05px" xmlns="http://www.w3.org/2000/svg">
  <g transform="matrix(1.0, 0.0, 0.0, 1.0, 0.0, 0.0)">
    <path d="M-9.5 7.8 L-11.6 7.6 Q-15.45 6.7 -16.0 2.3 L-16.05 1.45 -13.75 -1.15 -13.1 -0.8 -12.6 0.05 -12.65 0.15 -12.55 0.15 Q-11.4 1.55 -9.8 2.3 L-7.5 3.0 -6.15 3.2 -5.5 3.3 -5.2 3.4 -5.2 3.3 -1.55 3.05 2.2 2.3 5.95 0.7 9.8 -1.75 15.6 -9.0 15.95 -8.9 Q16.0 -6.15 13.8 -4.15 L11.25 -1.2 7.55 2.2 4.05 4.4 0.75 5.8 -2.9 6.9 -6.15 7.55 -5.7 6.1 -5.7 5.7 Q-5.75 4.6 -6.15 3.2 -5.75 4.6 -5.7 5.7 L-5.7 6.1 -6.15 7.55 -8.35 7.95 -8.65 7.9 -9.5 7.8 M-11.6 7.6 L-10.15 6.15 -9.9 4.25 -9.8 2.3 -9.9 4.25 -10.15 6.15 -11.6 7.6" fill="#2b4c3d" fill-rule="evenodd" stroke="none"/>
    <path d="M-12.55 0.15 Q-6.6 -1.0 -1.0 -4.75 1.1 -6.2 3.65 -7.0 L2.7 -1.3 3.65 -1.95 4.0 0.3 Q7.4 -3.5 9.4 -8.25 L15.6 -9.0 9.8 -1.75 11.9 -6.35 9.8 -1.75 5.95 0.7 2.2 2.3 -1.55 3.05 -5.2 3.3 -5.5 3.3 -6.15 3.2 -7.5 3.0 -9.8 2.3 Q-11.4 1.55 -12.55 0.15 M15.95 -8.9 Q16.4 -5.4 13.95 -2.55 L13.1 -1.4 12.25 -1.1 12.65 -0.8 10.4 2.1 7.3 5.25 Q0.4 11.0 -8.7 8.2 L-8.35 7.95 -6.15 7.55 -2.9 6.9 0.75 5.8 4.05 4.4 7.55 2.2 10.4 2.1 7.55 2.2 11.25 -1.2 13.8 -4.15 Q16.0 -6.15 15.95 -8.9 M8.9 -5.9 L8.0 -4.65 Q6.4 -2.3 5.95 0.7 6.4 -2.3 8.0 -4.65 L8.9 -5.9 M2.05 -4.75 L1.0 -3.15 Q-0.8 -0.25 -1.55 3.05 -0.8 -0.25 1.0 -3.15 L2.05 -4.75 M-2.75 -2.25 L-3.4 -1.05 Q-4.4 1.05 -5.2 3.3 -4.4 1.05 -3.4 -1.05 L-2.75 -2.25 M12.25 -1.1 L11.25 -1.2 12.25 -1.1 M4.1 6.4 L0.75 5.8 4.1 6.4 M7.3 5.25 L6.15 5.1 4.05 4.4 6.15 5.1 7.3 5.25 M1.35 7.55 L-2.4 7.4 -2.9 6.9 -2.4 7.4 1.35 7.55 M2.2 2.3 Q2.7 0.1 3.65 -1.95 2.7 0.1 2.2 2.3" fill="#7bffb7" fill-opacity="0.4" fill-rule="evenodd" stroke="none"/>
    <path d="M-12.55 0.15 Q-6.6 -1.0 -1.0 -4.75 1.1 -6.2 3.65 -7.0 L2.7 -1.3 3.65 -1.95 4.0 0.3 Q7.4 -3.5 9.4 -8.25 L15.6 -9.0 15.75 -9.1 15.95 -8.9 Q16.4 -5.4 13.95 -2.55 L13.1 -1.4 12.65 -0.8 10.4 2.1 7.3 5.25 Q0.4 11.0 -8.7 8.2 L-9.5 7.8 -11.6 7.6 Q-15.45 6.7 -16.0 2.3 L-16.05 1.45 -13.75 -1.15 -13.1 -0.8 -12.6 0.05 -12.55 0.15 Q-11.4 1.55 -9.8 2.3 L-7.5 3.0 -6.15 3.2 -5.5 3.3 -5.2 3.3 Q-4.4 1.05 -3.4 -1.05 L-2.75 -2.25 M-1.55 3.05 Q-0.8 -0.25 1.0 -3.15 L2.05 -4.75 M5.95 0.7 Q6.4 -2.3 8.0 -4.65 L8.9 -5.9 M15.6 -9.0 L15.95 -8.9 Q16.0 -6.15 13.8 -4.15 L11.25 -1.2 12.25 -1.1 13.1 -1.4 M9.8 -1.75 L15.6 -9.0 M9.8 -1.75 L11.9 -6.35 M4.05 4.4 L6.15 5.1 7.3 5.25 M0.75 5.8 L4.1 6.4 M10.4 2.1 L7.55 2.2 4.05 4.4 0.75 5.8 -2.9 6.9 -2.4 7.4 1.35 7.55 M9.8 -1.75 L5.95 0.7 2.2 2.3 -1.55 3.05 -5.2 3.3 -5.2 3.4 M3.65 -1.95 Q2.7 0.1 2.2 2.3 M7.55 2.2 L11.25 -1.2 M-6.15 7.55 L-2.9 6.9 M-6.15 7.55 L-8.35 7.95 -8.65 7.9 -9.5 7.8 M-12.55 0.15 L-12.65 0.15" fill="none" stroke="#000000" stroke-linecap="round" stroke-linejoin="round" stroke-width="0.05"/>
    <path d="M-6.15 3.2 Q-5.75 4.6 -5.7 5.7 L-5.7 6.1 -6.15 7.55 M-9.8 2.3 L-9.9 4.25 -10.15 6.15 -11.6 7.6" fill="none" stroke="#009900" stroke-linecap="round" stroke-linejoin="round" stroke-width="1.0"/>
  </g>
</svg>
