<?xml version="1.0" encoding="UTF-8" standalone="no"?>
<svg xmlns:xlink="http://www.w3.org/1999/xlink" height="8.1px" width="14.0px" xmlns="http://www.w3.org/2000/svg">
  <g transform="matrix(1.0, 0.0, 0.0, 1.0, 0.0, 0.0)">
    <path d="M2.3 -4.05 L2.9 -3.85 Q4.25 -3.45 5.2 -2.4 L5.55 -2.05 Q6.7 -0.5 7.0 1.4 L5.95 2.75 5.15 3.1 -1.7 4.05 -3.3 4.0 -5.15 3.7 Q-6.75 3.4 -6.95 2.25 L-6.95 1.5 -4.45 -0.1 -1.1 -2.35 Q0.4 -3.4 2.3 -4.05" fill="#2b4c3d" fill-rule="evenodd" stroke="none"/>
    <path d="M2.3 -4.05 Q0.4 -3.4 -1.1 -2.35 L-4.45 -0.1 -6.95 1.5 -6.95 2.25 M-3.3 4.0 L-1.7 4.05 5.15 3.1 5.95 2.75 7.0 1.4" fill="none" stroke="#000000" stroke-linecap="round" stroke-linejoin="round" stroke-width="0.05"/>
  </g>
</svg>
