<?xml version="1.0" encoding="UTF-8" standalone="no"?>
<svg xmlns:xlink="http://www.w3.org/1999/xlink" height="12.3px" width="8.4px" xmlns="http://www.w3.org/2000/svg">
  <g transform="matrix(1.0, 0.0, 0.0, 1.0, 0.0, 0.0)">
    <path d="M0.6 -3.0 L0.7 -2.1 Q0.75 -1.2 1.1 -0.4 L4.2 5.15 2.9 6.15 2.25 6.0 0.9 4.9 -3.0 0.0 Q-3.85 -1.25 -4.05 -2.5 -4.35 -4.35 -4.05 -6.0 L-2.7 -6.15 Q-1.4 -6.05 -0.45 -5.0 0.35 -4.1 0.6 -3.0" fill="#ffeef9" fill-rule="evenodd" stroke="none"/>
    <path d="M-2.7 -6.15 L-4.05 -6.0 Q-4.35 -4.35 -4.05 -2.5 -3.85 -1.25 -3.0 0.0 L0.9 4.9 2.25 6.0 2.9 6.15 4.2 5.15 1.1 -0.4 Q0.75 -1.2 0.7 -2.1 L0.6 -3.0" fill="none" stroke="#000000" stroke-linecap="round" stroke-linejoin="round" stroke-width="0.05"/>
  </g>
</svg>
