<?xml version="1.0" encoding="UTF-8" standalone="no"?>
<svg xmlns:xlink="http://www.w3.org/1999/xlink" height="20.4px" width="9.95px" xmlns="http://www.w3.org/2000/svg">
  <g transform="matrix(1.0, 0.0, 0.0, 1.0, 0.0, 0.0)">
    <path d="M1.5 -5.05 L2.1 -1.45 2.2 -0.25 2.25 0.6 4.0 3.8 4.75 5.5 4.95 6.55 Q3.75 6.1 3.0 5.3 L1.1 3.1 0.5 9.5 -0.05 10.2 -1.55 4.0 -2.2 4.05 -3.7 4.95 -4.6 5.5 -4.75 5.4 -5.0 4.8 -4.35 3.85 -4.0 3.3 Q-3.3 2.25 -3.0 1.15 -2.45 -0.65 -2.35 -2.6 L-2.0 -3.05 Q-2.35 -6.65 -0.95 -9.9 L-0.3 -10.2 Q0.7 -10.1 0.8 -9.0 1.0 -7.1 1.5 -5.05" fill="#ffeef9" fill-rule="evenodd" stroke="none"/>
    <path d="M1.5 -5.05 L2.1 -1.45 2.2 -0.25 2.25 0.6 4.0 3.8 4.75 5.5 4.95 6.55 Q3.75 6.1 3.0 5.3 L1.1 3.1 0.5 9.5 -0.05 10.2 -1.55 4.0 -2.2 4.05 -3.7 4.95 -4.6 5.5 -4.75 5.4 -5.0 4.8 -4.35 3.85 -4.0 3.3 Q-3.3 2.25 -3.0 1.15 -2.45 -0.65 -2.35 -2.6 L-2.0 -3.05 Q-2.35 -6.65 -0.95 -9.9 L-0.3 -10.2 Q0.7 -10.1 0.8 -9.0 1.0 -7.1 1.5 -5.05 Z" fill="none" stroke="#000000" stroke-linecap="round" stroke-linejoin="round" stroke-width="0.05"/>
  </g>
</svg>
