<?xml version="1.0" encoding="UTF-8" standalone="no"?>
<svg xmlns:xlink="http://www.w3.org/1999/xlink" height="16.05px" width="5.45px" xmlns="http://www.w3.org/2000/svg">
  <g transform="matrix(1.0, 0.0, 0.0, 1.0, 0.0, 0.0)">
    <path d="M-1.9 -6.7 Q-1.0 -7.75 0.0 -7.95 1.05 -8.25 1.7 -7.5 3.75 -4.05 1.6 -0.5 L2.0 0.55 1.85 1.0 Q3.15 4.7 1.35 7.9 L0.35 8.0 Q-1.65 4.3 -1.15 -0.45 L-1.65 -1.25 Q-3.7 -3.8 -1.9 -6.7" fill="#ffeef9" fill-rule="evenodd" stroke="none"/>
    <path d="M-1.9 -6.7 Q-3.7 -3.8 -1.65 -1.25 L-1.15 -0.45 Q-1.65 4.3 0.35 8.0 M1.35 7.9 Q3.15 4.7 1.85 1.0 L2.0 0.55 1.6 -0.5 Q3.75 -4.05 1.7 -7.5" fill="none" stroke="#000000" stroke-linecap="round" stroke-linejoin="round" stroke-width="0.05"/>
  </g>
</svg>
