<?xml version="1.0" encoding="UTF-8" standalone="no"?>
<svg xmlns:xlink="http://www.w3.org/1999/xlink" height="26.5px" width="24.85px" xmlns="http://www.w3.org/2000/svg">
  <g transform="matrix(1.0, 0.0, 0.0, 1.0, 0.0, 0.0)">
    <path d="M0.65 -0.1 L2.35 -1.95 3.6 -3.1 5.4 -5.25 5.85 -4.65 5.55 -3.45 4.4 -2.3 3.6 -1.3 2.8 0.85 4.85 1.0 7.5 -0.15 9.2 -1.0 12.25 -1.85 12.4 -0.9 10.2 0.2 Q9.25 0.75 8.25 1.25 L5.65 2.65 Q4.0 3.45 4.2 4.8 L5.35 5.25 7.45 5.4 9.95 5.6 9.9 6.3 7.35 6.7 4.95 7.0 2.85 6.95 Q1.35 6.85 0.55 6.05 L0.6 5.15 0.05 1.9 0.0 1.75 0.05 1.15 Q0.2 0.5 0.65 -0.1 M-10.9 2.5 L-10.85 2.3 -10.85 2.55 -10.9 2.5 M-10.8 1.75 Q-10.45 -1.0 -10.95 -3.75 L-11.3 -6.15 -11.05 -9.2 -10.7 -9.2 -10.15 -6.6 -9.6 -4.4 Q-9.55 -3.7 -9.05 -3.45 L-8.7 -3.35 Q-8.0 -3.4 -7.95 -4.15 L-7.6 -6.65 -7.15 -9.05 -6.6 -11.0 -6.3 -11.95 Q-6.0 -13.1 -4.85 -13.25 L-4.7 -13.15 Q-4.2 -11.8 -4.9 -10.45 L-5.5 -8.65 -6.15 -6.25 -6.3 -3.95 -5.75 -4.1 Q-4.95 -4.45 -4.65 -5.35 L-3.7 -7.0 -2.85 -9.2 -3.1 -6.5 -3.6 -4.65 -4.1 -2.3 Q-6.9 -2.3 -8.85 -0.85 -10.45 0.25 -10.8 1.75 M0.0 1.9 L0.05 2.6 0.0 2.15 0.0 2.1 0.0 1.9" fill="#fe96a3" fill-rule="evenodd" stroke="none"/>
    <path d="M0.05 1.15 L0.0 1.75 0.05 1.9 0.0 1.9 0.0 1.8 0.05 1.15 M-10.85 2.55 L-10.95 2.8 -10.85 2.55 M0.0 1.8 L0.0 1.75 0.0 1.8" fill="#ffeef9" fill-rule="evenodd" stroke="none"/>
    <path d="M-6.85 9.05 Q-6.5 8.7 -6.0 8.7 -5.5 8.7 -5.15 9.05 -4.8 9.4 -4.8 9.9 -4.8 10.4 -5.15 10.75 -5.5 11.1 -6.0 11.1 -6.5 11.1 -6.85 10.75 -7.2 10.4 -7.2 9.9 -7.2 9.4 -6.85 9.05" fill="#99ff99" fill-rule="evenodd" stroke="none"/>
    <path d="M0.65 -0.1 Q0.2 0.5 0.05 1.15 L0.0 1.8 0.0 1.9 0.05 1.9 0.6 5.15 0.55 6.05 0.05 7.85 -0.15 8.45 -1.25 9.7 -1.3 9.8 -2.7 11.2 -4.0 11.9 -5.85 12.55 -8.9 13.25 Q-10.8 13.0 -11.35 11.5 -11.8 10.35 -11.85 9.15 L-11.7 6.5 -10.95 2.8 -10.85 2.55 -10.85 2.3 -10.8 1.75 Q-10.45 0.25 -8.85 -0.85 -6.9 -2.3 -4.1 -2.3 L-2.2 -2.0 Q-0.9 -1.8 0.05 -0.75 L0.65 -0.1 M0.0 1.9 L0.0 2.1 0.0 2.15 0.05 2.6 0.0 1.9 M-6.85 9.05 Q-7.2 9.4 -7.2 9.9 -7.2 10.4 -6.85 10.75 -6.5 11.1 -6.0 11.1 -5.5 11.1 -5.15 10.75 -4.8 10.4 -4.8 9.9 -4.8 9.4 -5.15 9.05 -5.5 8.7 -6.0 8.7 -6.5 8.7 -6.85 9.05 M-3.55 9.55 L-1.3 9.8 -3.55 9.55 M-3.45 7.85 Q-1.7 7.7 0.05 7.85 -1.7 7.7 -3.45 7.85" fill="#2b4c3d" fill-rule="evenodd" stroke="none"/>
    <path d="M3.6 -1.3 L4.7 -1.25 M0.55 6.05 Q1.35 6.85 2.85 6.95 L4.95 7.0 7.35 6.7 9.9 6.3 9.95 5.6 7.45 5.4 5.35 5.25 4.2 4.8 Q4.0 3.45 5.65 2.65 L8.25 1.25 Q9.25 0.75 10.2 0.2 L12.4 -0.9 12.25 -1.85 9.2 -1.0 7.5 -0.15 4.85 1.0 2.8 0.85 3.6 -1.3 4.4 -2.3 5.55 -3.45 5.85 -4.65 5.4 -5.25 3.6 -3.1 2.35 -1.95 0.65 -0.1 Q0.2 0.5 0.05 1.15 L0.0 1.75 0.0 1.8 0.05 1.15 M0.6 5.15 L0.55 6.05 M-10.95 2.8 L-10.9 2.5 -10.85 2.3 M-10.8 1.75 Q-10.45 -1.0 -10.95 -3.75 L-12.45 -3.95 M3.6 -3.1 L3.55 -4.4 M2.35 -1.95 L2.15 -3.5 M7.5 -0.15 L6.85 -1.45 M9.7 -2.6 L9.2 -1.0 M4.4 -2.3 L6.3 -2.35 M10.2 0.2 L11.55 1.05 M8.25 1.25 L9.0 2.65 M5.65 2.65 L6.75 3.8 M5.35 5.25 L6.05 4.5 M7.9 4.75 L7.45 5.4 M0.0 1.9 L0.05 2.6 0.0 2.15 0.0 2.1 0.0 1.9 0.0 1.8 M7.35 6.7 L8.35 7.9 M4.95 7.0 L5.85 7.9 M4.85 1.0 L5.35 -1.7 M-6.6 -11.0 L-6.3 -11.95 Q-6.0 -13.1 -4.85 -13.25 L-4.7 -13.15 Q-4.2 -11.8 -4.9 -10.45 -4.15 -10.45 -3.6 -10.75 -3.1 -11.05 -3.1 -11.5 M-10.7 -9.2 L-10.15 -6.6 -9.05 -7.05 M-11.05 -9.2 L-11.05 -9.45 -10.7 -9.2 M-11.05 -9.2 L-11.3 -6.15 -10.95 -3.75 M-11.3 -6.15 L-12.45 -5.8 M-6.15 -6.25 L-5.45 -6.6 -4.8 -7.0 Q-4.15 -7.55 -3.7 -7.0 L-2.85 -9.2 -3.1 -6.5 -1.5 -6.7 M-5.5 -8.65 Q-4.6 -8.65 -3.95 -9.0 -3.3 -9.4 -3.3 -9.9 M-5.5 -8.65 L-6.15 -6.25 -6.3 -3.95 -5.75 -4.1 Q-4.95 -4.45 -4.65 -5.35 L-3.7 -7.0 M-7.15 -9.05 L-6.6 -11.0 -7.2 -12.65 M-7.6 -6.65 L-7.15 -9.05 Q-7.55 -9.05 -7.8 -9.55 L-8.1 -10.8 M-7.6 -6.65 L-8.8 -8.3 M-9.6 -4.4 Q-9.55 -3.7 -9.05 -3.45 L-8.7 -3.35 Q-8.0 -3.4 -7.95 -4.15 L-7.6 -6.65 M-9.6 -4.4 L-8.8 -5.35 M-3.6 -4.65 L-2.4 -4.5 M-4.1 -2.3 L-3.6 -4.65 -3.1 -6.5 M-4.9 -10.45 L-5.5 -8.65 M-10.15 -6.6 L-9.6 -4.4 M-10.85 2.55 L-10.95 2.8" fill="none" stroke="#9e0323" stroke-linecap="round" stroke-linejoin="round" stroke-width="0.05"/>
    <path d="M0.55 6.05 L0.05 7.85 -0.15 8.45 -1.25 9.7 -1.3 9.8 -2.7 11.2 -4.0 11.9 -5.85 12.55 -8.9 13.25 Q-10.8 13.0 -11.35 11.5 -11.8 10.35 -11.85 9.15 L-11.7 6.5 -10.95 2.8 M-10.85 2.3 L-10.8 1.75 Q-10.45 0.25 -8.85 -0.85 -6.9 -2.3 -4.1 -2.3 M-10.85 2.3 L-10.85 2.55" fill="none" stroke="#000000" stroke-linecap="round" stroke-linejoin="round" stroke-width="0.05"/>
    <path d="M-1.3 9.8 L-3.55 9.55 M0.05 7.85 Q-1.7 7.7 -3.45 7.85" fill="none" stroke="#009900" stroke-linecap="round" stroke-linejoin="round" stroke-width="1.0"/>
  </g>
</svg>
