<?xml version="1.0" encoding="UTF-8" standalone="no"?>
<svg xmlns:xlink="http://www.w3.org/1999/xlink" height="17.65px" width="7.55px" xmlns="http://www.w3.org/2000/svg">
  <g transform="matrix(1.0, 0.0, 0.0, 1.0, 0.0, 0.0)">
    <path d="M-3.65 2.6 L-3.7 2.5 -3.4 2.25 -3.65 2.6 M1.35 4.7 L1.25 4.6 1.3 4.5 1.35 4.7" fill="#ffe299" fill-rule="evenodd" stroke="none"/>
    <path d="M0.5 -9.85 L2.05 -1.3 Q3.25 0.65 3.85 2.95 L3.1 4.6 1.35 4.7 1.65 5.7 0.65 7.0 Q0.15 7.25 -0.4 7.45 L-0.65 6.7 Q-0.95 5.15 -1.65 4.55 L-2.45 5.9 -2.75 5.75 Q-3.85 4.35 -3.65 2.6 L-3.4 2.25 Q-2.75 0.0 -2.25 -2.6 L-2.0 -3.05 Q-1.8 -6.55 -0.95 -9.9 L-0.3 -10.2 0.5 -9.85 M1.35 4.7 L1.3 4.5 1.25 4.6 1.35 4.7" fill="#2b4c3d" fill-rule="evenodd" stroke="none"/>
    <path d="M0.5 -9.85 L2.05 -1.3 Q3.25 0.65 3.85 2.95 L3.1 4.6 1.35 4.7 1.65 5.7 0.65 7.0 Q0.15 7.25 -0.4 7.45 L-0.65 6.7 Q-0.95 5.15 -1.65 4.55 L-2.45 5.9 -2.75 5.75 Q-3.85 4.35 -3.65 2.6 L-3.4 2.25 Q-2.75 0.0 -2.25 -2.6 L-2.0 -3.05 Q-1.8 -6.55 -0.95 -9.9 M1.35 4.7 L1.3 4.5 1.25 4.6 1.35 4.7 Z" fill="none" stroke="#000000" stroke-linecap="round" stroke-linejoin="round" stroke-width="0.05"/>
  </g>
</svg>
