<?xml version="1.0" encoding="UTF-8" standalone="no"?>
<svg xmlns:xlink="http://www.w3.org/1999/xlink" height="87.5px" width="87.55px" xmlns="http://www.w3.org/2000/svg">
  <g transform="matrix(1.0, 0.0, 0.0, 1.0, 0.0, 0.0)">
    <path d="M28.8 -28.85 Q40.75 -16.9 40.75 0.0 40.75 16.9 28.8 28.8 16.9 40.75 0.0 40.75 -16.9 40.75 -28.85 28.8 -40.8 16.9 -40.8 0.0 -40.8 -16.9 -28.85 -28.85 -16.9 -40.75 0.0 -40.75 16.9 -40.75 28.8 -28.85 Z" fill="none" stroke="#02ecec" stroke-linecap="round" stroke-linejoin="round" stroke-opacity="0.3019608" stroke-width="6.0"/>
    <path d="M28.8 -28.85 Q40.75 -16.9 40.75 0.0 40.75 16.9 28.8 28.8 16.9 40.75 0.0 40.75 -16.9 40.75 -28.85 28.8 -40.8 16.9 -40.8 0.0 -40.8 -16.9 -28.85 -28.85 -16.9 -40.75 0.0 -40.75 16.9 -40.75 28.8 -28.85" fill="url(#gradient0)" fill-rule="evenodd" stroke="none"/>
    <path d="M28.8 -28.85 Q40.75 -16.9 40.75 0.0 40.75 16.9 28.8 28.8 16.9 40.75 0.0 40.75 -16.9 40.75 -28.85 28.8 -40.8 16.9 -40.8 0.0 -40.8 -16.9 -28.85 -28.85 -16.9 -40.75 0.0 -40.75 16.9 -40.75 28.8 -28.85 Z" fill="none" stroke="#ceffff" stroke-linecap="round" stroke-linejoin="round" stroke-width="1.0"/>
  </g>
  <defs>
    <radialGradient cx="0" cy="0" gradientTransform="matrix(0.0637, 0.0, 0.0, 0.0637, -11.7, -4.7)" gradientUnits="userSpaceOnUse" id="gradient0" r="819.2" spreadMethod="pad">
      <stop offset="0.0" stop-color="#dae3fa"/>
      <stop offset="0.615686274509804" stop-color="#f0f9fd"/>
      <stop offset="1.0" stop-color="#96dbfa"/>
    </radialGradient>
  </defs>
</svg>
