<?xml version="1.0" encoding="UTF-8" standalone="no"?>
<svg xmlns:xlink="http://www.w3.org/1999/xlink" height="24.65px" width="18.2px" xmlns="http://www.w3.org/2000/svg">
  <g transform="matrix(1.0, 0.0, 0.0, 1.0, 0.0, 0.0)">
    <path d="M-16.75 -46.15 Q-16.75 -44.6 -17.85 -43.55 -18.9 -42.45 -20.45 -42.45 -22.0 -42.45 -23.1 -43.55 -24.1 -44.6 -24.1 -46.15 -24.1 -47.7 -23.1 -48.75 -22.0 -49.85 -20.45 -49.85 -18.9 -49.85 -17.85 -48.75 -16.75 -47.7 -16.75 -46.15 M-28.8 -37.55 Q-26.25 -37.55 -24.45 -35.75 -22.6 -33.95 -22.6 -31.4 -22.6 -28.85 -24.45 -27.0 -26.25 -25.2 -28.8 -25.2 -31.35 -25.2 -33.15 -27.0 -34.95 -28.85 -34.95 -31.4 -34.95 -33.95 -33.15 -35.75 -31.35 -37.55 -28.8 -37.55" fill="#ffffff" fill-rule="evenodd" stroke="none"/>
  </g>
</svg>
