<?xml version="1.0" encoding="UTF-8" standalone="no"?>
<svg xmlns:xlink="http://www.w3.org/1999/xlink" height="24.8px" width="17.85px" xmlns="http://www.w3.org/2000/svg">
  <g transform="matrix(1.0, 0.0, 0.0, 1.0, 0.0, 0.0)">
    <path d="M-17.85 -49.3 Q-17.8 -47.75 -18.85 -46.6 -19.9 -45.55 -21.45 -45.5 -23.0 -45.45 -24.05 -46.5 -25.15 -47.55 -25.2 -49.1 -25.2 -50.6 -24.2 -51.75 -23.15 -52.8 -21.6 -52.85 -20.05 -52.9 -19.0 -51.85 -17.85 -50.8 -17.85 -49.3 M-29.65 -40.4 Q-27.1 -40.45 -25.25 -38.65 -23.4 -36.9 -23.35 -34.35 -23.3 -31.8 -25.05 -29.95 -26.8 -28.1 -29.35 -28.05 -31.95 -28.0 -33.8 -29.75 -35.65 -31.5 -35.7 -34.05 -35.75 -36.6 -34.0 -38.45 -32.25 -40.35 -29.65 -40.4" fill="#ffffff" fill-rule="evenodd" stroke="none"/>
  </g>
</svg>
