<?xml version="1.0" encoding="UTF-8" standalone="no"?>
<svg xmlns:xlink="http://www.w3.org/1999/xlink" height="25.7px" width="16.05px" xmlns="http://www.w3.org/2000/svg">
  <g transform="matrix(1.0, 0.0, 0.0, 1.0, 0.0, 0.0)">
    <path d="M-20.65 -44.85 Q-20.45 -43.35 -21.35 -42.1 -22.25 -40.9 -23.8 -40.7 -25.3 -40.45 -26.55 -41.35 -27.7 -42.35 -27.9 -43.85 -28.1 -45.4 -27.25 -46.55 -26.3 -47.75 -24.8 -48.0 -23.25 -48.2 -22.05 -47.3 -20.85 -46.4 -20.65 -44.85 M-31.35 -34.65 Q-28.8 -35.05 -26.75 -33.5 -24.7 -31.95 -24.35 -29.45 -23.95 -26.9 -25.5 -24.85 -27.05 -22.8 -29.6 -22.4 -32.1 -22.05 -34.15 -23.6 -36.2 -25.15 -36.6 -27.7 -36.95 -30.2 -35.4 -32.25 -33.85 -34.3 -31.35 -34.65" fill="#ffffff" fill-rule="evenodd" stroke="none"/>
  </g>
</svg>
