<?xml version="1.0" encoding="UTF-8" standalone="no"?>
<svg xmlns:xlink="http://www.w3.org/1999/xlink" height="24.25px" width="18.8px" xmlns="http://www.w3.org/2000/svg">
  <g transform="matrix(1.0, 0.0, 0.0, 1.0, 0.0, 0.0)">
    <path d="M-16.15 -49.55 Q-16.25 -48.05 -17.35 -46.95 -18.45 -45.95 -19.95 -46.05 -21.5 -46.1 -22.6 -47.2 -23.55 -48.35 -23.45 -49.85 -23.4 -51.4 -22.35 -52.45 -21.2 -53.45 -19.65 -53.4 -18.15 -53.3 -17.1 -52.2 -16.1 -51.1 -16.15 -49.55 M-28.55 -41.5 Q-26.0 -41.4 -24.25 -39.5 -22.5 -37.6 -22.6 -35.05 -22.7 -32.5 -24.65 -30.75 -26.5 -29.05 -29.05 -29.15 -31.6 -29.25 -33.35 -31.15 -35.05 -33.0 -34.95 -35.55 -34.85 -38.1 -32.95 -39.9 -31.1 -41.6 -28.55 -41.5" fill="#ffffff" fill-rule="evenodd" stroke="none"/>
  </g>
</svg>
