<?xml version="1.0" encoding="UTF-8" standalone="no"?>
<svg xmlns:xlink="http://www.w3.org/1999/xlink" height="22.65px" width="17.25px" xmlns="http://www.w3.org/2000/svg">
  <g transform="matrix(1.0, 0.0, 0.0, 1.0, 0.0, 0.0)">
    <path d="M-23.3 -21.85 Q-23.1 -20.5 -24.1 -19.4 -25.05 -18.35 -26.7 -18.15 -28.3 -17.9 -29.55 -18.65 -30.7 -19.45 -30.9 -20.8 -31.1 -22.1 -30.15 -23.2 -29.2 -24.3 -27.6 -24.55 -25.95 -24.75 -24.7 -23.95 -23.5 -23.15 -23.3 -21.85 M-34.8 -12.7 Q-32.15 -13.05 -30.0 -11.7 -27.9 -10.45 -27.6 -8.25 -27.3 -6.05 -29.0 -4.15 -30.65 -2.35 -33.3 -2.0 -35.95 -1.65 -38.05 -2.95 -40.15 -4.25 -40.45 -6.45 -40.75 -8.65 -39.05 -10.5 -37.45 -12.35 -34.8 -12.7" fill="#ffffff" fill-rule="evenodd" stroke="none"/>
  </g>
</svg>
