<?xml version="1.0" encoding="UTF-8" standalone="no"?>
<svg xmlns:xlink="http://www.w3.org/1999/xlink" height="25.35px" width="16.75px" xmlns="http://www.w3.org/2000/svg">
  <g transform="matrix(1.0, 0.0, 0.0, 1.0, 0.0, 0.0)">
    <path d="M-14.55 -44.9 Q-14.4 -43.35 -15.35 -42.15 -16.3 -41.0 -17.85 -40.85 -19.4 -40.75 -20.55 -41.7 -21.65 -42.7 -21.8 -44.25 -21.9 -45.75 -21.0 -46.95 -20.05 -48.1 -18.5 -48.2 -16.95 -48.35 -15.8 -47.4 -14.65 -46.4 -14.55 -44.9 M-25.7 -35.2 Q-23.15 -35.45 -21.15 -33.8 -19.2 -32.15 -18.95 -29.6 -18.75 -27.1 -20.35 -25.1 -22.0 -23.15 -24.55 -22.9 -27.1 -22.65 -29.05 -24.3 -31.05 -26.0 -31.25 -28.5 -31.5 -31.05 -29.85 -33.0 -28.25 -34.95 -25.7 -35.2" fill="#ffffff" fill-rule="evenodd" stroke="none"/>
  </g>
</svg>
