<?xml version="1.0" encoding="UTF-8" standalone="no"?>
<svg xmlns:xlink="http://www.w3.org/1999/xlink" height="16.55px" width="14.55px" xmlns="http://www.w3.org/2000/svg">
  <g transform="matrix(1.0, 0.0, 0.0, 1.0, 0.0, 0.0)">
    <path d="M-23.55 -29.45 Q-23.7 -28.35 -24.6 -27.7 -25.45 -27.05 -26.55 -27.25 -27.65 -27.4 -28.3 -28.3 -28.85 -29.15 -28.7 -30.25 -28.5 -31.35 -27.7 -32.0 -26.85 -32.6 -25.75 -32.45 -24.65 -32.25 -24.0 -31.4 -23.35 -30.55 -23.55 -29.45 M-32.95 -24.75 Q-31.15 -24.45 -30.1 -22.95 -29.0 -21.45 -29.3 -19.65 -29.6 -17.85 -31.1 -16.8 -32.55 -15.7 -34.35 -16.0 -36.15 -16.25 -37.25 -17.75 -38.3 -19.2 -38.0 -21.0 -37.7 -22.8 -36.25 -23.9 -34.75 -25.0 -32.95 -24.75" fill="#ffffff" fill-rule="evenodd" stroke="none"/>
  </g>
</svg>
