<?xml version="1.0" encoding="UTF-8" standalone="no"?>
<svg xmlns:xlink="http://www.w3.org/1999/xlink" height="16.55px" width="14.55px" xmlns="http://www.w3.org/2000/svg">
  <g transform="matrix(1.0, 0.0, 0.0, 1.0, 0.0, 0.0)">
    <path d="M-24.85 -30.3 Q-25.0 -29.2 -25.9 -28.55 -26.75 -27.9 -27.85 -28.1 -28.95 -28.25 -29.6 -29.15 -30.15 -30.0 -30.0 -31.1 -29.8 -32.2 -29.0 -32.85 -28.15 -33.45 -27.05 -33.3 -25.95 -33.1 -25.3 -32.25 -24.65 -31.4 -24.85 -30.3 M-34.25 -25.6 Q-32.45 -25.3 -31.4 -23.8 -30.3 -22.3 -30.6 -20.5 -30.9 -18.7 -32.4 -17.65 -33.85 -16.55 -35.65 -16.85 -37.45 -17.1 -38.55 -18.6 -39.6 -20.05 -39.3 -21.85 -39.0 -23.65 -37.55 -24.75 -36.05 -25.85 -34.25 -25.6" fill="#ffffff" fill-rule="evenodd" stroke="none"/>
  </g>
</svg>
