<?xml version="1.0" encoding="UTF-8" standalone="no"?>
<svg xmlns:xlink="http://www.w3.org/1999/xlink" height="25.65px" width="16.75px" xmlns="http://www.w3.org/2000/svg">
  <g transform="matrix(1.0, 0.0, 0.0, 1.0, 0.0, 0.0)">
    <path d="M-3.2 -48.8 Q-3.2 -47.2 -4.2 -46.05 -5.15 -44.9 -6.6 -44.85 -8.05 -44.8 -9.1 -45.85 -10.0 -46.9 -10.0 -48.5 -10.05 -50.1 -9.15 -51.25 -8.15 -52.4 -6.7 -52.45 -5.25 -52.5 -4.25 -51.45 -3.25 -50.4 -3.2 -48.8 M-14.3 -39.5 Q-11.9 -39.6 -10.2 -37.8 -8.5 -36.05 -8.45 -33.4 -8.4 -30.8 -10.1 -28.85 -11.7 -26.9 -14.1 -26.8 -16.45 -26.7 -18.2 -28.55 -19.9 -30.3 -19.95 -32.9 -20.0 -35.55 -18.3 -37.5 -16.65 -39.4 -14.3 -39.5" fill="#ffffff" fill-rule="evenodd" stroke="none"/>
  </g>
</svg>
