<?xml version="1.0" encoding="UTF-8" standalone="no"?>
<svg xmlns:xlink="http://www.w3.org/1999/xlink" height="23.45px" width="16.95px" xmlns="http://www.w3.org/2000/svg">
  <g transform="matrix(1.0, 0.0, 0.0, 1.0, 0.0, 0.0)">
    <path d="M-14.8 -28.9 Q-14.6 -27.5 -15.55 -26.4 -16.5 -25.3 -18.1 -25.1 -19.7 -24.95 -20.95 -25.75 -22.15 -26.65 -22.35 -28.05 -22.55 -29.45 -21.65 -30.5 -20.7 -31.65 -19.1 -31.8 -17.5 -32.0 -16.25 -31.15 -15.0 -30.3 -14.8 -28.9 M-26.1 -19.65 Q-23.45 -19.95 -21.3 -18.55 -19.2 -17.1 -18.85 -14.8 -18.5 -12.5 -20.1 -10.65 -21.75 -8.75 -24.4 -8.45 -27.0 -8.15 -29.15 -9.6 -31.3 -11.0 -31.65 -13.3 -32.0 -15.6 -30.35 -17.5 -28.7 -19.35 -26.1 -19.65" fill="#ffffff" fill-rule="evenodd" stroke="none"/>
  </g>
</svg>
