<?xml version="1.0" encoding="UTF-8" standalone="no"?>
<svg xmlns:xlink="http://www.w3.org/1999/xlink" height="23.15px" width="22.05px" xmlns="http://www.w3.org/2000/svg">
  <g transform="matrix(1.0, 0.0, 0.0, 1.0, 0.0, 0.0)">
    <path d="M27.8 -28.2 Q27.15 -26.65 25.8 -25.85 24.5 -25.05 23.25 -25.45 22.05 -25.9 21.75 -27.3 21.45 -28.65 22.1 -30.2 22.8 -31.8 24.1 -32.6 25.4 -33.4 26.6 -32.95 27.85 -32.55 28.15 -31.15 28.5 -29.8 27.8 -28.2 M14.6 -22.8 Q16.55 -22.05 17.2 -19.7 17.75 -17.35 16.6 -14.75 15.45 -12.15 13.25 -10.8 11.0 -9.45 9.05 -10.2 7.05 -10.9 6.45 -13.25 5.8 -15.6 6.95 -18.2 8.1 -20.8 10.4 -22.15 12.6 -23.5 14.6 -22.8" fill="#ffffff" fill-rule="evenodd" stroke="none"/>
  </g>
</svg>
