<?xml version="1.0" encoding="UTF-8" standalone="no"?>
<svg xmlns:xlink="http://www.w3.org/1999/xlink" height="22.8px" width="17.65px" xmlns="http://www.w3.org/2000/svg">
  <g transform="matrix(1.0, 0.0, 0.0, 1.0, 0.0, 0.0)">
    <path d="M41.5 -29.85 Q41.3 -28.5 40.25 -27.4 39.2 -26.35 37.85 -26.1 36.5 -25.85 35.75 -26.6 34.95 -27.4 35.15 -28.75 35.35 -30.1 36.35 -31.15 37.4 -32.25 38.75 -32.5 40.1 -32.75 40.85 -31.95 41.7 -31.2 41.5 -29.85 M30.05 -20.55 Q32.25 -20.95 33.65 -19.65 34.95 -18.35 34.65 -16.15 34.35 -13.95 32.55 -12.05 30.75 -10.25 28.55 -9.85 26.35 -9.45 24.95 -10.75 23.65 -12.05 23.95 -14.25 24.25 -16.45 26.05 -18.35 27.85 -20.15 30.05 -20.55" fill="#ffffff" fill-rule="evenodd" stroke="none"/>
  </g>
</svg>
