<?xml version="1.0" encoding="UTF-8" standalone="no"?>
<svg xmlns:xlink="http://www.w3.org/1999/xlink" height="10.3px" width="8.65px" xmlns="http://www.w3.org/2000/svg">
  <g transform="matrix(1.0, 0.0, 0.0, 1.0, 0.0, 0.0)">
    <path d="M89.4 18.95 L88.6 19.95 Q88.1 20.35 87.6 20.15 87.15 19.95 87.0 19.3 86.9 18.75 87.15 18.05 87.45 17.35 87.9 16.95 88.45 16.6 88.9 16.8 89.4 17.0 89.5 17.6 89.7 18.25 89.4 18.95 M84.2 21.35 Q85.0 21.65 85.2 22.7 85.45 23.7 85.0 24.9 84.55 26.05 83.7 26.65 82.8 27.25 82.0 26.95 81.25 26.65 81.05 25.55 80.8 24.55 81.25 23.4 81.7 22.2 82.55 21.6 83.45 21.05 84.2 21.35" fill="#ffffff" fill-rule="evenodd" stroke="none"/>
  </g>
</svg>
