<?xml version="1.0" encoding="UTF-8" standalone="no"?>
<svg xmlns:xlink="http://www.w3.org/1999/xlink" height="18.45px" width="11.85px" xmlns="http://www.w3.org/2000/svg">
  <g transform="matrix(1.0, 0.0, 0.0, 1.0, 0.0, 0.0)">
    <path d="M-9.05 -46.15 Q-8.9 -45.05 -9.55 -44.15 -10.3 -43.3 -11.4 -43.2 -12.5 -43.05 -13.3 -43.7 -14.15 -44.4 -14.3 -45.5 -14.4 -46.6 -13.75 -47.45 -13.1 -48.35 -12.0 -48.5 -10.9 -48.6 -10.0 -47.9 -9.15 -47.25 -9.05 -46.15 M-16.9 -38.95 Q-15.05 -39.2 -13.65 -38.05 -12.2 -36.9 -12.0 -35.1 -11.75 -33.25 -12.9 -31.8 -14.0 -30.35 -15.85 -30.1 -17.65 -29.9 -19.1 -31.05 -20.55 -32.2 -20.8 -34.05 -21.0 -35.85 -19.85 -37.3 -18.7 -38.75 -16.9 -38.95" fill="#ffffff" fill-rule="evenodd" stroke="none"/>
  </g>
</svg>
