<?xml version="1.0" encoding="UTF-8" standalone="no"?>
<svg xmlns:xlink="http://www.w3.org/1999/xlink" height="16.7px" width="13.6px" xmlns="http://www.w3.org/2000/svg">
  <g transform="matrix(1.0, 0.0, 0.0, 1.0, 0.0, 0.0)">
    <path d="M-1.15 -4.6 L0.3 -3.75 Q2.2 1.85 0.2 7.85 L0.1 8.1 Q-6.45 10.9 -10.85 6.15 -11.35 5.6 -10.9 4.9 -9.15 2.4 -5.5 2.75 -4.85 2.95 -4.8 2.25 -4.4 -1.3 -3.05 -4.3 L-1.15 -4.6 M-1.7 0.6 Q-1.45 2.8 -2.9 4.3 -5.65 7.25 -9.75 5.05 -5.65 7.25 -2.9 4.3 -1.45 2.8 -1.7 0.6 M-0.6 5.4 L-0.85 5.8 Q-2.65 8.1 -5.45 7.35 -2.65 8.1 -0.85 5.8 L-0.6 5.4" fill="url(#gradient0)" fill-rule="evenodd" stroke="none"/>
    <path d="M-1.15 -4.6 L-1.0 -7.55 M0.3 -3.75 L2.5 -6.0 M-1.15 -4.6 L0.3 -3.75 Q2.2 1.85 0.2 7.85 L0.1 8.1 Q-6.45 10.9 -10.85 6.15 -11.35 5.6 -10.9 4.9 -9.15 2.4 -5.5 2.75 -4.85 2.95 -4.8 2.25 -4.4 -1.3 -3.05 -4.3 L-4.1 -7.35 M-5.45 7.35 Q-2.65 8.1 -0.85 5.8 L-0.6 5.4 M-9.75 5.05 Q-5.65 7.25 -2.9 4.3 -1.45 2.8 -1.7 0.6 M-3.05 -4.3 L-1.15 -4.6" fill="none" stroke="#000000" stroke-linecap="round" stroke-linejoin="round" stroke-width="0.05"/>
  </g>
  <defs>
    <radialGradient cx="0" cy="0" gradientTransform="matrix(0.0063, 0.0, 0.0, 0.0097, -0.85, 3.05)" gradientUnits="userSpaceOnUse" id="gradient0" r="819.2" spreadMethod="pad">
      <stop offset="0.0" stop-color="#82b52d"/>
      <stop offset="1.0" stop-color="#50882d"/>
    </radialGradient>
  </defs>
</svg>
