<?xml version="1.0" encoding="UTF-8" standalone="no"?>
<svg xmlns:xlink="http://www.w3.org/1999/xlink" height="35.75px" width="19.35px" xmlns="http://www.w3.org/2000/svg">
  <g transform="matrix(1.0, 0.0, 0.0, 1.0, 0.0, 0.0)">
    <path d="M-16.05 9.45 L-16.05 7.1 -16.2 6.35 Q-17.7 -0.45 -14.8 -6.55 L-14.65 -7.0 Q-13.8 -8.6 -12.3 -9.5 L-8.9 -11.2 -6.8 -11.65 -5.2 -11.7 Q-3.85 -11.55 -2.8 -10.75 L-2.15 -10.25 -1.0 -8.7 Q-0.65 -6.55 -0.85 -4.4 -1.2 0.45 -3.9 5.15 L-6.0 8.9 Q-6.9 10.5 -7.2 12.7 L-7.75 18.45 Q-10.4 20.25 -13.6 18.95 L-14.3 18.65 Q-15.2 16.45 -15.65 14.15 -16.05 11.85 -16.05 9.45 L-15.95 9.4 -15.4 9.25 -15.95 9.4 -16.05 9.45 M-9.65 6.45 L-10.0 8.1 Q-10.9 12.3 -10.2 16.5 -10.9 12.3 -10.0 8.1 L-9.65 6.45 M-0.85 -4.4 L-1.9 -4.15 -0.85 -4.4 M-5.45 -7.5 L-6.25 -6.65 Q-7.85 -4.7 -8.65 -2.25 -7.85 -4.7 -6.25 -6.65 L-5.45 -7.5 M-9.35 -8.05 L-9.8 -7.6 Q-11.8 -4.8 -12.6 -1.9 -11.8 -4.8 -9.8 -7.6 L-9.35 -8.05 M-13.55 5.95 L-13.75 7.6 Q-14.2 12.2 -13.6 16.4 -14.2 12.2 -13.75 7.6 L-13.55 5.95" fill="url(#gradient0)" fill-rule="evenodd" stroke="none"/>
    <path d="M-2.15 -10.25 Q-0.35 -11.15 1.1 -12.35 L1.9 -13.1 M-0.85 -4.4 L0.25 -4.85 0.95 -5.3 M-16.05 9.45 L-16.05 7.1 -16.2 6.35 Q-17.7 -0.45 -14.8 -6.55 L-14.65 -7.0 Q-13.8 -8.6 -12.3 -9.5 L-8.9 -11.2 -9.05 -16.25 M-5.2 -11.7 Q-3.85 -11.55 -2.8 -10.75 L-2.15 -10.25 -1.0 -8.7 Q-0.65 -6.55 -0.85 -4.4 -1.2 0.45 -3.9 5.15 L-6.0 8.9 Q-6.9 10.5 -7.2 12.7 L-7.75 18.45 Q-10.4 20.25 -13.6 18.95 L-14.3 18.65 Q-15.2 16.45 -15.65 14.15 L-16.9 15.3 M-8.9 -11.2 L-6.8 -11.65 -5.2 -11.7 -3.5 -16.25 M-12.6 -1.9 Q-11.8 -4.8 -9.8 -7.6 L-9.35 -8.05 M-8.65 -2.25 Q-7.85 -4.7 -6.25 -6.65 L-5.45 -7.5 M-1.9 -4.15 L-0.85 -4.4 M-10.2 16.5 Q-10.9 12.3 -10.0 8.1 L-9.65 6.45 M-16.05 9.45 L-16.35 9.45 -17.45 9.45 M-15.4 9.25 L-15.95 9.4 -16.05 9.45 Q-16.05 11.85 -15.65 14.15 M-13.6 16.4 Q-14.2 12.2 -13.75 7.6 L-13.55 5.95" fill="none" stroke="#000000" stroke-linecap="round" stroke-linejoin="round" stroke-width="0.05"/>
  </g>
  <defs>
    <radialGradient cx="0" cy="0" gradientTransform="matrix(0.0097, 0.0017, -0.0034, 0.0193, -10.7, -1.85)" gradientUnits="userSpaceOnUse" id="gradient0" r="819.2" spreadMethod="pad">
      <stop offset="0.0" stop-color="#82b52d"/>
      <stop offset="1.0" stop-color="#50882d"/>
    </radialGradient>
  </defs>
</svg>
