<?xml version="1.0" encoding="UTF-8" standalone="no"?>
<svg xmlns:xlink="http://www.w3.org/1999/xlink" height="3.25px" width="13.65px" xmlns="http://www.w3.org/2000/svg">
  <g transform="matrix(1.0, 0.0, 0.0, 1.0, 0.0, 0.0)">
    <path d="M-10.15 -3.45 L-10.15 -2.05 -13.25 -2.05 Q-14.0 -2.7 -14.2 -3.45 L-10.15 -3.45 M-1.5 -2.05 L-8.45 -2.05 -8.45 -3.45 -0.55 -3.45 Q-0.8 -2.7 -1.5 -2.05" fill="#ffffcc" fill-rule="evenodd" stroke="none"/>
    <path d="M-13.25 -2.05 L-10.15 -2.05 -10.15 -3.45 -8.45 -3.45 -8.45 -2.05 -1.5 -2.05 -2.5 -1.4 Q-4.5 -0.2 -7.4 -0.2 -10.25 -0.2 -12.3 -1.4 L-13.25 -2.05" fill="#000000" fill-rule="evenodd" stroke="none"/>
    <path d="M-10.15 -3.45 L-14.2 -3.45 Q-14.0 -2.7 -13.25 -2.05 M-8.45 -3.45 L-10.15 -3.45 M-8.45 -3.45 L-0.55 -3.45 Q-0.8 -2.7 -1.5 -2.05" fill="none" stroke="#000000" stroke-linecap="round" stroke-linejoin="round" stroke-width="0.05"/>
  </g>
</svg>
