<?xml version="1.0" encoding="UTF-8" standalone="no"?>
<svg xmlns:xlink="http://www.w3.org/1999/xlink" height="3.9px" width="10.1px" xmlns="http://www.w3.org/2000/svg">
  <g transform="matrix(1.0, 0.0, 0.0, 1.0, 0.0, 0.0)">
    <path d="M-0.95 1.6 Q-0.15 0.6 2.85 1.15 L3.35 1.25 4.35 1.45 6.1 1.75 8.6 1.95 9.0 2.45 9.15 3.4 8.9 4.75 7.45 4.7 6.15 4.7 5.0 4.8 4.2 4.85 0.35 4.65 Q-1.0 3.2 -0.95 1.6" fill="#ecdbb5" fill-rule="evenodd" stroke="none"/>
    <path d="M-0.95 1.6 Q-0.15 0.6 2.85 1.15 L3.35 1.25 4.35 1.45 6.1 1.75 8.6 1.95 M8.9 4.75 L7.45 4.7 6.15 4.7 5.0 4.8 4.2 4.85 0.35 4.65" fill="none" stroke="#000000" stroke-linecap="round" stroke-linejoin="round" stroke-width="0.05"/>
  </g>
</svg>
