<?xml version="1.0" encoding="UTF-8" standalone="no"?>
<svg xmlns:xlink="http://www.w3.org/1999/xlink" height="5.9px" width="11.95px" xmlns="http://www.w3.org/2000/svg">
  <g transform="matrix(1.0, 0.0, 0.0, 1.0, 0.0, 0.0)">
    <path d="M-0.8 3.25 L-1.1 2.0 Q-1.1 1.0 -0.4 0.25 0.35 -0.5 1.4 -0.5 2.25 -0.5 2.9 0.0 6.75 -0.8 10.35 1.0 L10.75 2.45 10.85 3.4 Q9.7 4.75 7.0 5.25 L2.7 4.9 1.95 4.5 1.4 4.55 Q0.35 4.55 -0.4 3.8 L-0.8 3.25 M8.5 3.1 Q8.05 3.3 6.95 4.0 L3.8 3.9 6.95 4.0 Q8.05 3.3 8.5 3.1 M3.8 0.55 Q3.75 0.8 3.2 0.25 L2.9 0.0 3.2 0.25 Q3.75 0.8 3.8 0.55" fill="#ddaf70" fill-rule="evenodd" stroke="none"/>
    <path d="M-0.8 3.25 L-1.1 2.0 Q-1.1 1.0 -0.4 0.25 0.35 -0.5 1.4 -0.5 2.25 -0.5 2.9 0.0 6.75 -0.8 10.35 1.0 L10.75 2.45 10.85 3.4 Q9.7 4.75 7.0 5.25 L2.7 4.9 1.95 4.5 M2.9 0.0 L3.2 0.25 Q3.75 0.8 3.8 0.55 M3.8 3.9 L6.95 4.0 Q8.05 3.3 8.5 3.1" fill="none" stroke="#000000" stroke-linecap="round" stroke-linejoin="round" stroke-width="0.05"/>
  </g>
</svg>
