<?xml version="1.0" encoding="UTF-8" standalone="no"?>
<svg xmlns:xlink="http://www.w3.org/1999/xlink" height="3.7px" width="14.7px" xmlns="http://www.w3.org/2000/svg">
  <g transform="matrix(1.0, 0.0, 0.0, 1.0, 0.0, 0.0)">
    <path d="M-1.4 2.0 L-1.1 1.9 Q2.7 1.4 6.65 1.95 L9.55 1.65 10.7 1.2 Q12.5 1.2 12.85 2.05 13.8 3.4 12.85 4.6 L9.6 4.9 9.05 4.2 Q8.05 3.9 5.9 4.2 L2.6 4.7 0.25 4.9 Q-0.9 4.8 -1.4 4.15 L-1.4 2.0" fill="#ecdbb5" fill-rule="evenodd" stroke="none"/>
    <path d="M-1.4 4.15 Q-0.9 4.8 0.25 4.9 L2.6 4.7 5.9 4.2 Q8.05 3.9 9.05 4.2 L9.6 4.9 12.85 4.6 Q13.8 3.4 12.85 2.05 12.5 1.2 10.7 1.2 L9.55 1.65 6.65 1.95 Q2.7 1.4 -1.1 1.9 L-1.4 2.0" fill="none" stroke="#000000" stroke-linecap="round" stroke-linejoin="round" stroke-width="0.05"/>
  </g>
</svg>
