<?xml version="1.0" encoding="UTF-8" standalone="no"?>
<svg xmlns:xlink="http://www.w3.org/1999/xlink" height="5.2px" width="16.1px" xmlns="http://www.w3.org/2000/svg">
  <g transform="matrix(1.0, 0.0, 0.0, 1.0, 0.0, 0.0)">
    <path d="M9.65 0.7 L11.55 0.45 12.7 0.0 Q14.1 0.0 14.6 0.5 L14.85 0.85 Q15.8 2.2 14.85 3.4 L11.6 3.7 11.05 3.0 9.95 2.85 9.65 0.7" fill="#ddaf70" fill-rule="evenodd" stroke="none"/>
    <path d="M9.65 0.7 L9.95 2.85 Q8.8 3.25 7.25 4.2 5.7 5.1 3.4 5.15 L0.7 5.2 0.4 4.95 0.15 4.55 Q-0.9 3.2 -0.8 1.55 L-0.55 0.7 -0.4 0.3 8.65 0.75 9.65 0.7" fill="#3a2e1f" fill-rule="evenodd" stroke="none"/>
    <path d="M9.95 2.85 L11.05 3.0 11.6 3.7 14.85 3.4 Q15.8 2.2 14.85 0.85 L14.6 0.5 Q14.1 0.0 12.7 0.0 L11.55 0.45 9.65 0.7 9.95 2.85 Q8.8 3.25 7.25 4.2 5.7 5.1 3.4 5.15 L0.7 5.2 0.4 4.95 0.15 4.55 Q-0.9 3.2 -0.8 1.55 L-0.55 0.7 -0.4 0.3 8.65 0.75 9.65 0.7" fill="none" stroke="#000000" stroke-linecap="round" stroke-linejoin="round" stroke-width="0.05"/>
  </g>
</svg>
