<?xml version="1.0" encoding="UTF-8" standalone="no"?>
<svg xmlns:xlink="http://www.w3.org/1999/xlink" height="18.65px" width="10.25px" xmlns="http://www.w3.org/2000/svg">
  <g transform="matrix(1.0, 0.0, 0.0, 1.0, 0.0, 0.0)">
    <path d="M-1.9 16.2 L-2.2 16.35 -2.25 16.25 -2.2 16.05 -1.8 15.6 -1.0 14.9 -0.6 13.15 -0.15 9.55 Q0.0 7.9 -1.0 6.6 L-1.05 5.95 Q-1.0 4.9 -0.45 4.0 L0.2 3.65 1.1 4.2 1.8 5.2 2.1 6.6 2.35 9.4 Q2.55 10.7 3.15 11.9 L5.85 16.8 4.7 16.75 4.95 18.15 Q4.85 18.55 4.55 18.4 L3.2 17.35 2.55 16.8 2.2 18.05 1.05 16.35 0.1 17.2 -0.3 17.6 -0.9 17.7 -0.55 15.5 -1.9 16.2" fill="#5a3416" fill-rule="evenodd" stroke="none"/>
    <path d="M-1.9 16.2 L-0.55 15.5 -0.9 17.7 -0.3 17.6 0.1 17.2 1.05 16.35 2.2 18.05 2.55 16.8 3.2 17.35 4.55 18.4 Q4.85 18.55 4.95 18.15 L5.2 18.9 Q3.35 21.8 0.0 22.3 L-2.55 21.7 Q-1.3 20.6 -1.6 19.5 L-2.2 19.3 Q-3.7 19.85 -3.4 20.95 L-4.05 20.75 -4.4 20.05 -1.9 16.2" fill="#8f6e38" fill-rule="evenodd" stroke="none"/>
    <path d="M4.95 18.15 L4.7 16.75 5.85 16.8 3.15 11.9 Q2.55 10.7 2.35 9.4 L2.1 6.6 1.8 5.2 1.1 4.2 0.2 3.65 -0.45 4.0 Q-1.0 4.9 -1.05 5.95 L-1.0 6.6 Q0.0 7.9 -0.15 9.55 L-0.6 13.15 -1.0 14.9 -1.8 15.6 -2.2 16.05 -2.25 16.25 -2.2 16.35 -1.9 16.2 -0.55 15.5 -0.9 17.7 -0.3 17.6 0.1 17.2 1.05 16.35 2.2 18.05 2.55 16.8 3.2 17.35 4.55 18.4 Q4.85 18.55 4.95 18.15 L5.2 18.9 Q3.35 21.8 0.0 22.3 L-2.55 21.7 Q-1.3 20.6 -1.6 19.5 L-2.2 19.3 Q-3.7 19.85 -3.4 20.95 L-4.05 20.75 -4.4 20.05 -1.9 16.2" fill="none" stroke="#000000" stroke-linecap="round" stroke-linejoin="round" stroke-width="0.05"/>
  </g>
</svg>
