<?xml version="1.0" encoding="UTF-8" standalone="no"?>
<svg xmlns:xlink="http://www.w3.org/1999/xlink" height="19.75px" width="11.35px" xmlns="http://www.w3.org/2000/svg">
  <g transform="matrix(1.0, 0.0, 0.0, 1.0, 0.0, 0.0)">
    <path d="M-1.45 0.25 Q-0.15 -0.8 1.65 -1.35 L4.5 -0.4 Q5.45 0.0 5.75 0.9 L6.0 1.8 Q7.5 8.25 2.3 13.65 3.4 15.1 3.65 16.15 L4.0 17.35 1.3 18.4 -0.95 17.2 Q-4.6 14.95 -4.95 10.85 -5.1 8.9 -4.85 6.9 -4.25 2.45 -1.45 0.25" fill="#5a3416" fill-rule="evenodd" stroke="none"/>
    <path d="M-1.45 0.25 Q-4.25 2.45 -4.85 6.9 -5.1 8.9 -4.95 10.85 -4.6 14.95 -0.95 17.2 L1.3 18.4 M4.0 17.35 L3.65 16.15 Q3.4 15.1 2.3 13.65 7.5 8.25 6.0 1.8" fill="none" stroke="#000000" stroke-linecap="round" stroke-linejoin="round" stroke-width="0.05"/>
  </g>
</svg>
