<?xml version="1.0" encoding="UTF-8" standalone="no"?>
<svg xmlns:xlink="http://www.w3.org/1999/xlink" height="23.25px" width="46.85px" xmlns="http://www.w3.org/2000/svg">
  <g transform="matrix(1.0, 0.0, 0.0, 1.0, 0.0, 0.0)">
    <path d="M16.65 -3.55 L17.0 -2.05 16.65 -3.55 Q20.2 -2.1 20.5 1.75 20.85 5.75 23.25 8.95 23.9 9.8 24.85 10.35 26.5 11.35 28.35 11.2 26.8 12.05 25.05 11.85 L24.25 11.65 Q24.9 12.9 26.25 13.25 L29.15 13.45 29.9 13.1 Q29.35 14.65 27.75 15.1 L26.4 15.45 25.4 15.3 Q22.9 14.45 21.5 12.2 L22.95 15.3 22.15 14.85 Q21.2 14.15 20.55 13.15 19.6 11.65 19.0 10.0 L18.55 8.15 18.2 10.2 Q16.7 6.85 17.7 3.35 L18.05 1.25 Q18.1 0.2 17.8 -0.8 L17.4 -1.85 17.0 -2.05 17.05 0.0 16.55 2.7 15.95 4.1 Q15.45 5.05 14.55 5.35 L12.35 5.25 4.15 4.8 Q1.75 5.2 0.65 5.8 L-2.35 6.95 -8.1 7.45 Q-12.0 7.35 -13.15 6.6 -14.6 5.5 -15.4 4.05 L-16.2 2.25 -16.75 -0.25 Q-17.1 -3.4 -16.9 -6.75 L-14.55 -7.4 -12.2 -7.8 -8.9 -7.65 -2.05 -6.45 3.5 -5.9 6.7 -7.8 8.5 -7.7 10.25 -7.3 Q13.95 -6.5 16.6 -3.75 L16.65 -3.55 M18.6 7.45 L18.55 8.15 18.6 7.45" fill="#5a3416" fill-rule="evenodd" stroke="none"/>
    <path d="M17.0 -2.05 L16.65 -3.55 16.6 -3.75 Q13.95 -6.5 10.25 -7.3 L8.5 -7.7 6.7 -7.8 3.5 -5.9 -2.05 -6.45 -8.9 -7.65 -12.2 -7.8 -14.55 -7.4 -16.9 -6.75 Q-17.1 -3.4 -16.75 -0.25 L-16.2 2.25 -15.4 4.05 Q-14.6 5.5 -13.15 6.6 -12.0 7.35 -8.1 7.45 L-2.35 6.95 0.65 5.8 Q1.75 5.2 4.15 4.8 L12.35 5.25 14.55 5.35 Q15.45 5.05 15.95 4.1 L16.55 2.7 17.05 0.0 17.0 -2.05 17.4 -1.85 17.8 -0.8 Q18.1 0.2 18.05 1.25 L17.7 3.35 Q16.7 6.85 18.2 10.2 L18.55 8.15 18.6 7.45 M16.65 -3.55 Q20.2 -2.1 20.5 1.75 20.85 5.75 23.25 8.95 23.9 9.8 24.85 10.35 26.5 11.35 28.35 11.2 26.8 12.05 25.05 11.85 L24.25 11.65 Q24.9 12.9 26.25 13.25 L29.15 13.45 29.9 13.1 Q29.35 14.65 27.75 15.1 L26.4 15.45 25.4 15.3 Q22.9 14.45 21.5 12.2 L22.95 15.3 22.15 14.85 Q21.2 14.15 20.55 13.15 19.6 11.65 19.0 10.0 L18.55 8.15" fill="none" stroke="#000000" stroke-linecap="round" stroke-linejoin="round" stroke-width="0.05"/>
  </g>
</svg>
