<?xml version="1.0" encoding="UTF-8" standalone="no"?>
<svg xmlns:xlink="http://www.w3.org/1999/xlink" height="15.15px" width="12.1px" xmlns="http://www.w3.org/2000/svg">
  <g transform="matrix(1.0, 0.0, 0.0, 1.0, 0.0, 0.0)">
    <path d="M2.65 14.5 L2.6 14.45 1.85 13.25 1.4 11.9 1.05 10.45 0.85 9.3 Q0.3 8.5 0.1 7.75 L-0.15 6.35 -0.35 4.55 Q-0.5 3.5 -0.3 2.6 -0.1 1.75 0.5 1.4 L1.65 0.9 7.8 0.6 9.85 0.5 Q10.8 1.25 11.2 2.35 L11.65 4.2 11.55 5.85 11.35 6.8 11.2 7.35 10.45 8.9 Q9.95 9.7 9.7 10.7 L9.3 12.25 9.25 13.0 9.1 13.45 9.05 13.5 Q6.15 15.65 4.75 15.65 3.35 15.65 2.65 14.5 M4.3 12.85 L4.35 11.9 4.3 12.85 M3.2 5.15 L2.95 7.25 3.2 5.15 M9.0 4.85 L9.35 6.65 Q9.2 6.85 9.2 7.15 L8.95 8.9 9.2 7.15 Q9.2 6.85 9.35 6.65 L9.0 4.85 M2.35 8.8 Q2.1 9.15 0.85 9.3 2.1 9.15 2.35 8.8 M6.0 9.3 L3.85 9.1 3.3 8.3 3.85 9.1 6.0 9.3 M7.8 0.6 L7.2 2.1 Q6.25 2.85 5.1 2.85 3.95 3.05 3.5 4.1 L2.55 2.75 Q2.05 2.05 1.15 1.85 2.05 2.05 2.55 2.75 L3.5 4.1 Q3.95 3.05 5.1 2.85 6.25 2.85 7.2 2.1 L7.8 0.6" fill="url(#gradient0)" fill-rule="evenodd" stroke="none"/>
    <path d="M2.65 14.5 L2.6 14.45 1.85 13.25 1.4 11.9 1.05 10.45 0.85 9.3 Q0.3 8.5 0.1 7.75 L-0.15 6.35 -0.35 4.55 Q-0.5 3.5 -0.3 2.6 -0.1 1.75 0.5 1.4 L1.65 0.9 7.8 0.6 9.85 0.5 Q10.8 1.25 11.2 2.35 L11.65 4.2 11.55 5.85 11.35 6.8 11.2 7.35 10.45 8.9 Q9.95 9.7 9.7 10.7 L9.3 12.25 9.25 13.0 9.1 13.45 9.05 13.5 M1.15 1.85 Q2.05 2.05 2.55 2.75 L3.5 4.1 Q3.95 3.05 5.1 2.85 6.25 2.85 7.2 2.1 L7.8 0.6 M3.3 8.3 L3.85 9.1 6.0 9.3 M0.85 9.3 Q2.1 9.15 2.35 8.8 M8.95 8.9 L9.2 7.15 Q9.2 6.85 9.35 6.65 L9.0 4.85 M2.95 7.25 L3.2 5.15 M4.35 11.9 L4.3 12.85" fill="none" stroke="#000000" stroke-linecap="round" stroke-linejoin="round" stroke-width="0.05"/>
  </g>
  <defs>
    <radialGradient cx="0" cy="0" gradientTransform="matrix(0.0131, 0.0, 0.0, 0.012, 4.05, 5.8)" gradientUnits="userSpaceOnUse" id="gradient0" r="819.2" spreadMethod="pad">
      <stop offset="0.7529411764705882" stop-color="#ddaf70"/>
      <stop offset="1.0" stop-color="#5a3416"/>
    </radialGradient>
  </defs>
</svg>
