<?xml version="1.0" encoding="UTF-8" standalone="no"?>
<svg xmlns:xlink="http://www.w3.org/1999/xlink" height="13.2px" width="12.6px" xmlns="http://www.w3.org/2000/svg">
  <g transform="matrix(1.0, 0.0, 0.0, 1.0, 0.0, 0.0)">
    <path d="M6.55 -1.35 L6.65 -1.35 Q7.4 -0.8 7.25 0.7 L6.6 1.85 Q5.75 0.55 6.1 -0.25 L6.55 -1.35 M1.0 4.7 L1.75 4.0 Q2.65 4.8 2.95 6.0 3.9 9.6 1.15 11.8 L0.6 10.45 Q-0.55 7.35 1.0 4.7 M5.15 2.6 L5.85 2.4 Q6.95 2.65 8.0 3.25 9.05 3.9 9.65 7.6 6.3 5.65 5.15 2.6 M0.45 1.65 L-0.5 2.8 Q-1.0 1.25 0.55 0.05 0.85 1.2 0.45 1.65 M7.05 8.55 L7.0 10.8 Q2.85 8.1 4.2 3.6 L5.1 4.2 Q6.85 6.0 7.05 8.55 M-0.95 3.25 L0.1 3.35 Q-1.25 5.1 -2.8 4.95 L-2.95 5.0 Q-2.65 4.2 -1.8 3.65 L-0.95 3.25 M-0.8 4.7 L-0.2 4.45 Q0.1 6.5 -1.65 9.75 -2.3 8.65 -2.35 7.4 -2.4 6.1 -1.95 5.6 L-0.8 4.7" fill="#396020" fill-rule="evenodd" stroke="none"/>
    <path d="M6.65 -1.35 L6.55 -1.4 6.55 -1.35 6.1 -0.25 Q5.75 0.55 6.6 1.85 L7.25 0.7 Q7.4 -0.8 6.65 -1.35 M5.15 2.6 Q6.3 5.65 9.65 7.6 9.05 3.9 8.0 3.25 6.95 2.65 5.85 2.4 L5.15 2.6 M1.0 4.7 Q-0.55 7.35 0.6 10.45 L1.15 11.8 Q3.9 9.6 2.95 6.0 2.65 4.8 1.75 4.0 L1.0 4.7 M0.45 1.65 L-0.5 2.8 Q-1.0 1.25 0.55 0.05 0.85 1.2 0.45 1.65 M7.05 8.55 Q6.85 6.0 5.1 4.2 L4.2 3.6 Q2.85 8.1 7.0 10.8 L7.05 8.55 M-0.95 3.25 L0.1 3.35 Q-1.25 5.1 -2.8 4.95 L-2.95 5.0 Q-2.65 4.2 -1.8 3.65 L-0.95 3.25 M-0.8 4.7 L-0.2 4.45 Q0.1 6.5 -1.65 9.75 -2.3 8.65 -2.35 7.4 -2.4 6.1 -1.95 5.6 L-0.8 4.7 Z" fill="none" stroke="#000000" stroke-linecap="round" stroke-linejoin="round" stroke-width="0.05"/>
  </g>
</svg>
