<?xml version="1.0" encoding="UTF-8" standalone="no"?>
<svg xmlns:xlink="http://www.w3.org/1999/xlink" height="12.9px" width="11.55px" xmlns="http://www.w3.org/2000/svg">
  <g transform="matrix(1.0, 0.0, 0.0, 1.0, 0.0, 0.0)">
    <path d="M-1.55 9.2 L-1.3 5.25 2.45 3.45 3.05 3.15 3.45 3.6 4.55 2.8 Q6.9 1.15 8.7 -1.15 L9.8 -0.6 10.0 -0.4 Q8.3 1.5 7.75 4.05 6.85 8.0 3.15 9.7 L3.45 8.25 Q2.3 10.2 0.55 11.75 L0.25 8.3 0.0 7.95 -1.45 9.3 -1.55 9.2" fill="#5a3416" fill-rule="evenodd" stroke="none"/>
    <path d="M-1.45 9.3 L0.0 7.95 0.25 8.3 0.55 11.75 Q2.3 10.2 3.45 8.25 L3.15 9.7 Q6.85 8.0 7.75 4.05 8.3 1.5 10.0 -0.4 L9.8 -0.6 8.7 -1.15 Q6.9 1.15 4.55 2.8 L3.45 3.6 3.05 3.15 2.45 3.45 -1.3 5.25 -1.55 9.2 -1.55 9.35 -1.45 9.3 M3.6 1.5 L2.45 3.45" fill="none" stroke="#000000" stroke-linecap="round" stroke-linejoin="round" stroke-width="0.05"/>
  </g>
</svg>
