<?xml version="1.0" encoding="UTF-8" standalone="no"?>
<svg xmlns:xlink="http://www.w3.org/1999/xlink" height="20.25px" width="11.95px" xmlns="http://www.w3.org/2000/svg">
  <g transform="matrix(1.0, 0.0, 0.0, 1.0, 0.0, 0.0)">
    <path d="M0.6 1.4 L0.55 1.3 0.75 0.25 1.65 -0.4 3.5 -0.9 5.45 -1.25 7.25 -1.05 8.9 -0.5 9.8 0.35 10.05 1.15 10.25 1.8 10.3 2.2 10.25 2.45 10.2 3.2 10.2 3.95 10.2 4.75 10.15 5.55 10.05 5.9 9.8 6.55 9.6 7.2 9.35 7.85 9.15 8.5 9.0 9.25 8.95 9.75 8.9 10.05 8.85 10.8 8.85 11.1 8.8 11.9 8.75 12.35 8.85 13.8 8.85 13.85 Q8.9 14.9 6.85 16.85 4.75 18.85 3.65 19.0 3.0 18.8 2.05 16.85 2.0 14.95 2.1 14.6 L2.2 13.95 2.3 13.15 2.35 12.9 2.35 12.5 Q2.6 11.5 2.35 10.7 L1.85 9.0 1.8 8.45 0.7 9.05 0.6 9.1 Q-0.7 9.05 -1.25 8.1 -1.65 7.4 -1.65 6.6 L-1.55 6.05 -0.75 4.55 -0.25 3.8 -0.15 3.9 0.1 3.15 0.35 2.4 0.4 2.25 0.55 1.4 0.6 1.4 M0.1 3.15 L0.4 2.25 0.1 3.15 M4.25 12.35 L4.1 13.35 4.25 12.35 M8.5 6.1 Q8.65 7.25 8.25 7.95 7.8 8.65 7.15 9.0 L5.5 9.2 Q4.55 9.15 3.85 8.5 3.3 8.0 3.0 6.9 3.3 8.0 3.85 8.5 4.55 9.15 5.5 9.2 L7.15 9.0 Q7.8 8.65 8.25 7.95 8.65 7.25 8.5 6.1" fill="url(#gradient0)" fill-rule="evenodd" stroke="none"/>
    <path d="M0.6 1.4 L0.55 1.4 0.55 1.35 0.6 1.4" fill="url(#gradient1)" fill-rule="evenodd" stroke="none"/>
    <path d="M8.85 13.85 L8.85 13.8 8.75 12.35 8.8 11.9 8.85 11.1 8.85 10.8 8.9 10.05 8.95 9.75 9.0 9.25 9.15 8.5 9.35 7.85 9.6 7.2 9.8 6.55 10.05 5.9 10.15 5.55 10.2 4.75 10.2 3.95 10.2 3.2 10.25 2.45 10.3 2.2 10.25 1.8 10.05 1.15 9.8 0.35 8.9 -0.5 7.25 -1.05 5.45 -1.25 3.5 -0.9 1.65 -0.4 0.75 0.25 0.55 1.3 0.6 1.4 M0.55 1.4 L0.4 2.25 0.1 3.15 0.0 3.35 -0.25 3.8 -0.75 4.55 -1.55 6.05 -1.65 6.6 Q-1.65 7.4 -1.25 8.1 -0.7 9.05 0.6 9.1 L0.7 9.05 1.8 8.45 1.85 9.0 2.35 10.7 Q2.6 11.5 2.35 12.5 L2.35 12.9 2.3 13.15 2.2 13.95 2.1 14.6 Q2.0 14.95 2.05 16.85 3.0 18.8 3.65 19.0 M0.55 1.3 L0.55 1.35 0.55 1.4 M0.4 2.25 L0.35 2.4 0.1 3.15 M3.0 6.9 Q3.3 8.0 3.85 8.5 4.55 9.15 5.5 9.2 L7.15 9.0 Q7.8 8.65 8.25 7.95 8.65 7.25 8.5 6.1 M4.1 13.35 L4.25 12.35" fill="none" stroke="#000000" stroke-linecap="round" stroke-linejoin="round" stroke-width="0.05"/>
  </g>
  <defs>
    <radialGradient cx="0" cy="0" gradientTransform="matrix(0.0131, 0.0, 0.0, 0.012, 4.05, 5.8)" gradientUnits="userSpaceOnUse" id="gradient0" r="819.2" spreadMethod="pad">
      <stop offset="0.7529411764705882" stop-color="#ecdbb5"/>
      <stop offset="1.0" stop-color="#ce7439"/>
    </radialGradient>
    <radialGradient cx="0" cy="0" gradientTransform="matrix(0.009, 0.0, 0.0, 0.0123, 3.0, 7.2)" gradientUnits="userSpaceOnUse" id="gradient1" r="819.2" spreadMethod="pad">
      <stop offset="0.0" stop-color="#ececec"/>
      <stop offset="1.0" stop-color="#a0a0a0"/>
    </radialGradient>
  </defs>
</svg>
