<?xml version="1.0" encoding="UTF-8" standalone="no"?>
<svg xmlns:xlink="http://www.w3.org/1999/xlink" height="68.3px" width="41.5px" xmlns="http://www.w3.org/2000/svg">
  <g transform="matrix(1.0, 0.0, 0.0, 1.0, 0.0, 0.0)">
    <path d="M-0.05 -16.35 L-7.4 -17.8 -8.1 -17.35 -8.65 -17.1 -9.55 -16.15 Q-13.4 -12.4 -16.55 -8.0 -18.2 -5.65 -19.45 -3.1 -21.55 1.25 -21.3 6.05 L-20.3 6.45 -19.5 6.5 Q-17.4 5.25 -15.05 4.5 -11.0 3.2 -7.1 4.05 -3.15 5.05 0.65 6.65 3.75 3.65 5.9 -0.25 6.8 -1.9 7.3 -3.4 8.75 -7.8 7.65 -12.35 L8.3 -12.95 7.65 -12.35 Q8.75 -7.8 7.3 -3.4 6.8 -1.9 5.9 -0.25 3.75 3.65 0.65 6.65 -3.15 5.05 -7.1 4.05 -11.0 3.2 -15.05 4.5 -17.4 5.25 -19.5 6.5 L-20.3 6.45 -21.3 6.05 Q-21.55 1.25 -19.45 -3.1 -18.2 -5.65 -16.55 -8.0 -13.4 -12.4 -9.55 -16.15 L-8.65 -17.1 -8.1 -17.35 -7.4 -17.8 -0.05 -16.35 M-18.45 16.7 L-22.05 16.35 -22.4 15.65 -22.1 14.35 Q-21.5 11.65 -19.8 9.65 L-20.25 9.1 -22.5 8.7 Q-24.2 1.35 -20.2 -5.55 L-17.9 -9.25 Q-15.25 -13.2 -11.8 -16.4 -9.5 -18.6 -6.8 -20.15 L-4.5 -19.2 Q-2.65 -23.5 -0.15 -27.25 2.1 -30.65 5.65 -32.65 9.8 -34.9 14.45 -34.1 16.7 -33.65 17.4 -31.3 18.75 -26.95 17.3 -22.55 16.35 -19.5 15.05 -16.6 17.0 -12.6 18.15 -8.2 18.9 -5.2 17.95 -2.3 16.6 1.9 14.7 5.85 12.6 10.15 8.95 12.75 L5.5 14.95 4.95 14.75 4.85 16.35 1.8 17.55 -2.95 19.1 -3.05 19.15 -3.9 19.05 -5.0 18.6 -6.85 18.15 -10.25 17.4 -11.5 17.3 -18.45 16.7 M3.7 21.5 L5.05 21.05 Q7.8 25.35 3.6 28.6 L2.35 29.1 0.45 29.2 Q-0.2 26.95 -1.2 24.75 L-1.3 24.2 -0.85 24.15 0.15 23.0 3.7 21.5 M-4.65 23.9 L-3.9 24.15 Q-1.75 28.35 -2.05 32.9 L-3.3 33.55 -6.6 34.0 -7.55 32.9 Q-11.0 28.7 -10.45 23.6 L-10.05 23.3 -8.25 23.25 -4.65 23.9 M-15.95 22.0 Q-14.6 24.45 -15.35 27.15 L-16.0 29.7 Q-17.9 31.1 -20.05 31.7 L-20.4 31.8 -21.4 31.35 Q-22.7 27.4 -22.9 23.2 L-22.1 22.55 Q-20.3 21.65 -18.05 21.45 L-16.7 21.4 -15.95 22.0 M13.15 -16.85 L14.6 -20.05 Q15.9 -22.35 15.1 -24.45 L14.55 -24.4 12.85 -23.3 11.8 -22.3 10.65 -20.95 9.35 -18.5 8.45 -16.05 4.65 -16.1 Q-0.25 -16.7 -4.5 -19.2 -0.25 -16.7 4.65 -16.1 L8.45 -16.05 13.15 -16.85 14.6 -17.15 15.05 -16.6 14.6 -17.15 13.15 -16.85 M2.8 8.75 Q3.45 5.85 6.05 4.35 9.3 2.4 10.4 -1.3 12.05 -7.05 10.3 -12.8 L10.45 -13.2 Q11.6 -15.25 13.95 -16.0 11.6 -15.25 10.45 -13.2 L10.3 -12.8 Q12.05 -7.05 10.4 -1.3 9.3 2.4 6.05 4.35 3.45 5.85 2.8 8.75 M3.9 26.95 L4.75 25.6 Q5.65 24.0 5.05 22.3 L4.35 22.5 Q2.1 23.25 0.25 24.8 2.1 23.25 4.35 22.5 L5.05 22.3 Q5.65 24.0 4.75 25.6 L3.9 26.95 M-19.8 9.65 L-18.55 8.7 Q-14.75 5.85 -9.95 6.0 -5.3 5.55 -1.05 7.7 3.35 9.9 4.95 14.75 3.35 9.9 -1.05 7.7 -5.3 5.55 -9.95 6.0 -14.75 5.85 -18.55 8.7 L-19.8 9.65 M-14.65 10.2 Q-17.4 11.0 -19.45 13.05 -20.55 14.2 -19.95 14.65 L-18.3 14.5 Q-14.1 14.2 -10.0 15.5 L-5.65 16.6 Q-1.0 17.6 3.5 15.0 -1.0 17.6 -5.65 16.6 L-10.0 15.5 Q-14.1 14.2 -18.3 14.5 L-19.95 14.65 Q-20.55 14.2 -19.45 13.05 -17.4 11.0 -14.65 10.2 M-4.25 26.7 L-4.15 25.95 -4.55 25.4 Q-6.95 24.85 -9.4 25.4 L-9.4 26.1 Q-8.65 29.75 -6.25 32.65 -8.65 29.75 -9.4 26.1 L-9.4 25.4 Q-6.95 24.85 -4.55 25.4 L-4.15 25.95 -4.25 26.7" fill="url(#gradient0)" fill-rule="evenodd" stroke="none"/>
    <path d="M1.8 17.55 L2.75 19.45 3.7 21.5 0.15 23.0 -0.85 24.15 Q-0.95 21.8 -2.35 19.95 L-3.0 19.2 -2.95 19.1 1.8 17.55 M-5.0 18.6 L-5.3 20.5 Q-5.65 22.4 -4.65 23.9 L-8.25 23.25 -10.05 23.3 -10.25 17.4 -6.85 18.15 -5.0 18.6 M-11.5 17.3 L-12.95 18.45 Q-14.7 20.0 -15.95 22.0 L-16.7 21.4 -18.05 21.45 Q-20.3 21.65 -22.1 22.55 -21.75 19.85 -19.75 17.95 L-18.45 16.7 -11.5 17.3 M8.45 -16.05 L9.35 -18.5 10.65 -20.95 11.8 -22.3 12.85 -23.3 14.55 -24.4 15.1 -24.45 Q15.9 -22.35 14.6 -20.05 L13.15 -16.85 8.45 -16.05 M13.35 -20.15 L10.65 -20.95 13.35 -20.15 M14.55 -22.65 L12.85 -23.3 14.55 -22.65 M11.6 -18.05 L9.35 -18.5 11.6 -18.05" fill="#666666" fill-rule="evenodd" stroke="none"/>
    <path d="M-18.45 16.7 L-22.05 16.35 -22.4 15.65 -22.1 14.35 Q-21.5 11.65 -19.8 9.65 L-20.25 9.1 -22.5 8.7 Q-24.2 1.35 -20.2 -5.55 L-17.9 -9.25 Q-15.25 -13.2 -11.8 -16.4 -9.5 -18.6 -6.8 -20.15 L-4.5 -19.2 Q-2.65 -23.5 -0.15 -27.25 2.1 -30.65 5.65 -32.65 9.8 -34.9 14.45 -34.1 16.7 -33.65 17.4 -31.3 18.75 -26.95 17.3 -22.55 16.35 -19.5 15.05 -16.6 17.0 -12.6 18.15 -8.2 18.9 -5.2 17.95 -2.3 16.6 1.9 14.7 5.85 12.6 10.15 8.95 12.75 L5.5 14.95 4.95 14.75 4.85 16.35 1.8 17.55 2.75 19.45 3.7 21.5 5.05 21.05 Q7.8 25.35 3.6 28.6 L2.35 29.1 0.45 29.2 Q-0.2 26.95 -1.2 24.75 L-1.3 24.2 -0.85 24.15 Q-0.95 21.8 -2.35 19.95 L-3.0 19.2 -3.05 19.15 -3.9 19.05 -5.0 18.6 -5.3 20.5 Q-5.65 22.4 -4.65 23.9 L-3.9 24.15 Q-1.75 28.35 -2.05 32.9 L-3.3 33.55 -6.6 34.0 -7.55 32.9 Q-11.0 28.7 -10.45 23.6 L-10.05 23.3 -10.25 17.4 -11.5 17.3 -12.95 18.45 Q-14.7 20.0 -15.95 22.0 -14.6 24.45 -15.35 27.15 L-16.0 29.7 Q-17.9 31.1 -20.05 31.7 L-20.4 31.8 -21.4 31.35 Q-22.7 27.4 -22.9 23.2 L-22.1 22.55 Q-21.75 19.85 -19.75 17.95 L-18.45 16.7 -11.5 17.3 M8.45 -16.05 L9.35 -18.5 10.65 -20.95 11.8 -22.3 12.85 -23.3 14.55 -24.4 15.1 -24.45 Q15.9 -22.35 14.6 -20.05 L13.15 -16.85 14.6 -17.15 15.05 -16.6 M12.85 -23.3 L14.55 -22.65 M10.65 -20.95 L13.35 -20.15 M13.95 -16.0 Q11.6 -15.25 10.45 -13.2 L10.3 -12.8 Q12.05 -7.05 10.4 -1.3 9.3 2.4 6.05 4.35 3.45 5.85 2.8 8.75 M-4.5 -19.2 Q-0.25 -16.7 4.65 -16.1 L8.45 -16.05 13.15 -16.85 M9.35 -18.5 L11.6 -18.05 M-0.85 24.15 L0.15 23.0 3.7 21.5 M4.95 14.75 Q3.35 9.9 -1.05 7.7 -5.3 5.55 -9.95 6.0 -14.75 5.85 -18.55 8.7 L-19.8 9.65 M-22.1 22.55 Q-20.3 21.65 -18.05 21.45 L-16.7 21.4 -15.95 22.0 M-4.65 23.9 L-8.25 23.25 -10.05 23.3 M-3.05 19.15 L-2.95 19.1 1.8 17.55 M-10.25 17.4 L-6.85 18.15 -5.0 18.6" fill="none" stroke="#000000" stroke-linecap="round" stroke-linejoin="round" stroke-width="0.05"/>
    <path d="M8.3 -12.95 L7.65 -12.35 Q8.75 -7.8 7.3 -3.4 6.8 -1.9 5.9 -0.25 3.75 3.65 0.65 6.65 -3.15 5.05 -7.1 4.05 -11.0 3.2 -15.05 4.5 -17.4 5.25 -19.5 6.5 L-20.3 6.45 -21.3 6.05 Q-21.55 1.25 -19.45 -3.1 -18.2 -5.65 -16.55 -8.0 -13.4 -12.4 -9.55 -16.15 L-8.65 -17.1 -8.1 -17.35 -7.4 -17.8 -0.05 -16.35 M0.25 24.8 Q2.1 23.25 4.35 22.5 L5.05 22.3 Q5.65 24.0 4.75 25.6 L3.9 26.95 M3.5 15.0 Q-1.0 17.6 -5.65 16.6 L-10.0 15.5 Q-14.1 14.2 -18.3 14.5 L-19.95 14.65 Q-20.55 14.2 -19.45 13.05 -17.4 11.0 -14.65 10.2 M-6.25 32.65 Q-8.65 29.75 -9.4 26.1 L-9.4 25.4 Q-6.95 24.85 -4.55 25.4 L-4.15 25.95 -4.25 26.7" fill="none" stroke="#ffffff" stroke-linecap="round" stroke-linejoin="round" stroke-width="0.05"/>
  </g>
  <defs>
    <linearGradient gradientTransform="matrix(0.0205, 0.0062, -0.0056, 0.0186, -8.65, 16.7)" gradientUnits="userSpaceOnUse" id="gradient0" spreadMethod="pad" x1="-819.2" x2="819.2">
      <stop offset="0.0" stop-color="#8fe6ef"/>
      <stop offset="0.27450980392156865" stop-color="#e8f2f4"/>
      <stop offset="1.0" stop-color="#5e6b71"/>
    </linearGradient>
  </defs>
</svg>
