<?xml version="1.0" encoding="UTF-8" standalone="no"?>
<svg xmlns:xlink="http://www.w3.org/1999/xlink" height="68.15px" width="44.3px" xmlns="http://www.w3.org/2000/svg">
  <g transform="matrix(1.0, 0.0, 0.0, 1.0, 0.0, 0.0)">
    <path d="M-17.5 4.65 L-17.15 2.2 Q-16.15 -4.0 -12.15 -8.85 L-8.75 -12.8 0.05 -22.6 0.1 -23.2 4.95 -29.05 5.0 -29.6 Q6.0 -30.9 7.5 -31.6 11.6 -33.4 16.0 -32.7 L20.3 -28.7 21.15 -23.45 Q21.85 -17.85 20.9 -12.65 20.0 -8.0 18.5 -3.4 L14.6 7.65 12.95 11.05 Q10.15 15.75 4.75 16.95 6.2 21.4 5.95 26.25 L5.8 28.55 1.5 29.8 -0.55 24.65 -2.0 23.3 Q-2.45 28.05 -1.8 32.65 L-1.9 33.65 Q-2.0 34.1 -2.25 34.55 L-5.0 35.25 Q-8.55 32.85 -9.95 28.95 -10.65 26.85 -10.45 24.65 L-10.2 21.85 -11.05 20.35 -11.15 20.2 -11.35 20.35 Q-14.4 24.75 -14.3 30.1 L-14.1 32.65 -18.15 32.1 Q-20.35 29.8 -22.15 27.3 -22.65 26.55 -22.75 25.65 -23.1 22.45 -22.05 19.65 -19.45 16.05 -17.8 11.9 L-17.05 9.85 -13.15 12.0 -6.55 15.55 -0.1 19.15 4.75 16.95 -0.1 19.15 -6.55 15.55 -13.15 12.0 -17.05 9.85 -17.5 9.4 -17.3 9.2 -17.5 4.65 -1.5 12.75 6.25 8.6 Q9.2 3.6 10.55 -1.9 11.2 -4.65 11.25 -7.5 L11.4 -13.35 Q11.5 -15.15 12.15 -16.7 14.1 -21.55 12.55 -26.35 L12.8 -26.9 14.7 -27.9 17.4 -27.15 17.45 -27.85 17.4 -27.15 14.7 -27.9 12.8 -26.9 12.55 -26.35 Q14.1 -21.55 12.15 -16.7 11.5 -15.15 11.4 -13.35 L11.25 -7.5 Q11.2 -4.65 10.55 -1.9 9.2 3.6 6.25 8.6 L-1.5 12.75 -17.5 4.65 M9.9 -24.3 L11.6 -30.25 9.9 -24.3 M2.0 -1.0 L2.55 -0.6 Q4.75 0.85 7.3 0.55 4.75 0.85 2.55 -0.6 L2.0 -1.0 M-13.1 6.15 L-11.75 4.35 Q-12.15 3.7 -12.7 3.2 -14.0 1.85 -13.6 0.25 -11.8 -1.3 -9.6 -1.55 -7.1 -1.05 -6.2 1.45 L-6.35 2.5 Q-6.45 3.75 -5.55 4.5 -4.2 4.6 -3.3 3.4 -2.2 2.05 -2.55 0.15 L-3.0 -0.9 Q-3.8 -2.05 -5.4 -1.9 L-5.7 -2.2 Q-6.65 -3.0 -6.3 -4.15 L-2.6 -4.6 -2.65 -5.05 Q-3.95 -7.15 -6.25 -8.3 -5.8 -9.3 -4.7 -9.75 -1.9 -10.95 0.35 -12.7 2.8 -14.55 4.25 -17.1 L4.1 -17.25 Q2.25 -18.65 3.05 -20.9 L3.9 -21.3 4.35 -21.75 3.9 -21.3 3.05 -20.9 Q2.25 -18.65 4.1 -17.25 L4.25 -17.1 Q2.8 -14.55 0.35 -12.7 -1.9 -10.95 -4.7 -9.75 -5.8 -9.3 -6.25 -8.3 -3.95 -7.15 -2.65 -5.05 L-2.6 -4.6 -6.3 -4.15 Q-6.65 -3.0 -5.7 -2.2 L-5.4 -1.9 Q-3.8 -2.05 -3.0 -0.9 L-2.55 0.15 Q-2.2 2.05 -3.3 3.4 -4.2 4.6 -5.55 4.5 -6.45 3.75 -6.35 2.5 L-6.2 1.45 Q-7.1 -1.05 -9.6 -1.55 -11.8 -1.3 -13.6 0.25 -14.0 1.85 -12.7 3.2 -12.15 3.7 -11.75 4.35 L-13.1 6.15 M14.35 -17.4 Q14.9 -16.9 15.7 -17.25 18.85 -17.1 20.5 -14.1 18.85 -17.1 15.7 -17.25 14.9 -16.9 14.35 -17.4 M16.95 -15.55 L16.95 -13.55 16.7 -11.05 Q15.5 -5.35 13.85 0.05 15.5 -5.35 16.7 -11.05 L16.95 -13.55 16.95 -15.55 M13.7 -22.2 Q13.85 -22.75 14.6 -22.65 L16.0 -22.45 Q19.05 -22.75 20.8 -20.5 19.05 -22.75 16.0 -22.45 L14.6 -22.65 Q13.85 -22.75 13.7 -22.2 M5.0 -9.1 L5.7 -9.6 5.8 -10.05 Q5.45 -11.9 3.75 -12.6 L2.55 -12.1 Q0.95 -10.0 2.05 -7.75 2.85 -6.15 4.65 -6.45 5.7 -6.6 6.25 -7.15 7.65 -8.5 7.7 -10.65 L7.55 -12.05 Q6.8 -15.65 6.6 -19.4 6.5 -21.15 7.3 -22.65 9.25 -26.15 10.45 -30.05 L10.7 -30.5 Q11.25 -31.0 10.75 -31.7 11.25 -31.0 10.7 -30.5 L10.45 -30.05 Q9.25 -26.15 7.3 -22.65 6.5 -21.15 6.6 -19.4 6.8 -15.65 7.55 -12.05 L7.7 -10.65 Q7.65 -8.5 6.25 -7.15 5.7 -6.6 4.65 -6.45 2.85 -6.15 2.05 -7.75 0.95 -10.0 2.55 -12.1 L3.75 -12.6 Q5.45 -11.9 5.8 -10.05 L5.7 -9.6 5.0 -9.1 M6.25 8.6 L10.7 8.4 6.25 8.6 M-9.1 4.1 Q-9.35 4.9 -8.9 5.4 L-7.7 6.6 Q-5.95 8.05 -3.55 8.15 -2.45 8.15 -1.6 7.25 L-0.85 6.4 Q0.45 4.35 2.75 3.95 L3.85 4.45 2.75 3.95 Q0.45 4.35 -0.85 6.4 L-1.6 7.25 Q-2.45 8.15 -3.55 8.15 -5.95 8.05 -7.7 6.6 L-8.9 5.4 Q-9.35 4.9 -9.1 4.1 M-13.85 22.3 Q-17.05 19.55 -21.2 20.05 L-22.05 19.65 -21.2 20.05 Q-17.05 19.55 -13.85 22.3 M-9.75 3.3 Q-9.45 2.95 -9.45 2.5 -9.45 2.05 -9.75 1.75 -10.1 1.4 -10.55 1.4 -11.0 1.4 -11.3 1.75 -11.65 2.05 -11.65 2.5 L-11.3 3.3 Q-11.0 3.6 -10.55 3.6 -10.1 3.6 -9.75 3.3 -10.1 3.6 -10.55 3.6 -11.0 3.6 -11.3 3.3 L-11.65 2.5 Q-11.65 2.05 -11.3 1.75 -11.0 1.4 -10.55 1.4 -10.1 1.4 -9.75 1.75 -9.45 2.05 -9.45 2.5 -9.45 2.95 -9.75 3.3 M1.1 25.95 L1.3 25.5 4.15 23.95 1.3 25.5 1.1 25.95 M-16.95 7.8 L-15.0 8.45 Q-12.55 9.25 -10.2 10.55 L-1.2 15.3 -10.2 10.55 Q-12.55 9.25 -15.0 8.45 L-16.95 7.8 M-11.15 20.2 L-14.45 14.35 -11.15 20.2 M-3.4 24.6 Q-6.2 23.25 -9.05 24.15 L-10.45 24.65 -9.05 24.15 Q-6.2 23.25 -3.4 24.6 M2.8 22.45 L-0.55 24.65 2.8 22.45 M-9.7 26.95 L-9.55 26.7 Q-7.25 25.6 -4.75 25.6 -7.25 25.6 -9.55 26.7 L-9.7 26.95 M-21.85 22.0 L-21.0 21.95 Q-18.4 21.85 -16.1 23.65 -18.4 21.85 -21.0 21.95 L-21.85 22.0 M2.1 15.9 L-1.5 12.75 2.1 15.9" fill="url(#gradient0)" fill-rule="evenodd" stroke="none"/>
    <path d="M-17.3 9.2 L-17.5 9.4 -17.3 9.2" fill="url(#gradient1)" fill-rule="evenodd" stroke="none"/>
    <path d="M4.75 16.95 Q10.15 15.75 12.95 11.05 L14.6 7.65 18.5 -3.4 Q20.0 -8.0 20.9 -12.65 21.85 -17.85 21.15 -23.45 L20.3 -28.7 16.0 -32.7 Q11.6 -33.4 7.5 -31.6 6.0 -30.9 5.0 -29.6 L4.95 -29.05 0.1 -23.2 0.05 -22.6 -8.75 -12.8 -12.15 -8.85 Q-16.15 -4.0 -17.15 2.2 L-17.5 4.65 -1.5 12.75 6.25 8.6 Q9.2 3.6 10.55 -1.9 11.2 -4.65 11.25 -7.5 L11.4 -13.35 Q11.5 -15.15 12.15 -16.7 14.1 -21.55 12.55 -26.35 L12.8 -26.9 14.7 -27.9 17.4 -27.15 17.45 -27.85 M10.7 8.4 L6.25 8.6 M-0.55 24.65 L1.5 29.8 5.8 28.55 5.95 26.25 Q6.2 21.4 4.75 16.95 L-0.1 19.15 -6.55 15.55 -13.15 12.0 -17.05 9.85 -17.8 11.9 Q-19.45 16.05 -22.05 19.65 L-21.2 20.05 Q-17.05 19.55 -13.85 22.3 M-17.5 9.4 L-17.05 9.85 M-17.5 4.65 L-17.3 9.2 M-11.35 20.35 L-11.05 20.35 -11.15 20.2 -14.45 14.35 M-11.35 20.35 Q-14.4 24.75 -14.3 30.1 L-14.1 32.65 -18.15 32.1 Q-20.35 29.8 -22.15 27.3 -22.65 26.55 -22.75 25.65 -23.1 22.45 -22.05 19.65 M-11.05 20.35 L-10.2 21.85 -10.45 24.65 -9.05 24.15 Q-6.2 23.25 -3.4 24.6 M-10.45 24.65 Q-10.65 26.85 -9.95 28.95 -8.55 32.85 -5.0 35.25 L-2.25 34.55 Q-2.0 34.1 -1.9 33.65 L-1.8 32.65 Q-2.45 28.05 -2.0 23.3 L-0.55 24.65 2.8 22.45 M-1.5 12.75 L2.1 15.9" fill="none" stroke="#000000" stroke-linecap="round" stroke-linejoin="round" stroke-width="0.05"/>
    <path d="M10.75 -31.7 Q11.25 -31.0 10.7 -30.5 L10.45 -30.05 Q9.25 -26.15 7.3 -22.65 6.5 -21.15 6.6 -19.4 6.8 -15.65 7.55 -12.05 L7.7 -10.65 Q7.65 -8.5 6.25 -7.15 5.7 -6.6 4.65 -6.45 2.85 -6.15 2.05 -7.75 0.95 -10.0 2.55 -12.1 L3.75 -12.6 Q5.45 -11.9 5.8 -10.05 L5.7 -9.6 5.0 -9.1 M20.8 -20.5 Q19.05 -22.75 16.0 -22.45 L14.6 -22.65 Q13.85 -22.75 13.7 -22.2 M13.85 0.05 Q15.5 -5.35 16.7 -11.05 L16.95 -13.55 16.95 -15.55 M20.5 -14.1 Q18.85 -17.1 15.7 -17.25 14.9 -16.9 14.35 -17.4 M4.35 -21.75 L3.9 -21.3 3.05 -20.9 Q2.25 -18.65 4.1 -17.25 L4.25 -17.1 Q2.8 -14.55 0.35 -12.7 -1.9 -10.95 -4.7 -9.75 -5.8 -9.3 -6.25 -8.3 -3.95 -7.15 -2.65 -5.05 L-2.6 -4.6 -6.3 -4.15 Q-6.65 -3.0 -5.7 -2.2 L-5.4 -1.9 Q-3.8 -2.05 -3.0 -0.9 L-2.55 0.15 Q-2.2 2.05 -3.3 3.4 -4.2 4.6 -5.55 4.5 -6.45 3.75 -6.35 2.5 L-6.2 1.45 Q-7.1 -1.05 -9.6 -1.55 -11.8 -1.3 -13.6 0.25 -14.0 1.85 -12.7 3.2 -12.15 3.7 -11.75 4.35 L-13.1 6.15 M7.3 0.55 Q4.75 0.85 2.55 -0.6 L2.0 -1.0 M11.6 -30.25 L9.9 -24.3 M3.85 4.45 L2.75 3.95 Q0.45 4.35 -0.85 6.4 L-1.6 7.25 Q-2.45 8.15 -3.55 8.15 -5.95 8.05 -7.7 6.6 L-8.9 5.4 Q-9.35 4.9 -9.1 4.1 M4.15 23.95 L1.3 25.5 1.1 25.95 M-9.75 3.3 Q-10.1 3.6 -10.55 3.6 -11.0 3.6 -11.3 3.3 L-11.65 2.5 Q-11.65 2.05 -11.3 1.75 -11.0 1.4 -10.55 1.4 -10.1 1.4 -9.75 1.75 -9.45 2.05 -9.45 2.5 -9.45 2.95 -9.75 3.3 M-1.2 15.3 L-10.2 10.55 Q-12.55 9.25 -15.0 8.45 L-16.95 7.8 M-16.1 23.65 Q-18.4 21.85 -21.0 21.95 L-21.85 22.0 M-4.75 25.6 Q-7.25 25.6 -9.55 26.7 L-9.7 26.95" fill="none" stroke="#00ff00" stroke-linecap="round" stroke-linejoin="round" stroke-width="0.05"/>
  </g>
  <defs>
    <linearGradient gradientTransform="matrix(0.016, 0.0043, -0.0082, 0.0306, 0.3, -7.1)" gradientUnits="userSpaceOnUse" id="gradient0" spreadMethod="pad" x1="-819.2" x2="819.2">
      <stop offset="0.0" stop-color="#64663e"/>
      <stop offset="1.0" stop-color="#393124"/>
    </linearGradient>
    <linearGradient gradientTransform="matrix(1.0E-4, 0.0, 0.0, 1.0E-4, -17.4, 9.3)" gradientUnits="userSpaceOnUse" id="gradient1" spreadMethod="pad" x1="-819.2" x2="819.2">
      <stop offset="0.0" stop-color="#64663e"/>
      <stop offset="1.0" stop-color="#393124"/>
    </linearGradient>
  </defs>
</svg>
