<?xml version="1.0" encoding="UTF-8" standalone="no"?>
<svg xmlns:xlink="http://www.w3.org/1999/xlink" height="44.05px" width="33.4px" xmlns="http://www.w3.org/2000/svg">
  <g transform="matrix(1.0, 0.0, 0.0, 1.0, 0.0, 0.0)">
    <path d="M-4.3 -21.35 L1.7 -22.0 6.45 -21.8 Q9.15 -21.45 10.85 -19.1 L14.9 -13.6 15.4 -12.75 16.4 -10.15 16.65 -8.95 Q16.95 -5.25 14.95 -2.35 L13.65 -0.8 13.1 -0.4 Q10.55 0.65 8.85 2.0 L8.4 2.3 Q8.05 2.45 7.95 3.1 7.85 3.75 8.2 3.95 L8.45 4.35 9.0 6.55 Q10.0 10.95 7.8 14.85 L7.45 15.75 Q6.85 18.05 5.1 19.8 L4.6 20.3 3.8 21.05 3.3 21.45 Q1.85 22.1 0.1 21.95 L-0.5 21.9 -3.35 21.15 -3.95 20.8 Q-5.15 20.0 -5.8 18.9 L-6.3 17.35 -6.5 15.75 Q-6.95 12.65 -6.85 9.4 L-6.75 7.2 -6.6 6.55 -6.45 6.0 -6.3 5.55 Q-6.05 4.5 -6.4 3.95 L-6.55 3.4 Q-6.45 2.55 -6.7 2.1 L-6.95 1.55 -7.05 1.15 -7.1 0.85 Q-9.05 1.65 -10.65 1.45 -12.0 1.25 -13.2 0.55 -14.4 -0.15 -14.85 -1.35 L-15.85 -4.0 -16.2 -4.8 -16.6 -5.85 -16.7 -6.4 Q-16.7 -9.3 -15.4 -11.8 L-13.95 -14.55 -13.2 -15.6 Q-11.3 -17.6 -8.85 -19.2 L-7.75 -19.95 Q-6.15 -21.05 -4.3 -21.35 M5.35 -13.55 L2.65 -1.65 5.35 -13.55 M-7.25 0.3 L-7.1 0.85 -7.25 0.3" fill="#666666" fill-rule="evenodd" stroke="none"/>
    <path d="M-4.3 -21.35 L1.7 -22.0 6.45 -21.8 Q9.15 -21.45 10.85 -19.1 L14.9 -13.6 15.4 -12.75 16.4 -10.15 16.65 -8.95 Q16.95 -5.25 14.95 -2.35 L13.65 -0.8 13.1 -0.4 Q10.55 0.65 8.85 2.0 L8.4 2.3 Q8.05 2.45 7.95 3.1 7.85 3.75 8.2 3.95 L8.45 4.35 9.0 6.55 Q10.0 10.95 7.8 14.85 L7.45 15.75 Q6.85 18.05 5.1 19.8 L4.6 20.3 3.8 21.05 3.3 21.45 Q1.85 22.1 0.1 21.95 L-0.5 21.9 -3.35 21.15 -3.95 20.8 Q-5.15 20.0 -5.8 18.9 L-6.3 17.35 -6.5 15.75 Q-6.95 12.65 -6.85 9.4 L-6.75 7.2 -6.6 6.55 -6.45 6.0 -6.3 5.55 Q-6.05 4.5 -6.4 3.95 L-6.55 3.4 Q-6.45 2.55 -6.7 2.1 L-6.95 1.55 -7.05 1.15 -7.1 0.85 Q-9.05 1.65 -10.65 1.45 -12.0 1.25 -13.2 0.55 -14.4 -0.15 -14.85 -1.35 L-15.85 -4.0 -16.2 -4.8 -16.6 -5.85 -16.7 -6.4 Q-16.7 -9.3 -15.4 -11.8 L-13.95 -14.55 -13.2 -15.6 Q-11.3 -17.6 -8.85 -19.2 L-7.75 -19.95 Q-6.15 -21.05 -4.3 -21.35 M-7.1 0.85 L-7.25 0.3 M2.65 -1.65 L5.35 -13.55" fill="none" stroke="#000000" stroke-linecap="round" stroke-linejoin="round" stroke-width="0.05"/>
  </g>
</svg>
