<?xml version="1.0" encoding="UTF-8" standalone="no"?>
<svg xmlns:xlink="http://www.w3.org/1999/xlink" height="33.95px" width="42.6px" xmlns="http://www.w3.org/2000/svg">
  <g transform="matrix(1.0, 0.0, 0.0, 1.0, 0.0, 0.0)">
    <path d="M15.3 -12.65 Q18.75 1.15 21.45 15.45 L-21.15 15.4 Q-19.0 10.8 -13.1 9.9 -10.25 9.55 -7.5 8.55 -7.4 -1.95 -9.45 -12.65 L-9.85 -14.8 -9.9 -15.4 Q-10.0 -16.25 -9.65 -17.1 -4.7 -19.5 0.5 -17.85 L12.4 -13.6 15.3 -12.65" fill="#666666" fill-rule="evenodd" stroke="none"/>
    <path d="M15.3 -12.65 Q18.75 1.15 21.45 15.45 L-21.15 15.4 Q-19.0 10.8 -13.1 9.9 -10.25 9.55 -7.5 8.55 -7.4 -1.95 -9.45 -12.65 L-9.85 -14.8 -9.9 -15.4 Q-10.0 -16.25 -9.65 -17.1 -4.7 -19.5 0.5 -17.85 L12.4 -13.6 15.3 -12.65 Z" fill="none" stroke="#000000" stroke-linecap="round" stroke-linejoin="round" stroke-width="0.05"/>
  </g>
</svg>
