<?xml version="1.0" encoding="UTF-8" standalone="no"?>
<svg xmlns:xlink="http://www.w3.org/1999/xlink" height="19.65px" width="37.2px" xmlns="http://www.w3.org/2000/svg">
  <g transform="matrix(1.0, 0.0, 0.0, 1.0, 0.0, 0.0)">
    <path d="M-9.5 -1.65 Q-5.0 -3.7 -0.85 -6.3 L0.9 -6.95 Q3.3 -7.5 5.6 -8.55 L7.1 -8.8 11.75 -7.25 Q13.75 -6.65 14.85 -4.9 15.5 -1.6 17.9 0.95 19.05 2.15 19.05 3.55 L18.85 3.95 Q16.95 5.3 15.45 7.05 15.0 7.55 14.35 7.75 11.4 8.85 8.15 8.25 L5.55 7.95 3.4 7.7 Q-0.6 6.65 -4.65 6.35 L-4.75 6.25 -4.45 5.8 Q-5.25 3.5 -6.75 1.55 L-7.4 0.75 -8.05 -0.2 Q-8.55 -1.0 -9.5 -1.65 M3.0 3.9 Q6.05 4.8 9.2 4.6 L9.6 4.5 Q12.25 3.1 13.65 0.35 12.25 3.1 9.6 4.5 L9.2 4.6 Q6.05 4.8 3.0 3.9" fill="url(#gradient0)" fill-rule="evenodd" stroke="none"/>
    <path d="M-4.8 6.3 L-5.75 6.85 -6.15 7.3 -7.15 9.25 -8.2 9.9 -8.4 10.45 Q-11.45 11.45 -14.25 9.7 L-15.05 8.9 -18.15 2.05 -9.9 -1.85 -9.5 -1.65 Q-8.55 -1.0 -8.05 -0.2 L-7.4 0.75 -6.75 1.55 Q-5.25 3.5 -4.45 5.8 L-4.75 6.25 -4.8 6.3" fill="url(#gradient1)" fill-rule="evenodd" stroke="none"/>
    <path d="M-4.8 6.3 L-5.75 6.85 -6.15 7.3 -7.15 9.25 -8.2 9.9 -8.4 10.45 Q-11.45 11.45 -14.25 9.7 L-15.05 8.9 -18.15 2.05 -9.9 -1.85 -9.5 -1.65 Q-5.0 -3.7 -0.85 -6.3 L0.9 -6.95 Q3.3 -7.5 5.6 -8.55 L7.1 -8.8 11.75 -7.25 Q13.75 -6.65 14.85 -4.9 15.5 -1.6 17.9 0.95 19.05 2.15 19.05 3.55 L18.85 3.95 Q16.95 5.3 15.45 7.05 15.0 7.55 14.35 7.75 11.4 8.85 8.15 8.25 L5.55 7.95 3.4 7.7 Q-0.6 6.65 -4.65 6.35 L-4.8 6.3 -4.75 6.25 -4.45 5.8 Q-5.25 3.5 -6.75 1.55 L-7.4 0.75 -8.05 -0.2 Q-8.55 -1.0 -9.5 -1.65 M13.65 0.35 Q12.25 3.1 9.6 4.5 L9.2 4.6 Q6.05 4.8 3.0 3.9" fill="none" stroke="#000000" stroke-linecap="round" stroke-linejoin="round" stroke-width="0.05"/>
  </g>
  <defs>
    <linearGradient gradientTransform="matrix(0.0044, 0.0075, -0.0091, 0.0053, 4.75, -0.2)" gradientUnits="userSpaceOnUse" id="gradient0" spreadMethod="pad" x1="-819.2" x2="819.2">
      <stop offset="0.0" stop-color="#64663e"/>
      <stop offset="1.0" stop-color="#393124"/>
    </linearGradient>
    <linearGradient gradientTransform="matrix(-1.0E-4, 0.0083, -0.0077, -1.0E-4, -11.2, 4.35)" gradientUnits="userSpaceOnUse" id="gradient1" spreadMethod="pad" x1="-819.2" x2="819.2">
      <stop offset="0.0" stop-color="#64663e"/>
      <stop offset="1.0" stop-color="#393124"/>
    </linearGradient>
  </defs>
</svg>
