<?xml version="1.0" encoding="UTF-8" standalone="no"?>
<svg xmlns:xlink="http://www.w3.org/1999/xlink" height="16.3px" width="33.6px" xmlns="http://www.w3.org/2000/svg">
  <g transform="matrix(1.0, 0.0, 0.0, 1.0, 0.0, 0.0)">
    <path d="M8.3 -8.15 L10.25 -7.75 10.85 -7.4 Q12.9 -6.6 14.95 -4.55 16.0 -3.5 16.6 -1.35 L16.75 -0.75 Q16.85 0.45 16.55 1.5 L16.2 2.75 15.8 3.3 Q14.95 4.05 13.65 4.55 L10.5 5.25 7.35 5.65 6.4 5.75 3.6 5.45 2.3 5.35 -1.2 5.9 -2.45 6.1 Q-5.95 6.4 -9.1 7.6 L-10.45 7.9 -14.5 8.15 -15.0 8.0 -15.25 7.55 -15.6 6.6 -15.7 6.2 Q-16.05 5.05 -16.75 3.7 L-16.8 3.1 Q-16.75 2.85 -16.4 2.9 -15.8 2.9 -15.45 2.45 L-15.1 2.2 -9.8 -0.8 -5.35 -2.95 Q-2.65 -3.9 -0.85 -5.75 -0.2 -6.35 0.75 -6.6 L2.7 -7.05 2.75 -7.15 3.25 -7.6 4.45 -7.85 4.8 -7.9 8.3 -8.15" fill="#666666" fill-rule="evenodd" stroke="none"/>
    <path d="M8.3 -8.15 L4.8 -7.9 4.45 -7.85 3.25 -7.6 2.75 -7.15 2.7 -7.05 0.75 -6.6 Q-0.2 -6.35 -0.85 -5.75 -2.65 -3.9 -5.35 -2.95 L-9.8 -0.8 -15.1 2.2 -15.45 2.45 Q-15.8 2.9 -16.4 2.9 -16.75 2.85 -16.8 3.1 L-16.75 3.7 Q-16.05 5.05 -15.7 6.2 L-15.6 6.6 -15.25 7.55 -15.0 8.0 -14.5 8.15 -10.45 7.9 -9.1 7.6 Q-5.95 6.4 -2.45 6.1 L-1.2 5.9 2.3 5.35 3.6 5.45 6.4 5.75 7.35 5.65 10.5 5.25 13.65 4.55 Q14.95 4.05 15.8 3.3 L16.2 2.75 16.55 1.5 Q16.85 0.45 16.75 -0.75 L16.6 -1.35 Q16.0 -3.5 14.95 -4.55 12.9 -6.6 10.85 -7.4 L10.25 -7.75 8.3 -8.15 Z" fill="none" stroke="#000000" stroke-linecap="round" stroke-linejoin="round" stroke-width="0.05"/>
  </g>
</svg>
