<?xml version="1.0" encoding="UTF-8" standalone="no"?>
<svg xmlns:xlink="http://www.w3.org/1999/xlink" height="71.4px" width="67.35px" xmlns="http://www.w3.org/2000/svg">
  <g transform="matrix(1.0, 0.0, 0.0, 1.0, 0.0, 0.0)">
    <path d="M19.35 16.45 L18.45 14.85 Q15.85 8.45 9.8 5.65 L7.25 5.6 12.3 1.9 Q12.4 -0.45 13.15 -2.75 13.85 -4.8 13.8 -7.1 L5.0 -16.45 12.75 -21.85 Q16.8 -15.45 19.3 -8.0 22.15 0.7 26.5 8.95 28.15 12.1 31.05 14.55 34.85 17.6 32.05 21.75 29.4 25.65 27.65 30.15 24.45 31.5 21.6 31.75 L17.2 23.7 18.4 21.55 17.4 20.95 19.05 16.8 19.35 16.45" fill="url(#gradient0)" fill-rule="evenodd" stroke="none"/>
    <path d="M1.6 -18.7 L2.95 -18.65 5.0 -16.45 13.8 -7.1 Q13.85 -4.8 13.15 -2.75 12.4 -0.45 12.3 1.9 L7.25 5.6 9.8 5.65 Q15.85 8.45 18.45 14.85 L19.35 16.45 19.05 16.8 17.4 20.95 18.4 21.55 17.2 23.7 21.6 31.75 Q15.4 32.35 10.7 28.0 L9.9 26.95 9.4 26.75 Q8.25 22.85 5.1 20.75 2.05 18.8 -1.55 19.7 L-11.25 13.65 -11.45 12.9 -17.0 12.7 Q-29.9 2.95 -30.1 -4.8 L-24.75 -7.4 -17.65 -3.85 Q-15.95 -5.65 -14.85 -7.8 L-11.35 -13.95 -11.4 -15.2 -11.7 -15.55 -10.65 -16.45 Q-9.4 -17.75 -8.25 -19.35 L-8.2 -19.65 1.6 -18.7 M-7.05 10.9 Q-9.2 12.15 -11.45 12.9 -9.2 12.15 -7.05 10.9 M-1.9 0.3 L-1.3 0.45 -0.4 1.05 Q0.35 1.7 1.3 1.25 0.85 0.9 0.8 0.0 L0.75 -0.8 0.45 -1.95 Q0.15 -3.05 0.65 -3.5 1.2 -3.05 1.9 -2.95 L3.2 -2.75 3.45 -2.35 0.75 -0.8 3.45 -2.35 3.2 -2.75 1.9 -2.95 Q1.2 -3.05 0.65 -3.5 0.15 -3.05 0.45 -1.95 L0.75 -0.8 0.8 0.0 Q0.85 0.9 1.3 1.25 0.35 1.7 -0.4 1.05 L-1.3 0.45 -1.9 0.3 M4.75 -1.3 L4.2 -0.65 3.75 -0.05 2.65 1.6 2.25 2.5 2.65 1.6 3.75 -0.05 4.2 -0.65 4.75 -1.3 M7.25 5.6 L4.7 6.6 Q1.45 7.75 -1.95 8.3 1.45 7.75 4.7 6.6 L7.25 5.6 M7.6 0.0 L6.9 0.85 Q5.5 2.4 4.75 3.8 5.5 2.4 6.9 0.85 L7.6 0.0 M4.7 13.65 L4.8 13.55 4.7 13.65 0.95 15.85 4.7 13.65 0.3 9.8 4.7 13.65 8.35 18.65 4.7 13.65 M9.35 10.85 L4.8 13.55 9.35 10.85 M6.15 -0.3 Q4.75 1.35 3.5 3.15 4.75 1.35 6.15 -0.3 M-10.15 -5.4 L-10.4 -4.75 -11.1 -2.85 Q-10.05 -2.6 -9.75 -3.15 L-9.45 -3.45 Q-8.05 -4.1 -7.8 -5.4 L-7.75 -6.05 -7.8 -6.65 Q-8.05 -8.0 -8.85 -8.9 L-9.1 -9.25 -9.3 -9.55 -11.1 -9.75 Q-12.65 -9.6 -13.1 -8.0 L-13.2 -7.6 -13.3 -5.7 -13.15 -5.3 Q-12.65 -4.95 -12.05 -4.75 L-11.75 -5.15 -11.5 -5.7 Q-11.3 -6.7 -10.75 -7.0 -11.3 -6.7 -11.5 -5.7 L-11.75 -5.15 -12.05 -4.75 Q-12.65 -4.95 -13.15 -5.3 L-13.3 -5.7 -13.2 -7.6 -13.1 -8.0 Q-12.65 -9.6 -11.1 -9.75 L-9.3 -9.55 -9.1 -9.25 -8.85 -8.9 Q-8.05 -8.0 -7.8 -6.65 L-7.75 -6.05 -7.8 -5.4 Q-8.05 -4.1 -9.45 -3.45 L-9.75 -3.15 Q-10.05 -2.6 -11.1 -2.85 L-10.4 -4.75 -10.15 -5.4 M-6.0 6.65 Q-9.9 2.55 -12.85 -2.65 L-14.55 -2.0 -12.85 -2.65 Q-9.9 2.55 -6.0 6.65 M-1.3 0.45 L0.75 -0.8 -1.3 0.45 M0.0 -4.45 L-1.2 -4.85 -1.6 -5.0 -1.95 -5.25 Q-2.5 -6.2 -2.5 -5.7 -3.05 -5.45 -3.3 -4.5 L-3.4 -4.1 -4.1 -2.25 -4.35 -1.6 Q-4.7 -0.45 -4.75 -0.65 -4.7 -0.45 -4.35 -1.6 L-4.1 -2.25 -3.4 -4.1 -3.3 -4.5 Q-3.05 -5.45 -2.5 -5.7 -2.5 -6.2 -1.95 -5.25 L-1.6 -5.0 -1.2 -4.85 0.0 -4.45 M-5.1 -4.2 L-5.25 -3.8 Q-5.3 -2.75 -6.35 -2.85 -6.65 -2.85 -6.7 -2.95 -7.15 -4.0 -6.3 -4.7 L-6.05 -4.9 -5.1 -4.2 -6.05 -4.9 -6.3 -4.7 Q-7.15 -4.0 -6.7 -2.95 -6.65 -2.85 -6.35 -2.85 -5.3 -2.75 -5.25 -3.8 L-5.1 -4.2" fill="url(#gradient1)" fill-rule="evenodd" stroke="none"/>
    <path d="M5.0 -16.45 L2.95 -18.65 1.6 -18.7 -8.2 -19.65 -8.25 -19.35 Q-9.4 -17.75 -10.65 -16.45 L-11.7 -15.55 -11.4 -15.2 -11.35 -13.95 -14.85 -7.8 Q-15.95 -5.65 -17.65 -3.85 L-24.75 -7.4 -30.1 -4.8 -30.75 -4.75 Q-38.95 -15.15 -27.1 -22.65 -15.55 -30.05 -2.3 -32.3 L4.1 -32.65 Q9.05 -27.65 12.75 -21.85 L5.0 -16.45" fill="#3a2e1f" fill-rule="evenodd" stroke="none"/>
    <path d="M5.0 -16.45 L2.95 -18.65 1.6 -18.7 M-8.25 -19.35 Q-9.4 -17.75 -10.65 -16.45 L-11.7 -15.55 M-24.75 -7.4 L-30.1 -4.8 Q-29.9 2.95 -17.0 12.7 L-11.45 12.9 Q-9.2 12.15 -7.05 10.9 M5.0 -16.45 L13.8 -7.1 Q13.85 -4.8 13.15 -2.75 12.4 -0.45 12.3 1.9 L7.25 5.6 9.8 5.65 Q15.85 8.45 18.45 14.85 L19.35 16.45 M21.6 31.75 Q24.45 31.5 27.65 30.15 29.4 25.65 32.05 21.75 34.85 17.6 31.05 14.55 28.15 12.1 26.5 8.95 22.15 0.7 19.3 -8.0 16.8 -15.45 12.75 -21.85 9.05 -27.65 4.1 -32.65 L-2.3 -32.3 Q-15.55 -30.05 -27.1 -22.65 -38.95 -15.15 -30.75 -4.75 M-1.95 8.3 Q1.45 7.75 4.7 6.6 L7.25 5.6 M4.8 13.55 L4.7 13.65 8.35 18.65 M0.95 15.85 L4.7 13.65 0.3 9.8 M4.8 13.55 L9.35 10.85 M21.6 31.75 Q15.4 32.35 10.7 28.0 L9.9 26.95 9.4 26.75 Q8.25 22.85 5.1 20.75 2.05 18.8 -1.55 19.7 L-11.25 13.65 -11.45 12.9 M-14.55 -2.0 L-12.85 -2.65 Q-9.9 2.55 -6.0 6.65" fill="none" stroke="#000000" stroke-linecap="round" stroke-linejoin="round" stroke-width="0.05"/>
    <path d="M2.25 2.5 L2.65 1.6 3.75 -0.05 4.2 -0.65 4.75 -1.3 M0.75 -0.8 L3.45 -2.35 3.2 -2.75 1.9 -2.95 Q1.2 -3.05 0.65 -3.5 0.15 -3.05 0.45 -1.95 L0.75 -0.8 0.8 0.0 Q0.85 0.9 1.3 1.25 0.35 1.7 -0.4 1.05 L-1.3 0.45 -1.9 0.3 M4.75 3.8 Q5.5 2.4 6.9 0.85 L7.6 0.0 M3.5 3.15 Q4.75 1.35 6.15 -0.3 M-10.75 -7.0 Q-11.3 -6.7 -11.5 -5.7 L-11.75 -5.15 -12.05 -4.75 Q-12.65 -4.95 -13.15 -5.3 L-13.3 -5.7 -13.2 -7.6 -13.1 -8.0 Q-12.65 -9.6 -11.1 -9.75 L-9.3 -9.55 -9.1 -9.25 -8.85 -8.9 Q-8.05 -8.0 -7.8 -6.65 L-7.75 -6.05 -7.8 -5.4 Q-8.05 -4.1 -9.45 -3.45 L-9.75 -3.15 Q-10.05 -2.6 -11.1 -2.85 L-10.4 -4.75 -10.15 -5.4 M-5.1 -4.2 L-6.05 -4.9 -6.3 -4.7 Q-7.15 -4.0 -6.7 -2.95 -6.65 -2.85 -6.35 -2.85 -5.3 -2.75 -5.25 -3.8 L-5.1 -4.2 M-4.75 -0.65 Q-4.7 -0.45 -4.35 -1.6 L-4.1 -2.25 -3.4 -4.1 -3.3 -4.5 Q-3.05 -5.45 -2.5 -5.7 -2.5 -6.2 -1.95 -5.25 L-1.6 -5.0 -1.2 -4.85 0.0 -4.45 M0.75 -0.8 L-1.3 0.45" fill="none" stroke="#00ff00" stroke-linecap="round" stroke-linejoin="round" stroke-width="0.05"/>
    <path d="M1.3 -39.6 L2.4 -38.65 Q4.95 -35.7 5.75 -31.95 7.4 -33.85 9.7 -33.8 L9.25 -32.8 Q7.6 -29.6 10.2 -26.75 L10.75 -26.6 Q12.1 -23.2 14.5 -20.3 17.5 -16.75 19.05 -12.05 20.35 -13.7 22.5 -13.95 L20.95 -12.4 20.45 -6.9 22.85 -6.45 22.55 -6.2 23.05 -3.35 23.05 -3.3 22.95 -3.25 22.85 -3.2 21.95 -3.2 24.05 4.5 24.6 4.95 25.75 7.95 25.35 10.4 24.4 10.45 23.15 8.55 21.25 13.3 20.55 4.9 18.45 4.2 16.2 6.65 16.5 1.55 16.0 2.55 Q13.55 8.65 11.4 14.85 12.35 3.95 6.6 -5.7 L4.75 -4.75 4.6 -6.5 4.85 -6.95 2.55 -8.55 0.15 -3.7 -0.95 -3.2 Q-0.45 -5.05 -0.85 -6.75 L-2.9 -16.55 -3.8 -14.9 -4.15 -16.5 -7.9 -7.3 -11.0 -23.9 -13.6 -22.85 -14.55 -25.7 -17.4 -24.4 -18.8 -27.75 -18.4 -28.15 -18.7 -28.55 -16.15 -29.15 -17.1 -30.75 -13.35 -30.65 -13.95 -32.35 -10.45 -30.75 -10.15 -35.0 -8.65 -33.15 -6.05 -32.55 -6.65 -34.25 -2.2 -32.9 -2.75 -33.65 -2.5 -34.8 -5.7 -39.0 -4.5 -38.5 Q-1.55 -37.3 1.3 -35.5 L1.6 -34.85 1.3 -39.6" fill="#264015" fill-rule="evenodd" stroke="none"/>
  </g>
  <defs>
    <linearGradient gradientTransform="matrix(0.0251, -0.015, 0.0202, 0.0338, -0.45, -0.45)" gradientUnits="userSpaceOnUse" id="gradient0" spreadMethod="pad" x1="-819.2" x2="819.2">
      <stop offset="0.0" stop-color="#64663e"/>
      <stop offset="1.0" stop-color="#393124"/>
    </linearGradient>
    <linearGradient gradientTransform="matrix(0.0095, 0.0141, -0.0144, 0.0097, 34.35, -16.25)" gradientUnits="userSpaceOnUse" id="gradient1" spreadMethod="pad" x1="-819.2" x2="819.2">
      <stop offset="0.0" stop-color="#64663e"/>
      <stop offset="1.0" stop-color="#393124"/>
    </linearGradient>
  </defs>
</svg>
