<?xml version="1.0" encoding="UTF-8" standalone="no"?>
<svg xmlns:xlink="http://www.w3.org/1999/xlink" height="32.6px" width="23.1px" xmlns="http://www.w3.org/2000/svg">
  <g transform="matrix(1.0, 0.0, 0.0, 1.0, 0.0, 0.0)">
    <path d="M-6.1 4.8 L-8.65 4.75 Q-9.3 4.8 -9.45 4.5 L-9.55 4.3 -9.65 2.9 -9.6 2.4 -9.25 2.1 -8.25 1.4 -7.8 0.7 -7.35 -0.15 -7.25 -1.3 -7.3 -1.8 -7.45 -1.0 Q-7.65 -0.5 -8.05 -0.2 L-9.75 0.3 -11.15 0.05 -12.0 -0.75 Q-12.35 -1.55 -11.95 -2.05 L-11.6 -2.45 -11.45 -2.5 -11.65 -4.05 -11.7 -4.8 Q-11.2 -5.05 -10.95 -5.6 L-10.75 -6.35 -10.6 -7.85 -10.45 -8.3 -10.4 -8.5 -10.2 -9.9 -10.1 -10.4 -10.05 -10.55 -9.85 -11.8 -9.6 -13.7 -9.5 -15.35 -8.1 -15.15 -2.15 -15.15 -1.9 -15.15 0.25 -15.0 1.0 -14.95 3.3 -14.9 4.45 -14.9 6.85 -15.0 7.1 -15.1 6.95 -13.55 6.9 -12.15 6.9 -10.8 7.0 -10.25 Q7.05 -9.3 7.25 -8.5 L7.5 -7.0 7.55 -6.85 7.9 -5.45 7.95 -4.8 8.05 -4.4 8.1 -4.2 8.2 -3.5 8.25 -3.3 8.35 -2.15 8.35 -1.65 9.6 -2.8 10.15 -2.9 Q10.55 -2.8 10.65 -3.05 L10.7 -0.4 10.7 -0.15 10.95 2.8 10.7 3.25 10.5 3.35 8.1 4.1 7.9 4.2 Q7.6 4.35 7.45 3.8 L7.4 3.05 7.5 2.85 7.7 2.8 8.0 2.7 9.0 2.6 Q9.35 2.75 9.4 2.4 L9.5 2.0 9.4 1.65 9.3 1.5 9.15 0.75 Q9.05 0.35 9.35 0.25 L8.1 0.1 M-7.3 -1.8 L-7.45 -2.55 -7.6 -2.8 -7.7 -2.9 -8.15 -3.2 -8.75 -3.35 -9.0 -3.4 -10.35 -3.25 -10.5 -3.15 -11.45 -2.5 M-7.45 -2.55 L-7.7 -2.9 M-1.9 -0.25 Q-1.35 0.3 -0.65 0.4 L-0.25 0.45 1.15 0.3 2.2 -0.4 2.35 -0.55 2.45 -0.75 2.6 -1.15 2.7 -1.7 2.65 -1.9 1.6 -3.15 0.0 -3.7 -1.35 -3.35 Q-1.45 -3.25 -1.65 -3.2 L-2.1 -2.85 -2.6 -1.8 -2.6 -1.4 Q-2.5 -0.85 -1.9 -0.25 M0.6 12.95 L0.1 13.4 -0.1 13.45 -0.65 13.7 -1.9 14.15 -3.55 14.8 -3.8 14.9 Q-5.45 15.4 -6.9 16.55 -6.85 16.95 -7.25 17.0 L-8.65 17.2 -9.45 17.25 -9.65 17.25 Q-10.45 17.2 -10.6 16.7 L-10.6 16.2 -10.4 15.95 -10.25 15.7 -9.45 14.5 -9.35 14.35 -8.85 13.4 -8.3 12.35 -8.2 12.15 -7.8 10.9 -7.75 10.75 -7.7 10.55 -7.65 10.55 -7.25 10.15 -7.15 10.0 -6.85 9.75 -2.65 9.8 -2.3 9.8 Q-1.1 9.7 -0.75 10.4 L-0.6 10.6 Q-0.1 11.1 0.3 11.95 L0.4 12.1 0.6 12.65 0.6 12.95 0.75 12.9 2.25 12.75 2.35 12.65 Q3.25 11.0 4.35 9.8 L4.5 9.55 5.5 8.55 6.05 7.95 7.2 6.95 7.35 6.85 8.05 6.6 8.1 6.45 8.0 5.55 Q7.95 4.95 8.15 4.45 M-10.15 5.55 Q-9.3 5.55 -8.6 5.9 L-8.4 5.95 -7.75 6.0 -5.7 6.05 -4.45 6.05 -3.05 6.0 -1.55 5.8 -0.75 5.6 -0.4 5.5 -0.35 5.5 0.35 5.3 1.5 4.85 1.9 4.7 2.2 4.5 2.4 4.4 2.5 4.3 3.75 3.25 3.9 3.05 4.45 2.3 Q4.1 2.75 4.4 3.2 L4.45 3.4 4.35 4.2 4.3 4.45 4.25 6.85 4.1 7.05 Q3.75 7.4 3.15 7.6 L2.9 7.7 1.75 8.15 0.25 8.55 -1.0 8.75 -4.05 9.2 -5.45 9.3 -6.2 9.45 -6.65 9.45 -7.0 9.35 Q-8.05 9.25 -8.8 8.8 L-9.0 8.7 -10.0 8.3 -10.35 7.9 -10.3 7.65 -10.1 7.45 Q-9.95 7.15 -9.95 6.6 L-9.8 6.0 M-0.35 5.5 L-0.3 5.8 -0.25 7.2 -0.4 7.6 M-7.75 10.75 L-7.65 10.55 M-4.45 6.05 L-4.45 6.45 -4.5 7.95 M-7.75 6.0 Q-7.4 7.05 -7.4 8.35 M-10.25 15.7 L-10.1 15.8 -9.9 15.85 -7.85 15.95 -7.25 16.05 -6.95 16.35 -6.9 16.55" fill="none" stroke="#000000" stroke-linecap="round" stroke-linejoin="round" stroke-width="0.05"/>
  </g>
</svg>
