<?xml version="1.0" encoding="UTF-8" standalone="no"?>
<svg xmlns:xlink="http://www.w3.org/1999/xlink" height="17.1px" width="11.75px" xmlns="http://www.w3.org/2000/svg">
  <g transform="matrix(1.0, 0.0, 0.0, 1.0, 0.0, 0.0)">
    <path d="M-4.2 -8.4 Q-3.3 -8.4 -2.1 -7.7 L-1.95 -7.7 Q3.25 -8.2 4.7 -3.9 5.7 0.1 5.85 8.1 L5.55 8.35 5.25 8.6 4.25 8.7 3.45 5.55 Q0.9 0.25 -3.3 -4.05 L-3.95 -3.85 Q-4.5 -4.15 -4.9 -4.55 -6.7 -6.15 -5.3 -8.15 L-4.2 -8.4" fill="#396020" fill-rule="evenodd" stroke="none"/>
    <path d="M-4.2 -8.4 L-5.3 -8.15 Q-6.7 -6.15 -4.9 -4.55 -4.5 -4.15 -3.95 -3.85 L-3.3 -4.05 Q0.9 0.25 3.45 5.55 L4.25 8.7 5.25 8.6 5.55 8.35 5.85 8.1 Q5.7 0.1 4.7 -3.9 3.25 -8.2 -1.95 -7.7" fill="none" stroke="#000000" stroke-linecap="round" stroke-linejoin="round" stroke-width="0.05"/>
  </g>
</svg>
