<?xml version="1.0" encoding="UTF-8" standalone="no"?>
<svg xmlns:xlink="http://www.w3.org/1999/xlink" height="27.7px" width="59.3px" xmlns="http://www.w3.org/2000/svg">
  <g transform="matrix(1.0, 0.0, 0.0, 1.0, 0.0, 0.0)">
    <path d="M29.5 4.4 L31.1 1.55 31.2 1.55 31.4 2.75 30.15 5.4 Q28.6 8.1 26.3 10.25 20.9 15.25 12.5 14.45 4.45 13.5 -0.55 11.7 -5.55 9.9 -11.1 5.45 -16.65 1.0 -19.9 -2.35 L-17.35 -9.35 Q-15.0 -15.4 -11.35 -11.85 L-9.9 -10.0 -8.55 -8.0 -7.55 -6.15 -7.2 -5.45 -6.05 -3.35 -5.05 -1.7 -3.35 0.6 -2.3 1.85 Q3.75 8.6 13.3 10.7 23.95 12.55 29.5 4.4 M1.4 9.2 Q-2.2 7.35 -4.95 4.35 L-8.65 0.65 Q-13.6 -4.0 -15.55 -10.3 -13.6 -4.0 -8.65 0.65 L-4.95 4.35 Q-2.2 7.35 1.4 9.2" fill="#666699" fill-rule="evenodd" stroke="none"/>
    <path d="M29.5 4.4 L28.75 3.95 28.0 3.3 27.5 2.75 28.9 2.95 28.2 2.0 27.2 0.35 27.0 -0.2 28.65 0.8 28.35 0.2 Q27.8 -1.1 28.2 -2.4 L28.9 -4.35 29.7 -1.8 Q30.9 -2.5 31.2 -3.8 L31.9 -6.35 32.5 -5.15 33.0 -3.4 33.1 -2.45 33.8 -4.4 34.4 -6.45 35.05 -4.1 35.4 -1.2 36.25 -1.7 37.8 -3.05 38.5 -3.7 37.45 -1.0 36.05 1.45 39.3 0.9 39.25 1.1 Q37.8 3.2 35.2 3.75 36.75 4.25 37.5 5.65 34.6 6.6 31.95 5.0 L32.45 7.25 32.1 7.2 Q30.8 6.55 30.15 5.4 L31.4 2.75 31.2 1.55 31.1 1.55 29.5 4.4 M-11.35 -11.85 Q-8.9 -13.35 -5.9 -12.15 -8.5 -11.8 -9.9 -10.0 L-11.35 -11.85 M-8.55 -8.0 Q-6.75 -10.0 -3.4 -8.2 -6.45 -8.4 -7.55 -6.15 L-8.55 -8.0 M-6.05 -3.35 Q-3.2 -4.6 -1.25 -3.6 -4.6 -3.15 -5.05 -1.7 L-6.05 -3.35 M-3.35 0.6 Q-1.8 -0.8 0.7 0.05 -1.95 0.45 -2.3 1.85 L-3.35 0.6" fill="#33ff99" fill-rule="evenodd" stroke="none"/>
    <path d="M39.3 0.9 L36.05 1.45 37.45 -1.0 38.5 -3.7 37.8 -3.05 36.25 -1.7 35.4 -1.2 35.05 -4.1 34.4 -6.45 33.8 -4.4 33.1 -2.45 33.0 -3.4 32.5 -5.15 31.9 -6.35 31.2 -3.8 Q30.9 -2.5 29.7 -1.8 L28.9 -4.35 28.2 -2.4 Q27.8 -1.1 28.35 0.2 L28.65 0.8 27.0 -0.2 27.2 0.35 28.2 2.0 28.9 2.95 27.5 2.75 28.0 3.3 28.75 3.95 29.5 4.4 31.1 1.55 M31.2 1.55 L31.4 2.75 30.15 5.4 Q30.8 6.55 32.1 7.2 L32.45 7.25 31.95 5.0 Q34.6 6.6 37.5 5.65 36.75 4.25 35.2 3.75 37.8 3.2 39.25 1.1 L39.4 0.95 39.3 0.9 M-11.35 -11.85 Q-15.0 -15.4 -17.35 -9.35 L-19.9 -2.35 Q-16.65 1.0 -11.1 5.45 -5.55 9.9 -0.55 11.7 4.45 13.5 12.5 14.45 20.9 15.25 26.3 10.25 28.6 8.1 30.15 5.4 M-2.3 1.85 Q3.75 8.6 13.3 10.7 23.95 12.55 29.5 4.4 M-11.35 -11.85 Q-8.9 -13.35 -5.9 -12.15 -8.5 -11.8 -9.9 -10.0 L-8.55 -8.0 Q-6.75 -10.0 -3.4 -8.2 -6.45 -8.4 -7.55 -6.15 L-7.2 -5.45 -6.05 -3.35 Q-3.2 -4.6 -1.25 -3.6 -4.6 -3.15 -5.05 -1.7 L-3.35 0.6 Q-1.8 -0.8 0.7 0.05 -1.95 0.45 -2.3 1.85 L-3.35 0.6 M-7.55 -6.15 L-8.55 -8.0 M-5.05 -1.7 L-6.05 -3.35 M-9.9 -10.0 L-11.35 -11.85 M-15.55 -10.3 Q-13.6 -4.0 -8.65 0.65 L-4.95 4.35 Q-2.2 7.35 1.4 9.2" fill="none" stroke="#000000" stroke-linecap="round" stroke-linejoin="round" stroke-width="0.05"/>
  </g>
</svg>
