<?xml version="1.0" encoding="UTF-8" standalone="no"?>
<svg xmlns:xlink="http://www.w3.org/1999/xlink" height="34.45px" width="39.6px" xmlns="http://www.w3.org/2000/svg">
  <g transform="matrix(1.0, 0.0, 0.0, 1.0, 0.0, 0.0)">
    <path d="M0.15 -14.5 Q6.65 -15.95 11.15 -11.45 L6.0 -11.3 Q10.7 -10.5 13.65 -7.15 L14.55 -5.7 12.8 -5.95 Q15.15 -1.2 18.9 3.3 19.45 3.95 19.6 4.85 L19.8 6.75 17.0 3.95 Q18.15 8.1 16.65 11.8 L15.95 13.25 Q15.8 11.85 14.9 10.85 L14.25 10.4 13.55 9.95 Q13.65 13.4 11.15 16.1 L10.1 17.25 Q9.85 15.1 7.8 14.1 5.45 12.85 2.9 12.5 L4.65 15.5 Q-0.75 14.2 -4.65 10.2 L-3.6 12.85 Q-6.45 12.1 -8.7 9.85 L-10.5 8.45 -10.55 8.7 -10.1 10.35 Q-15.25 8.45 -17.35 3.6 L-18.4 1.45 Q-21.8 -4.6 -16.85 -9.7 -12.25 -14.4 -5.75 -16.2 -0.65 -17.65 4.65 -17.0 L0.15 -14.5 M-3.05 2.65 L-2.4 3.3 -1.8 3.8 Q-1.0 4.5 -0.15 4.2 L-0.2 3.85 -0.3 3.55 -1.25 1.95 -0.6 2.7 Q2.65 5.55 7.1 5.2 L6.6 4.1 5.95 3.5 4.8 2.35 Q6.7 3.25 8.8 3.75 L10.6 4.0 7.05 -1.5 12.7 -0.25 13.4 0.5 13.35 -0.4 Q12.7 -4.2 9.55 -6.8 L10.75 -6.65 12.8 -5.95 10.75 -6.65 9.55 -6.8 Q12.7 -4.2 13.35 -0.4 L13.4 0.5 12.7 -0.25 7.05 -1.5 10.6 4.0 8.8 3.75 Q6.7 3.25 4.8 2.35 L5.95 3.5 6.6 4.1 7.1 5.2 Q2.65 5.55 -0.6 2.7 L-1.25 1.95 -0.3 3.55 -0.2 3.85 -0.15 4.2 Q-1.0 4.5 -1.8 3.8 L-2.4 3.3 -3.05 2.65" fill="#292e1f" fill-rule="evenodd" stroke="none"/>
    <path d="M0.15 -14.5 Q6.65 -15.95 11.15 -11.45 L6.0 -11.3 Q10.7 -10.5 13.65 -7.15 L14.55 -5.7 12.8 -5.95 Q15.15 -1.2 18.9 3.3 19.45 3.95 19.6 4.85 L19.8 6.75 17.0 3.95 Q18.15 8.1 16.65 11.8 L15.95 13.25 Q15.8 11.85 14.9 10.85 L14.25 10.4 13.55 9.95 Q13.65 13.4 11.15 16.1 L10.1 17.25 Q9.85 15.1 7.8 14.1 5.45 12.85 2.9 12.5 L4.65 15.5 Q-0.75 14.2 -4.65 10.2 L-3.6 12.85 Q-6.45 12.1 -8.7 9.85 L-10.5 8.45 -10.55 8.7 -10.1 10.35 Q-15.25 8.45 -17.35 3.6 L-18.4 1.45 Q-21.8 -4.6 -16.85 -9.7 -12.25 -14.4 -5.75 -16.2 -0.65 -17.65 4.65 -17.0 L0.15 -14.5 M12.8 -5.95 L10.75 -6.65 9.55 -6.8 Q12.7 -4.2 13.35 -0.4 L13.4 0.5 12.7 -0.25 7.05 -1.5 10.6 4.0 8.8 3.75 Q6.7 3.25 4.8 2.35 L5.95 3.5 6.6 4.1 7.1 5.2 Q2.65 5.55 -0.6 2.7 L-1.25 1.95 -0.3 3.55 -0.2 3.85 -0.15 4.2 Q-1.0 4.5 -1.8 3.8 L-2.4 3.3 -3.05 2.65" fill="none" stroke="#000000" stroke-linecap="round" stroke-linejoin="round" stroke-width="0.05"/>
  </g>
</svg>
