<?xml version="1.0" encoding="UTF-8" standalone="no"?>
<svg xmlns:xlink="http://www.w3.org/1999/xlink" height="13.9px" width="16.55px" xmlns="http://www.w3.org/2000/svg">
  <g transform="matrix(1.0, 0.0, 0.0, 1.0, 0.0, 0.0)">
    <path d="M4.35 -6.95 L6.0 -5.5 6.75 -6.85 Q9.7 -2.7 6.85 0.85 6.9 0.05 6.5 -0.35 L5.35 -1.55 5.7 -0.25 Q5.35 1.95 3.9 2.55 L3.45 1.25 2.05 0.2 Q2.15 2.65 1.15 4.9 L0.7 4.4 0.6 4.1 -0.05 1.9 0.1 3.8 -0.85 5.7 Q-1.2 3.95 -2.25 2.8 L-2.65 3.25 -2.3 6.95 Q-4.85 4.7 -5.65 1.5 L-6.55 3.3 -6.8 3.4 -7.3 2.35 Q-8.95 -0.85 -7.9 -4.3 L-6.55 -5.4 -5.75 -4.6 Q-2.05 -6.55 2.1 -5.9 L2.45 -6.4 3.8 -6.35 4.35 -6.95" fill="#4b5963" fill-rule="evenodd" stroke="none"/>
    <path d="M4.35 -6.95 L3.8 -6.35 2.45 -6.4 2.1 -5.9 Q-2.05 -6.55 -5.75 -4.6 L-6.55 -5.4 -7.9 -4.3 Q-8.95 -0.85 -7.3 2.35 L-6.8 3.4 -6.55 3.3 -5.65 1.5 Q-4.85 4.7 -2.3 6.95 L-2.65 3.25 -2.25 2.8 Q-1.2 3.95 -0.85 5.7 L0.1 3.8 -0.05 1.9 0.6 4.1 0.7 4.4 1.15 4.9 Q2.15 2.65 2.05 0.2 L3.45 1.25 3.9 2.55 Q5.35 1.95 5.7 -0.25 L5.35 -1.55 6.5 -0.35 Q6.9 0.05 6.85 0.85 9.7 -2.7 6.75 -6.85 L6.0 -5.5 4.35 -6.95 Z" fill="none" stroke="#000000" stroke-linecap="round" stroke-linejoin="round" stroke-width="0.05"/>
  </g>
</svg>
