<?xml version="1.0" encoding="UTF-8" standalone="no"?>
<svg xmlns:xlink="http://www.w3.org/1999/xlink" height="14.05px" width="14.75px" xmlns="http://www.w3.org/2000/svg">
  <g transform="matrix(1.0, 0.0, 0.0, 1.0, 0.0, 0.0)">
    <path d="M-6.25 -4.7 Q-2.55 -3.35 0.15 -0.7 L1.05 0.05 -1.7 -7.0 Q6.0 -4.15 7.35 3.65 0.0 10.15 -7.4 4.15 L-1.2 3.0 Q-4.55 -0.35 -6.45 -4.65 L-6.25 -4.7 M4.8 0.0 L3.7 0.2 Q1.25 0.7 -0.2 2.55 1.25 0.7 3.7 0.2 L4.8 0.0 M2.7 4.2 L2.0 3.85 -1.2 3.0 2.0 3.85 2.7 4.2" fill="#396020" fill-rule="evenodd" stroke="none"/>
    <path d="M-6.25 -4.7 Q-2.55 -3.35 0.15 -0.7 L1.05 0.05 -1.7 -7.0 Q6.0 -4.15 7.35 3.65 0.0 10.15 -7.4 4.15 L-1.2 3.0 Q-4.55 -0.35 -6.45 -4.65 L-6.25 -4.7 M-1.2 3.0 L2.0 3.85 2.7 4.2 M-0.2 2.55 Q1.25 0.7 3.7 0.2 L4.8 0.0" fill="none" stroke="#000000" stroke-linecap="round" stroke-linejoin="round" stroke-width="0.05"/>
  </g>
</svg>
