<?xml version="1.0" encoding="UTF-8" standalone="no"?>
<svg xmlns:xlink="http://www.w3.org/1999/xlink" height="41.55px" width="31.85px" xmlns="http://www.w3.org/2000/svg">
  <g transform="matrix(1.0, 0.0, 0.0, 1.0, 0.0, 0.0)">
    <path d="M0.7 -1.85 L1.15 -1.3 2.2 -0.35 2.8 0.05 2.9 0.05 Q3.35 0.1 3.7 0.75 4.05 1.45 4.05 2.45 L4.0 2.7 3.4 3.9 1.05 4.05 0.55 4.2 1.2 5.95 0.9 7.0 -0.8 7.7 -4.15 5.45 -5.4 5.9 -5.3 8.15 Q-5.6 8.55 -6.15 8.4 -6.7 7.15 -7.7 6.5 L-7.8 8.3 -9.55 8.25 -9.5 7.8 -10.15 6.95 -10.65 7.55 -10.45 8.8 -11.95 8.95 -12.55 7.55 -13.3 8.2 -13.05 9.25 -14.25 9.1 -14.7 7.65 -15.55 7.7 -15.9 7.35 Q-16.3 2.65 -11.35 1.45 -10.5 1.15 -10.15 0.25 L-8.75 -3.4 -8.3 -3.55 -5.6 -3.65 -4.6 -3.7 -1.05 -3.65 -1.0 -3.65 Q-0.3 -3.65 0.2 -3.1 0.7 -2.6 0.7 -1.85 M-13.6 5.4 L-13.0 4.8 -12.95 5.25 -12.2 5.75 -12.1 5.4 -12.15 5.1 -12.15 4.2 -11.95 3.95 -11.6 3.7 -11.2 3.8 -8.95 4.95 -8.4 4.35 -8.25 2.15 -6.7 2.7 Q-6.7 -0.9 -2.8 -0.9 -1.2 -0.1 -0.5 1.6 L-0.75 2.95 -0.5 1.6 Q-1.2 -0.1 -2.8 -0.9 -6.7 -0.9 -6.7 2.7 -4.65 5.55 -1.6 3.6 L-0.75 2.95 -1.6 3.6 Q-4.65 5.55 -6.7 2.7 L-8.25 2.15 -8.4 4.35 -8.95 4.95 -11.2 3.8 -11.6 3.7 -11.95 3.95 -12.15 4.2 -12.15 5.1 -12.1 5.4 -12.2 5.75 -12.95 5.25 -13.0 4.8 -13.6 5.4" fill="#81814f" fill-rule="evenodd" stroke="none"/>
    <path d="M5.55 12.7 L5.95 12.55 5.6 12.75 5.55 12.7" fill="#3d2312" fill-rule="evenodd" stroke="none"/>
    <path d="M3.4 3.9 L4.0 2.7 4.25 2.85 Q4.0 7.25 5.15 11.5 L6.0 11.55 5.55 12.7 5.6 12.75 5.0 12.8 4.8 12.75 4.3 12.7 4.15 13.15 4.1 12.85 3.85 12.9 3.65 12.75 3.5 12.7 3.9 12.05 3.7 8.35 3.4 3.9" fill="#845125" fill-rule="evenodd" stroke="none"/>
    <path d="M-13.05 9.25 L-13.3 8.2 -12.55 7.55 -11.95 8.95 -10.45 8.8 -10.65 7.55 -10.15 6.95 -9.5 7.8 -9.55 8.25 -7.8 8.3 -7.7 6.5 Q-6.7 7.15 -6.15 8.4 -5.6 8.55 -5.3 8.15 L-5.4 5.9 -4.15 5.45 -0.8 7.7 0.9 7.0 1.2 5.95 0.55 4.2 1.05 4.05 3.4 3.9 3.7 8.35 1.5 9.95 0.7 10.8 Q-4.0 9.1 -7.85 11.35 L-7.2 12.9 Q-8.05 15.45 -11.1 15.4 L-9.25 13.85 Q-8.8 12.45 -9.7 11.45 L-9.8 11.3 -9.6 10.95 -9.95 10.25 -10.75 10.5 -13.05 9.25" fill="#666699" fill-rule="evenodd" stroke="none"/>
    <path d="M5.95 12.55 Q7.7 12.9 8.3 14.5 L8.4 14.95 6.2 13.9 Q10.1 16.85 7.4 20.8 6.85 17.5 5.4 14.55 5.9 17.5 4.35 20.1 L3.65 14.35 4.2 13.45 4.15 13.15 4.3 12.7 4.8 12.75 5.0 12.8 5.6 12.75 5.95 12.55" fill="#66ff99" fill-rule="evenodd" stroke="none"/>
    <path d="M1.15 -1.3 L0.7 -1.85 Q6.0 -6.5 13.2 -7.2 L15.9 -7.6 Q9.75 -3.35 2.5 -1.5 L1.15 -1.3 M-4.6 -3.7 L-5.6 -3.65 Q-6.8 -10.8 -2.45 -16.5 L1.05 -20.75 Q2.05 -14.0 -0.95 -8.05 -2.3 -5.45 -4.6 -3.7 M4.0 2.7 L4.05 2.45 Q7.95 2.35 12.95 6.35 L13.8 8.05 12.35 8.05 Q7.05 7.35 4.25 2.85 L4.0 2.7 M2.9 0.05 L2.8 0.05 2.2 -0.35 Q8.65 -2.95 15.05 -0.9 L15.45 -0.75 Q10.25 0.9 4.65 0.15 L2.9 0.05 M-1.05 -3.7 Q0.55 -11.25 8.15 -14.3 L12.45 -15.85 Q8.05 -10.45 2.65 -5.85 1.1 -4.5 -1.0 -3.65 L-1.05 -3.7 M-8.3 -3.55 Q-9.7 -8.9 -8.25 -13.95 -6.3 -11.1 -7.1 -6.15 -7.3 -4.75 -8.3 -3.55" fill="url(#gradient0)" fill-rule="evenodd" stroke="none"/>
    <path d="M0.7 -1.85 L1.15 -1.3 2.5 -1.5 Q9.75 -3.35 15.9 -7.6 L13.2 -7.2 Q6.0 -6.5 0.7 -1.85 0.7 -2.6 0.2 -3.1 -0.3 -3.65 -1.0 -3.65 L-1.05 -3.65 -4.6 -3.7 -5.6 -3.65 -8.3 -3.55 -8.75 -3.4 -10.15 0.25 Q-10.5 1.15 -11.35 1.45 -16.3 2.65 -15.9 7.35 L-15.55 7.7 -14.7 7.65 -14.25 9.1 -13.05 9.25 -13.3 8.2 -12.55 7.55 -11.95 8.95 -10.45 8.8 -10.65 7.55 -10.15 6.95 -9.5 7.8 -9.55 8.25 -7.8 8.3 -7.7 6.5 Q-6.7 7.15 -6.15 8.4 -5.6 8.55 -5.3 8.15 L-5.4 5.9 -4.15 5.45 -0.8 7.7 0.9 7.0 1.2 5.95 0.55 4.2 1.05 4.05 3.4 3.9 4.0 2.7 4.05 2.45 Q4.05 1.45 3.7 0.75 3.35 0.1 2.9 0.05 L2.8 0.05 2.2 -0.35 1.15 -1.3 M2.2 -0.35 Q8.65 -2.95 15.05 -0.9 L15.45 -0.75 Q10.25 0.9 4.65 0.15 L2.9 0.05 M-1.05 -3.7 Q0.55 -11.25 8.15 -14.3 L12.45 -15.85 Q8.05 -10.45 2.65 -5.85 1.1 -4.5 -1.0 -3.65 M-1.05 -3.7 L-1.05 -3.65 M-8.3 -3.55 Q-9.7 -8.9 -8.25 -13.95 -6.3 -11.1 -7.1 -6.15 -7.3 -4.75 -8.3 -3.55 M-5.6 -3.65 Q-6.8 -10.8 -2.45 -16.5 L1.05 -20.75 Q2.05 -14.0 -0.95 -8.05 -2.3 -5.45 -4.6 -3.7 M3.7 8.35 L1.5 9.95 0.7 10.8 Q-4.0 9.1 -7.85 11.35 L-7.2 12.9 Q-8.05 15.45 -11.1 15.4 L-9.25 13.85 Q-8.8 12.45 -9.7 11.45 L-9.8 11.3 -9.6 10.95 -9.95 10.25 -10.75 10.5 -13.05 9.25 M4.05 2.45 Q7.95 2.35 12.95 6.35 L13.8 8.05 12.35 8.05 Q7.05 7.35 4.25 2.85 4.0 7.25 5.15 11.5 L6.0 11.55 5.55 12.7 5.95 12.55 Q7.7 12.9 8.3 14.5 L8.4 14.95 6.2 13.9 Q10.1 16.85 7.4 20.8 6.85 17.5 5.4 14.55 5.9 17.5 4.35 20.1 L3.65 14.35 4.2 13.45 4.15 13.15 4.1 12.85 3.85 12.9 3.65 12.75 3.5 12.7 3.9 12.05 3.7 8.35 3.4 3.9 M4.0 2.7 L4.25 2.85" fill="none" stroke="#000000" stroke-linecap="round" stroke-linejoin="round" stroke-width="0.05"/>
    <path d="M5.6 12.75 L5.95 12.55 M4.15 13.15 L4.3 12.7 4.8 12.75 5.0 12.8 5.6 12.75" fill="none" stroke="#81814f" stroke-linecap="round" stroke-linejoin="round" stroke-width="0.05"/>
    <path d="M-0.75 2.95 L-0.5 1.6 Q-1.2 -0.1 -2.8 -0.9 -6.7 -0.9 -6.7 2.7 -4.65 5.55 -1.6 3.6 L-0.75 2.95 M-6.7 2.7 L-8.25 2.15 -8.4 4.35 -8.95 4.95 -11.2 3.8 -11.6 3.7 -11.95 3.95 -12.15 4.2 -12.15 5.1 -12.1 5.4 -12.2 5.75 -12.95 5.25 -13.0 4.8 -13.6 5.4" fill="none" stroke="#66ff99" stroke-linecap="round" stroke-linejoin="round" stroke-width="0.05"/>
  </g>
  <defs>
    <radialGradient cx="0" cy="0" gradientTransform="matrix(0.0152, 0.0, 0.0, 0.0174, 0.5, -3.25)" gradientUnits="userSpaceOnUse" id="gradient0" r="819.2" spreadMethod="pad">
      <stop offset="0.10196078431372549" stop-color="#40ff22"/>
      <stop offset="0.6039215686274509" stop-color="#0ab3dc"/>
      <stop offset="0.9568627450980393" stop-color="#156bea"/>
    </radialGradient>
  </defs>
</svg>
