<?xml version="1.0" encoding="UTF-8" standalone="no"?>
<svg xmlns:xlink="http://www.w3.org/1999/xlink" height="56.1px" width="52.0px" xmlns="http://www.w3.org/2000/svg">
  <g transform="matrix(1.0, 0.0, 0.0, 1.0, 0.0, 0.0)">
    <path d="M3.4 -27.45 L3.25 -26.45 Q-3.0 -21.55 -9.3 -16.7 4.4 -20.45 18.45 -18.9 19.25 -18.6 19.45 -17.9 8.25 -13.15 -4.05 -11.1 7.85 -11.35 19.5 -7.85 21.3 -7.25 22.5 -6.05 L22.2 -5.3 Q10.5 -1.95 -2.5 -3.7 1.25 -2.25 5.25 -1.05 10.3 0.55 14.45 3.75 L14.7 5.95 Q12.85 7.55 10.45 6.85 4.05 5.2 -2.5 4.6 1.85 7.15 5.65 11.1 7.7 13.15 7.25 15.85 5.35 16.4 3.3 15.55 L-7.75 11.1 -5.25 16.4 Q-3.9 19.3 -4.5 22.4 L-4.9 23.1 -7.1 22.55 Q-9.25 21.7 -10.95 20.05 L-12.65 18.5 -11.6 23.8 -13.3 24.55 Q-14.7 25.0 -15.9 24.3 L-19.15 22.2 -18.8 23.7 -18.55 24.65 -18.6 25.45 -19.05 26.95 -19.85 27.25 -20.65 27.3 -21.35 27.1 -22.7 26.7 -23.2 26.5 -23.6 26.45 -23.85 26.55 -24.65 28.5 -27.7 28.45 Q-29.75 27.8 -29.45 26.0 L-28.95 21.65 -28.95 20.5 Q-22.75 6.65 -25.75 -8.3 -26.25 -10.8 -24.55 -12.9 -14.95 -24.6 0.65 -27.05 L3.4 -27.45 M-21.9 -11.75 L-21.3 -10.5 -21.3 -9.55 Q-20.75 -9.4 -20.6 -8.35 -19.75 -1.7 -20.95 5.55 L-21.2 5.85 Q-22.45 9.85 -22.2 13.55 L-16.65 15.7 -15.7 14.5 -15.7 12.0 -18.5 7.7 Q-13.65 8.6 -9.85 11.1 -8.8 4.65 -14.5 1.85 -8.9 2.7 -5.2 4.0 -6.2 2.75 -6.45 0.6 -10.2 -3.95 -15.4 -5.85 L-2.45 -6.5 Q-6.8 -9.55 -13.25 -10.2 L-6.15 -11.75 -4.0 -12.95 -4.3 -12.95 Q-11.2 -14.9 -18.2 -12.95 L-20.95 -11.4 -21.9 -11.75" fill="#ffffff" fill-rule="evenodd" stroke="none"/>
    <path d="M-21.9 -11.75 L-20.95 -11.4 -18.2 -12.95 Q-11.2 -14.9 -4.3 -12.95 L-4.0 -12.95 -6.15 -11.75 -13.25 -10.2 Q-6.8 -9.55 -2.45 -6.5 L-15.4 -5.85 Q-10.2 -3.95 -6.45 0.6 -6.2 2.75 -5.2 4.0 -8.9 2.7 -14.5 1.85 -8.8 4.65 -9.85 11.1 -13.65 8.6 -18.5 7.7 L-15.7 12.0 -15.7 14.5 -16.65 15.7 -22.2 13.55 Q-22.45 9.85 -21.2 5.85 L-20.95 5.55 Q-19.75 -1.7 -20.6 -8.35 -20.75 -9.4 -21.3 -9.55 L-21.3 -10.5 -21.9 -11.75" fill="url(#gradient0)" fill-rule="evenodd" stroke="none"/>
  </g>
  <defs>
    <linearGradient gradientTransform="matrix(-0.0121, -3.0E-4, 4.0E-4, -0.0181, -12.35, 0.95)" gradientUnits="userSpaceOnUse" id="gradient0" spreadMethod="pad" x1="-819.2" x2="819.2">
      <stop offset="0.0" stop-color="#104f78" stop-opacity="0.56078434"/>
      <stop offset="0.9921568627450981" stop-color="#ffffff"/>
    </linearGradient>
  </defs>
</svg>
