<?xml version="1.0" encoding="UTF-8" standalone="no"?>
<svg xmlns:xlink="http://www.w3.org/1999/xlink" height="34.9px" width="22.75px" xmlns="http://www.w3.org/2000/svg">
  <g transform="matrix(1.0, 0.0, 0.0, 1.0, 0.0, 0.0)">
    <path d="M-0.6 -17.45 Q2.05 -16.75 3.35 -12.2 3.95 -10.1 4.15 -7.8 5.95 -7.95 7.25 -8.85 L9.15 -10.2 9.4 -10.0 9.5 -9.25 Q9.5 -8.3 7.6 -7.05 5.85 -5.9 4.25 -5.75 L4.25 -5.2 4.25 -3.8 Q6.05 -3.85 8.1 -5.35 L10.4 -7.05 11.4 -5.9 Q11.4 -5.0 8.85 -3.35 6.1 -1.6 4.15 -1.6 L4.1 -1.6 3.75 1.35 4.95 1.35 Q6.15 1.35 7.45 0.55 L9.3 -0.6 9.9 -0.4 10.2 0.3 Q10.2 1.3 8.2 2.5 6.3 3.6 5.05 3.6 L3.35 3.5 2.65 6.3 Q1.1 12.0 -1.35 14.2 3.1 14.2 4.95 12.65 6.85 11.05 7.45 11.05 8.35 11.05 9.0 11.5 L9.15 11.8 9.3 12.5 Q9.3 13.85 7.2 15.45 4.5 17.45 0.4 17.45 -5.95 17.45 -9.3 13.45 -10.35 12.2 -10.95 10.7 L-11.35 9.45 Q-11.35 8.0 -10.7 7.65 L-10.05 8.45 -10.1 8.7 Q-10.1 10.1 -6.9 12.15 -5.05 13.35 -3.45 13.85 L-0.75 8.25 1.25 3.15 Q-0.7 2.6 -2.4 1.55 -5.05 -0.1 -5.05 -1.15 -5.05 -3.0 -3.95 -3.55 -3.75 -3.25 -4.0 -2.55 -4.0 -1.0 -1.3 0.15 0.1 0.8 1.8 1.1 L2.35 -1.7 Q-0.6 -2.1 -2.35 -3.7 -3.95 -5.2 -3.95 -6.6 L-3.65 -7.8 Q-3.15 -7.7 -1.15 -5.65 0.2 -4.25 2.55 -3.9 L2.55 -5.2 2.5 -5.8 Q-0.4 -6.1 -1.95 -7.85 -3.2 -9.15 -3.2 -10.4 L-3.1 -11.1 Q-2.3 -11.35 -0.95 -9.7 0.15 -8.3 2.05 -7.95 L0.95 -11.8 -0.65 -17.1 -0.6 -17.45" fill="#000000" fill-rule="evenodd" stroke="none"/>
  </g>
</svg>
