<?xml version="1.0" encoding="UTF-8" standalone="no"?>
<svg xmlns:xlink="http://www.w3.org/1999/xlink" height="16.0px" width="30.25px" xmlns="http://www.w3.org/2000/svg">
  <g transform="matrix(1.0, 0.0, 0.0, 1.0, 0.0, 0.0)">
    <path d="M16.35 5.05 L16.1 6.0 14.25 5.9 13.95 6.3 14.0 6.6 14.1 7.8 13.9 8.25 Q9.8 5.45 5.5 2.8 -2.1 -2.1 -11.0 -3.2 -11.65 -2.4 -12.6 -2.35 -13.45 -2.3 -13.9 -2.8 L-13.85 -3.25 -12.9 -5.0 -12.45 -5.05 -11.75 -5.75 -12.45 -7.25 -12.2 -7.75 Q-10.05 -7.95 -9.4 -5.85 -9.2 -5.25 -7.05 -4.7 L-2.5 -3.4 Q-0.05 -2.6 4.3 -0.25 8.6 2.1 16.35 5.05" fill="#b49a6e" fill-rule="evenodd" stroke="none"/>
    <path d="M16.35 5.05 Q8.6 2.1 4.3 -0.25 -0.05 -2.6 -2.5 -3.4 L-7.05 -4.7 Q-9.2 -5.25 -9.4 -5.85 -10.05 -7.95 -12.2 -7.75 L-12.45 -7.25 -11.75 -5.75 -12.45 -5.05 -12.9 -5.0 -13.85 -3.25 -13.9 -2.8 Q-13.45 -2.3 -12.6 -2.35 -11.65 -2.4 -11.0 -3.2 -2.1 -2.1 5.5 2.8 9.8 5.45 13.9 8.25 L14.1 7.8 14.0 6.6 13.95 6.3 14.25 5.9 16.1 6.0 16.35 5.05 Z" fill="none" stroke="#000000" stroke-linecap="round" stroke-linejoin="round" stroke-width="0.05"/>
  </g>
</svg>
