<?xml version="1.0" encoding="UTF-8" standalone="no"?>
<svg xmlns:xlink="http://www.w3.org/1999/xlink" height="26.25px" width="20.2px" xmlns="http://www.w3.org/2000/svg">
  <g transform="matrix(1.0, 0.0, 0.0, 1.0, 0.0, 0.0)">
    <path d="M-7.55 -10.75 L-7.45 -11.95 -4.75 -9.95 -4.95 -9.25 Q-5.15 -8.2 -4.85 -7.2 L-3.65 -3.9 -4.25 -2.8 -5.25 -2.7 -5.6 -2.4 -6.3 -4.1 -6.1 -4.5 -6.3 -5.9 -7.55 -10.75 -6.3 -5.9 -6.1 -4.5 -6.3 -4.1 -5.6 -2.4 -5.25 -2.7 -4.25 -2.8 -3.65 -3.9 -4.85 -7.2 -2.7 -5.55 -2.35 -4.7 Q-1.5 -3.55 -1.6 -2.0 L-0.8 -1.95 Q-0.1 -1.75 0.5 -1.4 5.4 -4.05 8.35 0.85 7.5 0.45 6.6 0.3 3.3 -0.85 0.0 0.3 L0.0 1.6 0.75 1.85 1.45 2.4 1.7 2.6 2.5 1.7 Q3.1 1.1 3.85 1.5 8.5 4.15 10.75 9.3 L5.9 6.85 4.4 6.7 3.4 4.85 -0.6 4.6 -0.7 3.7 -2.15 3.9 -2.6 4.45 Q2.25 8.0 1.3 13.8 L1.1 14.3 -1.45 10.4 Q-2.95 8.6 -5.65 8.85 L-6.25 8.2 -6.0 6.95 -6.7 6.45 -7.4 5.9 Q-7.1 2.55 -8.95 -0.5 L-9.1 -0.7 Q-9.75 -5.95 -9.25 -11.15 L-8.75 -11.2 Q-8.1 -11.15 -7.55 -10.75 M0.0 1.6 L-0.7 3.7 0.0 1.6 M-6.7 6.45 Q-6.3 6.4 -6.35 6.0 L-6.3 5.25 -6.05 4.6 -5.25 4.45 Q-4.25 4.35 -3.25 4.9 L-2.6 4.45 -3.25 4.9 Q-4.25 4.35 -5.25 4.45 L-6.05 4.6 -6.3 5.25 -6.35 6.0 Q-6.3 6.4 -6.7 6.45 M-4.25 -2.8 L-3.05 -2.55 -2.6 -1.45 -1.6 -2.0 -2.6 -1.45 -2.05 -0.85 Q-1.2 0.0 0.0 0.3 -1.2 0.0 -2.05 -0.85 L-2.6 -1.45 -3.05 -2.55 -4.25 -2.8 M-2.15 3.9 Q-3.55 1.15 -5.95 -0.6 L-5.6 -1.85 -6.6 -1.9 -7.6 -1.25 -8.95 -0.5 -7.6 -1.25 -6.6 -1.9 -5.6 -1.85 -5.6 -2.4 -5.6 -1.85 -5.95 -0.6 Q-3.55 1.15 -2.15 3.9" fill="#b49a6e" fill-rule="evenodd" stroke="none"/>
    <path d="M-4.85 -7.2 Q-5.15 -8.2 -4.95 -9.25 L-4.75 -9.95 -7.45 -11.95 -7.55 -10.75 -6.3 -5.9 -6.1 -4.5 -6.3 -4.1 -5.6 -2.4 -5.25 -2.7 -4.25 -2.8 -3.65 -3.9 -4.85 -7.2 -2.7 -5.55 -2.35 -4.7 Q-1.5 -3.55 -1.6 -2.0 L-0.8 -1.95 Q-0.1 -1.75 0.5 -1.4 5.4 -4.05 8.35 0.85 7.5 0.45 6.6 0.3 3.3 -0.85 0.0 0.3 L0.0 1.6 0.75 1.85 1.45 2.4 1.7 2.6 2.5 1.7 Q3.1 1.1 3.85 1.5 8.5 4.15 10.75 9.3 L5.9 6.85 4.4 6.7 3.4 4.85 -0.6 4.6 -0.7 3.7 -2.15 3.9 -2.6 4.45 Q2.25 8.0 1.3 13.8 L1.1 14.3 -1.45 10.4 Q-2.95 8.6 -5.65 8.85 L-6.25 8.2 -6.0 6.95 -6.7 6.45 -7.4 5.9 Q-7.1 2.55 -8.95 -0.5 L-9.1 -0.7 Q-9.75 -5.95 -9.25 -11.15 L-8.75 -11.2 Q-8.1 -11.15 -7.55 -10.75 M-8.95 -0.5 L-7.6 -1.25 -6.6 -1.9 -5.6 -1.85 -5.6 -2.4 M-5.6 -1.85 L-5.95 -0.6 Q-3.55 1.15 -2.15 3.9 M-1.6 -2.0 L-2.6 -1.45 -2.05 -0.85 Q-1.2 0.0 0.0 0.3 M-2.6 -1.45 L-3.05 -2.55 -4.25 -2.8 M-2.6 4.45 L-3.25 4.9 Q-4.25 4.35 -5.25 4.45 L-6.05 4.6 -6.3 5.25 -6.35 6.0 Q-6.3 6.4 -6.7 6.45 M-0.7 3.7 L0.0 1.6" fill="none" stroke="#000000" stroke-linecap="round" stroke-linejoin="round" stroke-width="0.05"/>
  </g>
</svg>
