<?xml version="1.0" encoding="UTF-8" standalone="no"?>
<svg xmlns:xlink="http://www.w3.org/1999/xlink" height="34.35px" width="16.7px" xmlns="http://www.w3.org/2000/svg">
  <g transform="matrix(1.0, 0.0, 0.0, 1.0, 0.0, 0.0)">
    <path d="M-4.75 15.8 L-6.55 15.4 Q-10.5 11.9 -5.85 8.5 -0.4 4.5 2.75 -1.55 5.8 -7.45 6.25 -14.1 8.0 -11.05 7.05 -6.85 L5.55 0.1 Q5.05 2.65 3.05 4.55 L4.1 4.85 Q5.35 3.75 6.95 3.6 6.75 5.45 4.75 6.6 L3.35 7.45 Q8.15 8.05 8.35 13.1 8.4 14.1 7.85 15.05 L7.75 14.6 7.7 13.8 5.4 11.75 3.35 11.75 Q5.7 16.0 2.1 19.1 1.15 19.9 -0.1 20.25 L0.75 17.0 0.8 15.85 0.55 15.5 -0.15 15.2 -1.05 15.75 -1.25 17.3 -1.95 17.55 Q-2.7 16.9 -3.35 16.55 L-4.45 16.05 -4.65 15.8 -4.75 15.8 M-2.0 10.05 L-2.6 11.2 -3.6 11.4 -2.65 13.4 -2.0 12.15 -1.25 11.95 -0.5 12.25 Q1.75 13.9 1.9 16.7 L2.25 15.15 Q2.6 12.35 0.85 10.25 3.25 9.35 5.9 9.8 L5.3 9.35 Q2.85 8.15 0.05 8.35 L0.6 7.45 Q1.35 6.05 1.65 4.35 L1.5 4.3 0.5 5.4 -5.8 11.7 -5.1 13.85 -6.55 15.4 -5.1 13.85 -5.8 11.7 0.5 5.4 1.5 4.3 1.65 4.35 Q1.35 6.05 0.6 7.45 L0.05 8.35 Q2.85 8.15 5.3 9.35 L5.9 9.8 Q3.25 9.35 0.85 10.25 2.6 12.35 2.25 15.15 L1.9 16.7 Q1.75 13.9 -0.5 12.25 L-1.25 11.95 -2.0 12.15 -2.65 13.4 -3.6 11.4 -2.6 11.2 -2.0 10.05" fill="#ae8257" fill-rule="evenodd" stroke="none"/>
    <path d="M-4.75 15.8 L-6.55 15.4 Q-10.5 11.9 -5.85 8.5 -0.4 4.5 2.75 -1.55 5.8 -7.45 6.25 -14.1 8.0 -11.05 7.05 -6.85 L5.55 0.1 Q5.05 2.65 3.05 4.55 L4.1 4.85 Q5.35 3.75 6.95 3.6 6.75 5.45 4.75 6.6 L3.35 7.45 Q8.15 8.05 8.35 13.1 8.4 14.1 7.85 15.05 L7.75 14.6 7.7 13.8 5.4 11.75 3.35 11.75 Q5.7 16.0 2.1 19.1 1.15 19.9 -0.1 20.25 L0.75 17.0 0.8 15.85 0.55 15.5 -0.15 15.2 -1.05 15.75 -1.25 17.3 -1.95 17.55 Q-2.7 16.9 -3.35 16.55 L-4.45 16.05 -4.75 15.8 -4.65 15.8 -4.45 16.05" fill="none" stroke="#000000" stroke-linecap="round" stroke-linejoin="round" stroke-width="0.05"/>
    <path d="M-6.55 15.4 L-5.1 13.85 -5.8 11.7 0.5 5.4 1.5 4.3 1.65 4.35 Q1.35 6.05 0.6 7.45 L0.05 8.35 Q2.85 8.15 5.3 9.35 L5.9 9.8 Q3.25 9.35 0.85 10.25 2.6 12.35 2.25 15.15 L1.9 16.7 Q1.75 13.9 -0.5 12.25 L-1.25 11.95 -2.0 12.15 -2.65 13.4 -3.6 11.4 -2.6 11.2 -2.0 10.05" fill="none" stroke="#ff0000" stroke-linecap="round" stroke-linejoin="round" stroke-width="0.05"/>
  </g>
</svg>
