<?xml version="1.0" encoding="UTF-8" standalone="no"?>
<svg xmlns:xlink="http://www.w3.org/1999/xlink" height="29.45px" width="16.75px" xmlns="http://www.w3.org/2000/svg">
  <g transform="matrix(1.0, 0.0, 0.0, 1.0, 0.0, 0.0)">
    <path d="M7.75 -14.75 Q8.4 -11.15 8.4 -8.95 8.4 -2.6 3.85 3.15 L0.7 6.8 Q-0.75 8.45 -0.75 9.25 -0.75 10.1 -2.05 12.3 -3.45 14.7 -4.35 14.7 L-5.05 14.65 -5.65 14.45 Q-5.9 13.3 -5.2 12.6 L-5.2 12.55 -7.9 12.2 Q-8.35 11.95 -8.35 11.4 L-3.65 7.55 Q1.6 2.95 4.15 -1.15 5.85 -3.9 6.6 -7.95 L7.4 -14.75 7.75 -14.75" fill="#000000" fill-rule="evenodd" stroke="none"/>
  </g>
</svg>
