<?xml version="1.0" encoding="UTF-8" standalone="no"?>
<svg xmlns:xlink="http://www.w3.org/1999/xlink" height="79.65px" width="34.45px" xmlns="http://www.w3.org/2000/svg">
  <g transform="matrix(1.0, 0.0, 0.0, 1.0, 0.0, 0.0)">
    <path d="M-6.05 -35.5 L-6.1 -33.0 Q-6.05 -32.0 -4.55 -31.25 -2.85 -30.4 -2.25 -28.85 -1.75 -27.55 -1.8 -24.2 -1.85 -20.8 -1.3 -19.15 0.3 -14.6 5.25 -9.35 10.6 -3.65 16.45 -1.05 L16.5 -0.65 15.9 -0.45 Q14.25 -0.45 12.45 -1.15 L12.7 -0.25 Q13.05 1.3 13.05 3.2 L12.5 9.3 11.9 15.95 12.05 20.55 Q12.3 24.9 12.75 27.3 13.5 31.1 15.55 34.3 17.25 36.95 17.25 38.7 L17.15 39.5 17.0 39.7 16.25 39.85 Q12.35 39.85 10.95 28.05 L10.25 16.15 10.85 8.65 11.45 2.0 Q11.45 0.35 10.95 -1.8 7.7 -3.5 3.95 -7.1 -0.75 -11.65 -2.8 -15.05 -3.85 -16.8 -4.4 -19.3 -4.95 -21.75 -4.75 -23.65 -4.65 -24.4 -5.9 -27.65 L-6.15 -28.3 -6.65 -28.3 Q-11.15 -28.3 -14.6 -30.9 -17.2 -32.85 -17.2 -33.85 L-17.05 -33.9 -17.05 -34.05 -9.8 -31.45 -8.65 -31.0 -11.5 -33.65 Q-15.1 -37.6 -15.1 -39.2 L-15.1 -39.7 Q-15.0 -39.65 -14.95 -39.75 L-14.7 -39.8 Q-13.45 -37.8 -9.5 -34.85 L-7.2 -33.1 Q-7.1 -35.95 -6.5 -38.0 L-6.2 -38.0 Q-6.05 -37.0 -6.05 -35.5" fill="#000000" fill-rule="evenodd" stroke="none"/>
  </g>
</svg>
