<?xml version="1.0" encoding="UTF-8" standalone="no"?>
<svg xmlns:xlink="http://www.w3.org/1999/xlink" height="54.7px" width="22.85px" xmlns="http://www.w3.org/2000/svg">
  <g transform="matrix(1.0, 0.0, 0.0, 1.0, 0.0, 0.0)">
    <path d="M-7.6 17.55 Q-6.15 15.85 -5.05 14.0 -3.95 12.15 -3.7 9.95 L-3.45 5.3 -3.5 -0.3 -3.5 -5.5 Q-3.4 -10.4 -1.5 -14.95 -0.35 -17.75 1.3 -20.3 L-0.05 -20.7 0.3 -21.6 1.1 -22.1 1.95 -23.0 2.35 -23.45 2.2 -24.4 2.45 -24.9 3.3 -25.6 Q4.75 -26.4 6.5 -26.15 L8.5 -26.0 Q10.35 -25.75 11.0 -24.0 L10.5 -21.85 Q10.05 -20.15 10.55 -19.15 11.0 -18.15 10.3 -17.8 L8.95 -17.05 6.0 -14.9 4.75 -14.3 4.05 -14.2 4.45 -17.8 4.3 -17.7 Q3.1 -16.75 2.55 -15.15 1.55 -12.5 1.85 -9.5 2.05 -7.45 2.6 -5.45 3.4 -2.6 3.3 0.3 3.2 3.4 1.15 5.6 L1.0 5.75 1.1 5.7 1.7 8.45 Q2.4 11.0 3.6 13.55 4.35 15.25 4.25 16.95 4.15 19.35 3.55 21.75 L2.95 23.4 Q2.35 24.55 1.25 25.2 L0.25 25.85 Q-1.45 26.8 -3.3 26.35 L-4.75 26.8 -9.1 28.35 Q-10.5 28.85 -11.6 27.8 L-11.8 27.3 -11.8 26.8 -11.3 25.25 -10.8 24.1 -10.9 23.4 -9.15 22.25 -8.8 21.8 -7.8 19.7 -7.75 19.45 -7.65 18.85 -7.6 17.55 M-4.6 25.4 Q-4.6 25.8 -4.2 26.1 L-3.3 26.35 -4.2 26.1 Q-4.6 25.8 -4.6 25.4 M-0.3 6.75 L1.0 5.75 -0.3 6.75" fill="#7e0101" fill-rule="evenodd" stroke="none"/>
    <path d="M10.3 -17.8 Q11.0 -18.15 10.55 -19.15 10.05 -20.15 10.5 -21.85 L11.0 -24.0 Q10.35 -25.75 8.5 -26.0 L6.5 -26.15 Q4.75 -26.4 3.3 -25.6 L2.45 -24.9 2.2 -24.4 2.35 -23.45 1.95 -23.0 1.1 -22.1 0.3 -21.6 -0.05 -20.7 1.3 -20.3 Q-0.35 -17.75 -1.5 -14.95 -3.4 -10.4 -3.5 -5.5 L-3.5 -0.3 -3.45 5.3 -3.7 9.95 Q-3.95 12.15 -5.05 14.0 -6.15 15.85 -7.6 17.55 M-10.9 23.4 L-10.8 24.1 -11.3 25.25 -11.8 26.8 -11.8 27.3 -11.6 27.8 Q-10.5 28.85 -9.1 28.35 L-4.75 26.8 -3.3 26.35 -4.2 26.1 Q-4.6 25.8 -4.6 25.4 M1.0 5.75 L1.15 5.6 Q3.2 3.4 3.3 0.3 3.4 -2.6 2.6 -5.45 2.05 -7.45 1.85 -9.5 1.55 -12.5 2.55 -15.15 3.1 -16.75 4.3 -17.7 L4.45 -17.8 4.05 -14.2 M1.1 5.7 L1.15 5.6 M1.0 5.75 L-0.3 6.75 M-3.3 26.35 Q-1.45 26.8 0.25 25.85 L1.25 25.2 Q2.35 24.55 2.95 23.4 L3.55 21.75 Q4.15 19.35 4.25 16.95 4.35 15.25 3.6 13.55 2.4 11.0 1.7 8.45 L1.1 5.7" fill="none" stroke="#000000" stroke-linecap="round" stroke-linejoin="round" stroke-width="0.05"/>
  </g>
</svg>
