<?xml version="1.0" encoding="UTF-8" standalone="no"?>
<svg xmlns:xlink="http://www.w3.org/1999/xlink" height="58.1px" width="19.45px" xmlns="http://www.w3.org/2000/svg">
  <g transform="matrix(1.0, 0.0, 0.0, 1.0, 0.0, 0.0)">
    <path d="M6.25 -18.75 L6.35 -19.6 5.95 -20.45 5.2 -19.75 Q1.15 -13.65 1.25 -5.85 L1.2 -4.4 1.2 3.75 0.85 4.2 -0.55 15.25 Q2.15 19.95 0.0 24.6 L-0.1 23.7 Q-0.45 21.7 -2.15 20.55 L-1.9 22.05 Q-1.0 29.4 -8.05 31.8 L-8.05 31.65 Q-5.2 28.95 -4.95 25.25 L-6.75 22.5 -5.25 22.0 -5.85 20.5 -9.1 19.65 Q-9.35 18.55 -8.45 18.15 0.15 15.35 -2.2 6.1 -6.5 -10.8 4.65 -23.4 L4.0 -25.2 Q9.2 -28.25 10.3 -22.85 L8.0 -21.55 8.4 -20.2 7.75 -18.85 6.35 -18.45 6.25 -18.75" fill="#b49a6e" fill-rule="evenodd" stroke="none"/>
    <path d="M-0.55 15.25 L0.85 4.2 1.2 3.75 1.2 -4.4 1.45 -4.4 2.15 -1.45 Q4.8 7.75 -0.55 15.25" fill="#ae8257" fill-rule="evenodd" stroke="none"/>
    <path d="M1.2 -4.4 L1.25 -5.85 Q1.15 -13.65 5.2 -19.75 L5.95 -20.45 6.35 -19.6 6.25 -18.75 6.3 -18.5 6.35 -18.45 7.75 -18.85 8.4 -20.2 8.0 -21.55 10.3 -22.85 Q9.2 -28.25 4.0 -25.2 L4.65 -23.4 Q-6.5 -10.8 -2.2 6.1 0.15 15.35 -8.45 18.15 -9.35 18.55 -9.1 19.65 L-5.85 20.5 -5.25 22.0 -6.75 22.5 -4.95 25.25 Q-5.2 28.95 -8.05 31.65 L-8.15 31.8 -8.05 31.8 Q-1.0 29.4 -1.9 22.05 L-2.15 20.55 Q-0.45 21.7 -0.1 23.7 L0.0 24.6 Q2.15 19.95 -0.55 15.25 L0.85 4.2 1.2 3.75 1.2 -4.4 M1.45 -4.4 L1.25 -5.85 M-0.55 15.25 Q4.8 7.75 2.15 -1.45 L1.45 -4.4" fill="none" stroke="#000000" stroke-linecap="round" stroke-linejoin="round" stroke-width="0.05"/>
  </g>
</svg>
