<?xml version="1.0" encoding="UTF-8" standalone="no"?>
<svg xmlns:xlink="http://www.w3.org/1999/xlink" height="55.65px" width="21.05px" xmlns="http://www.w3.org/2000/svg">
  <g transform="matrix(1.0, 0.0, 0.0, 1.0, 0.0, 0.0)">
    <path d="M1.15 -2.65 L2.25 -4.65 2.15 -5.65 2.55 -6.5 5.0 -4.45 Q4.45 -1.75 5.1 0.9 7.9 12.5 11.55 23.5 14.0 30.8 17.55 37.85 14.55 35.6 12.25 32.35 6.85 24.45 4.9 15.0 L1.15 -2.65" fill="#000000" fill-rule="evenodd" stroke="none"/>
    <path d="M5.0 -4.45 L2.55 -6.5 2.15 -5.65 2.25 -4.65 1.15 -2.65 -0.35 -3.45 Q-3.6 -5.95 -1.15 -9.55 L-1.75 -10.15 Q-5.1 -13.6 -2.0 -17.1 L-1.7 -17.4 0.7 -17.8 Q-2.05 -11.35 3.95 -7.2 5.0 -6.45 5.35 -5.25 L5.0 -4.45" fill="#7e0101" fill-rule="evenodd" stroke="none"/>
    <path d="M5.0 -4.45 L5.35 -5.25 Q5.0 -6.45 3.95 -7.2 -2.05 -11.35 0.7 -17.8 M-1.7 -17.4 L-2.0 -17.1 Q-5.1 -13.6 -1.75 -10.15 L-1.15 -9.55 Q-3.6 -5.95 -0.35 -3.45 L1.15 -2.65 M-2.0 -17.1 L-1.9 -17.35 -1.7 -17.4" fill="none" stroke="#000000" stroke-linecap="round" stroke-linejoin="round" stroke-width="0.05"/>
  </g>
</svg>
