<?xml version="1.0" encoding="UTF-8" standalone="no"?>
<svg xmlns:xlink="http://www.w3.org/1999/xlink" height="38.2px" width="10.55px" xmlns="http://www.w3.org/2000/svg">
  <g transform="matrix(1.0, 0.0, 0.0, 1.0, 0.0, 0.0)">
    <path d="M1.15 -10.35 L1.65 -10.45 5.7 -3.45 5.6 -2.7 3.35 -1.95 1.85 -2.55 1.45 -2.25 1.85 -2.55 3.35 -1.95 4.7 0.05 3.35 3.1 2.5 -0.3 Q0.5 0.25 -1.15 1.4 -2.15 2.15 -2.45 3.3 L-2.3 4.05 -2.75 4.85 Q-3.35 11.45 1.4 15.1 2.5 17.6 4.75 19.2 -6.95 14.05 -4.4 1.15 -3.7 -1.65 -1.2 -2.6 L-0.15 -1.7 1.3 -1.95 1.45 -2.25 1.2 -2.25 1.05 -3.05 -1.8 -9.1 -1.55 -9.15 -1.2 -9.4 -1.75 -9.35 Q-6.95 -15.25 -1.15 -19.0 L0.4 -17.35 -0.15 -16.75 Q-2.2 -13.45 1.15 -10.35 L0.0 -9.45 -1.2 -9.4 0.0 -9.45 1.15 -10.35" fill="#ae8257" fill-rule="evenodd" stroke="none"/>
    <path d="M3.35 3.1 L2.25 5.8 Q0.6 10.4 1.4 15.1 -3.35 11.45 -2.75 4.85 L-2.3 4.05 -2.45 3.3 Q-2.15 2.15 -1.15 1.4 0.5 0.25 2.5 -0.3 L3.35 3.1" fill="#d9bd96" fill-rule="evenodd" stroke="none"/>
    <path d="M3.35 -1.95 L5.6 -2.7 5.7 -3.45 1.65 -10.45 1.15 -10.35 0.0 -9.45 -1.2 -9.4 -1.55 -9.15 -1.75 -9.35 -1.8 -9.1 1.05 -3.05 1.2 -2.25 1.3 -1.95 1.45 -2.25 1.85 -2.55 3.35 -1.95 4.7 0.05 3.35 3.1 2.25 5.8 Q0.6 10.4 1.4 15.1 2.5 17.6 4.75 19.2 -6.95 14.05 -4.4 1.15 -3.7 -1.65 -1.2 -2.6 L-0.15 -1.7 1.3 -1.95 M1.15 -10.35 Q-2.2 -13.45 -0.15 -16.75 L0.4 -17.35 -1.15 -19.0 Q-6.95 -15.25 -1.75 -9.35 L-1.2 -9.4" fill="none" stroke="#000000" stroke-linecap="round" stroke-linejoin="round" stroke-width="0.05"/>
  </g>
</svg>
