<?xml version="1.0" encoding="UTF-8" standalone="no"?>
<svg xmlns:xlink="http://www.w3.org/1999/xlink" height="29.1px" width="37.45px" xmlns="http://www.w3.org/2000/svg">
  <g transform="matrix(1.0, 0.0, 0.0, 1.0, 0.0, 0.0)">
    <path d="M10.9 -5.85 Q14.55 -6.7 16.2 -9.65 L16.2 -10.2 18.3 -10.5 Q25.3 -9.45 24.55 -1.9 24.2 1.65 20.7 2.15 13.9 3.1 7.35 5.5 4.05 6.6 1.0 7.95 -3.8 10.1 -6.2 6.25 -8.35 6.85 -10.45 5.85 L-11.8 5.2 Q-13.15 1.9 -11.75 -1.5 L-11.55 -1.85 -11.95 -2.75 -12.4 -2.95 -12.85 -3.9 -12.75 -4.95 -12.65 -5.1 -11.7 -5.6 -10.8 -6.0 2.35 -4.8 Q6.7 -4.75 10.9 -5.85 M14.85 -3.95 Q11.3 -1.3 6.65 -1.3 L-7.1 -1.55 6.65 -1.3 Q11.3 -1.3 14.85 -3.95 M-2.5 2.9 L-5.1 4.0 -5.25 4.7 Q-5.45 5.65 -6.2 6.25 -5.45 5.65 -5.25 4.7 L-5.1 4.0 -2.5 2.9 M-2.8 1.0 L-4.8 0.75 -2.65 0.0 -4.65 -0.1 -2.65 0.0 -4.8 0.75 -2.8 1.0" fill="#7e0101" fill-rule="evenodd" stroke="none"/>
    <path d="M10.9 -5.85 L6.95 -5.6 Q7.85 -8.0 7.15 -10.4 L3.4 -10.15 3.4 -5.75 2.6 -5.3 1.2 -5.5 1.25 -7.6 0.2 -8.7 -1.3 -8.55 -1.5 -6.6 -2.1 -6.3 -3.7 -6.35 -3.5 -6.9 Q-3.2 -7.85 -3.55 -8.55 L-4.75 -8.9 Q-1.85 -13.25 -4.25 -17.55 L-4.75 -18.35 -4.5 -18.7 Q6.45 -21.9 17.75 -19.15 16.9 -14.7 18.3 -10.5 L16.2 -10.2 16.2 -9.65 Q14.55 -6.7 10.9 -5.85" fill="#000000" fill-rule="evenodd" stroke="none"/>
    <path d="M-4.75 -8.9 L-3.55 -8.55 Q-3.2 -7.85 -3.5 -6.9 L-3.7 -6.35 -2.1 -6.3 -1.5 -6.6 -1.3 -8.55 0.2 -8.7 1.25 -7.6 1.2 -5.5 2.6 -5.3 3.4 -5.75 3.4 -10.15 7.15 -10.4 Q7.85 -8.0 6.95 -5.6 L10.9 -5.85 Q6.7 -4.75 2.35 -4.8 L-10.8 -6.0 Q-11.2 -8.4 -10.2 -10.7 L-9.3 -11.95 -9.1 -12.05 -7.65 -11.55 -7.35 -10.05 -7.85 -6.5 -6.8 -6.0 -6.15 -7.75 -6.3 -8.3 -4.75 -8.9" fill="#d9bd96" fill-rule="evenodd" stroke="none"/>
    <path d="M-4.75 -8.9 L-3.55 -8.55 Q-3.2 -7.85 -3.5 -6.9 L-3.7 -6.35 -2.1 -6.3 -1.5 -6.6 -1.3 -8.55 0.2 -8.7 1.25 -7.6 1.2 -5.5 2.6 -5.3 3.4 -5.75 3.4 -10.15 7.15 -10.4 Q7.85 -8.0 6.95 -5.6 L10.9 -5.85 Q14.55 -6.7 16.2 -9.65 L16.2 -10.2 18.3 -10.5 Q16.9 -14.7 17.75 -19.15 6.45 -21.9 -4.5 -18.7 L-4.75 -18.35 -4.25 -17.55 Q-1.85 -13.25 -4.75 -8.9 L-6.3 -8.3 -6.15 -7.75 -6.8 -6.0 -7.85 -6.5 -7.35 -10.05 -7.65 -11.55 -9.1 -12.05 -9.3 -11.95 -10.2 -10.7 Q-11.2 -8.4 -10.8 -6.0 L2.35 -4.8 Q6.7 -4.75 10.9 -5.85 M-7.1 -1.55 L6.65 -1.3 Q11.3 -1.3 14.85 -3.95 M-6.2 6.25 Q-3.8 10.1 1.0 7.95 4.05 6.6 7.35 5.5 13.9 3.1 20.7 2.15 24.2 1.65 24.55 -1.9 25.3 -9.45 18.3 -10.5 M-6.2 6.25 Q-8.35 6.85 -10.45 5.85 L-11.8 5.2 Q-13.15 1.9 -11.75 -1.5 L-11.55 -1.85 -11.95 -2.75 -12.4 -2.95 -12.85 -3.9 -12.75 -4.95 -12.65 -5.1 -11.7 -5.6 -10.8 -6.0 M-4.65 -0.1 L-2.65 0.0 -4.8 0.75 -2.8 1.0 M-6.2 6.25 Q-5.45 5.65 -5.25 4.7 L-5.1 4.0 -2.5 2.9" fill="none" stroke="#000000" stroke-linecap="round" stroke-linejoin="round" stroke-width="0.05"/>
  </g>
</svg>
