<?xml version="1.0" encoding="UTF-8" standalone="no"?>
<svg xmlns:xlink="http://www.w3.org/1999/xlink" height="32.05px" width="36.4px" xmlns="http://www.w3.org/2000/svg">
  <g transform="matrix(1.0, 0.0, 0.0, 1.0, 0.0, 0.0)">
    <path d="M16.35 -9.15 L19.3 -9.25 18.15 -8.0 Q20.9 -7.5 22.95 -5.3 23.85 -4.35 24.25 -3.05 L24.25 -2.85 20.2 -3.6 Q22.3 0.65 19.65 4.25 18.5 5.9 16.7 6.05 L17.35 5.15 Q18.1 4.05 18.2 2.7 L18.25 2.1 18.05 1.75 16.95 1.1 15.55 0.7 Q12.65 4.2 8.25 4.75 6.75 5.0 5.3 5.7 L3.75 9.2 3.35 9.9 2.05 6.2 1.75 6.55 0.85 13.55 Q-0.75 12.3 -1.25 10.25 L-1.65 8.85 -2.5 6.05 -3.85 9.3 -4.25 8.95 Q-4.9 2.9 -10.1 -0.55 -11.55 -1.45 -11.35 -3.25 L-11.95 -4.25 Q-12.35 -5.2 -11.85 -6.05 L-11.0 -6.25 -11.45 -7.1 Q-11.15 -9.75 -9.25 -11.8 -9.95 -9.25 -9.35 -6.95 -8.25 -9.45 -6.8 -11.65 L-6.45 -11.95 Q-6.75 -9.1 -7.8 -6.7 -6.65 -6.95 -6.0 -7.95 -5.45 -8.8 -5.25 -9.9 L-4.95 -8.5 -5.3 -6.2 Q-2.15 -6.15 -2.65 -9.75 L-1.65 -10.5 Q-2.25 -7.8 -1.8 -5.2 0.55 -6.8 0.75 -9.3 L0.8 -9.25 1.0 -6.65 1.0 -4.9 Q2.25 -5.25 2.7 -6.65 L3.35 -9.15 4.15 -5.3 3.95 -4.9 7.3 -5.15 8.0 -5.95 7.55 -7.45 6.75 -8.9 8.5 -7.4 Q9.1 -6.9 9.3 -6.1 L10.05 -5.6 Q10.35 -6.75 10.8 -7.8 L11.25 -8.4 11.35 -7.1 11.25 -5.8 12.5 -6.5 Q13.7 -7.2 13.45 -8.45 L13.85 -7.95 14.0 -6.15 15.35 -6.55 15.4 -7.05 15.7 -8.2 16.35 -9.15 M-8.4 -2.7 Q-7.5 0.1 -4.6 0.8 L-2.8 1.25 -3.3 2.9 Q-4.35 5.85 -4.25 8.95 -4.35 5.85 -3.3 2.9 L-2.8 1.25 -4.6 0.8 Q-7.5 0.1 -8.4 -2.7 M0.55 12.8 L-0.6 4.3 -0.7 1.4 2.15 1.3 3.25 4.25 Q4.25 6.55 3.75 9.2 4.25 6.55 3.25 4.25 L2.15 1.3 -0.7 1.4 -0.6 4.3 0.55 12.8 M1.75 -0.4 L-0.5 -0.55 -0.7 1.4 -2.8 1.25 -2.45 -1.25 -5.15 -2.6 -2.45 -1.25 -2.8 1.25 -0.7 1.4 -0.5 -0.55 1.75 -0.4 1.8 -2.3 1.75 -0.4 4.05 -1.1 5.55 -1.7 4.05 -1.1 1.75 -0.4 2.15 1.3 Q6.3 0.85 9.85 -1.35 L10.85 -2.0 9.85 -1.35 Q6.3 0.85 2.15 1.3 L1.75 -0.4 M-0.15 -2.7 L-0.5 -0.55 -2.45 -1.25 -2.45 -3.35 -2.45 -1.25 -0.5 -0.55 -0.15 -2.7" fill="#b49a6e" fill-rule="evenodd" stroke="none"/>
    <path d="M-4.95 -8.5 Q-3.4 -10.2 -3.75 -12.55 L-4.2 -18.05 Q5.15 -19.15 14.9 -17.7 L16.4 -17.5 Q16.05 -16.3 16.0 -13.5 15.9 -10.75 16.15 -9.5 L16.35 -9.15 15.7 -8.2 15.4 -7.05 15.35 -6.55 14.0 -6.15 13.85 -7.95 13.45 -8.45 Q13.7 -7.2 12.5 -6.5 L11.25 -5.8 11.35 -7.1 11.25 -8.4 10.8 -7.8 Q10.35 -6.75 10.05 -5.6 L9.3 -6.1 Q9.1 -6.9 8.5 -7.4 L6.75 -8.9 7.55 -7.45 8.0 -5.95 7.3 -5.15 3.95 -4.9 4.15 -5.3 3.35 -9.15 2.7 -6.65 Q2.25 -5.25 1.0 -4.9 L1.0 -6.65 0.8 -9.25 0.75 -9.35 0.75 -9.3 Q0.55 -6.8 -1.8 -5.2 -2.25 -7.8 -1.65 -10.5 L-2.65 -9.75 Q-2.15 -6.15 -5.3 -6.2 L-4.95 -8.5" fill="url(#gradient0)" fill-rule="evenodd" stroke="none"/>
    <path d="M-4.95 -8.5 Q-3.4 -10.2 -3.75 -12.55 L-4.2 -18.05 Q5.15 -19.15 14.9 -17.7 L16.4 -17.5 Q16.05 -16.3 16.0 -13.5 15.9 -10.75 16.15 -9.5 L16.35 -9.15 19.3 -9.25 18.15 -8.0 Q20.9 -7.5 22.95 -5.3 23.85 -4.35 24.25 -3.05 L24.25 -2.85 20.2 -3.6 Q22.3 0.65 19.65 4.25 18.5 5.9 16.7 6.05 L17.35 5.15 Q18.1 4.05 18.2 2.7 L18.25 2.1 18.05 1.75 16.95 1.1 15.55 0.7 Q12.65 4.2 8.25 4.75 6.75 5.0 5.3 5.7 L3.75 9.2 3.35 9.9 2.05 6.2 1.75 6.55 0.85 13.55 Q-0.75 12.3 -1.25 10.25 L-1.65 8.85 -2.5 6.05 -3.85 9.3 -4.25 8.95 Q-4.9 2.9 -10.1 -0.55 -11.55 -1.45 -11.35 -3.25 L-11.95 -4.25 Q-12.35 -5.2 -11.85 -6.05 L-11.0 -6.25 -11.45 -7.1 Q-11.15 -9.75 -9.25 -11.8 -9.95 -9.25 -9.35 -6.95 -8.25 -9.45 -6.8 -11.65 L-6.45 -11.95 Q-6.75 -9.1 -7.8 -6.7 -6.65 -6.95 -6.0 -7.95 -5.45 -8.8 -5.25 -9.9 L-4.95 -8.5 -5.3 -6.2 Q-2.15 -6.15 -2.65 -9.75 L-1.65 -10.5 Q-2.25 -7.8 -1.8 -5.2 0.55 -6.8 0.75 -9.3 L0.75 -9.35 0.8 -9.25 1.0 -6.65 1.0 -4.9 Q2.25 -5.25 2.7 -6.65 L3.35 -9.15 4.15 -5.3 3.95 -4.9 7.3 -5.15 8.0 -5.95 7.55 -7.45 6.75 -8.9 8.5 -7.4 Q9.1 -6.9 9.3 -6.1 L10.05 -5.6 Q10.35 -6.75 10.8 -7.8 L11.25 -8.4 11.35 -7.1 11.25 -5.8 12.5 -6.5 Q13.7 -7.2 13.45 -8.45 L13.85 -7.95 14.0 -6.15 15.35 -6.55 15.4 -7.05 15.7 -8.2 16.35 -9.15" fill="none" stroke="#000000" stroke-linecap="round" stroke-linejoin="round" stroke-width="0.05"/>
    <path d="M1.8 -2.3 L1.75 -0.4 4.05 -1.1 5.55 -1.7 M1.75 -0.4 L2.15 1.3 Q6.3 0.85 9.85 -1.35 L10.85 -2.0 M-2.45 -3.35 L-2.45 -1.25 -0.5 -0.55 -0.15 -2.7 M-5.15 -2.6 L-2.45 -1.25 -2.8 1.25 -0.7 1.4 -0.5 -0.55 1.75 -0.4 M3.75 9.2 Q4.25 6.55 3.25 4.25 L2.15 1.3 -0.7 1.4 -0.6 4.3 0.55 12.8 M-4.25 8.95 Q-4.35 5.85 -3.3 2.9 L-2.8 1.25 -4.6 0.8 Q-7.5 0.1 -8.4 -2.7" fill="none" stroke="#ff0000" stroke-linecap="round" stroke-linejoin="round" stroke-width="0.05"/>
  </g>
  <defs>
    <radialGradient cx="0" cy="0" gradientTransform="matrix(0.0101, 0.0, 0.0, 0.015, 5.25, -9.05)" gradientUnits="userSpaceOnUse" id="gradient0" r="819.2" spreadMethod="pad">
      <stop offset="0.0" stop-color="#bc2312"/>
      <stop offset="0.9921568627450981" stop-color="#3d2312"/>
    </radialGradient>
  </defs>
</svg>
