<?xml version="1.0" encoding="UTF-8" standalone="no"?>
<svg xmlns:xlink="http://www.w3.org/1999/xlink" height="45.85px" width="38.15px" xmlns="http://www.w3.org/2000/svg">
  <g transform="matrix(1.0, 0.0, 0.0, 1.0, 0.0, 0.0)">
    <path d="M5.7 4.35 L5.6 4.45 5.5 4.6 5.3 5.1 5.25 5.55 Q5.2 6.15 5.45 6.4 L5.6 6.85 5.7 7.15 6.45 8.35 6.65 8.6 6.95 8.95 8.45 11.45 Q9.25 12.9 8.85 14.5 L8.75 14.75 8.6 15.1 7.75 16.25 7.6 16.4 6.45 17.05 5.7 17.35 5.1 17.55 3.65 17.7 3.2 17.7 3.65 17.35 4.55 16.8 5.7 15.65 Q6.6 14.6 6.75 13.15 L6.65 11.85 6.55 11.55 6.25 10.7 6.1 10.45 4.35 8.55 4.0 8.15 3.6 7.8 2.35 6.45 2.25 6.3 2.0 5.9 Q1.6 5.25 1.65 4.4 L1.7 3.95 1.95 2.45 2.05 2.2 2.25 1.8 2.5 1.45 2.6 1.35 2.85 1.25 3.35 0.95 3.95 0.75 4.15 0.65 4.5 0.6 4.8 0.65 Q5.55 0.55 5.7 1.0 5.9 1.5 5.65 1.9 L5.6 2.05 5.5 2.25 Q5.15 2.65 5.3 3.5 L5.35 3.8 5.7 4.35 M-1.05 1.65 L-0.8 2.2 -0.7 2.4 Q-0.4 2.65 -0.4 3.2 -0.4 4.7 -0.95 6.0 L-1.0 6.15 -1.25 6.65 -1.4 6.9 Q-1.9 7.95 -2.65 8.4 L-3.6 9.0 -4.9 10.05 -5.65 10.75 -5.85 11.0 -6.3 11.6 -7.1 12.7 -7.4 13.75 -7.45 14.5 -7.45 15.05 -6.55 16.8 -4.75 18.2 -4.5 18.3 -4.55 18.4 -5.0 18.35 -5.3 18.25 -5.75 18.05 -7.6 16.8 -8.6 15.8 Q-9.2 14.95 -9.25 13.9 -9.35 12.5 -8.9 11.25 L-8.85 11.1 -8.1 9.65 -6.1 6.8 Q-5.3 5.9 -4.95 4.65 -4.8 4.15 -4.9 3.5 L-5.4 2.55 -6.35 1.95 -6.35 1.9 -6.2 1.8 -5.7 1.3 -4.7 0.4 Q-4.15 0.1 -3.4 0.4 L-3.1 0.5 Q-2.6 0.55 -2.2 0.85 L-2.05 1.0 -1.2 1.55 -1.15 1.55 -1.05 1.65" fill="#ae8257" fill-rule="evenodd" stroke="none"/>
    <path d="M6.5 -21.3 L6.35 -21.9 6.3 -22.15 6.05 -24.05 5.95 -24.65 5.9 -24.95 5.8 -25.25 5.7 -25.7 6.15 -25.6 6.3 -25.5 Q7.55 -24.75 8.1 -23.75 L8.2 -23.6 Q8.95 -22.55 9.5 -21.1 L9.55 -21.0 9.7 -20.1 9.75 -19.95 9.95 -18.65 10.05 -18.0 10.1 -17.75 10.05 -15.4 10.0 -15.25 9.95 -14.55 9.8 -13.5 8.9 -11.3 Q8.6 -10.75 9.0 -10.05 9.1 -9.8 9.5 -9.8 L9.65 -9.8 Q10.15 -9.8 10.25 -10.3 L10.35 -11.0 10.45 -11.45 Q10.5 -11.85 11.15 -11.8 11.55 -11.8 11.45 -11.3 11.35 -10.8 11.5 -10.5 L11.6 -10.3 Q11.7 -9.8 12.3 -10.15 L12.7 -10.7 12.8 -11.15 12.85 -11.45 12.8 -11.6 12.65 -12.2 Q12.55 -12.65 12.7 -12.95 L12.8 -13.2 Q12.9 -13.65 13.6 -13.6 L13.9 -13.65 14.5 -13.85 14.65 -13.9 Q15.1 -13.95 15.2 -14.25 L15.2 -14.65 15.1 -14.75 15.1 -14.8 16.4 -14.9 16.7 -14.95 18.15 -14.9 18.3 -14.8 18.0 -14.25 Q17.7 -13.95 18.15 -13.75 L18.25 -13.65 18.6 -13.4 18.9 -13.4 19.65 -13.35 20.65 -13.15 20.8 -13.1 21.85 -12.5 22.9 -11.65 24.15 -10.65 24.7 -10.1 24.95 -9.25 25.0 -9.1 25.05 -7.95 Q24.6 -9.05 23.6 -9.55 L22.15 -9.9 22.0 -9.95 21.25 -10.0 Q20.45 -10.0 20.05 -9.55 19.85 -9.3 20.0 -8.95 20.25 -8.35 21.1 -8.1 L21.4 -7.9 Q22.25 -7.25 22.45 -6.05 L22.5 -5.6 22.6 -5.15 22.65 -4.85 22.65 -3.4 22.45 -2.75 22.35 -2.5 Q21.95 -1.15 21.2 0.0 L20.2 1.3 19.65 1.6 20.05 0.55 20.15 0.15 20.4 -1.05 20.45 -1.35 20.55 -2.05 20.45 -2.7 20.3 -2.95 Q20.05 -3.5 19.2 -3.55 L18.25 -3.45 18.0 -3.35 Q16.95 -3.15 16.8 -2.2 L16.8 -1.95 16.8 -0.6 16.7 0.15 16.25 0.85 16.1 1.0 Q15.5 1.85 14.35 2.3 L13.6 2.6 14.15 1.45 14.25 1.0 14.3 0.7 Q14.3 0.3 14.45 0.1 L14.45 -0.15 14.35 -0.3 14.0 -0.75 13.9 -0.9 Q13.45 -1.3 12.75 -1.1 L11.55 -0.6 10.6 0.05 9.95 0.7 8.65 2.05 Q8.0 2.65 7.0 2.95 L6.9 3.05 6.5 3.75 6.3 3.95 Q6.15 3.7 5.95 4.1 L5.85 4.25 5.7 4.35 5.35 3.8 5.3 3.5 Q5.15 2.65 5.5 2.25 L5.6 2.05 5.65 1.9 Q5.9 1.5 5.7 1.0 5.55 0.55 4.8 0.65 L4.5 0.6 4.15 0.65 3.95 0.75 3.35 0.95 2.85 1.25 2.6 1.35 2.5 1.45 2.25 1.8 2.05 1.8 1.9 1.85 1.15 1.85 0.85 1.8 -0.6 1.8 Q-0.9 1.85 -1.0 1.65 L-1.05 1.65 -1.05 1.6 -1.15 1.55 -1.2 1.55 -2.05 1.0 -2.2 0.85 Q-2.6 0.55 -3.1 0.5 L-3.4 0.4 Q-4.15 0.1 -4.7 0.4 L-5.7 1.3 -6.2 1.8 -6.35 1.9 -6.35 1.95 -6.8 1.8 -7.0 1.55 -7.05 1.3 Q-7.2 0.5 -6.8 0.1 L-6.75 -0.15 Q-6.8 -0.65 -7.2 -0.8 L-7.35 -0.9 Q-7.9 -1.7 -8.95 -2.25 L-9.1 -2.35 -10.15 -3.4 -10.5 -4.0 -10.6 -4.1 Q-10.9 -4.45 -10.9 -5.15 L-10.95 -5.3 -11.15 -6.45 Q-11.1 -7.55 -11.75 -7.95 L-11.9 -8.1 -13.1 -9.4 -12.5 -9.75 -12.1 -9.9 -11.9 -10.05 -11.65 -9.9 -11.95 -11.0 -12.0 -11.45 -12.15 -12.9 -12.35 -15.85 -12.3 -17.0 -12.25 -17.45 -12.15 -17.9 -12.1 -18.2 -11.55 -21.0 -11.0 -22.3 -10.7 -23.05 -10.6 -23.3 -10.0 -24.5 -9.85 -24.8 -8.65 -26.4 -7.65 -27.1 -7.3 -27.35 -7.05 -27.4 -7.1 -27.0 -7.15 -26.55 Q-7.45 -24.95 -7.9 -23.45 L-7.95 -23.05 -8.05 -21.85 -8.1 -21.4 -8.2 -19.65 -8.45 -16.85 -8.25 -13.65 -8.2 -13.35 -8.15 -13.2 -7.95 -12.2 -7.6 -11.15 -7.5 -11.0 -7.05 -10.4 Q-6.35 -10.65 -6.45 -11.6 -6.55 -12.5 -6.2 -13.2 L-5.55 -14.2 -5.35 -14.45 -4.85 -14.95 -4.25 -15.25 -4.35 -14.65 -4.5 -14.05 -4.9 -12.75 -4.95 -12.6 -5.05 -11.9 -5.0 -11.6 -4.9 -11.5 -4.8 -11.3 -4.75 -11.15 Q-4.35 -10.4 -3.7 -10.15 L-3.1 -10.05 -2.95 -10.15 Q-2.7 -10.3 -2.85 -10.85 L-2.9 -11.0 Q-3.05 -11.8 -2.7 -12.25 L-1.85 -13.35 -1.3 -14.05 -1.1 -14.3 -0.2 -14.25 Q-0.1 -13.85 -0.3 -13.65 -0.9 -13.15 -1.1 -12.35 L-1.2 -12.2 Q-1.7 -11.35 -1.25 -10.65 L-1.15 -10.4 Q-1.0 -9.8 -0.6 -9.65 L-0.45 -9.6 -0.05 -9.45 0.15 -9.25 0.6 -10.0 0.7 -10.15 0.9 -11.15 0.9 -12.35 Q0.95 -12.8 1.15 -13.05 L2.0 -14.05 2.2 -14.15 2.35 -14.2 2.6 -14.25 Q2.95 -14.2 2.65 -13.9 L2.55 -13.65 2.05 -12.05 Q1.8 -11.4 1.8 -10.55 L1.75 -10.4 Q1.4 -10.25 1.85 -9.8 L2.05 -9.55 Q2.3 -9.1 3.2 -9.2 3.9 -9.3 4.2 -9.7 4.5 -10.15 4.4 -10.7 4.3 -11.45 4.5 -11.9 L4.6 -12.2 Q4.7 -12.85 4.95 -13.2 L5.45 -14.4 5.55 -14.65 6.35 -17.0 6.5 -18.5 6.5 -21.25 6.5 -21.3" fill="#b49a6e" fill-rule="evenodd" stroke="none"/>
    <path d="M9.55 -21.0 Q10.5 -20.5 11.85 -20.25 L14.8 -20.15 15.2 -20.0 15.4 -20.0 Q15.85 -20.05 15.85 -19.65 L15.95 -19.5 16.25 -18.5 16.3 -18.2 16.45 -16.6 16.4 -14.9 15.1 -14.8 14.95 -14.8 15.1 -14.75 15.2 -14.65 15.2 -14.25 Q15.1 -13.95 14.65 -13.9 L14.5 -13.85 13.9 -13.65 13.6 -13.6 Q12.9 -13.65 12.8 -13.2 L12.7 -12.95 Q12.55 -12.65 12.65 -12.2 L12.8 -11.6 12.85 -11.45 12.8 -11.15 12.7 -10.7 12.3 -10.15 Q11.7 -9.8 11.6 -10.3 L11.5 -10.5 Q11.35 -10.8 11.45 -11.3 11.55 -11.8 11.15 -11.8 10.5 -11.85 10.45 -11.45 L10.35 -11.0 10.25 -10.3 Q10.15 -9.8 9.65 -9.8 L9.5 -9.8 Q9.1 -9.8 9.0 -10.05 8.6 -10.75 8.9 -11.3 L9.8 -13.5 9.95 -14.55 10.0 -15.25 10.05 -15.4 10.1 -17.75 10.05 -18.0 9.95 -18.65 9.75 -19.95 9.7 -20.1 9.55 -21.0 M-4.95 -11.6 L-4.1 -12.3 -3.85 -12.5 Q-2.8 -13.3 -2.65 -14.4 L-2.55 -14.65 -2.45 -15.1 -2.4 -15.25 Q-2.2 -15.95 -2.15 -16.75 L-2.15 -17.45 -2.15 -17.75 -2.35 -19.2 -2.45 -19.5 -2.7 -20.7 -2.65 -20.85 Q-2.3 -21.3 -1.5 -21.4 L-1.2 -21.45 -1.05 -21.5 0.4 -21.75 0.7 -21.8 1.6 -21.9 1.9 -21.95 3.35 -22.05 5.15 -21.75 5.4 -21.65 5.7 -21.55 6.45 -21.35 6.5 -21.25 6.5 -18.5 6.35 -17.0 5.55 -14.65 5.45 -14.4 4.95 -13.2 Q4.7 -12.85 4.6 -12.2 L4.5 -11.9 Q4.3 -11.45 4.4 -10.7 4.5 -10.15 4.2 -9.7 3.9 -9.3 3.2 -9.2 2.3 -9.1 2.05 -9.55 L1.85 -9.8 Q1.4 -10.25 1.75 -10.4 L1.8 -10.55 Q1.8 -11.4 2.05 -12.05 L2.55 -13.65 2.65 -13.9 Q2.95 -14.2 2.6 -14.25 L2.35 -14.2 2.2 -14.15 2.0 -14.05 1.15 -13.05 Q0.95 -12.8 0.9 -12.35 L0.9 -11.15 0.7 -10.15 0.6 -10.0 0.15 -9.25 -0.05 -9.45 -0.45 -9.6 -0.6 -9.65 Q-1.0 -9.8 -1.15 -10.4 L-1.25 -10.65 Q-1.7 -11.35 -1.2 -12.2 L-1.1 -12.35 Q-0.9 -13.15 -0.3 -13.65 -0.1 -13.85 -0.2 -14.25 L-1.1 -14.3 -1.3 -14.05 -1.85 -13.35 -2.7 -12.25 Q-3.05 -11.8 -2.9 -11.0 L-2.85 -10.85 Q-2.7 -10.3 -2.95 -10.15 L-3.1 -10.05 -3.7 -10.15 Q-4.35 -10.4 -4.75 -11.15 L-4.8 -11.3 -4.9 -11.5 -4.95 -11.6" fill="#3d2312" fill-rule="evenodd" stroke="none"/>
    <path d="M6.5 -21.3 L6.35 -21.9 6.3 -22.15 6.05 -24.05 5.95 -24.65 5.9 -24.95 5.8 -25.25 5.7 -25.7 6.15 -25.6 6.3 -25.5 Q7.55 -24.75 8.1 -23.75 L8.2 -23.6 Q8.95 -22.55 9.5 -21.1 L9.55 -21.0 Q10.5 -20.5 11.85 -20.25 L14.8 -20.15 15.2 -20.0 15.4 -20.0 Q15.85 -20.05 15.85 -19.65 L15.95 -19.5 16.25 -18.5 16.3 -18.2 16.45 -16.6 16.4 -14.9 16.7 -14.95 18.15 -14.9 18.3 -14.8 18.0 -14.25 Q17.7 -13.95 18.15 -13.75 L18.25 -13.65 18.6 -13.4 18.9 -13.4 19.65 -13.35 20.65 -13.15 20.8 -13.1 21.85 -12.5 22.9 -11.65 24.15 -10.65 24.7 -10.1 24.95 -9.25 25.0 -9.1 25.05 -7.95 Q24.6 -9.05 23.6 -9.55 L22.15 -9.9 22.0 -9.95 21.25 -10.0 Q20.45 -10.0 20.05 -9.55 19.85 -9.3 20.0 -8.95 20.25 -8.35 21.1 -8.1 L21.4 -7.9 Q22.25 -7.25 22.45 -6.05 L22.5 -5.6 22.6 -5.15 22.65 -4.85 22.65 -3.4 22.45 -2.75 22.35 -2.5 Q21.95 -1.15 21.2 0.0 L20.2 1.3 19.65 1.6 20.05 0.55 20.15 0.15 20.4 -1.05 20.45 -1.35 20.55 -2.05 20.45 -2.7 20.3 -2.95 Q20.05 -3.5 19.2 -3.55 L18.25 -3.45 18.0 -3.35 Q16.95 -3.15 16.8 -2.2 L16.8 -1.95 16.8 -0.6 16.7 0.15 16.25 0.85 16.1 1.0 Q15.5 1.85 14.35 2.3 L13.6 2.6 14.15 1.45 14.25 1.0 14.3 0.7 Q14.3 0.3 14.45 0.1 L14.45 -0.15 14.35 -0.3 14.0 -0.75 13.9 -0.9 Q13.45 -1.3 12.75 -1.1 L11.55 -0.6 10.6 0.05 9.95 0.7 8.65 2.05 Q8.0 2.65 7.0 2.95 L6.9 3.05 6.5 3.75 6.3 3.95 6.25 3.95 5.85 4.5 5.7 4.35 5.6 4.45 5.5 4.6 5.3 5.1 5.25 5.55 Q5.2 6.15 5.45 6.4 L5.6 6.85 5.7 7.15 6.45 8.35 6.65 8.6 6.95 8.95 8.45 11.45 Q9.25 12.9 8.85 14.5 L8.75 14.75 8.6 15.1 7.75 16.25 7.6 16.4 6.45 17.05 5.7 17.35 5.1 17.55 3.65 17.7 3.2 17.7 3.65 17.35 4.55 16.8 5.7 15.65 Q6.6 14.6 6.75 13.15 L6.65 11.85 6.55 11.55 6.25 10.7 6.1 10.45 4.35 8.55 4.0 8.15 3.6 7.8 2.35 6.45 2.25 6.3 2.0 5.9 Q1.6 5.25 1.65 4.4 L1.7 3.95 1.95 2.45 2.05 2.2 2.25 1.8 2.05 1.8 1.9 1.85 1.15 1.85 0.85 1.8 -0.6 1.8 Q-0.9 1.85 -1.0 1.65 L-1.05 1.65 -0.8 2.2 -0.7 2.4 Q-0.4 2.65 -0.4 3.2 -0.4 4.7 -0.95 6.0 L-1.0 6.15 -1.25 6.65 -1.4 6.9 Q-1.9 7.95 -2.65 8.4 L-3.6 9.0 -4.9 10.05 -5.65 10.75 -5.85 11.0 -6.3 11.6 -7.1 12.7 -7.4 13.75 -7.45 14.5 -7.45 15.05 -6.55 16.8 -4.75 18.2 -4.5 18.3 -4.35 18.35 -4.25 18.45 -4.55 18.4 -5.0 18.35 -5.3 18.25 -5.75 18.05 -7.6 16.8 -8.6 15.8 Q-9.2 14.95 -9.25 13.9 -9.35 12.5 -8.9 11.25 L-8.85 11.1 -8.1 9.65 -6.1 6.8 Q-5.3 5.9 -4.95 4.65 -4.8 4.15 -4.9 3.5 L-5.4 2.55 -6.35 1.95 -6.8 1.8 -7.0 1.55 -7.05 1.3 Q-7.2 0.5 -6.8 0.1 L-6.75 -0.15 Q-6.8 -0.65 -7.2 -0.8 L-7.35 -0.9 Q-7.9 -1.7 -8.95 -2.25 L-9.1 -2.35 -10.15 -3.4 -10.5 -4.0 -10.6 -4.1 Q-10.9 -4.45 -10.9 -5.15 L-10.95 -5.3 -11.15 -6.45 Q-11.1 -7.55 -11.75 -7.95 L-11.9 -8.1 -13.1 -9.4 -12.5 -9.75 -12.1 -9.9 -11.9 -10.05 -11.65 -9.9 -11.95 -11.0 -12.0 -11.45 -12.15 -12.9 -12.35 -15.85 -12.3 -17.0 -12.25 -17.45 -12.15 -17.9 -12.1 -18.2 -11.55 -21.0 -11.0 -22.3 -10.7 -23.05 -10.6 -23.3 -10.0 -24.5 -9.85 -24.8 -8.65 -26.4 -7.65 -27.1 -7.3 -27.35 -7.05 -27.4 -7.1 -27.0 -7.15 -26.55 Q-7.45 -24.95 -7.9 -23.45 L-7.95 -23.05 -8.05 -21.85 -8.1 -21.4 -8.2 -19.65 -8.45 -16.85 -8.25 -13.65 -8.2 -13.35 -8.15 -13.2 -7.95 -12.2 -7.6 -11.15 -7.5 -11.0 -7.05 -10.4 Q-6.35 -10.65 -6.45 -11.6 -6.55 -12.5 -6.2 -13.2 L-5.55 -14.2 -5.35 -14.45 -4.85 -14.95 -4.25 -15.25 -4.35 -14.65 -4.5 -14.05 -4.9 -12.75 -4.95 -12.6 -5.05 -11.9 -5.0 -11.6 -4.95 -11.6 -4.1 -12.3 -3.85 -12.5 Q-2.8 -13.3 -2.65 -14.4 L-2.55 -14.65 -2.45 -15.1 -2.4 -15.25 Q-2.2 -15.95 -2.15 -16.75 L-2.15 -17.45 -2.15 -17.75 -2.35 -19.2 -2.45 -19.5 -2.7 -20.7 -2.65 -20.85 Q-2.3 -21.3 -1.5 -21.4 L-1.2 -21.45 -1.05 -21.5 0.4 -21.75 0.7 -21.8 1.6 -21.9 1.9 -21.95 3.35 -22.05 5.15 -21.75 5.4 -21.65 5.7 -21.55 6.45 -21.35 6.5 -21.3 6.5 -21.25 6.5 -18.5 6.35 -17.0 5.55 -14.65 5.45 -14.4 4.95 -13.2 Q4.7 -12.85 4.6 -12.2 L4.5 -11.9 Q4.3 -11.45 4.4 -10.7 4.5 -10.15 4.2 -9.7 3.9 -9.3 3.2 -9.2 2.3 -9.1 2.05 -9.55 L1.85 -9.8 Q1.4 -10.25 1.75 -10.4 L1.8 -10.55 Q1.8 -11.4 2.05 -12.05 L2.55 -13.65 2.65 -13.9 Q2.95 -14.2 2.6 -14.25 L2.35 -14.2 2.2 -14.15 2.0 -14.05 1.15 -13.05 Q0.95 -12.8 0.9 -12.35 L0.9 -11.15 0.7 -10.15 0.6 -10.0 0.15 -9.25 -0.05 -9.45 -0.45 -9.6 -0.6 -9.65 Q-1.0 -9.8 -1.15 -10.4 L-1.25 -10.65 Q-1.7 -11.35 -1.2 -12.2 L-1.1 -12.35 Q-0.9 -13.15 -0.3 -13.65 -0.1 -13.85 -0.2 -14.25 L-1.1 -14.3 -1.3 -14.05 -1.85 -13.35 -2.7 -12.25 Q-3.05 -11.8 -2.9 -11.0 L-2.85 -10.85 Q-2.7 -10.3 -2.95 -10.15 L-3.1 -10.05 -3.7 -10.15 Q-4.35 -10.4 -4.75 -11.15 L-4.8 -11.3 -4.9 -11.5 -5.0 -11.6 M15.1 -14.75 L15.2 -14.65 15.2 -14.25 Q15.1 -13.95 14.65 -13.9 L14.5 -13.85 13.9 -13.65 13.6 -13.6 Q12.9 -13.65 12.8 -13.2 L12.7 -12.95 Q12.55 -12.65 12.65 -12.2 L12.8 -11.6 12.85 -11.45 12.8 -11.15 12.7 -10.7 12.3 -10.15 Q11.7 -9.8 11.6 -10.3 L11.5 -10.5 Q11.35 -10.8 11.45 -11.3 11.55 -11.8 11.15 -11.8 10.5 -11.85 10.45 -11.45 L10.35 -11.0 10.25 -10.3 Q10.15 -9.8 9.65 -9.8 L9.5 -9.8 Q9.1 -9.8 9.0 -10.05 8.6 -10.75 8.9 -11.3 L9.8 -13.5 9.95 -14.55 10.0 -15.25 10.05 -15.4 10.1 -17.75 10.05 -18.0 9.95 -18.65 9.75 -19.95 9.7 -20.1 9.55 -21.0 M15.1 -14.75 L14.95 -14.8 15.1 -14.8 16.4 -14.9 M5.7 4.35 L5.35 3.8 5.3 3.5 Q5.15 2.65 5.5 2.25 L5.6 2.05 5.65 1.9 Q5.9 1.5 5.7 1.0 5.55 0.55 4.8 0.65 L4.5 0.6 4.15 0.65 3.95 0.75 3.35 0.95 2.85 1.25 2.6 1.35 2.5 1.45 2.25 1.8 M5.7 4.35 L5.85 4.25 5.95 4.1 Q6.15 3.7 6.3 3.95 M-1.15 1.55 L-1.2 1.55 -2.05 1.0 -2.2 0.85 Q-2.6 0.55 -3.1 0.5 L-3.4 0.4 Q-4.15 0.1 -4.7 0.4 L-5.7 1.3 -6.2 1.8 -6.35 1.9 -6.35 1.95 M-1.05 1.65 L-1.15 1.55 -1.05 1.6 -1.05 1.65 Z" fill="none" stroke="#000000" stroke-linecap="round" stroke-linejoin="round" stroke-width="0.05"/>
  </g>
</svg>
