<?xml version="1.0" encoding="UTF-8" standalone="no"?>
<svg xmlns:xlink="http://www.w3.org/1999/xlink" height="46.65px" width="55.2px" xmlns="http://www.w3.org/2000/svg">
  <g transform="matrix(1.0, 0.0, 0.0, 1.0, 0.0, 0.0)">
    <path d="M8.95 4.15 L9.0 4.2 10.15 6.25 11.7 5.9 Q14.65 5.0 17.45 5.0 L17.15 5.4 17.6 5.0 19.35 5.55 Q16.85 7.7 13.8 9.35 L16.4 9.45 20.7 9.4 21.1 9.95 17.65 11.25 14.8 12.4 Q14.4 12.6 14.1 12.9 L14.25 14.6 Q13.15 15.95 11.45 16.1 11.7 14.75 10.9 13.6 L7.9 14.05 8.3 13.6 8.05 11.9 Q7.3 11.85 6.85 12.3 L6.15 13.2 5.5 13.4 4.85 12.2 4.0 12.45 3.5 14.65 3.15 15.5 Q2.3 17.0 0.65 16.75 L1.35 12.75 0.9 12.1 0.25 11.85 -0.5 13.3 -1.2 13.5 -1.3 13.2 -1.4 11.95 -2.55 11.8 -3.15 13.95 -3.8 14.45 -4.4 14.4 -5.9 11.65 -7.9 16.4 -8.6 15.15 Q-9.45 13.2 -8.8 11.15 L-9.4 11.0 -11.5 10.1 -11.05 8.1 -8.85 5.65 -7.7 4.45 -5.85 3.9 -4.65 4.35 Q-3.85 3.1 -3.9 1.55 L-3.85 -2.2 -3.3 -4.35 -3.0 -4.45 -2.7 -3.9 -2.0 -1.5 Q-1.8 -0.65 -1.2 0.0 -1.55 -3.15 0.9 -5.3 L1.55 -0.85 Q1.65 0.0 2.5 -0.25 2.75 -2.75 4.6 -4.6 L5.05 -4.45 5.35 -4.3 5.55 -3.95 5.4 -0.3 4.75 4.35 5.8 4.5 6.9 4.7 7.0 4.25 8.0 3.8 8.95 4.15 M2.85 3.65 L2.95 0.15 1.0 2.65 1.05 0.7 0.75 0.3 -1.05 3.2 Q-0.9 1.9 -1.6 1.0 L-2.45 0.05 -3.5 5.15 -2.45 0.05 -1.6 1.0 Q-0.9 1.9 -1.05 3.2 L0.75 0.3 1.05 0.7 1.0 2.65 2.95 0.15 2.85 3.65 M8.95 7.95 Q8.2 7.05 7.2 7.0 L2.3 7.45 -0.9 9.1 Q2.4 10.95 9.0 9.45 L8.95 7.95 M-9.85 7.05 L-10.25 8.65 Q-9.4 9.4 -8.2 9.4 L-4.7 9.35 Q-6.1 6.9 -9.0 7.0 L-9.85 7.05 M-2.25 9.35 Q-1.45 8.1 -1.65 6.45 L-2.35 4.4 -2.9 10.25 -2.25 9.35" fill="#b49a6e" fill-rule="evenodd" stroke="none"/>
    <path d="M25.4 -27.5 L25.35 -27.5 22.75 -28.3 25.35 -27.5 25.4 -27.5 31.6 -28.4 25.4 -27.5 Q25.75 -27.5 26.0 -27.1 L26.25 -26.1 26.0 -27.1 Q25.75 -27.5 25.4 -27.5 M30.95 -29.85 L31.6 -28.4 30.95 -29.85 Q33.9 -29.9 36.7 -28.7 L37.3 -28.4 34.5 -27.75 26.5 -25.3 Q23.65 -24.2 21.85 -21.85 L20.4 -19.55 19.45 -17.3 Q18.85 -15.3 19.25 -13.2 L20.05 -8.1 20.5 -3.15 Q20.65 -0.25 19.3 2.05 L17.5 4.9 17.45 5.0 Q14.65 5.0 11.7 5.9 L10.15 6.25 9.0 4.2 8.95 4.15 Q11.75 3.15 12.8 0.3 13.5 -1.65 13.25 -3.65 L12.5 -9.05 11.8 -13.15 Q11.4 -15.85 12.15 -18.65 12.8 -21.15 14.55 -23.2 16.15 -25.15 18.45 -26.4 L22.3 -28.15 22.75 -28.3 26.1 -29.15 30.95 -29.85 M17.45 -23.3 Q19.4 -25.35 21.85 -26.35 L25.35 -27.5 21.85 -26.35 Q19.4 -25.35 17.45 -23.3 L15.85 -23.3 17.45 -23.3 20.0 -23.2 20.85 -22.25 20.0 -23.2 17.45 -23.3 15.3 -20.45 Q14.15 -18.75 14.05 -16.7 14.15 -18.75 15.3 -20.45 L17.45 -23.3 M31.6 -28.4 L31.25 -27.55 31.6 -28.4 M18.35 -16.4 L17.45 -16.75 Q15.8 -17.1 14.05 -16.7 15.8 -17.1 17.45 -16.75 L18.35 -16.4 M14.05 -16.7 L14.05 -15.6 Q14.2 -12.5 14.65 -9.75 14.2 -12.5 14.05 -15.6 L14.05 -16.7 12.3 -15.4 14.05 -16.7 M19.65 -3.2 L18.8 -3.65 Q17.05 -4.3 15.35 -3.7 17.05 -4.3 18.8 -3.65 L19.65 -3.2 M19.05 -9.65 L14.65 -9.75 13.2 -8.5 14.65 -9.75 19.05 -9.65 M14.65 -9.75 L15.2 -7.25 Q15.55 -5.55 15.35 -3.7 15.55 -5.55 15.2 -7.25 L14.65 -9.75 M15.35 -3.7 L14.25 -2.95 15.35 -3.7 15.1 -2.35 Q14.6 -0.5 13.7 1.2 14.6 -0.5 15.1 -2.35 L15.35 -3.7 M18.75 1.9 L18.2 1.55 Q16.0 0.6 13.7 1.2 16.0 0.6 18.2 1.55 L18.75 1.9 M-11.05 8.1 L-13.7 5.15 Q-14.6 4.0 -14.7 2.5 -15.05 -1.8 -14.5 -6.15 L-14.5 -7.5 -15.05 -9.45 Q-15.75 -10.95 -17.0 -11.95 L-16.6 -12.85 -17.9 -14.65 -15.65 -15.15 -15.25 -16.7 -14.85 -17.4 -15.5 -18.9 -14.7 -20.05 -14.15 -20.05 -13.3 -19.6 -11.7 -18.45 Q-10.15 -17.05 -9.75 -15.05 -9.15 -12.25 -9.15 -9.6 L-9.1 -3.8 -8.75 0.4 -7.7 4.45 -8.85 5.65 -11.05 8.1 M13.7 1.2 L13.3 1.85 13.7 1.2 M13.3 1.85 L12.85 2.55 10.7 5.3 12.85 2.55 13.3 1.85 M-11.75 -14.15 L-13.2 -13.95 -13.95 -13.6 -14.8 -11.15 -13.95 -13.6 -13.2 -13.95 -11.75 -14.15 Q-12.3 -15.85 -13.2 -16.85 L-13.95 -17.6 -13.2 -16.85 Q-12.3 -15.85 -11.75 -14.15 L-10.8 -14.1 -11.75 -14.15 -10.65 -8.4 -11.75 -14.15 M-10.65 -8.4 L-11.3 -8.5 -12.45 -7.75 -13.5 -6.9 -12.45 -7.75 -11.3 -8.5 -10.65 -8.4 -11.1 -3.1 -10.65 -8.4 -9.7 -8.2 -10.65 -8.4 M-11.1 -3.1 L-11.9 -3.05 -14.25 -1.15 -11.9 -3.05 -11.1 -3.1 -10.0 -2.95 -11.1 -3.1 -11.05 1.4 -11.1 -3.1 M-11.05 1.4 L-11.9 1.9 Q-13.3 2.9 -13.5 4.55 -13.3 2.9 -11.9 1.9 L-11.05 1.4 -9.25 5.15 -11.05 1.4 -9.7 1.05 -11.05 1.4" fill="#ae8257" fill-rule="evenodd" stroke="none"/>
    <path d="M8.95 7.95 L9.0 9.45 Q2.4 10.95 -0.9 9.1 L2.3 7.45 7.2 7.0 Q8.2 7.05 8.95 7.95 M-9.85 7.05 L-9.0 7.0 Q-6.1 6.9 -4.7 9.35 L-8.2 9.4 Q-9.4 9.4 -10.25 8.65 L-9.85 7.05 M-2.25 9.35 L-2.9 10.25 -2.35 4.4 -1.65 6.45 Q-1.45 8.1 -2.25 9.35" fill="#3d2312" fill-rule="evenodd" stroke="none"/>
    <path d="M30.95 -29.85 L26.1 -29.15 22.75 -28.3 22.3 -28.15 18.45 -26.4 Q16.15 -25.15 14.55 -23.2 12.8 -21.15 12.15 -18.65 11.4 -15.85 11.8 -13.15 L12.5 -9.05 13.25 -3.65 Q13.5 -1.65 12.8 0.3 11.75 3.15 8.95 4.15 L9.0 4.2 10.15 6.25 11.7 5.9 Q14.65 5.0 17.45 5.0 L17.5 4.9 19.3 2.05 Q20.65 -0.25 20.5 -3.15 L20.05 -8.1 19.25 -13.2 Q18.85 -15.3 19.45 -17.3 L20.4 -19.55 21.85 -21.85 Q23.65 -24.2 26.5 -25.3 L34.5 -27.75 37.3 -28.4 36.7 -28.7 Q33.9 -29.9 30.95 -29.85 M-7.7 4.45 L-5.85 3.9 -4.65 4.35 Q-3.85 3.1 -3.9 1.55 L-3.85 -2.2 -3.3 -4.35 -3.0 -4.45 -2.7 -3.9 -2.0 -1.5 Q-1.8 -0.65 -1.2 0.0 -1.55 -3.15 0.9 -5.3 L1.55 -0.85 Q1.65 0.0 2.5 -0.25 2.75 -2.75 4.6 -4.6 L5.05 -4.45 5.35 -4.3 5.55 -3.95 5.4 -0.3 4.75 4.35 5.8 4.5 6.9 4.7 7.0 4.25 8.0 3.8 8.95 4.15 M17.6 5.0 L19.35 5.55 Q16.85 7.7 13.8 9.35 L16.4 9.45 20.7 9.4 21.1 9.95 17.65 11.25 14.8 12.4 Q14.4 12.6 14.1 12.9 L14.25 14.6 Q13.15 15.95 11.45 16.1 11.7 14.75 10.9 13.6 L7.9 14.05 8.3 13.6 8.05 11.9 Q7.3 11.85 6.85 12.3 L6.15 13.2 5.5 13.4 4.85 12.2 4.0 12.45 3.5 14.65 3.15 15.5 Q2.3 17.0 0.65 16.75 L1.35 12.75 0.9 12.1 0.25 11.85 -0.5 13.3 -1.2 13.5 -1.3 13.2 -1.4 11.95 -2.55 11.8 -3.15 13.95 -3.8 14.45 -4.4 14.4 -5.9 11.65 -7.9 16.4 -8.6 15.15 Q-9.45 13.2 -8.8 11.15 L-9.4 11.0 -11.5 10.1 -11.05 8.1 -13.7 5.15 Q-14.6 4.0 -14.7 2.5 -15.05 -1.8 -14.5 -6.15 L-14.5 -7.5 -15.05 -9.45 Q-15.75 -10.95 -17.0 -11.95 L-16.6 -12.85 -17.9 -14.65 -15.65 -15.15 -15.25 -16.7 -14.85 -17.4 -15.5 -18.9 -14.7 -20.05 -14.15 -20.05 -13.3 -19.6 -11.7 -18.45 Q-10.15 -17.05 -9.75 -15.05 -9.15 -12.25 -9.15 -9.6 L-9.1 -3.8 -8.75 0.4 -7.7 4.45 -8.85 5.65 -11.05 8.1 M17.45 5.0 L17.6 5.0 M8.95 7.95 Q8.2 7.05 7.2 7.0 L2.3 7.45 -0.9 9.1 Q2.4 10.95 9.0 9.45 L8.95 7.95 M-9.85 7.05 L-10.25 8.65 Q-9.4 9.4 -8.2 9.4 L-4.7 9.35 Q-6.1 6.9 -9.0 7.0 L-9.85 7.05 M-2.25 9.35 L-2.9 10.25 -2.35 4.4 -1.65 6.45 Q-1.45 8.1 -2.25 9.35" fill="none" stroke="#000000" stroke-linecap="round" stroke-linejoin="round" stroke-width="0.05"/>
    <path d="M22.75 -28.3 L25.35 -27.5 25.4 -27.5 Q25.75 -27.5 26.0 -27.1 L26.25 -26.1 M31.6 -28.4 L30.95 -29.85 M17.45 -23.3 L20.0 -23.2 20.85 -22.25 M31.25 -27.55 L31.6 -28.4 M15.85 -23.3 L17.45 -23.3 M14.05 -16.7 Q15.8 -17.1 17.45 -16.75 L18.35 -16.4 M14.05 -16.7 L12.3 -15.4 M13.2 -8.5 L14.65 -9.75 19.05 -9.65 M15.35 -3.7 Q17.05 -4.3 18.8 -3.65 L19.65 -3.2 M14.25 -2.95 L15.35 -3.7 M13.7 1.2 Q16.0 0.6 18.2 1.55 L18.75 1.9 M13.3 1.85 L13.7 1.2 M-14.8 -11.15 L-13.95 -13.6 -13.2 -13.95 -11.75 -14.15 -10.8 -14.1 M-13.5 -6.9 L-12.45 -7.75 -11.3 -8.5 -10.65 -8.4 -9.7 -8.2 M-14.25 -1.15 L-11.9 -3.05 -11.1 -3.1 -10.0 -2.95 M-13.5 4.55 Q-13.3 2.9 -11.9 1.9 L-11.05 1.4 -9.7 1.05" fill="none" stroke="#3d2312" stroke-linecap="round" stroke-linejoin="round" stroke-width="0.05"/>
    <path d="M25.4 -27.5 L31.6 -28.4 M25.35 -27.5 L21.85 -26.35 Q19.4 -25.35 17.45 -23.3 L15.3 -20.45 Q14.15 -18.75 14.05 -16.7 L14.05 -15.6 Q14.2 -12.5 14.65 -9.75 L15.2 -7.25 Q15.55 -5.55 15.35 -3.7 L15.1 -2.35 Q14.6 -0.5 13.7 1.2 M10.7 5.3 L12.85 2.55 13.3 1.85 M-3.5 5.15 L-2.45 0.05 -1.6 1.0 Q-0.9 1.9 -1.05 3.2 L0.75 0.3 1.05 0.7 1.0 2.65 2.95 0.15 2.85 3.65 M-11.75 -14.15 Q-12.3 -15.85 -13.2 -16.85 L-13.95 -17.6 M-10.65 -8.4 L-11.75 -14.15 M-11.1 -3.1 L-10.65 -8.4 M-11.05 1.4 L-11.1 -3.1 M-9.25 5.15 L-11.05 1.4" fill="none" stroke="#e6b977" stroke-linecap="round" stroke-linejoin="round" stroke-width="0.05"/>
    <path d="M3.0 9.05 L2.75 9.65 Q2.5 9.95 2.1 9.95 L1.45 9.65 1.2 9.05 1.45 8.4 Q1.75 8.15 2.1 8.15 2.5 8.15 2.75 8.4 L3.0 9.05" fill="#ff0000" fill-rule="evenodd" stroke="none"/>
    <path d="M-6.6 8.55 L-6.85 9.15 Q-7.1 9.45 -7.5 9.45 L-8.15 9.15 -8.4 8.55 -8.15 7.9 -7.5 7.65 Q-7.1 7.65 -6.85 7.9 L-6.6 8.55" fill="#ff0000" fill-rule="evenodd" stroke="none"/>
  </g>
</svg>
