<?xml version="1.0" encoding="UTF-8" standalone="no"?>
<svg xmlns:xlink="http://www.w3.org/1999/xlink" height="36.35px" width="43.75px" xmlns="http://www.w3.org/2000/svg">
  <g transform="matrix(1.0, 0.0, 0.0, 1.0, 0.0, 0.0)">
    <path d="M-7.15 -13.4 Q-7.15 -15.4 -9.35 -15.8 L-12.1 -15.95 Q-5.45 -18.6 -5.45 -13.0 -5.45 -10.8 -7.55 -9.55 L-12.15 -7.85 Q-18.85 -5.7 -18.85 -0.3 -18.85 3.2 -11.9 5.15 L-8.35 6.15 -7.8 5.8 -9.45 3.2 -9.15 3.1 Q-7.4 3.9 -6.05 5.05 L-5.6 4.85 -6.15 3.45 -6.95 0.2 -6.85 -0.25 Q-5.25 0.55 -4.25 2.5 L-3.85 3.25 -2.9 1.5 Q-1.85 -0.1 1.1 1.2 1.9 -2.0 1.9 -2.95 L2.3 -2.95 3.0 2.35 4.7 3.55 Q7.05 0.75 7.2 -0.25 L7.5 -0.25 7.65 0.7 6.5 4.8 8.85 6.4 Q9.4 6.85 9.75 7.6 L14.75 6.3 Q16.95 5.6 17.85 4.65 18.55 3.85 18.55 2.55 18.55 -4.1 9.35 -6.7 L3.05 -8.6 Q0.15 -9.9 0.15 -12.2 0.15 -15.25 1.85 -16.95 4.4 -19.5 9.7 -16.75 8.8 -15.95 7.9 -16.1 L6.05 -16.4 Q4.1 -16.4 3.2 -14.9 2.65 -14.05 2.65 -13.3 2.65 -11.8 4.75 -11.15 L9.5 -10.4 Q16.95 -9.5 18.45 -6.1 L20.6 -1.7 Q21.9 1.05 21.9 2.35 21.9 4.45 20.15 6.7 17.75 9.85 13.45 9.85 L10.3 9.8 10.3 10.7 10.3 12.95 Q9.85 13.7 8.25 14.0 8.95 14.9 8.95 15.55 L8.9 16.65 Q8.6 17.0 8.1 17.1 L7.45 15.95 Q7.0 14.9 7.0 14.2 L7.0 14.15 5.7 14.2 3.15 14.15 4.25 17.5 3.7 18.15 Q1.65 17.3 1.65 14.5 L1.65 14.0 -0.3 13.7 -0.2 15.7 -0.25 16.7 Q-0.4 17.4 -1.25 17.95 L-2.05 17.95 Q-2.05 16.55 -2.4 13.6 L-2.4 13.2 -5.7 12.5 Q-5.25 13.5 -5.0 15.15 -5.0 15.9 -5.45 17.0 -5.1 17.2 -5.95 17.2 -6.55 17.2 -7.05 14.75 L-7.4 12.35 -8.7 12.25 -8.6 13.1 Q-8.6 13.5 -8.95 14.4 -9.4 15.5 -10.0 15.95 -10.65 15.35 -10.65 13.85 -10.65 12.55 -10.3 11.8 L-10.9 11.05 -11.5 9.65 -11.4 9.3 Q-17.95 8.6 -20.45 5.3 -21.85 3.4 -21.85 -0.25 -21.85 -6.3 -14.5 -9.35 L-9.45 -11.25 Q-7.15 -12.25 -7.15 -13.4 M-2.05 9.75 L-1.9 10.7 Q-1.55 11.5 -0.4 11.5 0.4 11.5 1.1 11.0 1.9 10.45 1.9 9.45 1.9 7.3 -0.05 7.65 -2.05 7.95 -2.05 9.75 M-7.4 9.45 Q-7.4 8.95 -7.55 8.8 L-7.7 8.55 -9.35 8.65 -9.65 9.55 -8.5 10.55 -7.55 10.2 -7.4 9.45" fill="#000000" fill-rule="evenodd" stroke="none"/>
    <path d="M-7.4 9.45 L-7.55 10.2 -8.5 10.55 -9.65 9.55 -9.35 8.65 -7.7 8.55 -7.55 8.8 Q-7.4 8.95 -7.4 9.45 M-2.05 9.75 Q-2.05 7.95 -0.05 7.65 1.9 7.3 1.9 9.45 1.9 10.45 1.1 11.0 0.4 11.5 -0.4 11.5 -1.55 11.5 -1.9 10.7 L-2.05 9.75" fill="#ffffff" fill-rule="evenodd" stroke="none"/>
  </g>
</svg>
