<?xml version="1.0" encoding="UTF-8" standalone="no"?>
<svg xmlns:xlink="http://www.w3.org/1999/xlink" height="68.35px" width="86.5px" xmlns="http://www.w3.org/2000/svg">
  <g transform="matrix(1.0, 0.0, 0.0, 1.0, 0.0, 0.0)">
    <path d="M13.5 22.1 Q13.55 21.25 13.55 22.2 L13.85 26.45 13.5 22.1 13.55 22.2 13.5 22.1" fill="#dfc46b" fill-rule="evenodd" stroke="none"/>
    <path d="M27.05 4.15 Q23.5 7.35 22.9 12.15 L23.0 12.3 23.25 12.15 25.6 7.25 Q26.15 13.85 25.9 21.45 26.55 14.4 28.1 7.4 L28.75 14.8 29.15 11.2 Q29.9 14.55 29.8 18.0 L29.75 18.3 29.5 18.5 28.5 18.6 28.9 18.8 29.6 18.95 30.4 19.55 30.6 19.95 30.25 20.05 29.85 20.2 28.75 20.6 27.95 21.35 28.25 22.3 29.8 23.0 28.8 24.4 27.95 24.7 28.6 26.2 27.95 24.7 28.8 24.4 29.8 23.0 28.25 22.3 27.95 21.35 28.75 20.6 29.85 20.2 30.25 20.05 30.6 19.95 30.4 19.55 29.6 18.95 28.9 18.8 28.5 18.6 29.5 18.5 29.75 18.3 29.8 18.0 Q29.9 14.55 29.15 11.2 L28.75 14.8 28.1 7.4 Q26.55 14.4 25.9 21.45 26.15 13.85 25.6 7.25 L23.25 12.15 23.0 12.3 22.9 12.15 Q23.5 7.35 27.05 4.15 L27.1 4.05 28.5 2.4 28.8 2.9 29.8 3.0 29.2 3.1 28.25 5.3 26.8 5.6 27.05 4.15 26.8 5.6 28.25 5.3 29.2 3.1 29.8 3.0 28.8 2.9 28.5 2.4 27.1 4.05 27.05 4.15 M32.7 -7.75 Q29.8 -3.1 27.85 2.15 L27.1 4.05 27.85 2.15 Q29.8 -3.1 32.7 -7.75 M61.8 14.5 L62.15 13.95 Q62.8 14.9 63.85 15.5 L64.45 15.8 62.8 15.75 62.6 15.55 61.8 14.5 62.6 15.55 62.8 15.75 64.45 15.8 63.85 15.5 Q62.8 14.9 62.15 13.95 L61.8 14.5 M75.8 9.45 L73.0 9.7 Q71.5 9.75 71.4 11.35 70.5 10.2 68.9 9.95 67.85 9.65 67.0 10.25 L67.55 10.8 67.4 12.1 62.15 13.95 57.8 8.6 Q56.15 9.9 55.85 11.95 55.6 13.75 56.75 15.15 55.8 16.55 54.0 16.9 L53.85 16.0 Q53.7 15.3 53.05 14.85 52.25 14.3 51.15 14.1 L50.7 14.3 Q50.25 16.7 52.1 18.8 L46.15 20.9 45.3 20.15 44.05 15.6 39.85 18.45 Q41.6 21.5 41.1 25.2 37.9 27.15 35.2 30.1 L34.6 30.15 35.2 30.1 Q37.9 27.15 41.1 25.2 41.6 21.5 39.85 18.45 L44.05 15.6 45.3 20.15 46.15 20.9 52.1 18.8 Q50.25 16.7 50.7 14.3 L51.15 14.1 Q52.25 14.3 53.05 14.85 53.7 15.3 53.85 16.0 L54.0 16.9 Q55.8 16.55 56.75 15.15 55.6 13.75 55.85 11.95 56.15 9.9 57.8 8.6 L62.15 13.95 67.4 12.1 67.55 10.8 67.0 10.25 Q67.85 9.65 68.9 9.95 70.5 10.2 71.4 11.35 71.5 9.75 73.0 9.7 L75.8 9.45 M59.05 -10.75 L57.55 -10.0 53.7 -6.95 53.55 -7.9 Q52.6 -7.6 53.45 -6.95 L53.7 -6.95 53.6 -5.25 52.15 -4.65 50.4 -4.3 49.15 -5.1 49.1 -3.05 48.0 -2.7 47.75 -2.25 47.7 -1.35 47.95 -0.35 48.1 0.35 42.5 0.3 Q42.9 1.2 43.5 1.6 44.95 2.8 46.35 3.65 L44.7 5.1 44.5 6.35 43.05 5.5 41.55 5.65 41.15 6.6 41.1 7.15 41.2 7.7 41.3 7.95 44.05 8.5 43.25 9.0 Q42.05 9.6 41.7 10.8 41.3 12.25 41.4 13.3 L39.3 13.4 39.8 9.0 39.3 8.35 38.35 8.35 37.2 9.7 37.15 10.25 38.5 10.25 38.5 10.7 Q37.35 16.6 34.75 22.1 37.35 16.6 38.5 10.7 L38.5 10.25 37.15 10.25 37.2 9.7 38.35 8.35 39.3 8.35 39.8 9.0 39.3 13.4 41.4 13.3 Q41.3 12.25 41.7 10.8 42.05 9.6 43.25 9.0 L44.05 8.5 41.3 7.95 41.2 7.7 41.1 7.15 41.15 6.6 41.55 5.65 43.05 5.5 44.5 6.35 44.7 5.1 46.35 3.65 Q44.95 2.8 43.5 1.6 42.9 1.2 42.5 0.3 L48.1 0.35 47.95 -0.35 47.7 -1.35 47.75 -2.25 48.0 -2.7 49.1 -3.05 49.15 -5.1 50.4 -4.3 52.15 -4.65 53.6 -5.25 53.7 -6.95 53.45 -6.95 Q52.6 -7.6 53.55 -7.9 L53.7 -6.95 57.55 -10.0 59.05 -10.75 M30.3 40.1 Q31.7 35.55 33.45 31.55 28.95 33.35 25.6 36.6 30.15 29.2 36.95 23.7 L35.6 24.05 Q26.85 26.6 21.7 33.85 26.85 26.6 35.6 24.05 L36.95 23.7 Q30.15 29.2 25.6 36.6 28.95 33.35 33.45 31.55 31.7 35.55 30.3 40.1 L28.55 42.45 27.35 44.2 Q15.4 59.65 4.95 50.95 1.05 47.65 0.5 42.7 -0.95 29.95 9.9 30.3 8.1 22.2 10.5 13.3 11.5 17.75 13.35 21.75 13.25 5.0 20.2 -3.15 18.4 2.45 18.35 8.5 19.0 17.1 22.75 24.95 22.2 20.45 22.15 15.7 22.0 -3.85 37.9 -12.95 29.8 0.85 32.55 16.75 32.95 14.05 33.95 11.45 43.25 -12.5 68.2 -13.25 52.65 -4.7 46.1 12.0 66.4 -0.7 85.85 12.05 71.4 13.65 58.25 19.0 41.2 26.05 30.3 40.1 M13.5 22.1 L13.35 21.75 13.5 22.1 13.85 26.45 13.55 22.2 Q13.55 21.25 13.5 22.1 M16.25 30.3 L14.2 29.7 14.15 29.55 14.4 29.3 14.75 28.95 14.8 28.7 Q11.7 29.1 10.45 26.6 L11.15 26.3 12.05 24.95 11.8 24.55 11.15 24.55 11.05 21.3 11.15 24.55 11.8 24.55 12.05 24.95 11.15 26.3 10.45 26.6 Q11.7 29.1 14.8 28.7 L14.75 28.95 14.4 29.3 14.15 29.55 14.2 29.7 16.25 30.3 M18.7 29.45 Q18.55 28.7 19.15 28.2 L19.25 27.75 18.0 28.15 17.35 27.6 Q18.35 26.5 19.9 26.35 L18.85 24.6 15.5 24.05 17.0 23.15 17.2 21.85 16.4 21.65 17.6 21.4 18.0 20.4 16.4 20.05 15.95 18.3 17.7 17.35 Q18.35 15.65 16.7 14.75 L15.95 14.85 16.7 14.75 Q18.35 15.65 17.7 17.35 L15.95 18.3 16.4 20.05 18.0 20.4 17.6 21.4 16.4 21.65 17.2 21.85 17.0 23.15 15.5 24.05 18.85 24.6 19.9 26.35 Q18.35 26.5 17.35 27.6 L18.0 28.15 19.25 27.75 19.15 28.2 Q18.55 28.7 18.7 29.45 M21.7 33.85 L24.0 27.45 21.4 30.5 Q19.2 33.1 17.6 36.05 16.6 32.2 12.85 30.9 L9.9 30.3 12.85 30.9 Q16.6 32.2 17.6 36.05 19.2 33.1 21.4 30.5 L24.0 27.45 21.7 33.85 21.55 34.5 21.7 33.85 M3.95 41.35 L2.75 40.8 2.95 39.8 3.1 39.55 2.75 39.15 2.45 37.25 2.7 36.9 7.3 37.0 6.6 36.1 5.4 35.25 5.85 34.55 Q6.15 34.2 6.55 33.9 L7.45 33.4 8.4 33.7 9.3 34.7 11.15 34.1 9.55 33.5 9.95 32.45 10.95 32.2 12.75 32.75 12.65 36.0 12.75 32.75 10.95 32.2 9.95 32.45 9.55 33.5 11.15 34.1 9.3 34.7 8.4 33.7 7.45 33.4 6.55 33.9 Q6.15 34.2 5.85 34.55 L5.4 35.25 6.6 36.1 7.3 37.0 2.7 36.9 2.45 37.25 2.75 39.15 3.1 39.55 2.95 39.8 2.75 40.8 3.95 41.35 M12.3 43.85 Q14.45 43.65 14.3 41.75 14.2 39.65 12.15 38.1 10.05 36.55 6.8 40.1 4.15 46.05 11.3 47.65 20.4 47.1 17.6 36.05 20.4 47.1 11.3 47.65 4.15 46.05 6.8 40.1 10.05 36.55 12.15 38.1 14.2 39.65 14.3 41.75 14.45 43.65 12.3 43.85 M21.8 39.45 L21.0 39.9 21.0 40.7 21.4 40.85 21.75 40.85 22.45 40.75 23.05 40.4 23.7 39.9 23.35 41.7 27.65 41.55 19.4 47.95 27.65 41.55 23.35 41.7 23.7 39.9 23.05 40.4 22.45 40.75 21.75 40.85 21.4 40.85 21.0 40.7 21.0 39.9 21.8 39.45" fill="#dfc46b" fill-opacity="0.6" fill-rule="evenodd" stroke="none"/>
    <path d="M13.5 22.1 L13.55 22.2" fill="none" stroke="#000000" stroke-linecap="round" stroke-linejoin="round" stroke-width="0.05"/>
    <path d="M21.7 33.85 Q26.85 26.6 35.6 24.05 L36.95 23.7 Q30.15 29.2 25.6 36.6 28.95 33.35 33.45 31.55 31.7 35.55 30.3 40.1 41.2 26.05 58.25 19.0 71.4 13.65 85.85 12.05 66.4 -0.7 46.1 12.0 52.65 -4.7 68.2 -13.25 43.25 -12.5 33.95 11.45 32.95 14.05 32.55 16.75 29.8 0.85 37.9 -12.95 22.0 -3.85 22.15 15.7 22.2 20.45 22.75 24.95 19.0 17.1 18.35 8.5 18.4 2.45 20.2 -3.15 13.25 5.0 13.35 21.75 L13.5 22.1 Q13.55 21.25 13.55 22.2 L13.85 26.45 13.5 22.1 M13.35 21.75 Q11.5 17.75 10.5 13.3 8.1 22.2 9.9 30.3 L12.85 30.9 Q16.6 32.2 17.6 36.05 19.2 33.1 21.4 30.5 L24.0 27.45 21.7 33.85 21.55 34.5 21.7 33.85 M17.6 36.05 Q20.4 47.1 11.3 47.65 4.15 46.05 6.8 40.1 10.05 36.55 12.15 38.1 14.2 39.65 14.3 41.75 14.45 43.65 12.3 43.85 M30.3 40.1 L28.55 42.45 27.35 44.2 Q15.4 59.65 4.95 50.95 1.05 47.65 0.5 42.7 -0.95 29.95 9.9 30.3" fill="none" stroke="#f8f5b0" stroke-linecap="round" stroke-linejoin="round" stroke-width="1.0"/>
    <path d="M34.75 22.1 Q37.35 16.6 38.5 10.7 L38.5 10.25 37.15 10.25 37.2 9.7 38.35 8.35 39.3 8.35 39.8 9.0 39.3 13.4 41.4 13.3 Q41.3 12.25 41.7 10.8 42.05 9.6 43.25 9.0 L44.05 8.5 41.3 7.95 41.2 7.7 41.1 7.15 41.15 6.6 41.55 5.65 43.05 5.5 44.5 6.35 44.7 5.1 46.35 3.65 Q44.95 2.8 43.5 1.6 42.9 1.2 42.5 0.3 L48.1 0.35 47.95 -0.35 47.7 -1.35 47.75 -2.25 48.0 -2.7 49.1 -3.05 49.15 -5.1 50.4 -4.3 52.15 -4.65 53.6 -5.25 53.7 -6.95 53.45 -6.95 Q52.6 -7.6 53.55 -7.9 L53.7 -6.95 57.55 -10.0 59.05 -10.75 M34.6 30.15 L35.2 30.1 Q37.9 27.15 41.1 25.2 41.6 21.5 39.85 18.45 L44.05 15.6 45.3 20.15 46.15 20.9 52.1 18.8 Q50.25 16.7 50.7 14.3 L51.15 14.1 Q52.25 14.3 53.05 14.85 53.7 15.3 53.85 16.0 L54.0 16.9 Q55.8 16.55 56.75 15.15 55.6 13.75 55.85 11.95 56.15 9.9 57.8 8.6 L62.15 13.95 67.4 12.1 67.55 10.8 67.0 10.25 Q67.85 9.65 68.9 9.95 70.5 10.2 71.4 11.35 71.5 9.75 73.0 9.7 L75.8 9.45 M61.8 14.5 L62.6 15.55 62.8 15.75 64.45 15.8 63.85 15.5 Q62.8 14.9 62.15 13.95 L61.8 14.5 M28.8 2.9 L28.5 2.4 27.1 4.05 27.05 4.15 26.8 5.6 28.25 5.3 29.2 3.1 29.8 3.0 28.8 2.9 M27.1 4.05 L27.85 2.15 Q29.8 -3.1 32.7 -7.75 M28.6 26.2 L27.95 24.7 28.8 24.4 29.8 23.0 28.25 22.3 27.95 21.35 28.75 20.6 29.85 20.2 30.25 20.05 30.6 19.95 30.4 19.55 29.6 18.95 28.9 18.8 28.5 18.6 29.5 18.5 29.75 18.3 29.8 18.0 Q29.9 14.55 29.15 11.2 L28.75 14.8 28.1 7.4 Q26.55 14.4 25.9 21.45 26.15 13.85 25.6 7.25 L23.25 12.15 23.0 12.3 22.9 12.15 Q23.5 7.35 27.05 4.15 M15.95 14.85 L16.7 14.75 Q18.35 15.65 17.7 17.35 L15.95 18.3 16.4 20.05 18.0 20.4 17.6 21.4 16.4 21.65 17.2 21.85 17.0 23.15 15.5 24.05 18.85 24.6 19.9 26.35 Q18.35 26.5 17.35 27.6 L18.0 28.15 19.25 27.75 19.15 28.2 Q18.55 28.7 18.7 29.45 M11.05 21.3 L11.15 24.55 11.8 24.55 12.05 24.95 11.15 26.3 10.45 26.6 Q11.7 29.1 14.8 28.7 L14.75 28.95 14.4 29.3 14.15 29.55 14.2 29.7 16.25 30.3 M12.65 36.0 L12.75 32.75 10.95 32.2 9.95 32.45 9.55 33.5 11.15 34.1 9.3 34.7 8.4 33.7 7.45 33.4 6.55 33.9 Q6.15 34.2 5.85 34.55 L5.4 35.25 6.6 36.1 7.3 37.0 2.7 36.9 2.45 37.25 2.75 39.15 3.1 39.55 2.95 39.8 2.75 40.8 3.95 41.35 M19.4 47.95 L27.65 41.55 23.35 41.7 23.7 39.9 23.05 40.4 22.45 40.75 21.75 40.85 21.4 40.85 21.0 40.7 21.0 39.9 21.8 39.45" fill="none" stroke="#ffff00" stroke-linecap="round" stroke-linejoin="round" stroke-width="0.05"/>
  </g>
</svg>
