<?xml version="1.0" encoding="UTF-8" standalone="no"?>
<svg xmlns:xlink="http://www.w3.org/1999/xlink" height="16.45px" width="19.8px" xmlns="http://www.w3.org/2000/svg">
  <g transform="matrix(1.0, 0.0, 0.0, 1.0, 0.0, 0.0)">
    <path d="M23.25 9.2 L26.25 4.3 Q28.1 0.6 32.6 1.1 L32.8 2.45 34.15 2.9 34.2 5.4 Q34.25 7.05 33.65 8.7 L33.8 6.7 Q33.75 5.0 32.35 4.05 31.25 5.35 31.2 7.1 31.1 10.7 28.8 11.65 L28.65 11.7 28.7 11.6 26.15 11.0 24.25 9.05 23.4 9.3 23.25 9.2" fill="#ffcc00" fill-rule="evenodd" stroke="none"/>
    <path d="M23.4 9.3 L24.25 9.05 26.15 11.0 28.7 11.6 28.65 11.7 28.85 12.35 28.8 12.95 Q28.75 13.85 28.0 14.55 26.8 15.6 25.45 15.8 L23.2 14.75 21.35 15.85 18.4 17.5 19.25 14.85 Q17.1 13.3 14.4 15.4 15.35 11.35 17.7 10.0 18.8 10.1 19.55 10.9 L20.55 11.7 22.0 11.15 23.1 9.8 23.4 9.3 M19.25 14.85 Q19.45 13.65 20.2 12.75 20.95 11.8 22.0 11.15 20.95 11.8 20.2 12.75 19.45 13.65 19.25 14.85" fill="url(#gradient0)" fill-rule="evenodd" stroke="none"/>
    <path d="M28.65 11.7 L28.8 11.65 Q31.1 10.7 31.2 7.1 31.25 5.35 32.35 4.05 33.75 5.0 33.8 6.7 L33.65 8.7 Q34.25 7.05 34.2 5.4 L34.15 2.9 32.8 2.45 32.6 1.1 Q28.1 0.6 26.25 4.3 L23.25 9.2 23.1 9.8 23.4 9.3 24.25 9.05 26.15 11.0 M28.65 11.7 L28.85 12.35 28.8 12.95 Q28.75 13.85 28.0 14.55 26.8 15.6 25.45 15.8 L23.2 14.75 21.35 15.85 18.4 17.5 19.25 14.85 Q17.1 13.3 14.4 15.4 15.35 11.35 17.7 10.0 18.8 10.1 19.55 10.9 L20.55 11.7 22.0 11.15 23.1 9.8 M22.0 11.15 Q20.95 11.8 20.2 12.75 19.45 13.65 19.25 14.85" fill="none" stroke="#000000" stroke-linecap="round" stroke-linejoin="round" stroke-width="0.05"/>
  </g>
  <defs>
    <linearGradient gradientTransform="matrix(0.0064, 0.0, 0.0, 0.0052, 23.6, 13.25)" gradientUnits="userSpaceOnUse" id="gradient0" spreadMethod="pad" x1="-819.2" x2="819.2">
      <stop offset="0.0" stop-color="#6d481b"/>
      <stop offset="1.0" stop-color="#f7dd93"/>
    </linearGradient>
  </defs>
</svg>
