<?xml version="1.0" encoding="UTF-8" standalone="no"?>
<svg xmlns:xlink="http://www.w3.org/1999/xlink" height="53.9px" width="28.5px" xmlns="http://www.w3.org/2000/svg">
  <g transform="matrix(1.0, 0.0, 0.0, 1.0, 0.0, 0.0)">
    <path d="M20.6 15.05 Q21.0 16.3 21.0 17.75 L20.9 20.4 20.15 25.7 Q19.6 28.9 22.1 30.9 L26.4 34.4 Q27.45 35.2 28.2 36.35 29.35 38.1 29.35 40.3 L29.3 40.35 28.1 39.4 Q27.85 39.15 27.5 39.05 L27.05 39.85 Q26.4 43.3 26.2 46.75 26.1 48.0 26.35 49.25 26.95 52.6 28.15 55.7 L29.2 58.4 Q28.65 59.95 26.7 59.9 26.05 60.1 25.55 60.45 24.4 61.3 24.6 61.95 24.75 62.55 21.2 63.95 L20.6 63.55 20.4 62.7 Q20.1 63.65 19.35 64.4 L18.9 64.8 18.85 62.3 17.3 63.45 16.75 63.6 16.15 62.05 14.85 65.2 14.15 62.5 13.1 63.15 12.65 63.0 12.35 62.25 12.05 62.85 11.55 64.5 11.25 64.85 10.9 62.05 10.35 61.75 Q9.6 59.95 10.6 58.2 L11.25 56.7 Q12.15 53.35 15.3 52.95 16.65 50.9 17.2 48.65 L18.0 44.4 18.3 41.5 18.4 41.45 18.25 41.4 12.4 41.05 Q9.65 40.9 7.05 39.7 5.85 39.1 4.8 38.3 3.75 37.5 3.1 36.4 1.8 34.3 0.85 31.85 1.25 28.85 1.0 24.2 0.8 19.7 1.95 18.3 L2.1 18.15 Q3.4 16.75 4.65 15.95 5.85 15.1 7.5 14.15 9.15 13.15 11.6 12.35 14.0 11.5 16.6 11.3 18.25 11.3 19.15 12.4 20.1 13.6 20.6 15.05 M18.85 62.3 Q18.55 58.6 19.3 57.4 19.85 56.5 20.15 56.6 19.45 55.7 19.1 54.7 L18.2 54.2 16.65 54.7 16.35 55.0 Q15.2 56.5 14.6 58.25 13.9 60.35 14.15 62.5 13.9 60.35 14.6 58.25 15.2 56.5 16.35 55.0 L16.65 54.7 Q16.65 54.0 16.25 53.5 15.85 52.95 15.3 52.95 15.85 52.95 16.25 53.5 16.65 54.0 16.65 54.7 L18.2 54.2 19.1 54.7 Q19.45 55.7 20.15 56.6 19.85 56.5 19.3 57.4 18.55 58.6 18.85 62.3 M22.9 57.65 L22.6 57.6 Q22.0 57.3 22.0 56.8 L21.95 56.55 21.2 56.45 20.25 56.65 20.3 56.8 20.25 56.65 20.15 56.6 20.25 56.75 20.3 56.8 20.25 56.75 20.15 56.6 20.25 56.65 21.2 56.45 21.95 56.55 22.0 56.8 Q22.0 57.3 22.6 57.6 L22.9 57.65" fill="#8c5e2f" fill-rule="evenodd" stroke="none"/>
    <path d="M20.6 15.05 Q21.0 16.3 21.0 17.75 L20.9 20.4 20.15 25.7 Q19.6 28.9 22.1 30.9 L26.4 34.4 Q27.45 35.2 28.2 36.35 29.35 38.1 29.35 40.3 L29.3 40.35 28.1 39.4 Q27.85 39.15 27.5 39.05 L27.05 39.85 Q26.4 43.3 26.2 46.75 26.1 48.0 26.35 49.25 26.95 52.6 28.15 55.7 L29.2 58.4 Q28.65 59.95 26.7 59.9 26.05 60.1 25.55 60.45 24.4 61.3 24.6 61.95 24.75 62.55 21.2 63.95 L20.6 63.55 20.4 62.7 Q20.1 63.65 19.35 64.4 L18.9 64.8 18.85 62.3 17.3 63.45 16.75 63.6 16.15 62.05 14.85 65.2 14.15 62.5 13.1 63.15 12.65 63.0 12.35 62.25 12.05 62.85 11.55 64.5 11.25 64.85 10.9 62.05 10.35 61.75 Q9.6 59.95 10.6 58.2 L11.25 56.7 Q12.15 53.35 15.3 52.95 16.65 50.9 17.2 48.65 L18.0 44.4 18.3 41.5 18.25 41.4 12.4 41.05 Q9.65 40.9 7.05 39.7 5.85 39.1 4.8 38.3 3.75 37.5 3.1 36.4 1.8 34.3 0.85 31.85 1.25 28.85 1.0 24.2 0.8 19.7 1.95 18.3 M18.4 41.45 L18.25 41.4 M20.3 56.8 L20.25 56.65 20.15 56.6 20.25 56.75 20.3 56.8 M20.25 56.65 L21.2 56.45 21.95 56.55 22.0 56.8 Q22.0 57.3 22.6 57.6 L22.9 57.65 M14.15 62.5 Q13.9 60.35 14.6 58.25 15.2 56.5 16.35 55.0 L16.65 54.7 Q16.65 54.0 16.25 53.5 15.85 52.95 15.3 52.95 M16.65 54.7 L18.2 54.2 19.1 54.7 Q19.45 55.7 20.15 56.6 19.85 56.5 19.3 57.4 18.55 58.6 18.85 62.3" fill="none" stroke="#000000" stroke-linecap="round" stroke-linejoin="round" stroke-width="0.05"/>
  </g>
</svg>
