<?xml version="1.0" encoding="UTF-8" standalone="no"?>
<svg xmlns:xlink="http://www.w3.org/1999/xlink" height="32.5px" width="54.9px" xmlns="http://www.w3.org/2000/svg">
  <g transform="matrix(1.0, 0.0, 0.0, 1.0, 0.0, 0.0)">
    <path d="M54.35 -1.4 Q55.6 0.65 56.3 3.25 57.05 6.0 56.75 8.95 56.25 14.3 51.1 16.45 L48.6 17.55 47.05 17.55 44.3 17.05 Q43.1 16.7 42.0 17.05 37.25 18.9 33.0 21.95 L35.85 21.85 35.9 21.9 34.95 22.65 Q34.0 23.4 32.9 23.85 L31.4 24.3 34.4 25.25 31.1 26.6 26.5 27.3 29.35 28.2 Q23.7 30.0 17.8 30.15 10.6 30.35 4.85 25.65 1.25 19.9 2.1 13.0 2.65 8.9 5.3 5.6 8.45 1.7 13.5 0.8 20.1 -0.65 26.55 0.75 33.55 2.55 40.25 -0.05 44.4 -1.7 48.85 -2.3 51.65 -2.5 54.35 -1.4" fill="#8c5e2f" fill-rule="evenodd" stroke="none"/>
    <path d="M54.35 -1.4 Q55.6 0.65 56.3 3.25 57.05 6.0 56.75 8.95 56.25 14.3 51.1 16.45 L48.6 17.55 47.05 17.55 44.3 17.05 Q43.1 16.7 42.0 17.05 37.25 18.9 33.0 21.95 L35.85 21.85 35.9 21.9 34.95 22.65 Q34.0 23.4 32.9 23.85 L31.4 24.3 34.4 25.25 31.1 26.6 26.5 27.3 29.35 28.2 Q23.7 30.0 17.8 30.15 10.6 30.35 4.85 25.65 1.25 19.9 2.1 13.0 2.65 8.9 5.3 5.6 8.45 1.7 13.5 0.8 20.1 -0.65 26.55 0.75 33.55 2.55 40.25 -0.05 44.4 -1.7 48.85 -2.3 51.65 -2.5 54.35 -1.4 Z" fill="none" stroke="#000000" stroke-linecap="round" stroke-linejoin="round" stroke-width="0.05"/>
  </g>
</svg>
