<?xml version="1.0" encoding="UTF-8" standalone="no"?>
<svg xmlns:xlink="http://www.w3.org/1999/xlink" height="27.05px" width="32.25px" xmlns="http://www.w3.org/2000/svg">
  <g transform="matrix(1.0, 0.0, 0.0, 1.0, 0.0, 0.0)">
    <path d="M23.1 10.9 L23.65 10.5 24.0 10.25 24.5 9.65 25.7 7.7 26.2 6.55 27.2 3.3 27.35 2.7 27.4 2.45 28.1 -0.5 28.45 -1.85 Q29.15 -4.05 29.85 -4.8 31.1 -6.15 32.2 -5.8 38.6 -3.5 36.65 4.7 34.65 12.85 28.6 17.65 22.5 22.4 16.3 20.75 10.05 19.1 9.85 17.45 L8.5 15.75 7.6 11.55 15.85 6.4 15.85 6.85 16.0 8.1 16.25 9.25 16.9 10.7 17.55 11.6 18.35 12.15 19.4 12.5 20.1 12.4 Q21.45 12.15 22.8 11.1 L23.65 10.55 23.1 10.9 M28.1 -0.5 L29.7 2.25 27.35 2.7 29.7 2.25 28.1 -0.5 M26.2 6.55 L28.0 10.6 24.0 10.25 28.0 10.6 26.2 6.55 M23.65 10.5 L23.65 10.55 23.65 10.5 M25.7 7.7 L26.85 9.95 24.5 9.65 26.85 9.95 25.7 7.7 M23.65 10.55 L22.15 16.95 19.4 12.5 22.15 16.95 23.65 10.55 M28.45 -1.85 L30.9 2.7 27.2 3.3 30.9 2.7 28.45 -1.85 M22.8 11.1 L21.9 14.7 20.1 12.4 21.9 14.7 22.8 11.1 M16.9 10.7 L15.35 11.55 16.25 9.25 15.35 11.55 16.9 10.7 M17.55 11.6 L13.9 12.6 16.0 8.1 13.9 12.6 17.55 11.6" fill="url(#gradient0)" fill-rule="evenodd" stroke="none"/>
    <path d="M7.6 11.55 Q7.25 9.55 7.2 8.0 L6.85 5.25 5.75 2.7 Q4.35 0.45 5.15 -2.4 L6.7 -2.45 Q11.55 -2.15 13.85 0.7 L14.55 1.75 Q15.2 2.85 15.55 4.3 L15.7 5.3 15.85 6.4 7.6 11.55 M15.55 4.3 L12.95 4.65 14.55 1.75 12.95 4.65 15.55 4.3 M15.7 5.3 L11.25 6.15 13.85 0.7 11.25 6.15 15.7 5.3" fill="url(#gradient1)" fill-rule="evenodd" stroke="none"/>
    <path d="M23.1 10.9 L23.65 10.5 24.0 10.25 24.5 9.65 25.7 7.7 26.2 6.55 27.2 3.3 27.35 2.7 27.4 2.45 28.1 -0.5 28.45 -1.85 Q29.15 -4.05 29.85 -4.8 31.1 -6.15 32.2 -5.8 38.6 -3.5 36.65 4.7 34.65 12.85 28.6 17.65 22.5 22.4 16.3 20.75 10.05 19.1 9.85 17.45 L8.5 15.75 7.6 11.55 Q7.25 9.55 7.2 8.0 L6.85 5.25 M5.15 -2.4 L6.7 -2.45 Q11.55 -2.15 13.85 0.7 L14.55 1.75 Q15.2 2.85 15.55 4.3 L15.7 5.3 15.85 6.4 15.85 6.85 16.0 8.1 16.25 9.25 16.9 10.7 17.55 11.6 18.35 12.15 19.4 12.5 20.1 12.4 Q21.45 12.15 22.8 11.1 L23.65 10.55" fill="none" stroke="#000000" stroke-linecap="round" stroke-linejoin="round" stroke-width="0.05"/>
    <path d="M23.65 10.55 L23.1 10.9 M23.65 10.55 L23.65 10.5 M24.0 10.25 L28.0 10.6 26.2 6.55 M27.2 3.3 L30.9 2.7 28.45 -1.85 M19.4 12.5 L22.15 16.95 23.65 10.55 M13.85 0.7 L11.25 6.15 15.7 5.3 M16.0 8.1 L13.9 12.6 17.55 11.6" fill="none" stroke="#447d0b" stroke-linecap="round" stroke-linejoin="round" stroke-width="0.05"/>
    <path d="M27.35 2.7 L29.7 2.25 28.1 -0.5 M24.5 9.65 L26.85 9.95 25.7 7.7 M20.1 12.4 L21.9 14.7 22.8 11.1 M14.55 1.75 L12.95 4.65 15.55 4.3 M16.25 9.25 L15.35 11.55 16.9 10.7" fill="none" stroke="#f8f5b0" stroke-linecap="round" stroke-linejoin="round" stroke-width="0.05"/>
  </g>
  <defs>
    <radialGradient cx="0" cy="0" fx="12.8" fy="0" gradientTransform="matrix(0.0245, 0.0, 0.0, 0.0247, 20.2, 4.1)" gradientUnits="userSpaceOnUse" id="gradient0" r="819.2" spreadMethod="pad">
      <stop offset="0.33725490196078434" stop-color="#4d9118"/>
      <stop offset="1.0" stop-color="#f7dd93"/>
    </radialGradient>
    <linearGradient gradientTransform="matrix(-0.0051, -0.0013, 0.0021, -0.0083, 10.75, 3.25)" gradientUnits="userSpaceOnUse" id="gradient1" spreadMethod="pad" x1="-819.2" x2="819.2">
      <stop offset="0.33725490196078434" stop-color="#4d9118"/>
      <stop offset="1.0" stop-color="#8c5e2f"/>
    </linearGradient>
  </defs>
</svg>
