<?xml version="1.0" encoding="UTF-8" standalone="no"?>
<svg xmlns:xlink="http://www.w3.org/1999/xlink" height="11.95px" width="21.75px" xmlns="http://www.w3.org/2000/svg">
  <g transform="matrix(1.0, 0.0, 0.0, 1.0, 0.0, 0.0)">
    <path d="M10.8 9.7 L9.65 9.4 9.7 8.65 10.3 8.4 15.0 7.8 15.5 8.05 Q14.0 9.15 12.0 9.5 L10.8 9.7 M13.1 8.65 L12.6 8.75 11.25 8.85 12.6 8.75 13.1 8.65" fill="#ff0000" fill-rule="evenodd" stroke="none"/>
    <path d="M2.6 9.3 Q4.35 4.4 10.3 4.4 L17.8 3.4 Q19.65 3.8 21.35 3.05 L23.15 3.55 Q25.25 8.65 23.75 14.0 L22.85 8.75 Q22.8 11.95 21.65 15.0 L19.6 8.85 18.85 11.5 17.4 9.65 16.45 12.0 15.5 9.65 Q13.1 11.3 11.05 13.5 8.3 14.6 5.6 13.2 L3.5 12.1 Q2.45 11.5 2.6 9.3 M20.5 5.1 L19.85 5.15 19.7 5.0 19.65 4.8 20.75 4.6 21.4 5.05 21.05 6.1 Q20.6 7.05 19.6 7.3 L16.4 7.5 19.6 7.3 Q20.6 7.05 21.05 6.1 L21.4 5.05 20.75 4.6 19.65 4.8 19.7 5.0 19.85 5.15 20.5 5.1 M10.8 9.7 L12.0 9.5 Q14.0 9.15 15.5 8.05 L15.0 7.8 10.3 8.4 9.7 8.65 9.65 9.4 10.8 9.7 M9.4 7.1 L9.35 5.7 9.4 7.1 9.4 8.2 9.4 7.1 4.3 7.55 4.3 8.25 Q4.45 10.0 6.1 10.65 L7.3 10.75 7.55 10.2 7.8 9.25 7.7 9.1 7.3 9.0 Q7.1 9.0 7.0 9.1 L6.55 9.55 7.0 9.1 Q7.1 9.0 7.3 9.0 L7.7 9.1 7.8 9.25 7.55 10.2 7.3 10.75 6.1 10.65 Q4.45 10.0 4.3 8.25 L4.3 7.55 9.4 7.1 M11.05 4.9 L11.05 7.55 11.05 4.9 M12.85 5.85 L12.7 7.55 12.85 5.85" fill="url(#gradient0)" fill-rule="evenodd" stroke="none"/>
    <path d="M2.6 9.3 Q4.35 4.4 10.3 4.4 L17.8 3.4 Q19.65 3.8 21.35 3.05 L23.15 3.55 Q25.25 8.65 23.75 14.0 L22.85 8.75 Q22.8 11.95 21.65 15.0 L19.6 8.85 18.85 11.5 17.4 9.65 16.45 12.0 15.5 9.65 Q13.1 11.3 11.05 13.5 M10.8 9.7 L9.65 9.4 9.7 8.65 10.3 8.4 15.0 7.8 15.5 8.05 Q14.0 9.15 12.0 9.5 L10.8 9.7" fill="none" stroke="#000000" stroke-linecap="round" stroke-linejoin="round" stroke-width="0.05"/>
    <path d="M16.4 7.5 L19.6 7.3 Q20.6 7.05 21.05 6.1 L21.4 5.05 20.75 4.6 19.65 4.8 19.7 5.0 19.85 5.15 20.5 5.1 M12.7 7.55 L12.85 5.85 M11.05 7.55 L11.05 4.9 M9.4 8.2 L9.4 7.1 4.3 7.55 4.3 8.25 Q4.45 10.0 6.1 10.65 L7.3 10.75 7.55 10.2 7.8 9.25 7.7 9.1 7.3 9.0 Q7.1 9.0 7.0 9.1 L6.55 9.55 M9.35 5.7 L9.4 7.1" fill="none" stroke="#f8f5b0" stroke-linecap="round" stroke-linejoin="round" stroke-width="0.05"/>
    <path d="M11.25 8.85 L12.6 8.75 13.1 8.65" fill="none" stroke="#ffcccc" stroke-linecap="round" stroke-linejoin="round" stroke-width="1.0"/>
  </g>
  <defs>
    <linearGradient gradientTransform="matrix(9.0E-4, 0.0067, -0.0109, 0.0014, 2.35, 14.15)" gradientUnits="userSpaceOnUse" id="gradient0" spreadMethod="pad" x1="-819.2" x2="819.2">
      <stop offset="0.0" stop-color="#4d9118"/>
      <stop offset="1.0" stop-color="#f7dd93"/>
    </linearGradient>
  </defs>
</svg>
