<?xml version="1.0" encoding="UTF-8" standalone="no"?>
<svg xmlns:xlink="http://www.w3.org/1999/xlink" height="20.55px" width="34.45px" xmlns="http://www.w3.org/2000/svg">
  <g transform="matrix(1.0, 0.0, 0.0, 1.0, 0.0, 0.0)">
    <path d="M22.3 7.35 L22.4 7.55 Q24.4 6.3 25.95 4.25 27.7 1.9 30.55 1.55 L31.2 1.0 Q34.2 0.5 36.4 2.9 L37.75 4.35 37.45 5.05 37.65 5.85 38.55 6.45 Q44.25 11.0 38.1 15.45 L38.5 14.5 38.95 12.55 39.05 11.5 39.05 11.15 37.6 10.05 36.8 9.35 36.05 8.35 Q34.95 9.35 34.5 10.9 L34.35 11.25 34.15 11.55 33.9 11.8 33.6 11.75 32.25 10.4 27.2 15.15 26.1 15.05 25.15 14.8 25.0 14.75 24.2 14.45 23.85 14.6 23.5 11.45 21.65 9.35 20.1 10.55 18.95 11.4 18.6 8.5 19.0 8.65 20.85 7.75 22.25 8.7 22.3 7.35 M25.3 7.1 L24.7 7.6 Q23.75 8.3 22.25 8.7 23.75 8.3 24.7 7.6 L25.3 7.1 M29.7 5.65 Q29.05 7.1 27.6 7.4 27.2 7.55 26.85 7.75 26.25 8.7 26.25 9.85 L26.2 10.2 23.55 11.5 23.5 11.45 23.55 11.5 26.2 10.2 26.25 9.85 Q26.25 8.7 26.85 7.75 27.2 7.55 27.6 7.4 29.05 7.1 29.7 5.65 M18.95 11.4 L18.95 11.55 18.9 11.45 18.95 11.4" fill="#ffcc00" fill-rule="evenodd" stroke="none"/>
    <path d="M22.3 7.35 L22.25 8.7 20.85 7.75 19.0 8.65 18.6 8.5 18.95 11.4 20.1 10.55 21.65 9.35 23.5 11.45 23.85 14.6 23.7 14.6 21.75 17.95 20.85 17.75 20.4 17.35 19.8 16.9 19.6 16.7 18.8 16.9 Q14.55 18.5 11.3 21.45 11.3 17.05 15.05 14.55 L16.25 13.7 15.4 12.6 14.7 11.9 Q10.3 13.15 7.05 16.5 L6.85 16.65 Q7.6 8.75 15.7 5.1 L16.9 6.6 20.15 3.85 22.3 7.35 M18.9 11.45 L18.95 11.55 18.95 11.4 18.9 11.45 16.25 13.7 18.9 11.45 M18.6 8.5 L18.55 8.5 Q17.45 7.7 16.9 6.6 17.45 7.7 18.55 8.5 L18.6 8.5" fill="url(#gradient0)" fill-rule="evenodd" stroke="none"/>
    <path d="M23.85 14.6 L24.2 14.45 25.0 14.75 25.15 14.8 26.1 15.05 27.2 15.15 32.25 10.4 33.6 11.75 33.9 11.8 34.15 11.55 34.35 11.25 34.5 10.9 Q34.95 9.35 36.05 8.35 L36.8 9.35 37.6 10.05 39.05 11.15 39.05 11.5 38.95 12.55 38.5 14.5 38.1 15.45 Q44.25 11.0 38.55 6.45 L37.65 5.85 37.45 5.05 37.75 4.35 36.4 2.9 Q34.2 0.5 31.2 1.0 L30.55 1.55 Q27.7 1.9 25.95 4.25 24.4 6.3 22.4 7.55 L22.3 7.35 20.15 3.85 16.9 6.6 Q17.45 7.7 18.55 8.5 L18.6 8.5 19.0 8.65 20.85 7.75 22.25 8.7 Q23.75 8.3 24.7 7.6 L25.3 7.1 M18.95 11.4 L20.1 10.55 21.65 9.35 23.5 11.45 23.55 11.5 26.2 10.2 26.25 9.85 Q26.25 8.7 26.85 7.75 27.2 7.55 27.6 7.4 29.05 7.1 29.7 5.65 M23.85 14.6 L23.7 14.6 21.75 17.95 20.85 17.75 20.4 17.35 19.8 16.9 19.6 16.7 18.8 16.9 Q14.55 18.5 11.3 21.45 11.3 17.05 15.05 14.55 L16.25 13.7 15.4 12.6 14.7 11.9 Q10.3 13.15 7.05 16.5 L6.85 16.65 Q7.6 8.75 15.7 5.1 L16.9 6.6 M18.95 11.4 L18.9 11.45 16.25 13.7" fill="none" stroke="#000000" stroke-linecap="round" stroke-linejoin="round" stroke-width="0.05"/>
  </g>
  <defs>
    <linearGradient gradientTransform="matrix(-0.0101, 0.0044, -0.0029, -0.0068, 16.6, 15.05)" gradientUnits="userSpaceOnUse" id="gradient0" spreadMethod="pad" x1="-819.2" x2="819.2">
      <stop offset="0.0" stop-color="#6d481b"/>
      <stop offset="1.0" stop-color="#f7dd93"/>
    </linearGradient>
  </defs>
</svg>
