<?xml version="1.0" encoding="UTF-8" standalone="no"?>
<svg xmlns:xlink="http://www.w3.org/1999/xlink" height="71.45px" width="60.15px" xmlns="http://www.w3.org/2000/svg">
  <g transform="matrix(1.0, 0.0, 0.0, 1.0, 0.0, 0.0)">
    <path d="M-4.2 69.65 Q-4.9 67.3 -3.3 64.45 -1.7 61.6 0.95 60.75 16.15 46.1 30.45 29.7 42.05 16.4 51.0 1.25 52.05 -0.5 54.2 0.2 57.25 2.9 54.35 9.4 51.4 15.9 38.25 31.8 25.05 47.65 21.2 59.1 17.35 70.55 8.6 71.3 -3.5 72.0 -4.2 69.65" fill="#990000" fill-rule="evenodd" stroke="none"/>
    <path d="M-4.2 69.65 Q-4.9 67.3 -3.3 64.45 -1.7 61.6 0.95 60.75 16.15 46.1 30.45 29.7 42.05 16.4 51.0 1.25 52.05 -0.5 54.2 0.2 57.25 2.9 54.35 9.4 51.4 15.9 38.25 31.8 25.05 47.65 21.2 59.1 17.35 70.55 8.6 71.3" fill="none" stroke="#000000" stroke-linecap="round" stroke-linejoin="round" stroke-width="0.05"/>
  </g>
</svg>
