<?xml version="1.0" encoding="UTF-8" standalone="no"?>
<svg xmlns:xlink="http://www.w3.org/1999/xlink" height="70.1px" width="54.55px" xmlns="http://www.w3.org/2000/svg">
  <g transform="matrix(1.0, 0.0, 0.0, 1.0, 0.0, 0.0)">
    <path d="M50.6 11.1 Q45.5 18.45 33.25 33.55 21.0 48.65 14.1 59.55 7.2 70.4 5.55 70.1 -1.1 69.95 0.25 64.3 0.55 63.1 1.2 61.95 16.15 46.1 30.45 29.7 42.05 16.4 51.0 1.25 52.05 -0.5 54.2 0.2 55.7 3.7 50.6 11.1" fill="#b49a6e" fill-rule="evenodd" stroke="none"/>
    <path d="M50.6 11.1 Q45.5 18.45 33.25 33.55 21.0 48.65 14.1 59.55 7.2 70.4 5.55 70.1 -1.1 69.95 0.25 64.3 0.55 63.1 1.2 61.95 16.15 46.1 30.45 29.7 42.05 16.4 51.0 1.25 52.05 -0.5 54.2 0.2 55.7 3.7 50.6 11.1 Z" fill="none" stroke="#000000" stroke-linecap="round" stroke-linejoin="round" stroke-width="0.05"/>
  </g>
</svg>
