<?xml version="1.0" encoding="UTF-8" standalone="no"?>
<svg xmlns:xlink="http://www.w3.org/1999/xlink" height="99.95px" width="76.6px" xmlns="http://www.w3.org/2000/svg">
  <g transform="matrix(1.0, 0.0, 0.0, 1.0, 0.0, 0.0)">
    <path d="M40.75 29.9 L38.8 30.9 39.05 30.1 37.25 28.35 36.95 28.5 Q36.65 30.15 36.5 31.9 L35.95 34.7 Q35.0 38.1 32.4 40.85 34.95 40.4 36.7 38.6 38.9 36.35 40.45 33.85 40.95 33.0 40.95 32.0 L40.75 29.9 M42.4 49.1 L42.1 49.65 40.4 50.65 Q38.85 52.0 38.9 53.9 L39.25 56.85 39.15 57.85 38.3 60.9 37.35 60.85 Q36.35 61.6 36.1 62.6 35.6 64.5 36.0 66.5 L35.4 67.45 32.35 67.4 32.75 68.8 31.5 70.85 Q31.1 71.2 31.05 71.7 30.95 73.6 31.2 75.55 31.35 76.65 32.1 77.65 32.6 78.4 32.3 79.1 L31.7 80.0 Q32.35 83.95 33.65 87.85 L36.0 94.4 30.45 94.8 Q16.35 97.8 0.25 99.95 0.15 99.4 3.55 89.7 6.9 79.95 7.65 61.2 L9.05 63.05 Q11.95 59.9 12.85 55.65 14.2 49.25 14.7 42.8 L10.0 44.7 Q15.0 22.25 7.7 0.0 14.45 4.35 19.5 10.65 29.7 23.5 45.7 28.85 51.0 30.6 55.05 34.2 L76.85 52.85 Q75.65 52.4 74.45 51.6 73.3 50.9 72.1 50.5 L69.85 49.7 Q68.7 49.5 67.7 48.9 L66.6 48.25 Q64.3 46.4 61.85 45.9 L59.65 45.75 58.2 45.55 Q56.65 45.55 55.35 46.55 L54.5 46.65 52.35 46.05 49.4 45.4 Q47.85 44.65 46.1 44.85 44.85 45.0 44.2 46.1 L42.4 49.1 M12.7 93.0 Q13.4 92.7 14.0 91.9 L15.75 89.7 21.1 83.1 25.85 76.3 30.9 67.85 33.25 63.8 37.75 55.95 38.9 53.9 37.75 55.95 33.25 63.8 30.9 67.85 25.85 76.3 21.1 83.1 15.75 89.7 14.0 91.9 Q13.4 92.7 12.7 93.0 M22.15 27.8 Q21.7 24.75 20.85 21.75 L18.35 13.65 20.85 21.75 Q21.7 24.75 22.15 27.8 M43.1 43.55 L43.0 44.25 40.4 50.65 43.0 44.25 43.1 43.55 M25.25 55.25 L23.85 56.2 Q24.5 53.55 24.45 50.95 L24.15 47.9 19.05 61.8 21.7 64.75 Q22.75 63.75 23.0 62.35 L23.4 60.45 Q24.25 57.8 25.25 55.25 M26.45 77.65 L20.35 88.6 23.15 88.9 Q23.85 88.85 24.5 89.25 25.6 89.95 25.65 91.35 26.55 91.1 26.7 90.5 L28.25 83.65 26.4 85.55 26.45 77.65 M20.15 89.0 L20.35 88.6 20.15 89.0" fill="url(#gradient0)" fill-rule="evenodd" stroke="none"/>
    <path d="M40.75 29.9 L38.8 30.9 39.05 30.1 37.25 28.35 36.95 28.5 Q36.65 30.15 36.5 31.9 L35.95 34.7 Q35.0 38.1 32.4 40.85 34.95 40.4 36.7 38.6 38.9 36.35 40.45 33.85 40.95 33.0 40.95 32.0 L40.75 29.9 M42.4 49.1 L42.1 49.65 40.4 50.65 Q38.85 52.0 38.9 53.9 L39.25 56.85 39.15 57.85 38.3 60.9 37.35 60.85 Q36.35 61.6 36.1 62.6 35.6 64.5 36.0 66.5 L35.4 67.45 32.35 67.4 32.75 68.8 31.5 70.85 Q31.1 71.2 31.05 71.7 30.95 73.6 31.2 75.55 31.35 76.65 32.1 77.65 32.6 78.4 32.3 79.1 L31.7 80.0 Q32.35 83.95 33.65 87.85 L36.0 94.4 30.45 94.8 Q16.35 97.8 0.25 99.95 0.15 99.4 3.55 89.7 6.9 79.95 7.65 61.2 L9.05 63.05 Q11.95 59.9 12.85 55.65 14.2 49.25 14.7 42.8 L10.0 44.7 Q15.0 22.25 7.7 0.0 14.45 4.35 19.5 10.65 29.7 23.5 45.7 28.85 51.0 30.6 55.05 34.2 L76.85 52.85 Q75.65 52.4 74.45 51.6 73.3 50.9 72.1 50.5 L69.85 49.7 Q68.7 49.5 67.7 48.9 L66.6 48.25 Q64.3 46.4 61.85 45.9 L59.65 45.75 58.2 45.55 Q56.65 45.55 55.35 46.55 L54.5 46.65 52.35 46.05 49.4 45.4 Q47.85 44.65 46.1 44.85 44.85 45.0 44.2 46.1 L42.4 49.1 M40.4 50.65 L43.0 44.25 43.1 43.55 M18.35 13.65 L20.85 21.75 Q21.7 24.75 22.15 27.8 M38.9 53.9 L37.75 55.95 33.25 63.8 30.9 67.85 25.85 76.3 21.1 83.1 15.75 89.7 14.0 91.9 Q13.4 92.7 12.7 93.0 M25.25 55.25 L23.85 56.2 Q24.5 53.55 24.45 50.95 L24.15 47.9 19.05 61.8 21.7 64.75 Q22.75 63.75 23.0 62.35 L23.4 60.45 Q24.25 57.8 25.25 55.25 M26.45 77.65 L20.35 88.6 23.15 88.9 Q23.85 88.85 24.5 89.25 25.6 89.95 25.65 91.35 26.55 91.1 26.7 90.5 L28.25 83.65 26.4 85.55 26.45 77.65 M20.35 88.6 L20.15 89.0" fill="none" stroke="#375511" stroke-linecap="round" stroke-linejoin="round" stroke-width="0.05"/>
  </g>
  <defs>
    <linearGradient gradientTransform="matrix(0.0457, 0.0108, -0.0024, 0.01, 42.25, 32.65)" gradientUnits="userSpaceOnUse" id="gradient0" spreadMethod="pad" x1="-819.2" x2="819.2">
      <stop offset="0.0" stop-color="#26561d" stop-opacity="0.67058825"/>
      <stop offset="1.0" stop-color="#399f39" stop-opacity="0.2"/>
    </linearGradient>
  </defs>
</svg>
