<?xml version="1.0" encoding="UTF-8" standalone="no"?>
<svg xmlns:xlink="http://www.w3.org/1999/xlink" height="101.45px" width="95.25px" xmlns="http://www.w3.org/2000/svg">
  <g transform="matrix(1.0, 0.0, 0.0, 1.0, 0.0, 0.0)">
    <path d="M95.25 67.65 L95.2 68.2 94.55 68.95 77.15 72.25 Q49.35 78.35 35.05 100.75 L33.3 101.25 Q17.25 101.95 0.25 99.95 -0.05 99.4 0.05 98.7 3.0 79.85 7.65 61.2 L9.05 63.05 Q11.95 59.9 12.85 55.65 14.2 49.25 14.7 42.8 L10.0 44.7 Q15.0 22.25 7.7 0.0 14.45 4.35 19.5 10.65 29.7 23.5 45.7 28.85 51.0 30.6 55.05 34.2 74.8 51.65 95.25 67.65" fill="#e1d6c8" fill-rule="evenodd" stroke="none"/>
    <path d="M95.25 67.65 Q74.8 51.65 55.05 34.2 51.0 30.6 45.7 28.85 29.7 23.5 19.5 10.65 14.45 4.35 7.7 0.0 15.0 22.25 10.0 44.7 L14.7 42.8 Q14.2 49.25 12.85 55.65 11.95 59.9 9.05 63.05 L7.65 61.2 Q3.0 79.85 0.05 98.7 -0.05 99.4 0.25 99.95 17.25 101.95 33.3 101.25 L35.05 100.75 Q49.35 78.35 77.15 72.25 L94.55 68.95 95.2 68.2 95.25 67.65 Z" fill="none" stroke="#000000" stroke-linecap="round" stroke-linejoin="round" stroke-width="0.05"/>
  </g>
</svg>
