<?xml version="1.0" encoding="UTF-8" standalone="no"?>
<svg xmlns:xlink="http://www.w3.org/1999/xlink" height="74.95px" width="264.05px" xmlns="http://www.w3.org/2000/svg">
  <g transform="matrix(1.0, 0.0, 0.0, 1.0, 0.0, 0.0)">
    <path d="M264.05 64.3 L251.4 58.0 252.55 60.65 Q244.55 58.55 236.35 57.45 234.0 57.05 231.95 58.0 L231.7 58.85 231.7 59.4 231.8 59.85 233.25 63.0 232.75 63.4 228.95 63.1 228.8 63.9 Q228.8 64.7 229.1 65.45 L230.65 68.7 231.85 71.0 230.0 70.85 227.6 71.6 225.4 72.95 223.35 74.75 222.2 74.5 Q220.8 74.4 219.65 73.75 218.35 73.1 217.3 72.1 L216.3 71.0 213.45 73.9 Q211.85 74.35 210.35 73.9 208.5 73.25 206.65 72.7 L205.7 72.45 205.45 72.25 204.3 71.45 203.6 70.85 Q203.35 70.6 203.25 69.25 203.25 68.75 202.75 68.35 201.6 67.3 201.35 65.9 201.25 65.4 201.7 64.75 203.25 62.5 201.2 60.95 L192.35 53.75 Q188.5 50.45 184.1 47.95 L179.8 45.4 Q178.45 44.55 177.1 43.95 L179.3 42.25 176.55 38.95 176.25 38.7 175.6 38.1 Q174.7 37.1 173.35 36.95 L171.0 36.45 168.05 35.55 167.75 35.2 Q166.3 34.55 164.85 34.45 L160.65 34.25 154.6 33.6 153.75 33.45 Q155.45 32.55 153.55 31.65 150.7 30.3 148.7 27.95 L148.7 27.55 148.7 26.75 144.3 25.75 130.05 22.25 122.5 20.55 125.75 22.6 130.25 25.35 134.1 28.0 134.75 28.6 127.75 29.25 128.05 29.75 130.85 31.55 133.8 33.25 135.3 34.3 136.45 35.1 138.35 36.35 132.2 35.8 128.25 35.4 Q123.6 35.1 119.2 33.5 L115.0 32.1 Q112.45 31.25 110.1 32.7 L111.85 34.5 109.65 34.65 Q109.25 35.3 110.3 35.8 110.7 36.0 110.7 36.35 L110.4 36.7 Q109.65 37.15 109.05 37.05 L108.1 36.55 Q98.1 31.3 87.65 27.2 L86.9 25.6 Q86.55 24.85 85.85 24.4 L84.75 23.8 Q82.0 22.45 79.1 21.5 L74.0 19.65 71.7 18.95 73.1 18.7 Q72.15 17.1 70.5 16.35 71.3 16.05 70.9 15.7 L69.2 14.65 59.75 10.55 60.0 10.75 Q62.1 12.0 63.75 13.75 L60.1 14.55 Q60.2 15.15 61.75 15.95 62.5 16.35 62.9 17.15 61.85 17.9 60.75 17.95 61.25 18.35 61.0 18.85 L60.65 19.3 Q54.5 17.85 46.7 14.85 L46.35 14.7 46.45 14.6 46.25 14.35 45.45 13.45 Q45.2 13.0 45.45 12.85 46.7 11.9 48.2 11.2 L48.7 10.9 Q47.3 10.2 45.75 10.05 L34.6 10.35 Q33.95 10.45 34.35 10.7 28.55 8.95 21.65 7.15 17.95 5.45 12.7 5.3 7.4 5.15 0.0 0.1 14.85 -0.6 31.8 0.35 53.45 -1.15 74.6 3.65 94.0 8.3 113.4 12.0 L156.4 20.2 197.35 27.7 Q217.4 31.5 236.25 39.5 254.8 47.35 264.05 64.3 M239.3 49.9 Q238.35 49.6 237.5 49.1 234.65 47.4 231.9 46.75 234.65 47.4 237.5 49.1 238.35 49.6 239.3 49.9 M239.5 44.0 L235.15 42.25 229.05 39.35 Q225.15 37.5 220.95 36.3 213.55 34.2 205.95 32.85 L196.6 31.65 Q189.1 31.0 181.9 29.1 189.1 31.0 196.6 31.65 L205.95 32.85 Q213.55 34.2 220.95 36.3 225.15 37.5 229.05 39.35 L235.15 42.25 239.5 44.0 M135.35 16.75 Q135.25 16.4 136.2 17.2 L136.7 17.7 Q138.0 19.2 139.6 20.0 L140.45 20.6 140.75 20.85 141.45 21.4 141.7 21.65 Q143.15 23.05 145.0 23.8 146.7 24.45 148.0 25.75 L148.7 26.75 148.0 25.75 Q146.7 24.45 145.0 23.8 143.15 23.05 141.7 21.65 L141.45 21.4 140.75 20.85 140.45 20.6 139.6 20.0 Q138.0 19.2 136.7 17.7 L136.2 17.2 Q135.25 16.4 135.35 16.75 M125.15 15.2 L123.75 15.0 121.75 15.35 Q120.0 15.7 118.35 16.55 119.45 17.25 120.4 18.6 121.15 19.7 122.35 20.45 L122.5 20.55 120.25 20.05 110.4 17.75 Q103.9 16.15 97.25 15.25 L80.4 12.9 Q77.25 12.45 74.5 10.7 77.25 12.45 80.4 12.9 L97.25 15.25 Q103.9 16.15 110.4 17.75 L120.25 20.05 122.5 20.55 122.35 20.45 Q121.15 19.7 120.4 18.6 119.45 17.25 118.35 16.55 120.0 15.7 121.75 15.35 L123.75 15.0 125.15 15.2 M104.55 24.55 L105.25 24.3 106.0 23.85 Q106.5 23.5 107.05 23.55 L111.1 23.35 110.65 23.25 Q108.3 22.25 105.35 21.2 L103.6 20.4 102.05 19.65 100.15 19.3 Q98.05 19.25 96.05 18.15 93.9 16.95 92.1 18.45 94.3 19.9 96.85 20.65 99.4 21.45 102.75 23.05 102.8 23.3 102.95 23.35 L104.55 24.55 104.75 24.75 104.55 24.55 M86.3 6.85 L81.0 5.95 65.6 4.55 48.55 3.0 37.5 3.45 Q31.45 4.7 25.5 4.65 31.45 4.7 37.5 3.45 L48.55 3.0 65.6 4.55 81.0 5.95 86.3 6.85" fill="url(#gradient0)" fill-rule="evenodd" stroke="none"/>
    <path d="M0.0 0.1 Q14.85 -0.6 31.8 0.35 53.45 -1.15 74.6 3.65 94.0 8.3 113.4 12.0 L156.4 20.2 197.35 27.7 Q217.4 31.5 236.25 39.5 254.8 47.35 264.05 64.3" fill="none" stroke="#000000" stroke-linecap="round" stroke-linejoin="round" stroke-width="0.05"/>
    <path d="M264.05 64.3 L251.4 58.0 252.55 60.65 Q244.55 58.55 236.35 57.45 234.0 57.05 231.95 58.0 L231.7 58.85 231.7 59.4 231.8 59.85 233.25 63.0 232.75 63.4 228.95 63.1 228.8 63.9 Q228.8 64.7 229.1 65.45 L230.65 68.7 231.85 71.0 230.0 70.85 227.6 71.6 225.4 72.95 223.35 74.75 222.2 74.5 Q220.8 74.4 219.65 73.75 218.35 73.1 217.3 72.1 L216.3 71.0 213.45 73.9 Q211.85 74.35 210.35 73.9 208.5 73.25 206.65 72.7 L205.7 72.45 205.45 72.25 204.3 71.45 203.6 70.85 Q203.35 70.6 203.25 69.25 203.25 68.75 202.75 68.35 201.6 67.3 201.35 65.9 201.25 65.4 201.7 64.75 203.25 62.5 201.2 60.95 L192.35 53.75 Q188.5 50.45 184.1 47.95 L179.8 45.4 Q178.45 44.55 177.1 43.95 L179.3 42.25 176.55 38.95 176.25 38.7 175.6 38.1 Q174.7 37.1 173.35 36.95 L171.0 36.45 168.05 35.55 167.75 35.2 Q166.3 34.55 164.85 34.45 L160.65 34.25 154.6 33.6 153.75 33.45 Q155.45 32.55 153.55 31.65 150.7 30.3 148.7 27.95 L148.7 27.55 148.7 26.75 144.3 25.75 130.05 22.25 122.5 20.55 125.75 22.6 130.25 25.35 134.1 28.0 134.75 28.6 127.75 29.25 128.05 29.75 130.85 31.55 133.8 33.25 135.3 34.3 136.45 35.1 138.35 36.35 132.2 35.8 128.25 35.4 Q123.6 35.1 119.2 33.5 L115.0 32.1 Q112.45 31.25 110.1 32.7 L111.85 34.5 109.65 34.65 Q109.25 35.3 110.3 35.8 110.7 36.0 110.7 36.35 L110.4 36.7 Q109.65 37.15 109.05 37.05 L108.85 37.0 Q108.65 36.95 108.4 37.15 M181.9 29.1 Q189.1 31.0 196.6 31.65 L205.95 32.85 Q213.55 34.2 220.95 36.3 225.15 37.5 229.05 39.35 L235.15 42.25 239.5 44.0 M231.9 46.75 Q234.65 47.4 237.5 49.1 238.35 49.6 239.3 49.9 M74.5 10.7 Q77.25 12.45 80.4 12.9 L97.25 15.25 Q103.9 16.15 110.4 17.75 L120.25 20.05 122.5 20.55 122.35 20.45 Q121.15 19.7 120.4 18.6 119.45 17.25 118.35 16.55 120.0 15.7 121.75 15.35 L123.75 15.0 125.15 15.2 M148.7 26.75 L148.0 25.75 Q146.7 24.45 145.0 23.8 143.15 23.05 141.7 21.65 L141.45 21.4 140.75 20.85 140.45 20.6 139.6 20.0 Q138.0 19.2 136.7 17.7 L136.2 17.2 Q135.25 16.4 135.35 16.75 M104.55 24.55 L102.95 23.35 Q102.8 23.3 102.75 23.05 99.4 21.45 96.85 20.65 94.3 19.9 92.1 18.45 93.9 16.95 96.05 18.15 98.05 19.25 100.15 19.3 L102.05 19.65 103.6 20.4 105.35 21.2 Q108.3 22.25 110.65 23.25 L111.1 23.35 107.05 23.55 Q106.5 23.5 106.0 23.85 L105.25 24.3 104.55 24.55 104.75 24.75 M87.65 27.2 L86.9 25.6 Q86.55 24.85 85.85 24.4 L84.75 23.8 Q82.0 22.45 79.1 21.5 L74.0 19.65 71.7 18.95 71.25 18.9 M25.5 4.65 Q31.45 4.7 37.5 3.45 L48.55 3.0 65.6 4.55 81.0 5.95 86.3 6.85 M87.65 27.2 L87.8 27.65 M109.05 37.05 L108.1 36.55 Q98.1 31.3 87.65 27.2 M71.7 18.95 L73.1 18.7 Q72.15 17.1 70.5 16.35 71.3 16.05 70.9 15.7 L69.2 14.65 59.75 10.55 60.0 10.75 Q62.1 12.0 63.75 13.75 L60.1 14.55 Q60.2 15.15 61.75 15.95 62.5 16.35 62.9 17.15 61.85 17.9 60.75 17.95 61.25 18.35 61.0 18.85 L60.65 19.3 Q54.5 17.85 46.7 14.85 L46.35 14.7 46.45 14.6 46.25 14.35 45.45 13.45 Q45.2 13.0 45.45 12.85 46.7 11.9 48.2 11.2 L48.7 10.9 Q47.3 10.2 45.75 10.05 L34.6 10.35 Q33.95 10.45 34.35 10.7 28.55 8.95 21.65 7.15 17.95 5.45 12.7 5.3 7.4 5.15 0.0 0.1" fill="none" stroke="#375511" stroke-linecap="round" stroke-linejoin="round" stroke-width="0.05"/>
  </g>
  <defs>
    <linearGradient gradientTransform="matrix(0.1612, 0.0, 0.0, 0.0457, 132.0, 37.25)" gradientUnits="userSpaceOnUse" id="gradient0" spreadMethod="pad" x1="-819.2" x2="819.2">
      <stop offset="0.0" stop-color="#26561d" stop-opacity="0.67058825"/>
      <stop offset="1.0" stop-color="#399f39" stop-opacity="0.2"/>
    </linearGradient>
  </defs>
</svg>
