<?xml version="1.0" encoding="UTF-8" standalone="no"?>
<svg xmlns:xlink="http://www.w3.org/1999/xlink" height="74.95px" width="265.3px" xmlns="http://www.w3.org/2000/svg">
  <g transform="matrix(1.0, 0.0, 0.0, 1.0, 0.0, 0.0)">
    <path d="M264.05 64.3 L251.4 58.0 252.55 60.65 Q244.55 58.55 236.35 57.45 234.0 57.05 231.95 58.0 L231.7 58.85 231.7 59.4 231.8 59.85 233.25 63.0 232.75 63.4 228.95 63.1 228.8 63.9 Q228.8 64.7 229.1 65.45 L230.65 68.7 231.85 71.0 230.0 70.85 227.6 71.6 225.4 72.95 223.35 74.75 222.2 74.5 Q220.8 74.4 219.65 73.75 218.35 73.1 217.3 72.1 L216.3 71.0 213.45 73.9 Q211.85 74.35 210.35 73.9 194.95 68.6 178.15 68.4 171.6 68.35 166.1 64.85 153.15 56.4 138.7 50.7 123.1 44.45 108.1 36.55 94.15 29.2 79.2 24.15 71.0 21.3 63.75 19.95 56.5 18.6 46.7 14.85 36.9 11.1 21.65 7.15 17.95 5.45 12.7 5.3 7.4 5.15 0.0 0.1 14.85 -0.6 31.8 0.35 53.45 -1.15 74.6 3.65 94.0 8.3 113.4 12.0 L156.4 20.2 197.35 27.7 Q217.4 31.5 236.25 39.5 254.8 47.35 264.05 64.3 M86.3 6.85 L81.0 5.95 65.6 4.55 48.55 3.0 37.5 3.45 Q31.45 4.7 25.5 4.65 31.45 4.7 37.5 3.45 L48.55 3.0 65.6 4.55 81.0 5.95 86.3 6.85 M148.55 26.8 L144.3 25.75 130.05 22.25 120.25 20.05 110.4 17.75 Q103.9 16.15 97.25 15.25 L80.4 12.9 Q77.25 12.45 74.5 10.7 77.25 12.45 80.4 12.9 L97.25 15.25 Q103.9 16.15 110.4 17.75 L120.25 20.05 130.05 22.25 144.3 25.75 148.55 26.8 M179.8 59.7 L174.75 57.95 Q167.35 55.3 160.1 52.25 L149.7 47.75 140.4 43.85 Q136.55 42.35 132.45 41.4 125.25 39.8 119.2 35.7 125.25 39.8 132.45 41.4 136.55 42.35 140.4 43.85 L149.7 47.75 160.1 52.25 Q167.35 55.3 174.75 57.95 L179.8 59.7 M197.1 58.4 L192.6 57.05 184.2 54.8 176.8 53.0 Q173.85 52.35 172.0 50.4 173.85 52.35 176.8 53.0 L184.2 54.8 192.6 57.05 197.1 58.4 M239.5 44.0 L235.15 42.25 229.05 39.35 Q225.15 37.5 220.95 36.3 213.55 34.2 205.95 32.85 L196.6 31.65 Q189.1 31.0 181.9 29.1 189.1 31.0 196.6 31.65 L205.95 32.85 Q213.55 34.2 220.95 36.3 225.15 37.5 229.05 39.35 L235.15 42.25 239.5 44.0 M239.3 49.9 Q238.35 49.6 237.5 49.1 234.65 47.4 231.9 46.75 234.65 47.4 237.5 49.1 238.35 49.6 239.3 49.9" fill="url(#gradient0)" fill-rule="evenodd" stroke="none"/>
    <path d="M0.0 0.1 Q14.85 -0.6 31.8 0.35 53.45 -1.15 74.6 3.65 94.0 8.3 113.4 12.0 L156.4 20.2 197.35 27.7 Q217.4 31.5 236.25 39.5 254.8 47.35 264.05 64.3 L265.3 66.75" fill="none" stroke="#000000" stroke-linecap="round" stroke-linejoin="round" stroke-width="0.05"/>
    <path d="M264.05 64.3 L251.4 58.0 252.55 60.65 Q244.55 58.55 236.35 57.45 234.0 57.05 231.95 58.0 L231.7 58.85 231.7 59.4 231.8 59.85 233.25 63.0 232.75 63.4 228.95 63.1 228.8 63.9 Q228.8 64.7 229.1 65.45 L230.65 68.7 231.85 71.0 230.0 70.85 227.6 71.6 225.4 72.95 223.35 74.75 222.2 74.5 Q220.8 74.4 219.65 73.75 218.35 73.1 217.3 72.1 L216.3 71.0 213.45 73.9 Q211.85 74.35 210.35 73.9 194.95 68.6 178.15 68.4 171.6 68.35 166.1 64.85 153.15 56.4 138.7 50.7 123.1 44.45 108.1 36.55 94.15 29.2 79.2 24.15 71.0 21.3 63.75 19.95 56.5 18.6 46.7 14.85 36.9 11.1 21.65 7.15 17.95 5.45 12.7 5.3 7.4 5.15 0.0 0.1 M231.9 46.75 Q234.65 47.4 237.5 49.1 238.35 49.6 239.3 49.9 M181.9 29.1 Q189.1 31.0 196.6 31.65 L205.95 32.85 Q213.55 34.2 220.95 36.3 225.15 37.5 229.05 39.35 L235.15 42.25 239.5 44.0 M172.0 50.4 Q173.85 52.35 176.8 53.0 L184.2 54.8 192.6 57.05 197.1 58.4 M119.2 35.7 Q125.25 39.8 132.45 41.4 136.55 42.35 140.4 43.85 L149.7 47.75 160.1 52.25 Q167.35 55.3 174.75 57.95 L179.8 59.7 M74.5 10.7 Q77.25 12.45 80.4 12.9 L97.25 15.25 Q103.9 16.15 110.4 17.75 L120.25 20.05 130.05 22.25 144.3 25.75 148.55 26.8 M25.5 4.65 Q31.45 4.7 37.5 3.45 L48.55 3.0 65.6 4.55 81.0 5.95 86.3 6.85" fill="none" stroke="#ff0000" stroke-linecap="round" stroke-linejoin="round" stroke-width="0.05"/>
  </g>
  <defs>
    <linearGradient gradientTransform="matrix(0.1612, 0.0, 0.0, 0.0457, 132.0, 37.25)" gradientUnits="userSpaceOnUse" id="gradient0" spreadMethod="pad" x1="-819.2" x2="819.2">
      <stop offset="0.0" stop-color="#ff0000" stop-opacity="0.57254905"/>
      <stop offset="1.0" stop-color="#ff9605" stop-opacity="0.4509804"/>
    </linearGradient>
  </defs>
</svg>
