<?xml version="1.0" encoding="UTF-8" standalone="no"?>
<svg xmlns:xlink="http://www.w3.org/1999/xlink" height="60.4px" width="80.0px" xmlns="http://www.w3.org/2000/svg">
  <g transform="matrix(1.0, 0.0, 0.0, 1.0, 0.0, 0.0)">
    <path d="M13.3 1.6 L15.8 0.05 Q17.0 -0.85 18.35 -1.3 21.05 -2.2 22.45 0.3 L22.55 -1.05 22.4 -1.5 Q21.4 -3.6 19.0 -4.15 L19.95 -4.3 Q23.15 -4.7 24.95 -2.15 L25.7 -0.7 25.5 -0.05 25.35 0.0 22.4 0.5 21.95 1.35 21.8 1.35 21.75 1.35 20.7 1.3 19.55 1.1 Q16.6 0.55 14.0 2.25 L12.8 3.3 11.05 5.2 Q9.7 6.6 7.65 6.95 L8.45 6.4 9.2 5.65 12.75 1.9 12.95 1.75 13.1 1.7 13.35 1.65 13.3 1.6 M25.3 0.05 L24.5 1.15 27.55 5.75 30.75 10.2 31.6 11.6 33.15 12.8 Q35.45 14.6 36.55 16.1 37.6 17.6 38.5 18.15 39.35 18.65 41.6 21.1 43.8 23.55 48.2 27.15 51.9 30.1 55.2 32.45 L60.6 36.45 65.2 39.65 Q67.7 41.2 70.1 43.8 72.15 45.9 74.6 47.5 76.7 48.85 78.4 50.8 L79.9 52.4 80.1 52.7 79.55 56.05 77.85 56.05 76.5 53.5 75.85 52.25 Q72.0 49.7 68.2 46.1 L61.6 40.0 57.55 36.3 55.75 34.35 55.25 33.95 54.3 33.25 50.35 30.45 Q44.0 25.65 38.25 20.1 L36.5 18.55 23.9 8.7 23.1 8.1 21.25 5.5 Q20.15 6.1 18.8 6.1 16.9 6.05 16.0 7.35 L14.2 11.35 Q12.55 13.55 9.8 12.45 L9.45 13.25 7.15 13.35 5.35 12.85 5.05 12.9 Q1.4 14.4 0.5 18.5 0.1 16.8 0.1 15.1 L0.3 13.1 Q0.6 11.9 1.4 11.15 3.9 8.9 7.15 10.05 L8.65 10.2 Q9.7 9.9 10.6 10.55 12.3 10.3 13.1 8.75 L13.85 7.05 Q14.75 4.7 16.5 3.2 18.65 1.25 21.75 1.35 L21.8 1.35 21.85 1.35 21.95 1.35 25.3 0.05 M22.55 -1.05 L24.95 -2.15 22.55 -1.05 M14.0 2.25 L13.35 1.65 14.0 2.25 M55.75 34.35 Q60.45 37.85 64.85 41.55 L66.6 42.7 Q69.75 44.55 72.15 47.3 L74.2 49.75 75.85 52.25 74.2 49.75 72.15 47.3 Q69.75 44.55 66.6 42.7 L64.85 41.55 Q60.45 37.85 55.75 34.35 M22.45 0.3 L22.4 0.5 22.45 0.3 M31.6 11.6 L30.35 10.65 22.25 4.7 21.25 5.5 22.25 4.7 23.0 3.15 24.5 1.15 23.0 3.15 22.25 4.7 30.35 10.65 31.6 11.6 M10.6 10.55 L9.8 12.45 10.6 10.55 M15.45 6.0 L16.0 7.35 15.45 6.0" fill="#552811" fill-rule="evenodd" stroke="none"/>
    <path d="M13.3 1.6 L15.8 0.05 Q17.0 -0.85 18.35 -1.3 21.05 -2.2 22.45 0.3 L22.55 -1.05 22.4 -1.5 Q21.4 -3.6 19.0 -4.15 L19.95 -4.3 Q23.15 -4.7 24.95 -2.15 L25.7 -0.7 25.5 -0.05 25.3 0.05 24.5 1.15 27.55 5.75 30.75 10.2 31.6 11.6 33.15 12.8 Q35.45 14.6 36.55 16.1 37.6 17.6 38.5 18.15 39.35 18.65 41.6 21.1 43.8 23.55 48.2 27.15 51.9 30.1 55.2 32.45 L60.6 36.45 65.2 39.65 Q67.7 41.2 70.1 43.8 72.15 45.9 74.6 47.5 76.7 48.85 78.4 50.8 L79.9 52.4 80.1 52.7 79.55 56.05 77.85 56.05 76.5 53.5 75.85 52.25 Q72.0 49.7 68.2 46.1 L61.6 40.0 57.55 36.3 55.75 34.35 55.25 33.95 54.3 33.25 50.35 30.45 Q44.0 25.65 38.25 20.1 L36.5 18.55 23.9 8.7 23.1 8.1 21.25 5.5 Q20.15 6.1 18.8 6.1 16.9 6.05 16.0 7.35 L14.2 11.35 Q12.55 13.55 9.8 12.45 L9.45 13.25 7.15 13.35 5.35 12.85 5.05 12.9 Q1.4 14.4 0.5 18.5 0.1 16.8 0.1 15.1 L0.3 13.1 Q0.6 11.9 1.4 11.15 3.9 8.9 7.15 10.05 L8.65 10.2 Q9.7 9.9 10.6 10.55 12.3 10.3 13.1 8.75 L13.85 7.05 Q14.75 4.7 16.5 3.2 18.65 1.25 21.75 1.35 L20.7 1.3 19.55 1.1 Q16.6 0.55 14.0 2.25 L12.8 3.3 11.05 5.2 Q9.7 6.6 7.65 6.95 L8.45 6.4 9.2 5.65 12.75 1.9 12.95 1.75 13.1 1.7 13.3 1.6 M13.35 1.65 L14.0 2.25 M24.95 -2.15 L22.55 -1.05 M22.4 0.5 L25.35 0.0 25.5 -0.05 M75.85 52.25 L74.2 49.75 72.15 47.3 Q69.75 44.55 66.6 42.7 L64.85 41.55 Q60.45 37.85 55.75 34.35 M21.8 1.35 L21.95 1.35 22.4 0.5 22.45 0.3 M21.8 1.35 L21.75 1.35 M21.8 1.35 L21.85 1.35 21.95 1.35 25.3 0.05 25.35 0.0 M21.25 5.5 L22.25 4.7 23.0 3.15 24.5 1.15 M22.25 4.7 L30.35 10.65 31.6 11.6 M13.35 1.65 L13.1 1.7 M16.0 7.35 L15.45 6.0 M9.8 12.45 L10.6 10.55" fill="none" stroke="#000000" stroke-linecap="round" stroke-linejoin="round" stroke-width="0.05"/>
  </g>
</svg>
