<?xml version="1.0" encoding="UTF-8" standalone="no"?>
<svg xmlns:xlink="http://www.w3.org/1999/xlink" height="56.9px" width="82.6px" xmlns="http://www.w3.org/2000/svg">
  <g transform="matrix(1.0, 0.0, 0.0, 1.0, 0.0, 0.0)">
    <path d="M82.4 53.35 Q83.0 55.45 81.55 56.9 L80.45 56.35 Q73.95 52.5 67.6 48.15 64.9 46.4 62.7 44.1 50.85 31.7 37.45 21.0 L27.6 13.3 Q22.95 9.6 17.0 8.75 14.6 9.7 14.15 12.2 L13.0 11.8 Q10.55 10.25 8.05 11.2 2.1 13.35 0.3 19.2 L0.0 10.65 Q3.8 8.8 8.3 8.6 L11.7 8.5 Q14.4 8.25 15.1 5.75 15.4 4.75 16.0 4.0 19.15 0.3 24.05 0.05 25.65 -0.15 26.75 1.0 L28.6 2.95 40.1 15.45 Q45.9 22.1 52.3 28.1 L65.4 40.05 Q70.85 45.05 77.45 48.0 81.3 49.6 82.4 53.35" fill="#413153" fill-rule="evenodd" stroke="none"/>
  </g>
</svg>
