<?xml version="1.0" encoding="UTF-8" standalone="no"?>
<svg xmlns:xlink="http://www.w3.org/1999/xlink" height="41.75px" width="27.45px" xmlns="http://www.w3.org/2000/svg">
  <g transform="matrix(1.0, 0.0, 0.0, 1.0, 0.0, 0.0)">
    <path d="M25.1 9.4 L25.25 9.65 Q26.2 11.8 26.55 14.1 27.1 18.0 26.75 22.2 L25.9 30.65 Q25.4 34.9 25.4 36.95 25.35 38.95 24.9 40.55 L20.55 42.05 Q18.55 42.6 16.7 41.4 14.8 40.15 13.7 38.65 12.6 37.1 11.75 35.25 8.0 27.1 2.75 19.7 0.15 16.0 0.3 11.45 0.45 6.1 4.05 2.15 L5.25 0.75 11.0 0.45 Q15.35 2.35 19.1 5.05 20.2 5.85 23.55 6.8 L25.1 9.4 M12.65 24.05 L12.05 25.95 10.8 26.85 Q12.05 32.15 15.6 36.3 L16.65 35.1 16.65 34.1 15.2 33.1 14.65 32.45 16.8 31.8 17.3 30.9 Q16.25 29.0 14.0 29.45 13.35 29.15 13.2 28.35 L13.55 27.45 15.3 27.05 Q17.1 26.45 18.55 25.1 L18.3 24.7 Q16.15 22.15 12.65 24.05 11.0 24.25 9.75 23.55 7.95 22.4 9.35 20.8 L12.8 16.25 Q16.8 10.15 9.1 8.05 5.25 7.2 3.9 10.8 0.8 18.95 9.3 16.75 L9.35 14.2 Q9.0 10.7 5.15 11.8 L4.75 13.4 Q4.65 14.7 5.85 15.45 L6.5 15.5 7.1 14.7 6.65 12.85 7.1 14.7 6.5 15.5 5.85 15.45 Q4.65 14.7 4.75 13.4 L5.15 11.8 Q9.0 10.7 9.35 14.2 L9.3 16.75 Q0.8 18.95 3.9 10.8 5.25 7.2 9.1 8.05 16.8 10.15 12.8 16.25 L9.35 20.8 Q7.95 22.4 9.75 23.55 11.0 24.25 12.65 24.05 11.95 18.75 17.3 18.75 L17.95 18.1 Q17.8 15.6 16.3 13.2 L15.85 12.1 Q18.3 8.65 22.95 10.25 L22.7 11.6 17.8 11.9 18.1 12.3 22.4 13.8 21.95 14.65 19.45 15.05 21.15 16.4 20.8 17.2 19.95 17.45 20.85 22.05 21.9 18.4 22.3 19.45 23.3 20.25 24.7 18.75 23.3 20.25 22.3 19.45 21.9 18.4 20.85 22.05 19.95 17.45 20.8 17.2 21.15 16.4 19.45 15.05 21.95 14.65 22.4 13.8 18.1 12.3 17.8 11.9 22.7 11.6 22.95 10.25 Q18.3 8.65 15.85 12.1 L16.3 13.2 Q17.8 15.6 17.95 18.1 L17.3 18.75 Q11.95 18.75 12.65 24.05 16.15 22.15 18.3 24.7 L18.55 25.1 Q17.1 26.45 15.3 27.05 L13.55 27.45 13.2 28.35 Q13.35 29.15 14.0 29.45 16.25 29.0 17.3 30.9 L16.8 31.8 14.65 32.45 15.2 33.1 16.65 34.1 16.65 35.1 15.6 36.3 Q12.05 32.15 10.8 26.85 L12.05 25.95 12.65 24.05" fill="#990000" fill-rule="evenodd" stroke="none"/>
    <path d="M25.1 9.4 L25.25 9.65 Q26.2 11.8 26.55 14.1 27.1 18.0 26.75 22.2 L25.9 30.65 Q25.4 34.9 25.4 36.95 25.35 38.95 24.9 40.55 L20.55 42.05 Q18.55 42.6 16.7 41.4 14.8 40.15 13.7 38.65 12.6 37.1 11.75 35.25 8.0 27.1 2.75 19.7 0.15 16.0 0.3 11.45 0.45 6.1 4.05 2.15 L5.25 0.75 M23.55 6.8 L25.1 9.4 Q26.05 7.7 27.75 7.4" fill="none" stroke="#000000" stroke-linecap="round" stroke-linejoin="round" stroke-width="0.05"/>
    <path d="M6.65 12.85 L7.1 14.7 6.5 15.5 5.85 15.45 Q4.65 14.7 4.75 13.4 L5.15 11.8 Q9.0 10.7 9.35 14.2 L9.3 16.75 Q0.8 18.95 3.9 10.8 5.25 7.2 9.1 8.05 16.8 10.15 12.8 16.25 L9.35 20.8 Q7.95 22.4 9.75 23.55 11.0 24.25 12.65 24.05 11.95 18.75 17.3 18.75 L17.95 18.1 Q17.8 15.6 16.3 13.2 L15.85 12.1 Q18.3 8.65 22.95 10.25 L22.7 11.6 17.8 11.9 18.1 12.3 22.4 13.8 21.95 14.65 19.45 15.05 21.15 16.4 20.8 17.2 19.95 17.45 20.85 22.05 21.9 18.4 22.3 19.45 23.3 20.25 24.7 18.75 M12.65 24.05 Q16.15 22.15 18.3 24.7 L18.55 25.1 Q17.1 26.45 15.3 27.05 L13.55 27.45 13.2 28.35 Q13.35 29.15 14.0 29.45 16.25 29.0 17.3 30.9 L16.8 31.8 14.65 32.45 15.2 33.1 16.65 34.1 16.65 35.1 15.6 36.3 Q12.05 32.15 10.8 26.85 L12.05 25.95 12.65 24.05 Z" fill="none" stroke="#ffcc00" stroke-linecap="round" stroke-linejoin="round" stroke-width="0.05"/>
  </g>
</svg>
