<?xml version="1.0" encoding="UTF-8" standalone="no"?>
<svg xmlns:xlink="http://www.w3.org/1999/xlink" height="41.05px" width="25.2px" xmlns="http://www.w3.org/2000/svg">
  <g transform="matrix(1.0, 0.0, 0.0, 1.0, 0.0, 0.0)">
    <path d="M13.1 27.15 L13.1 26.95 13.15 27.05 13.1 26.95 13.2 27.0 13.15 27.05 13.1 27.15" fill="#413153" fill-rule="evenodd" stroke="none"/>
    <path d="M16.8 23.3 L17.8 28.45 19.15 33.95 Q19.9 36.55 21.8 38.45 L22.55 39.2 22.7 39.45 22.6 40.65 Q22.05 41.35 21.35 41.1 L18.55 41.25 17.6 41.75 Q16.3 41.65 16.0 40.4 15.65 39.15 15.85 38.1 16.25 36.15 15.75 34.3 L14.9 31.25 14.1 29.0 13.15 27.05 13.2 27.0 13.1 26.95 13.25 24.25 13.15 22.0 13.0 20.95 12.4 19.1 12.7 17.95 Q13.35 15.75 14.85 14.15 13.35 15.75 12.7 17.95 L12.4 19.1 Q11.85 15.55 12.85 12.2 12.9 13.15 13.55 13.55 14.3 14.05 14.85 14.15 L15.5 15.85 16.05 16.2 16.15 18.55 14.45 19.6 13.0 20.95 14.45 19.6 16.15 18.55 16.45 21.25 16.65 22.45 Q15.75 22.8 14.9 23.3 14.05 23.7 13.25 24.25 14.05 23.7 14.9 23.3 15.75 22.8 16.65 22.45 L16.8 23.3 Q14.7 24.4 13.5 26.4 L13.2 27.0 13.5 26.4 Q14.7 24.4 16.8 23.3 M13.15 22.0 L14.8 21.45 16.45 21.25 14.8 21.45 13.15 22.0" fill="#552811" fill-rule="evenodd" stroke="none"/>
    <path d="M21.3 6.75 L22.65 8.4 23.35 9.3 22.9 9.4 20.55 9.7 20.7 10.8 20.55 9.7 22.9 9.4 23.35 9.3 24.7 11.9 Q25.8 14.65 25.7 17.8 25.6 21.85 24.3 25.3 L23.65 24.4 22.55 23.7 Q22.2 22.55 21.25 21.95 L20.75 21.65 19.5 21.2 Q18.75 19.3 17.1 18.15 L16.05 16.2 15.5 15.85 14.85 14.15 Q14.3 14.05 13.55 13.55 12.9 13.15 12.85 12.2 11.85 15.55 12.4 19.1 L13.0 20.95 13.15 22.0 13.25 24.25 13.1 26.95 13.1 27.15 13.0 28.9 11.4 31.25 10.75 32.7 9.85 31.1 6.85 25.85 8.65 24.1 10.65 22.4 10.1 22.65 8.05 23.6 Q7.0 24.0 6.1 24.7 L4.95 22.9 2.15 18.8 1.55 17.75 Q1.1 16.85 0.9 15.8 0.4 13.6 0.55 11.5 0.65 9.55 1.1 7.7 1.85 4.7 4.05 2.15 L5.25 0.75 10.9 1.0 Q13.1 1.5 15.2 2.65 L19.05 5.15 21.3 6.75 M19.0 10.65 Q18.85 10.25 18.85 9.85 L19.35 9.8 20.55 9.7 20.4 8.8 20.25 7.9 20.4 8.8 20.55 9.7 19.35 9.8 18.85 9.85 Q18.85 10.25 19.0 10.65 M7.9 7.75 Q7.6 7.85 7.4 8.05 L4.1 12.25 2.6 14.9 1.6 17.45 1.55 17.75 1.6 17.45 2.6 14.9 4.1 12.25 7.4 8.05 Q7.6 7.85 7.9 7.75 M8.65 7.75 L7.95 8.4 4.8 12.6 3.1 15.3 4.8 12.6 7.95 8.4 8.65 7.75 M22.4 10.65 L18.05 12.15 17.3 12.35 18.05 12.15 22.4 10.65 M19.0 8.35 L18.95 8.65 18.85 9.85 15.2 9.65 Q14.6 9.6 14.15 9.15 14.6 9.6 15.2 9.65 L18.85 9.85 18.95 8.65 19.0 8.35 M12.35 21.8 L13.0 20.95 12.35 21.8 M19.8 18.4 L17.1 18.15 19.8 18.4" fill="#4b5963" fill-rule="evenodd" stroke="none"/>
    <path d="M20.75 21.65 L21.25 21.95 Q22.2 22.55 22.55 23.7 L23.65 24.4 21.95 24.1 Q21.3 25.15 19.95 25.5 18.75 25.9 18.3 27.05 L17.8 28.45 16.8 23.3 19.8 21.8 20.75 21.65 19.8 21.8 16.8 23.3 16.65 22.45 16.45 21.25 16.15 18.55 17.1 18.15 16.15 18.55 16.05 16.2 17.1 18.15 Q18.75 19.3 19.5 21.2 L20.75 21.65 M19.8 21.8 L18.95 21.95 16.45 21.25 18.95 21.95 19.8 21.8 M18.95 21.95 L16.65 22.45 18.95 21.95" fill="#375511" fill-rule="evenodd" stroke="none"/>
    <path d="M23.35 9.3 L22.65 8.4 21.3 6.75 M5.25 0.75 L4.05 2.15 Q1.85 4.7 1.1 7.7 0.65 9.55 0.55 11.5 0.4 13.6 0.9 15.8 1.1 16.85 1.55 17.75 L1.6 17.45 2.6 14.9 4.1 12.25 7.4 8.05 Q7.6 7.85 7.9 7.75 M23.35 9.3 L22.9 9.4 20.55 9.7 20.7 10.8 M20.25 7.9 L20.4 8.8 20.55 9.7 19.35 9.8 18.85 9.85 Q18.85 10.25 19.0 10.65 M23.65 24.4 L24.3 25.3 Q25.6 21.85 25.7 17.8 25.8 14.65 24.7 11.9 L23.35 9.3 M23.65 24.4 L22.55 23.7 Q22.2 22.55 21.25 21.95 L20.75 21.65 19.8 21.8 16.8 23.3 17.8 28.45 18.3 27.05 Q18.75 25.9 19.95 25.5 21.3 25.15 21.95 24.1 L23.65 24.4 M14.15 9.15 Q14.6 9.6 15.2 9.65 L18.85 9.85 18.95 8.65 19.0 8.35 M17.3 12.35 L18.05 12.15 22.4 10.65 M3.1 15.3 L4.8 12.6 7.95 8.4 8.65 7.75 M1.55 17.75 L2.15 18.8 4.95 22.9 6.1 24.7 Q7.0 24.0 8.05 23.6 L10.1 22.65 10.65 22.4 8.65 24.1 6.85 25.85 9.85 31.1 10.75 32.7 11.4 31.25 13.0 28.9 13.1 27.15 13.1 26.95 13.25 24.25 13.15 22.0 13.0 20.95 12.35 21.8 M17.1 18.15 L16.15 18.55 16.45 21.25 18.95 21.95 19.8 21.8 M17.1 18.15 L19.8 18.4 M16.05 16.2 L17.1 18.15 Q18.75 19.3 19.5 21.2 L20.75 21.65 M16.15 18.55 L16.05 16.2 15.5 15.85 14.85 14.15 Q13.35 15.75 12.7 17.95 L12.4 19.1 13.0 20.95 14.45 19.6 16.15 18.55 M12.4 19.1 Q11.85 15.55 12.85 12.2 12.9 13.15 13.55 13.55 14.3 14.05 14.85 14.15 M13.25 24.25 Q14.05 23.7 14.9 23.3 15.75 22.8 16.65 22.45 L16.45 21.25 14.8 21.45 13.15 22.0 M16.65 22.45 L18.95 21.95 M16.65 22.45 L16.8 23.3 Q14.7 24.4 13.5 26.4 L13.2 27.0 13.15 27.05 14.1 29.0 14.9 31.25 15.75 34.3 Q16.25 36.15 15.85 38.1 15.65 39.15 16.0 40.4 16.3 41.65 17.6 41.75 L18.55 41.25 21.35 41.1 Q22.05 41.35 22.6 40.65 L22.7 39.45 22.55 39.2 21.8 38.45 Q19.9 36.55 19.15 33.95 L17.8 28.45 M13.1 27.15 L13.15 27.05 13.1 26.95" fill="none" stroke="#000000" stroke-linecap="round" stroke-linejoin="round" stroke-width="0.05"/>
  </g>
</svg>
