<?xml version="1.0" encoding="UTF-8" standalone="no"?>
<svg xmlns:xlink="http://www.w3.org/1999/xlink" height="25.7px" width="15.5px" xmlns="http://www.w3.org/2000/svg">
  <g transform="matrix(1.0, 0.0, 0.0, 1.0, 0.0, 0.0)">
    <path d="M9.35 10.8 L13.55 10.1 13.7 8.95 14.85 8.85 14.95 9.05 14.85 10.35 15.7 10.6 M5.9 11.0 L2.45 12.1 1.5 9.75 M4.4 18.25 L5.55 18.1 Q6.25 21.75 7.8 25.15 L8.3 26.15 9.7 26.05 M14.3 17.65 L15.7 17.3 M12.25 19.3 L10.9 15.35 Q13.85 14.1 17.0 13.15 M13.2 16.35 L15.55 15.65" fill="none" stroke="#ff6600" stroke-linecap="round" stroke-linejoin="round" stroke-width="0.05"/>
    <path d="M9.35 8.6 L12.4 7.9 13.05 7.55 12.55 7.05 12.1 6.35 13.1 6.05 14.15 6.65 M5.3 6.45 L6.5 5.8 5.3 5.55 4.95 5.45 5.0 5.2 Q5.05 5.1 5.15 5.1 L5.35 5.15 5.6 5.15 Q6.25 4.95 6.4 4.35 6.2 3.9 5.55 3.95 5.15 3.75 5.45 3.3 M8.5 13.75 Q8.25 11.95 7.35 10.4 L6.85 9.5 5.35 10.4 3.95 10.45 Q3.85 8.85 2.75 7.3 5.6 8.8 7.8 6.8 L8.05 6.45 M4.95 16.1 L5.95 15.7 6.7 15.55 Q7.4 19.9 9.1 24.05 L9.4 24.45 10.2 24.0 10.85 23.7 Q11.45 23.25 12.15 22.95 L13.5 27.45 13.8 28.95 13.7 29.0 13.0 28.8 12.2 28.6 12.2 27.9 12.25 27.6 12.3 27.55 12.4 27.65 12.45 28.0 M5.8 21.05 Q2.5 18.75 2.5 14.5 L2.5 13.15 Q4.6 12.8 6.6 12.0 L8.6 17.05 9.9 17.3 10.4 19.25 10.45 19.65 9.75 20.15 9.25 20.4 8.75 20.15" fill="none" stroke="#ffcc00" stroke-linecap="round" stroke-linejoin="round" stroke-width="0.05"/>
  </g>
</svg>
