<?xml version="1.0" encoding="UTF-8" standalone="no"?>
<svg xmlns:xlink="http://www.w3.org/1999/xlink" height="41.85px" width="25.4px" xmlns="http://www.w3.org/2000/svg">
  <g transform="matrix(1.0, 0.0, 0.0, 1.0, 0.0, 0.0)">
    <path d="M25.25 13.9 Q26.2 17.75 25.25 21.65 24.1 26.25 23.7 31.1 23.4 34.65 23.5 38.1 L23.45 40.35 Q22.55 41.5 21.0 41.85 L15.9 42.1 Q13.6 41.55 13.05 39.05 12.6 37.1 11.75 35.25 8.0 27.1 2.75 19.7 0.15 16.0 0.3 11.45 0.45 6.1 4.05 2.15 L5.25 0.75 11.0 0.45 Q15.35 2.35 19.1 5.05 L21.3 6.75 Q24.25 9.75 25.25 13.9" fill="#413153" fill-rule="evenodd" stroke="none"/>
  </g>
</svg>
