<?xml version="1.0" encoding="UTF-8" standalone="no"?>
<svg xmlns:xlink="http://www.w3.org/1999/xlink" height="28.75px" width="38.5px" xmlns="http://www.w3.org/2000/svg">
  <g transform="matrix(1.0, 0.0, 0.0, 1.0, 0.0, 0.0)">
    <path d="M18.15 0.9 L20.65 4.25 29.8 3.85 Q34.65 3.5 38.35 0.25 L37.25 2.3 Q35.6 4.3 33.0 5.15 L31.3 5.6 21.2 6.45 21.05 6.5 21.05 6.85 20.35 9.3 16.95 15.55 28.8 15.1 33.0 14.0 34.4 13.55 35.05 13.25 34.6 13.8 Q32.8 16.15 29.7 16.55 L27.75 16.7 18.85 17.45 15.4 18.1 10.95 24.05 Q14.95 23.95 18.4 24.2 L20.35 23.95 22.6 23.1 Q18.6 26.0 13.15 25.75 11.8 26.2 9.0 25.7 L5.7 29.0 -0.15 26.8 4.5 17.5 Q6.5 13.35 7.85 9.4 9.2 5.45 9.75 1.85 14.7 0.9 18.05 0.9 L18.15 0.9 M20.65 4.25 L21.05 6.5 20.65 4.25 M9.0 25.7 L10.95 24.05 9.0 25.7 M16.95 15.55 L15.4 18.1 16.95 15.55" fill="#990000" fill-rule="evenodd" stroke="none"/>
    <path d="M31.3 5.6 L28.7 7.3 32.95 8.25 25.9 12.25 26.5 13.1 Q27.5 14.25 28.8 15.1 L16.95 15.55 20.35 9.3 21.05 6.85 21.05 6.5 21.2 6.45 31.3 5.6 M27.75 16.7 L25.65 18.35 28.4 19.45 27.2 19.9 Q23.3 20.6 20.05 22.6 L20.35 23.95 18.4 24.2 Q14.95 23.95 10.95 24.05 L15.4 18.1 18.85 17.45 27.75 16.7 M21.9 9.2 L20.35 9.3 21.9 9.2 M24.25 6.9 L23.05 7.15 21.9 7.55 23.05 7.15 24.25 6.9 M22.8 14.15 L18.8 13.65 22.8 14.15 M17.85 19.55 L16.0 19.3 17.85 19.55" fill="url(#gradient0)" fill-rule="evenodd" stroke="none"/>
    <path d="M18.15 0.9 L20.65 4.25 29.8 3.85 Q34.65 3.5 38.35 0.25 L37.25 2.3 Q35.6 4.3 33.0 5.15 L31.3 5.6 21.2 6.45 21.05 6.5 21.05 6.85 20.35 9.3 16.95 15.55 28.8 15.1 33.0 14.0 34.4 13.55 35.05 13.25 34.6 13.8 Q32.8 16.15 29.7 16.55 L27.75 16.7 18.85 17.45 15.4 18.1 16.95 15.55 M20.35 23.95 L22.6 23.1 Q18.6 26.0 13.15 25.75 11.8 26.2 9.0 25.7 L5.7 29.0 -0.15 26.8 4.5 17.5 Q6.5 13.35 7.85 9.4 9.2 5.45 9.75 1.85 M21.05 6.5 L20.65 4.25 M20.35 23.95 L18.4 24.2 Q14.95 23.95 10.95 24.05 L9.0 25.7 M10.95 24.05 L15.4 18.1" fill="none" stroke="#000000" stroke-linecap="round" stroke-linejoin="round" stroke-width="0.05"/>
    <path d="M31.3 5.6 L28.7 7.3 32.95 8.25 25.9 12.25 26.5 13.1 Q27.5 14.25 28.8 15.1 M27.75 16.7 L25.65 18.35 28.4 19.45 27.2 19.9 Q23.3 20.6 20.05 22.6 L20.35 23.95 M20.35 9.3 L21.9 9.2 M21.9 7.55 L23.05 7.15 24.25 6.9 M16.0 19.3 L17.85 19.55 M18.8 13.65 L22.8 14.15" fill="none" stroke="#ffcc00" stroke-linecap="round" stroke-linejoin="round" stroke-width="0.05"/>
  </g>
  <defs>
    <linearGradient gradientTransform="matrix(0.0076, 0.0023, -0.0029, 0.0099, 22.5, 15.05)" gradientUnits="userSpaceOnUse" id="gradient0" spreadMethod="pad" x1="-819.2" x2="819.2">
      <stop offset="0.0" stop-color="#ff0000" stop-opacity="0.57254905"/>
      <stop offset="1.0" stop-color="#ff9605" stop-opacity="0.4509804"/>
    </linearGradient>
  </defs>
</svg>
