<?xml version="1.0" encoding="UTF-8" standalone="no"?>
<svg xmlns:xlink="http://www.w3.org/1999/xlink" height="27.35px" width="18.3px" xmlns="http://www.w3.org/2000/svg">
  <g transform="matrix(1.0, 0.0, 0.0, 1.0, 0.0, 0.0)">
    <path d="M16.85 6.1 L15.75 2.9 16.85 6.1 16.95 7.7 Q15.4 9.05 14.35 11.0 13.4 12.7 12.7 14.5 11.7 17.15 10.3 19.6 9.85 19.15 9.0 19.9 L7.8 20.65 7.45 20.9 Q8.0 19.45 8.7 18.3 L10.35 15.15 12.1 10.55 12.55 8.8 Q13.1 6.3 14.4 4.1 13.1 6.3 12.55 8.8 L12.1 10.55 10.35 15.15 8.7 18.3 Q8.0 19.45 7.45 20.9 L6.7 21.2 Q6.1 21.3 5.6 21.65 L3.4 22.35 4.0 21.25 4.6 20.5 Q6.75 18.1 7.9 15.15 L8.6 13.5 Q10.4 9.6 10.05 5.45 10.8 4.25 11.8 3.85 L13.6 3.1 13.95 3.8 14.4 4.1 15.45 2.45 15.75 2.9 16.1 1.95 17.15 1.7 Q18.1 2.7 18.45 4.2 17.95 5.35 16.85 6.1" fill="#552811" fill-rule="evenodd" stroke="none"/>
    <path d="M7.45 20.9 L7.8 20.65 9.0 19.9 Q9.85 19.15 10.3 19.6 L10.5 20.2 10.0 22.25 10.2 22.85 9.8 23.5 9.3 23.95 6.2 28.55 6.1 28.65 5.85 28.9 4.15 28.85 0.5 27.3 0.15 26.85 0.6 26.05 Q1.45 23.8 3.4 22.35 L5.6 21.65 Q6.1 21.3 6.7 21.2 L7.45 20.9" fill="#4b5963" fill-rule="evenodd" stroke="none"/>
    <path d="M15.75 2.9 L16.85 6.1 Q17.95 5.35 18.45 4.2 18.1 2.7 17.15 1.7 L16.1 1.95 15.75 2.9 15.45 2.45 14.4 4.1 Q13.1 6.3 12.55 8.8 L12.1 10.55 10.35 15.15 8.7 18.3 Q8.0 19.45 7.45 20.9 L7.8 20.65 9.0 19.9 Q9.85 19.15 10.3 19.6 11.7 17.15 12.7 14.5 13.4 12.7 14.35 11.0 15.4 9.05 16.95 7.7 L16.85 6.1 M3.4 22.35 L4.0 21.25 4.6 20.5 Q6.75 18.1 7.9 15.15 L8.6 13.5 Q10.4 9.6 10.05 5.45 10.8 4.25 11.8 3.85 L13.6 3.1 13.95 3.8 M7.45 20.9 L6.7 21.2 Q6.1 21.3 5.6 21.65 L3.4 22.35 Q1.45 23.8 0.6 26.05 L0.15 26.85 0.5 27.3 M5.85 28.9 L6.1 28.65 6.2 28.55 9.3 23.95 9.8 23.5 10.2 22.85 10.0 22.25 10.5 20.2 10.3 19.6" fill="none" stroke="#000000" stroke-linecap="round" stroke-linejoin="round" stroke-width="0.05"/>
  </g>
</svg>
