<?xml version="1.0" encoding="UTF-8" standalone="no"?>
<svg xmlns:xlink="http://www.w3.org/1999/xlink" height="28.65px" width="18.95px" xmlns="http://www.w3.org/2000/svg">
  <g transform="matrix(1.0, 0.0, 0.0, 1.0, 0.0, 0.0)">
    <path d="M18.4 8.2 L16.05 12.75 13.05 17.8 10.25 22.45 8.85 24.8 7.55 27.4 6.3 28.65 3.85 28.55 1.35 28.05 0.1 27.25 Q-0.15 26.9 0.25 26.3 L2.3 22.85 Q4.15 18.95 5.2 14.9 L6.1 11.7 7.3 7.7 8.45 2.95 Q8.7 1.9 9.5 1.25 11.85 0.45 14.45 0.1 L16.95 0.2 17.25 0.3 Q18.35 2.4 18.8 4.7 19.2 6.5 18.4 8.2" fill="#b49a6e" fill-rule="evenodd" stroke="none"/>
    <path d="M18.4 8.2 L16.05 12.75 13.05 17.8 10.25 22.45 8.85 24.8 7.55 27.4 6.3 28.65 3.85 28.55 1.35 28.05 0.1 27.25 Q-0.15 26.9 0.25 26.3 L2.3 22.85 Q4.15 18.95 5.2 14.9 L6.1 11.7 7.3 7.7 8.45 2.95 Q8.7 1.9 9.5 1.25 11.85 0.45 14.45 0.1 L16.95 0.2 17.25 0.3 Q18.35 2.4 18.8 4.7 19.2 6.5 18.4 8.2 Z" fill="none" stroke="#000000" stroke-linecap="round" stroke-linejoin="round" stroke-width="0.05"/>
  </g>
</svg>
