<?xml version="1.0" encoding="UTF-8" standalone="no"?>
<svg xmlns:xlink="http://www.w3.org/1999/xlink" height="29.1px" width="36.2px" xmlns="http://www.w3.org/2000/svg">
  <g transform="matrix(1.0, 0.0, 0.0, 1.0, 0.0, 0.0)">
    <path d="M18.25 23.25 L20.5 22.4 Q16.5 25.3 11.05 25.05 L8.6 25.3 7.35 27.25 6.3 28.65 Q3.65 28.8 1.5 27.7 L0.05 26.85 Q2.65 22.45 4.3 17.55 L6.75 9.1 Q7.75 5.05 9.5 1.25 12.6 0.2 15.95 0.2 L17.25 0.3 18.55 3.55 27.7 3.15 Q32.55 2.8 36.25 -0.45 L35.15 1.6 Q33.5 3.6 30.9 4.45 L29.2 4.9 19.1 5.75 18.95 5.8 Q18.5 5.9 18.8 6.1 L18.95 6.15 18.25 8.6 14.85 14.85 26.7 14.4 30.9 13.3 32.3 12.85 32.5 13.1 Q30.7 15.45 27.6 15.85 L25.65 16.0 16.75 16.75 13.3 17.4 9.65 23.45 Q12.85 23.25 16.3 23.5 L18.25 23.25" fill="#413153" fill-rule="evenodd" stroke="none"/>
    <path d="M29.2 4.9 L26.6 6.6 30.85 7.55 23.8 11.55 24.4 12.4 26.7 14.4 14.85 14.85 18.25 8.6 18.95 6.15 18.95 5.8 19.1 5.75 29.2 4.9 M25.65 16.0 L23.55 17.65 26.3 18.75 25.1 19.2 Q21.2 19.9 17.95 21.9 L18.25 23.25 16.3 23.5 Q12.85 23.25 9.65 23.45 L13.3 17.4 16.75 16.75 25.65 16.0" fill="url(#gradient0)" fill-rule="evenodd" stroke="none"/>
  </g>
  <defs>
    <linearGradient gradientTransform="matrix(0.0076, 0.0023, -0.0029, 0.0099, 20.4, 14.35)" gradientUnits="userSpaceOnUse" id="gradient0" spreadMethod="pad" x1="-819.2" x2="819.2">
      <stop offset="0.0" stop-color="#ff0000" stop-opacity="0.57254905"/>
      <stop offset="1.0" stop-color="#ff9605" stop-opacity="0.4509804"/>
    </linearGradient>
  </defs>
</svg>
