<?xml version="1.0" encoding="UTF-8" standalone="no"?>
<svg xmlns:xlink="http://www.w3.org/1999/xlink" height="30.65px" width="36.0px" xmlns="http://www.w3.org/2000/svg">
  <g transform="matrix(1.0, 0.0, 0.0, 1.0, 0.0, 0.0)">
    <path d="M23.0 15.0 L22.1 16.35 19.95 18.45 Q16.0 21.15 11.45 22.75 16.0 21.15 19.95 18.45 L22.1 16.35 23.0 15.0 M23.15 22.95 Q20.85 23.8 18.8 24.9 L18.0 23.85 Q17.1 24.35 16.15 25.2 L15.05 25.85 Q11.85 27.55 9.5 30.65 9.15 28.1 9.6 25.5 L9.9 24.7 11.45 22.75 Q7.25 23.65 3.75 25.75 3.1 26.1 2.55 26.55 2.2 22.3 5.35 20.3 6.4 19.65 7.55 19.55 L0.4 19.8 Q3.1 14.5 8.85 14.9 L11.7 15.35 Q13.8 14.95 15.35 13.65 22.05 7.85 27.05 0.9 27.45 0.3 28.15 0.15 32.15 -0.7 34.15 2.75 36.55 6.9 36.4 12.05 L33.35 8.85 28.65 22.45 24.4 22.7 23.15 22.95 M19.65 12.95 L18.75 14.1 Q14.5 18.9 8.0 19.55 L7.55 19.55 8.0 19.55 Q14.5 18.9 18.75 14.1 L19.65 12.95" fill="#b49a6e" fill-rule="evenodd" stroke="none"/>
    <path d="M11.45 22.75 Q16.0 21.15 19.95 18.45 L22.1 16.35 23.0 15.0 M23.15 22.95 Q20.85 23.8 18.8 24.9 L18.0 23.85 Q17.1 24.35 16.15 25.2 L15.05 25.85 Q11.85 27.55 9.5 30.65 9.15 28.1 9.6 25.5 L9.9 24.7 11.45 22.75 Q7.25 23.65 3.75 25.75 3.1 26.1 2.55 26.55 2.2 22.3 5.35 20.3 6.4 19.65 7.55 19.55 L0.4 19.8 Q3.1 14.5 8.85 14.9 L11.7 15.35 Q13.8 14.95 15.35 13.65 22.05 7.85 27.05 0.9 27.45 0.3 28.15 0.15 32.15 -0.7 34.15 2.75 36.55 6.9 36.4 12.05 L33.35 8.85 28.65 22.45 24.4 22.7 23.15 22.95 M7.55 19.55 L8.0 19.55 Q14.5 18.9 18.75 14.1 L19.65 12.95" fill="none" stroke="#000000" stroke-linecap="round" stroke-linejoin="round" stroke-width="0.05"/>
  </g>
</svg>
