<?xml version="1.0" encoding="UTF-8" standalone="no"?>
<svg xmlns:xlink="http://www.w3.org/1999/xlink" height="48.65px" width="54.1px" xmlns="http://www.w3.org/2000/svg">
  <g transform="matrix(1.0, 0.0, 0.0, 1.0, 0.0, 0.0)">
    <path d="M18.0 0.7 L18.3 0.65 18.25 0.85 18.0 0.7" fill="#413153" fill-rule="evenodd" stroke="none"/>
    <path d="M13.0 -1.2 L16.3 -0.25 Q17.15 0.75 18.0 0.7 L18.25 0.85 18.3 0.65 Q24.95 0.65 31.55 0.95 L41.25 0.15 Q42.6 0.0 43.8 -0.7 L42.85 0.3 Q41.2 1.95 38.85 1.95 L38.4 1.95 31.5 2.35 27.55 2.4 Q25.1 2.35 22.8 3.2 26.65 6.15 28.4 10.65 29.55 13.65 30.35 16.8 33.7 16.5 37.0 17.5 41.7 18.8 46.6 18.85 L48.4 18.8 Q51.75 18.45 55.05 17.25 L55.1 17.4 54.0 18.1 Q50.1 20.3 45.7 20.25 L41.7 20.15 Q37.35 19.9 33.0 19.95 L31.1 20.25 30.35 16.8 31.1 20.25 32.95 31.05 33.8 30.9 36.3 31.4 40.3 32.45 Q44.85 33.8 49.45 33.1 L49.9 33.05 51.55 32.8 Q53.55 32.3 55.35 31.3 L54.9 31.85 Q52.75 33.75 49.95 34.3 L48.8 34.55 43.6 34.05 34.15 33.8 33.3 34.05 34.1 41.45 34.1 41.55 34.1 41.85 Q32.0 43.05 28.4 44.45 L22.45 46.3 Q17.75 47.55 12.55 47.45 L11.85 35.55 10.85 27.65 Q10.5 24.5 9.35 21.25 8.05 17.2 6.15 13.9 L4.0 10.55 1.6 7.25 4.05 4.9 Q6.1 3.15 6.55 2.25 7.75 -0.15 13.0 -1.2 M33.3 34.05 L32.95 31.05 33.3 34.05 M22.6 3.05 L21.15 2.3 18.25 0.85 21.15 2.3 22.6 3.05 22.8 3.2 22.6 3.05 M24.35 31.25 Q23.45 33.4 21.7 34.4 19.85 35.45 17.8 35.0 L17.45 35.6 13.8 34.9 11.85 35.55 13.8 34.9 17.45 35.6 17.8 35.0 Q19.85 35.45 21.7 34.4 23.45 33.4 24.35 31.25 M9.35 21.25 Q11.35 19.2 14.25 20.1 15.7 18.4 17.55 17.3 L19.05 16.25 Q20.05 15.4 20.25 14.1 20.05 15.4 19.05 16.25 L17.55 17.3 Q15.7 18.4 14.25 20.1 11.35 19.2 9.35 21.25" fill="#990000" fill-rule="evenodd" stroke="none"/>
    <path d="M38.55 2.2 L37.15 3.25 40.3 4.7 37.9 6.3 Q36.6 6.95 36.0 8.05 36.6 9.15 37.95 9.6 39.35 9.85 40.5 10.55 L41.25 11.1 38.65 12.5 Q39.65 14.7 41.75 16.0 L45.6 18.15 46.6 18.85 Q41.7 18.8 37.0 17.5 33.7 16.5 30.35 16.8 29.55 13.65 28.4 10.65 26.65 6.15 22.8 3.2 25.1 2.35 27.55 2.4 L31.5 2.35 38.4 1.95 38.55 2.2 M45.7 20.25 L45.3 21.2 46.85 21.95 43.6 23.55 47.35 25.45 41.7 27.55 Q42.1 29.9 44.4 31.3 45.95 32.3 47.85 32.55 L49.6 32.85 49.45 33.1 Q44.85 33.8 40.3 32.45 L36.3 31.4 33.8 30.9 32.95 31.05 31.1 20.25 33.0 19.95 Q37.35 19.9 41.7 20.15 L45.7 20.25 M49.95 34.3 L48.95 35.35 50.2 35.9 50.3 36.75 46.65 38.4 Q46.0 38.65 45.7 39.35 L47.35 40.5 46.0 40.9 41.45 41.55 Q38.1 41.85 34.1 41.55 L34.1 41.45 33.3 34.05 34.15 33.8 43.6 34.05 48.8 34.55 49.95 34.3 M30.4 10.15 L32.75 10.6 30.4 10.15 M31.55 15.55 L37.0 15.8 31.55 15.55 M33.45 22.85 L36.3 23.3 33.45 22.85 M28.05 5.2 L32.75 4.95 28.05 5.2 M35.35 28.75 L37.7 28.75 35.35 28.75 M35.1 36.75 L41.45 37.0 35.1 36.75" fill="url(#gradient0)" fill-rule="evenodd" stroke="none"/>
    <path d="M16.3 -0.25 L18.0 0.7 18.3 0.65 Q24.95 0.65 31.55 0.95 L41.25 0.15 Q42.6 0.0 43.8 -0.7 L42.85 0.3 Q41.2 1.95 38.85 1.95 L38.4 1.95 31.5 2.35 27.55 2.4 Q25.1 2.35 22.8 3.2 26.65 6.15 28.4 10.65 29.55 13.65 30.35 16.8 33.7 16.5 37.0 17.5 41.7 18.8 46.6 18.85 L48.4 18.8 Q51.75 18.45 55.05 17.25 L55.7 17.0 55.1 17.4 54.0 18.1 Q50.1 20.3 45.7 20.25 L41.7 20.15 Q37.35 19.9 33.0 19.95 L31.1 20.25 32.95 31.05 33.3 34.05 34.1 41.45 34.1 41.55 34.1 41.85 M49.9 33.05 L51.55 32.8 Q53.55 32.3 55.35 31.3 L54.9 31.85 Q52.75 33.75 49.95 34.3 L48.8 34.55 43.6 34.05 34.15 33.8 33.3 34.05 M12.55 47.45 L11.85 35.55 10.85 27.65 Q10.5 24.5 9.35 21.25 8.05 17.2 6.15 13.9 L4.0 10.55 1.6 7.25 4.05 4.9 Q6.1 3.15 6.55 2.25 7.75 -0.15 13.0 -1.2 M49.45 33.1 L49.9 33.05 M49.45 33.1 Q44.85 33.8 40.3 32.45 L36.3 31.4 33.8 30.9 32.95 31.05 M18.25 0.85 L21.15 2.3 22.6 3.05 M30.35 16.8 L31.1 20.25 M18.0 0.7 L18.25 0.85 M16.3 -0.25 Q17.15 0.75 18.0 0.7" fill="none" stroke="#000000" stroke-linecap="round" stroke-linejoin="round" stroke-width="0.05"/>
    <path d="M13.0 -1.2 L16.3 -0.25 M22.6 3.05 L22.8 3.2" fill="none" stroke="#660099" stroke-linecap="round" stroke-linejoin="round" stroke-width="0.05"/>
    <path d="M38.85 1.95 L38.55 2.2 M49.6 32.85 L49.9 33.05" fill="none" stroke="#ff0000" stroke-linecap="round" stroke-linejoin="round" stroke-width="0.05"/>
    <path d="M38.55 2.2 L37.15 3.25 40.3 4.7 37.9 6.3 Q36.6 6.95 36.0 8.05 36.6 9.15 37.95 9.6 39.35 9.85 40.5 10.55 L41.25 11.1 38.65 12.5 Q39.65 14.7 41.75 16.0 L45.6 18.15 46.6 18.85 M45.7 20.25 L45.3 21.2 46.85 21.95 43.6 23.55 47.35 25.45 41.7 27.55 Q42.1 29.9 44.4 31.3 45.95 32.3 47.85 32.55 L49.6 32.85 M49.95 34.3 L48.95 35.35 50.2 35.9 50.3 36.75 46.65 38.4 Q46.0 38.65 45.7 39.35 L47.35 40.5 M32.75 10.6 L30.4 10.15 M36.3 23.3 L33.45 22.85 M37.0 15.8 L31.55 15.55 M32.75 4.95 L28.05 5.2 M20.25 14.1 Q20.05 15.4 19.05 16.25 L17.55 17.3 Q15.7 18.4 14.25 20.1 11.35 19.2 9.35 21.25 M11.85 35.55 L13.8 34.9 17.45 35.6 17.8 35.0 Q19.85 35.45 21.7 34.4 23.45 33.4 24.35 31.25 M37.7 28.75 L35.35 28.75 M41.45 37.0 L35.1 36.75" fill="none" stroke="#ffcc00" stroke-linecap="round" stroke-linejoin="round" stroke-width="0.05"/>
  </g>
  <defs>
    <linearGradient gradientTransform="matrix(0.0098, -0.0023, 0.0023, 0.0101, 36.4, 11.3)" gradientUnits="userSpaceOnUse" id="gradient0" spreadMethod="pad" x1="-819.2" x2="819.2">
      <stop offset="0.0" stop-color="#cc1102" stop-opacity="0.4509804"/>
      <stop offset="1.0" stop-color="#ffb213" stop-opacity="0.57254905"/>
    </linearGradient>
  </defs>
</svg>
