<?xml version="1.0" encoding="UTF-8" standalone="no"?>
<svg xmlns:xlink="http://www.w3.org/1999/xlink" height="45.4px" width="29.8px" xmlns="http://www.w3.org/2000/svg">
  <g transform="matrix(1.0, 0.0, 0.0, 1.0, 0.0, 0.0)">
    <path d="M13.9 28.95 Q12.3 15.85 4.3 6.35 4.95 4.6 9.1 2.8 21.95 -2.75 28.8 10.5 32.75 25.15 34.1 41.85 25.55 46.55 15.25 46.55 15.0 38.0 13.9 28.95" fill="#b49a6e" fill-rule="evenodd" stroke="none"/>
    <path d="M13.9 28.95 Q15.0 38.0 15.25 46.55 25.55 46.55 34.1 41.85 32.75 25.15 28.8 10.5 21.95 -2.75 9.1 2.8 4.95 4.6 4.3 6.35 12.3 15.85 13.9 28.95 Z" fill="none" stroke="#000000" stroke-linecap="round" stroke-linejoin="round" stroke-width="0.05"/>
  </g>
</svg>
