<?xml version="1.0" encoding="UTF-8" standalone="no"?>
<svg xmlns:xlink="http://www.w3.org/1999/xlink" height="18.1px" width="36.75px" xmlns="http://www.w3.org/2000/svg">
  <g transform="matrix(1.0, 0.0, 0.0, 1.0, 0.0, 0.0)">
    <path d="M21.1 1.45 L21.25 1.25 34.0 0.65 33.9 6.6 32.3 8.05 Q32.05 8.6 32.45 9.1 L38.0 15.95 37.9 16.05 Q34.85 12.45 30.3 10.85 L29.0 9.95 28.9 10.0 29.95 12.65 31.15 18.4 30.9 18.65 Q30.45 16.75 29.3 15.25 L27.6 13.0 26.5 11.9 Q25.3 12.3 24.05 12.8 L22.15 12.7 20.15 12.3 18.9 12.1 16.05 12.1 Q15.85 11.6 15.45 11.6 L15.05 11.5 13.5 10.8 13.35 10.8 13.3 10.8 13.3 10.7 11.4 9.55 Q13.05 8.4 15.45 8.0 L17.85 7.25 18.95 6.5 19.85 5.6 20.9 3.45 Q21.3 2.45 21.1 1.45 M22.3 8.5 L22.35 9.05 22.1 10.1 22.35 9.05 22.3 8.5 M21.45 8.45 L21.35 8.7 Q21.4 10.7 20.15 12.3 21.4 10.7 21.35 8.7 L21.45 8.45 M13.5 10.8 L13.35 10.75 13.3 10.7 13.35 10.75 13.5 10.8" fill="#4b5963" fill-rule="evenodd" stroke="none"/>
    <path d="M13.3 10.8 Q10.75 11.1 8.3 12.2 L6.75 12.75 4.9 11.8 Q3.05 10.5 1.6 8.85 L3.65 8.2 Q3.0 6.7 3.4 5.1 L3.4 4.8 Q3.6 4.6 3.95 5.5 4.45 6.85 5.3 7.95 L9.95 6.9 9.7 3.85 11.85 6.5 13.0 5.95 15.0 5.75 14.9 2.45 16.65 4.95 17.0 5.65 17.1 5.95 18.75 5.85 19.45 4.3 Q19.9 3.0 21.1 1.45 21.3 2.45 20.9 3.45 L19.85 5.6 18.95 6.5 17.85 7.25 15.45 8.0 Q13.05 8.4 11.4 9.55 L13.3 10.7 13.3 10.8 M15.0 5.75 L15.2 5.75 15.0 5.75 M11.85 6.5 L9.95 6.9 11.85 6.5 M5.3 7.95 L3.65 8.2 5.3 7.95 M15.2 5.75 L17.1 5.95 15.2 5.75" fill="#552811" fill-rule="evenodd" stroke="none"/>
    <path d="M21.1 1.45 L21.25 1.25 34.0 0.65 33.9 6.6 32.3 8.05 Q32.05 8.6 32.45 9.1 L38.0 15.95 38.35 16.5 37.9 16.05 Q34.85 12.45 30.3 10.85 L29.0 9.95 28.9 10.0 29.95 12.65 31.15 18.4 31.05 18.75 30.9 18.65 Q30.45 16.75 29.3 15.25 L27.6 13.0 26.5 11.9 Q25.3 12.3 24.05 12.8 L22.15 12.7 20.15 12.3 18.9 12.1 16.05 12.1 Q15.85 11.6 15.45 11.6 L15.05 11.5 13.5 10.8 13.35 10.8 13.3 10.8 Q10.75 11.1 8.3 12.2 L6.75 12.75 4.9 11.8 Q3.05 10.5 1.6 8.85 L3.65 8.2 Q3.0 6.7 3.4 5.1 L3.4 4.8 Q3.6 4.6 3.95 5.5 4.45 6.85 5.3 7.95 L9.95 6.9 9.7 3.85 11.85 6.5 13.0 5.95 15.0 5.75 14.9 2.45 16.65 4.95 17.0 5.65 17.1 5.95 18.75 5.85 19.45 4.3 Q19.9 3.0 21.1 1.45 21.3 2.45 20.9 3.45 L19.85 5.6 18.95 6.5 17.85 7.25 15.45 8.0 Q13.05 8.4 11.4 9.55 L13.3 10.7 13.35 10.75 13.5 10.8 M20.15 12.3 Q21.4 10.7 21.35 8.7 L21.45 8.45 M22.1 10.1 L22.35 9.05 22.3 8.5 M15.0 5.75 L15.2 5.75 17.1 5.95 M3.65 8.2 L5.3 7.95 M9.95 6.9 L11.85 6.5" fill="none" stroke="#000000" stroke-linecap="round" stroke-linejoin="round" stroke-width="0.05"/>
  </g>
</svg>
