<?xml version="1.0" encoding="UTF-8" standalone="no"?>
<svg xmlns:xlink="http://www.w3.org/1999/xlink" height="20.3px" width="37.25px" xmlns="http://www.w3.org/2000/svg">
  <g transform="matrix(1.0, 0.0, 0.0, 1.0, 0.0, 0.0)">
    <path d="M3.35 5.5 Q2.85 3.95 3.35 2.35 L3.4 2.1 Q3.6 1.9 3.85 2.8 4.25 4.2 5.0 5.35 L3.35 5.5 M9.75 4.7 L9.75 1.65 11.65 4.45 9.75 4.7 M14.85 4.0 L15.05 0.7 16.55 3.3 16.85 4.05 16.95 4.4 16.7 4.3 15.05 4.0 14.85 4.0" fill="#e1d6c8" fill-rule="evenodd" stroke="none"/>
    <path d="M17.1 4.4 L18.2 4.55 18.6 4.4 Q19.3 2.8 20.35 1.45 L21.1 0.5 21.45 0.0 34.2 0.5 33.65 6.4 31.9 7.7 Q31.65 8.25 32.0 8.8 L36.95 16.05 36.85 16.15 Q34.1 12.35 29.7 10.35 L28.45 9.35 28.35 9.4 29.2 12.1 29.9 17.95 29.65 18.15 Q29.35 16.25 28.35 14.65 L26.8 12.25 25.8 11.05 23.3 11.75 21.4 11.5 18.2 10.65 13.2 10.45 Q11.75 10.45 10.95 11.55 L11.85 13.05 12.1 13.3 12.6 13.7 12.9 14.5 12.7 14.9 Q10.65 14.5 9.1 13.05 8.75 12.7 8.55 12.7 9.15 16.55 12.2 18.9 10.25 19.1 8.9 17.65 7.0 15.65 5.9 13.25 5.55 16.05 7.1 18.65 L8.2 20.3 Q4.7 17.55 4.35 12.85 4.25 11.65 3.25 10.65 L2.15 9.5 0.55 7.9 Q-0.15 7.2 0.05 6.15 L3.35 5.5 5.0 5.35 9.75 4.7 11.65 4.45 11.8 4.4 12.85 4.0 14.85 4.0 15.05 4.0 16.7 4.3 16.95 4.4 17.1 4.4" fill="#413153" fill-rule="evenodd" stroke="none"/>
    <path d="M17.1 4.4 L18.2 4.55 18.6 4.4 Q19.3 2.8 20.35 1.45 L21.1 0.5 21.45 0.0 34.2 0.5 33.65 6.4 31.9 7.7 Q31.65 8.25 32.0 8.8 L36.95 16.05 37.25 16.65 36.85 16.15 Q34.1 12.35 29.7 10.35 L28.45 9.35 28.35 9.4 29.2 12.1 29.9 17.95 29.8 18.3 29.65 18.15 Q29.35 16.25 28.35 14.65 L26.8 12.25 25.8 11.05 23.3 11.75 21.4 11.5 18.2 10.65 13.2 10.45 Q11.75 10.45 10.95 11.55 L11.85 13.05 12.1 13.3 12.6 13.7 12.9 14.5 12.7 14.9 Q10.65 14.5 9.1 13.05 8.75 12.7 8.55 12.7 9.15 16.55 12.2 18.9 10.25 19.1 8.9 17.65 7.0 15.65 5.9 13.25 5.55 16.05 7.1 18.65 L8.2 20.3 Q4.7 17.55 4.35 12.85 4.25 11.65 3.25 10.65 L2.15 9.5 0.55 7.9 Q-0.15 7.2 0.05 6.15 L3.35 5.5 5.0 5.35 9.75 4.7 11.65 4.45 M11.8 4.4 L12.85 4.0 14.85 4.0 15.05 4.0 16.7 4.3 16.95 4.4" fill="none" stroke="#000000" stroke-linecap="round" stroke-linejoin="round" stroke-width="0.05"/>
    <path d="M3.35 5.5 Q2.85 3.95 3.35 2.35 L3.4 2.1 Q3.6 1.9 3.85 2.8 4.25 4.2 5.0 5.35 M9.75 4.7 L9.75 1.65 11.65 4.45 11.8 4.4 M14.85 4.0 L15.05 0.7 16.55 3.3 16.85 4.05 16.95 4.4 17.1 4.4" fill="none" stroke="#000000" stroke-linecap="round" stroke-linejoin="round" stroke-width="0.05"/>
  </g>
</svg>
