<?xml version="1.0" encoding="UTF-8" standalone="no"?>
<svg xmlns:xlink="http://www.w3.org/1999/xlink" height="39.65px" width="75.15px" xmlns="http://www.w3.org/2000/svg">
  <g transform="matrix(1.0, 0.0, 0.0, 1.0, 0.0, 0.0)">
    <path d="M25.95 19.15 L24.8 19.25 24.75 19.05 25.95 19.15" fill="#e1d6c8" fill-rule="evenodd" stroke="none"/>
    <path d="M24.8 19.25 Q24.0 19.55 23.3 19.95 L21.75 20.8 20.4 21.65 18.95 22.3 17.35 22.5 15.75 22.45 14.05 21.9 14.95 21.5 15.85 21.05 16.95 20.6 18.0 20.15 19.1 19.8 20.2 19.5 21.35 19.3 22.45 19.2 23.65 19.1 24.75 19.05 24.8 19.25" fill="#ffffff" fill-rule="evenodd" stroke="none"/>
    <path d="M26.25 19.3 L24.75 20.2 23.1 21.1 22.05 21.7 Q21.25 22.3 20.25 22.55 L19.0 22.95 17.6 23.15 15.8 23.15 14.65 23.15 11.5 22.85 14.05 21.9 15.75 22.45 17.35 22.5 18.95 22.3 20.4 21.65 21.75 20.8 23.3 19.95 Q24.0 19.55 24.8 19.25 L25.95 19.15 26.25 19.3" fill="#000000" fill-rule="evenodd" stroke="none"/>
    <path d="M48.35 14.6 L49.35 14.4 50.35 14.2 52.25 13.75 54.15 13.3 56.05 12.8 57.85 12.5 59.65 11.95 60.75 11.5 62.55 11.05 64.25 10.55 66.0 10.2 67.7 9.9 69.6 9.85 71.45 9.8 73.35 9.9 75.15 9.95 74.55 10.1 73.9 10.15 72.6 10.3 71.3 10.5 70.0 10.6 68.0 11.15 Q66.55 11.6 65.15 12.3 L64.2 12.75 Q63.25 13.25 62.35 13.8 61.7 14.55 60.8 14.85 L59.0 15.5 57.65 15.65 55.85 15.8 55.05 15.85 Q52.55 15.85 50.05 16.65 L45.2 18.15 44.75 18.3 43.75 18.65 42.85 19.1 41.85 19.5 40.95 20.0 40.0 20.45 39.1 21.0 38.2 21.5 37.95 22.2 39.35 22.6 Q40.25 21.9 41.35 22.0 L43.55 21.75 45.05 21.8 46.55 21.95 48.35 22.05 50.15 22.05 52.0 22.0 53.8 21.85 55.0 21.7 55.5 22.3 55.8 22.95 55.3 23.75 55.45 24.25 54.4 24.4 53.75 24.45 52.15 24.7 48.85 24.8 47.15 24.7 46.35 24.6 45.5 24.55 43.9 24.7 42.45 25.2 41.0 25.95 41.6 26.5 42.3 26.95 43.75 27.95 44.75 27.9 45.75 27.85 47.65 27.95 49.55 28.25 51.35 28.75 51.6 28.95 51.4 29.5 51.05 29.7 49.5 30.05 Q48.8 30.1 48.1 30.45 L47.65 30.7 46.7 30.75 44.75 30.45 40.85 31.0 40.65 31.15 39.55 32.05 38.6 33.25 38.05 33.55 38.0 33.6 37.85 33.65 37.75 33.7 37.65 33.85 36.75 33.7 36.8 31.5 35.9 31.0 35.85 28.45 34.9 28.5 33.1 28.7 31.55 28.9 30.2 28.45 28.8 28.15 27.4 27.85 25.95 27.2 24.75 26.5 Q23.95 26.0 23.0 25.9 L22.15 27.15 20.95 27.95 19.75 28.25 16.75 28.1 15.05 28.8 11.1 28.65 9.2 28.8 5.65 29.95 3.85 30.05 2.0 30.75 0.85 29.5 Q0.15 28.7 0.0 27.6 L0.4 26.65 1.3 24.95 2.65 23.8 4.15 22.8 5.9 22.2 Q6.75 21.95 7.55 22.2 L8.15 22.5 8.95 22.75 10.05 22.65 11.05 22.3 13.9 21.1 15.45 20.15 15.6 19.85 15.9 19.25 17.0 17.9 17.15 17.3 Q17.6 16.75 18.5 16.5 L20.25 16.0 22.0 15.45 22.9 15.25 28.6 14.2 Q27.85 14.45 27.2 14.8 26.45 15.1 25.8 15.5 L25.25 16.05 25.8 15.5 31.05 15.65 31.25 15.9 32.0 16.95 32.7 17.8 33.4 19.1 34.45 18.1 35.65 17.45 36.9 16.9 38.25 16.45 39.6 16.1 40.7 16.0 41.15 15.95 41.8 15.8 42.9 15.6 44.0 15.4 45.1 15.2 46.2 15.0 47.3 14.85 48.35 14.6 M41.95 16.5 L41.8 18.5 41.8 18.35 41.7 17.8 41.45 16.8 41.15 15.95 41.45 16.8 41.7 17.8 41.8 18.35 41.8 18.5 41.95 16.5 M33.0 20.05 L33.4 19.1 33.0 20.05 M22.5 16.1 L23.75 17.85 23.45 17.05 22.5 16.1 22.0 15.45 22.5 16.1 23.45 17.05 23.75 17.85 22.5 16.1 M11.5 22.85 L14.65 23.15 15.8 23.15 17.6 23.15 19.0 22.95 20.25 22.55 Q21.25 22.3 22.05 21.7 L23.1 21.1 24.75 20.2 26.25 19.3 25.95 19.15 24.75 19.05 23.65 19.1 22.45 19.2 21.35 19.3 20.2 19.5 19.1 19.8 18.0 20.15 16.95 20.6 15.85 21.05 14.95 21.5 14.05 21.9 11.5 22.85 10.05 23.3 8.5 23.65 7.55 23.95 6.65 24.45 6.4 25.5 6.65 24.45 7.55 23.95 8.5 23.65 10.05 23.3 11.5 22.85 M30.15 26.4 L31.5 25.9 31.55 24.85 31.45 24.4 31.1 23.85 32.45 23.55 32.45 23.35 31.9 22.95 31.5 22.7 31.25 22.5 33.0 21.95 30.9 20.3 33.0 21.95 31.25 22.5 31.5 22.7 31.9 22.95 32.45 23.35 32.45 23.55 31.1 23.85 31.45 24.4 31.55 24.85 31.5 25.9 30.15 26.4 M19.7 26.5 L19.75 27.85 19.75 28.25 19.75 27.85 19.7 26.5 M14.65 23.7 L14.15 24.9 13.4 26.1 14.15 25.1 Q14.7 24.45 14.65 23.7 L14.65 23.15 14.65 23.7 Q14.7 24.45 14.15 25.1 L13.4 26.1 14.15 24.9 14.65 23.7 M2.7 25.4 L3.85 26.2 2.7 25.4 M3.25 26.35 L1.95 25.4 1.3 24.95 1.95 25.4 3.25 26.35 M37.0 27.6 L36.45 28.3 35.85 28.45 36.45 28.3 37.0 27.6 M24.05 25.5 L23.0 25.9 24.05 25.5" fill="#4b5963" fill-rule="evenodd" stroke="none"/>
    <path d="M50.5 8.15 L53.3 6.75 53.8 7.6 53.95 7.7 55.55 7.85 58.5 7.75 56.95 8.8 55.75 9.6 54.65 10.45 53.45 11.25 52.15 12.2 50.7 13.15 49.15 14.15 48.35 14.6 47.3 14.85 46.2 15.0 45.1 15.2 44.0 15.4 42.9 15.6 41.8 15.8 41.15 15.95 40.7 16.0 39.6 16.1 38.25 16.45 36.9 16.9 35.65 17.45 34.45 18.1 33.4 19.1 32.7 17.8 32.0 16.95 31.25 15.9 31.05 15.65 25.8 15.5 Q26.45 15.1 27.2 14.8 27.85 14.45 28.6 14.2 L30.8 13.6 36.65 12.4 39.4 11.85 42.75 10.9 46.35 9.8 Q48.4 8.95 50.5 8.15 M55.5 22.3 L56.6 21.8 58.15 21.5 59.55 20.95 60.15 20.9 59.5 21.25 58.25 21.9 56.6 22.6 55.8 22.95 55.5 22.3 M51.4 29.5 L52.2 29.8 54.1 30.25 55.3 30.85 54.5 30.9 52.6 30.75 50.85 30.5 49.5 30.05 51.05 29.7 51.4 29.5 M39.55 32.05 L39.9 32.7 40.6 34.55 41.05 35.45 42.05 37.0 42.85 37.95 41.55 36.9 40.55 35.75 39.4 34.2 38.6 33.25 39.55 32.05 M16.75 28.1 L16.8 28.95 16.45 30.05 15.05 28.8 16.75 28.1 M11.1 28.65 L11.55 31.15 10.25 30.0 9.2 28.8 11.1 28.65 M5.65 29.95 L6.6 32.8 5.65 32.0 4.65 31.1 3.85 30.05 5.65 29.95 M7.55 22.2 L8.85 21.75 10.1 21.15 11.65 20.4 12.8 19.8 14.3 19.0 15.9 18.05 17.15 17.3 17.0 17.9 15.9 19.25 15.6 19.85 15.45 20.15 13.9 21.1 11.05 22.3 10.05 22.65 8.95 22.75 8.15 22.5 7.55 22.2 M33.25 17.25 L34.8 16.25 36.45 15.4 38.2 14.8 39.95 14.3 41.8 14.05 43.0 13.8 44.8 13.35 46.0 13.05 47.75 12.55 49.45 11.95 51.05 11.15 52.55 10.1 54.05 8.95 55.55 7.85 54.05 8.95 52.55 10.1 51.05 11.15 49.45 11.95 47.75 12.55 46.0 13.05 44.8 13.35 43.0 13.8 41.8 14.05 39.95 14.3 38.2 14.8 36.45 15.4 34.8 16.25 33.25 17.25" fill="#552811" fill-rule="evenodd" stroke="none"/>
    <path d="M51.95 5.45 L50.5 8.15 Q48.4 8.95 46.35 9.8 L48.3 8.0 52.8 3.8 51.95 5.45 M22.9 15.25 L24.0 14.85 25.0 14.35 26.0 13.95 27.0 13.45 28.1 13.05 29.2 12.55 30.3 12.05 31.3 11.55 32.4 11.1 33.45 10.6 34.55 10.1 36.35 9.3 37.9 8.5 39.4 7.7 40.8 6.9 42.4 5.95 44.15 5.1 45.0 4.75 41.9 7.3 40.7 8.2 Q40.0 8.45 39.4 8.85 L38.4 9.55 36.9 10.55 35.3 11.5 33.75 12.4 32.0 13.15 30.8 13.6 28.6 14.2 22.9 15.25" fill="#39454a" fill-rule="evenodd" stroke="none"/>
    <path d="M53.3 6.75 L53.6 6.6 55.3 6.8 58.85 7.05 58.75 7.6 58.5 7.75 55.55 7.85 53.95 7.7 53.8 7.6 53.3 6.75" fill="#733017" fill-rule="evenodd" stroke="none"/>
    <path d="M51.95 5.45 L52.9 4.8 54.9 3.45 56.9 2.15 58.9 0.95 60.5 0.15 62.15 -0.65 63.35 -1.05 65.25 -1.45 66.7 -1.7 68.6 -1.6 69.9 -1.45 70.65 -1.25 69.5 -0.9 68.3 -0.6 66.55 0.0 64.95 0.5 63.15 1.25 61.75 1.95 60.4 2.75 59.15 3.65 57.95 4.65 56.75 5.7 55.3 6.8 53.6 6.6 53.3 6.75 50.5 8.15 51.95 5.45" fill="#421b0d" fill-rule="evenodd" stroke="none"/>
    <path d="M62.35 13.8 L61.95 15.15 62.25 15.75 Q60.2 18.15 57.05 18.8 55.25 19.2 53.85 19.9 L53.9 20.1 54.0 20.3 54.05 20.45 53.95 20.6 Q53.75 21.0 53.8 21.85 L52.0 22.0 50.15 22.05 48.35 22.05 46.55 21.95 45.05 21.8 43.55 21.75 41.35 22.0 Q40.25 21.9 39.35 22.6 L37.95 22.2 38.2 21.5 39.1 21.0 40.0 20.45 40.95 20.0 41.85 19.5 42.85 19.1 43.75 18.65 44.75 18.3 45.2 18.15 46.8 19.4 51.8 18.65 52.1 18.25 Q52.45 17.9 52.9 17.85 53.95 17.55 54.7 16.9 L55.05 15.85 55.85 15.8 57.65 15.65 59.0 15.5 60.8 14.85 Q61.7 14.55 62.35 13.8 M54.4 24.4 L54.45 24.7 54.35 24.85 Q52.45 25.8 50.7 26.95 L50.85 27.15 Q51.35 27.9 51.35 28.75 L49.55 28.25 47.65 27.95 45.75 27.85 44.75 27.9 43.75 27.95 42.3 26.95 41.6 26.5 41.0 25.95 42.45 25.2 43.9 24.7 45.5 24.55 46.35 24.6 47.15 24.7 48.85 24.8 52.15 24.7 53.75 24.45 54.4 24.4 M41.9 7.3 L42.45 7.75 43.65 8.25 45.55 8.35 46.9 8.15 48.3 8.0 46.35 9.8 42.75 10.9 43.3 10.15 42.75 10.9 39.4 11.85 36.65 12.4 30.8 13.6 32.0 13.15 33.75 12.4 35.3 11.5 36.9 10.55 38.4 9.55 39.4 8.85 Q40.0 8.45 40.7 8.2 L41.9 7.3 M53.5 18.65 L52.5 18.65 51.8 18.65 52.5 18.65 53.5 18.65 M42.9 20.75 L44.25 20.25 45.55 19.7 46.55 19.45 46.8 19.4 46.55 19.45 45.55 19.7 44.25 20.25 42.9 20.75 M51.15 20.3 L48.1 20.55 51.15 20.3 M50.45 25.5 L44.05 25.7 50.45 25.5 M48.55 26.4 L45.95 26.65 48.55 26.4 M39.85 9.7 L36.65 12.4 39.85 9.7 M41.0 10.4 L39.4 11.85 41.0 10.4" fill="url(#gradient0)" fill-rule="evenodd" stroke="none"/>
    <path d="M55.3 6.8 L56.75 5.7 57.95 4.65 59.15 3.65 60.4 2.75 61.75 1.95 63.15 1.25 64.95 0.5 66.55 0.0 68.3 -0.6 69.5 -0.9 70.65 -1.25 69.9 -1.45 68.6 -1.6 66.7 -1.7 65.25 -1.45 63.35 -1.05 62.15 -0.65 60.5 0.15 58.9 0.95 56.9 2.15 54.9 3.45 52.9 4.8 51.95 5.45 50.5 8.15 53.3 6.75 53.6 6.6 55.3 6.8 58.85 7.05 58.75 7.6 58.5 7.75 56.95 8.8 55.75 9.6 54.65 10.45 53.45 11.25 52.15 12.2 50.7 13.15 49.15 14.15 48.35 14.6 49.35 14.4 50.35 14.2 52.25 13.75 54.15 13.3 56.05 12.8 57.85 12.5 59.65 11.95 60.75 11.5 62.55 11.05 64.25 10.55 66.0 10.2 67.7 9.9 69.6 9.85 71.45 9.8 73.35 9.9 75.15 9.95 74.55 10.1 73.9 10.15 72.6 10.3 71.3 10.5 70.0 10.6 68.0 11.15 Q66.55 11.6 65.15 12.3 L64.2 12.75 Q63.25 13.25 62.35 13.8 61.7 14.55 60.8 14.85 L59.0 15.5 57.65 15.65 55.85 15.8 55.05 15.85 Q52.55 15.85 50.05 16.65 L45.2 18.15 44.75 18.3 43.75 18.65 42.85 19.1 41.85 19.5 40.95 20.0 40.0 20.45 39.1 21.0 38.2 21.5 37.95 22.2 39.35 22.6 Q40.25 21.9 41.35 22.0 L43.55 21.75 45.05 21.8 46.55 21.95 48.35 22.05 50.15 22.05 52.0 22.0 53.8 21.85 55.0 21.7 55.5 22.3 56.6 21.8 58.15 21.5 59.55 20.95 60.15 20.9 59.5 21.25 58.25 21.9 56.6 22.6 55.8 22.95 55.3 23.75 55.45 24.25 54.4 24.4 53.75 24.45 52.15 24.7 48.85 24.8 47.15 24.7 46.35 24.6 45.5 24.55 43.9 24.7 42.45 25.2 41.0 25.95 41.6 26.5 42.3 26.95 43.75 27.95 44.75 27.9 45.75 27.85 47.65 27.95 49.55 28.25 51.35 28.75 51.6 28.95 51.4 29.5 52.2 29.8 54.1 30.25 55.3 30.85 54.5 30.9 52.6 30.75 50.85 30.5 49.5 30.05 Q48.8 30.1 48.1 30.45 L47.65 30.7 46.7 30.75 44.75 30.45 40.85 31.0 40.65 31.15 39.55 32.05 39.9 32.7 40.6 34.55 41.05 35.45 42.05 37.0 42.85 37.95 41.55 36.9 40.55 35.75 39.4 34.2 38.6 33.25 38.05 33.55 38.0 33.6 37.85 33.65 37.75 33.7 37.65 33.85 36.75 33.7 36.8 31.5 35.9 31.0 35.85 28.45 34.9 28.5 33.1 28.7 31.55 28.9 M23.0 25.9 L22.15 27.15 20.95 27.95 19.75 28.25 16.75 28.1 16.8 28.95 16.45 30.05 15.05 28.8 11.1 28.65 11.55 31.15 10.25 30.0 9.2 28.8 5.65 29.95 6.6 32.8 5.65 32.0 4.65 31.1 3.85 30.05 2.0 30.75 0.85 29.5 Q0.15 28.7 0.0 27.6 L0.4 26.65 1.3 24.95 2.65 23.8 4.15 22.8 5.9 22.2 Q6.75 21.95 7.55 22.2 L8.85 21.75 10.1 21.15 11.65 20.4 12.8 19.8 14.3 19.0 15.9 18.05 17.15 17.3 Q17.6 16.75 18.5 16.5 L20.25 16.0 22.0 15.45 22.9 15.25 24.0 14.85 25.0 14.35 26.0 13.95 27.0 13.45 28.1 13.05 29.2 12.55 30.3 12.05 31.3 11.55 32.4 11.1 33.45 10.6 34.55 10.1 36.35 9.3 37.9 8.5 39.4 7.7 40.8 6.9 42.4 5.95 44.15 5.1 45.0 4.75 41.9 7.3 40.7 8.2 Q40.0 8.45 39.4 8.85 L38.4 9.55 36.9 10.55 35.3 11.5 33.75 12.4 32.0 13.15 30.8 13.6 36.65 12.4 39.4 11.85 42.75 10.9 46.35 9.8 48.3 8.0 52.8 3.8 51.95 5.45 M53.3 6.75 L53.8 7.6 53.95 7.7 55.55 7.85 58.5 7.75 M55.55 7.85 L54.05 8.95 52.55 10.1 51.05 11.15 49.45 11.95 47.75 12.55 46.0 13.05 44.8 13.35 43.0 13.8 41.8 14.05 39.95 14.3 38.2 14.8 36.45 15.4 34.8 16.25 33.25 17.25 M46.35 9.8 Q48.4 8.95 50.5 8.15 M48.35 14.6 L47.3 14.85 46.2 15.0 45.1 15.2 44.0 15.4 42.9 15.6 41.8 15.8 41.15 15.95 41.45 16.8 41.7 17.8 41.8 18.35 41.8 18.5 41.95 16.5 M41.15 15.95 L40.7 16.0 39.6 16.1 38.25 16.45 36.9 16.9 35.65 17.45 34.45 18.1 33.4 19.1 33.0 20.05 M55.8 22.95 L55.5 22.3 M51.4 29.5 L51.05 29.7 49.5 30.05 M25.8 15.5 Q26.45 15.1 27.2 14.8 27.85 14.45 28.6 14.2 L22.9 15.25 M22.0 15.45 L22.5 16.1 23.45 17.05 23.75 17.85 22.5 16.1 M26.25 19.3 L25.95 19.15 24.8 19.25 Q24.0 19.55 23.3 19.95 L21.75 20.8 20.4 21.65 18.95 22.3 17.35 22.5 15.75 22.45 14.05 21.9 11.5 22.85 10.05 23.3 8.5 23.65 7.55 23.95 6.65 24.45 6.4 25.5 M24.75 19.05 L23.65 19.1 22.45 19.2 21.35 19.3 20.2 19.5 19.1 19.8 18.0 20.15 16.95 20.6 15.85 21.05 14.95 21.5 14.05 21.9 M25.8 15.5 L25.25 16.05 M25.95 19.15 L24.75 19.05 M33.4 19.1 L32.7 17.8 32.0 16.95 31.25 15.9 31.05 15.65 25.8 15.5 M30.9 20.3 L33.0 21.95 31.25 22.5 31.5 22.7 31.9 22.95 32.45 23.35 32.45 23.55 31.1 23.85 31.45 24.4 31.55 24.85 31.5 25.9 30.15 26.4 M28.6 14.2 L30.8 13.6 M17.15 17.3 L17.0 17.9 15.9 19.25 15.6 19.85 15.45 20.15 13.9 21.1 11.05 22.3 10.05 22.65 8.95 22.75 8.15 22.5 7.55 22.2 M14.65 23.15 L14.65 23.7 Q14.7 24.45 14.15 25.1 L13.4 26.1 14.15 24.9 14.65 23.7 M19.75 28.25 L19.75 27.85 19.7 26.5 M16.75 28.1 L15.05 28.8 M1.3 24.95 L1.95 25.4 3.25 26.35 M3.85 26.2 L2.7 25.4 M3.85 30.05 L5.65 29.95 M11.1 28.65 L9.2 28.8 M35.85 28.45 L36.45 28.3 37.0 27.6 M39.55 32.05 L38.6 33.25 M23.0 25.9 L24.05 25.5" fill="none" stroke="#000000" stroke-linecap="round" stroke-linejoin="round" stroke-width="0.05"/>
    <path d="M62.35 13.8 L61.95 15.15 62.25 15.75 Q60.2 18.15 57.05 18.8 55.25 19.2 53.85 19.9 L53.9 20.1 54.0 20.3 54.05 20.45 53.95 20.6 Q53.75 21.0 53.8 21.85 M54.4 24.4 L54.45 24.7 54.35 24.85 Q52.45 25.8 50.7 26.95 L50.85 27.15 Q51.35 27.9 51.35 28.75 M41.9 7.3 L42.45 7.75 43.65 8.25 45.55 8.35 46.9 8.15 48.3 8.0 M55.05 15.85 L54.7 16.9 Q53.95 17.55 52.9 17.85 52.45 17.9 52.1 18.25 L51.8 18.65 52.5 18.65 53.5 18.65 M43.3 10.15 L42.75 10.9 M46.8 19.4 L46.55 19.45 45.55 19.7 44.25 20.25 42.9 20.75 M45.2 18.15 L46.8 19.4 51.8 18.65 M48.1 20.55 L51.15 20.3 M45.95 26.65 L48.55 26.4 M44.05 25.7 L50.45 25.5 M36.65 12.4 L39.85 9.7 M39.4 11.85 L41.0 10.4" fill="none" stroke="#375511" stroke-linecap="round" stroke-linejoin="round" stroke-width="0.05"/>
  </g>
  <defs>
    <linearGradient gradientTransform="matrix(0.0149, 0.0, 0.0, 0.0054, 50.15, 18.2)" gradientUnits="userSpaceOnUse" id="gradient0" spreadMethod="pad" x1="-819.2" x2="819.2">
      <stop offset="0.0" stop-color="#26561d" stop-opacity="0.67058825"/>
      <stop offset="1.0" stop-color="#399f39" stop-opacity="0.2"/>
    </linearGradient>
  </defs>
</svg>
