<?xml version="1.0" encoding="UTF-8" standalone="no"?>
<svg xmlns:xlink="http://www.w3.org/1999/xlink" height="37.45px" width="38.6px" xmlns="http://www.w3.org/2000/svg">
  <g transform="matrix(1.0, 0.0, 0.0, 1.0, 0.0, 0.0)">
    <path d="M-1.85 3.2 Q-0.45 2.45 1.25 1.3 2.9 0.1 5.45 0.3 10.9 -0.4 16.25 0.55 L20.4 1.6 29.15 5.1 Q27.1 9.1 27.25 13.55 27.4 17.95 25.6 21.35 23.8 24.7 23.4 26.95 29.1 26.6 33.95 29.0 34.85 29.4 35.35 30.45 36.25 32.25 35.35 34.05 34.7 35.4 33.35 35.65 L19.0 36.85 16.95 37.4 Q12.65 37.8 9.15 35.25 8.2 34.55 7.65 33.5 5.35 29.2 3.75 24.7 2.4 21.0 1.55 17.15 0.9 14.4 -0.25 11.4 -1.85 8.35 -2.55 6.15 -3.3 3.95 -1.85 3.2 M1.55 17.15 L1.9 16.35 4.9 19.7 6.0 15.25 Q6.8 14.45 7.95 14.9 10.25 15.4 12.15 16.4 14.15 17.4 16.5 17.35 17.85 17.3 18.95 16.2 19.55 15.6 19.4 15.0 L18.45 13.3 16.4 13.7 17.15 14.3 16.4 13.7 18.45 13.3 19.4 15.0 Q19.55 15.6 18.95 16.2 17.85 17.3 16.5 17.35 14.15 17.4 12.15 16.4 10.25 15.4 7.95 14.9 6.8 14.45 6.0 15.25 L4.9 19.7 1.9 16.35 1.55 17.15 M3.75 24.7 L8.2 27.4 7.9 23.6 8.8 24.3 10.05 25.2 Q11.85 26.25 13.75 26.25 15.25 26.5 16.35 25.65 L16.55 25.25 Q16.45 23.75 15.15 22.7 L13.45 21.6 Q12.8 21.2 12.45 21.8 L12.25 22.25 12.55 23.1 13.45 23.5 14.1 23.3 13.45 23.5 12.55 23.1 12.25 22.25 12.45 21.8 Q12.8 21.2 13.45 21.6 L15.15 22.7 Q16.45 23.75 16.55 25.25 L16.35 25.65 Q15.25 26.5 13.75 26.25 11.85 26.25 10.05 25.2 L8.8 24.3 7.9 23.6 8.2 27.4 3.75 24.7 M-0.25 11.4 L1.55 10.7 4.35 13.7 5.15 10.6 Q5.3 10.15 5.6 9.75 6.45 8.45 8.05 9.15 L9.3 9.8 14.5 9.95 15.8 9.05 Q16.8 8.25 16.55 7.1 L16.15 7.5 16.55 7.1 Q16.8 8.25 15.8 9.05 L14.5 9.95 9.3 9.8 8.05 9.15 Q6.45 8.45 5.6 9.75 5.3 10.15 5.15 10.6 L4.35 13.7 1.55 10.7 -0.25 11.4" fill="#990000" fill-rule="evenodd" stroke="none"/>
    <path d="M29.15 5.1 Q27.1 9.1 27.25 13.55 27.4 17.95 25.6 21.35 23.8 24.7 23.4 26.95 29.1 26.6 33.95 29.0 34.85 29.4 35.35 30.45 36.25 32.25 35.35 34.05 34.7 35.4 33.35 35.65 L19.0 36.85 16.95 37.4 Q12.65 37.8 9.15 35.25 8.2 34.55 7.65 33.5 5.35 29.2 3.75 24.7 2.4 21.0 1.55 17.15 0.9 14.4 -0.25 11.4 -1.85 8.35 -2.55 6.15 -3.3 3.95 -1.85 3.2" fill="none" stroke="#000000" stroke-linecap="round" stroke-linejoin="round" stroke-width="0.05"/>
    <path d="M16.15 7.5 L16.55 7.1 Q16.8 8.25 15.8 9.05 L14.5 9.95 9.3 9.8 8.05 9.15 Q6.45 8.45 5.6 9.75 5.3 10.15 5.15 10.6 L4.35 13.7 1.55 10.7 -0.25 11.4 M14.1 23.3 L13.45 23.5 12.55 23.1 12.25 22.25 12.45 21.8 Q12.8 21.2 13.45 21.6 L15.15 22.7 Q16.45 23.75 16.55 25.25 L16.35 25.65 Q15.25 26.5 13.75 26.25 11.85 26.25 10.05 25.2 L8.8 24.3 7.9 23.6 8.2 27.4 3.75 24.7 M17.15 14.3 L16.4 13.7 18.45 13.3 19.4 15.0 Q19.55 15.6 18.95 16.2 17.85 17.3 16.5 17.35 14.15 17.4 12.15 16.4 10.25 15.4 7.95 14.9 6.8 14.45 6.0 15.25 L4.9 19.7 1.9 16.35 1.55 17.15" fill="none" stroke="#ffcc00" stroke-linecap="round" stroke-linejoin="round" stroke-width="0.05"/>
  </g>
</svg>
