<?xml version="1.0" encoding="UTF-8" standalone="no"?>
<svg xmlns:xlink="http://www.w3.org/1999/xlink" height="36.9px" width="35.8px" xmlns="http://www.w3.org/2000/svg">
  <g transform="matrix(1.0, 0.0, 0.0, 1.0, 0.0, 0.0)">
    <path d="M8.2 5.85 Q9.6 5.4 10.65 6.45 L11.15 6.85 12.55 7.5 Q13.2 8.7 14.2 9.8 L14.9 10.6 15.6 12.1 15.85 13.15 15.75 14.2 14.15 15.55 13.8 16.35 14.2 17.15 13.3 19.3 12.4 20.8 12.05 21.3 12.05 22.1 Q11.45 23.05 10.45 23.55 10.2 23.7 10.0 23.9 L9.6 21.65 9.6 17.75 9.15 10.2 Q9.25 8.15 8.4 6.35 L8.2 5.85" fill="#552811" fill-rule="evenodd" stroke="none"/>
    <path d="M0.45 3.25 L1.3 2.1 Q2.9 0.2 5.45 0.2 L10.9 0.05 16.2 0.85 Q18.3 1.05 20.3 1.8 23.3 3.15 26.25 4.75 L26.05 6.85 25.1 11.05 23.75 15.35 Q22.8 18.1 22.1 21.1 21.65 23.2 22.4 25.35 L23.4 26.95 27.6 27.15 30.25 27.65 32.7 28.55 Q33.55 28.85 34.3 29.4 35.8 30.4 35.75 32.25 35.75 33.6 34.9 34.65 L33.95 35.3 30.75 36.0 28.2 35.85 Q29.2 33.55 28.9 31.2 28.45 33.95 26.5 36.3 L19.0 36.85 14.95 36.65 Q12.95 36.9 11.15 36.05 9.65 35.45 8.55 34.35 6.85 32.5 6.0 30.15 6.0 29.15 6.4 28.2 7.55 25.4 10.0 23.9 10.2 23.7 10.45 23.55 11.45 23.05 12.05 22.1 L12.05 21.3 12.4 20.8 13.3 19.3 14.2 17.15 13.8 16.35 14.15 15.55 15.75 14.2 15.85 13.15 Q16.1 10.75 18.6 10.35 L18.8 10.05 22.35 10.65 22.95 11.0 22.35 10.65 18.8 10.05 18.55 8.7 16.75 7.55 16.5 7.5 14.2 7.5 12.55 7.5 11.15 6.85 10.65 6.45 Q9.6 5.4 8.2 5.85 L7.3 6.1 Q5.7 6.0 4.7 6.65 L3.65 6.15 Q3.4 6.25 3.2 6.45 1.9 7.55 0.2 7.9 -0.25 6.15 0.1 4.45 L0.45 3.25 M17.5 7.15 L16.75 7.55 17.5 7.15 M17.45 29.8 L21.3 26.1 Q21.75 25.65 22.4 25.35 21.75 25.65 21.3 26.1 L17.45 29.8 M20.7 8.2 L19.6 8.25 18.55 8.7 19.6 8.25 20.7 8.2 M8.4 16.5 L9.6 17.75 9.6 21.65 Q8.3 20.15 8.4 18.25 L8.4 16.5 M19.75 29.2 L22.4 27.0 19.75 29.2 M13.6 21.9 L14.9 20.45 Q16.5 18.8 17.0 16.6 17.2 15.8 17.55 15.1 18.45 13.4 19.6 11.9 18.45 13.4 17.55 15.1 17.2 15.8 17.0 16.6 16.5 18.8 14.9 20.45 L13.6 21.9" fill="#4b5963" fill-rule="evenodd" stroke="none"/>
    <path d="M0.2 7.9 Q1.9 7.55 3.2 6.45 3.4 6.25 3.65 6.15 L4.7 6.65 Q5.7 6.0 7.3 6.1 L8.2 5.85 8.4 6.35 Q9.25 8.15 9.15 10.2 L7.9 10.1 6.65 9.8 5.05 9.5 6.65 9.8 7.9 10.1 9.15 10.2 9.6 17.75 8.4 16.5 Q6.6 14.55 5.75 11.95 L5.05 9.5 0.2 7.9 M12.55 7.5 L14.2 7.5 16.5 7.5 16.75 7.55 18.55 8.7 18.8 10.05 18.6 10.35 Q16.1 10.75 15.85 13.15 L15.6 12.1 14.9 10.6 14.2 9.8 Q13.2 8.7 12.55 7.5" fill="#375511" fill-rule="evenodd" stroke="none"/>
    <path d="M0.45 3.25 L0.1 4.45 Q-0.25 6.15 0.2 7.9 1.9 7.55 3.2 6.45 3.4 6.25 3.65 6.15 L4.7 6.65 Q5.7 6.0 7.3 6.1 L8.2 5.85 Q9.6 5.4 10.65 6.45 L11.15 6.85 12.55 7.5 14.2 7.5 16.5 7.5 16.75 7.55 17.5 7.15 M22.4 25.35 Q21.65 23.2 22.1 21.1 22.8 18.1 23.75 15.35 L25.1 11.05 26.05 6.85 26.25 4.75 M22.95 11.0 L22.35 10.65 18.8 10.05 18.6 10.35 Q16.1 10.75 15.85 13.15 L15.75 14.2 14.15 15.55 13.8 16.35 14.2 17.15 13.3 19.3 12.4 20.8 12.05 21.3 12.05 22.1 Q11.45 23.05 10.45 23.55 10.2 23.7 10.0 23.9 7.55 25.4 6.4 28.2 6.0 29.15 6.0 30.15 6.85 32.5 8.55 34.35 9.65 35.45 11.15 36.05 12.95 36.9 14.95 36.65 L19.0 36.85 26.5 36.3 Q28.45 33.95 28.9 31.2 29.2 33.55 28.2 35.85 L30.75 36.0 33.95 35.3 34.9 34.65 Q35.75 33.6 35.75 32.25 35.8 30.4 34.3 29.4 33.55 28.85 32.7 28.55 L30.25 27.65 27.6 27.15 23.4 26.95 22.4 25.35 Q21.75 25.65 21.3 26.1 L17.45 29.8 M12.55 7.5 Q13.2 8.7 14.2 9.8 L14.9 10.6 15.6 12.1 15.85 13.15 M18.8 10.05 L18.55 8.7 16.75 7.55 M18.55 8.7 L19.6 8.25 20.7 8.2 M0.2 7.9 L5.05 9.5 6.65 9.8 7.9 10.1 9.15 10.2 Q9.25 8.15 8.4 6.35 L8.2 5.85 M5.05 9.5 L5.75 11.95 Q6.6 14.55 8.4 16.5 L9.6 17.75 9.15 10.2 M9.6 21.65 L9.6 17.75 M9.6 21.65 Q8.3 20.15 8.4 18.25 L8.4 16.5 M10.0 23.9 L9.6 21.65 M19.6 11.9 Q18.45 13.4 17.55 15.1 17.2 15.8 17.0 16.6 16.5 18.8 14.9 20.45 L13.6 21.9 M22.4 27.0 L19.75 29.2" fill="none" stroke="#000000" stroke-linecap="round" stroke-linejoin="round" stroke-width="0.05"/>
  </g>
</svg>
