<?xml version="1.0" encoding="UTF-8" standalone="no"?>
<svg xmlns:xlink="http://www.w3.org/1999/xlink" height="37.45px" width="35.8px" xmlns="http://www.w3.org/2000/svg">
  <g transform="matrix(1.0, 0.0, 0.0, 1.0, 0.0, 0.0)">
    <path d="M26.25 4.75 Q26.1 8.95 24.5 13.2 22.85 17.45 22.15 21.1 21.45 24.75 23.4 26.95 29.1 26.6 33.95 29.0 34.85 29.4 35.35 30.45 36.25 32.25 35.35 34.05 34.7 35.4 33.35 35.65 L19.0 36.85 16.95 37.4 Q12.65 37.8 9.15 35.25 8.2 34.55 7.65 33.5 0.7 20.45 0.0 5.7 -0.05 4.4 0.45 3.25 L1.2 2.05 Q2.9 0.1 5.45 0.3 10.9 -0.4 16.25 0.55 L20.4 1.6 26.25 4.75" fill="#413153" fill-rule="evenodd" stroke="none"/>
  </g>
</svg>
