<?xml version="1.0" encoding="UTF-8" standalone="no"?>
<svg xmlns:xlink="http://www.w3.org/1999/xlink" height="43.15px" width="37.2px" xmlns="http://www.w3.org/2000/svg">
  <g transform="matrix(1.0, 0.0, 0.0, 1.0, 0.0, 0.0)">
    <path d="M26.4 15.45 L31.7 14.85 37.25 13.0 36.35 13.55 Q34.0 15.15 31.1 15.55 L25.4 16.4 26.4 15.45 M3.9 29.5 L3.9 22.7 Q3.95 18.25 1.95 11.8 L2.0 11.75 2.9 12.5 3.0 12.8 Q3.0 13.55 3.3 14.2 L4.15 15.45 4.55 15.85 5.25 17.0 5.8 18.5 Q6.5 20.9 6.05 23.45 L6.0 24.4 6.15 25.3 Q6.45 26.45 5.6 27.15 L4.85 28.0 Q4.5 28.4 4.3 28.9 L4.1 29.25 3.9 29.5" fill="#552811" fill-rule="evenodd" stroke="none"/>
    <path d="M10.1 5.25 Q14.05 5.95 17.95 5.3 L22.75 4.65 25.8 3.8 Q31.45 1.6 35.2 -3.15 L35.5 -3.75 36.3 -5.15 36.05 -6.6 36.6 -4.9 36.9 -3.05 Q37.0 -1.85 36.25 -0.9 34.45 1.4 31.95 2.75 L26.2 5.65 22.1 7.15 20.05 7.5 Q15.05 7.55 10.7 9.65 L10.1 5.3 10.7 9.65 10.5 15.55 11.65 15.25 13.2 14.95 13.35 14.95 13.4 14.95 13.45 14.95 14.75 14.85 16.55 14.85 23.75 14.8 23.9 14.8 26.55 14.5 26.4 15.25 26.4 15.45 25.4 16.4 25.3 17.3 24.6 17.35 21.2 17.35 18.15 17.85 17.25 18.0 Q12.95 18.6 9.95 21.6 L10.5 15.55 9.95 21.6 10.0 24.25 10.05 27.25 Q11.25 26.25 13.0 26.5 L14.45 26.7 17.6 27.1 19.6 27.35 25.5 27.65 28.1 27.0 Q29.85 26.3 31.65 25.55 L31.9 25.65 30.75 26.7 29.45 27.6 27.6 28.9 Q26.65 29.55 25.65 30.0 L22.45 30.85 20.95 30.9 20.3 30.75 18.9 30.35 11.1 29.9 10.0 29.7 Q9.9 32.45 8.05 34.25 6.25 36.0 4.05 36.55 L3.15 36.15 2.75 33.1 2.6 31.95 2.55 31.6 2.55 31.35 Q2.6 30.5 3.2 30.05 L3.9 29.5 4.1 29.25 4.3 28.9 Q4.5 28.4 4.85 28.0 L5.6 27.15 Q6.45 26.45 6.15 25.3 L6.0 24.4 6.05 23.45 Q6.5 20.9 5.8 18.5 L5.25 17.0 4.55 15.85 Q6.5 13.6 9.0 11.85 L9.85 11.35 9.0 11.85 Q6.5 13.6 4.55 15.85 L4.15 15.45 3.3 14.2 Q3.0 13.55 3.0 12.8 L2.9 12.5 2.0 11.75 1.95 11.8 1.95 11.7 1.75 11.55 1.35 10.8 Q1.1 9.9 0.05 9.6 0.0 7.4 0.55 5.35 L0.85 4.2 Q1.3 2.9 2.2 2.0 3.95 0.25 6.6 0.0 L7.8 1.2 Q9.4 2.9 10.1 5.25 L10.1 5.3 10.1 5.25 M7.3 15.1 L6.65 15.75 5.65 16.7 5.6 16.95 5.65 16.7 6.65 15.75 7.3 15.1 M1.95 11.7 L2.0 11.75 1.95 11.7 M19.65 28.7 L19.65 29.0 Q19.65 29.9 18.9 30.35 19.65 29.9 19.65 29.0 L19.65 28.7 M10.0 29.7 L10.05 27.25 10.0 29.7 M3.75 32.25 L3.85 32.55 3.9 32.75 3.6 32.85 2.75 33.1 3.6 32.85 3.9 32.75 3.85 32.55 3.75 32.25 M21.5 30.25 L20.95 30.9 21.5 30.25" fill="#4b5963" fill-rule="evenodd" stroke="none"/>
    <path d="M10.7 9.65 Q15.05 7.55 20.05 7.5 L22.1 7.15 26.2 5.65 31.95 2.75 Q30.45 4.05 29.4 5.8 L29.35 5.85 29.2 6.15 26.15 7.7 Q25.15 8.05 24.35 8.7 L24.15 8.8 23.5 8.95 24.0 9.0 27.85 9.8 Q28.8 9.9 29.1 10.65 L28.95 10.8 Q28.2 11.3 27.85 12.05 L29.85 11.7 Q27.75 12.3 25.7 13.3 24.55 13.85 23.9 14.8 L23.75 14.8 16.55 14.85 Q16.3 14.8 16.75 14.55 L17.8 14.05 18.6 13.4 18.8 12.8 18.55 12.55 16.85 12.25 15.35 11.8 14.1 11.5 13.0 11.65 12.65 11.75 11.6 12.1 11.3 12.2 12.4 12.65 12.7 12.65 12.65 13.1 12.75 13.35 13.1 13.6 Q13.45 13.8 13.45 14.95 L13.4 14.95 13.35 14.95 13.2 14.95 11.65 15.25 10.5 15.55 10.7 9.65 M25.3 17.3 L25.15 17.95 24.75 17.6 24.6 17.35 25.3 17.3 M18.15 17.85 Q19.25 18.4 20.3 19.25 L20.8 19.7 21.3 20.15 21.8 20.2 22.6 20.05 22.75 20.2 23.1 20.4 Q23.2 21.2 22.85 21.4 L22.3 21.6 Q21.5 21.75 21.05 22.05 L20.95 22.2 Q20.85 22.9 20.1 23.25 L19.2 23.55 18.65 23.9 Q18.35 24.45 18.5 25.05 L18.4 25.3 Q17.65 26.0 16.55 25.9 L16.45 26.05 Q16.75 26.6 17.3 26.7 L17.4 26.8 17.6 27.1 14.45 26.7 14.3 26.5 14.05 26.3 13.3 25.6 13.45 25.45 13.8 25.15 14.3 24.8 14.4 24.7 14.25 24.7 14.4 24.7 14.3 24.8 14.25 24.7 13.3 24.55 10.0 24.25 9.95 21.6 Q12.95 18.6 17.25 18.0 L18.15 17.85 M14.65 23.8 L17.7 24.0 14.65 23.8 M11.8 22.4 L13.75 21.35 Q16.85 19.9 20.05 20.05 16.85 19.9 13.75 21.35 L11.8 22.4 M25.7 11.8 L19.85 13.2 18.6 13.4 19.85 13.2 25.7 11.8 M16.55 25.9 L16.4 25.95 16.45 26.05 16.4 25.95 16.55 25.9 M12.25 10.85 L23.35 9.65 12.25 10.85" fill="url(#gradient0)" fill-rule="evenodd" stroke="none"/>
    <path d="M31.95 2.75 Q34.45 1.4 36.25 -0.9 37.0 -1.85 36.9 -3.05 L36.6 -4.9 36.05 -6.6 36.3 -5.15 35.5 -3.75 35.2 -3.15 Q31.45 1.6 25.8 3.8 L22.75 4.65 17.95 5.3 Q14.05 5.95 10.1 5.25 9.4 2.9 7.8 1.2 L6.6 0.0 M10.1 5.3 L10.7 9.65 Q15.05 7.55 20.05 7.5 L22.1 7.15 26.2 5.65 31.95 2.75 M23.9 14.8 L26.55 14.5 M24.6 17.35 L21.2 17.35 18.15 17.85 17.25 18.0 Q12.95 18.6 9.95 21.6 L10.0 24.25 10.05 27.25 10.0 29.7 Q9.9 32.45 8.05 34.25 6.25 36.0 4.05 36.55 L3.15 36.15 2.75 33.1 2.6 31.95 M17.6 27.1 L19.6 27.35 25.5 27.65 28.1 27.0 Q29.85 26.3 31.65 25.55 L31.95 25.6 31.9 25.65 30.75 26.7 29.45 27.6 27.6 28.9 Q26.65 29.55 25.65 30.0 L22.45 30.85 20.95 30.9 20.3 30.75 18.9 30.35 11.1 29.9 10.0 29.7 M0.05 9.6 Q0.0 7.4 0.55 5.35 M24.6 17.35 L25.3 17.3 M23.9 14.8 L23.75 14.8 16.55 14.85 14.75 14.85 13.45 14.95 13.4 14.95 M13.2 14.95 L11.65 15.25 10.5 15.55 9.95 21.6 M10.1 5.3 L10.1 5.25 M14.45 26.7 L17.6 27.1 M10.5 15.55 L10.7 9.65 M14.45 26.7 L13.0 26.5 Q11.25 26.25 10.05 27.25" fill="none" stroke="#000000" stroke-linecap="round" stroke-linejoin="round" stroke-width="0.05"/>
    <path d="M31.95 2.75 Q30.45 4.05 29.4 5.8 L29.35 6.05 29.2 6.15 26.15 7.7 Q25.15 8.05 24.35 8.7 L24.15 8.8 23.5 8.95 24.0 9.0 27.85 9.8 Q28.8 9.9 29.1 10.65 L28.95 10.8 Q28.2 11.3 27.85 12.05 L29.85 11.7 Q27.75 12.3 25.7 13.3 24.55 13.85 23.9 14.8 M18.15 17.85 Q19.25 18.4 20.3 19.25 L20.8 19.7 21.3 20.15 21.8 20.2 22.6 20.05 22.75 20.2 23.1 20.4 Q23.2 21.2 22.85 21.4 L22.3 21.6 Q21.5 21.75 21.05 22.05 L20.95 22.2 Q20.85 22.9 20.1 23.25 L19.2 23.55 18.65 23.9 Q18.35 24.45 18.5 25.05 L18.4 25.3 Q17.65 26.0 16.55 25.9 L16.4 25.95 16.45 26.05 Q16.75 26.6 17.3 26.7 L17.4 26.8 17.6 27.1 M29.2 6.15 L29.35 5.85 29.4 5.8 M13.4 14.95 L13.35 14.95 13.2 14.95 M16.55 14.85 Q16.3 14.8 16.75 14.55 L17.8 14.05 18.6 13.4 18.8 12.8 18.55 12.55 16.85 12.25 15.35 11.8 14.1 11.5 13.0 11.65 12.65 11.75 11.6 12.1 11.3 12.2 12.4 12.65 12.7 12.65 12.65 13.1 12.75 13.35 13.1 13.6 Q13.45 13.8 13.45 14.95 M10.0 24.25 L13.3 24.55 14.25 24.7 14.4 24.7 14.3 24.8 13.8 25.15 13.45 25.45 13.3 25.6 14.05 26.3 14.3 26.5 14.45 26.7 M18.6 13.4 L19.85 13.2 25.7 11.8 M20.05 20.05 Q16.85 19.9 13.75 21.35 L11.8 22.4 M17.7 24.0 L14.65 23.8 M23.35 9.65 L12.25 10.85" fill="none" stroke="#375511" stroke-linecap="round" stroke-linejoin="round" stroke-width="0.05"/>
    <path d="M26.55 14.5 L26.4 15.25 26.4 15.45 31.7 14.85 37.25 13.0 36.35 13.55 Q34.0 15.15 31.1 15.55 L25.4 16.4 25.3 17.3 M2.6 31.95 L2.55 31.6 2.55 31.35 Q2.6 30.5 3.2 30.05 L3.9 29.5 3.9 22.7 Q3.95 18.25 1.95 11.8 L1.95 11.7 1.75 11.55 1.35 10.8 Q1.1 9.9 0.05 9.6 M25.4 16.4 L26.4 15.45 M2.0 11.75 L1.95 11.7 M4.55 15.85 Q6.5 13.6 9.0 11.85 L9.85 11.35 M5.6 16.95 L5.65 16.7 6.65 15.75 7.3 15.1 M4.55 15.85 L5.25 17.0 5.8 18.5 Q6.5 20.9 6.05 23.45 L6.0 24.4 6.15 25.3 Q6.45 26.45 5.6 27.15 L4.85 28.0 Q4.5 28.4 4.3 28.9 L4.1 29.25 3.9 29.5 M2.0 11.75 L2.9 12.5 3.0 12.8 Q3.0 13.55 3.3 14.2 L4.15 15.45 4.55 15.85 M18.9 30.35 Q19.65 29.9 19.65 29.0 L19.65 28.7 M2.75 33.1 L3.6 32.85 3.9 32.75 3.85 32.55 3.75 32.25 M20.95 30.9 L21.5 30.25" fill="none" stroke="#000000" stroke-linecap="round" stroke-linejoin="round" stroke-width="0.05"/>
  </g>
  <defs>
    <linearGradient gradientTransform="matrix(0.0076, 0.0023, -0.0029, 0.0099, 20.4, 14.35)" gradientUnits="userSpaceOnUse" id="gradient0" spreadMethod="pad" x1="-819.2" x2="819.2">
      <stop offset="0.0" stop-color="#26561d" stop-opacity="0.67058825"/>
      <stop offset="1.0" stop-color="#399f39" stop-opacity="0.2"/>
    </linearGradient>
  </defs>
</svg>
