<?xml version="1.0" encoding="UTF-8" standalone="no"?>
<svg xmlns:xlink="http://www.w3.org/1999/xlink" height="43.15px" width="48.9px" xmlns="http://www.w3.org/2000/svg">
  <g transform="matrix(1.0, 0.0, 0.0, 1.0, 0.0, 0.0)">
    <path d="M28.1 27.0 Q29.85 26.3 31.65 25.55 L31.9 25.65 30.75 26.7 29.45 27.6 27.6 28.9 Q26.65 29.55 25.65 30.0 L22.45 30.85 20.3 30.75 Q15.75 29.25 11.1 29.9 L10.0 29.7 Q9.9 32.45 8.05 34.25 6.25 36.0 4.05 36.55 L3.15 36.15 1.6 24.55 Q0.65 17.6 0.1 10.45 -0.1 7.8 0.55 5.35 L0.85 4.2 Q1.3 2.9 2.2 2.0 3.95 0.25 6.6 0.0 L7.8 1.2 Q9.4 2.9 10.1 5.25 L10.1 5.3 10.1 5.25 Q14.05 5.95 17.95 5.3 L22.75 4.65 25.8 3.8 Q31.45 1.6 35.2 -3.15 L35.5 -3.75 36.3 -5.15 36.05 -6.6 36.6 -4.9 36.9 -3.05 Q37.0 -1.85 36.25 -0.9 34.45 1.4 31.95 2.75 L26.2 5.65 22.1 7.15 20.05 7.5 Q15.05 7.55 10.7 9.65 L10.5 15.55 11.65 15.25 14.75 14.85 23.75 14.8 28.3 14.3 Q33.1 13.8 37.5 11.95 41.15 10.5 44.3 8.05 47.4 5.8 48.3 2.15 49.2 4.15 48.9 5.75 48.55 7.3 48.05 8.0 L47.1 9.2 44.55 12.05 40.15 14.5 Q38.15 15.5 35.65 15.9 L29.6 16.85 21.2 17.35 17.25 18.0 Q12.95 18.6 9.95 21.6 L10.05 27.25 Q11.25 26.25 13.0 26.5 L19.6 27.35 25.5 27.65 28.1 27.0" fill="#413153" fill-rule="evenodd" stroke="none"/>
    <path d="M28.1 27.0 L25.5 27.65 19.6 27.35 13.0 26.5 Q11.25 26.25 10.05 27.25 L9.95 21.6 Q12.95 18.6 17.25 18.0 L21.2 17.35 29.6 16.85 35.65 15.9 Q38.15 15.5 40.15 14.5 L44.55 12.05 43.5 13.4 40.1 16.25 Q38.2 17.8 37.65 18.4 36.0 19.9 34.2 19.9 31.6 20.05 29.25 20.95 L30.55 21.45 25.7 24.05 28.1 27.0 M44.3 8.05 Q41.15 10.5 37.5 11.95 33.1 13.8 28.3 14.3 L23.75 14.8 14.75 14.85 11.65 15.25 10.5 15.55 10.7 9.65 Q15.05 7.55 20.05 7.5 L22.1 7.15 26.2 5.65 31.95 2.75 Q30.45 4.05 29.35 5.85 L29.0 6.6 30.15 6.9 29.0 7.8 30.65 8.35 33.7 8.25 30.9 10.35 Q35.75 10.7 40.5 9.2 L42.75 8.5 44.3 8.05" fill="url(#gradient0)" fill-rule="evenodd" stroke="none"/>
  </g>
  <defs>
    <linearGradient gradientTransform="matrix(0.0076, 0.0023, -0.0029, 0.0099, 20.4, 14.35)" gradientUnits="userSpaceOnUse" id="gradient0" spreadMethod="pad" x1="-819.2" x2="819.2">
      <stop offset="0.0" stop-color="#ff0000" stop-opacity="0.57254905"/>
      <stop offset="1.0" stop-color="#ff9605" stop-opacity="0.4509804"/>
    </linearGradient>
  </defs>
</svg>
