<?xml version="1.0" encoding="UTF-8" standalone="no"?>
<svg xmlns:xlink="http://www.w3.org/1999/xlink" height="42.4px" width="71.4px" xmlns="http://www.w3.org/2000/svg">
  <g transform="matrix(1.0, 0.0, 0.0, 1.0, 0.0, 0.0)">
    <path d="M2.6 29.8 Q1.1 27.65 0.3 25.4 -0.55 23.1 -1.05 23.6 L-3.25 18.55 Q0.1 10.35 8.7 5.25 17.3 0.1 28.1 0.85 L40.8 1.95 65.35 0.0 Q66.45 0.1 66.8 1.25 68.3 5.75 68.15 12.6 68.0 19.55 66.3 24.1 65.4 24.4 59.05 24.1 56.3 23.95 54.0 25.0 L53.75 23.45 Q55.6 20.75 55.9 17.4 L55.95 16.3 55.9 17.4 Q55.6 20.75 53.75 23.45 L54.0 25.0 Q50.85 26.45 48.55 29.85 46.85 32.5 44.35 35.25 L43.05 33.45 Q45.15 30.65 45.65 27.3 L45.85 25.7 45.4 25.0 44.55 24.65 45.4 25.0 45.85 25.7 45.65 27.3 Q45.15 30.65 43.05 33.45 L44.35 35.25 39.05 38.05 35.3 39.65 31.75 41.15 Q25.45 43.65 17.1 41.05 L14.25 40.0 14.35 36.7 Q18.4 36.7 21.3 33.4 23.3 31.1 22.95 28.0 23.3 31.1 21.3 33.4 18.4 36.7 14.35 36.7 L14.25 40.0 Q7.05 36.65 2.6 29.8 L3.3 26.75 Q8.0 28.1 10.15 22.9 L10.5 21.85 10.15 22.9 Q8.0 28.1 3.3 26.75 L2.6 29.8 M33.35 28.1 Q34.55 29.1 34.6 30.85 34.75 36.1 31.5 39.85 L31.75 41.15 31.5 39.85 Q34.75 36.1 34.6 30.85 34.55 29.1 33.35 28.1" fill="#990000" fill-rule="evenodd" stroke="none"/>
    <path d="M54.0 25.0 Q56.3 23.95 59.05 24.1 65.4 24.4 66.3 24.1 68.0 19.55 68.15 12.6 68.3 5.75 66.8 1.25 66.45 0.1 65.35 0.0 L40.8 1.95 28.1 0.85 Q17.3 0.1 8.7 5.25 0.1 10.35 -3.25 18.55 L-1.05 23.6 Q-0.55 23.1 0.3 25.4 1.1 27.65 2.6 29.8 7.05 36.65 14.25 40.0 L17.1 41.05 Q25.45 43.65 31.75 41.15 L35.3 39.65 39.05 38.05 44.35 35.25 Q46.85 32.5 48.55 29.85 50.85 26.45 54.0 25.0" fill="none" stroke="#000000" stroke-linecap="round" stroke-linejoin="round" stroke-width="0.05"/>
    <path d="M2.6 29.8 L3.3 26.75 Q8.0 28.1 10.15 22.9 L10.5 21.85 M54.0 25.0 L53.75 23.45 Q55.6 20.75 55.9 17.4 L55.95 16.3 M44.35 35.25 L43.05 33.45 Q45.15 30.65 45.65 27.3 L45.85 25.7 45.4 25.0 44.55 24.65 M31.75 41.15 L31.5 39.85 Q34.75 36.1 34.6 30.85 34.55 29.1 33.35 28.1 M14.25 40.0 L14.35 36.7 Q18.4 36.7 21.3 33.4 23.3 31.1 22.95 28.0" fill="none" stroke="#ffcc00" stroke-linecap="round" stroke-linejoin="round" stroke-width="0.05"/>
  </g>
</svg>
