<?xml version="1.0" encoding="UTF-8" standalone="no"?>
<svg xmlns:xlink="http://www.w3.org/1999/xlink" height="37.65px" width="71.4px" xmlns="http://www.w3.org/2000/svg">
  <g transform="matrix(1.0, 0.0, 0.0, 1.0, 0.0, 0.0)">
    <path d="M2.6 26.45 Q1.1 24.55 0.3 22.55 -0.55 20.5 -1.05 20.95 L-3.25 16.45 Q0.1 9.2 8.7 4.65 17.3 0.1 28.1 0.75 L40.8 1.75 65.35 0.0 Q66.45 0.1 66.8 1.1 69.75 9.05 66.3 17.2 65.4 17.45 59.05 17.2 56.3 17.05 54.0 18.0 L53.75 16.6 Q55.6 14.1 55.9 11.25 L55.95 10.25 55.9 11.25 Q55.6 14.1 53.75 16.6 L54.0 18.0 Q50.9 19.2 48.55 22.3 L44.35 27.1 43.05 25.5 Q45.1 23.1 45.65 20.0 L45.85 18.6 45.4 18.0 44.55 17.65 45.4 18.0 45.85 18.6 45.65 20.0 Q45.1 23.1 43.05 25.5 L44.35 27.1 Q41.15 30.3 36.8 33.75 34.45 35.55 31.75 36.55 25.45 38.75 17.1 36.45 L14.25 35.5 Q7.05 32.55 2.6 26.45 L3.3 23.75 Q8.0 24.95 10.15 20.35 L10.5 19.4 10.15 20.35 Q8.0 24.95 3.3 23.75 L2.6 26.45 M22.95 24.85 Q23.3 27.6 21.3 29.65 18.4 32.6 14.35 32.6 L14.25 35.5 14.35 32.6 Q18.4 32.6 21.3 29.65 23.3 27.6 22.95 24.85 M33.35 24.95 Q34.55 25.85 34.6 27.4 34.75 32.05 31.5 35.4 L31.75 36.55 31.5 35.4 Q34.75 32.05 34.6 27.4 34.55 25.85 33.35 24.95" fill="#413153" fill-rule="evenodd" stroke="none"/>
    <path d="M2.6 26.45 L3.3 23.75 Q8.0 24.95 10.15 20.35 L10.5 19.4 M44.35 27.1 L43.05 25.5 Q45.1 23.1 45.65 20.0 L45.85 18.6 45.4 18.0 44.55 17.65 M54.0 18.0 L53.75 16.6 Q55.6 14.1 55.9 11.25 L55.95 10.25 M14.25 35.5 L14.35 32.6 Q18.4 32.6 21.3 29.65 23.3 27.6 22.95 24.85 M31.75 36.55 L31.5 35.4 Q34.75 32.05 34.6 27.4 34.55 25.85 33.35 24.95" fill="none" stroke="#660099" stroke-linecap="round" stroke-linejoin="round" stroke-width="0.05"/>
  </g>
</svg>
