<?xml version="1.0" encoding="UTF-8" standalone="no"?>
<svg xmlns:xlink="http://www.w3.org/1999/xlink" height="49.3px" width="50.85px" xmlns="http://www.w3.org/2000/svg">
  <g transform="matrix(1.0, 0.0, 0.0, 1.0, 0.0, 0.0)">
    <path d="M18.95 -0.7 L19.0 -0.55 20.55 -0.85 25.1 -0.7 Q29.85 -0.65 34.35 -1.75 35.75 -2.15 37.2 -3.05 L36.7 -2.25 Q35.4 -0.45 33.35 0.5 L31.9 1.05 22.1 1.6 19.75 2.25 23.7 12.3 27.6 12.25 33.2 11.7 Q38.15 11.45 42.65 9.45 L43.15 9.3 44.05 8.9 Q46.25 8.1 47.8 6.4 L48.2 6.0 48.0 6.5 Q47.7 7.5 46.75 8.0 L44.05 9.5 43.65 9.65 Q42.5 11.05 40.4 11.55 L36.8 12.4 32.45 13.45 24.95 14.75 30.3 23.05 30.4 23.25 Q30.25 25.95 29.0 28.35 28.1 30.1 26.05 32.1 L21.45 36.85 Q18.9 39.6 14.95 46.25 L9.15 40.3 Q6.8 38.1 3.7 33.1 1.55 30.05 0.6 26.65 L-1.4 19.25 -1.9 16.7 -2.65 5.15 Q1.4 4.65 5.45 2.7 7.75 1.65 10.35 1.05 L14.65 0.1 18.95 -0.7 M24.95 14.75 L23.7 12.3 24.95 14.75 M13.3 25.5 Q12.1 26.65 10.85 28.3 10.3 29.05 9.4 29.55 L7.8 30.3 5.9 30.15 4.85 29.75 3.7 33.1 4.85 29.75 5.9 30.15 7.8 30.3 9.4 29.55 Q10.3 29.05 10.85 28.3 12.1 26.65 13.3 25.5 M-1.9 16.7 L-0.15 15.1 2.85 16.05 3.7 15.6 4.6 13.6 5.6 13.25 Q7.8 12.45 9.55 10.65 7.8 12.45 5.6 13.25 L4.6 13.6 3.7 15.6 2.85 16.05 -0.15 15.1 -1.9 16.7 M19.75 2.25 L19.0 -0.55 19.75 2.25" fill="#990000" fill-rule="evenodd" stroke="none"/>
    <path d="M33.35 0.5 Q33.7 1.25 32.8 1.5 31.55 1.95 31.1 3.05 L33.2 4.0 32.0 5.0 32.5 5.3 34.3 5.6 34.8 5.85 31.3 8.0 Q36.9 9.7 42.65 9.35 L42.65 9.45 Q38.15 11.45 33.2 11.7 L27.6 12.25 23.7 12.3 19.75 2.25 22.1 1.6 31.9 1.05 33.35 0.5 M43.65 9.65 L43.75 9.85 43.5 11.3 45.7 12.0 43.0 13.95 Q42.05 14.75 41.7 15.8 L42.5 17.7 41.7 18.4 Q37.1 19.35 32.95 21.15 31.35 21.8 30.3 23.05 L24.95 14.75 32.45 13.45 36.8 12.4 40.4 11.55 Q42.5 11.05 43.65 9.65 M24.95 11.3 L27.6 12.25 24.95 11.3 M24.95 9.35 Q26.95 10.3 29.05 10.3 L32.5 9.65 29.05 10.3 Q26.95 10.3 24.95 9.35 M22.1 4.7 L22.9 4.3 25.9 4.25 22.9 4.3 22.1 4.7 M27.8 16.7 L28.85 15.95 Q31.2 14.5 33.9 13.9 31.2 14.5 28.85 15.95 L27.8 16.7 M30.35 20.0 L32.25 19.1 30.35 20.0" fill="url(#gradient0)" fill-rule="evenodd" stroke="none"/>
    <path d="M18.95 -0.7 L19.0 -0.55 20.55 -0.85 25.1 -0.7 Q29.85 -0.65 34.35 -1.75 35.75 -2.15 37.2 -3.05 L36.7 -2.25 Q35.4 -0.45 33.35 0.5 L31.9 1.05 22.1 1.6 19.75 2.25 23.7 12.3 27.6 12.25 33.2 11.7 Q38.15 11.45 42.65 9.45 L43.15 9.3 44.05 8.9 Q46.25 8.1 47.8 6.4 L48.2 6.0 48.0 6.5 Q47.7 7.5 46.75 8.0 L44.05 9.5 43.65 9.65 M30.3 23.05 L30.4 23.25 M14.95 46.25 L9.15 40.3 Q6.8 38.1 3.7 33.1 1.55 30.05 0.6 26.65 L-1.4 19.25 -1.9 16.7 -2.65 5.15 M23.7 12.3 L24.95 14.75 M19.0 -0.55 L19.75 2.25" fill="none" stroke="#000000" stroke-linecap="round" stroke-linejoin="round" stroke-width="0.05"/>
    <path d="M33.35 0.5 Q33.7 1.25 32.8 1.5 31.55 1.95 31.1 3.05 L33.2 4.0 32.0 5.0 32.5 5.3 34.3 5.6 34.8 5.85 31.3 8.0 Q36.9 9.7 42.65 9.35 M43.65 9.65 L43.75 9.85 43.5 11.3 45.7 12.0 43.0 13.95 Q42.05 14.75 41.7 15.8 L42.5 17.7 41.7 18.4 Q37.1 19.35 32.95 21.15 31.35 21.8 30.3 23.05 L24.95 14.75 32.45 13.45 36.8 12.4 40.4 11.55 Q42.5 11.05 43.65 9.65 M25.9 4.25 L22.9 4.3 22.1 4.7 M32.5 9.65 L29.05 10.3 Q26.95 10.3 24.95 9.35 M27.6 12.25 L24.95 11.3 M33.9 13.9 Q31.2 14.5 28.85 15.95 L27.8 16.7 M32.25 19.1 L30.35 20.0 M9.55 10.65 Q7.8 12.45 5.6 13.25 L4.6 13.6 3.7 15.6 2.85 16.05 -0.15 15.1 -1.9 16.7 M3.7 33.1 L4.85 29.75 5.9 30.15 7.8 30.3 9.4 29.55 Q10.3 29.05 10.85 28.3 12.1 26.65 13.3 25.5" fill="none" stroke="#ffcc00" stroke-linecap="round" stroke-linejoin="round" stroke-width="0.05"/>
  </g>
  <defs>
    <linearGradient gradientTransform="matrix(0.0103, -0.0041, 0.0038, 0.0096, 32.75, 11.1)" gradientUnits="userSpaceOnUse" id="gradient0" spreadMethod="pad" x1="-819.2" x2="819.2">
      <stop offset="0.0" stop-color="#cc1102" stop-opacity="0.4509804"/>
      <stop offset="1.0" stop-color="#ffb213" stop-opacity="0.57254905"/>
    </linearGradient>
  </defs>
</svg>
