<?xml version="1.0" encoding="UTF-8" standalone="no"?>
<svg xmlns:xlink="http://www.w3.org/1999/xlink" height="45.15px" width="42.45px" xmlns="http://www.w3.org/2000/svg">
  <g transform="matrix(1.0, 0.0, 0.0, 1.0, 0.0, 0.0)">
    <path d="M19.0 -0.55 L20.55 -0.85 25.1 -0.7 Q29.85 -0.65 34.35 -1.75 35.75 -2.15 37.2 -3.05 L36.7 -2.25 Q35.4 -0.45 33.35 0.5 L31.9 1.05 28.45 1.2 24.5 1.45 22.1 1.6 19.75 2.25 19.0 -0.55 M29.4 12.1 L33.2 11.7 36.15 11.4 36.65 11.85 37.2 12.3 36.8 12.4 32.45 13.45 30.7 13.85 24.95 14.75 23.7 12.3 27.6 12.25 29.4 12.1" fill="#552811" fill-rule="evenodd" stroke="none"/>
    <path d="M18.95 -0.7 L19.0 -0.55 19.75 2.25 21.85 7.65 23.7 12.3 24.95 14.75 26.0 16.4 30.3 23.05 30.4 23.25 Q30.25 25.95 29.0 28.35 26.8 32.5 23.25 35.25 L15.05 42.1 11.85 39.4 Q9.45 37.15 6.4 32.2 4.45 29.4 3.45 26.3 L3.45 26.25 3.3 25.75 1.3 18.35 0.8 15.8 0.05 4.25 Q4.25 3.7 8.15 1.8 10.5 0.75 13.05 0.15 L18.95 -0.7 M24.95 16.3 L23.95 16.7 21.8 17.8 Q19.8 19.0 18.0 20.45 19.8 19.0 21.8 17.8 L23.95 16.7 24.95 16.3 M22.35 18.3 L26.0 16.4 22.35 18.3 M16.0 24.6 L13.55 27.4 12.1 28.65 10.5 29.4 8.6 29.25 7.55 28.85 6.4 32.2 7.55 28.85 8.6 29.25 10.5 29.4 12.1 28.65 13.55 27.4 16.0 24.6 M12.25 9.75 Q10.6 11.5 8.3 12.35 L7.3 12.7 6.4 14.7 Q6.0 14.95 5.55 15.15 L2.55 14.2 0.8 15.8 2.55 14.2 5.55 15.15 Q6.0 14.95 6.4 14.7 L7.3 12.7 8.3 12.35 Q10.6 11.5 12.25 9.75 M3.45 26.3 L3.6 26.05 5.8 22.8 7.95 19.9 10.25 17.0 13.4 12.95 15.05 11.0 15.55 10.5 15.0 11.35 11.95 15.55 10.05 18.1 6.5 22.6 10.05 18.1 11.95 15.55 15.0 11.35 15.55 10.5 15.05 11.0 13.4 12.95 10.25 17.0 7.95 19.9 5.8 22.8 3.6 26.05 3.45 26.3 M18.15 4.75 L17.6 4.5 15.3 3.95 Q12.6 3.35 9.95 4.05 12.6 3.35 15.3 3.95 L17.6 4.5 18.15 4.75 M12.95 5.3 L14.25 5.35 17.6 5.95 Q19.85 6.5 21.85 7.65 19.85 6.5 17.6 5.95 L14.25 5.35 12.95 5.3" fill="#4b5963" fill-rule="evenodd" stroke="none"/>
    <path d="M33.35 0.5 Q33.7 1.25 32.8 1.5 31.55 1.95 31.1 3.05 L32.25 3.6 32.15 3.7 29.45 5.95 29.05 6.15 Q28.9 6.2 29.25 6.65 29.75 7.15 29.7 7.8 L29.55 8.1 Q28.9 8.7 29.5 9.3 L29.7 9.5 29.15 9.9 28.7 10.25 28.65 10.3 28.5 10.6 28.55 10.8 29.4 12.1 27.6 12.25 23.7 12.3 21.85 7.65 19.75 2.25 22.1 1.6 24.5 1.45 25.15 4.1 25.2 5.05 25.2 6.05 25.15 6.65 25.1 7.05 26.85 5.1 27.25 4.45 27.55 3.2 27.65 2.75 27.85 2.35 28.05 2.1 28.25 1.75 28.45 1.2 31.9 1.05 33.35 0.5 M30.7 13.85 Q30.9 14.3 31.45 14.6 L31.5 14.65 31.55 14.7 Q31.7 15.05 32.2 14.85 L33.3 14.7 Q34.6 14.7 35.4 15.45 L36.25 16.6 Q36.6 17.5 37.35 17.15 38.3 16.7 39.3 16.9 L40.0 17.1 40.35 17.15 42.35 17.3 42.5 17.7 41.7 18.4 Q37.1 19.35 32.95 21.15 31.35 21.8 30.3 23.05 L26.0 16.4 24.95 14.75 30.7 13.85 M22.1 4.7 L22.9 4.3 25.15 4.1 22.9 4.3 22.1 4.7 M24.95 11.3 L27.6 12.25 24.95 11.3 M24.95 9.35 Q26.75 10.2 28.65 10.3 26.75 10.2 24.95 9.35 M27.8 16.7 L28.85 15.95 Q30.1 15.15 31.5 14.65 30.1 15.15 28.85 15.95 L27.8 16.7 M26.25 16.2 L26.0 16.4 26.25 16.2 M30.35 20.0 L32.25 19.1 30.35 20.0" fill="url(#gradient0)" fill-rule="evenodd" stroke="none"/>
    <path d="M18.95 -0.7 L19.0 -0.55 20.55 -0.85 25.1 -0.7 Q29.85 -0.65 34.35 -1.75 35.75 -2.15 37.2 -3.05 L36.7 -2.25 Q35.4 -0.45 33.35 0.5 L31.9 1.05 28.45 1.2 24.5 1.45 22.1 1.6 19.75 2.25 21.85 7.65 23.7 12.3 27.6 12.25 29.4 12.1 33.2 11.7 36.15 11.4 M37.2 12.3 L36.8 12.4 32.45 13.45 30.7 13.85 24.95 14.75 23.7 12.3 M30.3 23.05 L30.4 23.25 M15.05 42.1 L11.85 39.4 Q9.45 37.15 6.4 32.2 4.45 29.4 3.45 26.3 M3.45 26.25 L3.3 25.75 1.3 18.35 0.8 15.8 0.05 4.25 M26.0 16.4 L24.95 14.75 M30.3 23.05 L26.0 16.4 M19.0 -0.55 L19.75 2.25" fill="none" stroke="#000000" stroke-linecap="round" stroke-linejoin="round" stroke-width="0.05"/>
    <path d="M33.35 0.5 Q33.7 1.25 32.8 1.5 31.55 1.95 31.1 3.05 L32.25 3.6 32.15 3.7 29.45 5.95 29.05 6.15 Q28.9 6.2 29.25 6.65 29.75 7.15 29.7 7.8 L29.55 8.1 Q28.9 8.7 29.5 9.3 L29.7 9.5 29.15 9.9 28.7 10.25 28.65 10.3 28.5 10.6 28.55 10.8 29.4 12.1 M30.7 13.85 Q30.9 14.3 31.45 14.6 L31.5 14.65 31.55 14.7 Q31.7 15.05 32.2 14.85 L33.3 14.7 Q34.6 14.7 35.4 15.45 L36.25 16.6 Q36.6 17.5 37.35 17.15 38.3 16.7 39.3 16.9 L40.0 17.1 40.35 17.15 42.35 17.3 42.5 17.7 M28.45 1.2 L28.25 1.75 28.05 2.1 27.85 2.35 27.65 2.75 27.55 3.2 27.25 4.45 26.85 5.1 25.1 7.05 25.15 6.65 25.2 6.05 25.2 5.05 25.15 4.1 22.9 4.3 22.1 4.7 M27.6 12.25 L24.95 11.3 M24.5 1.45 L25.15 4.1 M28.65 10.3 Q26.75 10.2 24.95 9.35 M31.5 14.65 Q30.1 15.15 28.85 15.95 L27.8 16.7 M32.25 19.1 L30.35 20.0" fill="none" stroke="#375511" stroke-linecap="round" stroke-linejoin="round" stroke-width="0.05"/>
    <path d="M36.15 11.4 L36.65 11.85 37.2 12.3 M3.45 26.3 L3.45 26.25 M18.0 20.45 Q19.8 19.0 21.8 17.8 L23.95 16.7 24.95 16.3 M26.0 16.4 L26.25 16.2 M26.0 16.4 L22.35 18.3 M21.85 7.65 Q19.85 6.5 17.6 5.95 L14.25 5.35 12.95 5.3 M9.95 4.05 Q12.6 3.35 15.3 3.95 L17.6 4.5 18.15 4.75 M6.5 22.6 L10.05 18.1 11.95 15.55 15.0 11.35 15.55 10.5 15.05 11.0 13.4 12.95 10.25 17.0 7.95 19.9 5.8 22.8 3.6 26.05 3.45 26.3 M0.8 15.8 L2.55 14.2 5.55 15.15 Q6.0 14.95 6.4 14.7 L7.3 12.7 8.3 12.35 Q10.6 11.5 12.25 9.75 M6.4 32.2 L7.55 28.85 8.6 29.25 10.5 29.4 12.1 28.65 13.55 27.4 16.0 24.6" fill="none" stroke="#000000" stroke-linecap="round" stroke-linejoin="round" stroke-width="0.05"/>
  </g>
  <defs>
    <linearGradient gradientTransform="matrix(0.0103, -0.0041, 0.0038, 0.0096, 32.75, 11.1)" gradientUnits="userSpaceOnUse" id="gradient0" spreadMethod="pad" x1="-819.2" x2="819.2">
      <stop offset="0.0" stop-color="#26561d" stop-opacity="0.67058825"/>
      <stop offset="1.0" stop-color="#399f39" stop-opacity="0.2"/>
    </linearGradient>
  </defs>
</svg>
