<?xml version="1.0" encoding="UTF-8" standalone="no"?>
<svg xmlns:xlink="http://www.w3.org/1999/xlink" height="45.15px" width="48.15px" xmlns="http://www.w3.org/2000/svg">
  <g transform="matrix(1.0, 0.0, 0.0, 1.0, 0.0, 0.0)">
    <path d="M18.95 -0.7 L19.0 -0.55 20.55 -0.85 25.1 -0.7 Q29.85 -0.65 34.35 -1.75 35.75 -2.15 37.2 -3.05 L36.7 -2.25 Q35.4 -0.45 33.35 0.5 L31.9 1.05 22.1 1.6 19.75 2.25 19.3 2.6 19.75 2.25 23.7 12.3 27.6 12.25 33.2 11.7 Q38.15 11.45 42.65 9.45 L43.15 9.3 44.05 8.9 Q46.25 8.1 47.8 6.4 L48.0 6.5 Q47.7 7.5 46.75 8.0 L44.05 9.5 43.65 9.65 Q42.5 11.05 40.4 11.55 L36.8 12.4 32.45 13.45 24.95 14.75 30.3 23.05 30.4 23.25 Q30.25 25.95 29.0 28.35 26.8 32.5 23.25 35.25 L15.05 42.1 11.85 39.4 Q9.45 37.15 6.4 32.2 4.3 29.2 3.3 25.75 L1.3 18.35 0.8 15.8 0.05 4.25 Q4.25 3.7 8.15 1.8 10.5 0.75 13.05 0.15 L18.95 -0.7 M24.95 14.75 L23.7 12.3 24.95 14.75 M16.0 24.6 L13.55 27.4 12.1 28.65 10.5 29.4 8.6 29.25 7.55 28.85 6.4 32.2 7.55 28.85 8.6 29.25 10.5 29.4 12.1 28.65 13.55 27.4 16.0 24.6 M0.8 15.8 L2.55 14.2 5.55 15.15 Q6.0 14.95 6.4 14.7 L7.3 12.7 8.3 12.35 Q10.6 11.5 12.25 9.75 10.6 11.5 8.3 12.35 L7.3 12.7 6.4 14.7 Q6.0 14.95 5.55 15.15 L2.55 14.2 0.8 15.8 M19.75 2.25 L19.0 -0.55 19.75 2.25" fill="#413153" fill-rule="evenodd" stroke="none"/>
    <path d="M33.35 0.5 Q33.7 1.25 32.8 1.5 31.55 1.95 31.1 3.05 L33.2 4.0 32.0 5.0 32.5 5.3 34.3 5.6 34.8 5.85 31.3 8.0 Q36.9 9.7 42.65 9.35 L42.65 9.45 Q38.15 11.45 33.2 11.7 L27.6 12.25 23.7 12.3 19.75 2.25 22.1 1.6 31.9 1.05 33.35 0.5 M43.75 9.85 L43.5 11.3 45.7 12.0 43.0 13.95 Q42.05 14.75 41.7 15.8 L42.5 17.7 41.7 18.4 Q37.1 19.35 32.95 21.15 31.35 21.8 30.3 23.05 L24.95 14.75 32.45 13.45 36.8 12.4 40.4 11.55 Q42.5 11.05 43.65 9.65 L43.75 9.85 M30.35 20.0 L32.25 19.1 30.35 20.0 M27.8 16.7 L28.85 15.95 Q31.2 14.5 33.9 13.9 31.2 14.5 28.85 15.95 L27.8 16.7 M24.95 9.35 Q26.95 10.3 29.05 10.3 L32.5 9.65 29.05 10.3 Q26.95 10.3 24.95 9.35 M22.1 4.7 L22.9 4.3 25.9 4.25 22.9 4.3 22.1 4.7 M24.95 11.3 L27.6 12.25 24.95 11.3" fill="url(#gradient0)" fill-rule="evenodd" stroke="none"/>
    <path d="M18.95 -0.7 L19.0 -0.55 20.55 -0.85 25.1 -0.7 Q29.85 -0.65 34.35 -1.75 35.75 -2.15 37.2 -3.05 L36.7 -2.25 Q35.4 -0.45 33.35 0.5 L31.9 1.05 22.1 1.6 19.75 2.25 19.3 2.6 M42.65 9.35 L43.15 9.3 44.05 8.9 Q46.25 8.1 47.8 6.4 L48.2 6.0 48.0 6.5 Q47.7 7.5 46.75 8.0 L44.05 9.5 43.75 9.85 M30.3 23.05 L30.4 23.25 M15.05 42.1 L11.85 39.4 Q9.45 37.15 6.4 32.2 4.3 29.2 3.3 25.75 L1.3 18.35 0.8 15.8 0.05 4.25 M44.05 9.5 L43.65 9.65 Q42.5 11.05 40.4 11.55 L36.8 12.4 32.45 13.45 24.95 14.75 30.3 23.05 M42.65 9.45 L43.15 9.3 M42.65 9.45 Q38.15 11.45 33.2 11.7 L27.6 12.25 23.7 12.3 24.95 14.75 M19.75 2.25 L23.7 12.3 M19.0 -0.55 L19.75 2.25" fill="none" stroke="#000000" stroke-linecap="round" stroke-linejoin="round" stroke-width="0.05"/>
    <path d="M12.25 9.75 Q10.6 11.5 8.3 12.35 L7.3 12.7 6.4 14.7 Q6.0 14.95 5.55 15.15 L2.55 14.2 0.8 15.8 M6.4 32.2 L7.55 28.85 8.6 29.25 10.5 29.4 12.1 28.65 13.55 27.4 16.0 24.6" fill="none" stroke="#660099" stroke-linecap="round" stroke-linejoin="round" stroke-width="0.05"/>
    <path d="M33.35 0.5 Q33.7 1.25 32.8 1.5 31.55 1.95 31.1 3.05 L33.2 4.0 32.0 5.0 32.5 5.3 34.3 5.6 34.8 5.85 31.3 8.0 Q36.9 9.7 42.65 9.35 M43.75 9.85 L43.5 11.3 45.7 12.0 43.0 13.95 Q42.05 14.75 41.7 15.8 L42.5 17.7 M27.6 12.25 L24.95 11.3 M25.9 4.25 L22.9 4.3 22.1 4.7 M32.5 9.65 L29.05 10.3 Q26.95 10.3 24.95 9.35 M33.9 13.9 Q31.2 14.5 28.85 15.95 L27.8 16.7 M32.25 19.1 L30.35 20.0" fill="none" stroke="#ff0000" stroke-linecap="round" stroke-linejoin="round" stroke-width="0.05"/>
  </g>
  <defs>
    <linearGradient gradientTransform="matrix(0.0103, -0.0041, 0.0038, 0.0096, 32.75, 11.1)" gradientUnits="userSpaceOnUse" id="gradient0" spreadMethod="pad" x1="-819.2" x2="819.2">
      <stop offset="0.0" stop-color="#ff0000" stop-opacity="0.57254905"/>
      <stop offset="1.0" stop-color="#ff9605" stop-opacity="0.4509804"/>
    </linearGradient>
  </defs>
</svg>
