<?xml version="1.0" encoding="UTF-8" standalone="no"?>
<svg xmlns:xlink="http://www.w3.org/1999/xlink" height="73.2px" width="133.2px" xmlns="http://www.w3.org/2000/svg">
  <g transform="matrix(1.0, 0.0, 0.0, 1.0, 0.0, 0.0)">
    <path d="M30.9 1.05 Q34.0 -0.35 36.75 -2.1 37.95 -2.85 38.75 -3.9 L39.0 -3.15 31.75 2.25 30.9 1.05 M46.6 11.9 L51.6 8.7 51.7 8.8 48.25 12.05 46.6 11.9 M57.6 44.25 L60.7 47.5 63.65 47.4 62.7 50.6 63.45 50.75 Q64.2 50.55 64.9 50.75 66.85 51.25 68.7 52.1 L71.3 52.85 72.6 53.0 73.4 55.15 75.5 54.0 83.8 56.8 87.6 57.8 88.2 58.85 90.0 57.85 101.2 58.45 102.25 59.45 104.2 58.2 107.15 58.2 107.7 58.4 108.05 58.6 108.3 59.2 Q109.25 58.55 110.3 58.45 L115.95 57.55 121.35 57.05 123.45 57.15 Q126.35 56.2 129.55 56.1 131.65 55.7 133.3 54.3 L133.45 54.4 131.55 56.35 130.4 56.95 Q128.2 57.5 126.2 58.5 125.55 58.55 124.9 58.15 L121.5 58.85 116.55 59.85 112.85 60.05 Q109.8 59.4 107.15 60.95 L105.75 61.4 104.9 61.45 103.35 61.1 Q101.55 60.55 99.6 61.35 98.95 61.7 98.25 61.7 L93.75 61.9 Q91.25 61.45 88.9 60.05 L87.35 60.85 85.6 59.85 85.05 59.5 81.8 58.65 Q78.2 57.7 74.7 59.05 L73.25 56.05 71.0 56.45 62.05 51.6 58.6 52.85 58.9 49.6 Q57.95 48.05 55.95 47.65 54.65 47.4 54.05 46.2 55.8 45.2 57.6 44.25 M37.75 34.8 L37.25 34.5 33.45 36.15 Q34.25 34.8 33.7 33.5 L31.95 29.95 28.1 32.25 28.05 32.1 29.0 28.1 25.85 24.35 30.7 23.1 35.55 23.15 35.65 24.05 37.1 24.9 36.45 27.05 39.15 27.05 Q39.65 30.8 37.95 34.1 L37.75 34.8" fill="#552811" fill-rule="evenodd" stroke="none"/>
    <path d="M8.7 0.05 L12.7 1.55 17.75 5.35 21.3 4.55 Q26.4 3.2 31.05 0.7 L30.9 1.05 31.75 2.25 32.25 2.55 22.35 9.15 28.95 14.75 29.65 15.4 29.1 17.45 29.65 15.4 30.75 16.35 35.0 20.2 30.75 16.35 41.45 13.5 45.6 11.6 46.6 11.9 48.25 12.05 49.25 12.3 44.95 16.3 37.05 16.55 Q35.95 16.7 35.35 17.65 L35.0 20.2 35.95 21.0 37.55 22.5 35.55 23.15 30.7 23.1 25.85 24.35 Q23.35 25.35 20.65 24.8 18.7 24.4 17.35 25.3 L13.6 22.9 Q9.05 20.15 4.5 17.0 L2.6 15.35 Q1.6 14.25 1.05 13.0 -1.0 7.8 2.5 2.95 4.8 -0.2 8.7 0.05 M51.6 8.7 L51.7 8.7 51.7 8.8 51.6 8.7 M57.0 24.65 L57.1 24.6 57.15 24.55 Q60.6 22.55 62.45 19.05 L62.2 20.2 Q61.25 24.3 58.3 26.9 55.75 29.05 52.45 29.8 49.7 30.45 48.85 33.25 L59.1 41.85 59.7 42.25 62.2 43.9 Q60.35 44.8 58.2 44.2 L57.6 44.25 Q55.8 45.2 54.05 46.2 L50.15 45.8 48.25 45.55 Q47.65 45.75 47.05 45.55 45.15 44.85 43.65 43.55 41.0 41.3 38.15 39.85 L37.85 38.95 Q37.5 37.05 37.85 35.2 L37.75 34.8 37.95 34.1 Q39.65 30.8 39.15 27.05 L38.9 25.3 39.45 24.25 42.65 27.25 45.45 29.95 47.3 29.4 Q52.6 27.75 57.0 24.65 M45.45 29.95 L48.85 33.25 45.45 29.95 M26.05 19.5 L26.5 19.15 Q28.45 17.35 28.95 14.75 28.45 17.35 26.5 19.15 L26.05 19.5 M17.75 5.35 L22.35 9.15 17.75 5.35 M13.05 20.1 L19.65 13.9 Q17.7 16.2 16.05 18.65 14.7 20.7 13.6 22.9 14.7 20.7 16.05 18.65 17.7 16.2 19.65 13.9 L13.05 20.1 M11.85 7.0 L12.7 1.55 11.85 7.0" fill="#4b5963" fill-rule="evenodd" stroke="none"/>
    <path d="M11.8 -0.5 L15.8 -3.1 11.8 -0.5 M15.1 -0.7 L16.25 -1.45 15.1 -0.7 M8.7 0.05 Q9.25 -1.0 10.3 -1.65 14.9 -4.4 18.85 -8.0 20.5 -9.45 21.7 -11.3 L21.9 -7.4 23.7 -8.15 24.1 -7.95 24.6 -4.7 25.4 -4.65 28.4 -5.7 Q29.3 -5.2 29.35 -4.2 29.4 -2.4 29.85 -0.85 L30.05 -0.55 31.0 -0.8 31.05 0.7 Q26.4 3.2 21.3 4.55 L17.75 5.35 12.7 1.55 8.7 0.05 M32.25 2.55 L34.95 3.3 36.75 5.15 36.15 9.8 39.55 9.55 37.7 13.8 38.3 14.05 39.4 13.8 Q40.4 13.15 41.45 13.5 L30.75 16.35 29.65 15.4 28.95 14.75 22.35 9.15 32.25 2.55 M44.95 16.3 L45.3 18.05 44.9 18.95 45.1 20.8 47.5 20.65 48.35 21.1 49.3 20.7 49.25 21.4 50.05 20.8 Q51.25 19.95 52.65 19.8 L52.7 20.0 52.05 22.35 55.6 22.1 55.4 23.4 57.0 24.65 Q52.6 27.75 47.3 29.4 L45.45 29.95 42.65 27.25 43.4 26.0 Q43.25 23.55 44.5 21.45 L43.7 21.05 43.0 18.95 39.75 20.55 39.55 19.85 Q37.6 19.6 35.95 21.0 L35.0 20.2 35.35 17.65 Q35.95 16.7 37.05 16.55 L44.95 16.3 M58.3 26.9 L55.85 34.1 56.95 33.5 55.5 36.6 55.8 37.05 56.3 38.4 58.55 39.75 58.55 40.5 59.1 41.85 48.85 33.25 Q49.7 30.45 52.45 29.8 55.75 29.05 58.3 26.9 M51.6 35.05 L52.8 32.95 51.6 35.05 M45.7 27.3 L49.95 25.65 45.7 27.3 M27.35 11.75 L27.85 10.65 Q30.05 6.9 34.15 4.95 30.05 6.9 27.85 10.65 L27.35 11.75 M30.65 13.4 L33.2 11.05 30.65 13.4 M34.4 13.9 L37.2 12.0 34.4 13.9 M18.15 3.3 Q19.8 3.45 21.5 2.65 25.3 0.75 28.5 -2.15 25.3 0.75 21.5 2.65 19.8 3.45 18.15 3.3 M27.35 0.7 L28.5 -0.5 27.35 0.7 M41.45 18.8 L39.75 20.55 41.45 18.8" fill="url(#gradient0)" fill-rule="evenodd" stroke="none"/>
    <path d="M8.7 0.05 L12.7 1.55 17.75 5.35 21.3 4.55 Q26.4 3.2 31.05 0.7 M41.45 13.5 L45.6 11.6 M49.25 12.3 L44.95 16.3 37.05 16.55 Q35.95 16.7 35.35 17.65 L35.0 20.2 35.95 21.0 37.55 22.5 M57.0 24.65 L57.1 24.6 57.15 24.55 Q60.6 22.55 62.45 19.05 L62.2 20.2 Q61.25 24.3 58.3 26.9 55.75 29.05 52.45 29.8 49.7 30.45 48.85 33.25 L59.1 41.85 59.7 42.25 62.2 43.9 63.1 43.55 63.45 42.65 M17.35 25.3 L13.6 22.9 Q9.05 20.15 4.5 17.0 L2.6 15.35 Q1.6 14.25 1.05 13.0 -1.0 7.8 2.5 2.95 4.8 -0.2 8.7 0.05 M39.45 24.25 L42.65 27.25 45.45 29.95 47.3 29.4 Q52.6 27.75 57.0 24.65 M48.85 33.25 L45.45 29.95 M61.75 41.4 L59.7 42.25 M29.65 15.4 L28.95 14.75 22.35 9.15 17.75 5.35 M35.0 20.2 L30.75 16.35 29.65 15.4 M32.25 2.55 L22.35 9.15 M30.75 16.35 L41.45 13.5" fill="none" stroke="#000000" stroke-linecap="round" stroke-linejoin="round" stroke-width="0.05"/>
    <path d="M16.25 -1.45 L15.1 -0.7 M15.8 -3.1 L11.8 -0.5 M31.05 0.7 L31.0 -0.8 30.05 -0.55 29.85 -0.85 Q29.4 -2.4 29.35 -4.2 29.3 -5.2 28.4 -5.7 L25.4 -4.65 24.6 -4.7 24.1 -7.95 23.7 -8.15 21.9 -7.4 21.7 -11.3 Q20.5 -9.45 18.85 -8.0 14.9 -4.4 10.3 -1.65 9.25 -1.0 8.7 0.05 M32.25 2.55 L34.95 3.3 36.75 5.15 36.15 9.8 39.55 9.55 37.7 13.8 38.3 14.05 39.4 13.8 Q40.4 13.15 41.45 13.5 M44.95 16.3 L45.3 18.05 44.9 18.95 45.1 20.8 47.5 20.65 48.35 21.1 49.3 20.7 49.25 21.4 50.05 20.8 Q51.25 19.95 52.65 19.8 M52.7 20.0 L52.05 22.35 55.6 22.1 55.4 23.4 57.0 24.65 M58.3 26.9 L55.85 34.1 56.95 33.5 55.5 36.6 55.8 37.05 56.3 36.25 M41.35 -6.65 Q41.45 -7.8 40.55 -7.0 40.0 -6.5 39.35 -6.45 37.05 -6.15 35.1 -5.2 L36.65 -7.85 M42.65 27.25 L43.4 26.0 Q43.25 23.55 44.5 21.45 L43.7 21.05 43.0 18.95 39.75 20.55 39.55 19.85 Q37.6 19.6 35.95 21.0 M59.1 41.85 L58.55 40.5 58.55 39.75 56.3 38.4 55.8 37.05 M52.8 32.95 L51.6 35.05 M49.95 25.65 L45.7 27.3 M34.15 4.95 Q30.05 6.9 27.85 10.65 L27.35 11.75 M37.2 12.0 L34.4 13.9 M33.2 11.05 L30.65 13.4 M28.5 -2.15 Q25.3 0.75 21.5 2.65 19.8 3.45 18.15 3.3 M39.75 20.55 L41.45 18.8 M28.5 -0.5 L27.35 0.7" fill="none" stroke="#375511" stroke-linecap="round" stroke-linejoin="round" stroke-width="0.05"/>
    <path d="M31.05 0.7 L30.9 1.05 Q34.0 -0.35 36.75 -2.1 37.95 -2.85 38.75 -3.9 L39.0 -3.15 31.75 2.25 32.25 2.55 M45.6 11.6 L46.6 11.9 51.6 8.7 51.7 8.7 51.7 8.8 48.25 12.05 49.25 12.3 M57.6 44.25 L60.7 47.5 63.65 47.4 62.7 50.6 63.45 50.75 Q64.2 50.55 64.9 50.75 66.85 51.25 68.7 52.1 L71.3 52.85 72.6 53.0 73.4 55.15 75.5 54.0 83.8 56.8 87.6 57.8 88.2 58.85 90.0 57.85 101.2 58.45 102.25 59.45 104.2 58.2 107.15 58.2 107.7 58.4 108.05 58.6 108.3 59.2 Q109.25 58.55 110.3 58.45 L115.95 57.55 121.35 57.05 123.45 57.15 Q126.35 56.2 129.55 56.1 131.65 55.7 133.3 54.3 L133.5 54.2 133.45 54.4 131.55 56.35 130.4 56.95 Q128.2 57.5 126.2 58.5 125.55 58.55 124.9 58.15 L121.5 58.85 116.55 59.85 112.85 60.05 Q109.8 59.4 107.15 60.95 L105.75 61.4 104.9 61.45 103.35 61.1 Q101.55 60.55 99.6 61.35 98.95 61.7 98.25 61.7 L93.75 61.9 Q91.25 61.45 88.9 60.05 L87.35 60.85 85.6 59.85 85.05 59.5 81.8 58.65 Q78.2 57.7 74.7 59.05 L73.25 56.05 71.0 56.45 62.05 51.6 58.6 52.85 58.9 49.6 Q57.95 48.05 55.95 47.65 54.65 47.4 54.05 46.2 L50.15 45.8 48.25 45.55 Q47.65 45.75 47.05 45.55 45.15 44.85 43.65 43.55 41.0 41.3 38.15 39.85 L37.85 38.95 Q37.5 37.05 37.85 35.2 L37.75 34.8 37.25 34.5 33.45 36.15 Q34.25 34.8 33.7 33.5 L31.95 29.95 28.1 32.25 28.05 32.1 29.0 28.1 25.85 24.35 Q23.35 25.35 20.65 24.8 18.7 24.4 17.35 25.3 M46.6 11.9 L48.25 12.05 M37.55 22.5 L35.55 23.15 35.65 24.05 37.1 24.9 36.45 27.05 39.15 27.05 38.9 25.3 39.45 24.25 M54.05 46.2 Q55.8 45.2 57.6 44.25 L58.2 44.2 Q60.35 44.8 62.2 43.9 M63.45 42.65 L61.75 41.4 M31.75 2.25 L30.9 1.05 M29.65 15.4 L29.1 17.45 M28.95 14.75 Q28.45 17.35 26.5 19.15 L26.05 19.5 M35.55 23.15 L30.7 23.1 25.85 24.35 M12.7 1.55 L11.85 7.0 M13.6 22.9 Q14.7 20.7 16.05 18.65 17.7 16.2 19.65 13.9 L13.05 20.1 M39.15 27.05 Q39.65 30.8 37.95 34.1 L37.75 34.8" fill="none" stroke="#000000" stroke-linecap="round" stroke-linejoin="round" stroke-width="0.05"/>
  </g>
  <defs>
    <linearGradient gradientTransform="matrix(0.0079, -0.0094, 0.0079, 0.0066, 33.6, 8.5)" gradientUnits="userSpaceOnUse" id="gradient0" spreadMethod="pad" x1="-819.2" x2="819.2">
      <stop offset="0.0" stop-color="#26561d" stop-opacity="0.67058825"/>
      <stop offset="1.0" stop-color="#399f39" stop-opacity="0.2"/>
    </linearGradient>
  </defs>
</svg>
