<?xml version="1.0" encoding="UTF-8" standalone="no"?>
<svg xmlns:xlink="http://www.w3.org/1999/xlink" height="76.9px" width="140.95px" xmlns="http://www.w3.org/2000/svg">
  <g transform="matrix(1.0, 0.0, 0.0, 1.0, 0.0, 0.0)">
    <path d="M41.35 -6.65 Q44.85 -10.0 47.55 -14.0 46.65 -10.65 45.0 -7.85 L44.75 -7.5 Q41.85 -2.95 36.7 -0.1 29.0 4.25 22.35 9.15 L30.45 16.1 30.75 16.35 Q43.2 14.15 49.35 9.05 L52.5 6.35 Q56.4 2.9 58.45 0.45 58.15 6.65 53.4 9.45 L52.2 10.2 Q48.1 12.8 44.8 16.45 40.85 16.0 37.05 16.55 35.9 16.65 35.35 17.65 L35.15 19.5 35.0 20.2 30.75 16.35 35.0 20.2 45.45 29.95 48.85 33.25 45.45 29.95 Q52.8 27.65 57.0 24.65 L57.15 24.55 Q61.3 21.5 62.45 19.05 61.65 23.75 58.65 26.6 L58.3 26.9 Q55.95 28.85 52.45 29.8 49.65 30.5 48.85 33.25 L49.0 33.4 49.2 33.6 Q54.05 38.35 59.5 42.15 L59.7 42.25 Q62.4 41.4 64.25 39.3 L65.6 37.3 66.2 36.25 65.95 40.5 65.6 41.0 65.25 41.2 Q63.25 42.3 62.7 44.2 65.25 45.75 67.95 47.15 L68.7 47.55 69.35 47.85 Q76.4 51.25 84.25 53.2 106.05 58.65 128.25 54.2 134.25 53.0 139.8 50.25 L140.95 49.55 Q133.3 59.7 118.4 61.25 L105.25 62.85 Q80.45 63.5 63.5 57.1 46.5 50.65 34.35 39.4 22.2 28.15 14.2 23.25 L3.75 16.5 Q-1.95 12.35 1.0 5.75 3.85 -0.55 8.7 0.05 11.75 0.45 15.55 3.55 L17.6 5.2 17.75 5.35 Q29.95 3.0 39.35 -4.9 L41.35 -6.65 M62.7 44.2 L59.7 42.25 62.7 44.2 M17.75 5.35 L22.35 9.15 17.75 5.35" fill="#413153" fill-rule="evenodd" stroke="none"/>
    <path d="M15.8 -3.1 Q13.55 -2.4 11.8 -0.5 13.55 -2.4 15.8 -3.1 M16.25 -1.45 L15.55 -0.95 15.1 -0.7 15.55 -0.95 16.25 -1.45 M8.7 0.05 Q9.4 -1.4 11.0 -2.1 L12.65 -3.15 18.3 -7.45 18.9 -7.95 20.05 -9.2 21.7 -11.3 21.7 -8.95 21.7 -7.8 21.7 -7.55 Q21.7 -7.2 22.45 -7.75 23.9 -8.7 24.35 -7.5 L24.45 -6.6 Q24.35 -5.7 24.55 -4.9 L24.5 -4.5 Q25.3 -4.35 26.55 -5.05 28.0 -5.85 29.7 -5.8 L31.05 -6.05 32.8 -6.75 35.35 -7.8 36.75 -8.25 36.65 -7.85 35.7 -6.3 35.1 -5.2 Q37.1 -6.2 39.35 -6.45 L39.8 -6.6 41.3 -7.3 41.35 -6.65 39.35 -4.9 Q29.95 3.0 17.75 5.35 L17.6 5.2 15.55 3.55 Q11.75 0.45 8.7 0.05 M44.75 -7.5 L44.75 -6.35 44.5 -5.45 Q42.8 -2.5 42.2 0.7 L42.0 2.1 41.45 5.15 Q42.75 2.95 45.05 1.8 L46.2 1.4 Q45.45 1.85 45.15 3.05 L44.65 5.3 45.0 5.15 44.75 6.35 43.8 8.45 Q45.9 7.2 48.3 6.3 L50.65 5.45 51.1 5.4 Q51.45 5.65 50.95 6.4 L51.85 6.35 Q52.05 6.2 52.5 6.35 L49.35 9.05 Q43.2 14.15 30.75 16.35 L30.45 16.1 22.35 9.15 Q29.0 4.25 36.7 -0.1 41.85 -2.95 44.75 -7.5 M52.2 10.2 L52.05 10.8 Q49.6 15.2 49.3 20.25 L49.25 21.4 Q50.75 20.0 52.65 19.8 L52.7 20.0 Q52.3 21.15 52.05 22.35 L52.55 22.45 54.2 22.15 55.35 22.0 55.6 22.1 Q54.85 23.6 56.25 24.15 L56.6 24.4 57.0 24.65 Q52.8 27.65 45.45 29.95 L35.0 20.2 35.15 19.5 35.35 17.65 Q35.9 16.65 37.05 16.55 40.85 16.0 44.8 16.45 48.1 12.8 52.2 10.2 M58.3 26.9 L57.35 29.7 56.7 31.7 55.85 34.1 Q56.9 33.3 58.2 33.2 L58.1 33.6 Q57.05 35.6 58.5 37.15 L58.9 37.4 59.65 37.8 60.05 37.85 62.85 37.9 62.85 38.15 Q62.6 39.25 63.6 39.05 64.1 38.95 64.25 39.3 62.4 41.4 59.7 42.25 L59.5 42.15 Q54.05 38.35 49.2 33.6 L49.0 33.4 48.85 33.25 Q49.65 30.5 52.45 29.8 55.95 28.85 58.3 26.9 M65.6 41.0 Q65.35 41.95 65.45 43.3 L65.6 44.25 65.75 44.7 Q66.5 44.4 66.95 44.9 L67.2 45.45 Q67.35 46.25 68.05 46.95 L67.95 47.15 Q65.25 45.75 62.7 44.2 63.25 42.3 65.25 41.2 L65.6 41.0 M41.45 18.8 L40.8 19.35 39.0 21.5 Q38.85 21.75 38.85 22.1 38.85 21.75 39.0 21.5 L40.8 19.35 41.45 18.8 M44.55 21.4 Q44.2 21.55 43.9 21.75 43.0 22.5 42.5 23.45 42.1 24.3 42.4 25.2 42.1 24.3 42.5 23.45 43.0 22.5 43.9 21.75 44.2 21.55 44.55 21.4 M56.3 36.25 L56.05 36.7 56.3 36.25 M52.8 32.95 L51.6 35.05 52.8 32.95 M49.95 25.65 L48.55 26.15 45.7 27.3 48.55 26.15 49.95 25.65 M34.15 4.95 Q32.1 6.25 30.1 7.7 28.0 9.3 27.35 11.75 28.0 9.3 30.1 7.7 32.1 6.25 34.15 4.95 M28.5 -0.5 L28.05 0.0 27.35 0.7 28.05 0.0 28.5 -0.5 M33.2 11.05 L32.3 11.75 Q31.2 12.55 30.65 13.4 31.2 12.55 32.3 11.75 L33.2 11.05 M28.5 -2.15 Q25.25 0.6 21.5 2.65 19.9 3.5 18.15 3.3 19.9 3.5 21.5 2.65 25.25 0.6 28.5 -2.15 M37.2 12.0 L36.0 12.9 34.4 13.9 36.0 12.9 37.2 12.0" fill="url(#gradient0)" fill-rule="evenodd" stroke="none"/>
    <path d="M41.35 -6.65 Q44.85 -10.0 47.55 -14.0 46.65 -10.65 45.0 -7.85 L44.75 -7.5 Q41.85 -2.95 36.7 -0.1 29.0 4.25 22.35 9.15 L17.75 5.35 Q29.95 3.0 39.35 -4.9 L41.35 -6.65 M52.5 6.35 Q56.4 2.9 58.45 0.45 58.15 6.65 53.4 9.45 L52.2 10.2 Q48.1 12.8 44.8 16.45 40.85 16.0 37.05 16.55 35.9 16.65 35.35 17.65 L35.15 19.5 35.0 20.2 30.75 16.35 30.45 16.1 22.35 9.15 M57.0 24.65 L57.1 24.6 57.15 24.55 Q61.3 21.5 62.45 19.05 61.65 23.75 58.65 26.6 L58.3 26.9 Q55.95 28.85 52.45 29.8 49.65 30.5 48.85 33.25 L49.0 33.4 49.2 33.6 Q54.05 38.35 59.5 42.15 L59.7 42.25 Q62.4 41.4 64.25 39.3 L65.6 37.3 66.2 36.25 65.95 40.5 65.9 40.75 65.6 41.0 65.25 41.2 Q63.25 42.3 62.7 44.2 65.25 45.75 67.95 47.15 L68.7 47.55 69.35 47.85 Q76.4 51.25 84.25 53.2 106.05 58.65 128.25 54.2 134.25 53.0 139.8 50.25 L140.95 49.55 Q133.3 59.7 118.4 61.25 L105.25 62.85 Q80.45 63.5 63.5 57.1 46.5 50.65 34.35 39.4 22.2 28.15 14.2 23.25 L3.75 16.5 Q-1.95 12.35 1.0 5.75 3.85 -0.55 8.7 0.05 11.75 0.45 15.55 3.55 L17.6 5.2 17.75 5.35 M68.05 46.95 L68.7 47.55 M57.0 24.65 L57.15 24.55 M52.5 6.35 L49.35 9.05 Q43.2 14.15 30.75 16.35 M48.85 33.25 L45.45 29.95 35.0 20.2 M65.95 40.5 L65.6 41.0 M45.45 29.95 Q52.8 27.65 57.0 24.65 M59.7 42.25 L62.7 44.2" fill="none" stroke="#000000" stroke-linecap="round" stroke-linejoin="round" stroke-width="0.05"/>
    <path d="M15.1 -0.7 L15.55 -0.95 16.25 -1.45 M11.8 -0.5 Q13.55 -2.4 15.8 -3.1 M8.7 0.05 Q9.4 -1.4 11.0 -2.1 L12.65 -3.15 18.3 -7.45 18.9 -7.95 20.05 -9.2 21.7 -11.3 21.7 -8.95 21.7 -7.8 21.7 -7.55 Q21.7 -7.2 22.45 -7.75 23.9 -8.7 24.35 -7.5 L24.45 -6.6 Q24.35 -5.7 24.55 -4.9 L24.5 -4.5 Q25.3 -4.35 26.55 -5.05 28.0 -5.85 29.7 -5.8 L31.05 -6.05 32.8 -6.75 35.35 -7.8 36.75 -8.25 36.65 -7.85 35.7 -6.3 35.1 -5.2 Q37.1 -6.2 39.35 -6.45 L39.8 -6.6 41.3 -7.3 41.35 -6.65 M44.75 -7.5 L44.75 -6.35 44.5 -5.45 Q42.8 -2.5 42.2 0.7 L42.0 2.1 41.45 5.15 Q42.75 2.95 45.05 1.8 L46.2 1.4 Q45.45 1.85 45.15 3.05 L44.65 5.3 45.0 5.15 44.75 6.35 43.8 8.45 Q45.9 7.2 48.3 6.3 L50.65 5.45 51.1 5.4 Q51.45 5.65 50.95 6.4 L51.85 6.35 Q52.05 6.2 52.5 6.35 M52.2 10.2 L52.05 10.8 Q49.6 15.2 49.3 20.25 L49.25 21.4 Q50.75 20.0 52.65 19.8 M52.7 20.0 Q52.3 21.15 52.05 22.35 L52.55 22.45 54.2 22.15 55.35 22.0 55.6 22.1 Q54.85 23.6 56.25 24.15 L56.6 24.4 57.0 24.65 M58.3 26.9 L57.35 29.7 56.7 31.7 55.85 34.1 Q56.9 33.3 58.2 33.2 L58.1 33.6 Q57.05 35.6 58.5 37.15 L58.9 37.4 59.65 37.8 60.05 37.85 62.85 37.9 62.85 38.15 Q62.6 39.25 63.6 39.05 64.1 38.95 64.25 39.3 M65.6 41.0 Q65.35 41.95 65.45 43.3 L65.6 44.25 65.75 44.7 Q66.5 44.4 66.95 44.9 L67.2 45.45 Q67.35 46.25 68.05 46.95 M42.4 25.2 Q42.1 24.3 42.5 23.45 43.0 22.5 43.9 21.75 44.2 21.55 44.55 21.4 M38.85 22.1 Q38.85 21.75 39.0 21.5 L40.8 19.35 41.45 18.8 M51.6 35.05 L52.8 32.95 M56.05 36.7 L56.3 36.25 M45.7 27.3 L48.55 26.15 49.95 25.65 M30.65 13.4 Q31.2 12.55 32.3 11.75 L33.2 11.05 M27.35 0.7 L28.05 0.0 28.5 -0.5 M27.35 11.75 Q28.0 9.3 30.1 7.7 32.1 6.25 34.15 4.95 M34.4 13.9 L36.0 12.9 37.2 12.0 M18.15 3.3 Q19.9 3.5 21.5 2.65 25.25 0.6 28.5 -2.15" fill="none" stroke="#ff0000" stroke-linecap="round" stroke-linejoin="round" stroke-width="0.05"/>
  </g>
  <defs>
    <linearGradient gradientTransform="matrix(0.0107, -0.0128, 0.0079, 0.0066, 35.75, 6.05)" gradientUnits="userSpaceOnUse" id="gradient0" spreadMethod="pad" x1="-819.2" x2="819.2">
      <stop offset="0.0" stop-color="#ff0000" stop-opacity="0.57254905"/>
      <stop offset="1.0" stop-color="#ff9605" stop-opacity="0.4509804"/>
    </linearGradient>
  </defs>
</svg>
