<?xml version="1.0" encoding="UTF-8" standalone="no"?>
<svg xmlns:xlink="http://www.w3.org/1999/xlink" height="62.9px" width="140.95px" xmlns="http://www.w3.org/2000/svg">
  <g transform="matrix(1.0, 0.0, 0.0, 1.0, 0.0, 0.0)">
    <path d="M105.25 62.85 Q80.45 63.5 63.5 57.1 46.5 50.65 34.35 39.4 22.2 28.15 14.2 23.25 L3.75 16.5 Q-1.95 12.35 1.0 5.75 5.65 -4.5 15.55 3.55 33.05 17.65 49.2 33.6 64.1 48.2 84.25 53.2 106.05 58.65 128.25 54.2 134.25 53.0 139.8 50.25 L140.95 49.55 Q133.3 59.7 118.4 61.25 L105.25 62.85" fill="#b49a6e" fill-rule="evenodd" stroke="none"/>
    <path d="M105.25 62.85 Q80.45 63.5 63.5 57.1 46.5 50.65 34.35 39.4 22.2 28.15 14.2 23.25 L3.75 16.5 Q-1.95 12.35 1.0 5.75 5.65 -4.5 15.55 3.55 33.05 17.65 49.2 33.6 64.1 48.2 84.25 53.2 106.05 58.65 128.25 54.2 134.25 53.0 139.8 50.25 L140.95 49.55 Q133.3 59.7 118.4 61.25 L105.25 62.85 Z" fill="none" stroke="#000000" stroke-linecap="round" stroke-linejoin="round" stroke-width="0.05"/>
  </g>
</svg>
