<?xml version="1.0" encoding="UTF-8" standalone="no"?>
<svg xmlns:xlink="http://www.w3.org/1999/xlink" height="28.1px" width="29.9px" xmlns="http://www.w3.org/2000/svg">
  <g transform="matrix(1.0, 0.0, 0.0, 1.0, 0.0, 0.0)">
    <path d="M25.55 4.4 Q27.1 4.65 28.45 5.4 29.65 5.9 29.8 7.15 30.1 9.35 29.55 11.5 L27.85 18.35 Q27.15 21.0 25.55 23.3 L24.8 23.95 15.7 27.65 9.8 27.5 Q7.25 26.25 5.6 23.75 4.2 21.6 3.6 19.25 L2.85 17.75 1.55 16.2 Q0.85 15.15 0.55 14.0 0.0 11.6 0.0 9.15 0.0 7.0 0.55 4.95 1.1 2.85 2.15 0.95 2.4 0.55 2.25 0.1 L8.65 0.8 13.55 1.65 17.6 2.45 25.55 4.4" fill="#b49a6e" fill-rule="evenodd" stroke="none"/>
    <path d="M25.55 4.4 L17.6 2.45 13.55 1.65 8.65 0.8 2.25 0.1 Q2.4 0.55 2.15 0.95 1.1 2.85 0.55 4.95 0.0 7.0 0.0 9.15 0.0 11.6 0.55 14.0 0.85 15.15 1.55 16.2 L2.85 17.75 3.6 19.25 Q4.2 21.6 5.6 23.75 7.25 26.25 9.8 27.5 L15.7 27.65 24.8 23.95 25.55 23.3 Q27.15 21.0 27.85 18.35 L29.55 11.5 Q30.1 9.35 29.8 7.15 29.65 5.9 28.45 5.4 27.1 4.65 25.55 4.4 Z" fill="none" stroke="#000000" stroke-linecap="round" stroke-linejoin="round" stroke-width="0.05"/>
  </g>
</svg>
