<?xml version="1.0" encoding="UTF-8" standalone="no"?>
<svg xmlns:xlink="http://www.w3.org/1999/xlink" height="4.45px" width="13.05px" xmlns="http://www.w3.org/2000/svg">
  <g transform="matrix(1.0, 0.0, 0.0, 1.0, 0.0, 0.0)">
    <path d="M-0.25 0.5 L0.45 -0.25 8.35 0.25 11.65 -0.75 12.3 -0.4 12.5 -0.1 12.55 0.1 12.7 1.25 12.8 2.55 11.5 3.05 10.15 3.3 8.85 3.05 6.4 3.3 Q3.4 4.1 0.45 3.25 L0.05 3.1 0.0 1.95 -0.05 1.25 -0.25 0.5" fill="#ffcc99" fill-rule="evenodd" stroke="none"/>
    <path d="M-0.25 0.5 L0.45 -0.25 8.35 0.25 11.65 -0.75 12.3 -0.4 12.5 -0.1 12.55 0.1 12.7 1.25 12.8 2.55 11.5 3.05 10.15 3.3 8.85 3.05 6.4 3.3 Q3.4 4.1 0.45 3.25 L0.05 3.1" fill="none" stroke="#000000" stroke-linecap="round" stroke-linejoin="round" stroke-width="0.05"/>
  </g>
</svg>
