<?xml version="1.0" encoding="UTF-8" standalone="no"?>
<svg xmlns:xlink="http://www.w3.org/1999/xlink" height="21.3px" width="18.4px" xmlns="http://www.w3.org/2000/svg">
  <g transform="matrix(1.0, 0.0, 0.0, 1.0, 0.0, 0.0)">
    <path d="M8.25 -0.45 Q11.5 1.15 12.55 4.7 L13.2 7.15 Q14.15 10.1 14.15 13.0 L14.1 13.7 13.4 13.5 11.65 13.0 9.55 12.4 7.75 12.1 7.5 12.1 Q5.55 11.9 3.6 12.15 L3.15 12.25 1.2 12.35 -0.85 12.1 -2.95 11.5 -3.3 11.4 -3.95 11.2 -3.9 11.0 -3.65 10.25 Q-2.15 6.2 -0.9 2.05 -0.4 0.5 1.15 -0.45 L1.55 -0.3 Q2.25 0.4 3.15 0.75 L3.5 0.85 3.9 0.9 Q5.75 1.05 7.45 0.3 L7.55 0.25 7.95 -0.2 8.25 -0.45 M5.7 4.6 Q5.5 4.6 5.4 4.75 5.0 5.5 5.8 5.95 L5.75 6.25 Q5.85 7.2 6.75 6.75 L6.8 6.7 6.85 6.6 6.9 6.4 6.95 6.35 Q7.3 5.05 5.7 4.6 M8.55 1.85 L8.4 2.35 Q8.6 2.65 8.95 2.65 L9.05 2.55 Q9.35 2.05 9.0 1.65 L8.85 1.6 8.85 1.65 8.6 1.7 8.55 1.85 M3.2 1.45 Q4.8 2.25 6.5 1.9 7.9 1.6 8.45 0.4 7.9 1.6 6.5 1.9 4.8 2.25 3.2 1.45 M2.5 5.5 L2.3 5.85 2.35 6.65 Q2.25 7.25 2.3 7.85 2.6 8.2 3.0 7.95 L3.05 7.8 3.1 7.7 3.05 7.6 3.05 7.45 3.15 7.15 3.35 6.75 3.8 6.7 3.85 6.55 3.9 6.35 3.9 6.3 4.1 6.1 4.1 6.0 4.1 5.9 4.05 5.8 Q3.55 5.25 2.9 5.65 L2.85 5.6 2.6 5.45 2.5 5.5 M0.95 3.05 L0.8 3.0 0.55 3.1 0.45 3.25 0.4 3.35 0.4 3.5 0.55 3.85 0.65 3.9 1.2 3.4 1.15 3.2 1.05 3.1 0.95 3.05 M6.9 11.1 L8.7 11.25 9.45 11.45 11.9 12.25 12.5 12.5 13.2 12.7 14.15 13.0 13.2 12.7 12.5 12.5 11.9 12.25 9.45 11.45 8.7 11.25 6.9 11.1" fill="#996633" fill-rule="evenodd" stroke="none"/>
    <path d="M1.55 -0.3 L1.45 -0.6 Q3.75 -1.9 6.4 -1.15 7.4 -0.9 8.25 -0.45 L7.95 -0.2 7.55 0.25 7.45 0.3 Q5.75 1.05 3.9 0.9 L3.5 0.85 3.15 0.75 Q2.25 0.4 1.55 -0.3 M14.1 13.7 L13.8 16.2 Q13.5 17.8 11.75 18.6 10.25 19.4 8.6 19.6 L-0.75 19.2 Q-2.6 18.6 -3.45 16.9 -4.75 14.15 -3.95 11.2 L-3.3 11.4 -2.95 11.5 -0.85 12.1 1.2 12.35 3.15 12.25 3.6 12.15 Q5.55 11.9 7.5 12.1 L7.75 12.1 9.55 12.4 11.65 13.0 13.4 13.5 14.1 13.7 M1.95 15.95 Q1.4 15.6 0.7 15.55 L0.5 15.55 0.1 15.55 -1.0 15.65 0.1 15.55 0.5 15.55 0.7 15.55 Q1.4 15.6 1.95 15.95" fill="#ffcc99" fill-rule="evenodd" stroke="none"/>
    <path d="M8.55 1.85 L8.6 1.7 8.85 1.65 8.85 1.6 9.0 1.65 Q9.35 2.05 9.05 2.55 L8.95 2.65 Q8.6 2.65 8.4 2.35 L8.55 1.85 M5.7 4.6 Q7.3 5.05 6.95 6.35 L6.9 6.4 6.85 6.6 6.8 6.7 6.75 6.75 Q5.85 7.2 5.75 6.25 L5.8 5.95 Q5.0 5.5 5.4 4.75 5.5 4.6 5.7 4.6 M0.95 3.05 L1.05 3.1 1.15 3.2 1.2 3.4 0.65 3.9 0.55 3.85 0.4 3.5 0.4 3.35 0.45 3.25 0.55 3.1 0.8 3.0 0.95 3.05 M2.5 5.5 L2.6 5.45 2.85 5.6 2.9 5.65 Q3.55 5.25 4.05 5.8 L4.1 5.9 4.1 6.0 4.1 6.1 3.9 6.3 3.9 6.35 3.85 6.55 3.8 6.7 3.35 6.75 3.15 7.15 3.05 7.45 3.05 7.6 3.1 7.7 3.05 7.8 3.0 7.95 Q2.6 8.2 2.3 7.85 2.25 7.25 2.35 6.65 L2.3 5.85 2.5 5.5" fill="#845125" fill-rule="evenodd" stroke="none"/>
    <path d="M1.45 -0.6 L1.3 -0.55 1.55 -0.3 Q2.25 0.4 3.15 0.75 L3.5 0.85 3.9 0.9 Q5.75 1.05 7.45 0.3 L7.55 0.25 7.95 -0.2 8.25 -0.45 Q11.5 1.15 12.55 4.7 L13.2 7.15 Q14.15 10.1 14.15 13.0 L14.1 13.7 13.8 16.2 Q13.5 17.8 11.75 18.6 10.25 19.4 8.6 19.6 L-0.75 19.2 Q-2.6 18.6 -3.45 16.9 -4.75 14.15 -3.95 11.2 L-3.9 11.0 -3.65 10.25 Q-2.15 6.2 -0.9 2.05 -0.4 0.5 1.15 -0.45 L1.2 -0.5 1.3 -0.55 M1.45 -0.6 Q3.75 -1.9 6.4 -1.15 7.4 -0.9 8.25 -0.45 M8.45 0.4 Q7.9 1.6 6.5 1.9 4.8 2.25 3.2 1.45 M14.1 13.7 L13.4 13.5 11.65 13.0 9.55 12.4 7.75 12.1 7.5 12.1 Q5.55 11.9 3.6 12.15 L3.15 12.25 1.2 12.35 -0.85 12.1 -2.95 11.5 -3.3 11.4 -3.95 11.2 M14.15 13.0 L13.2 12.7 12.5 12.5 11.9 12.25 9.45 11.45 8.7 11.25 6.9 11.1 M-1.0 15.65 L0.1 15.55 0.5 15.55 0.7 15.55 Q1.4 15.6 1.95 15.95" fill="none" stroke="#000000" stroke-linecap="round" stroke-linejoin="round" stroke-width="0.05"/>
  </g>
</svg>
