<?xml version="1.0" encoding="UTF-8" standalone="no"?>
<svg xmlns:xlink="http://www.w3.org/1999/xlink" height="69.3px" width="18.55px" xmlns="http://www.w3.org/2000/svg">
  <g transform="matrix(1.0, 0.0, 0.0, 1.0, 0.0, 0.0)">
    <path d="M-0.7 -26.95 L-0.7 -27.05 -1.0 -28.65 -1.35 -31.3 -1.55 -32.75 -1.75 -33.4 -2.25 -34.65 -2.55 -36.55 -2.55 -37.5 -2.3 -37.65 -0.65 -38.65 -1.0 -37.7 -0.95 -37.4 -0.8 -37.25 -0.55 -36.9 -0.5 -36.6 -0.7 -35.5 Q-1.0 -34.05 -0.6 -32.6 L-0.05 -30.55 0.4 -28.8 0.6 -27.9 1.05 -26.15 1.1 -25.65 1.2 -24.45 1.5 -24.15 1.85 -24.7 2.2 -25.8 Q2.3 -26.7 3.1 -27.15 L4.55 -27.95 5.3 -28.6 6.25 -30.15 Q6.7 -31.0 6.75 -31.9 L6.65 -33.65 6.7 -33.7 7.3 -32.45 7.6 -31.0 7.55 -29.6 7.2 -28.55 6.0 -26.75 5.25 -25.55 4.6 -24.6 3.65 -23.65 2.7 -22.65 Q2.25 -22.15 2.05 -21.5 L1.5 -19.7 0.8 -16.85 1.1 -17.5 2.05 -18.6 3.25 -19.5 4.15 -20.55 5.1 -21.95 5.85 -21.2 5.9 -20.95 5.35 -20.15 4.1 -18.7 3.2 -17.45 2.3 -16.2 1.65 -15.0 1.2 -13.7 Q0.8 -12.4 0.7 -11.2 L0.65 -9.85 0.6 -9.35 0.55 -8.45 Q0.5 -7.05 0.75 -5.5 L1.05 -4.6 1.35 -4.15 1.8 -4.65 Q2.25 -5.45 3.3 -5.45 L3.4 -5.4 2.8 -4.35 2.1 -2.85 1.9 -2.25 1.6 -0.45 1.35 1.4 1.15 2.95 Q1.0 3.95 1.1 4.85 L1.15 6.65 1.15 7.85 1.2 9.05 1.3 10.2 1.35 11.6 1.25 13.0 1.3 14.55 1.5 16.1 1.8 17.6 2.0 18.9 Q2.25 20.15 2.8 21.55 L3.05 22.65 2.95 23.45 2.35 23.65 1.8 23.4 1.7 23.3 1.35 22.4 1.2 22.5 1.1 23.6 Q1.05 25.15 1.5 26.45 2.0 27.7 2.1 29.2 L2.3 30.45 2.25 30.65 1.0 29.75 0.4 29.6 -0.5 27.05 -0.65 26.45 -1.0 25.1 -1.15 23.75 -1.2 22.05 -1.15 20.3 -1.15 18.9 -1.1 17.5 -1.05 15.55 -0.85 13.6 -0.6 12.1 -0.4 10.6 -0.2 9.35 -0.2 8.6 -0.2 7.0 -0.2 5.15 -0.2 4.05 -0.2 2.95 -0.2 1.85 -0.2 0.55 -0.2 -0.85 -0.35 -2.05 Q-0.55 -3.05 -0.4 -3.95 L-0.3 -5.9 -0.4 -7.5 -0.55 -8.75 -0.85 -10.6 -1.05 -12.2 -1.15 -13.75 -1.0 -15.15 -0.65 -16.95 -0.5 -18.0 -0.15 -19.45 -0.15 -20.5 -0.25 -20.9 -0.85 -22.75 -1.15 -24.4 Q-1.3 -25.25 -1.95 -26.0 L-2.5 -27.1 Q-2.8 -28.05 -3.45 -28.8 L-4.05 -29.4 Q-4.65 -30.1 -5.5 -30.4 L-7.0 -30.7 -6.75 -30.9 -6.45 -31.1 -5.8 -31.25 -4.25 -30.55 -4.0 -30.15 -3.1 -29.8 Q-2.7 -29.7 -2.4 -29.35 L-1.5 -28.2 -0.7 -26.95 -0.15 -25.7 0.05 -24.1 -0.1 -23.25 0.15 -22.05 -0.1 -23.25 0.05 -24.1 -0.15 -25.7 -0.7 -26.95 M0.8 1.4 L0.9 0.5 1.0 -1.35 1.05 -3.3 1.0 -1.35 0.9 0.5 0.8 1.4 M-0.3 -13.0 L0.05 -13.7 0.45 -15.15 0.4 -16.4 0.1 -17.85 -0.15 -19.45 0.1 -17.85 0.4 -16.4 0.45 -15.15 0.05 -13.7 -0.3 -13.0 M2.35 -23.8 L3.6 -25.35 2.35 -23.8 M0.15 13.6 L0.05 13.45 0.05 13.6 0.15 13.6 0.75 15.3 Q0.9 16.3 0.0 16.7 L0.0 18.15 0.1 19.75 0.15 20.45 0.1 19.75 0.0 18.15 0.0 16.7 Q0.9 16.3 0.75 15.3 L0.15 13.6 M0.0 16.7 L0.05 13.6 0.0 16.7 M-0.2 9.35 Q0.35 9.95 0.25 10.85 L0.1 12.55 0.05 13.45 0.1 12.55 0.25 10.85 Q0.35 9.95 -0.2 9.35 M-0.8 -25.35 L-0.1 -23.25 -0.8 -25.35 M-0.3 -11.1 L-0.5 -11.85 -0.55 -13.45 -0.15 -15.35 -0.55 -13.45 -0.5 -11.85 -0.3 -11.1" fill="#7a4900" fill-rule="evenodd" stroke="none"/>
    <path d="M5.85 -21.2 L6.4 -21.8 7.05 -21.85 8.45 -20.5 8.55 -20.2 7.3 -20.45 5.9 -20.95 5.85 -21.2 M-7.0 -30.7 L-8.4 -30.65 -10.0 -31.0 -6.75 -30.9 -7.0 -30.7 M5.4 -7.3 L4.7 -6.6 3.55 -5.55 Q3.3 -6.5 4.05 -7.05 L5.4 -7.3" fill="#236217" fill-rule="evenodd" stroke="none"/>
    <path d="M-0.7 -26.95 L-0.15 -25.7 0.05 -24.1 -0.1 -23.25 0.15 -22.05 M-0.15 -19.45 L0.1 -17.85 0.4 -16.4 0.45 -15.15 0.05 -13.7 -0.3 -13.0 M1.05 -3.3 L1.0 -1.35 0.9 0.5 0.8 1.4 M3.6 -25.35 L2.35 -23.8 M0.15 13.6 L0.75 15.3 Q0.9 16.3 0.0 16.7 L0.0 18.15 0.1 19.75 0.15 20.45 M0.05 13.6 L0.0 16.7 M0.05 13.45 L0.1 12.55 0.25 10.85 Q0.35 9.95 -0.2 9.35 M-0.15 -15.35 L-0.55 -13.45 -0.5 -11.85 -0.3 -11.1 M-0.1 -23.25 L-0.8 -25.35" fill="none" stroke="#552b00" stroke-linecap="round" stroke-linejoin="round" stroke-width="0.05"/>
  </g>
</svg>
