<?xml version="1.0" encoding="UTF-8" standalone="no"?>
<svg xmlns:xlink="http://www.w3.org/1999/xlink" height="7.45px" width="16.15px" xmlns="http://www.w3.org/2000/svg">
  <g transform="matrix(1.0, 0.0, 0.0, 1.0, 0.0, 0.0)">
    <path d="M0.65 2.15 L0.75 2.45 Q0.95 2.8 1.3 2.7 L1.6 2.7 2.15 2.45 2.25 2.15 Q2.45 1.8 2.2 1.4 L2.1 1.2 1.95 1.0 1.75 0.7 0.45 -0.6 0.3 -0.75 -0.3 -1.4 -0.4 -1.6 -0.55 -1.9 -0.4 -1.6 -0.3 -1.4 0.3 -0.75 0.45 -0.6 1.75 0.7 1.95 1.0 2.1 1.2 2.2 1.4 Q2.45 1.8 2.25 2.15 L2.15 2.45 1.6 2.7 1.3 2.7 Q0.95 2.8 0.75 2.45 L0.65 2.15 M-1.7 -3.3 L-0.6 -3.75 -0.15 -3.85 -0.15 -3.65 -0.3 -3.55 -0.8 -3.3 Q-1.05 -3.05 -0.65 -2.65 1.15 -0.6 3.2 1.2 3.65 1.65 3.55 2.25 3.4 2.95 2.8 3.15 L2.1 3.6 0.85 3.4 0.45 3.2 Q-0.05 1.65 -0.85 0.3 L-2.0 -1.3 -1.85 -1.35 Q-1.7 -2.3 -1.7 -3.3 M0.0 0.0 L0.45 -0.6 0.0 0.0 M1.3 0.65 L0.65 1.2 1.3 0.65" fill="#614e30" fill-rule="evenodd" stroke="none"/>
    <path d="M-6.2 -1.9 L-12.6 -1.9 -12.6 -3.2 -6.2 -3.2 -6.2 -2.25 -6.2 -1.9 -6.2 -2.25 -6.2 -3.2 -6.2 -3.85 -1.7 -3.85 -1.7 -3.3 Q-1.7 -2.3 -1.85 -1.35 L-2.0 -1.3 -2.45 -1.3 -3.0 -1.3 -6.2 -1.3 -6.2 -1.9 M-5.65 -3.3 L-1.7 -3.3 -5.65 -3.3 M-2.45 -2.25 L-6.2 -2.25 -2.45 -2.25" fill="url(#gradient0)" fill-rule="evenodd" stroke="none"/>
    <path d="M-0.55 -1.9 L-0.4 -1.6 -0.3 -1.4 0.3 -0.75 0.45 -0.6 1.75 0.7 1.95 1.0 2.1 1.2 2.2 1.4 Q2.45 1.8 2.25 2.15 L2.15 2.45 1.6 2.7 1.3 2.7 Q0.95 2.8 0.75 2.45 L0.65 2.15 M-6.2 -3.2 L-12.6 -3.2 -12.6 -1.9 -6.2 -1.9 -6.2 -2.25 -6.2 -3.2 -6.2 -3.85 -1.7 -3.85 -1.7 -3.3 -0.6 -3.75 -0.15 -3.85 -0.15 -3.65 -0.3 -3.55 -0.8 -3.3 Q-1.05 -3.05 -0.65 -2.65 1.15 -0.6 3.2 1.2 3.65 1.65 3.55 2.25 3.4 2.95 2.8 3.15 L2.1 3.6 0.85 3.4 0.45 3.2 Q-0.05 1.65 -0.85 0.3 L-1.5 0.4 Q-2.15 0.35 -2.55 -0.2 L-2.7 -0.4 -3.0 -1.3 -6.2 -1.3 -6.2 -1.9 M-1.7 -3.3 Q-1.7 -2.3 -1.85 -1.35 L-2.0 -1.3 -0.85 0.3 M-2.15 -0.45 L-2.45 -1.2 -2.45 -1.3 -3.0 -1.3 M-2.45 -1.3 L-2.0 -1.3 M-6.2 -2.25 L-2.45 -2.25 M-1.7 -3.3 L-5.65 -3.3 M0.65 1.2 L1.3 0.65 M0.45 -0.6 L0.0 0.0" fill="none" stroke="#000000" stroke-linecap="round" stroke-linejoin="round" stroke-width="0.05"/>
  </g>
  <defs>
    <linearGradient gradientTransform="matrix(0.0, 0.0016, -0.0184, -2.0E-4, -14.95, -2.85)" gradientUnits="userSpaceOnUse" id="gradient0" spreadMethod="pad" x1="-819.2" x2="819.2">
      <stop offset="0.0" stop-color="#ffffff"/>
      <stop offset="0.2" stop-color="#d3cbc5"/>
      <stop offset="1.0" stop-color="#917c6f"/>
    </linearGradient>
  </defs>
</svg>
