<?xml version="1.0" encoding="UTF-8" standalone="no"?>
<svg xmlns:xlink="http://www.w3.org/1999/xlink" height="5.55px" width="15.85px" xmlns="http://www.w3.org/2000/svg">
  <g transform="matrix(1.0, 0.0, 0.0, 1.0, 0.0, 0.0)">
    <path d="M8.65 1.25 L8.65 0.75 8.7 1.3 8.65 1.25" fill="#996600" fill-rule="evenodd" stroke="none"/>
    <path d="M8.7 1.3 L8.6 1.4 8.7 1.3" fill="#b09753" fill-rule="evenodd" stroke="none"/>
    <path d="M11.05 3.0 L8.85 3.05 6.75 3.8 4.35 4.6 1.4 5.3 Q0.55 5.0 0.1 4.15 -0.6 2.75 -0.55 1.05 -0.55 0.2 -0.2 -0.25 L8.65 0.75 14.65 0.5 Q15.6 1.4 15.15 2.75 L14.85 3.4 11.6 3.7 11.05 3.0 M8.7 1.3 L8.65 0.75 8.65 1.25 8.6 1.4 8.7 1.3 9.2 1.7 10.45 1.6 9.2 1.7 8.7 1.3 M2.15 2.25 L2.25 0.85 3.1 1.25 4.0 1.4 4.15 2.2 4.6 2.55 5.05 2.6 5.2 2.25 5.35 1.65 6.8 1.5 6.95 2.3 7.85 2.45 8.05 2.25 8.6 1.4 8.05 2.25 7.85 2.45 6.95 2.3 6.8 1.5 5.35 1.65 5.2 2.25 5.05 2.6 4.6 2.55 4.15 2.2 4.0 1.4 3.1 1.25 2.25 0.85 2.15 2.25" fill="#603c1b" fill-rule="evenodd" stroke="none"/>
    <path d="M11.05 3.0 L8.85 3.05 6.75 3.8 4.35 4.6 1.4 5.3 Q0.55 5.0 0.1 4.15 -0.6 2.75 -0.55 1.05 -0.55 0.2 -0.2 -0.25 L8.65 0.75 14.65 0.5 Q15.6 1.4 15.15 2.75 L14.85 3.4 11.6 3.7 11.05 3.0 M8.65 1.25 L8.7 1.3 9.2 1.7 10.45 1.6 M8.6 1.4 L8.05 2.25 7.85 2.45 6.95 2.3 6.8 1.5 5.35 1.65 5.2 2.25 5.05 2.6 4.6 2.55 4.15 2.2 4.0 1.4 3.1 1.25 2.25 0.85 2.15 2.25 M8.65 1.25 L8.6 1.4" fill="none" stroke="#000000" stroke-linecap="round" stroke-linejoin="round" stroke-width="0.05"/>
  </g>
</svg>
