<?xml version="1.0" encoding="UTF-8" standalone="no"?>
<svg xmlns:xlink="http://www.w3.org/1999/xlink" height="16.0px" width="8.55px" xmlns="http://www.w3.org/2000/svg">
  <g transform="matrix(1.0, 0.0, 0.0, 1.0, 0.0, 0.0)">
    <path d="M6.85 11.0 Q7.45 13.85 6.8 14.65 6.05 15.4 4.85 15.75 L4.4 15.85 2.85 16.0 2.7 16.0 1.3 15.7 1.05 15.55 -0.65 14.4 Q-1.55 13.55 -1.4 12.05 -1.35 10.5 -0.75 8.65 -0.2 6.75 0.0 4.8 0.2 2.8 0.95 1.4 L1.65 0.55 Q2.35 0.1 3.1 0.0 4.0 0.25 4.3 1.1 L5.2 4.05 5.8 6.5 6.85 11.0 M5.2 12.25 Q5.55 12.9 5.45 13.65 5.3 14.7 4.55 15.5 L4.4 15.85 4.55 15.5 Q5.3 14.7 5.45 13.65 5.55 12.9 5.2 12.25 M0.65 12.9 L0.75 14.4 1.3 15.7 0.75 14.4 0.65 12.9 M2.65 14.95 L2.7 15.45 2.85 16.0 2.7 15.45 2.65 14.95" fill="#b09553" fill-rule="evenodd" stroke="none"/>
    <path d="M6.85 11.0 Q7.45 13.85 6.8 14.65 6.05 15.4 4.85 15.75 L4.4 15.85 2.85 16.0 2.7 16.0 1.3 15.7 1.05 15.55 -0.65 14.4 Q-1.55 13.55 -1.4 12.05 -1.35 10.5 -0.75 8.65 -0.2 6.75 0.0 4.8 0.2 2.8 0.95 1.4 L1.65 0.55 Q2.35 0.1 3.1 0.0 4.0 0.25 4.3 1.1 L5.2 4.05 5.8 6.5 6.85 11.0 M2.85 16.0 L2.7 15.45 2.65 14.95 M1.3 15.7 L0.75 14.4 0.65 12.9 M4.4 15.85 L4.55 15.5 Q5.3 14.7 5.45 13.65 5.55 12.9 5.2 12.25" fill="none" stroke="#000000" stroke-linecap="round" stroke-linejoin="round" stroke-width="0.05"/>
  </g>
</svg>
