<?xml version="1.0" encoding="UTF-8" standalone="no"?>
<svg xmlns:xlink="http://www.w3.org/1999/xlink" height="7.15px" width="10.8px" xmlns="http://www.w3.org/2000/svg">
  <g transform="matrix(1.0, 0.0, 0.0, 1.0, 0.0, 0.0)">
    <path d="M4.95 0.6 Q5.25 0.25 5.7 0.0 L6.15 -0.3 7.3 -0.3 7.8 0.05 7.8 0.1 Q8.0 0.95 8.5 1.65 8.95 2.3 9.0 3.75 9.0 5.2 7.85 5.6 5.85 5.7 3.6 6.35 L2.1 6.75 Q-0.5 7.2 -1.55 5.0 L-1.8 3.8 Q-1.85 2.7 -1.0 2.1 -1.15 3.05 -0.15 3.9 L2.45 3.85 3.15 3.25 Q3.9 2.75 4.2 1.85 4.4 1.15 4.95 0.6" fill="#603c1b" fill-rule="evenodd" stroke="none"/>
    <path d="M7.8 0.05 L7.8 0.1 Q8.0 0.95 8.5 1.65 8.95 2.3 9.0 3.75 9.0 5.2 7.85 5.6 5.85 5.7 3.6 6.35 L2.1 6.75 Q-0.5 7.2 -1.55 5.0 L-1.8 3.8 Q-1.85 2.7 -1.0 2.1 -1.15 3.05 -0.15 3.9 L2.45 3.85 3.15 3.25 Q3.9 2.75 4.2 1.85 4.4 1.15 4.95 0.6" fill="none" stroke="#000000" stroke-linecap="round" stroke-linejoin="round" stroke-width="0.05"/>
  </g>
</svg>
