<?xml version="1.0" encoding="UTF-8" standalone="no"?>
<svg xmlns:xlink="http://www.w3.org/1999/xlink" height="15.95px" width="6.1px" xmlns="http://www.w3.org/2000/svg">
  <g transform="matrix(1.0, 0.0, 0.0, 1.0, 0.0, 0.0)">
    <path d="M0.6 14.25 Q0.7 11.1 0.4 8.1 0.0 4.4 -0.25 0.55 L0.1 0.05 0.85 -1.15 2.4 -1.2 2.35 -1.05 Q2.35 0.25 3.25 0.9 L5.4 2.35 5.85 2.5 5.05 5.7 Q4.1 10.1 3.9 14.6 2.25 15.0 0.6 14.25 M0.2 1.15 Q1.5 1.05 2.25 1.9 1.05 2.45 0.8 3.5 L1.15 3.7 Q2.05 3.5 2.4 4.1 2.2 4.9 1.35 5.3 L1.6 6.0 2.0 6.55 1.9 6.65 Q1.05 7.2 1.4 8.0 L1.65 8.1 1.3 9.2 1.55 10.25 1.3 9.2 1.65 8.1 1.4 8.0 Q1.05 7.2 1.9 6.65 L2.0 6.55 1.6 6.0 1.35 5.3 Q2.2 4.9 2.4 4.1 2.05 3.5 1.15 3.7 L0.8 3.5 Q1.05 2.45 2.25 1.9 1.5 1.05 0.2 1.15 M2.2 13.55 L2.25 11.65 2.55 8.55 3.25 4.85 Q3.65 2.85 3.25 0.9 3.65 2.85 3.25 4.85 L2.55 8.55 2.25 11.65 2.2 13.55" fill="#603c1b" fill-rule="evenodd" stroke="none"/>
    <path d="M3.25 0.9 Q2.35 0.25 2.35 -1.05 L2.4 -1.2 0.85 -1.15 0.1 0.05 -0.25 0.55 Q0.0 4.4 0.4 8.1 0.7 11.1 0.6 14.25 M3.9 14.6 Q4.1 10.1 5.05 5.7 L5.85 2.5 5.4 2.35 3.25 0.9 Q3.65 2.85 3.25 4.85 L2.55 8.55 2.25 11.65 2.2 13.55 M1.55 10.25 L1.3 9.2 1.65 8.1 1.4 8.0 Q1.05 7.2 1.9 6.65 L2.0 6.55 1.6 6.0 1.35 5.3 Q2.2 4.9 2.4 4.1 2.05 3.5 1.15 3.7 L0.8 3.5 Q1.05 2.45 2.25 1.9 1.5 1.05 0.2 1.15" fill="none" stroke="#000000" stroke-linecap="round" stroke-linejoin="round" stroke-width="0.05"/>
  </g>
</svg>
