<?xml version="1.0" encoding="UTF-8" standalone="no"?>
<svg xmlns:xlink="http://www.w3.org/1999/xlink" height="18.1px" width="12.0px" xmlns="http://www.w3.org/2000/svg">
  <g transform="matrix(1.0, 0.0, 0.0, 1.0, 0.0, 0.0)">
    <path d="M4.85 11.95 Q4.2 11.35 4.25 10.45 4.2 8.9 4.55 7.55 L5.3 6.6 Q6.5 5.45 8.0 6.3 L8.2 6.7 8.65 11.35 8.15 11.8 4.85 11.95" fill="#6c4621" fill-rule="evenodd" stroke="none"/>
    <path d="M4.85 11.95 L8.15 11.8 8.65 11.35 8.2 6.7 8.0 6.3 Q6.5 5.45 5.3 6.6 L4.55 7.55 Q4.2 8.9 4.25 10.45 4.2 11.35 4.85 11.95 Z" fill="none" stroke="#000000" stroke-linecap="round" stroke-linejoin="round" stroke-width="0.05"/>
    <path d="M8.45 5.85 L8.45 5.5 8.6 5.8 8.45 5.85 M4.0 4.95 L4.1 4.95 4.1 5.15 4.0 4.95" fill="#ffcc99" fill-rule="evenodd" stroke="none"/>
    <path d="M4.1 5.15 Q4.05 6.2 3.0 6.15 L2.85 6.1 Q2.45 5.85 2.4 5.5 L2.55 5.1 4.0 4.95 4.1 5.15" fill="#c39d4f" fill-rule="evenodd" stroke="none"/>
    <path d="M8.45 5.85 Q8.3 6.6 7.7 6.9 L7.6 6.95 Q7.3 7.6 7.3 8.3 L7.05 9.4 5.7 10.3 2.85 11.2 2.0 11.0 Q1.1 10.05 1.0 8.7 L0.95 8.1 0.0 7.45 0.9 5.1 0.85 3.85 Q0.75 3.15 1.05 2.6 L1.6 1.5 Q2.05 0.7 3.0 0.35 L6.15 0.15 7.1 0.55 8.3 1.35 Q9.6 2.6 9.65 4.4 9.65 5.5 8.6 5.8 L8.45 5.5 8.45 5.85 M6.8 4.75 L7.45 4.3 Q8.4 4.45 8.45 5.5 8.4 4.45 7.45 4.3 L6.8 4.75 M1.8 5.25 L2.55 5.1 1.8 5.25 M4.0 4.95 L2.55 5.1 2.4 5.5 Q2.45 5.85 2.85 6.1 L3.0 6.15 Q4.05 6.2 4.1 5.15 L4.1 4.95 4.0 4.95 M5.0 4.95 L4.1 4.95 5.0 4.95" fill="#ecbb6e" fill-rule="evenodd" stroke="none"/>
    <path d="M8.6 5.8 Q9.65 5.5 9.65 4.4 9.6 2.6 8.3 1.35 L7.1 0.55 6.15 0.15 3.0 0.35 Q2.05 0.7 1.6 1.5 L1.05 2.6 Q0.75 3.15 0.85 3.85 L0.9 5.1 0.0 7.45 0.95 8.1 1.0 8.7 Q1.1 10.05 2.0 11.0 L2.85 11.2 5.7 10.3 7.05 9.4 7.3 8.3 Q7.3 7.6 7.6 6.95 L7.7 6.9 Q8.3 6.6 8.45 5.85 L8.45 5.5 Q8.4 4.45 7.45 4.3 L6.8 4.75 M8.45 5.85 L8.6 5.8 M2.55 5.1 L1.8 5.25 M4.1 5.15 Q4.05 6.2 3.0 6.15 L2.85 6.1 Q2.45 5.85 2.4 5.5 L2.55 5.1 4.0 4.95 4.1 4.95 5.0 4.95 M4.0 4.95 L4.1 5.15" fill="none" stroke="#000000" stroke-linecap="round" stroke-linejoin="round" stroke-width="0.05"/>
    <path d="M3.95 9.0 L4.65 8.9 5.5 8.6 6.35 8.25 7.7 8.2 7.75 8.2 7.45 7.95 7.3 7.9 7.1 7.7 6.75 6.6 6.7 5.05 6.65 5.0 5.0 4.3 3.45 3.55 1.85 3.4 0.15 3.65 Q-0.3 3.35 0.1 2.65 L0.8 2.05 1.2 0.9 Q1.5 0.0 2.25 -0.75 2.6 -1.1 2.9 -1.25 3.8 -1.55 4.65 -2.1 L4.9 -2.25 5.9 -2.1 7.2 -1.5 7.8 -1.1 8.45 -0.6 8.9 -0.35 9.3 0.95 9.65 2.3 9.8 3.05 Q9.9 3.7 10.3 4.25 L9.95 5.4 9.45 6.1 9.5 6.35 9.5 7.1 9.4 9.0 9.85 9.2 Q10.7 9.25 11.15 9.75 L11.2 10.2 Q10.95 11.25 10.15 11.75 L8.7 13.05 Q8.1 13.7 7.1 14.1 L6.2 14.1 4.9 14.05 4.85 14.05 3.95 9.0 M0.6 13.3 L-0.8 11.65 -0.4 11.0 Q0.0 10.2 0.25 9.15 0.5 8.2 1.1 8.7 L0.8 10.35 0.7 11.7 0.75 13.0 0.8 13.3 0.6 13.3 M4.6 2.05 L2.75 1.85 0.8 2.05 2.75 1.85 4.6 2.05 M9.15 3.75 L7.95 2.7 6.9 2.0 7.95 2.7 9.15 3.75 M6.7 5.05 L7.9 5.25 9.45 6.1 7.9 5.25 6.7 5.05 M9.15 3.0 L8.1 1.7 9.15 3.0 M4.2 -0.85 L5.8 -0.8 Q6.75 -1.35 7.8 -1.1 6.75 -1.35 5.8 -0.8 L4.2 -0.85 M9.4 9.0 L9.3 9.1 7.7 8.2 9.3 9.1 9.4 9.0" fill="#6c4621" fill-rule="evenodd" stroke="none"/>
    <path d="M4.85 14.3 L4.9 15.35 4.85 15.75 4.7 15.8 2.0 15.7 Q1.4 15.75 1.1 15.4 L1.05 14.95 0.85 13.7 0.85 13.6 0.8 13.3 0.75 13.0 0.7 11.7 0.8 10.35 1.1 8.7 1.5 9.0 1.85 9.05 3.6 9.0 3.95 9.0 4.85 14.05 4.8 14.05 4.85 14.3 M1.05 14.95 L1.15 13.7 1.1 13.0 1.05 11.6 1.05 11.05 1.25 9.85 1.5 9.0 1.25 9.85 1.05 11.05 1.05 11.6 1.1 13.0 1.15 13.7 1.05 14.95 M2.5 11.35 L2.5 11.25 Q2.6 11.1 2.8 11.15 L2.8 11.05 2.8 10.95 2.75 10.25 2.7 10.2 2.65 10.0 2.6 10.0 Q1.9 10.55 1.9 11.4 L1.85 11.45 1.8 11.55 1.8 11.6 1.85 11.7 1.6 12.35 1.55 12.3 1.45 11.45 1.65 11.15 1.45 11.45 1.35 11.6 1.5 12.35 1.6 12.6 1.8 12.2 Q1.9 11.0 2.65 10.2 L2.65 10.25 2.65 10.95 2.15 11.35 2.95 11.75 2.45 12.05 2.85 12.25 2.1 12.5 2.1 12.55 2.05 12.65 2.85 12.9 Q2.55 12.95 2.45 13.2 L2.75 13.4 Q2.6 13.4 2.55 13.55 L2.65 13.7 2.65 13.8 2.7 14.3 Q3.25 14.05 3.4 13.45 L3.55 13.3 Q3.85 12.6 3.75 11.85 L4.0 12.2 3.85 13.15 4.1 12.9 4.1 12.75 4.15 12.4 4.15 12.35 4.0 12.0 3.8 11.75 3.55 11.75 3.55 11.8 3.6 12.3 Q3.6 12.9 3.25 13.35 L2.95 13.9 2.9 13.95 2.8 14.05 2.8 13.95 2.75 13.55 2.8 13.55 2.85 13.45 3.0 13.4 3.05 13.35 3.05 13.3 Q2.95 13.1 2.7 13.15 L3.05 12.85 Q2.9 12.6 2.5 12.55 L2.9 12.4 3.0 12.4 3.05 12.35 3.1 12.25 Q3.0 12.05 2.75 12.0 L3.2 11.8 2.5 11.35 M3.6 9.0 L4.8 14.05 3.6 9.0" fill="#b09553" fill-rule="evenodd" stroke="none"/>
    <path d="M2.5 11.35 L3.2 11.8 2.75 12.0 Q3.0 12.05 3.1 12.25 L3.05 12.35 3.0 12.4 2.9 12.4 2.5 12.55 Q2.9 12.6 3.05 12.85 L2.7 13.15 Q2.95 13.1 3.05 13.3 L3.05 13.35 3.0 13.4 2.85 13.45 2.8 13.55 2.75 13.55 2.8 13.95 2.8 14.05 2.9 13.95 2.95 13.9 3.25 13.35 Q3.6 12.9 3.6 12.3 L3.55 11.8 3.55 11.75 3.8 11.75 4.0 12.0 4.15 12.35 4.15 12.4 4.1 12.75 4.1 12.9 3.85 13.15 4.0 12.2 3.75 11.85 Q3.85 12.6 3.55 13.3 L3.4 13.45 Q3.25 14.05 2.7 14.3 L2.65 13.8 2.65 13.7 2.55 13.55 Q2.6 13.4 2.75 13.4 L2.45 13.2 Q2.55 12.95 2.85 12.9 L2.05 12.65 2.1 12.55 2.1 12.5 2.85 12.25 2.45 12.05 2.95 11.75 2.15 11.35 2.65 10.95 2.65 10.25 2.65 10.2 Q1.9 11.0 1.8 12.2 L1.6 12.6 1.5 12.35 1.35 11.6 1.45 11.45 1.65 11.15 1.45 11.45 1.55 12.3 1.6 12.35 1.85 11.7 1.8 11.6 1.8 11.55 1.85 11.45 1.9 11.4 Q1.9 10.55 2.6 10.0 L2.65 10.0 2.7 10.2 2.75 10.25 2.8 10.95 2.8 11.05 2.8 11.15 Q2.6 11.1 2.5 11.25 L2.5 11.35" fill="#000000" fill-rule="evenodd" stroke="none"/>
    <path d="M3.95 9.0 L4.65 8.9 5.5 8.6 6.35 8.25 7.7 8.2 7.75 8.2 7.45 7.95 7.3 7.9 7.1 7.7 6.75 6.6 6.7 5.05 6.65 5.0 5.0 4.3 3.45 3.55 1.85 3.4 0.15 3.65 Q-0.3 3.35 0.1 2.65 L0.8 2.05 1.2 0.9 Q1.5 0.0 2.25 -0.75 2.6 -1.1 2.9 -1.25 3.8 -1.55 4.65 -2.1 L4.9 -2.25 5.9 -2.1 7.2 -1.5 7.8 -1.1 8.45 -0.6 8.9 -0.35 9.3 0.95 9.65 2.3 9.8 3.05 Q9.9 3.7 10.3 4.25 L9.95 5.4 9.45 6.1 9.5 6.35 9.5 7.1 9.4 9.0 9.85 9.2 Q10.7 9.25 11.15 9.75 L11.2 10.2 Q10.95 11.25 10.15 11.75 L8.7 13.05 Q8.1 13.7 7.1 14.1 L6.2 14.1 4.9 14.05 4.85 14.05 4.85 14.3 4.9 15.35 4.85 15.75 4.7 15.8 2.0 15.7 Q1.4 15.75 1.1 15.4 L1.05 14.95 0.85 13.7 0.85 13.6 0.6 13.3 -0.8 11.65 -0.4 11.0 Q0.0 10.2 0.25 9.15 0.5 8.2 1.1 8.7 L1.5 9.0 1.85 9.05 3.6 9.0 3.95 9.0 4.85 14.05 M4.8 14.05 L4.85 14.3 M7.8 -1.1 Q6.75 -1.35 5.8 -0.8 L4.2 -0.85 M8.1 1.7 L9.15 3.0 M9.45 6.1 L7.9 5.25 6.7 5.05 M6.9 2.0 L7.95 2.7 9.15 3.75 M0.8 2.05 L2.75 1.85 4.6 2.05 M1.5 9.0 L1.25 9.85 1.05 11.05 1.05 11.6 1.1 13.0 1.15 13.7 1.05 14.95 M1.1 8.7 L0.8 10.35 0.7 11.7 0.75 13.0 0.8 13.3 0.85 13.6 M7.7 8.2 L9.3 9.1 9.4 9.0 M4.8 14.05 L3.6 9.0" fill="none" stroke="#000000" stroke-linecap="round" stroke-linejoin="round" stroke-width="0.05"/>
  </g>
</svg>
