<?xml version="1.0" encoding="UTF-8" standalone="no"?>
<svg xmlns:xlink="http://www.w3.org/1999/xlink" height="11.45px" width="19.4px" xmlns="http://www.w3.org/2000/svg">
  <g transform="matrix(1.0, 0.0, 0.0, 1.0, 0.0, 0.0)">
    <path d="M-55.65 -2.35 L-53.9 -3.75 -53.15 -4.05 -57.3 -3.5 Q-56.35 -4.75 -55.1 -5.4 L-53.15 -6.35 Q-55.5 -6.2 -57.7 -6.95 L-55.3 -8.4 Q-52.7 -9.9 -49.9 -9.85 L-46.2 -10.2 -46.35 -10.25 -46.75 -11.05 -43.9 -10.3 -44.65 -11.45 -44.55 -11.55 Q-41.45 -10.75 -40.1 -8.85 L-38.5 -6.8 Q-38.25 -6.7 -38.3 -5.8 -38.35 -4.9 -38.85 -3.6 -39.4 -2.3 -40.9 -1.95 L-41.25 -2.05 -43.3 -1.0 Q-45.15 0.1 -47.3 -0.15 -51.5 -0.7 -55.7 -2.15 L-55.65 -2.35" fill="url(#gradient0)" fill-rule="evenodd" stroke="none"/>
  </g>
  <defs>
    <radialGradient cx="0" cy="0" gradientTransform="matrix(0.0182, 0.0, 0.0, 0.0129, -43.55, -5.4)" gradientUnits="userSpaceOnUse" id="gradient0" r="819.2" spreadMethod="pad">
      <stop offset="0.0" stop-color="#ffffff"/>
      <stop offset="0.2" stop-color="#fefdab"/>
      <stop offset="0.5450980392156862" stop-color="#ea9733" stop-opacity="0.62352943"/>
      <stop offset="1.0" stop-color="#e60000" stop-opacity="0.0"/>
    </radialGradient>
  </defs>
</svg>
