<?xml version="1.0" encoding="UTF-8" standalone="no"?>
<svg xmlns:xlink="http://www.w3.org/1999/xlink" height="27.45px" width="22.5px" xmlns="http://www.w3.org/2000/svg">
  <g transform="matrix(1.0, 0.0, 0.0, 1.0, 0.0, 0.0)">
    <path d="M-3.85 -3.0 Q0.5 -3.75 1.75 -7.25 3.0 -10.8 2.8 -13.85 2.6 -16.95 3.4 -18.15 9.95 -27.65 18.65 -19.95 L14.2 -19.85 Q10.65 -19.55 10.4 -14.85 L9.35 -4.2 Q8.55 1.75 7.05 2.65 5.5 3.55 5.1 4.0 L0.2 3.5 -1.65 1.95 Q-2.75 0.4 -3.85 -3.0 M-0.1 -0.55 L1.35 -2.0 2.65 -3.9 3.3 -5.3 Q3.85 -6.4 4.0 -7.6 L4.1 -8.9 4.25 -11.9 4.15 -12.8 Q3.95 -13.5 4.05 -14.2 L4.15 -15.1 4.15 -15.8 4.2 -16.35 Q4.25 -17.95 5.1 -19.3 6.7 -21.7 9.6 -22.3 L10.55 -22.45 11.35 -22.5 Q12.75 -22.6 13.85 -21.8 12.75 -22.6 11.35 -22.5 L10.55 -22.45 9.6 -22.3 Q6.7 -21.7 5.1 -19.3 4.25 -17.95 4.2 -16.35 L4.15 -15.8 4.15 -15.1 4.05 -14.2 Q3.95 -13.5 4.15 -12.8 L4.25 -11.9 4.1 -8.9 4.0 -7.6 Q3.85 -6.4 3.3 -5.3 L2.65 -3.9 1.35 -2.0 -0.1 -0.55 M8.05 -3.7 L8.2 -4.3 8.15 -4.6 7.6 -5.3 6.35 -4.1 6.6 -3.5 7.35 -3.0 6.6 -3.5 6.35 -4.1 7.6 -5.3 8.15 -4.6 8.2 -4.3 8.05 -3.7 M5.8 -2.2 L6.15 -0.35 5.45 0.2 Q4.2 0.55 4.0 -0.5 L4.75 -1.6 4.0 -0.5 Q4.2 0.55 5.45 0.2 L6.15 -0.35 5.8 -2.2 M8.05 -9.35 L8.05 -10.8 Q7.6 -10.55 7.3 -10.15 L6.5 -8.9 7.35 -7.7 6.5 -8.9 7.3 -10.15 Q7.6 -10.55 8.05 -10.8 L8.05 -9.35 M8.25 -13.75 L8.35 -14.5 8.05 -15.5 7.3 -15.0 Q6.2 -14.2 6.5 -12.85 L7.55 -12.2 6.5 -12.85 Q6.2 -14.2 7.3 -15.0 L8.05 -15.5 8.35 -14.5 8.25 -13.75 M9.45 -17.6 L9.9 -19.25 8.9 -19.55 8.0 -18.75 8.05 -17.15 8.0 -18.75 8.9 -19.55 9.9 -19.25 9.45 -17.6 M-1.9 -2.3 L-1.65 -2.3 -0.6 -2.75 Q1.25 -3.8 2.25 -5.55 1.25 -3.8 -0.6 -2.75 L-1.65 -2.3 -1.9 -2.3" fill="url(#gradient0)" fill-rule="evenodd" stroke="none"/>
    <path d="M5.1 4.0 Q5.5 3.55 7.05 2.65 8.55 1.75 9.35 -4.2 L10.4 -14.85 Q10.65 -19.55 14.2 -19.85 L18.65 -19.95 Q9.95 -27.65 3.4 -18.15 2.6 -16.95 2.8 -13.85 3.0 -10.8 1.75 -7.25 0.5 -3.75 -3.85 -3.0" fill="none" stroke="#000000" stroke-linecap="round" stroke-linejoin="round" stroke-width="0.05"/>
    <path d="M8.05 -17.15 L8.0 -18.75 8.9 -19.55 9.9 -19.25 9.45 -17.6 M7.55 -12.2 L6.5 -12.85 Q6.2 -14.2 7.3 -15.0 L8.05 -15.5 8.35 -14.5 8.25 -13.75 M7.35 -7.7 L6.5 -8.9 7.3 -10.15 Q7.6 -10.55 8.05 -10.8 L8.05 -9.35 M4.75 -1.6 L4.0 -0.5 Q4.2 0.55 5.45 0.2 L6.15 -0.35 5.8 -2.2 M7.35 -3.0 L6.6 -3.5 6.35 -4.1 7.6 -5.3 8.15 -4.6 8.2 -4.3 8.05 -3.7" fill="none" stroke="#9c49d0" stroke-linecap="round" stroke-linejoin="round" stroke-width="0.05"/>
    <path d="M13.85 -21.8 Q12.75 -22.6 11.35 -22.5 L10.55 -22.45 9.6 -22.3 Q6.7 -21.7 5.1 -19.3 4.25 -17.95 4.2 -16.35 L4.15 -15.8 4.15 -15.1 4.05 -14.2 Q3.95 -13.5 4.15 -12.8 L4.25 -11.9 4.1 -8.9 4.0 -7.6 Q3.85 -6.4 3.3 -5.3 L2.65 -3.9 1.35 -2.0 -0.1 -0.55 M2.25 -5.55 Q1.25 -3.8 -0.6 -2.75 L-1.65 -2.3 -1.9 -2.3" fill="none" stroke="#86b1ee" stroke-linecap="round" stroke-linejoin="round" stroke-width="0.05"/>
  </g>
  <defs>
    <radialGradient cx="0" cy="0" gradientTransform="matrix(0.0297, 0.0, 0.0, 0.0297, 15.15, -20.85)" gradientUnits="userSpaceOnUse" id="gradient0" r="819.2" spreadMethod="pad">
      <stop offset="0.0" stop-color="#b9e5fb"/>
      <stop offset="1.0" stop-color="#8cc0f2"/>
    </radialGradient>
  </defs>
</svg>
