<?xml version="1.0" encoding="UTF-8" standalone="no"?>
<svg xmlns:xlink="http://www.w3.org/1999/xlink" height="23.1px" width="39.0px" xmlns="http://www.w3.org/2000/svg">
  <g transform="matrix(1.0, 0.0, 0.0, 1.0, 0.0, 0.0)">
    <path d="M6.65 -5.95 L7.75 -8.75 8.6 -6.45 9.4 -5.15 8.6 -5.35 7.95 -5.55 6.65 -5.95 M12.0 -4.95 Q12.85 -6.45 13.05 -8.05 13.2 -9.0 12.85 -9.7 L15.1 -5.6 12.0 -4.95 M18.15 -6.1 L18.85 -9.45 20.7 -6.5 Q19.6 -5.9 18.35 -6.1 L18.15 -6.1 M1.7 -5.25 L2.8 -11.55 5.3 -6.05 1.7 -5.25" fill="#fdfbe3" fill-rule="evenodd" stroke="none"/>
    <path d="M6.65 -5.95 L7.95 -5.55 8.6 -5.35 9.4 -5.15 12.0 -4.95 15.1 -5.6 18.15 -6.1 18.35 -6.1 Q19.6 -5.9 20.7 -6.5 24.25 -7.0 27.35 -5.65 29.0 -4.9 29.8 -3.5 L29.1 -3.0 20.5 -2.65 18.05 -1.9 14.6 -2.15 13.2 -1.7 9.65 -1.7 8.95 -1.45 Q8.1 -1.85 7.3 -1.85 L5.85 -1.6 5.65 -1.55 Q5.3 -1.35 4.95 -1.25 L1.9 -1.1 Q0.7 -1.3 0.1 -2.15 -0.2 -3.05 0.25 -3.8 0.75 -4.7 1.7 -5.25 L5.3 -6.05 6.65 -5.95 M3.1 -2.05 L3.25 -1.35 3.1 -2.05 M4.0 -3.8 L5.45 -5.7 5.3 -6.05 5.45 -5.7 4.0 -3.8 M5.55 -3.0 L5.65 -2.6 5.85 -1.6 5.65 -2.6 5.55 -3.0 M7.55 -4.05 L8.6 -5.35 7.55 -4.05 M11.2 -3.55 L11.6 -4.6 11.2 -3.55 M18.5 -3.0 L18.55 -2.75 18.8 -2.45 18.55 -2.75 18.5 -3.0 M15.55 -4.45 L15.75 -4.9 Q15.95 -5.25 15.7 -5.3 15.95 -5.25 15.75 -4.9 L15.55 -4.45" fill="#b86ae1" fill-rule="evenodd" stroke="none"/>
    <path d="M29.8 -3.5 L29.95 -3.25 30.05 -2.85 Q29.8 -2.3 30.2 -1.95 L37.4 -0.85 37.7 -0.5 Q38.75 1.45 39.0 3.7 37.55 5.3 35.6 6.2 L34.05 6.8 Q32.8 7.05 32.0 8.05 L31.8 8.7 Q31.25 9.25 30.4 9.3 L25.6 10.3 20.9 11.4 18.1 11.15 16.0 10.3 Q13.65 9.15 12.75 6.75 L11.8 4.8 10.7 3.85 9.45 3.15 8.15 1.8 7.15 0.6 6.3 0.0 4.95 -1.25 Q5.3 -1.35 5.65 -1.55 L5.85 -1.6 7.3 -1.85 Q8.1 -1.85 8.95 -1.45 L9.65 -1.7 13.2 -1.7 14.6 -2.15 18.05 -1.9 20.5 -2.65 29.1 -3.0 29.8 -3.5 M24.5 5.8 L23.7 4.55 22.3 2.4 21.1 0.8 19.7 -0.3 19.2 -0.4 19.7 -0.3 21.1 0.8 22.3 2.4 23.7 4.55 24.5 5.8 M16.15 7.45 L15.4 6.5 Q13.8 4.9 13.25 2.7 12.85 0.8 11.5 -0.55 L11.2 -0.95 11.5 -0.55 Q12.85 0.8 13.25 2.7 13.8 4.9 15.4 6.5 L16.15 7.45 M34.5 4.45 L34.35 4.2 33.55 3.25 34.35 4.2 34.5 4.45 M29.35 2.15 L28.8 1.2 28.05 0.1 26.7 -1.1 24.35 -2.3 26.7 -1.1 28.05 0.1 28.8 1.2 29.35 2.15 M14.85 3.0 L18.6 7.0 14.85 3.0 M26.85 4.2 L28.75 6.3 26.85 4.2 M20.65 2.8 Q23.1 4.95 24.0 7.95 23.1 4.95 20.65 2.8 M19.6 6.75 L18.1 4.6 14.85 -0.3 18.1 4.6 19.6 6.75" fill="url(#gradient0)" fill-rule="evenodd" stroke="none"/>
    <path d="M9.4 -5.15 L8.6 -6.45 7.75 -8.75 6.65 -5.95 7.95 -5.55 8.6 -5.35 9.4 -5.15 12.0 -4.95 Q12.85 -6.45 13.05 -8.05 13.2 -9.0 12.85 -9.7 L15.1 -5.6 18.15 -6.1 18.85 -9.45 20.7 -6.5 Q24.25 -7.0 27.35 -5.65 29.0 -4.9 29.8 -3.5 M39.0 3.7 Q37.55 5.3 35.6 6.2 L34.05 6.8 Q32.8 7.05 32.0 8.05 L31.8 8.7 Q31.25 9.25 30.4 9.3 L25.6 10.3 20.9 11.4 18.1 11.15 16.0 10.3 Q13.65 9.15 12.75 6.75 L11.8 4.8 10.7 3.85 9.45 3.15 8.15 1.8 7.15 0.6 6.3 0.0 4.95 -1.25 1.9 -1.1 Q0.7 -1.3 0.1 -2.15 -0.2 -3.05 0.25 -3.8 0.75 -4.7 1.7 -5.25 L2.8 -11.55 5.3 -6.05 6.65 -5.95 M5.3 -6.05 L5.45 -5.7 4.0 -3.8 M4.95 -1.25 Q5.3 -1.35 5.65 -1.55 L5.85 -1.6 7.3 -1.85 Q8.1 -1.85 8.95 -1.45 M9.65 -1.7 L13.2 -1.7 M14.6 -2.15 L18.05 -1.9 20.5 -2.65 29.1 -3.0 M8.6 -5.35 L7.55 -4.05 M1.7 -5.25 L5.3 -6.05 M15.1 -5.6 L12.0 -4.95 M20.7 -6.5 Q19.6 -5.9 18.35 -6.1 L18.15 -6.1 M24.0 7.95 Q23.1 4.95 20.65 2.8 M28.75 6.3 L26.85 4.2 M18.6 7.0 L14.85 3.0" fill="none" stroke="#000000" stroke-linecap="round" stroke-linejoin="round" stroke-width="0.05"/>
    <path d="M3.25 -1.35 L3.1 -2.05 M5.85 -1.6 L5.65 -2.6 5.55 -3.0 M11.6 -4.6 L11.2 -3.55 M11.2 -0.95 L11.5 -0.55 Q12.85 0.8 13.25 2.7 13.8 4.9 15.4 6.5 L16.15 7.45 M19.2 -0.4 L19.7 -0.3 21.1 0.8 22.3 2.4 23.7 4.55 24.5 5.8 M15.7 -5.3 Q15.95 -5.25 15.75 -4.9 L15.55 -4.45 M18.8 -2.45 L18.55 -2.75 18.5 -3.0 M24.35 -2.3 L26.7 -1.1 28.05 0.1 28.8 1.2 29.35 2.15 M33.55 3.25 L34.35 4.2 34.5 4.45 M14.85 -0.3 L18.1 4.6 19.6 6.75" fill="none" stroke="#86b1ee" stroke-linecap="round" stroke-linejoin="round" stroke-width="0.05"/>
  </g>
  <defs>
    <radialGradient cx="0" cy="0" gradientTransform="matrix(0.0297, 0.0, 0.0, 0.0297, 17.05, 4.3)" gradientUnits="userSpaceOnUse" id="gradient0" r="819.2" spreadMethod="pad">
      <stop offset="0.0" stop-color="#b9e5fb"/>
      <stop offset="1.0" stop-color="#8cc0f2"/>
    </radialGradient>
  </defs>
</svg>
