<?xml version="1.0" encoding="UTF-8" standalone="no"?>
<svg xmlns:xlink="http://www.w3.org/1999/xlink" height="56.2px" width="44.45px" xmlns="http://www.w3.org/2000/svg">
  <g transform="matrix(1.0, 0.0, 0.0, 1.0, 0.0, 0.0)">
    <path d="M43.95 50.25 Q42.85 45.6 41.1 40.9 40.15 38.2 37.75 36.75 L38.25 40.25 Q39.4 47.3 38.35 54.3 38.55 51.2 37.5 48.2 35.85 43.45 32.6 39.7 33.7 46.5 32.9 53.3 L32.6 55.5 32.3 53.25 Q30.95 45.8 27.1 39.1 27.15 47.25 24.8 55.3 24.15 49.45 23.65 43.45 23.4 40.7 21.55 38.7 L21.8 39.05 21.25 43.05 Q20.15 49.35 17.0 55.1 17.0 46.35 16.6 37.55 L15.5 42.3 Q14.05 49.45 10.35 55.95 9.2 47.35 9.3 38.7 L3.75 50.55 3.7 48.15 Q3.0 41.9 5.45 36.05 L2.8 40.75 0.0 45.65 Q0.1 43.85 0.5 42.1 2.4 34.05 6.35 26.85 L2.8 30.55 Q3.95 25.95 6.35 21.9 10.85 14.5 11.85 5.95 L13.35 4.65 14.7 3.4 19.05 0.25 19.8 -0.05 20.15 -0.15 21.6 -0.05 23.0 3.5 23.4 4.65 Q26.45 13.2 31.65 20.9 L37.7 29.8 40.75 34.55 38.0 31.75 Q43.5 40.3 44.4 50.15 L43.95 50.25 M31.2 22.65 L28.45 17.8 24.75 11.45 Q23.0 8.3 23.4 4.65 23.0 8.3 24.75 11.45 L28.45 17.8 31.2 22.65 31.4 23.1 32.8 24.7 Q35.35 27.45 36.95 30.8 35.35 27.45 32.8 24.7 L31.4 23.1 31.2 22.65 M8.45 20.65 Q7.1 22.35 6.15 24.25 7.1 22.35 8.45 20.65 L8.5 20.55 Q10.8 17.7 11.9 14.25 L12.85 11.45 14.45 5.75 12.85 11.45 11.9 14.25 Q10.8 17.7 8.5 20.55 L8.45 20.65 10.8 16.35 12.0 13.4 13.65 7.1 12.0 13.4 10.8 16.35 8.45 20.65 7.15 22.7 6.6 23.55 6.15 24.25 6.6 23.55 7.15 22.7 8.45 20.65 M35.2 29.85 L33.35 26.55 31.7 23.7 31.4 23.1 31.7 23.7 33.35 26.55 35.2 29.85 M23.75 18.0 L24.1 19.95 24.8 26.65 25.05 31.0 25.1 35.55 Q25.1 39.1 25.35 42.65 25.6 45.35 25.3 48.0 25.6 45.35 25.35 42.65 25.1 39.1 25.1 35.55 L25.05 31.0 24.8 26.65 24.1 19.95 23.75 18.0 M20.55 17.8 L20.25 23.7 20.1 31.6 19.9 35.75 19.55 39.9 19.0 43.85 18.0 49.6 19.0 43.85 19.55 39.9 19.9 35.75 20.1 31.6 20.25 23.7 20.55 17.8 M25.7 19.75 L26.45 21.4 Q27.5 24.0 28.2 26.7 L29.8 34.2 30.95 41.1 31.8 46.85 30.95 41.1 29.8 34.2 28.2 26.7 Q27.5 24.0 26.45 21.4 L25.7 19.75 M28.45 18.95 L29.1 21.35 31.3 28.45 33.65 35.15 Q34.85 38.6 36.35 41.9 L37.2 44.3 36.35 41.9 Q34.85 38.6 33.65 35.15 L31.3 28.45 29.1 21.35 28.45 18.95 M21.15 6.55 L22.2 11.15 Q23.35 14.9 25.7 17.6 23.35 14.9 22.2 11.15 L21.15 6.55 M18.6 10.1 L18.9 12.65 Q19.25 14.95 20.35 17.0 19.25 14.95 18.9 12.65 L18.6 10.1 M17.2 18.95 L16.95 20.75 15.55 27.65 14.45 32.2 13.1 37.15 12.1 41.7 11.4 45.45 Q10.8 48.5 11.5 51.55 10.8 48.5 11.4 45.45 L12.1 41.7 13.1 37.15 14.45 32.2 15.55 27.65 16.95 20.75 17.2 18.95 M15.05 12.05 L14.1 15.15 11.7 21.05 9.05 26.05 5.9 31.15 4.6 33.25 Q2.5 36.6 2.8 40.75 2.5 36.6 4.6 33.25 L5.9 31.15 9.05 26.05 11.7 21.05 14.1 15.15 15.05 12.05 M5.15 26.65 L5.35 26.15 6.15 24.25 5.35 26.15 5.15 26.65 M6.95 26.65 L5.8 28.9 Q4.45 31.8 3.35 34.85 2.3 37.8 1.8 40.9 2.3 37.8 3.35 34.85 4.45 31.8 5.8 28.9 L6.95 26.65 M5.35 26.15 Q5.25 25.35 5.75 24.75 L6.15 24.25 5.75 24.75 Q5.25 25.35 5.35 26.15 M4.55 46.05 L4.75 43.55 Q5.1 41.25 6.1 39.05 L9.35 32.0 12.55 25.35 14.65 21.35 12.55 25.35 9.35 32.0 6.1 39.05 Q5.1 41.25 4.75 43.55 L4.55 46.05 M21.35 37.5 L21.15 39.5 Q21.0 41.6 20.35 43.65 21.0 41.6 21.15 39.5 L21.35 37.5 M36.2 33.95 L37.15 37.1 Q38.35 40.9 38.15 44.85 38.35 40.9 37.15 37.1 L36.2 33.95 M10.5 41.85 L10.55 45.0 10.9 50.35 10.55 45.0 10.5 41.85 M7.5 32.6 L5.55 37.75 Q4.55 40.65 4.75 43.55 L4.95 45.2 4.75 43.55 Q4.55 40.65 5.55 37.75 L7.5 32.6 M31.8 46.85 L32.05 48.8 31.8 46.85 31.45 47.8 31.8 46.85 Q32.55 44.45 32.15 41.85 L31.85 39.5 32.15 41.85 Q32.55 44.45 31.8 46.85" fill="url(#gradient0)" fill-rule="evenodd" stroke="none"/>
    <path d="M43.95 50.25 Q42.85 45.6 41.1 40.9 40.15 38.2 37.75 36.75 L38.25 40.25 Q39.4 47.3 38.35 54.3 38.55 51.2 37.5 48.2 35.85 43.45 32.6 39.7 33.7 46.5 32.9 53.3 L32.6 55.5 32.3 53.25 Q30.95 45.8 27.1 39.1 27.15 47.25 24.8 55.3 24.15 49.45 23.65 43.45 23.4 40.7 21.55 38.7 L21.8 39.05 21.25 43.05 Q20.15 49.35 17.0 55.1 17.0 46.35 16.6 37.55 L15.5 42.3 Q14.05 49.45 10.35 55.95 9.2 47.35 9.3 38.7 L3.75 50.55 3.7 48.15 Q3.0 41.9 5.45 36.05 L2.8 40.75 0.0 45.65 Q0.1 43.85 0.5 42.1 2.4 34.05 6.35 26.85 L2.8 30.55 Q3.95 25.95 6.35 21.9 10.85 14.5 11.85 5.95 L13.35 4.65 14.7 3.4 19.05 0.25 19.8 -0.05 20.15 -0.15 21.6 -0.05 23.0 3.5 23.4 4.65 Q26.45 13.2 31.65 20.9 L37.7 29.8 40.75 34.55 38.0 31.75 Q43.5 40.3 44.4 50.15 L44.35 51.95 43.95 50.25" fill="none" stroke="#000000" stroke-linecap="round" stroke-linejoin="round" stroke-width="0.05"/>
    <path d="M31.2 22.65 L31.4 23.1 32.8 24.7 Q35.35 27.45 36.95 30.8 M8.45 20.65 L10.8 16.35 12.0 13.4 13.65 7.1 M8.45 20.65 L7.15 22.7 6.6 23.55 6.15 24.25 5.75 24.75 Q5.25 25.35 5.35 26.15 M1.8 40.9 Q2.3 37.8 3.35 34.85 4.45 31.8 5.8 28.9 L6.95 26.65 M4.95 45.2 L4.75 43.55 Q4.55 40.65 5.55 37.75 L7.5 32.6 M10.9 50.35 L10.55 45.0 10.5 41.85 M38.15 44.85 Q38.35 40.9 37.15 37.1 L36.2 33.95 M20.35 43.65 Q21.0 41.6 21.15 39.5 L21.35 37.5 M31.8 46.85 L31.45 47.8 M31.8 46.85 Q32.55 44.45 32.15 41.85 L31.85 39.5" fill="none" stroke="#fdf0ac" stroke-linecap="round" stroke-linejoin="round" stroke-width="0.05"/>
    <path d="M23.4 4.65 Q23.0 8.3 24.75 11.45 L28.45 17.8 31.2 22.65 M25.7 17.6 Q23.35 14.9 22.2 11.15 L21.15 6.55 M37.2 44.3 L36.35 41.9 Q34.85 38.6 33.65 35.15 L31.3 28.45 29.1 21.35 28.45 18.95 M31.8 46.85 L30.95 41.1 29.8 34.2 28.2 26.7 Q27.5 24.0 26.45 21.4 L25.7 19.75 M18.0 49.6 L19.0 43.85 19.55 39.9 19.9 35.75 20.1 31.6 20.25 23.7 20.55 17.8 M25.3 48.0 Q25.6 45.35 25.35 42.65 25.1 39.1 25.1 35.55 L25.05 31.0 24.8 26.65 24.1 19.95 23.75 18.0 M31.4 23.1 L31.7 23.7 33.35 26.55 35.2 29.85 M8.45 20.65 L8.5 20.55 Q10.8 17.7 11.9 14.25 L12.85 11.45 14.45 5.75 M6.15 24.25 Q7.1 22.35 8.45 20.65 M6.15 24.25 L5.35 26.15 5.15 26.65 M2.8 40.75 Q2.5 36.6 4.6 33.25 L5.9 31.15 9.05 26.05 11.7 21.05 14.1 15.15 15.05 12.05 M11.5 51.55 Q10.8 48.5 11.4 45.45 L12.1 41.7 13.1 37.15 14.45 32.2 15.55 27.65 16.95 20.75 17.2 18.95 M20.35 17.0 Q19.25 14.95 18.9 12.65 L18.6 10.1 M4.75 43.55 Q5.1 41.25 6.1 39.05 L9.35 32.0 12.55 25.35 14.65 21.35 M4.75 43.55 L4.55 46.05 M32.05 48.8 L31.8 46.85" fill="none" stroke="#c19706" stroke-linecap="round" stroke-linejoin="round" stroke-width="0.05"/>
  </g>
  <defs>
    <radialGradient cx="0" cy="0" gradientTransform="matrix(0.0577, 0.0, 0.0, 0.0321, 17.0, -1.6)" gradientUnits="userSpaceOnUse" id="gradient0" r="819.2" spreadMethod="pad">
      <stop offset="0.0" stop-color="#1a1004"/>
      <stop offset="0.18823529411764706" stop-color="#a37712"/>
      <stop offset="0.396078431372549" stop-color="#faeccd"/>
      <stop offset="0.6196078431372549" stop-color="#f0da93"/>
      <stop offset="1.0" stop-color="#a37712"/>
    </radialGradient>
  </defs>
</svg>
