<?xml version="1.0" encoding="UTF-8" standalone="no"?>
<svg xmlns:xlink="http://www.w3.org/1999/xlink" height="9.7px" width="16.75px" xmlns="http://www.w3.org/2000/svg">
  <g transform="matrix(1.0, 0.0, 0.0, 1.0, 0.0, 0.0)">
    <path d="M11.0 0.1 Q13.55 -0.15 15.9 0.95 16.8 1.4 16.8 2.45 L15.55 1.8 Q14.05 1.1 12.35 1.15 14.2 1.65 15.8 2.85 17.2 3.85 17.1 5.4 15.0 3.25 11.85 2.55 13.9 3.95 13.4 6.3 L13.1 5.6 Q12.45 3.85 10.65 3.55 L10.5 3.0 10.45 1.6 11.0 0.1" fill="#000000" fill-rule="evenodd" stroke="none"/>
    <path d="M11.0 0.1 L10.45 1.6 10.5 3.0 10.65 3.55 11.05 4.9 11.05 5.0 11.6 7.1 Q11.85 8.3 11.25 9.45 L10.5 8.4 9.2 7.35 Q8.3 6.85 7.4 6.8 6.5 7.05 5.8 6.5 L4.8 5.9 4.6 4.9 4.15 6.6 2.45 5.9 1.35 4.3 0.65 2.25 0.35 0.45 5.8 0.0 7.35 -0.15 11.0 0.1 M10.05 4.9 L11.05 4.9 10.05 4.9 M10.45 1.6 L8.95 1.65 10.45 1.6 M10.5 3.0 L9.75 2.95 10.5 3.0 M5.8 0.0 L5.9 1.45 5.9 2.85 4.1 3.25 5.9 2.85 5.9 1.45 5.8 0.0" fill="#8d6f4c" fill-rule="evenodd" stroke="none"/>
    <path d="M10.65 3.55 Q12.45 3.85 13.1 5.6 L13.4 6.3 Q13.9 3.95 11.85 2.55 15.0 3.25 17.1 5.4 17.2 3.85 15.8 2.85 14.2 1.65 12.35 1.15 14.05 1.1 15.55 1.8 L16.8 2.45 Q16.8 1.4 15.9 0.95 13.55 -0.15 11.0 0.1 L10.45 1.6 10.5 3.0 10.65 3.55 11.05 4.9 11.05 5.0 11.6 7.1 Q11.85 8.3 11.25 9.45 L10.5 8.4 9.2 7.35 Q8.3 6.85 7.4 6.8 6.5 7.05 5.8 6.5 L4.8 5.9 4.6 4.9 4.15 6.6 2.45 5.9 1.35 4.3 M0.35 0.45 L5.8 0.0 7.35 -0.15 11.0 0.1 M4.1 3.25 L5.9 2.85 5.9 1.45 5.8 0.0 M9.75 2.95 L10.5 3.0 M8.95 1.65 L10.45 1.6 M11.05 4.9 L10.05 4.9" fill="none" stroke="#000000" stroke-linecap="round" stroke-linejoin="round" stroke-width="0.05"/>
  </g>
</svg>
