<?xml version="1.0" encoding="UTF-8" standalone="no"?>
<svg xmlns:xlink="http://www.w3.org/1999/xlink" height="5.75px" width="10.7px" xmlns="http://www.w3.org/2000/svg">
  <g transform="matrix(1.0, 0.0, 0.0, 1.0, 0.0, 0.0)">
    <path d="M10.55 0.85 Q10.75 2.85 11.35 4.8 L10.85 5.0 9.2 5.35 7.6 5.3 5.85 4.95 4.45 4.55 4.85 3.75 5.25 2.5 5.35 1.5 5.5 0.55 10.55 0.85 M5.8 3.85 L5.85 4.95 5.8 3.85 M6.8 1.15 L6.55 1.95 Q6.85 2.4 7.6 2.25 6.85 3.65 7.6 5.3 6.85 3.65 7.6 2.25 6.85 2.4 6.55 1.95 L6.8 1.15" fill="#8d6f4c" fill-rule="evenodd" stroke="none"/>
    <path d="M5.5 0.55 L5.35 1.5 5.25 2.5 4.85 3.75 4.45 4.55 4.3 4.75 4.05 5.1 3.45 5.7 2.85 5.95 2.0 5.95 1.85 5.5 1.3 4.4 Q0.7 3.55 0.65 2.45 0.6 1.5 1.2 0.6 L2.3 0.4 5.5 0.55 M2.85 5.05 L3.45 5.7 2.85 5.05 M3.55 4.35 L4.3 4.75 3.55 4.35 M4.25 2.3 L5.25 2.5 4.25 2.3 M4.05 1.25 L5.35 1.5 4.05 1.25 M4.85 3.75 L3.55 3.15 4.85 3.75" fill="#b58c5b" fill-rule="evenodd" stroke="none"/>
    <path d="M10.55 0.85 L5.5 0.55 5.35 1.5 5.25 2.5 4.85 3.75 4.45 4.55 5.85 4.95 5.8 3.85 M7.6 5.3 L9.2 5.35 10.85 5.0 11.35 4.8 M5.85 4.95 L7.6 5.3 Q6.85 3.65 7.6 2.25 6.85 2.4 6.55 1.95 L6.8 1.15 M5.5 0.55 L2.3 0.4 1.2 0.6 Q0.6 1.5 0.65 2.45 0.7 3.55 1.3 4.4 L1.85 5.5 2.0 5.95 2.85 5.95 3.45 5.7 2.85 5.05 M3.45 5.7 L4.05 5.1 4.3 4.75 3.55 4.35 M4.3 4.75 L4.45 4.55 M3.55 3.15 L4.85 3.75 M5.35 1.5 L4.05 1.25 M5.25 2.5 L4.25 2.3" fill="none" stroke="#000000" stroke-linecap="round" stroke-linejoin="round" stroke-width="0.05"/>
  </g>
</svg>
