<?xml version="1.0" encoding="UTF-8" standalone="no"?>
<svg xmlns:xlink="http://www.w3.org/1999/xlink" height="12.2px" width="9.2px" xmlns="http://www.w3.org/2000/svg">
  <g transform="matrix(1.0, 0.0, 0.0, 1.0, 0.0, 0.0)">
    <path d="M0.85 4.15 L0.85 3.85 Q0.75 3.15 1.05 2.6 L1.6 1.5 Q2.05 0.7 3.0 0.35 L6.15 0.15 7.1 0.55 8.3 1.35 Q9.6 2.6 9.65 4.4 9.65 5.6 8.45 5.85 L8.15 6.55 7.7 6.9 7.6 6.95 Q7.25 7.6 7.25 7.9 L6.9 8.65 5.6 9.75 4.1 10.55 5.6 9.75 6.9 8.65 7.25 7.9 Q7.25 7.6 7.6 6.95 L7.7 6.9 8.15 6.55 8.2 6.7 8.2 6.85 8.65 11.35 8.15 11.8 4.85 11.95 Q4.35 11.45 4.1 10.55 L2.7 10.7 Q2.05 10.6 1.85 10.2 L1.45 9.0 1.2 8.1 0.45 7.5 0.85 6.2 1.35 6.2 1.4 6.15 1.4 6.1 1.45 6.05 1.55 6.0 1.65 5.9 1.65 5.85 1.7 5.35 Q1.0 5.1 0.8 4.4 L0.75 4.3 0.85 4.15 M6.8 4.75 L7.45 4.3 Q8.4 4.45 8.45 5.5 L8.45 5.85 8.45 5.5 Q8.4 4.45 7.45 4.3 L6.8 4.75 M5.55 4.5 L5.5 4.45 5.2 4.3 3.2 4.8 2.6 5.0 2.4 5.05 2.35 5.2 2.35 5.35 2.6 5.75 Q3.35 7.05 4.9 6.55 6.6 5.95 5.55 4.5" fill="#6f98be" fill-rule="evenodd" stroke="none"/>
    <path d="M5.3 4.9 L5.35 5.4 5.15 5.85 3.85 6.05 3.55 5.85 3.1 5.45 3.05 5.3 3.05 5.25 2.95 5.1 2.9 4.95 5.0 4.65 5.3 4.9 M0.9 4.8 L1.1 5.0 1.15 5.15 1.25 5.35 1.25 5.45 1.2 5.6 1.15 5.8 1.05 5.85 0.9 5.95 0.9 5.1 0.9 4.8" fill="#ffffff" fill-rule="evenodd" stroke="none"/>
    <path d="M0.8 4.4 Q1.0 5.1 1.7 5.35 L1.65 5.85 1.65 5.9 1.55 6.0 1.45 6.05 1.4 6.1 1.4 6.15 1.35 6.2 0.85 6.2 0.8 6.15 0.8 6.1 0.8 6.0 0.85 5.95 0.9 5.95 1.05 5.85 1.15 5.8 1.2 5.6 1.25 5.45 1.25 5.35 1.15 5.15 1.1 5.0 0.9 4.8 0.75 4.6 0.7 4.5 0.75 4.4 0.8 4.4 M5.3 4.9 L5.0 4.65 2.9 4.95 2.95 5.1 3.05 5.25 3.05 5.3 3.1 5.45 3.55 5.85 3.85 6.05 5.15 5.85 5.35 5.4 5.3 4.9 M5.55 4.5 Q6.6 5.95 4.9 6.55 3.35 7.05 2.6 5.75 L2.35 5.35 2.35 5.2 2.4 5.05 2.6 5.0 3.2 4.8 5.2 4.3 5.5 4.45 5.55 4.5" fill="#000000" fill-rule="evenodd" stroke="none"/>
    <path d="M8.45 5.85 Q9.65 5.6 9.65 4.4 9.6 2.6 8.3 1.35 L7.1 0.55 6.15 0.15 3.0 0.35 Q2.05 0.7 1.6 1.5 L1.05 2.6 Q0.75 3.15 0.85 3.85 L0.85 4.15 M0.85 6.2 L0.45 7.5 1.2 8.1 1.45 9.0 1.85 10.2 Q2.05 10.6 2.7 10.7 L4.1 10.55 5.6 9.75 6.9 8.65 7.25 7.9 Q7.25 7.6 7.6 6.95 L7.7 6.9 8.15 6.55 8.45 5.85 8.45 5.5 Q8.4 4.45 7.45 4.3 L6.8 4.75 M0.9 4.8 L0.9 5.1 0.9 5.95 M4.1 10.55 Q4.35 11.45 4.85 11.95 L8.15 11.8 8.65 11.35 8.2 6.85 8.2 6.7 8.15 6.55" fill="none" stroke="#000000" stroke-linecap="round" stroke-linejoin="round" stroke-width="0.05"/>
  </g>
</svg>
