<?xml version="1.0" encoding="UTF-8" standalone="no"?>
<svg xmlns:xlink="http://www.w3.org/1999/xlink" height="35.8px" width="40.55px" xmlns="http://www.w3.org/2000/svg">
  <g transform="matrix(1.0, 0.0, 0.0, 1.0, 0.0, 0.0)">
    <path d="M30.2 17.7 Q27.45 13.7 26.3 8.8 25.35 4.65 23.9 0.65 25.35 4.65 26.3 8.8 27.45 13.7 30.2 17.7 M27.35 7.6 L26.75 5.55 27.35 7.6 M23.9 0.65 L24.6 1.45 25.9 3.2 Q28.1 5.3 29.4 8.1 L32.0 13.55 Q34.3 18.55 36.0 23.85 36.9 26.6 38.95 28.9 40.8 31.1 40.5 33.5 L37.15 30.25 37.6 31.05 38.2 32.85 38.4 33.8 34.85 30.75 36.35 35.8 33.9 33.85 Q31.4 31.6 30.0 28.25 L30.3 30.5 30.5 31.2 29.85 30.95 28.65 30.2 28.05 29.75 28.25 32.3 26.45 31.05 Q26.05 32.45 25.8 33.95 L25.6 35.75 24.8 34.35 22.2 28.75 20.75 30.85 20.35 30.5 Q19.45 29.25 19.0 27.55 L19.15 27.45 25.1 26.35 25.15 25.0 25.05 21.9 Q24.9 19.15 23.95 16.5 L17.45 17.35 17.1 16.25 17.85 15.85 21.6 14.7 23.15 14.3 22.4 8.7 17.35 8.25 17.35 7.9 21.35 7.8 21.45 4.05 18.25 4.05 18.9 2.35 18.85 2.4 17.85 3.8 17.1 5.15 19.75 5.0 19.9 6.75 15.2 7.25 15.05 7.55 14.9 8.6 14.9 9.6 14.95 9.85 20.15 9.6 20.65 13.25 20.45 13.65 18.45 13.9 Q15.7 14.1 13.2 15.3 L12.95 15.65 Q13.2 17.0 13.6 18.35 L14.35 20.7 21.05 19.95 21.45 25.5 18.6 25.55 14.45 26.4 15.05 29.4 13.6 30.35 13.7 29.25 12.9 30.05 Q9.9 33.1 6.45 35.7 6.6 34.25 7.1 33.0 8.3 30.15 9.8 27.3 L9.2 27.45 8.9 27.6 7.65 28.55 6.9 28.35 5.25 29.05 Q2.6 30.6 0.0 31.5 0.25 28.75 1.75 26.45 4.15 22.9 4.65 18.75 4.75 17.95 5.15 17.25 L8.25 10.8 10.15 6.95 Q12.25 3.15 15.3 0.0 L16.2 0.5 17.2 0.75 Q20.55 1.55 23.9 0.65 M8.8 11.35 Q9.7 9.55 11.0 8.1 14.15 4.6 16.2 0.5 14.15 4.6 11.0 8.1 9.7 9.55 8.8 11.35 M10.4 22.55 L9.55 24.0 10.4 22.55 M8.1 19.85 L7.55 21.05 Q5.75 24.95 3.45 28.45 5.75 24.95 7.55 21.05 L8.1 19.85 M35.15 28.95 L32.2 22.15 35.15 28.95 M36.35 29.25 L36.15 28.5 34.85 25.1 36.15 28.5 36.35 29.25" fill="#8d6f4c" fill-rule="evenodd" stroke="none"/>
    <path d="M15.05 29.4 L14.45 26.4 18.6 25.55 21.45 25.5 21.05 19.95 14.35 20.7 13.6 18.35 Q13.2 17.0 12.95 15.65 L13.2 15.3 Q15.7 14.1 18.45 13.9 L20.45 13.65 20.65 13.25 20.15 9.6 14.95 9.85 14.9 9.6 14.9 8.6 15.05 7.55 15.2 7.25 19.9 6.75 19.75 5.0 17.1 5.15 17.85 3.8 18.85 2.4 18.9 2.35 18.25 4.05 21.45 4.05 21.35 7.8 17.35 7.9 17.35 8.25 22.4 8.7 23.15 14.3 21.6 14.7 17.85 15.85 17.1 16.25 17.45 17.35 23.95 16.5 Q24.9 19.15 25.05 21.9 L25.15 25.0 25.1 26.35 19.15 27.45 18.95 27.45 19.0 27.55 Q19.45 29.25 20.35 30.5 L20.75 30.85 18.1 35.5 18.05 35.45 17.0 30.1 16.2 29.55 16.7 28.2 15.05 29.4" fill="#755a34" fill-rule="evenodd" stroke="none"/>
    <path d="M26.75 5.55 L27.35 7.6 M23.9 0.65 Q25.35 4.65 26.3 8.8 27.45 13.7 30.2 17.7 M20.75 30.85 L22.2 28.75 24.8 34.35 25.6 35.75 25.8 33.95 Q26.05 32.45 26.45 31.05 L28.25 32.3 28.05 29.75 28.65 30.2 29.85 30.95 30.5 31.2 30.3 30.5 30.0 28.25 Q31.4 31.6 33.9 33.85 L36.35 35.8 34.85 30.75 38.4 33.8 38.2 32.85 37.6 31.05 37.15 30.25 40.5 33.5 Q40.8 31.1 38.95 28.9 36.9 26.6 36.0 23.85 34.3 18.55 32.0 13.55 L29.4 8.1 Q28.1 5.3 25.9 3.2 L24.6 1.45 23.9 0.65 M16.2 0.5 Q14.15 4.6 11.0 8.1 9.7 9.55 8.8 11.35 M15.05 29.4 L14.45 26.4 18.6 25.55 21.45 25.5 21.05 19.95 14.35 20.7 13.6 18.35 Q13.2 17.0 12.95 15.65 L13.2 15.3 Q15.7 14.1 18.45 13.9 L20.45 13.65 20.65 13.25 20.15 9.6 14.95 9.85 14.9 9.6 14.9 8.6 15.05 7.55 15.2 7.25 19.9 6.75 19.75 5.0 17.1 5.15 17.85 3.8 18.85 2.4 18.9 2.35 18.25 4.05 21.45 4.05 21.35 7.8 17.35 7.9 17.35 8.25 22.4 8.7 23.15 14.3 21.6 14.7 17.85 15.85 17.1 16.25 17.45 17.35 23.95 16.5 Q24.9 19.15 25.05 21.9 L25.15 25.0 25.1 26.35 19.15 27.45 18.95 27.45 19.0 27.55 Q19.45 29.25 20.35 30.5 L20.75 30.85 18.1 35.5 18.05 35.45 17.0 30.1 16.2 29.55 16.7 28.2 15.05 29.4 13.6 30.35 13.7 29.25 12.9 30.05 Q9.9 33.1 6.45 35.7 6.6 34.25 7.1 33.0 8.3 30.15 9.8 27.3 L9.2 27.45 8.9 27.6 7.65 28.55 6.9 28.35 5.25 29.05 Q2.6 30.6 0.0 31.5 0.25 28.75 1.75 26.45 4.15 22.9 4.65 18.75 4.75 17.95 5.15 17.25 L8.25 10.8 10.15 6.95 Q12.25 3.15 15.3 0.0 M3.45 28.45 Q5.75 24.95 7.55 21.05 L8.1 19.85 M9.55 24.0 L10.4 22.55 M34.85 25.1 L36.15 28.5 36.35 29.25 M32.2 22.15 L35.15 28.95" fill="none" stroke="#000000" stroke-linecap="round" stroke-linejoin="round" stroke-width="0.05"/>
  </g>
</svg>
