<?xml version="1.0" encoding="UTF-8" standalone="no"?>
<svg xmlns:xlink="http://www.w3.org/1999/xlink" height="59.15px" width="45.95px" xmlns="http://www.w3.org/2000/svg">
  <g transform="matrix(1.0, 0.0, 0.0, 1.0, 0.0, 0.0)">
    <path d="M-4.9 3.2 Q-1.0 -2.95 3.75 -8.6 L6.45 -11.3 6.1 -10.05 5.85 -9.6 5.2 -8.6 4.6 -7.4 Q5.5 -7.7 6.3 -7.05 L6.65 -6.75 7.4 -5.2 9.0 -6.95 9.7 -7.45 10.4 -7.45 10.4 -7.2 Q10.3 -5.65 9.2 -4.45 L8.55 -3.7 10.45 -3.8 Q11.25 -3.4 11.5 -2.55 L12.05 -0.1 14.4 -2.75 14.8 -2.95 Q15.15 -0.45 13.05 1.5 10.0 4.35 7.95 8.2 14.15 9.75 12.7 16.8 11.3 24.0 4.2 25.0 0.0 25.5 -4.15 26.9 -11.6 29.25 -12.9 36.35 L-12.85 36.95 Q-10.8 36.35 -9.5 38.05 L-9.0 38.65 Q-8.4 46.9 -16.05 47.1 -18.1 47.15 -19.65 45.8 L-21.1 44.35 -21.1 44.1 Q-20.75 30.85 -10.65 26.2 -6.75 24.3 -2.4 24.25 3.1 24.15 7.35 20.9 8.65 19.9 9.0 18.2 10.3 11.45 3.95 9.5 L2.5 9.25 Q-1.9 11.65 0.8 15.55 1.15 16.1 1.95 16.1 L3.45 16.15 Q4.35 14.8 4.15 13.15 5.05 14.2 5.25 15.45 2.5 20.2 -1.2 16.3 -2.2 15.25 -2.05 13.9 -1.25 7.4 5.85 7.85 8.1 4.65 10.55 1.7 L9.9 -1.35 6.85 -1.65 Q3.3 4.6 -3.75 12.2 -4.3 11.3 -5.2 10.55 -3.2 9.75 -1.9 7.75 L-0.3 5.6 Q2.3 2.55 4.3 -1.0 L5.7 -3.25 4.9 -4.55 2.5 -4.65 -2.4 2.1 -3.1 3.4 -4.9 3.2 M4.6 -7.4 L2.5 -4.65 4.6 -7.4 M6.85 -1.65 L8.55 -3.7 6.85 -1.65 M7.4 -5.2 L5.7 -3.25 7.4 -5.2 M-11.65 42.3 L-11.7 43.4 -12.8 43.5 -13.55 42.8 Q-17.1 46.45 -18.6 41.85 -17.65 40.85 -16.2 40.45 L-19.3 39.1 -18.65 38.0 -15.6 36.75 -17.65 35.8 -17.55 34.95 -16.9 34.45 Q-15.3 34.65 -14.35 33.5 L-14.45 32.6 -15.15 32.4 -16.2 32.8 -15.15 32.4 -14.45 32.6 -14.35 33.5 Q-15.3 34.65 -16.9 34.45 L-17.55 34.95 -17.65 35.8 -15.6 36.75 -18.65 38.0 -19.3 39.1 -16.2 40.45 Q-17.65 40.85 -18.6 41.85 -17.1 46.45 -13.55 42.8 L-12.8 43.5 -11.7 43.4 -11.65 42.3 M5.85 7.85 L7.95 8.2 5.85 7.85 M-13.75 39.8 L-14.55 39.5 Q-14.9 38.05 -13.6 37.25 L-12.85 36.95 -13.6 37.25 Q-14.9 38.05 -14.55 39.5 L-13.75 39.8 M12.05 -0.1 L10.55 1.7 12.05 -0.1" fill="url(#gradient0)" fill-rule="evenodd" stroke="none"/>
    <path d="M-13.0 21.0 Q-14.6 22.3 -15.8 23.95 L-23.95 36.3 -31.1 47.85 Q-30.3 43.25 -28.5 37.8 -26.75 32.35 -22.6 26.4 -18.5 20.45 -18.9 15.3 -19.35 10.1 -17.5 7.1 -13.15 0.2 -4.9 3.2 L-3.1 3.4 -1.65 3.9 Q-0.3 4.6 -0.3 5.6 L-1.9 7.75 Q-3.2 9.75 -5.2 10.55 L-8.45 10.55 -9.25 10.85 Q-15.65 13.1 -12.25 19.6 L-13.0 21.0 M-6.1 4.0 L-5.65 5.1 Q-5.0 6.9 -5.8 8.6 -5.0 6.9 -5.65 5.1 L-6.1 4.0 M-10.7 4.6 L-9.6 4.8 Q-8.85 4.95 -8.15 5.35 L-7.65 8.9 Q-9.85 6.35 -13.3 8.3 -14.15 8.75 -14.6 9.45 -17.9 14.8 -14.4 19.9 -17.9 14.8 -14.6 9.45 -14.15 8.75 -13.3 8.3 -9.85 6.35 -7.65 8.9 L-8.15 5.35 Q-8.85 4.95 -9.6 4.8 L-10.7 4.6 M-15.35 21.5 L-17.85 20.9 -16.05 22.5 -17.0 22.85 -17.95 22.85 -18.4 22.75 -18.85 22.5 -17.3 24.8 -20.35 24.95 -19.3 27.2 -19.75 27.4 -20.2 27.65 -20.75 27.7 -21.4 27.6 -21.9 27.7 -21.3 30.1 -21.45 30.45 -22.65 30.0 -24.1 31.8 Q-27.65 36.45 -28.05 42.25 -27.65 36.45 -24.1 31.8 L-22.65 30.0 -21.45 30.45 -21.3 30.1 -21.9 27.7 -21.4 27.6 -20.75 27.7 -20.2 27.65 -19.75 27.4 -19.3 27.2 -20.35 24.95 -17.3 24.8 -18.85 22.5 -18.4 22.75 -17.95 22.85 -17.0 22.85 -16.05 22.5 -17.85 20.9 -15.35 21.5" fill="url(#gradient1)" fill-rule="evenodd" stroke="none"/>
    <path d="M-3.75 12.2 Q-2.3 14.35 -2.85 17.15 -3.1 18.4 -3.8 19.45 -7.7 25.25 -13.0 21.0 L-12.25 19.6 Q-15.65 13.1 -9.25 10.85 L-8.45 10.55 -5.2 10.55 Q-4.3 11.3 -3.75 12.2 M-6.1 12.05 L-8.4 12.2 -8.6 13.15 -9.7 13.75 -9.45 14.8 Q-8.95 17.75 -11.1 19.55 L-11.25 19.75 -11.2 19.85 Q-8.9 21.75 -6.0 20.4 -5.15 19.45 -4.75 18.35 -3.5 14.6 -6.1 12.05 M-11.95 13.9 Q-13.4 15.25 -12.65 17.0 L-12.3 17.55 -11.05 17.25 -10.85 16.85 Q-10.35 15.4 -11.35 14.4 L-11.95 13.9 M-2.3 18.85 Q-1.1 18.9 -0.55 19.4 1.85 21.25 -0.2 23.0 L-0.6 23.05 Q-2.1 23.2 -3.35 22.05 L-3.4 21.25 Q-3.4 19.65 -2.3 18.85 M-2.0 21.55 Q-1.65 21.7 -1.45 21.95 L-1.2 22.1 -0.65 21.95 -0.45 21.85 -0.35 21.7 Q-0.2 21.0 -0.4 20.65 L-0.75 20.35 Q-1.05 20.25 -1.2 20.55 -1.3 20.05 -1.85 20.05 -2.4 20.0 -2.65 20.3 L-2.8 20.8 -2.8 20.95 -2.7 21.25 Q-2.6 21.65 -2.0 21.55 M3.95 18.25 L4.7 18.35 5.4 18.6 5.35 20.55 4.9 20.9 3.3 20.75 3.15 20.05 Q3.25 19.0 3.95 18.25 M3.85 19.9 L4.35 19.95 4.55 19.3 4.4 19.0 4.15 19.1 Q3.45 19.25 3.85 19.9" fill="#33ff99" fill-rule="evenodd" stroke="none"/>
    <path d="M-6.1 12.05 Q-3.5 14.6 -4.75 18.35 -5.15 19.45 -6.0 20.4 -8.9 21.75 -11.2 19.85 L-11.25 19.75 -11.1 19.55 Q-8.95 17.75 -9.45 14.8 L-9.7 13.75 -8.6 13.15 -8.4 12.2 -6.1 12.05 M-6.75 13.7 L-7.25 13.75 Q-8.1 14.1 -8.8 15.0 L-8.8 15.3 Q-8.5 17.05 -9.4 18.45 L-9.4 18.5 -8.55 18.85 Q-6.4 18.0 -6.05 15.65 L-6.75 13.7 M-1.2 20.55 Q-1.05 20.25 -0.75 20.35 L-0.4 20.65 Q-0.2 21.0 -0.35 21.7 L-0.45 21.85 -0.65 21.95 -1.2 22.1 -1.45 21.95 Q-1.65 21.7 -2.0 21.55 L-1.85 21.5 -1.7 21.45 Q-1.2 21.3 -1.2 20.65 L-1.2 20.55 M3.85 19.9 Q3.45 19.25 4.15 19.1 L4.4 19.0 4.55 19.3 4.35 19.95 3.85 19.9" fill="#018f47" fill-rule="evenodd" stroke="none"/>
    <path d="M-6.75 13.7 L-6.05 15.65 Q-6.4 18.0 -8.55 18.85 L-9.4 18.5 -9.4 18.45 Q-8.5 17.05 -8.8 15.3 L-8.8 15.0 Q-8.1 14.1 -7.25 13.75 L-6.75 13.7" fill="#015c2e" fill-rule="evenodd" stroke="none"/>
    <path d="M-11.95 13.9 L-11.35 14.4 Q-10.35 15.4 -10.85 16.85 L-11.05 17.25 -12.3 17.55 -12.65 17.0 Q-13.4 15.25 -11.95 13.9 M-1.2 20.55 L-1.2 20.65 Q-1.2 21.3 -1.7 21.45 L-1.85 21.5 -2.0 21.55 Q-2.6 21.65 -2.7 21.25 L-2.8 20.95 -2.8 20.8 -2.65 20.3 Q-2.4 20.0 -1.85 20.05 -1.3 20.05 -1.2 20.55" fill="#d1ffff" fill-rule="evenodd" stroke="none"/>
    <path d="M-4.9 3.2 Q-1.0 -2.95 3.75 -8.6 L6.45 -11.3 6.1 -10.05 5.85 -9.6 5.2 -8.6 4.6 -7.4 Q5.5 -7.7 6.3 -7.05 L6.65 -6.75 7.4 -5.2 9.0 -6.95 9.7 -7.45 10.4 -7.45 10.4 -7.2 Q10.3 -5.65 9.2 -4.45 L8.55 -3.7 10.45 -3.8 Q11.25 -3.4 11.5 -2.55 L12.05 -0.1 14.4 -2.75 14.8 -2.95 Q15.15 -0.45 13.05 1.5 10.0 4.35 7.95 8.2 14.15 9.75 12.7 16.8 11.3 24.0 4.2 25.0 0.0 25.5 -4.15 26.9 -11.6 29.25 -12.9 36.35 L-12.85 36.95 Q-10.8 36.35 -9.5 38.05 L-9.0 38.65 Q-8.4 46.9 -16.05 47.1 -18.1 47.15 -19.65 45.8 L-21.1 44.35 -21.1 44.1 Q-20.75 30.85 -10.65 26.2 -6.75 24.3 -2.4 24.25 3.1 24.15 7.35 20.9 8.65 19.9 9.0 18.2 10.3 11.45 3.95 9.5 L2.5 9.25 Q-1.9 11.65 0.8 15.55 1.15 16.1 1.95 16.1 L3.45 16.15 Q4.35 14.8 4.15 13.15 5.05 14.2 5.25 15.45 2.5 20.2 -1.2 16.3 -2.2 15.25 -2.05 13.9 -1.25 7.4 5.85 7.85 8.1 4.65 10.55 1.7 L9.9 -1.35 6.85 -1.65 Q3.3 4.6 -3.75 12.2 -4.3 11.3 -5.2 10.55 -3.2 9.75 -1.9 7.75 L-0.3 5.6 Q-0.3 4.6 -1.65 3.9 L-3.1 3.4 -2.4 2.1 2.5 -4.65 4.6 -7.4 M-13.0 21.0 Q-14.6 22.3 -15.8 23.95 L-23.95 36.3 -31.1 47.85 Q-30.3 43.25 -28.5 37.8 -26.75 32.35 -22.6 26.4 -18.5 20.45 -18.9 15.3 -19.35 10.1 -17.5 7.1 -13.15 0.2 -4.9 3.2 L-3.1 3.4 M2.5 -4.65 L4.9 -4.55 5.7 -3.25 7.4 -5.2 M8.55 -3.7 L6.85 -1.65 M5.7 -3.25 L4.3 -1.0 Q2.3 2.55 -0.3 5.6 M-13.0 21.0 L-12.25 19.6 Q-15.65 13.1 -9.25 10.85 L-8.45 10.55 -5.2 10.55 M-12.85 36.95 L-13.6 37.25 Q-14.9 38.05 -14.55 39.5 L-13.75 39.8 M7.95 8.2 L5.85 7.85 M10.55 1.7 L12.05 -0.1" fill="none" stroke="#000000" stroke-linecap="round" stroke-linejoin="round" stroke-width="0.05"/>
    <path d="M-14.4 19.9 Q-17.9 14.8 -14.6 9.45 -14.15 8.75 -13.3 8.3 -9.85 6.35 -7.65 8.9 L-8.15 5.35 Q-8.85 4.95 -9.6 4.8 L-10.7 4.6 M-5.8 8.6 Q-5.0 6.9 -5.65 5.1 L-6.1 4.0 M-16.2 32.8 L-15.15 32.4 -14.45 32.6 -14.35 33.5 Q-15.3 34.65 -16.9 34.45 L-17.55 34.95 -17.65 35.8 -15.6 36.75 -18.65 38.0 -19.3 39.1 -16.2 40.45 Q-17.65 40.85 -18.6 41.85 -17.1 46.45 -13.55 42.8 L-12.8 43.5 -11.7 43.4 -11.65 42.3" fill="none" stroke="#66ff66" stroke-linecap="round" stroke-linejoin="round" stroke-width="0.05"/>
    <path d="M-3.75 12.2 Q-2.3 14.35 -2.85 17.15 -3.1 18.4 -3.8 19.45 -7.7 25.25 -13.0 21.0 M-2.3 18.85 Q-3.4 19.65 -3.4 21.25 L-3.35 22.05 Q-2.1 23.2 -0.6 23.05 L-0.2 23.0 Q1.85 21.25 -0.55 19.4 -1.1 18.9 -2.3 18.85 M3.95 18.25 Q3.25 19.0 3.15 20.05 L3.3 20.75 4.9 20.9 5.35 20.55 5.4 18.6 4.7 18.35 3.95 18.25" fill="none" stroke="#339966" stroke-linecap="round" stroke-linejoin="round" stroke-width="1.0"/>
    <path d="M-28.05 42.25 Q-27.65 36.45 -24.1 31.8 L-22.65 30.0 -21.45 30.45 -21.3 30.1 -21.9 27.7 -21.4 27.6 -20.75 27.7 -20.2 27.65 -19.75 27.4 -19.3 27.2 -20.35 24.95 -17.3 24.8 -18.85 22.5 -18.4 22.75 -17.95 22.85 -17.0 22.85 -16.05 22.5 -17.85 20.9 -15.35 21.5" fill="none" stroke="#ff00cc" stroke-linecap="round" stroke-linejoin="round" stroke-width="0.05"/>
    <path d="M7.6 -2.6 L9.8 -3.0 10.45 -2.45 10.9 -0.3 M4.15 -6.3 L4.65 -6.55 5.95 -6.3 6.45 -4.75 M-4.15 2.9 Q-0.85 -2.1 2.95 -6.45 L4.2 -7.95 M-1.2 13.3 Q-1.2 14.95 -0.45 16.15 0.25 17.3 1.25 17.3 M-29.85 44.4 Q-28.25 37.7 -24.95 31.75 L-20.6 24.55 Q-17.6 20.05 -17.95 14.55 L-18.3 14.3 Q-18.45 8.45 -14.0 4.8 -10.35 1.7 -5.6 3.55 L-2.2 4.6 -1.65 5.85 -4.0 8.45 M-13.3 39.8 L-13.4 38.4 Q-9.6 37.55 -10.75 41.9 -12.05 46.95 -17.65 45.6 -21.65 44.5 -20.25 40.05 L-19.35 37.2 Q-17.05 29.75 -9.6 27.0 L-7.2 26.3 M6.9 7.65 Q9.0 4.2 11.75 1.2 L13.35 -0.75 M7.8 9.05 L10.75 11.15 Q13.35 18.6 7.45 22.6 L5.9 23.4 Q4.05 23.7 2.3 24.35 M-0.6 7.05 L8.75 -5.65" fill="none" stroke="#ffffcc" stroke-linecap="round" stroke-linejoin="round" stroke-width="0.05"/>
  </g>
  <defs>
    <linearGradient gradientTransform="matrix(0.0192, -0.0364, 0.0246, 0.013, -9.65, 21.4)" gradientUnits="userSpaceOnUse" id="gradient0" spreadMethod="pad" x1="-819.2" x2="819.2">
      <stop offset="0.0" stop-color="#876636"/>
      <stop offset="0.5137254901960784" stop-color="#e7bf21"/>
      <stop offset="1.0" stop-color="#564036"/>
    </linearGradient>
    <linearGradient gradientTransform="matrix(0.0192, -0.0364, 0.0246, 0.013, -9.65, 21.4)" gradientUnits="userSpaceOnUse" id="gradient1" spreadMethod="pad" x1="-819.2" x2="819.2">
      <stop offset="0.0" stop-color="#876636"/>
      <stop offset="0.5137254901960784" stop-color="#eed266"/>
      <stop offset="1.0" stop-color="#564036"/>
    </linearGradient>
  </defs>
</svg>
