<?xml version="1.0" encoding="UTF-8" standalone="no"?>
<svg xmlns:xlink="http://www.w3.org/1999/xlink" height="9.7px" width="19.1px" xmlns="http://www.w3.org/2000/svg">
  <g transform="matrix(1.0, 0.0, 0.0, 1.0, 0.0, 0.0)">
    <path d="M2.9 3.15 L4.8 4.1 5.5 3.7 6.55 3.45 Q6.95 3.2 6.95 2.85 L8.85 2.0 Q10.65 4.0 13.3 4.5 L13.9 3.15 13.5 2.75 Q11.15 1.45 9.75 -0.55 11.15 1.45 13.5 2.75 L13.9 3.15 13.3 4.5 Q10.65 4.0 8.85 2.0 L6.95 2.85 Q6.95 3.2 6.55 3.45 L5.5 3.7 4.8 4.1 2.9 3.15 M0.3 2.7 L0.05 2.2 -0.05 0.8 0.45 0.4 Q3.9 -1.05 7.7 -0.55 L9.75 -0.55 Q13.95 -0.7 18.2 -1.6 L18.65 1.45 Q19.2 4.5 19.0 5.95 L16.25 6.2 11.95 6.75 Q9.55 7.3 8.7 8.1 6.35 7.85 4.2 6.65 1.65 5.25 0.3 2.7 M6.1 1.0 L6.9 0.55 Q7.7 0.6 8.05 1.05 L8.85 2.0 8.05 1.05 Q7.7 0.6 6.9 0.55 L6.1 1.0 M12.0 0.25 Q12.45 0.55 12.95 0.7 16.55 2.1 18.0 5.55 16.55 2.1 12.95 0.7 12.45 0.55 12.0 0.25 M3.05 2.0 L5.5 3.7 3.05 2.0 M3.95 0.8 L4.6 1.4 Q5.75 2.4 6.95 2.85 5.75 2.4 4.6 1.4 L3.95 0.8" fill="url(#gradient0)" fill-rule="evenodd" stroke="none"/>
    <path d="M18.2 -1.6 Q13.95 -0.7 9.75 -0.55 L7.7 -0.55 Q3.9 -1.05 0.45 0.4 L-0.05 0.8 0.05 2.2 0.3 2.7 0.15 2.45 0.05 2.2 M8.7 8.1 Q9.55 7.3 11.95 6.75 L16.25 6.2 19.0 5.95" fill="none" stroke="#000000" stroke-linecap="round" stroke-linejoin="round" stroke-width="0.05"/>
    <path d="M9.75 -0.55 Q11.15 1.45 13.5 2.75 L13.9 3.15 13.3 4.5 Q10.65 4.0 8.85 2.0 L6.95 2.85 Q6.95 3.2 6.55 3.45 L5.5 3.7 4.8 4.1 2.9 3.15 M18.0 5.55 Q16.55 2.1 12.95 0.7 12.45 0.55 12.0 0.25 M8.85 2.0 L8.05 1.05 Q7.7 0.6 6.9 0.55 L6.1 1.0 M6.95 2.85 Q5.75 2.4 4.6 1.4 L3.95 0.8 M5.5 3.7 L3.05 2.0" fill="none" stroke="#fd0202" stroke-linecap="round" stroke-linejoin="round" stroke-width="0.05"/>
  </g>
  <defs>
    <linearGradient gradientTransform="matrix(-1.0E-4, 0.0063, -0.0136, -2.0E-4, -3.45, 3.0)" gradientUnits="userSpaceOnUse" id="gradient0" spreadMethod="pad" x1="-819.2" x2="819.2">
      <stop offset="0.0" stop-color="#a51616"/>
      <stop offset="0.8274509803921568" stop-color="#720101"/>
      <stop offset="1.0" stop-color="#410101"/>
    </linearGradient>
  </defs>
</svg>
