<?xml version="1.0" encoding="UTF-8" standalone="no"?>
<svg xmlns:xlink="http://www.w3.org/1999/xlink" height="9.7px" width="19.1px" xmlns="http://www.w3.org/2000/svg">
  <g transform="matrix(1.0, 0.0, 0.0, 1.0, 0.0, 0.0)">
    <path d="M0.3 2.7 L0.05 2.2 -0.05 0.8 0.45 0.4 Q3.9 -1.05 7.7 -0.55 12.9 -0.45 18.2 -1.6 L18.65 1.45 Q19.2 4.5 19.0 5.95 L16.25 6.2 11.95 6.75 Q9.55 7.3 8.7 8.1 6.35 7.85 4.2 6.65 1.65 5.25 0.3 2.7" fill="url(#gradient0)" fill-rule="evenodd" stroke="none"/>
    <path d="M18.2 -1.6 Q12.9 -0.45 7.7 -0.55 3.9 -1.05 0.45 0.4 L-0.05 0.8 0.05 2.2 0.3 2.7 0.15 2.45 0.05 2.2 M8.7 8.1 Q9.55 7.3 11.95 6.75 L16.25 6.2 19.0 5.95" fill="none" stroke="#000000" stroke-linecap="round" stroke-linejoin="round" stroke-width="0.05"/>
  </g>
  <defs>
    <linearGradient gradientTransform="matrix(-1.0E-4, 0.0063, -0.0136, -2.0E-4, -3.45, 3.0)" gradientUnits="userSpaceOnUse" id="gradient0" spreadMethod="pad" x1="-819.2" x2="819.2">
      <stop offset="0.0" stop-color="#3f4039"/>
      <stop offset="0.8274509803921568" stop-color="#282d22"/>
      <stop offset="1.0" stop-color="#1e1e1e"/>
    </linearGradient>
  </defs>
</svg>
