<?xml version="1.0" encoding="UTF-8" standalone="no"?>
<svg xmlns:xlink="http://www.w3.org/1999/xlink" height="17.85px" width="23.25px" xmlns="http://www.w3.org/2000/svg">
  <g transform="matrix(1.0, 0.0, 0.0, 1.0, 0.0, 0.0)">
    <path d="M17.6 0.5 Q18.75 2.85 19.05 5.45 L19.05 8.7 18.9 9.8 Q18.55 11.4 17.45 12.85 L16.35 12.6 15.15 12.15 12.9 11.15 10.2 10.0 8.25 9.35 3.95 8.1 -0.15 7.55 0.05 5.3 0.0 -0.15 17.6 0.5 M4.9 1.25 L4.9 1.7 Q4.9 2.6 4.25 2.7 L3.8 1.45 4.25 2.7 Q4.9 2.6 4.9 1.7 L4.9 1.25 M8.0 1.5 L8.0 3.0 Q7.8 4.5 6.65 5.55 L5.7 6.15 Q4.2 6.7 3.0 5.85 L1.8 4.4 Q0.95 2.6 1.15 0.75 0.95 2.6 1.8 4.4 L3.0 5.85 Q4.2 6.7 5.7 6.15 L6.65 5.55 Q7.8 4.5 8.0 3.0 L8.0 1.5 M6.0 1.25 Q6.0 2.75 5.5 3.8 4.95 4.85 4.25 4.85 3.55 4.85 3.05 3.8 2.5 2.75 2.5 1.25 2.5 2.75 3.05 3.8 3.55 4.85 4.25 4.85 4.95 4.85 5.5 3.8 6.0 2.75 6.0 1.25 M16.05 3.4 Q16.4 6.75 15.65 10.25 L15.15 12.15 15.65 10.25 Q16.4 6.75 16.05 3.4 L15.6 3.5 14.45 1.6 15.6 3.5 16.05 3.4 Q16.9 2.8 16.75 1.7 L16.6 1.2 16.75 1.7 Q16.9 2.8 16.05 3.4 M12.1 1.5 L11.75 3.3 10.8 3.4 10.5 1.9 10.8 3.4 11.75 3.3 12.1 1.5 M13.3 1.35 Q13.3 2.9 12.6 4.0 11.9 5.1 10.9 5.1 L10.95 5.8 Q11.0 8.0 10.2 10.0 11.0 8.0 10.95 5.8 L10.9 5.1 10.6 5.0 10.0 4.35 Q8.85 3.05 9.0 1.2 8.85 3.05 10.0 4.35 L10.6 5.0 10.9 5.1 Q11.9 5.1 12.6 4.0 13.3 2.9 13.3 1.35" fill="url(#gradient0)" fill-rule="evenodd" stroke="none"/>
    <path d="M17.6 0.5 Q21.15 0.6 20.9 -1.95 22.6 2.0 22.95 4.0 L23.05 6.7 Q22.95 8.6 22.3 10.6 21.7 12.55 19.75 15.9 20.15 13.8 19.7 13.75 L18.6 13.3 17.45 12.85 Q18.55 11.4 18.9 9.8 L19.05 8.7 19.05 5.45 Q18.75 2.85 17.6 0.5 M19.95 1.2 L20.55 1.6 19.85 2.45 21.15 3.75 19.9 4.9 Q21.1 5.05 21.65 6.05 L20.3 7.3 21.65 8.5 20.3 9.65 21.05 11.25 19.45 11.8 19.6 12.55 19.25 13.3 19.6 12.55 19.45 11.8 21.05 11.25 20.3 9.65 21.65 8.5 20.3 7.3 21.65 6.05 Q21.1 5.05 19.9 4.9 L21.15 3.75 19.85 2.45 20.55 1.6 19.95 1.2" fill="url(#gradient1)" fill-rule="evenodd" stroke="none"/>
    <path d="M17.45 12.85 L18.6 13.3 19.7 13.75 Q20.15 13.8 19.75 15.9 21.7 12.55 22.3 10.6 22.95 8.6 23.05 6.7 L22.95 4.0 Q22.6 2.0 20.9 -1.95 21.15 0.6 17.6 0.5 18.75 2.85 19.05 5.45 L19.05 8.7 18.9 9.8 Q18.55 11.4 17.45 12.85 L16.35 12.6 15.15 12.15 12.9 11.15 10.2 10.0 8.25 9.35 3.95 8.1 -0.15 7.55 M0.0 -0.15 L17.6 0.5" fill="none" stroke="#000000" stroke-linecap="round" stroke-linejoin="round" stroke-width="0.05"/>
    <path d="M14.45 1.6 L15.6 3.5 16.05 3.4 Q16.9 2.8 16.75 1.7 L16.6 1.2 M10.2 10.0 Q11.0 8.0 10.95 5.8 L10.9 5.1 10.6 5.0 10.0 4.35 Q8.85 3.05 9.0 1.2 M10.9 5.1 Q11.9 5.1 12.6 4.0 13.3 2.9 13.3 1.35 M10.5 1.9 L10.8 3.4 11.75 3.3 12.1 1.5 M15.15 12.15 L15.65 10.25 Q16.4 6.75 16.05 3.4 M2.5 1.25 Q2.5 2.75 3.05 3.8 3.55 4.85 4.25 4.85 4.95 4.85 5.5 3.8 6.0 2.75 6.0 1.25 M1.15 0.75 Q0.95 2.6 1.8 4.4 L3.0 5.85 Q4.2 6.7 5.7 6.15 L6.65 5.55 Q7.8 4.5 8.0 3.0 L8.0 1.5 M3.8 1.45 L4.25 2.7 Q4.9 2.6 4.9 1.7 L4.9 1.25" fill="none" stroke="#fd0202" stroke-linecap="round" stroke-linejoin="round" stroke-width="0.05"/>
    <path d="M19.25 13.3 L19.6 12.55 19.45 11.8 21.05 11.25 20.3 9.65 21.65 8.5 20.3 7.3 21.65 6.05 Q21.1 5.05 19.9 4.9 L21.15 3.75 19.85 2.45 20.55 1.6 19.95 1.2" fill="none" stroke="#66ff66" stroke-linecap="round" stroke-linejoin="round" stroke-width="0.05"/>
  </g>
  <defs>
    <linearGradient gradientTransform="matrix(-7.0E-4, 0.0063, -0.0135, -0.0016, -0.25, 4.15)" gradientUnits="userSpaceOnUse" id="gradient0" spreadMethod="pad" x1="-819.2" x2="819.2">
      <stop offset="0.0" stop-color="#a51616"/>
      <stop offset="0.8274509803921568" stop-color="#720101"/>
      <stop offset="1.0" stop-color="#410101"/>
    </linearGradient>
    <linearGradient gradientTransform="matrix(-8.0E-4, 0.0074, -0.0087, -9.0E-4, 3.1, 5.1)" gradientUnits="userSpaceOnUse" id="gradient1" spreadMethod="pad" x1="-819.2" x2="819.2">
      <stop offset="0.0" stop-color="#876636"/>
      <stop offset="0.5137254901960784" stop-color="#e7bf21"/>
      <stop offset="1.0" stop-color="#564036"/>
    </linearGradient>
  </defs>
</svg>
