<?xml version="1.0" encoding="UTF-8" standalone="no"?>
<svg xmlns:xlink="http://www.w3.org/1999/xlink" height="14.0px" width="23.25px" xmlns="http://www.w3.org/2000/svg">
  <g transform="matrix(1.0, 0.0, 0.0, 1.0, 0.0, 0.0)">
    <path d="M17.6 0.5 L21.6 0.4 Q22.6 2.0 22.95 4.0 L23.05 6.7 Q22.95 8.6 22.3 10.6 21.7 12.55 20.45 13.85 L19.7 13.75 18.6 13.3 17.45 12.85 Q18.55 11.4 18.9 9.8 L19.05 8.7 19.05 5.45 Q18.75 2.85 17.6 0.5" fill="url(#gradient0)" fill-rule="evenodd" stroke="none"/>
    <path d="M17.6 0.5 Q18.75 2.85 19.05 5.45 L19.05 8.7 18.9 9.8 Q18.55 11.4 17.45 12.85 L16.35 12.6 12.9 11.15 Q10.45 10.0 8.25 9.35 L3.95 8.1 -0.15 7.55 0.05 5.3 0.0 -0.15 17.6 0.5" fill="url(#gradient1)" fill-rule="evenodd" stroke="none"/>
    <path d="M17.45 12.85 L18.6 13.3 19.7 13.75 20.45 13.85 Q21.7 12.55 22.3 10.6 22.95 8.6 23.05 6.7 L22.95 4.0 Q22.6 2.0 21.6 0.4 L17.6 0.5 Q18.75 2.85 19.05 5.45 L19.05 8.7 18.9 9.8 Q18.55 11.4 17.45 12.85 L16.35 12.6 12.9 11.15 Q10.45 10.0 8.25 9.35 L3.95 8.1 -0.15 7.55 M0.0 -0.15 L17.6 0.5" fill="none" stroke="#000000" stroke-linecap="round" stroke-linejoin="round" stroke-width="0.05"/>
  </g>
  <defs>
    <linearGradient gradientTransform="matrix(-8.0E-4, 0.0074, -0.0087, -9.0E-4, 3.1, 5.1)" gradientUnits="userSpaceOnUse" id="gradient0" spreadMethod="pad" x1="-819.2" x2="819.2">
      <stop offset="0.0" stop-color="#564036"/>
      <stop offset="0.5137254901960784" stop-color="#aa9960"/>
      <stop offset="1.0" stop-color="#564036"/>
    </linearGradient>
    <linearGradient gradientTransform="matrix(-7.0E-4, 0.0063, -0.0135, -0.0016, -0.25, 4.15)" gradientUnits="userSpaceOnUse" id="gradient1" spreadMethod="pad" x1="-819.2" x2="819.2">
      <stop offset="0.0" stop-color="#3f4039"/>
      <stop offset="0.8274509803921568" stop-color="#282d22"/>
      <stop offset="1.0" stop-color="#1e1e1e"/>
    </linearGradient>
  </defs>
</svg>
