<?xml version="1.0" encoding="UTF-8" standalone="no"?>
<svg xmlns:xlink="http://www.w3.org/1999/xlink" height="27.25px" width="25.9px" xmlns="http://www.w3.org/2000/svg">
  <g transform="matrix(1.0, 0.0, 0.0, 1.0, 0.0, 0.0)">
    <path d="M5.85 25.6 L5.95 25.1 Q5.85 22.95 6.1 20.8 L6.8 15.7 7.0 12.75 Q6.95 9.3 7.65 8.6 L8.75 7.2 Q9.25 6.75 9.95 6.5 12.7 5.65 15.2 4.25 L20.1 1.1 Q16.2 3.9 16.1 4.5 L15.75 6.4 14.95 9.5 14.45 11.15 Q13.0 15.95 12.15 20.95 11.9 22.6 12.3 24.2 L11.35 24.5 Q8.65 25.55 5.85 25.6 M14.1 7.15 L12.15 8.0 12.0 8.85 12.85 9.65 12.65 10.5 12.15 10.75 10.95 10.85 9.85 11.6 9.35 12.35 11.6 13.2 11.4 15.0 8.65 15.25 8.35 16.95 Q7.95 19.7 8.55 22.2 L11.15 21.7 8.55 22.2 Q7.95 19.7 8.35 16.95 L8.65 15.25 11.4 15.0 11.6 13.2 9.35 12.35 9.85 11.6 10.95 10.85 12.15 10.75 12.65 10.5 12.85 9.65 12.0 8.85 12.15 8.0 14.1 7.15" fill="url(#gradient0)" fill-rule="evenodd" stroke="none"/>
    <path d="M-2.55 1.85 L1.35 5.55 2.15 6.45 3.45 9.15 4.0 12.95 4.1 14.3 Q4.25 17.05 3.9 20.0 L3.3 25.55 0.95 24.95 Q0.0 24.6 -0.55 23.65 L-0.5 21.9 -0.35 21.15 Q0.25 18.2 0.05 15.25 L-0.25 12.0 Q-0.6 9.0 -1.25 6.1 -1.65 4.3 -2.35 2.45 L-2.55 1.85 M0.6 7.95 L1.3 8.35 1.35 8.65 1.25 8.9 0.8 9.5 1.0 10.6 1.85 10.8 1.9 11.65 1.0 12.5 0.9 12.75 0.85 13.05 1.0 13.25 2.5 13.9 Q2.95 17.45 2.45 21.1 L0.95 21.0 0.45 21.25 0.95 21.0 2.45 21.1 Q2.95 17.45 2.5 13.9 L1.0 13.25 0.85 13.05 0.9 12.75 1.0 12.5 1.9 11.65 1.85 10.8 1.0 10.6 0.8 9.5 1.25 8.9 1.35 8.65 1.3 8.35 0.6 7.95" fill="url(#gradient1)" fill-rule="evenodd" stroke="none"/>
    <path d="M-2.55 1.85 L-5.8 -0.85 Q-3.4 -0.1 -1.05 0.1 1.3 0.25 3.4 -0.65 5.5 -1.55 7.75 -1.65 10.35 -1.2 12.65 0.15 14.75 1.45 20.1 1.1 L15.2 4.25 Q12.7 5.65 9.95 6.5 9.25 6.75 8.75 7.2 L7.65 8.6 Q6.95 9.3 7.0 12.75 L6.8 15.7 6.1 20.8 Q5.85 22.95 5.95 25.1 L5.85 25.6 4.85 25.6 3.3 25.55 3.9 20.0 Q4.25 17.05 4.1 14.3 L4.0 12.95 3.45 9.15 2.15 6.45 1.35 5.55 -2.55 1.85 M4.8 5.1 Q6.45 4.4 6.15 7.25 L5.9 7.75 Q2.2 8.05 3.6 4.55 3.8 4.05 4.4 3.85 6.65 3.0 8.0 5.4 7.85 6.65 7.05 7.5 L5.05 8.95 5.0 10.1 5.7 11.05 Q5.1 12.15 5.0 13.45 6.05 14.9 4.95 16.35 5.55 18.65 4.5 20.9 L4.9 22.0 4.25 22.95 4.3 23.55 4.8 24.2 4.85 25.6 4.8 24.2 4.3 23.55 4.25 22.95 4.9 22.0 4.5 20.9 Q5.55 18.65 4.95 16.35 6.05 14.9 5.0 13.45 5.1 12.15 5.7 11.05 L5.0 10.1 5.05 8.95 7.05 7.5 Q7.85 6.65 8.0 5.4 6.65 3.0 4.4 3.85 3.8 4.05 3.6 4.55 2.2 8.05 5.9 7.75 L6.15 7.25 Q6.45 4.4 4.8 5.1" fill="url(#gradient2)" fill-rule="evenodd" stroke="none"/>
    <path d="M20.1 1.1 Q14.75 1.45 12.65 0.15 10.35 -1.2 7.75 -1.65 5.5 -1.55 3.4 -0.65 1.3 0.25 -1.05 0.1 -3.4 -0.1 -5.8 -0.85 L-2.55 1.85 1.35 5.55 2.15 6.45 3.45 9.15 4.0 12.95 4.1 14.3 Q4.25 17.05 3.9 20.0 L3.3 25.55 4.85 25.6 5.85 25.6 Q8.65 25.55 11.35 24.5 L12.3 24.2 Q11.9 22.6 12.15 20.95 13.0 15.95 14.45 11.15 L14.95 9.5 15.75 6.4 16.1 4.5 Q16.2 3.9 20.1 1.1 L15.2 4.25 Q12.7 5.65 9.95 6.5 9.25 6.75 8.75 7.2 L7.65 8.6 Q6.95 9.3 7.0 12.75 L6.8 15.7 6.1 20.8 Q5.85 22.95 5.95 25.1 L5.85 25.6 M-2.55 1.85 L-2.35 2.45 Q-1.65 4.3 -1.25 6.1 -0.6 9.0 -0.25 12.0 L0.05 15.25 Q0.25 18.2 -0.35 21.15 L-0.5 21.9 -0.55 23.65 Q0.0 24.6 0.95 24.95 L3.3 25.55" fill="none" stroke="#000000" stroke-linecap="round" stroke-linejoin="round" stroke-width="0.05"/>
    <path d="M11.15 21.7 L8.55 22.2 Q7.95 19.7 8.35 16.95 L8.65 15.25 11.4 15.0 11.6 13.2 9.35 12.35 9.85 11.6 10.95 10.85 12.15 10.75 12.65 10.5 12.85 9.65 12.0 8.85 12.15 8.0 14.1 7.15 M0.45 21.25 L0.95 21.0 2.45 21.1 Q2.95 17.45 2.5 13.9 L1.0 13.25 0.85 13.05 0.9 12.75 1.0 12.5 1.9 11.65 1.85 10.8 1.0 10.6 0.8 9.5 1.25 8.9 1.35 8.65 1.3 8.35 0.6 7.95" fill="none" stroke="#fd0202" stroke-linecap="round" stroke-linejoin="round" stroke-width="0.05"/>
    <path d="M4.85 25.6 L4.8 24.2 4.3 23.55 4.25 22.95 4.9 22.0 4.5 20.9 Q5.55 18.65 4.95 16.35 6.05 14.9 5.0 13.45 5.1 12.15 5.7 11.05 L5.0 10.1 5.05 8.95 7.05 7.5 Q7.85 6.65 8.0 5.4 6.65 3.0 4.4 3.85 3.8 4.05 3.6 4.55 2.2 8.05 5.9 7.75 L6.15 7.25 Q6.45 4.4 4.8 5.1" fill="none" stroke="#66ff66" stroke-linecap="round" stroke-linejoin="round" stroke-width="0.05"/>
  </g>
  <defs>
    <linearGradient gradientTransform="matrix(0.0063, 0.0, 0.0, 0.0136, 11.05, 14.45)" gradientUnits="userSpaceOnUse" id="gradient0" spreadMethod="pad" x1="-819.2" x2="819.2">
      <stop offset="0.0" stop-color="#a51616"/>
      <stop offset="0.8274509803921568" stop-color="#720101"/>
      <stop offset="1.0" stop-color="#410101"/>
    </linearGradient>
    <linearGradient gradientTransform="matrix(-0.0037, 0.0, 2.0E-4, -0.0149, 1.1, 13.35)" gradientUnits="userSpaceOnUse" id="gradient1" spreadMethod="pad" x1="-819.2" x2="819.2">
      <stop offset="0.0" stop-color="#a51616"/>
      <stop offset="0.8274509803921568" stop-color="#720101"/>
      <stop offset="1.0" stop-color="#410101"/>
    </linearGradient>
    <linearGradient gradientTransform="matrix(2.0E-4, 0.0166, -0.0088, 1.0E-4, 3.0, 12.85)" gradientUnits="userSpaceOnUse" id="gradient2" spreadMethod="pad" x1="-819.2" x2="819.2">
      <stop offset="0.0" stop-color="#876636"/>
      <stop offset="0.5137254901960784" stop-color="#e7bf21"/>
      <stop offset="1.0" stop-color="#564036"/>
    </linearGradient>
  </defs>
</svg>
