<?xml version="1.0" encoding="UTF-8" standalone="no"?>
<svg xmlns:xlink="http://www.w3.org/1999/xlink" height="27.25px" width="18.15px" xmlns="http://www.w3.org/2000/svg">
  <g transform="matrix(1.0, 0.0, 0.0, 1.0, 0.0, 0.0)">
    <path d="M-1.45 1.15 Q1.15 0.6 3.6 -0.6 5.5 -1.55 7.75 -1.65 10.35 -1.2 12.65 0.15 14.75 1.45 16.25 3.3 L15.2 4.25 Q12.7 5.65 9.95 6.5 8.6 7.0 7.85 8.2 L4.8 4.45 4.55 5.2 Q4.3 6.0 3.7 6.45 L2.65 7.5 3.7 6.45 Q4.3 6.0 4.55 5.2 L4.8 4.45 7.85 8.2 8.4 9.25 6.95 11.25 5.2 12.85 3.9 11.35 5.2 12.85 6.95 11.25 Q7.15 13.45 6.8 15.7 L6.1 20.8 Q5.85 22.95 5.95 25.1 L5.85 25.6 3.3 25.55 3.9 20.0 Q4.25 17.05 4.1 14.3 L3.9 11.35 3.1 10.25 Q2.05 8.9 2.65 7.5 L2.6 7.2 1.35 5.55 Q-0.75 3.75 -1.45 1.15 M5.95 7.55 L5.05 6.1 3.2 8.45 3.15 8.5 4.05 9.65 4.8 11.3 7.0 9.25 5.95 7.55" fill="url(#gradient0)" fill-rule="evenodd" stroke="none"/>
    <path d="M7.85 8.2 Q8.6 7.0 9.95 6.5 12.7 5.65 15.2 4.25 L16.25 3.3 16.1 4.5 15.75 6.4 14.95 9.5 14.45 11.15 Q13.0 15.95 12.15 20.95 11.9 22.6 12.3 24.2 L11.35 24.5 Q8.65 25.55 5.85 25.6 L5.95 25.1 Q5.85 22.95 6.1 20.8 L6.8 15.7 Q7.15 13.45 6.95 11.25 L8.4 9.25 7.85 8.2" fill="url(#gradient1)" fill-rule="evenodd" stroke="none"/>
    <path d="M-1.45 1.15 Q-0.75 3.75 1.35 5.55 L2.6 7.2 2.65 7.5 Q2.05 8.9 3.1 10.25 L3.9 11.35 4.1 14.3 Q4.25 17.05 3.9 20.0 L3.3 25.55 0.95 24.95 Q0.0 24.6 -0.55 23.65 L-0.5 21.9 -0.35 21.15 Q0.25 18.2 0.05 15.25 L-0.25 12.0 Q-0.6 9.0 -1.25 6.1 L-1.9 2.45 -1.8 1.25 -1.45 1.15" fill="url(#gradient2)" fill-rule="evenodd" stroke="none"/>
    <path d="M4.75 7.25 L4.7 7.3 Q4.2 7.55 3.9 8.1 L3.9 8.2 4.35 8.5 4.5 8.45 5.2 7.75 5.2 7.65 Q5.2 7.25 4.75 7.25 M4.05 9.65 L3.15 8.5 3.2 8.45 5.05 6.1 5.95 7.55 5.15 9.1 Q4.7 9.65 4.05 9.65" fill="#66ff00" fill-rule="evenodd" stroke="none"/>
    <path d="M4.75 7.25 Q5.2 7.25 5.2 7.65 L5.2 7.75 4.5 8.45 4.35 8.5 3.9 8.2 3.9 8.1 Q4.2 7.55 4.7 7.3 L4.75 7.25" fill="#ffffff" fill-rule="evenodd" stroke="none"/>
    <path d="M5.95 7.55 L7.0 9.25 4.8 11.3 4.05 9.65 Q4.7 9.65 5.15 9.1 L5.95 7.55" fill="#006600" fill-rule="evenodd" stroke="none"/>
    <path d="M16.25 3.3 Q14.75 1.45 12.65 0.15 10.35 -1.2 7.75 -1.65 5.5 -1.55 3.6 -0.6 1.15 0.6 -1.45 1.15 -0.75 3.75 1.35 5.55 L2.6 7.2 2.65 7.5 3.7 6.45 Q4.3 6.0 4.55 5.2 L4.8 4.45 7.85 8.2 Q8.6 7.0 9.95 6.5 12.7 5.65 15.2 4.25 L16.25 3.3 16.1 4.5 15.75 6.4 14.95 9.5 14.45 11.15 Q13.0 15.95 12.15 20.95 11.9 22.6 12.3 24.2 L11.35 24.5 Q8.65 25.55 5.85 25.6 L3.3 25.55 0.95 24.95 Q0.0 24.6 -0.55 23.65 L-0.5 21.9 -0.35 21.15 Q0.25 18.2 0.05 15.25 L-0.25 12.0 Q-0.6 9.0 -1.25 6.1 L-1.9 2.45 -1.8 1.25 -1.45 1.15 M4.05 9.65 L3.15 8.5 3.2 8.45 5.05 6.1 5.95 7.55 7.0 9.25 4.8 11.3 4.05 9.65 M2.65 7.5 Q2.05 8.9 3.1 10.25 L3.9 11.35 5.2 12.85 6.95 11.25 8.4 9.25 7.85 8.2 M3.9 11.35 L4.1 14.3 Q4.25 17.05 3.9 20.0 L3.3 25.55 M5.85 25.6 L5.95 25.1 Q5.85 22.95 6.1 20.8 L6.8 15.7 Q7.15 13.45 6.95 11.25" fill="none" stroke="#000000" stroke-linecap="round" stroke-linejoin="round" stroke-width="0.05"/>
  </g>
  <defs>
    <linearGradient gradientTransform="matrix(2.0E-4, 0.0166, -0.0088, 1.0E-4, 3.0, 12.85)" gradientUnits="userSpaceOnUse" id="gradient0" spreadMethod="pad" x1="-819.2" x2="819.2">
      <stop offset="0.0" stop-color="#564036"/>
      <stop offset="0.5137254901960784" stop-color="#aa9960"/>
      <stop offset="1.0" stop-color="#564036"/>
    </linearGradient>
    <linearGradient gradientTransform="matrix(0.0063, 0.0, 0.0, 0.0136, 11.05, 14.45)" gradientUnits="userSpaceOnUse" id="gradient1" spreadMethod="pad" x1="-819.2" x2="819.2">
      <stop offset="0.0" stop-color="#3f4039"/>
      <stop offset="0.8274509803921568" stop-color="#282d22"/>
      <stop offset="1.0" stop-color="#1e1e1e"/>
    </linearGradient>
    <linearGradient gradientTransform="matrix(-0.0037, 0.0, 2.0E-4, -0.0149, 1.1, 13.35)" gradientUnits="userSpaceOnUse" id="gradient2" spreadMethod="pad" x1="-819.2" x2="819.2">
      <stop offset="0.0" stop-color="#3f4039"/>
      <stop offset="0.8274509803921568" stop-color="#282d22"/>
      <stop offset="1.0" stop-color="#1e1e1e"/>
    </linearGradient>
  </defs>
</svg>
