<?xml version="1.0" encoding="UTF-8" standalone="no"?>
<svg xmlns:xlink="http://www.w3.org/1999/xlink" height="23.6px" width="17.2px" xmlns="http://www.w3.org/2000/svg">
  <g transform="matrix(1.0, 0.0, 0.0, 1.0, 0.0, 0.0)">
    <path d="M5.95 -7.55 Q8.1 -4.15 9.55 -0.55 10.6 1.9 10.75 7.35 10.9 12.75 6.35 13.1 1.8 13.45 1.25 6.4 0.65 -0.65 5.95 -7.55" fill="#000000" fill-rule="evenodd" stroke="none"/>
    <path d="M12.35 8.2 L13.0 7.75 13.45 7.2 13.7 6.55 13.9 5.5 11.65 4.25 13.55 3.1 Q12.85 -0.45 10.55 -3.25 L11.65 -3.9 10.55 -3.25 Q12.85 -0.45 13.55 3.1 L11.65 4.25 13.9 5.5 13.7 6.55 13.45 7.2 13.0 7.75 12.35 8.2 M11.65 -3.9 Q15.05 0.95 16.3 6.95 16.6 8.35 15.6 9.3 13.35 11.65 10.25 12.75 4.1 15.2 0.5 10.35 -0.95 8.3 -0.85 5.8 -0.45 -3.25 5.2 -10.05 L5.85 -9.9 7.25 -8.85 Q9.75 -6.55 11.65 -3.9 M5.95 -7.55 Q0.65 -0.65 1.25 6.4 1.8 13.45 6.35 13.1 10.9 12.75 10.75 7.35 10.6 1.9 9.55 -0.55 8.1 -4.15 5.95 -7.55" fill="url(#gradient0)" fill-rule="evenodd" stroke="none"/>
    <path d="M11.65 -3.9 Q9.75 -6.55 7.25 -8.85 L5.85 -9.9 5.2 -10.05 Q-0.45 -3.25 -0.85 5.8 -0.95 8.3 0.5 10.35 4.1 15.2 10.25 12.75 13.35 11.65 15.6 9.3 16.6 8.35 16.3 6.95 15.05 0.95 11.65 -3.9" fill="none" stroke="#000000" stroke-linecap="round" stroke-linejoin="round" stroke-width="0.05"/>
    <path d="M11.65 -3.9 L10.55 -3.25 Q12.85 -0.45 13.55 3.1 L11.65 4.25 13.9 5.5 13.7 6.55 13.45 7.2 13.0 7.75 12.35 8.2" fill="none" stroke="#fd0202" stroke-linecap="round" stroke-linejoin="round" stroke-width="0.05"/>
  </g>
  <defs>
    <radialGradient cx="0" cy="0" gradientTransform="matrix(0.012, 0.0, 0.0, 0.0217, 5.85, 0.7)" gradientUnits="userSpaceOnUse" id="gradient0" r="819.2" spreadMethod="pad">
      <stop offset="0.0" stop-color="#a51616"/>
      <stop offset="0.8274509803921568" stop-color="#720101"/>
      <stop offset="1.0" stop-color="#410101"/>
    </radialGradient>
  </defs>
</svg>
