<?xml version="1.0" encoding="UTF-8" standalone="no"?>
<svg xmlns:xlink="http://www.w3.org/1999/xlink" height="23.6px" width="17.2px" xmlns="http://www.w3.org/2000/svg">
  <g transform="matrix(1.0, 0.0, 0.0, 1.0, 0.0, 0.0)">
    <path d="M5.2 -10.05 L5.85 -9.9 7.25 -8.85 Q14.35 -2.35 16.3 6.95 16.6 8.35 15.6 9.3 13.35 11.65 10.25 12.75 4.1 15.2 0.5 10.35 -0.95 8.3 -0.85 5.8 -0.45 -3.25 5.2 -10.05 M5.95 -7.55 Q0.65 -0.65 1.25 5.25 1.8 11.1 6.35 10.8 10.9 10.5 10.75 6.2 10.6 1.9 9.55 -0.55 8.1 -4.15 5.95 -7.55" fill="url(#gradient0)" fill-rule="evenodd" stroke="none"/>
    <path d="M5.95 -7.55 Q8.1 -4.15 9.55 -0.55 10.6 1.9 10.75 6.2 10.9 10.5 6.35 10.8 1.8 11.1 1.25 5.25 0.65 -0.65 5.95 -7.55" fill="#000000" fill-rule="evenodd" stroke="none"/>
    <path d="M5.2 -10.05 Q-0.45 -3.25 -0.85 5.8 -0.95 8.3 0.5 10.35 4.1 15.2 10.25 12.75 13.35 11.65 15.6 9.3 16.6 8.35 16.3 6.95 14.35 -2.35 7.25 -8.85 L5.85 -9.9 5.2 -10.05 M5.95 -7.55 Q0.65 -0.65 1.25 5.25 1.8 11.1 6.35 10.8 10.9 10.5 10.75 6.2 10.6 1.9 9.55 -0.55 8.1 -4.15 5.95 -7.55 Z" fill="none" stroke="#000000" stroke-linecap="round" stroke-linejoin="round" stroke-width="0.05"/>
  </g>
  <defs>
    <radialGradient cx="0" cy="0" gradientTransform="matrix(0.012, 0.0, 0.0, 0.0217, 5.85, 0.7)" gradientUnits="userSpaceOnUse" id="gradient0" r="819.2" spreadMethod="pad">
      <stop offset="0.0" stop-color="#3f4039"/>
      <stop offset="0.8274509803921568" stop-color="#282d22"/>
      <stop offset="1.0" stop-color="#1e1e1e"/>
    </radialGradient>
  </defs>
</svg>
