<?xml version="1.0" encoding="UTF-8" standalone="no"?>
<svg xmlns:xlink="http://www.w3.org/1999/xlink" height="5.2px" width="5.2px" xmlns="http://www.w3.org/2000/svg">
  <g transform="matrix(1.0, 0.0, 0.0, 1.0, 0.0, 0.0)">
    <path d="M-0.05 -2.6 Q1.05 -2.6 1.8 -1.85 2.6 -1.1 2.6 0.0 2.6 1.1 1.8 1.85 1.05 2.6 -0.05 2.6 -1.1 2.6 -1.85 1.85 -2.6 1.1 -2.6 0.0 -2.6 -1.1 -1.85 -1.85 -1.1 -2.6 -0.05 -2.6" fill="#66ff00" fill-rule="evenodd" stroke="none"/>
    <path d="M-0.05 -2.6 Q1.05 -2.6 1.8 -1.85 2.6 -1.1 2.6 0.0 2.6 1.1 1.8 1.85 1.05 2.6 -0.05 2.6 -1.1 2.6 -1.85 1.85 -2.6 1.1 -2.6 0.0 -2.6 -1.1 -1.85 -1.85 -1.1 -2.6 -0.05 -2.6 Z" fill="none" stroke="#006600" stroke-linecap="round" stroke-linejoin="round" stroke-width="0.05"/>
  </g>
</svg>
