<?xml version="1.0" encoding="UTF-8" standalone="no"?>
<svg xmlns:xlink="http://www.w3.org/1999/xlink" height="22.0px" width="19.95px" xmlns="http://www.w3.org/2000/svg">
  <g transform="matrix(1.0, 0.0, 0.0, 1.0, 0.0, 0.0)">
    <path d="M3.4 -9.9 L4.8 -4.55 Q6.45 2.0 10.05 7.45 L2.0 10.55 Q0.25 7.3 -0.6 3.95 -2.3 -2.8 -3.1 -9.75 L3.4 -9.9 M-0.75 2.15 L-0.05 2.15 1.0 1.25 0.85 -0.35 -1.05 -0.75 0.85 -0.35 1.0 1.25 -0.05 2.15 -0.75 2.15 M2.5 -0.45 L2.6 0.45 Q2.65 2.05 2.1 3.5 L2.6 4.15 4.3 4.65 5.7 6.65 6.75 6.8 5.7 6.65 4.3 4.65 2.6 4.15 2.1 3.5 Q1.75 4.2 0.95 4.6 L0.4 4.9 0.55 5.5 Q0.9 6.8 2.0 7.9 0.9 6.8 0.55 5.5 L0.4 4.9 0.95 4.6 Q1.75 4.2 2.1 3.5 2.65 2.05 2.6 0.45 L2.5 -0.45 Q2.15 -1.95 0.85 -2.85 L0.1 -3.4 1.25 -4.65 Q0.7 -5.6 0.5 -6.45 L0.3 -8.15 0.5 -6.45 Q0.7 -5.6 1.25 -4.65 L0.1 -3.4 0.85 -2.85 Q2.15 -1.95 2.5 -0.45 L4.25 -1.35 2.5 -0.45 M0.1 -3.4 L-1.65 -3.35 -2.15 -6.35 -1.65 -3.35 0.1 -3.4" fill="url(#gradient0)" fill-rule="evenodd" stroke="none"/>
    <path d="M-9.25 -11.0 L-5.3 -10.05 -5.3 -1.55 Q-5.2 5.05 -2.9 11.0 L-8.6 10.4 Q-9.95 3.9 -9.9 -2.85 -9.85 -6.95 -9.25 -11.0 M-5.95 -3.25 L-7.2 -4.2 -7.65 -2.5 -9.0 -2.65 -7.45 -0.45 -8.1 0.05 -8.7 0.65 -6.9 1.25 -8.5 3.2 -7.2 2.85 -6.05 2.4 -6.7 3.4 -6.45 4.3 -5.7 3.8 -6.45 4.3 -6.7 3.4 -6.05 2.4 -7.2 2.85 -8.5 3.2 -6.9 1.25 -8.7 0.65 -8.1 0.05 -7.45 -0.45 -9.0 -2.65 -7.65 -2.5 -7.2 -4.2 -5.95 -3.25 M-8.45 -8.05 Q-8.1 -8.45 -7.6 -8.45 -7.1 -8.45 -6.7 -8.05 -6.35 -7.7 -6.35 -7.2 -6.35 -6.7 -6.7 -6.3 -7.1 -5.95 -7.6 -5.95 -8.1 -5.95 -8.45 -6.3 -8.85 -6.7 -8.85 -7.2 -8.85 -7.7 -8.45 -8.05 -8.85 -7.7 -8.85 -7.2 -8.85 -6.7 -8.45 -6.3 -8.1 -5.95 -7.6 -5.95 -7.1 -5.95 -6.7 -6.3 -6.35 -6.7 -6.35 -7.2 -6.35 -7.7 -6.7 -8.05 -7.1 -8.45 -7.6 -8.45 -8.1 -8.45 -8.45 -8.05 M-5.1 7.25 L-6.0 6.45 Q-7.2 6.8 -7.85 7.9 L-7.45 8.7 -7.05 8.85 Q-5.65 9.0 -5.0 7.9 L-5.1 7.25 -5.0 7.9 Q-5.65 9.0 -7.05 8.85 L-7.45 8.7 -7.85 7.9 Q-7.2 6.8 -6.0 6.45 L-5.1 7.25 M-6.9 5.15 L-8.35 4.9 -8.1 5.9 -8.35 4.9 -6.9 5.15" fill="url(#gradient1)" fill-rule="evenodd" stroke="none"/>
    <path d="M-3.1 -9.75 Q-2.3 -2.8 -0.6 3.95 0.25 7.3 2.0 10.55 L-0.35 10.8 -0.9 9.55 -0.8 9.35 -0.85 8.6 -1.65 8.3 -1.95 8.25 -2.1 8.0 -0.65 6.9 Q-1.35 6.05 -2.1 6.3 -2.95 6.6 -3.2 6.0 -3.3 5.15 -2.35 5.15 L-1.1 5.0 -1.2 4.2 Q-3.75 4.4 -4.7 3.0 L-2.9 2.85 -2.8 2.05 -1.7 1.6 -1.85 1.15 -2.25 0.85 -4.35 0.65 -4.45 -0.25 -3.2 -0.45 -2.9 -0.65 -2.7 -1.8 -4.45 -2.6 -4.9 -3.25 -3.5 -5.25 -4.5 -7.05 -4.05 -7.65 -4.1 -8.7 -4.3 -9.65 -4.1 -8.7 -4.05 -7.65 -4.5 -7.05 -3.5 -5.25 -4.9 -3.25 -4.45 -2.6 -2.7 -1.8 -2.9 -0.65 -3.2 -0.45 -4.45 -0.25 -4.35 0.65 -2.25 0.85 -1.85 1.15 -1.7 1.6 -2.8 2.05 -2.9 2.85 -4.7 3.0 Q-3.75 4.4 -1.2 4.2 L-1.1 5.0 -2.35 5.15 Q-3.3 5.15 -3.2 6.0 -2.95 6.6 -2.1 6.3 -1.35 6.05 -0.65 6.9 L-2.1 8.0 -1.95 8.25 -1.65 8.3 -0.85 8.6 -0.8 9.35 -0.9 9.55 -0.35 10.8 -2.9 11.0 Q-5.2 5.05 -5.3 -1.55 L-5.3 -10.05 -3.1 -9.75" fill="url(#gradient2)" fill-rule="evenodd" stroke="none"/>
    <path d="M10.05 7.45 Q6.45 2.0 4.8 -4.55 L3.4 -9.9 M-3.1 -9.75 Q-2.3 -2.8 -0.6 3.95 0.25 7.3 2.0 10.55 M-8.6 10.4 Q-9.95 3.9 -9.9 -2.85 -9.85 -6.95 -9.25 -11.0 M-5.3 -10.05 L-5.3 -1.55 Q-5.2 5.05 -2.9 11.0" fill="none" stroke="#000000" stroke-linecap="round" stroke-linejoin="round" stroke-width="0.05"/>
    <path d="M0.3 -8.15 L0.5 -6.45 Q0.7 -5.6 1.25 -4.65 L0.1 -3.4 0.85 -2.85 Q2.15 -1.95 2.5 -0.45 L4.25 -1.35 M6.75 6.8 L5.7 6.65 4.3 4.65 2.6 4.15 2.1 3.5 Q1.75 4.2 0.95 4.6 L0.4 4.9 0.55 5.5 Q0.9 6.8 2.0 7.9 M2.1 3.5 Q2.65 2.05 2.6 0.45 L2.5 -0.45 M-1.05 -0.75 L0.85 -0.35 1.0 1.25 -0.05 2.15 -0.75 2.15 M-8.45 -8.05 Q-8.85 -7.7 -8.85 -7.2 -8.85 -6.7 -8.45 -6.3 -8.1 -5.95 -7.6 -5.95 -7.1 -5.95 -6.7 -6.3 -6.35 -6.7 -6.35 -7.2 -6.35 -7.7 -6.7 -8.05 -7.1 -8.45 -7.6 -8.45 -8.1 -8.45 -8.45 -8.05 M-5.7 3.8 L-6.45 4.3 -6.7 3.4 -6.05 2.4 -7.2 2.85 -8.5 3.2 -6.9 1.25 -8.7 0.65 -8.1 0.05 -7.45 -0.45 -9.0 -2.65 -7.65 -2.5 -7.2 -4.2 -5.95 -3.25 M-2.15 -6.35 L-1.65 -3.35 0.1 -3.4 M-8.1 5.9 L-8.35 4.9 -6.9 5.15 M-5.1 7.25 L-5.0 7.9 Q-5.65 9.0 -7.05 8.85 L-7.45 8.7 -7.85 7.9 Q-7.2 6.8 -6.0 6.45 L-5.1 7.25" fill="none" stroke="#fd0202" stroke-linecap="round" stroke-linejoin="round" stroke-width="0.05"/>
    <path d="M-4.3 -9.65 L-4.1 -8.7 -4.05 -7.65 -4.5 -7.05 -3.5 -5.25 -4.9 -3.25 -4.45 -2.6 -2.7 -1.8 -2.9 -0.65 -3.2 -0.45 -4.45 -0.25 -4.35 0.65 -2.25 0.85 -1.85 1.15 -1.7 1.6 -2.8 2.05 -2.9 2.85 -4.7 3.0 Q-3.75 4.4 -1.2 4.2 L-1.1 5.0 -2.35 5.15 Q-3.3 5.15 -3.2 6.0 -2.95 6.6 -2.1 6.3 -1.35 6.05 -0.65 6.9 L-2.1 8.0 -1.95 8.25 -1.65 8.3 -0.85 8.6 -0.8 9.35 -0.9 9.55 -0.35 10.8" fill="none" stroke="#66ff66" stroke-linecap="round" stroke-linejoin="round" stroke-width="0.05"/>
  </g>
  <defs>
    <linearGradient gradientTransform="matrix(0.0063, -8.0E-4, 0.0018, 0.0135, 4.15, 3.05)" gradientUnits="userSpaceOnUse" id="gradient0" spreadMethod="pad" x1="-819.2" x2="819.2">
      <stop offset="0.0" stop-color="#a51616"/>
      <stop offset="0.8274509803921568" stop-color="#720101"/>
      <stop offset="1.0" stop-color="#410101"/>
    </linearGradient>
    <linearGradient gradientTransform="matrix(-0.0037, 1.0E-4, -4.0E-4, -0.0149, -7.25, 0.9)" gradientUnits="userSpaceOnUse" id="gradient1" spreadMethod="pad" x1="-819.2" x2="819.2">
      <stop offset="0.0" stop-color="#a51616"/>
      <stop offset="0.8274509803921568" stop-color="#720101"/>
      <stop offset="1.0" stop-color="#410101"/>
    </linearGradient>
    <linearGradient gradientTransform="matrix(2.0E-4, 0.0166, -0.0088, 1.0E-4, 28.65, 1.0)" gradientUnits="userSpaceOnUse" id="gradient2" spreadMethod="pad" x1="-819.2" x2="819.2">
      <stop offset="0.0" stop-color="#876636"/>
      <stop offset="0.5137254901960784" stop-color="#e7bf21"/>
      <stop offset="1.0" stop-color="#564036"/>
    </linearGradient>
  </defs>
</svg>
