<?xml version="1.0" encoding="UTF-8" standalone="no"?>
<svg xmlns:xlink="http://www.w3.org/1999/xlink" height="23.15px" width="32.8px" xmlns="http://www.w3.org/2000/svg">
  <g transform="matrix(1.0, 0.0, 0.0, 1.0, 0.0, 0.0)">
    <path d="M2.65 -10.8 L3.8 -9.25 Q7.55 -2.95 13.9 0.95 L13.55 1.65 Q12.65 3.2 11.0 3.95 7.7 5.2 4.05 4.55 L1.5 2.25 Q-3.25 -2.4 -5.85 -8.65 L1.15 -10.25 Q1.9 -10.45 2.65 -10.8 M9.45 2.15 L8.4 1.45 8.75 2.4 7.95 2.65 7.0 3.9 Q5.35 3.1 3.6 2.7 1.3 2.2 2.25 0.25 4.1 1.5 6.45 1.95 L6.65 1.75 6.75 1.6 6.75 1.4 6.7 1.2 Q7.8 0.15 9.5 0.5 L9.25 -0.2 7.25 -1.3 6.75 -1.0 6.3 -1.0 5.7 -0.55 Q4.65 -0.25 4.0 -0.9 L5.65 -1.6 5.65 -2.85 5.35 -2.9 1.7 -2.1 1.2 -2.6 Q2.35 -3.55 4.0 -3.65 L4.4 -4.35 3.8 -4.85 3.15 -4.7 -0.35 -4.45 Q-1.0 -4.8 -0.95 -5.75 -0.3 -6.85 1.0 -6.85 L3.05 -5.7 4.0 -5.9 2.15 -8.95 Q-0.85 -9.25 -3.75 -7.35 L-3.65 -6.95 -3.05 -5.9 -3.65 -6.95 -3.75 -7.35 Q-0.85 -9.25 2.15 -8.95 L4.0 -5.9 3.05 -5.7 1.0 -6.85 Q-0.3 -6.85 -0.95 -5.75 -1.0 -4.8 -0.35 -4.45 L3.15 -4.7 3.8 -4.85 4.4 -4.35 4.0 -3.65 Q2.35 -3.55 1.2 -2.6 L1.7 -2.1 5.35 -2.9 5.65 -2.85 5.65 -1.6 4.0 -0.9 Q4.65 -0.25 5.7 -0.55 L6.3 -1.0 6.75 -1.0 7.25 -1.3 9.25 -0.2 9.5 0.5 Q7.8 0.15 6.7 1.2 L6.75 1.4 6.75 1.6 6.65 1.75 6.45 1.95 Q4.1 1.5 2.25 0.25 1.3 2.2 3.6 2.7 5.35 3.1 7.0 3.9 L7.95 2.65 8.75 2.4 8.4 1.45 9.45 2.15" fill="url(#gradient0)" fill-rule="evenodd" stroke="none"/>
    <path d="M-9.25 10.65 L-9.35 10.55 Q-12.35 4.9 -13.95 -1.45 L-15.55 -7.5 -10.5 -7.9 Q-7.45 -0.25 -3.75 7.0 L-4.0 7.8 Q-5.3 11.75 -9.25 10.6 L-9.25 10.65 M-13.25 -5.0 L-12.95 -5.45 -12.25 -5.55 -10.55 -4.75 -10.6 -5.95 -11.35 -6.65 Q-13.2 -6.95 -13.75 -5.75 L-13.25 -5.0 -11.0 -3.55 Q-10.75 -3.5 -10.55 -3.25 L-10.95 -2.95 Q-11.95 -3.1 -12.85 -2.5 L-12.1 -1.3 Q-10.85 -2.0 -9.3 -1.65 L-8.55 -0.65 Q-9.95 -0.6 -11.2 0.25 L-8.3 0.5 -8.2 0.75 -8.3 1.4 Q-9.8 1.6 -11.25 2.25 L-11.35 3.05 -11.25 3.65 -7.85 2.75 -7.05 4.0 -8.55 3.9 -8.4 4.65 -7.7 5.2 Q-8.55 5.25 -8.75 5.9 L-8.8 6.3 -7.5 6.85 -7.35 8.15 -7.5 6.85 -8.8 6.3 -8.75 5.9 Q-8.55 5.25 -7.7 5.2 L-8.4 4.65 -8.55 3.9 -7.05 4.0 -7.85 2.75 -11.25 3.65 -11.35 3.05 -11.25 2.25 Q-9.8 1.6 -8.3 1.4 L-8.2 0.75 -8.3 0.5 -11.2 0.25 Q-9.95 -0.6 -8.55 -0.65 L-9.3 -1.65 Q-10.85 -2.0 -12.1 -1.3 L-12.85 -2.5 Q-11.95 -3.1 -10.95 -2.95 L-10.55 -3.25 Q-10.75 -3.5 -11.0 -3.55 L-13.25 -5.0 -13.75 -5.75 Q-13.2 -6.95 -11.35 -6.65 L-10.6 -5.95 -10.55 -4.75 -12.25 -5.55 -12.95 -5.45 -13.25 -5.0 M-9.35 10.55 L-9.25 10.6 -9.35 10.55" fill="url(#gradient1)" fill-rule="evenodd" stroke="none"/>
    <path d="M-5.85 -8.65 Q-3.25 -2.4 1.5 2.25 L4.05 4.55 Q7.7 5.2 11.0 3.95 12.65 3.2 13.55 1.65 L13.9 0.95 17.25 0.2 Q15.95 3.5 14.8 4.4 8.9 9.25 1.4 10.25 -0.35 10.6 -1.8 11.45 -4.45 12.9 -6.9 12.05 L-9.25 10.65 -9.25 10.6 Q-5.3 11.75 -4.0 7.8 L-3.75 7.0 Q-7.45 -0.25 -10.5 -7.9 L-7.85 -8.3 -5.85 -8.65 M-6.9 12.05 Q-4.35 11.0 -2.95 10.0 L-1.55 10.05 -1.95 9.2 -2.1 8.9 -2.1 8.65 -1.35 8.35 0.1 9.2 1.45 8.3 1.2 8.15 Q0.95 7.8 1.55 7.65 L3.4 6.65 3.5 6.15 3.25 5.65 Q0.65 7.15 -1.6 6.6 L-1.6 6.45 Q0.0 6.0 0.95 4.6 L-0.15 4.15 -2.95 4.95 -3.05 3.2 -0.6 2.9 -1.0 1.7 -2.4 1.85 Q-3.4 1.85 -4.4 2.3 L-4.75 2.0 -4.75 1.5 -3.65 0.75 -5.95 0.25 -5.35 -0.25 Q-4.45 -0.85 -3.25 -0.7 L-2.9 0.25 -2.0 0.5 -2.45 -1.25 -3.0 -1.55 -5.2 -1.7 -5.85 -1.1 -6.7 -1.8 -6.6 -2.25 -6.9 -2.6 -4.4 -3.65 Q-5.3 -4.75 -7.65 -4.35 L-8.0 -5.0 Q-7.15 -5.3 -6.5 -5.75 L-6.5 -6.25 -6.9 -6.35 -8.8 -5.95 -9.2 -6.5 -7.25 -7.3 -7.85 -8.3 -7.25 -7.3 -9.2 -6.5 -8.8 -5.95 -6.9 -6.35 -6.5 -6.25 -6.5 -5.75 Q-7.15 -5.3 -8.0 -5.0 L-7.65 -4.35 Q-5.3 -4.75 -4.4 -3.65 L-6.9 -2.6 -6.6 -2.25 -6.7 -1.8 -5.85 -1.1 -5.2 -1.7 -3.0 -1.55 -2.45 -1.25 -2.0 0.5 -2.9 0.25 -3.25 -0.7 Q-4.45 -0.85 -5.35 -0.25 L-5.95 0.25 -3.65 0.75 -4.75 1.5 -4.75 2.0 -4.4 2.3 Q-3.4 1.85 -2.4 1.85 L-1.0 1.7 -0.6 2.9 -3.05 3.2 -2.95 4.95 -0.15 4.15 0.95 4.6 Q0.0 6.0 -1.6 6.45 L-1.6 6.6 Q0.65 7.15 3.25 5.65 L3.5 6.15 3.4 6.65 1.55 7.65 Q0.95 7.8 1.2 8.15 L1.45 8.3 2.15 8.65 12.05 5.3 12.1 4.15 Q13.3 3.8 13.8 2.9 L14.1 2.4 13.8 2.9 Q13.3 3.8 12.1 4.15 L12.05 5.3 2.15 8.65 1.45 8.3 0.1 9.2 -1.35 8.35 -2.1 8.65 -2.1 8.9 -1.95 9.2 -1.55 10.05 -2.95 10.0 Q-4.35 11.0 -6.9 12.05" fill="url(#gradient2)" fill-rule="evenodd" stroke="none"/>
    <path d="M13.9 0.95 Q7.55 -2.95 3.8 -9.25 L2.65 -10.8 M-5.85 -8.65 Q-3.25 -2.4 1.5 2.25 L4.05 4.55 Q7.7 5.2 11.0 3.95 12.65 3.2 13.55 1.65 L13.9 0.95 17.25 0.2 Q15.95 3.5 14.8 4.4 8.9 9.25 1.4 10.25 -0.35 10.6 -1.8 11.45 -4.45 12.9 -6.9 12.05 L-9.25 10.65 -9.35 10.55 Q-12.35 4.9 -13.95 -1.45 L-15.55 -7.5 M-9.25 10.6 L-9.35 10.55 M-9.25 10.6 Q-5.3 11.75 -4.0 7.8 L-3.75 7.0 Q-7.45 -0.25 -10.5 -7.9" fill="none" stroke="#000000" stroke-linecap="round" stroke-linejoin="round" stroke-width="0.05"/>
    <path d="M-3.05 -5.9 L-3.65 -6.95 -3.75 -7.35 Q-0.85 -9.25 2.15 -8.95 L4.0 -5.9 3.05 -5.7 1.0 -6.85 Q-0.3 -6.85 -0.95 -5.75 -1.0 -4.8 -0.35 -4.45 L3.15 -4.7 3.8 -4.85 4.4 -4.35 4.0 -3.65 Q2.35 -3.55 1.2 -2.6 L1.7 -2.1 5.35 -2.9 5.65 -2.85 5.65 -1.6 4.0 -0.9 Q4.65 -0.25 5.7 -0.55 L6.3 -1.0 6.75 -1.0 7.25 -1.3 9.25 -0.2 9.5 0.5 Q7.8 0.15 6.7 1.2 L6.75 1.4 6.75 1.6 6.65 1.75 6.45 1.95 Q4.1 1.5 2.25 0.25 1.3 2.2 3.6 2.7 5.35 3.1 7.0 3.9 L7.95 2.65 8.75 2.4 8.4 1.45 9.45 2.15 M-7.35 8.15 L-7.5 6.85 -8.8 6.3 -8.75 5.9 Q-8.55 5.25 -7.7 5.2 L-8.4 4.65 -8.55 3.9 -7.05 4.0 -7.85 2.75 -11.25 3.65 -11.35 3.05 -11.25 2.25 Q-9.8 1.6 -8.3 1.4 L-8.2 0.75 -8.3 0.5 -11.2 0.25 Q-9.95 -0.6 -8.55 -0.65 L-9.3 -1.65 Q-10.85 -2.0 -12.1 -1.3 L-12.85 -2.5 Q-11.95 -3.1 -10.95 -2.95 L-10.55 -3.25 Q-10.75 -3.5 -11.0 -3.55 L-13.25 -5.0 -13.75 -5.75 Q-13.2 -6.95 -11.35 -6.65 L-10.6 -5.95 -10.55 -4.75 -12.25 -5.55 -12.95 -5.45 -13.25 -5.0" fill="none" stroke="#fd0202" stroke-linecap="round" stroke-linejoin="round" stroke-width="0.05"/>
    <path d="M-7.85 -8.3 L-7.25 -7.3 -9.2 -6.5 -8.8 -5.95 -6.9 -6.35 -6.5 -6.25 -6.5 -5.75 Q-7.15 -5.3 -8.0 -5.0 L-7.65 -4.35 Q-5.3 -4.75 -4.4 -3.65 L-6.9 -2.6 -6.6 -2.25 -6.7 -1.8 -5.85 -1.1 -5.2 -1.7 -3.0 -1.55 -2.45 -1.25 -2.0 0.5 -2.9 0.25 -3.25 -0.7 Q-4.45 -0.85 -5.35 -0.25 L-5.95 0.25 -3.65 0.75 -4.75 1.5 -4.75 2.0 -4.4 2.3 Q-3.4 1.85 -2.4 1.85 L-1.0 1.7 -0.6 2.9 -3.05 3.2 -2.95 4.95 -0.15 4.15 0.95 4.6 Q0.0 6.0 -1.6 6.45 L-1.6 6.6 Q0.65 7.15 3.25 5.65 L3.5 6.15 3.4 6.65 1.55 7.65 Q0.95 7.8 1.2 8.15 L1.45 8.3 2.15 8.65 12.05 5.3 12.1 4.15 Q13.3 3.8 13.8 2.9 L14.1 2.4 M1.45 8.3 L0.1 9.2 -1.35 8.35 -2.1 8.65 -2.1 8.9 -1.95 9.2 -1.55 10.05 -2.95 10.0 Q-4.35 11.0 -6.9 12.05" fill="none" stroke="#66ff66" stroke-linecap="round" stroke-linejoin="round" stroke-width="0.05"/>
  </g>
  <defs>
    <linearGradient gradientTransform="matrix(0.0051, -0.0038, 0.0081, 0.0109, 4.5, -1.15)" gradientUnits="userSpaceOnUse" id="gradient0" spreadMethod="pad" x1="-819.2" x2="819.2">
      <stop offset="0.0" stop-color="#a51616"/>
      <stop offset="0.8274509803921568" stop-color="#720101"/>
      <stop offset="1.0" stop-color="#410101"/>
    </linearGradient>
    <linearGradient gradientTransform="matrix(-0.0034, 0.0015, -0.006, -0.0136, -9.6, 1.4)" gradientUnits="userSpaceOnUse" id="gradient1" spreadMethod="pad" x1="-819.2" x2="819.2">
      <stop offset="0.0" stop-color="#a51616"/>
      <stop offset="0.8274509803921568" stop-color="#720101"/>
      <stop offset="1.0" stop-color="#410101"/>
    </linearGradient>
    <linearGradient gradientTransform="matrix(0.0024, 0.014, -0.0086, 0.0015, 24.1, -5.95)" gradientUnits="userSpaceOnUse" id="gradient2" spreadMethod="pad" x1="-819.2" x2="819.2">
      <stop offset="0.0" stop-color="#876636"/>
      <stop offset="0.5137254901960784" stop-color="#e7bf21"/>
      <stop offset="1.0" stop-color="#564036"/>
    </linearGradient>
  </defs>
</svg>
