<?xml version="1.0" encoding="UTF-8" standalone="no"?>
<svg xmlns:xlink="http://www.w3.org/1999/xlink" height="13.2px" width="5.6px" xmlns="http://www.w3.org/2000/svg">
  <g transform="matrix(1.0, 0.0, 0.0, 1.0, 0.0, 0.0)">
    <path d="M5.25 2.45 L5.5 3.4 5.65 5.2 5.6 6.5 5.35 9.55 5.25 10.45 5.05 11.65 4.55 13.95 4.0 15.05 3.85 15.15 0.9 14.95 0.25 10.35 0.05 6.45 Q0.0 4.1 0.3 2.15 L1.0 2.35 1.9 2.65 3.1 2.7 Q3.5 2.95 4.45 2.45 L5.25 2.45" fill="#74745b" fill-rule="evenodd" stroke="none"/>
    <path d="M0.3 2.15 Q0.0 4.1 0.05 6.45 L0.25 10.35 0.9 14.95 3.85 15.15 4.0 15.05 4.55 13.95 5.05 11.65 5.25 10.45 5.35 9.55 5.6 6.5 5.65 5.2 5.5 3.4 5.25 2.45" fill="none" stroke="#000000" stroke-linecap="round" stroke-linejoin="round" stroke-width="0.05"/>
  </g>
</svg>
