<?xml version="1.0" encoding="UTF-8" standalone="no"?>
<svg xmlns:xlink="http://www.w3.org/1999/xlink" height="15.9px" width="7.0px" xmlns="http://www.w3.org/2000/svg">
  <g transform="matrix(1.0, 0.0, 0.0, 1.0, 0.0, 0.0)">
    <path d="M0.7 15.1 Q1.0 11.8 0.75 9.7 L0.0 5.4 -0.5 5.05 -0.7 0.55 Q-0.7 -0.1 0.0 -0.5 2.5 -1.05 4.8 -0.5 5.75 0.9 5.9 1.95 L6.3 4.75 5.55 4.95 4.85 5.25 4.55 9.95 3.85 14.85 0.7 15.1 M4.5 5.2 L4.05 5.4 3.65 5.6 2.3 5.75 0.45 5.45 2.3 5.75 3.65 5.6 4.05 5.4 4.5 5.2" fill="url(#gradient0)" fill-rule="evenodd" stroke="none"/>
    <path d="M0.7 15.1 Q1.0 11.8 0.75 9.7 L0.0 5.4 -0.5 5.05 -0.7 0.55 Q-0.7 -0.1 0.0 -0.5 2.5 -1.05 4.8 -0.5 5.75 0.9 5.9 1.95 L6.3 4.75 5.55 4.95 4.85 5.25 4.55 9.95 3.85 14.85 M0.45 5.45 L2.3 5.75 3.65 5.6 4.05 5.4 4.5 5.2" fill="none" stroke="#000000" stroke-linecap="round" stroke-linejoin="round" stroke-width="0.05"/>
  </g>
  <defs>
    <linearGradient gradientTransform="matrix(4.0E-4, -0.0123, 0.0097, 3.0E-4, 3.2, 7.35)" gradientUnits="userSpaceOnUse" id="gradient0" spreadMethod="pad" x1="-819.2" x2="819.2">
      <stop offset="0.0" stop-color="#846143"/>
      <stop offset="0.36470588235294116" stop-color="#7f5c3e"/>
      <stop offset="0.7490196078431373" stop-color="#593726"/>
      <stop offset="1.0" stop-color="#1e110d"/>
    </linearGradient>
  </defs>
</svg>
