<?xml version="1.0" encoding="UTF-8" standalone="no"?>
<svg xmlns:xlink="http://www.w3.org/1999/xlink" height="11.85px" width="9.1px" xmlns="http://www.w3.org/2000/svg">
  <g transform="matrix(1.0, 0.0, 0.0, 1.0, 0.0, 0.0)">
    <path d="M0.85 -0.7 L1.05 -0.95 2.55 -3.3 2.75 -3.95 Q2.95 -4.8 3.6 -4.95 4.0 -4.4 3.8 -3.4 3.65 -2.4 4.3 -1.6 L4.35 -1.5 4.7 -0.5 4.85 0.0 Q5.25 1.65 4.65 3.35 4.35 4.2 3.45 4.65 L3.45 4.85 Q3.85 5.75 3.35 6.25 3.85 5.75 3.45 4.85 L3.45 4.65 Q4.35 4.2 4.65 3.35 5.25 1.65 4.85 0.0 L4.7 -0.5 4.35 -1.5 4.3 -1.6 Q4.5 -2.55 5.35 -3.2 5.95 -3.7 6.65 -3.7 6.25 -2.5 6.45 -1.45 L6.55 -0.8 Q6.9 0.0 6.75 1.0 6.65 1.95 6.15 2.9 L5.25 4.55 6.15 2.9 Q6.65 1.95 6.75 1.0 6.9 0.0 6.55 -0.8 L7.75 -1.75 8.05 0.0 Q8.45 1.3 8.05 2.55 7.65 3.8 6.35 4.5 L6.25 4.65 6.25 4.8 6.35 5.1 6.2 5.35 Q5.95 5.85 5.35 5.95 L5.2 6.3 5.15 6.55 4.4 6.9 3.8 6.75 3.35 6.25 2.85 6.6 2.4 6.6 Q1.55 6.1 1.3 5.3 L1.2 5.05 Q0.75 4.1 -0.05 3.5 L-0.75 2.8 -0.85 2.45 -0.8 2.2 -0.8 2.05 0.7 -0.3 0.85 -0.7 2.0 -0.3 0.85 -0.7 M1.75 -0.95 L2.4 -0.75 1.75 -0.95 M1.35 0.15 L0.7 -0.3 1.35 0.15 M5.4 5.25 L5.35 5.95 5.4 5.25 Q6.1 5.25 5.65 4.75 L5.25 4.55 5.3 5.0 5.4 5.25 M3.45 3.7 L3.65 3.55 4.45 2.55 Q4.6 1.9 4.4 1.15 L4.0 -0.35 3.5 -2.2 3.35 -3.55 3.5 -2.2 4.0 -0.35 4.4 1.15 Q4.6 1.9 4.45 2.55 L3.65 3.55 3.45 3.7 M5.85 0.95 L6.15 1.0 6.3 1.15 6.25 0.85 5.9 -0.9 Q5.6 -1.8 6.0 -2.8 5.6 -1.8 5.9 -0.9 L6.25 0.85 6.3 1.15 Q6.3 2.25 5.8 2.95 L5.25 3.7 5.8 2.95 Q6.3 2.25 6.3 1.15 L6.15 1.0 5.85 0.95 M6.4 3.95 L7.15 3.4 7.9 2.3 Q8.05 1.45 7.8 0.5 L7.5 -0.65 7.8 0.5 Q8.05 1.45 7.9 2.3 L7.15 3.4 6.4 3.95 M0.05 2.85 L0.6 3.4 Q1.25 4.1 2.3 4.0 1.25 4.1 0.6 3.4 L0.05 2.85 M3.65 2.5 L4.45 2.55 3.65 2.5 M4.25 5.35 L4.15 5.35 Q3.75 5.5 3.9 5.85 L4.15 6.05 4.55 6.05 Q4.9 5.3 4.25 5.35 M2.25 5.75 L2.5 5.85 2.8 5.75 2.9 5.45 2.8 5.2 Q2.65 5.05 2.5 5.05 2.35 5.05 2.25 5.2 L2.1 5.45 2.25 5.75" fill="url(#gradient0)" fill-rule="evenodd" stroke="none"/>
    <path d="M5.4 5.25 L5.3 5.0 5.25 4.55 5.65 4.75 Q6.1 5.25 5.4 5.25 M2.25 5.75 L2.1 5.45 2.25 5.2 Q2.35 5.05 2.5 5.05 2.65 5.05 2.8 5.2 L2.9 5.45 2.8 5.75 2.5 5.85 2.25 5.75 M4.25 5.35 Q4.9 5.3 4.55 6.05 L4.15 6.05 3.9 5.85 Q3.75 5.5 4.15 5.35 L4.25 5.35" fill="#333333" fill-rule="evenodd" stroke="none"/>
    <path d="M4.3 -1.6 Q3.65 -2.4 3.8 -3.4 4.0 -4.4 3.6 -4.95 2.95 -4.8 2.75 -3.95 L2.55 -3.3 1.05 -0.95 0.85 -0.7 2.0 -0.3 M0.85 -0.7 L0.7 -0.3 1.35 0.15 M2.4 -0.75 L1.75 -0.95 M4.3 -1.6 L4.35 -1.5 4.7 -0.5 4.85 0.0 Q5.25 1.65 4.65 3.35 4.35 4.2 3.45 4.65 L3.45 4.85 Q3.85 5.75 3.35 6.25 L3.8 6.75 4.4 6.9 5.15 6.55 5.2 6.3 5.35 5.95 5.4 5.25 5.3 5.0 5.25 4.55 6.15 2.9 Q6.65 1.95 6.75 1.0 6.9 0.0 6.55 -0.8 L6.45 -1.45 Q6.25 -2.5 6.65 -3.7 5.95 -3.7 5.35 -3.2 4.5 -2.55 4.3 -1.6 M3.35 -3.55 L3.5 -2.2 4.0 -0.35 4.4 1.15 Q4.6 1.9 4.45 2.55 L3.65 3.55 3.45 3.7 M5.35 5.95 Q5.95 5.85 6.2 5.35 L6.35 5.1 6.25 4.8 6.25 4.65 6.35 4.5 Q7.65 3.8 8.05 2.55 8.45 1.3 8.05 0.0 L7.75 -1.75 6.55 -0.8 M6.0 -2.8 Q5.6 -1.8 5.9 -0.9 L6.25 0.85 6.3 1.15 Q6.3 2.25 5.8 2.95 L5.25 3.7 M7.5 -0.65 L7.8 0.5 Q8.05 1.45 7.9 2.3 L7.15 3.4 6.4 3.95 M6.3 1.15 L6.15 1.0 5.85 0.95 M5.4 5.25 Q6.1 5.25 5.65 4.75 L5.25 4.55 M4.45 2.55 L3.65 2.5 M2.3 4.0 Q1.25 4.1 0.6 3.4 L0.05 2.85 M0.7 -0.3 L-0.8 2.05 -0.8 2.2 -0.85 2.45 -0.75 2.8 -0.05 3.5 Q0.75 4.1 1.2 5.05 L1.3 5.3 Q1.55 6.1 2.4 6.6 L2.85 6.6 3.35 6.25 M2.25 5.75 L2.1 5.45 2.25 5.2 Q2.35 5.05 2.5 5.05 2.65 5.05 2.8 5.2 L2.9 5.45 2.8 5.75 2.5 5.85 2.25 5.75 M4.25 5.35 Q4.9 5.3 4.55 6.05 L4.15 6.05 3.9 5.85 Q3.75 5.5 4.15 5.35 L4.25 5.35 Z" fill="none" stroke="#000000" stroke-linecap="round" stroke-linejoin="round" stroke-width="0.05"/>
  </g>
  <defs>
    <radialGradient cx="0" cy="0" gradientTransform="matrix(0.0081, 0.0, 0.0, 0.0081, 1.85, 0.3)" gradientUnits="userSpaceOnUse" id="gradient0" r="819.2" spreadMethod="pad">
      <stop offset="0.0" stop-color="#855c36"/>
      <stop offset="1.0" stop-color="#52291b"/>
    </radialGradient>
  </defs>
</svg>
