<?xml version="1.0" encoding="UTF-8" standalone="no"?>
<svg xmlns:xlink="http://www.w3.org/1999/xlink" height="6.1px" width="6.7px" xmlns="http://www.w3.org/2000/svg">
  <g transform="matrix(1.0, 0.0, 0.0, 1.0, 0.0, 0.0)">
    <path d="M5.6 -0.3 L6.6 -0.35 Q9.0 -0.45 10.6 1.3 L10.6 4.1 9.8 4.6 Q9.05 5.15 7.4 5.35 L7.2 4.45 6.9 4.0 7.25 3.95 Q6.4 2.7 4.3 1.4 L4.2 1.35 3.9 -0.45 5.6 -0.3 5.9 0.25 5.6 -0.3 M9.15 3.1 L8.25 3.55 7.25 3.95 8.25 3.55 9.15 3.1 M6.05 4.1 L5.65 4.1 6.25 5.5 3.95 5.35 3.95 5.1 Q3.85 4.95 4.1 2.5 L6.05 4.1 M5.3 3.95 L5.65 4.1 5.3 3.95" fill="#ffcc99" fill-rule="evenodd" stroke="none"/>
    <path d="M4.2 1.35 L4.3 1.4 Q6.4 2.7 7.25 3.95 L6.9 4.0 7.2 4.45 7.4 5.35 6.25 5.5 5.65 4.1 6.05 4.1 6.9 4.0 6.05 4.1 4.1 2.5 4.2 1.35" fill="#4a3623" fill-rule="evenodd" stroke="none"/>
    <path d="M10.6 1.3 Q9.0 -0.45 6.6 -0.35 L5.6 -0.3 5.9 0.25 M5.6 -0.3 L3.9 -0.45 M4.2 1.35 L4.3 1.4 Q6.4 2.7 7.25 3.95 L8.25 3.55 9.15 3.1 M6.9 4.0 L7.25 3.95 M7.4 5.35 L7.2 4.45 6.9 4.0 6.05 4.1 5.65 4.1 6.25 5.5 7.4 5.35 Q9.05 5.15 9.8 4.6 L10.6 4.1 M5.65 4.1 L5.3 3.95 M3.95 5.35 L6.25 5.5 M4.1 2.5 L6.05 4.1" fill="none" stroke="#000000" stroke-linecap="round" stroke-linejoin="round" stroke-width="0.05"/>
  </g>
</svg>
