<?xml version="1.0" encoding="UTF-8" standalone="no"?>
<svg xmlns:xlink="http://www.w3.org/1999/xlink" height="20.7px" width="13.15px" xmlns="http://www.w3.org/2000/svg">
  <g transform="matrix(1.0, 0.0, 0.0, 1.0, 0.0, 0.0)">
    <path d="M-0.75 2.9 L0.15 1.25 Q0.35 0.85 0.7 0.55 1.1 0.2 1.6 -0.05 L3.15 -0.65 4.6 -1.0 6.3 -1.35 7.65 -1.25 8.8 -0.7 10.6 0.05 11.15 0.45 10.8 1.65 10.35 2.3 9.4 3.25 8.2 4.1 7.15 4.7 5.3 5.2 3.5 5.5 2.25 5.45 0.55 4.85 -0.15 4.35 -0.7 3.25 -0.75 2.9 M10.6 11.75 L9.3 11.85 9.45 11.4 10.6 11.75 M9.45 12.95 L9.45 13.0 10.0 14.55 9.9 14.95 9.1 15.15 7.2 15.3 5.6 15.3 3.95 14.95 4.05 15.4 3.95 15.9 Q3.9 17.15 4.35 18.4 L4.3 18.45 Q3.65 18.9 2.6 19.05 L1.95 18.1 1.75 17.5 1.7 15.75 1.75 14.45 1.15 14.25 1.0 13.7 1.05 13.6 1.5 13.75 Q3.85 14.6 6.25 14.65 L9.55 14.35 Q9.55 13.8 9.1 13.4 9.2 14.25 8.45 14.0 L8.4 13.95 7.85 13.45 8.4 13.95 8.45 14.0 Q9.2 14.25 9.1 13.4 9.55 13.8 9.55 14.35 L6.25 14.65 Q3.85 14.6 1.5 13.75 L1.05 13.6 1.05 13.55 1.0 13.45 1.1 12.95 1.35 12.75 4.1 13.25 4.1 13.95 4.1 13.25 9.45 12.95 M1.35 11.8 L-0.35 12.05 -0.15 11.8 0.45 11.4 0.75 11.35 1.05 11.1 1.35 11.8 M9.75 1.3 L10.5 0.3 10.6 0.05 10.5 0.3 9.75 1.3 M3.6 -0.15 L6.6 -0.05 5.35 0.4 4.0 0.5 2.75 0.2 4.0 0.5 5.35 0.4 6.6 -0.05 3.6 -0.15 M1.5 2.35 Q0.95 1.5 0.7 0.65 L0.7 0.55 0.7 0.65 Q0.95 1.5 1.5 2.35 M9.8 0.15 L8.8 1.25 8.1 1.8 6.45 2.45 8.1 1.8 8.8 1.25 9.8 0.15 M5.65 13.75 L5.55 14.05 5.05 14.2 5.55 14.05 5.65 13.75 M7.25 14.2 L7.15 13.95 Q6.8 13.45 6.1 13.5 6.8 13.45 7.15 13.95 L7.25 14.2 M3.0 13.65 Q3.25 13.4 2.75 13.35 3.25 13.4 3.0 13.65 M4.45 14.05 L4.4 13.55 4.45 14.05 M1.75 14.45 L3.95 14.95 1.75 14.45 M3.55 17.1 Q3.05 17.1 2.8 17.5 L2.7 17.5 Q2.25 17.15 1.75 17.5 2.25 17.15 2.7 17.5 L2.8 17.5 Q3.05 17.1 3.55 17.1 M3.6 15.6 L3.0 15.8 2.75 16.0 Q2.15 15.55 1.7 15.75 2.15 15.55 2.75 16.0 L3.0 15.8 3.6 15.6" fill="#663300" fill-rule="evenodd" stroke="none"/>
    <path d="M11.15 0.45 L11.8 1.05 11.9 1.4 11.95 2.7 11.9 4.45 11.55 6.35 11.1 8.1 10.7 9.95 10.6 11.75 9.45 11.4 8.05 11.3 7.75 10.15 8.1 9.35 7.95 8.15 8.35 7.55 Q8.25 6.9 8.45 6.2 L8.2 5.65 Q8.4 4.85 8.2 4.1 L9.4 3.25 10.35 2.3 10.8 1.65 11.15 0.45 M9.9 14.95 Q10.95 15.35 10.8 16.35 L10.65 16.5 10.6 17.15 10.45 17.5 10.05 17.8 9.65 17.8 7.7 17.6 Q6.8 17.3 6.15 16.85 L4.55 15.8 4.35 15.65 4.05 15.4 4.35 15.65 Q4.2 16.5 4.55 17.35 L4.85 18.65 Q4.3 19.3 3.25 19.3 L2.6 19.05 Q3.65 18.9 4.3 18.45 L4.35 18.4 Q3.9 17.15 3.95 15.9 L4.05 15.4 3.95 14.95 5.6 15.3 7.2 15.3 9.1 15.15 9.9 14.95 M-0.35 12.05 L-0.65 11.25 -1.05 9.5 -1.2 7.8 -1.15 6.15 -1.0 4.8 -0.75 2.9 -0.7 3.25 -0.15 4.35 -0.65 5.0 -0.55 5.65 -0.9 6.05 -0.65 6.85 -0.8 7.25 -0.8 7.55 -0.7 8.5 -0.2 9.0 -0.1 10.65 0.3 10.95 0.45 11.4 -0.15 11.8 -0.35 12.05 M6.05 15.9 L8.45 16.3 6.05 15.9 M9.45 16.35 L10.65 16.5 9.45 16.35" fill="#7a4900" fill-rule="evenodd" stroke="none"/>
    <path d="M-0.15 4.35 L0.55 4.85 0.3 6.1 0.3 7.0 0.45 8.35 0.5 8.95 0.95 10.8 1.05 11.1 0.75 11.35 0.45 11.4 0.3 10.95 -0.1 10.65 -0.2 9.0 -0.7 8.5 -0.8 7.55 -0.8 7.25 -0.65 6.85 -0.9 6.05 -0.55 5.65 -0.65 5.0 -0.15 4.35 M7.15 4.7 L8.2 4.1 Q8.4 4.85 8.2 5.65 L8.45 6.2 Q8.25 6.9 8.35 7.55 L7.95 8.15 8.1 9.35 7.75 10.15 8.05 11.3 8.0 11.55 7.45 11.65 7.25 11.6 6.75 11.65 6.6 10.65 6.8 8.05 6.9 7.4 7.35 5.25 7.15 4.7" fill="#ab976b" fill-rule="evenodd" stroke="none"/>
    <path d="M9.3 11.85 L9.25 12.3 9.45 12.95 4.1 13.25 1.35 12.75 1.45 12.4 1.4 12.4 1.4 12.3 1.4 12.2 1.35 11.8 1.05 11.1 0.95 10.8 0.5 8.95 0.45 8.35 0.3 7.0 0.3 6.1 0.55 4.85 2.25 5.45 3.5 5.5 5.3 5.2 7.15 4.7 7.35 5.25 6.9 7.4 6.8 8.05 6.6 10.65 6.75 11.65 7.25 11.6 7.45 11.65 8.0 11.55 8.05 11.3 9.45 11.4 9.3 11.85 M6.1 11.7 L5.95 10.6 5.65 9.05 4.3 8.5 2.9 8.45 1.1 8.7 0.65 9.4 1.1 8.7 2.9 8.45 4.3 8.5 5.65 9.05 5.95 10.6 6.1 11.7 M1.45 8.0 L0.7 8.25 0.45 8.35 0.7 8.25 1.45 8.0 M1.8 12.4 L1.5 11.4 1.1 10.4 0.65 9.4 0.5 8.95 0.65 9.4 1.1 10.4 1.5 11.4 1.8 12.4 M2.85 7.35 L2.45 7.0 2.1 7.35 2.45 7.0 2.85 7.35 M4.7 10.6 L3.2 10.35 2.9 9.35 3.2 10.35 4.7 10.6 M1.7 10.55 L3.2 10.35 3.3 11.6 3.2 10.35 1.7 10.55 M4.9 7.35 L6.9 7.4 4.9 7.35 M6.3 8.7 L6.6 10.65 6.3 8.7 M7.65 12.4 L7.45 11.65 7.65 12.4 M4.3 7.95 L6.8 8.05 4.3 7.95 M1.45 12.4 L1.4 12.3 1.45 12.4" fill="url(#gradient0)" fill-rule="evenodd" stroke="none"/>
    <path d="M9.65 17.8 L9.3 18.3 7.8 18.6 6.8 18.65 4.85 18.65 4.55 17.35 Q4.2 16.5 4.35 15.65 L4.55 15.8 6.15 16.85 Q6.8 17.3 7.7 17.6 L9.65 17.8 M1.95 18.1 Q1.5 17.65 1.4 17.05 L1.15 15.2 1.15 14.25 1.75 14.45 1.7 15.75 1.75 17.5 1.95 18.1" fill="#81814f" fill-rule="evenodd" stroke="none"/>
    <path d="M-0.75 2.9 L0.15 1.25 Q0.35 0.85 0.7 0.55 1.1 0.2 1.6 -0.05 L3.15 -0.65 4.6 -1.0 6.3 -1.35 7.65 -1.25 8.8 -0.7 10.6 0.05 11.15 0.45 11.8 1.05 11.9 1.4 11.95 2.7 11.9 4.45 11.55 6.35 11.1 8.1 10.7 9.95 10.6 11.75 9.3 11.85 9.25 12.3 9.45 12.95 9.45 13.0 10.0 14.55 9.9 14.95 Q10.95 15.35 10.8 16.35 L10.65 16.5 10.6 17.15 10.45 17.5 10.05 17.8 9.65 17.8 9.3 18.3 7.8 18.6 6.8 18.65 4.85 18.65 Q4.3 19.3 3.25 19.3 L2.6 19.05 1.95 18.1 Q1.5 17.65 1.4 17.05 L1.15 15.2 1.15 14.25 1.0 13.7 1.0 13.45 1.1 12.95 1.35 12.75 1.45 12.4 1.4 12.3 1.4 12.2 1.35 11.8 -0.35 12.05 -0.65 11.25 -1.05 9.5 -1.2 7.8 -1.15 6.15 -1.0 4.8 -0.75 2.9 -0.7 3.25 -0.15 4.35 0.55 4.85 2.25 5.45 3.5 5.5 5.3 5.2 7.15 4.7 8.2 4.1 9.4 3.25 10.35 2.3 10.8 1.65 11.15 0.45 M1.4 12.4 L1.4 12.3 M2.75 0.2 L4.0 0.5 5.35 0.4 6.6 -0.05 3.6 -0.15 M10.6 0.05 L10.5 0.3 9.75 1.3 M6.9 7.4 L7.35 5.25 7.15 4.7 M8.2 4.1 Q8.4 4.85 8.2 5.65 L8.45 6.2 Q8.25 6.9 8.35 7.55 L7.95 8.15 8.1 9.35 7.75 10.15 8.05 11.3 9.45 11.4 10.6 11.75 M6.45 2.45 L8.1 1.8 8.8 1.25 9.8 0.15 M0.7 0.55 L0.7 0.65 Q0.95 1.5 1.5 2.35 M0.55 4.85 L0.3 6.1 0.3 7.0 0.45 8.35 0.7 8.25 1.45 8.0 M0.65 9.4 L1.1 8.7 2.9 8.45 4.3 8.5 5.65 9.05 5.95 10.6 6.1 11.7 M0.45 8.35 L0.5 8.95 0.95 10.8 1.05 11.1 1.35 11.8 M2.1 7.35 L2.45 7.0 2.85 7.35 M0.45 11.4 L0.3 10.95 -0.1 10.65 -0.2 9.0 -0.7 8.5 -0.8 7.55 -0.8 7.25 -0.65 6.85 -0.9 6.05 -0.55 5.65 -0.65 5.0 -0.15 4.35 M1.05 11.1 L0.75 11.35 0.45 11.4 -0.15 11.8 -0.35 12.05 M3.3 11.6 L3.2 10.35 1.7 10.55 M2.9 9.35 L3.2 10.35 4.7 10.6 M6.8 8.05 L6.9 7.4 M7.45 11.65 L7.25 11.6 6.75 11.65 M8.05 11.3 L8.0 11.55 7.45 11.65 7.65 12.4 M9.3 11.85 L9.45 11.4 M6.6 10.65 L6.8 8.05 4.3 7.95 M9.9 14.95 L9.1 15.15 7.2 15.3 5.6 15.3 3.95 14.95 4.05 15.4 4.35 15.65 4.55 15.8 6.15 16.85 Q6.8 17.3 7.7 17.6 L9.65 17.8 M7.85 13.45 L8.4 13.95 8.45 14.0 Q9.2 14.25 9.1 13.4 9.55 13.8 9.55 14.35 L6.25 14.65 Q3.85 14.6 1.5 13.75 L1.05 13.6 1.0 13.7 M6.1 13.5 Q6.8 13.45 7.15 13.95 L7.25 14.2 M5.05 14.2 L5.55 14.05 5.65 13.75 M8.45 16.3 L6.05 15.9 M4.4 13.55 L4.45 14.05 M4.1 13.25 L4.1 13.95 M2.75 13.35 Q3.25 13.4 3.0 13.65 M1.05 13.6 L1.05 13.55 1.0 13.45 M1.95 18.1 L1.75 17.5 1.7 15.75 1.75 14.45 1.15 14.25 M4.85 18.65 L4.55 17.35 Q4.2 16.5 4.35 15.65 M4.05 15.4 L3.95 15.9 Q3.9 17.15 4.35 18.4 L4.3 18.45 Q3.65 18.9 2.6 19.05 M1.7 15.75 Q2.15 15.55 2.75 16.0 L3.0 15.8 3.6 15.6 M1.75 17.5 Q2.25 17.15 2.7 17.5 L2.8 17.5 Q3.05 17.1 3.55 17.1 M3.95 14.95 L1.75 14.45 M4.1 13.25 L1.35 12.75 M9.45 12.95 L4.1 13.25 M10.65 16.5 L9.45 16.35" fill="none" stroke="#000000" stroke-linecap="round" stroke-linejoin="round" stroke-width="0.05"/>
    <path d="M0.5 8.95 L0.65 9.4 1.1 10.4 1.5 11.4 1.8 12.4 M6.9 7.4 L4.9 7.35 M6.75 11.65 L6.6 10.65 6.3 8.7" fill="none" stroke="#c4c4a8" stroke-linecap="round" stroke-linejoin="round" stroke-width="0.05"/>
  </g>
  <defs>
    <radialGradient cx="0" cy="0" gradientTransform="matrix(0.0094, 0.0, 0.0, 0.0117, 3.6, 6.25)" gradientUnits="userSpaceOnUse" id="gradient0" r="819.2" spreadMethod="pad">
      <stop offset="0.0" stop-color="#d8d7be"/>
      <stop offset="0.5215686274509804" stop-color="#81814f"/>
      <stop offset="1.0" stop-color="#353520"/>
    </radialGradient>
  </defs>
</svg>
