<?xml version="1.0" encoding="UTF-8" standalone="no"?>
<svg xmlns:xlink="http://www.w3.org/1999/xlink" height="12.35px" width="9.6px" xmlns="http://www.w3.org/2000/svg">
  <g transform="matrix(1.0, 0.0, 0.0, 1.0, 0.0, 0.0)">
    <path d="M6.8 4.75 L7.45 4.3 Q8.4 4.45 8.45 5.5 L8.45 5.85 8.45 5.5 Q8.4 4.45 7.45 4.3 L6.8 4.75 M3.85 11.1 L2.4 11.3 Q1.4 11.25 1.15 10.7 0.85 10.15 0.95 9.3 L0.95 8.1 0.05 7.75 Q-0.1 6.15 0.9 5.1 L0.85 4.25 0.85 3.85 Q0.75 3.15 0.95 2.6 L1.25 1.45 Q1.3 0.85 2.95 0.3 L6.15 0.15 7.1 0.55 8.3 1.35 Q9.6 2.6 9.65 4.4 9.65 5.6 8.45 5.85 L8.15 6.55 7.7 6.9 7.6 6.95 Q7.3 7.6 7.3 8.3 L7.2 9.4 6.8 10.2 Q6.3 10.6 3.85 11.1 6.3 10.6 6.8 10.2 L7.2 9.4 7.3 8.3 Q7.3 7.6 7.6 6.95 L7.7 6.9 8.15 6.55 8.2 6.7 8.65 11.35 8.15 11.8 Q6.1 12.75 4.4 12.1 3.95 11.65 3.85 11.1 M2.5 5.0 L2.35 5.05 1.8 5.25 2.35 5.05 2.45 5.45 2.85 6.1 3.85 5.95 4.1 5.45 4.0 4.95 2.55 4.95 2.5 5.0 M5.0 4.95 L4.0 4.95 5.0 4.95" fill="#ffcc99" fill-rule="evenodd" stroke="none"/>
    <path d="M2.35 5.05 L2.45 5.05 2.5 5.0 2.55 4.95 4.0 4.95 4.1 5.45 3.85 5.95 2.85 6.1 2.45 5.45 2.35 5.05" fill="#00cc00" fill-rule="evenodd" stroke="none"/>
    <path d="M2.35 5.05 L2.5 5.0 2.45 5.05 2.35 5.05" fill="#663300" fill-rule="evenodd" stroke="none"/>
    <path d="M8.45 5.85 L8.45 5.5 Q8.4 4.45 7.45 4.3 L6.8 4.75 M8.15 6.55 L8.45 5.85 Q9.65 5.6 9.65 4.4 9.6 2.6 8.3 1.35 L7.1 0.55 6.15 0.15 2.95 0.3 Q1.3 0.85 1.25 1.45 L0.95 2.6 Q0.75 3.15 0.85 3.85 L0.85 4.25 0.9 5.1 Q-0.1 6.15 0.05 7.75 L0.95 8.1 0.95 9.3 Q0.85 10.15 1.15 10.7 1.4 11.25 2.4 11.3 L3.85 11.1 Q6.3 10.6 6.8 10.2 L7.2 9.4 7.3 8.3 Q7.3 7.6 7.6 6.95 L7.7 6.9 8.15 6.55 8.2 6.7 8.65 11.35 8.15 11.8 Q6.1 12.75 4.4 12.1 3.95 11.65 3.85 11.1 M2.5 5.0 L2.35 5.05 2.45 5.05 2.5 5.0 2.55 4.95 4.0 4.95 5.0 4.95 M2.35 5.05 L1.8 5.25 M4.0 4.95 L4.1 5.45 3.85 5.95 2.85 6.1 2.45 5.45 2.35 5.05" fill="none" stroke="#000000" stroke-linecap="round" stroke-linejoin="round" stroke-width="0.05"/>
  </g>
</svg>
