<?xml version="1.0" encoding="UTF-8" standalone="no"?>
<svg xmlns:xlink="http://www.w3.org/1999/xlink" height="21.45px" width="66.75px" xmlns="http://www.w3.org/2000/svg">
  <g transform="matrix(1.0, 0.0, 0.0, 1.0, 0.0, 0.0)">
    <path d="M66.75 16.05 L66.65 17.4 63.65 18.1 63.7 17.6 63.95 14.9 63.6 14.5 63.95 14.9 63.7 17.6 63.65 18.1 63.4 18.95 60.95 19.5 57.6 19.15 53.4 19.2 48.1 18.8 48.6 17.25 48.55 16.7 46.75 15.85 46.25 15.7 43.4 15.65 40.3 15.15 55.9 14.45 63.2 14.1 63.6 14.5 66.35 14.45 66.75 16.05 65.1 16.35 66.75 16.05 M12.6 20.5 L7.5 20.6 6.7 19.9 Q4.5 18.25 1.85 18.45 L0.0 18.7 0.8 17.5 Q2.15 15.7 4.15 14.85 L4.8 15.0 7.65 15.8 9.7 15.9 12.15 15.65 12.8 15.7 Q13.9 17.55 13.45 19.6 L12.6 20.5 M56.05 17.4 L56.1 16.0 55.9 14.45 56.1 16.0 56.05 17.4 48.6 17.25 56.05 17.4 55.45 18.8 56.05 17.4 63.7 17.6 56.05 17.4" fill="url(#gradient0)" fill-rule="evenodd" stroke="none"/>
    <path d="M48.1 18.8 L46.3 19.25 42.75 19.85 37.8 20.8 32.95 21.35 28.4 21.45 24.3 21.45 22.2 21.45 21.35 20.6 22.6 20.6 23.95 20.6 27.6 20.5 32.9 20.65 Q35.55 20.65 37.9 19.65 41.25 18.55 44.75 18.8 45.55 19.1 46.1 18.45 L46.25 17.95 Q46.5 17.0 46.25 15.7 46.5 17.0 46.25 17.95 L46.1 18.45 Q45.55 19.1 44.75 18.8 41.25 18.55 37.9 19.65 35.55 20.65 32.9 20.65 L27.6 20.5 23.95 20.6 22.6 20.6 22.2 21.45 22.6 20.6 21.35 20.6 19.9 19.2 17.75 20.5 Q15.75 21.4 13.8 21.25 13.05 21.1 12.6 20.5 L13.45 19.6 Q13.9 17.55 12.8 15.7 L12.15 15.65 Q12.8 13.6 15.0 13.1 L15.55 13.05 15.55 7.3 Q15.6 5.2 17.0 3.55 L20.45 0.0 19.05 6.85 Q18.45 9.9 19.0 13.0 L22.75 12.95 23.15 10.25 23.15 10.3 25.1 10.3 26.0 11.25 Q26.25 11.55 26.3 12.85 L31.0 12.9 Q31.05 10.25 33.1 8.75 L34.2 7.9 33.5 12.95 34.8 12.95 39.75 14.95 40.3 15.15 43.4 15.65 46.25 15.7 46.75 15.85 48.55 16.7 48.6 17.25 48.1 18.8 M44.15 15.9 L44.15 17.35 44.15 15.9 M26.3 12.85 L22.75 12.95 26.3 12.85 M25.75 19.3 L26.7 17.3 Q28.9 17.0 30.8 16.1 31.85 15.55 32.6 14.6 L32.75 12.95 33.5 12.95 32.75 12.95 32.6 14.6 Q31.85 15.55 30.8 16.1 28.9 17.0 26.7 17.3 L25.75 19.3 M22.5 18.7 L22.75 19.2 Q23.15 20.0 22.6 20.6 23.15 20.0 22.75 19.2 L22.5 18.7 M37.9 19.65 L37.95 18.3 Q38.25 18.0 38.75 17.85 L39.65 17.95 39.75 14.95 39.65 17.95 38.75 17.85 Q38.25 18.0 37.95 18.3 L37.9 19.65 M32.75 12.95 L31.0 12.9 32.75 12.95 M34.2 15.5 L34.95 13.45 34.8 12.95 34.95 13.45 34.2 15.5 M24.85 12.55 L25.1 10.3 24.85 12.55 M32.6 12.55 L33.2 9.9 32.6 12.55 M19.0 13.0 L15.55 13.05 19.0 13.0 M13.9 20.3 L17.75 20.5 13.9 20.3 M20.05 18.1 L19.9 19.2 20.05 18.1 M17.4 12.55 L17.4 5.35 17.4 12.55" fill="url(#gradient1)" fill-rule="evenodd" stroke="none"/>
    <path d="M21.35 20.6 L17.75 20.5 19.9 19.2 21.35 20.6" fill="#000000" fill-rule="evenodd" stroke="none"/>
    <path d="M63.65 18.1 L66.65 17.4 66.75 16.05 65.1 16.35 M66.75 16.05 L66.35 14.45 63.6 14.5 63.95 14.9 63.7 17.6 63.65 18.1 63.4 18.95 60.95 19.5 57.6 19.15 53.4 19.2 48.1 18.8 46.3 19.25 42.75 19.85 37.8 20.8 32.95 21.35 28.4 21.45 24.3 21.45 22.2 21.45 M17.75 20.5 Q15.75 21.4 13.8 21.25 13.05 21.1 12.6 20.5 L7.5 20.6 6.7 19.9 Q4.5 18.25 1.85 18.45 L0.0 18.7 0.8 17.5 Q2.15 15.7 4.15 14.85 L4.8 15.0 7.65 15.8 9.7 15.9 12.15 15.65 Q12.8 13.6 15.0 13.1 L15.55 13.05 15.55 7.3 Q15.6 5.2 17.0 3.55 L20.45 0.0 19.05 6.85 Q18.45 9.9 19.0 13.0 L22.75 12.95 23.15 10.25 23.15 10.3 25.1 10.3 M26.0 11.25 Q26.25 11.55 26.3 12.85 L31.0 12.9 Q31.05 10.25 33.1 8.75 L34.2 7.9 33.5 12.95 34.8 12.95 39.75 14.95 40.3 15.15 55.9 14.45 63.2 14.1 63.6 14.5 M48.1 18.8 L48.6 17.25 48.55 16.7 46.75 15.85 46.25 15.7 43.4 15.65 40.3 15.15 M56.05 17.4 L63.7 17.6 M48.6 17.25 L56.05 17.4 M22.6 20.6 Q23.15 20.0 22.75 19.2 L22.5 18.7 M33.5 12.95 L32.75 12.95 32.6 14.6 Q31.85 15.55 30.8 16.1 28.9 17.0 26.7 17.3 L25.75 19.3 M22.75 12.95 L26.3 12.85 M34.8 12.95 L34.95 13.45 34.2 15.5 M31.0 12.9 L32.75 12.95 M15.55 13.05 L19.0 13.0 M12.6 20.5 L13.45 19.6 Q13.9 17.55 12.8 15.7 L12.15 15.65 M19.9 19.2 L17.75 20.5 M19.9 19.2 L20.05 18.1" fill="none" stroke="#000000" stroke-linecap="round" stroke-linejoin="round" stroke-width="0.05"/>
    <path d="M22.2 21.45 L21.35 20.6 22.6 20.6 22.2 21.45 M46.25 15.7 Q46.5 17.0 46.25 17.95 L46.1 18.45 Q45.55 19.1 44.75 18.8 41.25 18.55 37.9 19.65 35.55 20.65 32.9 20.65 L27.6 20.5 23.95 20.6 22.6 20.6 M44.15 17.35 L44.15 15.9 M56.05 17.4 L55.45 18.8 M55.9 14.45 L56.1 16.0 56.05 17.4 M39.75 14.95 L39.65 17.95 38.75 17.85 Q38.25 18.0 37.95 18.3 L37.9 19.65 M33.2 9.9 L32.6 12.55 M25.1 10.3 L24.85 12.55 M17.75 20.5 L13.9 20.3 M17.4 5.35 L17.4 12.55 M21.35 20.6 L19.9 19.2" fill="none" stroke="#8e00e2" stroke-linecap="round" stroke-linejoin="round" stroke-width="0.05"/>
  </g>
  <defs>
    <linearGradient gradientTransform="matrix(1.0E-4, 0.0036, -0.0035, 1.0E-4, 7.6, 16.6)" gradientUnits="userSpaceOnUse" id="gradient0" spreadMethod="pad" x1="-819.2" x2="819.2">
      <stop offset="0.0" stop-color="#564036"/>
      <stop offset="0.5137254901960784" stop-color="#a38a6d"/>
      <stop offset="1.0" stop-color="#564036"/>
    </linearGradient>
    <radialGradient cx="0" cy="0" gradientTransform="matrix(0.031, 0.0, 0.0, 0.0241, 23.95, 11.95)" gradientUnits="userSpaceOnUse" id="gradient1" r="819.2" spreadMethod="pad">
      <stop offset="0.0" stop-color="#363443"/>
      <stop offset="0.8274509803921568" stop-color="#282d22"/>
      <stop offset="1.0" stop-color="#1e1e1e"/>
    </radialGradient>
  </defs>
</svg>
