<?xml version="1.0" encoding="UTF-8" standalone="no"?>
<svg xmlns:xlink="http://www.w3.org/1999/xlink" height="40.25px" width="50.25px" xmlns="http://www.w3.org/2000/svg">
  <g transform="matrix(1.0, 0.0, 0.0, 1.0, 0.0, 0.0)">
    <path d="M41.95 11.8 L42.25 11.35 Q43.4 9.95 44.8 9.65 46.15 9.3 47.75 10.05 46.15 9.3 44.8 9.65 L43.0 7.9 Q41.55 6.2 39.45 5.4 L36.1 3.75 Q35.45 3.35 34.45 3.1 L32.95 2.8 29.35 2.5 25.5 3.1 Q23.8 3.5 22.2 4.3 21.2 4.8 20.45 5.65 L19.2 7.15 17.9 5.25 18.75 4.45 Q21.5 2.1 25.05 1.05 L26.95 0.55 32.95 0.0 33.8 0.1 Q37.85 1.2 41.35 3.45 L47.6 8.0 47.75 10.05 47.8 10.05 Q50.35 11.25 50.25 14.1 50.2 14.9 49.75 15.45 L47.7 17.95 Q47.35 15.2 45.8 13.5 44.2 11.8 41.95 11.8 44.2 11.8 45.8 13.5 47.35 15.2 47.7 17.95 46.1 19.55 44.1 20.7 41.8 22.05 39.3 23.0 L39.55 22.15 Q41.65 18.35 38.2 15.25 L41.95 11.8 M25.9 19.1 L28.7 18.75 Q31.05 18.4 33.2 17.65 35.8 16.75 38.2 15.25 41.65 18.35 39.55 22.15 L39.3 23.0 33.5 24.65 26.35 24.95 25.9 19.1 M39.45 5.4 L41.35 3.45 39.45 5.4 M32.1 2.1 L32.95 0.0 32.1 2.1 M25.5 3.1 L25.05 1.05 25.5 3.1 M33.2 17.65 Q35.05 20.75 33.9 23.75 L33.5 24.65 33.9 23.75 Q35.05 20.75 33.2 17.65" fill="url(#gradient0)" fill-rule="evenodd" stroke="none"/>
    <path d="M19.2 7.15 Q21.7 12.65 25.95 16.7 L25.9 19.1 26.35 24.95 26.25 25.4 26.15 26.35 Q26.45 28.6 24.6 30.0 L23.05 31.25 Q22.2 32.1 21.75 33.2 20.3 36.7 17.8 39.25 17.1 39.95 16.25 39.95 L14.3 38.95 13.35 39.55 Q12.7 39.95 11.95 40.05 10.35 40.45 8.55 40.1 L8.1 38.85 Q7.8 37.1 8.15 35.45 8.75 32.5 8.1 29.3 L8.25 29.15 Q10.4 30.15 12.25 28.55 L13.25 27.7 Q15.2 25.3 17.85 23.6 L18.65 23.2 19.85 22.6 Q17.05 20.9 14.8 18.6 L13.65 17.35 11.8 15.8 Q9.75 14.5 7.3 15.1 7.8 12.25 7.05 9.45 6.45 7.4 6.2 5.35 L9.3 4.8 Q10.45 4.95 11.55 5.6 L12.1 5.4 Q13.2 4.7 14.55 4.4 L17.5 4.75 17.9 5.25 19.2 7.15 M23.85 21.4 Q23.95 19.45 23.1 17.9 21.15 14.4 19.4 10.5 L16.65 9.85 19.4 10.5 Q21.15 14.4 23.1 17.9 23.95 19.45 23.85 21.4 L23.85 24.8 Q21.9 24.7 20.05 25.7 L18.95 26.4 20.05 25.7 Q21.9 24.7 23.85 24.8 L23.85 21.4 21.3 21.7 23.85 21.4 M13.4 37.2 L15.85 37.35 Q18.05 33.35 21.0 30.2 L22.2 28.9 Q23.65 26.95 23.85 24.8 23.65 26.95 22.2 28.9 L21.0 30.2 Q18.05 33.35 15.85 37.35 L13.4 37.2" fill="url(#gradient1)" fill-rule="evenodd" stroke="none"/>
    <path d="M7.2 15.6 L7.3 15.2 7.3 15.1 Q9.75 14.5 11.8 15.8 L13.65 17.35 14.8 18.6 Q17.05 20.9 19.85 22.6 L18.65 23.2 17.85 23.6 Q15.2 25.3 13.25 27.7 L12.25 28.55 Q10.4 30.15 8.25 29.15 9.55 27.6 9.5 25.5 L9.65 21.4 9.65 20.85 Q9.5 19.0 8.7 17.45 L7.55 15.85 7.2 15.6 M14.8 18.6 Q14.1 19.0 14.2 19.4 L15.15 22.5 12.5 23.45 12.1 24.1 13.25 27.7 12.1 24.1 12.5 23.45 15.15 22.5 14.2 19.4 Q14.1 19.0 14.8 18.6 M16.0 22.0 L15.15 22.5 16.0 22.0 M12.8 20.55 L12.2 17.3 12.8 20.55" fill="#000000" fill-rule="evenodd" stroke="none"/>
    <path d="M7.2 15.6 L7.55 15.85 8.7 17.45 Q9.5 19.0 9.65 20.85 L9.65 21.4 9.5 25.5 Q9.55 27.6 8.25 29.15 L8.1 29.3 6.4 29.25 7.85 26.1 7.95 21.65 7.2 18.85 5.5 16.75 5.15 16.75 5.55 16.25 6.0 16.0 6.7 15.65 7.2 15.6 M8.7 17.45 L7.2 18.85 8.7 17.45 M9.65 20.85 L7.95 21.65 9.65 20.85 M8.4 26.1 L7.85 26.1 8.4 26.1" fill="url(#gradient2)" fill-rule="evenodd" stroke="none"/>
    <path d="M5.15 16.75 L5.5 16.75 7.2 18.85 7.95 21.65 7.85 26.1 6.4 29.25 6.05 29.25 Q2.45 29.05 0.85 25.7 0.1 24.1 0.0 22.6 -0.15 20.15 1.6 18.4 3.1 16.85 5.15 16.75" fill="url(#gradient3)" fill-rule="evenodd" stroke="none"/>
    <path d="M44.8 9.65 Q43.4 9.95 42.25 11.35 L41.95 11.8 Q44.2 11.8 45.8 13.5 47.35 15.2 47.7 17.95 L49.75 15.45 Q50.2 14.9 50.25 14.1 50.35 11.25 47.8 10.05 L47.75 10.05 Q46.15 9.3 44.8 9.65 L43.0 7.9 Q41.55 6.2 39.45 5.4 L36.1 3.75 Q35.45 3.35 34.45 3.1 L32.95 2.8 29.35 2.5 25.5 3.1 Q23.8 3.5 22.2 4.3 21.2 4.8 20.45 5.65 L19.2 7.15 Q21.7 12.65 25.95 16.7 L25.9 19.1 28.7 18.75 Q31.05 18.4 33.2 17.65 35.8 16.75 38.2 15.25 L41.95 11.8 M47.75 10.05 L47.6 8.0 41.35 3.45 39.45 5.4 M39.3 23.0 Q41.8 22.05 44.1 20.7 46.1 19.55 47.7 17.95 M32.95 0.0 L32.1 2.1 M41.35 3.45 Q37.85 1.2 33.8 0.1 L32.95 0.0 26.95 0.55 25.05 1.05 25.5 3.1 M18.95 26.4 L20.05 25.7 Q21.9 24.7 23.85 24.8 L23.85 21.4 21.3 21.7 M16.65 9.85 L19.4 10.5 Q21.15 14.4 23.1 17.9 23.95 19.45 23.85 21.4 M33.5 24.65 L33.9 23.75 Q35.05 20.75 33.2 17.65 M39.3 23.0 L39.55 22.15 Q41.65 18.35 38.2 15.25 M33.5 24.65 L39.3 23.0 M17.9 5.25 L19.2 7.15 M7.3 15.1 Q7.8 12.25 7.05 9.45 6.45 7.4 6.2 5.35 L9.3 4.8 Q10.45 4.95 11.55 5.6 L12.1 5.4 Q13.2 4.7 14.55 4.4 L17.5 4.75 17.9 5.25 18.75 4.45 Q21.5 2.1 25.05 1.05 M7.3 15.1 L7.3 15.2 7.2 15.6 7.55 15.85 8.7 17.45 Q9.5 19.0 9.65 20.85 L9.65 21.4 9.5 25.5 Q9.55 27.6 8.25 29.15 10.4 30.15 12.25 28.55 L13.25 27.7 Q15.2 25.3 17.85 23.6 L18.65 23.2 19.85 22.6 Q17.05 20.9 14.8 18.6 L13.65 17.35 11.8 15.8 Q9.75 14.5 7.3 15.1 M7.2 18.85 L8.7 17.45 M7.2 15.6 L6.7 15.65 6.0 16.0 5.55 16.25 5.15 16.75 M7.95 21.65 L9.65 20.85 M6.05 29.25 L6.35 29.3 6.4 29.25 8.1 29.3 8.25 29.15 M7.85 26.1 L8.4 26.1 M26.35 24.95 L26.25 25.4 26.15 26.35 Q26.45 28.6 24.6 30.0 L23.05 31.25 Q22.2 32.1 21.75 33.2 20.3 36.7 17.8 39.25 17.1 39.95 16.25 39.95 L14.3 38.95 13.35 39.55 Q12.7 39.95 11.95 40.05 10.35 40.45 8.55 40.1 L8.1 38.85 Q7.8 37.1 8.15 35.45 8.75 32.5 8.1 29.3 M23.85 24.8 Q23.65 26.95 22.2 28.9 L21.0 30.2 Q18.05 33.35 15.85 37.35 L13.4 37.2 M26.35 24.95 L33.5 24.65 M25.9 19.1 L26.35 24.95" fill="none" stroke="#000000" stroke-linecap="round" stroke-linejoin="round" stroke-width="0.05"/>
    <path d="M13.25 27.7 L12.1 24.1 12.5 23.45 15.15 22.5 14.2 19.4 Q14.1 19.0 14.8 18.6 M5.15 16.75 L5.5 16.75 7.2 18.85 7.95 21.65 7.85 26.1 6.4 29.25 6.05 29.25 Q2.45 29.05 0.85 25.7 0.1 24.1 0.0 22.6 -0.15 20.15 1.6 18.4 3.1 16.85 5.15 16.75 M12.2 17.3 L12.8 20.55 M15.15 22.5 L16.0 22.0" fill="none" stroke="#00ff00" stroke-linecap="round" stroke-linejoin="round" stroke-width="0.05"/>
  </g>
  <defs>
    <radialGradient cx="0" cy="0" gradientTransform="matrix(0.0314, -0.0016, 9.0E-4, 0.0178, 31.4, 11.2)" gradientUnits="userSpaceOnUse" id="gradient0" r="819.2" spreadMethod="pad">
      <stop offset="0.27058823529411763" stop-color="#564036"/>
      <stop offset="0.5137254901960784" stop-color="#a38a6d"/>
      <stop offset="0.8" stop-color="#564036"/>
    </radialGradient>
    <radialGradient cx="0" cy="0" gradientTransform="matrix(0.0242, 0.0, 0.0, 0.0242, 11.2, 22.15)" gradientUnits="userSpaceOnUse" id="gradient1" r="819.2" spreadMethod="pad">
      <stop offset="0.0" stop-color="#3f4039"/>
      <stop offset="0.8274509803921568" stop-color="#282d22"/>
      <stop offset="1.0" stop-color="#1e1e1e"/>
    </radialGradient>
    <linearGradient gradientTransform="matrix(0.0, 0.008, -0.0026, 0.0, 11.3, 22.45)" gradientUnits="userSpaceOnUse" id="gradient2" spreadMethod="pad" x1="-819.2" x2="819.2">
      <stop offset="0.0" stop-color="#564036"/>
      <stop offset="0.5137254901960784" stop-color="#a38a6d"/>
      <stop offset="1.0" stop-color="#564036"/>
    </linearGradient>
    <radialGradient cx="0" cy="0" gradientTransform="matrix(0.0082, 0.0, 0.0, 0.0082, 2.25, 22.3)" gradientUnits="userSpaceOnUse" id="gradient3" r="819.2" spreadMethod="pad">
      <stop offset="0.0" stop-color="#15ea1f" stop-opacity="0.8901961"/>
      <stop offset="0.8274509803921568" stop-color="#93f775" stop-opacity="0.17254902"/>
      <stop offset="1.0" stop-color="#52e959" stop-opacity="0.0"/>
    </radialGradient>
  </defs>
</svg>
