<?xml version="1.0" encoding="UTF-8" standalone="no"?>
<svg xmlns:xlink="http://www.w3.org/1999/xlink" height="52.85px" width="38.7px" xmlns="http://www.w3.org/2000/svg">
  <g transform="matrix(1.0, 0.0, 0.0, 1.0, 0.0, 0.0)">
    <path d="M21.5 6.75 L26.2 2.2 27.85 0.0 28.45 -1.05 28.95 -3.2 Q32.0 -2.1 33.7 0.75 34.55 2.1 35.0 3.65 L35.45 5.6 36.65 11.25 Q37.3 14.05 38.2 16.75 L40.5 23.35 41.2 25.6 42.15 30.05 42.25 33.15 41.95 33.75 39.3 35.9 34.8 38.6 30.1 40.95 26.8 42.4 Q24.4 43.55 22.15 45.25 L17.8 48.75 16.7 49.65 16.1 49.35 14.6 48.55 Q12.85 46.1 11.75 43.35 L11.05 41.5 11.0 41.35 10.15 38.35 9.75 34.25 Q9.55 31.65 8.3 29.55 L6.15 26.3 3.8 23.1 4.2 22.3 5.35 20.6 7.6 18.3 11.7 14.7 15.15 11.9 16.85 10.5 18.35 9.25 20.55 7.5 21.4 6.8 21.5 6.75 M28.45 -1.05 L29.8 -0.2 31.8 1.55 Q32.35 2.1 32.5 2.85 33.2 5.85 33.2 9.0 L33.5 17.5 34.0 21.5 Q34.25 22.9 34.8 24.0 L32.05 24.95 Q29.2 25.85 26.8 27.35 24.6 28.75 22.9 30.65 21.0 32.7 19.75 35.05 21.0 32.7 22.9 30.65 24.6 28.75 26.8 27.35 29.2 25.85 32.05 24.95 L34.8 24.0 Q34.25 22.9 34.0 21.5 L33.5 17.5 33.2 9.0 Q33.2 5.85 32.5 2.85 32.35 2.1 31.8 1.55 L29.8 -0.2 28.45 -1.05 M18.35 9.25 Q20.9 12.85 24.1 16.0 25.1 13.9 24.45 11.4 L20.55 7.5 24.45 11.4 Q25.1 13.9 24.1 16.0 20.9 12.85 18.35 9.25 M21.4 6.8 L21.9 7.25 23.6 8.85 24.95 9.65 Q24.8 6.05 27.05 3.2 L27.05 3.1 Q26.9 2.3 26.2 2.2 26.9 2.3 27.05 3.1 L27.05 3.2 Q24.8 6.05 24.95 9.65 L23.6 8.85 21.9 7.25 21.4 6.8 M27.2 7.9 L28.1 7.8 29.45 8.15 Q30.1 8.45 30.25 9.1 30.6 10.5 30.5 12.05 30.2 17.3 30.65 22.45 L28.55 23.35 26.05 24.35 23.3 25.65 Q20.85 27.0 19.6 29.55 20.85 27.0 23.3 25.65 L26.05 24.35 28.55 23.35 30.65 22.45 Q30.2 17.3 30.5 12.05 30.6 10.5 30.25 9.1 30.1 8.45 29.45 8.15 L28.1 7.8 27.2 7.9 M13.95 28.55 Q14.85 29.05 13.9 29.55 L13.25 29.2 Q13.1 28.45 13.75 28.45 L13.95 28.55 13.75 28.45 Q13.1 28.45 13.25 29.2 L13.9 29.55 Q14.85 29.05 13.95 28.55 M11.7 28.95 L12.25 28.55 16.1 25.85 12.25 28.55 11.7 28.95 M11.25 27.9 Q15.0 24.9 19.0 22.35 L20.2 23.4 21.0 23.6 21.65 23.25 25.9 20.2 26.75 20.5 27.05 20.45 27.65 19.7 27.3 19.05 26.25 19.1 25.9 20.2 26.25 19.1 27.3 19.05 27.65 19.7 27.05 20.45 26.75 20.5 25.9 20.2 21.65 23.25 21.0 23.6 20.2 23.4 19.0 22.35 Q15.0 24.9 11.25 27.9 M5.35 20.6 L8.9 24.3 10.75 27.0 Q10.95 26.9 11.1 26.75 L11.55 26.25 17.15 21.75 19.5 19.8 22.0 17.6 22.45 17.1 22.35 16.85 20.4 13.85 Q19.0 11.75 16.85 10.5 19.0 11.75 20.4 13.85 L22.35 16.85 22.45 17.1 22.0 17.6 19.5 19.8 17.15 21.75 11.55 26.25 11.1 26.75 Q10.95 26.9 10.75 27.0 L8.9 24.3 5.35 20.6 M12.85 36.55 Q11.75 36.55 10.95 37.1 10.15 37.6 10.15 38.35 10.15 37.6 10.95 37.1 11.75 36.55 12.85 36.55 M13.9 29.55 L15.8 33.2 Q16.3 32.75 16.9 32.45 17.7 32.25 18.35 32.95 L19.75 35.05 18.35 32.95 Q17.7 32.25 16.9 32.45 16.3 32.75 15.8 33.2 L13.9 29.55 M13.75 40.05 L13.15 40.15 Q11.95 40.35 11.0 41.35 11.95 40.35 13.15 40.15 L13.75 40.05 M19.75 35.05 L18.9 36.85 17.65 40.6 Q17.0 43.1 16.6 45.7 L16.1 49.35 16.6 45.7 Q17.0 43.1 17.65 40.6 L18.9 36.85 19.75 35.05" fill="url(#gradient0)" fill-rule="evenodd" stroke="none"/>
    <path d="M21.5 6.75 L26.2 2.2 27.85 0.0 28.45 -1.05 28.95 -3.2 Q32.0 -2.1 33.7 0.75 34.55 2.1 35.0 3.65 L35.45 5.6 36.65 11.25 Q37.3 14.05 38.2 16.75 L40.5 23.35 41.2 25.6 42.15 30.05 42.25 33.15 41.95 33.75 39.3 35.9 34.8 38.6 30.1 40.95 26.8 42.4 Q24.4 43.55 22.15 45.25 L17.8 48.75 16.7 49.65 16.1 49.35 14.6 48.55 Q12.85 46.1 11.75 43.35 L11.05 41.5 11.0 41.35 10.15 38.35 9.75 34.25 Q9.55 31.65 8.3 29.55 L6.15 26.3 3.8 23.1 4.2 22.3 5.35 20.6 7.6 18.3 11.7 14.7 15.15 11.9 16.85 10.5 18.35 9.25 20.55 7.5 21.4 6.8 M19.75 35.05 Q21.0 32.7 22.9 30.65 24.6 28.75 26.8 27.35 29.2 25.85 32.05 24.95 L34.8 24.0 Q34.25 22.9 34.0 21.5 L33.5 17.5 33.2 9.0 Q33.2 5.85 32.5 2.85 32.35 2.1 31.8 1.55 L29.8 -0.2 28.45 -1.05 M19.6 29.55 Q20.85 27.0 23.3 25.65 L26.05 24.35 28.55 23.35 30.65 22.45 Q30.2 17.3 30.5 12.05 30.6 10.5 30.25 9.1 30.1 8.45 29.45 8.15 L28.1 7.8 27.2 7.9 M10.15 38.35 Q10.15 37.6 10.95 37.1 11.75 36.55 12.85 36.55 M16.1 49.35 L16.6 45.7 Q17.0 43.1 17.65 40.6 L18.9 36.85 19.75 35.05 M11.0 41.35 Q11.95 40.35 13.15 40.15 L13.75 40.05" fill="none" stroke="#000000" stroke-linecap="round" stroke-linejoin="round" stroke-width="0.05"/>
    <path d="M21.4 6.8 L21.5 6.75 M26.2 2.2 Q26.9 2.3 27.05 3.1 L27.05 3.2 Q24.8 6.05 24.95 9.65 L23.6 8.85 21.9 7.25 21.4 6.8 M20.55 7.5 L24.45 11.4 Q25.1 13.9 24.1 16.0 20.9 12.85 18.35 9.25 M16.85 10.5 Q19.0 11.75 20.4 13.85 L22.35 16.85 22.45 17.1 22.0 17.6 19.5 19.8 17.15 21.75 11.55 26.25 11.1 26.75 Q10.95 26.9 10.75 27.0 L8.9 24.3 5.35 20.6 M25.9 20.2 L26.25 19.1 27.3 19.05 27.65 19.7 27.05 20.45 26.75 20.5 25.9 20.2 21.65 23.25 21.0 23.6 20.2 23.4 19.0 22.35 Q15.0 24.9 11.25 27.9 M16.1 25.85 L12.25 28.55 11.7 28.95 M13.95 28.55 L13.75 28.45 Q13.1 28.45 13.25 29.2 L13.9 29.55 Q14.85 29.05 13.95 28.55 M19.75 35.05 L18.35 32.95 Q17.7 32.25 16.9 32.45 16.3 32.75 15.8 33.2 L13.9 29.55" fill="none" stroke="#00ff00" stroke-linecap="round" stroke-linejoin="round" stroke-width="0.05"/>
    <path d="M28.45 -1.05 L28.95 -3.2 Q31.1 -2.45 32.6 -0.95 34.05 0.5 34.8 2.15 35.2 3.3 35.45 5.6 36.15 11.4 38.1 16.8 L40.5 23.35 Q42.15 27.6 42.5 32.35 L42.4 33.15 42.0 33.8 39.35 36.0 Q35.0 39.05 30.1 40.9 23.15 43.45 17.9 48.9 17.5 49.35 16.7 49.65 L16.1 49.35 Q16.5 45.45 17.05 42.45 17.75 38.5 19.75 35.05 20.5 33.6 21.5 32.3 22.8 30.55 24.4 29.15 28.95 25.15 34.8 24.0 33.85 22.45 33.7 20.65 L33.3 14.25 33.0 3.8 32.55 2.35 Q31.45 0.45 28.45 -1.05" fill="#000000" fill-opacity="0.2509804" fill-rule="evenodd" stroke="none"/>
  </g>
  <defs>
    <radialGradient cx="0" cy="0" gradientTransform="matrix(0.0433, 0.0, 0.0, 0.0423, 14.95, 15.8)" gradientUnits="userSpaceOnUse" id="gradient0" r="819.2" spreadMethod="pad">
      <stop offset="0.0" stop-color="#3f4039"/>
      <stop offset="0.8274509803921568" stop-color="#282d22"/>
      <stop offset="1.0" stop-color="#1e1e1e"/>
    </radialGradient>
  </defs>
</svg>
