<?xml version="1.0" encoding="UTF-8" standalone="no"?>
<svg xmlns:xlink="http://www.w3.org/1999/xlink" height="52.85px" width="38.7px" xmlns="http://www.w3.org/2000/svg">
  <g transform="matrix(1.0, 0.0, 0.0, 1.0, 0.0, 0.0)">
    <path d="M28.45 -1.05 L28.95 -3.2 31.5 -1.4 33.6 0.8 Q35.1 3.05 35.55 5.6 L36.75 11.25 38.25 16.7 39.3 20.05 41.05 25.65 42.0 30.05 Q42.2 31.6 41.6 32.85 40.85 34.45 39.5 35.75 L38.05 34.3 35.1 36.3 36.35 37.75 35.1 36.3 38.05 34.3 39.5 35.75 36.35 37.75 33.6 39.25 32.65 38.0 31.4 38.8 32.65 38.0 33.6 39.25 24.75 43.5 23.95 44.0 16.7 49.65 16.1 49.35 16.65 45.7 17.75 40.65 Q18.45 37.75 19.75 35.05 21.3 32.85 23.0 30.75 L24.8 28.95 Q29.3 25.35 34.8 24.0 33.95 21.9 33.75 19.5 L33.45 15.4 33.25 11.2 32.9 5.9 32.35 2.85 31.65 1.75 28.45 -1.05 M22.15 39.85 L23.95 44.0 22.15 39.85 M38.65 32.1 L37.25 33.45 35.5 31.8 32.3 34.1 31.3 33.6 30.3 33.15 31.2 32.1 30.3 33.15 31.3 33.6 32.3 34.1 35.5 31.8 32.85 29.65 Q32.1 29.1 31.05 29.1 32.1 29.1 32.85 29.65 L35.5 31.8 37.25 33.45 38.65 32.1 M27.75 35.15 L28.95 34.25 30.25 35.4 32.3 34.1 34.05 35.35 35.1 36.3 32.65 38.0 31.75 36.8 32.65 38.0 35.1 36.3 34.05 35.35 31.75 36.8 30.25 35.4 28.65 36.2 30.25 35.4 31.75 36.8 34.05 35.35 32.3 34.1 30.25 35.4 28.95 34.25 27.75 35.15 M30.3 33.15 L29.45 32.6 30.2 33.25 28.95 34.25 27.25 33.2 25.45 32.25 27.25 33.2 28.95 34.25 30.2 33.25 29.45 32.6 30.3 33.15 30.2 33.25 31.3 33.6 30.2 33.25 30.3 33.15 M37.25 33.45 L34.05 35.35 37.25 33.45 38.05 34.3 38.95 33.65 Q39.3 33.4 38.95 33.4 39.3 33.4 38.95 33.65 L38.05 34.3 37.25 33.45 M23.95 41.2 L24.75 43.5 23.95 41.2 M30.3 37.55 L31.75 36.8 30.3 37.55" fill="url(#gradient0)" fill-rule="evenodd" stroke="none"/>
    <path d="M27.45 5.95 L28.65 7.85 28.7 8.55 27.65 9.5 26.5 10.3 27.3 12.75 Q26.0 13.7 24.65 14.15 L22.7 14.6 21.1 14.9 16.35 15.65 16.25 15.9 16.65 17.9 Q14.95 19.05 12.8 19.25 L9.2 19.7 Q12.35 18.25 14.65 15.75 L14.9 15.5 15.25 13.95 23.45 10.4 23.5 10.45 23.5 10.4 24.95 9.4 26.05 7.85 27.45 5.95" fill="#000000" fill-rule="evenodd" stroke="none"/>
    <path d="M28.45 -1.05 L31.65 1.75 32.35 2.85 32.9 5.9 33.25 11.2 33.45 15.4 33.75 19.5 Q33.95 21.9 34.8 24.0 29.3 25.35 24.8 28.95 L23.0 30.75 Q21.3 32.85 19.75 35.05 18.45 37.75 17.75 40.65 L16.65 45.7 16.1 49.35 14.6 48.55 12.5 44.7 11.05 41.5 11.0 41.35 10.15 38.35 9.45 33.0 8.75 30.7 7.2 27.95 3.8 23.1 5.35 20.6 8.75 24.4 10.75 27.0 11.6 26.3 Q17.0 22.15 22.0 17.6 L22.45 17.1 21.1 14.9 22.7 14.6 24.65 14.15 Q26.0 13.7 27.3 12.75 L26.5 10.3 27.65 9.5 28.7 8.55 28.65 7.85 27.45 5.95 27.4 5.85 Q29.25 3.2 27.7 0.25 L28.45 -1.05 M30.4 14.15 L30.55 10.55 Q30.6 9.15 29.8 8.35 L28.65 7.85 29.8 8.35 Q30.6 9.15 30.55 10.55 L30.4 14.15 30.75 14.1 30.4 14.15 29.25 14.65 29.4 15.15 29.25 14.65 30.4 14.15 30.4 15.45 28.35 16.55 27.95 15.5 27.75 14.55 27.95 15.5 29.25 14.65 28.65 12.9 29.25 14.65 27.95 15.5 28.35 16.55 30.4 15.45 30.4 14.15 M23.45 10.4 L23.5 10.4 23.5 10.45 23.45 10.4 M9.2 19.7 L12.8 19.25 Q14.95 19.05 16.65 17.9 L16.25 15.9 16.35 15.65 21.1 14.9 22.45 17.1 22.0 17.6 Q17.0 22.15 11.6 26.3 L10.75 27.0 8.75 24.4 5.35 20.6 5.65 20.3 9.2 19.7 M26.45 17.8 L28.35 16.55 29.4 18.8 28.35 16.55 26.45 17.8 M31.4 15.0 L30.4 15.45 31.4 15.0 M19.6 29.55 L21.3 27.45 Q22.25 26.5 23.4 25.85 25.9 24.5 28.55 23.35 L30.65 22.45 30.4 15.45 30.65 22.45 28.55 23.35 Q25.9 24.5 23.4 25.85 22.25 26.5 21.3 27.45 L19.6 29.55 M25.9 20.2 L26.75 20.5 27.05 20.45 27.65 19.7 27.3 19.05 26.25 19.1 25.9 20.2 21.0 23.6 20.3 23.25 19.0 22.35 11.25 27.9 19.0 22.35 20.3 23.25 21.0 23.6 25.9 20.2 26.25 19.1 27.3 19.05 27.65 19.7 27.05 20.45 26.75 20.5 25.9 20.2 M24.65 14.15 L24.1 16.0 22.7 14.6 24.1 16.0 24.65 14.15 M27.95 15.5 L23.5 18.5 27.95 15.5 M12.85 36.55 Q11.75 36.55 10.95 37.1 10.15 37.6 10.15 38.35 10.15 37.6 10.95 37.1 11.75 36.55 12.85 36.55 M16.1 25.85 L11.7 28.95 16.1 25.85 M13.9 29.55 L15.8 33.2 16.9 32.45 17.7 32.5 18.0 32.75 Q19.15 33.75 19.75 35.05 19.15 33.75 18.0 32.75 L17.7 32.5 16.9 32.45 15.8 33.2 13.9 29.55 13.35 28.85 13.9 29.55 14.4 29.05 Q14.3 28.55 13.75 28.55 L13.35 28.65 13.35 28.85 13.35 28.65 13.75 28.55 Q14.3 28.55 14.4 29.05 L13.9 29.55 M13.75 40.05 Q12.8 40.15 12.1 40.6 L11.0 41.35 12.1 40.6 Q12.8 40.15 13.75 40.05" fill="url(#gradient1)" fill-rule="evenodd" stroke="none"/>
    <path d="M39.5 35.75 Q40.85 34.45 41.6 32.85 42.2 31.6 42.0 30.05 L41.05 25.65 39.3 20.05 38.25 16.7 36.75 11.25 35.55 5.6 Q35.1 3.05 33.6 0.8 L31.5 -1.4 28.95 -3.2 28.45 -1.05 27.7 0.25 Q29.25 3.2 27.4 5.85 L27.45 5.95 28.65 7.85 28.7 8.55 27.65 9.5 26.5 10.3 27.3 12.75 Q26.0 13.7 24.65 14.15 L22.7 14.6 21.1 14.9 16.35 15.65 16.25 15.9 16.65 17.9 Q14.95 19.05 12.8 19.25 L9.2 19.7 5.65 20.3 5.35 20.6 3.8 23.1 7.2 27.95 8.75 30.7 9.45 33.0 10.15 38.35 11.0 41.35 M16.1 49.35 L16.7 49.65 23.95 44.0 22.15 39.85 M30.4 14.15 L30.75 14.1 M23.5 10.4 L23.45 10.4 15.25 13.95 14.9 15.5 14.65 15.75 Q12.35 18.25 9.2 19.7 M23.5 10.4 L24.95 9.4 26.05 7.85 27.45 5.95 M27.75 14.55 L27.95 15.5 29.25 14.65 28.65 12.9 M29.4 18.8 L28.35 16.55 26.45 17.8 M29.4 15.15 L29.25 14.65 30.4 14.15 M30.4 15.45 L31.4 15.0 M27.95 15.5 L28.35 16.55 30.4 15.45 M23.5 18.5 L27.95 15.5 M11.05 41.5 L12.5 44.7 14.6 48.55 16.1 49.35 M31.2 32.1 L30.3 33.15 31.3 33.6 32.3 34.1 35.5 31.8 32.85 29.65 Q32.1 29.1 31.05 29.1 M31.75 36.8 L32.65 38.0 35.1 36.3 34.05 35.35 31.75 36.8 30.25 35.4 28.65 36.2 M34.05 35.35 L32.3 34.1 30.25 35.4 28.95 34.25 27.75 35.15 M35.5 31.8 L37.25 33.45 38.65 32.1 M39.5 35.75 L38.05 34.3 35.1 36.3 36.35 37.75 39.5 35.75 M37.25 33.45 L38.05 34.3 38.95 33.65 Q39.3 33.4 38.95 33.4 M34.05 35.35 L37.25 33.45 M30.3 33.15 L30.2 33.25 31.3 33.6 M25.45 32.25 L27.25 33.2 28.95 34.25 30.2 33.25 29.45 32.6 30.3 33.15 M23.95 44.0 L24.75 43.5 23.95 41.2 M31.4 38.8 L32.65 38.0 33.6 39.25 36.35 37.75 M24.75 43.5 L33.6 39.25 M31.75 36.8 L30.3 37.55" fill="none" stroke="#000000" stroke-linecap="round" stroke-linejoin="round" stroke-width="0.05"/>
    <path d="M28.45 -1.05 L31.65 1.75 32.35 2.85 32.9 5.9 33.25 11.2 33.45 15.4 33.75 19.5 Q33.95 21.9 34.8 24.0 29.3 25.35 24.8 28.95 L23.0 30.75 Q21.3 32.85 19.75 35.05 18.45 37.75 17.75 40.65 L16.65 45.7 16.1 49.35 M28.65 7.85 L29.8 8.35 Q30.6 9.15 30.55 10.55 L30.4 14.15 30.4 15.45 30.65 22.45 28.55 23.35 Q25.9 24.5 23.4 25.85 22.25 26.5 21.3 27.45 L19.6 29.55 M10.15 38.35 Q10.15 37.6 10.95 37.1 11.75 36.55 12.85 36.55 M11.0 41.35 L12.1 40.6 Q12.8 40.15 13.75 40.05 M11.0 41.35 L11.05 41.5" fill="none" stroke="#000000" stroke-linecap="round" stroke-linejoin="round" stroke-width="0.05"/>
    <path d="M23.45 10.4 L23.5 10.45 M22.7 14.6 L24.1 16.0 24.65 14.15 M5.35 20.6 L8.75 24.4 10.75 27.0 11.6 26.3 Q17.0 22.15 22.0 17.6 L22.45 17.1 21.1 14.9 M11.25 27.9 L19.0 22.35 20.3 23.25 21.0 23.6 25.9 20.2 26.25 19.1 27.3 19.05 27.65 19.7 27.05 20.45 26.75 20.5 25.9 20.2 M13.35 28.85 L13.9 29.55 14.4 29.05 Q14.3 28.55 13.75 28.55 L13.35 28.65 13.35 28.85 M19.75 35.05 Q19.15 33.75 18.0 32.75 L17.7 32.5 16.9 32.45 15.8 33.2 13.9 29.55 M11.7 28.95 L16.1 25.85" fill="none" stroke="#8e00e2" stroke-linecap="round" stroke-linejoin="round" stroke-width="0.05"/>
    <path d="M28.45 -1.05 L28.95 -3.2 Q31.1 -2.45 32.6 -0.95 34.05 0.5 34.8 2.15 35.2 3.3 35.45 5.6 36.15 11.4 38.1 16.8 L40.5 23.35 Q42.15 27.6 42.5 32.35 L42.4 33.15 42.0 33.8 39.35 36.0 Q35.0 39.05 30.1 40.9 23.15 43.45 17.9 48.9 17.5 49.35 16.7 49.65 L16.1 49.35 Q16.5 45.45 17.05 42.45 17.75 38.5 19.75 35.05 20.5 33.6 21.5 32.3 22.8 30.55 24.4 29.15 28.95 25.15 34.8 24.0 33.85 22.45 33.7 20.65 L33.3 14.25 33.0 3.8 32.55 2.35 Q31.45 0.45 28.45 -1.05" fill="#000000" fill-opacity="0.2509804" fill-rule="evenodd" stroke="none"/>
    <path d="M23.35 14.25 L23.3 14.75 Q23.1 15.6 23.75 16.1 25.05 17.15 25.1 18.75 L24.7 19.25 Q24.45 19.9 24.5 20.75 L24.75 21.05 Q25.75 22.1 25.25 23.35 L23.55 23.35 23.25 23.15 Q22.65 22.65 22.45 21.7 L22.45 21.3 22.6 20.75 Q23.25 19.4 22.95 18.0 L22.0 16.85 21.65 15.05 22.35 14.6 23.35 14.25 M13.8 18.75 L13.95 18.8 13.7 20.0 Q13.5 20.75 13.45 21.7 L14.0 22.4 Q15.15 23.5 15.25 25.0 15.65 25.0 15.85 24.5 L16.15 23.65 15.95 22.35 14.6 20.8 Q14.35 19.5 14.9 18.5 L16.35 18.05 Q16.85 18.25 16.7 18.65 16.3 19.9 16.8 21.0 L17.2 22.55 17.4 23.35 17.55 24.3 Q17.15 27.35 14.5 28.85 L15.15 30.5 15.15 31.45 Q14.9 32.5 13.9 33.05 12.95 33.2 12.2 32.4 11.9 31.6 12.3 30.85 12.6 30.3 12.4 29.7 L11.45 27.75 Q12.25 26.3 13.35 25.15 L13.35 24.7 13.1 24.35 12.45 23.75 Q11.5 23.05 11.6 21.95 L11.85 21.55 Q12.45 20.9 12.4 20.15 L12.35 20.0 Q11.7 19.45 12.2 19.15 L13.8 18.75 M15.25 25.0 L14.85 25.75 Q13.9 26.9 14.15 28.35 L14.5 28.85 14.15 28.35 Q13.9 26.9 14.85 25.75 L15.25 25.0" fill="#446237" fill-rule="evenodd" stroke="none"/>
    <path d="M23.35 14.25 L22.35 14.6 21.65 15.05 22.0 16.85 22.95 18.0 Q23.25 19.4 22.6 20.75 L22.45 21.3 22.45 21.7 Q22.65 22.65 23.25 23.15 L23.55 23.35 25.25 23.35 Q25.75 22.1 24.75 21.05 L24.5 20.75 Q24.45 19.9 24.7 19.25 L25.1 18.75 Q25.05 17.15 23.75 16.1 23.1 15.6 23.3 14.75 L23.35 14.25 M13.95 18.8 L13.95 18.75 13.8 18.75 12.2 19.15 Q11.7 19.45 12.35 20.0 L12.4 20.15 Q12.45 20.9 11.85 21.55 L11.6 21.95 Q11.5 23.05 12.45 23.75 L13.1 24.35 13.35 24.7 13.35 25.15 Q12.25 26.3 11.45 27.75 L12.4 29.7 Q12.6 30.3 12.3 30.85 11.9 31.6 12.2 32.4 12.95 33.2 13.9 33.05 14.9 32.5 15.15 31.45 L15.15 30.5 14.5 28.85 14.15 28.35 Q13.9 26.9 14.85 25.75 L15.25 25.0 Q15.15 23.5 14.0 22.4 L13.45 21.7 Q13.5 20.75 13.7 20.0 L13.95 18.8 M15.25 25.0 Q15.65 25.0 15.85 24.5 L16.15 23.65 15.95 22.35 14.6 20.8 Q14.35 19.5 14.9 18.5 L16.35 18.05 Q16.85 18.25 16.7 18.65 16.3 19.9 16.8 21.0 L17.2 22.55 17.4 23.35 17.55 24.3 Q17.15 27.35 14.5 28.85" fill="none" stroke="#000000" stroke-linecap="round" stroke-linejoin="round" stroke-width="0.05"/>
  </g>
  <defs>
    <radialGradient cx="0" cy="0" gradientTransform="matrix(0.0433, 0.0, 0.0, 0.0423, 14.95, 15.8)" gradientUnits="userSpaceOnUse" id="gradient0" r="819.2" spreadMethod="pad">
      <stop offset="0.0" stop-color="#3f4039"/>
      <stop offset="0.8274509803921568" stop-color="#282d22"/>
      <stop offset="1.0" stop-color="#1e1e1e"/>
    </radialGradient>
    <radialGradient cx="0" cy="0" gradientTransform="matrix(0.0433, 0.0, 0.0, 0.0423, 14.95, 15.8)" gradientUnits="userSpaceOnUse" id="gradient1" r="819.2" spreadMethod="pad">
      <stop offset="0.0" stop-color="#363443"/>
      <stop offset="0.8274509803921568" stop-color="#282d22"/>
      <stop offset="1.0" stop-color="#1e1e1e"/>
    </radialGradient>
  </defs>
</svg>
