<?xml version="1.0" encoding="UTF-8" standalone="no"?>
<svg xmlns:xlink="http://www.w3.org/1999/xlink" height="61.15px" width="98.35px" xmlns="http://www.w3.org/2000/svg">
  <g transform="matrix(1.0, 0.0, 0.0, 1.0, 0.0, 0.0)">
    <path d="M2.0 23.3 L2.4 22.75 Q3.2 21.7 4.55 21.35 L4.55 21.85 4.25 22.2 Q3.25 23.25 2.0 23.3 M-1.8 17.7 L-2.3 17.75 Q-4.3 17.45 -4.9 15.4 L-5.35 14.4 -6.45 14.1 Q-7.05 16.75 -5.45 18.8 L-0.4 18.8 -1.8 17.7 M-11.6 9.35 Q-11.4 10.4 -10.4 11.05 L-11.75 8.55 -11.6 9.35 M-7.3 9.8 L-6.9 11.1 -5.3 10.15 -6.85 8.4 -7.3 9.8 M-19.75 -3.45 L-19.05 -3.75 -18.55 -3.5 -18.15 -2.05 -16.45 -1.7 -16.55 -2.45 Q-16.65 -3.95 -15.35 -4.6 -13.9 -3.65 -13.0 -2.0 -11.1 1.5 -9.6 5.05 L-9.5 5.3 Q-8.95 7.4 -7.7 9.2 L-7.0 8.2 Q-9.1 4.75 -8.95 0.6 L-8.45 0.05 -8.05 0.4 -6.65 4.15 -6.65 3.05 -5.95 2.05 -5.45 2.45 Q-5.65 3.3 -5.25 4.3 L-4.05 7.1 -3.4 8.7 -3.25 8.75 -1.4 8.15 -2.6 9.5 -0.75 10.2 Q0.25 10.65 0.15 11.35 L-1.25 11.65 Q-2.9 11.55 -4.45 10.7 L-6.6 11.6 -5.1 12.5 -3.9 13.5 -2.75 13.1 0.15 11.9 1.6 11.3 1.85 11.75 Q-0.3 13.9 -3.45 14.3 L-3.3 15.25 -2.7 15.75 -2.35 15.45 -2.0 15.55 -1.95 15.65 -0.55 16.65 Q1.9 18.2 4.85 17.65 5.3 17.7 5.25 18.15 L5.1 18.35 3.85 19.15 4.85 19.5 4.9 19.55 -0.4 23.05 -1.4 23.45 3.05 20.1 1.65 20.15 Q-0.9 21.9 -3.7 23.0 L0.45 19.9 -1.2 19.25 -5.35 19.3 Q-7.2 17.8 -7.05 15.5 L-6.95 13.95 -8.8 12.75 -9.85 11.95 Q-11.4 11.6 -11.8 9.95 -12.45 7.0 -12.7 4.0 -16.5 3.8 -17.5 0.2 L-18.7 -0.25 -19.5 -0.95 Q-20.3 -2.15 -19.75 -3.45" fill="#330033" fill-rule="evenodd" stroke="none"/>
    <path d="M-32.85 -1.1 L-35.9 -3.5 -36.85 -4.45 -34.7 -6.35 -33.9 -5.8 Q-32.0 -4.65 -31.5 -2.95 L-32.85 -1.1 M-27.95 -4.55 L-26.95 -4.5 -26.8 -4.2 Q-26.7 -3.7 -27.15 -3.7 L-27.3 -3.85 -27.95 -4.55 M-21.4 -16.25 L-21.4 -16.9 -21.05 -17.0 -21.05 -16.8 -21.4 -16.25" fill="url(#gradient0)" fill-rule="evenodd" stroke="none"/>
    <path d="M47.65 -29.65 L47.75 -29.8 47.95 -29.8 47.95 -29.7 47.65 -29.65" fill="#16e916" fill-opacity="0.7529412" fill-rule="evenodd" stroke="none"/>
    <path d="M18.9 -32.1 L19.05 -32.1 19.05 -32.0 18.9 -32.0 18.9 -32.1 M0.45 -33.35 L0.3 -33.3 0.35 -33.35 0.4 -33.45 0.45 -33.35 0.3 -33.3 0.45 -33.35" fill="#11b011" fill-opacity="0.7529412" fill-rule="evenodd" stroke="none"/>
    <path d="M0.35 -33.35 L0.3 -33.3 -0.05 -33.05 0.35 -33.35" fill="#68f068" fill-opacity="0.7529412" fill-rule="evenodd" stroke="none"/>
    <path d="M-36.85 -4.45 L-41.95 -6.75 -41.95 -7.0 -41.05 -9.2 Q-40.1 -11.4 -39.85 -13.85 -39.6 -16.6 -40.35 -19.15 L-41.6 -23.1 -43.1 -27.2 -39.55 -28.4 -38.4 -28.6 -36.65 -25.55 -35.05 -22.2 -33.3 -18.0 Q-32.7 -16.4 -32.4 -14.7 -32.2 -13.6 -32.35 -12.4 L-32.95 -9.55 -34.7 -6.35 -36.85 -4.45" fill="url(#gradient1)" fill-rule="evenodd" stroke="none"/>
    <path d="M-7.6 3.2 L-6.95 3.95 -6.0 5.4 -5.25 7.15 -4.4 9.1 -2.15 14.25 -0.5 17.75 1.05 20.2 2.7 22.25 Q4.15 23.5 4.95 25.3 L5.95 27.45 2.6 27.3 -0.45 26.6 -3.55 25.95 Q-6.25 25.9 -8.05 23.85 -9.85 21.8 -11.1 19.45 L-14.6 11.15 -15.9 8.85 Q-17.45 6.55 -19.15 4.4 L-27.5 0.9 -24.85 0.15 -19.5 -0.05 Q-16.7 -0.05 -13.95 0.7 L-8.5 2.45 -7.7 3.1 -7.6 3.2 M-14.6 11.15 Q-12.35 10.7 -10.4 9.7 L-5.25 7.15 -10.4 9.7 Q-12.35 10.7 -14.6 11.15 M-3.55 25.95 L-2.15 25.4 Q0.55 24.35 2.7 22.25 0.55 24.35 -2.15 25.4 L-3.55 25.95 M-19.15 4.4 L-13.7 2.85 -8.5 2.45 -13.7 2.85 -19.15 4.4 M-3.0 15.0 Q-4.35 16.5 -6.25 17.4 L-11.1 19.45 -6.25 17.4 Q-4.35 16.5 -3.0 15.0" fill="url(#gradient2)" fill-rule="evenodd" stroke="none"/>
    <path d="M-0.65 -27.1 L0.9 -26.4 4.25 -24.95 5.75 -24.55 5.3 -22.65 Q5.1 -21.65 4.5 -20.75 L7.0 -20.55 Q10.15 -20.1 13.1 -21.35 L13.35 -24.15 13.1 -21.35 Q10.15 -20.1 7.0 -20.55 L4.5 -20.75 Q5.1 -21.65 5.3 -22.65 L5.75 -24.55 6.1 -24.45 13.35 -24.15 17.15 -23.95 18.3 -23.6 18.85 -23.3 20.75 -22.2 22.25 -21.35 23.0 -20.9 24.85 -19.3 26.0 -18.25 29.3 -15.0 31.35 -12.65 32.05 -11.8 32.7 -11.05 34.1 -9.3 35.7 -7.0 35.65 -3.25 35.45 2.5 35.1 8.15 34.8 12.3 34.4 15.05 33.5 17.6 32.7 18.5 30.3 19.75 25.1 21.8 19.6 23.8 14.05 25.5 10.05 26.7 5.95 27.45 4.95 25.3 Q4.15 23.5 2.7 22.25 L1.05 20.2 -0.5 17.75 -2.15 14.25 -4.4 9.1 -5.25 7.15 -6.0 5.4 -6.95 3.95 -7.6 3.2 Q-4.9 1.35 -3.35 -1.05 -1.9 -3.25 -1.1 -5.75 -0.25 -8.35 -0.05 -10.9 0.15 -13.0 -0.05 -15.4 L0.35 -15.6 2.2 -16.15 7.45 -17.45 11.3 -17.9 Q13.95 -18.25 16.8 -17.85 17.95 -17.95 18.8 -17.15 L20.25 -15.9 24.95 -12.5 23.7 -11.4 18.05 -15.5 16.5 -16.1 12.9 -15.8 13.0 -14.05 13.3 -13.4 17.4 -12.0 Q20.4 -10.7 20.75 -7.35 L19.45 -6.3 19.0 -7.05 Q17.7 -8.9 15.45 -9.35 L15.2 -9.2 14.25 -7.85 14.15 -7.35 16.15 -6.35 Q18.2 -5.0 18.6 -2.45 L17.7 -1.6 17.1 -2.3 Q16.05 -3.3 14.6 -3.8 16.05 -3.3 17.1 -2.3 L17.7 -1.6 18.6 -2.45 Q18.2 -5.0 16.15 -6.35 L14.15 -7.35 14.25 -7.85 15.2 -9.2 15.45 -9.35 Q17.7 -8.9 19.0 -7.05 L19.45 -6.3 20.75 -7.35 Q20.4 -10.7 17.4 -12.0 L13.3 -13.4 13.0 -14.05 12.9 -15.8 16.5 -16.1 18.05 -15.5 23.7 -11.4 24.95 -12.5 20.25 -15.9 18.8 -17.15 Q17.95 -17.95 16.8 -17.85 13.95 -18.25 11.3 -17.9 L7.45 -17.45 2.2 -16.15 0.35 -15.6 -0.05 -15.4 Q0.15 -13.0 -0.05 -10.9 -0.25 -8.35 -1.1 -5.75 -1.9 -3.25 -3.35 -1.05 -4.9 1.35 -7.6 3.2 L-7.7 3.1 -8.5 2.45 -13.95 0.7 Q-16.7 -0.05 -19.5 -0.05 L-24.85 0.15 -27.5 0.9 -30.15 0.15 -31.55 -0.45 -32.85 -1.1 -31.5 -2.95 Q-32.0 -4.65 -33.9 -5.8 L-34.7 -6.35 -32.95 -9.55 -32.35 -12.4 Q-32.2 -13.6 -32.4 -14.7 -32.7 -16.4 -33.3 -18.0 L-35.05 -22.2 -36.65 -25.55 -38.4 -28.6 -32.85 -30.9 -32.0 -31.15 -31.7 -31.05 -30.65 -30.85 -30.35 -30.8 -29.75 -30.6 -28.7 -29.6 -28.45 -29.4 -27.75 -28.45 -27.7 -28.35 -25.5 -26.05 -24.85 -25.95 Q-23.3 -27.15 -21.9 -25.55 -20.75 -24.3 -19.3 -24.65 L-18.4 -28.0 -19.3 -29.2 -19.25 -29.85 -17.95 -30.5 -17.6 -32.4 -16.7 -32.35 -13.3 -31.55 -7.8 -29.9 -3.8 -28.5 -1.5 -27.45 -0.65 -27.1 M17.85 -21.2 L18.25 -21.65 Q18.75 -22.3 18.85 -23.3 18.75 -22.3 18.25 -21.65 L17.85 -21.2 M19.6 -20.35 L20.0 -20.75 Q20.6 -21.4 20.75 -22.2 20.6 -21.4 20.0 -20.75 L19.6 -20.35 M0.25 -6.45 Q-0.25 -4.0 -1.55 -1.8 -2.3 -0.55 -3.3 0.5 L-6.95 3.95 -3.3 0.5 Q-2.3 -0.55 -1.55 -1.8 -0.25 -4.0 0.25 -6.45 M24.55 7.6 L25.15 7.3 25.65 5.75 26.35 3.5 27.1 1.1 Q27.95 -1.5 28.25 -4.0 L28.5 -7.1 Q28.55 -9.2 27.1 -10.85 L24.2 -14.1 20.8 -17.65 16.55 -18.75 10.75 -19.0 5.55 -18.3 2.05 -17.35 Q-0.5 -16.45 -2.75 -14.95 L-4.2 -14.15 Q-5.0 -13.8 -5.85 -13.75 L-11.5 -12.7 -14.7 -12.35 -17.25 -12.1 -14.7 -12.35 -11.5 -12.7 -5.85 -13.75 Q-5.0 -13.8 -4.2 -14.15 L-2.75 -14.95 Q-0.5 -16.45 2.05 -17.35 L5.55 -18.3 10.75 -19.0 16.55 -18.75 20.8 -17.65 24.2 -14.1 27.1 -10.85 Q28.55 -9.2 28.5 -7.1 L28.25 -4.0 Q27.95 -1.5 27.1 1.1 L26.35 3.5 25.65 5.75 25.15 7.3 24.55 7.6 M-10.35 -30.0 L-10.2 -28.5 -10.3 -24.35 Q-10.4 -22.85 -10.8 -21.45 -11.05 -20.7 -10.95 -19.55 L-6.1 -18.25 -3.2 -18.35 Q-2.3 -18.4 -1.55 -18.95 -0.45 -19.8 0.4 -20.95 1.85 -22.75 2.45 -25.15 1.85 -22.75 0.4 -20.95 -0.45 -19.8 -1.55 -18.95 -2.3 -18.4 -3.2 -18.35 L-6.1 -18.25 -10.95 -19.55 Q-11.05 -20.7 -10.8 -21.45 -10.4 -22.85 -10.3 -24.35 L-10.2 -28.5 -10.35 -30.0 M24.7 -3.25 Q24.8 -1.0 23.95 1.2 L23.45 2.55 26.35 3.5 23.45 2.55 21.9 5.1 25.65 5.75 21.9 5.1 23.45 2.55 23.95 1.2 Q24.8 -1.0 24.7 -3.25 M-16.4 -31.6 L-16.25 -30.7 -15.85 -24.85 Q-15.7 -22.05 -16.9 -19.6 L-29.15 -18.6 -29.65 -20.0 -30.55 -24.3 -32.15 -29.3 -32.85 -30.9 -32.15 -29.3 -30.55 -24.3 -29.65 -20.0 -29.15 -18.6 -16.9 -19.6 Q-15.7 -22.05 -15.85 -24.85 L-16.25 -30.7 -16.4 -31.6 M-30.15 -11.7 Q-30.0 -12.35 -30.0 -12.95 L-30.2 -15.05 -30.7 -17.45 -31.0 -18.15 -31.8 -18.2 Q-33.1 -19.2 -33.85 -21.2 L-33.9 -21.5 -33.35 -22.0 Q-33.6 -24.05 -34.7 -25.9 L-36.65 -25.55 -34.7 -25.9 Q-33.6 -24.05 -33.35 -22.0 L-33.9 -21.5 -33.85 -21.2 Q-33.1 -19.2 -31.8 -18.2 L-31.0 -18.15 -30.7 -17.45 -30.2 -15.05 -30.0 -12.95 Q-30.0 -12.35 -30.15 -11.7 M-27.95 -4.55 L-28.15 -4.8 -30.5 -7.4 -32.95 -9.55 -30.5 -7.4 -28.15 -4.8 -27.95 -4.55 -27.3 -3.85 -27.15 -3.7 Q-26.7 -3.7 -26.8 -4.2 L-26.95 -4.5 -27.95 -4.55 M-21.4 -16.25 L-21.05 -16.8 -21.05 -17.0 -21.4 -16.9 -21.4 -16.25 -21.1 -14.45 -19.55 -14.45 Q-18.5 -12.0 -19.05 -9.2 -16.9 -8.95 -14.8 -10.0 L-14.7 -12.35 -14.8 -10.0 Q-16.9 -8.95 -19.05 -9.2 -18.5 -12.0 -19.55 -14.45 L-21.1 -14.45 -21.4 -16.25 M-22.85 -14.2 L-21.1 -14.45 -22.85 -14.2 Q-23.35 -13.05 -24.1 -13.7 -23.35 -13.05 -22.85 -14.2 L-23.8 -14.55 -24.2 -13.85 -24.1 -13.7 -24.2 -13.85 -23.8 -14.55 -22.85 -14.2 M-29.9 -2.5 Q-30.4 -1.55 -31.05 -0.9 L-31.55 -0.45 -31.05 -0.9 Q-30.4 -1.55 -29.9 -2.5 M-6.0 5.4 Q-4.2 4.65 -2.5 3.55 -1.5 2.85 -1.2 1.75 -1.5 2.85 -2.5 3.55 -4.2 4.65 -6.0 5.4 M-4.6 -13.4 Q-3.9 -11.05 -4.7 -8.95 L-5.2 -7.6 Q-5.75 -7.05 -6.5 -7.15 L-12.0 -6.6 Q-10.8 -9.45 -11.5 -12.7 -10.8 -9.45 -12.0 -6.6 L-6.5 -7.15 Q-5.75 -7.05 -5.2 -7.6 L-4.7 -8.95 Q-3.9 -11.05 -4.6 -13.4 M-2.35 -13.75 Q-1.3 -14.8 -0.05 -15.4 -1.3 -14.8 -2.35 -13.75 M-30.15 0.15 L-29.7 -0.2 Q-29.1 -0.75 -28.85 -1.45 -29.1 -0.75 -29.7 -0.2 L-30.15 0.15 M-2.05 7.6 L-4.4 9.1 -2.05 7.6" fill="url(#gradient3)" fill-rule="evenodd" stroke="none"/>
    <path d="M22.1 -29.9 L24.75 -30.6 29.5 -31.85 30.05 -22.35 23.0 -20.9 22.25 -21.35 22.1 -29.9 M33.2 -23.15 L32.8 -30.85 38.25 -29.05 38.65 -28.95 47.65 -29.65 43.45 -23.4 36.0 -23.85 33.2 -23.15 M0.9 -26.4 L8.9 -31.55 12.7 -31.2 14.15 -31.45 16.25 -32.55 17.15 -32.35 17.35 -32.3 18.9 -32.1 18.9 -32.0 17.2 -32.05 14.25 -29.65 12.4 -27.85 10.4 -27.15 9.1 -26.7 4.25 -24.95 0.9 -26.4 M0.45 -33.35 L1.15 -31.25 0.2 -31.35 -0.3 -31.6 -0.3 -31.75 -0.3 -31.6 -1.5 -27.45 -3.8 -28.5 -2.1 -31.65 -0.3 -31.75 0.3 -33.3 0.45 -33.35 M17.15 -32.35 L17.2 -32.05 17.15 -32.35 M8.65 -30.7 L9.1 -26.7 8.65 -30.7 M6.1 -24.45 Q7.3 -25.15 8.6 -25.65 L13.7 -27.5 18.0 -28.85 18.3 -23.6 17.15 -23.95 13.35 -24.15 6.1 -24.45 M14.25 -29.65 L14.15 -31.45 14.25 -29.65 M16.85 -27.8 L17.15 -23.95 16.85 -27.8 M9.8 -30.85 L10.4 -27.15 9.8 -30.85 M39.65 -13.55 L35.4 -12.65 Q33.25 -12.25 31.35 -12.65 L29.3 -15.0 30.15 -15.0 35.3 -14.8 30.15 -15.0 29.3 -15.0 26.0 -18.25 31.7 -18.4 34.6 -18.4 37.85 -18.3 35.3 -14.8 36.75 -14.8 38.65 -14.9 36.75 -14.8 38.65 -18.25 46.25 -18.0 41.6 -12.0 40.2 -12.05 41.85 -13.0 41.5 -13.25 39.9 -14.3 38.65 -14.9 39.65 -13.55 M48.75 -8.9 L46.55 -11.9 45.95 -11.9 49.85 -16.8 51.9 -15.0 55.25 -14.65 51.95 -11.15 Q50.6 -9.65 48.75 -8.9 M31.35 -17.25 L30.15 -15.0 31.35 -17.25 M36.0 -23.85 L38.65 -28.95 36.0 -23.85 M51.9 -15.0 L49.0 -12.8 Q47.9 -12.05 46.55 -11.9 47.9 -12.05 49.0 -12.8 L51.9 -15.0" fill="#371e73" fill-opacity="0.7529412" fill-rule="evenodd" stroke="none"/>
    <path d="M30.05 -22.35 L33.2 -23.15 36.0 -23.85 43.45 -23.4 43.35 -20.2 43.45 -23.4 47.65 -29.65 47.95 -29.7 Q47.45 -26.7 45.9 -24.25 L43.35 -20.2 37.5 -19.3 24.85 -19.3 23.0 -20.9 30.05 -22.35 M0.25 -27.7 L-0.65 -27.1 -1.5 -27.45 -0.3 -31.6 0.2 -31.35 1.15 -31.25 1.4 -30.35 0.25 -27.7 M19.05 -32.0 L15.95 -28.9 12.4 -27.85 14.25 -29.65 17.2 -32.05 18.9 -32.0 19.05 -32.0 M31.35 -12.65 Q33.25 -12.25 35.4 -12.65 L39.65 -13.55 41.5 -13.25 41.85 -13.0 40.2 -12.05 32.05 -11.8 40.2 -12.05 41.6 -12.0 45.95 -11.9 46.55 -11.9 48.75 -8.9 38.15 -10.0 43.3 -7.9 41.3 -7.4 35.7 -7.0 34.1 -9.3 32.7 -11.05 32.05 -11.8 31.35 -12.65 M38.15 -10.0 L32.7 -11.05 38.15 -10.0" fill="#1a0e36" fill-opacity="0.7529412" fill-rule="evenodd" stroke="none"/>
    <path d="M33.95 -33.7 L30.75 -32.05 29.5 -31.85 29.5 -32.75 29.5 -31.85 30.75 -32.05 33.95 -33.7 37.25 -32.65 42.65 -31.05 47.75 -29.8 47.65 -29.65 38.65 -28.95 38.25 -29.05 38.5 -31.6 38.25 -29.05 32.8 -30.85 33.2 -23.15 30.05 -22.35 29.5 -31.85 24.75 -30.6 22.1 -29.9 18.0 -28.85 17.95 -29.5 18.0 -28.85 22.1 -29.9 22.25 -21.35 20.75 -22.2 18.85 -23.3 18.3 -23.6 18.0 -28.85 13.7 -27.5 8.6 -25.65 Q7.3 -25.15 6.1 -24.45 L5.75 -24.55 4.25 -24.95 9.1 -26.7 10.4 -27.15 12.4 -27.85 15.95 -28.9 17.95 -29.5 29.5 -32.75 29.55 -32.75 33.95 -33.7 M30.75 -32.05 L32.8 -30.85 30.75 -32.05 M0.25 -27.7 L2.8 -29.45 7.2 -32.55 7.4 -32.3 Q7.85 -31.85 8.9 -31.55 L0.9 -26.4 -0.65 -27.1 0.25 -27.7 M0.3 -33.3 L-0.3 -31.75 -2.1 -31.65 -1.45 -32.5 -0.05 -33.05 0.3 -33.3 M41.5 -13.25 L39.65 -13.55 38.65 -14.9 39.9 -14.3 41.5 -13.25 M36.75 -14.8 L35.3 -14.8 37.85 -18.3 34.6 -18.4 31.7 -18.4 26.0 -18.25 24.85 -19.3 37.5 -19.3 50.65 -18.85 48.85 -17.7 46.25 -18.0 48.85 -17.7 50.65 -18.85 55.25 -14.65 51.9 -15.0 49.85 -16.8 48.85 -17.7 49.85 -16.8 45.95 -11.9 41.6 -12.0 46.25 -18.0 38.65 -18.25 36.75 -14.8 M38.65 -18.25 L37.85 -18.3 38.65 -18.25" fill="#542eaf" fill-opacity="0.7529412" fill-rule="evenodd" stroke="none"/>
    <path d="M-27.7 -28.35 Q-24.0 -29.0 -20.65 -30.35 L-19.85 -31.5 -17.75 -32.45 -17.6 -32.4 -17.95 -30.5 -19.25 -29.85 -19.3 -29.2 -18.4 -28.0 -19.3 -24.65 Q-20.75 -24.3 -21.9 -25.55 -23.3 -27.15 -24.85 -25.95 L-25.5 -26.05 -27.7 -28.35" fill="#000000" fill-rule="evenodd" stroke="none"/>
    <path d="M-17.25 -12.1 L-14.7 -12.35 -11.5 -12.7 -5.85 -13.75 Q-5.0 -13.8 -4.2 -14.15 L-2.75 -14.95 Q-0.5 -16.45 2.05 -17.35 L5.55 -18.3 10.75 -19.0 16.55 -18.75 20.8 -17.65 24.2 -14.1 27.1 -10.85 Q28.55 -9.2 28.5 -7.1 L28.25 -4.0 Q27.95 -1.5 27.1 1.1 L26.35 3.5 25.65 5.75 25.15 7.3 24.55 7.6 M35.7 -7.0 L35.65 -3.25 35.45 2.5 35.1 8.15 34.8 12.3 34.4 15.05 33.5 17.6 32.7 18.5 30.3 19.75 25.1 21.8 19.6 23.8 14.05 25.5 10.05 26.7 5.95 27.45 M-27.5 0.9 L-30.15 0.15 -31.55 -0.45 -32.85 -1.1 -35.9 -3.5 -36.85 -4.45 -41.95 -6.75 M-41.95 -7.0 L-41.05 -9.2 Q-40.1 -11.4 -39.85 -13.85 -39.6 -16.6 -40.35 -19.15 L-41.6 -23.1 -43.1 -27.2 -39.55 -28.4 -38.4 -28.6 -32.85 -30.9 -32.0 -31.15 -31.7 -31.05 -30.65 -30.85 -30.35 -30.8 -29.75 -30.6 -28.7 -29.6 -28.45 -29.4 -27.75 -28.45 -27.7 -28.35 Q-24.0 -29.0 -20.65 -30.35 L-19.85 -31.5 -20.4 -31.55 -21.25 -31.55 M-17.6 -32.4 L-16.7 -32.35 -13.3 -31.55 -7.8 -29.9 -3.8 -28.5 M-17.75 -32.45 L-17.6 -32.55 -17.6 -32.4 -17.75 -32.45 -19.85 -31.5 M-27.7 -28.35 L-25.5 -26.05 -24.85 -25.95 Q-23.3 -27.15 -21.9 -25.55 -20.75 -24.3 -19.3 -24.65 L-18.4 -28.0 -19.3 -29.2 -19.25 -29.85 -17.95 -30.5 -17.6 -32.4 M-38.4 -28.6 L-36.65 -25.55 -35.05 -22.2 -33.3 -18.0 Q-32.7 -16.4 -32.4 -14.7 -32.2 -13.6 -32.35 -12.4 L-32.95 -9.55 -34.7 -6.35 -36.85 -4.45" fill="none" stroke="#000000" stroke-linecap="round" stroke-linejoin="round" stroke-width="0.05"/>
    <path d="M19.05 -32.1 L19.05 -32.0 M0.4 -33.45 L0.35 -33.35 0.3 -33.3" fill="none" stroke="#00ff00" stroke-linecap="round" stroke-linejoin="round" stroke-width="0.05"/>
    <path d="M47.95 -29.7 L47.95 -29.8 47.75 -29.8" fill="none" stroke="#006600" stroke-linecap="round" stroke-linejoin="round" stroke-width="0.05"/>
    <path d="M29.5 -32.75 L29.5 -31.85 30.75 -32.05 33.95 -33.7 29.55 -32.75 29.5 -32.75 17.95 -29.5 18.0 -28.85 22.1 -29.9 24.75 -30.6 29.5 -31.85 M30.05 -22.35 L33.2 -23.15 36.0 -23.85 43.45 -23.4 47.65 -29.65 47.75 -29.8 42.65 -31.05 37.25 -32.65 33.95 -33.7 M32.8 -30.85 L30.75 -32.05 M38.25 -29.05 L38.65 -28.95 47.65 -29.65 47.95 -29.7 Q47.45 -26.7 45.9 -24.25 L43.35 -20.2 37.5 -19.3 24.85 -19.3 26.0 -18.25 29.3 -15.0 31.35 -12.65 32.05 -11.8 40.2 -12.05 41.85 -13.0 41.5 -13.25 39.65 -13.55 38.65 -14.9 36.75 -14.8 35.3 -14.8 30.15 -15.0 29.3 -15.0 M38.25 -29.05 L38.5 -31.6 M32.8 -30.85 L38.25 -29.05 M8.9 -31.55 Q7.85 -31.85 7.4 -32.3 L7.2 -32.55 2.8 -29.45 0.25 -27.7 -0.65 -27.1 0.9 -26.4 8.9 -31.55 12.7 -31.2 14.15 -31.45 16.25 -32.55 17.15 -32.35 17.35 -32.3 18.9 -32.1 19.05 -32.1 M19.05 -32.0 L15.95 -28.9 17.95 -29.5 M0.45 -33.35 L1.15 -31.25 1.4 -30.35 0.25 -27.7 M0.3 -33.3 L-0.3 -31.75 -0.3 -31.6 0.2 -31.35 1.15 -31.25 M0.3 -33.3 L0.45 -33.35 M0.9 -26.4 L4.25 -24.95 9.1 -26.7 8.65 -30.7 M17.2 -32.05 L17.15 -32.35 M18.9 -32.0 L19.05 -32.0 M18.9 -32.0 L17.2 -32.05 14.25 -29.65 12.4 -27.85 15.95 -28.9 M10.4 -27.15 L12.4 -27.85 M18.0 -28.85 L13.7 -27.5 8.6 -25.65 Q7.3 -25.15 6.1 -24.45 L13.35 -24.15 17.15 -23.95 16.85 -27.8 M14.15 -31.45 L14.25 -29.65 M9.1 -26.7 L10.4 -27.15 9.8 -30.85 M18.3 -23.6 L17.15 -23.95 M20.75 -22.2 Q20.6 -21.4 20.0 -20.75 L19.6 -20.35 M18.85 -23.3 Q18.75 -22.3 18.25 -21.65 L17.85 -21.2 M18.3 -23.6 L18.85 -23.3 20.75 -22.2 22.25 -21.35 23.0 -20.9 30.05 -22.35 M13.35 -24.15 L13.1 -21.35 Q10.15 -20.1 7.0 -20.55 L4.5 -20.75 Q5.1 -21.65 5.3 -22.65 L5.75 -24.55 4.25 -24.95 M14.6 -3.8 Q16.05 -3.3 17.1 -2.3 L17.7 -1.6 18.6 -2.45 Q18.2 -5.0 16.15 -6.35 L14.15 -7.35 14.25 -7.85 15.2 -9.2 15.45 -9.35 Q17.7 -8.9 19.0 -7.05 L19.45 -6.3 20.75 -7.35 Q20.4 -10.7 17.4 -12.0 L13.3 -13.4 13.0 -14.05 12.9 -15.8 16.5 -16.1 18.05 -15.5 23.7 -11.4 24.95 -12.5 20.25 -15.9 18.8 -17.15 Q17.95 -17.95 16.8 -17.85 13.95 -18.25 11.3 -17.9 L7.45 -17.45 2.2 -16.15 0.35 -15.6 -0.05 -15.4 Q0.15 -13.0 -0.05 -10.9 -0.25 -8.35 -1.1 -5.75 -1.9 -3.25 -3.35 -1.05 -4.9 1.35 -7.6 3.2 L-6.95 3.95 -3.3 0.5 Q-2.3 -0.55 -1.55 -1.8 -0.25 -4.0 0.25 -6.45 M6.1 -24.45 L5.75 -24.55 M39.65 -13.55 L35.4 -12.65 Q33.25 -12.25 31.35 -12.65 M26.0 -18.25 L31.7 -18.4 34.6 -18.4 37.85 -18.3 38.65 -18.25 46.25 -18.0 48.85 -17.7 50.65 -18.85 37.5 -19.3 M41.5 -13.25 L39.9 -14.3 38.65 -14.9 M23.0 -20.9 L24.85 -19.3 M5.95 27.45 L2.6 27.3 -0.45 26.6 -3.55 25.95 Q-6.25 25.9 -8.05 23.85 -9.85 21.8 -11.1 19.45 L-14.6 11.15 -15.9 8.85 Q-17.45 6.55 -19.15 4.4 L-27.5 0.9 -24.85 0.15 -19.5 -0.05 Q-16.7 -0.05 -13.95 0.7 L-8.5 2.45 -13.7 2.85 -19.15 4.4 M35.7 -7.0 L34.1 -9.3 32.7 -11.05 32.05 -11.8 M32.7 -11.05 L38.15 -10.0 48.75 -8.9 46.55 -11.9 45.95 -11.9 41.6 -12.0 40.2 -12.05 M30.15 -15.0 L31.35 -17.25 M38.65 -28.95 L36.0 -23.85 M2.45 -25.15 Q1.85 -22.75 0.4 -20.95 -0.45 -19.8 -1.55 -18.95 -2.3 -18.4 -3.2 -18.35 L-6.1 -18.25 -10.95 -19.55 Q-11.05 -20.7 -10.8 -21.45 -10.4 -22.85 -10.3 -24.35 L-10.2 -28.5 -10.35 -30.0 M55.25 -14.65 L50.65 -18.85 M49.85 -16.8 L51.9 -15.0 55.25 -14.65 51.95 -11.15 Q50.6 -9.65 48.75 -8.9 M43.35 -20.2 L43.45 -23.4 M49.85 -16.8 L48.85 -17.7 M38.15 -10.0 L43.3 -7.9 41.3 -7.4 35.7 -7.0 M46.55 -11.9 Q47.9 -12.05 49.0 -12.8 L51.9 -15.0 M26.35 3.5 L23.45 2.55 21.9 5.1 25.65 5.75 M23.45 2.55 L23.95 1.2 Q24.8 -1.0 24.7 -3.25 M2.7 22.25 L1.05 20.2 -0.5 17.75 -2.15 14.25 -4.4 9.1 -5.25 7.15 -10.4 9.7 Q-12.35 10.7 -14.6 11.15 M5.95 27.45 L4.95 25.3 Q4.15 23.5 2.7 22.25 0.55 24.35 -2.15 25.4 L-3.55 25.95 M-3.8 -28.5 L-2.1 -31.65 -1.45 -32.5 -0.05 -33.05 0.3 -33.3 M-32.85 -30.9 L-32.15 -29.3 -30.55 -24.3 -29.65 -20.0 -29.15 -18.6 -16.9 -19.6 Q-15.7 -22.05 -15.85 -24.85 L-16.25 -30.7 -16.4 -31.6 M-0.3 -31.75 L-2.1 -31.65 M-3.8 -28.5 L-1.5 -27.45 -0.3 -31.6 M-1.5 -27.45 L-0.65 -27.1 M-36.65 -25.55 L-34.7 -25.9 Q-33.6 -24.05 -33.35 -22.0 L-33.9 -21.5 -33.85 -21.2 Q-33.1 -19.2 -31.8 -18.2 L-31.0 -18.15 -30.7 -17.45 -30.2 -15.05 -30.0 -12.95 Q-30.0 -12.35 -30.15 -11.7 M-32.95 -9.55 L-30.5 -7.4 -28.15 -4.8 -27.95 -4.55 -26.95 -4.5 -26.8 -4.2 Q-26.7 -3.7 -27.15 -3.7 L-27.3 -3.85 -27.95 -4.55 M-21.4 -16.25 L-21.05 -16.8 -21.05 -17.0 -21.4 -16.9 -21.4 -16.25 -21.1 -14.45 -19.55 -14.45 Q-18.5 -12.0 -19.05 -9.2 -16.9 -8.95 -14.8 -10.0 L-14.7 -12.35 M-24.1 -13.7 Q-23.35 -13.05 -22.85 -14.2 L-23.8 -14.55 -24.2 -13.85 -24.1 -13.7 M-21.1 -14.45 L-22.85 -14.2 M-34.7 -6.35 L-33.9 -5.8 Q-32.0 -4.65 -31.5 -2.95 L-32.85 -1.1 M-31.55 -0.45 L-31.05 -0.9 Q-30.4 -1.55 -29.9 -2.5 M-28.85 -1.45 Q-29.1 -0.75 -29.7 -0.2 L-30.15 0.15 M-0.05 -15.4 Q-1.3 -14.8 -2.35 -13.75 M-11.5 -12.7 Q-10.8 -9.45 -12.0 -6.6 L-6.5 -7.15 Q-5.75 -7.05 -5.2 -7.6 L-4.7 -8.95 Q-3.9 -11.05 -4.6 -13.4 M-1.2 1.75 Q-1.5 2.85 -2.5 3.55 -4.2 4.65 -6.0 5.4 L-5.25 7.15 M-6.0 5.4 L-6.95 3.95 M-7.6 3.2 L-7.7 3.1 -8.5 2.45 M-4.4 9.1 L-2.05 7.6 M-11.1 19.45 L-6.25 17.4 Q-4.35 16.5 -3.0 15.0" fill="none" stroke="#8e00e2" stroke-linecap="round" stroke-linejoin="round" stroke-width="0.05"/>
    <path d="M38.1 -27.45 L37.6 -26.7 37.3 -26.65 36.9 -26.65 36.8 -26.5 36.15 -24.85 36.05 -24.45 36.05 -24.0 36.05 -23.75 35.7 -23.25 36.3 -21.8 34.55 -21.4 33.8 -22.05 33.05 -21.85 Q31.75 -21.55 30.6 -20.95 L30.7 -20.5 30.7 -20.45 Q30.05 -19.95 29.1 -20.05 L28.65 -19.95 28.4 -19.95 28.15 -20.05 27.7 -20.65 27.3 -20.6 25.7 -20.35 23.95 -19.85 23.35 -20.3 22.0 -20.95 20.95 -21.8 20.85 -22.2 24.45 -22.9 27.55 -23.65 29.15 -24.5 28.4 -27.65 29.9 -25.35 30.3 -24.9 31.05 -25.35 30.3 -29.4 31.25 -27.2 Q31.6 -26.15 32.4 -25.55 L33.25 -25.9 33.35 -28.4 33.4 -28.4 34.1 -25.75 35.75 -26.1 36.25 -27.75 38.05 -27.55 38.1 -27.45" fill="#000000" fill-rule="evenodd" stroke="none"/>
    <path d="M-13.85 -31.5 L-13.5 -31.95 -12.9 -32.1 -12.75 -32.1 Q-11.85 -29.85 -11.7 -27.45 -11.55 -25.2 -10.65 -22.95 L-9.9 -20.5 Q-9.65 -19.35 -9.75 -18.25 -9.95 -16.35 -8.85 -14.85 L-8.0 -13.75 Q-6.85 -12.4 -7.15 -10.55 L-7.35 -8.15 Q-7.45 -6.1 -6.05 -4.55 L-6.2 -4.0 -6.6 -3.3 Q-7.55 -2.4 -8.6 -2.1 -9.9 -2.5 -10.8 -3.6 L-10.4 -7.4 -10.05 -10.15 Q-9.9 -11.25 -10.75 -12.15 L-11.4 -13.05 -11.75 -13.9 -11.5 -17.25 -11.35 -19.45 Q-11.4 -21.05 -12.65 -22.4 L-12.95 -23.2 -12.95 -27.35 -13.2 -28.2 Q-14.05 -29.7 -13.85 -31.5 M-6.8 -29.05 L-6.45 -29.65 -5.6 -29.8 Q-5.75 -28.9 -5.35 -27.95 L-3.95 -25.55 -4.5 -22.8 Q-4.8 -20.95 -3.5 -19.4 L-4.0 -18.25 -4.55 -18.15 Q-5.1 -18.35 -5.55 -18.7 L-6.55 -19.7 Q-6.85 -20.4 -6.75 -21.15 L-6.35 -23.75 Q-6.15 -24.65 -6.25 -25.55 L-6.8 -29.05 M-13.95 -32.25 L-13.85 -31.55 Q-15.8 -29.75 -14.8 -27.35 L-14.55 -26.6 Q-14.45 -25.95 -14.7 -25.4 L-15.45 -22.65 -15.45 -21.4 -15.55 -20.1 -15.95 -17.9 Q-16.6 -14.9 -15.15 -12.2 L-15.75 -10.7 -17.8 -10.65 Q-18.8 -11.85 -18.65 -13.2 L-18.4 -15.15 Q-18.3 -16.3 -18.55 -17.3 -19.0 -18.85 -18.55 -20.4 -17.85 -22.6 -16.35 -24.55 L-16.3 -26.75 -16.0 -29.95 Q-15.75 -31.8 -13.95 -32.25" fill="#446237" fill-rule="evenodd" stroke="none"/>
    <path d="M23.0 -29.5 L23.85 -29.75 23.9 -29.7 24.85 -30.1 M23.9 -29.7 L25.05 -26.3 26.75 -26.75 26.35 -27.9 28.3 -28.5 28.25 -29.05 28.35 -29.25 28.85 -29.55 29.0 -29.3 Q29.15 -28.75 28.95 -28.4 L28.3 -28.5 M33.35 -28.4 L33.25 -25.9 32.4 -25.55 Q31.6 -26.15 31.25 -27.2 L30.3 -29.4 31.05 -25.35 30.3 -24.9 29.9 -25.35 28.4 -27.65 29.15 -24.5 27.55 -23.65 24.45 -22.9 20.85 -22.2 20.95 -21.8 22.0 -20.95 23.35 -20.3 23.95 -19.85 25.7 -20.35 27.3 -20.6 27.7 -20.65 28.15 -20.05 28.4 -19.95 28.65 -19.95 29.1 -20.05 Q30.05 -19.95 30.7 -20.45 L30.7 -20.5 30.6 -20.95 Q31.75 -21.55 33.05 -21.85 L33.8 -22.05 34.55 -21.4 36.3 -21.8 35.7 -23.25 36.05 -23.75 36.05 -24.0 36.05 -24.45 36.15 -24.85 36.8 -26.5 36.9 -26.65 37.3 -26.65 37.6 -26.7 38.1 -27.45 38.2 -27.5 38.05 -27.55 36.25 -27.75 35.75 -26.1 34.1 -25.75 33.4 -28.4 33.35 -28.55 33.35 -28.4 M1.9 -25.45 Q2.55 -28.15 5.4 -27.9 L5.55 -28.05 5.5 -28.2 3.35 -28.5 2.1 -28.05 1.35 -25.9 M9.35 -24.5 L12.7 -28.35 14.15 -29.4 Q15.4 -30.05 16.85 -30.1 L18.2 -29.5 18.85 -29.45 18.85 -29.35 Q18.55 -28.7 17.9 -29.05 L17.95 -29.25 18.2 -29.5 M12.9 -24.4 Q14.65 -27.05 17.85 -27.3 18.95 -27.45 19.75 -26.75 M26.75 -26.75 Q27.05 -25.15 27.6 -23.8 L27.55 -23.65 M49.85 -5.2 Q49.5 -7.0 49.65 -7.8 L49.85 -9.4 Q49.25 -8.95 49.15 -9.5 L49.25 -10.25 49.5 -10.5 Q49.8 -10.6 50.1 -10.2 L50.2 -10.05 49.9 -9.4 49.85 -9.4 M35.95 -3.85 Q36.9 -4.35 37.6 3.3 M-13.85 -31.5 Q-14.05 -29.7 -13.2 -28.2 L-12.95 -27.35 -12.95 -23.2 -12.65 -22.4 Q-11.4 -21.05 -11.35 -19.45 L-11.5 -17.25 -11.75 -13.9 -11.4 -13.05 -10.75 -12.15 Q-9.9 -11.25 -10.05 -10.15 L-10.4 -7.4 -10.8 -3.6 Q-9.9 -2.5 -8.6 -2.1 -7.55 -2.4 -6.6 -3.3 L-6.2 -4.0 -6.05 -4.55 Q-7.45 -6.1 -7.35 -8.15 L-7.15 -10.55 Q-6.85 -12.4 -8.0 -13.75 L-8.85 -14.85 Q-9.95 -16.35 -9.75 -18.25 -9.65 -19.35 -9.9 -20.5 L-10.65 -22.95 Q-11.55 -25.2 -11.7 -27.45 -11.85 -29.85 -12.75 -32.1 L-12.9 -32.1 -13.5 -31.95 -13.85 -31.5 M-12.75 -32.1 Q-12.7 -32.55 -12.9 -32.1 M-13.95 -32.25 Q-15.75 -31.8 -16.0 -29.95 L-16.3 -26.75 -16.35 -24.55 Q-17.85 -22.6 -18.55 -20.4 -19.0 -18.85 -18.55 -17.3 -18.3 -16.3 -18.4 -15.15 L-18.65 -13.2 Q-18.8 -11.85 -17.8 -10.65 L-15.75 -10.7 -15.15 -12.2 Q-16.6 -14.9 -15.95 -17.9 L-15.55 -20.1 -15.45 -21.4 -15.45 -22.65 -14.7 -25.4 Q-14.45 -25.95 -14.55 -26.6 L-14.8 -27.35 Q-15.8 -29.75 -13.85 -31.55 L-13.95 -32.25 M-6.8 -29.05 L-6.25 -25.55 Q-6.15 -24.65 -6.35 -23.75 L-6.75 -21.15 Q-6.85 -20.4 -6.55 -19.7 L-5.55 -18.7 Q-5.1 -18.35 -4.55 -18.15 L-4.0 -18.25 -3.5 -19.4 Q-4.8 -20.95 -4.5 -22.8 L-3.95 -25.55 -5.35 -27.95 Q-5.75 -28.9 -5.6 -29.8 L-6.45 -29.65 -6.8 -29.05 Z" fill="none" stroke="#000000" stroke-linecap="round" stroke-linejoin="round" stroke-width="0.05"/>
  </g>
  <defs>
    <radialGradient cx="0" cy="0" gradientTransform="matrix(0.0749, 0.0, 0.0, 0.0583, -13.45, -19.9)" gradientUnits="userSpaceOnUse" id="gradient0" r="819.2" spreadMethod="pad">
      <stop offset="0.0" stop-color="#3f4039"/>
      <stop offset="0.8274509803921568" stop-color="#282d22"/>
      <stop offset="1.0" stop-color="#1e1e1e"/>
    </radialGradient>
    <linearGradient gradientTransform="matrix(1.0E-4, 0.0108, -0.0056, 1.0E-4, -26.25, -19.75)" gradientUnits="userSpaceOnUse" id="gradient1" spreadMethod="pad" x1="-819.2" x2="819.2">
      <stop offset="0.0" stop-color="#564036"/>
      <stop offset="0.5137254901960784" stop-color="#a38a6d"/>
      <stop offset="1.0" stop-color="#564036"/>
    </linearGradient>
    <linearGradient gradientTransform="matrix(0.0076, -0.0042, 0.0017, 0.003, -17.3, 2.25)" gradientUnits="userSpaceOnUse" id="gradient2" spreadMethod="pad" x1="-819.2" x2="819.2">
      <stop offset="0.0" stop-color="#6351ae" stop-opacity="0.67058825"/>
      <stop offset="1.0" stop-color="#49ff40" stop-opacity="0.2"/>
    </linearGradient>
    <radialGradient cx="0" cy="0" gradientTransform="matrix(0.0749, 0.0, 0.0, 0.0583, -13.45, -19.9)" gradientUnits="userSpaceOnUse" id="gradient3" r="819.2" spreadMethod="pad">
      <stop offset="0.0" stop-color="#363443"/>
      <stop offset="0.8274509803921568" stop-color="#282d22"/>
      <stop offset="1.0" stop-color="#1e1e1e"/>
    </radialGradient>
  </defs>
</svg>
