<?xml version="1.0" encoding="UTF-8" standalone="no"?>
<svg xmlns:xlink="http://www.w3.org/1999/xlink" height="23.3px" width="28.2px" xmlns="http://www.w3.org/2000/svg">
  <g transform="matrix(1.0, 0.0, 0.0, 1.0, 0.0, 0.0)">
    <path d="M13.8 6.85 Q16.2 3.75 17.55 0.0 25.1 5.5 28.45 14.1 L27.45 14.95 Q22.9 16.6 18.6 18.55 L9.55 22.15 4.9 23.25 3.05 23.05 2.5 22.8 2.45 22.75 Q-0.1 21.4 0.3 18.75 L6.55 13.65 7.05 15.25 8.15 15.15 Q9.3 15.9 9.4 17.65 L9.8 20.2 15.35 17.55 15.4 17.5 15.35 17.55 9.8 20.2 9.4 17.65 Q9.3 15.9 8.15 15.15 L7.05 15.25 6.55 13.65 10.3 10.1 13.8 6.85 14.7 9.25 16.35 9.35 Q17.85 9.7 18.8 10.9 20.0 12.4 20.8 14.15 21.6 13.45 22.45 12.85 24.25 11.7 25.15 9.95 24.25 11.7 22.45 12.85 21.6 13.45 20.8 14.15 20.0 12.4 18.8 10.9 17.85 9.7 16.35 9.35 L14.7 9.25 13.8 6.85 M20.8 14.15 L15.4 17.5 Q15.0 13.8 11.5 13.1 L10.8 13.2 10.3 10.1 10.8 13.2 11.5 13.1 Q15.0 13.8 15.4 17.5 L20.8 14.15 M9.8 20.2 L4.4 22.1 2.5 22.8 4.4 22.1 9.8 20.2" fill="url(#gradient0)" fill-rule="evenodd" stroke="none"/>
    <path d="M2.5 22.8 L3.05 23.05 4.9 23.25 9.55 22.15 18.6 18.55 Q22.9 16.6 27.45 14.95 L28.45 14.1 Q25.1 5.5 17.55 0.0 16.2 3.75 13.8 6.85 L14.7 9.25 16.35 9.35 Q17.85 9.7 18.8 10.9 20.0 12.4 20.8 14.15 21.6 13.45 22.45 12.85 24.25 11.7 25.15 9.95 M13.8 6.85 L10.3 10.1 10.8 13.2 11.5 13.1 Q15.0 13.8 15.4 17.5 L20.8 14.15 M6.55 13.65 L7.05 15.25 8.15 15.15 Q9.3 15.9 9.4 17.65 L9.8 20.2 15.35 17.55 15.4 17.5 M6.55 13.65 L0.3 18.75 Q-0.1 21.4 2.45 22.75 L2.5 22.8 4.4 22.1 9.8 20.2 M10.3 10.1 L6.55 13.65" fill="none" stroke="#000000" stroke-linecap="round" stroke-linejoin="round" stroke-width="0.05"/>
  </g>
  <defs>
    <linearGradient gradientTransform="matrix(0.0064, 0.0087, -0.0045, 0.0033, 2.85, 19.45)" gradientUnits="userSpaceOnUse" id="gradient0" spreadMethod="pad" x1="-819.2" x2="819.2">
      <stop offset="0.0" stop-color="#564036"/>
      <stop offset="0.5137254901960784" stop-color="#a38a6d"/>
      <stop offset="1.0" stop-color="#564036"/>
    </linearGradient>
  </defs>
</svg>
