<?xml version="1.0" encoding="UTF-8" standalone="no"?>
<svg xmlns:xlink="http://www.w3.org/1999/xlink" height="31.3px" width="42.4px" xmlns="http://www.w3.org/2000/svg">
  <g transform="matrix(1.0, 0.0, 0.0, 1.0, 0.0, 0.0)">
    <path d="M40.7 14.65 L42.55 15.45 40.45 20.8 37.9 26.05 35.1 30.6 Q34.35 31.6 33.05 31.7 L30.05 30.85 28.95 30.5 27.3 30.0 25.2 29.4 21.25 28.8 16.2 28.3 13.6 27.95 Q10.9 27.55 8.6 26.05 L4.4 23.15 Q2.45 21.75 1.4 19.7 0.2 17.25 0.5 14.55 -0.1 11.6 0.4 8.8 0.95 5.95 2.5 3.6 4.25 1.0 7.1 0.4 L7.75 0.4 9.2 0.45 7.95 2.5 10.15 3.55 11.5 3.9 13.0 1.0 11.5 3.9 10.15 3.55 7.95 2.5 9.2 0.45 11.2 0.65 13.0 1.0 16.85 1.95 16.0 7.2 19.25 8.3 26.4 10.45 27.05 10.45 29.0 7.4 27.05 10.45 26.4 10.45 19.25 8.3 16.0 7.2 16.85 1.95 18.0 2.3 28.0 6.8 27.9 7.0 28.05 6.8 29.0 7.4 30.8 8.5 32.65 10.0 36.5 12.5 40.7 14.65 39.05 18.55 37.35 22.35 35.3 26.0 32.85 29.25 35.3 26.0 37.35 22.35 39.05 18.55 40.7 14.65 M32.6 23.1 L35.35 17.35 34.85 16.4 33.45 14.95 Q31.45 13.7 29.35 12.6 L30.8 8.5 29.35 12.6 Q31.45 13.7 33.45 14.95 L34.85 16.4 35.35 17.35 32.6 23.1 M27.9 7.0 L26.5 9.2 17.05 5.55 18.0 2.3 17.05 5.55 26.5 9.2 27.9 7.0 M25.55 15.8 L26.25 16.35 26.0 16.5 25.3 16.75 24.85 16.1 25.55 15.8 24.85 16.1 25.3 16.75 26.0 16.5 26.25 16.35 25.55 15.8 M25.4 13.0 Q25.8 13.45 25.4 13.55 24.8 13.6 24.75 13.05 L25.4 13.0 24.75 13.05 Q24.8 13.6 25.4 13.55 25.8 13.45 25.4 13.0 M22.75 9.75 L22.0 12.05 21.65 12.9 20.8 12.9 Q20.4 13.0 20.1 13.25 L19.3 14.2 18.8 15.15 19.3 14.2 20.1 13.25 Q20.4 13.0 20.8 12.9 L21.65 12.9 22.0 12.05 22.75 9.75 M27.6 27.5 L27.5 26.25 Q27.3 23.8 26.0 21.7 24.65 19.45 22.5 17.8 L18.8 15.15 22.5 17.8 Q24.65 19.45 26.0 21.7 27.3 23.8 27.5 26.25 L27.6 27.5 M22.0 12.05 L24.75 13.05 22.0 12.05 M32.0 10.05 L31.2 12.5 Q32.65 12.85 34.0 13.65 L35.55 14.65 Q36.95 15.55 37.45 17.15 L34.7 23.8 35.75 24.0 34.7 23.8 37.45 17.15 Q36.95 15.55 35.55 14.65 L34.0 13.65 Q32.65 12.85 31.2 12.5 L32.0 10.05 M7.95 6.35 Q8.75 5.5 8.4 4.35 8.0 3.15 6.5 2.8 L7.75 0.4 6.5 2.8 Q8.0 3.15 8.4 4.35 8.75 5.5 7.95 6.35 M18.8 15.15 L14.6 13.4 9.2 11.75 3.6 10.25 9.2 11.75 14.6 13.4 18.8 15.15 M1.0 15.2 L0.5 14.55 1.0 15.2 M28.05 28.75 L27.3 30.0 28.05 28.75 M35.3 24.95 L34.35 24.65 30.05 30.85 34.35 24.65 35.3 24.95 M24.85 16.1 L19.3 14.2 24.85 16.1 M31.3 26.15 L28.95 30.5 31.3 26.15" fill="url(#gradient0)" fill-rule="evenodd" stroke="none"/>
    <path d="M30.05 30.85 L33.05 31.7 Q34.35 31.6 35.1 30.6 L37.9 26.05 40.45 20.8 42.55 15.45 40.7 14.65 39.05 18.55 37.35 22.35 35.3 26.0 32.85 29.25 M40.7 14.65 L36.5 12.5 32.65 10.0 30.8 8.5 29.35 12.6 Q31.45 13.7 33.45 14.95 L34.85 16.4 35.35 17.35 32.6 23.1 M28.05 6.8 L28.0 6.8 18.0 2.3 17.05 5.55 26.5 9.2 27.9 7.0 M29.0 7.4 L28.05 6.8 M18.8 15.15 L22.5 17.8 Q24.65 19.45 26.0 21.7 27.3 23.8 27.5 26.25 L27.6 27.5 M30.8 8.5 L29.0 7.4 M16.85 1.95 L13.0 1.0 11.2 0.65 9.2 0.45 7.75 0.4 7.1 0.4 Q4.25 1.0 2.5 3.6 0.95 5.95 0.4 8.8 -0.1 11.6 0.5 14.55 L1.0 15.2 M18.0 2.3 L16.85 1.95 M3.6 10.25 L9.2 11.75 14.6 13.4 18.8 15.15 M0.5 14.55 Q0.2 17.25 1.4 19.7 2.45 21.75 4.4 23.15 L8.6 26.05 Q10.9 27.55 13.6 27.95 L16.2 28.3 21.25 28.8 25.2 29.4 27.3 30.0 28.95 30.5 30.05 30.85" fill="none" stroke="#000000" stroke-linecap="round" stroke-linejoin="round" stroke-width="0.05"/>
    <path d="M16.85 1.95 L16.0 7.2 19.25 8.3 26.4 10.45 27.05 10.45 29.0 7.4 M18.8 15.15 L19.3 14.2 20.1 13.25 Q20.4 13.0 20.8 12.9 L21.65 12.9 22.0 12.05 22.75 9.75 M25.4 13.0 L24.75 13.05 Q24.8 13.6 25.4 13.55 25.8 13.45 25.4 13.0 M25.55 15.8 L24.85 16.1 25.3 16.75 26.0 16.5 26.25 16.35 25.55 15.8 M35.75 24.0 L34.7 23.8 37.45 17.15 Q36.95 15.55 35.55 14.65 L34.0 13.65 Q32.65 12.85 31.2 12.5 L32.0 10.05 M24.75 13.05 L22.0 12.05 M13.0 1.0 L11.5 3.9 10.15 3.55 7.95 2.5 9.2 0.45 M7.75 0.4 L6.5 2.8 Q8.0 3.15 8.4 4.35 8.75 5.5 7.95 6.35 M27.3 30.0 L28.05 28.75 M30.05 30.85 L34.35 24.65 35.3 24.95 M28.95 30.5 L31.3 26.15 M19.3 14.2 L24.85 16.1" fill="none" stroke="#00ff00" stroke-linecap="round" stroke-linejoin="round" stroke-width="0.05"/>
    <path d="M21.45 19.0 L21.6 19.35 21.45 19.7 21.1 19.85 20.75 19.7 20.6 19.35 20.75 19.0 Q20.9 18.85 21.1 18.85 L21.45 19.0 M23.15 22.3 L23.5 22.15 23.85 22.3 24.0 22.65 23.85 23.0 23.5 23.15 23.15 23.0 23.0 22.65 23.15 22.3 M1.7 11.2 Q1.85 11.05 2.05 11.05 L2.4 11.2 2.55 11.55 2.4 11.9 2.05 12.05 1.7 11.9 1.55 11.55 1.7 11.2 M9.75 13.7 Q9.9 13.55 10.1 13.55 L10.45 13.7 10.6 14.05 10.45 14.4 10.1 14.55 9.75 14.4 9.6 14.05 9.75 13.7 M5.75 12.4 L6.1 12.25 6.45 12.4 6.6 12.75 6.45 13.1 6.1 13.25 5.75 13.1 5.6 12.75 5.75 12.4 M17.5 17.0 Q17.65 16.85 17.85 16.85 L18.2 17.0 18.35 17.35 18.2 17.7 17.85 17.85 17.5 17.7 17.35 17.35 Q17.35 17.15 17.5 17.0 M13.9 15.1 L14.25 15.25 14.4 15.6 14.25 15.95 13.9 16.1 13.55 15.95 13.4 15.6 13.55 15.25 13.9 15.1 M24.05 26.45 L24.4 26.3 24.75 26.45 24.9 26.8 24.75 27.15 24.4 27.3 24.05 27.15 23.9 26.8 24.05 26.45" fill="#00ff00" fill-rule="evenodd" stroke="none"/>
  </g>
  <defs>
    <radialGradient cx="0" cy="0" gradientTransform="matrix(0.0491, 0.0153, -0.0091, 0.0292, 25.45, 4.7)" gradientUnits="userSpaceOnUse" id="gradient0" r="819.2" spreadMethod="pad">
      <stop offset="0.0" stop-color="#3f4039"/>
      <stop offset="0.8274509803921568" stop-color="#282d22"/>
      <stop offset="1.0" stop-color="#1e1e1e"/>
    </radialGradient>
  </defs>
</svg>
