<?xml version="1.0" encoding="UTF-8" standalone="no"?>
<svg xmlns:xlink="http://www.w3.org/1999/xlink" height="9.4px" width="32.5px" xmlns="http://www.w3.org/2000/svg">
  <g transform="matrix(1.0, 0.0, 0.0, 1.0, 0.0, 0.0)">
    <path d="M-85.15 19.3 Q-85.2 18.05 -84.25 17.35 -83.5 16.8 -82.55 16.9 L-79.6 17.55 Q-78.1 18.0 -76.75 17.15 -75.95 16.65 -76.55 15.7 -77.3 14.35 -77.35 12.85 -77.4 10.85 -75.2 11.15 -74.6 11.25 -74.1 11.75 L-72.05 13.35 -71.2 13.75 -70.25 14.3 -69.25 14.95 -68.5 14.85 -68.15 14.65" fill="none" stroke="#00ff00" stroke-linecap="round" stroke-linejoin="round" stroke-width="0.05"/>
    <path d="M-97.45 9.9 L-97.3 11.65 -97.15 11.95 Q-98.45 11.2 -99.5 12.85 L-100.5 14.65 -100.65 15.5" fill="none" stroke="#00ff00" stroke-linecap="round" stroke-linejoin="round" stroke-width="0.05"/>
  </g>
</svg>
