<?xml version="1.0" encoding="UTF-8" standalone="no"?>
<svg xmlns:xlink="http://www.w3.org/1999/xlink" height="12.85px" width="27.05px" xmlns="http://www.w3.org/2000/svg">
  <g transform="matrix(1.0, 0.0, 0.0, 1.0, 0.0, 0.0)">
    <path d="M-103.3 19.85 Q-103.3 20.35 -103.1 19.35 L-102.7 18.7 -102.1 18.1 Q-103.3 18.2 -103.05 17.0 L-102.35 15.25 Q-101.65 14.05 -103.0 13.7 -104.55 13.35 -103.9 11.95" fill="none" stroke="#00ff00" stroke-linecap="round" stroke-linejoin="round" stroke-width="0.05"/>
    <path d="M-82.8 9.35 Q-81.05 13.05 -77.35 14.85 -76.95 15.05 -77.05 15.4 L-77.65 16.75 -78.05 17.35 Q-78.4 17.95 -79.05 18.35 L-80.5 19.85 Q-80.75 20.3 -80.4 21.0 -79.9 22.0 -79.0 22.2" fill="none" stroke="#00ff00" stroke-linecap="round" stroke-linejoin="round" stroke-width="0.05"/>
  </g>
</svg>
