<?xml version="1.0" encoding="UTF-8" standalone="no"?>
<svg xmlns:xlink="http://www.w3.org/1999/xlink" height="18.1px" width="8.35px" xmlns="http://www.w3.org/2000/svg">
  <g transform="matrix(1.0, 0.0, 0.0, 1.0, 0.0, 0.0)">
    <path d="M-119.95 21.9 Q-118.4 20.4 -118.35 18.4 -118.35 17.95 -118.65 17.65 L-120.25 16.4 -122.15 15.05 -123.65 13.9 Q-124.2 13.45 -124.95 13.15 L-126.7 12.55 -126.55 12.1 -124.65 10.8 -122.4 9.65 Q-121.85 9.5 -121.4 9.15 -120.6 8.6 -119.65 8.7 -119.4 8.75 -119.35 8.4 -119.25 7.9 -119.5 7.35 L-119.9 6.05 Q-119.95 5.7 -119.6 5.35 L-118.5 4.65 -118.85 4.15 -119.1 4.0 -119.4 3.8" fill="none" stroke="#00ff00" stroke-linecap="round" stroke-linejoin="round" stroke-width="0.05"/>
  </g>
</svg>
