<?xml version="1.0" encoding="UTF-8" standalone="no"?>
<svg xmlns:xlink="http://www.w3.org/1999/xlink" height="84.55px" width="53.15px" xmlns="http://www.w3.org/2000/svg">
  <g transform="matrix(1.0, 0.0, 0.0, 1.0, 0.0, 0.0)">
    <path d="M-93.8 40.3 Q-94.45 40.4 -94.1 40.15 L-94.35 39.75 Q-95.55 38.15 -95.8 36.2 -95.95 34.65 -95.2 33.35 L-92.65 29.95 Q-91.9 29.15 -91.8 28.15 L-91.4 25.95 Q-90.2 21.9 -88.25 18.1 -86.8 15.3 -85.8 12.4 -84.25 8.2 -84.65 3.85 -84.95 0.25 -87.3 -2.65 -89.75 -5.8 -93.15 -8.15 L-99.6 -12.55 Q-101.6 -13.95 -103.35 -15.7 L-104.05 -16.65 -102.35 -17.15 -94.4 -18.25 Q-89.9 -18.8 -85.6 -20.0 -84.55 -20.25 -84.1 -21.2 -83.8 -21.7 -83.65 -22.3 L-83.55 -23.35 -83.55 -25.8 Q-83.6 -26.45 -84.05 -26.95 -85.2 -28.2 -86.5 -29.35 L-88.6 -31.55 -88.65 -31.95 -88.45 -32.25 -88.15 -32.45 -87.7 -32.4 -85.1 -31.1 Q-84.4 -30.75 -83.6 -30.75 L-82.55 -30.9 Q-81.05 -31.25 -81.45 -32.75 L-81.65 -33.6 -81.9 -35.45 Q-82.0 -37.55 -80.1 -37.9 -81.65 -40.0 -80.05 -42.1 L-79.1 -43.3 -78.7 -43.75 Q-78.05 -44.3 -77.15 -44.2 L-76.9 -44.05 M-61.85 -23.65 Q-62.25 -23.45 -62.65 -23.4 L-63.4 -23.45 Q-64.85 -23.85 -65.8 -25.25 L-67.7 -25.2 -68.9 -22.6 Q-69.2 -21.75 -69.85 -21.5 L-71.5 -21.45 -75.0 -22.0 Q-76.05 -22.0 -76.9 -21.45 L-77.8 -20.45 -78.55 -19.95 Q-79.45 -19.85 -80.2 -20.45 -81.25 -21.25 -82.55 -21.7 L-83.65 -22.3 M-54.05 -18.55 L-54.9 -14.65 Q-55.4 -12.75 -54.85 -10.9 -54.3 -9.0 -53.2 -7.3 L-51.85 -5.0 -51.25 -3.3 Q-50.8 -1.55 -50.9 0.25 -50.95 1.05 -51.6 1.55 L-54.75 3.7 Q-56.3 4.7 -57.2 6.25 -57.8 7.25 -57.5 8.55 L-57.05 11.05 -56.9 13.15 Q-56.95 14.35 -55.65 14.75 L-53.8 14.95 Q-53.35 14.9 -52.95 14.5 -51.8 15.9 -51.85 18.0 L-52.05 18.85 Q-52.25 19.5 -52.7 19.8 L-53.65 19.9 -56.5 18.35 Q-60.55 15.95 -64.5 18.55 -65.8 19.45 -65.85 20.95 -65.85 22.15 -65.45 23.2 L-64.95 23.8 Q-64.5 24.2 -64.4 24.75 -64.35 25.0 -64.6 25.15 -65.4 25.9 -65.8 26.85 -66.05 27.45 -66.65 27.95" fill="none" stroke="#00ff00" stroke-linecap="round" stroke-linejoin="round" stroke-width="0.05"/>
  </g>
</svg>
