<?xml version="1.0" encoding="UTF-8" standalone="no"?>
<svg xmlns:xlink="http://www.w3.org/1999/xlink" height="84.1px" width="41.75px" xmlns="http://www.w3.org/2000/svg">
  <g transform="matrix(1.0, 0.0, 0.0, 1.0, 0.0, 0.0)">
    <path d="M-75.0 -48.1 Q-76.1 -45.25 -77.6 -42.7 -78.1 -41.75 -79.1 -41.65 L-81.45 -41.8 Q-84.1 -42.5 -86.15 -40.45 -87.5 -39.1 -88.3 -37.55 -89.25 -35.6 -89.2 -33.3 -89.1 -30.45 -89.3 -27.7 -89.5 -25.25 -90.95 -23.35 -92.2 -21.75 -94.2 -20.9 -95.85 -20.15 -97.6 -19.55 -99.25 -18.95 -98.15 -17.7 -96.6 -15.8 -94.4 -14.45 L-93.35 -13.65 -92.7 -12.95 -91.65 -11.4 Q-91.0 -10.2 -90.85 -8.8 -90.7 -7.5 -90.85 -6.2 -91.0 -4.7 -90.5 -3.5 -89.65 -1.5 -88.15 0.25 -86.55 2.15 -85.5 4.25 -84.65 6.05 -84.35 8.05 -84.1 9.7 -83.4 11.1 L-81.75 13.45 Q-80.2 15.1 -79.85 17.3 -79.7 18.15 -80.3 18.9 L-81.7 20.4 -82.55 20.9 Q-84.8 21.55 -85.4 23.8 -85.6 24.45 -85.1 25.2 L-83.8 27.2 Q-83.45 27.8 -83.35 28.45 L-82.95 30.2 Q-82.8 30.75 -83.15 31.35 -83.75 32.45 -84.95 33.1 -86.7 34.0 -87.1 36.0 M-61.55 29.0 Q-60.95 26.3 -62.9 24.15 -64.6 22.25 -66.65 20.7 L-66.1 20.3 Q-63.3 19.1 -60.65 17.7 -58.35 16.55 -57.35 14.5 -56.45 12.65 -57.2 10.35 -58.7 5.9 -61.05 1.8 -63.15 -1.9 -65.6 -5.4 L-67.45 -7.5 -67.7 -7.2 Q-68.15 -6.45 -68.7 -5.8 -69.35 -5.1 -70.05 -5.2 -70.95 -5.35 -71.8 -6.2 -76.5 -10.65 -81.8 -14.35 -83.05 -15.15 -82.85 -16.5 -82.65 -18.1 -81.1 -19.05 -78.1 -20.95 -74.75 -22.3 L-72.6 -23.1 Q-72.05 -21.75 -71.05 -20.9 -69.2 -19.3 -66.85 -18.65 L-62.9 -18.25 Q-62.35 -18.25 -62.15 -18.7 -61.55 -19.85 -61.45 -21.2 L-61.55 -22.55 -57.6 -22.8 Q-57.4 -22.8 -57.25 -23.1 -56.7 -24.25 -57.0 -24.3" fill="none" stroke="#00ff00" stroke-linecap="round" stroke-linejoin="round" stroke-width="0.05"/>
  </g>
</svg>
