<?xml version="1.0" encoding="UTF-8" standalone="no"?>
<svg xmlns:xlink="http://www.w3.org/1999/xlink" height="74.4px" width="38.4px" xmlns="http://www.w3.org/2000/svg">
  <g transform="matrix(1.0, 0.0, 0.0, 1.0, 0.0, 0.0)">
    <path d="M-76.6 -36.8 Q-76.65 -36.15 -77.25 -35.8 L-78.95 -34.35 Q-80.45 -32.55 -80.8 -30.3 -81.05 -28.75 -80.3 -27.5 -79.15 -25.65 -77.65 -24.0 -75.8 -21.9 -74.8 -19.35 L-72.2 -12.2 Q-71.1 -8.85 -69.05 -6.1 -66.8 -3.1 -63.85 -0.7 L-61.4 1.2 -59.7 2.4 -58.85 2.95 Q-59.4 -0.6 -58.1 -3.75 -57.75 -4.45 -56.7 -4.5 L-52.95 -4.65 Q-52.25 -4.7 -52.05 -5.3 -51.45 -6.55 -51.25 -8.05 -51.05 -9.0 -50.45 -9.55 -50.0 -9.95 -49.25 -9.75 L-47.1 -8.8 Q-46.75 -8.6 -46.45 -8.55 -46.1 -8.45 -45.75 -8.7 L-44.65 -8.85 M-61.4 1.2 Q-62.9 1.65 -62.6 2.95 L-62.5 3.75 -62.05 5.1 Q-60.0 7.55 -59.35 10.75 L-58.65 13.05 Q-58.0 14.65 -59.4 15.35 -60.85 16.1 -62.3 17.0 -63.15 17.6 -63.45 18.45 L-63.65 20.4 Q-63.55 21.5 -64.05 22.35 -65.45 25.0 -68.3 26.05 -69.1 26.35 -69.65 26.85 -72.55 29.7 -76.6 30.25 -78.05 30.5 -79.3 31.1 -80.5 31.7 -81.4 32.8 -83.1 34.95 -83.05 37.6" fill="none" stroke="#00ff00" stroke-linecap="round" stroke-linejoin="round" stroke-width="0.05"/>
  </g>
</svg>
