<?xml version="1.0" encoding="UTF-8" standalone="no"?>
<svg xmlns:xlink="http://www.w3.org/1999/xlink" height="48.65px" width="49.1px" xmlns="http://www.w3.org/2000/svg">
  <g transform="matrix(1.0, 0.0, 0.0, 1.0, 0.0, 0.0)">
    <path d="M-81.2 -7.0 Q-82.35 -6.55 -82.1 -5.1 L-81.45 -2.5 Q-80.9 -0.9 -79.9 0.4 L-77.5 3.75 Q-75.95 6.05 -75.05 8.7 -74.05 11.55 -72.75 14.2 -71.5 16.65 -69.3 18.35 L-64.1 22.5 Q-62.75 23.65 -63.15 24.9 -63.7 27.0 -65.85 28.3 -67.85 29.55 -70.2 30.25 L-72.8 30.9 Q-73.4 31.0 -73.55 31.5 -73.8 32.25 -73.3 32.7 -72.45 33.6 -71.25 34.1 L-70.7 34.35 Q-71.65 35.8 -73.25 36.8 -73.65 37.05 -73.75 37.6 L-73.55 38.9 -72.55 40.5 -72.1 40.9 -71.75 41.3 -71.25 41.65 M-33.05 16.9 Q-35.45 17.05 -37.6 18.3 L-37.9 18.55 Q-37.95 16.7 -39.85 16.35 L-43.8 15.85 Q-48.7 15.55 -53.05 13.55 -53.35 13.45 -53.2 13.05 -52.7 12.1 -51.8 11.45 -51.35 11.15 -50.8 11.0 L-51.65 10.6 -55.1 9.7 Q-57.25 9.25 -58.35 8.05 L-58.6 7.8 -55.4 5.1 -56.15 4.25 Q-56.65 3.6 -56.35 2.9 L-56.7 2.7" fill="none" stroke="#00ff00" stroke-linecap="round" stroke-linejoin="round" stroke-width="0.05"/>
  </g>
</svg>
