<?xml version="1.0" encoding="UTF-8" standalone="no"?>
<svg xmlns:xlink="http://www.w3.org/1999/xlink" height="40.55px" width="53.75px" xmlns="http://www.w3.org/2000/svg">
  <g transform="matrix(1.0, 0.0, 0.0, 1.0, 0.0, 0.0)">
    <path d="M-7.25 24.7 L-10.55 24.5 -11.3 24.45 Q-14.05 23.4 -16.95 23.1 -16.8 25.55 -15.45 27.7 -14.5 29.25 -14.0 30.9 -17.55 29.05 -21.5 29.65 L-23.4 29.8 -25.0 29.8 -27.2 29.35 -28.4 29.3 -29.05 29.8 -29.7 30.4 -30.1 30.35 -30.65 30.1 M-29.3 19.05 Q-28.75 18.8 -29.45 18.15 L-30.4 17.4 -30.65 17.2 -30.5 16.8 -29.0 15.65 Q-27.7 14.95 -28.7 13.85 -29.3 13.15 -30.2 12.85 L-32.25 12.35 M-31.45 39.75 L-26.25 40.2 Q-25.7 40.3 -25.45 41.15 L-24.45 43.6 -23.4 45.1 Q-22.45 46.05 -21.9 47.2 -21.35 48.35 -21.2 49.7 L-20.95 51.3 -19.65 51.0 -18.8 50.75 M-39.25 34.9 Q-38.5 36.2 -38.7 37.6 -40.05 36.85 -41.5 36.35 L-43.6 36.45 -45.15 37.6 Q-45.85 38.5 -46.85 37.9 L-50.5 35.65 -56.6 31.8 -58.45 31.7 -59.4 32.5 M-61.0 52.9 Q-60.85 50.45 -58.6 50.05 L-55.9 49.7 Q-54.7 49.6 -54.45 48.7 -54.3 48.2 -53.75 47.8" fill="none" stroke="#00ff00" stroke-linecap="round" stroke-linejoin="round" stroke-width="0.05"/>
  </g>
</svg>
