<?xml version="1.0" encoding="UTF-8" standalone="no"?>
<svg xmlns:xlink="http://www.w3.org/1999/xlink" height="18.9px" width="33.1px" xmlns="http://www.w3.org/2000/svg">
  <g transform="matrix(1.0, 0.0, 0.0, 1.0, 0.0, 0.0)">
    <path d="M4.0 22.55 Q2.75 22.15 1.35 23.1 L-0.15 24.7 Q-0.4 25.15 -0.15 25.75 L0.65 27.45 1.0 28.75 1.05 30.1 Q1.1 32.15 -1.1 32.4 -1.75 32.5 -2.2 32.85 L-2.15 33.3 M-29.05 26.05 Q-29.2 26.3 -28.75 26.25 L-27.05 26.6 -24.25 28.5 Q-22.45 30.1 -20.15 30.35 -21.4 32.15 -21.6 34.4 -21.65 35.3 -20.95 35.95 L-18.65 37.75 Q-18.0 38.15 -17.95 38.7 L-17.9 40.3 Q-17.9 40.85 -17.35 41.1 L-16.4 41.35" fill="none" stroke="#00ff00" stroke-linecap="round" stroke-linejoin="round" stroke-width="0.05"/>
  </g>
</svg>
