<?xml version="1.0" encoding="UTF-8" standalone="no"?>
<svg xmlns:xlink="http://www.w3.org/1999/xlink" height="17.95px" width="29.3px" xmlns="http://www.w3.org/2000/svg">
  <g transform="matrix(1.0, 0.0, 0.0, 1.0, 0.0, 0.0)">
    <path d="M-11.3 20.95 Q-14.65 19.7 -18.1 20.55 -19.1 20.8 -19.55 21.9 L-20.65 24.9 Q-20.85 25.65 -21.4 25.75 L-25.0 26.1 -29.6 26.1 Q-30.7 26.1 -31.55 26.7 L-32.85 27.3 -35.95 28.2 Q-37.25 28.6 -38.15 29.55 -38.55 29.95 -38.45 30.55 L-37.65 32.75 Q-37.35 33.3 -37.45 33.8 L-37.8 34.95 -38.6 35.7 -40.05 36.1 -40.6 36.25 Q-40.65 37.15 -40.05 37.85 L-39.8 38.15" fill="none" stroke="#00ff00" stroke-linecap="round" stroke-linejoin="round" stroke-width="0.05"/>
  </g>
</svg>
