<?xml version="1.0" encoding="UTF-8" standalone="no"?>
<svg xmlns:xlink="http://www.w3.org/1999/xlink" height="12.6px" width="31.1px" xmlns="http://www.w3.org/2000/svg">
  <g transform="matrix(1.0, 0.0, 0.0, 1.0, 0.0, 0.0)">
    <path d="M-77.15 9.95 Q-76.55 12.15 -74.2 11.7 L-72.85 11.3 Q-72.85 12.9 -72.3 14.3 -72.05 15.05 -71.2 15.4 L-69.7 16.45 Q-69.35 16.8 -69.7 17.15 -70.3 17.85 -71.25 18.3 -72.65 18.95 -74.2 19.05 L-73.35 19.8 Q-72.8 20.4 -71.85 20.05 L-69.65 19.05 -67.85 19.15 -67.5 19.05 Q-66.95 18.65 -66.15 18.8 M-93.8 22.55 Q-93.55 21.55 -94.05 20.9 L-94.35 20.4 Q-93.35 19.8 -91.65 19.6 -91.7 18.95 -92.35 18.55 L-93.95 17.35 Q-94.6 16.8 -95.5 16.45 L-97.25 15.75 Q-95.0 15.95 -93.95 13.85" fill="none" stroke="#00ff00" stroke-linecap="round" stroke-linejoin="round" stroke-width="0.05"/>
  </g>
</svg>
