<?xml version="1.0" encoding="UTF-8" standalone="no"?>
<svg xmlns:xlink="http://www.w3.org/1999/xlink" height="11.85px" width="42.2px" xmlns="http://www.w3.org/2000/svg">
  <g transform="matrix(1.0, 0.0, 0.0, 1.0, 0.0, 0.0)">
    <path d="M-80.1 24.7 L-77.4 22.9 -76.6 22.55 -76.9 22.4 -78.5 22.15 -78.75 22.0 -78.65 21.6 -77.15 20.15 -76.9 19.85 -82.55 19.1 -84.4 18.8 -83.5 17.55 -82.95 16.95 -82.35 15.75 -82.55 15.35 -83.35 14.75 M-114.5 26.6 Q-114.65 25.65 -115.15 24.75 -115.45 24.15 -115.9 24.65 L-116.35 24.95 -117.2 24.45 -118.8 23.1 -116.5 21.35 -115.6 20.4 Q-116.35 20.3 -116.4 19.6" fill="none" stroke="#00ff00" stroke-linecap="round" stroke-linejoin="round" stroke-width="0.05"/>
  </g>
</svg>
