<?xml version="1.0" encoding="UTF-8" standalone="no"?>
<svg xmlns:xlink="http://www.w3.org/1999/xlink" height="12.35px" width="20.95px" xmlns="http://www.w3.org/2000/svg">
  <g transform="matrix(1.0, 0.0, 0.0, 1.0, 0.0, 0.0)">
    <path d="M-77.7 14.75 L-77.1 14.95 -75.9 16.25 Q-75.4 16.8 -74.7 16.95 L-71.8 17.25 Q-70.15 17.3 -70.0 18.85 -69.9 19.9 -70.25 20.9 -70.55 21.75 -70.45 22.45 L-69.65 23.35 -68.85 23.9 Q-71.2 24.75 -73.7 24.4 L-75.0 24.5 Q-75.8 24.75 -75.75 25.8 L-75.55 27.1 M-89.8 24.15 Q-88.8 23.35 -88.15 22.35 L-87.9 22.0 Q-89.5 22.25 -89.45 20.7 -89.4 19.9 -89.8 19.35" fill="none" stroke="#00ff00" stroke-linecap="round" stroke-linejoin="round" stroke-width="0.05"/>
  </g>
</svg>
