<?xml version="1.0" encoding="UTF-8" standalone="no"?>
<svg xmlns:xlink="http://www.w3.org/1999/xlink" height="9.9px" width="36.05px" xmlns="http://www.w3.org/2000/svg">
  <g transform="matrix(1.0, 0.0, 0.0, 1.0, 0.0, 0.0)">
    <path d="M-85.5 23.1 L-84.15 21.2 -83.9 20.95 Q-84.85 20.25 -86.55 20.15 -86.95 20.15 -87.3 19.8 L-87.7 19.5 -88.45 19.35 -89.75 19.2 -90.6 18.8 -89.0 17.45 Q-90.1 16.9 -90.7 16.15 M-114.8 26.05 Q-114.3 25.55 -114.5 24.7 L-114.5 24.45 Q-116.8 25.55 -118.95 24.2 L-119.7 23.4 Q-120.3 22.55 -119.3 22.1 -117.75 21.4 -116.9 20.0 L-116.8 19.6 -116.7 18.55 -116.8 18.15 Q-117.05 17.85 -117.5 17.7" fill="none" stroke="#00ff00" stroke-linecap="round" stroke-linejoin="round" stroke-width="0.05"/>
  </g>
</svg>
