<?xml version="1.0" encoding="UTF-8" standalone="no"?>
<svg xmlns:xlink="http://www.w3.org/1999/xlink" height="14.5px" width="24.7px" xmlns="http://www.w3.org/2000/svg">
  <g transform="matrix(1.0, 0.0, 0.0, 1.0, 0.0, 0.0)">
    <path d="M-77.45 8.3 Q-78.05 9.75 -76.95 10.35 L-75.35 10.95 Q-74.35 11.15 -73.45 11.65 L-72.25 12.15 -71.0 12.3 -69.95 12.3 -69.45 12.65 Q-68.6 14.25 -66.7 14.5 M-66.95 16.1 L-68.25 15.65 -69.25 15.55 Q-70.15 16.0 -70.75 16.8 -71.0 17.2 -70.8 17.55 L-69.65 19.05 -69.35 19.35 Q-70.75 19.95 -72.05 20.95 -71.6 21.15 -71.25 21.75 -72.75 22.6 -74.45 22.8 M-90.85 21.5 Q-90.55 21.15 -91.15 20.15 -91.75 19.1 -90.95 18.7 -89.5 18.0 -87.9 17.7 L-86.3 17.4 -84.6 16.85 Q-83.35 16.4 -82.0 16.1 L-82.1 15.6 Q-82.55 14.15 -83.45 13.0 L-83.9 12.1 Q-84.25 10.7 -85.5 10.9 L-87.65 11.3 Q-86.85 10.05 -87.35 9.4" fill="none" stroke="#00ff00" stroke-linecap="round" stroke-linejoin="round" stroke-width="0.05"/>
  </g>
</svg>
