<?xml version="1.0" encoding="UTF-8" standalone="no"?>
<svg xmlns:xlink="http://www.w3.org/1999/xlink" height="39.5px" width="90.8px" xmlns="http://www.w3.org/2000/svg">
  <g transform="matrix(1.0, 0.0, 0.0, 1.0, 0.0, 0.0)">
    <path d="M-110.45 -73.0 Q-110.2 -72.5 -109.8 -74.45 L-109.6 -75.55 -108.4 -79.5 -107.9 -80.45 Q-106.9 -82.05 -104.45 -81.55 -102.15 -81.05 -99.9 -80.15 -94.8 -78.1 -91.05 -82.1 -87.9 -85.4 -85.3 -88.9 -83.8 -90.95 -85.1 -92.35 L-85.8 -93.15 -88.85 -96.6 Q-89.2 -97.0 -89.35 -97.55 -90.0 -99.5 -90.95 -100.5 -84.2 -104.85 -75.95 -104.95 L-74.35 -104.85 Q-73.95 -104.75 -73.55 -105.1 -68.6 -109.15 -63.3 -112.3 L-62.6 -112.25 Q-62.2 -112.0 -62.15 -111.5 -61.2 -103.7 -66.35 -97.9 -69.75 -94.05 -72.75 -89.85 -74.7 -87.1 -73.4 -84.55 -72.75 -83.3 -71.45 -83.25 L-69.95 -83.1 Q-66.05 -82.35 -62.4 -80.6 -60.8 -79.85 -60.45 -78.5 -59.85 -79.65 -58.45 -80.5 -55.0 -82.5 -53.15 -85.65 -52.95 -86.0 -53.15 -86.4 L-53.95 -87.5 Q-56.35 -89.95 -54.95 -93.5 -54.2 -95.5 -52.05 -96.6 L-48.55 -96.45 Q-46.3 -94.95 -44.45 -92.55 -43.45 -91.25 -42.0 -90.9 -39.45 -90.25 -39.75 -87.45 L-37.9 -86.7 -37.15 -86.75 -36.35 -87.35 -35.55 -88.05 Q-32.3 -90.3 -32.55 -94.0 -32.6 -95.1 -31.5 -94.9 -30.65 -94.7 -30.2 -93.45 -29.4 -90.95 -27.5 -90.5 -28.6 -90.35 -28.35 -89.0 -28.1 -87.65 -26.55 -87.3 L-25.95 -87.2 Q-23.55 -86.7 -22.1 -88.15 L-21.45 -88.1 -20.55 -87.9 Q-19.05 -87.5 -20.0 -87.0" fill="none" stroke="#00ff00" stroke-linecap="round" stroke-linejoin="round" stroke-width="0.05"/>
  </g>
</svg>
