<?xml version="1.0" encoding="UTF-8" standalone="no"?>
<svg xmlns:xlink="http://www.w3.org/1999/xlink" height="55.95px" width="156.6px" xmlns="http://www.w3.org/2000/svg">
  <g transform="matrix(1.0, 0.0, 0.0, 1.0, 0.0, 0.0)">
    <path d="M-125.45 -68.5 Q-125.45 -67.85 -124.9 -69.5 L-124.4 -70.45 Q-121.85 -74.5 -118.55 -78.1 -116.8 -80.05 -117.3 -82.4 L-117.8 -83.6 Q-119.3 -86.3 -122.2 -89.25 L-123.95 -90.5 Q-132.65 -95.15 -142.45 -96.4 -145.6 -96.8 -148.4 -98.1 -149.65 -98.7 -149.1 -99.85 -148.7 -100.75 -147.9 -101.45 -143.45 -105.25 -138.05 -107.7 L-132.35 -110.3 -120.4 -115.85 -117.55 -117.2 Q-115.55 -118.2 -114.45 -119.0 -113.6 -118.6 -113.7 -117.0 L-113.4 -116.05 Q-110.75 -112.3 -107.05 -109.35 L-104.3 -107.15 -100.0 -103.95 Q-95.4 -100.7 -93.15 -95.9 L-92.95 -95.0 -92.95 -94.0 Q-89.2 -93.95 -87.3 -97.4 L-86.0 -99.5 Q-80.85 -106.9 -81.15 -116.0 -81.2 -117.0 -81.55 -117.95 -82.4 -120.45 -83.95 -121.5 -83.8 -122.65 -82.3 -121.8 L-80.95 -121.55 -53.45 -124.0 Q-52.5 -122.85 -53.8 -121.4 -56.7 -118.15 -56.8 -114.0 -56.85 -110.0 -55.65 -106.45 -55.1 -104.9 -55.8 -104.3 L-56.5 -103.55 Q-57.45 -102.1 -57.85 -100.45 -58.05 -99.4 -57.05 -99.15 L-55.85 -98.7 -53.95 -98.05 Q-49.35 -97.25 -44.55 -97.95 -44.25 -98.0 -43.9 -98.45 -40.15 -103.6 -35.1 -107.65 L-32.4 -109.9 Q-28.8 -113.0 -25.75 -116.7 -25.5 -117.0 -25.5 -117.5 -25.45 -119.2 -26.3 -120.65 -26.5 -121.0 -26.3 -121.4 -25.7 -122.55 -24.45 -122.85 -18.45 -124.55 -12.0 -124.15 L-7.0 -123.8 Q-5.35 -123.65 -4.05 -122.9 L-3.55 -122.45 Q-2.6 -120.85 0.0 -120.9 4.3 -121.0 7.25 -118.25 7.5 -118.0 7.25 -117.7 6.75 -117.0 6.0 -116.55 -0.05 -112.95 -6.4 -109.8 L-9.6 -108.2 Q-15.6 -105.15 -20.0 -100.5 -21.0 -99.45 -20.95 -98.0 -20.9 -97.4 -19.95 -97.2 L-17.5 -96.9 Q-15.9 -96.75 -14.6 -95.85 -13.5 -95.1 -12.0 -95.2 L-10.5 -95.05 -7.35 -95.25 -6.5 -95.5 Q-7.85 -94.85 -7.75 -93.0 -7.75 -92.5 -7.35 -92.15 L-6.75 -91.35 Q-6.5 -91.0 -6.4 -90.5 -6.25 -89.75 -6.25 -89.0 L-6.3 -88.5 Q-6.35 -87.65 -5.55 -87.4 L-4.5 -87.0" fill="none" stroke="#00ff00" stroke-linecap="round" stroke-linejoin="round" stroke-width="0.05"/>
  </g>
</svg>
