<?xml version="1.0" encoding="UTF-8" standalone="no"?>
<svg xmlns:xlink="http://www.w3.org/1999/xlink" height="42.8px" width="129.5px" xmlns="http://www.w3.org/2000/svg">
  <g transform="matrix(1.0, 0.0, 0.0, 1.0, 0.0, 0.0)">
    <path d="M-126.45 -69.0 Q-127.05 -68.45 -127.0 -70.5 -126.9 -74.1 -124.95 -77.0 -123.9 -78.6 -121.45 -78.75 -112.2 -79.3 -102.95 -81.05 -94.25 -82.75 -86.45 -86.0 -88.0 -88.65 -91.4 -89.2 -93.3 -89.55 -95.05 -90.25 L-97.45 -91.1 Q-102.7 -92.5 -103.85 -97.0 -104.2 -98.35 -103.65 -99.6 L-102.75 -101.4 -99.9 -106.5 Q-97.85 -109.85 -95.35 -111.3 L-94.45 -111.4 Q-87.2 -110.0 -79.45 -110.6 L-62.45 -111.7 Q-61.7 -111.75 -61.2 -111.25 -60.95 -111.0 -61.1 -110.55 -61.85 -107.7 -64.35 -105.85 -66.25 -104.4 -66.85 -102.3 -66.95 -102.0 -66.35 -101.65 -64.55 -100.65 -62.45 -99.95 -57.1 -98.25 -59.15 -93.1 -60.05 -90.9 -61.4 -88.95 L-69.05 -78.05 Q-70.75 -75.65 -70.7 -73.0 -70.7 -72.5 -70.3 -72.25 L-69.45 -72.0 Q-62.1 -72.35 -54.9 -74.85 L-51.0 -75.9 Q-45.55 -77.05 -41.1 -80.15 -39.2 -81.5 -40.35 -82.65 L-41.6 -83.85 -42.5 -84.5 Q-45.75 -86.25 -45.65 -90.0 L-45.55 -98.5 Q-45.55 -99.3 -44.5 -99.25 L-35.0 -98.7 Q-28.0 -98.4 -21.55 -96.3 -20.45 -95.9 -19.9 -94.8 -19.75 -94.5 -20.0 -94.0 -20.5 -92.95 -21.85 -92.2 L-22.3 -91.5 Q-22.45 -90.55 -21.5 -90.0 -19.9 -89.0 -18.8 -87.1 -18.5 -86.5 -17.55 -86.7 -15.1 -87.15 -13.0 -88.55 L-9.1 -91.1 -5.5 -93.5 Q-5.3 -92.2 -4.4 -91.65 -2.55 -90.4 0.0 -90.25 L0.55 -90.05 Q1.95 -89.25 2.5 -87.5" fill="none" stroke="#00ff00" stroke-linecap="round" stroke-linejoin="round" stroke-width="0.05"/>
  </g>
</svg>
