<?xml version="1.0" encoding="UTF-8" standalone="no"?>
<svg xmlns:xlink="http://www.w3.org/1999/xlink" height="54.1px" width="132.65px" xmlns="http://www.w3.org/2000/svg">
  <g transform="matrix(1.0, 0.0, 0.0, 1.0, 0.0, 0.0)">
    <path d="M-125.95 -68.5 Q-124.95 -70.3 -124.8 -72.5 -124.6 -74.85 -125.8 -76.6 L-126.55 -77.95 -128.75 -82.15 -129.05 -83.0 Q-129.45 -85.0 -127.95 -85.55 -119.55 -88.7 -110.45 -89.0 L-91.45 -90.1 -88.45 -90.3 Q-85.75 -90.4 -86.3 -92.9 L-86.9 -94.05 Q-89.4 -96.85 -92.55 -99.4 -95.75 -102.0 -99.4 -104.05 L-101.0 -104.9 Q-103.15 -106.0 -104.3 -108.1 -106.2 -111.6 -105.95 -116.0 -105.8 -118.35 -104.0 -119.6 L-102.85 -120.35 Q-99.0 -122.7 -94.45 -122.6 L-75.95 -121.3 -72.0 -120.35 Q-68.75 -119.0 -69.1 -115.5 L-69.3 -114.0 Q-69.85 -109.95 -65.9 -108.65 L-63.45 -108.05 Q-59.45 -107.4 -56.05 -105.8 -54.6 -105.1 -54.9 -103.5 -55.2 -102.05 -56.2 -100.8 L-56.45 -100.0 Q-56.55 -97.85 -54.0 -96.85 -50.0 -95.25 -45.5 -95.25 L-44.0 -95.4 -43.1 -95.7 Q-42.5 -96.0 -41.95 -96.45 -38.15 -99.5 -38.05 -104.5 -38.0 -105.75 -37.55 -106.85 L-37.0 -107.0 Q-32.2 -107.15 -28.0 -109.0 -26.8 -109.5 -27.5 -110.25 L-26.95 -110.35 Q-24.85 -110.65 -22.9 -109.65 -20.45 -108.35 -18.35 -106.15 L-17.2 -104.85 -16.45 -103.55 Q-15.4 -101.25 -18.05 -99.55 -20.6 -97.85 -22.0 -95.5 -19.7 -94.45 -16.5 -93.9 L-15.0 -93.6 -8.5 -92.6 -5.95 -92.85 -5.0 -93.0 -1.0 -92.8 -0.65 -92.45 Q-0.1 -90.65 1.25 -89.65 L1.65 -89.05 2.05 -88.6 3.5 -88.0" fill="none" stroke="#00ff00" stroke-linecap="round" stroke-linejoin="round" stroke-width="0.05"/>
  </g>
</svg>
