<?xml version="1.0" encoding="UTF-8" standalone="no"?>
<svg xmlns:xlink="http://www.w3.org/1999/xlink" height="18.0px" width="78.45px" xmlns="http://www.w3.org/2000/svg">
  <g transform="matrix(1.0, 0.0, 0.0, 1.0, 0.0, 0.0)">
    <path d="M-96.45 -65.5 Q-96.3 -64.7 -95.55 -65.6 L-93.25 -68.35 -92.55 -69.1 Q-89.45 -71.95 -85.4 -70.75 L-75.95 -70.5 -63.9 -73.3 -61.95 -73.6 -51.95 -74.8 -49.0 -75.2 Q-47.85 -75.35 -46.9 -75.85 L-45.55 -76.55 Q-44.35 -77.1 -43.7 -78.6 -42.6 -81.05 -41.35 -82.35 -40.5 -83.25 -38.5 -83.1 -37.35 -83.0 -36.4 -82.1 L-32.65 -78.8 -31.3 -77.75 -30.5 -77.5 -26.0 -77.7 -25.0 -77.95 Q-23.95 -78.3 -23.6 -77.7 L-23.05 -77.35 -22.45 -77.2 -21.0 -77.0 -19.4 -76.7 -18.55 -76.65 -18.0 -77.0" fill="none" stroke="#00ff00" stroke-linecap="round" stroke-linejoin="round" stroke-width="0.05"/>
  </g>
</svg>
