<?xml version="1.0" encoding="UTF-8" standalone="no"?>
<svg xmlns:xlink="http://www.w3.org/1999/xlink" height="38.0px" width="89.8px" xmlns="http://www.w3.org/2000/svg">
  <g transform="matrix(1.0, 0.0, 0.0, 1.0, 0.0, 0.0)">
    <path d="M-114.95 -67.5 L-111.5 -76.5 -111.05 -78.0 Q-110.5 -80.65 -107.8 -81.6 L-106.95 -81.5 Q-103.7 -79.95 -99.95 -79.05 -93.25 -77.55 -86.85 -80.3 -83.8 -81.65 -81.45 -84.0 -76.4 -89.2 -77.25 -96.5 -77.65 -99.8 -75.1 -102.15 L-74.4 -102.95 -72.45 -105.5 Q-73.35 -101.25 -70.05 -99.1 -69.2 -98.5 -67.95 -98.5 -59.9 -98.45 -51.95 -99.8 -48.2 -100.45 -45.2 -99.1 -45.0 -99.0 -44.95 -98.5 -44.75 -96.9 -46.35 -96.15 L-48.0 -95.0 Q-51.05 -92.05 -54.5 -89.55 -57.95 -87.05 -58.35 -83.0 -58.5 -81.3 -56.45 -81.35 L-48.55 -81.0 -48.6 -80.5 -49.0 -78.5 Q-41.95 -78.8 -35.9 -82.85 L-34.55 -83.6 -33.95 -83.85 Q-32.9 -84.2 -32.4 -83.05 -32.25 -82.75 -32.0 -82.75 L-29.9 -82.35 -29.0 -82.25 Q-27.3 -82.3 -26.4 -82.7 -24.95 -81.2 -25.15 -79.5 -25.25 -78.5 -25.85 -77.85 L-29.25 -73.8 -29.65 -73.05 -30.05 -72.6 Q-30.85 -72.1 -30.35 -70.55 L-30.0 -70.0 -28.7 -69.1 -28.5 -68.5" fill="none" stroke="#00ff00" stroke-linecap="round" stroke-linejoin="round" stroke-width="0.05"/>
  </g>
</svg>
