<?xml version="1.0" encoding="UTF-8" standalone="no"?>
<svg xmlns:xlink="http://www.w3.org/1999/xlink" height="46.55px" width="90.05px" xmlns="http://www.w3.org/2000/svg">
  <g transform="matrix(1.0, 0.0, 0.0, 1.0, 0.0, 0.0)">
    <path d="M-58.45 -64.5 Q-58.9 -69.85 -56.1 -73.75 -55.95 -74.0 -55.45 -73.95 L-47.5 -73.4 Q-37.9 -72.55 -31.05 -79.05 -29.9 -80.1 -30.95 -81.55 L-31.5 -82.5 Q-33.65 -86.85 -37.35 -90.65 -38.55 -91.85 -38.95 -93.5 -40.35 -99.0 -36.0 -103.0 L-34.05 -104.15 -33.45 -104.3 Q-30.85 -104.8 -28.45 -104.25 L-26.5 -103.9 Q-21.7 -103.45 -17.6 -101.35 -16.15 -100.6 -16.25 -99.0 L-16.25 -98.5 -16.35 -97.45 Q-16.9 -94.85 -18.65 -92.6 -20.7 -89.95 -21.5 -87.0 -21.75 -86.05 -21.1 -85.4 L-19.85 -84.1 -19.05 -83.45 Q-16.65 -82.0 -18.05 -80.05 -19.35 -78.25 -20.95 -77.4 L-21.3 -76.95 Q-21.65 -75.55 -20.05 -75.3 L-19.45 -75.05 Q-17.3 -73.5 -16.0 -71.5 M-104.95 -65.0 Q-103.5 -67.15 -102.7 -70.55 -102.45 -71.5 -102.9 -72.05 -105.0 -74.8 -105.95 -78.0 -106.2 -78.95 -105.65 -79.65 L-103.35 -82.4 Q-102.45 -83.5 -101.7 -84.65 -101.45 -85.0 -101.6 -85.45 -102.1 -86.7 -102.85 -87.15 -103.5 -87.55 -103.95 -88.5 -97.85 -90.55 -91.35 -88.25 -88.45 -87.15 -85.9 -85.6 -82.1 -83.2 -81.6 -79.0 -81.35 -76.75 -82.55 -75.05 L-83.4 -73.95 Q-85.3 -71.8 -86.25 -69.45 L-86.4 -68.5 Q-86.3 -66.9 -85.1 -66.2 L-84.4 -65.55 Q-83.9 -64.75 -83.5 -63.5 L-82.8 -61.55 -82.65 -60.95 Q-82.55 -60.4 -83.45 -60.0 -84.55 -59.6 -84.9 -58.5 L-84.95 -58.0" fill="none" stroke="#00ff00" stroke-linecap="round" stroke-linejoin="round" stroke-width="0.05"/>
  </g>
</svg>
