<?xml version="1.0" encoding="UTF-8" standalone="no"?>
<svg xmlns:xlink="http://www.w3.org/1999/xlink" height="41.65px" width="71.35px" xmlns="http://www.w3.org/2000/svg">
  <g transform="matrix(1.0, 0.0, 0.0, 1.0, 0.0, 0.0)">
    <path d="M-87.95 -58.5 Q-87.95 -58.15 -86.55 -59.6 -85.3 -60.9 -84.2 -62.3 L-83.0 -63.55 Q-81.2 -65.1 -78.95 -65.2 L-77.95 -65.25 -76.45 -65.1 Q-66.6 -62.95 -58.0 -68.1 -52.8 -71.15 -49.9 -76.45 -48.35 -79.25 -46.1 -81.6 L-44.35 -83.35 Q-42.35 -85.25 -42.3 -88.0 -42.25 -89.9 -44.05 -90.95 -49.5 -94.1 -55.5 -96.35 -56.85 -96.9 -57.8 -97.7 L-58.3 -98.55 Q-58.55 -100.45 -56.45 -100.0 L-51.45 -98.75 -47.0 -98.1 -28.5 -98.0 -19.0 -97.8 Q-16.35 -97.65 -16.65 -95.5 L-17.1 -94.05 Q-17.75 -92.65 -18.9 -91.4 L-25.65 -84.15 -26.85 -82.85 -27.6 -82.1 Q-29.45 -80.05 -27.65 -78.8 L-27.05 -78.0 Q-26.4 -76.35 -27.1 -74.05 L-27.1 -73.1 Q-27.0 -72.75 -26.5 -72.7 L-22.5 -72.45 Q-20.05 -72.35 -20.45 -70.1 L-20.8 -69.35 -21.6 -68.05 Q-21.75 -67.75 -22.05 -67.6 -23.6 -66.9 -22.5 -66.0" fill="none" stroke="#00ff00" stroke-linecap="round" stroke-linejoin="round" stroke-width="0.05"/>
  </g>
</svg>
