<?xml version="1.0" encoding="UTF-8" standalone="no"?>
<svg xmlns:xlink="http://www.w3.org/1999/xlink" height="23.65px" width="58.55px" xmlns="http://www.w3.org/2000/svg">
  <g transform="matrix(1.0, 0.0, 0.0, 1.0, 0.0, 0.0)">
    <path d="M-92.45 -57.5 Q-92.95 -57.75 -91.05 -58.3 -90.45 -58.5 -89.85 -58.9 -87.85 -60.2 -85.95 -60.3 -82.5 -60.5 -82.05 -63.0 -81.85 -64.35 -82.35 -65.05 L-83.9 -67.55 -84.75 -69.1 -85.0 -70.0 Q-85.35 -72.9 -82.5 -74.15 L-80.9 -74.95 Q-75.35 -78.25 -69.35 -80.2 L-67.45 -80.6 Q-65.4 -80.9 -64.6 -79.15 L-64.0 -78.4 Q-60.25 -75.4 -55.45 -74.85 L-53.45 -74.65 Q-50.45 -74.3 -48.5 -73.5 -49.65 -71.1 -51.0 -69.5 -52.3 -67.85 -50.55 -66.45 L-50.0 -66.0 Q-47.15 -63.6 -43.45 -64.8 L-42.05 -65.15 -41.0 -65.3 Q-38.95 -65.4 -38.3 -64.1 L-37.7 -62.9 Q-37.1 -61.9 -35.5 -61.75 -35.0 -60.75 -35.2 -60.05 L-35.3 -59.45 Q-35.5 -58.5 -35.0 -58.0 L-34.0 -57.0" fill="none" stroke="#00ff00" stroke-linecap="round" stroke-linejoin="round" stroke-width="0.05"/>
  </g>
</svg>
