<?xml version="1.0" encoding="UTF-8" standalone="no"?>
<svg xmlns:xlink="http://www.w3.org/1999/xlink" height="30.05px" width="63.0px" xmlns="http://www.w3.org/2000/svg">
  <g transform="matrix(1.0, 0.0, 0.0, 1.0, 0.0, 0.0)">
    <path d="M-123.95 -59.5 Q-121.1 -62.3 -120.4 -66.5 -120.1 -68.1 -120.7 -68.75 L-120.9 -69.5 Q-120.5 -72.35 -117.35 -73.25 L-115.45 -73.6 -101.95 -74.25 -99.45 -74.4 Q-94.1 -75.05 -89.35 -77.3 -87.1 -78.35 -87.0 -80.5 L-86.6 -82.35 -85.9 -82.9 Q-80.45 -84.4 -74.95 -82.5 -71.75 -81.35 -69.1 -78.85 L-68.45 -78.0 Q-67.6 -76.25 -68.1 -74.05 -68.2 -73.5 -68.45 -73.0 -69.85 -70.15 -69.2 -67.45 -68.85 -66.1 -69.5 -65.05 L-69.95 -64.5 -70.45 -64.0 Q-68.35 -62.2 -64.95 -62.05 -63.2 -62.0 -62.65 -60.9 L-61.45 -59.0 Q-60.5 -57.8 -61.35 -55.95 -61.85 -54.9 -61.95 -53.5" fill="none" stroke="#00ff00" stroke-linecap="round" stroke-linejoin="round" stroke-width="0.05"/>
  </g>
</svg>
