<?xml version="1.0" encoding="UTF-8" standalone="no"?>
<svg xmlns:xlink="http://www.w3.org/1999/xlink" height="33.25px" width="21.8px" xmlns="http://www.w3.org/2000/svg">
  <g transform="matrix(1.0, 0.0, 0.0, 1.0, 0.0, 0.0)">
    <path d="M-101.45 -7.0 Q-101.7 -6.25 -101.05 -7.55 L-99.9 -9.45 Q-98.85 -11.05 -98.3 -12.95 L-98.15 -13.5 Q-98.05 -14.8 -98.8 -15.25 L-99.6 -15.85 Q-100.75 -17.05 -102.3 -18.2 L-102.95 -19.0 Q-104.45 -21.95 -101.95 -24.5 L-100.55 -26.05 Q-98.0 -29.15 -94.5 -30.6 -94.2 -30.75 -94.05 -31.05 -98.2 -32.8 -101.7 -35.8 -101.95 -36.0 -101.85 -36.45 -101.4 -38.25 -99.45 -39.05 L-98.45 -39.45 Q-94.35 -41.05 -90.95 -38.0 -87.25 -34.65 -84.2 -32.9 -83.95 -32.75 -83.7 -33.15 L-83.3 -33.95 -82.9 -34.45 -81.7 -35.5" fill="none" stroke="#00ff00" stroke-linecap="round" stroke-linejoin="round" stroke-width="0.05"/>
  </g>
</svg>
