<?xml version="1.0" encoding="UTF-8" standalone="no"?>
<svg xmlns:xlink="http://www.w3.org/1999/xlink" height="42.5px" width="29.4px" xmlns="http://www.w3.org/2000/svg">
  <g transform="matrix(1.0, 0.0, 0.0, 1.0, 0.0, 0.0)">
    <path d="M-121.95 4.0 Q-120.95 -3.35 -125.95 -8.0 -129.3 -11.15 -131.7 -14.2 -131.95 -14.5 -131.8 -14.95 -131.3 -16.65 -129.45 -17.55 -127.3 -18.65 -125.45 -20.5 -124.35 -21.55 -125.55 -23.45 -127.55 -26.65 -130.8 -28.7 L-132.5 -29.9 Q-133.9 -31.05 -134.25 -32.55 -134.6 -34.15 -133.85 -35.45 -133.4 -36.25 -132.45 -36.2 -128.15 -36.1 -124.85 -33.15 L-119.6 -28.35 -114.6 -23.85 Q-113.4 -22.75 -111.95 -22.75 L-111.4 -22.85 Q-110.2 -23.25 -110.2 -25.0 L-109.9 -25.45 Q-108.75 -26.35 -110.05 -27.9 -112.1 -30.3 -113.3 -33.05 -113.75 -34.05 -113.0 -34.2 L-112.4 -34.4 Q-110.2 -35.65 -107.85 -34.75 L-106.45 -34.5 -104.95 -34.5 Q-106.9 -35.25 -107.0 -38.0 L-107.0 -38.5" fill="none" stroke="#00ff00" stroke-linecap="round" stroke-linejoin="round" stroke-width="0.05"/>
  </g>
</svg>
