<?xml version="1.0" encoding="UTF-8" standalone="no"?>
<svg xmlns:xlink="http://www.w3.org/1999/xlink" height="15.25px" width="30.2px" xmlns="http://www.w3.org/2000/svg">
  <g transform="matrix(1.0, 0.0, 0.0, 1.0, 0.0, 0.0)">
    <path d="M-105.25 7.75 L-105.55 8.25 -105.8 8.7 Q-106.4 9.6 -105.9 10.45 -105.75 10.75 -105.25 10.7 L-99.8 11.15 -98.95 11.4 -97.25 12.0 Q-96.2 12.35 -95.7 13.0 -95.5 13.25 -95.6 13.75 L-95.75 14.25 Q-96.65 15.75 -98.5 16.3 L-99.0 16.4 -99.75 16.25 -102.25 15.75 Q-102.4 17.85 -101.35 19.1 -100.75 19.8 -101.35 20.4 L-101.7 20.6 -102.0 20.65 -102.75 20.7 Q-103.4 20.6 -103.25 21.25 L-102.75 21.25 M-123.0 18.25 Q-123.25 18.25 -122.55 17.45 L-122.25 17.0 -121.45 15.8 Q-120.8 14.85 -121.7 14.45 L-122.0 14.35 Q-124.8 13.4 -125.1 10.5 L-125.2 10.2 Q-125.4 9.75 -125.75 9.5 -124.7 8.85 -123.0 8.85 L-122.5 8.85 Q-121.8 8.8 -121.6 8.45 L-121.55 8.0 -121.6 7.5 -121.6 7.25 -121.6 6.25 -121.75 6.0" fill="none" stroke="#00ff00" stroke-linecap="round" stroke-linejoin="round" stroke-width="0.05"/>
  </g>
</svg>
