<?xml version="1.0" encoding="UTF-8" standalone="no"?>
<svg xmlns:xlink="http://www.w3.org/1999/xlink" height="19.75px" width="15.5px" xmlns="http://www.w3.org/2000/svg">
  <g transform="matrix(1.0, 0.0, 0.0, 1.0, 0.0, 0.0)">
    <path d="M-139.5 20.0 L-138.95 18.25 -138.95 17.55 Q-139.0 17.4 -139.2 17.2 -142.6 14.7 -147.25 13.8 L-150.3 12.85 Q-150.65 12.65 -150.5 12.0 -150.35 11.4 -149.8 10.9 -149.05 10.2 -148.2 9.85 L-147.75 9.75 -144.45 10.35 -143.25 10.55 Q-139.9 10.9 -136.5 10.65 L-136.25 10.55 Q-135.75 10.25 -136.35 9.55 L-137.8 8.3 -138.3 7.5 -138.45 7.0 -138.7 6.0 Q-138.75 5.4 -138.0 5.35 L-135.75 5.15 Q-135.4 4.15 -135.65 3.45 L-135.75 3.0 Q-135.8 1.9 -135.1 1.55 -135.0 1.5 -135.05 1.25 L-135.25 0.25" fill="none" stroke="#00ff00" stroke-linecap="round" stroke-linejoin="round" stroke-width="0.05"/>
  </g>
</svg>
