<?xml version="1.0" encoding="UTF-8" standalone="no"?>
<svg xmlns:xlink="http://www.w3.org/1999/xlink" height="13.0px" width="21.1px" xmlns="http://www.w3.org/2000/svg">
  <g transform="matrix(1.0, 0.0, 0.0, 1.0, 0.0, 0.0)">
    <path d="M-111.0 19.25 Q-111.2 17.45 -110.35 16.1 L-110.05 16.1 -107.0 16.9 -101.75 17.2 -100.0 16.9 -93.55 17.1 -92.7 17.45 -91.5 17.85 -91.0 17.9 Q-90.75 17.9 -90.55 17.7 -89.65 16.9 -90.15 15.95 L-90.3 15.5 Q-90.55 14.6 -91.15 13.85 L-91.75 13.25 Q-92.9 12.55 -94.25 12.4 L-96.5 12.15 Q-97.05 12.05 -97.25 11.75 -96.6 10.5 -94.5 10.4 L-94.25 10.25 -93.45 9.6 Q-92.95 9.3 -92.85 8.75 -92.65 7.8 -93.05 7.0 -93.3 6.55 -93.75 6.25" fill="none" stroke="#00ff00" stroke-linecap="round" stroke-linejoin="round" stroke-width="0.05"/>
  </g>
</svg>
