<?xml version="1.0" encoding="UTF-8" standalone="no"?>
<svg xmlns:xlink="http://www.w3.org/1999/xlink" height="7.25px" width="27.95px" xmlns="http://www.w3.org/2000/svg">
  <g transform="matrix(1.0, 0.0, 0.0, 1.0, 0.0, 0.0)">
    <path d="M-69.0 11.75 L-71.5 11.45 -72.25 11.3 Q-73.85 11.1 -74.85 12.15 L-76.0 13.05 -77.3 13.1 -77.7 12.9 -79.3 12.35 -79.75 12.2 -82.0 12.0 -84.25 12.2 -88.0 11.7 Q-90.05 11.05 -91.75 12.05 -92.2 12.3 -92.4 13.05 L-92.5 13.75 Q-92.55 14.95 -92.2 16.0 L-92.05 16.5 Q-91.8 17.45 -92.75 17.35 L-94.5 17.15 -95.25 17.05 -95.7 16.9 -96.75 16.85 Q-97.05 17.7 -96.85 18.05 L-96.75 18.5" fill="none" stroke="#00ff00" stroke-linecap="round" stroke-linejoin="round" stroke-width="0.05"/>
  </g>
</svg>
