<?xml version="1.0" encoding="UTF-8" standalone="no"?>
<svg xmlns:xlink="http://www.w3.org/1999/xlink" height="56.0px" width="28.65px" xmlns="http://www.w3.org/2000/svg">
  <g transform="matrix(1.0, 0.0, 0.0, 1.0, 0.0, 0.0)">
    <path d="M-107.75 -34.0 Q-108.05 -33.15 -108.7 -32.7 -109.05 -32.45 -109.1 -31.75 L-109.25 -31.25 Q-109.6 -30.35 -109.6 -29.25 L-109.6 -28.75 -109.5 -28.0 Q-109.0 -26.4 -107.95 -25.05 -105.05 -21.2 -101.3 -18.2 L-95.35 -13.7 -94.05 -12.9 Q-90.3 -11.2 -86.25 -11.15 L-85.5 -11.1 -84.0 -10.9 Q-83.3 -10.8 -83.15 -10.0 -82.8 -8.15 -81.6 -6.45 L-81.25 -5.75 Q-80.35 -3.5 -82.2 -1.7 -85.7 1.8 -89.45 5.1 -90.1 5.7 -91.0 5.9 -92.25 6.15 -93.05 5.05 -94.2 3.45 -96.0 4.2 L-97.95 5.1 -99.5 5.95 Q-101.35 7.1 -103.05 8.45 -104.3 9.5 -103.75 10.75 -103.4 11.55 -102.5 11.8 -98.0 13.2 -93.25 13.45 -91.2 13.6 -89.5 14.55 -89.15 14.75 -89.3 15.25 L-89.4 15.75 -89.35 16.0 -89.05 17.25 Q-88.85 17.8 -89.2 17.9 L-89.55 18.15 Q-90.25 18.8 -91.25 18.8 -91.95 18.8 -91.9 19.5 L-91.75 19.7 Q-91.2 20.0 -90.95 20.75 L-90.25 22.0" fill="none" stroke="#00ff00" stroke-linecap="round" stroke-linejoin="round" stroke-width="0.05"/>
  </g>
</svg>
