<?xml version="1.0" encoding="UTF-8" standalone="no"?>
<svg xmlns:xlink="http://www.w3.org/1999/xlink" height="82.5px" width="48.9px" xmlns="http://www.w3.org/2000/svg">
  <g transform="matrix(1.0, 0.0, 0.0, 1.0, 0.0, 0.0)">
    <path d="M-90.75 -54.25 L-93.95 -50.95 -95.15 -49.45 -95.15 -49.05 -93.8 -47.4 -93.45 -47.05 Q-92.5 -45.95 -90.95 -45.05 L-87.95 -43.05 Q-85.5 -41.25 -84.85 -38.45 -84.6 -37.25 -85.65 -36.4 L-86.3 -35.8 -87.85 -33.2 -87.85 -32.55 -87.5 -32.05 Q-86.75 -31.45 -85.8 -31.15 L-81.75 -29.5 -79.05 -28.4 -76.2 -27.1 -74.5 -26.2 Q-72.35 -25.2 -70.85 -23.4 L-70.3 -22.5 Q-69.7 -20.9 -70.7 -19.5 -71.95 -17.75 -74.25 -17.15 L-75.5 -16.85 Q-80.2 -15.8 -85.0 -15.9 L-94.0 -15.9 -103.0 -15.2 Q-107.55 -14.55 -111.75 -12.8 -116.2 -10.95 -118.35 -6.7 L-118.9 -5.0 Q-119.3 -2.65 -117.9 -0.8 L-116.7 0.45 Q-113.35 3.25 -109.0 3.6 -104.25 4.05 -99.5 3.4 -95.85 2.9 -92.25 3.5 -90.7 3.75 -89.45 4.65 L-88.8 5.1 -88.45 5.45 Q-87.75 6.1 -86.95 5.6 -86.6 5.4 -86.25 5.3 L-85.25 5.15 -84.75 5.25 Q-84.15 5.6 -84.8 6.45 L-85.75 7.5 Q-87.8 9.45 -90.15 10.9 L-91.3 11.7 -91.9 12.35 -91.9 12.65 -91.5 13.0 Q-90.3 13.75 -88.75 13.65 L-87.5 13.7 Q-86.25 13.8 -86.35 14.75 L-86.55 15.15 -88.3 17.2 Q-88.85 18.1 -87.75 18.4 L-87.0 18.5 -86.0 18.5 Q-87.35 19.7 -89.05 20.9 L-89.75 21.75 Q-89.1 22.4 -87.75 22.3 -86.4 22.25 -85.7 23.25 L-85.45 23.45 Q-84.7 23.7 -84.65 24.75 -84.6 25.85 -85.45 26.55 -85.9 26.9 -85.7 27.45 L-85.5 27.65 -84.7 27.95 Q-84.15 28.25 -84.5 28.25" fill="none" stroke="#00ff00" stroke-linecap="round" stroke-linejoin="round" stroke-width="0.05"/>
  </g>
</svg>
