<?xml version="1.0" encoding="UTF-8" standalone="no"?>
<svg xmlns:xlink="http://www.w3.org/1999/xlink" height="113.25px" width="34.7px" xmlns="http://www.w3.org/2000/svg">
  <g transform="matrix(1.0, 0.0, 0.0, 1.0, 0.0, 0.0)">
    <path d="M-83.5 -71.75 Q-84.05 -71.7 -84.1 -71.0 L-84.35 -70.35 -84.7 -69.95 -89.15 -65.9 -89.75 -65.0 Q-90.5 -63.75 -89.45 -63.05 -87.9 -62.0 -86.05 -61.6 L-85.0 -61.3 Q-83.85 -60.85 -83.25 -59.85 -83.0 -59.5 -83.1 -59.05 -83.5 -57.35 -84.8 -56.05 -87.95 -52.65 -91.4 -49.65 L-92.75 -48.25 -95.05 -44.9 -95.7 -43.25 Q-96.15 -40.8 -95.0 -38.75 -93.45 -36.05 -91.55 -33.45 -89.5 -30.6 -88.4 -27.3 L-87.85 -25.7 Q-87.1 -23.65 -86.8 -21.5 L-86.1 -18.95 Q-85.25 -16.95 -83.0 -17.15 L-81.0 -17.4 -79.5 -17.7 Q-74.75 -18.9 -71.05 -22.05 L-68.45 -24.2 -68.0 -24.5 Q-66.85 -25.25 -65.5 -25.15 L-65.1 -24.95 Q-64.75 -24.55 -64.75 -24.0 L-64.85 -21.75 -64.7 -21.3 -63.2 -20.3 -61.55 -19.45 Q-61.15 -19.25 -61.15 -18.75 -61.15 -17.9 -61.8 -17.3 -63.55 -15.45 -65.7 -13.9 L-66.8 -13.05 -67.95 -12.2 Q-69.35 -11.15 -69.55 -9.5 -69.6 -8.85 -69.05 -8.4 L-68.75 -8.0 Q-67.95 -6.75 -67.85 -5.0 -67.8 -4.15 -68.25 -3.5 -69.5 -1.7 -71.4 -0.85 L-72.8 -0.05 -74.2 0.85 -78.25 3.45 Q-82.4 6.15 -86.75 8.3 -88.4 9.1 -89.7 10.55 L-90.85 12.2 Q-91.3 13.05 -91.4 14.0 -91.55 15.25 -90.45 15.9 L-89.75 16.3 Q-86.6 17.7 -83.3 18.4 -82.85 18.5 -82.5 18.75 -81.3 19.45 -82.0 20.75 -82.65 21.85 -83.75 22.8 -85.4 24.2 -86.5 26.0 L-88.55 29.5 -88.65 29.75 Q-88.75 30.35 -88.3 30.8 L-86.7 33.0 -86.5 33.25 Q-85.95 33.75 -85.85 34.5 -85.75 35.25 -86.15 35.8 L-86.9 36.6 -87.15 37.0 Q-87.25 37.95 -86.9 38.7 -86.1 40.65 -84.5 41.5" fill="none" stroke="#00ff00" stroke-linecap="round" stroke-linejoin="round" stroke-width="0.05"/>
  </g>
</svg>
