<?xml version="1.0" encoding="UTF-8" standalone="no"?>
<svg xmlns:xlink="http://www.w3.org/1999/xlink" height="116.4px" width="82.7px" xmlns="http://www.w3.org/2000/svg">
  <g transform="matrix(1.0, 0.0, 0.0, 1.0, 0.0, 0.0)">
    <path d="M-81.0 -74.5 Q-81.25 -74.95 -81.7 -73.95 -82.1 -73.05 -82.15 -72.0 -82.25 -70.6 -81.0 -69.75 -80.25 -69.2 -80.15 -68.25 L-80.3 -68.05 -84.95 -66.15 Q-86.15 -65.65 -86.8 -64.55 L-87.35 -63.45 -87.55 -62.75 -87.65 -62.25 Q-87.8 -60.85 -89.25 -60.3 -93.85 -58.65 -98.75 -59.45 L-101.0 -59.8 Q-104.05 -60.3 -107.05 -61.15 L-109.5 -61.8 -118.75 -62.3 -121.45 -61.85 -123.95 -61.15 Q-126.0 -60.35 -127.8 -59.1 -131.65 -56.5 -134.7 -52.95 -137.2 -50.05 -136.95 -46.25 L-136.45 -44.25 Q-135.7 -42.5 -133.8 -41.65 -129.45 -39.85 -124.75 -39.85 L-119.5 -39.85 -111.0 -39.75 -103.0 -39.75 -93.75 -39.05 Q-89.85 -38.45 -86.8 -36.15 -85.15 -34.95 -86.05 -33.0 -87.1 -30.75 -88.85 -29.1 L-89.8 -28.05 Q-90.4 -27.25 -90.1 -26.3 L-89.7 -25.55 Q-89.25 -25.1 -88.7 -24.8 -85.55 -22.9 -83.3 -19.95 L-82.6 -18.7 Q-82.0 -17.25 -81.8 -15.75 -81.45 -13.05 -78.75 -13.1 L-77.5 -13.25 -73.75 -13.65 -73.5 -13.5 Q-73.25 -12.9 -74.25 -12.5 -76.7 -11.55 -79.5 -10.9 L-81.75 -10.2 Q-90.85 -6.8 -100.05 -3.6 L-106.25 -1.25 -106.75 -1.05 Q-107.15 -0.95 -106.8 -0.45 -106.45 0.05 -106.6 0.75 -106.9 2.25 -108.05 3.45 -109.95 5.35 -112.3 6.7 L-122.65 12.65 -125.5 14.45 -127.7 16.1 Q-129.4 17.4 -130.5 19.0 -128.75 19.45 -126.75 19.05 -121.8 18.0 -116.75 17.65 L-112.5 17.25 -103.5 16.45 -101.0 16.6 Q-99.7 16.85 -98.6 17.65 L-98.1 18.3 Q-97.7 19.45 -97.7 20.75 -97.75 22.0 -96.7 22.4 L-96.25 22.45 -92.25 21.95 Q-91.7 21.85 -91.75 22.25 -91.7 22.8 -92.15 23.0 L-92.8 23.45 -93.9 25.05 -94.2 26.0 Q-94.4 28.15 -93.8 30.0 -93.5 30.95 -92.9 31.4 L-92.5 31.5 Q-90.15 31.55 -88.2 30.35 L-85.8 29.1 -85.2 28.9 -84.5 28.75 -84.0 28.75 Q-84.05 29.8 -84.6 30.4 L-84.75 30.75 -84.85 34.5 -84.95 34.8 Q-85.5 36.0 -84.7 36.7 L-84.25 37.05 -83.2 37.65 -82.75 37.75 Q-82.6 38.4 -82.9 38.65 L-83.0 39.0 Q-82.9 39.85 -83.15 40.3 L-83.15 40.75 Q-82.6 40.95 -82.5 41.45 L-82.25 41.5 Q-81.75 41.5 -81.5 41.75 M-56.0 8.5 Q-55.1 8.35 -54.6 7.65 L-54.55 7.3 -54.75 7.0 Q-56.1 5.8 -57.75 5.0 L-58.9 4.15 -59.0 3.75 Q-59.0 1.7 -58.1 -0.05 L-58.0 -0.5 Q-58.15 -3.05 -60.8 -3.9 L-64.3 -5.2 -65.25 -5.55 Q-66.65 -6.05 -67.25 -7.25 -67.9 -8.55 -66.5 -9.45 -65.2 -10.3 -63.5 -10.35 L-62.25 -10.45 Q-59.4 -10.7 -56.75 -11.7 -55.7 -12.05 -54.8 -12.6 -54.25 -12.9 -54.25 -13.5 -54.25 -14.6 -54.75 -15.5 L-55.15 -16.55 -55.35 -17.5 -55.55 -17.7 -57.7 -18.6 Q-59.1 -19.25 -60.05 -20.45 L-60.75 -21.25 Q-61.45 -22.05 -61.55 -23.0 -61.7 -23.9 -62.2 -24.35 L-62.55 -24.65 -63.25 -25.5 Q-64.05 -27.0 -62.45 -27.65 L-62.0 -27.8 -56.0 -29.45 -55.55 -29.6 Q-55.0 -29.9 -55.55 -30.45 L-55.95 -30.8 Q-56.65 -31.35 -56.75 -32.5 -56.85 -33.55 -57.3 -34.25 -57.85 -35.1 -57.0 -35.8 -56.7 -36.05 -56.0 -36.1 L-55.75 -36.15 -55.0 -36.25 Q-54.4 -36.25 -54.25 -36.7" fill="none" stroke="#00ff00" stroke-linecap="round" stroke-linejoin="round" stroke-width="0.05"/>
  </g>
</svg>
