<?xml version="1.0" encoding="UTF-8" standalone="no"?>
<svg xmlns:xlink="http://www.w3.org/1999/xlink" height="118.25px" width="44.2px" xmlns="http://www.w3.org/2000/svg">
  <g transform="matrix(1.0, 0.0, 0.0, 1.0, 0.0, 0.0)">
    <path d="M-82.45 -62.9 L-82.75 -63.25 Q-83.55 -64.65 -83.3 -66.5 -83.2 -67.45 -83.6 -67.85 L-83.8 -68.2 Q-83.75 -68.6 -83.5 -68.7 L-80.25 -69.4 Q-79.6 -69.55 -79.6 -70.0 -79.45 -71.55 -80.15 -72.8 L-80.3 -73.25 Q-80.45 -73.95 -80.1 -74.2 L-86.75 -70.0 Q-88.4 -68.95 -89.2 -67.2 -90.25 -64.95 -88.3 -63.65 -85.65 -61.9 -84.4 -59.25 -83.55 -59.9 -82.45 -60.95 -82.0 -61.4 -82.0 -62.0 -81.95 -62.7 -82.45 -62.9 M-84.75 -59.0 L-84.4 -59.25 Q-83.6 -57.65 -83.35 -55.75 -83.0 -53.2 -83.65 -50.7 L-84.1 -49.05 -84.65 -47.2 Q-86.2 -42.55 -86.55 -37.75 L-86.75 -35.75 Q-87.1 -32.55 -85.0 -30.2 L-83.9 -29.35 -83.85 -29.3 -83.45 -29.1 Q-79.1 -27.1 -74.25 -27.05 L-70.5 -26.8 -67.0 -26.4 Q-63.85 -26.0 -60.95 -24.85 -59.35 -24.2 -58.8 -22.5 -58.15 -20.4 -59.3 -18.55 L-59.85 -17.3 -59.25 -17.5 -59.35 -17.1 -60.0 -16.5 -59.85 -17.3 Q-62.8 -16.4 -65.75 -15.0 L-74.15 -11.05 -77.05 -9.6 -78.7 -8.65 -79.7 -8.15 Q-83.3 -6.25 -86.4 -3.65 L-86.9 -2.95 -86.95 -2.25 Q-86.9 -1.7 -86.5 -1.25 -86.0 -0.7 -86.0 0.0 L-86.3 0.45 -91.3 4.2 Q-92.6 5.3 -92.85 6.8 L-92.75 7.25 Q-92.3 8.3 -91.0 8.4 L-89.5 8.65 -86.0 9.25 Q-83.75 9.55 -82.45 11.2 -81.5 12.4 -81.85 14.0 L-82.2 15.25 -82.8 17.0 -83.35 18.35 -83.4 18.95 -82.9 19.65 -82.25 20.0 -78.8 20.95 Q-78.5 21.0 -78.35 21.3 -78.1 21.85 -78.55 22.2 L-80.95 24.55 -82.3 26.2 -83.05 27.5 Q-83.5 28.65 -83.15 30.25 L-83.05 30.5 Q-81.85 32.65 -81.35 35.0 -81.25 35.55 -81.5 36.0 -82.2 37.35 -82.15 39.0 L-82.0 39.25 -80.0 41.25 M-78.7 -8.65 Q-79.05 -9.05 -78.25 -9.55 L-77.25 -10.5 Q-76.65 -11.15 -76.4 -11.8 L-78.2 -13.3 Q-78.9 -13.95 -78.7 -15.0 L-78.15 -16.7 Q-77.9 -17.3 -78.05 -18.0 -78.15 -18.55 -78.75 -18.65 L-87.5 -19.3 -93.5 -19.45 -94.25 -19.75 -94.65 -20.1 -94.7 -20.5 Q-94.4 -21.5 -93.25 -22.5 -89.75 -25.45 -85.05 -26.5 L-84.9 -26.7 -84.8 -27.05 -84.15 -28.75 -84.05 -29.0 -83.85 -29.3 M-75.0 -77.0 Q-75.9 -77.15 -77.3 -76.05 L-78.5 -75.25 -80.0 -74.25 -80.1 -74.2 M-67.5 -13.5 Q-67.6 -11.85 -68.45 -10.45 L-68.75 -9.75 Q-69.25 -8.1 -69.05 -6.3 L-68.75 -5.75 Q-68.2 -5.05 -67.0 -4.9 L-66.25 -4.75 Q-62.5 -3.5 -58.75 -2.7 L-58.0 -2.55 -57.25 -2.45 -56.75 -2.3 -56.3 -2.15 -56.9 -0.7 -56.9 -0.35 -56.5 -0.1 Q-54.5 0.1 -53.6 1.1 L-53.4 1.5 -53.35 1.75 -53.45 2.0 Q-54.15 3.0 -52.7 3.9 L-52.25 4.0 -50.5 4.25" fill="none" stroke="#00ff00" stroke-linecap="round" stroke-linejoin="round" stroke-width="0.05"/>
  </g>
</svg>
