<?xml version="1.0" encoding="UTF-8" standalone="no"?>
<svg xmlns:xlink="http://www.w3.org/1999/xlink" height="89.5px" width="30.6px" xmlns="http://www.w3.org/2000/svg">
  <g transform="matrix(1.0, 0.0, 0.0, 1.0, 0.0, 0.0)">
    <path d="M-62.25 -62.25 Q-61.8 -62.25 -62.5 -62.15 L-63.0 -62.05 Q-64.1 -61.75 -64.9 -60.9 L-65.7 -60.15 -67.3 -58.8 -72.0 -55.05 Q-74.0 -53.6 -73.8 -51.25 L-73.4 -50.35 Q-71.9 -48.45 -70.0 -47.0 L-64.85 -42.9 -64.1 -41.95 Q-63.8 -41.4 -63.85 -40.75 -64.0 -39.05 -65.15 -37.7 L-66.3 -36.3 -67.75 -34.75 Q-71.15 -31.1 -73.75 -26.85 L-74.2 -25.5 Q-74.5 -23.25 -73.2 -21.5 -71.4 -19.1 -68.8 -17.65 L-67.45 -16.8 Q-65.8 -15.65 -64.9 -14.05 L-64.5 -12.8 Q-64.5 -12.75 -64.3 -12.65 L-63.25 -12.55 -58.75 -12.8 -53.5 -13.2 Q-51.7 -13.35 -50.25 -14.0 -51.05 -14.35 -50.9 -15.5 L-50.85 -15.75 Q-50.9 -16.65 -50.0 -16.45 L-49.0 -16.35 -48.75 -16.4 -47.25 -16.25 M-58.75 -12.8 L-58.85 -6.0 -58.9 -5.5 Q-59.0 -4.6 -59.25 -3.8 L-59.5 -3.7 Q-64.1 -2.65 -68.8 -0.8 -71.45 0.25 -73.8 1.95 -76.5 3.9 -77.6 6.8 L-77.8 7.5 Q-78.05 8.85 -77.3 9.8 -76.55 10.8 -75.25 11.2 -73.85 11.65 -74.1 13.0 L-74.3 13.5 Q-74.9 14.45 -75.1 15.5 -75.25 16.05 -74.7 16.45 -73.65 17.35 -72.85 18.8 L-72.7 19.25 -72.6 19.75 Q-72.45 20.6 -71.6 21.15 -71.5 21.25 -71.55 21.5 L-72.15 23.55 -72.35 24.25 -72.4 24.5 Q-72.75 25.9 -72.0 26.5 L-71.8 26.75 Q-71.5 27.25 -70.75 27.25" fill="none" stroke="#00ff00" stroke-linecap="round" stroke-linejoin="round" stroke-width="0.05"/>
  </g>
</svg>
