<?xml version="1.0" encoding="UTF-8" standalone="no"?>
<svg xmlns:xlink="http://www.w3.org/1999/xlink" height="68.25px" width="9.65px" xmlns="http://www.w3.org/2000/svg">
  <g transform="matrix(1.0, 0.0, 0.0, 1.0, 0.0, 0.0)">
    <path d="M-54.75 -60.75 Q-54.55 -60.2 -53.9 -60.6 -53.9 -59.75 -54.4 -58.95 L-54.85 -58.3 -57.2 -54.0 Q-57.65 -52.95 -57.45 -51.75 -56.85 -48.1 -55.55 -44.5 -55.1 -43.3 -55.1 -42.0 L-55.1 -40.5 Q-55.0 -37.95 -55.6 -35.55 -56.0 -33.95 -56.75 -32.5 -58.0 -30.05 -58.4 -27.5 -58.5 -26.7 -58.1 -25.95 -57.6 -24.95 -56.55 -24.15 -54.45 -22.5 -52.2 -21.1 -50.8 -20.2 -49.9 -18.85 L-49.5 -18.5 Q-48.55 -18.05 -48.8 -16.5 L-49.25 -15.75 Q-49.75 -15.1 -50.35 -14.6 L-52.45 -12.9 Q-53.45 -12.2 -54.1 -11.3 L-56.65 -6.7 -56.95 -5.5 Q-57.25 -2.5 -55.75 -0.25 L-55.25 0.5 -53.8 2.1 -53.45 2.45 Q-52.45 3.6 -52.8 5.5 -52.95 6.45 -52.5 6.75 L-51.8 7.15 Q-51.6 7.25 -51.5 7.5" fill="none" stroke="#00ff00" stroke-linecap="round" stroke-linejoin="round" stroke-width="0.05"/>
  </g>
</svg>
