<?xml version="1.0" encoding="UTF-8" standalone="no"?>
<svg xmlns:xlink="http://www.w3.org/1999/xlink" height="81.5px" width="82.25px" xmlns="http://www.w3.org/2000/svg">
  <g transform="matrix(1.0, 0.0, 0.0, 1.0, 0.0, 0.0)">
    <path d="M-157.75 7.25 Q-157.35 6.85 -157.7 6.45 -158.65 5.45 -159.95 5.15 -161.2 4.85 -162.3 4.1 L-162.95 3.65 Q-164.4 2.7 -164.25 1.0 -164.05 -1.0 -162.5 -2.5 L-161.0 -4.0 Q-158.8 -6.1 -156.2 -7.7 L-150.9 -11.2 -150.5 -11.75 Q-150.35 -12.0 -150.45 -12.2 L-150.8 -12.7 Q-153.45 -14.8 -156.45 -16.6 L-157.8 -17.45 Q-160.3 -19.25 -163.05 -20.65 L-164.0 -21.05 Q-168.55 -22.7 -173.5 -22.25 L-175.0 -22.5 Q-174.8 -22.85 -174.4 -22.3 -174.3 -24.4 -175.45 -26.3 -176.5 -28.05 -176.75 -30.0 L-172.5 -29.5 -166.5 -29.15 -159.75 -29.05 -155.25 -29.35 -154.75 -29.5 Q-153.7 -30.2 -153.5 -31.5 -153.3 -32.8 -153.85 -33.85 L-154.15 -34.4 -154.5 -34.75 Q-156.1 -35.45 -158.0 -35.65 -160.25 -35.85 -162.25 -37.0 -163.7 -37.8 -163.5 -39.5 -163.25 -41.3 -162.0 -42.75 -161.25 -43.65 -161.15 -44.75 L-160.95 -44.95 -160.0 -45.25 M-109.0 18.25 Q-108.45 17.5 -108.9 16.45 -109.4 15.4 -110.2 14.45 -110.85 13.75 -109.75 13.3 -107.65 12.5 -105.75 11.25 -107.6 10.8 -109.05 9.3 L-109.4 8.9 -109.5 8.5 Q-109.55 7.45 -109.0 7.0 L-108.0 6.25 M-124.25 7.0 Q-124.25 8.3 -124.4 9.5 -124.5 10.25 -123.5 10.1 L-122.5 10.0 -115.5 9.55 -115.0 9.5 -117.2 12.3 -117.55 12.7 -118.0 13.0 Q-119.25 13.5 -119.25 14.75 L-119.0 14.85 -118.75 14.9 Q-117.65 14.9 -117.2 15.45 -116.7 16.2 -117.75 16.25 M-155.5 9.75 Q-155.45 8.75 -154.95 8.1 -154.85 8.0 -155.05 7.75 L-155.25 7.5 Q-155.75 6.9 -155.2 6.55 L-154.75 6.2 -154.5 6.0 M-155.85 15.9 L-156.05 16.2 Q-156.8 17.2 -157.15 18.3 L-157.25 19.0 -157.4 20.5 Q-157.45 21.15 -156.75 20.95 L-152.25 21.2 -148.5 22.25 Q-150.1 23.8 -149.55 26.45 L-149.25 26.65 Q-148.0 26.75 -147.05 27.55 -146.05 28.4 -146.75 29.5 L-147.9 30.85 -148.8 31.65 -151.45 33.85 -153.1 35.35 Q-152.85 36.05 -152.25 36.25 M-163.5 8.5 L-170.6 8.5 Q-169.5 8.85 -169.35 9.75 L-169.35 11.5 -169.5 12.0 Q-170.05 13.0 -171.25 13.5 -172.2 13.85 -173.0 14.5 -171.75 15.75 -170.0 15.65 L-169.55 15.8 Q-168.9 16.4 -169.55 17.15 L-170.1 17.95 -170.7 18.8 -172.8 20.7 -174.5 20.95 -175.0 20.8 -180.5 20.15 -182.25 20.1 Q-185.3 20.05 -188.0 21.0 -186.3 20.65 -186.7 22.2 L-186.9 22.6 -187.35 23.2 Q-188.05 24.2 -187.8 25.45 L-187.5 26.0 -185.8 27.55 Q-185.3 27.95 -185.8 28.45 -187.05 29.6 -187.7 30.9" fill="none" stroke="#00ff00" stroke-linecap="round" stroke-linejoin="round" stroke-width="0.05"/>
  </g>
</svg>
