<?xml version="1.0" encoding="UTF-8" standalone="no"?>
<svg xmlns:xlink="http://www.w3.org/1999/xlink" height="33.8px" width="32.9px" xmlns="http://www.w3.org/2000/svg">
  <g transform="matrix(1.0, 0.0, 0.0, 1.0, 0.0, 0.0)">
    <path d="M-157.75 9.5 L-158.15 8.7 -159.05 7.55 Q-161.0 5.05 -164.25 5.55 -166.2 5.8 -167.75 6.75 -166.4 7.8 -166.1 9.75 -165.95 10.7 -166.5 11.5 -167.3 12.85 -168.65 13.65 L-170.3 14.65 -180.0 20.5 -180.8 20.85 Q-183.3 19.65 -186.25 18.5 -187.95 17.85 -188.45 16.15 L-188.5 15.0 Q-187.9 12.3 -185.9 10.1 L-184.7 8.55 -183.55 6.7 Q-182.4 4.9 -183.1 3.05 -183.6 1.65 -185.0 1.0 L-187.9 -0.65 Q-188.25 -0.85 -188.4 -1.3 L-188.5 -2.0 Q-188.5 -3.1 -187.55 -3.85 L-185.9 -5.15 -183.5 -6.8 Q-179.05 -9.65 -174.25 -11.75 L-172.5 -12.55 -169.8 -12.8 -169.25 -12.5 -168.35 -11.3 -168.0 -10.95 -167.75 -10.75 -166.5 -10.35 -166.0 -10.25 Q-164.9 -9.75 -164.85 -8.5 -164.75 -7.1 -165.35 -5.8 L-166.4 -2.25 -166.45 -0.75 Q-166.35 -0.05 -165.8 0.15 L-165.2 0.4 Q-163.7 1.25 -162.0 0.7 L-159.55 -0.3 Q-158.85 -0.6 -158.3 -1.05 -157.8 -1.4 -157.35 -0.7 L-156.3 0.05 -156.1 0.25 Q-156.0 0.8 -156.2 1.25 -156.4 1.75 -156.05 2.05 L-155.8 2.5 -155.65 2.95" fill="none" stroke="#00ff00" stroke-linecap="round" stroke-linejoin="round" stroke-width="0.05"/>
  </g>
</svg>
