<?xml version="1.0" encoding="UTF-8" standalone="no"?>
<svg xmlns:xlink="http://www.w3.org/1999/xlink" height="27.1px" width="17.3px" xmlns="http://www.w3.org/2000/svg">
  <g transform="matrix(1.0, 0.0, 0.0, 1.0, 0.0, 0.0)">
    <path d="M-116.75 -0.75 L-118.15 3.3 -119.0 6.25 Q-119.4 8.25 -117.5 8.4 L-115.5 8.45 Q-113.45 8.3 -111.45 8.9 L-109.5 9.5 Q-108.6 9.8 -107.9 10.35 -107.5 10.65 -107.0 10.75 L-103.5 11.05 -101.75 11.0 Q-102.85 12.85 -104.65 14.85 L-105.05 15.45 Q-105.4 16.0 -105.3 16.75 -105.25 17.55 -106.0 18.0 -107.6 18.95 -109.5 19.3 -111.75 19.75 -113.75 20.5 -113.65 21.2 -112.7 21.7 -111.55 22.3 -110.85 23.1 L-110.85 23.4 -111.2 23.8 -112.5 25.0 -112.6 25.25 -112.6 25.5 Q-112.3 26.6 -112.75 26.25" fill="none" stroke="#00ff00" stroke-linecap="round" stroke-linejoin="round" stroke-width="0.05"/>
  </g>
</svg>
