<?xml version="1.0" encoding="UTF-8" standalone="no"?>
<svg xmlns:xlink="http://www.w3.org/1999/xlink" height="23.05px" width="16.8px" xmlns="http://www.w3.org/2000/svg">
  <g transform="matrix(1.0, 0.0, 0.0, 1.0, 0.0, 0.0)">
    <path d="M-92.25 4.75 Q-92.05 4.6 -92.2 5.25 -92.6 7.6 -93.35 9.7 L-93.65 11.0 -93.55 12.45 -93.25 12.65 Q-90.7 12.85 -88.25 12.65 L-87.05 12.85 Q-85.5 13.45 -84.25 14.5 L-83.5 15.25 Q-82.05 16.75 -80.2 16.1 L-77.5 15.8 Q-77.05 15.85 -76.95 16.5 -76.65 18.15 -77.95 18.85 -80.7 20.35 -83.4 21.45 L-83.55 21.75 Q-84.0 23.4 -85.75 24.05 L-88.25 24.75 Q-87.8 25.55 -87.65 26.5 L-87.55 26.8 Q-87.35 27.35 -87.75 27.75" fill="none" stroke="#00ff00" stroke-linecap="round" stroke-linejoin="round" stroke-width="0.05"/>
  </g>
</svg>
