<?xml version="1.0" encoding="UTF-8" standalone="no"?>
<svg xmlns:xlink="http://www.w3.org/1999/xlink" height="18.1px" width="38.3px" xmlns="http://www.w3.org/2000/svg">
  <g transform="matrix(1.0, 0.0, 0.0, 1.0, 0.0, 0.0)">
    <path d="M-97.75 3.25 L-96.7 1.8 -95.9 0.8 Q-95.6 0.15 -96.5 -0.1 L-98.8 -0.95 Q-99.85 -1.5 -99.55 -2.7 L-99.3 -3.3 Q-98.25 -4.8 -96.8 -5.6 -96.5 -5.75 -96.4 -6.25 L-96.3 -6.5 Q-95.85 -7.25 -95.9 -8.25 L-96.1 -10.0 -96.3 -10.45 Q-96.5 -10.75 -97.0 -10.75 M-66.75 -7.25 L-67.0 -6.75 Q-67.5 -6.0 -67.6 -5.0 L-67.7 -4.5 Q-68.0 -3.2 -66.75 -3.15 L-66.25 -3.1 Q-64.4 -2.95 -62.95 -1.85 L-62.3 -1.4 -61.95 -1.05 Q-61.5 -0.45 -61.35 0.25 -61.25 0.75 -61.45 1.05 L-62.7 2.3 -63.95 3.3 -64.25 3.75 Q-64.8 4.55 -66.0 5.25 L-66.5 5.55 -66.75 5.75 -66.3 6.3 -66.1 6.75 -66.0 7.25" fill="none" stroke="#00ff00" stroke-linecap="round" stroke-linejoin="round" stroke-width="0.05"/>
  </g>
</svg>
