<?xml version="1.0" encoding="UTF-8" standalone="no"?>
<svg xmlns:xlink="http://www.w3.org/1999/xlink" height="33.75px" width="15.2px" xmlns="http://www.w3.org/2000/svg">
  <g transform="matrix(1.0, 0.0, 0.0, 1.0, 0.0, 0.0)">
    <path d="M-118.0 -2.25 L-118.9 -1.4 -118.9 -1.0 -118.8 -0.75 Q-118.1 0.45 -118.35 2.0 -118.5 2.95 -117.8 3.3 L-116.95 3.7 -114.3 4.85 Q-113.2 5.3 -112.3 6.05 -111.5 6.75 -111.0 7.75 -110.0 9.65 -108.3 10.8 L-106.35 12.1 -105.95 12.5 Q-105.3 13.5 -106.5 14.25 -110.6 16.8 -115.25 18.3 L-118.9 19.7 -119.75 20.25 -120.0 20.5 -118.75 20.9 Q-116.85 20.9 -115.3 21.6 -114.65 21.85 -114.75 22.5 -114.9 23.85 -116.3 24.7 -117.9 25.65 -118.1 27.0 L-118.1 27.25 -118.3 27.7 Q-118.85 28.45 -119.7 28.65 L-120.3 28.9 Q-120.85 29.15 -120.9 30.0 -120.95 30.45 -120.5 30.5 L-119.45 30.9 -119.05 31.1 Q-118.2 31.5 -118.5 31.5" fill="none" stroke="#00ff00" stroke-linecap="round" stroke-linejoin="round" stroke-width="0.05"/>
  </g>
</svg>
