<?xml version="1.0" encoding="UTF-8" standalone="no"?>
<svg xmlns:xlink="http://www.w3.org/1999/xlink" height="27.4px" width="23.3px" xmlns="http://www.w3.org/2000/svg">
  <g transform="matrix(1.0, 0.0, 0.0, 1.0, 0.0, 0.0)">
    <path d="M-119.0 0.0 Q-119.85 0.25 -119.65 -0.45 -120.1 0.05 -119.85 1.2 L-119.6 2.05 -119.45 2.5 Q-119.35 3.85 -119.65 5.05 -119.9 5.95 -120.7 6.3 -122.1 6.9 -123.75 6.9 L-125.5 7.05 -137.25 9.1 -139.25 9.75 Q-140.6 10.35 -141.65 11.35 L-142.0 12.0 Q-142.45 13.55 -142.2 15.25 -142.0 16.75 -140.95 17.7 -140.25 18.3 -139.25 18.4 L-137.75 18.4 -132.95 17.65 -131.5 17.45 -129.0 17.8 Q-128.35 18.1 -128.0 18.75 -127.65 19.4 -127.55 20.2 L-127.25 20.5 -125.0 20.75 -122.5 21.05 Q-121.7 21.4 -122.55 22.2 L-123.6 23.8 Q-123.15 24.5 -122.25 24.6 L-122.0 24.7 Q-121.35 25.05 -121.35 26.0 L-121.2 26.2 -120.75 26.3 Q-120.5 26.4 -120.35 26.6 L-120.15 26.95" fill="none" stroke="#00ff00" stroke-linecap="round" stroke-linejoin="round" stroke-width="0.05"/>
  </g>
</svg>
