<?xml version="1.0" encoding="UTF-8" standalone="no"?>
<svg xmlns:xlink="http://www.w3.org/1999/xlink" height="16.3px" width="15.25px" xmlns="http://www.w3.org/2000/svg">
  <g transform="matrix(1.0, 0.0, 0.0, 1.0, 0.0, 0.0)">
    <path d="M-89.25 6.0 Q-88.8 5.7 -88.85 6.75 L-88.9 7.0 Q-89.4 8.95 -87.75 8.9 L-84.25 8.85 Q-81.3 8.8 -78.7 10.1 L-77.55 10.6 -75.25 11.3 Q-74.55 11.45 -74.3 11.1 L-74.0 11.0 -75.05 12.5 -76.7 15.3 Q-77.55 16.5 -79.5 16.9 L-80.5 17.0 -82.45 17.2 -82.9 17.55 -82.95 18.0 -82.25 19.25 Q-81.5 20.05 -81.75 21.45 L-82.0 21.65 Q-82.55 21.65 -82.75 22.25" fill="none" stroke="#00ff00" stroke-linecap="round" stroke-linejoin="round" stroke-width="0.05"/>
  </g>
</svg>
