<?xml version="1.0" encoding="UTF-8" standalone="no"?>
<svg xmlns:xlink="http://www.w3.org/1999/xlink" height="49.35px" width="33.1px" xmlns="http://www.w3.org/2000/svg">
  <g transform="matrix(1.0, 0.0, 0.0, 1.0, 0.0, 0.0)">
    <path d="M-0.4 -20.4 L-0.25 -18.7 Q0.0 -18.05 0.65 -17.75 L1.85 -17.2 1.95 -16.0 1.7 -13.2 Q1.7 -12.55 2.0 -11.85 L4.7 -11.05 Q5.2 -8.4 2.75 -6.8 1.5 -6.0 2.45 -4.55 L3.85 -3.95 Q5.1 -3.45 5.1 -2.15 L5.05 -0.75 Q3.25 0.05 1.6 1.05 0.95 1.45 0.9 2.15 0.7 6.55 6.75 5.25 L6.9 5.85 Q7.2 7.2 6.7 8.55 L6.15 9.9 5.8 10.05 Q1.15 10.85 -3.35 9.15 1.15 10.85 5.8 10.05 L6.15 9.9 6.7 8.55 Q7.2 7.2 6.9 5.85 L6.75 5.25 Q0.7 6.55 0.9 2.15 0.95 1.45 1.6 1.05 3.25 0.05 5.05 -0.75 L5.1 -2.15 Q5.1 -3.45 3.85 -3.95 L2.45 -4.55 Q1.5 -6.0 2.75 -6.8 5.2 -8.4 4.7 -11.05 L2.0 -11.85 Q1.7 -12.55 1.7 -13.2 L1.95 -16.0 1.85 -17.2 0.65 -17.75 Q0.0 -18.05 -0.25 -18.7 L-0.4 -20.4 M-7.65 14.0 L-8.2 13.5 Q-12.6 12.1 -16.55 16.1 -14.05 10.75 -10.35 6.5 L-9.15 6.5 -5.55 11.05 Q-3.45 8.5 -2.25 5.4 3.3 -8.85 -5.0 -21.7 0.15 -27.2 8.3 -22.5 9.25 -22.0 9.4 -21.15 10.5 -14.25 15.7 -11.35 L16.1 -10.1 Q17.1 -6.6 15.9 -3.0 L14.35 -6.5 Q10.45 4.05 10.8 15.15 L8.6 15.8 Q6.6 16.65 5.55 18.55 L3.7 17.8 Q0.0 20.55 -1.7 24.7 L-1.9 23.3 Q-2.05 20.95 -1.35 18.8 L-0.55 15.1 0.65 15.0 Q1.65 14.9 2.45 15.5 1.65 14.9 0.65 15.0 L-0.55 15.1 -1.35 18.8 -3.95 17.1 Q-5.55 17.55 -6.7 18.95 L-9.75 22.9 -9.55 20.65 Q-9.1 17.15 -7.65 14.0 L-6.05 11.9 -2.0 14.6 -6.05 11.9 -7.65 14.0" fill="#ff6600" fill-rule="evenodd" stroke="none"/>
    <path d="M-5.0 -21.7 L-5.55 -21.1 M-1.35 18.8 Q-2.05 20.95 -1.9 23.3 L-1.7 24.7 Q0.0 20.55 3.7 17.8 L5.55 18.55 Q6.6 16.65 8.6 15.8 L10.8 15.15 Q10.45 4.05 14.35 -6.5 L15.9 -3.0 Q17.1 -6.6 16.1 -10.1 L15.7 -11.35 Q10.5 -14.25 9.4 -21.15 9.25 -22.0 8.3 -22.5 0.15 -27.2 -5.0 -21.7 3.3 -8.85 -2.25 5.4 -3.45 8.5 -5.55 11.05 L-9.15 6.5 -10.35 6.5 Q-14.05 10.75 -16.55 16.1 -12.6 12.1 -8.2 13.5 L-7.65 14.0 -6.05 11.9 -2.0 14.6 M-1.35 18.8 L-0.55 15.1 0.65 15.0 Q1.65 14.9 2.45 15.5 M-7.65 14.0 Q-9.1 17.15 -9.55 20.65 L-9.75 22.9 -6.7 18.95 Q-5.55 17.55 -3.95 17.1 L-1.35 18.8" fill="none" stroke="#000000" stroke-linecap="round" stroke-linejoin="round" stroke-width="0.05"/>
    <path d="M-3.35 9.15 Q1.15 10.85 5.8 10.05 L6.15 9.9 6.7 8.55 Q7.2 7.2 6.9 5.85 L6.75 5.25 Q0.7 6.55 0.9 2.15 0.95 1.45 1.6 1.05 3.25 0.05 5.05 -0.75 L5.1 -2.15 Q5.1 -3.45 3.85 -3.95 L2.45 -4.55 Q1.5 -6.0 2.75 -6.8 5.2 -8.4 4.7 -11.05 L2.0 -11.85 Q1.7 -12.55 1.7 -13.2 L1.95 -16.0 1.85 -17.2 0.65 -17.75 Q0.0 -18.05 -0.25 -18.7 L-0.4 -20.4" fill="none" stroke="#ffcc00" stroke-linecap="round" stroke-linejoin="round" stroke-width="1.0"/>
  </g>
</svg>
