<?xml version="1.0" encoding="UTF-8" standalone="no"?>
<svg xmlns:xlink="http://www.w3.org/1999/xlink" height="52.85px" width="40.6px" xmlns="http://www.w3.org/2000/svg">
  <g transform="matrix(1.0, 0.0, 0.0, 1.0, 0.0, 0.0)">
    <path d="M5.2 -0.95 L5.75 -1.1 5.2 -0.95 2.15 0.05 2.0 0.55 2.1 1.65 2.85 4.55 Q3.05 5.6 2.5 6.75 0.6 8.65 -1.9 8.4 0.25 7.55 -0.15 5.15 -0.25 4.55 -0.5 4.05 -1.15 2.75 -1.0 1.35 -0.85 0.0 0.1 -0.65 1.05 -1.3 2.15 -1.45 L5.2 -0.95 2.15 -1.45 Q1.05 -1.3 0.1 -0.65 -0.85 0.0 -1.0 1.35 -1.15 2.75 -0.5 4.05 -0.25 4.55 -0.15 5.15 0.25 7.55 -1.9 8.4 0.6 8.65 2.5 6.75 3.05 5.6 2.85 4.55 L2.1 1.65 2.0 0.55 2.15 0.05 5.2 -0.95 M4.85 -8.0 L6.25 -8.6 6.65 -10.65 7.05 -11.0 7.7 -11.05 7.05 -11.0 6.65 -10.65 6.25 -8.6 4.85 -8.0 M0.2 -13.0 L0.15 -13.9 Q0.0 -14.7 -0.45 -15.35 0.85 -13.95 1.55 -12.15 1.85 -11.3 1.55 -10.65 L0.65 -9.9 Q-2.75 -9.9 -4.6 -7.35 L-4.65 -8.7 Q-4.5 -10.55 -2.95 -10.95 -0.7 -11.15 0.2 -13.0 -0.7 -11.15 -2.95 -10.95 -4.5 -10.55 -4.65 -8.7 L-4.6 -7.35 Q-2.75 -9.9 0.65 -9.9 L1.55 -10.65 Q1.85 -11.3 1.55 -12.15 0.85 -13.95 -0.45 -15.35 0.0 -14.7 0.15 -13.9 L0.2 -13.0 M13.4 -6.75 L13.8 -5.4 Q14.0 -4.4 13.8 -3.4 13.3 -1.1 12.45 1.15 10.55 6.1 8.1 10.7 L16.35 15.45 Q18.05 16.45 19.2 18.2 20.65 20.5 20.2 23.15 L19.05 23.4 11.05 22.95 5.65 23.9 1.45 25.1 -2.9 26.15 -5.6 25.95 Q-7.05 25.4 -8.05 24.35 L-11.1 20.4 Q-15.1 14.6 -16.9 7.85 L-19.25 -1.05 Q-20.25 -4.75 -19.95 -8.8 L-20.3 -9.25 -20.2 -10.35 -19.55 -12.25 -16.8 -16.05 Q-11.35 -22.45 -3.55 -25.45 -2.4 -25.8 -1.55 -26.55 L0.35 -26.0 Q5.7 -23.5 8.35 -17.85 L13.4 -6.75 M-6.85 24.7 L-6.4 24.75 -2.5 21.65 Q-1.0 20.4 -0.15 18.5 L1.45 15.3 Q2.3 13.75 1.1 12.55 -0.2 12.3 -1.65 12.9 -2.35 13.2 -2.7 13.8 -3.95 16.05 -4.15 18.9 L-5.3 19.65 Q-6.45 19.6 -7.6 19.15 -9.0 18.65 -10.05 17.5 L-11.0 15.9 Q-11.2 15.35 -10.65 14.7 -9.6 13.55 -8.25 13.0 -7.45 12.65 -6.9 12.05 L-4.25 8.3 -4.45 7.9 -5.1 6.25 Q-6.3 4.2 -8.55 4.75 -10.5 5.45 -10.4 7.5 -10.3 8.75 -11.05 9.6 -12.5 9.6 -12.95 8.0 -13.3 6.8 -13.15 5.6 -12.65 1.95 -8.9 1.6 -7.2 1.7 -6.6 0.05 -8.15 -2.65 -11.2 -3.2 -12.95 -2.25 -13.4 -0.25 L-13.95 0.15 -15.15 -0.35 Q-15.75 -1.45 -15.6 -2.7 -15.3 -4.65 -13.4 -5.35 -12.35 -5.8 -11.65 -6.5 -10.8 -7.35 -10.95 -8.25 -11.25 -10.4 -13.6 -11.0 L-14.3 -10.75 Q-15.1 -10.45 -15.35 -9.55 -15.75 -8.25 -16.5 -7.1 L-17.5 -7.5 -17.7 -8.1 -17.55 -9.4 -16.25 -12.2 Q-15.85 -12.9 -16.2 -13.45 L-18.0 -13.55 -16.2 -13.45 Q-15.85 -12.9 -16.25 -12.2 L-17.55 -9.4 -17.7 -8.1 -17.5 -7.5 -16.5 -7.1 Q-15.75 -8.25 -15.35 -9.55 -15.1 -10.45 -14.3 -10.75 L-13.6 -11.0 Q-11.25 -10.4 -10.95 -8.25 -10.8 -7.35 -11.65 -6.5 -12.35 -5.8 -13.4 -5.35 -15.3 -4.65 -15.6 -2.7 -15.75 -1.45 -15.15 -0.35 L-13.95 0.15 -13.4 -0.25 Q-12.95 -2.25 -11.2 -3.2 -8.15 -2.65 -6.6 0.05 -7.2 1.7 -8.9 1.6 -12.65 1.95 -13.15 5.6 -13.3 6.8 -12.95 8.0 -12.5 9.6 -11.05 9.6 -10.3 8.75 -10.4 7.5 -10.5 5.45 -8.55 4.75 -6.3 4.2 -5.1 6.25 L-4.45 7.9 -4.25 8.3 -6.9 12.05 Q-7.45 12.65 -8.25 13.0 -9.6 13.55 -10.65 14.7 -11.2 15.35 -11.0 15.9 L-10.05 17.5 Q-9.0 18.65 -7.6 19.15 -6.45 19.6 -5.3 19.65 L-4.15 18.9 Q-3.95 16.05 -2.7 13.8 -2.35 13.2 -1.65 12.9 -0.2 12.3 1.1 12.55 2.3 13.75 1.45 15.3 L-0.15 18.5 Q-1.0 20.4 -2.5 21.65 L-6.4 24.75 -6.85 24.7" fill="#ff6600" fill-rule="evenodd" stroke="none"/>
    <path d="M20.2 23.15 Q20.65 20.5 19.2 18.2 18.05 16.45 16.35 15.45 L8.1 10.7 Q10.55 6.1 12.45 1.15 13.3 -1.1 13.8 -3.4 14.0 -4.4 13.8 -5.4 L13.4 -6.75 M8.35 -17.85 Q5.7 -23.5 0.35 -26.0 L-1.55 -26.55 Q-2.4 -25.8 -3.55 -25.45 -11.35 -22.45 -16.8 -16.05 L-19.55 -12.25 -20.2 -10.35 -20.3 -9.25 -19.95 -8.8 Q-20.25 -4.75 -19.25 -1.05 L-16.9 7.85 Q-15.1 14.6 -11.1 20.4 L-8.05 24.35 Q-7.05 25.4 -5.6 25.95 L-2.9 26.15 1.45 25.1 5.65 23.9 11.05 22.95" fill="none" stroke="#000000" stroke-linecap="round" stroke-linejoin="round" stroke-width="0.05"/>
    <path d="M0.2 -13.0 Q-0.7 -11.15 -2.95 -10.95 -4.5 -10.55 -4.65 -8.7 L-4.6 -7.35 Q-2.75 -9.9 0.65 -9.9 L1.55 -10.65 Q1.85 -11.3 1.55 -12.15 0.85 -13.95 -0.45 -15.35 0.0 -14.7 0.15 -13.9 L0.2 -13.0 M7.7 -11.05 L7.05 -11.0 6.65 -10.65 6.25 -8.6 4.85 -8.0 M0.1 -0.65 Q-0.85 0.0 -1.0 1.35 -1.15 2.75 -0.5 4.05 -0.25 4.55 -0.15 5.15 0.25 7.55 -1.9 8.4 0.6 8.65 2.5 6.75 3.05 5.6 2.85 4.55 L2.1 1.65 2.0 0.55 2.15 0.05 5.2 -0.95 2.15 -1.45 Q1.05 -1.3 0.1 -0.65 M5.75 -1.1 L5.2 -0.95 M-18.0 -13.55 L-16.2 -13.45 Q-15.85 -12.9 -16.25 -12.2 L-17.55 -9.4 -17.7 -8.1 -17.5 -7.5 -16.5 -7.1 Q-15.75 -8.25 -15.35 -9.55 -15.1 -10.45 -14.3 -10.75 L-13.6 -11.0 Q-11.25 -10.4 -10.95 -8.25 -10.8 -7.35 -11.65 -6.5 -12.35 -5.8 -13.4 -5.35 -15.3 -4.65 -15.6 -2.7 -15.75 -1.45 -15.15 -0.35 L-13.95 0.15 -13.4 -0.25 Q-12.95 -2.25 -11.2 -3.2 -8.15 -2.65 -6.6 0.05 -7.2 1.7 -8.9 1.6 -12.65 1.95 -13.15 5.6 -13.3 6.8 -12.95 8.0 -12.5 9.6 -11.05 9.6 -10.3 8.75 -10.4 7.5 -10.5 5.45 -8.55 4.75 -6.3 4.2 -5.1 6.25 L-4.45 7.9 -4.25 8.3 -6.9 12.05 Q-7.45 12.65 -8.25 13.0 -9.6 13.55 -10.65 14.7 -11.2 15.35 -11.0 15.9 L-10.05 17.5 Q-9.0 18.65 -7.6 19.15 -6.45 19.6 -5.3 19.65 L-4.15 18.9 Q-3.95 16.05 -2.7 13.8 -2.35 13.2 -1.65 12.9 -0.2 12.3 1.1 12.55 2.3 13.75 1.45 15.3 L-0.15 18.5 Q-1.0 20.4 -2.5 21.65 L-6.4 24.75 -6.85 24.7" fill="none" stroke="#ffcc00" stroke-linecap="round" stroke-linejoin="round" stroke-width="1.0"/>
  </g>
</svg>
