<?xml version="1.0" encoding="UTF-8" standalone="no"?>
<svg xmlns:xlink="http://www.w3.org/1999/xlink" height="45.4px" width="34.5px" xmlns="http://www.w3.org/2000/svg">
  <g transform="matrix(1.0, 0.0, 0.0, 1.0, 0.0, 0.0)">
    <path d="M-17.25 -11.2 Q-14.75 -16.55 -9.7 -19.45 6.0 -28.25 15.2 -13.3 19.0 0.95 15.7 15.85 15.15 18.4 13.7 19.85 7.25 26.25 -0.45 18.2 -12.5 5.65 -17.25 -11.2 M5.8 -14.45 Q13.8 -0.6 9.05 13.2 13.8 -0.6 5.8 -14.45" fill="#ff6600" fill-rule="evenodd" stroke="none"/>
    <path d="M-17.25 -11.2 Q-12.5 5.65 -0.45 18.2 7.25 26.25 13.7 19.85 15.15 18.4 15.7 15.85 19.0 0.95 15.2 -13.3 6.0 -28.25 -9.7 -19.45 -14.75 -16.55 -17.25 -11.2 M9.05 13.2 Q13.8 -0.6 5.8 -14.45" fill="none" stroke="#000000" stroke-linecap="round" stroke-linejoin="round" stroke-width="0.05"/>
  </g>
</svg>
