<?xml version="1.0" encoding="UTF-8" standalone="no"?>
<svg xmlns:xlink="http://www.w3.org/1999/xlink" height="32.1px" width="38.2px" xmlns="http://www.w3.org/2000/svg">
  <g transform="matrix(1.0, 0.0, 0.0, 1.0, 0.0, 0.0)">
    <path d="M16.8 -14.1 Q19.1 -12.05 18.7 -6.25 18.35 -0.45 11.75 3.65 L-8.15 15.05 Q-12.6 17.45 -16.6 15.2 -22.15 12.2 -16.95 7.15 -6.95 -2.55 2.8 -12.6 L3.25 -12.8 4.7 -14.45 5.3 -15.4 9.65 -15.7 Q14.45 -16.2 16.8 -14.1" fill="#ff6600" fill-rule="evenodd" stroke="none"/>
    <path d="M5.3 -15.4 L4.7 -14.45 3.25 -12.8 2.8 -12.6 Q-6.95 -2.55 -16.95 7.15 -22.15 12.2 -16.6 15.2 -12.6 17.45 -8.15 15.05 L11.75 3.65 Q18.35 -0.45 18.7 -6.25 19.1 -12.05 16.8 -14.1 M2.8 -12.6 L3.05 -12.8 3.25 -12.8" fill="none" stroke="#000000" stroke-linecap="round" stroke-linejoin="round" stroke-width="0.05"/>
  </g>
</svg>
