<?xml version="1.0" encoding="UTF-8" standalone="no"?>
<svg xmlns:xlink="http://www.w3.org/1999/xlink" height="37.8px" width="65.5px" xmlns="http://www.w3.org/2000/svg">
  <g transform="matrix(1.0, 0.0, 0.0, 1.0, 0.0, 0.0)">
    <path d="M29.15 3.85 Q20.55 2.45 14.7 -3.9 L10.65 -8.15 Q-1.15 -19.8 -14.9 -11.0 -1.15 -19.8 10.65 -8.15 L14.7 -3.9 Q20.55 2.45 29.15 3.85 M-9.1 -15.4 Q3.65 -20.2 13.95 -7.75 L15.15 -5.9 Q16.9 -2.95 19.65 -1.55 24.35 1.15 29.3 2.85 33.4 4.05 35.75 7.3 L20.6 4.75 15.25 3.55 Q12.55 2.75 11.15 0.8 1.3 -13.0 -15.3 -9.7 L-15.95 -9.75 -16.3 -9.5 -18.1 -8.6 -19.65 -8.3 Q-19.2 -9.2 -18.4 -9.9 -13.6 -13.7 -9.1 -15.4" fill="url(#gradient0)" fill-rule="evenodd" stroke="none"/>
    <path d="M19.65 -1.55 Q16.9 -2.95 15.15 -5.9 L13.95 -7.75 Q3.65 -20.2 -9.1 -15.4 -5.95 -18.25 -3.1 -19.15 L4.9 -21.5 5.5 -21.0 Q16.55 -17.05 28.3 -15.5 L34.3 -17.7 37.2 -12.85 35.45 -10.2 Q30.9 -4.25 22.7 -2.7 21.1 -2.3 19.65 -1.55 M-15.3 -9.7 Q1.3 -13.0 11.15 0.8 12.55 2.75 15.25 3.55 L20.6 4.75 4.6 5.65 Q4.85 2.8 3.5 0.4 L2.95 -0.7 Q-3.4 -2.25 -3.65 3.65 L-4.0 5.65 -10.15 4.25 Q0.2 -0.4 -7.95 -7.7 L-8.5 -8.1 -16.0 0.8 -18.2 -1.5 Q-13.05 -2.5 -13.5 -7.4 L-13.95 -9.15 -15.3 -9.7 M13.95 -7.75 Q18.7 -8.6 23.3 -10.45 L25.5 -11.2 Q28.75 -8.8 32.75 -9.7 L35.45 -10.2 32.75 -9.7 Q28.75 -8.8 25.5 -11.2 L23.3 -10.45 Q18.7 -8.6 13.95 -7.75" fill="url(#gradient1)" fill-rule="evenodd" stroke="none"/>
    <path d="M-18.1 -8.6 L-16.3 -9.5 -15.3 -9.7 -13.95 -9.15 -13.5 -7.4 Q-13.05 -2.5 -18.2 -1.5 -22.65 -0.65 -24.9 3.2 -27.05 6.95 -25.45 11.3 L-26.55 9.55 Q-28.3 6.95 -28.3 4.2 -28.35 -4.6 -18.1 -8.6 M-16.0 0.8 L-8.5 -8.1 -7.95 -7.7 Q0.2 -0.4 -10.15 4.25 -16.1 9.4 -20.1 16.3 L-19.55 11.9 -19.55 9.4 Q-19.3 4.6 -16.0 0.8 M-4.0 5.65 L-3.65 3.65 Q-3.4 -2.25 2.95 -0.7 L3.5 0.4 Q4.85 2.8 4.6 5.65 4.85 7.5 3.65 8.8 -3.6 16.75 -13.5 13.4 L-11.5 12.25 Q-6.9 9.65 -4.0 5.65 M-16.15 -7.9 L-17.0 -7.7 Q-27.65 -4.6 -26.9 6.35 -27.65 -4.6 -17.0 -7.7 L-16.15 -7.9 M-8.45 -6.45 L-11.95 -2.45 Q-18.15 3.65 -18.25 12.3 -18.15 3.65 -11.95 -2.45 L-8.45 -6.45 M0.4 1.3 L-0.05 2.75 Q-2.7 10.5 -10.3 12.9 -2.7 10.5 -0.05 2.75 L0.4 1.3" fill="url(#gradient2)" fill-rule="evenodd" stroke="none"/>
    <path d="M19.65 -1.55 Q16.9 -2.95 15.15 -5.9 L13.95 -7.75 Q3.65 -20.2 -9.1 -15.4 -13.6 -13.7 -18.4 -9.9 -19.2 -9.2 -19.65 -8.3 L-18.1 -8.6 -16.3 -9.5 -15.95 -9.75 -15.3 -9.7 Q1.3 -13.0 11.15 0.8 12.55 2.75 15.25 3.55 L20.6 4.75 35.75 7.3 Q33.4 4.05 29.3 2.85 24.35 1.15 19.65 -1.55 21.1 -2.3 22.7 -2.7 30.9 -4.25 35.45 -10.2 L32.75 -9.7 Q28.75 -8.8 25.5 -11.2 L23.3 -10.45 Q18.7 -8.6 13.95 -7.75 M-9.1 -15.4 Q-5.95 -18.25 -3.1 -19.15 L4.9 -21.5 5.5 -21.0 Q16.55 -17.05 28.3 -15.5 L34.3 -17.7 37.2 -12.85 35.45 -10.2 M-15.3 -9.7 L-13.95 -9.15 -13.5 -7.4 Q-13.05 -2.5 -18.2 -1.5 L-16.0 0.8 -8.5 -8.1 -7.95 -7.7 Q0.2 -0.4 -10.15 4.25 L-4.0 5.65 -3.65 3.65 Q-3.4 -2.25 2.95 -0.7 L3.5 0.4 Q4.85 2.8 4.6 5.65 L20.6 4.75 M-15.3 -9.7 L-16.3 -9.5 M-10.15 4.25 Q-16.1 9.4 -20.1 16.3 L-19.55 11.9 -19.55 9.4 Q-19.3 4.6 -16.0 0.8 M4.6 5.65 Q4.85 7.5 3.65 8.8 -3.6 16.75 -13.5 13.4 L-11.5 12.25 Q-6.9 9.65 -4.0 5.65 M-18.2 -1.5 Q-22.65 -0.65 -24.9 3.2 -27.05 6.95 -25.45 11.3 L-26.55 9.55 Q-28.3 6.95 -28.3 4.2 -28.35 -4.6 -18.1 -8.6" fill="none" stroke="#000000" stroke-linecap="round" stroke-linejoin="round" stroke-width="0.05"/>
    <path d="M-26.9 6.35 Q-27.65 -4.6 -17.0 -7.7 L-16.15 -7.9 M-18.25 12.3 Q-18.15 3.65 -11.95 -2.45 L-8.45 -6.45 M-10.3 12.9 Q-2.7 10.5 -0.05 2.75 L0.4 1.3" fill="none" stroke="#ffff00" stroke-linecap="round" stroke-linejoin="round" stroke-width="0.05"/>
    <path d="M-14.9 -11.0 Q-1.15 -19.8 10.65 -8.15 L14.7 -3.9 Q20.55 2.45 29.15 3.85" fill="none" stroke="#ffffcc" stroke-linecap="round" stroke-linejoin="round" stroke-width="0.05"/>
    <path d="M29.75 -14.3 Q29.45 -13.05 28.25 -13.1 27.0 -13.0 26.45 -14.3 L23.85 -13.1 22.9 -15.2 20.35 -14.35 20.2 -11.45 16.8 -11.45 Q16.4 -12.55 17.0 -13.75 L17.05 -14.35 Q16.65 -15.85 14.85 -15.7 L13.7 -14.85 Q13.25 -13.85 13.8 -12.8 L14.85 -10.4 M8.6 -5.05 Q9.05 -5.95 10.0 -6.0 L10.35 -6.0 11.2 -4.8 10.85 -4.2 11.25 -3.1 11.75 -2.75 13.7 -2.55 Q14.3 -0.65 12.5 0.3 M5.05 -10.4 L5.25 -9.45 7.25 -8.8 6.55 -7.45 M30.05 -7.75 L29.45 -7.8 28.75 -8.4 26.6 -8.2 26.75 -8.05 26.85 -6.4 Q26.15 -5.55 25.05 -6.1 L24.9 -6.2 24.9 -8.3 Q24.55 -9.2 23.5 -9.2 L22.9 -9.1 23.55 -5.85 23.3 -4.55 Q22.05 -4.15 21.1 -4.9 L20.35 -5.65 20.7 -8.05 18.75 -7.9 18.1 -7.8 17.9 -7.6 Q18.1 -6.0 19.0 -4.2 19.4 -3.3 19.65 -3.9 M16.0 0.45 L14.55 2.35" fill="none" stroke="#ffcc00" stroke-linecap="round" stroke-linejoin="round" stroke-width="1.0"/>
  </g>
  <defs>
    <radialGradient cx="0" cy="0" gradientTransform="matrix(0.0254, 0.0, 0.0, 0.0254, 0.0, -12.5)" gradientUnits="userSpaceOnUse" id="gradient0" r="819.2" spreadMethod="pad">
      <stop offset="0.0" stop-color="#ffffcc"/>
      <stop offset="0.44313725490196076" stop-color="#efcc80"/>
      <stop offset="1.0" stop-color="#ad6316"/>
    </radialGradient>
    <radialGradient cx="0" cy="0" gradientTransform="matrix(0.0299, 0.0, 0.0, 0.0299, 6.55, -15.75)" gradientUnits="userSpaceOnUse" id="gradient1" r="819.2" spreadMethod="pad">
      <stop offset="0.0" stop-color="#ffffcc"/>
      <stop offset="0.44313725490196076" stop-color="#efcc80"/>
      <stop offset="1.0" stop-color="#ad6316"/>
    </radialGradient>
    <linearGradient gradientTransform="matrix(0.0059, -0.0076, 0.0117, 0.0091, -12.25, 4.1)" gradientUnits="userSpaceOnUse" id="gradient2" spreadMethod="pad" x1="-819.2" x2="819.2">
      <stop offset="0.0" stop-color="#ffff7c"/>
      <stop offset="1.0" stop-color="#ff6600"/>
    </linearGradient>
  </defs>
</svg>
