<?xml version="1.0" encoding="UTF-8" standalone="no"?>
<svg xmlns:xlink="http://www.w3.org/1999/xlink" height="46.7px" width="75.25px" xmlns="http://www.w3.org/2000/svg">
  <g transform="matrix(1.0, 0.0, 0.0, 1.0, 0.0, 0.0)">
    <path d="M13.65 -18.85 L13.6 -18.7 Q13.15 -16.5 14.7 -15.0 L15.45 -14.2 16.2 -13.5 Q17.3 -12.45 17.25 -11.0 L17.15 -10.45 16.75 -9.8 Q16.1 -8.85 15.2 -8.35 16.1 -8.85 16.75 -9.8 L17.15 -10.45 17.25 -11.0 Q17.3 -12.45 16.2 -13.5 L15.45 -14.2 14.7 -15.0 Q13.15 -16.5 13.6 -18.7 L13.65 -18.85 22.65 -17.75 26.45 -17.3 Q30.1 -16.8 32.9 -14.2 38.65 -8.8 34.35 1.75 30.0 12.25 22.1 18.3 14.2 24.3 2.3 24.35 -9.6 24.35 -17.8 22.3 -26.05 20.25 -34.5 7.5 -42.95 -5.25 -35.75 -19.15 -32.1 -21.45 -28.05 -22.15 L-26.55 -22.35 Q-20.55 -22.4 -14.6 -22.05 -15.1 -21.4 -14.5 -20.85 L-12.75 -20.05 -11.95 -19.85 Q-10.7 -19.45 -10.1 -18.75 -9.25 -17.7 -9.85 -16.4 L-10.4 -15.45 Q-12.15 -12.6 -13.95 -10.7 -12.15 -12.6 -10.4 -15.45 L-9.85 -16.4 Q-9.25 -17.7 -10.1 -18.75 -10.7 -19.45 -11.95 -19.85 L-12.75 -20.05 -14.5 -20.85 Q-15.1 -21.4 -14.6 -22.05 L-2.3 -21.0 1.15 -20.5 13.65 -18.85 M24.4 -10.7 L24.9 -12.55 25.05 -13.1 Q25.25 -15.25 23.55 -16.15 22.45 -16.7 22.65 -17.75 22.45 -16.7 23.55 -16.15 25.25 -15.25 25.05 -13.1 L24.9 -12.55 24.4 -10.7 M0.9 -8.35 Q2.7 -9.6 3.5 -12.55 3.85 -13.85 2.65 -14.55 0.55 -15.8 -0.2 -17.9 L-0.2 -18.4 Q0.35 -19.55 1.15 -20.5 0.35 -19.55 -0.2 -18.4 L-0.2 -17.9 Q0.55 -15.8 2.65 -14.55 3.85 -13.85 3.5 -12.55 2.7 -9.6 0.9 -8.35 M-25.6 -16.65 Q-26.5 -16.0 -25.4 -17.05 -24.65 -17.8 -24.2 -19.1 L-24.2 -19.6 Q-24.65 -20.6 -25.65 -21.0 L-27.4 -21.6 -28.05 -22.15 -27.4 -21.6 -25.65 -21.0 Q-24.65 -20.6 -24.2 -19.6 L-24.2 -19.1 Q-24.65 -17.8 -25.4 -17.05 -26.5 -16.0 -25.6 -16.65 M-24.7 17.2 L-25.35 16.1 Q-27.9 11.35 -25.9 6.2 -27.9 11.35 -25.35 16.1 L-24.7 17.2" fill="#ff6600" fill-rule="evenodd" stroke="none"/>
    <path d="M13.65 -18.85 L1.15 -20.5 -2.3 -21.0 -14.6 -22.05 Q-20.55 -22.4 -26.55 -22.35 L-28.05 -22.15 Q-32.1 -21.45 -35.75 -19.15 -42.95 -5.25 -34.5 7.5 -26.05 20.25 -17.8 22.3 -9.6 24.35 2.3 24.35 14.2 24.3 22.1 18.3 30.0 12.25 34.35 1.75 38.65 -8.8 32.9 -14.2 30.1 -16.8 26.45 -17.3 L22.65 -17.75 13.65 -18.85 M-25.9 6.2 Q-27.9 11.35 -25.35 16.1 L-24.7 17.2" fill="none" stroke="#000000" stroke-linecap="round" stroke-linejoin="round" stroke-width="0.05"/>
    <path d="M15.2 -8.35 Q16.1 -8.85 16.75 -9.8 L17.15 -10.45 17.25 -11.0 Q17.3 -12.45 16.2 -13.5 L15.45 -14.2 14.7 -15.0 Q13.15 -16.5 13.6 -18.7 L13.65 -18.85 M1.15 -20.5 Q0.35 -19.55 -0.2 -18.4 L-0.2 -17.9 Q0.55 -15.8 2.65 -14.55 3.85 -13.85 3.5 -12.55 2.7 -9.6 0.9 -8.35 M22.65 -17.75 Q22.45 -16.7 23.55 -16.15 25.25 -15.25 25.05 -13.1 L24.9 -12.55 24.4 -10.7 M-28.05 -22.15 L-27.4 -21.6 -25.65 -21.0 Q-24.65 -20.6 -24.2 -19.6 L-24.2 -19.1 Q-24.65 -17.8 -25.4 -17.05 -26.5 -16.0 -25.6 -16.65 M-14.6 -22.05 Q-15.1 -21.4 -14.5 -20.85 L-12.75 -20.05 -11.95 -19.85 Q-10.7 -19.45 -10.1 -18.75 -9.25 -17.7 -9.85 -16.4 L-10.4 -15.45 Q-12.15 -12.6 -13.95 -10.7" fill="none" stroke="#ffff00" stroke-linecap="round" stroke-linejoin="round" stroke-width="0.05"/>
  </g>
</svg>
