<?xml version="1.0" encoding="UTF-8" standalone="no"?>
<svg xmlns:xlink="http://www.w3.org/1999/xlink" height="22.75px" width="36.65px" xmlns="http://www.w3.org/2000/svg">
  <g transform="matrix(1.0, 0.0, 0.0, 1.0, 0.0, 0.0)">
    <path d="M-13.45 2.15 L-12.65 1.35 Q-11.25 0.05 -9.05 0.0 -7.7 0.0 -6.55 0.85 -4.55 2.5 -4.2 4.95 L-3.7 5.95 -2.4 7.5 -3.6 9.6 -2.65 10.7 Q-0.7 12.65 0.0 15.4 L-4.8 13.0 -2.85 17.05 -1.85 20.45 -2.4 21.0 -3.0 19.85 Q-4.35 17.6 -7.45 17.15 -5.7 19.0 -6.55 21.3 L-7.2 20.15 -7.75 19.45 Q-10.0 17.5 -12.2 19.4 L-19.4 19.2 Q-21.5 19.2 -23.0 20.95 L-24.3 21.2 -24.2 21.5 -24.8 21.45 -25.05 21.45 -25.55 21.4 -25.6 21.25 Q-25.5 20.8 -25.55 20.2 L-25.85 19.45 -25.9 20.65 -26.0 20.95 -27.0 22.2 -27.25 22.4 Q-27.65 22.75 -28.25 22.75 L-27.35 22.0 -28.4 21.4 -28.6 21.05 -28.75 20.35 -28.75 20.05 -28.75 19.75 -28.55 19.15 -28.15 18.8 -27.35 18.4 -27.95 18.45 -28.25 18.5 Q-29.55 18.65 -29.95 19.75 L-29.95 19.9 -30.15 21.0 Q-30.55 21.75 -31.2 21.1 L-31.35 21.0 -31.55 20.9 -31.55 20.95 -31.6 20.85 -32.95 19.6 Q-34.95 17.9 -36.2 15.6 L-36.65 15.1 -36.1 14.1 -35.1 13.9 -33.05 14.45 -32.15 14.45 Q-30.95 14.35 -30.0 13.7 L-29.55 13.3 -28.3 12.6 -27.8 12.7 -26.6 13.0 -25.6 13.0 -23.25 13.0 -20.25 13.0 -19.05 13.0 Q-17.85 12.15 -17.45 10.75 L-16.7 8.4 Q-15.85 5.95 -14.55 3.7 -14.1 2.85 -13.45 2.15" fill="#ff6600" fill-rule="evenodd" stroke="none"/>
    <path d="M-13.45 2.15 Q-14.1 2.85 -14.55 3.7 -15.85 5.95 -16.7 8.4 L-17.45 10.75 Q-17.85 12.15 -19.05 13.0 L-20.25 13.0 -20.8 12.7 Q-21.7 12.15 -22.3 10.95 L-23.25 13.0 -25.6 13.0 -26.1 12.2 Q-26.6 11.15 -26.55 10.0 L-25.6 9.9 -24.4 9.85 Q-21.8 9.8 -20.7 7.3 L-19.45 4.45 Q-19.1 3.55 -19.05 2.65 -18.9 1.1 -17.6 0.35 L-13.45 2.15 M-27.8 12.7 L-28.3 12.6 -29.55 13.3 -30.0 13.7 -30.5 13.4 Q-31.75 12.45 -32.1 11.1 L-31.8 11.0 -31.55 10.9 -29.95 10.6 -29.85 10.6 -27.65 10.15 -27.05 10.05 -27.8 12.7 M-32.15 14.45 L-33.05 14.45 -35.1 13.9 -36.1 14.1 -36.25 13.9 -35.7 13.5 -34.85 12.8 -34.1 12.3 -33.4 11.8 -32.25 11.2 -32.4 12.6 -32.15 14.45" fill="#ffff00" fill-rule="evenodd" stroke="none"/>
    <path d="M-20.25 13.0 L-23.25 13.0 -22.3 10.95 Q-21.7 12.15 -20.8 12.7 L-20.25 13.0 M-25.6 13.0 L-26.6 13.0 -27.8 12.7 -27.05 10.05 -27.65 10.15 Q-27.9 8.05 -26.9 6.1 L-26.7 5.65 Q-26.4 6.95 -26.35 8.35 -26.3 9.25 -25.6 9.9 L-26.55 10.0 Q-26.6 11.15 -26.1 12.2 L-25.6 13.0 M-30.0 13.7 Q-30.95 14.35 -32.15 14.45 L-32.4 12.6 -32.25 11.2 -32.1 11.1 Q-31.75 12.45 -30.5 13.4 L-30.0 13.7 M-26.55 10.0 L-26.5 9.15 -26.85 9.7 -27.05 10.05 -26.85 9.7 -26.5 9.15 -26.55 10.0 M-29.9 10.55 L-29.95 10.6 -31.55 10.9 -31.8 11.0 Q-32.7 8.75 -31.6 6.55 L-31.35 6.25 Q-31.4 8.1 -30.45 9.7 L-29.9 10.55 M-35.7 13.5 L-35.65 12.9 -36.0 12.35 -35.65 8.5 -35.55 8.0 -34.9 10.3 -34.1 12.3 -34.85 12.8 -35.7 13.5" fill="#efcc80" fill-rule="evenodd" stroke="none"/>
    <path d="M-24.2 21.5 L-24.3 21.2 -23.0 20.95 Q-21.5 19.2 -19.4 19.2 L-12.2 19.4 Q-10.0 17.5 -7.75 19.45 L-7.2 20.15 -6.55 21.3 Q-5.7 19.0 -7.45 17.15 -4.35 17.6 -3.0 19.85 L-2.4 21.0 -1.85 20.45 -2.85 17.05 -4.8 13.0 0.0 15.4 Q-0.7 12.65 -2.65 10.7 L-3.6 9.6 -2.4 7.5 -3.7 5.95 -4.2 4.95 Q-4.55 2.5 -6.55 0.85 -7.7 0.0 -9.05 0.0 -11.25 0.05 -12.65 1.35 L-13.45 2.15 Q-14.1 2.85 -14.55 3.7 -15.85 5.95 -16.7 8.4 L-17.45 10.75 Q-17.85 12.15 -19.05 13.0 L-20.25 13.0 -23.25 13.0 -25.6 13.0 -26.6 13.0 -27.8 12.7 -28.3 12.6 -29.55 13.3 -30.0 13.7 Q-30.95 14.35 -32.15 14.45 L-33.05 14.45 -35.1 13.9 -36.1 14.1 -36.65 15.1 -36.2 15.6 Q-34.95 17.9 -32.95 19.6 L-31.6 20.85 -31.55 20.95 M-13.45 2.15 L-17.6 0.35 Q-18.9 1.1 -19.05 2.65 -19.1 3.55 -19.45 4.45 L-20.7 7.3 Q-21.8 9.8 -24.4 9.85 L-25.6 9.9 -26.55 10.0 Q-26.6 11.15 -26.1 12.2 L-25.6 13.0 M-25.6 9.9 Q-26.3 9.25 -26.35 8.35 -26.4 6.95 -26.7 5.65 L-26.9 6.1 Q-27.9 8.05 -27.65 10.15 L-27.05 10.05 -26.85 9.7 -26.5 9.15 -26.55 10.0 M-29.85 10.6 L-29.9 10.55 -30.45 9.7 Q-31.4 8.1 -31.35 6.25 L-31.6 6.55 Q-32.7 8.75 -31.8 11.0 L-32.1 11.1 -32.25 11.2 -32.4 12.6 -32.15 14.45 M-29.95 10.6 L-29.85 10.6 -27.65 10.15 M-35.7 13.5 L-35.65 12.9 -36.0 12.35 -35.65 8.5 -35.55 8.0 -34.9 10.3 -34.1 12.3 -33.4 11.8 -32.25 11.2 -32.15 10.6 -32.1 11.1 Q-31.75 12.45 -30.5 13.4 L-30.0 13.7 M-29.95 10.6 L-31.55 10.9 -31.8 11.0 M-35.7 13.5 L-36.25 13.9 M-34.1 12.3 L-34.85 12.8 -35.7 13.5 M-20.25 13.0 L-20.8 12.7 Q-21.7 12.15 -22.3 10.95 L-23.25 13.0 M-27.05 10.05 L-27.8 12.7" fill="none" stroke="#000000" stroke-linecap="round" stroke-linejoin="round" stroke-width="0.05"/>
  </g>
</svg>
