<?xml version="1.0" encoding="UTF-8" standalone="no"?>
<svg xmlns:xlink="http://www.w3.org/1999/xlink" height="14.55px" width="9.4px" xmlns="http://www.w3.org/2000/svg">
  <g transform="matrix(1.0, 0.0, 0.0, 1.0, 0.0, 0.0)">
    <path d="M-31.55 20.95 L-31.55 20.9 -31.35 21.0 -31.2 21.1 Q-30.55 21.75 -30.15 21.0 L-29.95 19.9 -29.95 19.75 Q-29.55 18.65 -28.25 18.5 L-27.95 18.45 -27.35 18.4 -28.15 18.8 -28.55 19.15 -28.75 19.75 -28.75 20.05 -28.75 20.35 -28.6 21.05 -28.4 21.4 -27.35 22.0 -28.25 22.75 Q-27.65 22.75 -27.25 22.4 L-27.0 22.2 -26.0 20.95 -25.9 20.65 -25.85 19.45 -25.55 20.2 Q-25.5 20.8 -25.6 21.25 L-25.55 21.4 -25.05 21.45 -24.8 21.45 -24.2 21.5 Q-24.05 22.35 -24.2 23.1 L-24.4 23.1 -24.05 23.7 -23.95 23.85 Q-23.45 24.5 -24.05 25.05 L-24.75 24.05 -24.75 24.35 Q-25.8 25.25 -25.6 26.6 L-24.05 27.45 Q-22.75 30.4 -26.45 31.6 L-25.55 30.5 Q-25.9 29.3 -27.25 28.6 -27.25 27.55 -26.15 27.0 L-28.9 27.65 Q-29.9 28.05 -29.55 28.7 -28.15 31.6 -32.0 32.95 -30.9 32.0 -31.85 31.0 L-33.05 29.0 Q-33.35 28.05 -32.4 27.45 -29.55 25.8 -30.65 23.7 L-30.95 23.1 -31.05 23.1 -31.95 22.3 -31.55 20.95 M-28.95 22.8 L-29.1 22.85 -28.75 23.65 -28.7 23.7 -28.55 24.1 -28.95 24.75 -29.4 25.15 -29.4 25.25 -29.0 25.35 -28.3 25.2 Q-28.65 26.05 -29.8 26.65 -31.4 27.55 -31.4 28.15 -31.4 28.7 -30.8 29.05 L-30.6 28.95 Q-30.6 27.6 -28.9 26.8 -27.6 26.2 -27.25 25.3 L-27.2 25.3 Q-26.3 25.3 -25.65 24.65 -25.2 24.2 -25.2 23.8 L-25.2 23.7 Q-25.3 23.35 -25.7 23.25 -25.95 23.3 -26.0 23.45 L-26.0 23.7 Q-26.1 24.35 -27.0 24.7 -26.65 24.35 -26.85 23.95 L-27.0 23.7 -27.35 23.15 -27.9 23.7 -28.05 24.2 -28.35 23.7 -28.45 23.55 -28.95 22.8" fill="#ffcc00" fill-rule="evenodd" stroke="none"/>
    <path d="M-28.95 22.8 L-28.45 23.55 -28.35 23.7 -28.05 24.2 -27.9 23.7 -27.35 23.15 -27.0 23.7 -26.85 23.95 Q-26.65 24.35 -27.0 24.7 -26.1 24.35 -26.0 23.7 L-26.0 23.45 Q-25.95 23.3 -25.7 23.25 -25.3 23.35 -25.2 23.7 L-25.2 23.8 Q-25.2 24.2 -25.65 24.65 -26.3 25.3 -27.2 25.3 L-27.25 25.3 Q-27.6 26.2 -28.9 26.8 -30.6 27.6 -30.6 28.95 L-30.8 29.05 Q-31.4 28.7 -31.4 28.15 -31.4 27.55 -29.8 26.65 -28.65 26.05 -28.3 25.2 L-29.0 25.35 -29.4 25.25 -29.4 25.15 -28.95 24.75 -28.55 24.1 -28.7 23.7 -28.75 23.65 -29.1 22.85 -28.95 22.8" fill="#ffffcc" fill-rule="evenodd" stroke="none"/>
  </g>
</svg>
