<?xml version="1.0" encoding="UTF-8" standalone="no"?>
<svg xmlns:xlink="http://www.w3.org/1999/xlink" height="18.25px" width="10.0px" xmlns="http://www.w3.org/2000/svg">
  <g transform="matrix(1.0, 0.0, 0.0, 1.0, 0.0, 0.0)">
    <path d="M-31.55 20.9 L-31.35 21.0 -31.2 21.1 Q-30.55 21.75 -30.15 21.0 L-29.95 19.9 -29.95 19.75 Q-29.55 18.65 -28.25 18.5 L-27.95 18.45 -27.35 18.4 -28.15 18.8 -28.55 19.15 -28.75 19.75 -28.75 20.05 -28.75 20.35 -28.6 21.05 -28.4 21.4 -27.35 22.0 -28.25 22.75 Q-27.65 22.75 -27.25 22.4 L-27.0 22.2 -26.0 20.95 -25.9 20.65 -25.85 19.45 -25.55 20.2 Q-25.5 20.8 -25.6 21.25 L-25.55 21.4 -25.05 21.45 -24.8 21.45 -24.2 21.5 Q-24.05 22.35 -24.2 23.1 L-24.55 23.1 Q-23.55 24.2 -24.2 25.6 L-24.5 26.0 -25.15 24.6 Q-26.3 25.15 -25.85 26.35 L-25.0 28.4 Q-24.55 29.5 -24.8 30.7 L-24.9 31.3 -26.15 32.5 Q-25.35 30.0 -27.55 28.6 -26.95 31.0 -27.85 33.15 L-28.35 33.95 -30.55 36.15 -30.65 36.65 -31.45 34.0 Q-31.6 33.35 -31.2 32.9 L-29.65 31.1 Q-29.15 30.5 -29.2 29.7 L-29.5 27.65 Q-30.5 28.35 -31.8 28.6 -32.75 28.8 -33.05 29.65 L-33.25 30.55 -33.05 31.05 Q-33.5 31.4 -33.65 30.5 L-33.9 28.95 Q-34.2 27.0 -32.55 25.85 L-31.6 25.25 -30.95 24.5 -30.9 23.1 -31.05 23.1 -31.6 22.55 -31.95 22.3 -31.55 20.95 -31.55 20.9 M-28.95 24.45 L-28.85 24.5 Q-29.15 24.85 -30.35 24.95 -31.35 24.95 -31.35 26.15 L-30.95 26.75 -30.45 26.55 Q-30.65 25.75 -29.55 25.45 L-28.45 24.75 -28.35 24.8 -28.15 24.95 -28.2 25.05 -28.1 25.4 -28.55 25.85 Q-29.1 26.35 -29.1 27.0 L-28.95 29.25 Q-28.25 29.4 -28.25 28.1 L-27.7 26.15 Q-27.2 27.0 -26.55 27.0 L-26.25 26.95 -26.25 26.85 -27.3 25.2 Q-26.7 24.45 -26.7 23.85 -26.7 22.3 -27.45 23.5 L-27.8 24.2 -28.45 24.1 -28.8 23.55 Q-29.2 22.95 -29.45 22.95 L-29.2 23.8 -28.9 24.2 -28.95 24.2 -28.95 24.45" fill="#ffcc00" fill-rule="evenodd" stroke="none"/>
    <path d="M-28.95 24.45 L-28.95 24.2 -28.9 24.2 -29.2 23.8 -29.45 22.95 Q-29.2 22.95 -28.8 23.55 L-28.45 24.1 -27.8 24.2 -27.45 23.5 Q-26.7 22.3 -26.7 23.85 -26.7 24.45 -27.3 25.2 L-26.25 26.85 -26.25 26.95 -26.55 27.0 Q-27.2 27.0 -27.7 26.15 L-28.25 28.1 Q-28.25 29.4 -28.95 29.25 L-29.1 27.0 Q-29.1 26.35 -28.55 25.85 L-28.1 25.4 -28.2 25.05 -28.15 24.95 -28.35 24.8 -28.45 24.75 -29.55 25.45 Q-30.65 25.75 -30.45 26.55 L-30.95 26.75 -31.35 26.15 Q-31.35 24.95 -30.35 24.95 -29.15 24.85 -28.85 24.5 L-28.95 24.45" fill="#ffffcc" fill-rule="evenodd" stroke="none"/>
  </g>
</svg>
