<?xml version="1.0" encoding="UTF-8" standalone="no"?>
<svg xmlns:xlink="http://www.w3.org/1999/xlink" height="72.2px" width="89.25px" xmlns="http://www.w3.org/2000/svg">
  <g transform="matrix(1.0, 0.0, 0.0, 1.0, 0.0, 0.0)">
    <path d="M-71.95 63.75 L-71.35 66.8 -72.1 66.25 Q-73.2 65.4 -73.5 64.05 L-71.95 63.75 M-77.05 63.55 L-76.6 66.2 -77.25 65.65 Q-78.3 64.75 -78.75 63.3 L-77.05 63.55 M-81.85 64.1 L-81.15 68.6 -81.55 68.4 Q-83.25 67.05 -83.3 65.0 L-81.85 64.1 M-85.7 65.35 L-85.3 69.1 -85.65 68.9 Q-87.15 67.4 -87.1 65.15 L-85.7 65.35" fill="#efcc80" fill-rule="evenodd" stroke="none"/>
    <path d="M-73.3 47.75 L-71.8 45.75 -71.3 44.9 -71.05 44.45 -64.55 32.55 Q-63.35 30.25 -62.45 27.9 L-61.8 25.25 Q-61.1 20.75 -58.35 16.95 L-55.95 14.1 -51.85 10.55 Q-48.65 8.05 -44.75 6.85 L-37.55 4.85 -31.45 2.75 Q-29.55 2.0 -28.25 0.0 -29.05 2.1 -30.75 3.55 -34.3 6.5 -38.65 8.1 -43.4 9.9 -47.65 12.85 -53.1 16.5 -54.5 23.05 L-55.3 26.6 -57.3 34.8 Q-57.7 36.4 -58.65 37.9 -59.2 38.85 -60.0 39.55 -62.8 42.2 -65.0 45.3 L-63.4 46.9 -57.9 44.0 Q-54.45 42.35 -50.6 41.5 L-46.2 40.3 -40.4 39.15 Q-34.6 38.3 -29.3 36.2 -24.45 34.3 -21.45 30.15 -18.25 25.7 -17.45 20.1 -17.0 16.85 -15.5 13.95 -13.25 9.6 -9.05 7.3 L-7.15 6.4 -5.1 5.75 Q-12.3 15.3 -14.35 27.8 -16.25 39.45 -26.55 44.05 -31.9 46.1 -37.45 47.45 L-46.35 50.15 Q-51.25 51.75 -54.8 55.15 L-56.15 56.95 -53.45 56.15 Q-50.75 55.3 -47.95 55.05 -46.15 54.6 -44.4 55.0 -42.6 55.4 -40.85 56.25 -38.4 57.55 -35.8 58.65 -33.45 59.6 -30.95 60.05 -28.9 60.5 -26.85 60.1 L-22.0 59.6 -19.1 59.05 -13.3 58.75 -9.05 59.35 Q-6.3 60.0 -4.15 61.8 -1.85 63.75 0.0 66.0 -4.35 63.25 -9.25 62.3 -13.65 61.4 -17.75 62.8 L-25.9 65.5 -32.25 67.75 -34.1 68.0 Q-35.3 68.0 -36.3 67.4 -40.15 65.0 -44.6 63.55 -48.05 62.3 -51.7 63.0 L-54.6 63.8 -53.85 65.3 Q-53.1 66.6 -51.7 67.45 L-50.05 68.15 Q-50.3 68.45 -50.75 68.5 L-58.55 68.25 Q-60.55 67.95 -61.9 66.55 -61.65 68.55 -60.55 70.3 -59.85 71.5 -58.6 72.2 -61.1 72.15 -63.0 70.65 -66.8 67.65 -68.4 63.1 L-71.1 63.3 -71.95 63.75 -73.5 64.05 -77.05 63.55 -78.75 63.3 -81.85 64.1 -83.3 65.0 -84.15 65.45 -85.7 65.35 -87.1 65.15 -89.25 66.05 -87.8 56.55 -85.05 54.95 -79.2 51.65 -75.45 49.45 -73.55 47.95 -73.5 47.95 -73.3 47.75 M-36.9 5.35 L-41.6 6.55 Q-46.7 8.3 -51.0 10.95 L-53.6 12.9 Q-56.45 15.4 -57.95 19.15 L-59.9 24.35 -63.9 34.5 Q-66.0 39.75 -68.85 44.55 -70.1 46.7 -72.2 48.05 L-80.95 54.1 -72.2 48.05 Q-70.1 46.7 -68.85 44.55 -66.0 39.75 -63.9 34.5 L-59.9 24.35 -57.95 19.15 Q-56.45 15.4 -53.6 12.9 L-51.0 10.95 Q-46.7 8.3 -41.6 6.55 L-36.9 5.35 M-9.05 7.3 L-10.1 8.2 Q-13.55 11.5 -14.6 16.1 L-16.3 23.3 -17.3 26.6 Q-18.0 28.5 -19.0 30.2 L-20.55 32.55 Q-22.5 34.7 -25.15 36.25 -30.1 39.1 -35.7 40.15 L-43.15 41.55 Q-50.05 42.5 -56.25 45.0 -58.7 46.0 -61.0 47.35 -65.35 50.0 -70.0 52.35 -74.65 54.7 -79.5 56.4 -82.65 57.55 -85.95 56.85 L-87.5 63.65 -85.95 56.85 Q-82.65 57.55 -79.5 56.4 -74.65 54.7 -70.0 52.35 -65.35 50.0 -61.0 47.35 -58.7 46.0 -56.25 45.0 -50.05 42.5 -43.15 41.55 L-35.7 40.15 Q-30.1 39.1 -25.15 36.25 -22.5 34.7 -20.55 32.55 L-19.0 30.2 Q-18.0 28.5 -17.3 26.6 L-16.3 23.3 -14.6 16.1 Q-13.55 11.5 -10.1 8.2 L-9.05 7.3 M-60.4 61.2 L-59.5 62.85 -54.6 63.8 -59.5 62.85 -60.4 61.2 M-83.85 55.8 Q-78.0 55.95 -74.5 53.6 -71.0 51.2 -66.55 48.65 L-63.4 46.9 -66.55 48.65 Q-71.0 51.2 -74.5 53.6 -78.0 55.95 -83.85 55.8 M-6.85 61.55 L-10.75 60.9 Q-15.75 60.25 -20.9 61.0 L-23.75 61.65 Q-29.45 62.2 -34.9 60.25 -36.95 59.5 -38.75 58.35 -41.6 56.5 -44.8 56.0 -50.65 55.75 -55.65 58.6 -50.65 55.75 -44.8 56.0 -41.6 56.5 -38.75 58.35 -36.95 59.5 -34.9 60.25 -29.45 62.2 -23.75 61.65 L-20.9 61.0 Q-15.75 60.25 -10.75 60.9 L-6.85 61.55" fill="url(#gradient0)" fill-rule="evenodd" stroke="none"/>
    <path d="M-79.2 51.65 Q-82.8 50.45 -82.85 47.3 L-82.95 45.05 Q-83.2 42.75 -85.0 41.4 -85.8 40.8 -86.75 40.55 L-88.55 39.9 Q-87.4 39.15 -86.3 39.25 -82.8 39.55 -80.55 42.4 L-78.35 45.55 Q-76.55 48.45 -73.55 47.95 L-75.45 49.45 -79.2 51.65 M-77.35 48.2 L-78.1 48.0 -78.35 47.75 -79.7 45.25 -81.45 42.75 Q-83.05 40.95 -85.7 40.45 -83.05 40.95 -81.45 42.75 L-79.7 45.25 -78.35 47.75 -78.1 48.0 -77.35 48.2" fill="url(#gradient1)" fill-rule="evenodd" stroke="none"/>
    <path d="M-73.3 47.75 L-71.8 45.75 -71.3 44.9 -71.05 44.45 -64.55 32.55 Q-63.35 30.25 -62.45 27.9 L-61.8 25.25 Q-61.1 20.75 -58.35 16.95 L-55.95 14.1 -51.85 10.55 Q-48.65 8.05 -44.75 6.85 L-37.55 4.85 -31.45 2.75 Q-29.55 2.0 -28.25 0.0 -29.05 2.1 -30.75 3.55 -34.3 6.5 -38.65 8.1 -43.4 9.9 -47.65 12.85 -53.1 16.5 -54.5 23.05 L-55.3 26.6 -57.3 34.8 Q-57.7 36.4 -58.65 37.9 -59.2 38.85 -60.0 39.55 -62.8 42.2 -65.0 45.3 L-63.4 46.9 -57.9 44.0 Q-54.45 42.35 -50.6 41.5 L-46.2 40.3 -40.4 39.15 Q-34.6 38.3 -29.3 36.2 -24.45 34.3 -21.45 30.15 -18.25 25.7 -17.45 20.1 -17.0 16.85 -15.5 13.95 -13.25 9.6 -9.05 7.3 L-7.15 6.4 -5.1 5.75 Q-12.3 15.3 -14.35 27.8 -16.25 39.45 -26.55 44.05 -31.9 46.1 -37.45 47.45 L-46.35 50.15 Q-51.25 51.75 -54.8 55.15 L-56.15 56.95 -53.45 56.15 Q-50.75 55.3 -47.95 55.05 -46.15 54.6 -44.4 55.0 -42.6 55.4 -40.85 56.25 -38.4 57.55 -35.8 58.65 -33.45 59.6 -30.95 60.05 -28.9 60.5 -26.85 60.1 L-22.0 59.6 -19.1 59.05 -13.3 58.75 -9.05 59.35 Q-6.3 60.0 -4.15 61.8 -1.85 63.75 0.0 66.0 -4.35 63.25 -9.25 62.3 -13.65 61.4 -17.75 62.8 L-25.9 65.5 -32.25 67.75 -34.1 68.0 Q-35.3 68.0 -36.3 67.4 -40.15 65.0 -44.6 63.55 -48.05 62.3 -51.7 63.0 L-54.6 63.8 -53.85 65.3 Q-53.1 66.6 -51.7 67.45 L-50.05 68.15 Q-50.3 68.45 -50.75 68.5 L-58.55 68.25 Q-60.55 67.95 -61.9 66.55 -61.65 68.55 -60.55 70.3 -59.85 71.5 -58.6 72.2 -61.1 72.15 -63.0 70.65 -66.8 67.65 -68.4 63.1 L-71.1 63.3 -71.95 63.75 -71.35 66.8 -72.1 66.25 Q-73.2 65.4 -73.5 64.05 L-77.05 63.55 -76.6 66.2 -77.25 65.65 Q-78.3 64.75 -78.75 63.3 L-81.85 64.1 -81.15 68.6 -81.55 68.4 Q-83.25 67.05 -83.3 65.0 L-84.15 65.45 -85.7 65.35 -85.3 69.1 -85.65 68.9 Q-87.15 67.4 -87.1 65.15 L-89.25 66.05 -87.8 56.55 -85.05 54.95 -79.2 51.65 Q-82.8 50.45 -82.85 47.3 L-82.95 45.05 Q-83.2 42.75 -85.0 41.4 -85.8 40.8 -86.75 40.55 L-88.55 39.9 Q-87.4 39.15 -86.3 39.25 -82.8 39.55 -80.55 42.4 L-78.35 45.55 Q-76.55 48.45 -73.55 47.95 L-73.4 47.8 -73.3 47.75 -73.5 47.95 -73.55 47.95 -75.45 49.45 -79.2 51.65 M-63.4 46.9 L-66.55 48.65 Q-71.0 51.2 -74.5 53.6 -78.0 55.95 -83.85 55.8 M-54.6 63.8 L-59.5 62.85 -60.4 61.2 M-71.95 63.75 L-73.5 64.05 M-77.05 63.55 L-78.75 63.3 M-81.85 64.1 L-83.3 65.0 M-85.7 65.35 L-87.1 65.15" fill="none" stroke="#000000" stroke-linecap="round" stroke-linejoin="round" stroke-width="0.05"/>
    <path d="M-87.5 63.65 L-85.95 56.85 Q-82.65 57.55 -79.5 56.4 -74.65 54.7 -70.0 52.35 -65.35 50.0 -61.0 47.35 -58.7 46.0 -56.25 45.0 -50.05 42.5 -43.15 41.55 L-35.7 40.15 Q-30.1 39.1 -25.15 36.25 -22.5 34.7 -20.55 32.55 L-19.0 30.2 Q-18.0 28.5 -17.3 26.6 L-16.3 23.3 -14.6 16.1 Q-13.55 11.5 -10.1 8.2 L-9.05 7.3 M-80.95 54.1 L-72.2 48.05 Q-70.1 46.7 -68.85 44.55 -66.0 39.75 -63.9 34.5 L-59.9 24.35 -57.95 19.15 Q-56.45 15.4 -53.6 12.9 L-51.0 10.95 Q-46.7 8.3 -41.6 6.55 L-36.9 5.35 M-85.7 40.45 Q-83.05 40.95 -81.45 42.75 L-79.7 45.25 -78.35 47.75 -78.1 48.0 -77.35 48.2 M-55.65 58.6 Q-50.65 55.75 -44.8 56.0 -41.6 56.5 -38.75 58.35 -36.95 59.5 -34.9 60.25 -29.45 62.2 -23.75 61.65 L-20.9 61.0 Q-15.75 60.25 -10.75 60.9 L-6.85 61.55" fill="none" stroke="#ffffcc" stroke-linecap="round" stroke-linejoin="round" stroke-width="0.05"/>
    <path d="M-12.5 10.1 L-9.5 13.1 M-16.95 17.55 Q-15.5 17.55 -14.45 18.25 -13.4 18.95 -13.4 19.95 M-36.9 38.65 Q-36.5 40.75 -35.0 42.15 -34.1 42.95 -33.65 44.2 -33.4 44.8 -33.3 45.5 M-26.75 35.35 Q-26.65 37.35 -25.35 38.45 L-24.15 39.45 Q-22.9 40.3 -22.9 41.9 M-19.9 27.65 Q-19.15 28.4 -18.2 28.95 L-15.75 29.95 -15.35 30.6 M-41.05 8.95 Q-41.05 7.85 -41.5 7.05 -41.95 6.25 -42.55 6.25 M-61.3 21.7 Q-58.75 20.0 -55.95 21.35 L-54.75 21.7 M-51.75 11.0 L-50.0 11.3 Q-50.0 12.3 -49.35 13.05 L-48.2 14.0 M-66.65 37.15 Q-64.7 36.35 -62.8 37.75 L-61.15 38.6 -59.15 38.1 M-82.4 49.05 Q-82.25 46.9 -80.45 45.35 L-79.45 44.6 M-45.8 49.35 Q-44.7 46.8 -46.4 44.75 -47.1 43.95 -47.25 42.95 -47.4 41.85 -47.0 41.0 M-63.35 30.35 L-58.35 31.15 -57.95 31.55 -57.7 31.75 Q-56.6 31.8 -55.9 30.95 M-46.7 62.15 L-46.2 61.95 Q-45.5 61.3 -45.65 60.35 L-45.9 57.05 -43.75 55.6 M-66.95 61.55 L-64.85 59.45 Q-62.05 60.25 -60.0 58.85 L-59.1 57.9 -58.9 57.35 M-63.35 64.8 L-63.65 64.2 -62.8 62.85 -61.25 63.7 -60.65 65.15 Q-58.35 64.8 -56.9 66.6 L-55.55 67.55 -54.75 67.8 M-73.8 61.25 L-71.2 58.55 Q-70.15 57.5 -68.7 57.7 -65.25 57.9 -62.75 55.55 L-61.0 53.65 Q-59.05 51.2 -55.9 51.4 M-79.75 61.25 Q-77.65 56.7 -72.55 55.65 L-65.65 54.05 Q-64.65 53.8 -63.8 53.2 L-62.05 51.65 Q-58.8 48.05 -54.15 47.55 M-83.3 61.85 L-82.0 57.95 -81.5 57.2 -79.15 57.25 -78.25 55.9 M-61.9 69.85 L-65.1 65.05 M-13.95 61.85 L-13.55 59.5 M-22.3 63.35 L-21.75 62.7 -22.6 61.0 -22.3 60.05 M-38.65 65.4 Q-37.4 64.55 -37.35 63.05 L-37.3 61.5 Q-37.25 59.85 -36.0 58.85 M-30.65 66.3 Q-29.8 64.9 -30.2 63.25 L-30.5 62.2 -30.05 60.95 M-83.0 42.5 L-81.5 41.05" fill="none" stroke="#ffcc00" stroke-linecap="round" stroke-linejoin="round" stroke-width="1.0"/>
  </g>
  <defs>
    <radialGradient cx="0" cy="0" gradientTransform="matrix(0.0255, 0.0181, -0.025, 0.0353, -68.45, 44.0)" gradientUnits="userSpaceOnUse" id="gradient0" r="819.2" spreadMethod="pad">
      <stop offset="0.0" stop-color="#ffffcc"/>
      <stop offset="0.44313725490196076" stop-color="#efcc80"/>
      <stop offset="1.0" stop-color="#ad6316"/>
    </radialGradient>
    <radialGradient cx="0" cy="0" gradientTransform="matrix(0.0114, 0.0, 0.0, 0.0114, -75.6, 49.95)" gradientUnits="userSpaceOnUse" id="gradient1" r="819.2" spreadMethod="pad">
      <stop offset="0.0" stop-color="#ffffcc"/>
      <stop offset="0.44313725490196076" stop-color="#efcc80"/>
      <stop offset="1.0" stop-color="#ad6316"/>
    </radialGradient>
  </defs>
</svg>
