<?xml version="1.0" encoding="UTF-8" standalone="no"?>
<svg xmlns:xlink="http://www.w3.org/1999/xlink" height="63.5px" width="49.0px" xmlns="http://www.w3.org/2000/svg">
  <g transform="matrix(1.0, 0.0, 0.0, 1.0, 0.0, 0.0)">
    <path d="M-21.95 30.55 Q-25.15 26.45 -24.3 18.0 -23.45 9.5 -15.9 3.05 L-1.9 -9.05 Q4.6 -14.7 4.35 -23.35 4.1 -32.0 13.8 -31.75 L14.55 -29.25 Q11.0 -24.4 10.0 -18.45 9.6 -16.2 8.55 -14.25 2.75 -3.4 -8.7 3.15 -21.1 10.2 -22.25 24.05 L-21.7 30.5 -21.95 30.55" fill="url(#gradient0)" fill-rule="evenodd" stroke="none"/>
    <path d="M14.55 -29.25 L22.65 -22.8 Q18.4 -17.85 20.6 -12.35 22.8 -6.8 20.7 -3.05 18.6 0.7 14.0 11.35 9.45 22.0 24.5 28.7 16.2 34.05 7.5 29.4 3.5 27.25 0.3 23.95 -10.3 12.8 -22.25 24.05 -21.1 10.2 -8.7 3.15 2.75 -3.4 8.55 -14.25 9.6 -16.2 10.0 -18.45 11.0 -24.4 14.55 -29.25 M14.45 -8.35 Q15.45 -2.75 10.95 1.05 1.0 9.25 0.55 21.6 1.0 9.25 10.95 1.05 15.45 -2.75 14.45 -8.35 M-11.8 16.65 Q-11.45 14.95 -10.7 13.45 -6.4 4.9 1.4 -0.85 13.35 -9.5 12.9 -24.7 13.35 -9.5 1.4 -0.85 -6.4 4.9 -10.7 13.45 -11.45 14.95 -11.8 16.65" fill="url(#gradient1)" fill-rule="evenodd" stroke="none"/>
    <path d="M14.55 -29.25 L22.65 -22.8 Q18.4 -17.85 20.6 -12.35 22.8 -6.8 20.7 -3.05 18.6 0.7 14.0 11.35 9.45 22.0 24.5 28.7 16.2 34.05 7.5 29.4 3.5 27.25 0.3 23.95 -10.3 12.8 -22.25 24.05 -21.1 10.2 -8.7 3.15 2.75 -3.4 8.55 -14.25 9.6 -16.2 10.0 -18.45 11.0 -24.4 14.55 -29.25 M12.9 -24.7 Q13.35 -9.5 1.4 -0.85 -6.4 4.9 -10.7 13.45 -11.45 14.95 -11.8 16.65 M0.55 21.6 Q1.0 9.25 10.95 1.05 15.45 -2.75 14.45 -8.35" fill="none" stroke="#00ffff" stroke-linecap="round" stroke-linejoin="round" stroke-width="0.05"/>
    <path d="M-21.95 30.55 Q-25.15 26.45 -24.3 18.0 -23.45 9.5 -15.9 3.05 L-1.9 -9.05 Q4.6 -14.7 4.35 -23.35 4.1 -32.0 13.8 -31.75 L14.55 -29.25 M-22.25 24.05 L-21.7 30.5 -21.4 31.75 -21.95 30.55" fill="none" stroke="#000000" stroke-linecap="round" stroke-linejoin="round" stroke-width="0.05"/>
  </g>
  <defs>
    <linearGradient gradientTransform="matrix(0.0246, 0.0, 0.0, 0.0385, -5.5, -0.95)" gradientUnits="userSpaceOnUse" id="gradient0" spreadMethod="pad" x1="-819.2" x2="819.2">
      <stop offset="0.0" stop-color="#379d9d"/>
      <stop offset="0.40784313725490196" stop-color="#014765"/>
      <stop offset="1.0" stop-color="#012432"/>
    </linearGradient>
    <linearGradient gradientTransform="matrix(0.0045, -0.0281, 0.0367, 0.0059, 1.1, 1.25)" gradientUnits="userSpaceOnUse" id="gradient1" spreadMethod="pad" x1="-819.2" x2="819.2">
      <stop offset="0.0" stop-color="#01597e" stop-opacity="0.36078432"/>
      <stop offset="1.0" stop-color="#01fcd8" stop-opacity="0.6509804"/>
    </linearGradient>
  </defs>
</svg>
