<?xml version="1.0" encoding="UTF-8" standalone="no"?>
<svg xmlns:xlink="http://www.w3.org/1999/xlink" height="39.1px" width="28.05px" xmlns="http://www.w3.org/2000/svg">
  <g transform="matrix(1.0, 0.0, 0.0, 1.0, 0.0, 0.0)">
    <path d="M6.85 -14.6 L7.0 -14.65 Q9.4 -9.7 5.75 -5.95 L5.0 -5.05 11.45 -6.3 Q7.85 -4.3 7.45 -0.15 L7.6 0.75 12.8 1.4 13.25 1.25 13.55 0.85 13.75 0.95 Q13.15 2.85 11.4 4.25 9.7 5.65 7.5 5.15 L9.75 7.15 6.25 7.0 6.5 9.2 5.8 9.5 5.0 9.2 4.55 8.95 Q5.85 7.15 5.55 4.85 L5.15 1.8 Q4.8 -0.6 2.8 -1.95 L-5.55 1.1 -5.65 1.15 Q-5.8 -1.4 -7.65 -3.1 -10.1 -5.45 -9.45 -8.6 L-8.7 -10.35 -8.25 -10.9 -7.65 -7.3 Q-7.05 -10.2 -4.7 -12.05 -3.8 -12.75 -3.1 -13.6 -2.4 -14.5 -2.55 -15.6 L-3.3 -19.55 Q-0.75 -16.15 -0.3 -12.1 0.05 -9.0 -1.75 -6.55 1.7 -8.3 5.15 -9.6 6.25 -10.05 6.65 -11.05 7.3 -12.8 6.85 -14.6 M2.9 -5.0 L2.6 -4.55 1.85 -4.4 1.9 -6.7 1.45 -6.65 Q1.05 -6.1 0.35 -5.95 -1.05 -5.6 -1.75 -4.25 L-2.4 -3.2 -2.5 -3.15 -4.25 -7.8 -5.6 -5.0 -3.95 -1.3 -5.6 -5.0 -4.25 -7.8 -2.5 -3.15 -2.4 -3.2 -1.75 -4.25 Q-1.05 -5.6 0.35 -5.95 1.05 -6.1 1.45 -6.65 L1.9 -6.7 1.85 -4.4 2.6 -4.55 2.9 -5.0 M1.85 -4.4 L0.7 -3.15 1.85 -4.4" fill="#69f3e4" fill-opacity="0.77254903" fill-rule="evenodd" stroke="none"/>
    <path d="M-5.55 1.1 L2.8 -1.95 Q4.8 -0.6 5.15 1.8 L5.55 4.85 Q5.85 7.15 4.55 8.95 -0.25 12.45 -2.65 17.9 L-3.3 18.8 Q-4.55 19.7 -6.15 19.55 L-7.25 18.7 Q-8.25 17.6 -9.9 17.35 L-11.75 17.65 -13.65 16.95 Q-15.2 12.4 -11.0 9.75 -8.3 8.05 -6.8 5.45 L-6.05 3.55 -5.65 1.35 -5.55 1.1 M4.4 8.85 L4.55 8.95 4.4 8.85" fill="url(#gradient0)" fill-rule="evenodd" stroke="none"/>
    <path d="M7.0 -14.65 L6.95 -14.8 6.85 -14.6 Q7.3 -12.8 6.65 -11.05 6.25 -10.05 5.15 -9.6 1.7 -8.3 -1.75 -6.55 0.05 -9.0 -0.3 -12.1 -0.75 -16.15 -3.3 -19.55 L-2.55 -15.6 Q-2.4 -14.5 -3.1 -13.6 -3.8 -12.75 -4.7 -12.05 -7.05 -10.2 -7.65 -7.3 L-8.25 -10.9 -8.7 -10.35 -9.45 -8.6 Q-10.1 -5.45 -7.65 -3.1 -5.8 -1.4 -5.65 1.15 L-5.65 1.35 -6.05 3.55 -6.8 5.45 Q-8.3 8.05 -11.0 9.75 -15.2 12.4 -13.65 16.95 L-11.75 17.65 -9.9 17.35 Q-8.25 17.6 -7.25 18.7 L-6.15 19.55 Q-4.55 19.7 -3.3 18.8 L-2.65 17.9 Q-0.25 12.45 4.55 8.95 L4.4 8.85 M-5.55 1.1 L2.8 -1.95 Q4.8 -0.6 5.15 1.8 L5.55 4.85 Q5.85 7.15 4.55 8.95 L5.0 9.2 5.8 9.5 6.5 9.2 6.25 7.0 9.75 7.15 7.5 5.15 Q9.7 5.65 11.4 4.25 13.15 2.85 13.75 0.95 L14.0 -0.7 13.55 0.85 13.25 1.25 12.8 1.4 7.6 0.75 7.45 -0.15 Q7.85 -4.3 11.45 -6.3 L5.0 -5.05 5.75 -5.95 Q9.4 -9.7 7.0 -14.65 M-5.55 1.1 L-5.65 1.35" fill="none" stroke="#000000" stroke-linecap="round" stroke-linejoin="round" stroke-width="0.05"/>
    <path d="M-3.95 -1.3 L-5.6 -5.0 -4.25 -7.8 -2.5 -3.15 -2.4 -3.2 -1.75 -4.25 Q-1.05 -5.6 0.35 -5.95 1.05 -6.1 1.45 -6.65 L1.9 -6.7 1.85 -4.4 2.6 -4.55 2.9 -5.0 M0.7 -3.15 L1.85 -4.4" fill="none" stroke="#00cccc" stroke-linecap="round" stroke-linejoin="round" stroke-width="0.05"/>
  </g>
  <defs>
    <radialGradient cx="0" cy="0" gradientTransform="matrix(0.0183, 0.0068, -0.0109, 0.0293, -7.0, 8.55)" gradientUnits="userSpaceOnUse" id="gradient0" r="819.2" spreadMethod="pad">
      <stop offset="0.0" stop-color="#379d9d"/>
      <stop offset="0.40784313725490196" stop-color="#014765"/>
      <stop offset="1.0" stop-color="#012432"/>
    </radialGradient>
  </defs>
</svg>
