<?xml version="1.0" encoding="UTF-8" standalone="no"?>
<svg xmlns:xlink="http://www.w3.org/1999/xlink" height="14.9px" width="39.5px" xmlns="http://www.w3.org/2000/svg">
  <g transform="matrix(1.0, 0.0, 0.0, 1.0, 0.0, 0.0)">
    <path d="M10.75 -0.2 L12.3 -5.2 10.65 -3.8 Q3.5 -0.1 -4.25 1.95 -2.45 -1.6 1.3 -3.2 L-1.1 -2.75 Q-8.45 -1.65 -13.95 3.05 -8.45 -1.65 -1.1 -2.75 L1.3 -3.2 Q-2.45 -1.6 -4.25 1.95 3.5 -0.1 10.65 -3.8 L12.3 -5.2 10.75 -0.2 M-4.3 7.45 L-2.8 4.05 -4.75 4.2 Q-10.35 5.15 -15.0 8.5 L-13.6 4.35 -19.5 7.75 -19.75 7.25 Q-18.8 2.6 -12.15 -0.85 -5.5 -4.35 4.35 -5.95 14.2 -7.6 19.75 -3.05 L16.8 2.35 15.6 3.0 Q13.7 3.8 11.65 3.65 L11.65 3.45 Q11.25 2.85 10.45 3.15 9.6 3.4 9.05 3.95 L5.55 6.55 6.25 3.6 5.15 3.7 Q0.1 4.7 -4.2 7.75 L-4.3 7.45" fill="url(#gradient0)" fill-rule="evenodd" stroke="none"/>
    <path d="M-4.2 7.75 Q0.1 4.7 5.15 3.7 L6.25 3.6 5.55 6.55 9.05 3.95 Q9.6 3.4 10.45 3.15 11.25 2.85 11.65 3.45 L11.65 3.65 Q13.7 3.8 15.6 3.0 L16.8 2.35 19.75 -3.05 Q14.2 -7.6 4.35 -5.95 -5.5 -4.35 -12.15 -0.85 -18.8 2.6 -19.75 7.25 L-19.5 7.75 -13.6 4.35 -15.0 8.5 Q-10.35 5.15 -4.75 4.2 L-2.8 4.05 -4.3 7.45" fill="none" stroke="#000000" stroke-linecap="round" stroke-linejoin="round" stroke-width="0.05"/>
    <path d="M-13.95 3.05 Q-8.45 -1.65 -1.1 -2.75 L1.3 -3.2 Q-2.45 -1.6 -4.25 1.95 3.5 -0.1 10.65 -3.8 L12.3 -5.2 10.75 -0.2" fill="none" stroke="#69f3e4" stroke-linecap="round" stroke-linejoin="round" stroke-opacity="0.77254903" stroke-width="0.05"/>
  </g>
  <defs>
    <radialGradient cx="0" cy="0" gradientTransform="matrix(0.0563, -0.0246, 0.0158, 0.0363, -3.4, -15.4)" gradientUnits="userSpaceOnUse" id="gradient0" r="819.2" spreadMethod="pad">
      <stop offset="0.0" stop-color="#379d9d"/>
      <stop offset="0.40784313725490196" stop-color="#014765"/>
      <stop offset="1.0" stop-color="#012432"/>
    </radialGradient>
  </defs>
</svg>
