<?xml version="1.0" encoding="UTF-8" standalone="no"?>
<svg xmlns:xlink="http://www.w3.org/1999/xlink" height="32.45px" width="78.15px" xmlns="http://www.w3.org/2000/svg">
  <g transform="matrix(1.0, 0.0, 0.0, 1.0, 0.0, 0.0)">
    <path d="M20.0 -0.9 L13.7 7.05 Q2.2 14.25 -11.45 16.15 -25.9 17.05 -38.25 10.35 L-39.1 9.5 Q-24.95 10.4 -16.4 3.7 -7.85 -3.05 -9.7 -8.6 -11.55 -14.2 -5.1 -15.25 L6.95 -16.15 Q12.85 -15.95 18.0 -13.25 19.85 -7.6 20.15 -1.7 L20.0 -0.9 20.15 -1.7 Q19.85 -7.6 18.0 -13.25 L18.35 -14.15 19.3 -14.45 20.3 -13.65 Q26.65 -14.0 31.9 -15.15 L34.4 -15.9 Q42.4 -13.4 36.7 -7.0 30.2 0.2 24.2 -4.35 24.2 -0.35 20.8 -0.3 L20.0 -0.9 M14.9 -7.85 L15.35 -7.2 Q12.75 -3.5 14.1 0.6 L9.0 0.45 8.85 2.8 5.55 2.15 4.95 2.7 5.15 4.8 Q-0.1 2.0 -0.05 7.55 -2.15 2.8 -8.05 4.25 L-8.3 4.85 -8.0 5.2 Q-6.95 7.25 -4.6 7.15 -14.8 13.75 -26.35 10.75 -17.95 9.65 -11.0 3.05 -9.75 1.9 -8.1 2.55 1.3 2.3 7.8 -3.3 9.7 -10.75 2.35 -10.8 -5.1 -10.85 -5.55 -4.75 -1.85 -3.35 -1.4 -7.35 L-1.75 -7.8 -1.4 -7.35 Q-1.85 -3.35 -5.55 -4.75 -5.1 -10.85 2.35 -10.8 9.7 -10.75 7.8 -3.3 1.3 2.3 -8.1 2.55 -9.75 1.9 -11.0 3.05 -17.95 9.65 -26.35 10.75 -14.8 13.75 -4.6 7.15 -6.95 7.25 -8.0 5.2 L-8.3 4.85 -8.05 4.25 Q-2.15 2.8 -0.05 7.55 -0.1 2.0 5.15 4.8 L4.95 2.7 5.55 2.15 8.85 2.8 9.0 0.45 14.1 0.6 Q12.75 -3.5 15.35 -7.2 L14.9 -7.85 M24.2 -4.35 L24.25 -6.45 23.85 -6.9 23.75 -7.75 Q22.85 -11.4 20.3 -13.65 22.85 -11.4 23.75 -7.75 L23.85 -6.9 24.25 -6.45 24.2 -4.35" fill="url(#gradient0)" fill-rule="evenodd" stroke="none"/>
    <path d="M18.0 -13.25 Q12.85 -15.95 6.95 -16.15 L-5.1 -15.25 Q-11.55 -14.2 -9.7 -8.6 -7.85 -3.05 -16.4 3.7 -24.95 10.4 -39.1 9.5 L-38.25 10.35 Q-25.9 17.05 -11.45 16.15 2.2 14.25 13.7 7.05 L20.0 -0.9 20.15 -1.7 Q19.85 -7.6 18.0 -13.25 L18.35 -14.15 19.3 -14.45 20.3 -13.65 Q26.65 -14.0 31.9 -15.15 L34.4 -15.9 Q42.4 -13.4 36.7 -7.0 30.2 0.2 24.2 -4.35 24.2 -0.35 20.8 -0.3 L20.0 -0.9 M20.3 -13.65 Q22.85 -11.4 23.75 -7.75 L23.85 -6.9 24.25 -6.45 24.2 -4.35" fill="none" stroke="#000000" stroke-linecap="round" stroke-linejoin="round" stroke-width="0.05"/>
    <path d="M-1.75 -7.8 L-1.4 -7.35 Q-1.85 -3.35 -5.55 -4.75 -5.1 -10.85 2.35 -10.8 9.7 -10.75 7.8 -3.3 1.3 2.3 -8.1 2.55 -9.75 1.9 -11.0 3.05 -17.95 9.65 -26.35 10.75 -14.8 13.75 -4.6 7.15 -6.95 7.25 -8.0 5.2 L-8.3 4.85 -8.05 4.25 Q-2.15 2.8 -0.05 7.55 -0.1 2.0 5.15 4.8 L4.95 2.7 5.55 2.15 8.85 2.8 9.0 0.45 14.1 0.6 Q12.75 -3.5 15.35 -7.2 L14.9 -7.85" fill="none" stroke="#69f3e4" stroke-linecap="round" stroke-linejoin="round" stroke-opacity="0.77254903" stroke-width="0.05"/>
  </g>
  <defs>
    <radialGradient cx="0" cy="0" gradientTransform="matrix(0.0563, -0.0246, 0.0158, 0.0363, 3.2, 6.1)" gradientUnits="userSpaceOnUse" id="gradient0" r="819.2" spreadMethod="pad">
      <stop offset="0.0" stop-color="#379d9d"/>
      <stop offset="0.40784313725490196" stop-color="#014765"/>
      <stop offset="1.0" stop-color="#012432"/>
    </radialGradient>
  </defs>
</svg>
