<?xml version="1.0" encoding="UTF-8" standalone="no"?>
<svg xmlns:xlink="http://www.w3.org/1999/xlink" height="52.55px" width="96.7px" xmlns="http://www.w3.org/2000/svg">
  <g transform="matrix(1.0, 0.0, 0.0, 1.0, 0.0, 0.0)">
    <path d="M-4.95 -15.3 Q0.2 -12.0 4.05 -7.45 L5.35 -5.9 4.6 -3.75 Q3.75 -1.5 2.55 0.15 1.35 1.65 -0.05 2.7 L-1.0 3.25 -0.05 2.7 Q1.35 1.65 2.55 0.15 3.75 -1.5 4.6 -3.75 L5.35 -5.9 16.55 3.9 Q21.5 7.6 26.9 9.15 34.7 11.45 43.45 9.25 L45.55 8.75 Q44.5 11.75 41.35 12.15 37.0 12.0 33.45 14.65 L32.95 14.85 Q27.65 16.55 23.4 17.3 L12.45 19.55 11.65 19.6 10.4 18.1 Q9.95 15.95 10.8 13.75 L11.35 11.9 Q6.55 19.55 0.1 13.55 -3.35 10.4 -2.75 5.85 -7.45 13.25 -14.55 6.35 -16.45 4.55 -16.05 2.0 -17.25 6.2 -21.9 5.1 -26.05 4.15 -29.7 2.3 L-30.6 -3.2 -31.0 -2.1 Q-41.65 1.55 -46.75 -9.8 -51.5 -20.25 -42.1 -26.25 -28.1 -24.9 -15.15 -20.0 L-4.95 -15.3 -5.4 -13.85 Q-6.8 -9.5 -9.75 -6.2 -11.8 -3.95 -14.6 -2.15 -11.8 -3.95 -9.75 -6.2 -6.8 -9.5 -5.4 -13.85 L-4.95 -15.3 M12.5 9.95 Q14.05 9.0 15.05 7.7 15.95 6.4 16.35 4.75 L16.55 3.9 16.35 4.75 Q15.95 6.4 15.05 7.7 14.05 9.0 12.5 9.95 M-15.85 1.0 L-16.05 2.0 -15.85 1.0 M-29.1 -5.4 L-28.55 -5.65 Q-24.5 -7.8 -21.4 -10.95 -18.45 -13.95 -16.35 -17.8 L-15.15 -20.0 -16.35 -17.8 Q-18.45 -13.95 -21.4 -10.95 -24.5 -7.8 -28.55 -5.65 L-29.1 -5.4" fill="url(#gradient0)" fill-rule="evenodd" stroke="none"/>
    <path d="M26.9 9.15 Q36.5 4.7 47.0 7.5 47.9 7.65 48.1 8.85 49.95 20.75 36.9 25.4 30.1 27.8 24.75 23.75 21.25 21.0 23.4 17.3 27.65 16.55 32.95 14.85 L33.45 14.65 Q37.0 12.0 41.35 12.15 44.5 11.75 45.55 8.75 L43.45 9.25 Q34.7 11.45 26.9 9.15 M33.6 23.0 L33.05 23.3 Q27.95 22.7 26.2 17.45 27.95 22.7 33.05 23.3 L33.6 23.0 M45.95 16.5 L45.5 17.0 Q39.25 20.35 35.15 15.0 39.25 20.35 45.5 17.0 L45.95 16.5 M46.25 13.75 L45.5 14.15 Q41.95 15.8 39.15 13.15 41.95 15.8 45.5 14.15 L46.25 13.75 M40.7 20.25 Q34.85 22.55 31.15 17.9 34.85 22.55 40.7 20.25" fill="#69f3e4" fill-opacity="0.77254903" fill-rule="evenodd" stroke="none"/>
    <path d="M5.35 -5.9 L4.05 -7.45 Q0.2 -12.0 -4.95 -15.3 L-5.4 -13.85 Q-6.8 -9.5 -9.75 -6.2 -11.8 -3.95 -14.6 -2.15 M-1.0 3.25 L-0.05 2.7 Q1.35 1.65 2.55 0.15 3.75 -1.5 4.6 -3.75 L5.35 -5.9 16.55 3.9 Q21.5 7.6 26.9 9.15 36.5 4.7 47.0 7.5 47.9 7.65 48.1 8.85 49.95 20.75 36.9 25.4 30.1 27.8 24.75 23.75 21.25 21.0 23.4 17.3 L12.45 19.55 11.65 19.6 10.4 18.1 Q9.95 15.95 10.8 13.75 L11.35 11.9 Q6.55 19.55 0.1 13.55 -3.35 10.4 -2.75 5.85 -7.45 13.25 -14.55 6.35 -16.45 4.55 -16.05 2.0 -17.25 6.2 -21.9 5.1 -26.05 4.15 -29.7 2.3 L-30.6 -3.2 -31.0 -2.1 Q-41.65 1.55 -46.75 -9.8 -51.5 -20.25 -42.1 -26.25 -28.1 -24.9 -15.15 -20.0 L-4.95 -15.3 M26.9 9.15 Q34.7 11.45 43.45 9.25 L45.55 8.75 Q44.5 11.75 41.35 12.15 37.0 12.0 33.45 14.65 L32.95 14.85 Q27.65 16.55 23.4 17.3 M39.15 13.15 Q41.95 15.8 45.5 14.15 L46.25 13.75 M35.15 15.0 Q39.25 20.35 45.5 17.0 L45.95 16.5 M26.2 17.45 Q27.95 22.7 33.05 23.3 L33.6 23.0 M16.55 3.9 L16.35 4.75 Q15.95 6.4 15.05 7.7 14.05 9.0 12.5 9.95 M31.15 17.9 Q34.85 22.55 40.7 20.25 M-15.15 -20.0 L-16.35 -17.8 Q-18.45 -13.95 -21.4 -10.95 -24.5 -7.8 -28.55 -5.65 L-29.1 -5.4 M-16.05 2.0 L-15.85 1.0" fill="none" stroke="#000000" stroke-linecap="round" stroke-linejoin="round" stroke-width="0.05"/>
    <path d="M3.45 -1.0 Q3.1 -1.6 3.7 -1.9 4.35 -2.2 4.75 -1.7 L4.9 -1.45 5.1 -1.65 Q5.7 -2.05 6.2 -1.4 6.65 -0.75 6.05 -0.35 5.4 0.0 4.95 -0.65 L4.75 -1.0 4.5 -0.8 Q3.8 -0.4 3.45 -1.0 M10.85 3.8 Q10.35 3.1 11.05 2.7 11.75 2.25 12.25 2.95 12.75 3.65 12.1 4.1 11.4 4.5 10.85 3.8 M14.8 4.8 Q15.05 5.55 14.4 6.1 13.7 6.65 13.05 5.7 12.35 4.75 13.45 4.4 14.6 4.05 14.8 4.8 M15.1 6.65 Q15.8 6.3 16.1 6.9 16.45 7.55 15.8 8.05 15.15 8.6 14.8 7.75 14.45 6.95 15.1 6.65 M16.15 8.7 Q15.7 7.95 16.5 7.5 17.3 7.1 17.85 7.8 18.4 8.5 17.5 9.0 16.6 9.5 16.15 8.7 M16.5 10.3 Q17.5 9.7 18.2 10.7 L18.55 11.6 Q19.75 11.2 20.05 12.1 20.3 12.95 19.55 13.55 18.8 14.2 18.0 13.1 L17.7 12.45 Q16.9 12.75 16.25 11.9 15.5 10.9 16.5 10.3 M9.25 2.95 Q9.6 3.0 9.85 3.4 10.3 4.2 9.45 4.85 8.65 5.5 8.2 4.5 L8.15 4.4 7.75 3.95 Q7.35 3.2 8.1 2.8 8.8 2.45 9.25 2.95 M6.25 1.95 Q5.55 2.55 4.8 1.5 4.05 0.45 5.25 0.05 6.5 -0.35 6.75 0.5 7.0 1.35 6.25 1.95 M-26.3 -13.45 Q-26.75 -14.2 -25.95 -14.65 L-24.8 -14.55 Q-24.35 -14.6 -24.1 -14.1 -23.7 -13.4 -24.45 -12.75 -25.2 -12.2 -25.55 -12.95 -26.05 -12.95 -26.3 -13.45 M-20.3 -12.95 Q-19.25 -13.55 -18.45 -12.55 -17.95 -11.9 -18.2 -11.35 -18.05 -10.85 -18.5 -10.45 -18.9 -10.15 -19.3 -10.6 -20.0 -10.55 -20.55 -11.3 -21.35 -12.35 -20.3 -12.95 M-12.55 -8.7 Q-13.3 -8.2 -13.9 -9.0 -14.5 -9.8 -13.75 -10.25 -12.95 -10.75 -12.35 -9.95 -11.8 -9.15 -12.55 -8.7 M-14.85 -7.5 Q-16.1 -6.85 -16.65 -7.9 -17.25 -8.95 -16.2 -9.5 -15.15 -10.05 -14.4 -9.1 -13.65 -8.15 -14.85 -7.5 M-18.35 -8.25 Q-17.85 -8.55 -17.6 -8.05 -17.3 -7.55 -17.8 -7.15 -18.35 -6.7 -18.6 -7.35 -18.9 -8.0 -18.35 -8.25 M-2.95 -6.75 Q-2.4 -5.95 -3.15 -5.5 -3.9 -5.0 -4.5 -5.8 -5.1 -6.6 -4.35 -7.05 -3.55 -7.55 -2.95 -6.75 M-7.55 -6.95 Q-7.3 -6.2 -7.95 -5.65 -8.65 -5.1 -9.3 -6.05 -10.0 -7.0 -8.9 -7.35 -7.75 -7.7 -7.55 -6.95 M-8.75 -4.15 Q-9.05 -4.85 -8.5 -5.15 -7.9 -5.4 -7.6 -4.85 -7.3 -4.35 -7.9 -3.9 -8.45 -3.4 -8.75 -4.15 M-3.85 -2.35 Q-3.45 -1.8 -4.1 -1.45 -4.8 -1.05 -5.15 -1.65 -5.5 -2.25 -4.9 -2.55 -4.25 -2.85 -3.85 -2.35 M-2.7 -2.5 Q-1.35 -2.95 -1.05 -2.0 L-1.0 -1.3 -0.9 -1.15 Q-0.45 -0.4 -1.25 0.2 -2.05 0.85 -2.45 -0.15 L-2.45 -0.25 Q-2.85 -0.4 -3.2 -0.9 -4.05 -2.1 -2.7 -2.5" fill="#0099ff" fill-rule="evenodd" stroke="none"/>
  </g>
  <defs>
    <radialGradient cx="0" cy="0" gradientTransform="matrix(0.0887, 0.0469, -0.0175, 0.0332, -0.95, -5.25)" gradientUnits="userSpaceOnUse" id="gradient0" r="819.2" spreadMethod="pad">
      <stop offset="0.0" stop-color="#379d9d"/>
      <stop offset="0.40784313725490196" stop-color="#014765"/>
      <stop offset="1.0" stop-color="#012432"/>
    </radialGradient>
  </defs>
</svg>
