<?xml version="1.0" encoding="UTF-8" standalone="no"?>
<svg xmlns:xlink="http://www.w3.org/1999/xlink" height="70.7px" width="47.55px" xmlns="http://www.w3.org/2000/svg">
  <g transform="matrix(1.0, 0.0, 0.0, 1.0, 0.0, 0.0)">
    <path d="M8.95 -16.45 L8.95 -16.35 4.85 -16.7 4.7 -15.85 Q6.85 -10.05 6.45 -3.75 L6.35 -3.75 Q5.85 -5.7 4.3 -7.05 L3.35 -7.8 Q4.05 -4.6 3.9 -1.3 3.85 0.4 3.4 2.15 2.65 5.25 4.2 8.45 10.8 10.3 17.25 7.95 L18.2 7.35 Q17.8 9.7 15.2 10.45 L13.75 10.85 9.75 11.4 5.55 11.05 Q7.65 13.0 10.4 14.25 L15.85 16.25 16.05 16.3 22.8 17.15 22.8 17.35 16.55 17.5 Q12.4 17.45 8.5 16.0 L6.15 15.3 Q8.05 19.05 12.6 21.75 L16.55 24.2 20.15 26.0 13.75 24.4 11.55 23.6 10.7 24.65 Q8.95 26.2 7.6 27.9 L7.45 27.7 Q7.05 26.25 5.8 25.6 L5.15 25.3 4.75 24.85 3.65 24.3 Q0.8 22.3 -0.15 19.15 L-0.6 20.3 Q-5.2 16.15 -4.05 10.15 L-5.5 10.95 -6.7 12.0 Q-6.35 6.6 -4.85 1.5 L-6.05 2.25 -7.05 3.3 -7.1 3.4 Q-7.9 2.15 -7.55 0.6 -6.0 -6.2 -5.7 -13.35 L-5.45 -19.05 Q-5.2 -25.8 -10.75 -28.65 L-4.35 -32.8 Q-0.8 -29.35 1.85 -24.9 4.0 -21.4 6.55 -18.0 7.45 -16.75 8.95 -16.45 M-0.8 11.95 L0.4 14.55 1.75 16.95 Q5.15 22.05 11.55 23.6 5.15 22.05 1.75 16.95 L0.4 14.55 -0.8 11.95 M0.9 7.35 L4.2 8.45 0.9 7.35" fill="#00cccc" fill-rule="evenodd" stroke="none"/>
    <path d="M13.75 10.85 Q13.15 13.75 15.3 15.7 L15.85 16.15 15.85 16.25 10.4 14.25 Q7.65 13.0 5.55 11.05 L9.75 11.4 13.75 10.85 M16.55 17.5 Q16.2 18.0 16.0 18.6 14.85 21.55 16.55 24.2 L12.6 21.75 Q8.05 19.05 6.15 15.3 L8.5 16.0 Q12.4 17.45 16.55 17.5" fill="#69f3e4" fill-opacity="0.77254903" fill-rule="evenodd" stroke="none"/>
    <path d="M-10.75 -28.65 Q-5.2 -25.8 -5.45 -19.05 L-5.7 -13.35 Q-6.0 -6.2 -7.55 0.6 -7.9 2.15 -7.1 3.4 L-7.05 3.3 -6.05 2.25 -4.85 1.5 Q-6.35 6.6 -6.7 12.0 L-5.5 10.95 -4.05 10.15 Q-5.2 16.15 -0.6 20.3 L-0.15 19.15 Q0.8 22.3 3.65 24.3 L4.75 24.85 5.15 25.3 5.8 25.6 Q7.05 26.25 7.45 27.7 L7.5 27.95 Q7.6 28.95 7.1 30.05 6.7 30.9 5.9 31.3 L1.7 32.95 1.6 33.5 1.6 34.2 Q2.0 36.0 3.55 37.25 L3.65 37.9 0.9 37.25 Q-6.4 35.6 -9.9 29.7 L-11.0 30.0 -11.25 31.2 -11.2 33.5 -11.15 34.2 -12.4 32.85 Q-16.4 28.2 -17.25 22.0 L-17.05 21.95 -17.25 21.85 -17.6 21.8 -18.0 21.75 -18.8 21.9 -19.2 22.15 -19.6 23.3 -19.65 24.55 -19.6 25.2 -19.6 25.3 -20.1 24.45 Q-22.75 18.55 -20.4 12.6 L-21.35 12.6 Q-23.15 12.9 -23.8 14.45 L-23.35 11.0 Q-22.95 8.1 -20.35 3.5 L-22.0 5.15 Q-20.35 -1.7 -14.85 -6.3 -13.85 -7.1 -13.3 -8.3 -10.15 -14.75 -12.65 -21.75 -13.35 -23.8 -14.6 -25.65 L-10.75 -28.65 M-9.3 -18.65 Q-8.5 -11.45 -13.1 -5.4 -16.1 -1.4 -16.75 3.4 L-15.55 3.65 -15.15 4.55 -15.55 3.65 -16.75 3.4 Q-16.1 -1.4 -13.1 -5.4 -8.5 -11.45 -9.3 -18.65 M-8.25 3.35 Q-8.5 4.35 -9.6 5.1 -11.05 6.0 -12.6 5.45 L-15.15 4.55 -12.6 5.45 Q-11.05 6.0 -9.6 5.1 -8.5 4.35 -8.25 3.35 M-14.75 14.85 L-14.85 13.8 -18.45 11.05 -17.95 9.55 Q-16.7 6.85 -15.15 4.55 -16.7 6.85 -17.95 9.55 L-18.45 11.05 -14.85 13.8 -14.75 14.85 -12.7 14.75 Q-11.8 14.75 -11.05 14.15 L-8.65 12.3 -11.05 14.15 Q-11.8 14.75 -12.7 14.75 L-14.75 14.85 -14.35 17.3 -11.5 19.05 -11.4 19.3 Q-11.05 20.7 -11.55 22.15 L-11.9 23.1 -11.55 22.15 Q-11.05 20.7 -11.4 19.3 L-11.5 19.05 -14.35 17.3 -14.75 14.85 Q-17.8 14.6 -20.4 12.6 -17.8 14.6 -14.75 14.85 M-5.9 18.75 L-6.8 20.0 Q-9.1 22.75 -11.9 23.1 -9.1 22.75 -6.8 20.0 L-5.9 18.75 M-11.9 23.1 Q-14.3 23.35 -17.05 21.95 -14.3 23.35 -11.9 23.1 L-12.15 24.2 Q-9.1 25.45 -6.65 27.25 -6.2 27.65 -6.1 28.45 L-6.0 30.0 -6.1 28.45 Q-6.2 27.65 -6.65 27.25 -9.1 25.45 -12.15 24.2 L-11.9 23.1 M-0.35 23.4 Q0.15 25.4 -1.1 27.05 -3.1 29.55 -6.0 30.0 -3.1 29.55 -1.1 27.05 0.15 25.4 -0.35 23.4 M-2.8 33.15 L-3.9 32.65 Q-5.75 31.95 -6.0 30.0 -5.75 31.95 -3.9 32.65 L-2.8 33.15 M-15.15 4.55 Q-17.75 3.75 -20.35 3.5 -17.75 3.75 -15.15 4.55 M-6.0 30.0 L-9.9 29.7 -6.0 30.0" fill="url(#gradient0)" fill-rule="evenodd" stroke="none"/>
    <path d="M8.95 -16.45 Q7.45 -16.75 6.55 -18.0 4.0 -21.4 1.85 -24.9 -0.8 -29.35 -4.35 -32.8 L-10.75 -28.65 Q-5.2 -25.8 -5.45 -19.05 L-5.7 -13.35 Q-6.0 -6.2 -7.55 0.6 -7.9 2.15 -7.1 3.4 L-7.05 3.3 -6.05 2.25 -4.85 1.5 Q-6.35 6.6 -6.7 12.0 L-5.5 10.95 -4.05 10.15 Q-5.2 16.15 -0.6 20.3 L-0.15 19.15 Q0.8 22.3 3.65 24.3 L4.75 24.85 5.15 25.3 5.8 25.6 Q7.05 26.25 7.45 27.7 L7.5 27.95 Q7.6 28.95 7.1 30.05 6.7 30.9 5.9 31.3 L1.7 32.95 1.6 33.5 1.6 34.2 Q2.0 36.0 3.55 37.25 L3.65 37.9 0.9 37.25 Q-6.4 35.6 -9.9 29.7 L-11.0 30.0 -11.25 31.2 -11.2 33.5 -11.15 34.2 -12.4 32.85 Q-16.4 28.2 -17.25 22.0 L-17.25 21.85 -17.6 21.8 -18.0 21.75 -18.8 21.9 -19.2 22.15 -19.6 23.3 -19.65 24.55 -19.6 25.2 -19.6 25.3 -20.1 24.45 Q-22.75 18.55 -20.4 12.6 L-21.35 12.6 Q-23.15 12.9 -23.8 14.45 L-23.35 11.0 Q-22.95 8.1 -20.35 3.5 L-22.0 5.15 Q-20.35 -1.7 -14.85 -6.3 -13.85 -7.1 -13.3 -8.3 -10.15 -14.75 -12.65 -21.75 -13.35 -23.8 -14.6 -25.65 L-10.75 -28.65 M7.6 27.9 Q8.95 26.2 10.7 24.65 L11.55 23.6 Q5.15 22.05 1.75 16.95 L0.4 14.55 -0.8 11.95 M8.95 -16.45 L9.0 -16.4 8.95 -16.35 4.85 -16.7 4.7 -15.85 Q6.85 -10.05 6.45 -3.75 L6.45 -3.0 6.35 -3.75 Q5.85 -5.7 4.3 -7.05 L3.35 -7.8 Q4.05 -4.6 3.9 -1.3 3.85 0.4 3.4 2.15 2.65 5.25 4.2 8.45 10.8 10.3 17.25 7.95 L18.2 7.35 Q17.8 9.7 15.2 10.45 L13.75 10.85 Q13.15 13.75 15.3 15.7 L15.85 16.15 16.05 16.3 22.8 17.15 23.75 17.2 22.8 17.35 16.55 17.5 Q16.2 18.0 16.0 18.6 14.85 21.55 16.55 24.2 L20.15 26.0 13.75 24.4 11.55 23.6 M13.75 10.85 L9.75 11.4 5.55 11.05 Q7.65 13.0 10.4 14.25 L15.85 16.25 16.05 16.3 M4.2 8.45 L0.9 7.35 M16.55 17.5 Q12.4 17.45 8.5 16.0 L6.15 15.3 Q8.05 19.05 12.6 21.75 L16.55 24.2 M7.6 27.9 L7.5 27.95 M-15.15 4.55 L-12.6 5.45 Q-11.05 6.0 -9.6 5.1 -8.5 4.35 -8.25 3.35 M-14.75 14.85 L-12.7 14.75 Q-11.8 14.75 -11.05 14.15 L-8.65 12.3 M-11.9 23.1 Q-9.1 22.75 -6.8 20.0 L-5.9 18.75 M-17.25 21.85 L-17.05 21.95 Q-14.3 23.35 -11.9 23.1 M-6.0 30.0 Q-3.1 29.55 -1.1 27.05 0.15 25.4 -0.35 23.4 M-9.9 29.7 L-6.0 30.0 M-14.75 14.85 Q-17.8 14.6 -20.4 12.6 M-20.35 3.5 Q-17.75 3.75 -15.15 4.55" fill="none" stroke="#000000" stroke-linecap="round" stroke-linejoin="round" stroke-width="0.05"/>
    <path d="M-15.15 4.55 L-15.55 3.65 -16.75 3.4 Q-16.1 -1.4 -13.1 -5.4 -8.5 -11.45 -9.3 -18.65 M-15.15 4.55 Q-16.7 6.85 -17.95 9.55 L-18.45 11.05 -14.85 13.8 -14.75 14.85 -14.35 17.3 -11.5 19.05 -11.4 19.3 Q-11.05 20.7 -11.55 22.15 L-11.9 23.1 -12.15 24.2 Q-9.1 25.45 -6.65 27.25 -6.2 27.65 -6.1 28.45 L-6.0 30.0 Q-5.75 31.95 -3.9 32.65 L-2.8 33.15" fill="none" stroke="#a9f8ef" stroke-linecap="round" stroke-linejoin="round" stroke-opacity="0.77254903" stroke-width="0.05"/>
  </g>
  <defs>
    <linearGradient gradientTransform="matrix(0.0303, 0.0177, -0.0205, 0.035, -9.1, 8.75)" gradientUnits="userSpaceOnUse" id="gradient0" spreadMethod="pad" x1="-819.2" x2="819.2">
      <stop offset="0.0" stop-color="#27e0ed"/>
      <stop offset="0.2196078431372549" stop-color="#79ecec"/>
      <stop offset="0.4235294117647059" stop-color="#1bbaba"/>
      <stop offset="1.0" stop-color="#014765"/>
    </linearGradient>
  </defs>
</svg>
