<?xml version="1.0" encoding="UTF-8" standalone="no"?>
<svg xmlns:xlink="http://www.w3.org/1999/xlink" height="68.55px" width="50.25px" xmlns="http://www.w3.org/2000/svg">
  <g transform="matrix(1.0, 0.0, 0.0, 1.0, 0.0, 0.0)">
    <path d="M15.15 -3.5 L15.8 -3.35 17.7 -1.75 18.75 -0.65 18.75 0.0 16.6 0.15 17.2 0.65 Q18.45 1.8 18.75 3.65 L18.9 5.15 16.65 3.9 Q20.05 7.0 20.1 11.4 L19.95 12.55 19.15 11.7 17.15 10.4 16.05 9.85 17.35 11.85 Q18.1 13.05 17.85 14.65 L17.7 15.4 17.05 14.6 14.45 13.9 15.2 15.4 2.85 15.85 4.8 13.0 Q6.45 10.15 9.85 10.3 L11.85 9.8 Q13.95 9.0 13.95 6.75 L14.3 6.35 Q14.3 5.65 14.45 5.0 15.3 0.7 15.15 -3.5" fill="#396020" fill-rule="evenodd" stroke="none"/>
    <path d="M2.85 15.85 L-2.45 17.6 Q-3.25 12.5 -8.8 13.6 L-11.05 14.05 Q-10.4 11.3 -11.65 8.85 -9.05 7.65 -7.5 5.35 L-7.3 4.9 -7.5 5.35 Q-9.05 7.65 -11.65 8.85 L-12.3 7.8 -12.75 7.25 -14.8 7.2 -16.2 7.85 -16.1 4.35 -15.9 4.15 -15.35 3.35 Q-13.55 0.3 -12.6 -3.25 L-12.2 -4.95 -3.25 -6.4 0.2 -6.4 0.75 -5.75 0.75 -3.8 9.4 -2.4 Q10.95 -2.55 12.35 -1.85 L12.65 0.6 11.6 5.9 10.65 9.5 Q10.45 10.15 9.85 10.3 6.45 10.15 4.8 13.0 L2.85 15.85 M-4.95 11.95 L-4.25 11.4 Q-3.35 10.5 -2.8 9.4 -1.9 7.5 -1.65 5.6 L-6.8 5.45 -7.3 4.9 -6.7 0.35 -11.65 0.95 -12.55 3.5 -14.8 4.95 -12.55 3.5 -11.65 0.95 -6.7 0.35 -7.3 4.9 -6.8 5.45 -1.65 5.6 Q-1.9 7.5 -2.8 9.4 -3.35 10.5 -4.25 11.4 L-4.95 11.95 M0.0 12.35 L0.35 12.05 Q1.15 11.25 1.05 10.35 0.9 8.85 1.35 7.5 L2.95 7.25 4.1 7.8 5.8 1.85 5.45 1.65 -2.85 0.25 -2.45 -0.85 Q-2.0 -2.4 -3.05 -3.4 L-5.65 -3.4 -8.1 -2.65 -11.95 -2.45 -8.1 -2.65 -5.65 -3.4 -3.05 -3.4 Q-2.0 -2.4 -2.45 -0.85 L-2.85 0.25 5.45 1.65 5.8 1.85 4.1 7.8 2.95 7.25 1.35 7.5 Q0.9 8.85 1.05 10.35 1.15 11.25 0.35 12.05 L0.0 12.35" fill="url(#gradient0)" fill-rule="evenodd" stroke="none"/>
    <path d="M-2.45 -13.55 L-1.4 -14.5 Q-0.5 -15.55 -0.4 -16.85 L-4.1 -17.25 Q-3.9 -18.7 -2.6 -19.45 L-0.95 -20.6 -0.15 -21.5 Q0.45 -22.5 -0.3 -23.4 L-2.7 -23.65 -3.25 -24.65 Q-2.55 -25.95 -1.45 -26.7 L0.15 -27.35 3.7 -28.1 8.0 -29.15 Q9.75 -29.5 10.9 -30.75 11.2 -34.15 10.8 -37.45 L10.6 -38.3 8.9 -38.1 5.4 -37.25 Q1.5 -36.25 -2.4 -35.7 L-3.15 -36.1 -2.4 -35.7 Q1.5 -36.25 5.4 -37.25 L8.9 -38.1 10.6 -38.3 10.8 -37.45 Q11.2 -34.15 10.9 -30.75 9.75 -29.5 8.0 -29.15 L3.7 -28.1 0.15 -27.35 -1.45 -26.7 Q-2.55 -25.95 -3.25 -24.65 L-2.7 -23.65 -0.3 -23.4 Q0.45 -22.5 -0.15 -21.5 L-0.95 -20.6 -2.6 -19.45 Q-3.9 -18.7 -4.1 -17.25 L-0.4 -16.85 Q-0.5 -15.55 -1.4 -14.5 L-2.45 -13.55 M0.95 -43.0 Q10.15 -44.4 18.85 -43.35 L19.95 -24.9 19.1 -24.1 Q15.05 -21.55 10.45 -22.15 L7.5 -22.7 Q4.8 -19.5 5.45 -15.25 9.35 -12.65 7.6 -7.3 L7.3 -6.15 Q3.9 -6.7 2.9 -10.25 L2.45 -10.85 -7.9 -10.55 -8.05 -10.6 -3.15 -36.1 -2.1 -40.15 -2.9 -40.15 -3.6 -40.45 -3.65 -42.35 Q-1.8 -43.2 0.3 -42.9 L0.8 -42.9 0.95 -43.0 M3.1 -20.8 L6.15 -26.0 16.85 -26.55 Q17.1 -27.9 16.8 -29.4 L14.4 -41.55 -2.1 -40.15 14.4 -41.55 16.8 -29.4 Q17.1 -27.9 16.85 -26.55 L6.15 -26.0 3.1 -20.8 M3.7 -33.3 L-2.45 -31.65 3.7 -33.3" fill="url(#gradient1)" fill-rule="evenodd" stroke="none"/>
    <path d="M19.1 -24.1 L14.0 -5.4 7.3 -6.15 7.6 -7.3 Q9.35 -12.65 5.45 -15.25 4.8 -19.5 7.5 -22.7 L10.45 -22.15 Q15.05 -21.55 19.1 -24.1" fill="url(#gradient2)" fill-rule="evenodd" stroke="none"/>
    <path d="M14.0 -5.4 L15.0 -5.35 15.15 -3.5 Q15.3 0.7 14.45 5.0 14.3 5.65 14.3 6.35 L13.95 6.75 Q13.95 9.0 11.85 9.8 L9.85 10.3 Q10.45 10.15 10.65 9.5 L11.6 5.9 12.65 0.6 12.35 -1.85 Q10.95 -2.55 9.4 -2.4 L0.75 -3.8 0.75 -5.75 0.2 -6.4 -3.25 -6.4 -12.2 -4.95 -13.45 -5.3 -13.35 -6.2 Q-12.6 -10.4 -7.9 -10.55 L2.45 -10.85 2.9 -10.25 Q3.9 -6.7 7.3 -6.15 L14.0 -5.4" fill="url(#gradient3)" fill-rule="evenodd" stroke="none"/>
    <path d="M-15.8 17.05 Q-18.2 18.5 -20.9 19.25 L-27.15 19.7 -24.3 13.6 -23.7 12.7 Q-20.7 9.25 -16.2 7.85 L-14.8 7.2 -12.75 7.25 -12.3 7.8 -11.65 8.85 -11.95 9.05 -11.65 8.85 Q-10.4 11.3 -11.05 14.05 L-11.75 14.3 Q-14.35 14.9 -15.8 17.05 M-18.1 14.0 L-17.65 14.75 -16.45 14.7 -15.65 12.85 -16.8 11.6 Q-18.25 11.25 -19.2 12.45 L-23.85 18.9 -19.2 12.45 Q-18.25 11.25 -16.8 11.6 L-15.65 12.85 -16.45 14.7 -17.65 14.75 -18.1 14.0" fill="url(#gradient4)" fill-rule="evenodd" stroke="none"/>
    <path d="M-2.45 17.6 L-3.3 19.2 Q-9.4 23.3 -16.5 24.45 L-16.95 24.75 -18.35 24.75 -19.4 24.5 -19.8 24.35 -20.2 24.05 -19.1 22.15 -15.8 17.05 Q-14.35 14.9 -11.75 14.3 L-11.05 14.05 -8.8 13.6 Q-3.25 12.5 -2.45 17.6 M-11.1 19.35 L-8.35 18.3 -7.7 16.6 -8.25 16.15 Q-10.65 16.55 -12.65 17.7 -14.45 18.8 -15.9 20.6 L-18.1 23.45 -15.9 20.6 Q-14.45 18.8 -12.65 17.7 -10.65 16.55 -8.25 16.15 L-7.7 16.6 -8.35 18.3 -11.1 19.35" fill="url(#gradient5)" fill-rule="evenodd" stroke="none"/>
    <path d="M-24.3 13.6 L-30.05 14.55 Q-30.45 12.8 -29.25 11.35 -24.15 5.05 -15.35 3.35 L-15.9 4.15 -16.1 4.35 -16.2 7.85 Q-20.7 9.25 -23.7 12.7 L-24.3 13.6 M-21.8 8.65 L-19.8 7.65 -20.95 6.5 Q-22.4 6.7 -23.55 7.7 -26.35 10.1 -28.4 13.15 -26.35 10.1 -23.55 7.7 -22.4 6.7 -20.95 6.5 L-19.8 7.65 -21.8 8.65" fill="url(#gradient6)" fill-rule="evenodd" stroke="none"/>
    <path d="M0.95 -43.0 L0.8 -43.0 0.95 -43.0 Q10.15 -44.4 18.85 -43.35 L19.95 -24.9 19.1 -24.1 14.0 -5.4 15.0 -5.35 15.15 -3.5 15.8 -3.35 17.7 -1.75 18.75 -0.65 18.75 0.0 16.6 0.15 17.2 0.65 Q18.45 1.8 18.75 3.65 L18.9 5.15 16.65 3.9 Q20.05 7.0 20.1 11.4 L19.95 12.55 19.15 11.7 17.15 10.4 16.05 9.85 17.35 11.85 Q18.1 13.05 17.85 14.65 L17.7 15.4 17.05 14.6 14.45 13.9 15.2 15.4 2.85 15.85 -2.45 17.6 -3.3 19.2 Q-9.4 23.3 -16.5 24.45 L-16.95 24.75 -18.35 24.75 -19.4 24.5 -19.8 24.35 -20.2 24.05 -19.1 22.15 -15.8 17.05 Q-18.2 18.5 -20.9 19.25 L-27.15 19.7 -24.3 13.6 -30.05 14.55 Q-30.45 12.8 -29.25 11.35 -24.15 5.05 -15.35 3.35 -13.55 0.3 -12.6 -3.25 L-12.2 -4.95 -13.45 -5.3 -13.35 -6.2 Q-12.6 -10.4 -7.9 -10.55 L-8.05 -10.6 -3.15 -36.1 -2.1 -40.15 -2.9 -40.15 -3.6 -40.45 -3.65 -42.35 Q-1.8 -43.2 0.3 -42.9 L0.8 -42.9 0.95 -43.0 M-2.1 -40.15 L14.4 -41.55 16.8 -29.4 Q17.1 -27.9 16.85 -26.55 L6.15 -26.0 3.1 -20.8 M19.1 -24.1 Q15.05 -21.55 10.45 -22.15 L7.5 -22.7 Q4.8 -19.5 5.45 -15.25 9.35 -12.65 7.6 -7.3 L7.3 -6.15 14.0 -5.4 M7.3 -6.15 Q3.9 -6.7 2.9 -10.25 L2.45 -10.85 -7.9 -10.55 M-12.2 -4.95 L-3.25 -6.4 0.2 -6.4 0.75 -5.75 0.75 -3.8 9.4 -2.4 Q10.95 -2.55 12.35 -1.85 L12.65 0.6 11.6 5.9 10.65 9.5 Q10.45 10.15 9.85 10.3 L11.85 9.8 Q13.95 9.0 13.95 6.75 L14.3 6.35 Q14.3 5.65 14.45 5.0 15.3 0.7 15.15 -3.5 M-16.2 7.85 L-16.1 4.35 -15.9 4.15 -15.35 3.35 M-11.65 8.85 L-12.3 7.8 -12.75 7.25 -14.8 7.2 -16.2 7.85 Q-20.7 9.25 -23.7 12.7 L-24.3 13.6 M-15.8 17.05 Q-14.35 14.9 -11.75 14.3 L-11.05 14.05 Q-10.4 11.3 -11.65 8.85 M-11.05 14.05 L-8.8 13.6 Q-3.25 12.5 -2.45 17.6 M9.85 10.3 Q6.45 10.15 4.8 13.0 L2.85 15.85" fill="none" stroke="#000000" stroke-linecap="round" stroke-linejoin="round" stroke-width="0.05"/>
    <path d="M-3.15 -36.1 L-2.4 -35.7 Q1.5 -36.25 5.4 -37.25 L8.9 -38.1 10.6 -38.3 10.8 -37.45 Q11.2 -34.15 10.9 -30.75 9.75 -29.5 8.0 -29.15 L3.7 -28.1 0.15 -27.35 -1.45 -26.7 Q-2.55 -25.95 -3.25 -24.65 L-2.7 -23.65 -0.3 -23.4 Q0.45 -22.5 -0.15 -21.5 L-0.95 -20.6 -2.6 -19.45 Q-3.9 -18.7 -4.1 -17.25 L-0.4 -16.85 Q-0.5 -15.55 -1.4 -14.5 L-2.45 -13.55 M-11.95 -2.45 L-8.1 -2.65 -5.65 -3.4 -3.05 -3.4 Q-2.0 -2.4 -2.45 -0.85 L-2.85 0.25 5.45 1.65 5.8 1.85 4.1 7.8 2.95 7.25 1.35 7.5 Q0.9 8.85 1.05 10.35 1.15 11.25 0.35 12.05 L0.0 12.35 M-14.8 4.95 L-12.55 3.5 -11.65 0.95 -6.7 0.35 -7.3 4.9 -6.8 5.45 -1.65 5.6 Q-1.9 7.5 -2.8 9.4 -3.35 10.5 -4.25 11.4 L-4.95 11.95 M-11.65 8.85 Q-9.05 7.65 -7.5 5.35 L-7.3 4.9 M-11.95 9.05 L-11.65 8.85 M-23.85 18.9 L-19.2 12.45 Q-18.25 11.25 -16.8 11.6 L-15.65 12.85 -16.45 14.7 -17.65 14.75 -18.1 14.0 M-18.1 23.45 L-15.9 20.6 Q-14.45 18.8 -12.65 17.7 -10.65 16.55 -8.25 16.15 L-7.7 16.6 -8.35 18.3 -11.1 19.35 M-28.4 13.15 Q-26.35 10.1 -23.55 7.7 -22.4 6.7 -20.95 6.5 L-19.8 7.65 -21.8 8.65 M-2.45 -31.65 L3.7 -33.3" fill="none" stroke="#66ff00" stroke-linecap="round" stroke-linejoin="round" stroke-width="0.05"/>
  </g>
  <defs>
    <linearGradient gradientTransform="matrix(0.0176, 0.0, 0.0, 0.0146, -1.8, 5.6)" gradientUnits="userSpaceOnUse" id="gradient0" spreadMethod="pad" x1="-819.2" x2="819.2">
      <stop offset="0.0" stop-color="#64663e"/>
      <stop offset="1.0" stop-color="#393124"/>
    </linearGradient>
    <linearGradient gradientTransform="matrix(0.0171, 0.0, 0.0, 0.023, 5.95, -25.0)" gradientUnits="userSpaceOnUse" id="gradient1" spreadMethod="pad" x1="-819.2" x2="819.2">
      <stop offset="0.0" stop-color="#64663e"/>
      <stop offset="1.0" stop-color="#393124"/>
    </linearGradient>
    <linearGradient gradientTransform="matrix(0.0084, 0.0, 0.0, 0.0114, 12.2, -14.75)" gradientUnits="userSpaceOnUse" id="gradient2" spreadMethod="pad" x1="-819.2" x2="819.2">
      <stop offset="0.0" stop-color="#49462e"/>
      <stop offset="1.0" stop-color="#1a1511"/>
    </linearGradient>
    <linearGradient gradientTransform="matrix(0.0175, 0.0, 0.0, 0.0129, 0.85, -0.3)" gradientUnits="userSpaceOnUse" id="gradient3" spreadMethod="pad" x1="-819.2" x2="819.2">
      <stop offset="0.0" stop-color="#839152"/>
      <stop offset="1.0" stop-color="#393124"/>
    </linearGradient>
    <linearGradient gradientTransform="matrix(0.0099, 0.0, 0.0, 0.0078, -19.0, 13.4)" gradientUnits="userSpaceOnUse" id="gradient4" spreadMethod="pad" x1="-819.2" x2="819.2">
      <stop offset="0.0" stop-color="#698741"/>
      <stop offset="1.0" stop-color="#393124"/>
    </linearGradient>
    <linearGradient gradientTransform="matrix(0.0108, 0.0, 0.0, 0.0069, -11.35, 19.05)" gradientUnits="userSpaceOnUse" id="gradient5" spreadMethod="pad" x1="-819.2" x2="819.2">
      <stop offset="0.0" stop-color="#698741"/>
      <stop offset="1.0" stop-color="#393124"/>
    </linearGradient>
    <linearGradient gradientTransform="matrix(0.009, 0.0, 0.0, 0.0068, -22.75, 8.95)" gradientUnits="userSpaceOnUse" id="gradient6" spreadMethod="pad" x1="-819.2" x2="819.2">
      <stop offset="0.0" stop-color="#698741"/>
      <stop offset="1.0" stop-color="#393124"/>
    </linearGradient>
  </defs>
</svg>
