<?xml version="1.0" encoding="UTF-8" standalone="no"?>
<svg xmlns:xlink="http://www.w3.org/1999/xlink" height="97.3px" width="138.15px" xmlns="http://www.w3.org/2000/svg">
  <g transform="matrix(1.0, 0.0, 0.0, 1.0, 0.0, 0.0)">
    <path d="M69.55 -38.4 L71.3 -36.4 75.95 -37.45 76.3 -38.0 77.5 -35.0 70.85 -33.2 72.25 -32.55 73.5 -31.85 Q76.1 -30.0 77.7 -27.05 L73.9 -26.85 77.5 -23.25 72.45 -23.35 Q74.95 -22.3 76.55 -20.1 L77.2 -19.0 Q78.35 -16.75 78.05 -15.3 L75.85 -16.5 74.55 -17.4 Q72.0 -18.75 69.65 -18.0 L72.55 -15.8 Q74.55 -14.5 75.4 -12.35 L77.75 -5.5 Q75.8 -6.9 73.5 -7.65 L71.95 -8.15 Q69.4 -8.2 68.4 -5.95 L71.3 -5.15 72.8 -4.5 Q75.75 -2.9 76.35 0.0 73.55 -1.75 70.3 -1.35 L69.0 -1.1 Q67.05 -0.7 65.85 0.4 68.7 0.9 71.15 2.35 L72.3 3.2 Q73.9 4.55 75.05 6.5 L60.0 4.3 60.8 5.4 Q61.75 6.8 61.35 8.2 L61.25 8.5 56.1 5.8 57.75 8.05 48.15 6.05 47.95 7.3 47.2 7.8 47.1 7.15 41.95 6.45 Q44.5 -6.4 56.75 -8.45 L57.3 -8.8 Q56.55 -21.9 67.2 -30.45 67.85 -31.05 68.1 -32.25 L69.55 -38.4" fill="#396020" fill-rule="evenodd" stroke="none"/>
    <path d="M56.5 -31.55 L56.25 -33.1 58.0 -35.3 56.8 -37.0 Q55.15 -38.65 53.2 -35.75 L52.3 -34.4 Q50.45 -38.2 48.3 -38.0 44.2 -37.6 40.7 -38.9 38.75 -38.9 37.35 -39.6 35.9 -40.35 35.9 -41.35 35.9 -40.35 37.35 -39.6 38.75 -38.9 40.7 -38.9 44.2 -37.6 48.3 -38.0 50.45 -38.2 52.3 -34.4 L53.2 -35.75 Q55.15 -38.65 56.8 -37.0 L58.0 -35.3 56.25 -33.1 56.5 -31.55 M18.5 -28.6 L20.0 -28.8 Q26.35 -30.7 28.25 -35.4 29.15 -37.65 30.1 -46.75 33.3 -45.45 40.2 -44.5 L57.25 -41.2 58.2 -41.0 63.25 -40.0 64.1 -38.5 Q56.45 -25.35 51.5 -11.15 45.0 -9.15 41.8 -3.2 40.8 -1.4 39.25 4.3 L33.7 4.35 Q33.85 1.8 34.95 -0.15 41.9 -11.9 36.95 -24.55 L36.05 -24.6 Q26.5 -21.7 18.5 -28.6 M28.8 -24.6 L30.75 -26.45 33.5 -27.35 32.45 -27.85 Q30.9 -28.6 30.8 -30.4 L32.5 -31.95 Q35.15 -33.85 38.35 -32.7 L38.95 -33.85 Q40.4 -36.1 40.7 -38.9 40.4 -36.1 38.95 -33.85 L38.35 -32.7 Q35.15 -33.85 32.5 -31.95 L30.8 -30.4 Q30.9 -28.6 32.45 -27.85 L33.5 -27.35 30.75 -26.45 28.8 -24.6 M44.05 -16.45 L44.4 -19.2 Q41.3 -18.95 40.8 -15.8 L40.75 -13.85 Q43.95 -10.9 46.8 -14.5 L47.9 -16.2 Q46.05 -18.7 47.05 -21.2 L49.35 -27.55 Q50.8 -31.75 52.3 -34.4 50.8 -31.75 49.35 -27.55 L47.05 -21.2 Q46.05 -18.7 47.9 -16.2 L46.8 -14.5 Q43.95 -10.9 40.75 -13.85 L40.8 -15.8 Q41.3 -18.95 44.4 -19.2 L44.05 -16.45" fill="url(#gradient0)" fill-rule="evenodd" stroke="none"/>
    <path d="M-8.15 4.95 L-19.25 5.4 Q-34.9 6.55 -50.15 10.85 -55.2 12.4 -59.65 15.65 -59.05 14.35 -58.15 13.35 L-57.85 12.55 -52.5 7.45 -52.9 8.05 -29.6 0.6 Q-29.05 -1.4 -29.7 -3.05 -29.05 -1.4 -29.6 0.6 L-52.9 8.05 -52.5 7.45 -52.35 7.25 -52.2 7.1 Q-43.65 -1.7 -31.65 -3.0 L-29.7 -3.05 -22.25 -2.85 -21.95 -1.4 -21.5 -0.45 -15.9 -0.15 -15.9 -2.75 -15.9 -0.15 -21.5 -0.45 -21.95 -1.4 -22.25 -2.85 -15.9 -2.75 -15.45 -2.75 -12.85 -2.95 -12.7 -0.5 -8.35 -1.0 -8.3 -3.05 -8.35 -1.0 -12.7 -0.5 -12.85 -2.95 -9.2 -2.8 -8.3 -3.05 -3.9 -3.6 -3.35 -3.7 -3.3 -1.95 Q-0.05 -2.25 0.6 -4.8 -0.05 -2.25 -3.3 -1.95 L-3.35 -3.7 Q-1.35 -4.1 0.6 -4.8 2.3 -5.4 3.95 -6.25 L4.75 -6.65 6.0 -6.9 Q7.75 -7.3 9.45 -8.05 10.95 -8.7 12.4 -9.6 L15.15 -11.5 15.3 -11.5 Q18.35 -11.95 19.1 -14.3 21.15 -12.55 22.25 -9.8 L22.5 -9.2 22.95 -7.8 Q16.3 -6.5 6.9 -1.75 -2.5 3.0 -8.15 4.95 M18.65 -12.5 L16.0 -10.15 15.3 -11.5 16.0 -10.15 18.65 -12.5 M9.45 -8.05 Q8.45 -5.7 5.8 -5.95 L6.0 -6.9 5.8 -5.95 Q8.45 -5.7 9.45 -8.05" fill="url(#gradient1)" fill-rule="evenodd" stroke="none"/>
    <path d="M-41.35 -11.65 L-49.6 -10.1 -53.35 -9.3 -56.45 -8.2 -53.65 -12.55 Q-49.3 -14.8 -44.35 -15.6 L-43.75 -15.7 -42.1 -15.95 -27.2 -16.95 -27.2 -16.9 -25.85 -16.95 -24.9 -16.95 -18.9 -16.7 -14.1 -16.25 -16.15 -14.5 Q-17.95 -15.2 -18.9 -16.7 -17.95 -15.2 -16.15 -14.5 L-14.1 -16.25 -13.1 -16.15 -11.95 -16.0 -11.35 -15.9 -5.8 -15.7 -2.35 -16.05 0.65 -16.85 1.25 -16.8 Q5.35 -17.3 8.55 -19.7 L12.45 -17.25 Q-2.35 -9.4 -19.65 -10.8 -21.7 -11.1 -22.9 -12.2 -33.0 -21.05 -41.35 -11.65 M-2.0 -15.6 L-5.8 -15.7 -2.0 -15.6 M-11.35 -15.9 L-11.9 -15.95 -11.95 -16.0 -11.9 -15.95 -11.35 -15.9 M-39.4 -15.15 L-43.75 -15.7 -39.4 -15.15" fill="url(#gradient2)" fill-rule="evenodd" stroke="none"/>
    <path d="M23.9 9.7 Q23.8 9.7 23.75 9.8 -33.85 28.5 -38.95 41.85 L-38.6 39.2 -38.35 37.7 Q-37.8 36.15 -36.85 34.75 -34.6 33.1 -33.2 30.65 L-32.25 29.75 -31.95 28.9 -31.8 28.8 -32.35 30.75 -19.85 22.25 Q-18.75 21.55 -18.7 20.2 L-18.9 19.35 Q-19.65 18.4 -20.5 17.9 -19.65 18.4 -18.9 19.35 L-18.7 20.2 Q-18.75 21.55 -19.85 22.25 L-32.35 30.75 -31.8 28.8 -27.05 24.2 Q-26.2 23.4 -25.5 22.25 L-24.85 22.15 -24.55 21.6 -23.65 21.1 -23.45 20.9 -20.5 17.9 -20.15 17.55 -18.7 16.55 -18.1 16.4 -17.85 16.0 -14.65 15.75 -14.2 15.8 -13.95 16.4 -13.55 17.5 -12.75 17.95 -8.3 16.65 -8.55 14.15 -8.3 16.65 -12.75 17.95 -13.55 17.5 -13.95 16.4 -14.2 15.8 Q-12.0 15.95 -10.05 15.15 L-8.55 14.15 Q-6.65 12.95 -4.55 12.0 -3.8 13.0 -3.65 14.45 L-3.2 14.75 0.5 13.8 Q1.5 11.55 0.65 9.4 1.5 11.55 0.5 13.8 L-3.2 14.75 -3.65 14.45 Q-3.8 13.0 -4.55 12.0 L-2.35 11.0 Q-0.75 10.3 0.65 9.4 L1.35 8.9 2.65 8.45 Q4.95 9.4 6.7 11.2 L8.45 10.45 9.2 6.05 8.45 10.45 6.7 11.2 Q4.95 9.4 2.65 8.45 L6.2 7.2 9.2 6.05 11.4 5.0 12.35 4.8 12.7 4.5 13.15 4.45 15.55 3.75 16.45 2.95 17.45 3.1 18.6 2.6 19.1 2.4 Q20.15 1.85 21.15 1.35 L22.45 1.05 Q22.9 0.4 23.85 0.15 L24.6 0.1 24.6 0.25 24.65 2.25 24.95 2.7 23.9 9.7 M22.3 4.2 Q21.0 4.55 20.0 3.45 L19.1 2.4 20.0 3.45 Q21.0 4.55 22.3 4.2 M13.15 4.45 L14.4 5.15 Q15.6 6.05 15.55 7.7 17.6 6.8 18.15 4.55 L18.6 2.6 18.15 4.55 Q17.6 6.8 15.55 7.7 15.6 6.05 14.4 5.15 L13.15 4.45" fill="url(#gradient3)" fill-rule="evenodd" stroke="none"/>
    <path d="M30.1 -46.75 L28.15 -48.9 Q28.05 -57.9 35.15 -54.55 40.85 -51.9 52.25 -48.45 L69.6 -43.2 69.55 -38.4 68.1 -32.25 Q67.85 -31.05 67.2 -30.45 56.55 -21.9 57.3 -8.8 L56.75 -8.45 Q44.5 -6.4 41.95 6.45 L41.8 9.25 29.0 10.7 26.0 10.95 25.6 10.85 23.85 10.2 23.9 9.7 24.95 2.7 24.65 2.25 24.6 0.25 24.6 0.1 Q24.4 -4.05 22.95 -7.8 L22.5 -9.2 22.25 -9.8 Q21.15 -12.55 19.1 -14.3 16.5 -16.55 12.45 -17.25 L8.55 -19.7 6.3 -21.15 Q6.0 -22.2 6.0 -23.25 6.05 -25.3 6.9 -27.0 L6.95 -27.05 8.85 -31.7 17.8 -31.35 18.45 -28.6 18.5 -28.6 Q26.5 -21.7 36.05 -24.6 L36.95 -24.55 Q41.9 -11.9 34.95 -0.15 33.85 1.8 33.7 4.35 L39.25 4.3 Q40.8 -1.4 41.8 -3.2 45.0 -9.15 51.5 -11.15 56.45 -25.35 64.1 -38.5 L63.25 -40.0 58.2 -41.0 57.25 -41.2 40.2 -44.5 Q33.3 -45.45 30.1 -46.75 M14.7 -26.45 L15.5 -24.85 Q19.0 -18.65 26.1 -18.25 19.0 -18.65 15.5 -24.85 L14.7 -26.45 M27.25 -14.85 L25.0 -12.55 27.25 -14.85 26.4 -16.85 Q28.0 -20.2 31.6 -19.9 28.0 -20.2 26.4 -16.85 L27.25 -14.85 Q30.4 -12.65 33.3 -15.35 34.15 -16.15 34.15 -17.3 L31.6 -19.9 34.15 -17.3 Q34.15 -16.15 33.3 -15.35 30.4 -12.65 27.25 -14.85 M29.15 2.75 L29.65 1.0 Q31.35 -5.95 30.2 -12.95 31.35 -5.95 29.65 1.0 L29.15 2.75" fill="url(#gradient4)" fill-rule="evenodd" stroke="none"/>
    <path d="M-25.85 -16.95 Q-24.55 -17.15 -23.4 -17.95 -20.65 -19.65 -19.05 -16.9 L-18.9 -16.7 -24.9 -16.95 -25.85 -16.95 M-14.1 -16.25 L-13.2 -17.05 -11.95 -16.0 -13.1 -16.15 -14.1 -16.25" fill="url(#gradient5)" fill-rule="evenodd" stroke="none"/>
    <path d="M19.1 2.4 L18.6 2.6 18.75 1.9 19.1 2.4" fill="url(#gradient6)" fill-rule="evenodd" stroke="none"/>
    <path d="M-59.65 15.65 L-60.05 15.95 Q-58.45 10.55 -55.7 5.75 -50.0 -4.0 -41.35 -11.65 -33.0 -21.05 -22.9 -12.2 -21.7 -11.1 -19.65 -10.8 -2.35 -9.4 12.45 -17.25 16.5 -16.55 19.1 -14.3 18.35 -11.95 15.3 -11.5 L15.15 -11.5 12.4 -9.6 Q10.95 -8.7 9.45 -8.05 7.75 -7.3 6.0 -6.9 L6.45 -9.0 6.2 -9.6 4.5 -10.15 Q1.85 -10.35 0.4 -8.15 L0.65 -6.95 Q0.8 -5.75 0.6 -4.8 0.8 -5.75 0.65 -6.95 L0.4 -8.15 Q1.85 -10.35 4.5 -10.15 L6.2 -9.6 6.45 -9.0 6.0 -6.9 4.75 -6.65 3.95 -6.25 Q2.3 -5.4 0.6 -4.8 -1.35 -4.1 -3.35 -3.7 L-3.9 -3.6 -8.3 -3.05 -9.2 -2.8 -12.85 -2.95 -15.45 -2.75 -15.9 -2.75 -22.25 -2.85 -29.7 -3.05 -31.1 -5.0 Q-32.65 -6.4 -34.7 -6.55 L-36.95 -4.3 -35.45 -3.5 -34.6 -3.55 -34.15 -3.95 -34.6 -3.55 -35.45 -3.5 -36.95 -4.3 -34.7 -6.55 Q-32.65 -6.4 -31.1 -5.0 L-29.7 -3.05 -31.65 -3.0 Q-43.65 -1.7 -52.2 7.1 L-52.35 7.25 -52.5 7.45 -57.85 12.55 -58.15 13.35 Q-59.05 14.35 -59.65 15.65 M15.3 -11.5 L14.35 -13.3 9.5 -12.25 Q10.2 -10.5 9.7 -8.75 L9.45 -8.05 9.7 -8.75 Q10.2 -10.5 9.5 -12.25 L14.35 -13.3 15.3 -11.5 M-22.25 -2.85 Q-22.05 -7.3 -24.9 -10.65 -26.3 -12.2 -28.3 -11.9 -43.9 -9.2 -52.2 7.1 -43.9 -9.2 -28.3 -11.9 -26.3 -12.2 -24.9 -10.65 -22.05 -7.3 -22.25 -2.85 M-12.85 -2.95 L-13.05 -6.6 -15.9 -6.5 -15.9 -2.75 -15.9 -6.5 -13.05 -6.6 -12.85 -2.95 M-3.35 -3.7 L-3.45 -6.2 Q-6.5 -7.9 -8.25 -5.05 L-8.3 -3.05 -8.25 -5.05 Q-6.5 -7.9 -3.45 -6.2 L-3.35 -3.7" fill="url(#gradient7)" fill-rule="evenodd" stroke="none"/>
    <path d="M-53.65 -12.55 Q-47.35 -21.4 -38.1 -27.6 L-33.75 -30.1 Q-19.75 -18.8 -1.05 -20.8 L-0.65 -21.15 6.3 -21.15 8.55 -19.7 Q5.35 -17.3 1.25 -16.8 L0.65 -16.85 -2.35 -16.05 -5.8 -15.7 -11.35 -15.9 -11.95 -16.0 -13.2 -17.05 -14.1 -16.25 -18.9 -16.7 -19.05 -16.9 Q-20.65 -19.65 -23.4 -17.95 -24.55 -17.15 -25.85 -16.95 L-27.2 -16.9 -27.2 -16.95 -42.1 -15.95 -43.75 -15.7 -44.35 -15.6 Q-49.3 -14.8 -53.65 -12.55 M-27.2 -16.95 L-27.25 -17.75 Q-27.7 -20.8 -29.45 -23.5 -30.35 -24.75 -31.85 -25.05 L-35.35 -23.2 Q-40.6 -20.4 -44.6 -15.8 L-43.75 -15.7 -44.6 -15.8 Q-40.6 -20.4 -35.35 -23.2 L-31.85 -25.05 Q-30.35 -24.75 -29.45 -23.5 -27.7 -20.8 -27.25 -17.75 L-27.2 -16.95 M-33.35 -17.7 L-32.8 -19.65 -32.75 -19.8 -34.7 -21.6 -35.65 -21.2 -35.95 -19.9 -35.65 -21.2 -34.7 -21.6 -32.75 -19.8 -32.8 -19.65 -33.35 -17.7" fill="url(#gradient8)" fill-rule="evenodd" stroke="none"/>
    <path d="M-38.35 37.7 L-37.4 32.9 -35.4 24.2 Q-33.4 15.65 -25.85 10.25 -23.35 11.05 -8.15 4.95 -2.5 3.0 6.9 -1.75 16.3 -6.5 22.95 -7.8 24.4 -4.05 24.6 0.1 L23.85 0.15 Q22.9 0.4 22.45 1.05 L21.15 1.35 Q20.15 1.85 19.1 2.4 L18.75 1.9 18.6 2.6 17.45 3.1 16.45 2.95 15.55 3.75 13.15 4.45 12.7 4.5 12.35 4.8 11.4 5.0 9.2 6.05 9.55 3.8 Q11.45 3.7 13.15 4.45 11.45 3.7 9.55 3.8 L9.2 6.05 6.2 7.2 2.65 8.45 1.35 8.9 0.65 9.4 0.55 9.2 -0.2 7.6 2.65 8.45 -0.2 7.6 0.55 9.2 0.65 9.4 Q-0.75 10.3 -2.35 11.0 L-4.55 12.0 Q-6.65 12.95 -8.55 14.15 L-8.95 10.4 -8.0 9.85 Q-6.25 10.15 -5.0 11.45 L-4.55 12.0 -5.0 11.45 Q-6.25 10.15 -8.0 9.85 L-8.95 10.4 -8.55 14.15 -10.05 15.15 Q-12.0 15.95 -14.2 15.8 L-14.65 15.75 -17.85 16.0 -18.1 16.4 -18.7 16.55 -20.15 17.55 -20.5 17.9 Q-22.65 16.75 -25.4 18.7 L-25.25 20.85 -23.45 20.9 -25.25 20.85 -25.4 18.7 Q-22.65 16.75 -20.5 17.9 L-23.45 20.9 -23.65 21.1 -24.55 21.6 -24.85 22.15 -25.5 22.25 Q-26.2 23.4 -27.05 24.2 L-31.8 28.8 -31.95 28.9 -32.25 29.75 -33.2 30.65 Q-34.6 33.1 -36.85 34.75 -37.8 36.15 -38.35 37.7 M-31.8 28.8 Q-29.55 21.2 -24.7 14.95 -22.4 12.1 -18.75 12.65 -15.6 13.05 -14.2 15.8 -15.6 13.05 -18.75 12.65 -22.4 12.1 -24.7 14.95 -29.55 21.2 -31.8 28.8" fill="url(#gradient9)" fill-rule="evenodd" stroke="none"/>
    <path d="M30.1 -46.75 L28.15 -48.9 Q28.05 -57.9 35.15 -54.55 40.85 -51.9 52.25 -48.45 L69.6 -43.2 69.55 -38.4 71.3 -36.4 75.95 -37.45 76.3 -38.0 77.5 -35.0 70.85 -33.2 72.25 -32.55 73.5 -31.85 Q76.1 -30.0 77.7 -27.05 L73.9 -26.85 77.5 -23.25 72.45 -23.35 Q74.95 -22.3 76.55 -20.1 L77.2 -19.0 Q78.35 -16.75 78.05 -15.3 L75.85 -16.5 74.55 -17.4 Q72.0 -18.75 69.65 -18.0 L72.55 -15.8 Q74.55 -14.5 75.4 -12.35 L77.75 -5.5 Q75.8 -6.9 73.5 -7.65 L71.95 -8.15 Q69.4 -8.2 68.4 -5.95 L71.3 -5.15 72.8 -4.5 Q75.75 -2.9 76.35 0.0 73.55 -1.75 70.3 -1.35 L69.0 -1.1 Q67.05 -0.7 65.85 0.4 68.7 0.9 71.15 2.35 L72.3 3.2 Q73.9 4.55 75.05 6.5 L60.0 4.3 60.8 5.4 Q61.75 6.8 61.35 8.2 L61.25 8.5 56.1 5.8 57.75 8.05 48.15 6.05 47.95 7.3 47.2 7.8 47.1 7.15 41.95 6.45 41.8 9.25 29.0 10.7 26.0 10.95 25.6 10.85 23.85 10.2 23.9 9.7 Q23.8 9.7 23.75 9.8 -33.85 28.5 -38.95 41.85 L-38.6 39.2 -38.35 37.7 -37.4 32.9 -35.4 24.2 Q-33.4 15.65 -25.85 10.25 -23.35 11.05 -8.15 4.95 L-19.25 5.4 Q-34.9 6.55 -50.15 10.85 -55.2 12.4 -59.65 15.65 L-60.05 15.95 Q-58.45 10.55 -55.7 5.75 -50.0 -4.0 -41.35 -11.65 L-49.6 -10.1 -53.35 -9.3 -56.45 -8.2 -53.65 -12.55 Q-47.35 -21.4 -38.1 -27.6 L-33.75 -30.1 Q-19.75 -18.8 -1.05 -20.8 L-0.65 -21.15 6.3 -21.15 Q6.0 -22.2 6.0 -23.25 6.05 -25.3 6.9 -27.0 L6.95 -27.05 8.85 -31.7 17.8 -31.35 18.45 -28.6 18.5 -28.6 20.0 -28.8 Q26.35 -30.7 28.25 -35.4 29.15 -37.65 30.1 -46.75 33.3 -45.45 40.2 -44.5 L57.25 -41.2 58.2 -41.0 63.25 -40.0 64.1 -38.5 Q56.45 -25.35 51.5 -11.15 45.0 -9.15 41.8 -3.2 40.8 -1.4 39.25 4.3 L33.7 4.35 Q33.85 1.8 34.95 -0.15 41.9 -11.9 36.95 -24.55 L36.05 -24.6 Q26.5 -21.7 18.5 -28.6 L18.45 -28.6 M19.1 -14.3 Q16.5 -16.55 12.45 -17.25 -2.35 -9.4 -19.65 -10.8 -21.7 -11.1 -22.9 -12.2 -33.0 -21.05 -41.35 -11.65 M6.3 -21.15 L8.55 -19.7 12.45 -17.25 M19.1 -14.3 Q21.15 -12.55 22.25 -9.8 L22.5 -9.2 22.95 -7.8 Q24.4 -4.05 24.6 0.1 L24.6 0.25 24.65 2.25 24.95 2.7 23.9 9.7 M22.95 -7.8 Q16.3 -6.5 6.9 -1.75 -2.5 3.0 -8.15 4.95 M69.55 -38.4 L68.1 -32.25 Q67.85 -31.05 67.2 -30.45 56.55 -21.9 57.3 -8.8 L56.75 -8.45 Q44.5 -6.4 41.95 6.45" fill="none" stroke="#000000" stroke-linecap="round" stroke-linejoin="round" stroke-width="0.05"/>
    <path d="M35.9 -41.35 Q35.9 -40.35 37.35 -39.6 38.75 -38.9 40.7 -38.9 44.2 -37.6 48.3 -38.0 50.45 -38.2 52.3 -34.4 L53.2 -35.75 Q55.15 -38.65 56.8 -37.0 L58.0 -35.3 56.25 -33.1 56.5 -31.55 M40.7 -38.9 Q40.4 -36.1 38.95 -33.85 L38.35 -32.7 Q35.15 -33.85 32.5 -31.95 L30.8 -30.4 Q30.9 -28.6 32.45 -27.85 L33.5 -27.35 30.75 -26.45 28.8 -24.6 M26.1 -18.25 Q19.0 -18.65 15.5 -24.85 L14.7 -26.45 M-5.8 -15.7 L-2.0 -15.6 M9.45 -8.05 L9.7 -8.75 Q10.2 -10.5 9.5 -12.25 L14.35 -13.3 15.3 -11.5 16.0 -10.15 18.65 -12.5 M0.6 -4.8 Q0.8 -5.75 0.65 -6.95 L0.4 -8.15 Q1.85 -10.35 4.5 -10.15 L6.2 -9.6 6.45 -9.0 6.0 -6.9 5.8 -5.95 Q8.45 -5.7 9.45 -8.05 M0.6 -4.8 Q-0.05 -2.25 -3.3 -1.95 L-3.35 -3.7 -3.45 -6.2 Q-6.5 -7.9 -8.25 -5.05 L-8.3 -3.05 -8.35 -1.0 -12.7 -0.5 -12.85 -2.95 -13.05 -6.6 -15.9 -6.5 -15.9 -2.75 -15.9 -0.15 -21.5 -0.45 -21.95 -1.4 -22.25 -2.85 Q-22.05 -7.3 -24.9 -10.65 -26.3 -12.2 -28.3 -11.9 -43.9 -9.2 -52.2 7.1 L-52.35 7.25 -52.5 7.45 -52.9 8.05 -29.6 0.6 Q-29.05 -1.4 -29.7 -3.05 L-31.1 -5.0 Q-32.65 -6.4 -34.7 -6.55 L-36.95 -4.3 -35.45 -3.5 -34.6 -3.55 -34.15 -3.95 M31.6 -19.9 Q28.0 -20.2 26.4 -16.85 L27.25 -14.85 Q30.4 -12.65 33.3 -15.35 34.15 -16.15 34.15 -17.3 L31.6 -19.9 M25.0 -12.55 L27.25 -14.85 M52.3 -34.4 Q50.8 -31.75 49.35 -27.55 L47.05 -21.2 Q46.05 -18.7 47.9 -16.2 L46.8 -14.5 Q43.95 -10.9 40.75 -13.85 L40.8 -15.8 Q41.3 -18.95 44.4 -19.2 L44.05 -16.45 M30.2 -12.95 Q31.35 -5.95 29.65 1.0 L29.15 2.75 M19.1 2.4 L20.0 3.45 Q21.0 4.55 22.3 4.2 M19.1 2.4 L18.75 1.9 18.6 2.6 18.15 4.55 Q17.6 6.8 15.55 7.7 15.6 6.05 14.4 5.15 L13.15 4.45 Q11.45 3.7 9.55 3.8 L9.2 6.05 8.45 10.45 6.7 11.2 Q4.95 9.4 2.65 8.45 L-0.2 7.6 0.55 9.2 0.65 9.4 Q1.5 11.55 0.5 13.8 L-3.2 14.75 -3.65 14.45 Q-3.8 13.0 -4.55 12.0 L-5.0 11.45 Q-6.25 10.15 -8.0 9.85 L-8.95 10.4 -8.55 14.15 -8.3 16.65 -12.75 17.95 -13.55 17.5 -13.95 16.4 -14.2 15.8 Q-15.6 13.05 -18.75 12.65 -22.4 12.1 -24.7 14.95 -29.55 21.2 -31.8 28.8 L-32.35 30.75 -19.85 22.25 Q-18.75 21.55 -18.7 20.2 L-18.9 19.35 Q-19.65 18.4 -20.5 17.9 -22.65 16.75 -25.4 18.7 L-25.25 20.85 -23.45 20.9 M-43.75 -15.7 L-44.6 -15.8 Q-40.6 -20.4 -35.35 -23.2 L-31.85 -25.05 Q-30.35 -24.75 -29.45 -23.5 -27.7 -20.8 -27.25 -17.75 L-27.2 -16.95 -27.2 -16.9 -25.85 -16.95 Q-24.55 -17.15 -23.4 -17.95 -20.65 -19.65 -19.05 -16.9 L-18.9 -16.7 Q-17.95 -15.2 -16.15 -14.5 L-14.1 -16.25 -13.2 -17.05 -11.95 -16.0 -11.9 -15.95 -11.35 -15.9 -5.8 -15.7 M-35.95 -19.9 L-35.65 -21.2 -34.7 -21.6 -32.75 -19.8 -32.8 -19.65 -33.35 -17.7 M-43.75 -15.7 L-39.4 -15.15" fill="none" stroke="#66ff00" stroke-linecap="round" stroke-linejoin="round" stroke-width="0.05"/>
  </g>
  <defs>
    <linearGradient gradientTransform="matrix(0.0388, 0.0, 0.0, 0.0405, 37.75, -22.3)" gradientUnits="userSpaceOnUse" id="gradient0" spreadMethod="pad" x1="-819.2" x2="819.2">
      <stop offset="0.0" stop-color="#64663e"/>
      <stop offset="1.0" stop-color="#393124"/>
    </linearGradient>
    <linearGradient gradientTransform="matrix(0.0506, 0.0, 0.0, 0.0203, -18.55, -0.65)" gradientUnits="userSpaceOnUse" id="gradient1" spreadMethod="pad" x1="-819.2" x2="819.2">
      <stop offset="0.0" stop-color="#64933e"/>
      <stop offset="1.0" stop-color="#393124"/>
    </linearGradient>
    <linearGradient gradientTransform="matrix(0.0421, 0.0, 0.0, 0.0134, -22.05, -19.15)" gradientUnits="userSpaceOnUse" id="gradient2" spreadMethod="pad" x1="-819.2" x2="819.2">
      <stop offset="0.0" stop-color="#64933e"/>
      <stop offset="1.0" stop-color="#393124"/>
    </linearGradient>
    <linearGradient gradientTransform="matrix(0.039, 0.0, 0.0, 0.0303, -7.0, 17.0)" gradientUnits="userSpaceOnUse" id="gradient3" spreadMethod="pad" x1="-819.2" x2="819.2">
      <stop offset="0.0" stop-color="#64933e"/>
      <stop offset="1.0" stop-color="#393124"/>
    </linearGradient>
    <linearGradient gradientTransform="matrix(0.0388, 0.0, 0.0, 0.0405, 37.75, -22.3)" gradientUnits="userSpaceOnUse" id="gradient4" spreadMethod="pad" x1="-819.2" x2="819.2">
      <stop offset="0.0" stop-color="#78844b"/>
      <stop offset="1.0" stop-color="#2f271e"/>
    </linearGradient>
    <linearGradient gradientTransform="matrix(0.0421, 0.0, 0.0, 0.0134, -22.05, -19.15)" gradientUnits="userSpaceOnUse" id="gradient5" spreadMethod="pad" x1="-819.2" x2="819.2">
      <stop offset="0.0" stop-color="#75ba3e"/>
      <stop offset="1.0" stop-color="#393124"/>
    </linearGradient>
    <linearGradient gradientTransform="matrix(0.039, 0.0, 0.0, 0.0303, -7.0, 17.0)" gradientUnits="userSpaceOnUse" id="gradient6" spreadMethod="pad" x1="-819.2" x2="819.2">
      <stop offset="0.0" stop-color="#75ba3e"/>
      <stop offset="1.0" stop-color="#393124"/>
    </linearGradient>
    <linearGradient gradientTransform="matrix(0.0506, 0.0, 0.0, 0.0203, -18.55, -0.65)" gradientUnits="userSpaceOnUse" id="gradient7" spreadMethod="pad" x1="-819.2" x2="819.2">
      <stop offset="0.0" stop-color="#75d13e"/>
      <stop offset="1.0" stop-color="#393124"/>
    </linearGradient>
    <linearGradient gradientTransform="matrix(0.0421, 0.0, 0.0, 0.0134, -22.05, -19.15)" gradientUnits="userSpaceOnUse" id="gradient8" spreadMethod="pad" x1="-819.2" x2="819.2">
      <stop offset="0.0" stop-color="#75d13e"/>
      <stop offset="1.0" stop-color="#393124"/>
    </linearGradient>
    <linearGradient gradientTransform="matrix(0.039, 0.0, 0.0, 0.0303, -7.0, 17.0)" gradientUnits="userSpaceOnUse" id="gradient9" spreadMethod="pad" x1="-819.2" x2="819.2">
      <stop offset="0.0" stop-color="#75d13e"/>
      <stop offset="1.0" stop-color="#393124"/>
    </linearGradient>
  </defs>
</svg>
