<?xml version="1.0" encoding="UTF-8" standalone="no"?>
<svg xmlns:xlink="http://www.w3.org/1999/xlink" height="70.2px" width="118.95px" xmlns="http://www.w3.org/2000/svg">
  <g transform="matrix(1.0, 0.0, 0.0, 1.0, 0.0, 0.0)">
    <path d="M-22.2 24.65 L-17.25 13.15 Q-26.35 11.7 -34.9 13.9 -39.0 14.95 -42.1 17.85 L-41.75 14.35 Q-40.6 3.45 -32.7 -4.4 L-39.5 -1.2 Q-32.35 -19.4 -14.7 -25.25 -6.15 -17.75 5.05 -19.35 L11.05 -20.3 11.55 -20.85 18.7 -19.3 22.25 -24.6 31.65 -29.6 Q39.2 -33.65 41.25 -42.45 41.75 -44.5 43.75 -45.35 L55.4 -43.2 Q59.75 -42.6 63.85 -41.25 64.85 -40.95 65.55 -40.1 65.8 -34.8 70.0 -31.75 L70.8 -31.0 71.5 -30.15 72.7 -28.35 73.2 -28.55 Q74.9 -27.6 75.9 -26.0 76.8 -24.65 76.85 -23.0 76.95 -21.65 76.35 -20.45 L74.45 -24.1 73.9 -22.4 Q73.15 -19.8 74.0 -17.2 74.4 -15.95 75.25 -14.95 L69.65 -15.7 Q70.3 -13.55 72.5 -12.05 73.55 -11.3 74.05 -9.95 74.55 -8.5 74.45 -6.95 L66.8 -8.2 Q71.25 -7.05 73.2 -2.85 74.6 -0.05 73.9 2.9 L67.25 -1.4 66.2 -0.6 70.0 3.85 57.75 1.1 56.65 3.25 55.25 2.8 Q50.05 1.15 44.6 2.1 36.1 3.65 33.5 11.25 L32.9 12.95 31.75 13.2 Q19.65 16.05 7.65 15.2 -7.75 15.15 -21.7 24.85 L-22.2 24.65 M-32.7 -4.4 Q-27.95 -10.2 -21.7 -14.25 -20.0 -15.3 -18.35 -14.6 3.1 -5.25 22.05 -16.3 20.65 -16.3 19.7 -17.2 18.7 -18.05 18.7 -19.3 18.7 -18.05 19.7 -17.2 20.65 -16.3 22.05 -16.3 L23.15 -16.0 25.2 -13.35 34.8 -13.05 41.0 -12.85 46.45 0.05 48.95 -0.55 50.1 -0.75 51.2 -0.65 Q55.95 -0.2 58.8 -3.9 58.4 -6.45 59.1 -8.5 62.45 -18.7 71.2 -25.3 72.7 -26.45 72.7 -28.35 72.7 -26.45 71.2 -25.3 62.45 -18.7 59.1 -8.5 58.4 -6.45 58.8 -3.9 55.95 -0.2 51.2 -0.65 L50.1 -0.75 48.95 -0.55 46.45 0.05 41.0 -12.85 34.8 -13.05 25.2 -13.35 23.15 -16.0 22.05 -16.3 Q3.1 -5.25 -18.35 -14.6 -20.0 -15.3 -21.7 -14.25 -27.95 -10.2 -32.7 -4.4 M30.7 -23.1 L28.55 -23.0 Q25.0 -22.95 22.25 -24.6 25.0 -22.95 28.55 -23.0 L30.7 -23.1 M64.9 -35.55 Q61.65 -30.3 65.35 -26.25 54.85 -17.7 55.4 -6.6 54.75 -5.6 53.5 -5.35 50.65 -4.75 47.95 -6.25 50.9 -21.4 38.5 -20.35 L39.45 -20.95 38.5 -20.35 Q50.9 -21.4 47.95 -6.25 50.65 -4.75 53.5 -5.35 54.75 -5.6 55.4 -6.6 54.85 -17.7 65.35 -26.25 61.65 -30.3 64.9 -35.55 M34.8 -13.05 Q31.7 -11.9 28.6 -8.9 21.25 -1.8 11.5 -3.05 -10.1 -5.75 -17.25 13.15 -10.1 -5.75 11.5 -3.05 21.25 -1.8 28.6 -8.9 31.7 -11.9 34.8 -13.05" fill="#554433" fill-rule="evenodd" stroke="none"/>
    <path d="M-22.2 24.65 L-17.25 13.15 Q-26.35 11.7 -34.9 13.9 -39.0 14.95 -42.1 17.85 L-41.75 14.35 Q-40.6 3.45 -32.7 -4.4 L-39.5 -1.2 Q-32.35 -19.4 -14.7 -25.25 -6.15 -17.75 5.05 -19.35 L11.05 -20.3 11.55 -20.85 18.7 -19.3 22.25 -24.6 31.65 -29.6 Q39.2 -33.65 41.25 -42.45 41.75 -44.5 43.75 -45.35 L55.4 -43.2 Q59.75 -42.6 63.85 -41.25 64.85 -40.95 65.55 -40.1 65.8 -34.8 70.0 -31.75 L70.8 -31.0 71.5 -30.15 72.7 -28.35 Q72.7 -26.45 71.2 -25.3 62.45 -18.7 59.1 -8.5 58.4 -6.45 58.8 -3.9 55.95 -0.2 51.2 -0.65 L50.1 -0.75 48.95 -0.55 46.45 0.05 41.0 -12.85 34.8 -13.05 25.2 -13.35 23.15 -16.0 22.05 -16.3 Q3.1 -5.25 -18.35 -14.6 -20.0 -15.3 -21.7 -14.25 -27.95 -10.2 -32.7 -4.4 M73.2 -28.55 Q74.9 -27.6 75.9 -26.0 76.8 -24.65 76.85 -23.0 76.95 -21.65 76.35 -20.45 L74.45 -24.1 73.9 -22.4 Q73.15 -19.8 74.0 -17.2 74.4 -15.95 75.25 -14.95 L69.65 -15.7 Q70.3 -13.55 72.5 -12.05 73.55 -11.3 74.05 -9.95 74.55 -8.5 74.45 -6.95 L66.8 -8.2 Q71.25 -7.05 73.2 -2.85 74.6 -0.05 73.9 2.9 L67.25 -1.4 66.2 -0.6 70.0 3.85 57.75 1.1 56.65 3.25 55.25 2.8 Q50.05 1.15 44.6 2.1 36.1 3.65 33.5 11.25 L32.9 12.95 31.75 13.2 Q19.65 16.05 7.65 15.2 -7.75 15.15 -21.7 24.85 M18.7 -19.3 Q18.7 -18.05 19.7 -17.2 20.65 -16.3 22.05 -16.3 M-17.25 13.15 Q-10.1 -5.75 11.5 -3.05 21.25 -1.8 28.6 -8.9 31.7 -11.9 34.8 -13.05 M39.45 -20.95 L38.5 -20.35 Q50.9 -21.4 47.95 -6.25 50.65 -4.75 53.5 -5.35 54.75 -5.6 55.4 -6.6 54.85 -17.7 65.35 -26.25 61.65 -30.3 64.9 -35.55 M22.25 -24.6 Q25.0 -22.95 28.55 -23.0 L30.7 -23.1" fill="none" stroke="#000000" stroke-linecap="round" stroke-linejoin="round" stroke-width="0.05"/>
  </g>
</svg>
