<?xml version="1.0" encoding="UTF-8" standalone="no"?>
<svg xmlns:xlink="http://www.w3.org/1999/xlink" height="124.25px" width="72.85px" xmlns="http://www.w3.org/2000/svg">
  <g transform="matrix(1.0, 0.0, 0.0, 1.0, 0.0, 0.0)">
    <path d="M-5.35 -50.5 Q0.8 -49.8 5.75 -50.65 L12.4 -52.0 Q14.0 -46.5 14.85 -40.75 L15.8 -33.75 16.5 -33.1 20.25 -13.7 20.05 -13.3 20.25 -13.7 20.35 -13.2 20.05 -13.3 Q16.35 -7.0 17.0 -2.95 L17.5 -0.65 17.55 -0.45 17.6 -0.45 28.7 30.1 17.6 -0.45 17.55 -0.45 17.5 -0.65 17.6 -0.45 19.65 -0.45 23.3 -13.6 23.35 -13.6 25.6 -19.4 33.95 -18.5 33.95 -18.15 27.2 -13.55 Q31.8 0.5 33.2 18.35 L32.95 18.55 28.7 30.1 Q22.3 40.55 17.75 51.65 16.25 55.2 14.65 62.15 L3.7 61.65 -0.4 61.3 -1.55 61.15 -8.1 56.4 Q-15.7 52.8 -20.25 46.45 -22.2 33.15 -33.1 22.45 -33.9 17.25 -35.0 12.15 L-34.85 12.1 -19.0 18.95 -11.0 8.05 Q-22.6 -5.2 -27.05 -19.1 L-27.1 -19.1 Q-21.15 -17.2 -15.55 -19.25 L-15.45 -19.05 -15.2 -19.1 -5.35 0.25 -4.7 -0.65 Q3.3 -26.7 -5.35 -50.5 M9.5 -47.3 L0.0 -44.45 9.5 -47.3 M4.95 -43.2 Q6.6 -41.2 5.05 -38.8 4.4 -37.8 4.1 -36.55 L8.85 -33.35 8.85 -31.75 Q6.65 -31.15 5.45 -29.35 4.4 -27.8 5.35 -26.55 7.55 -23.85 9.1 -20.6 L7.15 -19.7 Q4.95 -18.45 4.4 -16.0 3.95 -14.2 4.85 -13.05 L6.75 -12.5 Q9.15 -11.35 9.1 -8.35 9.1 -7.3 8.4 -6.45 L3.6 -5.0 Q1.25 -4.2 3.05 -2.4 4.6 -0.85 5.3 1.25 6.35 4.4 4.55 7.15 0.0 7.55 -4.05 9.35 -17.4 15.1 -16.8 29.15 -15.95 47.8 1.65 48.5 L-0.4 61.3 1.65 48.5 Q-15.95 47.8 -16.8 29.15 -17.4 15.1 -4.05 9.35 0.0 7.55 4.55 7.15 6.35 4.4 5.3 1.25 4.6 -0.85 3.05 -2.4 1.25 -4.2 3.6 -5.0 L8.4 -6.45 Q9.1 -7.3 9.1 -8.35 9.15 -11.35 6.75 -12.5 L4.85 -13.05 Q3.95 -14.2 4.4 -16.0 4.95 -18.45 7.15 -19.7 L9.1 -20.6 Q7.55 -23.85 5.35 -26.55 4.4 -27.8 5.45 -29.35 6.65 -31.15 8.85 -31.75 L8.85 -33.35 4.1 -36.55 Q4.4 -37.8 5.05 -38.8 6.6 -41.2 4.95 -43.2 M1.65 48.5 L2.45 48.55 2.75 48.9 4.45 49.1 4.6 51.05 Q4.6 56.35 3.7 61.65 4.6 56.35 4.6 51.05 L4.45 49.1 2.75 48.9 2.45 48.55 1.65 48.5 M13.35 26.75 Q14.4 36.4 5.9 40.85 3.7 42.0 1.7 42.0 -0.35 41.9 -2.25 40.6 -7.2 37.25 -9.6 34.15 -17.45 24.05 0.85 16.55 L3.35 16.9 Q7.5 16.9 10.45 19.8 13.35 22.65 13.35 26.75 L5.8 27.7 5.7 26.65 5.5 25.75 4.7 24.35 Q4.05 23.35 2.7 23.0 L1.0 22.8 -6.55 29.2 5.8 27.7 -6.55 29.2 1.0 22.8 2.7 23.0 Q4.05 23.35 4.7 24.35 L5.5 25.75 5.7 26.65 5.8 27.7 13.35 26.75 Q13.35 22.65 10.45 19.8 7.5 16.9 3.35 16.9 L0.85 16.55 Q-17.45 24.05 -9.6 34.15 L9.1 30.85 -9.6 34.15 Q-7.2 37.25 -2.25 40.6 -0.35 41.9 1.7 42.0 L4.15 37.45 -0.3 36.85 -1.55 35.45 -0.8 33.35 -1.55 35.45 -0.3 36.85 4.15 37.45 1.7 42.0 Q3.7 42.0 5.9 40.85 14.4 36.4 13.35 26.75 M9.5 3.7 L9.2 10.2 5.85 10.75 Q-1.2 11.95 -7.4 15.2 -1.2 11.95 5.85 10.75 L9.2 10.2 9.5 3.7 M-29.5 2.45 L-29.65 2.15 -29.6 2.1 -29.5 2.45" fill="url(#gradient0)" fill-rule="evenodd" stroke="none"/>
    <path d="M-9.4 -55.85 Q-9.0 -52.15 -5.35 -50.5 3.3 -26.7 -4.7 -0.65 L-5.35 0.25 -15.2 -19.1 -10.1 -20.0 Q-7.8 -35.05 -10.0 -50.3 L-9.1 -51.5 Q-9.65 -54.0 -9.4 -55.85 M-27.1 -19.1 L-27.05 -19.1 Q-22.6 -5.2 -11.0 8.05 L-19.0 18.95 -34.85 12.1 -33.6 11.45 Q-29.6 9.2 -29.5 2.45 L-27.95 7.0 Q-23.4 -4.1 -29.4 -20.0 L-27.1 -19.1 M-33.1 22.45 Q-22.2 33.15 -20.25 46.45 -19.65 50.6 -19.75 55.0 -19.8 56.6 -19.3 58.2 -29.25 54.7 -31.9 45.5 L-31.95 44.6 -31.2 43.65 Q-31.55 32.85 -33.1 22.45 M17.5 -0.65 L17.0 -2.95 Q16.35 -7.0 20.05 -13.3 L20.35 -13.2 23.3 -13.6 19.65 -0.45 17.6 -0.45 17.5 -0.65 M33.95 -18.15 L33.6 18.35 34.55 19.55 36.4 38.2 17.5 62.15 14.65 62.15 Q16.25 55.2 17.75 51.65 22.3 40.55 28.7 30.1 L32.95 18.55 33.2 18.35 Q31.8 0.5 27.2 -13.55 L33.95 -18.15" fill="url(#gradient1)" fill-rule="evenodd" stroke="none"/>
    <path d="M12.4 -52.0 L5.75 -50.65 Q0.8 -49.8 -5.35 -50.5 -9.0 -52.15 -9.4 -55.85 -8.5 -63.0 3.3 -62.0 6.5 -61.85 9.4 -60.55 11.1 -56.35 12.4 -52.0 M-15.55 -19.25 Q-21.15 -17.2 -27.1 -19.1 L-29.4 -20.0 -30.05 -21.65 -20.15 -26.1 -15.55 -19.25 M-34.85 12.1 L-35.0 12.15 -36.45 5.95 -29.65 2.15 -29.5 2.45 Q-29.6 9.2 -33.6 11.45 L-34.85 12.1 M-20.25 46.45 Q-15.7 52.8 -8.1 56.4 L-1.55 61.15 Q-10.6 60.15 -19.3 58.2 -19.8 56.6 -19.75 55.0 -19.65 50.6 -20.25 46.45" fill="url(#gradient2)" fill-rule="evenodd" stroke="none"/>
    <path d="M-5.35 -50.5 Q0.8 -49.8 5.75 -50.65 L12.4 -52.0 Q11.1 -56.35 9.4 -60.55 6.5 -61.85 3.3 -62.0 -8.5 -63.0 -9.4 -55.85 -9.0 -52.15 -5.35 -50.5 3.3 -26.7 -4.7 -0.65 L-5.35 0.25 -15.2 -19.1 -15.45 -19.05 -15.55 -19.25 Q-21.15 -17.2 -27.1 -19.1 L-27.05 -19.1 Q-22.6 -5.2 -11.0 8.05 L-19.0 18.95 -34.85 12.1 -33.6 11.45 Q-29.6 9.2 -29.5 2.45 L-27.95 7.0 Q-23.4 -4.1 -29.4 -20.0 L-30.05 -21.65 -20.15 -26.1 -15.55 -19.25 M-35.0 12.15 Q-33.9 17.25 -33.1 22.45 -22.2 33.15 -20.25 46.45 -15.7 52.8 -8.1 56.4 L-1.55 61.15 -0.4 61.3 3.7 61.65 14.65 62.15 Q16.25 55.2 17.75 51.65 22.3 40.55 28.7 30.1 L17.6 -0.45 17.55 -0.45 17.5 -0.65 17.0 -2.95 Q16.35 -7.0 20.05 -13.3 L20.25 -13.7 20.35 -13.2 23.3 -13.6 23.35 -13.6 25.6 -19.4 33.95 -18.5 33.95 -18.15 33.6 18.35 34.55 19.55 36.4 38.2 17.5 62.15 14.65 62.15 M20.25 -13.7 L16.5 -33.1 15.8 -33.75 14.85 -40.75 Q14.0 -46.5 12.4 -52.0 M17.5 -0.65 L17.6 -0.45 19.65 -0.45 23.3 -13.6 M33.2 18.35 Q31.8 0.5 27.2 -13.55 L33.95 -18.15 M28.7 30.1 L32.95 18.55 M-15.2 -19.1 L-10.1 -20.0 Q-7.8 -35.05 -10.0 -50.3 L-9.1 -51.5 Q-9.65 -54.0 -9.4 -55.85 M-27.1 -19.1 L-29.4 -20.0 M-29.65 2.15 L-36.45 5.95 -35.0 12.15 M-29.65 2.15 L-29.6 2.1 -29.5 2.45 M-19.3 58.2 Q-29.25 54.7 -31.9 45.5 L-31.95 44.6 -31.2 43.65 Q-31.55 32.85 -33.1 22.45 M-1.55 61.15 Q-10.6 60.15 -19.3 58.2 -19.8 56.6 -19.75 55.0 -19.65 50.6 -20.25 46.45" fill="none" stroke="#000000" stroke-linecap="round" stroke-linejoin="round" stroke-width="0.05"/>
    <path d="M-0.4 61.3 L1.65 48.5 Q-15.95 47.8 -16.8 29.15 -17.4 15.1 -4.05 9.35 0.0 7.55 4.55 7.15 6.35 4.4 5.3 1.25 4.6 -0.85 3.05 -2.4 1.25 -4.2 3.6 -5.0 L8.4 -6.45 Q9.1 -7.3 9.1 -8.35 9.15 -11.35 6.75 -12.5 L4.85 -13.05 Q3.95 -14.2 4.4 -16.0 4.95 -18.45 7.15 -19.7 L9.1 -20.6 Q7.55 -23.85 5.35 -26.55 4.4 -27.8 5.45 -29.35 6.65 -31.15 8.85 -31.75 L8.85 -33.35 4.1 -36.55 Q4.4 -37.8 5.05 -38.8 6.6 -41.2 4.95 -43.2 M0.0 -44.45 L9.5 -47.3 M-7.4 15.2 Q-1.2 11.95 5.85 10.75 L9.2 10.2 9.5 3.7 M5.8 27.7 L-6.55 29.2 1.0 22.8 2.7 23.0 Q4.05 23.35 4.7 24.35 L5.5 25.75 5.7 26.65 5.8 27.7 13.35 26.75 Q13.35 22.65 10.45 19.8 7.5 16.9 3.35 16.9 L0.85 16.55 Q-17.45 24.05 -9.6 34.15 L9.1 30.85 M-9.6 34.15 Q-7.2 37.25 -2.25 40.6 -0.35 41.9 1.7 42.0 L4.15 37.45 -0.3 36.85 -1.55 35.45 -0.8 33.35 M1.7 42.0 Q3.7 42.0 5.9 40.85 14.4 36.4 13.35 26.75 M3.7 61.65 Q4.6 56.35 4.6 51.05 L4.45 49.1 2.75 48.9 2.45 48.55 1.65 48.5" fill="none" stroke="#66ff00" stroke-linecap="round" stroke-linejoin="round" stroke-width="0.05"/>
    <path d="M22.25 -27.85 Q22.25 -30.35 23.3 -32.75 24.9 -36.5 28.85 -38.25 L28.4 -36.75 Q25.65 -30.65 24.75 -23.95 L24.3 -20.15 Q25.4 -21.9 26.85 -23.25 29.0 -25.3 30.1 -28.0 30.75 -26.85 30.45 -25.9 28.8 -21.15 25.55 -16.9 L31.35 -18.85 Q31.3 -17.2 30.05 -16.3 25.4 -12.95 23.5 -7.4 L22.85 -8.2 19.05 0.1 17.75 0.55 Q14.65 -9.8 16.65 -20.5 L17.4 -19.3 17.95 -17.95 18.15 -16.5 18.15 -13.6 Q20.6 -19.5 19.4 -25.95 18.65 -30.25 16.1 -33.75 L20.35 -31.1 21.15 -30.15 22.25 -27.85 M-3.6 -11.85 L-3.05 -10.75 Q0.8 -1.95 -1.6 7.4 -1.25 5.15 -2.0 2.95 L-2.55 1.55 -2.85 0.8 -3.4 5.85 Q-3.8 11.25 -7.8 15.2 L-6.05 5.1 -6.55 4.5 -8.6 10.25 Q-7.45 4.05 -9.35 -1.7 -10.05 -3.85 -8.9 -5.5 L-8.05 -4.85 -6.8 -5.05 -6.5 -5.45 -7.4 -9.05 -4.5 -6.6 -4.1 -12.0 -3.6 -11.85" fill="#396020" fill-rule="evenodd" stroke="none"/>
  </g>
  <defs>
    <linearGradient gradientTransform="matrix(0.0445, 0.0, 0.0, 0.0758, -0.05, 0.0)" gradientUnits="userSpaceOnUse" id="gradient0" spreadMethod="pad" x1="-819.2" x2="819.2">
      <stop offset="0.0" stop-color="#64663e"/>
      <stop offset="1.0" stop-color="#393124"/>
    </linearGradient>
    <linearGradient gradientTransform="matrix(-8.0E-4, 0.0444, -0.0758, -0.0014, 93.8, 28.4)" gradientUnits="userSpaceOnUse" id="gradient1" spreadMethod="pad" x1="-819.2" x2="819.2">
      <stop offset="0.0" stop-color="#49462e"/>
      <stop offset="1.0" stop-color="#1a1511"/>
    </linearGradient>
    <linearGradient gradientTransform="matrix(0.0445, 0.0, 0.0, 0.0758, -0.05, 0.0)" gradientUnits="userSpaceOnUse" id="gradient2" spreadMethod="pad" x1="-819.2" x2="819.2">
      <stop offset="0.0" stop-color="#839152"/>
      <stop offset="1.0" stop-color="#393124"/>
    </linearGradient>
  </defs>
</svg>
