<?xml version="1.0" encoding="UTF-8" standalone="no"?>
<svg xmlns:xlink="http://www.w3.org/1999/xlink" height="162.8px" width="221.55px" xmlns="http://www.w3.org/2000/svg">
  <g transform="matrix(1.0, 0.0, 0.0, 1.0, 0.0, 0.0)">
    <path d="M-120.55 60.6 Q-126.5 55.7 -127.9 46.9 L-129.25 43.0 Q-114.3 13.35 -105.1 11.15 L-104.9 10.85 Q-89.25 -10.6 -69.55 -29.15 L-68.8 -30.05 -67.15 -30.45 -67.6 -23.35 -66.4 -21.3 Q-53.7 -29.85 -43.9 -41.45 -42.1 -43.55 -41.3 -46.25 -33.6 -56.8 -26.2 -67.85 -8.5 -43.75 -2.3 -14.25 L-0.95 -14.85 0.65 -17.9 2.25 -15.7 8.35 -20.6 Q21.25 -7.6 23.2 10.7 L23.25 10.85 Q23.6 13.7 26.0 15.35 L29.55 12.5 31.3 17.3 Q35.35 27.8 40.8 37.9 L40.35 38.25 Q61.05 47.3 84.1 50.85 88.2 51.3 92.3 52.4 64.85 56.9 38.05 64.8 36.45 69.95 32.3 70.3 29.25 70.65 26.35 68.55 21.85 65.4 16.55 65.3 14.45 65.25 12.6 66.1 L11.65 64.05 11.45 63.7 10.55 60.5 -12.15 61.35 -15.45 61.3 -16.5 62.05 -28.8 62.4 Q-25.2 59.0 -25.5 53.95 L-25.65 52.7 -16.15 50.45 -14.75 46.2 -15.4 40.5 -9.95 40.1 Q-9.45 33.9 -6.5 28.4 L-4.7 25.35 -6.5 28.4 Q-9.45 33.9 -9.95 40.1 L-15.4 40.5 -14.75 46.2 -16.15 50.45 -25.65 52.7 -25.5 53.95 Q-25.2 59.0 -28.8 62.4 L-40.35 62.25 -48.6 62.2 -51.75 67.55 -53.05 67.65 Q-59.9 67.6 -66.25 64.75 -70.25 68.05 -74.9 65.4 L-76.0 64.85 Q-89.7 64.4 -103.3 68.85 -111.25 63.4 -120.55 60.6 M-66.2 37.15 Q-60.4 49.75 -65.35 62.6 L-66.25 64.75 -65.35 62.6 Q-60.4 49.75 -66.2 37.15 L-66.9 35.85 -66.4 37.2 -66.2 37.15 M-67.0 35.7 L-66.9 35.85 -66.95 35.7 -67.0 35.7 Q-62.95 26.4 -63.4 17.0 L-66.3 16.85 Q-69.3 20.25 -73.75 19.8 -72.85 14.95 -73.8 10.85 -74.7 6.8 -77.45 3.4 -88.35 4.25 -95.75 10.85 -98.65 13.4 -101.0 16.75 L-101.05 16.1 Q-101.35 11.85 -105.1 11.15 -101.35 11.85 -101.05 16.1 L-101.0 16.75 Q-98.65 13.4 -95.75 10.85 -88.35 4.25 -77.45 3.4 -74.7 6.8 -73.8 10.85 -72.85 14.95 -73.75 19.8 -69.3 20.25 -66.3 16.85 L-63.4 17.0 Q-62.95 26.4 -67.0 35.7 M23.1 22.3 Q23.1 20.35 25.15 19.0 27.05 17.7 31.3 17.3 27.05 17.7 25.15 19.0 23.1 20.35 23.1 22.3 L20.9 20.1 Q16.5 15.65 12.95 10.85 10.45 7.55 8.35 4.1 L6.25 8.3 3.55 5.6 -0.75 7.55 Q-2.15 6.05 -2.45 4.3 -5.15 -13.4 -14.55 -28.45 L-15.35 -27.1 Q-27.5 -6.7 -44.1 9.25 L-48.6 2.55 Q-51.9 7.35 -56.65 10.55 L-57.0 10.85 -59.4 12.5 -57.0 10.85 -56.65 10.55 Q-51.9 7.35 -48.6 2.55 L-44.1 9.25 Q-27.5 -6.7 -15.35 -27.1 L-14.55 -28.45 Q-5.15 -13.4 -2.45 4.3 -2.15 6.05 -0.75 7.55 L3.55 5.6 6.25 8.3 8.35 4.1 Q10.45 7.55 12.95 10.85 16.5 15.65 20.9 20.1 L23.1 22.3 22.75 22.95 23.05 23.05 23.1 22.3 M-4.65 25.25 Q-1.95 21.8 2.3 22.25 L3.4 22.4 4.15 23.5 Q7.8 24.15 10.75 21.95 L12.7 23.65 15.8 22.05 Q17.35 23.6 19.5 24.15 L21.9 24.1 22.75 22.95 21.9 24.1 19.5 24.15 Q17.35 23.6 15.8 22.05 L12.7 23.65 10.75 21.95 Q7.8 24.15 4.15 23.5 L3.4 22.4 2.3 22.25 Q-1.95 21.8 -4.65 25.25 L-4.7 25.2 -6.45 21.7 -7.7 22.7 -8.15 21.95 Q-10.7 16.7 -10.85 10.85 L-10.85 10.5 -10.85 10.85 Q-10.7 16.7 -8.15 21.95 L-7.7 22.7 -6.45 21.7 -4.7 25.2 -4.7 25.35 -4.65 25.25 M-9.85 42.75 L-9.35 43.9 Q-5.45 53.3 -12.15 61.35 -5.45 53.3 -9.35 43.9 L-9.85 42.75 M15.4 32.3 L-1.55 34.2 Q-0.55 36.95 -0.7 39.55 -1.15 47.45 0.1 55.1 L4.8 55.3 9.15 55.5 10.55 60.5 9.15 55.5 4.8 55.3 0.1 55.1 Q-1.15 47.45 -0.7 39.55 -0.55 36.95 -1.55 34.2 L15.4 32.3 M4.8 43.55 L4.8 55.3 4.8 43.55 M-11.2 10.5 L-10.85 10.5 -10.85 9.6 -11.2 10.5 -11.45 10.85 -11.75 11.05 Q-18.95 15.85 -24.05 23.1 -18.95 15.85 -11.75 11.05 L-11.45 10.85 -11.2 10.5 M-35.4 41.4 L-38.0 41.15 -38.45 44.9 Q-27.0 47.65 -31.95 36.75 -33.7 32.95 -37.5 34.1 -50.6 38.3 -39.9 53.0 L-36.3 53.35 -36.25 54.55 Q-36.15 59.55 -40.35 62.25 -36.15 59.55 -36.25 54.55 L-36.3 53.35 -39.9 53.0 Q-50.6 38.3 -37.5 34.1 -33.7 32.95 -31.95 36.75 -27.0 47.65 -38.45 44.9 L-38.0 41.15 -35.4 41.4 M-15.4 40.5 L-16.4 37.5 -23.75 35.95 -24.35 30.8 Q-24.7 27.8 -26.4 26.25 -37.6 15.55 -56.25 21.25 -56.85 24.5 -55.5 27.4 -53.7 31.2 -55.15 35.1 L-56.7 35.55 -66.95 35.7 -56.7 35.55 -55.15 35.1 Q-53.7 31.2 -55.5 27.4 -56.85 24.5 -56.25 21.25 -37.6 15.55 -26.4 26.25 -24.7 27.8 -24.35 30.8 L-23.75 35.95 -16.4 37.5 -15.4 40.5 M-74.9 39.3 L-73.5 41.8 Q-66.9 54.1 -74.15 64.7 -66.9 54.1 -73.5 41.8 L-74.9 39.3 M-25.7 52.7 L-25.65 52.7 -25.8 52.05 -25.7 52.7 -36.3 53.35 -25.7 52.7 M-122.15 40.7 L-119.65 38.65 Q-109.25 30.2 -101.0 19.6 -109.25 30.2 -119.65 38.65 L-122.15 40.7 M-101.7 45.65 Q-100.2 44.9 -98.7 44.3 -84.15 37.4 -76.3 23.8 -84.15 37.4 -98.7 44.3 -100.2 44.9 -101.7 45.65" fill="#554433" fill-rule="evenodd" stroke="none"/>
    <path d="M12.6 66.1 L9.8 66.1 11.9 73.15 1.2 68.3 Q3.5 69.6 5.15 71.55 9.1 76.05 7.65 81.6 L-4.35 74.55 -2.05 83.15 -2.6 84.3 Q-5.7 81.0 -9.45 78.35 -13.45 75.45 -17.75 73.15 -16.65 74.8 -16.35 76.8 -15.65 81.4 -16.55 86.0 -16.7 86.95 -17.55 87.65 -18.8 87.3 -19.8 85.4 -23.15 79.0 -30.45 77.35 -28.45 79.3 -27.45 81.8 -25.8 86.1 -27.75 90.4 L-29.9 88.4 Q-34.7 83.1 -41.7 80.85 L-35.4 94.3 Q-43.8 95.05 -50.25 89.75 -52.5 87.85 -55.15 86.55 L-50.2 92.85 Q-55.1 95.85 -59.9 92.9 -65.25 89.7 -68.55 84.45 L-67.7 86.5 Q-66.9 88.5 -67.1 90.55 -67.3 92.95 -68.55 94.95 -69.7 92.1 -71.35 89.7 -74.3 85.45 -78.4 82.3 L-75.1 90.85 Q-79.4 89.35 -83.05 86.5 -90.15 80.95 -98.25 79.85 L-97.45 82.3 Q-111.75 76.65 -119.3 63.2 -119.9 62.1 -120.75 61.15 L-120.55 60.6 Q-111.25 63.4 -103.3 68.85 -89.7 64.4 -76.0 64.85 L-74.9 65.4 Q-70.25 68.05 -66.25 64.75 -59.9 67.6 -53.05 67.65 L-51.75 67.55 -48.6 62.2 -40.35 62.25 -28.8 62.4 -16.5 62.05 -15.45 61.3 -12.15 61.35 10.55 60.5 11.45 63.7 11.65 64.05 12.6 66.1" fill="#4f4f31" fill-rule="evenodd" stroke="none"/>
    <path d="M-120.55 60.6 Q-126.5 55.7 -127.9 46.9 L-129.25 43.0 Q-114.3 13.35 -105.1 11.15 L-104.9 10.85 Q-89.25 -10.6 -69.55 -29.15 L-68.8 -30.05 -67.15 -30.45 -67.6 -23.35 -66.4 -21.3 Q-53.7 -29.85 -43.9 -41.45 -42.1 -43.55 -41.3 -46.25 -33.6 -56.8 -26.2 -67.85 -8.5 -43.75 -2.3 -14.25 L-0.95 -14.85 0.65 -17.9 2.25 -15.7 8.35 -20.6 Q21.25 -7.6 23.2 10.7 L23.25 10.85 Q23.6 13.7 26.0 15.35 L29.55 12.5 31.3 17.3 Q35.35 27.8 40.8 37.9 M40.35 38.25 Q61.05 47.3 84.1 50.85 88.2 51.3 92.3 52.4 64.85 56.9 38.05 64.8 36.45 69.95 32.3 70.3 29.25 70.65 26.35 68.55 21.85 65.4 16.55 65.3 14.45 65.25 12.6 66.1 L9.8 66.1 11.9 73.15 1.2 68.3 Q3.5 69.6 5.15 71.55 9.1 76.05 7.65 81.6 L-4.35 74.55 -2.05 83.15 -2.6 84.3 Q-5.7 81.0 -9.45 78.35 -13.45 75.45 -17.75 73.15 -16.65 74.8 -16.35 76.8 -15.65 81.4 -16.55 86.0 -16.7 86.95 -17.55 87.65 -18.8 87.3 -19.8 85.4 -23.15 79.0 -30.45 77.35 -28.45 79.3 -27.45 81.8 -25.8 86.1 -27.75 90.4 L-29.9 88.4 Q-34.7 83.1 -41.7 80.85 L-35.4 94.3 Q-43.8 95.05 -50.25 89.75 -52.5 87.85 -55.15 86.55 L-50.2 92.85 Q-55.1 95.85 -59.9 92.9 -65.25 89.7 -68.55 84.45 L-67.7 86.5 Q-66.9 88.5 -67.1 90.55 -67.3 92.95 -68.55 94.95 -69.7 92.1 -71.35 89.7 -74.3 85.45 -78.4 82.3 L-75.1 90.85 Q-79.4 89.35 -83.05 86.5 -90.15 80.95 -98.25 79.85 L-97.45 82.3 Q-111.75 76.65 -119.3 63.2 -119.9 62.1 -120.75 61.15 M-120.55 60.6 Q-111.25 63.4 -103.3 68.85 -89.7 64.4 -76.0 64.85 L-74.9 65.4 Q-70.25 68.05 -66.25 64.75 L-65.35 62.6 Q-60.4 49.75 -66.2 37.15 L-66.9 35.85 -67.0 35.7 Q-62.95 26.4 -63.4 17.0 L-66.3 16.85 Q-69.3 20.25 -73.75 19.8 -72.85 14.95 -73.8 10.85 -74.7 6.8 -77.45 3.4 -88.35 4.25 -95.75 10.85 -98.65 13.4 -101.0 16.75 L-101.05 16.1 Q-101.35 11.85 -105.1 11.15 M-66.4 37.2 L-66.9 35.85 M23.1 22.3 L20.9 20.1 Q16.5 15.65 12.95 10.85 10.45 7.55 8.35 4.1 L6.25 8.3 3.55 5.6 -0.75 7.55 Q-2.15 6.05 -2.45 4.3 -5.15 -13.4 -14.55 -28.45 L-15.35 -27.1 Q-27.5 -6.7 -44.1 9.25 L-48.6 2.55 Q-51.9 7.35 -56.65 10.55 L-57.0 10.85 -59.4 12.5 M31.3 17.3 Q27.05 17.7 25.15 19.0 23.1 20.35 23.1 22.3 L23.05 23.05 M22.75 22.95 L21.9 24.1 19.5 24.15 Q17.35 23.6 15.8 22.05 L12.7 23.65 10.75 21.95 Q7.8 24.15 4.15 23.5 L3.4 22.4 2.3 22.25 Q-1.95 21.8 -4.65 25.25 L-4.7 25.35 -6.5 28.4 Q-9.45 33.9 -9.95 40.1 L-15.4 40.5 -14.75 46.2 -16.15 50.45 -25.65 52.7 -25.5 53.95 Q-25.2 59.0 -28.8 62.4 L-16.5 62.05 -15.45 61.3 -12.15 61.35 Q-5.45 53.3 -9.35 43.9 L-9.85 42.75 M23.1 22.3 L22.75 22.95 M10.55 60.5 L9.15 55.5 4.8 55.3 0.1 55.1 Q-1.15 47.45 -0.7 39.55 -0.55 36.95 -1.55 34.2 L15.4 32.3 M12.6 66.1 L11.65 64.05 11.45 63.7 10.55 60.5 -12.15 61.35 M4.8 55.3 L4.8 43.55 M-11.2 10.5 L-11.45 10.85 -11.75 11.05 Q-18.95 15.85 -24.05 23.1 M-11.2 10.5 L-10.85 9.6 -10.85 10.5 -10.85 10.85 Q-10.7 16.7 -8.15 21.95 L-7.7 22.7 -6.45 21.7 -4.7 25.2 -4.7 25.35 M-66.95 35.7 L-56.7 35.55 -55.15 35.1 Q-53.7 31.2 -55.5 27.4 -56.85 24.5 -56.25 21.25 -37.6 15.55 -26.4 26.25 -24.7 27.8 -24.35 30.8 L-23.75 35.95 -16.4 37.5 -15.4 40.5 M-40.35 62.25 Q-36.15 59.55 -36.25 54.55 L-36.3 53.35 -39.9 53.0 Q-50.6 38.3 -37.5 34.1 -33.7 32.95 -31.95 36.75 -27.0 47.65 -38.45 44.9 L-38.0 41.15 -35.4 41.4 M-66.95 35.7 L-67.0 35.7 M-74.15 64.7 Q-66.9 54.1 -73.5 41.8 L-74.9 39.3 M-66.25 64.75 Q-59.9 67.6 -53.05 67.65 L-51.75 67.55 -48.6 62.2 -40.35 62.25 -28.8 62.4 M-25.65 52.7 L-25.7 52.7 -36.3 53.35 M-25.65 52.7 L-25.8 52.05 M-76.3 23.8 Q-84.15 37.4 -98.7 44.3 -100.2 44.9 -101.7 45.65 M-101.0 19.6 Q-109.25 30.2 -119.65 38.65 L-122.15 40.7" fill="none" stroke="#000000" stroke-linecap="round" stroke-linejoin="round" stroke-width="0.05"/>
  </g>
</svg>
