<?xml version="1.0" encoding="UTF-8" standalone="no"?>
<svg xmlns:xlink="http://www.w3.org/1999/xlink" height="70.25px" width="118.55px" xmlns="http://www.w3.org/2000/svg">
  <g transform="matrix(1.0, 0.0, 0.0, 1.0, 0.0, 0.0)">
    <path d="M7.7 -0.25 L5.7 -1.5 8.3 -1.95 Q17.1 -3.75 24.6 -8.4 L25.5 -5.8 Q25.85 -5.0 25.15 -4.5 17.35 0.95 7.7 -0.25" fill="#66ff00" fill-rule="evenodd" stroke="none"/>
    <path d="M41.1 -12.55 L41.3 -12.5 Q44.9 -9.4 47.85 -3.2 50.8 2.95 46.1 -1.05 47.7 1.7 48.1 4.8 L48.15 5.15 47.95 5.45 47.35 5.5 Q44.7 5.25 43.9 2.5 45.1 7.25 44.2 11.95 43.8 13.9 41.9 13.25 38.95 12.4 37.25 9.75 36.65 13.7 36.45 17.6 36.35 20.8 33.85 21.7 L32.3 13.15 Q32.15 16.25 30.8 19.1 26.15 29.25 15.9 31.25 L18.45 25.3 Q9.6 34.5 -3.35 35.2 2.15 28.7 4.55 20.5 3.8 22.35 2.4 23.55 -5.65 30.9 -15.75 29.55 -12.6 27.95 -10.7 25.1 -8.7 22.15 -7.25 18.9 L-7.25 17.1 Q-8.4 20.35 -11.4 21.9 -15.55 24.2 -19.15 22.8 L-18.55 22.3 Q-12.5 15.75 -11.8 6.35 L-2.75 4.05 Q-2.35 7.05 -3.55 9.9 L-3.8 10.4 Q0.0 12.8 3.5 7.45 2.8 9.85 4.0 12.25 L4.55 13.15 Q6.95 11.85 8.2 9.4 L8.55 8.65 Q8.85 15.8 14.3 11.85 15.1 11.3 15.3 10.35 17.6 16.7 21.55 12.95 22.0 12.6 22.1 12.05 L23.2 12.4 24.2 12.6 24.7 12.5 25.45 11.05 Q25.7 10.05 24.95 9.2 L28.85 8.55 28.35 4.7 Q31.5 6.8 34.95 5.75 34.8 3.4 32.3 1.85 35.05 0.9 37.95 1.3 L35.8 -2.1 35.9 -2.5 Q36.9 -3.55 38.15 -4.05 L39.1 -4.35 36.1 -7.0 Q38.95 -7.7 40.2 -10.3 L41.1 -12.55 M19.85 21.1 L19.6 22.7 18.45 25.3 19.6 22.7 19.85 21.1 M43.65 1.6 L43.8 2.1 43.9 2.5 43.8 2.1 43.65 1.6" fill="#396020" fill-rule="evenodd" stroke="none"/>
    <path d="M41.55 -14.75 L41.1 -12.55 40.2 -10.3 Q38.95 -7.7 36.1 -7.0 34.5 -6.2 32.7 -6.05 L31.7 -6.15 32.7 -6.05 Q34.5 -6.2 36.1 -7.0 L39.1 -4.35 38.15 -4.05 Q36.9 -3.55 35.9 -2.5 L35.8 -2.1 37.95 1.3 Q35.05 0.9 32.3 1.85 34.8 3.4 34.95 5.75 31.5 6.8 28.35 4.7 L28.85 8.55 24.95 9.2 Q25.7 10.05 25.45 11.05 L24.7 12.5 24.2 12.6 23.2 12.4 22.1 12.05 Q22.0 12.6 21.55 12.95 17.6 16.7 15.3 10.35 15.1 11.3 14.3 11.85 8.85 15.8 8.55 8.65 L8.2 9.4 Q6.95 11.85 4.55 13.15 L4.0 12.25 Q2.8 9.85 3.5 7.45 0.0 12.8 -3.8 10.4 L-3.55 9.9 Q-2.35 7.05 -2.75 4.05 1.45 -1.75 -2.9 -5.05 -4.15 -6.0 -6.05 -6.75 L-6.15 -6.8 Q-8.5 -7.6 -11.0 -7.75 L-12.4 -6.6 -16.9 -6.85 -15.85 -9.4 -15.65 -9.9 -15.35 -10.7 -15.25 -10.85 -15.2 -11.0 -14.95 -11.7 -14.55 -12.7 -14.1 -13.85 -13.35 -14.15 -12.75 -15.0 -12.15 -15.0 Q-11.05 -17.3 -8.45 -18.1 L-8.2 -18.5 Q-3.45 -20.75 0.0 -24.85 L0.65 -25.05 Q2.9 -28.9 6.3 -31.7 7.75 -32.85 9.35 -33.7 L12.15 -35.0 Q15.0 -34.5 17.5 -32.0 L17.8 -30.6 14.25 -29.55 Q12.95 -31.15 11.25 -30.9 5.55 -30.2 5.05 -24.05 3.1 -21.95 0.5 -20.9 -7.15 -17.75 -3.35 -12.1 L-1.8 -11.9 Q-0.8 -10.4 0.65 -9.65 L2.95 -9.45 6.5 -9.2 Q13.9 -10.6 20.4 -13.95 L20.6 -14.4 21.2 -14.8 21.7 -14.8 22.1 -15.1 25.3 -16.45 25.5 -17.2 24.7 -18.9 34.2 -18.95 35.05 -18.85 Q36.3 -18.4 36.8 -17.2 37.7 -14.9 36.55 -12.65 L37.1 -12.25 41.55 -14.75 M24.6 -8.4 Q17.1 -3.75 8.3 -1.95 L5.7 -1.5 7.7 -0.25 Q10.7 5.05 17.7 2.9 18.85 2.5 18.8 3.85 L18.7 4.7 14.7 5.55 Q16.7 11.95 23.35 7.15 24.05 6.65 23.3 5.85 21.9 4.25 22.1 1.85 L22.7 2.3 24.5 2.2 Q29.2 1.35 31.5 -4.3 31.85 -5.25 31.7 -6.15 30.8 -6.7 30.7 -7.7 L30.25 -11.85 Q28.9 -12.5 28.1 -11.45 L26.9 -9.65 24.6 -8.4 M22.65 -14.0 L23.1 -14.3 Q24.05 -14.8 25.05 -16.1 L25.3 -16.45 25.05 -16.1 Q24.05 -14.8 23.1 -14.3 L22.65 -14.0 M36.55 -12.65 Q35.8 -11.35 34.15 -10.8 L33.55 -10.9 Q32.85 -11.6 33.1 -12.7 L33.25 -13.2 Q33.7 -14.4 34.2 -13.6 33.7 -14.4 33.25 -13.2 L33.1 -12.7 Q32.85 -11.6 33.55 -10.9 L34.15 -10.8 Q35.8 -11.35 36.55 -12.65 M-2.2 -6.6 L-1.35 -5.9 Q1.3 -1.7 5.7 -1.5 1.3 -1.7 -1.35 -5.9 L-2.2 -6.6" fill="url(#gradient0)" fill-rule="evenodd" stroke="none"/>
    <path d="M-11.8 6.35 L-18.15 7.75 -25.25 9.2 -32.05 10.7 -45.5 14.3 -49.55 15.35 -69.1 20.4 -61.55 15.55 -61.35 14.95 -51.1 10.35 -47.25 8.8 Q-39.65 6.0 -31.45 4.9 L-31.7 5.8 -31.85 7.5 -32.05 10.7 -31.85 7.5 -31.7 5.8 -31.45 4.9 -16.45 0.2 -7.75 -3.85 -7.55 -4.45 -7.0 -4.75 Q-5.8 -5.45 -6.15 -6.8 L-6.05 -6.75 Q-4.15 -6.0 -2.9 -5.05 1.45 -1.75 -2.75 4.05 L-11.8 6.35 M-11.95 -0.4 L-6.35 -2.15 -4.65 -0.85 Q-2.55 -1.45 -3.1 -3.65 L-3.25 -4.1 Q-3.7 -4.9 -4.9 -4.75 L-5.35 -4.1 -4.85 -3.4 -5.35 -4.1 -4.9 -4.75 Q-3.7 -4.9 -3.25 -4.1 L-3.1 -3.65 Q-2.55 -1.45 -4.65 -0.85 L-6.35 -2.15 -11.95 -0.4 M-18.15 7.75 Q-17.35 6.25 -17.85 4.75 L-18.0 4.45 -18.25 3.75 -16.25 2.15 -16.45 0.2 -16.25 2.15 -18.25 3.75 -18.0 4.45 -17.85 4.75 Q-17.35 6.25 -18.15 7.75 M-49.55 15.35 L-49.45 14.85 Q-50.7 13.1 -49.8 11.05 L-49.8 11.0 -49.8 10.4 -51.1 10.35 -49.8 10.4 -49.8 11.0 -49.8 11.05 Q-50.7 13.1 -49.45 14.85 L-49.55 15.35" fill="url(#gradient1)" fill-rule="evenodd" stroke="none"/>
    <path d="M7.7 -0.25 Q17.35 0.95 25.15 -4.5 25.85 -5.0 25.5 -5.8 L24.6 -8.4 26.9 -9.65 28.1 -11.45 Q28.9 -12.5 30.25 -11.85 L30.7 -7.7 Q30.8 -6.7 31.7 -6.15 31.85 -5.25 31.5 -4.3 29.2 1.35 24.5 2.2 L22.7 2.3 22.1 1.85 Q21.9 4.25 23.3 5.85 24.05 6.65 23.35 7.15 16.7 11.95 14.7 5.55 L18.7 4.7 18.8 3.85 Q18.85 2.5 17.7 2.9 10.7 5.05 7.7 -0.25" fill="#0f1605" fill-rule="evenodd" stroke="none"/>
    <path d="M17.8 -30.6 L22.2 -31.45 23.75 -31.15 Q27.8 -29.5 31.25 -27.25 L33.1 -25.95 34.8 -25.75 Q35.65 -25.7 36.8 -23.15 L30.15 -23.35 Q27.2 -23.65 24.5 -22.75 23.7 -22.55 23.1 -21.95 L20.6 -19.1 Q18.3 -16.4 15.25 -14.75 13.85 -13.95 12.3 -13.45 L9.1 -12.5 3.95 -11.55 -1.8 -11.9 -3.35 -12.1 Q-7.15 -17.75 0.5 -20.9 3.1 -21.95 5.05 -24.05 5.55 -30.2 11.25 -30.9 12.95 -31.15 14.25 -29.55 L17.8 -30.6 M10.25 -28.05 L14.25 -29.55 10.25 -28.05 M6.5 -16.75 L5.35 -17.45 Q4.65 -18.0 4.3 -18.7 3.0 -21.55 5.7 -23.25 11.0 -26.8 17.5 -25.5 19.3 -25.05 19.7 -23.45 19.3 -25.05 17.5 -25.5 11.0 -26.8 5.7 -23.25 L9.5 -21.95 Q10.35 -23.75 12.35 -23.75 14.55 -23.9 15.15 -21.7 15.5 -20.4 14.3 -19.9 L17.95 -18.15 Q20.55 -19.95 19.75 -23.35 L19.7 -23.45 19.75 -23.35 Q20.55 -19.95 17.95 -18.15 L14.3 -19.9 Q15.5 -20.4 15.15 -21.7 14.55 -23.9 12.35 -23.75 10.35 -23.75 9.5 -21.95 L5.7 -23.25 Q3.0 -21.55 4.3 -18.7 4.65 -18.0 5.35 -17.45 L6.5 -16.75 7.0 -17.1 9.05 -17.7 7.7 -19.3 9.95 -20.2 12.4 -18.4 9.95 -20.2 7.7 -19.3 9.05 -17.7 7.0 -17.1 6.5 -16.75 7.75 -16.0 Q12.35 -15.7 16.5 -17.4 L17.95 -18.15 16.5 -17.4 Q12.35 -15.7 7.75 -16.0 L6.5 -16.75 M7.0 -22.2 L9.95 -20.2 7.0 -22.2 M9.5 -21.95 L14.3 -19.9 9.5 -21.95" fill="url(#gradient2)" fill-rule="evenodd" stroke="none"/>
    <path d="M36.8 -23.15 Q40.05 -23.1 41.15 -19.8 42.05 -17.2 41.55 -14.75 L37.1 -12.25 36.55 -12.65 Q37.7 -14.9 36.8 -17.2 36.3 -18.4 35.05 -18.85 L34.2 -18.95 24.7 -18.9 25.5 -17.2 25.3 -16.45 22.1 -15.1 21.7 -14.8 21.2 -14.8 20.6 -14.4 20.4 -13.95 Q13.9 -10.6 6.5 -9.2 L2.95 -9.45 0.65 -9.65 Q-0.8 -10.4 -1.8 -11.9 L3.95 -11.55 9.1 -12.5 12.3 -13.45 Q13.85 -13.95 15.25 -14.75 18.3 -16.4 20.6 -19.1 L23.1 -21.95 Q23.7 -22.55 24.5 -22.75 27.2 -23.65 30.15 -23.35 L36.8 -23.15 M-14.1 -13.85 L-12.0 -18.45 Q-11.5 -19.45 -10.55 -19.85 -8.6 -20.8 -6.7 -21.8 -3.9 -23.3 -1.8 -25.65 L0.9 -29.05 3.05 -31.65 5.15 -33.35 Q8.4 -35.35 12.15 -35.0 L9.35 -33.7 Q7.75 -32.85 6.3 -31.7 2.9 -28.9 0.65 -25.05 L0.0 -24.85 Q-3.45 -20.75 -8.2 -18.5 L-8.45 -18.1 Q-11.05 -17.3 -12.15 -15.0 L-12.75 -15.0 -13.35 -14.15 -14.1 -13.85" fill="url(#gradient3)" fill-rule="evenodd" stroke="none"/>
    <path d="M-69.1 20.4 L-69.55 20.5 -69.5 20.3 Q-68.95 16.45 -58.95 11.25 L-54.0 8.85 -49.75 6.95 -35.1 0.7 -26.5 -3.1 Q-24.55 -4.05 -22.15 -5.0 L-16.9 -6.85 -12.4 -6.6 -11.0 -7.75 Q-8.5 -7.6 -6.15 -6.8 -5.8 -5.45 -7.0 -4.75 L-7.55 -4.45 -7.75 -3.85 -16.45 0.2 -16.55 -0.35 -18.4 -0.65 -22.15 -5.0 -18.4 -0.65 -16.55 -0.35 -16.45 0.2 -31.45 4.9 -30.85 3.75 -30.95 3.2 -31.7 2.5 -33.15 2.45 -34.0 2.65 -35.1 0.7 -34.0 2.65 -33.15 2.45 -31.7 2.5 -30.95 3.2 -30.85 3.75 -31.45 4.9 Q-39.65 6.0 -47.25 8.8 L-51.1 10.35 -52.6 10.25 -54.0 8.85 -52.6 10.25 -51.1 10.35 -61.35 14.95 -61.55 15.55 -69.1 20.4" fill="url(#gradient4)" fill-rule="evenodd" stroke="none"/>
    <path d="M17.8 -30.6 L22.2 -31.45 23.75 -31.15 Q27.8 -29.5 31.25 -27.25 L33.1 -25.95 34.8 -25.75 Q35.65 -25.7 36.8 -23.15 40.05 -23.1 41.15 -19.8 42.05 -17.2 41.55 -14.75 L41.1 -12.55 40.2 -10.3 Q38.95 -7.7 36.1 -7.0 34.5 -6.2 32.7 -6.05 L31.7 -6.15 Q30.8 -6.7 30.7 -7.7 L30.25 -11.85 Q28.9 -12.5 28.1 -11.45 L26.9 -9.65 24.6 -8.4 Q17.1 -3.75 8.3 -1.95 L5.7 -1.5 7.7 -0.25 Q17.35 0.95 25.15 -4.5 25.85 -5.0 25.5 -5.8 L24.6 -8.4 M41.3 -12.5 Q44.9 -9.4 47.85 -3.2 50.8 2.95 46.1 -1.05 47.7 1.7 48.1 4.8 L48.15 5.15 47.95 5.45 47.35 5.5 Q44.7 5.25 43.9 2.5 45.1 7.25 44.2 11.95 43.8 13.9 41.9 13.25 38.95 12.4 37.25 9.75 36.65 13.7 36.45 17.6 36.35 20.8 33.85 21.7 L32.3 13.15 Q32.15 16.25 30.8 19.1 26.15 29.25 15.9 31.25 L18.45 25.3 Q9.6 34.5 -3.35 35.2 2.15 28.7 4.55 20.5 3.8 22.35 2.4 23.55 -5.65 30.9 -15.75 29.55 -12.6 27.95 -10.7 25.1 -8.7 22.15 -7.25 18.9 L-7.25 17.1 Q-8.4 20.35 -11.4 21.9 -15.55 24.2 -19.15 22.8 L-18.55 22.3 Q-12.5 15.75 -11.8 6.35 L-18.15 7.75 -25.25 9.2 -32.05 10.7 -45.5 14.3 -49.55 15.35 -69.1 20.4 -69.55 20.5 -69.5 20.3 Q-68.95 16.45 -58.95 11.25 L-54.0 8.85 -49.75 6.95 -35.1 0.7 -26.5 -3.1 Q-24.55 -4.05 -22.15 -5.0 L-16.9 -6.85 -15.85 -9.4 -15.65 -9.9 -15.35 -10.7 -15.25 -10.85 -15.2 -11.0 -14.95 -11.7 -14.55 -12.7 -14.1 -13.85 -12.0 -18.45 Q-11.5 -19.45 -10.55 -19.85 -8.6 -20.8 -6.7 -21.8 -3.9 -23.3 -1.8 -25.65 L0.9 -29.05 3.05 -31.65 5.15 -33.35 Q8.4 -35.35 12.15 -35.0 15.0 -34.5 17.5 -32.0 L17.8 -30.6 14.25 -29.55 10.25 -28.05 M-1.8 -11.9 L-3.35 -12.1 Q-7.15 -17.75 0.5 -20.9 3.1 -21.95 5.05 -24.05 5.55 -30.2 11.25 -30.9 12.95 -31.15 14.25 -29.55 M36.8 -23.15 L30.15 -23.35 Q27.2 -23.65 24.5 -22.75 23.7 -22.55 23.1 -21.95 L20.6 -19.1 Q18.3 -16.4 15.25 -14.75 13.85 -13.95 12.3 -13.45 L9.1 -12.5 3.95 -11.55 -1.8 -11.9 M25.3 -16.45 L25.5 -17.2 24.7 -18.9 34.2 -18.95 35.05 -18.85 Q36.3 -18.4 36.8 -17.2 37.7 -14.9 36.55 -12.65 35.8 -11.35 34.15 -10.8 L33.55 -10.9 Q32.85 -11.6 33.1 -12.7 L33.25 -13.2 Q33.7 -14.4 34.2 -13.6 M25.3 -16.45 L25.05 -16.1 Q24.05 -14.8 23.1 -14.3 L22.65 -14.0 M-2.75 4.05 L-11.8 6.35 M43.9 2.5 L43.8 2.1 43.65 1.6 M18.45 25.3 L19.6 22.7 19.85 21.1 M-6.15 -6.8 Q-8.5 -7.6 -11.0 -7.75 L-12.4 -6.6 -16.9 -6.85 M-6.15 -6.8 L-6.05 -6.75 Q-4.15 -6.0 -2.9 -5.05 1.45 -1.75 -2.75 4.05 M5.7 -1.5 Q1.3 -1.7 -1.35 -5.9 L-2.2 -6.6" fill="none" stroke="#000000" stroke-linecap="round" stroke-linejoin="round" stroke-width="0.05"/>
    <path d="M19.7 -23.45 Q19.3 -25.05 17.5 -25.5 11.0 -26.8 5.7 -23.25 L9.5 -21.95 Q10.35 -23.75 12.35 -23.75 14.55 -23.9 15.15 -21.7 15.5 -20.4 14.3 -19.9 L17.95 -18.15 Q20.55 -19.95 19.75 -23.35 L19.7 -23.45 M12.4 -18.4 L9.95 -20.2 7.7 -19.3 9.05 -17.7 7.0 -17.1 6.5 -16.75 7.75 -16.0 Q12.35 -15.7 16.5 -17.4 L17.95 -18.15 M9.95 -20.2 L7.0 -22.2 M5.7 -23.25 Q3.0 -21.55 4.3 -18.7 4.65 -18.0 5.35 -17.45 L6.5 -16.75 M14.3 -19.9 L9.5 -21.95 M-22.15 -5.0 L-18.4 -0.65 -16.55 -0.35 -16.45 0.2 -16.25 2.15 -18.25 3.75 -18.0 4.45 -17.85 4.75 Q-17.35 6.25 -18.15 7.75 M-4.85 -3.4 L-5.35 -4.1 -4.9 -4.75 Q-3.7 -4.9 -3.25 -4.1 L-3.1 -3.65 Q-2.55 -1.45 -4.65 -0.85 L-6.35 -2.15 -11.95 -0.4 M-31.45 4.9 L-30.85 3.75 -30.95 3.2 -31.7 2.5 -33.15 2.45 -34.0 2.65 -35.1 0.7 M-32.05 10.7 L-31.85 7.5 -31.7 5.8 -31.45 4.9 M-51.1 10.35 L-49.8 10.4 -49.8 11.0 -49.8 11.05 Q-50.7 13.1 -49.45 14.85 L-49.55 15.35 M-51.1 10.35 L-52.6 10.25 -54.0 8.85" fill="none" stroke="#66ff00" stroke-linecap="round" stroke-linejoin="round" stroke-width="0.05"/>
  </g>
  <defs>
    <radialGradient cx="0" cy="0" gradientTransform="matrix(0.0371, -0.0056, 0.0042, 0.028, 7.85, -16.05)" gradientUnits="userSpaceOnUse" id="gradient0" r="819.2" spreadMethod="pad">
      <stop offset="0.0" stop-color="#64663e"/>
      <stop offset="1.0" stop-color="#393124"/>
    </radialGradient>
    <linearGradient gradientTransform="matrix(0.042, 0.0, 0.0, 0.0172, -35.15, 6.35)" gradientUnits="userSpaceOnUse" id="gradient1" spreadMethod="pad" x1="-819.2" x2="819.2">
      <stop offset="0.0" stop-color="#64663e"/>
      <stop offset="1.0" stop-color="#393124"/>
    </linearGradient>
    <radialGradient cx="0" cy="0" gradientTransform="matrix(0.0371, -0.0056, 0.0042, 0.028, 7.85, -16.05)" gradientUnits="userSpaceOnUse" id="gradient2" r="819.2" spreadMethod="pad">
      <stop offset="0.0" stop-color="#595837"/>
      <stop offset="1.0" stop-color="#241f17"/>
    </radialGradient>
    <radialGradient cx="0" cy="0" gradientTransform="matrix(0.0371, -0.0056, 0.0042, 0.028, 7.85, -16.05)" gradientUnits="userSpaceOnUse" id="gradient3" r="819.2" spreadMethod="pad">
      <stop offset="0.0" stop-color="#83a052"/>
      <stop offset="1.0" stop-color="#393124"/>
    </radialGradient>
    <linearGradient gradientTransform="matrix(0.042, 0.0, 0.0, 0.0172, -35.15, 6.35)" gradientUnits="userSpaceOnUse" id="gradient4" spreadMethod="pad" x1="-819.2" x2="819.2">
      <stop offset="0.0" stop-color="#8d8c58"/>
      <stop offset="1.0" stop-color="#483e2f"/>
    </linearGradient>
  </defs>
</svg>
