<?xml version="1.0" encoding="UTF-8" standalone="no"?>
<svg xmlns:xlink="http://www.w3.org/1999/xlink" height="64.1px" width="55.8px" xmlns="http://www.w3.org/2000/svg">
  <g transform="matrix(1.0, 0.0, 0.0, 1.0, 0.0, 0.0)">
    <path d="M-15.1 -25.75 L-16.9 -22.8 Q-17.65 -21.05 -17.8 -19.15 -18.3 -12.75 -12.95 -9.7 L2.5 -9.75 3.25 -7.9 5.4 -0.55 Q6.4 2.8 4.35 5.7 L-4.3 9.2 Q-4.75 13.7 -3.6 17.85 -2.9 20.4 -3.1 22.85 -3.1 23.4 -3.55 23.7 -7.3 26.45 -14.2 29.45 L-17.9 26.85 -21.1 23.5 Q-27.15 16.25 -28.85 6.5 -29.5 3.0 -29.4 -0.55 -29.25 -7.9 -26.45 -14.8 L-25.05 -18.2 Q-23.15 -23.15 -19.5 -27.0 L-15.1 -25.75 M-23.05 20.15 L-16.35 16.85 -16.1 15.9 Q-15.65 14.3 -17.25 14.25 L-22.65 13.45 Q-23.15 12.0 -22.05 10.9 -20.5 9.3 -18.25 8.75 L-18.1 6.8 -25.0 4.45 Q-23.7 0.7 -19.3 0.6 -14.7 -0.1 -14.2 4.9 L-13.5 5.25 -10.7 5.45 -9.9 5.35 Q-10.9 3.85 -10.0 2.45 L-8.25 -0.4 -6.65 5.65 -4.45 5.45 Q-0.95 3.5 2.25 1.25 L0.3 -6.45 -0.25 -6.85 -8.6 -6.25 Q-23.95 -5.0 -21.0 -19.35 -23.95 -5.0 -8.6 -6.25 L-0.25 -6.85 0.3 -6.45 2.25 1.25 Q-0.95 3.5 -4.45 5.45 L-6.65 5.65 -8.25 -0.4 -10.0 2.45 Q-10.9 3.85 -9.9 5.35 L-10.7 5.45 -13.5 5.25 -14.2 4.9 Q-14.7 -0.1 -19.3 0.6 -23.7 0.7 -25.0 4.45 L-18.1 6.8 -18.25 8.75 Q-20.5 9.3 -22.05 10.9 -23.15 12.0 -22.65 13.45 L-17.25 14.25 Q-15.65 14.3 -16.1 15.9 L-16.35 16.85 -23.05 20.15 M-7.8 14.4 L-8.65 11.6 -9.6 11.95 Q-12.5 14.2 -10.45 18.15 -9.8 19.35 -9.45 20.95 L-12.45 21.05 Q-16.95 21.6 -21.1 23.5 -16.95 21.6 -12.45 21.05 L-9.45 20.95 Q-9.8 19.35 -10.45 18.15 -12.5 14.2 -9.6 11.95 L-8.65 11.6 -7.8 14.4" fill="url(#gradient0)" fill-rule="evenodd" stroke="none"/>
    <path d="M-12.85 -25.1 Q-12.75 -20.5 -11.25 -16.35 -10.85 -15.3 -9.75 -15.0 -4.3 -13.8 1.15 -15.0 L1.65 -15.55 5.35 -15.95 Q8.0 -11.25 9.85 -6.1 11.45 -1.6 11.45 3.05 11.45 4.8 10.25 5.95 6.45 9.65 1.7 11.85 L3.0 25.4 Q-0.7 32.35 -7.35 32.7 -14.0 33.0 -14.2 29.45 -7.3 26.45 -3.55 23.7 -3.1 23.4 -3.1 22.85 -2.9 20.4 -3.6 17.85 -4.75 13.7 -4.3 9.2 L4.35 5.7 Q6.4 2.8 5.4 -0.55 L3.25 -7.9 2.5 -9.75 -12.95 -9.7 Q-18.3 -12.75 -17.8 -19.15 -17.65 -21.05 -16.9 -22.8 L-15.1 -25.75 -12.85 -25.1" fill="url(#gradient1)" fill-rule="evenodd" stroke="none"/>
    <path d="M11.8 -30.95 Q7.2 -29.9 4.85 -26.1 L4.25 -25.0 Q10.1 -25.45 14.9 -21.95 16.1 -21.1 17.6 -21.2 19.1 -21.25 20.45 -21.8 L11.75 -15.65 Q16.0 -13.75 19.95 -15.8 L21.55 -16.5 Q22.5 -14.3 20.5 -11.9 19.5 -10.7 18.2 -10.0 16.3 -8.95 14.9 -7.35 L26.4 -9.9 Q22.85 -1.15 15.55 4.9 14.45 5.9 14.4 7.4 14.3 9.0 14.9 10.55 L25.1 6.8 Q22.0 13.35 15.85 16.35 L13.35 17.25 Q11.45 17.7 10.9 18.8 12.95 19.55 15.1 19.4 16.4 19.25 17.4 18.6 L17.75 18.85 Q15.6 23.55 10.6 24.6 L8.85 24.6 Q5.75 23.85 3.45 25.5 L3.0 25.4 1.7 11.85 Q6.45 9.65 10.25 5.95 11.45 4.8 11.45 3.05 11.45 -1.6 9.85 -6.1 8.0 -11.25 5.35 -15.95 L1.65 -15.55 1.15 -15.0 Q-4.3 -13.8 -9.75 -15.0 -10.85 -15.3 -11.25 -16.35 -12.75 -20.5 -12.85 -25.1 L-12.55 -25.2 Q-8.0 -25.5 -4.1 -27.4 L-1.7 -28.7 Q4.55 -32.35 11.8 -31.1 L11.8 -30.95" fill="#396020" fill-rule="evenodd" stroke="none"/>
    <path d="M17.4 18.6 Q16.4 19.25 15.1 19.4 12.95 19.55 10.9 18.8 11.45 17.7 13.35 17.25 L15.85 16.35 Q22.0 13.35 25.1 6.8 L14.9 10.55 Q14.3 9.0 14.4 7.4 14.45 5.9 15.55 4.9 22.85 -1.15 26.4 -9.9 L14.9 -7.35 Q16.3 -8.95 18.2 -10.0 19.5 -10.7 20.5 -11.9 22.5 -14.3 21.55 -16.5 L19.95 -15.8 Q16.0 -13.75 11.75 -15.65 L20.45 -21.8 Q19.1 -21.25 17.6 -21.2 16.1 -21.1 14.9 -21.95 10.1 -25.45 4.25 -25.0 L4.85 -26.1 Q7.2 -29.9 11.8 -30.95 L12.45 -30.95 11.8 -31.1 Q4.55 -32.35 -1.7 -28.7 L-4.1 -27.4 Q-8.0 -25.5 -12.55 -25.2 M-12.85 -25.1 Q-12.75 -20.5 -11.25 -16.35 -10.85 -15.3 -9.75 -15.0 -4.3 -13.8 1.15 -15.0 L1.65 -15.55 5.35 -15.95 Q8.0 -11.25 9.85 -6.1 11.45 -1.6 11.45 3.05 11.45 4.8 10.25 5.95 6.45 9.65 1.7 11.85 L3.0 25.4 Q-0.7 32.35 -7.35 32.7 -14.0 33.0 -14.2 29.45 -7.3 26.45 -3.55 23.7 -3.1 23.4 -3.1 22.85 -2.9 20.4 -3.6 17.85 -4.75 13.7 -4.3 9.2 L4.35 5.7 Q6.4 2.8 5.4 -0.55 L3.25 -7.9 2.5 -9.75 -12.95 -9.7 Q-18.3 -12.75 -17.8 -19.15 -17.65 -21.05 -16.9 -22.8 L-15.1 -25.75 -19.5 -27.0 Q-23.15 -23.15 -25.05 -18.2 L-26.45 -14.8 Q-29.25 -7.9 -29.4 -0.55 -29.5 3.0 -28.85 6.5 -27.15 16.25 -21.1 23.5 L-17.9 26.85 -14.2 29.45 M3.45 25.5 Q5.75 23.85 8.85 24.6 L10.6 24.6 Q15.6 23.55 17.75 18.85 L17.65 18.7 17.4 18.6 M12.45 -30.95 L13.65 -30.95 M-12.85 -25.1 L-15.1 -25.75" fill="none" stroke="#000000" stroke-linecap="round" stroke-linejoin="round" stroke-width="0.05"/>
    <path d="M-21.1 23.5 Q-16.95 21.6 -12.45 21.05 L-9.45 20.95 Q-9.8 19.35 -10.45 18.15 -12.5 14.2 -9.6 11.95 L-8.65 11.6 -7.8 14.4 M-21.0 -19.35 Q-23.95 -5.0 -8.6 -6.25 L-0.25 -6.85 0.3 -6.45 2.25 1.25 Q-0.95 3.5 -4.45 5.45 L-6.65 5.65 -8.25 -0.4 -10.0 2.45 Q-10.9 3.85 -9.9 5.35 L-10.7 5.45 -13.5 5.25 -14.2 4.9 Q-14.7 -0.1 -19.3 0.6 -23.7 0.7 -25.0 4.45 L-18.1 6.8 -18.25 8.75 Q-20.5 9.3 -22.05 10.9 -23.15 12.0 -22.65 13.45 L-17.25 14.25 Q-15.65 14.3 -16.1 15.9 L-16.35 16.85 -23.05 20.15" fill="none" stroke="#66ff00" stroke-linecap="round" stroke-linejoin="round" stroke-width="0.05"/>
  </g>
  <defs>
    <linearGradient gradientTransform="matrix(0.0249, 0.0, 0.0, 0.0364, -9.0, 2.85)" gradientUnits="userSpaceOnUse" id="gradient0" spreadMethod="pad" x1="-819.2" x2="819.2">
      <stop offset="0.0" stop-color="#64663e"/>
      <stop offset="1.0" stop-color="#393124"/>
    </linearGradient>
    <linearGradient gradientTransform="matrix(0.0249, 0.0, 0.0, 0.0364, -9.0, 2.85)" gradientUnits="userSpaceOnUse" id="gradient1" spreadMethod="pad" x1="-819.2" x2="819.2">
      <stop offset="0.0" stop-color="#839152"/>
      <stop offset="1.0" stop-color="#393124"/>
    </linearGradient>
  </defs>
</svg>
