<?xml version="1.0" encoding="UTF-8" standalone="no"?>
<svg xmlns:xlink="http://www.w3.org/1999/xlink" height="22.65px" width="40.0px" xmlns="http://www.w3.org/2000/svg">
  <g transform="matrix(1.0, 0.0, 0.0, 1.0, 0.0, 0.0)">
    <path d="M2.75 -2.3 L7.75 -3.65 9.55 -7.65 Q11.35 -11.4 15.75 -11.3 20.15 -11.15 20.0 -4.95 19.8 1.25 18.95 1.5 9.1 3.45 -0.1 7.0 L-2.4 7.55 Q-5.4 8.5 -7.65 10.9 L-20.0 11.35 -15.55 7.25 -15.2 6.95 -14.35 6.3 Q-11.9 4.3 -9.0 2.7 L-7.0 1.6 Q-3.3 -0.3 1.0 -1.75 L2.75 -2.3" fill="url(#gradient0)" fill-rule="evenodd" stroke="none"/>
    <path d="M1.0 -6.95 L1.3 -5.55 Q1.75 -3.75 2.75 -2.3 L1.0 -1.75 Q0.35 -3.95 0.5 -6.2 L0.75 -7.05 1.0 -6.95 M-15.55 7.25 L-15.95 6.5 -16.3 5.8 Q-17.1 3.85 -17.1 1.95 L-16.35 3.95 Q-15.75 5.5 -14.35 6.3 L-15.2 6.95 -15.55 7.25 M-9.0 2.7 L-10.05 -2.25 -10.0 -3.55 -9.9 -4.25 -9.8 -4.75 -9.55 -4.6 Q-9.45 -2.65 -8.6 -0.8 L-7.0 1.6 -9.0 2.7" fill="#d0c18e" fill-rule="evenodd" stroke="none"/>
    <path d="M1.0 -6.95 L1.3 -5.55 Q1.75 -3.75 2.75 -2.3 L7.75 -3.65 9.55 -7.65 Q11.35 -11.4 15.75 -11.3 20.15 -11.15 20.0 -4.95 19.8 1.25 18.95 1.5 9.1 3.45 -0.1 7.0 L-2.4 7.55 Q-5.4 8.5 -7.65 10.9 L-20.0 11.35 -15.55 7.25 -15.95 6.5 -16.3 5.8 Q-17.1 3.85 -17.1 1.95 L-16.35 3.95 Q-15.75 5.5 -14.35 6.3 -11.9 4.3 -9.0 2.7 L-10.05 -2.25 -10.0 -3.55 -9.9 -4.25 -9.8 -4.75 -9.5 -5.1 -9.55 -4.6 Q-9.45 -2.65 -8.6 -0.8 L-7.0 1.6 Q-3.3 -0.3 1.0 -1.75 0.35 -3.95 0.5 -6.2 L0.75 -7.05 0.95 -7.45 1.0 -6.95 M2.75 -2.3 L1.0 -1.75 M-15.55 7.25 L-15.2 6.95 -14.35 6.3 M-9.0 2.7 L-7.0 1.6" fill="none" stroke="#000000" stroke-linecap="round" stroke-linejoin="round" stroke-width="0.05"/>
  </g>
  <defs>
    <radialGradient cx="0" cy="0" gradientTransform="matrix(0.0255, 0.0226, -0.0425, 0.0479, 3.3, -23.4)" gradientUnits="userSpaceOnUse" id="gradient0" r="819.2" spreadMethod="pad">
      <stop offset="0.0" stop-color="#35d6fd"/>
      <stop offset="0.3607843137254902" stop-color="#0099cc"/>
      <stop offset="1.0" stop-color="#015f76"/>
    </radialGradient>
  </defs>
</svg>
