<?xml version="1.0" encoding="UTF-8" standalone="no"?>
<svg xmlns:xlink="http://www.w3.org/1999/xlink" height="101.9px" width="113.6px" xmlns="http://www.w3.org/2000/svg">
  <g transform="matrix(1.0, 0.0, 0.0, 1.0, 0.0, 0.0)">
    <path d="M12.15 -21.0 Q18.45 -29.4 26.7 -35.65 L29.05 -37.4 29.5 -36.6 21.9 -28.9 Q8.75 -19.55 5.65 -4.05 5.45 -3.0 5.6 -1.9 L7.8 -2.4 12.35 -3.6 19.05 -5.8 Q24.25 -7.7 29.3 -10.15 33.3 -11.7 35.3 -15.45 L35.85 -16.05 36.6 -15.15 33.05 -8.8 Q21.25 4.15 6.6 13.15 23.15 7.8 37.15 -3.2 39.2 -4.75 42.3 -5.1 L43.05 -5.65 45.5 -5.55 Q42.7 -1.65 40.85 2.9 L40.7 3.25 44.15 6.1 28.8 18.1 Q26.65 19.7 25.65 22.5 24.75 24.95 22.05 25.25 16.45 30.55 8.55 30.5 1.35 31.05 -0.55 33.0 L-6.85 38.4 -19.65 41.0 -23.8 34.75 -39.1 38.35 -41.7 39.9 -44.95 42.7 -47.2 43.9 -52.1 47.2 -53.85 48.55 -56.8 50.45 Q-56.6 40.4 -50.15 32.95 L-48.2 31.0 Q-33.05 7.1 -27.8 -20.55 -24.45 -38.4 -11.25 -50.95 L-13.6 -46.05 Q-28.5 -25.6 -25.95 -0.85 -25.7 1.45 -25.1 2.6 -24.35 4.15 -22.9 3.8 -21.5 3.4 -19.45 1.1 L-18.85 0.4 Q-13.6 -5.8 -11.35 -13.8 -10.4 -17.2 -8.65 -20.45 -6.55 -24.45 -3.8 -27.85 3.25 -37.35 13.0 -43.9 L15.95 -45.75 14.7 -43.55 13.15 -41.5 Q10.85 -38.9 7.95 -37.35 -10.1 -23.0 -7.5 -2.5 L-7.2 -1.65 Q-6.7 -0.9 -5.3 -1.45 L-4.2 -1.9 Q-1.85 -2.95 0.2 -4.45 6.2 -8.85 9.35 -16.85 10.25 -19.1 12.15 -21.0 M28.5 12.3 Q18.9 15.15 15.95 22.95 L21.35 24.15 22.05 25.25 21.35 24.15 15.95 22.95 Q18.9 15.15 28.5 12.3 M2.35 15.4 L4.0 14.65 6.6 13.15 4.0 14.65 2.35 15.4 M18.05 11.75 L18.6 11.55 Q23.25 10.3 27.45 7.75 L29.1 6.85 30.95 5.8 34.8 3.35 35.1 3.2 36.9 2.8 37.45 2.7 39.5 2.5 Q40.55 2.4 40.85 2.9 40.55 2.4 39.5 2.5 L37.45 2.7 36.9 2.8 35.1 3.2 34.8 3.35 30.95 5.8 29.1 6.85 27.45 7.75 Q23.25 10.3 18.6 11.55 L18.05 11.75 M-18.0 9.4 L-13.85 8.0 Q-10.7 7.1 -9.0 9.0 -8.15 9.9 -7.7 11.55 L-7.25 13.35 Q-6.35 18.55 -10.2 20.2 -6.35 18.55 -7.25 13.35 L-7.7 11.55 Q-8.15 9.9 -9.0 9.0 -10.7 7.1 -13.85 8.0 L-18.0 9.4 Q-38.25 17.1 -47.9 37.75 L-42.65 37.9 Q-40.4 35.65 -37.15 35.0 -32.4 30.85 -25.15 30.25 L-20.15 31.65 -21.55 28.9 Q-11.0 32.1 -1.65 26.5 -8.25 27.45 -14.85 25.15 -9.5 24.65 -5.7 21.05 -7.15 21.7 -8.75 21.7 -9.5 21.6 -10.2 20.2 L-13.55 20.85 Q-15.2 19.05 -15.05 16.75 L-14.9 16.0 -14.3 14.85 Q-13.8 14.05 -12.8 13.45 L-10.8 15.15 -11.85 16.4 -11.95 17.35 -11.4 17.95 -11.05 17.95 -10.0 17.95 -9.5 17.7 Q-8.1 9.75 -17.55 9.75 L-18.0 9.4 M-0.75 3.65 L-1.85 5.2 Q-3.95 7.55 -7.05 8.4 L-7.85 8.5 Q-8.65 8.5 -9.0 9.0 -8.65 8.5 -7.85 8.5 L-7.05 8.4 Q-3.95 7.55 -1.85 5.2 L-0.75 3.65 M-51.05 38.4 L-51.4 39.5 -48.9 39.9 -47.9 37.75 -48.9 39.9 -51.4 39.5 -51.05 38.4 M-33.25 6.0 L-33.25 6.9 Q-33.45 10.35 -35.85 12.8 -33.45 10.35 -33.25 6.9 L-33.25 6.0 M-29.55 6.0 Q-29.6 8.3 -30.35 10.2 L-30.6 10.75 Q-31.15 12.35 -32.45 12.8 -31.15 12.35 -30.6 10.75 L-30.35 10.2 Q-29.6 8.3 -29.55 6.0 M-7.25 13.35 L-4.45 12.55 Q-2.95 12.1 -2.6 11.0 -2.95 12.1 -4.45 12.55 L-7.25 13.35" fill="url(#gradient0)" fill-rule="evenodd" stroke="none"/>
    <path d="M21.9 -28.9 Q19.4 -21.8 23.05 -15.35 L24.5 -12.7 29.3 -10.15 Q24.25 -7.7 19.05 -5.8 L12.35 -3.6 7.8 -2.4 5.6 -1.9 Q5.45 -3.0 5.65 -4.05 8.75 -19.55 21.9 -28.9 M-13.6 -46.05 L-13.15 -45.3 Q-19.15 -33.65 -10.8 -27.05 -8.75 -25.45 -6.45 -27.35 L-3.8 -27.85 Q-6.55 -24.45 -8.65 -20.45 -10.4 -17.2 -11.35 -13.8 -13.6 -5.8 -18.85 0.4 L-19.45 1.1 Q-21.5 3.4 -22.9 3.8 -24.35 4.15 -25.1 2.6 -25.7 1.45 -25.95 -0.85 -28.5 -25.6 -13.6 -46.05 M7.95 -37.35 Q1.4 -25.0 11.6 -21.0 L12.15 -21.0 Q10.25 -19.1 9.35 -16.85 6.2 -8.85 0.2 -4.45 -1.85 -2.95 -4.2 -1.9 L-5.3 -1.45 Q-6.7 -0.9 -7.2 -1.65 L-7.5 -2.5 Q-10.1 -23.0 7.95 -37.35 M6.8 -22.75 L5.5 -21.2 Q3.2 -18.4 2.1 -14.9 3.2 -18.4 5.5 -21.2 L6.8 -22.75 M17.8 -18.05 Q16.3 -17.5 15.9 -16.05 13.75 -8.2 7.8 -2.4 13.75 -8.2 15.9 -16.05 16.3 -17.5 17.8 -18.05 M4.45 -11.0 L3.35 -9.9 Q1.3 -7.55 0.2 -4.45 1.3 -7.55 3.35 -9.9 L4.45 -11.0 M18.05 -9.95 L16.7 -8.75 Q14.35 -6.35 12.35 -3.6 14.35 -6.35 16.7 -8.75 L18.05 -9.95 M21.95 -9.4 L19.05 -5.8 21.95 -9.4 M-19.35 -23.8 Q-20.75 -21.25 -21.45 -18.4 -24.1 -8.05 -25.1 2.6 -24.1 -8.05 -21.45 -18.4 -20.75 -21.25 -19.35 -23.8 M-2.1 -7.85 L-4.2 -1.9 -2.1 -7.85 M-12.05 -23.0 L-14.0 -18.5 Q-18.05 -9.45 -18.85 0.4 -18.05 -9.45 -14.0 -18.5 L-12.05 -23.0 M-0.55 -24.05 L-1.45 -21.85 Q-4.85 -11.85 -7.2 -1.65 -4.85 -11.85 -1.45 -21.85 L-0.55 -24.05 M-21.45 -4.7 L-22.9 3.8 -21.45 -4.7" fill="url(#gradient1)" fill-rule="evenodd" stroke="none"/>
    <path d="M33.05 -8.8 L55.8 -18.45 56.8 -18.05 Q56.9 -16.6 55.75 -15.75 49.6 -11.35 45.5 -5.55 L43.05 -5.65 42.3 -5.1 Q39.2 -4.75 37.15 -3.2 23.15 7.8 6.6 13.15 21.25 4.15 33.05 -8.8 M-18.0 9.4 L-17.55 9.75 Q-8.1 9.75 -9.5 17.7 L-10.0 17.95 -11.05 17.95 -11.4 17.95 -11.95 17.35 -11.85 16.4 -10.8 15.15 -12.8 13.45 Q-13.8 14.05 -14.3 14.85 L-14.9 16.0 -15.05 16.75 Q-15.2 19.05 -13.55 20.85 L-10.2 20.2 Q-9.5 21.6 -8.75 21.7 -7.15 21.7 -5.7 21.05 -9.5 24.65 -14.85 25.15 -8.25 27.45 -1.65 26.5 -11.0 32.1 -21.55 28.9 L-20.15 31.65 -25.15 30.25 Q-32.4 30.85 -37.15 35.0 -40.4 35.65 -42.65 37.9 L-47.9 37.75 Q-38.25 17.1 -18.0 9.4 M-17.55 10.7 L-18.85 11.2 Q-23.55 14.0 -24.35 20.1 -21.15 18.2 -18.6 15.6 -16.25 13.3 -17.55 10.7 M-43.9 35.5 L-43.2 35.7 Q-40.7 35.85 -39.0 33.95 L-40.95 30.75 -44.15 34.65 -43.9 35.5 M-37.1 25.6 L-36.95 31.1 -36.45 31.4 -36.0 31.25 Q-24.25 28.65 -27.8 19.3 -33.25 20.15 -37.1 25.6" fill="url(#gradient2)" fill-rule="evenodd" stroke="none"/>
    <path d="M-17.55 10.7 Q-16.25 13.3 -18.6 15.6 -21.15 18.2 -24.35 20.1 -23.55 14.0 -18.85 11.2 L-17.55 10.7 M-37.1 25.6 Q-33.25 20.15 -27.8 19.3 -24.25 28.65 -36.0 31.25 L-36.45 31.4 -36.95 31.1 -37.1 25.6 M-43.9 35.5 L-44.15 34.65 -40.95 30.75 -39.0 33.95 Q-40.7 35.85 -43.2 35.7 L-43.9 35.5" fill="#00ffff" fill-rule="evenodd" stroke="none"/>
    <path d="M-39.1 38.35 L-34.8 43.65 -41.7 39.9 -39.1 38.35 M-44.95 42.7 Q-44.15 46.5 -40.55 48.35 L-41.9 48.05 Q-45.1 46.8 -47.2 43.9 L-44.95 42.7 M-52.1 47.2 L-46.85 50.95 -48.7 50.8 Q-51.6 50.3 -53.85 48.55 L-52.1 47.2" fill="#d0c18e" fill-rule="evenodd" stroke="none"/>
    <path d="M12.15 -21.0 Q18.45 -29.4 26.7 -35.65 L29.05 -37.4 29.5 -36.6 21.9 -28.9 Q19.4 -21.8 23.05 -15.35 L24.5 -12.7 29.3 -10.15 Q33.3 -11.7 35.3 -15.45 L35.85 -16.05 36.6 -15.15 33.05 -8.8 55.8 -18.45 56.8 -18.05 Q56.9 -16.6 55.75 -15.75 49.6 -11.35 45.5 -5.55 42.7 -1.65 40.85 2.9 L40.7 3.25 44.15 6.1 28.8 18.1 Q26.65 19.7 25.65 22.5 24.75 24.95 22.05 25.25 16.45 30.55 8.55 30.5 1.35 31.05 -0.55 33.0 L-6.85 38.4 -19.65 41.0 M-23.8 34.75 L-39.1 38.35 -34.8 43.65 -41.7 39.9 -44.95 42.7 Q-44.15 46.5 -40.55 48.35 L-41.9 48.05 Q-45.1 46.8 -47.2 43.9 L-52.1 47.2 -46.85 50.95 -48.7 50.8 Q-51.6 50.3 -53.85 48.55 L-56.8 50.45 Q-56.6 40.4 -50.15 32.95 L-48.2 31.0 Q-33.05 7.1 -27.8 -20.55 -24.45 -38.4 -11.25 -50.95 L-13.6 -46.05 -13.15 -45.3 Q-19.15 -33.65 -10.8 -27.05 -8.75 -25.45 -6.45 -27.35 L-3.8 -27.85 Q3.25 -37.35 13.0 -43.9 L15.95 -45.75 14.7 -43.55 13.15 -41.5 Q10.85 -38.9 7.95 -37.35 1.4 -25.0 11.6 -21.0 L12.15 -21.0 Q10.25 -19.1 9.35 -16.85 6.2 -8.85 0.2 -4.45 -1.85 -2.95 -4.2 -1.9 L-5.3 -1.45 Q-6.7 -0.9 -7.2 -1.65 L-7.5 -2.5 Q-10.1 -23.0 7.95 -37.35 M21.9 -28.9 Q8.75 -19.55 5.65 -4.05 5.45 -3.0 5.6 -1.9 L7.8 -2.4 12.35 -3.6 19.05 -5.8 Q24.25 -7.7 29.3 -10.15 M40.85 2.9 Q40.55 2.4 39.5 2.5 L37.45 2.7 36.9 2.8 35.1 3.2 34.8 3.35 30.95 5.8 29.1 6.85 27.45 7.75 Q23.25 10.3 18.6 11.55 L18.05 11.75 M6.6 13.15 L4.0 14.65 2.35 15.4 M22.05 25.25 L21.35 24.15 15.95 22.95 Q18.9 15.15 28.5 12.3 M33.05 -8.8 Q21.25 4.15 6.6 13.15 M-3.8 -27.85 Q-6.55 -24.45 -8.65 -20.45 -10.4 -17.2 -11.35 -13.8 -13.6 -5.8 -18.85 0.4 L-19.45 1.1 Q-21.5 3.4 -22.9 3.8 -24.35 4.15 -25.1 2.6 -25.7 1.45 -25.95 -0.85 -28.5 -25.6 -13.6 -46.05 M-10.2 20.2 Q-6.35 18.55 -7.25 13.35 L-7.7 11.55 Q-8.15 9.9 -9.0 9.0 -10.7 7.1 -13.85 8.0 L-18.0 9.4 Q-38.25 17.1 -47.9 37.75 L-48.9 39.9 -51.4 39.5 -51.05 38.4 M-10.8 15.15 L-12.8 13.45 Q-13.8 14.05 -14.3 14.85 L-14.9 16.0 -15.05 16.75 Q-15.2 19.05 -13.55 20.85 L-10.2 20.2 M-9.0 9.0 Q-8.65 8.5 -7.85 8.5 L-7.05 8.4 Q-3.95 7.55 -1.85 5.2 L-0.75 3.65 M-17.55 10.7 Q-16.25 13.3 -18.6 15.6 -21.15 18.2 -24.35 20.1 -23.55 14.0 -18.85 11.2 L-17.55 10.7 M-2.6 11.0 Q-2.95 12.1 -4.45 12.55 L-7.25 13.35 M-32.45 12.8 Q-31.15 12.35 -30.6 10.75 L-30.35 10.2 Q-29.6 8.3 -29.55 6.0 M-35.85 12.8 Q-33.45 10.35 -33.25 6.9 L-33.25 6.0 M-37.1 25.6 Q-33.25 20.15 -27.8 19.3 -24.25 28.65 -36.0 31.25 L-36.45 31.4 -36.95 31.1 -37.1 25.6 M-43.9 35.5 L-44.15 34.65 -40.95 30.75 -39.0 33.95 Q-40.7 35.85 -43.2 35.7 L-43.9 35.5 M-52.1 47.2 L-53.85 48.55 M-44.95 42.7 L-47.2 43.9 M-39.1 38.35 L-41.7 39.9" fill="none" stroke="#000000" stroke-linecap="round" stroke-linejoin="round" stroke-width="0.05"/>
    <path d="M7.8 -2.4 Q13.75 -8.2 15.9 -16.05 16.3 -17.5 17.8 -18.05 M2.1 -14.9 Q3.2 -18.4 5.5 -21.2 L6.8 -22.75 M12.35 -3.6 Q14.35 -6.35 16.7 -8.75 L18.05 -9.95 M0.2 -4.45 Q1.3 -7.55 3.35 -9.9 L4.45 -11.0 M19.05 -5.8 L21.95 -9.4 M-7.2 -1.65 Q-4.85 -11.85 -1.45 -21.85 L-0.55 -24.05 M-18.85 0.4 Q-18.05 -9.45 -14.0 -18.5 L-12.05 -23.0 M-4.2 -1.9 L-2.1 -7.85 M-25.1 2.6 Q-24.1 -8.05 -21.45 -18.4 -20.75 -21.25 -19.35 -23.8 M-22.9 3.8 L-21.45 -4.7" fill="none" stroke="#00ff99" stroke-linecap="round" stroke-linejoin="round" stroke-width="0.05"/>
  </g>
  <defs>
    <radialGradient cx="0" cy="0" gradientTransform="matrix(0.0255, 0.0226, -0.0425, 0.0479, -35.3, 15.95)" gradientUnits="userSpaceOnUse" id="gradient0" r="819.2" spreadMethod="pad">
      <stop offset="0.0" stop-color="#35d6fd"/>
      <stop offset="0.3607843137254902" stop-color="#0099cc"/>
      <stop offset="1.0" stop-color="#015f76"/>
    </radialGradient>
    <linearGradient gradientTransform="matrix(0.0023, -0.0188, 0.0302, 0.0036, -16.45, -14.4)" gradientUnits="userSpaceOnUse" id="gradient1" spreadMethod="pad" x1="-819.2" x2="819.2">
      <stop offset="0.0" stop-color="#844dbb" stop-opacity="0.68235296"/>
      <stop offset="1.0" stop-color="#21e7ab" stop-opacity="0.5019608"/>
    </linearGradient>
    <radialGradient cx="0" cy="0" gradientTransform="matrix(0.0255, 0.0226, -0.0425, 0.0479, -35.3, 15.95)" gradientUnits="userSpaceOnUse" id="gradient2" r="819.2" spreadMethod="pad">
      <stop offset="0.0" stop-color="#35d6fd"/>
      <stop offset="0.3607843137254902" stop-color="#01748f"/>
      <stop offset="1.0" stop-color="#013d4b"/>
    </radialGradient>
  </defs>
</svg>
