<?xml version="1.0" encoding="UTF-8" standalone="no"?>
<svg xmlns:xlink="http://www.w3.org/1999/xlink" height="143.65px" width="59.15px" xmlns="http://www.w3.org/2000/svg">
  <g transform="matrix(1.0, 0.0, 0.0, 1.0, 0.0, 0.0)">
    <path d="M18.65 -38.15 L9.5 -38.9 Q2.2 -48.7 -4.65 -52.0 L-7.25 -52.3 -12.8 -55.6 -2.25 -56.3 Q-5.9 -60.65 -10.3 -64.2 -14.05 -67.3 -15.8 -71.85 L3.2 -62.9 Q2.9 -64.45 2.75 -65.95 2.55 -67.5 2.7 -69.0 2.85 -70.2 3.55 -71.1 L4.05 -71.7 Q5.0 -66.65 8.05 -62.35 13.2 -55.0 21.15 -50.6 L20.9 -39.15 16.15 -44.8 16.85 -48.9 2.9 -55.7 9.7 -43.7 14.8 -43.5 15.3 -43.85 Q17.5 -41.5 18.65 -38.15 M22.9 -36.8 Q27.6 -48.65 24.45 -61.2 24.1 -62.4 24.25 -63.7 34.65 -46.55 24.75 -30.15 L23.65 -34.45 Q26.75 -39.7 26.95 -45.9 L26.95 -47.9 26.95 -45.9 Q26.75 -39.7 23.65 -34.45 L22.9 -36.8 M20.85 -28.8 L19.15 -29.55 13.95 -28.65 Q4.5 -25.7 -3.35 -32.05 L0.25 -31.55 Q10.3 -29.8 19.55 -35.4 20.45 -32.15 20.85 -28.8 M4.95 -65.0 L6.3 -59.9 -10.55 -66.95 1.2 -54.9 -6.85 -53.55 1.2 -54.9 -10.55 -66.95 6.3 -59.9 4.95 -65.0 M19.85 -32.25 Q12.65 -29.25 8.1 -30.1 12.65 -29.25 19.85 -32.25" fill="#2854db" fill-rule="evenodd" stroke="none"/>
    <path d="M18.65 -38.15 Q17.5 -41.5 15.3 -43.85 L15.25 -43.9 14.8 -44.35 12.8 -46.2 16.15 -44.8 20.9 -39.15 22.9 -36.8 23.65 -34.45 24.75 -30.15 Q31.15 -1.15 5.7 19.35 -2.1 25.65 -6.3 35.25 -13.55 51.85 -13.95 69.85 L-16.95 70.9 Q-24.5 73.45 -29.55 68.65 -27.55 27.7 8.25 2.25 13.1 -1.2 16.0 -6.55 22.0 -17.5 20.85 -28.8 20.45 -32.15 19.55 -35.4 L19.55 -35.45 19.4 -35.75 19.4 -35.85 18.65 -38.15" fill="url(#gradient0)" fill-rule="evenodd" stroke="none"/>
    <path d="M15.3 -43.85 L14.8 -43.5 15.25 -43.9 15.3 -43.85" fill="#000066" fill-rule="evenodd" stroke="none"/>
    <path d="M20.9 -39.15 L21.15 -50.6 Q13.2 -55.0 8.05 -62.35 5.0 -66.65 4.05 -71.7 L3.55 -71.1 Q2.85 -70.2 2.7 -69.0 2.55 -67.5 2.75 -65.95 2.9 -64.45 3.2 -62.9 L-15.8 -71.85 Q-14.05 -67.3 -10.3 -64.2 -5.9 -60.65 -2.25 -56.3 L-12.8 -55.6 -7.25 -52.3 -4.65 -52.0 Q2.2 -48.7 9.5 -38.9 L18.65 -38.15 Q17.5 -41.5 15.3 -43.85 L15.25 -43.9 14.8 -44.35 12.8 -46.2 16.15 -44.8 20.9 -39.15 22.9 -36.8 Q27.6 -48.65 24.45 -61.2 24.1 -62.4 24.25 -63.7 34.65 -46.55 24.75 -30.15 31.15 -1.15 5.7 19.35 -2.1 25.65 -6.3 35.25 -13.55 51.85 -13.95 69.85 M14.8 -43.5 L9.7 -43.7 2.9 -55.7 16.85 -48.9 16.15 -44.8 M-29.55 68.65 Q-27.55 27.7 8.25 2.25 13.1 -1.2 16.0 -6.55 22.0 -17.5 20.85 -28.8 L19.15 -29.55 13.95 -28.65 Q4.5 -25.7 -3.35 -32.05 L0.25 -31.55 Q10.3 -29.8 19.55 -35.4 L19.4 -35.75 19.4 -35.85 18.65 -38.15 M23.65 -34.45 L24.75 -30.15 M22.9 -36.8 L23.65 -34.45 M19.55 -35.45 L19.55 -35.4 Q20.45 -32.15 20.85 -28.8" fill="none" stroke="#000000" stroke-linecap="round" stroke-linejoin="round" stroke-width="0.05"/>
    <path d="M-6.85 -53.55 L1.2 -54.9 -10.55 -66.95 6.3 -59.9 4.95 -65.0 M23.65 -34.45 Q26.75 -39.7 26.95 -45.9 L26.95 -47.9 M8.1 -30.1 Q12.65 -29.25 19.85 -32.25" fill="none" stroke="#00ffff" stroke-linecap="round" stroke-linejoin="round" stroke-width="0.05"/>
  </g>
  <defs>
    <linearGradient gradientTransform="matrix(0.0226, 0.0046, -0.0071, 0.035, 0.3, -21.45)" gradientUnits="userSpaceOnUse" id="gradient0" spreadMethod="pad" x1="-819.2" x2="819.2">
      <stop offset="0.0" stop-color="#9beafd"/>
      <stop offset="0.2549019607843137" stop-color="#35d6fd"/>
      <stop offset="0.5058823529411764" stop-color="#0099cc"/>
      <stop offset="1.0" stop-color="#015f76"/>
    </linearGradient>
  </defs>
</svg>
