<?xml version="1.0" encoding="UTF-8" standalone="no"?>
<svg xmlns:xlink="http://www.w3.org/1999/xlink" height="17.8px" width="14.8px" xmlns="http://www.w3.org/2000/svg">
  <g transform="matrix(1.0, 0.0, 0.0, 1.0, 0.0, 0.0)">
    <path d="M-1.1 -6.3 L5.05 -4.65 Q5.7 -1.9 3.05 1.35 0.35 4.6 0.95 7.75 1.35 10.15 2.85 11.5 -1.95 7.95 -1.35 5.7 -0.75 3.25 0.15 1.1 L-2.1 3.0 Q-3.95 4.2 -4.6 6.15 L-5.6 9.0 -6.15 10.35 -5.45 2.7 -1.9 -0.55 -6.55 -0.2 -9.6 5.05 -8.5 -2.25 Q-6.65 -3.6 -4.25 -3.1 -2.8 -3.05 -1.9 -3.95 L-1.1 -6.3" fill="#000000" fill-rule="evenodd" stroke="none"/>
  </g>
</svg>
