<?xml version="1.0" encoding="UTF-8" standalone="no"?>
<svg xmlns:xlink="http://www.w3.org/1999/xlink" height="49.75px" width="43.25px" xmlns="http://www.w3.org/2000/svg">
  <g transform="matrix(1.0, 0.0, 0.0, 1.0, 0.0, 0.0)">
    <path d="M14.25 -17.45 Q20.85 -15.35 25.2 -10.1 L25.5 -9.45 24.5 -8.1 24.0 -8.5 24.6 -9.8 Q17.85 -14.7 10.65 -18.95 L14.25 -17.45 M6.95 -20.8 L7.65 -20.25 Q3.1 -18.05 -2.55 -18.5 L-3.9 -18.15 -5.0 -17.95 Q-6.05 -22.95 -0.4 -22.95 3.0 -22.65 6.15 -21.3 L6.95 -20.8" fill="#d3ad4d" fill-rule="evenodd" stroke="none"/>
    <path d="M6.95 -20.8 L6.15 -21.3 Q3.0 -22.65 -0.4 -22.95 -6.05 -22.95 -5.0 -17.95 L-3.9 -18.15 -2.55 -18.5 Q3.1 -18.05 7.65 -20.25 L6.95 -20.8 M14.25 -17.45 L10.65 -18.95 Q17.85 -14.7 24.6 -9.8 L24.0 -8.5 24.5 -8.1 25.5 -9.45 25.2 -10.1 Q20.85 -15.35 14.25 -17.45 M6.45 -2.95 L7.4 -3.4 Q14.3 -3.65 19.2 1.8 23.25 -0.85 21.35 -7.05 L20.45 -8.5 Q16.3 -12.45 10.95 -14.8 8.15 -16.65 4.75 -17.55 1.5 -18.25 -1.25 -16.85 -2.55 -16.25 -2.45 -15.0 -2.15 -11.7 -0.25 -9.1 2.05 -6.05 3.5 -2.45 6.25 4.3 3.6 10.85 L3.95 11.3 Q6.0 10.1 6.1 7.8 6.15 5.95 6.9 4.45 8.6 1.0 6.25 -1.65 L6.45 -2.95 M28.5 -8.25 Q28.05 -1.2 24.4 5.05 21.15 10.65 16.75 6.1 L11.9 1.85 Q10.95 1.1 9.85 1.15 10.95 5.95 10.9 11.1 10.9 12.05 11.6 12.9 13.8 15.75 14.2 19.4 11.65 21.75 8.4 22.75 L6.25 23.25 Q0.55 21.55 -4.3 18.2 L-6.85 16.15 -9.5 14.15 Q-12.9 15.05 -14.25 11.8 -16.0 7.5 -11.65 7.15 -7.9 8.65 -4.2 9.6 L-2.5 10.1 0.05 10.55 0.8 9.55 Q2.15 3.1 -1.0 -2.95 -3.85 -8.35 -6.35 -14.05 -7.05 -15.55 -7.1 -17.3 L-7.2 -23.25 Q-1.9 -28.5 5.05 -25.3 11.15 -22.4 16.75 -18.75 23.2 -14.85 28.1 -9.5 28.55 -9.0 28.5 -8.25 M9.3 17.1 L9.65 17.55 9.4 19.1 4.0 19.3 Q-0.3 18.6 -3.85 14.6 -0.3 18.6 4.0 19.3 L9.4 19.1 9.65 17.55 9.3 17.1" fill="#bb934d" fill-rule="evenodd" stroke="none"/>
    <path d="M0.3 -13.9 L0.5 -13.0 Q1.4 -9.3 3.55 -6.1 L4.35 -6.25 Q5.3 -7.85 5.25 -9.7 9.65 -6.85 14.9 -6.35 L15.85 -6.95 Q16.75 -5.6 18.3 -5.1 L18.3 -4.45 18.4 -3.9 18.65 -3.45 Q19.1 -2.9 19.7 -3.35 L19.7 -5.25 Q16.5 -8.95 12.4 -11.35 L8.1 -13.95 Q3.4 -16.8 0.3 -13.9 M6.45 -2.95 L6.25 -1.65 Q8.6 1.0 6.9 4.45 6.15 5.95 6.1 7.8 6.0 10.1 3.95 11.3 L3.6 10.85 Q6.25 4.3 3.5 -2.45 2.05 -6.05 -0.25 -9.1 -2.15 -11.7 -2.45 -15.0 -2.55 -16.25 -1.25 -16.85 1.5 -18.25 4.75 -17.55 8.15 -16.65 10.95 -14.8 16.3 -12.45 20.45 -8.5 L21.35 -7.05 Q23.25 -0.85 19.2 1.8 14.3 -3.65 7.4 -3.4 L6.45 -2.95" fill="#9a743a" fill-rule="evenodd" stroke="none"/>
    <path d="M0.3 -13.9 Q3.4 -16.8 8.1 -13.95 L12.4 -11.35 Q16.5 -8.95 19.7 -5.25 L19.7 -3.35 Q19.1 -2.9 18.65 -3.45 L18.4 -3.9 18.3 -4.45 18.3 -5.1 Q16.75 -5.6 15.85 -6.95 L14.9 -6.35 Q9.65 -6.85 5.25 -9.7 5.3 -7.85 4.35 -6.25 L3.55 -6.1 Q1.4 -9.3 0.5 -13.0 L0.3 -13.9" fill="#7b5c2f" fill-rule="evenodd" stroke="none"/>
    <path d="M28.5 -8.25 Q28.05 -1.2 24.4 5.05 21.15 10.65 16.75 6.1 L11.9 1.85 Q10.95 1.1 9.85 1.15 10.95 5.95 10.9 11.1 10.9 12.05 11.6 12.9 13.8 15.75 14.2 19.4 11.65 21.75 8.4 22.75 L6.25 23.25 Q0.55 21.55 -4.3 18.2 L-6.85 16.15 -9.5 14.15 Q-12.9 15.05 -14.25 11.8 -16.0 7.5 -11.65 7.15 -7.9 8.65 -4.2 9.6 L-2.5 10.1 0.05 10.55 0.8 9.55 Q2.15 3.1 -1.0 -2.95 -3.85 -8.35 -6.35 -14.05 -7.05 -15.55 -7.1 -17.3 L-7.2 -23.25 Q-1.9 -28.5 5.05 -25.3 11.15 -22.4 16.75 -18.75 23.2 -14.85 28.1 -9.5 28.55 -9.0 28.5 -8.25 M-3.85 14.6 Q-0.3 18.6 4.0 19.3 L9.4 19.1 9.65 17.55 9.3 17.1" fill="none" stroke="#000000" stroke-linecap="round" stroke-linejoin="round" stroke-width="0.05"/>
    <path d="M20.75 2.35 L21.75 1.8 22.1 -0.2 22.6 -0.25 23.7 -1.3 23.65 -4.3 24.2 -4.55 24.7 -4.55 25.05 -4.85 25.1 -5.3 25.0 -6.3 24.9 -6.95 24.7 -8.0 25.7 -9.25 25.4 -11.2 22.1 -10.0 20.95 -9.4 20.5 -10.1 21.55 -11.8 21.55 -13.05 19.3 -15.0 15.6 -14.2 13.95 -14.4 13.95 -15.1 14.45 -15.8 15.0 -16.6 15.15 -17.05 15.3 -17.6 13.3 -18.55 7.2 -20.6 0.0 -22.95 Q-1.85 -23.45 -3.3 -22.25 -4.65 -21.1 -4.9 -19.3 L-4.85 -17.6 -3.45 -12.35 -1.65 -7.3 M2.15 -20.9 L1.15 -20.8 Q-1.85 -19.6 0.3 -13.9 M-2.35 -20.4 Q-2.9 -18.65 -2.35 -16.95 L-1.3 -13.55 -0.4 -10.2 0.4 -6.65 1.0 -3.15" fill="none" stroke="#66ff99" stroke-linecap="round" stroke-linejoin="round" stroke-width="0.05"/>
  </g>
</svg>
