<?xml version="1.0" encoding="UTF-8" standalone="no"?>
<svg xmlns:xlink="http://www.w3.org/1999/xlink" height="51.8px" width="43.95px" xmlns="http://www.w3.org/2000/svg">
  <g transform="matrix(1.0, 0.0, 0.0, 1.0, 0.0, 0.0)">
    <path d="M27.35 1.25 L27.1 2.1 27.1 2.3 Q27.1 3.1 26.65 3.35 L26.4 3.6 24.7 6.6 24.5 6.8 23.75 7.65 23.3 8.1 Q22.15 8.4 21.05 8.95 L20.85 9.0 20.65 8.95 Q19.55 8.8 19.0 8.25 L17.95 7.1 15.9 5.0 15.75 4.8 13.4 2.75 13.1 2.5 11.0 0.7 Q10.75 1.05 10.65 1.7 L10.5 2.3 10.5 3.35 10.5 3.55 10.8 7.25 10.9 7.8 11.75 11.95 12.0 13.35 12.15 14.0 Q12.25 15.3 12.75 16.5 13.6 18.35 14.1 20.15 L14.2 20.55 14.0 20.85 Q13.4 21.1 13.2 21.75 L13.0 21.9 10.8 22.8 10.4 22.95 8.35 23.3 7.7 23.45 Q5.45 23.9 3.8 23.4 L1.25 22.35 -2.5 22.2 Q-5.45 22.65 -6.05 18.9 -6.65 15.1 -8.5 17.15 -10.35 19.2 -11.8 17.65 L-13.1 16.1 Q-12.95 16.1 -13.95 14.4 -14.95 12.65 -15.1 10.5 -15.25 9.0 -14.65 7.65 L-14.45 7.25 Q-13.75 5.8 -12.6 5.0 L-12.45 4.8 Q-12.4 4.45 -12.05 4.65 L-11.35 5.2 -10.3 6.6 -10.1 6.75 Q-9.9 6.85 -9.85 6.9 L-8.25 8.25 -7.95 8.55 -6.4 9.65 -4.0 10.55 -3.55 10.6 0.55 10.7 Q1.55 10.7 1.65 9.35 L1.65 7.85 1.75 7.25 Q2.0 5.1 1.75 2.95 L1.6 1.3 1.5 0.7 Q0.95 -1.2 -0.1 -3.0 L-2.55 -6.7 -3.75 -8.55 -4.0 -8.9 -5.0 -10.4 -5.2 -10.75 -6.0 -12.25 -7.2 -16.15 Q-7.85 -18.05 -7.85 -20.25 L-7.8 -21.2 -7.6 -23.3 -7.4 -25.1 -7.15 -25.95 -6.65 -26.6 -6.0 -27.15 -5.8 -27.35 -4.35 -28.1 -3.8 -28.1 -2.95 -27.9 Q-1.9 -27.75 -1.15 -27.3 L0.95 -26.15 3.6 -24.85 7.3 -22.7 Q8.3 -22.0 9.4 -21.55 L11.55 -20.3 12.3 -19.9 13.4 -19.15 Q16.95 -16.75 20.85 -14.9 L21.5 -14.35 22.65 -13.6 23.95 -13.15 Q26.25 -12.25 27.6 -10.35 28.65 -8.9 28.8 -7.1 L28.8 -6.55 28.25 -4.45 28.05 -3.8 26.6 0.4 26.3 1.05 27.35 1.25 M24.55 3.95 Q24.45 3.85 25.1 3.1 L26.3 1.05 25.1 3.1 Q24.45 3.85 24.55 3.95" fill="#fece5f" fill-opacity="0.77254903" fill-rule="evenodd" stroke="none"/>
    <path d="M26.3 1.05 L26.6 0.4 28.05 -3.8 28.25 -4.45 28.8 -6.55 28.8 -7.1 Q28.65 -8.9 27.6 -10.35 26.25 -12.25 23.95 -13.15 L22.65 -13.6 21.5 -14.35 20.85 -14.9 Q16.95 -16.75 13.4 -19.15 L12.3 -19.9 11.55 -20.3 9.4 -21.55 Q8.3 -22.0 7.3 -22.7 L3.6 -24.85 0.95 -26.15 -1.15 -27.3 Q-1.9 -27.75 -2.95 -27.9 L-3.8 -28.1 -4.35 -28.1 -5.8 -27.35 -6.0 -27.15 -6.65 -26.6 -7.15 -25.95 -7.4 -25.1 -7.6 -23.3 -7.8 -21.2 -7.85 -20.25 Q-7.85 -18.05 -7.2 -16.15 L-6.0 -12.25 -5.2 -10.75 -5.0 -10.4 -4.0 -8.9 -3.75 -8.55 -2.55 -6.7 -0.1 -3.0 Q0.95 -1.2 1.5 0.7 L1.6 1.3 1.75 2.95 Q2.0 5.1 1.75 7.25 L1.65 7.85 1.65 9.35 Q1.55 10.7 0.55 10.7 L-3.55 10.6 -4.0 10.55 -6.4 9.65 -7.95 8.55 -8.25 8.25 -9.85 6.9 Q-9.9 6.85 -10.1 6.75 L-10.3 6.6 -11.35 5.2 -12.05 4.65 Q-12.4 4.45 -12.45 4.8 L-12.6 5.0 Q-13.75 5.8 -14.45 7.25 L-14.65 7.65 Q-15.25 9.0 -15.1 10.5 -14.95 12.65 -13.95 14.4 -12.95 16.1 -13.1 16.1 L-11.8 17.65 Q-10.35 19.2 -8.5 17.15 -6.65 15.1 -6.05 18.9 -5.45 22.65 -2.5 22.2 L1.25 22.35 3.8 23.4 Q5.45 23.9 7.7 23.45 L8.35 23.3 10.4 22.95 10.8 22.8 13.0 21.9 13.2 21.75 Q13.4 21.1 14.0 20.85 L14.2 20.55 14.1 20.15 Q13.6 18.35 12.75 16.5 12.25 15.3 12.15 14.0 L12.0 13.35 11.75 11.95 10.9 7.8 10.8 7.25 10.5 3.55 10.5 3.35 10.5 2.3 10.65 1.7 Q10.75 1.05 11.0 0.7 L13.1 2.5 13.4 2.75 15.75 4.8 15.9 5.0 17.95 7.1 19.0 8.25 Q19.55 8.8 20.65 8.95 L20.85 9.0 21.05 8.95 Q22.15 8.4 23.3 8.1 L23.75 7.65 24.5 6.8 24.7 6.6 26.4 3.6 26.65 3.35 Q27.1 3.1 27.1 2.3 L27.1 2.1 27.35 1.25 27.4 0.7 27.75 -0.8 27.8 -1.4 27.9 -2.6 28.0 -3.0 28.05 -3.8 M26.3 1.05 L25.1 3.1 Q24.45 3.85 24.55 3.95" fill="none" stroke="#000000" stroke-linecap="round" stroke-linejoin="round" stroke-width="0.05"/>
  </g>
</svg>
