<?xml version="1.0" encoding="UTF-8" standalone="no"?>
<svg xmlns:xlink="http://www.w3.org/1999/xlink" height="38.45px" width="32.5px" xmlns="http://www.w3.org/2000/svg">
  <g transform="matrix(1.0, 0.0, 0.0, 1.0, 0.0, 0.0)">
    <path d="M4.4 -12.0 Q8.0 -18.9 14.8 -20.4 15.0 -20.4 15.2 -20.65 L13.6 -23.3 Q16.15 -29.85 22.05 -27.5 L23.85 -26.2 23.75 -25.55 22.15 -24.3 21.1 -23.8 19.75 -24.35 19.4 -24.95 19.65 -26.0 17.15 -23.4 17.25 -22.85 18.9 -22.4 19.25 -21.25 19.65 -20.95 18.95 -20.3" fill="none" stroke="#66ff99" stroke-linecap="round" stroke-linejoin="round" stroke-width="0.05"/>
    <path d="M16.25 -28.5 Q21.25 -32.8 27.2 -35.45 28.0 -35.85 28.9 -36.05 29.75 -33.8 29.55 -31.45 L29.2 -28.8 Q28.25 -27.7 26.9 -27.05 L25.95 -26.45 25.1 -25.85 Q25.75 -23.9 25.0 -21.95 24.5 -20.6 23.25 -19.95 22.25 -19.45 21.05 -19.1 L20.7 -18.65 20.65 -17.95 Q19.85 -17.35 19.05 -17.2 L18.6 -17.15 Q17.15 -17.6 15.8 -18.2 14.45 -15.4 11.5 -14.45 10.3 -13.95 9.2 -14.45 7.45 -10.8 4.0 -8.1 1.6 -6.3 0.3 -3.3 -1.1 -0.2 -2.9 2.4 M13.5 -25.75 Q10.85 -23.35 8.55 -20.5 L7.35 -19.0" fill="none" stroke="#ffffcc" stroke-linecap="round" stroke-linejoin="round" stroke-width="0.05"/>
  </g>
</svg>
