<?xml version="1.0" encoding="UTF-8" standalone="no"?>
<svg xmlns:xlink="http://www.w3.org/1999/xlink" height="69.2px" width="43.35px" xmlns="http://www.w3.org/2000/svg">
  <g transform="matrix(1.0, 0.0, 0.0, 1.0, 0.0, 0.0)">
    <path d="M31.25 -27.85 L30.95 -27.35 30.9 -27.1 30.55 -25.95 30.5 -25.7 30.35 -25.45 29.2 -24.05 27.35 -22.05 25.25 -20.1 21.7 -17.4 15.5 -13.3 15.1 -13.05 Q12.85 -11.6 11.45 -10.25 L10.3 -9.25 8.35 -7.35 8.1 -7.05 6.65 -5.4 4.6 -2.75 4.35 -2.3 3.5 -1.15 3.3 -0.95 1.55 1.75 1.3 2.1 Q-0.2 4.45 -1.35 7.15 L-1.5 7.55 -1.75 8.35 -4.25 14.15 -4.45 14.5 -5.5 17.6 -7.4 23.65 -8.4 26.75 -8.65 27.55 -9.2 28.8 -9.75 30.4 -9.85 30.8 -9.95 31.1 Q-10.5 31.65 -10.7 32.5 L-10.75 32.75 Q-10.75 33.7 -11.05 34.45 -11.1 34.1 -11.25 33.9 L-11.55 33.15 -11.6 31.35 -11.75 30.0 -11.8 27.7 -11.75 26.15 -11.5 23.8 -11.35 22.45 -11.35 22.05 -11.2 20.75 -11.1 20.15 Q-10.65 16.2 -9.55 12.6 L-8.7 10.25 -8.6 9.85 Q-7.65 6.2 -6.2 2.7 L-6.05 2.3 Q-5.15 -1.4 -3.1 -4.85 L-3.0 -5.25 -2.65 -6.2 Q-1.35 -7.85 -0.6 -9.7 L1.05 -12.95 1.3 -13.4 Q1.65 -14.3 2.35 -15.05 L4.65 -18.2 Q5.7 -19.95 7.15 -21.55 L7.55 -22.05 8.8 -23.55 9.25 -24.05 9.75 -24.5 12.6 -27.3 15.3 -29.65 15.75 -29.95 17.65 -31.1 18.15 -31.45 Q20.55 -33.0 23.05 -33.8 L24.6 -34.4 28.1 -34.5 Q29.2 -34.2 30.1 -33.4 L31.35 -31.75 Q31.65 -31.05 31.5 -30.2 L30.95 -28.05 31.25 -27.85 M30.25 -26.9 L30.95 -28.05 30.25 -26.9" fill="#cccc66" fill-rule="evenodd" stroke="none"/>
    <path d="M30.95 -28.05 L31.5 -30.2 Q31.65 -31.05 31.35 -31.75 L30.1 -33.4 Q29.2 -34.2 28.1 -34.5 L24.6 -34.4 23.05 -33.8 Q20.55 -33.0 18.15 -31.45 L17.65 -31.1 15.75 -29.95 15.3 -29.65 12.6 -27.3 9.75 -24.5 9.25 -24.05 8.8 -23.55 7.55 -22.05 7.15 -21.55 Q5.7 -19.95 4.65 -18.2 L2.35 -15.05 Q1.65 -14.3 1.3 -13.4 L1.05 -12.95 -0.6 -9.7 Q-1.35 -7.85 -2.65 -6.2 L-3.0 -5.25 -3.1 -4.85 Q-5.15 -1.4 -6.05 2.3 L-6.2 2.7 Q-7.65 6.2 -8.6 9.85 L-8.7 10.25 -9.55 12.6 Q-10.65 16.2 -11.1 20.15 L-11.2 20.75 -11.35 22.05 -11.35 22.45 -11.5 23.8 -11.75 26.15 -11.8 27.7 -11.75 30.0 -11.6 31.35 -11.55 33.15 -11.25 33.9 Q-11.1 34.1 -11.05 34.45 -10.75 33.7 -10.75 32.75 L-10.7 32.5 Q-10.5 31.65 -9.95 31.1 L-9.85 30.8 -9.75 30.4 -9.2 28.8 -8.65 27.55 -8.4 26.75 -7.4 23.65 -5.5 17.6 -4.45 14.5 -4.25 14.15 -1.75 8.35 -1.5 7.55 -1.35 7.15 Q-0.2 4.45 1.3 2.1 L1.55 1.75 3.3 -0.95 3.5 -1.15 4.35 -2.3 4.6 -2.75 6.65 -5.4 8.1 -7.05 8.35 -7.35 10.3 -9.25 11.45 -10.25 Q12.85 -11.6 15.1 -13.05 L15.5 -13.3 21.7 -17.4 25.25 -20.1 27.35 -22.05 29.2 -24.05 30.35 -25.45 30.5 -25.7 30.55 -25.95 30.9 -27.1 30.95 -27.35 31.25 -27.85 M30.95 -28.05 L30.25 -26.9" fill="none" stroke="#000000" stroke-linecap="round" stroke-linejoin="round" stroke-width="0.05"/>
  </g>
</svg>
