<?xml version="1.0" encoding="UTF-8" standalone="no"?>
<svg xmlns:xlink="http://www.w3.org/1999/xlink" height="44.7px" width="18.45px" xmlns="http://www.w3.org/2000/svg">
  <g transform="matrix(1.0, 0.0, 0.0, 1.0, 0.0, 0.0)">
    <path d="M-0.8 24.25 Q2.2 17.95 1.55 10.95 L1.25 8.05 -0.15 8.5 -2.0 6.15 -1.1 5.75 Q0.25 5.25 1.7 4.85 L1.1 4.25 0.45 3.7 -0.25 3.25 -1.05 2.75 -0.85 1.65 -0.65 1.45 0.65 1.25 -1.05 -1.05 -0.15 -1.35 1.55 -1.35 2.4 -1.05 2.5 -0.5 2.65 0.05 2.9 0.5 3.15 0.85 4.1 0.2 4.35 -0.8 3.25 -3.15 6.8 -2.2 6.65 -1.0 7.8 -2.65 6.2 -5.1 8.15 -6.25 8.55 -12.2 8.3 -12.6 9.35 -20.45 Q10.3 -18.95 10.7 -17.25 11.05 -15.6 10.45 -14.05 L10.15 -13.45 9.9 -13.6 9.2 -13.25 12.35 -12.0 10.15 -9.65 10.9 -9.2 11.4 -8.75 12.0 -8.3 12.4 -7.8 11.75 -7.25 11.15 -6.7 10.8 -6.15 10.55 -5.5 13.75 -4.95 13.8 -3.3 15.1 -2.25 15.3 0.0 M5.35 12.95 Q11.1 11.4 15.4 7.2 L16.45 6.15 M10.8 13.2 L16.15 10.3" fill="none" stroke="#66ff99" stroke-linecap="round" stroke-linejoin="round" stroke-width="0.05"/>
  </g>
</svg>
