<?xml version="1.0" encoding="UTF-8" standalone="no"?>
<svg xmlns:xlink="http://www.w3.org/1999/xlink" height="66.35px" width="31.45px" xmlns="http://www.w3.org/2000/svg">
  <g transform="matrix(1.0, 0.0, 0.0, 1.0, 0.0, 0.0)">
    <path d="M6.15 -26.45 L7.55 -27.05 Q10.05 -26.2 11.05 -23.3 16.95 -6.1 14.7 12.0 L8.5 30.55 7.35 30.15 2.6 29.9 Q-2.0 29.65 -9.0 36.8 -15.5 43.35 -16.1 32.8 -15.55 33.8 -12.75 29.25 -8.75 22.75 -2.95 23.05 -2.45 14.95 -2.5 6.45 -2.55 -2.1 2.15 -4.7 6.85 -7.3 6.15 -26.45" fill="#fece5f" fill-opacity="0.77254903" fill-rule="evenodd" stroke="none"/>
    <path d="M6.15 -26.45 Q6.85 -7.3 2.15 -4.7 -2.55 -2.1 -2.5 6.45 -2.45 14.95 -2.95 23.05 -8.75 22.75 -12.75 29.25 -15.55 33.8 -16.1 32.8 -15.5 43.35 -9.0 36.8 -2.0 29.65 2.6 29.9 L7.35 30.15 8.5 30.55 14.7 12.0 Q16.95 -6.1 11.05 -23.3 10.05 -26.2 7.55 -27.05 L6.15 -26.45 M-16.15 30.85 L-16.1 32.8" fill="none" stroke="#000000" stroke-linecap="round" stroke-linejoin="round" stroke-width="0.05"/>
  </g>
</svg>
