<?xml version="1.0" encoding="UTF-8" standalone="no"?>
<svg xmlns:xlink="http://www.w3.org/1999/xlink" height="48.75px" width="39.55px" xmlns="http://www.w3.org/2000/svg">
  <g transform="matrix(1.0, 0.0, 0.0, 1.0, 0.0, 0.0)">
    <path d="M-3.0 -15.2 Q-3.1 -12.1 -1.8 -9.3 -1.4 -8.4 -1.95 -7.55 -3.9 -10.85 -4.85 -14.3 -12.1 -7.45 -14.4 2.25 -14.0 -5.45 -9.9 -12.6 L-3.9 -23.3 Q-2.7 -25.4 -1.7 -24.6 -2.85 -20.0 -3.0 -15.2 M10.7 12.0 Q7.25 11.6 5.15 8.0 3.4 4.9 2.15 1.7 L1.95 0.5 Q5.25 7.2 10.75 11.9 L10.7 12.0" fill="#d3ad4d" fill-rule="evenodd" stroke="none"/>
    <path d="M-1.0 -27.15 Q-0.5 -25.4 -1.1 -22.35 -2.1 -17.0 -0.9 -11.9 L0.9 -5.8 Q2.35 0.0 5.65 5.0 8.45 9.2 13.1 10.65 L15.7 11.0 17.0 10.0 Q18.2 9.15 19.65 9.45 L22.25 10.25 22.95 12.65 Q22.45 14.4 20.5 14.75 14.6 16.2 10.15 20.55 8.45 22.25 6.25 21.15 4.25 20.1 3.3 17.95 1.95 14.95 -1.3 14.55 -2.2 14.5 -2.85 13.85 -6.0 10.55 -8.65 7.0 L-11.25 6.6 -14.6 5.7 -15.45 5.55 -16.1 6.15 Q-16.85 4.35 -16.45 2.4 -14.3 -8.1 -9.4 -17.6 -7.2 -21.9 -3.7 -25.3 L-1.0 -27.15 M-3.0 -15.2 Q-2.85 -20.0 -1.7 -24.6 -2.7 -25.4 -3.9 -23.3 L-9.9 -12.6 Q-14.0 -5.45 -14.4 2.25 -12.1 -7.45 -4.85 -14.3 -3.9 -10.85 -1.95 -7.55 -1.4 -8.4 -1.8 -9.3 -3.1 -12.1 -3.0 -15.2 M-4.7 -9.95 L-5.0 -10.3 -5.35 -10.55 -5.8 -10.7 -6.3 -10.65 Q-7.55 -9.4 -8.25 -7.8 -10.05 -3.55 -12.2 0.6 L-11.7 1.65 Q-10.15 2.1 -8.9 2.95 L-3.25 7.25 2.0 11.75 Q4.3 13.6 6.7 12.6 L1.45 2.85 Q-1.9 -3.25 -4.5 -9.6 L-4.7 -9.95 M10.7 12.0 L10.75 11.9 Q5.25 7.2 1.95 0.5 L2.15 1.7 Q3.4 4.9 5.15 8.0 7.25 11.6 10.7 12.0" fill="#bb934d" fill-rule="evenodd" stroke="none"/>
    <path d="M-4.7 -9.95 L-4.5 -9.6 Q-1.9 -3.25 1.45 2.85 L6.7 12.6 Q4.3 13.6 2.0 11.75 L-3.25 7.25 -8.9 2.95 Q-10.15 2.1 -11.7 1.65 L-12.2 0.6 Q-10.05 -3.55 -8.25 -7.8 -7.55 -9.4 -6.3 -10.65 L-5.8 -10.7 -5.35 -10.55 -5.0 -10.3 -4.7 -9.95 M-5.1 -7.0 L-5.85 -6.8 -9.35 -0.5 -4.6 4.35 Q-2.2 6.7 0.25 5.85 L0.2 5.6 Q-4.05 0.0 -5.1 -7.0" fill="#9a743a" fill-rule="evenodd" stroke="none"/>
    <path d="M-5.1 -7.0 Q-4.05 0.0 0.2 5.6 L0.25 5.85 Q-2.2 6.7 -4.6 4.35 L-9.35 -0.5 -5.85 -6.8 -5.1 -7.0" fill="#7b5c2f" fill-rule="evenodd" stroke="none"/>
    <path d="M-1.0 -27.15 Q-0.5 -25.4 -1.1 -22.35 -2.1 -17.0 -0.9 -11.9 L0.9 -5.8 Q2.35 0.0 5.65 5.0 8.45 9.2 13.1 10.65 L15.7 11.0 17.0 10.0 Q18.2 9.15 19.65 9.45 L22.25 10.25 22.95 12.65 Q22.45 14.4 20.5 14.75 14.6 16.2 10.15 20.55 8.45 22.25 6.25 21.15 4.25 20.1 3.3 17.95 1.95 14.95 -1.3 14.55 -2.2 14.5 -2.85 13.85 -6.0 10.55 -8.65 7.0 L-11.25 6.6 -14.6 5.7 -15.45 5.55 -16.1 6.15 Q-16.85 4.35 -16.45 2.4 -14.3 -8.1 -9.4 -17.6 -7.2 -21.9 -3.7 -25.3 L-1.0 -27.15 Z" fill="none" stroke="#000000" stroke-linecap="round" stroke-linejoin="round" stroke-width="0.05"/>
  </g>
</svg>
