<?xml version="1.0" encoding="UTF-8" standalone="no"?>
<svg xmlns:xlink="http://www.w3.org/1999/xlink" height="26.25px" width="15.05px" xmlns="http://www.w3.org/2000/svg">
  <g transform="matrix(1.0, 0.0, 0.0, 1.0, 0.0, 0.0)">
    <path d="M-12.45 3.65 L-15.2 2.8 -15.55 2.0 Q-14.7 1.0 -13.35 0.35 L-13.85 -1.9 -12.75 -2.7 -11.0 -2.8 Q-12.35 -6.7 -9.95 -10.9 L-10.0 -10.95 -9.95 -10.95 -2.95 -22.25 -2.5 -22.6 -3.5 -12.8 Q-6.95 -12.55 -9.95 -10.95 L-9.95 -10.9 -2.0 -10.65 -6.3 -7.65 -5.15 -7.45 -4.25 -7.35 -2.75 -6.95 -2.15 -6.65 -3.75 -5.3 -3.75 -5.1 -1.6 -4.55 -0.5 -1.65" fill="none" stroke="#66ff99" stroke-linecap="round" stroke-linejoin="round" stroke-width="0.05"/>
  </g>
</svg>
