<?xml version="1.0" encoding="UTF-8" standalone="no"?>
<svg xmlns:xlink="http://www.w3.org/1999/xlink" height="54.95px" width="38.75px" xmlns="http://www.w3.org/2000/svg">
  <g transform="matrix(1.0, 0.0, 0.0, 1.0, 0.0, 0.0)">
    <path d="M-1.75 -25.8 Q-1.7 -25.1 -2.0 -24.9 L-2.15 -24.55 -2.55 -21.1 Q-2.95 -17.7 -2.95 -14.1 L-2.65 -12.3 -2.55 -11.85 Q-2.6 -9.65 -2.15 -7.6 L-1.5 -4.95 -1.1 -3.4 Q-0.3 -0.65 1.2 1.8 L3.1 4.4 3.65 5.0 5.45 7.0 5.85 7.3 8.2 9.2 9.3 10.15 11.8 11.9 12.9 12.75 Q13.4 13.2 13.8 11.6 14.15 9.95 19.65 10.2 25.15 10.45 19.45 14.3 13.7 18.15 13.55 18.45 L12.6 19.8 Q10.5 22.9 7.55 25.1 L7.15 25.25 Q5.45 25.35 4.85 24.45 L2.9 22.2 1.45 20.4 Q0.2 18.7 -1.45 17.05 L-2.05 16.5 -4.4 14.1 -4.85 13.75 Q-6.85 12.4 -9.1 11.4 -10.3 10.9 -11.55 10.5 L-12.05 10.35 Q-14.4 9.5 -15.7 7.5 -16.1 6.9 -16.1 6.05 L-16.15 4.8 -16.05 4.35 Q-16.5 4.0 -16.4 3.05 L-16.2 0.35 -16.1 -0.4 Q-15.7 -3.05 -14.9 -5.4 L-14.7 -6.05 -14.3 -7.6 Q-13.7 -12.15 -11.5 -16.05 L-10.25 -18.35 Q-9.85 -19.0 -9.7 -19.8 L-9.45 -20.4 -7.85 -23.05 Q-6.65 -24.65 -5.8 -26.25 -5.15 -27.55 -4.1 -28.35 L-3.85 -28.55 -2.8 -29.2 -2.45 -29.4 -2.0 -29.7 Q-1.5 -28.3 -1.7 -26.3 L-1.75 -25.8 M-15.7 3.35 Q-15.75 4.15 -16.05 4.35 -15.75 4.15 -15.7 3.35" fill="#fece5f" fill-opacity="0.77254903" fill-rule="evenodd" stroke="none"/>
    <path d="M-1.75 -25.8 Q-1.7 -25.1 -2.0 -24.9 L-2.15 -24.55 -2.55 -21.1 Q-2.95 -17.7 -2.95 -14.1 L-2.65 -12.3 -2.55 -11.85 Q-2.6 -9.65 -2.15 -7.6 L-1.5 -4.95 -1.1 -3.4 Q-0.3 -0.65 1.2 1.8 L3.1 4.4 3.65 5.0 5.45 7.0 5.85 7.3 8.2 9.2 9.3 10.15 11.8 11.9 12.9 12.75 Q13.4 13.2 13.8 11.6 14.15 9.95 19.65 10.2 25.15 10.45 19.45 14.3 13.7 18.15 13.55 18.45 L12.6 19.8 Q10.5 22.9 7.55 25.1 L7.15 25.25 Q5.45 25.35 4.85 24.45 L2.9 22.2 1.45 20.4 Q0.2 18.7 -1.45 17.05 L-2.05 16.5 -4.4 14.1 -4.85 13.75 Q-6.85 12.4 -9.1 11.4 -10.3 10.9 -11.55 10.5 L-12.05 10.35 Q-14.4 9.5 -15.7 7.5 -16.1 6.9 -16.1 6.05 L-16.15 4.8 -16.05 4.35 Q-16.5 4.0 -16.4 3.05 L-16.2 0.35 -16.1 -0.4 Q-15.7 -3.05 -14.9 -5.4 L-14.7 -6.05 -14.3 -7.6 Q-13.7 -12.15 -11.5 -16.05 L-10.25 -18.35 Q-9.85 -19.0 -9.7 -19.8 L-9.45 -20.4 -7.85 -23.05 Q-6.65 -24.65 -5.8 -26.25 -5.15 -27.55 -4.1 -28.35 L-3.85 -28.55 -2.8 -29.2 -2.45 -29.4 -2.0 -29.7 Q-1.5 -28.3 -1.7 -26.3 L-1.75 -25.8 M-16.05 4.35 Q-15.75 4.15 -15.7 3.35" fill="none" stroke="#000000" stroke-linecap="round" stroke-linejoin="round" stroke-width="0.05"/>
  </g>
</svg>
