<?xml version="1.0" encoding="UTF-8" standalone="no"?>
<svg xmlns:xlink="http://www.w3.org/1999/xlink" height="119.45px" width="94.55px" xmlns="http://www.w3.org/2000/svg">
  <g transform="matrix(1.0, 0.0, 0.0, 1.0, 0.0, 0.0)">
    <path d="M25.9 -15.3 L25.95 -15.25 25.95 -15.2 26.0 -15.05 26.15 -14.85 Q26.75 -12.95 26.95 -10.95 L26.95 -10.8 27.0 -10.5 27.1 -8.15 27.1 -3.6 26.9 -0.65 26.85 -0.4 26.85 0.05 Q26.8 1.25 26.35 2.2 L26.0 3.3 25.7 4.1 24.3 8.0 24.2 8.25 24.2 8.45 23.75 9.3 20.5 15.35 18.15 19.25 17.05 21.1 13.2 27.45 12.7 28.2 11.65 30.15 Q10.75 31.75 10.25 33.65 L10.15 34.25 10.1 35.8 9.85 36.05 9.2 35.75 8.85 35.1 8.25 34.25 Q7.95 34.05 7.9 33.2 7.9 32.3 7.55 31.55 L7.2 30.55 6.75 29.95 6.5 29.55 6.0 28.55 Q6.5 26.8 7.7 25.25 L9.75 22.25 10.3 21.35 12.3 18.75 12.45 18.55 13.7 16.7 13.95 16.35 14.75 15.0 16.05 12.7 18.35 7.6 19.1 5.9 Q20.45 2.85 21.4 -0.45 L21.8 -2.1 21.9 -2.75 22.2 -4.9 Q22.65 -6.85 22.35 -8.8 L22.2 -9.2 21.85 -11.35 21.7 -11.95 21.2 -13.95 20.7 -15.4 19.75 -17.1 17.75 -19.15 18.1 -19.55 19.4 -21.05 19.65 -21.3 Q20.0 -22.1 20.45 -21.65 L20.6 -22.3 20.95 -22.85 21.1 -22.9 22.8 -21.2 24.0 -19.6 24.25 -19.3 24.45 -18.95 24.55 -18.6 25.9 -15.3 25.9 -15.25 25.9 -15.15 25.75 -14.95 25.0 -13.95 Q24.8 -13.7 24.4 -13.7 24.8 -13.7 25.0 -13.95 L25.75 -14.95 25.9 -15.15 25.9 -15.25 25.9 -15.3 M25.25 -10.7 L24.0 -9.95 22.8 -9.05 22.35 -8.8 22.8 -9.05 24.0 -9.95 25.25 -10.7 M24.4 -0.85 L23.75 -0.75 23.1 -0.65 21.6 -0.45 21.4 -0.45 21.6 -0.45 23.1 -0.65 23.75 -0.75 24.4 -0.85 M20.45 -21.65 L20.25 -20.4 20.45 -21.65 M17.7 13.6 Q17.25 13.6 17.05 13.4 L16.8 13.25 16.05 12.7 16.8 13.25 17.05 13.4 Q17.25 13.6 17.7 13.6 M26.0 3.3 Q24.7 3.4 23.75 3.95 24.7 3.4 26.0 3.3 M22.45 9.2 L23.1 9.25 23.3 9.05 24.15 8.5 24.2 8.45 24.15 8.5 23.3 9.05 23.1 9.25 22.45 9.2" fill="#cccc66" fill-rule="evenodd" stroke="none"/>
    <path d="M15.1 -25.45 L16.2 -25.25 16.8 -25.05 Q18.8 -24.5 20.25 -23.55 L20.5 -23.4 21.0 -22.95 21.1 -22.9 20.95 -22.85 20.6 -22.3 20.45 -21.65 Q20.0 -22.1 19.65 -21.3 L19.4 -21.05 18.1 -19.55 17.75 -19.15 16.85 -19.8 16.6 -19.95 14.7 -20.6 12.5 -20.95 10.15 -20.85 9.1 -20.75 6.95 -20.25 4.75 -19.55 0.7 -18.15 0.0 -17.9 Q-2.0 -17.2 -3.8 -16.0 L-4.8 -15.45 -5.3 -15.15 -9.3 -12.95 -16.3 -8.15 -17.9 -6.7 -20.7 -3.45 -21.15 -2.95 -26.9 -3.6 -21.15 -2.95 -23.85 0.55 -26.5 4.55 Q-28.85 8.3 -30.8 12.1 L-31.0 12.6 -31.2 12.6 -31.1 12.85 -32.4 16.05 -33.05 18.9 -35.85 21.25 -36.5 21.65 -37.75 22.4 Q-38.7 23.0 -39.65 23.25 L-40.25 23.45 -41.55 23.7 -41.9 23.65 -42.1 23.3 Q-41.95 22.1 -42.6 21.8 L-42.85 21.7 Q-43.95 21.55 -44.5 22.05 L-44.55 22.1 -44.5 22.05 Q-43.95 21.55 -42.85 21.7 L-42.6 21.8 Q-41.95 22.1 -42.1 23.3 L-41.9 23.65 -41.55 23.7 -40.25 23.45 -39.65 23.25 Q-38.7 23.0 -37.75 22.4 L-36.5 21.65 -35.85 21.25 -33.05 18.9 -32.55 18.55 -27.35 14.5 -27.2 14.65 Q-27.1 14.75 -27.15 14.95 L-27.65 17.55 Q-28.0 19.1 -28.8 20.55 -29.45 21.75 -29.35 23.1 -28.55 23.35 -27.95 23.7 -27.65 23.95 -27.15 23.7 L-26.9 23.55 Q-26.45 23.15 -25.65 23.15 -25.3 23.1 -25.15 23.5 -24.85 24.0 -24.3 24.05 L-23.9 24.05 Q-22.35 24.25 -21.1 23.5 -19.75 22.65 -19.0 20.9 L-18.85 20.55 -18.1 18.1 -18.1 17.75 -18.1 17.5 -18.1 17.3 -17.85 17.5 -15.3 19.7 -14.6 20.5 Q-13.6 21.55 -13.45 22.9 L-13.4 23.3 -13.15 25.05 Q-12.85 25.85 -12.25 25.85 L-11.35 25.55 -10.65 24.75 -10.3 24.2 -9.65 22.9 Q-9.05 23.3 -8.8 24.2 -7.7 23.85 -7.25 22.65 L-7.0 22.3 -6.5 21.1 -6.3 20.1 -6.1 18.55 -6.0 17.3 -4.3 19.5 -3.05 21.1 -2.65 21.7 -2.35 22.05 Q-1.2 23.65 -0.75 25.6 L-0.5 26.35 Q0.3 28.25 1.4 29.7 1.9 30.4 3.05 30.15 5.1 29.7 5.65 28.3 L5.85 28.5 5.9 28.5 6.0 28.55 6.5 29.55 6.75 29.95 7.2 30.55 7.55 31.55 Q7.9 32.3 7.9 33.2 7.95 34.05 8.25 34.25 L8.85 35.1 9.2 35.75 9.85 36.05 9.85 36.25 9.95 36.55 9.85 36.85 10.05 37.1 10.05 37.3 10.25 39.9 10.3 40.3 10.35 42.9 10.3 45.25 10.05 47.65 9.85 48.25 Q9.6 49.05 9.65 50.2 L9.6 50.7 9.45 51.3 9.35 51.95 8.9 54.1 7.95 56.45 7.5 57.05 5.15 59.85 4.85 60.2 2.4 62.55 2.2 62.65 Q1.4 62.85 0.7 63.55 L0.4 63.7 -1.5 64.4 -1.85 64.55 -3.2 64.65 Q-2.7 64.2 -2.35 63.55 L-1.6 61.9 Q-1.3 61.15 -1.35 60.35 L-1.35 59.95 -1.5 58.0 -1.8 56.05 -1.8 55.45 Q-1.85 54.8 -2.2 54.35 L-3.65 52.45 -7.05 49.15 -7.3 49.05 -9.4 48.05 -9.85 47.95 -12.85 47.8 -15.25 48.05 -15.7 48.15 -17.85 49.35 -18.25 49.65 -18.55 50.0 Q-20.05 51.25 -21.35 53.2 L-21.65 53.7 -22.6 55.45 Q-23.7 57.2 -23.85 59.25 L-24.0 59.9 -24.2 60.8 -24.25 62.7 -24.15 63.8 -24.0 64.4 -23.75 65.3 -23.55 65.65 Q-23.05 66.6 -22.2 67.25 L-22.4 67.4 -22.8 67.45 -28.65 67.4 -29.45 67.25 -31.25 67.05 -31.6 66.95 -32.3 66.75 -32.7 66.75 Q-33.05 66.55 -33.8 66.3 L-36.15 65.65 Q-38.2 65.0 -40.05 63.95 -41.9 63.0 -43.05 62.05 -44.8 60.6 -46.25 58.8 L-47.05 57.6 -47.8 56.5 -47.95 56.2 -48.4 54.3 Q-48.4 54.1 -48.55 54.0 L-48.75 53.05 -48.9 52.15 -49.2 51.1 -49.3 50.85 -49.5 50.05 Q-49.75 49.05 -50.15 48.25 L-50.55 47.4 Q-50.8 46.9 -51.2 46.5 L-51.55 45.5 -51.6 45.05 -51.45 43.55 -51.2 42.5 -51.2 42.15 Q-51.8 41.35 -50.85 40.5 L-50.55 40.25 Q-48.65 39.4 -48.3 37.05 L-48.35 36.75 Q-48.65 36.1 -48.2 35.4 -47.1 33.8 -46.45 31.95 L-45.7 30.35 -45.5 30.0 Q-45.1 26.9 -45.25 23.75 L-45.7 23.45 -44.85 22.45 -44.6 22.1 -44.55 22.1 -44.6 22.05 Q-44.5 18.05 -42.75 14.45 L-38.8 6.7 Q-36.8 2.85 -34.05 -0.65 -32.7 -2.35 -31.5 -4.2 L-30.8 -5.15 -27.35 -8.45 -24.75 -10.65 -24.15 -11.2 -18.75 -15.5 -17.2 -16.7 -16.8 -16.95 -14.05 -18.45 -12.85 -19.05 -10.9 -20.1 Q-9.3 -21.15 -7.5 -21.7 L-7.05 -21.95 -4.35 -23.1 0.7 -24.85 2.2 -25.15 2.8 -25.3 7.6 -25.95 7.7 -25.75 7.7 -25.95 15.1 -25.45 Q15.45 -24.75 15.3 -23.6 15.45 -24.75 15.1 -25.45 M7.7 -25.75 Q8.05 -24.75 8.85 -24.3 8.05 -24.75 7.7 -25.75 M-33.15 19.65 L-33.05 18.9 -33.15 19.65 M0.7 57.8 L0.8 57.35 1.5 55.8 2.5 53.2 2.7 52.6 Q3.45 50.95 3.2 49.15 L2.95 48.25 Q2.05 46.45 1.85 44.45 L1.7 44.05 Q0.6 42.25 1.2 40.1 L1.2 39.25 1.2 39.05 Q1.1 38.15 0.6 38.15 0.45 38.85 -0.2 39.25 L-0.95 39.95 -3.25 42.45 -3.55 42.75 -4.05 43.1 -4.4 43.05 -4.7 42.7 Q-5.6 41.3 -5.4 39.5 -5.3 38.85 -5.45 38.15 L-5.75 35.55 -5.8 35.35 -6.0 35.55 -6.8 36.5 Q-7.7 38.25 -9.0 39.65 L-9.75 40.25 Q-11.25 41.05 -12.4 42.25 L-12.9 42.55 Q-13.55 42.7 -13.9 42.25 L-14.4 41.45 Q-14.95 40.3 -14.95 39.05 L-14.9 38.15 -14.8 36.65 Q-14.6 34.85 -15.5 33.2 L-16.7 30.85 Q-17.3 29.15 -18.95 29.15 L-19.15 29.15 -19.05 29.5 Q-18.55 30.3 -18.7 31.3 -19.05 34.05 -20.35 36.5 L-21.85 38.85 -22.45 39.6 -23.85 41.0 Q-24.8 41.85 -25.4 41.0 L-25.65 40.55 Q-25.85 39.85 -26.45 39.65 L-26.75 40.05 -27.3 41.0 -28.3 43.1 -28.55 43.8 Q-28.95 44.6 -29.7 44.9 -30.85 45.45 -31.55 44.4 L-32.9 41.85 Q-33.0 41.45 -33.25 41.0 -34.1 39.05 -34.0 36.95 L-34.0 36.9 -34.4 37.0 -34.65 37.05 Q-36.3 38.1 -37.65 39.7 L-38.2 40.3 Q-39.9 42.05 -40.3 44.45 -40.8 47.55 -40.05 50.65 L-39.9 51.3 Q-39.65 53.55 -38.35 55.65 L-37.8 56.4 Q-35.8 59.0 -32.9 60.55 L-32.35 60.85 Q-31.15 61.7 -29.7 61.6 -31.15 61.7 -32.35 60.85 L-32.9 60.55 Q-35.8 59.0 -37.8 56.4 L-38.35 55.65 Q-39.65 53.55 -39.9 51.3 L-40.05 50.65 Q-40.8 47.55 -40.3 44.45 -39.9 42.05 -38.2 40.3 L-37.65 39.7 Q-36.3 38.1 -34.65 37.05 L-34.4 37.0 -34.0 36.9 -34.0 36.95 Q-34.1 39.05 -33.25 41.0 -33.0 41.45 -32.9 41.85 L-31.55 44.4 Q-30.85 45.45 -29.7 44.9 -28.95 44.6 -28.55 43.8 L-28.3 43.1 -27.3 41.0 -26.75 40.05 -26.45 39.65 Q-25.85 39.85 -25.65 40.55 L-25.4 41.0 Q-24.8 41.85 -23.85 41.0 L-22.45 39.6 -21.85 38.85 -20.35 36.5 Q-19.05 34.05 -18.7 31.3 -18.55 30.3 -19.05 29.5 L-19.15 29.15 -18.95 29.15 Q-17.3 29.15 -16.7 30.85 L-15.5 33.2 Q-14.6 34.85 -14.8 36.65 L-14.9 38.15 -14.95 39.05 Q-14.95 40.3 -14.4 41.45 L-13.9 42.25 Q-13.55 42.7 -12.9 42.55 L-12.4 42.25 Q-11.25 41.05 -9.75 40.25 L-9.0 39.65 Q-7.7 38.25 -6.8 36.5 L-6.0 35.55 -5.8 35.35 -5.75 35.55 -5.45 38.15 Q-5.3 38.85 -5.4 39.5 -5.6 41.3 -4.7 42.7 L-4.4 43.05 -4.05 43.1 -3.55 42.75 -3.25 42.45 -0.95 39.95 -0.2 39.25 Q0.45 38.85 0.6 38.15 1.1 38.15 1.2 39.05 L1.2 39.25 1.2 40.1 Q0.6 42.25 1.7 44.05 L1.85 44.45 Q2.05 46.45 2.95 48.25 L3.2 49.15 Q3.45 50.95 2.7 52.6 L2.5 53.2 1.5 55.8 0.8 57.35 0.7 57.8 M-3.65 -22.35 Q-4.0 -21.95 -4.15 -22.35 L-4.35 -23.1 -4.15 -22.35 Q-4.0 -21.95 -3.65 -22.35 M-6.65 -18.25 L-4.9 -15.65 -4.8 -15.45 -4.9 -15.65 -6.65 -18.25 M-14.05 -18.45 L-13.95 -17.8 -14.05 -18.45 M-33.6 13.2 Q-33.15 12.85 -32.3 12.85 L-31.4 12.7 -31.2 12.6 -31.4 12.7 -32.3 12.85 Q-33.15 12.85 -33.6 13.2" fill="#fece5f" fill-opacity="0.77254903" fill-rule="evenodd" stroke="none"/>
    <path d="M7.6 -25.95 L7.65 -25.95 6.75 -28.15 6.7 -28.55 Q6.8 -29.95 7.5 -31.0 L7.7 -31.4 Q9.6 -35.05 10.95 -38.95 L11.15 -39.5 Q11.8 -41.6 11.35 -43.95 L10.7 -46.05 Q10.2 -47.05 9.85 -48.15 L9.25 -49.45 8.35 -50.9 7.8 -51.45 7.65 -51.6 7.35 -52.0 Q9.25 -51.75 10.65 -50.8 L12.05 -49.45 12.7 -48.35 12.85 -47.95 13.55 -46.45 13.6 -46.0 13.55 -43.65 13.4 -42.95 Q13.2 -42.05 13.15 -41.05 13.05 -40.0 12.6 -39.1 12.2 -38.25 12.05 -37.2 L11.95 -36.95 Q11.6 -35.9 11.6 -34.6 L11.55 -34.2 11.5 -32.05 Q11.55 -30.9 11.95 -30.1 12.7 -28.55 14.1 -26.65 L14.25 -26.45 15.1 -25.45 16.2 -25.25 16.8 -25.05 Q18.8 -24.5 20.25 -23.55 L20.5 -23.4 21.0 -22.95 21.1 -22.9 21.2 -22.95 Q22.4 -24.1 24.65 -24.35 L25.05 -24.45 27.0 -24.95 28.95 -25.45 29.35 -25.5 32.7 -27.4 33.7 -27.95 Q35.15 -28.9 35.65 -30.3 L36.2 -32.05 Q36.65 -33.55 36.1 -34.9 L35.95 -35.25 35.85 -35.7 Q35.45 -36.85 34.7 -37.2 L36.75 -35.75 37.95 -33.75 38.15 -33.35 38.3 -32.45 Q38.5 -31.2 38.25 -30.45 L38.05 -29.9 Q37.7 -28.8 36.9 -27.95 35.7 -26.4 34.0 -25.25 L33.0 -24.5 32.15 -24.05 30.4 -23.15 Q29.35 -22.65 28.7 -21.45 L28.5 -21.2 27.5 -20.05 27.3 -19.8 27.2 -19.5 26.65 -17.75 26.55 -16.95 26.2 -15.8 26.0 -15.45 25.9 -15.3 25.95 -15.25 25.95 -15.2 26.0 -15.05 26.15 -14.85 Q26.75 -12.95 26.95 -10.95 L26.95 -10.8 27.0 -10.5 27.1 -8.15 27.1 -3.6 26.9 -0.65 26.85 -0.4 26.85 0.05 Q26.8 1.25 26.35 2.2 L26.0 3.3 27.4 3.3 Q28.95 3.45 30.2 4.25 L33.4 6.15 34.75 6.9 Q37.0 7.85 39.45 7.8 40.3 7.8 40.95 7.3 41.25 7.0 41.8 7.05 L42.25 6.95 42.95 6.3 Q42.1 8.0 40.2 9.05 L39.85 9.25 39.45 9.55 37.95 10.05 37.1 10.15 Q33.7 9.9 30.8 8.55 L28.95 7.95 27.0 7.7 25.05 8.05 24.2 8.45 23.75 9.3 20.5 15.35 18.15 19.25 17.05 21.1 13.2 27.45 12.7 28.2 11.65 30.15 Q10.75 31.75 10.25 33.65 L10.15 34.25 10.1 35.8 10.05 36.25 9.95 36.55 10.05 36.9 10.05 37.1 10.05 37.3 10.25 39.9 10.3 40.3 10.35 42.9 10.3 45.25 10.05 47.65 9.85 48.25 Q9.6 49.05 9.65 50.2 L9.6 50.7 9.45 51.3 9.35 51.95 8.9 54.1 7.95 56.45 7.5 57.05 5.15 59.85 4.85 60.2 2.4 62.55 2.2 62.65 Q1.4 62.85 0.7 63.55 L0.4 63.7 -1.5 64.4 -1.85 64.55 -3.2 64.65 Q-2.7 64.2 -2.35 63.55 L-1.6 61.9 Q-1.3 61.15 -1.35 60.35 L-1.35 59.95 -1.5 58.0 -1.8 56.05 -1.8 55.45 Q-1.85 54.8 -2.2 54.35 L-3.65 52.45 -7.05 49.15 -7.3 49.05 -9.4 48.05 -9.85 47.95 -12.85 47.8 -15.25 48.05 -15.7 48.15 -17.85 49.35 -18.25 49.65 -18.55 50.0 Q-20.05 51.25 -21.35 53.2 L-21.65 53.7 -22.6 55.45 Q-23.7 57.2 -23.85 59.25 L-24.0 59.9 -24.2 60.8 -24.25 62.7 -24.15 63.8 -24.0 64.4 -23.75 65.3 -23.55 65.65 Q-23.05 66.6 -22.2 67.25 L-22.4 67.4 -22.8 67.45 -28.65 67.4 -29.45 67.25 -31.25 67.05 -31.6 66.95 -32.3 66.75 -32.7 66.75 Q-33.05 66.55 -33.8 66.3 L-36.15 65.65 Q-38.2 65.0 -40.05 63.95 -41.9 63.0 -43.05 62.05 -44.8 60.6 -46.25 58.8 L-47.05 57.6 -47.8 56.5 -47.95 56.2 -48.4 54.3 Q-48.4 54.1 -48.55 54.0 L-48.75 53.05 -48.9 52.15 -49.2 51.1 -49.3 50.85 -49.5 50.05 Q-49.75 49.05 -50.15 48.25 L-50.55 47.4 Q-50.8 46.9 -51.2 46.5 L-51.55 45.5 -51.6 45.05 -51.45 43.55 -51.2 42.5 -51.2 42.15 Q-51.8 41.35 -50.85 40.5 L-50.55 40.25 Q-48.65 39.4 -48.3 37.05 L-48.35 36.75 Q-48.65 36.1 -48.2 35.4 -47.1 33.8 -46.45 31.95 L-45.7 30.35 -45.5 30.0 Q-45.1 26.9 -45.25 23.75 M-45.7 23.45 L-46.05 24.0 M-4.35 -23.1 L0.7 -24.85 2.2 -25.15 2.8 -25.3 7.6 -25.95 M7.7 -25.75 L7.7 -25.95 7.65 -25.95 M7.7 -25.95 L15.1 -25.45 Q15.45 -24.75 15.3 -23.6 M-4.8 -15.45 L-3.8 -16.0 Q-2.0 -17.2 0.0 -17.9 L0.7 -18.15 4.75 -19.55 6.95 -20.25 9.1 -20.75 10.15 -20.85 12.5 -20.95 14.7 -20.6 16.6 -19.95 16.85 -19.8 17.75 -19.15 18.1 -19.55 19.4 -21.05 19.65 -21.3 Q20.0 -22.1 20.45 -21.65 L20.6 -22.3 20.95 -22.85 21.1 -22.9 22.8 -21.2 24.0 -19.6 24.25 -19.3 24.45 -18.95 24.55 -18.6 25.9 -15.3 25.9 -15.25 25.9 -15.15 25.75 -14.95 25.0 -13.95 Q24.8 -13.7 24.4 -13.7 M-4.8 -15.45 L-4.2 -14.4 -3.9 -13.9 -1.35 -10.1 -1.15 -9.75 -1.05 -9.75 -0.2 -9.8 0.7 -9.95 2.2 -10.15 3.05 -10.4 5.2 -10.8 5.65 -10.9 7.7 -11.65 8.7 -11.95 Q9.35 -12.1 9.8 -12.5 L10.1 -12.7 10.35 -12.9 11.5 -13.65 11.85 -13.85 12.7 -14.35 Q13.2 -14.35 12.85 -13.85 L12.75 -13.5 12.9 -12.85 13.6 -13.95 14.4 -14.95 14.7 -15.25 15.75 -16.7 17.75 -19.15 19.75 -17.1 20.7 -15.4 21.2 -13.95 21.7 -11.95 21.85 -11.35 22.2 -9.2 22.35 -8.8 22.8 -9.05 24.0 -9.95 25.25 -10.7 M5.05 -0.15 L5.25 -0.35 5.8 -0.6 6.4 -0.75 4.85 -0.85 4.7 -0.65 5.05 -0.15 5.3 0.3 7.7 3.55 8.15 4.1 10.45 7.55 10.75 7.9 12.25 9.55 12.8 10.05 12.95 10.1 13.35 10.1 Q13.8 9.9 13.65 9.05 13.5 7.9 13.8 7.15 L14.5 5.45 Q15.2 3.85 16.4 2.2 L16.6 1.75 Q16.7 1.15 17.2 0.85 L19.25 -0.4 12.95 -0.4 12.35 -0.45 10.15 -0.65 7.75 -0.65 7.35 -0.7 6.4 -0.75 Q8.15 -1.4 9.7 -2.15 13.6 -3.95 17.05 -5.8 L17.75 -6.15 17.9 -6.45 Q16.75 -6.95 15.7 -7.95 L15.5 -8.1 Q13.65 -9.1 13.4 -11.35 L13.3 -11.75 12.9 -12.85 10.75 -10.05 10.45 -9.6 10.1 -9.0 7.65 -5.3 5.3 -1.6 4.85 -0.85 4.65 -0.85 4.7 -0.65 4.25 0.2 5.05 -0.15 M4.35 -0.85 L4.65 -0.85 Q3.8 -1.95 3.05 -3.2 L0.7 -6.85 -1.15 -9.75 Q-1.8 -9.7 -1.9 -10.3 -1.8 -9.15 -2.2 -8.4 L-2.25 -8.1 -2.75 -7.25 -3.0 -6.9 Q-4.5 -5.15 -6.0 -4.3 L-7.9 -3.3 Q-9.25 -2.75 -10.95 -2.3 L-11.35 -2.2 -12.65 -2.0 -4.9 -1.1 -0.35 -0.95 2.0 -0.9 4.35 -0.85 M17.75 -6.15 L18.65 -6.75 19.0 -6.95 19.2 -7.0 21.85 -8.45 22.35 -8.8 Q22.65 -6.85 22.2 -4.9 L21.9 -2.75 21.8 -2.1 21.4 -0.45 21.6 -0.45 23.1 -0.65 23.75 -0.75 24.4 -0.85 M19.25 -0.4 L19.4 -0.6 Q18.65 -0.8 18.2 -1.3 L17.9 -1.6 17.4 -2.3 17.1 -3.45 17.2 -4.65 Q17.25 -5.45 17.75 -6.15 M20.25 -20.4 L20.45 -21.65 M8.85 -24.3 Q8.05 -24.75 7.7 -25.75 M19.25 -0.4 L21.4 -0.45 Q20.45 2.85 19.1 5.9 L18.35 7.6 16.05 12.7 16.8 13.25 17.05 13.4 Q17.25 13.6 17.7 13.6 M26.0 3.3 L25.7 4.1 24.3 8.0 24.2 8.25 24.2 8.45 24.15 8.5 23.3 9.05 23.1 9.25 22.45 9.2 M23.75 3.95 Q24.7 3.4 26.0 3.3 M16.05 12.7 L16.0 12.65 14.2 11.3 12.8 10.05 12.5 10.05 10.35 9.9 9.05 10.05 8.65 10.2 Q7.25 10.25 6.25 10.7 L5.4 11.05 2.45 12.15 2.15 12.3 0.3 13.45 Q0.15 13.55 0.05 13.6 L-1.05 14.95 M-3.05 21.1 L-3.05 20.7 -2.9 19.25 -2.45 17.25 -2.25 16.65 -2.0 15.95 -0.55 11.95 2.4 4.1 3.4 1.75 4.25 0.2 Q2.05 1.25 -0.35 2.05 L-8.6 5.05 -11.1 6.0 -10.75 6.0 -10.5 6.05 -9.25 6.4 -8.95 6.5 -6.05 8.55 -4.8 9.65 -4.25 10.6 Q-3.65 11.8 -3.3 13.05 L-3.3 13.85 -3.1 14.45 -2.95 14.7 -2.9 15.6 M6.0 28.55 Q6.5 26.8 7.7 25.25 L9.75 22.25 10.3 21.35 12.3 18.75 12.45 18.55 13.7 16.7 13.95 16.35 14.75 15.0 16.05 12.7 M5.65 28.3 Q5.1 29.7 3.05 30.15 1.9 30.4 1.4 29.7 0.3 28.25 -0.5 26.35 L-0.75 25.6 Q-1.2 23.65 -2.35 22.05 L-2.65 21.7 -3.05 21.1 -4.3 19.5 -6.0 17.3 -6.1 18.55 -6.3 20.1 -6.5 21.1 -7.0 22.3 -7.25 22.65 Q-7.7 23.85 -8.8 24.2 -9.05 23.3 -9.65 22.9 L-10.3 24.2 -10.65 24.75 -11.35 25.55 -12.25 25.85 Q-12.85 25.85 -13.15 25.05 L-13.4 23.3 -13.45 22.9 Q-13.6 21.55 -14.6 20.5 L-15.3 19.7 -17.85 17.5 -18.1 17.3 -18.1 17.5 -18.1 17.75 -18.1 18.1 -18.85 20.55 -19.0 20.9 Q-19.75 22.65 -21.1 23.5 -22.35 24.25 -23.9 24.05 L-24.3 24.05 Q-24.85 24.0 -25.15 23.5 -25.3 23.1 -25.65 23.15 -26.45 23.15 -26.9 23.55 L-27.15 23.7 Q-27.65 23.95 -27.95 23.7 -28.55 23.35 -29.35 23.1 -29.45 21.75 -28.8 20.55 -28.0 19.1 -27.65 17.55 L-27.15 14.95 Q-27.1 14.75 -27.2 14.65 L-27.35 14.5 -32.55 18.55 -33.05 18.9 -33.15 19.65 M5.85 28.5 L5.9 28.5 6.0 28.55 6.5 29.55 6.75 29.95 7.2 30.55 7.55 31.55 Q7.9 32.3 7.9 33.2 7.95 34.05 8.25 34.25 L8.85 35.1 9.2 35.75 M9.85 36.05 L10.1 35.8 M5.65 28.3 L5.65 28.25 5.85 28.5 M10.05 37.1 L9.85 36.85 9.95 36.55 9.85 36.25 9.85 36.05 M-29.7 61.6 Q-31.15 61.7 -32.35 60.85 L-32.9 60.55 Q-35.8 59.0 -37.8 56.4 L-38.35 55.65 Q-39.65 53.55 -39.9 51.3 L-40.05 50.65 Q-40.8 47.55 -40.3 44.45 -39.9 42.05 -38.2 40.3 L-37.65 39.7 Q-36.3 38.1 -34.65 37.05 L-34.4 37.0 -34.0 36.9 -34.0 36.95 Q-34.1 39.05 -33.25 41.0 -33.0 41.45 -32.9 41.85 L-31.55 44.4 Q-30.85 45.45 -29.7 44.9 -28.95 44.6 -28.55 43.8 L-28.3 43.1 -27.3 41.0 -26.75 40.05 -26.45 39.65 Q-25.85 39.85 -25.65 40.55 L-25.4 41.0 Q-24.8 41.85 -23.85 41.0 L-22.45 39.6 -21.85 38.85 -20.35 36.5 Q-19.05 34.05 -18.7 31.3 -18.55 30.3 -19.05 29.5 L-19.15 29.15 -18.95 29.15 Q-17.3 29.15 -16.7 30.85 L-15.5 33.2 Q-14.6 34.85 -14.8 36.65 L-14.9 38.15 -14.95 39.05 Q-14.95 40.3 -14.4 41.45 L-13.9 42.25 Q-13.55 42.7 -12.9 42.55 L-12.4 42.25 Q-11.25 41.05 -9.75 40.25 L-9.0 39.65 Q-7.7 38.25 -6.8 36.5 L-6.0 35.55 -5.8 35.35 -5.75 35.55 -5.45 38.15 Q-5.3 38.85 -5.4 39.5 -5.6 41.3 -4.7 42.7 L-4.4 43.05 -4.05 43.1 -3.55 42.75 -3.25 42.45 -0.95 39.95 -0.2 39.25 Q0.45 38.85 0.6 38.15 1.1 38.15 1.2 39.05 L1.2 39.25 1.2 40.1 Q0.6 42.25 1.7 44.05 L1.85 44.45 Q2.05 46.45 2.95 48.25 L3.2 49.15 Q3.45 50.95 2.7 52.6 L2.5 53.2 1.5 55.8 0.8 57.35 0.7 57.8 M-14.05 -18.45 Q-14.3 -20.1 -15.15 -21.45 L-16.6 -22.95 -18.3 -24.25 -21.55 -26.85 -22.55 -27.6 -22.8 -27.9 Q-24.3 -29.15 -25.3 -31.0 L-25.4 -31.4 Q-26.3 -33.35 -26.5 -35.7 -26.65 -37.55 -26.15 -39.2 L-25.95 -39.75 -25.85 -40.0 -23.85 -43.45 Q-22.7 -45.4 -23.7 -47.5 L-24.5 -48.9 -24.8 -49.2 Q-25.2 -49.9 -26.3 -50.75 L-24.95 -50.6 -24.3 -50.45 Q-23.3 -50.35 -22.55 -49.55 L-22.2 -49.25 Q-20.95 -48.45 -20.3 -47.45 L-19.95 -46.95 Q-19.3 -45.55 -19.8 -43.7 L-20.05 -43.25 -20.55 -42.5 -20.7 -42.15 -20.9 -41.35 -21.4 -40.15 -21.85 -39.1 -22.0 -38.5 -22.1 -38.25 Q-22.45 -37.25 -22.45 -36.1 -22.45 -34.9 -21.8 -34.1 L-21.3 -33.5 -19.65 -31.55 Q-18.2 -30.0 -16.6 -29.55 L-14.35 -28.85 -10.5 -27.55 -8.65 -26.8 -6.9 -25.75 -4.9 -24.05 -4.35 -23.1 -4.15 -22.35 Q-4.0 -21.95 -3.65 -22.35 M-26.9 -3.6 L-21.15 -2.95 -20.7 -3.45 -17.9 -6.7 -16.3 -8.15 -9.3 -12.95 -5.3 -15.15 -4.8 -15.45 -4.9 -15.65 -6.65 -18.25 M-44.6 22.05 Q-44.5 18.05 -42.75 14.45 L-38.8 6.7 Q-36.8 2.85 -34.05 -0.65 -32.7 -2.35 -31.5 -4.2 L-30.8 -5.15 -27.35 -8.45 -24.75 -10.65 -24.15 -11.2 -18.75 -15.5 -17.2 -16.7 -16.8 -16.95 -14.05 -18.45 -12.85 -19.05 -10.9 -20.1 Q-9.3 -21.15 -7.5 -21.7 L-7.05 -21.95 -4.35 -23.1 M-13.95 -17.8 L-14.05 -18.45 M-11.2 5.45 Q-10.3 4.1 -10.65 2.0 L-11.1 0.65 -11.65 -0.4 -11.8 -0.6 -13.1 -1.7 -13.35 -1.85 -12.65 -2.0 -21.15 -2.95 -23.85 0.55 -26.5 4.55 Q-28.85 8.3 -30.8 12.1 L-31.0 12.6 Q-27.15 11.15 -23.05 10.05 -19.8 9.25 -16.75 8.1 L-11.45 6.15 -11.1 6.0 M-31.0 12.6 L-31.2 12.6 -31.4 12.7 -32.3 12.85 Q-33.15 12.85 -33.6 13.2 M-31.1 12.85 L-31.0 12.6 M-33.05 18.9 L-32.4 16.05 -31.1 12.85 M-44.55 22.1 L-44.5 22.05 Q-43.95 21.55 -42.85 21.7 L-42.6 21.8 Q-41.95 22.1 -42.1 23.3 L-41.9 23.65 -41.55 23.7 -40.25 23.45 -39.65 23.25 Q-38.7 23.0 -37.75 22.4 L-36.5 21.65 -35.85 21.25 -33.05 18.9 M-45.7 23.45 L-44.85 22.45 -44.6 22.1 -44.6 22.05 M-44.55 22.1 L-44.6 22.1" fill="none" stroke="#000000" stroke-linecap="round" stroke-linejoin="round" stroke-width="0.05"/>
  </g>
</svg>
