<?xml version="1.0" encoding="UTF-8" standalone="no"?>
<svg xmlns:xlink="http://www.w3.org/1999/xlink" height="55.2px" width="41.9px" xmlns="http://www.w3.org/2000/svg">
  <g transform="matrix(1.0, 0.0, 0.0, 1.0, 0.0, 0.0)">
    <path d="M0.7 -24.45 L1.45 -24.4 Q3.1 -24.7 4.2 -23.9 L4.35 -23.65 Q4.35 -22.85 5.3 -23.1 L8.05 -23.6 8.55 -23.8 9.7 -23.95 Q10.0 -23.95 10.2 -24.1 11.25 -24.65 11.9 -23.95 9.8 -22.3 7.8 -19.75 L7.4 -19.0 Q7.2 -17.65 7.35 -16.25 7.4 -15.35 7.75 -14.6 L9.1 -16.05 9.75 -16.45 12.8 -18.3 13.15 -18.55 Q13.6 -19.0 14.35 -18.75 L14.05 -18.5 Q13.6 -18.4 13.25 -17.9 11.55 -15.4 10.5 -12.7 L10.45 -12.2 11.1 -10.25 11.9 -7.45 12.1 -7.75 12.25 -8.25 12.9 -9.45 Q13.6 -10.55 14.85 -11.65 L16.1 -12.6 Q18.0 -13.95 19.85 -14.9 21.25 -15.65 22.9 -15.7 L20.45 -12.4 19.65 -11.5 Q17.2 -8.3 16.55 -4.45 L16.4 -3.3 Q16.35 -1.7 16.9 -0.35 L17.0 0.0 Q16.85 0.95 17.7 0.75 L18.25 0.65 19.25 0.95 19.7 1.3 20.45 1.85 20.95 2.05 Q22.0 1.95 22.5 1.15 23.3 -0.15 24.6 -0.85 24.7 0.85 24.0 2.2 23.85 2.5 23.85 2.75 L23.1 6.3 23.0 6.9 Q22.8 8.35 22.15 9.65 L21.95 10.1 Q21.6 10.8 21.55 11.5 L21.45 12.05 21.05 13.45 Q20.95 14.85 21.85 15.9 22.7 16.9 22.9 18.15 L22.8 18.65 Q22.5 19.2 22.6 20.35 L22.5 21.15 22.15 22.05 21.5 22.7 21.2 22.95 20.45 23.1 Q18.55 22.45 17.4 21.45 16.95 25.45 15.15 28.85 L15.1 29.15 Q15.1 30.0 14.65 30.25 12.95 28.65 11.8 26.15 L11.5 25.25 Q10.45 22.25 10.05 19.0 L9.85 18.2 8.85 15.95 6.15 17.65 4.25 19.05 1.2 21.75 Q-0.95 23.55 -2.7 25.55 L-3.05 26.15 Q-3.5 27.45 -4.35 28.6 L-4.85 27.2 -5.25 24.75 -5.35 23.9 Q-5.6 19.7 -3.5 16.25 L-2.75 15.1 1.15 8.5 0.35 8.4 -1.05 8.35 -1.3 8.4 -2.4 8.35 Q-3.25 8.15 -2.85 7.15 -1.95 4.6 -0.5 3.0 -3.35 3.2 -6.35 4.55 L-7.3 5.05 Q-8.25 5.65 -9.3 6.05 -12.45 7.3 -15.1 9.3 L-16.45 8.6 Q-15.45 6.65 -13.95 4.95 L-13.5 4.35 Q-12.6 3.0 -11.15 2.0 L-10.5 1.5 Q-8.5 -0.35 -6.0 -1.4 L-5.55 -1.75 Q-4.7 -2.6 -4.2 -3.65 -4.05 -3.85 -4.2 -4.0 L-6.75 -5.95 -6.4 -6.4 -3.75 -10.2 Q-3.65 -10.3 -3.7 -10.5 -3.75 -11.5 -4.45 -12.3 L-6.0 -14.05 -6.45 -14.4 Q-6.05 -14.8 -5.9 -15.7 L-5.8 -16.0 -3.5 -20.6 -3.3 -20.95 -1.7 -23.75 Q-1.3 -24.3 -0.5 -24.55 -0.2 -24.6 0.05 -24.8 0.5 -25.1 0.35 -24.75 L0.05 -24.75 Q-0.25 -24.75 0.7 -24.45" fill="#fece5f" fill-opacity="0.77254903" fill-rule="evenodd" stroke="none"/>
    <path d="M0.7 -24.45 L1.45 -24.4 Q3.1 -24.7 4.2 -23.9 L4.35 -23.65 Q4.35 -22.85 5.3 -23.1 L8.05 -23.6 8.55 -23.8 9.7 -23.95 Q10.0 -23.95 10.2 -24.1 11.25 -24.65 11.9 -23.95 9.8 -22.3 7.8 -19.75 L7.4 -19.0 Q7.2 -17.65 7.35 -16.25 7.4 -15.35 7.75 -14.6 L9.1 -16.05 9.75 -16.45 12.8 -18.3 13.15 -18.55 Q13.6 -19.0 14.35 -18.75 L14.05 -18.5 Q13.6 -18.4 13.25 -17.9 11.55 -15.4 10.5 -12.7 L10.45 -12.2 11.1 -10.25 11.9 -7.45 12.1 -7.75 12.25 -8.25 12.9 -9.45 Q13.6 -10.55 14.85 -11.65 L16.1 -12.6 Q18.0 -13.95 19.85 -14.9 21.25 -15.65 22.9 -15.7 L20.45 -12.4 19.65 -11.5 Q17.2 -8.3 16.55 -4.45 L16.4 -3.3 Q16.35 -1.7 16.9 -0.35 L17.0 0.0 Q16.85 0.95 17.7 0.75 L18.25 0.65 19.25 0.95 19.7 1.3 20.45 1.85 20.95 2.05 Q22.0 1.95 22.5 1.15 23.3 -0.15 24.6 -0.85 24.7 0.85 24.0 2.2 23.85 2.5 23.85 2.75 L23.1 6.3 23.0 6.9 Q22.8 8.35 22.15 9.65 L21.95 10.1 Q21.6 10.8 21.55 11.5 L21.45 12.05 21.05 13.45 Q20.95 14.85 21.85 15.9 22.7 16.9 22.9 18.15 L22.8 18.65 Q22.5 19.2 22.6 20.35 L22.5 21.15 22.15 22.05 21.5 22.7 21.2 22.95 20.45 23.1 Q18.55 22.45 17.4 21.45 16.95 25.45 15.15 28.85 L15.1 29.15 Q15.1 30.0 14.65 30.25 12.95 28.65 11.8 26.15 L11.5 25.25 Q10.45 22.25 10.05 19.0 L9.85 18.2 8.85 15.95 6.15 17.65 4.25 19.05 1.2 21.75 Q-0.95 23.55 -2.7 25.55 L-3.05 26.15 Q-3.5 27.45 -4.35 28.6 L-4.85 27.2 -5.25 24.75 -5.35 23.9 Q-5.6 19.7 -3.5 16.25 L-2.75 15.1 1.15 8.5 0.35 8.4 -1.05 8.35 -1.3 8.4 -2.4 8.35 Q-3.25 8.15 -2.85 7.15 -1.95 4.6 -0.5 3.0 -3.35 3.2 -6.35 4.55 L-7.3 5.05 Q-8.25 5.65 -9.3 6.05 -12.45 7.3 -15.1 9.3 L-17.3 10.75 -16.8 9.3 -16.45 8.6 Q-15.45 6.65 -13.95 4.95 L-13.5 4.35 Q-12.6 3.0 -11.15 2.0 L-10.5 1.5 Q-8.5 -0.35 -6.0 -1.4 L-5.55 -1.75 Q-4.7 -2.6 -4.2 -3.65 -4.05 -3.85 -4.2 -4.0 L-6.75 -5.95 -6.4 -6.4 -3.75 -10.2 Q-3.65 -10.3 -3.7 -10.5 -3.75 -11.5 -4.45 -12.3 L-6.0 -14.05 M-6.45 -14.4 Q-6.05 -14.8 -5.9 -15.7 L-5.8 -16.0 -3.5 -20.6 -3.3 -20.95 -1.7 -23.75 Q-1.3 -24.3 -0.5 -24.55 -0.2 -24.6 0.05 -24.8 0.5 -25.1 0.35 -24.75 L0.4 -24.65 0.7 -24.45 Q-0.25 -24.75 0.05 -24.75 L0.35 -24.75" fill="none" stroke="#000000" stroke-linecap="round" stroke-linejoin="round" stroke-width="0.05"/>
  </g>
</svg>
