<?xml version="1.0" encoding="UTF-8" standalone="no"?>
<svg xmlns:xlink="http://www.w3.org/1999/xlink" height="65.55px" width="66.3px" xmlns="http://www.w3.org/2000/svg">
  <g transform="matrix(1.0, 0.0, 0.0, 1.0, 0.0, 0.0)">
    <path d="M21.35 22.2 Q17.85 25.6 14.9 27.55 L13.2 28.55 11.7 24.7 11.35 24.25 10.9 23.85 10.4 23.6 9.85 23.45 6.8 27.75 5.0 23.25 Q4.2 21.1 2.1 19.8 L1.0 22.75 -2.2 17.7 Q-2.8 16.8 -3.95 16.4 L-7.4 20.7 Q-8.2 21.7 -7.95 24.65 L-8.95 22.75 Q-7.95 20.05 -7.9 17.1 L-7.95 15.1 -8.45 14.85 -13.15 15.6 Q-12.15 13.55 -10.15 12.3 L-8.25 11.15 Q-4.15 4.7 1.25 -0.6 3.05 -2.3 5.15 -3.65 -0.9 1.8 -2.4 9.8 2.4 12.6 8.0 13.6 11.4 10.1 15.6 7.9 L16.6 7.5 Q13.85 10.25 11.85 13.8 15.0 20.55 20.1 19.05 L26.25 16.95 21.35 22.2 M14.75 24.2 Q14.5 24.05 14.6 23.55 L14.65 23.3 14.9 23.0 15.3 22.8 15.45 22.7 Q15.7 22.1 15.1 21.9 L14.85 21.7 14.45 21.45 13.25 21.9 13.15 22.05 Q13.15 22.45 12.75 22.35 L12.25 22.25 11.95 22.2 11.75 22.1 11.5 21.75 Q11.5 21.1 12.1 20.75 L11.9 20.45 11.6 20.3 Q10.45 20.3 9.95 20.9 L10.0 20.4 Q10.05 19.95 9.6 20.0 L8.1 20.25 5.65 20.9 Q6.0 19.5 7.05 18.35 L7.5 17.95 9.3 16.25 9.55 15.85 9.55 15.65 9.25 15.35 7.95 15.1 7.45 15.05 7.3 15.0 6.3 15.1 6.1 15.25 5.0 15.95 4.4 16.35 4.2 16.35 4.0 16.1 Q3.9 15.3 3.25 14.8 L2.95 14.65 1.8 14.55 1.3 14.5 0.8 14.4 0.65 14.35 0.5 14.35 Q-0.05 14.4 -0.35 14.75 L-0.45 14.9 -0.55 15.25 -0.7 15.4 -0.8 15.5 -1.85 15.2 -2.2 15.1 -3.35 14.9 -3.3 14.75 -3.25 14.6 -3.15 12.75 Q-3.15 12.2 -3.4 12.0 L-3.65 11.7 Q-3.75 11.55 -4.0 11.5 L-4.7 11.25 Q-5.1 10.95 -5.5 11.25 L-5.65 11.4 -5.9 11.65 Q-6.15 12.35 -6.85 12.8 -7.7 13.35 -8.65 13.4 L-9.5 13.5 Q-10.1 13.6 -10.15 13.25 -10.1 13.6 -9.5 13.5 L-8.65 13.4 Q-7.7 13.35 -6.85 12.8 -6.15 12.35 -5.9 11.65 L-5.65 11.4 -5.5 11.25 Q-5.1 10.95 -4.7 11.25 L-4.0 11.5 Q-3.75 11.55 -3.65 11.7 L-3.4 12.0 Q-3.15 12.2 -3.15 12.75 L-3.25 14.6 -3.3 14.75 -3.35 14.9 -2.2 15.1 -1.85 15.2 -0.8 15.5 -0.7 15.4 -0.55 15.25 -0.45 14.9 -0.35 14.75 Q-0.05 14.4 0.5 14.35 L0.65 14.35 0.8 14.4 1.3 14.5 1.8 14.55 2.95 14.65 3.25 14.8 Q3.9 15.3 4.0 16.1 L4.2 16.35 4.4 16.35 5.0 15.95 6.1 15.25 6.3 15.1 7.3 15.0 7.45 15.05 7.95 15.1 9.25 15.35 9.55 15.65 9.55 15.85 9.3 16.25 7.5 17.95 7.05 18.35 Q6.0 19.5 5.65 20.9 L8.1 20.25 9.6 20.0 Q10.05 19.95 10.0 20.4 L9.95 20.9 Q10.45 20.3 11.6 20.3 L11.9 20.45 12.1 20.75 Q11.5 21.1 11.5 21.75 L11.75 22.1 11.95 22.2 12.25 22.25 12.75 22.35 Q13.15 22.45 13.15 22.05 L13.25 21.9 14.45 21.45 14.85 21.7 15.1 21.9 Q15.7 22.1 15.45 22.7 L15.3 22.8 14.9 23.0 14.65 23.3 14.6 23.55 Q14.5 24.05 14.75 24.2 M-12.45 15.9 L-11.9 15.9 -12.45 15.9" fill="#d3ad4d" fill-rule="evenodd" stroke="none"/>
    <path d="M10.7 30.05 L9.95 29.35 Q5.65 33.9 3.5 40.5 2.8 33.55 3.3 26.45 3.35 25.45 2.35 24.8 1.15 25.35 0.9 26.85 0.5 29.05 0.5 31.05 -1.75 27.05 -2.15 22.3 L-2.15 21.45 -4.05 22.4 Q-8.35 29.05 -6.65 37.05 -10.75 31.55 -9.95 24.15 -9.75 22.2 -9.95 20.25 -11.7 21.3 -12.35 23.5 -12.9 25.45 -12.8 27.4 -13.6 26.75 -13.75 25.7 -13.95 23.9 -15.0 22.1 L-15.55 22.2 Q-16.9 22.9 -18.2 23.75 L-19.05 20.4 Q-19.65 18.45 -19.3 16.3 L-16.45 14.45 -15.05 14.0 -14.35 12.75 -13.25 9.6 Q-6.7 6.05 -3.1 -1.0 -0.3 -6.45 6.3 -7.05 7.95 -6.95 9.5 -7.85 14.35 -10.6 16.7 -15.7 L17.1 -17.1 Q18.8 -21.05 22.65 -23.4 24.1 -24.4 25.75 -25.05 20.65 -19.8 20.0 -12.25 19.8 -9.9 18.65 -8.2 17.6 -6.6 15.75 -5.55 L14.95 -5.25 Q11.0 -4.35 7.55 -2.5 L3.95 -0.3 2.95 2.1 Q1.45 5.35 -0.55 8.4 2.8 8.35 6.35 9.6 8.1 10.3 9.5 8.55 10.5 7.35 11.65 6.3 13.0 5.1 14.65 4.15 16.1 3.3 17.75 2.65 21.85 1.1 25.75 -0.8 31.7 -3.85 37.1 -7.9 38.4 -8.85 39.1 -10.35 39.65 -11.45 40.55 -12.25 40.55 -5.7 34.95 -1.8 32.6 -0.15 30.15 1.35 L25.75 3.9 Q21.65 6.1 18.45 9.45 16.95 11.0 15.6 12.8 L15.95 13.3 Q21.5 17.05 27.85 14.15 L32.35 12.5 33.65 12.1 34.9 11.75 Q41.25 9.8 46.05 5.15 L46.75 4.25 46.85 4.3 Q45.6 11.3 39.05 13.4 32.8 15.55 27.25 18.85 24.95 20.25 23.0 22.2 L21.35 22.2 26.25 16.95 20.1 19.05 Q15.0 20.55 11.85 13.8 13.85 10.25 16.6 7.5 L15.6 7.9 Q11.4 10.1 8.0 13.6 2.4 12.6 -2.4 9.8 -0.9 1.8 5.15 -3.65 3.05 -2.3 1.25 -0.6 -4.15 4.7 -8.25 11.15 L-10.15 12.3 Q-12.15 13.55 -13.15 15.6 L-8.45 14.85 -7.95 15.1 -7.9 17.1 Q-7.95 20.05 -8.95 22.75 L-7.95 24.65 Q-8.2 21.7 -7.4 20.7 L-3.95 16.4 Q-2.8 16.8 -2.2 17.7 L1.0 22.75 2.1 19.8 Q4.2 21.1 5.0 23.25 L6.8 27.75 9.85 23.45 10.4 23.6 10.9 23.85 11.35 24.25 11.7 24.7 13.2 28.55 13.1 28.65 10.7 30.05 M-12.15 12.8 L-11.45 10.45 -7.8 7.65 Q-5.5 5.95 -3.95 3.65 L-2.05 1.0 0.9 -2.4 Q2.1 -3.7 3.5 -4.65 5.95 -6.3 8.8 -6.5 11.7 -7.05 13.9 -8.65 16.15 -10.3 17.35 -12.8 L19.7 -17.6 21.3 -20.6 19.7 -17.6 17.35 -12.8 Q16.15 -10.3 13.9 -8.65 11.7 -7.05 8.8 -6.5 5.95 -6.3 3.5 -4.65 2.1 -3.7 0.9 -2.4 L-2.05 1.0 -3.95 3.65 Q-5.5 5.95 -7.8 7.65 L-11.45 10.45 -12.15 12.8 M18.05 17.5 L18.8 16.5 19.6 16.3 20.7 17.65 24.45 16.85 28.6 15.75 32.65 14.3 36.7 12.75 Q39.15 12.0 41.35 10.75 L43.2 9.15 41.35 10.75 Q39.15 12.0 36.7 12.75 L32.65 14.3 28.6 15.75 24.45 16.85 20.7 17.65 19.6 16.3 18.8 16.5 18.05 17.5 M8.8 11.3 L9.75 10.0 Q11.15 8.1 13.0 6.7 14.85 5.3 17.05 4.3 L21.7 2.7 24.75 1.5 27.7 0.2 30.7 -1.05 Q33.25 -2.15 35.25 -3.9 36.95 -5.3 38.4 -7.15 36.95 -5.3 35.25 -3.9 33.25 -2.15 30.7 -1.05 L27.7 0.2 24.75 1.5 21.7 2.7 17.05 4.3 Q14.85 5.3 13.0 6.7 11.15 8.1 9.75 10.0 L8.8 11.3 M0.3 10.45 Q0.65 10.15 1.1 10.05 L2.6 9.7 2.65 10.85 4.5 10.65 4.9 11.6 5.8 11.05 6.3 11.15 7.35 12.2 7.8 12.2 8.45 12.45 7.8 12.2 7.35 12.2 6.3 11.15 5.8 11.05 4.9 11.6 4.5 10.65 2.65 10.85 2.6 9.7 1.1 10.05 Q0.65 10.15 0.3 10.45 M-12.45 15.9 L-11.9 15.9 -12.45 15.9" fill="#bb934d" fill-rule="evenodd" stroke="none"/>
    <path d="M10.7 30.05 L9.95 29.35 Q5.65 33.9 3.5 40.5 2.8 33.55 3.3 26.45 3.35 25.45 2.35 24.8 1.15 25.35 0.9 26.85 0.5 29.05 0.5 31.05 -1.75 27.05 -2.15 22.3 L-2.15 21.45 -4.05 22.4 Q-8.35 29.05 -6.65 37.05 -10.75 31.55 -9.95 24.15 -9.75 22.2 -9.95 20.25 -11.7 21.3 -12.35 23.5 -12.9 25.45 -12.8 27.4 -13.6 26.75 -13.75 25.7 -13.95 23.9 -15.0 22.1 L-15.55 22.2 Q-16.9 22.9 -18.2 23.75 L-19.05 20.4 Q-19.65 18.45 -19.3 16.3 L-16.45 14.45 -15.05 14.0 -14.35 12.75 -13.25 9.6 Q-6.7 6.05 -3.1 -1.0 -0.3 -6.45 6.3 -7.05 7.95 -6.95 9.5 -7.85 14.35 -10.6 16.7 -15.7 L17.1 -17.1 Q18.8 -21.05 22.65 -23.4 24.1 -24.4 25.75 -25.05 20.65 -19.8 20.0 -12.25 19.8 -9.9 18.65 -8.2 17.6 -6.6 15.75 -5.55 L14.95 -5.25 Q11.0 -4.35 7.55 -2.5 L3.95 -0.3 2.95 2.1 Q1.45 5.35 -0.55 8.4 2.8 8.35 6.35 9.6 8.1 10.3 9.5 8.55 10.5 7.35 11.65 6.3 13.0 5.1 14.65 4.15 16.1 3.3 17.75 2.65 21.85 1.1 25.75 -0.8 31.7 -3.85 37.1 -7.9 38.4 -8.85 39.1 -10.35 39.65 -11.45 40.55 -12.25 40.55 -5.7 34.95 -1.8 32.6 -0.15 30.15 1.35 L25.75 3.9 Q21.65 6.1 18.45 9.45 16.95 11.0 15.6 12.8 L15.95 13.3 Q21.5 17.05 27.85 14.15 L32.35 12.5 33.65 12.1 34.9 11.75 Q41.25 9.8 46.05 5.15 L46.75 4.25 46.85 4.2 46.85 4.3 Q45.6 11.3 39.05 13.4 32.8 15.55 27.25 18.85 24.95 20.25 23.0 22.2 L21.35 22.2" fill="none" stroke="#000000" stroke-linecap="round" stroke-linejoin="round" stroke-width="0.05"/>
    <path d="M-10.15 13.25 Q-10.1 13.6 -9.5 13.5 L-8.65 13.4 Q-7.7 13.35 -6.85 12.8 -6.15 12.35 -5.9 11.65 L-5.65 11.4 -5.5 11.25 Q-5.1 10.95 -4.7 11.25 L-4.0 11.5 Q-3.75 11.55 -3.65 11.7 L-3.4 12.0 Q-3.15 12.2 -3.15 12.75 L-3.25 14.6 -3.3 14.75 -3.35 14.9 -2.2 15.1 -1.85 15.2 -0.8 15.5 -0.7 15.4 -0.55 15.25 -0.45 14.9 -0.35 14.75 Q-0.05 14.4 0.5 14.35 L0.65 14.35 0.8 14.4 1.3 14.5 1.8 14.55 2.95 14.65 3.25 14.8 Q3.9 15.3 4.0 16.1 L4.2 16.35 4.4 16.35 5.0 15.95 6.1 15.25 6.3 15.1 7.3 15.0 7.45 15.05 7.95 15.1 9.25 15.35 9.55 15.65 9.55 15.85 9.3 16.25 7.5 17.95 7.05 18.35 Q6.0 19.5 5.65 20.9 L8.1 20.25 9.6 20.0 Q10.05 19.95 10.0 20.4 L9.95 20.9 Q10.45 20.3 11.6 20.3 L11.9 20.45 12.1 20.75 Q11.5 21.1 11.5 21.75 L11.75 22.1 11.95 22.2 12.25 22.25 12.75 22.35 Q13.15 22.45 13.15 22.05 L13.25 21.9 14.45 21.45 14.85 21.7 15.1 21.9 Q15.7 22.1 15.45 22.7 L15.3 22.8 14.9 23.0 14.65 23.3 14.6 23.55 Q14.5 24.05 14.75 24.2" fill="none" stroke="#990099" stroke-linecap="round" stroke-linejoin="round" stroke-width="0.05"/>
    <path d="M18.65 -8.2 L18.9 -6.85 Q20.25 -1.55 25.75 -0.8 M30.15 1.35 L29.25 5.15 Q30.1 8.25 32.5 10.4 33.5 11.35 34.9 11.75 M2.95 2.1 L8.75 3.85 Q6.9 1.8 7.25 -0.95 L7.55 -2.5 M11.65 6.3 L8.75 3.85 14.65 4.15 M18.45 9.45 L21.2 10.6 Q26.65 12.55 32.35 12.5" fill="none" stroke="#89feda" stroke-linecap="round" stroke-linejoin="round" stroke-width="0.05"/>
    <path d="M21.3 -20.6 L19.7 -17.6 17.35 -12.8 Q16.15 -10.3 13.9 -8.65 11.7 -7.05 8.8 -6.5 5.95 -6.3 3.5 -4.65 2.1 -3.7 0.9 -2.4 L-2.05 1.0 -3.95 3.65 Q-5.5 5.95 -7.8 7.65 L-11.45 10.45 -12.15 12.8 M38.4 -7.15 Q36.95 -5.3 35.25 -3.9 33.25 -2.15 30.7 -1.05 L27.7 0.2 24.75 1.5 21.7 2.7 17.05 4.3 Q14.85 5.3 13.0 6.7 11.15 8.1 9.75 10.0 L8.8 11.3 M43.2 9.15 L41.35 10.75 Q39.15 12.0 36.7 12.75 L32.65 14.3 28.6 15.75 24.45 16.85 20.7 17.65 19.6 16.3 18.8 16.5 18.05 17.5 M8.45 12.45 L7.8 12.2 7.35 12.2 6.3 11.15 5.8 11.05 4.9 11.6 4.5 10.65 2.65 10.85 2.6 9.7 1.1 10.05 Q0.65 10.15 0.3 10.45" fill="none" stroke="#ffffcc" stroke-linecap="round" stroke-linejoin="round" stroke-width="0.05"/>
  </g>
</svg>
