<?xml version="1.0" encoding="UTF-8" standalone="no"?>
<svg xmlns:xlink="http://www.w3.org/1999/xlink" height="59.05px" width="63.15px" xmlns="http://www.w3.org/2000/svg">
  <g transform="matrix(1.0, 0.0, 0.0, 1.0, 0.0, 0.0)">
    <path d="M21.65 -16.9 Q22.75 -17.2 23.45 -17.85 L23.75 -18.05 24.75 -18.5 25.25 -18.6 Q25.25 -18.0 24.6 -17.55 L23.85 -16.75 Q23.85 -16.55 23.65 -16.45 L22.85 -15.65 21.65 -16.9 M-6.7 28.95 Q-7.15 30.75 -6.9 32.85 L-7.95 32.95 -8.1 30.35 -8.15 29.85 -8.05 28.95 -6.7 28.95" fill="#cccc66" fill-rule="evenodd" stroke="none"/>
    <path d="M-22.95 15.9 L-22.95 15.7 Q-23.0 14.25 -22.1 13.05 L-21.85 12.55 -20.75 10.9 -20.5 10.5 Q-19.6 9.6 -18.3 10.0 -17.8 10.15 -17.65 10.35 L-17.25 10.55 -17.0 10.55 Q-16.4 10.6 -16.05 10.05 -15.45 8.9 -14.8 9.05 L-14.3 9.15 Q-12.75 9.4 -12.9 8.1 L-12.7 7.55 -11.4 5.6 -11.05 5.2 Q-10.05 2.65 -8.25 0.35 -6.15 -2.3 -3.4 -4.5 L-2.8 -5.05 -2.0 -5.75 0.15 -7.35 Q4.5 -10.45 8.9 -12.7 L12.3 -14.05 Q12.55 -14.1 12.8 -14.25 14.05 -14.95 15.45 -15.3 L15.95 -15.45 16.7 -15.65 17.2 -15.8 19.6 -16.4 19.9 -16.5 21.65 -16.9 22.85 -15.65 19.6 -12.9 19.0 -12.4 17.7 -11.45 Q15.65 -10.0 13.3 -8.7 11.95 -8.0 10.6 -7.4 L9.8 -7.0 Q7.9 -6.1 6.7 -4.75 L6.3 -4.35 Q5.3 -3.0 5.1 -1.2 5.05 -0.75 5.15 -0.25 5.45 0.7 4.4 0.65 L3.65 0.55 3.15 0.55 2.85 0.65 Q0.0 2.05 -1.35 3.9 -2.1 4.85 -3.55 5.35 L-4.05 5.55 -5.25 6.7 Q-4.75 7.25 -3.6 7.55 -3.05 7.75 -2.6 8.35 L-2.3 8.5 -1.55 8.8 -1.3 8.9 -1.05 8.95 -0.45 8.65 Q0.15 8.25 0.75 8.1 L1.0 8.1 3.7 9.6 4.15 9.7 4.7 9.75 Q5.45 9.8 5.9 9.35 L8.1 6.8 Q8.65 5.95 9.55 5.35 L9.85 5.0 10.25 4.55 10.5 4.1 Q10.85 2.9 11.8 2.1 L12.15 1.8 12.5 0.95 12.75 0.6 13.7 -0.15 Q14.45 -0.75 14.95 -0.4 15.2 -0.2 15.5 -0.15 L18.05 0.5 20.05 0.75 21.75 0.45 22.25 0.3 Q23.35 -0.1 24.5 -1.05 L25.15 -1.5 27.05 -2.85 28.15 -3.8 28.75 -4.3 29.45 -5.05 Q31.7 -7.0 33.1 -9.55 L34.15 -10.8 34.5 -11.25 35.55 -13.65 36.45 -16.05 Q36.9 -17.2 36.85 -18.55 L37.1 -17.55 37.5 -12.8 37.45 -12.25 36.25 -9.3 34.55 -6.75 32.65 -4.4 30.95 -1.9 28.5 1.4 Q27.75 2.15 26.9 3.35 L25.5 5.0 Q24.5 6.05 22.75 6.05 L19.7 6.1 17.7 5.55 17.2 5.35 Q16.9 5.35 16.9 5.6 L16.45 5.65 Q15.8 6.5 15.1 7.9 L14.85 8.25 Q13.6 10.05 13.1 12.15 L13.0 12.45 Q12.35 13.2 13.25 13.3 L13.55 13.4 Q14.5 14.05 15.65 14.15 L16.1 13.95 Q17.0 13.35 17.85 13.15 19.25 12.75 19.7 13.65 L19.9 13.9 21.65 15.45 21.9 15.45 Q22.2 15.2 22.6 15.05 24.6 14.3 26.7 12.85 L30.65 9.7 33.2 7.4 34.55 6.0 34.85 5.55 Q35.1 4.85 35.85 4.15 L36.25 3.75 38.05 0.85 38.25 0.15 39.35 0.45 39.3 1.0 38.75 3.1 37.95 5.05 37.65 5.85 Q36.9 7.0 36.3 8.45 L34.75 10.7 34.25 11.4 Q32.45 14.05 30.3 16.4 L29.35 17.5 Q28.2 18.95 26.7 19.9 26.15 20.3 25.0 20.3 L24.5 20.25 Q23.95 20.1 23.5 20.25 L23.15 20.4 Q22.15 21.05 21.8 21.85 21.7 22.05 21.75 22.3 21.75 22.7 21.9 23.1 22.3 24.25 21.25 24.25 L20.95 24.35 20.25 24.85 Q19.9 25.15 20.25 25.95 L20.5 26.1 20.15 26.65 19.8 27.1 Q19.1 27.9 18.55 29.1 L18.45 29.4 Q18.0 29.9 17.65 29.55 L17.4 29.2 Q16.6 28.35 15.1 28.8 L12.6 29.25 11.65 29.5 11.3 29.05 Q10.0 28.55 9.3 29.3 L8.8 29.65 8.4 30.25 Q7.75 32.0 6.2 33.75 L5.95 34.25 5.0 36.8 4.8 37.6 3.95 37.65 Q3.6 33.6 4.3 29.85 4.5 28.45 5.0 27.4 L5.45 26.4 5.5 25.95 Q5.05 24.45 3.1 24.7 L2.75 25.0 0.75 27.3 0.45 28.1 0.2 28.7 -0.1 29.15 -0.3 29.45 -0.25 28.7 Q-0.25 27.15 -1.05 26.0 L-1.25 25.45 -1.4 22.5 -1.35 20.75 Q-1.35 20.25 -1.8 20.3 L-2.65 21.65 Q-2.9 22.35 -3.5 22.95 -5.0 24.6 -5.8 26.65 L-6.5 28.35 -6.7 28.95 -8.05 28.95 -8.05 25.85 -8.0 25.3 -8.05 22.5 Q-8.15 21.05 -8.95 20.45 L-9.35 20.45 Q-10.15 20.55 -10.55 21.2 L-11.35 22.4 -12.05 23.65 -12.95 26.7 -13.1 26.95 Q-13.65 27.35 -13.45 28.3 -14.0 27.5 -14.0 26.1 L-14.3 22.85 -14.4 22.6 Q-14.45 21.75 -14.9 21.45 -15.7 20.95 -15.9 21.65 L-16.2 22.75 Q-16.6 25.0 -16.65 27.55 L-16.75 28.3 -16.95 31.6 Q-17.7 31.0 -17.95 29.7 -18.1 28.9 -18.5 28.45 -19.1 27.75 -19.3 26.8 L-19.4 25.3 -19.45 25.0 Q-19.6 24.3 -19.25 24.05 L-19.15 23.75 Q-18.8 22.7 -19.1 21.45 L-19.55 20.5 Q-20.0 19.55 -21.05 18.8 L-21.55 18.6 Q-22.35 18.3 -22.75 17.5 L-22.9 17.3 -22.85 17.2 -22.95 16.2 -22.95 15.9" fill="#fece5f" fill-opacity="0.77254903" fill-rule="evenodd" stroke="none"/>
    <path d="M-22.95 15.9 L-22.95 15.7 Q-23.0 14.25 -22.1 13.05 L-21.85 12.55 -20.75 10.9 -20.5 10.5 Q-19.6 9.6 -18.3 10.0 -17.8 10.15 -17.65 10.35 L-17.25 10.55 -17.0 10.55 Q-16.4 10.6 -16.05 10.05 -15.45 8.9 -14.8 9.05 L-14.3 9.15 Q-12.75 9.4 -12.9 8.1 L-12.7 7.55 -11.4 5.6 -11.05 5.2 Q-10.05 2.65 -8.25 0.35 -6.15 -2.3 -3.4 -4.5 L-2.8 -5.05 -2.0 -5.75 0.15 -7.35 Q4.5 -10.45 8.9 -12.7 L12.3 -14.05 Q12.55 -14.1 12.8 -14.25 14.05 -14.95 15.45 -15.3 L15.95 -15.45 16.7 -15.65 17.2 -15.8 19.6 -16.4 19.9 -16.5 21.65 -16.9 Q22.75 -17.2 23.45 -17.85 L23.75 -18.05 24.75 -18.5 25.25 -18.6 Q25.25 -18.0 24.6 -17.55 L23.85 -16.75 Q23.85 -16.55 23.65 -16.45 L22.85 -15.65 19.6 -12.9 19.0 -12.4 17.7 -11.45 Q15.65 -10.0 13.3 -8.7 11.95 -8.0 10.6 -7.4 L9.8 -7.0 Q7.9 -6.1 6.7 -4.75 L6.3 -4.35 Q5.3 -3.0 5.1 -1.2 5.05 -0.75 5.15 -0.25 5.45 0.7 4.4 0.65 L3.65 0.55 3.15 0.55 2.85 0.65 Q0.0 2.05 -1.35 3.9 -2.1 4.85 -3.55 5.35 L-4.05 5.55 -5.25 6.7 Q-4.75 7.25 -3.6 7.55 -3.05 7.75 -2.6 8.35 L-2.3 8.5 -1.55 8.8 -1.3 8.9 -1.05 8.95 -0.45 8.65 Q0.15 8.25 0.75 8.1 L1.0 8.1 3.7 9.6 4.15 9.7 4.7 9.75 Q5.45 9.8 5.9 9.35 L8.1 6.8 Q8.65 5.95 9.55 5.35 L9.85 5.0 10.25 4.55 10.5 4.1 Q10.85 2.9 11.8 2.1 L12.15 1.8 12.5 0.95 12.75 0.6 13.7 -0.15 Q14.45 -0.75 14.95 -0.4 15.2 -0.2 15.5 -0.15 L18.05 0.5 20.05 0.75 21.75 0.45 22.25 0.3 Q23.35 -0.1 24.5 -1.05 L25.15 -1.5 27.05 -2.85 28.15 -3.8 28.75 -4.3 29.45 -5.05 Q31.7 -7.0 33.1 -9.55 L34.15 -10.8 34.5 -11.25 35.55 -13.65 36.45 -16.05 Q36.9 -17.2 36.85 -18.55 L37.1 -17.55 37.5 -12.8 37.45 -12.25 36.25 -9.3 34.55 -6.75 32.65 -4.4 30.95 -1.9 28.5 1.4 Q27.75 2.15 26.9 3.35 L25.5 5.0 Q24.5 6.05 22.75 6.05 L19.7 6.1 17.7 5.55 17.2 5.35 Q16.9 5.35 16.9 5.6 M16.45 5.65 Q15.8 6.5 15.1 7.9 L14.85 8.25 Q13.6 10.05 13.1 12.15 L13.0 12.45 Q12.35 13.2 13.25 13.3 L13.55 13.4 Q14.5 14.05 15.65 14.15 L16.1 13.95 Q17.0 13.35 17.85 13.15 19.25 12.75 19.7 13.65 L19.9 13.9 21.65 15.45 21.9 15.45 Q22.2 15.2 22.6 15.05 24.6 14.3 26.7 12.85 L30.65 9.7 33.2 7.4 34.55 6.0 34.85 5.55 Q35.1 4.85 35.85 4.15 L36.25 3.75 38.05 0.85 38.25 0.15 38.25 0.0 Q38.25 -0.95 39.05 -2.05 39.55 -2.75 39.65 -3.9 40.1 -3.6 39.9 -2.7 L39.8 -2.4 39.6 -1.1 Q39.3 -0.4 39.35 0.45 L39.3 1.0 38.75 3.1 37.95 5.05 37.65 5.85 Q36.9 7.0 36.3 8.45 L34.75 10.7 34.25 11.4 Q32.45 14.05 30.3 16.4 L29.35 17.5 Q28.2 18.95 26.7 19.9 26.15 20.3 25.0 20.3 L24.5 20.25 Q23.95 20.1 23.5 20.25 L23.15 20.4 Q22.15 21.05 21.8 21.85 21.7 22.05 21.75 22.3 21.75 22.7 21.9 23.1 22.3 24.25 21.25 24.25 L20.95 24.35 20.25 24.85 Q19.9 25.15 20.25 25.95 L20.5 26.1 20.15 26.65 19.8 27.1 Q19.1 27.9 18.55 29.1 L18.45 29.4 Q18.0 29.9 17.65 29.55 L17.4 29.2 Q16.6 28.35 15.1 28.8 L12.6 29.25 11.65 29.5 11.3 29.05 Q10.0 28.55 9.3 29.3 L8.8 29.65 8.4 30.25 Q7.75 32.0 6.2 33.75 L5.95 34.25 5.0 36.8 4.8 37.6 4.15 40.45 4.1 39.65 3.95 37.65 Q3.6 33.6 4.3 29.85 4.5 28.45 5.0 27.4 L5.45 26.4 5.5 25.95 Q5.05 24.45 3.1 24.7 L2.75 25.0 0.75 27.3 0.45 28.1 0.2 28.7 -0.1 29.15 -0.3 29.45 -0.25 28.7 Q-0.25 27.15 -1.05 26.0 L-1.25 25.45 -1.4 22.5 -1.35 20.75 Q-1.35 20.25 -1.8 20.3 L-2.65 21.65 Q-2.9 22.35 -3.5 22.95 -5.0 24.6 -5.8 26.65 L-6.5 28.35 -6.7 28.95 Q-7.15 30.75 -6.9 32.85 L-6.75 34.85 Q-6.75 35.7 -7.25 36.05 -7.2 36.5 -7.4 35.85 L-7.4 35.55 -7.95 33.15 -7.95 32.95 -8.1 30.35 -8.15 29.85 -8.05 28.95 -8.05 25.85 -8.0 25.3 -8.05 22.5 Q-8.15 21.05 -8.95 20.45 L-9.35 20.45 Q-10.15 20.55 -10.55 21.2 L-11.35 22.4 -12.05 23.65 -12.95 26.7 -13.1 26.95 Q-13.65 27.35 -13.45 28.3 -14.0 27.5 -14.0 26.1 L-14.3 22.85 -14.4 22.6 Q-14.45 21.75 -14.9 21.45 -15.7 20.95 -15.9 21.65 L-16.2 22.75 Q-16.6 25.0 -16.65 27.55 L-16.75 28.3 -16.95 31.6 Q-17.7 31.0 -17.95 29.7 -18.1 28.9 -18.5 28.45 -19.1 27.75 -19.3 26.8 L-19.4 25.3 -19.45 25.0 Q-19.6 24.3 -19.25 24.05 L-19.15 23.75 Q-18.8 22.7 -19.1 21.45 L-19.55 20.5 Q-20.0 19.55 -21.05 18.8 L-21.55 18.6 Q-22.35 18.3 -22.75 17.5 L-22.9 17.3 -23.15 18.25 M-22.95 15.9 Q-23.45 16.95 -23.0 17.2 L-22.9 17.3 -22.85 17.2 -22.95 16.2 -22.95 15.9 Z" fill="none" stroke="#000000" stroke-linecap="round" stroke-linejoin="round" stroke-width="0.05"/>
  </g>
</svg>
