<?xml version="1.0" encoding="UTF-8" standalone="no"?>
<svg xmlns:xlink="http://www.w3.org/1999/xlink" height="49.65px" width="67.5px" xmlns="http://www.w3.org/2000/svg">
  <g transform="matrix(1.0, 0.0, 0.0, 1.0, 0.0, 0.0)">
    <path d="M50.5 -19.6 Q51.25 -19.35 51.25 -18.15 51.3 -17.25 50.55 -16.85 L50.05 -16.6 Q48.25 -15.3 45.85 -15.65 L44.25 -15.65 Q43.4 -15.5 43.0 -15.9 L42.6 -16.0 42.05 -16.1 Q40.4 -16.3 39.25 -17.75 L38.75 -18.2 38.35 -18.6 37.95 -19.0 37.55 -19.4 35.4 -21.15 34.4 -21.85 Q32.45 -23.0 29.9 -23.75 L29.55 -23.8 26.95 -24.15 26.4 -24.25 24.5 -24.25 22.95 -24.2 22.65 -24.2 21.15 -24.0 18.5 -23.0 Q16.7 -22.2 15.35 -21.0 L14.9 -20.5 12.85 -17.75 12.5 -17.15 Q11.3 -15.3 10.45 -12.75 L10.4 -12.3 10.25 -11.85 Q9.65 -10.55 10.25 -8.95 L10.7 -7.8 11.6 -5.1 11.85 -4.0 12.45 -2.15 13.05 0.55 13.75 6.3 14.0 9.35 13.9 11.3 13.65 12.55 Q13.4 13.8 12.5 14.85 10.7 16.95 8.2 18.5 L7.85 18.7 Q5.5 20.05 2.3 20.8 L-1.35 21.45 -1.95 21.4 -2.8 21.35 -3.2 21.3 -5.3 21.45 -6.0 21.45 -6.85 21.4 -7.55 21.35 -8.1 21.25 -10.6 20.25 Q-11.85 19.85 -12.9 19.05 L-13.2 18.75 -15.05 16.6 -15.4 16.15 Q-16.05 15.25 -16.15 13.4 -16.45 11.85 -16.0 10.95 L-15.95 10.5 -15.75 10.05 -15.45 9.2 Q-15.05 7.65 -13.95 6.55 -13.1 5.75 -11.95 6.15 -12.2 7.2 -12.6 7.8 L-13.4 9.6 -13.55 10.15 Q-13.95 11.45 -13.0 12.9 L-10.8 15.35 -10.25 15.7 Q-8.8 16.6 -7.1 16.6 L-6.45 16.6 -2.5 16.25 Q-0.95 16.1 0.15 15.35 1.95 14.15 3.65 11.95 L5.2 9.65 Q6.65 7.25 7.05 4.6 L7.3 3.4 Q7.6 1.9 7.35 0.25 L7.35 -0.6 Q7.55 -2.0 7.1 -3.45 6.45 -5.45 6.2 -7.65 L6.1 -8.25 Q5.8 -10.05 6.05 -11.65 6.45 -14.0 7.15 -16.15 8.15 -18.85 9.6 -20.85 11.3 -23.35 13.65 -24.65 L16.35 -26.2 16.7 -26.35 25.75 -27.95 29.5 -28.15 30.05 -28.15 31.6 -28.15 Q33.35 -28.15 34.85 -27.5 L35.15 -27.45 Q36.25 -27.55 37.15 -26.75 38.0 -26.05 39.45 -25.75 L41.15 -25.3 Q44.2 -24.4 46.8 -22.7 L47.1 -22.4 Q47.65 -21.7 50.45 -19.9 L50.5 -19.6" fill="#ff0066" fill-rule="evenodd" stroke="none"/>
    <path d="M50.45 -19.9 Q47.65 -21.7 47.1 -22.4 L46.8 -22.7 Q44.2 -24.4 41.15 -25.3 L39.45 -25.75 Q38.0 -26.05 37.15 -26.75 36.25 -27.55 35.15 -27.45 L34.85 -27.5 Q33.35 -28.15 31.6 -28.15 L30.05 -28.15 29.5 -28.15 25.75 -27.95 16.7 -26.35 16.35 -26.2 13.65 -24.65 Q11.3 -23.35 9.6 -20.85 8.15 -18.85 7.15 -16.15 6.45 -14.0 6.05 -11.65 5.8 -10.05 6.1 -8.25 L6.2 -7.65 Q6.45 -5.45 7.1 -3.45 7.55 -2.0 7.35 -0.6 L7.35 0.25 Q7.6 1.9 7.3 3.4 L7.05 4.6 Q6.65 7.25 5.2 9.65 L3.65 11.95 Q1.95 14.15 0.15 15.35 -0.95 16.1 -2.5 16.25 L-6.45 16.6 -7.1 16.6 Q-8.8 16.6 -10.25 15.7 L-10.8 15.35 -13.0 12.9 Q-13.95 11.45 -13.55 10.15 L-13.4 9.6 -12.6 7.8 Q-12.2 7.2 -11.95 6.15 -13.1 5.75 -13.95 6.55 -15.05 7.65 -15.45 9.2 L-15.75 10.05 -15.95 10.5 -16.0 10.95 Q-16.45 11.85 -16.15 13.4 -16.05 15.25 -15.4 16.15 L-15.05 16.6 -13.2 18.75 -12.9 19.05 Q-11.85 19.85 -10.6 20.25 L-8.1 21.25 -7.55 21.35 -6.85 21.4 -6.0 21.45 -5.3 21.45 -3.2 21.3 -2.8 21.35 -1.95 21.4 -1.35 21.45 2.3 20.8 Q5.5 20.05 7.85 18.7 L8.2 18.5 Q10.7 16.95 12.5 14.85 13.4 13.8 13.65 12.55 L13.9 11.3 14.0 9.35 13.75 6.3 13.05 0.55 12.45 -2.15 11.85 -4.0 11.6 -5.1 10.7 -7.8 10.25 -8.95 Q9.65 -10.55 10.25 -11.85 L10.4 -12.3 10.45 -12.75 Q11.3 -15.3 12.5 -17.15 L12.85 -17.75 14.9 -20.5 15.35 -21.0 Q16.7 -22.2 18.5 -23.0 L21.15 -24.0 22.65 -24.2 22.95 -24.2 24.5 -24.25 26.4 -24.25 26.95 -24.15 29.55 -23.8 29.9 -23.75 Q32.45 -23.0 34.4 -21.85 L35.4 -21.15 37.55 -19.4 37.95 -19.0 38.35 -18.6 38.75 -18.2 39.25 -17.75 Q40.4 -16.3 42.05 -16.1 L42.6 -16.0 43.0 -15.9 Q43.4 -15.5 44.25 -15.65 L45.85 -15.65 Q48.25 -15.3 50.05 -16.6 L50.55 -16.85 Q51.3 -17.25 51.25 -18.15 51.25 -19.35 50.5 -19.6" fill="none" stroke="#000000" stroke-linecap="round" stroke-linejoin="round" stroke-width="0.05"/>
  </g>
</svg>
