<?xml version="1.0" encoding="UTF-8" standalone="no"?>
<svg xmlns:xlink="http://www.w3.org/1999/xlink" height="25.95px" width="42.35px" xmlns="http://www.w3.org/2000/svg">
  <g transform="matrix(1.0, 0.0, 0.0, 1.0, 0.0, 0.0)">
    <path d="M-10.25 -0.65 L-9.95 -0.65 -9.15 -1.35 Q-0.5 -9.5 10.8 -12.1 L12.95 -12.6 11.55 -10.05 15.8 -10.45 17.85 -9.8 Q19.05 -9.45 19.7 -8.4 L19.05 -6.1 23.85 -6.15 24.35 -6.35 Q30.75 -4.8 29.75 0.95 26.25 9.0 20.05 5.6 L18.6 4.65 Q18.75 3.8 19.15 3.3 L19.95 2.1 18.6 0.15 17.3 -5.5 Q17.4 -1.35 14.7 -1.15 L15.3 -3.75 13.15 -5.3 12.9 -3.05 Q12.75 -2.15 12.2 -1.45 L11.0 0.45 9.25 -4.2 Q8.55 -5.3 7.3 -5.95 L5.65 -1.0 Q4.6 -1.35 4.25 -2.4 L3.3 -4.65 3.1 -2.1 0.65 3.65 Q-0.1 -0.7 0.3 -2.55 0.5 -3.35 0.0 -4.0 -3.65 -0.25 -4.35 4.65 -5.8 1.3 -5.45 0.1 -5.1 -1.1 -5.9 -2.1 -6.4 -2.1 -6.75 -1.55 L-7.75 0.15 -8.65 2.05 -9.3 4.3 -10.25 -0.65 M1.6 -5.3 Q1.75 -6.5 3.65 -6.5 L4.1 -6.35 4.3 -5.5 4.5 -4.85 4.4 -3.5 4.95 -3.45 Q5.45 -3.45 5.5 -5.4 5.5 -7.35 7.05 -7.35 9.55 -7.35 10.0 -5.4 10.5 -3.45 10.95 -3.45 11.35 -3.45 11.4 -3.75 L11.45 -4.1 11.1 -6.05 11.85 -5.85 Q12.85 -5.85 14.25 -6.6 15.65 -7.4 15.65 -8.0 L15.45 -8.7 Q15.55 -9.2 15.3 -9.25 L11.55 -9.2 10.1 -9.9 Q9.3 -10.25 7.35 -9.9 4.85 -9.45 2.15 -7.85 0.45 -6.8 -1.9 -5.8 -3.6 -4.95 -4.5 -3.2 L-4.2 -3.3 Q-4.8 -1.8 -4.8 -1.1 -4.75 -0.2 -4.25 -0.2 L-3.7 -0.9 Q-0.95 -4.45 0.45 -5.15 L0.75 -3.65 Q0.9 -2.8 1.35 -2.25 1.8 -2.65 1.6 -4.9 L1.6 -5.3 1.8 -4.6 Q2.25 -1.55 1.2 1.5 2.25 -1.55 1.8 -4.6 L1.6 -5.3 M-4.3 2.5 L-4.25 -0.2 -4.3 2.5 M21.55 -1.9 L21.25 -0.5 Q20.4 0.85 19.95 2.1 20.4 0.85 21.25 -0.5 L21.55 -1.9 M23.2 -1.95 Q22.35 -1.1 22.35 0.8 L22.8 2.0 Q23.45 3.15 24.75 3.15 26.05 3.15 26.85 2.15 L27.2 2.15 28.0 1.9 28.4 1.35 Q28.4 0.55 27.55 0.65 L27.8 -0.7 Q27.8 -1.7 27.25 -2.25 L27.5 -3.05 Q27.5 -4.95 25.25 -4.75 23.0 -4.55 23.0 -2.65 L23.2 -1.95 M-9.15 -1.35 L-8.65 2.05 -9.15 -1.35" fill="#bb934d" fill-rule="evenodd" stroke="none"/>
    <path d="M-10.25 -0.65 L-9.95 -4.3 -12.05 -4.0 -12.45 -5.05 Q-12.05 -6.15 -10.8 -6.15 -7.4 -6.55 0.75 -12.0 8.85 -17.45 17.6 -15.4 L17.85 -14.7 18.65 -14.15 Q22.6 -10.75 23.85 -6.15 L19.05 -6.1 19.7 -8.4 Q19.05 -9.45 17.85 -9.8 L15.8 -10.45 11.55 -10.05 12.95 -12.6 10.8 -12.1 Q-0.5 -9.5 -9.15 -1.35 L-9.95 -0.65 -10.25 -0.65 M20.1 -9.45 L18.95 -10.35 Q18.25 -10.85 18.0 -11.8 16.45 -12.5 14.8 -12.25 L15.25 -14.1 Q11.65 -14.45 8.55 -13.1 L-9.15 -4.95 -9.3 -4.1 Q-9.55 -2.7 -9.15 -1.35 -9.55 -2.7 -9.3 -4.1 L-9.15 -4.95 8.55 -13.1 Q11.65 -14.45 15.25 -14.1 L14.8 -12.25 Q16.45 -12.5 18.0 -11.8 18.25 -10.85 18.95 -10.35 L20.1 -9.45 M27.25 -2.25 L26.7 -1.6 Q25.8 -0.75 24.75 -0.75 23.7 -0.75 23.25 -1.7 L23.2 -1.95 23.0 -2.65 Q23.0 -4.55 25.25 -4.75 27.5 -4.95 27.5 -3.05 L27.25 -2.25 M26.85 2.15 Q26.25 2.0 26.25 1.5 26.25 0.95 27.35 0.7 L27.55 0.65 Q28.4 0.55 28.4 1.35 L28.0 1.9 27.2 2.15 26.85 2.15" fill="#d3ad4d" fill-rule="evenodd" stroke="none"/>
    <path d="M-7.75 0.15 L-6.75 -1.55 Q-6.4 -2.1 -5.9 -2.1 -5.1 -1.1 -5.45 0.1 -5.8 1.3 -4.35 4.65 -3.65 -0.25 0.0 -4.0 0.5 -3.35 0.3 -2.55 -0.1 -0.7 0.65 3.65 L3.1 -2.1 3.3 -4.65 4.25 -2.4 Q4.6 -1.35 5.65 -1.0 L7.3 -5.95 Q8.55 -5.3 9.25 -4.2 L11.0 0.45 12.2 -1.45 Q12.75 -2.15 12.9 -3.05 L13.15 -5.3 15.3 -3.75 14.7 -1.15 Q17.4 -1.35 17.3 -5.5 L18.6 0.15 19.95 2.1 19.15 3.3 Q18.75 3.8 18.6 4.65 L20.05 5.6 19.55 6.3 Q18.1 8.0 15.8 8.1 L16.7 5.5 16.25 6.1 Q14.35 9.5 10.4 10.0 11.65 7.5 11.25 4.8 10.1 8.55 6.5 9.25 6.2 8.8 6.55 8.05 7.8 5.05 6.6 2.3 L6.45 2.5 Q5.4 4.75 3.75 6.45 L3.65 6.3 3.8 4.25 3.65 2.1 3.5 1.5 Q2.65 3.55 1.0 4.95 L-0.45 6.25 -1.25 2.4 -1.4 2.4 -2.2 3.5 -3.65 8.3 -4.2 7.75 Q-7.0 4.5 -7.75 0.15" fill="#11ffc0" fill-opacity="0.39215687" fill-rule="evenodd" stroke="none"/>
    <path d="M-4.25 -0.2 Q-4.75 -0.2 -4.8 -1.1 -4.8 -1.8 -4.2 -3.3 L-4.5 -3.2 Q-3.6 -4.95 -1.9 -5.8 0.45 -6.8 2.15 -7.85 4.85 -9.45 7.35 -9.9 9.3 -10.25 10.1 -9.9 L11.55 -9.2 15.3 -9.25 Q15.55 -9.2 15.45 -8.7 L15.65 -8.0 Q15.65 -7.4 14.25 -6.6 12.85 -5.85 11.85 -5.85 L11.1 -6.05 11.45 -4.1 11.4 -3.75 Q11.35 -3.45 10.95 -3.45 10.5 -3.45 10.0 -5.4 9.55 -7.35 7.05 -7.35 5.5 -7.35 5.5 -5.4 5.45 -3.45 4.95 -3.45 L4.4 -3.5 4.5 -4.85 4.3 -5.5 4.1 -6.35 3.65 -6.5 Q1.75 -6.5 1.6 -5.3 L1.6 -4.9 Q1.8 -2.65 1.35 -2.25 0.9 -2.8 0.75 -3.65 L0.45 -5.15 Q-0.95 -4.45 -3.7 -0.9 L-4.25 -0.2 M23.2 -1.95 L23.25 -1.7 Q23.7 -0.75 24.75 -0.75 25.8 -0.75 26.7 -1.6 L27.25 -2.25 Q27.8 -1.7 27.8 -0.7 L27.55 0.65 27.35 0.7 Q26.25 0.95 26.25 1.5 26.25 2.0 26.85 2.15 26.05 3.15 24.75 3.15 23.45 3.15 22.8 2.0 L22.35 0.8 Q22.35 -1.1 23.2 -1.95 M-3.8 -3.5 L-3.55 -3.1 Q-3.15 -2.05 -3.7 -0.9 -3.15 -2.05 -3.55 -3.1 L-3.8 -3.5" fill="#9a743a" fill-rule="evenodd" stroke="none"/>
    <path d="M23.85 -6.15 Q22.6 -10.75 18.65 -14.15 L17.85 -14.7 17.6 -15.4 Q8.85 -17.45 0.75 -12.0 -7.4 -6.55 -10.8 -6.15 -12.05 -6.15 -12.45 -5.05 L-12.05 -4.0 -9.95 -4.3 -10.25 -0.65 -9.3 4.3 -8.65 2.05 -7.75 0.15 -6.75 -1.55 Q-6.4 -2.1 -5.9 -2.1 -5.1 -1.1 -5.45 0.1 -5.8 1.3 -4.35 4.65 -3.65 -0.25 0.0 -4.0 0.5 -3.35 0.3 -2.55 -0.1 -0.7 0.65 3.65 L3.1 -2.1 3.3 -4.65 4.25 -2.4 Q4.6 -1.35 5.65 -1.0 L7.3 -5.95 Q8.55 -5.3 9.25 -4.2 L11.0 0.45 12.2 -1.45 Q12.75 -2.15 12.9 -3.05 L13.15 -5.3 15.3 -3.75 14.7 -1.15 Q17.4 -1.35 17.3 -5.5 L18.6 0.15 19.95 2.1 Q20.4 0.85 21.25 -0.5 L21.55 -1.9 M23.85 -6.15 L24.35 -6.35 Q30.75 -4.8 29.75 0.95 26.25 9.0 20.05 5.6 L18.6 4.65 Q18.75 3.8 19.15 3.3 L19.95 2.1" fill="none" stroke="#000000" stroke-linecap="round" stroke-linejoin="round" stroke-width="0.05"/>
    <path d="M-9.15 -1.35 Q-9.55 -2.7 -9.3 -4.1 L-9.15 -4.95 8.55 -13.1 Q11.65 -14.45 15.25 -14.1 L14.8 -12.25 Q16.45 -12.5 18.0 -11.8 18.25 -10.85 18.95 -10.35 L20.1 -9.45 M1.6 -5.3 L1.8 -4.6 Q2.25 -1.55 1.2 1.5 M-3.7 -0.9 L-4.25 -0.2 -4.3 2.5 M-3.7 -0.9 Q-3.15 -2.05 -3.55 -3.1 L-3.8 -3.5 M-8.65 2.05 L-9.15 -1.35" fill="none" stroke="#ffffcc" stroke-linecap="round" stroke-linejoin="round" stroke-width="0.05"/>
  </g>
</svg>
