<?xml version="1.0" encoding="UTF-8" standalone="no"?>
<svg xmlns:xlink="http://www.w3.org/1999/xlink" height="21.05px" width="28.75px" xmlns="http://www.w3.org/2000/svg">
  <g transform="matrix(1.0, 0.0, 0.0, 1.0, 0.0, 0.0)">
    <path d="M13.65 9.25 L15.4 7.7 15.6 6.7 Q15.1 6.25 14.6 5.95 14.1 5.7 14.1 5.15 L11.9 4.85 9.8 2.65 9.65 6.65 6.95 3.0 4.65 7.05 2.8 3.5 1.95 6.8 1.75 8.45 1.75 10.1 0.2 7.85 -0.4 6.7 -0.85 5.35 -1.45 2.95 -1.8 3.4 -2.1 4.15 -2.2 4.95 -2.15 6.3 -1.85 7.8 -5.5 2.15 -5.9 2.4 -5.8 5.0 Q-7.1 4.05 -7.7 2.7 L-8.4 0.55 Q-9.2 -3.35 -6.4 -6.2 L-6.0 -2.65 -3.55 -5.6 -2.2 -6.9 -0.75 -8.1 -2.65 -2.8 Q0.0 -5.2 2.85 -7.15 L4.8 -8.35 3.3 -5.7 2.9 -4.75 2.65 -3.75 2.55 -2.8 2.5 -1.8 4.05 -3.8 4.8 -4.6 5.65 -5.35 6.6 -6.05 5.65 -1.85 9.8 -5.45 9.15 -1.8 11.05 -3.8 11.9 -4.55 12.85 -5.1 13.9 -5.6 13.95 -6.35 Q15.0 -6.5 15.85 -7.35 L16.3 -7.85 Q15.05 -8.4 14.5 -9.45 L13.6 -10.95 18.6 -8.8 17.75 -8.15 18.4 -7.3 18.15 -6.25 19.4 -6.2 Q21.3 -0.9 18.5 3.65 L18.1 4.2 17.8 4.55 Q17.4 5.35 16.5 5.25 L14.1 5.15 16.5 5.25 Q17.4 5.35 17.8 4.55 L17.9 4.6 17.1 5.5 19.2 6.65 18.8 7.25 Q16.75 9.15 13.65 9.3 L13.65 9.25 M17.75 -2.15 L18.05 -3.3 17.4 -4.15 16.55 -4.35 Q13.4 -4.45 11.3 -2.0 13.4 -4.45 16.55 -4.35 L17.4 -4.15 18.05 -3.3 17.75 -2.15 M2.0 -4.65 L1.1 -3.65 0.5 -2.65 0.3 -1.95 -2.5 0.35 0.1 1.75 1.35 7.8 0.1 1.75 -2.5 0.35 0.3 -1.95 0.5 -2.65 1.1 -3.65 2.0 -4.65 M-3.3 -3.95 L-3.95 -3.3 -4.15 -2.85 -4.2 -2.3 -4.2 -1.15 -4.7 -0.8 Q-5.25 -0.4 -5.85 -0.25 -6.15 -0.05 -6.5 0.0 L-3.8 1.05 -2.8 4.85 -3.8 1.05 -6.5 0.0 Q-6.15 -0.05 -5.85 -0.25 -5.25 -0.4 -4.7 -0.8 L-4.2 -1.15 -4.2 -2.3 -4.15 -2.85 -3.95 -3.3 -3.3 -3.95 M-7.3 -2.95 L-7.45 -2.2 Q-7.7 0.05 -6.8 2.35 -7.7 0.05 -7.45 -2.2 L-7.3 -2.95 M18.15 -6.25 L15.75 -6.1 13.9 -5.6 15.75 -6.1 18.15 -6.25 M-0.5 0.5 L0.5 0.05 0.9 0.7 2.2 0.95 2.8 0.55 4.0 0.5 4.85 1.1 6.3 1.15 6.75 -0.05 8.75 0.85 15.8 -2.35 Q17.1 -1.55 16.75 0.0 15.75 4.35 11.8 1.35 15.75 4.35 16.75 0.0 17.1 -1.55 15.8 -2.35 L8.75 0.85 6.75 -0.05 6.3 1.15 4.85 1.1 4.0 0.5 2.8 0.55 2.2 0.95 0.9 0.7 0.5 0.05 -0.5 0.5" fill="#d3ad4d" fill-rule="evenodd" stroke="none"/>
    <path d="M13.65 9.25 L15.4 7.7 15.6 6.7 Q15.1 6.25 14.6 5.95 14.1 5.7 14.1 5.15 L11.9 4.85 9.8 2.65 9.65 6.65 6.95 3.0 4.65 7.05 2.8 3.5 1.95 6.8 1.75 8.45 1.75 10.1 0.2 7.85 -0.4 6.7 -0.85 5.35 -1.45 2.95 -1.8 3.4 -2.1 4.15 -2.2 4.95 -2.15 6.3 -1.85 7.8 -5.5 2.15 -5.9 2.4 -5.8 5.0 Q-7.1 4.05 -7.7 2.7 L-8.4 0.55 Q-9.2 -3.35 -6.4 -6.2 L-6.0 -2.65 -3.55 -5.6 -2.2 -6.9 -0.75 -8.1 -2.65 -2.8 Q0.0 -5.2 2.85 -7.15 L4.8 -8.35 3.3 -5.7 2.9 -4.75 2.65 -3.75 2.55 -2.8 2.5 -1.8 4.05 -3.8 4.8 -4.6 5.65 -5.35 6.6 -6.05 5.65 -1.85 9.8 -5.45 9.15 -1.8 11.05 -3.8 11.9 -4.55 12.85 -5.1 13.9 -5.6 13.95 -6.35 Q15.0 -6.5 15.85 -7.35 L16.3 -7.85 Q15.05 -8.4 14.5 -9.45 L13.6 -10.95 18.6 -8.8 17.75 -8.15 18.4 -7.3 18.15 -6.25 19.4 -6.2 Q21.3 -0.9 18.5 3.65 L18.1 4.2 17.9 4.6 17.1 5.5 19.2 6.65 18.8 7.25 Q16.75 9.15 13.65 9.3 L13.6 9.3 13.65 9.25 M13.9 -5.6 L15.75 -6.1 18.15 -6.25 M17.8 4.55 Q17.4 5.35 16.5 5.25 L14.1 5.15 M18.1 4.2 L17.8 4.55" fill="none" stroke="#000000" stroke-linecap="round" stroke-linejoin="round" stroke-width="0.05"/>
    <path d="M11.8 1.35 Q15.75 4.35 16.75 0.0 17.1 -1.55 15.8 -2.35 L8.75 0.85 6.75 -0.05 6.3 1.15 4.85 1.1 4.0 0.5 2.8 0.55 2.2 0.95 0.9 0.7 0.5 0.05 -0.5 0.5" fill="none" stroke="#990099" stroke-linecap="round" stroke-linejoin="round" stroke-width="0.05"/>
    <path d="M-6.8 2.35 Q-7.7 0.05 -7.45 -2.2 L-7.3 -2.95 M-2.8 4.85 L-3.8 1.05 -6.5 0.0 Q-6.15 -0.05 -5.85 -0.25 -5.25 -0.4 -4.7 -0.8 L-4.2 -1.15 -4.2 -2.3 -4.15 -2.85 -3.95 -3.3 -3.3 -3.95 M1.35 7.8 L0.1 1.75 -2.5 0.35 0.3 -1.95 0.5 -2.65 1.1 -3.65 2.0 -4.65 M11.3 -2.0 Q13.4 -4.45 16.55 -4.35 L17.4 -4.15 18.05 -3.3 17.75 -2.15" fill="none" stroke="#ffffcc" stroke-linecap="round" stroke-linejoin="round" stroke-width="0.05"/>
  </g>
</svg>
