<?xml version="1.0" encoding="UTF-8" standalone="no"?>
<svg xmlns:xlink="http://www.w3.org/1999/xlink" height="85.45px" width="163.25px" xmlns="http://www.w3.org/2000/svg">
  <g transform="matrix(1.0, 0.0, 0.0, 1.0, 0.0, 0.0)">
    <path d="M25.05 -40.7 L24.95 -40.95 16.7 -40.4 Q9.05 -39.55 6.8 -38.05 L7.35 -37.95 16.6 -39.4 25.05 -40.7 M51.65 -46.95 L48.0 -45.05 42.95 -43.4 Q34.55 -40.7 26.15 -38.55 20.8 -37.1 15.15 -37.05 3.8 -36.95 -2.55 -29.3 -4.0 -28.75 -5.6 -28.65 -8.6 -28.3 -11.6 -29.45 -15.05 -30.85 -18.25 -29.35 L-17.85 -23.25 -20.75 -22.4 Q-23.5 -23.5 -26.2 -25.3 -28.85 -27.15 -29.85 -24.1 -31.55 -18.9 -27.85 -14.2 -27.0 -13.05 -27.6 -11.85 -30.45 -6.45 -36.65 -7.7 L-36.95 -10.1 -37.55 -19.7 Q-42.5 -20.45 -46.95 -18.4 L-44.85 -12.95 Q-48.25 -8.2 -52.2 -12.95 L-52.75 -13.3 Q-59.1 -11.6 -65.65 -10.6 L-66.25 -9.35 Q-67.15 -7.5 -66.5 -5.7 -66.1 -4.7 -66.35 -4.75 L-68.0 -5.3 Q-71.75 -5.9 -74.6 -3.55 -79.55 0.4 -76.4 7.45 L-81.65 9.3 -88.7 7.55 Q-88.65 8.7 -88.75 9.85 -89.2 17.0 -93.0 23.15 L-93.15 23.6 -93.6 23.6 Q-100.3 35.9 -104.05 36.85 -106.35 28.1 -103.3 18.7 L-101.05 12.25 Q-97.8 3.25 -90.25 -0.7 L-87.1 1.8 -84.5 0.8 -81.7 -2.85 -81.6 -2.95 -82.05 -3.5 -82.2 -4.3 Q-80.45 -12.1 -73.75 -16.0 -70.55 -17.85 -66.85 -16.55 -59.25 -14.1 -55.95 -21.05 -53.75 -25.65 -74.85 -23.8 -20.85 -37.75 42.3 -45.3 L51.65 -46.95 M-65.8 -12.8 Q-65.8 -13.65 -66.0 -13.5 -73.15 -13.05 -76.35 -10.3 -78.4 -8.55 -79.7 -4.5 -81.05 -0.35 -82.45 1.05 -85.0 3.5 -91.05 3.5 -94.0 3.5 -98.55 15.1 -102.6 25.5 -102.6 28.5 L-102.55 29.25 -102.25 29.55 -101.6 29.65 Q-100.2 29.65 -97.1 21.35 L-92.5 7.6 Q-92.2 6.7 -90.25 6.0 L-86.0 4.8 Q-79.95 2.8 -79.1 -1.8 -78.45 -5.55 -74.9 -9.4 -70.5 -14.2 -66.05 -12.3 L-65.9 -12.3 Q-65.8 -12.3 -65.8 -12.8 M-51.15 -25.2 L-50.35 -25.2 -50.1 -23.2 -49.45 -21.0 -52.1 -20.15 Q-54.1 -19.6 -54.75 -18.4 L-55.9 -16.9 Q-56.75 -16.0 -57.25 -15.8 L-56.4 -15.65 Q-55.4 -15.55 -54.7 -16.7 -54.1 -17.65 -54.1 -18.45 L-51.85 -19.15 -49.85 -19.7 Q-48.8 -20.25 -48.8 -21.45 L-49.4 -23.8 -49.9 -25.25 Q-45.5 -25.5 -37.1 -27.3 L-36.0 -25.6 Q-35.15 -24.25 -35.15 -23.65 -35.65 -20.6 -35.6 -19.4 -35.5 -17.5 -32.75 -15.15 L-32.75 -15.4 -33.75 -16.85 Q-34.3 -17.5 -34.3 -17.9 L-34.55 -19.85 -34.85 -21.75 -34.7 -23.45 Q-34.65 -24.6 -34.9 -25.35 L-35.8 -27.05 -36.25 -27.5 Q-30.55 -28.8 -23.15 -30.8 L-0.45 -37.1 Q-9.8 -36.8 -25.95 -32.25 -43.8 -27.2 -56.7 -25.95 L-56.35 -25.65 -56.1 -25.45 -51.15 -25.2" fill="#bb934d" fill-rule="evenodd" stroke="none"/>
    <path d="M-77.6 14.65 L-73.9 14.0 -72.5 10.1 Q-72.9 7.95 -72.65 5.85 -72.5 4.8 -73.35 4.1 L-73.4 3.5 -71.35 -0.25 -70.75 -1.65 -70.05 -2.25 -69.35 -2.45 -66.55 -3.55 -64.75 -4.0 Q-63.8 -5.2 -62.4 -5.75 -60.65 -6.5 -58.8 -6.6 L-59.3 -7.6 -59.1 -8.3 -58.5 -8.7 Q-53.35 -8.05 -48.1 -6.25 L-46.85 -4.65 -46.85 -2.6 -46.9 -1.95 -46.95 -1.25 -46.75 -0.65 -45.6 -0.15 -45.65 0.0 -46.8 3.45 -46.85 4.1 -46.65 4.25 -43.35 4.15 -42.95 4.4 Q-50.85 6.2 -57.8 10.15 L-57.3 10.3 Q-53.25 9.3 -49.05 9.2 -39.8 10.1 -34.75 2.2 L-34.7 1.25 -39.3 -0.15 Q-40.9 -0.65 -41.75 -1.7 -43.3 -3.65 -42.55 -6.15 -42.25 -7.25 -42.75 -8.15 -44.95 -12.2 -42.15 -13.6 L-41.3 -7.55 Q-40.8 -2.0 -35.75 -2.3 L-35.25 -2.8 -33.75 -4.05 -32.2 -4.85 -31.1 -4.05 -29.2 -2.75 Q-27.85 -1.9 -26.4 -1.3 L-25.9 -2.45 -25.65 -3.65 -25.6 -5.95 -26.4 -6.75 -26.9 -7.05 -27.55 -7.3 -28.1 -7.55 -28.45 -8.05 -28.4 -8.6 -28.2 -9.0 -27.95 -9.4 -27.6 -9.75 -27.05 -9.95 Q-25.9 -9.7 -25.15 -8.8 -22.6 -5.85 -19.1 -6.8 -19.0 -8.05 -19.05 -9.25 L-19.2 -9.8 -19.55 -10.25 -19.05 -10.85 -18.65 -11.3 -18.05 -11.65 -18.05 -13.15 -23.65 -13.15 -22.5 -14.05 Q-21.4 -14.7 -20.55 -15.6 L-19.6 -16.55 -20.1 -17.3 -22.5 -17.0 Q-23.7 -16.75 -24.75 -16.15 -26.9 -17.1 -27.7 -19.7 -28.0 -20.7 -27.8 -21.7 -25.15 -19.75 -22.0 -18.85 -20.45 -18.5 -19.4 -17.35 -16.5 -14.3 -13.8 -10.7 L-13.25 -10.65 -12.75 -10.85 -12.3 -11.1 -11.85 -11.4 -11.35 -11.75 -13.55 -15.8 Q-14.3 -17.05 -13.7 -18.3 L-13.05 -18.35 Q-11.3 -17.7 -9.95 -16.1 L-6.9 -12.9 -5.5 -13.5 -5.5 -14.65 -9.45 -19.55 -8.75 -19.75 -8.1 -20.15 -7.5 -20.35 -6.95 -20.25 -3.9 -16.7 -2.55 -17.0 -2.0 -17.35 -1.4 -17.7 -1.0 -17.9 0.15 -17.65 0.2 -17.75 0.05 -19.05 -0.75 -19.5 -2.65 -19.55 -2.1 -21.7 -2.2 -21.85 -2.8 -21.4 -2.75 -22.0 Q-2.7 -22.35 -2.8 -22.7 L-2.95 -23.15 -4.85 -22.95 -13.75 -21.2 -13.7 -21.5 -13.75 -22.7 -13.95 -23.15 -14.2 -23.5 -14.55 -23.95 -14.25 -24.5 -13.85 -25.15 -13.35 -25.65 -12.8 -26.1 Q-11.4 -25.75 -10.4 -24.95 L-10.0 -24.8 -8.95 -24.75 Q-8.45 -25.05 -7.9 -25.3 -5.1 -26.75 -1.95 -27.55 L-0.95 -27.25 -0.1 -26.8 1.65 -25.65 1.75 -24.95 1.05 -23.55 1.75 -22.55 Q3.2 -21.3 4.2 -19.6 4.75 -18.65 4.15 -17.9 11.65 -19.85 18.65 -23.6 L18.65 -24.4 18.45 -24.7 Q16.6 -25.45 14.75 -24.25 13.0 -23.25 10.9 -22.65 L11.15 -24.7 9.8 -25.75 9.5 -26.55 9.65 -27.6 9.55 -27.65 6.0 -26.35 5.65 -27.15 3.55 -27.9 3.7 -29.15 Q5.6 -30.65 7.9 -31.2 11.35 -32.15 13.2 -28.9 L13.9 -28.65 Q19.6 -26.1 23.4 -30.5 L23.0 -31.2 Q20.85 -30.6 19.2 -31.95 18.25 -32.75 18.35 -34.05 23.95 -38.0 30.5 -35.95 32.35 -35.45 32.6 -33.45 L33.7 -32.95 35.35 -33.55 36.05 -33.95 36.65 -34.55 36.8 -34.65 36.45 -35.6 35.9 -36.6 Q36.3 -39.8 39.65 -38.7 L41.7 -37.95 43.1 -39.5 Q45.25 -41.7 47.85 -43.3 45.25 -41.7 43.1 -39.5 L41.7 -37.95 39.65 -38.7 Q36.3 -39.8 35.9 -36.6 L36.45 -35.6 36.8 -34.65 36.65 -34.55 36.05 -33.95 35.35 -33.55 33.7 -32.95 32.6 -33.45 Q32.35 -35.45 30.5 -35.95 23.95 -38.0 18.35 -34.05 18.25 -32.75 19.2 -31.95 20.85 -30.6 23.0 -31.2 L23.4 -30.5 Q19.6 -26.1 13.9 -28.65 L13.2 -28.9 Q11.35 -32.15 7.9 -31.2 5.6 -30.65 3.7 -29.15 L3.55 -27.9 5.65 -27.15 6.0 -26.35 9.55 -27.65 9.65 -27.6 9.5 -26.55 9.8 -25.75 11.15 -24.7 10.9 -22.65 Q13.0 -23.25 14.75 -24.25 16.6 -25.45 18.45 -24.7 L18.65 -24.4 18.65 -23.6 Q11.65 -19.85 4.15 -17.9 4.75 -18.65 4.2 -19.6 3.2 -21.3 1.75 -22.55 L1.05 -23.55 1.75 -24.95 1.65 -25.65 -0.1 -26.8 -0.95 -27.25 -1.95 -27.55 Q-5.1 -26.75 -7.9 -25.3 -8.45 -25.05 -8.95 -24.75 L-10.0 -24.8 -10.4 -24.95 Q-11.4 -25.75 -12.8 -26.1 L-13.35 -25.65 -13.85 -25.15 -14.25 -24.5 -14.55 -23.95 -14.2 -23.5 -13.95 -23.15 -13.75 -22.7 -13.7 -21.5 -13.75 -21.2 -4.85 -22.95 -2.95 -23.15 -2.8 -22.7 Q-2.7 -22.35 -2.75 -22.0 L-2.8 -21.4 -2.2 -21.85 -2.1 -21.7 -2.65 -19.55 -0.75 -19.5 0.05 -19.05 0.2 -17.75 0.15 -17.65 -1.0 -17.9 -1.4 -17.7 -2.0 -17.35 -2.55 -17.0 -3.9 -16.7 -6.95 -20.25 -7.5 -20.35 -8.1 -20.15 -8.75 -19.75 -9.45 -19.55 -5.5 -14.65 -5.5 -13.5 -6.9 -12.9 -9.95 -16.1 Q-11.3 -17.7 -13.05 -18.35 L-13.7 -18.3 Q-14.3 -17.05 -13.55 -15.8 L-11.35 -11.75 -11.85 -11.4 -12.3 -11.1 -12.75 -10.85 -13.25 -10.65 -13.8 -10.7 Q-16.5 -14.3 -19.4 -17.35 -20.45 -18.5 -22.0 -18.85 -25.15 -19.75 -27.8 -21.7 -28.0 -20.7 -27.7 -19.7 -26.9 -17.1 -24.75 -16.15 -23.7 -16.75 -22.5 -17.0 L-20.1 -17.3 -19.6 -16.55 -20.55 -15.6 Q-21.4 -14.7 -22.5 -14.05 L-23.65 -13.15 -18.05 -13.15 -18.05 -11.65 -18.65 -11.3 -19.05 -10.85 -19.55 -10.25 -19.2 -9.8 -19.05 -9.25 Q-19.0 -8.05 -19.1 -6.8 -22.6 -5.85 -25.15 -8.8 -25.9 -9.7 -27.05 -9.95 L-27.6 -9.75 -27.95 -9.4 -28.2 -9.0 -28.4 -8.6 -28.45 -8.05 -28.1 -7.55 -27.55 -7.3 -26.9 -7.05 -26.4 -6.75 -25.6 -5.95 -25.65 -3.65 -25.9 -2.45 -26.4 -1.3 Q-27.85 -1.9 -29.2 -2.75 L-31.1 -4.05 -32.2 -4.85 -33.75 -4.05 -35.25 -2.8 -35.75 -2.3 Q-40.8 -2.0 -41.3 -7.55 L-42.15 -13.6 Q-44.95 -12.2 -42.75 -8.15 -42.25 -7.25 -42.55 -6.15 -43.3 -3.65 -41.75 -1.7 -40.9 -0.65 -39.3 -0.15 L-34.7 1.25 -34.75 2.2 Q-39.8 10.1 -49.05 9.2 -53.25 9.3 -57.3 10.3 L-57.8 10.15 Q-50.85 6.2 -42.95 4.4 L-43.35 4.15 -46.65 4.25 -46.85 4.1 -46.8 3.45 -45.65 0.0 -45.6 -0.15 -46.75 -0.65 -46.95 -1.25 -46.9 -1.95 -46.85 -2.6 -46.85 -4.65 -48.1 -6.25 Q-53.35 -8.05 -58.5 -8.7 L-59.1 -8.3 -59.3 -7.6 -58.8 -6.6 Q-60.65 -6.5 -62.4 -5.75 -63.8 -5.2 -64.75 -4.0 L-66.55 -3.55 -69.35 -2.45 -70.05 -2.25 -70.75 -1.65 -71.35 -0.25 -73.4 3.5 -73.35 4.1 Q-72.5 4.8 -72.65 5.85 -72.9 7.95 -72.5 10.1 L-73.9 14.0 -77.6 14.65 M-93.15 23.6 L-93.0 23.15 Q-89.2 17.0 -88.75 9.85 -88.65 8.7 -88.7 7.55 L-81.65 9.3 -76.4 7.45 Q-79.55 0.4 -74.6 -3.55 -71.75 -5.9 -68.0 -5.3 L-66.35 -4.75 Q-66.1 -4.7 -66.5 -5.7 -67.15 -7.5 -66.25 -9.35 L-65.65 -10.6 Q-59.1 -11.6 -52.75 -13.3 L-52.2 -12.95 Q-48.25 -8.2 -44.85 -12.95 L-46.95 -18.4 Q-42.5 -20.45 -37.55 -19.7 L-36.95 -10.1 -36.65 -7.7 Q-30.45 -6.45 -27.6 -11.85 -27.0 -13.05 -27.85 -14.2 -31.55 -18.9 -29.85 -24.1 -28.85 -27.15 -26.2 -25.3 -23.5 -23.5 -20.75 -22.4 L-17.85 -23.25 -18.25 -29.35 Q-15.05 -30.85 -11.6 -29.45 -8.6 -28.3 -5.6 -28.65 -4.0 -28.75 -2.55 -29.3 3.8 -36.95 15.15 -37.05 20.8 -37.1 26.15 -38.55 34.55 -40.7 42.95 -43.4 L48.0 -45.05 51.65 -46.95 52.55 -47.45 58.2 -48.6 Q52.0 -44.25 48.4 -40.95 44.8 -37.7 32.55 -30.0 20.3 -22.4 10.95 -18.9 1.55 -15.45 -15.1 -6.35 -31.75 2.7 -37.95 10.55 -49.55 14.75 -65.85 14.35 -42.85 -1.8 -54.65 -4.25 -63.4 -5.85 -68.65 1.15 -74.2 8.6 -68.15 15.65 L-66.8 17.0 Q-71.0 15.9 -75.2 16.85 -81.15 18.1 -79.95 24.65 -79.75 25.75 -79.0 26.45 L-79.7 26.65 -81.8 27.2 Q-86.2 27.65 -90.5 27.1 L-90.65 26.8 -90.95 25.7 -91.15 25.25 Q-91.55 24.55 -92.2 24.1 L-93.15 23.6" fill="url(#gradient0)" fill-rule="evenodd" stroke="none"/>
    <path d="M25.05 -40.7 L16.6 -39.4 7.35 -37.95 6.8 -38.05 Q9.05 -39.55 16.7 -40.4 L24.95 -40.95 25.05 -40.7 M-51.15 -25.2 L-56.1 -25.45 -56.35 -25.65 -56.7 -25.95 Q-43.8 -27.2 -25.95 -32.25 -9.8 -36.8 -0.45 -37.1 L-23.15 -30.8 Q-30.55 -28.8 -36.25 -27.5 L-35.8 -27.05 -34.9 -25.35 Q-34.65 -24.6 -34.7 -23.45 L-34.85 -21.75 -34.55 -19.85 -34.3 -17.9 Q-34.3 -17.5 -33.75 -16.85 L-32.75 -15.4 -32.75 -15.15 Q-35.5 -17.5 -35.6 -19.4 -35.65 -20.6 -35.15 -23.65 -35.15 -24.25 -36.0 -25.6 L-37.1 -27.3 Q-45.5 -25.5 -49.9 -25.25 L-49.4 -23.8 -48.8 -21.45 Q-48.8 -20.25 -49.85 -19.7 L-51.85 -19.15 -54.1 -18.45 Q-54.1 -17.65 -54.7 -16.7 -55.4 -15.55 -56.4 -15.65 L-57.25 -15.8 Q-56.75 -16.0 -55.9 -16.9 L-54.75 -18.4 Q-54.1 -19.6 -52.1 -20.15 L-49.45 -21.0 -50.1 -23.2 -50.35 -25.2 -51.15 -25.2 M-65.8 -12.8 Q-65.8 -12.3 -65.9 -12.3 L-66.05 -12.3 Q-70.5 -14.2 -74.9 -9.4 -78.45 -5.55 -79.1 -1.8 -79.95 2.8 -86.0 4.8 L-90.25 6.0 Q-92.2 6.7 -92.5 7.6 L-97.1 21.35 Q-100.2 29.65 -101.6 29.65 L-102.25 29.55 -102.55 29.25 -102.6 28.5 Q-102.6 25.5 -98.55 15.1 -94.0 3.5 -91.05 3.5 -85.0 3.5 -82.45 1.05 -81.05 -0.35 -79.7 -4.5 -78.4 -8.55 -76.35 -10.3 -73.15 -13.05 -66.0 -13.5 -65.8 -13.65 -65.8 -12.8" fill="#d3ad4d" fill-rule="evenodd" stroke="none"/>
    <path d="M51.65 -46.95 L42.3 -45.3 Q-20.85 -37.75 -74.85 -23.8 -53.75 -25.65 -55.95 -21.05 -59.25 -14.1 -66.85 -16.55 -70.55 -17.85 -73.75 -16.0 -80.45 -12.1 -82.2 -4.3 L-82.05 -3.5 -81.6 -2.95 -81.7 -2.85 -84.5 0.8 -87.1 1.8 -90.25 -0.7 Q-97.8 3.25 -101.05 12.25 L-103.3 18.7 Q-106.35 28.1 -104.05 36.85 -100.3 35.9 -93.6 23.6 L-93.15 23.6" fill="none" stroke="#000000" stroke-linecap="round" stroke-linejoin="round" stroke-width="0.05"/>
    <path d="M47.85 -43.3 Q45.25 -41.7 43.1 -39.5 L41.7 -37.95 39.65 -38.7 Q36.3 -39.8 35.9 -36.6 L36.45 -35.6 36.8 -34.65 36.65 -34.55 36.05 -33.95 35.35 -33.55 33.7 -32.95 32.6 -33.45 Q32.35 -35.45 30.5 -35.95 23.95 -38.0 18.35 -34.05 18.25 -32.75 19.2 -31.95 20.85 -30.6 23.0 -31.2 L23.4 -30.5 Q19.6 -26.1 13.9 -28.65 L13.2 -28.9 Q11.35 -32.15 7.9 -31.2 5.6 -30.65 3.7 -29.15 L3.55 -27.9 5.65 -27.15 6.0 -26.35 9.55 -27.65 9.65 -27.6 9.5 -26.55 9.8 -25.75 11.15 -24.7 10.9 -22.65 Q13.0 -23.25 14.75 -24.25 16.6 -25.45 18.45 -24.7 L18.65 -24.4 18.65 -23.6 Q11.65 -19.85 4.15 -17.9 4.75 -18.65 4.2 -19.6 3.2 -21.3 1.75 -22.55 L1.05 -23.55 1.75 -24.95 1.65 -25.65 -0.1 -26.8 -0.95 -27.25 -1.95 -27.55 Q-5.1 -26.75 -7.9 -25.3 -8.45 -25.05 -8.95 -24.75 L-10.0 -24.8 -10.4 -24.95 Q-11.4 -25.75 -12.8 -26.1 L-13.35 -25.65 -13.85 -25.15 -14.25 -24.5 -14.55 -23.95 -14.2 -23.5 -13.95 -23.15 -13.75 -22.7 -13.7 -21.5 -13.75 -21.2 -4.85 -22.95 -2.95 -23.15 -2.8 -22.7 Q-2.7 -22.35 -2.75 -22.0 L-2.8 -21.4 -2.2 -21.85 -2.1 -21.7 -2.65 -19.55 -0.75 -19.5 0.05 -19.05 0.2 -17.75 0.15 -17.65 -1.0 -17.9 -1.4 -17.7 -2.0 -17.35 -2.55 -17.0 -3.9 -16.7 -6.95 -20.25 -7.5 -20.35 -8.1 -20.15 -8.75 -19.75 -9.45 -19.55 -5.5 -14.65 -5.5 -13.5 -6.9 -12.9 -9.95 -16.1 Q-11.3 -17.7 -13.05 -18.35 L-13.7 -18.3 Q-14.3 -17.05 -13.55 -15.8 L-11.35 -11.75 -11.85 -11.4 -12.3 -11.1 -12.75 -10.85 -13.25 -10.65 -13.8 -10.7 Q-16.5 -14.3 -19.4 -17.35 -20.45 -18.5 -22.0 -18.85 -25.15 -19.75 -27.8 -21.7 -28.0 -20.7 -27.7 -19.7 -26.9 -17.1 -24.75 -16.15 -23.7 -16.75 -22.5 -17.0 L-20.1 -17.3 -19.6 -16.55 -20.55 -15.6 Q-21.4 -14.7 -22.5 -14.05 L-23.65 -13.15 -18.05 -13.15 -18.05 -11.65 -18.65 -11.3 -19.05 -10.85 -19.55 -10.25 -19.2 -9.8 -19.05 -9.25 Q-19.0 -8.05 -19.1 -6.8 -22.6 -5.85 -25.15 -8.8 -25.9 -9.7 -27.05 -9.95 L-27.6 -9.75 -27.95 -9.4 -28.2 -9.0 -28.4 -8.6 -28.45 -8.05 -28.1 -7.55 -27.55 -7.3 -26.9 -7.05 -26.4 -6.75 -25.6 -5.95 -25.65 -3.65 -25.9 -2.45 -26.4 -1.3 Q-27.85 -1.9 -29.2 -2.75 L-31.1 -4.05 -32.2 -4.85 -33.75 -4.05 -35.25 -2.8 -35.75 -2.3 Q-40.8 -2.0 -41.3 -7.55 L-42.15 -13.6 Q-44.95 -12.2 -42.75 -8.15 -42.25 -7.25 -42.55 -6.15 -43.3 -3.65 -41.75 -1.7 -40.9 -0.65 -39.3 -0.15 L-34.7 1.25 -34.75 2.2 Q-39.8 10.1 -49.05 9.2 -53.25 9.3 -57.3 10.3 L-57.8 10.15 Q-50.85 6.2 -42.95 4.4 L-43.35 4.15 -46.65 4.25 -46.85 4.1 -46.8 3.45 -45.65 0.0 -45.6 -0.15 -46.75 -0.65 -46.95 -1.25 -46.9 -1.95 -46.85 -2.6 -46.85 -4.65 -48.1 -6.25 Q-53.35 -8.05 -58.5 -8.7 L-59.1 -8.3 -59.3 -7.6 -58.8 -6.6 Q-60.65 -6.5 -62.4 -5.75 -63.8 -5.2 -64.75 -4.0 L-66.55 -3.55 -69.35 -2.45 -70.05 -2.25 -70.75 -1.65 -71.35 -0.25 -73.4 3.5 -73.35 4.1 Q-72.5 4.8 -72.65 5.85 -72.9 7.95 -72.5 10.1 L-73.9 14.0 -77.6 14.65 M-93.15 23.6 L-93.0 23.15 Q-89.2 17.0 -88.75 9.85 -88.65 8.7 -88.7 7.55 L-81.65 9.3 -76.4 7.45 Q-79.55 0.4 -74.6 -3.55 -71.75 -5.9 -68.0 -5.3 L-66.35 -4.75 Q-66.1 -4.7 -66.5 -5.7 -67.15 -7.5 -66.25 -9.35 L-65.65 -10.6 Q-59.1 -11.6 -52.75 -13.3 L-52.2 -12.95 Q-48.25 -8.2 -44.85 -12.95 L-46.95 -18.4 Q-42.5 -20.45 -37.55 -19.7 L-36.95 -10.1 -36.65 -7.7 Q-30.45 -6.45 -27.6 -11.85 -27.0 -13.05 -27.85 -14.2 -31.55 -18.9 -29.85 -24.1 -28.85 -27.15 -26.2 -25.3 -23.5 -23.5 -20.75 -22.4 L-17.85 -23.25 -18.25 -29.35 Q-15.05 -30.85 -11.6 -29.45 -8.6 -28.3 -5.6 -28.65 -4.0 -28.75 -2.55 -29.3 3.8 -36.95 15.15 -37.05 20.8 -37.1 26.15 -38.55 34.55 -40.7 42.95 -43.4 L48.0 -45.05 51.65 -46.95 52.55 -47.45 58.2 -48.6 Q52.0 -44.25 48.4 -40.95 44.8 -37.7 32.55 -30.0 20.3 -22.4 10.95 -18.9 1.55 -15.45 -15.1 -6.35 -31.75 2.7 -37.95 10.55 -49.55 14.75 -65.85 14.35 -42.85 -1.8 -54.65 -4.25 -63.4 -5.85 -68.65 1.15 -74.2 8.6 -68.15 15.65 L-66.8 17.0 Q-71.0 15.9 -75.2 16.85 -81.15 18.1 -79.95 24.65 -79.75 25.75 -79.0 26.45 L-79.7 26.65 -81.8 27.2 Q-86.2 27.65 -90.5 27.1 L-90.65 26.8 -90.95 25.7 -91.15 25.25 Q-91.55 24.55 -92.2 24.1 L-93.15 23.6 Z" fill="none" stroke="#89feda" stroke-linecap="round" stroke-linejoin="round" stroke-width="0.05"/>
  </g>
  <defs>
    <linearGradient gradientTransform="matrix(0.0924, 0.0, 0.0, 0.0464, -17.5, -10.6)" gradientUnits="userSpaceOnUse" id="gradient0" spreadMethod="pad" x1="-819.2" x2="819.2">
      <stop offset="0.0" stop-color="#3affe2" stop-opacity="0.67058825"/>
      <stop offset="1.0" stop-color="#3c1e84" stop-opacity="0.72156864"/>
    </linearGradient>
  </defs>
</svg>
