<?xml version="1.0" encoding="UTF-8" standalone="no"?>
<svg xmlns:xlink="http://www.w3.org/1999/xlink" height="82.3px" width="55.95px" xmlns="http://www.w3.org/2000/svg">
  <g transform="matrix(1.0, 0.0, 0.0, 1.0, 0.0, 0.0)">
    <path d="M1.2 -41.15 L1.7 -39.05 Q2.25 -34.75 3.15 -30.45 4.45 -24.05 0.45 -19.95 L-0.35 -21.4 Q-2.2 -31.25 1.2 -41.15 M10.5 -15.95 L10.2 -17.95 16.85 -22.05 Q17.35 -14.8 11.0 -15.6 L10.5 -15.95 M-7.85 -15.3 L-8.1 -14.9 Q-9.55 -15.25 -10.8 -15.9 -14.95 -18.25 -15.05 -23.45 L-12.8 -22.2 Q-8.5 -19.75 -7.2 -15.5 L-7.85 -15.3" fill="#11d5c0" fill-opacity="0.77254903" fill-rule="evenodd" stroke="none"/>
    <path d="M-15.95 -2.65 L-17.45 -0.9 Q-27.15 10.7 -19.55 23.75 L-19.45 24.3 -17.65 26.0 Q-12.05 31.1 -4.6 32.0 L-4.4 32.05 -1.6 32.4 Q9.1 33.7 17.55 27.35 L19.6 25.45 Q24.55 20.35 25.1 13.3 L25.0 11.4 Q23.85 3.0 17.55 -2.65 L15.4 -4.3 Q8.4 -9.15 -0.25 -10.15 L-1.85 -9.65 -7.45 -8.15 Q-9.7 -7.5 -15.85 -2.75 L-15.9 -2.75 -15.95 -2.65 M-11.7 40.15 Q-17.6 33.65 -24.2 27.7 -26.55 25.7 -27.25 22.4 -30.6 6.4 -20.45 -2.65 -10.35 -11.7 -2.95 -11.95 4.4 -12.25 6.15 -12.05 L10.9 -11.3 Q17.75 -9.7 21.85 -4.75 25.9 0.15 26.75 2.9 30.15 17.65 22.9 30.7 22.3 31.75 21.2 32.3 14.55 36.15 9.0 41.15 L2.2 39.85 Q-4.15 38.45 -10.6 40.45 L-11.7 40.15" fill="url(#gradient0)" fill-rule="evenodd" stroke="none"/>
    <path d="M1.2 -41.15 Q-2.2 -31.25 -0.35 -21.4 L0.45 -19.95 Q4.45 -24.05 3.15 -30.45 2.25 -34.75 1.7 -39.05 L1.2 -41.15 M10.5 -15.95 L10.2 -17.95 16.85 -22.05 Q17.35 -14.8 11.0 -15.6 L10.5 -15.95 M-15.9 -2.75 L-15.85 -2.75 Q-9.7 -7.5 -7.45 -8.15 L-1.85 -9.65 -0.25 -10.15 Q8.4 -9.15 15.4 -4.3 L17.55 -2.65 Q23.85 3.0 25.0 11.4 L25.1 13.3 Q24.55 20.35 19.6 25.45 L17.55 27.35 Q9.1 33.7 -1.6 32.4 L-4.4 32.05 -4.6 32.0 Q-12.05 31.1 -17.65 26.0 L-19.45 24.3 -19.55 23.75 Q-27.15 10.7 -17.45 -0.9 L-15.95 -2.65 -15.85 -2.75 -12.7 -0.65 -12.85 0.9 Q-13.95 4.85 -18.0 6.65 L-12.35 7.05 Q-8.5 6.75 -8.1 2.9 L-11.85 -0.1 -12.7 -0.65 M-11.7 40.15 Q-17.6 33.65 -24.2 27.7 -26.55 25.7 -27.25 22.4 -30.6 6.4 -20.45 -2.65 -10.35 -11.7 -2.95 -11.95 4.4 -12.25 6.15 -12.05 L10.9 -11.3 Q17.75 -9.7 21.85 -4.75 25.9 0.15 26.75 2.9 30.15 17.65 22.9 30.7 22.3 31.75 21.2 32.3 14.55 36.15 9.0 41.15 M25.1 13.3 L20.9 12.2 19.95 11.95 Q12.95 11.95 10.25 17.3 L10.05 17.95 11.6 19.4 17.55 27.35 M12.55 0.3 Q5.75 1.05 -0.65 -3.65 L-0.7 -2.8 -1.3 1.6 Q2.1 3.8 7.4 2.85 L7.6 2.75 12.45 0.35 12.55 0.3 17.55 -2.65 M20.9 12.2 L18.1 9.9 Q12.6 6.55 12.45 0.35 M7.4 2.85 L7.6 2.9 7.6 2.75 M7.6 2.9 Q7.45 4.95 9.0 9.75 L19.95 11.95 M9.0 9.75 L-1.65 7.75 -1.7 7.8 -1.7 8.05 5.5 13.85 Q5.3 11.8 6.8 10.8 L9.0 9.75 M10.05 17.95 L5.5 13.85 2.4 14.6 Q-0.7 15.1 -3.0 20.35 L-3.45 24.1 -2.75 23.2 Q1.9 17.45 10.15 19.35 L11.6 19.4 M-7.85 -15.3 L-7.2 -15.5 Q-8.5 -19.75 -12.8 -22.2 L-15.05 -23.45 Q-14.95 -18.25 -10.8 -15.9 -9.55 -15.25 -8.1 -14.9 L-7.85 -15.3 M-0.7 -2.8 L-1.8 -1.95 Q-6.35 1.35 -11.85 -0.1 M-0.25 -10.15 L-0.65 -3.65 M-8.1 2.9 L-7.45 3.4 -6.25 3.65 Q-3.7 3.95 -1.45 2.6 L-1.3 1.6 M-1.45 2.6 L-1.7 7.75 -1.65 7.75 7.4 2.85 M-1.85 7.9 L-1.7 7.8 -1.7 7.75 -2.1 7.7 -1.85 7.9 -1.7 8.05 -3.0 20.35 -3.05 20.3 Q-4.25 14.35 -9.8 13.55 L-15.55 19.0 -15.95 19.5 -14.95 19.4 Q-8.4 19.35 -3.45 24.1 L-4.4 32.05 M-12.35 7.05 L-2.1 7.7 -7.45 3.4 M-15.55 19.0 Q-14.4 12.9 -18.45 8.55 L-19.7 7.25 -18.0 6.65 M-19.55 23.75 L-15.95 19.5 M-12.35 7.05 Q-9.1 9.1 -9.65 12.7 L-9.8 13.55 -1.85 7.9" fill="none" stroke="#66ff99" stroke-linecap="round" stroke-linejoin="round" stroke-width="0.05"/>
  </g>
  <defs>
    <linearGradient gradientTransform="matrix(0.0341, 0.0, 0.0, 0.0333, -0.1, 13.9)" gradientUnits="userSpaceOnUse" id="gradient0" spreadMethod="pad" x1="-819.2" x2="819.2">
      <stop offset="0.3843137254901961" stop-color="#824ad7" stop-opacity="0.4117647"/>
      <stop offset="0.47843137254901963" stop-color="#15ffea" stop-opacity="0.8"/>
    </linearGradient>
  </defs>
</svg>
