<?xml version="1.0" encoding="UTF-8" standalone="no"?>
<svg xmlns:xlink="http://www.w3.org/1999/xlink" height="20.6px" width="54.45px" xmlns="http://www.w3.org/2000/svg">
  <g transform="matrix(1.0, 0.0, 0.0, 1.0, 0.0, 0.0)">
    <path d="M-19.35 4.4 L-22.6 3.1 Q-6.4 5.4 0.35 -1.2 7.1 -7.85 7.2 -9.25 7.3 -10.7 7.75 -10.95 9.15 -9.6 11.15 -9.65 12.0 -9.75 12.6 -10.25 14.0 -11.45 12.85 -13.3 L13.65 -13.7 Q15.1 -12.25 16.1 -10.4 L16.7 -9.85 Q17.95 -9.9 18.7 -10.8 L19.4 -11.45 Q20.35 -6.85 23.95 -3.6 26.9 -0.9 31.85 -2.35 27.75 1.7 22.7 0.15 18.95 -1.0 16.3 -3.9 15.0 -1.25 12.6 0.4 L11.45 1.1 Q9.95 -1.0 7.75 -0.2 4.4 1.05 5.1 4.45 -5.6 9.35 -19.35 4.4 L-19.1 4.55 -19.4 4.4 -19.35 4.4 M-8.05 4.9 Q-3.75 3.9 0.15 1.75 L1.95 3.0 2.55 2.2 1.65 -1.0 Q2.8 -1.65 3.85 -0.6 4.3 -0.15 4.75 -0.4 L3.9 -1.85 4.3 -2.45 5.5 -3.45 4.3 -2.45 3.9 -1.85 4.75 -0.4 Q4.3 -0.15 3.85 -0.6 2.8 -1.65 1.65 -1.0 L2.55 2.2 1.95 3.0 0.15 1.75 Q-3.75 3.9 -8.05 4.9 M7.4 -4.1 L7.85 -4.3 8.5 -3.7 7.7 -2.45 6.85 -2.55 6.45 -3.05 6.6 -4.75 Q6.9 -6.65 8.45 -7.85 L9.15 -7.9 10.05 -7.45 9.4 -6.35 10.05 -5.1 11.8 -4.9 11.45 -4.15 11.5 -3.6 11.85 -3.2 Q12.4 -2.7 13.35 -2.7 L13.85 -2.8 14.6 -3.65 14.3 -5.05 12.1 -6.1 11.6 -7.7 12.6 -9.55 13.2 -7.95 14.9 -8.05 15.35 -7.75 16.6 -5.1 17.1 -4.95 16.65 -8.95 17.25 -9.4 17.6 -9.1 Q18.15 -4.9 21.45 -2.25 18.15 -4.9 17.6 -9.1 L17.25 -9.4 16.65 -8.95 17.1 -4.95 16.6 -5.1 15.35 -7.75 14.9 -8.05 13.2 -7.95 12.6 -9.55 11.6 -7.7 12.1 -6.1 14.3 -5.05 14.6 -3.65 13.85 -2.8 13.35 -2.7 Q12.4 -2.7 11.85 -3.2 L11.5 -3.6 11.45 -4.15 11.8 -4.9 10.05 -5.1 9.4 -6.35 10.05 -7.45 9.15 -7.9 8.45 -7.85 Q6.9 -6.65 6.6 -4.75 L6.45 -3.05 6.85 -2.55 7.7 -2.45 8.5 -3.7 7.85 -4.3 7.4 -4.1" fill="url(#gradient0)" fill-rule="evenodd" stroke="none"/>
    <path d="M-19.35 4.4 L-22.6 3.1 Q-6.4 5.4 0.35 -1.2 7.1 -7.85 7.2 -9.25 7.3 -10.7 7.75 -10.95 9.15 -9.6 11.15 -9.65 12.0 -9.75 12.6 -10.25 14.0 -11.45 12.85 -13.3 L13.65 -13.7 Q15.1 -12.25 16.1 -10.4 L16.7 -9.85 Q17.95 -9.9 18.7 -10.8 L19.4 -11.45 Q20.35 -6.85 23.95 -3.6 26.9 -0.9 31.85 -2.35 27.75 1.7 22.7 0.15 18.95 -1.0 16.3 -3.9 15.0 -1.25 12.6 0.4 L11.45 1.1 Q9.95 -1.0 7.75 -0.2 4.4 1.05 5.1 4.45 -5.6 9.35 -19.35 4.4 M21.45 -2.25 Q18.15 -4.9 17.6 -9.1 L17.25 -9.4 16.65 -8.95 17.1 -4.95 16.6 -5.1 15.35 -7.75 14.9 -8.05 13.2 -7.95 12.6 -9.55 11.6 -7.7 12.1 -6.1 14.3 -5.05 14.6 -3.65 13.85 -2.8 13.35 -2.7 Q12.4 -2.7 11.85 -3.2 L11.5 -3.6 11.45 -4.15 11.8 -4.9 10.05 -5.1 9.4 -6.35 10.05 -7.45 9.15 -7.9 8.45 -7.85 Q6.9 -6.65 6.6 -4.75 L6.45 -3.05 6.85 -2.55 7.7 -2.45 8.5 -3.7 7.85 -4.3 7.4 -4.1 M5.5 -3.45 L4.3 -2.45 3.9 -1.85 4.75 -0.4 Q4.3 -0.15 3.85 -0.6 2.8 -1.65 1.65 -1.0 L2.55 2.2 1.95 3.0 0.15 1.75 Q-3.75 3.9 -8.05 4.9" fill="none" stroke="#66ff99" stroke-linecap="round" stroke-linejoin="round" stroke-width="0.05"/>
  </g>
  <defs>
    <linearGradient gradientTransform="matrix(-0.0281, 0.0046, -0.0014, -0.0086, -0.85, -7.6)" gradientUnits="userSpaceOnUse" id="gradient0" spreadMethod="pad" x1="-819.2" x2="819.2">
      <stop offset="0.10196078431372549" stop-color="#824ad7" stop-opacity="0.4117647"/>
      <stop offset="1.0" stop-color="#15ffea" stop-opacity="0.8"/>
    </linearGradient>
  </defs>
</svg>
