<?xml version="1.0" encoding="UTF-8" standalone="no"?>
<svg xmlns:xlink="http://www.w3.org/1999/xlink" height="14.25px" width="70.1px" xmlns="http://www.w3.org/2000/svg">
  <g transform="matrix(1.0, 0.0, 0.0, 1.0, 0.0, 0.0)">
    <path d="M-9.65 -0.5 L-8.95 -1.0 -7.15 -0.55 -5.65 -1.4 Q-4.1 -1.5 -3.35 -0.45 L-2.75 0.35 Q-1.5 1.0 0.1 1.05 1.05 1.0 1.6 0.2 L1.9 -0.45 Q2.35 -4.3 6.55 -4.2 L7.55 -4.0 9.5 -2.45 Q12.65 0.25 16.55 1.4 L17.65 1.4 18.55 1.0 Q19.3 0.45 19.3 -0.25 19.0 -3.1 16.15 -3.35 L15.2 -2.4 Q15.75 -0.35 17.3 -0.55 15.75 -0.35 15.2 -2.4 L16.15 -3.35 Q19.0 -3.1 19.3 -0.25 19.3 0.45 18.55 1.0 L17.65 1.4 16.55 1.4 Q12.65 0.25 9.5 -2.45 L7.55 -4.0 6.55 -4.2 Q2.35 -4.3 1.9 -0.45 L1.6 0.2 Q1.05 1.0 0.1 1.05 -1.5 1.0 -2.75 0.35 L-3.35 -0.45 Q-4.1 -1.5 -5.65 -1.4 L-7.15 -0.55 -8.95 -1.0 -9.65 -0.5 M-35.8 1.9 Q-31.4 0.45 -27.05 -0.45 L-25.2 -0.3 -23.05 0.1 -21.05 0.15 Q-19.75 -1.85 -17.65 -2.55 L-14.5 -2.75 -11.4 -1.8 Q-9.55 -2.85 -8.05 -4.35 L-6.55 -5.1 Q-4.95 -5.3 -3.85 -4.2 -2.4 -3.55 -0.75 -3.15 0.8 -4.75 1.75 -6.7 L2.5 -7.3 4.7 -7.65 12.45 -7.05 Q16.3 -6.7 19.75 -4.9 21.15 -4.25 22.45 -3.3 L22.25 0.35 Q23.45 1.35 24.85 0.85 L25.65 0.55 25.65 -2.25 Q25.65 -2.85 26.0 -3.35 L26.8 -3.9 Q28.8 -4.15 32.55 -2.85 L33.1 -2.65 Q29.95 -2.25 29.75 -1.15 L29.5 0.9 30.9 4.7 30.0 6.55 Q28.45 5.85 27.1 4.75 L24.35 3.15 Q22.9 2.35 21.4 2.2 L19.55 5.25 Q16.35 6.55 13.5 4.7 L8.6 1.45 Q7.25 0.4 5.6 0.6 5.05 0.7 4.75 1.1 L2.45 4.35 Q1.0 6.7 -1.85 6.6 -3.0 6.65 -3.9 5.75 L-8.8 1.15 Q-9.45 1.95 -10.45 2.2 -11.95 2.5 -12.95 1.35 -13.85 0.5 -15.2 0.7 L-18.1 4.5 Q-21.0 4.5 -23.6 3.35 -25.3 2.35 -27.2 2.05 -31.45 1.4 -35.7 2.05 L-35.8 1.9 M21.4 2.2 L22.25 0.35 21.4 2.2" fill="url(#gradient0)" fill-rule="evenodd" stroke="none"/>
    <path d="M17.3 -0.55 Q15.75 -0.35 15.2 -2.4 L16.15 -3.35 Q19.0 -3.1 19.3 -0.25 19.3 0.45 18.55 1.0 L17.65 1.4 16.55 1.4 Q12.65 0.25 9.5 -2.45 L7.55 -4.0 6.55 -4.2 Q2.35 -4.3 1.9 -0.45 L1.6 0.2 Q1.05 1.0 0.1 1.05 -1.5 1.0 -2.75 0.35 L-3.35 -0.45 Q-4.1 -1.5 -5.65 -1.4 L-7.15 -0.55 -8.95 -1.0 -9.65 -0.5 M-35.8 1.9 Q-31.4 0.45 -27.05 -0.45 L-25.2 -0.3 -23.05 0.1 -21.05 0.15 Q-19.75 -1.85 -17.65 -2.55 L-14.5 -2.75 -11.4 -1.8 Q-9.55 -2.85 -8.05 -4.35 L-6.55 -5.1 Q-4.95 -5.3 -3.85 -4.2 -2.4 -3.55 -0.75 -3.15 0.8 -4.75 1.75 -6.7 L2.5 -7.3 4.7 -7.65 12.45 -7.05 Q16.3 -6.7 19.75 -4.9 21.15 -4.25 22.45 -3.3 L22.25 0.35 Q23.45 1.35 24.85 0.85 L25.65 0.55 25.65 -2.25 Q25.65 -2.85 26.0 -3.35 L26.8 -3.9 Q28.8 -4.15 32.55 -2.85 L33.1 -2.65 Q29.95 -2.25 29.75 -1.15 L29.5 0.9 30.9 4.7 30.0 6.55 Q28.45 5.85 27.1 4.75 L24.35 3.15 Q22.9 2.35 21.4 2.2 L19.55 5.25 Q16.35 6.55 13.5 4.7 L8.6 1.45 Q7.25 0.4 5.6 0.6 5.05 0.7 4.75 1.1 L2.45 4.35 Q1.0 6.7 -1.85 6.6 -3.0 6.65 -3.9 5.75 L-8.8 1.15 Q-9.45 1.95 -10.45 2.2 -11.95 2.5 -12.95 1.35 -13.85 0.5 -15.2 0.7 L-18.1 4.5 Q-21.0 4.5 -23.6 3.35 -25.3 2.35 -27.2 2.05 -31.45 1.4 -35.7 2.05 L-36.3 2.1 -37.0 2.25 M-36.3 2.1 L-35.8 1.9 M22.25 0.35 L21.4 2.2" fill="none" stroke="#66ff99" stroke-linecap="round" stroke-linejoin="round" stroke-width="0.05"/>
  </g>
  <defs>
    <linearGradient gradientTransform="matrix(0.0408, 0.0, 0.0, 0.0087, -0.15, 0.85)" gradientUnits="userSpaceOnUse" id="gradient0" spreadMethod="pad" x1="-819.2" x2="819.2">
      <stop offset="0.10196078431372549" stop-color="#824ad7" stop-opacity="0.4117647"/>
      <stop offset="1.0" stop-color="#15ffea" stop-opacity="0.8"/>
    </linearGradient>
  </defs>
</svg>
