<?xml version="1.0" encoding="UTF-8" standalone="no"?>
<svg xmlns:xlink="http://www.w3.org/1999/xlink" height="70.7px" width="32.7px" xmlns="http://www.w3.org/2000/svg">
  <g transform="matrix(1.0, 0.0, 0.0, 1.0, 0.0, 0.0)">
    <path d="M6.45 -5.1 Q8.45 -3.2 9.35 -0.75 9.55 -0.1 9.3 0.55 L8.3 2.3 6.95 3.4 4.95 4.7 Q1.45 6.75 1.3 10.95 1.25 11.75 1.6 12.55 2.3 14.2 3.35 15.45 4.9 17.4 5.25 19.7 5.0 21.3 4.05 22.3 L1.25 25.7 Q0.55 26.55 0.9 27.5 L4.45 36.35 Q3.25 36.25 2.55 35.55 0.15 33.3 -1.15 30.3 L-2.1 27.15 -2.0 25.9 -1.1 23.0 Q-0.2 20.0 -1.5 17.25 L-3.2 13.95 Q-4.25 12.1 -3.45 10.1 -2.6 7.95 -3.45 5.85 -4.55 3.25 -6.25 0.9 -8.0 -1.5 -6.15 -3.95 -6.15 -0.6 -2.8 0.25 0.3 1.15 3.3 -0.25 6.3 -1.75 6.45 -5.1 M0.95 23.0 L1.55 20.6 0.85 18.75 1.25 17.3 0.5 15.75 -0.2 15.1 -0.25 14.8 -0.3 12.4 -1.6 10.8 -0.55 8.4 -1.0 6.85 -0.35 5.75 4.15 3.45 4.4 2.6 Q0.85 3.45 -2.5 2.7 L-2.6 2.0 -2.5 2.7 Q0.85 3.45 4.4 2.6 L4.15 3.45 -0.35 5.75 -1.0 6.85 -0.55 8.4 -1.6 10.8 -0.3 12.4 -0.25 14.8 -0.2 15.1 0.5 15.75 1.25 17.3 0.85 18.75 1.55 20.6 0.95 23.0" fill="#11d5c0" fill-opacity="0.77254903" fill-rule="evenodd" stroke="none"/>
    <path d="M1.85 -19.0 Q1.65 -19.45 1.0 -19.45 0.0 -19.45 0.0 -18.5 L0.1 -18.05 Q-0.35 -17.7 -0.8 -17.6 L-0.75 -18.0 Q-0.75 -19.7 -3.05 -18.9 -5.4 -18.15 -5.4 -16.8 -5.45 -16.0 -4.5 -15.9 L-4.5 -15.8 Q-4.5 -15.35 -4.15 -15.15 L-3.75 -14.95 -3.45 -14.7 Q-2.6 -14.0 -1.25 -14.0 4.4 -14.0 4.4 -17.25 4.4 -18.3 4.0 -18.8 L3.5 -18.9 3.45 -18.85 3.1 -18.4 3.0 -18.5 2.8 -18.65 1.85 -19.0 M5.4 -19.15 Q6.55 -17.9 6.15 -16.25 5.95 -15.3 5.0 -14.7 1.65 -12.65 -2.4 -13.25 -5.55 -13.3 -7.15 -16.15 L-6.65 -17.35 Q-5.35 -19.05 -3.65 -19.8 -0.6 -21.05 2.65 -20.65 4.3 -20.35 5.4 -19.15 M-0.8 -4.5 Q-0.65 -4.05 0.0 -4.05 0.35 -4.05 0.65 -4.35 L0.9 -4.95 Q0.9 -5.85 0.0 -5.85 L-0.05 -5.85 Q-0.25 -6.2 -0.75 -6.15 -1.5 -6.1 -1.5 -5.3 -1.55 -4.55 -0.8 -4.5 M1.35 -6.65 Q1.9 -6.1 1.9 -5.25 1.9 -4.4 1.35 -3.8 0.75 -3.25 -0.1 -3.25 -0.95 -3.25 -1.5 -3.8 -2.1 -4.4 -2.1 -5.25 -2.1 -6.1 -1.5 -6.65 -0.95 -7.25 -0.1 -7.25 0.75 -7.25 1.35 -6.65" fill="#33ff99" fill-rule="evenodd" stroke="none"/>
    <path d="M3.0 -18.5 L3.1 -18.4 3.45 -18.85 3.5 -18.9 4.0 -18.8 Q4.4 -18.3 4.4 -17.25 4.4 -14.0 -1.25 -14.0 -2.6 -14.0 -3.45 -14.7 L-3.75 -14.95 -4.15 -15.15 Q-4.5 -15.35 -4.5 -15.8 L-4.5 -15.9 -4.25 -15.9 -2.9 -16.1 -2.85 -16.1 Q-1.4 -14.5 0.55 -15.35 L1.1 -15.45 2.95 -17.15 3.0 -18.5 M-0.05 -5.85 L0.0 -5.85 Q0.9 -5.85 0.9 -4.95 L0.65 -4.35 Q0.35 -4.05 0.0 -4.05 -0.65 -4.05 -0.8 -4.5 L-0.75 -4.5 Q-0.4 -4.5 -0.15 -4.85 0.0 -5.15 0.0 -5.4 L-0.05 -5.85" fill="#009999" fill-rule="evenodd" stroke="none"/>
    <path d="M0.1 -18.05 L0.0 -18.5 Q0.0 -19.45 1.0 -19.45 1.65 -19.45 1.85 -19.0 L1.95 -18.5 1.75 -18.0 Q1.5 -17.55 0.95 -17.55 0.25 -17.55 0.1 -18.05 M-4.5 -15.9 Q-5.45 -16.0 -5.4 -16.8 -5.4 -18.15 -3.05 -18.9 -0.75 -19.7 -0.75 -18.0 L-0.8 -17.6 -1.95 -16.5 -2.85 -16.1 -2.9 -16.1 -4.25 -15.9 -4.5 -15.9 M-0.8 -4.5 Q-1.55 -4.55 -1.5 -5.3 -1.5 -6.1 -0.75 -6.15 -0.25 -6.2 -0.05 -5.85 L0.0 -5.4 Q0.0 -5.15 -0.15 -4.85 -0.4 -4.5 -0.75 -4.5 L-0.8 -4.5" fill="#ccffff" fill-rule="evenodd" stroke="none"/>
    <path d="M0.05 -30.65 Q-1.7 -29.05 -4.05 -28.2 L-5.25 -27.75 -6.85 -28.9 Q-9.75 -31.2 -10.3 -33.75 L-6.3 -34.25 Q-3.55 -34.8 -2.6 -32.65 L0.15 -30.75 0.05 -30.65 M2.8 -24.85 L8.1 -28.2 Q13.75 -25.75 15.9 -20.2 17.0 -17.35 15.3 -15.05 14.0 -13.25 12.1 -12.0 9.85 -10.65 7.45 -10.3 3.95 -10.2 0.65 -11.5 L4.7 -12.75 Q7.25 -13.0 9.45 -14.35 10.9 -15.2 11.15 -16.75 11.35 -18.0 10.9 -19.35 10.5 -20.75 9.35 -21.85 6.55 -24.4 2.8 -24.85" fill="#824ad7" fill-opacity="0.4117647" fill-rule="evenodd" stroke="none"/>
    <path d="M1.85 -19.0 L2.8 -18.65 3.0 -18.5 2.95 -17.15 1.1 -15.45 0.55 -15.35 Q-1.4 -14.5 -2.85 -16.1 L-1.95 -16.5 -0.8 -17.6 Q-0.35 -17.7 0.1 -18.05 0.25 -17.55 0.95 -17.55 1.5 -17.55 1.75 -18.0 L1.95 -18.5 1.85 -19.0" fill="#000033" fill-rule="evenodd" stroke="none"/>
    <path d="M2.35 -34.15 L2.65 -34.05 Q6.25 -32.9 7.9 -32.95 9.55 -33.0 10.05 -32.0 L9.7 -30.65 Q9.35 -29.25 8.1 -28.2 L2.8 -24.85 -3.0 -22.65 Q-4.6 -21.95 -5.9 -20.85 -7.15 -19.65 -7.95 -18.15 -8.5 -17.15 -8.25 -16.05 -7.2 -11.05 -1.95 -9.45 L-6.0 -9.75 Q-8.5 -10.25 -10.85 -11.4 -13.6 -12.75 -15.25 -15.2 -17.0 -17.8 -16.0 -20.7 L-15.1 -22.35 Q-11.2 -27.0 -5.25 -27.75 L-4.05 -28.2 Q-1.7 -29.05 0.05 -30.65 L0.2 -30.75 2.35 -34.15" fill="url(#gradient0)" fill-rule="evenodd" stroke="none"/>
    <path d="M2.35 -34.15 L0.2 -30.75 0.05 -30.65 Q-1.7 -29.05 -4.05 -28.2 L-5.25 -27.75 Q-11.2 -27.0 -15.1 -22.35 L-16.0 -20.7 Q-17.0 -17.8 -15.25 -15.2 -13.6 -12.75 -10.85 -11.4 -8.5 -10.25 -6.0 -9.75 L-1.95 -9.45 Q-7.2 -11.05 -8.25 -16.05 -8.5 -17.15 -7.95 -18.15 -7.15 -19.65 -5.9 -20.85 -4.6 -21.95 -3.0 -22.65 L2.8 -24.85 8.1 -28.2 Q9.35 -29.25 9.7 -30.65 L10.05 -32.0 M0.2 -30.75 L0.15 -30.75 -2.6 -32.65 M-10.3 -33.75 Q-9.75 -31.2 -6.85 -28.9 L-5.25 -27.75 M2.8 -24.85 Q6.55 -24.4 9.35 -21.85 10.5 -20.75 10.9 -19.35 11.35 -18.0 11.15 -16.75 10.9 -15.2 9.45 -14.35 7.25 -13.0 4.7 -12.75 L0.65 -11.5 Q3.95 -10.2 7.45 -10.3 9.85 -10.65 12.1 -12.0 14.0 -13.25 15.3 -15.05 17.0 -17.35 15.9 -20.2 13.75 -25.75 8.1 -28.2 M5.4 -19.15 Q4.3 -20.35 2.65 -20.65 -0.6 -21.05 -3.65 -19.8 -5.35 -19.05 -6.65 -17.35 L-7.15 -16.15 Q-5.55 -13.3 -2.4 -13.25 1.65 -12.65 5.0 -14.7 5.95 -15.3 6.15 -16.25 6.55 -17.9 5.4 -19.15 M1.35 -6.65 Q0.75 -7.25 -0.1 -7.25 -0.95 -7.25 -1.5 -6.65 -2.1 -6.1 -2.1 -5.25 -2.1 -4.4 -1.5 -3.8 -0.95 -3.25 -0.1 -3.25 0.75 -3.25 1.35 -3.8 1.9 -4.4 1.9 -5.25 1.9 -6.1 1.35 -6.65 M6.45 -5.1 Q8.45 -3.2 9.35 -0.75 9.55 -0.1 9.3 0.55 L8.3 2.3 6.95 3.4 4.95 4.7 Q1.45 6.75 1.3 10.95 1.25 11.75 1.6 12.55 2.3 14.2 3.35 15.45 4.9 17.4 5.25 19.7 5.0 21.3 4.05 22.3 L1.25 25.7 Q0.55 26.55 0.9 27.5 L4.45 36.35 Q3.25 36.25 2.55 35.55 0.15 33.3 -1.15 30.3 L-2.1 27.15 -2.0 25.9 -1.1 23.0 Q-0.2 20.0 -1.5 17.25 L-3.2 13.95 Q-4.25 12.1 -3.45 10.1 -2.6 7.95 -3.45 5.85 -4.55 3.25 -6.25 0.9 -8.0 -1.5 -6.15 -3.95 -6.15 -0.6 -2.8 0.25 0.3 1.15 3.3 -0.25 6.3 -1.75 6.45 -5.1 M-2.6 2.0 L-2.5 2.7 Q0.85 3.45 4.4 2.6 L4.15 3.45 -0.35 5.75 -1.0 6.85 -0.55 8.4 -1.6 10.8 -0.3 12.4 -0.25 14.8 -0.2 15.1 0.5 15.75 1.25 17.3 0.85 18.75 1.55 20.6 0.95 23.0" fill="none" stroke="#66ff99" stroke-linecap="round" stroke-linejoin="round" stroke-width="0.05"/>
  </g>
  <defs>
    <linearGradient gradientTransform="matrix(1.0E-4, -0.0108, 0.0333, 3.0E-4, 35.9, -21.15)" gradientUnits="userSpaceOnUse" id="gradient0" spreadMethod="pad" x1="-819.2" x2="819.2">
      <stop offset="0.0" stop-color="#824ad7" stop-opacity="0.4117647"/>
      <stop offset="1.0" stop-color="#15ffea" stop-opacity="0.8"/>
    </linearGradient>
  </defs>
</svg>
