<svg xmlns:xlink="http://www.w3.org/1999/xlink" xmlns="http://www.w3.org/2000/svg" height="91.0px" width="138.1px">
  <g transform="matrix(1.0, 0.0, 0.0, 1.0, 60.05, 48.25)">
    <g data-characterId="1534" height="83.4" transform="matrix(1.0, 0.0, 0.0, 1.0, -57.15, -43.25)" width="135.2" xlink:href="#shape0"><g id="shape0" transform="matrix(1.0, 0.0, 0.0, 1.0, 57.15, 43.25)">
      <path d="M-31.8 -24.2 L-28.05 -29.2 -23.3 -34.5 Q-21.85 -36.05 -19.85 -37.0 L-12.7 -40.2 Q-8.95 -41.65 -4.85 -42.4 L-2.2 -42.75 3.05 -41.15 Q6.15 -42.9 9.9 -42.55 15.7 -42.1 20.25 -38.45 L25.05 -34.55 30.9 -29.15 Q34.8 -25.1 38.0 -20.6 L38.8 -23.2 Q39.45 -24.85 40.65 -26.05 45.25 -30.8 52.1 -31.1 55.55 -31.25 58.5 -29.45 61.55 -27.55 62.95 -24.3 63.95 -22.05 64.35 -19.6 65.9 -10.9 66.75 -2.05 67.2 2.25 68.9 6.35 70.6 10.5 73.7 13.3 75.45 14.85 77.55 14.6 77.2 16.4 76.1 17.75 L74.55 19.2 Q69.4 22.5 63.45 21.25 61.25 20.65 59.65 19.15 55.5 15.3 53.9 10.0 53.3 7.95 53.3 5.9 53.35 0.45 51.75 -4.6 51.3 -5.95 49.9 -6.45 46.75 -7.5 43.45 -6.35 L43.15 -6.3 43.05 -6.85 43.15 -6.3 Q43.8 -0.4 42.55 5.45 L41.9 8.0 39.25 17.05 37.8 20.9 Q36.15 24.45 35.8 28.45 35.75 29.35 36.0 30.2 36.95 33.7 39.7 36.25 L36.25 35.95 38.35 38.1 Q38.35 38.85 36.8 38.4 L36.0 38.15 35.1 37.4 35.1 38.5 35.2 39.15 35.45 39.65 Q32.9 37.25 32.55 33.95 L32.45 32.5 32.1 28.2 Q32.0 27.1 32.35 26.1 32.5 25.55 32.95 25.2 L33.85 24.5 34.9 23.2 35.8 20.25 Q36.55 16.45 37.45 12.65 37.8 11.05 37.75 9.5 37.7 6.3 36.25 3.45 L35.25 1.8 Q34.8 1.1 34.05 0.95 29.95 0.1 28.8 4.0 L28.8 4.3 Q28.65 4.45 28.65 4.65 L28.3 9.75 Q28.15 14.0 26.05 17.85 L25.5 17.6 Q26.35 14.45 25.55 11.1 24.75 7.85 24.4 4.6 24.1 2.0 22.75 -0.3 L22.85 -1.0 Q17.95 -1.95 13.2 -3.45 8.15 -4.9 3.4 -7.35 -1.05 -9.75 -4.65 -13.1 -8.15 -16.3 -10.7 -20.35 L-11.15 -21.3 -11.2 -22.15 -12.05 -22.45 Q-12.85 -21.6 -13.8 -21.25 L-14.85 -20.7 -17.55 -17.35 -22.75 -9.8 Q-24.0 -8.0 -25.5 -6.45 -29.3 -2.65 -33.95 0.25 L-34.9 1.0 -35.1 0.7 Q-36.4 -2.85 -36.55 -6.7 -36.7 -10.65 -35.8 -14.35 -34.45 -19.6 -31.8 -24.2 -34.45 -19.6 -35.8 -14.35 -36.7 -10.65 -36.55 -6.7 -36.4 -2.85 -35.1 0.7 -37.35 5.25 -37.7 10.35 L-38.35 18.4 Q-38.5 20.0 -39.15 21.5 -41.6 26.95 -46.9 29.8 L-50.0 31.3 Q-52.65 32.4 -55.25 32.15 L-55.3 31.25 Q-51.3 27.8 -49.45 22.85 -47.45 17.35 -47.55 11.5 -47.65 7.1 -48.3 2.9 -49.05 -1.95 -49.05 -6.75 -49.0 -12.25 -47.05 -17.55 -45.0 -23.2 -39.8 -25.9 -37.4 -27.2 -34.7 -26.65 -32.95 -26.2 -32.2 -24.45 L-31.8 -24.2 M26.5 0.0 L25.9 -0.05 Q24.5 -1.35 22.85 -1.0 24.5 -1.35 25.9 -0.05 L26.5 0.0 M5.5 -38.3 L3.55 -37.25 Q1.85 -36.15 0.6 -34.55 1.85 -36.15 3.55 -37.25 L5.5 -38.3 M4.6 -40.3 Q2.0 -39.55 0.3 -37.15 2.0 -39.55 4.6 -40.3 M33.1 -21.9 L31.1 -23.6 25.75 -28.35 19.9 -33.65 Q17.15 -35.95 13.85 -37.5 11.55 -38.55 8.95 -38.6 5.8 -38.65 3.45 -36.55 5.8 -38.65 8.95 -38.6 11.55 -38.55 13.85 -37.5 17.15 -35.95 19.9 -33.65 L25.75 -28.35 31.1 -23.6 33.1 -21.9 M28.2 -19.85 Q25.9 -20.55 23.85 -21.75 19.9 -24.0 16.05 -26.6 12.1 -29.35 9.25 -32.8 12.1 -29.35 16.05 -26.6 19.9 -24.0 23.85 -21.75 25.9 -20.55 28.2 -19.85 M28.8 -18.15 Q24.8 -18.4 20.95 -19.4 16.45 -20.55 12.35 -22.9 9.1 -24.75 6.25 -27.25 5.5 -27.9 4.9 -28.8 5.5 -27.9 6.25 -27.25 9.1 -24.75 12.35 -22.9 16.45 -20.55 20.95 -19.4 24.8 -18.4 28.8 -18.15 M7.8 -31.95 L5.55 -32.1 Q1.75 -31.75 -1.15 -29.35 1.75 -31.75 5.55 -32.1 L7.8 -31.95 M24.2 -14.5 L22.8 -15.3 17.45 -18.2 16.4 -18.45 17.45 -18.2 22.8 -15.3 24.2 -14.5 30.25 -14.35 31.4 -14.7 30.25 -14.35 24.2 -14.5 23.4 -14.65 Q17.7 -15.55 12.2 -17.35 9.4 -18.3 6.8 -19.85 3.9 -21.6 1.3 -23.75 L-0.25 -25.35 1.3 -23.75 Q3.9 -21.6 6.8 -19.85 9.4 -18.3 12.2 -17.35 17.7 -15.55 23.4 -14.65 L24.2 -14.5 25.6 -13.8 24.2 -14.5 M7.7 -14.05 L6.45 -14.6 Q5.2 -15.1 4.05 -15.85 5.2 -15.1 6.45 -14.6 L7.7 -14.05 6.25 -15.0 -1.25 -20.3 Q-2.3 -21.1 -2.55 -22.15 -2.3 -21.1 -1.25 -20.3 L6.25 -15.0 7.7 -14.05 Q10.6 -12.9 13.55 -11.85 L21.6 -9.0 13.55 -11.85 Q10.6 -12.9 7.7 -14.05 11.6 -11.7 15.9 -10.3 18.7 -9.4 21.6 -9.0 L25.6 -8.75 29.95 -9.2 25.6 -8.75 21.6 -9.0 Q18.7 -9.4 15.9 -10.3 11.6 -11.7 7.7 -14.05 M19.0 -6.05 L16.4 -6.35 Q12.85 -6.75 9.55 -8.05 5.35 -9.65 1.6 -12.35 -2.65 -15.4 -5.45 -19.85 -6.15 -20.9 -6.0 -22.15 -6.15 -20.9 -5.45 -19.85 -2.65 -15.4 1.6 -12.35 5.35 -9.65 9.55 -8.05 12.85 -6.75 16.4 -6.35 L19.0 -6.05 M20.15 -5.5 L16.25 -5.7 Q11.4 -6.5 7.15 -8.75 2.35 -11.25 -1.85 -14.9 -4.45 -17.15 -6.75 -19.7 L-7.45 -20.75 -6.75 -19.7 Q-4.45 -17.15 -1.85 -14.9 2.35 -11.25 7.15 -8.75 11.4 -6.5 16.25 -5.7 L20.15 -5.5 M39.45 -18.2 L38.0 -20.6 39.45 -18.2 Q38.95 -18.2 38.65 -17.85 38.3 -17.55 38.3 -17.05 L38.1 -17.55 38.25 -16.65 38.3 -16.35 Q38.45 -10.85 42.7 -7.05 L43.05 -6.85 45.15 -7.45 45.15 -8.35 Q44.65 -12.5 42.4 -15.9 L41.35 -17.25 Q40.6 -18.05 39.45 -18.2 M33.4 -6.9 Q28.35 -6.6 23.6 -8.3 L21.6 -9.0 23.6 -8.3 Q28.35 -6.6 33.4 -6.9 M28.8 -0.9 L28.45 -2.6 Q28.1 -3.85 28.2 -5.2 28.1 -3.85 28.45 -2.6 L28.8 -0.9 29.1 0.85 28.8 -0.9 28.7 -1.15 Q28.4 -2.6 27.65 -3.75 28.4 -2.6 28.7 -1.15 L28.8 -0.9 M33.7 -7.5 L34.05 -6.85 34.85 -2.05 35.25 1.8 34.85 -2.05 34.05 -6.85 33.7 -7.5 M32.8 -2.05 L32.25 -4.9 32.1 -5.75 31.95 -6.3 32.1 -5.75 32.25 -4.9 32.8 -2.05 M39.45 -2.3 Q39.15 -4.0 38.4 -5.55 37.55 -7.35 36.25 -8.35 L36.25 -7.8 36.25 -8.35 Q37.55 -7.35 38.4 -5.55 39.15 -4.0 39.45 -2.3 M38.55 3.7 L38.7 1.15 Q38.7 -1.7 38.35 -4.55 L38.0 -5.5 38.35 -4.55 Q38.7 -1.7 38.7 1.15 L38.55 3.7 M59.05 -19.2 L58.15 -20.15 57.9 -19.6 57.85 -19.0 57.9 -19.6 58.15 -20.15 59.05 -19.2 57.85 -21.25 Q56.55 -23.3 54.45 -24.6 52.55 -25.75 50.35 -26.5 52.55 -25.75 54.45 -24.6 56.55 -23.3 57.85 -21.25 L59.05 -19.2 Q61.1 -15.5 62.5 -11.5 L62.6 -11.2 Q63.1 -9.55 62.45 -8.05 63.1 -9.55 62.6 -11.2 L62.5 -11.5 Q61.1 -15.5 59.05 -19.2 62.0 -15.85 62.6 -11.2 62.0 -15.85 59.05 -19.2 M58.4 -8.05 L55.9 -12.85 Q54.7 -14.95 52.95 -16.4 54.7 -14.95 55.9 -12.85 L58.4 -8.05 M50.05 -13.9 L48.1 -13.95 Q47.65 -13.8 47.5 -13.25 47.65 -13.8 48.1 -13.95 L50.05 -13.9 Q52.6 -13.4 53.9 -11.0 L56.05 -7.2 57.0 -5.5 56.05 -7.2 53.9 -11.0 Q52.6 -13.4 50.05 -13.9 L50.6 -13.7 Q52.55 -12.65 53.7 -10.7 55.4 -7.75 56.65 -4.6 L59.65 2.8 Q61.3 6.9 63.55 10.55 65.6 13.8 68.4 16.45 L69.65 17.25 68.4 16.45 Q65.6 13.8 63.55 10.55 61.3 6.9 59.65 2.8 L56.65 -4.6 Q55.4 -7.75 53.7 -10.7 52.55 -12.65 50.6 -13.7 L50.05 -13.9 M68.8 10.65 Q67.65 9.65 66.9 8.35 64.9 5.0 63.35 1.35 61.75 -2.45 60.25 -6.4 59.0 -9.8 58.25 -13.35 57.3 -18.0 53.8 -21.3 52.4 -22.6 50.8 -23.7 49.65 -24.45 48.4 -24.4 46.65 -24.3 45.0 -23.45 43.75 -22.75 42.85 -21.7 42.35 -21.05 42.9 -21.0 42.35 -21.05 42.85 -21.7 43.75 -22.75 45.0 -23.45 46.65 -24.3 48.4 -24.4 49.65 -24.45 50.8 -23.7 52.4 -22.6 53.8 -21.3 57.3 -18.0 58.25 -13.35 59.0 -9.8 60.25 -6.4 61.75 -2.45 63.35 1.35 64.9 5.0 66.9 8.35 67.65 9.65 68.8 10.65 M-46.55 -8.8 L-45.95 -13.25 Q-45.45 -16.0 -43.95 -18.4 L-41.8 -21.1 -39.65 -22.65 Q-37.95 -23.5 -37.1 -22.15 -37.95 -23.5 -39.65 -22.65 L-41.8 -21.1 -43.95 -18.4 Q-45.45 -16.0 -45.95 -13.25 L-46.55 -8.8 Q-45.95 -10.85 -44.85 -12.65 -45.95 -10.85 -46.55 -8.8 L-46.7 -6.65 -46.65 -2.4 Q-46.55 1.25 -46.1 4.9 L-46.0 6.3 Q-46.0 10.05 -45.65 13.8 L-45.55 15.8 -45.55 17.55 Q-45.55 22.6 -48.3 26.75 -45.55 22.6 -45.55 17.55 L-45.55 15.8 -45.65 13.8 Q-46.0 10.05 -46.0 6.3 L-46.1 4.9 Q-46.55 1.25 -46.65 -2.4 L-46.7 -6.65 -46.55 -8.8 -47.25 -5.75 Q-47.45 -4.0 -46.65 -2.4 -47.45 -4.0 -47.25 -5.75 L-46.55 -8.8 M33.95 28.2 L33.95 29.05 Q34.0 30.7 34.55 31.9 34.0 30.7 33.95 29.05 L33.95 28.2 M-40.85 4.6 L-41.2 2.0 Q-41.5 -3.35 -42.1 -8.65 L-42.15 -10.7 -42.1 -8.65 Q-41.5 -3.35 -41.2 2.0 L-40.85 4.6 M-42.15 -10.95 L-42.15 -10.7 -42.4 -10.3 Q-43.8 -6.45 -43.4 -2.3 -43.8 -6.45 -42.4 -10.3 L-42.15 -10.7 -42.15 -10.95 Q-42.05 -12.55 -41.45 -14.1 -40.9 -15.45 -39.7 -15.55 -40.9 -15.45 -41.45 -14.1 -42.05 -12.55 -42.15 -10.95 M-4.3 -38.85 L-3.25 -38.2 -2.3 -37.15 -3.25 -38.2 -4.3 -38.85 M-10.6 -29.35 L-11.5 -29.65 -14.3 -30.1 Q-17.1 -29.8 -19.35 -28.1 -22.85 -25.45 -25.45 -21.85 -27.45 -19.0 -28.75 -15.75 L-29.1 -14.7 -28.75 -15.75 Q-27.45 -19.0 -25.45 -21.85 -22.85 -25.45 -19.35 -28.1 -17.1 -29.8 -14.3 -30.1 L-11.5 -29.65 -10.6 -29.35 M-9.2 -33.65 Q-10.05 -34.35 -10.8 -34.3 -16.2 -33.7 -19.85 -29.65 -16.2 -33.7 -10.8 -34.3 -10.05 -34.35 -9.2 -33.65 M-4.3 -40.6 L-6.05 -41.3 -7.95 -41.4 Q-9.6 -41.0 -11.15 -40.25 -16.45 -37.55 -20.75 -33.45 -24.4 -30.0 -27.25 -25.85 -30.55 -21.0 -32.65 -15.5 -34.45 -10.9 -34.0 -6.05 L-33.95 -5.2 -34.0 -6.05 Q-34.45 -10.9 -32.65 -15.5 -30.55 -21.0 -27.25 -25.85 -24.4 -30.0 -20.75 -33.45 -16.45 -37.55 -11.15 -40.25 -9.6 -41.0 -7.95 -41.4 L-6.05 -41.3 -4.3 -40.6 M-29.1 -14.7 L-29.65 -13.65 Q-31.45 -10.2 -31.65 -6.35 -31.45 -10.2 -29.65 -13.65 L-29.1 -14.7 -26.6 -18.6 Q-24.45 -21.45 -21.9 -23.95 L-16.95 -28.5 -21.9 -23.95 Q-24.45 -21.45 -26.6 -18.6 L-29.1 -14.7 Q-29.45 -13.1 -29.05 -11.5 -29.45 -13.1 -29.1 -14.7 M-10.35 -29.05 L-9.5 -28.75 Q-7.9 -28.0 -8.05 -26.5 -7.9 -28.0 -9.5 -28.75 L-10.35 -29.05 M-8.9 -33.95 L-8.35 -33.05 Q-7.7 -31.8 -6.6 -31.35 -7.7 -31.8 -8.35 -33.05 L-8.9 -33.95 M-38.3 -3.45 L-38.25 -5.5 -38.3 -3.45 -37.95 -4.35 -38.3 -3.45 -38.35 -2.9 Q-38.4 -1.9 -38.75 -0.9 -38.4 -1.9 -38.35 -2.9 L-38.3 -3.45 -38.4 -3.15 -38.75 -0.9 -38.8 0.85 -38.75 -0.9 -38.4 -3.15 -38.3 -3.45 M-16.1 -23.6 L-20.65 -17.2 -25.85 -10.1 -20.65 -17.2 -16.1 -23.6 M-15.25 -34.25 L-20.55 -30.3 Q-24.0 -27.45 -26.9 -24.1 -29.9 -20.65 -31.7 -16.45 -33.9 -11.45 -34.0 -6.05 -33.9 -11.45 -31.7 -16.45 -29.9 -20.65 -26.9 -24.1 -24.0 -27.45 -20.55 -30.3 L-15.25 -34.25 M-32.8 -4.05 L-33.0 -2.3 -33.05 -1.15 -33.0 -2.3 -32.8 -4.05 M-30.75 -3.45 L-29.05 -6.05 -23.35 -15.0 Q-20.3 -19.75 -16.4 -23.9 -14.95 -25.45 -12.95 -25.6 -14.95 -25.45 -16.4 -23.9 -20.3 -19.75 -23.35 -15.0 L-29.05 -6.05 -30.75 -3.45 M-1.7 -25.9 L-3.7 -24.45 -5.45 -23.3 -3.7 -24.45 -1.7 -25.9" fill="url(#gradient0)" fill-rule="evenodd" stroke="none"/>
      <path d="M39.45 -18.2 Q40.6 -18.05 41.35 -17.25 L42.4 -15.9 Q44.65 -12.5 45.15 -8.35 L45.15 -7.45 43.05 -6.85 42.7 -7.05 Q38.45 -10.85 38.3 -16.35 L38.3 -17.05 Q38.3 -17.55 38.65 -17.85 38.95 -18.2 39.45 -18.2" fill="#7b6746" fill-rule="evenodd" stroke="none"/>
      <path d="M-11.2 -22.15 L-11.15 -21.3 -10.7 -20.35 Q-8.15 -16.3 -4.65 -13.1 -1.05 -9.75 3.4 -7.35 8.15 -4.9 13.2 -3.45 17.95 -1.95 22.85 -1.0 24.5 -1.35 25.9 -0.05 L26.5 0.0" fill="none" stroke="#000000" stroke-linecap="round" stroke-linejoin="round" stroke-width="2.0"/>
      <path d="M38.0 -20.6 Q34.8 -25.1 30.9 -29.15 L25.05 -34.55 20.25 -38.45 Q15.7 -42.1 9.9 -42.55 6.15 -42.9 3.05 -41.15 L-2.2 -42.75 -4.85 -42.4 Q-8.95 -41.65 -12.7 -40.2 L-19.85 -37.0 Q-21.85 -36.05 -23.3 -34.5 L-28.05 -29.2 -31.8 -24.2 Q-34.45 -19.6 -35.8 -14.35 -36.7 -10.65 -36.55 -6.7 -36.4 -2.85 -35.1 0.7 L-34.9 1.0 M-33.95 0.25 Q-29.3 -2.65 -25.5 -6.45 -24.0 -8.0 -22.75 -9.8 L-17.55 -17.35 -14.85 -20.7 -13.8 -21.25 Q-12.85 -21.6 -12.05 -22.45 M43.45 -6.35 Q46.75 -7.5 49.9 -6.45 51.3 -5.95 51.75 -4.6 53.35 0.45 53.3 5.9 53.3 7.95 53.9 10.0 55.5 15.3 59.65 19.15 61.25 20.65 63.45 21.25 69.4 22.5 74.55 19.2 L76.1 17.75 Q77.2 16.4 77.55 14.6 75.45 14.85 73.7 13.3 70.6 10.5 68.9 6.35 67.2 2.25 66.75 -2.05 65.9 -10.9 64.35 -19.6 63.95 -22.05 62.95 -24.3 61.55 -27.55 58.5 -29.45 55.55 -31.25 52.1 -31.1 45.25 -30.8 40.65 -26.05 39.45 -24.85 38.8 -23.2 L38.0 -20.6 39.45 -18.2 Q40.6 -18.05 41.35 -17.25 L42.4 -15.9 Q44.65 -12.5 45.15 -8.35 L45.15 -7.45 43.05 -6.85 43.15 -6.3 Q43.8 -0.4 42.55 5.45 L41.9 8.0 39.25 17.05 37.8 20.9 Q36.15 24.45 35.8 28.45 35.75 29.35 36.0 30.2 36.95 33.7 39.7 36.25 L36.25 35.95 38.35 38.1 Q38.35 38.85 36.8 38.4 L36.0 38.15 35.1 37.4 35.1 38.5 35.2 39.15 35.45 39.65 Q32.9 37.25 32.55 33.95 L32.45 32.5 32.1 28.2 Q32.0 27.1 32.35 26.1 32.5 25.55 32.95 25.2 L33.85 24.5 34.9 23.2 35.8 20.25 Q36.55 16.45 37.45 12.65 37.8 11.05 37.75 9.5 37.7 6.3 36.25 3.45 L35.25 1.8 Q34.8 1.1 34.05 0.95 29.95 0.1 28.8 4.0 M38.3 -17.05 L38.25 -16.65 38.3 -16.35 38.3 -17.05 38.1 -17.55 38.25 -16.65 M38.3 -17.05 Q38.3 -17.55 38.65 -17.85 38.95 -18.2 39.45 -18.2 M22.75 -0.3 Q24.1 2.0 24.4 4.6 24.75 7.85 25.55 11.1 26.35 14.45 25.5 17.6 L25.35 19.25 26.05 17.85 Q28.15 14.0 28.3 9.75 L28.65 4.65 Q28.65 4.45 28.8 4.3 M38.3 -16.35 Q38.45 -10.85 42.7 -7.05 L43.05 -6.85 M-32.2 -24.45 Q-32.95 -26.2 -34.7 -26.65 -37.4 -27.2 -39.8 -25.9 -45.0 -23.2 -47.05 -17.55 -49.0 -12.25 -49.05 -6.75 -49.05 -1.95 -48.3 2.9 -47.65 7.1 -47.55 11.5 -47.45 17.35 -49.45 22.85 -51.3 27.8 -55.3 31.25 L-56.65 31.9 -55.25 32.15 Q-52.65 32.4 -50.0 31.3 L-46.9 29.8 Q-41.6 26.95 -39.15 21.5 -38.5 20.0 -38.35 18.4 L-37.7 10.35 Q-37.35 5.25 -35.1 0.7" fill="none" stroke="#000000" stroke-linecap="round" stroke-linejoin="round" stroke-width="2.0"/>
      <path d="M-1.15 -29.35 Q1.75 -31.75 5.55 -32.1 L7.8 -31.95 M4.9 -28.8 Q5.5 -27.9 6.25 -27.25 9.1 -24.75 12.35 -22.9 16.45 -20.55 20.95 -19.4 24.8 -18.4 28.8 -18.15 M9.25 -32.8 Q12.1 -29.35 16.05 -26.6 19.9 -24.0 23.85 -21.75 25.9 -20.55 28.2 -19.85 M3.45 -36.55 Q5.8 -38.65 8.95 -38.6 11.55 -38.55 13.85 -37.5 17.15 -35.95 19.9 -33.65 L25.75 -28.35 31.1 -23.6 33.1 -21.9 M24.2 -14.5 L30.25 -14.35 31.4 -14.7 M7.7 -14.05 L6.25 -15.0 -1.25 -20.3 Q-2.3 -21.1 -2.55 -22.15 M-0.25 -25.35 L1.3 -23.75 Q3.9 -21.6 6.8 -19.85 9.4 -18.3 12.2 -17.35 17.7 -15.55 23.4 -14.65 L24.2 -14.5 M-6.0 -22.15 Q-6.15 -20.9 -5.45 -19.85 -2.65 -15.4 1.6 -12.35 5.35 -9.65 9.55 -8.05 12.85 -6.75 16.4 -6.35 L19.0 -6.05 M7.7 -14.05 Q11.6 -11.7 15.9 -10.3 18.7 -9.4 21.6 -9.0 L25.6 -8.75 29.95 -9.2 M35.25 1.8 L34.85 -2.05 34.05 -6.85 33.7 -7.5 M28.2 -5.2 Q28.1 -3.85 28.45 -2.6 L28.8 -0.9 M38.0 -5.5 L38.35 -4.55 Q38.7 -1.7 38.7 1.15 L38.55 3.7 M59.05 -19.2 L57.85 -21.25 Q56.55 -23.3 54.45 -24.6 52.55 -25.75 50.35 -26.5 M42.9 -21.0 Q42.35 -21.05 42.85 -21.7 43.75 -22.75 45.0 -23.45 46.65 -24.3 48.4 -24.4 49.65 -24.45 50.8 -23.7 52.4 -22.6 53.8 -21.3 57.3 -18.0 58.25 -13.35 59.0 -9.8 60.25 -6.4 61.75 -2.45 63.35 1.35 64.9 5.0 66.9 8.35 67.65 9.65 68.8 10.65 M47.5 -13.25 Q47.65 -13.8 48.1 -13.95 L50.05 -13.9 50.6 -13.7 Q52.55 -12.65 53.7 -10.7 55.4 -7.75 56.65 -4.6 L59.65 2.8 Q61.3 6.9 63.55 10.55 65.6 13.8 68.4 16.45 L69.65 17.25 M62.45 -8.05 Q63.1 -9.55 62.6 -11.2 L62.5 -11.5 Q61.1 -15.5 59.05 -19.2 M34.55 31.9 Q34.0 30.7 33.95 29.05 L33.95 28.2 M-37.1 -22.15 Q-37.95 -23.5 -39.65 -22.65 L-41.8 -21.1 -43.95 -18.4 Q-45.45 -16.0 -45.95 -13.25 L-46.55 -8.8 -46.7 -6.65 -46.65 -2.4 Q-46.55 1.25 -46.1 4.9 L-46.0 6.3 Q-46.0 10.05 -45.65 13.8 L-45.55 15.8 -45.55 17.55 Q-45.55 22.6 -48.3 26.75 M-42.15 -10.7 L-42.1 -8.65 Q-41.5 -3.35 -41.2 2.0 L-40.85 4.6 M-42.15 -10.95 Q-42.05 -12.55 -41.45 -14.1 -40.9 -15.45 -39.7 -15.55 M-33.95 -5.2 L-34.0 -6.05 Q-34.45 -10.9 -32.65 -15.5 -30.55 -21.0 -27.25 -25.85 -24.4 -30.0 -20.75 -33.45 -16.45 -37.55 -11.15 -40.25 -9.6 -41.0 -7.95 -41.4 L-6.05 -41.3 -4.3 -40.6 M-19.85 -29.65 Q-16.2 -33.7 -10.8 -34.3 -10.05 -34.35 -9.2 -33.65 M-29.1 -14.7 L-28.75 -15.75 Q-27.45 -19.0 -25.45 -21.85 -22.85 -25.45 -19.35 -28.1 -17.1 -29.8 -14.3 -30.1 L-11.5 -29.65 -10.6 -29.35 M-29.1 -14.7 Q-29.45 -13.1 -29.05 -11.5 M-38.25 -5.5 L-38.3 -3.45 -38.35 -2.9 Q-38.4 -1.9 -38.75 -0.9 M-12.95 -25.6 Q-14.95 -25.45 -16.4 -23.9 -20.3 -19.75 -23.35 -15.0 L-29.05 -6.05 -30.75 -3.45" fill="none" stroke="#feda9e" stroke-linecap="round" stroke-linejoin="round" stroke-opacity="0.28235295" stroke-width="1.5"/>
      <path d="M0.3 -37.15 Q2.0 -39.55 4.6 -40.3 M0.6 -34.55 Q1.85 -36.15 3.55 -37.25 L5.5 -38.3 M16.4 -18.45 L17.45 -18.2 22.8 -15.3 24.2 -14.5 25.6 -13.8 M4.05 -15.85 Q5.2 -15.1 6.45 -14.6 L7.7 -14.05 Q10.6 -12.9 13.55 -11.85 L21.6 -9.0 23.6 -8.3 Q28.35 -6.6 33.4 -6.9 M-7.45 -20.75 L-6.75 -19.7 Q-4.45 -17.15 -1.85 -14.9 2.35 -11.25 7.15 -8.75 11.4 -6.5 16.25 -5.7 L20.15 -5.5 M28.8 -0.9 L29.1 0.85 M28.8 -0.9 L28.7 -1.15 Q28.4 -2.6 27.65 -3.75 M36.25 -7.8 L36.25 -8.35 Q37.55 -7.35 38.4 -5.55 39.15 -4.0 39.45 -2.3 M31.95 -6.3 L32.1 -5.75 32.25 -4.9 32.8 -2.05 M57.85 -19.0 L57.9 -19.6 58.15 -20.15 59.05 -19.2 Q62.0 -15.85 62.6 -11.2 M52.95 -16.4 Q54.7 -14.95 55.9 -12.85 L58.4 -8.05 M50.05 -13.9 Q52.6 -13.4 53.9 -11.0 L56.05 -7.2 57.0 -5.5 M-46.55 -8.8 Q-45.95 -10.85 -44.85 -12.65 M-46.65 -2.4 Q-47.45 -4.0 -47.25 -5.75 L-46.55 -8.8 M-43.4 -2.3 Q-43.8 -6.45 -42.4 -10.3 L-42.15 -10.7 -42.15 -10.95 M-2.3 -37.15 L-3.25 -38.2 -4.3 -38.85 M-6.6 -31.35 Q-7.7 -31.8 -8.35 -33.05 L-8.9 -33.95 M-8.05 -26.5 Q-7.9 -28.0 -9.5 -28.75 L-10.35 -29.05 M-29.1 -14.7 L-26.6 -18.6 Q-24.45 -21.45 -21.9 -23.95 L-16.95 -28.5 M-31.65 -6.35 Q-31.45 -10.2 -29.65 -13.65 L-29.1 -14.7 M-38.3 -3.45 L-37.95 -4.35 M-38.75 -0.9 L-38.8 0.85 M-38.75 -0.9 L-38.4 -3.15 -38.3 -3.45 M-33.05 -1.15 L-33.0 -2.3 -32.8 -4.05 M-34.0 -6.05 Q-33.9 -11.45 -31.7 -16.45 -29.9 -20.65 -26.9 -24.1 -24.0 -27.45 -20.55 -30.3 L-15.25 -34.25 M-25.85 -10.1 L-20.65 -17.2 -16.1 -23.6 M-5.45 -23.3 L-3.7 -24.45 -1.7 -25.9" fill="none" stroke="#fdf5d0" stroke-linecap="round" stroke-linejoin="round" stroke-opacity="0.53333336" stroke-width="1.5"/>
    </g>
    </g>
  </g>
  <defs>
    <radialGradient cx="0" cy="0" gradientTransform="matrix(0.0011, 0.1099, -0.2202, 0.0021, 4.05, -26.45)" gradientUnits="userSpaceOnUse" id="gradient0" r="819.2" spreadMethod="pad">
      <stop offset="0.0" stop-color="#995c00"/>
      <stop offset="0.2196078431372549" stop-color="#996600"/>
      <stop offset="0.34901960784313724" stop-color="#feda9e"/>
      <stop offset="0.5019607843137255" stop-color="#996600"/>
      <stop offset="1.0" stop-color="#996600"/>
    </radialGradient>
  </defs>
</svg>