<svg xmlns:xlink="http://www.w3.org/1999/xlink" xmlns="http://www.w3.org/2000/svg" height="107.45px" width="78.7px">
  <g transform="matrix(1.0, 0.0, 0.0, 1.0, 39.8, 52.5)">
    <g data-characterId="1523" height="105.0" transform="matrix(1.0, 0.0, 0.0, 1.0, -38.05, -52.5)" width="76.4" xlink:href="#shape0"><g id="shape0" transform="matrix(1.0, 0.0, 0.0, 1.0, 38.05, 52.5)">
      <path d="M23.9 35.8 L18.0 40.85 Q15.7 42.75 11.7 44.65 L3.55 48.3 Q-0.6 50.0 -4.35 50.65 L-9.9 51.55 Q-15.85 52.8 -21.5 50.4 L-24.15 48.8 Q-25.85 47.45 -27.05 44.4 L-29.9 37.2 -34.25 26.35 Q-37.0 19.65 -37.3 14.35 L-37.55 5.5 Q-37.45 2.0 -36.45 -1.7 -35.45 -5.45 -36.15 -7.65 L-37.0 -10.35 Q-38.15 -14.2 -36.85 -18.1 -34.95 -23.65 -33.85 -29.15 -32.85 -34.0 -30.05 -37.85 L-27.1 -41.9 Q-23.45 -46.55 -18.25 -49.1 -13.2 -51.45 -7.9 -51.6 -2.4 -52.25 3.1 -51.85 8.25 -51.4 12.95 -49.05 18.3 -46.45 22.85 -42.85 L26.85 -39.7 Q31.6 -36.35 33.95 -30.75 36.3 -25.25 37.2 -19.4 38.1 -13.55 37.8 -7.6 37.55 -2.35 36.35 2.8 35.25 7.6 32.75 11.8 L31.15 11.1 32.65 12.05 30.05 16.25 28.55 16.75 Q29.75 22.5 28.65 28.45 27.8 33.15 23.9 35.8 M31.45 -1.65 L31.45 -3.65 31.25 -4.55 Q30.35 -6.65 28.95 -5.15 L28.6 -4.6 Q28.05 -2.8 26.45 -2.15 28.05 -2.8 28.6 -4.6 L28.95 -5.15 Q30.35 -6.65 31.25 -4.55 L31.45 -3.65 31.45 -1.65 M24.55 -6.25 Q25.25 -11.35 29.75 -12.0 31.0 -11.5 32.15 -9.85 34.9 -6.15 34.2 -1.45 L34.15 -1.2 34.15 -1.0 Q33.65 2.0 32.65 4.9 32.1 6.6 31.7 8.7 L31.15 11.1 Q28.35 14.4 25.55 11.75 28.35 14.4 31.15 11.1 L31.7 8.7 Q32.1 6.6 32.65 4.9 33.65 2.0 34.15 -1.0 L34.15 -1.2 34.2 -1.45 Q34.9 -6.15 32.15 -9.85 31.0 -11.5 29.75 -12.0 25.25 -11.35 24.55 -6.25 M-26.05 -8.65 L-25.4 -8.2 -26.05 -8.65 M29.45 4.35 L29.45 3.85 29.45 1.35 29.45 3.85 29.45 4.35 M-15.5 17.7 Q-13.55 14.55 -16.45 12.6 -13.55 14.55 -15.5 17.7 M-26.2 18.55 L-26.25 18.55 -26.25 18.6 -26.2 18.55" fill="url(#gradient0)" fill-rule="evenodd" stroke="none"/>
      <path d="M32.65 12.05 L31.15 11.1 32.75 11.8 32.75 11.9 32.65 12.05" fill="url(#gradient1)" fill-rule="evenodd" stroke="none"/>
      <path d="M32.75 11.8 Q35.25 7.6 36.35 2.8 37.55 -2.35 37.8 -7.6 38.1 -13.55 37.2 -19.4 36.3 -25.25 33.95 -30.75 31.6 -36.35 26.85 -39.7 L22.85 -42.85 Q18.3 -46.45 12.95 -49.05 8.25 -51.4 3.1 -51.85 -2.4 -52.25 -7.9 -51.6 -13.2 -51.45 -18.25 -49.1 -23.45 -46.55 -27.1 -41.9 L-30.05 -37.85 Q-32.85 -34.0 -33.85 -29.15 -34.95 -23.65 -36.85 -18.1 -38.15 -14.2 -37.0 -10.35 L-36.15 -7.65 Q-35.45 -5.45 -36.45 -1.7 -37.45 2.0 -37.55 5.5 L-37.3 14.35 Q-37.0 19.65 -34.25 26.35 L-29.9 37.2 -27.05 44.4 Q-25.85 47.45 -24.15 48.8 L-21.5 50.4 Q-15.85 52.8 -9.9 51.55 L-4.35 50.65 Q-0.6 50.0 3.55 48.3 L11.7 44.65 Q15.7 42.75 18.0 40.85 L23.9 35.8 M30.05 16.25 L32.65 12.05 32.75 11.9 32.75 11.8 M31.15 11.1 Q28.35 14.4 25.55 11.75 M31.15 11.1 L31.7 8.7 Q32.1 6.6 32.65 4.9 33.65 2.0 34.15 -1.0 L34.15 -1.2 34.2 -1.45 Q34.9 -6.15 32.15 -9.85 31.0 -11.5 29.75 -12.0 25.25 -11.35 24.55 -6.25 M26.45 -2.15 Q28.05 -2.8 28.6 -4.6 L28.95 -5.15 Q30.35 -6.65 31.25 -4.55 L31.45 -3.65 31.45 -1.65 M29.45 1.35 L29.45 3.85 29.45 4.35 M-25.4 -8.2 L-26.05 -8.65" fill="none" stroke="#000000" stroke-linecap="round" stroke-linejoin="round" stroke-width="2.0"/>
      <path d="M23.9 35.8 Q27.8 33.15 28.65 28.45 29.75 22.5 28.55 16.75" fill="none" stroke="#b9a882" stroke-linecap="round" stroke-linejoin="round" stroke-width="1.5"/>
      <path d="M-16.45 12.6 Q-13.55 14.55 -15.5 17.7" fill="none" stroke="#dfa062" stroke-linecap="round" stroke-linejoin="round" stroke-width="2.0"/>
      <path d="M-20.05 19.35 Q-24.5 20.45 -27.2 18.3 -29.95 16.15 -29.55 13.65 -29.1 11.05 -26.55 6.35 -24.0 1.6 -23.65 -3.55 -23.3 -8.7 -25.4 -8.2" fill="none" stroke="#000000" stroke-linecap="round" stroke-linejoin="round" stroke-width="2.0"/>
      <path d="M0.6 3.1 L0.6 2.8 M7.2 4.55 L7.8 4.55 M0.85 11.45 L0.85 11.15 M9.15 14.55 L9.5 14.3 M14.7 10.3 L14.75 10.0 14.95 9.7 M-33.35 12.3 L-31.95 10.85 -31.65 10.6 M-32.2 5.1 Q-33.25 4.85 -32.45 4.3 M-1.45 21.5 Q-0.9 21.2 -0.7 20.7 M-3.75 10.6 L-3.2 9.95 M-1.45 4.25 L-1.05 3.45 M-9.2 4.25 L-8.85 3.7 -8.6 3.4" fill="none" stroke="#996600" stroke-linecap="round" stroke-linejoin="round" stroke-width="2.0"/>
    </g>
    </g>
  </g>
  <defs>
    <radialGradient cx="0" cy="0" gradientTransform="matrix(0.0543, 0.0, 0.0, 0.0824, -20.0, -3.0)" gradientUnits="userSpaceOnUse" id="gradient0" r="819.2" spreadMethod="pad">
      <stop offset="0.0" stop-color="#f1d0b1"/>
      <stop offset="0.6274509803921569" stop-color="#ecc59d"/>
      <stop offset="1.0" stop-color="#e9bb8f"/>
    </radialGradient>
    <radialGradient cx="0" cy="0" gradientTransform="matrix(0.0494, 0.0, 0.0, 0.0681, -16.0, 3.0)" gradientUnits="userSpaceOnUse" id="gradient1" r="819.2" spreadMethod="pad">
      <stop offset="0.0" stop-color="#f1d0b1"/>
      <stop offset="0.6274509803921569" stop-color="#ecc59d"/>
      <stop offset="1.0" stop-color="#e9bb8f"/>
    </radialGradient>
  </defs>
</svg>