<svg xmlns:xlink="http://www.w3.org/1999/xlink" xmlns="http://www.w3.org/2000/svg" height="91.0px" width="138.1px">
  <g transform="matrix(1.0, 0.0, 0.0, 1.0, 60.05, 48.25)">
    <g data-characterId="1533" height="58.15" transform="matrix(1.0, 0.0, 0.0, 1.0, -34.05, -44.6)" width="81.95" xlink:href="#shape0"><g id="shape0" transform="matrix(1.0, 0.0, 0.0, 1.0, 34.05, 44.6)">
      <path d="M22.7 -38.7 L22.85 -38.25 22.85 -38.7 22.7 -38.7 M-32.1 -10.8 Q-33.0 -11.8 -32.6 -13.35 L-32.5 -14.55 -32.65 -16.4 Q-32.9 -18.55 -31.45 -20.15 L-31.85 -20.45 Q-33.6 -21.7 -33.55 -23.8 -33.45 -27.2 -29.95 -26.45 L-29.65 -26.55 -29.05 -28.5 -27.8 -28.0 -26.9 -29.4 -25.35 -29.35 Q-26.75 -30.6 -26.1 -32.45 -25.4 -34.55 -23.6 -35.95 L-23.05 -35.3 -20.15 -35.4 Q-20.8 -37.8 -18.15 -38.05 L-14.1 -38.0 -13.5 -39.6 -10.65 -39.15 Q-10.75 -41.5 -8.6 -42.2 L-7.75 -42.25 Q-6.65 -41.7 -5.5 -41.5 -4.0 -41.3 -3.3 -42.7 L-2.4 -43.55 Q0.7 -45.1 2.5 -42.2 3.45 -43.05 4.55 -43.35 7.0 -43.3 8.05 -41.45 8.2 -43.0 9.75 -43.5 L15.4 -43.25 Q17.05 -42.6 17.7 -41.15 L18.1 -42.05 18.45 -42.2 Q21.65 -41.95 22.85 -38.7 25.3 -38.3 27.0 -36.35 L27.6 -36.85 Q29.9 -36.8 32.0 -35.85 34.05 -34.85 34.55 -32.65 L34.5 -32.4 34.55 -32.4 38.05 -30.95 Q40.25 -29.9 40.55 -27.6 L37.65 -28.2 39.8 -26.8 41.05 -25.15 Q42.0 -23.05 39.65 -22.2 42.15 -21.1 42.9 -18.5 L42.3 -17.7 44.35 -16.4 Q45.2 -15.75 45.4 -14.7 45.6 -13.8 45.2 -13.0 44.8 -12.05 45.15 -11.5 46.25 -10.6 46.95 -9.35 47.75 -7.8 47.15 -6.15 46.3 -3.85 43.7 -4.3 L44.8 -3.35 Q45.85 -2.45 45.7 -1.2 45.5 0.85 43.45 1.7 45.35 3.55 44.45 6.05 L42.55 6.6 43.5 7.75 Q43.1 9.9 41.15 10.0 40.5 9.6 41.4 10.65 L40.6 10.95 39.7 10.65 Q40.5 12.25 39.35 13.05 38.0 12.6 37.4 11.05 L37.6 10.1 37.1 9.0 Q36.65 8.25 37.0 7.45 37.6 6.1 37.05 4.95 L36.15 4.4 35.9 1.3 31.35 1.15 30.75 -0.2 Q29.45 -0.1 29.65 -0.65 L29.9 -0.9 Q30.3 -1.15 28.9 -1.15 L26.2 -1.4 25.6 -0.85 Q24.9 -2.05 25.55 -3.2 L26.6 -5.45 Q24.4 -5.7 22.7 -7.2 L21.55 -5.75 20.95 -6.8 19.85 -9.15 Q19.25 -10.55 20.2 -11.7 L17.9 -10.45 16.6 -10.35 Q14.5 -11.0 14.45 -13.25 L14.5 -13.75 9.75 -12.8 Q8.9 -14.25 7.4 -13.55 L5.45 -12.75 Q3.1 -12.2 1.7 -14.1 2.15 -12.5 0.6 -11.75 -1.9 -11.1 -3.45 -12.95 L-5.05 -10.9 -7.55 -11.3 Q-8.9 -11.75 -8.95 -13.25 L-14.45 -13.4 -14.45 -14.35 -15.5 -13.4 Q-17.7 -12.15 -19.3 -13.8 -19.95 -12.35 -21.55 -12.35 -24.45 -12.55 -24.75 -15.25 L-25.1 -14.0 Q-26.35 -12.75 -27.65 -13.5 L-27.85 -12.15 -28.4 -11.65 -30.65 -11.95 -30.7 -10.95 -31.65 -10.95 -32.1 -10.8 M35.65 -21.6 L36.3 -21.75 36.75 -22.75 Q34.95 -24.4 32.4 -23.65 L32.8 -24.55 Q32.4 -27.35 29.35 -27.6 L26.55 -27.55 Q26.05 -29.6 24.55 -31.15 23.55 -32.1 22.3 -31.8 23.55 -32.1 24.55 -31.15 26.05 -29.6 26.55 -27.55 L29.35 -27.6 Q32.4 -27.35 32.8 -24.55 L32.4 -23.65 Q34.95 -24.4 36.75 -22.75 L36.3 -21.75 35.65 -21.6 M32.8 -32.5 L34.5 -32.4 32.8 -32.5 M22.3 -31.8 L21.75 -31.7 21.8 -31.45 22.3 -31.8 M15.95 -33.2 L16.9 -33.75 Q20.4 -35.1 21.75 -31.7 20.4 -35.1 16.9 -33.75 L15.95 -33.2 M-8.95 -33.35 Q-9.15 -35.15 -7.5 -35.85 -5.5 -36.5 -4.9 -34.5 -4.15 -35.65 -2.6 -36.1 -0.55 -36.8 0.55 -34.8 -0.55 -36.8 -2.6 -36.1 -4.15 -35.65 -4.9 -34.5 -5.5 -36.5 -7.5 -35.85 -9.15 -35.15 -8.95 -33.35 M-23.9 -23.9 Q-23.55 -26.35 -21.8 -28.0 L-19.85 -27.05 Q-19.2 -28.6 -17.6 -29.4 -16.1 -30.05 -14.95 -29.05 -16.1 -30.05 -17.6 -29.4 -19.2 -28.6 -19.85 -27.05 L-21.8 -28.0 Q-23.55 -26.35 -23.9 -23.9 M33.05 -12.35 L34.25 -13.65 Q35.45 -13.8 36.25 -12.65 L36.15 -11.9 Q35.85 -11.0 36.25 -11.35 39.15 -11.35 39.5 -8.7 L38.8 -7.65 38.25 -7.5 38.8 -7.65 39.5 -8.7 Q39.15 -11.35 36.25 -11.35 35.85 -11.0 36.15 -11.9 L36.25 -12.65 Q35.45 -13.8 34.25 -13.65 L33.05 -12.35 M8.9 -25.6 Q9.25 -26.45 10.2 -26.5 11.4 -26.35 11.6 -25.25 L11.5 -24.75 Q14.35 -26.8 16.8 -24.6 L17.0 -23.5 16.4 -22.45 17.0 -23.5 16.8 -24.6 Q14.35 -26.8 11.5 -24.75 L11.6 -25.25 Q11.4 -26.35 10.2 -26.5 9.25 -26.45 8.9 -25.6" fill="url(#gradient0)" fill-rule="evenodd" stroke="none"/>
      <path d="M22.7 -38.7 L22.85 -38.25 22.85 -38.7 22.7 -38.7 M34.55 -32.65 Q34.05 -34.85 32.0 -35.85 29.9 -36.8 27.6 -36.85 L27.0 -36.35 Q25.3 -38.3 22.85 -38.7 21.65 -41.95 18.45 -42.2 L18.1 -42.05 17.7 -41.15 Q17.05 -42.6 15.4 -43.25 L9.75 -43.5 Q8.2 -43.0 8.05 -41.45 7.0 -43.3 4.55 -43.35 3.45 -43.05 2.5 -42.2 0.7 -45.1 -2.4 -43.55 L-3.3 -42.7 Q-4.0 -41.3 -5.5 -41.5 -6.65 -41.7 -7.75 -42.25 L-8.6 -42.2 Q-10.75 -41.5 -10.65 -39.15 L-13.5 -39.6 -14.1 -38.0 -18.15 -38.05 Q-20.8 -37.8 -20.15 -35.4 L-23.05 -35.3 -23.6 -35.95 Q-25.4 -34.55 -26.1 -32.45 -26.75 -30.6 -25.35 -29.35 L-26.9 -29.4 -27.8 -28.0 -29.05 -28.5 -29.65 -26.55 -29.95 -26.45 Q-33.45 -27.2 -33.55 -23.8 -33.6 -21.7 -31.85 -20.45 L-31.45 -20.15 Q-32.9 -18.55 -32.65 -16.4 L-32.5 -14.55 -32.6 -13.35 Q-33.0 -11.8 -32.1 -10.8 M-31.65 -10.95 L-30.7 -10.95 -30.65 -11.95 -28.4 -11.65 -27.85 -12.15 -27.65 -13.5 Q-26.35 -12.75 -25.1 -14.0 L-24.75 -15.25 Q-24.45 -12.55 -21.55 -12.35 -19.95 -12.35 -19.3 -13.8 -17.7 -12.15 -15.5 -13.4 L-14.45 -14.35 -14.45 -13.4 -8.95 -13.25 Q-8.9 -11.75 -7.55 -11.3 L-5.05 -10.9 -3.45 -12.95 Q-1.9 -11.1 0.6 -11.75 2.15 -12.5 1.7 -14.1 3.1 -12.2 5.45 -12.75 L7.4 -13.55 Q8.9 -14.25 9.75 -12.8 L14.5 -13.75 14.45 -13.25 Q14.5 -11.0 16.6 -10.35 L17.9 -10.45 20.2 -11.7 Q19.25 -10.55 19.85 -9.15 L20.95 -6.8 21.55 -5.75 22.7 -7.2 Q24.4 -5.7 26.6 -5.45 L25.55 -3.2 Q24.9 -2.05 25.6 -0.85 L26.2 -1.4 28.9 -1.15 Q30.3 -1.15 29.9 -0.9 L29.65 -0.65 Q29.45 -0.1 30.75 -0.2 L31.35 1.15 35.9 1.3 36.15 4.4 37.05 4.95 Q37.6 6.1 37.0 7.45 36.65 8.25 37.1 9.0 L37.6 10.1 37.4 11.05 Q38.0 12.6 39.35 13.05 40.5 12.25 39.7 10.65 L40.6 10.95 41.4 10.65 Q40.5 9.6 41.15 10.0 43.1 9.9 43.5 7.75 L42.55 6.6 44.45 6.05 Q45.35 3.55 43.45 1.7 45.5 0.85 45.7 -1.2 45.85 -2.45 44.8 -3.35 L43.7 -4.3 Q46.3 -3.85 47.15 -6.15 47.75 -7.8 46.95 -9.35 46.25 -10.6 45.15 -11.5 44.8 -12.05 45.2 -13.0 45.6 -13.8 45.4 -14.7 45.2 -15.75 44.35 -16.4 L42.3 -17.7 42.9 -18.5 Q42.15 -21.1 39.65 -22.2 42.0 -23.05 41.05 -25.15 L39.8 -26.8 37.65 -28.2 40.55 -27.6 Q40.25 -29.9 38.05 -30.95 L34.55 -32.4 34.5 -32.4 32.8 -32.5 M22.3 -31.8 Q23.55 -32.1 24.55 -31.15 26.05 -29.6 26.55 -27.55 L29.35 -27.6 Q32.4 -27.35 32.8 -24.55 L32.4 -23.65 Q34.95 -24.4 36.75 -22.75 L36.3 -21.75 35.65 -21.6 M22.3 -31.8 L21.8 -31.45 21.75 -31.7 Q20.4 -35.1 16.9 -33.75 L15.95 -33.2 M34.55 -32.4 L34.55 -32.65 M16.4 -22.45 L17.0 -23.5 16.8 -24.6 Q14.35 -26.8 11.5 -24.75 L11.6 -25.25 Q11.4 -26.35 10.2 -26.5 9.25 -26.45 8.9 -25.6 M38.25 -7.5 L38.8 -7.65 39.5 -8.7 Q39.15 -11.35 36.25 -11.35 35.85 -11.0 36.15 -11.9 L36.25 -12.65 Q35.45 -13.8 34.25 -13.65 L33.05 -12.35 M-14.95 -29.05 Q-16.1 -30.05 -17.6 -29.4 -19.2 -28.6 -19.85 -27.05 L-21.8 -28.0 Q-23.55 -26.35 -23.9 -23.9 M0.55 -34.8 Q-0.55 -36.8 -2.6 -36.1 -4.15 -35.65 -4.9 -34.5 -5.5 -36.5 -7.5 -35.85 -9.15 -35.15 -8.95 -33.35" fill="none" stroke="#000000" stroke-linecap="round" stroke-linejoin="round" stroke-width="2.0"/>
    </g>
    </g>
  </g>
  <defs>
    <radialGradient cx="0" cy="0" gradientTransform="matrix(0.0028, 0.1085, -0.1668, 0.0043, 1.0, -31.5)" gradientUnits="userSpaceOnUse" id="gradient0" r="819.2" spreadMethod="pad">
      <stop offset="0.0" stop-color="#3c1e00"/>
      <stop offset="0.3176470588235294" stop-color="#7c543f"/>
      <stop offset="1.0" stop-color="#482400"/>
    </radialGradient>
  </defs>
</svg>