<svg xmlns:xlink="http://www.w3.org/1999/xlink" xmlns="http://www.w3.org/2000/svg" height="91.0px" width="138.1px">
  <g transform="matrix(1.0, 0.0, 0.0, 1.0, 60.05, 48.25)">
    <g data-characterId="1530" height="85.5" transform="matrix(1.0, 0.0, 0.0, 1.0, -49.75, -42.75)" width="92.65" xlink:href="#shape0"><g id="shape0" transform="matrix(1.0, 0.0, 0.0, 1.0, 49.75, 42.75)">
      <path d="M32.9 38.75 L32.65 28.5 Q32.25 27.1 31.3 26.35 L30.65 25.75 Q32.35 25.5 33.35 24.05 L34.8 21.3 Q35.55 19.35 35.75 17.25 36.05 14.55 36.6 11.7 36.9 10.1 36.65 8.85 L36.1 6.55 35.5 4.25 Q35.15 2.95 33.3 2.1 31.45 1.25 30.25 3.1 29.05 4.9 27.65 7.8 26.25 10.7 27.1 15.55 L27.75 19.8 28.0 21.35 26.5 25.5 Q23.2 18.25 23.65 10.15 L20.0 18.25 Q17.25 7.6 18.0 -3.0 L11.75 -1.25 13.25 -7.5 3.9 -5.85 5.05 -6.9 Q7.4 -8.7 8.5 -11.5 -5.05 -6.0 -19.5 -3.0 L-14.95 -8.15 Q-29.15 -4.25 -40.25 4.5 L-35.5 -4.75 Q-40.8 -3.6 -45.75 -1.25 -41.6 -9.65 -36.0 -17.0 -42.8 -16.0 -49.25 -13.75 -43.9 -21.7 -34.0 -24.5 L-45.25 -24.0 Q-43.15 -24.3 -41.5 -25.6 -34.05 -31.4 -25.3 -34.55 L-12.95 -38.65 Q1.45 -42.85 15.25 -39.75 L14.75 -42.25 15.55 -42.0 Q17.85 -40.95 20.2 -38.15 L20.3 -38.0 Q22.6 -38.25 24.8 -37.25 L25.75 -36.75 24.5 -36.0 Q36.65 -25.75 41.8 -11.0 42.35 -9.35 42.4 -7.5 42.75 9.4 36.75 25.0 34.2 31.65 32.9 38.75" fill="url(#gradient0)" fill-rule="evenodd" stroke="none"/>
      <path d="M32.9 38.75 L32.65 28.5 Q32.25 27.1 31.3 26.35 L30.65 25.75 Q32.35 25.5 33.35 24.05 L34.8 21.3 Q35.55 19.35 35.75 17.25 36.05 14.55 36.6 11.7 36.9 10.1 36.65 8.85 L36.1 6.55 35.5 4.25 Q35.15 2.95 33.3 2.1 31.45 1.25 30.25 3.1 29.05 4.9 27.65 7.8 26.25 10.7 27.1 15.55 L27.75 19.8 28.0 21.35 26.5 25.5 Q23.2 18.25 23.65 10.15 L20.0 18.25 Q17.25 7.6 18.0 -3.0 L11.75 -1.25 13.25 -7.5 3.9 -5.85 5.05 -6.9 Q7.4 -8.7 8.5 -11.5 -5.05 -6.0 -19.5 -3.0 L-14.95 -8.15 Q-29.15 -4.25 -40.25 4.5 L-35.5 -4.75 Q-40.8 -3.6 -45.75 -1.25 -41.6 -9.65 -36.0 -17.0 -42.8 -16.0 -49.25 -13.75 -43.9 -21.7 -34.0 -24.5 L-45.25 -24.0 Q-43.15 -24.3 -41.5 -25.6 -34.05 -31.4 -25.3 -34.55 L-12.95 -38.65 Q1.45 -42.85 15.25 -39.75 L14.75 -42.25 15.55 -42.0 Q17.85 -40.95 20.2 -38.15 L20.3 -38.0 Q22.6 -38.25 24.8 -37.25 L25.75 -36.75 24.5 -36.0 Q36.65 -25.75 41.8 -11.0 42.35 -9.35 42.4 -7.5 42.75 9.4 36.75 25.0 34.2 31.65 32.9 38.75 L32.5 42.25" fill="none" stroke="#000000" stroke-linecap="round" stroke-linejoin="round" stroke-width="2.0"/>
    </g>
    </g>
  </g>
  <defs>
    <radialGradient cx="0" cy="0" gradientTransform="matrix(0.0028, 0.1085, -0.1668, 0.0043, 1.0, -31.5)" gradientUnits="userSpaceOnUse" id="gradient0" r="819.2" spreadMethod="pad">
      <stop offset="0.0" stop-color="#3c1e00"/>
      <stop offset="0.3176470588235294" stop-color="#7c543f"/>
      <stop offset="1.0" stop-color="#482400"/>
    </radialGradient>
  </defs>
</svg>