<svg xmlns:xlink="http://www.w3.org/1999/xlink" xmlns="http://www.w3.org/2000/svg" height="91.0px" width="138.1px">
  <g transform="matrix(1.0, 0.0, 0.0, 1.0, 60.05, 48.25)">
    <g data-characterId="1532" height="76.2" transform="matrix(1.0, 0.0, 0.0, 1.0, -41.95, -46.05)" width="91.3" xlink:href="#shape0"><g id="shape0" transform="matrix(1.0, 0.0, 0.0, 1.0, 41.95, 46.05)">
      <path d="M3.05 -41.95 Q4.0 -43.75 6.05 -43.9 9.2 -43.6 11.85 -41.6 L12.9 -41.6 14.65 -42.15 15.55 -41.9 Q17.4 -41.1 17.85 -39.1 18.3 -39.4 18.85 -39.5 L21.15 -39.7 Q23.95 -39.25 25.55 -37.05 L26.1 -36.65 27.2 -36.0 28.05 -35.9 Q31.75 -35.2 34.3 -32.75 36.0 -31.05 34.85 -29.05 36.95 -29.25 38.3 -27.6 39.7 -26.0 39.05 -24.2 40.0 -24.05 40.75 -23.1 42.6 -20.85 41.45 -18.1 44.4 -16.95 45.4 -14.0 L44.6 -12.35 Q45.65 -12.3 46.4 -11.55 L47.85 -9.75 Q49.3 -7.45 48.65 -4.75 48.15 -2.55 45.75 -2.6 48.1 -1.25 48.15 1.3 L47.6 2.05 46.35 2.65 Q45.95 2.9 45.9 3.35 45.8 4.65 46.05 6.05 46.45 8.6 44.3 9.2 46.5 11.4 45.25 14.3 L44.05 14.1 Q45.95 15.65 44.9 17.75 L44.0 18.75 Q42.95 19.35 42.85 19.9 L42.65 21.25 Q41.15 22.4 39.15 22.15 L40.3 24.2 37.6 25.55 37.4 26.2 35.5 26.75 35.65 27.3 33.1 29.65 Q32.2 26.15 33.75 23.3 36.0 19.2 36.5 14.4 L36.9 8.65 Q36.95 5.65 36.1 4.55 35.2 3.45 33.0 2.35 30.8 1.2 30.25 4.3 L29.95 4.3 29.65 4.7 Q27.45 5.4 26.85 3.25 26.65 2.55 26.85 1.75 L26.45 1.7 Q24.05 2.05 23.2 -0.35 22.45 -2.35 24.2 -4.0 L23.6 -4.3 Q21.0 -3.95 19.9 -6.35 19.7 -6.8 19.75 -7.35 20.05 -9.45 21.9 -10.65 19.55 -10.5 17.8 -12.3 16.85 -13.25 17.55 -14.45 L19.0 -16.7 Q18.05 -17.0 17.55 -17.75 17.3 -18.15 17.3 -18.7 L13.95 -18.45 12.95 -18.85 Q11.45 -19.55 10.05 -19.1 6.45 -17.85 2.65 -18.15 L-3.05 -20.05 Q-8.3 -21.7 -21.7 -17.85 -21.5 -15.5 -23.5 -14.05 L-26.1 -14.1 Q-25.35 -12.35 -26.7 -11.1 -27.2 -10.75 -27.95 -10.7 L-29.3 -10.35 Q-28.75 -8.25 -30.3 -7.0 L-32.2 -6.9 Q-31.95 -5.2 -32.65 -3.9 -33.05 -3.25 -33.95 -3.1 L-34.75 -3.15 -34.8 -2.6 -35.6 -2.05 -37.65 -2.6 -37.65 -4.0 -40.0 -3.5 Q-42.25 -4.55 -41.0 -6.8 L-39.5 -8.85 Q-38.65 -9.7 -38.25 -10.9 L-39.95 -10.65 -37.8 -13.35 -38.35 -14.6 Q-37.75 -19.05 -33.35 -20.25 -33.15 -20.7 -33.75 -21.7 -34.05 -22.2 -33.95 -22.85 -33.75 -24.55 -32.15 -25.4 L-30.15 -26.1 -29.65 -29.75 -25.0 -31.55 Q-25.45 -34.2 -23.1 -34.95 L-21.55 -34.8 Q-21.75 -36.45 -20.6 -37.55 -19.8 -38.25 -18.7 -38.55 -16.3 -39.3 -14.1 -38.25 -13.65 -39.65 -12.3 -40.2 L-9.2 -40.95 -8.1 -43.1 Q-6.8 -43.65 -5.75 -42.85 -6.5 -45.0 -4.15 -45.45 L-2.95 -45.4 -0.05 -44.15 2.3 -42.55 3.05 -41.95 M-35.35 -3.15 L-34.75 -3.15 -35.35 -3.15 M16.4 -20.7 L16.5 -22.15 Q16.45 -23.15 15.85 -23.4 14.7 -23.85 13.3 -23.4 12.1 -23.0 10.95 -22.45 L11.25 -25.0 10.45 -24.85 Q8.5 -24.15 7.8 -22.45 8.5 -24.15 10.45 -24.85 L11.25 -25.0 10.95 -22.45 Q12.1 -23.0 13.3 -23.4 14.7 -23.85 15.85 -23.4 16.45 -23.15 16.5 -22.15 L16.4 -20.7 M3.75 -30.5 Q3.6 -31.35 3.1 -31.9 2.45 -32.6 1.5 -32.55 L-1.2 -32.15 -1.95 -32.25 Q-2.85 -32.75 -3.7 -32.75 -6.3 -32.7 -7.75 -30.5 L-7.9 -30.95 Q-8.3 -31.45 -8.8 -31.4 -10.45 -31.05 -11.75 -29.9 -12.5 -29.2 -12.7 -28.15 -12.8 -27.4 -12.35 -27.3 -12.8 -27.4 -12.7 -28.15 -12.5 -29.2 -11.75 -29.9 -10.45 -31.05 -8.8 -31.4 -8.3 -31.45 -7.9 -30.95 L-7.75 -30.5 Q-6.3 -32.7 -3.7 -32.75 -2.85 -32.75 -1.95 -32.25 L-1.2 -32.15 1.5 -32.55 Q2.45 -32.6 3.1 -31.9 3.6 -31.35 3.75 -30.5 M25.35 -29.9 Q25.5 -30.6 25.25 -31.2 24.9 -32.2 24.05 -32.45 L20.15 -32.2 19.95 -32.95 Q19.3 -34.2 18.15 -34.7 16.75 -35.25 15.15 -34.7 14.7 -34.5 14.4 -33.95 L14.3 -34.45 Q13.7 -35.8 12.6 -36.25 10.8 -36.95 8.85 -36.2 7.8 -35.8 6.9 -34.8 7.8 -35.8 8.85 -36.2 10.8 -36.95 12.6 -36.25 13.7 -35.8 14.3 -34.45 L14.4 -33.95 Q14.7 -34.5 15.15 -34.7 16.75 -35.25 18.15 -34.7 19.3 -34.2 19.95 -32.95 L20.15 -32.2 24.05 -32.45 Q24.9 -32.2 25.25 -31.2 25.5 -30.6 25.35 -29.9 M-15.25 -31.65 L-17.75 -31.4 Q-19.4 -31.05 -20.7 -30.1 -21.25 -29.6 -21.05 -28.9 -20.85 -28.3 -21.25 -28.45 L-24.1 -27.7 Q-25.7 -27.15 -26.7 -25.95 -27.45 -25.05 -26.15 -24.45 -28.1 -24.2 -29.0 -22.4 -29.6 -21.2 -28.75 -20.15 -29.6 -20.25 -30.25 -19.6 L-31.8 -17.65 -31.7 -16.95 -31.35 -16.1 -33.05 -15.75 Q-35.75 -15.15 -35.6 -12.65 -35.55 -11.15 -35.1 -9.75 -35.55 -11.15 -35.6 -12.65 -35.75 -15.15 -33.05 -15.75 L-31.35 -16.1 -31.7 -16.95 -31.8 -17.65 -30.25 -19.6 Q-29.6 -20.25 -28.75 -20.15 -29.6 -21.2 -29.0 -22.4 -28.1 -24.2 -26.15 -24.45 -27.45 -25.05 -26.7 -25.95 -25.7 -27.15 -24.1 -27.7 L-21.25 -28.45 Q-20.85 -28.3 -21.05 -28.9 -21.25 -29.6 -20.7 -30.1 -19.4 -31.05 -17.75 -31.4 L-15.25 -31.65 M39.45 8.35 L40.05 7.85 Q41.0 7.1 41.3 6.15 41.75 4.7 39.7 4.3 L40.15 4.15 Q40.9 3.45 40.75 2.75 40.45 1.45 39.2 0.7 L38.0 0.6 39.2 0.7 Q40.45 1.45 40.75 2.75 40.9 3.45 40.15 4.15 L39.7 4.3 Q41.75 4.7 41.3 6.15 41.0 7.1 40.05 7.85 L39.45 8.35 M40.15 -3.3 L41.2 -4.75 Q41.9 -5.75 41.45 -6.3 40.9 -7.15 39.45 -7.4 L39.15 -7.45 39.45 -8.35 Q39.45 -9.6 38.65 -10.3 37.45 -11.35 35.7 -11.35 34.85 -11.35 34.25 -10.65 34.85 -11.35 35.7 -11.35 37.45 -11.35 38.65 -10.3 39.45 -9.6 39.45 -8.35 L39.15 -7.45 39.45 -7.4 Q40.9 -7.15 41.45 -6.3 41.9 -5.75 41.2 -4.75 L40.15 -3.3 M33.7 -14.95 L33.55 -15.55 33.45 -16.65 33.3 -17.05 Q32.95 -17.8 32.75 -18.7 32.4 -20.4 31.3 -21.45 30.4 -22.3 28.9 -22.0 L27.65 -21.55 Q27.8 -22.7 27.35 -23.5 26.65 -24.7 25.25 -24.85 23.9 -25.0 22.65 -24.2 22.2 -23.85 21.9 -23.3 22.2 -23.85 22.65 -24.2 23.9 -25.0 25.25 -24.85 26.65 -24.7 27.35 -23.5 27.8 -22.7 27.65 -21.55 L28.9 -22.0 Q30.4 -22.3 31.3 -21.45 32.4 -20.4 32.75 -18.7 32.95 -17.8 33.3 -17.05 L33.45 -16.65 33.55 -15.55 33.7 -14.95" fill="url(#gradient0)" fill-rule="evenodd" stroke="none"/>
      <path d="M2.3 -42.55 L-0.05 -44.15 -2.95 -45.4 -4.15 -45.45 Q-6.5 -45.0 -5.75 -42.85 -6.8 -43.65 -8.1 -43.1 L-9.2 -40.95 -12.3 -40.2 Q-13.65 -39.65 -14.1 -38.25 -16.3 -39.3 -18.7 -38.55 -19.8 -38.25 -20.6 -37.55 -21.75 -36.45 -21.55 -34.8 L-23.1 -34.95 Q-25.45 -34.2 -25.0 -31.55 L-29.65 -29.75 -30.15 -26.1 -32.15 -25.4 Q-33.75 -24.55 -33.95 -22.85 -34.05 -22.2 -33.75 -21.7 -33.15 -20.7 -33.35 -20.25 -37.75 -19.05 -38.35 -14.6 L-37.8 -13.35 -39.95 -10.65 -38.25 -10.9 Q-38.65 -9.7 -39.5 -8.85 L-41.0 -6.8 Q-42.25 -4.55 -40.0 -3.5 L-37.65 -4.0 -37.65 -2.6 -35.6 -2.05 -34.8 -2.6" fill="none" stroke="#000000" stroke-linecap="round" stroke-linejoin="round" stroke-width="2.0"/>
      <path d="M35.5 26.75 L37.4 26.2 37.6 25.55 40.3 24.2 39.15 22.15 Q41.15 22.4 42.65 21.25 L42.85 19.9 Q42.95 19.35 44.0 18.75 L44.9 17.75 Q45.95 15.65 44.05 14.1 L45.25 14.3 Q46.5 11.4 44.3 9.2 46.45 8.6 46.05 6.05 45.8 4.65 45.9 3.35 45.95 2.9 46.35 2.65 L47.6 2.05 48.15 1.3 Q48.1 -1.25 45.75 -2.6 48.15 -2.55 48.65 -4.75 49.3 -7.45 47.85 -9.75 L46.4 -11.55 Q45.65 -12.3 44.6 -12.35 L45.4 -14.0 Q44.4 -16.95 41.45 -18.1 42.6 -20.85 40.75 -23.1 40.0 -24.05 39.05 -24.2 39.7 -26.0 38.3 -27.6 36.95 -29.25 34.85 -29.05 36.0 -31.05 34.3 -32.75 31.75 -35.2 28.05 -35.9 L27.2 -36.0 26.1 -36.65 25.55 -37.05 Q23.95 -39.25 21.15 -39.7 L18.85 -39.5 Q18.3 -39.4 17.85 -39.1 17.4 -41.1 15.55 -41.9 L14.65 -42.15 12.9 -41.6 11.85 -41.6 Q9.2 -43.6 6.05 -43.9 4.0 -43.75 3.05 -41.95 M-34.75 -3.15 L-35.35 -3.15 M-34.75 -3.15 L-33.95 -3.1 Q-33.05 -3.25 -32.65 -3.9 -31.95 -5.2 -32.2 -6.9 L-30.3 -7.0 Q-28.75 -8.25 -29.3 -10.35 L-27.95 -10.7 Q-27.2 -10.75 -26.7 -11.1 -25.35 -12.35 -26.1 -14.1 L-23.5 -14.05 Q-21.5 -15.5 -21.7 -17.85 -8.3 -21.7 -3.05 -20.05 L2.65 -18.15 Q6.45 -17.85 10.05 -19.1 11.45 -19.55 12.95 -18.85 L13.95 -18.45 17.3 -18.7 Q17.3 -18.15 17.55 -17.75 18.05 -17.0 19.0 -16.7 L17.55 -14.45 Q16.85 -13.25 17.8 -12.3 19.55 -10.5 21.9 -10.65 20.05 -9.45 19.75 -7.35 19.7 -6.8 19.9 -6.35 21.0 -3.95 23.6 -4.3 L24.2 -4.0 Q22.45 -2.35 23.2 -0.35 24.05 2.05 26.45 1.7 L26.85 1.75 Q26.65 2.55 26.85 3.25 27.45 5.4 29.65 4.7 L29.95 4.3 M30.25 4.3 Q30.8 1.2 33.0 2.35 35.2 3.45 36.1 4.55 36.95 5.65 36.9 8.65 L36.5 14.4 Q36.0 19.2 33.75 23.3 32.2 26.15 33.1 29.65 L35.65 27.3" fill="none" stroke="#000000" stroke-linecap="round" stroke-linejoin="round" stroke-width="2.0"/>
      <path d="M6.9 -34.8 Q7.8 -35.8 8.85 -36.2 10.8 -36.95 12.6 -36.25 13.7 -35.8 14.3 -34.45 L14.4 -33.95 Q14.7 -34.5 15.15 -34.7 16.75 -35.25 18.15 -34.7 19.3 -34.2 19.95 -32.95 L20.15 -32.2 24.05 -32.45 Q24.9 -32.2 25.25 -31.2 25.5 -30.6 25.35 -29.9 M-12.35 -27.3 Q-12.8 -27.4 -12.7 -28.15 -12.5 -29.2 -11.75 -29.9 -10.45 -31.05 -8.8 -31.4 -8.3 -31.45 -7.9 -30.95 L-7.75 -30.5 Q-6.3 -32.7 -3.7 -32.75 -2.85 -32.75 -1.95 -32.25 L-1.2 -32.15 1.5 -32.55 Q2.45 -32.6 3.1 -31.9 3.6 -31.35 3.75 -30.5 M7.8 -22.45 Q8.5 -24.15 10.45 -24.85 L11.25 -25.0 10.95 -22.45 Q12.1 -23.0 13.3 -23.4 14.7 -23.85 15.85 -23.4 16.45 -23.15 16.5 -22.15 L16.4 -20.7 M21.9 -23.3 Q22.2 -23.85 22.65 -24.2 23.9 -25.0 25.25 -24.85 26.65 -24.7 27.35 -23.5 27.8 -22.7 27.65 -21.55 L28.9 -22.0 Q30.4 -22.3 31.3 -21.45 32.4 -20.4 32.75 -18.7 32.95 -17.8 33.3 -17.05 L33.45 -16.65 33.55 -15.55 33.7 -14.95 M34.25 -10.65 Q34.85 -11.35 35.7 -11.35 37.45 -11.35 38.65 -10.3 39.45 -9.6 39.45 -8.35 L39.15 -7.45 39.45 -7.4 Q40.9 -7.15 41.45 -6.3 41.9 -5.75 41.2 -4.75 L40.15 -3.3 M38.0 0.6 L39.2 0.7 Q40.45 1.45 40.75 2.75 40.9 3.45 40.15 4.15 L39.7 4.3 Q41.75 4.7 41.3 6.15 41.0 7.1 40.05 7.85 L39.45 8.35 M-35.1 -9.75 Q-35.55 -11.15 -35.6 -12.65 -35.75 -15.15 -33.05 -15.75 L-31.35 -16.1 -31.7 -16.95 -31.8 -17.65 -30.25 -19.6 Q-29.6 -20.25 -28.75 -20.15 -29.6 -21.2 -29.0 -22.4 -28.1 -24.2 -26.15 -24.45 -27.45 -25.05 -26.7 -25.95 -25.7 -27.15 -24.1 -27.7 L-21.25 -28.45 Q-20.85 -28.3 -21.05 -28.9 -21.25 -29.6 -20.7 -30.1 -19.4 -31.05 -17.75 -31.4 L-15.25 -31.65" fill="none" stroke="#feda9e" stroke-linecap="round" stroke-linejoin="round" stroke-opacity="0.28235295" stroke-width="1.5"/>
    </g>
    </g>
  </g>
  <defs>
    <radialGradient cx="0" cy="0" gradientTransform="matrix(0.0011, 0.1099, -0.2202, 0.0021, 4.05, -26.45)" gradientUnits="userSpaceOnUse" id="gradient0" r="819.2" spreadMethod="pad">
      <stop offset="0.0" stop-color="#995c00"/>
      <stop offset="0.2196078431372549" stop-color="#996600"/>
      <stop offset="0.34901960784313724" stop-color="#feda9e"/>
      <stop offset="0.5019607843137255" stop-color="#996600"/>
      <stop offset="1.0" stop-color="#996600"/>
    </radialGradient>
  </defs>
</svg>