<svg xmlns:xlink="http://www.w3.org/1999/xlink" xmlns="http://www.w3.org/2000/svg" height="91.0px" width="138.1px">
  <g transform="matrix(1.0, 0.0, 0.0, 1.0, 60.05, 48.25)">
    <g data-characterId="1531" height="85.85" transform="matrix(1.0, 0.0, 0.0, 1.0, -44.8, -46.85)" width="94.25" xlink:href="#shape0"><g id="shape0" transform="matrix(1.0, 0.0, 0.0, 1.0, 44.8, 46.85)">
      <path d="M18.4 -44.65 L15.65 -42.45 17.4 -42.6 18.2 -42.35 32.4 -32.85 37.25 -29.25 38.7 -28.05 Q42.4 -24.9 44.65 -20.6 46.8 -16.35 47.55 -11.75 L48.05 -7.95 Q49.9 4.65 47.9 17.15 L46.6 16.95 46.4 17.2 44.7 17.35 42.95 16.85 36.65 15.1 42.95 16.85 Q42.85 20.15 41.55 23.3 L38.3 29.8 35.7 34.0 33.05 38.5 Q32.3 32.15 33.95 26.85 L34.7 23.6 Q35.1 21.3 35.95 18.5 36.8 15.7 36.65 15.1 L30.75 11.35 Q28.9 10.1 26.7 10.65 L25.15 5.9 21.95 8.25 21.35 1.95 17.7 5.85 Q16.05 3.9 15.25 1.35 L12.95 -5.25 10.65 -10.9 4.85 -1.95 2.45 -6.15 -1.25 -1.35 -9.85 -1.1 -12.2 -6.4 -15.8 -0.4 -30.2 1.05 Q-36.55 2.15 -39.5 4.95 L-40.1 4.6 -40.95 6.15 -42.15 3.45 -44.2 7.15 Q-44.45 5.65 -44.1 3.5 -43.6 0.0 -43.25 -3.75 L-42.3 -9.75 -41.15 -12.8 Q-39.55 -16.05 -38.45 -19.35 L-37.8 -20.9 -36.35 -24.45 Q-33.35 -31.85 -26.5 -36.1 -16.5 -42.55 -4.45 -43.9 L-4.15 -43.9 0.25 -44.65 Q3.2 -45.0 6.05 -43.95 L3.65 -46.35 Q7.0 -46.55 9.5 -44.35 L9.95 -43.95 10.3 -43.35 13.8 -44.8 18.45 -44.9 18.4 -44.65 M33.25 -22.7 L32.1 -25.2 Q31.15 -27.15 31.5 -29.25 31.15 -27.15 32.1 -25.2 L33.25 -22.7 33.35 -24.45 33.25 -22.7 34.9 -18.1 Q36.6 -12.6 37.65 -6.95 38.6 -1.95 39.0 3.15 L39.3 7.35 39.0 3.15 Q38.6 -1.95 37.65 -6.95 36.6 -12.6 34.9 -18.1 L33.25 -22.7 Q33.05 -18.55 34.1 -14.45 35.55 -8.7 36.4 -2.75 L37.35 7.05 37.5 11.55 37.35 7.05 36.4 -2.75 Q35.55 -8.7 34.1 -14.45 33.05 -18.55 33.25 -22.7 M-37.9 -1.6 Q-37.45 -7.95 -34.05 -13.35 L-31.55 -17.5 -28.45 -22.8 -26.0 -26.6 -23.15 -30.3 -19.65 -34.0 Q-15.5 -37.8 -10.65 -40.55 L-6.8 -42.5 Q-5.6 -43.05 -4.45 -43.9 -5.6 -43.05 -6.8 -42.5 L-10.65 -40.55 Q-15.5 -37.8 -19.65 -34.0 L-23.15 -30.3 -26.0 -26.6 -28.45 -22.8 -31.55 -17.5 -34.05 -13.35 Q-37.45 -7.95 -37.9 -1.6 M31.5 6.15 L31.2 -0.75 Q30.9 -6.3 30.1 -11.75 29.25 -17.05 27.7 -22.25 L25.7 -28.7 Q25.5 -29.1 25.55 -29.6 25.5 -29.1 25.7 -28.7 L27.7 -22.25 Q29.25 -17.05 30.1 -11.75 30.9 -6.3 31.2 -0.75 L31.5 6.15 M33.9 4.35 L33.45 -3.15 32.85 -12.4 Q32.3 -17.7 30.4 -22.65 28.85 -26.85 26.35 -30.7 23.85 -34.55 22.55 -38.85 23.85 -34.55 26.35 -30.7 28.85 -26.85 30.4 -22.65 32.3 -17.7 32.85 -12.4 L33.45 -3.15 33.9 4.35 M13.0 -36.45 L12.6 -37.95 11.8 -40.35 12.6 -37.95 13.0 -36.45 M-19.1 -10.35 L-18.45 -12.95 Q-17.1 -16.65 -15.25 -20.1 -12.8 -24.45 -9.7 -28.4 -6.8 -32.1 -3.35 -35.4 L1.95 -40.9 3.7 -42.4 4.85 -42.15 3.7 -42.4 1.95 -40.9 -3.35 -35.4 Q-6.8 -32.1 -9.7 -28.4 -12.8 -24.45 -15.25 -20.1 -17.1 -16.65 -18.45 -12.95 L-19.1 -10.35 M27.05 -0.75 L27.3 -3.15 Q27.5 -6.6 27.1 -10.0 26.45 -15.45 25.0 -20.8 L21.75 -30.95 Q20.1 -35.15 18.0 -39.15 L17.75 -39.45 18.0 -39.15 Q20.1 -35.15 21.75 -30.95 L25.0 -20.8 Q26.45 -15.45 27.1 -10.0 27.5 -6.6 27.3 -3.15 L27.05 -0.75 M5.2 -13.95 Q5.3 -14.85 5.55 -15.75 7.0 -21.25 7.45 -26.85 8.0 -33.0 9.05 -38.85 L9.1 -39.15 9.05 -38.85 Q8.0 -33.0 7.45 -26.85 7.0 -21.25 5.55 -15.75 5.3 -14.85 5.2 -13.95 M8.2 -37.05 L2.15 -26.1 Q0.4 -22.65 -0.85 -18.95 -1.85 -16.05 -2.5 -13.0 L-3.85 -5.2 -2.5 -13.0 Q-1.85 -16.05 -0.85 -18.95 0.4 -22.65 2.15 -26.1 L8.2 -37.05 M-28.95 -7.35 L-26.5 -12.7 Q-24.2 -17.65 -21.35 -22.25 L-17.4 -28.25 Q-14.6 -32.15 -10.75 -35.05 -5.9 -38.7 -0.5 -41.5 1.65 -42.65 3.7 -42.4 L5.5 -43.35 3.7 -42.4 Q1.65 -42.65 -0.5 -41.5 -5.9 -38.7 -10.75 -35.05 -14.6 -32.15 -17.4 -28.25 L-21.35 -22.25 Q-24.2 -17.65 -26.5 -12.7 L-28.95 -7.35 M8.75 -40.2 L4.75 -34.85 Q2.65 -31.8 0.9 -28.55 -0.95 -25.05 -2.35 -21.35 -3.5 -18.3 -4.05 -15.1 -4.75 -10.9 -5.05 -6.75 L-5.3 -3.75 -5.05 -6.75 Q-4.75 -10.9 -4.05 -15.1 -3.5 -18.3 -2.35 -21.35 -0.95 -25.05 0.9 -28.55 2.65 -31.8 4.75 -34.85 L8.75 -40.2 M17.75 -2.55 L18.15 -6.15 18.55 -11.85 Q18.65 -16.8 18.15 -21.75 L16.3 -33.7 15.65 -37.05 16.3 -33.7 18.15 -21.75 Q18.65 -16.8 18.55 -11.85 L18.15 -6.15 17.75 -2.55 M7.25 -12.15 L7.3 -13.35 8.35 -19.3 10.5 -29.85 11.15 -34.95 10.85 -35.25 11.15 -34.95 10.5 -29.85 8.35 -19.3 7.3 -13.35 7.25 -12.15 M21.95 1.65 Q21.9 0.6 22.0 -0.4 L22.05 -7.35 Q22.0 -12.6 21.15 -17.75 20.3 -23.1 18.7 -28.25 L17.05 -33.25 Q16.95 -33.45 17.15 -33.75 16.95 -33.45 17.05 -33.25 L18.7 -28.25 Q20.3 -23.1 21.15 -17.75 22.0 -12.6 22.05 -7.35 L22.0 -0.4 Q21.9 0.6 21.95 1.65 M16.55 -7.05 L16.1 -9.45 14.95 -17.25 13.0 -33.75 13.55 -32.85 13.0 -33.75 14.95 -17.25 16.1 -9.45 16.55 -7.05 M45.9 13.35 L46.6 16.95 45.9 13.35 M42.05 14.55 L41.9 7.35 Q41.7 1.95 41.15 -3.4 L39.85 -12.45 39.5 -15.15 39.85 -12.45 41.15 -3.4 Q41.7 1.95 41.9 7.35 L42.05 14.55 M43.55 13.65 L43.6 11.25 43.6 3.15 Q43.5 -2.85 42.9 -8.8 42.5 -13.05 41.55 -17.2 L41.15 -18.45 41.55 -17.2 Q42.5 -13.05 42.9 -8.8 43.5 -2.85 43.6 3.15 L43.6 11.25 43.55 13.65 M46.8 9.15 Q46.6 5.05 47.1 1.05 L47.4 -0.4 47.2 0.45 47.1 1.05 47.2 0.45 47.4 -0.4 47.1 1.05 Q46.6 5.05 46.8 9.15 M27.65 3.15 L27.4 5.55 27.35 7.95 27.4 5.55 27.65 3.15 M-39.5 3.45 L-40.1 4.6 -39.5 3.45 M-15.8 -40.95 Q-19.3 -39.45 -22.3 -37.3 L-24.95 -35.1 Q-29.4 -30.9 -32.65 -25.7 -35.95 -20.55 -38.3 -14.85 -39.9 -10.8 -40.55 -6.4 L-40.75 -5.6 Q-41.9 -2.05 -41.55 1.65 -41.9 -2.05 -40.75 -5.6 L-40.55 -6.4 Q-39.9 -10.8 -38.3 -14.85 -35.95 -20.55 -32.65 -25.7 -29.4 -30.9 -24.95 -35.1 L-22.3 -37.3 Q-19.3 -39.45 -15.8 -40.95 M-1.7 -32.55 L-6.05 -27.35 Q-8.3 -24.45 -10.2 -21.35 -11.75 -18.75 -12.75 -15.9 -14.4 -10.95 -15.5 -5.85 -14.4 -10.95 -12.75 -15.9 -11.75 -18.75 -10.2 -21.35 -8.3 -24.45 -6.05 -27.35 L-1.7 -32.55 M-8.6 -39.45 L-11.65 -37.45 -15.3 -34.15 -19.95 -29.25 Q-22.05 -26.9 -23.8 -24.2 -26.8 -19.75 -29.4 -14.9 -32.35 -9.5 -32.55 -3.45 -32.35 -9.5 -29.4 -14.9 -26.8 -19.75 -23.8 -24.2 -22.05 -26.9 -19.95 -29.25 L-15.3 -34.15 -11.65 -37.45 -8.6 -39.45 M-38.85 -2.55 L-38.65 -4.35 -38.45 -6.15 -38.3 -7.95 Q-38.1 -10.45 -37.3 -12.75 L-37.0 -14.25 Q-36.75 -17.05 -34.95 -19.35 L-34.2 -20.6 -33.6 -22.0 Q-31.2 -27.55 -27.2 -32.05 L-26.45 -32.7 -24.2 -34.35 -19.05 -37.85 -18.3 -38.4 -15.2 -40.05 -18.3 -38.4 -19.05 -37.85 -24.2 -34.35 -26.45 -32.7 -27.2 -32.05 Q-31.2 -27.55 -33.6 -22.0 L-34.2 -20.6 -34.95 -19.35 Q-36.75 -17.05 -37.0 -14.25 L-37.3 -12.75 Q-38.1 -10.45 -38.3 -7.95 L-38.45 -6.15 -38.65 -4.35 -38.85 -2.55 M6.05 -40.35 Q1.8 -36.5 -1.35 -31.6 L-5.2 -25.0 -7.75 -19.25 Q-9.6 -14.3 -10.7 -9.15 -9.6 -14.3 -7.75 -19.25 L-5.2 -25.0 -1.35 -31.6 Q1.8 -36.5 6.05 -40.35 M-25.05 -29.6 Q-25.75 -27.45 -27.15 -25.65 -29.1 -23.2 -30.55 -20.45 L-31.55 -17.5 -30.55 -20.45 Q-29.1 -23.2 -27.15 -25.65 -25.75 -27.45 -25.05 -29.6 M0.75 -41.5 L-2.15 -39.85 -10.05 -33.75 Q-13.35 -31.05 -16.05 -27.75 -13.35 -31.05 -10.05 -33.75 L-2.15 -39.85 0.75 -41.5 M-17.9 -23.25 L-20.9 -16.85 Q-22.55 -12.9 -23.8 -8.85 L-24.5 -6.75 -23.8 -8.85 Q-22.55 -12.9 -20.9 -16.85 L-17.9 -23.25 M-11.0 -27.2 L-13.65 -23.65 Q-16.85 -18.6 -18.95 -13.1 -20.45 -9.3 -21.25 -5.2 L-21.8 -3.15 -21.25 -5.2 Q-20.45 -9.3 -18.95 -13.1 -16.85 -18.6 -13.65 -23.65 L-11.0 -27.2" fill="url(#gradient0)" fill-rule="evenodd" stroke="none"/>
      <path d="M47.9 17.15 Q49.9 4.65 48.05 -7.95 L47.55 -11.75 Q46.8 -16.35 44.65 -20.6 42.4 -24.9 38.7 -28.05 L37.25 -29.25 32.4 -32.85 18.2 -42.35 17.4 -42.6 15.65 -42.45 18.4 -44.65 18.65 -44.85 18.45 -44.9 13.8 -44.8 10.3 -43.35 M9.95 -43.95 L9.5 -44.35 Q7.0 -46.55 3.65 -46.35 L6.05 -43.95 Q3.2 -45.0 0.25 -44.65 L-4.15 -43.9 -4.45 -43.9 Q-16.5 -42.55 -26.5 -36.1 -33.35 -31.85 -36.35 -24.45 L-37.8 -20.9 -38.45 -19.35 Q-39.55 -16.05 -41.15 -12.8 L-42.3 -9.75 -43.25 -3.75 Q-43.6 0.0 -44.1 3.5 -44.45 5.65 -44.2 7.15 L-42.15 3.45 -40.95 6.15 -40.1 4.6 -39.5 3.45 M-39.5 4.95 Q-36.55 2.15 -30.2 1.05 L-15.8 -0.4 -12.2 -6.4 -9.85 -1.1 -1.25 -1.35 2.45 -6.15 4.85 -1.95 10.65 -10.9 12.95 -5.25 15.25 1.35 Q16.05 3.9 17.7 5.85 L21.35 1.95 21.95 8.25 25.15 5.9 26.7 10.65 Q28.9 10.1 30.75 11.35 L36.65 15.1 42.95 16.85 44.7 17.35 46.4 17.2 46.65 17.25 46.6 16.95 45.9 13.35 M46.6 16.95 L47.7 18.45 47.9 17.4 47.9 17.15 M36.65 15.1 Q36.8 15.7 35.95 18.5 35.1 21.3 34.7 23.6 L33.95 26.85 Q32.3 32.15 33.05 38.5 L35.7 34.0 38.3 29.8 41.55 23.3 Q42.85 20.15 42.95 16.85" fill="none" stroke="#000000" stroke-linecap="round" stroke-linejoin="round" stroke-width="2.0"/>
      <path d="M-4.45 -43.9 Q-5.6 -43.05 -6.8 -42.5 L-10.65 -40.55 Q-15.5 -37.8 -19.65 -34.0 L-23.15 -30.3 -26.0 -26.6 -28.45 -22.8 -31.55 -17.5 -34.05 -13.35 Q-37.45 -7.95 -37.9 -1.6 M31.5 -29.25 Q31.15 -27.15 32.1 -25.2 L33.25 -22.7 34.9 -18.1 Q36.6 -12.6 37.65 -6.95 38.6 -1.95 39.0 3.15 L39.3 7.35 M22.55 -38.85 Q23.85 -34.55 26.35 -30.7 28.85 -26.85 30.4 -22.65 32.3 -17.7 32.85 -12.4 L33.45 -3.15 33.9 4.35 M17.75 -39.45 L18.0 -39.15 Q20.1 -35.15 21.75 -30.95 L25.0 -20.8 Q26.45 -15.45 27.1 -10.0 27.5 -6.6 27.3 -3.15 L27.05 -0.75 M4.85 -42.15 L3.7 -42.4 1.95 -40.9 -3.35 -35.4 Q-6.8 -32.1 -9.7 -28.4 -12.8 -24.45 -15.25 -20.1 -17.1 -16.65 -18.45 -12.95 L-19.1 -10.35 M5.5 -43.35 L3.7 -42.4 Q1.65 -42.65 -0.5 -41.5 -5.9 -38.7 -10.75 -35.05 -14.6 -32.15 -17.4 -28.25 L-21.35 -22.25 Q-24.2 -17.65 -26.5 -12.7 L-28.95 -7.35 M-3.85 -5.2 L-2.5 -13.0 Q-1.85 -16.05 -0.85 -18.95 0.4 -22.65 2.15 -26.1 L8.2 -37.05 M10.85 -35.25 L11.15 -34.95 10.5 -29.85 8.35 -19.3 7.3 -13.35 7.25 -12.15 M15.65 -37.05 L16.3 -33.7 18.15 -21.75 Q18.65 -16.8 18.55 -11.85 L18.15 -6.15 17.75 -2.55 M41.15 -18.45 L41.55 -17.2 Q42.5 -13.05 42.9 -8.8 43.5 -2.85 43.6 3.15 L43.6 11.25 43.55 13.65 M27.35 7.95 L27.4 5.55 27.65 3.15 M-41.55 1.65 Q-41.9 -2.05 -40.75 -5.6 L-40.55 -6.4 Q-39.9 -10.8 -38.3 -14.85 -35.95 -20.55 -32.65 -25.7 -29.4 -30.9 -24.95 -35.1 L-22.3 -37.3 Q-19.3 -39.45 -15.8 -40.95 M-10.7 -9.15 Q-9.6 -14.3 -7.75 -19.25 L-5.2 -25.0 -1.35 -31.6 Q1.8 -36.5 6.05 -40.35 M-24.5 -6.75 L-23.8 -8.85 Q-22.55 -12.9 -20.9 -16.85 L-17.9 -23.25" fill="none" stroke="#92654e" stroke-linecap="round" stroke-linejoin="round" stroke-width="1.5"/>
      <path d="M33.25 -22.7 L33.35 -24.45 M25.55 -29.6 Q25.5 -29.1 25.7 -28.7 L27.7 -22.25 Q29.25 -17.05 30.1 -11.75 30.9 -6.3 31.2 -0.75 L31.5 6.15 M11.8 -40.35 L12.6 -37.95 13.0 -36.45 M9.1 -39.15 L9.05 -38.85 Q8.0 -33.0 7.45 -26.85 7.0 -21.25 5.55 -15.75 5.3 -14.85 5.2 -13.95 M-5.3 -3.75 L-5.05 -6.75 Q-4.75 -10.9 -4.05 -15.1 -3.5 -18.3 -2.35 -21.35 -0.95 -25.05 0.9 -28.55 2.65 -31.8 4.75 -34.85 L8.75 -40.2 M13.55 -32.85 L13.0 -33.75 14.95 -17.25 16.1 -9.45 16.55 -7.05 M17.15 -33.75 Q16.95 -33.45 17.05 -33.25 L18.7 -28.25 Q20.3 -23.1 21.15 -17.75 22.0 -12.6 22.05 -7.35 L22.0 -0.4 Q21.9 0.6 21.95 1.65 M39.5 -15.15 L39.85 -12.45 41.15 -3.4 Q41.7 1.95 41.9 7.35 L42.05 14.55 M33.25 -22.7 Q33.05 -18.55 34.1 -14.45 35.55 -8.7 36.4 -2.75 L37.35 7.05 37.5 11.55 M47.1 1.05 L47.2 0.45 47.4 -0.4 47.1 1.05 Q46.6 5.05 46.8 9.15 M-15.2 -40.05 L-18.3 -38.4 -19.05 -37.85 -24.2 -34.35 -26.45 -32.7 -27.2 -32.05 Q-31.2 -27.55 -33.6 -22.0 L-34.2 -20.6 -34.95 -19.35 Q-36.75 -17.05 -37.0 -14.25 L-37.3 -12.75 Q-38.1 -10.45 -38.3 -7.95 L-38.45 -6.15 -38.65 -4.35 -38.85 -2.55 M-32.55 -3.45 Q-32.35 -9.5 -29.4 -14.9 -26.8 -19.75 -23.8 -24.2 -22.05 -26.9 -19.95 -29.25 L-15.3 -34.15 -11.65 -37.45 -8.6 -39.45 M-15.5 -5.85 Q-14.4 -10.95 -12.75 -15.9 -11.75 -18.75 -10.2 -21.35 -8.3 -24.45 -6.05 -27.35 L-1.7 -32.55 M-16.05 -27.75 Q-13.35 -31.05 -10.05 -33.75 L-2.15 -39.85 0.75 -41.5 M-31.55 -17.5 L-30.55 -20.45 Q-29.1 -23.2 -27.15 -25.65 -25.75 -27.45 -25.05 -29.6 M-21.8 -3.15 L-21.25 -5.2 Q-20.45 -9.3 -18.95 -13.1 -16.85 -18.6 -13.65 -23.65 L-11.0 -27.2" fill="none" stroke="#fff5e6" stroke-linecap="round" stroke-linejoin="round" stroke-width="1.5"/>
    </g>
    </g>
  </g>
  <defs>
    <radialGradient cx="0" cy="0" gradientTransform="matrix(0.2137, 0.0, 0.0, 0.1316, 3.9, -36.15)" gradientUnits="userSpaceOnUse" id="gradient0" r="819.2" spreadMethod="pad">
      <stop offset="0.0" stop-color="#c39d4f"/>
      <stop offset="0.20392156862745098" stop-color="#eed7a3"/>
      <stop offset="0.33725490196078434" stop-color="#fff5e6"/>
      <stop offset="0.5176470588235295" stop-color="#aa874f"/>
      <stop offset="1.0" stop-color="#c39d4f"/>
    </radialGradient>
  </defs>
</svg>