<svg xmlns:xlink="http://www.w3.org/1999/xlink" xmlns="http://www.w3.org/2000/svg" height="16.65px" width="27.9px">
  <g transform="matrix(1.0, 0.0, 0.0, 1.0, 11.2, 8.0)">
    <g data-characterId="1332" height="8.35" transform="matrix(1.0, 0.0, 0.0, 1.0, -9.55, -2.1)" width="17.1" xlink:href="#shape0"><g id="shape0" transform="matrix(1.0, 0.0, 0.0, 1.0, 9.55, 2.1)">
      <path d="M6.35 1.55 L6.45 1.95 6.45 2.0 6.35 2.2 6.35 2.3 -0.15 4.9 Q-4.6 6.7 -8.3 3.8 -10.0 2.45 -8.3 1.2 L-7.95 0.95 -7.05 0.6 -5.15 0.15 -2.65 0.3 0.35 0.55 1.4 0.7 2.8 0.85 5.75 1.2 Q6.15 1.25 6.35 1.55 M-2.0 2.75 L-2.05 2.7 -6.65 2.0 -7.1 2.15 -7.35 2.5 Q-7.5 3.0 -7.15 3.35 -4.45 4.6 -2.1 3.1 L-2.0 2.95 -2.0 2.75" fill="#4f5c66" fill-rule="evenodd" stroke="none"/>
      <path d="M-7.95 0.95 L-8.2 0.65 -8.45 1.0 Q-8.55 1.25 -8.85 1.3 L-9.1 1.1 -9.2 0.95 Q-8.35 -0.5 -6.8 -1.3 L-5.65 -2.0 -1.0 -2.1 Q-0.4 -2.15 -0.1 -1.65 L-0.05 -1.55 Q3.1 -0.05 6.55 0.85 L6.7 1.1 6.65 1.5 6.35 1.55 Q6.15 1.25 5.75 1.2 L2.8 0.85 1.4 0.7 0.35 0.55 -2.25 0.1 -2.5 0.2 -2.65 0.3 -5.15 0.15 -7.05 0.6 -7.95 0.95" fill="#3a4549" fill-rule="evenodd" stroke="none"/>
      <path d="M-2.0 2.75 L-2.0 2.95 -2.1 3.1 Q-4.45 4.6 -7.15 3.35 -7.5 3.0 -7.35 2.5 L-7.1 2.15 -6.65 2.0 -2.05 2.7 -2.0 2.75" fill="#8d9ca7" fill-rule="evenodd" stroke="none"/>
      <path d="M7.05 1.7 L4.1 1.2 -2.1 0.65 -8.6 1.15 -9.05 1.05" fill="none" stroke="#000000" stroke-linecap="round" stroke-linejoin="round" stroke-width="2.0"/>
      <path d="M-5.25 5.5 L-4.5 5.7 -3.75 5.75 Q-2.4 5.75 -1.25 5.15" fill="none" stroke="#3a4549" stroke-linecap="round" stroke-linejoin="round" stroke-width="2.0"/>
    </g>
  </g>
  </g>
  <defs>
    </defs>
</svg>