<svg xmlns:xlink="http://www.w3.org/1999/xlink" xmlns="http://www.w3.org/2000/svg" height="202.2px" width="161.9px">
  <g transform="matrix(1.0, 0.0, 0.0, 1.0, 74.15, 81.7)">
    <g data-characterId="1440" height="182.5" transform="matrix(1.0, 0.0, 0.0, 1.0, -63.65, -71.0)" width="124.65" xlink:href="#shape0"><g id="shape0" transform="matrix(1.0, 0.0, 0.0, 1.0, 63.65, 71.0)">
      <path d="M-8.5 -70.5 L-9.9 -69.85 Q-12.1 -69.7 -13.9 -68.8 L-20.0 -68.8 Q-34.65 -57.4 -42.9 -38.5 -46.6 -30.1 -46.1 -20.55 L-46.0 -19.1 Q-44.85 3.4 -45.65 25.95 -45.95 35.35 -47.2 44.55 L-48.5 55.5 Q-46.95 66.05 -50.3 75.55" fill="none" stroke="#000000" stroke-linecap="round" stroke-linejoin="round" stroke-width="2.0"/>
      <path d="M2.5 -70.5 L6.0 -70.5 8.0 -70.35 10.0 -70.5 Q14.3 -67.15 19.5 -66.05 L29.0 -58.5 31.0 -58.0 Q51.55 -34.55 51.3 -1.5 51.15 21.25 56.25 43.45 57.1 47.25 59.25 50.45 L59.0 49.5 M13.5 28.0 L13.5 27.65 13.45 26.5 Q13.3 25.15 12.5 25.0 L6.5 -24.0 6.5 -7.0 -2.0 -38.5 -3.5 -41.5 -3.5 -43.0 M59.25 50.45 L60.5 55.5 56.0 76.0 53.5 61.0 Q52.75 81.2 41.5 101.0 L39.5 63.0 Q37.6 65.05 36.2 68.45 26.85 91.5 34.0 111.0 13.65 100.1 17.5 75.5 10.45 92.5 12.0 108.0 0.0 93.85 6.5 75.0 L-5.5 88.5 Q-0.25 75.5 10.0 65.0 12.9 59.8 14.3 53.95 19.05 33.8 13.5 16.0 L13.5 27.65 M-46.0 -19.1 Q-39.35 -25.5 -29.65 -29.35 -9.8 -37.15 -5.5 -57.5 M-46.0 -19.1 Q-52.65 -12.8 -56.35 -3.95 L-57.0 -2.0 Q-57.35 -7.3 -55.4 -14.85 -53.95 -20.55 -50.5 -25.0 -56.05 -21.35 -58.45 -14.95 L-60.0 -10.5 Q-63.65 -23.85 -56.25 -35.15 -54.45 -37.95 -52.0 -40.5 -56.2 -38.8 -59.25 -34.8 -61.15 -32.3 -62.0 -29.5 -64.05 -32.9 -62.4 -36.95 -61.55 -39.15 -61.5 -41.5 -54.35 -50.65 -43.6 -54.25 -34.85 -57.2 -28.0 -63.5 M-50.3 75.55 L-50.45 75.9 Q-48.7 92.8 -34.35 101.8 -39.6 90.35 -36.8 75.55 L-36.0 72.5 -36.0 74.0 Q-33.65 83.9 -25.9 90.4 L-25.9 57.5 Q-22.65 65.1 -15.5 69.45 L-20.0 38.0" fill="none" stroke="#000000" stroke-linecap="round" stroke-linejoin="round" stroke-width="2.0"/>
    </g>
  </g>
  </g>
  <defs>
    </defs>
</svg>