<svg xmlns:xlink="http://www.w3.org/1999/xlink" xmlns="http://www.w3.org/2000/svg" height="202.2px" width="161.9px">
  <g transform="matrix(1.0, 0.0, 0.0, 1.0, 74.15, 81.7)">
    <g data-characterId="1392" height="137.1" transform="matrix(1.0, 0.0, 0.0, 1.0, -56.5, -73.95)" width="131.8" xlink:href="#shape0"><g id="shape0" transform="matrix(1.0, 0.0, 0.0, 1.0, 56.5, 73.95)">
      <path d="M7.2 -56.7 L5.45 -57.5 3.75 -58.15 5.45 -57.5 7.2 -56.7 M9.2 -62.45 L8.0 -62.6 7.2 -62.65 Q3.2 -62.85 -0.8 -62.55 -5.3 -62.15 -9.65 -60.8 -15.3 -59.05 -19.55 -54.95 -15.3 -59.05 -9.65 -60.8 -5.3 -62.15 -0.8 -62.55 3.2 -62.85 7.2 -62.65 L8.0 -62.6 9.2 -62.45 M11.2 -64.45 L10.6 -66.2 Q9.75 -68.4 7.75 -69.65 9.75 -68.4 10.6 -66.2 L11.2 -64.45 M12.1 -52.95 L14.0 -53.85 14.75 -54.45 15.45 -55.25 15.8 -55.75 14.95 -57.55 17.85 -59.0 15.55 -61.0 17.55 -61.6 15.55 -61.0 17.85 -59.0 14.95 -57.55 15.8 -55.75 15.45 -55.25 14.75 -54.45 14.0 -53.85 12.1 -52.95 M35.95 -19.85 L35.5 -23.6 35.0 -29.65 33.95 -40.0 Q33.2 -45.3 31.25 -50.3 29.1 -55.8 24.15 -58.95 L22.45 -59.0 24.15 -58.95 Q29.1 -55.8 31.25 -50.3 33.2 -45.3 33.95 -40.0 L35.0 -29.65 35.5 -23.6 35.95 -19.85 M8.0 -62.6 L9.45 -61.3 10.35 -60.15 9.45 -61.3 8.0 -62.6 M-54.9 12.9 Q-54.2 10.35 -54.3 7.9 -54.5 1.75 -53.2 -3.85 -52.0 -9.25 -49.5 -14.1 -54.25 -10.5 -55.75 -4.7 L-55.8 -4.6 Q-56.5 -8.65 -54.7 -12.25 -48.85 -24.1 -45.6 -37.0 -42.0 -51.5 -31.35 -61.6 -20.95 -71.45 -6.85 -73.25 9.05 -74.8 18.9 -62.95 27.25 -62.7 31.45 -54.45 35.55 -46.5 37.8 -37.7 41.4 -23.8 38.8 -9.8 38.0 -8.0 34.65 -4.65 L29.9 0.2 27.9 2.4 27.45 1.2 25.45 4.45 23.8 2.2 24.3 1.8 Q25.6 1.55 26.05 0.75 26.3 -0.05 26.1 -0.95 L25.85 -2.25 25.85 -2.35 25.9 -2.25 26.1 -2.1 26.15 -2.2 Q27.7 -4.65 27.25 -7.45 L27.75 -8.3 Q30.2 -17.9 27.25 -20.6 24.3 -23.35 21.1 -12.15 17.9 -0.95 13.1 -2.15 14.1 -2.45 16.25 -5.35 18.35 -8.3 19.7 -17.95 L21.95 -23.65 Q23.3 -27.25 23.1 -29.35 L22.25 -35.3 23.1 -29.35 Q23.3 -27.25 21.95 -23.65 L19.7 -17.95 19.8 -18.9 Q20.85 -25.7 20.15 -26.5 18.3 -28.65 18.1 -29.35 L17.55 -27.85 Q16.85 -26.45 15.55 -25.3 L14.2 -24.95 Q11.4 -36.55 10.35 -47.8 0.0 -47.6 -8.05 -41.75 L-7.75 -48.05 Q-19.1 -42.0 -25.85 -28.5 L-29.05 -37.15 Q-31.35 -29.0 -35.1 -21.6 L-37.15 -28.2 Q-36.6 -24.85 -36.4 -21.55 -36.0 -14.15 -37.2 -6.85 L-37.45 -4.3 -37.15 -4.3 Q-36.25 5.15 -32.45 13.45 -37.4 10.4 -39.1 5.25 -40.85 12.4 -44.05 19.3 -47.65 8.75 -45.75 -2.05 -48.2 6.75 -54.15 13.5 L-54.9 12.9 M21.05 -40.6 L20.9 -41.25 20.7 -42.0 20.9 -41.25 21.05 -40.6 21.2 -39.95 21.05 -40.6 M32.5 -42.9 L30.75 -46.6 30.2 -47.5 30.75 -46.6 32.5 -42.9 M-26.2 -43.15 L-27.7 -41.2 Q-29.15 -39.4 -29.05 -37.15 -29.15 -39.4 -27.7 -41.2 L-26.2 -43.15 M22.25 -35.3 L21.2 -39.95 22.25 -35.3 M24.3 -41.55 L24.95 -38.05 25.9 -33.05 25.9 -31.65 25.9 -33.05 24.95 -38.05 24.3 -41.55 24.5 -41.15 27.05 -36.0 24.5 -41.15 24.3 -41.55 23.15 -43.15 24.3 -41.55 23.85 -44.3 24.3 -41.55 M26.65 -50.9 Q28.6 -45.85 29.8 -40.6 L30.25 -38.6 29.8 -40.6 Q28.6 -45.85 26.65 -50.9 M30.25 -38.6 L28.5 -42.2 Q27.75 -43.85 26.5 -45.25 27.75 -43.85 28.5 -42.2 L30.25 -38.6 31.95 -29.65 Q32.05 -29.0 30.45 -26.85 28.85 -24.7 28.9 -24.1 28.85 -24.7 30.45 -26.85 32.05 -29.0 31.95 -29.65 L30.25 -38.6 M16.95 -33.4 L16.9 -33.95 Q16.7 -35.25 16.1 -36.4 L15.75 -37.4 15.7 -38.05 Q15.65 -38.9 16.1 -39.7 15.65 -38.9 15.7 -38.05 L15.75 -37.4 16.1 -36.4 Q16.7 -35.25 16.9 -33.95 L16.95 -33.4 M14.4 -45.75 L15.4 -40.25 15.7 -38.05 15.4 -40.25 14.4 -45.75 M14.95 -33.4 L13.7 -39.4 14.95 -33.4 M19.55 -34.25 L19.3 -35.7 Q19.15 -37.4 19.25 -39.15 19.15 -37.4 19.3 -35.7 L19.55 -34.25 M16.1 -30.25 L15.75 -37.4 16.1 -30.25 M-40.65 -43.5 L-41.05 -41.75 -41.3 -40.65 -42.55 -35.1 Q-43.55 -29.45 -46.05 -24.2 L-47.0 -22.5 Q-49.5 -18.4 -52.35 -14.7 -49.5 -18.4 -47.0 -22.5 L-46.05 -24.2 Q-43.55 -29.45 -42.55 -35.1 L-41.3 -40.65 -41.05 -41.75 -40.65 -43.5 -40.55 -44.0 -40.65 -43.5 M-3.15 -64.75 L-12.65 -62.25 Q-17.1 -61.0 -21.3 -59.15 -25.2 -57.4 -28.3 -54.45 -31.5 -51.35 -34.15 -47.75 -37.6 -42.95 -37.4 -37.15 -37.6 -42.95 -34.15 -47.75 -31.5 -51.35 -28.3 -54.45 -25.2 -57.4 -21.3 -59.15 -17.1 -61.0 -12.65 -62.25 L-3.15 -64.75 M-2.3 -68.8 L-8.35 -69.3 Q-13.05 -69.05 -17.55 -67.4 -20.25 -66.45 -22.7 -64.95 -27.3 -62.2 -31.55 -58.9 L-33.2 -57.65 Q-35.1 -56.15 -36.55 -54.1 L-37.3 -52.9 -38.85 -49.3 -39.35 -47.95 -39.7 -47.35 Q-40.45 -45.65 -41.45 -44.05 -40.45 -45.65 -39.7 -47.35 L-39.35 -47.95 -38.85 -49.3 -37.3 -52.9 -36.55 -54.1 Q-35.1 -56.15 -33.2 -57.65 L-31.55 -58.9 Q-27.3 -62.2 -22.7 -64.95 -20.25 -66.45 -17.55 -67.4 -13.05 -69.05 -8.35 -69.3 L-2.3 -68.8 M-39.7 -33.1 Q-40.0 -29.35 -40.8 -25.7 -41.85 -20.55 -43.75 -15.65 L-47.75 -4.9 -43.75 -15.65 Q-41.85 -20.55 -40.8 -25.7 -40.0 -29.35 -39.7 -33.1 M-40.55 -14.7 L-42.05 -8.9 Q-42.7 -5.5 -42.85 -2.05 -43.1 3.85 -42.85 9.75 -43.1 3.85 -42.85 -2.05 -42.7 -5.5 -42.05 -8.9 L-40.55 -14.7 M-42.3 -31.4 L-44.35 -23.3 Q-45.3 -19.7 -46.4 -16.2 L-48.3 -10.4 -51.15 -1.45 Q-52.0 1.6 -51.8 4.3 -52.0 1.6 -51.15 -1.45 L-48.3 -10.4 -46.4 -16.2 Q-45.3 -19.7 -44.35 -23.3 L-42.3 -31.4 M-39.35 -47.95 L-40.45 -44.25 -40.55 -44.0 -40.45 -44.25 -39.35 -47.95 M-25.3 -35.4 Q-25.85 -36.1 -25.6 -37.15 L-25.55 -37.25 -25.6 -37.15 Q-25.85 -36.1 -25.3 -35.4 M-25.55 -37.25 Q-24.95 -39.2 -23.7 -40.95 L-23.35 -41.6 -23.7 -40.95 Q-24.95 -39.2 -25.55 -37.25 -24.9 -39.7 -23.35 -41.6 L-22.75 -42.3 -23.35 -41.6 Q-24.9 -39.7 -25.55 -37.25 -26.05 -35.8 -26.2 -34.25 -26.05 -35.8 -25.55 -37.25 M-36.55 -46.9 L-37.45 -44.25 Q-38.0 -42.15 -38.85 -40.3 -38.0 -42.15 -37.45 -44.25 L-36.55 -46.9 M-38.85 -47.8 L-39.85 -46.0 -40.45 -44.25 -39.85 -46.0 -38.85 -47.8 M-36.25 -48.35 Q-39.3 -44.7 -39.55 -40.0 -39.55 -39.7 -39.7 -39.45 -39.55 -39.7 -39.55 -40.0 -39.3 -44.7 -36.25 -48.35 M-30.2 -46.9 L-31.75 -44.2 -33.25 -40.7 Q-34.1 -39.2 -34.55 -37.5 -34.1 -39.2 -33.25 -40.7 L-31.75 -44.2 -30.2 -46.9 M-34.55 -37.5 L-35.1 -35.1 -34.55 -37.5 M-30.2 -44.9 L-31.15 -43.75 -33.25 -40.7 -31.15 -43.75 -30.2 -44.9" fill="url(#gradient0)" fill-rule="evenodd" stroke="none"/>
      <path d="M27.9 2.4 L29.9 0.2 34.65 -4.65 Q38.0 -8.0 38.8 -9.8 41.4 -9.4 41.25 -7.0 L41.0 -5.8 40.65 -5.0 Q39.45 -2.5 35.65 1.25 L29.8 6.6 29.25 7.0 28.55 6.8 27.9 2.4" fill="#006633" fill-rule="evenodd" stroke="none"/>
      <path d="M25.85 -2.25 L26.1 -0.95 Q26.3 -0.05 26.05 0.75 25.6 1.55 24.3 1.8 22.3 -1.2 24.65 -2.7 L25.45 -2.55 25.85 -2.25 M23.8 2.2 L25.45 4.45 27.45 1.2 27.9 2.4 28.55 6.8 27.3 6.25 26.9 5.8 25.3 9.8 24.15 7.2 23.7 6.95 22.6 9.6 22.2 10.55 22.15 10.7 Q21.05 7.55 22.6 4.35 L23.7 2.05 23.8 2.2" fill="#cccccc" fill-rule="evenodd" stroke="none"/>
      <path d="M41.25 -7.0 L41.7 -6.9 Q49.85 -5.05 52.05 -0.65 54.25 3.8 56.4 9.25 58.5 14.65 55.25 27.85 52.0 41.05 58.4 50.75 63.75 58.75 72.8 58.05 L72.9 58.9 Q59.55 66.25 46.15 59.25 32.3 52.1 28.15 36.85 L23.9 23.95 Q21.65 16.55 22.2 10.7 L22.2 10.55 22.6 9.6 23.7 6.95 24.15 7.2 25.3 9.8 26.9 5.8 27.3 6.25 29.0 8.5 28.55 6.8 29.25 7.0 29.8 6.6 35.65 1.25 Q39.45 -2.5 40.65 -5.0 L41.0 -5.8 41.25 -7.0 M32.5 11.5 L32.5 10.35 Q32.5 10.25 30.7 10.85 L28.9 11.3 30.7 10.85 Q32.5 10.25 32.5 10.35 L32.5 11.5 M37.65 8.35 L37.05 7.25 36.25 6.05 37.05 7.25 37.65 8.35 M38.55 2.3 L39.4 6.3 Q39.85 8.5 39.85 10.65 39.9 16.1 39.55 21.55 L39.25 25.9 Q38.8 31.6 42.25 35.95 38.8 31.6 39.25 25.9 L39.55 21.55 Q39.9 16.1 39.85 10.65 39.85 8.5 39.4 6.3 L38.55 2.3 M51.2 50.6 L50.4 49.65 48.1 45.7 Q46.85 43.3 46.0 40.75 45.15 38.0 44.8 35.05 44.55 32.5 44.85 29.95 L45.65 24.75 Q46.8 19.15 47.4 13.5 47.6 11.8 47.45 10.1 46.95 4.85 44.0 0.55 46.95 4.85 47.45 10.1 47.6 11.8 47.4 13.5 46.8 19.15 45.65 24.75 L44.85 29.95 Q44.55 32.5 44.8 35.05 45.15 38.0 46.0 40.75 46.85 43.3 48.1 45.7 L50.4 49.65 51.2 50.6 M49.45 5.75 L48.7 2.9 Q47.5 -0.9 44.3 -3.2 47.5 -0.9 48.7 2.9 L49.45 5.75 M41.7 3.15 L41.4 2.6 39.95 0.55 41.4 2.6 41.7 3.15 M35.65 11.5 L34.95 14.4 Q34.5 16.8 34.2 19.25 33.5 24.9 34.2 30.5 34.5 33.1 35.15 35.55 36.55 41.05 40.55 44.85 36.55 41.05 35.15 35.55 34.5 33.1 34.2 30.5 33.5 24.9 34.2 19.25 34.5 16.8 34.95 14.4 L35.65 11.5 M29.3 12.65 L29.1 13.8 Q28.55 17.5 28.7 21.3 L29.2 29.05 29.5 31.3 30.4 35.1 Q31.2 37.95 32.65 40.5 L33.95 43.1 36.35 47.8 Q38.75 51.9 42.3 55.15 L42.8 55.55 Q45.1 57.55 48.0 58.35 L50.3 58.95 48.0 58.35 Q45.1 57.55 42.8 55.55 L42.3 55.15 Q38.75 51.9 36.35 47.8 L33.95 43.1 32.65 40.5 Q31.2 37.95 30.4 35.1 L29.5 31.3 29.2 29.05 28.7 21.3 Q28.55 17.5 29.1 13.8 L29.3 12.65 M62.1 56.4 L60.9 56.8 57.35 57.0 Q55.1 56.7 53.0 55.6 L47.35 52.5 Q45.35 51.35 44.3 49.45 45.35 51.35 47.35 52.5 L53.0 55.6 Q55.1 56.7 57.35 57.0 L60.9 56.8 62.1 56.4" fill="url(#gradient1)" fill-rule="evenodd" stroke="none"/>
      <path d="M41.7 -6.9 Q49.85 -5.05 52.05 -0.65 54.25 3.8 56.4 9.25 58.5 14.65 55.25 27.85 52.0 41.05 58.4 50.75 63.75 58.75 72.8 58.05 L74.8 57.8 72.9 58.9 Q59.55 66.25 46.15 59.25 32.3 52.1 28.15 36.85 L23.9 23.95 Q21.65 16.55 22.2 10.7 L22.2 10.55 22.6 9.6" fill="none" stroke="#000000" stroke-linecap="round" stroke-linejoin="round" stroke-width="2.0"/>
      <path d="M17.55 -61.6 L15.55 -61.0 17.85 -59.0 14.95 -57.55 15.8 -55.75 15.45 -55.25 14.75 -54.45 14.0 -53.85 12.1 -52.95 M38.8 -9.8 Q41.4 -23.8 37.8 -37.7 35.55 -46.5 31.45 -54.45 27.25 -62.7 18.9 -62.95 9.05 -74.8 -6.85 -73.25 -20.95 -71.45 -31.35 -61.6 -42.0 -51.5 -45.6 -37.0 -48.85 -24.1 -54.7 -12.25 -56.5 -8.65 -55.8 -4.6 L-55.75 -4.7 Q-54.25 -10.5 -49.5 -14.1 -52.0 -9.25 -53.2 -3.85 -54.5 1.75 -54.3 7.9 -54.2 10.35 -54.9 12.9 L-55.25 14.65 -54.15 13.5 Q-48.2 6.75 -45.75 -2.05 -47.65 8.75 -44.05 19.3 -40.85 12.4 -39.1 5.25 -37.4 10.4 -32.45 13.45 -36.25 5.15 -37.15 -4.3 M-37.45 -4.3 L-37.2 -6.85 Q-36.0 -14.15 -36.4 -21.55 -36.6 -24.85 -37.15 -28.2 L-35.1 -21.6 Q-31.35 -29.0 -29.05 -37.15 L-25.85 -28.5 Q-19.1 -42.0 -7.75 -48.05 L-8.05 -41.75 Q0.0 -47.6 10.35 -47.8 11.4 -36.55 14.2 -24.95 L14.4 -24.2 15.55 -25.3 Q16.85 -26.45 17.55 -27.85 L18.1 -29.35 Q18.3 -28.65 20.15 -26.5 20.85 -25.7 19.8 -18.9 L19.7 -17.95 Q18.35 -8.3 16.25 -5.35 14.1 -2.45 13.1 -2.15 17.9 -0.95 21.1 -12.15 24.3 -23.35 27.25 -20.6 30.2 -17.9 27.75 -8.3 M27.25 -7.45 Q27.7 -4.65 26.15 -2.2 L26.1 -2.1 25.9 -2.25 25.85 -2.35 25.85 -2.25 26.1 -0.95 Q26.3 -0.05 26.05 0.75 25.6 1.55 24.3 1.8 22.3 -1.2 24.65 -2.7 L25.45 -2.55 M23.8 2.2 L25.45 4.45 27.45 1.2 27.9 2.4 29.9 0.2 34.65 -4.65 Q38.0 -8.0 38.8 -9.8 41.4 -9.4 41.25 -7.0 L41.0 -5.8 40.65 -5.0 Q39.45 -2.5 35.65 1.25 L29.8 6.6 29.25 7.0 28.55 6.8 29.0 8.5 27.3 6.25 26.9 5.8 25.3 9.8 24.15 7.2 23.7 6.95 22.6 9.6 M22.2 10.55 L22.15 10.7 Q21.05 7.55 22.6 4.35 L23.7 2.05 23.8 2.2 M27.3 6.25 L28.55 6.8 27.9 2.4" fill="none" stroke="#000000" stroke-linecap="round" stroke-linejoin="round" stroke-width="2.0"/>
      <path d="M-29.05 -37.15 Q-29.15 -39.4 -27.7 -41.2 L-26.2 -43.15 M30.2 -47.5 L30.75 -46.6 32.5 -42.9 M20.7 -42.0 L20.9 -41.25 21.05 -40.6 M21.2 -39.95 L22.25 -35.3 M24.3 -41.55 L23.15 -43.15 M27.05 -36.0 L24.5 -41.15 24.3 -41.55 M26.5 -45.25 Q27.75 -43.85 28.5 -42.2 L30.25 -38.6 M16.1 -39.7 Q15.65 -38.9 15.7 -38.05 L15.75 -37.4 16.1 -36.4 Q16.7 -35.25 16.9 -33.95 L16.95 -33.4 M19.25 -39.15 Q19.15 -37.4 19.3 -35.7 L19.55 -34.25 M13.7 -39.4 L14.95 -33.4 M-40.65 -43.5 L-40.55 -44.0 M-25.55 -37.25 L-25.6 -37.15 Q-25.85 -36.1 -25.3 -35.4 M-25.55 -37.25 Q-24.9 -39.7 -23.35 -41.6 L-22.75 -42.3 M-40.45 -44.25 L-39.85 -46.0 -38.85 -47.8 M-38.85 -40.3 Q-38.0 -42.15 -37.45 -44.25 L-36.55 -46.9 M-34.55 -37.5 Q-34.1 -39.2 -33.25 -40.7 L-31.75 -44.2 -30.2 -46.9" fill="none" stroke="#bb8d5f" stroke-linecap="round" stroke-linejoin="round" stroke-width="1.5"/>
      <path d="M7.75 -69.65 Q9.75 -68.4 10.6 -66.2 L11.2 -64.45 M-19.55 -54.95 Q-15.3 -59.05 -9.65 -60.8 -5.3 -62.15 -0.8 -62.55 3.2 -62.85 7.2 -62.65 L8.0 -62.6 9.2 -62.45 M3.75 -58.15 L5.45 -57.5 7.2 -56.7 M10.35 -60.15 L9.45 -61.3 8.0 -62.6 M22.45 -59.0 L24.15 -58.95 Q29.1 -55.8 31.25 -50.3 33.2 -45.3 33.95 -40.0 L35.0 -29.65 35.5 -23.6 35.95 -19.85 M21.05 -40.6 L21.2 -39.95 M22.25 -35.3 L23.1 -29.35 Q23.3 -27.25 21.95 -23.65 L19.7 -17.95 M25.9 -31.65 L25.9 -33.05 24.95 -38.05 24.3 -41.55 23.85 -44.3 M30.25 -38.6 L29.8 -40.6 Q28.6 -45.85 26.65 -50.9 M30.25 -38.6 L31.95 -29.65 Q32.05 -29.0 30.45 -26.85 28.85 -24.7 28.9 -24.1 M15.7 -38.05 L15.4 -40.25 14.4 -45.75 M15.75 -37.4 L16.1 -30.25 M39.95 0.55 L41.4 2.6 41.7 3.15 M44.3 -3.2 Q47.5 -0.9 48.7 2.9 L49.45 5.75 M44.0 0.55 Q46.95 4.85 47.45 10.1 47.6 11.8 47.4 13.5 46.8 19.15 45.65 24.75 L44.85 29.95 Q44.55 32.5 44.8 35.05 45.15 38.0 46.0 40.75 46.85 43.3 48.1 45.7 L50.4 49.65 51.2 50.6 M42.25 35.95 Q38.8 31.6 39.25 25.9 L39.55 21.55 Q39.9 16.1 39.85 10.65 39.85 8.5 39.4 6.3 L38.55 2.3 M36.25 6.05 L37.05 7.25 37.65 8.35 M28.9 11.3 L30.7 10.85 Q32.5 10.25 32.5 10.35 L32.5 11.5 M50.3 58.95 L48.0 58.35 Q45.1 57.55 42.8 55.55 L42.3 55.15 Q38.75 51.9 36.35 47.8 L33.95 43.1 32.65 40.5 Q31.2 37.95 30.4 35.1 L29.5 31.3 29.2 29.05 28.7 21.3 Q28.55 17.5 29.1 13.8 L29.3 12.65 M40.55 44.85 Q36.55 41.05 35.15 35.55 34.5 33.1 34.2 30.5 33.5 24.9 34.2 19.25 34.5 16.8 34.95 14.4 L35.65 11.5 M-41.45 -44.05 Q-40.45 -45.65 -39.7 -47.35 L-39.35 -47.95 -38.85 -49.3 -37.3 -52.9 -36.55 -54.1 Q-35.1 -56.15 -33.2 -57.65 L-31.55 -58.9 Q-27.3 -62.2 -22.7 -64.95 -20.25 -66.45 -17.55 -67.4 -13.05 -69.05 -8.35 -69.3 L-2.3 -68.8 M-37.4 -37.15 Q-37.6 -42.95 -34.15 -47.75 -31.5 -51.35 -28.3 -54.45 -25.2 -57.4 -21.3 -59.15 -17.1 -61.0 -12.65 -62.25 L-3.15 -64.75 M-52.35 -14.7 Q-49.5 -18.4 -47.0 -22.5 L-46.05 -24.2 Q-43.55 -29.45 -42.55 -35.1 L-41.3 -40.65 -41.05 -41.75 -40.65 -43.5 M-40.55 -44.0 L-40.45 -44.25 -39.35 -47.95 M-51.8 4.3 Q-52.0 1.6 -51.15 -1.45 L-48.3 -10.4 -46.4 -16.2 Q-45.3 -19.7 -44.35 -23.3 L-42.3 -31.4 M-42.85 9.75 Q-43.1 3.85 -42.85 -2.05 -42.7 -5.5 -42.05 -8.9 L-40.55 -14.7 M-47.75 -4.9 L-43.75 -15.65 Q-41.85 -20.55 -40.8 -25.7 -40.0 -29.35 -39.7 -33.1 M-23.35 -41.6 L-23.7 -40.95 Q-24.95 -39.2 -25.55 -37.25 -26.05 -35.8 -26.2 -34.25 M-39.7 -39.45 Q-39.55 -39.7 -39.55 -40.0 -39.3 -44.7 -36.25 -48.35 M-33.25 -40.7 L-31.15 -43.75 -30.2 -44.9 M-35.1 -35.1 L-34.55 -37.5" fill="none" stroke="#884d2d" stroke-linecap="round" stroke-linejoin="round" stroke-width="1.5"/>
      <path d="M44.3 49.45 Q45.35 51.35 47.35 52.5 L53.0 55.6 Q55.1 56.7 57.35 57.0 L60.9 56.8 62.1 56.4" fill="none" stroke="#562c1d" stroke-linecap="round" stroke-linejoin="round" stroke-width="1.5"/>
    </g>
    </g>
  </g>
  <defs>
    <radialGradient cx="0" cy="0" gradientTransform="matrix(8.0E-4, 0.0806, -0.1487, 0.0014, -4.5, -54.5)" gradientUnits="userSpaceOnUse" id="gradient0" r="819.2" spreadMethod="pad">
      <stop offset="0.0" stop-color="#1d1512"/>
      <stop offset="0.23137254901960785" stop-color="#693e27"/>
      <stop offset="0.3176470588235294" stop-color="#884d2d"/>
      <stop offset="0.38823529411764707" stop-color="#693e27"/>
      <stop offset="1.0" stop-color="#241c17"/>
    </radialGradient>
    <radialGradient cx="0" cy="0" gradientTransform="matrix(0.0791, 0.0, 0.0, 0.0811, 28.75, -9.8)" gradientUnits="userSpaceOnUse" id="gradient1" r="819.2" spreadMethod="pad">
      <stop offset="0.0" stop-color="#1d1512"/>
      <stop offset="0.23137254901960785" stop-color="#693e27"/>
      <stop offset="0.3176470588235294" stop-color="#884d2d"/>
      <stop offset="0.38823529411764707" stop-color="#693e27"/>
      <stop offset="1.0" stop-color="#241c17"/>
    </radialGradient>
  </defs>
</svg>