<svg xmlns:xlink="http://www.w3.org/1999/xlink" xmlns="http://www.w3.org/2000/svg" height="16.65px" width="27.9px">
  <g transform="matrix(1.0, 0.0, 0.0, 1.0, 11.2, 8.0)">
    <g data-characterId="1326" height="10.45" transform="matrix(1.0, 0.0, 0.0, 1.0, -6.65, -4.05)" width="7.25" xlink:href="#shape0"><g id="shape0" transform="matrix(1.0, 0.0, 0.0, 1.0, 6.65, 4.05)">
      <path d="M-5.95 -0.6 L-6.55 -0.7 -6.65 -0.8 Q-6.85 -2.5 -5.2 -3.5 -4.4 -4.05 -3.4 -4.05 -0.15 -4.3 -0.35 -1.55 L-0.6 -1.3 Q-1.0 -1.2 -1.3 -1.6 L-2.05 -2.45 Q-4.75 -3.1 -5.85 -0.65 L-5.95 -0.6" fill="#3a4549" fill-rule="evenodd" stroke="none"/>
      <path d="M-4.9 2.2 Q-2.35 1.65 0.0 2.15 0.7 2.3 0.55 2.95 0.25 4.6 -1.4 5.2 -4.0 6.2 -5.75 4.05 -6.75 2.85 -5.85 1.6 L-5.7 1.55 -5.5 1.5 -5.25 1.6 -5.1 1.7 -4.9 1.95 -4.9 2.2 M-4.85 3.3 L-5.05 3.65 Q-3.5 5.55 -1.6 4.0 L-1.6 3.9 -1.65 3.7 -1.7 3.6 -1.8 3.6 Q-3.25 3.8 -4.6 3.2 L-4.85 3.3" fill="#4f5c66" fill-rule="evenodd" stroke="none"/>
      <path d="M-4.85 3.3 L-4.6 3.2 Q-3.25 3.8 -1.8 3.6 L-1.7 3.6 -1.65 3.7 -1.6 3.9 -1.6 4.0 Q-3.5 5.55 -5.05 3.65 L-4.85 3.3" fill="#8d9ca7" fill-rule="evenodd" stroke="none"/>
      <path d="M-0.45 -0.55 L-0.4 1.25 -1.3 2.3 -1.95 2.7 -3.7 2.85 Q-4.95 3.2 -6.0 1.45 L-6.2 0.55 Q-6.2 -1.55 -5.0 -2.25 L-4.2 -2.35 Q-1.4 -3.3 -0.45 -0.55" fill="#171d1e" fill-rule="evenodd" stroke="none"/>
      <path d="M-0.45 -0.55 L-0.4 1.25 -1.3 2.3 -1.95 2.7 -3.7 2.85 Q-4.95 3.2 -6.0 1.45 L-6.2 0.55 Q-6.2 -1.55 -5.0 -2.25 L-4.2 -2.35 Q-1.4 -3.3 -0.45 -0.55" fill="none" stroke="#000000" stroke-linecap="round" stroke-linejoin="round" stroke-width="1.5"/>
      <path d="M-3.75 5.65 L-1.85 5.6" fill="none" stroke="#3a4549" stroke-linecap="round" stroke-linejoin="round" stroke-width="2.0"/>
    </g>
  </g>
  </g>
  <defs>
    </defs>
</svg>