<svg xmlns:xlink="http://www.w3.org/1999/xlink" xmlns="http://www.w3.org/2000/svg" height="202.2px" width="161.9px">
  <g transform="matrix(1.0, 0.0, 0.0, 1.0, 74.15, 81.7)">
    <g data-characterId="1459" height="147.9" transform="matrix(1.0, 0.0, 0.0, 1.0, -46.9, -74.4)" width="95.0" xlink:href="#shape0"><g id="shape0" transform="matrix(1.0, 0.0, 0.0, 1.0, 46.9, 74.4)">
      <path d="M-4.7 -55.45 L-4.75 -55.5 -5.55 -56.4 -6.15 -55.9 Q-8.4 -51.45 -11.1 -47.8 -13.8 -44.2 -19.3 -38.2 -24.8 -32.2 -29.0 -29.9 L-35.45 -26.15 Q-37.2 -24.95 -36.65 -18.85 -36.8 -14.45 -37.55 -10.15 -37.8 -8.6 -36.75 -2.05 -35.75 4.45 -32.7 12.25 L-32.6 12.45 -27.4 25.45 Q-25.15 30.75 -23.55 32.85 -22.5 34.25 -20.05 34.65 L-17.7 34.8 -17.35 35.2 -17.8 39.0 -24.7 39.0 -24.95 36.8 -25.45 34.0 -24.95 36.8 -24.7 39.0 -29.55 39.0 -32.8 39.0 -33.1 39.0 -32.8 23.95 -32.6 12.45 -32.8 23.95 -33.1 39.0 -37.05 39.0 -38.6 39.0 -38.7 25.8 -38.4 8.75 Q-38.3 1.15 -37.65 -6.45 -38.3 1.15 -38.4 8.75 L-38.7 25.8 -38.6 39.0 -41.75 39.0 -44.35 39.0 -44.65 24.9 Q-44.9 18.5 -44.65 13.3 -44.45 8.1 -45.25 2.6 -46.1 -2.9 -46.35 -9.9 -46.65 -16.9 -45.6 -25.15 -44.55 -33.4 -42.1 -41.15 -39.5 -49.7 -35.35 -57.5 -33.8 -60.45 -31.35 -62.1 L-27.4 -64.55 -23.05 -67.05 Q-20.75 -68.45 -18.2 -69.35 -10.5 -72.15 -2.7 -73.85 -1.85 -74.0 -1.1 -73.45 1.15 -71.55 1.7 -68.5 -0.05 -68.4 -1.3 -67.6 L-2.2 -66.95 -3.0 -66.0 Q-2.65 -61.85 -4.35 -59.6 L-4.75 -59.25 -4.7 -55.45 M-36.8 -51.55 Q-34.55 -57.6 -29.25 -61.0 -27.65 -62.0 -26.15 -63.2 -19.7 -68.3 -12.0 -69.85 L-7.85 -70.5 -4.25 -71.1 -3.2 -70.95 Q-1.95 -69.65 -1.3 -67.6 -1.95 -69.65 -3.2 -70.95 L-4.25 -71.1 -7.85 -70.5 -12.0 -69.85 Q-19.7 -68.3 -26.15 -63.2 -27.65 -62.0 -29.25 -61.0 -34.55 -57.6 -36.8 -51.55 M-34.65 -49.65 Q-35.5 -50.8 -29.5 -57.55 -23.55 -64.35 -8.9 -67.95 L-5.6 -65.35 -8.9 -67.95 Q-23.55 -64.35 -29.5 -57.55 -35.5 -50.8 -34.65 -49.65 M-3.45 -69.95 L-2.2 -66.95 -3.45 -69.95 M-33.5 -40.6 L-28.85 -45.8 -18.7 -56.45 -10.7 -64.0 -18.7 -56.45 -28.85 -45.8 -33.5 -40.6 -40.2 -28.55 -33.5 -40.6 -41.95 -28.55 -33.5 -40.6 M-41.1 -17.05 Q-40.55 -23.15 -36.85 -28.7 -33.15 -34.25 -27.1 -39.85 -21.1 -45.5 -17.75 -51.05 -14.4 -56.65 -9.6 -61.2 -14.4 -56.65 -17.75 -51.05 -21.1 -45.5 -27.1 -39.85 -33.15 -34.25 -36.85 -28.7 -40.55 -23.15 -41.1 -17.05 M-35.1 -43.25 L-33.45 -45.65 Q-29.4 -51.4 -24.4 -56.15 -29.4 -51.4 -33.45 -45.65 L-35.1 -43.25 M-35.5 -27.6 L-30.8 -34.5 -35.5 -27.6 M-43.25 -28.1 L-42.5 -32.05 Q-40.75 -40.3 -37.25 -47.85 -40.75 -40.3 -42.5 -32.05 L-43.25 -28.1 M-38.55 -13.45 L-36.65 -18.85 -38.55 -13.45 M-29.5 -40.55 L-21.8 -49.75 -29.5 -40.55 M-41.5 -35.0 L-38.05 -40.05 -41.5 -35.0 M-32.55 35.0 L-32.8 39.0 -32.55 35.0 M-36.4 17.5 L-36.95 32.5 -37.05 39.0 -36.95 32.5 -36.4 17.5 M-29.5 28.05 L-29.55 39.0 -29.5 28.05 M-41.1 -2.3 L-41.1 13.8 -41.35 26.7 -41.75 39.0 -41.35 26.7 -41.1 13.8 -41.1 -2.3 M-41.5 7.8 L-41.95 -13.35 -41.5 7.8" fill="url(#gradient0)" fill-rule="evenodd" stroke="none"/>
      <path d="M-17.8 39.0 L-18.45 42.5 Q-18.55 43.05 -19.0 43.4 L-24.45 47.8 -24.5 47.8 -24.5 47.85 -25.7 65.8 -28.05 65.8 -34.1 55.6 -34.55 55.45 -35.7 61.7 -36.4 61.6 Q-39.1 56.25 -40.15 50.35 L-40.95 55.2 Q-42.3 52.4 -42.9 49.4 -44.3 43.15 -44.35 39.1 L-44.35 39.0 -41.75 39.0 -41.8 39.8 Q-42.05 44.75 -39.8 50.45 -42.05 44.75 -41.8 39.8 L-41.75 39.0 -38.6 39.0 -37.05 39.0 -37.0 44.9 -36.75 49.4 Q-36.7 50.6 -35.5 51.8 -36.7 50.6 -36.75 49.4 L-37.0 44.9 -37.05 39.0 -33.1 39.0 -32.8 39.0 Q-33.05 43.65 -32.45 48.4 L-31.95 51.8 -32.45 48.4 Q-33.05 43.65 -32.8 39.0 L-29.55 39.0 -24.7 39.0 Q-24.05 43.4 -24.5 47.8 -24.05 43.4 -24.7 39.0 L-17.8 39.0 M-31.95 51.8 Q-33.2 45.65 -33.15 40.8 L-33.1 39.0 -33.15 40.8 Q-33.2 45.65 -31.95 51.8 -31.35 56.15 -29.65 60.0 L-28.7 62.35 -29.65 60.0 Q-31.35 56.15 -31.95 51.8 M-38.05 49.8 L-38.6 39.8 -38.6 39.0 -38.6 39.8 -38.05 49.8 M-27.8 61.65 L-28.9 52.85 Q-29.6 46.45 -29.55 42.15 L-29.55 39.0 -29.55 42.15 Q-29.6 46.45 -28.9 52.85 L-27.8 61.65" fill="url(#gradient1)" fill-rule="evenodd" stroke="none"/>
      <path d="M-25.7 65.8 L-25.5 67.95 -28.05 65.8 -25.7 65.8" fill="url(#gradient2)" fill-rule="evenodd" stroke="none"/>
      <path d="M3.1 -65.8 L2.6 -66.85 3.1 -65.8 M3.7 -67.2 L2.6 -66.85 3.7 -67.2 M2.6 -66.85 L1.95 -68.1 2.6 -66.85 -0.25 -65.35 2.6 -66.85 M1.9 -68.5 L1.95 -68.1 Q4.85 -70.0 7.95 -71.25 L9.15 -71.3 Q16.4 -68.6 23.1 -65.05 28.5 -62.2 33.15 -58.1 34.45 -56.9 35.4 -55.25 39.7 -47.5 42.35 -39.0 L44.65 -31.4 Q46.7 -24.55 46.45 -17.2 L45.95 -2.85 45.45 14.0 Q45.15 22.7 45.9 31.45 L46.65 39.0 41.45 39.0 37.9 39.0 35.2 39.0 35.0 30.85 34.35 13.35 33.5 -2.75 Q33.05 -9.9 32.75 -17.05 33.05 -9.9 33.5 -2.75 L34.35 13.35 35.0 30.85 35.2 39.0 32.7 39.0 29.95 39.0 29.8 24.85 29.45 11.05 28.85 -6.45 28.35 -22.55 28.85 -6.45 29.45 11.05 29.8 24.85 29.95 39.0 26.15 39.0 24.25 39.0 21.85 39.0 21.2 23.45 Q20.75 15.35 19.55 7.35 20.75 15.35 21.2 23.45 L21.85 39.0 17.85 39.0 17.45 25.25 Q17.15 18.75 16.45 12.25 L14.9 -3.2 Q14.25 -10.35 13.2 -17.15 L12.5 -19.85 12.2 -8.05 Q10.55 -12.65 9.65 -20.45 8.65 -28.25 6.55 -35.3 4.45 -42.35 2.05 -45.9 L-1.95 -51.9 Q-3.5 -54.3 -4.7 -55.45 L-4.75 -59.25 -4.3 -59.6 Q-2.6 -61.85 -2.95 -66.0 L-2.1 -66.95 -1.2 -67.6 Q0.1 -68.4 1.9 -68.5 M1.9 -58.9 Q4.9 -58.05 6.75 -55.65 9.9 -51.55 11.05 -46.25 11.6 -43.55 13.35 -41.9 11.6 -43.55 11.05 -46.25 9.9 -51.55 6.75 -55.65 4.9 -58.05 1.9 -58.9 M3.2 -63.5 L4.9 -64.5 Q5.5 -64.75 5.9 -64.5 11.85 -61.05 17.35 -57.1 11.85 -61.05 5.9 -64.5 5.5 -64.75 4.9 -64.5 L3.2 -63.5 M10.3 -58.0 Q11.6 -57.25 13.0 -56.55 17.6 -53.9 20.4 -49.25 17.6 -53.9 13.0 -56.55 11.6 -57.25 10.3 -58.0 M24.35 -59.85 L30.95 -52.5 24.35 -59.85 M7.2 -68.6 Q10.3 -67.95 13.0 -65.95 17.05 -62.95 20.4 -58.9 17.05 -62.95 13.0 -65.95 10.3 -67.95 7.2 -68.6 M12.05 -68.15 Q15.9 -65.8 20.35 -64.25 25.55 -62.5 28.75 -58.0 25.55 -62.5 20.35 -64.25 15.9 -65.8 12.05 -68.15 M11.6 -39.6 L15.0 -31.6 Q17.6 -24.95 19.1 -17.95 17.6 -24.95 15.0 -31.6 L11.6 -39.6 M12.05 -24.4 L11.7 -26.2 Q11.05 -29.35 9.4 -31.75 11.05 -29.35 11.7 -26.2 L12.05 -24.4 M28.35 -49.7 L30.6 -46.1 Q35.1 -38.9 36.25 -30.4 35.1 -38.9 30.6 -46.1 L28.35 -49.7 M28.75 -42.35 L33.2 -32.7 28.75 -42.35 M20.9 -50.15 L21.5 -49.1 25.2 -42.3 Q29.05 -34.9 30.95 -26.7 29.05 -34.9 25.2 -42.3 L21.5 -49.1 20.9 -50.15 M33.2 -45.55 Q34.2 -44.9 34.6 -43.7 35.75 -40.45 37.6 -37.75 35.75 -40.45 34.6 -43.7 34.2 -44.9 33.2 -45.55 M23.5 -38.65 L26.55 -28.55 23.5 -38.65 M17.35 -17.05 Q17.65 -12.75 18.9 -8.6 20.05 -4.55 20.55 -0.45 L21.75 10.65 22.95 23.0 24.05 35.9 24.25 39.0 24.05 35.9 22.95 23.0 21.75 10.65 20.55 -0.45 Q20.05 -4.55 18.9 -8.6 17.65 -12.75 17.35 -17.05 M31.45 -13.8 L32.55 -0.9 Q33.15 7.0 32.6 14.9 32.3 18.6 32.15 22.35 31.8 29.2 32.45 35.85 L32.7 39.0 32.45 35.85 Q31.8 29.2 32.15 22.35 32.3 18.6 32.6 14.9 33.15 7.0 32.55 -0.9 L31.45 -13.8 M34.95 -19.8 L35.6 -3.7 36.1 9.45 Q36.2 15.65 36.8 21.65 L37.4 29.2 37.9 39.0 37.4 29.2 36.8 21.65 Q36.2 15.65 36.1 9.45 L35.6 -3.7 34.95 -19.8 M36.25 -25.8 Q37.65 -19.2 38.0 -12.5 38.25 -7.15 38.65 -1.85 L39.8 15.2 40.65 27.85 41.25 35.9 41.45 39.0 41.25 35.9 40.65 27.85 39.8 15.2 38.65 -1.85 Q38.25 -7.15 38.0 -12.5 37.65 -19.2 36.25 -25.8 M16.9 -33.15 L20.4 -23.95 16.9 -33.15 M16.5 -45.1 Q19.25 -40.35 20.9 -35.0 23.2 -27.85 23.05 -20.25 23.2 -27.85 20.9 -35.0 19.25 -40.35 16.5 -45.1 M42.45 -14.75 L42.45 -18.9 Q42.25 -25.7 40.25 -32.2 42.25 -25.7 42.45 -18.9 L42.45 -14.75 M34.1 -49.7 L39.35 -37.3 34.1 -49.7 M41.55 13.35 Q41.9 7.0 41.2 0.6 40.4 -6.4 39.75 -13.8 40.4 -6.4 41.2 0.6 41.9 7.0 41.55 13.35 M26.15 39.0 L26.25 36.8 26.4 26.6 26.1 19.95 Q25.35 12.5 24.95 5.15 24.35 -3.7 23.05 -12.45 24.35 -3.7 24.95 5.15 25.35 12.5 26.1 19.95 L26.4 26.6 26.25 36.8 26.15 39.0 M-1.6 -65.8 L-2.1 -66.95 -1.6 -65.8 M-4.25 -58.9 L1.0 -61.2 -4.25 -58.9 M-1.6 -62.15 L0.15 -63.5 -1.6 -62.15 M-0.7 -57.1 Q7.65 -47.5 11.2 -34.1 7.65 -47.5 -0.7 -57.1" fill="url(#gradient3)" fill-rule="evenodd" stroke="none"/>
      <path d="M46.65 39.0 L47.4 43.25 Q48.3 48.35 45.3 53.9 42.0 60.05 35.7 64.05 L33.2 65.6 36.45 56.7 Q33.75 63.1 27.25 67.8 L23.2 70.9 22.15 70.6 Q24.15 66.4 24.6 61.9 L24.75 60.0 Q21.35 65.45 16.2 69.9 L13.8 72.1 13.15 71.55 15.65 59.4 17.6 49.0 18.15 45.75 17.85 39.0 21.85 39.0 21.9 39.65 Q22.1 44.8 20.55 50.7 20.0 52.75 19.9 55.1 19.55 58.55 17.75 61.9 19.55 58.55 19.9 55.1 20.0 52.75 20.55 50.7 22.1 44.8 21.9 39.65 L21.85 39.0 24.25 39.0 26.15 39.0 29.95 39.0 32.7 39.0 Q33.05 43.05 32.7 47.15 32.25 51.65 29.75 58.45 L29.1 60.7 29.25 60.9 29.1 60.7 29.75 58.45 Q32.25 51.65 32.7 47.15 33.05 43.05 32.7 39.0 L35.2 39.0 37.9 39.0 41.45 39.0 46.65 39.0 M40.25 54.1 Q41.7 50.6 41.75 48.15 41.8 43.8 41.45 39.0 41.8 43.8 41.75 48.15 41.7 50.6 40.25 54.1 M37.15 52.75 Q38.3 47.9 38.15 43.9 L37.9 39.0 38.15 43.9 Q38.3 47.9 37.15 52.75 M28.35 57.5 L29.2 51.25 Q29.9 44.6 29.95 40.0 L29.95 39.0 29.95 40.0 Q29.9 44.6 29.2 51.25 L28.35 57.5 M24.8 54.75 L25.45 48.8 26.15 39.0 25.45 48.8 24.8 54.75 M34.55 52.05 Q35.5 47.4 35.35 44.1 L35.2 39.0 35.35 44.1 Q35.5 47.4 34.55 52.05 M21.3 58.5 Q23.55 52.25 24.05 48.05 24.5 43.55 24.25 39.0 24.5 43.55 24.05 48.05 23.55 52.25 21.3 58.5 M24.95 59.65 L24.75 60.0 24.95 59.65" fill="url(#gradient4)" fill-rule="evenodd" stroke="none"/>
      <path d="M28.75 -58.0 Q25.55 -62.5 20.35 -64.25 15.9 -65.8 12.05 -68.15 M32.7 39.0 L32.45 35.85 Q31.8 29.2 32.15 22.35 32.3 18.6 32.6 14.9 33.15 7.0 32.55 -0.9 L31.45 -13.8 M37.9 39.0 L37.4 29.2 36.8 21.65 Q36.2 15.65 36.1 9.45 L35.6 -3.7 34.95 -19.8 M39.75 -13.8 Q40.4 -6.4 41.2 0.6 41.9 7.0 41.55 13.35 M37.9 39.0 L38.15 43.9 Q38.3 47.9 37.15 52.75 M23.05 -12.45 Q24.35 -3.7 24.95 5.15 25.35 12.5 26.1 19.95 L26.4 26.6 26.25 36.8 26.15 39.0 25.45 48.8 24.8 54.75 M21.85 39.0 L21.9 39.65 Q22.1 44.8 20.55 50.7 20.0 52.75 19.9 55.1 19.55 58.55 17.75 61.9 M32.7 39.0 Q33.05 43.05 32.7 47.15 32.25 51.65 29.75 58.45 L29.1 60.7 29.25 60.9 M21.85 39.0 L21.2 23.45 Q20.75 15.35 19.55 7.35 M-1.3 -67.6 Q-1.95 -69.65 -3.2 -70.95 L-4.25 -71.1 -7.85 -70.5 -12.0 -69.85 Q-19.7 -68.3 -26.15 -63.2 -27.65 -62.0 -29.25 -61.0 -34.55 -57.6 -36.8 -51.55 M-32.8 39.0 L-32.55 35.0 M-37.05 39.0 L-36.95 32.5 -36.4 17.5 M-31.95 51.8 L-32.45 48.4 Q-33.05 43.65 -32.8 39.0 M-31.95 51.8 Q-31.35 56.15 -29.65 60.0 L-28.7 62.35 M-37.05 39.0 L-37.0 44.9 -36.75 49.4 Q-36.7 50.6 -35.5 51.8 M-41.75 39.0 L-41.35 26.7 -41.1 13.8 -41.1 -2.3 M-41.75 39.0 L-41.8 39.8 Q-42.05 44.75 -39.8 50.45" fill="none" stroke="#ae6262" stroke-linecap="round" stroke-linejoin="round" stroke-width="1.5"/>
      <path d="M2.6 -66.85 L3.7 -67.2 M2.6 -66.85 L-0.25 -65.35 M0.15 -63.5 L-1.6 -62.15 M1.0 -61.2 L-4.25 -58.9" fill="none" stroke="#170d0d" stroke-linecap="round" stroke-linejoin="round" stroke-width="1.5"/>
      <path d="M2.6 -66.85 L3.1 -65.8 M1.95 -68.1 L2.6 -66.85 M1.9 -68.5 L1.95 -68.1 Q4.85 -70.0 7.95 -71.25 L9.15 -71.3 Q16.4 -68.6 23.1 -65.05 28.5 -62.2 33.15 -58.1 34.45 -56.9 35.4 -55.25 39.7 -47.5 42.35 -39.0 L44.65 -31.4 Q46.7 -24.55 46.45 -17.2 L45.95 -2.85 45.45 14.0 Q45.15 22.7 45.9 31.45 L46.65 39.0 47.4 43.25 Q48.3 48.35 45.3 53.9 42.0 60.05 35.7 64.05 L33.2 65.6 36.45 56.7 Q33.75 63.1 27.25 67.8 L23.2 70.9 21.3 72.15 22.15 70.6 Q24.15 66.4 24.6 61.9 L24.75 60.0 Q21.35 65.45 16.2 69.9 L13.8 72.1 12.5 73.0 13.15 71.55 15.65 59.4 17.6 49.0 18.15 45.75 17.85 39.0 17.45 25.25 Q17.15 18.75 16.45 12.25 L14.9 -3.2 Q14.25 -10.35 13.2 -17.15 L12.5 -19.85 12.2 -8.05 Q10.55 -12.65 9.65 -20.45 8.65 -28.25 6.55 -35.3 4.45 -42.35 2.05 -45.9 L-1.95 -51.9 Q-3.5 -54.3 -4.7 -55.45 L-4.75 -55.5 -5.55 -56.4 M-6.15 -55.9 Q-8.4 -51.45 -11.1 -47.8 -13.8 -44.2 -19.3 -38.2 -24.8 -32.2 -29.0 -29.9 L-35.45 -26.15 Q-37.2 -24.95 -36.65 -18.85 L-38.55 -13.45 M-17.7 34.8 L-17.35 35.2 -17.8 39.0 -18.45 42.5 Q-18.55 43.05 -19.0 43.4 L-24.45 47.8 -24.5 47.85 -25.7 65.8 -25.5 67.95 -28.05 65.8 -34.1 55.6 -34.55 55.45 -35.7 61.7 -35.85 62.6 -36.4 61.6 Q-39.1 56.25 -40.15 50.35 L-40.95 55.2 Q-42.3 52.4 -42.9 49.4 -44.3 43.15 -44.35 39.1 L-44.35 39.0 -44.65 24.9 Q-44.9 18.5 -44.65 13.3 -44.45 8.1 -45.25 2.6 -46.1 -2.9 -46.35 -9.9 -46.65 -16.9 -45.6 -25.15 -44.55 -33.4 -42.1 -41.15 -39.5 -49.7 -35.35 -57.5 -33.8 -60.45 -31.35 -62.1 L-27.4 -64.55 -23.05 -67.05 Q-20.75 -68.45 -18.2 -69.35 -10.5 -72.15 -2.7 -73.85 -1.85 -74.0 -1.1 -73.45 1.15 -71.55 1.7 -68.5 M24.75 60.0 L24.95 59.65 M-24.7 39.0 L-24.95 36.8 -25.45 34.0 M-24.7 39.0 Q-24.05 43.4 -24.5 47.8 L-24.5 47.85" fill="none" stroke="#000000" stroke-linecap="round" stroke-linejoin="round" stroke-width="2.0"/>
      <path d="M17.35 -57.1 Q11.85 -61.05 5.9 -64.5 5.5 -64.75 4.9 -64.5 L3.2 -63.5 M13.35 -41.9 Q11.6 -43.55 11.05 -46.25 9.9 -51.55 6.75 -55.65 4.9 -58.05 1.9 -58.9 M20.4 -58.9 Q17.05 -62.95 13.0 -65.95 10.3 -67.95 7.2 -68.6 M30.95 -52.5 L24.35 -59.85 M24.25 39.0 L24.05 35.9 22.95 23.0 21.75 10.65 20.55 -0.45 Q20.05 -4.55 18.9 -8.6 17.65 -12.75 17.35 -17.05 M28.35 -22.55 L28.85 -6.45 29.45 11.05 29.8 24.85 29.95 39.0 29.95 40.0 Q29.9 44.6 29.2 51.25 L28.35 57.5 M32.75 -17.05 Q33.05 -9.9 33.5 -2.75 L34.35 13.35 35.0 30.85 35.2 39.0 35.35 44.1 Q35.5 47.4 34.55 52.05 M41.45 39.0 L41.25 35.9 40.65 27.85 39.8 15.2 38.65 -1.85 Q38.25 -7.15 38.0 -12.5 37.65 -19.2 36.25 -25.8 M40.25 -32.2 Q42.25 -25.7 42.45 -18.9 L42.45 -14.75 M41.45 39.0 Q41.8 43.8 41.75 48.15 41.7 50.6 40.25 54.1 M24.25 39.0 Q24.5 43.55 24.05 48.05 23.55 52.25 21.3 58.5 M-5.6 -65.35 L-8.9 -67.95 Q-23.55 -64.35 -29.5 -57.55 -35.5 -50.8 -34.65 -49.65 M-2.1 -66.95 L-1.6 -65.8 M-2.2 -66.95 L-3.45 -69.95 M-9.6 -61.2 Q-14.4 -56.65 -17.75 -51.05 -21.1 -45.5 -27.1 -39.85 -33.15 -34.25 -36.85 -28.7 -40.55 -23.15 -41.1 -17.05 M-10.7 -64.0 L-18.7 -56.45 -28.85 -45.8 -33.5 -40.6 -41.95 -28.55 M-32.6 12.45 L-32.8 23.95 -33.1 39.0 -33.15 40.8 Q-33.2 45.65 -31.95 51.8 M-29.55 39.0 L-29.5 28.05 M-38.6 39.0 L-38.6 39.8 -38.05 49.8 M-29.55 39.0 L-29.55 42.15 Q-29.6 46.45 -28.9 52.85 L-27.8 61.65 M-38.6 39.0 L-38.7 25.8 -38.4 8.75 Q-38.3 1.15 -37.65 -6.45 M-41.95 -13.35 L-41.5 7.8 M11.2 -34.1 Q7.65 -47.5 -0.7 -57.1" fill="none" stroke="#442222" stroke-linecap="round" stroke-linejoin="round" stroke-width="1.5"/>
      <path d="M20.4 -49.25 Q17.6 -53.9 13.0 -56.55 11.6 -57.25 10.3 -58.0 M26.55 -28.55 L23.5 -38.65 M37.6 -37.75 Q35.75 -40.45 34.6 -43.7 34.2 -44.9 33.2 -45.55 M30.95 -26.7 Q29.05 -34.9 25.2 -42.3 L21.5 -49.1 20.9 -50.15 M33.2 -32.7 L28.75 -42.35 M36.25 -30.4 Q35.1 -38.9 30.6 -46.1 L28.35 -49.7 M9.4 -31.75 Q11.05 -29.35 11.7 -26.2 L12.05 -24.4 M19.1 -17.95 Q17.6 -24.95 15.0 -31.6 L11.6 -39.6 M23.05 -20.25 Q23.2 -27.85 20.9 -35.0 19.25 -40.35 16.5 -45.1 M20.4 -23.95 L16.9 -33.15 M39.35 -37.3 L34.1 -49.7 M-33.5 -40.6 L-40.2 -28.55 M-37.25 -47.85 Q-40.75 -40.3 -42.5 -32.05 L-43.25 -28.1 M-30.8 -34.5 L-35.5 -27.6 M-24.4 -56.15 Q-29.4 -51.4 -33.45 -45.65 L-35.1 -43.25 M-38.05 -40.05 L-41.5 -35.0" fill="none" stroke="#c68e8e" stroke-linecap="round" stroke-linejoin="round" stroke-width="1.5"/>
      <path d="M-36.65 -18.85 Q-36.8 -14.45 -37.55 -10.15 -37.8 -8.6 -36.75 -2.05 -35.75 4.45 -32.7 12.25 L-32.6 12.45 -27.4 25.45 Q-25.15 30.75 -23.55 32.85 -22.5 34.25 -20.05 34.65 L-17.7 34.8" fill="none" stroke="#000000" stroke-linecap="round" stroke-linejoin="round" stroke-width="2.0"/>
      <path d="M-21.8 -49.75 L-29.5 -40.55" fill="none" stroke="#c68e8e" stroke-linecap="round" stroke-linejoin="round" stroke-width="1.5"/>
    </g>
    </g>
  </g>
  <defs>
    <radialGradient cx="0" cy="0" gradientTransform="matrix(0.001, 0.109, -0.1736, 0.0018, -5.05, -54.5)" gradientUnits="userSpaceOnUse" id="gradient0" r="819.2" spreadMethod="pad">
      <stop offset="0.0" stop-color="#5c2e2e"/>
      <stop offset="0.23137254901960785" stop-color="#9c5050"/>
      <stop offset="0.3176470588235294" stop-color="#c18686"/>
      <stop offset="0.38823529411764707" stop-color="#a55454"/>
      <stop offset="1.0" stop-color="#5c2e2e"/>
    </radialGradient>
    <radialGradient cx="0" cy="0" gradientTransform="matrix(0.001, 0.0805, -0.1736, 0.0013, -5.05, -30.05)" gradientUnits="userSpaceOnUse" id="gradient1" r="819.2" spreadMethod="pad">
      <stop offset="0.0" stop-color="#5c2e2e"/>
      <stop offset="0.23137254901960785" stop-color="#9c5050"/>
      <stop offset="0.3176470588235294" stop-color="#c18686"/>
      <stop offset="0.38823529411764707" stop-color="#a55454"/>
      <stop offset="1.0" stop-color="#5c2e2e"/>
    </radialGradient>
    <radialGradient cx="0" cy="0" gradientTransform="matrix(0.0012, 0.1077, -0.166, 0.0012, -4.55, -26.9)" gradientUnits="userSpaceOnUse" id="gradient2" r="819.2" spreadMethod="pad">
      <stop offset="0.0" stop-color="#6c4948"/>
      <stop offset="0.1803921568627451" stop-color="#a06a63"/>
      <stop offset="0.23137254901960785" stop-color="#c49a95"/>
      <stop offset="0.3176470588235294" stop-color="#ecc6aa"/>
      <stop offset="0.49411764705882355" stop-color="#b1684e"/>
      <stop offset="0.8941176470588236" stop-color="#936045"/>
      <stop offset="1.0" stop-color="#654332"/>
    </radialGradient>
    <radialGradient cx="0" cy="0" gradientTransform="matrix(0.001, 0.109, -0.1787, 0.0018, -5.05, -54.5)" gradientUnits="userSpaceOnUse" id="gradient3" r="819.2" spreadMethod="pad">
      <stop offset="0.0" stop-color="#5c2e2e"/>
      <stop offset="0.23137254901960785" stop-color="#9c5050"/>
      <stop offset="0.3176470588235294" stop-color="#c18686"/>
      <stop offset="0.38823529411764707" stop-color="#a55454"/>
      <stop offset="1.0" stop-color="#5c2e2e"/>
    </radialGradient>
    <radialGradient cx="0" cy="0" gradientTransform="matrix(0.001, 0.0805, -0.1787, 0.0013, -5.05, -30.05)" gradientUnits="userSpaceOnUse" id="gradient4" r="819.2" spreadMethod="pad">
      <stop offset="0.0" stop-color="#5c2e2e"/>
      <stop offset="0.23137254901960785" stop-color="#9c5050"/>
      <stop offset="0.3176470588235294" stop-color="#c18686"/>
      <stop offset="0.38823529411764707" stop-color="#a55454"/>
      <stop offset="1.0" stop-color="#5c2e2e"/>
    </radialGradient>
  </defs>
</svg>