<svg xmlns:xlink="http://www.w3.org/1999/xlink" xmlns="http://www.w3.org/2000/svg" height="202.2px" width="161.9px">
  <g transform="matrix(1.0, 0.0, 0.0, 1.0, 74.15, 81.7)">
    <g data-characterId="1447" height="155.75" transform="matrix(1.0, 0.0, 0.0, 1.0, -60.05, -74.75)" width="117.8" xlink:href="#shape0"><g id="shape0" transform="matrix(1.0, 0.0, 0.0, 1.0, 60.05, 74.75)">
      <path d="M-2.5 -71.5 Q-3.15 -71.5 -1.45 -71.25 1.5 -70.85 4.05 -71.85 L4.95 -72.15 10.55 -73.75 12.55 -74.2 13.45 -73.95 Q15.35 -72.6 17.45 -71.8 L19.05 -71.05 25.4 -67.35 26.6 -66.65 27.9 -65.8 31.05 -63.55 Q33.8 -61.35 35.85 -57.9 L38.0 -54.0 42.6 -44.55 43.25 -42.9 43.65 -41.0 44.0 -39.5 Q44.9 -37.0 44.7 -34.0 44.5 -31.5 44.45 -29.0 L44.2 -25.45 44.0 -22.5 Q43.9 -13.15 44.8 -4.0 L45.15 -0.5 Q45.95 8.9 48.2 17.95 L49.4 22.55 54.8 41.05 56.45 46.0 Q57.4 48.6 57.2 51.5 L57.05 54.5 57.0 56.5 M36.0 -32.0 Q36.3 -33.3 35.35 -34.3 33.75 -36.0 32.6 -38.05 L31.0 -41.0 M36.5 -8.5 Q31.05 -12.75 27.9 -18.95 L26.0 -23.0 Q27.75 -19.95 31.95 -19.65 L36.0 -19.15 Q37.8 -18.8 39.0 -20.0 37.2 -20.2 35.5 -22.0 31.2 -26.75 28.5 -32.5 32.05 -30.0 36.0 -31.5 M25.5 48.0 Q24.25 52.25 21.45 55.45 15.8 62.0 7.5 64.5 7.85 63.1 9.0 62.0 10.15 60.85 10.8 59.4 12.5 55.9 13.7 52.05 L14.1 49.95 14.65 43.0 Q15.0 33.35 13.65 24.0 L13.3 21.55 Q11.55 12.15 9.45 3.0 L9.1 1.5 8.65 -0.4 7.35 -3.75 6.0 -6.0 M-13.5 -58.0 Q-13.65 -58.6 -14.3 -56.45 -15.65 -51.65 -15.45 -46.5 -15.2 -40.25 -11.5 -35.5 -12.0 -40.3 -10.5 -44.5 L-10.0 -46.0 Q-9.85 -41.55 -7.55 -37.45 L-2.55 -28.45 Q3.15 -17.95 13.5 -13.0 13.1 -14.9 12.2 -16.6 L11.9 -17.5 Q11.75 -18.25 11.75 -19.0 14.35 -14.2 19.95 -11.85 L23.95 -9.95 Q29.6 -6.95 36.0 -7.5 M7.35 -3.75 L6.65 -5.55 Q4.25 -12.15 3.0 -19.0 M-3.0 -71.5 Q-3.25 -70.95 -5.15 -72.3 L-6.5 -73.05 -7.75 -73.75 -8.45 -74.1 -9.5 -74.25 -10.5 -74.25 Q-15.25 -74.25 -19.0 -72.05 L-20.0 -71.55 Q-28.1 -68.0 -34.45 -59.95 L-39.85 -52.9 -41.1 -51.05 Q-43.7 -46.8 -44.15 -42.0 L-44.45 -40.5 Q-45.3 -37.35 -45.25 -34.0 L-45.45 -31.0 Q-46.65 -21.4 -48.7 -12.05 -50.2 -5.15 -54.1 0.9 L-55.75 3.35 Q-56.0 3.75 -56.5 4.0 -56.65 4.35 -55.0 3.5 -50.9 1.45 -48.75 -2.35 L-48.0 -3.0 Q-48.1 2.4 -50.25 7.4 -50.75 8.5 -51.55 9.45 -52.45 10.6 -52.5 11.9 L-51.95 11.6 Q-45.0 8.1 -43.5 1.5 M-9.0 -63.0 Q-10.8 -62.8 -9.55 -64.5 -9.0 -65.25 -8.3 -65.65 -7.25 -66.25 -6.0 -66.45 -3.85 -66.75 -4.5 -69.5 M-13.0 -59.0 Q-13.65 -59.95 -15.05 -58.05 L-15.5 -57.5 Q-19.25 -53.95 -21.7 -49.1 L-22.95 -46.95 Q-25.75 -42.65 -27.8 -37.9 -29.25 -34.55 -29.5 -31.0 -30.4 -31.6 -30.2 -33.5 L-29.8 -38.5 -29.4 -40.95 -29.05 -42.0 -29.0 -42.5 Q-31.75 -39.55 -33.7 -35.6 L-36.1 -31.05 Q-36.95 -29.45 -36.8 -27.5 L-36.65 -26.45 Q-36.4 -25.15 -36.8 -24.4 L-37.1 -23.5 -37.5 -20.5 Q-37.6 -18.35 -37.3 -16.45 L-37.35 -15.45 Q-38.15 -10.65 -37.8 -5.5 L-37.55 -3.0 Q-37.05 0.3 -35.9 3.45 -33.9 8.8 -32.4 14.45 L-32.05 15.5 Q-29.55 21.35 -27.3 27.45 L-26.65 29.05 Q-25.65 31.55 -23.85 33.35 -21.6 35.55 -18.5 36.1 L-17.0 32.0 M-43.0 2.0 Q-42.9 11.8 -46.75 20.4 L-49.2 25.4 Q-53.8 33.75 -57.0 43.0 -58.9 48.55 -59.2 54.5 L-59.4 56.5 Q-59.95 60.4 -58.5 63.5 -57.65 58.5 -55.15 53.95 -54.15 52.2 -53.5 50.5 -52.45 51.3 -53.1 53.15 -53.5 54.25 -53.35 55.5 -52.6 61.8 -49.5 67.5 -47.55 71.15 -45.05 74.05 -44.0 75.35 -42.6 76.15 L-41.5 77.0 Q-43.95 73.75 -44.75 68.45 L-45.0 65.0 Q-45.0 59.65 -44.0 54.5 -43.7 60.75 -39.6 65.1 L-36.85 67.85 Q-32.45 72.15 -27.0 75.0 -33.2 64.65 -32.5 52.5 L-32.1 53.05 Q-29.3 58.95 -24.65 63.65 -22.4 65.85 -19.6 67.2 L-17.5 67.5 Q-21.5 62.45 -22.65 56.05 L-23.25 52.45 -23.6 49.0 Q-23.8 44.15 -22.5 39.5 M-18.5 36.1 L-17.0 36.4 -15.5 36.5 M-18.5 36.1 L-20.8 43.05 Q-21.95 46.8 -22.0 51.0 -22.0 53.25 -22.25 55.5 -22.45 57.45 -21.5 58.0 M-52.5 11.9 L-52.5 12.0 Q-53.05 12.2 -52.5 11.9 M57.05 54.5 L55.9 63.0 55.3 64.9 Q53.5 68.7 50.5 71.0 51.0 63.85 49.0 57.5 46.75 68.2 37.9 75.4 L32.0 80.5 Q33.15 78.75 33.4 76.0 33.5 74.75 33.85 73.6 35.5 68.05 33.5 63.0 33.2 65.15 31.85 66.9 25.9 74.45 17.5 78.5 18.15 76.65 19.45 75.0 L20.95 72.95 Q22.95 69.95 24.0 66.5 26.65 57.6 26.05 48.0 L25.8 46.55 Q24.4 40.95 23.35 35.05 22.7 31.45 21.4 28.05 18.15 19.5 14.05 11.45 11.1 5.65 8.65 -0.4" fill="none" stroke="#000000" stroke-linecap="round" stroke-linejoin="round" stroke-width="2.0"/>
    </g>
  </g>
  </g>
  <defs>
    </defs>
</svg>