<svg xmlns:xlink="http://www.w3.org/1999/xlink" xmlns="http://www.w3.org/2000/svg" height="202.2px" width="161.9px">
  <g transform="matrix(1.0, 0.0, 0.0, 1.0, 74.15, 81.7)">
    <g data-characterId="1437" height="178.75" transform="matrix(1.0, 0.0, 0.0, 1.0, -62.1, -75.0)" width="137.4" xlink:href="#shape0"><g id="shape0" transform="matrix(1.0, 0.0, 0.0, 1.0, 62.1, 75.0)">
      <path d="M-34.5 -31.5 Q-34.4 -24.4 -35.35 -17.4 -36.65 -7.45 -33.5 2.0 -29.2 14.85 -22.8 27.15 -19.65 33.15 -17.0 39.5 -13.0 48.95 -7.5 57.0 L-22.5 41.5 -22.6 46.0 Q-23.15 62.1 -14.95 75.4 -32.15 67.15 -39.95 48.15 -39.5 49.3 -39.35 50.55 -37.2 68.15 -28.5 80.5 L-32.5 77.0 Q-51.45 70.65 -53.5 50.0 L-57.0 66.5 Q-64.3 48.5 -60.0 28.9 -57.55 17.85 -51.45 8.15 -40.9 -8.5 -40.5 -27.65 L-41.5 -27.0 -45.0 -17.5 -45.0 -27.0 Q-49.95 -22.0 -50.0 -12.5 -54.55 -23.85 -48.5 -37.0 -47.0 -37.9 -46.0 -39.5 -52.9 -34.9 -55.5 -27.0 -60.1 -49.8 -39.0 -59.5 -47.0 -58.5 -53.0 -52.5 -50.95 -60.35 -44.5 -65.5 -28.9 -73.05 -11.5 -73.85 -10.1 -73.9 -9.0 -74.5 -3.75 -73.6 0.0 -71.05 L2.0 -69.5 20.5 -62.0 Q38.25 -50.9 40.5 -29.5 40.0 -27.75 40.0 -27.0 39.65 -25.65 40.15 -25.15 M-12.0 -48.0 Q-13.0 -45.4 -12.1 -42.95 0.05 -36.95 7.5 -27.0 L11.5 -9.0 15.5 -4.5 15.5 -14.0 Q20.05 6.8 26.9 27.2 28.95 33.35 33.5 38.0 L35.9 39.2 34.0 25.5 Q38.05 37.0 47.5 40.5 M72.5 32.0 Q64.4 14.95 53.85 -1.55 45.7 -14.35 44.0 -29.5 M-13.0 -46.5 L-13.0 -44.5 Q-14.95 -43.5 -15.9 -41.95 -19.2 -41.05 -22.0 -39.0 L-27.5 -39.0 Q-35.0 -35.05 -40.0 -28.0 L-40.5 -27.65 -40.5 -28.5 M24.0 22.0 Q26.3 41.0 14.35 57.75 4.25 71.9 5.0 89.0 L12.5 76.0 Q14.55 93.95 30.45 102.1 24.7 97.55 27.7 86.9 L28.5 83.0 Q35.95 95.65 51.25 103.25 40.65 81.5 48.7 58.55 50.45 53.55 53.5 49.5 58.1 62.3 55.6 75.5 66.35 63.85 66.0 46.5 69.85 53.9 67.95 64.6 67.75 65.75 68.0 67.0 L70.5 66.5 Q76.8 54.0 73.9 39.6 73.2 36.15 73.0 32.5 L71.5 32.5" fill="none" stroke="#000000" stroke-linecap="round" stroke-linejoin="round" stroke-width="2.0"/>
    </g>
  </g>
  </g>
  <defs>
    </defs>
</svg>