<svg xmlns:xlink="http://www.w3.org/1999/xlink" xmlns="http://www.w3.org/2000/svg" height="16.65px" width="27.9px">
  <g transform="matrix(1.0, 0.0, 0.0, 1.0, 11.2, 8.0)">
    <g data-characterId="1301" height="7.75" transform="matrix(1.0, 0.0, 0.0, 1.0, -10.0, -2.35)" width="18.7" xlink:href="#shape0"><g id="shape0" transform="matrix(1.0, 0.0, 0.0, 1.0, 10.0, 2.35)">
      <path d="M-9.6 0.75 L-9.8 0.7 -9.9 0.6 -9.95 0.35 -9.95 0.25 Q-8.9 -1.35 -7.1 -1.9 -6.35 -2.15 -5.5 -1.9 L-5.4 -1.8 -4.9 -1.35 -4.6 -1.15 Q-3.65 -1.35 -2.8 -1.85 L-1.35 -2.35 Q5.95 0.15 6.25 1.1 6.55 2.05 6.3 2.1 L5.8 1.8 5.1 1.3 4.8 1.15 3.5 0.5 1.55 0.2 1.45 0.25 0.05 -0.35 Q-1.15 0.15 -2.4 0.35 L-6.25 -0.2 -7.05 0.15 -7.55 0.4 -7.75 0.35 -8.3 -0.15 -8.6 0.15 Q-9.25 0.2 -9.6 0.75" fill="#d18a70" fill-rule="evenodd" stroke="none"/>
      <path d="M-9.6 0.75 Q-9.25 0.2 -8.6 0.15 L-8.25 0.1 -8.1 0.2 -7.9 0.35 -7.8 0.5 -7.55 0.4 -7.05 0.15 -6.25 -0.2 -2.4 0.35 1.45 0.25 1.55 0.2 3.5 0.5 4.8 1.15 5.1 1.3 5.8 1.8 6.3 2.1 7.1 2.7 5.2 3.05 1.3 3.2 Q-1.35 3.4 -3.5 4.2 L-7.2 4.3 Q-8.75 3.6 -9.25 2.3 L-9.6 0.75 M-2.8 2.75 L-2.75 2.55 -2.7 2.35 -2.7 2.1 Q-2.8 1.9 -3.0 1.9 L-7.25 1.35 -7.25 1.4 -7.65 1.55 -7.75 1.65 -7.85 1.8 -7.9 2.1 Q-5.65 4.0 -2.8 2.75" fill="#dda991" fill-rule="evenodd" stroke="none"/>
      <path d="M-2.8 2.75 Q-5.65 4.0 -7.9 2.1 L-7.85 1.8 -7.75 1.65 -7.65 1.55 -7.25 1.4 -7.25 1.35 -3.0 1.9 Q-2.8 1.9 -2.7 2.1 L-2.7 2.35 -2.75 2.55 -2.8 2.75" fill="#e8c2b5" fill-rule="evenodd" stroke="none"/>
      <path d="M-9.5 0.75 L-8.85 0.5 -8.7 0.45 Q-6.7 -0.3 -4.7 0.4 L-3.6 0.4 1.25 0.2 3.0 0.6 Q6.8 1.9 8.2 3.2" fill="none" stroke="#000000" stroke-linecap="round" stroke-linejoin="round" stroke-width="2.0"/>
      <path d="M-5.9 4.9 L-3.9 4.8 -3.4 4.7 -2.75 4.35 -2.25 4.0" fill="none" stroke="#aa7948" stroke-linecap="round" stroke-linejoin="round" stroke-width="2.0"/>
    </g>
  </g>
  </g>
  <defs>
    </defs>
</svg>