<svg xmlns:xlink="http://www.w3.org/1999/xlink" xmlns="http://www.w3.org/2000/svg" height="202.2px" width="161.9px">
  <g transform="matrix(1.0, 0.0, 0.0, 1.0, 74.15, 81.7)">
    <g data-characterId="1424" height="155.0" transform="matrix(1.0, 0.0, 0.0, 1.0, -53.0, -71.5)" width="99.0" xlink:href="#shape0"><g id="shape0" transform="matrix(1.0, 0.0, 0.0, 1.0, 53.0, 71.5)">
      <path d="M3.5 -68.5 L9.5 -69.25 10.0 -69.3 14.5 -69.6 Q17.1 -69.7 18.7 -68.25 L19.45 -67.85 19.95 -67.45 Q21.0 -66.0 22.35 -65.2 L23.1 -64.6 Q24.5 -63.2 26.45 -61.95 L26.95 -61.45 Q28.8 -59.15 30.35 -57.85 L31.05 -57.0 Q31.85 -55.6 32.95 -54.45 36.2 -50.95 37.8 -47.4 L38.65 -45.6 40.35 -42.4 Q42.75 -38.55 43.7 -34.05 44.8 -29.05 45.4 -24.0 46.6 -14.15 44.95 -4.5 44.1 0.7 43.4 6.0 L43.05 8.0 Q42.2 12.1 42.25 16.5 L42.25 18.0 41.8 37.0 Q41.7 43.0 42.45 48.5 L42.55 49.5 Q42.75 51.45 43.8 53.15 L44.15 53.95 45.4 58.55 45.65 59.45 45.8 60.05 Q46.25 61.85 45.7 63.55 45.5 64.25 45.45 65.0 45.3 68.25 43.8 71.15 43.25 72.25 42.85 73.45 L42.5 74.0 Q42.0 74.7 41.55 73.0 L38.7 61.45 Q38.0 58.35 36.5 55.5 35.7 54.9 36.15 56.95 36.8 59.9 36.4 63.0 L36.05 65.5 Q35.25 71.25 32.6 76.55 L31.55 79.0 Q30.95 80.6 30.0 81.5 29.15 78.5 29.25 75.0 L29.25 73.5 Q29.05 68.7 28.5 64.0 L27.65 60.45 26.95 58.0 26.5 56.5 Q27.2 65.75 21.9 73.45 L20.05 76.05 14.8 82.85 13.95 83.4 13.0 83.5 Q16.95 77.45 16.2 70.0 L16.0 66.0 15.75 54.5 15.5 53.5 Q14.6 59.45 11.2 64.65 9.5 67.25 7.95 69.95 4.85 75.25 -0.95 77.6 -3.7 78.7 -6.0 80.0 -2.4 76.25 -0.3 72.6 0.7 70.9 0.9 69.05 L1.35 67.45 Q4.25 60.1 6.0 53.0 L6.85 48.95 7.2 47.05 5.65 48.15 Q3.25 50.6 0.45 52.4 -1.65 53.75 -4.0 54.0 -4.75 54.25 -3.65 53.35 -0.15 50.5 2.3 46.9 L4.0 45.0 Q5.2 43.8 5.7 42.05 6.25 40.25 7.1 38.55 8.15 36.4 8.85 33.95 L9.15 33.05 Q10.3 28.75 12.25 25.65 L12.9 24.9 13.55 24.05 15.9 20.9 16.45 20.0 17.0 18.5 M-8.5 -53.0 Q-10.25 -49.2 -9.2 -44.95 L-9.0 -43.5 Q-8.95 -40.7 -7.1 -38.4 L-6.55 -37.5 -3.4 -29.55 Q-2.55 -27.25 -0.4 -25.6 0.45 -24.95 0.5 -24.0 1.05 -24.9 0.05 -27.05 -0.75 -28.65 -0.75 -30.5 -0.75 -31.75 -0.9 -33.0 L-1.5 -37.5 Q0.65 -35.15 1.1 -32.0 L2.2 -25.05 2.95 -20.5 Q3.25 -18.9 4.25 -17.35 L5.6 -15.05 7.95 -10.45 Q8.65 -9.15 10.0 -8.5 10.55 -9.2 9.75 -11.1 7.2 -16.8 6.7 -23.0 L6.5 -27.5 6.5 -31.5 Q7.55 -24.3 9.15 -17.05 9.55 -15.15 10.35 -13.45 L11.55 -10.5 Q12.6 -7.7 14.3 -5.35 L15.1 -4.05 15.85 -2.45 17.0 0.0 17.5 1.0 Q17.25 -3.1 15.9 -7.15 15.5 -8.25 15.6 -9.5 15.8 -12.95 14.85 -16.1 14.5 -17.25 14.4 -18.5 14.15 -22.05 13.5 -25.5 L14.4 -23.45 15.1 -21.55 Q18.0 -13.05 21.25 -4.6 L22.2 -1.9 23.1 1.5 Q24.4 8.2 24.85 15.0 L25.2 20.0 25.3 21.0 26.05 28.5 Q26.35 33.2 25.3 37.55 25.0 38.75 25.0 40.0 L25.0 40.5 M17.0 0.0 Q16.75 2.2 17.6 3.95 L17.8 4.55 18.0 6.0 Q18.0 16.05 13.0 24.0 M7.2 47.05 L7.4 46.45 Q7.85 45.7 7.2 47.05 M2.0 -69.0 Q0.35 -69.45 -1.6 -70.85 -2.8 -71.7 -4.5 -71.4 -9.0 -70.65 -13.4 -68.3 -15.25 -67.3 -17.05 -66.65 L-17.95 -66.35 -22.0 -64.55 Q-25.95 -62.55 -28.95 -60.4 L-30.05 -59.6 Q-33.35 -57.25 -36.1 -53.6 L-37.6 -52.1 Q-39.0 -51.05 -39.35 -49.6 L-39.85 -48.4 Q-44.45 -40.25 -46.95 -31.5 -47.6 -29.35 -47.7 -27.0 L-47.9 -25.5 Q-49.05 -20.15 -50.35 -14.95 L-50.7 -13.55 Q-51.65 -9.95 -53.0 -6.5 -52.25 -6.05 -50.6 -7.6 L-46.5 -11.5 Q-46.25 -1.55 -49.65 7.95 -50.55 10.5 -51.0 13.0 L-47.95 10.55 -44.5 7.0 Q-43.4 13.95 -44.3 21.05 L-44.65 24.5 -45.1 27.5 Q-47.05 35.9 -50.2 43.9 -51.8 48.0 -52.8 52.05 L-53.0 53.5 -53.0 54.0 -51.95 53.05 Q-49.95 51.65 -47.5 51.75 L-45.55 51.4 Q-39.75 49.2 -33.0 49.45 -28.75 49.65 -24.9 47.7 L-23.1 46.8 -20.25 45.45 Q-19.75 45.25 -19.7 44.5 L-19.3 38.5 -19.15 37.45 -18.85 36.05 -18.5 35.0 Q-20.65 35.15 -21.7 34.25 L-22.25 33.75 -22.65 33.05 Q-22.75 32.75 -23.0 32.5 -24.35 31.25 -24.7 29.05 L-25.0 28.5 Q-26.1 27.3 -26.65 25.55 L-27.85 21.45 -28.15 20.55 -28.4 19.95 Q-30.75 15.9 -32.05 11.5 L-33.8 6.4 -34.65 4.05 -36.35 -0.55 -36.5 -1.5 Q-36.55 -3.85 -37.1 -5.95 -38.45 -11.1 -36.2 -15.6 L-36.0 -16.5 -36.2 -20.5 -36.4 -21.55 -37.5 -25.5 M-8.5 -53.5 Q-11.2 -54.8 -13.15 -52.65 L-13.95 -51.95 Q-16.15 -50.35 -17.95 -47.45 -21.75 -41.15 -26.4 -35.4 L-27.0 -34.5 Q-26.6 -38.25 -24.2 -41.2 -23.75 -41.75 -23.65 -42.5 -23.5 -43.65 -22.85 -44.7 -22.5 -45.25 -22.3 -45.95 -21.5 -48.85 -20.5 -51.0 -23.2 -48.5 -26.2 -44.65 L-28.85 -40.9 -29.6 -39.55 Q-31.95 -34.5 -34.3 -30.4 -37.2 -25.3 -42.0 -23.0 M-53.0 54.0 L-53.0 54.5" fill="none" stroke="#000000" stroke-linecap="round" stroke-linejoin="round" stroke-width="1.5"/>
    </g>
  </g>
  </g>
  <defs>
    </defs>
</svg>