<svg xmlns:xlink="http://www.w3.org/1999/xlink" xmlns="http://www.w3.org/2000/svg" height="202.2px" width="161.9px">
  <g transform="matrix(1.0, 0.0, 0.0, 1.0, 74.15, 81.7)">
    <g data-characterId="1458" height="130.1" transform="matrix(1.0, 0.0, 0.0, 1.0, -57.75, -76.2)" width="117.4" xlink:href="#shape0"><g id="shape0" transform="matrix(1.0, 0.0, 0.0, 1.0, 57.75, 76.2)">
      <path d="M-47.3 -6.9 L-47.6 -11.0 Q-47.95 -18.65 -45.9 -26.1 L-44.55 -30.2 -42.25 -35.85 -39.8 -41.45 -42.35 -37.2 -46.9 -30.0 -50.3 -24.2 -52.95 -19.1 -52.95 -21.45 Q-52.75 -24.85 -52.15 -28.15 -51.45 -31.95 -50.25 -35.6 -48.65 -40.65 -46.05 -45.05 -43.65 -49.15 -40.85 -53.05 -38.55 -56.25 -35.65 -58.85 -32.2 -62.0 -28.0 -64.85 -24.5 -67.15 -20.65 -68.85 L-14.25 -71.65 -9.2 -73.65 -4.55 -75.7 -2.05 -75.1 -1.2 -74.75 7.4 -70.4 13.35 -67.2 19.5 -63.65 20.5 -62.8 20.95 -62.4 20.5 -62.8 20.95 -63.4 26.2 -62.7 26.8 -62.2 29.35 -58.3 33.75 -51.0 Q36.2 -47.15 37.8 -43.25 L39.95 -37.4 42.8 -28.9 Q44.2 -24.8 45.0 -20.6 45.9 -15.8 46.2 -11.05 L46.6 -5.55 46.95 0.05 47.25 5.55 47.55 11.05 47.9 16.55 48.4 22.1 49.35 30.0 Q49.8 33.4 50.9 36.8 L53.35 43.45 Q54.65 46.6 56.55 49.5 L59.15 53.4 Q50.35 51.75 44.8 44.85 L42.55 41.9 Q45.1 48.45 50.65 53.0 50.0 53.25 49.4 53.0 47.95 53.05 46.65 52.5 42.55 50.55 39.5 47.3 L37.8 45.2 36.35 42.8 Q36.6 46.55 38.75 49.65 L37.8 50.7 33.65 46.45 32.6 44.9 31.3 41.65 Q30.85 44.4 32.1 46.8 33.05 48.65 34.55 50.45 L34.05 50.8 Q30.45 49.05 28.55 45.55 L27.65 43.8 27.4 43.05 27.0 43.15 25.85 34.95 25.15 27.95 24.5 18.45 24.2 13.6 24.6 13.3 24.4 13.0 Q22.6 9.85 21.4 6.2 L19.95 1.05 Q18.9 -3.75 18.2 -8.65 17.55 -13.2 17.35 -17.75 17.1 -22.35 17.15 -26.95 17.15 -31.4 17.75 -36.1 L14.05 -23.25 13.2 -28.05 Q12.7 -31.45 12.5 -34.9 12.35 -36.85 12.65 -38.75 L13.85 -45.55 10.9 -38.65 8.6 -32.15 6.0 -23.7 Q4.9 -27.95 4.75 -32.35 L4.35 -41.2 4.2 -47.5 1.75 -39.5 -1.0 -31.3 -3.3 -24.9 -4.25 -25.35 -3.65 -31.5 -3.35 -38.5 -3.4 -46.95 Q-3.45 -47.85 -3.9 -48.8 L-6.9 -40.3 -8.3 -36.7 Q-10.3 -32.4 -12.9 -28.45 L-15.45 -24.6 -19.55 -18.95 -22.8 -15.4 -29.5 -9.25 -29.75 -9.35 -26.35 -18.3 Q-24.7 -22.4 -23.3 -26.6 L-21.8 -31.6 -19.15 -40.65 -36.4 -3.65 -37.25 -3.6 -37.6 -7.95 Q-37.7 -10.15 -37.4 -12.3 -37.7 -10.15 -37.6 -7.95 L-37.25 -3.6 -37.05 -1.6 -36.4 -3.65 Q-36.15 0.7 -34.45 5.0 L-31.05 13.4 -24.7 28.55 Q-23.65 31.1 -21.8 33.2 -20.2 35.0 -17.75 34.7 L-18.5 44.75 -20.8 46.6 -19.85 43.0 -19.8 40.7 Q-21.0 42.85 -22.85 44.55 -24.6 46.25 -26.9 47.4 -29.05 48.55 -31.3 49.0 L-29.55 46.25 Q-28.1 43.8 -27.55 41.15 L-28.05 41.5 -29.9 42.95 -34.35 45.85 -36.25 46.7 -42.4 48.6 -46.8 49.5 -50.85 49.7 -45.0 42.85 -43.95 41.15 -41.65 36.1 Q-44.25 39.1 -47.85 40.75 -51.6 42.55 -55.75 43.85 L-56.15 43.4 Q-53.7 41.25 -52.15 38.6 L-49.55 33.7 Q-47.65 30.05 -46.15 26.2 -44.55 22.05 -43.75 17.7 -42.95 13.2 -42.5 8.55 L-41.95 0.45 -41.4 -7.1 Q-41.0 -11.7 -41.8 -16.2 L-46.55 -6.75 -47.3 -6.9 M-33.15 -35.05 L-41.8 -16.2 -33.15 -35.05 -32.05 -34.55 -30.35 -41.2 -33.15 -35.05 M-36.05 -19.85 L-36.05 -19.9 -33.6 -29.5 -32.05 -34.55 -33.6 -29.5 -36.05 -19.9 -36.05 -19.85 -37.4 -12.3 -36.25 -12.3 -36.05 -19.85 M-18.15 -44.2 L-19.15 -40.65 -18.15 -44.2 M17.9 -36.6 L17.75 -36.1 17.9 -36.6 M5.05 -50.2 L4.2 -47.5 5.05 -50.2 M25.2 14.2 L24.6 13.3 25.2 14.2 27.6 17.05 26.4 13.2 25.2 14.2 M25.25 -10.35 L25.15 -1.4 Q25.15 2.25 25.5 5.95 L26.4 13.2 25.5 5.95 Q25.15 2.25 25.15 -1.4 L25.25 -10.35 25.95 -10.5 25.55 -12.45 25.25 -10.35 M35.25 13.7 Q33.15 11.25 31.8 8.4 L28.75 1.1 Q28.0 -0.75 27.5 -2.65 26.4 -6.5 25.95 -10.5 26.4 -6.5 27.5 -2.65 28.0 -0.75 28.75 1.1 L31.8 8.4 Q33.15 11.25 35.25 13.7 L35.35 13.75 35.35 13.6 35.25 13.7 M33.6 0.9 L33.7 5.7 Q34.0 9.8 35.35 13.6 34.0 9.8 33.7 5.7 L33.6 0.9 M32.55 -18.2 L33.0 -21.4 Q33.05 -22.4 32.45 -23.1 L29.85 -25.75 29.6 -20.85 29.1 -16.05 Q28.4 -10.75 29.45 -5.55 L31.05 -12.0 32.55 -18.2" fill="url(#gradient0)" fill-rule="evenodd" stroke="none"/>
      <path d="M20.5 -62.8 L19.5 -63.65 13.35 -67.2 7.4 -70.4 -1.2 -74.75 -2.05 -75.1 -4.55 -75.7 -9.2 -73.65 -14.25 -71.65 -20.65 -68.85 Q-24.5 -67.15 -28.0 -64.85 -32.2 -62.0 -35.65 -58.85 -38.55 -56.25 -40.85 -53.05 -43.65 -49.15 -46.05 -45.05 -48.65 -40.65 -50.25 -35.6 -51.45 -31.95 -52.15 -28.15 -52.75 -24.85 -52.95 -21.45 L-52.95 -19.1 -50.3 -24.2 -46.9 -30.0 -42.35 -37.2 -39.8 -41.45 -42.25 -35.85 -44.55 -30.2 -45.9 -26.1 Q-47.95 -18.65 -47.6 -11.0 L-47.3 -6.9 -47.15 -3.8 -46.55 -6.75 -41.8 -16.2 -33.15 -35.05 -30.35 -41.2 -32.05 -34.55 -33.6 -29.5 -36.05 -19.9 -36.05 -19.85 -37.4 -12.3 Q-37.7 -10.15 -37.6 -7.95 L-37.25 -3.6 -37.05 -1.6 -36.4 -3.65 -19.15 -40.65 -18.15 -44.2 M20.5 -62.8 L20.95 -62.4 M38.75 49.65 Q36.6 46.55 36.35 42.8 L37.8 45.2 39.5 47.3 Q42.55 50.55 46.65 52.5 47.95 53.05 49.4 53.0 50.0 53.25 50.65 53.0 45.1 48.45 42.55 41.9 L44.8 44.85 Q50.35 51.75 59.15 53.4 L56.55 49.5 Q54.65 46.6 53.35 43.45 L50.9 36.8 Q49.8 33.4 49.35 30.0 L48.4 22.1 47.9 16.55 47.55 11.05 47.25 5.55 46.95 0.05 46.6 -5.55 46.2 -11.05 Q45.9 -15.8 45.0 -20.6 44.2 -24.8 42.8 -28.9 L39.95 -37.4 37.8 -43.25 Q36.2 -47.15 33.75 -51.0 L29.35 -58.3 26.8 -62.2 26.2 -62.7 20.95 -63.4 19.5 -63.65 M4.2 -47.5 L4.35 -41.2 4.75 -32.35 Q4.9 -27.95 6.0 -23.7 L8.6 -32.15 10.9 -38.65 13.85 -45.55 12.65 -38.75 Q12.35 -36.85 12.5 -34.9 12.7 -31.45 13.2 -28.05 L14.05 -23.25 17.75 -36.1 17.9 -36.6 M-3.3 -24.9 L-1.0 -31.3 1.75 -39.5 4.2 -47.5 5.05 -50.2 M17.75 -36.1 Q17.15 -31.4 17.15 -26.95 17.1 -22.35 17.35 -17.75 17.55 -13.2 18.2 -8.65 18.9 -3.75 19.95 1.05 L21.4 6.2 Q22.6 9.85 24.4 13.0 L24.6 13.3 25.2 14.2 27.6 17.05 26.4 13.2 25.5 5.95 Q25.15 2.25 25.15 -1.4 L25.25 -10.35 25.55 -12.45 25.95 -10.5 Q26.4 -6.5 27.5 -2.65 28.0 -0.75 28.75 1.1 L31.8 8.4 Q33.15 11.25 35.25 13.7 L35.35 13.75 35.35 13.6 Q34.0 9.8 33.7 5.7 L33.6 0.9 M32.55 -18.2 L31.05 -12.0 29.45 -5.55 Q28.4 -10.75 29.1 -16.05 L29.6 -20.85 29.85 -25.75 32.45 -23.1 Q33.05 -22.4 33.0 -21.4 L32.55 -18.2 M24.2 13.6 L24.5 18.45 25.15 27.95 25.85 34.95 27.0 43.15 27.25 43.95 Q27.65 44.55 27.65 43.8 L28.55 45.55 Q30.45 49.05 34.05 50.8 L34.95 51.0 34.55 50.45 Q33.05 48.65 32.1 46.8 30.85 44.4 31.3 41.65 L32.6 44.9 33.65 46.45 37.8 50.7 41.4 52.7 38.75 49.65 M27.4 43.05 L27.65 43.8 M24.4 13.0 L24.2 13.6 M-41.8 -16.2 Q-41.0 -11.7 -41.4 -7.1 L-41.95 0.45 -42.5 8.55 Q-42.95 13.2 -43.75 17.7 -44.55 22.05 -46.15 26.2 -47.65 30.05 -49.55 33.7 L-52.15 38.6 Q-53.7 41.25 -56.15 43.4 L-57.25 44.4 -55.75 43.85 Q-51.6 42.55 -47.85 40.75 -44.25 39.1 -41.65 36.1 L-43.95 41.15 -45.0 42.85 -50.85 49.7 -46.8 49.5 -42.4 48.6 -36.25 46.7 -34.35 45.85 -29.9 42.95 -28.05 41.5 -27.55 41.15 Q-28.1 43.8 -29.55 46.25 L-31.3 49.0 Q-29.05 48.55 -26.9 47.4 -24.6 46.25 -22.85 44.55 -21.0 42.85 -19.8 40.7 L-19.85 43.0 -20.8 46.6 -18.5 44.75 -17.75 34.7 M-29.5 -9.25 L-22.8 -15.4 -19.55 -18.95 -15.45 -24.6 -12.9 -28.45 Q-10.3 -32.4 -8.3 -36.7 L-6.9 -40.3 -3.9 -48.8 Q-3.45 -47.85 -3.4 -46.95 L-3.35 -38.5 -3.65 -31.5 -4.25 -25.35 -4.4 -22.8 -3.3 -24.9 M-19.15 -40.65 L-21.8 -31.6 -23.3 -26.6 Q-24.7 -22.4 -26.35 -18.3 L-29.75 -9.35 -29.8 -9.15 -29.8 -9.0 -29.5 -9.25" fill="none" stroke="#000000" stroke-linecap="round" stroke-linejoin="round" stroke-width="2.0"/>
      <path d="M-36.4 -3.65 Q-36.15 0.7 -34.45 5.0 L-31.05 13.4 -24.7 28.55 Q-23.65 31.1 -21.8 33.2 -20.2 35.0 -17.75 34.7" fill="none" stroke="#000000" stroke-linecap="round" stroke-linejoin="round" stroke-width="2.0"/>
    </g>
    </g>
  </g>
  <defs>
    <radialGradient cx="0" cy="0" gradientTransform="matrix(0.0481, 0.1394, -0.165, 0.0569, -7.5, -60.5)" gradientUnits="userSpaceOnUse" id="gradient0" r="819.2" spreadMethod="pad">
      <stop offset="0.0" stop-color="#eeedbb"/>
      <stop offset="0.17254901960784313" stop-color="#ffffc8"/>
      <stop offset="0.3176470588235294" stop-color="#ffffff"/>
      <stop offset="0.38823529411764707" stop-color="#ffffc8"/>
      <stop offset="0.6549019607843137" stop-color="#ffffff"/>
      <stop offset="1.0" stop-color="#ededb6"/>
    </radialGradient>
  </defs>
</svg>