<svg xmlns:xlink="http://www.w3.org/1999/xlink" xmlns="http://www.w3.org/2000/svg" height="202.2px" width="161.9px">
  <g transform="matrix(1.0, 0.0, 0.0, 1.0, 74.15, 81.7)">
    <g data-characterId="1400" height="178.3" transform="matrix(1.0, 0.0, 0.0, 1.0, -45.2, -70.0)" width="100.35" xlink:href="#shape0"><g id="shape0" transform="matrix(1.0, 0.0, 0.0, 1.0, 45.2, 70.0)">
      <path d="M-1.45 -67.95 L-1.25 -68.0 Q13.3 -72.0 23.75 -60.4 34.4 -48.7 40.9 -34.15 42.65 -30.2 42.45 -26.0 40.6 16.15 54.65 55.25 L45.1 51.5 43.95 52.85 Q32.75 68.95 33.75 88.85 32.05 98.35 17.35 107.8 13.9 75.65 14.95 62.35 L15.6 54.85 16.3 54.0 Q21.6 18.1 16.25 -17.9 L16.7 -18.5 19.25 -17.65 Q24.35 -16.3 29.3 -17.55 24.35 -16.3 19.25 -17.65 L16.7 -18.5 Q1.9 -26.7 -6.0 -37.1 -13.9 -47.5 -15.55 -56.4 -29.0 -39.45 -33.9 -36.45 -38.75 -33.5 -38.65 -27.85 -38.6 -22.2 -37.7 -18.65 -36.85 -15.1 -35.95 -13.8 -35.05 -12.5 -35.35 -11.95 -35.65 -11.4 -36.35 -6.55 -37.05 -1.7 -34.45 6.05 -31.8 13.8 -29.95 16.9 -28.1 20.0 -26.8 22.8 L-23.55 28.45 Q-21.3 32.25 -20.05 33.2 L-17.8 35.15 -19.4 48.5 -20.05 49.2 -21.6 49.3 Q-32.15 69.1 -25.35 92.05 -43.45 77.05 -37.65 54.25 L-44.4 58.25 Q-31.05 24.4 -42.25 -10.8 -44.9 -19.15 -44.7 -27.95 -44.35 -45.5 -33.5 -57.7 -19.5 -73.35 -1.4 -68.25 L-1.45 -67.95 -11.55 -64.45 -1.45 -67.95" fill="url(#gradient0)" fill-rule="evenodd" stroke="none"/>
      <path d="M16.7 -18.5 L16.25 -17.9 Q21.6 18.1 16.3 54.0 L15.6 54.85 14.95 62.35 Q13.9 75.65 17.35 107.8 32.05 98.35 33.75 88.85 32.75 68.95 43.95 52.85 L45.1 51.5 54.65 55.25 Q40.6 16.15 42.45 -26.0 42.65 -30.2 40.9 -34.15 34.4 -48.7 23.75 -60.4 13.3 -72.0 -1.25 -68.0 L-1.45 -67.95 -11.55 -64.45 M29.3 -17.55 Q24.35 -16.3 19.25 -17.65 L16.7 -18.5 Q1.9 -26.7 -6.0 -37.1 -13.9 -47.5 -15.55 -56.4 -29.0 -39.45 -33.9 -36.45 -38.75 -33.5 -38.65 -27.85 -38.6 -22.2 -37.7 -18.65 -36.85 -15.1 -35.95 -13.8 -35.05 -12.5 -35.35 -11.95 -35.65 -11.4 -36.35 -6.55 -37.05 -1.7 -34.45 6.05 -31.8 13.8 -29.95 16.9 -28.1 20.0 -26.8 22.8 L-23.55 28.45 Q-21.3 32.25 -20.05 33.2 L-17.8 35.15 -19.4 48.5 -20.05 49.2 -21.6 49.3 Q-32.15 69.1 -25.35 92.05 -43.45 77.05 -37.65 54.25 L-44.4 58.25 Q-31.05 24.4 -42.25 -10.8 -44.9 -19.15 -44.7 -27.95 -44.35 -45.5 -33.5 -57.7 -19.5 -73.35 -1.4 -68.25 L-1.3 -68.25 Q-0.95 -68.2 -1.25 -68.05 L-1.45 -67.95" fill="none" stroke="#000000" stroke-linecap="round" stroke-linejoin="round" stroke-width="2.0"/>
      <path d="M18.0 -55.7 Q17.4 -58.0 15.45 -59.45 L14.3 -60.3 M30.85 -33.6 L30.95 -34.25 34.1 -25.75 M21.2 -34.5 L24.4 -28.5 M23.05 -36.8 L24.25 -36.25 Q30.45 -27.55 32.7 -17.45 M8.75 -35.4 Q19.85 -30.8 26.85 -21.85 L27.2 -21.15 M26.25 -5.5 L25.8 -14.7 M-11.0 -55.7 Q-4.85 -34.1 15.75 -24.2 20.05 -22.15 24.4 -23.45 M6.45 -48.3 Q5.1 -54.0 0.65 -58.25 L-1.35 -60.3 M32.25 -39.1 Q40.65 -20.75 37.15 0.15 36.7 2.7 37.3 5.1 M41.45 46.5 Q38.0 34.6 37.8 22.0 L37.75 17.5 M26.7 93.45 Q22.3 64.25 26.75 44.7 28.35 37.7 30.4 30.85 M31.8 53.85 Q36.5 31.9 32.95 9.65 32.1 4.15 29.95 -0.9 M20.65 101.25 Q16.55 61.1 19.6 39.4 22.45 18.7 22.6 -2.3 M-41.4 -34.95 Q-36.75 -51.25 -23.45 -60.95 L-20.75 -62.6 -17.0 -61.2 M-1.8 -65.8 L-0.8 -66.6 Q2.6 -66.85 4.15 -63.95 M-11.0 -62.6 Q-7.2 -63.45 -3.95 -60.95 L-3.2 -60.3 M-39.55 -14.25 Q-42.85 -20.5 -42.1 -27.2 L-41.85 -28.5 M-35.4 -40.95 L-26.2 -51.55 M-38.2 45.6 Q-34.65 37.1 -34.75 27.8 L-34.75 23.6 M-29.45 83.35 Q-40.15 62.35 -31.8 40.1 -29.05 32.8 -30.25 24.8 M-29.45 52.05 Q-25.8 45.65 -26.45 38.3 L-26.65 36.4" fill="none" stroke="#835638" stroke-linecap="round" stroke-linejoin="round" stroke-width="1.5"/>
    </g>
    </g>
  </g>
  <defs>
    <radialGradient cx="0" cy="0" gradientTransform="matrix(0.0249, 0.1374, -0.1716, 0.0311, -3.2, -41.4)" gradientUnits="userSpaceOnUse" id="gradient0" r="819.2" spreadMethod="pad">
      <stop offset="0.0" stop-color="#46321a"/>
      <stop offset="0.22745098039215686" stop-color="#46321a"/>
      <stop offset="0.3176470588235294" stop-color="#58412c"/>
      <stop offset="0.403921568627451" stop-color="#46321a"/>
      <stop offset="1.0" stop-color="#3d200c"/>
    </radialGradient>
  </defs>
</svg>