<svg xmlns:xlink="http://www.w3.org/1999/xlink" xmlns="http://www.w3.org/2000/svg" height="16.65px" width="27.9px">
  <g transform="matrix(1.0, 0.0, 0.0, 1.0, 11.2, 8.0)">
    <g data-characterId="1292" height="6.85" transform="matrix(1.0, 0.0, 0.0, 1.0, -9.9, -2.2)" width="15.95" xlink:href="#shape0"><g id="shape0" transform="matrix(1.0, 0.0, 0.0, 1.0, 9.9, 2.2)">
      <path d="M4.45 0.8 L4.35 0.95 4.25 1.05 4.45 0.8" fill="#e6b380" fill-rule="evenodd" stroke="none"/>
      <path d="M4.25 1.05 L-1.2 0.4 -5.8 0.6 Q-7.7 1.1 -8.75 -0.2 L-9.45 0.1 -9.65 0.05 -9.85 -0.15 -9.9 -0.3 -9.9 -0.4 -8.5 -1.75 -7.9 -2.2 Q-5.5 -0.55 -4.35 -1.45 L-3.65 -2.05 -1.7 -1.45 2.25 -0.4 Q4.55 0.25 4.55 0.6 L4.45 0.8 4.25 1.05" fill="#d18a70" fill-rule="evenodd" stroke="none"/>
      <path d="M2.5 3.6 Q0.55 2.9 -1.5 2.8 L-6.05 3.25 Q-7.3 3.4 -8.4 4.1 L-8.6 4.1 -9.1 3.85 -9.15 3.75 -9.2 3.7 -9.25 3.3 -9.2 2.95 -9.2 2.75 -9.1 2.6 Q-8.45 1.95 -7.7 1.45 L-7.25 1.3 -7.05 1.4 -6.95 1.45 -6.8 1.6 -1.75 1.05 -0.75 0.9 Q2.65 0.7 5.4 2.1 5.8 2.25 5.6 2.7 4.75 4.4 2.5 3.6 M-3.0 1.75 L-3.0 1.7 -3.35 1.6 -7.0 2.65 -7.0 2.7 Q-4.7 3.4 -3.0 1.75" fill="#dda991" fill-rule="evenodd" stroke="none"/>
      <path d="M-3.0 1.75 Q-4.7 3.4 -7.0 2.7 L-7.0 2.65 -3.35 1.6 -3.0 1.7 -3.0 1.75" fill="#e8c2b5" fill-rule="evenodd" stroke="none"/>
      <path d="M-4.15 1.9 L-4.35 2.05 -5.4 2.0 Q-5.9 1.0 -6.0 1.5 L-6.25 2.0 -7.9 1.95 Q-7.9 1.1 -8.2 0.5 -8.5 -0.1 -8.9 -0.1 L-3.3 0.0 2.1 -0.3 4.6 0.15 5.45 0.6 6.05 2.05 4.5 1.65 1.6 1.2 -2.9 1.35 -3.85 1.75 -4.15 1.9" fill="#ffffff" fill-rule="evenodd" stroke="none"/>
      <path d="M-8.9 -0.1 L-9.6 -0.35 M-4.35 2.05 L-4.15 2.0 -4.15 1.9 -4.35 2.05 -5.4 2.0 Q-5.9 1.0 -6.0 1.5 L-6.25 2.0 -7.25 2.55 M-4.15 2.0 L-3.85 1.75 -4.15 1.9 M-3.85 1.75 L-2.9 1.35 1.6 1.2 4.5 1.65 6.05 2.05 5.45 0.6 4.6 0.15 2.1 -0.3 -3.3 0.0 -8.9 -0.1 Q-8.5 -0.1 -8.2 0.5 -7.9 1.1 -7.9 1.95 L-6.25 2.0 M-8.8 2.5 L-7.9 1.95 M4.5 1.65 L1.6 1.7" fill="none" stroke="#000000" stroke-linecap="round" stroke-linejoin="round" stroke-width="1.5"/>
      <path d="M-5.85 4.15 L-4.1 4.0 -3.75 3.9" fill="none" stroke="#aa7948" stroke-linecap="round" stroke-linejoin="round" stroke-width="2.0"/>
    </g>
  </g>
  </g>
  <defs>
    </defs>
</svg>