<svg xmlns:xlink="http://www.w3.org/1999/xlink" xmlns="http://www.w3.org/2000/svg" height="202.2px" width="161.9px">
  <g transform="matrix(1.0, 0.0, 0.0, 1.0, 74.15, 81.7)">
    <g data-characterId="1378" height="145.75" transform="matrix(1.0, 0.0, 0.0, 1.0, -69.5, -71.85)" width="138.0" xlink:href="#shape0"><g id="shape0" transform="matrix(1.0, 0.0, 0.0, 1.0, 69.5, 71.85)">
      <path d="M0.0 -68.0 L0.95 -66.95 Q1.5 -66.25 1.3 -65.9 0.55 -64.5 -1.0 -64.0 1.25 -63.75 1.5 -62.0 -0.95 -62.45 -2.0 -61.5 L-1.0 -60.0 Q-1.25 -59.75 -1.55 -59.7 -2.75 -59.55 -3.15 -58.35 -2.25 -57.5 -2.0 -56.5 L-2.5 -56.5 -4.85 -56.9 Q-3.25 -56.1 -2.5 -54.5 L-8.05 -53.9 Q-6.55 -53.15 -5.0 -53.0 -6.55 -53.15 -8.05 -53.9 L-2.5 -54.5 Q-3.25 -56.1 -4.85 -56.9 L-2.5 -56.5 -2.0 -56.5 Q-2.25 -57.5 -3.15 -58.35 -2.75 -59.55 -1.55 -59.7 -1.25 -59.75 -1.0 -60.0 L-2.0 -61.5 Q-0.95 -62.45 1.5 -62.0 1.25 -63.75 -1.0 -64.0 0.55 -64.5 1.3 -65.9 1.5 -66.25 0.95 -66.95 L0.0 -68.0 M7.5 -68.0 L8.0 -68.0 Q15.25 -68.65 20.45 -65.55 25.6 -62.5 27.65 -59.7 L31.55 -53.85 Q33.4 -50.85 35.6 -45.85 37.75 -40.9 39.0 -34.0 40.25 -27.1 40.2 -18.2 L40.2 0.5 Q40.25 10.5 41.85 20.3 L43.55 29.4 Q48.25 35.85 54.8 40.6 L55.75 41.2 54.4 40.75 Q52.7 40.25 51.1 39.35 L49.9 38.75 Q48.2 38.0 46.95 36.5 44.55 33.55 42.5 30.5 L41.75 28.9 39.45 21.0 Q38.15 16.0 39.0 11.0 38.15 16.0 39.45 21.0 L41.75 28.9 42.5 30.5 Q44.55 33.55 46.95 36.5 48.2 38.0 49.9 38.75 L51.1 39.35 Q52.7 40.25 54.4 40.75 L55.75 41.2 56.85 41.85 58.2 42.5 Q63.05 44.85 68.0 42.5 65.7 47.6 60.15 48.2 L58.4 48.2 55.75 47.75 Q51.9 46.7 49.0 43.4 L50.1 45.25 Q47.3 42.9 45.5 39.5 47.3 42.9 50.1 45.25 52.1 48.1 55.25 49.65 L58.25 50.75 60.0 51.0 Q57.9 52.05 55.4 52.2 L53.7 52.1 50.2 54.65 50.55 55.95 52.9 56.65 47.0 57.35 Q41.75 57.8 37.0 55.9 L33.05 54.4 Q28.85 52.65 27.35 48.4 25.9 44.2 25.5 40.15 24.5 30.55 24.5 21.0 24.5 12.25 26.85 3.9 L28.0 -1.85 Q29.15 -11.9 27.7 -21.9 27.5 -23.25 26.5 -24.5 L24.25 -14.45 23.6 -18.15 22.35 -22.4 Q21.3 -25.35 17.35 -29.5 13.35 -33.7 8.1 -36.65 5.45 -38.15 3.45 -39.95 1.45 -41.8 0.15 -43.95 -2.0 -47.5 -3.05 -50.6 L-3.0 -52.5 -2.0 -53.5 -3.65 -52.25 -4.0 -52.0 -4.2 -51.05 -4.35 -50.55 Q-5.7 -46.6 -9.95 -45.3 -19.55 -42.7 -29.25 -40.75 L-34.9 -39.15 -36.2 -35.85 Q-37.5 -32.5 -37.35 -29.05 L-36.45 -16.0 -35.35 -2.45 -35.6 0.25 -36.3 4.45 -34.95 4.65 -31.35 13.7 -30.35 15.95 -24.95 28.1 Q-22.65 33.15 -17.9 34.95 L-17.95 35.0 Q-19.6 43.45 -16.7 51.55 -16.05 53.35 -15.55 55.15 -13.6 62.9 -17.0 69.35 L-17.5 69.05 Q-16.5 66.9 -16.1 64.55 -15.5 60.7 -18.85 58.85 -19.0 60.75 -20.1 62.2 -26.35 70.3 -36.5 68.5 L-31.85 60.4 Q-36.8 63.25 -42.25 65.0 L-47.7 66.7 -56.5 67.0 -55.2 65.65 Q-50.65 60.7 -48.85 54.55 -49.65 55.4 -50.55 56.05 -51.4 56.7 -52.4 56.8 L-56.85 57.15 Q-62.95 57.25 -68.0 54.0 -63.5 54.05 -59.95 51.3 -59.05 50.6 -58.5 49.65 -56.3 46.1 -57.0 41.6 L-57.45 41.25 -58.5 37.0 Q-61.4 32.2 -63.4 26.95 -64.35 24.45 -64.55 21.95 -65.3 12.55 -62.3 3.6 -59.45 -4.9 -55.15 -12.85 -51.4 -19.7 -49.35 -27.2 L-46.9 -36.6 Q-44.95 -44.4 -40.4 -51.1 -37.1 -55.9 -33.0 -59.95 -25.85 -67.0 -16.4 -69.2 -9.55 -70.8 -2.25 -71.2 3.55 -72.0 7.5 -68.0 M6.5 -64.5 L5.95 -64.1 Q4.1 -63.15 5.5 -62.0 L5.85 -61.45 Q6.45 -59.75 5.0 -59.55 L4.1 -59.3 2.95 -58.6 Q2.05 -57.95 2.2 -56.7 0.55 -54.2 -2.0 -53.5 0.55 -54.2 2.2 -56.7 2.05 -57.95 2.95 -58.6 L4.1 -59.3 5.0 -59.55 Q6.45 -59.75 5.85 -61.45 L5.5 -62.0 Q4.1 -63.15 5.95 -64.1 L6.5 -64.5 M-48.5 53.5 L-48.85 54.55 -48.5 53.5 M34.0 -41.0 Q32.7 -43.35 31.6 -46.05 27.75 -55.3 20.1 -61.6 16.25 -64.75 11.5 -65.0 16.25 -64.75 20.1 -61.6 27.75 -55.3 31.6 -46.05 32.7 -43.35 34.0 -41.0 M33.5 -33.5 L32.8 -35.95 30.35 -41.45 Q26.1 -49.65 20.5 -57.0 26.1 -49.65 30.35 -41.45 L32.8 -35.95 33.5 -33.5 M50.0 50.5 L51.45 51.35 Q52.5 51.9 53.7 52.1 52.5 51.9 51.45 51.35 L50.0 50.5 M-12.0 -61.5 L-17.5 -57.05 -20.35 -54.85 -22.7 -53.45 Q-27.25 -51.4 -32.0 -49.5 -27.25 -51.4 -22.7 -53.45 L-20.35 -54.85 -17.5 -57.05 -12.0 -61.5 M-27.0 -60.5 L-27.55 -59.55 Q-31.35 -54.2 -37.5 -52.0 -31.35 -54.2 -27.55 -59.55 L-27.0 -60.5 M-12.0 -65.5 Q-13.5 -63.3 -15.6 -61.6 -23.0 -55.75 -31.6 -51.7 L-33.45 -50.45 -35.1 -49.15 Q-43.45 -43.55 -46.0 -34.5 -43.45 -43.55 -35.1 -49.15 L-33.45 -50.45 -31.6 -51.7 Q-23.0 -55.75 -15.6 -61.6 -13.5 -63.3 -12.0 -65.5 M-47.5 -23.0 L-47.9 -21.5 Q-48.25 -19.5 -48.95 -17.65 L-53.9 -4.45 -56.3 1.35 Q-59.15 7.5 -60.6 14.0 L-61.3 17.55 Q-62.1 22.45 -60.5 27.0 -62.1 22.45 -61.3 17.55 L-60.6 14.0 Q-59.15 7.5 -56.3 1.35 L-53.9 -4.45 -48.95 -17.65 Q-48.25 -19.5 -47.9 -21.5 L-47.5 -23.0 M-42.0 -28.0 Q-42.25 -25.5 -42.75 -23.05 L-44.1 -15.95 Q-44.95 -10.55 -47.1 -5.55 -50.6 2.6 -53.0 11.0 -50.6 2.6 -47.1 -5.55 -44.95 -10.55 -44.1 -15.95 L-42.75 -23.05 Q-42.25 -25.5 -42.0 -28.0 M-39.0 -34.5 L-37.65 -36.75 Q-36.6 -38.1 -34.9 -39.15 -36.6 -38.1 -37.65 -36.75 L-39.0 -34.5 M-38.5 -24.0 L-38.9 -21.0 -39.15 -18.5 -39.05 -17.2 Q-38.75 -16.45 -38.75 -15.5 -38.75 -12.65 -38.0 -10.0 -37.4 -8.15 -37.7 -6.0 L-37.75 -5.0 Q-37.9 -2.65 -38.55 -1.0 L-38.85 0.05 -39.2 1.45 Q-40.3 5.5 -42.35 9.55 -43.65 12.1 -45.6 14.4 L-48.35 17.2 -49.15 17.85 -53.0 20.5 -49.15 17.85 -48.35 17.2 -45.6 14.4 Q-43.65 12.1 -42.35 9.55 -40.3 5.5 -39.2 1.45 L-38.85 0.05 -38.55 -1.0 Q-37.9 -2.65 -37.75 -5.0 L-37.7 -6.0 Q-37.4 -8.15 -38.0 -10.0 -38.75 -12.65 -38.75 -15.5 -38.75 -16.45 -39.05 -17.2 L-39.15 -18.5 -38.9 -21.0 -38.5 -24.0 M-39.0 22.0 L-37.45 20.75 Q-34.8 18.4 -34.0 15.0 -34.8 18.4 -37.45 20.75 L-39.0 22.0 M-35.0 50.0 L-33.5 50.05 Q-31.6 48.9 -31.15 46.45 -29.65 38.35 -27.5 30.5 -29.65 38.35 -31.15 46.45 -31.6 48.9 -33.5 50.05 L-35.0 50.0 M-52.0 23.0 Q-45.75 22.7 -42.25 17.75 -37.95 11.6 -36.3 4.45 -37.95 11.6 -42.25 17.75 -45.75 22.7 -52.0 23.0 M-45.5 52.0 L-46.05 54.0 Q-47.9 59.5 -51.5 64.0 -47.9 59.5 -46.05 54.0 L-45.5 52.0 M-51.5 39.0 L-51.55 39.5 -52.7 44.45 Q-54.75 51.4 -61.5 54.0 -54.75 51.4 -52.7 44.45 L-51.55 39.5 -51.5 39.0 M-30.0 58.5 Q-30.25 59.75 -30.65 60.95 L-32.0 64.5 -30.65 60.95 Q-30.25 59.75 -30.0 58.5" fill="url(#gradient0)" fill-rule="evenodd" stroke="none"/>
      <path d="M-4.0 -52.0 L-4.2 -51.05 -4.35 -50.55 Q-5.7 -46.6 -9.95 -45.3 -19.55 -42.7 -29.25 -40.75 L-34.9 -39.15 Q-36.6 -38.1 -37.65 -36.75 L-39.0 -34.5" fill="none" stroke="#000000" stroke-linecap="round" stroke-linejoin="round" stroke-width="2.0"/>
      <path d="M7.5 -68.0 Q3.55 -72.0 -2.25 -71.2 -9.55 -70.8 -16.4 -69.2 -25.85 -67.0 -33.0 -59.95 -37.1 -55.9 -40.4 -51.1 -44.95 -44.4 -46.9 -36.6 L-49.35 -27.2 Q-51.4 -19.7 -55.15 -12.85 -59.45 -4.9 -62.3 3.6 -65.3 12.55 -64.55 21.95 -64.35 24.45 -63.4 26.95 -61.4 32.2 -58.5 37.0 L-57.45 41.25 -57.0 41.6 Q-56.3 46.1 -58.5 49.65 -59.05 50.6 -59.95 51.3 -63.5 54.05 -68.0 54.0 -62.95 57.25 -56.85 57.15 L-52.4 56.8 Q-51.4 56.7 -50.55 56.05 -49.65 55.4 -48.85 54.55 L-48.5 53.5 M-2.0 -53.5 Q0.55 -54.2 2.2 -56.7 2.05 -57.95 2.95 -58.6 L4.1 -59.3 5.0 -59.55 Q6.45 -59.75 5.85 -61.45 L5.5 -62.0 Q4.1 -63.15 5.95 -64.1 L6.5 -64.5 M8.0 -68.0 Q15.25 -68.65 20.45 -65.55 25.6 -62.5 27.65 -59.7 L31.55 -53.85 Q33.4 -50.85 35.6 -45.85 37.75 -40.9 39.0 -34.0 40.25 -27.1 40.2 -18.2 L40.2 0.5 Q40.25 10.5 41.85 20.3 L43.55 29.4 Q48.25 35.85 54.8 40.6 L55.75 41.2 56.85 41.85 58.2 42.5 Q63.05 44.85 68.0 42.5 65.7 47.6 60.15 48.2 L58.4 48.2 55.75 47.75 Q51.9 46.7 49.0 43.4 L50.1 45.25 Q52.1 48.1 55.25 49.65 L58.25 50.75 60.0 51.0 Q57.9 52.05 55.4 52.2 L53.7 52.1 Q52.5 51.9 51.45 51.35 L50.0 50.5 M-3.0 -52.5 L-3.05 -50.6 Q-2.0 -47.5 0.15 -43.95 1.45 -41.8 3.45 -39.95 5.45 -38.15 8.1 -36.65 13.35 -33.7 17.35 -29.5 21.3 -25.35 22.35 -22.4 L23.6 -18.15 24.25 -14.45 26.5 -24.5 Q27.5 -23.25 27.7 -21.9 29.15 -11.9 28.0 -1.85 L26.85 3.9 Q24.5 12.25 24.5 21.0 24.5 30.55 25.5 40.15 25.9 44.2 27.35 48.4 28.85 52.65 33.05 54.4 L37.0 55.9 Q41.75 57.8 47.0 57.35 L52.9 56.65 50.55 55.95 50.2 54.65 53.7 52.1 M-3.05 -50.6 Q-3.0 -46.6 -1.1 -43.4 -0.05 -41.6 1.6 -40.05 L1.85 -39.85 2.35 -39.35 2.6 -39.1 6.0 -35.0 Q6.75 -33.95 7.95 -33.7 L9.45 -32.95 11.15 -31.7 12.0 -31.5 M-4.2 -51.05 L-4.2 -50.5 Q-4.15 -46.4 -2.6 -42.75 -1.65 -40.55 -0.1 -38.5 L0.6 -37.6 Q1.75 -36.2 2.0 -34.5 M24.25 -14.45 L24.5 -13.25 M-3.65 -52.25 L-3.3 -51.3 -3.05 -50.6 M-34.9 -39.15 L-36.2 -35.85 Q-37.5 -32.5 -37.35 -29.05 L-36.45 -16.0 -35.35 -2.45 -35.6 0.25 Q-35.75 2.5 -34.95 4.65 L-31.35 13.7 -30.35 15.95 -24.95 28.1 Q-22.65 33.15 -17.9 34.95 L-17.55 35.05 M-34.0 15.0 Q-34.8 18.4 -37.45 20.75 L-39.0 22.0 M-35.6 0.25 L-36.3 4.45 Q-37.95 11.6 -42.25 17.75 -45.75 22.7 -52.0 23.0 M-27.5 30.5 Q-29.65 38.35 -31.15 46.45 -31.6 48.9 -33.5 50.05 L-35.0 50.0 M-17.9 34.95 L-17.95 35.0 Q-19.6 43.45 -16.7 51.55 -16.05 53.35 -15.55 55.15 -13.6 62.9 -17.0 69.35 L-19.2 72.75 -19.25 72.8 Q-19.05 73.75 -19.5 73.25 L-19.25 72.8 M-58.5 37.0 Q-58.15 40.85 -61.75 42.15 -65.55 43.7 -69.0 41.5 M-17.5 69.05 Q-16.5 66.9 -16.1 64.55 -15.5 60.7 -18.85 58.85 -19.0 60.75 -20.1 62.2 -26.35 70.3 -36.5 68.5 L-31.85 60.4 Q-36.8 63.25 -42.25 65.0 L-47.7 66.7 -56.5 67.0 -55.2 65.65 Q-50.65 60.7 -48.85 54.55 M-17.5 69.05 L-19.2 72.75" fill="none" stroke="#000000" stroke-linecap="round" stroke-linejoin="round" stroke-width="2.0"/>
      <path d="M55.75 41.2 L56.05 41.35 56.85 41.85 M50.1 45.25 Q52.6 47.35 56.0 48.55 L57.0 49.0" fill="none" stroke="#9f410f" stroke-linecap="round" stroke-linejoin="round" stroke-width="1.5"/>
      <path d="M-5.0 -53.0 Q-6.55 -53.15 -8.05 -53.9 L-2.5 -54.5 Q-3.25 -56.1 -4.85 -56.9 L-2.5 -56.5 -2.0 -56.5 Q-2.25 -57.5 -3.15 -58.35 -2.75 -59.55 -1.55 -59.7 -1.25 -59.75 -1.0 -60.0 L-2.0 -61.5 Q-0.95 -62.45 1.5 -62.0 1.25 -63.75 -1.0 -64.0 0.55 -64.5 1.3 -65.9 1.5 -66.25 0.95 -66.95 L0.0 -68.0 M11.5 -65.0 Q16.25 -64.75 20.1 -61.6 27.75 -55.3 31.6 -46.05 32.7 -43.35 34.0 -41.0 M20.5 -57.0 Q26.1 -49.65 30.35 -41.45 L32.8 -35.95 33.5 -33.5 M-46.0 -34.5 Q-43.45 -43.55 -35.1 -49.15 L-33.45 -50.45 -31.6 -51.7 Q-23.0 -55.75 -15.6 -61.6 -13.5 -63.3 -12.0 -65.5 M-37.5 -52.0 Q-31.35 -54.2 -27.55 -59.55 L-27.0 -60.5 M-32.0 -49.5 Q-27.25 -51.4 -22.7 -53.45 L-20.35 -54.85 -17.5 -57.05 -12.0 -61.5 M-53.0 11.0 Q-50.6 2.6 -47.1 -5.55 -44.95 -10.55 -44.1 -15.95 L-42.75 -23.05 Q-42.25 -25.5 -42.0 -28.0 M-60.5 27.0 Q-62.1 22.45 -61.3 17.55 L-60.6 14.0 Q-59.15 7.5 -56.3 1.35 L-53.9 -4.45 -48.95 -17.65 Q-48.25 -19.5 -47.9 -21.5 L-47.5 -23.0 M-53.0 20.5 L-49.15 17.85 -48.35 17.2 -45.6 14.4 Q-43.65 12.1 -42.35 9.55 -40.3 5.5 -39.2 1.45 L-38.85 0.05 -38.55 -1.0 Q-37.9 -2.65 -37.75 -5.0 L-37.7 -6.0 Q-37.4 -8.15 -38.0 -10.0 -38.75 -12.65 -38.75 -15.5 -38.75 -16.45 -39.05 -17.2 L-39.15 -18.5 -38.9 -21.0 -38.5 -24.0 M-61.5 54.0 Q-54.75 51.4 -52.7 44.45 L-51.55 39.5 -51.5 39.0 M-51.5 64.0 Q-47.9 59.5 -46.05 54.0 L-45.5 52.0 M-32.0 64.5 L-30.65 60.95 Q-30.25 59.75 -30.0 58.5 M39.0 11.0 Q38.15 16.0 39.45 21.0 L41.75 28.9 42.5 30.5 Q44.55 33.55 46.95 36.5 48.2 38.0 49.9 38.75 L51.1 39.35 Q52.7 40.25 54.4 40.75 L55.75 41.2 M45.5 39.5 Q47.3 42.9 50.1 45.25" fill="none" stroke="#884d2d" stroke-linecap="round" stroke-linejoin="round" stroke-width="1.5"/>
    </g>
    </g>
  </g>
  <defs>
    <radialGradient cx="0" cy="0" gradientTransform="matrix(8.0E-4, 0.0806, -0.1487, 0.0014, -4.5, -54.5)" gradientUnits="userSpaceOnUse" id="gradient0" r="819.2" spreadMethod="pad">
      <stop offset="0.0" stop-color="#1d1512"/>
      <stop offset="0.23137254901960785" stop-color="#693e27"/>
      <stop offset="0.3176470588235294" stop-color="#884d2d"/>
      <stop offset="0.38823529411764707" stop-color="#693e27"/>
      <stop offset="1.0" stop-color="#241c17"/>
    </radialGradient>
  </defs>
</svg>