<svg xmlns:xlink="http://www.w3.org/1999/xlink" xmlns="http://www.w3.org/2000/svg" height="202.2px" width="161.9px">
  <g transform="matrix(1.0, 0.0, 0.0, 1.0, 74.15, 81.7)">
    <g data-characterId="1401" height="110.55" transform="matrix(1.0, 0.0, 0.0, 1.0, -38.9, -69.8)" width="94.3" xlink:href="#shape0"><g id="shape0" transform="matrix(1.0, 0.0, 0.0, 1.0, 38.9, 69.8)">
      <path d="M21.05 -19.7 L21.25 -20.05 21.3 -20.05 21.1 -19.15 21.05 -19.7 M34.2 -13.1 Q33.7 -14.15 34.1 -13.6 L34.2 -13.1" fill="url(#gradient0)" fill-rule="evenodd" stroke="none"/>
      <path d="M-34.6 -36.8 L-31.45 -43.25 Q-25.25 -43.6 -21.7 -48.9 L-20.35 -47.35 Q-15.4 -42.05 -8.35 -43.95 L-2.85 -36.9 Q-18.7 -38.9 -34.6 -36.8 M-23.05 -44.25 L-23.6 -43.75 -24.4 -42.65 -24.6 -41.95 -24.65 -41.2 -22.95 -39.95 -20.8 -41.7 -21.05 -43.0 -23.05 -44.25" fill="#cccccc" fill-rule="evenodd" stroke="none"/>
      <path d="M-23.05 -44.25 L-21.05 -43.0 -20.8 -41.7 -22.95 -39.95 -24.65 -41.2 -24.6 -41.95 -24.4 -42.65 -23.6 -43.75 -23.05 -44.25" fill="#e78d1e" fill-rule="evenodd" stroke="none"/>
      <path d="M-34.6 -36.8 L-34.15 -38.35 Q-36.75 -33.25 -37.5 -32.25 -38.75 -36.35 -38.25 -40.4 L-37.65 -43.3 Q-36.45 -47.55 -34.85 -51.65 -33.65 -54.85 -31.65 -57.65 L-28.85 -61.2 Q-27.4 -62.9 -25.6 -64.05 -21.9 -66.35 -17.8 -67.05 -5.75 -69.0 6.5 -69.3 L8.8 -68.9 Q12.75 -67.45 16.15 -65.45 L19.3 -63.7 23.8 -60.95 27.85 -57.65 31.3 -53.65 Q33.1 -51.2 34.5 -48.45 36.05 -45.55 37.15 -42.35 38.25 -39.25 38.85 -35.95 39.45 -32.6 39.65 -29.2 L39.7 -28.6 39.7 -28.5 Q39.85 -24.05 39.1 -19.5 L37.95 -13.8 Q35.65 -0.6 24.95 8.1 35.65 -0.6 37.95 -13.8 L39.1 -19.5 Q53.1 -12.9 52.75 2.9 52.65 7.1 51.5 10.8 47.85 22.5 54.1 32.7 L50.6 30.5 Q50.45 34.85 53.2 38.15 L54.65 40.25 Q45.05 39.1 40.25 29.9 39.3 32.65 40.5 35.35 L42.0 39.7 Q29.9 29.2 26.45 16.1 L26.65 15.85 25.35 15.0 24.55 7.6 24.95 8.1 24.65 7.6 Q23.8 5.9 24.05 2.0 L23.8 1.2 26.1 -1.85 Q27.35 -3.8 27.3 -5.9 L27.2 -8.4 Q28.45 -10.5 28.9 -13.05 29.45 -16.1 28.7 -19.0 L27.45 -22.35 25.55 -23.25 27.0 -28.0 25.55 -23.25 25.2 -23.4 24.65 -23.2 23.15 -21.8 Q22.8 -21.3 22.15 -21.9 L22.45 -23.05 Q22.75 -24.25 22.1 -24.65 21.85 -24.75 21.85 -25.35 L21.85 -28.2 21.85 -25.35 Q21.85 -24.75 22.1 -24.65 22.75 -24.25 22.45 -23.05 L22.15 -21.9 21.4 -22.05 21.4 -22.0 21.35 -21.8 21.3 -20.05 21.25 -20.05 21.05 -19.7 Q20.3 -18.85 20.15 -17.9 L18.75 -7.6 19.65 -2.3 20.1 -1.95 Q19.9 -1.0 19.35 -0.45 14.5 4.65 18.75 9.45 19.15 9.85 18.95 10.3 16.15 16.9 18.05 23.45 13.75 27.6 14.9 32.6 L14.6 34.55 14.1 34.7 Q13.55 31.4 12.35 28.3 11.45 25.95 12.95 24.0 18.5 16.75 11.95 11.5 L15.75 0.1 Q17.0 -3.75 13.6 -6.05 L13.65 -8.1 Q14.7 -14.3 17.5 -20.05 L17.45 -20.75 Q17.35 -22.5 16.75 -23.7 L15.4 -24.25 Q12.65 -25.3 10.1 -26.65 7.3 -28.15 4.7 -30.2 1.05 -33.2 -2.3 -36.7 -3.35 -37.8 -2.85 -36.9 L-8.35 -43.95 -12.6 -49.8 -18.0 -57.5 -18.25 -57.75 Q-27.4 -49.4 -31.45 -43.25 L-34.6 -36.8 M15.5 -25.35 Q16.3 -24.7 16.75 -23.7 16.3 -24.7 15.5 -25.35 M3.25 -64.5 L3.25 -63.5 3.25 -64.5 M30.3 -50.35 Q24.8 -52.35 20.75 -56.75 24.8 -52.35 30.3 -50.35 M27.0 -28.0 Q20.45 -28.7 14.55 -31.85 6.25 -36.3 0.3 -43.55 -6.0 -51.3 -9.5 -60.25 -6.0 -51.3 0.3 -43.55 6.25 -36.3 14.55 -31.85 20.45 -28.7 27.0 -28.0 M31.5 -30.0 Q28.5 -30.05 25.7 -31.35 17.15 -35.4 11.2 -42.65 L7.55 -46.55 Q-0.05 -53.55 -2.5 -62.75 -0.05 -53.55 7.55 -46.55 L11.2 -42.65 Q17.15 -35.4 25.7 -31.35 28.5 -30.05 31.5 -30.0 M37.75 -36.5 Q36.45 -36.85 34.85 -37.9 27.2 -43.1 20.2 -49.15 13.75 -54.75 11.25 -62.5 13.75 -54.75 20.2 -49.15 27.2 -43.1 34.85 -37.9 36.45 -36.85 37.75 -36.5 M3.25 -63.5 Q8.7 -53.25 15.95 -44.2 21.2 -37.7 28.4 -33.55 33.8 -30.5 39.7 -28.6 33.8 -30.5 28.4 -33.55 21.2 -37.7 15.95 -44.2 8.7 -53.25 3.25 -63.5 M17.75 -27.25 Q16.95 -27.25 16.15 -27.6 L9.55 -30.5 Q0.25 -34.5 -4.65 -43.05 L-14.0 -60.0 -4.65 -43.05 Q0.25 -34.5 9.55 -30.5 L16.15 -27.6 Q16.95 -27.25 17.75 -27.25 M34.2 -13.1 L34.1 -13.6 Q33.7 -14.15 34.2 -13.1 M34.75 -8.25 L28.7 -7.65 34.75 -8.25 M48.15 28.55 Q41.4 20.0 43.65 15.45 45.85 10.85 47.75 2.5 49.6 -5.85 40.55 -12.65 49.6 -5.85 47.75 2.5 45.85 10.85 43.65 15.45 41.4 20.0 48.15 28.55 M29.05 7.75 L28.95 10.35 Q29.35 22.7 37.4 32.5 29.35 22.7 28.95 10.35 L29.05 7.75 M35.95 2.0 L34.75 4.8 Q32.2 11.55 34.6 18.2 32.2 11.55 34.75 4.8 L35.95 2.0 M-27.25 -58.75 L-32.75 -53.0 -27.25 -58.75 M-20.5 -60.75 L-24.85 -57.35 Q-32.05 -51.05 -36.75 -42.75 -32.05 -51.05 -24.85 -57.35 L-20.5 -60.75 M40.85 -0.85 Q40.65 0.9 40.05 2.55 34.4 17.65 44.6 30.2 34.4 17.65 40.05 2.55 40.65 0.9 40.85 -0.85" fill="url(#gradient1)" fill-rule="evenodd" stroke="none"/>
      <path d="M3.25 -63.5 L3.25 -64.5 M39.7 -28.5 L39.7 -28.6 M27.0 -28.0 L25.55 -23.25 M34.2 -13.1 Q33.7 -14.15 34.1 -13.6 L34.2 -13.1" fill="none" stroke="#feda9e" stroke-linecap="round" stroke-linejoin="round" stroke-opacity="0.28235295" stroke-width="1.5"/>
      <path d="M39.7 -28.6 L39.65 -29.2 Q39.45 -32.6 38.85 -35.95 38.25 -39.25 37.15 -42.35 36.05 -45.55 34.5 -48.45 33.1 -51.2 31.3 -53.65 L27.85 -57.65 23.8 -60.95 19.3 -63.7 16.15 -65.45 Q12.75 -67.45 8.8 -68.9 L6.5 -69.3 Q-5.75 -69.0 -17.8 -67.05 -21.9 -66.35 -25.6 -64.05 -27.4 -62.9 -28.85 -61.2 L-31.65 -57.65 Q-33.65 -54.85 -34.85 -51.65 -36.45 -47.55 -37.65 -43.3 L-38.25 -40.4 Q-38.75 -36.35 -37.5 -32.25 -36.75 -33.25 -34.15 -38.35 L-34.6 -36.8 -31.45 -43.25 Q-27.4 -49.4 -18.25 -57.75 M-18.0 -57.5 L-12.6 -49.8 -8.35 -43.95 -2.85 -36.9 Q-3.35 -37.8 -2.3 -36.7 1.05 -33.2 4.7 -30.2 7.3 -28.15 10.1 -26.65 12.65 -25.3 15.4 -24.25 L16.75 -23.7 Q16.3 -24.7 15.5 -25.35 M22.15 -21.9 L22.45 -23.05 Q22.75 -24.25 22.1 -24.65 21.85 -24.75 21.85 -25.35 L21.85 -28.2 M25.55 -23.25 L27.45 -22.35 28.7 -19.0 Q29.45 -16.1 28.9 -13.05 28.45 -10.5 27.2 -8.4 L27.3 -5.9 Q27.35 -3.8 26.1 -1.85 L23.8 1.2 24.05 2.0 Q23.8 5.9 24.65 7.6 L24.95 8.1 Q35.65 -0.6 37.95 -13.8 L39.1 -19.5 Q39.85 -24.05 39.7 -28.5 M16.75 -23.7 Q17.35 -22.5 17.45 -20.75 L17.5 -20.05 Q14.7 -14.3 13.65 -8.1 L13.6 -6.05 Q17.0 -3.75 15.75 0.1 L11.95 11.5 Q18.5 16.75 12.95 24.0 11.45 25.95 12.35 28.3 13.55 31.4 14.1 34.7 L14.4 35.9 14.6 34.55 14.9 32.6 Q13.75 27.6 18.05 23.45 16.15 16.9 18.95 10.3 19.15 9.85 18.75 9.45 14.5 4.65 19.35 -0.45 19.9 -1.0 20.1 -1.95 L19.65 -2.3 18.75 -7.6 20.15 -17.9 Q20.3 -18.85 21.05 -19.7 L21.25 -20.05 21.3 -20.05 22.15 -21.9 Q22.8 -21.3 23.15 -21.8 L24.65 -23.2 25.2 -23.4 25.55 -23.25 M39.1 -19.5 Q53.1 -12.9 52.75 2.9 52.65 7.1 51.5 10.8 47.85 22.5 54.1 32.7 55.4 33.3 54.65 33.35 L54.1 32.7 50.6 30.5 Q50.45 34.85 53.2 38.15 L54.65 40.25 Q45.05 39.1 40.25 29.9 39.3 32.65 40.5 35.35 L42.0 39.7 Q29.9 29.2 26.45 16.1 M26.65 15.85 L25.35 15.0 24.55 7.6 M-8.35 -43.95 Q-15.4 -42.05 -20.35 -47.35 L-21.7 -48.9 Q-25.25 -43.6 -31.45 -43.25 M-23.05 -44.25 L-21.05 -43.0 -20.8 -41.7 -22.95 -39.95 -24.65 -41.2 -24.6 -41.95 -24.4 -42.65 -23.6 -43.75 -23.05 -44.25 M-34.6 -36.8 Q-18.7 -38.9 -2.85 -36.9" fill="none" stroke="#000000" stroke-linecap="round" stroke-linejoin="round" stroke-width="2.0"/>
      <path d="M20.75 -56.75 Q24.8 -52.35 30.3 -50.35 M39.7 -28.6 Q33.8 -30.5 28.4 -33.55 21.2 -37.7 15.95 -44.2 8.7 -53.25 3.25 -63.5 M11.25 -62.5 Q13.75 -54.75 20.2 -49.15 27.2 -43.1 34.85 -37.9 36.45 -36.85 37.75 -36.5 M-2.5 -62.75 Q-0.05 -53.55 7.55 -46.55 L11.2 -42.65 Q17.15 -35.4 25.7 -31.35 28.5 -30.05 31.5 -30.0 M-9.5 -60.25 Q-6.0 -51.3 0.3 -43.55 6.25 -36.3 14.55 -31.85 20.45 -28.7 27.0 -28.0 M-14.0 -60.0 L-4.65 -43.05 Q0.25 -34.5 9.55 -30.5 L16.15 -27.6 Q16.95 -27.25 17.75 -27.25 M28.7 -7.65 L34.75 -8.25 M40.55 -12.65 Q49.6 -5.85 47.75 2.5 45.85 10.85 43.65 15.45 41.4 20.0 48.15 28.55 M34.6 18.2 Q32.2 11.55 34.75 4.8 L35.95 2.0 M37.4 32.5 Q29.35 22.7 28.95 10.35 L29.05 7.75 M44.6 30.2 Q34.4 17.65 40.05 2.55 40.65 0.9 40.85 -0.85 M-36.75 -42.75 Q-32.05 -51.05 -24.85 -57.35 L-20.5 -60.75 M-32.75 -53.0 L-27.25 -58.75" fill="none" stroke="#feda9e" stroke-linecap="round" stroke-linejoin="round" stroke-width="1.5"/>
    </g>
    </g>
  </g>
  <defs>
    <radialGradient cx="0" cy="0" gradientTransform="matrix(0.0011, 0.109, -0.1487, 0.0014, -5.75, -50.55)" gradientUnits="userSpaceOnUse" id="gradient0" r="819.2" spreadMethod="pad">
      <stop offset="0.0" stop-color="#a37801"/>
      <stop offset="0.2196078431372549" stop-color="#ad7b01"/>
      <stop offset="0.34901960784313724" stop-color="#d0b486"/>
      <stop offset="0.5019607843137255" stop-color="#b48101"/>
      <stop offset="1.0" stop-color="#ba9101"/>
    </radialGradient>
    <radialGradient cx="0" cy="0" gradientTransform="matrix(0.0011, 0.109, -0.1487, 0.0014, -5.75, -50.55)" gradientUnits="userSpaceOnUse" id="gradient1" r="819.2" spreadMethod="pad">
      <stop offset="0.0" stop-color="#8b6630"/>
      <stop offset="0.2196078431372549" stop-color="#d8ba4f"/>
      <stop offset="0.34901960784313724" stop-color="#eddfcd"/>
      <stop offset="0.5019607843137255" stop-color="#c6b24f"/>
      <stop offset="1.0" stop-color="#725327"/>
    </radialGradient>
  </defs>
</svg>