<svg xmlns:xlink="http://www.w3.org/1999/xlink" xmlns="http://www.w3.org/2000/svg" height="158.3px" width="140.45px">
  <g transform="matrix(1.0, 0.0, 0.0, 1.0, 64.7, 56.15)">
    <g data-characterId="1467" height="19.85" transform="matrix(1.0, 0.0, 0.0, 1.0, -8.3, -4.6)" width="21.8" xlink:href="#shape0"><g id="shape0" transform="matrix(1.0, 0.0, 0.0, 1.0, 8.3, 4.6)">
      <path d="M-7.0 8.15 L-7.25 6.25 -6.4 6.05 -7.3 6.0 -7.4 3.65 -6.9 3.6 -3.1 3.5 Q-1.15 3.5 0.75 4.2 L1.05 4.4 Q1.05 6.2 0.15 7.8 L0.05 8.0 Q-2.0 9.2 -4.55 8.7 L-7.0 8.15 M-3.8 6.15 Q-2.3 4.85 -0.75 5.85 L-1.95 5.8 -2.05 6.9 -1.95 5.8 -0.75 5.85 Q-2.3 4.85 -3.8 6.15" fill="#ecc59d" fill-rule="evenodd" stroke="none"/>
      <path d="M-7.8 2.3 Q-7.55 0.2 -6.45 -1.5 -5.45 -3.0 -3.8 -3.35 L-0.4 -4.05 2.65 -3.75 Q4.1 -3.05 5.1 -1.85 6.4 -0.4 6.75 1.55 L6.9 2.7 4.25 2.45 0.3 2.4 -3.2 2.2 -4.05 2.05 -6.35 2.1 -7.8 2.3 M6.6 4.5 L6.2 5.9 5.6 7.65 5.1 8.9 4.2 10.6 3.05 12.15 Q2.15 13.2 0.6 13.85 L-2.2 14.75 Q-4.05 14.45 -5.75 13.6 -7.5 10.35 -7.0 8.15 L-4.55 8.7 Q-2.0 9.2 0.05 8.0 L0.15 7.8 Q1.05 6.2 1.05 4.4 L5.7 4.25 6.6 4.5 M3.0 5.8 Q3.2 5.55 3.45 5.45 L4.4 5.35 4.7 6.1 4.75 7.35 3.95 8.05 3.2 8.0 3.95 8.05 4.75 7.35 4.7 6.1 4.4 5.35 3.45 5.45 Q3.2 5.55 3.0 5.8" fill="#333333" fill-rule="evenodd" stroke="none"/>
      <path d="M6.9 2.7 L6.85 3.15 Q8.45 4.75 10.45 3.9 11.5 4.1 12.3 4.85 13.1 5.6 13.0 6.4 L10.9 7.6 11.0 7.3 Q11.35 6.35 10.6 5.75 L10.15 5.5 8.35 5.35 Q7.25 5.05 6.7 4.2 L6.6 4.5 5.7 4.25 1.05 4.4 0.75 4.2 Q-1.15 3.5 -3.1 3.5 L-6.9 3.6 -7.4 3.65 Q-7.85 2.95 -7.8 2.3 L-6.35 2.1 -4.05 2.05 -3.2 2.2 0.3 2.4 4.25 2.45 6.9 2.7 M6.7 4.2 L6.7 4.15 6.85 3.15 6.7 4.15 6.7 4.2" fill="#151515" fill-rule="evenodd" stroke="none"/>
      <path d="M-7.8 2.3 Q-7.55 0.2 -6.45 -1.5 -5.45 -3.0 -3.8 -3.35 L-0.4 -4.05 2.65 -3.75 Q4.1 -3.05 5.1 -1.85 6.4 -0.4 6.75 1.55 L6.9 2.7 6.85 3.15 6.7 4.15 6.7 4.2 6.6 4.5 6.2 5.9 5.6 7.65 5.1 8.9 4.2 10.6 3.05 12.15 Q2.15 13.2 0.6 13.85 L-2.2 14.75 Q-4.05 14.45 -5.75 13.6 -7.5 10.35 -7.0 8.15 L-7.25 6.25 -7.3 6.0 -7.4 3.65 Q-7.85 2.95 -7.8 2.3 M-2.05 6.9 L-1.95 5.8 -0.75 5.85 Q-2.3 4.85 -3.8 6.15 M-6.4 6.05 L-7.3 6.0 M3.2 8.0 L3.95 8.05 4.75 7.35 4.7 6.1 4.4 5.35 3.45 5.45 Q3.2 5.55 3.0 5.8" fill="none" stroke="#000000" stroke-linecap="round" stroke-linejoin="round" stroke-width="2.0"/>
      <path d="M6.85 3.15 Q8.45 4.75 10.45 3.9 11.5 4.1 12.3 4.85 13.1 5.6 13.0 6.4 L10.9 7.6 11.0 7.3 Q11.35 6.35 10.6 5.75 L10.15 5.5 8.35 5.35 Q7.25 5.05 6.7 4.2 M-7.8 2.3 L-6.35 2.1 -4.05 2.05 -3.2 2.2 0.3 2.4 4.25 2.45 6.9 2.7 M-6.9 3.6 L-3.1 3.5 Q-1.15 3.5 0.75 4.2 L1.05 4.4 5.7 4.25 M1.05 4.4 Q1.05 6.2 0.15 7.8 L0.05 8.0 Q-2.0 9.2 -4.55 8.7 L-7.0 8.15" fill="none" stroke="#000000" stroke-linecap="round" stroke-linejoin="round" stroke-width="2.0"/>
    </g>
  </g>
  </g>
  <defs>
    </defs>
</svg>