<svg xmlns:xlink="http://www.w3.org/1999/xlink" xmlns="http://www.w3.org/2000/svg" height="202.2px" width="161.9px">
  <g transform="matrix(1.0, 0.0, 0.0, 1.0, 74.15, 81.7)">
    <g data-characterId="1446" height="151.45" transform="matrix(1.0, 0.0, 0.0, 1.0, -57.0, -73.95)" width="108.0" xlink:href="#shape0"><g id="shape0" transform="matrix(1.0, 0.0, 0.0, 1.0, 57.0, 73.95)">
      <path d="M-4.5 -70.0 Q-3.85 -70.85 -2.0 -70.8 L-0.5 -70.95 4.05 -72.3 5.45 -72.65 6.5 -72.95 Q8.8 -73.95 10.95 -72.9 L12.55 -72.15 14.5 -71.45 Q18.35 -70.4 21.9 -68.35 L23.1 -67.65 26.4 -64.9 27.1 -64.1 29.3 -61.35 30.2 -60.1 Q32.75 -56.3 34.15 -52.05 L34.85 -49.95 37.95 -41.95 Q39.1 -39.15 39.2 -36.0 L39.45 -34.0 Q40.45 -28.6 40.35 -23.0 L39.85 -15.0 39.2 -10.95 39.0 -9.0 Q39.15 -3.2 39.85 2.5 L40.25 5.45 Q41.2 11.15 41.25 17.0 L41.25 19.5 Q41.3 24.45 42.8 29.05 L44.0 33.5 Q45.2 39.25 47.45 44.5 L48.0 46.0 48.75 47.8 48.75 47.5 49.0 46.5 M-9.0 -48.0 L-8.8 -47.0 -8.65 -45.95 Q-7.9 -41.5 -5.1 -37.95 L-4.45 -37.0 Q0.3 -29.05 5.8 -20.9 L7.6 -18.1 Q10.35 -13.6 12.0 -8.5 14.85 0.4 15.85 10.0 L16.15 13.5 16.45 16.5 Q17.7 26.3 16.4 36.0 16.0 39.0 15.1 42.05 12.3 51.55 7.8 60.4 L6.65 62.6 6.0 64.0 Q10.9 61.8 14.35 58.35 L19.0 53.0 Q19.15 62.75 14.6 71.55 L13.85 72.9 Q17.1 70.5 21.05 68.05 22.75 67.0 24.55 66.05 28.45 63.95 31.15 60.1 L32.35 58.4 33.5 56.5 34.0 55.5 34.05 56.0 Q34.9 60.7 33.6 65.5 L33.15 68.0 Q32.95 69.95 32.0 71.5 35.5 68.55 37.75 64.65 L38.85 62.9 39.55 61.5 Q41.45 57.1 42.8 52.95 43.4 51.05 43.5 49.0 44.35 50.4 44.15 53.0 43.85 57.25 42.5 61.0 42.8 61.55 43.9 59.95 45.15 58.1 46.9 56.4 L47.45 55.5 Q48.7 51.95 48.75 47.8 49.5 49.4 50.5 50.5 M-35.5 -57.5 L-39.25 -50.85 -40.15 -49.05 -40.25 -48.75 Q-38.25 -52.8 -35.7 -56.6 L-34.8 -57.85 Q-32.5 -60.9 -30.9 -63.95 L-30.5 -64.5 Q-27.35 -67.1 -23.9 -69.35 L-22.4 -70.35 -21.15 -71.2 Q-19.0 -72.65 -16.5 -72.95 L-12.5 -73.4 Q-9.9 -73.7 -8.5 -72.0 L-7.95 -71.7 Q-6.1 -71.25 -5.5 -69.5 M-14.0 -56.75 L-13.5 -57.5 Q-9.85 -63.5 -5.0 -68.0 M-49.0 52.5 L-49.25 55.0 -48.9 54.0 -47.1 46.95 -46.3 44.6 Q-43.0 36.0 -41.2 26.45 L-40.65 24.1 Q-40.15 22.4 -40.45 20.5 L-41.2 15.05 -41.95 9.8 Q-44.35 12.3 -47.55 13.9 L-48.85 14.7 Q-50.25 15.65 -50.5 15.0 -49.8 14.6 -49.2 13.4 L-47.85 10.6 Q-45.45 5.55 -46.0 0.0 -47.0 2.0 -48.95 3.55 L-50.1 4.3 Q-52.4 5.5 -54.45 7.1 -56.1 8.35 -56.5 7.5 -55.1 7.05 -54.8 5.05 L-54.7 4.45 -53.65 -0.55 -52.65 -5.05 -51.4 -11.0 -51.15 -12.5 Q-50.0 -21.95 -46.9 -30.95 L-44.45 -37.85 -43.95 -40.0 Q-42.4 -44.55 -40.25 -48.75 L-44.45 -37.85 -44.7 -36.0 -44.95 -34.5 Q-46.5 -29.3 -46.15 -23.5 L-45.8 -17.0 -45.75 -15.5 Q-45.7 -10.55 -44.7 -5.95 L-44.3 -4.05 Q-43.0 2.8 -41.95 9.8 L-41.35 9.1 -39.45 6.55 Q-37.75 3.9 -37.1 1.45 L-36.85 0.55 -36.65 -0.05 -36.5 -1.0 M-19.0 38.5 L-19.05 39.0 -19.25 40.0 Q-19.5 45.25 -19.35 50.5 -19.15 57.95 -16.0 64.5 -21.75 60.35 -24.0 53.5 -24.25 63.65 -19.95 73.0 L-18.75 74.75 Q-17.4 76.1 -18.5 76.5 -20.7 75.85 -22.4 74.4 -23.75 73.25 -25.25 72.5 -31.7 69.35 -33.0 62.5 -33.25 61.25 -32.85 60.25 -32.4 59.1 -33.5 59.0 -33.85 64.35 -33.15 69.5 L-32.55 71.8 Q-31.5 74.45 -31.0 77.0 -34.6 74.3 -37.95 70.45 -42.5 65.15 -42.5 58.5 L-42.5 57.5 -42.95 58.05 Q-45.55 62.15 -45.5 67.5 L-45.25 68.3 Q-44.4 69.4 -45.5 69.5 -47.1 67.3 -48.55 64.0 L-48.85 62.95 Q-49.35 60.05 -49.3 57.0 L-49.25 55.0" fill="none" stroke="#000000" stroke-linecap="round" stroke-linejoin="round" stroke-width="2.0"/>
    </g>
  </g>
  </g>
  <defs>
    </defs>
</svg>