<svg xmlns:xlink="http://www.w3.org/1999/xlink" xmlns="http://www.w3.org/2000/svg" height="98.75px" width="161.15px">
  <g transform="matrix(1.0, 0.0, 0.0, 1.0, 83.0, 71.7)">
    <g data-characterId="1271" height="37.45" transform="matrix(1.0, 0.0, 0.0, 1.0, -54.6, -22.5)" width="121.75" xlink:href="#shape0"><g id="shape0" transform="matrix(1.0, 0.0, 0.0, 1.0, 54.6, 22.5)">
      <path d="M24.0 -14.0 L23.5 -13.5 Q22.65 -12.85 21.6 -12.3 L20.4 -11.65 Q19.75 -11.25 19.0 -11.0 14.1 -9.2 9.0 -7.95 L-0.55 -5.75 Q-5.35 -4.65 -7.5 0.0 -5.35 -4.65 -0.55 -5.75 L9.0 -7.95 Q14.1 -9.2 19.0 -11.0 19.75 -11.25 20.4 -11.65 L21.6 -12.3 Q22.65 -12.85 23.5 -13.5 L24.0 -14.0 M33.6 -14.6 L33.45 -13.0 Q30.5 4.25 16.0 14.1 7.0 13.45 -2.6 11.3 -6.3 10.35 -10.1 10.75 L-32.3 11.75 -33.4 10.55 Q-39.65 2.45 -41.55 -7.6 -26.95 -14.05 -21.55 -20.5 L-18.5 -19.3 Q-6.65 -14.3 3.05 -15.05 12.6 -15.8 24.0 -22.5 L24.5 -22.0 24.5 -19.5 Q24.65 -17.9 27.55 -16.75 L33.6 -14.6 M-27.9 -13.6 Q-26.05 -10.9 -26.5 -7.5 -26.05 -10.9 -27.9 -13.6" fill="#ecc59d" fill-rule="evenodd" stroke="none"/>
      <path d="M16.0 14.1 Q30.5 4.25 33.45 -13.0 L33.6 -14.6 39.8 -12.55 Q49.7 -9.25 62.3 -2.95 74.9 3.3 51.0 10.6 34.8 15.55 16.0 14.1 M-41.55 -7.6 Q-39.65 2.45 -33.4 10.55 L-32.3 11.75 -41.65 11.1 Q-51.35 9.65 -53.75 4.25 -56.15 -1.2 -41.55 -7.6" fill="#ccff99" fill-rule="evenodd" stroke="none"/>
      <path d="M-7.5 0.0 Q-5.35 -4.65 -0.55 -5.75 L9.0 -7.95 Q14.1 -9.2 19.0 -11.0 19.75 -11.25 20.4 -11.65 L21.6 -12.3 Q22.65 -12.85 23.5 -13.5 L24.0 -14.0 M-26.5 -7.5 Q-26.05 -10.9 -27.9 -13.6" fill="none" stroke="#b9a882" stroke-linecap="round" stroke-linejoin="round" stroke-width="2.0"/>
      <path d="M16.0 14.1 Q30.5 4.25 33.45 -13.0 L33.6 -14.6 27.55 -16.75 Q24.65 -17.9 24.5 -19.5 L24.5 -22.0 M-21.55 -20.5 Q-26.95 -14.05 -41.55 -7.6 -39.65 2.45 -33.4 10.55 L-32.3 11.75 -10.1 10.75 Q-6.3 10.35 -2.6 11.3 7.0 13.45 16.0 14.1 34.8 15.55 51.0 10.6 74.9 3.3 62.3 -2.95 49.7 -9.25 39.8 -12.55 L33.6 -14.6 M-41.55 -7.6 Q-56.15 -1.2 -53.75 4.25 -51.35 9.65 -41.65 11.1 L-32.3 11.75" fill="none" stroke="#000000" stroke-linecap="round" stroke-linejoin="round" stroke-width="2.0"/>
      <path d="M3.85 1.45 L5.4 0.4 6.2 0.4 Q7.5 0.45 8.35 1.45 8.55 2.75 7.65 3.45 2.0 7.6 3.85 1.45 M4.9 2.0 L4.65 2.05 4.55 2.15 Q4.2 2.4 4.15 2.8 L4.15 2.9 4.4 3.2 4.6 3.2 Q6.0 2.7 5.1 1.95 L4.9 2.0 M21.25 -5.05 L21.05 -5.15 20.9 -5.0 Q20.05 -3.6 20.0 -1.95 L20.7 -1.85 20.85 -1.95 Q21.6 -2.9 21.65 -4.2 L21.6 -4.4 21.4 -4.95 21.25 -5.05 M6.5 1.6 L6.25 1.75 Q5.75 2.7 4.9 3.3 6.75 3.85 7.2 1.95 L7.15 1.85 Q7.0 1.6 6.7 1.55 L6.5 1.6 M19.65 -4.95 L19.45 -4.9 Q18.75 -4.3 19.0 -3.3 19.3 -2.9 19.75 -3.1 L19.85 -3.3 20.1 -4.55 20.05 -4.65 19.65 -4.95 M12.95 0.8 L14.1 0.75 14.3 0.5 Q14.65 0.1 14.65 -0.45 L14.5 -0.65 14.4 -0.9 14.2 -1.0 14.0 -1.05 13.6 -0.95 13.45 -0.75 13.25 -0.1 Q13.1 -0.7 12.45 -0.8 L12.15 -0.65 Q11.15 -0.1 11.9 0.75 L12.65 0.9 12.95 0.8 M21.85 -6.8 Q23.4 -5.85 22.15 -1.65 20.85 2.5 17.75 -3.65 20.25 -7.8 21.85 -6.8 M25.2 -6.35 L23.7 -7.6 24.4 -10.75 Q29.1 -9.5 25.2 -6.35 M29.65 -13.15 Q31.0 -12.55 30.85 -11.05 L30.5 -10.5 Q27.95 -8.9 27.95 -12.9 L28.65 -13.35 29.65 -13.15 M32.2 -15.2 Q33.15 -14.2 32.9 -12.85 L32.45 -12.8 Q29.7 -13.45 30.7 -16.0 31.55 -15.8 32.2 -15.2 M15.35 1.0 L14.0 1.95 12.0 1.9 Q8.5 -0.05 13.7 -2.3 15.65 -1.7 15.35 1.0 M25.95 -8.1 Q26.5 -8.6 25.75 -8.85 L25.6 -8.75 Q25.0 -8.25 25.75 -8.0 25.9 -8.0 25.95 -8.1 M-31.25 -4.5 L-30.95 -5.45 Q-27.65 -6.2 -27.2 -2.75 -27.5 -2.55 -27.8 -2.5 -30.45 -1.5 -31.25 -4.5 M-31.6 -9.15 Q-31.2 -8.7 -31.2 -8.05 -31.2 -7.4 -31.6 -6.95 -32.0 -6.5 -32.6 -6.5 -33.2 -6.5 -33.6 -6.95 -34.0 -7.4 -34.0 -8.05 -34.0 -8.7 -33.6 -9.15 -33.2 -9.6 -32.6 -9.6 L-31.6 -9.15 M-34.6 -11.7 L-34.85 -13.3 -33.45 -14.35 -32.5 -12.5 -33.5 -11.25 -34.6 -11.7 M-30.2 -4.55 L-30.2 -4.45 Q-30.15 -3.9 -29.55 -3.95 L-29.4 -4.0 Q-29.05 -4.15 -29.05 -4.5 L-29.15 -4.6 Q-29.35 -4.9 -29.7 -4.9 L-29.9 -4.85 -30.2 -4.55 M-28.45 -3.4 L-28.45 -3.5 Q-28.65 -3.95 -29.25 -4.0 L-29.35 -3.95 Q-29.35 -3.05 -28.45 -3.4 M-24.35 0.25 L-24.3 0.1 -24.25 -0.15 -24.3 -0.25 -25.1 -0.7 -25.45 -0.55 -26.0 -0.05 -25.95 0.25 -25.85 0.45 -25.55 0.6 -25.5 1.0 -25.4 1.1 Q-23.65 1.95 -23.25 0.15 L-23.3 0.05 -23.65 -0.15 -24.35 0.25 M-22.6 -1.25 L-21.75 0.2 Q-22.35 2.65 -25.0 2.5 -25.9 2.8 -26.3 1.95 -28.6 -2.8 -22.6 -1.25 M-10.15 0.7 L-9.9 0.95 Q-6.75 2.8 -6.15 6.1 -5.85 7.65 -6.6 8.75 -11.9 16.8 -19.95 10.35 -22.45 8.35 -21.85 5.45 -19.9 -3.5 -10.15 0.7 M-16.6 0.9 L-19.05 1.8 -19.65 2.5 Q-20.3 3.45 -20.3 4.5 L-20.1 4.7 -19.7 4.9 Q-19.35 4.85 -19.15 4.6 L-18.8 4.2 Q-17.6 4.65 -16.5 3.95 -13.1 1.95 -16.6 0.9 M-1.9 4.0 L-1.85 4.3 -1.55 5.5 -2.9 5.65 Q-2.9 6.6 -1.8 6.75 L-1.55 6.65 Q0.75 5.4 -1.25 3.6 -1.7 3.65 -1.9 4.0 M-3.45 4.5 L-3.5 4.85 -3.4 5.25 Q-3.2 5.6 -2.8 5.5 L-2.7 5.45 Q-1.95 4.55 -2.8 4.05 L-3.0 4.1 -3.45 4.5 M-0.7 1.85 Q2.75 4.45 -0.05 7.75 -1.0 8.85 -2.15 8.15 -8.0 4.7 -0.95 2.1 L-0.7 1.85 M-20.0 6.6 Q-20.45 7.1 -20.2 8.15 L-19.05 9.4 Q-15.45 12.2 -11.5 10.15 -9.7 9.25 -9.2 7.3 -8.2 3.4 -12.0 1.5 -15.25 1.95 -13.2 4.0 L-13.15 4.75 Q-13.25 5.7 -13.95 6.35 L-16.9 6.65 Q-17.45 6.25 -18.15 6.35 L-18.0 6.1 -18.0 6.0 Q-18.15 5.0 -19.2 4.95 L-19.4 5.0 Q-20.1 5.15 -20.35 5.8 L-20.35 6.0 -20.35 6.25 -20.0 6.6" fill="#5b9d17" fill-rule="evenodd" stroke="none"/>
      <path d="M6.5 1.6 L6.7 1.55 Q7.0 1.6 7.15 1.85 L7.2 1.95 Q6.75 3.85 4.9 3.3 5.75 2.7 6.25 1.75 L6.5 1.6 M21.25 -5.05 L21.4 -4.95 21.6 -4.4 21.65 -4.2 Q21.6 -2.9 20.85 -1.95 L20.7 -1.85 20.0 -1.95 Q20.05 -3.6 20.9 -5.0 L21.05 -5.15 21.25 -5.05 M13.25 -0.1 L13.45 -0.75 13.6 -0.95 14.0 -1.05 14.2 -1.0 14.4 -0.9 14.5 -0.65 14.65 -0.45 Q14.65 0.1 14.3 0.5 L14.1 0.75 12.95 0.8 13.05 0.65 13.3 0.05 13.25 -0.05 13.25 -0.1 M25.95 -8.1 Q25.9 -8.0 25.75 -8.0 25.0 -8.25 25.6 -8.75 L25.75 -8.85 Q26.5 -8.6 25.95 -8.1 M-28.45 -3.4 Q-29.35 -3.05 -29.35 -3.95 L-29.25 -4.0 Q-28.65 -3.95 -28.45 -3.5 L-28.45 -3.4 M-25.55 0.6 L-24.5 0.4 -24.35 0.25 -23.65 -0.15 -23.3 0.05 -23.25 0.15 Q-23.65 1.95 -25.4 1.1 L-25.5 1.0 -25.55 0.6 M-1.9 4.0 Q-1.7 3.65 -1.25 3.6 0.75 5.4 -1.55 6.65 L-1.8 6.75 Q-2.9 6.6 -2.9 5.65 L-1.55 5.5 -1.85 4.3 -1.9 4.0 M-18.15 6.35 Q-17.45 6.25 -16.9 6.65 L-13.95 6.35 Q-13.25 5.7 -13.15 4.75 L-13.2 4.0 Q-15.25 1.95 -12.0 1.5 -8.2 3.4 -9.2 7.3 -9.7 9.25 -11.5 10.15 -15.45 12.2 -19.05 9.4 L-20.2 8.15 Q-20.45 7.1 -20.0 6.6 -18.95 7.45 -18.15 6.35" fill="#34580e" fill-rule="evenodd" stroke="none"/>
      <path d="M4.9 2.0 L5.1 1.95 Q6.0 2.7 4.6 3.2 L4.4 3.2 4.15 2.9 4.15 2.8 Q4.2 2.4 4.55 2.15 L4.65 2.05 4.9 2.0 M19.65 -4.95 L20.05 -4.65 20.1 -4.55 19.85 -3.3 19.75 -3.1 Q19.3 -2.9 19.0 -3.3 18.75 -4.3 19.45 -4.9 L19.65 -4.95 M12.95 0.8 L12.65 0.9 11.9 0.75 Q11.15 -0.1 12.15 -0.65 L12.45 -0.8 Q13.1 -0.7 13.25 -0.1 L13.25 -0.05 13.3 0.05 13.05 0.65 12.95 0.8 M-30.2 -4.55 L-29.9 -4.85 -29.7 -4.9 Q-29.35 -4.9 -29.15 -4.6 L-29.05 -4.5 Q-29.05 -4.15 -29.4 -4.0 L-29.55 -3.95 Q-30.15 -3.9 -30.2 -4.45 L-30.2 -4.55 M-25.55 0.6 L-25.85 0.45 -25.95 0.25 -26.0 -0.05 -25.45 -0.55 -25.1 -0.7 -24.3 -0.25 -24.25 -0.15 -24.3 0.1 -24.35 0.25 -24.5 0.4 -25.55 0.6 M-16.6 0.9 Q-13.1 1.95 -16.5 3.95 -17.6 4.65 -18.8 4.2 L-19.15 4.6 Q-19.35 4.85 -19.7 4.9 L-20.1 4.7 -20.3 4.5 Q-20.3 3.45 -19.65 2.5 L-19.05 1.8 -16.6 0.9 M-3.45 4.5 L-3.0 4.1 -2.8 4.05 Q-1.95 4.55 -2.7 5.45 L-2.8 5.5 Q-3.2 5.6 -3.4 5.25 L-3.5 4.85 -3.45 4.5 M-20.0 6.6 L-20.35 6.25 -20.35 6.0 -20.35 5.8 Q-20.1 5.15 -19.4 5.0 L-19.2 4.95 Q-18.15 5.0 -18.0 6.0 L-18.0 6.1 -18.15 6.35 Q-18.95 7.45 -20.0 6.6" fill="#c6f099" fill-rule="evenodd" stroke="none"/>
      <path d="M3.85 1.45 Q2.0 7.6 7.65 3.45 8.55 2.75 8.35 1.45 7.5 0.45 6.2 0.4 L5.4 0.4 3.85 1.45 M15.35 1.0 Q15.65 -1.7 13.7 -2.3 8.5 -0.05 12.0 1.9 L14.0 1.95 15.35 1.0 M32.2 -15.2 Q31.55 -15.8 30.7 -16.0 29.7 -13.45 32.45 -12.8 L32.9 -12.85 Q33.15 -14.2 32.2 -15.2 M29.65 -13.15 L28.65 -13.35 27.95 -12.9 Q27.95 -8.9 30.5 -10.5 L30.85 -11.05 Q31.0 -12.55 29.65 -13.15 M25.2 -6.35 Q29.1 -9.5 24.4 -10.75 L23.7 -7.6 25.2 -6.35 M21.85 -6.8 Q20.25 -7.8 17.75 -3.65 20.85 2.5 22.15 -1.65 23.4 -5.85 21.85 -6.8 M-34.6 -11.7 L-33.5 -11.25 -32.5 -12.5 -33.45 -14.35 -34.85 -13.3 -34.6 -11.7 M-31.6 -9.15 L-32.6 -9.6 Q-33.2 -9.6 -33.6 -9.15 -34.0 -8.7 -34.0 -8.05 -34.0 -7.4 -33.6 -6.95 -33.2 -6.5 -32.6 -6.5 -32.0 -6.5 -31.6 -6.95 -31.2 -7.4 -31.2 -8.05 -31.2 -8.7 -31.6 -9.15 M-31.25 -4.5 Q-30.45 -1.5 -27.8 -2.5 -27.5 -2.55 -27.2 -2.75 -27.65 -6.2 -30.95 -5.45 L-31.25 -4.5 M-21.75 0.2 Q-21.75 -0.4 -22.0 -0.8 -22.25 -1.25 -22.6 -1.25 L-21.75 0.2 Q-22.35 2.65 -25.0 2.5 -25.9 2.8 -26.3 1.95 -28.6 -2.8 -22.6 -1.25 M-10.15 0.7 Q-19.9 -3.5 -21.85 5.45 -22.45 8.35 -19.95 10.35 -11.9 16.8 -6.6 8.75 -5.85 7.65 -6.15 6.1 -6.75 2.8 -9.9 0.95 M-0.95 2.1 Q-8.0 4.7 -2.15 8.15 -1.0 8.85 -0.05 7.75 2.75 4.45 -0.7 1.85" fill="none" stroke="#000000" stroke-linecap="round" stroke-linejoin="round" stroke-width="2.0"/>
    </g>
  </g>
  </g>
  <defs>
    </defs>
</svg>