<svg xmlns:xlink="http://www.w3.org/1999/xlink" xmlns="http://www.w3.org/2000/svg" height="202.2px" width="161.9px">
  <g transform="matrix(1.0, 0.0, 0.0, 1.0, 74.15, 81.7)">
    <g data-characterId="1391" height="118.15" transform="matrix(1.0, 0.0, 0.0, 1.0, -39.85, -71.65)" width="94.35" xlink:href="#shape0"><g id="shape0" transform="matrix(1.0, 0.0, 0.0, 1.0, 39.85, 71.65)">
      <path d="M24.7 15.75 L22.45 17.65 22.3 16.8 Q19.2 11.0 23.55 8.2 L23.7 8.05 23.2 7.8 Q18.7 5.35 23.1 1.85 L22.5 1.35 Q21.5 -0.4 22.0 -1.3 22.55 -2.35 24.45 -2.55 L24.7 -2.1 25.15 -1.85 25.35 -0.4 24.8 0.75 23.9 1.6 24.7 1.95 25.6 2.7 Q27.25 4.4 26.35 6.8 L25.65 7.45 Q25.15 8.05 24.2 8.05 L25.2 10.2 Q26.65 13.2 24.7 15.75 M23.7 8.05 L24.2 8.05 23.7 8.05 M23.1 1.85 L23.9 1.6 23.1 1.85" fill="#ffffff" fill-rule="evenodd" stroke="none"/>
      <path d="M38.45 -19.6 L39.0 -19.5 Q41.15 -17.15 41.15 -14.5 41.15 -11.5 38.45 -8.05 L34.1 -2.9 28.55 -0.6 28.3 -0.95 32.9 -6.5 Q36.2 -10.45 36.75 -12.45 37.8 -16.0 38.45 -19.6" fill="#ffccff" fill-rule="evenodd" stroke="none"/>
      <path d="M41.15 -14.5 Q53.9 -11.8 54.0 3.1 54.05 13.2 50.65 22.95 46.85 33.7 50.55 43.8 51.25 45.7 53.4 46.0 40.05 44.85 33.8 32.05 33.1 30.6 28.35 24.2 25.0 19.6 24.7 15.75 26.65 13.2 25.2 10.2 L24.2 8.05 Q25.15 8.05 25.65 7.45 L26.35 6.8 Q27.25 4.4 25.6 2.7 L28.3 -0.95 28.55 -0.6 34.1 -2.9 38.45 -8.05 Q41.15 -11.5 41.15 -14.5" fill="url(#gradient0)" fill-rule="evenodd" stroke="none"/>
      <path d="M-39.3 -32.45 Q-39.65 -38.05 -38.1 -43.9 -36.55 -49.8 -30.7 -57.55 -24.85 -65.3 -13.65 -69.35 -2.5 -73.4 7.3 -68.4 8.1 -67.95 8.55 -67.0 21.3 -67.6 30.0 -57.1 37.75 -47.8 38.95 -35.75 39.8 -27.6 38.45 -19.6 37.8 -16.0 36.75 -12.45 36.2 -10.45 32.9 -6.5 L28.3 -0.95 25.6 2.7 24.7 1.95 24.8 0.75 25.35 -0.4 Q27.15 -3.4 27.25 -6.6 27.35 -10.05 28.25 -14.45 29.15 -19.15 28.05 -20.85 L25.0 -22.9 25.0 -24.1 Q23.4 -22.3 23.3 -20.6 L23.2 -19.85 23.0 -19.25 22.45 -18.1 21.8 -19.4 21.8 -18.1 21.7 -8.3 Q21.65 -4.85 20.8 -1.6 19.4 3.7 15.65 8.15 L15.25 7.9 15.75 6.8 16.0 6.0 16.0 5.95 16.05 5.65 16.15 4.55 15.95 2.9 15.25 4.8 14.7 5.65 Q12.95 8.2 10.7 9.9 12.8 4.35 13.45 -1.0 14.95 -13.35 13.6 -27.7 L11.55 -28.45 Q10.2 -28.75 9.65 -30.75 9.0 -32.85 7.7 -33.35 -3.6 -38.1 -11.05 -47.75 -10.5 -38.25 -4.3 -30.7 -15.65 -39.35 -14.25 -53.7 L-15.0 -53.75 Q-25.8 -49.35 -32.5 -39.4 L-35.5 -35.8 Q-37.55 -33.5 -38.1 -32.0 L-38.8 -30.0 -39.3 -32.45 M4.75 -64.5 L4.45 -63.7 3.0 -63.2 1.5 -63.05 -1.5 -63.0 0.0 -61.0 -8.25 -60.5 -7.0 -57.75 -8.25 -60.5 0.0 -61.0 -1.5 -63.0 1.5 -63.05 3.0 -63.2 4.45 -63.7 4.75 -64.5 M16.45 -26.6 L13.6 -27.7 16.45 -26.6 M-10.5 -51.75 L-11.05 -47.75 -10.5 -51.75" fill="url(#gradient1)" fill-rule="evenodd" stroke="none"/>
      <path d="M-39.3 -32.45 Q-39.65 -38.05 -38.1 -43.9 -36.55 -49.8 -30.7 -57.55 -24.85 -65.3 -13.65 -69.35 -2.5 -73.4 7.3 -68.4 8.1 -67.95 8.55 -67.0" fill="none" stroke="#000000" stroke-linecap="round" stroke-linejoin="round" stroke-width="2.0"/>
      <path d="M8.55 -67.0 Q21.3 -67.6 30.0 -57.1 37.75 -47.8 38.95 -35.75 39.8 -27.6 38.45 -19.6 37.8 -16.0 36.75 -12.45 36.2 -10.45 32.9 -6.5 L28.3 -0.95 28.55 -0.6 34.1 -2.9 38.45 -8.05 Q41.15 -11.5 41.15 -14.5 53.9 -11.8 54.0 3.1 54.05 13.2 50.65 22.95 46.85 33.7 50.55 43.8 51.25 45.7 53.4 46.0 40.05 44.85 33.8 32.05 33.1 30.6 28.35 24.2 25.0 19.6 24.7 15.75 L22.45 17.65 22.3 16.8 Q19.2 11.0 23.55 8.2 L23.7 8.05 23.2 7.8 Q18.7 5.35 23.1 1.85 L22.5 1.35 Q21.5 -0.4 22.0 -1.3 22.55 -2.35 24.45 -2.55 L24.7 -2.1 25.15 -1.85 25.35 -0.4 24.8 0.75 23.9 1.6 24.7 1.95 24.8 0.75 M39.0 -19.5 Q41.15 -17.15 41.15 -14.5 M-7.0 -57.75 L-8.25 -60.5 0.0 -61.0 -1.5 -63.0 1.5 -63.05 3.0 -63.2 4.45 -63.7 4.75 -64.5 M23.9 1.6 L23.1 1.85 M24.2 8.05 L23.7 8.05 M24.7 15.75 Q26.65 13.2 25.2 10.2 L24.2 8.05 Q25.15 8.05 25.65 7.45 L26.35 6.8 Q27.25 4.4 25.6 2.7 L24.7 1.95 M28.3 -0.95 L25.6 2.7" fill="none" stroke="#000000" stroke-linecap="round" stroke-linejoin="round" stroke-width="2.0"/>
      <path d="M25.35 -0.4 Q27.15 -3.4 27.25 -6.6 27.35 -10.05 28.25 -14.45 29.15 -19.15 28.05 -20.85 L25.0 -22.9 25.0 -24.1 Q23.4 -22.3 23.3 -20.6 L23.2 -19.85 23.0 -19.25 22.45 -18.1 21.8 -19.4 21.8 -18.1 21.7 -8.3 Q21.65 -4.85 20.8 -1.6 19.4 3.7 15.65 8.15 L15.15 8.7 15.25 7.9 15.75 6.8 16.0 6.0 16.0 5.95 16.05 5.65 16.15 4.55 15.95 2.9 15.25 4.8 14.7 5.65 Q12.95 8.2 10.7 9.9 12.8 4.35 13.45 -1.0 14.95 -13.35 13.6 -27.7 L11.55 -28.45 Q10.2 -28.75 9.65 -30.75 9.0 -32.85 7.7 -33.35 -3.6 -38.1 -11.05 -47.75 -10.5 -38.25 -4.3 -30.7 -15.65 -39.35 -14.25 -53.7 M-15.0 -53.75 Q-25.8 -49.35 -32.5 -39.4 L-35.5 -35.8 Q-37.55 -33.5 -38.1 -32.0 L-38.8 -30.0 -39.3 -32.45 M13.6 -27.7 L16.45 -26.6 M-11.05 -47.75 L-10.5 -51.75" fill="none" stroke="#7e6100" stroke-linecap="round" stroke-linejoin="round" stroke-width="1.5"/>
      <path d="M11.5 -65.0 Q14.6 -64.05 17.35 -62.15 L22.6 -58.05 Q24.65 -56.25 26.2 -53.95 29.05 -49.85 30.2 -45.0 L31.0 -41.5 31.5 -39.5 M7.0 -64.0 L10.5 -64.3 11.25 -64.25 M0.75 -68.25 Q3.15 -68.55 5.25 -67.45 L5.5 -67.25 M-4.75 -56.0 L4.45 -55.6 6.7 -54.85 7.0 -54.5 M0.75 -58.0 Q-0.1 -57.5 1.05 -57.75 L5.25 -58.3 10.0 -58.0 M14.75 -59.25 L15.05 -58.85 17.85 -56.55 22.35 -51.9 Q24.65 -49.25 26.25 -46.25 27.75 -43.5 28.6 -40.45 L29.15 -38.25 Q30.9 -37.45 32.75 -37.0 M5.0 -61.5 Q7.35 -62.5 10.0 -62.0 M31.0 -45.5 L33.1 -37.3 35.0 -28.75 M16.75 -49.0 Q18.2 -45.9 20.95 -43.75 23.65 -41.6 26.5 -39.75 L29.15 -38.25 29.8 -35.5 30.25 -33.5 M2.25 -45.0 Q3.9 -42.5 6.25 -40.75 L14.2 -35.05 Q15.9 -33.85 17.75 -33.05 L22.05 -31.5 24.5 -30.9 26.0 -30.65 26.75 -30.75 M13.25 -43.5 Q14.7 -39.7 18.4 -37.75 21.25 -36.25 24.2 -34.95 27.05 -33.7 30.0 -33.05 L31.5 -32.75 M42.75 -8.25 Q43.2 -8.95 44.0 -8.75 46.1 -8.2 47.35 -6.3 48.6 -4.45 48.8 -2.25 L49.0 1.25 48.7 5.75 Q48.15 9.7 47.1 13.5 L45.6 19.5 45.5 19.95 45.5 22.0 45.75 24.75 M40.5 -1.25 Q40.95 -2.15 41.5 -1.1 42.15 0.0 42.3 1.3 42.65 3.9 42.5 6.5 L42.1 13.0 Q41.75 16.75 41.8 20.5 41.9 24.0 42.5 27.45 L42.85 29.15 43.85 31.2 44.75 32.75 M46.75 1.25 Q46.15 3.65 46.0 6.0 L45.6 14.75 45.5 19.95 Q44.55 24.4 44.75 29.0 M42.85 29.15 L43.85 32.95 44.85 35.45 M42.85 29.15 Q41.75 26.75 40.95 24.25 L38.95 17.45 Q38.0 14.0 37.45 10.45 L36.6 3.25 Q36.5 2.3 36.8 1.45 L36.95 0.9 M33.0 0.75 L32.7 1.55 32.3 6.5 Q32.1 11.55 33.95 16.2 L36.8 22.75 Q38.2 25.75 39.0 28.95 L39.5 29.75 M-22.25 -60.5 L-21.4 -61.3 Q-19.25 -62.6 -16.9 -63.5 L-8.2 -66.3 -3.8 -66.75 -3.75 -66.25 M-30.75 -51.25 Q-30.0 -51.3 -29.6 -51.95 -28.5 -53.6 -26.85 -54.8 -24.85 -56.25 -22.7 -57.4 -20.1 -58.75 -17.4 -59.7 L-11.2 -61.35 -10.75 -61.25 M-5.0 -62.5 Q-4.7 -64.05 -5.5 -65.25 L-5.75 -65.5 M-9.0 -68.5 L-4.6 -68.0 Q-3.35 -67.75 -2.35 -66.9 L-1.85 -66.15 -1.45 -65.55 Q-1.05 -64.85 -1.0 -65.25 M-2.35 -66.9 L-2.1 -66.45 -1.85 -66.15 M-35.0 -40.5 Q-35.0 -40.05 -34.85 -40.7 -34.5 -42.1 -33.65 -43.25 -31.35 -46.35 -28.45 -48.9 -26.35 -50.75 -23.9 -52.1 L-15.95 -56.15 -15.0 -56.5 -14.75 -56.6 M-10.5 -40.0 L-11.55 -43.55 Q-12.35 -46.25 -12.35 -49.0 -12.35 -51.5 -11.6 -53.95 L-11.0 -55.25 M-4.75 -54.25 L-3.2 -53.05 -2.75 -52.75" fill="none" stroke="#ffffff" stroke-linecap="round" stroke-linejoin="round" stroke-width="1.5"/>
    </g>
    </g>
  </g>
  <defs>
    <radialGradient cx="0" cy="0" gradientTransform="matrix(0.0481, 0.1394, -0.165, 0.0569, -7.5, -60.5)" gradientUnits="userSpaceOnUse" id="gradient0" r="819.2" spreadMethod="pad">
      <stop offset="0.0" stop-color="#dcc64e"/>
      <stop offset="0.23137254901960785" stop-color="#ffffbb"/>
      <stop offset="0.3176470588235294" stop-color="#ffffff"/>
      <stop offset="0.38823529411764707" stop-color="#ffffbb"/>
      <stop offset="1.0" stop-color="#dcc64e"/>
    </radialGradient>
    <radialGradient cx="0" cy="0" gradientTransform="matrix(0.0481, 0.1394, -0.165, 0.0569, -7.5, -60.5)" gradientUnits="userSpaceOnUse" id="gradient1" r="819.2" spreadMethod="pad">
      <stop offset="0.0" stop-color="#dcc64e"/>
      <stop offset="0.23137254901960785" stop-color="#ffffbb"/>
      <stop offset="0.3176470588235294" stop-color="#ffffff"/>
      <stop offset="0.38823529411764707" stop-color="#ffffbb"/>
      <stop offset="1.0" stop-color="#ded85c"/>
    </radialGradient>
  </defs>
</svg>