<svg xmlns:xlink="http://www.w3.org/1999/xlink" xmlns="http://www.w3.org/2000/svg" height="98.75px" width="161.15px">
  <g transform="matrix(1.0, 0.0, 0.0, 1.0, 83.0, 71.7)">
    <g data-characterId="1260" height="58.45" transform="matrix(1.0, 0.0, 0.0, 1.0, -57.2, -42.6)" width="112.8" xlink:href="#shape0"><g id="shape0" transform="matrix(1.0, 0.0, 0.0, 1.0, 57.2, 42.6)">
      <path d="M16.5 4.3 L25.65 4.75 Q31.65 4.4 37.15 2.25 42.3 0.2 46.25 -3.65 48.3 -5.6 49.5 -8.25 51.85 -13.55 50.6 -19.35 L49.9 -21.05 Q46.6 -25.9 41.6 -29.15 L32.15 -34.95 Q27.4 -37.5 22.25 -39.5 27.4 -37.5 32.15 -34.95 L41.6 -29.15 Q46.6 -25.9 49.9 -21.05 L50.6 -19.35 Q51.85 -13.55 49.5 -8.25 48.3 -5.6 46.25 -3.65 42.3 0.2 37.15 2.25 31.65 4.4 25.65 4.75 L16.5 4.3 M22.25 -39.5 L22.05 -40.05 22.25 -40.8 21.95 -41.45 22.1 -42.1 Q29.7 -41.55 36.8 -39.05 42.75 -36.95 47.1 -32.45 50.7 -28.75 53.1 -24.4 54.55 -21.7 55.05 -18.85 55.25 -17.85 54.85 -16.6 L54.3 -15.15 Q55.6 -9.8 54.6 -4.3 54.15 -1.65 52.55 0.35 49.05 4.65 43.55 6.05 L35.8 8.0 29.9 9.25 18.2 11.6 6.6 13.25 -5.2 14.05 -15.7 14.7 -26.2 15.3 -35.5 14.8 Q-40.05 14.1 -44.15 12.3 -49.15 10.25 -53.1 6.45 -57.55 2.1 -56.5 -4.05 -56.15 -6.1 -55.2 -8.15 -53.05 -12.8 -49.6 -16.7 -45.7 -21.1 -40.8 -24.05 L-38.3 -25.55 -34.05 -28.6 Q-25.75 -34.05 -16.3 -36.95 L-20.4 -21.15 Q-15.7 -18.75 -10.35 -17.4 -6.05 -16.3 -1.45 -16.05 4.35 -15.75 10.15 -16.9 15.8 -18.0 20.6 -21.2 L23.85 -23.45 22.05 -38.95 22.25 -39.5 M30.5 -27.7 Q28.75 -25.15 25.8 -24.15 L23.85 -23.45 25.8 -24.15 Q28.75 -25.15 30.5 -27.7 M-28.25 -23.7 L-20.4 -21.15 -28.25 -23.7 M52.25 -19.6 L54.3 -15.15 52.25 -19.6 M-24.5 2.8 Q-30.05 1.75 -34.3 -1.95 -38.5 -5.7 -40.15 -11.1 -41.95 -16.9 -39.65 -22.45 L-38.3 -25.55 -39.65 -22.45 Q-41.95 -16.9 -40.15 -11.1 -38.5 -5.7 -34.3 -1.95 -30.05 1.75 -24.5 2.8" fill="#773c1c" fill-rule="evenodd" stroke="none"/>
      <path d="M22.25 -39.5 Q27.4 -37.5 32.15 -34.95 L41.6 -29.15 Q46.6 -25.9 49.9 -21.05 L50.6 -19.35 Q51.85 -13.55 49.5 -8.25 48.3 -5.6 46.25 -3.65 42.3 0.2 37.15 2.25 31.65 4.4 25.65 4.75 L16.5 4.3 M54.3 -15.15 L54.85 -16.6 Q55.25 -17.85 55.05 -18.85 54.55 -21.7 53.1 -24.4 50.7 -28.75 47.1 -32.45 42.75 -36.95 36.8 -39.05 29.7 -41.55 22.1 -42.1 L21.95 -41.45 22.25 -40.8 22.05 -40.05 22.25 -39.5 M22.05 -38.95 L23.85 -23.45 25.8 -24.15 Q28.75 -25.15 30.5 -27.7 M23.85 -23.45 L20.6 -21.2 Q15.8 -18.0 10.15 -16.9 4.35 -15.75 -1.45 -16.05 -6.05 -16.3 -10.35 -17.4 -15.7 -18.75 -20.4 -21.15 L-28.25 -23.7 M-38.3 -25.55 L-40.8 -24.05 Q-45.7 -21.1 -49.6 -16.7 -53.05 -12.8 -55.2 -8.15 -56.15 -6.1 -56.5 -4.05 -57.55 2.1 -53.1 6.45 -49.15 10.25 -44.15 12.3 -40.05 14.1 -35.5 14.8 L-26.2 15.3 -15.7 14.7 -5.2 14.05 6.6 13.25 18.2 11.6 29.9 9.25 35.8 8.0 43.55 6.05 Q49.05 4.65 52.55 0.35 54.15 -1.65 54.6 -4.3 55.6 -9.8 54.3 -15.15 L52.25 -19.6 M-20.4 -21.15 L-16.3 -36.95 Q-25.75 -34.05 -34.05 -28.6 L-38.3 -25.55 -39.65 -22.45 Q-41.95 -16.9 -40.15 -11.1 -38.5 -5.7 -34.3 -1.95 -30.05 1.75 -24.5 2.8" fill="none" stroke="#000000" stroke-linecap="round" stroke-linejoin="round" stroke-width="2.0"/>
    </g>
  </g>
  </g>
  <defs>
    </defs>
</svg>