<svg xmlns:xlink="http://www.w3.org/1999/xlink" xmlns="http://www.w3.org/2000/svg" height="16.65px" width="27.9px">
  <g transform="matrix(1.0, 0.0, 0.0, 1.0, 11.2, 8.0)">
    <g data-characterId="1299" height="9.5" transform="matrix(1.0, 0.0, 0.0, 1.0, -8.65, -4.2)" width="18.3" xlink:href="#shape0"><g id="shape0" transform="matrix(1.0, 0.0, 0.0, 1.0, 8.65, 4.2)">
      <path d="M8.25 -1.6 L8.1 -1.45 7.75 -1.25 Q7.3 -1.25 7.0 -1.55 L7.0 -1.6 2.75 -1.95 -1.65 -2.1 -1.8 -1.9 -1.95 -1.75 -2.45 -1.45 -2.55 -1.4 -2.75 -1.4 -3.0 -1.45 -6.1 -0.9 Q-6.9 -0.65 -7.4 -1.2 L-8.5 -1.05 -8.65 -1.2 -6.8 -2.6 -5.9 -3.2 -5.55 -3.65 Q-3.8 -3.05 -2.3 -4.1 L-2.1 -4.2 -1.85 -4.15 -1.6 -4.1 5.95 -3.0 Q7.7 -2.9 8.25 -1.6" fill="#d18a70" fill-rule="evenodd" stroke="none"/>
      <path d="M7.8 1.75 L8.05 2.2 Q6.6 3.8 3.95 3.6 L3.5 3.6 -5.25 4.55 -6.25 4.25 Q-8.1 3.0 -7.95 1.0 L-7.3 0.45 -6.9 0.3 -6.05 0.25 -5.4 0.4 -4.2 0.15 -4.0 0.15 6.45 1.1 Q7.2 1.2 7.8 1.75 M-1.45 2.5 Q-2.4 1.35 -4.15 1.5 L-5.25 1.55 Q-6.2 1.6 -6.55 2.4 -6.55 2.95 -6.15 3.3 -5.25 4.05 -4.65 3.2 L-3.4 3.15 Q-1.9 3.9 -1.4 2.55 L-1.45 2.5" fill="#dda991" fill-rule="evenodd" stroke="none"/>
      <path d="M-1.45 2.5 L-1.4 2.55 Q-1.9 3.9 -3.4 3.15 L-4.65 3.2 Q-5.25 4.05 -6.15 3.3 -6.55 2.95 -6.55 2.4 -6.2 1.6 -5.25 1.55 L-4.15 1.5 Q-2.4 1.35 -1.45 2.5" fill="#e8c2b5" fill-rule="evenodd" stroke="none"/>
      <path d="M7.9 -1.0 L5.75 -1.0 5.65 -1.0 3.25 -0.75 5.65 -1.0 5.75 -1.0 7.9 -1.0 M-6.75 -1.2 L-6.55 -1.25 Q-4.1 -2.0 -1.35 -2.1 L-0.8 -2.2 4.35 -2.75 5.15 -2.7 5.7 -2.6 7.6 -2.4 7.75 -2.35 8.15 -2.25 Q9.5 -1.55 9.65 -0.25 9.8 1.85 7.9 2.1 L6.8 2.1 4.9 1.9 4.35 1.8 0.8 1.4 0.55 1.3 -1.1 0.9 -1.65 0.8 -6.4 0.45 -6.75 -1.2 M5.65 -1.0 L5.45 0.25 5.65 -1.0" fill="#ffffff" fill-rule="evenodd" stroke="none"/>
      <path d="M-6.75 -1.2 L-6.55 -1.25 Q-4.1 -2.0 -1.35 -2.1 L-0.8 -2.2 4.35 -2.75 5.15 -2.7 5.7 -2.6 7.6 -2.4 7.75 -2.35 8.15 -2.25 Q9.5 -1.55 9.65 -0.25 9.8 1.85 7.9 2.1 L6.8 2.1 4.9 1.9 4.35 1.8 0.8 1.4 0.55 1.3 -1.1 0.9 -1.65 0.8 -6.4 0.45 -6.55 0.45 -7.65 0.75 M-6.75 -1.2 L-8.65 -1.0 M-6.4 0.45 L-6.75 -1.2" fill="none" stroke="#000000" stroke-linecap="round" stroke-linejoin="round" stroke-width="1.5"/>
      <path d="M-3.9 4.75 L-2.1 4.6 -1.4 4.5 -1.0 4.5" fill="none" stroke="#aa7948" stroke-linecap="round" stroke-linejoin="round" stroke-width="2.0"/>
      <path d="M3.25 -0.75 L5.65 -1.0 5.75 -1.0 7.9 -1.0 M5.45 0.25 L5.65 -1.0" fill="none" stroke="#999999" stroke-linecap="round" stroke-linejoin="round" stroke-width="1.5"/>
    </g>
  </g>
  </g>
  <defs>
    </defs>
</svg>