<svg xmlns:xlink="http://www.w3.org/1999/xlink" xmlns="http://www.w3.org/2000/svg" height="202.2px" width="161.9px">
  <g transform="matrix(1.0, 0.0, 0.0, 1.0, 74.15, 81.7)">
    <g data-characterId="1393" height="78.7" transform="matrix(1.0, 0.0, 0.0, 1.0, -38.9, -69.8)" width="92.05" xlink:href="#shape0"><g id="shape0" transform="matrix(1.0, 0.0, 0.0, 1.0, 38.9, 69.8)">
      <path d="M34.1 -13.6 L34.2 -13.1 Q33.7 -14.15 34.1 -13.6" fill="url(#gradient0)" fill-rule="evenodd" stroke="none"/>
      <path d="M3.25 -64.5 L3.25 -63.5 Q8.7 -53.25 15.95 -44.2 21.2 -37.7 28.4 -33.55 33.8 -30.5 39.7 -28.6 33.8 -30.5 28.4 -33.55 21.2 -37.7 15.95 -44.2 8.7 -53.25 3.25 -63.5 L3.25 -64.5 M46.85 -50.9 L46.8 -51.5 46.1 -53.4 Q45.3 -54.8 44.0 -55.7 L39.4 -58.35 Q36.2 -59.8 33.05 -58.7 36.2 -59.8 39.4 -58.35 L44.0 -55.7 Q45.3 -54.8 46.1 -53.4 L46.8 -51.5 46.85 -50.9 M42.55 -62.45 L41.45 -63.35 40.15 -64.25 Q38.7 -65.0 37.05 -65.35 L33.1 -65.55 29.6 -64.85 Q27.65 -64.3 27.3 -62.7 27.65 -64.3 29.6 -64.85 L33.1 -65.55 37.05 -65.35 Q38.7 -65.0 40.15 -64.25 L41.45 -63.35 42.55 -62.45 M-18.25 -57.75 Q-29.6 -47.4 -33.1 -40.4 -36.6 -33.45 -37.5 -32.25 -38.75 -36.35 -38.25 -40.4 L-37.65 -43.3 Q-36.45 -47.55 -34.85 -51.65 -33.65 -54.85 -31.65 -57.65 L-28.85 -61.2 Q-27.4 -62.9 -25.6 -64.05 -21.9 -66.35 -17.8 -67.05 -5.75 -69.0 6.5 -69.3 L8.8 -68.9 Q12.75 -67.45 16.15 -65.45 L19.3 -63.7 22.55 -61.75 23.8 -60.95 27.85 -57.65 31.3 -53.65 Q33.1 -51.2 34.5 -48.45 36.05 -45.55 37.15 -42.35 38.25 -39.25 38.85 -35.95 L39.15 -34.15 38.85 -35.95 Q38.25 -39.25 37.15 -42.35 36.05 -45.55 34.5 -48.45 33.1 -51.2 31.3 -53.65 L27.85 -57.65 23.8 -60.95 22.55 -61.75 Q27.15 -72.1 39.75 -66.85 54.15 -60.85 52.45 -44.4 51.65 -36.7 45.4 -33.25 41.5 -31.15 39.15 -34.15 L39.65 -29.2 39.7 -28.6 39.7 -28.5 Q39.85 -24.05 39.1 -19.5 L37.7 -13.05 37.05 -10.3 35.9 -6.2 Q35.4 -4.55 32.55 -0.85 L28.7 4.1 26.3 7.1 25.55 7.8 24.65 8.4 24.9 1.15 25.0 1.25 25.4 1.05 Q26.1 -0.1 26.45 -1.3 27.05 -3.5 27.0 -5.6 L26.9 -8.1 Q28.15 -10.2 28.6 -12.75 29.15 -15.8 28.4 -18.7 L27.15 -22.05 25.25 -22.95 24.9 -23.1 24.35 -22.9 22.85 -21.5 20.95 -18.6 20.65 -18.8 17.9 -18.85 17.1 -19.15 Q16.2 -19.5 16.25 -21.7 16.25 -23.95 15.4 -24.25 12.65 -25.3 10.1 -26.65 7.3 -28.15 4.7 -30.2 1.05 -33.2 -2.3 -36.7 L-5.45 -40.3 Q-9.2 -44.85 -12.6 -49.8 L-18.0 -57.5 -18.25 -57.75 M-9.5 -60.25 Q-6.0 -51.3 0.3 -43.55 6.25 -36.3 14.55 -31.85 20.45 -28.7 27.0 -28.0 L25.25 -22.95 27.0 -28.0 Q20.45 -28.7 14.55 -31.85 6.25 -36.3 0.3 -43.55 -6.0 -51.3 -9.5 -60.25 M30.3 -50.35 Q24.8 -52.35 20.75 -56.75 24.8 -52.35 30.3 -50.35 M17.75 -27.25 Q16.95 -27.25 16.15 -27.6 L9.55 -30.5 Q0.25 -34.5 -4.65 -43.05 L-14.0 -60.0 -4.65 -43.05 Q0.25 -34.5 9.55 -30.5 L16.15 -27.6 Q16.95 -27.25 17.75 -27.25 M37.75 -36.5 Q36.45 -36.85 34.85 -37.9 27.2 -43.1 20.2 -49.15 13.75 -54.75 11.25 -62.5 13.75 -54.75 20.2 -49.15 27.2 -43.1 34.85 -37.9 36.45 -36.85 37.75 -36.5 M31.5 -30.0 Q28.5 -30.05 25.7 -31.35 17.15 -35.4 11.2 -42.65 L7.55 -46.55 Q-0.05 -53.55 -2.5 -62.75 -0.05 -53.55 7.55 -46.55 L11.2 -42.65 Q17.15 -35.4 25.7 -31.35 28.5 -30.05 31.5 -30.0 M34.1 -13.6 Q33.7 -14.15 34.2 -13.1 L34.1 -13.6 M34.75 -8.25 L28.4 -7.35 34.75 -8.25 M-27.25 -58.75 L-32.75 -53.0 -27.25 -58.75 M-20.5 -60.75 L-24.85 -57.35 Q-32.05 -51.05 -36.75 -42.75 -32.05 -51.05 -24.85 -57.35 L-20.5 -60.75 M46.3 -43.75 L44.2 -46.85 Q42.45 -49.45 39.4 -49.6 L38.8 -49.5 39.4 -49.6 Q42.45 -49.45 44.2 -46.85 L46.3 -43.75" fill="url(#gradient1)" fill-rule="evenodd" stroke="none"/>
      <path d="M22.55 -61.75 L19.3 -63.7 16.15 -65.45 Q12.75 -67.45 8.8 -68.9 L6.5 -69.3 Q-5.75 -69.0 -17.8 -67.05 -21.9 -66.35 -25.6 -64.05 -27.4 -62.9 -28.85 -61.2 L-31.65 -57.65 Q-33.65 -54.85 -34.85 -51.65 -36.45 -47.55 -37.65 -43.3 L-38.25 -40.4 Q-38.75 -36.35 -37.5 -32.25 -36.6 -33.45 -33.1 -40.4 -29.6 -47.4 -18.25 -57.75 M-18.0 -57.5 L-12.6 -49.8 Q-9.2 -44.85 -5.45 -40.3 L-2.3 -36.7 Q1.05 -33.2 4.7 -30.2 7.3 -28.15 10.1 -26.65 12.65 -25.3 15.4 -24.25 16.25 -23.95 16.25 -21.7 16.2 -19.5 17.1 -19.15 L17.9 -18.85 20.65 -18.8 M20.95 -18.6 L22.85 -21.5 24.35 -22.9 24.9 -23.1 25.25 -22.95 27.15 -22.05 28.4 -18.7 Q29.15 -15.8 28.6 -12.75 28.15 -10.2 26.9 -8.1 L27.0 -5.6 Q27.05 -3.5 26.45 -1.3 26.1 -0.1 25.4 1.05 L25.0 1.25 24.9 1.15 24.65 8.4 25.55 7.8 26.3 7.1 28.7 4.1 32.55 -0.85 Q35.4 -4.55 35.9 -6.2 L37.05 -10.3 37.7 -13.05 39.1 -19.5 Q39.85 -24.05 39.7 -28.5 M22.55 -61.75 L23.8 -60.95 27.85 -57.65 31.3 -53.65 Q33.1 -51.2 34.5 -48.45 36.05 -45.55 37.15 -42.35 38.25 -39.25 38.85 -35.95 L39.15 -34.15 Q41.5 -31.15 45.4 -33.25 51.65 -36.7 52.45 -44.4 54.15 -60.85 39.75 -66.85 27.15 -72.1 22.55 -61.75 M39.7 -28.6 L39.65 -29.2 39.15 -34.15" fill="none" stroke="#000000" stroke-linecap="round" stroke-linejoin="round" stroke-width="2.0"/>
      <path d="M20.75 -56.75 Q24.8 -52.35 30.3 -50.35 M39.7 -28.5 L39.7 -28.6 M34.1 -13.6 L34.2 -13.1 Q33.7 -14.15 34.1 -13.6 M28.4 -7.35 L34.75 -8.25" fill="none" stroke="#feda9e" stroke-linecap="round" stroke-linejoin="round" stroke-opacity="0.28235295" stroke-width="1.5"/>
      <path d="M27.3 -62.7 Q27.65 -64.3 29.6 -64.85 L33.1 -65.55 37.05 -65.35 Q38.7 -65.0 40.15 -64.25 L41.45 -63.35 42.55 -62.45 M33.05 -58.7 Q36.2 -59.8 39.4 -58.35 L44.0 -55.7 Q45.3 -54.8 46.1 -53.4 L46.8 -51.5 46.85 -50.9 M39.7 -28.6 Q33.8 -30.5 28.4 -33.55 21.2 -37.7 15.95 -44.2 8.7 -53.25 3.25 -63.5 L3.25 -64.5 M25.25 -22.95 L27.0 -28.0 Q20.45 -28.7 14.55 -31.85 6.25 -36.3 0.3 -43.55 -6.0 -51.3 -9.5 -60.25 M-2.5 -62.75 Q-0.05 -53.55 7.55 -46.55 L11.2 -42.65 Q17.15 -35.4 25.7 -31.35 28.5 -30.05 31.5 -30.0 M11.25 -62.5 Q13.75 -54.75 20.2 -49.15 27.2 -43.1 34.85 -37.9 36.45 -36.85 37.75 -36.5 M-14.0 -60.0 L-4.65 -43.05 Q0.25 -34.5 9.55 -30.5 L16.15 -27.6 Q16.95 -27.25 17.75 -27.25 M38.8 -49.5 L39.4 -49.6 Q42.45 -49.45 44.2 -46.85 L46.3 -43.75 M-36.75 -42.75 Q-32.05 -51.05 -24.85 -57.35 L-20.5 -60.75 M-32.75 -53.0 L-27.25 -58.75" fill="none" stroke="#ffffff" stroke-linecap="round" stroke-linejoin="round" stroke-opacity="0.28235295" stroke-width="1.5"/>
    </g>
    </g>
  </g>
  <defs>
    <radialGradient cx="0" cy="0" gradientTransform="matrix(0.0011, 0.109, -0.1487, 0.0014, -5.75, -50.55)" gradientUnits="userSpaceOnUse" id="gradient0" r="819.2" spreadMethod="pad">
      <stop offset="0.0" stop-color="#a37801"/>
      <stop offset="0.2196078431372549" stop-color="#ad7b01"/>
      <stop offset="0.34901960784313724" stop-color="#d0b486"/>
      <stop offset="0.5019607843137255" stop-color="#b48101"/>
      <stop offset="1.0" stop-color="#ba9101"/>
    </radialGradient>
    <radialGradient cx="0" cy="0" gradientTransform="matrix(0.0011, 0.109, -0.1487, 0.0014, -5.75, -50.55)" gradientUnits="userSpaceOnUse" id="gradient1" r="819.2" spreadMethod="pad">
      <stop offset="0.0" stop-color="#a0a0a0"/>
      <stop offset="0.2196078431372549" stop-color="#b6b6b6"/>
      <stop offset="0.34901960784313724" stop-color="#eaeaea"/>
      <stop offset="0.5019607843137255" stop-color="#b3b3b3"/>
      <stop offset="1.0" stop-color="#9a9a9a"/>
    </radialGradient>
  </defs>
</svg>