<svg xmlns:xlink="http://www.w3.org/1999/xlink" xmlns="http://www.w3.org/2000/svg" height="98.75px" width="161.15px">
  <g transform="matrix(1.0, 0.0, 0.0, 1.0, 83.0, 71.7)">
    <g data-characterId="1258" height="38.25" transform="matrix(1.0, 0.0, 0.0, 1.0, -54.75, -23.0)" width="122.8" xlink:href="#shape0"><g id="shape0" transform="matrix(1.0, 0.0, 0.0, 1.0, 54.75, 23.0)">
      <path d="M-7.5 0.0 Q-5.35 -4.65 -0.55 -5.75 L9.0 -7.95 13.85 -9.25 9.0 -7.95 -0.55 -5.75 Q-5.35 -4.65 -7.5 0.0 M24.5 -21.15 L23.9 -20.15 21.25 -17.0 Q18.0 -12.85 13.85 -9.25 10.0 -5.85 5.85 -3.15 0.9 0.0 -4.7 1.85 L-9.2 3.0 Q-13.6 3.8 -17.65 2.4 L-18.9 1.65 Q-22.85 -1.8 -24.45 -6.8 -25.9 -11.35 -26.55 -16.3 -23.45 -18.25 -21.55 -20.5 L-18.5 -19.3 Q-6.65 -14.3 3.05 -15.05 12.6 -15.8 24.0 -22.5 L24.5 -22.0 24.5 -21.15 M26.5 -16.2 L25.65 -17.75 27.55 -16.75 26.5 -16.2" fill="#ecc59d" fill-rule="evenodd" stroke="none"/>
      <path d="M-26.55 -16.3 Q-25.9 -11.35 -24.45 -6.8 -22.85 -1.8 -18.9 1.65 L-17.65 2.4 Q-13.6 3.8 -9.2 3.0 L-4.7 1.85 Q0.9 0.0 5.85 -3.15 10.0 -5.85 13.85 -9.25 18.0 -12.85 21.25 -17.0 L23.9 -20.15 24.5 -21.15 24.9 -22.05 24.95 -22.05 24.9 -22.05 24.5 -21.15 24.5 -22.0 24.7 -22.3 24.9 -22.05 25.35 -23.0 24.95 -22.05 Q31.0 -20.05 31.85 -16.9 L31.55 -16.6 31.45 -16.45 31.35 -16.3 31.1 -16.05 30.7 -15.65 27.55 -16.75 25.65 -17.75 26.5 -16.2 27.1 -14.0 27.1 -13.0 26.6 -12.2 Q25.15 -11.05 23.2 -10.8 21.9 -10.65 21.75 -9.6 L20.9 -5.7 Q20.55 -4.5 19.2 -4.1 L17.1 -4.15 14.65 -4.3 Q13.8 -3.8 13.3 -2.8 L11.8 0.1 10.9 1.15 Q8.8 2.65 7.0 0.75 6.1 2.65 4.7 3.75 4.0 4.3 3.15 4.5 L-0.75 4.75 Q-1.35 4.9 -1.8 5.3 L-3.35 6.6 Q-6.2 8.8 -9.0 6.55 -10.05 5.75 -11.15 6.25 L-12.95 6.95 Q-16.3 8.15 -19.25 5.85 L-19.25 4.75 -21.8 4.9 Q-23.45 4.8 -24.45 3.55 -25.75 2.0 -26.0 -0.2 L-30.35 -1.75 -29.25 -5.65 -32.45 -6.2 Q-33.15 -6.9 -32.8 -8.1 -32.3 -9.6 -30.75 -10.25 L-32.25 -11.8 -32.25 -13.45 Q-32.25 -14.65 -30.55 -15.45 -28.9 -16.3 -26.55 -16.3 M31.45 -16.45 L31.1 -16.05 31.45 -16.45" fill="#ffffff" fill-rule="evenodd" stroke="none"/>
      <path d="M-32.25 -13.45 L-32.25 -11.8 -30.75 -10.25 Q-32.3 -9.6 -32.8 -8.1 -33.15 -6.9 -32.45 -6.2 L-29.25 -5.65 -30.35 -1.75 -26.0 -0.2 Q-25.75 2.0 -24.45 3.55 -23.45 4.8 -21.8 4.9 L-19.25 4.75 -19.25 5.85 Q-16.3 8.15 -12.95 6.95 L-11.15 6.25 Q-10.05 5.75 -9.0 6.55 -6.2 8.8 -3.35 6.6 L-1.8 5.3 Q-1.35 4.9 -0.75 4.75 L3.15 4.5 Q4.0 4.3 4.7 3.75 6.1 2.65 7.0 0.75 8.8 2.65 10.9 1.15 L11.8 0.1 13.3 -2.8 Q13.8 -3.8 14.65 -4.3 L17.1 -4.15 19.2 -4.1 Q20.55 -4.5 20.9 -5.7 L21.75 -9.6 Q21.9 -10.65 23.2 -10.8 25.15 -11.05 26.6 -12.2 L27.1 -13.0 27.1 -14.0 26.5 -16.2 27.55 -16.75 30.7 -15.65 31.1 -16.05 31.35 -16.3 31.85 -16.85 31.85 -16.9 42.5 -13.4 Q53.1 -9.85 58.0 -7.1 62.9 -4.35 66.95 0.75 70.95 5.85 49.0 11.9 27.05 17.9 -2.6 11.3 -6.3 10.35 -10.1 10.75 -33.0 12.1 -43.1 10.45 -53.2 8.8 -54.15 3.6 -55.1 -1.6 -45.75 -6.65 -36.45 -11.7 -32.25 -13.45" fill="#ffb5ff" fill-rule="evenodd" stroke="none"/>
      <path d="M13.85 -9.25 L9.0 -7.95 -0.55 -5.75 Q-5.35 -4.65 -7.5 0.0" fill="none" stroke="#b9a882" stroke-linecap="round" stroke-linejoin="round" stroke-width="2.0"/>
      <path d="M24.5 -21.15 L23.9 -20.15 21.25 -17.0 Q18.0 -12.85 13.85 -9.25 10.0 -5.85 5.85 -3.15 0.9 0.0 -4.7 1.85 L-9.2 3.0 Q-13.6 3.8 -17.65 2.4 L-18.9 1.65 Q-22.85 -1.8 -24.45 -6.8 -25.9 -11.35 -26.55 -16.3 -28.9 -16.3 -30.55 -15.45 -32.25 -14.65 -32.25 -13.45 L-32.25 -11.8 -30.75 -10.25 Q-32.3 -9.6 -32.8 -8.1 -33.15 -6.9 -32.45 -6.2 L-29.25 -5.65 -30.35 -1.75 -26.0 -0.2 Q-25.75 2.0 -24.45 3.55 -23.45 4.8 -21.8 4.9 L-19.25 4.75 -19.25 5.85 Q-16.3 8.15 -12.95 6.95 L-11.15 6.25 Q-10.05 5.75 -9.0 6.55 -6.2 8.8 -3.35 6.6 L-1.8 5.3 Q-1.35 4.9 -0.75 4.75 L3.15 4.5 Q4.0 4.3 4.7 3.75 6.1 2.65 7.0 0.75 8.8 2.65 10.9 1.15 L11.8 0.1 13.3 -2.8 Q13.8 -3.8 14.65 -4.3 L17.1 -4.15 19.2 -4.1 Q20.55 -4.5 20.9 -5.7 L21.75 -9.6 Q21.9 -10.65 23.2 -10.8 25.15 -11.05 26.6 -12.2 L27.1 -13.0 27.1 -14.0 26.5 -16.2 25.65 -17.75 27.55 -16.75 30.7 -15.65 31.1 -16.05 31.45 -16.45 31.55 -16.6 31.85 -16.9 Q31.0 -20.05 24.95 -22.05 L24.9 -22.05 24.5 -21.15 M-21.55 -20.5 Q-23.45 -18.25 -26.55 -16.3 M31.35 -16.3 L31.45 -16.45 M-32.25 -13.45 Q-36.45 -11.7 -45.75 -6.65 -55.1 -1.6 -54.15 3.6 -53.2 8.8 -43.1 10.45 -33.0 12.1 -10.1 10.75 -6.3 10.35 -2.6 11.3 27.05 17.9 49.0 11.9 70.95 5.85 66.95 0.75 62.9 -4.35 58.0 -7.1 53.1 -9.85 42.5 -13.4 L31.85 -16.9 31.85 -16.85 31.35 -16.3" fill="none" stroke="#000000" stroke-linecap="round" stroke-linejoin="round" stroke-width="2.0"/>
    </g>
  </g>
  </g>
  <defs>
    </defs>
</svg>