<svg xmlns:xlink="http://www.w3.org/1999/xlink" xmlns="http://www.w3.org/2000/svg" height="202.2px" width="161.9px">
  <g transform="matrix(1.0, 0.0, 0.0, 1.0, 74.15, 81.7)">
    <g data-characterId="1427" height="158.95" transform="matrix(1.0, 0.0, 0.0, 1.0, -47.85, -74.0)" width="101.3" xlink:href="#shape0"><g id="shape0" transform="matrix(1.0, 0.0, 0.0, 1.0, 47.85, 74.0)">
      <path d="M-47.35 -12.05 Q-45.55 -31.25 -38.6 -49.35 -35.85 -56.5 -31.05 -62.7 -28.5 -65.95 -24.65 -67.8 -15.05 -72.35 -4.3 -73.45 L-1.2 -73.3 Q2.6 -72.35 5.05 -69.15 L5.2 -68.25 8.95 -65.65 Q11.55 -67.7 14.75 -67.45 15.7 -67.2 16.55 -66.65 25.85 -60.8 31.3 -50.85 36.65 -41.05 38.15 -29.9 L40.8 -8.65 Q43.0 11.2 50.35 29.85 52.1 34.4 52.6 39.35 54.15 55.55 48.65 70.65 51.0 60.9 47.5 51.5 47.5 60.75 44.55 69.6 41.75 78.15 35.55 84.0 40.3 71.45 36.0 58.5 34.25 65.55 29.9 71.4 24.55 78.45 17.8 84.45 L18.6 82.75 Q24.35 69.65 23.55 55.2 23.15 57.6 21.8 59.8 18.5 65.0 13.0 68.0 L16.3 63.1 16.75 61.05 16.9 60.35 17.9 54.2 Q19.3 44.9 19.0 35.5 18.7 27.4 16.2 19.8 L16.5 19.65 16.45 19.6 16.3 19.35 Q12.9 14.4 11.45 8.3 L8.95 -2.65 Q7.45 -9.1 5.55 -15.35 2.55 -25.15 0.0 -35.0 L1.0 -22.0 Q0.2 -22.8 -0.25 -23.7 -4.4 -31.95 -6.5 -41.0 L-5.0 -27.0 Q-9.2 -32.7 -10.05 -39.75 -10.65 -45.0 -13.05 -49.4 -13.95 -51.0 -15.2 -52.3 L-19.95 -52.2 Q-23.0 -49.3 -24.6 -45.4 -28.0 -36.95 -30.2 -28.05 -30.75 -25.95 -31.75 -23.95 -33.85 -19.75 -36.75 -16.05 L-39.35 -12.2 Q-43.4 -6.2 -44.3 1.0 L-44.5 3.0 -44.3 1.0 Q-43.4 -6.2 -39.35 -12.2 L-37.3 -11.95 Q-37.25 -8.65 -36.8 -5.4 -35.05 7.45 -30.1 19.5 -27.55 25.7 -24.0 31.75 L-22.75 33.35 Q-20.7 35.15 -18.0 34.7 -19.8 40.55 -20.45 46.6 -21.35 54.55 -20.5 62.5 L-25.9 51.55 Q-26.85 59.45 -25.5 67.25 -24.6 72.35 -23.1 76.85 L-24.35 76.05 -27.4 72.1 -27.65 71.6 -28.25 70.55 -28.4 70.25 -29.25 68.05 Q-32.95 56.75 -34.5 45.0 -35.75 50.85 -36.0 56.7 -36.45 66.45 -34.1 76.0 L-34.3 76.15 Q-37.05 72.65 -38.55 68.55 -39.55 65.85 -40.0 63.0 L-42.0 51.5 Q-43.95 60.7 -43.0 70.0 -46.35 65.5 -46.9 60.05 -47.8 50.5 -45.2 41.45 -42.5 32.1 -42.9 22.4 -43.3 12.8 -45.75 3.3 L-44.5 3.0 -45.75 3.25 -47.35 -10.0 -45.8 -11.65 -46.0 -4.5 -45.8 -11.65 -45.5 -12.0 -45.75 -12.0 -47.35 -12.05 M-25.0 -64.5 Q-26.0 -64.35 -26.6 -63.5 -31.5 -56.45 -34.6 -48.3 -37.35 -41.1 -40.25 -33.95 -43.75 -25.4 -45.2 -16.25 L-45.75 -12.0 -45.2 -16.25 Q-43.75 -25.4 -40.25 -33.95 -37.35 -41.1 -34.6 -48.3 -31.5 -56.45 -26.6 -63.5 -26.0 -64.35 -25.0 -64.5 M-10.5 -61.0 L1.0 -61.0 1.05 -62.35 5.5 -64.5 1.05 -62.35 1.0 -61.0 -10.5 -61.0 M12.5 -42.0 L13.45 -40.25 Q17.7 -31.4 18.0 -21.5 17.7 -31.4 13.45 -40.25 L12.5 -42.0 M22.0 -43.5 Q23.3 -39.35 24.1 -35.1 25.7 -26.85 26.0 -18.5 25.7 -26.85 24.1 -35.1 23.3 -39.35 22.0 -43.5 M30.0 -44.5 L30.75 -42.7 Q33.65 -35.3 32.5 -27.5 33.65 -35.3 30.75 -42.7 L30.0 -44.5 M6.5 -32.5 L9.65 -14.0 Q10.7 -7.95 12.45 -1.8 14.75 6.35 18.5 14.0 14.75 6.35 12.45 -1.8 10.7 -7.95 9.65 -14.0 L6.5 -32.5 M20.0 24.5 L15.7 15.4 Q13.7 11.25 12.55 6.85 L10.6 -0.5 Q8.55 -8.0 7.2 -15.55 5.5 -25.0 2.0 -34.0 5.5 -25.0 7.2 -15.55 8.55 -8.0 10.6 -0.5 L12.55 6.85 Q13.7 11.25 15.7 15.4 L20.0 24.5 M18.0 10.5 Q14.45 5.5 13.2 -0.4 11.1 -10.2 10.0 -19.95 L8.0 -35.5 10.0 -19.95 Q11.1 -10.2 13.2 -0.4 14.45 5.5 18.0 10.5 M12.5 -19.0 Q14.2 -11.3 16.6 -3.9 19.5 5.2 22.75 14.2 24.85 20.05 28.85 24.65 24.85 20.05 22.75 14.2 19.5 5.2 16.6 -3.9 14.2 -11.3 12.5 -19.0 M28.85 24.65 L23.6 10.85 Q20.35 2.75 18.35 -5.95 16.25 -14.9 13.0 -23.5 16.25 -14.9 18.35 -5.95 20.35 2.75 23.6 10.85 L28.85 24.65 33.5 29.0 28.85 24.65 Q31.1 29.65 35.3 33.1 L36.5 34.0 35.3 33.1 Q31.1 29.65 28.85 24.65 M22.25 21.1 L28.5 35.45 Q25.3 33.7 23.0 30.75 19.05 25.6 16.5 19.65 19.05 25.6 23.0 30.75 25.3 33.7 28.5 35.45 L22.25 21.1 22.8 20.85 20.0 16.0 22.25 21.1 M32.5 7.5 L34.25 12.05 Q38.5 23.2 47.5 31.0 38.35 27.55 31.5 20.5 L33.85 24.7 Q39.3 33.6 46.85 40.75 43.3 40.2 39.9 38.75 37.0 37.45 34.6 35.4 27.45 29.2 22.8 20.85 27.45 29.2 34.6 35.4 37.0 37.45 39.9 38.75 43.3 40.2 46.85 40.75 39.3 33.6 33.85 24.7 L31.5 20.5 Q38.35 27.55 47.5 31.0 38.5 23.2 34.25 12.05 L32.5 7.5 M39.0 24.5 Q36.15 22.85 34.35 20.1 31.65 16.05 29.75 11.4 26.15 2.65 24.5 -6.5 26.15 2.65 29.75 11.4 31.65 16.05 34.35 20.1 36.15 22.85 39.0 24.5 M22.5 34.0 Q22.1 41.9 20.55 49.55 19.45 55.15 16.9 60.35 19.45 55.15 20.55 49.55 22.1 41.9 22.5 34.0 M29.0 35.5 L28.5 35.45 29.0 35.5 M21.5 78.5 Q24.2 75.45 25.0 71.65 L29.0 52.5 25.0 71.65 Q24.2 75.45 21.5 78.5 M39.5 76.5 L40.0 72.8 Q40.35 69.0 39.95 65.3 39.4 60.65 39.5 56.0 39.4 60.65 39.95 65.3 40.35 69.0 40.0 72.8 L39.5 76.5 M50.5 56.5 L50.5 53.5 50.5 56.5 M-14.5 -57.0 L-11.95 -57.7 -12.0 -59.5 -11.95 -57.7 -14.5 -57.0 M-26.0 -54.5 Q-29.5 -48.9 -31.45 -42.8 L-36.95 -24.85 Q-39.3 -17.1 -45.5 -12.0 -39.3 -17.1 -36.95 -24.85 L-31.45 -42.8 Q-29.5 -48.9 -26.0 -54.5 M-43.5 -11.0 Q-40.75 -13.15 -39.7 -16.4 L-38.55 -18.8 Q-34.35 -25.05 -31.5 -32.0 -30.6 -34.25 -30.1 -36.6 -28.2 -45.7 -25.0 -54.5 -28.2 -45.7 -30.1 -36.6 -30.6 -34.25 -31.5 -32.0 -34.35 -25.05 -38.55 -18.8 L-39.7 -16.4 Q-40.75 -13.15 -43.5 -11.0 M-8.0 -36.0 Q-9.6 -40.25 -9.8 -45.0 -10.0 -50.1 -13.5 -54.0 -10.0 -50.1 -9.8 -45.0 -9.6 -40.25 -8.0 -36.0 M-5.0 -41.5 L-4.9 -40.0 Q-4.3 -34.4 -1.5 -29.5 -4.3 -34.4 -4.9 -40.0 L-5.0 -41.5 M-44.5 65.0 L-45.15 59.55 Q-45.7 50.7 -42.6 42.35 -39.5 33.85 -40.5 25.0 -41.15 19.55 -41.25 14.0 -41.3 10.05 -42.5 6.5 -41.3 10.05 -41.25 14.0 -41.15 19.55 -40.5 25.0 -39.5 33.85 -42.6 42.35 -45.7 50.7 -45.15 59.55 L-44.5 65.0 M-41.5 -22.5 L-33.0 -46.0 -41.5 -22.5 M-37.0 69.0 L-38.4 65.4 Q-41.0 56.1 -39.5 46.5 -41.0 56.1 -38.4 65.4 L-37.0 69.0 M-31.5 45.5 L-30.65 55.95 Q-30.15 61.6 -29.25 67.2 L-28.4 70.25 -29.25 67.2 Q-30.15 61.6 -30.65 55.95 L-31.5 45.5" fill="url(#gradient0)" fill-rule="evenodd" stroke="none"/>
      <path d="M16.75 61.05 L16.3 63.1 13.0 68.0 Q18.5 65.0 21.8 59.8 23.15 57.6 23.55 55.2 24.35 69.65 18.6 82.75 L17.8 84.45 Q24.55 78.45 29.9 71.4 34.25 65.55 36.0 58.5 40.3 71.45 35.55 84.0 41.75 78.15 44.55 69.6 47.5 60.75 47.5 51.5 51.0 60.9 48.65 70.65 54.15 55.55 52.6 39.35 52.1 34.4 50.35 29.85 43.0 11.2 40.8 -8.65 L38.15 -29.9 Q36.65 -41.05 31.3 -50.85 25.85 -60.8 16.55 -66.65 15.7 -67.2 14.75 -67.45 11.55 -67.7 8.95 -65.65 L5.2 -68.25 5.05 -69.15 Q2.6 -72.35 -1.2 -73.3 L-4.3 -73.45 Q-15.05 -72.35 -24.65 -67.8 -28.5 -65.95 -31.05 -62.7 -35.85 -56.5 -38.6 -49.35 -45.55 -31.25 -47.35 -12.05 L-47.35 -10.0 -45.75 3.25 -45.75 3.3 Q-43.3 12.8 -42.9 22.4 -42.5 32.1 -45.2 41.45 -47.8 50.5 -46.9 60.05 -46.35 65.5 -43.0 70.0 -43.95 60.7 -42.0 51.5 L-40.0 63.0 Q-39.55 65.85 -38.55 68.55 -37.05 72.65 -34.3 76.15 L-34.1 76.3 -34.1 76.0 Q-36.45 66.45 -36.0 56.7 -35.75 50.85 -34.5 45.0 -32.95 56.75 -29.25 68.05 L-28.4 70.25 M5.5 -64.5 L1.05 -62.35 1.0 -61.0 -10.5 -61.0 M18.5 14.0 Q14.75 6.35 12.45 -1.8 10.7 -7.95 9.65 -14.0 L6.5 -32.5 M28.85 24.65 Q24.85 20.05 22.75 14.2 19.5 5.2 16.6 -3.9 14.2 -11.3 12.5 -19.0 M28.85 24.65 L33.5 29.0 M-39.35 -12.2 L-36.75 -16.05 Q-33.85 -19.75 -31.75 -23.95 -30.75 -25.95 -30.2 -28.05 -28.0 -36.95 -24.6 -45.4 -23.0 -49.3 -19.95 -52.2 L-15.2 -52.3 Q-13.95 -51.0 -13.05 -49.4 -10.65 -45.0 -10.05 -39.75 -9.2 -32.7 -5.0 -27.0 L-6.5 -41.0 Q-4.4 -31.95 -0.25 -23.7 0.2 -22.8 1.0 -22.0 L0.0 -35.0 Q2.55 -25.15 5.55 -15.35 7.45 -9.1 8.95 -2.65 L11.45 8.3 Q12.9 14.4 16.3 19.35 L16.45 19.6 16.5 19.65 Q19.05 25.6 23.0 30.75 25.3 33.7 28.5 35.45 L22.25 21.1 20.0 16.0 22.8 20.85 Q27.45 29.2 34.6 35.4 37.0 37.45 39.9 38.75 43.3 40.2 46.85 40.75 39.3 33.6 33.85 24.7 L31.5 20.5 Q38.35 27.55 47.5 31.0 38.5 23.2 34.25 12.05 L32.5 7.5 M16.2 19.8 Q18.7 27.4 19.0 35.5 19.3 44.9 17.9 54.2 L16.9 60.35 M16.3 19.35 L16.2 19.8 16.45 19.6 M28.5 35.45 L29.0 35.5 M-12.0 -59.5 L-11.95 -57.7 -14.5 -57.0 M-45.5 -12.0 Q-39.3 -17.1 -36.95 -24.85 L-31.45 -42.8 Q-29.5 -48.9 -26.0 -54.5 M-44.5 3.0 L-44.3 1.0 Q-43.4 -6.2 -39.35 -12.2 M-37.3 -11.95 L-36.75 -16.05 M-27.65 71.6 L-27.4 72.1 -24.35 76.05 -23.1 76.85 Q-24.6 72.35 -25.5 67.25 -26.85 59.45 -25.9 51.55 L-20.5 62.5 Q-21.35 54.55 -20.45 46.6 -19.8 40.55 -18.0 34.7 -20.7 35.15 -22.75 33.35 L-24.0 31.75 Q-27.55 25.7 -30.1 19.5 -35.05 7.45 -36.8 -5.4 -37.25 -8.65 -37.3 -11.95" fill="none" stroke="#000000" stroke-linecap="round" stroke-linejoin="round" stroke-width="2.0"/>
      <path d="M-45.75 -12.0 L-45.2 -16.25 Q-43.75 -25.4 -40.25 -33.95 -37.35 -41.1 -34.6 -48.3 -31.5 -56.45 -26.6 -63.5 -26.0 -64.35 -25.0 -64.5 M32.5 -27.5 Q33.65 -35.3 30.75 -42.7 L30.0 -44.5 M26.0 -18.5 Q25.7 -26.85 24.1 -35.1 23.3 -39.35 22.0 -43.5 M18.0 -21.5 Q17.7 -31.4 13.45 -40.25 L12.5 -42.0 M8.0 -35.5 L10.0 -19.95 Q11.1 -10.2 13.2 -0.4 14.45 5.5 18.0 10.5 M2.0 -34.0 Q5.5 -25.0 7.2 -15.55 8.55 -8.0 10.6 -0.5 L12.55 6.85 Q13.7 11.25 15.7 15.4 L20.0 24.5 M13.0 -23.5 Q16.25 -14.9 18.35 -5.95 20.35 2.75 23.6 10.85 L28.85 24.65 Q31.1 29.65 35.3 33.1 L36.5 34.0 M24.5 -6.5 Q26.15 2.65 29.75 11.4 31.65 16.05 34.35 20.1 36.15 22.85 39.0 24.5 M16.9 60.35 Q19.45 55.15 20.55 49.55 22.1 41.9 22.5 34.0 M39.5 56.0 Q39.4 60.65 39.95 65.3 40.35 69.0 40.0 72.8 L39.5 76.5 M29.0 52.5 L25.0 71.65 Q24.2 75.45 21.5 78.5 M16.9 60.35 L16.75 61.05 M50.5 53.5 L50.5 56.5 M-45.8 -11.65 L-46.0 -4.5 M-45.8 -11.65 L-45.75 -12.0 M-1.5 -29.5 Q-4.3 -34.4 -4.9 -40.0 L-5.0 -41.5 M-13.5 -54.0 Q-10.0 -50.1 -9.8 -45.0 -9.6 -40.25 -8.0 -36.0 M-25.0 -54.5 Q-28.2 -45.7 -30.1 -36.6 -30.6 -34.25 -31.5 -32.0 -34.35 -25.05 -38.55 -18.8 L-39.7 -16.4 Q-40.75 -13.15 -43.5 -11.0 M-33.0 -46.0 L-41.5 -22.5 M-42.5 6.5 Q-41.3 10.05 -41.25 14.0 -41.15 19.55 -40.5 25.0 -39.5 33.85 -42.6 42.35 -45.7 50.7 -45.15 59.55 L-44.5 65.0 M-28.4 70.25 L-29.25 67.2 Q-30.15 61.6 -30.65 55.95 L-31.5 45.5 M-39.5 46.5 Q-41.0 56.1 -38.4 65.4 L-37.0 69.0 M-28.4 70.25 L-28.25 70.55 -27.65 71.6" fill="none" stroke="#ecc6aa" stroke-linecap="round" stroke-linejoin="round" stroke-width="2.0"/>
    </g>
    </g>
  </g>
  <defs>
    <radialGradient cx="0" cy="0" gradientTransform="matrix(0.0012, 0.1332, -0.2571, 0.0023, -7.5, -61.0)" gradientUnits="userSpaceOnUse" id="gradient0" r="819.2" spreadMethod="pad">
      <stop offset="0.0" stop-color="#6c4948"/>
      <stop offset="0.21176470588235294" stop-color="#a06a63"/>
      <stop offset="0.3176470588235294" stop-color="#ecc6aa"/>
      <stop offset="0.4" stop-color="#b1684e"/>
      <stop offset="0.8941176470588236" stop-color="#936045"/>
      <stop offset="1.0" stop-color="#654332"/>
    </radialGradient>
  </defs>
</svg>