<svg xmlns:xlink="http://www.w3.org/1999/xlink" xmlns="http://www.w3.org/2000/svg" height="16.65px" width="27.9px">
  <g transform="matrix(1.0, 0.0, 0.0, 1.0, 11.2, 8.0)">
    <g data-characterId="1329" height="8.1" transform="matrix(1.0, 0.0, 0.0, 1.0, -10.25, -3.2)" width="19.75" xlink:href="#shape0"><g id="shape0" transform="matrix(1.0, 0.0, 0.0, 1.0, 10.25, 3.2)">
      <path d="M5.95 -0.65 L5.9 -0.7 5.95 -1.0 5.95 -0.7 5.95 -0.65 M-9.2 -0.95 L-9.35 -1.1 -10.15 -0.95 -9.6 -1.45 -9.2 -0.95" fill="#e6b380" fill-rule="evenodd" stroke="none"/>
      <path d="M5.9 -0.7 L5.95 -0.65 6.75 -0.5 6.85 -0.45 6.95 -0.35 7.0 -0.15 7.05 -0.05 7.0 0.0 6.95 0.2 6.95 0.3 6.7 0.7 Q1.9 2.6 -2.95 3.8 -8.1 5.05 -9.8 0.4 -10.1 -0.45 -9.25 -0.55 L-8.4 -0.5 -3.85 -0.35 -1.7 -0.65 -0.75 -0.9 -0.05 -1.1 0.85 -1.3 5.9 -0.7 M-1.7 1.1 L-1.8 1.0 -6.65 0.85 -6.7 0.65 -7.0 0.3 -7.25 0.2 -7.45 0.25 -7.7 0.5 -7.85 0.75 -7.8 1.35 -7.45 1.7 Q-6.35 2.5 -4.95 2.7 -2.35 3.0 -1.7 1.1" fill="#4f5c66" fill-rule="evenodd" stroke="none"/>
      <path d="M5.95 -1.0 L5.9 -0.7 0.85 -1.3 -0.05 -1.1 -0.75 -0.9 -1.85 -1.25 -2.0 -0.95 -2.05 -0.85 Q-2.45 -0.65 -2.9 -0.6 L-3.85 -0.35 -8.4 -0.5 Q-8.8 -0.65 -9.2 -0.95 L-9.6 -1.45 -7.75 -2.8 -7.25 -2.95 Q-6.7 -2.85 -6.35 -2.35 L-6.25 -2.3 -4.85 -2.2 -3.7 -3.1 -3.5 -3.2 Q0.6 -1.7 5.0 -1.45 5.6 -1.4 5.95 -1.0" fill="#3a4549" fill-rule="evenodd" stroke="none"/>
      <path d="M-1.7 1.1 Q-2.35 3.0 -4.95 2.7 -6.35 2.5 -7.45 1.7 L-7.8 1.35 -7.85 0.75 -7.7 0.5 -7.45 0.25 -7.25 0.2 -7.0 0.3 -6.7 0.65 -6.65 0.85 -1.8 1.0 -1.7 1.1" fill="#8d9ca7" fill-rule="evenodd" stroke="none"/>
      <path d="M-9.75 -0.5 L-9.05 -0.85 -8.6 -0.9 Q-5.3 0.4 -1.85 -0.55 L0.55 -0.9 6.75 -0.55 9.0 0.75" fill="none" stroke="#000000" stroke-linecap="round" stroke-linejoin="round" stroke-width="2.0"/>
      <path d="M-5.25 4.0 Q-4.55 4.4 -3.75 4.4 L-3.15 4.3 -2.9 4.25 -2.65 4.15" fill="none" stroke="#3a4549" stroke-linecap="round" stroke-linejoin="round" stroke-width="2.0"/>
    </g>
  </g>
  </g>
  <defs>
    </defs>
</svg>