<svg xmlns:xlink="http://www.w3.org/1999/xlink" xmlns="http://www.w3.org/2000/svg" height="16.65px" width="27.9px">
  <g transform="matrix(1.0, 0.0, 0.0, 1.0, 11.2, 8.0)">
    <g data-characterId="1308" height="14.5" transform="matrix(1.0, 0.0, 0.0, 1.0, -9.95, -8.0)" width="26.65" xlink:href="#shape0"><g id="shape0" transform="matrix(1.0, 0.0, 0.0, 1.0, 9.95, 8.0)">
      <path d="M11.75 -2.65 Q7.4 -0.65 2.7 -0.95 -2.05 0.5 -7.1 -0.85 -7.95 -0.8 -8.1 -1.5 -9.05 -1.35 -9.95 -1.9 L-9.9 -2.0 -9.9 -2.2 -9.85 -2.3 Q-8.5 -2.55 -7.3 -3.15 -6.65 -3.75 -5.75 -3.85 -3.25 -2.05 -0.55 -3.75 L0.0 -3.8 Q5.3 -1.95 10.65 -3.7 L11.95 -4.1 Q12.7 -4.35 13.35 -4.85 L13.6 -4.9 13.85 -4.85 14.0 -4.75 14.15 -4.55 14.25 -4.3 Q13.6 -2.7 11.75 -2.65" fill="#d18a70" fill-rule="evenodd" stroke="none"/>
      <path d="M5.05 4.8 L2.5 5.3 Q-1.75 6.35 -5.75 5.1 -6.75 4.8 -7.5 4.05 L-8.15 2.85 -8.15 2.5 -7.4 2.4 Q-5.0 1.65 -2.35 2.35 L3.75 2.8 5.0 2.7 Q10.55 2.2 14.35 -1.8 14.9 -0.8 13.85 0.3 10.3 3.95 5.05 4.8 M1.15 3.95 L1.05 3.9 -5.15 3.35 -5.3 3.4 -5.45 3.5 -5.8 3.65 -5.85 3.75 -5.85 3.85 -5.8 4.05 -5.5 4.15 -5.35 4.15 -5.2 4.1 0.8 4.5 1.05 4.25 1.05 4.15 1.15 3.95" fill="#dda991" fill-rule="evenodd" stroke="none"/>
      <path d="M1.15 3.95 L1.05 4.15 1.05 4.25 0.8 4.5 -5.2 4.1 -5.35 4.15 -5.5 4.15 -5.8 4.05 -5.85 3.85 -5.85 3.75 -5.8 3.65 -5.45 3.5 -5.3 3.4 -5.15 3.35 1.05 3.9 1.15 3.95" fill="#e8c2b5" fill-rule="evenodd" stroke="none"/>
      <path d="M-8.5 -1.45 L-4.05 -0.7 2.5 -1.15 Q5.15 -1.3 7.75 -2.0 9.85 -2.5 11.6 -3.6 13.8 -4.6 15.5 -6.0 16.4 -6.75 16.5 -8.0 16.9 -6.6 16.45 -5.15 L16.05 -4.5 15.7 -3.85 14.5 -1.45 Q13.25 0.55 11.15 1.55 L10.6 1.75 6.95 2.8 3.75 2.95 -7.95 2.5 -8.0 2.5 -7.45 1.1 -8.45 -0.1 -8.5 -1.45 M0.0 1.5 L2.3 0.55 3.6 1.45 9.5 1.0 3.6 1.45 2.3 0.55 0.0 1.5" fill="#ffffff" fill-rule="evenodd" stroke="none"/>
      <path d="M-8.5 -1.45 L-4.05 -0.7 2.5 -1.15 Q5.15 -1.3 7.75 -2.0 9.85 -2.5 11.6 -3.6 13.8 -4.6 15.5 -6.0 16.4 -6.75 16.5 -8.0 16.9 -6.6 16.45 -5.15 L16.05 -4.5 15.7 -3.85 14.5 -1.45 Q13.25 0.55 11.15 1.55 L10.6 1.75 6.95 2.8 3.75 2.95 -7.95 2.5 -8.0 2.5 -7.45 1.1 -8.45 -0.1 -8.5 -1.45 -9.65 -1.85" fill="none" stroke="#000000" stroke-linecap="round" stroke-linejoin="round" stroke-width="1.5"/>
      <path d="M-2.5 5.9 L-0.15 6.0 0.6 5.9 1.5 5.5" fill="none" stroke="#aa7948" stroke-linecap="round" stroke-linejoin="round" stroke-width="2.0"/>
      <path d="M9.5 1.0 L3.6 1.45 2.3 0.55 0.0 1.5" fill="none" stroke="#999999" stroke-linecap="round" stroke-linejoin="round" stroke-width="1.5"/>
    </g>
  </g>
  </g>
  <defs>
    </defs>
</svg>