<svg xmlns:xlink="http://www.w3.org/1999/xlink" xmlns="http://www.w3.org/2000/svg" height="202.2px" width="161.9px">
  <g transform="matrix(1.0, 0.0, 0.0, 1.0, 74.15, 81.7)">
    <g data-characterId="1435" height="160.6" transform="matrix(1.0, 0.0, 0.0, 1.0, -42.3, -73.1)" width="103.2" xlink:href="#shape0"><g id="shape0" transform="matrix(1.0, 0.0, 0.0, 1.0, 42.3, 73.1)">
      <path d="M30.5 -54.5 Q30.55 -53.65 30.9 -52.95 31.55 -51.65 32.55 -50.5 L35.35 -46.7 Q39.05 -40.7 41.5 -34.0 39.05 -40.7 35.35 -46.7 L32.55 -50.5 Q31.55 -51.65 30.9 -52.95 30.55 -53.65 30.5 -54.5 M-3.5 -54.0 L3.6 -52.9 Q5.1 -52.85 6.4 -52.0 8.15 -50.85 9.95 -50.05 14.25 -48.15 17.1 -44.35 23.15 -36.2 25.5 -26.5 23.15 -36.2 17.1 -44.35 14.25 -48.15 9.95 -50.05 8.15 -50.85 6.4 -52.0 5.1 -52.85 3.6 -52.9 L-3.5 -54.0 M-15.4 54.95 L-9.5 61.0 -18.75 57.2 Q-21.8 56.0 -24.0 53.5 -23.4 56.6 -21.95 59.5 -18.9 65.65 -12.5 68.0 L-16.6 67.65 Q-22.7 66.85 -28.0 63.5 -27.95 66.85 -26.65 69.7 -25.15 72.95 -22.0 75.0 L-26.05 73.85 Q-28.9 72.85 -31.3 70.95 -35.95 67.25 -37.5 61.5 L-40.0 76.0 Q-41.3 71.9 -41.35 67.5 -41.4 58.15 -40.45 48.85 -40.05 44.9 -39.95 40.95 -39.7 31.7 -40.35 22.5 L-41.0 12.0 -41.7 -7.75 -41.75 -26.25 -41.4 -38.85 Q-41.0 -48.15 -36.4 -56.35 -31.9 -64.45 -24.15 -69.2 -19.05 -72.3 -13.15 -72.5 L-9.15 -72.6 5.0 -72.45 Q13.9 -72.0 21.85 -67.5 26.35 -64.95 30.15 -61.75 33.4 -59.1 35.8 -55.55 41.25 -47.65 44.0 -38.5 44.75 -35.95 45.0 -33.35 45.65 -26.5 45.85 -19.65 L46.2 -0.5 Q46.25 6.55 46.7 13.8 47.3 23.45 49.65 32.95 51.9 42.0 55.1 50.7 L55.5 50.5 56.65 51.8 Q60.3 56.2 60.4 61.9 L59.85 61.95 Q58.05 58.8 55.05 56.7 L54.0 56.0 Q59.2 67.4 57.05 79.65 53.7 72.75 48.0 67.5 47.6 76.0 52.55 82.65 L55.25 85.85 Q45.2 80.85 38.9 71.95 38.05 70.8 37.7 69.3 34.25 76.65 36.85 83.9 37.45 85.5 38.5 87.0 28.25 81.9 25.85 70.4 L24.85 65.0 22.0 74.5 Q19.3 56.2 21.35 37.85 L22.15 28.75 Q22.85 18.3 24.6 12.5 26.35 6.7 26.35 4.05 26.3 1.35 26.65 -2.25 31.6 -2.35 31.4 -7.6 31.35 -9.0 32.0 -10.5 33.55 -14.2 33.65 -18.3 33.75 -23.65 29.0 -26.25 L25.55 -23.3 25.0 -23.5 22.05 -30.8 Q19.8 -36.4 16.1 -41.0 L14.7 -42.6 Q11.15 -46.55 6.7 -48.8 L6.0 -49.5 6.7 -48.8 Q3.2 -50.6 -0.85 -51.4 -6.65 -52.45 -12.25 -50.65 -22.0 -47.65 -31.75 -50.75 L-34.3 -46.1 Q-37.15 -41.0 -37.35 -35.2 L-37.25 -30.4 -36.65 -23.9 Q-36.05 -17.0 -37.05 -10.15 -37.25 -8.65 -36.95 -7.1 -34.35 7.8 -28.8 22.0 -26.95 26.65 -24.1 30.9 -21.55 34.6 -17.0 35.1 L-17.5 38.65 Q-18.5 47.2 -15.4 54.95 -18.2 54.05 -20.0 51.75 -24.95 45.4 -26.5 37.5 -24.95 45.4 -20.0 51.75 -18.2 54.05 -15.4 54.95 M22.5 -55.5 Q24.05 -52.25 26.4 -49.3 30.0 -44.9 32.6 -40.05 35.3 -35.0 36.5 -29.5 35.3 -35.0 32.6 -40.05 30.0 -44.9 26.4 -49.3 24.05 -52.25 22.5 -55.5 M10.0 -59.0 Q16.05 -54.35 20.65 -48.05 26.4 -40.1 31.0 -31.5 26.4 -40.1 20.65 -48.05 16.05 -54.35 10.0 -59.0 M13.5 -45.5 Q15.2 -43.45 16.1 -41.0 15.2 -43.45 13.5 -45.5 M55.5 51.5 L55.1 50.7 55.5 51.5 M33.0 76.5 Q29.75 73.65 28.95 69.4 27.65 62.75 27.3 55.9 26.8 46.8 28.0 38.0 26.8 46.8 27.3 55.9 27.65 62.75 28.95 69.4 29.75 73.65 33.0 76.5 M29.0 0.5 Q29.35 4.5 28.35 8.2 27.0 13.05 26.0 17.95 L24.85 24.0 Q23.65 31.0 23.8 38.15 23.9 42.2 23.5 46.05 22.5 55.55 23.0 65.0 22.5 55.55 23.5 46.05 23.9 42.2 23.8 38.15 23.65 31.0 24.85 24.0 L26.0 17.95 Q27.0 13.05 28.35 8.2 29.35 4.5 29.0 0.5 M41.5 15.5 L43.0 9.5 41.5 15.5 M31.0 35.0 L31.0 32.0 Q31.15 23.15 33.45 14.5 35.65 6.2 38.1 -2.0 40.1 -8.6 41.0 -15.5 40.1 -8.6 38.1 -2.0 35.65 6.2 33.45 14.5 31.15 23.15 31.0 32.0 L31.0 35.0 M-29.0 -57.5 L-27.55 -57.55 Q-22.2 -58.05 -17.35 -55.6 -22.2 -58.05 -27.55 -57.55 L-29.0 -57.5 M-40.5 67.5 Q-40.15 60.15 -38.6 53.1 L-37.4 46.5 Q-36.0 36.75 -36.25 26.8 -36.5 17.65 -37.5 8.55 -38.5 -0.45 -39.05 -9.5 L-39.05 -14.0 Q-38.7 -20.2 -39.2 -26.5 -39.85 -34.2 -39.0 -41.85 -38.5 -46.3 -36.25 -50.05 -33.75 -54.2 -31.7 -58.8 -27.75 -67.45 -18.65 -69.75 -17.35 -70.0 -16.2 -70.65 L-14.0 -70.5 -16.2 -70.65 Q-17.35 -70.0 -18.65 -69.75 -27.75 -67.45 -31.7 -58.8 -33.75 -54.2 -36.25 -50.05 -38.5 -46.3 -39.0 -41.85 -39.85 -34.2 -39.2 -26.5 -38.7 -20.2 -39.05 -14.0 L-39.05 -9.5 Q-38.5 -0.45 -37.5 8.55 -36.5 17.65 -36.25 26.8 -36.0 36.75 -37.4 46.5 L-38.6 53.1 Q-40.15 60.15 -40.5 67.5 M46.0 77.5 L43.2 73.55 Q37.95 65.7 36.5 56.45 35.25 48.25 34.5 40.0 35.25 48.25 36.5 56.45 37.95 65.7 43.2 73.55 L46.0 77.5 M54.0 71.5 Q50.65 68.05 48.25 63.8 43.7 55.85 41.5 47.0 43.7 55.85 48.25 63.8 50.65 68.05 54.0 71.5 M-17.5 -54.5 L-9.4 -55.4 -14.5 -59.0 -7.5 -61.0 -10.95 -63.0 -7.5 -64.5 -8.25 -65.8 -9.45 -66.45 -7.1 -67.6 -9.45 -66.45 -8.25 -65.8 -7.5 -64.5 -10.95 -63.0 -7.5 -61.0 -14.5 -59.0 -9.4 -55.4 -17.5 -54.5 M-21.0 -63.0 L-18.0 -63.5 -21.0 -63.0 M-19.5 64.0 Q-21.85 63.35 -23.8 61.8 -30.75 56.45 -31.0 47.5 -30.75 56.45 -23.8 61.8 -21.85 63.35 -19.5 64.0 M-27.5 71.5 L-28.15 70.8 Q-33.95 62.55 -34.0 52.5 -33.95 62.55 -28.15 70.8 L-27.5 71.5" fill="url(#gradient0)" fill-rule="evenodd" stroke="none"/>
      <path d="M55.1 50.7 Q51.9 42.0 49.65 32.95 47.3 23.45 46.7 13.8 46.25 6.55 46.2 -0.5 L45.85 -19.65 Q45.65 -26.5 45.0 -33.35 44.75 -35.95 44.0 -38.5 41.25 -47.65 35.8 -55.55 33.4 -59.1 30.15 -61.75 26.35 -64.95 21.85 -67.5 13.9 -72.0 5.0 -72.45 L-9.15 -72.6 -13.15 -72.5 Q-19.05 -72.3 -24.15 -69.2 -31.9 -64.45 -36.4 -56.35 -41.0 -48.15 -41.4 -38.85 L-41.75 -26.25 -41.7 -7.75 -41.0 12.0 -40.35 22.5 Q-39.7 31.7 -39.95 40.95 -40.05 44.9 -40.45 48.85 -41.4 58.15 -41.35 67.5 -41.3 71.9 -40.0 76.0 L-37.5 61.5 Q-35.95 67.25 -31.3 70.95 -28.9 72.85 -26.05 73.85 L-22.0 75.0 Q-25.15 72.95 -26.65 69.7 -27.95 66.85 -28.0 63.5 -22.7 66.85 -16.6 67.65 L-12.5 68.0 Q-18.9 65.65 -21.95 59.5 -23.4 56.6 -24.0 53.5 -21.8 56.0 -18.75 57.2 L-9.5 61.0 -15.4 54.95 Q-18.5 47.2 -17.5 38.65 L-17.0 35.1 Q-21.55 34.6 -24.1 30.9 -26.95 26.65 -28.8 22.0 -34.35 7.8 -36.95 -7.1 -37.25 -8.65 -37.05 -10.15 -36.05 -17.0 -36.65 -23.9 L-37.25 -30.4 -37.35 -35.2 Q-37.15 -41.0 -34.3 -46.1 L-31.75 -50.75 M29.0 -26.25 Q33.75 -23.65 33.65 -18.3 33.55 -14.2 32.0 -10.5 31.35 -9.0 31.4 -7.6 31.6 -2.35 26.65 -2.25 26.3 1.35 26.35 4.05 26.35 6.7 24.6 12.5 22.85 18.3 22.15 28.75 L21.35 37.85 Q19.3 56.2 22.0 74.5 L24.85 65.0 25.85 70.4 Q28.25 81.9 38.5 87.0 37.45 85.5 36.85 83.9 34.25 76.65 37.7 69.3 38.05 70.8 38.9 71.95 45.2 80.85 55.25 85.85 L52.55 82.65 Q47.6 76.0 48.0 67.5 53.7 72.75 57.05 79.65 59.2 67.4 54.0 56.0 L55.05 56.7 Q58.05 58.8 59.85 61.95 L60.4 63.05 60.4 61.9 Q60.3 56.2 56.65 51.8 L55.5 50.5 M55.1 50.7 L55.5 51.5 M30.05 -20.6 L28.9 -20.55 M25.55 -23.3 L24.8 -21.25 M25.05 -3.25 L26.65 -2.25" fill="none" stroke="#000000" stroke-linecap="round" stroke-linejoin="round" stroke-width="2.0"/>
      <path d="M25.5 -26.5 Q23.15 -36.2 17.1 -44.35 14.25 -48.15 9.95 -50.05 8.15 -50.85 6.4 -52.0 5.1 -52.85 3.6 -52.9 L-3.5 -54.0 M41.5 -34.0 Q39.05 -40.7 35.35 -46.7 L32.55 -50.5 Q31.55 -51.65 30.9 -52.95 30.55 -53.65 30.5 -54.5 M-15.4 54.95 Q-18.2 54.05 -20.0 51.75 -24.95 45.4 -26.5 37.5 M31.0 -31.5 Q26.4 -40.1 20.65 -48.05 16.05 -54.35 10.0 -59.0 M36.5 -29.5 Q35.3 -35.0 32.6 -40.05 30.0 -44.9 26.4 -49.3 24.05 -52.25 22.5 -55.5 M41.0 -15.5 Q40.1 -8.6 38.1 -2.0 35.65 6.2 33.45 14.5 31.15 23.15 31.0 32.0 L31.0 35.0 M43.0 9.5 L41.5 15.5 M23.0 65.0 Q22.5 55.55 23.5 46.05 23.9 42.2 23.8 38.15 23.65 31.0 24.85 24.0 L26.0 17.95 Q27.0 13.05 28.35 8.2 29.35 4.5 29.0 0.5 M28.0 38.0 Q26.8 46.8 27.3 55.9 27.65 62.75 28.95 69.4 29.75 73.65 33.0 76.5 M41.5 47.0 Q43.7 55.85 48.25 63.8 50.65 68.05 54.0 71.5 M34.5 40.0 Q35.25 48.25 36.5 56.45 37.95 65.7 43.2 73.55 L46.0 77.5 M-14.0 -70.5 L-16.2 -70.65 Q-17.35 -70.0 -18.65 -69.75 -27.75 -67.45 -31.7 -58.8 -33.75 -54.2 -36.25 -50.05 -38.5 -46.3 -39.0 -41.85 -39.85 -34.2 -39.2 -26.5 -38.7 -20.2 -39.05 -14.0 L-39.05 -9.5 Q-38.5 -0.45 -37.5 8.55 -36.5 17.65 -36.25 26.8 -36.0 36.75 -37.4 46.5 L-38.6 53.1 Q-40.15 60.15 -40.5 67.5 M-17.35 -55.6 Q-22.2 -58.05 -27.55 -57.55 L-29.0 -57.5 M-18.0 -63.5 L-21.0 -63.0 M-34.0 52.5 Q-33.95 62.55 -28.15 70.8 L-27.5 71.5 M-31.0 47.5 Q-30.75 56.45 -23.8 61.8 -21.85 63.35 -19.5 64.0" fill="none" stroke="#ffffff" stroke-linecap="round" stroke-linejoin="round" stroke-width="2.0"/>
      <path d="M16.1 -41.0 L16.4 -39.95 16.8 -37.5 Q16.85 -34.95 18.0 -33.0 M6.7 -48.8 L6.0 -49.5 M16.1 -41.0 Q15.2 -43.45 13.5 -45.5 M6.7 -48.8 Q11.25 -44.15 13.0 -37.5 15.35 -28.75 15.7 -19.5 15.85 -15.75 15.0 -12.5" fill="none" stroke="#ffff99" stroke-linecap="round" stroke-linejoin="round" stroke-width="2.0"/>
      <path d="M6.7 -48.8 Q11.15 -46.55 14.7 -42.6 L16.1 -41.0 Q19.8 -36.4 22.05 -30.8 L25.0 -23.5 M-31.75 -50.75 Q-22.0 -47.65 -12.25 -50.65 -6.65 -52.45 -0.85 -51.4 3.2 -50.6 6.7 -48.8" fill="none" stroke="#af9874" stroke-linecap="round" stroke-linejoin="round" stroke-width="2.0"/>
      <path d="M-7.1 -67.6 L-9.45 -66.45 -8.25 -65.8 -7.5 -64.5 -10.95 -63.0 -7.5 -61.0 -14.5 -59.0 -9.4 -55.4 -17.5 -54.5" fill="none" stroke="#ecc59d" stroke-linecap="round" stroke-linejoin="round" stroke-width="2.0"/>
      <path d="M29.0 -26.25 L25.55 -23.3" fill="none" stroke="#000000" stroke-linecap="round" stroke-linejoin="round" stroke-width="2.0"/>
    </g>
    </g>
  </g>
  <defs>
    <radialGradient cx="0" cy="0" gradientTransform="matrix(0.0481, 0.1394, -0.165, 0.0569, -7.5, -60.5)" gradientUnits="userSpaceOnUse" id="gradient0" r="819.2" spreadMethod="pad">
      <stop offset="0.0" stop-color="#ffff99"/>
      <stop offset="0.23137254901960785" stop-color="#ffffbb"/>
      <stop offset="0.3176470588235294" stop-color="#ffffff"/>
      <stop offset="0.38823529411764707" stop-color="#ffffbb"/>
      <stop offset="1.0" stop-color="#ffff99"/>
    </radialGradient>
  </defs>
</svg>