<svg xmlns:xlink="http://www.w3.org/1999/xlink" xmlns="http://www.w3.org/2000/svg" height="202.2px" width="161.9px">
  <g transform="matrix(1.0, 0.0, 0.0, 1.0, 74.15, 81.7)">
    <g data-characterId="1375" height="162.35" transform="matrix(1.0, 0.0, 0.0, 1.0, -46.65, -73.35)" width="96.65" xlink:href="#shape0"><g id="shape0" transform="matrix(1.0, 0.0, 0.0, 1.0, 46.65, 73.35)">
      <path d="M-34.0 58.85 Q-37.7 52.55 -40.45 45.65 -43.05 39.05 -43.5 31.9 L-43.55 31.05 -43.9 25.65 -44.3 18.0 -44.7 8.6 Q-44.9 2.35 -45.25 -3.9 L-46.0 -15.0 Q-46.65 -24.05 -44.85 -32.85 L-43.2 -39.3 Q-39.9 -50.05 -32.0 -58.95 -24.15 -67.85 -17.25 -70.05 L-7.95 -72.85 -1.15 -72.5 0.2 -71.65 0.8 -70.95 Q1.4 -70.4 2.15 -70.1 2.65 -69.8 3.2 -69.65 4.4 -70.4 5.75 -70.6 18.35 -72.95 26.5 -62.35 33.25 -53.55 36.55 -42.75 39.9 -31.95 42.8 -20.7 45.7 -9.5 47.65 -0.55 49.6 8.35 48.55 15.8 47.5 23.25 46.8 32.05 46.1 40.9 49.5 50.5 L49.0 51.0 48.0 51.35 45.95 51.4 Q43.65 50.85 41.9 49.65 41.9 56.7 41.35 63.45 40.9 68.7 41.15 74.1 L41.2 74.4 Q41.35 77.85 42.1 80.95 L42.05 81.25 41.85 81.2 41.0 79.95 40.45 79.5 38.55 77.5 Q35.5 73.6 34.5 68.5 L34.1 71.65 Q33.8 75.35 34.2 79.05 34.5 81.85 35.2 84.55 35.7 86.55 35.5 88.5 L34.15 87.35 33.15 86.35 Q29.75 82.8 27.95 78.45 26.75 75.65 26.25 72.5 L25.5 68.0 24.15 71.85 23.9 72.65 Q23.15 75.05 22.9 77.5 22.6 80.25 22.8 82.95 23.0 85.5 23.5 88.0 L22.35 87.4 20.05 85.9 Q17.35 83.9 15.5 81.25 L15.15 80.75 14.0 78.65 Q12.3 75.1 11.7 71.05 11.2 67.5 11.45 64.0 L11.45 63.95 11.5 63.5 11.35 64.0 11.15 64.7 Q10.6 66.6 10.35 68.6 L10.05 71.0 Q9.85 73.2 10.0 75.5 L9.3 74.5 Q8.6 73.4 8.3 72.25 7.75 70.15 7.7 68.0 7.6 64.0 7.85 60.0 L8.1 57.05 Q8.3 54.7 9.25 52.85 L10.05 51.0 11.3 47.45 11.35 47.3 14.0 39.8 16.0 34.45 16.55 32.2 Q16.8 29.9 17.45 27.85 L17.85 26.45 18.45 24.25 Q19.45 20.3 20.85 16.55 L21.2 15.7 21.3 15.4 22.15 13.2 Q23.05 10.5 23.3 7.55 23.05 2.7 22.2 -2.0 21.5 -6.0 20.4 -9.9 L17.8 -16.85 17.75 -16.9 15.3 -22.1 13.1 -26.45 Q11.85 -29.0 10.1 -31.15 L8.2 -33.65 6.4 -35.9 3.35 -39.05 -3.5 -44.35 -7.1 -46.85 -8.55 -48.2 -9.05 -48.95 Q-9.85 -50.3 -10.0 -52.0 -10.3 -50.65 -11.05 -49.5 -11.5 -48.8 -12.2 -48.35 L-13.0 -48.0 Q-14.35 -48.0 -15.25 -47.2 L-16.45 -46.4 Q-20.1 -44.75 -23.0 -42.0 -26.8 -38.45 -30.0 -34.5 L-31.25 -32.75 -33.85 -30.65 -34.95 -27.0 -36.15 -22.65 -36.6 -21.8 -37.45 -17.5 -36.4 -21.75 Q-36.5 -18.5 -36.75 -15.2 L-37.2 -9.8 Q-37.35 -8.35 -37.15 -6.8 L-36.6 -2.8 -36.3 -1.15 -35.9 0.95 Q-34.95 5.05 -33.45 9.15 L-30.2 17.6 -26.5 26.5 -25.55 28.75 Q-24.65 30.8 -23.2 32.55 -21.4 34.65 -18.5 34.5 -18.7 38.95 -19.25 43.4 -19.5 45.3 -19.3 47.15 L-19.0 49.0 Q-21.15 47.85 -22.55 45.9 L-23.5 44.5 Q-23.6 46.25 -22.9 48.0 L-21.4 51.45 -20.1 54.05 -16.4 59.4 -14.65 61.15 -13.75 61.8 -12.55 62.6 Q-10.7 63.65 -9.4 65.1 -8.85 65.75 -8.45 66.6 L-8.4 66.8 Q-11.2 66.4 -13.45 64.75 L-15.0 63.5 Q-14.4 65.5 -13.5 66.5 L-12.1 68.35 -11.1 70.15 -10.7 70.9 -10.95 70.85 -13.1 69.9 -17.0 67.15 -18.2 66.1 -20.5 63.95 -25.7 58.1 Q-25.0 61.0 -23.6 63.6 L-22.45 65.95 -22.05 66.8 Q-20.25 70.4 -17.15 73.05 L-16.0 74.0 Q-20.5 72.1 -23.85 68.75 L-24.35 68.2 -24.4 68.15 -26.8 65.3 Q-29.7 61.65 -31.9 57.55 L-35.0 51.5 Q-34.75 55.05 -33.6 58.25 L-33.5 58.55 -34.0 58.85 M36.0 15.5 L36.05 16.5 Q36.4 18.9 35.5 21.0 36.4 18.9 36.05 16.5 L36.0 15.5 M28.0 -10.85 L28.35 -4.5 28.65 8.5 Q28.85 17.85 25.2 26.1 L23.4 29.45 22.4 31.1 23.4 29.45 25.2 26.1 Q28.85 17.85 28.65 8.5 L28.35 -4.5 28.0 -10.85 M31.5 -15.5 L31.4 -14.0 31.0 -11.0 31.4 -14.0 31.5 -15.5 M14.5 -33.25 L15.35 -32.4 Q16.85 -30.0 17.95 -27.4 19.85 -22.95 20.5 -18.0 19.85 -22.95 17.95 -27.4 16.85 -30.0 15.35 -32.4 L14.5 -33.25 M17.0 -27.0 L16.3 -28.35 13.65 -32.1 Q8.3 -39.25 1.5 -45.05 -0.5 -46.75 -2.75 -48.05 -6.4 -50.15 -6.0 -54.0 -6.4 -50.15 -2.75 -48.05 -0.5 -46.75 1.5 -45.05 8.3 -39.25 13.65 -32.1 L16.3 -28.35 17.0 -27.0 M12.0 -42.0 L11.1 -43.55 Q8.5 -48.55 4.5 -52.5 8.5 -48.55 11.1 -43.55 L12.0 -42.0 M21.0 -35.5 L21.45 -34.95 Q25.15 -29.1 25.5 -22.0 25.15 -29.1 21.45 -34.95 L21.0 -35.5 M27.0 -39.5 L28.4 -35.45 Q29.25 -32.75 29.45 -29.95 29.5 -29.0 29.0 -28.0 29.5 -29.0 29.45 -29.95 29.25 -32.75 28.4 -35.45 L27.0 -39.5 M32.1 -38.6 Q34.85 -35.45 35.0 -31.5 34.85 -35.45 32.1 -38.6 M21.0 -42.0 L20.4 -43.95 18.0 -50.0 20.4 -43.95 21.0 -42.0 M9.25 -67.5 L8.5 -67.65 Q5.45 -68.05 2.75 -66.75 5.45 -68.05 8.5 -67.65 L9.25 -67.5 M23.1 44.0 Q22.85 42.8 22.0 42.0 L20.5 47.5 20.1 49.25 19.7 50.9 Q19.2 53.1 17.2 54.25 L14.5 55.9 Q15.0 51.95 17.05 48.5 18.6 45.85 19.5 42.9 L20.0 41.4 21.6 35.3 22.4 31.1 22.9 25.95 22.9 25.8 23.3 17.35 23.45 13.65 23.3 7.55 23.45 13.65 23.3 17.35 22.9 25.8 22.9 25.95 22.4 31.1 21.6 35.3 20.0 41.4 19.5 42.9 Q18.6 45.85 17.05 48.5 15.0 51.95 14.5 55.9 L17.2 54.25 Q19.2 53.1 19.7 50.9 L20.1 49.25 20.5 47.5 22.0 42.0 Q22.85 42.8 23.1 44.0 25.95 37.9 28.0 31.5 30.55 23.45 31.5 15.0 30.55 23.45 28.0 31.5 25.95 37.9 23.1 44.0 L22.9 44.4 22.1 46.05 Q21.3 47.7 20.9 49.45 20.5 51.2 20.5 53.0 20.5 51.2 20.9 49.45 21.3 47.7 22.1 46.05 L22.9 44.4 23.1 44.0 23.2 44.55 Q23.65 48.45 22.85 52.3 L21.5 59.5 22.85 52.3 Q23.65 48.45 23.2 44.55 L23.1 44.0 M22.4 31.1 L20.4 34.65 Q19.1 37.0 17.95 39.5 L14.85 45.9 13.7 48.1 12.2 51.85 11.55 54.0 Q10.3 58.8 10.5 64.0 L10.5 64.5 10.5 64.0 Q10.3 58.8 11.55 54.0 L12.2 51.85 13.7 48.1 14.85 45.9 17.95 39.5 Q19.1 37.0 20.4 34.65 L22.4 31.1 M-14.0 -68.5 L-16.0 -68.5 -16.9 -68.3 Q-20.05 -66.5 -22.9 -63.9 L-25.15 -61.65 -25.9 -60.9 -29.1 -57.6 Q-33.25 -53.15 -36.7 -48.15 -40.8 -42.1 -41.5 -35.0 -40.8 -42.1 -36.7 -48.15 -33.25 -53.15 -29.1 -57.6 L-25.9 -60.9 -25.15 -61.65 -22.9 -63.9 Q-20.05 -66.5 -16.9 -68.3 L-16.0 -68.5 -14.0 -68.5 M13.5 54.5 L13.3 55.75 13.2 57.0 12.8 64.0 Q12.35 72.85 17.0 80.0 12.35 72.85 12.8 64.0 L13.2 57.0 13.3 55.75 13.5 54.5 M28.5 57.0 L28.05 58.5 Q25.55 68.4 29.0 78.0 25.55 68.4 28.05 58.5 L28.5 57.0 M37.0 49.5 L36.15 60.5 Q35.9 64.45 36.9 67.95 37.85 71.45 40.0 74.5 37.85 71.45 36.9 67.95 35.9 64.45 36.15 60.5 L37.0 49.5 M-20.0 -59.0 Q-22.45 -56.55 -24.0 -53.4 L-25.95 -49.5 -29.8 -41.4 Q-31.4 -38.05 -32.6 -34.5 L-33.0 -33.3 -33.85 -30.65 -33.0 -33.3 -32.6 -34.5 Q-31.4 -38.05 -29.8 -41.4 L-25.95 -49.5 -24.0 -53.4 Q-22.45 -56.55 -20.0 -59.0 M-8.0 -54.5 L-5.75 -57.2 -1.7 -62.85 Q0.6 -66.35 3.2 -69.65 0.6 -66.35 -1.7 -62.85 L-5.75 -57.2 -8.0 -54.5 M-44.0 -4.0 Q-44.2 -2.45 -43.7 -0.95 -43.25 0.5 -43.35 2.0 L-43.55 8.6 -43.55 10.5 -43.3 18.0 -43.25 20.0 -43.05 25.6 -42.5 31.0 -42.4 31.65 Q-40.85 40.75 -37.0 49.5 -40.85 40.75 -42.4 31.65 L-42.5 31.0 -43.05 25.6 -43.25 20.0 -43.3 18.0 -43.55 10.5 -43.55 8.6 -43.35 2.0 Q-43.25 0.5 -43.7 -0.95 -44.2 -2.45 -44.0 -4.0 M-42.5 -33.5 L-42.75 -32.5 -42.5 -23.0 -42.75 -32.5 -42.5 -33.5 M-34.0 37.0 L-35.65 29.95 -36.9 22.3 -37.6 17.6 -37.8 16.75 -38.05 15.0 Q-38.0 11.35 -38.35 7.65 -38.8 3.15 -38.6 -1.5 L-38.3 -10.5 -37.8 -15.3 -37.8 -15.35 -37.45 -17.5 -37.8 -15.35 -37.8 -15.3 -38.3 -10.5 -38.6 -1.5 Q-38.8 3.15 -38.35 7.65 -38.0 11.35 -38.05 15.0 L-37.8 16.75 -37.6 17.6 -36.9 22.3 -35.65 29.95 -34.0 37.0 M-29.5 47.0 L-26.35 52.4 -22.25 58.75 -18.8 63.35 Q-17.65 64.8 -16.0 65.75 -17.65 64.8 -18.8 63.35 L-22.25 58.75 -26.35 52.4 -29.5 47.0 M-35.0 41.75 Q-34.7 44.55 -33.7 47.25 L-30.85 54.45 -28.1 60.8 -25.9 64.6 -25.4 65.25 -23.55 67.25 -23.25 67.5 -23.55 67.25 -25.4 65.25 -25.9 64.6 -28.1 60.8 -30.85 54.45 -33.7 47.25 Q-34.7 44.55 -35.0 41.75 M-26.2 57.15 L-26.35 57.05 -25.7 58.1 -26.2 57.15" fill="url(#gradient0)" fill-rule="evenodd" stroke="none"/>
      <path d="M2.75 -66.75 Q5.45 -68.05 8.5 -67.65 L9.25 -67.5 M18.0 -50.0 L20.4 -43.95 21.0 -42.0 M35.0 -31.5 Q34.85 -35.45 32.1 -38.6 M29.0 -28.0 Q29.5 -29.0 29.45 -29.95 29.25 -32.75 28.4 -35.45 L27.0 -39.5 M25.5 -22.0 Q25.15 -29.1 21.45 -34.95 L21.0 -35.5 M4.5 -52.5 Q8.5 -48.55 11.1 -43.55 L12.0 -42.0 M-6.0 -54.0 Q-6.4 -50.15 -2.75 -48.05 -0.5 -46.75 1.5 -45.05 8.3 -39.25 13.65 -32.1 L16.3 -28.35 17.0 -27.0 M20.5 -18.0 Q19.85 -22.95 17.95 -27.4 16.85 -30.0 15.35 -32.4 L14.5 -33.25 M31.0 -11.0 L31.4 -14.0 31.5 -15.5 M22.4 31.1 L23.4 29.45 25.2 26.1 Q28.85 17.85 28.65 8.5 L28.35 -4.5 28.0 -10.85 M35.5 21.0 Q36.4 18.9 36.05 16.5 L36.0 15.5 M23.1 44.0 Q25.95 37.9 28.0 31.5 30.55 23.45 31.5 15.0 M10.5 64.5 L10.5 64.0 Q10.3 58.8 11.55 54.0 L12.2 51.85 13.7 48.1 14.85 45.9 17.95 39.5 Q19.1 37.0 20.4 34.65 L22.4 31.1 M23.1 44.0 L22.9 44.4 22.1 46.05 Q21.3 47.7 20.9 49.45 20.5 51.2 20.5 53.0 M40.0 74.5 Q37.85 71.45 36.9 67.95 35.9 64.45 36.15 60.5 L37.0 49.5 M29.0 78.0 Q25.55 68.4 28.05 58.5 L28.5 57.0 M17.0 80.0 Q12.35 72.85 12.8 64.0 L13.2 57.0 13.3 55.75 13.5 54.5 M-41.5 -35.0 Q-40.8 -42.1 -36.7 -48.15 -33.25 -53.15 -29.1 -57.6 L-25.9 -60.9 -25.15 -61.65 -22.9 -63.9 Q-20.05 -66.5 -16.9 -68.3 L-16.0 -68.5 -14.0 -68.5 M-42.5 -23.0 L-42.75 -32.5 -42.5 -33.5 M-37.0 49.5 Q-40.85 40.75 -42.4 31.65 L-42.5 31.0 -43.05 25.6 -43.25 20.0 -43.3 18.0 -43.55 10.5 -43.55 8.6 -43.35 2.0 Q-43.25 0.5 -43.7 -0.95 -44.2 -2.45 -44.0 -4.0 M-23.25 67.5 L-23.55 67.25 -25.4 65.25 -25.9 64.6 -28.1 60.8 -30.85 54.45 -33.7 47.25 Q-34.7 44.55 -35.0 41.75 M-16.0 65.75 Q-17.65 64.8 -18.8 63.35 L-22.25 58.75 -26.35 52.4 -29.5 47.0" fill="none" stroke="#290196" stroke-linecap="round" stroke-linejoin="round" stroke-width="2.0"/>
      <path d="M-34.0 58.85 Q-37.7 52.55 -40.45 45.65 -43.05 39.05 -43.5 31.9 L-43.55 31.05 -43.9 25.65 -44.3 18.0 -44.7 8.6 Q-44.9 2.35 -45.25 -3.9 L-46.0 -15.0 Q-46.65 -24.05 -44.85 -32.85 L-43.2 -39.3 Q-39.9 -50.05 -32.0 -58.95 -24.15 -67.85 -17.25 -70.05 L-7.95 -72.85 -1.15 -72.5 0.2 -71.65 0.8 -70.95 Q1.4 -70.4 2.15 -70.1 2.65 -69.8 3.2 -69.65 4.4 -70.4 5.75 -70.6 18.35 -72.95 26.5 -62.35 33.25 -53.55 36.55 -42.75 39.9 -31.95 42.8 -20.7 45.7 -9.5 47.65 -0.55 49.6 8.35 48.55 15.8 47.5 23.25 46.8 32.05 46.1 40.9 49.5 50.5 M49.0 51.0 L48.0 51.35 45.95 51.4 Q43.65 50.85 41.9 49.65 41.9 56.7 41.35 63.45 40.9 68.7 41.15 74.1 L41.2 74.4 Q41.35 77.85 42.1 80.95 L42.05 81.25 41.85 81.2 41.0 79.95 40.45 79.5 38.55 77.5 Q35.5 73.6 34.5 68.5 L34.1 71.65 Q33.8 75.35 34.2 79.05 34.5 81.85 35.2 84.55 35.7 86.55 35.5 88.5 L34.15 87.35 33.15 86.35 Q29.75 82.8 27.95 78.45 26.75 75.65 26.25 72.5 L25.5 68.0 24.15 71.85 23.9 72.65 Q23.15 75.05 22.9 77.5 22.6 80.25 22.8 82.95 23.0 85.5 23.5 88.0 L22.35 87.4 20.05 85.9 Q17.35 83.9 15.5 81.25 L15.15 80.75 14.0 78.65 Q12.3 75.1 11.7 71.05 11.2 67.5 11.45 64.0 L11.45 63.95 11.5 63.5 11.35 64.0 11.15 64.7 Q10.6 66.6 10.35 68.6 L10.05 71.0 Q9.85 73.2 10.0 75.5 L9.3 74.5 Q8.6 73.4 8.3 72.25 7.75 70.15 7.7 68.0 7.6 64.0 7.85 60.0 L8.1 57.05 Q8.3 54.7 9.25 52.85 L10.05 51.0 11.3 47.45 11.35 47.3 14.0 39.8 16.0 34.45 16.55 32.2 Q16.8 29.9 17.45 27.85 L17.85 26.45 18.45 24.25 Q19.45 20.3 20.85 16.55 L21.2 15.7 21.3 15.4 22.15 13.2 Q23.05 10.5 23.3 7.55 23.05 2.7 22.2 -2.0 21.5 -6.0 20.4 -9.9 L17.8 -16.85 17.75 -16.9 15.3 -22.1 13.1 -26.45 Q11.85 -29.0 10.1 -31.15 L8.2 -33.65 6.4 -35.9 3.35 -39.05 -3.5 -44.35 -7.1 -46.85 -8.55 -48.2 M23.3 7.55 L23.45 13.65 23.3 17.35 22.9 25.8 22.9 25.95 22.4 31.1 21.6 35.3 20.0 41.4 19.5 42.9 Q18.6 45.85 17.05 48.5 15.0 51.95 14.5 55.9 L17.2 54.25 Q19.2 53.1 19.7 50.9 L20.1 49.25 20.5 47.5 22.0 42.0 Q22.85 42.8 23.1 44.0 L23.2 44.55 Q23.65 48.45 22.85 52.3 L21.5 59.5 M3.2 -69.65 Q0.6 -66.35 -1.7 -62.85 L-5.75 -57.2 -8.0 -54.5 M-33.85 -30.65 L-33.0 -33.3 -32.6 -34.5 Q-31.4 -38.05 -29.8 -41.4 L-25.95 -49.5 -24.0 -53.4 Q-22.45 -56.55 -20.0 -59.0 M-9.05 -48.95 Q-9.85 -50.3 -10.0 -52.0 -10.3 -50.65 -11.05 -49.5 -11.5 -48.8 -12.2 -48.35 L-13.0 -48.0 Q-14.35 -48.0 -15.25 -47.2 L-16.45 -46.4 Q-20.1 -44.75 -23.0 -42.0 -26.8 -38.45 -30.0 -34.5 L-31.25 -32.75 -33.85 -30.65 -34.95 -27.0 -36.15 -22.65 -36.4 -21.75 -37.45 -17.5 -37.8 -15.35 -37.8 -15.3 -38.3 -10.5 -38.6 -1.5 Q-38.8 3.15 -38.35 7.65 -38.0 11.35 -38.05 15.0 L-37.8 16.75 -37.6 17.6 -36.9 22.3 -35.65 29.95 -34.0 37.0 M-37.15 -6.8 L-36.6 -2.8 M-36.3 -1.15 L-35.9 0.95 M-18.5 34.5 Q-18.7 38.95 -19.25 43.4 -19.5 45.3 -19.3 47.15 L-19.0 49.0 Q-21.15 47.85 -22.55 45.9 L-23.5 44.5 Q-23.6 46.25 -22.9 48.0 L-21.4 51.45 -20.1 54.05 -16.4 59.4 -14.65 61.15 -13.75 61.8 -12.55 62.6 Q-10.7 63.65 -9.4 65.1 -8.85 65.75 -8.45 66.6 L-8.4 66.8 Q-11.2 66.4 -13.45 64.75 L-15.0 63.5 Q-14.4 65.5 -13.5 66.5 L-12.1 68.35 -11.1 70.15 -10.7 70.9 -10.95 70.85 -13.1 69.9 -17.0 67.15 -18.2 66.1 -20.5 63.95 -25.7 58.1 Q-25.0 61.0 -23.6 63.6 L-22.45 65.95 -22.05 66.8 Q-20.25 70.4 -17.15 73.05 L-16.0 74.0 Q-20.5 72.1 -23.85 68.75 L-24.35 68.2 -24.4 68.15 -26.8 65.3 Q-29.7 61.65 -31.9 57.55 L-35.0 51.5 Q-34.75 55.05 -33.6 58.25 L-33.5 58.55 Q-32.55 61.15 -31.0 63.5 L-30.0 65.0 -31.0 63.55 -34.0 58.85 M-8.45 -48.05 Q-5.8 -40.95 -7.25 -34.25 M-36.15 -22.65 L-36.6 -21.8 -37.45 -17.5 M-26.2 57.15 L-26.35 57.05 -25.7 58.1 -26.2 57.15" fill="none" stroke="#000000" stroke-linecap="round" stroke-linejoin="round" stroke-width="2.0"/>
      <path d="M-36.4 -21.75 Q-36.5 -18.5 -36.75 -15.2 L-37.2 -9.8 Q-37.35 -8.35 -37.15 -6.8 M-36.6 -2.8 L-36.3 -1.15 M-35.9 0.95 Q-34.95 5.05 -33.45 9.15 L-30.2 17.6 -26.5 26.5 -25.55 28.75 Q-24.65 30.8 -23.2 32.55 -21.4 34.65 -18.5 34.5" fill="none" stroke="#000000" stroke-linecap="round" stroke-linejoin="round" stroke-width="2.0"/>
      <path d="M-8.55 -48.2 L-8.45 -48.05 Q1.75 -37.7 4.5 -25.5 L7.0 -16.5 Q12.15 -6.3 11.5 5.5 M-8.55 -48.2 L-9.05 -48.95" fill="none" stroke="#000000" stroke-linecap="round" stroke-linejoin="round" stroke-width="2.0"/>
    </g>
    </g>
  </g>
  <defs>
    <radialGradient cx="0" cy="0" gradientTransform="matrix(-1.0E-4, 0.1143, -0.1929, -2.0E-4, -7.0, -51.0)" gradientUnits="userSpaceOnUse" id="gradient0" r="819.2" spreadMethod="pad">
      <stop offset="0.0" stop-color="#000000"/>
      <stop offset="0.23137254901960785" stop-color="#000b42"/>
      <stop offset="0.3176470588235294" stop-color="#01025f"/>
      <stop offset="0.38823529411764707" stop-color="#000042"/>
      <stop offset="1.0" stop-color="#000000"/>
    </radialGradient>
  </defs>
</svg>