<svg xmlns:xlink="http://www.w3.org/1999/xlink" xmlns="http://www.w3.org/2000/svg" height="98.75px" width="161.15px">
  <g transform="matrix(1.0, 0.0, 0.0, 1.0, 83.0, 71.7)">
    <g data-characterId="1270" height="37.65" transform="matrix(1.0, 0.0, 0.0, 1.0, -54.7, -22.5)" width="122.4" xlink:href="#shape0"><g id="shape0" transform="matrix(1.0, 0.0, 0.0, 1.0, 54.7, 22.5)">
      <path d="M-10.5 -2.3 L-10.55 -2.45 -10.5 -2.5 -10.5 -2.3" fill="#ecc59d" fill-rule="evenodd" stroke="none"/>
      <path d="M-4.85 -3.7 L-4.2 -5.1 -3.45 -6.6 Q-3.1 -7.1 -2.0 -7.0 L2.9 -7.3 4.0 -7.45 Q6.05 -7.45 7.8 -8.25 L8.9 -8.65 Q12.9 -9.95 16.75 -11.7 19.7 -13.0 22.4 -15.0 L26.05 -17.45 Q26.65 -17.1 28.5 -16.5 L40.75 -13.05 Q51.15 -10.15 63.2 -2.55 75.25 5.05 51.15 11.5 27.05 17.9 -2.6 11.3 -6.3 10.35 -10.1 10.75 -33.35 12.15 -43.7 10.05 -54.05 7.9 -54.2 1.8 -54.4 -4.4 -46.25 -7.85 L-34.85 -12.45 Q-31.7 -13.6 -29.15 -14.85 -28.25 -12.8 -26.45 -11.85 -21.3 -9.05 -15.55 -8.45 L-14.1 -8.3 -12.65 -8.1 -11.5 -8.0 Q-11.05 -7.95 -11.1 -7.2 L-11.05 -6.3 -10.75 -4.05 -13.55 -4.3 -10.75 -4.05 -10.5 -2.5 -10.55 -2.45 -13.8 -1.15 -10.55 -2.45 -10.5 -2.3 -10.45 -0.55 -10.6 0.3 -10.65 1.15 Q-8.55 0.2 -6.4 -1.55 L-6.0 -1.95 -5.35 -2.8 -4.85 -3.7 -2.6 -3.85 -2.0 -3.75 -2.6 -3.85 -4.85 -3.7 M27.55 -15.9 Q27.25 -15.25 26.5 -15.25 24.8 -15.2 24.55 -14.45 24.2 -13.25 23.05 -12.65 22.05 -10.95 20.1 -10.55 L19.45 -10.2 Q18.1 -7.25 15.0 -9.8 L14.85 -8.7 Q13.85 -5.65 10.95 -8.1 L10.8 -7.0 10.35 -5.8 8.05 -6.95 7.85 -5.9 6.9 -4.05 5.8 -4.75 4.6 -5.8 3.95 -4.1 Q3.5 -3.15 2.8 -3.1 -0.55 -2.65 -1.15 -5.8 -0.55 -2.65 2.8 -3.1 3.5 -3.15 3.95 -4.1 L4.6 -5.8 5.8 -4.75 6.9 -4.05 7.85 -5.9 8.05 -6.95 10.35 -5.8 10.8 -7.0 10.95 -8.1 Q13.85 -5.65 14.85 -8.7 L15.0 -9.8 Q18.1 -7.25 19.45 -10.2 L20.1 -10.55 Q22.05 -10.95 23.05 -12.65 24.2 -13.25 24.55 -14.45 24.8 -15.2 26.5 -15.25 27.25 -15.25 27.55 -15.9 M-15.5 -6.35 L-16.6 -6.2 -17.85 -6.1 Q-19.6 -6.2 -19.0 -8.1 L-20.15 -6.95 -20.7 -6.35 -21.35 -6.85 Q-23.15 -5.4 -24.15 -8.1 -24.45 -7.5 -24.9 -7.2 -25.3 -6.95 -25.9 -6.95 L-26.55 -8.05 Q-27.0 -8.65 -27.65 -8.75 -29.1 -8.9 -28.85 -10.35 L-28.15 -10.95 -28.75 -10.95 -28.85 -10.35 Q-30.0 -9.65 -31.65 -9.8 L-31.4 -10.8 -29.9 -12.7 -31.4 -10.8 -31.65 -9.8 Q-30.0 -9.65 -28.85 -10.35 L-28.75 -10.95 -28.15 -10.95 -28.85 -10.35 Q-29.1 -8.9 -27.65 -8.75 -27.0 -8.65 -26.55 -8.05 L-25.9 -6.95 Q-25.3 -6.95 -24.9 -7.2 -24.45 -7.5 -24.15 -8.1 -23.15 -5.4 -21.35 -6.85 L-20.7 -6.35 -20.15 -6.95 -19.0 -8.1 Q-19.6 -6.2 -17.85 -6.1 L-16.6 -6.2 -15.5 -6.35 M-1.15 -1.15 L-2.6 -1.75 -5.35 -2.8 -2.6 -1.75 -1.15 -1.15" fill="#384f1e" fill-rule="evenodd" stroke="none"/>
      <path d="M26.05 -17.45 L22.4 -15.0 Q19.7 -13.0 16.75 -11.7 12.9 -9.95 8.9 -8.65 L7.8 -8.25 Q6.05 -7.45 4.0 -7.45 L2.9 -7.3 -2.0 -7.0 Q-3.1 -7.1 -3.45 -6.6 L-4.2 -5.1 -4.85 -3.7 -7.2 -3.35 -10.75 -4.05 -7.2 -3.35 -4.85 -3.7 -5.35 -2.8 -6.0 -1.95 -6.4 -1.55 Q-8.55 0.2 -10.65 1.15 L-10.6 0.3 -10.45 -0.55 -10.5 -2.3 -10.5 -2.5 -10.75 -4.05 -11.05 -6.3 -11.1 -7.2 Q-11.05 -7.95 -11.5 -8.0 L-12.65 -8.1 -14.1 -8.3 -15.55 -8.45 Q-21.3 -9.05 -26.45 -11.85 -28.25 -12.8 -29.15 -14.85 -24.2 -17.35 -21.55 -20.5 L-18.5 -19.3 Q-6.65 -14.3 3.05 -15.05 12.6 -15.8 24.0 -22.5 L24.5 -22.0 24.5 -19.5 Q24.6 -18.4 26.05 -17.45 M-5.35 -2.8 L-7.2 -3.35 -10.5 -2.5 -7.2 -3.35 -5.35 -2.8" fill="url(#gradient0)" fill-rule="evenodd" stroke="none"/>
      <path d="M26.05 -17.45 Q24.6 -18.4 24.5 -19.5 L24.5 -22.0 M-21.55 -20.5 Q-24.2 -17.35 -29.15 -14.85 -31.7 -13.6 -34.85 -12.45 L-46.25 -7.85 Q-54.4 -4.4 -54.2 1.8 -54.05 7.9 -43.7 10.05 -33.35 12.15 -10.1 10.75 -6.3 10.35 -2.6 11.3 27.05 17.9 51.15 11.5 75.25 5.05 63.2 -2.55 51.15 -10.15 40.75 -13.05 L28.5 -16.5 Q26.65 -17.1 26.05 -17.45" fill="none" stroke="#000000" stroke-linecap="round" stroke-linejoin="round" stroke-width="2.0"/>
      <path d="M-4.85 -3.7 L-4.2 -5.1 -3.45 -6.6 Q-3.1 -7.1 -2.0 -7.0 L2.9 -7.3 4.0 -7.45 Q6.05 -7.45 7.8 -8.25 L8.9 -8.65 Q12.9 -9.95 16.75 -11.7 19.7 -13.0 22.4 -15.0 L26.05 -17.45 M-29.15 -14.85 Q-28.25 -12.8 -26.45 -11.85 -21.3 -9.05 -15.55 -8.45 L-14.1 -8.3 -12.65 -8.1 -11.5 -8.0 Q-11.05 -7.95 -11.1 -7.2 L-11.05 -6.3 -10.75 -4.05 -7.2 -3.35 -4.85 -3.7 -2.6 -3.85 -2.0 -3.75 M-10.55 -2.45 L-13.8 -1.15 M-10.75 -4.05 L-13.55 -4.3 M-10.75 -4.05 L-10.5 -2.5 -7.2 -3.35 -5.35 -2.8 -4.85 -3.7 M-5.35 -2.8 L-6.0 -1.95 -6.4 -1.55 Q-8.55 0.2 -10.65 1.15 L-10.6 0.3 -10.45 -0.55 -10.5 -2.3 -10.5 -2.5 -10.55 -2.45 M-5.35 -2.8 L-2.6 -1.75 -1.15 -1.15" fill="none" stroke="#000000" stroke-linecap="round" stroke-linejoin="round" stroke-width="2.0"/>
      <path d="M-1.15 -5.8 Q-0.55 -2.65 2.8 -3.1 3.5 -3.15 3.95 -4.1 L4.6 -5.8 5.8 -4.75 6.9 -4.05 7.85 -5.9 8.05 -6.95 10.35 -5.8 10.8 -7.0 10.95 -8.1 Q13.85 -5.65 14.85 -8.7 L15.0 -9.8 Q18.1 -7.25 19.45 -10.2 L20.1 -10.55 Q22.05 -10.95 23.05 -12.65 24.2 -13.25 24.55 -14.45 24.8 -15.2 26.5 -15.25 27.25 -15.25 27.55 -15.9 M-29.9 -12.7 L-31.4 -10.8 -31.65 -9.8 Q-30.0 -9.65 -28.85 -10.35 L-28.75 -10.95 -28.15 -10.95 -28.85 -10.35 Q-29.1 -8.9 -27.65 -8.75 -27.0 -8.65 -26.55 -8.05 L-25.9 -6.95 Q-25.3 -6.95 -24.9 -7.2 -24.45 -7.5 -24.15 -8.1 -23.15 -5.4 -21.35 -6.85 L-20.7 -6.35 -20.15 -6.95 -19.0 -8.1 Q-19.6 -6.2 -17.85 -6.1 L-16.6 -6.2 -15.5 -6.35" fill="none" stroke="#cccccc" stroke-linecap="round" stroke-linejoin="round" stroke-width="1.5"/>
    </g>
    </g>
  </g>
  <defs>
    <radialGradient cx="0" cy="0" gradientTransform="matrix(0.0494, 0.0, 0.0, 0.0681, -16.15, 3.0)" gradientUnits="userSpaceOnUse" id="gradient0" r="819.2" spreadMethod="pad">
      <stop offset="0.0" stop-color="#e2b983"/>
      <stop offset="0.6274509803921569" stop-color="#d9a166"/>
      <stop offset="1.0" stop-color="#c08456"/>
    </radialGradient>
  </defs>
</svg>