<svg xmlns:xlink="http://www.w3.org/1999/xlink" xmlns="http://www.w3.org/2000/svg" height="16.65px" width="27.9px">
  <g transform="matrix(1.0, 0.0, 0.0, 1.0, 11.2, 8.0)">
    <g data-characterId="1309" height="9.6" transform="matrix(1.0, 0.0, 0.0, 1.0, -9.15, -3.15)" width="21.15" xlink:href="#shape0"><g id="shape0" transform="matrix(1.0, 0.0, 0.0, 1.0, 9.15, 3.15)">
      <path d="M8.4 -0.3 L8.1 -0.25 1.85 0.6 -2.35 0.3 -5.9 -0.3 -7.55 -0.25 -8.45 -0.15 -8.7 -0.6 Q-8.75 -0.8 -9.05 -0.8 L-9.05 -1.3 -9.0 -1.65 Q-8.1 -2.55 -6.8 -2.25 -6.15 -1.85 -4.35 -1.55 -2.5 -2.55 -0.25 -2.0 L4.95 -1.55 Q7.85 -1.65 9.65 -2.4 L11.6 -3.15 11.75 -3.0 11.9 -2.9 12.0 -2.6 11.65 -2.15 Q10.45 -0.85 8.4 -0.3" fill="#d18a70" fill-rule="evenodd" stroke="none"/>
      <path d="M11.65 -2.15 Q9.15 2.2 4.25 4.05 L1.4 5.05 Q-2.4 6.3 -6.1 5.05 -8.25 4.3 -7.75 2.45 L-5.95 2.55 Q-1.1 3.1 3.75 2.4 L5.35 1.85 8.4 -0.3 Q10.45 -0.85 11.65 -2.15 M-1.05 4.6 Q-0.95 4.3 -1.3 4.3 L-5.55 3.4 -5.55 3.45 -5.8 3.45 -5.9 3.5 -6.15 3.8 -6.15 4.0 Q-4.0 5.9 -1.05 4.6" fill="#dda991" fill-rule="evenodd" stroke="none"/>
      <path d="M-1.05 4.6 Q-4.0 5.9 -6.15 4.0 L-6.15 3.8 -5.9 3.5 -5.8 3.45 -5.55 3.45 -5.55 3.4 -1.3 4.3 Q-0.95 4.3 -1.05 4.6" fill="#e8c2b5" fill-rule="evenodd" stroke="none"/>
      <path d="M-7.85 -0.35 L-4.65 -0.15 -1.4 0.15 2.2 0.05 4.95 -0.4 5.65 -0.5 8.3 -1.25 Q9.85 -1.75 11.05 -2.55 L10.8 -2.1 9.0 0.05 7.3 1.3 7.1 1.4 7.15 1.5 5.2 2.6 3.75 3.15 1.45 3.4 -1.85 3.3 -5.35 3.15 -7.2 3.1 -7.4 2.75 Q-7.3 1.15 -7.85 -0.35 M5.35 1.95 L5.4 1.5 6.7 1.05 7.1 1.4 6.7 1.05 5.4 1.5 5.35 1.95 M1.95 1.75 L1.95 1.85 2.45 1.85 1.95 1.75 M-2.65 1.55 L1.95 1.85 1.8 2.25 1.95 1.85 -2.65 1.55 M2.45 1.85 L3.5 1.85 5.4 1.5 3.5 1.85 2.45 1.85" fill="#ffffff" fill-rule="evenodd" stroke="none"/>
      <path d="M-7.85 -0.35 L-4.65 -0.15 -1.4 0.15 2.2 0.05 4.95 -0.4 5.65 -0.5 8.3 -1.25 Q9.85 -1.75 11.05 -2.55 L10.8 -2.1 9.0 0.05 7.3 1.3 7.15 1.5 5.2 2.6 3.75 3.15 1.45 3.4 -1.85 3.3 -5.35 3.15 -7.2 3.1 -7.4 2.75 Q-7.3 1.15 -7.85 -0.35 L-8.5 -0.3 M7.1 1.4 L7.15 1.5 M1.95 1.75 L1.95 1.85" fill="none" stroke="#000000" stroke-linecap="round" stroke-linejoin="round" stroke-width="1.5"/>
      <path d="M-3.95 5.75 L-2.7 5.85 -2.25 5.95 -1.3 5.85" fill="none" stroke="#aa7948" stroke-linecap="round" stroke-linejoin="round" stroke-width="2.0"/>
      <path d="M7.1 1.4 L6.7 1.05 5.4 1.5 5.35 1.95 M1.95 1.85 L2.45 1.85 1.95 1.75 M1.95 1.85 L1.8 2.25 M5.4 1.5 L3.5 1.85 2.45 1.85 M1.95 1.85 L-2.65 1.55" fill="none" stroke="#999999" stroke-linecap="round" stroke-linejoin="round" stroke-width="1.5"/>
    </g>
  </g>
  </g>
  <defs>
    </defs>
</svg>