<svg xmlns:xlink="http://www.w3.org/1999/xlink" xmlns="http://www.w3.org/2000/svg" height="202.2px" width="161.9px">
  <g transform="matrix(1.0, 0.0, 0.0, 1.0, 74.15, 81.7)">
    <g data-characterId="1434" height="150.95" transform="matrix(1.0, 0.0, 0.0, 1.0, -51.5, -73.45)" width="111.0" xlink:href="#shape0"><g id="shape0" transform="matrix(1.0, 0.0, 0.0, 1.0, 51.5, 73.45)">
      <path d="M25.0 15.0 Q26.6 17.05 26.15 20.0 26.0 21.0 26.35 21.85 27.9 25.6 28.4 29.95 L28.7 32.05 29.45 34.85 30.7 38.15 Q34.6 47.1 40.35 53.7 L41.75 55.25 Q43.75 57.15 43.0 58.0 40.55 57.45 38.15 55.8 33.6 52.75 29.8 49.25 29.0 48.5 28.0 48.0 28.9 50.75 29.55 52.2 32.55 58.65 36.3 63.8 L40.0 69.0 Q38.5 68.0 36.85 67.35 L35.2 66.6 Q31.55 64.75 27.8 62.35 20.75 57.9 17.0 50.0 L17.0 53.0 Q17.0 54.0 17.45 54.75 L20.05 59.0 Q21.7 61.6 20.0 62.0 18.3 61.7 17.7 60.1 17.5 59.5 16.9 59.35 13.05 58.45 11.95 56.0 11.5 55.0 10.7 54.4 8.1 52.35 6.55 49.2 4.7 45.5 3.55 41.15 L3.45 42.05 Q3.0 46.0 2.8 50.0 2.4 57.05 0.65 63.9 -0.5 68.5 -2.0 73.0 -2.5 74.5 -3.35 75.75 3.45 70.05 9.25 64.25 10.0 63.5 11.0 63.0 14.35 69.3 16.0 76.0 18.4 75.15 19.8 72.4 20.0 72.0 20.95 72.25 24.8 73.2 27.95 75.1 31.25 77.05 35.0 77.0 L34.75 75.05 34.0 73.0 Q34.15 71.15 37.05 71.55 L52.0 71.0 Q51.5 70.0 50.8 69.15 47.7 65.15 46.0 61.0 51.35 64.1 57.9 62.65 L59.0 62.0 Q58.75 57.75 54.15 57.1 53.5 57.0 52.85 56.1 50.45 52.95 49.35 49.2 L48.2 46.85 Q47.05 45.2 46.6 43.1 L45.25 36.95 Q43.3 28.8 42.6 20.05 L42.25 16.95 Q40.6 6.5 40.3 -4.0 L39.55 -26.0 39.4 -28.05 Q37.75 -45.7 26.2 -59.15 L18.95 -66.95 Q15.2 -70.7 10.05 -71.3 L6.95 -71.9 Q-1.5 -74.1 -9.95 -71.75 -11.8 -71.2 -12.45 -70.3 L-13.95 -68.9 Q-15.5 -67.9 -18.1 -67.4 L-22.0 -66.95 Q-23.85 -66.9 -25.3 -65.3 L-30.0 -60.0 M-23.0 -54.0 Q-21.6 -60.0 -15.8 -57.4 -12.2 -55.8 -8.05 -52.9 L-7.05 -52.0 Q-0.5 -44.75 3.4 -33.15 4.8 -29.05 4.35 -23.95 L3.65 -15.05 Q3.25 -9.95 2.4 -4.95 2.0 -2.5 1.9 0.0 L1.3 16.0 Q1.05 24.7 2.0 33.0 L2.3 35.35 Q3.7 37.75 3.55 41.15 2.75 38.35 2.3 35.35 1.15 33.35 -1.0 32.0 M-29.0 -53.0 Q-28.85 -60.65 -36.9 -58.65 L-37.85 -57.9 Q-42.05 -51.4 -45.65 -43.85 -47.6 -39.75 -48.3 -35.05 -49.7 -25.5 -49.15 -15.0 L-48.65 -9.05 -48.2 -6.95 -40.85 20.2 Q-36.75 25.05 -37.65 31.75 L-37.6 31.9 Q-35.6 39.15 -35.8 47.0 -35.9 53.85 -39.0 57.0 -38.7 59.25 -35.8 57.25 -33.6 55.75 -32.6 54.3 L-31.45 52.7 Q-31.0 52.0 -31.0 51.0 -28.9 50.6 -29.4 55.95 L-29.75 58.05 -30.0 60.0 Q-29.15 60.75 -27.35 58.7 -23.25 54.1 -21.6 48.1 L-20.2 43.9 Q-19.5 42.0 -19.2 39.95 L-18.8 37.05 -18.0 33.0 M-37.65 31.75 L-37.7 32.05 -38.3 35.95 -39.0 38.0 Q-41.9 43.75 -45.45 48.7 -46.0 49.5 -46.9 50.15 -48.75 51.6 -51.0 52.0 L-45.0 52.0 -42.0 52.0 Q-43.5 53.9 -44.1 56.0 -45.0 59.45 -47.0 62.0 -42.25 63.55 -37.05 62.7 L-35.0 62.0 M-40.85 20.2 L-38.4 29.1 -37.65 31.75" fill="none" stroke="#000000" stroke-linecap="round" stroke-linejoin="round" stroke-width="2.0"/>
    </g>
  </g>
  </g>
  <defs>
    </defs>
</svg>