<svg xmlns:xlink="http://www.w3.org/1999/xlink" xmlns="http://www.w3.org/2000/svg" height="202.2px" width="161.9px">
  <g transform="matrix(1.0, 0.0, 0.0, 1.0, 74.15, 81.7)">
    <g data-characterId="1382" height="145.95" transform="matrix(1.0, 0.0, 0.0, 1.0, -56.95, -75.1)" width="110.3" xlink:href="#shape0"><g id="shape0" transform="matrix(1.0, 0.0, 0.0, 1.0, 56.95, 75.1)">
      <path d="M11.5 -67.5 L12.55 -68.6 Q13.65 -69.4 15.0 -69.4 19.15 -69.35 22.55 -67.15 24.5 -65.85 26.2 -64.0 L29.45 -60.45 32.2 -56.9 35.25 -51.7 Q37.15 -48.3 38.5 -45.0 L41.9 -35.95 Q44.0 -30.15 44.0 -21.5 L43.95 -14.7 44.1 -10.5 Q44.4 -6.75 45.1 -3.0 L46.45 4.6 Q47.4 10.4 46.65 16.3 46.2 19.95 46.05 23.55 45.8 28.4 47.05 33.1 47.65 35.3 48.65 37.4 50.85 41.85 52.05 47.0 L52.65 50.5 Q52.95 52.95 52.85 55.45 L52.7 56.9 52.05 60.0 Q51.25 63.7 48.0 66.0 L48.35 62.85 48.5 59.5 Q47.75 59.9 47.65 60.75 47.55 61.8 47.05 62.55 L45.8 64.3 Q44.55 65.75 42.9 66.85 L40.3 68.35 Q37.05 70.05 33.5 69.3 L32.75 68.75 33.0 68.4 34.55 66.95 Q36.1 65.45 37.0 63.5 35.8 64.3 34.5 64.9 L30.65 66.65 28.95 67.1 25.0 66.95 Q22.5 66.9 20.2 66.0 L17.5 65.5 Q18.25 64.5 19.5 64.45 L21.5 63.95 Q23.65 63.15 24.5 61.0 L20.0 62.1 Q17.1 62.65 14.4 61.25 10.65 59.2 9.5 55.0 11.7 56.3 14.25 55.75 15.45 54.6 15.85 53.15 16.25 51.85 16.15 50.45 15.2 49.45 14.5 48.0 12.4 43.7 11.4 38.9 10.45 34.25 10.05 29.55 9.6 24.75 9.75 20.0 9.9 16.2 10.5 12.45 11.3 7.75 12.4 3.15 L14.0 -4.1 15.1 -10.75 16.0 -19.2 16.05 -23.1 Q15.85 -27.45 14.55 -31.75 L13.0 -36.2 Q11.2 -40.65 8.5 -44.55 6.75 -47.1 4.35 -48.85 L2.3 -50.5 Q0.75 -51.8 -1.05 -52.35 L-3.95 -53.4 -5.35 -53.45 -6.0 -53.6 -7.2 -53.95 -8.0 -53.5 -10.0 -53.45 Q-14.25 -52.8 -16.65 -49.1 L-17.4 -47.95 Q-18.5 -46.35 -18.85 -44.55 L-19.3 -42.95 -20.15 -40.05 Q-21.4 -34.95 -25.15 -31.15 L-25.85 -30.35 -29.85 -26.35 -31.15 -25.15 Q-33.25 -23.2 -34.15 -20.05 L-34.3 -19.45 -35.4 -15.7 Q-34.3 -5.6 -36.0 1.85 L-36.0 1.95 -35.75 1.9 -34.1 7.9 -30.95 16.8 -27.05 25.9 Q-26.05 28.0 -25.15 30.25 -23.1 35.25 -17.85 35.0 L-17.85 35.25 -18.1 39.95 -18.65 45.55 Q-18.9 47.9 -18.75 48.75 L-18.5 50.1 Q-17.55 50.35 -16.5 51.5 -18.75 53.05 -21.25 53.7 L-24.35 53.95 -31.0 53.0 Q-30.9 55.35 -29.55 57.1 -28.25 58.7 -26.3 58.9 -24.05 59.2 -22.25 57.95 L-21.0 57.0 Q-22.5 60.2 -25.25 62.4 -31.7 63.2 -37.2 59.7 -38.8 58.75 -39.9 57.4 L-41.0 56.0 Q-41.15 60.4 -39.1 64.05 -38.25 65.55 -36.7 66.45 -33.6 68.15 -30.5 67.0 -31.6 69.15 -33.8 70.05 L-35.0 70.35 Q-38.5 70.1 -41.35 67.95 L-44.65 65.2 -46.75 63.0 -48.05 61.6 -48.65 60.8 Q-50.6 57.65 -51.25 53.95 -51.5 52.6 -52.5 51.5 L-52.7 52.7 Q-53.4 57.7 -52.0 62.5 -53.8 60.05 -54.35 57.1 L-55.1 53.2 -55.3 52.5 Q-56.75 46.2 -56.35 39.85 L-56.1 36.5 -55.4 30.8 -53.8 21.55 -51.8 12.15 Q-51.0 8.7 -50.5 5.2 -49.45 -2.1 -50.05 -9.5 L-50.35 -14.95 Q-50.55 -22.75 -49.2 -30.5 -48.4 -35.05 -46.95 -39.5 -46.2 -41.85 -45.05 -44.05 L-42.55 -48.6 Q-38.7 -54.6 -34.25 -60.15 L-30.9 -63.9 -27.45 -67.0 Q-21.95 -71.45 -15.4 -73.65 -12.8 -74.4 -10.0 -74.6 L-3.05 -73.9 -0.15 -73.7 Q3.25 -73.55 6.5 -72.6 L8.1 -72.0 Q10.4 -70.95 10.85 -67.5 L11.0 -67.25 11.5 -67.5 M5.5 -51.0 L6.5 -50.55 8.8 -49.2 10.65 -47.65 Q12.35 -46.0 13.05 -44.0 L16.05 -36.0 16.35 -34.95 16.8 -33.1 Q19.45 -24.4 19.0 -14.5 18.85 -11.75 18.3 -9.05 16.3 0.1 13.9 9.5 11.6 18.55 12.2 28.5 12.5 33.25 13.35 38.0 14.25 42.95 16.5 47.0 14.25 42.95 13.35 38.0 12.5 33.25 12.2 28.5 11.6 18.55 13.9 9.5 16.3 0.1 18.3 -9.05 18.85 -11.75 19.0 -14.5 19.45 -24.4 16.8 -33.1 L16.35 -34.95 16.05 -36.0 13.05 -44.0 Q12.35 -46.0 10.65 -47.65 L8.8 -49.2 6.5 -50.55 5.5 -51.0 M6.5 -69.5 L6.95 -68.5 Q7.25 -67.55 6.5 -67.0 7.25 -67.55 6.95 -68.5 L6.5 -69.5 M1.5 -67.5 L2.0 -67.0 3.0 -65.5 2.0 -67.0 1.5 -67.5 M11.0 -67.25 Q8.25 -65.65 5.0 -64.35 1.7 -63.05 -1.05 -59.95 -3.85 -56.9 -7.2 -53.95 -3.85 -56.9 -1.05 -59.95 1.7 -63.05 5.0 -64.35 8.25 -65.65 11.0 -67.25 M35.0 -34.0 L34.95 -35.5 Q34.8 -38.6 33.7 -41.55 L33.3 -42.6 33.0 -43.25 33.3 -42.6 33.7 -41.55 Q34.8 -38.6 34.95 -35.5 L35.0 -34.0 M38.0 -40.5 L35.9 -45.95 Q35.7 -46.55 36.5 -46.0 35.7 -46.55 35.9 -45.95 L38.0 -40.5 M33.0 -51.5 L32.85 -52.45 Q32.25 -54.0 31.3 -55.35 L29.65 -57.6 28.4 -59.4 Q25.75 -63.45 22.0 -66.5 25.75 -63.45 28.4 -59.4 L29.65 -57.6 31.3 -55.35 Q32.25 -54.0 32.85 -52.45 L33.0 -51.5 M25.5 -51.0 L27.55 -47.05 28.8 -44.4 29.65 -42.05 30.8 -38.45 31.7 -35.55 Q34.8 -26.1 34.0 -16.0 34.8 -26.1 31.7 -35.55 L30.8 -38.45 29.65 -42.05 28.8 -44.4 27.55 -47.05 25.5 -51.0 M23.0 -36.0 L24.1 -33.55 Q25.75 -29.35 25.5 -24.5 25.75 -29.35 24.1 -33.55 L23.0 -36.0 M27.5 -31.0 L27.55 -26.0 Q27.8 -16.85 26.15 -7.95 24.4 1.5 23.45 11.0 L23.3 15.0 Q23.5 20.25 24.4 25.5 25.25 30.6 27.25 35.4 28.45 38.4 29.0 41.5 L29.7 44.45 Q30.75 47.65 29.5 50.5 30.75 47.65 29.7 44.45 L29.0 41.5 Q28.45 38.4 27.25 35.4 25.25 30.6 24.4 25.5 23.5 20.25 23.3 15.0 L23.45 11.0 Q24.4 1.5 26.15 -7.95 27.8 -16.85 27.55 -26.0 L27.5 -31.0 M15.5 -46.5 Q17.15 -45.4 17.5 -43.5 17.75 -42.25 18.25 -41.1 20.0 -37.1 21.1 -33.05 22.1 -29.4 22.2 -25.5 L22.15 -24.05 21.95 -21.0 21.9 -18.0 Q21.65 -14.3 21.55 -10.5 L21.3 -8.05 20.55 -4.0 17.1 14.5 Q16.2 19.1 15.95 24.0 15.7 29.1 17.0 33.5 L17.4 35.0 Q18.1 39.35 19.05 43.0 L20.55 47.5 20.85 48.55 Q21.5 52.5 19.5 55.5 21.5 52.5 20.85 48.55 L20.55 47.5 19.05 43.0 Q18.1 39.35 17.4 35.0 L17.0 33.5 Q15.7 29.1 15.95 24.0 16.2 19.1 17.1 14.5 L20.55 -4.0 21.3 -8.05 21.55 -10.5 Q21.65 -14.3 21.9 -18.0 L21.95 -21.0 22.15 -24.05 22.2 -25.5 Q22.1 -29.4 21.1 -33.05 20.0 -37.1 18.25 -41.1 17.75 -42.25 17.5 -43.5 17.15 -45.4 15.5 -46.5 M40.5 -29.0 Q41.65 -22.2 41.8 -13.4 41.9 -4.65 42.95 6.0 44.0 16.65 43.9 25.65 43.75 34.6 48.1 39.7 L49.35 42.05 50.55 45.0 Q52.25 49.5 51.85 54.5 L51.7 57.5 Q51.7 59.45 50.5 60.0 51.7 59.45 51.7 57.5 L51.85 54.5 Q52.25 49.5 50.55 45.0 L49.35 42.05 48.1 39.7 Q43.75 34.6 43.9 25.65 44.0 16.65 42.95 6.0 41.9 -4.65 41.8 -13.4 41.65 -22.2 40.5 -29.0 M30.0 -11.0 L29.5 -6.0 29.25 -1.0 29.25 4.5 Q29.3 13.35 32.4 21.55 33.95 25.75 34.95 30.0 L36.25 34.4 Q37.75 38.85 36.5 43.5 37.75 38.85 36.25 34.4 L34.95 30.0 Q33.95 25.75 32.4 21.55 29.3 13.35 29.25 4.5 L29.25 -1.0 29.5 -6.0 30.0 -11.0 M31.0 -29.5 L30.7 -30.05 Q29.95 -34.25 28.5 -38.0 29.95 -34.25 30.7 -30.05 L31.0 -29.5 M40.0 61.0 L40.35 60.45 Q42.0 55.45 41.4 50.0 L41.3 47.0 Q41.35 43.9 40.35 41.05 L39.75 38.95 38.75 35.05 37.9 30.95 Q37.35 27.95 36.4 25.05 L35.1 20.95 Q32.4 12.45 32.7 3.5 L32.8 1.0 Q32.9 -1.2 33.5 0.0 32.9 -1.2 32.8 1.0 L32.7 3.5 Q32.4 12.45 35.1 20.95 L36.4 25.05 Q37.35 27.95 37.9 30.95 L38.75 35.05 39.75 38.95 40.35 41.05 Q41.35 43.9 41.3 47.0 L41.4 50.0 Q42.0 55.45 40.35 60.45 L40.0 61.0 M34.0 60.0 L33.5 60.5 Q29.15 65.45 22.5 65.0 29.15 65.45 33.5 60.5 L34.0 60.0 M23.0 -2.5 Q21.35 4.55 20.15 11.55 L19.85 13.45 Q19.15 17.35 19.65 21.5 L19.8 23.0 Q20.0 25.8 20.7 28.45 L21.25 30.55 Q22.1 33.9 23.6 36.95 27.6 45.2 26.5 55.0 27.6 45.2 23.6 36.95 22.1 33.9 21.25 30.55 L20.7 28.45 Q20.0 25.8 19.8 23.0 L19.65 21.5 Q19.15 17.35 19.85 13.45 L20.15 11.55 Q21.35 4.55 23.0 -2.5 M21.0 54.0 L21.4 53.45 21.0 54.0 M46.0 60.0 L45.4 60.95 44.35 62.65 Q42.6 66.4 38.5 67.0 42.6 66.4 44.35 62.65 L45.4 60.95 46.0 60.0 M18.4 55.35 Q16.1 57.1 13.0 56.5 16.1 57.1 18.4 55.35 M-35.5 -52.0 L-37.0 -50.0 Q-41.65 -44.05 -43.5 -37.0 -41.65 -44.05 -37.0 -50.0 L-35.5 -52.0 M-53.0 51.0 L-54.05 47.6 Q-55.05 43.15 -54.4 38.8 L-52.8 29.6 -51.25 23.55 Q-49.8 18.8 -49.05 14.0 -48.35 9.45 -48.4 4.7 L-48.5 -3.7 Q-48.55 -6.9 -48.9 -10.0 L-49.0 -12.5 -48.1 -21.95 -47.25 -28.25 -46.7 -31.15 -45.15 -36.55 -43.35 -41.95 Q-42.35 -44.75 -41.05 -47.15 L-36.85 -54.25 -34.0 -58.45 Q-32.1 -60.9 -29.85 -62.85 L-24.4 -67.4 Q-23.3 -68.3 -21.95 -68.8 L-17.0 -71.0 -21.95 -68.8 Q-23.3 -68.3 -24.4 -67.4 L-29.85 -62.85 Q-32.1 -60.9 -34.0 -58.45 L-36.85 -54.25 -41.05 -47.15 Q-42.35 -44.75 -43.35 -41.95 L-45.15 -36.55 -46.7 -31.15 -47.25 -28.25 -48.1 -21.95 -49.0 -12.5 -48.9 -10.0 Q-48.55 -6.9 -48.5 -3.7 L-48.4 4.7 Q-48.35 9.45 -49.05 14.0 -49.8 18.8 -51.25 23.55 L-52.8 29.6 -54.4 38.8 Q-55.05 43.15 -54.05 47.6 L-53.0 51.0 M-5.15 -64.9 Q-3.9 -63.1 -3.5 -61.0 -3.9 -63.1 -5.15 -64.9 M-16.5 -62.5 Q-22.8 -57.35 -23.4 -49.0 -23.75 -44.05 -26.4 -39.95 -29.4 -35.25 -32.5 -31.0 -29.4 -35.25 -26.4 -39.95 -23.75 -44.05 -23.4 -49.0 -22.8 -57.35 -16.5 -62.5 M-27.5 -53.0 Q-29.8 -46.7 -34.4 -41.9 L-36.2 -39.35 -40.25 -30.1 Q-41.95 -25.55 -40.6 -20.95 -40.25 -19.75 -40.25 -18.5 L-40.4 -15.5 Q-40.75 -12.25 -41.7 -9.05 L-42.2 -6.95 Q-42.5 -5.35 -43.0 -6.5 -42.5 -5.35 -42.2 -6.95 L-41.7 -9.05 Q-40.75 -12.25 -40.4 -15.5 L-40.25 -18.5 Q-40.25 -19.75 -40.6 -20.95 -41.95 -25.55 -40.25 -30.1 L-36.2 -39.35 -34.4 -41.9 Q-29.8 -46.7 -27.5 -53.0 M-44.5 -29.0 Q-45.0 -25.75 -45.65 -22.55 -46.8 -17.1 -46.35 -11.5 L-46.05 -8.5 Q-45.4 -3.55 -45.7 1.5 -46.3 10.65 -48.6 19.45 L-49.55 22.45 Q-53.15 31.6 -52.55 41.5 L-52.3 43.45 Q-51.9 45.55 -51.5 45.0 -51.9 45.55 -52.3 43.45 L-52.55 41.5 Q-53.15 31.6 -49.55 22.45 L-48.6 19.45 Q-46.3 10.65 -45.7 1.5 -45.4 -3.55 -46.05 -8.5 L-46.35 -11.5 Q-46.8 -17.1 -45.65 -22.55 -45.0 -25.75 -44.5 -29.0 M-39.5 15.0 L-39.7 20.0 Q-40.35 29.4 -42.5 38.5 L-42.8 40.5 -43.2 45.5 Q-43.4 47.9 -42.45 50.0 L-41.2 51.65 Q-40.25 52.45 -40.0 53.5 -40.25 52.45 -41.2 51.65 L-42.45 50.0 Q-43.4 47.9 -43.2 45.5 L-42.8 40.5 -42.5 38.5 Q-40.35 29.4 -39.7 20.0 L-39.5 15.0 M-18.0 -52.5 Q-20.75 -43.55 -23.65 -38.4 -26.55 -33.25 -32.4 -27.75 -38.3 -22.3 -37.15 -11.2 -36.0 -0.1 -42.0 10.0 -36.0 -0.1 -37.15 -11.2 -38.3 -22.3 -32.4 -27.75 -26.55 -33.25 -23.65 -38.4 -20.75 -43.55 -18.0 -52.5 M-39.5 -36.0 L-40.05 -34.5 Q-43.15 -26.3 -43.5 -17.5 -43.15 -26.3 -40.05 -34.5 L-39.5 -36.0 M-23.0 -59.5 Q-24.6 -54.05 -26.45 -48.5 -27.0 -46.75 -28.0 -45.35 -30.35 -42.1 -33.0 -39.0 -36.75 -34.65 -37.0 -29.0 -36.75 -34.65 -33.0 -39.0 -30.35 -42.1 -28.0 -45.35 -27.0 -46.75 -26.45 -48.5 -24.6 -54.05 -23.0 -59.5 M-35.0 20.5 L-35.05 23.0 Q-35.25 29.6 -36.75 36.05 -39.2 46.25 -33.0 54.5 -39.2 46.25 -36.75 36.05 -35.25 29.6 -35.05 23.0 L-35.0 20.5 M-39.6 10.7 Q-37.2 6.9 -36.0 1.95 -37.2 6.9 -39.6 10.7 M-34.5 42.0 Q-33.75 44.25 -32.5 46.15 -30.75 48.75 -28.2 50.55 -27.25 51.25 -26.0 51.5 -27.25 51.25 -28.2 50.55 -30.75 48.75 -32.5 46.15 -33.75 44.25 -34.5 42.0 M-42.5 19.5 L-43.4 24.5 Q-44.0 27.5 -45.0 30.35 -48.0 38.85 -46.95 48.0 -46.15 55.0 -42.5 61.0 -46.15 55.0 -46.95 48.0 -48.0 38.85 -45.0 30.35 -44.0 27.5 -43.4 24.5 L-42.5 19.5 M-28.5 59.0 L-29.5 58.55 -35.0 56.5 -29.5 58.55 -28.5 59.0 M-50.0 38.0 L-50.15 41.0 Q-50.9 49.8 -45.85 56.9 L-44.75 58.65 Q-43.35 61.1 -41.4 62.9 L-38.0 66.0 -41.4 62.9 Q-43.35 61.1 -44.75 58.65 L-45.85 56.9 Q-50.9 49.8 -50.15 41.0 L-50.0 38.0" fill="url(#gradient0)" fill-rule="evenodd" stroke="none"/>
      <path d="M11.5 -67.5 L12.55 -68.6 Q13.65 -69.4 15.0 -69.4 19.15 -69.35 22.55 -67.15 24.5 -65.85 26.2 -64.0 L29.45 -60.45 32.2 -56.9 35.25 -51.7 Q37.15 -48.3 38.5 -45.0 L41.9 -35.95 Q44.0 -30.15 44.0 -21.5 L43.95 -14.7 44.1 -10.5 Q44.4 -6.75 45.1 -3.0 L46.45 4.6 Q47.4 10.4 46.65 16.3 46.2 19.95 46.05 23.55 45.8 28.4 47.05 33.1 47.65 35.3 48.65 37.4 50.85 41.85 52.05 47.0 L52.65 50.5 Q52.95 52.95 52.85 55.45 L52.7 56.9 52.05 60.0 Q51.25 63.7 48.0 66.0 L48.35 62.85 48.5 59.5 Q47.75 59.9 47.65 60.75 47.55 61.8 47.05 62.55 L45.8 64.3 Q44.55 65.75 42.9 66.85 L40.3 68.35 Q37.05 70.05 33.5 69.3 L32.75 68.75 33.0 68.4 34.55 66.95 Q36.1 65.45 37.0 63.5 35.8 64.3 34.5 64.9 L30.65 66.65 28.95 67.1 25.0 66.95 Q22.5 66.9 20.2 66.0 L17.5 65.5 Q18.25 64.5 19.5 64.45 L21.5 63.95 Q23.65 63.15 24.5 61.0 L20.0 62.1 Q17.1 62.65 14.4 61.25 10.65 59.2 9.5 55.0 11.7 56.3 14.25 55.75 15.45 54.6 15.85 53.15 16.25 51.85 16.15 50.45 15.2 49.45 14.5 48.0 12.4 43.7 11.4 38.9 10.45 34.25 10.05 29.55 9.6 24.75 9.75 20.0 9.9 16.2 10.5 12.45 11.3 7.75 12.4 3.15 L14.0 -4.1 15.1 -10.75 16.0 -19.2 16.05 -23.1 Q15.85 -27.45 14.55 -31.75 L13.0 -36.2 Q11.2 -40.65 8.5 -44.55 6.75 -47.1 4.35 -48.85 L2.3 -50.5 Q0.75 -51.8 -1.05 -52.35 L-3.95 -53.4 -5.35 -53.45 -6.0 -53.6 -8.0 -53.5 -10.0 -53.45 Q-14.25 -52.8 -16.65 -49.1 L-17.4 -47.95 Q-18.5 -46.35 -18.85 -44.55 L-19.3 -42.95 -20.15 -40.05 Q-21.4 -34.95 -25.15 -31.15 L-25.85 -30.35 -29.85 -26.35 -31.15 -25.15 Q-33.25 -23.2 -34.15 -20.05 L-34.3 -19.45 -35.4 -15.7 Q-34.3 -5.6 -36.0 1.85 L-36.0 1.95 Q-37.2 6.9 -39.6 10.7 M-35.75 1.9 L-34.1 7.9 -30.95 16.8 -27.05 25.9 Q-26.05 28.0 -25.15 30.25 -23.1 35.25 -17.85 35.0 L-17.85 35.25 -18.1 39.95 -18.65 45.55 Q-18.9 47.9 -18.75 48.75 L-18.5 50.1 Q-17.55 50.35 -16.5 51.5 -18.75 53.05 -21.25 53.7 L-24.35 53.95 -31.0 53.0 Q-30.9 55.35 -29.55 57.1 -28.25 58.7 -26.3 58.9 -24.05 59.2 -22.25 57.95 L-21.0 57.0 Q-22.5 60.2 -25.25 62.4 -31.7 63.2 -37.2 59.7 -38.8 58.75 -39.9 57.4 L-41.0 56.0 Q-41.15 60.4 -39.1 64.05 -38.25 65.55 -36.7 66.45 -33.6 68.15 -30.5 67.0 -31.6 69.15 -33.8 70.05 L-35.0 70.35 Q-38.5 70.1 -41.35 67.95 L-44.65 65.2 -46.75 63.0 -48.05 61.6 -48.65 60.8 Q-50.6 57.65 -51.25 53.95 -51.5 52.6 -52.5 51.5 L-52.7 52.7 Q-53.4 57.7 -52.0 62.5 -53.8 60.05 -54.35 57.1 L-55.1 53.2 -55.3 52.5 Q-56.75 46.2 -56.35 39.85 L-56.1 36.5 -55.4 30.8 -53.8 21.55 -51.8 12.15 Q-51.0 8.7 -50.5 5.2 -49.45 -2.1 -50.05 -9.5 L-50.35 -14.95 Q-50.55 -22.75 -49.2 -30.5 -48.4 -35.05 -46.95 -39.5 -46.2 -41.85 -45.05 -44.05 L-42.55 -48.6 Q-38.7 -54.6 -34.25 -60.15 L-30.9 -63.9 -27.45 -67.0 Q-21.95 -71.45 -15.4 -73.65 -12.8 -74.4 -10.0 -74.6 L-3.05 -73.9 -0.15 -73.7 Q3.25 -73.55 6.5 -72.6 L8.1 -72.0 Q10.4 -70.95 10.85 -67.5 M-6.0 -53.6 L-7.2 -53.95" fill="none" stroke="#000000" stroke-linecap="round" stroke-linejoin="round" stroke-width="2.0"/>
      <path d="M3.0 -65.5 L2.0 -67.0 1.5 -67.5 M6.5 -67.0 Q7.25 -67.55 6.95 -68.5 L6.5 -69.5 M16.5 47.0 Q14.25 42.95 13.35 38.0 12.5 33.25 12.2 28.5 11.6 18.55 13.9 9.5 16.3 0.1 18.3 -9.05 18.85 -11.75 19.0 -14.5 19.45 -24.4 16.8 -33.1 L16.35 -34.95 16.05 -36.0 13.05 -44.0 Q12.35 -46.0 10.65 -47.65 L8.8 -49.2 6.5 -50.55 5.5 -51.0 M22.0 -66.5 Q25.75 -63.45 28.4 -59.4 L29.65 -57.6 31.3 -55.35 Q32.25 -54.0 32.85 -52.45 L33.0 -51.5 M36.5 -46.0 Q35.7 -46.55 35.9 -45.95 L38.0 -40.5 M33.0 -43.25 L33.3 -42.6 33.7 -41.55 Q34.8 -38.6 34.95 -35.5 L35.0 -34.0 M25.5 -24.5 Q25.75 -29.35 24.1 -33.55 L23.0 -36.0 M28.5 -38.0 Q29.95 -34.25 30.7 -30.05 L31.0 -29.5 M36.5 43.5 Q37.75 38.85 36.25 34.4 L34.95 30.0 Q33.95 25.75 32.4 21.55 29.3 13.35 29.25 4.5 L29.25 -1.0 29.5 -6.0 30.0 -11.0 M50.5 60.0 Q51.7 59.45 51.7 57.5 L51.85 54.5 Q52.25 49.5 50.55 45.0 L49.35 42.05 48.1 39.7 Q43.75 34.6 43.9 25.65 44.0 16.65 42.95 6.0 41.9 -4.65 41.8 -13.4 41.65 -22.2 40.5 -29.0 M26.5 55.0 Q27.6 45.2 23.6 36.95 22.1 33.9 21.25 30.55 L20.7 28.45 Q20.0 25.8 19.8 23.0 L19.65 21.5 Q19.15 17.35 19.85 13.45 L20.15 11.55 Q21.35 4.55 23.0 -2.5 M22.5 65.0 Q29.15 65.45 33.5 60.5 L34.0 60.0 M13.0 56.5 Q16.1 57.1 18.4 55.35 M38.5 67.0 Q42.6 66.4 44.35 62.65 L45.4 60.95 46.0 60.0 M-17.0 -71.0 L-21.95 -68.8 Q-23.3 -68.3 -24.4 -67.4 L-29.85 -62.85 Q-32.1 -60.9 -34.0 -58.45 L-36.85 -54.25 -41.05 -47.15 Q-42.35 -44.75 -43.35 -41.95 L-45.15 -36.55 -46.7 -31.15 -47.25 -28.25 -48.1 -21.95 -49.0 -12.5 -48.9 -10.0 Q-48.55 -6.9 -48.5 -3.7 L-48.4 4.7 Q-48.35 9.45 -49.05 14.0 -49.8 18.8 -51.25 23.55 L-52.8 29.6 -54.4 38.8 Q-55.05 43.15 -54.05 47.6 L-53.0 51.0 M-3.5 -61.0 Q-3.9 -63.1 -5.15 -64.9 M-37.0 -29.0 Q-36.75 -34.65 -33.0 -39.0 -30.35 -42.1 -28.0 -45.35 -27.0 -46.75 -26.45 -48.5 -24.6 -54.05 -23.0 -59.5 M-43.5 -17.5 Q-43.15 -26.3 -40.05 -34.5 L-39.5 -36.0 M-42.0 10.0 Q-36.0 -0.1 -37.15 -11.2 -38.3 -22.3 -32.4 -27.75 -26.55 -33.25 -23.65 -38.4 -20.75 -43.55 -18.0 -52.5 M-40.0 53.5 Q-40.25 52.45 -41.2 51.65 L-42.45 50.0 Q-43.4 47.9 -43.2 45.5 L-42.8 40.5 -42.5 38.5 Q-40.35 29.4 -39.7 20.0 L-39.5 15.0 M-26.0 51.5 Q-27.25 51.25 -28.2 50.55 -30.75 48.75 -32.5 46.15 -33.75 44.25 -34.5 42.0 M-38.0 66.0 L-41.4 62.9 Q-43.35 61.1 -44.75 58.65 L-45.85 56.9 Q-50.9 49.8 -50.15 41.0 L-50.0 38.0 M-35.0 56.5 L-29.5 58.55 -28.5 59.0" fill="none" stroke="#5a4a30" stroke-linecap="round" stroke-linejoin="round" stroke-width="2.0"/>
      <path d="M-7.2 -53.95 Q-3.85 -56.9 -1.05 -59.95 1.7 -63.05 5.0 -64.35 8.25 -65.65 11.0 -67.25 M34.0 -16.0 Q34.8 -26.1 31.7 -35.55 L30.8 -38.45 29.65 -42.05 28.8 -44.4 27.55 -47.05 25.5 -51.0 M21.4 53.45 L21.0 54.0 M-43.5 -37.0 Q-41.65 -44.05 -37.0 -50.0 L-35.5 -52.0 M-7.2 -53.95 L-8.0 -53.5 M-51.5 45.0 Q-51.9 45.55 -52.3 43.45 L-52.55 41.5 Q-53.15 31.6 -49.55 22.45 L-48.6 19.45 Q-46.3 10.65 -45.7 1.5 -45.4 -3.55 -46.05 -8.5 L-46.35 -11.5 Q-46.8 -17.1 -45.65 -22.55 -45.0 -25.75 -44.5 -29.0 M-43.0 -6.5 Q-42.5 -5.35 -42.2 -6.95 L-41.7 -9.05 Q-40.75 -12.25 -40.4 -15.5 L-40.25 -18.5 Q-40.25 -19.75 -40.6 -20.95 -41.95 -25.55 -40.25 -30.1 L-36.2 -39.35 -34.4 -41.9 Q-29.8 -46.7 -27.5 -53.0 M-32.5 -31.0 Q-29.4 -35.25 -26.4 -39.95 -23.75 -44.05 -23.4 -49.0 -22.8 -57.35 -16.5 -62.5" fill="none" stroke="#38281d" stroke-linecap="round" stroke-linejoin="round" stroke-width="2.0"/>
      <path d="M19.5 55.5 Q21.5 52.5 20.85 48.55 L20.55 47.5 19.05 43.0 Q18.1 39.35 17.4 35.0 L17.0 33.5 Q15.7 29.1 15.95 24.0 16.2 19.1 17.1 14.5 L20.55 -4.0 21.3 -8.05 21.55 -10.5 Q21.65 -14.3 21.9 -18.0 L21.95 -21.0 22.15 -24.05 22.2 -25.5 Q22.1 -29.4 21.1 -33.05 20.0 -37.1 18.25 -41.1 17.75 -42.25 17.5 -43.5 17.15 -45.4 15.5 -46.5 M29.5 50.5 Q30.75 47.65 29.7 44.45 L29.0 41.5 Q28.45 38.4 27.25 35.4 25.25 30.6 24.4 25.5 23.5 20.25 23.3 15.0 L23.45 11.0 Q24.4 1.5 26.15 -7.95 27.8 -16.85 27.55 -26.0 L27.5 -31.0 M33.5 0.0 Q32.9 -1.2 32.8 1.0 L32.7 3.5 Q32.4 12.45 35.1 20.95 L36.4 25.05 Q37.35 27.95 37.9 30.95 L38.75 35.05 39.75 38.95 40.35 41.05 Q41.35 43.9 41.3 47.0 L41.4 50.0 Q42.0 55.45 40.35 60.45 L40.0 61.0 M-33.0 54.5 Q-39.2 46.25 -36.75 36.05 -35.25 29.6 -35.05 23.0 L-35.0 20.5 M-42.5 61.0 Q-46.15 55.0 -46.95 48.0 -48.0 38.85 -45.0 30.35 -44.0 27.5 -43.4 24.5 L-42.5 19.5" fill="none" stroke="#272114" stroke-linecap="round" stroke-linejoin="round" stroke-width="2.0"/>
    </g>
    </g>
  </g>
  <defs>
    <radialGradient cx="0" cy="0" gradientTransform="matrix(0.0249, 0.1374, -0.1716, 0.0311, -7.0, -56.5)" gradientUnits="userSpaceOnUse" id="gradient0" r="819.2" spreadMethod="pad">
      <stop offset="0.0" stop-color="#46321a"/>
      <stop offset="0.22745098039215686" stop-color="#46321a"/>
      <stop offset="0.3176470588235294" stop-color="#58412c"/>
      <stop offset="0.403921568627451" stop-color="#46321a"/>
      <stop offset="1.0" stop-color="#3d200c"/>
    </radialGradient>
  </defs>
</svg>