<svg xmlns:xlink="http://www.w3.org/1999/xlink" xmlns="http://www.w3.org/2000/svg" height="202.2px" width="161.9px">
  <g transform="matrix(1.0, 0.0, 0.0, 1.0, 74.15, 81.7)">
    <g data-characterId="1438" height="191.8" transform="matrix(1.0, 0.0, 0.0, 1.0, -62.5, -71.3)" width="142.5" xlink:href="#shape0"><g id="shape0" transform="matrix(1.0, 0.0, 0.0, 1.0, 62.5, 71.3)">
      <path d="M-5.5 -49.0 Q-12.65 -29.4 -33.15 -26.55 L-50.0 -26.0 -54.5 -23.5 -54.1 -25.0 -52.4 -27.45 Q-49.65 -29.0 -47.05 -29.75 -52.85 -33.65 -61.0 -29.0 -56.95 -38.85 -45.0 -42.0 -51.95 -44.75 -62.0 -39.0 -58.05 -48.25 -49.0 -52.5 L-48.0 -54.0 Q-45.6 -54.95 -44.05 -56.05 L-28.55 -56.55 -24.0 -57.0" fill="none" stroke="#000000" stroke-linecap="round" stroke-linejoin="round" stroke-width="2.0"/>
      <path d="M-36.0 -57.5 Q-20.65 -70.6 -1.0 -70.8 5.2 -70.85 9.0 -67.5 L17.0 -67.5 Q41.9 -55.5 45.35 -28.35 L47.55 -10.6 Q51.5 23.55 62.15 56.3 63.9 61.65 63.0 67.5 M-5.0 -48.5 Q-9.45 -29.15 1.2 -11.35 L2.5 -8.5 Q2.15 -11.3 2.25 -16.0 2.4 -21.85 4.5 -27.0 L6.0 -20.5 M-39.0 -23.0 Q-38.75 -26.35 -40.15 -21.55 L-43.5 25.45 Q-44.15 34.55 -47.75 43.1 -54.7 59.8 -53.5 77.5 L-47.0 55.0 Q-51.6 77.35 -36.5 98.5 -34.95 98.85 -34.5 99.5 -44.5 80.35 -37.0 58.0 -34.2 79.3 -21.5 96.0 -26.25 77.7 -24.0 58.5 -20.5 67.95 -13.0 74.5 -21.3 59.45 -20.3 42.0 -20.0 36.7 -19.0 31.5 M12.0 15.5 L12.0 19.65 Q12.45 31.25 18.1 44.15 22.75 54.85 30.0 63.0 L26.0 44.5 Q32.05 61.4 45.2 75.75 48.9 79.75 48.0 77.5 M7.5 -36.0 Q5.45 -17.2 6.55 2.0 7.5 18.35 12.0 34.0 L12.0 19.65 M14.0 35.5 Q13.3 53.35 19.55 71.3 22.6 80.0 26.1 88.25 29.6 96.65 35.5 102.0 31.1 95.7 31.9 87.0 L32.0 85.0 Q37.0 104.35 54.3 116.8 56.15 118.1 57.5 120.0 49.45 106.3 48.5 88.5 59.5 103.45 75.0 111.5 62.3 100.1 60.55 79.0 L60.5 77.5 Q65.55 90.6 79.5 91.5 66.95 85.9 66.5 70.0" fill="none" stroke="#000000" stroke-linecap="round" stroke-linejoin="round" stroke-width="2.0"/>
    </g>
  </g>
  </g>
  <defs>
    </defs>
</svg>