<svg xmlns:xlink="http://www.w3.org/1999/xlink" xmlns="http://www.w3.org/2000/svg" height="202.2px" width="161.9px">
  <g transform="matrix(1.0, 0.0, 0.0, 1.0, 74.15, 81.7)">
    <g data-characterId="1436" height="172.75" transform="matrix(1.0, 0.0, 0.0, 1.0, -44.0, -70.75)" width="104.35" xlink:href="#shape0"><g id="shape0" transform="matrix(1.0, 0.0, 0.0, 1.0, 44.0, 70.75)">
      <path d="M-29.75 -51.2 Q-36.85 -44.8 -37.45 -35.05 -37.95 -26.8 -36.4 -19.0 -36.05 -17.15 -36.2 -15.3 L-36.3 -10.5 Q-36.05 -5.0 -34.8 0.4 -32.6 9.9 -29.4 19.15 L-26.85 25.95 Q-25.6 29.05 -23.8 31.1 -22.0 33.1 -20.35 33.65 L-16.95 34.85 Q-18.15 36.55 -18.05 38.5 L-18.15 40.45 Q-18.6 43.95 -18.5 47.5 -18.35 53.15 -19.4 58.9 -19.85 61.4 -19.55 63.95 -19.1 67.25 -18.0 70.5 -23.85 65.4 -26.25 58.0 L-27.0 55.0 Q-28.8 59.2 -29.35 63.65 -29.85 67.75 -29.85 72.3 L-30.05 73.3 Q-31.25 72.75 -32.55 70.65 -38.4 60.8 -36.5 50.0 L-43.5 62.0 Q-43.55 56.65 -41.4 51.65 L-39.85 47.85 Q-39.05 45.65 -38.8 43.35 L-37.95 35.1 -37.7 33.1 Q-36.05 23.45 -37.65 13.95 -38.65 8.0 -39.1 2.0 -39.6 -5.1 -40.75 -12.05 -41.95 -19.5 -41.75 -27.0 -41.55 -35.45 -39.1 -43.6 -38.25 -46.35 -36.9 -48.95 -33.0 -56.4 -26.35 -61.8 L-25.35 -62.3 Q-24.55 -62.4 -23.95 -62.95 -19.35 -67.25 -13.5 -69.45 L-8.9 -70.2 -6.45 -69.95 Q1.5 -70.55 9.45 -69.85 L14.55 -69.7 Q24.05 -67.15 30.75 -59.7 L31.95 -58.9 34.2 -56.25 34.6 -55.9 34.9 -55.65 Q36.6 -54.0 37.75 -51.65 41.5 -44.3 43.3 -36.0 L44.45 -29.75 Q45.9 -18.8 45.45 -7.5 L44.85 0.8 Q43.9 8.9 45.4 17.05 47.05 25.9 49.9 34.45 52.05 40.9 55.2 46.95 L55.9 48.6 Q59.2 58.9 59.8 69.5 L59.8 73.4 Q59.45 80.7 55.0 86.5 L53.5 77.0 Q52.75 77.55 52.3 78.3 48.9 84.2 44.65 89.8 L35.0 101.5 36.55 94.5 Q36.8 91.4 35.8 88.45 L35.5 88.0 Q32.8 94.95 26.0 98.0 29.9 89.25 28.5 80.0 26.55 85.25 21.75 88.35 21.2 88.5 21.75 86.9 26.6 73.25 25.0 57.5 L24.7 57.3 23.35 59.4 Q20.95 62.75 22.85 66.1 17.95 60.55 21.4 53.7 25.8 44.9 23.7 35.45 23.2 33.1 22.35 30.9 19.4 23.4 19.6 15.35 L20.2 -1.0 Q20.6 -9.25 20.6 -17.5 20.6 -26.75 18.1 -35.7 16.9 -40.1 13.7 -43.1 11.85 -44.8 9.55 -45.75 L4.5 -47.6 Q0.0 -48.95 -4.35 -48.15 L-13.2 -47.7 Q-20.0 -47.75 -26.45 -49.7 -28.1 -50.15 -29.75 -51.2 L-31.0 -52.0 -29.75 -51.2 M29.0 37.5 L27.55 49.8 26.5 53.6 24.7 57.3 26.5 53.6 27.55 49.8 29.0 37.5" fill="url(#gradient0)" fill-rule="evenodd" stroke="none"/>
      <path d="M25.0 57.5 Q26.6 73.25 21.75 86.9 21.2 88.5 21.75 88.35 26.55 85.25 28.5 80.0 29.9 89.25 26.0 98.0 32.8 94.95 35.5 88.0 L35.8 88.45 Q36.8 91.4 36.55 94.5 L35.0 101.5 44.65 89.8 Q48.9 84.2 52.3 78.3 52.75 77.55 53.5 77.0 L55.0 86.5 Q59.45 80.7 59.8 73.4 L59.8 69.5 Q59.2 58.9 55.9 48.6 L55.2 46.95 Q52.05 40.9 49.9 34.45 47.05 25.9 45.4 17.05 43.9 8.9 44.85 0.8 L45.45 -7.5 Q45.9 -18.8 44.45 -29.75 L43.3 -36.0 Q41.5 -44.3 37.75 -51.65 36.6 -54.0 34.9 -55.65 L34.6 -55.9 34.2 -56.25 31.95 -58.9 30.75 -59.7 Q24.05 -67.15 14.55 -69.7 L9.45 -69.85 Q1.5 -70.55 -6.45 -69.95 L-8.9 -70.2 -13.5 -69.45 Q-19.35 -67.25 -23.95 -62.95 -24.55 -62.4 -25.35 -62.3 L-26.35 -61.8 Q-33.0 -56.4 -36.9 -48.95 -38.25 -46.35 -39.1 -43.6 -41.55 -35.45 -41.75 -27.0 -41.95 -19.5 -40.75 -12.05 -39.6 -5.1 -39.1 2.0 -38.65 8.0 -37.65 13.95 -36.05 23.45 -37.7 33.1 L-37.95 35.1 -38.8 43.35 Q-39.05 45.65 -39.85 47.85 L-41.4 51.65 Q-43.55 56.65 -43.5 62.0 L-36.5 50.0 Q-38.4 60.8 -32.55 70.65 -31.25 72.75 -30.05 73.3 L-29.85 72.3 Q-29.85 67.75 -29.35 63.65 -28.8 59.2 -27.0 55.0 L-26.25 58.0 Q-23.85 65.4 -18.0 70.5 -19.1 67.25 -19.55 63.95 -19.85 61.4 -19.4 58.9 -18.35 53.15 -18.5 47.5 -18.6 43.95 -18.15 40.45 L-18.05 38.5 Q-18.15 36.55 -16.95 34.85 L-20.35 33.65 Q-22.0 33.1 -23.8 31.1 -25.6 29.05 -26.85 25.95 L-29.4 19.15 Q-32.6 9.9 -34.8 0.4 -36.05 -5.0 -36.3 -10.5 L-36.2 -15.3 Q-36.05 -17.15 -36.4 -19.0 -37.95 -26.8 -37.45 -35.05 -36.85 -44.8 -29.75 -51.2 L-31.0 -52.0 M-29.75 -51.2 Q-28.1 -50.15 -26.45 -49.7 -20.0 -47.75 -13.2 -47.7 L-4.35 -48.15 Q0.0 -48.95 4.5 -47.6 L9.55 -45.75 Q11.85 -44.8 13.7 -43.1 16.9 -40.1 18.1 -35.7 20.6 -26.75 20.6 -17.5 20.6 -9.25 20.2 -1.0 L19.6 15.35 Q19.4 23.4 22.35 30.9 23.2 33.1 23.7 35.45 25.8 44.9 21.4 53.7 17.95 60.55 22.85 66.1 20.95 62.75 23.35 59.4 L24.7 57.3 26.5 53.6 27.55 49.8 29.0 37.5 M22.85 66.1 L24.0 67.0" fill="none" stroke="#000000" stroke-linecap="round" stroke-linejoin="round" stroke-width="2.0"/>
    </g>
    </g>
  </g>
  <defs>
    <radialGradient cx="0" cy="0" gradientTransform="matrix(0.0011, 0.109, -0.1487, 0.0014, -5.75, -50.55)" gradientUnits="userSpaceOnUse" id="gradient0" r="819.2" spreadMethod="pad">
      <stop offset="0.0" stop-color="#996600"/>
      <stop offset="0.2196078431372549" stop-color="#996600"/>
      <stop offset="0.34901960784313724" stop-color="#feda9e"/>
      <stop offset="0.5019607843137255" stop-color="#996600"/>
      <stop offset="1.0" stop-color="#996600"/>
    </radialGradient>
  </defs>
</svg>