<svg xmlns:xlink="http://www.w3.org/1999/xlink" xmlns="http://www.w3.org/2000/svg" height="98.75px" width="161.15px">
  <g transform="matrix(1.0, 0.0, 0.0, 1.0, 83.0, 71.7)">
    <g data-characterId="1267" height="73.5" transform="matrix(1.0, 0.0, 0.0, 1.0, -67.25, -54.0)" width="144.85" xlink:href="#shape0"><g id="shape0" transform="matrix(1.0, 0.0, 0.0, 1.0, 67.25, 54.0)">
      <path d="M26.85 -43.65 L27.7 -43.75 27.0 -42.4 26.85 -43.65 M-7.75 -4.0 L-8.0 -2.7 -8.55 -3.35 -7.75 -4.0" fill="#003e55" fill-rule="evenodd" stroke="none"/>
      <path d="M-19.25 16.85 L-19.45 16.8 -19.3 16.75 -19.25 16.85" fill="#006699" fill-rule="evenodd" stroke="none"/>
      <path d="M-7.0 -6.75 L-7.4 -4.35 -7.75 -4.0 -7.0 -6.75" fill="url(#gradient0)" fill-rule="evenodd" stroke="none"/>
      <path d="M-19.45 16.8 L-19.6 16.8 -19.35 16.65 -19.3 16.75 -19.45 16.8" fill="url(#gradient1)" fill-rule="evenodd" stroke="none"/>
      <path d="M32.2 -32.2 L32.7 -32.25 Q40.05 -17.65 57.9 -15.1 L68.5 -14.5 69.15 -14.5 Q73.25 -14.15 77.1 -15.55 L71.2 -8.5 71.75 -7.35 Q59.0 5.5 41.25 12.6 29.5 17.25 17.3 17.25 16.1 17.25 14.9 16.5 L1.55 7.7 -1.1 6.3 Q-3.1 4.0 -5.9 4.65 L-6.7 4.85 Q-9.35 2.0 -12.55 3.45 -9.35 2.0 -6.7 4.85 L-5.9 4.65 Q-3.1 4.0 -1.1 6.3 0.15 9.45 -2.95 10.15 L-4.45 10.4 -6.75 18.45 -13.7 17.6 -17.85 16.95 Q-18.8 14.7 -17.7 12.65 -17.05 11.55 -17.5 10.6 -19.05 7.25 -19.8 3.45 -29.45 2.55 -38.45 6.2 -51.8 11.5 -59.7 -1.7 -62.05 -2.8 -64.05 -4.15 -68.85 -7.45 -65.15 -10.75 -59.7 -15.55 -53.1 -18.25 -41.6 -23.15 -31.45 -29.35 -31.3 -25.3 -32.65 -21.35 -33.4 -19.25 -33.05 -16.85 -31.95 -9.5 -27.2 -4.8 -23.2 -0.9 -16.65 1.1 L-19.8 3.45 -16.65 1.1 -15.4 2.35 -13.45 4.25 -12.55 3.45 Q-10.8 1.4 -8.45 0.5 4.6 -5.1 16.85 -12.25 28.6 -19.05 32.2 -32.2 M64.15 -12.1 Q63.15 -12.65 61.85 -12.5 L60.7 -12.5 57.25 -12.8 55.8 -12.8 54.15 -12.9 50.7 -13.45 50.65 -13.5 47.45 -14.35 Q46.9 -14.55 46.4 -14.85 42.35 -17.1 38.9 -20.2 37.65 -21.35 36.8 -22.75 L35.55 -24.35 Q35.1 -24.85 34.8 -25.45 L33.95 -26.45 Q32.5 -22.55 29.05 -19.0 L28.3 -18.1 Q27.4 -16.7 26.2 -15.75 21.65 -12.05 16.65 -9.65 L10.95 -6.5 8.95 -5.4 Q3.65 -2.7 -1.75 -0.65 -3.25 -0.05 -4.6 0.85 -3.25 -0.05 -1.75 -0.65 3.65 -2.7 8.95 -5.4 L10.95 -6.5 16.65 -9.65 Q21.65 -12.05 26.2 -15.75 27.4 -16.7 28.3 -18.1 L29.05 -19.0 Q32.5 -22.55 33.95 -26.45 L34.8 -25.45 Q35.1 -24.85 35.55 -24.35 L36.8 -22.75 Q37.65 -21.35 38.9 -20.2 42.35 -17.1 46.4 -14.85 46.9 -14.55 47.45 -14.35 L50.65 -13.5 50.7 -13.45 54.15 -12.9 55.8 -12.8 57.25 -12.8 60.7 -12.5 61.85 -12.5 Q63.15 -12.65 64.15 -12.1 M48.65 -6.9 L51.45 -7.15 53.8 -7.2 53.5 -6.95 Q51.1 -5.1 48.1 -4.2 41.5 -2.25 34.85 -3.2 L34.55 -3.2 Q35.8 -2.2 37.4 -1.8 L41.1 -0.8 43.75 0.0 Q42.05 1.2 39.45 2.0 34.65 3.5 29.65 3.35 L25.05 3.2 Q23.15 3.15 22.05 2.45 L21.25 1.75 22.05 2.45 Q23.15 3.15 25.05 3.2 L29.65 3.35 Q34.65 3.5 39.45 2.0 42.05 1.2 43.75 0.0 L41.1 -0.8 37.4 -1.8 Q35.8 -2.2 34.55 -3.2 L34.85 -3.2 Q41.5 -2.25 48.1 -4.2 51.1 -5.1 53.5 -6.95 L53.8 -7.2 51.45 -7.15 48.65 -6.9 M34.25 -15.25 L34.85 -15.0 Q35.55 -14.7 36.05 -14.2 36.35 -13.9 35.95 -13.65 32.65 -11.6 28.8 -11.55 L29.65 -11.3 31.65 -10.95 33.7 -10.4 33.1 -9.8 30.25 -8.55 Q26.9 -7.1 23.3 -7.35 L23.2 -7.35 23.6 -7.15 24.2 -6.9 24.75 -6.65 Q25.45 -6.4 25.35 -5.75 L25.05 -5.55 21.6 -4.55 Q17.6 -3.3 13.85 -4.6 17.6 -3.3 21.6 -4.55 L25.05 -5.55 25.35 -5.75 Q25.45 -6.4 24.75 -6.65 L24.2 -6.9 23.6 -7.15 23.2 -7.35 23.3 -7.35 Q26.9 -7.1 30.25 -8.55 L33.1 -9.8 33.7 -10.4 31.65 -10.95 29.65 -11.3 28.8 -11.55 Q32.65 -11.6 35.95 -13.65 36.35 -13.9 36.05 -14.2 35.55 -14.7 34.85 -15.0 L34.25 -15.25 M52.95 -9.5 L53.5 -10.05 Q54.75 -11.2 54.15 -12.9 54.75 -11.2 53.5 -10.05 L52.95 -9.5 M48.3 -8.05 L48.7 -8.5 Q51.65 -10.2 50.7 -13.45 51.65 -10.2 48.7 -8.5 L48.3 -8.05 M40.85 6.05 Q46.4 5.05 51.25 2.1 L53.4 0.75 62.35 -5.55 63.55 -6.6 67.0 -10.35 67.65 -11.45 68.5 -13.85 68.5 -14.5 68.5 -13.85 67.65 -11.45 67.0 -10.35 63.55 -6.6 62.35 -5.55 53.4 0.75 51.25 2.1 Q46.4 5.05 40.85 6.05 M73.1 -13.2 Q71.85 -12.35 70.5 -12.95 71.85 -12.35 73.1 -13.2 M22.05 2.45 L22.15 2.55 25.05 4.8 27.1 5.8 Q28.35 6.25 28.8 7.05 L26.5 7.25 20.75 7.65 Q16.85 7.9 13.3 6.25 L9.2 4.35 Q6.85 3.2 5.5 0.85 6.85 3.2 9.2 4.35 L13.3 6.25 Q16.85 7.9 20.75 7.65 L26.5 7.25 28.8 7.05 Q28.35 6.25 27.1 5.8 L25.05 4.8 22.15 2.55 22.05 2.45 M-54.85 -11.1 Q-56.25 -12.2 -57.35 -13.95 L-58.65 -13.15 -62.45 -10.65 -62.9 -10.25 Q-63.75 -9.1 -64.75 -8.35 -63.75 -9.1 -62.9 -10.25 L-62.45 -10.65 -58.65 -13.15 -57.35 -13.95 -55.3 -15.05 -54.1 -15.6 Q-48.6 -17.85 -43.45 -20.2 -40.95 -21.35 -38.65 -22.6 -38.4 -22.7 -38.2 -22.95 L-36.05 -24.85 -35.6 -25.2 Q-34.85 -25.75 -33.65 -25.9 -34.05 -24.4 -34.85 -22.9 L-35.6 -20.7 -35.7 -19.55 -35.6 -20.7 -34.85 -22.9 Q-34.05 -24.4 -33.65 -25.9 -34.85 -25.75 -35.6 -25.2 L-36.05 -24.85 -38.2 -22.95 Q-38.4 -22.7 -38.65 -22.6 -40.95 -21.35 -43.45 -20.2 -48.6 -17.85 -54.1 -15.6 L-55.3 -15.05 -57.35 -13.95 Q-56.25 -12.2 -54.85 -11.1 M-31.35 -1.15 L-31.65 -0.9 -32.6 -0.3 -35.35 0.55 Q-39.4 1.75 -43.15 0.55 L-42.55 0.25 Q-39.25 -1.45 -36.85 -3.3 -41.0 -0.5 -46.3 -1.2 L-50.05 -1.65 Q-52.45 -1.9 -54.05 -3.45 -53.6 -3.95 -52.65 -4.1 -47.6 -5.1 -44.0 -8.35 -46.9 -6.8 -50.9 -6.55 -54.4 -6.35 -57.5 -7.5 L-57.2 -7.75 -55.9 -8.5 Q-53.45 -10.25 -50.9 -11.55 -53.45 -10.25 -55.9 -8.5 L-57.2 -7.75 -57.5 -7.5 Q-54.4 -6.35 -50.9 -6.55 -46.9 -6.8 -44.0 -8.35 -47.6 -5.1 -52.65 -4.1 -53.6 -3.95 -54.05 -3.45 -52.45 -1.9 -50.05 -1.65 L-46.3 -1.2 Q-41.0 -0.5 -36.85 -3.3 -39.25 -1.45 -42.55 0.25 L-43.15 0.55 Q-39.4 1.75 -35.35 0.55 L-32.6 -0.3 -31.65 -0.9 -31.35 -1.15 M-55.3 -15.05 L-54.6 -14.15 -54.1 -13.55 -54.6 -14.15 -55.3 -15.05 M-33.35 -5.5 Q-34.4 -5.75 -34.2 -6.9 -34.35 -6.75 -34.5 -6.75 -35.2 -6.75 -35.6 -7.2 -37.15 -9.1 -35.1 -10.4 L-36.5 -10.45 -38.55 -10.3 Q-39.1 -10.25 -39.35 -10.6 -40.4 -12.55 -38.25 -13.25 L-40.25 -13.35 Q-41.6 -13.45 -42.25 -13.85 L-42.0 -14.1 Q-40.65 -15.75 -38.8 -16.4 -40.65 -15.75 -42.0 -14.1 L-42.25 -13.85 Q-41.6 -13.45 -40.25 -13.35 L-38.25 -13.25 Q-40.4 -12.55 -39.35 -10.6 -39.1 -10.25 -38.55 -10.3 L-36.5 -10.45 -35.1 -10.4 Q-37.15 -9.1 -35.6 -7.2 -35.2 -6.75 -34.5 -6.75 -34.35 -6.75 -34.2 -6.9 -34.4 -5.75 -33.35 -5.5 M-12.7 7.5 L-13.35 8.15 -13.45 8.2 Q-16.6 11.5 -10.4 12.3 -8.3 11.8 -8.95 9.55 -9.65 7.35 -12.1 6.9 L-12.7 7.5" fill="url(#gradient2)" fill-rule="evenodd" stroke="none"/>
      <path d="M-15.3 1.45 L-15.4 2.35 -16.65 1.1 -15.3 1.45" fill="#e78d1e" fill-rule="evenodd" stroke="none"/>
      <path d="M-21.1 -37.6 L-19.35 -37.9 -19.4 -37.4 -21.1 -37.6 M-22.75 -15.5 L-21.85 -15.95 -22.7 -15.4 -22.75 -15.45 -22.75 -15.5" fill="#562f0a" fill-rule="evenodd" stroke="none"/>
      <path d="M26.35 -51.3 L26.0 -53.5 Q33.4 -51.7 32.75 -44.0 32.25 -38.1 32.2 -32.25 L32.2 -32.2 Q28.6 -19.05 16.85 -12.25 4.6 -5.1 -8.45 0.5 -10.8 1.4 -12.55 3.45 L-13.45 4.25 -15.4 2.35 -15.3 1.45 Q-14.45 -2.65 -8.55 -3.35 -14.45 -2.65 -15.3 1.45 L-16.65 1.1 Q-23.2 -0.9 -27.2 -4.8 -31.95 -9.5 -33.05 -16.85 -33.4 -19.25 -32.65 -21.35 -31.3 -25.3 -31.45 -29.35 L-31.55 -30.5 -31.95 -33.1 -32.45 -34.9 -32.8 -36.95 -32.8 -37.1 Q-32.85 -38.8 -32.05 -40.2 L-30.45 -40.35 -29.8 -40.05 -28.7 -38.95 -28.7 -36.3 -28.5 -33.45 -28.25 -31.4 -27.55 -27.75 Q-26.1 -21.25 -22.75 -15.5 L-22.75 -15.45 -22.7 -15.4 -21.15 -12.9 Q-19.4 -10.25 -17.15 -8.25 -13.5 -4.95 -8.55 -3.35 L-8.0 -2.7 -7.75 -4.0 -7.4 -4.35 -7.0 -6.75 -4.9 -13.45 Q-4.2 -19.8 0.3 -24.95 4.8 -30.1 27.0 -42.4 L27.7 -43.75 Q29.95 -48.05 26.35 -51.3 M14.9 16.5 Q4.2 19.2 -6.75 18.45 L-4.45 10.4 -2.95 10.15 Q0.15 9.45 -1.1 6.3 L1.55 7.7 14.9 16.5 M31.65 -45.75 L31.25 -42.85 Q31.0 -41.85 30.3 -41.05 L29.7 -40.25 27.65 -37.95 26.85 -37.35 Q25.1 -36.15 24.2 -34.25 L23.85 -33.1 23.6 -32.35 23.85 -33.1 24.2 -34.25 Q25.1 -36.15 26.85 -37.35 L27.65 -37.95 29.7 -40.25 30.3 -41.05 Q31.0 -41.85 31.25 -42.85 L31.65 -45.75 M25.7 -39.3 L24.9 -38.65 24.4 -38.3 23.75 -37.8 22.0 -36.25 21.6 -35.9 19.6 -33.45 19.15 -32.65 Q18.7 -31.05 17.7 -29.8 L17.15 -29.0 16.7 -28.45 Q14.7 -26.3 11.95 -25.6 14.7 -26.3 16.7 -28.45 L17.15 -29.0 17.7 -29.8 Q18.7 -31.05 19.15 -32.65 L19.6 -33.45 21.6 -35.9 22.0 -36.25 23.75 -37.8 24.4 -38.3 24.9 -38.65 25.7 -39.3 M15.0 -30.6 Q14.1 -29.95 12.95 -29.45 L12.5 -29.25 9.45 -27.65 6.9 -26.05 4.75 -24.7 3.9 -24.0 3.55 -23.7 Q1.55 -22.3 0.0 -20.6 L-0.25 -20.3 -0.95 -19.0 -1.25 -18.25 -1.5 -17.55 -2.55 -14.4 -4.15 -9.05 -5.2 -5.05 -4.15 -9.05 -2.55 -14.4 -1.5 -17.55 -1.25 -18.25 -0.95 -19.0 -0.25 -20.3 0.0 -20.6 Q1.55 -22.3 3.55 -23.7 L3.9 -24.0 4.75 -24.7 6.9 -26.05 9.45 -27.65 12.5 -29.25 12.95 -29.45 Q14.1 -29.95 15.0 -30.6 M-59.7 -1.7 Q-51.8 11.5 -38.45 6.2 -29.45 2.55 -19.8 3.45 -19.05 7.25 -17.5 10.6 -17.05 11.55 -17.7 12.65 -18.8 14.7 -17.85 16.95 L-19.25 16.85 -19.3 16.75 -19.35 16.65 -19.6 16.8 Q-33.6 15.45 -47.35 12.75 -52.3 11.65 -57.2 9.8 -59.35 8.9 -59.5 6.25 L-59.7 -1.7 M-20.45 -6.9 L-21.0 -7.5 -21.95 -8.8 -23.85 -11.85 Q-25.5 -14.3 -26.4 -17.1 L-26.85 -18.1 -27.35 -19.3 -28.35 -24.9 -28.6 -27.2 Q-28.75 -29.9 -29.5 -32.5 L-29.9 -33.8 -30.0 -34.65 Q-29.95 -35.65 -30.2 -36.55 L-30.3 -37.1 Q-30.45 -38.0 -31.35 -37.85 -30.45 -38.0 -30.3 -37.1 L-30.2 -36.55 Q-29.95 -35.65 -30.0 -34.65 L-29.9 -33.8 -29.5 -32.5 Q-28.75 -29.9 -28.6 -27.2 L-28.35 -24.9 -27.35 -19.3 -26.85 -18.1 -26.4 -17.1 Q-25.5 -14.3 -23.85 -11.85 L-21.95 -8.8 -21.0 -7.5 -20.45 -6.9" fill="#f1e1b3" fill-rule="evenodd" stroke="none"/>
      <path d="M26.25 -50.0 L26.35 -51.3 Q29.95 -48.05 27.7 -43.75 L26.85 -43.65 26.25 -50.0 M-28.7 -38.95 Q-24.95 -37.45 -21.1 -37.6 L-19.4 -37.4 -21.85 -15.95 Q-19.9 -13.45 -16.65 -13.0 L-13.65 -12.5 Q-9.2 -11.95 -4.9 -13.45 L-7.0 -6.75 -7.75 -4.0 -8.55 -3.35 Q-13.5 -4.95 -17.15 -8.25 -19.4 -10.25 -21.15 -12.9 L-22.7 -15.4 -21.85 -15.95 -22.75 -15.5 Q-26.1 -21.25 -27.55 -27.75 L-28.25 -31.4 -28.5 -33.45 -28.7 -36.3 -28.7 -38.95" fill="#e0b85a" fill-rule="evenodd" stroke="none"/>
      <path d="M-12.1 8.2 Q-10.85 8.5 -11.25 9.6 L-11.35 9.85 Q-12.5 10.7 -13.1 9.4 L-13.05 9.0 -12.9 8.55 -12.1 8.25 -12.1 8.2" fill="#ffffff" fill-rule="evenodd" stroke="none"/>
      <path d="M-12.1 8.2 L-12.1 8.25 -12.9 8.55 -13.05 9.0 -13.1 9.4 Q-12.5 10.7 -11.35 9.85 L-11.25 9.6 Q-10.85 8.5 -12.1 8.2 M-12.1 6.9 Q-9.65 7.35 -8.95 9.55 -8.3 11.8 -10.4 12.3 -16.6 11.5 -13.45 8.2 L-13.35 8.15 -12.7 7.5 -12.1 6.9" fill="#fed801" fill-rule="evenodd" stroke="none"/>
      <path d="M26.35 -51.3 L26.0 -53.5 Q33.4 -51.7 32.75 -44.0 32.25 -38.1 32.2 -32.25 L32.2 -32.2 32.7 -32.25 Q40.05 -17.65 57.9 -15.1 L68.5 -14.5 69.15 -14.5 Q73.25 -14.15 77.1 -15.55 L71.2 -8.5 71.75 -7.35 Q59.0 5.5 41.25 12.6 29.5 17.25 17.3 17.25 16.1 17.25 14.9 16.5 4.2 19.2 -6.75 18.45 L-6.9 19.0 M26.85 -43.65 L27.0 -42.4 27.7 -43.75 Q29.95 -48.05 26.35 -51.3 M-4.9 -13.45 Q-4.2 -19.8 0.3 -24.95 4.8 -30.1 27.0 -42.4 M32.2 -32.2 Q28.6 -19.05 16.85 -12.25 4.6 -5.1 -8.45 0.5 -10.8 1.4 -12.55 3.45 -9.35 2.0 -6.7 4.85 L-5.9 4.65 Q-3.1 4.0 -1.1 6.3 L1.55 7.7 14.9 16.5 M68.5 -14.5 L68.5 -13.85 67.65 -11.45 67.0 -10.35 63.55 -6.6 62.35 -5.55 53.4 0.75 51.25 2.1 Q46.4 5.05 40.85 6.05 M26.85 -43.65 L26.25 -50.0 M-31.45 -29.35 Q-41.6 -23.15 -53.1 -18.25 -59.7 -15.55 -65.15 -10.75 -68.85 -7.45 -64.05 -4.15 -62.05 -2.8 -59.7 -1.7 -51.8 11.5 -38.45 6.2 -29.45 2.55 -19.8 3.45 L-16.65 1.1 Q-23.2 -0.9 -27.2 -4.8 -31.95 -9.5 -33.05 -16.85 -33.4 -19.25 -32.65 -21.35 -31.3 -25.3 -31.45 -29.35 L-31.55 -30.5 -31.95 -33.1 -32.45 -34.9 -32.8 -36.95 -32.8 -37.1 Q-32.85 -38.8 -32.05 -40.2 L-30.45 -40.35 -29.8 -40.05 -28.7 -38.95 Q-24.95 -37.45 -21.1 -37.6 L-19.35 -37.9 -19.4 -37.4 -21.85 -15.95 Q-19.9 -13.45 -16.65 -13.0 L-13.65 -12.5 Q-9.2 -11.95 -4.9 -13.45 L-7.0 -6.75 -7.4 -4.35 -7.75 -4.0 -8.55 -3.35 Q-14.45 -2.65 -15.3 1.45 L-15.4 2.35 -13.45 4.25 -12.55 3.45 M-28.7 -38.95 L-28.7 -36.3 -28.5 -33.45 -28.25 -31.4 -27.55 -27.75 Q-26.1 -21.25 -22.75 -15.5 L-22.75 -15.45 -22.7 -15.4 -21.15 -12.9 Q-19.4 -10.25 -17.15 -8.25 -13.5 -4.95 -8.55 -3.35 M-1.1 6.3 Q0.15 9.45 -2.95 10.15 L-4.45 10.4 -6.75 18.45 -13.7 17.6 -17.85 16.95 -19.25 16.85 -19.45 16.8 -19.6 16.8 Q-33.6 15.45 -47.35 12.75 -52.3 11.65 -57.2 9.8 -59.35 8.9 -59.5 6.25 L-59.7 -1.7 M-15.4 2.35 L-16.65 1.1 M-12.7 7.5 L-13.35 8.15 -13.45 8.2 Q-16.6 11.5 -10.4 12.3 -8.3 11.8 -8.95 9.55 -9.65 7.35 -12.1 6.9 M-17.85 16.95 Q-18.8 14.7 -17.7 12.65 -17.05 11.55 -17.5 10.6 -19.05 7.25 -19.8 3.45 M-19.35 16.65 L-19.3 16.75 -19.25 16.85" fill="none" stroke="#000000" stroke-linecap="round" stroke-linejoin="round" stroke-width="2.0"/>
      <path d="M-4.6 0.85 Q-3.25 -0.05 -1.75 -0.65 3.65 -2.7 8.95 -5.4 L10.95 -6.5 16.65 -9.65 Q21.65 -12.05 26.2 -15.75 27.4 -16.7 28.3 -18.1 L29.05 -19.0 Q32.5 -22.55 33.95 -26.45 L34.8 -25.45 Q35.1 -24.85 35.55 -24.35 L36.8 -22.75 Q37.65 -21.35 38.9 -20.2 42.35 -17.1 46.4 -14.85 46.9 -14.55 47.45 -14.35 L50.65 -13.5 50.7 -13.45 54.15 -12.9 55.8 -12.8 57.25 -12.8 60.7 -12.5 61.85 -12.5 Q63.15 -12.65 64.15 -12.1 M13.85 -4.6 Q17.6 -3.3 21.6 -4.55 L25.05 -5.55 25.35 -5.75 Q25.45 -6.4 24.75 -6.65 L24.2 -6.9 23.6 -7.15 23.2 -7.35 23.3 -7.35 Q26.9 -7.1 30.25 -8.55 L33.1 -9.8 33.7 -10.4 31.65 -10.95 29.65 -11.3 28.8 -11.55 Q32.65 -11.6 35.95 -13.65 36.35 -13.9 36.05 -14.2 35.55 -14.7 34.85 -15.0 L34.25 -15.25 M21.25 1.75 L22.05 2.45 Q23.15 3.15 25.05 3.2 L29.65 3.35 Q34.65 3.5 39.45 2.0 42.05 1.2 43.75 0.0 L41.1 -0.8 37.4 -1.8 Q35.8 -2.2 34.55 -3.2 L34.85 -3.2 Q41.5 -2.25 48.1 -4.2 51.1 -5.1 53.5 -6.95 L53.8 -7.2 51.45 -7.15 48.65 -6.9 M50.7 -13.45 Q51.65 -10.2 48.7 -8.5 L48.3 -8.05 M54.15 -12.9 Q54.75 -11.2 53.5 -10.05 L52.95 -9.5 M70.5 -12.95 Q71.85 -12.35 73.1 -13.2 M5.5 0.85 Q6.85 3.2 9.2 4.35 L13.3 6.25 Q16.85 7.9 20.75 7.65 L26.5 7.25 28.8 7.05 Q28.35 6.25 27.1 5.8 L25.05 4.8 22.15 2.55 22.05 2.45 M-64.75 -8.35 Q-63.75 -9.1 -62.9 -10.25 L-62.45 -10.65 -58.65 -13.15 -57.35 -13.95 -55.3 -15.05 -54.1 -15.6 Q-48.6 -17.85 -43.45 -20.2 -40.95 -21.35 -38.65 -22.6 -38.4 -22.7 -38.2 -22.95 L-36.05 -24.85 -35.6 -25.2 Q-34.85 -25.75 -33.65 -25.9 -34.05 -24.4 -34.85 -22.9 L-35.6 -20.7 -35.7 -19.55 M-38.8 -16.4 Q-40.65 -15.75 -42.0 -14.1 L-42.25 -13.85 Q-41.6 -13.45 -40.25 -13.35 L-38.25 -13.25 Q-40.4 -12.55 -39.35 -10.6 -39.1 -10.25 -38.55 -10.3 L-36.5 -10.45 -35.1 -10.4 Q-37.15 -9.1 -35.6 -7.2 -35.2 -6.75 -34.5 -6.75 -34.35 -6.75 -34.2 -6.9 -34.4 -5.75 -33.35 -5.5 M-54.1 -13.55 L-54.6 -14.15 -55.3 -15.05 M-50.9 -11.55 Q-53.45 -10.25 -55.9 -8.5 L-57.2 -7.75 -57.5 -7.5 Q-54.4 -6.35 -50.9 -6.55 -46.9 -6.8 -44.0 -8.35 -47.6 -5.1 -52.65 -4.1 -53.6 -3.95 -54.05 -3.45 -52.45 -1.9 -50.05 -1.65 L-46.3 -1.2 Q-41.0 -0.5 -36.85 -3.3 -39.25 -1.45 -42.55 0.25 L-43.15 0.55 Q-39.4 1.75 -35.35 0.55 L-32.6 -0.3 -31.65 -0.9 -31.35 -1.15 M-57.35 -13.95 Q-56.25 -12.2 -54.85 -11.1" fill="none" stroke="#fff18a" stroke-linecap="round" stroke-linejoin="round" stroke-width="2.0"/>
      <path d="M23.6 -32.35 L23.85 -33.1 24.2 -34.25 Q25.1 -36.15 26.85 -37.35 L27.65 -37.95 29.7 -40.25 30.3 -41.05 Q31.0 -41.85 31.25 -42.85 L31.65 -45.75 M11.95 -25.6 Q14.7 -26.3 16.7 -28.45 L17.15 -29.0 17.7 -29.8 Q18.7 -31.05 19.15 -32.65 L19.6 -33.45 21.6 -35.9 22.0 -36.25 23.75 -37.8 24.4 -38.3 24.9 -38.65 25.7 -39.3 M-5.2 -5.05 L-4.15 -9.05 -2.55 -14.4 -1.5 -17.55 -1.25 -18.25 -0.95 -19.0 -0.25 -20.3 0.0 -20.6 Q1.55 -22.3 3.55 -23.7 L3.9 -24.0 4.75 -24.7 6.9 -26.05 9.45 -27.65 12.5 -29.25 12.95 -29.45 Q14.1 -29.95 15.0 -30.6 M-31.35 -37.85 Q-30.45 -38.0 -30.3 -37.1 L-30.2 -36.55 Q-29.95 -35.65 -30.0 -34.65 L-29.9 -33.8 -29.5 -32.5 Q-28.75 -29.9 -28.6 -27.2 L-28.35 -24.9 -27.35 -19.3 -26.85 -18.1 -26.4 -17.1 Q-25.5 -14.3 -23.85 -11.85 L-21.95 -8.8 -21.0 -7.5 -20.45 -6.9" fill="none" stroke="#ffffff" stroke-linecap="round" stroke-linejoin="round" stroke-width="2.0"/>
    </g>
    </g>
  </g>
  <defs>
    <linearGradient gradientTransform="matrix(-0.004, -0.0418, 0.0441, -0.0043, 0.45, -17.2)" gradientUnits="userSpaceOnUse" id="gradient0" spreadMethod="pad" x1="-819.2" x2="819.2">
      <stop offset="0.0" stop-color="#006699"/>
      <stop offset="1.0" stop-color="#018cc0"/>
    </linearGradient>
    <linearGradient gradientTransform="matrix(0.0012, -0.0188, 0.022, 0.0014, -34.7, -1.25)" gradientUnits="userSpaceOnUse" id="gradient1" spreadMethod="pad" x1="-819.2" x2="819.2">
      <stop offset="0.0" stop-color="#669999"/>
      <stop offset="1.0" stop-color="#9abab9"/>
    </linearGradient>
    <linearGradient gradientTransform="matrix(0.0634, 0.0, 0.0, 0.032, -4.5, -16.85)" gradientUnits="userSpaceOnUse" id="gradient2" spreadMethod="pad" x1="-819.2" x2="819.2">
      <stop offset="0.0" stop-color="#d8b42c"/>
      <stop offset="0.5450980392156862" stop-color="#ffffff"/>
      <stop offset="1.0" stop-color="#d7b433"/>
    </linearGradient>
  </defs>
</svg>