<svg xmlns:xlink="http://www.w3.org/1999/xlink" xmlns="http://www.w3.org/2000/svg" height="98.75px" width="161.15px">
  <g transform="matrix(1.0, 0.0, 0.0, 1.0, 83.0, 71.7)">
    <g data-characterId="1251" height="79.05" transform="matrix(1.0, 0.0, 0.0, 1.0, -57.85, -70.8)" width="124.8" xlink:href="#shape0"><g id="shape0" transform="matrix(1.0, 0.0, 0.0, 1.0, 57.85, 70.8)">
      <path d="M64.7 -42.85 Q56.5 -26.35 45.45 -12.0 L45.15 -11.1 46.65 -9.7 47.45 -9.05 48.65 -7.55 49.85 -5.55 50.95 -3.0 Q38.2 8.25 20.3 7.75 15.65 7.6 11.0 7.75 12.5 -0.5 20.9 -2.6 29.3 -4.75 33.6 -21.8 37.9 -38.9 58.95 -39.55 60.1 -40.95 61.55 -41.75 62.95 -42.6 64.7 -42.85 M-33.2 4.0 Q-49.1 4.65 -57.05 -5.05 -57.6 -5.7 -57.1 -6.6 -54.15 -11.75 -48.8 -14.15 -49.35 -31.65 -52.25 -48.9 L-43.35 -45.5 Q-44.45 -35.5 -42.9 -25.9 L-42.25 -22.5 Q-40.15 -12.75 -35.25 -3.4 -33.45 0.1 -33.2 4.0" fill="#51287b" fill-rule="evenodd" stroke="none"/>
      <path d="M-14.35 -62.95 L-22.15 -14.25 -22.1 -14.2 Q-9.15 -9.05 8.25 -12.85 13.55 -13.3 17.55 -15.25 20.1 -16.5 25.65 -20.5 L27.1 -21.55 25.0 -20.35 Q22.55 -40.05 21.5 -51.5 20.55 -61.8 20.55 -64.25 47.5 -59.6 63.5 -45.4 62.05 -44.5 60.55 -43.85 52.0 -40.2 41.3 -44.05 40.1 -44.45 39.0 -45.0 L38.95 -44.6 Q37.9 -39.45 33.8 -32.55 29.0 -25.0 27.1 -21.55 26.15 -19.85 24.05 -13.95 22.45 -9.55 20.15 -7.0 19.15 -5.9 17.4 -5.75 13.95 -5.1 10.8 -3.45 -7.9 1.8 -27.65 -5.7 -33.25 -7.85 -35.9 -13.5 -38.1 -18.25 -39.25 -23.1 L-39.9 -26.35 Q-41.6 -37.25 -38.0 -48.65 L-47.8 -52.25 Q-34.95 -60.55 -18.95 -62.15 L-14.35 -62.95 M-30.0 -17.0 L-22.15 -14.25 -30.0 -17.0" fill="#847b20" fill-rule="evenodd" stroke="none"/>
      <path d="M20.55 -64.25 L20.2 -70.3 Q46.75 -65.25 63.5 -50.15 L66.4 -47.5 Q66.65 -45.7 65.75 -44.25 L65.45 -43.85 64.7 -42.85 Q62.95 -42.6 61.55 -41.75 60.1 -40.95 58.95 -39.55 37.9 -38.9 33.6 -21.8 29.3 -4.75 20.9 -2.6 12.5 -0.5 11.0 7.75 -10.25 7.75 -31.0 4.25 L-33.2 4.0 Q-33.45 0.1 -35.25 -3.4 -40.15 -12.75 -42.25 -22.5 L-42.9 -25.9 Q-44.45 -35.5 -43.35 -45.5 L-52.25 -48.9 Q-53.7 -52.65 -53.0 -56.3 L-52.7 -57.05 Q-35.0 -62.3 -16.75 -66.95 L-13.85 -66.55 -14.35 -62.95 -18.95 -62.15 Q-34.95 -60.55 -47.8 -52.25 L-38.0 -48.65 Q-41.6 -37.25 -39.9 -26.35 L-39.25 -23.1 Q-38.1 -18.25 -35.9 -13.5 -33.25 -7.85 -27.65 -5.7 -7.9 1.8 10.8 -3.45 13.95 -5.1 17.4 -5.75 19.15 -5.9 20.15 -7.0 22.45 -9.55 24.05 -13.95 26.15 -19.85 27.1 -21.55 29.0 -25.0 33.8 -32.55 37.9 -39.45 38.95 -44.6 L41.3 -44.05 Q52.0 -40.2 60.55 -43.85 62.05 -44.5 63.5 -45.4 47.5 -59.6 20.55 -64.25 M66.4 -47.5 L63.5 -45.4 66.4 -47.5 M-52.7 -57.05 L-47.8 -52.25 -52.7 -57.05" fill="url(#gradient0)" fill-rule="evenodd" stroke="none"/>
      <path d="M20.55 -64.25 L20.2 -70.3 Q46.75 -65.25 63.5 -50.15 L66.4 -47.5 Q66.65 -45.7 65.75 -44.25 L65.45 -43.85 64.7 -42.85 Q56.5 -26.35 45.45 -12.0 L45.15 -11.1 46.65 -9.7 47.45 -9.05 48.65 -7.55 49.85 -5.55 50.95 -3.0 Q38.2 8.25 20.3 7.75 15.65 7.6 11.0 7.75 -10.25 7.75 -31.0 4.25 L-33.2 4.0 Q-49.1 4.65 -57.05 -5.05 -57.6 -5.7 -57.1 -6.6 -54.15 -11.75 -48.8 -14.15 -49.35 -31.65 -52.25 -48.9 -53.7 -52.65 -53.0 -56.3 L-52.7 -57.05 Q-35.0 -62.3 -16.75 -66.95 L-13.75 -67.5 -13.85 -66.55 -14.35 -62.95 -22.15 -14.25 -30.0 -17.0 M-22.1 -14.2 Q-9.15 -9.05 8.25 -12.85 13.55 -13.3 17.55 -15.25 20.1 -16.5 25.65 -20.5 L27.1 -21.55 Q26.15 -19.85 24.05 -13.95 22.45 -9.55 20.15 -7.0 19.15 -5.9 17.4 -5.75 13.95 -5.1 10.8 -3.45 -7.9 1.8 -27.65 -5.7 -33.25 -7.85 -35.9 -13.5 -38.1 -18.25 -39.25 -23.1 L-39.9 -26.35 Q-41.6 -37.25 -38.0 -48.65 L-47.8 -52.25 -52.7 -57.05 M25.0 -20.35 Q22.55 -40.05 21.5 -51.5 20.55 -61.8 20.55 -64.25 47.5 -59.6 63.5 -45.4 L66.4 -47.5 M38.95 -44.6 L39.0 -45.0 Q40.1 -44.45 41.3 -44.05 52.0 -40.2 60.55 -43.85 62.05 -44.5 63.5 -45.4 M38.95 -44.6 Q37.9 -39.45 33.8 -32.55 29.0 -25.0 27.1 -21.55 M11.0 7.75 Q12.5 -0.5 20.9 -2.6 29.3 -4.75 33.6 -21.8 37.9 -38.9 58.95 -39.55 60.1 -40.95 61.55 -41.75 62.95 -42.6 64.7 -42.85 M-47.8 -52.25 Q-34.95 -60.55 -18.95 -62.15 L-14.35 -62.95 M-52.25 -48.9 L-43.35 -45.5 Q-44.45 -35.5 -42.9 -25.9 L-42.25 -22.5 Q-40.15 -12.75 -35.25 -3.4 -33.45 0.1 -33.2 4.0" fill="none" stroke="#000000" stroke-linecap="round" stroke-linejoin="round" stroke-width="2.0"/>
    </g>
    </g>
  </g>
  <defs>
    <linearGradient gradientTransform="matrix(0.0634, 0.0, 0.0, 0.032, -4.5, -16.85)" gradientUnits="userSpaceOnUse" id="gradient0" spreadMethod="pad" x1="-819.2" x2="819.2">
      <stop offset="0.0" stop-color="#d8cb2c"/>
      <stop offset="0.5450980392156862" stop-color="#ffffff"/>
      <stop offset="1.0" stop-color="#d7ca33"/>
    </linearGradient>
  </defs>
</svg>