<svg xmlns:xlink="http://www.w3.org/1999/xlink" xmlns="http://www.w3.org/2000/svg" height="202.2px" width="161.9px">
  <g transform="matrix(1.0, 0.0, 0.0, 1.0, 74.15, 81.7)">
    <g data-characterId="1404" height="147.95" transform="matrix(1.0, 0.0, 0.0, 1.0, -49.4, -72.9)" width="102.5" xlink:href="#shape0"><g id="shape0" transform="matrix(1.0, 0.0, 0.0, 1.0, 49.4, 72.9)">
      <path d="M0.0 -65.85 L3.65 -65.85 0.0 -65.85 M14.25 -64.0 Q14.2 -64.55 14.8 -64.1 19.8 -60.6 23.0 -55.7 19.8 -60.6 14.8 -64.1 14.2 -64.55 14.25 -64.0 M18.85 -64.9 L20.05 -64.35 Q22.55 -62.9 23.45 -60.3 22.55 -62.9 20.05 -64.35 L18.85 -64.9 M0.85 -59.25 Q4.95 -61.1 9.3 -61.35 10.1 -61.45 10.5 -60.85 L14.1 -54.95 10.5 -60.85 Q10.1 -61.45 9.3 -61.35 4.95 -61.1 0.85 -59.25 M14.7 -52.05 L16.4 -49.8 Q18.25 -47.0 19.4 -43.9 21.1 -39.55 22.05 -35.0 21.1 -39.55 19.4 -43.9 18.25 -47.0 16.4 -49.8 L14.7 -52.05 M-17.0 34.75 L-19.45 48.85 -20.15 49.25 Q-22.75 50.35 -25.75 50.05 L-22.4 58.1 -18.8 65.85 Q-17.4 68.65 -17.0 71.8 L-18.9 70.9 -19.75 70.3 -21.4 68.85 Q-22.7 67.7 -23.45 66.25 L-21.15 74.1 -23.4 72.5 Q-24.55 71.65 -25.5 70.6 -28.75 67.0 -30.85 62.6 L-30.9 71.25 -38.2 59.8 -38.3 60.75 -38.4 61.6 -38.55 62.5 -39.55 64.75 -40.5 66.25 -44.05 52.5 Q-45.4 46.85 -46.35 41.1 L-47.2 35.4 -48.3 23.8 -48.85 12.25 -48.8 -0.15 -48.45 -11.45 -48.1 -20.95 Q-47.85 -27.55 -46.8 -33.95 L-45.05 -41.9 Q-43.0 -49.35 -41.1 -57.05 L-36.85 -60.95 Q-32.8 -64.95 -27.65 -67.2 L-24.2 -64.7 Q-20.0 -68.15 -14.75 -70.4 -9.3 -72.75 -3.45 -72.35 L8.25 -70.6 Q14.0 -69.7 19.1 -67.2 23.65 -64.85 27.45 -61.3 31.0 -58.0 33.8 -54.05 37.05 -49.5 38.85 -44.3 L41.05 -36.85 42.8 -28.6 43.9 -19.95 Q44.4 -14.45 43.85 -9.15 L42.95 1.85 Q42.65 6.3 42.9 10.8 L43.45 17.3 44.2 23.9 45.35 34.65 Q45.7 39.7 46.8 44.4 47.85 49.05 52.6 53.2 39.45 54.55 34.25 48.85 L32.35 57.0 Q31.2 61.95 29.45 66.85 28.3 69.9 26.7 72.55 L24.85 71.35 24.85 69.0 21.2 72.7 21.65 69.0 14.75 74.1 16.1 69.95 9.2 74.55 11.6 67.9 3.7 71.8 Q6.05 65.1 7.6 58.05 L8.4 54.15 9.0 50.15 9.65 45.15 10.2 40.2 10.7 33.55 11.2 20.15 11.15 6.65 10.55 -4.55 9.65 -13.7 8.95 -18.3 7.8 -23.95 6.4 -29.6 4.8 -34.95 1.1 -45.4 -0.9 -50.65 -4.05 -48.65 -7.7 -50.8 -9.0 -51.05 -9.2 -50.2 Q-14.0 -48.3 -19.2 -49.2 -24.85 -49.85 -29.9 -52.5 L-30.5 -52.95 -30.65 -52.7 -30.2 -52.4 Q-32.65 -48.8 -34.35 -44.9 -36.5 -39.9 -36.8 -34.55 L-36.75 -31.4 -36.65 -30.35 Q-36.0 -25.2 -36.0 -20.0 L-36.05 -16.15 -36.35 -9.45 -36.4 -7.1 Q-36.35 -3.95 -35.65 -0.8 L-35.5 0.0 -34.55 3.7 -33.0 9.0 -32.2 11.45 -31.05 14.4 -30.7 14.25 Q-27.8 21.75 -24.85 26.0 -21.0 31.7 -19.6 33.0 L-17.0 34.65 -17.0 34.75 M-0.9 -61.25 L10.6 -64.95 15.05 -59.0 20.8 -50.45 26.8 -41.05 Q29.3 -36.8 30.75 -32.1 L33.95 -21.15 Q35.0 -17.3 35.65 -13.3 36.45 -8.15 36.9 -2.9 37.4 2.55 37.5 8.0 L37.4 18.85 37.1 25.35 36.7 31.65 36.25 37.9 Q35.9 43.55 34.25 48.85 35.9 43.55 36.25 37.9 L36.7 31.65 37.1 25.35 37.4 18.85 37.5 8.0 Q37.4 2.55 36.9 -2.9 36.45 -8.15 35.65 -13.3 35.0 -17.3 33.95 -21.15 L30.75 -32.1 Q29.3 -36.8 26.8 -41.05 L20.8 -50.45 15.05 -59.0 10.6 -64.95 -0.9 -61.25 M36.6 -37.95 L38.65 -27.6 36.6 -37.95 M41.4 -28.55 L39.55 -34.8 Q38.0 -39.25 35.9 -43.3 38.0 -39.25 39.55 -34.8 L41.4 -28.55 M31.75 -36.1 L34.75 -27.15 31.75 -36.1 M23.3 -51.75 L24.15 -50.85 Q27.7 -46.75 29.9 -41.7 27.7 -46.75 24.15 -50.85 L23.3 -51.75 M-21.0 -65.0 Q-17.55 -67.25 -13.6 -68.6 -8.5 -70.25 -3.25 -69.9 L2.3 -69.15 Q7.85 -68.25 12.95 -66.45 7.85 -68.25 2.3 -69.15 L-3.25 -69.9 Q-8.5 -70.25 -13.6 -68.6 -17.55 -67.25 -21.0 -65.0 M6.4 -55.25 L9.9 -49.3 Q12.85 -44.0 14.6 -38.35 L17.95 -27.2 14.6 -38.35 Q12.85 -44.0 9.9 -49.3 L6.4 -55.25 M0.0 -54.35 Q2.85 -52.1 3.95 -48.4 L7.25 -37.7 10.55 -27.65 7.25 -37.7 3.95 -48.4 Q2.85 -52.1 0.0 -54.35 M28.05 4.6 L28.9 0.9 Q29.8 -2.95 29.3 -6.7 L27.7 -17.0 Q26.75 -22.75 25.3 -28.1 26.75 -22.75 27.7 -17.0 L29.3 -6.7 Q29.8 -2.95 28.9 0.9 L28.05 4.6 M22.1 -9.65 Q22.85 -11.35 22.95 -13.45 23.15 -19.2 21.4 -24.6 23.15 -19.2 22.95 -13.45 22.85 -11.35 22.1 -9.65 M30.85 -13.35 L30.7 -15.75 Q30.2 -20.9 27.6 -25.55 30.2 -20.9 30.7 -15.75 L30.85 -13.35 M12.85 4.6 L13.9 0.95 Q14.55 -1.9 14.8 -4.75 15.35 -10.4 14.8 -16.15 L13.8 -26.7 14.8 -16.15 Q15.35 -10.4 14.8 -4.75 14.55 -1.9 13.9 0.95 L12.85 4.6 M11.95 -10.35 L11.9 -14.35 Q11.8 -17.05 11.05 -19.55 11.8 -17.05 11.9 -14.35 L11.95 -10.35 M17.05 -6.65 L17.1 -8.85 Q16.95 -14.65 15.9 -20.25 16.95 -14.65 17.1 -8.85 L17.05 -6.65 M39.1 -0.95 L39.35 -1.75 Q40.6 -5.7 39.55 -9.7 40.6 -5.7 39.35 -1.75 L39.1 -0.95 M28.2 -55.5 L33.35 -47.45 28.2 -55.5 M38.2 -20.25 L32.0 -42.8 38.2 -20.25 M20.25 3.65 L20.4 1.7 Q20.8 -3.3 20.45 -8.4 L19.8 -18.25 19.3 -25.8 19.8 -18.25 20.45 -8.4 Q20.8 -3.3 20.4 1.7 L20.25 3.65 M18.4 59.8 L20.75 49.15 22.35 40.5 23.6 31.75 24.45 22.95 24.95 13.35 24.85 12.85 24.95 13.35 24.45 22.95 23.6 31.75 22.35 40.5 20.75 49.15 18.4 59.8 M38.65 42.35 L39.7 38.25 Q41.1 32.9 41.25 27.55 L41.4 17.05 41.4 8.75 41.4 17.05 41.25 27.55 Q41.1 32.9 39.7 38.25 L38.65 42.35 M42.3 44.15 L42.8 37.7 42.3 44.15 M12.65 43.2 L14.35 33.05 Q15.35 28.0 15.8 23.05 L16.4 15.55 15.8 23.05 Q15.35 28.0 14.35 33.05 L12.65 43.2 M14.4 63.3 L16.15 57.7 18.2 50.35 19.15 46.05 20.25 40.0 21.55 29.1 22.5 18.15 23.0 9.25 22.5 18.15 21.55 29.1 20.25 40.0 19.15 46.05 18.2 50.35 16.15 57.7 14.4 63.3 M10.55 59.35 L12.4 55.25 Q14.65 50.2 15.8 44.6 16.85 39.5 17.2 34.35 17.6 28.7 17.45 23.0 17.6 28.7 17.2 34.35 16.85 39.5 15.8 44.6 14.65 50.2 12.4 55.25 L10.55 59.35 M30.75 45.5 L31.65 42.65 33.35 34.85 31.65 42.65 30.75 45.5 M20.4 66.2 Q22.5 63.4 23.25 60.1 L25.75 48.95 27.3 41.1 28.6 32.55 29.6 22.75 28.6 32.55 27.3 41.1 25.75 48.95 23.25 60.1 Q22.5 63.4 20.4 66.2 M25.3 60.3 L29.0 36.8 25.3 60.3 M-22.55 -63.1 L-24.2 -64.7 -22.55 -63.1 M-45.75 -36.5 L-45.3 -37.5 Q-44.05 -41.1 -43.35 -45.15 -42.3 -50.95 -40.2 -56.45 L-39.85 -56.7 Q-33.95 -60.9 -27.25 -63.6 L-26.25 -63.9 -25.35 -63.0 -26.25 -63.9 -27.25 -63.6 Q-33.95 -60.9 -39.85 -56.7 L-40.2 -56.45 Q-42.3 -50.95 -43.35 -45.15 -44.05 -41.1 -45.3 -37.5 L-45.75 -36.5 M-41.9 -40.5 Q-40.25 -48.5 -37.25 -56.15 -36.5 -58.05 -35.0 -59.4 L-34.45 -59.1 -33.35 -58.8 -29.95 -58.95 -33.35 -58.8 -34.45 -59.1 -35.0 -59.4 Q-36.5 -58.05 -37.25 -56.15 -40.25 -48.5 -41.9 -40.5 M-34.1 -53.85 L-31.3 -55.7 -34.1 -53.85 M-27.15 -54.8 L-27.8 -56.05 -30.5 -52.95 -27.8 -56.05 -27.15 -54.8 M-13.35 -66.3 Q-12.5 -67.8 -10.85 -68.05 L-5.15 -68.3 Q-0.1 -69.05 4.6 -67.7 -0.1 -69.05 -5.15 -68.3 L-10.85 -68.05 Q-12.5 -67.8 -13.35 -66.3 M-38.65 -8.95 L-37.5 -21.85 -38.65 -8.95 M-41.9 2.75 L-41.7 -8.95 -41.1 -20.5 -40.05 -31.3 -41.1 -20.5 -41.7 -8.95 -41.9 2.75 M-43.75 -12.2 L-43.25 -22.05 -43.75 -12.2 M-46.05 1.8 L-46.0 -3.7 -45.6 -12.95 Q-45.3 -18.75 -44.55 -24.3 L-43.3 -32.7 -44.55 -24.3 Q-45.3 -18.75 -45.6 -12.95 L-46.0 -3.7 -46.05 1.8 M-38.0 23.35 L-38.25 14.7 -38.0 23.35 M-25.75 50.05 L-27.5 43.55 -29.1 37.05 -30.2 31.4 -31.6 20.3 -32.2 11.45 -31.6 20.3 -30.2 31.4 -29.1 37.05 -27.5 43.55 -25.75 50.05 M-39.55 26.2 L-39.55 26.55 -38.8 35.65 -37.75 43.4 -35.35 54.3 -34.25 58.15 -35.35 54.3 -37.75 43.4 -38.8 35.65 -39.55 26.55 -39.55 26.2 -39.6 25.3 -39.55 26.2 M-30.4 59.35 L-31.7 57.15 Q-34.3 52.1 -35.8 46.55 -37.25 41.15 -38.15 35.7 L-39.55 26.55 -38.15 35.7 Q-37.25 41.15 -35.8 46.55 -34.3 52.1 -31.7 57.15 L-30.4 59.35 M-29.65 57.25 Q-31.85 52.8 -33.15 48.05 L-35.75 37.95 Q-37.1 32.3 -37.1 26.5 -37.1 32.3 -35.75 37.95 L-33.15 48.05 Q-31.85 52.8 -29.65 57.25 M-21.2 40.05 L-21.45 39.5 Q-22.05 37.8 -21.2 35.9 -22.05 37.8 -21.45 39.5 L-21.2 40.05 M-21.85 64.45 L-23.0 62.05 Q-25.55 56.6 -27.45 51.0 -29.1 46.15 -30.25 41.05 L-32.45 30.85 -33.65 23.9 -32.45 30.85 -30.25 41.05 Q-29.1 46.15 -27.45 51.0 -25.55 56.6 -23.0 62.05 L-21.85 64.45 M-23.95 45.55 L-25.35 30.35 -23.95 45.55 M-40.3 59.3 Q-44.5 44.85 -45.95 30.85 -47.45 16.8 -46.35 3.2 -47.45 16.8 -45.95 30.85 -44.5 44.85 -40.3 59.3 M-38.7 54.75 Q-40.85 50.75 -41.45 46.3 L-42.6 37.3 -43.3 31.3 -42.6 37.3 -41.45 46.3 Q-40.85 50.75 -38.7 54.75 M-42.6 23.9 L-42.85 22.0 Q-43.5 16.6 -42.85 11.25 -43.5 16.6 -42.85 22.0 L-42.6 23.9 M-26.25 61.2 L-28.0 57.4 -30.85 49.6 -33.6 39.55 -30.85 49.6 -28.0 57.4 -26.25 61.2 M-37.75 8.25 L-37.75 -4.6 -37.75 8.25" fill="url(#gradient0)" fill-rule="evenodd" stroke="none"/>
      <path d="M-9.2 -50.2 Q-14.0 -48.3 -19.2 -49.2 -24.85 -49.85 -29.9 -52.5" fill="none" stroke="#ecc59d" stroke-linecap="round" stroke-linejoin="round" stroke-width="2.0"/>
      <path d="M-37.75 -4.6 L-37.75 8.25" fill="none" stroke="#f0da93" stroke-linecap="round" stroke-linejoin="round" stroke-width="1.5"/>
      <path d="M14.1 -54.95 L10.5 -60.85 Q10.1 -61.45 9.3 -61.35 4.95 -61.1 0.85 -59.25 M12.95 -66.45 Q7.85 -68.25 2.3 -69.15 L-3.25 -69.9 Q-8.5 -70.25 -13.6 -68.6 -17.55 -67.25 -21.0 -65.0 M29.9 -41.7 Q27.7 -46.75 24.15 -50.85 L23.3 -51.75 M34.75 -27.15 L31.75 -36.1 M35.9 -43.3 Q38.0 -39.25 39.55 -34.8 L41.4 -28.55 M38.65 -27.6 L36.6 -37.95 M15.9 -20.25 Q16.95 -14.65 17.1 -8.85 L17.05 -6.65 M11.05 -19.55 Q11.8 -17.05 11.9 -14.35 L11.95 -10.35 M13.8 -26.7 L14.8 -16.15 Q15.35 -10.4 14.8 -4.75 14.55 -1.9 13.9 0.95 L12.85 4.6 M27.6 -25.55 Q30.2 -20.9 30.7 -15.75 L30.85 -13.35 M21.4 -24.6 Q23.15 -19.2 22.95 -13.45 22.85 -11.35 22.1 -9.65 M25.3 -28.1 Q26.75 -22.75 27.7 -17.0 L29.3 -6.7 Q29.8 -2.95 28.9 0.9 L28.05 4.6 M19.3 -25.8 L19.8 -18.25 20.45 -8.4 Q20.8 -3.3 20.4 1.7 L20.25 3.65 M32.0 -42.8 L38.2 -20.25 M33.35 -47.45 L28.2 -55.5 M23.0 9.25 L22.5 18.15 21.55 29.1 20.25 40.0 19.15 46.05 18.2 50.35 16.15 57.7 14.4 63.3 M16.4 15.55 L15.8 23.05 Q15.35 28.0 14.35 33.05 L12.65 43.2 M29.6 22.75 L28.6 32.55 27.3 41.1 25.75 48.95 23.25 60.1 Q22.5 63.4 20.4 66.2 M33.35 34.85 L31.65 42.65 30.75 45.5 M-25.35 -63.0 L-26.25 -63.9 -27.25 -63.6 Q-33.95 -60.9 -39.85 -56.7 L-40.2 -56.45 Q-42.3 -50.95 -43.35 -45.15 -44.05 -41.1 -45.3 -37.5 L-45.75 -36.5 M-43.3 -32.7 L-44.55 -24.3 Q-45.3 -18.75 -45.6 -12.95 L-46.0 -3.7 -46.05 1.8 M-43.25 -22.05 L-43.75 -12.2 M-40.05 -31.3 L-41.1 -20.5 -41.7 -8.95 -41.9 2.75 M-37.5 -21.85 L-38.65 -8.95 M-38.25 14.7 L-38.0 23.35 M-34.25 58.15 L-35.35 54.3 -37.75 43.4 -38.8 35.65 -39.55 26.55 -39.55 26.2 M-37.1 26.5 Q-37.1 32.3 -35.75 37.95 L-33.15 48.05 Q-31.85 52.8 -29.65 57.25 M-33.65 23.9 L-32.45 30.85 -30.25 41.05 Q-29.1 46.15 -27.45 51.0 -25.55 56.6 -23.0 62.05 L-21.85 64.45 M-46.35 3.2 Q-47.45 16.8 -45.95 30.85 -44.5 44.85 -40.3 59.3 M-42.85 11.25 Q-43.5 16.6 -42.85 22.0 L-42.6 23.9" fill="none" stroke="#faf0da" stroke-linecap="round" stroke-linejoin="round" stroke-width="1.5"/>
      <path d="M23.45 -60.3 Q22.55 -62.9 20.05 -64.35 L18.85 -64.9 M23.0 -55.7 Q19.8 -60.6 14.8 -64.1 14.2 -64.55 14.25 -64.0 M3.65 -65.85 L0.0 -65.85 M22.05 -35.0 Q21.1 -39.55 19.4 -43.9 18.25 -47.0 16.4 -49.8 L14.7 -52.05 M10.55 -27.65 L7.25 -37.7 3.95 -48.4 Q2.85 -52.1 0.0 -54.35 M17.95 -27.2 L14.6 -38.35 Q12.85 -44.0 9.9 -49.3 L6.4 -55.25 M39.55 -9.7 Q40.6 -5.7 39.35 -1.75 L39.1 -0.95 M42.8 37.7 L42.3 44.15 M41.4 8.75 L41.4 17.05 41.25 27.55 Q41.1 32.9 39.7 38.25 L38.65 42.35 M24.85 12.85 L24.95 13.35 24.45 22.95 23.6 31.75 22.35 40.5 20.75 49.15 18.4 59.8 M17.45 23.0 Q17.6 28.7 17.2 34.35 16.85 39.5 15.8 44.6 14.65 50.2 12.4 55.25 L10.55 59.35 M29.0 36.8 L25.3 60.3 M-31.3 -55.7 L-34.1 -53.85 M-29.95 -58.95 L-33.35 -58.8 -34.45 -59.1 -35.0 -59.4 Q-36.5 -58.05 -37.25 -56.15 -40.25 -48.5 -41.9 -40.5 M4.6 -67.7 Q-0.1 -69.05 -5.15 -68.3 L-10.85 -68.05 Q-12.5 -67.8 -13.35 -66.3 M-39.55 26.2 L-39.6 25.3 M-39.55 26.55 L-38.15 35.7 Q-37.25 41.15 -35.8 46.55 -34.3 52.1 -31.7 57.15 L-30.4 59.35 M-21.2 35.9 Q-22.05 37.8 -21.45 39.5 L-21.2 40.05 M-25.35 30.35 L-23.95 45.55 M-43.3 31.3 L-42.6 37.3 -41.45 46.3 Q-40.85 50.75 -38.7 54.75 M-33.6 39.55 L-30.85 49.6 -28.0 57.4 -26.25 61.2" fill="none" stroke="#936211" stroke-linecap="round" stroke-linejoin="round" stroke-width="1.5"/>
      <path d="M-17.0 34.75 L-19.45 48.85 -20.15 49.25 Q-22.75 50.35 -25.75 50.05 L-22.4 58.1 -18.8 65.85 Q-17.4 68.65 -17.0 71.8 L-18.9 70.9 -19.75 70.3 -21.4 68.85 Q-22.7 67.7 -23.45 66.25 L-21.15 74.1 -23.4 72.5 Q-24.55 71.65 -25.5 70.6 -28.75 67.0 -30.85 62.6 L-30.9 71.25 -38.2 59.8 -38.3 60.75 -38.4 61.6 -38.55 62.5 -39.55 64.75 -40.5 66.25 -44.05 52.5 Q-45.4 46.85 -46.35 41.1 L-47.2 35.4 -48.3 23.8 -48.85 12.25 -48.8 -0.15 -48.45 -11.45 -48.1 -20.95 Q-47.85 -27.55 -46.8 -33.95 L-45.05 -41.9 Q-43.0 -49.35 -41.1 -57.05 L-36.85 -60.95 Q-32.8 -64.95 -27.65 -67.2 L-24.2 -64.7 Q-20.0 -68.15 -14.75 -70.4 -9.3 -72.75 -3.45 -72.35 L8.25 -70.6 Q14.0 -69.7 19.1 -67.2 23.65 -64.85 27.45 -61.3 31.0 -58.0 33.8 -54.05 37.05 -49.5 38.85 -44.3 L41.05 -36.85 42.8 -28.6 43.9 -19.95 Q44.4 -14.45 43.85 -9.15 L42.95 1.85 Q42.65 6.3 42.9 10.8 L43.45 17.3 44.2 23.9 45.35 34.65 Q45.7 39.7 46.8 44.4 47.85 49.05 52.6 53.2 39.45 54.55 34.25 48.85 L32.35 57.0 Q31.2 61.95 29.45 66.85 28.3 69.9 26.7 72.55 L25.9 73.7 M34.25 48.85 Q35.9 43.55 36.25 37.9 L36.7 31.65 37.1 25.35 37.4 18.85 37.5 8.0 Q37.4 2.55 36.9 -2.9 36.45 -8.15 35.65 -13.3 35.0 -17.3 33.95 -21.15 L30.75 -32.1 Q29.3 -36.8 26.8 -41.05 L20.8 -50.45 15.05 -59.0 10.6 -64.95 -0.9 -61.25 M24.85 71.35 L24.85 69.0 21.2 72.7 21.65 69.0 14.75 74.1 16.1 69.95 9.2 74.55 11.6 67.9 3.7 71.8 Q6.05 65.1 7.6 58.05 L8.4 54.15 9.0 50.15 9.65 45.15 10.2 40.2 10.7 33.55 11.2 20.15 11.15 6.65 10.55 -4.55 9.65 -13.7 8.95 -18.3 7.8 -23.95 6.4 -29.6 4.8 -34.95 1.1 -45.4 -0.9 -50.65 -4.05 -48.65 -7.7 -50.8 -9.2 -50.2 M-30.5 -52.95 L-30.65 -52.7 M-30.2 -52.4 Q-32.65 -48.8 -34.35 -44.9 -36.5 -39.9 -36.8 -34.55 L-36.75 -31.4 -36.65 -30.35 Q-36.0 -25.2 -36.0 -20.0 L-36.05 -16.15 Q-34.85 -13.15 -35.1 -12.45 L-35.95 -7.1 Q-36.3 -4.85 -35.45 -0.8 L-34.35 3.6 -32.65 8.9 -30.7 14.25 Q-27.8 21.75 -24.85 26.0 -21.0 31.7 -19.6 33.0 L-17.0 34.65 -15.7 35.1 M-24.2 -64.7 L-22.55 -63.1 M-30.5 -52.95 L-27.8 -56.05 -27.15 -54.8 M-7.7 -50.8 L-9.0 -51.05 M-36.05 -16.15 L-36.35 -9.45 -36.4 -7.1 Q-36.35 -3.95 -35.65 -0.8 L-35.5 0.0 -34.55 3.7 -33.0 9.0 -32.2 11.45 -31.6 20.3 -30.2 31.4 -29.1 37.05 -27.5 43.55 -25.75 50.05" fill="none" stroke="#000000" stroke-linecap="round" stroke-linejoin="round" stroke-width="2.0"/>
      <path d="M-30.1 15.75 Q-27.5 22.25 -24.85 26.05 -21.0 31.75 -19.6 33.05 -18.7 33.9 -17.15 34.6 L-17.0 34.8 -19.35 48.9 -19.45 48.9 -20.15 49.3 Q-22.9 50.25 -25.75 50.1 L-29.15 37.1 Q-30.5 31.45 -31.25 25.7 L-32.1 15.05 -30.9 14.6 -30.1 15.75" fill="#745c36" fill-opacity="0.2627451" fill-rule="evenodd" stroke="none"/>
    </g>
    </g>
  </g>
  <defs>
    <radialGradient cx="0" cy="0" gradientTransform="matrix(0.0481, 0.1394, -0.165, 0.0569, -7.5, -60.5)" gradientUnits="userSpaceOnUse" id="gradient0" r="819.2" spreadMethod="pad">
      <stop offset="0.0" stop-color="#a37712"/>
      <stop offset="0.18823529411764706" stop-color="#a37712"/>
      <stop offset="0.396078431372549" stop-color="#faeccd"/>
      <stop offset="0.6196078431372549" stop-color="#f0da93"/>
      <stop offset="1.0" stop-color="#a37712"/>
    </radialGradient>
  </defs>
</svg>