<svg xmlns:xlink="http://www.w3.org/1999/xlink" xmlns="http://www.w3.org/2000/svg" height="16.65px" width="27.9px">
  <g transform="matrix(1.0, 0.0, 0.0, 1.0, 11.2, 8.0)">
    <g data-characterId="1302" height="14.9" transform="matrix(1.0, 0.0, 0.0, 1.0, -7.8, -6.5)" width="24.4" xlink:href="#shape0"><g id="shape0" transform="matrix(1.0, 0.0, 0.0, 1.0, 7.8, 6.5)">
      <path d="M2.1 -0.55 Q-2.25 -0.35 -6.35 -1.45 -6.5 -1.65 -6.65 -1.45 L-6.9 -1.25 Q-7.45 -1.15 -7.6 -1.65 -6.3 -3.65 -4.0 -3.2 L-3.4 -2.85 -2.9 -2.4 1.55 -3.1 2.3 -3.0 Q5.0 -1.5 7.2 -2.05 L10.8 -3.15 13.4 -4.05 Q14.55 -4.4 14.5 -4.55 L14.35 -4.75 14.35 -4.8 Q14.75 -4.45 14.65 -3.95 L14.5 -3.7 Q9.65 0.05 3.6 -0.5 L2.1 -0.55" fill="#d18a70" fill-rule="evenodd" stroke="none"/>
      <path d="M14.05 -0.95 L14.15 -1.0 14.35 -1.05 14.6 -1.0 14.8 -0.7 14.85 -0.5 Q12.7 2.95 8.85 4.9 5.8 6.5 2.45 7.4 -1.45 8.5 -5.2 6.85 L-6.9 6.0 Q-7.3 5.5 -7.2 4.8 L-7.2 4.5 -6.8 4.05 -6.65 4.0 Q-6.35 3.9 -6.1 4.2 -3.4 3.8 -0.6 4.65 L4.7 4.45 Q9.65 2.6 13.7 -0.65 L14.05 -0.95 M-5.2 5.1 L-5.45 5.45 Q-3.9 7.8 -0.85 7.2 L-0.75 7.0 -0.7 6.7 -0.75 6.65 Q-3.1 6.35 -5.0 5.05 L-5.2 5.1" fill="#dda991" fill-rule="evenodd" stroke="none"/>
      <path d="M-5.2 5.1 L-5.0 5.05 Q-3.1 6.35 -0.75 6.65 L-0.7 6.7 -0.75 7.0 -0.85 7.2 Q-3.9 7.8 -5.45 5.45 L-5.2 5.1" fill="#e8c2b5" fill-rule="evenodd" stroke="none"/>
      <path d="M16.6 -5.45 L14.45 -0.25 Q9.9 3.65 4.0 4.95 -1.4 6.15 -6.55 4.2 L-6.0 2.15 -7.8 1.1 -7.5 -1.0 -7.15 -1.9 Q-2.85 -0.85 1.5 -1.1 8.3 -0.3 13.85 -4.2 L15.5 -5.5 16.6 -5.45 M1.5 3.0 L-1.0 3.0 -1.0 2.0 -1.0 3.0 1.5 3.0 M-4.0 3.0 L-1.0 3.0 -1.0 4.5 -1.0 3.0 -4.0 3.0 M8.0 1.0 L12.0 0.0 8.0 1.0" fill="#ffffff" fill-rule="evenodd" stroke="none"/>
      <path d="M16.6 -5.45 L14.45 -0.25 Q9.9 3.65 4.0 4.95 -1.4 6.15 -6.55 4.2 L-6.0 2.15 -7.8 1.1 -7.5 -1.0 M-7.15 -1.9 Q-2.85 -0.85 1.5 -1.1 8.3 -0.3 13.85 -4.2 L15.5 -5.5 13.75 -4.4 M16.6 -5.45 L16.5 -6.5 15.5 -5.5" fill="none" stroke="#000000" stroke-linecap="round" stroke-linejoin="round" stroke-width="1.5"/>
      <path d="M-2.25 7.75 L0.1 7.85 0.75 7.9 1.25 7.9" fill="none" stroke="#aa7948" stroke-linecap="round" stroke-linejoin="round" stroke-width="2.0"/>
      <path d="M12.0 0.0 L8.0 1.0 M-1.0 4.5 L-1.0 3.0 -4.0 3.0 M-1.0 2.0 L-1.0 3.0 1.5 3.0" fill="none" stroke="#999999" stroke-linecap="round" stroke-linejoin="round" stroke-width="1.5"/>
    </g>
  </g>
  </g>
  <defs>
    </defs>
</svg>