<svg xmlns:xlink="http://www.w3.org/1999/xlink" xmlns="http://www.w3.org/2000/svg" height="202.2px" width="161.9px">
  <g transform="matrix(1.0, 0.0, 0.0, 1.0, 74.15, 81.7)">
    <g data-characterId="1403" height="152.5" transform="matrix(1.0, 0.0, 0.0, 1.0, -49.4, -71.15)" width="113.75" xlink:href="#shape0"><g id="shape0" transform="matrix(1.0, 0.0, 0.0, 1.0, 49.4, 71.15)">
      <path d="M9.5 -67.0 L12.65 -67.6 15.85 -67.15 Q21.9 -65.35 27.35 -61.55 35.5 -55.75 38.45 -46.15 42.85 -31.85 43.7 -17.8 44.55 -3.75 51.55 17.8 L60.05 44.45 Q61.55 49.55 63.85 60.1 47.6 52.1 47.1 49.95 L46.2 51.85 Q43.75 57.9 38.85 62.15 L38.95 60.7 34.8 66.2 34.25 63.3 34.1 63.85 Q32.0 70.6 26.2 74.55 28.95 68.45 29.05 61.85 L29.05 59.3 28.75 61.85 Q28.4 63.8 27.65 65.6 L26.4 68.55 24.8 71.4 Q20.95 77.5 14.7 80.85 L15.0 80.05 Q17.35 74.85 18.6 69.05 L19.05 65.1 Q19.1 61.25 18.75 57.4 18.3 52.7 17.25 48.1 16.25 43.7 15.9 38.9 L13.05 44.5 12.6 44.3 Q12.1 38.8 13.05 33.35 14.05 27.6 16.25 22.2 17.65 18.65 17.75 15.0 L17.75 14.95 17.75 14.85 17.75 14.5 17.7 14.9 17.65 14.95 17.65 15.0 Q17.35 16.35 16.25 18.9 14.95 21.95 9.5 30.85 12.65 19.15 13.05 14.0 13.25 11.25 12.8 8.35 L12.2 3.7 Q11.45 -3.45 8.35 -10.05 L5.0 -16.3 Q3.85 -18.4 2.35 -20.2 L-5.2 -28.7 -10.5 -34.35 Q-14.8 -38.8 -17.4 -43.1 -20.0 -47.4 -20.5 -49.6 -21.0 -51.85 -21.8 -51.75 L-25.5 -47.7 Q-27.5 -45.7 -31.15 -42.8 -33.4 -41.0 -35.25 -38.8 L-35.75 -36.75 Q-36.45 -33.9 -37.15 -28.6 L-37.3 -27.3 Q-38.1 -21.4 -36.65 -17.6 L-36.45 -17.15 -36.3 -16.75 Q-34.85 -13.2 -35.1 -12.45 L-35.95 -7.1 Q-36.6 -2.55 -32.65 8.9 -28.75 20.35 -24.85 26.0 -21.0 31.7 -19.6 33.0 L-18.4 33.9 -17.55 34.35 -18.0 37.4 Q-18.3 40.9 -18.9 44.5 -19.15 46.1 -18.9 47.7 -18.7 48.95 -19.25 50.05 L-20.4 48.65 -20.4 54.4 -23.6 48.35 -24.35 57.3 -24.7 63.3 Q-24.9 67.25 -23.65 70.85 -27.5 68.4 -29.35 64.05 L-31.15 59.55 -32.5 54.4 Q-35.35 59.65 -35.15 65.55 L-34.7 69.6 -38.55 64.95 -40.05 62.6 -40.55 61.3 -41.2 65.3 -42.35 65.3 Q-44.25 59.75 -43.15 53.9 L-42.85 52.5 -42.3 50.15 Q-42.8 51.7 -43.4 52.35 L-45.35 53.55 Q-47.6 55.75 -48.9 55.25 -45.3 50.75 -42.5 36.35 -39.7 21.95 -43.25 7.9 -46.8 -6.15 -46.2 -21.5 -45.6 -36.85 -39.1 -49.55 -32.6 -62.3 -19.3 -67.6 -7.45 -72.35 4.6 -69.75 6.65 -69.25 8.35 -67.9 L9.5 -67.0 M-40.55 -26.75 L-39.65 -31.35 -37.4 -35.95 -35.25 -38.8 -37.4 -35.95 -39.65 -31.35 -40.55 -26.75 M23.6 -55.2 Q21.35 -58.85 17.8 -61.15 14.0 -63.6 9.5 -63.55 14.0 -63.6 17.8 -61.15 21.35 -58.85 23.6 -55.2 M19.6 -47.45 L17.95 -49.9 14.15 -54.4 Q11.15 -57.8 6.95 -59.65 5.4 -60.35 3.75 -60.1 5.4 -60.35 6.95 -59.65 11.15 -57.8 14.15 -54.4 L17.95 -49.9 19.6 -47.45 M38.25 -37.95 L37.1 -40.55 35.7 -44.55 37.1 -40.55 38.25 -37.95 M34.8 -19.25 L34.25 -23.3 Q33.55 -28.15 32.2 -32.9 31.1 -36.95 29.15 -40.75 27.8 -43.4 26.05 -45.9 L25.35 -46.6 26.05 -45.9 Q27.8 -43.4 29.15 -40.75 31.1 -36.95 32.2 -32.9 33.55 -28.15 34.25 -23.3 L34.8 -19.25 M37.1 -31.35 L36.6 -33.9 Q36.15 -37.05 35.3 -40.15 34.7 -42.55 33.5 -44.75 L33.1 -45.15 33.5 -44.75 Q34.7 -42.55 35.3 -40.15 36.15 -37.05 36.6 -33.9 L37.1 -31.35 M23.9 -27.3 Q23.3 -31.6 21.0 -35.35 L20.7 -35.95 21.0 -35.35 Q23.3 -31.6 23.9 -27.3 M30.2 -28.75 L29.95 -29.6 Q29.1 -32.05 27.85 -34.3 26.8 -36.35 25.2 -38.1 26.8 -36.35 27.85 -34.3 29.1 -32.05 29.95 -29.6 L30.2 -28.75 M27.35 -27.9 L26.9 -29.9 Q26.15 -35.05 22.75 -39.1 26.15 -35.05 26.9 -29.9 L27.35 -27.9 M35.1 -32.75 Q34.25 -37.3 31.35 -41.1 34.25 -37.3 35.1 -32.75 M17.25 -21.85 L16.8 -22.75 14.35 -28.45 Q12.45 -32.85 9.5 -35.95 12.45 -32.85 14.35 -28.45 L16.8 -22.75 17.25 -21.85 M19.55 -24.7 Q18.15 -28.75 15.8 -32.45 L14.1 -34.5 15.8 -32.45 Q18.15 -28.75 19.55 -24.7 M25.35 -14.65 L23.75 -18.75 20.1 -28.3 Q18.3 -32.75 15.95 -37.0 L13.8 -40.15 15.95 -37.0 Q18.3 -32.75 20.1 -28.3 L23.75 -18.75 25.35 -14.65 M7.8 -23.55 L7.0 -24.75 5.1 -27.55 Q3.5 -29.35 1.75 -30.75 3.5 -29.35 5.1 -27.55 L7.0 -24.75 7.8 -23.55 M14.95 -12.65 L14.2 -14.1 11.0 -21.45 7.15 -29.3 Q4.95 -33.45 1.15 -35.65 4.95 -33.45 7.15 -29.3 L11.0 -21.45 14.2 -14.1 14.95 -12.65 M17.75 14.5 L17.85 14.4 Q17.8 13.95 17.75 14.5 17.8 13.95 17.85 14.4 L17.75 14.5 M11.6 -17.25 Q13.6 -13.8 15.2 -10.1 17.5 -4.65 18.5 1.15 19.5 6.45 20.15 11.8 L20.6 15.55 Q21.2 21.2 20.9 26.8 L20.65 29.65 Q20.5 31.3 21.1 32.55 20.5 31.3 20.65 29.65 L20.9 26.8 Q21.2 21.2 20.6 15.55 L20.15 11.8 Q19.5 6.45 18.5 1.15 17.5 -4.65 15.2 -10.1 13.6 -13.8 11.6 -17.25 M17.85 -8.9 L19.05 -5.75 23.0 4.65 24.4 9.5 23.0 4.65 19.05 -5.75 17.85 -8.9 M29.75 56.1 Q29.25 50.4 29.4 44.6 29.55 39.25 30.0 33.95 30.5 28.5 30.35 23.05 L30.15 17.85 Q30.05 15.3 29.5 12.75 L27.3 2.0 Q26.3 -2.95 23.95 -7.45 23.15 -9.0 22.65 -10.7 22.15 -12.45 21.1 -13.8 22.15 -12.45 22.65 -10.7 23.15 -9.0 23.95 -7.45 26.3 -2.95 27.3 2.0 L29.5 12.75 Q30.05 15.3 30.15 17.85 L30.35 23.05 Q30.5 28.5 30.0 33.95 29.55 39.25 29.4 44.6 29.25 50.4 29.75 56.1 M36.75 -5.75 L38.55 -0.55 Q40.25 4.15 41.05 9.2 41.7 13.55 42.85 17.85 L44.15 23.1 46.5 34.25 Q47.5 39.25 47.7 44.3 47.5 39.25 46.5 34.25 L44.15 23.1 42.85 17.85 Q41.7 13.55 41.05 9.2 40.25 4.15 38.55 -0.55 L36.75 -5.75 M13.8 -23.85 Q12.35 -29.0 9.2 -33.35 12.35 -29.0 13.8 -23.85 M59.0 53.0 Q56.55 52.05 52.45 44.4 48.3 36.75 44.6 18.0 40.9 -0.8 40.0 -18.7 40.9 -0.8 44.6 18.0 48.3 36.75 52.45 44.4 56.55 52.05 59.0 53.0 M5.75 -48.6 L4.15 -50.4 Q2.05 -52.3 -0.4 -53.9 L-4.5 -57.1 Q-5.7 -58.15 -7.2 -57.8 -5.7 -58.15 -4.5 -57.1 L-0.4 -53.9 Q2.05 -52.3 4.15 -50.4 L5.75 -48.6 M31.6 -4.0 L33.15 2.65 Q34.1 7.3 34.45 12.1 L34.95 16.1 Q35.35 18.55 35.35 21.0 35.35 26.35 35.7 31.65 L35.75 33.95 Q35.8 39.75 36.25 45.45 L36.3 47.5 36.25 50.65 Q36.2 56.6 34.15 62.15 36.2 56.6 36.25 50.65 L36.3 47.5 36.25 45.45 Q35.8 39.75 35.75 33.95 L35.7 31.65 Q35.35 26.35 35.35 21.0 35.35 18.55 34.95 16.1 L34.45 12.1 Q34.1 7.3 33.15 2.65 L31.6 -4.0 M59.3 49.5 Q58.0 48.65 53.9 41.55 49.8 34.45 47.75 17.0 49.8 34.45 53.9 41.55 58.0 48.65 59.3 49.5 M24.4 9.5 L24.0 18.7 23.85 21.6 23.5 26.5 23.5 29.65 Q23.75 33.3 24.45 36.85 25.5 42.35 26.2 47.8 L26.3 49.8 Q26.4 55.6 25.3 61.3 24.2 67.0 21.95 72.25 24.2 67.0 25.3 61.3 26.4 55.6 26.3 49.8 L26.2 47.8 Q25.5 42.35 24.45 36.85 23.75 33.3 23.5 29.65 L23.5 26.5 23.85 21.6 24.0 18.7 24.4 9.5 25.05 13.55 Q25.6 19.3 24.75 25.05 25.6 19.3 25.05 13.55 L24.4 9.5 M20.45 40.6 L21.15 44.05 22.25 51.5 Q22.85 56.0 22.25 60.45 21.55 65.8 19.6 70.8 21.55 65.8 22.25 60.45 22.85 56.0 22.25 51.5 L21.15 44.05 20.45 40.6 M27.7 27.05 L27.5 30.5 Q27.35 34.0 28.55 37.15 27.35 34.0 27.5 30.5 L27.7 27.05 M17.25 25.6 L16.55 27.1 Q14.6 32.4 14.7 38.0 14.6 32.4 16.55 27.1 L17.25 25.6 M30.45 -20.4 Q32.6 -8.65 35.8 4.55 39.0 17.7 40.75 30.85 42.5 44.0 38.85 59.9 42.5 44.0 40.75 30.85 39.0 17.7 35.8 4.55 32.6 -8.65 30.45 -20.4 M-18.7 -65.0 Q-14.5 -65.5 -10.7 -63.7 L-10.05 -63.25 -10.7 -63.7 Q-14.5 -65.5 -18.7 -65.0 M-6.3 -65.85 L-5.75 -65.3 -6.3 -65.85 M-2.0 -68.75 L-0.55 -68.15 Q0.5 -67.7 0.0 -67.6 0.5 -67.7 -0.55 -68.15 L-2.0 -68.75 M-34.8 -53.75 L-32.5 -54.6 -29.6 -55.5 -32.5 -54.6 -34.8 -53.75 M-15.5 -58.4 L-12.8 -59.15 Q-8.1 -60.2 -3.5 -61.7 L7.5 -65.0 -3.5 -61.7 Q-8.1 -60.2 -12.8 -59.15 L-15.5 -58.4 M-25.3 -59.8 Q-21.75 -62.15 -17.55 -62.55 -16.25 -62.7 -15.8 -61.85 -16.25 -62.7 -17.55 -62.55 -21.75 -62.15 -25.3 -59.8 M0.65 -45.75 L-1.5 -48.55 Q-3.0 -50.6 -4.9 -52.25 -6.75 -53.9 -9.05 -54.75 -11.25 -55.6 -13.5 -56.1 -11.25 -55.6 -9.05 -54.75 -6.75 -53.9 -4.9 -52.25 -3.0 -50.6 -1.5 -48.55 L0.65 -45.75 M-41.75 -39.7 L-43.7 -31.6 -41.75 -39.7 M-40.0 -40.25 L-41.5 -35.3 -43.15 -27.9 -41.5 -35.3 -40.0 -40.25 M-42.85 -24.75 L-43.5 -21.0 Q-43.85 -17.95 -43.45 -15.0 -43.2 -13.3 -43.45 -11.5 -43.2 -13.3 -43.45 -15.0 -43.85 -17.95 -43.5 -21.0 L-42.85 -24.75 M-6.05 -38.8 Q-8.45 -41.1 -10.4 -43.75 -12.35 -46.4 -13.85 -49.4 L-14.35 -50.3 -13.85 -49.4 Q-12.35 -46.4 -10.4 -43.75 -8.45 -41.1 -6.05 -38.8 M-39.7 -9.75 L-38.95 -2.0 -38.1 4.9 Q-37.4 10.3 -35.1 15.0 -37.4 10.3 -38.1 4.9 L-38.95 -2.0 -39.7 -9.75 M-42.0 -4.0 L-41.5 0.3 Q-40.95 5.6 -39.45 10.65 -37.8 16.3 -37.9 22.15 L-38.2 29.05 -38.4 30.8 -38.7 33.1 -39.1 34.8 Q-40.65 40.1 -43.15 45.45 -40.65 40.1 -39.1 34.8 L-38.7 33.1 -38.4 30.8 -38.2 29.05 -37.9 22.15 Q-37.8 16.3 -39.45 10.65 -40.95 5.6 -41.5 0.3 L-42.0 -4.0 M-28.9 34.85 L-29.4 40.0 -29.5 51.25 Q-29.45 56.65 -27.0 61.3 -29.45 56.65 -29.5 51.25 L-29.4 40.0 -28.9 34.85 M-23.3 38.3 L-23.1 39.95 Q-22.85 41.1 -23.0 42.3 -22.85 41.1 -23.1 39.95 L-23.3 38.3 M-34.6 18.7 Q-33.6 22.85 -33.75 27.05 -33.85 30.25 -34.3 33.35 -35.1 39.0 -36.35 44.6 -36.75 46.5 -37.55 48.2 -39.9 53.1 -39.8 58.45 -39.9 53.1 -37.55 48.2 -36.75 46.5 -36.35 44.6 -35.1 39.0 -34.3 33.35 -33.85 30.25 -33.75 27.05 -33.6 22.85 -34.6 18.7 M-32.8 33.95 L-34.6 42.05 -36.2 51.8 Q-36.7 55.8 -36.8 59.85 -36.7 55.8 -36.2 51.8 L-34.6 42.05 -32.8 33.95 M4.6 -22.15 Q2.1 -27.4 -2.6 -31.05 2.1 -27.4 4.6 -22.15" fill="url(#gradient0)" fill-rule="evenodd" stroke="none"/>
      <path d="M13.05 44.5 L15.9 38.9 Q16.25 43.7 17.25 48.1 18.3 52.7 18.75 57.4 19.1 61.25 19.05 65.1 L18.6 69.05 Q17.35 74.85 15.0 80.05 L14.7 80.85 Q20.95 77.5 24.8 71.4 L26.4 68.55 27.65 65.6 Q28.4 63.8 28.75 61.85 L29.05 59.3 29.05 61.85 Q28.95 68.45 26.2 74.55 32.0 70.6 34.1 63.85 L34.25 63.3 34.8 66.2 38.95 60.7 38.85 62.15 Q43.75 57.9 46.2 51.85 L47.1 49.95 Q47.6 52.1 63.85 60.1 61.55 49.55 60.05 44.45 L51.55 17.8 Q44.55 -3.75 43.7 -17.8 42.85 -31.85 38.45 -46.15 35.5 -55.75 27.35 -61.55 21.9 -65.35 15.85 -67.15 L12.65 -67.6 9.5 -67.0 M8.35 -67.9 Q6.65 -69.25 4.6 -69.75 -7.45 -72.35 -19.3 -67.6 -32.6 -62.3 -39.1 -49.55 -45.6 -36.85 -46.2 -21.5 -46.8 -6.15 -43.25 7.9 -39.7 21.95 -42.5 36.35 -45.3 50.75 -48.9 55.25 -47.6 55.75 -45.35 53.55 L-43.4 52.35 Q-42.8 51.7 -42.3 50.15 L-42.85 52.5 -43.15 53.9 Q-44.25 59.75 -42.35 65.3 L-41.15 68.2 -41.2 65.3 -40.55 61.3 -40.05 62.6 -38.55 64.95 -34.7 69.6 -35.15 65.55 Q-35.35 59.65 -32.5 54.4 L-31.15 59.55 -29.35 64.05 Q-27.5 68.4 -23.65 70.85 -24.9 67.25 -24.7 63.3 L-24.35 57.3 -23.6 48.35 -20.4 54.4 -20.4 48.65 -19.25 50.05 Q-18.7 48.95 -18.9 47.7 -19.15 46.1 -18.9 44.5 -18.3 40.9 -18.0 37.4 L-17.55 34.35 M-35.25 -38.8 L-37.4 -35.95 -39.65 -31.35 -40.55 -26.75 M-35.25 -38.8 Q-33.4 -41.0 -31.15 -42.8 -27.5 -45.7 -25.5 -47.7 L-21.8 -51.75 Q-21.0 -51.85 -20.5 -49.6 -20.0 -47.4 -17.4 -43.1 -14.8 -38.8 -10.5 -34.35 L-5.2 -28.7 2.35 -20.2 Q3.85 -18.4 5.0 -16.3 L8.35 -10.05 Q11.45 -3.45 12.2 3.7 L12.8 8.35 Q13.25 11.25 13.05 14.0 12.65 19.15 9.5 30.85 14.95 21.95 16.25 18.9 17.35 16.35 17.65 15.0 L17.65 14.95 17.7 14.9 17.75 14.5 Q17.8 13.95 17.85 14.4 L17.75 14.5 17.75 14.85 17.75 14.95 17.75 15.0 Q17.65 18.65 16.25 22.2 14.05 27.6 13.05 33.35 12.1 38.8 12.6 44.3 L12.65 45.45 13.05 44.5 M7.5 -65.0 L-3.5 -61.7 Q-8.1 -60.2 -12.8 -59.15 L-15.5 -58.4" fill="none" stroke="#000000" stroke-linecap="round" stroke-linejoin="round" stroke-width="2.0"/>
      <path d="M3.75 -60.1 Q5.4 -60.35 6.95 -59.65 11.15 -57.8 14.15 -54.4 L17.95 -49.9 19.6 -47.45 M9.5 -63.55 Q14.0 -63.6 17.8 -61.15 21.35 -58.85 23.6 -55.2 M-7.2 -57.8 Q-5.7 -58.15 -4.5 -57.1 L-0.4 -53.9 Q2.05 -52.3 4.15 -50.4 L5.75 -48.6 M40.0 -18.7 Q40.9 -0.8 44.6 18.0 48.3 36.75 52.45 44.4 56.55 52.05 59.0 53.0 M-29.6 -55.5 L-32.5 -54.6 -34.8 -53.75 M0.0 -67.6 Q0.5 -67.7 -0.55 -68.15 L-2.0 -68.75 M-5.75 -65.3 L-6.3 -65.85 M-10.05 -63.25 L-10.7 -63.7 Q-14.5 -65.5 -18.7 -65.0 M-13.5 -56.1 Q-11.25 -55.6 -9.05 -54.75 -6.75 -53.9 -4.9 -52.25 -3.0 -50.6 -1.5 -48.55 L0.65 -45.75 M-15.8 -61.85 Q-16.25 -62.7 -17.55 -62.55 -21.75 -62.15 -25.3 -59.8 M-14.35 -50.3 L-13.85 -49.4 Q-12.35 -46.4 -10.4 -43.75 -8.45 -41.1 -6.05 -38.8" fill="none" stroke="#442222" stroke-linecap="round" stroke-linejoin="round" stroke-width="1.5"/>
      <path d="M21.1 32.55 Q20.5 31.3 20.65 29.65 L20.9 26.8 Q21.2 21.2 20.6 15.55 L20.15 11.8 Q19.5 6.45 18.5 1.15 17.5 -4.65 15.2 -10.1 13.6 -13.8 11.6 -17.25 M21.1 -13.8 Q22.15 -12.45 22.65 -10.7 23.15 -9.0 23.95 -7.45 26.3 -2.95 27.3 2.0 L29.5 12.75 Q30.05 15.3 30.15 17.85 L30.35 23.05 Q30.5 28.5 30.0 33.95 29.55 39.25 29.4 44.6 29.25 50.4 29.75 56.1 M21.95 72.25 Q24.2 67.0 25.3 61.3 26.4 55.6 26.3 49.8 L26.2 47.8 Q25.5 42.35 24.45 36.85 23.75 33.3 23.5 29.65 L23.5 26.5 23.85 21.6 24.0 18.7 24.4 9.5 M38.85 59.9 Q42.5 44.0 40.75 30.85 39.0 17.7 35.8 4.55 32.6 -8.65 30.45 -20.4 M-35.1 15.0 Q-37.4 10.3 -38.1 4.9 L-38.95 -2.0 -39.7 -9.75 M-39.8 58.45 Q-39.9 53.1 -37.55 48.2 -36.75 46.5 -36.35 44.6 -35.1 39.0 -34.3 33.35 -33.85 30.25 -33.75 27.05 -33.6 22.85 -34.6 18.7 M-23.0 42.3 Q-22.85 41.1 -23.1 39.95 L-23.3 38.3 M-27.0 61.3 Q-29.45 56.65 -29.5 51.25 L-29.4 40.0 -28.9 34.85" fill="none" stroke="#442222" stroke-linecap="round" stroke-linejoin="round" stroke-width="1.5"/>
      <path d="M33.1 -45.15 L33.5 -44.75 Q34.7 -42.55 35.3 -40.15 36.15 -37.05 36.6 -33.9 L37.1 -31.35 M25.35 -46.6 L26.05 -45.9 Q27.8 -43.4 29.15 -40.75 31.1 -36.95 32.2 -32.9 33.55 -28.15 34.25 -23.3 L34.8 -19.25 M22.75 -39.1 Q26.15 -35.05 26.9 -29.9 L27.35 -27.9 M9.5 -35.95 Q12.45 -32.85 14.35 -28.45 L16.8 -22.75 17.25 -21.85 M13.8 -40.15 L15.95 -37.0 Q18.3 -32.75 20.1 -28.3 L23.75 -18.75 25.35 -14.65 M1.15 -35.65 Q4.95 -33.45 7.15 -29.3 L11.0 -21.45 14.2 -14.1 14.95 -12.65 M-43.45 -11.5 Q-43.2 -13.3 -43.45 -15.0 -43.85 -17.95 -43.5 -21.0 L-42.85 -24.75 M-43.15 -27.9 L-41.5 -35.3 -40.0 -40.25 M-2.6 -31.05 Q2.1 -27.4 4.6 -22.15" fill="none" stroke="#c68e8e" stroke-linecap="round" stroke-linejoin="round" stroke-width="1.5"/>
      <path d="M24.4 9.5 L23.0 4.65 19.05 -5.75 17.85 -8.9 M47.7 44.3 Q47.5 39.25 46.5 34.25 L44.15 23.1 42.85 17.85 Q41.7 13.55 41.05 9.2 40.25 4.15 38.55 -0.55 L36.75 -5.75 M47.75 17.0 Q49.8 34.45 53.9 41.55 58.0 48.65 59.3 49.5 M34.15 62.15 Q36.2 56.6 36.25 50.65 L36.3 47.5 36.25 45.45 Q35.8 39.75 35.75 33.95 L35.7 31.65 Q35.35 26.35 35.35 21.0 35.35 18.55 34.95 16.1 L34.45 12.1 Q34.1 7.3 33.15 2.65 L31.6 -4.0 M24.4 9.5 L25.05 13.55 Q25.6 19.3 24.75 25.05 M14.7 38.0 Q14.6 32.4 16.55 27.1 L17.25 25.6 M28.55 37.15 Q27.35 34.0 27.5 30.5 L27.7 27.05 M19.6 70.8 Q21.55 65.8 22.25 60.45 22.85 56.0 22.25 51.5 L21.15 44.05 20.45 40.6 M-43.15 45.45 Q-40.65 40.1 -39.1 34.8 L-38.7 33.1 -38.4 30.8 -38.2 29.05 -37.9 22.15 Q-37.8 16.3 -39.45 10.65 -40.95 5.6 -41.5 0.3 L-42.0 -4.0 M-36.8 59.85 Q-36.7 55.8 -36.2 51.8 L-34.6 42.05 -32.8 33.95" fill="none" stroke="#ae6262" stroke-linecap="round" stroke-linejoin="round" stroke-width="1.5"/>
      <path d="M35.7 -44.55 L37.1 -40.55 38.25 -37.95 M25.2 -38.1 Q26.8 -36.35 27.85 -34.3 29.1 -32.05 29.95 -29.6 L30.2 -28.75 M20.7 -35.95 L21.0 -35.35 Q23.3 -31.6 23.9 -27.3 M31.35 -41.1 Q34.25 -37.3 35.1 -32.75 M14.1 -34.5 L15.8 -32.45 Q18.15 -28.75 19.55 -24.7 M1.75 -30.75 Q3.5 -29.35 5.1 -27.55 L7.0 -24.75 7.8 -23.55 M9.2 -33.35 Q12.35 -29.0 13.8 -23.85 M-43.7 -31.6 L-41.75 -39.7" fill="none" stroke="#d3abab" stroke-linecap="round" stroke-linejoin="round" stroke-width="1.5"/>
      <path d="M-17.55 34.35 L-18.4 33.9 -19.6 33.0 Q-21.0 31.7 -24.85 26.0 -28.75 20.35 -32.65 8.9 -36.6 -2.55 -35.95 -7.1 L-35.1 -12.45 Q-34.85 -13.2 -36.3 -16.75 L-36.45 -17.15 -36.65 -17.6 Q-38.1 -21.4 -37.3 -27.3 L-37.15 -28.6 Q-36.45 -33.9 -35.75 -36.75 L-35.25 -38.8" fill="none" stroke="#000000" stroke-linecap="round" stroke-linejoin="round" stroke-width="2.0"/>
    </g>
    </g>
  </g>
  <defs>
    <radialGradient cx="0" cy="0" gradientTransform="matrix(0.001, 0.109, -0.1787, 0.0018, -5.05, -54.5)" gradientUnits="userSpaceOnUse" id="gradient0" r="819.2" spreadMethod="pad">
      <stop offset="0.0" stop-color="#5c2e2e"/>
      <stop offset="0.23137254901960785" stop-color="#9c5050"/>
      <stop offset="0.3176470588235294" stop-color="#c18686"/>
      <stop offset="0.38823529411764707" stop-color="#a55454"/>
      <stop offset="1.0" stop-color="#5c2e2e"/>
    </radialGradient>
  </defs>
</svg>