<svg xmlns:xlink="http://www.w3.org/1999/xlink" xmlns="http://www.w3.org/2000/svg" height="16.65px" width="27.9px">
  <g transform="matrix(1.0, 0.0, 0.0, 1.0, 11.2, 8.0)">
    <g data-characterId="1325" height="11.35" transform="matrix(1.0, 0.0, 0.0, 1.0, -9.45, -4.35)" width="15.6" xlink:href="#shape0"><g id="shape0" transform="matrix(1.0, 0.0, 0.0, 1.0, 9.45, 4.35)">
      <path d="M-5.9 -3.6 L-2.45 -4.05 -1.7 -3.95 Q2.0 -2.25 5.25 -0.05 L5.3 0.15 5.25 0.45 5.15 0.6 4.9 0.8 Q1.45 -0.3 -1.85 -1.8 L-2.75 -2.2 Q-5.7 -1.5 -8.25 -2.6 -8.75 -2.45 -8.95 -2.9 L-8.95 -3.1 -8.85 -3.3 -7.85 -4.0 -6.75 -4.35 -6.45 -4.25 -6.3 -4.2 -6.05 -3.8 -5.9 -3.6" fill="#3a4549" fill-rule="evenodd" stroke="none"/>
      <path d="M-3.05 5.4 L-2.9 5.2 -2.85 5.1 -2.8 4.85 -2.85 4.75 -2.9 4.65 -2.95 4.45 -7.25 3.8 -7.35 3.75 -7.65 3.55 -7.85 3.65 -8.1 3.9 -8.1 4.1 -7.95 4.5 -7.65 4.85 -6.65 5.1 -3.05 5.4 M-8.05 2.6 L-0.5 3.05 1.05 3.0 3.35 3.3 5.4 2.1 5.8 2.35 5.85 2.45 Q5.2 5.1 2.15 5.45 L-0.7 5.9 -3.55 6.2 -6.55 5.95 Q-8.45 5.65 -9.1 4.15 -9.8 2.6 -9.05 2.2 -8.4 2.1 -8.05 2.6" fill="#4f5c66" fill-rule="evenodd" stroke="none"/>
      <path d="M-3.05 5.4 L-6.65 5.1 -7.65 4.85 -7.95 4.5 -8.1 4.1 -8.1 3.9 -7.85 3.65 -7.65 3.55 -7.35 3.75 -7.25 3.8 -2.95 4.45 -2.9 4.65 -2.85 4.75 -2.8 4.85 -2.85 5.1 -2.9 5.2 -3.05 5.4" fill="#8d9ca7" fill-rule="evenodd" stroke="none"/>
      <path d="M2.5 3.6 Q-0.15 2.75 -2.45 1.0 L-5.25 -1.05 -6.25 -1.45 Q-7.3 -1.55 -7.9 -0.8 L-8.15 -2.45 -7.1 -2.35 -5.65 -2.05 -4.55 -2.25 Q0.4 -2.95 4.8 0.0 L5.2 0.3 Q6.2 1.0 6.15 2.1 L5.15 2.9 Q4.45 3.2 3.8 3.55 L2.5 3.6" fill="#171d1e" fill-rule="evenodd" stroke="none"/>
      <path d="M-7.9 -0.8 Q-7.3 -1.55 -6.25 -1.45 L-5.25 -1.05 -2.45 1.0 Q-0.15 2.75 2.5 3.6 L-7.7 2.85 -8.0 2.25 Q-8.75 0.6 -7.9 -0.8" fill="#2d3839" fill-rule="evenodd" stroke="none"/>
      <path d="M-8.15 -2.45 L-8.25 -2.45 -8.95 -2.75 M-7.9 -0.8 Q-7.3 -1.55 -6.25 -1.45 L-5.25 -1.05 -2.45 1.0 Q-0.15 2.75 2.5 3.6 L3.8 3.55 Q4.45 3.2 5.15 2.9 L6.15 2.1 Q6.2 1.0 5.2 0.3 L4.8 0.0 Q0.4 -2.95 -4.55 -2.25 L-5.65 -2.05 -7.1 -2.35 -8.15 -2.45 -7.9 -0.8 Q-8.75 0.6 -8.0 2.25 L-7.7 2.85 2.5 3.6 M-7.7 2.85 L-9.0 2.55" fill="none" stroke="#000000" stroke-linecap="round" stroke-linejoin="round" stroke-width="1.5"/>
      <path d="M-6.75 6.4 L-4.75 6.5 -2.75 6.4" fill="none" stroke="#3a4549" stroke-linecap="round" stroke-linejoin="round" stroke-width="2.0"/>
    </g>
  </g>
  </g>
  <defs>
    </defs>
</svg>