<svg xmlns:xlink="http://www.w3.org/1999/xlink" xmlns="http://www.w3.org/2000/svg" height="202.2px" width="161.9px">
  <g transform="matrix(1.0, 0.0, 0.0, 1.0, 74.15, 81.7)">
    <g data-characterId="1457" height="129.4" transform="matrix(1.0, 0.0, 0.0, 1.0, -61.5, -75.5)" width="120.25" xlink:href="#shape0"><g id="shape0" transform="matrix(1.0, 0.0, 0.0, 1.0, 61.5, 75.5)">
      <path d="M-43.75 -7.35 L-43.9 -7.15 -43.95 -7.05 -43.95 -7.0 -44.85 -5.5 Q-45.25 -8.35 -44.75 -11.3 -44.4 -13.6 -43.65 -15.8 -42.45 -19.2 -42.0 -22.8 -41.65 -25.95 -40.8 -29.0 -38.95 -35.5 -37.65 -41.8 L-37.65 -41.85 -37.55 -42.4 -37.95 -41.9 Q-39.75 -40.05 -41.0 -37.8 L-42.4 -35.15 -43.6 -32.5 Q-45.5 -28.1 -48.3 -24.15 L-50.65 -21.4 Q-52.1 -19.95 -52.95 -18.2 L-53.05 -18.85 -52.8 -20.9 -52.1 -23.75 Q-51.05 -28.05 -49.45 -32.2 L-46.2 -39.8 Q-44.45 -43.5 -42.95 -47.35 -41.2 -51.8 -38.2 -55.45 L-37.15 -56.9 Q-35.55 -59.3 -33.2 -61.05 L-32.15 -61.8 -23.95 -67.2 -22.5 -68.05 -20.75 -68.9 -15.7 -71.2 -14.0 -71.95 -7.1 -74.55 -3.65 -74.95 -3.2 -74.85 1.15 -74.2 2.1 -74.0 3.9 -73.45 Q6.35 -72.5 8.6 -71.2 L10.55 -70.1 Q14.8 -67.7 18.7 -64.7 19.35 -64.2 19.8 -64.45 L20.25 -64.0 24.2 -64.35 24.65 -64.3 Q25.45 -64.15 25.75 -63.35 L26.55 -61.95 31.05 -55.65 32.5 -53.0 33.2 -51.8 Q35.75 -48.0 37.55 -43.75 L39.25 -40.0 40.0 -37.75 41.1 -34.25 41.5 -33.15 43.65 -23.7 45.0 -14.05 45.65 -4.35 45.8 -2.55 46.3 5.05 46.45 8.05 46.8 17.05 46.95 19.55 Q47.4 24.1 48.35 28.55 L50.05 36.1 50.65 38.0 Q52.1 41.9 54.35 45.35 L55.8 47.8 56.4 48.8 58.25 51.1 Q55.4 51.15 52.95 49.9 L52.2 49.55 51.4 49.2 50.15 48.7 48.85 48.25 Q48.35 48.1 47.95 47.8 42.95 44.25 39.85 39.15 40.35 43.6 42.3 47.65 L45.1 53.4 43.35 51.95 40.25 49.55 37.15 47.25 35.1 45.65 Q33.45 44.25 32.7 42.35 32.8 45.55 34.55 48.25 L35.3 49.65 35.45 50.85 Q32.1 50.55 29.65 48.15 L27.9 46.6 27.7 46.25 27.6 45.35 27.55 45.35 Q27.1 45.55 27.05 44.65 L26.85 43.45 26.65 42.6 Q26.25 40.1 26.2 37.5 L26.1 36.35 26.0 35.2 25.65 31.75 25.5 30.6 24.5 20.95 24.4 18.2 24.4 17.05 23.7 17.05 22.25 13.15 22.0 12.4 Q21.1 9.75 20.5 6.9 L19.7 2.55 Q19.25 -0.4 18.95 -3.45 L18.8 -4.6 Q18.3 -8.15 18.2 -11.75 L18.1 -13.35 17.85 -15.9 17.8 -17.7 Q17.65 -21.5 17.85 -25.3 L18.05 -28.3 18.2 -31.75 16.95 -29.05 16.9 -28.9 16.85 -28.8 Q15.95 -27.05 15.4 -25.2 L14.55 -25.55 14.4 -27.85 Q14.1 -31.65 14.6 -35.45 L15.3 -40.5 15.35 -40.65 15.8 -43.1 16.05 -43.9 Q16.35 -44.75 15.75 -45.05 L15.6 -44.65 15.05 -42.8 14.4 -40.85 14.25 -40.6 Q11.4 -34.3 10.7 -27.55 L10.55 -27.55 10.55 -27.6 Q10.0 -31.7 9.95 -35.9 L10.05 -40.3 10.45 -44.9 10.7 -49.25 10.7 -49.3 10.9 -50.3 10.55 -49.3 Q6.1 -38.2 2.15 -26.95 L0.0 -21.5 Q-0.3 -20.7 -0.9 -20.0 L-1.5 -22.15 Q-1.85 -24.95 -1.85 -27.85 L-1.8 -35.2 Q-1.7 -40.4 -2.1 -45.55 -2.25 -47.6 -2.7 -49.65 L-3.0 -49.95 -3.25 -48.55 Q-3.65 -46.45 -4.5 -44.55 -5.95 -41.3 -7.85 -38.25 L-12.25 -30.95 -16.05 -24.5 Q-22.3 -14.0 -30.6 -5.05 L-27.8 -15.65 -25.75 -22.7 Q-23.6 -29.3 -23.05 -36.15 L-22.6 -40.45 Q-22.2 -43.7 -22.8 -46.7 L-23.1 -45.15 Q-23.55 -43.25 -24.4 -41.55 -28.25 -33.65 -32.6 -25.95 L-36.1 -20.1 -43.4 -8.0 -43.75 -7.35 -43.4 -8.0 -36.1 -20.1 -35.65 -13.9 Q-35.55 -12.45 -35.85 -11.05 -37.6 -2.9 -34.45 5.0 L-31.05 13.4 -24.7 28.55 Q-23.65 31.1 -21.8 33.2 -20.2 35.0 -17.75 34.7 L-17.0 34.75 -17.05 35.2 -17.45 37.05 -18.05 40.05 -18.35 42.1 -18.5 43.05 -18.65 43.7 -18.85 43.95 -19.6 44.55 Q-21.2 45.55 -23.0 46.3 L-23.95 46.25 Q-23.0 45.8 -22.5 44.65 L-22.05 43.75 -21.55 42.65 -21.55 42.6 -21.6 42.35 -21.8 42.6 Q-22.8 44.25 -24.85 45.3 L-26.25 46.05 Q-29.9 47.95 -33.85 48.3 L-33.25 47.8 -30.3 44.0 Q-29.45 42.9 -29.5 41.8 L-30.1 42.2 -30.9 42.7 Q-32.75 43.85 -34.8 44.55 L-36.55 45.2 Q-43.4 47.45 -50.4 47.2 L-51.1 47.15 -50.4 46.9 Q-49.45 46.45 -48.5 45.6 -45.95 43.35 -44.2 40.25 -45.2 41.0 -46.2 41.3 L-47.7 41.75 -49.45 42.4 -50.9 42.95 -52.25 43.2 -59.75 44.35 -59.9 43.65 Q-56.95 40.5 -54.8 36.6 L-54.05 35.25 -52.8 32.85 -52.2 31.3 Q-50.75 27.45 -49.75 23.45 L-47.55 14.55 -47.0 12.65 Q-45.45 7.9 -44.85 3.0 L-43.9 -4.15 -43.8 -6.2 -43.8 -6.9 -43.8 -7.0 -43.8 -7.05 -43.75 -7.35 M25.65 -1.15 L25.45 0.25 24.8 5.55 24.55 10.8 24.5 11.75 24.4 17.05 24.5 11.75 24.55 10.8 24.8 5.55 25.45 0.25 25.65 -1.15 M31.3 -26.25 L31.1 -25.55 31.3 -26.25 M28.8 -5.05 Q29.5 -5.4 29.8 -6.15 31.25 -10.4 32.35 -14.95 32.9 -17.05 32.85 -19.35 L32.6 -21.4 32.55 -21.65 32.35 -22.25 Q31.6 -23.8 31.1 -25.55 L30.7 -23.95 Q29.7 -19.15 29.15 -14.25 28.85 -11.75 28.9 -9.2 L28.9 -7.35 28.85 -5.75 28.8 -5.05 Q28.6 -0.65 29.0 3.7 28.6 -0.65 28.8 -5.05" fill="url(#gradient0)" fill-rule="evenodd" stroke="none"/>
      <path d="M19.8 -64.45 Q19.35 -64.2 18.7 -64.7 14.8 -67.7 10.55 -70.1 L8.6 -71.2 Q6.35 -72.5 3.9 -73.45 L2.1 -74.0 1.15 -74.2 -3.2 -74.85 -3.65 -74.95 -7.1 -74.55 -14.0 -71.95 -15.7 -71.2 -20.75 -68.9 -22.5 -68.05 -23.95 -67.2 -32.15 -61.8 -33.2 -61.05 Q-35.55 -59.3 -37.15 -56.9 L-38.2 -55.45 Q-41.2 -51.8 -42.95 -47.35 -44.45 -43.5 -46.2 -39.8 L-49.45 -32.2 Q-51.05 -28.05 -52.1 -23.75 L-52.8 -20.9 -53.05 -18.85 -52.95 -18.2 Q-52.1 -19.95 -50.65 -21.4 L-48.3 -24.15 Q-45.5 -28.1 -43.6 -32.5 L-42.4 -35.15 -41.0 -37.8 Q-39.75 -40.05 -37.95 -41.9 L-37.55 -42.4 -37.65 -41.85 -37.65 -41.8 Q-38.95 -35.5 -40.8 -29.0 -41.65 -25.95 -42.0 -22.8 -42.45 -19.2 -43.65 -15.8 -44.4 -13.6 -44.75 -11.3 -45.25 -8.35 -44.85 -5.5 L-43.95 -7.0 -43.95 -7.05 -43.9 -7.15 -43.75 -7.35 -43.4 -8.0 -36.1 -20.1 -32.6 -25.95 Q-28.25 -33.65 -24.4 -41.55 -23.55 -43.25 -23.1 -45.15 L-22.8 -46.7 Q-22.2 -43.7 -22.6 -40.45 L-23.05 -36.15 Q-23.6 -29.3 -25.75 -22.7 L-27.8 -15.65 -30.6 -5.05 Q-22.3 -14.0 -16.05 -24.5 L-12.25 -30.95 -7.85 -38.25 Q-5.95 -41.3 -4.5 -44.55 -3.65 -46.45 -3.25 -48.55 L-3.0 -49.95 -2.7 -49.65 Q-2.25 -47.6 -2.1 -45.55 -1.7 -40.4 -1.8 -35.2 L-1.85 -27.85 Q-1.85 -24.95 -1.5 -22.15 L-0.9 -20.0 Q-0.3 -20.7 0.0 -21.5 L2.15 -26.95 Q6.1 -38.2 10.55 -49.3 L10.9 -50.3 10.7 -49.3 10.7 -49.25 10.45 -44.9 10.05 -40.3 9.95 -35.9 Q10.0 -31.7 10.55 -27.6 L10.55 -27.55 10.6 -26.7 10.7 -27.55 Q11.4 -34.3 14.25 -40.6 L14.4 -40.85 15.05 -42.8 15.6 -44.65 15.75 -45.05 Q16.35 -44.75 16.05 -43.9 L15.8 -43.1 15.35 -40.65 15.3 -40.5 14.6 -35.45 Q14.1 -31.65 14.4 -27.85 L14.55 -25.55 14.7 -23.5 14.75 -22.1 Q15.1 -22.55 15.1 -23.5 L15.25 -24.85 15.4 -25.2 Q15.95 -27.05 16.85 -28.8 L16.9 -28.9 16.95 -29.05 18.2 -31.75 18.05 -28.3 17.85 -25.3 Q17.65 -21.5 17.8 -17.7 L17.85 -15.9 18.1 -13.35 18.2 -11.75 Q18.3 -8.15 18.8 -4.6 L18.95 -3.45 Q19.25 -0.4 19.7 2.55 L20.5 6.9 Q21.1 9.75 22.0 12.4 L22.25 13.15 23.7 17.05 M24.4 17.05 L24.5 11.75 24.55 10.8 24.8 5.55 25.45 0.25 25.65 -1.15 M24.4 17.05 L24.4 18.2 24.5 20.95 25.5 30.6 25.65 31.75 26.0 35.2 26.1 36.35 26.2 37.5 Q26.25 40.1 26.65 42.6 L26.85 43.45 27.05 44.65 Q27.1 45.55 27.55 45.35 L27.6 45.35 27.7 46.25 27.9 46.6 29.65 48.15 Q32.1 50.55 35.45 50.85 L35.3 49.65 34.55 48.25 Q32.8 45.55 32.7 42.35 33.45 44.25 35.1 45.65 L37.15 47.25 40.25 49.55 43.35 51.95 45.1 53.4 42.3 47.65 Q40.35 43.6 39.85 39.15 42.95 44.25 47.95 47.8 48.35 48.1 48.85 48.25 L50.15 48.7 51.4 49.2 52.2 49.55 52.95 49.9 Q55.4 51.15 58.25 51.1 L56.4 48.8 55.8 47.8 54.35 45.35 Q52.1 41.9 50.65 38.0 L50.05 36.1 48.35 28.55 Q47.4 24.1 46.95 19.55 L46.8 17.05 46.45 8.05 46.3 5.05 45.8 -2.55 45.65 -4.35 45.0 -14.05 43.65 -23.7 41.5 -33.15 41.1 -34.25 40.0 -37.75 39.25 -40.0 37.55 -43.75 Q35.75 -48.0 33.2 -51.8 L32.5 -53.0 31.05 -55.65 26.55 -61.95 25.75 -63.35 Q25.45 -64.15 24.65 -64.3 L24.2 -64.35 20.25 -64.0 M31.1 -25.55 L31.3 -26.25 M31.1 -25.55 Q31.6 -23.8 32.35 -22.25 L32.55 -21.65 32.6 -21.4 32.85 -19.35 Q32.9 -17.05 32.35 -14.95 31.25 -10.4 29.8 -6.15 29.5 -5.4 28.8 -5.05 28.6 -0.65 29.0 3.7 M28.8 -5.05 L28.85 -5.75 28.9 -7.35 28.9 -9.2 Q28.85 -11.75 29.15 -14.25 29.7 -19.15 30.7 -23.95 L31.1 -25.55 M-43.75 -7.35 L-43.8 -7.05 -43.8 -7.0 -43.8 -6.9 -43.8 -6.2 -43.9 -4.15 -44.85 3.0 Q-45.45 7.9 -47.0 12.65 L-47.55 14.55 -49.75 23.45 Q-50.75 27.45 -52.2 31.3 L-52.8 32.85 -54.05 35.25 -54.8 36.6 Q-56.95 40.5 -59.9 43.65 L-60.25 44.0 -61.0 44.65 -59.75 44.35 -52.25 43.2 -50.9 42.95 -49.45 42.4 -47.7 41.75 -46.2 41.3 Q-45.2 41.0 -44.2 40.25 -45.95 43.35 -48.5 45.6 -49.45 46.45 -50.4 46.9 L-51.1 47.15 -50.4 47.2 Q-43.4 47.45 -36.55 45.2 L-34.8 44.55 Q-32.75 43.85 -30.9 42.7 L-30.1 42.2 -29.5 41.8 Q-29.45 42.9 -30.3 44.0 L-33.25 47.8 -33.85 48.3 Q-29.9 47.95 -26.25 46.05 L-24.85 45.3 Q-22.8 44.25 -21.8 42.6 L-21.6 42.35 -21.55 42.6 -21.55 42.65 -22.05 43.75 -22.5 44.65 Q-23.0 45.8 -23.95 46.25 L-23.0 46.3 Q-21.2 45.55 -19.6 44.55 L-18.85 43.95 -18.65 43.7 -18.5 43.05 -18.35 42.1 -18.05 40.05 -17.45 37.05 -17.05 35.2 -17.0 34.75 M-17.75 34.7 Q-20.2 35.0 -21.8 33.2 -23.65 31.1 -24.7 28.55 L-31.05 13.4 -34.45 5.0 Q-37.6 -2.9 -35.85 -11.05 -35.55 -12.45 -35.65 -13.9 L-36.1 -20.1" fill="none" stroke="#000000" stroke-linecap="round" stroke-linejoin="round" stroke-width="2.0"/>
    </g>
    </g>
  </g>
  <defs>
    <radialGradient cx="0" cy="0" gradientTransform="matrix(0.0481, 0.1394, -0.165, 0.0569, -7.5, -60.5)" gradientUnits="userSpaceOnUse" id="gradient0" r="819.2" spreadMethod="pad">
      <stop offset="0.0" stop-color="#eeedbb"/>
      <stop offset="0.17254901960784313" stop-color="#ffffc8"/>
      <stop offset="0.3176470588235294" stop-color="#ffffff"/>
      <stop offset="0.38823529411764707" stop-color="#ffffc8"/>
      <stop offset="0.6549019607843137" stop-color="#ffffff"/>
      <stop offset="1.0" stop-color="#ededb6"/>
    </radialGradient>
  </defs>
</svg>