<svg xmlns:xlink="http://www.w3.org/1999/xlink" xmlns="http://www.w3.org/2000/svg" height="202.2px" width="161.9px">
  <g transform="matrix(1.0, 0.0, 0.0, 1.0, 74.15, 81.7)">
    <g data-characterId="1374" height="160.0" transform="matrix(1.0, 0.0, 0.0, 1.0, -51.0, -73.7)" width="107.3" xlink:href="#shape0"><g id="shape0" transform="matrix(1.0, 0.0, 0.0, 1.0, 51.0, 73.7)">
      <path d="M34.25 -48.5 Q32.4 -52.05 30.7 -55.75 28.9 -59.65 26.4 -63.2 23.9 -66.7 20.3 -69.05 L18.4 -70.0 16.55 -70.7 Q14.5 -71.45 12.5 -70.75 14.5 -71.45 16.55 -70.7 L18.4 -70.0 20.3 -69.05 Q23.9 -66.7 26.4 -63.2 28.9 -59.65 30.7 -55.75 32.4 -52.05 34.25 -48.5 M2.5 -70.25 L1.5 -69.7 Q-0.25 -68.6 -1.25 -67.0 -0.25 -68.6 1.5 -69.7 L2.5 -70.25 M0.0 -70.5 Q2.8 -72.95 6.2 -73.15 L6.75 -72.95 7.1 -72.5 Q17.25 -72.95 20.8 -70.85 L28.75 -66.4 Q32.8 -64.3 40.65 -44.85 48.5 -25.45 46.75 -9.6 45.0 6.2 45.35 20.1 45.7 33.95 47.05 40.35 48.4 46.7 48.7 47.45 L52.25 56.45 52.9 59.2 53.65 62.05 56.3 70.15 Q55.4 70.35 54.7 69.75 L53.4 68.6 52.85 68.15 51.4 67.0 Q45.3 62.45 42.5 55.5 43.0 61.15 44.15 66.75 46.1 76.0 50.6 84.35 49.65 83.8 48.7 83.4 L44.5 81.3 Q39.35 78.65 35.55 73.95 32.8 70.5 31.4 66.5 30.3 63.4 30.0 60.0 30.15 63.4 30.45 66.8 31.4 76.95 35.1 86.3 32.2 84.15 30.2 81.6 23.7 73.25 20.95 62.95 19.15 56.3 19.5 49.5 16.2 57.35 16.15 66.1 13.45 59.5 13.15 52.35 12.85 46.3 14.0 40.6 15.95 31.15 18.4 21.55 19.15 18.65 20.8 16.2 23.3 6.2 24.9 1.0 L27.1 -7.3 Q27.7 -10.45 28.15 -11.6 28.6 -12.75 28.85 -15.1 29.05 -17.45 27.6 -21.65 25.25 -23.5 23.8 -18.9 L20.8 -8.55 Q19.2 -2.8 17.9 0.2 L16.5 3.0 Q16.55 1.3 16.75 -0.35 L18.7 -16.45 Q19.6 -23.45 18.5 -30.5 L15.15 -13.75 13.75 -17.75 12.65 -20.55 Q9.35 -28.9 8.5 -38.0 7.6 -34.3 7.35 -30.5 7.15 -27.35 7.4 -24.25 7.7 -21.05 8.5 -17.95 5.6 -23.3 4.15 -29.25 2.1 -37.75 2.5 -46.5 1.9 -45.15 1.45 -43.8 0.8 -41.7 0.65 -39.55 0.1 -31.85 1.0 -24.15 1.4 -20.8 2.05 -17.4 L-1.3 -23.85 Q-2.7 -26.7 -3.6 -29.65 -6.1 -37.75 -7.6 -46.0 -9.3 -37.6 -7.7 -29.1 L-11.35 -46.0 -11.7 -47.55 -12.0 -49.0 Q-23.4 -48.7 -27.75 -39.3 L-30.25 -34.05 -31.3 -31.2 -32.5 -26.5 -32.05 -39.4 Q-35.05 -35.65 -35.35 -30.6 L-36.15 -21.9 -36.55 -17.65 -36.55 -17.25 -37.1 -11.5 -37.05 -7.95 Q-36.6 1.5 -33.35 10.6 -30.8 17.8 -27.65 24.8 L-24.75 30.6 Q-22.45 34.8 -17.7 34.75 L-19.0 46.5 -19.2 46.6 Q-23.05 48.7 -27.45 50.7 -37.75 54.15 -51.0 54.75 -47.35 47.6 -46.05 44.4 -44.8 41.15 -43.65 33.5 -42.6 25.85 -42.45 16.0 -42.3 6.15 -43.45 -0.7 -44.65 -7.6 -45.0 -15.0 -45.4 -22.45 -44.7 -31.3 -44.0 -40.15 -42.0 -44.55 -40.05 -48.95 -36.8 -54.55 -33.6 -60.2 -29.1 -64.7 L-28.65 -65.15 Q-29.0 -64.5 -29.5 -64.0 -32.9 -60.5 -35.45 -56.5 -38.05 -52.45 -39.7 -48.0 L-40.55 -45.5 -41.4 -42.25 -42.8 -36.0 Q-43.9 -31.6 -44.0 -27.0 -44.0 -26.35 -44.15 -25.8 L-44.4 -23.0 -44.35 -22.0 -44.4 -20.75 -44.3 -16.75 -44.1 -15.3 Q-43.8 -14.05 -43.8 -12.75 L-43.65 -9.0 -43.35 -7.55 Q-42.8 -5.95 -42.95 -4.25 L-42.85 -3.05 -41.95 2.0 Q-41.35 6.75 -41.05 11.5 L-40.8 13.2 Q-40.25 15.65 -40.4 18.25 L-40.4 21.0 Q-40.2 23.4 -40.5 25.75 L-40.75 28.0 Q-41.15 32.95 -42.25 37.75 -43.25 42.2 -45.75 46.0 L-46.65 48.1 Q-47.15 50.25 -48.75 51.5 -47.15 50.25 -46.65 48.1 L-45.75 46.0 Q-43.25 42.2 -42.25 37.75 -41.15 32.95 -40.75 28.0 L-40.5 25.75 Q-40.2 23.4 -40.4 21.0 L-40.4 18.25 Q-40.25 15.65 -40.8 13.2 L-41.05 11.5 Q-41.35 6.75 -41.95 2.0 L-42.85 -3.05 -42.95 -4.25 Q-42.8 -5.95 -43.35 -7.55 L-43.65 -9.0 -43.8 -12.75 Q-43.8 -14.05 -44.1 -15.3 L-44.3 -16.75 -44.4 -20.75 -44.35 -22.0 -44.4 -23.0 -44.15 -25.8 Q-44.0 -26.35 -44.0 -27.0 -43.9 -31.6 -42.8 -36.0 L-41.4 -42.25 -40.55 -45.5 -39.7 -48.0 Q-38.05 -52.45 -35.45 -56.5 -32.9 -60.5 -29.5 -64.0 -29.0 -64.5 -28.65 -65.15 -24.2 -69.35 -16.25 -72.1 L-12.05 -73.25 Q-5.5 -74.9 -0.5 -70.5 L0.0 -70.5 M30.65 -43.8 Q29.7 -47.9 28.15 -51.85 26.9 -55.0 24.95 -57.8 L22.55 -61.45 Q22.0 -62.3 21.25 -61.75 22.0 -62.3 22.55 -61.45 L24.95 -57.8 Q26.9 -55.0 28.15 -51.85 29.7 -47.9 30.65 -43.8 33.0 -39.8 34.55 -35.35 L36.45 -29.45 34.55 -35.35 Q33.0 -39.8 30.65 -43.8 L30.65 -43.7 Q31.5 -39.85 31.85 -36.0 L32.0 -33.25 31.85 -36.0 Q31.5 -39.85 30.65 -43.7 L30.65 -43.8 29.85 -45.1 Q29.0 -46.5 27.5 -47.5 29.0 -46.5 29.85 -45.1 L30.65 -43.8 M36.75 -28.4 L36.45 -29.45 36.75 -28.4 37.95 -24.0 38.5 -21.5 37.95 -24.0 36.75 -28.4 Q38.65 -19.9 37.15 -11.05 36.75 -8.75 35.95 -6.5 L30.3 9.95 Q27.95 16.8 28.0 24.0 27.95 16.8 30.3 9.95 L35.95 -6.5 Q36.75 -8.75 37.15 -11.05 38.65 -19.9 36.75 -28.4 M39.75 -36.25 L38.55 -39.9 37.25 -43.25 38.55 -39.9 39.75 -36.25 M34.9 -40.3 L34.25 -41.5 34.5 -40.75 34.9 -40.3 Q37.55 -35.2 38.35 -29.5 L38.75 -27.25 38.35 -29.5 Q37.55 -35.2 34.9 -40.3 L34.5 -40.75 34.25 -41.5 34.9 -40.3 M22.25 -35.75 L22.7 -33.0 Q23.4 -28.75 23.25 -24.5 23.4 -28.75 22.7 -33.0 L22.25 -35.75 M28.25 -38.75 L28.8 -36.25 Q29.7 -32.2 29.5 -28.0 29.7 -32.2 28.8 -36.25 L28.25 -38.75 M25.0 -38.5 L25.35 -37.0 Q25.9 -31.9 25.0 -27.0 25.9 -31.9 25.35 -37.0 L25.0 -38.5 M18.0 -43.5 L17.1 -45.55 14.0 -53.5 17.1 -45.55 18.0 -43.5 M3.75 -45.25 L4.05 -41.75 4.55 -36.0 Q4.75 -32.05 5.8 -28.25 L6.4 -25.75 Q6.7 -24.65 7.4 -24.25 6.7 -24.65 6.4 -25.75 L5.8 -28.25 Q4.75 -32.05 4.55 -36.0 L4.05 -41.75 3.75 -45.25 M9.5 -45.75 L9.85 -39.75 10.65 -32.75 Q11.15 -29.35 12.0 -26.05 L13.3 -21.45 14.0 -20.15 15.0 -19.5 14.0 -20.15 13.3 -21.45 12.0 -26.05 Q11.15 -29.35 10.65 -32.75 L9.85 -39.75 9.5 -45.75 M19.5 -12.35 Q19.45 -19.25 19.75 -26.0 L19.8 -27.2 19.75 -26.0 Q19.45 -19.25 19.5 -12.35 L19.9 -16.5 Q20.2 -21.15 19.85 -25.75 L19.8 -27.2 19.75 -28.7 19.8 -27.2 19.85 -25.75 Q20.2 -21.15 19.9 -16.5 L19.5 -12.35 19.5 -10.5 19.5 -12.35 19.3 -11.0 Q18.65 -6.2 17.5 -1.5 18.65 -6.2 19.3 -11.0 L19.5 -12.35 M6.0 -55.0 Q5.5 -50.25 5.3 -45.5 5.0 -39.0 5.55 -32.55 5.75 -30.5 6.5 -28.5 5.75 -30.5 5.55 -32.55 5.0 -39.0 5.3 -45.5 5.5 -50.25 6.0 -55.0 M18.5 -37.5 Q18.5 -36.75 18.65 -36.05 L19.3 -32.95 19.75 -28.7 19.3 -32.95 18.65 -36.05 Q18.5 -36.75 18.5 -37.5 M19.0 -37.75 Q19.85 -33.45 19.75 -29.0 L19.75 -28.7 19.75 -29.0 Q19.85 -33.45 19.0 -37.75 M10.5 -40.5 Q10.75 -37.25 11.35 -34.05 L13.35 -23.95 14.0 -20.15 13.35 -23.95 11.35 -34.05 Q10.75 -37.25 10.5 -40.5 M35.0 -21.5 L34.95 -22.5 Q34.0 -29.55 29.5 -35.0 34.0 -29.55 34.95 -22.5 L35.0 -21.5 M33.75 -10.5 L30.1 -1.7 29.4 -0.05 25.75 8.5 Q24.85 10.5 24.2 12.55 24.85 10.5 25.75 8.5 L29.4 -0.05 30.1 -1.7 33.75 -10.5 M40.75 -23.75 L40.7 -19.25 40.3 -12.5 Q40.0 -9.25 39.1 -6.1 L37.15 -0.2 34.8 6.75 32.75 12.65 Q31.0 17.05 30.75 21.75 31.0 17.05 32.75 12.65 L34.8 6.75 37.15 -0.2 39.1 -6.1 Q40.0 -9.25 40.3 -12.5 L40.7 -19.25 40.75 -23.75 M41.75 -36.25 L41.7 -37.0 Q41.4 -38.75 40.5 -40.25 L40.5 -39.25 40.5 -40.25 Q41.4 -38.75 41.7 -37.0 L41.75 -36.25 M22.25 -48.0 L19.25 -53.5 22.25 -48.0 M43.0 -25.25 L43.0 -22.25 43.0 -16.25 43.0 -22.25 43.0 -25.25 M-39.5 -27.0 L-38.5 -11.5 -36.55 -17.25 -38.5 -11.5 -39.5 -27.0 M-25.25 -54.5 L-27.6 -49.65 -29.6 -44.2 -30.9 -39.25 -31.6 -34.5 -31.5 -33.75 -31.6 -34.5 -30.9 -39.25 -29.6 -44.2 -27.6 -49.65 -25.25 -54.5 M-8.0 -70.5 L-12.95 -69.85 Q-14.3 -69.5 -15.6 -68.65 L-19.9 -65.85 -21.1 -65.25 Q-23.5 -64.2 -25.6 -62.1 -27.1 -60.6 -28.05 -60.0 -29.0 -59.45 -32.5 -55.35 -36.0 -51.3 -37.7 -47.8 -39.4 -44.35 -40.05 -40.9 L-41.05 -36.5 Q-42.8 -31.3 -43.1 -25.5 -43.3 -22.25 -42.4 -19.5 -40.95 -14.9 -40.0 -10.2 L-39.9 -9.85 -40.0 -10.2 Q-40.95 -14.9 -42.4 -19.5 -43.3 -22.25 -43.1 -25.5 -42.8 -31.3 -41.05 -36.5 L-40.05 -40.9 Q-39.4 -44.35 -37.7 -47.8 -36.0 -51.3 -32.5 -55.35 -29.0 -59.45 -28.05 -60.0 -27.1 -60.6 -25.6 -62.1 -23.5 -64.2 -21.1 -65.25 L-19.9 -65.85 -15.6 -68.65 Q-14.3 -69.5 -12.95 -69.85 L-8.0 -70.5 M-4.0 -66.0 L-4.3 -65.45 Q-4.55 -64.45 -4.95 -63.75 -5.25 -63.25 -6.0 -62.95 -7.2 -62.5 -7.75 -61.6 L-10.0 -53.0 -7.75 -61.6 Q-7.2 -62.5 -6.0 -62.95 -5.25 -63.25 -4.95 -63.75 -4.55 -64.45 -4.3 -65.45 L-4.0 -66.0 M-0.75 -64.5 L-1.55 -63.55 -1.75 -63.35 -1.55 -63.55 -0.75 -64.5 M-2.0 -60.0 Q-2.45 -57.2 -2.6 -51.0 L-2.6 -36.5 Q-2.45 -30.2 -0.3 -24.3 -2.45 -30.2 -2.6 -36.5 L-2.6 -51.0 Q-2.45 -57.2 -2.0 -60.0 M-7.0 -52.25 L-7.0 -52.0 -6.8 -50.25 -6.4 -46.25 -6.2 -44.25 -5.85 -41.75 Q-5.25 -39.6 -5.05 -37.5 -4.8 -35.0 -4.05 -32.75 L-2.55 -28.7 Q-1.6 -26.35 -0.3 -24.3 -1.6 -26.35 -2.55 -28.7 L-4.05 -32.75 Q-4.8 -35.0 -5.05 -37.5 -5.25 -39.6 -5.85 -41.75 L-6.2 -44.25 -6.4 -46.25 -6.8 -50.25 -7.0 -52.0 -7.0 -52.25 M-11.0 -47.0 L-11.35 -46.0 -11.0 -47.0 M-11.0 -49.1 L-11.5 -48.0 -11.7 -47.55 -11.5 -48.0 -11.0 -49.1 M-20.0 -49.5 L-22.45 -47.7 -24.8 -45.85 Q-25.3 -45.45 -25.25 -45.75 -25.3 -45.45 -24.8 -45.85 L-22.45 -47.7 -20.0 -49.5 M-33.5 -45.0 Q-36.45 -35.95 -37.9 -26.5 -38.45 -22.9 -37.5 -19.5 -38.45 -22.9 -37.9 -26.5 -36.45 -35.95 -33.5 -45.0 M-25.0 -51.0 L-27.75 -46.35 Q-30.35 -41.45 -30.5 -36.0 -30.35 -41.45 -27.75 -46.35 L-25.0 -51.0 M-39.9 -9.85 Q-40.3 -8.9 -39.95 -7.7 -39.5 -6.1 -39.3 -4.5 L-38.4 2.5 Q-38.0 5.65 -37.75 8.75 L-37.3 15.75 Q-37.1 19.75 -37.2 23.75 L-37.5 30.7 -37.2 23.75 Q-37.1 19.75 -37.3 15.75 L-37.75 8.75 Q-38.0 5.65 -38.4 2.5 L-39.3 -4.5 Q-39.5 -6.1 -39.95 -7.7 -40.3 -8.9 -39.9 -9.85 L-39.85 -9.55 -38.1 0.0 -37.75 1.4 Q-36.35 5.0 -35.85 9.0 L-35.65 10.5 Q-34.7 16.35 -35.4 21.9 -36.1 27.4 -37.3 30.2 L-37.5 30.7 -37.3 30.2 Q-36.1 27.4 -35.4 21.9 -34.7 16.35 -35.65 10.5 L-35.85 9.0 Q-36.35 5.0 -37.75 1.4 L-38.1 0.0 -39.85 -9.55 -39.9 -9.85 M-38.0 36.25 L-37.55 31.25 -37.5 30.7 -37.55 31.25 -38.0 36.25 M-21.5 35.0 L-21.7 35.95 -24.0 41.0 -21.7 35.95 -21.5 35.0 M-33.25 26.5 L-33.45 25.25 Q-33.65 22.85 -34.25 20.5 -33.65 22.85 -33.45 25.25 L-33.25 26.5 M-37.5 30.7 Q-38.55 33.3 -38.95 36.45 -39.45 39.9 -47.25 51.0 -39.45 39.9 -38.95 36.45 -38.55 33.3 -37.5 30.7 M-39.25 41.25 L-39.25 41.0 -39.25 40.75 -39.25 41.0 -39.25 41.25 M-30.0 29.0 Q-29.65 31.65 -31.0 36.75 -32.35 41.85 -39.5 50.0 -32.35 41.85 -31.0 36.75 -29.65 31.65 -30.0 29.0 M25.25 14.0 L24.8 16.0 23.35 24.25 22.35 32.25 Q21.85 36.85 21.9 41.5 L22.2 50.0 Q22.4 54.5 23.1 59.0 L23.6 62.5 Q24.2 66.75 25.75 70.75 L27.45 74.65 31.0 81.75 27.45 74.65 25.75 70.75 Q24.2 66.75 23.6 62.5 L23.1 59.0 Q22.4 54.5 22.2 50.0 L21.9 41.5 Q21.85 36.85 22.35 32.25 L23.35 24.25 24.8 16.0 25.25 14.0 M40.0 5.75 Q39.65 7.65 39.45 9.5 39.0 13.75 38.85 18.0 L38.75 25.5 Q38.75 29.4 39.05 33.25 39.25 36.4 39.9 39.45 40.7 43.45 42.0 47.25 43.5 51.45 45.5 55.5 L48.15 60.65 Q50.25 64.55 52.85 68.15 50.25 64.55 48.15 60.65 L45.5 55.5 Q43.5 51.45 42.0 47.25 40.7 43.45 39.9 39.45 39.25 36.4 39.05 33.25 38.75 29.4 38.75 25.5 L38.85 18.0 Q39.0 13.75 39.45 9.5 39.65 7.65 40.0 5.75 M39.25 -5.5 L37.4 1.55 Q36.25 6.15 35.35 10.75 L34.5 15.75 33.5 25.0 Q33.15 29.5 33.2 34.0 33.25 38.4 33.65 42.75 34.0 47.0 34.6 51.25 L36.0 60.0 34.6 51.25 Q34.0 47.0 33.65 42.75 33.25 38.4 33.2 34.0 33.15 29.5 33.5 25.0 L34.5 15.75 35.35 10.75 Q36.25 6.15 37.4 1.55 L39.25 -5.5 M-43.0 50.25 L-42.6 49.7 Q-40.85 46.3 -39.5 42.75 -40.85 46.3 -42.6 49.7 L-43.0 50.25 M15.0 52.0 Q15.3 43.45 17.1 35.0 18.9 26.7 21.4 18.65 22.25 16.0 23.5 13.5 L24.2 12.55 23.5 13.5 Q22.25 16.0 21.4 18.65 18.9 26.7 17.1 35.0 15.3 43.45 15.0 52.0 M24.2 12.55 L24.05 13.0 Q22.85 17.1 21.25 21.0 19.45 25.35 18.75 30.0 L18.15 33.0 Q17.05 37.55 16.5 42.25 L15.85 46.5 Q15.15 50.85 15.25 55.25 15.15 50.85 15.85 46.5 L16.5 42.25 Q17.05 37.55 18.15 33.0 L18.75 30.0 Q19.45 25.35 21.25 21.0 22.85 17.1 24.05 13.0 L24.2 12.55 M26.0 29.5 Q25.4 30.3 25.1 32.0 23.85 39.95 24.9 48.0 L26.6 61.5 Q27.25 67.0 28.5 72.4 29.25 75.5 30.5 78.5 29.25 75.5 28.5 72.4 27.25 67.0 26.6 61.5 L24.9 48.0 Q23.85 39.95 25.1 32.0 25.4 30.3 26.0 29.5 M28.25 31.75 L28.15 36.0 Q28.15 40.25 28.55 44.45 L29.45 51.0 Q30.3 55.7 31.8 60.25 33.3 64.65 35.55 68.7 L38.75 73.85 43.25 80.25 38.75 73.85 35.55 68.7 Q33.3 64.65 31.8 60.25 30.3 55.7 29.45 51.0 L28.55 44.45 Q28.15 40.25 28.15 36.0 L28.25 31.75 M32.0 22.0 Q31.75 23.5 31.65 25.0 31.25 31.25 31.6 37.45 32.0 45.25 33.65 52.85 35.0 59.25 37.25 65.4 39.85 72.4 45.5 77.0 39.85 72.4 37.25 65.4 35.0 59.25 33.65 52.85 32.0 45.25 31.6 37.45 31.25 31.25 31.65 25.0 31.75 23.5 32.0 22.0 M36.5 62.0 L36.5 61.75 36.5 61.25 36.5 61.75 36.5 62.0 M-0.3 -24.3 L0.0 -23.5 -0.3 -24.3" fill="url(#gradient0)" fill-rule="evenodd" stroke="none"/>
      <path d="M30.65 -43.8 Q33.0 -39.8 34.55 -35.35 L36.45 -29.45 M36.75 -28.4 L37.95 -24.0 38.5 -21.5 M30.65 -43.8 L29.85 -45.1 Q29.0 -46.5 27.5 -47.5 M25.0 -27.0 Q25.9 -31.9 25.35 -37.0 L25.0 -38.5 M6.5 -28.5 Q5.75 -30.5 5.55 -32.55 5.0 -39.0 5.3 -45.5 5.5 -50.25 6.0 -55.0 M19.8 -27.2 L19.75 -26.0 Q19.45 -19.25 19.5 -12.35 L19.5 -10.5 M19.75 -28.7 L19.3 -32.95 18.65 -36.05 Q18.5 -36.75 18.5 -37.5 M14.0 -20.15 L13.35 -23.95 11.35 -34.05 Q10.75 -37.25 10.5 -40.5 M29.5 -35.0 Q34.0 -29.55 34.95 -22.5 L35.0 -21.5 M-39.9 -9.85 L-40.0 -10.2 Q-40.95 -14.9 -42.4 -19.5 -43.3 -22.25 -43.1 -25.5 -42.8 -31.3 -41.05 -36.5 L-40.05 -40.9 Q-39.4 -44.35 -37.7 -47.8 -36.0 -51.3 -32.5 -55.35 -29.0 -59.45 -28.05 -60.0 -27.1 -60.6 -25.6 -62.1 -23.5 -64.2 -21.1 -65.25 L-19.9 -65.85 -15.6 -68.65 Q-14.3 -69.5 -12.95 -69.85 L-8.0 -70.5 M-0.3 -24.3 Q-2.45 -30.2 -2.6 -36.5 L-2.6 -51.0 Q-2.45 -57.2 -2.0 -60.0 M-30.5 -36.0 Q-30.35 -41.45 -27.75 -46.35 L-25.0 -51.0 M-37.5 -19.5 Q-38.45 -22.9 -37.9 -26.5 -36.45 -35.95 -33.5 -45.0 M-39.9 -9.85 L-39.85 -9.55 -38.1 0.0 -37.75 1.4 Q-36.35 5.0 -35.85 9.0 L-35.65 10.5 Q-34.7 16.35 -35.4 21.9 -36.1 27.4 -37.3 30.2 L-37.5 30.7 Q-38.55 33.3 -38.95 36.45 -39.45 39.9 -47.25 51.0 M-24.0 41.0 L-21.7 35.95 -21.5 35.0 M-39.5 50.0 Q-32.35 41.85 -31.0 36.75 -29.65 31.65 -30.0 29.0 M24.2 12.55 L23.5 13.5 Q22.25 16.0 21.4 18.65 18.9 26.7 17.1 35.0 15.3 43.45 15.0 52.0 M30.5 78.5 Q29.25 75.5 28.5 72.4 27.25 67.0 26.6 61.5 L24.9 48.0 Q23.85 39.95 25.1 32.0 25.4 30.3 26.0 29.5 M45.5 77.0 Q39.85 72.4 37.25 65.4 35.0 59.25 33.65 52.85 32.0 45.25 31.6 37.45 31.25 31.25 31.65 25.0 31.75 23.5 32.0 22.0 M0.0 -23.5 L-0.3 -24.3" fill="none" stroke="#3a01d3" stroke-linecap="round" stroke-linejoin="round" stroke-width="1.5"/>
      <path d="M0.0 -70.5 Q2.8 -72.95 6.2 -73.15 L6.75 -72.95 7.1 -72.5 Q17.25 -72.95 20.8 -70.85 L28.75 -66.4 Q32.8 -64.3 40.65 -44.85 48.5 -25.45 46.75 -9.6 45.0 6.2 45.35 20.1 45.7 33.95 47.05 40.35 48.4 46.7 48.7 47.45 L52.25 56.45 52.9 59.2 53.65 62.05 56.3 70.15 Q55.4 70.35 54.7 69.75 L53.4 68.6 M52.85 68.15 L51.4 67.0 Q45.3 62.45 42.5 55.5 43.0 61.15 44.15 66.75 46.1 76.0 50.6 84.35 L51.0 85.0 M36.45 -29.45 L36.75 -28.4 Q38.65 -19.9 37.15 -11.05 36.75 -8.75 35.95 -6.5 L30.3 9.95 Q27.95 16.8 28.0 24.0 M50.6 84.35 Q49.65 83.8 48.7 83.4 L44.5 81.3 Q39.35 78.65 35.55 73.95 32.8 70.5 31.4 66.5 30.3 63.4 30.0 60.0 30.15 63.4 30.45 66.8 31.4 76.95 35.1 86.3 32.2 84.15 30.2 81.6 23.7 73.25 20.95 62.95 19.15 56.3 19.5 49.5 16.2 57.35 16.15 66.1 13.45 59.5 13.15 52.35 12.85 46.3 14.0 40.6 15.95 31.15 18.4 21.55 19.15 18.65 20.8 16.2 23.3 6.2 24.9 1.0 L27.1 -7.3 Q27.7 -10.45 28.15 -11.6 28.6 -12.75 28.85 -15.1 29.05 -17.45 27.6 -21.65 25.25 -23.5 23.8 -18.9 L20.8 -8.55 Q19.2 -2.8 17.9 0.2 L16.5 3.0 Q16.55 1.3 16.75 -0.35 L18.7 -16.45 Q19.6 -23.45 18.5 -30.5 L15.15 -13.75 13.75 -17.75 12.65 -20.55 Q9.35 -28.9 8.5 -38.0 7.6 -34.3 7.35 -30.5 7.15 -27.35 7.4 -24.25 7.7 -21.05 8.5 -17.95 5.6 -23.3 4.15 -29.25 2.1 -37.75 2.5 -46.5 1.9 -45.15 1.45 -43.8 0.8 -41.7 0.65 -39.55 0.1 -31.85 1.0 -24.15 1.4 -20.8 2.05 -17.4 L-1.3 -23.85 Q-2.7 -26.7 -3.6 -29.65 -6.1 -37.75 -7.6 -46.0 -9.3 -37.6 -7.7 -29.1 L-7.5 -28.0 M-28.65 -65.15 L-29.1 -64.7 Q-33.6 -60.2 -36.8 -54.55 -40.05 -48.95 -42.0 -44.55 -44.0 -40.15 -44.7 -31.3 -45.4 -22.45 -45.0 -15.0 -44.65 -7.6 -43.45 -0.7 -42.3 6.15 -42.45 16.0 -42.6 25.85 -43.65 33.5 -44.8 41.15 -46.05 44.4 -47.35 47.6 -51.0 54.75 -37.75 54.15 -27.45 50.7 -23.05 48.7 -19.2 46.6 L-19.0 46.5 -17.7 34.75 M-36.55 -17.25 L-38.5 -11.5 -39.5 -27.0 M-10.0 -53.0 L-7.75 -61.6 Q-7.2 -62.5 -6.0 -62.95 -5.25 -63.25 -4.95 -63.75 -4.55 -64.45 -4.3 -65.45 L-4.0 -66.0 M-28.65 -65.15 Q-24.2 -69.35 -16.25 -72.1 L-12.05 -73.25 Q-5.5 -74.9 -0.5 -70.5 M-11.7 -47.55 L-12.15 -46.45 Q-13.8 -42.05 -15.0 -37.5 M-11.35 -46.0 Q-12.65 -42.15 -12.7 -38.0 L-12.5 -32.75 -12.0 -30.25 M-11.7 -47.55 L-11.35 -46.0 -11.0 -47.0 M-36.55 -17.25 L-36.55 -17.65 -36.15 -21.9 -35.35 -30.6 Q-35.05 -35.65 -32.05 -39.4 L-32.5 -26.5 -31.3 -31.2 -30.25 -34.05 -27.75 -39.3 Q-23.4 -48.7 -12.0 -49.0 L-11.7 -47.55 -11.5 -48.0 -11.0 -49.1 M-7.7 -29.1 L-11.35 -46.0" fill="none" stroke="#000000" stroke-linecap="round" stroke-linejoin="round" stroke-width="1.5"/>
      <path d="M-17.7 34.75 Q-22.45 34.8 -24.75 30.6 L-27.65 24.8 Q-30.8 17.8 -33.35 10.6 -36.6 1.5 -37.05 -7.95 L-37.1 -11.5 -36.55 -17.25" fill="none" stroke="#000000" stroke-linecap="round" stroke-linejoin="round" stroke-width="1.5"/>
      <path d="M53.4 68.6 L52.85 68.15 M30.65 -43.8 L30.65 -43.7 Q31.5 -39.85 31.85 -36.0 L32.0 -33.25 M38.75 -27.25 L38.35 -29.5 Q37.55 -35.2 34.9 -40.3 L34.5 -40.75 34.25 -41.5 34.9 -40.3 M37.25 -43.25 L38.55 -39.9 39.75 -36.25 M29.5 -28.0 Q29.7 -32.2 28.8 -36.25 L28.25 -38.75 M23.25 -24.5 Q23.4 -28.75 22.7 -33.0 L22.25 -35.75 M15.0 -19.5 L14.0 -20.15 13.3 -21.45 12.0 -26.05 Q11.15 -29.35 10.65 -32.75 L9.85 -39.75 9.5 -45.75 M7.4 -24.25 Q6.7 -24.65 6.4 -25.75 L5.8 -28.25 Q4.75 -32.05 4.55 -36.0 L4.05 -41.75 3.75 -45.25 M19.5 -12.35 L19.9 -16.5 Q20.2 -21.15 19.85 -25.75 L19.8 -27.2 19.75 -28.7 19.75 -29.0 Q19.85 -33.45 19.0 -37.75 M19.5 -12.35 L19.3 -11.0 Q18.65 -6.2 17.5 -1.5 M24.2 12.55 Q24.85 10.5 25.75 8.5 L29.4 -0.05 30.1 -1.7 33.75 -10.5 M40.5 -39.25 L40.5 -40.25 Q41.4 -38.75 41.7 -37.0 L41.75 -36.25 M-0.3 -24.3 Q-1.6 -26.35 -2.55 -28.7 L-4.05 -32.75 Q-4.8 -35.0 -5.05 -37.5 -5.25 -39.6 -5.85 -41.75 L-6.2 -44.25 -6.4 -46.25 -6.8 -50.25 -7.0 -52.0 -7.0 -52.25 M15.25 55.25 Q15.15 50.85 15.85 46.5 L16.5 42.25 Q17.05 37.55 18.15 33.0 L18.75 30.0 Q19.45 25.35 21.25 21.0 22.85 17.1 24.05 13.0 L24.2 12.55" fill="none" stroke="#b6a5fe" stroke-linecap="round" stroke-linejoin="round" stroke-width="1.5"/>
      <path d="M-1.25 -67.0 Q-0.25 -68.6 1.5 -69.7 L2.5 -70.25 M12.5 -70.75 Q14.5 -71.45 16.55 -70.7 L18.4 -70.0 20.3 -69.05 Q23.9 -66.7 26.4 -63.2 28.9 -59.65 30.7 -55.75 32.4 -52.05 34.25 -48.5 M21.25 -61.75 Q22.0 -62.3 22.55 -61.45 L24.95 -57.8 Q26.9 -55.0 28.15 -51.85 29.7 -47.9 30.65 -43.8 M14.0 -53.5 L17.1 -45.55 18.0 -43.5 M30.75 21.75 Q31.0 17.05 32.75 12.65 L34.8 6.75 37.15 -0.2 39.1 -6.1 Q40.0 -9.25 40.3 -12.5 L40.7 -19.25 40.75 -23.75 M43.0 -16.25 L43.0 -22.25 43.0 -25.25 M19.25 -53.5 L22.25 -48.0 M-48.75 51.5 Q-47.15 50.25 -46.65 48.1 L-45.75 46.0 Q-43.25 42.2 -42.25 37.75 -41.15 32.95 -40.75 28.0 L-40.5 25.75 Q-40.2 23.4 -40.4 21.0 L-40.4 18.25 Q-40.25 15.65 -40.8 13.2 L-41.05 11.5 Q-41.35 6.75 -41.95 2.0 L-42.85 -3.05 -42.95 -4.25 Q-42.8 -5.95 -43.35 -7.55 L-43.65 -9.0 -43.8 -12.75 Q-43.8 -14.05 -44.1 -15.3 L-44.3 -16.75 -44.4 -20.75 -44.35 -22.0 -44.4 -23.0 -44.15 -25.8 Q-44.0 -26.35 -44.0 -27.0 -43.9 -31.6 -42.8 -36.0 L-41.4 -42.25 -40.55 -45.5 -39.7 -48.0 Q-38.05 -52.45 -35.45 -56.5 -32.9 -60.5 -29.5 -64.0 -29.0 -64.5 -28.65 -65.15 M-31.5 -33.75 L-31.6 -34.5 -30.9 -39.25 -29.6 -44.2 -27.6 -49.65 -25.25 -54.5 M-1.75 -63.35 L-1.55 -63.55 -0.75 -64.5 M-25.25 -45.75 Q-25.3 -45.45 -24.8 -45.85 L-22.45 -47.7 -20.0 -49.5 M-37.5 30.7 L-37.2 23.75 Q-37.1 19.75 -37.3 15.75 L-37.75 8.75 Q-38.0 5.65 -38.4 2.5 L-39.3 -4.5 Q-39.5 -6.1 -39.95 -7.7 -40.3 -8.9 -39.9 -9.85 M-37.5 30.7 L-37.55 31.25 -38.0 36.25 M-34.25 20.5 Q-33.65 22.85 -33.45 25.25 L-33.25 26.5 M-39.25 40.75 L-39.25 41.0 -39.25 41.25 M-39.5 42.75 Q-40.85 46.3 -42.6 49.7 L-43.0 50.25 M36.0 60.0 L34.6 51.25 Q34.0 47.0 33.65 42.75 33.25 38.4 33.2 34.0 33.15 29.5 33.5 25.0 L34.5 15.75 35.35 10.75 Q36.25 6.15 37.4 1.55 L39.25 -5.5 M52.85 68.15 Q50.25 64.55 48.15 60.65 L45.5 55.5 Q43.5 51.45 42.0 47.25 40.7 43.45 39.9 39.45 39.25 36.4 39.05 33.25 38.75 29.4 38.75 25.5 L38.85 18.0 Q39.0 13.75 39.45 9.5 39.65 7.65 40.0 5.75 M31.0 81.75 L27.45 74.65 25.75 70.75 Q24.2 66.75 23.6 62.5 L23.1 59.0 Q22.4 54.5 22.2 50.0 L21.9 41.5 Q21.85 36.85 22.35 32.25 L23.35 24.25 24.8 16.0 25.25 14.0 M43.25 80.25 L38.75 73.85 35.55 68.7 Q33.3 64.65 31.8 60.25 30.3 55.7 29.45 51.0 L28.55 44.45 Q28.15 40.25 28.15 36.0 L28.25 31.75 M36.5 61.25 L36.5 61.75 36.5 62.0" fill="none" stroke="#614bfc" stroke-linecap="round" stroke-linejoin="round" stroke-width="1.5"/>
    </g>
    </g>
  </g>
  <defs>
    <radialGradient cx="0" cy="0" gradientTransform="matrix(-0.0041, 0.0719, -0.1251, -0.0071, -2.0, -60.0)" gradientUnits="userSpaceOnUse" id="gradient0" r="819.2" spreadMethod="pad">
      <stop offset="0.0" stop-color="#330099"/>
      <stop offset="0.3843137254901961" stop-color="#6948c1"/>
      <stop offset="0.5372549019607843" stop-color="#bcb1eb"/>
      <stop offset="0.6862745098039216" stop-color="#6543c0"/>
      <stop offset="1.0" stop-color="#330099"/>
    </radialGradient>
  </defs>
</svg>