<svg xmlns:xlink="http://www.w3.org/1999/xlink" xmlns="http://www.w3.org/2000/svg" height="98.75px" width="161.15px">
  <g transform="matrix(1.0, 0.0, 0.0, 1.0, 83.0, 71.7)">
    <g data-characterId="1245" height="51.0" transform="matrix(1.0, 0.0, 0.0, 1.0, -55.8, -29.0)" width="106.5" xlink:href="#shape0"><g id="shape0" transform="matrix(1.0, 0.0, 0.0, 1.0, 55.8, 29.0)">
      <path d="M-25.0 -19.0 Q-22.85 -9.45 -16.2 -2.4 L-13.15 0.45 1.5 11.5 2.3 12.3 2.3 12.25 2.4 12.15 Q5.4 8.45 7.4 4.1 9.8 -0.95 13.85 -4.9 L20.0 -11.0 Q25.4 -16.3 29.65 -22.6 L35.4 -18.5 35.95 -17.55 37.95 -17.4 Q38.75 -16.95 39.65 -16.55 L40.55 -16.15 41.5 -16.0 43.2 -15.95 44.9 -15.8 48.35 -15.05 49.6 -10.65 Q50.8 -5.3 49.65 0.2 48.95 3.5 48.65 6.9 L48.0 8.85 Q46.2 11.95 42.5 12.4 L30.75 13.65 20.15 14.75 9.65 15.9 -2.8 17.35 -17.5 18.45 -35.5 17.25 Q-43.85 16.9 -52.2 14.55 -54.85 13.7 -54.95 10.95 L-55.3 -8.9 Q-55.3 -9.95 -54.7 -10.75 -53.15 -12.9 -50.65 -13.45 L-37.55 -16.75 -32.3 -17.25 Q-28.4 -17.25 -25.0 -19.0 M33.5 7.0 L34.45 5.8 Q38.3 0.85 39.0 -5.5 38.3 0.85 34.45 5.8 L33.5 7.0 M2.3 12.3 Q0.0 15.05 -2.8 17.35 0.0 15.05 2.3 12.3 M-38.5 10.5 L-40.1 8.25 Q-45.25 0.45 -48.0 -8.5 -45.25 0.45 -40.1 8.25 L-38.5 10.5" fill="#333333" fill-rule="evenodd" stroke="none"/>
      <path d="M26.5 -26.0 L26.85 -26.85 26.5 -26.0 M-25.0 -19.0 L-20.85 -21.3 -22.55 -23.6 -21.95 -25.25 Q-19.4 -25.5 -17.2 -23.85 -15.55 -22.65 -13.6 -21.9 -10.55 -20.7 -7.4 -20.6 L2.6 -20.2 Q12.05 -20.6 20.45 -25.15 L22.6 -26.55 Q24.85 -28.35 27.5 -28.5 L26.85 -26.85 28.35 -25.0 29.65 -22.6 Q25.4 -16.3 20.0 -11.0 L13.85 -4.9 Q9.8 -0.95 7.4 4.1 5.4 8.45 2.4 12.15 L1.5 11.5 -13.15 0.45 -16.2 -2.4 Q-22.85 -9.45 -25.0 -19.0 M-7.5 -17.5 L-3.0 -16.3 Q0.9 -15.0 4.85 -14.65 8.9 -14.5 12.75 -15.8 L15.25 -16.6 Q22.15 -18.6 26.5 -24.0 22.15 -18.6 15.25 -16.6 L12.75 -15.8 Q8.9 -14.5 4.85 -14.65 0.9 -15.0 -3.0 -16.3 L-7.5 -17.5 M-5.0 -12.0 L-6.2 -12.3 -8.55 -12.95 Q-15.3 -14.95 -21.0 -19.0 -15.3 -14.95 -8.55 -12.95 L-6.2 -12.3 -5.0 -12.0 M-6.95 -9.6 L-10.5 -10.5 -6.95 -9.6" fill="#252525" fill-rule="evenodd" stroke="none"/>
      <path d="M26.85 -26.85 L26.5 -26.0 M29.65 -22.6 L28.35 -25.0 26.85 -26.85 27.5 -28.5 Q24.85 -28.35 22.6 -26.55 L20.45 -25.15 Q12.05 -20.6 2.6 -20.2 L-7.4 -20.6 Q-10.55 -20.7 -13.6 -21.9 -15.55 -22.65 -17.2 -23.85 -19.4 -25.5 -21.95 -25.25 L-22.55 -23.6 -20.85 -21.3 -25.0 -19.0 Q-22.85 -9.45 -16.2 -2.4 L-13.15 0.45 1.5 11.5 M2.4 12.15 Q5.4 8.45 7.4 4.1 9.8 -0.95 13.85 -4.9 L20.0 -11.0 Q25.4 -16.3 29.65 -22.6 L35.4 -18.5 35.95 -17.55 37.95 -17.4 Q38.75 -16.95 39.65 -16.55 L40.55 -16.15 41.5 -16.0 43.2 -15.95 44.9 -15.8 48.35 -15.05 49.6 -10.65 Q50.8 -5.3 49.65 0.2 48.95 3.5 48.65 6.9 L48.0 8.85 Q46.2 11.95 42.5 12.4 L30.75 13.65 20.15 14.75 9.65 15.9 -2.8 17.35 -9.0 21.5 M26.5 -24.0 Q22.15 -18.6 15.25 -16.6 L12.75 -15.8 Q8.9 -14.5 4.85 -14.65 0.9 -15.0 -3.0 -16.3 L-7.5 -17.5 M39.0 -5.5 Q38.3 0.85 34.45 5.8 L33.5 7.0 M2.3 12.3 L2.3 12.25 2.4 12.15 M-25.0 -19.0 Q-28.4 -17.25 -32.3 -17.25 L-37.55 -16.75 -50.65 -13.45 Q-53.15 -12.9 -54.7 -10.75 -55.3 -9.95 -55.3 -8.9 L-54.95 10.95 Q-54.85 13.7 -52.2 14.55 -43.85 16.9 -35.5 17.25 L-17.5 18.45 -2.8 17.35 Q0.0 15.05 2.3 12.3 M-10.5 -10.5 L-6.95 -9.6 M-21.0 -19.0 Q-15.3 -14.95 -8.55 -12.95 L-6.2 -12.3 -5.0 -12.0 M-48.0 -8.5 Q-45.25 0.45 -40.1 8.25 L-38.5 10.5" fill="none" stroke="#000000" stroke-linecap="round" stroke-linejoin="round" stroke-width="2.0"/>
    </g>
  </g>
  </g>
  <defs>
    </defs>
</svg>