<svg xmlns:xlink="http://www.w3.org/1999/xlink" xmlns="http://www.w3.org/2000/svg" height="202.2px" width="161.9px">
  <g transform="matrix(1.0, 0.0, 0.0, 1.0, 74.15, 81.7)">
    <g data-characterId="1410" height="151.2" transform="matrix(1.0, 0.0, 0.0, 1.0, -52.35, -75.1)" width="112.5" xlink:href="#shape0"><g id="shape0" transform="matrix(1.0, 0.0, 0.0, 1.0, 52.35, 75.1)">
      <path d="M-38.75 64.5 Q-39.7 63.45 -40.85 62.65 -42.45 61.55 -43.65 60.05 -45.1 58.3 -46.1 56.3 L-47.95 52.0 Q-49.45 47.45 -49.45 42.75 -49.5 37.8 -48.25 33.0 L-46.4 25.85 Q-45.55 22.7 -45.6 19.25 -45.7 14.75 -46.3 10.3 -46.75 6.75 -47.5 3.25 L-49.05 -3.25 -51.2 -12.05 Q-51.8 -14.5 -51.85 -16.95 -51.95 -21.25 -51.5 -25.5 -51.05 -30.2 -49.85 -34.8 -48.8 -38.95 -47.2 -42.85 -46.3 -45.15 -45.0 -47.25 -42.75 -50.9 -39.8 -54.1 L-34.85 -58.8 -29.3 -63.05 -23.3 -66.9 Q-19.25 -69.4 -14.65 -71.3 L-7.2 -73.5 -2.0 -74.6 Q2.7 -74.45 7.05 -72.6 8.3 -72.0 9.9 -71.9 L11.0 -72.5 Q14.3 -72.0 17.35 -70.35 L23.0 -67.2 26.45 -64.8 Q30.3 -61.55 33.4 -57.9 L36.1 -54.55 39.6 -50.05 Q41.0 -48.15 41.8 -46.05 43.25 -42.25 43.95 -38.3 L45.25 -29.95 46.1 -23.0 47.15 -14.25 48.25 -4.85 Q48.7 -1.3 49.45 2.2 L51.4 9.95 52.95 14.75 55.9 23.8 Q56.95 27.35 57.65 31.0 L58.55 36.75 Q58.9 39.35 59.4 41.95 59.95 44.85 59.3 47.95 L58.7 51.0 58.05 54.2 56.8 59.85 Q56.35 61.5 55.55 63.05 54.15 65.75 51.75 67.5 L52.15 65.6 52.15 65.55 52.3 64.4 Q52.6 62.2 52.2 59.95 L52.0 59.0 51.85 59.9 51.7 60.5 Q51.25 62.9 50.25 65.25 L49.7 66.25 49.25 66.9 47.3 69.1 43.9 71.5 41.9 72.45 42.55 70.6 42.6 70.5 43.25 68.3 43.3 68.2 43.4 67.9 43.4 67.85 44.25 64.1 42.55 67.65 41.2 69.4 40.6 69.9 35.6 73.4 Q33.4 74.9 30.75 75.25 L27.7 75.6 26.5 75.5 27.65 74.45 Q28.55 72.55 29.95 71.05 L30.8 70.15 32.25 68.35 32.75 67.25 31.95 67.95 30.2 69.1 28.7 69.9 Q23.55 72.2 18.0 73.0 L14.65 73.3 13.85 73.05 13.0 72.75 14.15 72.25 16.7 70.85 Q20.25 68.7 23.1 65.65 L23.1 65.6 24.25 64.25 22.8 65.05 22.75 65.1 22.65 65.15 Q19.2 67.05 15.3 67.7 L10.25 67.5 Q12.7 67.1 14.85 66.2 17.1 65.2 19.05 63.65 21.35 61.75 22.75 59.0 23.7 57.15 24.0 54.95 24.15 53.6 23.7 52.1 L22.0 47.5 Q20.4 43.6 20.45 39.2 20.5 35.55 21.0 32.05 21.6 27.4 20.9 22.75 L20.5 20.4 Q19.5 16.0 20.5 11.45 21.45 7.15 21.85 2.7 22.25 -1.3 21.95 -5.35 21.65 -9.95 20.7 -14.25 L19.5 -17.85 17.95 -21.2 Q15.9 -25.45 12.75 -28.45 L10.75 -30.0 Q7.1 -32.15 3.85 -34.7 L0.05 -37.8 Q-3.75 -41.1 -6.5 -45.3 L-8.6 -48.9 -9.55 -51.0 Q-10.55 -53.7 -12.15 -56.1 L-13.25 -57.3 -15.05 -58.05 Q-16.25 -54.6 -18.4 -51.85 L-21.5 -47.85 -23.45 -45.45 -25.9 -42.75 Q-28.85 -39.55 -32.4 -36.85 L-36.45 -33.1 -36.65 -32.9 -36.75 -31.45 -37.3 -27.3 Q-38.15 -21.05 -36.45 -17.15 L-36.0 -15.95 Q-34.85 -13.15 -35.1 -12.45 L-35.95 -7.1 Q-36.6 -2.55 -32.65 8.9 L-29.45 17.3 -26.8 22.8 -25.25 26.2 -24.85 26.0 Q-21.0 31.7 -19.6 33.0 L-17.5 34.4 -17.6 34.75 -19.2 47.5 Q-19.5 50.05 -18.0 52.5 L-18.7 52.55 Q-20.2 52.15 -21.55 51.2 L-19.9 53.9 -19.1 55.35 Q-18.55 56.3 -18.15 57.4 L-24.5 52.75 -24.25 53.85 Q-23.7 56.5 -22.5 58.85 L-22.4 59.05 -20.75 61.5 Q-22.8 61.05 -24.4 59.65 L-29.25 55.5 Q-28.35 58.7 -25.9 60.95 L-25.6 61.2 -24.25 62.25 -34.25 59.75 Q-33.65 61.5 -32.3 62.85 L-30.0 65.25 -32.8 64.1 -32.85 64.05 -37.5 61.8 -39.25 60.75 -38.25 64.25 -38.75 64.5 M-42.75 -23.0 Q-41.45 -27.05 -38.85 -30.4 L-36.65 -32.9 -38.85 -30.4 Q-41.45 -27.05 -42.75 -23.0 M-25.0 42.75 Q-24.6 46.45 -22.5 49.75 L-21.55 51.2 -22.5 49.75 Q-24.6 46.45 -25.0 42.75" fill="url(#gradient0)" fill-rule="evenodd" stroke="none"/>
      <path d="M10.25 67.5 Q12.7 67.1 14.85 66.2 17.1 65.2 19.05 63.65 21.35 61.75 22.75 59.0 23.7 57.15 24.0 54.95 24.15 53.6 23.7 52.1 L22.0 47.5 Q20.4 43.6 20.45 39.2 20.5 35.55 21.0 32.05 21.6 27.4 20.9 22.75 L20.5 20.4 Q19.5 16.0 20.5 11.45 21.45 7.15 21.85 2.7 22.25 -1.3 21.95 -5.35 21.65 -9.95 20.7 -14.25 L19.5 -17.85 17.95 -21.2 Q15.9 -25.45 12.75 -28.45 L10.75 -30.0 Q7.1 -32.15 3.85 -34.7 L0.05 -37.8 Q-3.75 -41.1 -6.5 -45.3 L-8.6 -48.9 -9.55 -51.0 Q-10.55 -53.7 -12.15 -56.1 L-13.25 -57.3 -15.05 -58.05 M-36.45 -33.1 L-36.75 -31.45 -37.3 -27.3 Q-38.15 -21.05 -36.45 -17.15 L-36.0 -15.95 Q-34.85 -13.15 -35.1 -12.45 L-35.95 -7.1 Q-36.6 -2.55 -32.65 8.9 L-29.45 17.3 -26.8 22.8 -24.85 26.0 Q-21.0 31.7 -19.6 33.0 L-17.5 34.4" fill="none" stroke="#000000" stroke-linecap="round" stroke-linejoin="round" stroke-width="2.0"/>
      <path d="M-38.75 64.5 Q-39.7 63.45 -40.85 62.65 -42.45 61.55 -43.65 60.05 -45.1 58.3 -46.1 56.3 L-47.95 52.0 Q-49.45 47.45 -49.45 42.75 -49.5 37.8 -48.25 33.0 L-46.4 25.85 Q-45.55 22.7 -45.6 19.25 -45.7 14.75 -46.3 10.3 -46.75 6.75 -47.5 3.25 L-49.05 -3.25 -51.2 -12.05 Q-51.8 -14.5 -51.85 -16.95 -51.95 -21.25 -51.5 -25.5 -51.05 -30.2 -49.85 -34.8 -48.8 -38.95 -47.2 -42.85 -46.3 -45.15 -45.0 -47.25 -42.75 -50.9 -39.8 -54.1 L-34.85 -58.8 -29.3 -63.05 -23.3 -66.9 Q-19.25 -69.4 -14.65 -71.3 L-7.2 -73.5 -2.0 -74.6 Q2.7 -74.45 7.05 -72.6 8.3 -72.0 9.9 -71.9 M11.0 -72.5 Q14.3 -72.0 17.35 -70.35 L23.0 -67.2 26.45 -64.8 Q30.3 -61.55 33.4 -57.9 L36.1 -54.55 39.6 -50.05 Q41.0 -48.15 41.8 -46.05 43.25 -42.25 43.95 -38.3 L45.25 -29.95 46.1 -23.0 47.15 -14.25 48.25 -4.85 Q48.7 -1.3 49.45 2.2 L51.4 9.95 52.95 14.75 55.9 23.8 Q56.95 27.35 57.65 31.0 L58.55 36.75 Q58.9 39.35 59.4 41.95 59.95 44.85 59.3 47.95 L58.7 51.0 58.05 54.2 56.8 59.85 Q56.35 61.5 55.55 63.05 54.15 65.75 51.75 67.5 L52.15 65.6 52.15 65.55 52.3 64.4 Q52.6 62.2 52.2 59.95 L52.0 59.0 51.85 59.9 51.7 60.5 Q51.25 62.9 50.25 65.25 L49.7 66.25 49.25 66.9 47.3 69.1 43.9 71.5 41.9 72.45 42.55 70.6 42.6 70.5 43.25 68.3 43.3 68.2 43.4 67.9 43.4 67.85 44.25 64.1 42.55 67.65 41.2 69.4 40.6 69.9 35.6 73.4 Q33.4 74.9 30.75 75.25 L27.7 75.6 26.5 75.5 27.65 74.45 Q28.55 72.55 29.95 71.05 L30.8 70.15 32.25 68.35 32.75 67.25 31.95 67.95 30.2 69.1 28.7 69.9 Q23.55 72.2 18.0 73.0 L14.65 73.3 13.85 73.05 13.0 72.75 14.15 72.25 16.7 70.85 Q20.25 68.7 23.1 65.65 L23.1 65.6 24.25 64.25 22.8 65.05 22.75 65.1 22.65 65.15 Q19.2 67.05 15.3 67.7 L10.25 67.5 M-15.05 -58.05 Q-16.25 -54.6 -18.4 -51.85 L-21.5 -47.85 -23.45 -45.45 -25.9 -42.75 Q-28.85 -39.55 -32.4 -36.85 L-36.45 -33.1 -36.65 -32.9 -38.85 -30.4 Q-41.45 -27.05 -42.75 -23.0 M-17.6 34.75 L-19.2 47.5 Q-19.5 50.05 -18.0 52.5 L-18.7 52.55 Q-20.2 52.15 -21.55 51.2 L-19.9 53.9 -19.1 55.35 Q-18.55 56.3 -18.15 57.4 L-24.5 52.75 -24.25 53.85 Q-23.7 56.5 -22.5 58.85 L-22.4 59.05 -20.75 61.5 Q-22.8 61.05 -24.4 59.65 L-29.25 55.5 Q-28.35 58.7 -25.9 60.95 L-25.6 61.2 -24.25 62.25 -34.25 59.75 Q-33.65 61.5 -32.3 62.85 L-30.0 65.25 -32.8 64.1 -32.85 64.05 -37.5 61.8 -39.25 60.75 -38.25 64.25 M-21.55 51.2 L-22.5 49.75 Q-24.6 46.45 -25.0 42.75" fill="none" stroke="#000000" stroke-linecap="round" stroke-linejoin="round" stroke-width="2.0"/>
      <path d="M13.5 -59.0 Q15.35 -55.5 18.45 -52.95 L22.5 -49.5 M12.0 -68.0 Q15.9 -67.05 19.15 -64.15 L22.65 -60.7 25.5 -57.0 M3.5 -65.0 Q5.45 -66.3 7.95 -65.75 L10.5 -65.0 M-1.0 -61.0 Q1.75 -62.6 4.9 -61.65 L6.0 -61.0 M35.0 -46.0 Q36.85 -42.75 38.95 -39.65 40.75 -37.0 41.8 -33.9 L42.5 -31.0 M30.0 -46.5 Q33.0 -45.0 34.5 -41.5 L37.55 -33.35 Q38.75 -29.5 39.5 -25.5 M20.5 -38.0 Q23.35 -33.35 25.55 -28.3 27.0 -25.0 28.05 -21.5 L29.5 -17.0 M25.5 -43.0 Q31.7 -36.1 33.85 -26.95 L34.5 -23.5 M-8.0 -58.0 Q-8.8 -56.65 -7.65 -54.9 L-7.0 -53.5 Q-5.3 -48.35 -1.7 -44.3 L0.15 -42.1 Q4.65 -36.25 11.5 -34.5 M16.5 -33.0 Q17.9 -31.7 19.2 -29.35 L21.6 -24.55 23.95 -19.45 25.0 -17.0 M5.0 -56.0 Q10.1 -48.8 17.8 -44.55 19.75 -43.5 22.0 -43.0 M-36.0 -44.5 L-32.05 -49.55 -29.5 -53.0 M-40.5 -35.5 Q-38.15 -35.9 -36.3 -37.8 L-31.25 -43.25 Q-28.5 -46.25 -26.15 -49.6 -24.5 -52.0 -23.0 -54.5 M-43.0 -45.5 Q-41.0 -48.9 -37.7 -51.7 L-32.9 -55.9 -26.45 -61.45 Q-23.55 -63.8 -20.15 -65.75 L-18.4 -66.85 Q-14.5 -69.7 -10.05 -71.15 L-8.0 -72.0 -5.95 -72.65 -4.55 -72.4 -2.0 -71.0 M-47.0 -34.5 Q-47.1 -37.15 -45.2 -39.2 L-43.5 -41.5 M-44.5 -26.0 Q-45.1 -29.55 -43.05 -32.55 L-38.9 -38.45 -38.0 -39.5 M-45.0 -35.0 Q-49.75 -26.1 -48.35 -16.15 -47.85 -12.85 -46.65 -9.85 L-44.45 -3.8 -43.85 -2.1 Q-41.15 5.75 -41.45 14.0 -41.8 23.65 -44.1 32.95 -45.6 39.1 -45.7 45.4 -45.75 47.8 -44.9 50.2 -43.7 53.45 -41.5 56.0 M-41.0 -6.0 Q-42.55 -10.95 -43.65 -16.05 -44.0 -17.75 -44.0 -19.5 M-36.0 54.5 Q-38.85 51.5 -39.65 47.05 L-40.1 43.5 Q-40.25 40.75 -39.85 38.05 L-37.9 27.0 -37.65 25.5 Q-36.4 16.7 -37.5 8.0 M-26.5 46.0 L-27.25 43.45 -27.5 41.0 M-30.0 50.0 Q-32.55 47.65 -33.15 43.5 -34.4 34.2 -32.35 25.05 L-31.5 22.0 M44.7 20.75 Q46.25 29.55 47.45 38.45 49.0 49.8 47.0 61.0 M53.0 57.0 Q52.7 26.15 47.35 6.85 42.0 -12.45 39.5 -23.5 M26.0 -11.0 Q22.45 18.95 28.3 47.7 29.65 54.5 26.0 60.5 M36.0 -12.0 Q41.35 16.9 40.85 46.0 40.65 57.65 36.0 68.5 M31.0 -12.5 Q34.2 16.95 33.3 46.1 32.95 56.35 27.0 65.0 M35.5 -20.0 Q41.05 0.2 44.7 20.75" fill="none" stroke="#feda9e" stroke-linecap="round" stroke-linejoin="round" stroke-width="1.5"/>
      <path d="M-0.5 -67.0 L-1.15 -67.7 -3.5 -68.5 M-7.5 -62.5 Q-7.55 -63.7 -8.95 -64.15 L-9.5 -64.5 M-14.5 -61.0 Q-12.65 -62.35 -10.65 -61.25 L-10.0 -60.5 M-37.5 -13.0 Q-39.15 -16.35 -39.4 -20.5 L-39.5 -24.0 M-34.25 12.0 Q-33.2 16.35 -34.35 20.8 L-35.1 24.05 Q-36.15 28.9 -36.65 33.8 -37.05 37.9 -36.5 42.1 -35.9 46.9 -34.45 51.35 -33.85 53.1 -32.25 54.0 M-19.5 46.0 Q-20.55 41.1 -21.2 35.95 L-21.0 35.0 M-27.0 39.0 Q-28.9 34.35 -28.5 29.5 M41.0 64.5 Q43.65 58.65 43.55 52.0 L43.65 45.0 Q43.75 41.75 43.5 38.5 M44.7 20.75 L44.0 19.5 M48.0 33.0 Q48.0 28.4 46.25 24.1 L44.7 20.75 M35.5 22.0 Q37.55 31.1 36.9 40.45 36.25 50.35 33.5 59.8 32.6 62.8 30.5 65.5 M31.5 41.5 Q29.55 32.15 28.95 22.5 28.4 14.05 29.2 5.45 L29.5 -1.0" fill="none" stroke="#7e4f01" stroke-linecap="round" stroke-linejoin="round" stroke-width="1.5"/>
    </g>
    </g>
  </g>
  <defs>
    <radialGradient cx="0" cy="0" gradientTransform="matrix(0.0011, 0.109, -0.1487, 0.0014, -5.75, -50.55)" gradientUnits="userSpaceOnUse" id="gradient0" r="819.2" spreadMethod="pad">
      <stop offset="0.0" stop-color="#d37133"/>
      <stop offset="0.2196078431372549" stop-color="#de8b47"/>
      <stop offset="0.34901960784313724" stop-color="#feda9e"/>
      <stop offset="0.5019607843137255" stop-color="#d3844c"/>
      <stop offset="1.0" stop-color="#d6664c"/>
    </radialGradient>
  </defs>
</svg>