<svg xmlns:xlink="http://www.w3.org/1999/xlink" xmlns="http://www.w3.org/2000/svg" height="16.65px" width="27.9px">
  <g transform="matrix(1.0, 0.0, 0.0, 1.0, 11.2, 8.0)">
    <g data-characterId="1320" height="7.6" transform="matrix(1.0, 0.0, 0.0, 1.0, -10.15, -2.05)" width="18.95" xlink:href="#shape0"><g id="shape0" transform="matrix(1.0, 0.0, 0.0, 1.0, 10.15, 2.05)">
      <path d="M-9.55 0.1 L-8.4 -0.35 Q-6.85 -0.35 -5.7 0.4 L-5.1 0.6 -4.55 0.55 Q-3.5 -0.1 -2.05 0.05 L-1.5 0.2 -0.2 0.3 0.4 0.15 0.95 0.2 2.85 0.4 3.8 0.45 5.0 0.3 7.75 -0.45 7.8 0.2 7.15 0.4 5.75 1.45 3.7 2.85 2.85 3.3 -0.2 4.45 Q-2.85 5.25 -5.5 4.45 -7.05 3.95 -8.0 3.3 L-9.2 2.15 Q-10.15 0.65 -9.55 0.1 M-1.1 2.75 L-0.95 2.6 -0.95 2.4 -0.95 2.3 -1.1 2.1 -1.2 1.95 -3.35 1.8 Q-5.35 2.4 -7.05 1.3 -7.3 1.3 -7.45 1.55 L-7.4 2.2 -6.5 2.6 -1.2 2.85 -1.1 2.75" fill="#4f5c66" fill-rule="evenodd" stroke="none"/>
      <path d="M-9.55 0.1 L-10.15 -0.65 -8.6 -1.85 -6.55 -1.8 -4.6 -1.3 Q-4.05 -1.15 -3.2 -1.65 L-0.65 -1.8 1.95 -1.45 Q4.6 -0.6 7.75 -0.45 L5.0 0.3 3.8 0.45 2.85 0.4 0.95 0.2 0.4 0.15 -0.2 0.3 -1.5 0.2 -2.05 0.05 Q-3.5 -0.1 -4.55 0.55 L-5.1 0.6 -5.7 0.4 Q-6.85 -0.35 -8.4 -0.35 L-9.55 0.1" fill="#3a4549" fill-rule="evenodd" stroke="none"/>
      <path d="M-1.1 2.75 L-1.2 2.85 -6.5 2.6 -7.4 2.2 -7.45 1.55 Q-7.3 1.3 -7.05 1.3 -5.35 2.4 -3.35 1.8 L-1.2 1.95 -1.1 2.1 -0.95 2.3 -0.95 2.4 -0.95 2.6 -1.1 2.75" fill="#8d9ca7" fill-rule="evenodd" stroke="none"/>
      <path d="M8.3 -0.45 L5.0 0.45 3.85 0.45 1.05 0.2 -2.2 0.15 -3.95 0.4 -5.1 0.6 -6.05 0.35 -7.65 0.05 -9.65 0.15" fill="none" stroke="#000000" stroke-linecap="round" stroke-linejoin="round" stroke-width="2.0"/>
      <path d="M-6.15 4.5 Q-5.1 5.15 -3.7 5.05 L-2.1 4.9 -1.75 4.85 -1.25 4.75" fill="none" stroke="#3a4549" stroke-linecap="round" stroke-linejoin="round" stroke-width="2.0"/>
    </g>
  </g>
  </g>
  <defs>
    </defs>
</svg>