<svg xmlns:xlink="http://www.w3.org/1999/xlink" xmlns="http://www.w3.org/2000/svg" height="16.65px" width="27.9px">
  <g transform="matrix(1.0, 0.0, 0.0, 1.0, 11.2, 8.0)">
    <g data-characterId="1335" height="8.95" transform="matrix(1.0, 0.0, 0.0, 1.0, -4.8, -2.2)" width="18.45" xlink:href="#shape0"><g id="shape0" transform="matrix(1.0, 0.0, 0.0, 1.0, 4.8, 2.2)">
      <path d="M11.7 3.8 L11.7 3.85 11.75 3.95 11.75 4.05 11.7 4.25 11.6 4.35 11.45 4.5 Q5.0 6.45 -1.65 5.45 -3.85 5.1 -3.95 3.1 L-3.35 2.5 Q-2.8 2.05 -2.05 2.0 L-1.4 1.9 10.2 3.1 11.5 3.5 11.6 3.6 11.7 3.8 M2.0 3.85 L1.85 3.8 -1.9 3.4 -2.2 3.5 -2.35 3.6 -2.45 3.8 -2.5 3.95 -2.45 4.25 Q-0.45 5.5 2.0 4.8 L2.15 4.65 2.2 4.35 2.15 4.15 2.0 3.85" fill="#4f5c66" fill-rule="evenodd" stroke="none"/>
      <path d="M0.85 -1.5 L0.95 -1.6 1.3 -1.95 1.75 -2.2 Q6.5 -2.1 11.0 -0.65 L11.15 -0.55 11.35 -0.3 11.4 -0.2 11.4 -0.1 11.3 0.2 11.25 0.3 11.15 0.4 1.95 0.1 Q-0.45 1.25 -3.15 1.15 -3.55 1.15 -3.8 0.8 L-4.05 0.9 -4.5 1.2 -4.7 1.15 -4.75 0.95 -4.8 0.8 -4.5 0.4 -4.45 0.3 -4.35 0.2 Q-3.85 0.0 -3.5 -0.45 -3.15 -0.85 -2.65 -1.05 -2.15 -1.25 -1.8 -1.6 L-1.4 -1.65 -0.95 -1.45 -0.8 -1.35 -0.5 -1.2 0.4 -1.25 0.85 -1.5" fill="#3a4549" fill-rule="evenodd" stroke="none"/>
      <path d="M2.0 3.85 L2.15 4.15 2.2 4.35 2.15 4.65 2.0 4.8 Q-0.45 5.5 -2.45 4.25 L-2.5 3.95 -2.45 3.8 -2.35 3.6 -2.2 3.5 -1.9 3.4 1.85 3.8 2.0 3.85" fill="#8d9ca7" fill-rule="evenodd" stroke="none"/>
      <path d="M-2.75 0.8 L-2.55 0.75 Q-0.1 0.0 2.65 -0.1 L3.2 -0.2 8.35 -0.75 9.15 -0.7 9.7 -0.6 11.6 -0.4 11.75 -0.35 12.15 -0.25 Q13.5 0.45 13.65 1.75 13.8 3.85 11.9 4.1 L10.8 4.1 8.9 3.9 8.35 3.8 4.8 3.4 4.55 3.3 Q3.8 2.9 2.9 2.9 L2.35 2.8 -2.4 2.45 -2.75 0.8 M11.9 1.0 L9.75 1.0 9.65 1.0 9.45 2.25 9.65 1.0 7.25 1.25 9.65 1.0 9.75 1.0 11.9 1.0" fill="#fdf0ac" fill-rule="evenodd" stroke="none"/>
      <path d="M-2.75 0.8 L-2.55 0.75 Q-0.1 0.0 2.65 -0.1 L3.2 -0.2 8.35 -0.75 9.15 -0.7 9.7 -0.6 11.6 -0.4 11.75 -0.35 12.15 -0.25 Q13.5 0.45 13.65 1.75 13.8 3.85 11.9 4.1 L10.8 4.1 8.9 3.9 8.35 3.8 4.8 3.4 4.55 3.3 Q3.8 2.9 2.9 2.9 L2.35 2.8 -2.4 2.45 -2.55 2.45 -3.65 2.75 M-2.4 2.45 L-2.75 0.8 -4.65 1.0" fill="none" stroke="#000000" stroke-linecap="round" stroke-linejoin="round" stroke-width="1.5"/>
      <path d="M9.45 2.25 L9.65 1.0 7.25 1.25 M9.65 1.0 L9.75 1.0 11.9 1.0" fill="none" stroke="#999999" stroke-linecap="round" stroke-linejoin="round" stroke-width="1.5"/>
      <path d="M-0.25 6.0 L1.25 6.2 2.1 6.25 2.6 6.25" fill="none" stroke="#3a4549" stroke-linecap="round" stroke-linejoin="round" stroke-width="2.0"/>
    </g>
  </g>
  </g>
  <defs>
    </defs>
</svg>