<svg xmlns:xlink="http://www.w3.org/1999/xlink" xmlns="http://www.w3.org/2000/svg" height="202.2px" width="161.9px">
  <g transform="matrix(1.0, 0.0, 0.0, 1.0, 74.15, 81.7)">
    <g data-characterId="1419" height="165.65" transform="matrix(1.0, 0.0, 0.0, 1.0, -50.1, -76.65)" width="105.1" xlink:href="#shape0"><g id="shape0" transform="matrix(1.0, 0.0, 0.0, 1.0, 50.1, 76.65)">
      <path d="M-13.5 -55.5 L-13.05 -54.8 Q-5.0 -57.6 3.05 -60.9 L5.9 -62.2 Q7.5 -63.05 8.9 -63.35 10.55 -65.05 12.65 -66.15 10.3 -67.4 9.45 -68.95 L8.4 -70.4 3.85 -74.3 2.55 -75.1 1.95 -75.45 Q-0.05 -76.95 -3.5 -76.6 L-5.95 -76.3 -6.55 -76.15 Q-11.05 -74.75 -15.05 -72.6 -22.8 -68.45 -27.2 -62.15 L-27.8 -61.35 -33.05 -55.05 -38.05 -48.55 Q-39.7 -46.15 -40.45 -43.65 L-41.25 -41.85 -42.2 -40.1 Q-43.4 -37.5 -43.95 -34.5 -44.85 -29.15 -46.25 -23.95 L-47.7 -18.05 -48.35 -14.5 -49.15 -6.5 -49.4 -4.0 Q-50.25 3.65 -50.1 11.5 L-49.8 23.5 -49.6 26.0 Q-49.05 30.2 -48.15 34.05 L-47.9 35.5 -47.0 40.0 -46.0 44.0 -44.9 47.95 -43.4 52.95 -43.1 54.05 -42.35 55.95 -42.0 56.5 M17.5 -3.5 L17.65 -2.05 17.9 -0.95 18.0 0.0 17.8 11.0 Q17.65 15.6 16.65 19.05 L16.35 19.95 16.2 20.5 15.8 24.5 15.7 25.5 14.35 33.45 Q13.9 35.6 13.8 38.0 L13.75 39.0 Q13.65 40.65 13.0 42.0 L12.75 43.0 Q12.8 44.5 12.05 45.55 L11.5 46.5 6.9 55.45 6.65 56.05 Q6.15 57.75 6.2 59.5 L6.35 62.0 6.8 65.45 7.0 68.0 Q6.95 70.05 8.5 70.5 L8.45 67.0 Q8.35 64.65 9.5 63.5 10.0 65.7 9.85 68.0 9.65 71.2 10.8 74.1 L11.8 76.35 Q13.2 79.15 15.5 82.0 14.9 79.9 15.05 77.5 15.2 74.8 16.5 73.5 L16.7 74.95 16.9 75.55 18.2 77.9 Q21.0 82.65 25.5 85.0 24.45 81.65 24.45 78.1 L24.85 78.55 Q26.8 83.25 31.05 86.45 L32.55 87.3 37.0 89.0 36.85 88.05 Q36.05 85.45 36.2 82.5 L36.45 81.0 38.5 73.5 Q38.8 77.95 40.2 81.95 L41.25 84.6 42.0 86.0 41.9 84.0 41.85 82.05 42.35 78.0 Q42.5 77.0 42.95 76.25 45.9 70.95 47.05 65.0 47.25 64.0 47.7 63.1 48.9 60.7 48.45 58.0 L48.15 55.5 47.8 52.5 47.7 51.5 47.55 50.0 Q48.0 50.0 48.25 50.25 48.6 50.6 49.55 50.85 L50.4 51.2 Q52.45 52.2 55.0 52.0 L53.55 50.45 Q53.0 50.0 52.95 49.45 52.8 48.45 52.05 48.3 L51.7 47.95 Q51.5 46.9 50.85 46.15 L50.2 45.35 Q49.5 44.5 49.1 43.45 48.35 41.3 48.15 39.0 47.75 33.05 49.45 27.5 L51.75 19.05 52.35 15.5 Q52.8 10.65 52.2 6.0 L51.8 3.05 49.95 -7.0 47.65 -15.55 47.35 -16.45 45.65 -22.05 45.4 -23.0 Q44.95 -25.35 44.15 -27.55 43.6 -28.95 43.35 -30.45 L43.1 -31.55 Q42.6 -32.95 42.35 -34.5 42.1 -36.05 41.3 -37.9 40.7 -39.15 40.35 -40.45 39.2 -44.85 37.0 -49.0 L35.65 -51.1 Q32.85 -54.8 30.55 -58.05 L29.9 -58.95 27.15 -62.15 Q24.95 -64.3 22.5 -67.0 21.0 -68.6 18.5 -68.35 L16.55 -67.85 15.95 -67.65 14.05 -66.85 12.65 -66.15 13.0 -66.0 M9.5 -63.5 L8.9 -63.35 8.5 -63.0 M34.0 1.5 Q37.15 14.75 33.55 27.0 L32.75 28.85 Q31.6 30.85 30.85 32.95 L30.55 33.55 Q29.65 34.6 29.35 35.95 L28.9 36.9 Q28.0 38.05 27.8 39.45 L27.65 40.05 Q26.7 43.25 25.0 46.0 L22.65 49.6 Q19.95 53.65 15.45 57.45 L12.9 59.3 12.3 59.75 Q11.25 61.15 10.5 60.5 11.6 58.65 13.4 57.4 15.4 56.0 16.45 54.45 L17.15 53.7 Q17.6 53.4 18.05 52.5 20.45 47.35 22.05 40.5 24.25 31.15 23.8 21.5 23.35 12.25 20.45 3.5 L19.7 0.95 Q18.8 -2.55 17.1 -5.55 L13.55 -12.05 Q11.85 -15.35 10.65 -18.55 10.0 -20.25 9.5 -22.0 L9.0 -24.0 7.95 -27.0 7.6 -28.05 4.65 -36.55 Q2.75 -41.4 0.0 -44.5 L-0.55 -44.9 Q-2.35 -45.9 -4.15 -47.85 L-5.55 -48.9 Q-7.5 -49.85 -9.0 -51.5 -9.5 -52.0 -10.1 -52.3 -11.9 -53.15 -13.05 -54.8 L-14.0 -54.5 M-14.5 -55.5 L-15.45 -54.85 -16.05 -54.7 -18.5 -54.65 Q-19.55 -54.8 -19.9 -54.2 -20.0 -54.0 -20.45 -53.85 -24.15 -52.85 -25.6 -50.05 L-25.9 -49.45 Q-26.85 -47.6 -27.75 -46.75 L-28.15 -46.05 Q-28.55 -44.85 -29.5 -44.0 M-26.0 -57.5 Q-28.4 -53.7 -29.7 -49.55 L-30.4 -47.45 Q-32.0 -43.15 -33.85 -38.95 L-34.65 -37.05 Q-36.45 -32.7 -36.7 -28.0 L-37.0 -26.5 Q-37.8 -24.0 -37.6 -21.0 -37.55 -19.9 -37.8 -18.95 L-38.0 -17.5 -37.75 -8.0 -37.75 -7.5 -37.3 1.5 Q-37.2 3.75 -37.8 5.55 L-38.0 7.0 Q-38.15 13.1 -37.65 19.0 L-37.35 22.5 -36.65 28.5 -36.35 30.45 -34.4 41.0 -33.55 45.5 Q-33.15 48.05 -32.35 50.45 -31.55 52.8 -31.3 55.5 L-31.05 56.05 Q-30.15 57.25 -30.25 59.0 L-30.1 60.05 Q-29.65 61.95 -29.5 64.0 L-30.55 63.05 Q-33.8 59.15 -36.0 54.5 M-24.0 52.5 L-23.6 53.05 -22.8 54.35 -16.5 62.0 -18.0 53.5 Q-19.85 44.05 -18.5 34.4 -20.95 35.05 -22.6 33.65 -23.65 32.8 -24.15 31.05 L-24.4 30.45 -26.35 26.45 -27.15 24.55 -27.3 24.0 Q-27.4 22.6 -28.1 21.55 L-28.85 19.45 Q-29.35 17.45 -30.25 16.3 L-30.6 15.55 -31.25 13.4 -32.8 9.9 -33.15 9.05 Q-34.5 5.55 -34.9 1.5 -35.1 -0.65 -35.75 -2.6 L-36.0 -4.0 -36.0 -7.0 M-17.5 34.0 L-18.5 34.4 M-48.0 39.5 Q-47.25 44.95 -47.15 50.5 -47.15 52.5 -47.55 54.5 L-49.5 64.0 Q-47.25 62.8 -45.1 60.4 -44.25 59.5 -44.0 58.5 -43.05 59.05 -43.4 61.0 -44.1 65.25 -45.15 69.45 L-45.5 70.0 Q-41.8 68.6 -38.75 65.7 L-37.45 64.05 Q-36.2 62.0 -36.0 59.5 L-35.7 60.05 Q-35.2 64.4 -36.0 68.5 -34.8 68.25 -33.8 67.15 -33.25 66.5 -32.5 66.0 M-32.0 49.5 L-31.35 50.9 -30.65 52.1 Q-29.8 53.55 -28.35 54.85 L-25.6 57.6 Q-24.05 59.3 -23.5 59.0 -23.9 56.05 -23.6 53.05" fill="none" stroke="#000000" stroke-linecap="round" stroke-linejoin="round" stroke-width="1.5"/>
    </g>
  </g>
  </g>
  <defs>
    </defs>
</svg>