<svg xmlns:xlink="http://www.w3.org/1999/xlink" xmlns="http://www.w3.org/2000/svg" height="98.75px" width="161.15px">
  <g transform="matrix(1.0, 0.0, 0.0, 1.0, 83.0, 71.7)">
    <g data-characterId="1249" height="58.45" transform="matrix(1.0, 0.0, 0.0, 1.0, -57.35, -31.4)" width="113.0" xlink:href="#shape0"><g id="shape0" transform="matrix(1.0, 0.0, 0.0, 1.0, 57.35, 31.4)">
      <path d="M16.5 15.5 Q28.85 17.35 39.8 12.1 52.35 6.1 50.9 -7.65 L50.8 -8.2 50.0 -9.95 49.1 -11.15 Q44.35 -17.5 28.2 -25.75 L24.0 -28.0 28.2 -25.75 Q44.35 -17.5 49.1 -11.15 L50.0 -9.95 50.8 -8.2 50.9 -7.65 Q52.35 6.1 39.8 12.1 28.85 17.35 16.5 15.5 M24.95 -30.9 Q31.0 -30.2 36.8 -27.85 43.5 -25.2 47.15 -21.3 51.8 -16.3 54.45 -10.2 55.9 -6.85 54.3 -3.95 53.55 -6.4 52.25 -8.4 53.55 -6.4 54.3 -3.95 55.45 0.8 54.9 5.75 54.65 8.1 53.5 9.95 49.55 16.2 41.65 17.9 L18.2 22.8 Q6.65 24.85 -5.2 25.25 L-26.2 26.5 Q-39.1 27.2 -49.55 20.5 -60.95 13.25 -54.55 1.55 -48.85 -8.85 -38.3 -14.35 -30.9 -21.05 -21.5 -24.0 L-22.3 -19.55 Q-23.0 -16.25 -23.55 -10.8 L-16.2 -8.05 Q-4.7 -3.65 7.6 -5.3 12.65 -6.0 16.9 -7.95 L25.6 -12.8 24.2 -23.15 23.75 -27.75 24.0 -28.0 24.05 -28.85 24.25 -29.6 24.95 -30.9 M30.5 -16.5 L29.75 -15.55 Q28.05 -13.65 25.6 -12.8 28.05 -13.65 29.75 -15.55 L30.5 -16.5 M-28.25 -12.5 L-23.55 -10.8 -28.25 -12.5 M-24.5 14.0 Q-31.0 12.7 -35.4 8.05 -45.1 -2.15 -38.3 -14.35 -45.1 -2.15 -35.4 8.05 -31.0 12.7 -24.5 14.0" fill="#8c5e2f" fill-rule="evenodd" stroke="none"/>
      <path d="M24.0 -28.0 L28.2 -25.75 Q44.35 -17.5 49.1 -11.15 L50.0 -9.95 50.8 -8.2 50.9 -7.65 Q52.35 6.1 39.8 12.1 28.85 17.35 16.5 15.5 M54.3 -3.95 Q55.9 -6.85 54.45 -10.2 51.8 -16.3 47.15 -21.3 43.5 -25.2 36.8 -27.85 31.0 -30.2 24.95 -30.9 L24.55 -30.25 24.25 -29.6 24.05 -28.85 24.0 -28.0 M23.75 -27.75 L24.2 -23.15 25.6 -12.8 Q28.05 -13.65 29.75 -15.55 L30.5 -16.5 M25.6 -12.8 L16.9 -7.95 Q12.65 -6.0 7.6 -5.3 -4.7 -3.65 -16.2 -8.05 L-23.55 -10.8 -28.25 -12.5 M54.3 -3.95 Q53.55 -6.4 52.25 -8.4 M-38.3 -14.35 Q-48.85 -8.85 -54.55 1.55 -60.95 13.25 -49.55 20.5 -39.1 27.2 -26.2 26.5 L-5.2 25.25 Q6.65 24.85 18.2 22.8 L41.65 17.9 Q49.55 16.2 53.5 9.95 54.65 8.1 54.9 5.75 55.45 0.8 54.3 -3.95 M-23.55 -10.8 Q-23.0 -16.25 -22.3 -19.55 L-21.5 -24.0 Q-30.9 -21.05 -38.3 -14.35 -45.1 -2.15 -35.4 8.05 -31.0 12.7 -24.5 14.0" fill="none" stroke="#000000" stroke-linecap="round" stroke-linejoin="round" stroke-width="2.0"/>
    </g>
  </g>
  </g>
  <defs>
    </defs>
</svg>