<svg xmlns:xlink="http://www.w3.org/1999/xlink" xmlns="http://www.w3.org/2000/svg" height="202.2px" width="161.9px">
  <g transform="matrix(1.0, 0.0, 0.0, 1.0, 74.15, 81.7)">
    <g data-characterId="1421" height="193.0" transform="matrix(1.0, 0.0, 0.0, 1.0, -56.5, -75.5)" width="113.75" xlink:href="#shape0"><g id="shape0" transform="matrix(1.0, 0.0, 0.0, 1.0, 56.5, 75.5)">
      <path d="M26.05 -37.5 L26.6 -35.55 Q28.2 -31.15 27.95 -26.5 27.75 -23.25 27.1 -20.1 27.0 -19.5 26.5 -19.0 L25.95 -23.0 Q25.05 -29.0 20.45 -32.0 L20.0 -33.0 Q19.25 -33.25 20.45 -32.0 L20.8 -30.5 Q21.0 -28.5 21.35 -26.55 22.25 -21.2 20.5 -16.5 20.55 -18.05 20.1 -19.55 18.45 -24.7 15.15 -29.1 13.5 -31.25 12.0 -30.5 L12.4 -29.95 Q16.3 -23.0 16.5 -15.0 16.3 -23.0 12.4 -29.95 L12.0 -30.5 Q13.5 -31.25 15.15 -29.1 18.45 -24.7 20.1 -19.55 20.55 -18.05 20.5 -16.5 22.25 -21.2 21.35 -26.55 21.0 -28.5 20.8 -30.5 L20.45 -32.0 Q19.25 -33.25 20.0 -33.0 L20.45 -32.0 Q25.05 -29.0 25.95 -23.0 L26.5 -19.0 Q27.0 -19.5 27.1 -20.1 27.75 -23.25 27.95 -26.5 28.2 -31.15 26.6 -35.55 L26.05 -37.5 Q25.25 -38.25 26.0 -38.0 L26.05 -37.5 26.0 -38.0 Q25.25 -38.25 26.05 -37.5 33.6 -31.25 34.5 -22.0 L34.8 -22.55 Q37.0 -32.3 33.5 -41.5 37.95 -36.45 38.35 -29.5 38.5 -27.25 39.25 -25.05 41.0 -30.05 38.95 -35.0 L37.75 -37.6 38.95 -35.0 Q41.0 -30.05 39.25 -25.05 38.5 -27.25 38.35 -29.5 37.95 -36.45 33.5 -41.5 37.0 -32.3 34.8 -22.55 L34.5 -22.0 Q33.6 -31.25 26.05 -37.5 M1.7 -43.8 Q1.45 -45.05 2.15 -48.25 2.7 -50.75 1.5 -52.0 2.7 -50.75 2.15 -48.25 1.45 -45.05 1.7 -43.8 L0.95 -45.0 -2.15 -50.2 Q-3.65 -52.25 -6.85 -52.8 L-7.25 -52.9 -11.45 -53.4 Q-13.75 -53.05 -15.5 -51.85 -17.25 -50.65 -18.5 -50.3 L-20.5 -49.5 -22.0 -48.5 Q-26.5 -52.3 -28.45 -50.7 -30.45 -49.1 -32.55 -44.85 -34.7 -40.65 -35.4 -33.9 -36.15 -27.25 -36.0 -20.25 -35.9 -13.3 -36.75 -11.75 -37.65 -10.25 -36.3 -4.5 -35.0 1.25 -31.95 10.15 L-27.15 23.65 Q-25.4 28.25 -23.75 30.5 -21.45 34.15 -17.75 34.9 -16.6 42.95 -19.8 46.2 -20.9 47.3 -22.5 47.6 -39.45 51.65 -56.0 58.0 -42.35 47.75 -42.15 28.1 -41.95 8.45 -44.8 -12.45 -47.7 -33.35 -44.55 -45.05 -41.4 -56.8 -29.1 -66.75 -17.3 -76.3 -3.3 -72.05 L-2.8 -71.9 Q25.8 -75.15 35.7 -54.35 45.55 -33.55 45.5 -12.95 45.4 7.65 49.95 30.9 54.5 54.1 56.4 77.15 57.25 87.65 56.0 98.0 56.55 86.7 49.0 78.0 L48.0 111.0 34.0 83.0 Q31.7 100.3 37.0 117.0 25.8 98.3 21.0 77.0 L18.0 92.0 Q12.5 70.55 13.95 48.2 14.4 41.4 13.8 27.55 13.2 13.85 13.7 6.9 14.35 -2.5 11.1 -19.75 8.6 -32.8 1.7 -43.8 M-10.5 -59.0 L-6.85 -52.8 -10.5 -59.0 M-19.0 -53.75 L-18.6 -54.05 -17.95 -54.65 -17.25 -54.9 Q-16.15 -54.95 -15.25 -55.5 L-14.45 -55.9 -14.0 -56.05 Q-13.3 -56.2 -13.4 -57.25 -13.45 -58.45 -12.5 -59.25 -12.0 -64.65 -11.75 -64.7 L-7.0 -65.4 Q-6.2 -65.4 -6.45 -66.25 L-6.6 -66.6 -7.45 -66.55 -7.65 -66.75 Q-7.7 -67.45 -7.25 -67.75 L-6.75 -67.9 Q-5.2 -67.95 -3.95 -68.95 L-2.95 -69.4 Q-2.25 -69.6 -2.2 -70.05 -3.15 -70.85 -4.25 -71.0 -3.15 -70.85 -2.2 -70.05 -2.25 -69.6 -2.95 -69.4 L-3.95 -68.95 Q-5.2 -67.95 -6.75 -67.9 L-7.25 -67.75 Q-7.7 -67.45 -7.65 -66.75 L-7.45 -66.55 -6.6 -66.6 -6.45 -66.25 Q-6.2 -65.4 -7.0 -65.4 L-11.75 -64.7 Q-12.0 -64.65 -12.5 -59.25 -13.45 -58.45 -13.4 -57.25 -13.3 -56.2 -14.0 -56.05 L-14.45 -55.9 -15.25 -55.5 Q-16.15 -54.95 -17.25 -54.9 L-17.95 -54.65 -18.6 -54.05 -19.0 -53.75" fill="url(#gradient0)" fill-rule="evenodd" stroke="none"/>
      <path d="M1.7 -43.8 L1.75 -43.55 2.35 -40.45 Q4.6 -31.35 4.95 -22.5 L5.0 -20.0 M1.5 -52.0 Q2.7 -50.75 2.15 -48.25 1.45 -45.05 1.7 -43.8 8.6 -32.8 11.1 -19.75 14.35 -2.5 13.7 6.9 13.2 13.85 13.8 27.55 14.4 41.4 13.95 48.2 12.5 70.55 18.0 92.0 L21.0 77.0 Q25.8 98.3 37.0 117.0 31.7 100.3 34.0 83.0 L48.0 111.0 49.0 78.0 Q56.55 86.7 56.0 98.0 57.25 87.65 56.4 77.15 54.5 54.1 49.95 30.9 45.4 7.65 45.5 -12.95 45.55 -33.55 35.7 -54.35 25.8 -75.15 -2.8 -71.9 L-3.3 -72.05 Q-17.3 -76.3 -29.1 -66.75 -41.4 -56.8 -44.55 -45.05 -47.7 -33.35 -44.8 -12.45 -41.95 8.45 -42.15 28.1 -42.35 47.75 -56.0 58.0 -39.45 51.65 -22.5 47.6 -20.9 47.3 -19.8 46.2 -16.6 42.95 -17.75 34.9 -21.45 34.15 -23.75 30.5 -25.4 28.25 -27.15 23.65 L-31.95 10.15 Q-35.0 1.25 -36.3 -4.5 -37.65 -10.25 -36.75 -11.75 -35.9 -13.3 -36.0 -20.25 -36.15 -27.25 -35.4 -33.9 -34.7 -40.65 -32.55 -44.85 -30.45 -49.1 -28.45 -50.7 -26.5 -52.3 -22.0 -48.5 M-20.5 -49.5 L-18.5 -50.3 Q-17.25 -50.65 -15.5 -51.85 -13.75 -53.05 -11.45 -53.4 L-7.25 -52.9 -6.85 -52.8 -10.5 -59.0 M1.7 -43.8 L0.95 -45.0 -2.15 -50.2 Q-3.65 -52.25 -6.85 -52.8 -3.95 -47.5 -1.8 -41.9 L-0.85 -39.05 Q1.75 -29.9 2.15 -20.5 L2.45 -15.0 Q3.05 -6.4 1.9 2.05 L1.3 8.0 Q1.2 9.95 0.5 11.5 M-3.75 -73.5 L-3.75 -73.25 Q-3.6 -72.15 -2.7 -72.1 -1.7 -72.25 -0.9 -72.85 L-0.05 -73.35 Q1.05 -73.9 1.25 -75.0 M-3.3 -72.05 L-2.7 -72.1 M-4.25 -71.0 Q-3.15 -70.85 -2.2 -70.05 -2.25 -69.6 -2.95 -69.4 L-3.95 -68.95 Q-5.2 -67.95 -6.75 -67.9 L-7.25 -67.75 Q-7.7 -67.45 -7.65 -66.75 L-7.45 -66.55 -6.6 -66.6 -6.45 -66.25 Q-6.2 -65.4 -7.0 -65.4 L-11.75 -64.7 Q-12.0 -64.65 -12.5 -59.25 -13.45 -58.45 -13.4 -57.25 -13.3 -56.2 -14.0 -56.05 L-14.45 -55.9 -15.25 -55.5 Q-16.15 -54.95 -17.25 -54.9 L-17.95 -54.65 -18.6 -54.05 -19.0 -53.75" fill="none" stroke="#000000" stroke-linecap="round" stroke-linejoin="round" stroke-width="2.0"/>
      <path d="M26.05 -37.5 L26.0 -38.0 Q25.25 -38.25 26.05 -37.5 33.6 -31.25 34.5 -22.0 L34.8 -22.55 Q37.0 -32.3 33.5 -41.5 37.95 -36.45 38.35 -29.5 38.5 -27.25 39.25 -25.05 41.0 -30.05 38.95 -35.0 L37.75 -37.6 M16.5 -15.0 Q16.3 -23.0 12.4 -29.95 L12.0 -30.5 Q13.5 -31.25 15.15 -29.1 18.45 -24.7 20.1 -19.55 20.55 -18.05 20.5 -16.5 22.25 -21.2 21.35 -26.55 21.0 -28.5 20.8 -30.5 L20.45 -32.0 Q19.25 -33.25 20.0 -33.0 L20.45 -32.0 Q25.05 -29.0 25.95 -23.0 L26.5 -19.0 Q27.0 -19.5 27.1 -20.1 27.75 -23.25 27.95 -26.5 28.2 -31.15 26.6 -35.55 L26.05 -37.5" fill="none" stroke="#290196" stroke-linecap="round" stroke-linejoin="round" stroke-width="1.5"/>
    </g>
    </g>
  </g>
  <defs>
    <radialGradient cx="0" cy="0" gradientTransform="matrix(-1.0E-4, 0.1143, -0.1929, -2.0E-4, -7.0, -51.0)" gradientUnits="userSpaceOnUse" id="gradient0" r="819.2" spreadMethod="pad">
      <stop offset="0.0" stop-color="#000000"/>
      <stop offset="0.23137254901960785" stop-color="#000b42"/>
      <stop offset="0.3176470588235294" stop-color="#01025f"/>
      <stop offset="0.38823529411764707" stop-color="#000042"/>
      <stop offset="1.0" stop-color="#000000"/>
    </radialGradient>
  </defs>
</svg>