<svg xmlns:xlink="http://www.w3.org/1999/xlink" xmlns="http://www.w3.org/2000/svg" height="202.2px" width="161.9px">
  <g transform="matrix(1.0, 0.0, 0.0, 1.0, 74.15, 81.7)">
    <g data-characterId="1405" height="121.55" transform="matrix(1.0, 0.0, 0.0, 1.0, -70.4, -71.25)" width="125.8" xlink:href="#shape0"><g id="shape0" transform="matrix(1.0, 0.0, 0.0, 1.0, 70.4, 71.25)">
      <path d="M18.15 -54.95 L16.9 -56.6 14.7 -59.0 16.9 -56.6 18.15 -54.95 M14.7 -47.2 L13.25 -49.8 11.0 -54.15 Q9.75 -56.6 7.2 -57.55 9.75 -56.6 11.0 -54.15 L13.25 -49.8 14.7 -47.2 M17.55 -50.05 L16.95 -50.9 Q15.0 -53.4 13.55 -56.1 15.0 -53.4 16.95 -50.9 L17.55 -50.05 M17.55 -59.55 Q17.15 -60.55 16.45 -61.35 15.15 -62.85 13.35 -63.55 10.35 -64.7 7.5 -66.2 10.35 -64.7 13.35 -63.55 15.15 -62.85 16.45 -61.35 17.15 -60.55 17.55 -59.55 M25.05 -57.5 L23.9 -59.25 Q34.6 -57.75 39.5 -43.25 44.4 -28.8 42.5 -12.9 40.55 3.0 36.85 13.5 33.15 23.95 35.2 32.35 37.2 40.75 43.85 45.6 39.8 45.6 36.25 43.2 L34.55 42.1 35.1 43.65 Q35.95 46.0 37.2 48.1 L36.7 48.95 Q34.9 47.75 33.5 46.15 31.95 44.3 30.95 41.9 L30.85 41.65 32.8 46.65 Q24.6 39.15 24.5 30.15 24.4 21.15 24.1 19.25 23.75 17.35 23.7 15.2 L23.45 7.85 Q23.25 2.7 26.25 -4.55 29.25 -11.8 28.45 -16.9 27.6 -22.0 25.6 -23.6 L23.4 -22.7 21.35 -21.45 Q19.25 -15.25 14.8 -10.1 L13.35 -8.05 Q11.45 -4.85 11.8 -0.95 9.35 -4.1 11.3 -7.8 L11.8 -8.8 Q15.8 -17.4 14.45 -26.5 L12.35 -41.65 Q10.65 -50.2 6.5 -54.85 0.5 -39.95 -13.9 -34.8 -26.7 -30.4 -36.4 -21.45 L-36.65 -21.25 -37.3 -20.65 -36.65 -20.6 -36.75 -17.9 -37.4 -20.55 -36.75 -17.9 -36.8 -17.15 -36.45 -17.15 Q-34.8 -13.25 -35.1 -12.45 L-35.95 -7.1 Q-36.6 -2.55 -32.65 8.9 -28.75 20.35 -24.85 26.0 -21.0 31.7 -19.6 33.0 L-17.25 34.5 -17.35 34.85 -17.5 35.45 Q-17.8 36.55 -18.4 37.3 -22.25 42.0 -27.55 42.3 L-32.1 41.8 -34.25 41.1 -31.65 40.25 Q-28.75 39.4 -27.5 36.95 -30.2 37.9 -33.25 38.1 -39.7 38.7 -45.55 36.2 L-45.2 35.4 Q-43.45 35.05 -41.9 33.9 -39.15 31.9 -37.1 29.1 -40.3 29.9 -43.55 29.8 L-52.05 30.5 -44.1 26.0 Q-42.35 25.0 -41.3 23.45 -40.4 22.15 -40.0 20.45 -41.0 22.05 -42.85 22.55 -50.8 25.1 -58.7 22.75 -55.35 22.2 -52.4 20.9 -48.7 19.25 -45.75 16.4 L-50.1 17.15 Q-59.7 19.05 -68.6 16.0 -62.75 14.8 -57.4 12.75 -52.35 10.85 -51.2 6.35 -54.0 7.9 -57.15 7.95 -61.5 8.05 -65.6 6.35 L-59.2 2.4 Q-56.4 0.35 -55.5 -3.15 -58.65 -0.45 -62.75 0.3 -66.55 1.05 -69.9 -0.55 -61.6 -4.75 -58.0 -13.6 L-46.8 -41.15 Q-41.05 -55.3 -28.1 -63.6 -15.65 -71.7 -1.0 -70.6 13.9 -69.0 25.05 -57.5 M21.6 -53.5 L20.85 -54.45 19.0 -57.0 20.85 -54.45 21.6 -53.5 M36.0 -10.35 L35.95 -12.65 35.7 -16.1 35.95 -12.65 36.0 -10.35 M17.3 -41.75 L18.15 -40.0 20.8 -33.6 Q21.7 -31.2 20.1 -26.35 18.1 -21.1 17.6 -19.15 18.1 -21.1 20.1 -26.35 21.7 -31.2 20.8 -33.6 L18.15 -40.0 17.3 -41.75 M38.0 -7.5 Q38.6 -12.1 38.1 -16.7 L37.2 -24.45 Q36.7 -28.6 35.7 -32.75 34.7 -36.9 32.25 -40.6 34.7 -36.9 35.7 -32.75 36.7 -28.6 37.2 -24.45 L38.1 -16.7 Q38.6 -12.1 38.0 -7.5 M39.15 -26.2 L39.05 -28.5 Q38.55 -34.1 36.25 -39.15 38.55 -34.1 39.05 -28.5 L39.15 -26.2 M24.0 -28.5 L24.15 -29.9 23.6 -29.65 24.15 -29.9 24.65 -31.65 Q25.35 -33.65 24.95 -34.75 L24.2 -36.55 24.95 -34.75 Q25.35 -33.65 24.65 -31.65 L24.15 -29.9 24.0 -28.5 M29.7 -21.15 L29.2 -22.85 Q28.75 -24.6 29.0 -31.0 29.25 -36.45 27.85 -38.8 L27.35 -39.45 27.35 -38.85 27.35 -38.3 27.35 -38.85 27.35 -39.45 27.85 -38.8 Q29.25 -36.45 29.0 -31.0 28.75 -24.6 29.2 -22.85 L29.7 -21.15 M21.75 -24.65 L21.35 -21.45 21.75 -24.65 M26.2 10.9 L25.65 13.8 Q25.2 19.55 25.7 25.25 26.05 29.5 27.45 33.5 27.95 34.95 28.8 36.5 27.95 34.95 27.45 33.5 26.05 29.5 25.7 25.25 25.2 19.55 25.65 13.8 L26.2 10.9 M5.75 -56.7 Q3.95 -52.05 0.8 -48.15 L-4.3 -42.0 0.8 -48.15 Q3.95 -52.05 5.75 -56.7 M38.0 -2.3 L36.1 3.8 Q34.85 7.9 33.75 12.05 32.3 17.45 32.55 23.0 32.3 17.45 33.75 12.05 34.85 7.9 36.1 3.8 L38.0 -2.3 M31.95 31.9 L32.65 35.3 Q33.3 37.85 35.4 39.4 33.3 37.85 32.65 35.3 L31.95 31.9 M30.2 40.0 L30.85 41.65 30.2 40.0 M-18.4 -54.65 L-22.15 -52.35 -28.75 -48.35 -22.15 -52.35 -18.4 -54.65 M29.05 18.7 L29.3 29.35 Q29.55 33.7 31.65 37.4 29.55 33.7 29.3 29.35 L29.05 18.7 M-35.35 -49.2 L-39.05 -44.0 -42.35 -38.75 Q-45.25 -33.7 -47.0 -28.25 L-48.2 -24.7 Q-50.15 -19.2 -52.9 -14.1 -50.15 -19.2 -48.2 -24.7 L-47.0 -28.25 Q-45.25 -33.7 -42.35 -38.75 L-39.05 -44.0 -35.35 -49.2 M-40.85 -44.05 L-42.4 -41.9 -45.75 -36.25 -42.4 -41.9 -40.85 -44.05 M-23.0 -62.45 Q-27.0 -60.4 -30.45 -57.5 L-33.1 -55.3 Q-37.4 -51.85 -40.75 -47.1 L-41.2 -46.4 -44.6 -41.15 -45.6 -39.4 -46.15 -38.4 Q-47.75 -35.75 -48.45 -32.85 L-48.75 -31.3 Q-49.7 -27.05 -51.35 -23.0 -53.6 -17.6 -56.15 -12.45 -57.35 -10.05 -59.25 -8.05 L-60.05 -7.15 Q-61.85 -4.8 -64.15 -3.2 -61.85 -4.8 -60.05 -7.15 L-59.25 -8.05 Q-57.35 -10.05 -56.15 -12.45 -53.6 -17.6 -51.35 -23.0 -49.7 -27.05 -48.75 -31.3 L-48.45 -32.85 Q-47.75 -35.75 -46.15 -38.4 L-45.6 -39.4 -44.6 -41.15 -41.2 -46.4 -40.75 -47.1 Q-37.4 -51.85 -33.1 -55.3 L-30.45 -57.5 Q-27.0 -60.4 -23.0 -62.45 M-41.1 -8.05 Q-41.1 -7.45 -41.35 -7.1 -43.4 -4.0 -45.75 -1.15 -49.1 2.95 -53.5 5.75 -49.1 2.95 -45.75 -1.15 -43.4 -4.0 -41.35 -7.1 -41.1 -7.45 -41.1 -8.05 M-40.55 -12.65 L-41.7 -10.65 Q-42.95 -8.45 -44.6 -6.9 -42.95 -8.45 -41.7 -10.65 L-40.55 -12.65 M-54.65 -10.65 L-55.55 -9.0 Q-57.6 -5.75 -60.4 -3.2 -57.6 -5.75 -55.55 -9.0 L-54.65 -10.65 M-40.85 -24.75 L-43.6 -21.2 Q-46.7 -16.95 -50.35 -13.25 -46.7 -16.95 -43.6 -21.2 L-40.85 -24.75 M-50.35 -4.05 L-51.85 -1.8 Q-54.7 2.1 -58.4 5.15 -54.7 2.1 -51.85 -1.8 L-50.35 -4.05 M-35.95 -24.2 L-37.55 -22.75 -37.95 -22.45 -43.85 -17.45 Q-47.2 -14.9 -48.3 -10.95 -47.2 -14.9 -43.85 -17.45 L-37.95 -22.45 -37.55 -22.75 -35.95 -24.2 M-10.2 -49.3 L-11.0 -48.65 Q-13.2 -45.9 -15.85 -43.5 L-24.0 -36.45 Q-28.15 -33.1 -32.65 -30.2 -35.25 -28.55 -37.4 -26.4 L-39.7 -23.9 -37.4 -26.4 Q-35.25 -28.55 -32.65 -30.2 -28.15 -33.1 -24.0 -36.45 L-15.85 -43.5 Q-13.2 -45.9 -11.0 -48.65 L-10.2 -49.3 -1.3 -55.7 1.45 -57.25 -1.3 -55.7 -10.2 -49.3 M-6.6 -40.85 Q-7.45 -40.15 -8.4 -39.55 L-11.5 -37.7 -8.4 -39.55 Q-7.45 -40.15 -6.6 -40.85 M-18.1 -38.3 L-23.1 -33.2 Q-26.5 -29.9 -31.05 -28.5 -26.5 -29.9 -23.1 -33.2 L-18.1 -38.3 M-27.9 -36.55 L-29.9 -35.05 -32.8 -32.8 -29.9 -35.05 -27.9 -36.55 M-29.35 -38.3 L-31.95 -36.3 Q-34.45 -34.55 -36.6 -32.25 -34.45 -34.55 -31.95 -36.3 L-29.35 -38.3 M-35.95 -42.3 L-37.7 -40.4 -42.0 -34.8 -37.7 -40.4 -35.95 -42.3 M-22.7 -49.2 L-25.75 -47.3 Q-29.45 -44.6 -32.75 -41.45 L-35.25 -38.95 -40.2 -33.15 Q-43.8 -28.45 -46.3 -23.05 -43.8 -28.45 -40.2 -33.15 L-35.25 -38.95 -32.75 -41.45 Q-29.45 -44.6 -25.75 -47.3 L-22.7 -49.2 M-3.7 -49.5 L-5.6 -47.0 Q-8.6 -43.55 -12.0 -40.55 -13.2 -39.55 -14.65 -39.45 -13.2 -39.55 -12.0 -40.55 -8.6 -43.55 -5.6 -47.0 L-3.7 -49.5 M-37.4 -20.55 L-37.3 -20.65 -37.4 -20.55 Q-42.85 -15.25 -45.45 -8.05 -42.85 -15.25 -37.4 -20.55 M-10.65 -52.35 L-14.55 -48.8 Q-18.2 -45.4 -22.15 -42.6 -18.2 -45.4 -14.55 -48.8 L-10.65 -52.35 M-39.4 -3.45 L-40.35 -2.15 -44.0 2.0 -40.35 -2.15 -39.4 -3.45 M-20.4 37.1 L-22.45 38.7 -27.55 42.3 -22.45 38.7 -20.4 37.1 M-29.6 26.75 Q-30.95 29.2 -33.4 30.95 -36.2 32.95 -39.25 34.55 L-40.85 35.1 -39.25 34.55 Q-36.2 32.95 -33.4 30.95 -30.95 29.2 -29.6 26.75 M-27.9 33.35 L-29.95 34.7 -32.5 35.95 -29.95 34.7 -27.9 33.35 M-37.4 8.35 L-38.25 9.2 Q-40.4 11.4 -42.85 13.2 -40.4 11.4 -38.25 9.2 L-37.4 8.35 M-34.5 14.95 L-35.15 16.05 Q-37.3 19.5 -40.85 20.4 -37.3 19.5 -35.15 16.05 L-34.5 14.95 M-32.2 19.85 L-33.0 21.55 Q-33.75 23.3 -35.35 24.15 -33.75 23.3 -33.0 21.55 L-32.2 19.85 M-40.85 15.5 L-42.05 16.9 Q-44.45 19.65 -47.15 22.15 -44.45 19.65 -42.05 16.9 L-40.85 15.5 M-42.85 1.7 Q-44.3 4.15 -46.1 6.3 L-51.5 11.8 Q-54.8 14.75 -58.95 16.1 -54.8 14.75 -51.5 11.8 L-46.1 6.3 Q-44.3 4.15 -42.85 1.7 M-37.4 23.6 L-38.85 25.25 Q-40.2 26.8 -42.0 27.6 -40.2 26.8 -38.85 25.25 L-37.4 23.6 M-37.65 2.6 Q-40.95 7.55 -45.85 11.1 L-49.45 13.5 -45.85 11.1 Q-40.95 7.55 -37.65 2.6" fill="url(#gradient0)" fill-rule="evenodd" stroke="none"/>
      <path d="M-36.4 -21.45 L-36.65 -21.25 M-36.75 -17.9 L-36.45 -17.15 Q-34.8 -13.25 -35.1 -12.45 L-35.95 -7.1 Q-36.6 -2.55 -32.65 8.9 -28.75 20.35 -24.85 26.0 -21.0 31.7 -19.6 33.0 L-17.25 34.5 M-17.35 34.85 L-17.5 35.45 Q-17.8 36.55 -18.4 37.3 -22.25 42.0 -27.55 42.3 L-32.1 41.8 -34.25 41.1 -31.65 40.25 Q-28.75 39.4 -27.5 36.95 -30.2 37.9 -33.25 38.1 -39.7 38.7 -45.55 36.2 L-47.2 35.4 -45.2 35.4 Q-43.45 35.05 -41.9 33.9 -39.15 31.9 -37.1 29.1 -40.3 29.9 -43.55 29.8 L-52.05 30.5 -44.1 26.0 Q-42.35 25.0 -41.3 23.45 -40.4 22.15 -40.0 20.45 -41.0 22.05 -42.85 22.55 -50.8 25.1 -58.7 22.75 -55.35 22.2 -52.4 20.9 -48.7 19.25 -45.75 16.4 L-50.1 17.15 Q-59.7 19.05 -68.6 16.0 -62.75 14.8 -57.4 12.75 -52.35 10.85 -51.2 6.35 -54.0 7.9 -57.15 7.95 -61.5 8.05 -65.6 6.35 L-59.2 2.4 Q-56.4 0.35 -55.5 -3.15 -58.65 -0.45 -62.75 0.3 -66.55 1.05 -69.9 -0.55 -61.6 -4.75 -58.0 -13.6 L-46.8 -41.15 Q-41.05 -55.3 -28.1 -63.6 -15.65 -71.7 -1.0 -70.6 13.9 -69.0 25.05 -57.5 M-37.4 -20.55 L-36.75 -17.9" fill="none" stroke="#000000" stroke-linecap="round" stroke-linejoin="round" stroke-width="2.0"/>
      <path d="M23.9 -59.25 Q34.6 -57.75 39.5 -43.25 44.4 -28.8 42.5 -12.9 40.55 3.0 36.85 13.5 33.15 23.95 35.2 32.35 37.2 40.75 43.85 45.6 39.8 45.6 36.25 43.2 L34.55 42.1 35.1 43.65 Q35.95 46.0 37.2 48.1 L38.25 49.8 36.7 48.95 Q34.9 47.75 33.5 46.15 31.95 44.3 30.95 41.9 L30.85 41.65 32.8 46.65 Q24.6 39.15 24.5 30.15 24.4 21.15 24.1 19.25 23.75 17.35 23.7 15.2 L23.45 7.85 Q23.25 2.7 26.25 -4.55 29.25 -11.8 28.45 -16.9 27.6 -22.0 25.6 -23.6 L23.4 -22.7 21.35 -21.45 Q19.25 -15.25 14.8 -10.1 L13.35 -8.05 Q11.45 -4.85 11.8 -0.95 9.35 -4.1 11.3 -7.8 L11.8 -8.8 Q15.8 -17.4 14.45 -26.5 L12.35 -41.65 Q10.65 -50.2 6.5 -54.85 0.5 -39.95 -13.9 -34.8 -26.7 -30.4 -36.4 -21.45 M-36.65 -21.25 L-37.3 -20.65 -37.4 -20.55 Q-42.85 -15.25 -45.45 -8.05 M21.35 -21.45 L21.75 -24.65 M30.85 41.65 L30.2 40.0" fill="none" stroke="#000000" stroke-linecap="round" stroke-linejoin="round" stroke-width="2.0"/>
      <path d="M14.7 -59.0 L16.9 -56.6 18.15 -54.95 M7.5 -66.2 Q10.35 -64.7 13.35 -63.55 15.15 -62.85 16.45 -61.35 17.15 -60.55 17.55 -59.55 M27.35 -38.3 L27.35 -38.85 27.35 -39.45 27.85 -38.8 Q29.25 -36.45 29.0 -31.0 28.75 -24.6 29.2 -22.85 L29.7 -21.15 M23.6 -29.65 L24.15 -29.9 24.65 -31.65 Q25.35 -33.65 24.95 -34.75 L24.2 -36.55 M24.15 -29.9 L24.0 -28.5 M36.25 -39.15 Q38.55 -34.1 39.05 -28.5 L39.15 -26.2 M32.25 -40.6 Q34.7 -36.9 35.7 -32.75 36.7 -28.6 37.2 -24.45 L38.1 -16.7 Q38.6 -12.1 38.0 -7.5 M17.6 -19.15 Q18.1 -21.1 20.1 -26.35 21.7 -31.2 20.8 -33.6 L18.15 -40.0 17.3 -41.75 M35.7 -16.1 L35.95 -12.65 36.0 -10.35 M32.55 23.0 Q32.3 17.45 33.75 12.05 34.85 7.9 36.1 3.8 L38.0 -2.3 M-64.15 -3.2 Q-61.85 -4.8 -60.05 -7.15 L-59.25 -8.05 Q-57.35 -10.05 -56.15 -12.45 -53.6 -17.6 -51.35 -23.0 -49.7 -27.05 -48.75 -31.3 L-48.45 -32.85 Q-47.75 -35.75 -46.15 -38.4 L-45.6 -39.4 -44.6 -41.15 -41.2 -46.4 -40.75 -47.1 Q-37.4 -51.85 -33.1 -55.3 L-30.45 -57.5 Q-27.0 -60.4 -23.0 -62.45 M-45.75 -36.25 L-42.4 -41.9 -40.85 -44.05 M-52.9 -14.1 Q-50.15 -19.2 -48.2 -24.7 L-47.0 -28.25 Q-45.25 -33.7 -42.35 -38.75 L-39.05 -44.0 -35.35 -49.2 M-58.4 5.15 Q-54.7 2.1 -51.85 -1.8 L-50.35 -4.05 M-39.7 -23.9 L-37.4 -26.4 Q-35.25 -28.55 -32.65 -30.2 -28.15 -33.1 -24.0 -36.45 L-15.85 -43.5 Q-13.2 -45.9 -11.0 -48.65 L-10.2 -49.3 M-14.65 -39.45 Q-13.2 -39.55 -12.0 -40.55 -8.6 -43.55 -5.6 -47.0 L-3.7 -49.5 M-46.3 -23.05 Q-43.8 -28.45 -40.2 -33.15 L-35.25 -38.95 -32.75 -41.45 Q-29.45 -44.6 -25.75 -47.3 L-22.7 -49.2 M-42.0 -34.8 L-37.7 -40.4 -35.95 -42.3 M-36.6 -32.25 Q-34.45 -34.55 -31.95 -36.3 L-29.35 -38.3 M-32.8 -32.8 L-29.9 -35.05 -27.9 -36.55 M-31.05 -28.5 Q-26.5 -29.9 -23.1 -33.2 L-18.1 -38.3 M-42.0 27.6 Q-40.2 26.8 -38.85 25.25 L-37.4 23.6 M-58.95 16.1 Q-54.8 14.75 -51.5 11.8 L-46.1 6.3 Q-44.3 4.15 -42.85 1.7 M-47.15 22.15 Q-44.45 19.65 -42.05 16.9 L-40.85 15.5" fill="none" stroke="#c7ecfa" stroke-linecap="round" stroke-linejoin="round" stroke-width="1.5"/>
      <path d="M13.55 -56.1 Q15.0 -53.4 16.95 -50.9 L17.55 -50.05 M7.2 -57.55 Q9.75 -56.6 11.0 -54.15 L13.25 -49.8 14.7 -47.2 M19.0 -57.0 L20.85 -54.45 21.6 -53.5 M-4.3 -42.0 L0.8 -48.15 Q3.95 -52.05 5.75 -56.7 M28.8 36.5 Q27.95 34.95 27.45 33.5 26.05 29.5 25.7 25.25 25.2 19.55 25.65 13.8 L26.2 10.9 M35.4 39.4 Q33.3 37.85 32.65 35.3 L31.95 31.9 M31.65 37.4 Q29.55 33.7 29.3 29.35 L29.05 18.7 M-28.75 -48.35 L-22.15 -52.35 -18.4 -54.65 M-50.35 -13.25 Q-46.7 -16.95 -43.6 -21.2 L-40.85 -24.75 M-60.4 -3.2 Q-57.6 -5.75 -55.55 -9.0 L-54.65 -10.65 M-44.6 -6.9 Q-42.95 -8.45 -41.7 -10.65 L-40.55 -12.65 M-53.5 5.75 Q-49.1 2.95 -45.75 -1.15 -43.4 -4.0 -41.35 -7.1 -41.1 -7.45 -41.1 -8.05 M-48.3 -10.95 Q-47.2 -14.9 -43.85 -17.45 L-37.95 -22.45 -37.55 -22.75 -35.95 -24.2 M-10.2 -49.3 L-1.3 -55.7 1.45 -57.25 M-11.5 -37.7 L-8.4 -39.55 Q-7.45 -40.15 -6.6 -40.85 M-44.0 2.0 L-40.35 -2.15 -39.4 -3.45 M-22.15 -42.6 Q-18.2 -45.4 -14.55 -48.8 L-10.65 -52.35 M-35.35 24.15 Q-33.75 23.3 -33.0 21.55 L-32.2 19.85 M-40.85 20.4 Q-37.3 19.5 -35.15 16.05 L-34.5 14.95 M-42.85 13.2 Q-40.4 11.4 -38.25 9.2 L-37.4 8.35 M-32.5 35.95 L-29.95 34.7 -27.9 33.35 M-40.85 35.1 L-39.25 34.55 Q-36.2 32.95 -33.4 30.95 -30.95 29.2 -29.6 26.75 M-27.55 42.3 L-22.45 38.7 -20.4 37.1 M-49.45 13.5 L-45.85 11.1 Q-40.95 7.55 -37.65 2.6" fill="none" stroke="#0a4a63" stroke-linecap="round" stroke-linejoin="round" stroke-width="1.5"/>
      <path d="M20.9 -49.4 Q22.55 -51.9 24.4 -53.9 L25.65 -50.55 Q28.45 -45.8 33.9 -45.35 L33.4 -43.95 32.8 -42.55 Q32.5 -41.8 32.5 -41.0 32.55 -38.9 33.4 -37.1 33.9 -36.0 34.8 -35.0 35.35 -34.35 36.2 -34.4 35.65 -33.95 34.8 -34.15 L32.3 -34.85 Q28.05 -36.1 23.65 -35.6 L22.95 -36.05 21.95 -37.05 Q20.05 -39.7 19.5 -43.05 18.95 -46.5 20.9 -49.4" fill="#d98cd9" fill-rule="evenodd" stroke="none"/>
      <path d="M36.75 -56.35 Q38.6 -57.6 41.05 -57.55 45.05 -58.1 48.7 -60.15 49.4 -60.0 49.15 -58.45 L48.9 -55.4 Q48.95 -51.9 46.9 -49.2 44.7 -46.5 41.35 -47.3 39.95 -47.6 39.25 -46.35 39.0 -43.6 41.65 -42.95 45.4 -41.95 47.45 -38.75 49.0 -36.3 48.55 -33.75 L47.25 -34.05 Q42.8 -36.9 37.6 -36.3 35.7 -36.1 33.4 -37.1 32.55 -38.9 32.5 -41.0 32.5 -41.8 32.8 -42.55 L33.4 -43.95 33.9 -45.35 Q28.45 -45.8 25.65 -50.55 L24.4 -53.9 Q22.55 -51.9 20.9 -49.4 L20.35 -49.65 Q20.2 -50.35 20.3 -50.95 20.7 -53.1 21.95 -54.9 23.45 -57.15 24.45 -59.65 25.9 -63.35 25.95 -67.55 28.75 -67.6 31.2 -66.0 36.05 -62.9 34.95 -57.05 34.7 -55.7 35.05 -54.5 L35.15 -54.15 35.4 -53.7 35.55 -54.65 36.75 -56.35 M36.1 -48.3 Q38.1 -49.75 40.5 -49.75 L46.9 -49.2 40.5 -49.75 Q38.1 -49.75 36.1 -48.3 L36.45 -47.95 Q37.5 -47.15 36.85 -46.05 L35.9 -45.35 36.85 -46.05 Q37.5 -47.15 36.45 -47.95 L36.1 -48.3 35.3 -47.65 36.1 -48.3 33.9 -48.2 33.7 -49.5 31.85 -49.7 Q30.95 -49.5 30.15 -48.5 30.95 -49.5 31.85 -49.7 L33.7 -49.5 33.9 -48.2 36.1 -48.3 M35.9 -52.25 L35.4 -53.7 35.9 -52.25 M31.55 -50.8 L35.15 -54.15 31.55 -50.8" fill="url(#gradient1)" fill-rule="evenodd" stroke="none"/>
      <path d="M36.75 -56.35 Q38.6 -57.6 41.05 -57.55 45.05 -58.1 48.7 -60.15 49.4 -60.0 49.15 -58.45 L48.9 -55.4 Q48.95 -51.9 46.9 -49.2 44.7 -46.5 41.35 -47.3 39.95 -47.6 39.25 -46.35 39.0 -43.6 41.65 -42.95 45.4 -41.95 47.45 -38.75 49.0 -36.3 48.55 -33.75 L48.25 -32.65 Q48.0 -33.55 47.25 -34.05 42.8 -36.9 37.6 -36.3 35.7 -36.1 33.4 -37.1 32.55 -38.9 32.5 -41.0 32.5 -41.8 32.8 -42.55 L33.4 -43.95 33.9 -45.35 Q28.45 -45.8 25.65 -50.55 L24.4 -53.9 Q22.55 -51.9 20.9 -49.4 18.95 -46.5 19.5 -43.05 20.05 -39.7 21.95 -37.05 L22.95 -36.05 23.65 -35.6 Q28.05 -36.1 32.3 -34.85 L34.8 -34.15 Q35.65 -33.95 36.2 -34.4 35.35 -34.35 34.8 -35.0 33.9 -36.0 33.4 -37.1 M35.15 -54.15 L35.05 -54.5 Q34.7 -55.7 34.95 -57.05 36.05 -62.9 31.2 -66.0 28.75 -67.6 25.95 -67.55 25.9 -63.35 24.45 -59.65 23.45 -57.15 21.95 -54.9 20.7 -53.1 20.3 -50.95 20.2 -50.35 20.35 -49.65 M36.1 -48.3 L36.45 -47.95 Q37.5 -47.15 36.85 -46.05 L35.9 -45.35 M35.55 -54.65 L35.15 -54.15 35.4 -53.7 35.55 -54.65 M35.4 -53.7 L35.9 -52.25 M35.3 -47.65 L36.1 -48.3 33.9 -48.2 33.7 -49.5 31.85 -49.7 Q30.95 -49.5 30.15 -48.5" fill="none" stroke="#cc66cc" stroke-linecap="round" stroke-linejoin="round" stroke-width="2.0"/>
      <path d="M36.2 -66.35 L34.7 -66.5 34.3 -66.65 Q33.8 -67.55 34.1 -68.6 34.95 -71.4 37.75 -70.3 39.5 -69.55 40.05 -67.8 40.65 -65.8 39.9 -63.65 38.5 -59.8 36.75 -56.35 L35.55 -54.65 M46.9 -49.2 L50.6 -47.95 52.8 -46.85 Q54.75 -45.75 54.9 -43.65 54.95 -42.95 54.6 -42.5 53.15 -40.65 50.9 -42.0 49.75 -42.65 50.0 -43.9 M46.9 -49.2 L40.5 -49.75 Q38.1 -49.75 36.1 -48.3 M35.15 -54.15 L31.55 -50.8" fill="none" stroke="#ffffcc" stroke-linecap="round" stroke-linejoin="round" stroke-width="2.0"/>
      <path d="M24.8 0.9 Q24.35 1.4 23.75 1.4 23.2 1.4 22.75 0.9 22.3 0.45 22.3 -0.15 22.3 -0.7 22.75 -1.15 23.2 -1.6 23.75 -1.6 L24.8 -1.15 25.3 -0.1 Q25.3 0.45 24.8 0.9 M23.9 2.2 Q25.15 2.2 26.05 3.1 27.0 4.05 27.0 5.3 27.0 6.55 26.05 7.45 25.15 8.4 23.9 8.4 L23.8 8.4 Q22.6 8.35 21.7 7.45 20.8 6.55 20.8 5.3 20.8 4.05 21.7 3.1 22.65 2.2 23.9 2.2 M23.75 8.85 Q24.35 8.85 24.8 9.85 25.3 10.85 25.3 12.2 25.3 13.6 24.8 14.55 24.35 15.55 23.75 15.55 23.2 15.55 22.75 14.55 22.3 13.6 22.3 12.2 22.3 10.85 22.75 9.85 23.2 8.85 23.75 8.85" fill="#01b9fe" fill-rule="evenodd" stroke="none"/>
      <path d="M24.8 0.9 Q24.35 1.4 23.75 1.4 23.2 1.4 22.75 0.9 22.3 0.45 22.3 -0.15 22.3 -0.7 22.75 -1.15 23.2 -1.6 23.75 -1.6 L24.8 -1.15 25.3 -0.1 Q25.3 0.45 24.8 0.9 M23.9 2.2 Q25.15 2.2 26.05 3.1 27.0 4.05 27.0 5.3 27.0 6.55 26.05 7.45 25.15 8.4 23.9 8.4 L23.8 8.4 Q22.6 8.35 21.7 7.45 20.8 6.55 20.8 5.3 20.8 4.05 21.7 3.1 22.65 2.2 23.9 2.2 M23.75 8.85 Q24.35 8.85 24.8 9.85 25.3 10.85 25.3 12.2 25.3 13.6 24.8 14.55 24.35 15.55 23.75 15.55 23.2 15.55 22.75 14.55 22.3 13.6 22.3 12.2 22.3 10.85 22.75 9.85 23.2 8.85 23.75 8.85 Z" fill="none" stroke="#66ffff" stroke-linecap="round" stroke-linejoin="round" stroke-width="1.5"/>
    </g>
    </g>
  </g>
  <defs>
    <radialGradient cx="0" cy="0" gradientTransform="matrix(-0.0041, 0.0719, -0.1251, -0.0071, -2.0, -60.0)" gradientUnits="userSpaceOnUse" id="gradient0" r="819.2" spreadMethod="pad">
      <stop offset="0.0" stop-color="#2351be"/>
      <stop offset="0.3843137254901961" stop-color="#79b3e1"/>
      <stop offset="0.5372549019607843" stop-color="#bad9ef"/>
      <stop offset="0.6862745098039216" stop-color="#79b3e1"/>
      <stop offset="1.0" stop-color="#2351be"/>
    </radialGradient>
    <radialGradient cx="0" cy="0" gradientTransform="matrix(0.0266, 0.0, 0.0, 0.0266, 34.75, -50.65)" gradientUnits="userSpaceOnUse" id="gradient1" r="819.2" spreadMethod="pad">
      <stop offset="0.0" stop-color="#d7b464"/>
      <stop offset="1.0" stop-color="#d98cd9"/>
    </radialGradient>
  </defs>
</svg>