<svg xmlns:xlink="http://www.w3.org/1999/xlink" xmlns="http://www.w3.org/2000/svg" height="202.2px" width="161.9px">
  <g transform="matrix(1.0, 0.0, 0.0, 1.0, 74.15, 81.7)">
    <g data-characterId="1398" height="150.0" transform="matrix(1.0, 0.0, 0.0, 1.0, -53.2, -78.1)" width="117.05" xlink:href="#shape0"><g id="shape0" transform="matrix(1.0, 0.0, 0.0, 1.0, 53.2, 78.1)">
      <path d="M-39.55 -22.15 L-39.35 -22.0 -39.0 -22.4 -35.75 -12.05 Q-46.7 -12.85 -51.45 -22.9 -54.05 -28.35 -51.2 -33.6 -49.7 -36.35 -47.4 -38.25 -45.95 -39.45 -45.55 -41.15 -45.35 -41.9 -45.6 -42.5 -47.85 -47.3 -45.8 -51.8 L-44.9 -52.2 Q-40.55 -51.75 -38.35 -55.3 -37.1 -57.4 -36.5 -59.85 -33.3 -72.5 -20.4 -76.0 L-17.8 -76.05 Q-7.5 -74.85 2.4 -77.4 4.45 -78.0 5.95 -76.6 10.8 -72.0 15.1 -67.1 L14.95 -66.15 14.95 -65.85 16.65 -65.65 Q17.9 -65.3 18.9 -64.55 23.0 -61.4 27.55 -58.5 28.45 -57.85 28.75 -56.75 29.65 -53.45 32.05 -51.05 36.8 -46.35 37.7 -39.85 L38.45 -35.15 Q40.55 -23.15 37.8 -11.5 L30.65 7.15 26.9 12.9 24.95 15.2 Q23.15 4.4 25.25 -0.7 27.3 -5.85 28.05 -9.5 28.75 -13.2 28.95 -17.9 29.15 -22.05 25.9 -23.35 24.9 -23.8 23.0 -22.3 21.1 -20.85 20.5 -18.3 19.9 -15.75 19.1 -14.25 18.3 -12.8 16.15 -11.5 L16.05 -11.45 16.05 -10.9 Q15.45 -7.6 18.35 -5.75 L18.7 -5.3 18.4 -4.6 Q14.15 -4.75 12.55 -8.3 12.15 -9.2 12.25 -10.25 L12.15 -12.85 Q9.3 -15.9 5.6 -17.8 5.2 -17.9 5.15 -18.35 4.65 -21.9 5.95 -25.5 5.05 -27.55 2.4 -27.5 L-0.7 -27.85 Q-4.1 -28.65 -5.45 -32.05 -6.3 -34.15 -8.6 -34.1 -16.65 -33.1 -21.65 -39.0 -22.85 -40.45 -23.0 -42.75 -23.3 -46.65 -22.45 -50.5 L-23.6 -50.65 -25.0 -49.9 Q-32.25 -44.15 -38.1 -36.7 L-38.5 -36.2 Q-40.4 -33.55 -41.8 -30.4 -44.0 -25.3 -39.55 -22.15 -44.0 -25.3 -41.8 -30.4 -40.4 -33.55 -38.5 -36.2 L-38.35 -36.1 Q-39.25 -30.25 -39.2 -26.7 -39.2 -23.2 -39.0 -22.4 L-39.55 -22.15 M2.3 -36.25 Q7.75 -35.45 8.0 -30.05 8.05 -29.2 8.9 -28.7 11.95 -26.85 13.4 -23.9 13.65 -23.35 13.35 -22.75 L12.5 -20.95 Q11.4 -18.85 13.45 -17.2 14.85 -16.0 15.7 -14.2 16.35 -12.95 16.15 -11.5 16.35 -12.95 15.7 -14.2 14.85 -16.0 13.45 -17.2 11.4 -18.85 12.5 -20.95 L13.35 -22.75 Q13.65 -23.35 13.4 -23.9 11.95 -26.85 8.9 -28.7 8.05 -29.2 8.0 -30.05 7.75 -35.45 2.3 -36.25 M-1.15 -60.4 Q-0.25 -61.75 1.3 -62.15 L3.7 -63.0 Q9.1 -65.3 14.95 -65.85 9.1 -65.3 3.7 -63.0 L1.3 -62.15 Q-0.25 -61.75 -1.15 -60.4 M18.4 -27.6 L18.75 -27.0 Q19.4 -24.3 18.4 -21.85 19.4 -24.3 18.75 -27.0 L18.4 -27.6 M11.5 -17.85 Q10.35 -18.7 9.35 -19.7 8.65 -20.4 8.8 -21.15 9.55 -24.75 7.45 -28.2 L6.15 -29.7 Q5.2 -30.45 4.0 -30.65 0.7 -31.2 -1.55 -33.5 L-3.0 -34.95 Q-6.15 -37.9 -10.35 -37.7 L-12.05 -37.8 -14.45 -38.15 Q-19.2 -38.75 -19.3 -43.15 -19.35 -46.1 -19.55 -48.35 -19.35 -46.1 -19.3 -43.15 -19.2 -38.75 -14.45 -38.15 L-12.05 -37.8 -10.35 -37.7 Q-6.15 -37.9 -3.0 -34.95 L-1.55 -33.5 Q0.7 -31.2 4.0 -30.65 5.2 -30.45 6.15 -29.7 L7.45 -28.2 Q9.55 -24.75 8.8 -21.15 8.65 -20.4 9.35 -19.7 10.35 -18.7 11.5 -17.85 M16.7 -33.95 Q16.4 -34.8 16.7 -35.1 18.55 -37.0 16.15 -39.15 L14.25 -40.55 12.5 -41.85 Q10.75 -43.6 9.2 -42.0 10.75 -43.6 12.5 -41.85 L14.25 -40.55 16.15 -39.15 Q18.55 -37.0 16.7 -35.1 16.4 -34.8 16.7 -33.95 M21.4 -36.2 Q21.9 -37.4 21.6 -38.25 20.45 -41.75 17.25 -43.75 20.45 -41.75 21.6 -38.25 21.9 -37.4 21.4 -36.2 M31.65 -31.65 Q30.75 -29.3 31.75 -26.5 32.85 -23.45 33.05 -20.15 L33.25 -18.4 Q34.15 -12.1 31.1 -6.9 34.15 -12.1 33.25 -18.4 L33.05 -20.15 Q32.85 -23.45 31.75 -26.5 30.75 -29.3 31.65 -31.65 M24.2 -29.9 L24.7 -28.75 Q25.3 -27.4 25.35 -25.9 25.3 -27.4 24.7 -28.75 L24.2 -29.9 M25.35 -46.6 Q26.15 -43.35 27.7 -40.35 28.95 -37.9 28.2 -35.1 28.95 -37.9 27.7 -40.35 26.15 -43.35 25.35 -46.6 M27.65 -47.2 L27.6 -48.35 Q27.25 -52.0 23.6 -52.95 27.25 -52.0 27.6 -48.35 L27.65 -47.2 M29.95 -48.35 L30.45 -47.2 32.25 -42.6 30.45 -47.2 29.95 -48.35 M24.2 -42.6 Q23.9 -43.15 23.75 -43.8 L23.5 -45.45 Q23.1 -47.9 21.15 -49.9 L19.8 -51.4 19.0 -52.95 Q17.0 -59.2 9.8 -59.25 17.0 -59.2 19.0 -52.95 L19.8 -51.4 21.15 -49.9 Q23.1 -47.9 23.5 -45.45 L23.75 -43.8 Q23.9 -43.15 24.2 -42.6 M17.85 -45.45 Q16.2 -47.6 13.8 -47.5 11.0 -47.4 10.0 -50.15 9.15 -52.55 7.0 -53.7 L4.45 -54.9 1.15 -55.9 Q-2.3 -56.65 -4.0 -54.65 -2.3 -56.65 1.15 -55.9 L4.45 -54.9 7.0 -53.7 Q9.15 -52.55 10.0 -50.15 11.0 -47.4 13.8 -47.5 16.2 -47.6 17.85 -45.45 M41.15 -6.35 L41.4 -6.3 Q43.65 -6.55 45.2 -4.9 47.8 -2.15 49.65 0.9 L51.7 4.3 Q54.75 9.3 55.35 15.2 L56.5 28.75 Q56.75 32.1 58.95 34.7 61.7 37.85 62.9 41.85 64.15 46.05 62.1 50.0 60.05 53.95 57.45 57.9 56.9 58.8 56.85 59.9 L56.6 64.7 51.2 57.0 50.75 58.55 Q49.0 64.85 52.5 70.75 L52.4 71.4 Q47.0 70.65 44.0 65.95 39.75 59.3 41.4 51.25 L40.4 51.9 Q37.95 54.15 37.45 57.65 L36.95 57.55 Q34.45 54.1 33.55 50.0 33.0 47.65 33.45 45.3 34.3 40.75 36.4 36.5 38.75 31.8 36.8 27.05 L35.45 31.95 Q33.65 30.6 32.5 28.4 L31.2 25.5 Q27.95 16.75 31.85 8.1 35.2 6.9 37.25 3.4 39.95 -1.2 41.15 -6.35 M36.95 13.85 Q37.95 11.5 36.85 9.2 37.95 11.5 36.95 13.85 M40.85 20.15 L41.65 17.95 Q42.3 16.55 42.1 14.95 41.85 11.95 40.3 9.2 41.85 11.95 42.1 14.95 42.3 16.55 41.65 17.95 L40.85 20.15 M44.3 9.2 L43.75 8.05 Q42.75 5.85 40.85 4.05 42.75 5.85 43.75 8.05 L44.3 9.2 M54.1 31.1 L53.15 29.25 52.15 26.6 51.4 24.65 Q49.9 21.3 50.95 17.8 L51.0 16.15 50.65 13.25 Q50.5 8.85 48.4 5.15 L47.25 2.85 Q45.8 -0.5 42.6 -0.55 45.8 -0.5 47.25 2.85 L48.4 5.15 Q50.5 8.85 50.65 13.25 L51.0 16.15 50.95 17.8 Q49.9 21.3 51.4 24.65 L52.15 26.6 53.15 29.25 54.1 31.1 M-1.15 -36.8 Q-1.15 -37.65 -1.45 -38.4 -2.0 -39.7 -3.1 -40.45 -5.0 -41.7 -7.45 -42.1 L-9.75 -42.75 Q-13.2 -44.0 -13.25 -47.2 -13.2 -44.0 -9.75 -42.75 L-7.45 -42.1 Q-5.0 -41.7 -3.1 -40.45 -2.0 -39.7 -1.45 -38.4 -1.15 -37.65 -1.15 -36.8 M-19.55 -57.6 Q-23.6 -58.5 -23.6 -54.65 -23.6 -58.5 -19.55 -57.6 M-20.7 -63.85 Q-24.95 -64.65 -27.15 -61.05 L-28.4 -58.55 -28.9 -56.4 Q-29.05 -55.5 -29.55 -54.8 -32.3 -51.1 -36.25 -48.35 -40.8 -45.15 -38.55 -40.85 -40.8 -45.15 -36.25 -48.35 -32.3 -51.1 -29.55 -54.8 -29.05 -55.5 -28.9 -56.4 L-28.4 -58.55 -27.15 -61.05 Q-24.95 -64.65 -20.7 -63.85 M6.35 -71.95 Q1.4 -76.8 -4.65 -73.2 -6.75 -71.95 -9.15 -72.2 -21.7 -73.5 -29.45 -64.5 -33.1 -60.25 -35.6 -55.2 L-37.0 -52.45 Q-38.5 -49.85 -41.35 -48.7 -42.3 -48.3 -42.6 -47.55 -43.15 -46.05 -43.15 -44.3 -43.15 -43.15 -42.65 -42.3 -41.6 -40.65 -42.2 -38.6 -42.55 -37.4 -43.5 -36.75 -45.1 -35.65 -46.7 -33.4 L-47.5 -32.1 Q-49.35 -27.8 -47.1 -23.65 L-46.15 -21.8 Q-43.75 -17.0 -38.55 -16.1 -43.75 -17.0 -46.15 -21.8 L-47.1 -23.65 Q-49.35 -27.8 -47.5 -32.1 L-46.7 -33.4 Q-45.1 -35.65 -43.5 -36.75 -42.55 -37.4 -42.2 -38.6 -41.6 -40.65 -42.65 -42.3 -43.15 -43.15 -43.15 -44.3 -43.15 -46.05 -42.6 -47.55 -42.3 -48.3 -41.35 -48.7 -38.5 -49.85 -37.0 -52.45 L-35.6 -55.2 Q-33.1 -60.25 -29.45 -64.5 -21.7 -73.5 -9.15 -72.2 -6.75 -71.95 -4.65 -73.2 1.4 -76.8 6.35 -71.95" fill="url(#gradient0)" fill-rule="evenodd" stroke="none"/>
      <path d="M30.65 7.15 L37.8 -11.5 Q39.2 -11.5 40.2 -10.0 41.15 -8.5 41.15 -6.35 39.95 -1.2 37.25 3.4 35.2 6.9 31.85 8.1 L31.2 7.85 30.65 7.15" fill="#ba5601" fill-rule="evenodd" stroke="none"/>
      <path d="M14.95 -66.15 L15.1 -67.1 Q10.8 -72.0 5.95 -76.6 4.45 -78.0 2.4 -77.4 -7.5 -74.85 -17.8 -76.05 L-20.4 -76.0 Q-33.3 -72.5 -36.5 -59.85 -37.1 -57.4 -38.35 -55.3 -40.55 -51.75 -44.9 -52.2 L-45.8 -51.8 Q-47.85 -47.3 -45.6 -42.5 -45.35 -41.9 -45.55 -41.15 -45.95 -39.45 -47.4 -38.25 -49.7 -36.35 -51.2 -33.6 -54.05 -28.35 -51.45 -22.9 -46.7 -12.85 -35.75 -12.05 L-39.0 -22.4 -39.35 -22.0 -39.55 -22.15 Q-44.0 -25.3 -41.8 -30.4 -40.4 -33.55 -38.5 -36.2 L-38.1 -36.7 Q-32.25 -44.15 -25.0 -49.9 L-23.6 -50.65 M-22.45 -50.5 Q-23.3 -46.65 -23.0 -42.75 -22.85 -40.45 -21.65 -39.0 -16.65 -33.1 -8.6 -34.1 -6.3 -34.15 -5.45 -32.05 -4.1 -28.65 -0.7 -27.85 L2.4 -27.5 Q5.05 -27.55 5.95 -25.5 4.65 -21.9 5.15 -18.35 5.2 -17.9 5.6 -17.8 9.3 -15.9 12.15 -12.85 L12.25 -10.25 Q12.15 -9.2 12.55 -8.3 14.15 -4.75 18.4 -4.6 L18.7 -5.3 18.35 -5.75 Q15.45 -7.6 16.05 -10.9 L16.15 -11.5 Q18.3 -12.8 19.1 -14.25 19.9 -15.75 20.5 -18.3 21.1 -20.85 23.0 -22.3 24.9 -23.8 25.9 -23.35 29.15 -22.05 28.95 -17.9 28.75 -13.2 28.05 -9.5 27.3 -5.85 25.25 -0.7 23.15 4.4 24.95 15.2 L26.9 12.9 30.65 7.15 37.8 -11.5 Q39.2 -11.5 40.2 -10.0 41.15 -8.5 41.15 -6.35 39.95 -1.2 37.25 3.4 35.2 6.9 31.85 8.1 L31.2 7.85 30.65 7.15 M16.05 -11.45 L16.15 -11.5 Q16.35 -12.95 15.7 -14.2 14.85 -16.0 13.45 -17.2 11.4 -18.85 12.5 -20.95 L13.35 -22.75 Q13.65 -23.35 13.4 -23.9 11.95 -26.85 8.9 -28.7 8.05 -29.2 8.0 -30.05 7.75 -35.45 2.3 -36.25 M37.8 -11.5 Q40.55 -23.15 38.45 -35.15 L37.7 -39.85 Q36.8 -46.35 32.05 -51.05 29.65 -53.45 28.75 -56.75 28.45 -57.85 27.55 -58.5 23.0 -61.4 18.9 -64.55 17.9 -65.3 16.65 -65.65 L14.95 -65.85 Q9.1 -65.3 3.7 -63.0 L1.3 -62.15 Q-0.25 -61.75 -1.15 -60.4 M41.4 -6.3 Q43.65 -6.55 45.2 -4.9 47.8 -2.15 49.65 0.9 L51.7 4.3 Q54.75 9.3 55.35 15.2 L56.5 28.75 Q56.75 32.1 58.95 34.7 61.7 37.85 62.9 41.85 64.15 46.05 62.1 50.0 60.05 53.95 57.45 57.9 56.9 58.8 56.85 59.9 L56.6 64.7 51.2 57.0 50.75 58.55 Q49.0 64.85 52.5 70.75 L52.65 71.35 52.4 71.4 Q47.0 70.65 44.0 65.95 39.75 59.3 41.4 51.25 L40.4 51.9 Q37.95 54.15 37.45 57.65 L37.4 57.9 36.95 57.55 Q34.45 54.1 33.55 50.0 33.0 47.65 33.45 45.3 34.3 40.75 36.4 36.5 38.75 31.8 36.8 27.05 L35.45 31.95 Q33.65 30.6 32.5 28.4 L31.2 25.5 Q27.95 16.75 31.85 8.1 M-38.35 -36.1 L-38.1 -36.7 M-38.35 -36.1 Q-39.25 -30.25 -39.2 -26.7 -39.2 -23.2 -39.0 -22.4" fill="none" stroke="#000000" stroke-linecap="round" stroke-linejoin="round" stroke-width="2.0"/>
      <path d="M-4.0 -54.65 Q-2.3 -56.65 1.15 -55.9 L4.45 -54.9 7.0 -53.7 Q9.15 -52.55 10.0 -50.15 11.0 -47.4 13.8 -47.5 16.2 -47.6 17.85 -45.45 M9.8 -59.25 Q17.0 -59.2 19.0 -52.95 L19.8 -51.4 21.15 -49.9 Q23.1 -47.9 23.5 -45.45 L23.75 -43.8 Q23.9 -43.15 24.2 -42.6 M32.25 -42.6 L30.45 -47.2 29.95 -48.35 M23.6 -52.95 Q27.25 -52.0 27.6 -48.35 L27.65 -47.2 M28.2 -35.1 Q28.95 -37.9 27.7 -40.35 26.15 -43.35 25.35 -46.6 M25.35 -25.9 Q25.3 -27.4 24.7 -28.75 L24.2 -29.9 M31.1 -6.9 Q34.15 -12.1 33.25 -18.4 L33.05 -20.15 Q32.85 -23.45 31.75 -26.5 30.75 -29.3 31.65 -31.65 M17.25 -43.75 Q20.45 -41.75 21.6 -38.25 21.9 -37.4 21.4 -36.2 M9.2 -42.0 Q10.75 -43.6 12.5 -41.85 L14.25 -40.55 16.15 -39.15 Q18.55 -37.0 16.7 -35.1 16.4 -34.8 16.7 -33.95 M-19.55 -48.35 Q-19.35 -46.1 -19.3 -43.15 -19.2 -38.75 -14.45 -38.15 L-12.05 -37.8 -10.35 -37.7 Q-6.15 -37.9 -3.0 -34.95 L-1.55 -33.5 Q0.7 -31.2 4.0 -30.65 5.2 -30.45 6.15 -29.7 L7.45 -28.2 Q9.55 -24.75 8.8 -21.15 8.65 -20.4 9.35 -19.7 10.35 -18.7 11.5 -17.85 M18.4 -21.85 Q19.4 -24.3 18.75 -27.0 L18.4 -27.6 M42.6 -0.55 Q45.8 -0.5 47.25 2.85 L48.4 5.15 Q50.5 8.85 50.65 13.25 L51.0 16.15 50.95 17.8 Q49.9 21.3 51.4 24.65 L52.15 26.6 53.15 29.25 54.1 31.1 M40.85 4.05 Q42.75 5.85 43.75 8.05 L44.3 9.2 M40.3 9.2 Q41.85 11.95 42.1 14.95 42.3 16.55 41.65 17.95 L40.85 20.15 M36.85 9.2 Q37.95 11.5 36.95 13.85 M-38.55 -16.1 Q-43.75 -17.0 -46.15 -21.8 L-47.1 -23.65 Q-49.35 -27.8 -47.5 -32.1 L-46.7 -33.4 Q-45.1 -35.65 -43.5 -36.75 -42.55 -37.4 -42.2 -38.6 -41.6 -40.65 -42.65 -42.3 -43.15 -43.15 -43.15 -44.3 -43.15 -46.05 -42.6 -47.55 -42.3 -48.3 -41.35 -48.7 -38.5 -49.85 -37.0 -52.45 L-35.6 -55.2 Q-33.1 -60.25 -29.45 -64.5 -21.7 -73.5 -9.15 -72.2 -6.75 -71.95 -4.65 -73.2 1.4 -76.8 6.35 -71.95 M-38.55 -40.85 Q-40.8 -45.15 -36.25 -48.35 -32.3 -51.1 -29.55 -54.8 -29.05 -55.5 -28.9 -56.4 L-28.4 -58.55 -27.15 -61.05 Q-24.95 -64.65 -20.7 -63.85 M-23.6 -54.65 Q-23.6 -58.5 -19.55 -57.6 M-13.25 -47.2 Q-13.2 -44.0 -9.75 -42.75 L-7.45 -42.1 Q-5.0 -41.7 -3.1 -40.45 -2.0 -39.7 -1.45 -38.4 -1.15 -37.65 -1.15 -36.8" fill="none" stroke="#884d2d" stroke-linecap="round" stroke-linejoin="round" stroke-width="1.5"/>
    </g>
    </g>
  </g>
  <defs>
    <radialGradient cx="0" cy="0" gradientTransform="matrix(0.001, 0.1025, -0.1487, 0.0014, -5.2, -58.65)" gradientUnits="userSpaceOnUse" id="gradient0" r="819.2" spreadMethod="pad">
      <stop offset="0.0" stop-color="#1d1512"/>
      <stop offset="0.23137254901960785" stop-color="#43221b"/>
      <stop offset="0.3176470588235294" stop-color="#663622"/>
      <stop offset="0.38823529411764707" stop-color="#4a291c"/>
      <stop offset="1.0" stop-color="#241c17"/>
    </radialGradient>
  </defs>
</svg>