<svg xmlns:xlink="http://www.w3.org/1999/xlink" xmlns="http://www.w3.org/2000/svg" height="16.65px" width="27.9px">
  <g transform="matrix(1.0, 0.0, 0.0, 1.0, 11.2, 8.0)">
    <g data-characterId="1310" height="8.75" transform="matrix(1.0, 0.0, 0.0, 1.0, -8.7, -3.05)" width="20.8" xlink:href="#shape0"><g id="shape0" transform="matrix(1.0, 0.0, 0.0, 1.0, 8.7, 3.05)">
      <path d="M-8.15 0.55 L-8.25 0.6 -8.45 0.5 -8.7 0.25 -8.7 0.15 -8.65 -0.2 -8.6 -0.4 Q-7.85 -1.35 -6.75 -1.9 L-6.1 -1.9 Q-3.6 -0.8 -2.1 -1.6 L1.65 -1.85 7.65 -1.6 Q11.15 -1.95 8.95 -0.9 L8.65 -0.75 8.6 -0.75 6.3 -0.35 1.25 0.2 0.4 0.35 -2.95 0.65 -5.35 0.65 -7.35 0.35 -7.55 0.2 -7.7 0.2 -7.75 0.2 -7.95 0.25 -8.15 0.35 -8.15 0.55" fill="#d18a70" fill-rule="evenodd" stroke="none"/>
      <path d="M8.95 -0.9 L9.65 -0.75 9.75 -0.65 9.8 -0.6 9.8 -0.5 9.9 -0.5 6.5 1.95 4.25 3.5 Q0.45 5.35 -3.9 4.65 L-5.05 4.3 Q-7.65 3.0 -8.15 0.55 L-8.15 0.35 -7.95 0.25 -7.75 0.2 -7.7 0.2 -7.55 0.2 -7.35 0.35 -7.3 0.5 -7.05 0.85 -5.35 0.65 -2.95 0.65 -2.15 0.7 -0.8 0.6 1.25 0.2 6.3 -0.35 8.6 -0.75 8.65 -0.75 8.95 -0.9 M1.3 1.85 L0.6 1.65 Q0.5 1.65 0.45 1.75 -2.45 2.65 -5.25 1.75 L-5.6 1.9 -5.65 2.15 -5.3 2.75 Q-1.4 4.6 1.5 1.9 L1.3 1.85" fill="#dda991" fill-rule="evenodd" stroke="none"/>
      <path d="M1.3 1.85 L1.5 1.9 Q-1.4 4.6 -5.3 2.75 L-5.65 2.15 -5.6 1.9 -5.25 1.75 Q-2.45 2.65 0.45 1.75 0.5 1.65 0.6 1.65 L1.3 1.85" fill="#e8c2b5" fill-rule="evenodd" stroke="none"/>
      <path d="M11.6 -2.55 Q10.5 -1.35 9.25 -1.0 L6.75 -0.2 3.15 0.5 -0.7 0.8 -3.0 0.8 -5.55 0.7 Q-7.4 0.65 -8.15 0.2" fill="none" stroke="#000000" stroke-linecap="round" stroke-linejoin="round" stroke-width="2.0"/>
      <path d="M-2.55 5.1 Q-1.3 5.35 -0.05 5.1 L0.7 4.9 1.1 4.9" fill="none" stroke="#aa7948" stroke-linecap="round" stroke-linejoin="round" stroke-width="2.0"/>
    </g>
  </g>
  </g>
  <defs>
    </defs>
</svg>