<svg xmlns:xlink="http://www.w3.org/1999/xlink" xmlns="http://www.w3.org/2000/svg" height="202.2px" width="161.9px">
  <g transform="matrix(1.0, 0.0, 0.0, 1.0, 74.15, 81.7)">
    <g data-characterId="1456" height="147.9" transform="matrix(1.0, 0.0, 0.0, 1.0, -46.9, -74.4)" width="93.5" xlink:href="#shape0"><g id="shape0" transform="matrix(1.0, 0.0, 0.0, 1.0, 46.9, 74.4)">
      <path d="M11.55 -68.15 Q15.3 -65.8 19.6 -64.25 24.65 -62.5 27.8 -58.0 24.65 -62.5 19.6 -64.25 15.3 -65.8 11.55 -68.15 M2.35 -66.85 L1.75 -68.1 2.35 -66.85 3.45 -67.2 2.35 -66.85 2.9 -65.8 2.35 -66.85 -0.4 -65.35 2.35 -66.85 M-44.35 39.0 L-44.65 24.9 Q-44.9 18.5 -44.65 13.3 -44.45 8.1 -45.25 2.6 -46.1 -2.9 -46.35 -9.9 -46.65 -16.9 -45.6 -25.15 -44.55 -33.4 -42.1 -41.15 -39.5 -49.7 -35.35 -57.5 -33.8 -60.45 -31.35 -62.1 L-27.4 -64.55 -23.05 -67.05 Q-20.75 -68.45 -18.2 -69.35 -10.5 -72.15 -2.7 -73.85 -1.85 -74.0 -1.1 -73.45 1.3 -71.45 1.75 -68.1 4.55 -70.0 7.6 -71.25 L8.75 -71.3 Q15.8 -68.6 22.3 -65.05 27.55 -62.2 32.05 -58.1 L34.25 -55.25 Q38.45 -47.5 41.0 -39.0 L43.25 -31.4 Q45.25 -24.55 44.95 -17.2 L44.5 -2.85 44.0 14.0 Q43.7 22.7 44.45 31.45 L45.2 39.0 40.1 39.0 36.7 39.0 34.05 39.0 33.85 30.85 33.25 13.35 32.4 -2.75 31.65 -17.05 32.4 -2.75 33.25 13.35 33.85 30.85 34.05 39.0 31.65 39.0 28.95 39.0 28.8 24.85 28.45 11.05 27.9 -6.45 27.4 -22.55 27.9 -6.45 28.45 11.05 28.8 24.85 28.95 39.0 25.25 39.0 25.35 36.8 25.5 26.6 25.2 19.95 Q24.5 12.5 24.1 5.15 23.5 -3.7 22.25 -12.45 23.5 -3.7 24.1 5.15 24.5 12.5 25.2 19.95 L25.5 26.6 25.35 36.8 25.25 39.0 23.4 39.0 21.1 39.0 20.45 23.45 Q20.05 15.35 18.85 7.35 20.05 15.35 20.45 23.45 L21.1 39.0 17.2 39.0 16.8 25.25 Q16.5 18.75 15.8 12.25 L14.3 -3.2 Q13.7 -10.35 12.7 -17.15 L12.0 -19.85 11.7 -8.05 8.65 -17.25 Q6.0 -25.6 4.05 -34.25 3.15 -38.2 1.65 -41.8 L-2.95 -52.7 Q-3.6 -54.35 -4.75 -55.5 L-5.55 -56.4 -6.15 -55.9 Q-8.4 -51.45 -12.0 -48.25 L-19.55 -41.5 -30.3 -30.75 Q-33.2 -27.65 -35.0 -23.55 L-36.1 -20.4 -35.7 -19.85 Q-36.35 -19.25 -36.7 -10.85 -37.1 -2.5 -32.75 9.25 L-32.6 9.6 Q-28.3 20.95 -23.25 31.6 -21.5 35.2 -17.7 34.8 L-17.35 35.2 -17.8 39.0 -24.7 39.0 -24.95 36.8 -25.45 34.0 -24.95 36.8 -24.7 39.0 -29.55 39.0 -32.8 39.0 -33.1 39.0 -32.8 23.95 -32.6 9.6 -32.8 23.95 -33.1 39.0 -37.05 39.0 -38.6 39.0 -38.7 25.8 -38.4 8.75 Q-38.3 1.15 -37.65 -6.45 -38.3 1.15 -38.4 8.75 L-38.7 25.8 -38.6 39.0 -41.75 39.0 -44.35 39.0 M-41.1 -2.3 L-41.1 13.8 -41.35 26.7 -41.75 39.0 -41.35 26.7 -41.1 13.8 -41.1 -2.3 M6.85 -68.6 Q9.85 -67.95 12.45 -65.95 16.4 -62.95 19.65 -58.9 16.4 -62.95 12.45 -65.95 9.85 -67.95 6.85 -68.6 M1.7 -58.9 Q4.6 -58.05 6.4 -55.65 9.45 -51.55 10.6 -46.25 11.15 -43.55 12.85 -41.9 11.15 -43.55 10.6 -46.25 9.45 -51.55 6.4 -55.65 4.6 -58.05 1.7 -58.9 M2.95 -63.5 L4.6 -64.5 Q5.2 -64.75 5.6 -64.5 11.35 -61.05 16.7 -57.1 11.35 -61.05 5.6 -64.5 5.2 -64.75 4.6 -64.5 L2.95 -63.5 M9.85 -58.0 L12.45 -56.55 Q16.95 -53.9 19.65 -49.25 16.95 -53.9 12.45 -56.55 L9.85 -58.0 M23.5 -59.85 L29.95 -52.5 23.5 -59.85 M15.85 -45.1 Q18.55 -40.35 20.15 -35.0 22.4 -27.85 22.25 -20.25 22.4 -27.85 20.15 -35.0 18.55 -40.35 15.85 -45.1 M11.1 -39.6 L14.4 -31.6 Q16.95 -24.95 18.4 -17.95 16.95 -24.95 14.4 -31.6 L11.1 -39.6 M11.55 -24.4 L11.25 -26.2 Q10.6 -29.35 8.95 -31.75 10.6 -29.35 11.25 -26.2 L11.55 -24.4 M32.1 -45.55 Q33.1 -44.9 33.45 -43.7 34.55 -40.45 36.35 -37.75 34.55 -40.45 33.45 -43.7 33.1 -44.9 32.1 -45.55 M20.15 -50.15 L20.75 -49.1 24.3 -42.3 Q28.05 -34.9 29.95 -26.7 28.05 -34.9 24.3 -42.3 L20.75 -49.1 20.15 -50.15 M27.8 -42.35 L32.1 -32.7 27.8 -42.35 M27.4 -49.7 L29.55 -46.1 Q33.95 -38.9 35.1 -30.4 33.95 -38.9 29.55 -46.1 L27.4 -49.7 M22.7 -38.65 L25.65 -28.55 22.7 -38.65 M16.7 -17.05 Q17.0 -12.75 18.2 -8.6 19.35 -4.55 19.85 -0.45 L20.95 10.65 22.15 23.0 23.25 35.9 23.4 39.0 23.25 35.9 22.15 23.0 20.95 10.65 19.85 -0.45 Q19.35 -4.55 18.2 -8.6 17.0 -12.75 16.7 -17.05 M33.8 -19.8 L34.45 -3.7 34.9 9.45 Q35.05 15.65 35.6 21.65 L36.15 29.2 36.7 39.0 36.15 29.2 35.6 21.65 Q35.05 15.65 34.9 9.45 L34.45 -3.7 33.8 -19.8 M35.1 -25.8 Q36.4 -19.2 36.75 -12.5 L37.4 -1.85 38.55 15.2 39.35 27.85 39.95 35.9 40.1 39.0 39.95 35.9 39.35 27.85 38.55 15.2 37.4 -1.85 36.75 -12.5 Q36.4 -19.2 35.1 -25.8 M30.4 -13.8 L31.45 -0.9 Q32.05 7.0 31.5 14.9 L31.05 22.35 Q30.7 29.2 31.4 35.85 L31.65 39.0 31.4 35.85 Q30.7 29.2 31.05 22.35 L31.5 14.9 Q32.05 7.0 31.45 -0.9 L30.4 -13.8 M16.25 -33.15 L19.65 -23.95 16.25 -33.15 M41.1 -14.75 L41.1 -18.9 Q40.9 -25.7 38.95 -32.2 40.9 -25.7 41.1 -18.9 L41.1 -14.75 M32.95 -49.7 L38.05 -37.3 32.95 -49.7 M40.2 13.35 Q40.55 7.0 39.9 0.6 L38.5 -13.8 39.9 0.6 Q40.55 7.0 40.2 13.35 M-36.8 -51.55 Q-34.55 -57.6 -29.25 -61.0 -27.65 -62.0 -26.15 -63.2 -19.7 -68.3 -12.0 -69.85 L-7.85 -70.5 -4.25 -71.1 -3.2 -70.95 Q-1.95 -69.65 -1.3 -67.65 -1.95 -69.65 -3.2 -70.95 L-4.25 -71.1 -7.85 -70.5 -12.0 -69.85 Q-19.7 -68.3 -26.15 -63.2 -27.65 -62.0 -29.25 -61.0 -34.55 -57.6 -36.8 -51.55 M-32.1 -48.8 L-27.1 -54.05 Q-19.05 -62.6 -8.9 -67.95 L-5.6 -65.35 -8.9 -67.95 Q-19.05 -62.6 -27.1 -54.05 L-32.1 -48.8 M-1.7 -62.15 L0.0 -63.5 -1.7 -62.15 M-33.5 -40.6 L-28.85 -45.8 -18.7 -56.45 -10.7 -64.0 -18.7 -56.45 -28.85 -45.8 -33.5 -40.6 -40.2 -28.55 -33.5 -40.6 -41.95 -28.55 -33.5 -40.6 M-41.1 -17.05 Q-40.55 -23.15 -37.4 -28.25 -33.55 -34.5 -28.75 -40.05 L-17.75 -52.75 Q-14.4 -56.65 -11.6 -61.2 -14.4 -56.65 -17.75 -52.75 L-28.75 -40.05 Q-33.55 -34.5 -37.4 -28.25 -40.55 -23.15 -41.1 -17.05 M-3.45 -69.95 L-1.7 -65.8 -3.45 -69.95 M-35.1 -43.25 L-33.45 -45.65 Q-29.4 -51.4 -24.4 -56.15 -29.4 -51.4 -33.45 -45.65 L-35.1 -43.25 M-35.5 -27.6 L-30.8 -34.5 -35.5 -27.6 M-43.25 -28.1 L-42.5 -32.05 Q-40.75 -40.3 -37.25 -47.85 -40.75 -40.3 -42.5 -32.05 L-43.25 -28.1 M-38.55 -13.45 L-36.1 -20.4 -38.55 -13.45 M-41.5 -35.0 L-38.05 -40.05 -41.5 -35.0 M-27.4 -39.15 L-19.7 -48.35 -27.4 -39.15 M-32.55 35.0 L-32.8 39.0 -32.55 35.0 M-36.4 17.5 L-36.95 32.5 -37.05 39.0 -36.95 32.5 -36.4 17.5 M-29.5 28.05 L-29.55 39.0 -29.5 28.05 M-41.5 7.8 L-41.95 -13.35 -41.5 7.8 M-4.3 -58.9 L0.85 -61.2 -4.3 -58.9 M-0.85 -57.1 L8.95 -33.6 -0.85 -57.1" fill="url(#gradient0)" fill-rule="evenodd" stroke="none"/>
      <path d="M45.2 39.0 L45.9 43.25 Q46.75 48.35 43.85 53.9 40.65 60.05 34.5 64.05 L32.1 65.6 35.25 56.7 Q32.65 63.1 26.3 67.8 24.3 69.3 22.4 70.9 L21.35 70.6 Q23.3 66.4 23.75 61.9 L23.9 60.0 Q20.6 65.45 15.6 69.9 L13.25 72.1 12.6 71.55 15.05 59.4 16.95 49.0 17.45 45.75 17.2 39.0 21.1 39.0 23.4 39.0 25.25 39.0 28.95 39.0 31.65 39.0 34.05 39.0 36.7 39.0 40.1 39.0 Q40.45 43.8 40.4 48.15 40.35 50.6 38.95 54.1 40.35 50.6 40.4 48.15 40.45 43.8 40.1 39.0 L45.2 39.0 M-17.8 39.0 L-18.45 42.5 Q-18.55 43.05 -19.0 43.4 L-24.45 47.8 -24.5 47.8 -24.5 47.85 -25.7 65.8 -28.05 65.8 -34.1 55.6 -34.55 55.45 -35.7 61.7 -36.4 61.6 Q-39.1 56.25 -40.15 50.35 L-40.95 55.2 Q-42.3 52.4 -42.9 49.4 -44.3 43.15 -44.35 39.1 L-44.35 39.0 -41.75 39.0 -41.8 39.8 Q-42.05 44.75 -39.8 50.45 -42.05 44.75 -41.8 39.8 L-41.75 39.0 -38.6 39.0 -37.05 39.0 -37.0 44.9 -36.75 49.4 Q-36.7 50.6 -35.5 51.8 -36.7 50.6 -36.75 49.4 L-37.0 44.9 -37.05 39.0 -33.1 39.0 -32.8 39.0 Q-33.05 43.65 -32.45 48.4 L-31.95 51.8 -32.45 48.4 Q-33.05 43.65 -32.8 39.0 L-29.55 39.0 -24.7 39.0 Q-24.05 43.4 -24.5 47.8 -24.05 43.4 -24.7 39.0 L-17.8 39.0 M33.4 52.05 Q34.35 47.4 34.2 44.1 L34.05 39.0 34.2 44.1 Q34.35 47.4 33.4 52.05 M27.4 57.5 L28.2 51.25 Q28.9 44.6 28.95 40.0 L28.95 39.0 28.95 40.0 Q28.9 44.6 28.2 51.25 L27.4 57.5 M23.95 54.75 L24.55 48.8 25.25 39.0 24.55 48.8 23.95 54.75 M17.1 61.9 Q18.85 58.55 19.15 55.1 19.3 52.75 19.8 50.7 21.3 44.8 21.1 39.65 L21.1 39.0 21.1 39.65 Q21.3 44.8 19.8 50.7 19.3 52.75 19.15 55.1 18.85 58.55 17.1 61.9 M20.55 58.5 Q22.75 52.25 23.2 48.05 23.65 43.55 23.4 39.0 23.65 43.55 23.2 48.05 22.75 52.25 20.55 58.5 M35.95 52.75 Q37.05 47.9 36.9 43.9 L36.7 39.0 36.9 43.9 Q37.05 47.9 35.95 52.75 M28.25 60.9 L28.1 60.7 28.75 58.45 Q31.2 51.65 31.6 47.15 31.95 43.05 31.65 39.0 31.95 43.05 31.6 47.15 31.2 51.65 28.75 58.45 L28.1 60.7 28.25 60.9 M24.1 59.65 L23.9 60.0 24.1 59.65 M-38.05 49.8 L-38.6 39.8 -38.6 39.0 -38.6 39.8 -38.05 49.8 M-31.95 51.8 Q-33.2 45.65 -33.15 40.8 L-33.1 39.0 -33.15 40.8 Q-33.2 45.65 -31.95 51.8 -31.35 56.15 -29.65 60.0 L-28.7 62.35 -29.65 60.0 Q-31.35 56.15 -31.95 51.8 M-27.8 61.65 L-28.9 52.85 Q-29.6 46.45 -29.55 42.15 L-29.55 39.0 -29.55 42.15 Q-29.6 46.45 -28.9 52.85 L-27.8 61.65" fill="url(#gradient1)" fill-rule="evenodd" stroke="none"/>
      <path d="M-25.7 65.8 L-25.5 67.95 -28.05 65.8 -25.7 65.8" fill="url(#gradient2)" fill-rule="evenodd" stroke="none"/>
      <path d="M27.8 -58.0 Q24.65 -62.5 19.6 -64.25 15.3 -65.8 11.55 -68.15 M-41.75 39.0 L-41.35 26.7 -41.1 13.8 -41.1 -2.3 M36.7 39.0 L36.15 29.2 35.6 21.65 Q35.05 15.65 34.9 9.45 L34.45 -3.7 33.8 -19.8 M31.65 39.0 L31.4 35.85 Q30.7 29.2 31.05 22.35 L31.5 14.9 Q32.05 7.0 31.45 -0.9 L30.4 -13.8 M22.25 -12.45 Q23.5 -3.7 24.1 5.15 24.5 12.5 25.2 19.95 L25.5 26.6 25.35 36.8 25.25 39.0 24.55 48.8 23.95 54.75 M38.5 -13.8 L39.9 0.6 Q40.55 7.0 40.2 13.35 M21.1 39.0 L21.1 39.65 Q21.3 44.8 19.8 50.7 19.3 52.75 19.15 55.1 18.85 58.55 17.1 61.9 M31.65 39.0 Q31.95 43.05 31.6 47.15 31.2 51.65 28.75 58.45 L28.1 60.7 28.25 60.9 M36.7 39.0 L36.9 43.9 Q37.05 47.9 35.95 52.75 M21.1 39.0 L20.45 23.45 Q20.05 15.35 18.85 7.35 M-1.3 -67.65 Q-1.95 -69.65 -3.2 -70.95 L-4.25 -71.1 -7.85 -70.5 -12.0 -69.85 Q-19.7 -68.3 -26.15 -63.2 -27.65 -62.0 -29.25 -61.0 -34.55 -57.6 -36.8 -51.55 M-32.8 39.0 L-32.55 35.0 M-37.05 39.0 L-36.95 32.5 -36.4 17.5 M-37.05 39.0 L-37.0 44.9 -36.75 49.4 Q-36.7 50.6 -35.5 51.8 M-31.95 51.8 L-32.45 48.4 Q-33.05 43.65 -32.8 39.0 M-41.75 39.0 L-41.8 39.8 Q-42.05 44.75 -39.8 50.45 M-31.95 51.8 Q-31.35 56.15 -29.65 60.0 L-28.7 62.35" fill="none" stroke="#ae6262" stroke-linecap="round" stroke-linejoin="round" stroke-width="1.5"/>
      <path d="M1.75 -68.1 L2.35 -66.85 2.9 -65.8 M-44.35 39.0 L-44.65 24.9 Q-44.9 18.5 -44.65 13.3 -44.45 8.1 -45.25 2.6 -46.1 -2.9 -46.35 -9.9 -46.65 -16.9 -45.6 -25.15 -44.55 -33.4 -42.1 -41.15 -39.5 -49.7 -35.35 -57.5 -33.8 -60.45 -31.35 -62.1 L-27.4 -64.55 -23.05 -67.05 Q-20.75 -68.45 -18.2 -69.35 -10.5 -72.15 -2.7 -73.85 -1.85 -74.0 -1.1 -73.45 1.3 -71.45 1.75 -68.1 4.55 -70.0 7.6 -71.25 L8.75 -71.3 Q15.8 -68.6 22.3 -65.05 27.55 -62.2 32.05 -58.1 L34.25 -55.25 Q38.45 -47.5 41.0 -39.0 L43.25 -31.4 Q45.25 -24.55 44.95 -17.2 L44.5 -2.85 44.0 14.0 Q43.7 22.7 44.45 31.45 L45.2 39.0 45.9 43.25 Q46.75 48.35 43.85 53.9 40.65 60.05 34.5 64.05 L32.1 65.6 35.25 56.7 Q32.65 63.1 26.3 67.8 24.3 69.3 22.4 70.9 L20.55 72.15 21.35 70.6 Q23.3 66.4 23.75 61.9 L23.9 60.0 Q20.6 65.45 15.6 69.9 L13.25 72.1 12.0 73.0 12.6 71.55 15.05 59.4 16.95 49.0 17.45 45.75 17.2 39.0 16.8 25.25 Q16.5 18.75 15.8 12.25 L14.3 -3.2 Q13.7 -10.35 12.7 -17.15 L12.0 -19.85 11.7 -8.05 8.65 -17.25 Q6.0 -25.6 4.05 -34.25 3.15 -38.2 1.65 -41.8 L-2.95 -52.7 Q-3.6 -54.35 -4.75 -55.5 L-5.55 -56.4 M-6.15 -55.9 Q-8.4 -51.45 -12.0 -48.25 L-19.55 -41.5 -30.3 -30.75 Q-33.2 -27.65 -35.0 -23.55 L-35.7 -19.85 Q-36.35 -19.25 -36.7 -10.85 -37.1 -2.5 -32.75 9.25 M-32.6 9.6 Q-28.3 20.95 -23.25 31.6 -21.5 35.2 -17.7 34.8 L-17.35 35.2 -17.8 39.0 -18.45 42.5 Q-18.55 43.05 -19.0 43.4 L-24.45 47.8 -24.5 47.85 -25.7 65.8 -25.5 67.95 -28.05 65.8 -34.1 55.6 -34.55 55.45 -35.7 61.7 -35.85 62.6 -36.4 61.6 Q-39.1 56.25 -40.15 50.35 L-40.95 55.2 Q-42.3 52.4 -42.9 49.4 -44.3 43.15 -44.35 39.1 L-44.35 39.0 M23.9 60.0 L24.1 59.65 M-35.0 -23.55 L-36.1 -20.4 -38.55 -13.45 M-24.7 39.0 L-24.95 36.8 -25.45 34.0 M-24.5 47.85 L-24.5 47.8 Q-24.05 43.4 -24.7 39.0" fill="none" stroke="#000000" stroke-linecap="round" stroke-linejoin="round" stroke-width="2.0"/>
      <path d="M2.35 -66.85 L3.45 -67.2 M0.0 -63.5 L-1.7 -62.15 M0.85 -61.2 L-4.3 -58.9 M2.35 -66.85 L-0.4 -65.35" fill="none" stroke="#170d0d" stroke-linecap="round" stroke-linejoin="round" stroke-width="1.5"/>
      <path d="M-32.75 9.25 L-32.6 9.6 -32.8 23.95 -33.1 39.0 -33.15 40.8 Q-33.2 45.65 -31.95 51.8 M16.7 -57.1 Q11.35 -61.05 5.6 -64.5 5.2 -64.75 4.6 -64.5 L2.95 -63.5 M12.85 -41.9 Q11.15 -43.55 10.6 -46.25 9.45 -51.55 6.4 -55.65 4.6 -58.05 1.7 -58.9 M19.65 -58.9 Q16.4 -62.95 12.45 -65.95 9.85 -67.95 6.85 -68.6 M29.95 -52.5 L23.5 -59.85 M23.4 39.0 L23.25 35.9 22.15 23.0 20.95 10.65 19.85 -0.45 Q19.35 -4.55 18.2 -8.6 17.0 -12.75 16.7 -17.05 M31.65 -17.05 L32.4 -2.75 33.25 13.35 33.85 30.85 34.05 39.0 34.2 44.1 Q34.35 47.4 33.4 52.05 M40.1 39.0 L39.95 35.9 39.35 27.85 38.55 15.2 37.4 -1.85 36.75 -12.5 Q36.4 -19.2 35.1 -25.8 M27.4 -22.55 L27.9 -6.45 28.45 11.05 28.8 24.85 28.95 39.0 28.95 40.0 Q28.9 44.6 28.2 51.25 L27.4 57.5 M38.95 -32.2 Q40.9 -25.7 41.1 -18.9 L41.1 -14.75 M23.4 39.0 Q23.65 43.55 23.2 48.05 22.75 52.25 20.55 58.5 M40.1 39.0 Q40.45 43.8 40.4 48.15 40.35 50.6 38.95 54.1 M-5.6 -65.35 L-8.9 -67.95 Q-19.05 -62.6 -27.1 -54.05 L-32.1 -48.8 M-1.7 -65.8 L-3.45 -69.95 M-11.6 -61.2 Q-14.4 -56.65 -17.75 -52.75 L-28.75 -40.05 Q-33.55 -34.5 -37.4 -28.25 -40.55 -23.15 -41.1 -17.05 M-10.7 -64.0 L-18.7 -56.45 -28.85 -45.8 -33.5 -40.6 -41.95 -28.55 M-38.6 39.0 L-38.6 39.8 -38.05 49.8 M-29.55 39.0 L-29.5 28.05 M-29.55 39.0 L-29.55 42.15 Q-29.6 46.45 -28.9 52.85 L-27.8 61.65 M-38.6 39.0 L-38.7 25.8 -38.4 8.75 Q-38.3 1.15 -37.65 -6.45 M-41.95 -13.35 L-41.5 7.8 M8.95 -33.6 L-0.85 -57.1" fill="none" stroke="#442222" stroke-linecap="round" stroke-linejoin="round" stroke-width="1.5"/>
      <path d="M19.65 -49.25 Q16.95 -53.9 12.45 -56.55 L9.85 -58.0 M25.65 -28.55 L22.7 -38.65 M35.1 -30.4 Q33.95 -38.9 29.55 -46.1 L27.4 -49.7 M32.1 -32.7 L27.8 -42.35 M29.95 -26.7 Q28.05 -34.9 24.3 -42.3 L20.75 -49.1 20.15 -50.15 M36.35 -37.75 Q34.55 -40.45 33.45 -43.7 33.1 -44.9 32.1 -45.55 M8.95 -31.75 Q10.6 -29.35 11.25 -26.2 L11.55 -24.4 M18.4 -17.95 Q16.95 -24.95 14.4 -31.6 L11.1 -39.6 M22.25 -20.25 Q22.4 -27.85 20.15 -35.0 18.55 -40.35 15.85 -45.1 M19.65 -23.95 L16.25 -33.15 M38.05 -37.3 L32.95 -49.7 M-33.5 -40.6 L-40.2 -28.55 M-37.25 -47.85 Q-40.75 -40.3 -42.5 -32.05 L-43.25 -28.1 M-30.8 -34.5 L-35.5 -27.6 M-24.4 -56.15 Q-29.4 -51.4 -33.45 -45.65 L-35.1 -43.25 M-19.7 -48.35 L-27.4 -39.15 M-38.05 -40.05 L-41.5 -35.0" fill="none" stroke="#c68e8e" stroke-linecap="round" stroke-linejoin="round" stroke-width="1.5"/>
    </g>
    </g>
  </g>
  <defs>
    <radialGradient cx="0" cy="0" gradientTransform="matrix(0.001, 0.109, -0.1736, 0.0018, -5.05, -54.5)" gradientUnits="userSpaceOnUse" id="gradient0" r="819.2" spreadMethod="pad">
      <stop offset="0.0" stop-color="#5c2e2e"/>
      <stop offset="0.23137254901960785" stop-color="#9c5050"/>
      <stop offset="0.3176470588235294" stop-color="#c18686"/>
      <stop offset="0.38823529411764707" stop-color="#a55454"/>
      <stop offset="1.0" stop-color="#5c2e2e"/>
    </radialGradient>
    <radialGradient cx="0" cy="0" gradientTransform="matrix(0.001, 0.0805, -0.1736, 0.0013, -5.05, -30.05)" gradientUnits="userSpaceOnUse" id="gradient1" r="819.2" spreadMethod="pad">
      <stop offset="0.0" stop-color="#5c2e2e"/>
      <stop offset="0.23137254901960785" stop-color="#9c5050"/>
      <stop offset="0.3176470588235294" stop-color="#c18686"/>
      <stop offset="0.38823529411764707" stop-color="#a55454"/>
      <stop offset="1.0" stop-color="#5c2e2e"/>
    </radialGradient>
    <radialGradient cx="0" cy="0" gradientTransform="matrix(0.0012, 0.1077, -0.166, 0.0012, -4.55, -26.9)" gradientUnits="userSpaceOnUse" id="gradient2" r="819.2" spreadMethod="pad">
      <stop offset="0.0" stop-color="#5c2e2e"/>
      <stop offset="0.23137254901960785" stop-color="#9c5050"/>
      <stop offset="0.3176470588235294" stop-color="#c18686"/>
      <stop offset="0.38823529411764707" stop-color="#a55454"/>
      <stop offset="1.0" stop-color="#5c2e2e"/>
    </radialGradient>
  </defs>
</svg>