<svg xmlns:xlink="http://www.w3.org/1999/xlink" xmlns="http://www.w3.org/2000/svg" height="202.2px" width="161.9px">
  <g transform="matrix(1.0, 0.0, 0.0, 1.0, 74.15, 81.7)">
    <g data-characterId="1417" height="131.65" transform="matrix(1.0, 0.0, 0.0, 1.0, -47.65, -71.15)" width="97.15" xlink:href="#shape0"><g id="shape0" transform="matrix(1.0, 0.0, 0.0, 1.0, 47.65, 71.15)">
      <path d="M38.95 -34.0 L40.0 -34.0 40.85 -31.7 Q43.7 -23.8 37.35 -20.05 38.3 -25.6 38.85 -31.3 L38.95 -34.0" fill="#000066" fill-rule="evenodd" stroke="none"/>
      <path d="M19.1 -34.1 L18.8 -34.35 Q14.7 -38.45 9.2 -48.05 L7.35 -50.75 6.1 -51.65 -4.4 -48.25 -6.55 -47.6 Q-9.9 -42.25 -12.1 -36.2 -13.85 -31.35 -18.0 -28.5 L-19.0 -34.65 -19.5 -35.0 Q-23.5 -32.8 -25.35 -29.4 -27.25 -26.05 -28.75 -21.0 -31.55 -25.35 -32.5 -30.5 L-33.7 -28.8 Q-38.7 -20.45 -37.1 -10.55 -40.8 -13.55 -41.85 -17.15 -42.6 -19.65 -42.45 -22.15 -42.35 -24.6 -43.5 -26.5 L-44.0 -22.0 Q-46.5 -27.5 -47.05 -32.15 -47.65 -36.8 -43.55 -48.45 -39.45 -60.15 -33.6 -62.65 -30.9 -62.8 -27.75 -63.9 -24.6 -65.0 -11.55 -70.65 -8.1 -70.7 -2.45 -69.35 6.85 -71.1 9.4 -70.45 11.95 -69.85 15.0 -68.65 18.05 -67.5 18.85 -66.7 26.0 -60.05 32.2 -52.4 35.8 -48.0 37.35 -42.45 L38.4 -38.0 38.9 -34.9 38.95 -34.0 38.9 -34.9 38.4 -38.0 37.35 -42.45 Q39.25 -41.2 40.65 -39.6 44.1 -35.65 44.4 -29.55 44.85 -21.0 46.05 -5.7 47.2 9.55 44.85 28.95 42.45 48.35 49.0 60.0 40.25 56.75 38.95 51.65 L38.0 47.5 34.5 60.0 31.45 49.9 Q27.65 55.15 21.55 57.1 L15.0 57.5 Q16.15 57.5 16.95 56.25 17.75 55.0 18.5 54.3 L19.45 53.15 Q20.25 51.2 21.25 49.55 L22.0 48.5 15.5 51.5 Q19.45 46.15 21.2 39.5 22.15 35.9 22.75 30.05 L23.7 19.25 Q24.1 14.35 28.25 4.5 26.6 0.1 28.85 -3.85 L29.85 -6.15 Q30.85 -9.45 32.25 -12.45 33.45 -15.15 33.25 -18.5 L33.2 -19.05 33.2 -19.4 Q32.75 -23.3 30.15 -25.5 27.1 -25.5 23.05 -19.05 24.25 -25.7 23.6 -28.0 L23.3 -28.75 23.4 -29.05 Q24.7 -32.35 23.5 -35.5 24.7 -32.35 23.4 -29.05 L23.3 -28.75 Q22.3 -30.85 19.1 -34.1 18.75 -36.45 17.5 -38.5 18.75 -36.45 19.1 -34.1 M-1.5 -50.5 Q-2.45 -50.75 -3.0 -50.0 L-4.4 -48.25 -3.0 -50.0 Q-2.45 -50.75 -1.5 -50.5 M30.5 -46.5 L31.2 -46.25 Q32.5 -44.5 33.1 -42.4 34.25 -38.25 34.85 -34.0 35.9 -26.2 33.2 -19.05 35.9 -26.2 34.85 -34.0 34.25 -38.25 33.1 -42.4 32.5 -44.5 31.2 -46.25 L30.5 -46.5 M4.5 -68.0 L2.5 -68.0 -4.0 -68.0 -7.0 -68.2 -11.5 -68.5 -12.4 -68.3 Q-14.4 -67.2 -16.45 -66.4 L-21.05 -64.65 -21.9 -64.3 -30.95 -59.9 -31.55 -59.7 -33.95 -59.35 -35.05 -59.15 Q-37.4 -58.65 -38.6 -56.55 -41.4 -51.5 -43.35 -46.45 L-44.2 -44.05 -45.1 -40.4 -45.3 -38.5 -45.5 -31.5 -45.3 -38.5 -45.1 -40.4 -44.2 -44.05 -43.35 -46.45 Q-41.4 -51.5 -38.6 -56.55 -37.4 -58.65 -35.05 -59.15 L-33.95 -59.35 -31.55 -59.7 -30.95 -59.9 -21.9 -64.3 -21.05 -64.65 -16.45 -66.4 Q-14.4 -67.2 -12.4 -68.3 L-11.5 -68.5 -7.0 -68.2 -4.0 -68.0 2.5 -68.0 4.5 -68.0 M40.0 -34.0 L38.95 -34.0 38.85 -31.3 Q38.3 -25.6 37.35 -20.05 43.7 -23.8 40.85 -31.7 L40.0 -34.0 39.5 -35.0 40.0 -34.0 M39.5 -11.0 L34.0 -0.5 32.3 2.35 Q29.45 6.25 28.75 10.95 L28.2 15.05 Q26.8 24.65 26.3 34.5 L25.85 36.45 Q23.6 41.9 20.5 47.0 23.6 41.9 25.85 36.45 L26.3 34.5 Q26.8 24.65 28.2 15.05 L28.75 10.95 Q29.45 6.25 32.3 2.35 L34.0 -0.5 39.5 -11.0 M28.75 4.1 Q33.7 -4.05 35.95 -13.5 L37.3 -19.95 35.95 -13.5 Q33.7 -4.05 28.75 4.1 L28.25 4.5 28.5 5.0 28.75 4.1 M37.3 -19.95 L37.35 -20.05 37.3 -19.95 M-15.5 -54.0 L-18.0 -51.0 Q-24.2 -43.5 -24.0 -34.0 -24.2 -43.5 -18.0 -51.0 L-15.5 -54.0 M-30.0 -54.5 L-31.55 -52.05 Q-34.95 -46.75 -37.35 -40.95 -41.15 -31.55 -40.5 -21.5 -41.15 -31.55 -37.35 -40.95 -34.95 -46.75 -31.55 -52.05 L-30.0 -54.5 M-21.35 -57.4 Q-23.75 -54.75 -25.55 -51.7 -28.75 -46.25 -31.0 -40.3 -31.75 -38.25 -32.0 -36.0 -31.75 -38.25 -31.0 -40.3 -28.75 -46.25 -25.55 -51.7 -23.75 -54.75 -21.35 -57.4 M41.5 -19.0 Q42.25 -18.25 42.35 -17.4 43.0 -12.0 42.6 -6.55 L41.45 9.55 Q40.75 19.15 38.5 28.5 40.75 19.15 41.45 9.55 L42.6 -6.55 Q43.0 -12.0 42.35 -17.4 42.25 -18.25 41.5 -19.0 M39.0 -7.0 Q38.75 -2.0 37.85 3.0 L35.1 18.5 33.6 25.4 31.65 32.05 29.4 38.95 Q27.6 44.8 24.5 50.0 27.6 44.8 29.4 38.95 L31.65 32.05 33.6 25.4 35.1 18.5 37.85 3.0 Q38.75 -2.0 39.0 -7.0" fill="url(#gradient0)" fill-rule="evenodd" stroke="none"/>
      <path d="M-4.4 -48.25 L6.1 -51.65 7.35 -50.75 9.2 -48.05 Q14.7 -38.45 18.8 -34.35 L19.1 -34.1 Q22.3 -30.85 23.3 -28.75 L23.6 -28.0 Q24.25 -25.7 23.05 -19.05 27.1 -25.5 30.15 -25.5 32.75 -23.3 33.2 -19.4 L33.2 -19.05 M37.35 -42.45 Q35.8 -48.0 32.2 -52.4 26.0 -60.05 18.85 -66.7 18.05 -67.5 15.0 -68.65 11.95 -69.85 9.4 -70.45 6.85 -71.1 -2.45 -69.35 -8.1 -70.7 -11.55 -70.65 -24.6 -65.0 -27.75 -63.9 -30.9 -62.8 -33.6 -62.65 -39.45 -60.15 -43.55 -48.45 -47.65 -36.8 -47.05 -32.15 -46.5 -27.5 -44.0 -22.0 L-43.5 -26.5 Q-42.35 -24.6 -42.45 -22.15 -42.6 -19.65 -41.85 -17.15 -40.8 -13.55 -37.1 -10.55 -38.7 -20.45 -33.7 -28.8 L-32.5 -30.5 Q-31.55 -25.35 -28.75 -21.0 -27.25 -26.05 -25.35 -29.4 -23.5 -32.8 -19.5 -35.0 L-19.0 -34.65 -18.0 -28.5 Q-13.85 -31.35 -12.1 -36.2 -9.9 -42.25 -6.55 -47.6 L-4.4 -48.25 M38.95 -34.0 L38.9 -34.9 38.4 -38.0 37.35 -42.45 Q39.25 -41.2 40.65 -39.6 44.1 -35.65 44.4 -29.55 44.85 -21.0 46.05 -5.7 47.2 9.55 44.85 28.95 42.45 48.35 49.0 60.0 40.25 56.75 38.95 51.65 L38.0 47.5 34.5 60.0 31.45 49.9 Q27.65 55.15 21.55 57.1 L15.0 57.5 Q16.15 57.5 16.95 56.25 17.75 55.0 18.5 54.3 L19.45 53.15 Q20.25 51.2 21.25 49.55 L22.0 48.5 15.5 51.5 Q19.45 46.15 21.2 39.5 22.15 35.9 22.75 30.05 L23.7 19.25 Q24.1 14.35 28.25 4.5 26.6 0.1 28.85 -3.85 L29.85 -6.15 Q30.85 -9.45 32.25 -12.45 33.45 -15.15 33.25 -18.5 M38.95 -34.0 L38.85 -31.3 Q38.3 -25.6 37.35 -20.05 M37.3 -19.95 L35.95 -13.5 Q33.7 -4.05 28.75 4.1 L28.25 4.5" fill="none" stroke="#000000" stroke-linecap="round" stroke-linejoin="round" stroke-width="2.0"/>
      <path d="M19.1 -34.1 Q18.75 -36.45 17.5 -38.5 M-4.4 -48.25 L-3.0 -50.0 Q-2.45 -50.75 -1.5 -50.5 M23.3 -28.75 L22.1 -25.95 Q19.75 -20.4 21.0 -14.5 M23.3 -28.75 L23.4 -29.05 Q24.7 -32.35 23.5 -35.5 M19.1 -34.1 Q19.35 -31.9 18.8 -29.45 L18.35 -26.5 17.9 -24.0 Q16.2 -17.7 16.5 -11.0 M-4.4 -48.25 L-5.05 -47.55 Q-8.85 -43.2 -7.5 -38.0" fill="none" stroke="#ffff99" stroke-linecap="round" stroke-linejoin="round" stroke-width="2.0"/>
      <path d="M37.35 -20.05 Q43.7 -23.8 40.85 -31.7 L40.0 -34.0 39.5 -35.0 M37.35 -20.05 L37.3 -19.95" fill="none" stroke="#5b3f3c" stroke-linecap="round" stroke-linejoin="round" stroke-width="2.0"/>
      <path d="M-45.5 -31.5 L-45.3 -38.5 -45.1 -40.4 -44.2 -44.05 -43.35 -46.45 Q-41.4 -51.5 -38.6 -56.55 -37.4 -58.65 -35.05 -59.15 L-33.95 -59.35 -31.55 -59.7 -30.95 -59.9 -21.9 -64.3 -21.05 -64.65 -16.45 -66.4 Q-14.4 -67.2 -12.4 -68.3 L-11.5 -68.5 -7.0 -68.2 -4.0 -68.0 2.5 -68.0 4.5 -68.0 M33.2 -19.05 Q35.9 -26.2 34.85 -34.0 34.25 -38.25 33.1 -42.4 32.5 -44.5 31.2 -46.25 L30.5 -46.5 M33.25 -18.5 L33.2 -19.05 M20.5 47.0 Q23.6 41.9 25.85 36.45 L26.3 34.5 Q26.8 24.65 28.2 15.05 L28.75 10.95 Q29.45 6.25 32.3 2.35 L34.0 -0.5 39.5 -11.0 M38.5 28.5 Q40.75 19.15 41.45 9.55 L42.6 -6.55 Q43.0 -12.0 42.35 -17.4 42.25 -18.25 41.5 -19.0 M-32.0 -36.0 Q-31.75 -38.25 -31.0 -40.3 -28.75 -46.25 -25.55 -51.7 -23.75 -54.75 -21.35 -57.4 M-40.5 -21.5 Q-41.15 -31.55 -37.35 -40.95 -34.95 -46.75 -31.55 -52.05 L-30.0 -54.5 M-24.0 -34.0 Q-24.2 -43.5 -18.0 -51.0 L-15.5 -54.0 M24.5 50.0 Q27.6 44.8 29.4 38.95 L31.65 32.05 33.6 25.4 35.1 18.5 37.85 3.0 Q38.75 -2.0 39.0 -7.0" fill="none" stroke="#ffffff" stroke-linecap="round" stroke-linejoin="round" stroke-width="1.5"/>
    </g>
    </g>
  </g>
  <defs>
    <radialGradient cx="0" cy="0" gradientTransform="matrix(0.0481, 0.1394, -0.165, 0.0569, -7.5, -60.5)" gradientUnits="userSpaceOnUse" id="gradient0" r="819.2" spreadMethod="pad">
      <stop offset="0.0" stop-color="#ffff99"/>
      <stop offset="0.23137254901960785" stop-color="#ffffbb"/>
      <stop offset="0.3176470588235294" stop-color="#ffffff"/>
      <stop offset="0.38823529411764707" stop-color="#ffffbb"/>
      <stop offset="1.0" stop-color="#ffff99"/>
    </radialGradient>
  </defs>
</svg>