<svg xmlns:xlink="http://www.w3.org/1999/xlink" xmlns="http://www.w3.org/2000/svg" height="202.2px" width="161.9px">
  <g transform="matrix(1.0, 0.0, 0.0, 1.0, 74.15, 81.7)">
    <g data-characterId="1399" height="160.55" transform="matrix(1.0, 0.0, 0.0, 1.0, -53.1, -70.75)" width="117.05" xlink:href="#shape0"><g id="shape0" transform="matrix(1.0, 0.0, 0.0, 1.0, 53.1, 70.75)">
      <path d="M24.3 -60.1 Q23.7 -58.85 24.3 -57.45 25.6 -54.45 26.45 -51.3 28.75 -42.9 20.4 -45.45 L20.35 -45.4 21.4 -44.25 Q28.4 -36.1 19.65 -35.45 L19.65 -35.4 20.15 -35.15 20.55 -34.9 20.45 -34.75 21.8 -33.1 Q24.0 -30.35 22.1 -27.8 L19.6 -27.4 17.6 -28.25 Q11.4 -31.1 5.45 -34.05 L2.3 -35.65 Q1.15 -36.2 0.1 -36.95 -2.9 -39.1 -6.3 -40.35 -11.55 -42.25 -16.75 -41.1 L-18.9 -40.55 Q-19.8 -40.25 -20.1 -39.25 -20.95 -40.25 -22.45 -40.85 L-23.05 -40.85 Q-24.15 -40.85 -24.95 -39.85 L-25.1 -39.7 -27.65 -39.7 -29.9 -39.5 Q-34.15 -38.7 -38.1 -36.4 L-40.35 -34.9 -38.9 -43.35 -37.65 -47.1 Q-32.8 -58.15 -22.5 -64.6 -12.65 -70.75 -1.05 -70.2 7.5 -70.1 15.5 -66.7 19.0 -65.25 21.75 -62.65 L24.3 -60.1 M10.35 -37.95 Q15.25 -37.8 19.65 -35.4 15.25 -37.8 10.35 -37.95 M36.0 -23.15 L36.8 -23.0 Q38.75 -23.0 40.15 -20.55 41.55 -18.1 41.55 -14.65 47.2 -11.35 47.55 -4.8 47.7 -1.6 46.05 1.2 47.45 7.35 48.0 13.75 48.2 15.85 46.8 17.45 L46.6 15.6 Q46.3 13.65 45.4 12.0 40.7 3.4 36.25 -5.35 L34.0 -13.05 Q32.3 -15.15 32.2 -17.8 L32.2 -19.5 35.1 -20.1 35.65 -21.6 35.85 -22.35 36.0 -23.15 M36.75 -13.65 L39.0 -13.2 46.05 1.2 39.0 -13.2 36.75 -13.65 35.05 -12.7 34.0 -13.05 35.05 -12.7 36.75 -13.65 36.8 -17.25 36.75 -13.65 M39.0 -13.2 L41.55 -14.65 39.0 -13.2" fill="#384f1e" fill-rule="evenodd" stroke="none"/>
      <path d="M-25.1 -39.7 L-24.95 -39.85 Q-24.15 -40.85 -23.05 -40.85 L-22.45 -40.85 Q-20.95 -40.25 -20.1 -39.25 -18.9 -37.85 -19.15 -35.7 L-19.25 -35.1 Q-19.45 -33.9 -20.3 -33.4 -24.7 -30.85 -26.3 -35.75 -26.3 -37.85 -25.35 -39.35 L-25.1 -39.7 M-23.6 -38.05 Q-25.0 -37.3 -24.75 -35.7 -25.0 -37.3 -23.6 -38.05" fill="#00ff00" fill-rule="evenodd" stroke="none"/>
      <path d="M-40.35 -34.9 L-38.1 -36.4 Q-34.15 -38.7 -29.9 -39.5 L-27.65 -39.7 -25.1 -39.7 -25.35 -39.35 Q-26.3 -37.85 -26.3 -35.75 -30.4 -36.65 -33.8 -34.0 L-36.7 -31.75 -41.0 -28.45 -40.35 -34.9 M-20.1 -39.25 Q-19.8 -40.25 -18.9 -40.55 L-16.75 -41.1 Q-11.55 -42.25 -6.3 -40.35 -2.9 -39.1 0.1 -36.95 1.15 -36.2 2.3 -35.65 L5.45 -34.05 Q11.4 -31.1 17.6 -28.25 L19.6 -27.4 23.0 -25.9 27.05 -24.2 Q31.1 -22.55 35.75 -22.35 L35.65 -21.6 35.1 -20.1 32.2 -19.5 29.3 -19.9 Q26.35 -20.25 23.65 -21.4 18.85 -23.5 14.25 -25.9 L10.85 -27.7 8.65 -28.85 0.05 -33.15 -3.45 -34.75 Q-9.9 -37.7 -16.7 -36.25 L-18.45 -35.65 -19.15 -35.7 Q-18.9 -37.85 -20.1 -39.25 M32.55 -21.05 L31.6 -21.5 30.45 -21.4 29.6 -21.2 28.8 -21.25 28.15 -21.35 Q27.2 -21.45 26.2 -22.2 L25.2 -22.8 23.8 -22.9 23.2 -22.95 22.5 -23.7 21.85 -23.95 Q20.95 -24.1 20.9 -25.05 L20.55 -25.65 Q20.15 -25.9 19.75 -25.65 18.45 -24.65 17.85 -26.2 L17.65 -27.05 17.3 -27.6 Q17.0 -27.7 16.45 -27.3 15.7 -26.7 14.65 -26.75 L14.35 -27.6 13.95 -28.3 13.15 -28.4 Q12.3 -27.9 11.55 -28.55 L10.55 -29.2 10.05 -29.35 9.0 -29.55 Q7.75 -30.15 7.45 -31.65 7.05 -31.35 6.65 -31.4 6.05 -31.5 5.65 -32.1 L5.3 -32.7 4.95 -33.05 4.35 -33.0 3.45 -32.8 2.75 -33.2 2.1 -33.95 Q0.75 -35.05 0.3 -33.65 -0.5 -35.3 -2.55 -36.1 L-3.5 -36.45 -5.45 -37.45 Q-6.55 -38.2 -7.75 -37.85 -8.35 -37.7 -8.85 -37.85 -9.35 -37.95 -9.85 -38.5 -10.45 -39.25 -11.2 -38.5 -12.55 -37.25 -13.35 -38.8 -13.75 -39.6 -14.4 -39.7 -14.55 -38.65 -15.55 -38.05 -16.1 -37.7 -16.65 -37.75 -18.3 -37.9 -17.55 -39.15 -18.3 -37.9 -16.65 -37.75 -16.1 -37.7 -15.55 -38.05 -14.55 -38.65 -14.4 -39.7 -13.75 -39.6 -13.35 -38.8 -12.55 -37.25 -11.2 -38.5 -10.45 -39.25 -9.85 -38.5 -9.35 -37.95 -8.85 -37.85 -8.35 -37.7 -7.75 -37.85 -6.55 -38.2 -5.45 -37.45 L-3.5 -36.45 -2.55 -36.1 Q-0.5 -35.3 0.3 -33.65 0.75 -35.05 2.1 -33.95 L2.75 -33.2 3.45 -32.8 4.35 -33.0 4.95 -33.05 5.3 -32.7 5.65 -32.1 Q6.05 -31.5 6.65 -31.4 7.05 -31.35 7.45 -31.65 7.75 -30.15 9.0 -29.55 L10.05 -29.35 10.55 -29.2 11.55 -28.55 Q12.3 -27.9 13.15 -28.4 L13.95 -28.3 14.35 -27.6 14.65 -26.75 Q15.7 -26.7 16.45 -27.3 17.0 -27.7 17.3 -27.6 L17.65 -27.05 17.85 -26.2 Q18.45 -24.65 19.75 -25.65 20.15 -25.9 20.55 -25.65 L20.9 -25.05 Q20.95 -24.1 21.85 -23.95 L22.5 -23.7 23.2 -22.95 23.8 -22.9 25.2 -22.8 26.2 -22.2 Q27.2 -21.45 28.15 -21.35 L28.8 -21.25 29.6 -21.2 30.45 -21.4 31.6 -21.5 32.55 -21.05 M-28.5 -37.4 L-29.05 -37.7 -30.0 -38.05 -30.55 -37.85 -31.65 -36.25 Q-32.35 -36.55 -33.05 -36.95 -34.15 -37.55 -34.65 -36.3 L-34.85 -35.4 Q-34.95 -34.0 -36.2 -34.4 L-37.15 -34.6 Q-38.75 -34.9 -38.75 -33.35 -38.75 -32.25 -38.25 -31.35 -38.75 -32.25 -38.75 -33.35 -38.75 -34.9 -37.15 -34.6 L-36.2 -34.4 Q-34.95 -34.0 -34.85 -35.4 L-34.65 -36.3 Q-34.15 -37.55 -33.05 -36.95 -32.35 -36.55 -31.65 -36.25 L-30.55 -37.85 -30.0 -38.05 -29.05 -37.7 -28.5 -37.4" fill="#cccccc" fill-rule="evenodd" stroke="none"/>
      <path d="M19.65 -35.4 L19.65 -35.45 Q28.4 -36.1 21.4 -44.25 L20.35 -45.4 20.4 -45.45 Q28.75 -42.9 26.45 -51.3 25.6 -54.45 24.3 -57.45 23.7 -58.85 24.3 -60.1 30.85 -53.2 34.25 -44.25 36.05 -39.45 36.55 -34.45 L36.7 -28.55 36.0 -23.15 35.85 -22.35 35.75 -22.35 Q31.1 -22.55 27.05 -24.2 L23.0 -25.9 19.6 -27.4 22.1 -27.8 Q24.0 -30.35 21.8 -33.1 L20.45 -34.75 20.55 -34.9 20.15 -35.15 19.65 -35.4 M20.55 -34.9 Q24.9 -32.2 28.7 -30.4 L30.55 -29.45 Q33.6 -27.85 36.7 -28.55 33.6 -27.85 30.55 -29.45 L28.7 -30.4 Q24.9 -32.2 20.55 -34.9 M27.05 -39.1 Q27.05 -37.5 28.65 -37.25 29.65 -37.1 30.55 -36.35 33.15 -34.25 36.55 -34.45 33.15 -34.25 30.55 -36.35 29.65 -37.1 28.65 -37.25 27.05 -37.5 27.05 -39.1" fill="#2b3715" fill-rule="evenodd" stroke="none"/>
      <path d="M36.25 -5.35 Q37.5 -0.2 39.55 6.05 41.65 12.25 41.65 15.7 41.65 19.1 42.1 21.8 L43.2 28.55 Q44.55 36.6 49.85 42.9 55.95 50.2 62.55 57.2 63.95 58.7 63.2 60.1 L62.55 60.0 Q54.85 56.5 49.5 50.1 L60.4 66.8 50.3 58.85 Q41.35 52.1 35.65 42.6 39.3 59.8 45.45 76.0 36.9 66.25 33.2 53.65 32.4 51.0 32.2 48.25 31.9 43.3 28.75 39.75 29.5 44.15 29.25 48.7 L28.55 61.55 Q28.2 66.55 29.95 71.15 31.0 73.8 31.0 76.45 31.05 79.25 30.1 81.85 L29.9 82.3 Q28.25 86.3 26.5 89.3 26.6 87.6 27.05 85.8 28.15 81.35 27.6 76.75 L25.35 60.1 Q24.6 54.7 24.7 49.3 24.8 44.95 23.2 41.15 22.85 44.45 21.7 47.4 18.95 54.3 20.3 61.55 21.45 67.55 16.85 71.9 17.65 68.2 17.65 64.45 17.65 61.7 17.0 59.1 14.2 48.45 12.05 37.45 L10.05 48.0 Q9.3 44.75 8.7 41.5 7.75 36.55 9.25 23.65 10.7 10.7 9.7 -16.6 L8.6 -18.4 6.9 -4.2 Q7.75 -14.45 2.2 -23.0 -4.65 -33.65 -16.7 -36.25 -9.9 -37.7 -3.45 -34.75 L0.05 -33.15 8.65 -28.85 10.85 -27.7 14.25 -25.9 Q18.85 -23.5 23.65 -21.4 26.35 -20.25 29.3 -19.9 L32.2 -19.5 32.2 -17.8 Q32.3 -15.15 34.0 -13.05 L36.25 -5.35 M6.3 -20.7 Q6.05 -20.95 5.95 -21.3 4.85 -24.9 1.7 -27.6 4.85 -24.9 5.95 -21.3 6.05 -20.95 6.3 -20.7 M12.65 -14.35 L12.65 -16.1 Q12.65 -17.25 12.15 -18.1 10.4 -21.0 9.2 -24.15 10.4 -21.0 12.15 -18.1 12.65 -17.25 12.65 -16.1 L12.65 -14.35 M23.6 35.15 L23.1 33.95 Q22.05 31.25 22.35 28.2 22.45 26.75 22.7 25.4 L24.3 13.85 24.4 11.55 24.35 7.5 Q24.4 1.9 23.6 -3.45 22.8 -8.45 20.65 -13.2 20.15 -14.35 19.9 -15.55 19.5 -17.75 19.0 -16.65 19.5 -17.75 19.9 -15.55 20.15 -14.35 20.65 -13.2 22.8 -8.45 23.6 -3.45 24.4 1.9 24.35 7.5 L24.4 11.55 24.3 13.85 22.7 25.4 Q22.45 26.75 22.35 28.2 22.05 31.25 23.1 33.95 L23.6 35.15 M19.55 47.8 L18.8 47.55 Q18.4 46.95 18.3 46.05 L17.95 43.75 Q16.95 36.4 17.2 28.8 L17.5 26.55 Q18.2 23.85 18.4 20.75 18.65 17.3 19.75 13.9 21.1 9.8 20.8 5.2 L20.45 1.8 Q19.5 -4.2 18.9 -10.35 18.25 -16.45 15.5 -21.85 18.25 -16.45 18.9 -10.35 19.5 -4.2 20.45 1.8 L20.8 5.2 Q21.1 9.8 19.75 13.9 18.65 17.3 18.4 20.75 18.2 23.85 17.5 26.55 L17.2 28.8 Q16.95 36.4 17.95 43.75 L18.3 46.05 Q18.4 46.95 18.8 47.55 L19.55 47.8 M14.95 -12.05 Q15.1 -8.0 15.75 -4.05 16.55 0.4 15.9 5.2 L15.8 6.95 Q15.8 13.2 13.3 18.5 12.95 19.3 12.95 20.15 12.95 23.4 11.8 26.4 10.15 30.8 11.5 35.15 10.15 30.8 11.8 26.4 12.95 23.4 12.95 20.15 12.95 19.3 13.3 18.5 15.8 13.2 15.8 6.95 L15.9 5.2 Q16.55 0.4 15.75 -4.05 15.1 -8.0 14.95 -12.05 M42.55 43.75 Q40.4 43.25 39.65 40.9 L39.05 39.2 37.75 37.0 Q34.6 33.05 33.85 28.2 L33.15 26.0 Q31.7 22.9 31.3 19.55 31.05 17.55 31.3 15.6 31.8 12.2 31.95 8.65 L32.4 -0.55 Q32.65 -4.85 31.65 -8.6 32.65 -4.85 32.4 -0.55 L31.95 8.65 Q31.8 12.2 31.3 15.6 31.05 17.55 31.3 19.55 31.7 22.9 33.15 26.0 L33.85 28.2 Q34.6 33.05 37.75 37.0 L39.05 39.2 39.65 40.9 Q40.4 43.25 42.55 43.75 M27.05 -13.8 Q26.8 -9.35 28.1 -5.1 29.5 -0.4 29.15 4.65 L29.0 6.95 Q28.75 14.7 28.75 22.45 L28.45 25.85 Q27.5 30.8 28.75 35.7 27.5 30.8 28.45 25.85 L28.75 22.45 Q28.75 14.7 29.0 6.95 L29.15 4.65 Q29.5 -0.4 28.1 -5.1 26.8 -9.35 27.05 -13.8 M39.1 40.9 Q40.05 44.55 43.1 46.75 50.0 51.65 54.1 59.3 50.0 51.65 43.1 46.75 40.05 44.55 39.1 40.9 M61.0 57.55 Q59.0 56.8 57.6 55.2 L55.55 53.3 Q54.1 52.2 53.2 50.5 51.1 46.55 48.35 43.75 51.1 46.55 53.2 50.5 54.1 52.2 55.55 53.3 L57.6 55.2 Q59.0 56.8 61.0 57.55 M15.5 41.45 Q17.7 49.7 19.1 57.55 L19.2 59.3 Q18.95 62.7 19.0 66.2 18.95 62.7 19.2 59.3 L19.1 57.55 Q17.7 49.7 15.5 41.45 M34.5 37.45 L34.05 43.2 Q33.95 44.35 34.15 45.45 34.9 49.45 35.05 53.55 L35.35 55.2 36.2 58.15 Q37.9 63.8 42.0 68.5 37.9 63.8 36.2 58.15 L35.35 55.2 35.05 53.55 Q34.9 49.45 34.15 45.45 33.95 44.35 34.05 43.2 L34.5 37.45 M24.15 35.15 L26.6 44.3 Q27.0 45.7 26.85 47.2 26.1 53.85 26.4 61.05 26.45 61.9 26.75 62.65 27.9 65.4 27.9 68.5 L27.85 70.25 Q27.65 76.4 30.1 81.85 27.65 76.4 27.85 70.25 L27.9 68.5 Q27.9 65.4 26.75 62.65 26.45 61.9 26.4 61.05 26.1 53.85 26.85 47.2 27.0 45.7 26.6 44.3 L24.15 35.15 M47.2 44.9 L46.2 43.15 44.35 39.7 Q37.9 29.6 36.25 17.85 37.9 29.6 44.35 39.7 L46.2 43.15 47.2 44.9 M40.85 21.3 L40.65 20.25 Q36.35 11.45 35.1 1.2 36.35 11.45 40.65 20.25 L40.85 21.3 M-42.1 41.3 L-41.45 38.55 Q-39.15 27.85 -41.7 17.2 -44.25 6.5 -45.2 -4.3 -46.25 -16.4 -40.9 -26.9 L-40.9 -26.95 -41.0 -28.45 -36.7 -31.75 -37.15 -28.6 -37.3 -27.3 Q-38.1 -21.4 -36.65 -17.6 L-36.45 -17.15 -36.3 -16.75 Q-34.85 -13.2 -35.1 -12.45 L-35.95 -7.1 Q-36.6 -2.55 -32.65 8.9 -28.75 20.35 -24.85 26.0 -21.0 31.7 -19.6 33.0 L-18.4 33.9 -16.85 35.35 -18.15 41.3 -25.6 41.3 Q-25.05 39.4 -24.8 37.45 L-24.75 36.3 -24.8 37.45 Q-25.05 39.4 -25.6 41.3 L-29.9 41.3 -34.7 41.3 -37.85 41.3 -37.75 39.75 Q-37.8 36.4 -36.9 33.4 -36.55 32.25 -36.55 31.1 L-36.55 27.65 Q-36.55 24.7 -37.35 21.9 -38.35 18.55 -38.25 15.0 -38.15 9.4 -39.7 4.05 -40.0 2.9 -39.9 1.8 L-38.55 -10.9 -39.9 1.8 Q-40.0 2.9 -39.7 4.05 -38.15 9.4 -38.25 15.0 -38.35 18.55 -37.35 21.9 -36.55 24.7 -36.55 27.65 L-36.55 31.1 Q-36.55 32.25 -36.9 33.4 -37.8 36.4 -37.75 39.75 L-37.85 41.3 -39.9 41.3 -42.1 41.3 M-40.3 39.15 Q-39.15 35.7 -38.3 32.3 -37.4 28.65 -38.4 25.3 -39.1 22.85 -39.4 20.15 L-39.45 16.7 Q-39.35 14.8 -40.2 13.2 L-40.7 11.55 -41.1 9.3 -41.75 6.9 Q-43.75 -1.2 -43.65 -9.75 -43.6 -12.95 -42.85 -16.05 L-42.35 -18.45 Q-41.85 -20.85 -39.7 -21.85 -41.85 -20.85 -42.35 -18.45 L-42.85 -16.05 Q-43.6 -12.95 -43.65 -9.75 -43.75 -1.2 -41.75 6.9 L-41.1 9.3 -40.7 11.55 -40.2 13.2 Q-39.35 14.8 -39.45 16.7 L-39.4 20.15 Q-39.1 22.85 -38.4 25.3 -37.4 28.65 -38.3 32.3 -39.15 35.7 -40.3 39.15 M-38.55 39.75 L-39.9 41.3 -38.55 39.75 M-25.9 33.4 L-28.2 36.85 -29.1 38.7 -29.9 41.3 -29.1 38.7 -28.2 36.85 -25.9 33.4 M-31.65 17.85 Q-32.7 24.05 -32.2 30.55 -31.95 33.65 -33.3 36.35 -34.45 38.7 -34.7 41.3 -34.45 38.7 -33.3 36.35 -31.95 33.65 -32.2 30.55 -32.7 24.05 -31.65 17.85" fill="url(#gradient0)" fill-rule="evenodd" stroke="none"/>
      <path d="M-42.1 41.3 L-39.9 41.3 -37.85 41.3 -34.7 41.3 -34.75 42.05 -35.05 43.75 -35.7 46.05 -35.05 43.75 -34.75 42.05 -34.7 41.3 -29.9 41.3 -25.6 41.3 Q-26.4 43.75 -27.65 46.05 -26.4 43.75 -25.6 41.3 L-18.15 41.3 -20.5 50.6 -21.9 45.9 Q-21.9 49.05 -22.9 52.1 -24.5 56.95 -28.8 60.65 L-27.65 47.85 Q-31.5 58.25 -35.85 68.8 -38.15 74.35 -42.3 79.05 -40.45 74.25 -40.85 69.2 -41.15 65.05 -40.7 61.0 -39.9 54.1 -36.8 47.5 -36.3 46.4 -36.85 45.35 L-39.1 47.6 Q-40.7 49.8 -40.9 52.3 -41.05 54.25 -42.1 55.85 L-52.4 71.5 Q-53.55 63.55 -48.0 56.95 -46.6 55.35 -46.85 53.35 -46.95 52.35 -46.5 51.6 -43.7 46.6 -42.1 41.3 M-38.0 42.05 L-37.85 41.3 -38.0 42.05 M-51.25 66.2 Q-50.05 62.7 -47.6 60.0 -44.65 56.75 -43.9 52.45 L-43.4 50.55 -43.0 49.0 Q-42.45 45.8 -40.9 42.9 L-39.9 41.3 -40.9 42.9 Q-42.45 45.8 -43.0 49.0 L-43.4 50.55 -43.9 52.45 Q-44.65 56.75 -47.6 60.0 -50.05 62.7 -51.25 66.2 M-39.15 71.4 L-29.9 41.3 -39.15 71.4" fill="url(#gradient1)" fill-rule="evenodd" stroke="none"/>
      <path d="M24.3 -60.1 L21.75 -62.65 Q19.0 -65.25 15.5 -66.7 7.5 -70.1 -1.05 -70.2 -12.65 -70.75 -22.5 -64.6 -32.8 -58.15 -37.65 -47.1 L-38.9 -43.35 -40.35 -34.9 -38.1 -36.4 Q-34.15 -38.7 -29.9 -39.5 L-27.65 -39.7 -25.1 -39.7 -24.95 -39.85 Q-24.15 -40.85 -23.05 -40.85 M-22.45 -40.85 Q-20.95 -40.25 -20.1 -39.25 -19.8 -40.25 -18.9 -40.55 L-16.75 -41.1 Q-11.55 -42.25 -6.3 -40.35 -2.9 -39.1 0.1 -36.95 1.15 -36.2 2.3 -35.65 L5.45 -34.05 Q11.4 -31.1 17.6 -28.25 L19.6 -27.4 23.0 -25.9 27.05 -24.2 Q31.1 -22.55 35.75 -22.35 L35.85 -22.35 36.0 -23.15 36.7 -28.55 Q33.6 -27.85 30.55 -29.45 L28.7 -30.4 Q24.9 -32.2 20.55 -34.9 L20.15 -35.15 19.65 -35.4 Q15.25 -37.8 10.35 -37.95 M36.55 -34.45 Q33.15 -34.25 30.55 -36.35 29.65 -37.1 28.65 -37.25 27.05 -37.5 27.05 -39.1 M36.7 -28.55 L37.4 -28.75 M24.3 -60.1 Q30.85 -53.2 34.25 -44.25 36.05 -39.45 36.55 -34.45 L36.7 -28.55 M36.8 -23.0 Q38.75 -23.0 40.15 -20.55 41.55 -18.1 41.55 -14.65 47.2 -11.35 47.55 -4.8 47.7 -1.6 46.05 1.2 47.45 7.35 48.0 13.75 48.2 15.85 46.8 17.45 L46.6 15.6 Q46.3 13.65 45.4 12.0 40.7 3.4 36.25 -5.35 37.5 -0.2 39.55 6.05 41.65 12.25 41.65 15.7 41.65 19.1 42.1 21.8 L43.2 28.55 Q44.55 36.6 49.85 42.9 55.95 50.2 62.55 57.2 63.95 58.7 63.2 60.1 L62.55 60.0 Q54.85 56.5 49.5 50.1 L60.4 66.8 50.3 58.85 Q41.35 52.1 35.65 42.6 39.3 59.8 45.45 76.0 36.9 66.25 33.2 53.65 32.4 51.0 32.2 48.25 31.9 43.3 28.75 39.75 29.5 44.15 29.25 48.7 L28.55 61.55 Q28.2 66.55 29.95 71.15 31.0 73.8 31.0 76.45 31.05 79.25 30.1 81.85 L29.9 82.3 Q28.25 86.3 26.5 89.3 26.6 87.6 27.05 85.8 28.15 81.35 27.6 76.75 L25.35 60.1 Q24.6 54.7 24.7 49.3 24.8 44.95 23.2 41.15 22.85 44.45 21.7 47.4 18.95 54.3 20.3 61.55 21.45 67.55 16.85 71.9 L16.7 72.55 M32.2 -19.5 L29.3 -19.9 Q26.35 -20.25 23.65 -21.4 18.85 -23.5 14.25 -25.9 L10.85 -27.7 8.65 -28.85 0.05 -33.15 -3.45 -34.75 Q-9.9 -37.7 -16.7 -36.25 -4.65 -33.65 2.2 -23.0 7.75 -14.45 6.9 -4.2 L8.6 -18.4 9.7 -16.6 Q10.7 10.7 9.25 23.65 7.75 36.55 8.7 41.5 9.3 44.75 10.05 48.0 L12.05 37.45 Q14.2 48.45 17.0 59.1 17.65 61.7 17.65 64.45 17.65 68.2 16.85 71.9 M6.9 -4.2 L6.6 -1.85 M35.65 -21.6 L35.85 -22.35 M35.65 -21.6 L35.1 -20.1 32.2 -19.5 32.2 -17.8 Q32.3 -15.15 34.0 -13.05 L35.05 -12.7 36.75 -13.65 36.8 -17.25 M46.05 1.2 L39.0 -13.2 36.75 -13.65 M34.0 -13.05 L36.25 -5.35 M41.55 -14.65 L39.0 -13.2 M-41.0 -28.45 L-40.9 -26.95 -40.9 -26.9 Q-46.25 -16.4 -45.2 -4.3 -44.25 6.5 -41.7 17.2 -39.15 27.85 -41.45 38.55 L-42.1 41.3 Q-43.7 46.6 -46.5 51.6 -46.95 52.35 -46.85 53.35 -46.6 55.35 -48.0 56.95 -53.55 63.55 -52.4 71.5 L-42.1 55.85 Q-41.05 54.25 -40.9 52.3 -40.7 49.8 -39.1 47.6 L-36.85 45.35 Q-36.3 46.4 -36.8 47.5 -39.9 54.1 -40.7 61.0 -41.15 65.05 -40.85 69.2 -40.45 74.25 -42.3 79.05 -38.15 74.35 -35.85 68.8 -31.5 58.25 -27.65 47.85 L-28.8 60.65 Q-24.5 56.95 -22.9 52.1 -21.9 49.05 -21.9 45.9 L-20.5 50.6 -21.3 53.75 M-16.7 -36.25 L-18.45 -35.65 M-19.15 -35.7 L-19.25 -35.1 Q-19.45 -33.9 -20.3 -33.4 -24.7 -30.85 -26.3 -35.75 -30.4 -36.65 -33.8 -34.0 L-36.7 -31.75 -41.0 -28.45 -40.35 -34.9 M-16.85 35.35 L-18.15 41.3 -20.5 50.6 M-20.1 -39.25 Q-18.9 -37.85 -19.15 -35.7 M-26.3 -35.75 Q-26.3 -37.85 -25.35 -39.35 L-25.1 -39.7" fill="none" stroke="#000000" stroke-linecap="round" stroke-linejoin="round" stroke-width="2.0"/>
      <path d="M-17.55 -39.15 Q-18.3 -37.9 -16.65 -37.75 -16.1 -37.7 -15.55 -38.05 -14.55 -38.65 -14.4 -39.7 -13.75 -39.6 -13.35 -38.8 -12.55 -37.25 -11.2 -38.5 -10.45 -39.25 -9.85 -38.5 -9.35 -37.95 -8.85 -37.85 -8.35 -37.7 -7.75 -37.85 -6.55 -38.2 -5.45 -37.45 L-3.5 -36.45 -2.55 -36.1 Q-0.5 -35.3 0.3 -33.65 0.75 -35.05 2.1 -33.95 L2.75 -33.2 3.45 -32.8 4.35 -33.0 4.95 -33.05 5.3 -32.7 5.65 -32.1 Q6.05 -31.5 6.65 -31.4 7.05 -31.35 7.45 -31.65 7.75 -30.15 9.0 -29.55 L10.05 -29.35 10.55 -29.2 11.55 -28.55 Q12.3 -27.9 13.15 -28.4 L13.95 -28.3 14.35 -27.6 14.65 -26.75 Q15.7 -26.7 16.45 -27.3 17.0 -27.7 17.3 -27.6 L17.65 -27.05 17.85 -26.2 Q18.45 -24.65 19.75 -25.65 20.15 -25.9 20.55 -25.65 L20.9 -25.05 Q20.95 -24.1 21.85 -23.95 L22.5 -23.7 23.2 -22.95 23.8 -22.9 25.2 -22.8 26.2 -22.2 Q27.2 -21.45 28.15 -21.35 L28.8 -21.25 29.6 -21.2 30.45 -21.4 31.6 -21.5 32.55 -21.05 M-38.25 -31.35 Q-38.75 -32.25 -38.75 -33.35 -38.75 -34.9 -37.15 -34.6 L-36.2 -34.4 Q-34.95 -34.0 -34.85 -35.4 L-34.65 -36.3 Q-34.15 -37.55 -33.05 -36.95 -32.35 -36.55 -31.65 -36.25 L-30.55 -37.85 -30.0 -38.05 -29.05 -37.7 -28.5 -37.4 M-24.75 -35.7 Q-25.0 -37.3 -23.6 -38.05" fill="none" stroke="#ffffff" stroke-linecap="round" stroke-linejoin="round" stroke-width="2.0"/>
      <path d="M19.0 -16.65 Q19.5 -17.75 19.9 -15.55 20.15 -14.35 20.65 -13.2 22.8 -8.45 23.6 -3.45 24.4 1.9 24.35 7.5 L24.4 11.55 24.3 13.85 22.7 25.4 Q22.45 26.75 22.35 28.2 22.05 31.25 23.1 33.95 L23.6 35.15 M9.2 -24.15 Q10.4 -21.0 12.15 -18.1 12.65 -17.25 12.65 -16.1 L12.65 -14.35 M1.7 -27.6 Q4.85 -24.9 5.95 -21.3 6.05 -20.95 6.3 -20.7 M11.5 35.15 Q10.15 30.8 11.8 26.4 12.95 23.4 12.95 20.15 12.95 19.3 13.3 18.5 15.8 13.2 15.8 6.95 L15.9 5.2 Q16.55 0.4 15.75 -4.05 15.1 -8.0 14.95 -12.05 M15.5 -21.85 Q18.25 -16.45 18.9 -10.35 19.5 -4.2 20.45 1.8 L20.8 5.2 Q21.1 9.8 19.75 13.9 18.65 17.3 18.4 20.75 18.2 23.85 17.5 26.55 L17.2 28.8 Q16.95 36.4 17.95 43.75 L18.3 46.05 Q18.4 46.95 18.8 47.55 L19.55 47.8 M31.65 -8.6 Q32.65 -4.85 32.4 -0.55 L31.95 8.65 Q31.8 12.2 31.3 15.6 31.05 17.55 31.3 19.55 31.7 22.9 33.15 26.0 L33.85 28.2 Q34.6 33.05 37.75 37.0 L39.05 39.2 39.65 40.9 Q40.4 43.25 42.55 43.75 M28.75 35.7 Q27.5 30.8 28.45 25.85 L28.75 22.45 Q28.75 14.7 29.0 6.95 L29.15 4.65 Q29.5 -0.4 28.1 -5.1 26.8 -9.35 27.05 -13.8 M35.1 1.2 Q36.35 11.45 40.65 20.25 L40.85 21.3 M36.25 17.85 Q37.9 29.6 44.35 39.7 L46.2 43.15 47.2 44.9 M30.1 81.85 Q27.65 76.4 27.85 70.25 L27.9 68.5 Q27.9 65.4 26.75 62.65 26.45 61.9 26.4 61.05 26.1 53.85 26.85 47.2 27.0 45.7 26.6 44.3 L24.15 35.15 M42.0 68.5 Q37.9 63.8 36.2 58.15 L35.35 55.2 35.05 53.55 Q34.9 49.45 34.15 45.45 33.95 44.35 34.05 43.2 L34.5 37.45 M19.0 66.2 Q18.95 62.7 19.2 59.3 L19.1 57.55 Q17.7 49.7 15.5 41.45 M48.35 43.75 Q51.1 46.55 53.2 50.5 54.1 52.2 55.55 53.3 L57.6 55.2 Q59.0 56.8 61.0 57.55 M54.1 59.3 Q50.0 51.65 43.1 46.75 40.05 44.55 39.1 40.9 M-39.9 41.3 L-38.55 39.75 M-39.7 -21.85 Q-41.85 -20.85 -42.35 -18.45 L-42.85 -16.05 Q-43.6 -12.95 -43.65 -9.75 -43.75 -1.2 -41.75 6.9 L-41.1 9.3 -40.7 11.55 -40.2 13.2 Q-39.35 14.8 -39.45 16.7 L-39.4 20.15 Q-39.1 22.85 -38.4 25.3 -37.4 28.65 -38.3 32.3 -39.15 35.7 -40.3 39.15 M-38.55 -10.9 L-39.9 1.8 Q-40.0 2.9 -39.7 4.05 -38.15 9.4 -38.25 15.0 -38.35 18.55 -37.35 21.9 -36.55 24.7 -36.55 27.65 L-36.55 31.1 Q-36.55 32.25 -36.9 33.4 -37.8 36.4 -37.75 39.75 L-37.85 41.3 -38.0 42.05 M-34.7 41.3 Q-34.45 38.7 -33.3 36.35 -31.95 33.65 -32.2 30.55 -32.7 24.05 -31.65 17.85 M-29.9 41.3 L-29.1 38.7 -28.2 36.85 -25.9 33.4 M-34.7 41.3 L-34.75 42.05 -35.05 43.75 -35.7 46.05 M-39.9 41.3 L-40.9 42.9 Q-42.45 45.8 -43.0 49.0 L-43.4 50.55 -43.9 52.45 Q-44.65 56.75 -47.6 60.0 -50.05 62.7 -51.25 66.2 M-25.6 41.3 Q-25.05 39.4 -24.8 37.45 L-24.75 36.3 M-27.65 46.05 Q-26.4 43.75 -25.6 41.3 M-29.9 41.3 L-39.15 71.4" fill="none" stroke="#8a412e" stroke-linecap="round" stroke-linejoin="round" stroke-width="1.5"/>
      <path d="M-36.7 -31.75 L-37.15 -28.6 -37.3 -27.3 Q-38.1 -21.4 -36.65 -17.6 L-36.45 -17.15 -36.3 -16.75 Q-34.85 -13.2 -35.1 -12.45 L-35.95 -7.1 Q-36.6 -2.55 -32.65 8.9 -28.75 20.35 -24.85 26.0 -21.0 31.7 -19.6 33.0 L-18.4 33.9 -16.85 35.35" fill="none" stroke="#000000" stroke-linecap="round" stroke-linejoin="round" stroke-width="2.0"/>
    </g>
    </g>
  </g>
  <defs>
    <radialGradient cx="0" cy="0" gradientTransform="matrix(8.0E-4, 0.0806, -0.1487, 0.0014, -4.5, -54.5)" gradientUnits="userSpaceOnUse" id="gradient0" r="819.2" spreadMethod="pad">
      <stop offset="0.0" stop-color="#330000"/>
      <stop offset="0.23137254901960785" stop-color="#7e2d01"/>
      <stop offset="0.3176470588235294" stop-color="#9f410f"/>
      <stop offset="0.38823529411764707" stop-color="#883102"/>
      <stop offset="1.0" stop-color="#480000"/>
    </radialGradient>
    <radialGradient cx="0" cy="0" gradientTransform="matrix(8.0E-4, 0.069, -0.1487, 0.0012, -4.5, -40.8)" gradientUnits="userSpaceOnUse" id="gradient1" r="819.2" spreadMethod="pad">
      <stop offset="0.0" stop-color="#330000"/>
      <stop offset="0.23137254901960785" stop-color="#7e2d01"/>
      <stop offset="0.3176470588235294" stop-color="#9f410f"/>
      <stop offset="0.38823529411764707" stop-color="#883102"/>
      <stop offset="1.0" stop-color="#480000"/>
    </radialGradient>
  </defs>
</svg>