<svg xmlns:xlink="http://www.w3.org/1999/xlink" xmlns="http://www.w3.org/2000/svg" height="202.2px" width="161.9px">
  <g transform="matrix(1.0, 0.0, 0.0, 1.0, 74.15, 81.7)">
    <g data-characterId="1448" height="155.75" transform="matrix(1.0, 0.0, 0.0, 1.0, -56.7, -74.75)" width="113.95" xlink:href="#shape0"><g id="shape0" transform="matrix(1.0, 0.0, 0.0, 1.0, 56.7, 74.75)">
      <path d="M-2.55 -71.4 L4.3 -71.75 Q16.2 -68.2 25.7 -60.0 35.3 -51.7 38.2 -39.8 41.1 -27.9 41.05 -16.7 41.0 -5.5 44.45 5.2 L51.1 27.15 Q54.45 38.6 56.35 50.35 58.35 62.55 50.5 71.0 50.8 67.2 50.15 63.4 L49.0 57.5 Q48.4 60.85 47.05 63.9 45.5 67.2 43.1 70.1 L39.9 73.4 33.35 79.3 32.0 80.5 Q32.8 79.25 33.0 78.15 L34.1 70.85 Q34.6 66.85 33.5 63.0 33.4 64.3 32.8 65.25 29.75 70.15 25.2 73.45 L21.4 76.05 17.5 78.5 Q19.25 74.9 21.55 71.7 L22.8 69.45 Q24.8 64.9 25.4 60.1 L25.8 55.8 26.1 49.1 Q23.95 52.75 21.0 55.95 16.95 60.4 11.4 62.85 L7.5 64.5 9.8 60.65 11.2 58.3 Q12.45 55.65 13.1 52.9 14.2 48.1 14.4 43.0 L14.5 33.5 Q14.4 28.1 13.5 22.9 L11.55 18.45 Q8.45 10.75 6.25 2.95 L4.15 -4.25 Q1.85 -11.95 -1.3 -19.4 -2.25 -21.65 -3.45 -23.7 -5.1 -26.6 -5.7 -29.8 -6.8 -35.25 -8.7 -40.05 L-9.6 -43.2 -10.0 -46.0 -10.75 -43.05 Q-11.55 -39.35 -11.5 -35.5 -13.9 -38.35 -14.5 -42.0 -15.05 -45.1 -14.95 -48.2 -14.85 -52.35 -14.1 -56.4 L-13.55 -58.1 M-3.0 -71.5 L-3.65 -71.4 -8.5 -73.75 -10.5 -74.25 Q-13.75 -74.05 -16.9 -72.8 -20.45 -71.2 -23.85 -69.4 -27.7 -67.2 -30.7 -63.95 L-36.2 -57.35 Q-38.9 -53.9 -41.2 -50.2 -42.35 -48.35 -43.1 -46.25 L-43.85 -43.4 -44.75 -37.15 -45.35 -31.75 -46.15 -26.2 -47.85 -16.7 Q-48.65 -12.7 -49.7 -8.65 -50.8 -4.3 -53.2 -0.65 L-56.2 3.8 Q-55.45 4.2 -53.2 2.45 -50.3 0.15 -48.0 -3.0 -48.35 1.95 -50.35 6.55 L-51.85 10.05 -52.5 11.9 -51.2 11.3 -51.0 11.2 Q-47.05 9.1 -44.7 5.0 -43.8 3.4 -43.55 1.8 M-9.0 -63.0 L-9.85 -63.05 Q-10.1 -64.5 -8.65 -65.3 -7.0 -66.3 -4.85 -66.8 L-4.5 -68.4 -4.5 -69.5 M-13.35 -59.25 L-14.0 -58.85 -14.05 -58.8 -15.0 -58.0 Q-18.5 -54.3 -21.25 -49.95 -23.9 -45.75 -25.95 -41.25 L-28.15 -36.1 -29.05 -33.3 -29.5 -31.0 Q-30.1 -32.2 -30.1 -33.5 -30.0 -38.05 -29.0 -42.4 M-29.5 -42.5 Q-31.4 -38.85 -32.15 -34.75 L-33.85 -25.0 Q-34.6 -20.4 -35.5 -15.85 L-36.85 -8.95 -36.15 -4.25 -34.0 4.9 -31.9 11.5 -29.2 18.7 Q-27.5 23.1 -25.4 27.35 L-22.5 32.7 -21.6 33.65 Q-19.95 34.9 -18.0 34.7 M-36.85 -8.95 L-39.75 -1.0 M-43.0 2.0 L-43.6 9.2 Q-44.0 13.9 -45.9 18.25 L-49.7 26.55 Q-51.65 30.95 -52.2 35.75 L-53.05 45.15 -53.3 50.65 -53.05 52.8 Q-53.25 57.3 -51.85 61.6 -50.65 65.45 -48.75 68.9 -46.6 72.95 -43.15 75.8 L-41.5 77.0 Q-44.45 72.35 -44.7 66.75 L-44.6 60.65 -44.0 54.5 Q-43.75 58.3 -42.0 61.6 -41.0 63.55 -39.6 65.15 -36.2 68.9 -32.05 71.85 L-27.0 75.0 Q-30.05 69.55 -31.4 63.45 L-32.2 58.05 -32.5 52.5 Q-28.7 59.1 -23.45 64.7 -22.3 65.95 -20.65 66.55 L-17.5 67.5 Q-19.4 64.6 -20.0 61.05 -20.35 58.9 -20.3 56.75 L-20.1 51.55 -19.75 46.9 Q-19.15 41.0 -17.75 35.25 M13.5 22.9 L18.4 30.25 Q20.45 33.25 23.55 35.85 27.3 39.1 31.5 41.5 L27.15 34.4 26.35 32.8 Q25.35 29.95 24.65 26.9 L24.15 24.45 25.3 26.7 Q27.15 30.15 29.85 32.8 33.65 36.45 38.45 38.7 L42.55 40.3 44.0 40.85 44.05 40.85 46.0 41.5 46.65 41.2 44.45 39.55 Q40.6 36.6 38.0 32.65 35.6 28.95 33.5 24.9 L32.5 22.9 33.95 24.5 34.05 24.6 Q36.1 26.7 38.7 27.8 41.25 28.7 44.1 28.65 L46.5 29.0 45.05 27.65 45.0 27.6 42.65 25.55 Q38.9 22.2 36.2 18.2 L32.9 12.7 31.0 9.0" fill="none" stroke="#000000" stroke-linecap="round" stroke-linejoin="round" stroke-width="2.0"/>
    </g>
  </g>
  </g>
  <defs>
    </defs>
</svg>