<svg xmlns:xlink="http://www.w3.org/1999/xlink" xmlns="http://www.w3.org/2000/svg" height="141.1px" width="125.05px">
  <g transform="matrix(1.0, 0.0, 0.0, 1.0, 48.6, 54.85)">
    <g data-characterId="953" height="105.0" transform="matrix(1.0, 0.0, 0.0, 1.0, -38.05, -52.5)" width="76.4" xlink:href="#shape0"><g id="shape0" transform="matrix(1.0, 0.0, 0.0, 1.0, 38.05, 52.5)">
      <path d="M-21.8 19.25 L-22.5 18.15 Q-22.55 17.3 -21.8 16.9 L-21.0 16.5 Q-19.2 16.85 -18.3 18.15 L-18.15 18.5 Q-18.25 19.2 -18.8 19.6 L-19.4 19.9 Q-20.95 20.05 -21.8 19.25" fill="#000000" fill-rule="evenodd" stroke="none"/>
      <path d="M-36.7 0.0 L-36.45 -1.45 -35.85 -4.45 -35.8 -6.55 Q-35.9 -7.35 -36.75 -9.35 -37.65 -11.35 -37.55 -13.85 -37.5 -16.4 -36.35 -19.7 -35.25 -23.0 -33.9 -29.2 -32.55 -35.4 -28.15 -40.65 -23.8 -45.9 -20.95 -47.75 -15.9 -51.1 -9.35 -51.45 L-7.9 -51.6 0.3 -52.0 Q5.75 -52.15 11.5 -49.65 L14.8 -48.0 17.05 -46.75 21.1 -44.1 29.0 -37.85 Q33.65 -33.95 36.05 -24.55 37.35 -19.5 37.7 -14.2 38.15 -7.6 37.1 -1.1 L37.05 -1.0 37.0 -0.45 36.8 0.4 Q35.9 5.15 33.85 9.65 L32.75 11.8 31.15 11.1 32.65 12.05 30.05 16.25 28.55 16.75 Q29.9 23.5 28.15 30.05 27.45 32.6 25.55 34.35 L23.9 35.8 Q20.2 38.85 16.15 41.3 12.7 43.4 8.95 45.05 1.5 48.4 -6.45 50.85 L-7.9 51.3 Q-15.95 53.35 -23.45 49.6 -25.4 48.6 -26.5 45.4 L-28.8 38.55 -30.95 31.95 -32.65 26.8 -33.45 24.45 -35.45 17.5 Q-38.25 8.75 -36.7 0.0 -31.3 -0.05 -29.5 -5.0 -31.3 -0.05 -36.7 0.0 M28.5 -19.0 L28.75 -18.0 28.5 -15.0 28.75 -18.0 28.5 -19.0 M12.5 -1.0 Q12.25 -0.75 12.0 -0.75 L3.5 -0.35 Q-2.65 -0.2 -8.45 -1.7 -12.85 -2.85 -13.5 -7.0 -12.85 -2.85 -8.45 -1.7 -2.65 -0.2 3.5 -0.35 L12.0 -0.75 Q12.25 -0.75 12.5 -1.0 M24.55 -6.25 Q25.25 -11.35 29.75 -12.0 31.0 -11.5 32.15 -9.85 34.9 -6.15 34.2 -1.45 L34.15 -1.2 34.15 -1.0 Q33.65 2.0 32.65 4.9 32.1 6.6 31.7 8.7 L31.15 11.1 Q28.35 14.4 25.55 11.75 28.35 14.4 31.15 11.1 L31.7 8.7 Q32.1 6.6 32.65 4.9 33.65 2.0 34.15 -1.0 L34.15 -1.2 34.2 -1.45 Q34.9 -6.15 32.15 -9.85 31.0 -11.5 29.75 -12.0 25.25 -11.35 24.55 -6.25 M31.45 -1.65 L31.45 -3.65 31.25 -4.55 Q30.35 -6.65 28.95 -5.15 L28.6 -4.6 Q28.05 -2.8 26.45 -2.15 28.05 -2.8 28.6 -4.6 L28.95 -5.15 Q30.35 -6.65 31.25 -4.55 L31.45 -3.65 31.45 -1.65 M-21.5 -12.5 L-21.45 -12.0 -21.0 -9.5 -21.45 -12.0 -21.5 -12.5 M-6.5 -27.0 L-7.5 -26.9 -11.05 -26.3 Q-17.35 -25.55 -23.5 -28.0 -17.35 -25.55 -11.05 -26.3 L-7.5 -26.9 -6.5 -27.0 M-26.05 -8.65 L-25.4 -8.2 Q-24.55 -7.45 -25.15 -3.85 -25.8 -0.25 -28.15 5.55 -30.55 11.3 -30.1 16.7 -29.7 22.05 -26.4 20.45 -24.1 19.25 -21.8 19.25 -24.1 19.25 -26.4 20.45 -29.7 22.05 -30.1 16.7 -30.55 11.3 -28.15 5.55 -25.8 -0.25 -25.15 -3.85 -24.55 -7.45 -25.4 -8.2 L-26.05 -8.65 M-2.5 6.0 L-4.5 6.1 -8.0 6.5 -4.5 6.1 -2.5 6.0 M4.0 3.0 L3.05 2.85 0.95 2.25 -3.5 1.65 -8.5 1.4 Q-11.25 1.25 -12.5 -1.0 -11.25 1.25 -8.5 1.4 L-3.5 1.65 0.95 2.25 3.05 2.85 4.0 3.0 M4.0 -21.5 L-11.5 -20.95 -15.0 -20.65 Q-17.25 -20.5 -19.25 -21.2 -25.0 -23.3 -31.0 -24.5 -25.0 -23.3 -19.25 -21.2 -17.25 -20.5 -15.0 -20.65 L-11.5 -20.95 4.0 -21.5 M-9.5 -16.0 L-11.85 -14.35 Q-13.35 -12.85 -15.45 -12.3 -19.25 -11.25 -17.5 -7.5 -19.25 -11.25 -15.45 -12.3 -13.35 -12.85 -11.85 -14.35 L-9.5 -16.0 M-24.75 -13.45 Q-24.4 -11.45 -23.5 -9.5 -24.4 -11.45 -24.75 -13.45 M-16.1 20.5 Q-10.6 19.0 -14.55 14.85 -10.6 19.0 -16.1 20.5 M-21.8 19.25 Q-20.95 20.05 -19.4 19.9 L-18.8 19.6 Q-18.25 19.2 -18.15 18.5 L-18.3 18.15 Q-19.2 16.85 -21.0 16.5 L-21.8 16.9 Q-22.55 17.3 -22.5 18.15 L-21.8 19.25 M-35.5 2.5 L-35.0 2.5 Q-32.75 2.5 -31.5 0.5 -32.75 2.5 -35.0 2.5 L-35.5 2.5 M-26.2 18.55 L-26.25 18.55 -26.25 18.6 -26.2 18.55 M-29.0 28.5 L-28.75 28.0 Q-28.9 24.65 -26.5 22.5 -28.9 24.65 -28.75 28.0 L-29.0 28.5 M29.45 4.35 L29.45 3.85 29.45 1.35 29.45 3.85 29.45 4.35 M5.5 38.5 Q6.0 39.25 5.8 37.5 L5.75 37.0 Q5.65 35.9 5.15 34.95 4.75 34.25 4.65 33.5 3.85 28.35 0.05 24.45 -3.4 20.9 -8.0 20.0 -3.4 20.9 0.05 24.45 3.85 28.35 4.65 33.5 4.75 34.25 5.15 34.95 5.65 35.9 5.75 37.0 L5.8 37.5 Q6.0 39.25 5.5 38.5 M19.5 9.5 L20.95 11.55 Q21.8 12.85 21.25 14.45 L20.3 17.6 Q19.6 20.1 17.0 20.55 14.45 21.0 12.65 22.65 9.85 25.25 10.25 29.5 L11.0 37.0 10.25 29.5 Q9.85 25.25 12.65 22.65 14.45 21.0 17.0 20.55 19.6 20.1 20.3 17.6 L21.25 14.45 Q21.8 12.85 20.95 11.55 L19.5 9.5" fill="url(#gradient0)" fill-rule="evenodd" stroke="none"/>
      <path d="M32.75 11.8 L32.75 11.9 32.65 12.05 31.15 11.1 32.75 11.8" fill="url(#gradient1)" fill-rule="evenodd" stroke="none"/>
      <path d="M-36.7 0.0 L-36.45 -1.45 -35.85 -4.45 -35.8 -6.55 Q-35.9 -7.35 -36.75 -9.35 -37.65 -11.35 -37.55 -13.85 -37.5 -16.4 -36.35 -19.7 -35.25 -23.0 -33.9 -29.2 -32.55 -35.4 -28.15 -40.65 -23.8 -45.9 -20.95 -47.75 -15.9 -51.1 -9.35 -51.45 L-7.9 -51.6 0.3 -52.0 Q5.75 -52.15 11.5 -49.65 L14.8 -48.0 17.05 -46.75 21.1 -44.1 29.0 -37.85 Q33.65 -33.95 36.05 -24.55 37.35 -19.5 37.7 -14.2 38.15 -7.6 37.1 -1.1 L37.05 -1.0 37.0 -0.45 36.8 0.4 Q35.9 5.15 33.85 9.65 L32.75 11.8 32.75 11.9 32.65 12.05 30.05 16.25 M23.9 35.8 Q20.2 38.85 16.15 41.3 12.7 43.4 8.95 45.05 1.5 48.4 -6.45 50.85 L-7.9 51.3 Q-15.95 53.35 -23.45 49.6 -25.4 48.6 -26.5 45.4 L-28.8 38.55 -30.95 31.95 -32.65 26.8 -33.45 24.45 -35.45 17.5 Q-38.25 8.75 -36.7 0.0 M26.45 -2.15 Q28.05 -2.8 28.6 -4.6 L28.95 -5.15 Q30.35 -6.65 31.25 -4.55 L31.45 -3.65 31.45 -1.65 M25.55 11.75 Q28.35 14.4 31.15 11.1 L31.7 8.7 Q32.1 6.6 32.65 4.9 33.65 2.0 34.15 -1.0 L34.15 -1.2 34.2 -1.45 Q34.9 -6.15 32.15 -9.85 31.0 -11.5 29.75 -12.0 25.25 -11.35 24.55 -6.25 M-21.8 19.25 Q-24.1 19.25 -26.4 20.45 -29.7 22.05 -30.1 16.7 -30.55 11.3 -28.15 5.55 -25.8 -0.25 -25.15 -3.85 -24.55 -7.45 -25.4 -8.2 L-26.05 -8.65 M-14.55 14.85 Q-10.6 19.0 -16.1 20.5 M29.45 1.35 L29.45 3.85 29.45 4.35" fill="none" stroke="#000000" stroke-linecap="round" stroke-linejoin="round" stroke-width="2.0"/>
      <path d="M28.55 16.75 Q29.9 23.5 28.15 30.05 27.45 32.6 25.55 34.35 L23.9 35.8" fill="none" stroke="#b9a882" stroke-linecap="round" stroke-linejoin="round" stroke-width="1.5"/>
      <path d="M-36.7 0.0 L-37.0 0.0 -37.5 0.0 M-13.5 -7.0 Q-12.85 -2.85 -8.45 -1.7 -2.65 -0.2 3.5 -0.35 L12.0 -0.75 Q12.25 -0.75 12.5 -1.0 M28.5 -15.0 L28.75 -18.0 28.5 -19.0 M-23.5 -28.0 Q-17.35 -25.55 -11.05 -26.3 L-7.5 -26.9 -6.5 -27.0 M-21.0 -9.5 L-21.45 -12.0 -21.5 -12.5 M-23.5 -9.5 Q-24.4 -11.45 -24.75 -13.45 M-17.5 -7.5 Q-19.25 -11.25 -15.45 -12.3 -13.35 -12.85 -11.85 -14.35 L-9.5 -16.0 M-31.0 -24.5 Q-25.0 -23.3 -19.25 -21.2 -17.25 -20.5 -15.0 -20.65 L-11.5 -20.95 4.0 -21.5 M-12.5 -1.0 Q-11.25 1.25 -8.5 1.4 L-3.5 1.65 0.95 2.25 3.05 2.85 4.0 3.0 M-8.0 6.5 L-4.5 6.1 -2.5 6.0 M-31.5 0.5 Q-32.75 2.5 -35.0 2.5 L-35.5 2.5 M-26.5 22.5 Q-28.9 24.65 -28.75 28.0 L-29.0 28.5 M11.0 37.0 L10.25 29.5 Q9.85 25.25 12.65 22.65 14.45 21.0 17.0 20.55 19.6 20.1 20.3 17.6 L21.25 14.45 Q21.8 12.85 20.95 11.55 L19.5 9.5 M-8.0 20.0 Q-3.4 20.9 0.05 24.45 3.85 28.35 4.65 33.5 4.75 34.25 5.15 34.95 5.65 35.9 5.75 37.0 L5.8 37.5 Q6.0 39.25 5.5 38.5 M-36.7 0.0 Q-31.3 -0.05 -29.5 -5.0" fill="none" stroke="#b9a882" stroke-linecap="round" stroke-linejoin="round" stroke-width="2.0"/>
    </g>
    </g>
  </g>
  <defs>
    <radialGradient cx="0" cy="0" gradientTransform="matrix(0.0543, 0.0, 0.0, 0.0824, -20.0, -3.0)" gradientUnits="userSpaceOnUse" id="gradient0" r="819.2" spreadMethod="pad">
      <stop offset="0.0" stop-color="#f1d0b1"/>
      <stop offset="0.6274509803921569" stop-color="#ecc59d"/>
      <stop offset="1.0" stop-color="#e9bb8f"/>
    </radialGradient>
    <radialGradient cx="0" cy="0" gradientTransform="matrix(0.0494, 0.0, 0.0, 0.0681, -16.0, 3.0)" gradientUnits="userSpaceOnUse" id="gradient1" r="819.2" spreadMethod="pad">
      <stop offset="0.0" stop-color="#f1d0b1"/>
      <stop offset="0.6274509803921569" stop-color="#ecc59d"/>
      <stop offset="1.0" stop-color="#e9bb8f"/>
    </radialGradient>
  </defs>
</svg>