<svg xmlns:xlink="http://www.w3.org/1999/xlink" xmlns="http://www.w3.org/2000/svg" height="6.0px" width="45.2px">
  <g transform="matrix(1.0, 0.0, 0.0, 1.0, 35.8, 9.4)">
    <path d="M-33.95 -7.1 L-34.2 -7.1 -33.85 -7.4 -33.7 -7.5 -33.5 -7.7 -33.15 -7.9 -33.05 -7.95 -32.8 -8.15 -32.6 -8.2 -32.45 -8.2 -32.4 -8.1 -32.65 -7.95 -32.75 -7.9 -33.2 -7.7 -33.45 -7.5 -33.6 -7.4 -33.95 -7.1 -33.6 -7.4 -33.45 -7.5 -33.2 -7.7 -32.75 -7.9 -32.65 -7.95 -32.4 -8.1 Q-32.25 -7.8 -32.4 -7.5 -32.65 -6.75 -33.5 -7.1 L-33.65 -7.3 -33.85 -7.15 -33.95 -7.1 M-30.35 -7.85 Q-28.65 -7.8 -27.3 -6.5 L-27.1 -6.2 -27.8 -5.85 -28.3 -6.0 -29.4 -7.05 -30.35 -7.85" fill="#e4af7a" fill-rule="evenodd" stroke="none"/>
    <path d="M-9.95 -3.9 Q-8.6 -7.95 -1.4 -8.8 4.0 -9.4 8.1 -5.6 L8.9 -4.8 M-32.4 -8.1 L-32.35 -8.15 -32.1 -8.2 -31.95 -8.2 -29.45 -7.85 Q-27.45 -7.8 -25.85 -6.5 L-25.6 -6.2 -23.95 -4.3 M-33.95 -7.1 L-33.6 -7.4 -33.45 -7.5 -33.2 -7.7 -32.75 -7.9 -32.65 -7.95 -32.4 -8.1 M-33.95 -7.1 L-34.0 -7.1 -34.15 -7.0 -34.8 -6.4 Q-35.4 -6.1 -35.25 -5.6" fill="none" stroke="#000000" stroke-linecap="round" stroke-linejoin="round" stroke-width="2.0"/>
  </g>
</svg>