<svg xmlns:xlink="http://www.w3.org/1999/xlink" xmlns="http://www.w3.org/2000/svg" height="119.1px" width="213.05px">
  <g transform="matrix(1.0, 0.0, 0.0, 1.0, 94.65, 81.2)">
    <g data-characterId="889" height="31.25" transform="matrix(1.0, 0.0, 0.0, 1.0, -59.3, -22.5)" width="132.25" xlink:href="#shape0"><g id="shape0" transform="matrix(1.0, 0.0, 0.0, 1.0, 59.3, 22.5)">
      <path d="M25.75 -11.75 Q23.05 -6.15 15.9 -4.1 L12.85 -3.15 Q10.2 -3.1 6.95 1.6 L2.5 8.25 6.95 1.6 Q10.2 -3.1 12.85 -3.15 L15.9 -4.1 Q23.05 -6.15 25.75 -11.75 M-21.65 -18.75 Q-21.5 -16.9 -20.35 -14.8 -19.3 -12.85 -17.7 -11.15 -16.2 -9.55 -14.35 -8.25 -13.2 -7.45 -11.8 -7.1 -6.55 -5.25 -0.95 -5.85 L3.8 -6.35 8.15 -7.4 Q11.2 -8.35 14.2 -9.45 18.45 -10.95 22.3 -13.55 23.8 -14.6 24.75 -16.15 L28.5 -22.0 33.25 -17.55 32.6 -16.3 Q30.85 -12.25 29.25 -6.7 L27.95 1.05 Q27.05 7.1 26.45 8.25 L2.5 8.25 -26.2 8.25 -26.6 2.35 Q-26.9 -2.75 -27.1 -3.5 L-29.25 -13.05 Q-29.4 -13.75 -30.0 -14.2 L-25.4 -16.15 -23.0 -17.05 Q-22.4 -17.2 -21.65 -18.75 M33.25 -17.55 L32.6 -16.3 33.25 -17.55 M-22.25 -12.75 Q-21.7 -12.6 -21.65 -11.75 L-21.55 -11.45 -21.4 -11.1 -20.85 -10.5 -19.25 -9.0 Q-15.75 -5.75 -14.0 -1.5 -15.75 -5.75 -19.25 -9.0 L-20.85 -10.5 -21.4 -11.1 -21.55 -11.45 -21.65 -11.75 Q-21.7 -12.6 -22.25 -12.75" fill="#ecc59d" fill-rule="evenodd" stroke="none"/>
      <path d="M-30.0 -14.2 Q-29.4 -13.75 -29.25 -13.05 L-27.1 -3.5 Q-26.9 -2.75 -26.6 2.35 L-26.2 8.25 -42.95 8.25 Q-43.2 -3.45 -43.6 -5.95 L-44.4 -10.5 -46.5 -10.25 -44.7 -11.1 -44.4 -11.25 Q-42.5 -11.6 -41.25 -12.2 L-38.5 -13.35 -35.25 -14.65 -32.0 -15.4 Q-30.75 -15.15 -30.0 -14.2 M26.45 8.25 Q27.05 7.1 27.95 1.05 L29.25 -6.7 Q30.85 -12.25 32.6 -16.3 L33.25 -17.55 35.5 -18.75 Q39.15 -16.75 43.0 -15.4 L47.0 -14.25 Q49.15 -13.75 50.9 -12.55 L50.5 -12.0 Q48.15 -9.85 45.35 -2.4 L41.45 8.25 26.45 8.25" fill="#666600" fill-rule="evenodd" stroke="none"/>
      <path d="M50.9 -12.55 Q60.65 -12.6 67.1 -5.55 73.5 1.45 72.25 8.25 L41.45 8.25 45.35 -2.4 Q48.15 -9.85 50.5 -12.0 L50.9 -12.55 M-58.5 8.25 Q-59.05 7.05 -58.6 2.1 -58.05 -3.15 -56.9 -4.7 -55.3 -6.85 -53.8 -7.75 -51.4 -9.25 -46.5 -10.25 L-44.4 -10.5 -43.6 -5.95 Q-43.2 -3.45 -42.95 8.25 L-58.5 8.25" fill="#999966" fill-rule="evenodd" stroke="none"/>
      <path d="M-21.65 -18.75 Q-22.4 -17.2 -23.0 -17.05 L-25.4 -16.15 -30.0 -14.2 Q-29.4 -13.75 -29.25 -13.05 L-27.1 -3.5 Q-26.9 -2.75 -26.6 2.35 L-26.2 8.25 M26.45 8.25 Q27.05 7.1 27.95 1.05 L29.25 -6.7 Q30.85 -12.25 32.6 -16.3 L33.25 -17.55 28.5 -22.0 M50.9 -12.55 Q49.15 -13.75 47.0 -14.25 L43.0 -15.4 Q39.15 -16.75 35.5 -18.75 L33.25 -17.55 M50.9 -12.55 Q60.65 -12.6 67.1 -5.55 73.5 1.45 72.25 8.25 M41.45 8.25 L45.35 -2.4 Q48.15 -9.85 50.5 -12.0 M-46.5 -10.25 L-44.7 -11.1 -44.4 -11.25 Q-42.5 -11.6 -41.25 -12.2 L-38.5 -13.35 -35.25 -14.65 -32.0 -15.4 Q-30.75 -15.15 -30.0 -14.2 M-46.5 -10.25 Q-51.4 -9.25 -53.8 -7.75 -55.3 -6.85 -56.9 -4.7 -58.05 -3.15 -58.6 2.1 -59.05 7.05 -58.5 8.25 M-42.95 8.25 Q-43.2 -3.45 -43.6 -5.95 L-44.4 -10.5 M-21.65 -18.75 L-21.25 -21.75" fill="none" stroke="#000000" stroke-linecap="round" stroke-linejoin="round" stroke-width="2.0"/>
      <path d="M2.5 8.25 L6.95 1.6 Q10.2 -3.1 12.85 -3.15 L15.9 -4.1 Q23.05 -6.15 25.75 -11.75 M-14.0 -1.5 Q-15.75 -5.75 -19.25 -9.0 L-20.85 -10.5 -21.4 -11.1 -21.55 -11.45 -21.65 -11.75 Q-21.7 -12.6 -22.25 -12.75" fill="none" stroke="#b9a882" stroke-linecap="round" stroke-linejoin="round" stroke-width="2.0"/>
    </g>
  </g>
  </g>
  <defs>
    </defs>
</svg>