<svg xmlns:xlink="http://www.w3.org/1999/xlink" xmlns="http://www.w3.org/2000/svg" height="5.75px" width="16.05px">
  <g transform="matrix(1.0, 0.0, 0.0, 1.0, 7.35, -0.65)">
    <path d="M-6.85 1.75 Q1.9 0.2 6.15 2.6 6.8 3.2 7.9 3.75 L8.2 4.85 7.2 5.9 4.5 5.0 -1.65 4.6 -5.5 4.8 -5.5 4.25 -5.0 3.25 -5.85 2.3 -6.5 1.75 -6.85 1.75" fill="#660000" fill-rule="evenodd" stroke="none"/>
    <path d="M-6.85 1.75 Q1.9 0.2 6.15 2.6 6.8 3.2 7.9 3.75 L8.2 4.85 7.2 5.9 4.5 5.0 -1.65 4.6 -5.5 4.8 M-5.5 4.25 L-5.0 3.25 -5.85 2.3 -6.5 1.75" fill="none" stroke="#000000" stroke-linecap="round" stroke-linejoin="round" stroke-width="2.0"/>
  </g>
</svg>