<svg xmlns:xlink="http://www.w3.org/1999/xlink" xmlns="http://www.w3.org/2000/svg" height="141.1px" width="125.05px">
  <g transform="matrix(1.0, 0.0, 0.0, 1.0, 48.6, 54.85)">
    <g data-characterId="974" height="105.6" transform="matrix(1.0, 0.0, 0.0, 1.0, -38.15, -52.5)" width="76.5" xlink:href="#shape0"><g id="shape0" transform="matrix(1.0, 0.0, 0.0, 1.0, 38.15, 52.5)">
      <path d="M23.9 35.8 L17.9 41.15 Q15.6 43.4 11.4 45.9 8.95 47.35 5.8 48.45 L0.95 49.75 -10.6 52.25 Q-15.9 53.35 -21.0 51.0 -26.1 48.6 -27.65 45.4 -29.2 42.2 -30.1 38.55 -31.05 34.9 -32.3 31.95 -33.6 28.95 -34.15 26.8 L-35.1 22.8 -37.0 14.5 Q-38.5 8.0 -36.45 -1.45 L-35.85 -4.45 -35.8 -6.55 Q-35.9 -7.35 -36.75 -9.35 -37.65 -11.35 -37.55 -13.85 -37.5 -16.4 -36.35 -19.7 -35.25 -23.0 -33.9 -29.2 -33.2 -32.3 -31.75 -35.15 L-31.5 -35.65 Q-30.15 -38.25 -28.15 -40.65 -23.8 -45.9 -20.95 -47.75 -15.9 -51.1 -9.35 -51.45 L-7.9 -51.6 0.3 -52.0 Q5.75 -52.15 11.5 -49.65 L14.8 -48.0 17.05 -46.75 21.1 -44.1 29.0 -37.85 Q33.65 -33.95 36.05 -24.55 37.35 -19.5 37.7 -14.2 38.15 -7.6 37.1 -1.1 L37.05 -1.0 37.0 -0.45 36.8 0.4 Q35.9 5.15 33.85 9.65 L32.75 11.8 32.9 11.45 32.75 11.8 32.0 13.15 30.05 16.25 28.55 16.75 Q29.9 23.5 28.15 30.05 27.45 32.6 25.55 34.35 L23.9 35.8 M-25.0 -14.0 L-24.6 -12.95 -23.45 -9.95 -24.6 -12.95 -25.0 -14.0 M-23.7 -11.7 L-23.25 -10.15 -23.25 -10.1 -23.2 -9.65 Q-22.95 -8.3 -21.85 -8.05 -22.95 -8.3 -23.2 -9.65 L-23.25 -10.1 -23.45 -9.95 Q-24.05 -9.45 -24.6 -9.2 -24.05 -9.45 -23.45 -9.95 L-23.25 -10.1 -23.25 -10.15 -23.7 -11.7 M-27.8 -8.65 L-25.4 -8.2 -25.7 -3.7 Q-25.75 -1.9 -26.15 0.45 -26.65 2.9 -27.6 6.0 -29.45 11.95 -29.4 15.65 -29.35 19.3 -26.2 20.65 -23.05 22.0 -18.35 19.35 -23.05 22.0 -26.2 20.65 -29.35 19.3 -29.4 15.65 -29.45 11.95 -27.6 6.0 -26.65 2.9 -26.15 0.45 -25.75 -1.9 -25.7 -3.7 L-25.4 -8.2 -27.8 -8.65 M-20.0 -14.0 L-21.0 -13.5 Q-23.5 -12.25 -22.0 -9.5 -23.5 -12.25 -21.0 -13.5 L-20.0 -14.0 M20.25 4.6 Q20.25 8.65 18.5 12.25 L17.2 14.25 Q15.7 15.95 14.45 17.9 14.0 18.55 14.0 19.3 L13.9 20.95 Q13.65 22.3 13.9 23.7 14.05 24.65 13.55 24.85 14.05 24.65 13.9 23.7 13.65 22.3 13.9 20.95 L14.0 19.3 Q14.0 18.55 14.45 17.9 15.7 15.95 17.2 14.25 L18.5 12.25 Q20.25 8.65 20.25 4.6 M29.45 4.35 L29.45 3.85 29.45 1.35 29.45 3.85 29.45 4.35 M31.45 -1.65 L31.45 -3.65 31.25 -4.55 Q30.35 -6.65 28.95 -5.15 L28.6 -4.6 Q28.05 -2.8 26.45 -2.15 28.05 -2.8 28.6 -4.6 L28.95 -5.15 Q30.35 -6.65 31.25 -4.55 L31.45 -3.65 31.45 -1.65 M24.55 -6.25 Q24.85 -8.6 26.0 -10.0 27.3 -11.65 29.75 -12.0 31.0 -11.5 32.15 -9.85 34.9 -6.15 34.2 -1.45 L34.2 -1.35 34.15 -1.2 34.15 -1.05 34.15 -1.0 Q33.65 2.0 32.65 4.9 32.1 6.6 31.7 8.7 L31.15 11.1 Q28.35 14.4 25.55 11.75 28.35 14.4 31.15 11.1 L31.7 8.7 Q32.1 6.6 32.65 4.9 33.65 2.0 34.15 -1.0 L34.15 -1.05 34.15 -1.2 34.2 -1.35 34.2 -1.45 Q34.9 -6.15 32.15 -9.85 31.0 -11.5 29.75 -12.0 27.3 -11.65 26.0 -10.0 24.85 -8.6 24.55 -6.25 M-12.85 -21.6 L-17.9 -20.9 -26.45 -20.25 -17.9 -20.9 -12.85 -21.6 M19.55 15.1 Q17.65 16.05 17.0 18.5 17.65 16.05 19.55 15.1 M12.5 3.5 Q8.65 3.5 5.0 2.05 3.0 1.25 0.95 0.8 -3.4 -0.15 -5.5 -4.0 -3.4 -0.15 0.95 0.8 3.0 1.25 5.0 2.05 8.65 3.5 12.5 3.5 M-14.0 20.5 Q-12.3 19.0 -12.95 16.85 -12.3 19.0 -14.0 20.5 M2.5 35.0 Q1.5 29.55 -0.35 23.95 -0.75 22.75 -1.3 21.65 L-2.3 19.85 Q-4.05 17.05 -7.0 16.5 -4.05 17.05 -2.3 19.85 L-1.3 21.65 Q-0.75 22.75 -0.35 23.95 1.5 29.55 2.5 35.0 M-0.9 3.9 Q-2.75 2.35 -5.0 1.5 -2.75 2.35 -0.9 3.9 M-31.5 15.25 Q-32.5 15.8 -32.2 17.55 -31.95 19.1 -31.2 19.85 -31.95 19.1 -32.2 17.55 -32.5 15.8 -31.5 15.25 M-26.25 18.6 L-26.2 18.55 -26.25 18.55 -26.25 18.6 M-35.0 1.25 Q-33.4 0.8 -32.0 -0.5 -33.4 0.8 -35.0 1.25 M-31.5 26.5 L-31.55 26.0 Q-32.3 22.3 -29.5 20.5 -32.3 22.3 -31.55 26.0 L-31.5 26.5" fill="url(#gradient0)" fill-rule="evenodd" stroke="none"/>
      <path d="M23.9 35.8 L17.9 41.15 Q15.6 43.4 11.4 45.9 8.95 47.35 5.8 48.45 L0.95 49.75 -10.6 52.25 Q-15.9 53.35 -21.0 51.0 -26.1 48.6 -27.65 45.4 -29.2 42.2 -30.1 38.55 -31.05 34.9 -32.3 31.95 -33.6 28.95 -34.15 26.8 L-35.1 22.8 -37.0 14.5 Q-38.5 8.0 -36.45 -1.45 L-35.85 -4.45 -35.8 -6.55 Q-35.9 -7.35 -36.75 -9.35 -37.65 -11.35 -37.55 -13.85 -37.5 -16.4 -36.35 -19.7 -35.25 -23.0 -33.9 -29.2 -33.2 -32.3 -31.75 -35.15 L-31.5 -35.65 Q-30.15 -38.25 -28.15 -40.65 -23.8 -45.9 -20.95 -47.75 -15.9 -51.1 -9.35 -51.45 L-7.9 -51.6 0.3 -52.0 Q5.75 -52.15 11.5 -49.65 L14.8 -48.0 17.05 -46.75 21.1 -44.1 29.0 -37.85 Q33.65 -33.95 36.05 -24.55 37.35 -19.5 37.7 -14.2 38.15 -7.6 37.1 -1.1 L37.05 -1.0 37.0 -0.45 36.8 0.4 Q35.9 5.15 33.85 9.65 L32.75 11.8 32.9 11.45 32.75 11.8 32.0 13.15 30.05 16.25 M-18.35 19.35 Q-23.05 22.0 -26.2 20.65 -29.35 19.3 -29.4 15.65 -29.45 11.95 -27.6 6.0 -26.65 2.9 -26.15 0.45 -25.75 -1.9 -25.7 -3.7 L-25.4 -8.2 -27.8 -8.65 M-21.85 -8.05 Q-22.95 -8.3 -23.2 -9.65 L-23.25 -10.1 -23.45 -9.95 Q-24.05 -9.45 -24.6 -9.2 M-23.25 -10.1 L-23.25 -10.15 -23.7 -11.7 M-26.45 -20.25 L-17.9 -20.9 -12.85 -21.6 M25.55 11.75 Q28.35 14.4 31.15 11.1 L31.7 8.7 Q32.1 6.6 32.65 4.9 33.65 2.0 34.15 -1.0 L34.15 -1.05 34.15 -1.2 34.2 -1.35 34.2 -1.45 Q34.9 -6.15 32.15 -9.85 31.0 -11.5 29.75 -12.0 27.3 -11.65 26.0 -10.0 24.85 -8.6 24.55 -6.25 M26.45 -2.15 Q28.05 -2.8 28.6 -4.6 L28.95 -5.15 Q30.35 -6.65 31.25 -4.55 L31.45 -3.65 31.45 -1.65 M29.45 1.35 L29.45 3.85 29.45 4.35 M13.55 24.85 Q14.05 24.65 13.9 23.7 13.65 22.3 13.9 20.95 L14.0 19.3 Q14.0 18.55 14.45 17.9 15.7 15.95 17.2 14.25 L18.5 12.25 Q20.25 8.65 20.25 4.6 M-12.95 16.85 Q-12.3 19.0 -14.0 20.5 M-31.2 19.85 Q-31.95 19.1 -32.2 17.55 -32.5 15.8 -31.5 15.25" fill="none" stroke="#000000" stroke-linecap="round" stroke-linejoin="round" stroke-width="2.0"/>
      <path d="M28.55 16.75 Q29.9 23.5 28.15 30.05 27.45 32.6 25.55 34.35 L23.9 35.8" fill="none" stroke="#000000" stroke-linecap="round" stroke-linejoin="round" stroke-width="1.5"/>
      <path d="M-23.45 -9.95 L-24.6 -12.95 -25.0 -14.0 M-22.0 -9.5 Q-23.5 -12.25 -21.0 -13.5 L-20.0 -14.0 M-5.5 -4.0 Q-3.4 -0.15 0.95 0.8 3.0 1.25 5.0 2.05 8.65 3.5 12.5 3.5 M17.0 18.5 Q17.65 16.05 19.55 15.1 M-5.0 1.5 Q-2.75 2.35 -0.9 3.9 M-7.0 16.5 Q-4.05 17.05 -2.3 19.85 L-1.3 21.65 Q-0.75 22.75 -0.35 23.95 1.5 29.55 2.5 35.0 M-29.5 20.5 Q-32.3 22.3 -31.55 26.0 L-31.5 26.5 M-32.0 -0.5 Q-33.4 0.8 -35.0 1.25" fill="none" stroke="#51352b" stroke-linecap="round" stroke-linejoin="round" stroke-width="2.0"/>
    </g>
    </g>
  </g>
  <defs>
    <radialGradient cx="0" cy="0" gradientTransform="matrix(0.0543, 0.0, 0.0, 0.0824, -20.0, -3.0)" gradientUnits="userSpaceOnUse" id="gradient0" r="819.2" spreadMethod="pad">
      <stop offset="0.0" stop-color="#804317"/>
      <stop offset="0.615686274509804" stop-color="#6f3a15"/>
      <stop offset="1.0" stop-color="#42270d"/>
    </radialGradient>
  </defs>
</svg>