<svg xmlns:xlink="http://www.w3.org/1999/xlink" xmlns="http://www.w3.org/2000/svg" height="264.15px" width="342.25px">
  <g transform="matrix(1.0, 0.0, 0.0, 1.0, 243.25, 83.7)">
    <g data-characterId="1169" height="99.5" transform="matrix(1.0, 0.0, 0.0, 1.0, -44.85, -41.0)" width="94.85" xlink:href="#shape0"><g id="shape0" transform="matrix(1.0, 0.0, 0.0, 1.0, 44.85, 41.0)">
      <path d="M-3.15 -24.65 L-3.75 -23.15 -7.0 -22.75 Q-8.0 -19.85 -9.8 -17.45 L-15.3 -9.55 Q-16.05 -9.5 -20.4 -5.25 -24.75 -1.0 -32.3 0.45 L-33.0 0.0 -31.3 -1.75 Q-28.8 -4.5 -28.0 -8.0 L-43.0 -0.5 -37.0 -10.0 -38.7 -9.4 Q-41.55 -8.35 -44.35 -8.9 L-43.6 -8.95 -35.0 -16.5 -42.0 -16.0 Q-34.4 -19.45 -30.05 -26.85 -27.45 -31.4 -23.2 -33.85 4.7 -49.65 29.2 -27.95 38.15 -20.1 40.45 -8.4 L47.1 25.3 42.5 23.0 Q41.25 37.05 49.5 48.0 L47.8 47.4 Q40.65 44.7 38.0 37.0 36.4 47.1 40.5 56.5 L38.9 55.6 Q36.35 54.05 35.0 51.5 L33.0 52.1 Q29.4 30.0 35.7 8.2 L35.0 8.35 Q32.85 9.5 32.4 11.95 L30.05 12.45 29.15 8.75 Q28.5 6.35 27.0 4.5 25.25 12.65 26.0 21.0 19.75 12.3 16.5 2.0 L13.75 9.25 13.55 7.15 Q13.5 4.55 12.2 2.7 3.7 -9.8 -3.75 -23.15 L-2.8 -23.85 -3.15 -24.65 Q-3.15 -27.9 -1.5 -30.2 0.15 -32.5 2.5 -32.5 0.15 -32.5 -1.5 -30.2 -3.15 -27.9 -3.15 -24.65 M-17.9 39.65 Q-21.65 43.15 -25.6 45.85 -29.6 48.5 -34.3 42.95 L-34.0 42.5 Q-28.9 43.3 -27.15 38.15 -25.35 32.95 -19.5 34.5 L-18.4 33.55 Q-12.25 33.3 -6.95 37.9 -1.7 42.5 3.0 40.0 L3.3 40.9 Q-4.45 50.1 -14.25 41.4 -15.5 40.25 -17.5 40.0 L-17.9 39.65" fill="#ffffff" fill-rule="evenodd" stroke="none"/>
      <path d="M35.0 51.5 Q36.35 54.05 38.9 55.6 L40.5 56.5 Q36.4 47.1 38.0 37.0 40.65 44.7 47.8 47.4 L49.5 48.0 Q41.25 37.05 42.5 23.0 L47.1 25.3 40.45 -8.4 Q38.15 -20.1 29.2 -27.95 4.7 -49.65 -23.2 -33.85 -27.45 -31.4 -30.05 -26.85 -34.4 -19.45 -42.0 -16.0 L-35.0 -16.5 -43.6 -8.95 -44.35 -8.9 Q-41.55 -8.35 -38.7 -9.4 L-37.0 -10.0 -43.0 -0.5 -28.0 -8.0 Q-28.8 -4.5 -31.3 -1.75 L-33.0 0.0 -32.3 0.45 Q-24.75 -1.0 -20.4 -5.25 -16.05 -9.5 -15.3 -9.55 L-9.8 -17.45 Q-8.0 -19.85 -7.0 -22.75 L-3.75 -23.15 -3.15 -24.65 Q-3.15 -27.9 -1.5 -30.2 0.15 -32.5 2.5 -32.5 M32.4 11.95 Q32.85 9.5 35.0 8.35 L35.7 8.2 Q29.4 30.0 33.0 52.1 L35.5 58.0 35.0 51.5 M32.4 11.95 L30.5 20.0 30.05 12.45 29.15 8.75 Q28.5 6.35 27.0 4.5 25.25 12.65 26.0 21.0 19.75 12.3 16.5 2.0 L13.75 9.25 13.55 7.15 Q13.5 4.55 12.2 2.7 3.7 -9.8 -3.75 -23.15 L-2.8 -23.85 -3.15 -24.65 M-17.9 39.65 Q-21.65 43.15 -25.6 45.85 -29.6 48.5 -34.3 42.95 L-34.0 42.5 Q-28.9 43.3 -27.15 38.15 -25.35 32.95 -19.5 34.5 L-18.4 33.55 Q-12.25 33.3 -6.95 37.9 -1.7 42.5 3.0 40.0 L3.3 40.9 Q-4.45 50.1 -14.25 41.4 -15.5 40.25 -17.5 40.0" fill="none" stroke="#000000" stroke-linecap="round" stroke-linejoin="round" stroke-width="2.0"/>
    </g>
  </g>
  </g>
  <defs>
    </defs>
</svg>