<svg xmlns:xlink="http://www.w3.org/1999/xlink" xmlns="http://www.w3.org/2000/svg" height="42.85px" width="62.0px">
  <g transform="matrix(1.0, 0.0, 0.0, 1.0, 24.7, 15.0)">
    <g data-characterId="1117" height="20.5" transform="matrix(1.0, 0.0, 0.0, 1.0, -17.25, -15.0)" width="40.25" xlink:href="#shape0"><g id="shape0" transform="matrix(1.0, 0.0, 0.0, 1.0, 17.25, 15.0)">
      <path d="M6.6 -13.5 L6.95 -13.4 Q6.8 -10.35 5.0 -7.85 L13.6 -11.95 11.8 -7.3 19.25 -9.05 Q16.75 -7.35 15.25 -4.75 L17.5 -6.1 20.05 -7.3 Q21.3 -7.95 22.5 -8.75 L21.05 -6.05 18.75 -2.85 Q17.1 -0.85 15.55 0.4 L20.3 -1.6 Q20.5 -0.1 19.7 1.15 18.9 2.3 17.7 2.7 L14.8 2.95 9.9 2.55 Q6.3 2.6 2.75 1.7 -2.15 0.65 -6.9 2.1 L-8.7 2.75 Q-11.15 3.85 -13.7 4.75 L-14.85 5.0 -15.35 4.7 -15.6 4.9 -16.5 3.1 Q-16.9 2.15 -16.65 1.2 -16.15 -0.9 -14.25 -2.3 -11.9 -3.9 -10.2 -6.1 L-9.9 -6.05 -10.5 -3.35 -8.5 -4.25 Q-4.4 -6.3 -2.15 -10.15 L-1.85 -10.1 Q-1.55 -7.9 -2.95 -6.1 1.05 -9.0 5.15 -11.4 6.35 -12.2 6.6 -13.5 M-9.7 0.9 L-8.5 -0.25 Q-6.4 -2.15 -5.0 -4.7 -6.4 -2.15 -8.5 -0.25 L-9.7 0.9 M-4.4 -0.7 L-2.35 -2.4 Q1.25 -5.6 4.35 -9.35 1.25 -5.6 -2.35 -2.4 L-4.4 -0.7 M10.75 0.55 L12.15 -0.4 Q14.6 -2.25 16.3 -4.85 14.6 -2.25 12.15 -0.4 L10.75 0.55 M7.2 -0.45 L8.65 -1.7 Q10.8 -3.55 12.4 -5.9 10.8 -3.55 8.65 -1.7 L7.2 -0.45 M2.3 -1.15 L4.35 -2.35 Q8.0 -4.3 9.05 -8.4 8.0 -4.3 4.35 -2.35 L2.3 -1.15 M-15.2 2.75 L-13.05 -0.9 -15.2 2.75" fill="#886646" fill-rule="evenodd" stroke="none"/>
      <path d="M9.05 -8.4 Q8.0 -4.3 4.35 -2.35 L2.3 -1.15 M12.4 -5.9 Q10.8 -3.55 8.65 -1.7 L7.2 -0.45 M16.3 -4.85 Q14.6 -2.25 12.15 -0.4 L10.75 0.55 M4.35 -9.35 Q1.25 -5.6 -2.35 -2.4 L-4.4 -0.7 M-5.0 -4.7 Q-6.4 -2.15 -8.5 -0.25 L-9.7 0.9 M-13.05 -0.9 L-15.2 2.75" fill="none" stroke="#cccccc" stroke-linecap="round" stroke-linejoin="round" stroke-width="1.5"/>
      <path d="M6.95 -13.4 L6.95 -14.5 6.6 -13.5 Q6.35 -12.2 5.15 -11.4 1.05 -9.0 -2.95 -6.1 -1.55 -7.9 -1.85 -10.1 L-1.95 -10.7 -2.15 -10.15 Q-4.4 -6.3 -8.5 -4.25 L-10.5 -3.35 -9.9 -6.05 -9.95 -6.25 -10.2 -6.1 Q-11.9 -3.9 -14.25 -2.3 -16.15 -0.9 -16.65 1.2 -16.9 2.15 -16.5 3.1 L-15.6 4.9 -14.85 5.0 -13.7 4.75 Q-11.15 3.85 -8.7 2.75 L-6.9 2.1 Q-2.15 0.65 2.75 1.7 6.3 2.6 9.9 2.55 L14.8 2.95 17.7 2.7 Q18.9 2.3 19.7 1.15 20.5 -0.1 20.3 -1.6 L15.55 0.4 Q17.1 -0.85 18.75 -2.85 L21.05 -6.05 22.5 -8.75 Q21.3 -7.95 20.05 -7.3 L17.5 -6.1 15.25 -4.75 Q16.75 -7.35 19.25 -9.05 L11.8 -7.3 13.6 -11.95 5.0 -7.85 Q6.8 -10.35 6.95 -13.4 M-15.35 4.7 L-14.85 5.0" fill="none" stroke="#000000" stroke-linecap="round" stroke-linejoin="round" stroke-width="2.0"/>
    </g>
  </g>
  </g>
  <defs>
    </defs>
</svg>