<svg xmlns:xlink="http://www.w3.org/1999/xlink" xmlns="http://www.w3.org/2000/svg" height="264.15px" width="342.25px">
  <g transform="matrix(1.0, 0.0, 0.0, 1.0, 243.25, 83.7)">
    <g data-characterId="1167" height="152.0" transform="matrix(1.0, 0.0, 0.0, 1.0, -41.2, -45.15)" width="111.75" xlink:href="#shape0"><g id="shape0" transform="matrix(1.0, 0.0, 0.0, 1.0, 41.2, 45.15)">
      <path d="M33.4 64.55 Q33.2 66.15 30.5 66.75 32.25 69.65 29.9 72.35 L27.55 74.3 Q23.75 73.65 22.6 77.2 21.95 79.4 20.4 81.05 L17.85 82.9 Q14.6 84.5 11.05 84.5 L11.5 87.3 8.5 89.8 9.15 93.75 Q8.6 95.4 6.95 95.6 3.35 96.05 0.8 98.55 0.25 99.05 -0.55 99.25 -5.2 100.5 -9.75 100.0 -13.05 99.4 -15.0 102.4 -16.45 104.65 -19.35 105.0 -20.1 105.25 -20.65 105.85 L-21.9 106.85 Q-27.3 103.75 -29.95 98.05 L-30.8 96.3 Q-33.35 91.75 -35.4 86.8 -36.2 84.85 -36.0 82.6 L-35.9 79.75 -36.35 71.4 -36.75 65.55 Q-37.0 63.35 -36.5 61.05 -35.6 56.8 -36.0 52.35 -36.15 50.8 -35.35 49.45 -35.8 43.75 -33.6 38.5 -33.15 37.4 -33.45 36.3 -34.7 31.7 -33.65 27.2 L-33.45 25.75 -30.95 29.45 -29.75 29.55 Q-29.75 31.15 -28.35 32.75 -26.4 34.95 -25.7 36.55 -24.5 35.65 -22.9 35.05 -21.55 34.45 -21.9 34.35 -22.25 34.2 -19.25 33.7 L-12.9 34.4 -11.65 33.75 -8.85 33.3 -6.65 31.95 Q-2.95 31.6 0.65 32.7 6.55 34.55 13.8 44.65 L15.85 44.5 Q16.1 44.45 16.4 44.95 17.45 42.25 19.8 40.95 L21.7 36.85 22.75 40.65 Q25.05 48.1 33.4 64.55 M19.6 16.0 Q15.4 15.5 12.4 12.35 L12.15 12.1 12.0 10.0 Q9.15 7.05 8.65 3.05 L19.0 5.8 Q18.75 6.3 18.75 6.85 18.65 11.4 19.6 16.0 M-32.35 4.65 Q-32.15 10.95 -34.0 16.9 L-35.0 18.45 -36.0 14.55 Q-37.35 9.75 -35.55 3.8 L-32.35 4.65 M16.35 45.1 L16.3 45.35 16.4 45.15 16.4 44.95 16.35 45.1 M16.3 45.35 L16.15 45.7 Q16.0 46.2 16.25 45.7 L16.3 45.35 M-22.7 44.15 L-24.4 48.75 -18.95 49.45 -17.2 49.35 -14.7 48.75 Q-11.85 48.05 -10.6 45.3 -8.15 48.6 -4.3 50.05 -0.55 51.4 3.25 49.9 2.4 45.5 -0.55 43.1 -3.5 40.65 -6.9 40.35 -10.3 40.0 -13.9 40.3 -17.5 40.55 -22.7 44.15 M-31.65 46.0 Q-30.95 43.7 -29.15 40.75 -27.25 37.6 -25.7 36.55 -27.25 37.6 -29.15 40.75 -30.95 43.7 -31.65 46.0" fill="#000000" fill-rule="evenodd" stroke="none"/>
      <path d="M24.75 -21.3 Q14.35 -20.5 4.4 -23.6 L-9.05 -27.4 Q-18.15 -29.55 -27.6 -29.35 -18.15 -29.55 -9.05 -27.4 L4.4 -23.6 Q14.35 -20.5 24.75 -21.3 M-6.9 -38.6 Q-4.5 -35.7 -1.0 -34.7 6.9 -32.8 14.55 -35.3 21.45 -37.65 28.85 -37.7 33.1 -37.1 34.55 -32.85 33.1 -37.1 28.85 -37.7 21.45 -37.65 14.55 -35.3 6.9 -32.8 -1.0 -34.7 -4.5 -35.7 -6.9 -38.6 M-36.75 -18.1 L-36.5 -19.65 Q-35.05 -27.25 -27.6 -29.35 -20.7 -36.6 -12.85 -42.65 -12.0 -43.35 -10.9 -43.55 -0.5 -45.95 10.35 -44.75 L31.8 -44.05 Q33.1 -44.05 33.9 -43.05 37.2 -38.85 41.3 -34.95 44.55 -31.75 45.25 -27.5 46.2 -21.6 45.1 -15.45 42.4 -19.25 38.1 -20.7 L36.3 -21.2 Q29.3 -23.45 23.6 -19.6 29.3 -23.45 36.3 -21.2 L38.1 -20.7 Q42.4 -19.25 45.1 -15.45 52.3 -10.5 53.3 -2.1 53.4 -1.5 53.0 -0.9 L52.05 0.35 51.9 1.85 52.5 2.95 Q54.0 8.85 49.35 12.9 47.9 14.2 48.55 14.7 52.65 51.6 57.4 58.45 62.1 65.3 70.55 73.05 53.7 78.6 45.55 74.5 37.35 70.4 33.4 64.55 25.05 48.1 22.75 40.65 L21.7 36.85 21.2 34.4 Q20.25 29.0 19.95 23.55 L19.6 16.0 Q18.65 11.4 18.75 6.85 18.75 6.3 19.0 5.8 L8.65 3.05 Q-0.7 2.1 -10.15 3.15 L-22.15 4.45 -24.65 4.65 Q-28.5 5.2 -32.35 4.65 L-35.55 3.8 -38.25 2.45 -38.35 2.25 Q-40.5 -1.75 -40.95 -4.65 -42.2 -12.65 -36.75 -18.1 L-32.2 -19.6 -36.75 -18.1 -36.8 -17.3 -36.75 -18.1 M19.0 5.8 Q23.15 7.25 26.8 9.95 31.2 13.2 36.1 15.3 41.25 17.35 48.55 14.7 41.25 17.35 36.1 15.3 31.2 13.2 26.8 9.95 23.15 7.25 19.0 5.8 M52.05 0.35 Q50.4 -5.65 44.9 -8.7 39.05 -11.9 32.25 -12.7 39.05 -11.9 44.9 -8.7 50.4 -5.65 52.05 0.35 M-14.4 -9.8 Q-12.15 -11.15 -9.75 -11.1 L-4.6 -10.8 Q7.4 -9.95 18.45 -5.3 L22.75 -3.25 Q32.3 2.3 43.15 4.6 32.3 2.3 22.75 -3.25 L18.45 -5.3 Q7.4 -9.95 -4.6 -10.8 L-9.75 -11.1 Q-12.15 -11.15 -14.4 -9.8 M38.0 -6.35 Q46.15 -4.15 51.9 1.85 46.15 -4.15 38.0 -6.35 M24.55 11.35 Q25.75 17.85 25.05 26.05 24.35 34.25 34.5 54.2 44.6 74.15 59.9 72.0 44.6 74.15 34.5 54.2 24.35 34.25 25.05 26.05 25.75 17.85 24.55 11.35" fill="url(#gradient0)" fill-rule="evenodd" stroke="none"/>
      <path d="M34.55 -32.85 Q33.1 -37.1 28.85 -37.7 21.45 -37.65 14.55 -35.3 6.9 -32.8 -1.0 -34.7 -4.5 -35.7 -6.9 -38.6 M-27.6 -29.35 Q-18.15 -29.55 -9.05 -27.4 L4.4 -23.6 Q14.35 -20.5 24.75 -21.3 M45.1 -15.45 Q46.2 -21.6 45.25 -27.5 44.55 -31.75 41.3 -34.95 37.2 -38.85 33.9 -43.05 33.1 -44.05 31.8 -44.05 L10.35 -44.75 Q-0.5 -45.95 -10.9 -43.55 -12.0 -43.35 -12.85 -42.65 -20.7 -36.6 -27.6 -29.35 -35.05 -27.25 -36.5 -19.65 L-36.75 -18.1 -32.2 -19.6 M23.6 -19.6 Q29.3 -23.45 36.3 -21.2 L38.1 -20.7 Q42.4 -19.25 45.1 -15.45 52.3 -10.5 53.3 -2.1 53.4 -1.5 53.0 -0.9 L52.05 0.35 51.9 1.85 52.5 2.95 Q54.0 8.85 49.35 12.9 47.9 14.2 48.55 14.7 52.65 51.6 57.4 58.45 62.1 65.3 70.55 73.05 53.7 78.6 45.55 74.5 37.35 70.4 33.4 64.55 33.2 66.15 30.5 66.75 32.25 69.65 29.9 72.35 L27.55 74.3 Q23.75 73.65 22.6 77.2 21.95 79.4 20.4 81.05 L17.85 82.9 Q14.6 84.5 11.05 84.5 L11.5 87.3 8.5 89.8 9.15 93.75 Q8.6 95.4 6.95 95.6 3.35 96.05 0.8 98.55 0.25 99.05 -0.55 99.25 -5.2 100.5 -9.75 100.0 -13.05 99.4 -15.0 102.4 -16.45 104.65 -19.35 105.0 -20.1 105.25 -20.65 105.85 L-21.9 106.85 Q-27.3 103.75 -29.95 98.05 L-30.8 96.3 Q-33.35 91.75 -35.4 86.8 -36.2 84.85 -36.0 82.6 L-35.9 79.75 -36.35 71.4 -36.75 65.55 Q-37.0 63.35 -36.5 61.05 -35.6 56.8 -36.0 52.35 -36.15 50.8 -35.35 49.45 -35.8 43.75 -33.6 38.5 -33.15 37.4 -33.45 36.3 -34.7 31.7 -33.65 27.2 L-33.45 25.75 -30.95 29.45 -29.75 29.55 Q-29.75 31.15 -28.35 32.75 -26.4 34.95 -25.7 36.55 -24.5 35.65 -22.9 35.05 -21.55 34.45 -21.9 34.35 -22.25 34.2 -19.25 33.7 L-12.9 34.4 -11.65 33.75 -8.85 33.3 -6.65 31.95 Q-2.95 31.6 0.65 32.7 6.55 34.55 13.8 44.65 L15.85 44.5 Q16.1 44.45 16.4 44.95 17.45 42.25 19.8 40.95 L21.7 36.85 21.2 34.4 Q20.25 29.0 19.95 23.55 L19.6 16.0 Q15.4 15.5 12.4 12.35 L12.15 12.1 12.0 10.0 Q9.15 7.05 8.65 3.05 -0.7 2.1 -10.15 3.15 L-22.15 4.45 -24.65 4.65 Q-28.5 5.2 -32.35 4.65 -32.15 10.95 -34.0 16.9 L-35.0 18.45 -36.0 14.55 Q-37.35 9.75 -35.55 3.8 L-38.25 2.45 -38.35 2.25 Q-40.5 -1.75 -40.95 -4.65 -42.2 -12.65 -36.75 -18.1 L-36.8 -17.3 M43.15 4.6 Q32.3 2.3 22.75 -3.25 L18.45 -5.3 Q7.4 -9.95 -4.6 -10.8 L-9.75 -11.1 Q-12.15 -11.15 -14.4 -9.8 M32.25 -12.7 Q39.05 -11.9 44.9 -8.7 50.4 -5.65 52.05 0.35 M48.55 14.7 Q41.25 17.35 36.1 15.3 31.2 13.2 26.8 9.95 23.15 7.25 19.0 5.8 18.75 6.3 18.75 6.85 18.65 11.4 19.6 16.0 M19.0 5.8 L8.65 3.05 M16.4 45.15 L16.35 45.1 16.3 45.35 16.4 45.15 16.4 44.95 16.35 45.1 M16.3 45.35 L16.25 45.7 Q16.0 46.2 16.15 45.7 L16.3 45.35 M21.7 36.85 L22.75 40.65 Q25.05 48.1 33.4 64.55 M59.9 72.0 Q44.6 74.15 34.5 54.2 24.35 34.25 25.05 26.05 25.75 17.85 24.55 11.35 M51.9 1.85 Q46.15 -4.15 38.0 -6.35 M-32.35 4.65 L-35.55 3.8 M-22.7 44.15 Q-17.5 40.55 -13.9 40.3 -10.3 40.0 -6.9 40.35 -3.5 40.65 -0.55 43.1 2.4 45.5 3.25 49.9 -0.55 51.4 -4.3 50.05 -8.15 48.6 -10.6 45.3 -11.85 48.05 -14.7 48.75 L-17.2 49.35 -18.95 49.45 -24.4 48.75 -22.7 44.15 M-25.7 36.55 Q-27.25 37.6 -29.15 40.75 -30.95 43.7 -31.65 46.0" fill="none" stroke="#000000" stroke-linecap="round" stroke-linejoin="round" stroke-width="1.5"/>
    </g>
    </g>
  </g>
  <defs>
    <radialGradient cx="0" cy="0" gradientTransform="matrix(0.0392, 0.0133, -0.0178, 0.0523, -0.85, -22.75)" gradientUnits="userSpaceOnUse" id="gradient0" r="819.2" spreadMethod="pad">
      <stop offset="0.0" stop-color="#855c36"/>
      <stop offset="1.0" stop-color="#52291b"/>
    </radialGradient>
  </defs>
</svg>