<svg xmlns:xlink="http://www.w3.org/1999/xlink" xmlns="http://www.w3.org/2000/svg" height="119.1px" width="213.05px">
  <g transform="matrix(1.0, 0.0, 0.0, 1.0, 94.65, 81.2)">
    <g data-characterId="884" height="45.3" transform="matrix(1.0, 0.0, 0.0, 1.0, -59.2, -23.3)" width="131.75" xlink:href="#shape0"><g id="shape0" transform="matrix(1.0, 0.0, 0.0, 1.0, 59.2, 23.3)">
      <path d="M30.85 -8.7 L32.0 -6.95 33.2 -5.45 Q34.45 -4.1 35.95 -3.0 37.4 -1.9 39.1 -1.25 L42.65 0.0 49.55 0.45 64.35 1.45 49.55 0.45 42.65 0.0 39.1 -1.25 Q37.4 -1.9 35.95 -3.0 34.45 -4.1 33.2 -5.45 L32.0 -6.95 30.85 -8.7 M-22.75 -16.6 Q-17.4 -12.8 -11.2 -10.9 8.75 -4.65 25.95 -16.85 28.85 -18.95 29.4 -22.65 32.05 -20.15 35.05 -18.2 41.0 -14.5 48.0 -13.5 L51.55 -13.15 Q53.35 -13.15 67.7 -9.15 L72.05 14.75 Q40.25 20.0 14.5 21.15 -19.05 22.55 -37.95 18.45 -56.85 14.3 -58.25 7.7 -59.65 1.05 -56.7 -9.8 L-26.15 -18.2 -24.95 -20.9 -22.75 -16.6 M-26.4 -16.05 L-26.55 -15.5 -26.55 -14.0 Q-26.4 -12.5 -25.25 -11.35 -19.2 -5.05 -4.45 -3.35 7.1 -1.75 18.5 -3.3 31.25 -4.8 35.0 -17.15 31.25 -4.8 18.5 -3.3 7.1 -1.75 -4.45 -3.35 -19.2 -5.05 -25.25 -11.35 L-25.65 -10.3 Q-26.2 -8.75 -27.35 -7.6 -28.45 -6.45 -29.95 -5.8 L-33.35 -4.5 -35.7 -3.75 -39.3 -2.8 -42.95 -2.1 -45.4 -1.75 -49.1 -1.4 -52.6 -1.15 -54.9 -1.05 -52.6 -1.15 -49.1 -1.4 -45.4 -1.75 -42.95 -2.1 -39.3 -2.8 -35.7 -3.75 -33.35 -4.5 -29.95 -5.8 Q-28.45 -6.45 -27.35 -7.6 -26.2 -8.75 -25.65 -10.3 L-25.25 -11.35 Q-26.4 -12.5 -26.55 -14.0 L-26.55 -15.5 -26.4 -16.05" fill="#663399" fill-rule="evenodd" stroke="none"/>
      <path d="M-22.75 -16.6 L-24.95 -20.9 -22.0 -22.8 -22.75 -16.6" fill="#3d1e5b" fill-rule="evenodd" stroke="none"/>
      <path d="M64.35 1.45 L49.55 0.45 42.65 0.0 39.1 -1.25 Q37.4 -1.9 35.95 -3.0 34.45 -4.1 33.2 -5.45 L32.0 -6.95 30.85 -8.7 M-24.95 -20.9 L-26.15 -18.2 -56.7 -9.8 Q-59.65 1.05 -58.25 7.7 -56.85 14.3 -37.95 18.45 -19.05 22.55 14.5 21.15 40.25 20.0 72.05 14.75 L67.7 -9.15 Q53.35 -13.15 51.55 -13.15 L48.0 -13.5 Q41.0 -14.5 35.05 -18.2 32.05 -20.15 29.4 -22.65 28.85 -18.95 25.95 -16.85 8.75 -4.65 -11.2 -10.9 -17.4 -12.8 -22.75 -16.6 L-24.95 -20.9 -22.0 -22.8 -22.75 -16.6 M35.0 -17.15 Q31.25 -4.8 18.5 -3.3 7.1 -1.75 -4.45 -3.35 -19.2 -5.05 -25.25 -11.35 L-25.65 -10.3 Q-26.2 -8.75 -27.35 -7.6 -28.45 -6.45 -29.95 -5.8 L-33.35 -4.5 -35.7 -3.75 -39.3 -2.8 -42.95 -2.1 -45.4 -1.75 -49.1 -1.4 -52.6 -1.15 -54.9 -1.05 M-25.25 -11.35 Q-26.4 -12.5 -26.55 -14.0 L-26.55 -15.5 -26.4 -16.05" fill="none" stroke="#000000" stroke-linecap="round" stroke-linejoin="round" stroke-width="2.0"/>
    </g>
  </g>
  </g>
  <defs>
    </defs>
</svg>