<svg xmlns:xlink="http://www.w3.org/1999/xlink" xmlns="http://www.w3.org/2000/svg" height="13.1px" width="18.8px">
  <g transform="matrix(1.0, 0.0, 0.0, 1.0, 10.9, 4.2)">
    <path d="M7.9 -1.2 Q5.15 0.5 1.65 -0.7 L-1.1 -1.25 -3.6 -1.65 Q-6.9 0.6 -10.25 -1.7 L-10.65 -1.75 -10.75 -1.8 -10.9 -2.2 -10.8 -2.75 -9.55 -3.75 -8.75 -4.2 -8.45 -4.2 -8.2 -4.15 -7.3 -3.4 -7.1 -3.25 -5.4 -3.3 Q-4.65 -4.15 -3.5 -4.05 -2.85 -4.0 -2.35 -3.6 2.5 -2.05 7.6 -1.55 L7.9 -1.2 M-7.6 6.25 L-7.6 5.9 -5.9 6.6 -1.75 7.15 0.45 7.4 -0.05 7.95 -3.05 8.8 Q-5.9 9.4 -7.4 6.95 L-7.6 6.25" fill="#e6b380" fill-rule="evenodd" stroke="none"/>
  </g>
</svg>