<svg xmlns:xlink="http://www.w3.org/1999/xlink" xmlns="http://www.w3.org/2000/svg" height="119.1px" width="213.05px">
  <g transform="matrix(1.0, 0.0, 0.0, 1.0, 94.65, 81.2)">
    <g data-characterId="944" height="82.15" transform="matrix(1.0, 0.0, 0.0, 1.0, -88.05, -44.25)" width="178.35" xlink:href="#shape0"><g id="shape0" transform="matrix(1.0, 0.0, 0.0, 1.0, 79.35, -45.75)">
      <path d="M44.75 62.5 L44.85 59.65 Q47.25 52.8 52.35 47.25 52.9 46.7 53.6 46.25 57.35 57.95 60.5 74.15 67.65 77.5 79.85 80.55 L80.65 80.8 Q80.2 82.35 78.7 82.9 L76.1 85.55 Q84.15 98.65 98.5 102.1 L98.25 103.65 82.8 107.95 Q88.15 109.85 94.25 108.8 84.6 117.75 70.9 117.6 L67.85 117.6 Q51.55 116.85 41.55 118.75 40.2 118.9 39.0 119.9 L37.6 121.15 37.0 121.0 36.95 114.8 36.75 113.7 Q34.1 116.75 32.6 120.45 L30.0 127.4 27.5 119.85 27.0 118.4 25.8 117.45 Q17.7 109.95 19.15 98.7 L21.0 93.15 21.45 91.8 21.95 90.85 Q22.9 88.9 24.85 87.8 L25.95 94.6 24.85 87.8 Q24.05 80.25 25.7 73.25 27.15 66.95 30.55 61.05 L31.2 60.25 Q33.1 60.95 34.05 62.8 L34.7 64.25 35.2 65.75 36.05 68.85 39.75 75.7 42.1 73.3 44.75 62.5 M45.25 85.95 L39.75 75.7 45.25 85.95 M43.2 85.65 Q39.65 81.1 37.65 75.8 35.65 70.45 32.0 66.1 L29.35 72.75 Q27.5 77.45 27.4 83.85 L27.35 85.8 Q27.3 89.75 28.25 93.7 27.3 89.75 27.35 85.8 L27.4 83.85 Q27.5 77.45 29.35 72.75 L32.0 66.1 Q35.65 70.45 37.65 75.8 39.65 81.1 43.2 85.65 M31.15 89.75 Q29.95 85.2 31.45 74.15 33.65 81.7 34.6 83.35 35.5 85.0 40.1 86.85 35.5 85.0 34.6 83.35 33.65 81.7 31.45 74.15 29.95 85.2 31.15 89.75 M57.6 73.85 L56.85 71.65 Q55.65 67.65 55.0 63.55 54.15 58.25 51.85 53.45 50.5 54.95 49.55 56.7 46.85 61.85 45.7 67.55 L44.95 71.85 45.7 67.55 Q46.85 61.85 49.55 56.7 50.5 54.95 51.85 53.45 54.15 58.25 55.0 63.55 55.65 67.65 56.85 71.65 L57.6 73.85 M73.7 91.4 L71.8 92.0 70.9 90.5 69.95 90.4 70.7 93.4 68.4 93.45 67.8 91.25 65.9 89.95 65.4 92.3 63.6 92.0 62.95 89.15 61.15 88.5 60.65 88.75 60.4 91.1 58.3 91.1 58.15 87.4 56.0 88.35 55.8 91.0 52.7 90.0 53.35 86.75 53.35 85.7 52.95 84.55 52.15 84.2 50.35 84.4 49.45 84.8 50.4 90.0 46.65 88.55 50.4 90.0 49.45 84.8 50.35 84.4 52.15 84.2 52.95 84.55 53.35 85.7 53.35 86.75 52.7 90.0 55.8 91.0 56.0 88.35 58.15 87.4 58.3 91.1 60.4 91.1 60.65 88.75 61.15 88.5 62.95 89.15 63.6 92.0 65.4 92.3 65.9 89.95 67.8 91.25 68.4 93.45 70.7 93.4 69.95 90.4 70.9 90.5 71.8 92.0 73.7 91.4 M46.7 91.75 L51.35 92.65 46.7 91.75 M91.25 103.2 Q89.2 102.4 87.4 101.25 82.6 98.2 78.55 94.25 L78.0 93.15 78.55 94.25 Q82.6 98.2 87.4 101.25 89.2 102.4 91.25 103.2 M73.1 87.7 Q71.8 86.2 73.35 84.85 L75.2 83.15 75.7 82.8 62.5 78.75 75.7 82.8 75.2 83.15 73.35 84.85 Q71.8 86.2 73.1 87.7 M51.35 92.65 Q53.35 100.5 62.0 99.0 65.9 98.3 68.0 95.75 L51.35 92.65 M24.5 96.3 Q23.7 98.2 23.05 100.15 21.25 105.65 23.35 111.0 21.25 105.65 23.05 100.15 23.7 98.2 24.5 96.3 M35.55 100.15 Q34.65 101.45 34.55 103.8 42.45 101.5 50.7 103.5 L44.5 94.2 Q38.8 95.15 35.55 100.15 38.8 95.15 44.5 94.2 L50.7 103.5 Q42.45 101.5 34.55 103.8 34.65 101.45 35.55 100.15 M40.6 105.5 L41.3 107.1 42.05 107.75 Q44.45 109.15 47.0 108.9 48.65 108.9 49.85 107.65 50.7 106.75 50.95 105.8 L40.6 105.5 50.95 105.8 Q50.7 106.75 49.85 107.65 48.65 108.9 47.0 108.9 44.45 109.15 42.05 107.75 L41.3 107.1 40.6 105.5 M75.4 103.2 L74.95 104.25 Q73.35 108.0 69.0 107.2 65.1 106.75 61.6 105.05 L58.55 105.0 Q55.55 106.1 53.55 108.4 L53.7 107.15 Q54.05 104.45 52.45 102.0 L55.95 103.25 58.05 102.95 Q60.0 102.5 61.85 103.0 67.0 104.6 72.55 104.55 74.15 104.1 75.4 103.2 74.15 104.1 72.55 104.55 67.0 104.6 61.85 103.0 60.0 102.5 58.05 102.95 L55.95 103.25 52.45 102.0 Q54.05 104.45 53.7 107.15 L53.55 108.4 Q55.55 106.1 58.55 105.0 L61.6 105.05 Q65.1 106.75 69.0 107.2 73.35 108.0 74.95 104.25 L75.4 103.2 M28.25 103.8 Q27.65 105.15 27.2 106.6 25.35 112.45 27.0 118.4 25.35 112.45 27.2 106.6 27.65 105.15 28.25 103.8 M31.4 107.25 L30.25 108.8 Q29.6 109.75 29.15 112.55 28.65 115.3 29.7 119.6 28.65 115.3 29.15 112.55 29.6 109.75 30.25 108.8 L31.4 107.25" fill="url(#gradient0)" fill-rule="evenodd" stroke="none"/>
      <path d="M36.05 68.85 L36.95 68.4 Q40.4 66.55 43.3 63.9 L44.75 62.5 42.1 73.3 39.75 75.7 36.05 68.85" fill="url(#gradient1)" fill-rule="evenodd" stroke="none"/>
      <path d="M36.95 68.4 L36.35 58.8 Q39.7 60.5 44.75 62.5 L43.3 63.9 Q40.4 66.55 36.95 68.4" fill="#003300" fill-rule="evenodd" stroke="none"/>
      <path d="M27.5 119.85 L20.0 120.75 1.55 124.45 Q-14.25 126.85 -26.6 114.45 -20.0 107.8 -19.8 97.75 L-17.65 99.45 Q-16.0 100.8 -14.95 102.65 L-14.45 101.3 Q-13.4 97.7 -13.75 94.15 -3.35 94.7 -1.05 99.2 L1.8 104.95 Q6.35 95.6 17.25 98.5 L19.15 98.7 Q17.7 109.95 25.8 117.45 L27.0 118.4 27.5 119.85 M-21.9 79.05 L-16.2 67.4 Q-2.7 76.25 9.8 75.25 22.25 74.2 25.7 73.25 24.05 80.25 24.85 87.8 22.9 88.9 21.95 90.85 L21.45 91.8 21.0 93.15 Q-3.55 95.0 -14.8 89.25 -16.7 83.45 -21.9 79.05 M23.05 76.45 L18.45 77.45 10.95 78.5 2.4 78.2 -4.45 76.3 -7.9 75.1 -15.5 72.3 -7.9 75.1 -4.45 76.3 2.4 78.2 10.95 78.5 18.45 77.45 23.05 76.45 M16.75 101.75 Q13.4 100.85 10.1 102.05 6.4 103.35 5.15 107.2 3.35 112.9 2.95 118.75 2.85 119.85 2.35 120.75 2.85 119.85 2.95 118.75 3.35 112.9 5.15 107.2 6.4 103.35 10.1 102.05 13.4 100.85 16.75 101.75 M-1.7 106.1 Q-2.4 102.3 -5.15 99.45 -5.9 98.75 -6.85 98.5 -9.3 97.75 -11.75 98.05 -9.3 97.75 -6.85 98.5 -5.9 98.75 -5.15 99.45 -2.4 102.3 -1.7 106.1 M-0.05 121.65 L1.8 104.95 -0.05 121.65" fill="url(#gradient2)" fill-rule="evenodd" stroke="none"/>
      <path d="M98.25 103.65 Q97.75 105.4 96.35 106.85 L94.25 108.8 Q88.15 109.85 82.8 107.95 L98.25 103.65 M19.15 98.7 L17.25 98.5 Q6.35 95.6 1.8 104.95 L-1.05 99.2 Q-3.35 94.7 -13.75 94.15 -13.9 92.75 -14.2 91.45 L-14.8 89.25 Q-3.55 95.0 21.0 93.15 L19.15 98.7 M51.35 92.65 L68.0 95.75 Q65.9 98.3 62.0 99.0 53.35 100.5 51.35 92.65 M-50.75 92.85 L-38.9 91.5 Q-38.2 91.25 -37.45 91.5 -36.9 96.7 -42.45 96.95 -48.1 97.55 -50.75 92.85" fill="#445907" fill-rule="evenodd" stroke="none"/>
      <path d="M-26.6 114.45 Q-27.95 115.85 -29.55 117.05 L-31.1 118.2 Q-29.2 112.45 -32.3 107.05 L-38.85 108.6 Q-48.7 110.8 -57.95 106.7 L-58.5 106.1 -69.65 105.1 Q-78.85 104.95 -78.85 95.2 -71.85 94.2 -65.55 91.05 -59.85 88.15 -58.7 82.2 L-51.85 81.9 -51.4 81.1 Q-49.9 75.4 -52.35 69.7 -54.05 65.6 -52.4 61.8 L-49.8 63.9 Q-42.9 69.7 -38.2 77.85 L-35.45 76.95 Q-33.65 66.25 -31.15 56.1 L-30.9 55.4 -30.25 55.15 Q-23.05 64.35 -22.05 76.45 L-21.9 79.05 Q-16.7 83.45 -14.8 89.25 L-14.2 91.45 Q-13.9 92.75 -13.75 94.15 -13.4 97.7 -14.45 101.3 L-14.95 102.65 Q-16.0 100.8 -17.65 99.45 L-19.8 97.75 Q-20.0 107.8 -26.6 114.45 M-38.2 87.7 L-38.55 88.35 -39.85 88.75 Q-41.25 89.5 -42.35 88.5 -43.1 87.8 -43.05 86.8 L-43.9 86.1 -44.85 86.25 -44.1 88.25 -44.25 88.95 -44.9 89.55 -46.15 89.55 -47.0 86.5 -48.85 86.5 Q-48.3 87.25 -48.5 88.3 -48.75 89.6 -49.95 90.25 L-51.1 90.05 -51.85 87.1 -53.1 86.8 -54.1 87.65 -53.6 90.0 -54.25 90.7 Q-55.3 91.75 -56.9 91.7 -55.3 91.75 -54.25 90.7 L-53.6 90.0 -54.1 87.65 -53.1 86.8 -51.85 87.1 -51.1 90.05 -49.95 90.25 Q-48.75 89.6 -48.5 88.3 -48.3 87.25 -48.85 86.5 L-47.0 86.5 -46.15 89.55 -44.9 89.55 -44.25 88.95 -44.1 88.25 -44.85 86.25 -43.9 86.1 -43.05 86.8 Q-43.1 87.8 -42.35 88.5 -41.25 89.5 -39.85 88.75 L-38.55 88.35 -38.2 87.7 M-57.8 85.95 Q-58.45 87.95 -59.7 89.7 -61.4 92.0 -64.1 93.15 -69.6 95.6 -75.35 96.9 -69.6 95.6 -64.1 93.15 -61.4 92.0 -59.7 89.7 -58.45 87.95 -57.8 85.95 M-42.8 74.45 L-43.75 73.05 Q-46.9 68.65 -51.25 65.65 -46.9 68.65 -43.75 73.05 L-42.8 74.45 M-55.25 95.2 L-54.85 93.5 -50.75 92.85 -54.85 93.5 -55.25 95.2 M-50.75 92.85 Q-48.1 97.55 -42.45 96.95 -36.9 96.7 -37.45 91.5 -38.2 91.25 -38.9 91.5 L-50.75 92.85 M-25.55 73.85 Q-25.45 69.85 -27.45 66.25 L-29.6 62.65 Q-29.7 66.15 -30.75 69.35 L-34.2 80.2 -30.75 69.35 Q-29.7 66.15 -29.6 62.65 L-27.45 66.25 Q-25.45 69.85 -25.55 73.85 M-26.4 86.25 Q-25.9 84.75 -25.9 83.2 -25.85 77.95 -28.45 73.6 L-28.7 74.85 Q-30.3 80.0 -32.75 84.8 -30.3 80.0 -28.7 74.85 L-28.45 73.6 Q-25.85 77.95 -25.9 83.2 -25.9 84.75 -26.4 86.25 M-22.7 81.9 L-21.8 82.8 -20.4 84.8 Q-17.65 89.8 -16.95 95.75 -17.65 89.8 -20.4 84.8 L-21.8 82.8 -22.7 81.9 M-35.45 76.95 L-38.5 83.3 -35.45 76.95 M-34.75 94.3 L-35.2 95.2 Q-36.7 98.5 -40.25 99.55 L-40.25 103.8 Q-37.95 104.15 -36.45 102.4 L-34.75 100.0 Q-33.05 97.25 -34.75 94.3 -33.05 97.25 -34.75 100.0 L-36.45 102.4 Q-37.95 104.15 -40.25 103.8 L-40.25 99.55 Q-36.7 98.5 -35.2 95.2 L-34.75 94.3 M-22.9 93.95 Q-20.9 95.35 -19.8 97.75 -20.9 95.35 -22.9 93.95 M-33.95 104.4 L-32.5 106.75 -32.3 107.05 -32.5 106.75 -33.95 104.4 M-42.7 79.3 L-38.2 77.85 -42.7 79.3 M-44.55 103.5 Q-47.75 104.2 -50.35 102.35 -51.5 101.6 -52.7 100.95 -53.5 100.45 -54.4 100.2 L-56.55 100.15 -53.45 98.4 -48.2 101.25 -44.5 100.2 -43.95 103.5 -44.5 100.2 -48.2 101.25 -53.45 98.4 -56.55 100.15 -54.4 100.2 Q-53.5 100.45 -52.7 100.95 -51.5 101.6 -50.35 102.35 -47.75 104.2 -44.55 103.5 M-26.4 95.15 Q-25.3 97.7 -25.05 100.65 -24.55 106.45 -27.55 111.55 -24.55 106.45 -25.05 100.65 -25.3 97.7 -26.4 95.15" fill="url(#gradient3)" fill-rule="evenodd" stroke="none"/>
      <path d="M44.75 62.5 L44.85 59.65 Q47.25 52.8 52.35 47.25 52.9 46.7 53.6 46.25 57.35 57.95 60.5 74.15 67.65 77.5 79.85 80.55 L80.65 80.8 Q80.2 82.35 78.7 82.9 L76.1 85.55 Q84.15 98.65 98.5 102.1 L98.25 103.65 Q97.75 105.4 96.35 106.85 L94.25 108.8 Q84.6 117.75 70.9 117.6 L67.85 117.6 Q51.55 116.85 41.55 118.75 40.2 118.9 39.0 119.9 L37.6 121.15 37.0 121.0 36.95 114.8 36.75 113.7 Q34.1 116.75 32.6 120.45 L30.0 127.4 27.5 119.85 20.0 120.75 1.55 124.45 Q-14.25 126.85 -26.6 114.45 -27.95 115.85 -29.55 117.05 L-31.1 118.2 Q-29.2 112.45 -32.3 107.05 L-38.85 108.6 Q-48.7 110.8 -57.95 106.7 L-58.5 106.1 -69.65 105.1 Q-78.85 104.95 -78.85 95.2 -71.85 94.2 -65.55 91.05 -59.85 88.15 -58.7 82.2 L-51.85 81.9 -51.4 81.1 Q-49.9 75.4 -52.35 69.7 -54.05 65.6 -52.4 61.8 L-49.8 63.9 Q-42.9 69.7 -38.2 77.85 L-35.45 76.95 Q-33.65 66.25 -31.15 56.1 L-30.9 55.4 -30.25 55.15 Q-23.05 64.35 -22.05 76.45 L-21.9 79.05 -16.2 67.4 Q-2.7 76.25 9.8 75.25 22.25 74.2 25.7 73.25 27.15 66.95 30.55 61.05 L31.2 60.25 Q33.1 60.95 34.05 62.8 L34.7 64.25 35.2 65.75 36.05 68.85 36.95 68.4 36.35 58.8 Q39.7 60.5 44.75 62.5 L42.1 73.3 39.75 75.7 45.25 85.95 M-13.75 94.15 Q-3.35 94.7 -1.05 99.2 L1.8 104.95 Q6.35 95.6 17.25 98.5 L19.15 98.7 21.0 93.15 Q-3.55 95.0 -14.8 89.25 L-14.2 91.45 Q-13.9 92.75 -13.75 94.15 -13.4 97.7 -14.45 101.3 L-14.95 102.65 Q-16.0 100.8 -17.65 99.45 L-19.8 97.75 Q-20.0 107.8 -26.6 114.45 M40.1 86.85 Q35.5 85.0 34.6 83.35 33.65 81.7 31.45 74.15 29.95 85.2 31.15 89.75 M25.95 94.6 L24.85 87.8 Q22.9 88.9 21.95 90.85 L21.45 91.8 21.0 93.15 M25.7 73.25 Q24.05 80.25 24.85 87.8 M36.05 68.85 L39.75 75.7 M44.75 62.5 L43.3 63.9 Q40.4 66.55 36.95 68.4 M51.35 92.65 L46.7 91.75 M51.35 92.65 L68.0 95.75 Q65.9 98.3 62.0 99.0 53.35 100.5 51.35 92.65 M27.0 118.4 Q25.35 112.45 27.2 106.6 27.65 105.15 28.25 103.8 M27.5 119.85 L27.0 118.4 25.8 117.45 Q17.7 109.95 19.15 98.7 M98.25 103.65 L82.8 107.95 Q88.15 109.85 94.25 108.8 M-50.75 92.85 L-54.85 93.5 -55.25 95.2 M-50.75 92.85 L-38.9 91.5 Q-38.2 91.25 -37.45 91.5 -36.9 96.7 -42.45 96.95 -48.1 97.55 -50.75 92.85 M-32.75 84.8 Q-30.3 80.0 -28.7 74.85 L-28.45 73.6 Q-25.85 77.95 -25.9 83.2 -25.9 84.75 -26.4 86.25 M-38.5 83.3 L-35.45 76.95 M-19.8 97.75 Q-20.9 95.35 -22.9 93.95 M-14.8 89.25 Q-16.7 83.45 -21.9 79.05 M-38.2 77.85 L-42.7 79.3 M-32.3 107.05 L-32.5 106.75 -33.95 104.4 M1.8 104.95 L-0.05 121.65" fill="none" stroke="#000000" stroke-linecap="round" stroke-linejoin="round" stroke-width="2.0"/>
      <path d="M28.25 93.7 Q27.3 89.75 27.35 85.8 L27.4 83.85 Q27.5 77.45 29.35 72.75 L32.0 66.1 Q35.65 70.45 37.65 75.8 39.65 81.1 43.2 85.65 M-15.5 72.3 L-7.9 75.1 -4.45 76.3 2.4 78.2 10.95 78.5 18.45 77.45 23.05 76.45 M44.95 71.85 L45.7 67.55 Q46.85 61.85 49.55 56.7 50.5 54.95 51.85 53.45 54.15 58.25 55.0 63.55 55.65 67.65 56.85 71.65 L57.6 73.85 M46.65 88.55 L50.4 90.0 49.45 84.8 50.35 84.4 52.15 84.2 52.95 84.55 53.35 85.7 53.35 86.75 52.7 90.0 55.8 91.0 56.0 88.35 58.15 87.4 58.3 91.1 60.4 91.1 60.65 88.75 61.15 88.5 62.95 89.15 63.6 92.0 65.4 92.3 65.9 89.95 67.8 91.25 68.4 93.45 70.7 93.4 69.95 90.4 70.9 90.5 71.8 92.0 73.7 91.4 M62.5 78.75 L75.7 82.8 75.2 83.15 73.35 84.85 Q71.8 86.2 73.1 87.7 M78.0 93.15 L78.55 94.25 Q82.6 98.2 87.4 101.25 89.2 102.4 91.25 103.2 M75.4 103.2 Q74.15 104.1 72.55 104.55 67.0 104.6 61.85 103.0 60.0 102.5 58.05 102.95 L55.95 103.25 52.45 102.0 Q54.05 104.45 53.7 107.15 L53.55 108.4 Q55.55 106.1 58.55 105.0 L61.6 105.05 Q65.1 106.75 69.0 107.2 73.35 108.0 74.95 104.25 L75.4 103.2 M40.6 105.5 L50.95 105.8 Q50.7 106.75 49.85 107.65 48.65 108.9 47.0 108.9 44.45 109.15 42.05 107.75 L41.3 107.1 40.6 105.5 M35.55 100.15 Q38.8 95.15 44.5 94.2 L50.7 103.5 Q42.45 101.5 34.55 103.8 34.65 101.45 35.55 100.15 M23.35 111.0 Q21.25 105.65 23.05 100.15 23.7 98.2 24.5 96.3 M29.7 119.6 Q28.65 115.3 29.15 112.55 29.6 109.75 30.25 108.8 L31.4 107.25 M2.35 120.75 Q2.85 119.85 2.95 118.75 3.35 112.9 5.15 107.2 6.4 103.35 10.1 102.05 13.4 100.85 16.75 101.75 M-51.25 65.65 Q-46.9 68.65 -43.75 73.05 L-42.8 74.45 M-75.35 96.9 Q-69.6 95.6 -64.1 93.15 -61.4 92.0 -59.7 89.7 -58.45 87.95 -57.8 85.95 M-56.9 91.7 Q-55.3 91.75 -54.25 90.7 L-53.6 90.0 -54.1 87.65 -53.1 86.8 -51.85 87.1 -51.1 90.05 -49.95 90.25 Q-48.75 89.6 -48.5 88.3 -48.3 87.25 -48.85 86.5 L-47.0 86.5 -46.15 89.55 -44.9 89.55 -44.25 88.95 -44.1 88.25 -44.85 86.25 -43.9 86.1 -43.05 86.8 Q-43.1 87.8 -42.35 88.5 -41.25 89.5 -39.85 88.75 L-38.55 88.35 -38.2 87.7 M-34.2 80.2 L-30.75 69.35 Q-29.7 66.15 -29.6 62.65 L-27.45 66.25 Q-25.45 69.85 -25.55 73.85 M-16.95 95.75 Q-17.65 89.8 -20.4 84.8 L-21.8 82.8 -22.7 81.9 M-34.75 94.3 Q-33.05 97.25 -34.75 100.0 L-36.45 102.4 Q-37.95 104.15 -40.25 103.8 L-40.25 99.55 Q-36.7 98.5 -35.2 95.2 L-34.75 94.3 M-11.75 98.05 Q-9.3 97.75 -6.85 98.5 -5.9 98.75 -5.15 99.45 -2.4 102.3 -1.7 106.1 M-27.55 111.55 Q-24.55 106.45 -25.05 100.65 -25.3 97.7 -26.4 95.15 M-43.95 103.5 L-44.5 100.2 -48.2 101.25 -53.45 98.4 -56.55 100.15 -54.4 100.2 Q-53.5 100.45 -52.7 100.95 -51.5 101.6 -50.35 102.35 -47.75 104.2 -44.55 103.5" fill="none" stroke="#c2fe9a" stroke-linecap="round" stroke-linejoin="round" stroke-width="2.0"/>
    </g>
    </g>
  </g>
  <defs>
    <radialGradient cx="0" cy="0" gradientTransform="matrix(0.0516, 0.0298, -0.0191, 0.0331, 58.75, 86.85)" gradientUnits="userSpaceOnUse" id="gradient0" r="819.2" spreadMethod="pad">
      <stop offset="0.0" stop-color="#e2f9db"/>
      <stop offset="0.4745098039215686" stop-color="#67933c"/>
      <stop offset="1.0" stop-color="#4e5c23"/>
    </radialGradient>
    <linearGradient gradientTransform="matrix(0.0314, 0.0, 0.0, 0.0321, 4.65, 94.5)" gradientUnits="userSpaceOnUse" id="gradient1" spreadMethod="pad" x1="-819.2" x2="819.2">
      <stop offset="0.0" stop-color="#45701b"/>
      <stop offset="0.32941176470588235" stop-color="#e2f9db"/>
      <stop offset="0.7490196078431373" stop-color="#67933c"/>
      <stop offset="1.0" stop-color="#4e5c23"/>
    </linearGradient>
    <linearGradient gradientTransform="matrix(0.0314, 0.0, 0.0, 0.0321, 4.65, 94.5)" gradientUnits="userSpaceOnUse" id="gradient2" spreadMethod="pad" x1="-819.2" x2="819.2">
      <stop offset="0.0" stop-color="#45701b"/>
      <stop offset="0.4588235294117647" stop-color="#e2f9db"/>
      <stop offset="0.7490196078431373" stop-color="#67933c"/>
      <stop offset="1.0" stop-color="#4e5c23"/>
    </linearGradient>
    <radialGradient cx="0" cy="0" gradientTransform="matrix(0.0314, -0.0181, 0.0146, 0.0254, -53.45, 86.0)" gradientUnits="userSpaceOnUse" id="gradient3" r="819.2" spreadMethod="pad">
      <stop offset="0.0" stop-color="#e2f9db"/>
      <stop offset="0.4745098039215686" stop-color="#67933c"/>
      <stop offset="1.0" stop-color="#4e5c23"/>
    </radialGradient>
  </defs>
</svg>