<svg xmlns:xlink="http://www.w3.org/1999/xlink" xmlns="http://www.w3.org/2000/svg" height="9.5px" width="14.9px">
  <g transform="matrix(1.0, 0.0, 0.0, 1.0, 9.25, 2.95)">
    <path d="M5.55 -0.25 L5.4 -0.05 5.3 0.0 Q2.75 0.2 0.4 -0.8 L0.05 -0.9 Q-1.0 0.1 -2.7 0.1 L-8.35 -0.25 -8.6 -0.5 -8.7 -0.55 -9.2 -0.65 -9.25 -0.75 -9.2 -1.2 -9.05 -1.7 -9.0 -1.8 Q-7.35 -2.85 -5.6 -2.4 L-3.85 -1.95 -2.2 -2.45 -1.65 -2.9 -1.4 -2.95 Q1.85 -1.8 5.25 -1.15 L5.4 -1.1 5.6 -0.8 5.65 -0.6 5.55 -0.25 M0.45 5.6 L-2.55 6.45 Q-5.4 7.05 -6.9 4.6 L-7.1 3.9 -7.1 3.55 -5.4 4.25 Q-3.75 4.9 -1.25 4.8 L0.95 5.05 0.45 5.6" fill="#e6b380" fill-rule="evenodd" stroke="none"/>
  </g>
</svg>