<svg xmlns:xlink="http://www.w3.org/1999/xlink" xmlns="http://www.w3.org/2000/svg" height="12.5px" width="14.25px">
  <g transform="matrix(1.0, 0.0, 0.0, 1.0, 8.95, 4.35)">
    <path d="M-5.9 -3.6 L-2.45 -4.05 -1.7 -3.95 Q2.0 -2.25 5.25 -0.05 L5.3 0.15 5.25 0.45 5.15 0.6 4.9 0.8 Q1.45 -0.3 -1.85 -1.8 L-2.75 -2.2 Q-5.7 -1.5 -8.25 -2.6 -8.75 -2.45 -8.95 -2.9 L-8.95 -3.1 -8.85 -3.3 -7.85 -4.0 -6.75 -4.35 -6.45 -4.25 -6.3 -4.2 -6.05 -3.8 -5.9 -3.6 M-3.1 8.05 Q-5.95 8.65 -7.45 6.2 L-7.65 5.5 -7.65 5.15 -5.95 5.85 Q-4.3 6.5 -1.8 6.4 L0.4 6.65 -0.1 7.2 -3.1 8.05" fill="#e6b380" fill-rule="evenodd" stroke="none"/>
  </g>
</svg>