<svg xmlns:xlink="http://www.w3.org/1999/xlink" xmlns="http://www.w3.org/2000/svg" height="264.15px" width="342.25px">
  <g transform="matrix(1.0, 0.0, 0.0, 1.0, 243.25, 83.7)">
    <g data-characterId="1128" height="108.3" transform="matrix(1.0, 0.0, 0.0, 1.0, -31.75, -42.05)" width="75.55" xlink:href="#shape0"><g id="shape0" transform="matrix(1.0, 0.0, 0.0, 1.0, 31.75, 42.05)">
      <path d="M-30.6 -26.25 Q-25.9 -27.6 -22.5 -31.5 -23.95 -30.6 -25.8 -31.3 L-27.75 -32.2 Q-29.45 -32.95 -31.25 -33.25 -29.4 -34.05 -27.55 -34.5 L-23.95 -35.4 -13.7 -38.75 -6.95 -40.15 -0.7 -41.05 Q4.3 -41.9 9.15 -41.25 L11.15 -40.75 Q12.2 -40.95 13.2 -40.4 L16.25 -38.7 Q16.5 -38.5 16.9 -38.35 17.95 -36.9 19.75 -36.75 22.05 -36.25 23.95 -34.55 L26.95 -31.0 Q28.0 -29.5 28.55 -27.85 L29.2 -28.05 29.9 -28.45 30.3 -28.5 Q32.25 -27.4 33.45 -25.05 L34.4 -24.65 35.85 -23.6 Q38.15 -21.9 39.55 -19.25 L40.7 -16.75 42.25 -11.65 Q43.9 -5.1 42.9 1.7 42.5 4.3 42.25 7.0 L41.75 10.75 Q41.05 15.25 39.6 19.7 L37.9 23.9 Q35.85 28.25 35.25 33.1 34.75 36.8 36.25 40.0 34.55 39.75 33.75 38.0 33.6 38.7 33.6 39.45 L33.75 40.95 34.25 44.0 Q32.1 43.35 32.1 41.25 L31.95 35.75 Q31.8 32.35 32.05 29.0 L31.25 25.0 31.25 24.5 33.4 24.35 36.25 17.8 36.6 16.5 Q37.45 13.25 37.55 9.75 L37.5 8.25 36.7 5.0 Q36.15 3.35 35.1 2.0 34.2 0.8 32.5 1.05 31.75 1.25 31.15 1.65 L29.45 2.75 30.05 1.25 Q31.0 -1.3 31.35 -4.55 L31.6 -10.25 31.3 -12.75 30.05 -17.65 29.25 -19.75 27.75 -22.45 26.8 -24.15 Q23.95 -24.3 21.05 -25.1 20.25 -25.3 19.5 -25.6 19.05 -25.75 18.7 -26.0 17.7 -26.35 16.55 -26.0 L14.3 -25.5 6.45 -23.25 2.0 -22.65 -3.0 -22.75 0.05 -24.45 Q1.7 -25.5 2.05 -27.7 L1.65 -27.55 Q-1.4 -25.85 -4.75 -24.85 L-7.15 -24.15 -8.65 -23.75 Q-12.05 -24.25 -15.6 -23.65 -18.0 -23.6 -20.25 -24.25 -18.15 -24.5 -16.6 -26.1 L-14.4 -28.15 -12.0 -30.25 -14.75 -28.95 Q-19.15 -27.05 -23.8 -26.0 -27.1 -25.4 -30.5 -25.9 L-30.6 -26.25 M28.55 -27.85 Q29.1 -26.25 29.2 -24.5 28.85 -24.0 28.25 -24.1 L26.8 -24.15 28.25 -24.1 Q28.85 -24.0 29.2 -24.5 29.1 -26.25 28.55 -27.85" fill="url(#gradient0)" fill-rule="evenodd" stroke="none"/>
      <path d="M-24.75 49.5 Q-25.4 52.4 -24.7 55.2 L-24.25 56.75" fill="none" stroke="#000000" stroke-linecap="round" stroke-linejoin="round" stroke-width="2.0"/>
      <path d="M-30.6 -26.25 Q-25.9 -27.6 -22.5 -31.5 -23.95 -30.6 -25.8 -31.3 L-27.75 -32.2 Q-29.45 -32.95 -31.25 -33.25 -29.4 -34.05 -27.55 -34.5 L-23.95 -35.4 -13.7 -38.75 -6.95 -40.15 -0.7 -41.05 Q4.3 -41.9 9.15 -41.25 L11.15 -40.75 Q12.2 -40.95 13.2 -40.4 L16.25 -38.7 Q16.5 -38.5 16.9 -38.35 17.95 -36.9 19.75 -36.75 22.05 -36.25 23.95 -34.55 L26.95 -31.0 Q28.0 -29.5 28.55 -27.85 29.1 -26.25 29.2 -24.5 28.85 -24.0 28.25 -24.1 L26.8 -24.15 Q23.95 -24.3 21.05 -25.1 20.25 -25.3 19.5 -25.6 19.05 -25.75 18.7 -26.0 17.7 -26.35 16.55 -26.0 L14.3 -25.5 6.45 -23.25 2.0 -22.65 -3.0 -22.75 0.05 -24.45 Q1.7 -25.5 2.05 -27.7 L1.65 -27.55 Q-1.4 -25.85 -4.75 -24.85 L-7.15 -24.15 -8.65 -23.75 Q-12.05 -24.25 -15.6 -23.65 -18.0 -23.6 -20.25 -24.25 -18.15 -24.5 -16.6 -26.1 L-14.4 -28.15 -12.0 -30.25 -14.75 -28.95 Q-19.15 -27.05 -23.8 -26.0 -27.1 -25.4 -30.5 -25.9 L-30.75 -26.25 -30.6 -26.25 M29.2 -28.05 L29.9 -28.45 30.3 -28.5 Q32.25 -27.4 33.45 -25.05 L34.4 -24.65 35.85 -23.6 Q38.15 -21.9 39.55 -19.25 L40.7 -16.75 42.25 -11.65 Q43.9 -5.1 42.9 1.7 42.5 4.3 42.25 7.0 L41.75 10.75 Q41.05 15.25 39.6 19.7 L37.9 23.9 Q35.85 28.25 35.25 33.1 34.75 36.8 36.25 40.0 34.55 39.75 33.75 38.0 33.6 38.7 33.6 39.45 L33.75 40.95 34.25 44.0 Q32.1 43.35 32.1 41.25 L31.95 35.75 Q31.8 32.35 32.05 29.0 L31.25 25.0 M31.25 24.5 L33.4 24.35 36.25 17.8 36.6 16.5 Q37.45 13.25 37.55 9.75 L37.5 8.25 36.7 5.0 Q36.15 3.35 35.1 2.0 34.2 0.8 32.5 1.05 31.75 1.25 31.15 1.65 L29.45 2.75 28.75 3.5 M29.45 2.75 L30.05 1.25 Q31.0 -1.3 31.35 -4.55 L31.6 -10.25 31.3 -12.75 30.05 -17.65 29.25 -19.75 27.75 -22.45 26.8 -24.15 M19.0 -16.5 L18.75 -16.5 M18.75 -21.5 L19.0 -21.5 M11.75 -19.5 L11.75 -19.25 M22.75 -20.75 L22.75 -20.25 M26.5 -15.5 L26.5 -15.75 M23.25 -12.25 L23.0 -12.25 M28.0 -9.75 L28.0 -9.25 M21.0 51.25 L21.0 52.0 M-0.75 56.5 Q-0.35 59.1 0.85 61.35 L1.25 62.0 M4.5 57.0 L5.45 59.8 6.0 60.75 M9.75 55.25 L10.0 58.0 M14.75 55.25 L15.5 56.75 M-16.7 49.7 L-16.5 51.0 M-15.5 49.5 Q-14.9 50.1 -15.15 50.65 M-19.75 57.5 L-19.4 60.8 -18.75 62.7 -18.25 63.5 M-16.5 58.0 Q-17.2 61.4 -15.6 64.45 L-15.25 65.0 M-13.25 59.75 Q-13.15 62.85 -11.35 65.25 L-11.0 65.75 M-3.75 57.5 Q-3.75 60.7 -2.3 63.6 L-2.0 64.0 M-8.0 57.25 Q-8.7 61.2 -6.65 64.6 M-22.75 53.25 Q-23.25 56.3 -22.0 59.3 L-21.5 60.5" fill="none" stroke="#000000" stroke-linecap="round" stroke-linejoin="round" stroke-width="2.0"/>
    </g>
    </g>
  </g>
  <defs>
    <radialGradient cx="0" cy="0" gradientTransform="matrix(0.0949, 0.0, 0.0, 0.0505, 0.5, -20.5)" gradientUnits="userSpaceOnUse" id="gradient0" r="819.2" spreadMethod="pad">
      <stop offset="0.0" stop-color="#b36302"/>
      <stop offset="0.5294117647058824" stop-color="#e2810a"/>
      <stop offset="1.0" stop-color="#bf6902"/>
    </radialGradient>
  </defs>
</svg>