<svg xmlns:xlink="http://www.w3.org/1999/xlink" xmlns="http://www.w3.org/2000/svg" height="42.85px" width="62.0px">
  <g transform="matrix(1.0, 0.0, 0.0, 1.0, 24.7, 15.0)">
    <g data-characterId="1109" height="35.35" transform="matrix(1.0, 0.0, 0.0, 1.0, -22.9, -7.5)" width="60.2" xlink:href="#shape0"><g id="shape0" transform="matrix(1.0, 0.0, 0.0, 1.0, 22.9, 7.5)">
      <path d="M-8.3 14.4 Q-13.05 11.65 -16.3 6.95 L-17.25 5.6 -16.55 9.2 Q-21.1 4.7 -21.6 -1.9 L-21.55 -2.95 -20.1 -1.25 -19.6 -3.5 -19.35 -3.55 -19.4 -3.65 Q-10.65 -10.5 -0.95 -3.25 6.95 2.7 15.5 7.2 L20.5 9.45 13.55 9.3 Q24.55 15.1 36.8 13.95 25.85 17.7 14.25 15.55 23.7 20.8 35.35 19.5 L35.35 19.7 Q25.95 23.45 16.1 22.35 13.65 21.95 11.5 20.55 L18.75 27.3 Q9.55 28.0 3.2 20.9 L2.0 19.4 3.15 23.85 Q-4.1 19.45 -8.2 11.25 L-9.4 8.95 -8.6 12.5 -8.95 12.35 -8.2 14.25 -8.3 14.4" fill="#ffffff" fill-rule="evenodd" stroke="none"/>
      <path d="M-22.15 0.8 Q-22.45 -0.2 -22.35 -1.25 L-22.15 -2.15 M35.35 19.5 Q23.7 20.8 14.25 15.55 25.85 17.7 36.8 13.95 24.55 15.1 13.55 9.3 L20.5 9.45 15.5 7.2 Q6.95 2.7 -0.95 -3.25 -10.65 -10.5 -19.4 -3.65 L-19.35 -3.55 -19.6 -3.5 -20.1 -1.25 -21.55 -2.95 -21.6 -1.9 Q-21.1 4.7 -16.55 9.2 L-17.25 5.6 -16.3 6.95 Q-13.05 11.65 -8.3 14.4 L-8.25 14.45 -8.2 14.25 -8.95 12.35 -8.6 12.5 -9.4 8.95 -8.2 11.25 Q-4.1 19.45 3.15 23.85 L2.0 19.4 3.2 20.9 Q9.55 28.0 18.75 27.3 L11.5 20.55 Q13.65 21.95 16.1 22.35 25.95 23.45 35.35 19.7 L35.7 19.5 35.35 19.5 M-19.4 -3.65 L-19.6 -3.5" fill="none" stroke="#cccccc" stroke-linecap="round" stroke-linejoin="round" stroke-width="2.0"/>
    </g>
  </g>
  </g>
  <defs>
    </defs>
</svg>