<svg xmlns:xlink="http://www.w3.org/1999/xlink" xmlns="http://www.w3.org/2000/svg" height="7.05px" width="21.2px">
  <g transform="matrix(1.0, 0.0, 0.0, 1.0, 8.45, 3.15)">
    <path d="M-7.9 -0.7 Q-6.2 -0.85 -4.5 -0.65 L-1.45 -0.4 2.0 -0.45 5.5 -0.85 7.35 -1.25 9.3 -1.75 12.05 -2.9 Q13.3 -3.6 12.25 -2.15 11.2 -0.7 9.95 -0.2 L8.35 0.9 8.15 1.0 7.75 0.45 6.35 1.1 6.25 1.85 6.35 1.1 7.75 0.45 8.15 1.0 8.2 1.1 6.25 2.3 Q5.35 2.55 4.35 3.05 L2.2 3.55 -1.5 3.9 -4.8 3.45 -7.2 3.1 -7.5 3.05 Q-6.6 0.6 -7.9 -0.7 M2.6 1.55 L2.6 1.65 3.15 1.65 2.6 1.55 M-2.35 1.2 L2.6 1.65 2.4 2.35 2.6 1.65 -2.35 1.2 M3.15 1.65 L4.3 1.65 6.35 1.1 4.3 1.65 3.15 1.65" fill="#ffffff" fill-rule="evenodd" stroke="none"/>
    <path d="M-7.9 -0.7 Q-6.2 -0.85 -4.5 -0.65 L-1.45 -0.4 2.0 -0.45 5.5 -0.85 7.35 -1.25 9.3 -1.75 12.05 -2.9 Q13.3 -3.6 12.25 -2.15 11.2 -0.7 9.95 -0.2 L8.35 0.9 8.2 1.1 6.25 2.3 Q5.35 2.55 4.35 3.05 L2.2 3.55 -1.5 3.9 -4.8 3.45 -7.2 3.1 -7.5 3.05 Q-6.6 0.6 -7.9 -0.7 L-8.45 -1.6 M8.15 1.0 L8.2 1.1 M2.6 1.55 L2.6 1.65" fill="none" stroke="#000000" stroke-linecap="round" stroke-linejoin="round" stroke-width="1.5"/>
    <path d="M8.15 1.0 L7.75 0.45 6.35 1.1 6.25 1.85 M2.6 1.65 L3.15 1.65 4.3 1.65 6.35 1.1 M2.6 1.65 L2.4 2.35 M2.6 1.65 L-2.35 1.2" fill="none" stroke="#999999" stroke-linecap="round" stroke-linejoin="round" stroke-width="1.5"/>
  </g>
</svg>