<svg xmlns:xlink="http://www.w3.org/1999/xlink" xmlns="http://www.w3.org/2000/svg" height="15.75px" width="20.6px">
  <g transform="matrix(1.0, 0.0, 0.0, 1.0, 7.5, 3.7)">
    <path d="M2.75 -3.7 L6.2 -2.1 6.3 -2.05 Q10.0 -0.75 12.8 2.35 L13.1 3.05 Q12.1 5.05 9.7 3.4 L5.5 0.9 Q4.9 0.6 4.55 0.15 L-4.6 0.85 -4.95 0.2 -5.0 0.15 -5.8 0.5 -6.3 0.9 Q-7.15 1.1 -7.5 0.45 L-7.5 0.4 -4.65 -2.2 Q-4.05 -2.75 -3.3 -3.1 L-2.1 -3.05 -1.65 -2.55 -1.3 -2.25 -0.55 -2.25 Q1.1 -2.65 2.5 -3.55 L2.75 -3.7 M0.85 11.95 Q-3.0 12.6 -5.0 9.85 L-5.25 9.05 -5.3 8.65 -3.0 9.45 Q-0.8 10.15 2.6 10.05 6.0 9.95 5.6 10.35 L4.9 11.0 0.85 11.95" fill="#e6b380" fill-rule="evenodd" stroke="none"/>
  </g>
</svg>