<svg xmlns:xlink="http://www.w3.org/1999/xlink" xmlns="http://www.w3.org/2000/svg" height="264.15px" width="342.25px">
  <g transform="matrix(1.0, 0.0, 0.0, 1.0, 243.25, 83.7)">
    <g data-characterId="1163" height="135.95" transform="matrix(1.0, 0.0, 0.0, 1.0, -40.9, -53.75)" width="95.9" xlink:href="#shape0"><g id="shape0" transform="matrix(1.0, 0.0, 0.0, 1.0, 40.9, 53.75)">
      <path d="M-12.4 -10.2 Q-14.2 -8.5 -16.7 -8.5 -18.4 -8.5 -19.8 -9.3 L-21.2 -10.45 Q-23.05 -12.4 -23.05 -15.2 -23.05 -18.0 -21.2 -19.95 -19.35 -21.9 -16.7 -21.9 -14.05 -21.9 -12.2 -19.95 -10.35 -18.0 -10.35 -15.2 -10.35 -12.4 -12.2 -10.45 L-12.4 -10.2" fill="#ffcc00" fill-rule="evenodd" stroke="none"/>
      <path d="M35.7 -34.55 Q33.95 -32.9 31.95 -33.85 15.5 -42.15 0.0 -38.0 15.5 -42.15 31.95 -33.85 33.95 -32.9 35.7 -34.55 M34.55 -2.2 L32.7 0.1 Q28.75 0.6 25.05 -2.1 22.55 -3.9 19.7 -5.15 L16.7 -6.35 Q21.7 -2.25 21.8 3.65 21.8 4.4 21.25 5.1 19.55 7.0 16.95 7.65 L16.15 7.25 6.35 4.3 Q-2.75 1.4 -12.1 -9.8 L-12.4 -10.2 -12.2 -10.45 Q-10.35 -12.4 -10.35 -15.2 -10.35 -18.0 -12.2 -19.95 -14.05 -21.9 -16.7 -21.9 -19.35 -21.9 -21.2 -19.95 -23.05 -18.0 -23.05 -15.2 -23.05 -12.4 -21.2 -10.45 L-19.8 -9.3 Q-23.9 -1.05 -30.05 3.55 -31.8 4.8 -33.7 4.5 -45.15 3.7 -37.05 -11.75 -40.3 -27.0 -25.05 -35.7 L-23.6 -36.35 Q-9.4 -59.75 19.55 -50.75 31.4 -47.1 38.45 -40.2 38.55 -35.55 40.7 -31.5 43.3 -26.6 42.75 -21.4 42.45 -18.8 40.1 -17.75 37.95 -16.75 35.25 -16.35 L32.25 -15.55 Q37.2 -12.05 40.3 -7.0 41.6 -4.9 41.3 -2.55 L41.05 -1.7 34.55 -2.2 28.8 -5.8 34.55 -2.2 M-10.95 -35.15 L-14.3 -36.15 Q-18.95 -37.75 -23.6 -36.35 -18.95 -37.75 -14.3 -36.15 L-10.95 -35.15 M-35.65 -6.95 L-37.05 -11.75 -35.65 -6.95" fill="#b49a6e" fill-rule="evenodd" stroke="none"/>
      <path d="M16.95 7.65 Q21.35 9.75 25.95 11.55 L22.45 14.95 Q17.15 22.15 16.25 9.5 L16.15 7.25 16.95 7.65 M37.05 16.5 L37.1 16.55 Q38.55 17.9 39.4 20.0 40.65 23.05 41.0 26.4 L41.0 26.5 39.9 27.8 Q39.7 28.1 39.6 28.55 L39.55 29.35 39.7 30.5 38.0 29.9 38.0 35.1 36.15 35.2 Q33.65 36.9 31.1 38.55 30.35 33.45 31.4 28.5 32.05 25.45 34.0 22.95 L33.95 21.7 34.0 20.9 34.4 19.55 34.7 18.9 35.2 18.35 36.25 17.25 37.05 16.5 M-20.7 58.7 L-17.85 62.7 -15.2 60.6 -13.25 62.15 -9.75 59.25 -7.45 63.3 -5.15 62.25 -4.0 64.45 0.6 62.7 1.05 63.8 Q1.75 66.15 0.0 67.9 L-1.7 66.75 Q-7.0 82.05 -22.45 81.7 L-15.55 73.65 Q-25.9 80.9 -34.0 74.5 L-33.45 73.7 Q-30.1 73.85 -28.75 70.75 L-32.4 69.85 -32.4 69.7 Q-22.35 68.3 -21.4 58.7 L-20.7 58.7" fill="#000000" fill-rule="evenodd" stroke="none"/>
      <path d="M16.95 7.65 Q19.55 7.0 21.25 5.1 21.8 4.4 21.8 3.65 21.7 -2.25 16.7 -6.35 L19.7 -5.15 Q22.55 -3.9 25.05 -2.1 28.75 0.6 32.7 0.1 L34.55 -2.2 Q44.3 5.15 47.35 18.0 L47.9 20.8 47.35 18.0 Q44.3 5.15 34.55 -2.2 L41.05 -1.7 41.3 -2.55 Q41.6 -4.9 40.3 -7.0 37.2 -12.05 32.25 -15.55 L35.25 -16.35 Q37.95 -16.75 40.1 -17.75 42.45 -18.8 42.75 -21.4 43.3 -26.6 40.7 -31.5 38.55 -35.55 38.45 -40.2 49.65 -29.35 48.9 -10.4 L48.4 -9.75 Q60.0 1.15 49.5 18.05 L47.9 20.8 41.0 26.4 Q40.65 23.05 39.4 20.0 38.55 17.9 37.1 16.55 L37.05 16.5 36.95 16.4 36.9 16.35 Q35.55 15.1 33.7 14.45 L25.95 11.55 Q21.35 9.75 16.95 7.65 M42.0 -14.4 Q45.75 -12.25 48.4 -9.75 45.75 -12.25 42.0 -14.4" fill="#a68759" fill-rule="evenodd" stroke="none"/>
      <path d="M0.0 -38.0 Q15.5 -42.15 31.95 -33.85 33.95 -32.9 35.7 -34.55 M16.95 7.65 Q21.35 9.75 25.95 11.55 L33.7 14.45 Q35.55 15.1 36.9 16.35 L36.95 16.4 37.05 16.5 37.1 16.55 Q38.55 17.9 39.4 20.0 40.65 23.05 41.0 26.4 L47.9 20.8 47.35 18.0 Q44.3 5.15 34.55 -2.2 L28.8 -5.8 M38.45 -40.2 Q31.4 -47.1 19.55 -50.75 -9.4 -59.75 -23.6 -36.35 -18.95 -37.75 -14.3 -36.15 L-10.95 -35.15 M48.4 -9.75 Q45.75 -12.25 42.0 -14.4 M48.4 -9.75 Q60.0 1.15 49.5 18.05 L47.9 20.8 M38.45 -40.2 Q49.65 -29.35 48.9 -10.4 M41.0 26.4 L41.0 26.5 39.9 27.8 Q39.7 28.1 39.6 28.55 L39.55 29.35 39.7 30.5 38.0 29.9 38.0 35.1 36.15 35.2 Q33.65 36.9 31.1 38.55 30.35 33.45 31.4 28.5 32.05 25.45 34.0 22.95 L33.95 21.7 34.0 20.9 34.4 19.55 34.7 18.9 35.2 18.35 36.25 17.25 M25.95 11.55 L22.45 14.95 Q17.15 22.15 16.25 9.5 L16.15 7.25 6.35 4.3 Q-2.75 1.4 -12.1 -9.8 M-12.4 -10.2 Q-14.2 -8.5 -16.7 -8.5 -18.4 -8.5 -19.8 -9.3 -23.9 -1.05 -30.05 3.55 -31.8 4.8 -33.7 4.5 -45.15 3.7 -37.05 -11.75 -40.3 -27.0 -25.05 -35.7 L-23.6 -36.35 M16.95 7.65 L16.15 7.25 M-34.0 74.5 Q-25.9 80.9 -15.55 73.65 L-22.45 81.7 Q-7.0 82.05 -1.7 66.75 L0.0 67.9 Q1.75 66.15 1.05 63.8 L0.6 62.7 -4.0 64.45 -5.15 62.25 -7.45 63.3 -9.75 59.25 -13.25 62.15 -15.2 60.6 -17.85 62.7 -20.7 58.7 M-21.4 58.7 Q-22.35 68.3 -32.4 69.7 L-33.35 69.6 -32.4 69.85 -28.75 70.75 Q-30.1 73.85 -33.45 73.7 L-33.8 73.6 -35.65 73.05 -34.05 74.45 -34.0 74.5 M-37.05 -11.75 L-35.65 -6.95 M-12.4 -10.2 L-12.2 -10.45 Q-10.35 -12.4 -10.35 -15.2 -10.35 -18.0 -12.2 -19.95 -14.05 -21.9 -16.7 -21.9 -19.35 -21.9 -21.2 -19.95 -23.05 -18.0 -23.05 -15.2 -23.05 -12.4 -21.2 -10.45 L-19.8 -9.3" fill="none" stroke="#000000" stroke-linecap="round" stroke-linejoin="round" stroke-width="2.0"/>
    </g>
  </g>
  </g>
  <defs>
    </defs>
</svg>