<svg xmlns:xlink="http://www.w3.org/1999/xlink" xmlns="http://www.w3.org/2000/svg" height="264.15px" width="342.25px">
  <g transform="matrix(1.0, 0.0, 0.0, 1.0, 243.25, 83.7)">
    <g data-characterId="1170" height="85.65" transform="matrix(1.0, 0.0, 0.0, 1.0, -40.2, -45.65)" width="83.95" xlink:href="#shape0"><g id="shape0" transform="matrix(1.0, 0.0, 0.0, 1.0, 40.2, 45.65)">
      <path d="M4.5 -29.0 L6.35 -30.3 Q7.95 -31.65 8.35 -33.9 L9.35 -34.55 Q12.8 -36.7 14.35 -40.4 12.8 -36.7 9.35 -34.55 L8.35 -33.9 Q7.95 -31.65 6.35 -30.3 L4.5 -29.0 M14.55 -40.25 L18.7 -40.8 19.75 -40.85 Q27.6 -35.65 34.9 -30.0 39.75 -26.15 41.05 -20.15 47.95 11.75 33.1 39.5 L31.95 35.2 Q31.3 32.7 35.25 23.6 39.2 14.45 34.0 0.65 L29.35 3.05 Q32.65 21.0 23.5 33.7 L22.5 33.5 Q25.55 13.1 20.5 -5.0 24.5 16.9 12.5 33.5 15.85 12.5 10.5 -7.0 10.5 3.15 10.1 13.4 9.75 22.75 5.5 22.0 8.4 -5.55 -11.0 -25.8 L-14.5 -23.0 -15.35 -25.1 -16.15 -24.9 Q-24.8 -20.65 -30.05 -12.5 L-33.35 20.05 Q-35.15 12.4 -35.2 4.75 -35.85 13.15 -38.5 21.0 L-39.55 2.5 Q-41.15 -23.75 -27.95 -31.9 -14.8 -40.1 -4.55 -43.85 5.65 -47.6 14.35 -40.4 L14.55 -40.25 M-14.0 -37.75 Q-16.5 -36.35 -19.0 -34.5 L-20.4 -33.4 Q-21.6 -32.3 -22.95 -31.65 -23.5 -31.35 -24.05 -31.2 -25.95 -30.7 -27.55 -29.6 L-28.15 -29.15 -30.75 -26.75 Q-32.7 -24.85 -34.05 -22.55 L-34.4 -21.95 -35.5 -19.5 Q-36.8 -16.9 -37.0 -14.25 -37.1 -13.1 -37.7 -11.95 L-37.9 -11.25 -38.1 -9.0 -38.15 -8.0 -38.35 -4.75 -38.55 4.75 Q-38.5 7.45 -38.0 10.0 -38.5 7.45 -38.55 4.75 L-38.35 -4.75 -38.15 -8.0 -38.1 -9.0 -37.9 -11.25 -37.7 -11.95 Q-37.1 -13.1 -37.0 -14.25 -36.8 -16.9 -35.5 -19.5 L-34.4 -21.95 -34.05 -22.55 Q-32.7 -24.85 -30.75 -26.75 L-28.15 -29.15 -27.55 -29.6 Q-25.95 -30.7 -24.05 -31.2 -23.5 -31.35 -22.95 -31.65 -21.6 -32.3 -20.4 -33.4 L-19.0 -34.5 Q-16.5 -36.35 -14.0 -37.75 M14.75 -5.5 Q15.0 -2.75 15.7 0.0 L16.05 2.25 16.15 7.75 15.75 16.75 15.0 26.25 15.75 16.75 16.15 7.75 16.05 2.25 15.7 0.0 Q15.0 -2.75 14.75 -5.5 M23.5 -3.0 L23.85 -1.55 Q25.1 2.55 25.75 6.75 L25.9 8.5 25.9 17.5 25.8 20.75 Q25.6 24.9 24.75 29.0 25.6 24.9 25.8 20.75 L25.9 17.5 25.9 8.5 25.75 6.75 Q25.1 2.55 23.85 -1.55 L23.5 -3.0 M-5.25 -24.75 L-4.7 -24.0 -3.45 -22.15 0.95 -14.2 1.9 -11.95 Q2.25 -10.75 2.9 -9.7 L3.95 -7.95 4.35 -6.75 5.7 3.0 5.85 4.0 Q6.75 8.55 6.95 13.25 L7.2 14.7 Q7.6 16.4 7.0 18.0 7.6 16.4 7.2 14.7 L6.95 13.25 Q6.75 8.55 5.85 4.0 L5.7 3.0 4.35 -6.75 3.95 -7.95 2.9 -9.7 Q2.25 -10.75 1.9 -11.95 L0.95 -14.2 -3.45 -22.15 -4.7 -24.0 -5.25 -24.75 M-35.0 -1.5 Q-34.95 1.65 -35.2 4.75 -34.95 1.65 -35.0 -1.5" fill="url(#gradient0)" fill-rule="evenodd" stroke="none"/>
      <path d="M-30.05 -12.5 L-33.35 20.05 Q-35.15 12.4 -35.2 4.75 -35.85 13.15 -38.5 21.0 L-39.55 2.5 Q-41.15 -23.75 -27.95 -31.9 -14.8 -40.1 -4.55 -43.85 5.65 -47.6 14.35 -40.4 L14.55 -40.25 M-35.2 4.75 Q-34.95 1.65 -35.0 -1.5" fill="none" stroke="#000000" stroke-linecap="round" stroke-linejoin="round" stroke-width="2.0"/>
      <path d="M14.55 -40.25 L18.7 -40.8 19.75 -40.85 Q27.6 -35.65 34.9 -30.0 39.75 -26.15 41.05 -20.15 47.95 11.75 33.1 39.5 L31.95 35.2 Q31.3 32.7 35.25 23.6 39.2 14.45 34.0 0.65 L29.35 3.05 Q32.65 21.0 23.5 33.7 L22.5 33.5 Q25.55 13.1 20.5 -5.0 24.5 16.9 12.5 33.5 15.85 12.5 10.5 -7.0 10.5 3.15 10.1 13.4 9.75 22.75 5.5 22.0 8.4 -5.55 -11.0 -25.8 L-14.5 -23.0 -15.35 -25.1 -16.15 -24.9 Q-24.8 -20.65 -30.05 -12.5" fill="none" stroke="#000000" stroke-linecap="round" stroke-linejoin="round" stroke-width="2.0"/>
      <path d="M7.0 18.0 Q7.6 16.4 7.2 14.7 L6.95 13.25 Q6.75 8.55 5.85 4.0 L5.7 3.0 4.35 -6.75 3.95 -7.95 2.9 -9.7 Q2.25 -10.75 1.9 -11.95 L0.95 -14.2 -3.45 -22.15 -4.7 -24.0 -5.25 -24.75 M24.75 29.0 Q25.6 24.9 25.8 20.75 L25.9 17.5 25.9 8.5 25.75 6.75 Q25.1 2.55 23.85 -1.55 L23.5 -3.0 M15.0 26.25 L15.75 16.75 16.15 7.75 16.05 2.25 15.7 0.0 Q15.0 -2.75 14.75 -5.5 M-38.0 10.0 Q-38.5 7.45 -38.55 4.75 L-38.35 -4.75 -38.15 -8.0 -38.1 -9.0 -37.9 -11.25 -37.7 -11.95 Q-37.1 -13.1 -37.0 -14.25 -36.8 -16.9 -35.5 -19.5 L-34.4 -21.95 -34.05 -22.55 Q-32.7 -24.85 -30.75 -26.75 L-28.15 -29.15 -27.55 -29.6 Q-25.95 -30.7 -24.05 -31.2 -23.5 -31.35 -22.95 -31.65 -21.6 -32.3 -20.4 -33.4 L-19.0 -34.5 Q-16.5 -36.35 -14.0 -37.75" fill="none" stroke="#ffffcc" stroke-linecap="round" stroke-linejoin="round" stroke-width="2.0"/>
      <path d="M14.35 -40.4 Q12.8 -36.7 9.35 -34.55 L8.35 -33.9 Q7.95 -31.65 6.35 -30.3 L4.5 -29.0" fill="none" stroke="#8c5e2f" stroke-linecap="round" stroke-linejoin="round" stroke-width="2.0"/>
    </g>
    </g>
  </g>
  <defs>
    <linearGradient gradientTransform="matrix(0.0145, 0.0561, -0.0504, 0.0131, 35.15, 13.8)" gradientUnits="userSpaceOnUse" id="gradient0" spreadMethod="pad" x1="-819.2" x2="819.2">
      <stop offset="0.0" stop-color="#fedb74"/>
      <stop offset="0.23921568627450981" stop-color="#feeabc"/>
      <stop offset="0.4470588235294118" stop-color="#fedb74"/>
      <stop offset="1.0" stop-color="#fedb74"/>
    </linearGradient>
  </defs>
</svg>