<svg xmlns:xlink="http://www.w3.org/1999/xlink" xmlns="http://www.w3.org/2000/svg" height="119.1px" width="213.05px">
  <g transform="matrix(1.0, 0.0, 0.0, 1.0, 94.65, 81.2)">
    <g data-characterId="923" height="39.5" transform="matrix(1.0, 0.0, 0.0, 1.0, -60.4, -22.5)" width="133.7" xlink:href="#shape0"><g id="shape0" transform="matrix(1.0, 0.0, 0.0, 1.0, 60.4, 22.5)">
      <path d="M18.05 15.45 L18.3 15.0 18.8 15.35 18.05 15.45 M32.6 -16.3 L33.25 -17.55 32.6 -16.3" fill="#ecc59d" fill-rule="evenodd" stroke="none"/>
      <path d="M38.05 12.3 L37.15 12.5 37.8 11.4 38.05 12.3 M-25.25 14.65 L-25.25 14.5 -25.25 14.65" fill="#666600" fill-rule="evenodd" stroke="none"/>
      <path d="M25.75 -11.75 Q23.05 -6.15 15.9 -4.1 L12.85 -3.15 Q3.75 -3.1 0.0 4.25 3.75 -3.1 12.85 -3.15 L15.9 -4.1 Q23.05 -6.15 25.75 -11.75 M-21.65 -18.75 Q-21.5 -16.9 -20.35 -14.8 -19.3 -12.85 -17.7 -11.15 -16.2 -9.55 -14.35 -8.25 -13.2 -7.45 -11.8 -7.1 -6.55 -5.25 -0.95 -5.85 L3.8 -6.35 8.15 -7.4 Q11.2 -8.35 14.2 -9.45 18.45 -10.95 22.3 -13.55 23.8 -14.6 24.75 -16.15 L28.5 -22.0 33.25 -17.55 32.6 -16.3 31.0 -11.55 Q26.1 2.35 18.3 15.0 L18.05 15.45 14.1 16.1 Q-5.55 17.35 -25.05 14.65 L-25.25 14.5 -25.35 10.0 Q-25.8 -2.4 -30.0 -14.2 L-22.65 -17.15 -21.65 -18.75 M-22.25 -12.75 Q-21.7 -12.6 -21.65 -11.75 L-21.55 -11.45 -21.4 -11.1 -20.85 -10.5 -19.25 -9.0 Q-15.75 -5.75 -14.0 -1.5 -15.75 -5.75 -19.25 -9.0 L-20.85 -10.5 -21.4 -11.1 -21.55 -11.45 -21.65 -11.75 Q-21.7 -12.6 -22.25 -12.75" fill="#6a7d8c" fill-rule="evenodd" stroke="none"/>
      <path d="M50.95 -12.5 Q68.85 -7.55 71.5 0.75 74.15 9.0 71.45 10.7 56.3 8.65 38.05 12.3 L37.8 11.4 38.65 8.5 Q42.2 -3.15 50.5 -12.0 L50.95 -12.5 M-42.35 -13.85 L-41.35 -8.45 Q-39.5 2.05 -39.9 12.7 L-44.3 11.65 -47.55 10.8 -47.55 10.75 -54.75 8.9 Q-62.6 7.1 -58.5 -0.6 -54.4 -8.3 -42.5 -14.15 L-42.35 -13.85" fill="#808055" fill-rule="evenodd" stroke="none"/>
      <path d="M-30.0 -14.2 Q-25.8 -2.4 -25.35 10.0 L-25.25 14.5 -25.25 14.65 Q-32.65 14.2 -39.9 12.7 -39.5 2.05 -41.35 -8.45 L-42.35 -13.85 -42.45 -14.2 -39.55 -14.95 Q-34.75 -15.9 -30.0 -14.2 M18.3 15.0 Q26.1 2.35 31.0 -11.55 L32.6 -16.3 33.25 -17.55 35.5 -18.75 50.95 -12.5 50.5 -12.0 Q42.2 -3.15 38.65 8.5 L37.8 11.4 37.15 12.5 18.8 15.35 18.3 15.0" fill="#67673f" fill-rule="evenodd" stroke="none"/>
      <path d="M-42.45 -14.2 L-42.35 -13.85 -42.5 -14.15 -42.45 -14.2" fill="#663333" fill-rule="evenodd" stroke="none"/>
      <path d="M-21.65 -18.75 L-22.65 -17.15 -30.0 -14.2 Q-25.8 -2.4 -25.35 10.0 L-25.25 14.5 -25.25 14.65 -25.05 14.65 Q-5.55 17.35 14.1 16.1 L18.05 15.45 18.3 15.0 Q26.1 2.35 31.0 -11.55 L32.6 -16.3 33.25 -17.55 28.5 -22.0 M33.25 -17.55 L35.5 -18.75 50.95 -12.5 Q68.85 -7.55 71.5 0.75 74.15 9.0 71.45 10.7 56.3 8.65 38.05 12.3 L37.15 12.5 18.8 15.35 18.05 15.45 M50.5 -12.0 Q42.2 -3.15 38.65 8.5 L37.8 11.4 37.15 12.5 M-42.45 -14.2 L-42.35 -13.85 -41.35 -8.45 Q-39.5 2.05 -39.9 12.7 -32.65 14.2 -25.25 14.65 M-42.5 -14.15 L-42.45 -14.2 -39.55 -14.95 Q-34.75 -15.9 -30.0 -14.2 M-42.5 -14.15 Q-54.4 -8.3 -58.5 -0.6 -62.6 7.1 -54.75 8.9 L-47.55 10.75 -47.55 10.8 -44.3 11.65 -39.9 12.7" fill="none" stroke="#000000" stroke-linecap="round" stroke-linejoin="round" stroke-width="2.0"/>
      <path d="M0.0 4.25 Q3.75 -3.1 12.85 -3.15 L15.9 -4.1 Q23.05 -6.15 25.75 -11.75 M-14.0 -1.5 Q-15.75 -5.75 -19.25 -9.0 L-20.85 -10.5 -21.4 -11.1 -21.55 -11.45 -21.65 -11.75 Q-21.7 -12.6 -22.25 -12.75" fill="none" stroke="#3d474e" stroke-linecap="round" stroke-linejoin="round" stroke-width="2.0"/>
    </g>
  </g>
  </g>
  <defs>
    </defs>
</svg>