<svg xmlns:xlink="http://www.w3.org/1999/xlink" xmlns="http://www.w3.org/2000/svg" height="42.85px" width="62.0px">
  <g transform="matrix(1.0, 0.0, 0.0, 1.0, 24.7, 15.0)">
    <g data-characterId="1115" height="12.15" transform="matrix(1.0, 0.0, 0.0, 1.0, -15.7, -7.35)" width="33.4" xlink:href="#shape0"><g id="shape0" transform="matrix(1.0, 0.0, 0.0, 1.0, 15.7, 7.35)">
      <path d="M5.65 -4.5 Q14.15 -4.0 17.2 3.4 14.2 0.35 10.75 0.05 7.3 -0.25 0.8 -0.2 -5.7 -0.15 -13.3 4.3 L-14.9 3.65 Q-15.75 0.2 -14.15 -1.9 -12.6 -4.05 -10.45 -5.2 L-10.25 -3.55 Q-8.0 -5.25 -6.0 -5.7 L-1.5 -6.85 -3.75 -4.45 Q1.35 -6.7 4.15 -6.6 L8.65 -5.9 5.65 -4.5" fill="#3e0f0f" fill-rule="evenodd" stroke="none"/>
      <path d="M5.65 -4.5 Q14.15 -4.0 17.2 3.4 14.2 0.35 10.75 0.05 7.3 -0.25 0.8 -0.2 -5.7 -0.15 -13.3 4.3 L-14.9 3.65 Q-15.75 0.2 -14.15 -1.9 -12.6 -4.05 -10.45 -5.2 L-10.25 -3.55 Q-8.0 -5.25 -6.0 -5.7 L-1.5 -6.85 -3.75 -4.45 Q1.35 -6.7 4.15 -6.6 L8.65 -5.9 5.65 -4.5 Z" fill="none" stroke="#000000" stroke-linecap="round" stroke-linejoin="round" stroke-width="2.0"/>
    </g>
  </g>
  </g>
  <defs>
    </defs>
</svg>