<svg xmlns:xlink="http://www.w3.org/1999/xlink" xmlns="http://www.w3.org/2000/svg" height="12.95px" width="20.35px">
  <g transform="matrix(1.0, 0.0, 0.0, 1.0, 9.05, 4.35)">
    <path d="M10.9 -4.3 L11.05 -4.2 11.2 -4.05 11.3 -3.75 Q10.05 -1.85 7.55 -1.25 L1.5 -0.35 -2.55 -0.7 -5.95 -1.3 -7.5 -1.25 -8.4 -1.15 -8.65 -1.65 -8.95 -1.8 -8.95 -2.35 -8.9 -2.7 Q-8.05 -3.65 -6.8 -3.35 -6.15 -2.9 -4.45 -2.6 L0.2 -2.45 1.9 -2.15 Q6.45 -2.35 10.5 -4.35 L10.9 -4.3 M3.25 7.2 L-2.3 8.45 Q-5.35 9.15 -6.85 6.7 L-7.05 6.0 -7.05 5.65 -5.35 6.35 -1.2 6.9 3.55 6.75 Q5.8 6.65 3.25 7.2" fill="#e6b380" fill-rule="evenodd" stroke="none"/>
  </g>
</svg>