<svg xmlns:xlink="http://www.w3.org/1999/xlink" xmlns="http://www.w3.org/2000/svg" height="9.05px" width="21.0px">
  <g transform="matrix(1.0, 0.0, 0.0, 1.0, 9.1, 5.1)">
    <path d="M-8.4 -1.8 L-5.0 -1.45 -1.55 -0.95 2.35 -1.2 5.35 -1.8 6.15 -2.0 8.9 -3.15 Q10.6 -3.9 11.9 -5.1 L11.65 -4.45 9.7 -1.2 7.85 0.8 7.65 0.9 7.25 0.35 5.85 1.0 5.75 1.75 5.85 1.0 7.25 0.35 7.65 0.9 7.7 1.0 5.6 2.7 Q4.85 3.3 4.05 3.55 L1.6 3.95 -2.0 3.8 -5.75 3.6 -7.7 3.5 -8.0 2.95 Q-7.85 0.5 -8.4 -1.8 M2.1 1.45 L2.1 1.55 2.65 1.55 2.1 1.45 M-2.85 1.1 L2.1 1.55 1.9 2.25 2.1 1.55 -2.85 1.1 M2.65 1.55 L3.8 1.55 5.85 1.0 3.8 1.55 2.65 1.55" fill="#ffffff" fill-rule="evenodd" stroke="none"/>
    <path d="M-8.4 -1.8 L-5.0 -1.45 -1.55 -0.95 2.35 -1.2 5.35 -1.8 6.15 -2.0 8.9 -3.15 Q10.6 -3.9 11.9 -5.1 L11.65 -4.45 9.7 -1.2 7.85 0.8 7.7 1.0 5.6 2.7 Q4.85 3.3 4.05 3.55 L1.6 3.95 -2.0 3.8 -5.75 3.6 -7.7 3.5 -8.0 2.95 Q-7.85 0.5 -8.4 -1.8 L-9.1 -1.7 M7.65 0.9 L7.7 1.0 M2.1 1.45 L2.1 1.55" fill="none" stroke="#000000" stroke-linecap="round" stroke-linejoin="round" stroke-width="1.5"/>
    <path d="M7.65 0.9 L7.25 0.35 5.85 1.0 5.75 1.75 M2.1 1.55 L2.65 1.55 3.8 1.55 5.85 1.0 M2.1 1.55 L1.9 2.25 M2.1 1.55 L-2.85 1.1" fill="none" stroke="#999999" stroke-linecap="round" stroke-linejoin="round" stroke-width="1.5"/>
  </g>
</svg>