<svg xmlns:xlink="http://www.w3.org/1999/xlink" xmlns="http://www.w3.org/2000/svg" height="264.15px" width="342.25px">
  <g transform="matrix(1.0, 0.0, 0.0, 1.0, 243.25, 83.7)">
    <g data-characterId="1126" height="148.35" transform="matrix(1.0, 0.0, 0.0, 1.0, -40.95, -42.3)" width="104.95" xlink:href="#shape0"><g id="shape0" transform="matrix(1.0, 0.0, 0.0, 1.0, 40.95, 42.3)">
      <path d="M12.2 -10.2 L10.8 -15.15 10.8 -15.95 11.45 -14.0 12.2 -10.2" fill="url(#gradient0)" fill-rule="evenodd" stroke="none"/>
      <path d="M13.9 -38.55 L12.5 -38.5 13.9 -38.55 Q33.25 -35.45 38.95 -15.15 44.6 5.1 45.05 18.5 45.5 31.9 46.55 44.4 47.6 56.85 51.8 67.5 55.95 78.1 62.45 86.1 L61.25 86.9 54.2 82.25 62.0 96.05 Q56.05 94.75 51.45 90.55 L49.95 88.9 48.5 87.05 52.0 105.55 Q46.1 101.85 42.05 96.1 L38.5 90.55 38.7 104.25 Q32.9 98.75 29.4 91.55 27.5 87.6 26.35 83.15 L24.45 94.15 22.95 94.8 Q14.3 86.6 14.55 64.0 14.75 43.15 15.95 28.05 L16.15 25.5 Q17.55 9.6 15.1 0.45 L12.2 -10.2 11.45 -14.0 10.8 -15.95 Q10.5 -19.65 7.2 -22.0 L5.8 -22.85 Q-0.75 -21.35 -15.9 -26.35 -10.75 -33.35 -3.55 -35.4 0.6 -36.7 4.9 -36.2 9.4 -35.75 12.0 -38.5 9.4 -35.75 4.9 -36.2 0.6 -36.7 -3.55 -35.4 -10.75 -33.35 -15.9 -26.35 L-26.0 -21.05 Q-30.05 -12.8 -31.35 -4.05 -32.7 4.7 -32.75 7.6 -32.8 12.8 -33.45 17.85 -33.85 21.15 -32.95 24.55 -28.55 41.4 -22.85 57.75 -20.7 63.95 -14.75 64.4 L-15.3 71.75 -17.0 73.85 -40.1 78.3 Q-36.7 64.4 -37.2 49.9 -37.7 35.4 -39.85 19.65 -42.0 3.9 -36.75 -13.2 -31.55 -30.3 -16.15 -37.15 -7.2 -41.2 2.5 -41.8 8.75 -41.95 13.9 -38.55 M-29.0 -20.5 L-26.0 -21.05 -29.0 -20.5 M19.25 -28.75 Q17.15 -32.75 13.0 -34.75 L10.2 -35.8 9.75 -35.75 10.2 -35.8 13.0 -34.75 Q17.15 -32.75 19.25 -28.75 M21.75 -32.25 L20.05 -34.3 Q18.15 -36.25 15.75 -37.5 L15.95 -37.0 16.0 -36.5 15.95 -37.0 15.75 -37.5 Q18.15 -36.25 20.05 -34.3 L21.75 -32.25 M10.5 -32.5 L9.75 -32.75 Q5.05 -34.65 0.0 -34.5 L-0.25 -34.5 0.0 -34.5 Q5.05 -34.65 9.75 -32.75 L10.5 -32.5 M2.25 -38.5 L0.95 -39.7 Q-1.2 -41.55 -3.0 -39.5 -1.2 -41.55 0.95 -39.7 L2.25 -38.5 M23.0 3.5 L23.0 3.0 22.7 0.6 21.05 -4.5 Q19.25 -9.25 17.85 -14.1 16.7 -18.2 14.0 -21.5 16.7 -18.2 17.85 -14.1 19.25 -9.25 21.05 -4.5 L22.7 0.6 23.0 3.0 23.0 3.5 M4.0 -25.5 L5.8 -22.85 4.0 -25.5 M19.75 1.75 L18.05 -4.0 Q17.55 -5.45 17.4 -7.0 L17.35 -7.3 17.4 -7.0 Q17.55 -5.45 18.05 -4.0 L19.75 1.75 M16.45 -4.0 L16.2 -4.75 16.0 -5.25 16.25 -4.5 16.45 -4.0 16.5 -3.75 18.25 2.55 19.0 6.5 18.25 2.55 16.5 -3.75 16.45 -4.0 16.25 -4.5 16.0 -5.25 16.2 -4.75 16.45 -4.0 M23.25 -9.1 L23.4 -8.65 23.55 -8.25 25.0 -2.7 25.75 2.5 25.0 -2.7 23.55 -8.25 23.4 -8.65 23.25 -9.1 M25.5 -2.0 L25.4 -3.0 Q24.25 -9.5 21.5 -15.5 24.25 -9.5 25.4 -3.0 L25.5 -2.0 M29.1 1.5 L28.9 -0.25 Q28.2 -4.0 26.75 -7.5 28.2 -4.0 28.9 -0.25 L29.1 1.5 29.1 2.3 Q30.1 10.1 30.4 18.0 30.75 26.8 30.0 35.5 29.75 38.25 29.8 41.0 30.05 50.8 31.95 60.5 32.5 63.5 33.35 66.4 35.95 75.1 39.7 83.4 L42.0 89.15 Q43.05 92.3 45.5 93.5 43.05 92.3 42.0 89.15 L39.7 83.4 Q35.95 75.1 33.35 66.4 32.5 63.5 31.95 60.5 30.05 50.8 29.8 41.0 29.75 38.25 30.0 35.5 30.75 26.8 30.4 18.0 30.1 10.1 29.1 2.3 L29.1 1.5 M33.75 -0.25 L32.55 -6.2 31.7 -8.6 31.5 -9.0 31.7 -8.6 32.55 -6.2 33.75 -0.25 M36.0 0.25 Q36.0 -2.65 35.25 -5.5 L34.05 -9.2 33.75 -9.5 34.05 -9.2 35.25 -5.5 Q36.0 -2.65 36.0 0.25 M40.0 -2.75 L39.2 -7.2 38.05 -11.0 38.0 -11.25 38.05 -11.0 39.2 -7.2 40.0 -2.75 M4.5 -25.5 Q6.15 -23.9 7.2 -22.0 6.15 -23.9 4.5 -25.5 M31.5 0.0 L31.4 -0.95 29.8 -6.45 26.5 -15.5 29.8 -6.45 31.4 -0.95 31.5 0.0 M37.5 -5.0 L36.15 -11.15 Q35.1 -15.8 30.5 -21.5 35.1 -15.8 36.15 -11.15 L37.5 -5.0 M17.5 34.0 Q16.65 31.1 15.95 28.05 16.65 31.1 17.5 34.0 M27.0 19.5 Q26.25 22.25 25.9 25.05 25.25 30.25 24.85 35.5 L24.2 43.5 Q23.55 51.6 24.8 59.55 26.3 68.95 28.75 78.05 L30.45 83.35 35.0 96.0 35.5 97.5 35.0 96.0 30.45 83.35 28.75 78.05 Q26.3 68.95 24.8 59.55 23.55 51.6 24.2 43.5 L24.85 35.5 Q25.25 30.25 25.9 25.05 26.25 22.25 27.0 19.5 M20.5 12.0 Q21.1 19.9 19.45 27.5 18.7 30.7 18.3 33.95 17.85 37.2 17.65 40.5 L17.3 46.0 Q17.05 49.2 17.05 52.5 L16.8 57.0 16.7 58.5 16.35 64.0 16.05 72.0 Q16.0 74.6 16.7 76.95 18.85 83.8 22.0 90.5 18.85 83.8 16.7 76.95 16.0 74.6 16.05 72.0 L16.35 64.0 16.7 58.5 16.8 57.0 17.05 52.5 Q17.05 49.2 17.3 46.0 L17.65 40.5 Q17.85 37.2 18.3 33.95 18.7 30.7 19.45 27.5 21.1 19.9 20.5 12.0 M25.5 6.0 Q23.9 13.9 23.45 22.0 L22.7 29.45 Q21.25 38.95 21.4 48.5 L21.3 59.5 Q20.95 69.4 24.5 78.5 20.95 69.4 21.3 59.5 L21.4 48.5 Q21.25 38.95 22.7 29.45 L23.45 22.0 Q23.9 13.9 25.5 6.0 M35.0 -2.5 Q35.75 0.0 35.9 2.55 36.5 12.25 36.5 22.0 L36.5 39.5 36.75 49.5 Q37.15 58.85 40.3 67.55 43.45 76.15 48.0 84.0 48.75 85.25 49.8 86.15 50.3 86.55 50.0 85.5 50.3 86.55 49.8 86.15 48.75 85.25 48.0 84.0 43.45 76.15 40.3 67.55 37.15 58.85 36.75 49.5 L36.5 39.5 36.5 22.0 Q36.5 12.25 35.9 2.55 35.75 0.0 35.0 -2.5 M39.5 4.0 L41.05 11.5 Q42.0 15.95 41.75 20.5 L41.35 29.5 Q40.9 38.7 41.25 48.0 41.55 57.05 44.9 65.55 48.3 74.25 53.0 82.0 48.3 74.25 44.9 65.55 41.55 57.05 41.25 48.0 40.9 38.7 41.35 29.5 L41.75 20.5 Q42.0 15.95 41.05 11.5 L39.5 4.0 M46.0 84.5 L46.0 83.5 46.0 84.5 M-27.5 -23.0 L-25.4 -25.1 Q-23.45 -26.9 -20.75 -26.9 L-20.0 -26.75 -20.75 -26.9 Q-23.45 -26.9 -25.4 -25.1 L-27.5 -23.0 M7.0 -30.0 Q3.4 -31.35 -0.5 -31.55 -4.95 -31.75 -8.95 -29.65 -9.75 -29.2 -9.25 -28.75 -9.75 -29.2 -8.95 -29.65 -4.95 -31.75 -0.5 -31.55 3.4 -31.35 7.0 -30.0 M-8.0 -34.75 L-11.45 -35.25 Q-13.6 -35.75 -15.5 -34.75 -17.35 -33.75 -18.25 -32.0 -17.35 -33.75 -15.5 -34.75 -13.6 -35.75 -11.45 -35.25 L-8.0 -34.75 M-3.5 -38.0 L-6.0 -37.7 -9.0 -37.45 Q-11.75 -37.35 -14.25 -36.45 L-16.8 -35.6 Q-20.15 -34.5 -22.75 -32.05 L-26.1 -29.15 Q-27.75 -27.9 -29.0 -26.25 L-29.5 -25.25 -29.0 -26.25 Q-27.75 -27.9 -26.1 -29.15 L-22.75 -32.05 Q-20.15 -34.5 -16.8 -35.6 L-14.25 -36.45 Q-11.75 -37.35 -9.0 -37.45 L-6.0 -37.7 -3.5 -38.0 M-20.75 64.0 L-20.75 64.25 Q-20.4 67.35 -21.25 70.25 -20.4 67.35 -20.75 64.25 L-20.75 64.0 M-26.5 50.5 L-26.35 51.7 Q-25.35 56.55 -25.5 61.5 -25.6 64.15 -26.0 66.7 L-26.5 69.0 -26.0 66.7 Q-25.6 64.15 -25.5 61.5 -25.35 56.55 -26.35 51.7 L-26.5 50.5 M-17.5 68.0 L-17.7 68.9 -18.0 69.0 -17.7 68.9 -17.5 68.0 M-29.75 44.0 Q-29.6 44.9 -29.6 45.75 L-29.45 51.0 -29.35 58.0 -29.45 63.75 -29.7 69.0 -30.0 70.5 -29.7 69.0 -29.45 63.75 -29.35 58.0 -29.45 51.0 -29.6 45.75 Q-29.6 44.9 -29.75 44.0 M-34.25 26.25 L-33.75 30.25 -33.3 34.0 -32.95 37.75 Q-32.6 42.0 -32.7 46.25 L-32.65 51.25 -32.45 56.5 -32.45 62.5 -32.65 68.25 Q-32.75 70.15 -33.3 71.9 -33.95 73.9 -34.0 76.0 -33.95 73.9 -33.3 71.9 -32.75 70.15 -32.65 68.25 L-32.45 62.5 -32.45 56.5 -32.65 51.25 -32.7 46.25 Q-32.6 42.0 -32.95 37.75 L-33.3 34.0 -33.75 30.25 -34.25 26.25 M-37.25 -3.25 L-38.15 2.5 Q-38.7 7.05 -38.2 11.5 L-38.05 13.0 -37.85 15.25 Q-37.25 20.0 -36.9 24.75 -36.5 29.25 -36.4 33.75 L-36.3 35.75 -36.1 45.0 -36.15 47.0 -36.3 50.75 -36.55 60.5 -36.8 70.0 -37.15 72.2 -37.2 74.0 Q-37.05 74.7 -37.5 74.75 -37.05 74.7 -37.2 74.0 L-37.15 72.2 -36.8 70.0 -36.55 60.5 -36.3 50.75 -36.15 47.0 -36.1 45.0 -36.3 35.75 -36.4 33.75 Q-36.5 29.25 -36.9 24.75 -37.25 20.0 -37.85 15.25 L-38.05 13.0 -38.2 11.5 Q-38.7 7.05 -38.15 2.5 L-37.25 -3.25 M-35.5 -10.0 Q-38.85 -4.7 -38.9 1.05 L-38.0 -1.0 -38.9 1.05 Q-38.85 -4.7 -35.5 -10.0 M-34.0 -4.5 Q-35.85 -0.9 -35.0 2.5 -35.85 -0.9 -34.0 -4.5" fill="url(#gradient1)" fill-rule="evenodd" stroke="none"/>
      <path d="M12.5 -38.5 L13.9 -38.55 M-26.0 -21.05 L-29.0 -20.5 M-15.9 -26.35 Q-0.75 -21.35 5.8 -22.85 L4.0 -25.5 M14.0 -21.5 Q16.7 -18.2 17.85 -14.1 19.25 -9.25 21.05 -4.5 L22.7 0.6 23.0 3.0 23.0 3.5 M10.8 -15.95 L10.8 -15.15 12.2 -10.2 11.45 -14.0 10.8 -15.95 Q10.5 -19.65 7.2 -22.0 8.7 -19.3 8.95 -16.0 L9.75 -8.45 10.0 -5.0 10.2 5.5 10.15 8.5 9.9 14.0 Q9.65 23.85 6.1 33.05 M5.8 -22.85 Q7.0 -20.45 6.9 -17.5 6.75 -14.0 7.2 -10.5 8.45 -0.65 6.8 9.05 6.75 9.5 7.0 10.0 M7.2 -22.0 L5.8 -22.85 M21.5 -15.5 Q24.25 -9.5 25.4 -3.0 L25.5 -2.0 M30.5 -21.5 Q35.1 -15.8 36.15 -11.15 L37.5 -5.0 M26.5 -15.5 L29.8 -6.45 31.4 -0.95 31.5 0.0 M7.2 -22.0 Q6.15 -23.9 4.5 -25.5 M15.95 28.05 L15.25 25.05 14.6 21.95 Q13.5 16.6 13.6 11.0 13.65 8.6 13.2 6.45 L13.05 4.5 Q13.35 -3.1 12.2 -10.2 M15.95 28.05 Q16.65 31.1 17.5 34.0" fill="none" stroke="#454545" stroke-linecap="round" stroke-linejoin="round" stroke-width="2.0"/>
      <path d="M12.0 -38.5 Q9.4 -35.75 4.9 -36.2 0.6 -36.7 -3.55 -35.4 -10.75 -33.35 -15.9 -26.35" fill="none" stroke="#454545" stroke-linecap="round" stroke-linejoin="round" stroke-width="2.0"/>
      <path d="M13.9 -38.55 Q8.75 -41.95 2.5 -41.8 -7.2 -41.2 -16.15 -37.15 -31.55 -30.3 -36.75 -13.2 -42.0 3.9 -39.85 19.65 -37.7 35.4 -37.2 49.9 -36.7 64.4 -40.1 78.3 L-17.0 73.85 -15.3 71.75 -14.75 64.4 Q-20.7 63.95 -22.85 57.75 -28.55 41.4 -32.95 24.55 -33.85 21.15 -33.45 17.85 -32.8 12.8 -32.75 7.6 -32.7 4.7 -31.35 -4.05 -30.05 -12.8 -26.0 -21.05 L-15.9 -26.35 M13.9 -38.55 Q33.25 -35.45 38.95 -15.15 44.6 5.1 45.05 18.5 45.5 31.9 46.55 44.4 47.6 56.85 51.8 67.5 55.95 78.1 62.45 86.1 L63.5 87.55 61.25 86.9 54.2 82.25 62.0 96.05 Q56.05 94.75 51.45 90.55 L49.95 88.9 48.5 87.05 52.0 105.55 Q46.1 101.85 42.05 96.1 L38.5 90.55 38.7 104.25 Q32.9 98.75 29.4 91.55 27.5 87.6 26.35 83.15 L24.45 94.15 23.95 95.75 22.95 94.8 Q14.3 86.6 14.55 64.0 14.75 43.15 15.95 28.05 L16.15 25.5 Q17.55 9.6 15.1 0.45 L12.2 -10.2" fill="none" stroke="#000000" stroke-linecap="round" stroke-linejoin="round" stroke-width="2.0"/>
      <path d="M-3.0 -39.5 Q-1.2 -41.55 0.95 -39.7 L2.25 -38.5 M-0.25 -34.5 L0.0 -34.5 Q5.05 -34.65 9.75 -32.75 L10.5 -32.5 M16.0 -36.5 L15.95 -37.0 15.75 -37.5 Q18.15 -36.25 20.05 -34.3 L21.75 -32.25 M9.75 -35.75 L10.2 -35.8 13.0 -34.75 Q17.15 -32.75 19.25 -28.75 M29.1 1.5 L29.1 2.3 Q30.1 10.1 30.4 18.0 30.75 26.8 30.0 35.5 29.75 38.25 29.8 41.0 30.05 50.8 31.95 60.5 32.5 63.5 33.35 66.4 35.95 75.1 39.7 83.4 L42.0 89.15 Q43.05 92.3 45.5 93.5 M53.0 82.0 Q48.3 74.25 44.9 65.55 41.55 57.05 41.25 48.0 40.9 38.7 41.35 29.5 L41.75 20.5 Q42.0 15.95 41.05 11.5 L39.5 4.0 M50.0 85.5 Q50.3 86.55 49.8 86.15 48.75 85.25 48.0 84.0 43.45 76.15 40.3 67.55 37.15 58.85 36.75 49.5 L36.5 39.5 36.5 22.0 Q36.5 12.25 35.9 2.55 35.75 0.0 35.0 -2.5 M24.5 78.5 Q20.95 69.4 21.3 59.5 L21.4 48.5 Q21.25 38.95 22.7 29.45 L23.45 22.0 Q23.9 13.9 25.5 6.0 M22.0 90.5 Q18.85 83.8 16.7 76.95 16.0 74.6 16.05 72.0 L16.35 64.0 16.7 58.5 16.8 57.0 17.05 52.5 Q17.05 49.2 17.3 46.0 L17.65 40.5 Q17.85 37.2 18.3 33.95 18.7 30.7 19.45 27.5 21.1 19.9 20.5 12.0 M35.5 97.5 L35.0 96.0 30.45 83.35 28.75 78.05 Q26.3 68.95 24.8 59.55 23.55 51.6 24.2 43.5 L24.85 35.5 Q25.25 30.25 25.9 25.05 26.25 22.25 27.0 19.5 M46.0 83.5 L46.0 84.5 M-29.5 -25.25 L-29.0 -26.25 Q-27.75 -27.9 -26.1 -29.15 L-22.75 -32.05 Q-20.15 -34.5 -16.8 -35.6 L-14.25 -36.45 Q-11.75 -37.35 -9.0 -37.45 L-6.0 -37.7 -3.5 -38.0 M-18.25 -32.0 Q-17.35 -33.75 -15.5 -34.75 -13.6 -35.75 -11.45 -35.25 L-8.0 -34.75 M-9.25 -28.75 Q-9.75 -29.2 -8.95 -29.65 -4.95 -31.75 -0.5 -31.55 3.4 -31.35 7.0 -30.0 M-20.0 -26.75 L-20.75 -26.9 Q-23.45 -26.9 -25.4 -25.1 L-27.5 -23.0 M-37.5 74.75 Q-37.05 74.7 -37.2 74.0 L-37.15 72.2 -36.8 70.0 -36.55 60.5 -36.3 50.75 -36.15 47.0 -36.1 45.0 -36.3 35.75 -36.4 33.75 Q-36.5 29.25 -36.9 24.75 -37.25 20.0 -37.85 15.25 L-38.05 13.0 -38.2 11.5 Q-38.7 7.05 -38.15 2.5 L-37.25 -3.25 M-34.0 76.0 Q-33.95 73.9 -33.3 71.9 -32.75 70.15 -32.65 68.25 L-32.45 62.5 -32.45 56.5 -32.65 51.25 -32.7 46.25 Q-32.6 42.0 -32.95 37.75 L-33.3 34.0 -33.75 30.25 -34.25 26.25 M-30.0 70.5 L-29.7 69.0 -29.45 63.75 -29.35 58.0 -29.45 51.0 -29.6 45.75 Q-29.6 44.9 -29.75 44.0 M-18.0 69.0 L-17.7 68.9 -17.5 68.0 M-26.5 69.0 L-26.0 66.7 Q-25.6 64.15 -25.5 61.5 -25.35 56.55 -26.35 51.7 L-26.5 50.5 M-21.25 70.25 Q-20.4 67.35 -20.75 64.25 L-20.75 64.0" fill="none" stroke="#392e26" stroke-linecap="round" stroke-linejoin="round" stroke-width="1.5"/>
      <path d="M19.0 6.5 L18.25 2.55 16.5 -3.75 16.45 -4.0 16.25 -4.5 16.0 -5.25 16.2 -4.75 16.45 -4.0" fill="none" stroke="#534337" stroke-linecap="round" stroke-linejoin="round" stroke-width="1.5"/>
      <path d="M17.35 -7.3 L17.4 -7.0 Q17.55 -5.45 18.05 -4.0 L19.75 1.75 M25.75 2.5 L25.0 -2.7 23.55 -8.25 23.4 -8.65 23.25 -9.1 M26.75 -7.5 Q28.2 -4.0 28.9 -0.25 L29.1 1.5 M38.0 -11.25 L38.05 -11.0 39.2 -7.2 40.0 -2.75 M33.75 -9.5 L34.05 -9.2 35.25 -5.5 Q36.0 -2.65 36.0 0.25 M31.5 -9.0 L31.7 -8.6 32.55 -6.2 33.75 -0.25 M-35.0 2.5 Q-35.85 -0.9 -34.0 -4.5 M-38.0 -1.0 L-38.9 1.05 Q-38.85 -4.7 -35.5 -10.0" fill="none" stroke="#8d725f" stroke-linecap="round" stroke-linejoin="round" stroke-width="1.5"/>
    </g>
    </g>
  </g>
  <defs>
    <radialGradient cx="0" cy="0" gradientTransform="matrix(1.0, 0.0, 0.0, 1.0, 0.0, 0.0)" gradientUnits="userSpaceOnUse" id="gradient0" r="819.2" spreadMethod="pad">
      <stop offset="0.0" stop-color="#000000"/>
      <stop offset="0.5372549019607843" stop-color="#303030"/>
      <stop offset="1.0" stop-color="#000000"/>
    </radialGradient>
    <radialGradient cx="0" cy="0" gradientTransform="matrix(-3.0E-4, 0.0644, -0.1275, -6.0E-4, 1.0, -30.5)" gradientUnits="userSpaceOnUse" id="gradient1" r="819.2" spreadMethod="pad">
      <stop offset="0.0" stop-color="#000000"/>
      <stop offset="0.45098039215686275" stop-color="#4b4b4b"/>
      <stop offset="0.5372549019607843" stop-color="#5a5a5a"/>
      <stop offset="0.6549019607843137" stop-color="#404040"/>
      <stop offset="1.0" stop-color="#000000"/>
    </radialGradient>
  </defs>
</svg>