<svg xmlns:xlink="http://www.w3.org/1999/xlink" xmlns="http://www.w3.org/2000/svg" height="264.15px" width="342.25px">
  <g transform="matrix(1.0, 0.0, 0.0, 1.0, 243.25, 83.7)">
    <g data-characterId="1143" height="133.6" transform="matrix(1.0, 0.0, 0.0, 1.0, -46.55, -45.65)" width="97.95" xlink:href="#shape0"><g id="shape0" transform="matrix(1.0, 0.0, 0.0, 1.0, 46.55, 45.65)">
      <path d="M25.85 -32.5 L33.05 -25.6 25.85 -32.5 M6.1 -43.9 Q7.95 -43.1 8.95 -41.3 L9.5 -40.25 Q11.45 -41.15 13.6 -40.6 L20.9 -39.05 Q25.95 -38.0 29.6 -34.5 27.55 -35.25 25.3 -34.5 L36.8 -24.25 Q38.45 -22.75 39.75 -20.9 L44.6 -13.55 46.05 -11.9 Q46.8 -11.2 47.75 -10.65 47.2 -10.05 46.25 -10.3 L43.4 -11.2 Q48.9 -6.45 49.9 0.9 L50.5 5.95 50.1 6.0 44.55 1.45 Q45.35 7.25 44.95 13.15 L44.6 18.7 43.75 17.8 44.4 19.2 44.25 20.25 Q44.3 21.1 44.7 21.9 L45.7 23.3 41.4 25.45 42.8 27.85 39.1 27.9 40.35 29.3 41.35 30.7 41.75 31.8 41.75 32.75 38.25 33.1 41.4 37.15 37.65 37.15 37.85 38.25 37.85 40.35 37.55 41.6 35.7 41.55 32.8 46.35 30.75 43.75 31.15 50.1 Q30.7 50.4 30.2 50.65 L29.9 48.9 29.65 50.4 29.3 51.8 28.9 53.25 27.65 55.7 27.2 55.75 26.75 55.7 26.4 55.45 26.0 55.1 25.6 54.7 25.45 56.05 25.2 57.15 24.65 58.2 23.95 59.25 23.65 59.55 22.35 59.7 21.25 58.4 20.35 60.7 19.35 62.85 15.9 68.9 14.95 70.15 14.55 69.65 14.2 69.1 13.85 67.8 13.45 62.1 12.65 63.6 10.75 66.75 8.7 69.75 Q4.65 75.15 0.25 80.0 L-0.6 72.5 -0.95 73.7 -1.5 74.65 -12.1 87.45 -14.7 77.1 -15.4 79.1 Q-16.25 81.85 -16.05 84.85 L-17.45 85.0 -19.0 83.0 -21.75 78.65 Q-23.65 75.4 -23.6 71.65 L-26.8 79.0 -27.3 79.0 Q-27.1 75.05 -28.1 71.3 L-30.1 64.5 -31.4 60.45 -32.9 63.2 -33.45 64.65 -33.7 66.2 -34.25 63.95 Q-34.65 61.65 -34.55 59.35 L-33.9 50.55 -33.1 44.05 -34.35 43.35 -32.2 39.5 Q-33.05 36.3 -33.4 33.15 -33.8 29.95 -33.15 26.75 L-30.05 34.75 -29.35 34.55 Q-26.45 32.7 -23.2 32.3 -20.4 31.85 -18.7 33.95 L-17.85 32.5 -16.85 33.3 -15.0 32.5 -14.4 32.8 Q-8.65 31.3 -3.25 34.0 0.45 35.9 3.45 38.55 L3.95 37.65 9.25 41.4 11.85 37.25 14.2 38.95 16.1 40.0 18.7 40.1 19.5 35.5 24.05 35.85 Q25.1 36.3 25.7 35.15 26.05 34.6 26.05 33.95 L25.85 30.5 27.0 31.3 27.6 31.55 28.2 31.65 29.9 31.65 27.15 27.1 30.75 27.35 29.9 25.25 30.65 25.55 31.25 25.7 33.8 24.9 35.65 23.4 Q35.85 19.65 37.2 16.15 38.2 13.65 37.2 11.0 L35.95 15.85 30.55 6.9 28.95 7.1 28.6 4.35 27.45 6.25 27.0 5.2 Q24.75 9.95 25.6 14.95 22.65 11.85 21.5 7.85 20.65 4.75 20.7 1.45 20.0 4.95 18.5 7.9 17.8 9.2 16.6 10.0 16.8 6.55 16.05 3.2 15.25 -0.5 12.95 -3.45 L9.65 6.0 8.1 5.45 Q4.4 2.35 1.4 -1.6 -1.0 -4.75 -2.3 -8.6 -4.95 -4.85 -8.0 -1.5 -10.8 1.5 -14.4 3.45 L-13.65 -3.15 Q-13.55 -4.3 -13.85 -5.5 L-15.0 -10.05 -15.5 -8.9 -19.4 -6.0 -23.75 -2.6 Q-24.5 -2.05 -25.35 -1.7 L-23.05 -10.35 -26.65 -6.75 Q-28.7 -4.5 -31.55 -3.45 -32.65 -2.9 -33.8 -2.5 L-33.55 2.15 -35.3 4.25 -36.95 4.45 Q-37.8 1.6 -36.6 -0.75 L-36.05 -1.6 -37.1 -1.25 -45.45 1.45 -37.4 -8.35 -39.65 -7.4 -41.8 -6.25 -46.05 -3.7 -45.45 -4.5 -45.05 -5.35 Q-42.6 -12.5 -36.9 -17.55 L-34.2 -20.05 -39.15 -18.7 -37.05 -20.65 -35.05 -22.65 -24.65 -33.85 Q-19.1 -39.8 -11.4 -42.25 L-6.6 -43.65 Q-2.35 -44.7 1.95 -43.45 L5.15 -42.55 6.1 -43.9 M41.1 -14.65 L41.7 -12.95 41.1 -14.65 M27.9 -11.2 L30.5 -5.15 27.9 -11.2 M33.65 -3.15 L33.4 -5.45 Q32.95 -7.6 31.9 -9.55 29.8 -13.35 27.3 -16.95 29.8 -13.35 31.9 -9.55 32.95 -7.6 33.4 -5.45 L33.65 -3.15 M33.95 -11.8 L35.95 -8.05 33.95 -11.8 M27.0 -2.3 L26.1 -7.25 Q24.95 -11.9 21.85 -15.8 24.95 -11.9 26.1 -7.25 L27.0 -2.3 M20.7 -2.3 L21.0 -3.45 Q21.4 -9.75 16.65 -13.8 21.4 -9.75 21.0 -3.45 L20.7 -2.3 M23.0 -9.75 L24.45 -6.3 23.0 -9.75 M33.35 -16.65 L33.5 -17.1 34.4 -15.6 Q37.0 -10.25 37.95 -4.3 37.0 -10.25 34.4 -15.6 L33.5 -17.1 33.35 -16.65 M34.2 -20.4 L37.8 -15.75 Q40.85 -11.7 41.1 -6.6 40.85 -11.7 37.8 -15.75 L34.2 -20.4 M4.3 0.3 L4.55 -0.75 4.3 -1.65 Q1.8 -6.45 2.0 -11.8 1.8 -6.45 4.3 -1.65 L4.55 -0.75 4.3 0.3 M9.2 -1.7 Q10.95 -3.75 11.2 -6.2 11.5 -9.25 10.9 -12.35 11.5 -9.25 11.2 -6.2 10.95 -3.75 9.2 -1.7 M-23.05 -18.7 Q-26.85 -16.25 -30.15 -13.25 -34.5 -9.4 -36.3 -3.9 L-37.1 -1.25 -36.3 -3.9 Q-34.5 -9.4 -30.15 -13.25 -26.85 -16.25 -23.05 -18.7 M39.4 12.65 L43.75 17.8 39.4 12.65 M23.55 8.65 Q23.95 8.65 23.9 8.25 23.5 5.25 24.45 2.3 23.5 5.25 23.9 8.25 23.95 8.65 23.55 8.65 M36.25 5.2 L36.5 5.25 Q38.45 8.1 39.4 11.5 38.45 8.1 36.5 5.25 L36.25 5.2 M28.45 3.75 L28.6 4.35 28.45 3.75 M29.9 2.6 L33.05 8.35 29.9 2.6 M-30.5 -23.3 L-24.6 -29.15 -16.15 -36.8 -24.6 -29.15 -30.5 -23.3 M-10.95 -4.9 L-9.95 -5.9 Q-5.7 -10.35 -5.2 -16.4 -5.7 -10.35 -9.95 -5.9 L-10.95 -4.9 M-19.85 -7.75 L-17.55 -11.7 Q-15.05 -16.05 -12.95 -20.7 -15.05 -16.05 -17.55 -11.7 L-19.85 -7.75 M-41.45 -8.9 Q-39.35 -12.5 -36.1 -15.35 L-31.7 -19.3 Q-27.9 -22.6 -24.6 -26.15 L-18.45 -33.05 -24.6 -26.15 Q-27.9 -22.6 -31.7 -19.3 L-36.1 -15.35 Q-39.35 -12.5 -41.45 -8.9 M3.7 69.05 L4.95 64.2 Q6.05 59.6 6.6 54.7 7.05 50.7 6.6 46.6 7.05 50.7 6.6 54.7 6.05 59.6 4.95 64.2 L3.7 69.05 M12.05 60.7 L14.35 50.95 12.05 60.7 M16.95 54.1 L17.85 52.5 Q20.7 47.35 21.0 41.45 20.7 47.35 17.85 52.5 L16.95 54.1 M39.1 25.6 L39.1 22.15 39.1 25.6 M23.85 50.65 Q25.55 48.6 26.35 45.9 28.0 40.4 28.75 34.55 28.0 40.4 26.35 45.9 25.55 48.6 23.85 50.65 M31.9 38.85 L32.45 37.8 Q34.5 33.6 34.5 28.8 34.5 33.6 32.45 37.8 L31.9 38.85 M2.0 40.6 L2.85 42.6 2.0 40.6 M-29.65 36.25 L-30.05 34.75 -29.65 36.25 M-15.6 37.45 Q-21.05 37.95 -23.8 42.6 -24.8 44.3 -25.35 46.35 L-22.75 44.6 Q-24.85 49.15 -23.6 53.8 L-19.85 49.5 Q-19.15 52.8 -17.1 54.9 L-15.25 49.2 -12.1 53.55 -11.55 51.5 Q-11.15 52.6 -10.4 53.2 L-9.6 53.7 -8.65 54.1 -7.5 50.05 -2.9 54.4 Q-1.6 49.4 -2.9 44.3 L-1.55 45.95 -0.7 46.5 0.25 46.9 Q0.2 42.7 -3.3 40.0 -4.9 38.75 -6.85 38.05 -9.35 37.2 -11.8 37.65 L-12.05 38.0 -14.85 37.0 -15.6 37.45 M-26.5 70.5 L-28.5 50.95 -26.5 70.5 M-18.45 80.85 L-20.15 75.5 -21.2 69.9 -21.9 60.45 -21.2 69.9 -20.15 75.5 -18.45 80.85 M-16.7 73.4 L-16.7 58.15 -16.7 73.4 M-11.55 80.0 L-11.0 78.45 Q-10.1 74.1 -9.85 69.65 -9.65 65.2 -10.1 60.45 -9.65 65.2 -9.85 69.65 -10.1 74.1 -11.0 78.45 L-11.55 80.0 M-6.35 74.25 Q-4.6 71.95 -3.65 68.95 L-1.9 62.75 Q-0.8 58.55 -0.9 54.4 -0.8 58.55 -1.9 62.75 L-3.65 68.95 Q-4.6 71.95 -6.35 74.25 M-15.0 35.7 L-14.4 34.85 -15.0 35.7 M-10.95 36.0 L-10.4 34.25 -10.95 36.0 M-5.2 35.7 L-3.7 37.0 Q-1.0 39.7 0.55 43.15 -1.0 39.7 -3.7 37.0 L-5.2 35.7 M-26.5 40.3 L-24.2 36.25 -26.5 40.3 M-24.2 40.0 L-20.75 35.7 -24.2 40.0 M-32.25 57.0 L-29.1 41.45 -32.25 57.0" fill="url(#gradient0)" fill-rule="evenodd" stroke="none"/>
      <path d="M6.1 -43.9 Q7.95 -43.1 8.95 -41.3 L9.5 -40.25 Q11.45 -41.15 13.6 -40.6 L20.9 -39.05 Q25.95 -38.0 29.6 -34.5 27.55 -35.25 25.3 -34.5 L36.8 -24.25 Q38.45 -22.75 39.75 -20.9 L44.6 -13.55 46.05 -11.9 Q46.8 -11.2 47.75 -10.65 47.2 -10.05 46.25 -10.3 L43.4 -11.2 Q48.9 -6.45 49.9 0.9 L50.5 5.95 50.5 6.55 50.9 8.95 M6.1 -43.9 L3.7 -45.15 5.15 -42.55 1.95 -43.45 Q-2.35 -44.7 -6.6 -43.65 L-11.4 -42.25 Q-19.1 -39.8 -24.65 -33.85 L-35.05 -22.65 -37.05 -20.65 -39.15 -18.7 -34.2 -20.05 -36.9 -17.55 Q-42.6 -12.5 -45.05 -5.35 L-45.45 -4.5 -46.05 -3.7 -41.8 -6.25 -39.65 -7.4 -37.4 -8.35 -45.45 1.45 -37.1 -1.25 -36.05 -1.6 -36.6 -0.75 Q-37.8 1.6 -36.95 4.45 L-35.75 8.7 -35.9 7.6 Q-36.05 5.8 -35.3 4.25 L-33.55 2.15 -33.8 -2.5 Q-32.65 -2.9 -31.55 -3.45 -28.7 -4.5 -26.65 -6.75 L-23.05 -10.35 -25.35 -1.7 Q-24.5 -2.05 -23.75 -2.6 L-19.4 -6.0 -15.5 -8.9 -15.0 -10.05 -13.85 -5.5 Q-13.55 -4.3 -13.65 -3.15 L-14.4 3.45 Q-10.8 1.5 -8.0 -1.5 -4.95 -4.85 -2.3 -8.6 -1.0 -4.75 1.4 -1.6 4.4 2.35 8.1 5.45 L9.45 6.45 9.65 6.0 12.95 -3.45 Q15.25 -0.5 16.05 3.2 16.8 6.55 16.6 10.0 17.8 9.2 18.5 7.9 20.0 4.95 20.7 1.45 20.65 4.75 21.5 7.85 22.65 11.85 25.6 14.95 24.75 9.95 27.0 5.2 L27.45 6.25 28.6 4.35 28.45 3.75 M50.1 6.0 L44.55 1.45 Q45.35 7.25 44.95 13.15 L44.6 18.7 44.55 19.85 44.4 19.2 44.25 20.25 Q44.3 21.1 44.7 21.9 L45.7 23.3 41.4 25.45 42.8 27.85 39.1 27.9 40.35 29.3 41.35 30.7 41.75 31.8 41.75 32.75 38.25 33.1 41.4 37.15 37.65 37.15 37.85 38.25 37.85 40.35 37.55 41.6 35.7 41.55 32.8 46.35 30.75 43.75 31.15 50.1 Q30.7 50.4 30.2 50.65 L29.9 48.9 29.65 50.4 29.3 51.8 28.9 53.25 27.65 55.7 27.2 55.75 26.75 55.7 26.4 55.45 26.0 55.1 25.6 54.7 25.45 56.05 25.2 57.15 24.65 58.2 23.95 59.25 23.65 59.55 22.35 59.7 21.25 58.4 20.35 60.7 19.35 62.85 15.9 68.9 14.95 70.15 14.55 69.65 14.2 69.1 13.85 67.8 13.45 62.1 12.65 63.6 10.75 66.75 8.7 69.75 Q4.65 75.15 0.25 80.0 L-0.6 72.5 -0.95 73.7 -1.5 74.65 -12.1 87.45 -14.7 77.1 -15.4 79.1 Q-16.25 81.85 -16.05 84.85 L-15.85 86.3 -17.45 85.0 -19.0 83.0 -21.75 78.65 Q-23.65 75.4 -23.6 71.65 L-26.8 79.0 -27.0 79.1 -27.3 79.0 Q-27.1 75.05 -28.1 71.3 L-30.1 64.5 -31.4 60.45 -32.9 63.2 -33.45 64.65 -33.7 66.2 -34.25 63.95 Q-34.65 61.65 -34.55 59.35 L-33.9 50.55 -33.1 44.05 -35.1 44.6 -34.35 43.35 -32.2 39.5 Q-33.05 36.3 -33.4 33.15 -33.8 29.95 -33.15 26.75 L-30.05 34.75 -29.65 36.25 M-29.35 34.55 Q-26.45 32.7 -23.2 32.3 -20.4 31.85 -18.7 33.95 L-17.85 32.5 -16.85 33.3 -15.0 32.5 M-14.4 32.8 Q-8.65 31.3 -3.25 34.0 0.45 35.9 3.45 38.55 L3.95 37.65 9.25 41.4 11.85 37.25 14.2 38.95 16.1 40.0 18.7 40.1 19.5 35.5 24.05 35.85 Q25.1 36.3 25.7 35.15 26.05 34.6 26.05 33.95 L25.85 30.5 27.0 31.3 27.6 31.55 28.2 31.65 29.9 31.65 27.15 27.1 30.75 27.35 29.9 25.25 30.65 25.55 31.25 25.7 33.8 24.9 35.65 23.4 Q35.85 19.65 37.2 16.15 38.2 13.65 37.2 11.0 L35.95 15.85 30.55 6.9 29.35 10.1 28.95 7.1 28.6 4.35 M50.1 6.0 L50.5 6.55 M44.6 18.7 L44.4 19.2 43.75 17.8 39.4 12.65 M-15.6 37.45 Q-21.05 37.95 -23.8 42.6 -24.8 44.3 -25.35 46.35 L-22.75 44.6 Q-24.85 49.15 -23.6 53.8 L-19.85 49.5 Q-19.15 52.8 -17.1 54.9 L-15.25 49.2 -12.1 53.55 -11.55 51.5 Q-11.15 52.6 -10.4 53.2 L-9.6 53.7 -8.65 54.1 -7.5 50.05 -2.9 54.4 Q-1.6 49.4 -2.9 44.3 L-1.55 45.95 -0.7 46.5 0.25 46.9 Q0.2 42.7 -3.3 40.0 -4.9 38.75 -6.85 38.05 -9.35 37.2 -11.8 37.65 L-12.05 38.0 -14.85 37.0 -15.6 37.45 -15.0 37.7" fill="none" stroke="#000000" stroke-linecap="round" stroke-linejoin="round" stroke-width="2.0"/>
      <path d="M33.05 -25.6 L25.85 -32.5 M-37.1 -1.25 L-36.3 -3.9 Q-34.5 -9.4 -30.15 -13.25 -26.85 -16.25 -23.05 -18.7 M10.9 -12.35 Q11.5 -9.25 11.2 -6.2 10.95 -3.75 9.2 -1.7 M2.0 -11.8 Q1.8 -6.45 4.3 -1.65 L4.55 -0.75 4.3 0.3 M41.1 -6.6 Q40.85 -11.7 37.8 -15.75 L34.2 -20.4 M37.95 -4.3 Q37.0 -10.25 34.4 -15.6 L33.5 -17.1 33.35 -16.65 M24.45 -6.3 L23.0 -9.75 M16.65 -13.8 Q21.4 -9.75 21.0 -3.45 L20.7 -2.3 M21.85 -15.8 Q24.95 -11.9 26.1 -7.25 L27.0 -2.3 M35.95 -8.05 L33.95 -11.8 M27.3 -16.95 Q29.8 -13.35 31.9 -9.55 32.95 -7.6 33.4 -5.45 L33.65 -3.15 M30.5 -5.15 L27.9 -11.2 M41.7 -12.95 L41.1 -14.65 M39.4 11.5 Q38.45 8.1 36.5 5.25 L36.25 5.2 M24.45 2.3 Q23.5 5.25 23.9 8.25 23.95 8.65 23.55 8.65 M33.05 8.35 L29.9 2.6 M2.85 42.6 L2.0 40.6 M34.5 28.8 Q34.5 33.6 32.45 37.8 L31.9 38.85 M28.75 34.55 Q28.0 40.4 26.35 45.9 25.55 48.6 23.85 50.65 M39.1 22.15 L39.1 25.6 M21.0 41.45 Q20.7 47.35 17.85 52.5 L16.95 54.1 M14.35 50.95 L12.05 60.7 M6.6 46.6 Q7.05 50.7 6.6 54.7 6.05 59.6 4.95 64.2 L3.7 69.05 M-18.45 -33.05 L-24.6 -26.15 Q-27.9 -22.6 -31.7 -19.3 L-36.1 -15.35 Q-39.35 -12.5 -41.45 -8.9 M-12.95 -20.7 Q-15.05 -16.05 -17.55 -11.7 L-19.85 -7.75 M-5.2 -16.4 Q-5.7 -10.35 -9.95 -5.9 L-10.95 -4.9 M-16.15 -36.8 L-24.6 -29.15 -30.5 -23.3 M-20.75 35.7 L-24.2 40.0 M-24.2 36.25 L-26.5 40.3 M0.55 43.15 Q-1.0 39.7 -3.7 37.0 L-5.2 35.7 M-10.4 34.25 L-10.95 36.0 M-14.4 34.85 L-15.0 35.7 M-0.9 54.4 Q-0.8 58.55 -1.9 62.75 L-3.65 68.95 Q-4.6 71.95 -6.35 74.25 M-10.1 60.45 Q-9.65 65.2 -9.85 69.65 -10.1 74.1 -11.0 78.45 L-11.55 80.0 M-16.7 58.15 L-16.7 73.4 M-21.9 60.45 L-21.2 69.9 -20.15 75.5 -18.45 80.85 M-28.5 50.95 L-26.5 70.5 M-29.1 41.45 L-32.25 57.0" fill="none" stroke="#a06752" stroke-linecap="round" stroke-linejoin="round" stroke-width="1.5"/>
    </g>
    </g>
  </g>
  <defs>
    <radialGradient cx="0" cy="0" gradientTransform="matrix(0.0028, 0.1085, -0.1668, 0.0043, 1.0, -31.5)" gradientUnits="userSpaceOnUse" id="gradient0" r="819.2" spreadMethod="pad">
      <stop offset="0.0" stop-color="#3c1e00"/>
      <stop offset="0.3176470588235294" stop-color="#7c543f"/>
      <stop offset="1.0" stop-color="#482400"/>
    </radialGradient>
  </defs>
</svg>