<svg xmlns:xlink="http://www.w3.org/1999/xlink" xmlns="http://www.w3.org/2000/svg" height="119.1px" width="213.05px">
  <g transform="matrix(1.0, 0.0, 0.0, 1.0, 94.65, 81.2)">
    <g data-characterId="918" height="56.9" transform="matrix(1.0, 0.0, 0.0, 1.0, -63.1, -45.75)" width="145.0" xlink:href="#shape0"><g id="shape0" transform="matrix(1.0, 0.0, 0.0, 1.0, 63.1, 45.75)">
      <path d="M69.4 -10.95 Q68.2 -9.5 66.85 -8.75 65.85 -8.15 64.75 -8.0 62.8 -7.45 61.55 -9.3 L61.55 -10.05 65.95 -14.45 69.1 -16.75 Q72.25 -18.8 75.65 -20.45 78.45 -21.95 81.4 -23.2 L69.4 -10.95 M59.7 -18.55 Q58.7 -14.7 56.4 -11.4 L53.7 -7.2 Q52.55 -5.2 50.5 -4.7 L48.5 -4.05 Q46.0 -3.45 43.9 -5.4 L43.9 -6.1 48.2 -9.55 Q53.85 -14.1 58.5 -19.6 L58.55 -19.65 60.75 -22.5 59.7 -18.55 M54.55 -22.55 L52.75 -19.7 Q52.25 -18.8 51.1 -18.65 48.2 -18.55 45.6 -20.15 L49.5 -25.05 53.4 -31.3 55.65 -35.1 56.5 -36.8 56.85 -37.4 Q57.7 -39.1 58.1 -41.05 L58.0 -36.05 Q57.85 -28.75 54.55 -22.55 M-46.4 -17.1 Q-46.85 -23.5 -49.3 -29.25 -48.45 -28.95 -48.1 -28.3 -45.5 -23.5 -44.0 -18.4 L-41.5 -8.65 Q-41.25 -7.55 -41.9 -6.95 L-46.35 -6.85 -46.05 -7.2 -46.4 -17.1 M-40.0 -20.4 Q-42.15 -26.5 -43.0 -32.9 -43.4 -35.25 -43.25 -37.6 -43.0 -41.55 -42.15 -45.25 -42.25 -41.6 -41.65 -38.1 -41.25 -35.45 -40.5 -32.85 -38.8 -27.4 -36.35 -22.05 L-35.5 -19.9 -39.6 -20.05 -40.0 -20.4 M-53.8 -13.4 Q-54.4 -16.75 -55.8 -19.35 -58.85 -24.9 -61.05 -31.1 L-61.85 -33.5 Q-56.05 -29.45 -53.0 -22.45 L-50.15 -15.5 -53.8 -13.4" fill="#003333" fill-rule="evenodd" stroke="none"/>
      <path d="M29.95 -23.75 L27.15 -19.3 26.3 -17.5 26.05 -16.7 26.0 -16.6 Q24.75 -11.75 25.85 -7.05 L17.3 -4.2 17.15 -4.1 Q14.75 -3.05 12.25 -2.25 8.55 -0.8 4.65 -0.4 L1.7 0.1 -8.45 0.65 -10.85 0.25 Q-16.45 0.15 -21.45 -3.25 L-26.1 -7.2 -27.1 -7.6 Q-26.8 -9.55 -27.15 -11.8 -28.35 -19.15 -25.5 -26.1 L-25.35 -26.05 -21.65 -23.95 Q-21.8 -14.25 -6.0 -13.45 3.75 -13.35 13.5 -16.1 22.4 -18.75 29.95 -23.75 M22.95 -15.0 L26.0 -16.6 22.95 -15.0 M19.95 -8.65 L23.8 -10.7 19.95 -8.65 M-26.9 -16.8 L-24.8 -14.65 -26.9 -16.8 M-25.45 -11.5 L-24.25 -10.05 Q-22.2 -7.6 -19.5 -7.2 -22.2 -7.6 -24.25 -10.05 L-25.45 -11.5" fill="#4a4129" fill-rule="evenodd" stroke="none"/>
      <path d="M35.3 -31.8 L36.0 -32.75 37.4 -32.6 Q38.35 -31.65 38.75 -30.55 39.0 -29.75 39.6 -29.1 40.2 -28.65 41.0 -28.25 L49.5 -25.05 45.6 -20.15 Q48.2 -18.55 51.1 -18.65 52.25 -18.8 52.75 -19.7 L54.55 -22.55 58.55 -19.65 58.5 -19.6 Q53.85 -14.1 48.2 -9.55 L43.9 -6.1 43.9 -5.4 Q46.0 -3.45 48.5 -4.05 L50.5 -4.7 Q52.55 -5.2 53.7 -7.2 L56.4 -11.4 Q58.7 -14.7 59.7 -18.55 L65.95 -14.45 61.55 -10.05 61.55 -9.3 Q62.8 -7.45 64.75 -8.0 65.85 -8.15 66.85 -8.75 68.2 -9.5 69.4 -10.95 72.95 -6.55 74.7 -0.95 75.75 2.15 76.1 5.55 L76.1 5.6 76.15 6.15 Q76.3 7.55 75.0 8.0 69.6 10.0 63.8 10.0 L50.3 9.45 49.6 9.3 49.5 9.3 49.3 9.25 48.7 9.2 Q41.8 8.0 35.95 4.35 32.6 2.05 29.7 -0.6 L28.85 -1.45 Q27.55 -2.7 26.8 -4.35 L25.85 -7.05 26.8 -4.35 Q27.55 -2.7 28.85 -1.45 L29.7 -0.6 28.9 0.25 24.35 9.8 14.75 9.35 Q17.6 4.35 17.3 -3.8 L17.3 -4.2 25.85 -7.05 Q24.75 -11.75 26.0 -16.6 L26.05 -16.7 26.3 -17.5 27.15 -19.3 29.95 -23.75 Q32.1 -25.85 32.95 -28.2 L33.75 -29.85 34.95 -31.05 35.3 -31.8 M-21.45 -3.25 L-16.15 9.45 -26.7 9.3 -29.55 -2.1 -31.6 -0.05 Q-36.35 4.05 -42.15 5.4 -47.9 6.9 -53.75 7.55 L-55.35 7.5 -55.85 7.45 -59.25 6.6 -60.75 5.7 -61.85 4.1 Q-63.25 0.7 -62.05 -3.15 -60.4 -8.35 -56.2 -11.75 L-53.8 -13.4 -50.15 -15.5 -46.4 -17.1 -46.05 -7.2 -46.35 -6.85 -41.9 -6.95 Q-41.25 -7.55 -41.5 -8.65 L-44.0 -18.4 -40.0 -20.4 -39.6 -20.05 -35.5 -19.9 -36.35 -22.05 Q-35.0 -22.6 -33.8 -23.5 L-30.65 -25.7 -28.95 -26.95 Q-27.05 -28.5 -25.15 -26.75 L-25.35 -26.05 -25.5 -26.1 Q-28.35 -19.15 -27.15 -11.8 -26.8 -9.55 -27.1 -7.6 L-26.1 -7.2 -21.45 -3.25 M38.3 -26.4 Q38.35 -25.2 37.55 -24.5 32.4 -20.05 30.25 -13.65 29.1 -10.15 29.95 -6.45 30.7 -3.4 32.95 -1.35 L34.4 -0.25 Q40.8 4.05 48.6 4.6 L54.05 4.7 61.85 5.85 Q68.75 6.95 75.4 5.65 68.75 6.95 61.85 5.85 L54.05 4.7 48.6 4.6 Q40.8 4.05 34.4 -0.25 L32.95 -1.35 Q30.7 -3.4 29.95 -6.45 29.1 -10.15 30.25 -13.65 32.4 -20.05 37.55 -24.5 38.35 -25.2 38.3 -26.4 M-27.1 -7.6 Q-27.55 -4.55 -29.55 -2.1 -27.55 -4.55 -27.1 -7.6 M-29.9 -24.3 Q-31.05 -22.0 -31.55 -19.15 -32.15 -15.7 -31.05 -12.4 -30.55 -10.85 -30.65 -9.3 -30.7 -7.9 -31.4 -6.8 L-33.85 -3.0 Q-35.65 -0.1 -38.65 0.6 L-40.95 1.0 -49.7 2.8 Q-54.05 3.45 -58.25 4.55 -54.05 3.45 -49.7 2.8 L-40.95 1.0 -38.65 0.6 Q-35.65 -0.1 -33.85 -3.0 L-31.4 -6.8 Q-30.7 -7.9 -30.65 -9.3 -30.55 -10.85 -31.05 -12.4 -32.15 -15.7 -31.55 -19.15 -31.05 -22.0 -29.9 -24.3" fill="#5d3e29" fill-rule="evenodd" stroke="none"/>
      <path d="M29.7 -0.6 Q32.6 2.05 35.95 4.35 41.8 8.0 48.7 9.2 L48.4 10.0 37.2 10.15 36.55 10.0 35.3 9.85 Q33.9 10.35 32.5 9.55 L32.2 10.0 24.35 9.8 28.9 0.25 29.7 -0.6 M17.3 -3.8 Q17.6 4.35 14.75 9.35 L6.25 9.05 1.75 9.35 -16.15 9.45 -21.45 -3.25 Q-16.45 0.15 -10.85 0.25 L-8.45 0.65 1.7 0.1 4.65 -0.4 Q8.55 -0.8 12.25 -2.25 14.75 -3.05 17.15 -4.1 L17.3 -3.8 M-53.75 7.55 Q-47.9 6.9 -42.15 5.4 -36.35 4.05 -31.6 -0.05 L-29.55 -2.1 -26.7 9.3 -32.15 8.55 Q-35.45 8.0 -37.5 8.55 -40.25 9.3 -42.9 10.65 -51.0 9.9 -54.1 8.3 L-53.75 7.55" fill="#5f5539" fill-rule="evenodd" stroke="none"/>
      <path d="M49.5 -25.05 L41.0 -28.25 Q40.2 -28.65 39.6 -29.1 39.0 -29.75 38.75 -30.55 38.35 -31.65 37.4 -32.6 L36.0 -32.75 35.3 -31.8 M34.95 -31.05 L33.75 -29.85 32.95 -28.2 Q32.1 -25.85 29.95 -23.75 L27.15 -19.3 26.3 -17.5 26.05 -16.7 26.0 -16.6 Q24.75 -11.75 25.85 -7.05 L26.8 -4.35 Q27.55 -2.7 28.85 -1.45 L29.7 -0.6 Q32.6 2.05 35.95 4.35 41.8 8.0 48.7 9.2 L49.3 9.25 49.5 9.3 49.6 9.3 50.3 9.45 63.8 10.0 Q69.6 10.0 75.0 8.0 76.3 7.55 76.15 6.15 L76.1 5.6 76.1 5.55 Q75.75 2.15 74.7 -0.95 72.95 -6.55 69.4 -10.95 68.2 -9.5 66.85 -8.75 65.85 -8.15 64.75 -8.0 62.8 -7.45 61.55 -9.3 M61.55 -10.05 L65.95 -14.45 59.7 -18.55 Q58.7 -14.7 56.4 -11.4 L53.7 -7.2 Q52.55 -5.2 50.5 -4.7 L48.5 -4.05 Q46.0 -3.45 43.9 -5.4 M43.9 -6.1 L48.2 -9.55 Q53.85 -14.1 58.5 -19.6 L58.55 -19.65 54.55 -22.55 52.75 -19.7 Q52.25 -18.8 51.1 -18.65 48.2 -18.55 45.6 -20.15 L49.5 -25.05 53.4 -31.3 55.65 -35.1 56.5 -36.8 56.85 -37.4 Q57.7 -39.1 58.1 -41.05 L58.0 -36.05 Q57.85 -28.75 54.55 -22.55 M17.15 -4.1 L17.3 -4.2 25.85 -7.05 M17.3 -4.2 L17.3 -3.8 Q17.6 4.35 14.75 9.35 L24.35 9.8 28.9 0.25 M17.15 -4.1 Q14.75 -3.05 12.25 -2.25 8.55 -0.8 4.65 -0.4 L1.7 0.1 -8.45 0.65 -10.85 0.25 Q-16.45 0.15 -21.45 -3.25 L-16.15 9.45 1.75 9.35 6.25 9.05 14.75 9.35 M26.0 -16.6 L22.95 -15.0 M75.4 5.65 Q68.75 6.95 61.85 5.85 L54.05 4.7 48.6 4.6 Q40.8 4.05 34.4 -0.25 L32.95 -1.35 Q30.7 -3.4 29.95 -6.45 29.1 -10.15 30.25 -13.65 32.4 -20.05 37.55 -24.5 38.35 -25.2 38.3 -26.4 M29.95 -23.75 Q22.4 -18.75 13.5 -16.1 3.75 -13.35 -6.0 -13.45 -21.8 -14.25 -21.65 -23.95 L-25.35 -26.05 -25.5 -26.1 Q-28.35 -19.15 -27.15 -11.8 -26.8 -9.55 -27.1 -7.6 L-26.1 -7.2 -21.45 -3.25 M23.8 -10.7 L19.95 -8.65 M65.95 -14.45 L69.1 -16.75 Q72.25 -18.8 75.65 -20.45 78.45 -21.95 81.4 -23.2 L69.4 -10.95 M58.55 -19.65 L60.75 -22.5 59.7 -18.55 M48.4 10.0 Q48.8 10.0 49.05 9.65 L49.6 9.3 M24.35 9.8 L32.2 10.0 32.5 9.55 Q33.9 10.35 35.3 9.85 L36.55 10.0 37.2 10.15 48.4 10.0 M-46.4 -17.1 Q-46.85 -23.5 -49.3 -29.25 -48.45 -28.95 -48.1 -28.3 -45.5 -23.5 -44.0 -18.4 L-40.0 -20.4 Q-42.15 -26.5 -43.0 -32.9 -43.4 -35.25 -43.25 -37.6 -43.0 -41.55 -42.15 -45.25 -42.25 -41.6 -41.65 -38.1 -41.25 -35.45 -40.5 -32.85 -38.8 -27.4 -36.35 -22.05 -35.0 -22.6 -33.8 -23.5 L-30.65 -25.7 -28.95 -26.95 Q-27.05 -28.5 -25.15 -26.75 M-50.15 -15.5 L-53.0 -22.45 Q-56.05 -29.45 -61.85 -33.5 L-61.05 -31.1 Q-58.85 -24.9 -55.8 -19.35 -54.4 -16.75 -53.8 -13.4 L-50.15 -15.5 -46.4 -17.1 -46.05 -7.2 M-46.35 -6.85 L-41.9 -6.95 Q-41.25 -7.55 -41.5 -8.65 L-44.0 -18.4 M-53.8 -13.4 L-56.2 -11.75 Q-60.4 -8.35 -62.05 -3.15 -63.25 0.7 -61.85 4.1 L-60.75 5.7 -59.25 6.6 -55.85 7.45 -55.35 7.5 -53.75 7.55 Q-47.9 6.9 -42.15 5.4 -36.35 4.05 -31.6 -0.05 L-29.55 -2.1 Q-27.55 -4.55 -27.1 -7.6 M-24.8 -14.65 L-26.9 -16.8 M-58.25 4.55 Q-54.05 3.45 -49.7 2.8 L-40.95 1.0 -38.65 0.6 Q-35.65 -0.1 -33.85 -3.0 L-31.4 -6.8 Q-30.7 -7.9 -30.65 -9.3 -30.55 -10.85 -31.05 -12.4 -32.15 -15.7 -31.55 -19.15 -31.05 -22.0 -29.9 -24.3 M-36.35 -22.05 L-35.5 -19.9 -39.6 -20.05 -40.0 -20.4 M-19.5 -7.2 Q-22.2 -7.6 -24.25 -10.05 L-25.45 -11.5 M-26.7 9.3 L-32.15 8.55 Q-35.45 8.0 -37.5 8.55 -40.25 9.3 -42.9 10.65 -51.0 9.9 -54.1 8.3 L-55.35 7.5 M-26.7 9.3 L-16.15 9.45 M-29.55 -2.1 L-26.7 9.3" fill="none" stroke="#000000" stroke-linecap="round" stroke-linejoin="round" stroke-width="2.0"/>
    </g>
  </g>
  </g>
  <defs>
    </defs>
</svg>