<svg xmlns:xlink="http://www.w3.org/1999/xlink" xmlns="http://www.w3.org/2000/svg" height="119.1px" width="213.05px">
  <g transform="matrix(1.0, 0.0, 0.0, 1.0, 94.65, 81.2)">
    <g data-characterId="888" height="52.75" transform="matrix(1.0, 0.0, 0.0, 1.0, -70.0, -35.3)" width="152.85" xlink:href="#shape0"><g id="shape0" transform="matrix(1.0, 0.0, 0.0, 1.0, 70.0, 35.3)">
      <path d="M35.15 -18.0 L35.35 -12.4 Q34.9 -11.6 34.25 -11.2 30.9 -8.9 27.0 -8.4 10.5 -6.0 -6.2 -5.3 L-13.6 -5.95 Q-17.15 -6.4 -20.6 -7.8 -24.4 -9.2 -26.7 -12.45 -29.15 -15.95 -28.6 -18.3 -29.15 -15.95 -26.7 -12.45 -24.4 -9.2 -20.6 -7.8 -17.15 -6.4 -13.6 -5.95 L-6.2 -5.3 Q10.5 -6.0 27.0 -8.4 30.9 -8.9 34.25 -11.2 L35.45 -11.3 35.95 -6.25 35.9 -6.25 36.25 -5.35 Q36.8 -3.95 37.8 -2.75 L38.35 -2.15 41.1 1.8 Q45.35 7.4 51.5 9.6 L20.95 9.6 Q10.55 13.0 -0.1 15.55 -11.0 18.2 -21.7 15.85 -33.05 13.45 -42.2 6.2 -35.25 0.4 -34.15 -8.45 -33.8 -11.3 -32.25 -13.9 L-32.0 -14.25 Q-33.6 -10.0 -30.65 -6.5 -28.05 -3.4 -24.35 -1.45 -14.05 3.75 -2.25 1.9 9.75 0.2 21.45 -2.25 28.75 -3.55 35.9 -6.25 28.75 -3.55 21.45 -2.25 9.75 0.2 -2.25 1.9 -14.05 3.75 -24.35 -1.45 -28.05 -3.4 -30.65 -6.5 -33.6 -10.0 -32.0 -14.25 L-31.1 -16.15 -29.5 -18.5 -28.6 -18.3 Q-27.95 -21.35 -22.4 -22.55 L-21.4 -21.95 -21.4 -19.45 -21.65 -19.45 Q-25.75 -18.1 -23.35 -14.3 L-23.0 -14.0 Q-12.5 -9.0 -0.6 -10.0 L21.65 -11.6 Q26.2 -11.95 29.5 -14.7 32.55 -17.5 29.5 -20.7 L29.9 -22.0 Q33.45 -22.0 35.15 -18.0 M41.1 1.8 Q32.45 5.8 23.35 8.8 L20.95 9.6 23.35 8.8 Q32.45 5.8 41.1 1.8" fill="url(#gradient0)" fill-rule="evenodd" stroke="none"/>
      <path d="M37.55 -22.45 L37.55 -20.15 Q38.0 -13.25 41.45 -7.2 38.0 -13.25 37.55 -20.15 L37.55 -22.45 M35.35 -12.4 L35.15 -18.0 Q35.45 -29.55 47.5 -29.75 59.5 -29.95 67.65 -23.7 75.75 -17.4 81.0 -2.35 86.2 12.75 71.6 11.85 L55.5 10.65 51.5 9.6 Q45.35 7.4 41.1 1.8 L38.35 -2.15 37.8 -2.75 Q36.8 -3.95 36.25 -5.35 L36.2 -5.55 35.95 -6.25 36.2 -5.55 36.25 -5.35 35.9 -6.25 35.95 -6.25 35.45 -11.3 35.35 -12.4 M46.0 -4.1 Q45.35 -4.75 44.35 -4.75 43.4 -4.75 42.75 -4.1 42.1 -3.45 42.1 -2.45 42.1 -1.5 42.75 -0.85 43.4 -0.15 44.35 -0.15 45.35 -0.15 46.0 -0.85 46.7 -1.5 46.7 -2.5 46.7 -3.45 46.0 -4.1" fill="url(#gradient1)" fill-rule="evenodd" stroke="none"/>
      <path d="M29.5 -20.7 Q32.55 -17.5 29.5 -14.7 28.6 -18.05 29.0 -21.0 L29.25 -20.9 29.5 -20.7 M-23.0 -14.0 L-23.35 -14.3 Q-25.75 -18.1 -21.65 -19.45 L-23.0 -14.0" fill="#3a371f" fill-rule="evenodd" stroke="none"/>
      <path d="M29.9 -22.0 L29.5 -20.7 29.25 -20.9 29.0 -21.0 29.35 -21.85 29.9 -22.0" fill="url(#gradient2)" fill-rule="evenodd" stroke="none"/>
      <path d="M-32.0 -14.25 L-32.25 -13.9 Q-33.8 -11.3 -34.15 -8.45 -35.25 0.4 -42.2 6.2 -46.15 11.0 -52.05 9.95 -54.05 9.75 -55.25 8.5 -62.1 1.3 -69.5 -4.5 L-65.45 -14.35 Q-61.35 -24.45 -54.9 -33.05 -53.9 -34.4 -52.55 -34.65 -39.75 -36.1 -32.2 -24.85 -29.4 -20.7 -31.1 -16.15 L-32.0 -14.25 M-43.3 -6.9 Q-43.85 -6.4 -43.85 -5.7 -43.85 -5.0 -43.3 -4.45 -42.8 -3.95 -42.1 -3.95 -41.4 -3.95 -40.85 -4.45 -40.35 -5.0 -40.35 -5.7 -40.35 -6.4 -40.85 -6.9 -41.4 -7.45 -42.1 -7.45 -42.8 -7.45 -43.3 -6.9 M-33.5 -20.0 L-34.1 -19.35 Q-39.4 -15.7 -39.5 -10.0 -39.4 -15.7 -34.1 -19.35 L-33.5 -20.0" fill="url(#gradient3)" fill-rule="evenodd" stroke="none"/>
      <path d="M-43.3 -6.9 Q-42.8 -7.45 -42.1 -7.45 -41.4 -7.45 -40.85 -6.9 -40.35 -6.4 -40.35 -5.7 -40.35 -5.0 -40.85 -4.45 -41.4 -3.95 -42.1 -3.95 -42.8 -3.95 -43.3 -4.45 -43.85 -5.0 -43.85 -5.7 -43.85 -6.4 -43.3 -6.9" fill="#6d6154" fill-rule="evenodd" stroke="none"/>
      <path d="M41.45 -7.2 Q38.0 -13.25 37.55 -20.15 L37.55 -22.45 M35.35 -12.4 L35.15 -18.0 Q33.45 -22.0 29.9 -22.0 L29.35 -21.85 29.0 -21.0 Q28.6 -18.05 29.5 -14.7 26.2 -11.95 21.65 -11.6 L-0.6 -10.0 Q-12.5 -9.0 -23.0 -14.0 L-23.35 -14.3 Q-25.75 -18.1 -21.65 -19.45 L-23.0 -14.0 M29.5 -20.7 Q32.55 -17.5 29.5 -14.7 M-21.4 -19.45 L-21.4 -21.95 -22.4 -22.55 Q-27.95 -21.35 -28.6 -18.3 -29.15 -15.95 -26.7 -12.45 -24.4 -9.2 -20.6 -7.8 -17.15 -6.4 -13.6 -5.95 L-6.2 -5.3 Q10.5 -6.0 27.0 -8.4 30.9 -8.9 34.25 -11.2 34.9 -11.6 35.35 -12.4 L35.45 -11.3 35.95 -6.25 36.2 -5.55 36.25 -5.35 Q36.8 -3.95 37.8 -2.75 L38.35 -2.15 41.1 1.8 Q45.35 7.4 51.5 9.6 L55.5 10.65 71.6 11.85 Q86.2 12.75 81.0 -2.35 75.75 -17.4 67.65 -23.7 59.5 -29.95 47.5 -29.75 35.45 -29.55 35.15 -18.0 M29.5 -20.7 L29.25 -20.9 29.0 -21.0 M35.9 -6.25 L35.95 -6.25 M35.9 -6.25 Q28.75 -3.55 21.45 -2.25 9.75 0.2 -2.25 1.9 -14.05 3.75 -24.35 -1.45 -28.05 -3.4 -30.65 -6.5 -33.6 -10.0 -32.0 -14.25 L-32.25 -13.9 Q-33.8 -11.3 -34.15 -8.45 -35.25 0.4 -42.2 6.2 -33.05 13.45 -21.7 15.85 -11.0 18.2 -0.1 15.55 10.55 13.0 20.95 9.6 L23.35 8.8 Q32.45 5.8 41.1 1.8 M46.0 -4.1 Q45.35 -4.75 44.35 -4.75 43.4 -4.75 42.75 -4.1 42.1 -3.45 42.1 -2.45 42.1 -1.5 42.75 -0.85 43.4 -0.15 44.35 -0.15 45.35 -0.15 46.0 -0.85 46.7 -1.5 46.7 -2.5 46.7 -3.45 46.0 -4.1 M51.5 9.6 L20.95 9.6 M-31.1 -16.15 Q-29.4 -20.7 -32.2 -24.85 -39.75 -36.1 -52.55 -34.65 -53.9 -34.4 -54.9 -33.05 -61.35 -24.45 -65.45 -14.35 L-69.5 -4.5 Q-62.1 1.3 -55.25 8.5 -54.05 9.75 -52.05 9.95 -46.15 11.0 -42.2 6.2 M-43.3 -6.9 Q-42.8 -7.45 -42.1 -7.45 -41.4 -7.45 -40.85 -6.9 -40.35 -6.4 -40.35 -5.7 -40.35 -5.0 -40.85 -4.45 -41.4 -3.95 -42.1 -3.95 -42.8 -3.95 -43.3 -4.45 -43.85 -5.0 -43.85 -5.7 -43.85 -6.4 -43.3 -6.9 M-29.5 -18.5 L-31.1 -16.15 -32.0 -14.25 M-39.5 -10.0 Q-39.4 -15.7 -34.1 -19.35 L-33.5 -20.0" fill="none" stroke="#000000" stroke-linecap="round" stroke-linejoin="round" stroke-width="2.0"/>
    </g>
    </g>
  </g>
  <defs>
    <radialGradient cx="0" cy="0" gradientTransform="matrix(0.0422, 0.0, 0.0, 0.0422, 1.7, -8.05)" gradientUnits="userSpaceOnUse" id="gradient0" r="819.2" spreadMethod="pad">
      <stop offset="0.0" stop-color="#ac7846"/>
      <stop offset="1.0" stop-color="#52291b"/>
    </radialGradient>
    <radialGradient cx="0" cy="0" gradientTransform="matrix(0.0296, 0.0, 0.0, 0.0296, 44.5, -21.0)" gradientUnits="userSpaceOnUse" id="gradient1" r="819.2" spreadMethod="pad">
      <stop offset="0.0" stop-color="#ac7846"/>
      <stop offset="1.0" stop-color="#52291b"/>
    </radialGradient>
    <radialGradient cx="0" cy="0" gradientTransform="matrix(0.0562, 0.0, 0.0, 0.0771, 70.75, -37.75)" gradientUnits="userSpaceOnUse" id="gradient2" r="819.2" spreadMethod="pad">
      <stop offset="0.0" stop-color="#ac7846"/>
      <stop offset="1.0" stop-color="#52291b"/>
    </radialGradient>
    <radialGradient cx="0" cy="0" gradientTransform="matrix(0.0279, 0.0, 0.0, 0.0279, -40.75, -24.5)" gradientUnits="userSpaceOnUse" id="gradient3" r="819.2" spreadMethod="pad">
      <stop offset="0.0" stop-color="#ac7846"/>
      <stop offset="1.0" stop-color="#52291b"/>
    </radialGradient>
  </defs>
</svg>