<svg xmlns:xlink="http://www.w3.org/1999/xlink" xmlns="http://www.w3.org/2000/svg" height="264.15px" width="342.25px">
  <g transform="matrix(1.0, 0.0, 0.0, 1.0, 243.25, 83.7)">
    <g data-characterId="1157" height="124.75" transform="matrix(1.0, 0.0, 0.0, 1.0, -46.05, -44.8)" width="115.35" xlink:href="#shape0"><g id="shape0" transform="matrix(1.0, 0.0, 0.0, 1.0, 46.05, 44.8)">
      <path d="M-15.1 75.65 L-14.9 75.7 -14.9 75.75 -15.1 75.65" fill="url(#gradient0)" fill-rule="evenodd" stroke="none"/>
      <path d="M27.95 5.75 L28.0 5.75 27.95 5.75 M-15.2 75.6 L-22.95 75.35 Q-31.2 75.4 -39.2 76.6 L-45.55 77.4 Q-42.8 70.65 -39.15 64.45 L-36.55 60.5 Q-30.1 51.65 -29.85 40.85 L-29.8 37.75 -26.4 50.9 Q-24.95 56.65 -21.9 61.6 -21.25 62.55 -20.2 62.95 -17.2 62.7 -14.45 63.8 L-12.75 64.75 -14.9 75.7 -15.1 75.65 -15.2 75.6 M-41.15 75.4 L-40.5 72.9 Q-38.95 67.25 -35.6 62.6 L-32.5 58.0 Q-29.25 52.85 -28.75 46.9 -29.25 52.85 -32.5 58.0 L-35.6 62.6 Q-38.95 67.25 -40.5 72.9 L-41.15 75.4 M-23.3 71.95 L-22.2 70.95 Q-18.85 68.1 -18.95 63.9 -18.85 68.1 -22.2 70.95 L-23.3 71.95 M-31.05 72.25 Q-29.9 69.25 -28.0 66.55 L-26.3 63.8 Q-25.2 61.85 -24.75 59.55 -25.2 61.85 -26.3 63.8 L-28.0 66.55 Q-29.9 69.25 -31.05 72.25 M-38.25 73.4 L-38.05 72.2 Q-37.75 70.95 -37.1 69.9 L-31.1 59.65 Q-28.65 55.45 -27.6 50.65 -28.65 55.45 -31.1 59.65 L-37.1 69.9 Q-37.75 70.95 -38.05 72.2 L-38.25 73.4" fill="url(#gradient1)" fill-rule="evenodd" stroke="none"/>
      <path d="M-19.55 -21.65 Q-19.85 -19.8 -20.35 -18.5 L-22.35 -13.4 Q-22.1 -16.1 -23.2 -18.35 -24.4 -15.15 -25.1 -11.05 -25.5 -8.65 -26.3 -6.35 -27.5 -2.95 -29.75 0.0 -29.45 -2.35 -29.9 -4.7 L-30.2 -5.6 -30.7 -6.55 Q-30.75 -3.05 -31.6 0.0 L-33.35 6.05 -35.15 11.35 -35.35 6.15 Q-35.4 1.95 -36.05 -2.55 -36.1 -3.3 -36.45 -4.05 -35.85 0.9 -36.1 6.2 L-36.7 15.8 Q-37.8 13.5 -38.15 11.05 -38.55 8.65 -39.15 6.95 -40.65 2.35 -41.15 -1.9 L-41.4 -4.8 -41.65 -10.75 Q-41.85 -15.9 -39.0 -20.2 L-38.95 -20.3 -35.75 -24.75 -34.7 -26.1 -34.4 -26.3 -31.3 -25.3 Q-31.65 -25.65 -30.3 -29.6 -28.95 -33.5 -22.85 -37.65 -16.7 -41.85 -13.45 -42.35 L-4.9 -43.3 Q2.2 -45.2 9.25 -43.4 L16.3 -41.5 17.15 -41.25 Q18.1 -40.95 20.6 -39.35 L29.75 -33.0 Q36.45 -28.2 37.85 -24.55 L39.9 -18.5 Q40.5 -16.05 42.15 -12.7 43.8 -9.35 44.5 -6.8 45.15 -4.3 44.4 -2.2 L44.85 -1.45 45.0 -1.55 45.0 -0.6 44.9 0.05 Q46.1 4.6 46.6 9.35 L47.45 19.3 Q47.8 24.1 48.55 28.9 49.3 33.75 50.35 38.45 L52.3 47.2 Q53.35 51.75 55.2 56.05 56.85 59.95 58.75 63.65 61.05 68.05 63.7 72.2 66.1 76.0 68.8 79.45 L51.8 78.45 49.8 77.8 Q44.95 75.85 39.9 74.45 L37.8 73.85 35.05 72.85 Q34.35 65.6 33.3 58.4 32.05 49.7 32.35 40.95 L32.55 32.55 32.6 29.55 Q32.65 27.85 31.95 26.25 32.05 25.2 32.9 24.75 L33.9 24.2 Q35.05 21.7 35.75 19.0 L36.35 16.45 36.45 15.8 36.75 14.25 Q37.45 11.05 37.3 7.7 37.25 6.7 36.8 5.8 L34.45 2.35 32.8 0.65 Q30.65 1.45 29.15 3.25 L28.45 4.4 Q28.15 5.05 28.0 5.75 L27.95 5.75 26.1 -0.2 26.1 0.05 25.3 -2.8 26.1 -5.6 Q27.3 -10.15 27.85 -14.95 28.1 -16.95 27.55 -18.95 L26.1 -23.1 24.45 -26.35 26.1 -23.1 27.55 -18.95 Q28.1 -16.95 27.85 -14.95 27.3 -10.15 26.1 -5.6 L25.3 -2.8 19.9 8.8 19.65 8.65 Q20.0 4.05 19.95 -0.6 L19.9 -4.15 19.6 -9.0 18.4 -3.55 17.75 -0.6 17.5 0.25 14.1 9.85 12.5 13.75 12.25 13.65 12.5 6.95 12.65 -3.3 Q12.7 -8.75 10.9 -13.7 L10.7 -12.75 9.55 -7.9 8.15 -3.1 6.55 1.0 5.65 2.7 5.75 1.5 5.95 -3.1 6.0 -4.95 Q5.95 -9.5 5.05 -13.85 4.6 -15.95 3.45 -17.75 1.25 -21.0 -1.55 -23.65 L-6.0 -22.65 Q-11.65 -21.35 -19.55 -21.65 L-18.0 -25.15 -16.45 -22.8 -18.0 -25.15 -19.55 -21.65 M25.35 -27.6 L28.8 -25.8 25.35 -27.6 M8.65 -27.6 L19.3 -27.95 8.65 -27.6 M-17.45 -29.85 Q-14.95 -31.15 -7.65 -33.9 -3.2 -36.55 1.6 -37.35 L11.5 -36.95 1.6 -37.35 Q-3.2 -36.55 -7.65 -33.9 -14.95 -31.15 -17.45 -29.85 L-21.75 -26.35 -17.45 -29.85 -13.7 -32.9 -17.45 -29.85 M12.95 -29.8 L14.9 -30.05 16.3 -30.0 Q19.45 -29.8 22.45 -28.25 19.45 -29.8 16.3 -30.0 L14.9 -30.05 12.95 -29.8 M0.9 -32.0 Q5.25 -33.95 9.6 -34.6 13.0 -34.95 16.3 -34.55 L21.3 -33.55 16.3 -34.55 Q13.0 -34.95 9.6 -34.6 5.25 -33.95 0.9 -32.0 M7.5 -9.65 L7.45 -12.75 Q7.3 -18.0 5.5 -22.95 7.3 -18.0 7.45 -12.75 L7.5 -9.65 M5.5 -21.15 Q6.7 -15.65 6.75 -9.95 L6.55 -6.0 6.0 -4.95 6.55 -6.0 6.75 -9.95 Q6.7 -15.65 5.5 -21.15 M14.95 -2.5 Q15.8 -4.7 15.8 -6.9 15.8 -10.9 14.9 -14.95 L12.65 -24.85 14.9 -14.95 Q15.8 -10.9 15.8 -6.9 15.8 -4.7 14.95 -2.5 M31.65 -15.55 L31.95 -16.45 Q34.9 -12.45 36.5 -7.75 L37.5 -4.7 38.7 -0.8 38.75 -0.6 39.45 1.75 38.75 -0.6 38.7 -0.8 37.5 -4.7 36.5 -7.75 Q34.9 -12.45 31.95 -16.45 L31.65 -15.55 M31.1 -26.35 L36.25 -18.35 36.5 -18.05 37.7 -15.75 Q40.0 -10.45 41.15 -4.7 40.0 -10.45 37.7 -15.75 L36.5 -18.05 36.25 -18.35 31.1 -26.35 M17.0 -4.7 L18.15 -13.4 17.0 -4.7 M13.8 3.4 Q14.4 -2.95 14.3 -9.0 14.25 -14.9 12.95 -20.5 14.25 -14.9 14.3 -9.0 14.4 -2.95 13.8 3.4 M33.4 -0.6 L33.2 -2.8 32.8 -4.7 Q31.8 -8.5 29.65 -11.8 31.8 -8.5 32.8 -4.7 L33.2 -2.8 33.4 -0.6 M36.85 -13.05 L37.45 -11.9 Q38.85 -9.35 39.45 -6.2 38.85 -9.35 37.45 -11.9 L36.85 -13.05 M30.2 0.3 L30.05 -0.6 30.0 -0.8 Q29.5 -2.85 28.55 -4.7 L28.2 -5.3 28.55 -4.7 Q29.5 -2.85 30.0 -0.8 L30.05 -0.6 30.2 0.3 M21.0 1.25 L21.85 -0.6 Q23.75 -5.3 24.2 -10.65 24.7 -16.7 23.05 -22.4 24.7 -16.7 24.2 -10.65 23.75 -5.3 21.85 -0.6 L21.0 1.25 M34.8 -5.7 L35.0 -5.2 35.3 -4.7 Q36.45 -2.85 37.15 -0.8 L37.25 -0.6 38.05 2.25 39.5 10.95 39.9 15.2 39.95 16.45 39.9 18.4 39.9 19.0 39.45 22.75 39.9 19.0 39.9 18.4 39.95 16.45 39.9 15.2 39.5 10.95 38.05 2.25 37.25 -0.6 37.15 -0.8 Q36.45 -2.85 35.3 -4.7 L35.0 -5.2 34.8 -5.7 32.8 -11.2 34.8 -5.7 M30.5 -6.85 L31.95 -2.2 30.5 -6.85 M21.0 -9.65 Q22.05 -11.7 21.6 -14.0 20.7 -18.9 19.0 -23.3 20.7 -18.9 21.6 -14.0 22.05 -11.7 21.0 -9.65 M-26.1 -28.85 L-23.05 -33.05 Q-21.4 -35.0 -19.4 -36.4 -18.1 -37.3 -16.45 -37.9 L-3.45 -40.35 -16.45 -37.9 Q-18.1 -37.3 -19.4 -36.4 -21.4 -35.0 -23.05 -33.05 L-26.1 -28.85 M-24.95 -27.6 Q-22.7 -32.9 -17.75 -35.15 -14.85 -36.35 -5.75 -37.85 -14.85 -36.35 -17.75 -35.15 -22.7 -32.9 -24.95 -27.6 M-7.2 -29.15 L-3.45 -32.3 -7.2 -29.15 M-4.75 -24.85 L-2.55 -26.0 -1.55 -23.65 -2.55 -26.0 -4.75 -24.85 M-29.8 -25.15 L-24.65 -24.85 -29.8 -25.15 M-35.55 -4.95 Q-36.1 -8.4 -35.5 -11.6 -34.3 -18.1 -30.7 -23.3 -34.3 -18.1 -35.5 -11.6 -36.1 -8.4 -35.55 -4.95 M-37.85 -2.5 L-38.15 -4.0 Q-38.8 -7.75 -37.6 -11.5 -38.8 -7.75 -38.15 -4.0 L-37.85 -2.5 M-31.85 -10.25 L-31.45 -12.0 Q-30.25 -16.55 -27.8 -20.5 -30.25 -16.55 -31.45 -12.0 L-31.85 -10.25 M-38.15 3.7 Q-37.9 1.55 -38.8 -0.5 -40.3 -3.85 -40.4 -7.75 -40.5 -14.25 -38.95 -20.3 -40.5 -14.25 -40.4 -7.75 -40.3 -3.85 -38.8 -0.5 -37.9 1.55 -38.15 3.7 M-27.25 -12.15 L-25.5 -18.0 -27.25 -12.15 M41.65 23.05 L41.9 19.3 41.9 19.25 41.9 19.3 41.65 23.05 41.3 30.25 Q41.2 33.05 42.0 35.7 41.2 33.05 41.3 30.25 L41.65 23.05 M41.45 3.75 L42.15 6.15 42.4 7.25 42.8 10.65 42.4 7.25 42.15 6.15 41.45 3.75 M42.8 10.65 L42.6 13.3 41.9 19.25 42.6 13.3 42.8 10.65 M38.85 28.2 L40.3 47.5 38.85 28.2 M40.85 70.8 L40.4 70.2 39.9 69.15 Q37.7 64.4 36.6 59.3 35.6 54.6 35.1 49.8 35.6 54.6 36.6 59.3 37.7 64.4 39.9 69.15 L40.4 70.2 40.85 70.8 M46.6 71.65 L45.35 69.8 Q44.15 67.8 43.4 65.6 L41.0 57.9 39.9 53.35 Q39.2 49.95 38.85 46.45 38.4 42.3 38.25 38.15 L38.0 27.05 38.25 38.15 Q38.4 42.3 38.85 46.45 39.2 49.95 39.9 53.35 L41.0 57.9 43.4 65.6 Q44.15 67.8 45.35 69.8 L46.6 71.65 M43.45 50.35 L45.15 55.5 Q46.95 60.25 48.25 65.3 49.7 70.95 52.35 76.25 49.7 70.95 48.25 65.3 46.95 60.25 45.15 55.5 L43.45 50.35 M44.6 58.7 L43.4 54.95 Q41.9 50.25 41.05 45.4 40.1 40.25 39.9 35.1 40.1 40.25 41.05 45.4 41.9 50.25 43.4 54.95 L44.6 58.7 M-34.7 3.4 L-33.55 -2.2 -34.7 3.4" fill="url(#gradient2)" fill-rule="evenodd" stroke="none"/>
      <path d="M-19.55 -21.65 Q-19.85 -19.8 -20.35 -18.5 L-22.35 -13.4 Q-22.1 -16.1 -23.2 -18.35 -24.4 -15.15 -25.1 -11.05 -25.5 -8.65 -26.3 -6.35 -27.5 -2.95 -29.75 0.0 -29.45 -2.35 -29.9 -4.7 L-30.2 -5.6 -30.7 -6.55 Q-30.75 -3.05 -31.6 0.0 L-33.35 6.05 -35.15 11.35 -35.35 6.15 Q-35.4 1.95 -36.05 -2.55 -36.1 -3.3 -36.45 -4.05 -35.85 0.9 -36.1 6.2 L-36.7 15.8 Q-37.8 13.5 -38.15 11.05 -38.55 8.65 -39.15 6.95 -40.65 2.35 -41.15 -1.9 L-41.4 -4.8 -41.65 -10.75 Q-41.85 -15.9 -39.0 -20.2 L-38.95 -20.3 -35.75 -24.75 -34.7 -26.1 -34.4 -26.3 -31.3 -25.3 Q-31.65 -25.65 -30.3 -29.6 -28.95 -33.5 -22.85 -37.65 -16.7 -41.85 -13.45 -42.35 L-4.9 -43.3 Q2.2 -45.2 9.25 -43.4 L16.3 -41.5 17.15 -41.25 Q18.1 -40.95 20.6 -39.35 L29.75 -33.0 Q36.45 -28.2 37.85 -24.55 L39.9 -18.5 Q40.5 -16.05 42.15 -12.7 43.8 -9.35 44.5 -6.8 45.15 -4.3 44.4 -2.2 L44.85 -1.45 45.0 -1.55 45.0 -0.6 44.9 0.05 Q46.1 4.6 46.6 9.35 L47.45 19.3 Q47.8 24.1 48.55 28.9 49.3 33.75 50.35 38.45 L52.3 47.2 Q53.35 51.75 55.2 56.05 56.85 59.95 58.75 63.65 61.05 68.05 63.7 72.2 66.1 76.0 68.8 79.45 L51.8 78.45 49.8 77.8 Q44.95 75.85 39.9 74.45 L37.8 73.85 35.05 72.85 Q34.35 65.6 33.3 58.4 32.05 49.7 32.35 40.95 L32.55 32.55 32.6 29.55 Q32.65 27.85 31.95 26.25 32.05 25.2 32.9 24.75 L33.9 24.2 Q35.05 21.7 35.75 19.0 L36.35 16.45 36.45 15.8 36.75 14.25 Q37.45 11.05 37.3 7.7 37.25 6.7 36.8 5.8 L34.45 2.35 32.8 0.65 Q30.65 1.45 29.15 3.25 L28.45 4.4 Q28.15 5.05 28.0 5.75 L27.9 6.6 M22.45 -28.25 Q19.45 -29.8 16.3 -30.0 L14.9 -30.05 12.95 -29.8 M12.25 13.65 L12.5 6.95 12.65 -3.3 Q12.7 -8.75 10.9 -13.7 L10.7 -12.75 9.55 -7.9 8.15 -3.1 6.55 1.0 5.65 2.7 5.75 1.5 5.95 -3.1 6.0 -4.95 Q5.95 -9.5 5.05 -13.85 4.6 -15.95 3.45 -17.75 1.25 -21.0 -1.55 -23.65 L-2.55 -26.0 -4.75 -24.85 M-19.55 -21.65 L-18.0 -25.15 -16.45 -22.8 M19.65 8.65 Q20.0 4.05 19.95 -0.6 L19.9 -4.15 19.6 -9.0 18.4 -3.55 17.75 -0.6 17.5 0.25 14.1 9.85 12.5 13.75 12.1 14.55 12.25 13.65 M24.45 -26.35 L26.1 -23.1 27.55 -18.95 Q28.1 -16.95 27.85 -14.95 27.3 -10.15 26.1 -5.6 L25.3 -2.8 26.1 0.05 M26.1 -0.2 L27.95 5.75 28.0 5.75 M-24.65 -24.85 L-29.8 -25.15 M-14.9 75.7 L-12.75 64.75 -14.45 63.8 Q-17.2 62.7 -20.2 62.95 -21.25 62.55 -21.9 61.6 -24.95 56.65 -26.4 50.9 L-29.8 37.75 -29.85 40.85 Q-30.1 51.65 -36.55 60.5 L-39.15 64.45 Q-42.8 70.65 -45.55 77.4 L-39.2 76.6 Q-31.2 75.4 -22.95 75.35 L-15.2 75.6 M-14.9 75.7 L-14.9 75.75 Q-14.85 76.05 -14.95 75.85 L-15.1 75.65 M19.65 8.65 L19.6 9.25 19.9 8.8 25.3 -2.8" fill="none" stroke="#000000" stroke-linecap="round" stroke-linejoin="round" stroke-width="2.0"/>
      <path d="M28.8 -25.8 L25.35 -27.6 M11.5 -36.95 L1.6 -37.35 Q-3.2 -36.55 -7.65 -33.9 -14.95 -31.15 -17.45 -29.85 M21.3 -33.55 L16.3 -34.55 Q13.0 -34.95 9.6 -34.6 5.25 -33.95 0.9 -32.0 M5.5 -22.95 Q7.3 -18.0 7.45 -12.75 L7.5 -9.65 M12.65 -24.85 L14.9 -14.95 Q15.8 -10.9 15.8 -6.9 15.8 -4.7 14.95 -2.5 M39.45 22.75 L39.9 19.0 39.9 18.4 39.95 16.45 39.9 15.2 39.5 10.95 38.05 2.25 37.25 -0.6 37.15 -0.8 Q36.45 -2.85 35.3 -4.7 L35.0 -5.2 34.8 -5.7 M19.0 -23.3 Q20.7 -18.9 21.6 -14.0 22.05 -11.7 21.0 -9.65 M-5.75 -37.85 Q-14.85 -36.35 -17.75 -35.15 -22.7 -32.9 -24.95 -27.6 M-30.7 -23.3 Q-34.3 -18.1 -35.5 -11.6 -36.1 -8.4 -35.55 -4.95 M-27.8 -20.5 Q-30.25 -16.55 -31.45 -12.0 L-31.85 -10.25 M-25.5 -18.0 L-27.25 -12.15 M-27.6 50.65 Q-28.65 55.45 -31.1 59.65 L-37.1 69.9 Q-37.75 70.95 -38.05 72.2 L-38.25 73.4 M-24.75 59.55 Q-25.2 61.85 -26.3 63.8 L-28.0 66.55 Q-29.9 69.25 -31.05 72.25 M-18.95 63.9 Q-18.85 68.1 -22.2 70.95 L-23.3 71.95 M42.8 10.65 L42.4 7.25 42.15 6.15 41.45 3.75 M41.9 19.25 L41.9 19.3 41.65 23.05 M38.0 27.05 L38.25 38.15 Q38.4 42.3 38.85 46.45 39.2 49.95 39.9 53.35 L41.0 57.9 43.4 65.6 Q44.15 67.8 45.35 69.8 L46.6 71.65 M35.1 49.8 Q35.6 54.6 36.6 59.3 37.7 64.4 39.9 69.15 L40.4 70.2 40.85 70.8 M39.9 35.1 Q40.1 40.25 41.05 45.4 41.9 50.25 43.4 54.95 L44.6 58.7" fill="none" stroke="#392745" stroke-linecap="round" stroke-linejoin="round" stroke-width="1.5"/>
      <path d="M19.3 -27.95 L8.65 -27.6 M-17.45 -29.85 L-21.75 -26.35 M6.0 -4.95 L6.55 -6.0 6.75 -9.95 Q6.7 -15.65 5.5 -21.15 M12.95 -20.5 Q14.25 -14.9 14.3 -9.0 14.4 -2.95 13.8 3.4 M18.15 -13.4 L17.0 -4.7 M41.15 -4.7 Q40.0 -10.45 37.7 -15.75 L36.5 -18.05 36.25 -18.35 31.1 -26.35 M39.45 1.75 L38.75 -0.6 38.7 -0.8 37.5 -4.7 36.5 -7.75 Q34.9 -12.45 31.95 -16.45 L31.65 -15.55 M23.05 -22.4 Q24.7 -16.7 24.2 -10.65 23.75 -5.3 21.85 -0.6 L21.0 1.25 M28.2 -5.3 L28.55 -4.7 Q29.5 -2.85 30.0 -0.8 L30.05 -0.6 30.2 0.3 M39.45 -6.2 Q38.85 -9.35 37.45 -11.9 L36.85 -13.05 M29.65 -11.8 Q31.8 -8.5 32.8 -4.7 L33.2 -2.8 33.4 -0.6 M34.8 -5.7 L32.8 -11.2 M31.95 -2.2 L30.5 -6.85 M-3.45 -40.35 L-16.45 -37.9 Q-18.1 -37.3 -19.4 -36.4 -21.4 -35.0 -23.05 -33.05 L-26.1 -28.85 M-3.45 -32.3 L-7.2 -29.15 M-17.45 -29.85 L-13.7 -32.9 M-37.6 -11.5 Q-38.8 -7.75 -38.15 -4.0 L-37.85 -2.5 M-38.95 -20.3 Q-40.5 -14.25 -40.4 -7.75 -40.3 -3.85 -38.8 -0.5 -37.9 1.55 -38.15 3.7 M-28.75 46.9 Q-29.25 52.85 -32.5 58.0 L-35.6 62.6 Q-38.95 67.25 -40.5 72.9 L-41.15 75.4 M41.65 23.05 L41.3 30.25 Q41.2 33.05 42.0 35.7 M41.9 19.25 L42.6 13.3 42.8 10.65 M40.3 47.5 L38.85 28.2 M52.35 76.25 Q49.7 70.95 48.25 65.3 46.95 60.25 45.15 55.5 L43.45 50.35 M-33.55 -2.2 L-34.7 3.4" fill="none" stroke="#b789b8" stroke-linecap="round" stroke-linejoin="round" stroke-width="1.5"/>
    </g>
    </g>
  </g>
  <defs>
    <radialGradient cx="0" cy="0" gradientTransform="matrix(0.0044, 0.0768, -0.1126, 0.0065, -1.5, -29.0)" gradientUnits="userSpaceOnUse" id="gradient0" r="819.2" spreadMethod="pad">
      <stop offset="0.0" stop-color="#663399"/>
      <stop offset="0.3843137254901961" stop-color="#666699"/>
      <stop offset="0.5372549019607843" stop-color="#9999cc"/>
      <stop offset="0.6862745098039216" stop-color="#666699"/>
      <stop offset="1.0" stop-color="#4a2572"/>
    </radialGradient>
    <radialGradient cx="0" cy="0" gradientTransform="matrix(0.0044, 0.0768, -0.1126, 0.0065, -1.5, -29.0)" gradientUnits="userSpaceOnUse" id="gradient1" r="819.2" spreadMethod="pad">
      <stop offset="0.0" stop-color="#553762"/>
      <stop offset="0.3843137254901961" stop-color="#6a497e"/>
      <stop offset="0.5372549019607843" stop-color="#9f69a7"/>
      <stop offset="0.6862745098039216" stop-color="#6a497e"/>
      <stop offset="1.0" stop-color="#553762"/>
    </radialGradient>
    <radialGradient cx="0" cy="0" gradientTransform="matrix(0.0044, 0.0828, -0.1126, 0.007, -1.5, -31.0)" gradientUnits="userSpaceOnUse" id="gradient2" r="819.2" spreadMethod="pad">
      <stop offset="0.0" stop-color="#553762"/>
      <stop offset="0.3843137254901961" stop-color="#6a497e"/>
      <stop offset="0.5372549019607843" stop-color="#9f69a7"/>
      <stop offset="0.6862745098039216" stop-color="#6a497e"/>
      <stop offset="1.0" stop-color="#553762"/>
    </radialGradient>
  </defs>
</svg>