<svg xmlns:xlink="http://www.w3.org/1999/xlink" xmlns="http://www.w3.org/2000/svg" height="119.1px" width="213.05px">
  <g transform="matrix(1.0, 0.0, 0.0, 1.0, 94.65, 81.2)">
    <g data-characterId="946" height="99.2" transform="matrix(1.0, 0.0, 0.0, 1.0, -60.2, -74.65)" width="147.5" xlink:href="#shape0"><g id="shape0" transform="matrix(1.0, 0.0, 0.0, 1.0, 60.2, 74.65)">
      <path d="M-9.6 -2.25 L-6.5 -1.8 -3.5 -1.4 0.35 -1.35 Q-3.15 1.05 -5.05 4.9 L-6.0 4.5 Q-6.75 1.8 -8.2 -0.4 L-9.6 -2.25" fill="#ecc59d" fill-rule="evenodd" stroke="none"/>
      <path d="M39.45 -21.2 L39.5 -21.0 39.45 -20.4 38.15 -20.55 39.45 -21.2 M17.2 15.45 L16.0 15.55 17.1 14.55 17.2 15.45 M13.8 8.05 L13.75 8.05 13.25 7.0 13.8 8.05" fill="#ffffcc" fill-rule="evenodd" stroke="none"/>
      <path d="M28.0 -30.45 L28.55 -30.45 Q36.55 -28.95 39.45 -21.2 L38.15 -20.55 39.45 -20.4 Q56.1 -18.7 69.6 -10.2 70.85 -9.45 70.6 -7.9 L71.7 10.8 17.2 15.45 17.1 14.55 16.0 15.55 Q-18.05 21.95 -51.35 13.0 L-59.7 10.75 -56.55 -9.6 -56.35 -10.95 Q-55.25 -11.15 -53.05 -11.9 L-49.7 -12.9 -41.6 -14.95 -33.4 -16.7 -32.7 -22.55 Q-27.25 -26.7 -20.5 -26.5 -22.8 -18.7 -22.1 -13.75 -21.45 -8.85 -20.85 -8.65 -13.8 -6.7 -9.9 -2.55 L-9.6 -2.25 -8.2 -0.4 Q-10.7 0.8 -13.35 1.45 -19.95 3.35 -22.95 9.3 -19.95 3.35 -13.35 1.45 -10.7 0.8 -8.2 -0.4 -6.75 1.8 -6.0 4.5 L-5.05 4.9 Q-3.15 1.05 0.35 -1.35 4.5 -4.25 10.9 -5.15 L14.25 -5.8 20.7 -13.0 Q24.0 -16.7 25.5 -19.9 27.0 -23.15 27.3 -24.6 L28.0 -27.95 28.0 -30.45 M13.8 8.05 L17.3 6.2 Q30.55 -1.65 33.25 -17.5 33.35 -18.2 34.65 -18.7 36.15 -19.4 37.05 -20.65 L38.15 -20.55 37.05 -20.65 Q36.15 -19.4 34.65 -18.7 33.35 -18.2 33.25 -17.5 30.55 -1.65 17.3 6.2 L13.8 8.05 13.25 7.0 12.6 8.55 13.75 8.05 13.8 8.05 M11.0 -3.0 Q15.2 1.4 13.25 7.0 15.2 1.4 11.0 -3.0 M-24.05 8.75 Q-27.55 3.35 -29.8 -2.55 -32.4 -9.35 -33.4 -16.7 -32.4 -9.35 -29.8 -2.55 -27.55 3.35 -24.05 8.75 -23.55 9.45 -23.5 10.5 L-22.95 9.3 -24.05 8.75 M-7.0 11.5 Q-6.5 7.8 -5.05 4.9 -6.5 7.8 -7.0 11.5" fill="#467521" fill-rule="evenodd" stroke="none"/>
      <path d="M28.55 -30.45 L28.0 -30.5 28.0 -30.45 28.0 -27.95 27.3 -24.6 Q27.0 -23.15 25.5 -19.9 24.0 -16.7 20.7 -13.0 L14.25 -5.8 10.9 -5.15 Q4.5 -4.25 0.35 -1.35 -3.15 1.05 -5.05 4.9 -6.5 7.8 -7.0 11.5 M28.55 -30.45 Q36.55 -28.95 39.45 -21.2 L39.5 -21.0 M39.45 -20.4 Q56.1 -18.7 69.6 -10.2 70.85 -9.45 70.6 -7.9 L71.7 10.8 17.2 15.45 16.0 15.55 Q-18.05 21.95 -51.35 13.0 L-59.7 10.75 -56.55 -9.6 -56.35 -10.95 Q-55.25 -11.15 -53.05 -11.9 L-49.7 -12.9 -41.6 -14.95 -33.4 -16.7 -32.7 -22.55 Q-27.25 -26.7 -20.5 -26.5 -22.8 -18.7 -22.1 -13.75 -21.45 -8.85 -20.85 -8.65 -13.8 -6.7 -9.9 -2.55 L-9.6 -2.25 -8.2 -0.4 Q-6.75 1.8 -6.0 4.5 M38.15 -20.55 L39.45 -20.4 M38.15 -20.55 L37.05 -20.65 Q36.15 -19.4 34.65 -18.7 33.35 -18.2 33.25 -17.5 30.55 -1.65 17.3 6.2 L13.8 8.05 13.75 8.05 12.6 8.55 13.25 7.0 Q15.2 1.4 11.0 -3.0 M-33.4 -16.7 Q-32.4 -9.35 -29.8 -2.55 -27.55 3.35 -24.05 8.75 -23.55 9.45 -23.5 10.5 L-22.95 9.3 Q-19.95 3.35 -13.35 1.45 -10.7 0.8 -8.2 -0.4" fill="none" stroke="#000000" stroke-linecap="round" stroke-linejoin="round" stroke-width="2.0"/>
      <path d="M56.95 -5.75 Q60.55 -15.95 66.2 -25.0 L67.4 -26.9 Q76.65 -17.7 86.8 -9.7 85.2 0.8 84.35 20.25 71.65 18.4 66.35 15.3 61.05 12.15 54.0 7.1 L56.95 -5.75 M18.4 1.2 L16.4 10.8 Q15.95 12.8 17.9 16.75 14.9 23.95 5.85 24.05 -12.6 24.2 -30.2 20.45 L-35.4 17.25 Q-20.5 11.1 -8.1 7.1 4.3 3.1 18.45 -2.45 L18.4 1.2" fill="#467521" fill-rule="evenodd" stroke="none"/>
      <path d="M35.7 -40.7 L36.3 -40.65 Q42.45 -41.0 46.5 -39.2 50.5 -37.4 59.1 -32.15 L66.2 -25.0 Q60.55 -15.95 56.95 -5.75 L46.7 -6.9 45.35 -7.0 Q36.1 -9.3 27.95 -14.1 25.8 -16.75 26.2 -20.0 L29.25 -19.4 28.2 -20.45 Q25.55 -23.2 26.8 -26.9 28.9 -27.85 31.1 -26.9 29.3 -28.35 29.6 -30.5 30.25 -35.75 35.9 -33.05 L33.25 -36.3 33.15 -37.1 Q33.1 -37.85 33.8 -39.0 34.4 -40.05 35.1 -40.6 L35.7 -40.7 M25.15 -5.5 Q32.9 -7.35 39.05 -6.25 L45.8 -5.3 Q51.85 -4.2 47.5 0.55 L45.5 2.75 46.95 2.65 Q50.8 3.35 50.05 6.4 L46.95 8.7 Q49.9 9.65 51.85 12.15 49.85 18.7 41.3 18.6 L25.8 19.45 Q21.1 19.35 17.9 16.75 15.95 12.8 16.4 10.8 L18.4 1.2 25.1 -5.5 25.1 -5.2 25.15 -5.5" fill="#ecc59d" fill-rule="evenodd" stroke="none"/>
      <path d="M29.2 -49.1 L35.45 -47.0 Q36.8 -48.85 36.25 -51.1 34.1 -60.55 36.3 -69.75 38.0 -66.2 40.15 -62.85 43.3 -57.9 44.9 -52.05 45.85 -52.5 46.6 -53.15 47.85 -54.3 48.55 -55.9 53.45 -66.85 62.75 -74.65 59.35 -68.2 59.6 -60.85 59.9 -53.3 63.55 -47.1 69.25 -48.2 74.4 -50.55 76.25 -51.3 78.05 -50.5 L75.0 -48.3 Q64.4 -41.2 59.1 -32.15 50.5 -37.4 46.5 -39.2 42.45 -41.0 36.3 -40.65 L35.7 -40.7 35.45 -41.85 Q35.3 -42.6 34.35 -43.1 33.0 -43.85 32.8 -44.05 L30.25 -46.5 Q29.2 -47.65 29.2 -49.1 M27.95 -14.1 Q36.1 -9.3 45.35 -7.0 L46.7 -6.9 45.8 -5.3 39.05 -6.25 Q32.9 -7.35 25.15 -5.5 25.85 -9.95 27.95 -14.1" fill="url(#gradient0)" fill-rule="evenodd" stroke="none"/>
      <path d="M29.2 -49.1 Q29.2 -47.65 30.25 -46.5 L32.8 -44.05 Q33.0 -43.85 34.35 -43.1 35.3 -42.6 35.45 -41.85 L35.7 -40.7 36.3 -40.65 Q42.45 -41.0 46.5 -39.2 50.5 -37.4 59.1 -32.15 64.4 -41.2 75.0 -48.3 L78.05 -50.5 M35.7 -40.7 L35.1 -40.6 Q34.4 -40.05 33.8 -39.0 33.1 -37.85 33.15 -37.1 L33.25 -36.3 35.9 -33.05 Q30.25 -35.75 29.6 -30.5 29.3 -28.35 31.1 -26.9 28.9 -27.85 26.8 -26.9 25.55 -23.2 28.2 -20.45 L29.25 -19.4 26.2 -20.0 Q25.8 -16.75 27.95 -14.1 36.1 -9.3 45.35 -7.0 L46.7 -6.9 56.95 -5.75 Q60.55 -15.95 66.2 -25.0 L59.1 -32.15 M25.15 -5.5 Q25.85 -9.95 27.95 -14.1 M25.1 -5.5 L25.15 -5.5 Q32.9 -7.35 39.05 -6.25 L45.8 -5.3 46.7 -6.9 M25.15 -5.5 L25.1 -5.2 25.1 -5.5 18.4 1.2 16.4 10.8 Q15.95 12.8 17.9 16.75 21.1 19.35 25.8 19.45 L41.3 18.6 Q49.85 18.7 51.85 12.15 49.9 9.65 46.95 8.7 L50.05 6.4 Q50.8 3.35 46.95 2.65 L45.5 2.75 47.5 0.55 Q51.85 -4.2 45.8 -5.3 M56.95 -5.75 L54.0 7.1 Q61.05 12.15 66.35 15.3 71.65 18.4 84.35 20.25 85.2 0.8 86.8 -9.7 76.65 -17.7 67.4 -26.9 L66.2 -25.0 M18.4 1.2 L18.45 -2.45 Q4.3 3.1 -8.1 7.1 -20.5 11.1 -35.4 17.25 L-30.2 20.45 Q-12.6 24.2 5.85 24.05 14.9 23.95 17.9 16.75" fill="none" stroke="#000000" stroke-linecap="round" stroke-linejoin="round" stroke-width="2.0"/>
    </g>
    </g>
  </g>
  <defs>
    <linearGradient gradientTransform="matrix(-0.0012, 0.0298, -0.027, -0.0011, 64.45, -19.85)" gradientUnits="userSpaceOnUse" id="gradient0" spreadMethod="pad" x1="-819.2" x2="819.2">
      <stop offset="0.0" stop-color="#ac7846"/>
      <stop offset="1.0" stop-color="#52291b"/>
    </linearGradient>
  </defs>
</svg>