<svg xmlns:xlink="http://www.w3.org/1999/xlink" xmlns="http://www.w3.org/2000/svg" height="13.5px" width="20.6px">
  <g transform="matrix(1.0, 0.0, 0.0, 1.0, 7.5, 3.7)">
    <path d="M2.75 -3.7 L6.2 -2.1 6.3 -2.05 Q10.0 -0.75 12.8 2.35 L13.1 3.05 Q12.1 5.05 9.7 3.4 L5.5 0.9 Q4.9 0.6 4.55 0.15 L-4.6 0.85 -4.95 0.2 -5.0 0.15 -5.8 0.5 -6.3 0.9 Q-7.15 1.1 -7.5 0.45 L-7.5 0.4 -4.65 -2.2 Q-4.05 -2.75 -3.3 -3.1 L-2.1 -3.05 -1.65 -2.55 -1.3 -2.25 -0.55 -2.25 Q1.1 -2.65 2.5 -3.55 L2.75 -3.7 M0.85 9.7 Q-3.0 10.35 -5.0 7.6 L-5.25 6.8 -5.3 6.4 -3.0 7.2 Q-0.8 7.9 2.6 7.8 6.0 7.7 5.6 8.1 L4.9 8.75 0.85 9.7" fill="#e6b380" fill-rule="evenodd" stroke="none"/>
  </g>
</svg>