<svg xmlns:xlink="http://www.w3.org/1999/xlink" xmlns="http://www.w3.org/2000/svg" height="141.1px" width="125.05px">
  <g transform="matrix(1.0, 0.0, 0.0, 1.0, 48.6, 54.85)">
    <g data-characterId="971" height="105.6" transform="matrix(1.0, 0.0, 0.0, 1.0, -38.15, -52.5)" width="76.5" xlink:href="#shape0"><g id="shape0" transform="matrix(1.0, 0.0, 0.0, 1.0, 38.15, 52.5)">
      <path d="M23.9 35.8 L17.9 41.15 Q15.6 43.4 11.4 45.9 8.95 47.35 5.8 48.45 L0.95 49.75 -10.6 52.25 Q-15.9 53.35 -21.0 51.0 -26.1 48.6 -27.65 45.4 -29.2 42.2 -30.1 38.55 -31.05 34.9 -32.3 31.95 -33.6 28.95 -34.15 26.8 L-35.1 22.8 -37.0 14.5 Q-38.5 8.0 -36.45 -1.45 L-35.85 -4.45 -35.8 -6.55 Q-35.9 -7.35 -36.75 -9.35 -37.65 -11.35 -37.55 -13.85 -37.5 -16.4 -36.35 -19.7 -35.25 -23.0 -33.9 -29.2 -33.2 -32.3 -31.75 -35.15 L-31.5 -35.65 Q-30.15 -38.25 -28.15 -40.65 -23.8 -45.9 -20.95 -47.75 -15.9 -51.1 -9.35 -51.45 L-7.9 -51.6 0.3 -52.0 Q5.75 -52.15 11.5 -49.65 L14.8 -48.0 17.05 -46.75 21.1 -44.1 29.0 -37.85 Q33.65 -33.95 36.05 -24.55 37.35 -19.5 37.7 -14.2 38.15 -7.6 37.1 -1.1 L37.05 -1.0 37.0 -0.45 36.8 0.4 Q35.9 5.15 33.85 9.65 L32.75 11.8 32.9 11.45 32.75 11.8 32.0 13.15 30.05 16.25 28.55 16.75 Q29.9 23.5 28.15 30.05 27.45 32.6 25.55 34.35 L23.9 35.8 M-2.65 -30.45 Q-4.3 -28.55 -4.7 -25.9 L-5.2 -21.15 Q-5.3 -19.1 -6.7 -17.6 -7.35 -16.9 -7.6 -16.0 L-7.95 -13.45 -7.9 -13.45 -7.4 -13.55 -4.9 -14.2 Q-4.3 -14.7 -4.15 -15.35 L-3.45 -17.95 Q-2.95 -19.4 -1.65 -20.15 -2.95 -25.05 -1.75 -29.85 L0.55 -34.75 0.9 -35.65 0.4 -34.8 0.9 -35.65 0.55 -34.75 0.4 -34.8 -2.65 -30.45 M-23.7 -11.7 L-23.2 -9.65 Q-22.95 -8.3 -21.85 -8.05 -22.95 -8.3 -23.2 -9.65 L-23.7 -11.7 M-27.8 -8.65 L-25.4 -8.2 -25.7 -3.7 Q-25.75 -1.9 -26.15 0.45 -26.65 2.9 -27.6 6.0 -29.45 11.95 -29.4 15.65 -29.35 19.3 -26.2 20.65 -23.05 22.0 -18.35 19.35 -23.05 22.0 -26.2 20.65 -29.35 19.3 -29.4 15.65 -29.45 11.95 -27.6 6.0 -26.65 2.9 -26.15 0.45 -25.75 -1.9 -25.7 -3.7 L-25.4 -8.2 -27.8 -8.65 M-23.6 -10.05 Q-23.95 -9.5 -24.6 -9.2 -23.95 -9.5 -23.6 -10.05 M-1.6 -14.75 L3.45 -14.95 Q3.8 -19.15 7.7 -20.65 L7.75 -21.15 7.6 -25.75 7.8 -28.25 Q8.05 -30.1 8.85 -31.6 L9.9 -33.15 Q7.5 -31.8 6.3 -29.65 5.35 -27.9 5.1 -25.85 L4.8 -21.95 0.55 -18.7 Q-0.25 -18.1 -0.7 -17.15 L-1.6 -14.75 M-17.45 -9.2 L-17.2 -5.95 -17.15 -3.9 Q-17.15 -2.9 -16.8 -2.05 L-16.45 -1.5 -15.85 -0.9 -16.45 -1.5 -16.8 -2.05 Q-17.15 -2.9 -17.15 -3.9 L-17.2 -5.95 -17.45 -9.2 M-12.85 -21.6 L-17.9 -20.9 -26.45 -20.25 -17.9 -20.9 -12.85 -21.6 M15.7 -25.0 L15.85 -26.0 16.3 -25.15 15.85 -26.0 15.7 -25.0 Q15.35 -22.25 13.2 -20.65 11.4 -19.3 9.2 -18.2 8.15 -17.75 7.4 -16.85 L6.2 -14.95 6.9 -14.4 9.4 -13.8 9.9 -15.5 15.2 -18.95 Q16.6 -21.95 16.3 -25.15 L15.7 -25.0 M-31.5 15.25 Q-32.5 15.8 -32.2 17.55 -31.95 19.1 -31.2 19.85 -31.95 19.1 -32.2 17.55 -32.5 15.8 -31.5 15.25 M-26.15 0.45 Q-25.95 0.75 -25.4 0.2 -23.65 -1.45 -21.65 -2.75 -23.65 -1.45 -25.4 0.2 -25.95 0.75 -26.15 0.45 M-14.0 20.5 Q-12.3 19.0 -12.95 16.85 -12.3 19.0 -14.0 20.5 M3.0 42.55 L4.05 44.2 5.55 47.1 Q5.95 47.9 5.8 48.45 5.95 47.9 5.55 47.1 L4.05 44.2 3.0 42.55 M20.25 4.6 Q20.25 8.65 18.5 12.25 L17.2 14.25 Q15.7 15.95 14.45 17.9 14.0 18.55 14.0 19.3 L13.9 20.95 Q13.65 22.3 13.9 23.7 14.05 24.65 13.55 24.85 14.05 24.65 13.9 23.7 13.65 22.3 13.9 20.95 L14.0 19.3 Q14.0 18.55 14.45 17.9 15.7 15.95 17.2 14.25 L18.5 12.25 Q20.25 8.65 20.25 4.6 M29.45 4.35 L29.45 3.85 29.45 1.35 29.45 3.85 29.45 4.35 M24.55 -6.25 Q24.85 -8.6 26.0 -10.0 27.3 -11.65 29.75 -12.0 31.0 -11.5 32.15 -9.85 34.9 -6.15 34.2 -1.45 L34.2 -1.35 34.15 -1.2 34.15 -1.05 34.15 -1.0 Q33.65 2.0 32.65 4.9 32.1 6.6 31.7 8.7 L31.15 11.1 Q28.35 14.4 25.55 11.75 28.35 14.4 31.15 11.1 L31.7 8.7 Q32.1 6.6 32.65 4.9 33.65 2.0 34.15 -1.0 L34.15 -1.05 34.15 -1.2 34.2 -1.35 34.2 -1.45 Q34.9 -6.15 32.15 -9.85 31.0 -11.5 29.75 -12.0 27.3 -11.65 26.0 -10.0 24.85 -8.6 24.55 -6.25 M31.45 -1.65 L31.45 -3.65 31.25 -4.55 Q30.35 -6.65 28.95 -5.15 L28.6 -4.6 Q28.05 -2.8 26.45 -2.15 28.05 -2.8 28.6 -4.6 L28.95 -5.15 Q30.35 -6.65 31.25 -4.55 L31.45 -3.65 31.45 -1.65 M12.2 -5.25 L10.6 -5.3 9.35 -5.2 8.1 -5.05 9.35 -5.2 10.6 -5.3 12.2 -5.25 M-26.2 18.55 L-26.25 18.55 -26.25 18.6 -26.2 18.55" fill="url(#gradient0)" fill-rule="evenodd" stroke="none"/>
      <path d="M-1.75 -29.85 L-2.65 -30.45 0.4 -34.8 0.55 -34.75 -1.75 -29.85" fill="#553500" fill-rule="evenodd" stroke="none"/>
      <path d="M-7.9 -13.45 L-7.95 -13.45 -7.6 -16.0 Q-7.35 -16.9 -6.7 -17.6 -5.3 -19.1 -5.2 -21.15 L-4.7 -25.9 Q-4.3 -28.55 -2.65 -30.45 L-1.75 -29.85 Q-2.95 -25.05 -1.65 -20.15 -2.95 -19.4 -3.45 -17.95 L-4.15 -15.35 Q-4.3 -14.7 -4.9 -14.2 L-7.4 -13.55 -7.9 -13.45 M-1.6 -14.75 L-0.7 -17.15 Q-0.25 -18.1 0.55 -18.7 L4.8 -21.95 5.1 -25.85 Q5.35 -27.9 6.3 -29.65 7.5 -31.8 9.9 -33.15 L8.85 -31.6 Q8.05 -30.1 7.8 -28.25 L7.6 -25.75 7.75 -21.15 7.7 -20.65 Q3.8 -19.15 3.45 -14.95 L-1.6 -14.75 M15.7 -25.0 L16.3 -25.15 Q16.6 -21.95 15.2 -18.95 L9.9 -15.5 9.4 -13.8 6.9 -14.4 6.2 -14.95 7.4 -16.85 Q8.15 -17.75 9.2 -18.2 11.4 -19.3 13.2 -20.65 15.35 -22.25 15.7 -25.0" fill="#2f1d00" fill-rule="evenodd" stroke="none"/>
      <path d="M23.9 35.8 L17.9 41.15 Q15.6 43.4 11.4 45.9 8.95 47.35 5.8 48.45 L0.95 49.75 -10.6 52.25 Q-15.9 53.35 -21.0 51.0 -26.1 48.6 -27.65 45.4 -29.2 42.2 -30.1 38.55 -31.05 34.9 -32.3 31.95 -33.6 28.95 -34.15 26.8 L-35.1 22.8 -37.0 14.5 Q-38.5 8.0 -36.45 -1.45 L-35.85 -4.45 -35.8 -6.55 Q-35.9 -7.35 -36.75 -9.35 -37.65 -11.35 -37.55 -13.85 -37.5 -16.4 -36.35 -19.7 -35.25 -23.0 -33.9 -29.2 -33.2 -32.3 -31.75 -35.15 L-31.5 -35.65 Q-30.15 -38.25 -28.15 -40.65 -23.8 -45.9 -20.95 -47.75 -15.9 -51.1 -9.35 -51.45 L-7.9 -51.6 0.3 -52.0 Q5.75 -52.15 11.5 -49.65 L14.8 -48.0 17.05 -46.75 21.1 -44.1 29.0 -37.85 Q33.65 -33.95 36.05 -24.55 37.35 -19.5 37.7 -14.2 38.15 -7.6 37.1 -1.1 L37.05 -1.0 37.0 -0.45 36.8 0.4 Q35.9 5.15 33.85 9.65 L32.75 11.8 32.9 11.45 32.75 11.8 32.0 13.15 30.05 16.25 M-2.65 -30.45 Q-4.3 -28.55 -4.7 -25.9 L-5.2 -21.15 Q-5.3 -19.1 -6.7 -17.6 -7.35 -16.9 -7.6 -16.0 L-7.95 -13.45 -7.9 -13.45 M-7.4 -13.55 L-4.9 -14.2 Q-4.3 -14.7 -4.15 -15.35 L-3.45 -17.95 Q-2.95 -19.4 -1.65 -20.15 -2.95 -25.05 -1.75 -29.85 L0.55 -34.75 0.9 -35.65 0.4 -34.8 -2.65 -30.45 M-24.6 -9.2 Q-23.95 -9.5 -23.6 -10.05 M-18.35 19.35 Q-23.05 22.0 -26.2 20.65 -29.35 19.3 -29.4 15.65 -29.45 11.95 -27.6 6.0 -26.65 2.9 -26.15 0.45 -25.75 -1.9 -25.7 -3.7 L-25.4 -8.2 -27.8 -8.65 M-21.85 -8.05 Q-22.95 -8.3 -23.2 -9.65 L-23.7 -11.7 M-1.6 -14.75 L3.45 -14.95 Q3.8 -19.15 7.7 -20.65 L7.75 -21.15 7.6 -25.75 7.8 -28.25 Q8.05 -30.1 8.85 -31.6 L9.9 -33.15 Q7.5 -31.8 6.3 -29.65 5.35 -27.9 5.1 -25.85 L4.8 -21.95 0.55 -18.7 Q-0.25 -18.1 -0.7 -17.15 L-1.6 -14.75 M-26.45 -20.25 L-17.9 -20.9 -12.85 -21.6 M-15.85 -0.9 L-16.45 -1.5 -16.8 -2.05 Q-17.15 -2.9 -17.15 -3.9 L-17.2 -5.95 -17.45 -9.2 M16.3 -25.15 L15.85 -26.0 15.7 -25.0 Q15.35 -22.25 13.2 -20.65 11.4 -19.3 9.2 -18.2 8.15 -17.75 7.4 -16.85 L6.2 -14.95 M16.3 -25.15 Q16.6 -21.95 15.2 -18.95 L9.9 -15.5 9.4 -13.8 6.9 -14.4 M8.1 -5.05 L9.35 -5.2 10.6 -5.3 12.2 -5.25 M26.45 -2.15 Q28.05 -2.8 28.6 -4.6 L28.95 -5.15 Q30.35 -6.65 31.25 -4.55 L31.45 -3.65 31.45 -1.65 M25.55 11.75 Q28.35 14.4 31.15 11.1 L31.7 8.7 Q32.1 6.6 32.65 4.9 33.65 2.0 34.15 -1.0 L34.15 -1.05 34.15 -1.2 34.2 -1.35 34.2 -1.45 Q34.9 -6.15 32.15 -9.85 31.0 -11.5 29.75 -12.0 27.3 -11.65 26.0 -10.0 24.85 -8.6 24.55 -6.25 M29.45 1.35 L29.45 3.85 29.45 4.35 M13.55 24.85 Q14.05 24.65 13.9 23.7 13.65 22.3 13.9 20.95 L14.0 19.3 Q14.0 18.55 14.45 17.9 15.7 15.95 17.2 14.25 L18.5 12.25 Q20.25 8.65 20.25 4.6 M5.8 48.45 Q5.95 47.9 5.55 47.1 L4.05 44.2 3.0 42.55 M-12.95 16.85 Q-12.3 19.0 -14.0 20.5 M-21.65 -2.75 Q-23.65 -1.45 -25.4 0.2 -25.95 0.75 -26.15 0.45 M-31.2 19.85 Q-31.95 19.1 -32.2 17.55 -32.5 15.8 -31.5 15.25" fill="none" stroke="#000000" stroke-linecap="round" stroke-linejoin="round" stroke-width="2.0"/>
      <path d="M28.55 16.75 Q29.9 23.5 28.15 30.05 27.45 32.6 25.55 34.35 L23.9 35.8" fill="none" stroke="#000000" stroke-linecap="round" stroke-linejoin="round" stroke-width="1.5"/>
      <path d="M11.5 -49.65 L14.8 -48.0 17.05 -46.75 21.1 -44.1 29.0 -37.85 Q33.65 -33.95 36.05 -24.55 37.35 -19.5 37.7 -14.2 38.15 -7.6 37.1 -1.1 L37.05 -1.0 37.0 -0.45 36.8 0.4 Q35.9 5.15 33.85 9.65 L32.75 11.8 32.9 11.45 32.75 11.8 32.0 13.15 32.0 13.1 Q31.85 11.95 31.15 11.1 L31.7 8.7 Q32.1 6.6 32.65 4.9 33.65 2.0 34.15 -1.0 L34.15 -1.05 34.15 -1.2 34.2 -1.35 34.2 -1.45 Q34.9 -6.15 32.15 -9.85 31.0 -11.5 29.75 -12.0 27.3 -11.65 26.0 -10.0 L25.75 -10.15 24.8 -10.8 24.45 -11.1 Q23.0 -12.65 22.55 -15.45 22.15 -17.9 22.0 -20.5 L21.95 -21.2 21.5 -26.5 Q21.15 -31.15 18.65 -35.0 L18.35 -35.4 15.6 -37.65 Q13.5 -39.35 10.8 -39.8 6.75 -40.45 2.75 -39.25 L-3.0 -37.25 Q-4.55 -36.65 -6.05 -36.0 -8.15 -35.05 -10.4 -34.4 L-12.2 -33.8 Q-14.55 -32.95 -17.05 -33.05 L-18.2 -33.05 Q-20.95 -33.05 -23.5 -33.85 L-28.3 -35.55 -29.05 -35.8 -31.5 -35.65 Q-30.15 -38.25 -28.15 -40.65 -23.8 -45.9 -20.95 -47.75 -15.9 -51.1 -9.35 -51.45 L-7.9 -51.6 0.3 -52.0 Q5.75 -52.15 11.5 -49.65" fill="#000000" fill-opacity="0.23137255" fill-rule="evenodd" stroke="none"/>
    </g>
    </g>
  </g>
  <defs>
    <radialGradient cx="0" cy="0" gradientTransform="matrix(0.0543, 0.0, 0.0, 0.0824, -20.0, -3.0)" gradientUnits="userSpaceOnUse" id="gradient0" r="819.2" spreadMethod="pad">
      <stop offset="0.0" stop-color="#804317"/>
      <stop offset="0.615686274509804" stop-color="#6f3a15"/>
      <stop offset="1.0" stop-color="#42270d"/>
    </radialGradient>
  </defs>
</svg>