<svg xmlns:xlink="http://www.w3.org/1999/xlink" xmlns="http://www.w3.org/2000/svg" height="119.1px" width="213.05px">
  <g transform="matrix(1.0, 0.0, 0.0, 1.0, 94.65, 81.2)">
    <g data-characterId="919" height="64.65" transform="matrix(1.0, 0.0, 0.0, 1.0, -94.65, -45.1)" width="213.05" xlink:href="#shape0"><g id="shape0" transform="matrix(1.0, 0.0, 0.0, 1.0, 94.65, 45.1)">
      <path d="M32.0 -9.0 L31.95 -8.95 31.95 -9.0 32.0 -9.0" fill="url(#gradient0)" fill-rule="evenodd" stroke="none"/>
      <path d="M34.95 -14.5 L35.8 -14.6 37.3 -23.95 Q37.6 -25.45 38.2 -26.75 L40.85 -32.0 Q42.9 -35.55 46.0 -38.2 49.2 -40.9 53.15 -42.55 56.9 -44.05 61.0 -44.6 66.0 -44.65 70.1 -41.95 73.9 -39.35 75.6 -34.75 L76.95 -30.5 Q78.05 -26.8 78.1 -22.7 L78.1 -18.6 Q79.65 -22.55 82.55 -25.9 85.4 -29.1 89.45 -30.6 93.65 -32.15 98.05 -31.7 102.85 -31.3 106.25 -28.2 L107.3 -26.75 Q108.2 -24.95 108.7 -22.95 109.25 -20.6 109.4 -18.1 109.55 -15.75 109.35 -13.35 L108.75 -9.15 Q108.3 -6.65 108.85 -4.0 L109.4 -2.3 109.75 -1.15 Q110.3 -0.9 110.9 -0.6 L111.85 -0.3 113.65 0.4 114.6 0.5 117.3 0.9 Q118.25 3.45 117.75 6.25 L116.25 6.9 116.3 4.75 115.3 4.3 114.2 4.25 Q112.9 4.75 111.85 5.7 110.85 6.6 110.3 7.85 109.4 10.05 109.05 12.35 L107.95 13.85 107.55 13.9 101.25 12.35 92.95 10.7 84.25 10.2 74.65 10.55 64.95 11.15 56.5 11.55 47.55 10.85 41.45 10.55 41.3 10.5 Q36.7 9.75 32.25 8.3 28.6 7.05 25.45 4.9 L21.55 1.9 20.9 0.95 Q20.25 -0.85 21.9 -2.2 24.75 -4.55 28.25 -5.55 L28.75 -4.7 Q27.6 -4.1 26.6 -3.25 25.85 -2.75 25.45 -1.9 25.05 -1.2 25.1 -0.35 25.2 1.55 26.4 2.9 28.25 5.0 30.9 5.5 L32.95 6.15 38.2 6.0 46.95 6.25 52.9 6.25 62.15 6.15 71.45 6.05 80.75 6.0 90.35 6.6 97.15 8.15 105.5 9.85 Q106.3 9.9 106.75 9.25 L108.55 6.1 Q109.45 4.4 110.7 3.1 112.3 1.45 114.6 0.5 112.3 1.45 110.7 3.1 109.45 4.4 108.55 6.1 L106.75 9.25 Q106.3 9.9 105.5 9.85 L97.15 8.15 90.35 6.6 80.75 6.0 71.45 6.05 62.15 6.15 52.9 6.25 46.95 6.25 38.2 6.0 32.95 6.15 30.9 5.5 Q28.25 5.0 26.4 2.9 25.2 1.55 25.1 -0.35 25.05 -1.2 25.45 -1.9 25.85 -2.75 26.6 -3.25 27.6 -4.1 28.75 -4.7 L30.65 -5.65 29.75 -6.5 31.95 -8.95 32.0 -9.0 35.2 -13.35 34.95 -14.5 M-44.55 4.2 L-53.2 3.2 -61.85 2.15 -68.85 1.55 -72.3 1.9 -80.25 3.25 -81.75 2.55 Q-81.4 1.35 -80.35 0.95 L-76.45 -0.25 -73.2 -1.25 Q-69.85 -2.55 -66.4 -3.05 L-56.8 -2.75 -51.1 -1.25 -45.3 0.55 Q-42.55 1.5 -39.55 1.45 L-35.2 1.2 Q-32.4 1.25 -30.15 -0.1 -28.9 -0.8 -28.4 -2.2 -29.1 -6.5 -31.25 -10.3 -32.5 -12.45 -33.15 -15.1 -33.15 -15.95 -32.6 -16.75 -31.95 -17.8 -30.85 -17.55 L-30.8 -15.4 -30.15 -14.95 -30.0 -12.85 Q-29.2 -8.25 -25.95 -5.05 -24.75 -3.85 -23.1 -3.0 L-22.65 -1.05 Q-23.3 0.5 -24.8 1.55 -28.25 3.95 -32.4 4.7 L-36.3 5.2 -44.55 4.2 M35.8 -14.6 L35.9 -13.55 36.1 -11.7 36.0 -9.65 34.8 -8.45 Q33.0 -6.8 30.65 -5.65 33.0 -6.8 34.8 -8.45 L36.0 -9.65 36.1 -11.7 35.9 -13.55 35.8 -14.6 M37.25 -14.0 L37.5 -14.35 37.6 -14.95 Q37.2 -19.9 39.0 -24.5 40.8 -28.95 43.95 -32.4 46.9 -35.75 50.7 -38.0 53.15 -39.4 55.85 -40.35 60.15 -41.95 64.65 -40.7 60.15 -41.95 55.85 -40.35 53.15 -39.4 50.7 -38.0 46.9 -35.75 43.95 -32.4 40.8 -28.95 39.0 -24.5 37.2 -19.9 37.6 -14.95 L37.5 -14.35 37.25 -14.0 M28.3 3.45 Q27.25 2.55 27.0 1.05 26.85 0.2 27.15 -0.55 27.4 -1.3 28.0 -1.9 29.1 -2.95 30.55 -3.55 L39.55 -7.1 30.55 -3.55 Q29.1 -2.95 28.0 -1.9 27.4 -1.3 27.15 -0.55 26.85 0.2 27.0 1.05 27.25 2.55 28.3 3.45 M63.3 -30.1 Q62.1 -31.15 60.9 -31.75 59.5 -32.35 58.05 -32.2 L56.05 -31.8 Q54.8 -31.35 53.65 -30.7 50.5 -28.8 49.0 -25.5 48.15 -23.55 48.55 -21.55 L48.85 -20.65 53.8 -20.05 Q57.3 -19.3 60.45 -18.0 62.05 -17.25 63.7 -17.4 L64.45 -21.3 Q65.35 -25.95 63.3 -30.1 M77.8 -17.7 L78.1 -18.6 77.8 -17.7 M97.55 -4.35 L90.0 -5.0 82.7 -5.55 73.25 -7.65 Q69.15 -8.5 65.1 -9.5 L55.4 -11.4 46.85 -12.2 42.55 -12.65 46.85 -12.2 55.4 -11.4 65.1 -9.5 Q69.15 -8.5 73.25 -7.65 L82.7 -5.55 90.0 -5.0 97.55 -4.35 M99.95 -12.95 Q100.1 -16.35 98.65 -19.2 L97.7 -19.95 Q96.15 -20.75 94.5 -21.0 91.8 -21.5 89.7 -19.8 L88.85 -19.05 Q86.65 -16.9 87.55 -14.0 L99.85 -11.5 99.95 -12.95 M-31.55 -15.15 L-28.5 -6.8 -27.1 -3.6 Q-26.55 -2.5 -26.25 -1.3 L-26.25 -0.15 -26.65 0.65 Q-28.25 2.4 -30.8 2.15 L-32.45 2.95 -34.25 3.5 -38.8 3.5 -46.0 2.5 -48.7 1.65 Q-52.9 -0.3 -57.55 0.7 -52.9 -0.3 -48.7 1.65 L-46.0 2.5 -38.8 3.5 -34.25 3.5 -32.45 2.95 -30.8 2.15 Q-28.25 2.4 -26.65 0.65 L-26.25 -0.15 -26.25 -1.3 Q-26.55 -2.5 -27.1 -3.6 L-28.5 -6.8 -31.55 -15.15 M23.25 -0.45 Q23.6 1.6 25.1 3.2 26.0 4.15 27.05 4.95 28.5 6.0 30.25 6.6 34.8 8.1 39.55 8.15 L48.3 8.2 55.2 7.6 48.3 8.2 39.55 8.15 Q34.8 8.1 30.25 6.6 28.5 6.0 27.05 4.95 26.0 4.15 25.1 3.2 23.6 1.6 23.25 -0.45" fill="url(#gradient1)" fill-rule="evenodd" stroke="none"/>
      <path d="M-81.75 2.55 L-84.45 2.55 -84.95 2.05 Q-85.5 1.55 -86.15 1.3 L-91.15 0.8 -92.4 -2.6 -93.5 -6.15 Q-94.75 -10.5 -93.55 -14.85 -92.7 -18.0 -90.9 -20.4 -88.5 -23.65 -84.55 -24.65 -80.9 -25.6 -77.25 -24.15 -74.95 -23.15 -72.95 -21.5 -70.25 -19.3 -68.35 -16.55 L-67.5 -21.05 Q-67.0 -23.25 -66.05 -25.3 -64.05 -29.6 -60.0 -31.75 L-57.4 -32.8 -51.55 -32.65 Q-47.25 -31.35 -43.6 -28.9 -41.5 -27.45 -40.0 -25.4 L-38.3 -22.95 Q-35.85 -19.2 -34.5 -14.95 L-33.15 -15.1 Q-32.5 -12.45 -31.25 -10.3 -29.1 -6.5 -28.4 -2.2 -28.9 -0.8 -30.15 -0.1 -32.4 1.25 -35.2 1.2 L-39.55 1.45 Q-42.55 1.5 -45.3 0.55 L-51.1 -1.25 -56.8 -2.75 -66.4 -3.05 Q-69.85 -2.55 -73.2 -1.25 L-76.45 -0.25 -80.35 0.95 Q-81.4 1.35 -81.75 2.55 M-84.7 -9.2 L-82.35 -9.7 Q-80.45 -10.0 -78.9 -11.25 L-81.75 -16.35 -84.6 -15.5 -85.4 -14.6 Q-86.3 -12.05 -85.35 -9.45 L-84.7 -9.2 M-52.7 -30.8 L-46.55 -27.5 Q-44.0 -26.2 -42.1 -24.2 -41.15 -23.2 -40.45 -22.0 L-36.15 -14.0 -40.45 -22.0 Q-41.15 -23.2 -42.1 -24.2 -44.0 -26.2 -46.55 -27.5 L-52.7 -30.8 M-59.1 -15.45 L-46.7 -16.55 -47.25 -19.2 Q-47.65 -20.9 -48.4 -22.35 -49.05 -23.65 -50.4 -24.35 -51.05 -24.75 -51.75 -24.8 L-54.45 -24.95 Q-55.7 -24.7 -56.6 -23.8 -60.15 -20.45 -59.1 -15.45 L-59.8 -15.2 -59.1 -15.45 M-78.25 -8.95 L-69.5 -9.15 -60.5 -9.15 -54.05 -9.15 -45.55 -9.65 -54.05 -9.15 -60.5 -9.15 -69.5 -9.15 -78.25 -8.95" fill="url(#gradient2)" fill-rule="evenodd" stroke="none"/>
      <path d="M-25.1 -18.5 L-23.55 -18.35 -24.2 -13.0 Q-16.75 -9.65 -6.95 -9.75 L0.45 -10.0 Q9.5 -10.85 18.15 -13.65 21.25 -14.7 24.15 -16.4 L26.55 -18.0 Q27.2 -18.45 30.05 -19.45 L30.25 -19.55 30.45 -19.9 30.8 -20.2 31.0 -20.4 30.65 -21.2 30.55 -24.6 Q33.1 -25.25 34.5 -23.25 L35.7 -21.05 Q35.9 -20.55 35.6 -19.3 35.25 -18.1 35.5 -16.95 35.75 -15.8 33.8 -14.5 L34.95 -14.5 35.2 -13.35 32.0 -9.0 31.95 -9.0 31.95 -8.95 29.75 -6.5 28.25 -5.55 Q24.75 -4.55 21.9 -2.2 20.25 -0.85 20.9 0.95 L21.55 1.9 25.45 4.9 Q28.6 7.05 32.25 8.3 36.7 9.75 41.3 10.5 L41.45 10.6 41.2 11.1 41.35 13.0 41.2 13.9 40.85 14.75 36.1 16.25 26.8 17.7 17.0 18.25 8.15 18.55 1.15 19.05 -7.0 19.05 -16.4 18.7 -25.65 17.75 -32.8 16.35 Q-37.05 15.4 -41.1 13.8 -42.1 13.45 -42.85 12.75 -43.45 12.25 -43.65 11.6 -44.7 8.25 -44.65 4.85 L-44.55 4.2 -36.3 5.2 -32.4 4.7 Q-28.25 3.95 -24.8 1.55 -23.3 0.5 -22.65 -1.05 L-23.1 -3.0 Q-24.75 -3.85 -25.95 -5.05 -29.2 -8.25 -30.0 -12.85 L-27.95 -13.75 Q-27.0 -17.1 -25.15 -18.5 L-25.1 -18.5 M23.0 -10.55 L25.05 -5.9 Q20.8 -3.85 16.5 -2.6 12.15 -1.4 7.8 -1.35 3.05 -1.3 -1.65 -1.4 L-10.4 -1.55 Q-15.05 -2.0 -19.3 -4.25 L-23.25 -6.45 -22.15 -10.0 -23.25 -6.45 -19.3 -4.25 Q-15.05 -2.0 -10.4 -1.55 L-1.65 -1.4 Q3.05 -1.3 7.8 -1.35 12.15 -1.4 16.5 -2.6 20.8 -3.85 25.05 -5.9 L23.0 -10.55 M-15.65 -3.45 L-14.15 -8.25 Q-9.65 -7.55 -5.1 -8.1 L0.9 -8.45 6.65 -9.1 Q8.35 -9.1 10.15 -9.8 L12.45 -10.5 16.8 -11.6 Q20.85 -12.6 24.4 -14.95 L26.65 -16.5 24.4 -14.95 Q20.85 -12.6 16.8 -11.6 L12.45 -10.5 10.15 -9.8 Q8.35 -9.1 6.65 -9.1 L0.9 -8.45 -5.1 -8.1 Q-9.65 -7.55 -14.15 -8.25 L-15.65 -3.45 M30.45 -19.9 L30.7 -20.15 30.8 -20.2 30.7 -20.15 30.45 -19.9 M31.45 -22.3 Q31.75 -21.55 30.65 -21.2 31.75 -21.55 31.45 -22.3 M28.3 -17.6 L28.85 -18.2 30.05 -19.45 28.85 -18.2 28.3 -17.6 32.1 -11.35 33.8 -14.5 32.1 -11.35 28.3 -17.6 26.65 -16.5 28.3 -17.6 M29.65 -10.85 L26.65 -16.5 29.65 -10.85 M32.1 -11.35 Q30.2 -8.7 27.2 -7.15 L25.05 -5.9 27.2 -7.15 Q30.2 -8.7 32.1 -11.35 M24.6 -14.25 L27.6 -8.95 24.6 -14.25 M-24.9 -13.75 L-25.65 -8.45 Q-28.05 -10.95 -28.05 -12.45 L-27.95 -13.75 -28.05 -12.45 Q-28.05 -10.95 -25.65 -8.45 L-24.9 -13.75 M-23.25 -6.45 L-25.65 -8.45 -23.25 -6.45 M-17.75 -4.35 L-16.8 -8.75 -14.15 -8.25 -16.8 -8.75 -17.75 -4.35 M-16.6 -9.9 L-16.8 -8.75 -20.5 -10.35 -16.8 -8.75 -16.6 -9.9 M17.05 -0.45 L16.4 0.9 2.8 1.95 1.35 2.25 Q0.35 2.65 -0.1 3.4 -0.95 4.9 -1.35 6.7 -4.7 3.35 -9.0 1.45 -13.1 -0.45 -17.45 -0.7 -13.1 -0.45 -9.0 1.45 -4.7 3.35 -1.35 6.7 -0.95 4.9 -0.1 3.4 0.35 2.65 1.35 2.25 L2.8 1.95 16.4 0.9 17.05 -0.45 M-3.95 7.6 Q-4.05 5.85 -5.5 5.25 L-9.25 3.6 Q-13.4 1.8 -17.95 1.15 -13.4 1.8 -9.25 3.6 L-5.5 5.25 Q-4.05 5.85 -3.95 7.6 M0.2 6.7 Q0.25 5.75 0.75 4.9 1.7 3.45 3.25 3.0 7.1 2.05 11.25 2.05 L20.0 2.1 11.25 2.05 Q7.1 2.05 3.25 3.0 1.7 3.45 0.75 4.9 0.25 5.75 0.2 6.7" fill="url(#gradient3)" fill-rule="evenodd" stroke="none"/>
      <path d="M-25.1 -18.5 L-23.55 -18.35 -24.2 -13.0 Q-16.75 -9.65 -6.95 -9.75 L0.45 -10.0 Q9.5 -10.85 18.15 -13.65 21.25 -14.7 24.15 -16.4 L26.55 -18.0 Q27.2 -18.45 30.05 -19.45 L30.25 -19.55 30.45 -19.9 30.8 -20.2 31.0 -20.4 30.65 -21.2 30.55 -24.6 Q33.1 -25.25 34.5 -23.25 L35.7 -21.05 Q35.9 -20.55 35.6 -19.3 35.25 -18.1 35.5 -16.95 35.75 -15.8 33.8 -14.5 L34.95 -14.5 M35.8 -14.6 L37.3 -23.95 Q37.6 -25.45 38.2 -26.75 L40.85 -32.0 Q42.9 -35.55 46.0 -38.2 49.2 -40.9 53.15 -42.55 56.9 -44.05 61.0 -44.6 66.0 -44.65 70.1 -41.95 73.9 -39.35 75.6 -34.75 L76.95 -30.5 Q78.05 -26.8 78.1 -22.7 L78.1 -18.6 Q79.65 -22.55 82.55 -25.9 85.4 -29.1 89.45 -30.6 93.65 -32.15 98.05 -31.7 102.85 -31.3 106.25 -28.2 L107.3 -26.75 Q108.2 -24.95 108.7 -22.95 109.25 -20.6 109.4 -18.1 109.55 -15.75 109.35 -13.35 L108.75 -9.15 Q108.3 -6.65 108.85 -4.0 L109.4 -2.3 109.75 -1.15 Q110.3 -0.9 110.9 -0.6 L111.85 -0.3 113.65 0.4 114.6 0.5 117.3 0.9 Q118.25 3.45 117.75 6.25 L116.25 6.9 115.9 7.2 112.4 9.65 109.05 12.35 107.95 13.85 107.55 13.9 101.25 12.35 92.95 10.7 84.25 10.2 74.65 10.55 64.95 11.15 56.5 11.55 47.55 10.85 41.45 10.55 41.45 10.6 41.2 11.1 41.35 13.0 41.2 13.9 40.85 14.75 36.1 16.25 26.8 17.7 17.0 18.25 8.15 18.55 1.15 19.05 -7.0 19.05 -16.4 18.7 -25.65 17.75 -32.8 16.35 Q-37.05 15.4 -41.1 13.8 -42.1 13.45 -42.85 12.75 -43.45 12.25 -43.65 11.6 -44.7 8.25 -44.65 4.85 M-44.55 4.2 L-53.2 3.2 -61.85 2.15 -68.85 1.55 -72.3 1.9 -80.25 3.25 -81.75 2.55 -84.45 2.55 -84.95 2.05 Q-85.5 1.55 -86.15 1.3 L-91.15 0.8 -92.4 -2.6 -93.5 -6.15 Q-94.75 -10.5 -93.55 -14.85 -92.7 -18.0 -90.9 -20.4 -88.5 -23.65 -84.55 -24.65 -80.9 -25.6 -77.25 -24.15 -74.95 -23.15 -72.95 -21.5 -70.25 -19.3 -68.35 -16.55 L-67.5 -21.05 Q-67.0 -23.25 -66.05 -25.3 -64.05 -29.6 -60.0 -31.75 L-57.4 -32.8 -51.55 -32.65 Q-47.25 -31.35 -43.6 -28.9 -41.5 -27.45 -40.0 -25.4 L-38.3 -22.95 Q-35.85 -19.2 -34.5 -14.95 M-33.15 -15.1 Q-33.15 -15.95 -32.6 -16.75 -31.95 -17.8 -30.85 -17.55 L-30.8 -15.4 M-30.15 -14.95 L-30.0 -12.85 -27.95 -13.75 Q-27.0 -17.1 -25.15 -18.5 M-22.15 -10.0 L-23.25 -6.45 -19.3 -4.25 Q-15.05 -2.0 -10.4 -1.55 L-1.65 -1.4 Q3.05 -1.3 7.8 -1.35 12.15 -1.4 16.5 -2.6 20.8 -3.85 25.05 -5.9 L23.0 -10.55 M28.3 -17.6 L32.1 -11.35 33.8 -14.5 M35.2 -13.35 L32.0 -9.0 31.95 -9.0 31.95 -8.95 29.75 -6.5 28.25 -5.55 Q24.75 -4.55 21.9 -2.2 20.25 -0.85 20.9 0.95 L21.55 1.9 25.45 4.9 Q28.6 7.05 32.25 8.3 36.7 9.75 41.3 10.5 L41.45 10.55 M30.65 -5.65 Q33.0 -6.8 34.8 -8.45 L36.0 -9.65 36.1 -11.7 35.9 -13.55 35.8 -14.6 M26.65 -16.5 L29.65 -10.85 M114.6 0.5 Q112.3 1.45 110.7 3.1 109.45 4.4 108.55 6.1 L106.75 9.25 Q106.3 9.9 105.5 9.85 L97.15 8.15 90.35 6.6 80.75 6.0 71.45 6.05 62.15 6.15 52.9 6.25 46.95 6.25 38.2 6.0 32.95 6.15 30.9 5.5 Q28.25 5.0 26.4 2.9 25.2 1.55 25.1 -0.35 25.05 -1.2 25.45 -1.9 25.85 -2.75 26.6 -3.25 27.6 -4.1 28.75 -4.7 L30.65 -5.65 M25.05 -5.9 L27.2 -7.15 Q30.2 -8.7 32.1 -11.35 M63.3 -30.1 Q65.35 -25.95 64.45 -21.3 L63.7 -17.4 Q62.05 -17.25 60.45 -18.0 57.3 -19.3 53.8 -20.05 L48.85 -20.65 48.55 -21.55 Q48.15 -23.55 49.0 -25.5 50.5 -28.8 53.65 -30.7 54.8 -31.35 56.05 -31.8 L58.05 -32.2 Q59.5 -32.35 60.9 -31.75 62.1 -31.15 63.3 -30.1 M42.55 -12.65 L46.85 -12.2 55.4 -11.4 65.1 -9.5 Q69.15 -8.5 73.25 -7.65 L82.7 -5.55 90.0 -5.0 97.55 -4.35 M78.1 -18.6 L77.8 -17.7 M99.95 -12.95 L99.85 -11.5 87.55 -14.0 Q86.65 -16.9 88.85 -19.05 L89.7 -19.8 Q91.8 -21.5 94.5 -21.0 96.15 -20.75 97.7 -19.95 L98.65 -19.2 Q100.1 -16.35 99.95 -12.95 M-85.35 -9.45 Q-86.3 -12.05 -85.4 -14.6 L-84.6 -15.5 -81.75 -16.35 -78.9 -11.25 Q-80.45 -10.0 -82.35 -9.7 L-84.7 -9.2 M-59.1 -15.45 Q-60.15 -20.45 -56.6 -23.8 -55.7 -24.7 -54.45 -24.95 L-51.75 -24.8 Q-51.05 -24.75 -50.4 -24.35 -49.05 -23.65 -48.4 -22.35 -47.65 -20.9 -47.25 -19.2 L-46.7 -16.55 -59.1 -15.45 -59.8 -15.2 M-33.15 -15.1 Q-32.5 -12.45 -31.25 -10.3 -29.1 -6.5 -28.4 -2.2 -28.9 -0.8 -30.15 -0.1 -32.4 1.25 -35.2 1.2 L-39.55 1.45 Q-42.55 1.5 -45.3 0.55 L-51.1 -1.25 -56.8 -2.75 -66.4 -3.05 Q-69.85 -2.55 -73.2 -1.25 L-76.45 -0.25 -80.35 0.95 Q-81.4 1.35 -81.75 2.55 M-45.55 -9.65 L-54.05 -9.15 -60.5 -9.15 -69.5 -9.15 -78.25 -8.95 M-27.95 -13.75 L-28.05 -12.45 Q-28.05 -10.95 -25.65 -8.45 L-24.9 -13.75 M-44.55 4.2 L-36.3 5.2 -32.4 4.7 Q-28.25 3.95 -24.8 1.55 -23.3 0.5 -22.65 -1.05 L-23.1 -3.0 Q-24.75 -3.85 -25.95 -5.05 -29.2 -8.25 -30.0 -12.85 M-25.65 -8.45 L-23.25 -6.45 M-17.45 -0.7 Q-13.1 -0.45 -9.0 1.45 -4.7 3.35 -1.35 6.7 -0.95 4.9 -0.1 3.4 0.35 2.65 1.35 2.25 L2.8 1.95 16.4 0.9 17.05 -0.45 M116.25 6.9 L116.3 4.75 115.3 4.3 114.2 4.25 Q112.9 4.75 111.85 5.7 110.85 6.6 110.3 7.85 109.4 10.05 109.05 12.35" fill="none" stroke="#000000" stroke-linecap="round" stroke-linejoin="round" stroke-width="2.0"/>
      <path d="M30.05 -19.45 L30.45 -19.9 30.7 -20.15 30.8 -20.2 30.65 -21.2 Q31.75 -21.55 31.45 -22.3 M26.65 -16.5 L24.4 -14.95 Q20.85 -12.6 16.8 -11.6 L12.45 -10.5 10.15 -9.8 Q8.35 -9.1 6.65 -9.1 L0.9 -8.45 -5.1 -8.1 Q-9.65 -7.55 -14.15 -8.25 L-15.65 -3.45 M30.05 -19.45 L28.85 -18.2 28.3 -17.6 26.65 -16.5 M64.65 -40.7 Q60.15 -41.95 55.85 -40.35 53.15 -39.4 50.7 -38.0 46.9 -35.75 43.95 -32.4 40.8 -28.95 39.0 -24.5 37.2 -19.9 37.6 -14.95 L37.5 -14.35 37.25 -14.0 M39.55 -7.1 L30.55 -3.55 Q29.1 -2.95 28.0 -1.9 27.4 -1.3 27.15 -0.55 26.85 0.2 27.0 1.05 27.25 2.55 28.3 3.45 M27.6 -8.95 L24.6 -14.25 M-36.15 -14.0 L-40.45 -22.0 Q-41.15 -23.2 -42.1 -24.2 -44.0 -26.2 -46.55 -27.5 L-52.7 -30.8 M-57.55 0.7 Q-52.9 -0.3 -48.7 1.65 L-46.0 2.5 -38.8 3.5 -34.25 3.5 -32.45 2.95 -30.8 2.15 Q-28.25 2.4 -26.65 0.65 L-26.25 -0.15 -26.25 -1.3 Q-26.55 -2.5 -27.1 -3.6 L-28.5 -6.8 -31.55 -15.15 M-20.5 -10.35 L-16.8 -8.75 -16.6 -9.9 M-14.15 -8.25 L-16.8 -8.75 -17.75 -4.35 M-17.95 1.15 Q-13.4 1.8 -9.25 3.6 L-5.5 5.25 Q-4.05 5.85 -3.95 7.6 M55.2 7.6 L48.3 8.2 39.55 8.15 Q34.8 8.1 30.25 6.6 28.5 6.0 27.05 4.95 26.0 4.15 25.1 3.2 23.6 1.6 23.25 -0.45 M20.0 2.1 L11.25 2.05 Q7.1 2.05 3.25 3.0 1.7 3.45 0.75 4.9 0.25 5.75 0.2 6.7" fill="none" stroke="#fff4e7" stroke-linecap="round" stroke-linejoin="round" stroke-width="1.5"/>
    </g>
    </g>
  </g>
  <defs>
    <radialGradient cx="0" cy="0" gradientTransform="matrix(0.0186, -0.0332, 0.0424, 0.0238, 56.0, -18.5)" gradientUnits="userSpaceOnUse" id="gradient0" r="819.2" spreadMethod="pad">
      <stop offset="0.0" stop-color="#ffffff"/>
      <stop offset="0.5215686274509804" stop-color="#d3cbc5"/>
      <stop offset="1.0" stop-color="#746558"/>
    </radialGradient>
    <radialGradient cx="0" cy="0" gradientTransform="matrix(0.0186, -0.0332, 0.0424, 0.0238, 56.0, -18.5)" gradientUnits="userSpaceOnUse" id="gradient1" r="819.2" spreadMethod="pad">
      <stop offset="0.0" stop-color="#fff4e7"/>
      <stop offset="0.5215686274509804" stop-color="#d3c4b2"/>
      <stop offset="1.0" stop-color="#836c58"/>
    </radialGradient>
    <radialGradient cx="0" cy="0" gradientTransform="matrix(0.0436, 0.0, 0.0, 0.0436, -53.65, -11.95)" gradientUnits="userSpaceOnUse" id="gradient2" r="819.2" spreadMethod="pad">
      <stop offset="0.0" stop-color="#fff4e7"/>
      <stop offset="0.5215686274509804" stop-color="#d3c4b2"/>
      <stop offset="1.0" stop-color="#836c58"/>
    </radialGradient>
    <radialGradient cx="0" cy="0" gradientTransform="matrix(0.0381, 0.0, 0.0, 0.0381, 3.35, -13.0)" gradientUnits="userSpaceOnUse" id="gradient3" r="819.2" spreadMethod="pad">
      <stop offset="0.0" stop-color="#fff4e7"/>
      <stop offset="0.5215686274509804" stop-color="#d3c4b2"/>
      <stop offset="1.0" stop-color="#836c58"/>
    </radialGradient>
  </defs>
</svg>