<svg xmlns:xlink="http://www.w3.org/1999/xlink" xmlns="http://www.w3.org/2000/svg" height="264.15px" width="342.25px">
  <g transform="matrix(1.0, 0.0, 0.0, 1.0, 243.25, 83.7)">
    <g data-characterId="1156" height="151.95" transform="matrix(1.0, 0.0, 0.0, 1.0, -51.95, -49.65)" width="117.95" xlink:href="#shape0"><g id="shape0" transform="matrix(1.0, 0.0, 0.0, 1.0, 51.95, 49.65)">
      <path d="M-42.35 50.1 L-43.45 49.75 Q-45.25 38.65 -40.95 28.1 -35.45 14.55 -36.15 -0.05 L-35.15 0.0 Q-33.45 0.0 -31.95 -0.6 -33.2 3.0 -32.3 6.9 -30.85 12.95 -34.65 18.4 L-33.95 22.35 Q-32.4 30.45 -29.2 38.2 -36.95 40.05 -41.0 47.45 L-42.35 50.1 M-34.9 -13.85 L-34.5 -14.1 -33.35 -13.25 -34.9 -13.85 M23.8 40.6 L23.85 40.6 24.15 41.4 23.8 40.6 M28.75 3.45 L28.1 6.5 Q27.65 8.4 26.45 10.05 L25.9 8.9 25.05 11.4 Q24.3 13.5 22.75 14.95 L22.9 13.05 Q23.05 10.1 21.6 7.6 L20.55 8.0 20.2 6.35 Q19.65 3.6 18.0 1.4 L18.15 0.75 28.75 3.2 28.75 3.45 M44.35 48.65 L44.3 49.15 43.05 49.8 42.3 48.45 44.35 48.65 M23.2 54.45 L23.1 54.5 23.0 54.05 23.2 54.45" fill="#4b2705" fill-rule="evenodd" stroke="none"/>
      <path d="M42.6 -2.05 L37.4 -4.6 34.75 -5.6 31.7 -6.55 29.3 -7.2 Q27.05 -7.65 25.05 -8.35 27.05 -7.65 29.3 -7.2 L31.7 -6.55 34.75 -5.6 37.4 -4.6 42.6 -2.05 M33.1 -30.8 Q29.75 -29.35 26.2 -29.9 L21.9 -30.65 Q19.55 -31.05 17.4 -32.0 12.9 -33.9 8.05 -34.55 L2.05 -35.55 Q-3.05 -36.6 -8.05 -35.7 -3.05 -36.6 2.05 -35.55 L8.05 -34.55 Q12.9 -33.9 17.4 -32.0 19.55 -31.05 21.9 -30.65 L26.2 -29.9 Q29.75 -29.35 33.1 -30.8 M38.25 -20.15 L40.3 -18.4 45.7 -14.05 Q48.4 -11.85 51.5 -4.8 48.4 -11.85 45.7 -14.05 L40.3 -18.4 38.25 -20.15 M-34.25 -15.0 Q-29.2 -29.1 -21.8 -42.1 -19.1 -46.9 -13.85 -47.9 0.6 -50.95 14.7 -46.7 26.5 -43.05 36.9 -35.95 43.4 -31.45 47.1 -25.85 51.3 -19.5 51.6 -12.25 L51.65 -9.25 51.5 -4.8 51.2 -1.65 50.25 4.1 Q49.7 6.95 50.0 9.9 L48.7 10.1 50.05 10.05 50.55 14.65 50.5 14.85 50.55 15.05 51.4 35.2 Q51.5 42.75 52.65 46.8 53.75 50.75 54.4 52.3 53.45 50.95 54.25 52.25 51.85 50.8 48.35 49.65 L44.35 48.65 42.3 48.45 Q32.3 49.6 23.2 54.45 L23.0 54.05 Q22.2 47.6 24.15 41.4 L24.45 40.4 26.85 30.5 Q30.4 17.0 28.8 3.35 L28.85 3.25 28.75 3.2 18.15 0.75 Q15.35 -0.15 12.95 -1.6 5.2 -6.5 -3.9 -6.0 -18.15 -4.55 -31.95 -0.6 -33.45 0.0 -35.15 0.0 L-36.15 -0.05 Q-40.35 -7.2 -34.9 -13.85 L-33.35 -13.25 -34.5 -14.1 -34.25 -15.0 M33.65 -15.85 L41.35 -10.9 Q44.35 -9.0 46.9 -6.1 L50.4 -1.75 46.7 -2.95 43.0 -4.1 Q32.5 -9.0 21.0 -11.55 32.5 -9.0 43.0 -4.1 L46.7 -2.95 50.4 -1.75 46.9 -6.1 Q44.35 -9.0 41.35 -10.9 L33.65 -15.85 M31.05 -35.4 Q24.8 -31.95 16.95 -35.4 3.15 -41.35 -11.2 -38.55 3.15 -41.35 16.95 -35.4 24.8 -31.95 31.05 -35.4 M-2.6 -46.05 L-4.6 -46.35 -8.9 -46.25 -10.65 -46.15 -16.15 -45.0 Q-17.45 -44.55 -18.2 -43.25 L-20.35 -39.1 -20.8 -38.05 -21.25 -37.15 -24.2 -31.95 -24.65 -30.5 Q-24.8 -29.3 -25.4 -28.25 L-26.05 -27.0 -30.8 -16.7 -26.05 -27.0 -25.4 -28.25 Q-24.8 -29.3 -24.65 -30.5 L-24.2 -31.95 -21.25 -37.15 -20.8 -38.05 -20.35 -39.1 -18.2 -43.25 Q-17.45 -44.55 -16.15 -45.0 L-10.65 -46.15 -8.9 -46.25 -4.6 -46.35 -2.6 -46.05 M-2.3 -17.0 L-5.05 -16.85 -33.35 -13.25 -5.05 -16.85 -2.3 -17.0 M6.9 -13.85 Q1.6 -15.2 -3.75 -14.4 L-11.2 -13.65 -20.7 -12.65 -26.8 -11.9 -31.05 -11.25 -26.8 -11.9 -20.7 -12.65 -11.2 -13.65 -3.75 -14.4 Q1.6 -15.2 6.9 -13.85 M-33.35 -11.55 L-34.75 -9.35 Q-35.55 -7.4 -35.45 -5.2 L-35.15 -3.85 Q-34.8 -2.8 -35.1 -2.6 -34.8 -2.8 -35.15 -3.85 L-35.45 -5.2 Q-35.55 -7.4 -34.75 -9.35 L-33.35 -11.55 M48.7 10.1 L47.95 10.0 38.35 6.7 28.85 3.25 38.35 6.7 47.95 10.0 48.7 10.1 M47.45 18.7 L46.9 18.45 44.05 17.65 Q39.85 16.35 35.65 17.25 39.85 16.35 44.05 17.65 L46.9 18.45 47.45 18.7 M46.05 41.7 L45.2 41.6 44.0 41.35 Q38.2 40.7 32.5 41.65 L31.95 41.7 32.5 41.65 Q38.2 40.7 44.0 41.35 L45.2 41.6 46.05 41.7 M47.2 25.6 L46.05 25.5 42.3 24.65 Q38.4 23.55 34.5 24.7 38.4 23.55 42.3 24.65 L46.05 25.5 47.2 25.6 M33.95 33.65 Q39.6 32.6 45.25 34.55 L47.6 34.8 45.25 34.55 Q39.6 32.6 33.95 33.65 M50.2 43.0 L50.2 43.05 50.5 43.7 50.2 43.0 M31.65 6.0 L31.5 6.6 31.5 8.05 31.4 10.35 31.2 12.05 30.5 17.25 30.1 22.4 30.0 23.55 29.7 26.75 29.2 29.85 29.0 31.1 Q28.75 33.2 27.9 35.1 L27.5 36.55 Q26.8 40.6 25.6 44.55 L25.45 45.7 Q25.4 47.85 25.9 49.75 25.4 47.85 25.45 45.7 L25.6 44.55 Q26.8 40.6 27.5 36.55 L27.9 35.1 Q28.75 33.2 29.0 31.1 L29.2 29.85 29.7 26.75 30.0 23.55 30.1 22.4 30.5 17.25 31.2 12.05 31.4 10.35 31.5 8.05 31.5 6.6 31.65 6.0 M33.1 11.5 L33.15 12.5 Q31.55 25.7 29.55 39.0 31.55 25.7 33.15 12.5 L33.1 11.5 M29.55 39.0 L29.35 39.05 29.5 39.05 29.55 39.1 29.55 39.0 M28.75 46.3 L29.55 39.1 28.75 46.3" fill="url(#gradient0)" fill-rule="evenodd" stroke="none"/>
      <path d="M54.25 52.25 L55.05 55.6 Q55.35 56.75 56.15 58.35 56.9 59.95 58.2 62.05 59.8 63.45 61.9 66.2 64.0 68.9 64.45 72.55 65.75 75.85 65.45 78.55 64.8 83.45 52.25 89.55 39.7 95.6 23.05 96.1 6.4 96.55 -7.65 96.6 -7.15 81.9 -2.7 68.4 -1.5 64.8 1.85 62.85 L1.75 60.4 1.15 59.55 0.6 59.55 -4.2 59.45 Q-14.15 60.1 -22.5 55.25 -9.85 55.55 1.45 50.45 L23.8 40.6 24.15 41.4 Q22.2 47.6 23.0 54.05 L23.1 54.5 23.2 54.45 Q32.3 49.6 42.3 48.45 L43.05 49.8 44.3 49.15 44.35 48.65 48.35 49.65 Q51.85 50.8 54.25 52.25 M-34.3 90.7 L-35.1 90.6 Q-43.6 87.5 -48.95 80.35 -51.9 76.3 -51.4 71.5 -50.2 60.45 -43.0 51.6 L-42.35 50.1 -41.0 47.45 Q-36.95 40.05 -29.2 38.2 L-27.35 43.1 Q-25.25 47.8 -24.75 52.65 L-25.15 53.25 -25.2 53.2 -27.3 51.4 -28.9 49.85 -29.65 50.6 -30.8 54.2 -28.75 55.85 Q-30.9 73.35 -34.3 90.7 M18.4 46.85 Q17.95 47.3 17.0 47.55 L13.85 48.45 12.6 48.8 Q9.45 49.7 6.4 50.95 L5.4 51.3 Q4.4 51.55 3.5 52.15 L2.85 52.5 0.65 53.3 -0.35 53.65 -1.95 54.2 -3.8 54.75 -8.35 56.35 -9.7 56.5 Q-10.75 56.25 -11.5 56.95 -10.75 56.25 -9.7 56.5 L-8.35 56.35 -3.8 54.75 -1.95 54.2 -0.35 53.65 0.65 53.3 2.85 52.5 3.5 52.15 Q4.4 51.55 5.4 51.3 L6.4 50.95 Q9.45 49.7 12.6 48.8 L13.85 48.45 17.0 47.55 Q17.95 47.3 18.4 46.85 M-43.15 56.35 L-46.55 61.85 -48.05 65.0 Q-50.05 70.0 -49.75 75.95 -50.05 70.0 -48.05 65.0 L-46.55 61.85 -43.15 56.35 M-32.8 41.7 L-34.8 43.15 Q-39.4 46.35 -41.15 51.45 -39.4 46.35 -34.8 43.15 L-32.8 41.7 M-34.25 63.0 L-36.15 61.1 Q-40.5 56.85 -43.0 51.6 -40.5 56.85 -36.15 61.1 L-34.25 63.0 M16.95 52.35 L12.3 54.85 8.35 56.7 3.45 58.7 2.3 58.95 Q1.25 59.0 0.6 59.55 1.25 59.0 2.3 58.95 L3.45 58.7 8.35 56.7 12.3 54.85 16.95 52.35 M-33.65 44.3 Q-31.5 47.25 -28.9 49.85 -31.5 47.25 -33.65 44.3 M27.95 71.6 L30.8 71.3 Q46.05 69.55 56.15 58.35 46.05 69.55 30.8 71.3 L27.95 71.6 M2.6 70.75 Q16.1 69.7 27.35 60.3 34.65 54.2 43.05 49.8 34.65 54.2 27.35 60.3 16.1 69.7 2.6 70.75 M56.7 77.95 Q61.0 76.15 61.5 75.75 63.35 74.35 64.45 72.55 63.35 74.35 61.5 75.75 61.0 76.15 56.7 77.95 M47.5 72.5 Q53.45 69.1 57.45 63.4 L58.2 62.05 57.45 63.4 Q53.45 69.1 47.5 72.5" fill="url(#gradient1)" fill-rule="evenodd" stroke="none"/>
      <path d="M-7.65 96.6 L-7.2 101.8 Q-14.55 100.55 -22.2 101.5 -36.0 103.3 -34.3 90.7 -30.9 73.35 -28.75 55.85 L-30.8 54.2 -29.65 50.6 -28.9 49.85 -27.3 51.4 -25.2 53.2 -25.15 53.25 -22.5 55.25 Q-14.15 60.1 -4.2 59.45 L0.6 59.55 1.15 59.55 1.75 60.4 1.85 62.85 Q-1.5 64.8 -2.7 68.4 -7.15 81.9 -7.65 96.6 M-0.55 61.85 L-3.75 61.7 -8.05 61.6 Q-14.05 61.65 -19.55 59.75 -22.15 58.85 -23.95 57.6 L-25.5 56.05 Q-26.4 54.65 -27.6 54.05 -26.4 54.65 -25.5 56.05 L-23.95 57.6 Q-22.15 58.85 -19.55 59.75 -14.05 61.65 -8.05 61.6 L-3.75 61.7 -0.55 61.85 M-6.35 64.15 L-7.65 69.8 Q-9.95 83.75 -10.65 97.8 -9.95 83.75 -7.65 69.8 L-6.35 64.15 M-3.75 61.7 L-5.35 68.15 -5.6 68.95 Q-6.45 71.55 -6.85 74.2 L-8.5 85.15 -9.05 90.6 -9.0 91.45 Q-8.75 94.65 -8.9 98.1 -8.75 94.65 -9.0 91.45 L-9.05 90.6 -8.5 85.15 -6.85 74.2 Q-6.45 71.55 -5.6 68.95 L-5.35 68.15 -3.75 61.7 M-26.45 56.95 L-27.05 60.4 -28.05 66.95 -29.25 73.05 Q-29.75 75.55 -30.6 77.9 -31.55 80.55 -32.0 83.4 -32.45 85.9 -32.5 88.6 -32.6 92.1 -33.1 95.5 -32.6 92.1 -32.5 88.6 -32.45 85.9 -32.0 83.4 -31.55 80.55 -30.6 77.9 -29.75 75.55 -29.25 73.05 L-28.05 66.95 -27.05 60.4 -26.45 56.95 M-24.45 62.4 L-25.8 66.95 Q-30.35 81.25 -31.35 96.05 -30.35 81.25 -25.8 66.95 L-24.45 62.4" fill="#b09553" fill-rule="evenodd" stroke="none"/>
      <path d="M-25.15 53.25 L-22.5 55.25 Q-14.15 60.1 -4.2 59.45 L0.6 59.55 1.15 59.55 M-25.15 53.25 L-25.2 53.2 -27.3 51.4 -28.9 49.85 Q-31.5 47.25 -33.65 44.3 M56.15 58.35 Q46.05 69.55 30.8 71.3 L27.95 71.6 M58.2 62.05 L57.45 63.4 Q53.45 69.1 47.5 72.5 M64.45 72.55 Q63.35 74.35 61.5 75.75 61.0 76.15 56.7 77.95" fill="none" stroke="#000000" stroke-linecap="round" stroke-linejoin="round" stroke-width="2.0"/>
      <path d="M51.5 -4.8 Q48.4 -11.85 45.7 -14.05 L40.3 -18.4 38.25 -20.15 M-34.25 -15.0 Q-29.2 -29.1 -21.8 -42.1 -19.1 -46.9 -13.85 -47.9 0.6 -50.95 14.7 -46.7 26.5 -43.05 36.9 -35.95 43.4 -31.45 47.1 -25.85 51.3 -19.5 51.6 -12.25 L51.65 -9.25 51.5 -4.8 51.2 -1.65 50.25 4.1 Q49.7 6.95 50.0 9.9 L50.05 10.05 50.55 14.65 50.55 15.05 51.4 35.2 Q51.5 42.75 52.65 46.8 53.75 50.75 54.4 52.3 L54.25 52.25 55.05 55.6 Q55.35 56.75 56.15 58.35 56.9 59.95 58.2 62.05 59.8 63.45 61.9 66.2 64.0 68.9 64.45 72.55 65.75 75.85 65.45 78.55 64.8 83.45 52.25 89.55 39.7 95.6 23.05 96.1 6.4 96.55 -7.65 96.6 L-7.2 101.8 Q-14.55 100.55 -22.2 101.5 -36.0 103.3 -34.3 90.7 -30.9 73.35 -28.75 55.85 L-30.8 54.2 -29.65 50.6 M-35.1 90.6 Q-43.6 87.5 -48.95 80.35 -51.9 76.3 -51.4 71.5 -50.2 60.45 -43.0 51.6 L-42.35 50.1 -41.0 47.45 Q-36.95 40.05 -29.2 38.2 L-27.35 43.1 Q-25.25 47.8 -24.75 52.65 M-43.45 49.75 Q-45.25 38.65 -40.95 28.1 -35.45 14.55 -36.15 -0.05 -40.35 -7.2 -34.9 -13.85 L-34.5 -14.1 M-11.2 -38.55 Q3.15 -41.35 16.95 -35.4 24.8 -31.95 31.05 -35.4 M21.0 -11.55 Q32.5 -9.0 43.0 -4.1 L46.7 -2.95 50.4 -1.75 46.9 -6.1 Q44.35 -9.0 41.35 -10.9 L33.65 -15.85 M-33.35 -13.25 L-5.05 -16.85 -2.3 -17.0 M18.15 0.75 Q15.35 -0.15 12.95 -1.6 5.2 -6.5 -3.9 -6.0 -18.15 -4.55 -31.95 -0.6 -33.2 3.0 -32.3 6.9 -30.85 12.95 -34.65 18.4 L-33.95 22.35 Q-32.4 30.45 -29.2 38.2 M-22.5 55.25 Q-9.85 55.55 1.45 50.45 L23.8 40.6 23.85 40.6 24.45 40.4 26.85 30.5 Q30.4 17.0 28.8 3.35 L28.75 3.45 28.1 6.5 Q27.65 8.4 26.45 10.05 L25.9 8.9 25.05 11.4 Q24.3 13.5 22.75 14.95 L22.9 13.05 Q23.05 10.1 21.6 7.6 L20.55 8.0 20.2 6.35 Q19.65 3.6 18.0 1.4 M18.15 0.75 L28.75 3.2 28.85 3.25 38.35 6.7 47.95 10.0 48.7 10.1 50.05 10.05 M-10.65 97.8 Q-9.95 83.75 -7.65 69.8 L-6.35 64.15 M-31.35 96.05 Q-30.35 81.25 -25.8 66.95 L-24.45 62.4 M-43.0 51.6 Q-40.5 56.85 -36.15 61.1 L-34.25 63.0 M1.75 60.4 L1.85 62.85 Q-1.5 64.8 -2.7 68.4 -7.15 81.9 -7.65 96.6 M0.6 59.55 Q1.25 59.0 2.3 58.95 L3.45 58.7 8.35 56.7 12.3 54.85 16.95 52.35 M50.55 14.65 L50.5 14.85 50.55 15.05 M44.35 48.65 L42.3 48.45 Q32.3 49.6 23.2 54.45 L23.1 54.5 23.0 54.05 Q22.2 47.6 24.15 41.4 L24.45 40.4 M43.05 49.8 L44.3 49.15 M28.75 3.45 L28.75 3.2 M29.55 39.0 Q31.55 25.7 33.15 12.5 L33.1 11.5 M29.55 39.1 L28.75 46.3 M43.05 49.8 Q34.65 54.2 27.35 60.3 16.1 69.7 2.6 70.75 M54.25 52.25 Q51.85 50.8 48.35 49.65 L44.35 48.65 M54.4 52.3 Q53.45 50.95 54.25 52.25 M-31.95 -0.6 Q-33.45 0.0 -35.15 0.0 L-36.15 -0.05" fill="none" stroke="#000000" stroke-linecap="round" stroke-linejoin="round" stroke-width="2.0"/>
      <path d="M-8.05 -35.7 Q-3.05 -36.6 2.05 -35.55 L8.05 -34.55 Q12.9 -33.9 17.4 -32.0 19.55 -31.05 21.9 -30.65 L26.2 -29.9 Q29.75 -29.35 33.1 -30.8 M25.05 -8.35 Q27.05 -7.65 29.3 -7.2 L31.7 -6.55 34.75 -5.6 37.4 -4.6 42.6 -2.05 M-30.8 -16.7 L-26.05 -27.0 -25.4 -28.25 Q-24.8 -29.3 -24.65 -30.5 L-24.2 -31.95 -21.25 -37.15 -20.8 -38.05 -20.35 -39.1 -18.2 -43.25 Q-17.45 -44.55 -16.15 -45.0 L-10.65 -46.15 -8.9 -46.25 -4.6 -46.35 -2.6 -46.05 M-35.1 -2.6 Q-34.8 -2.8 -35.15 -3.85 L-35.45 -5.2 Q-35.55 -7.4 -34.75 -9.35 L-33.35 -11.55 M-31.05 -11.25 L-26.8 -11.9 -20.7 -12.65 -11.2 -13.65 -3.75 -14.4 Q1.6 -15.2 6.9 -13.85 M-41.15 51.45 Q-39.4 46.35 -34.8 43.15 L-32.8 41.7 M-49.75 75.95 Q-50.05 70.0 -48.05 65.0 L-46.55 61.85 -43.15 56.35 M-11.5 56.95 Q-10.75 56.25 -9.7 56.5 L-8.35 56.35 -3.8 54.75 -1.95 54.2 -0.35 53.65 0.65 53.3 2.85 52.5 3.5 52.15 Q4.4 51.55 5.4 51.3 L6.4 50.95 Q9.45 49.7 12.6 48.8 L13.85 48.45 17.0 47.55 Q17.95 47.3 18.4 46.85 M35.65 17.25 Q39.85 16.35 44.05 17.65 L46.9 18.45 47.45 18.7 M47.6 34.8 L45.25 34.55 Q39.6 32.6 33.95 33.65 M34.5 24.7 Q38.4 23.55 42.3 24.65 L46.05 25.5 47.2 25.6 M31.95 41.7 L32.5 41.65 Q38.2 40.7 44.0 41.35 L45.2 41.6 46.05 41.7 M25.9 49.75 Q25.4 47.85 25.45 45.7 L25.6 44.55 Q26.8 40.6 27.5 36.55 L27.9 35.1 Q28.75 33.2 29.0 31.1 L29.2 29.85 29.7 26.75 30.0 23.55 30.1 22.4 30.5 17.25 31.2 12.05 31.4 10.35 31.5 8.05 31.5 6.6 31.65 6.0" fill="none" stroke="#73482b" stroke-linecap="round" stroke-linejoin="round" stroke-width="2.0"/>
      <path d="M-27.6 54.05 Q-26.4 54.65 -25.5 56.05 L-23.95 57.6 Q-22.15 58.85 -19.55 59.75 -14.05 61.65 -8.05 61.6 L-3.75 61.7 -0.55 61.85 M-8.9 98.1 Q-8.75 94.65 -9.0 91.45 L-9.05 90.6 -8.5 85.15 -6.85 74.2 Q-6.45 71.55 -5.6 68.95 L-5.35 68.15 -3.75 61.7 M-33.1 95.5 Q-32.6 92.1 -32.5 88.6 -32.45 85.9 -32.0 83.4 -31.55 80.55 -30.6 77.9 -29.75 75.55 -29.25 73.05 L-28.05 66.95 -27.05 60.4 -26.45 56.95" fill="none" stroke="#c1a679" stroke-linecap="round" stroke-linejoin="round" stroke-width="2.0"/>
      <path d="M-14.95 67.25 L-16.7 75.1 -16.75 75.3 -18.6 76.15 -19.15 76.45 -18.7 77.1 Q-16.65 77.95 -14.85 79.1 L-15.35 79.55 -18.55 80.15 Q-16.75 80.95 -15.75 82.45 -18.5 82.95 -21.25 84.05 -18.8 84.5 -17.25 86.0 -18.15 86.6 -19.45 86.65 -18.4 86.8 -17.9 87.6 L-19.5 88.5 -19.45 88.7 -19.4 89.4 -19.4 90.85 -18.7 91.2 Q-17.5 90.65 -16.65 89.65 L-15.85 88.25 -15.25 87.5 -13.6 83.65 Q-12.9 80.55 -13.25 77.3 L-13.25 76.9 -12.6 76.8 Q-11.7 77.4 -11.15 78.45 L-11.1 78.6 Q-10.7 79.05 -10.75 79.75 L-10.75 80.05 Q-10.6 81.4 -11.1 82.75 L-11.15 83.05 -11.85 83.8 -12.0 83.55 -12.0 83.35 Q-11.05 81.55 -11.3 79.9 L-11.4 79.35 -12.45 78.5 Q-12.15 84.0 -15.15 88.8 L-15.95 89.95 -16.35 90.55 -16.4 90.6 -16.65 90.85 -17.6 91.85 -18.6 93.0 -19.05 93.55 -19.45 94.5 -19.75 94.85 Q-20.05 94.95 -20.15 94.6 L-20.1 94.45 -20.05 94.25 Q-20.3 93.3 -20.2 92.35 L-20.25 91.8 -20.15 91.05 -20.15 89.45 Q-20.05 88.8 -20.35 88.2 -19.95 87.6 -19.1 87.5 -20.1 87.45 -20.9 86.9 -20.1 85.9 -18.55 85.7 -20.85 85.0 -22.6 83.85 L-17.05 81.85 -19.9 79.8 -16.1 79.0 Q-18.7 78.1 -20.9 76.7 L-20.85 76.45 -20.75 76.3 -17.25 74.45 -16.05 69.05 Q-18.5 70.1 -20.35 71.9 -23.15 75.05 -24.25 79.35 L-24.8 81.15 -24.9 81.35 -25.55 81.3 Q-26.5 79.45 -26.8 77.45 L-26.8 77.35 -26.9 77.15 -26.9 77.05 Q-26.9 74.55 -25.0 73.05 -25.15 73.7 -25.65 74.2 L-25.8 74.55 -25.85 74.65 Q-26.3 75.85 -26.25 77.1 L-26.25 77.35 -25.65 79.1 -25.05 79.4 Q-23.4 73.05 -18.2 68.85 -16.85 67.75 -15.35 67.0 -15.1 67.0 -15.0 67.15 L-14.95 67.25 M-19.6 76.65 L-19.75 76.7 -19.6 76.75 -19.6 76.65" fill="#000000" fill-rule="evenodd" stroke="none"/>
    </g>
    </g>
  </g>
  <defs>
    <radialGradient cx="0" cy="0" gradientTransform="matrix(0.0392, 0.0133, -0.0178, 0.0523, -0.85, -22.75)" gradientUnits="userSpaceOnUse" id="gradient0" r="819.2" spreadMethod="pad">
      <stop offset="0.0" stop-color="#855c36"/>
      <stop offset="1.0" stop-color="#52291b"/>
    </radialGradient>
    <radialGradient cx="0" cy="0" gradientTransform="matrix(0.0587, 0.0, 0.0, 0.0657, -19.0, 67.0)" gradientUnits="userSpaceOnUse" id="gradient1" r="819.2" spreadMethod="pad">
      <stop offset="0.0" stop-color="#855c36"/>
      <stop offset="1.0" stop-color="#52291b"/>
    </radialGradient>
  </defs>
</svg>