<svg xmlns:xlink="http://www.w3.org/1999/xlink" xmlns="http://www.w3.org/2000/svg" height="264.15px" width="342.25px">
  <g transform="matrix(1.0, 0.0, 0.0, 1.0, 243.25, 83.7)">
    <g data-characterId="1152" height="131.85" transform="matrix(1.0, 0.0, 0.0, 1.0, -45.85, -42.85)" width="101.15" xlink:href="#shape0"><g id="shape0" transform="matrix(1.0, 0.0, 0.0, 1.0, 45.85, 42.85)">
      <path d="M10.5 -36.0 L11.3 -35.55 Q19.15 -29.8 23.0 -20.5 19.15 -29.8 11.3 -35.55 L10.5 -36.0 M3.25 -40.25 Q6.05 -39.2 9.0 -39.2 13.7 -39.2 17.85 -36.95 26.6 -32.35 33.25 -25.0 26.6 -32.35 17.85 -36.95 13.7 -39.2 9.0 -39.2 6.05 -39.2 3.25 -40.25 M8.55 -14.5 L9.7 -12.15 Q13.3 -4.5 14.25 3.9 13.3 -4.5 9.7 -12.15 L8.55 -14.5 14.25 3.9 15.75 11.65 16.95 16.45 15.75 11.65 14.25 3.9 8.55 -14.5 Q5.1 -21.3 0.45 -27.25 -0.45 -28.4 -1.75 -27.75 -0.45 -28.4 0.45 -27.25 5.1 -21.3 8.55 -14.5 M20.5 24.0 Q18.25 20.45 16.95 16.45 18.25 20.45 20.5 24.0 M2.25 -22.5 L2.45 -17.95 2.25 -22.5 M8.55 4.05 Q7.6 -5.6 4.0 -14.7 L2.45 -17.95 4.0 -14.7 Q7.6 -5.6 8.55 4.05 L10.25 14.5 8.55 4.05 7.2 0.2 Q3.65 -8.6 2.45 -17.95 3.65 -8.6 7.2 0.2 L8.55 4.05 M8.5 -21.5 L10.1 -20.4 Q17.6 -14.1 21.05 -4.8 24.45 4.3 26.4 13.65 L28.05 22.05 Q29.15 27.85 32.75 32.25 29.15 27.85 28.05 22.05 L26.4 13.65 Q24.45 4.3 21.05 -4.8 17.6 -14.1 10.1 -20.4 L8.5 -21.5 M28.75 -13.5 Q29.0 -8.1 32.75 -3.7 36.9 1.2 38.35 7.4 36.9 1.2 32.75 -3.7 29.0 -8.1 28.75 -13.5 M29.5 -17.25 L33.5 -6.5 29.5 -17.25 M40.5 10.0 L38.35 7.4 30.0 -3.8 Q25.65 -9.8 26.0 -17.0 25.65 -9.8 30.0 -3.8 L38.35 7.4 40.5 10.0 M33.0 -19.25 L36.75 -11.25 33.0 -19.25 M18.75 -31.5 Q19.7 -31.6 20.7 -30.9 24.05 -28.3 26.35 -24.75 30.6 -18.45 33.85 -11.65 36.7 -5.75 40.5 -0.25 36.7 -5.75 33.85 -11.65 30.6 -18.45 26.35 -24.75 24.05 -28.3 20.7 -30.9 19.7 -31.6 18.75 -31.5 M20.75 -11.5 L21.15 -10.45 Q24.35 -3.2 25.25 5.0 24.35 -3.2 21.15 -10.45 L20.75 -11.5 M33.0 -22.0 Q34.55 -21.65 35.15 -20.15 L40.0 -7.5 Q42.8 0.45 42.75 9.0 42.8 0.45 40.0 -7.5 L35.15 -20.15 Q34.55 -21.65 33.0 -22.0 M11.5 -29.0 L16.25 -21.75 11.5 -29.0 M-13.75 64.75 Q-13.25 70.05 -15.45 74.95 L-18.55 81.75 Q-18.9 82.55 -18.5 83.5 L-23.5 75.25 -23.0 85.75 Q-28.7 81.5 -31.0 75.0 -31.55 79.95 -34.65 83.7 -36.05 85.45 -38.0 86.25 -36.7 83.5 -37.15 80.55 -37.8 76.6 -39.5 73.0 -41.3 74.25 -42.35 77.35 L-43.5 81.0 Q-46.1 74.1 -45.0 66.85 -44.1 61.1 -42.35 55.4 -41.1 51.35 -41.35 47.05 L-41.5 40.05 Q-41.2 31.1 -41.85 22.0 L-42.55 8.8 Q-42.95 -6.9 -35.15 -20.25 L-32.55 -24.25 Q-26.3 -32.6 -17.65 -38.55 -16.3 -39.5 -14.65 -39.9 0.1 -44.6 14.8 -40.2 22.6 -37.8 29.1 -32.6 37.3 -26.1 41.75 -16.7 43.2 -13.65 44.15 -10.35 46.2 -3.35 47.05 4.35 47.6 9.65 47.7 15.0 47.85 24.65 49.2 34.35 50.05 40.55 51.5 46.75 L53.9 58.55 Q55.1 65.6 54.7 72.5 54.5 75.4 53.15 77.9 L52.75 78.75 52.7 79.3 52.7 78.0 51.5 71.75 Q47.95 78.85 48.25 87.0 44.4 81.1 45.1 74.2 41.95 75.6 41.25 79.05 L40.5 83.05 40.0 87.0 Q36.45 81.55 36.0 75.0 30.1 80.5 31.25 88.5 27.45 82.6 26.25 75.5 23.7 79.8 24.25 84.5 21.4 78.75 20.95 72.2 20.7 68.45 21.5 64.95 L23.3 57.0 Q23.9 54.35 24.8 51.85 25.85 48.75 26.05 45.7 L26.6 35.0 26.75 34.95 26.65 34.75 22.0 27.25 Q20.1 34.85 22.0 42.25 L19.55 37.9 Q12.65 25.75 12.0 11.75 L10.5 25.2 10.0 25.75 9.4 23.1 Q8.95 20.75 9.0 18.4 9.3 9.15 5.3 0.8 1.25 -7.6 -1.4 -16.65 L-1.35 -16.65 -1.55 -16.85 -13.5 -19.6 -12.8 -24.7 Q-9.6 -22.15 -5.8 -20.85 -4.15 -20.25 -3.0 -18.8 L-1.55 -16.85 -3.0 -18.8 Q-4.15 -20.25 -5.8 -20.85 -9.6 -22.15 -12.8 -24.7 L-13.5 -19.6 -18.0 -20.0 -22.75 -19.85 -26.15 -19.45 -29.55 -18.5 -30.05 -17.0 -30.25 -16.5 -32.05 -7.0 -33.4 0.7 Q-33.6 2.05 -33.2 3.35 -32.3 6.55 -32.8 9.9 -33.4 13.95 -33.45 18.0 -33.55 27.6 -30.2 36.65 -26.9 45.7 -24.15 55.15 -22.95 59.15 -20.25 62.1 L-19.1 62.9 Q-16.3 64.2 -13.65 64.35 L-13.75 64.75 M41.0 41.5 L41.75 40.5 Q43.4 46.85 43.25 53.5 43.0 62.15 45.5 70.25 43.0 62.15 43.25 53.5 43.4 46.85 41.75 40.5 L41.0 41.5 M46.75 71.25 Q47.85 69.25 47.95 66.9 L48.15 60.4 Q48.4 54.35 47.5 48.3 46.1 39.1 43.3 30.05 46.1 39.1 47.5 48.3 48.4 54.35 48.15 60.4 L47.95 66.9 Q47.85 69.25 46.75 71.25 M29.75 10.0 Q30.25 12.15 30.4 14.4 30.75 21.05 35.0 26.0 30.75 21.05 30.4 14.4 30.25 12.15 29.75 10.0 M41.0 18.25 L41.75 20.4 Q43.3 25.1 43.3 30.05 L43.5 35.0 43.3 30.05 Q43.3 25.1 41.75 20.4 L41.0 18.25 M40.25 16.25 L34.5 11.75 40.25 16.25 M15.75 11.65 L16.15 13.45 16.95 16.45 16.15 13.45 15.75 11.65 M-8.5 -29.0 L2.45 -17.95 -8.5 -29.0 M38.75 26.0 L39.15 28.2 Q39.85 32.55 39.0 36.75 39.85 32.55 39.15 28.2 L38.75 26.0 M37.25 31.75 L35.0 26.0 37.25 31.75 M35.7 33.85 L34.25 30.25 34.1 33.75 35.7 33.85 38.2 37.0 35.7 33.85 M35.0 26.0 L35.5 26.5 35.0 26.0 34.75 24.5 35.0 26.0 M31.5 38.25 L30.55 35.05 29.35 31.8 Q25.75 22.95 21.0 14.75 25.75 22.95 29.35 31.8 L30.55 35.05 31.5 38.25 M34.1 33.75 Q34.05 43.3 31.0 52.0 L30.45 48.65 29.95 43.75 Q29.7 38.95 26.75 34.95 29.7 38.95 29.95 43.75 L30.45 48.65 31.0 52.0 Q34.05 43.3 34.1 33.75 M19.5 26.75 L16.95 16.45 19.5 26.75 M30.65 56.2 Q30.45 56.6 30.4 57.1 29.6 66.25 32.75 75.0 29.6 66.25 30.4 57.1 30.45 56.6 30.65 56.2 M23.75 72.75 L24.0 67.85 Q24.55 60.05 27.0 53.0 24.55 60.05 24.0 67.85 L23.75 72.75 M36.25 71.5 L37.35 66.85 Q38.45 60.95 38.35 54.75 38.25 47.7 36.0 41.25 38.25 47.7 38.35 54.75 38.45 60.95 37.35 66.85 L36.25 71.5 M-19.5 -36.25 L-20.05 -35.8 -21.4 -34.1 Q-23.0 -31.85 -24.9 -29.9 L-26.75 -28.0 Q-31.9 -22.85 -35.8 -16.85 -37.3 -14.55 -38.1 -12.2 -39.85 -7.3 -40.1 -2.1 L-40.05 4.95 Q-39.45 14.8 -38.1 24.7 -36.85 34.25 -38.65 43.9 -40.4 53.5 -43.15 62.85 -44.7 68.1 -43.5 73.25 -44.7 68.1 -43.15 62.85 -40.4 53.5 -38.65 43.9 -36.85 34.25 -38.1 24.7 -39.45 14.8 -40.05 4.95 L-40.1 -2.1 Q-39.85 -7.3 -38.1 -12.2 -37.3 -14.55 -35.8 -16.85 -31.9 -22.85 -26.75 -28.0 L-24.9 -29.9 Q-23.0 -31.85 -21.4 -34.1 L-20.05 -35.8 -19.5 -36.25 M14.5 -8.1 L17.75 6.25 14.5 -8.1 M23.75 -15.5 L26.25 1.0 23.75 -15.5 M18.25 -6.75 L20.75 5.75 18.25 -6.75 M34.0 69.25 L35.5 48.5 34.0 69.25 M38.0 76.25 Q38.95 74.0 39.3 71.75 40.4 64.8 40.7 57.5 41.1 48.75 38.75 40.25 41.1 48.75 40.7 57.5 40.4 64.8 39.3 71.75 38.95 74.0 38.0 76.25 M29.25 80.5 L28.85 78.1 Q26.8 68.65 28.25 59.0 26.8 68.65 28.85 78.1 L29.25 80.5 M-26.0 -24.5 L-29.5 -18.65 -26.0 -24.5 M-13.25 -27.0 L-14.25 -26.05 Q-17.05 -23.5 -18.0 -20.0 -17.05 -23.5 -14.25 -26.05 L-13.25 -27.0 M-29.5 -18.65 L-29.7 -18.55 Q-29.9 -18.4 -29.55 -18.5 L-29.5 -18.65 M-22.25 -25.5 L-26.15 -19.45 -22.25 -25.5 M-18.5 -26.0 L-22.75 -19.85 -18.5 -26.0 M-34.0 -17.0 L-35.3 -14.15 -37.85 -4.75 Q-40.1 4.8 -37.65 14.25 -35.25 23.65 -34.7 33.5 L-34.1 45.0 Q-33.7 52.1 -34.55 59.25 -33.7 52.1 -34.1 45.0 L-34.7 33.5 Q-35.25 23.65 -37.65 14.25 -40.1 4.8 -37.85 -4.75 L-35.3 -14.15 -34.0 -17.0 M-21.0 65.0 L-21.5 72.75 -21.0 65.0 M-25.75 75.5 L-26.25 74.85 Q-27.2 73.5 -27.2 71.75 -27.25 65.1 -25.0 59.0 -27.25 65.1 -27.2 71.75 -27.2 73.5 -26.25 74.85 L-25.75 75.5 M-42.0 67.75 L-40.9 65.4 Q-40.05 62.95 -39.55 60.4 -37.6 50.6 -37.75 41.0 -37.6 50.6 -39.55 60.4 -40.05 62.95 -40.9 65.4 L-42.0 67.75 M-31.5 41.0 Q-31.15 42.9 -30.95 44.85 -30.55 49.1 -30.95 53.5 -31.65 61.15 -30.85 68.75 -30.55 71.4 -29.5 73.75 -30.55 71.4 -30.85 68.75 -31.65 61.15 -30.95 53.5 -30.55 49.1 -30.95 44.85 -31.15 42.9 -31.5 41.0 M-35.25 80.25 L-34.55 59.25 -35.25 80.25 M-28.75 66.5 L-28.55 61.9 Q-28.35 52.4 -30.5 43.0 -28.35 52.4 -28.55 61.9 L-28.75 66.5 M-34.55 59.25 L-38.5 74.25 -34.55 59.25 -35.75 46.5 -34.55 59.25" fill="url(#gradient0)" fill-rule="evenodd" stroke="none"/>
      <path d="M26.0 -17.0 Q25.65 -9.8 30.0 -3.8 L38.35 7.4 40.5 10.0 M-13.75 64.75 Q-13.25 70.05 -15.45 74.95 L-18.55 81.75 Q-18.9 82.55 -18.5 83.5 L-23.5 75.25 -23.0 85.75 Q-28.7 81.5 -31.0 75.0 -31.55 79.95 -34.65 83.7 -36.05 85.45 -38.0 86.25 -36.7 83.5 -37.15 80.55 -37.8 76.6 -39.5 73.0 -41.3 74.25 -42.35 77.35 L-43.5 81.0 Q-46.1 74.1 -45.0 66.85 -44.1 61.1 -42.35 55.4 -41.1 51.35 -41.35 47.05 L-41.5 40.05 Q-41.2 31.1 -41.85 22.0 L-42.55 8.8 Q-42.95 -6.9 -35.15 -20.25 L-32.55 -24.25 Q-26.3 -32.6 -17.65 -38.55 -16.3 -39.5 -14.65 -39.9 0.1 -44.6 14.8 -40.2 22.6 -37.8 29.1 -32.6 37.3 -26.1 41.75 -16.7 43.2 -13.65 44.15 -10.35 46.2 -3.35 47.05 4.35 47.6 9.65 47.7 15.0 47.85 24.65 49.2 34.35 50.05 40.55 51.5 46.75 L53.9 58.55 Q55.1 65.6 54.7 72.5 54.5 75.4 53.15 77.9 L52.75 78.75 M52.7 78.0 L51.5 71.75 Q47.95 78.85 48.25 87.0 44.4 81.1 45.1 74.2 41.95 75.6 41.25 79.05 L40.5 83.05 40.0 87.0 Q36.45 81.55 36.0 75.0 30.1 80.5 31.25 88.5 27.45 82.6 26.25 75.5 23.7 79.8 24.25 84.5 21.4 78.75 20.95 72.2 20.7 68.45 21.5 64.95 L23.3 57.0 Q23.9 54.35 24.8 51.85 25.85 48.75 26.05 45.7 L26.6 35.0 26.65 34.75 22.0 27.25 Q20.1 34.85 22.0 42.25 L19.55 37.9 Q12.65 25.75 12.0 11.75 L10.5 25.2 10.0 25.75 9.4 23.1 Q8.95 20.75 9.0 18.4 9.3 9.15 5.3 0.8 1.25 -7.6 -1.4 -16.65 L-1.55 -16.85 -3.0 -18.8 Q-4.15 -20.25 -5.8 -20.85 -9.6 -22.15 -12.8 -24.7 L-13.5 -19.6 -13.0 -18.5 M34.5 11.75 L40.25 16.25 M39.0 36.75 Q39.85 32.55 39.15 28.2 L38.75 26.0 M35.7 33.85 L34.25 30.25 34.1 33.75 Q34.05 43.3 31.0 52.0 L30.45 48.65 29.95 43.75 Q29.7 38.95 26.75 34.95 L26.65 34.75 M35.7 33.85 L38.2 37.0 M-18.0 -20.0 Q-17.05 -23.5 -14.25 -26.05 L-13.25 -27.0 M-29.5 -18.65 L-26.0 -24.5 M-30.25 -16.5 L-32.05 -7.0 -33.4 0.7 Q-33.6 2.05 -33.2 3.35 -32.3 6.55 -32.8 9.9 -33.4 13.95 -33.45 18.0 -33.55 27.6 -30.2 36.65 -26.9 45.7 -24.15 55.15 -22.95 59.15 -20.25 62.1 L-19.1 62.9 Q-16.3 64.2 -13.65 64.35 M-29.55 -18.5 L-30.05 -17.0 M-29.5 -18.65 L-29.55 -18.5 M-26.15 -19.45 L-22.25 -25.5 M-26.15 -19.45 L-26.5 -18.25 M-23.25 -18.5 L-22.75 -19.85 -18.5 -26.0 M-18.0 -20.0 L-18.0 -19.5" fill="none" stroke="#000000" stroke-linecap="round" stroke-linejoin="round" stroke-width="2.0"/>
      <path d="M14.25 3.9 Q13.3 -4.5 9.7 -12.15 L8.55 -14.5 Q5.1 -21.3 0.45 -27.25 -0.45 -28.4 -1.75 -27.75 M16.95 16.45 Q18.25 20.45 20.5 24.0 M2.45 -17.95 L4.0 -14.7 Q7.6 -5.6 8.55 4.05 M32.75 32.25 Q29.15 27.85 28.05 22.05 L26.4 13.65 Q24.45 4.3 21.05 -4.8 17.6 -14.1 10.1 -20.4 L8.5 -21.5 M40.5 -0.25 Q36.7 -5.75 33.85 -11.65 30.6 -18.45 26.35 -24.75 24.05 -28.3 20.7 -30.9 19.7 -31.6 18.75 -31.5 M42.75 9.0 Q42.8 0.45 40.0 -7.5 L35.15 -20.15 Q34.55 -21.65 33.0 -22.0 M45.5 70.25 Q43.0 62.15 43.25 53.5 43.4 46.85 41.75 40.5 L41.0 41.5 M43.5 35.0 L43.3 30.05 Q43.3 25.1 41.75 20.4 L41.0 18.25 M35.0 26.0 Q30.75 21.05 30.4 14.4 30.25 12.15 29.75 10.0 M16.95 16.45 L16.15 13.45 15.75 11.65 M2.45 -17.95 L-8.5 -29.0 M35.5 26.5 L35.0 26.0 M36.0 41.25 Q38.25 47.7 38.35 54.75 38.45 60.95 37.35 66.85 L36.25 71.5 M27.0 53.0 Q24.55 60.05 24.0 67.85 L23.75 72.75 M32.75 75.0 Q29.6 66.25 30.4 57.1 30.45 56.6 30.65 56.2 M-34.55 59.25 Q-33.7 52.1 -34.1 45.0 L-34.7 33.5 Q-35.25 23.65 -37.65 14.25 -40.1 4.8 -37.85 -4.75 L-35.3 -14.15 -34.0 -17.0 M-29.5 73.75 Q-30.55 71.4 -30.85 68.75 -31.65 61.15 -30.95 53.5 -30.55 49.1 -30.95 44.85 -31.15 42.9 -31.5 41.0 M-37.75 41.0 Q-37.6 50.6 -39.55 60.4 -40.05 62.95 -40.9 65.4 L-42.0 67.75 M-25.0 59.0 Q-27.25 65.1 -27.2 71.75 -27.2 73.5 -26.25 74.85 L-25.75 75.5 M-21.5 72.75 L-21.0 65.0 M-38.5 74.25 L-34.55 59.25" fill="none" stroke="#92654e" stroke-linecap="round" stroke-linejoin="round" stroke-width="1.5"/>
      <path d="M33.25 -25.0 Q26.6 -32.35 17.85 -36.95 13.7 -39.2 9.0 -39.2 6.05 -39.2 3.25 -40.25 M23.0 -20.5 Q19.15 -29.8 11.3 -35.55 L10.5 -36.0 M8.55 -14.5 L14.25 3.9 15.75 11.65 16.95 16.45 19.5 26.75 M2.45 -17.95 L2.25 -22.5 M8.55 4.05 L10.25 14.5 M33.5 -6.5 L29.5 -17.25 M38.35 7.4 Q36.9 1.2 32.75 -3.7 29.0 -8.1 28.75 -13.5 M36.75 -11.25 L33.0 -19.25 M25.25 5.0 Q24.35 -3.2 21.15 -10.45 L20.75 -11.5 M16.25 -21.75 L11.5 -29.0 M43.3 30.05 Q46.1 39.1 47.5 48.3 48.4 54.35 48.15 60.4 L47.95 66.9 Q47.85 69.25 46.75 71.25 M8.55 4.05 L7.2 0.2 Q3.65 -8.6 2.45 -17.95 M35.0 26.0 L37.25 31.75 M35.0 26.0 L34.75 24.5 M21.0 14.75 Q25.75 22.95 29.35 31.8 L30.55 35.05 31.5 38.25 M28.25 59.0 Q26.8 68.65 28.85 78.1 L29.25 80.5 M38.75 40.25 Q41.1 48.75 40.7 57.5 40.4 64.8 39.3 71.75 38.95 74.0 38.0 76.25 M35.5 48.5 L34.0 69.25 M20.75 5.75 L18.25 -6.75 M26.25 1.0 L23.75 -15.5 M17.75 6.25 L14.5 -8.1 M-43.5 73.25 Q-44.7 68.1 -43.15 62.85 -40.4 53.5 -38.65 43.9 -36.85 34.25 -38.1 24.7 -39.45 14.8 -40.05 4.95 L-40.1 -2.1 Q-39.85 -7.3 -38.1 -12.2 -37.3 -14.55 -35.8 -16.85 -31.9 -22.85 -26.75 -28.0 L-24.9 -29.9 Q-23.0 -31.85 -21.4 -34.1 L-20.05 -35.8 -19.5 -36.25 M-30.5 43.0 Q-28.35 52.4 -28.55 61.9 L-28.75 66.5 M-34.55 59.25 L-35.25 80.25 M-34.55 59.25 L-35.75 46.5" fill="none" stroke="#fff5e6" stroke-linecap="round" stroke-linejoin="round" stroke-width="1.5"/>
      <path d="M25.65 47.2 L25.25 48.55 M23.7 47.5 L23.5 49.25 M22.75 51.35 L22.6 51.5 M13.3 53.9 L12.75 54.8 M18.0 52.8 L17.25 54.5 M9.05 55.55 L8.0 59.0 M1.5 63.5 L1.8 59.65 M20.15 51.1 L20.7 49.75 21.75 45.5 M-22.35 38.15 L-22.95 39.05 -24.0 42.25 M-26.35 43.55 L-26.75 45.5 M-20.2 37.3 L-20.3 37.6 M-12.4 36.35 L-12.35 36.45 M-11.65 38.05 L-11.5 39.25 M-7.9 39.55 L-8.4 37.6 M-4.9 36.5 Q-4.1 38.0 -4.0 39.65 L-4.0 40.7 M-0.3 41.95 L-0.25 45.25 M-9.15 59.95 L-9.45 58.9 M-9.15 59.95 L-9.1 60.2 -7.95 64.5 M-16.75 54.0 L-16.5 50.35 M-17.85 57.85 L-17.6 58.5 M-15.25 58.8 L-16.2 55.75 M-14.0 54.0 L-13.25 58.75 M-14.95 59.8 L-15.2 58.7 M-0.95 62.05 L-1.0 63.4 M-11.0 63.0 L-11.75 60.75 -11.2 64.25 M-4.2 62.65 L-4.05 61.0 M-17.55 59.2 L-16.0 65.5 M-26.0 48.25 L-26.45 50.9 -26.5 52.75 M-21.25 59.7 Q-21.1 60.9 -20.4 62.0 L-20.0 62.5 M-21.3 58.95 L-21.25 54.4 M-24.8 51.85 L-25.5 55.25" fill="none" stroke="#fff5e6" stroke-linecap="round" stroke-linejoin="round" stroke-width="1.5"/>
      <path d="M25.25 50.5 L25.65 47.2 M3.1 47.1 L2.75 48.5 M22.6 51.5 L22.7 51.1 23.7 47.5 M20.7 49.75 L20.35 52.15 19.5 55.25 M13.2 57.55 L13.3 53.9 M17.0 52.5 L15.7 57.3 M5.8 61.3 Q6.8 60.0 6.75 58.15 L6.75 57.0 M4.2 58.8 L4.25 61.5 M10.25 55.5 L9.7 59.0 M0.75 59.75 L1.0 64.5 M-20.3 37.6 L-20.9 37.85 -21.1 38.2 M-12.35 36.45 L-11.65 38.05 M-9.0 37.75 L-7.9 39.55 M-4.0 40.7 L-5.5 38.75 M-0.75 44.75 L-0.3 41.95 M-18.5 36.75 L-19.45 39.3 M-9.05 60.8 L-9.5 66.0 M-9.1 60.2 L-9.05 60.8 M-16.5 50.35 Q-17.25 52.55 -17.2 54.8 L-17.25 57.25 M-16.2 55.75 L-16.0 58.25 M-17.85 57.5 L-17.85 57.85 -18.1 59.85 M-17.6 58.5 L-17.55 59.2 -16.0 64.25 M-14.1 56.15 L-13.25 61.25 M-14.95 59.8 Q-14.15 60.3 -14.1 61.55 L-14.05 64.0 M-6.75 60.75 Q-6.15 62.6 -6.7 64.6 L-7.0 65.5 M-4.05 61.0 Q-3.5 63.25 -1.95 65.1 L-1.25 65.75 M-1.0 63.4 L-1.65 59.95 M-12.55 60.25 L-11.75 66.5 M-18.75 58.25 L-18.45 62.95 M-22.9 54.4 Q-23.4 56.65 -23.0 58.9 L-22.75 60.25 M-21.15 60.95 L-21.75 56.5 M-24.0 51.25 L-25.25 57.75 M-25.55 53.3 L-25.25 49.0" fill="none" stroke="#92654e" stroke-linecap="round" stroke-linejoin="round" stroke-width="1.5"/>
      <path d="M25.25 48.55 L25.25 50.5 M27.0 42.0 L28.0 46.75 M0.0 41.25 L1.0 46.0 M22.7 51.1 L22.75 51.35 M22.7 51.1 L22.0 47.0 M12.75 54.8 L13.2 57.55 M15.7 57.3 L15.0 54.75 M9.7 59.0 L9.05 55.55 M6.75 57.0 L7.75 61.0 M4.2 58.8 L4.55 60.55 M1.8 59.65 L2.75 62.25 M20.35 52.15 L20.15 51.1 M3.25 50.0 L3.1 47.1 M4.5 48.25 L5.0 52.0 M17.25 48.75 L18.0 52.8 M-22.35 38.15 L-22.6 37.75 -26.35 43.55 M-20.9 37.85 L-20.7 37.45 Q-20.5 37.3 -20.2 37.3 M-19.45 39.3 L-19.75 39.75 M-8.4 37.6 L-7.25 38.75 M-15.5 35.25 L-14.75 39.5 M-11.0 38.75 L-12.4 36.35 M-9.05 60.8 L-9.15 59.95 -9.25 58.25 -9.45 58.9 M-7.95 64.5 L-9.05 60.8 M-18.2 60.55 L-18.1 59.85 -17.85 57.5 M-15.2 58.7 L-15.25 58.8 -15.5 63.5 M-4.2 62.65 L-3.5 65.75 M-1.65 59.95 L-0.95 62.05 M-11.2 64.25 L-12.55 60.25 M-5.5 58.5 L-4.2 62.65 M-21.25 59.7 L-21.15 60.95 M-20.5 55.5 L-21.3 58.95 -21.25 59.7 M-22.9 54.4 L-23.65 57.6 -23.3 59.45 M-24.8 51.85 L-25.55 53.3 -26.25 57.75" fill="none" stroke="#c39d4f" stroke-linecap="round" stroke-linejoin="round" stroke-width="1.5"/>
    </g>
    </g>
  </g>
  <defs>
    <radialGradient cx="0" cy="0" gradientTransform="matrix(0.1453, 0.0, 0.0, 0.0963, 0.0, -28.0)" gradientUnits="userSpaceOnUse" id="gradient0" r="819.2" spreadMethod="pad">
      <stop offset="0.0" stop-color="#c39d4f"/>
      <stop offset="0.20392156862745098" stop-color="#eed7a3"/>
      <stop offset="0.33725490196078434" stop-color="#fff5e6"/>
      <stop offset="0.5176470588235295" stop-color="#aa874f"/>
      <stop offset="1.0" stop-color="#c39d4f"/>
    </radialGradient>
  </defs>
</svg>