<svg xmlns:xlink="http://www.w3.org/1999/xlink" xmlns="http://www.w3.org/2000/svg" height="264.15px" width="342.25px">
  <g transform="matrix(1.0, 0.0, 0.0, 1.0, 243.25, 83.7)">
    <g data-characterId="1119" height="88.15" transform="matrix(1.0, 0.0, 0.0, 1.0, -44.7, -42.15)" width="86.95" xlink:href="#shape0"><g id="shape0" transform="matrix(1.0, 0.0, 0.0, 1.0, 44.7, 42.15)">
      <path d="M20.5 -35.0 L21.1 -34.8 22.0 -35.1 24.35 -34.85 Q25.05 -34.45 25.35 -33.55 32.4 -31.7 36.2 -26.6 40.0 -21.5 41.55 -4.9 43.05 11.7 32.55 45.5 32.85 31.5 33.4 25.15 35.95 20.25 36.85 11.55 37.75 2.8 33.55 1.55 29.35 0.25 28.15 6.3 22.1 17.4 23.15 10.7 24.15 3.95 24.0 -7.5 6.7 -16.15 -11.8 -8.65 L-14.5 -7.5 -12.9 -11.3 -13.5 -13.5 Q-16.2 -11.1 -25.85 -7.5 -31.75 -5.3 -36.8 -5.25 L-37.5 -5.25 -36.85 -5.75 Q-33.9 -8.15 -34.5 -11.75 -37.2 -9.05 -38.75 -8.2 -40.55 -7.2 -44.2 -6.6 L-36.0 -17.5 Q-39.95 -15.85 -44.0 -16.5 L-33.0 -25.0 Q-36.55 -24.45 -40.0 -25.5 -27.9 -36.75 -13.15 -40.2 1.4 -43.6 16.6 -38.95 L17.4 -39.65 18.15 -39.25 Q20.7 -37.75 20.5 -35.0" fill="url(#gradient0)" fill-rule="evenodd" stroke="none"/>
      <path d="M20.5 -35.0 Q20.7 -37.75 18.15 -39.25 L17.4 -39.65 16.6 -38.95 Q1.4 -43.6 -13.15 -40.2 -27.9 -36.75 -40.0 -25.5 -36.55 -24.45 -33.0 -25.0 L-44.0 -16.5 Q-39.95 -15.85 -36.0 -17.5 L-44.2 -6.6 Q-40.55 -7.2 -38.75 -8.2 -37.2 -9.05 -34.5 -11.75 -33.9 -8.15 -36.85 -5.75 L-37.5 -5.25 -36.8 -5.25 Q-31.75 -5.3 -25.85 -7.5 -16.2 -11.1 -13.5 -13.5 L-12.9 -11.3 -14.5 -7.5 -11.8 -8.65 Q6.7 -16.15 24.0 -7.5" fill="none" stroke="#000000" stroke-linecap="round" stroke-linejoin="round" stroke-width="2.0"/>
      <path d="M24.0 -7.5 Q24.15 3.95 23.15 10.7 22.1 17.4 28.15 6.3 29.35 0.25 33.55 1.55 37.75 2.8 36.85 11.55 35.95 20.25 33.4 25.15 32.85 31.5 32.55 45.5 43.05 11.7 41.55 -4.9 40.0 -21.5 36.2 -26.6 32.4 -31.7 25.35 -33.55 25.05 -34.45 24.35 -34.85 L22.0 -35.1 21.1 -34.8" fill="none" stroke="#000000" stroke-linecap="round" stroke-linejoin="round" stroke-width="2.0"/>
    </g>
    </g>
  </g>
  <defs>
    <radialGradient cx="0" cy="0" gradientTransform="matrix(0.0028, 0.1085, -0.1668, 0.0043, 1.0, -31.5)" gradientUnits="userSpaceOnUse" id="gradient0" r="819.2" spreadMethod="pad">
      <stop offset="0.0" stop-color="#3c1e00"/>
      <stop offset="0.3176470588235294" stop-color="#7c543f"/>
      <stop offset="1.0" stop-color="#482400"/>
    </radialGradient>
  </defs>
</svg>