<svg xmlns:xlink="http://www.w3.org/1999/xlink" xmlns="http://www.w3.org/2000/svg" height="264.15px" width="342.25px">
  <g transform="matrix(1.0, 0.0, 0.0, 1.0, 243.25, 83.7)">
    <g data-characterId="1187" height="77.65" transform="matrix(1.0, 0.0, 0.0, 1.0, -45.0, -57.1)" width="111.35" xlink:href="#shape0"><g id="shape0" transform="matrix(1.0, 0.0, 0.0, 1.0, 45.0, 57.1)">
      <path d="M-13.3 -47.75 L-12.2 -48.5 -10.6 -49.45 Q-2.45 -54.1 7.2 -55.55 L15.05 -56.6 22.1 -55.6 24.3 -55.15 24.5 -55.1 24.55 -55.1 24.5 -55.05 Q37.05 -48.0 43.4 -39.15 49.7 -30.35 55.0 -20.6 60.3 -10.9 46.5 -11.1 32.65 -11.3 26.75 -15.0 L26.25 -14.5 26.2 -14.55 25.55 -15.4 23.0 -14.6 22.8 -14.5 Q16.15 -12.6 9.55 -14.1 1.3 -15.25 -6.95 -13.75 -17.55 -11.5 -26.3 -14.95 -26.0 -30.35 -20.25 -37.45 L-12.65 -46.9 -13.3 -47.75 M12.1 -20.45 L14.85 -19.9 Q20.45 -18.35 25.55 -15.4 20.45 -18.35 14.85 -19.9 L12.1 -20.45" fill="#396225" fill-rule="evenodd" stroke="none"/>
      <path d="M24.55 -55.1 Q34.15 -52.75 43.05 -47.0 55.9 -38.75 63.05 -25.45 66.2 -19.6 65.8 -12.65 65.35 -5.1 59.85 -1.0 54.6 2.85 50.1 1.6 L49.6 1.45 Q44.85 -0.2 38.35 -3.65 32.15 -6.95 26.25 -14.5 L26.75 -15.0 Q32.65 -11.3 46.5 -11.1 60.3 -10.9 55.0 -20.6 49.7 -30.35 43.4 -39.15 37.05 -48.0 24.5 -55.05 L24.55 -55.1 M-33.9 -19.2 Q-30.15 -33.6 -18.4 -43.9 -16.05 -45.95 -13.3 -47.75 L-12.65 -46.9 -20.25 -37.45 Q-26.0 -30.35 -26.3 -14.95 -30.3 -16.5 -33.9 -19.2 M-27.05 -28.35 L-26.85 -28.25 -27.05 -28.4 -27.05 -28.35" fill="#2b441a" fill-rule="evenodd" stroke="none"/>
      <path d="M-27.05 -28.35 L-27.05 -28.4 -26.85 -28.25 -27.05 -28.35" fill="#466f2b" fill-rule="evenodd" stroke="none"/>
      <path d="M50.1 1.6 L51.25 3.25 50.8 3.9 Q49.85 4.8 48.6 4.5 L48.85 5.25 Q49.25 6.95 48.25 8.25 L44.9 9.75 46.3 10.2 46.6 11.75 Q45.85 12.0 45.3 12.45 43.35 14.0 45.0 15.85 L44.55 16.65 42.45 18.6 41.15 19.0 40.65 19.85 38.65 19.75 Q33.7 17.0 38.65 11.4 L37.35 10.3 Q37.1 8.5 38.45 7.35 L37.4 6.0 38.55 5.45 37.1 3.75 36.95 2.9 Q34.4 3.45 32.8 1.7 L29.8 6.75 Q27.45 7.65 25.35 6.3 L27.8 3.4 23.45 3.05 Q23.0 -2.2 27.65 -5.2 24.8 -5.05 22.85 -7.05 L23.75 -9.35 21.3 -10.4 21.4 -11.25 Q21.65 -13.45 23.05 -13.55 L23.0 -14.6 25.55 -15.4 26.2 -14.55 26.25 -14.5 Q32.15 -6.95 38.35 -3.65 44.85 -0.2 49.6 1.45 L50.1 1.6 M9.55 -14.1 L8.25 -10.85 7.3 -10.95 6.8 -11.6 Q2.25 -10.25 -2.0 -11.55 L-2.85 -10.1 Q-4.25 -7.85 -7.0 -8.0 L-8.6 -10.1 -9.75 -8.35 Q-12.95 -2.9 -17.65 -7.15 L-18.5 -8.0 Q-18.05 -7.2 -18.45 -6.4 -20.5 -1.9 -25.2 -4.95 -25.55 -3.85 -26.55 -3.15 -28.3 -2.0 -30.25 -2.45 L-30.8 -3.1 Q-31.45 -4.15 -31.7 -5.6 -35.65 -1.6 -39.8 -5.65 L-39.75 -6.7 Q-39.5 -8.35 -38.25 -9.5 -41.4 -8.2 -44.4 -8.85 L-44.5 -9.75 -42.25 -11.25 -43.75 -12.1 Q-42.0 -16.8 -36.55 -17.55 L-40.45 -17.85 -40.55 -18.3 Q-39.1 -22.8 -33.9 -19.2 -30.3 -16.5 -26.3 -14.95 -17.55 -11.5 -6.95 -13.75 1.3 -15.25 9.55 -14.1" fill="url(#gradient0)" fill-rule="evenodd" stroke="none"/>
      <path d="M-13.3 -47.75 L-12.2 -48.5 -10.6 -49.45 Q-2.45 -54.1 7.2 -55.55 L15.05 -56.6 22.1 -55.6 24.3 -55.15 24.5 -55.1 24.55 -55.1 Q34.15 -52.75 43.05 -47.0 55.9 -38.75 63.05 -25.45 66.2 -19.6 65.8 -12.65 65.35 -5.1 59.85 -1.0 54.6 2.85 50.1 1.6 L51.25 3.25 50.8 3.9 Q49.85 4.8 48.6 4.5 L48.85 5.25 Q49.25 6.95 48.25 8.25 L44.9 9.75 46.3 10.2 46.6 11.75 Q45.85 12.0 45.3 12.45 43.35 14.0 45.0 15.85 L44.55 16.65 42.45 18.6 41.15 19.0 40.65 19.85 38.65 19.75 Q33.7 17.0 38.65 11.4 L37.35 10.3 Q37.1 8.5 38.45 7.35 L37.4 6.0 38.55 5.45 37.1 3.75 36.95 2.9 Q34.4 3.45 32.8 1.7 L29.8 6.75 Q27.45 7.65 25.35 6.3 L27.8 3.4 23.45 3.05 Q23.0 -2.2 27.65 -5.2 24.8 -5.05 22.85 -7.05 L23.75 -9.35 21.3 -10.4 21.4 -11.25 Q21.65 -13.45 23.05 -13.55 M23.0 -14.6 L22.8 -14.5 Q16.15 -12.6 9.55 -14.1 L8.25 -10.85 7.3 -10.95 6.8 -11.6 Q2.25 -10.25 -2.0 -11.55 L-2.85 -10.1 Q-4.25 -7.85 -7.0 -8.0 L-8.6 -10.1 -9.75 -8.35 Q-12.95 -2.9 -17.65 -7.15 L-18.5 -8.0 Q-18.05 -7.2 -18.45 -6.4 -20.5 -1.9 -25.2 -4.95 -25.55 -3.85 -26.55 -3.15 -28.3 -2.0 -30.25 -2.45 L-30.8 -3.1 Q-31.45 -4.15 -31.7 -5.6 -35.65 -1.6 -39.8 -5.65 L-39.75 -6.7 Q-39.5 -8.35 -38.25 -9.5 -41.4 -8.2 -44.4 -8.85 L-44.5 -9.75 -42.25 -11.25 -43.75 -12.1 Q-42.0 -16.8 -36.55 -17.55 L-40.45 -17.85 -40.55 -18.3 Q-39.1 -22.8 -33.9 -19.2 -30.15 -33.6 -18.4 -43.9 -16.05 -45.95 -13.3 -47.75 M-26.3 -14.95 Q-17.55 -11.5 -6.95 -13.75 1.3 -15.25 9.55 -14.1 M26.25 -14.5 Q32.15 -6.95 38.35 -3.65 44.85 -0.2 49.6 1.45 L50.1 1.6 M25.55 -15.4 Q20.45 -18.35 14.85 -19.9 L12.1 -20.45 M26.25 -14.5 L26.2 -14.55 25.55 -15.4 23.0 -14.6 M-33.9 -19.2 Q-30.3 -16.5 -26.3 -14.95" fill="none" stroke="#000000" stroke-linecap="round" stroke-linejoin="round" stroke-width="2.0"/>
    </g>
    </g>
  </g>
  <defs>
    <radialGradient cx="0" cy="0" gradientTransform="matrix(0.0011, 0.0446, -0.0983, 0.0025, 1.75, -12.1)" gradientUnits="userSpaceOnUse" id="gradient0" r="819.2" spreadMethod="pad">
      <stop offset="0.0" stop-color="#3c1e00"/>
      <stop offset="0.3176470588235294" stop-color="#7c543f"/>
      <stop offset="1.0" stop-color="#482400"/>
    </radialGradient>
  </defs>
</svg>