<svg xmlns:xlink="http://www.w3.org/1999/xlink" xmlns="http://www.w3.org/2000/svg" height="264.15px" width="342.25px">
  <g transform="matrix(1.0, 0.0, 0.0, 1.0, 243.25, 83.7)">
    <g data-characterId="1131" height="82.3" transform="matrix(1.0, 0.0, 0.0, 1.0, -63.25, -44.6)" width="107.5" xlink:href="#shape0"><g id="shape0" transform="matrix(1.0, 0.0, 0.0, 1.0, 63.25, 44.6)">
      <path d="M26.95 -33.9 L27.7 -37.6 28.05 -37.6 Q28.7 -36.75 28.95 -35.65 L29.25 -33.5 Q30.4 -34.55 31.8 -35.05 L32.75 -35.25 Q31.1 -34.2 30.65 -32.6 L30.5 -31.75 Q32.35 -32.2 33.8 -31.0 L36.2 -28.7 41.05 -22.8 42.4 -21.0 Q43.2 -19.8 43.3 -18.5 43.95 -8.45 43.7 1.5 43.65 4.45 43.2 7.35 42.4 12.2 40.7 16.95 39.1 21.5 38.05 26.3 37.3 29.8 37.75 33.5 L36.0 33.0 35.5 32.95 35.3 37.2 33.9 35.6 33.0 33.75 32.25 35.0 31.9 26.05 33.15 25.35 Q34.5 23.6 34.6 21.8 34.7 20.0 35.6 17.9 36.5 15.75 37.35 11.95 38.2 8.15 37.0 5.6 35.75 3.0 35.1 2.3 34.4 1.55 32.85 1.2 31.3 0.85 30.05 2.9 28.7 4.95 28.5 6.5 L26.9 6.7 27.05 3.95 Q27.2 1.1 25.95 -1.45 L25.25 -2.5 Q22.55 -5.65 19.5 -8.15 18.65 -8.8 18.4 -9.85 18.0 -11.5 17.95 -13.25 17.9 -15.0 18.25 -16.75 14.8 -16.05 11.0 -16.65 2.9 -16.7 -4.1 -12.2 L-15.2 -5.4 Q-20.15 -2.5 -25.8 -1.65 L-33.5 -1.25 Q-31.05 -2.45 -29.5 -4.55 L-31.25 -4.4 -39.4 -3.15 -46.5 -1.45 -51.5 -1.25 -52.8 -1.6 Q-48.45 -2.75 -44.9 -5.4 L-42.95 -7.15 Q-41.55 -8.35 -40.5 -10.0 L-48.5 -9.25 Q-52.55 -8.8 -56.5 -9.25 -58.95 -9.45 -61.05 -10.1 L-62.75 -10.8 -61.65 -11.65 -59.55 -12.45 -56.6 -13.85 Q-52.25 -16.05 -48.2 -18.9 L-46.6 -20.2 -45.25 -21.5 -54.4 -20.1 -61.2 -20.3 -61.8 -20.65 -60.65 -21.35 Q-55.4 -24.1 -49.95 -26.4 -46.3 -27.9 -42.65 -29.65 -26.6 -37.05 -9.8 -41.9 -6.6 -42.95 -3.2 -43.2 L4.3 -44.0 Q12.45 -44.65 19.5 -40.7 L22.15 -38.65 24.4 -36.45 25.75 -35.05 26.95 -33.9 27.5 -33.75 26.95 -33.9 27.25 -33.0 26.95 -33.9 M26.25 -30.75 L27.35 -30.3 29.05 -29.25 28.85 -28.95 25.0 -28.5 25.65 -27.75 Q26.8 -26.6 26.85 -24.95 L24.0 -23.5 26.85 -24.95 Q26.8 -26.6 25.65 -27.75 L25.0 -28.5 28.85 -28.95 29.05 -29.25 27.35 -30.3 26.25 -30.75" fill="url(#gradient0)" fill-rule="evenodd" stroke="none"/>
      <path d="M18.25 -16.75 Q14.8 -16.05 11.0 -16.65 2.9 -16.7 -4.1 -12.2 L-15.2 -5.4 Q-20.15 -2.5 -25.8 -1.65 L-33.5 -1.25 Q-31.05 -2.45 -29.5 -4.55 L-31.25 -4.4 -39.4 -3.15 -46.5 -1.45 -51.5 -1.25 -52.8 -1.6 Q-48.45 -2.75 -44.9 -5.4 L-42.95 -7.15 Q-41.55 -8.35 -40.5 -10.0 L-48.5 -9.25 Q-52.55 -8.8 -56.5 -9.25 -58.95 -9.45 -61.05 -10.1 L-62.75 -10.8 -61.65 -11.65 -59.55 -12.45 -56.6 -13.85 Q-52.25 -16.05 -48.2 -18.9 L-46.6 -20.2 -45.25 -21.5 -54.4 -20.1 -61.2 -20.3 -61.8 -20.65 -60.65 -21.35 Q-55.4 -24.1 -49.95 -26.4 -46.3 -27.9 -42.65 -29.65 -26.6 -37.05 -9.8 -41.9 -6.6 -42.95 -3.2 -43.2 L4.3 -44.0 Q12.45 -44.65 19.5 -40.7 L22.15 -38.65 24.4 -36.45 25.75 -35.05 26.95 -33.9 27.5 -33.75" fill="none" stroke="#000000" stroke-linecap="round" stroke-linejoin="round" stroke-width="2.0"/>
      <path d="M26.95 -33.9 L27.7 -37.6 28.05 -37.6 Q28.7 -36.75 28.95 -35.65 L29.25 -33.5 Q30.4 -34.55 31.8 -35.05 L32.75 -35.25 Q31.1 -34.2 30.65 -32.6 L30.5 -31.75 Q32.35 -32.2 33.8 -31.0 L36.2 -28.7 41.05 -22.8 42.4 -21.0 Q43.2 -19.8 43.3 -18.5 43.95 -8.45 43.7 1.5 43.65 4.45 43.2 7.35 42.4 12.2 40.7 16.95 39.1 21.5 38.05 26.3 37.3 29.8 37.75 33.5 L36.0 33.0 M35.5 32.95 L35.3 37.2 33.9 35.6 33.0 33.75 32.25 35.0 M31.9 26.05 L33.15 25.35 Q34.5 23.6 34.6 21.8 34.7 20.0 35.6 17.9 36.5 15.75 37.35 11.95 38.2 8.15 37.0 5.6 35.75 3.0 35.1 2.3 34.4 1.55 32.85 1.2 31.3 0.85 30.05 2.9 28.7 4.95 28.5 6.5 L26.9 6.7 M27.25 -33.0 L26.95 -33.9 M24.0 -23.5 L26.85 -24.95 Q26.8 -26.6 25.65 -27.75 L25.0 -28.5 28.85 -28.95 29.05 -29.25 27.35 -30.3 26.25 -30.75" fill="none" stroke="#000000" stroke-linecap="round" stroke-linejoin="round" stroke-width="2.0"/>
      <path d="M32.25 35.0 L31.9 26.05 M26.9 6.7 L27.05 3.95 Q27.2 1.1 25.95 -1.45 L25.25 -2.5 Q22.55 -5.65 19.5 -8.15 18.65 -8.8 18.4 -9.85 18.0 -11.5 17.95 -13.25 17.9 -15.0 18.25 -16.75" fill="none" stroke="#dfa062" stroke-linecap="round" stroke-linejoin="round" stroke-width="2.0"/>
    </g>
    </g>
  </g>
  <defs>
    <radialGradient cx="0" cy="0" gradientTransform="matrix(0.0033, 0.1311, -0.2016, 0.0052, 1.0, -31.5)" gradientUnits="userSpaceOnUse" id="gradient0" r="819.2" spreadMethod="pad">
      <stop offset="0.0" stop-color="#001ece"/>
      <stop offset="0.26666666666666666" stop-color="#00a4f2"/>
      <stop offset="0.3215686274509804" stop-color="#64caf7"/>
      <stop offset="0.3803921568627451" stop-color="#009df0"/>
      <stop offset="1.0" stop-color="#001ece"/>
    </radialGradient>
  </defs>
</svg>