<svg xmlns:xlink="http://www.w3.org/1999/xlink" xmlns="http://www.w3.org/2000/svg" height="119.1px" width="213.05px">
  <g transform="matrix(1.0, 0.0, 0.0, 1.0, 94.65, 81.2)">
    <g data-characterId="943" height="94.05" transform="matrix(1.0, 0.0, 0.0, 1.0, -85.4, -58.75)" width="184.75" xlink:href="#shape0"><g id="shape0" transform="matrix(1.0, 0.0, 0.0, 1.0, 85.4, 58.75)">
      <path d="M28.25 -21.6 Q31.7 -23.45 34.6 -26.1 L36.05 -27.5 34.05 -19.35 33.4 -16.7 31.05 -14.3 29.1 -17.9 27.35 -21.15 28.25 -21.6 M34.05 -19.35 L29.1 -17.9 34.05 -19.35" fill="url(#gradient0)" fill-rule="evenodd" stroke="none"/>
      <path d="M36.05 -27.5 L34.6 -26.1 Q31.7 -23.45 28.25 -21.6 L27.65 -31.2 Q31.0 -29.5 36.05 -27.5" fill="#003300" fill-rule="evenodd" stroke="none"/>
      <path d="M-39.05 -4.7 L-23.5 -0.75 Q-12.25 5.0 12.3 3.15 30.6 1.6 38.7 -3.25 L39.55 4.7 Q29.8 8.35 10.45 8.7 L8.55 8.5 Q-2.35 5.6 -6.9 14.95 L-9.75 9.2 Q-12.05 4.7 -22.45 4.15 L-43.7 1.15 Q-41.75 -2.05 -39.05 -4.7" fill="#445907" fill-rule="evenodd" stroke="none"/>
      <path d="M27.35 -21.15 L29.1 -17.9 Q12.3 -13.0 9.75 -12.55 L2.25 -11.5 -6.3 -11.8 Q-10.35 -12.7 -13.15 -13.7 -16.85 -14.95 -16.6 -14.9 L-24.2 -17.7 -16.6 -14.9 Q-16.85 -14.95 -13.15 -13.7 -10.35 -12.7 -6.3 -11.8 L2.25 -11.5 9.75 -12.55 Q12.3 -13.0 29.1 -17.9 L31.05 -14.3 33.4 -16.7 34.05 -19.35 36.05 -27.5 38.7 -3.25 Q30.6 1.6 12.3 3.15 -12.25 5.0 -23.5 -0.75 L-39.05 -4.7 Q-35.5 -8.25 -30.6 -10.95 L-24.9 -22.6 Q-11.4 -13.75 1.1 -14.75 13.55 -15.8 27.35 -21.15 M39.55 4.7 L42.15 28.4 11.3 30.75 Q2.05 32.8 -7.15 34.45 -22.95 36.85 -48.55 23.0 -49.25 10.15 -43.7 1.15 L-22.45 4.15 Q-12.05 4.7 -9.75 9.2 L-6.9 14.95 Q-2.35 5.6 8.55 8.5 L10.45 8.7 Q29.8 8.35 39.55 4.7 M-10.4 16.1 Q-11.1 12.3 -13.85 9.45 -14.6 8.75 -15.55 8.5 -18.0 7.75 -38.25 5.45 -18.0 7.75 -15.55 8.5 -14.6 8.75 -13.85 9.45 -11.1 12.3 -10.4 16.1 M30.5 10.6 Q4.7 10.85 1.4 12.05 -2.3 13.35 -3.55 17.2 -5.35 22.9 -5.75 28.75 -5.85 29.85 -6.35 30.75 -5.85 29.85 -5.75 28.75 -5.35 22.9 -3.55 17.2 -2.3 13.35 1.4 12.05 4.7 10.85 30.5 10.6 M-8.75 31.65 L-6.9 14.95 -8.75 31.65" fill="url(#gradient1)" fill-rule="evenodd" stroke="none"/>
      <path d="M36.05 -27.5 L34.6 -26.1 Q31.7 -23.45 28.25 -21.6 L27.35 -21.15 Q13.55 -15.8 1.1 -14.75 -11.4 -13.75 -24.9 -22.6 L-30.6 -10.95 Q-35.5 -8.25 -39.05 -4.7 L-23.5 -0.75 Q-12.25 5.0 12.3 3.15 30.6 1.6 38.7 -3.25 L39.55 4.7 42.15 28.4 11.3 30.75 Q2.05 32.8 -7.15 34.45 -22.95 36.85 -48.55 23.0 -49.25 10.15 -43.7 1.15 -41.75 -2.05 -39.05 -4.7 M36.05 -27.5 Q31.0 -29.5 27.65 -31.2 L28.25 -21.6 M38.7 -3.25 L36.05 -27.5 M-43.7 1.15 L-22.45 4.15 Q-12.05 4.7 -9.75 9.2 L-6.9 14.95 Q-2.35 5.6 8.55 8.5 L10.45 8.7 Q29.8 8.35 39.55 4.7 M-6.9 14.95 L-8.75 31.65" fill="none" stroke="#000000" stroke-linecap="round" stroke-linejoin="round" stroke-width="2.0"/>
      <path d="M29.1 -17.9 L34.05 -19.35 M-24.2 -17.7 L-16.6 -14.9 Q-16.85 -14.95 -13.15 -13.7 -10.35 -12.7 -6.3 -11.8 L2.25 -11.5 9.75 -12.55 Q12.3 -13.0 29.1 -17.9 M-6.35 30.75 Q-5.85 29.85 -5.75 28.75 -5.35 22.9 -3.55 17.2 -2.3 13.35 1.4 12.05 4.7 10.85 30.5 10.6 M-38.25 5.45 Q-18.0 7.75 -15.55 8.5 -14.6 8.75 -13.85 9.45 -11.1 12.3 -10.4 16.1" fill="none" stroke="#c2fe9a" stroke-linecap="round" stroke-linejoin="round" stroke-width="2.0"/>
      <path d="M94.6 4.3 Q84.95 13.25 71.25 13.1 L68.2 13.1 Q51.9 12.35 41.9 14.25 40.55 14.4 39.35 15.4 L37.95 16.65 37.35 16.5 37.3 10.3 37.1 9.2 Q34.45 12.25 32.95 15.95 L30.35 22.9 27.35 13.9 26.15 12.95 Q18.05 5.45 19.5 -5.8 L21.8 -12.7 22.3 -13.65 Q23.25 -15.6 25.2 -16.7 24.4 -24.25 26.05 -31.25 27.5 -37.55 30.9 -43.45 L31.55 -44.25 Q33.45 -43.55 34.4 -41.7 L35.05 -40.25 35.55 -38.75 36.4 -35.65 40.1 -28.8 42.45 -31.2 45.1 -42.0 45.2 -44.85 Q47.6 -51.7 52.7 -57.25 L53.95 -58.25 Q57.7 -46.55 60.85 -30.35 68.0 -27.0 80.2 -23.95 L81.0 -23.7 Q80.55 -22.15 79.05 -21.6 L76.45 -18.95 Q84.5 -5.85 98.85 -2.4 L98.6 -0.85 83.15 3.45 Q88.5 5.35 94.6 4.3 M57.95 -30.65 L57.2 -32.85 Q56.0 -36.85 55.35 -40.95 54.5 -46.25 52.2 -51.05 L49.9 -47.8 Q47.2 -42.65 46.05 -36.95 L45.3 -32.65 46.05 -36.95 Q47.2 -42.65 49.9 -47.8 L52.2 -51.05 Q54.5 -46.25 55.35 -40.95 56.0 -36.85 57.2 -32.85 L57.95 -30.65 M43.55 -18.85 Q40.0 -23.4 38.0 -28.7 36.0 -34.05 32.35 -38.4 L29.7 -31.75 Q27.85 -27.05 27.75 -20.65 L27.7 -18.7 Q27.65 -14.75 28.6 -10.8 27.65 -14.75 27.7 -18.7 L27.75 -20.65 Q27.85 -27.05 29.7 -31.75 L32.35 -38.4 Q36.0 -34.05 38.0 -28.7 40.0 -23.4 43.55 -18.85 M31.5 -14.75 Q30.3 -19.3 31.8 -30.35 34.0 -22.8 34.95 -21.15 35.85 -19.5 40.45 -17.65 35.85 -19.5 34.95 -21.15 34.0 -22.8 31.8 -30.35 30.3 -19.3 31.5 -14.75 M45.6 -18.55 L40.1 -28.8 45.6 -18.55 M72.9 0.05 Q74.5 -0.4 75.75 -1.3 L75.3 -0.25 Q73.7 3.5 69.35 2.7 65.45 2.25 61.95 0.55 L58.9 0.5 Q55.9 1.6 53.9 3.9 L54.05 2.65 Q54.4 -0.05 52.8 -2.5 L56.3 -1.25 58.4 -1.55 Q60.35 -2.0 62.2 -1.5 67.35 0.1 72.9 0.05 67.35 0.1 62.2 -1.5 60.35 -2.0 58.4 -1.55 L56.3 -1.25 52.8 -2.5 Q54.4 -0.05 54.05 2.65 L53.9 3.9 Q55.9 1.6 58.9 0.5 L61.95 0.55 Q65.45 2.25 69.35 2.7 73.7 3.5 75.3 -0.25 L75.75 -1.3 Q74.5 -0.4 72.9 0.05 M91.6 -1.3 Q89.55 -2.1 87.75 -3.25 82.95 -6.3 78.9 -10.25 L78.35 -11.35 78.9 -10.25 Q82.95 -6.3 87.75 -3.25 89.55 -2.1 91.6 -1.3 M73.45 -16.8 Q72.15 -18.3 73.7 -19.65 L75.55 -21.35 76.05 -21.7 62.85 -25.75 76.05 -21.7 75.55 -21.35 73.7 -19.65 Q72.15 -18.3 73.45 -16.8 M74.05 -13.1 L72.15 -12.5 71.25 -14.0 70.3 -14.1 71.05 -11.1 68.75 -11.05 68.15 -13.25 66.25 -14.55 65.75 -12.2 63.95 -12.5 63.3 -15.35 61.5 -16.0 61.0 -15.75 60.75 -13.4 58.65 -13.4 58.5 -17.1 56.35 -16.15 56.15 -13.5 53.05 -14.5 53.7 -17.75 53.7 -18.8 53.3 -19.95 52.5 -20.3 50.7 -20.1 49.8 -19.7 50.75 -14.5 47.0 -15.95 50.75 -14.5 49.8 -19.7 50.7 -20.1 52.5 -20.3 53.3 -19.95 53.7 -18.8 53.7 -17.75 53.05 -14.5 56.15 -13.5 56.35 -16.15 58.5 -17.1 58.65 -13.4 60.75 -13.4 61.0 -15.75 61.5 -16.0 63.3 -15.35 63.95 -12.5 65.75 -12.2 66.25 -14.55 68.15 -13.25 68.75 -11.05 71.05 -11.1 70.3 -14.1 71.25 -14.0 72.15 -12.5 74.05 -13.1 M51.7 -11.85 Q53.7 -4.0 62.35 -5.5 66.25 -6.2 68.35 -8.75 L51.7 -11.85 47.05 -12.75 51.7 -11.85 M31.75 2.75 L30.6 4.3 Q29.95 5.25 29.5 8.05 29.0 10.8 30.05 15.1 29.0 10.8 29.5 8.05 29.95 5.25 30.6 4.3 L31.75 2.75 M44.85 -10.3 Q39.15 -9.35 35.9 -4.35 35.0 -3.05 34.9 -0.7 42.8 -3.0 51.05 -1.0 L44.85 -10.3 51.05 -1.0 Q42.8 -3.0 34.9 -0.7 35.0 -3.05 35.9 -4.35 39.15 -9.35 44.85 -10.3 M50.2 3.15 Q51.05 2.25 51.3 1.3 L40.95 1.0 41.65 2.6 42.4 3.25 Q44.8 4.65 47.35 4.4 49.0 4.4 50.2 3.15 49.0 4.4 47.35 4.4 44.8 4.65 42.4 3.25 L41.65 2.6 40.95 1.0 51.3 1.3 Q51.05 2.25 50.2 3.15 M28.6 -0.7 Q28.0 0.65 27.55 2.1 25.7 7.95 27.35 13.9 25.7 7.95 27.55 2.1 28.0 0.65 28.6 -0.7 M24.85 -8.2 L23.4 -4.35 Q21.6 1.15 23.7 6.5 21.6 1.15 23.4 -4.35 L24.85 -8.2 M26.3 -9.9 L25.2 -16.7 26.3 -9.9" fill="url(#gradient2)" fill-rule="evenodd" stroke="none"/>
      <path d="M98.6 -0.85 Q98.1 0.9 96.7 2.35 L94.6 4.3 Q88.5 5.35 83.15 3.45 L98.6 -0.85 M51.7 -11.85 L68.35 -8.75 Q66.25 -6.2 62.35 -5.5 53.7 -4.0 51.7 -11.85" fill="#445907" fill-rule="evenodd" stroke="none"/>
      <path d="M94.6 4.3 Q84.95 13.25 71.25 13.1 L68.2 13.1 Q51.9 12.35 41.9 14.25 40.55 14.4 39.35 15.4 L37.95 16.65 37.35 16.5 37.3 10.3 37.1 9.2 Q34.45 12.25 32.95 15.95 L30.35 22.9 27.35 13.9 26.15 12.95 Q18.05 5.45 19.5 -5.8 L21.8 -12.7 22.3 -13.65 Q23.25 -15.6 25.2 -16.7 24.4 -24.25 26.05 -31.25 27.5 -37.55 30.9 -43.45 L31.55 -44.25 Q33.45 -43.55 34.4 -41.7 L35.05 -40.25 35.55 -38.75 36.4 -35.65 40.1 -28.8 42.45 -31.2 45.1 -42.0 45.2 -44.85 Q47.6 -51.7 52.7 -57.25 L53.95 -58.25 Q57.7 -46.55 60.85 -30.35 68.0 -27.0 80.2 -23.95 L81.0 -23.7 Q80.55 -22.15 79.05 -21.6 L76.45 -18.95 Q84.5 -5.85 98.85 -2.4 L98.6 -0.85 Q98.1 0.9 96.7 2.35 L94.6 4.3 Q88.5 5.35 83.15 3.45 L98.6 -0.85 M40.1 -28.8 L45.6 -18.55 M40.45 -17.65 Q35.85 -19.5 34.95 -21.15 34.0 -22.8 31.8 -30.35 30.3 -19.3 31.5 -14.75 M51.7 -11.85 L68.35 -8.75 Q66.25 -6.2 62.35 -5.5 53.7 -4.0 51.7 -11.85 L47.05 -12.75 M27.35 13.9 Q25.7 7.95 27.55 2.1 28.0 0.65 28.6 -0.7 M25.2 -16.7 L26.3 -9.9" fill="none" stroke="#000000" stroke-linecap="round" stroke-linejoin="round" stroke-width="2.0"/>
      <path d="M28.6 -10.8 Q27.65 -14.75 27.7 -18.7 L27.75 -20.65 Q27.85 -27.05 29.7 -31.75 L32.35 -38.4 Q36.0 -34.05 38.0 -28.7 40.0 -23.4 43.55 -18.85 M45.3 -32.65 L46.05 -36.95 Q47.2 -42.65 49.9 -47.8 L52.2 -51.05 Q54.5 -46.25 55.35 -40.95 56.0 -36.85 57.2 -32.85 L57.95 -30.65 M47.0 -15.95 L50.75 -14.5 49.8 -19.7 50.7 -20.1 52.5 -20.3 53.3 -19.95 53.7 -18.8 53.7 -17.75 53.05 -14.5 56.15 -13.5 56.35 -16.15 58.5 -17.1 58.65 -13.4 60.75 -13.4 61.0 -15.75 61.5 -16.0 63.3 -15.35 63.95 -12.5 65.75 -12.2 66.25 -14.55 68.15 -13.25 68.75 -11.05 71.05 -11.1 70.3 -14.1 71.25 -14.0 72.15 -12.5 74.05 -13.1 M62.85 -25.75 L76.05 -21.7 75.55 -21.35 73.7 -19.65 Q72.15 -18.3 73.45 -16.8 M78.35 -11.35 L78.9 -10.25 Q82.95 -6.3 87.75 -3.25 89.55 -2.1 91.6 -1.3 M72.9 0.05 Q67.35 0.1 62.2 -1.5 60.35 -2.0 58.4 -1.55 L56.3 -1.25 52.8 -2.5 Q54.4 -0.05 54.05 2.65 L53.9 3.9 Q55.9 1.6 58.9 0.5 L61.95 0.55 Q65.45 2.25 69.35 2.7 73.7 3.5 75.3 -0.25 L75.75 -1.3 Q74.5 -0.4 72.9 0.05 M50.2 3.15 Q49.0 4.4 47.35 4.4 44.8 4.65 42.4 3.25 L41.65 2.6 40.95 1.0 51.3 1.3 Q51.05 2.25 50.2 3.15 M44.85 -10.3 L51.05 -1.0 Q42.8 -3.0 34.9 -0.7 35.0 -3.05 35.9 -4.35 39.15 -9.35 44.85 -10.3 M30.05 15.1 Q29.0 10.8 29.5 8.05 29.95 5.25 30.6 4.3 L31.75 2.75 M23.7 6.5 Q21.6 1.15 23.4 -4.35 L24.85 -8.2" fill="none" stroke="#c2fe9a" stroke-linecap="round" stroke-linejoin="round" stroke-width="2.0"/>
      <path d="M-48.85 -26.0 L-49.8 -27.4 Q-52.95 -31.8 -57.3 -34.8 -52.95 -31.8 -49.8 -27.4 L-48.85 -26.0 M-44.25 -12.75 L-44.6 -12.1 -45.9 -11.7 Q-47.3 -10.95 -48.4 -11.95 -49.15 -12.65 -49.1 -13.65 L-49.95 -14.35 -50.9 -14.2 -50.15 -12.2 -50.3 -11.5 -50.95 -10.9 -52.2 -10.9 -53.05 -13.95 -54.9 -13.95 Q-54.35 -13.2 -54.55 -12.15 -54.8 -10.85 -56.0 -10.2 L-57.15 -10.4 -57.9 -13.35 -59.15 -13.65 -60.15 -12.8 -59.65 -10.45 -60.3 -9.75 Q-61.35 -8.7 -62.95 -8.75 -61.35 -8.7 -60.3 -9.75 L-59.65 -10.45 -60.15 -12.8 -59.15 -13.65 -57.9 -13.35 -57.15 -10.4 -56.0 -10.2 Q-54.8 -10.85 -54.55 -12.15 -54.35 -13.2 -54.9 -13.95 L-53.05 -13.95 -52.2 -10.9 -50.95 -10.9 -50.3 -11.5 -50.15 -12.2 -50.9 -14.2 -49.95 -14.35 -49.1 -13.65 Q-49.15 -12.65 -48.4 -11.95 -47.3 -10.95 -45.9 -11.7 L-44.6 -12.1 -44.25 -12.75 M-63.85 -14.5 Q-64.5 -12.5 -65.75 -10.75 -67.45 -8.45 -70.15 -7.3 -75.65 -4.85 -81.4 -3.55 -75.65 -4.85 -70.15 -7.3 -67.45 -8.45 -65.75 -10.75 -64.5 -12.5 -63.85 -14.5 M-38.35 6.6 L-44.9 8.15 Q-54.75 10.35 -64.0 6.25 L-64.55 5.65 -75.7 4.65 Q-84.9 4.5 -84.9 -5.25 -77.9 -6.25 -71.6 -9.4 -65.9 -12.3 -64.75 -18.25 L-57.9 -18.55 -57.45 -19.35 Q-55.95 -25.05 -58.4 -30.75 -60.1 -34.85 -58.45 -38.65 L-55.85 -36.55 Q-48.95 -30.75 -44.25 -22.6 L-41.5 -23.5 -44.55 -17.15 -41.5 -23.5 Q-39.7 -34.2 -37.2 -44.35 L-36.95 -45.05 -36.3 -45.3 Q-29.1 -36.1 -28.1 -24.0 L-27.95 -21.4 Q-22.75 -17.0 -20.85 -11.2 L-20.25 -9.0 Q-19.95 -7.7 -19.8 -6.3 -19.45 -2.75 -20.5 0.85 L-21.0 2.2 Q-22.05 0.35 -23.7 -1.0 L-25.85 -2.7 Q-26.05 7.35 -32.65 14.0 -34.0 15.4 -35.6 16.6 L-37.15 17.75 Q-35.25 12.0 -38.35 6.6 L-38.55 6.3 -40.0 3.95 -38.55 6.3 -38.35 6.6 M-48.75 -21.15 L-44.25 -22.6 -48.75 -21.15 M-31.6 -26.6 Q-31.5 -30.6 -33.5 -34.2 L-35.65 -37.8 Q-35.75 -34.3 -36.8 -31.1 L-40.25 -20.25 -36.8 -31.1 Q-35.75 -34.3 -35.65 -37.8 L-33.5 -34.2 Q-31.5 -30.6 -31.6 -26.6 M-32.45 -14.2 Q-31.95 -15.7 -31.95 -17.25 -31.9 -22.5 -34.5 -26.85 -34.55 -26.2 -34.75 -25.6 -36.35 -20.45 -38.8 -15.65 -36.35 -20.45 -34.75 -25.6 -34.55 -26.2 -34.5 -26.85 -31.9 -22.5 -31.95 -17.25 -31.95 -15.7 -32.45 -14.2 M-32.45 -5.3 Q-31.35 -2.75 -31.1 0.2 -30.6 6.0 -33.6 11.1 -30.6 6.0 -31.1 0.2 -31.35 -2.75 -32.45 -5.3 M-28.75 -18.55 L-27.85 -17.65 -26.45 -15.65 Q-23.7 -10.65 -23.0 -4.7 -23.7 -10.65 -26.45 -15.65 L-27.85 -17.65 -28.75 -18.55 M-28.95 -6.5 Q-26.95 -5.1 -25.85 -2.7 -26.95 -5.1 -28.95 -6.5 M-40.8 -0.45 Q-39.1 -3.2 -40.8 -6.15 L-41.25 -5.25 Q-42.75 -1.95 -46.3 -0.9 L-46.3 3.35 Q-44.0 3.7 -42.5 1.95 L-40.8 -0.45 -42.5 1.95 Q-44.0 3.7 -46.3 3.35 L-46.3 -0.9 Q-42.75 -1.95 -41.25 -5.25 L-40.8 -6.15 Q-39.1 -3.2 -40.8 -0.45 M-56.8 -7.6 Q-54.15 -2.9 -48.5 -3.5 -42.95 -3.75 -43.5 -8.95 -44.25 -9.2 -44.95 -8.95 L-56.8 -7.6 -60.9 -6.95 -61.3 -5.25 -60.9 -6.95 -56.8 -7.6 M-50.6 3.05 Q-53.8 3.75 -56.4 1.9 -57.55 1.15 -58.75 0.5 -59.55 0.0 -60.45 -0.25 L-62.6 -0.3 -59.5 -2.05 -54.25 0.8 -50.55 -0.25 -50.0 3.05 -50.55 -0.25 -54.25 0.8 -59.5 -2.05 -62.6 -0.3 -60.45 -0.25 Q-59.55 0.0 -58.75 0.5 -57.55 1.15 -56.4 1.9 -53.8 3.75 -50.6 3.05" fill="url(#gradient3)" fill-rule="evenodd" stroke="none"/>
      <path d="M-56.8 -7.6 L-44.95 -8.95 Q-44.25 -9.2 -43.5 -8.95 -42.95 -3.75 -48.5 -3.5 -54.15 -2.9 -56.8 -7.6" fill="#445907" fill-rule="evenodd" stroke="none"/>
      <path d="M-81.4 -3.55 Q-75.65 -4.85 -70.15 -7.3 -67.45 -8.45 -65.75 -10.75 -64.5 -12.5 -63.85 -14.5 M-62.95 -8.75 Q-61.35 -8.7 -60.3 -9.75 L-59.65 -10.45 -60.15 -12.8 -59.15 -13.65 -57.9 -13.35 -57.15 -10.4 -56.0 -10.2 Q-54.8 -10.85 -54.55 -12.15 -54.35 -13.2 -54.9 -13.95 L-53.05 -13.95 -52.2 -10.9 -50.95 -10.9 -50.3 -11.5 -50.15 -12.2 -50.9 -14.2 -49.95 -14.35 -49.1 -13.65 Q-49.15 -12.65 -48.4 -11.95 -47.3 -10.95 -45.9 -11.7 L-44.6 -12.1 -44.25 -12.75 M-57.3 -34.8 Q-52.95 -31.8 -49.8 -27.4 L-48.85 -26.0 M-40.25 -20.25 L-36.8 -31.1 Q-35.75 -34.3 -35.65 -37.8 L-33.5 -34.2 Q-31.5 -30.6 -31.6 -26.6 M-23.0 -4.7 Q-23.7 -10.65 -26.45 -15.65 L-27.85 -17.65 -28.75 -18.55 M-33.6 11.1 Q-30.6 6.0 -31.1 0.2 -31.35 -2.75 -32.45 -5.3 M-40.8 -0.45 L-42.5 1.95 Q-44.0 3.7 -46.3 3.35 L-46.3 -0.9 Q-42.75 -1.95 -41.25 -5.25 L-40.8 -6.15 Q-39.1 -3.2 -40.8 -0.45 M-50.0 3.05 L-50.55 -0.25 -54.25 0.8 -59.5 -2.05 -62.6 -0.3 -60.45 -0.25 Q-59.55 0.0 -58.75 0.5 -57.55 1.15 -56.4 1.9 -53.8 3.75 -50.6 3.05" fill="none" stroke="#c2fe9a" stroke-linecap="round" stroke-linejoin="round" stroke-width="2.0"/>
      <path d="M-44.25 -22.6 Q-48.95 -30.75 -55.85 -36.55 L-58.45 -38.65 Q-60.1 -34.85 -58.4 -30.75 -55.95 -25.05 -57.45 -19.35 L-57.9 -18.55 -64.75 -18.25 Q-65.9 -12.3 -71.6 -9.4 -77.9 -6.25 -84.9 -5.25 -84.9 4.5 -75.7 4.65 L-64.55 5.65 -64.0 6.25 Q-54.75 10.35 -44.9 8.15 L-38.35 6.6 -38.55 6.3 -40.0 3.95 M-41.5 -23.5 L-44.25 -22.6 -48.75 -21.15 M-41.5 -23.5 L-44.55 -17.15 M-25.85 -2.7 L-23.7 -1.0 Q-22.05 0.35 -21.0 2.2 L-20.5 0.85 Q-19.45 -2.75 -19.8 -6.3 -19.95 -7.7 -20.25 -9.0 L-20.85 -11.2 Q-22.75 -17.0 -27.95 -21.4 L-28.1 -24.0 Q-29.1 -36.1 -36.3 -45.3 L-36.95 -45.05 -37.2 -44.35 Q-39.7 -34.2 -41.5 -23.5 M-38.8 -15.65 Q-36.35 -20.45 -34.75 -25.6 -34.55 -26.2 -34.5 -26.85 -31.9 -22.5 -31.95 -17.25 -31.95 -15.7 -32.45 -14.2 M-38.35 6.6 Q-35.25 12.0 -37.15 17.75 L-35.6 16.6 Q-34.0 15.4 -32.65 14.0 -26.05 7.35 -25.85 -2.7 -26.95 -5.1 -28.95 -6.5 M-56.8 -7.6 L-44.95 -8.95 Q-44.25 -9.2 -43.5 -8.95 -42.95 -3.75 -48.5 -3.5 -54.15 -2.9 -56.8 -7.6 L-60.9 -6.95 -61.3 -5.25" fill="none" stroke="#000000" stroke-linecap="round" stroke-linejoin="round" stroke-width="2.0"/>
    </g>
    </g>
  </g>
  <defs>
    <linearGradient gradientTransform="matrix(0.0314, 0.0, 0.0, 0.0321, -4.05, 4.5)" gradientUnits="userSpaceOnUse" id="gradient0" spreadMethod="pad" x1="-819.2" x2="819.2">
      <stop offset="0.0" stop-color="#45701b"/>
      <stop offset="0.32941176470588235" stop-color="#e2f9db"/>
      <stop offset="0.7490196078431373" stop-color="#67933c"/>
      <stop offset="1.0" stop-color="#4e5c23"/>
    </linearGradient>
    <linearGradient gradientTransform="matrix(0.0314, 0.0, 0.0, 0.0321, -4.05, 4.5)" gradientUnits="userSpaceOnUse" id="gradient1" spreadMethod="pad" x1="-819.2" x2="819.2">
      <stop offset="0.0" stop-color="#45701b"/>
      <stop offset="0.4588235294117647" stop-color="#e2f9db"/>
      <stop offset="0.7490196078431373" stop-color="#67933c"/>
      <stop offset="1.0" stop-color="#4e5c23"/>
    </linearGradient>
    <radialGradient cx="0" cy="0" gradientTransform="matrix(0.0516, 0.0298, -0.0191, 0.0331, 59.1, -17.65)" gradientUnits="userSpaceOnUse" id="gradient2" r="819.2" spreadMethod="pad">
      <stop offset="0.0" stop-color="#e2f9db"/>
      <stop offset="0.4745098039215686" stop-color="#67933c"/>
      <stop offset="1.0" stop-color="#4e5c23"/>
    </radialGradient>
    <radialGradient cx="0" cy="0" gradientTransform="matrix(0.0314, -0.0181, 0.0146, 0.0254, -59.5, -14.45)" gradientUnits="userSpaceOnUse" id="gradient3" r="819.2" spreadMethod="pad">
      <stop offset="0.0" stop-color="#e2f9db"/>
      <stop offset="0.4745098039215686" stop-color="#67933c"/>
      <stop offset="1.0" stop-color="#4e5c23"/>
    </radialGradient>
  </defs>
</svg>