<svg xmlns:xlink="http://www.w3.org/1999/xlink" xmlns="http://www.w3.org/2000/svg" height="264.15px" width="342.25px">
  <g transform="matrix(1.0, 0.0, 0.0, 1.0, 243.25, 83.7)">
    <g data-characterId="1179" height="173.7" transform="matrix(1.0, 0.0, 0.0, 1.0, -47.1, -47.25)" width="101.45" xlink:href="#shape0"><g id="shape0" transform="matrix(1.0, 0.0, 0.0, 1.0, 47.1, 47.25)">
      <path d="M33.05 32.1 L33.15 32.55 37.5 25.55 Q41.1 30.5 40.5 36.5 L40.35 36.95 39.55 37.75 38.4 38.25 35.6 39.15 33.45 39.8 33.4 38.95 33.05 32.1" fill="#d2d99f" fill-rule="evenodd" stroke="none"/>
      <path d="M35.8 -8.35 Q35.6 -8.9 35.55 -9.5 L34.65 -14.4 Q33.5 -19.9 30.0 -24.4 L27.5 -27.35 27.1 -27.5 27.5 -27.35 30.0 -24.4 Q33.5 -19.9 34.65 -14.4 L35.55 -9.5 Q35.6 -8.9 35.8 -8.35 M24.45 -34.8 L22.0 -36.65 Q17.0 -40.1 11.05 -40.6 17.0 -40.1 22.0 -36.65 L24.45 -34.8 M38.4 -16.75 L37.15 -19.35 Q34.5 -24.05 31.1 -28.3 29.4 -30.4 27.3 -32.0 L22.1 -35.35 27.3 -32.0 Q29.4 -30.4 31.1 -28.3 34.5 -24.05 37.15 -19.35 L38.4 -16.75 M0.25 -43.45 Q5.9 -44.9 11.65 -43.5 17.55 -42.25 22.8 -39.25 L28.35 -35.7 Q31.95 -33.1 34.75 -29.7 38.2 -25.55 40.15 -20.5 42.1 -15.3 42.95 -9.8 43.8 -4.15 43.6 1.5 L43.15 5.4 41.15 16.7 Q40.15 21.5 37.5 25.55 L33.15 32.55 33.05 32.1 32.5 30.45 Q31.4 27.5 33.0 25.15 L34.35 23.0 Q35.25 21.5 35.8 19.15 36.3 16.75 36.85 15.4 37.4 14.0 37.4 12.8 L37.5 9.95 Q37.55 8.3 36.8 6.3 L35.35 2.5 Q34.75 0.7 33.0 0.85 31.2 0.95 30.0 1.9 28.75 2.8 28.85 5.25 28.9 7.7 27.35 9.65 L27.05 4.9 Q24.45 3.1 21.3 -0.15 18.1 -3.4 15.45 -8.1 12.8 -12.85 9.45 -16.6 L3.6 -23.6 2.5 -25.3 1.75 -27.2 1.45 -27.2 0.65 -26.0 0.55 -25.85 -0.5 -23.9 Q-2.0 -21.15 -4.3 -18.9 -8.5 -14.85 -13.45 -11.95 -17.3 -9.6 -21.3 -7.4 -24.4 -5.65 -26.25 -2.6 -29.1 1.95 -30.15 7.35 -31.0 11.5 -31.45 15.75 -32.55 25.4 -30.3 34.65 -33.35 30.3 -34.65 25.3 -34.8 29.3 -33.6 33.2 L-30.7 42.2 Q-32.7 41.05 -33.95 39.1 L-35.0 37.5 Q-37.0 34.65 -38.45 31.55 -39.9 28.5 -40.75 25.3 L-40.1 32.15 -41.15 32.25 Q-44.0 28.3 -45.2 23.45 -46.2 19.25 -46.3 15.1 L-46.6 3.3 Q-46.7 -1.8 -46.35 -6.9 -46.2 -9.55 -45.3 -12.05 -44.5 -14.25 -42.9 -17.5 -41.35 -20.75 -37.95 -25.4 -34.55 -30.1 -31.7 -32.95 L-25.4 -38.7 Q-22.0 -41.55 -18.25 -42.85 L-11.8 -45.15 Q-9.1 -46.2 -6.8 -46.65 L-5.6 -46.6 Q-2.6 -45.4 -0.05 -42.95 L0.25 -43.45 M11.35 -31.3 Q11.75 -36.1 7.3 -38.35 3.45 -40.4 -0.05 -42.95 3.45 -40.4 7.3 -38.35 11.75 -36.1 11.35 -31.3 M40.75 -16.2 Q40.45 -16.65 40.3 -17.15 L38.9 -20.8 Q38.15 -23.05 37.05 -25.1 L36.1 -26.35 37.05 -25.1 Q38.15 -23.05 38.9 -20.8 L40.3 -17.15 Q40.45 -16.65 40.75 -16.2 M26.5 -2.55 Q24.5 -6.6 21.2 -9.75 L16.4 -14.0 Q15.85 -14.45 15.1 -14.6 15.85 -14.45 16.4 -14.0 L21.2 -9.75 Q24.5 -6.6 26.5 -2.55 M28.25 -4.85 L27.85 -6.0 25.65 -9.75 23.4 -13.1 23.0 -13.25 23.4 -13.1 25.65 -9.75 27.85 -6.0 28.25 -4.85 M29.65 -7.2 Q28.1 -12.45 24.1 -16.15 22.8 -17.4 21.5 -18.25 22.8 -17.4 24.1 -16.15 28.1 -12.45 29.65 -7.2 M33.75 -9.2 L33.15 -10.9 31.3 -15.25 28.9 -19.2 28.25 -19.65 28.9 -19.2 31.3 -15.25 33.15 -10.9 33.75 -9.2 M37.25 -12.1 L36.95 -14.05 35.55 -17.9 34.95 -19.35 35.55 -17.9 36.95 -14.05 37.25 -12.1 M21.25 -12.15 L20.3 -15.05 Q18.45 -20.15 14.0 -23.2 18.45 -20.15 20.3 -15.05 L21.25 -12.15 M41.05 5.55 Q41.0 2.25 40.55 -1.1 40.15 -3.95 40.1 -6.9 39.95 -8.95 38.7 -10.4 39.95 -8.95 40.1 -6.9 40.15 -3.95 40.55 -1.1 41.0 2.25 41.05 5.55 M32.3 -2.85 L32.0 -3.7 30.55 -7.2 32.0 -3.7 32.3 -2.85 M3.75 -35.35 Q0.65 -36.75 -2.3 -35.0 L-9.05 -30.45 -9.55 -30.05 -9.9 -29.85 -9.55 -30.05 -9.05 -30.45 -2.3 -35.0 Q0.65 -36.75 3.75 -35.35 M-3.8 -42.05 Q-6.7 -42.95 -9.35 -41.45 -10.85 -40.65 -12.25 -39.95 -10.85 -40.65 -9.35 -41.45 -6.7 -42.95 -3.8 -42.05 M-2.05 -39.1 L-4.05 -38.85 Q-7.9 -37.75 -10.5 -34.5 -7.9 -37.75 -4.05 -38.85 L-2.05 -39.1 M-32.95 -18.2 L-34.55 -16.9 -37.6 -14.15 -34.55 -16.9 -32.95 -18.2 M-22.7 -14.15 L-23.85 -13.3 Q-26.95 -10.9 -29.7 -8.05 -26.95 -10.9 -23.85 -13.3 L-22.7 -14.15 M-21.85 -21.7 L-24.05 -20.7 Q-27.7 -18.8 -30.8 -16.3 -34.05 -13.7 -36.65 -10.4 -34.05 -13.7 -30.8 -16.3 -27.7 -18.8 -24.05 -20.7 L-21.85 -21.7 M-27.35 -15.85 L-29.1 -14.65 Q-32.3 -12.3 -33.8 -8.6 -32.3 -12.3 -29.1 -14.65 L-27.35 -15.85 M-30.3 -7.2 L-30.35 -6.9 -30.9 -4.85 Q-32.6 0.2 -33.35 5.55 L-34.3 11.9 Q-35.15 17.9 -33.2 23.25 -35.15 17.9 -34.3 11.9 L-33.35 5.55 Q-32.6 0.2 -30.9 -4.85 L-30.35 -6.9 -30.3 -7.2 M-36.4 -5.15 L-37.05 -1.4 -37.5 4.4 -38.35 14.55 Q-38.85 20.4 -36.65 25.6 -38.85 20.4 -38.35 14.55 L-37.5 4.4 -37.05 -1.4 -36.4 -5.15 M-27.95 -23.75 L-33.8 -20.0 Q-38.4 -16.65 -41.05 -11.85 -38.4 -16.65 -33.8 -20.0 L-27.95 -23.75 M-22.45 -10.35 L-24.7 -8.5 -26.8 -6.3 -24.7 -8.5 -22.45 -10.35 M-39.3 -6.65 L-41.4 3.85 Q-41.95 6.85 -41.95 9.9 L-41.5 18.05 Q-41.35 19.85 -40.2 21.25 -41.35 19.85 -41.5 18.05 L-41.95 9.9 Q-41.95 6.85 -41.4 3.85 L-39.3 -6.65 M-6.7 -18.55 L-4.75 -20.6 Q-2.55 -23.1 -1.75 -26.35 -2.55 -23.1 -4.75 -20.6 L-6.7 -18.55" fill="url(#gradient0)" fill-rule="evenodd" stroke="none"/>
      <path d="M40.35 36.95 L41.05 37.25 Q46.05 39.5 48.45 44.4 L50.2 48.3 Q52.55 53.75 53.2 59.65 L53.8 66.25 Q54.0 69.1 53.55 72.25 52.7 78.3 48.7 82.75 L45.05 86.35 41.3 89.1 Q38.05 91.1 34.55 92.7 L25.0 97.4 Q23.25 98.3 21.45 99.3 17.45 101.45 14.25 104.85 12.1 107.05 10.4 109.6 8.5 112.3 7.95 115.85 7.2 120.75 9.6 124.85 5.35 120.9 4.75 115.05 4.15 109.0 7.0 103.8 8.25 101.5 9.9 99.45 12.5 96.1 15.45 93.0 19.45 88.65 24.3 85.25 29.1 81.7 32.5 77.0 33.65 75.3 34.1 73.0 35.2 67.7 34.4 62.25 L32.75 54.0 Q32.05 51.15 32.55 47.95 33.1 43.6 32.9 38.95 L33.4 38.95 33.45 39.8 35.6 39.15 38.4 38.25 39.55 37.75 40.35 36.95 M38.7 49.7 L39.05 51.15 Q40.4 56.55 40.1 62.15 40.0 63.3 40.05 64.5 39.95 67.85 39.25 71.1 39.95 67.85 40.05 64.5 40.0 63.3 40.1 62.15 40.4 56.55 39.05 51.15 L38.7 49.7 M39.25 71.1 L39.1 70.05 39.0 62.75 39.1 70.05 39.25 71.1 38.05 75.5 37.4 76.9 Q34.9 80.8 31.75 84.25 L30.5 85.3 21.2 92.25 18.7 94.2 Q15.85 96.4 13.3 99.0 11.15 101.1 10.5 103.95 11.15 101.1 13.3 99.0 15.85 96.4 18.7 94.2 L21.2 92.25 30.5 85.3 31.75 84.25 Q34.9 80.8 37.4 76.9 L38.05 75.5 39.25 71.1 M38.4 73.2 L38.0 70.9 37.45 65.7 Q37.15 62.25 35.5 59.3 37.15 62.25 37.45 65.7 L38.0 70.9 38.4 73.2 M41.6 84.25 Q43.2 80.35 43.65 76.15 L44.3 70.05 Q44.95 64.2 43.95 58.45 L42.9 53.8 Q42.4 51.7 42.2 49.7 42.4 51.7 42.9 53.8 L43.95 58.45 Q44.95 64.2 44.3 70.05 L43.65 76.15 Q43.2 80.35 41.6 84.25 M29.95 91.75 L31.5 90.7 36.4 87.75 31.5 90.7 29.95 91.75 M41.9 75.25 L42.65 70.9 Q43.4 66.05 41.8 61.4 L41.6 61.05 41.8 61.4 Q43.4 66.05 42.65 70.9 L41.9 75.25 M47.1 63.55 L47.75 60.15 47.9 56.4 Q47.5 52.5 46.25 48.85 47.5 52.5 47.9 56.4 L47.75 60.15 47.1 63.55 Q47.6 67.1 47.25 70.65 47.05 72.8 46.0 74.65 47.05 72.8 47.25 70.65 47.6 67.1 47.1 63.55 L46.95 62.75 46.85 61.9 46.95 62.75 47.1 63.55 46.85 64.8 47.1 63.55 M45.7 65.4 L45.7 65.7 Q45.95 67.9 45.4 69.7 45.95 67.9 45.7 65.7 L45.7 65.4 M49.2 65.1 L49.35 65.4 Q49.4 68.2 48.35 70.9 49.4 68.2 49.35 65.4 L49.2 65.1 M49.5 74.35 Q51.3 68.85 51.5 63.05 51.3 68.85 49.5 74.35" fill="url(#gradient1)" fill-rule="evenodd" stroke="none"/>
      <path d="M1.75 -27.2 L2.5 -25.3 3.6 -23.6 9.45 -16.6 Q12.8 -12.85 15.45 -8.1 18.1 -3.4 21.3 -0.15 24.45 3.1 27.05 4.9 L27.35 9.65 Q28.9 7.7 28.85 5.25 28.75 2.8 30.0 1.9 31.2 0.95 33.0 0.85 34.75 0.7 35.35 2.5 L36.8 6.3 Q37.55 8.3 37.5 9.95 L37.4 12.8 Q37.4 14.0 36.85 15.4 36.3 16.75 35.8 19.15 35.25 21.5 34.35 23.0 L33.0 25.15 Q31.4 27.5 32.5 30.45" fill="none" stroke="#000000" stroke-linecap="round" stroke-linejoin="round" stroke-width="2.0"/>
      <path d="M37.5 25.55 Q40.15 21.5 41.15 16.7 L43.15 5.4 43.6 1.5 Q43.8 -4.15 42.95 -9.8 42.1 -15.3 40.15 -20.5 38.2 -25.55 34.75 -29.7 31.95 -33.1 28.35 -35.7 L22.8 -39.25 Q17.55 -42.25 11.65 -43.5 5.9 -44.9 0.25 -43.45 M-0.05 -42.95 Q3.45 -40.4 7.3 -38.35 11.75 -36.1 11.35 -31.3 M-40.1 32.15 L-40.75 25.3 Q-39.9 28.5 -38.45 31.55 -37.0 34.65 -35.0 37.5 L-33.95 39.1 Q-32.7 41.05 -30.7 42.2 L-33.6 33.2 Q-34.8 29.3 -34.65 25.3 -33.35 30.3 -30.3 34.65 -32.55 25.4 -31.45 15.75 -31.0 11.5 -30.15 7.35 -29.1 1.95 -26.25 -2.6 -24.4 -5.65 -21.3 -7.4 -17.3 -9.6 -13.45 -11.95 -8.5 -14.85 -4.3 -18.9 -2.0 -21.15 -0.5 -23.9 L0.55 -25.85 0.65 -26.0 1.45 -27.2 M32.5 30.45 L33.05 32.1 33.15 32.55 37.5 25.55 Q41.1 30.5 40.5 36.5 L40.35 36.95 39.55 37.75 38.4 38.25 35.6 39.15 33.45 39.8 33.4 38.95 33.05 32.1 M41.05 37.25 Q46.05 39.5 48.45 44.4 L50.2 48.3 Q52.55 53.75 53.2 59.65 L53.8 66.25 Q54.0 69.1 53.55 72.25 52.7 78.3 48.7 82.75 L45.05 86.35 41.3 89.1 Q38.05 91.1 34.55 92.7 L25.0 97.4 Q23.25 98.3 21.45 99.3 17.45 101.45 14.25 104.85 12.1 107.05 10.4 109.6 8.5 112.3 7.95 115.85 7.2 120.75 9.6 124.85 L10.35 125.95 M1.4 -26.5 L2.4 -25.1 Q5.4 -20.15 7.55 -14.75 L9.6 -9.55 10.5 -7.45 Q12.5 -3.0 15.55 0.8 L17.25 2.3 M0.65 -26.0 Q1.35 -25.6 1.6 -24.5 L1.8 -23.55 2.05 -21.6 Q2.2 -16.45 4.6 -11.8 L6.6 -7.2 M32.9 38.95 Q33.1 43.6 32.55 47.95 32.05 51.15 32.75 54.0 L34.4 62.25 Q35.2 67.7 34.1 73.0 33.65 75.3 32.5 77.0 29.1 81.7 24.3 85.25 19.45 88.65 15.45 93.0 12.5 96.1 9.9 99.45 8.25 101.5 7.0 103.8 4.15 109.0 4.75 115.05 5.35 120.9 9.6 124.85 M-0.05 -42.95 Q-2.6 -45.4 -5.6 -46.6 L-6.8 -46.65 Q-9.1 -46.2 -11.8 -45.15 L-18.25 -42.85 Q-22.0 -41.55 -25.4 -38.7 L-31.7 -32.95 Q-34.55 -30.1 -37.95 -25.4 -41.35 -20.75 -42.9 -17.5 -44.5 -14.25 -45.3 -12.05 -46.2 -9.55 -46.35 -6.9 -46.7 -1.8 -46.6 3.3 L-46.3 15.1 Q-46.2 19.25 -45.2 23.45 -44.0 28.3 -41.15 32.25 L-39.9 34.3 -40.1 32.15" fill="none" stroke="#000000" stroke-linecap="round" stroke-linejoin="round" stroke-width="2.0"/>
      <path d="M22.1 -35.35 L27.3 -32.0 Q29.4 -30.4 31.1 -28.3 34.5 -24.05 37.15 -19.35 L38.4 -16.75 M11.05 -40.6 Q17.0 -40.1 22.0 -36.65 L24.45 -34.8 M30.55 -7.2 L32.0 -3.7 32.3 -2.85 M38.7 -10.4 Q39.95 -8.95 40.1 -6.9 40.15 -3.95 40.55 -1.1 41.0 2.25 41.05 5.55 M14.0 -23.2 Q18.45 -20.15 20.3 -15.05 L21.25 -12.15 M39.25 71.1 Q39.95 67.85 40.05 64.5 40.0 63.3 40.1 62.15 40.4 56.55 39.05 51.15 L38.7 49.7 M39.25 71.1 L38.05 75.5 37.4 76.9 Q34.9 80.8 31.75 84.25 L30.5 85.3 21.2 92.25 18.7 94.2 Q15.85 96.4 13.3 99.0 11.15 101.1 10.5 103.95 M36.4 87.75 L31.5 90.7 29.95 91.75 M42.2 49.7 Q42.4 51.7 42.9 53.8 L43.95 58.45 Q44.95 64.2 44.3 70.05 L43.65 76.15 Q43.2 80.35 41.6 84.25 M46.25 48.85 Q47.5 52.5 47.9 56.4 L47.75 60.15 47.1 63.55 46.85 64.8 M-10.5 -34.5 Q-7.9 -37.75 -4.05 -38.85 L-2.05 -39.1 M-12.25 -39.95 Q-10.85 -40.65 -9.35 -41.45 -6.7 -42.95 -3.8 -42.05 M-9.9 -29.85 L-9.55 -30.05 -9.05 -30.45 -2.3 -35.0 Q0.65 -36.75 3.75 -35.35 M-36.65 25.6 Q-38.85 20.4 -38.35 14.55 L-37.5 4.4 -37.05 -1.4 -36.4 -5.15 M-33.2 23.25 Q-35.15 17.9 -34.3 11.9 L-33.35 5.55 Q-32.6 0.2 -30.9 -4.85 L-30.35 -6.9 -30.3 -7.2 M-1.75 -26.35 Q-2.55 -23.1 -4.75 -20.6 L-6.7 -18.55 M-40.2 21.25 Q-41.35 19.85 -41.5 18.05 L-41.95 9.9 Q-41.95 6.85 -41.4 3.85 L-39.3 -6.65" fill="none" stroke="#683f35" stroke-linecap="round" stroke-linejoin="round" stroke-width="1.5"/>
      <path d="M36.1 -26.35 L37.05 -25.1 Q38.15 -23.05 38.9 -20.8 L40.3 -17.15 Q40.45 -16.65 40.75 -16.2 M47.1 63.55 L46.95 62.75 46.85 61.9" fill="none" stroke="#a47352" stroke-linecap="round" stroke-linejoin="round" stroke-width="1.5"/>
      <path d="M27.1 -27.5 L27.5 -27.35 30.0 -24.4 Q33.5 -19.9 34.65 -14.4 L35.55 -9.5 Q35.6 -8.9 35.8 -8.35 M15.1 -14.6 Q15.85 -14.45 16.4 -14.0 L21.2 -9.75 Q24.5 -6.6 26.5 -2.55 M34.95 -19.35 L35.55 -17.9 36.95 -14.05 37.25 -12.1 M28.25 -19.65 L28.9 -19.2 31.3 -15.25 33.15 -10.9 33.75 -9.2 M21.5 -18.25 Q22.8 -17.4 24.1 -16.15 28.1 -12.45 29.65 -7.2 M23.0 -13.25 L23.4 -13.1 25.65 -9.75 27.85 -6.0 28.25 -4.85 M39.0 62.75 L39.1 70.05 39.25 71.1 M35.5 59.3 Q37.15 62.25 37.45 65.7 L38.0 70.9 38.4 73.2 M41.6 61.05 L41.8 61.4 Q43.4 66.05 42.65 70.9 L41.9 75.25 M47.1 63.55 Q47.6 67.1 47.25 70.65 47.05 72.8 46.0 74.65 M48.35 70.9 Q49.4 68.2 49.35 65.4 L49.2 65.1 M45.4 69.7 Q45.95 67.9 45.7 65.7 L45.7 65.4 M51.5 63.05 Q51.3 68.85 49.5 74.35 M-33.8 -8.6 Q-32.3 -12.3 -29.1 -14.65 L-27.35 -15.85 M-36.65 -10.4 Q-34.05 -13.7 -30.8 -16.3 -27.7 -18.8 -24.05 -20.7 L-21.85 -21.7 M-29.7 -8.05 Q-26.95 -10.9 -23.85 -13.3 L-22.7 -14.15 M-37.6 -14.15 L-34.55 -16.9 -32.95 -18.2 M-26.8 -6.3 L-24.7 -8.5 -22.45 -10.35 M-41.05 -11.85 Q-38.4 -16.65 -33.8 -20.0 L-27.95 -23.75" fill="none" stroke="#ba9b74" stroke-linecap="round" stroke-linejoin="round" stroke-width="1.5"/>
    </g>
    </g>
  </g>
  <defs>
    <radialGradient cx="0" cy="0" gradientTransform="matrix(0.0028, 0.1094, -0.1688, 0.0043, 1.0, -32.85)" gradientUnits="userSpaceOnUse" id="gradient0" r="819.2" spreadMethod="pad">
      <stop offset="0.0" stop-color="#3c1e00"/>
      <stop offset="0.20392156862745098" stop-color="#654028"/>
      <stop offset="0.3176470588235294" stop-color="#b89660"/>
      <stop offset="0.43137254901960786" stop-color="#744d35"/>
      <stop offset="1.0" stop-color="#482400"/>
    </radialGradient>
    <radialGradient cx="0" cy="0" gradientTransform="matrix(0.1225, 0.0, 0.0, 0.1221, 45.1, 35.15)" gradientUnits="userSpaceOnUse" id="gradient1" r="819.2" spreadMethod="pad">
      <stop offset="0.0" stop-color="#3c1e00"/>
      <stop offset="0.20392156862745098" stop-color="#654028"/>
      <stop offset="0.3176470588235294" stop-color="#b89660"/>
      <stop offset="0.43137254901960786" stop-color="#744d35"/>
      <stop offset="1.0" stop-color="#482400"/>
    </radialGradient>
  </defs>
</svg>