<svg xmlns:xlink="http://www.w3.org/1999/xlink" xmlns="http://www.w3.org/2000/svg" height="119.1px" width="213.05px">
  <g transform="matrix(1.0, 0.0, 0.0, 1.0, 94.65, 81.2)">
    <g data-characterId="929" height="38.25" transform="matrix(1.0, 0.0, 0.0, 1.0, -59.0, -22.5)" width="132.2" xlink:href="#shape0"><g id="shape0" transform="matrix(1.0, 0.0, 0.0, 1.0, 59.0, 22.5)">
      <path d="M24.0 -14.0 L23.5 -13.5 Q22.65 -12.85 21.6 -12.3 L20.4 -11.65 Q19.75 -11.25 19.0 -11.0 14.1 -9.2 9.0 -7.95 L-0.55 -5.75 Q-5.35 -4.65 -7.5 0.0 -5.35 -4.65 -0.55 -5.75 L9.0 -7.95 Q14.1 -9.2 19.0 -11.0 19.75 -11.25 20.4 -11.65 L21.6 -12.3 Q22.65 -12.85 23.5 -13.5 L24.0 -14.0 M-21.55 -20.5 L-18.5 -19.3 Q5.35 -9.25 28.0 -22.5 L28.5 -22.0 Q30.1 -21.15 30.95 -18.85 31.2 -18.15 33.1 -17.35 L33.0 -16.1 Q32.25 -9.4 29.45 -3.4 26.95 1.85 25.1 7.4 23.9 11.05 23.6 15.05 11.0 14.3 -2.6 11.3 L-10.1 10.75 Q-17.2 11.05 -24.15 10.75 -23.75 7.7 -25.4 4.65 -30.3 -4.5 -30.5 -14.85 -24.6 -16.8 -21.55 -20.5 M-27.9 -13.6 Q-26.05 -10.9 -26.5 -7.5 -26.05 -10.9 -27.9 -13.6" fill="url(#gradient0)" fill-rule="evenodd" stroke="none"/>
      <path d="M-30.5 -14.85 Q-30.3 -4.5 -25.4 4.65 -23.75 7.7 -24.15 10.75 -40.65 9.95 -56.45 5.55 -58.9 4.8 -58.4 -3.6 -57.9 -12.0 -42.5 -12.85 -35.5 -13.25 -30.5 -14.85 M23.6 15.05 Q23.9 11.05 25.1 7.4 26.95 1.85 29.45 -3.4 32.25 -9.4 33.0 -16.1 L33.1 -17.35 Q37.2 -15.6 49.1 -13.5 66.4 -10.4 71.75 -0.7 77.1 8.95 52.1 13.45 38.5 15.85 23.6 15.05" fill="#ded0b1" fill-rule="evenodd" stroke="none"/>
      <path d="M-21.55 -20.5 Q-24.6 -16.8 -30.5 -14.85 -30.3 -4.5 -25.4 4.65 -23.75 7.7 -24.15 10.75 -17.2 11.05 -10.1 10.75 L-2.6 11.3 Q11.0 14.3 23.6 15.05 23.9 11.05 25.1 7.4 26.95 1.85 29.45 -3.4 32.25 -9.4 33.0 -16.1 L33.1 -17.35 Q31.2 -18.15 30.95 -18.85 30.1 -21.15 28.5 -22.0 M23.6 15.05 Q38.5 15.85 52.1 13.45 77.1 8.95 71.75 -0.7 66.4 -10.4 49.1 -13.5 37.2 -15.6 33.1 -17.35 M-30.5 -14.85 Q-35.5 -13.25 -42.5 -12.85 -57.9 -12.0 -58.4 -3.6 -58.9 4.8 -56.45 5.55 -40.65 9.95 -24.15 10.75" fill="none" stroke="#000000" stroke-linecap="round" stroke-linejoin="round" stroke-width="2.0"/>
      <path d="M-7.5 0.0 Q-5.35 -4.65 -0.55 -5.75 L9.0 -7.95 Q14.1 -9.2 19.0 -11.0 19.75 -11.25 20.4 -11.65 L21.6 -12.3 Q22.65 -12.85 23.5 -13.5 L24.0 -14.0 M-26.5 -7.5 Q-26.05 -10.9 -27.9 -13.6" fill="none" stroke="#a97745" stroke-linecap="round" stroke-linejoin="round" stroke-width="2.0"/>
    </g>
    </g>
  </g>
  <defs>
    <radialGradient cx="0" cy="0" gradientTransform="matrix(0.0543, 0.0, 0.0, 0.0824, -20.0, -3.0)" gradientUnits="userSpaceOnUse" id="gradient0" r="819.2" spreadMethod="pad">
      <stop offset="0.0" stop-color="#e2b983"/>
      <stop offset="0.6274509803921569" stop-color="#d9a166"/>
      <stop offset="1.0" stop-color="#c08456"/>
    </radialGradient>
  </defs>
</svg>