<svg xmlns:xlink="http://www.w3.org/1999/xlink" xmlns="http://www.w3.org/2000/svg" height="42.85px" width="62.0px">
  <g transform="matrix(1.0, 0.0, 0.0, 1.0, 24.7, 15.0)">
    <g data-characterId="1110" height="31.0" transform="matrix(1.0, 0.0, 0.0, 1.0, -19.65, -10.55)" width="53.45" xlink:href="#shape0"><g id="shape0" transform="matrix(1.0, 0.0, 0.0, 1.0, 19.65, 10.55)">
      <path d="M10.1 -3.9 L12.6 -3.85 Q13.7 -3.7 15.1 -3.85 L19.6 -3.75 21.05 -3.5 22.05 -3.35 24.05 -2.8 Q25.85 -2.25 27.55 -1.15 L30.05 1.2 Q30.95 2.35 30.45 3.1 L29.65 2.9 27.5 2.85 Q30.3 4.25 31.65 7.25 L32.05 7.95 Q32.75 8.85 33.0 10.3 L33.3 11.15 Q33.8 11.95 33.8 13.55 L33.6 14.35 Q33.2 15.15 33.5 16.75 31.3 16.8 29.4 15.15 30.4 16.55 31.3 18.7 31.8 19.95 31.3 20.1 28.65 18.3 24.2 18.55 L15.75 18.95 5.9 19.25 4.9 19.25 Q2.9 19.2 0.95 19.3 -1.35 19.45 -2.65 18.8 -1.8 19.35 -1.45 20.45 -3.35 20.45 -4.5 19.65 -4.75 19.5 -5.1 19.4 -7.5 18.75 -9.7 17.35 L-10.55 16.75 Q-12.4 15.45 -13.7 13.7 -14.55 12.65 -14.65 13.0 -14.7 14.75 -15.75 15.35 -17.65 12.45 -18.85 9.15 L-19.0 8.6 -19.6 3.15 Q-19.8 0.8 -19.3 -1.0 L-19.2 -1.55 Q-18.9 -3.25 -18.25 -4.35 L-18.15 -5.2 -18.0 -5.75 Q-17.1 -8.95 -14.75 -10.55 -15.05 -7.5 -12.9 -6.05 -11.15 -4.9 -8.8 -4.5 L-5.2 -3.95 -3.75 -3.8 1.15 -3.55 1.7 -3.55 10.1 -3.9 M20.95 14.8 L20.45 14.85 19.7 14.65 17.95 14.35 13.0 14.7 11.0 14.75 1.1 14.55 0.05 14.5 Q-4.55 14.5 -8.1 11.65 L-11.4 8.8 Q-13.95 6.45 -14.25 2.35 L-14.2 0.1 Q-14.15 -0.45 -14.25 -0.85 -14.4 -1.95 -13.55 -1.85 -14.4 -1.95 -14.25 -0.85 -14.15 -0.45 -14.2 0.1 L-14.25 2.35 Q-13.95 6.45 -11.4 8.8 L-8.1 11.65 Q-4.55 14.5 0.05 14.5 L1.1 14.55 11.0 14.75 13.0 14.7 17.95 14.35 19.7 14.65 20.45 14.85 20.95 14.8 M26.55 10.3 Q25.7 8.95 23.95 8.0 L19.1 5.45 Q17.05 4.45 14.65 4.35 L7.7 3.8 Q4.0 3.35 2.45 0.35 4.0 3.35 7.7 3.8 L14.65 4.35 Q17.05 4.45 19.1 5.45 L23.95 8.0 Q25.7 8.95 26.55 10.3 M24.75 12.15 L24.15 12.0 Q22.5 11.55 20.55 10.3 L19.55 9.9 Q13.55 8.7 7.1 8.65 L5.1 8.6 Q0.35 8.55 -3.95 6.6 L-5.1 6.1 Q-8.45 4.75 -8.4 1.05 -8.45 4.75 -5.1 6.1 L-3.95 6.6 Q0.35 8.55 5.1 8.6 L7.1 8.65 Q13.55 8.7 19.55 9.9 L20.55 10.3 Q22.5 11.55 24.15 12.0 L24.75 12.15" fill="#993300" fill-rule="evenodd" stroke="none"/>
      <path d="M10.1 -3.9 L1.7 -3.55 1.15 -3.55 -3.75 -3.8 -5.2 -3.95 -8.8 -4.5 Q-11.15 -4.9 -12.9 -6.05 -15.05 -7.5 -14.75 -10.55 -17.1 -8.95 -18.0 -5.75 L-18.15 -5.2 -18.25 -4.35 Q-18.9 -3.25 -19.2 -1.55 L-19.3 -1.0 Q-19.8 0.8 -19.6 3.15 L-19.0 8.6 -18.85 9.15 Q-17.65 12.45 -15.75 15.35 -14.7 14.75 -14.65 13.0 -14.55 12.65 -13.7 13.7 -12.4 15.45 -10.55 16.75 L-9.7 17.35 Q-7.5 18.75 -5.1 19.4 -4.75 19.5 -4.5 19.65 -3.35 20.45 -1.45 20.45 -1.8 19.35 -2.65 18.8 -1.35 19.45 0.95 19.3 2.9 19.2 4.9 19.25 L5.9 19.25 15.75 18.95 24.2 18.55 Q28.65 18.3 31.3 20.1 31.8 19.95 31.3 18.7 30.4 16.55 29.4 15.15 31.3 16.8 33.5 16.75 33.2 15.15 33.6 14.35 L33.8 13.55 Q33.8 11.95 33.3 11.15 L33.0 10.3 Q32.75 8.85 32.05 7.95 L31.65 7.25 Q30.3 4.25 27.5 2.85 L29.65 2.9 30.45 3.1 Q30.95 2.35 30.05 1.2 L27.55 -1.15 Q25.85 -2.25 24.05 -2.8 L22.05 -3.35 21.05 -3.5 19.6 -3.75 15.1 -3.85 Q13.7 -3.7 12.6 -3.85 L10.1 -3.9 M-8.4 1.05 Q-8.45 4.75 -5.1 6.1 L-3.95 6.6 Q0.35 8.55 5.1 8.6 L7.1 8.65 Q13.55 8.7 19.55 9.9 L20.55 10.3 Q22.5 11.55 24.15 12.0 L24.75 12.15 M2.45 0.35 Q4.0 3.35 7.7 3.8 L14.65 4.35 Q17.05 4.45 19.1 5.45 L23.95 8.0 Q25.7 8.95 26.55 10.3 M-13.55 -1.85 Q-14.4 -1.95 -14.25 -0.85 -14.15 -0.45 -14.2 0.1 L-14.25 2.35 Q-13.95 6.45 -11.4 8.8 L-8.1 11.65 Q-4.55 14.5 0.05 14.5 L1.1 14.55 11.0 14.75 13.0 14.7 17.95 14.35 19.7 14.65 20.45 14.85 20.95 14.8" fill="none" stroke="#4b1701" stroke-linecap="round" stroke-linejoin="round" stroke-width="1.5"/>
      <path d="M8.85 -1.0 L17.5 -0.15 17.9 -0.55 24.8 0.25 M-6.45 0.4 Q4.3 12.8 21.95 11.6 L24.15 11.4 M0.95 -0.5 Q10.95 6.6 24.75 5.75 L27.2 5.6 M-10.4 1.2 Q-3.95 19.1 16.35 17.1 L18.65 16.85 M-15.85 -5.85 Q-18.75 0.7 -16.95 7.45 L-16.2 9.4 M-13.45 0.0 Q-14.8 9.9 -5.8 15.9 L-4.75 16.5" fill="none" stroke="#f44a02" stroke-linecap="round" stroke-linejoin="round" stroke-width="1.5"/>
    </g>
  </g>
  </g>
  <defs>
    </defs>
</svg>