<svg xmlns:xlink="http://www.w3.org/1999/xlink" xmlns="http://www.w3.org/2000/svg" height="264.15px" width="342.25px">
  <g transform="matrix(1.0, 0.0, 0.0, 1.0, 243.25, 83.7)">
    <g data-characterId="1158" height="82.55" transform="matrix(1.0, 0.0, 0.0, 1.0, -49.65, -48.6)" width="95.15" xlink:href="#shape0"><g id="shape0" transform="matrix(1.0, 0.0, 0.0, 1.0, 49.65, 48.6)">
      <path d="M-17.25 -36.25 L-16.35 -36.9 -14.7 -38.3 -12.05 -40.3 Q-11.15 -40.8 -10.2 -41.1 L-9.95 -41.0 -10.75 -39.25 Q-9.65 -40.3 -8.2 -40.55 L-6.55 -40.8 -2.85 -42.3 -2.5 -41.3 -2.65 -41.15 4.0 -43.5 3.75 -41.25 18.25 -40.75 17.65 -38.85 18.9 -38.75 Q21.6 -39.15 23.75 -37.75 L22.65 -36.8 21.75 -35.75 23.8 -34.8 Q25.6 -33.95 27.45 -33.2 29.5 -32.25 31.3 -30.95 L31.0 -30.5 Q34.4 -26.9 39.0 -25.1 L38.5 -23.75 38.0 -23.75 38.85 -22.3 40.55 -19.55 41.7 -17.1 Q42.45 -14.85 42.3 -12.6 L42.25 -12.7 42.4 -11.7 42.9 -9.8 Q44.35 -5.6 44.9 -1.1 L43.75 -1.0 Q43.2 1.6 43.8 4.0 44.45 6.4 43.7 8.8 43.5 9.5 43.65 10.2 L42.25 9.9 44.15 15.25 40.75 14.5 40.95 15.8 Q41.25 17.45 40.75 19.0 L39.5 18.5 40.8 20.7 40.5 21.5 40.5 22.25 39.7 22.25 Q38.95 23.95 39.75 25.5 L38.25 25.25 39.5 28.0 35.6 27.6 34.75 27.0 34.75 33.45 Q31.65 30.9 32.45 28.75 L34.55 23.0 Q35.8 19.4 36.6 14.95 37.35 10.45 37.35 8.6 L37.05 5.5 Q36.7 4.1 35.9 3.05 L34.4 1.4 Q34.0 1.05 33.5 0.9 28.9 0.6 28.15 6.35 L26.8 3.2 25.25 2.75 26.5 1.25 25.5 1.25 26.45 -0.55 Q26.4 -2.0 25.0 -2.1 L24.75 -2.5 26.5 -5.05 24.75 -6.5 26.1 -8.25 25.05 -9.55 25.15 -10.95 22.7 -11.9 22.1 -13.25 Q20.5 -14.65 18.25 -14.0 L18.05 -15.15 18.0 -15.15 16.2 -14.75 16.25 -15.75 15.8 -15.8 Q13.4 -15.0 11.5 -13.75 L10.75 -13.25 8.25 -13.45 Q4.2 -13.35 0.25 -12.3 L-4.4 -11.05 -9.4 -8.85 -11.5 -7.7 -13.75 -6.75 Q-17.6 -5.0 -21.75 -4.15 -26.45 -3.0 -31.25 -3.45 L-33.5 -3.65 Q-34.2 -2.15 -34.25 -0.4 L-34.25 0.75 Q-35.65 -0.75 -36.05 -2.95 L-36.15 -3.6 -36.0 -4.05 Q-40.7 -4.8 -44.25 -7.75 -48.15 -11.0 -48.85 -16.0 -49.2 -18.35 -49.15 -20.7 -49.05 -23.1 -48.35 -25.4 L-46.5 -29.75 Q-44.15 -34.05 -40.7 -37.4 -37.35 -40.65 -33.3 -43.1 -31.75 -44.05 -30.4 -45.3 L-29.05 -46.65 Q-28.4 -46.25 -28.3 -45.65 L-28.3 -44.75 Q-28.45 -43.45 -29.05 -42.5 L-29.25 -42.0 Q-26.4 -44.1 -25.15 -47.55 L-24.3 -47.45 Q-23.0 -44.75 -23.6 -41.7 L-24.2 -39.65 -24.9 -37.7 Q-25.3 -36.7 -26.25 -36.0 -23.8 -36.9 -22.1 -38.9 L-21.0 -40.25 Q-20.5 -39.85 -20.35 -38.85 -20.25 -38.0 -20.65 -37.4 L-22.5 -34.5 -17.25 -36.25 -17.75 -34.5 -18.15 -32.45 Q-18.55 -30.9 -19.3 -29.65 -20.05 -28.4 -19.65 -27.0 -18.85 -26.2 -17.5 -26.5 -14.85 -27.0 -13.15 -29.0 -12.65 -29.65 -13.0 -30.5 -12.65 -29.65 -13.15 -29.0 -14.85 -27.0 -17.5 -26.5 -18.85 -26.2 -19.65 -27.0 -20.05 -28.4 -19.3 -29.65 -18.55 -30.9 -18.15 -32.45 L-17.75 -34.5 -17.25 -36.25 M41.25 -8.75 L40.9 -9.45 39.25 -12.25 39.45 -10.55 Q39.85 -9.1 39.25 -8.0 L38.35 -10.3 37.1 -13.95 36.75 -14.5 36.55 -10.5 36.4 -6.75 36.25 -6.0 35.6 -7.55 33.9 -12.7 33.5 -13.5 33.75 -4.5 33.5 -5.5 Q32.0 -10.75 29.2 -15.5 L29.0 -15.75 29.4 -13.25 Q30.0 -8.4 29.5 -3.5 30.0 -8.4 29.4 -13.25 L29.0 -15.75 29.2 -15.5 Q32.0 -10.75 33.5 -5.5 L33.75 -4.5 33.5 -13.5 33.9 -12.7 35.6 -7.55 36.25 -6.0 36.4 -6.75 36.55 -10.5 36.75 -14.5 37.1 -13.95 38.35 -10.3 39.25 -8.0 Q39.85 -9.1 39.45 -10.55 L39.25 -12.25 40.9 -9.45 41.25 -8.75 M3.25 -17.75 L2.5 -17.95 -2.25 -17.75 2.5 -17.95 3.25 -17.75 M-25.75 -44.5 Q-26.45 -41.1 -29.05 -38.8 L-30.8 -37.35 -35.6 -33.85 Q-39.55 -30.85 -42.5 -26.85 -45.1 -23.4 -44.3 -19.15 L-43.65 -16.1 Q-42.45 -11.25 -37.95 -9.15 -33.85 -7.25 -29.2 -7.4 -25.2 -7.75 -21.5 -9.0 -25.2 -7.75 -29.2 -7.4 -33.85 -7.25 -37.95 -9.15 -42.45 -11.25 -43.65 -16.1 L-44.3 -19.15 Q-45.1 -23.4 -42.5 -26.85 -39.55 -30.85 -35.6 -33.85 L-30.8 -37.35 -29.05 -38.8 Q-26.45 -41.1 -25.75 -44.5 M-30.25 -43.75 L-32.05 -42.0 -33.25 -41.0 -36.75 -37.95 Q-39.85 -35.3 -42.35 -32.1 L-44.4 -29.4 -45.7 -27.15 -46.5 -24.75 Q-48.05 -20.0 -46.55 -15.1 L-46.1 -13.65 -45.55 -12.7 Q-43.0 -10.25 -40.15 -8.15 L-38.2 -7.0 -33.95 -6.3 -25.5 -6.05 -20.8 -6.8 -16.2 -7.9 -11.25 -9.9 -3.65 -13.25 Q0.85 -15.0 5.75 -15.0 0.85 -15.0 -3.65 -13.25 L-11.25 -9.9 -16.2 -7.9 -20.8 -6.8 -25.5 -6.05 -33.95 -6.3 -38.2 -7.0 -40.15 -8.15 Q-43.0 -10.25 -45.55 -12.7 L-46.1 -13.65 -46.55 -15.1 Q-48.05 -20.0 -46.5 -24.75 L-45.7 -27.15 -44.4 -29.4 -42.35 -32.1 Q-39.85 -35.3 -36.75 -37.95 L-33.25 -41.0 -32.05 -42.0 -30.25 -43.75 M-27.0 -33.75 L-27.15 -33.4 -27.9 -32.6 -34.25 -27.2 Q-35.6 -25.9 -36.25 -24.35 L-36.9 -22.25 Q-37.25 -20.55 -37.05 -18.85 -36.95 -17.75 -36.35 -16.75 -35.65 -15.6 -34.65 -14.6 -31.4 -11.2 -26.75 -10.75 L-20.25 -11.45 Q-15.8 -12.15 -12.0 -14.5 -15.8 -12.15 -20.25 -11.45 L-26.75 -10.75 Q-31.4 -11.2 -34.65 -14.6 -35.65 -15.6 -36.35 -16.75 -36.95 -17.75 -37.05 -18.85 -37.25 -20.55 -36.9 -22.25 L-36.25 -24.35 Q-35.6 -25.9 -34.25 -27.2 L-27.9 -32.6 -27.15 -33.4 -27.0 -33.75 M-21.75 -27.0 L-23.6 -24.95 Q-24.7 -23.65 -24.95 -21.8 -25.2 -19.7 -23.6 -18.55 -21.3 -16.75 -18.45 -16.5 -14.2 -16.0 -10.1 -17.5 L-5.1 -19.4 -1.0 -19.5 -5.1 -19.4 -10.1 -17.5 Q-14.2 -16.0 -18.45 -16.5 -21.3 -16.75 -23.6 -18.55 -25.2 -19.7 -24.95 -21.8 -24.7 -23.65 -23.6 -24.95 L-21.75 -27.0 M-33.5 -3.65 L-36.0 -4.05 -33.5 -3.65 M-0.25 -23.75 L-6.0 -23.6 Q-6.95 -23.5 -7.0 -22.75 -6.95 -23.5 -6.0 -23.6 L-0.25 -23.75" fill="url(#gradient0)" fill-rule="evenodd" stroke="none"/>
      <path d="M31.3 -30.95 Q29.5 -32.25 27.45 -33.2 25.6 -33.95 23.8 -34.8 L21.75 -35.75 22.65 -36.8 23.75 -37.75 Q21.6 -39.15 18.9 -38.75 L17.65 -38.85 18.25 -40.75 3.75 -41.25 4.0 -43.5 -2.65 -41.15 -2.5 -41.3 -2.85 -42.3 -6.55 -40.8 -8.2 -40.55 Q-9.65 -40.3 -10.75 -39.25 L-9.95 -41.0 -10.2 -41.1 Q-11.15 -40.8 -12.05 -40.3 L-14.7 -38.3 -16.35 -36.9 -17.25 -36.25 -17.75 -34.5 -18.15 -32.45 Q-18.55 -30.9 -19.3 -29.65 -20.05 -28.4 -19.65 -27.0 -18.85 -26.2 -17.5 -26.5 -14.85 -27.0 -13.15 -29.0 -12.65 -29.65 -13.0 -30.5 M31.0 -30.5 L32.15 -30.3 31.5 -30.85 31.3 -30.95 M31.0 -30.5 Q34.4 -26.9 39.0 -25.1 L40.75 -24.5 40.3 -24.2 39.45 -23.9 38.5 -23.75 38.0 -23.75 38.85 -22.3 40.55 -19.55 41.7 -17.1 Q42.45 -14.85 42.3 -12.6 L42.4 -11.7 42.9 -9.8 Q44.35 -5.6 44.9 -1.1 L45.0 0.25 43.75 -1.0 Q43.2 1.6 43.8 4.0 44.45 6.4 43.7 8.8 43.5 9.5 43.65 10.2 L42.25 9.9 44.15 15.25 40.75 14.5 40.95 15.8 Q41.25 17.45 40.75 19.0 L39.5 18.5 40.8 20.7 M40.5 21.5 L40.5 22.25 39.7 22.25 Q38.95 23.95 39.75 25.5 L38.25 25.25 39.5 28.0 35.6 27.6 34.75 27.0 34.75 33.45 Q31.65 30.9 32.45 28.75 L34.55 23.0 Q35.8 19.4 36.6 14.95 37.35 10.45 37.35 8.6 L37.05 5.5 Q36.7 4.1 35.9 3.05 L34.4 1.4 Q34.0 1.05 33.5 0.9 28.9 0.6 28.15 6.35 L26.8 3.2 25.25 2.75 26.5 1.25 25.5 1.25 26.45 -0.55 Q26.4 -2.0 25.0 -2.1 L24.75 -2.5 26.5 -5.05 24.75 -6.5 26.1 -8.25 25.05 -9.55 25.15 -10.95 22.7 -11.9 22.1 -13.25 Q20.5 -14.65 18.25 -14.0 L18.05 -15.15 18.0 -15.15 16.2 -14.75 16.25 -15.75 15.8 -15.8 Q13.4 -15.0 11.5 -13.75 M10.75 -13.25 L8.25 -13.45 Q4.2 -13.35 0.25 -12.3 L-4.4 -11.05 -9.4 -8.85 -11.5 -7.7 -13.75 -6.75 Q-17.6 -5.0 -21.75 -4.15 -26.45 -3.0 -31.25 -3.45 L-33.5 -3.65 Q-34.2 -2.15 -34.25 -0.4 L-34.25 0.75 Q-35.65 -0.75 -36.05 -2.95 L-36.15 -3.6 -36.0 -4.05 Q-40.7 -4.8 -44.25 -7.75 -48.15 -11.0 -48.85 -16.0 -49.2 -18.35 -49.15 -20.7 -49.05 -23.1 -48.35 -25.4 L-46.5 -29.75 Q-44.15 -34.05 -40.7 -37.4 -37.35 -40.65 -33.3 -43.1 -31.75 -44.05 -30.4 -45.3 L-29.05 -46.65 Q-28.4 -46.25 -28.3 -45.65 L-28.3 -44.75 Q-28.45 -43.45 -29.05 -42.5 L-29.25 -42.0 Q-26.4 -44.1 -25.15 -47.55 L-25.0 -47.85 Q-24.8 -48.55 -24.3 -47.45 -23.0 -44.75 -23.6 -41.7 L-24.2 -39.65 -24.9 -37.7 Q-25.3 -36.7 -26.25 -36.0 -23.8 -36.9 -22.1 -38.9 L-21.0 -40.25 Q-20.5 -39.85 -20.35 -38.85 -20.25 -38.0 -20.65 -37.4 L-22.5 -34.5 -17.25 -36.25 M42.4 -11.7 L42.25 -12.7 42.3 -12.6 M28.0 7.0 L23.0 8.75 M28.5 9.15 Q25.65 9.45 23.0 10.3 L19.75 11.5 M26.5 5.5 L23.25 6.5 M28.5 14.5 L23.0 16.25 M28.5 16.25 L26.8 16.9 M28.25 11.5 L23.0 12.75 M-36.0 -4.05 L-33.5 -3.65" fill="none" stroke="#172109" stroke-linecap="round" stroke-linejoin="round" stroke-width="2.0"/>
      <path d="M-2.25 -17.75 L2.5 -17.95 3.25 -17.75 M29.5 -3.5 Q30.0 -8.4 29.4 -13.25 L29.0 -15.75 29.2 -15.5 Q32.0 -10.75 33.5 -5.5 L33.75 -4.5 33.5 -13.5 33.9 -12.7 35.6 -7.55 36.25 -6.0 36.4 -6.75 36.55 -10.5 36.75 -14.5 37.1 -13.95 38.35 -10.3 39.25 -8.0 Q39.85 -9.1 39.45 -10.55 L39.25 -12.25 40.9 -9.45 41.25 -8.75 M5.75 -15.0 Q0.85 -15.0 -3.65 -13.25 L-11.25 -9.9 -16.2 -7.9 -20.8 -6.8 -25.5 -6.05 -33.95 -6.3 -38.2 -7.0 -40.15 -8.15 Q-43.0 -10.25 -45.55 -12.7 L-46.1 -13.65 -46.55 -15.1 Q-48.05 -20.0 -46.5 -24.75 L-45.7 -27.15 -44.4 -29.4 -42.35 -32.1 Q-39.85 -35.3 -36.75 -37.95 L-33.25 -41.0 -32.05 -42.0 -30.25 -43.75 M-21.5 -9.0 Q-25.2 -7.75 -29.2 -7.4 -33.85 -7.25 -37.95 -9.15 -42.45 -11.25 -43.65 -16.1 L-44.3 -19.15 Q-45.1 -23.4 -42.5 -26.85 -39.55 -30.85 -35.6 -33.85 L-30.8 -37.35 -29.05 -38.8 Q-26.45 -41.1 -25.75 -44.5 M-1.0 -19.5 L-5.1 -19.4 -10.1 -17.5 Q-14.2 -16.0 -18.45 -16.5 -21.3 -16.75 -23.6 -18.55 -25.2 -19.7 -24.95 -21.8 -24.7 -23.65 -23.6 -24.95 L-21.75 -27.0 M-12.0 -14.5 Q-15.8 -12.15 -20.25 -11.45 L-26.75 -10.75 Q-31.4 -11.2 -34.65 -14.6 -35.65 -15.6 -36.35 -16.75 -36.95 -17.75 -37.05 -18.85 -37.25 -20.55 -36.9 -22.25 L-36.25 -24.35 Q-35.6 -25.9 -34.25 -27.2 L-27.9 -32.6 -27.15 -33.4 -27.0 -33.75 M-7.0 -22.75 Q-6.95 -23.5 -6.0 -23.6 L-0.25 -23.75" fill="none" stroke="#9b7d63" stroke-linecap="round" stroke-linejoin="round" stroke-width="1.5"/>
    </g>
    </g>
  </g>
  <defs>
    <radialGradient cx="0" cy="0" gradientTransform="matrix(0.0028, 0.1085, -0.1668, 0.0043, 1.0, -31.5)" gradientUnits="userSpaceOnUse" id="gradient0" r="819.2" spreadMethod="pad">
      <stop offset="0.0" stop-color="#3c1e00"/>
      <stop offset="0.3176470588235294" stop-color="#7c543f"/>
      <stop offset="1.0" stop-color="#482400"/>
    </radialGradient>
  </defs>
</svg>