<svg xmlns:xlink="http://www.w3.org/1999/xlink" xmlns="http://www.w3.org/2000/svg" height="264.15px" width="342.25px">
  <g transform="matrix(1.0, 0.0, 0.0, 1.0, 243.25, 83.7)">
    <g data-characterId="1140" height="96.0" transform="matrix(1.0, 0.0, 0.0, 1.0, -57.25, -43.75)" width="139.4" xlink:href="#shape0"><g id="shape0" transform="matrix(1.0, 0.0, 0.0, 1.0, 57.25, 43.75)">
      <path d="M1.4 -14.95 L0.45 -15.9 Q-6.45 -19.5 -14.4 -19.7 -26.55 -20.0 -35.65 -12.05 -36.7 -24.0 -26.65 -31.5 L-19.0 -36.95 Q-10.8 -42.55 -0.4 -43.1 7.3 -43.75 14.6 -41.7 19.7 -40.3 24.05 -37.05 32.0 -30.95 37.85 -23.1 40.6 -19.4 41.6 -15.0 44.35 -3.05 42.65 8.85 L44.2 7.85 45.3 8.65 45.2 10.3 Q47.1 10.3 48.45 11.1 49.75 11.85 49.75 12.95 60.0 17.8 64.8 27.8 67.1 32.65 70.9 36.45 75.05 40.6 80.4 43.2 L80.85 44.4 Q69.35 49.75 59.3 41.15 49.65 32.8 48.55 20.15 L48.0 20.15 Q47.0 22.45 47.05 25.05 47.35 39.75 55.2 51.75 L52.2 50.85 Q46.65 49.8 42.8 45.65 L42.8 45.6 Q44.7 40.05 43.05 34.4 L42.35 32.3 43.2 31.9 45.45 36.5 Q47.3 28.75 42.65 22.0 41.5 20.25 42.0 18.1 L42.3 19.05 Q42.8 20.1 43.9 20.7 L44.95 21.1 Q45.1 19.05 44.4 16.9 L43.1 13.15 Q44.2 13.3 44.85 12.55 L45.25 12.15 45.2 10.3 45.25 12.15 44.85 12.55 Q44.2 13.3 43.1 13.15 L42.25 9.7 38.35 7.85 29.65 2.95 28.05 1.7 Q23.9 -1.8 20.35 -5.95 L19.85 -6.4 14.0 -10.15 13.6 -10.35 Q7.5 -11.95 1.85 -14.3 L1.4 -14.7 1.4 -14.95 M32.75 -16.1 L34.75 -14.5 Q39.6 -10.8 41.7 -5.2 39.6 -10.8 34.75 -14.5 L32.75 -16.1 M45.45 18.1 L48.8 17.45 49.45 16.7 49.75 12.95 49.45 16.7 48.8 17.45 45.45 18.1 M40.85 4.6 L40.35 3.2 Q38.05 -5.9 28.45 -8.35 38.05 -5.9 40.35 3.2 L40.85 4.6" fill="url(#gradient0)" fill-rule="evenodd" stroke="none"/>
      <path d="M-35.65 -12.05 Q-26.55 -20.0 -14.4 -19.7 -6.45 -19.5 0.45 -15.9 L1.4 -14.95 1.4 -14.7 1.85 -14.3 Q7.5 -11.95 13.6 -10.35 7.7 -10.15 2.95 -6.95 -2.3 -3.45 -8.15 -1.2 -17.65 2.75 -27.7 0.9 L-28.55 0.4 -25.05 -1.75 -35.45 1.35 Q-47.0 4.25 -56.7 -3.0 L-56.7 -3.05 -54.6 -3.0 Q-43.8 -4.55 -35.65 -12.05 M41.4 43.0 L39.1 37.95 38.65 40.4 Q37.9 44.55 38.15 48.9 L38.05 49.1 36.35 46.5 Q34.4 42.65 34.75 38.25 L32.2 41.4 Q33.65 36.1 32.6 30.55 32.3 29.1 32.95 27.85 37.75 18.4 38.35 7.85 L42.25 9.7 43.1 13.15 44.4 16.9 Q45.1 19.05 44.95 21.1 L43.9 20.7 Q42.8 20.1 42.3 19.05 L42.0 18.1 Q41.5 20.25 42.65 22.0 47.3 28.75 45.45 36.5 L43.2 31.9 40.55 28.45 42.35 32.3 43.05 34.4 Q44.7 40.05 42.8 45.6 L42.75 45.6 41.4 43.0 M29.65 2.95 Q29.1 5.2 29.25 7.4 L29.7 16.3 Q29.9 21.65 25.9 24.8 L26.65 20.8 Q27.2 17.4 26.45 14.1 L26.15 17.25 Q25.5 16.0 25.2 14.75 L24.05 10.3 23.8 9.25 20.15 -5.8 20.35 -5.95 Q23.9 -1.8 28.05 1.7 L29.65 2.95 M42.15 17.05 L41.45 15.65 40.2 13.4 Q39.75 12.75 40.3 12.7 39.75 12.75 40.2 13.4 L41.45 15.65 42.15 17.05 M44.45 29.5 L44.2 28.55 Q44.15 26.95 43.25 25.55 41.25 22.45 38.9 19.6 41.25 22.45 43.25 25.55 44.15 26.95 44.2 28.55 L44.45 29.5 M42.35 38.7 L41.95 37.75 41.05 35.05 Q40.4 33.4 39.4 31.9 L37.1 28.1 39.4 31.9 Q40.4 33.4 41.05 35.05 L41.95 37.75 42.35 38.7 M27.85 14.75 L27.7 14.05 27.3 11.3 Q26.85 8.8 25.7 6.5 24.3 3.65 24.2 0.5 24.3 3.65 25.7 6.5 26.85 8.8 27.3 11.3 L27.7 14.05 27.85 14.75 M37.1 39.35 L36.65 38.15 35.1 29.0 34.8 28.55 35.1 29.0 36.65 38.15 37.1 39.35 M-0.2 -9.65 L-0.5 -9.3 Q-0.8 -9.05 -1.15 -8.9 L-2.25 -8.2 Q-6.0 -5.4 -10.6 -3.75 L-13.05 -2.85 Q-17.7 -1.2 -22.55 -1.35 -17.7 -1.2 -13.05 -2.85 L-10.6 -3.75 Q-6.0 -5.4 -2.25 -8.2 L-1.15 -8.9 Q-0.8 -9.05 -0.5 -9.3 L-0.2 -9.65 M-21.6 -5.95 L-19.35 -6.15 Q-14.85 -7.05 -10.55 -8.8 -6.65 -10.4 -3.65 -13.1 -6.65 -10.4 -10.55 -8.8 -14.85 -7.05 -19.35 -6.15 L-21.6 -5.95 M-41.85 -3.9 Q-37.65 -4.6 -33.6 -5.95 -31.2 -6.7 -29.05 -7.9 L-26.4 -9.3 -23.7 -10.55 -20.4 -11.75 -10.8 -14.25 -20.4 -11.75 -23.7 -10.55 -26.4 -9.3 -29.05 -7.9 Q-31.2 -6.7 -33.6 -5.95 -37.65 -4.6 -41.85 -3.9 M-36.35 -8.25 Q-35.4 -8.7 -34.5 -9.25 L-26.45 -13.55 -34.5 -9.25 Q-35.4 -8.7 -36.35 -8.25 M-24.6 -5.95 Q-28.2 -3.65 -32.4 -2.65 -37.1 -1.55 -41.85 -1.2 L-43.5 -1.05 -48.1 -0.95 Q-50.1 -1.15 -51.3 -2.3 -50.1 -1.15 -48.1 -0.95 L-43.5 -1.05 -41.85 -1.2 Q-37.1 -1.55 -32.4 -2.65 -28.2 -3.65 -24.6 -5.95" fill="url(#gradient1)" fill-rule="evenodd" stroke="none"/>
      <path d="M1.4 -14.95 L0.45 -15.9 Q-6.45 -19.5 -14.4 -19.7 -26.55 -20.0 -35.65 -12.05 -43.8 -4.55 -54.6 -3.0 L-56.7 -3.05 -56.75 -3.05 -56.7 -3.0 Q-47.0 4.25 -35.45 1.35 L-25.05 -1.75 -28.55 0.4 -27.7 0.9 Q-17.65 2.75 -8.15 -1.2 -2.3 -3.45 2.95 -6.95 7.7 -10.15 13.6 -10.35 L14.0 -10.15" fill="none" stroke="#000000" stroke-linecap="round" stroke-linejoin="round" stroke-width="2.0"/>
      <path d="M13.6 -10.35 Q7.5 -11.95 1.85 -14.3 L1.4 -14.7 M20.15 -5.8 L19.85 -6.4 14.0 -10.15 M41.7 -5.2 Q39.6 -10.8 34.75 -14.5 L32.75 -16.1 M-35.65 -12.05 Q-36.7 -24.0 -26.65 -31.5 L-19.0 -36.95 Q-10.8 -42.55 -0.4 -43.1 7.3 -43.75 14.6 -41.7 19.7 -40.3 24.05 -37.05 32.0 -30.95 37.85 -23.1 40.6 -19.4 41.6 -15.0 44.35 -3.05 42.65 8.85 L44.2 7.85 45.3 8.65 45.2 10.3 Q47.1 10.3 48.45 11.1 49.75 11.85 49.75 12.95 60.0 17.8 64.8 27.8 67.1 32.65 70.9 36.45 75.05 40.6 80.4 43.2 L81.65 43.95 80.85 44.4 Q69.35 49.75 59.3 41.15 49.65 32.8 48.55 20.15 M48.0 20.15 Q47.0 22.45 47.05 25.05 47.35 39.75 55.2 51.75 L52.2 50.85 Q46.65 49.8 42.8 45.65 L42.0 47.45 41.4 43.0 39.1 37.95 38.65 40.4 Q37.9 44.55 38.15 48.9 L38.05 49.1 36.35 46.5 Q34.4 42.65 34.75 38.25 L32.2 41.4 Q33.65 36.1 32.6 30.55 32.3 29.1 32.95 27.85 37.75 18.4 38.35 7.85 L29.65 2.95 Q29.1 5.2 29.25 7.4 L29.7 16.3 Q29.9 21.65 25.9 24.8 L26.65 20.8 Q27.2 17.4 26.45 14.1 L26.15 17.25 Q25.5 16.0 25.2 14.75 L24.05 10.3 23.8 9.25 20.15 -5.8 M20.35 -5.95 L19.85 -6.4 M45.2 10.3 L45.25 12.15 44.85 12.55 Q44.2 13.3 43.1 13.15 L44.4 16.9 Q45.1 19.05 44.95 21.1 L43.9 20.7 Q42.8 20.1 42.3 19.05 L42.0 18.1 Q41.5 20.25 42.65 22.0 47.3 28.75 45.45 36.5 L43.2 31.9 40.55 28.45 42.35 32.3 43.05 34.4 Q44.7 40.05 42.8 45.6 L42.8 45.65 42.75 45.6 41.4 43.0 M49.75 12.95 L49.45 16.7 48.8 17.45 45.45 18.1 M43.1 13.15 L42.25 9.7 38.35 7.85 M29.65 2.95 L28.05 1.7 Q23.9 -1.8 20.35 -5.95 M28.45 -8.35 Q38.05 -5.9 40.35 3.2 L40.85 4.6" fill="none" stroke="#000000" stroke-linecap="round" stroke-linejoin="round" stroke-width="2.0"/>
      <path d="M40.3 12.7 Q39.75 12.75 40.2 13.4 L41.45 15.65 42.15 17.05 M38.9 19.6 Q41.25 22.45 43.25 25.55 44.15 26.95 44.2 28.55 L44.45 29.5 M37.1 28.1 L39.4 31.9 Q40.4 33.4 41.05 35.05 L41.95 37.75 42.35 38.7 M24.2 0.5 Q24.3 3.65 25.7 6.5 26.85 8.8 27.3 11.3 L27.7 14.05 27.85 14.75 M34.8 28.55 L35.1 29.0 36.65 38.15 37.1 39.35 M-51.3 -2.3 Q-50.1 -1.15 -48.1 -0.95 L-43.5 -1.05 -41.85 -1.2 Q-37.1 -1.55 -32.4 -2.65 -28.2 -3.65 -24.6 -5.95 M-26.45 -13.55 L-34.5 -9.25 Q-35.4 -8.7 -36.35 -8.25 M-10.8 -14.25 L-20.4 -11.75 -23.7 -10.55 -26.4 -9.3 -29.05 -7.9 Q-31.2 -6.7 -33.6 -5.95 -37.65 -4.6 -41.85 -3.9 M-3.65 -13.1 Q-6.65 -10.4 -10.55 -8.8 -14.85 -7.05 -19.35 -6.15 L-21.6 -5.95 M-22.55 -1.35 Q-17.7 -1.2 -13.05 -2.85 L-10.6 -3.75 Q-6.0 -5.4 -2.25 -8.2 L-1.15 -8.9 Q-0.8 -9.05 -0.5 -9.3 L-0.2 -9.65" fill="none" stroke="#fff5e6" stroke-linecap="round" stroke-linejoin="round" stroke-width="1.5"/>
      <path d="M-19.3 4.3 Q-19.25 3.75 -18.75 3.35 M-17.3 4.6 L-17.75 4.45 -18.1 4.0 Q-18.3 3.45 -17.85 3.15" fill="none" stroke="#b9a882" stroke-linecap="round" stroke-linejoin="round" stroke-width="1.5"/>
    </g>
    </g>
  </g>
  <defs>
    <linearGradient gradientTransform="matrix(0.0509, 0.0, 0.0, 0.0332, 3.0, 59.15)" gradientUnits="userSpaceOnUse" id="gradient0" spreadMethod="pad" x1="-819.2" x2="819.2">
      <stop offset="0.0" stop-color="#5e5e32"/>
      <stop offset="0.3137254901960784" stop-color="#8a8955"/>
      <stop offset="1.0" stop-color="#5e5e32"/>
    </linearGradient>
    <linearGradient gradientTransform="matrix(0.0145, 0.0561, -0.0504, 0.0131, 35.15, 13.8)" gradientUnits="userSpaceOnUse" id="gradient1" spreadMethod="pad" x1="-819.2" x2="819.2">
      <stop offset="0.0" stop-color="#fedb74"/>
      <stop offset="0.23921568627450981" stop-color="#fff5e6"/>
      <stop offset="0.4470588235294118" stop-color="#fedb74"/>
      <stop offset="1.0" stop-color="#fedb74"/>
    </linearGradient>
  </defs>
</svg>