<svg xmlns:xlink="http://www.w3.org/1999/xlink" xmlns="http://www.w3.org/2000/svg" height="119.1px" width="213.05px">
  <g transform="matrix(1.0, 0.0, 0.0, 1.0, 94.65, 81.2)">
    <g data-characterId="905" height="36.5" transform="matrix(1.0, 0.0, 0.0, 1.0, -59.5, -22.5)" width="131.5" xlink:href="#shape0"><g id="shape0" transform="matrix(1.0, 0.0, 0.0, 1.0, 59.5, 22.5)">
      <path d="M-1.75 -3.45 Q-0.7 -7.35 3.35 -8.0 9.75 -8.65 16.05 -10.7 23.25 -12.95 29.35 -17.0 L29.9 -17.85 Q30.4 -17.5 30.95 -17.3 31.55 -17.0 32.2 -16.85 35.1 -16.75 37.7 -15.6 L37.65 -15.2 40.85 -14.55 Q65.75 -13.3 69.05 -3.05 72.35 7.2 71.2 13.5 L-58.5 12.9 Q-59.85 4.2 -57.45 -2.0 -55.0 -8.2 -50.2 -10.25 -45.4 -12.35 -45.05 -12.65 L-41.5 -12.9 -41.15 -12.9 -37.6 -13.3 -37.7 -13.8 Q-33.95 -14.5 -30.65 -16.35 L-29.65 -16.95 -27.7 -16.25 -27.6 -16.0 -27.35 -16.1 Q-22.0 -10.6 -17.5 -9.4 -13.05 -8.25 -10.65 -7.15 L-10.2 -3.5 -13.25 -3.75 -10.2 -3.5 -10.1 -1.15 -9.8 0.5 Q-9.3 1.7 -8.0 2.15 L-6.35 2.65 -3.2 2.8 Q-2.7 2.7 -2.4 1.95 -1.9 0.65 -1.85 -0.75 L-1.9 -1.45 -1.75 -3.45 1.45 -4.6 -1.75 -3.45 M1.45 -0.3 L-1.85 -0.75 1.45 -0.3 M-12.1 1.15 L-9.8 0.5 -12.1 1.15" fill="#467521" fill-rule="evenodd" stroke="none"/>
      <path d="M29.35 -17.0 Q23.25 -12.95 16.05 -10.7 9.75 -8.65 3.35 -8.0 -0.7 -7.35 -1.75 -3.45 L-2.25 -3.3 -5.25 -1.9 -6.15 -2.2 -9.25 -3.25 -10.2 -3.5 -9.25 -3.25 -6.15 -2.2 -5.25 -1.9 -2.25 -3.3 -1.75 -3.45 -1.9 -1.45 -1.85 -0.75 -3.4 -1.25 -5.25 -1.9 -6.95 -1.0 -8.8 0.0 -9.8 0.5 -8.8 0.0 -6.95 -1.0 -5.25 -1.9 -3.4 -1.25 -1.85 -0.75 Q-1.9 0.65 -2.4 1.95 -2.7 2.7 -3.2 2.8 L-6.35 2.65 -8.0 2.15 Q-9.3 1.7 -9.8 0.5 L-10.1 -1.15 -10.2 -3.5 -10.65 -7.15 Q-13.05 -8.25 -17.5 -9.4 -22.0 -10.6 -27.35 -16.1 -23.7 -17.85 -21.55 -20.5 L-18.5 -19.3 Q5.35 -9.25 28.0 -22.5 L28.5 -22.0 28.5 -19.5 Q28.65 -17.9 29.35 -17.0 M-45.05 -12.65 L-42.5 -12.85 -41.5 -12.9 -45.05 -12.65" fill="#ecc59d" fill-rule="evenodd" stroke="none"/>
      <path d="M29.35 -17.0 Q23.25 -12.95 16.05 -10.7 9.75 -8.65 3.35 -8.0 -0.7 -7.35 -1.75 -3.45 L1.45 -4.6 M40.85 -14.55 L37.7 -15.6 Q35.1 -16.75 32.2 -16.85 31.55 -17.0 30.95 -17.3 30.4 -17.5 29.9 -17.85 L29.35 -17.0 Q28.65 -17.9 28.5 -19.5 L28.5 -22.0 M-21.55 -20.5 Q-23.7 -17.85 -27.35 -16.1 -22.0 -10.6 -17.5 -9.4 -13.05 -8.25 -10.65 -7.15 L-10.2 -3.5 -9.25 -3.25 -6.15 -2.2 -5.25 -1.9 -2.25 -3.3 -1.75 -3.45 -1.9 -1.45 -1.85 -0.75 1.45 -0.3 M40.85 -14.55 Q65.75 -13.3 69.05 -3.05 72.35 7.2 71.2 13.5 L-58.5 12.9 Q-59.85 4.2 -57.45 -2.0 -55.0 -8.2 -50.2 -10.25 -45.4 -12.35 -45.05 -12.65 L-41.5 -12.9 -41.15 -12.9 -37.7 -13.8 Q-33.95 -14.5 -30.65 -16.35 L-29.65 -16.95 -27.7 -16.25 -27.35 -16.1 -27.6 -16.0 M-10.2 -3.5 L-13.25 -3.75 M-9.8 0.5 L-8.8 0.0 -6.95 -1.0 -5.25 -1.9 -3.4 -1.25 -1.85 -0.75 Q-1.9 0.65 -2.4 1.95 -2.7 2.7 -3.2 2.8 L-6.35 2.65 -8.0 2.15 Q-9.3 1.7 -9.8 0.5 L-12.1 1.15 M-9.8 0.5 L-10.1 -1.15 -10.2 -3.5" fill="none" stroke="#000000" stroke-linecap="round" stroke-linejoin="round" stroke-width="2.0"/>
    </g>
  </g>
  </g>
  <defs>
    </defs>
</svg>