<svg xmlns:xlink="http://www.w3.org/1999/xlink" xmlns="http://www.w3.org/2000/svg" height="264.15px" width="342.25px">
  <g transform="matrix(1.0, 0.0, 0.0, 1.0, 243.25, 83.7)">
    <g data-characterId="1173" height="92.6" transform="matrix(1.0, 0.0, 0.0, 1.0, -41.3, -45.6)" width="91.85" xlink:href="#shape0"><g id="shape0" transform="matrix(1.0, 0.0, 0.0, 1.0, 41.3, 45.6)">
      <path d="M20.25 -37.55 Q32.75 -37.05 39.9 -26.75 44.9 -19.45 47.75 -10.4 50.55 -1.4 49.95 9.65 49.35 20.65 47.65 24.75 45.95 28.8 45.5 29.0 L44.5 23.5 Q43.85 26.3 43.6 29.35 42.95 38.25 37.0 44.5 L38.0 34.0 32.5 46.5 31.5 25.0 26.5 30.0 28.2 19.3 Q26.6 20.4 25.05 23.05 23.8 25.3 21.5 26.5 L21.0 17.6 20.95 17.6 20.0 17.0 16.0 21.5 Q15.35 19.65 15.45 17.5 15.95 8.6 16.0 -0.5 13.7 -0.6 12.35 1.4 L10.0 4.7 8.5 5.1 8.0 -6.0 0.5 1.0 -1.5 -7.0 Q-2.4 -5.75 -3.65 -5.0 -5.15 -4.0 -6.3 -2.55 -9.1 1.0 -12.5 4.0 -11.7 -1.05 -15.0 -5.0 L-22.5 6.0 Q-22.3 0.55 -24.5 -4.5 L-33.0 10.0 Q-34.5 4.65 -33.8 -0.85 -33.7 -1.85 -34.5 -2.5 -36.65 1.8 -37.85 6.2 -38.5 8.75 -40.5 10.5 -41.6 -0.65 -38.35 -11.45 -34.8 -23.35 -26.3 -32.5 -18.05 -41.3 -6.15 -44.15 L-1.5 -45.1 0.95 -44.9 4.4 -44.15 Q6.45 -43.45 8.15 -42.4 9.85 -41.4 10.75 -41.25 L13.15 -38.8 13.65 -42.35 17.0 -38.0 21.2 -40.55 21.55 -39.1 20.25 -37.55 M33.75 32.5 L33.9 31.75 Q34.05 30.5 34.55 29.3 L35.4 27.2 Q35.9 25.9 35.9 24.5 L36.1 18.25 36.55 8.5 36.65 5.25 36.7 -3.25 36.55 -8.0 36.35 -11.5 36.25 -14.75 Q36.15 -19.7 33.7 -24.0 L32.5 -26.0 27.95 -33.7 27.15 -34.55 Q26.4 -35.0 27.25 -35.0 26.4 -35.0 27.15 -34.55 L27.95 -33.7 32.5 -26.0 33.7 -24.0 Q36.15 -19.7 36.25 -14.75 L36.35 -11.5 36.55 -8.0 36.7 -3.25 36.65 5.25 36.55 8.5 36.1 18.25 35.9 24.5 Q35.9 25.9 35.4 27.2 L34.55 29.3 Q34.05 30.5 33.9 31.75 L33.75 32.5 M17.75 14.75 L17.95 14.25 18.25 12.5 Q18.55 10.55 19.15 8.7 L19.65 6.5 19.8 4.25 20.1 1.5 Q20.95 -3.35 21.4 -8.25 L21.7 -10.7 Q22.25 -13.85 22.25 -17.0 22.25 -18.25 22.4 -19.5 22.85 -24.0 22.35 -28.5 L22.0 -30.45 Q21.5 -32.45 21.5 -34.5 L21.5 -34.75 21.5 -34.5 Q21.5 -32.45 22.0 -30.45 L22.35 -28.5 Q22.85 -24.0 22.4 -19.5 22.25 -18.25 22.25 -17.0 22.25 -13.85 21.7 -10.7 L21.4 -8.25 Q20.95 -3.35 20.1 1.5 L19.8 4.25 19.65 6.5 19.15 8.7 Q18.55 10.55 18.25 12.5 L17.95 14.25 17.75 14.75 M24.0 17.75 L24.4 16.7 Q25.7 12.15 26.45 7.5 L26.85 5.05 Q27.85 0.2 27.7 -4.75 L27.7 -8.0 27.9 -12.0 Q28.2 -16.8 27.85 -21.5 L27.6 -24.25 27.1 -26.7 26.3 -28.5 23.25 -34.5 26.3 -28.5 27.1 -26.7 27.6 -24.25 27.85 -21.5 Q28.2 -16.8 27.9 -12.0 L27.7 -8.0 27.7 -4.75 Q27.85 0.2 26.85 5.05 L26.45 7.5 Q25.7 12.15 24.4 16.7 L24.0 17.75 M29.75 24.5 Q30.75 20.6 31.35 16.5 L32.2 10.75 Q32.9 6.25 33.0 1.75 L33.25 -7.0 Q33.35 -11.5 33.1 -16.0 L32.85 -18.5 32.55 -20.5 32.0 -22.65 30.3 -27.0 Q29.4 -29.35 28.05 -31.55 26.8 -33.65 24.75 -34.5 26.8 -33.65 28.05 -31.55 29.4 -29.35 30.3 -27.0 L32.0 -22.65 32.55 -20.5 32.85 -18.5 33.1 -16.0 Q33.35 -11.5 33.25 -7.0 L33.0 1.75 Q32.9 6.25 32.2 10.75 L31.35 16.5 Q30.75 20.6 29.75 24.5 M-12.75 -35.5 L-16.35 -33.3 -22.95 -28.45 Q-26.1 -26.0 -27.75 -22.5 -26.1 -26.0 -22.95 -28.45 L-16.35 -33.3 -12.75 -35.5 M2.5 -41.5 Q-0.7 -42.7 -4.25 -42.5 L-4.95 -42.4 -7.75 -41.75 Q-9.5 -41.4 -11.0 -40.5 L-11.5 -40.25 Q-15.95 -38.5 -19.8 -35.55 L-20.95 -34.65 -21.3 -34.3 Q-23.35 -32.45 -25.0 -30.25 L-25.8 -29.3 Q-27.45 -27.7 -28.5 -25.75 L-29.1 -24.85 Q-30.1 -23.65 -30.7 -22.25 L-32.85 -17.55 -33.35 -16.45 -33.9 -15.3 Q-35.25 -12.2 -36.0 -9.0 -36.1 -8.35 -36.35 -7.8 L-37.0 -5.5 Q-37.45 -3.4 -38.2 -1.5 L-38.5 -0.5 Q-38.95 1.15 -39.0 3.0 L-39.1 3.45 Q-39.4 4.4 -39.25 5.5 -39.4 4.4 -39.1 3.45 L-39.0 3.0 Q-38.95 1.15 -38.5 -0.5 L-38.2 -1.5 Q-37.45 -3.4 -37.0 -5.5 L-36.35 -7.8 Q-36.1 -8.35 -36.0 -9.0 -35.25 -12.2 -33.9 -15.3 L-33.35 -16.45 -32.85 -17.55 -30.7 -22.25 Q-30.1 -23.65 -29.1 -24.85 L-28.5 -25.75 Q-27.45 -27.7 -25.8 -29.3 L-25.0 -30.25 Q-23.35 -32.45 -21.3 -34.3 L-20.95 -34.65 -19.8 -35.55 Q-15.95 -38.5 -11.5 -40.25 L-11.0 -40.5 Q-9.5 -41.4 -7.75 -41.75 L-4.95 -42.4 -4.25 -42.5 Q-0.7 -42.7 2.5 -41.5 M23.75 2.25 L22.25 11.2 20.95 17.6 22.25 11.2 23.75 2.25 M11.0 -15.5 L10.35 -13.95 Q8.6 -9.4 6.5 -5.0 8.6 -9.4 10.35 -13.95 L11.0 -15.5 M10.75 -37.25 L5.5 -36.2 -1.5 -34.2 -3.2 -33.45 -5.25 -32.25 Q-9.05 -30.05 -12.2 -26.95 L-14.0 -24.6 Q-16.35 -20.75 -18.0 -16.5 -18.6 -14.85 -19.45 -13.35 -21.5 -9.45 -22.0 -5.0 L-22.25 0.25 -22.0 -5.0 Q-21.5 -9.45 -19.45 -13.35 -18.6 -14.85 -18.0 -16.5 -16.35 -20.75 -14.0 -24.6 L-12.2 -26.95 Q-9.05 -30.05 -5.25 -32.25 L-3.2 -33.45 -1.5 -34.2 5.5 -36.2 10.75 -37.25 M15.25 -36.25 Q13.05 -35.5 10.95 -34.3 6.8 -31.95 3.25 -28.75 -0.4 -25.55 -3.4 -21.7 L-6.05 -18.3 Q-8.9 -14.6 -10.6 -10.3 -12.2 -6.15 -12.5 -1.75 -12.2 -6.15 -10.6 -10.3 -8.9 -14.6 -6.05 -18.3 L-3.4 -21.7 Q-0.4 -25.55 3.25 -28.75 6.8 -31.95 10.95 -34.3 13.05 -35.5 15.25 -36.25 M18.75 -35.5 L14.6 -30.45 12.6 -27.85 Q9.65 -24.2 7.6 -19.95 L6.4 -17.55 4.5 -14.25 Q2.1 -10.5 1.0 -6.25 L0.7 -4.5 Q0.65 -3.9 0.25 -3.5 0.65 -3.9 0.7 -4.5 L1.0 -6.25 Q2.1 -10.5 4.5 -14.25 L6.4 -17.55 7.6 -19.95 Q9.65 -24.2 12.6 -27.85 L14.6 -30.45 18.75 -35.5 M19.75 -34.75 L19.0 -30.0 18.5 -28.1 Q17.35 -25.35 17.0 -22.5 L16.65 -20.75 Q15.55 -16.35 13.55 -12.2 L11.8 -8.2 10.65 -4.7 Q10.05 -2.35 8.75 -0.75 10.05 -2.35 10.65 -4.7 L11.8 -8.2 13.55 -12.2 Q15.55 -16.35 16.65 -20.75 L17.0 -22.5 Q17.35 -25.35 18.5 -28.1 L19.0 -30.0 19.75 -34.75 M30.5 -34.5 L31.35 -33.35 32.95 -31.7 34.3 -30.15 37.3 -25.5 38.3 -23.65 39.2 -21.25 Q40.35 -16.8 41.0 -12.25 L41.35 -8.25 41.4 -3.5 Q41.25 1.75 41.35 7.0 L41.4 9.5 41.3 12.25 41.2 15.0 41.1 19.0 40.95 21.95 Q40.15 28.6 40.0 35.25 L40.05 35.0 40.5 33.25 40.05 35.0 40.0 35.25 Q40.15 28.6 40.95 21.95 L41.1 19.0 41.2 15.0 41.3 12.25 41.4 9.5 41.35 7.0 Q41.25 1.75 41.4 -3.5 L41.35 -8.25 41.0 -12.25 Q40.35 -16.8 39.2 -21.25 L38.3 -23.65 37.3 -25.5 34.3 -30.15 32.95 -31.7 31.35 -33.35 30.5 -34.5 M45.0 19.25 L45.05 17.5 45.15 15.5 45.2 6.25 44.8 0.75 44.35 -1.7 Q43.75 -4.35 43.5 -7.0 L43.1 -9.2 42.1 -13.25 41.6 -14.95 40.85 -17.3 40.3 -18.65 Q39.7 -19.85 39.55 -21.25 39.4 -22.9 38.7 -24.45 L37.9 -26.3 Q37.1 -28.25 35.75 -29.5 37.1 -28.25 37.9 -26.3 L38.7 -24.45 Q39.4 -22.9 39.55 -21.25 39.7 -19.85 40.3 -18.65 L40.85 -17.3 41.6 -14.95 42.1 -13.25 43.1 -9.2 43.5 -7.0 Q43.75 -4.35 44.35 -1.7 L44.8 0.75 45.2 6.25 45.15 15.5 45.05 17.5 45.0 19.25 M0.75 -31.0 L-3.6 -27.6 Q-6.5 -25.1 -9.0 -22.3 -12.05 -18.9 -14.0 -14.75 L-15.35 -10.9 -15.65 -9.8 -15.8 -9.5 Q-16.2 -8.45 -16.75 -7.5 -16.2 -8.45 -15.8 -9.5 L-15.65 -9.8 -15.35 -10.9 -14.0 -14.75 Q-12.05 -18.9 -9.0 -22.3 -6.5 -25.1 -3.6 -27.6 L0.75 -31.0 M3.25 -39.5 L-3.25 -37.3 -5.45 -36.45 Q-9.75 -34.7 -13.45 -31.95 L-15.3 -30.55 Q-18.95 -27.7 -22.0 -24.25 -25.1 -20.75 -27.0 -16.5 L-27.8 -14.75 -28.6 -12.95 -30.95 -6.0 Q-32.3 -1.3 -32.75 3.5 -32.3 -1.3 -30.95 -6.0 L-28.6 -12.95 -27.8 -14.75 -27.0 -16.5 Q-25.1 -20.75 -22.0 -24.25 -18.95 -27.7 -15.3 -30.55 L-13.45 -31.95 Q-9.75 -34.7 -5.45 -36.45 L-3.25 -37.3 3.25 -39.5" fill="url(#gradient0)" fill-rule="evenodd" stroke="none"/>
      <path d="M20.25 -37.55 Q32.75 -37.05 39.9 -26.75 44.9 -19.45 47.75 -10.4 50.55 -1.4 49.95 9.65 49.35 20.65 47.65 24.75 45.95 28.8 45.5 29.0 L44.5 23.5 Q43.85 26.3 43.6 29.35 42.95 38.25 37.0 44.5 L38.0 34.0 32.5 46.5 31.5 25.0 26.5 30.0 28.2 19.3 Q26.6 20.4 25.05 23.05 23.8 25.3 21.5 26.5 L21.0 17.6 20.95 17.6 20.0 17.0 16.0 21.5 Q15.35 19.65 15.45 17.5 15.95 8.6 16.0 -0.5 13.7 -0.6 12.35 1.4 L10.0 4.7 8.5 5.1 8.0 -6.0 0.5 1.0 -1.5 -7.0 Q-2.4 -5.75 -3.65 -5.0 -5.15 -4.0 -6.3 -2.55 -9.1 1.0 -12.5 4.0 -11.7 -1.05 -15.0 -5.0 L-22.5 6.0 Q-22.3 0.55 -24.5 -4.5 L-33.0 10.0 Q-34.5 4.65 -33.8 -0.85 -33.7 -1.85 -34.5 -2.5 -36.65 1.8 -37.85 6.2 -38.5 8.75 -40.5 10.5 -41.6 -0.65 -38.35 -11.45 -34.8 -23.35 -26.3 -32.5 -18.05 -41.3 -6.15 -44.15 L-1.5 -45.1 0.95 -44.9 4.4 -44.15 Q6.45 -43.45 8.15 -42.4 9.85 -41.4 10.75 -41.25 L13.15 -38.8 13.65 -42.35 17.0 -38.0 21.2 -40.55 21.55 -39.1 20.25 -37.55" fill="none" stroke="#000000" stroke-linecap="round" stroke-linejoin="round" stroke-width="2.0"/>
      <path d="M27.25 -35.0 Q26.4 -35.0 27.15 -34.55 L27.95 -33.7 32.5 -26.0 33.7 -24.0 Q36.15 -19.7 36.25 -14.75 L36.35 -11.5 36.55 -8.0 36.7 -3.25 36.65 5.25 36.55 8.5 36.1 18.25 35.9 24.5 Q35.9 25.9 35.4 27.2 L34.55 29.3 Q34.05 30.5 33.9 31.75 L33.75 32.5 M23.25 -34.5 L26.3 -28.5 27.1 -26.7 27.6 -24.25 27.85 -21.5 Q28.2 -16.8 27.9 -12.0 L27.7 -8.0 27.7 -4.75 Q27.85 0.2 26.85 5.05 L26.45 7.5 Q25.7 12.15 24.4 16.7 L24.0 17.75 M35.75 -29.5 Q37.1 -28.25 37.9 -26.3 L38.7 -24.45 Q39.4 -22.9 39.55 -21.25 39.7 -19.85 40.3 -18.65 L40.85 -17.3 41.6 -14.95 42.1 -13.25 43.1 -9.2 43.5 -7.0 Q43.75 -4.35 44.35 -1.7 L44.8 0.75 45.2 6.25 45.15 15.5 45.05 17.5 45.0 19.25 M40.5 33.25 L40.05 35.0 40.0 35.25 Q40.15 28.6 40.95 21.95 L41.1 19.0 41.2 15.0 41.3 12.25 41.4 9.5 41.35 7.0 Q41.25 1.75 41.4 -3.5 L41.35 -8.25 41.0 -12.25 Q40.35 -16.8 39.2 -21.25 L38.3 -23.65 37.3 -25.5 34.3 -30.15 32.95 -31.7 31.35 -33.35 30.5 -34.5 M8.75 -0.75 Q10.05 -2.35 10.65 -4.7 L11.8 -8.2 13.55 -12.2 Q15.55 -16.35 16.65 -20.75 L17.0 -22.5 Q17.35 -25.35 18.5 -28.1 L19.0 -30.0 19.75 -34.75 M0.25 -3.5 Q0.65 -3.9 0.7 -4.5 L1.0 -6.25 Q2.1 -10.5 4.5 -14.25 L6.4 -17.55 7.6 -19.95 Q9.65 -24.2 12.6 -27.85 L14.6 -30.45 18.75 -35.5 M-12.5 -1.75 Q-12.2 -6.15 -10.6 -10.3 -8.9 -14.6 -6.05 -18.3 L-3.4 -21.7 Q-0.4 -25.55 3.25 -28.75 6.8 -31.95 10.95 -34.3 13.05 -35.5 15.25 -36.25 M-22.25 0.25 L-22.0 -5.0 Q-21.5 -9.45 -19.45 -13.35 -18.6 -14.85 -18.0 -16.5 -16.35 -20.75 -14.0 -24.6 L-12.2 -26.95 Q-9.05 -30.05 -5.25 -32.25 L-3.2 -33.45 -1.5 -34.2 5.5 -36.2 10.75 -37.25 M6.5 -5.0 Q8.6 -9.4 10.35 -13.95 L11.0 -15.5 M20.95 17.6 L22.25 11.2 23.75 2.25 M-39.25 5.5 Q-39.4 4.4 -39.1 3.45 L-39.0 3.0 Q-38.95 1.15 -38.5 -0.5 L-38.2 -1.5 Q-37.45 -3.4 -37.0 -5.5 L-36.35 -7.8 Q-36.1 -8.35 -36.0 -9.0 -35.25 -12.2 -33.9 -15.3 L-33.35 -16.45 -32.85 -17.55 -30.7 -22.25 Q-30.1 -23.65 -29.1 -24.85 L-28.5 -25.75 Q-27.45 -27.7 -25.8 -29.3 L-25.0 -30.25 Q-23.35 -32.45 -21.3 -34.3 L-20.95 -34.65 -19.8 -35.55 Q-15.95 -38.5 -11.5 -40.25 L-11.0 -40.5 Q-9.5 -41.4 -7.75 -41.75 L-4.95 -42.4 -4.25 -42.5 Q-0.7 -42.7 2.5 -41.5 M-27.75 -22.5 Q-26.1 -26.0 -22.95 -28.45 L-16.35 -33.3 -12.75 -35.5" fill="none" stroke="#a86b06" stroke-linecap="round" stroke-linejoin="round" stroke-opacity="0.8117647" stroke-width="1.5"/>
      <path d="M21.5 -34.75 L21.5 -34.5 Q21.5 -32.45 22.0 -30.45 L22.35 -28.5 Q22.85 -24.0 22.4 -19.5 22.25 -18.25 22.25 -17.0 22.25 -13.85 21.7 -10.7 L21.4 -8.25 Q20.95 -3.35 20.1 1.5 L19.8 4.25 19.65 6.5 19.15 8.7 Q18.55 10.55 18.25 12.5 L17.95 14.25 17.75 14.75 M24.75 -34.5 Q26.8 -33.65 28.05 -31.55 29.4 -29.35 30.3 -27.0 L32.0 -22.65 32.55 -20.5 32.85 -18.5 33.1 -16.0 Q33.35 -11.5 33.25 -7.0 L33.0 1.75 Q32.9 6.25 32.2 10.75 L31.35 16.5 Q30.75 20.6 29.75 24.5 M-32.75 3.5 Q-32.3 -1.3 -30.95 -6.0 L-28.6 -12.95 -27.8 -14.75 -27.0 -16.5 Q-25.1 -20.75 -22.0 -24.25 -18.95 -27.7 -15.3 -30.55 L-13.45 -31.95 Q-9.75 -34.7 -5.45 -36.45 L-3.25 -37.3 3.25 -39.5 M-16.75 -7.5 Q-16.2 -8.45 -15.8 -9.5 L-15.65 -9.8 -15.35 -10.9 -14.0 -14.75 Q-12.05 -18.9 -9.0 -22.3 -6.5 -25.1 -3.6 -27.6 L0.75 -31.0" fill="none" stroke="#8a4f06" stroke-linecap="round" stroke-linejoin="round" stroke-opacity="0.8117647" stroke-width="1.5"/>
    </g>
    </g>
  </g>
  <defs>
    <radialGradient cx="0" cy="0" gradientTransform="matrix(0.1338, 0.0011, -7.0E-4, 0.081, 0.5, -24.0)" gradientUnits="userSpaceOnUse" id="gradient0" r="819.2" spreadMethod="pad">
      <stop offset="0.0" stop-color="#6b3c01"/>
      <stop offset="0.33725490196078434" stop-color="#9b6105"/>
      <stop offset="0.5294117647058824" stop-color="#d0a278"/>
      <stop offset="0.6941176470588235" stop-color="#9b6105"/>
      <stop offset="1.0" stop-color="#6b3c01"/>
    </radialGradient>
  </defs>
</svg>