<svg xmlns:xlink="http://www.w3.org/1999/xlink" xmlns="http://www.w3.org/2000/svg" height="13.3px" width="26.9px">
  <g transform="matrix(1.0, 0.0, 0.0, 1.0, 12.05, 3.6)">
    <path d="M-10.2 7.1 Q-10.95 7.1 -11.5 6.25 -12.05 5.35 -12.05 4.1 -12.25 -4.05 -2.8 -3.55 L-0.1 -3.3 Q12.55 -5.35 14.8 6.15 15.1 7.7 13.65 8.5 L11.2 9.4 10.1 8.55 10.25 7.8 9.25 6.6 8.4 7.45 Q8.4 5.55 6.45 5.05 L5.25 5.75 Q5.4 5.0 4.85 4.5 3.75 3.65 2.3 4.0 L1.2 5.5 0.9 3.75 Q-0.8 3.2 -2.15 4.45 L-4.75 3.95 -6.25 5.25 -6.4 4.8 -6.85 4.5 Q-9.7 4.0 -10.2 7.1" fill="#660000" fill-rule="evenodd" stroke="none"/>
    <path d="M11.2 9.4 Q6.15 10.6 1.2 7.0 0.15 6.2 -1.15 6.55 -5.65 8.0 -10.2 7.1 -9.7 4.0 -6.85 4.5 L-6.4 4.8 -6.25 5.25 -4.75 3.95 -2.15 4.45 Q-0.8 3.2 0.9 3.75 L1.2 5.5 2.3 4.0 Q3.75 3.65 4.85 4.5 5.4 5.0 5.25 5.75 L6.45 5.05 Q8.4 5.55 8.4 7.45 L9.25 6.6 10.25 7.8 10.1 8.55 11.2 9.4" fill="#ffffff" fill-rule="evenodd" stroke="none"/>
    <path d="M-10.2 7.1 Q-10.95 7.1 -11.5 6.25 -12.05 5.35 -12.05 4.1 -12.25 -4.05 -2.8 -3.55 L-0.1 -3.3 Q12.55 -5.35 14.8 6.15 15.1 7.7 13.65 8.5 L11.2 9.4 Q6.15 10.6 1.2 7.0 0.15 6.2 -1.15 6.55 -5.65 8.0 -10.2 7.1 -9.7 4.0 -6.85 4.5 L-6.4 4.8 -6.25 5.25 -4.75 3.95 -2.15 4.45 Q-0.8 3.2 0.9 3.75 L1.2 5.5 2.3 4.0 Q3.75 3.65 4.85 4.5 5.4 5.0 5.25 5.75 L6.45 5.05 Q8.4 5.55 8.4 7.45 L9.25 6.6 10.25 7.8 10.1 8.55 11.2 9.4" fill="none" stroke="#000000" stroke-linecap="round" stroke-linejoin="round" stroke-width="1.5"/>
  </g>
</svg>