<svg xmlns:xlink="http://www.w3.org/1999/xlink" xmlns="http://www.w3.org/2000/svg" height="141.1px" width="125.05px">
  <g transform="matrix(1.0, 0.0, 0.0, 1.0, 48.6, 54.85)">
    <g data-characterId="976" height="116.45" transform="matrix(1.0, 0.0, 0.0, 1.0, -39.35, -52.6)" width="77.6" xlink:href="#shape0"><g id="shape0" transform="matrix(1.0, 0.0, 0.0, 1.0, 39.35, 52.6)">
      <path d="M29.55 -37.35 Q32.85 -34.25 34.95 -28.2 26.45 -27.6 18.4 -24.85 L13.15 -22.8 15.6 -16.15 Q18.6 -17.55 21.8 -18.25 28.2 -19.75 34.65 -19.15 L37.2 -18.85 37.65 -14.95 22.4 -14.4 21.45 -9.9 25.2 -10.2 25.8 -9.7 Q27.05 -11.05 28.85 -11.75 L29.75 -12.0 Q32.0 -10.55 33.25 -8.1 L33.35 -8.05 37.75 -7.5 37.1 -1.1 37.05 -1.0 37.0 -0.45 36.8 0.4 Q35.9 5.15 33.85 9.65 L32.75 11.8 31.15 11.1 32.65 12.05 30.35 15.85 30.3 15.95 Q30.65 14.85 29.85 13.9 L29.45 13.2 29.25 12.7 Q27.8 13.45 26.55 12.5 L25.55 11.75 25.9 10.9 23.35 11.2 23.85 14.35 20.45 14.1 21.1 15.75 Q22.1 18.4 21.3 21.3 L20.6 20.15 18.95 22.9 17.5 22.7 Q16.55 24.35 16.65 26.25 L16.45 27.35 16.0 28.2 15.05 28.2 14.6 26.75 9.85 29.85 9.15 29.6 9.4 26.85 Q9.15 28.3 7.65 29.1 6.2 30.0 4.5 29.6 L4.9 26.1 4.75 24.9 4.25 23.85 2.9 27.9 1.15 25.6 1.05 24.35 Q1.1 23.3 0.45 22.6 -0.55 21.65 -1.7 21.15 -3.4 20.4 -5.25 19.95 L-13.8 19.55 -14.3 19.25 Q-15.9 18.0 -17.95 17.6 L-18.95 17.45 -20.35 17.9 -24.5 19.45 -25.8 20.0 -27.35 20.15 -30.25 17.6 -30.35 15.0 -30.75 14.95 -33.7 19.3 -36.65 15.55 -36.75 15.25 -36.95 14.5 Q-38.7 8.0 -37.35 2.45 L-35.85 -4.45 -35.8 -6.55 Q-35.9 -7.35 -36.75 -9.35 -37.65 -11.35 -37.55 -13.85 -37.5 -16.4 -36.35 -19.7 -35.8 -21.35 -35.2 -23.75 L-33.35 -21.0 -29.5 -25.55 -28.25 -26.6 -30.65 -37.15 Q-29.6 -38.95 -28.15 -40.65 L-25.3 -43.9 Q-26.15 -35.75 -25.2 -27.8 L-24.55 -23.3 -24.45 -22.8 -20.1 -22.8 Q-13.1 -22.75 -6.4 -20.95 L-3.95 -28.05 Q1.25 -41.1 12.9 -48.95 L14.8 -48.0 17.05 -46.75 18.1 -46.1 Q6.5 -40.6 0.75 -29.4 L-0.15 -27.5 5.9 -26.15 Q8.15 -25.65 9.9 -24.4 L10.3 -25.8 Q19.2 -32.9 29.55 -37.35 M24.55 -6.25 Q24.85 -8.4 25.8 -9.7 24.85 -8.4 24.55 -6.25 M31.45 -1.65 L31.45 -3.65 31.25 -4.55 Q30.35 -6.65 28.95 -5.15 L28.6 -4.6 Q28.05 -2.8 26.45 -2.15 28.05 -2.8 28.6 -4.6 L28.95 -5.15 Q30.35 -6.65 31.25 -4.55 L31.45 -3.65 31.45 -1.65 M31.15 11.1 L31.7 8.7 Q32.1 6.6 32.65 4.9 33.65 2.0 34.15 -1.0 L34.15 -1.05 34.15 -1.2 34.2 -1.45 Q34.7 -4.95 33.35 -8.05 34.7 -4.95 34.2 -1.45 L34.15 -1.2 34.15 -1.05 34.15 -1.0 Q33.65 2.0 32.65 4.9 32.1 6.6 31.7 8.7 L31.15 11.1 29.25 12.7 31.15 11.1 M29.45 4.35 L29.45 3.85 29.45 1.35 29.45 3.85 29.45 4.35 M22.5 1.2 L20.75 2.6 22.5 1.2 M25.3 7.65 L24.5 8.05 Q22.5 9.05 20.95 10.2 L20.15 10.8 20.95 10.2 Q22.5 9.05 24.5 8.05 L25.3 7.65 M23.65 5.2 Q22.15 5.95 20.45 7.2 22.15 5.95 23.65 5.2 M7.7 5.9 Q3.85 5.9 0.2 4.45 -1.8 3.65 -3.85 3.2 -8.2 2.25 -10.3 -1.6 -8.2 2.25 -3.85 3.2 -1.8 3.65 0.2 4.45 3.85 5.9 7.7 5.9 M-25.0 -14.0 L-24.6 -12.95 -23.5 -10.0 -24.6 -12.95 -25.0 -14.0 M-26.05 -8.65 L-25.4 -8.2 Q-25.25 -7.8 -23.55 -6.8 -23.15 -6.1 -24.4 -2.2 -25.65 1.65 -27.95 5.65 -30.3 9.65 -30.35 15.0 -30.3 9.65 -27.95 5.65 -25.65 1.65 -24.4 -2.2 -23.15 -6.1 -23.55 -6.8 -25.25 -7.8 -25.4 -8.2 L-26.05 -8.65 M-20.0 -14.0 L-21.0 -13.5 Q-23.5 -12.25 -22.0 -9.5 -23.5 -12.25 -21.0 -13.5 L-20.0 -14.0 M-14.3 19.25 Q-12.95 17.8 -13.55 15.85 -12.95 17.8 -14.3 19.25 M-18.95 17.45 L-18.75 17.35 -19.0 17.45 -18.95 17.45 -19.0 17.45 -20.35 17.9 -19.0 17.45 -18.75 17.35 -18.95 17.45 M-26.2 18.55 L-26.25 18.55 -26.25 18.6 -26.2 18.55 M-35.0 1.25 Q-33.4 0.8 -32.0 -0.5 -33.4 0.8 -35.0 1.25" fill="url(#gradient0)" fill-rule="evenodd" stroke="none"/>
      <path d="M34.95 -28.2 L37.2 -18.85 34.65 -19.15 Q28.2 -19.75 21.8 -18.25 18.6 -17.55 15.6 -16.15 L13.15 -22.8 18.4 -24.85 Q26.45 -27.6 34.95 -28.2 M37.65 -14.95 L37.75 -7.5 33.35 -8.05 33.25 -8.1 Q32.0 -10.55 29.75 -12.0 L28.85 -11.75 Q27.05 -11.05 25.8 -9.7 L25.2 -10.2 21.45 -9.9 22.4 -14.4 37.65 -14.95 M-35.2 -23.75 L-34.6 -26.7 Q-33.5 -32.2 -30.65 -37.15 L-28.25 -26.6 -29.5 -25.55 -33.35 -21.0 -35.2 -23.75 M-25.3 -43.9 Q-20.95 -47.95 -15.35 -49.9 -1.1 -54.7 12.9 -48.95 1.25 -41.1 -3.95 -28.05 L-6.4 -20.95 Q-13.1 -22.75 -20.1 -22.8 L-24.45 -22.8 -24.55 -23.3 -25.2 -27.8 Q-26.15 -35.75 -25.3 -43.9 M18.1 -46.1 L29.55 -37.35 Q19.2 -32.9 10.3 -25.8 L9.9 -24.4 Q8.15 -25.65 5.9 -26.15 L-0.15 -27.5 0.75 -29.4 Q6.5 -40.6 18.1 -46.1 M-15.4 -33.6 L-14.75 -40.85 -9.2 -40.85 -14.75 -40.85 -15.4 -33.6 M-16.7 -33.0 Q-13.6 -33.55 -10.8 -31.95 L-10.5 -31.05 Q-10.35 -30.35 -10.55 -29.7 -11.05 -28.1 -12.55 -27.55 -16.45 -25.95 -19.8 -28.45 L-20.35 -30.35 Q-19.25 -32.6 -16.7 -33.0 -19.25 -32.6 -20.35 -30.35 L-19.8 -28.45 Q-16.45 -25.95 -12.55 -27.55 -11.05 -28.1 -10.55 -29.7 -10.35 -30.35 -10.5 -31.05 L-10.8 -31.95 Q-13.6 -33.55 -16.7 -33.0 M-10.65 -45.35 L-13.8 -45.35 -14.75 -40.85 -19.3 -41.2 -14.75 -40.85 -13.8 -45.35 -16.8 -45.55 -13.8 -45.35 -10.65 -45.35" fill="url(#gradient1)" fill-rule="evenodd" stroke="none"/>
      <path d="M32.75 11.8 L32.75 11.9 32.65 12.05 31.15 11.1 32.75 11.8" fill="url(#gradient2)" fill-rule="evenodd" stroke="none"/>
      <path d="M30.1 16.3 Q30.35 20.0 30.05 23.65 L29.65 26.45 30.05 27.1 29.4 30.3 28.95 30.75 29.3 33.65 27.6 34.4 27.8 37.35 24.75 36.8 24.9 40.25 23.9 41.15 23.35 40.85 22.95 39.95 22.5 40.8 21.7 43.75 21.4 44.5 20.25 44.85 19.85 44.0 16.15 49.2 15.0 45.95 12.3 51.0 Q10.8 53.65 7.85 53.85 L8.05 52.1 8.2 50.3 8.1 48.6 Q7.1 51.8 5.2 54.45 4.0 56.05 2.35 57.15 1.1 57.9 -0.45 57.55 L0.05 51.8 Q-0.85 54.0 -2.3 55.85 -3.65 57.5 -5.35 58.55 L-7.15 59.55 -7.45 55.8 Q-8.8 58.15 -11.1 59.6 -12.55 60.45 -14.05 60.7 L-13.8 56.65 -15.35 58.85 Q-16.15 59.95 -17.3 60.7 -18.5 61.6 -19.9 62.15 L-23.1 63.35 Q-21.5 61.45 -21.2 59.1 L-21.1 57.15 Q-21.15 55.65 -22.15 54.65 -23.75 57.65 -26.6 59.6 L-27.9 60.4 -27.35 52.3 -30.65 56.8 -30.75 47.45 Q-31.1 49.25 -31.6 51.05 L-32.2 52.3 -32.5 52.65 Q-33.05 49.8 -34.15 47.05 -34.95 45.0 -35.25 42.8 L-35.35 40.55 -36.25 44.85 Q-37.7 40.0 -37.6 34.9 L-37.4 28.75 -38.8 32.2 -38.8 26.0 Q-38.65 20.45 -36.75 15.25 L-36.65 15.55 -33.7 19.3 -30.75 14.95 -30.35 15.0 -30.25 17.6 -27.35 20.15 -25.8 20.0 -24.5 19.45 -20.35 17.9 -18.95 17.45 -17.95 17.6 Q-15.9 18.0 -14.3 19.25 L-13.8 19.55 -5.25 19.95 Q-3.4 20.4 -1.7 21.15 -0.55 21.65 0.45 22.6 1.1 23.3 1.05 24.35 L1.15 25.6 2.9 27.9 4.25 23.85 4.75 24.9 4.9 26.1 4.5 29.6 Q6.2 30.0 7.65 29.1 9.15 28.3 9.4 26.85 L9.15 29.6 9.85 29.85 14.6 26.75 15.05 28.2 16.0 28.2 16.45 27.35 16.65 26.25 Q16.55 24.35 17.5 22.7 L18.95 22.9 20.6 20.15 21.3 21.3 Q22.1 18.4 21.1 15.75 L20.45 14.1 23.85 14.35 23.35 11.2 25.9 10.9 25.55 11.75 26.55 12.5 Q27.8 13.45 29.25 12.7 L29.45 13.2 29.85 13.9 Q30.65 14.85 30.3 15.95 L30.05 16.25 30.1 16.3 M24.85 31.8 L24.85 31.3 25.0 30.9 25.4 25.8 Q25.45 24.0 25.1 22.25 L24.15 18.9 25.1 22.25 Q25.45 24.0 25.4 25.8 L25.0 30.9 24.85 31.3 24.85 31.8 M26.7 15.45 L27.05 16.8 Q28.45 21.0 26.7 25.35 28.45 21.0 27.05 16.8 L26.7 15.45 M20.5 39.6 L20.75 38.9 21.6 33.6 21.65 30.95 Q21.4 28.05 20.7 25.1 21.4 28.05 21.65 30.95 L21.6 33.6 20.75 38.9 20.5 39.6 M10.35 49.25 Q11.45 48.4 11.95 47.2 12.55 45.6 12.65 44.05 12.85 40.9 10.6 38.9 12.85 40.9 12.65 44.05 12.55 45.6 11.95 47.2 11.45 48.4 10.35 49.25 M14.75 40.75 L14.65 38.2 Q14.55 36.5 13.6 35.0 14.55 36.5 14.65 38.2 L14.75 40.75 M16.6 44.0 L16.85 43.5 17.1 42.5 17.25 38.3 Q17.65 34.05 16.1 30.15 17.65 34.05 17.25 38.3 L17.1 42.5 16.85 43.5 16.6 44.0 M2.3 53.65 L4.45 51.05 6.25 48.05 Q7.0 46.65 6.9 45.1 6.8 42.7 5.55 40.5 6.8 42.7 6.9 45.1 7.0 46.65 6.25 48.05 L4.45 51.05 2.3 53.65 M-7.35 22.1 L-6.75 21.95 Q-3.5 23.25 -1.5 26.35 L0.55 29.35 Q1.9 31.15 2.7 33.25 3.45 35.3 3.15 37.55 3.45 35.3 2.7 33.25 1.9 31.15 0.55 29.35 L-1.5 26.35 Q-3.5 23.25 -6.75 21.95 L-7.35 22.1 M-16.8 22.1 L-16.45 21.45 Q-13.2 23.7 -11.25 27.25 -10.5 28.7 -11.05 29.95 -10.5 28.7 -11.25 27.25 -13.2 23.7 -16.45 21.45 L-16.8 22.1 M-37.5 27.15 Q-36.7 24.75 -35.1 22.6 -33.65 20.75 -31.3 20.05 -33.65 20.75 -35.1 22.6 -36.7 24.75 -37.5 27.15 M-4.6 55.0 L-0.2 42.35 -4.6 55.0 M-26.45 56.65 L-25.75 56.1 -24.45 54.75 Q-22.8 52.3 -22.1 49.75 -20.9 45.45 -20.5 41.0 -20.9 45.45 -22.1 49.75 -22.8 52.3 -24.45 54.75 L-25.75 56.1 -26.45 56.65 M-19.55 59.15 Q-17.7 57.9 -16.55 55.75 L-14.3 51.55 Q-12.25 47.7 -11.95 43.5 -12.25 47.7 -14.3 51.55 L-16.55 55.75 Q-17.7 57.9 -19.55 59.15 M-10.1 54.35 Q-8.15 52.95 -7.15 50.9 -6.15 48.75 -6.65 46.5 -6.15 48.75 -7.15 50.9 -8.15 52.95 -10.1 54.35 M-26.45 26.5 L-24.4 21.2 -26.45 26.5 M-12.9 21.9 Q-9.65 23.4 -6.95 25.7 -5.6 26.85 -4.4 28.15 -3.35 29.35 -3.15 30.85 -3.0 32.1 -3.9 32.95 -3.0 32.1 -3.15 30.85 -3.35 29.35 -4.4 28.15 -5.6 26.85 -6.95 25.7 -9.65 23.4 -12.9 21.9 M-19.55 20.75 Q-18.6 23.9 -18.55 27.4 -18.55 28.4 -19.35 28.8 -18.55 28.4 -18.55 27.4 -18.6 23.9 -19.55 20.75 M-17.05 49.25 L-16.65 48.35 Q-15.25 44.6 -15.85 40.5 -15.25 44.6 -16.65 48.35 L-17.05 49.25 M-29.2 52.05 Q-27.35 49.05 -26.8 45.7 L-26.0 40.75 -26.8 45.7 Q-27.35 49.05 -29.2 52.05 M-35.65 38.7 L-35.85 37.35 Q-36.25 34.05 -34.75 31.3 -36.25 34.05 -35.85 37.35 L-35.65 38.7 M-32.45 45.6 L-32.7 44.35 Q-33.5 40.15 -31.55 36.15 -33.5 40.15 -32.7 44.35 L-32.45 45.6 M-34.5 26.0 L-33.05 24.05 Q-31.95 22.6 -30.15 22.8 -31.95 22.6 -33.05 24.05 L-34.5 26.0 M-22.6 20.3 L-22.35 20.75 -22.3 20.95 Q-21.65 22.65 -21.65 24.4 -21.65 27.1 -23.0 29.5 -21.65 27.1 -21.65 24.4 -21.65 22.65 -22.3 20.95 L-22.35 20.75 -22.6 20.3 M-29.0 25.8 L-28.65 23.7 Q-28.45 22.6 -27.6 22.35 -28.45 22.6 -28.65 23.7 L-29.0 25.8" fill="#3e0f0f" fill-rule="evenodd" stroke="none"/>
      <path d="M29.55 -37.35 Q32.85 -34.25 34.95 -28.2 L37.2 -18.85 37.65 -14.95 37.75 -7.5 37.1 -1.1 37.05 -1.0 37.0 -0.45 36.8 0.4 Q35.9 5.15 33.85 9.65 L32.75 11.8 32.75 11.9 32.65 12.05 30.35 15.85 30.3 15.95 30.1 16.3 Q30.35 20.0 30.05 23.65 L29.65 26.45 30.05 27.1 29.4 30.3 28.95 30.75 29.3 33.65 27.6 34.4 27.8 37.35 24.75 36.8 24.9 40.25 23.9 41.15 23.35 40.85 22.95 39.95 22.5 40.8 21.7 43.75 21.4 44.5 20.25 44.85 19.85 44.0 16.15 49.2 15.0 45.95 12.3 51.0 Q10.8 53.65 7.85 53.85 L8.05 52.1 8.2 50.3 8.1 48.6 Q7.1 51.8 5.2 54.45 4.0 56.05 2.35 57.15 1.1 57.9 -0.45 57.55 L0.05 51.8 Q-0.85 54.0 -2.3 55.85 -3.65 57.5 -5.35 58.55 L-7.15 59.55 -7.45 55.8 Q-8.8 58.15 -11.1 59.6 -12.55 60.45 -14.05 60.7 L-13.8 56.65 -15.35 58.85 Q-16.15 59.95 -17.3 60.7 -18.5 61.6 -19.9 62.15 L-23.1 63.35 Q-21.5 61.45 -21.2 59.1 L-21.1 57.15 Q-21.15 55.65 -22.15 54.65 -23.75 57.65 -26.6 59.6 L-27.9 60.4 -27.35 52.3 -30.65 56.8 -30.75 47.45 Q-31.1 49.25 -31.6 51.05 L-32.2 52.3 -32.5 52.65 Q-33.05 49.8 -34.15 47.05 -34.95 45.0 -35.25 42.8 L-35.35 40.55 -36.25 44.85 Q-37.7 40.0 -37.6 34.9 L-37.4 28.75 -38.8 32.2 -38.8 26.0 Q-38.65 20.45 -36.75 15.25 L-36.95 14.5 Q-38.7 8.0 -37.35 2.45 L-35.85 -4.45 -35.8 -6.55 Q-35.9 -7.35 -36.75 -9.35 -37.65 -11.35 -37.55 -13.85 -37.5 -16.4 -36.35 -19.7 -35.8 -21.35 -35.2 -23.75 L-34.6 -26.7 Q-33.5 -32.2 -30.65 -37.15 -29.6 -38.95 -28.15 -40.65 L-25.3 -43.9 Q-20.95 -47.95 -15.35 -49.9 -1.1 -54.7 12.9 -48.95 L14.8 -48.0 17.05 -46.75 18.1 -46.1 29.55 -37.35 M26.45 -2.15 Q28.05 -2.8 28.6 -4.6 L28.95 -5.15 Q30.35 -6.65 31.25 -4.55 L31.45 -3.65 31.45 -1.65 M25.8 -9.7 Q24.85 -8.4 24.55 -6.25 M25.8 -9.7 Q27.05 -11.05 28.85 -11.75 L29.75 -12.0 Q32.0 -10.55 33.25 -8.1 M33.35 -8.05 Q34.7 -4.95 34.2 -1.45 L34.15 -1.2 34.15 -1.05 34.15 -1.0 Q33.65 2.0 32.65 4.9 32.1 6.6 31.7 8.7 L31.15 11.1 29.25 12.7 Q27.8 13.45 26.55 12.5 L25.55 11.75 M20.45 7.2 Q22.15 5.95 23.65 5.2 M20.15 10.8 L20.95 10.2 Q22.5 9.05 24.5 8.05 L25.3 7.65 M20.75 2.6 L22.5 1.2 M29.45 1.35 L29.45 3.85 29.45 4.35 M25.9 10.9 L23.35 11.2 23.85 14.35 20.45 14.1 21.1 15.75 Q22.1 18.4 21.3 21.3 L20.6 20.15 18.95 22.9 17.5 22.7 Q16.55 24.35 16.65 26.25 L16.45 27.35 16.0 28.2 15.05 28.2 14.6 26.75 9.85 29.85 9.15 29.6 9.4 26.85 Q9.15 28.3 7.65 29.1 6.2 30.0 4.5 29.6 L4.9 26.1 4.75 24.9 4.25 23.85 2.9 27.9 1.15 25.6 1.05 24.35 Q1.1 23.3 0.45 22.6 -0.55 21.65 -1.7 21.15 -3.4 20.4 -5.25 19.95 L-13.8 19.55 M-14.3 19.25 Q-15.9 18.0 -17.95 17.6 L-18.95 17.45 -20.35 17.9 -24.5 19.45 -25.8 20.0 -27.35 20.15 -30.25 17.6 -30.35 15.0 Q-30.3 9.65 -27.95 5.65 -25.65 1.65 -24.4 -2.2 -23.15 -6.1 -23.55 -6.8 -25.25 -7.8 -25.4 -8.2 L-26.05 -8.65 M-30.75 14.95 L-33.7 19.3 -36.65 15.55 M30.05 16.25 L30.3 15.95 Q30.65 14.85 29.85 13.9 L29.45 13.2 M-18.95 17.45 L-19.0 17.45 -20.35 17.9 M-19.0 17.45 L-18.75 17.35 -18.95 17.45 M-13.55 15.85 Q-12.95 17.8 -14.3 19.25" fill="none" stroke="#000000" stroke-linecap="round" stroke-linejoin="round" stroke-width="2.0"/>
      <path d="M26.7 25.35 Q28.45 21.0 27.05 16.8 L26.7 15.45 M24.15 18.9 L25.1 22.25 Q25.45 24.0 25.4 25.8 L25.0 30.9 24.85 31.3 24.85 31.8 M3.15 37.55 Q3.45 35.3 2.7 33.25 1.9 31.15 0.55 29.35 L-1.5 26.35 Q-3.5 23.25 -6.75 21.95 L-7.35 22.1 M5.55 40.5 Q6.8 42.7 6.9 45.1 7.0 46.65 6.25 48.05 L4.45 51.05 2.3 53.65 M16.1 30.15 Q17.65 34.05 17.25 38.3 L17.1 42.5 16.85 43.5 16.6 44.0 M13.6 35.0 Q14.55 36.5 14.65 38.2 L14.75 40.75 M10.6 38.9 Q12.85 40.9 12.65 44.05 12.55 45.6 11.95 47.2 11.45 48.4 10.35 49.25 M20.7 25.1 Q21.4 28.05 21.65 30.95 L21.6 33.6 20.75 38.9 20.5 39.6 M-11.05 29.95 Q-10.5 28.7 -11.25 27.25 -13.2 23.7 -16.45 21.45 L-16.8 22.1 M-31.3 20.05 Q-33.65 20.75 -35.1 22.6 -36.7 24.75 -37.5 27.15 M-27.6 22.35 Q-28.45 22.6 -28.65 23.7 L-29.0 25.8 M-23.0 29.5 Q-21.65 27.1 -21.65 24.4 -21.65 22.65 -22.3 20.95 L-22.35 20.75 -22.6 20.3 M-30.15 22.8 Q-31.95 22.6 -33.05 24.05 L-34.5 26.0 M-31.55 36.15 Q-33.5 40.15 -32.7 44.35 L-32.45 45.6 M-34.75 31.3 Q-36.25 34.05 -35.85 37.35 L-35.65 38.7 M-26.0 40.75 L-26.8 45.7 Q-27.35 49.05 -29.2 52.05 M-15.85 40.5 Q-15.25 44.6 -16.65 48.35 L-17.05 49.25 M-19.35 28.8 Q-18.55 28.4 -18.55 27.4 -18.6 23.9 -19.55 20.75 M-3.9 32.95 Q-3.0 32.1 -3.15 30.85 -3.35 29.35 -4.4 28.15 -5.6 26.85 -6.95 25.7 -9.65 23.4 -12.9 21.9 M-24.4 21.2 L-26.45 26.5 M-6.65 46.5 Q-6.15 48.75 -7.15 50.9 -8.15 52.95 -10.1 54.35 M-11.95 43.5 Q-12.25 47.7 -14.3 51.55 L-16.55 55.75 Q-17.7 57.9 -19.55 59.15 M-20.5 41.0 Q-20.9 45.45 -22.1 49.75 -22.8 52.3 -24.45 54.75 L-25.75 56.1 -26.45 56.65 M-0.2 42.35 L-4.6 55.0" fill="none" stroke="#6c1c1c" stroke-linecap="round" stroke-linejoin="round" stroke-width="1.5"/>
      <path d="M-10.3 -1.6 Q-8.2 2.25 -3.85 3.2 -1.8 3.65 0.2 4.45 3.85 5.9 7.7 5.9 M-23.5 -10.0 L-24.6 -12.95 -25.0 -14.0 M-22.0 -9.5 Q-23.5 -12.25 -21.0 -13.5 L-20.0 -14.0 M-32.0 -0.5 Q-33.4 0.8 -35.0 1.25" fill="none" stroke="#a97745" stroke-linecap="round" stroke-linejoin="round" stroke-width="2.0"/>
      <path d="M-19.3 -41.2 L-14.75 -40.85 -13.8 -45.35 -16.8 -45.55 M-13.8 -45.35 L-10.65 -45.35 M-16.7 -33.0 Q-19.25 -32.6 -20.35 -30.35 L-19.8 -28.45 Q-16.45 -25.95 -12.55 -27.55 -11.05 -28.1 -10.55 -29.7 -10.35 -30.35 -10.5 -31.05 L-10.8 -31.95 Q-13.6 -33.55 -16.7 -33.0 M-9.2 -40.85 L-14.75 -40.85 -15.4 -33.6" fill="none" stroke="#cc00ff" stroke-linecap="round" stroke-linejoin="round" stroke-width="2.0"/>
    </g>
    </g>
  </g>
  <defs>
    <radialGradient cx="0" cy="0" gradientTransform="matrix(0.0543, 0.0, 0.0, 0.0824, -20.0, -3.0)" gradientUnits="userSpaceOnUse" id="gradient0" r="819.2" spreadMethod="pad">
      <stop offset="0.0" stop-color="#e2c983"/>
      <stop offset="0.6274509803921569" stop-color="#d9ba66"/>
      <stop offset="1.0" stop-color="#c09e56"/>
    </radialGradient>
    <radialGradient cx="0" cy="0" gradientTransform="matrix(0.0543, 0.0, 0.0, 0.0824, -20.0, -3.0)" gradientUnits="userSpaceOnUse" id="gradient1" r="819.2" spreadMethod="pad">
      <stop offset="0.0" stop-color="#d1aa68"/>
      <stop offset="0.6274509803921569" stop-color="#d19e47"/>
      <stop offset="1.0" stop-color="#946f38"/>
    </radialGradient>
    <radialGradient cx="0" cy="0" gradientTransform="matrix(0.0494, 0.0, 0.0, 0.0681, -16.0, 3.0)" gradientUnits="userSpaceOnUse" id="gradient2" r="819.2" spreadMethod="pad">
      <stop offset="0.0" stop-color="#e2c983"/>
      <stop offset="0.6274509803921569" stop-color="#d9ba66"/>
      <stop offset="1.0" stop-color="#c09e56"/>
    </radialGradient>
  </defs>
</svg>