<svg xmlns:xlink="http://www.w3.org/1999/xlink" xmlns="http://www.w3.org/2000/svg" height="119.1px" width="213.05px">
  <g transform="matrix(1.0, 0.0, 0.0, 1.0, 94.65, 81.2)">
    <g data-characterId="895" height="55.3" transform="matrix(1.0, 0.0, 0.0, 1.0, -74.05, -29.8)" width="150.25" xlink:href="#shape0"><g id="shape0" transform="matrix(1.0, 0.0, 0.0, 1.0, 74.05, 29.8)">
      <path d="M13.8 -16.4 Q21.3 -18.45 28.0 -22.5 L28.5 -22.0 Q28.5 -20.7 28.75 -19.6 L28.0 -19.5 21.9 -16.65 20.2 -16.05 15.85 -14.8 14.5 -14.35 13.8 -16.4" fill="#e4af7a" fill-rule="evenodd" stroke="none"/>
      <path d="M-6.7 -7.9 L-6.55 -7.4 Q-6.1 -4.4 -7.9 -2.4 -8.6 -1.7 -9.6 -1.1 L-10.0 -1.5 Q-12.3 -3.45 -12.1 -6.4 L-11.65 -7.45 -11.6 -7.55 Q-9.25 -10.0 -6.7 -7.9" fill="url(#gradient0)" fill-rule="evenodd" stroke="none"/>
      <path d="M32.0 -28.0 L32.25 -29.3 39.7 -26.75 Q44.05 -25.35 48.45 -24.4 57.0 -22.55 63.75 -17.3 68.05 -14.0 70.55 -9.3 74.4 -2.0 75.4 6.25 75.75 9.35 75.7 12.5 L75.6 15.95 Q75.5 18.1 74.6 20.25 73.65 22.55 73.0 25.0 67.8 20.6 61.95 17.3 61.05 16.7 60.0 16.55 52.75 14.85 45.55 12.5 43.25 11.85 41.05 10.9 L38.4 9.95 Q33.15 6.8 31.65 1.6 31.05 -0.55 31.05 -3.0 31.05 -8.75 31.45 -14.5 L31.6 -15.8 32.0 -27.5 32.0 -28.0 M-47.05 7.85 Q-55.4 11.05 -64.5 12.25 -69.1 12.55 -71.7 16.15 L-72.95 16.5 Q-74.15 12.3 -72.85 8.0 -68.5 -6.65 -56.4 -16.0 L-55.5 -15.0 -55.05 -15.3 Q-53.9 -14.1 -52.4 -14.05 L-50.0 -14.55 Q-45.65 -16.6 -45.5 -21.0 -45.65 -16.6 -50.0 -14.55 L-52.4 -14.05 Q-53.9 -14.1 -55.05 -15.3 L-55.8 -16.45 Q-51.1 -19.6 -46.15 -22.2 L-45.5 -21.0 -46.1 -22.2 -40.1 -25.1 Q-38.75 -25.7 -37.5 -26.45 L-39.95 -13.0 Q-38.9 -6.7 -41.1 -1.0 -42.35 2.15 -44.6 5.1 L-47.05 7.85 M42.5 -17.5 L40.5 -14.65 39.85 -13.2 Q37.1 -7.3 38.0 -1.0 37.1 -7.3 39.85 -13.2 L40.5 -14.65 42.5 -17.5 M55.15 -13.25 Q55.45 -16.15 52.95 -17.9 L52.75 -18.05 52.2 -18.4 48.4 -20.25 Q45.7 -21.45 43.6 -19.4 43.35 -18.4 43.6 -17.5 43.85 -16.6 44.6 -15.8 45.35 -15.0 46.3 -14.5 50.65 -12.3 55.05 -12.85 50.65 -12.3 46.3 -14.5 45.35 -15.0 44.6 -15.8 43.85 -16.6 43.6 -17.5 43.35 -18.4 43.6 -19.4 45.7 -21.45 48.4 -20.25 L52.2 -18.4 52.75 -18.05 52.95 -17.9 Q55.45 -16.15 55.15 -13.25 L55.05 -12.85 55.2 -12.95 55.15 -13.05 55.15 -13.25 M63.15 0.45 L56.3 -11.15 55.2 -12.95 56.3 -11.15 63.15 0.45 62.95 0.65 63.45 1.0 63.15 0.45 M70.0 17.0 Q68.3 8.6 63.45 1.0 68.3 8.6 70.0 17.0 M58.5 -11.0 L61.55 -9.45 Q65.9 -7.05 69.4 -3.4 65.9 -7.05 61.55 -9.45 L58.5 -11.0 M44.0 6.25 Q45.75 -1.7 51.35 -7.6 L52.6 -8.75 56.3 -11.15 52.6 -8.75 51.35 -7.6 Q45.75 -1.7 44.0 6.25 M53.0 -18.5 L54.6 -18.55 Q58.8 -17.7 61.5 -14.5 58.8 -17.7 54.6 -18.55 L53.0 -18.5 M59.5 13.5 Q59.4 9.6 60.2 5.95 60.85 2.9 62.95 0.65 60.85 2.9 60.2 5.95 59.4 9.6 59.5 13.5 M-52.5 -13.0 L-52.8 -10.8 -52.5 2.0 -52.8 -10.8 -52.5 -13.0 M-65.5 5.0 Q-63.5 -4.7 -57.65 -12.4 L-55.5 -15.0 -57.65 -12.4 Q-63.5 -4.7 -65.5 5.0" fill="#525728" fill-rule="evenodd" stroke="none"/>
      <path d="M31.65 1.6 Q33.15 6.8 38.4 9.95 L22.0 13.15 30.5 2.0 31.65 1.6 M-30.65 10.3 L-47.05 7.85 -44.6 5.1 Q-42.35 2.15 -41.1 -1.0 L-39.95 0.45 -30.65 10.3 M-37.2 -26.75 Q-35.35 -25.1 -35.0 -22.55 -34.3 -17.3 -29.35 -15.2 -34.25 -13.1 -39.95 -13.0 L-37.5 -26.45 -37.2 -26.75" fill="#3a371f" fill-rule="evenodd" stroke="none"/>
      <path d="M31.6 -15.8 L31.45 -14.5 Q31.05 -8.75 31.05 -3.0 31.05 -0.55 31.65 1.6 L30.5 2.0 22.0 13.15 Q12.85 14.05 3.8 12.25 L-8.2 10.65 -15.2 10.85 -30.65 10.3 -39.95 0.45 -41.1 -1.0 Q-38.9 -6.7 -39.95 -13.0 -34.25 -13.1 -29.35 -15.2 L-28.85 -15.45 Q-26.55 -16.55 -24.4 -18.05 L-22.2 -19.8 -21.55 -20.5 Q-12.85 -16.55 -3.6 -15.2 5.2 -14.25 13.8 -16.4 L14.5 -14.35 15.85 -14.8 20.2 -16.05 21.9 -16.65 28.0 -19.5 28.75 -19.6 29.4 -17.6 Q30.3 -15.8 31.6 -15.8 M-6.7 -7.9 L-4.3 -8.4 3.6 -10.65 Q6.95 -11.6 10.45 -13.0 L14.5 -14.35 10.45 -13.0 Q6.95 -11.6 3.6 -10.65 L-4.3 -8.4 -6.7 -7.9 Q-9.25 -10.0 -11.6 -7.55 L-11.65 -7.45 -12.1 -6.4 Q-12.3 -3.45 -10.0 -1.5 L-9.6 -1.1 Q-8.6 -1.7 -7.9 -2.4 -6.1 -4.4 -6.55 -7.4 L-6.7 -7.9 M-7.5 0.0 L-6.55 -1.45 -5.45 -2.9 Q-3.85 -4.65 -1.65 -5.2 L14.1 -9.1 Q19.6 -10.45 24.0 -14.0 19.6 -10.45 14.1 -9.1 L-1.65 -5.2 Q-3.85 -4.65 -5.45 -2.9 L-6.55 -1.45 -7.5 0.0 M-26.5 -7.5 L-26.45 -9.15 Q-26.55 -11.75 -27.9 -13.6 -26.55 -11.75 -26.45 -9.15 L-26.5 -7.5 M-12.5 -8.0 L-13.55 -8.3 Q-20.55 -10.65 -24.0 -17.5 -20.55 -10.65 -13.55 -8.3 L-12.5 -8.0" fill="#d9a166" fill-rule="evenodd" stroke="none"/>
      <path d="M38.4 9.95 L41.05 10.9 Q43.25 11.85 45.55 12.5 52.75 14.85 60.0 16.55 61.05 16.7 61.95 17.3 67.8 20.6 73.0 25.0 73.65 22.55 74.6 20.25 75.5 18.1 75.6 15.95 L75.7 12.5 Q75.75 9.35 75.4 6.25 74.4 -2.0 70.55 -9.3 68.05 -14.0 63.75 -17.3 57.0 -22.55 48.45 -24.4 44.05 -25.35 39.7 -26.75 L32.25 -29.3 32.0 -28.0 M32.0 -27.5 L31.6 -15.8 31.45 -14.5 Q31.05 -8.75 31.05 -3.0 31.05 -0.55 31.65 1.6 33.15 6.8 38.4 9.95 L22.0 13.15 Q12.85 14.05 3.8 12.25 L-8.2 10.65 -15.2 10.85 -30.65 10.3 -47.05 7.85 Q-55.4 11.05 -64.5 12.25 -69.1 12.55 -71.7 16.15 L-72.4 17.55 -72.65 17.4 -72.95 16.5 Q-74.15 12.3 -72.85 8.0 -68.5 -6.65 -56.4 -16.0 L-55.9 -16.4 -55.8 -16.45 Q-51.1 -19.6 -46.15 -22.2 L-46.1 -22.2 -40.1 -25.1 Q-38.75 -25.7 -37.5 -26.45 L-37.5 -27.0 -37.2 -26.75 Q-35.35 -25.1 -35.0 -22.55 -34.3 -17.3 -29.35 -15.2 L-28.85 -15.45 Q-26.55 -16.55 -24.4 -18.05 L-22.2 -19.8 -21.55 -20.5 M28.5 -22.0 Q28.5 -20.7 28.75 -19.6 L29.4 -17.6 Q30.3 -15.8 31.6 -15.8 M14.5 -14.35 L10.45 -13.0 Q6.95 -11.6 3.6 -10.65 L-4.3 -8.4 -6.7 -7.9 -6.55 -7.4 Q-6.1 -4.4 -7.9 -2.4 -8.6 -1.7 -9.6 -1.1 M-10.0 -1.5 Q-12.3 -3.45 -12.1 -6.4 L-11.65 -7.45 -11.6 -7.55 Q-9.25 -10.0 -6.7 -7.9 M14.5 -14.35 L15.85 -14.8 20.2 -16.05 21.9 -16.65 28.0 -19.5 M38.0 -1.0 Q37.1 -7.3 39.85 -13.2 L40.5 -14.65 42.5 -17.5 M55.05 -12.85 Q50.65 -12.3 46.3 -14.5 45.35 -15.0 44.6 -15.8 43.85 -16.6 43.6 -17.5 43.35 -18.4 43.6 -19.4 45.7 -21.45 48.4 -20.25 L52.2 -18.4 52.75 -18.05 52.95 -17.9 Q55.45 -16.15 55.15 -13.25 L55.15 -13.05 55.2 -12.95 56.3 -11.15 63.15 0.45 63.45 1.0 Q68.3 8.6 70.0 17.0 M55.05 -12.85 L55.15 -13.05 M61.5 -14.5 Q58.8 -17.7 54.6 -18.55 L53.0 -18.5 M56.3 -11.15 L52.6 -8.75 51.35 -7.6 Q45.75 -1.7 44.0 6.25 M69.4 -3.4 Q65.9 -7.05 61.55 -9.45 L58.5 -11.0 M62.95 0.65 L63.15 0.45 M62.95 0.65 Q60.85 2.9 60.2 5.95 59.4 9.6 59.5 13.5 M30.5 2.0 L22.0 13.15 M-55.05 -15.3 Q-53.9 -14.1 -52.4 -14.05 L-50.0 -14.55 Q-45.65 -16.6 -45.5 -21.0 M-55.05 -15.3 L-55.9 -16.4 M-55.5 -15.0 L-57.65 -12.4 Q-63.5 -4.7 -65.5 5.0 M-52.5 2.0 L-52.8 -10.8 -52.5 -13.0 M-39.95 -13.0 Q-34.25 -13.1 -29.35 -15.2 M-24.0 -17.5 Q-20.55 -10.65 -13.55 -8.3 L-12.5 -8.0 M-37.5 -26.45 L-39.95 -13.0 Q-38.9 -6.7 -41.1 -1.0 L-39.95 0.45 -30.65 10.3 M-41.1 -1.0 Q-42.35 2.15 -44.6 5.1 L-47.05 7.85" fill="none" stroke="#000000" stroke-linecap="round" stroke-linejoin="round" stroke-width="2.0"/>
      <path d="M24.0 -14.0 Q19.6 -10.45 14.1 -9.1 L-1.65 -5.2 Q-3.85 -4.65 -5.45 -2.9 L-6.55 -1.45 -7.5 0.0 M-27.9 -13.6 Q-26.55 -11.75 -26.45 -9.15 L-26.5 -7.5" fill="none" stroke="#c08456" stroke-linecap="round" stroke-linejoin="round" stroke-width="2.0"/>
    </g>
    </g>
  </g>
  <defs>
    <radialGradient cx="0" cy="0" gradientTransform="matrix(0.006, 0.0, 0.0, 0.006, -9.5, -4.0)" gradientUnits="userSpaceOnUse" id="gradient0" r="819.2" spreadMethod="pad">
      <stop offset="0.0" stop-color="#bbffbb"/>
      <stop offset="0.3607843137254902" stop-color="#76c056"/>
      <stop offset="1.0" stop-color="#3e5320"/>
    </radialGradient>
  </defs>
</svg>