<svg xmlns:xlink="http://www.w3.org/1999/xlink" xmlns="http://www.w3.org/2000/svg" height="264.15px" width="342.25px">
  <g transform="matrix(1.0, 0.0, 0.0, 1.0, 243.25, 83.7)">
    <g data-characterId="1132" height="84.55" transform="matrix(1.0, 0.0, 0.0, 1.0, -42.7, -42.3)" width="85.35" xlink:href="#shape0"><g id="shape0" transform="matrix(1.0, 0.0, 0.0, 1.0, 42.7, 42.3)">
      <path d="M-40.4 -22.5 Q-35.75 -30.8 -27.4 -35.55 -19.8 -39.95 -10.8 -41.15 L3.2 -41.8 15.1 -41.2 Q17.1 -41.0 19.05 -40.1 23.25 -38.4 27.35 -36.15 L29.3 -34.55 Q35.7 -27.45 40.3 -19.25 42.05 -16.2 42.1 -12.5 L42.0 7.3 41.6 10.8 39.45 21.4 37.25 32.55 37.05 33.05 35.9 31.25 Q33.25 36.15 32.9 41.75 30.45 38.1 30.05 33.7 L29.75 31.05 28.6 32.5 29.4 26.25 29.4 25.25 34.05 24.2 Q36.05 19.45 36.55 14.2 L37.1 10.3 Q37.75 6.75 35.7 4.1 34.1 2.0 31.45 1.35 L28.35 5.55 27.4 5.25 23.05 15.05 Q21.95 10.1 20.35 5.25 19.65 3.25 19.6 1.05 19.5 -3.15 17.1 -6.6 10.8 -15.55 -0.15 -15.6 -7.15 -16.35 -13.1 -12.5 L-12.6 -14.75 Q-20.35 -15.5 -26.5 -11.1 -28.65 -9.6 -30.1 -7.25 L-27.6 -14.75 Q-30.2 -14.3 -32.25 -12.7 -33.9 -11.4 -35.35 -9.9 L-39.6 -4.25 -35.3 -16.8 Q-38.15 -14.75 -40.25 -11.7 L-41.6 -9.75 Q-43.05 -13.15 -40.85 -16.35 -39.45 -18.3 -38.4 -20.55 L-37.45 -22.55 -40.15 -22.35 -40.4 -22.5" fill="url(#gradient0)" fill-rule="evenodd" stroke="none"/>
      <path d="M-40.4 -22.5 Q-35.75 -30.8 -27.4 -35.55 -19.8 -39.95 -10.8 -41.15 L3.2 -41.8 15.1 -41.2 Q17.1 -41.0 19.05 -40.1 23.25 -38.4 27.35 -36.15 L29.3 -34.55 Q35.7 -27.45 40.3 -19.25 42.05 -16.2 42.1 -12.5 L42.0 7.3 41.6 10.8 39.45 21.4 37.25 32.55 37.05 33.05 35.9 31.25 Q33.25 36.15 32.9 41.75 30.45 38.1 30.05 33.7 L29.75 31.05 28.6 32.5 29.4 26.25 M-40.4 -22.5 L-41.1 -21.25" fill="none" stroke="#000000" stroke-linecap="round" stroke-linejoin="round" stroke-width="2.0"/>
      <path d="M29.4 25.25 L34.05 24.2 Q36.05 19.45 36.55 14.2 L37.1 10.3 Q37.75 6.75 35.7 4.1 34.1 2.0 31.45 1.35 L28.35 5.55 27.9 7.25 M-13.1 -12.5 L-12.6 -14.75 Q-20.35 -15.5 -26.5 -11.1 -28.65 -9.6 -30.1 -7.25 L-27.6 -14.75 Q-30.2 -14.3 -32.25 -12.7 -33.9 -11.4 -35.35 -9.9 L-39.6 -4.25 -35.3 -16.8 Q-38.15 -14.75 -40.25 -11.7 L-41.6 -9.75 Q-43.05 -13.15 -40.85 -16.35 -39.45 -18.3 -38.4 -20.55 L-37.45 -22.55 -40.15 -22.35 M27.4 5.25 L23.05 15.05 Q21.95 10.1 20.35 5.25 19.65 3.25 19.6 1.05 19.5 -3.15 17.1 -6.6 10.8 -15.55 -0.15 -15.6 -7.15 -16.35 -13.1 -12.5 L-14.1 -11.75" fill="none" stroke="#000000" stroke-linecap="round" stroke-linejoin="round" stroke-width="2.0"/>
    </g>
    </g>
  </g>
  <defs>
    <radialGradient cx="0" cy="0" gradientTransform="matrix(0.1213, -0.0038, 0.0021, 0.0661, -0.5, -27.0)" gradientUnits="userSpaceOnUse" id="gradient0" r="819.2" spreadMethod="pad">
      <stop offset="0.0" stop-color="#000000"/>
      <stop offset="0.4196078431372549" stop-color="#454545"/>
      <stop offset="1.0" stop-color="#000000"/>
    </radialGradient>
  </defs>
</svg>