<svg xmlns:xlink="http://www.w3.org/1999/xlink" xmlns="http://www.w3.org/2000/svg" height="264.15px" width="342.25px">
  <g transform="matrix(1.0, 0.0, 0.0, 1.0, 243.25, 83.7)">
    <g data-characterId="1137" height="112.65" transform="matrix(1.0, 0.0, 0.0, 1.0, -38.9, -42.75)" width="85.0" xlink:href="#shape0"><g id="shape0" transform="matrix(1.0, 0.0, 0.0, 1.0, 38.9, 42.75)">
      <path d="M26.75 -27.9 L26.35 -28.65 24.9 -30.0 24.5 -30.4 23.75 -31.65 Q23.3 -32.3 22.45 -32.35 20.25 -32.35 18.85 -30.6 L18.9 -30.8 Q19.3 -31.75 19.0 -32.55 18.7 -33.45 17.75 -33.7 15.8 -34.1 16.1 -32.2 15.8 -34.1 17.75 -33.7 18.7 -33.45 19.0 -32.55 19.3 -31.75 18.9 -30.8 L18.85 -30.6 Q20.25 -32.35 22.45 -32.35 23.3 -32.3 23.75 -31.65 L24.5 -30.4 24.9 -30.0 26.35 -28.65 26.75 -27.9 M27.2 -35.1 L27.9 -34.0 27.05 -33.05 30.2 -31.65 30.8 -31.25 30.95 -30.9 29.9 -29.9 Q34.05 -29.4 35.65 -25.95 38.0 -20.95 38.7 -16.45 L39.6 -16.2 Q43.75 -15.35 44.05 -11.3 L43.95 -10.05 41.7 -8.9 Q44.6 -7.6 45.55 -4.45 45.75 -3.7 45.3 -3.1 L45.05 -2.75 43.45 -2.3 Q45.35 -0.7 44.85 1.35 44.45 2.95 43.65 4.45 L43.6 4.8 44.0 5.9 Q44.7 7.55 43.35 8.7 L42.6 9.15 42.0 9.25 Q43.7 11.0 43.4 13.35 43.05 16.3 40.7 18.25 39.85 18.9 40.1 20.1 L38.6 21.15 38.5 22.45 Q37.0 23.3 37.15 24.9 L37.45 26.0 37.7 26.5 34.8 27.05 35.1 30.25 34.5 31.1 35.6 38.25 35.5 38.45 Q34.55 42.5 31.95 46.05 L31.05 44.6 30.95 45.3 30.75 46.0 30.45 46.55 Q28.8 48.25 27.9 50.35 L27.05 49.8 25.05 53.8 24.45 52.4 19.75 56.9 18.1 55.25 Q16.25 58.65 12.65 60.15 L11.8 58.4 10.6 59.8 Q8.25 62.45 5.15 63.6 L5.15 61.25 -2.9 67.9 -3.15 64.75 -10.5 69.4 -11.25 68.4 -11.2 66.5 -14.65 68.75 -15.1 68.45 -15.55 64.75 Q-17.95 67.0 -21.3 67.65 L-21.0 64.65 -25.05 67.05 -25.0 64.9 Q-24.8 60.7 -25.7 58.05 -26.1 61.45 -29.35 61.9 -27.4 59.5 -27.85 56.55 L-28.15 55.35 -27.2 52.9 -26.45 51.55 Q-25.3 54.35 -24.2 55.95 L-20.5 61.0 -18.4 59.85 Q-18.2 61.15 -17.05 61.4 L-16.25 61.2 -11.2 58.4 -9.45 60.95 -6.3 59.3 Q-4.4 60.0 -2.5 59.3 L-0.9 58.55 0.35 57.65 1.05 57.1 3.25 58.5 Q12.55 54.55 21.5 49.75 22.5 49.3 23.15 48.25 L26.55 42.35 27.35 42.1 29.9 35.7 30.5 36.0 30.55 35.85 Q31.25 29.7 32.6 26.1 L36.45 15.4 Q38.9 8.3 33.1 0.85 L30.3 1.7 30.95 0.9 30.6 0.25 Q28.25 -0.15 26.4 -1.35 L25.65 -2.15 25.5 -2.5 25.8 -4.05 26.7 -7.1 27.35 -8.6 20.35 -8.8 19.4 -9.55 19.6 -10.6 19.95 -11.6 20.4 -12.6 21.0 -13.5 15.6 -13.45 15.25 -15.5 9.05 -14.55 7.5 -15.8 Q6.5 -13.8 4.1 -13.95 2.4 -13.9 1.15 -15.2 L0.85 -15.5 Q-2.85 -13.7 -4.9 -17.25 -5.5 -18.35 -5.75 -19.55 L-6.35 -18.75 Q-9.05 -15.7 -12.85 -16.2 -13.6 -16.25 -14.3 -16.65 -18.35 -15.5 -22.25 -15.4 L-23.35 -15.3 -23.95 -16.35 -31.15 -11.95 -32.2 -12.4 -38.4 -12.75 -35.05 -17.05 -36.15 -17.45 -35.7 -18.6 -34.5 -20.65 -33.65 -21.55 -36.25 -22.45 -36.15 -23.0 -30.8 -26.15 -32.5 -27.9 -30.65 -29.1 Q-30.0 -32.2 -26.65 -33.1 L-21.3 -34.2 -21.8 -35.45 Q-21.15 -36.8 -19.8 -37.3 L-12.1 -39.4 -13.8 -41.3 Q-3.4 -42.35 7.2 -41.6 7.9 -42.35 9.0 -42.2 L10.15 -41.65 11.5 -41.1 11.55 -41.7 Q15.15 -42.5 17.6 -39.55 L19.55 -37.1 Q23.95 -38.6 27.2 -35.1 M41.15 -2.3 Q40.75 -2.8 41.45 -2.65 L41.15 -2.3 41.45 -2.65 Q40.75 -2.8 41.15 -2.3 M40.55 0.6 Q41.6 0.8 42.2 -0.1 42.75 -0.85 42.65 -1.65 42.6 -2.25 41.9 -2.55 L41.45 -2.65 41.5 -2.9 Q41.85 -4.3 41.2 -5.15 40.45 -6.15 38.85 -6.2 37.3 -6.25 36.8 -5.15 37.3 -6.25 38.85 -6.2 40.45 -6.15 41.2 -5.15 41.85 -4.3 41.5 -2.9 L41.45 -2.65 41.9 -2.55 Q42.6 -2.25 42.65 -1.65 42.75 -0.85 42.2 -0.1 41.6 0.8 40.55 0.6 M35.65 -12.65 Q36.55 -14.15 35.3 -15.7 33.8 -17.6 32.2 -16.1 L31.95 -15.8 32.05 -16.65 Q31.95 -18.1 31.05 -18.75 29.95 -19.55 28.3 -19.1 27.2 -18.8 26.2 -18.1 27.2 -18.8 28.3 -19.1 29.95 -19.55 31.05 -18.75 31.95 -18.1 32.05 -16.65 L31.95 -15.8 32.2 -16.1 Q33.8 -17.6 35.3 -15.7 36.55 -14.15 35.65 -12.65 M11.8 -20.1 L11.9 -20.6 11.8 -20.75 Q10.95 -21.85 9.7 -22.0 6.6 -22.3 6.35 -19.25 6.6 -22.3 9.7 -22.0 10.95 -21.85 11.8 -20.75 L11.9 -20.6 Q12.25 -22.6 14.2 -22.0 15.25 -21.7 15.7 -20.55 15.95 -19.8 15.8 -18.95 15.95 -19.8 15.7 -20.55 15.25 -21.7 14.2 -22.0 12.25 -22.6 11.9 -20.6 L11.8 -20.1 M10.05 -29.05 L10.1 -29.85 Q9.95 -30.75 9.25 -31.15 7.4 -32.25 6.6 -29.9 L6.3 -30.35 4.5 -31.45 Q2.1 -32.1 1.15 -29.6 L0.85 -29.9 -0.85 -31.45 Q-3.05 -32.7 -4.9 -30.75 -6.05 -29.5 -5.2 -28.75 -6.05 -29.5 -4.9 -30.75 -3.05 -32.7 -0.85 -31.45 L0.85 -29.9 1.15 -29.6 Q2.1 -32.1 4.5 -31.45 L6.3 -30.35 6.6 -29.9 Q7.4 -32.25 9.25 -31.15 9.95 -30.75 10.1 -29.85 L10.05 -29.05 M-6.6 -36.25 Q-7.15 -37.45 -8.35 -37.95 L-8.6 -37.4 Q-8.9 -36.65 -9.4 -36.15 L-9.8 -36.1 -12.35 -35.85 Q-14.6 -35.4 -14.4 -33.35 -14.9 -34.15 -15.85 -33.85 -17.55 -33.3 -19.05 -32.35 -20.15 -31.6 -20.5 -30.3 L-20.75 -28.05 -22.5 -28.7 -25.45 -28.35 Q-26.3 -28.0 -26.8 -27.15 -27.05 -26.7 -26.8 -26.25 -26.35 -25.3 -27.6 -25.3 L-28.4 -25.1 -29.9 -24.15 Q-31.8 -22.7 -31.05 -20.7 -31.8 -22.7 -29.9 -24.15 L-28.4 -25.1 -27.6 -25.3 Q-26.35 -25.3 -26.8 -26.25 -27.05 -26.7 -26.8 -27.15 -26.3 -28.0 -25.45 -28.35 L-22.5 -28.7 -20.75 -28.05 -20.5 -30.3 Q-20.15 -31.6 -19.05 -32.35 -17.55 -33.3 -15.85 -33.85 -14.9 -34.15 -14.4 -33.35 -14.6 -35.4 -12.35 -35.85 L-9.8 -36.1 -9.4 -36.15 Q-8.9 -36.65 -8.6 -37.4 L-8.35 -37.95 Q-7.15 -37.45 -6.6 -36.25" fill="url(#gradient0)" fill-rule="evenodd" stroke="none"/>
      <path d="M27.2 -35.1 Q23.95 -38.6 19.55 -37.1 L17.6 -39.55 Q15.15 -42.5 11.55 -41.7 L11.5 -41.1 10.15 -41.65 9.0 -42.2 Q7.9 -42.35 7.2 -41.6 -3.4 -42.35 -13.8 -41.3 L-12.1 -39.4 -19.8 -37.3 Q-21.15 -36.8 -21.8 -35.45 L-21.3 -34.2 -26.65 -33.1 Q-30.0 -32.2 -30.65 -29.1 L-32.5 -27.9 -30.8 -26.15 -36.15 -23.0 -36.25 -22.45 -33.65 -21.55 -34.5 -20.65 -35.7 -18.6 -36.15 -17.45 -35.05 -17.05 -38.4 -12.75 -32.2 -12.4 -31.15 -11.95 -23.95 -16.35 -23.35 -15.3 -22.25 -15.4 Q-18.35 -15.5 -14.3 -16.65 -13.6 -16.25 -12.85 -16.2 -9.05 -15.7 -6.35 -18.75 L-5.75 -19.55 Q-5.5 -18.35 -4.9 -17.25 -2.85 -13.7 0.85 -15.5 L1.15 -15.2 Q2.4 -13.9 4.1 -13.95 6.5 -13.8 7.5 -15.8 L9.05 -14.55 15.25 -15.5 15.6 -13.45 21.0 -13.5 20.4 -12.6 19.95 -11.6 19.6 -10.6 19.4 -9.55 20.35 -8.8 27.35 -8.6 26.7 -7.1 25.8 -4.05 25.5 -2.5 25.65 -2.15 26.4 -1.35 Q28.25 -0.15 30.6 0.25 L30.95 0.9 30.3 1.7 33.1 0.85 Q38.9 8.3 36.45 15.4 L32.6 26.1 Q31.25 29.7 30.55 35.85 L30.5 36.0 29.9 35.7 27.35 42.1 26.55 42.35 23.15 48.25 Q22.5 49.3 21.5 49.75 12.55 54.55 3.25 58.5 L1.05 57.1 0.35 57.65 -0.9 58.55 -2.5 59.3 Q-4.4 60.0 -6.3 59.3 L-9.45 60.95 -11.2 58.4 -16.25 61.2 -17.05 61.4 Q-18.2 61.15 -18.4 59.85 L-20.5 61.0 -24.2 55.95 Q-25.3 54.35 -26.45 51.55 L-27.2 52.9 -28.15 55.35 -27.85 56.55 Q-27.4 59.5 -29.35 61.9 -26.1 61.45 -25.7 58.05 -24.8 60.7 -25.0 64.9 L-25.05 67.05 -21.0 64.65 -21.3 67.65 Q-17.95 67.0 -15.55 64.75 L-15.1 68.45 -14.65 68.75 -11.2 66.5 -11.25 68.4 -10.5 69.4 -3.15 64.75 -2.9 67.9 5.15 61.25 5.15 63.6 Q8.25 62.45 10.6 59.8 L11.8 58.4 12.65 60.15 Q16.25 58.65 18.1 55.25 L19.75 56.9 24.45 52.4 25.05 53.8 27.05 49.8 27.9 50.35 Q28.8 48.25 30.45 46.55 L30.75 46.0 30.95 45.3 31.05 44.6 31.95 46.05 Q34.55 42.5 35.5 38.45 L35.6 38.25 34.5 31.1 35.1 30.25 34.8 27.05 37.7 26.5 37.45 26.0 37.15 24.9 Q37.0 23.3 38.5 22.45 L38.6 21.15 40.1 20.1 Q39.85 18.9 40.7 18.25 43.05 16.3 43.4 13.35 43.7 11.0 42.0 9.25 L42.6 9.15 43.35 8.7 Q44.7 7.55 44.0 5.9 L43.6 4.8 43.65 4.45 Q44.45 2.95 44.85 1.35 45.35 -0.7 43.45 -2.3 L45.05 -2.75 45.3 -3.1 Q45.75 -3.7 45.55 -4.45 44.6 -7.6 41.7 -8.9 L43.95 -10.05 44.05 -11.3 Q43.75 -15.35 39.6 -16.2 L38.7 -16.45 Q38.0 -20.95 35.65 -25.95 34.05 -29.4 29.9 -29.9 L30.95 -30.9 30.8 -31.25 30.2 -31.65 27.05 -33.05 27.9 -34.0 27.2 -35.1 M23.3 3.1 L28.55 2.6 28.9 2.75 M24.7 1.0 L29.05 1.35 M21.55 6.25 L28.2 5.65 Q29.4 5.6 29.55 6.25 M19.5 12.5 Q23.25 11.7 27.15 11.8 L28.55 11.8 M17.05 15.3 L27.15 14.95 27.5 14.95 M35.5 38.45 L35.6 38.4 35.6 38.25 M19.5 9.35 L28.9 8.9" fill="none" stroke="#000000" stroke-linecap="round" stroke-linejoin="round" stroke-width="2.0"/>
      <path d="M16.1 -32.2 Q15.8 -34.1 17.75 -33.7 18.7 -33.45 19.0 -32.55 19.3 -31.75 18.9 -30.8 L18.85 -30.6 Q20.25 -32.35 22.45 -32.35 23.3 -32.3 23.75 -31.65 L24.5 -30.4 24.9 -30.0 26.35 -28.65 26.75 -27.9 M-5.2 -28.75 Q-6.05 -29.5 -4.9 -30.75 -3.05 -32.7 -0.85 -31.45 L0.85 -29.9 1.15 -29.6 Q2.1 -32.1 4.5 -31.45 L6.3 -30.35 6.6 -29.9 Q7.4 -32.25 9.25 -31.15 9.95 -30.75 10.1 -29.85 L10.05 -29.05 M6.35 -19.25 Q6.6 -22.3 9.7 -22.0 10.95 -21.85 11.8 -20.75 L11.9 -20.6 Q12.25 -22.6 14.2 -22.0 15.25 -21.7 15.7 -20.55 15.95 -19.8 15.8 -18.95 M11.9 -20.6 L11.8 -20.1 M26.2 -18.1 Q27.2 -18.8 28.3 -19.1 29.95 -19.55 31.05 -18.75 31.95 -18.1 32.05 -16.65 L31.95 -15.8 32.2 -16.1 Q33.8 -17.6 35.3 -15.7 36.55 -14.15 35.65 -12.65 M36.8 -5.15 Q37.3 -6.25 38.85 -6.2 40.45 -6.15 41.2 -5.15 41.85 -4.3 41.5 -2.9 L41.45 -2.65 41.9 -2.55 Q42.6 -2.25 42.65 -1.65 42.75 -0.85 42.2 -0.1 41.6 0.8 40.55 0.6 M41.15 -2.3 L41.45 -2.65 Q40.75 -2.8 41.15 -2.3 M-31.05 -20.7 Q-31.8 -22.7 -29.9 -24.15 L-28.4 -25.1 -27.6 -25.3 Q-26.35 -25.3 -26.8 -26.25 -27.05 -26.7 -26.8 -27.15 -26.3 -28.0 -25.45 -28.35 L-22.5 -28.7 -20.75 -28.05 -20.5 -30.3 Q-20.15 -31.6 -19.05 -32.35 -17.55 -33.3 -15.85 -33.85 -14.9 -34.15 -14.4 -33.35 -14.6 -35.4 -12.35 -35.85 L-9.8 -36.1 -9.4 -36.15 Q-8.9 -36.65 -8.6 -37.4 L-8.35 -37.95 Q-7.15 -37.45 -6.6 -36.25" fill="none" stroke="#a06752" stroke-linecap="round" stroke-linejoin="round" stroke-width="1.5"/>
    </g>
    </g>
  </g>
  <defs>
    <radialGradient cx="0" cy="0" gradientTransform="matrix(0.0028, 0.1085, -0.1668, 0.0043, 1.0, -31.5)" gradientUnits="userSpaceOnUse" id="gradient0" r="819.2" spreadMethod="pad">
      <stop offset="0.0" stop-color="#3c1e00"/>
      <stop offset="0.3176470588235294" stop-color="#7c543f"/>
      <stop offset="1.0" stop-color="#482400"/>
    </radialGradient>
  </defs>
</svg>