<svg xmlns:xlink="http://www.w3.org/1999/xlink" xmlns="http://www.w3.org/2000/svg" height="141.1px" width="125.05px">
  <g transform="matrix(1.0, 0.0, 0.0, 1.0, 48.6, 54.85)">
    <g data-characterId="957" height="105.0" transform="matrix(1.0, 0.0, 0.0, 1.0, -38.25, -52.4)" width="76.6" xlink:href="#shape0"><g id="shape0" transform="matrix(1.0, 0.0, 0.0, 1.0, 38.25, 52.4)">
      <path d="M23.9 35.8 Q17.8 40.8 10.8 44.15 2.4 48.1 -6.4 51.0 -15.25 53.8 -23.35 49.45 -24.6 48.75 -25.25 47.45 -27.35 43.05 -29.1 38.15 L-32.85 27.6 Q-34.8 21.95 -36.85 14.2 -38.9 6.45 -36.15 -2.8 -35.3 -5.65 -36.45 -8.35 -37.6 -10.95 -37.4 -13.85 -37.15 -17.8 -35.9 -21.55 -35.15 -23.9 -34.75 -26.3 -33.15 -35.3 -27.1 -41.9 -24.85 -44.4 -22.3 -46.35 -14.3 -52.35 -4.05 -51.85 L3.05 -51.4 Q13.0 -50.35 21.15 -44.15 L26.95 -39.85 Q30.1 -37.45 32.1 -34.05 36.1 -27.25 37.2 -19.4 38.3 -11.8 37.55 -4.3 36.75 4.15 32.75 11.8 L31.15 11.1 32.65 12.05 30.05 16.25 28.55 16.75 Q30.4 24.75 26.85 32.3 L25.5 34.3 23.9 35.8 M31.45 -1.65 L31.45 -3.65 31.25 -4.55 Q30.35 -6.65 28.95 -5.15 L28.6 -4.6 Q28.05 -2.8 26.45 -2.15 28.05 -2.8 28.6 -4.6 L28.95 -5.15 Q30.35 -6.65 31.25 -4.55 L31.45 -3.65 31.45 -1.65 M24.55 -6.25 Q25.25 -11.35 29.75 -12.0 31.0 -11.5 32.15 -9.85 34.9 -6.15 34.2 -1.45 L34.15 -1.2 34.15 -1.0 Q33.65 2.0 32.65 4.9 32.1 6.6 31.7 8.7 L31.15 11.1 Q28.35 14.4 25.55 11.75 28.35 14.4 31.15 11.1 L31.7 8.7 Q32.1 6.6 32.65 4.9 33.65 2.0 34.15 -1.0 L34.15 -1.2 34.2 -1.45 Q34.9 -6.15 32.15 -9.85 31.0 -11.5 29.75 -12.0 25.25 -11.35 24.55 -6.25 M-16.1 20.5 Q-14.4 19.0 -15.05 16.85 -14.4 19.0 -16.1 20.5 M-26.05 -8.65 L-25.4 -8.2 Q-24.55 -7.45 -24.7 -3.55 -24.9 0.3 -27.1 5.65 -29.3 10.95 -29.55 13.65 -29.85 16.35 -27.15 18.4 -24.5 20.45 -20.05 19.35 -24.5 20.45 -27.15 18.4 -29.85 16.35 -29.55 13.65 -29.3 10.95 -27.1 5.65 -24.9 0.3 -24.7 -3.55 -24.55 -7.45 -25.4 -8.2 L-26.05 -8.65 M29.45 4.35 L29.45 3.85 29.45 1.35 29.45 3.85 29.45 4.35 M-26.2 18.55 L-26.25 18.55 -26.25 18.6 -26.2 18.55" fill="url(#gradient0)" fill-rule="evenodd" stroke="none"/>
      <path d="M32.65 12.05 L31.15 11.1 32.75 11.8 32.75 11.9 32.65 12.05" fill="url(#gradient1)" fill-rule="evenodd" stroke="none"/>
      <path d="M32.75 11.8 Q36.75 4.15 37.55 -4.3 38.3 -11.8 37.2 -19.4 36.1 -27.25 32.1 -34.05 30.1 -37.45 26.95 -39.85 L21.15 -44.15 Q13.0 -50.35 3.05 -51.4 L-4.05 -51.85 Q-14.3 -52.35 -22.3 -46.35 -24.85 -44.4 -27.1 -41.9 -33.15 -35.3 -34.75 -26.3 -35.15 -23.9 -35.9 -21.55 -37.15 -17.8 -37.4 -13.85 -37.6 -10.95 -36.45 -8.35 -35.3 -5.65 -36.15 -2.8 -38.9 6.45 -36.85 14.2 -34.8 21.95 -32.85 27.6 L-29.1 38.15 Q-27.35 43.05 -25.25 47.45 -24.6 48.75 -23.35 49.45 -15.25 53.8 -6.4 51.0 2.4 48.1 10.8 44.15 17.8 40.8 23.9 35.8 M30.05 16.25 L32.65 12.05 32.75 11.9 32.75 11.8 M31.15 11.1 Q28.35 14.4 25.55 11.75 M31.15 11.1 L31.7 8.7 Q32.1 6.6 32.65 4.9 33.65 2.0 34.15 -1.0 L34.15 -1.2 34.2 -1.45 Q34.9 -6.15 32.15 -9.85 31.0 -11.5 29.75 -12.0 25.25 -11.35 24.55 -6.25 M26.45 -2.15 Q28.05 -2.8 28.6 -4.6 L28.95 -5.15 Q30.35 -6.65 31.25 -4.55 L31.45 -3.65 31.45 -1.65 M29.45 1.35 L29.45 3.85 29.45 4.35 M-20.05 19.35 Q-24.5 20.45 -27.15 18.4 -29.85 16.35 -29.55 13.65 -29.3 10.95 -27.1 5.65 -24.9 0.3 -24.7 -3.55 -24.55 -7.45 -25.4 -8.2 L-26.05 -8.65 M-15.05 16.85 Q-14.4 19.0 -16.1 20.5" fill="none" stroke="#000000" stroke-linecap="round" stroke-linejoin="round" stroke-width="2.0"/>
      <path d="M23.9 35.8 L25.5 34.3 26.85 32.3 Q30.4 24.75 28.55 16.75" fill="none" stroke="#b9a882" stroke-linecap="round" stroke-linejoin="round" stroke-width="1.5"/>
    </g>
    </g>
  </g>
  <defs>
    <radialGradient cx="0" cy="0" gradientTransform="matrix(0.0543, 0.0, 0.0, 0.0824, -20.0, -3.0)" gradientUnits="userSpaceOnUse" id="gradient0" r="819.2" spreadMethod="pad">
      <stop offset="0.0" stop-color="#f1d0b1"/>
      <stop offset="0.6274509803921569" stop-color="#ecc59d"/>
      <stop offset="1.0" stop-color="#e9bb8f"/>
    </radialGradient>
    <radialGradient cx="0" cy="0" gradientTransform="matrix(0.0494, 0.0, 0.0, 0.0681, -16.0, 3.0)" gradientUnits="userSpaceOnUse" id="gradient1" r="819.2" spreadMethod="pad">
      <stop offset="0.0" stop-color="#f1d0b1"/>
      <stop offset="0.6274509803921569" stop-color="#ecc59d"/>
      <stop offset="1.0" stop-color="#e9bb8f"/>
    </radialGradient>
  </defs>
</svg>