<svg xmlns:xlink="http://www.w3.org/1999/xlink" xmlns="http://www.w3.org/2000/svg" height="264.15px" width="342.25px">
  <g transform="matrix(1.0, 0.0, 0.0, 1.0, 243.25, 83.7)">
    <g data-characterId="1183" height="106.5" transform="matrix(1.0, 0.0, 0.0, 1.0, -75.5, -47.85)" width="159.9" xlink:href="#shape0"><g id="shape0" transform="matrix(1.0, 0.0, 0.0, 1.0, 75.5, 47.85)">
      <path d="M33.4 -12.85 L34.05 -13.05 34.75 -10.25 36.0 -12.75 37.2 -11.4 38.25 -10.25 40.25 -13.0 40.75 -10.75 Q45.35 -8.35 44.1 -2.05 L43.75 0.25 44.5 1.0 Q40.5 4.7 46.55 10.35 L42.75 12.5 Q42.75 13.05 43.15 13.7 43.55 14.3 46.1 15.75 48.6 17.15 41.5 16.25 L43.0 27.5 Q35.15 21.2 32.25 36.25 L31.45 26.25 Q36.95 17.8 37.5 6.75 L33.8 0.9 Q28.9 2.45 26.25 7.4 L25.5 7.5 Q21.85 -1.0 21.65 -10.3 L22.15 -11.0 22.6 -11.85 Q23.25 -13.2 23.5 -14.75 L24.75 -11.75 26.5 -15.5 Q27.5 -13.9 28.8 -12.55 29.9 -11.3 30.25 -9.5 L31.5 -13.5 31.95 -13.05 32.25 -12.5 Q32.8 -11.55 32.75 -10.5 L33.4 -12.85" fill="url(#gradient0)" fill-rule="evenodd" stroke="none"/>
      <path d="M19.1 12.05 Q20.5 29.35 2.5 29.2 -3.5 28.4 -6.25 23.0 -9.4 16.7 -8.8 9.7 L-7.65 8.7 Q-6.65 7.95 -5.6 8.15 L-4.85 8.1 Q5.1 7.0 15.15 4.85 16.7 5.2 17.45 6.85 18.6 9.3 19.1 12.05 M-28.85 9.85 Q-23.0 6.95 -19.45 11.6 -19.2 24.6 -29.4 24.25 -33.9 24.95 -34.55 20.65 -35.65 13.3 -28.85 9.85" fill="#070000" fill-opacity="0.16078432" fill-rule="evenodd" stroke="none"/>
      <path d="M33.4 -12.85 L34.05 -13.05 34.75 -10.25 36.0 -12.75 37.2 -11.4 38.25 -10.25 40.25 -13.0 40.75 -10.75 Q45.35 -8.35 44.1 -2.05 L43.75 0.25 44.5 1.0 Q40.5 4.7 46.55 10.35 L42.75 12.5 Q42.75 13.05 43.15 13.7 43.55 14.3 46.1 15.75 48.6 17.15 41.5 16.25 L43.0 27.5 Q35.15 21.2 32.25 36.25 L31.45 26.25 Q36.95 17.8 37.5 6.75 L33.8 0.9 Q28.9 2.45 26.25 7.4 L25.5 7.5 Q21.85 -1.0 21.65 -10.3 L22.15 -11.0 22.6 -11.85 Q23.25 -13.2 23.5 -14.75 L24.75 -11.75 26.5 -15.5 Q27.5 -13.9 28.8 -12.55 29.9 -11.3 30.25 -9.5 L31.5 -13.5 31.95 -13.05 32.25 -12.5 Q32.8 -11.55 32.75 -10.5 L33.4 -12.85" fill="none" stroke="#000000" stroke-linecap="round" stroke-linejoin="round" stroke-width="2.0"/>
      <path d="M37.2 -11.4 L36.75 -13.65 Q35.7 -18.7 33.0 -23.25 M24.75 -11.75 Q25.5 -20.4 22.2 -26.9 18.85 -33.4 7.75 -38.25 M33.4 -12.85 L32.45 -17.15 Q29.05 -30.9 16.25 -35.25" fill="none" stroke="#683f35" stroke-linecap="round" stroke-linejoin="round" stroke-width="2.0"/>
      <path d="M21.85 33.4 L30.5 33.7 M24.75 29.35 Q25.9 28.5 28.2 28.5 L29.4 28.3 M23.0 38.55 L28.15 38.85 M-24.2 39.7 L-24.2 40.3 M-20.15 38.55 L-20.15 40.3 M-17.3 37.4 Q-17.0 38.8 -17.7 39.8 M-2.9 37.4 Q-1.95 37.3 -2.0 38.55 M-8.05 36.85 Q-7.35 38.75 -6.5 39.35 M-11.55 36.25 L-8.8 39.85 M-14.4 52.4 L-14.4 55.25 -14.4 55.85 M-12.7 51.8 L-12.7 54.1 -12.7 54.7 M-10.4 54.1 L-10.4 57.55 -10.4 58.15" fill="none" stroke="#3a2e1f" stroke-linecap="round" stroke-linejoin="round" stroke-width="2.0"/>
      <path d="M17.95 3.0 Q19.6 2.25 22.7 1.8 29.3 0.85 29.3 3.9 29.3 5.35 27.0 6.3 24.25 7.5 19.2 7.5 L19.15 7.5 Q17.05 7.5 16.35 6.3 16.05 5.8 16.05 4.95 16.05 3.8 17.95 3.0 M-10.1 7.75 L-13.8 8.0 Q-17.0 8.0 -18.2 7.3 L-18.7 6.9 -18.95 5.55 -18.9 5.2 Q-18.45 3.45 -13.75 3.25 -10.55 3.15 -9.3 4.1 -8.6 4.65 -8.6 5.6 -8.6 7.05 -9.6 7.55 L-10.1 7.75" fill="#000000" fill-rule="evenodd" stroke="none"/>
      <path d="M-9.3 4.1 Q-8.3 1.1 -5.9 -1.3 -1.6 -5.55 4.55 -5.55 7.2 -5.55 9.45 -4.75 11.1 -4.2 12.55 -3.2 L14.9 -1.3 Q16.85 0.65 17.95 3.0 16.05 3.8 16.05 4.95 16.05 5.8 16.35 6.3 17.05 7.5 19.15 7.5 L19.2 9.1 Q19.2 15.2 14.9 19.45 10.65 23.75 4.55 23.75 -1.6 23.75 -5.9 19.45 -10.15 15.2 -10.15 9.1 L-10.1 7.75 -9.6 7.55 Q-8.6 7.05 -8.6 5.6 -8.6 4.65 -9.3 4.1 M-7.5 16.8 L12.55 -3.2 -7.5 16.8 M-8.65 13.35 L9.45 -4.75 -8.65 13.35 M14.95 5.3 L-1.15 21.4 14.95 5.3" fill="url(#gradient1)" fill-rule="evenodd" stroke="none"/>
      <path d="M-18.2 7.3 L-18.05 8.45 -18.05 8.6 -18.0 9.6 Q-18.0 14.25 -21.35 17.55 -24.65 20.85 -29.25 20.85 L-30.25 20.8 Q-32.85 20.6 -35.0 19.3 L-37.2 17.55 Q-40.05 14.7 -40.45 10.85 L-40.5 9.6 Q-40.5 5.0 -37.2 1.65 -33.85 -1.65 -29.25 -1.65 L-28.0 -1.6 Q-24.2 -1.2 -21.35 1.65 -20.3 2.7 -19.55 3.9 L-18.9 5.2 -18.95 5.55 -18.7 6.9 -18.2 7.3 M-30.25 20.8 L-18.05 8.6 -30.25 20.8 M-35.0 19.3 L-19.55 3.9 -35.0 19.3 M-28.0 -1.6 L-40.45 10.85 -28.0 -1.6" fill="url(#gradient2)" fill-rule="evenodd" stroke="none"/>
      <path d="M-18.2 7.3 L-18.05 8.45" fill="none" stroke="#000000" stroke-linecap="round" stroke-linejoin="round" stroke-width="2.0"/>
      <path d="M-18.05 8.45 L-18.05 8.6 -30.25 20.8 M-19.55 3.9 L-35.0 19.3 M-40.45 10.85 L-28.0 -1.6 M-1.15 21.4 L14.95 5.3 M9.45 -4.75 L-8.65 13.35 M12.55 -3.2 L-7.5 16.8" fill="none" stroke="#ffffff" stroke-linecap="round" stroke-linejoin="round" stroke-width="2.0"/>
      <path d="M-9.3 4.1 Q-8.3 1.1 -5.9 -1.3 -1.6 -5.55 4.55 -5.55 7.2 -5.55 9.45 -4.75 11.1 -4.2 12.55 -3.2 L14.9 -1.3 Q16.85 0.65 17.95 3.0 M-18.05 8.6 L-18.0 9.6 Q-18.0 14.25 -21.35 17.55 -24.65 20.85 -29.25 20.85 L-30.25 20.8 Q-32.85 20.6 -35.0 19.3 L-37.2 17.55 Q-40.05 14.7 -40.45 10.85 L-40.5 9.6 Q-40.5 5.0 -37.2 1.65 -33.85 -1.65 -29.25 -1.65 L-28.0 -1.6 Q-24.2 -1.2 -21.35 1.65 -20.3 2.7 -19.55 3.9 L-18.9 5.2 M19.15 7.5 L19.2 9.1 Q19.2 15.2 14.9 19.45 10.65 23.75 4.55 23.75 -1.6 23.75 -5.9 19.45 -10.15 15.2 -10.15 9.1 L-10.1 7.75" fill="none" stroke="#000000" stroke-linecap="round" stroke-linejoin="round" stroke-width="2.0"/>
      <path d="M41.3 -40.85 Q38.65 -38.5 33.85 -36.5 L32.95 -36.1 Q54.05 -26.1 65.55 -12.25 L55.75 -10.8 Q36.2 -8.25 4.55 -9.75 L1.2 -9.95 Q-32.85 -11.9 -51.3 -17.55 -69.75 -23.15 -73.65 -29.05 -69.75 -23.15 -51.3 -17.55 -32.85 -11.9 1.2 -9.95 L4.55 -9.75 5.05 -32.05 Q-8.15 -32.45 -17.75 -36.5 L-19.2 -37.15 Q-39.05 -31.3 -54.95 -19.5 -39.05 -31.3 -19.2 -37.15 L-17.75 -36.5 Q-8.15 -32.45 5.05 -32.05 L4.55 -9.75 Q36.2 -8.25 55.75 -10.8 L65.55 -12.25 Q54.05 -26.1 32.95 -36.1 22.5 -32.0 8.05 -32.0 L5.05 -32.05 8.05 -32.0 Q22.5 -32.0 32.95 -36.1 L33.85 -36.5 Q38.65 -38.5 41.3 -40.85 47.85 -38.45 54.0 -35.05 75.35 -23.35 81.45 -16.9 83.45 -14.2 83.85 -12.1 85.15 -4.65 60.7 -1.6 36.15 1.5 2.5 0.15 -31.15 -1.25 -54.2 -8.15 -77.25 -15.1 -74.75 -26.2 -74.4 -27.65 -73.65 -29.05 -68.4 -36.9 -43.55 -42.45 -35.9 -44.15 -28.15 -45.25 -10.8 -47.75 7.0 -47.3 25.25 -46.9 41.3 -40.85 M4.55 -9.5 L4.55 -9.75 4.55 -9.5 M-19.2 -37.15 Q-26.85 -40.65 -28.15 -45.25 -26.85 -40.65 -19.2 -37.15 M65.55 -12.25 Q77.7 -14.35 81.45 -16.9 77.7 -14.35 65.55 -12.25" fill="url(#gradient3)" fill-rule="evenodd" stroke="none"/>
      <path d="M-73.65 -29.05 Q-69.75 -23.15 -51.3 -17.55 -32.85 -11.9 1.2 -9.95 L4.55 -9.75 5.05 -32.05 Q-8.15 -32.45 -17.75 -36.5 L-19.2 -37.15 Q-39.05 -31.3 -54.95 -19.5 M4.55 -9.75 Q36.2 -8.25 55.75 -10.8 L65.55 -12.25 Q54.05 -26.1 32.95 -36.1 22.5 -32.0 8.05 -32.0 L5.05 -32.05 M4.55 -9.75 L4.55 -9.5 M32.95 -36.1 L33.85 -36.5 Q38.65 -38.5 41.3 -40.85 M-28.15 -45.25 Q-26.85 -40.65 -19.2 -37.15 M81.45 -16.9 Q77.7 -14.35 65.55 -12.25" fill="none" stroke="#333333" stroke-linecap="round" stroke-linejoin="round" stroke-width="2.0"/>
      <path d="M41.3 -40.85 Q25.25 -46.9 7.0 -47.3 -10.8 -47.75 -28.15 -45.25 -35.9 -44.15 -43.55 -42.45 -68.4 -36.9 -73.65 -29.05 -74.4 -27.65 -74.75 -26.2 -77.25 -15.1 -54.2 -8.15 -31.15 -1.25 2.5 0.15 36.15 1.5 60.7 -1.6 85.15 -4.65 83.85 -12.1 83.45 -14.2 81.45 -16.9 75.35 -23.35 54.0 -35.05 47.85 -38.45 41.3 -40.85 Z" fill="none" stroke="#000000" stroke-linecap="round" stroke-linejoin="round" stroke-width="2.0"/>
      <path d="M32.25 -4.2 L38.25 -4.4 M20.35 -4.2 L26.3 -4.15 M8.45 -4.6 L14.4 -4.35 M-3.6 -5.25 L1.2 -4.95 2.5 -4.85 M67.25 -7.55 L73.0 -8.75 M55.75 -5.8 L61.4 -6.6 M44.25 -4.7 L50.25 -5.15 M78.6 -10.45 Q80.35 -11.15 81.45 -11.9 M-52.2 -12.85 L-51.3 -12.55 -45.9 -11.05 M-63.55 -17.0 Q-61.0 -15.85 -57.9 -14.75 M-73.65 -24.05 Q-72.25 -21.95 -69.0 -19.9 M-15.7 -6.3 L-9.65 -5.75 M-27.85 -7.7 L-21.75 -6.95 M-39.9 -9.7 L-33.95 -8.65" fill="none" stroke="#cccccc" stroke-linecap="round" stroke-linejoin="round" stroke-width="2.0"/>
    </g>
    </g>
  </g>
  <defs>
    <radialGradient cx="0" cy="0" gradientTransform="matrix(0.0028, 0.1085, -0.1668, 0.0043, 1.0, -31.5)" gradientUnits="userSpaceOnUse" id="gradient0" r="819.2" spreadMethod="pad">
      <stop offset="0.0" stop-color="#3c1e00"/>
      <stop offset="0.20392156862745098" stop-color="#654028"/>
      <stop offset="0.3176470588235294" stop-color="#aa8560"/>
      <stop offset="0.43137254901960786" stop-color="#744d35"/>
      <stop offset="1.0" stop-color="#482400"/>
    </radialGradient>
    <radialGradient cx="0" cy="0" gradientTransform="matrix(0.0184, 0.0, 0.0, 0.0184, 0.0, 6.9)" gradientUnits="userSpaceOnUse" id="gradient1" r="819.2" spreadMethod="pad">
      <stop offset="0.1450980392156863" stop-color="#eeeeee"/>
      <stop offset="0.396078431372549" stop-color="#b7b7b7"/>
      <stop offset="1.0" stop-color="#7b7b7b"/>
    </radialGradient>
    <radialGradient cx="0" cy="0" gradientTransform="matrix(0.0147, 0.0, 0.0, 0.0147, -33.9, 5.5)" gradientUnits="userSpaceOnUse" id="gradient2" r="819.2" spreadMethod="pad">
      <stop offset="0.1450980392156863" stop-color="#eeeeee"/>
      <stop offset="0.396078431372549" stop-color="#b7b7b7"/>
      <stop offset="1.0" stop-color="#7b7b7b"/>
    </radialGradient>
    <radialGradient cx="0" cy="0" gradientTransform="matrix(0.1076, 0.008, -0.0052, 0.0764, 0.3, -38.95)" gradientUnits="userSpaceOnUse" id="gradient3" r="819.2" spreadMethod="pad">
      <stop offset="0.1450980392156863" stop-color="#eeeeee"/>
      <stop offset="0.396078431372549" stop-color="#b7b7b7"/>
      <stop offset="1.0" stop-color="#7b7b7b"/>
    </radialGradient>
  </defs>
</svg>