<svg xmlns:xlink="http://www.w3.org/1999/xlink" xmlns="http://www.w3.org/2000/svg" height="119.1px" width="213.05px">
  <g transform="matrix(1.0, 0.0, 0.0, 1.0, 94.65, 81.2)">
    <g data-characterId="894" height="36.4" transform="matrix(1.0, 0.0, 0.0, 1.0, -59.0, -22.5)" width="117.0" xlink:href="#shape0"><g id="shape0" transform="matrix(1.0, 0.0, 0.0, 1.0, 59.0, 22.5)">
      <path d="M24.0 -14.0 L23.5 -13.5 Q22.65 -12.85 21.6 -12.3 L20.4 -11.65 Q19.75 -11.25 19.0 -11.0 14.1 -9.2 9.0 -7.95 L-0.55 -5.75 Q-5.35 -4.65 -7.5 0.0 -5.35 -4.65 -0.55 -5.75 L9.0 -7.95 Q14.1 -9.2 19.0 -11.0 19.75 -11.25 20.4 -11.65 L21.6 -12.3 Q22.65 -12.85 23.5 -13.5 L24.0 -14.0 M28.5 -22.0 L28.5 -19.5 Q28.85 -15.9 32.0 -15.8 45.2 -15.35 54.0 -7.6 61.5 -1.0 53.0 3.65 27.05 17.9 -2.6 11.3 -6.3 10.35 -10.1 10.75 -33.95 11.8 -56.45 5.55 -58.9 4.8 -58.4 -3.6 -57.9 -12.0 -42.5 -12.85 -27.1 -13.7 -21.55 -20.5 L-18.5 -19.3 Q5.35 -9.25 28.0 -22.5 L28.5 -22.0 M-27.9 -13.6 Q-26.05 -10.9 -26.5 -7.5 -26.05 -10.9 -27.9 -13.6" fill="#d9a166" fill-rule="evenodd" stroke="none"/>
      <path d="M-21.55 -20.5 Q-27.1 -13.7 -42.5 -12.85 -57.9 -12.0 -58.4 -3.6 -58.9 4.8 -56.45 5.55 -33.95 11.8 -10.1 10.75 -6.3 10.35 -2.6 11.3 27.05 17.9 53.0 3.65 61.5 -1.0 54.0 -7.6 45.2 -15.35 32.0 -15.8 28.85 -15.9 28.5 -19.5 L28.5 -22.0" fill="none" stroke="#000000" stroke-linecap="round" stroke-linejoin="round" stroke-width="2.0"/>
      <path d="M-7.5 0.0 Q-5.35 -4.65 -0.55 -5.75 L9.0 -7.95 Q14.1 -9.2 19.0 -11.0 19.75 -11.25 20.4 -11.65 L21.6 -12.3 Q22.65 -12.85 23.5 -13.5 L24.0 -14.0 M-26.5 -7.5 Q-26.05 -10.9 -27.9 -13.6" fill="none" stroke="#c08456" stroke-linecap="round" stroke-linejoin="round" stroke-width="2.0"/>
    </g>
  </g>
  </g>
  <defs>
    </defs>
</svg>