<svg xmlns:xlink="http://www.w3.org/1999/xlink" xmlns="http://www.w3.org/2000/svg" height="119.1px" width="213.05px">
  <g transform="matrix(1.0, 0.0, 0.0, 1.0, 94.65, 81.2)">
    <g data-characterId="885" height="77.5" transform="matrix(1.0, 0.0, 0.0, 1.0, -60.25, -54.0)" width="131.2" xlink:href="#shape0"><g id="shape0" transform="matrix(1.0, 0.0, 0.0, 1.0, 60.25, 54.0)">
      <path d="M-28.7 -38.95 L-26.5 -38.3 -19.35 -37.9 -21.85 -15.95 Q-20.25 -13.9 -16.65 -13.0 -10.6 -11.75 -4.9 -13.45 L-7.75 -4.0 -8.55 -3.35 -7.75 -4.0 -8.0 -3.25 -8.55 -3.35 -10.9 -4.35 Q-19.8 -8.1 -24.2 -16.7 L-24.25 -16.7 -25.85 -21.4 Q-28.5 -30.0 -28.7 -38.95 M27.0 -42.4 L26.25 -50.0 26.35 -51.3 Q30.05 -47.9 27.55 -43.25 L27.0 -42.4" fill="#003e55" fill-rule="evenodd" stroke="none"/>
      <path d="M-19.25 16.85 L-19.45 16.8 -19.3 16.75 -19.25 16.85" fill="#006699" fill-rule="evenodd" stroke="none"/>
      <path d="M26.35 -51.3 L26.0 -53.5 Q35.55 -50.75 33.3 -38.95 30.9 -26.25 34.9 -14.0 L25.95 12.0 25.4 13.6 25.45 13.6 22.35 22.1 5.15 21.15 4.4 20.55 -3.5 19.0 -3.4 18.5 -19.25 16.85 -19.3 16.75 Q-22.3 12.75 -24.65 8.45 -29.4 -0.15 -31.55 -10.0 L-33.9 -19.3 Q-28.3 -27.7 -32.35 -39.5 L-32.3 -39.85 Q-31.2 -40.8 -29.75 -40.05 L-29.15 -39.6 -28.7 -38.95 Q-28.5 -30.0 -25.85 -21.4 L-24.25 -16.7 -24.2 -16.7 Q-19.8 -8.1 -10.9 -4.35 L-8.55 -3.35 -8.0 -3.25 -7.75 -4.0 -4.9 -13.45 Q12.3 -25.0 25.75 -40.65 L27.0 -42.4 27.55 -43.25 Q30.05 -47.9 26.35 -51.3 M51.65 -7.9 Q58.3 -6.8 63.5 -2.65 69.45 2.05 70.3 8.45 70.85 12.4 69.45 17.0 L66.85 17.8 Q57.8 20.9 48.4 22.05 49.75 15.25 50.55 8.45 L51.4 -1.45 51.6 -7.65 51.65 -7.9 M-38.55 14.3 Q-47.3 11.95 -55.95 10.7 -58.45 10.45 -59.05 8.45 L-59.25 7.5 -59.6 2.15 -59.7 0.75 Q-60.1 -5.75 -56.9 -10.95 L-55.7 -12.1 Q-53.05 -13.65 -50.15 -14.65 -50.6 -13.25 -50.1 -11.95 L-46.5 -2.1 Q-44.5 3.35 -41.85 8.45 L-38.55 14.3 M-2.25 2.25 Q0.0 1.35 2.35 0.8 20.55 -2.35 32.2 -15.3 20.55 -2.35 2.35 0.8 0.0 1.35 -2.25 2.25 M-15.0 0.5 L-8.55 -3.35 -15.0 0.5" fill="url(#gradient0)" fill-rule="evenodd" stroke="none"/>
      <path d="M34.9 -14.0 L51.05 -8.0 51.6 -7.65 51.4 -1.45 50.55 8.45 Q49.75 15.25 48.4 22.05 L27.55 22.7 22.35 22.1 25.45 13.6 25.45 13.55 25.4 13.6 25.95 12.0 34.9 -14.0 M-19.45 16.8 L-19.6 16.8 Q-29.15 16.5 -38.55 14.3 L-41.85 8.45 Q-44.5 3.35 -46.5 -2.1 L-50.1 -11.95 -49.7 -14.9 Q-42.25 -18.35 -33.9 -19.3 L-31.55 -10.0 Q-29.4 -0.15 -24.65 8.45 -22.3 12.75 -19.3 16.75 L-19.45 16.8 M25.45 13.55 L25.95 12.0 25.45 13.55" fill="url(#gradient1)" fill-rule="evenodd" stroke="none"/>
      <path d="M26.35 -51.3 L26.0 -53.5 Q35.55 -50.75 33.3 -38.95 30.9 -26.25 34.9 -14.0 L51.05 -8.0 51.65 -7.9 Q58.3 -6.8 63.5 -2.65 69.45 2.05 70.3 8.45 70.85 12.4 69.45 17.0 L66.85 17.8 Q57.8 20.9 48.4 22.05 L27.55 22.7 22.35 22.1 5.15 21.15 4.4 20.55 -3.5 19.0 M-3.4 18.5 L-19.25 16.85 -19.45 16.8 -19.6 16.8 Q-29.15 16.5 -38.55 14.3 -47.3 11.95 -55.95 10.7 -58.45 10.45 -59.05 8.45 L-59.25 7.5 -59.6 2.15 -59.7 0.75 Q-60.1 -5.75 -56.9 -10.95 L-55.7 -12.1 Q-53.05 -13.65 -50.15 -14.65 L-49.7 -14.9 Q-42.25 -18.35 -33.9 -19.3 -28.3 -27.7 -32.35 -39.5 L-32.3 -39.85 Q-31.2 -40.8 -29.75 -40.05 L-29.15 -39.6 -28.7 -38.95 -26.5 -38.3 -19.35 -37.9 -21.85 -15.95 Q-20.25 -13.9 -16.65 -13.0 -10.6 -11.75 -4.9 -13.45 12.3 -25.0 25.75 -40.65 L27.0 -42.4 26.25 -50.0 M26.35 -51.3 Q30.05 -47.9 27.55 -43.25 L27.0 -42.4 M51.6 -7.65 L51.4 -1.45 50.55 8.45 Q49.75 15.25 48.4 22.05 M51.6 -7.65 L51.05 -8.0 M25.95 12.0 L25.45 13.55 25.45 13.6 22.35 22.1 M25.45 13.55 L25.4 13.6 25.95 12.0 34.9 -14.0 M32.2 -15.3 Q20.55 -2.35 2.35 0.8 0.0 1.35 -2.25 2.25 M-50.1 -11.95 Q-50.6 -13.25 -50.15 -14.65 M-38.55 14.3 L-41.85 8.45 Q-44.5 3.35 -46.5 -2.1 L-50.1 -11.95 M-19.3 16.75 Q-22.3 12.75 -24.65 8.45 -29.4 -0.15 -31.55 -10.0 L-33.9 -19.3 M-24.2 -16.7 Q-19.8 -8.1 -10.9 -4.35 L-8.55 -3.35 -7.75 -4.0 -4.9 -13.45 M-24.25 -16.7 L-25.85 -21.4 Q-28.5 -30.0 -28.7 -38.95 M-24.2 -16.7 L-24.25 -16.7 M-8.0 -3.25 L-8.55 -3.35 -15.0 0.5 M-19.25 16.85 L-19.3 16.75" fill="none" stroke="#000000" stroke-linecap="round" stroke-linejoin="round" stroke-width="2.0"/>
    </g>
    </g>
  </g>
  <defs>
    <linearGradient gradientTransform="matrix(-0.004, -0.0418, 0.0441, -0.0043, 0.45, -17.2)" gradientUnits="userSpaceOnUse" id="gradient0" spreadMethod="pad" x1="-819.2" x2="819.2">
      <stop offset="0.0" stop-color="#006699"/>
      <stop offset="1.0" stop-color="#018cc0"/>
    </linearGradient>
    <linearGradient gradientTransform="matrix(0.0012, -0.0188, 0.022, 0.0014, -34.7, -1.25)" gradientUnits="userSpaceOnUse" id="gradient1" spreadMethod="pad" x1="-819.2" x2="819.2">
      <stop offset="0.0" stop-color="#669999"/>
      <stop offset="1.0" stop-color="#9abab9"/>
    </linearGradient>
  </defs>
</svg>