<svg xmlns:xlink="http://www.w3.org/1999/xlink" xmlns="http://www.w3.org/2000/svg" height="6.15px" width="21.3px">
  <g transform="matrix(1.0, 0.0, 0.0, 1.0, 7.95, 1.9)">
    <path d="M3.35 -0.05 L3.95 -0.15 3.35 -0.15 3.35 -0.05 M9.45 1.0 L13.35 4.25 -7.95 3.5 -7.05 -0.65 -4.6 -1.4 Q2.6 -3.05 9.3 0.7 L9.15 0.9 9.45 1.0 M-1.95 0.75 L4.0 1.2 Q6.5 1.2 8.7 2.85 L9.15 2.1 8.7 2.85 Q6.5 1.2 4.0 1.2 L-1.95 0.75" fill="#ffffff" fill-rule="evenodd" stroke="none"/>
    <path d="M9.15 0.9 L9.3 0.7 Q2.6 -3.05 -4.6 -1.4 L-7.05 -0.65 -7.95 3.5 13.35 4.25 9.45 1.0 9.3 0.7" fill="none" stroke="#000000" stroke-linecap="round" stroke-linejoin="round" stroke-width="1.5"/>
    <path d="M9.15 2.1 L8.7 2.85 Q6.5 1.2 4.0 1.2 L-1.95 0.75" fill="none" stroke="#999999" stroke-linecap="round" stroke-linejoin="round" stroke-width="1.5"/>
  </g>
</svg>