<svg xmlns:xlink="http://www.w3.org/1999/xlink" xmlns="http://www.w3.org/2000/svg" height="264.15px" width="342.25px">
  <g transform="matrix(1.0, 0.0, 0.0, 1.0, 243.25, 83.7)">
    <g data-characterId="1124" height="124.1" transform="matrix(1.0, 0.0, 0.0, 1.0, -36.75, -46.35)" width="90.25" xlink:href="#shape0"><g id="shape0" transform="matrix(1.0, 0.0, 0.0, 1.0, 36.75, 46.35)">
      <path d="M30.5 -12.0 L28.4 -11.7 Q13.95 -11.75 5.5 -23.0 13.95 -11.75 28.4 -11.7 L30.5 -12.0 M42.5 -9.0 L43.05 -9.0 Q44.05 12.15 39.1 32.4 L37.55 38.2 36.9 38.05 36.5 31.0 Q36.2 34.4 35.4 37.65 34.55 40.9 33.2 44.0 L31.7 43.9 Q31.8 34.4 34.15 25.1 L34.25 24.95 34.6 24.55 Q34.6 22.25 35.5 20.35 39.1 13.0 36.0 5.8 32.9 -1.4 27.75 6.4 L25.6 6.5 25.25 6.05 Q22.15 5.8 19.3 4.85 -1.1 -2.05 -14.6 -18.95 L-16.7 -21.65 -17.75 -23.15 -19.0 -24.0 -21.35 -21.5 Q-27.2 -13.85 -34.25 -7.55 L-36.05 -7.55 Q-38.35 -31.35 -14.4 -43.3 -10.1 -45.45 -5.2 -45.85 L-4.35 -44.6 -3.3 -43.6 -2.25 -43.05 -1.95 -42.95 Q21.15 -51.3 34.4 -28.75 39.85 -19.45 42.5 -9.0 M43.1 44.8 L44.0 45.0 Q59.3 57.85 49.95 77.2 L49.5 77.75 Q30.2 72.9 33.0 52.5 L33.35 52.45 33.45 52.9 34.5 53.35 Q42.5 49.9 43.1 44.8 M-16.0 -27.0 L-11.15 -29.45 -12.5 -32.0 -10.95 -32.45 -8.7 -32.75 Q-7.7 -32.95 -7.35 -33.95 L-7.4 -34.4 -7.5 -34.9 Q-7.95 -36.15 -9.35 -36.35 L-10.0 -36.5 -9.05 -36.9 Q-7.0 -36.55 -4.85 -37.3 -3.95 -37.5 -3.3 -38.3 L-3.5 -40.5 -3.3 -38.3 Q-3.95 -37.5 -4.85 -37.3 -7.0 -36.55 -9.05 -36.9 L-10.0 -36.5 -9.35 -36.35 Q-7.95 -36.15 -7.5 -34.9 L-7.4 -34.4 -7.35 -33.95 Q-7.7 -32.95 -8.7 -32.75 L-10.95 -32.45 -12.5 -32.0 -11.15 -29.45 -16.0 -27.0 M30.25 -2.65 Q9.6 -3.8 -1.5 -21.0 9.6 -3.8 30.25 -2.65" fill="url(#gradient0)" fill-rule="evenodd" stroke="none"/>
      <path d="M-36.05 -7.4 L-34.25 -7.55 -34.4 -3.45 -35.5 -3.5 -36.05 -7.4" fill="#000000" fill-rule="evenodd" stroke="none"/>
      <path d="M-34.25 -7.55 L-36.05 -7.4 -36.05 -7.55 -34.25 -7.55" fill="#333333" fill-rule="evenodd" stroke="none"/>
      <path d="M33.35 52.45 L31.95 45.35 Q32.8 44.95 33.2 44.0 34.55 40.9 35.4 37.65 36.2 34.4 36.5 31.0 L36.9 38.05 37.0 40.0 37.55 38.2 39.1 32.4 39.5 32.5 Q39.35 35.25 40.9 37.6 43.45 41.55 43.1 44.8 42.5 49.9 34.5 53.35 L33.45 52.9 33.35 52.45" fill="#3399cc" fill-rule="evenodd" stroke="none"/>
      <path d="M5.5 -23.0 Q13.95 -11.75 28.4 -11.7 L30.5 -12.0 M43.05 -9.0 L43.0 -10.0 M-36.05 -7.55 Q-38.35 -31.35 -14.4 -43.3 -10.1 -45.45 -5.2 -45.85 L-4.35 -44.6 -3.3 -43.6 -2.25 -43.05 -1.95 -42.95 Q21.15 -51.3 34.4 -28.75 39.85 -19.45 42.5 -9.0 M31.95 45.35 L31.5 45.5 31.7 44.2 31.7 43.9 Q31.8 34.4 34.15 25.1 M34.25 24.95 L34.6 24.55 M-16.7 -21.65 L-14.8 -18.85 Q-10.7 -12.4 -10.5 -4.4 L-10.5 -2.0 M36.9 38.05 L37.0 40.0 37.55 38.2 39.1 32.4 Q44.05 12.15 43.05 -9.0 M33.2 44.0 Q32.8 44.95 31.95 45.35 M36.9 38.05 L36.5 31.0 Q36.2 34.4 35.4 37.65 34.55 40.9 33.2 44.0 M-3.5 -40.5 L-3.3 -38.3 Q-3.95 -37.5 -4.85 -37.3 -7.0 -36.55 -9.05 -36.9 L-10.0 -36.5 -9.35 -36.35 Q-7.95 -36.15 -7.5 -34.9 L-7.4 -34.4 -7.35 -33.95 Q-7.7 -32.95 -8.7 -32.75 L-10.95 -32.45 -12.5 -32.0 -11.15 -29.45 -16.0 -27.0 M-36.05 -7.4 L-35.5 -3.5 M-34.4 -3.45 L-34.25 -7.55 Q-27.2 -13.85 -21.35 -21.5 L-19.0 -24.0 M-17.75 -23.15 L-16.7 -21.65 M-36.05 -7.4 L-36.05 -7.55 M-34.4 -3.45 L-34.5 -2.0 M-1.5 -21.0 Q9.6 -3.8 30.25 -2.65" fill="none" stroke="#000000" stroke-linecap="round" stroke-linejoin="round" stroke-width="2.0"/>
      <path d="M34.15 25.1 L34.25 24.95 M34.6 24.55 Q34.6 22.25 35.5 20.35 39.1 13.0 36.0 5.8 32.9 -1.4 27.75 6.4 L25.6 6.5 25.25 6.05 Q22.15 5.8 19.3 4.85 -1.1 -2.05 -14.6 -18.95 L-16.7 -21.65" fill="none" stroke="#000000" stroke-linecap="round" stroke-linejoin="round" stroke-width="2.0"/>
      <path d="M44.0 45.0 Q59.3 57.85 49.95 77.2 L49.5 77.75 Q30.2 72.9 33.0 52.5 M33.35 52.45 L31.95 45.35 M39.5 32.5 Q39.35 35.25 40.9 37.6 43.45 41.55 43.1 44.8 42.5 49.9 34.5 53.35 L33.45 52.9 33.35 52.45" fill="none" stroke="#000000" stroke-linecap="round" stroke-linejoin="round" stroke-width="1.5"/>
    </g>
    </g>
  </g>
  <defs>
    <radialGradient cx="0" cy="0" gradientTransform="matrix(0.0, 0.0592, -0.0954, 0.0, 1.0, -32.5)" gradientUnits="userSpaceOnUse" id="gradient0" r="819.2" spreadMethod="pad">
      <stop offset="0.0" stop-color="#000000"/>
      <stop offset="0.5372549019607843" stop-color="#303030"/>
      <stop offset="1.0" stop-color="#000000"/>
    </radialGradient>
  </defs>
</svg>