<svg xmlns:xlink="http://www.w3.org/1999/xlink" xmlns="http://www.w3.org/2000/svg" height="119.1px" width="213.05px">
  <g transform="matrix(1.0, 0.0, 0.0, 1.0, 94.65, 81.2)">
    <g data-characterId="912" height="86.8" transform="matrix(1.0, 0.0, 0.0, 1.0, -64.2, -63.15)" width="138.7" xlink:href="#shape0"><g id="shape0" transform="matrix(1.0, 0.0, 0.0, 1.0, 64.2, 63.15)">
      <path d="M44.55 -28.85 L44.55 -11.8 Q51.0 -10.9 56.8 -8.85 L69.3 -4.55 72.35 -4.05 72.05 -1.95 74.0 15.85 62.65 15.85 49.75 17.95 37.05 20.45 Q17.4 24.05 -2.35 23.15 -1.25 15.7 -3.35 11.65 L-3.65 11.1 -10.1 10.4 -9.6 5.25 -3.5 3.95 -4.25 -1.75 Q-6.85 -1.4 -9.25 -2.4 -10.15 -2.75 -10.85 -3.5 L-9.6 -8.0 -3.55 -6.85 Q-2.8 -7.4 -2.85 -8.3 -2.9 -10.85 -4.35 -12.95 L0.6 -16.15 2.95 -10.5 Q5.15 -11.4 5.9 -13.6 6.9 -16.3 5.2 -18.45 6.2 -19.4 7.5 -19.85 10.0 -20.65 12.15 -19.35 12.55 -17.45 13.6 -16.0 15.4 -13.6 17.8 -15.75 18.7 -17.85 18.05 -20.25 17.7 -21.4 16.7 -22.45 L23.0 -26.5 24.85 -19.1 Q28.0 -17.7 29.0 -21.05 30.0 -24.4 30.4 -28.35 L37.0 -29.05 38.75 -25.4 39.95 -25.3 44.55 -28.85 M-19.55 21.5 Q-23.8 20.95 -27.8 21.3 -39.6 22.75 -48.3 20.65 -56.7 18.6 -63.7 12.85 -62.75 3.9 -63.2 -4.65 L-58.4 -5.3 -53.85 -6.15 Q-48.5 -7.15 -42.6 -10.45 L-44.65 -28.7 -43.85 -28.8 Q-42.55 -26.5 -39.25 -23.0 L-34.55 -17.85 -32.7 -21.3 -29.8 -21.15 -28.55 -16.25 -23.7 -15.5 -23.3 -13.45 Q-18.95 -0.05 -18.95 21.5 L-19.55 21.5 M8.15 9.7 Q9.0 8.95 18.55 6.15 28.05 3.3 34.05 -8.15 28.05 3.3 18.55 6.15 9.0 8.95 8.15 9.7 M44.55 -8.65 L44.55 -11.8 44.55 -8.65 M-31.05 5.15 Q-32.35 4.2 -33.7 3.5 -39.15 0.9 -39.7 -5.2 -39.15 0.9 -33.7 3.5 -32.35 4.2 -31.05 5.15" fill="#845125" fill-rule="evenodd" stroke="none"/>
      <path d="M24.15 -58.15 L27.45 -62.65 Q41.2 -59.35 45.8 -55.55 L46.5 -54.7 44.55 -28.85 39.95 -25.3 38.75 -25.4 37.0 -29.05 30.4 -28.35 Q30.0 -24.4 29.0 -21.05 28.0 -17.7 24.85 -19.1 L23.0 -26.5 16.7 -22.45 Q17.7 -21.4 18.05 -20.25 18.7 -17.85 17.8 -15.75 15.4 -13.6 13.6 -16.0 12.55 -17.45 12.15 -19.35 10.0 -20.65 7.5 -19.85 6.2 -19.4 5.2 -18.45 6.9 -16.3 5.9 -13.6 5.15 -11.4 2.95 -10.5 L0.6 -16.15 -4.35 -12.95 Q-2.9 -10.85 -2.85 -8.3 -2.8 -7.4 -3.55 -6.85 L-9.6 -8.0 -10.85 -3.5 Q-10.15 -2.75 -9.25 -2.4 -6.85 -1.4 -4.25 -1.75 L-3.5 3.95 -9.6 5.25 -10.1 10.4 -3.65 11.1 -3.35 11.65 Q-1.25 15.7 -2.35 23.15 L-18.95 21.6 -18.95 21.5 Q-18.95 -0.05 -23.3 -13.45 L-23.7 -15.5 -28.55 -16.25 -29.8 -21.15 -32.7 -21.3 -34.55 -17.85 -39.25 -23.0 Q-42.55 -26.5 -43.85 -28.8 L-44.65 -28.7 -45.05 -32.8 Q-45.65 -39.4 -41.4 -44.2 -37.5 -48.55 -30.25 -50.8 L-29.55 -48.1 -30.0 -47.45 -32.3 -46.4 Q-34.05 -45.4 -34.45 -43.95 -39.5 -26.65 -19.6 -23.65 L-19.6 -23.35 -19.0 -23.65 Q5.75 -20.55 23.8 -35.7 L26.45 -38.2 Q42.3 -47.7 29.75 -56.7 27.3 -58.45 24.15 -58.15 M-19.6 -23.35 Q-21.3 -23.35 -22.5 -21.05 -23.7 -18.75 -23.7 -15.5 -23.7 -18.75 -22.5 -21.05 -21.3 -23.35 -19.6 -23.35 M-18.75 -15.7 Q-18.75 -14.25 -17.7 -13.2 -16.65 -12.2 -15.2 -12.2 -13.75 -12.2 -12.7 -13.2 -11.65 -14.25 -11.65 -15.7 -11.65 -17.15 -12.7 -18.15 -13.75 -19.2 -15.2 -19.2 -16.65 -19.2 -17.7 -18.15 -18.75 -17.15 -18.75 -15.7 M-17.8 -4.8 L-15.25 -5.0 -15.15 -7.55 -16.9 -8.1 -17.15 -7.45 -18.15 -6.8 -17.8 -4.8" fill="#663333" fill-rule="evenodd" stroke="none"/>
      <path d="M-30.0 -47.45 Q-21.05 -38.1 -19.7 -25.65 L-19.6 -23.65 Q-39.5 -26.65 -34.45 -43.95 -34.05 -45.4 -32.3 -46.4 L-30.0 -47.45 M26.45 -38.2 L24.15 -58.15 Q27.3 -58.45 29.75 -56.7 42.3 -47.7 26.45 -38.2 M-17.8 -4.8 L-18.15 -6.8 -17.15 -7.45 -16.9 -8.1 -15.15 -7.55 -15.25 -5.0 -17.8 -4.8 M-18.75 -15.7 Q-18.75 -17.15 -17.7 -18.15 -16.65 -19.2 -15.2 -19.2 -13.75 -19.2 -12.7 -18.15 -11.65 -17.15 -11.65 -15.7 -11.65 -14.25 -12.7 -13.2 -13.75 -12.2 -15.2 -12.2 -16.65 -12.2 -17.7 -13.2 -18.75 -14.25 -18.75 -15.7" fill="#3d2312" fill-rule="evenodd" stroke="none"/>
      <path d="M24.15 -58.15 L27.45 -62.65 Q41.2 -59.35 45.8 -55.55 L46.5 -54.7 44.55 -28.85 44.55 -11.8 Q51.0 -10.9 56.8 -8.85 L69.3 -4.55 72.35 -4.05 72.05 -1.95 74.0 15.85 M-18.95 21.6 L-19.55 21.5 M-63.7 12.85 Q-62.75 3.9 -63.2 -4.65 L-58.4 -5.3 -53.85 -6.15 Q-48.5 -7.15 -42.6 -10.45 L-44.65 -28.7 -45.05 -32.8 Q-45.65 -39.4 -41.4 -44.2 -37.5 -48.55 -30.25 -50.8 L-29.55 -48.1 -30.0 -47.45 Q-21.05 -38.1 -19.7 -25.65 L-19.6 -23.65 -19.0 -23.65 Q5.75 -20.55 23.8 -35.7 L26.45 -38.2 24.15 -58.15 Q27.3 -58.45 29.75 -56.7 42.3 -47.7 26.45 -38.2 M44.55 -28.85 L39.95 -25.3 38.75 -25.4 37.0 -29.05 30.4 -28.35 Q30.0 -24.4 29.0 -21.05 28.0 -17.7 24.85 -19.1 L23.0 -26.5 16.7 -22.45 Q17.7 -21.4 18.05 -20.25 18.7 -17.85 17.8 -15.75 15.4 -13.6 13.6 -16.0 12.55 -17.45 12.15 -19.35 10.0 -20.65 7.5 -19.85 6.2 -19.4 5.2 -18.45 6.9 -16.3 5.9 -13.6 5.15 -11.4 2.95 -10.5 L0.6 -16.15 -4.35 -12.95 Q-2.9 -10.85 -2.85 -8.3 -2.8 -7.4 -3.55 -6.85 L-9.6 -8.0 -10.85 -3.5 Q-10.15 -2.75 -9.25 -2.4 -6.85 -1.4 -4.25 -1.75 L-3.5 3.95 -9.6 5.25 -10.1 10.4 -3.65 11.1 -3.35 11.65 Q-1.25 15.7 -2.35 23.15 M44.55 -11.8 L44.55 -8.65 M34.05 -8.15 Q28.05 3.3 18.55 6.15 9.0 8.95 8.15 9.7 M-43.85 -28.8 Q-42.55 -26.5 -39.25 -23.0 L-34.55 -17.85 -32.7 -21.3 -29.8 -21.15 -28.55 -16.25 -23.7 -15.5 Q-23.7 -18.75 -22.5 -21.05 -21.3 -23.35 -19.6 -23.35 L-19.6 -23.65 Q-39.5 -26.65 -34.45 -43.95 -34.05 -45.4 -32.3 -46.4 L-30.0 -47.45 M-23.7 -15.5 L-23.3 -13.45 Q-18.95 -0.05 -18.95 21.5 L-18.95 21.6 M-19.6 -23.35 L-19.0 -23.65 M-18.75 -15.7 Q-18.75 -14.25 -17.7 -13.2 -16.65 -12.2 -15.2 -12.2 -13.75 -12.2 -12.7 -13.2 -11.65 -14.25 -11.65 -15.7 -11.65 -17.15 -12.7 -18.15 -13.75 -19.2 -15.2 -19.2 -16.65 -19.2 -17.7 -18.15 -18.75 -17.15 -18.75 -15.7 M-17.8 -4.8 L-15.25 -5.0 -15.15 -7.55 -16.9 -8.1 -17.15 -7.45 -18.15 -6.8 -17.8 -4.8 M-39.7 -5.2 Q-39.15 0.9 -33.7 3.5 -32.35 4.2 -31.05 5.15" fill="none" stroke="#000000" stroke-linecap="round" stroke-linejoin="round" stroke-width="2.0"/>
    </g>
  </g>
  </g>
  <defs>
    </defs>
</svg>