<svg xmlns:xlink="http://www.w3.org/1999/xlink" xmlns="http://www.w3.org/2000/svg" height="4.7px" width="18.05px">
  <g transform="matrix(1.0, 0.0, 0.0, 1.0, 10.15, 1.75)">
    <path d="M7.75 -0.6 L3.5 0.5 3.8 -0.55 3.85 -1.55 3.8 -0.55 3.5 0.5 7.75 -0.6 7.9 2.2 6.4 2.95 Q-0.8 1.4 -4.2 1.2 -7.6 0.95 -8.4 2.15 L-9.65 2.3 -10.15 -0.5 -9.3 -1.1 Q-4.7 0.05 0.0 -1.0 L3.85 -1.55 4.95 -1.75 Q6.4 -1.85 7.45 -0.95 L7.75 -0.6 M-0.7 0.95 L3.4 0.5 3.5 0.5 3.4 0.5 -0.7 0.95" fill="#ffffff" fill-rule="evenodd" stroke="none"/>
    <path d="M3.85 -1.55 L3.8 -0.55 3.5 0.5 7.75 -0.6 7.45 -0.95 Q6.4 -1.85 4.95 -1.75 L3.85 -1.55 0.0 -1.0 Q-4.7 0.05 -9.3 -1.1 L-10.15 -0.5 -9.65 2.3 -8.4 2.15 Q-7.6 0.95 -4.2 1.2 -0.8 1.4 6.4 2.95 L7.9 2.2 7.75 -0.6 M3.5 0.5 L3.4 0.5 -0.7 0.95 M-9.3 -1.1 L-10.1 -1.25" fill="none" stroke="#000000" stroke-linecap="round" stroke-linejoin="round" stroke-width="1.5"/>
  </g>
</svg>