<svg xmlns:xlink="http://www.w3.org/1999/xlink" xmlns="http://www.w3.org/2000/svg" height="264.15px" width="342.25px">
  <g transform="matrix(1.0, 0.0, 0.0, 1.0, 243.25, 83.7)">
    <g data-characterId="1144" height="150.3" transform="matrix(1.0, 0.0, 0.0, 1.0, -49.0, -47.2)" width="100.65" xlink:href="#shape0"><g id="shape0" transform="matrix(1.0, 0.0, 0.0, 1.0, 49.0, 47.2)">
      <path d="M-32.15 2.95 L-31.05 -0.85 Q-34.0 1.3 -35.4 4.9 -36.5 2.8 -35.85 0.65 L-34.8 -2.0 -37.6 0.1 Q-38.3 -0.35 -37.75 -1.4 L-34.35 -7.35 Q-33.9 -8.15 -33.8 -9.05 L-33.7 -10.2 -26.75 -11.25 -15.25 -12.1 -6.15 -12.3 5.65 -11.95 15.55 -10.4 Q20.8 -9.35 25.8 -7.45 L29.25 -5.55 35.35 -1.2 Q38.55 1.2 41.25 3.75 45.25 7.45 47.75 12.5 L48.2 13.85 Q48.55 15.2 48.55 16.5 L48.15 19.05 47.95 19.2 Q45.85 20.85 43.15 21.1 43.25 22.85 42.65 24.5 41.9 26.45 39.7 27.05 L40.0 25.05 37.4 29.85 37.0 29.6 Q34.8 24.05 36.0 18.15 36.25 17.0 36.15 15.85 L35.95 14.7 34.95 17.65 Q33.75 20.4 31.6 22.6 L30.55 23.6 29.35 24.45 Q30.35 23.0 30.3 21.45 30.2 19.15 29.45 17.05 L28.9 15.75 28.85 15.7 28.5 15.0 28.85 15.7 28.9 15.75 29.45 17.05 Q30.2 19.15 30.3 21.45 30.35 23.0 29.35 24.45 L30.55 23.6 31.6 22.6 Q33.75 20.4 34.95 17.65 L35.95 14.7 36.15 15.85 Q36.25 17.0 36.0 18.15 34.8 24.05 37.0 29.6 L37.15 30.2 38.1 31.6 Q37.6 34.7 38.8 37.45 39.35 38.75 39.1 40.3 38.7 42.45 39.5 44.2 L40.1 45.55 40.25 46.05 Q39.15 47.45 39.7 49.0 L40.1 50.3 40.4 53.25 40.4 56.8 Q40.45 58.65 41.3 60.25 L41.35 60.9 Q40.4 64.3 42.8 66.85 43.1 67.1 43.0 67.6 L42.55 69.2 Q41.95 71.15 42.25 73.35 L42.25 74.55 42.15 75.25 Q40.65 77.4 40.45 79.8 L39.95 82.55 Q39.35 84.8 39.15 86.9 L39.05 87.55 Q37.3 88.65 35.7 89.9 35.35 90.25 35.25 90.9 L35.2 91.45 Q34.55 92.55 32.75 92.75 30.9 92.9 29.45 94.05 L27.15 95.9 Q26.3 96.6 25.45 96.85 L23.85 97.4 22.15 97.75 Q19.95 96.6 16.35 96.85 12.75 97.05 8.35 99.15 4.9 99.0 1.4 97.35 0.4 99.6 -0.6 99.5 L-6.6 100.3 Q-14.85 104.1 -18.75 101.6 -22.7 99.1 -24.6 98.55 L-28.05 98.45 Q-30.1 98.15 -31.55 96.55 -32.7 95.25 -34.25 94.4 -36.0 93.4 -36.6 91.5 -37.1 89.95 -38.55 89.25 -40.05 88.5 -40.9 86.9 -41.8 85.35 -43.15 84.0 L-43.65 83.05 -44.45 79.65 -44.9 78.05 Q-45.5 76.2 -45.35 74.45 -45.3 73.65 -45.6 72.9 L-46.25 71.6 Q-47.05 69.85 -46.65 68.0 L-46.25 66.45 Q-47.6 63.75 -47.05 60.55 -46.95 60.1 -47.2 59.55 -47.55 58.7 -47.3 57.6 L-45.5 47.8 Q-45.3 46.7 -44.7 45.7 L-44.4 45.25 Q-45.15 43.4 -43.8 41.95 L-41.4 39.4 -40.95 38.6 Q-40.45 37.35 -40.8 36.1 L-40.9 35.05 -38.65 32.4 Q-38.25 32.05 -38.2 31.45 L-38.3 30.5 -38.85 28.75 Q-37.1 26.4 -36.7 23.25 -36.55 22.25 -36.7 21.35 L-34.25 18.45 -33.85 16.65 Q-34.2 19.25 -33.75 20.3 -33.35 21.35 -33.05 22.75 L-32.75 24.85 -32.15 26.1 -32.0 27.05 -31.95 28.85 -31.25 29.2 -29.9 33.65 -29.9 36.45 -28.7 37.95 -28.45 37.7 Q-28.0 35.95 -26.35 35.5 L-25.55 35.15 Q-24.75 34.55 -23.65 34.2 L-22.6 34.5 -22.3 34.3 -21.15 33.75 -19.65 33.25 -16.35 33.15 -14.95 32.65 -13.3 32.4 Q-9.85 31.95 -6.35 32.5 L-5.4 32.9 Q-3.9 32.8 -2.85 33.65 L-1.4 34.35 Q-0.65 34.15 0.0 34.65 1.75 36.2 3.9 37.1 6.4 37.95 8.05 40.05 L8.35 40.05 Q9.05 40.3 9.45 40.8 10.1 41.65 11.25 41.95 13.1 41.7 14.4 42.55 L14.65 42.75 Q16.35 40.45 16.6 38.2 16.8 35.95 18.25 34.6 L20.15 32.8 20.15 33.7 Q21.05 33.0 21.55 31.95 L22.6 29.85 Q25.5 27.6 25.6 26.3 25.7 25.0 25.4 24.55 L25.45 24.55 26.7 21.85 27.7 17.7 28.5 15.0 Q27.35 12.6 26.5 10.1 23.8 13.7 22.7 17.9 L22.65 18.0 21.6 18.25 21.55 18.2 17.0 0.3 Q15.6 5.5 11.55 9.15 L9.5 10.95 10.05 8.85 Q10.6 5.65 9.8 2.4 8.9 -1.2 7.45 -4.55 L6.95 -5.5 Q4.65 -6.1 2.3 -4.7 L-0.45 -2.95 Q-1.75 -2.05 -2.0 -0.55 -3.2 -3.15 -2.6 -5.95 L-2.3 -6.9 -2.75 -6.85 Q-6.3 -6.55 -9.45 -5.0 -11.85 -3.9 -13.5 -1.7 L-14.95 -8.05 -21.3 -0.85 -22.45 -6.6 -22.95 -5.6 Q-26.0 0.3 -31.3 4.05 L-32.15 2.95 M29.05 13.2 L28.5 15.0 29.05 13.2 M43.15 21.1 L41.15 20.85 43.15 21.1 M1.75 42.25 Q1.55 39.8 0.65 37.4 L-0.3 35.65 0.65 37.4 Q1.55 39.8 1.75 42.25 M6.9 41.4 Q7.5 41.7 7.7 42.15 8.5 43.85 8.7 45.75 L8.7 47.0 8.45 47.2 8.7 47.0 8.7 45.75 Q8.5 43.85 7.7 42.15 7.5 41.7 6.9 41.4 M2.9 47.15 L2.6 46.9 2.1 45.25 0.05 42.7 -1.05 41.9 -1.45 40.5 -3.45 39.2 -5.05 38.5 -5.15 38.3 Q-5.35 37.65 -6.4 38.1 -9.1 37.3 -12.1 38.0 L-12.6 37.85 -13.9 38.35 -14.65 37.9 -18.15 38.15 -18.5 38.35 -19.15 38.0 -21.55 38.8 -22.4 38.6 Q-25.25 39.8 -26.45 42.55 L-26.85 42.85 -26.7 43.1 Q-26.25 43.75 -26.3 44.6 -26.3 45.25 -25.85 45.4 -25.6 45.4 -25.5 45.55 L-24.75 47.45 -23.95 49.3 -23.25 50.4 -22.2 51.5 -21.3 52.35 -21.0 50.95 -19.1 52.95 Q-18.85 53.05 -18.85 52.7 L-18.45 51.25 -17.5 50.3 -16.95 52.1 -16.0 49.05 -14.9 49.8 -14.5 48.9 -12.35 52.65 -12.35 50.35 -8.6 53.8 -8.0 52.05 -7.2 54.1 Q-5.25 53.5 -3.8 51.75 L-2.45 50.45 -2.3 51.7 2.9 48.65 2.9 47.15 M11.95 45.1 L11.5 46.6 12.5 45.45 14.65 42.75 12.5 45.45 11.5 46.6 11.95 45.1 12.1 44.6 11.65 44.85 11.95 45.1 M8.45 47.2 L7.6 47.85 Q5.8 49.25 3.8 50.2 L3.6 50.3 1.75 50.95 2.9 48.65 1.75 50.95 3.6 50.3 3.8 50.2 Q5.8 49.25 7.6 47.85 L8.45 47.2 M8.7 47.0 L11.65 44.85 8.7 47.0 M1.75 60.95 Q0.75 64.55 0.15 68.2 -0.55 72.65 -0.5 77.1 -0.4 80.85 0.5 84.45 1.55 88.65 3.45 92.6 1.55 88.65 0.5 84.45 -0.4 80.85 -0.5 77.1 -0.55 72.65 0.15 68.2 0.75 64.55 1.75 60.95 M17.55 48.9 L17.9 50.35 20.1 59.6 Q20.9 63.3 20.9 67.0 20.9 71.05 20.3 75.05 19.75 78.8 18.8 82.5 17.95 85.95 16.1 88.9 17.95 85.95 18.8 82.5 19.75 78.8 20.3 75.05 20.9 71.05 20.9 67.0 20.9 63.3 20.1 59.6 L17.9 50.35 17.55 48.9 M29.95 45.15 L32.0 51.0 Q33.1 54.65 33.55 58.45 34.1 62.85 33.75 67.25 33.4 71.75 32.4 76.2 L30.55 83.05 28.8 87.75 30.55 83.05 32.4 76.2 Q33.4 71.75 33.75 67.25 34.1 62.85 33.55 58.45 33.1 54.65 32.0 51.0 L29.95 45.15 M-22.15 35.65 L-23.65 37.05 Q-24.6 37.8 -25.0 38.8 -24.6 37.8 -23.65 37.05 L-22.15 35.65 M-28.1 40.25 L-28.4 38.3 -28.7 37.95 -28.4 38.3 -28.1 40.25 -26.7 38.3 -25.6 37.1 -26.7 38.3 -28.1 40.25 -29.05 42.25 -28.1 40.25 -26.9 42.8 -26.85 42.85 -26.9 42.8 -28.1 40.25 M-37.95 44.0 L-39.35 53.2 -40.05 60.1 -40.2 66.7 -39.9 72.2 Q-39.45 77.85 -37.3 83.05 -36.75 84.35 -36.55 85.7 -36.75 84.35 -37.3 83.05 -39.45 77.85 -39.9 72.2 L-40.2 66.7 -40.05 60.1 -39.35 53.2 -37.95 44.0 M-28.75 56.65 L-29.45 62.1 Q-29.9 66.0 -29.9 69.9 -29.9 74.35 -29.25 78.75 -28.75 82.4 -27.55 85.9 -26.3 89.6 -24.45 93.05 L-22.7 95.5 -24.45 93.05 Q-26.3 89.6 -27.55 85.9 -28.75 82.4 -29.25 78.75 -29.9 74.35 -29.9 69.9 -29.9 66.0 -29.45 62.1 L-28.75 56.65 M-14.65 61.85 L-15.9 69.1 Q-16.5 73.35 -16.7 77.65 -16.8 81.4 -16.15 85.05 -15.4 88.9 -13.85 92.5 L-12.95 94.05 -13.85 92.5 Q-15.4 88.9 -16.15 85.05 -16.8 81.4 -16.7 77.65 -16.5 73.35 -15.9 69.1 L-14.65 61.85 M-16.7 34.5 L-18.05 36.0 -19.25 37.4 -18.05 36.0 -16.7 34.5 M-7.2 34.8 L-7.0 35.65 -6.9 37.1 -7.0 35.65 -7.2 34.8" fill="#000000" fill-rule="evenodd" stroke="none"/>
      <path d="M-7.6 -35.6 Q-2.6 -32.85 -2.55 -28.55 -2.55 -24.25 -3.5 -22.8 -4.45 -21.35 -5.75 -20.45 -10.7 -17.25 -16.6 -18.05 -19.5 -18.6 -21.4 -20.65 -25.4 -24.8 -23.8 -30.3 -23.4 -31.7 -22.5 -32.85 L-20.35 -35.0 -16.05 -36.95 Q-12.6 -38.35 -7.6 -35.6" fill="#ffffff" fill-rule="evenodd" stroke="none"/>
      <path d="M-33.65 7.3 Q-34.4 6.8 -35.2 6.55 L-35.85 6.35 -35.95 6.35 Q-43.3 3.95 -47.6 -2.55 -49.05 -4.75 -48.1 -7.3 L-47.4 -8.45 -45.1 -10.75 Q-43.0 -11.8 -41.8 -12.95 L-39.45 -15.1 -37.25 -17.05 Q-36.4 -17.9 -36.0 -19.0 L-35.95 -19.1 -34.15 -24.2 Q-33.25 -26.85 -31.9 -29.35 -31.05 -30.95 -29.8 -32.3 L-25.7 -36.5 Q-20.7 -41.05 -14.4 -43.25 -8.95 -45.25 -3.45 -46.05 L4.6 -46.7 Q16.45 -47.0 26.95 -41.45 L31.8 -38.7 Q34.95 -36.9 37.25 -34.05 L38.25 -32.25 Q41.65 -24.5 44.3 -16.4 46.2 -10.7 45.2 -5.05 L46.15 -3.85 Q48.6 -1.2 49.55 2.4 L50.65 6.75 Q51.85 11.6 50.15 16.3 49.5 18.1 48.15 19.05 L48.55 16.5 Q48.55 15.2 48.2 13.85 L47.75 12.5 Q45.25 7.45 41.25 3.75 38.55 1.2 35.35 -1.2 L29.25 -5.55 25.8 -7.45 Q20.8 -9.35 15.55 -10.4 L5.65 -11.95 -6.15 -12.3 -15.25 -12.1 -26.75 -11.25 -33.7 -10.2 -33.8 -9.05 Q-33.9 -8.15 -34.35 -7.35 L-37.75 -1.4 Q-38.3 -0.35 -37.6 0.1 L-34.8 -2.0 -35.85 0.65 Q-36.5 2.8 -35.4 4.9 -34.0 1.3 -31.05 -0.85 L-32.15 2.95 -32.05 4.55 -33.1 7.45 -33.65 7.3 M-46.0 -6.5 L-41.95 -8.05 Q-37.9 -9.7 -33.7 -10.2 -37.9 -9.7 -41.95 -8.05 L-46.0 -6.5 M32.5 -12.1 Q38.25 -10.2 42.0 -5.2 38.25 -10.2 32.5 -12.1 M-7.6 -35.6 Q-12.6 -38.35 -16.05 -36.95 L-20.35 -35.0 -22.5 -32.85 Q-23.4 -31.7 -23.8 -30.3 -25.4 -24.8 -21.4 -20.65 -19.5 -18.6 -16.6 -18.05 -10.7 -17.25 -5.75 -20.45 -4.45 -21.35 -3.5 -22.8 -2.55 -24.25 -2.55 -28.55 -2.6 -32.85 -7.6 -35.6 M-34.8 -18.7 L-33.55 -19.1 -27.3 -19.85 -33.55 -19.1 -34.8 -18.7" fill="url(#gradient0)" fill-rule="evenodd" stroke="none"/>
      <path d="M48.15 19.05 Q49.5 18.1 50.15 16.3 51.85 11.6 50.65 6.75 L49.55 2.4 Q48.6 -1.2 46.15 -3.85 L45.2 -5.05 Q46.2 -10.7 44.3 -16.4 41.65 -24.5 38.25 -32.25 L37.25 -34.05 Q34.95 -36.9 31.8 -38.7 L26.95 -41.45 Q16.45 -47.0 4.6 -46.7 L-3.45 -46.05 Q-8.95 -45.25 -14.4 -43.25 -20.7 -41.05 -25.7 -36.5 L-29.8 -32.3 Q-31.05 -30.95 -31.9 -29.35 -33.25 -26.85 -34.15 -24.2 L-35.95 -19.1 -36.0 -19.0 Q-36.4 -17.9 -37.25 -17.05 L-39.45 -15.1 -41.8 -12.95 Q-43.0 -11.8 -45.1 -10.75 L-47.4 -8.45 -48.1 -7.3 Q-49.05 -4.75 -47.6 -2.55 -43.3 3.95 -35.95 6.35 L-35.85 6.35 -35.2 6.55 Q-34.4 6.8 -33.65 7.3 M-33.1 7.45 L-32.05 4.55 -32.15 2.95 -31.05 -0.85 Q-34.0 1.3 -35.4 4.9 -36.5 2.8 -35.85 0.65 L-34.8 -2.0 -37.6 0.1 Q-38.3 -0.35 -37.75 -1.4 L-34.35 -7.35 Q-33.9 -8.15 -33.8 -9.05 L-33.7 -10.2 Q-37.9 -9.7 -41.95 -8.05 L-46.0 -6.5 M-31.3 4.05 Q-26.0 0.3 -22.95 -5.6 L-22.45 -6.6 -21.3 -0.85 -14.95 -8.05 -13.5 -1.7 Q-11.85 -3.9 -9.45 -5.0 -6.3 -6.55 -2.75 -6.85 L-2.3 -6.9 -2.6 -5.95 Q-3.2 -3.15 -2.0 -0.55 -1.75 -2.05 -0.45 -2.95 L2.3 -4.7 Q4.65 -6.1 6.95 -5.5 L7.45 -4.55 Q8.9 -1.2 9.8 2.4 10.6 5.65 10.05 8.85 L9.5 10.95 11.55 9.15 Q15.6 5.5 17.0 0.3 L21.55 18.2 21.6 18.25 22.15 20.45 22.65 18.0 22.7 17.9 Q23.8 13.7 26.5 10.1 27.35 12.6 28.5 15.0 L29.05 13.2 M-33.7 -10.2 L-26.75 -11.25 -15.25 -12.1 -6.15 -12.3 5.65 -11.95 15.55 -10.4 Q20.8 -9.35 25.8 -7.45 L29.25 -5.55 35.35 -1.2 Q38.55 1.2 41.25 3.75 45.25 7.45 47.75 12.5 L48.2 13.85 Q48.55 15.2 48.55 16.5 L48.15 19.05 47.95 19.2 Q45.85 20.85 43.15 21.1 43.25 22.85 42.65 24.5 41.9 26.45 39.7 27.05 L40.0 25.05 37.4 29.85 37.25 30.15 38.1 31.6 Q37.6 34.7 38.8 37.45 39.35 38.75 39.1 40.3 38.7 42.45 39.5 44.2 L40.1 45.55 40.25 46.05 Q39.15 47.45 39.7 49.0 L40.1 50.3 40.4 53.25 40.4 56.8 Q40.45 58.65 41.3 60.25 L41.35 60.9 Q40.4 64.3 42.8 66.85 43.1 67.1 43.0 67.6 L42.55 69.2 Q41.95 71.15 42.25 73.35 L42.25 74.55 42.15 75.25 Q40.65 77.4 40.45 79.8 L39.95 82.55 Q39.35 84.8 39.15 86.9 L39.05 87.55 Q37.3 88.65 35.7 89.9 35.35 90.25 35.25 90.9 L35.2 91.45 Q34.55 92.55 32.75 92.75 30.9 92.9 29.45 94.05 L27.15 95.9 Q26.3 96.6 25.45 96.85 L23.85 97.4 22.15 97.75 Q19.95 96.6 16.35 96.85 12.75 97.05 8.35 99.15 4.9 99.0 1.4 97.35 0.4 99.6 -0.6 99.5 L-6.6 100.3 Q-14.85 104.1 -18.75 101.6 -22.7 99.1 -24.6 98.55 L-28.05 98.45 Q-30.1 98.15 -31.55 96.55 -32.7 95.25 -34.25 94.4 -36.0 93.4 -36.6 91.5 -37.1 89.95 -38.55 89.25 -40.05 88.5 -40.9 86.9 -41.8 85.35 -43.15 84.0 L-43.65 83.05 -44.45 79.65 -44.9 78.05 Q-45.5 76.2 -45.35 74.45 -45.3 73.65 -45.6 72.9 L-46.25 71.6 Q-47.05 69.85 -46.65 68.0 L-46.25 66.45 Q-47.6 63.75 -47.05 60.55 -46.95 60.1 -47.2 59.55 -47.55 58.7 -47.3 57.6 L-45.5 47.8 Q-45.3 46.7 -44.7 45.7 L-44.4 45.25 Q-45.15 43.4 -43.8 41.95 L-41.4 39.4 -40.95 38.6 Q-40.45 37.35 -40.8 36.1 L-40.9 35.05 -38.65 32.4 Q-38.25 32.05 -38.2 31.45 L-38.3 30.5 -38.85 28.75 Q-37.1 26.4 -36.7 23.25 -36.55 22.25 -36.7 21.35 L-34.25 18.45 M-33.85 16.65 Q-34.2 19.25 -33.75 20.3 -33.35 21.35 -33.05 22.75 L-32.75 24.85 -32.15 26.1 -32.0 27.05 -31.95 28.85 -31.25 29.2 -29.9 33.65 -29.9 36.45 -28.7 37.95 -28.4 38.3 -28.1 40.25 -26.9 42.8 -26.85 42.85 -26.7 43.1 Q-26.25 43.75 -26.3 44.6 -26.3 45.25 -25.85 45.4 -25.6 45.4 -25.5 45.55 L-24.75 47.45 -23.95 49.3 -23.25 50.4 -22.2 51.5 -21.3 52.35 -21.0 50.95 -19.1 52.95 Q-18.85 53.05 -18.85 52.7 L-18.45 51.25 -17.5 50.3 -16.95 52.1 -16.0 49.05 -14.9 49.8 -14.5 48.9 -12.35 52.65 -12.35 50.35 -8.6 53.8 -8.0 52.05 -7.2 54.1 Q-5.25 53.5 -3.8 51.75 L-2.45 50.45 -2.3 51.7 2.9 48.65 2.9 47.15 M-28.45 37.7 Q-28.0 35.95 -26.35 35.5 L-25.55 35.15 Q-24.75 34.55 -23.65 34.2 L-22.6 34.5 -22.3 34.3 -21.15 33.75 -19.65 33.25 -16.35 33.15 -14.95 32.65 -13.3 32.4 Q-9.85 31.95 -6.35 32.5 L-5.4 32.9 Q-3.9 32.8 -2.85 33.65 L-1.4 34.35 Q-0.65 34.15 0.0 34.65 1.75 36.2 3.9 37.1 6.4 37.95 8.05 40.05 L8.35 40.05 Q9.05 40.3 9.45 40.8 10.1 41.65 11.25 41.95 13.1 41.7 14.4 42.55 M14.65 42.75 Q16.35 40.45 16.6 38.2 16.8 35.95 18.25 34.6 L20.15 32.8 20.15 33.7 Q21.05 33.0 21.55 31.95 L22.6 29.85 18.15 30.2 M42.0 -5.2 Q38.25 -10.2 32.5 -12.1 M41.15 20.85 L43.15 21.1 M28.5 15.0 L27.7 17.7 26.7 21.85 25.45 24.55 25.4 24.55 Q25.7 25.0 25.6 26.3 25.5 27.6 22.6 29.85 M28.5 15.0 L28.85 15.7 28.9 15.75 29.45 17.05 Q30.2 19.15 30.3 21.45 30.35 23.0 29.35 24.45 L30.55 23.6 31.6 22.6 Q33.75 20.4 34.95 17.65 L35.95 14.7 36.15 15.85 Q36.25 17.0 36.0 18.15 34.8 24.05 37.0 29.6 L37.25 30.15 37.15 30.2 37.0 29.6 M27.7 17.7 L23.3 18.1 M18.7 13.2 L17.25 13.2 M20.7 17.55 L18.55 18.0 17.85 17.55 M2.6 46.9 L2.1 45.25 0.05 42.7 -1.05 41.9 -1.45 40.5 -3.45 39.2 -5.05 38.5 -5.15 38.3 Q-5.35 37.65 -6.4 38.1 -9.1 37.3 -12.1 38.0 L-12.6 37.85 -13.9 38.35 -14.65 37.9 -18.15 38.15 -18.5 38.35 -19.15 38.0 -21.55 38.8 -22.4 38.6 Q-25.25 39.8 -26.45 42.55 M2.9 48.65 L1.75 50.95 3.6 50.3 3.8 50.2 Q5.8 49.25 7.6 47.85 L8.45 47.2 M14.65 42.75 L12.5 45.45 11.5 46.6 11.95 45.1 12.1 44.6 11.65 44.85 8.7 47.0 M24.8 24.4 L20.35 25.2 15.55 25.6 M26.7 21.85 L16.1 21.85 M-7.6 -35.6 Q-2.6 -32.85 -2.55 -28.55 -2.55 -24.25 -3.5 -22.8 -4.45 -21.35 -5.75 -20.45 -10.7 -17.25 -16.6 -18.05 -19.5 -18.6 -21.4 -20.65 -25.4 -24.8 -23.8 -30.3 -23.4 -31.7 -22.5 -32.85 L-20.35 -35.0 -16.05 -36.95 Q-12.6 -38.35 -7.6 -35.6 M-27.3 -19.85 L-33.55 -19.1 -34.8 -18.7 M-32.05 4.55 L-31.3 4.05" fill="none" stroke="#000000" stroke-linecap="round" stroke-linejoin="round" stroke-width="2.0"/>
      <path d="M8.45 47.2 L8.7 47.0 8.7 45.75 Q8.5 43.85 7.7 42.15 7.5 41.7 6.9 41.4 M-0.3 35.65 L0.65 37.4 Q1.55 39.8 1.75 42.25 M28.8 87.75 L30.55 83.05 32.4 76.2 Q33.4 71.75 33.75 67.25 34.1 62.85 33.55 58.45 33.1 54.65 32.0 51.0 L29.95 45.15 M16.1 88.9 Q17.95 85.95 18.8 82.5 19.75 78.8 20.3 75.05 20.9 71.05 20.9 67.0 20.9 63.3 20.1 59.6 L17.9 50.35 17.55 48.9 M3.45 92.6 Q1.55 88.65 0.5 84.45 -0.4 80.85 -0.5 77.1 -0.55 72.65 0.15 68.2 0.75 64.55 1.75 60.95 M-25.0 38.8 Q-24.6 37.8 -23.65 37.05 L-22.15 35.65 M-28.1 40.25 L-26.7 38.3 -25.6 37.1 M-28.1 40.25 L-29.05 42.25 M-6.9 37.1 L-7.0 35.65 -7.2 34.8 M-19.25 37.4 L-18.05 36.0 -16.7 34.5 M-12.95 94.05 L-13.85 92.5 Q-15.4 88.9 -16.15 85.05 -16.8 81.4 -16.7 77.65 -16.5 73.35 -15.9 69.1 L-14.65 61.85 M-22.7 95.5 L-24.45 93.05 Q-26.3 89.6 -27.55 85.9 -28.75 82.4 -29.25 78.75 -29.9 74.35 -29.9 69.9 -29.9 66.0 -29.45 62.1 L-28.75 56.65 M-36.55 85.7 Q-36.75 84.35 -37.3 83.05 -39.45 77.85 -39.9 72.2 L-40.2 66.7 -40.05 60.1 -39.35 53.2 -37.95 44.0" fill="none" stroke="#333333" stroke-linecap="round" stroke-linejoin="round" stroke-width="2.0"/>
    </g>
    </g>
  </g>
  <defs>
    <radialGradient cx="0" cy="0" gradientTransform="matrix(0.0529, 0.0, 0.0, 0.041, -8.65, -36.85)" gradientUnits="userSpaceOnUse" id="gradient0" r="819.2" spreadMethod="pad">
      <stop offset="0.0" stop-color="#ffffff"/>
      <stop offset="0.5529411764705883" stop-color="#d3cbc5"/>
      <stop offset="1.0" stop-color="#917c6f"/>
    </radialGradient>
  </defs>
</svg>