<?xml version="1.0" encoding="UTF-8" standalone="no"?>
<svg xmlns:xlink="http://www.w3.org/1999/xlink" height="39.7px" width="192.3px" xmlns="http://www.w3.org/2000/svg">
  <g transform="matrix(1.0, 0.0, 0.0, 1.0, 11.3, -3.8)">
    <path d="M179.45 26.55 Q179.05 34.55 175.7 42.0 L-6.15 42.0 Q-9.25 34.3 -9.7 26.55 -10.1 20.05 -8.7 13.55 -7.8 9.45 -6.15 5.3 L175.7 5.3 Q177.3 9.5 178.25 13.55 179.75 20.2 179.45 26.55" fill="url(#gradient0)" fill-rule="evenodd" stroke="none"/>
    <path d="M175.85 5.3 L-6.0 5.3 Q-9.35 12.75 -9.75 20.75 -10.05 27.1 -8.55 33.75 -7.6 37.8 -6.0 42.0" fill="none" stroke="#1f447a" stroke-linecap="round" stroke-linejoin="round" stroke-width="3.0"/>
    <path d="M-6.0 42.0 L175.85 42.0 Q177.5 37.85 178.4 33.75 179.8 27.25 179.4 20.75 178.95 13.0 175.85 5.3" fill="none" stroke="#98bede" stroke-linecap="round" stroke-linejoin="round" stroke-width="3.0"/>
  </g>
  <defs>
    <linearGradient gradientTransform="matrix(-0.1743, 0.0, 0.0, 0.0224, 136.65, 23.7)" gradientUnits="userSpaceOnUse" id="gradient0" spreadMethod="pad" x1="-819.2" x2="819.2">
      <stop offset="0.0" stop-color="#4926d9" stop-opacity="0.0"/>
      <stop offset="1.0" stop-color="#06529b" stop-opacity="0.72156864"/>
    </linearGradient>
  </defs>
</svg>
