<?xml version="1.0" encoding="UTF-8" standalone="no"?>
<svg xmlns:xlink="http://www.w3.org/1999/xlink" height="206.0px" width="722.95px" xmlns="http://www.w3.org/2000/svg">
  <g transform="matrix(1.0, 0.0, 0.0, 1.0, 1.0, -322.0)">
    <path d="M715.0 523.0 L715.0 389.0 5.0 389.0 5.0 523.0 715.0 523.0 5.0 523.0 5.0 389.0 715.0 389.0 715.0 523.0 M720.0 528.0 L0.0 528.0 0.0 384.0 720.0 384.0 720.0 528.0" fill="url(#gradient0)" fill-rule="evenodd" stroke="none"/>
    <path d="M715.0 523.0 L5.0 523.0 5.0 389.0 715.0 389.0 715.0 523.0 Z" fill="none" stroke="#d0c18e" stroke-linecap="round" stroke-linejoin="round" stroke-width="1.0"/>
    <path d="M720.0 323.0 L720.0 384.0 0.0 384.0 0.0 344.0 574.95 344.0 595.95 323.0 720.0 323.0" fill="#180e0a" fill-opacity="0.7019608" fill-rule="evenodd" stroke="none"/>
    <path d="M720.0 323.0 L720.95 323.0 M720.0 384.0 L0.0 384.0 M0.0 344.0 L574.95 344.0 595.95 323.0 720.0 323.0" fill="none" stroke="#493425" stroke-linecap="round" stroke-linejoin="round" stroke-width="2.0"/>
  </g>
  <defs>
    <linearGradient gradientTransform="matrix(0.0, -0.0879, 0.011, 0.0, -190.1, 455.75)" gradientUnits="userSpaceOnUse" id="gradient0" spreadMethod="pad" x1="-819.2" x2="819.2">
      <stop offset="0.0" stop-color="#180e0a" stop-opacity="0.9019608"/>
      <stop offset="1.0" stop-color="#6f5c35" stop-opacity="0.9529412"/>
    </linearGradient>
  </defs>
</svg>
