<?xml version="1.0" encoding="UTF-8" standalone="no"?>
<svg xmlns:xlink="http://www.w3.org/1999/xlink" height="37.0px" width="37.0px" xmlns="http://www.w3.org/2000/svg">
  <g transform="matrix(1.0, 0.0, 0.0, 1.0, 230.5, 18.5)">
    <path d="M-212.0 -18.0 Q-204.55 -18.0 -199.3 -12.75 -194.85 -8.3 -194.1 -2.3 L-194.0 0.0 Q-194.0 7.45 -199.3 12.7 -204.55 18.0 -212.0 18.0 -219.5 18.0 -224.75 12.7 -230.0 7.45 -230.0 0.0 -230.0 -7.5 -224.75 -12.75 -219.5 -18.0 -212.0 -18.0" fill="url(#gradient0)" fill-rule="evenodd" stroke="none"/>
    <path d="M-212.0 -18.0 Q-204.55 -18.0 -199.3 -12.75 -194.85 -8.3 -194.1 -2.3 L-194.0 0.0 Q-194.0 7.45 -199.3 12.7 -204.55 18.0 -212.0 18.0 -219.5 18.0 -224.75 12.7 -230.0 7.45 -230.0 0.0 -230.0 -7.5 -224.75 -12.75 -219.5 -18.0 -212.0 -18.0 Z" fill="none" stroke="#d0c18e" stroke-linecap="round" stroke-linejoin="round" stroke-width="1.0"/>
  </g>
  <defs>
    <radialGradient cx="0" cy="0" gradientTransform="matrix(0.0231, 0.0, 0.0, 0.0231, -212.0, 0.0)" gradientUnits="userSpaceOnUse" id="gradient0" r="819.2" spreadMethod="pad">
      <stop offset="0.7686274509803922" stop-color="#59452e"/>
      <stop offset="1.0" stop-color="#ac8853"/>
    </radialGradient>
  </defs>
</svg>
