<svg xmlns:xlink="http://www.w3.org/1999/xlink" xmlns="http://www.w3.org/2000/svg" height="15.85px" width="32.7px">
  <g transform="matrix(1.0, 0.0, 0.0, 1.0, 15.65, -9.1)">
    <path d="M2.05 10.05 Q9.6 10.0 16.55 12.25 12.85 11.8 10.75 15.1 7.75 19.85 2.9 22.6 -5.55 27.5 -10.15 19.3 L-15.15 22.9 Q-10.55 15.0 -3.75 9.6 L0.75 10.05 Q-6.8 10.45 -5.9 17.4 -5.65 19.5 -3.7 20.5 3.0 23.75 7.45 18.2 L7.45 17.6 Q7.85 11.6 2.05 10.05" fill="#000000" fill-rule="evenodd" stroke="none"/>
    <path d="M2.05 10.05 Q9.6 10.0 16.55 12.25 12.85 11.8 10.75 15.1 7.75 19.85 2.9 22.6 -5.55 27.5 -10.15 19.3 L-15.15 22.9 Q-10.55 15.0 -3.75 9.6 L0.75 10.05 2.05 10.05 Q7.85 11.6 7.45 17.6 L7.45 18.2 Q3.0 23.75 -3.7 20.5 -5.65 19.5 -5.9 17.4 -6.8 10.45 0.75 10.05" fill="none" stroke="#000000" stroke-linecap="round" stroke-linejoin="round" stroke-width="2.0"/>
  </g>
</svg>