<svg xmlns:xlink="http://www.w3.org/1999/xlink" xmlns="http://www.w3.org/2000/svg" height="36.35px" width="49.3px">
  <g transform="matrix(1.0, 0.0, 0.0, 1.0, 24.7, 18.15)">
    <g data-characterId="1677" height="36.35" transform="matrix(1.0, 0.0, 0.0, 1.0, -24.7, -18.15)" width="49.3" xlink:href="#shape0"><g id="shape0" transform="matrix(1.0, 0.0, 0.0, 1.0, 24.7, 18.15)">
      <path d="M18.95 -12.1 L20.7 -12.1 21.5 -11.5 20.7 -8.65 20.4 -7.55 20.0 -6.5 19.55 -5.55 19.0 -5.0 16.65 -2.55 9.7 1.65 7.45 -0.25 7.35 0.35 7.55 2.95 4.15 5.0 3.85 4.0 Q3.3 3.05 2.45 2.7 2.45 4.35 1.85 5.85 L1.5 6.25 1.1 6.6 Q-0.1 5.5 -1.65 5.4 L-2.1 8.75 -4.6 10.25 Q-4.8 9.15 -5.2 8.95 L-6.9 7.7 -5.15 6.85 -4.65 6.85 14.9 -6.85 18.95 -12.1 M-23.95 9.75 L-23.7 9.45 -23.55 8.95 -23.9 8.5 -24.15 8.0 -23.55 7.35 -23.1 7.35 -22.65 7.2 -19.85 6.15 -18.7 5.65 -18.1 5.25 -16.4 4.1 -15.45 3.5 -13.3 2.0 -11.65 0.9 -9.9 -0.3 -9.1 -0.85 -7.3 -2.1 -7.3 -2.55 -7.1 -2.6 -6.8 -2.75 -4.95 -4.6 Q-3.9 -6.95 -2.2 -8.7 0.7 -11.55 2.05 -15.9 L2.4 -16.15 2.6 -16.75 4.4 -17.65 5.3 -17.6 6.6 -17.3 Q5.45 -14.7 3.7 -11.65 0.5 -6.05 -4.95 -2.35 -9.9 1.0 -14.3 4.95 -15.15 6.3 -15.4 8.05 -13.75 9.85 -11.35 9.85 L-7.35 7.95 -7.55 8.35 Q-7.15 10.45 -7.85 12.2 L-8.9 12.8 -10.25 12.7 -11.15 10.55 -12.9 12.25 Q-13.5 10.55 -15.05 9.45 L-15.4 9.85 Q-15.85 11.05 -16.6 11.35 L-18.7 7.8 -18.7 9.15 -19.95 10.6 Q-19.8 10.3 -19.95 9.7 L-20.25 9.35 -20.35 8.7 Q-20.65 7.7 -21.05 7.6 L-21.55 8.0 -21.6 8.55 -22.35 9.35 -22.75 10.25 -23.95 9.75" fill="#51151b" fill-rule="evenodd" stroke="none"/>
      <path d="M6.6 -17.3 L7.0 -17.15 9.35 -15.85 13.4 -15.05 18.95 -12.1 14.9 -6.85 -4.65 6.85 -5.15 6.85 -6.9 7.7 -7.3 7.9 -7.35 7.95 -11.35 9.85 Q-13.75 9.85 -15.4 8.05 -15.15 6.3 -14.3 4.95 -9.9 1.0 -4.95 -2.35 0.5 -6.05 3.7 -11.65 5.45 -14.7 6.6 -17.3 M10.7 -11.35 Q10.25 -9.55 8.75 -8.25 4.4 -4.45 -0.65 -1.65 -5.7 1.15 -9.15 5.6 -5.7 1.15 -0.65 -1.65 4.4 -4.45 8.75 -8.25 10.25 -9.55 10.7 -11.35" fill="#7c2128" fill-rule="evenodd" stroke="none"/>
      <path d="M21.5 -11.5 L22.45 -10.8 23.1 -9.8 23.55 -8.6 19.95 -3.2 19.5 -2.85 18.55 -1.9 17.55 -1.35 Q12.7 1.85 7.5 4.65 2.45 7.35 -1.9 11.05 -6.85 15.2 -12.85 14.4 -18.3 13.75 -23.4 11.8 L-23.5 11.75 -23.8 11.65 -23.9 11.35 Q-23.95 10.95 -24.15 10.6 L-24.15 9.95 -23.95 9.75 -22.75 10.25 -17.15 12.0 -10.25 12.7 -8.9 12.8 -7.85 12.2 -4.6 10.25 -2.1 8.75 4.15 5.0 7.55 2.95 9.7 1.65 16.65 -2.55 19.0 -5.0 19.55 -5.55 20.0 -6.5 20.4 -7.55 20.7 -8.65 21.5 -11.5" fill="#333333" fill-rule="evenodd" stroke="none"/>
      <path d="M-23.5 12.05 L-23.5 11.75 -23.4 11.8 -23.5 12.05" fill="#b6b1a9" fill-rule="evenodd" stroke="none"/>
      <path d="M-22.65 7.2 Q-23.6 4.6 -22.25 2.2 L-21.05 5.05 -20.35 5.6 -19.85 6.15 -22.65 7.2 M-18.1 5.25 L-18.75 4.95 -18.75 2.7 -17.55 3.3 -16.4 4.1 -18.1 5.25 M-15.45 3.5 Q-16.6 1.1 -16.1 -0.7 -15.25 0.55 -13.3 2.0 L-15.45 3.5 M-11.65 0.9 L-11.85 -1.2 -9.9 -0.3 -11.65 0.9 M-9.1 -0.85 L-9.25 -3.4 -7.1 -2.6 -7.3 -2.55 -7.3 -2.1 -9.1 -0.85 M-7.3 7.9 L-6.9 7.7 -5.2 8.95 Q-4.8 9.15 -4.6 10.25 L-7.85 12.2 Q-7.15 10.45 -7.55 8.35 L-7.35 7.95 -7.3 7.9 M7.55 2.95 L7.35 0.35 7.45 -0.25 9.7 1.65 7.55 2.95 M4.15 5.0 L-2.1 8.75 -1.65 5.4 Q-0.1 5.5 1.1 6.6 L1.5 6.25 1.85 5.85 Q2.45 4.35 2.45 2.7 3.3 3.05 3.85 4.0 L4.15 5.0 M-10.25 12.7 L-17.15 12.0 -22.75 10.25 -22.35 9.35 -21.6 8.55 -21.55 8.0 -21.05 7.6 Q-20.65 7.7 -20.35 8.7 L-20.25 9.35 -19.95 9.7 Q-19.8 10.3 -19.95 10.6 L-18.7 9.15 -18.7 7.8 -16.6 11.35 Q-15.85 11.05 -15.4 9.85 L-15.05 9.45 Q-13.5 10.55 -12.9 12.25 L-11.15 10.55 -10.25 12.7" fill="#ffffcc" fill-rule="evenodd" stroke="none"/>
      <path d="M23.55 -8.6 L24.05 -6.85 Q24.55 -0.6 19.25 2.2 18.95 2.2 18.75 2.45 L18.3 2.6 Q17.6 2.85 17.2 3.35 L16.75 3.55 Q12.4 7.5 6.85 9.3 4.3 10.15 2.1 11.6 L-5.6 16.35 Q-8.95 18.35 -12.75 17.4 L-18.5 15.85 -20.0 15.15 -22.85 12.95 -23.5 12.05 -23.4 11.8 Q-18.3 13.75 -12.85 14.4 -6.85 15.2 -1.9 11.05 2.45 7.35 7.5 4.65 12.7 1.85 17.55 -1.35 L18.55 -1.9 19.5 -2.85 19.95 -3.2 23.55 -8.6" fill="#5ec22e" fill-rule="evenodd" stroke="none"/>
      <path d="M6.6 -17.3 L7.0 -17.15 9.35 -15.85 13.4 -15.05 18.95 -12.1 20.7 -12.1 21.5 -11.5 22.45 -10.8 23.1 -9.8 23.55 -8.6 24.05 -6.85 Q24.55 -0.6 19.25 2.2 18.95 2.2 18.75 2.45 L18.3 2.6 Q17.6 2.85 17.2 3.35 L16.75 3.55 Q12.4 7.5 6.85 9.3 4.3 10.15 2.1 11.6 L-5.6 16.35 Q-8.95 18.35 -12.75 17.4 L-18.5 15.85 -20.0 15.15 -22.85 12.95 -23.5 12.05 -23.5 11.75 -23.8 11.65 -23.9 11.35 Q-23.95 10.95 -24.15 10.6 L-24.15 9.95 -23.95 9.75 -23.7 9.45 -23.55 8.95 -23.9 8.5 -24.15 8.0 -23.55 7.35 -23.1 7.35 -22.65 7.2 Q-23.6 4.6 -22.25 2.2 L-21.05 5.05 -20.35 5.6 -19.85 6.15 -18.7 5.65 -18.1 5.25 -18.75 4.95 -18.75 2.7 -17.55 3.3 -16.4 4.1 -15.45 3.5 Q-16.6 1.1 -16.1 -0.7 -15.25 0.55 -13.3 2.0 L-11.65 0.9 -11.85 -1.2 -9.9 -0.3 -9.1 -0.85 -9.25 -3.4 -7.1 -2.6 -6.8 -2.75 -4.95 -4.6 Q-3.9 -6.95 -2.2 -8.7 0.7 -11.55 2.05 -15.9 L2.4 -16.15 2.6 -16.75 4.4 -17.65 5.3 -17.6 6.6 -17.3 Q5.45 -14.7 3.7 -11.65 0.5 -6.05 -4.95 -2.35 -9.9 1.0 -14.3 4.95 -15.15 6.3 -15.4 8.05 -13.75 9.85 -11.35 9.85 L-7.35 7.95 -7.3 7.9 -6.9 7.7 -5.15 6.85 -4.65 6.85 14.9 -6.85 18.95 -12.1 M9.7 1.65 L16.65 -2.55 19.0 -5.0 19.55 -5.55 20.0 -6.5 20.4 -7.55 20.7 -8.65 21.5 -11.5 M-9.15 5.6 Q-5.7 1.15 -0.65 -1.65 4.4 -4.45 8.75 -8.25 10.25 -9.55 10.7 -11.35 M7.55 2.95 L7.35 0.35 7.45 -0.25 9.7 1.65 7.55 2.95 4.15 5.0 -2.1 8.75 -4.6 10.25 -7.85 12.2 -8.9 12.8 -10.25 12.7 -17.15 12.0 -22.75 10.25 -23.95 9.75 M-2.1 8.75 L-1.65 5.4 Q-0.1 5.5 1.1 6.6 L1.5 6.25 1.85 5.85 Q2.45 4.35 2.45 2.7 3.3 3.05 3.85 4.0 L4.15 5.0 M-9.1 -0.85 L-7.3 -2.1 -7.3 -2.55 -7.1 -2.6 M-7.35 7.95 L-7.55 8.35 Q-7.15 10.45 -7.85 12.2 M-6.9 7.7 L-5.2 8.95 Q-4.8 9.15 -4.6 10.25 M-7.3 7.9 L-7.35 7.95 M-18.1 5.25 L-16.4 4.1 M-22.75 10.25 L-22.35 9.35 -21.6 8.55 -21.55 8.0 -21.05 7.6 Q-20.65 7.7 -20.35 8.7 L-20.25 9.35 -19.95 9.7 Q-19.8 10.3 -19.95 10.6 L-18.7 9.15 -18.7 7.8 -16.6 11.35 Q-15.85 11.05 -15.4 9.85 L-15.05 9.45 Q-13.5 10.55 -12.9 12.25 L-11.15 10.55 -10.25 12.7 M-15.45 3.5 L-13.3 2.0 M-19.85 6.15 L-22.65 7.2 M-9.9 -0.3 L-11.65 0.9" fill="none" stroke="#000000" stroke-linecap="round" stroke-linejoin="round" stroke-width="2.0"/>
    </g>
  </g>
  </g>
  <defs>
    </defs>
</svg>