<svg xmlns:xlink="http://www.w3.org/1999/xlink" xmlns="http://www.w3.org/2000/svg" height="20.2px" width="32.7px">
  <g transform="matrix(1.0, 0.0, 0.0, 1.0, 16.35, 10.1)">
    <g data-characterId="1695" height="20.2" transform="matrix(1.0, 0.0, 0.0, 1.0, -16.35, -10.1)" width="32.7" xlink:href="#shape0"><g id="shape0" transform="matrix(1.0, 0.0, 0.0, 1.0, 16.35, 10.1)">
      <path d="M-13.3 9.1 L-14.5 7.0 Q-15.85 4.55 -15.85 1.85 -15.8 -1.05 -13.7 -2.8 -10.75 -5.1 -7.4 -6.55 -4.15 -8.0 -0.5 -8.6 L2.25 -9.2 Q9.6 -10.65 15.85 -6.8 15.15 -4.15 12.65 -3.2 6.85 -0.65 1.35 2.35 L-4.35 5.55 -7.5 7.85 Q-8.8 9.0 -10.15 9.4 L-12.9 9.45 -13.3 9.1" fill="#79786c" fill-rule="evenodd" stroke="none"/>
      <path d="M-12.9 9.45 L-10.15 9.4 Q-8.8 9.0 -7.5 7.85 L-4.35 5.55 1.35 2.35 Q6.85 -0.65 12.65 -3.2 15.15 -4.15 15.85 -6.8 9.6 -10.65 2.25 -9.2 L-0.5 -8.6 Q-4.15 -8.0 -7.4 -6.55 -10.75 -5.1 -13.7 -2.8 -15.8 -1.05 -15.85 1.85 -15.85 4.55 -14.5 7.0 L-13.3 9.1" fill="none" stroke="#5c5c52" stroke-linecap="round" stroke-linejoin="round" stroke-width="2.0"/>
    </g>
  </g>
  </g>
  <defs>
    </defs>
</svg>