<svg xmlns:xlink="http://www.w3.org/1999/xlink" xmlns="http://www.w3.org/2000/svg" height="196.5px" width="143.65px">
  <g transform="matrix(1.0, 0.0, 0.0, 1.0, 68.95, 84.25)">
    <g data-characterId="1681" height="168.5" transform="matrix(1.0, 0.0, 0.0, 1.0, -68.95, -84.25)" width="137.9" xlink:href="#shape0"><g id="shape0" transform="matrix(1.0, 0.0, 0.0, 1.0, 68.95, 84.25)">
      <path d="M13.85 -69.4 L13.95 -69.55 16.6 -72.65 18.4 -74.9 Q22.25 -79.55 27.15 -82.45 L33.15 -79.4 Q35.3 -78.35 37.2 -77.0 L38.5 -75.95 Q47.5 -68.45 49.1 -56.7 L49.65 -53.15 Q50.05 -50.55 48.85 -48.15 L49.1 -47.8 Q49.4 -47.15 49.8 -46.75 L48.5 -45.45 Q47.55 -44.55 47.0 -43.3 L46.65 -42.85 46.15 -42.45 Q44.6 -40.75 42.65 -39.75 L37.85 -37.3 Q32.6 -34.65 29.95 -29.45 L29.15 -27.75 Q29.0 -25.25 27.2 -23.8 L26.4 -23.4 Q20.75 -35.6 7.7 -38.85 L5.95 -39.25 5.5 -39.45 Q2.8 -42.75 2.9 -47.1 2.95 -49.9 4.1 -52.6 L4.05 -54.7 Q3.6 -57.7 5.35 -60.05 L7.6 -62.65 13.8 -69.4 13.85 -69.4 M42.95 -55.15 L44.0 -55.8 43.45 -56.65 Q42.4 -67.0 34.6 -73.5 L31.85 -75.2 31.7 -75.25 30.45 -75.5 Q27.45 -75.2 25.3 -73.1 23.2 -70.95 21.6 -68.6 L20.2 -66.4 Q15.9 -58.8 16.45 -49.15 L21.7 -53.15 22.15 -50.55 27.65 -52.95 29.55 -50.05 32.25 -50.95 32.5 -47.7 34.8 -47.9 36.35 -48.0 Q37.3 -48.3 38.3 -48.85 L39.75 -49.7 40.25 -50.1 Q42.6 -52.05 42.95 -55.15 M30.35 -77.75 L27.95 -78.25 26.7 -78.05 25.95 -77.3 Q24.7 -75.8 23.05 -74.55 L22.2 -73.7 Q20.35 -71.4 17.9 -69.55 L17.0 -68.7 10.65 -62.15 8.85 -60.45 Q6.05 -58.25 7.3 -54.8 6.05 -58.25 8.85 -60.45 L10.65 -62.15 17.0 -68.7 17.9 -69.55 Q20.35 -71.4 22.2 -73.7 L23.05 -74.55 Q24.7 -75.8 25.95 -77.3 L26.7 -78.05 27.95 -78.25 30.35 -77.75 M-15.65 -63.6 L-14.0 -62.5 -15.7 -60.65 -15.6 -59.7 -17.15 -58.95 -18.55 -56.8 Q-19.5 -55.35 -20.75 -54.05 -21.9 -52.9 -22.05 -51.3 L-23.7 -50.1 -22.7 -48.7 Q-22.9 -47.7 -23.4 -47.0 -25.75 -44.05 -29.65 -43.35 -40.1 -41.3 -45.45 -32.55 L-48.55 -34.5 -47.15 -36.75 Q-45.8 -38.9 -45.85 -41.2 L-45.9 -41.9 -45.9 -42.2 -45.75 -44.0 -45.5 -46.9 -42.1 -46.75 -41.4 -52.05 -40.6 -49.4 -40.3 -55.55 -34.65 -51.15 -33.0 -54.25 -30.8 -52.1 -30.05 -52.05 -30.1 -52.35 -30.95 -55.05 -30.95 -55.15 Q-35.1 -66.95 -46.4 -73.45 -48.3 -74.6 -50.3 -75.6 L-54.2 -77.05 -54.55 -76.8 -56.5 -79.8 -57.25 -81.7 Q-54.9 -84.4 -50.65 -83.55 L-41.75 -81.45 Q-39.05 -80.65 -36.55 -79.2 -28.85 -74.85 -21.85 -69.5 -18.8 -67.2 -16.4 -64.6 L-16.2 -63.95 -15.65 -63.6 M-25.05 -68.0 Q-27.5 -69.25 -29.35 -71.35 -30.95 -73.15 -33.2 -74.15 -38.5 -76.6 -43.95 -78.35 L-45.65 -78.8 Q-48.6 -79.3 -51.05 -80.9 -52.6 -81.9 -54.05 -80.6 -52.6 -81.9 -51.05 -80.9 -48.6 -79.3 -45.65 -78.8 L-43.95 -78.35 Q-38.5 -76.6 -33.2 -74.15 -30.95 -73.15 -29.35 -71.35 -27.5 -69.25 -25.05 -68.0 M-25.5 -52.6 L-23.7 -50.1 -25.5 -52.6" fill="#5c5c52" fill-rule="evenodd" stroke="none"/>
      <path d="M43.45 -56.65 L44.0 -55.8 42.95 -55.15 Q42.6 -52.05 40.25 -50.1 L39.75 -49.7 38.3 -48.85 Q37.3 -48.3 36.35 -48.0 L34.8 -47.9 32.5 -47.7 32.25 -50.95 29.55 -50.05 27.65 -52.95 22.15 -50.55 21.7 -53.15 16.45 -49.15 Q15.9 -58.8 20.2 -66.4 L21.6 -68.6 Q23.2 -70.95 25.3 -73.1 L31.7 -75.25 31.85 -75.2 34.6 -73.5 Q42.4 -67.0 43.45 -56.65 M38.7 -53.05 L38.2 -55.1 Q37.9 -55.95 37.35 -56.0 36.15 -56.05 34.85 -55.3 L33.8 -54.6 Q33.85 -55.9 33.5 -57.15 33.15 -58.4 32.25 -58.55 31.25 -58.65 30.1 -57.7 L28.7 -56.45 28.6 -57.7 Q28.5 -59.0 27.75 -59.6 27.4 -59.9 26.55 -59.25 24.95 -57.95 23.9 -56.25 L23.9 -57.05 Q24.35 -59.4 24.0 -61.55 22.1 -60.65 20.4 -59.0 18.5 -57.05 18.9 -54.5 18.5 -57.05 20.4 -59.0 22.1 -60.65 24.0 -61.55 24.35 -59.4 23.9 -57.05 L23.9 -56.25 Q24.95 -57.95 26.55 -59.25 27.4 -59.9 27.75 -59.6 28.5 -59.0 28.6 -57.7 L28.7 -56.45 30.1 -57.7 Q31.25 -58.65 32.25 -58.55 33.15 -58.4 33.5 -57.15 33.85 -55.9 33.8 -54.6 L34.85 -55.3 Q36.15 -56.05 37.35 -56.0 37.9 -55.95 38.2 -55.1 L38.7 -53.05 M-37.0 -57.0 L-38.8 -59.6 -40.0 -60.8 -40.1 -59.65 -40.2 -56.95 -40.5 -57.95 Q-40.85 -60.55 -42.8 -62.1 L-43.2 -61.5 Q-44.25 -57.5 -43.05 -53.45 -44.25 -57.5 -43.2 -61.5 L-42.8 -62.1 Q-40.85 -60.55 -40.5 -57.95 L-40.2 -56.95 -40.1 -59.65 -40.0 -60.8 -38.8 -59.6 -37.0 -57.0 M-54.2 -77.05 L-50.3 -75.6 Q-48.3 -74.6 -46.4 -73.45 -35.1 -66.95 -30.95 -55.15 L-30.95 -55.05 -30.1 -52.35 -30.8 -52.1 -33.0 -54.25 -34.65 -51.15 -40.3 -55.55 -40.6 -49.4 -41.4 -52.05 -42.1 -46.75 -45.5 -46.9 Q-45.1 -57.05 -48.85 -66.55 -50.75 -71.35 -53.7 -75.55 L-54.55 -76.8 -54.2 -77.05" fill="#6a6a5c" fill-rule="evenodd" stroke="none"/>
      <path d="M13.85 -69.4 L13.8 -69.4 7.6 -62.65 5.35 -60.05 Q3.6 -57.7 4.05 -54.7 L4.1 -52.6 Q2.95 -49.9 2.9 -47.1 2.8 -42.75 5.5 -39.45 L5.95 -39.25 7.7 -38.85 Q20.75 -35.6 26.4 -23.4 L26.45 -23.3 27.2 -23.8 Q29.0 -25.25 29.15 -27.75 L29.95 -29.45 Q32.6 -34.65 37.85 -37.3 L42.65 -39.75 Q44.6 -40.75 46.15 -42.45 L46.65 -42.85 47.0 -43.3 Q47.55 -44.55 48.5 -45.45 L49.8 -46.75 Q50.25 -46.3 50.8 -46.1 54.05 -44.55 56.15 -41.45 63.0 -31.15 66.65 -19.4 L66.55 -19.35 62.35 -23.65 Q63.95 -18.9 64.95 -14.0 L66.75 -6.55 Q69.5 3.9 67.8 14.55 L66.15 10.85 Q65.8 10.9 66.0 12.5 L66.15 15.1 Q66.25 22.85 65.8 30.55 65.35 37.45 63.2 43.95 L61.55 36.45 Q59.1 44.95 55.2 51.5 53.95 53.5 51.9 54.95 52.15 52.0 51.85 49.1 L51.1 45.05 51.05 45.35 46.75 43.85 46.25 42.9 42.35 47.75 Q43.7 37.1 36.7 28.85 33.4 24.9 28.85 22.0 24.85 19.45 20.2 19.45 L22.15 26.85 16.4 25.2 19.55 30.4 Q12.8 28.65 4.8 27.15 -0.75 26.05 -5.65 28.0 -7.3 28.7 -8.6 30.1 L-11.15 32.9 Q-12.05 28.0 -15.85 25.1 L-16.8 21.6 -8.55 18.0 -2.65 12.25 Q0.6 13.95 3.9 11.7 L5.75 9.95 Q8.8 6.25 13.05 4.8 6.4 3.15 -0.7 3.0 L-1.85 0.95 Q-2.7 1.35 -3.6 1.55 L-4.45 1.75 -4.5 1.8 -4.85 2.05 -5.7 2.7 -7.65 2.75 Q-14.3 3.35 -19.95 0.35 L-27.15 -0.7 -28.3 0.2 Q-29.2 0.8 -30.25 2.45 L-32.05 4.2 -34.85 5.55 Q-36.6 3.05 -39.2 1.4 L-40.25 2.55 Q-42.25 5.3 -39.8 7.2 L-39.75 7.2 -39.15 8.2 Q-37.7 11.5 -39.15 15.0 L-39.75 16.85 -45.25 22.1 Q-45.6 16.35 -48.75 11.6 L-49.35 11.0 -50.0 10.6 Q-56.75 7.85 -62.5 12.35 L-64.1 10.1 -65.55 10.4 -66.25 11.55 -66.8 11.5 -66.15 7.65 Q-65.05 1.75 -62.4 -3.8 L-67.1 2.45 Q-64.45 -10.25 -57.1 -21.25 L-48.55 -34.5 -45.45 -32.55 Q-40.1 -41.3 -29.65 -43.35 -25.75 -44.05 -23.4 -47.0 -22.9 -47.7 -22.7 -48.7 L-23.7 -50.1 -22.05 -51.3 Q-21.9 -52.9 -20.75 -54.05 -19.5 -55.35 -18.55 -56.8 L-17.15 -58.95 -15.6 -59.7 -15.7 -60.65 -14.0 -62.5 -15.65 -63.6 -15.3 -64.15 Q-10.35 -68.75 -3.5 -69.0 L-5.7 -66.7 Q1.3 -69.45 8.75 -69.9 L8.5 -69.2 6.65 -67.45 13.25 -69.9 13.85 -69.4 M-44.65 6.3 L-45.95 6.8 Q-48.75 7.95 -49.35 11.0 -48.75 7.95 -45.95 6.8 L-44.65 6.3 M46.85 36.4 L46.85 34.7 Q46.15 30.7 43.75 27.2 L40.2 21.55 Q35.75 13.9 27.3 12.9 35.75 13.9 40.2 21.55 L43.75 27.2 Q46.15 30.7 46.85 34.7 L46.85 36.4 M54.15 12.9 L53.7 12.2 Q48.25 3.0 39.5 -2.75 48.25 3.0 53.7 12.2 L54.15 12.9 M51.9 -19.65 L51.4 -20.35 Q47.95 -25.5 42.0 -25.75 47.95 -25.5 51.4 -20.35 L51.9 -19.65 M57.4 -2.8 Q55.8 -3.6 54.85 -5.55 50.95 -13.35 42.35 -14.95 50.95 -13.35 54.85 -5.55 55.8 -3.6 57.4 -2.8 M56.2 33.5 Q54.4 25.85 49.95 19.3 43.8 10.3 34.1 6.65 43.8 10.3 49.95 19.3 54.4 25.85 56.2 33.5 M11.05 27.45 L10.4 26.35 7.75 24.05 Q4.6 22.1 0.95 22.25 4.6 22.1 7.75 24.05 L10.4 26.35 11.05 27.45 M12.9 25.55 L12.45 24.2 Q11.05 20.5 6.95 19.75 11.05 20.5 12.45 24.2 L12.9 25.55 M15.75 23.3 Q15.75 22.4 15.35 21.7 14.3 19.85 12.65 18.45 L9.8 16.55 12.65 18.45 Q14.3 19.85 15.35 21.7 15.75 22.4 15.75 23.3 M-3.75 -64.05 L-4.6 -63.5 Q-9.25 -59.7 -11.05 -54.0 -9.25 -59.7 -4.6 -63.5 L-3.75 -64.05 M-0.9 -62.8 L-2.55 -60.85 -6.35 -55.75 -2.55 -60.85 -0.9 -62.8 M4.95 -16.35 L-0.2 -15.7 Q-4.6 -14.35 -8.0 -11.3 -9.5 -9.9 -10.6 -7.95 L-11.35 -6.6 -10.6 -7.95 Q-9.5 -9.9 -8.0 -11.3 -4.6 -14.35 -0.2 -15.7 L4.95 -16.35 M-37.7 -23.75 L-37.9 -24.4 -36.5 -24.15 Q-31.7 -21.15 -28.3 -16.75 -24.25 -11.65 -25.75 -5.5 -24.25 -11.65 -28.3 -16.75 -31.7 -21.15 -36.5 -24.15 L-37.9 -24.4 -37.7 -23.75 M-13.95 -27.25 L-15.05 -25.45 Q-18.2 -17.7 -19.9 -9.5 -18.2 -17.7 -15.05 -25.45 L-13.95 -27.25 M-57.3 -16.0 L-56.7 -16.95 -53.75 -20.0 Q-51.55 -21.95 -49.0 -23.25 -47.85 -23.85 -46.4 -23.8 -47.85 -23.85 -49.0 -23.25 -51.55 -21.95 -53.75 -20.0 L-56.7 -16.95 -57.3 -16.0 M-62.9 3.9 Q-59.15 0.5 -54.65 -1.8 -52.1 -3.1 -49.6 -1.85 -52.1 -3.1 -54.65 -1.8 -59.15 0.5 -62.9 3.9 M-60.5 -6.1 Q-56.65 -10.05 -51.4 -11.0 -56.65 -10.05 -60.5 -6.1 M-42.8 10.8 Q-45.2 12.0 -45.75 14.55 -45.2 12.0 -42.8 10.8 M-48.15 3.2 L-48.65 3.25 -51.7 5.1 -53.75 7.2 -51.7 5.1 -48.65 3.25 -48.15 3.2" fill="url(#gradient0)" fill-rule="evenodd" stroke="none"/>
      <path d="M26.4 -23.4 L27.2 -23.8 26.45 -23.3 26.4 -23.4" fill="#3dd2ff" fill-rule="evenodd" stroke="none"/>
      <path d="M-66.8 11.5 L-66.25 11.55 -65.55 10.4 -64.1 10.1 -62.5 12.35 Q-56.75 7.85 -50.0 10.6 L-49.35 11.0 -48.75 11.6 Q-45.6 16.35 -45.25 22.1 L-39.75 16.85 -39.15 15.0 -34.65 16.4 Q-33.65 24.2 -36.05 31.65 -38.4 38.85 -42.8 44.9 L-42.75 46.0 -42.6 48.8 Q-45.35 49.85 -46.2 52.55 L-46.35 53.05 -46.5 53.9 -46.25 58.95 -44.75 57.95 Q-43.95 58.05 -43.3 58.4 -41.6 59.4 -42.0 61.6 -37.75 66.0 -32.75 63.6 -32.4 63.45 -32.3 62.95 -32.05 61.45 -31.05 60.25 -28.35 61.15 -25.95 59.85 L-24.95 58.9 Q-22.8 55.7 -26.1 53.6 -27.65 52.6 -29.3 51.95 L-27.85 48.6 -27.85 44.5 Q-27.85 37.05 -25.5 29.75 -23.35 23.25 -16.8 21.6 L-15.85 25.1 Q-12.05 28.0 -11.15 32.9 L-8.6 30.1 Q-7.3 28.7 -5.65 28.0 -0.75 26.05 4.8 27.15 12.8 28.65 19.55 30.4 L16.4 25.2 22.15 26.85 20.2 19.45 Q24.85 19.45 28.85 22.0 33.4 24.9 36.7 28.85 43.7 37.1 42.35 47.75 L46.25 42.9 46.75 43.85 51.05 45.35 Q49.7 50.6 46.35 55.0 44.8 57.0 43.6 59.3 40.15 66.0 34.8 70.9 37.1 65.15 36.45 58.9 34.95 60.7 33.3 64.15 L30.2 69.85 Q26.7 75.65 22.25 80.6 L19.3 83.75 Q18.45 83.05 19.1 79.55 20.1 74.35 20.45 69.0 20.65 66.05 18.1 63.65 16.1 70.8 10.1 75.1 L10.95 72.4 Q12.0 67.9 11.1 65.1 9.7 70.15 5.35 73.35 2.7 75.2 1.55 74.9 L2.15 73.05 Q4.2 66.3 1.95 59.15 L0.25 60.85 0.2 60.8 -0.05 60.3 -0.55 60.0 Q-0.85 59.7 -0.9 59.95 L-1.3 61.0 Q-1.6 61.75 -3.75 61.95 L-11.3 65.65 -11.3 65.5 -11.8 65.7 -12.6 66.0 Q-21.5 69.3 -23.95 71.3 -26.8 73.55 -30.2 71.85 L-33.85 69.9 -34.65 68.75 -34.95 67.75 Q-35.9 69.85 -39.4 70.2 L-42.75 66.6 -45.4 63.65 Q-47.75 61.2 -47.65 57.6 L-47.55 53.9 -47.55 53.85 -47.55 53.75 -47.35 52.15 -48.6 55.15 -49.15 54.85 -51.25 52.75 Q-54.15 48.7 -54.65 43.8 L-58.05 53.25 Q-62.65 45.65 -60.05 36.85 -63.75 41.1 -65.2 46.6 -68.6 33.95 -65.15 21.5 L-68.45 27.5 Q-68.15 19.6 -66.8 11.5 M34.6 50.0 L34.55 48.15 34.3 44.3 Q34.0 40.95 33.1 37.75 31.9 33.45 29.2 29.85 31.9 33.45 33.1 37.75 34.0 40.95 34.3 44.3 L34.55 48.15 34.6 50.0 M8.9 55.25 Q5.1 55.55 2.45 58.6 L1.95 59.15 2.45 58.6 Q5.1 55.55 8.9 55.25 M-38.5 20.9 L-38.45 22.1 Q-38.35 25.65 -39.1 29.1 -39.75 32.25 -41.05 35.3 L-43.6 41.25 -44.75 44.1 -44.75 44.15 -46.25 47.9 Q-47.0 50.0 -47.35 52.15 -47.0 50.0 -46.25 47.9 L-44.75 44.15 -44.75 44.1 -43.6 41.25 -41.05 35.3 Q-39.75 32.25 -39.1 29.1 -38.35 25.65 -38.45 22.1 L-38.5 20.9 M-13.85 48.35 L-14.55 49.1 -13.85 48.35 M-19.35 44.9 L-19.8 46.05 -19.35 44.9 M-35.2 65.2 Q-35.25 66.55 -34.95 67.75 -35.25 66.55 -35.2 65.2 M-16.55 55.05 Q-17.1 55.55 -17.3 56.5 -17.1 55.55 -16.55 55.05 M-10.9 57.7 L-11.65 58.75 -10.9 57.7 M-3.95 55.1 L-4.4 55.85 -3.95 55.1 M-8.9 51.4 L-9.3 52.5 -8.9 51.4 M-39.35 70.25 L-39.75 70.2 -39.4 70.2 -39.35 70.25" fill="#b6b1a9" fill-rule="evenodd" stroke="none"/>
      <path d="M-16.8 21.6 Q-23.35 23.25 -25.5 29.75 -27.85 37.05 -27.85 44.5 L-27.85 48.6 -29.3 51.95 Q-34.75 50.25 -40.45 49.2 L-42.6 48.8 -42.75 46.0 -42.8 44.9 Q-38.4 38.85 -36.05 31.65 -33.65 24.2 -34.65 16.4 L-39.15 15.0 Q-37.7 11.5 -39.15 8.2 L-39.75 7.2 -39.75 7.15 -39.8 7.2 Q-42.25 5.3 -40.25 2.55 L-39.2 1.4 Q-36.6 3.05 -34.85 5.55 L-32.05 4.2 -30.25 2.45 Q-29.2 0.8 -28.3 0.2 L-27.15 -0.7 -19.95 0.35 Q-14.3 3.35 -7.65 2.75 L-5.7 2.7 -4.85 2.05 -4.5 1.8 -4.45 1.75 -3.6 1.55 Q-2.7 1.35 -1.85 0.95 L-0.7 3.0 Q6.4 3.15 13.05 4.8 8.8 6.25 5.75 9.95 L3.9 11.7 Q0.6 13.95 -2.65 12.25 L-8.55 18.0 -16.8 21.6 M-39.4 70.2 Q-35.9 69.85 -34.95 67.75 L-34.65 68.75 -33.85 69.9 -37.05 70.25 -39.35 70.25 -39.4 70.2" fill="#505047" fill-rule="evenodd" stroke="none"/>
      <path d="M-29.3 51.95 Q-27.65 52.6 -26.1 53.6 -22.8 55.7 -24.95 58.9 L-25.95 59.85 Q-28.35 61.15 -31.05 60.25 -32.05 61.45 -32.3 62.95 -32.4 63.45 -32.75 63.6 -37.75 66.0 -42.0 61.6 -41.6 59.4 -43.3 58.4 -43.95 58.05 -44.75 57.95 L-46.25 58.95 -46.5 53.9 -46.35 53.05 -46.2 52.55 Q-45.35 49.85 -42.6 48.8 L-40.45 49.2 Q-34.75 50.25 -29.3 51.95 M-42.2 50.25 L-43.45 50.55 Q-46.95 52.2 -44.8 53.4 -42.7 54.6 -40.3 55.1 L-36.3 56.0 Q-34.65 56.35 -34.85 55.0 -35.7 49.6 -42.2 50.25" fill="#54512c" fill-rule="evenodd" stroke="none"/>
      <path d="M-42.2 50.25 Q-35.7 49.6 -34.85 55.0 -34.65 56.35 -36.3 56.0 L-40.3 55.1 Q-42.7 54.6 -44.8 53.4 -46.95 52.2 -43.45 50.55 L-42.2 50.25" fill="#7a7241" fill-rule="evenodd" stroke="none"/>
      <path d="M48.85 -48.15 Q50.05 -50.55 49.65 -53.15 L49.1 -56.7 Q47.5 -68.45 38.5 -75.95 L37.2 -77.0 Q35.3 -78.35 33.15 -79.4 L27.15 -82.45 Q22.25 -79.55 18.4 -74.9 L16.6 -72.65 13.95 -69.55 13.85 -69.4 13.8 -69.4 7.6 -62.65 5.35 -60.05 Q3.6 -57.7 4.05 -54.7 M49.8 -46.75 Q49.4 -47.15 49.1 -47.8 M32.5 -47.7 L32.25 -50.95 29.55 -50.05 27.65 -52.95 22.15 -50.55 21.7 -53.15 16.45 -49.15 Q15.9 -58.8 20.2 -66.4 L21.6 -68.6 Q23.2 -70.95 25.3 -73.1 27.45 -75.2 30.45 -75.5 L31.7 -75.25 31.85 -75.2 34.6 -73.5 Q42.4 -67.0 43.45 -56.65 M13.25 -69.9 L6.65 -67.45 8.5 -69.2 8.75 -69.9 Q1.3 -69.45 -5.7 -66.7 L-3.5 -69.0 Q-10.35 -68.75 -15.3 -64.15 M-48.55 -34.5 L-57.1 -21.25 Q-64.45 -10.25 -67.1 2.45 L-62.4 -3.8 Q-65.05 1.75 -66.15 7.65 L-66.8 11.5 Q-68.15 19.6 -68.45 27.5 L-65.15 21.5 Q-68.6 33.95 -65.2 46.6 -63.75 41.1 -60.05 36.85 -62.65 45.65 -58.05 53.25 L-54.65 43.8 Q-54.15 48.7 -51.25 52.75 L-49.15 54.85 -48.6 55.15 -47.35 52.15 -47.55 53.75 -47.55 53.85 -47.55 53.9 -47.65 57.6 Q-47.75 61.2 -45.4 63.65 L-42.75 66.6 -39.4 70.2 -39.35 70.25 M51.05 45.35 L51.1 45.05 51.85 49.1 Q52.15 52.0 51.9 54.95 53.95 53.5 55.2 51.5 59.1 44.95 61.55 36.45 L63.2 43.95 Q65.35 37.45 65.8 30.55 66.25 22.85 66.15 15.1 L66.0 12.5 Q65.8 10.9 66.15 10.85 L67.8 14.55 Q69.5 3.9 66.75 -6.55 L64.95 -14.0 Q63.95 -18.9 62.35 -23.65 L66.55 -19.35 66.65 -19.4 Q63.0 -31.15 56.15 -41.45 54.05 -44.55 50.8 -46.1 50.25 -46.3 49.8 -46.75 M-29.3 51.95 Q-27.65 52.6 -26.1 53.6 -22.8 55.7 -24.95 58.9 L-25.95 59.85 Q-28.35 61.15 -31.05 60.25 -32.05 61.45 -32.3 62.95 -32.4 63.45 -32.75 63.6 -37.75 66.0 -42.0 61.6 -41.6 59.4 -43.3 58.4 -43.95 58.05 -44.75 57.95 L-46.25 58.95 -46.5 53.9 -46.35 53.05 -46.2 52.55 Q-45.35 49.85 -42.6 48.8 L-40.45 49.2 Q-34.75 50.25 -29.3 51.95 M1.95 59.15 Q4.2 66.3 2.15 73.05 L1.55 74.9 Q2.7 75.2 5.35 73.35 9.7 70.15 11.1 65.1 12.0 67.9 10.95 72.4 L10.1 75.1 Q16.1 70.8 18.1 63.65 20.65 66.05 20.45 69.0 20.1 74.35 19.1 79.55 18.45 83.05 19.3 83.75 L22.25 80.6 Q26.7 75.65 30.2 69.85 L33.3 64.15 Q34.95 60.7 36.45 58.9 37.1 65.15 34.8 70.9 40.15 66.0 43.6 59.3 44.8 57.0 46.35 55.0 49.7 50.6 51.05 45.35 M1.95 59.15 L2.45 58.6 Q5.1 55.55 8.9 55.25 M-30.1 -52.35 L-30.95 -55.05 -30.95 -55.15 Q-35.1 -66.95 -46.4 -73.45 -48.3 -74.6 -50.3 -75.6 L-54.2 -77.05 M-54.55 -76.8 L-53.7 -75.55 Q-50.75 -71.35 -48.85 -66.55 -45.1 -57.05 -45.5 -46.9 L-45.75 -44.0 -45.9 -42.2 -45.9 -41.9 -45.85 -41.2 Q-45.8 -38.9 -47.15 -36.75 L-48.55 -34.5 M-42.1 -46.75 L-41.4 -52.05 -40.6 -49.4 -40.3 -55.55 -34.65 -51.15 -33.0 -54.25 -30.8 -52.1 -30.05 -52.05 -30.1 -52.35 M-15.65 -63.6 L-16.2 -63.95 M-16.4 -64.6 Q-18.8 -67.2 -21.85 -69.5 -28.85 -74.85 -36.55 -79.2 -39.05 -80.65 -41.75 -81.45 L-50.65 -83.55 Q-54.9 -84.4 -57.25 -81.7 L-56.5 -79.8 -54.55 -76.8 M-47.35 52.15 Q-47.0 50.0 -46.25 47.9 L-44.75 44.15 -44.75 44.1 -43.6 41.25 -41.05 35.3 Q-39.75 32.25 -39.1 29.1 -38.35 25.65 -38.45 22.1 L-38.5 20.9" fill="none" stroke="#000000" stroke-linecap="round" stroke-linejoin="round" stroke-width="2.0"/>
      <path d="M4.1 -52.6 Q2.95 -49.9 2.9 -47.1 2.8 -42.75 5.5 -39.45 L5.95 -39.25 7.7 -38.85 Q20.75 -35.6 26.4 -23.4 M27.2 -23.8 Q29.0 -25.25 29.15 -27.75 M7.3 -54.8 Q6.05 -58.25 8.85 -60.45 L10.65 -62.15 17.0 -68.7 17.9 -69.55 Q20.35 -71.4 22.2 -73.7 L23.05 -74.55 Q24.7 -75.8 25.95 -77.3 L26.7 -78.05 27.95 -78.25 30.35 -77.75 M-15.65 -63.6 L-14.0 -62.5 -15.7 -60.65 -15.6 -59.7 M-23.7 -50.1 L-22.7 -48.7 Q-22.9 -47.7 -23.4 -47.0 -25.75 -44.05 -29.65 -43.35 -40.1 -41.3 -45.45 -32.55 M-66.25 11.55 L-65.55 10.4 -64.1 10.1 -62.5 12.35 Q-56.75 7.85 -50.0 10.6 L-49.35 11.0 Q-48.75 7.95 -45.95 6.8 L-44.65 6.3 M18.9 -54.5 Q18.5 -57.05 20.4 -59.0 22.1 -60.65 24.0 -61.55 24.35 -59.4 23.9 -57.05 L23.9 -56.25 Q24.95 -57.95 26.55 -59.25 27.4 -59.9 27.75 -59.6 28.5 -59.0 28.6 -57.7 L28.7 -56.45 30.1 -57.7 Q31.25 -58.65 32.25 -58.55 33.15 -58.4 33.5 -57.15 33.85 -55.9 33.8 -54.6 L34.85 -55.3 Q36.15 -56.05 37.35 -56.0 37.9 -55.95 38.2 -55.1 L38.7 -53.05 M42.35 -14.95 Q50.95 -13.35 54.85 -5.55 55.8 -3.6 57.4 -2.8 M42.0 -25.75 Q47.95 -25.5 51.4 -20.35 L51.9 -19.65 M39.5 -2.75 Q48.25 3.0 53.7 12.2 L54.15 12.9 M27.3 12.9 Q35.75 13.9 40.2 21.55 L43.75 27.2 Q46.15 30.7 46.85 34.7 L46.85 36.4 M46.75 43.85 L46.25 42.9 42.35 47.75 Q43.7 37.1 36.7 28.85 33.4 24.9 28.85 22.0 24.85 19.45 20.2 19.45 L22.15 26.85 16.4 25.2 19.55 30.4 Q12.8 28.65 4.8 27.15 -0.75 26.05 -5.65 28.0 -7.3 28.7 -8.6 30.1 L-11.15 32.9 Q-12.05 28.0 -15.85 25.1 M-16.8 21.6 Q-23.35 23.25 -25.5 29.75 -27.85 37.05 -27.85 44.5 L-27.85 48.6 M-42.75 46.0 L-42.8 44.9 Q-38.4 38.85 -36.05 31.65 -33.65 24.2 -34.65 16.4 M-39.75 16.85 L-45.25 22.1 Q-45.6 16.35 -48.75 11.6 L-49.35 11.0 M34.1 6.65 Q43.8 10.3 49.95 19.3 54.4 25.85 56.2 33.5 M9.8 16.55 L12.65 18.45 Q14.3 19.85 15.35 21.7 15.75 22.4 15.75 23.3 M6.95 19.75 Q11.05 20.5 12.45 24.2 L12.9 25.55 M0.95 22.25 Q4.6 22.1 7.75 24.05 L10.4 26.35 11.05 27.45 M29.2 29.85 Q31.9 33.45 33.1 37.75 34.0 40.95 34.3 44.3 L34.55 48.15 34.6 50.0 M-54.05 -80.6 Q-52.6 -81.9 -51.05 -80.9 -48.6 -79.3 -45.65 -78.8 L-43.95 -78.35 Q-38.5 -76.6 -33.2 -74.15 -30.95 -73.15 -29.35 -71.35 -27.5 -69.25 -25.05 -68.0 M-43.05 -53.45 Q-44.25 -57.5 -43.2 -61.5 L-42.8 -62.1 Q-40.85 -60.55 -40.5 -57.95 L-40.2 -56.95 -40.1 -59.65 -40.0 -60.8 -38.8 -59.6 -37.0 -57.0 M-23.7 -50.1 L-25.5 -52.6 M-11.05 -54.0 Q-9.25 -59.7 -4.6 -63.5 L-3.75 -64.05 M-6.35 -55.75 L-2.55 -60.85 -0.9 -62.8 M-51.4 -11.0 Q-56.65 -10.05 -60.5 -6.1 M-49.6 -1.85 Q-52.1 -3.1 -54.65 -1.8 -59.15 0.5 -62.9 3.9 M-46.4 -23.8 Q-47.85 -23.85 -49.0 -23.25 -51.55 -21.95 -53.75 -20.0 L-56.7 -16.95 -57.3 -16.0 M-19.9 -9.5 Q-18.2 -17.7 -15.05 -25.45 L-13.95 -27.25 M-25.75 -5.5 Q-24.25 -11.65 -28.3 -16.75 -31.7 -21.15 -36.5 -24.15 L-37.9 -24.4 -37.7 -23.75 M-11.35 -6.6 L-10.6 -7.95 Q-9.5 -9.9 -8.0 -11.3 -4.6 -14.35 -0.2 -15.7 L4.95 -16.35 M-16.8 21.6 L-8.55 18.0 M-19.8 46.05 L-19.35 44.9 M-14.55 49.1 L-13.85 48.35 M-53.75 7.2 L-51.7 5.1 -48.65 3.25 -48.15 3.2 M-45.75 14.55 Q-45.2 12.0 -42.8 10.8 M-39.4 70.2 Q-35.9 69.85 -34.95 67.75 -35.25 66.55 -35.2 65.2 M-9.3 52.5 L-8.9 51.4 M-4.4 55.85 L-3.95 55.1 M-11.65 58.75 L-10.9 57.7 M-17.3 56.5 Q-17.1 55.55 -16.55 55.05 M-11.3 65.5 L-11.8 65.7 -12.6 66.0 Q-21.5 69.3 -23.95 71.3 -26.8 73.55 -30.2 71.85 L-33.85 69.9 -37.05 70.25 -39.35 70.25 -39.75 70.2 -39.4 70.2 M-33.85 69.9 L-34.65 68.75 -34.95 67.75" fill="none" stroke="#666666" stroke-linecap="round" stroke-linejoin="round" stroke-width="2.0"/>
      <path d="M29.95 -29.45 Q32.6 -34.65 37.85 -37.3 L42.65 -39.75 Q44.6 -40.75 46.15 -42.45 L46.65 -42.85 47.0 -43.3 Q47.55 -44.55 48.5 -45.45 M42.95 -55.15 Q42.6 -52.05 40.25 -50.1 L39.75 -49.7 38.3 -48.85 Q37.3 -48.3 36.35 -48.0 L34.8 -47.9 M-17.15 -58.95 L-18.55 -56.8 Q-19.5 -55.35 -20.75 -54.05 -21.9 -52.9 -22.05 -51.3" fill="none" stroke="#5a4d36" stroke-linecap="round" stroke-linejoin="round" stroke-width="2.0"/>
      <path d="M-11.8 65.7 L-11.35 65.55 -11.3 65.5" fill="none" stroke="#000000" stroke-linecap="round" stroke-linejoin="round" stroke-width="1.5"/>
    </g>
    </g>
  </g>
  <defs>
    <radialGradient cx="0" cy="0" gradientTransform="matrix(0.0652, 0.0185, -0.0272, 0.0959, -20.3, -4.2)" gradientUnits="userSpaceOnUse" id="gradient0" r="819.2" spreadMethod="pad">
      <stop offset="0.0" stop-color="#505047"/>
      <stop offset="1.0" stop-color="#818172"/>
    </radialGradient>
  </defs>
</svg>