<svg xmlns:xlink="http://www.w3.org/1999/xlink" xmlns="http://www.w3.org/2000/svg" height="196.5px" width="143.65px">
  <g transform="matrix(1.0, 0.0, 0.0, 1.0, 68.95, 84.25)">
    <g data-characterId="1680" height="195.3" transform="matrix(1.0, 0.0, 0.0, 1.0, -66.35, -83.05)" width="141.05" xlink:href="#shape0"><g id="shape0" transform="matrix(1.0, 0.0, 0.0, 1.0, 66.35, 83.05)">
      <path d="M43.45 -56.65 L44.0 -55.8 42.95 -55.15 Q42.6 -52.05 40.25 -50.1 L39.75 -49.7 38.3 -48.85 Q37.3 -48.3 36.35 -48.0 L34.8 -47.9 32.5 -47.7 32.25 -50.95 29.55 -50.05 27.65 -52.95 22.15 -50.55 21.7 -53.15 16.45 -49.15 Q15.9 -58.8 20.2 -66.4 L21.6 -68.6 Q23.2 -70.95 25.3 -73.1 27.45 -75.2 30.45 -75.5 L31.7 -75.25 31.85 -75.2 34.6 -73.5 Q42.4 -67.0 43.45 -56.65 M38.7 -53.05 L38.2 -55.1 Q37.9 -55.95 37.35 -56.0 36.15 -56.05 34.85 -55.3 L33.8 -54.6 Q33.85 -55.9 33.5 -57.15 33.15 -58.4 32.25 -58.55 31.25 -58.65 30.1 -57.7 L28.7 -56.45 28.6 -57.7 Q28.5 -59.0 27.75 -59.6 27.4 -59.9 26.55 -59.25 24.95 -57.95 23.9 -56.25 L23.9 -57.05 Q24.35 -59.4 24.0 -61.55 22.1 -60.65 20.4 -59.0 18.5 -57.05 18.9 -54.5 18.5 -57.05 20.4 -59.0 22.1 -60.65 24.0 -61.55 24.35 -59.4 23.9 -57.05 L23.9 -56.25 Q24.95 -57.95 26.55 -59.25 27.4 -59.9 27.75 -59.6 28.5 -59.0 28.6 -57.7 L28.7 -56.45 30.1 -57.7 Q31.25 -58.65 32.25 -58.55 33.15 -58.4 33.5 -57.15 33.85 -55.9 33.8 -54.6 L34.85 -55.3 Q36.15 -56.05 37.35 -56.0 37.9 -55.95 38.2 -55.1 L38.7 -53.05 M-37.0 -57.0 L-38.8 -59.6 -40.0 -60.8 -40.1 -59.65 -40.2 -56.95 -40.5 -57.95 Q-40.85 -60.55 -42.8 -62.1 L-43.2 -61.5 Q-44.25 -57.5 -43.05 -53.45 -44.25 -57.5 -43.2 -61.5 L-42.8 -62.1 Q-40.85 -60.55 -40.5 -57.95 L-40.2 -56.95 -40.1 -59.65 -40.0 -60.8 -38.8 -59.6 -37.0 -57.0 M-30.8 -52.1 L-33.0 -54.25 -34.65 -51.15 -40.3 -55.55 -40.6 -49.4 -41.4 -52.05 -42.1 -46.75 -44.45 -46.2 -44.85 -49.75 -44.9 -50.05 Q-45.8 -56.4 -47.45 -62.05 -49.75 -70.0 -54.55 -76.8 L-54.2 -77.05 -50.3 -75.6 Q-48.3 -74.6 -46.4 -73.45 -35.1 -66.95 -30.95 -55.15 L-30.95 -55.05 -30.1 -52.35 -30.8 -52.1" fill="#be9330" fill-rule="evenodd" stroke="none"/>
      <path d="M42.95 -55.15 L44.0 -55.8 43.45 -56.65 Q42.4 -67.0 34.6 -73.5 L31.85 -75.2 31.7 -75.25 30.45 -75.5 Q27.45 -75.2 25.3 -73.1 23.2 -70.95 21.6 -68.6 L20.2 -66.4 Q15.9 -58.8 16.45 -49.15 L21.7 -53.15 22.15 -50.55 27.65 -52.95 29.55 -50.05 32.25 -50.95 32.5 -47.7 34.8 -47.9 36.35 -48.0 Q37.3 -48.3 38.3 -48.85 L39.75 -49.7 40.25 -50.1 Q42.6 -52.05 42.95 -55.15 M13.85 -69.4 L13.95 -69.55 16.6 -72.65 18.4 -74.9 Q22.25 -79.55 27.15 -82.45 L33.15 -79.4 Q35.3 -78.35 37.2 -77.0 L38.5 -75.95 Q47.5 -68.45 49.1 -56.7 L49.65 -53.15 49.65 -53.1 Q76.85 -36.9 73.9 -5.95 L73.4 -3.0 Q76.3 25.95 62.0 51.5 58.35 58.05 57.35 65.55 L57.2 66.8 58.45 76.95 Q57.0 75.55 56.05 73.85 L54.2 70.0 54.05 69.65 Q49.7 59.25 51.65 47.6 52.15 44.55 53.1 41.4 54.65 36.15 55.55 31.05 59.5 8.15 50.0 -11.65 L48.55 -14.45 50.0 -11.65 Q59.5 8.15 55.55 31.05 54.65 36.15 53.1 41.4 52.15 44.55 51.65 47.6 49.7 59.25 54.05 69.65 L54.2 70.0 Q52.8 76.9 53.15 80.65 L53.6 89.1 43.6 80.7 Q39.45 74.45 38.0 67.65 37.35 64.85 37.25 62.0 L37.2 58.95 Q37.35 52.55 39.6 45.75 41.0 41.55 41.6 37.6 42.8 29.4 40.55 22.1 38.65 16.05 34.45 10.6 38.65 16.05 40.55 22.1 42.8 29.4 41.6 37.6 40.15 32.95 36.7 28.85 33.4 24.9 28.85 22.0 24.85 19.45 20.2 19.45 L22.15 26.85 16.4 25.2 19.55 30.4 Q12.8 28.65 4.8 27.15 -0.75 26.05 -5.65 28.0 -7.3 28.7 -8.6 30.1 L-11.15 32.9 Q-12.05 28.0 -15.85 25.1 L-16.8 21.6 Q-23.35 23.25 -25.5 29.75 -27.85 37.05 -27.85 44.5 L-27.85 48.6 -29.3 51.95 Q-34.75 50.25 -40.45 49.2 L-42.6 48.8 -42.75 46.0 -42.8 44.9 Q-38.4 38.85 -36.05 31.65 -33.65 24.2 -34.65 16.4 L-39.15 15.0 -39.75 16.85 -45.25 22.1 -45.35 21.65 -52.15 22.85 -52.4 23.5 Q-54.9 30.45 -55.5 38.6 L-55.65 46.65 -55.7 47.75 Q-55.85 49.95 -56.55 52.0 L-56.6 52.0 -57.05 49.3 -57.35 48.2 -58.1 46.35 -60.65 38.4 Q-62.6 32.15 -62.35 28.25 -62.1 24.35 -62.15 21.5 -64.6 18.45 -65.7 10.35 -66.85 2.2 -60.1 -10.05 L-60.45 -12.2 Q-60.65 -19.45 -56.05 -26.45 -51.5 -33.45 -45.0 -49.8 L-44.85 -49.75 -44.45 -46.2 -42.1 -46.75 -41.4 -52.05 -40.6 -49.4 -40.3 -55.55 -34.65 -51.15 -33.0 -54.25 -30.8 -52.1 -30.05 -52.05 -30.1 -52.35 -30.95 -55.05 -30.95 -55.15 Q-35.1 -66.95 -46.4 -73.45 -48.3 -74.6 -50.3 -75.6 L-54.2 -77.05 -54.55 -76.8 -57.25 -81.7 Q-50.75 -83.3 -44.2 -81.85 -35.8 -79.8 -28.8 -74.85 -22.2 -70.2 -16.4 -64.6 L-16.2 -63.95 -15.65 -63.6 -15.3 -64.15 Q-10.35 -68.75 -3.5 -69.0 L-5.7 -66.7 Q1.3 -69.45 8.75 -69.9 L8.5 -69.2 6.65 -67.45 13.25 -69.9 13.85 -69.4 13.8 -69.4 7.6 -62.65 5.35 -60.05 Q3.6 -57.7 4.05 -54.7 3.6 -57.7 5.35 -60.05 L7.6 -62.65 13.8 -69.4 13.85 -69.4 M30.35 -77.75 L27.95 -78.25 26.7 -78.05 25.95 -77.3 Q24.7 -75.8 23.05 -74.55 L22.2 -73.7 Q20.35 -71.4 17.9 -69.55 L17.0 -68.7 10.65 -62.15 8.85 -60.45 Q6.05 -58.25 7.3 -54.8 6.05 -58.25 8.85 -60.45 L10.65 -62.15 17.0 -68.7 17.9 -69.55 Q20.35 -71.4 22.2 -73.7 L23.05 -74.55 Q24.7 -75.8 25.95 -77.3 L26.7 -78.05 27.95 -78.25 30.35 -77.75 M-15.6 -59.7 L-15.7 -60.65 -14.0 -62.5 -15.65 -63.6 -14.0 -62.5 -15.7 -60.65 -15.6 -59.7 M29.15 -27.75 Q29.0 -25.25 27.2 -23.8 29.0 -25.25 29.15 -27.75 M27.2 -23.8 L26.4 -23.4 26.45 -23.3 27.2 -23.8 M48.5 -45.45 Q47.55 -44.55 47.0 -43.3 L46.65 -42.85 46.15 -42.45 Q44.6 -40.75 42.65 -39.75 L37.85 -37.3 Q32.6 -34.65 29.95 -29.45 32.6 -34.65 37.85 -37.3 L42.65 -39.75 Q44.6 -40.75 46.15 -42.45 L46.65 -42.85 47.0 -43.3 Q47.55 -44.55 48.5 -45.45 M60.75 -33.7 Q67.4 -22.9 71.2 -10.25 L73.4 -3.0 71.2 -10.25 Q67.4 -22.9 60.75 -33.7 M48.85 -48.15 Q50.05 -50.55 49.65 -53.1 50.05 -50.55 48.85 -48.15 M54.45 57.7 Q56.0 50.3 59.2 43.4 63.3 34.55 65.5 25.05 68.6 11.5 66.9 -2.15 65.15 -16.5 58.2 -28.95 65.15 -16.5 66.9 -2.15 68.6 11.5 65.5 25.05 63.3 34.55 59.2 43.4 56.0 50.3 54.45 57.7 M70.3 -19.05 L69.7 -22.25 Q66.45 -37.7 54.0 -46.6 66.45 -37.7 69.7 -22.25 L70.3 -19.05 M51.2 45.3 L51.1 45.05 51.05 45.3 51.05 45.35 51.2 45.35 51.2 45.3 M12.9 25.55 L12.45 24.2 Q11.05 20.5 6.95 19.75 11.05 20.5 12.45 24.2 L12.9 25.55 M15.75 23.3 Q15.75 22.4 15.35 21.7 14.3 19.85 12.65 18.45 L9.8 16.55 12.65 18.45 Q14.3 19.85 15.35 21.7 15.75 22.4 15.75 23.3 M11.05 27.45 L10.4 26.35 7.75 24.05 Q4.6 22.1 0.95 22.25 4.6 22.1 7.75 24.05 L10.4 26.35 11.05 27.45 M50.5 69.7 Q49.55 68.05 49.0 66.3 45.95 56.35 47.4 45.75 L51.05 18.4 Q52.9 3.95 47.85 -9.45 52.9 3.95 51.05 18.4 L47.4 45.75 Q45.95 56.35 49.0 66.3 49.55 68.05 50.5 69.7 M-25.05 -68.0 Q-27.5 -69.25 -29.35 -71.35 -30.95 -73.15 -33.2 -74.15 -38.5 -76.6 -43.95 -78.35 L-45.65 -78.8 Q-48.6 -79.3 -51.05 -80.9 -52.6 -81.9 -54.05 -80.6 -52.6 -81.9 -51.05 -80.9 -48.6 -79.3 -45.65 -78.8 L-43.95 -78.35 Q-38.5 -76.6 -33.2 -74.15 -30.95 -73.15 -29.35 -71.35 -27.5 -69.25 -25.05 -68.0 M-22.05 -51.3 Q-21.9 -52.9 -20.75 -54.05 -19.5 -55.35 -18.55 -56.8 L-17.15 -58.95 -18.55 -56.8 Q-19.5 -55.35 -20.75 -54.05 -21.9 -52.9 -22.05 -51.3 M-3.75 -64.05 L-4.6 -63.5 Q-9.25 -59.7 -11.05 -54.0 -9.25 -59.7 -4.6 -63.5 L-3.75 -64.05 M-0.9 -62.8 L-2.55 -60.85 -6.35 -55.75 -2.55 -60.85 -0.9 -62.8 M-46.95 -33.25 Q-49.75 -25.0 -54.3 -18.95 -58.9 -12.95 -60.1 -10.05 -58.9 -12.95 -54.3 -18.95 -49.75 -25.0 -46.95 -33.25 M4.95 -16.35 L-0.2 -15.7 Q-4.6 -14.35 -8.0 -11.3 -9.5 -9.9 -10.6 -7.95 L-11.35 -6.6 -10.6 -7.95 Q-9.5 -9.9 -8.0 -11.3 -4.6 -14.35 -0.2 -15.7 L4.95 -16.35 M-37.7 -23.75 L-37.9 -24.4 -36.5 -24.15 Q-31.7 -21.15 -28.3 -16.75 -24.25 -11.65 -25.75 -5.5 -24.25 -11.65 -28.3 -16.75 -31.7 -21.15 -36.5 -24.15 L-37.9 -24.4 -37.7 -23.75 M-13.95 -27.25 L-15.05 -25.45 Q-18.2 -17.7 -19.9 -9.5 -18.2 -17.7 -15.05 -25.45 L-13.95 -27.25 M-43.8 -43.15 L-44.25 -42.65 Q-50.4 -31.2 -57.05 -19.85 -50.4 -31.2 -44.25 -42.65 L-43.8 -43.15 M-43.2 -32.3 L-54.95 -14.4 Q-62.75 -2.8 -63.5 10.7 -62.75 -2.8 -54.95 -14.4 L-43.2 -32.3 M-25.5 -52.6 L-22.7 -48.7 -25.5 -52.6 M-8.55 18.0 L-16.8 21.6 -8.55 18.0 M-39.8 7.2 L-39.75 7.2 -39.75 7.15 -39.8 7.2 M-48.1 14.4 Q-50.55 18.4 -52.15 22.85 -50.55 18.4 -48.1 14.4 M-48.8 -7.0 Q-55.4 1.6 -58.05 7.1 -60.75 12.55 -62.15 21.5 -60.75 12.55 -58.05 7.1 -55.4 1.6 -48.8 -7.0 M-44.4 -0.5 Q-51.3 3.45 -55.65 10.3 -63.4 22.75 -59.8 36.9 -63.4 22.75 -55.65 10.3 -51.3 3.45 -44.4 -0.5" fill="url(#gradient0)" fill-rule="evenodd" stroke="none"/>
      <path d="M27.2 -23.8 L26.45 -23.3 26.4 -23.4 27.2 -23.8" fill="#3dd2ff" fill-rule="evenodd" stroke="none"/>
      <path d="M41.6 37.6 Q41.0 41.55 39.6 45.75 37.35 52.55 37.2 58.95 L37.25 62.0 Q37.35 64.85 38.0 67.65 39.45 74.45 43.6 80.7 L43.35 81.95 Q38.2 99.55 17.85 99.7 18.65 96.8 19.85 94.55 17.8 95.25 17.45 95.55 8.5 101.0 6.95 111.75 -7.05 93.65 9.1 74.3 L11.15 71.6 Q11.9 67.65 11.1 65.1 9.7 70.15 5.35 73.35 2.7 75.2 1.55 74.9 L2.15 73.05 Q4.2 66.3 1.95 59.15 L2.45 58.6 Q5.1 55.55 8.9 55.25 5.1 55.55 2.45 58.6 L1.95 59.15 0.25 60.85 0.2 60.8 Q0.1 60.55 -0.15 61.05 -0.35 60.2 -0.55 60.4 L-1.0 60.8 -1.6 61.2 -3.75 61.95 -11.3 65.65 -11.3 65.5 -11.8 65.7 -12.6 66.0 Q-21.5 69.3 -23.95 71.3 -26.8 73.55 -30.2 71.85 L-33.85 69.9 -34.65 68.75 -34.95 67.75 Q-35.9 69.85 -39.4 70.2 L-42.75 66.6 -45.4 63.65 -46.45 62.25 Q-48.85 66.75 -48.45 71.3 L-49.0 70.65 Q-53.25 64.2 -51.7 56.45 -52.55 59.8 -54.45 62.9 -56.35 65.9 -59.4 67.65 L-58.0 63.7 Q-55.8 57.15 -56.35 53.65 L-56.55 52.35 -56.55 52.0 Q-55.85 49.95 -55.7 47.75 L-55.65 46.65 -55.5 38.6 Q-54.9 30.45 -52.4 23.5 L-52.15 22.85 -45.35 21.65 -45.25 22.1 -39.75 16.85 -39.15 15.0 -34.65 16.4 Q-33.65 24.2 -36.05 31.65 -38.4 38.85 -42.8 44.9 L-42.75 46.0 -42.6 48.8 Q-45.35 49.85 -46.2 52.55 L-46.35 53.05 -46.5 53.9 -46.25 58.95 -44.75 57.95 Q-43.95 58.05 -43.3 58.4 -41.6 59.4 -42.0 61.6 -38.8 64.9 -35.2 64.4 -34.0 64.2 -32.75 63.6 -32.4 63.45 -32.3 62.95 -32.05 61.45 -31.05 60.25 -28.35 61.15 -25.95 59.85 L-24.95 58.9 Q-22.8 55.7 -26.1 53.6 -27.65 52.6 -29.3 51.95 L-27.85 48.6 -27.85 44.5 Q-27.85 37.05 -25.5 29.75 -23.35 23.25 -16.8 21.6 L-15.85 25.1 Q-12.05 28.0 -11.15 32.9 L-8.6 30.1 Q-7.3 28.7 -5.65 28.0 -0.75 26.05 4.8 27.15 12.8 28.65 19.55 30.4 L16.4 25.2 22.15 26.85 20.2 19.45 Q24.85 19.45 28.85 22.0 33.4 24.9 36.7 28.85 40.15 32.95 41.6 37.6 M-47.4 43.1 Q-50.85 50.7 -51.7 56.15 L-51.7 56.45 -51.7 56.15 Q-50.85 50.7 -47.4 43.1 M24.15 58.45 Q23.9 64.1 21.15 69.0 17.75 75.05 12.7 80.3 2.45 91.1 6.0 105.3 2.45 91.1 12.7 80.3 17.75 75.05 21.15 69.0 23.9 64.1 24.15 58.45 M34.6 50.0 L34.55 48.15 34.3 44.3 Q34.0 40.95 33.1 37.75 31.9 33.45 29.2 29.85 31.9 33.45 33.1 37.75 34.0 40.95 34.3 44.3 L34.55 48.15 34.6 50.0 M14.6 52.1 Q17.3 62.4 11.15 71.6 17.3 62.4 14.6 52.1 M24.85 33.2 Q34.1 51.35 30.2 69.85 28.55 77.5 24.7 85.2 L19.85 94.55 24.7 85.2 Q28.55 77.5 30.2 69.85 34.1 51.35 24.85 33.2 M38.65 78.05 L36.95 85.65 Q35.5 92.3 24.1 94.9 35.5 92.3 36.95 85.65 L38.65 78.05 M-38.5 20.9 L-38.45 22.1 Q-38.35 25.65 -39.1 29.1 L-39.95 32.4 -41.05 35.3 -43.6 41.25 -44.75 44.1 -44.75 44.15 -46.25 47.9 Q-47.0 50.0 -47.35 52.15 L-47.55 53.75 -47.55 53.85 -47.55 53.9 -47.65 57.6 Q-47.7 60.25 -46.45 62.25 -47.7 60.25 -47.65 57.6 L-47.55 53.9 -47.55 53.85 -47.55 53.75 -47.35 52.15 Q-47.0 50.0 -46.25 47.9 L-44.75 44.15 -44.75 44.1 -43.6 41.25 -41.05 35.3 -39.95 32.4 -39.1 29.1 Q-38.35 25.65 -38.45 22.1 L-38.5 20.9 M-13.85 48.35 L-14.55 49.1 -13.85 48.35 M-19.35 44.9 L-19.8 46.05 -19.35 44.9 M-10.9 57.7 L-11.65 58.75 -10.9 57.7 M-16.55 55.05 Q-17.1 55.55 -17.3 56.5 -17.1 55.55 -16.55 55.05 M-3.95 55.1 L-4.4 55.85 -3.95 55.1 M-8.9 51.4 L-9.3 52.5 -8.9 51.4 M-35.2 65.2 Q-35.25 66.55 -34.95 67.75 -35.25 66.55 -35.2 65.2" fill="url(#gradient1)" fill-rule="evenodd" stroke="none"/>
      <path d="M0.25 60.85 L0.2 60.8 0.25 60.85 M-39.35 70.25 L-39.75 70.2 -39.4 70.2 -39.35 70.25" fill="#b6b1a9" fill-rule="evenodd" stroke="none"/>
      <path d="M-29.3 51.95 Q-27.65 52.6 -26.1 53.6 -22.8 55.7 -24.95 58.9 L-25.95 59.85 Q-28.35 61.15 -31.05 60.25 -32.05 61.45 -32.3 62.95 -32.4 63.45 -32.75 63.6 -34.0 64.2 -35.2 64.4 -38.8 64.9 -42.0 61.6 -41.6 59.4 -43.3 58.4 -43.95 58.05 -44.75 57.95 L-46.25 58.95 -46.5 53.9 -46.35 53.05 -46.2 52.55 Q-45.35 49.85 -42.6 48.8 L-40.45 49.2 Q-34.75 50.25 -29.3 51.95 M-33.85 69.9 L-37.05 70.25 -39.35 70.25 -39.4 70.2 Q-35.9 69.85 -34.95 67.75 L-34.65 68.75 -33.85 69.9 M-42.2 50.25 L-43.45 50.55 Q-46.95 52.2 -44.8 53.4 -42.7 54.6 -40.3 55.1 L-36.3 56.0 Q-34.65 56.35 -34.85 55.0 -35.7 49.6 -42.2 50.25" fill="#9c8441" fill-rule="evenodd" stroke="none"/>
      <path d="M-42.2 50.25 Q-35.7 49.6 -34.85 55.0 -34.65 56.35 -36.3 56.0 L-40.3 55.1 Q-42.7 54.6 -44.8 53.4 -46.95 52.2 -43.45 50.55 L-42.2 50.25" fill="#bcb15c" fill-rule="evenodd" stroke="none"/>
      <path d="M32.5 -47.7 L32.25 -50.95 29.55 -50.05 27.65 -52.95 22.15 -50.55 21.7 -53.15 16.45 -49.15 Q15.9 -58.8 20.2 -66.4 L21.6 -68.6 Q23.2 -70.95 25.3 -73.1 27.45 -75.2 30.45 -75.5 L31.7 -75.25 31.85 -75.2 34.6 -73.5 Q42.4 -67.0 43.45 -56.65 M49.65 -53.1 L49.65 -53.15 49.1 -56.7 Q47.5 -68.45 38.5 -75.95 L37.2 -77.0 Q35.3 -78.35 33.15 -79.4 L27.15 -82.45 Q22.25 -79.55 18.4 -74.9 L16.6 -72.65 13.95 -69.55 13.85 -69.4 13.8 -69.4 7.6 -62.65 5.35 -60.05 Q3.6 -57.7 4.05 -54.7 M13.25 -69.9 L6.65 -67.45 8.5 -69.2 8.75 -69.9 Q1.3 -69.45 -5.7 -66.7 L-3.5 -69.0 Q-10.35 -68.75 -15.3 -64.15 M48.55 -14.45 L50.0 -11.65 Q59.5 8.15 55.55 31.05 54.65 36.15 53.1 41.4 52.15 44.55 51.65 47.6 49.7 59.25 54.05 69.65 L54.2 70.0 56.05 73.85 Q57.0 75.55 58.45 76.95 L57.2 66.8 57.35 65.55 Q58.35 58.05 62.0 51.5 76.3 25.95 73.4 -3.0 L71.2 -10.25 Q67.4 -22.9 60.75 -33.7 M73.4 -3.0 L73.9 -5.95 Q76.85 -36.9 49.65 -53.1 50.05 -50.55 48.85 -48.15 M34.45 10.6 Q38.65 16.05 40.55 22.1 42.8 29.4 41.6 37.6 41.0 41.55 39.6 45.75 37.35 52.55 37.2 58.95 L37.25 62.0 Q37.35 64.85 38.0 67.65 39.45 74.45 43.6 80.7 L53.6 89.1 53.15 80.65 Q52.8 76.9 54.2 70.0 M-29.3 51.95 Q-27.65 52.6 -26.1 53.6 -22.8 55.7 -24.95 58.9 L-25.95 59.85 Q-28.35 61.15 -31.05 60.25 -32.05 61.45 -32.3 62.95 -32.4 63.45 -32.75 63.6 -34.0 64.2 -35.2 64.4 -38.8 64.9 -42.0 61.6 -41.6 59.4 -43.3 58.4 -43.95 58.05 -44.75 57.95 L-46.25 58.95 -46.5 53.9 -46.35 53.05 -46.2 52.55 Q-45.35 49.85 -42.6 48.8 L-40.45 49.2 Q-34.75 50.25 -29.3 51.95 M-52.15 22.85 L-52.4 23.5 Q-54.9 30.45 -55.5 38.6 L-55.65 46.65 -55.7 47.75 Q-55.85 49.95 -56.55 52.0 L-56.55 52.35 -56.35 53.65 Q-55.8 57.15 -58.0 63.7 L-59.4 67.65 Q-56.35 65.9 -54.45 62.9 -52.55 59.8 -51.7 56.45 L-51.7 56.15 Q-50.85 50.7 -47.4 43.1 M1.95 59.15 L2.45 58.6 Q5.1 55.55 8.9 55.25 M-39.4 70.2 L-42.75 66.6 -45.4 63.65 -46.45 62.25 Q-48.85 66.75 -48.45 71.3 L-49.0 70.65 Q-53.25 64.2 -51.7 56.45 M1.95 59.15 Q4.2 66.3 2.15 73.05 L1.55 74.9 Q2.7 75.2 5.35 73.35 9.7 70.15 11.1 65.1 11.9 67.65 11.15 71.6 17.3 62.4 14.6 52.1 M11.15 71.6 L9.1 74.3 Q-7.05 93.65 6.95 111.75 8.5 101.0 17.45 95.55 17.8 95.25 19.85 94.55 L24.7 85.2 Q28.55 77.5 30.2 69.85 34.1 51.35 24.85 33.2 M43.6 80.7 L43.35 81.95 Q38.2 99.55 17.85 99.7 18.65 96.8 19.85 94.55 M-42.1 -46.75 L-41.4 -52.05 -40.6 -49.4 -40.3 -55.55 -34.65 -51.15 -33.0 -54.25 -30.8 -52.1 -30.05 -52.05 -30.1 -52.35 -30.95 -55.05 -30.95 -55.15 Q-35.1 -66.95 -46.4 -73.45 -48.3 -74.6 -50.3 -75.6 L-54.2 -77.05 M-54.55 -76.8 Q-49.75 -70.0 -47.45 -62.05 -45.8 -56.4 -44.9 -50.05 L-44.85 -49.75 -44.45 -46.2 M-15.65 -63.6 L-16.2 -63.95 M-16.4 -64.6 Q-22.2 -70.2 -28.8 -74.85 -35.8 -79.8 -44.2 -81.85 -50.75 -83.3 -57.25 -81.7 L-54.55 -76.8 M-44.9 -50.05 L-45.0 -49.8 Q-51.5 -33.45 -56.05 -26.45 -60.65 -19.45 -60.45 -12.2 L-60.1 -10.05 Q-58.9 -12.95 -54.3 -18.95 -49.75 -25.0 -46.95 -33.25 M-46.45 62.25 Q-47.7 60.25 -47.65 57.6 L-47.55 53.9 -47.55 53.85 -47.55 53.75 -47.35 52.15 Q-47.0 50.0 -46.25 47.9 L-44.75 44.15 -44.75 44.1 -43.6 41.25 -41.05 35.3 -39.95 32.4 -39.1 29.1 Q-38.35 25.65 -38.45 22.1 L-38.5 20.9 M-52.15 22.85 Q-50.55 18.4 -48.1 14.4 M-60.1 -10.05 Q-66.85 2.2 -65.7 10.35 -64.6 18.45 -62.15 21.5 -60.75 12.55 -58.05 7.1 -55.4 1.6 -48.8 -7.0 M-56.6 52.0 L-57.05 49.3 -57.35 48.2 -58.1 46.35 -60.65 38.4 Q-62.6 32.15 -62.35 28.25 -62.1 24.35 -62.15 21.5 M-56.6 52.0 L-56.55 52.35 M-39.4 70.2 L-39.35 70.25" fill="none" stroke="#000000" stroke-linecap="round" stroke-linejoin="round" stroke-width="2.0"/>
      <path d="M7.3 -54.8 Q6.05 -58.25 8.85 -60.45 L10.65 -62.15 17.0 -68.7 17.9 -69.55 Q20.35 -71.4 22.2 -73.7 L23.05 -74.55 Q24.7 -75.8 25.95 -77.3 L26.7 -78.05 27.95 -78.25 30.35 -77.75 M-15.65 -63.6 L-14.0 -62.5 -15.7 -60.65 -15.6 -59.7 M27.2 -23.8 Q29.0 -25.25 29.15 -27.75 M29.95 -29.45 Q32.6 -34.65 37.85 -37.3 L42.65 -39.75 Q44.6 -40.75 46.15 -42.45 L46.65 -42.85 47.0 -43.3 Q47.55 -44.55 48.5 -45.45 M-54.05 -80.6 Q-52.6 -81.9 -51.05 -80.9 -48.6 -79.3 -45.65 -78.8 L-43.95 -78.35 Q-38.5 -76.6 -33.2 -74.15 -30.95 -73.15 -29.35 -71.35 -27.5 -69.25 -25.05 -68.0 M-17.15 -58.95 L-18.55 -56.8 Q-19.5 -55.35 -20.75 -54.05 -21.9 -52.9 -22.05 -51.3 M-22.7 -48.7 L-25.5 -52.6" fill="none" stroke="#fff9ad" stroke-linecap="round" stroke-linejoin="round" stroke-width="2.0"/>
      <path d="M18.9 -54.5 Q18.5 -57.05 20.4 -59.0 22.1 -60.65 24.0 -61.55 24.35 -59.4 23.9 -57.05 L23.9 -56.25 Q24.95 -57.95 26.55 -59.25 27.4 -59.9 27.75 -59.6 28.5 -59.0 28.6 -57.7 L28.7 -56.45 30.1 -57.7 Q31.25 -58.65 32.25 -58.55 33.15 -58.4 33.5 -57.15 33.85 -55.9 33.8 -54.6 L34.85 -55.3 Q36.15 -56.05 37.35 -56.0 37.9 -55.95 38.2 -55.1 L38.7 -53.05 M-43.05 -53.45 Q-44.25 -57.5 -43.2 -61.5 L-42.8 -62.1 Q-40.85 -60.55 -40.5 -57.95 L-40.2 -56.95 -40.1 -59.65 -40.0 -60.8 -38.8 -59.6 -37.0 -57.0" fill="none" stroke="#ddbe77" stroke-linecap="round" stroke-linejoin="round" stroke-width="2.0"/>
      <path d="M42.95 -55.15 Q42.6 -52.05 40.25 -50.1 L39.75 -49.7 38.3 -48.85 Q37.3 -48.3 36.35 -48.0 L34.8 -47.9" fill="none" stroke="#263d12" stroke-linecap="round" stroke-linejoin="round" stroke-width="2.0"/>
      <path d="M54.0 -46.6 Q66.45 -37.7 69.7 -22.25 L70.3 -19.05 M58.2 -28.95 Q65.15 -16.5 66.9 -2.15 68.6 11.5 65.5 25.05 63.3 34.55 59.2 43.4 56.0 50.3 54.45 57.7 M47.85 -9.45 Q52.9 3.95 51.05 18.4 L47.4 45.75 Q45.95 56.35 49.0 66.3 49.55 68.05 50.5 69.7 M0.95 22.25 Q4.6 22.1 7.75 24.05 L10.4 26.35 11.05 27.45 M9.8 16.55 L12.65 18.45 Q14.3 19.85 15.35 21.7 15.75 22.4 15.75 23.3 M6.95 19.75 Q11.05 20.5 12.45 24.2 L12.9 25.55 M41.6 37.6 Q40.15 32.95 36.7 28.85 33.4 24.9 28.85 22.0 24.85 19.45 20.2 19.45 L22.15 26.85 16.4 25.2 19.55 30.4 Q12.8 28.65 4.8 27.15 -0.75 26.05 -5.65 28.0 -7.3 28.7 -8.6 30.1 L-11.15 32.9 Q-12.05 28.0 -15.85 25.1 M29.2 29.85 Q31.9 33.45 33.1 37.75 34.0 40.95 34.3 44.3 L34.55 48.15 34.6 50.0 M6.0 105.3 Q2.45 91.1 12.7 80.3 17.75 75.05 21.15 69.0 23.9 64.1 24.15 58.45 M24.1 94.9 Q35.5 92.3 36.95 85.65 L38.65 78.05 M-11.05 -54.0 Q-9.25 -59.7 -4.6 -63.5 L-3.75 -64.05 M-6.35 -55.75 L-2.55 -60.85 -0.9 -62.8 M-63.5 10.7 Q-62.75 -2.8 -54.95 -14.4 L-43.2 -32.3 M-57.05 -19.85 Q-50.4 -31.2 -44.25 -42.65 L-43.8 -43.15 M-19.9 -9.5 Q-18.2 -17.7 -15.05 -25.45 L-13.95 -27.25 M-25.75 -5.5 Q-24.25 -11.65 -28.3 -16.75 -31.7 -21.15 -36.5 -24.15 L-37.9 -24.4 -37.7 -23.75 M-11.35 -6.6 L-10.6 -7.95 Q-9.5 -9.9 -8.0 -11.3 -4.6 -14.35 -0.2 -15.7 L4.95 -16.35 M-59.8 36.9 Q-63.4 22.75 -55.65 10.3 -51.3 3.45 -44.4 -0.5" fill="none" stroke="#ffffcc" stroke-linecap="round" stroke-linejoin="round" stroke-width="2.0"/>
      <path d="M-16.8 21.6 Q-23.35 23.25 -25.5 29.75 -27.85 37.05 -27.85 44.5 L-27.85 48.6 M-42.75 46.0 L-42.8 44.9 Q-38.4 38.85 -36.05 31.65 -33.65 24.2 -34.65 16.4 M-16.8 21.6 L-8.55 18.0" fill="none" stroke="#feef67" stroke-linecap="round" stroke-linejoin="round" stroke-width="2.0"/>
      <path d="M-11.8 65.7 L-12.6 66.0 Q-21.5 69.3 -23.95 71.3 -26.8 73.55 -30.2 71.85 L-33.85 69.9 -37.05 70.25 -39.35 70.25 M-39.75 70.2 L-39.4 70.2 Q-35.9 69.85 -34.95 67.75 -35.25 66.55 -35.2 65.2 M-19.8 46.05 L-19.35 44.9 M-14.55 49.1 L-13.85 48.35 M-9.3 52.5 L-8.9 51.4 M-4.4 55.85 L-3.95 55.1 M-17.3 56.5 Q-17.1 55.55 -16.55 55.05 M-11.65 58.75 L-10.9 57.7 M-33.85 69.9 L-34.65 68.75 -34.95 67.75" fill="none" stroke="#9c8441" stroke-linecap="round" stroke-linejoin="round" stroke-width="2.0"/>
      <path d="M-11.3 65.5 L-11.35 65.55 -11.8 65.7" fill="none" stroke="#000000" stroke-linecap="round" stroke-linejoin="round" stroke-width="1.5"/>
    </g>
    </g>
  </g>
  <defs>
    <radialGradient cx="0" cy="0" gradientTransform="matrix(0.0874, 0.0248, -0.0272, 0.0959, -20.3, -4.2)" gradientUnits="userSpaceOnUse" id="gradient0" r="819.2" spreadMethod="pad">
      <stop offset="0.0" stop-color="#ffffad"/>
      <stop offset="1.0" stop-color="#ffef29"/>
    </radialGradient>
    <radialGradient cx="0" cy="0" gradientTransform="matrix(0.0829, 0.0, 0.0, 0.0829, -8.7, 46.65)" gradientUnits="userSpaceOnUse" id="gradient1" r="819.2" spreadMethod="pad">
      <stop offset="0.0" stop-color="#ffffe6"/>
      <stop offset="1.0" stop-color="#fef078"/>
    </radialGradient>
  </defs>
</svg>