<svg xmlns:xlink="http://www.w3.org/1999/xlink" xmlns="http://www.w3.org/2000/svg" height="19.8px" width="15.75px">
  <g transform="matrix(1.0, 0.0, 0.0, 1.0, 51.95, -6.2)">
    <path d="M-44.4 15.7 Q-38.85 19.35 -36.9 13.35 -36.4 15.75 -37.3 17.75 L-38.85 21.25 -40.55 25.5 -41.3 19.7 -43.5 16.75 -44.4 15.9 -44.4 15.7 M-46.9 12.45 L-47.35 10.7 Q-48.0 8.8 -48.95 7.1 L-48.95 6.75 -43.6 6.95 Q-46.1 8.1 -46.7 10.65 -46.1 8.1 -43.6 6.95 -40.25 7.75 -37.35 12.5 -41.4 11.5 -45.35 10.8 L-46.7 10.65 -46.9 12.45 M-46.7 10.65 L-47.35 10.7 -46.7 10.65" fill="#000000" fill-rule="evenodd" stroke="none"/>
    <path d="M-44.4 15.9 L-43.5 16.75 -41.3 19.7 -40.55 25.5 -38.85 21.25 -37.3 17.75 Q-36.4 15.75 -36.9 13.35 -38.85 19.35 -44.4 15.7 L-46.65 13.65 -46.8 12.85 -46.9 12.45 -47.35 10.7 Q-48.0 8.8 -48.95 7.1 L-50.35 6.7 -51.45 6.85 M-44.4 15.9 L-45.3 15.4 Q-46.4 14.75 -46.65 13.65 M-36.9 13.35 L-37.25 12.7 M-46.7 10.65 L-46.9 12.45 M-48.95 6.75 L-50.35 6.7 M-46.7 10.65 Q-46.1 8.1 -43.6 6.95 L-48.95 6.75 M-37.35 12.5 Q-40.25 7.75 -43.6 6.95" fill="none" stroke="#000000" stroke-linecap="round" stroke-linejoin="round" stroke-width="2.0"/>
    <path d="M-37.25 12.7 L-37.35 12.5 M-47.35 10.7 L-46.7 10.65" fill="none" stroke="#00ff00" stroke-linecap="round" stroke-linejoin="round" stroke-width="1.5"/>
  </g>
</svg>