<svg xmlns:xlink="http://www.w3.org/1999/xlink" xmlns="http://www.w3.org/2000/svg" height="15.85px" width="32.7px">
  <g transform="matrix(1.0, 0.0, 0.0, 1.0, 15.65, -9.1)">
    <path d="M0.75 10.05 L2.05 10.05 Q4.05 10.6 5.35 11.65 4.05 10.6 2.05 10.05 9.6 10.0 16.55 12.25 12.85 11.8 10.75 15.1 7.75 19.85 2.9 22.6 -5.55 27.5 -10.15 19.3 L-15.15 22.9 Q-10.55 15.0 -3.75 9.6 L0.75 10.05 Q-6.8 10.45 -5.9 17.4 L-5.6 18.55 -5.9 17.4 Q-6.8 10.45 0.75 10.05 M5.35 11.65 L3.75 13.55 3.3 14.3 Q-0.4 17.6 -5.6 18.55 -5.1 19.8 -3.7 20.5 L-2.75 20.95 -2.6 21.0 5.3 16.8 7.0 14.05 7.0 13.95 Q6.45 12.6 5.35 11.65 L5.65 11.2 5.35 11.65 M-2.6 21.0 Q3.35 23.3 7.45 18.2 L7.45 17.6 Q7.6 15.55 7.0 14.05 7.6 15.55 7.45 17.6 L7.45 18.2 Q3.35 23.3 -2.6 21.0" fill="#000000" fill-rule="evenodd" stroke="none"/>
    <path d="M2.05 10.05 L0.75 10.05 Q-6.8 10.45 -5.9 17.4 L-5.6 18.55 Q-5.1 19.8 -3.7 20.5 L-2.75 20.95 M5.35 11.65 Q4.05 10.6 2.05 10.05 9.6 10.0 16.55 12.25 12.85 11.8 10.75 15.1 7.75 19.85 2.9 22.6 -5.55 27.5 -10.15 19.3 L-15.15 22.9 Q-10.55 15.0 -3.75 9.6 L0.75 10.05 M7.0 13.95 Q6.45 12.6 5.35 11.65 M7.0 14.05 Q7.6 15.55 7.45 17.6 L7.45 18.2 Q3.35 23.3 -2.6 21.0" fill="none" stroke="#000000" stroke-linecap="round" stroke-linejoin="round" stroke-width="2.0"/>
    <path d="M5.35 11.65 L5.65 11.2 M7.0 14.05 L7.0 13.95 M-2.6 21.0 L-2.75 20.95" fill="none" stroke="#00ff00" stroke-linecap="round" stroke-linejoin="round" stroke-width="1.5"/>
  </g>
</svg>