<svg xmlns:xlink="http://www.w3.org/1999/xlink" xmlns="http://www.w3.org/2000/svg" height="150.5px" width="134.95px">
  <g transform="matrix(1.0, 0.0, 0.0, 1.0, 54.55, 67.0)">
    <g data-characterId="1670" height="148.4" transform="matrix(1.0, 0.0, 0.0, 1.0, -54.55, -64.9)" width="134.95" xlink:href="#shape0"><g id="shape0" transform="matrix(1.0, 0.0, 0.0, 1.0, 54.55, 64.9)">
      <path d="M23.3 78.55 L-6.15 79.95 -5.6 83.0 -14.6 80.3 Q-19.2 78.65 -22.2 74.95 L-21.7 80.95 -23.7 79.75 -25.65 78.35 Q-28.3 76.05 -29.9 73.15 L-30.5 71.95 -31.2 75.95 -38.85 59.2 -40.3 63.0 Q-41.7 60.7 -42.15 58.0 -43.25 51.3 -48.75 47.05 -50.55 45.65 -52.6 44.65 -55.65 32.25 -52.3 19.65 -50.6 13.25 -50.65 6.4 -50.8 -17.65 -45.75 -40.7 -44.8 -45.2 -42.85 -49.45 -40.25 -55.05 -37.1 -60.4 -32.5 -63.75 -27.0 -64.35 -25.35 -64.5 -23.75 -63.85 -7.55 -57.4 6.95 -47.85 L22.35 -37.65 Q11.95 -36.7 5.25 -29.6 4.45 -28.7 4.95 -27.45 6.1 -24.65 5.55 -21.8 3.0 -19.3 -0.95 -19.95 -3.65 -20.15 -5.15 -17.85 -7.0 -15.0 -7.15 -11.45 L-5.05 -12.05 Q-2.5 -8.5 -2.65 -4.15 -3.05 7.3 -6.5 18.15 -8.1 23.15 -6.7 29.25 -5.45 34.85 -7.75 40.0 -12.45 50.7 -12.7 62.4 L-5.35 51.75 -3.65 60.7 -3.3 60.8 Q1.55 56.55 7.95 56.7 13.5 56.85 16.45 60.7 19.35 64.55 19.5 70.3 19.6 76.0 23.3 78.55" fill="url(#gradient0)" fill-rule="evenodd" stroke="none"/>
      <path d="M22.35 -37.65 Q23.8 -35.6 26.8 -34.55 L26.3 -34.05 26.25 -33.95 Q25.65 -33.35 25.85 -33.25 35.4 -28.1 42.3 -19.95 L47.0 -14.5 42.0 -17.5 41.35 -16.95 46.7 -7.45 42.05 -9.85 53.5 6.9 Q59.2 15.45 61.7 22.5 64.15 29.55 68.15 40.0 L79.9 72.35 Q70.65 73.45 61.65 75.25 52.65 77.0 43.4 76.55 34.1 76.05 29.05 77.4 L23.3 78.55 Q19.6 76.0 19.5 70.3 19.35 64.55 16.45 60.7 13.5 56.85 7.95 56.7 1.55 56.55 -3.3 60.8 L-3.65 60.7 -5.35 51.75 -12.7 62.4 Q-12.45 50.7 -7.75 40.0 -5.45 34.85 -6.7 29.25 -8.1 23.15 -6.5 18.15 -3.05 7.3 -2.65 -4.15 -2.5 -8.5 -5.05 -12.05 L-7.15 -11.45 Q-7.0 -15.0 -5.15 -17.85 -3.65 -20.15 -0.95 -19.95 3.0 -19.3 5.55 -21.8 6.1 -24.65 4.95 -27.45 4.45 -28.7 5.25 -29.6 11.95 -36.7 22.35 -37.65 M64.5 65.5 L69.2 69.3 65.5 50.5 69.2 69.3 64.5 65.5 M34.0 43.5 Q38.8 48.75 45.5 51.5 L44.5 42.5 53.0 52.0 53.15 41.65 59.5 48.0 Q58.75 46.5 58.3 45.0 52.2 23.7 40.5 5.5 52.2 23.7 58.3 45.0 58.75 46.5 59.5 48.0 L53.15 41.65 53.0 52.0 44.5 42.5 45.5 51.5 Q38.8 48.75 34.0 43.5" fill="url(#gradient1)" fill-rule="evenodd" stroke="none"/>
      <path d="M23.3 78.55 L-6.15 79.95 -5.6 83.0 -14.6 80.3 Q-19.2 78.65 -22.2 74.95 L-21.7 80.95 -23.7 79.75 -25.65 78.35 Q-28.3 76.05 -29.9 73.15 L-30.5 71.95 -31.2 75.95 -38.85 59.2 -40.3 63.0 Q-41.7 60.7 -42.15 58.0 -43.25 51.3 -48.75 47.05 -50.55 45.65 -52.6 44.65 -55.65 32.25 -52.3 19.65 -50.6 13.25 -50.65 6.4 -50.8 -17.65 -45.75 -40.7 -44.8 -45.2 -42.85 -49.45 -40.25 -55.05 -37.1 -60.4 -32.5 -63.75 -27.0 -64.35 -25.35 -64.5 -23.75 -63.85 -7.55 -57.4 6.95 -47.85 L22.35 -37.65 Q23.8 -35.6 26.8 -34.55 L26.3 -34.05 26.25 -33.95 M25.85 -33.25 Q35.4 -28.1 42.3 -19.95 L47.0 -14.5 42.0 -17.5 41.35 -16.95 46.7 -7.45 42.05 -9.85 53.5 6.9 Q59.2 15.45 61.7 22.5 64.15 29.55 68.15 40.0 L79.9 72.35 Q70.65 73.45 61.65 75.25 52.65 77.0 43.4 76.55 34.1 76.05 29.05 77.4 L23.3 78.55 Q19.6 76.0 19.5 70.3 19.35 64.55 16.45 60.7 13.5 56.85 7.95 56.7 1.55 56.55 -3.3 60.8 M-3.65 60.7 L-5.35 51.75 -12.7 62.4 Q-12.45 50.7 -7.75 40.0 -5.45 34.85 -6.7 29.25 -8.1 23.15 -6.5 18.15 -3.05 7.3 -2.65 -4.15 -2.5 -8.5 -5.05 -12.05 L-7.15 -11.45 Q-7.0 -15.0 -5.15 -17.85 -3.65 -20.15 -0.95 -19.95 3.0 -19.3 5.55 -21.8 6.1 -24.65 4.95 -27.45 4.45 -28.7 5.25 -29.6 11.95 -36.7 22.35 -37.65" fill="none" stroke="#000000" stroke-linecap="round" stroke-linejoin="round" stroke-width="2.0"/>
      <path d="M26.25 -33.95 Q25.65 -33.35 25.85 -33.25" fill="none" stroke="#003300" stroke-linecap="round" stroke-linejoin="round" stroke-width="2.0"/>
      <path d="M40.5 5.5 Q52.2 23.7 58.3 45.0 58.75 46.5 59.5 48.0 L53.15 41.65 53.0 52.0 44.5 42.5 45.5 51.5 Q38.8 48.75 34.0 43.5 M65.5 50.5 L69.2 69.3 64.5 65.5" fill="none" stroke="#ffffcc" stroke-linecap="round" stroke-linejoin="round" stroke-width="2.0"/>
    </g>
    </g>
  </g>
  <defs>
    <radialGradient cx="0" cy="0" gradientTransform="matrix(0.0829, 0.0, 0.0, 0.0829, -19.5, 37.0)" gradientUnits="userSpaceOnUse" id="gradient0" r="819.2" spreadMethod="pad">
      <stop offset="0.0" stop-color="#ffffe6"/>
      <stop offset="1.0" stop-color="#fef078"/>
    </radialGradient>
    <radialGradient cx="0" cy="0" gradientTransform="matrix(0.1009, 0.0286, -0.0325, 0.1148, 10.5, -33.0)" gradientUnits="userSpaceOnUse" id="gradient1" r="819.2" spreadMethod="pad">
      <stop offset="0.0" stop-color="#ffffad"/>
      <stop offset="1.0" stop-color="#ffef29"/>
    </radialGradient>
  </defs>
</svg>