<svg xmlns:xlink="http://www.w3.org/1999/xlink" xmlns="http://www.w3.org/2000/svg" height="25.3px" width="37.0px">
  <g transform="matrix(1.0, 0.0, 0.0, 1.0, 17.3, 10.95)">
    <clipPath id="clipPath0" transform="matrix(1.0, 0.0, 0.0, 1.0, 0.0, 0.0)">
      <path d="M7.9 -1.2 Q5.15 0.5 1.65 -0.7 L-1.1 -1.25 -3.6 -1.65 Q-6.9 0.6 -10.25 -1.7 L-10.65 -1.75 -10.75 -1.8 -10.9 -2.2 -10.8 -2.75 -9.55 -3.75 -8.75 -4.2 -8.45 -4.2 -8.2 -4.15 -7.3 -3.4 -7.1 -3.25 -5.4 -3.3 Q-4.65 -4.15 -3.5 -4.05 -2.85 -4.0 -2.35 -3.6 2.5 -2.05 7.6 -1.55 L7.9 -1.2 M-7.6 6.25 L-7.6 5.9 -5.9 6.6 -1.75 7.15 0.45 7.4 -0.05 7.95 -3.05 8.8 Q-5.9 9.4 -7.4 6.95 L-7.6 6.25" fill="#e6b380" fill-rule="evenodd" stroke="none"/>
    </clipPath>
    <g clip-path="url(#clipPath0)">
      <g data-characterId="997" height="25.3" transform="matrix(1.0, 0.0, 0.0, 1.0, -17.3, -10.95)" width="32.45" xlink:href="#sprite0"><g id="shape1" transform="matrix(1.0, 0.0, 0.0, 1.0, 0.0, 12.65)">
      <path d="M32.45 -12.65 L32.45 12.65 0.0 12.65 0.0 -12.65 32.45 -12.65" fill="#e6b380" fill-rule="evenodd" stroke="none"/>
    </g>
    </g>
    </g>
    <g data-characterId="1002" height="6.75" transform="matrix(1.0, 0.0, 0.0, 1.0, -11.2, -2.35)" width="20.0" xlink:href="#shape2"><g id="shape2" transform="matrix(1.0, 0.0, 0.0, 1.0, 11.2, 2.35)">
      <path d="M7.9 0.2 Q0.55 6.15 -7.95 2.55 L-9.25 1.85 -8.05 0.35 -8.45 -0.9 -8.0 -0.8 4.0 -1.2 Q5.7 -0.85 7.55 -1.25 L8.3 -0.85 8.0 0.1 7.9 0.2" fill="#660000" fill-rule="evenodd" stroke="none"/>
      <path d="M8.0 0.1 L8.3 -0.85 7.55 -1.25 Q5.7 -0.85 4.0 -1.2 L-8.0 -0.8 -8.45 -0.9 -8.05 0.35 -9.25 1.85 -7.95 2.55 Q0.55 6.15 7.9 0.2 M-8.45 -0.9 L-10.7 -1.85" fill="none" stroke="#000000" stroke-linecap="round" stroke-linejoin="round" stroke-width="1.0"/>
    </g>
  </g>
  </g>
  <defs>
    <g id="sprite0" transform="matrix(1.0, 0.0, 0.0, 1.0, 0.0, 12.65)">
      <use data-characterId="991" height="25.3" transform="matrix(1.0, 0.0, 0.0, 1.0, 0.0, -12.65)" width="32.45" xlink:href="#shape1"/>
    </g>
    </defs>
</svg>