<svg xmlns:xlink="http://www.w3.org/1999/xlink" xmlns="http://www.w3.org/2000/svg" height="25.3px" width="37.0px">
  <g transform="matrix(1.0, 0.0, 0.0, 1.0, 17.3, 10.95)">
    <clipPath id="clipPath0" transform="matrix(1.0, 0.0, 0.0, 1.0, 0.0, 0.0)">
      <path d="M7.35 -0.9 L7.4 -0.85 7.4 -0.75 7.25 -0.45 7.2 -0.35 -2.05 0.5 Q-5.05 1.1 -7.55 -0.05 L-7.7 -0.3 Q-8.95 -0.5 -10.05 -1.2 L-10.1 -1.3 -10.05 -1.35 -10.0 -1.55 -9.9 -1.65 -5.25 -1.95 -5.2 -1.85 -5.1 -1.7 -1.95 -1.95 -0.85 -1.95 4.5 -2.25 Q6.3 -2.2 7.35 -0.9 M-3.7 5.7 Q-6.35 6.1 -7.65 4.95 L-8.75 3.85 -6.55 4.35 Q-5.05 4.8 -1.25 4.35 2.55 3.9 0.9 4.35 -0.75 4.75 -0.9 5.0 -1.1 5.25 -3.7 5.7" fill="#e6b380" fill-rule="evenodd" stroke="none"/>
    </clipPath>
    <g clip-path="url(#clipPath0)">
      <g data-characterId="997" height="25.3" transform="matrix(1.0, 0.0, 0.0, 1.0, -17.3, -10.95)" width="32.45" xlink:href="#sprite0"><g id="shape1" transform="matrix(1.0, 0.0, 0.0, 1.0, 0.0, 12.65)">
      <path d="M32.45 -12.65 L32.45 12.65 0.0 12.65 0.0 -12.65 32.45 -12.65" fill="#e6b380" fill-rule="evenodd" stroke="none"/>
    </g>
    </g>
    </g>
    <g data-characterId="1006" height="4.7" transform="matrix(1.0, 0.0, 0.0, 1.0, -10.15, -1.75)" width="18.05" xlink:href="#shape2"><g id="shape2" transform="matrix(1.0, 0.0, 0.0, 1.0, 10.15, 1.75)">
      <path d="M7.75 -0.6 L3.5 0.5 3.8 -0.55 3.85 -1.55 3.8 -0.55 3.5 0.5 7.75 -0.6 7.9 2.2 6.4 2.95 Q-0.8 1.4 -4.2 1.2 -7.6 0.95 -8.4 2.15 L-9.65 2.3 -10.15 -0.5 -9.3 -1.1 Q-4.7 0.05 0.0 -1.0 L3.85 -1.55 4.95 -1.75 Q6.4 -1.85 7.45 -0.95 L7.75 -0.6 M-0.7 0.95 L3.4 0.5 3.5 0.5 3.4 0.5 -0.7 0.95" fill="#ffffff" fill-rule="evenodd" stroke="none"/>
      <path d="M3.85 -1.55 L3.8 -0.55 3.5 0.5 7.75 -0.6 7.45 -0.95 Q6.4 -1.85 4.95 -1.75 L3.85 -1.55 0.0 -1.0 Q-4.7 0.05 -9.3 -1.1 L-10.15 -0.5 -9.65 2.3 -8.4 2.15 Q-7.6 0.95 -4.2 1.2 -0.8 1.4 6.4 2.95 L7.9 2.2 7.75 -0.6 M3.5 0.5 L3.4 0.5 -0.7 0.95 M-9.3 -1.1 L-10.1 -1.25" fill="none" stroke="#000000" stroke-linecap="round" stroke-linejoin="round" stroke-width="0.05"/>
    </g>
  </g>
  </g>
  <defs>
    <g id="sprite0" transform="matrix(1.0, 0.0, 0.0, 1.0, 0.0, 12.65)">
      <use data-characterId="991" height="25.3" transform="matrix(1.0, 0.0, 0.0, 1.0, 0.0, -12.65)" width="32.45" xlink:href="#shape1"/>
    </g>
    </defs>
</svg>