<svg xmlns:xlink="http://www.w3.org/1999/xlink" xmlns="http://www.w3.org/2000/svg" height="25.3px" width="37.0px">
  <g transform="matrix(1.0, 0.0, 0.0, 1.0, 17.3, 10.95)">
    <clipPath id="clipPath0" transform="matrix(1.0, 0.0, 0.0, 1.0, 0.0, 0.0)">
      <path d="M-5.9 -3.6 L-2.45 -4.05 -1.7 -3.95 Q2.0 -2.25 5.25 -0.05 L5.3 0.15 5.25 0.45 5.15 0.6 4.9 0.8 Q1.45 -0.3 -1.85 -1.8 L-2.75 -2.2 Q-5.7 -1.5 -8.25 -2.6 -8.75 -2.45 -8.95 -2.9 L-8.95 -3.1 -8.85 -3.3 -7.85 -4.0 -6.75 -4.35 -6.45 -4.25 -6.3 -4.2 -6.05 -3.8 -5.9 -3.6 M-3.1 8.05 Q-5.95 8.65 -7.45 6.2 L-7.65 5.5 -7.65 5.15 -5.95 5.85 Q-4.3 6.5 -1.8 6.4 L0.4 6.65 -0.1 7.2 -3.1 8.05" fill="#e6b380" fill-rule="evenodd" stroke="none"/>
    </clipPath>
    <g clip-path="url(#clipPath0)">
      <g data-characterId="997" height="25.3" transform="matrix(1.0, 0.0, 0.0, 1.0, -17.3, -10.95)" width="32.45" xlink:href="#sprite0"><g id="shape1" transform="matrix(1.0, 0.0, 0.0, 1.0, 0.0, 12.65)">
      <path d="M32.45 -12.65 L32.45 12.65 0.0 12.65 0.0 -12.65 32.45 -12.65" fill="#e6b380" fill-rule="evenodd" stroke="none"/>
    </g>
    </g>
    </g>
    <g data-characterId="1010" height="6.35" transform="matrix(1.0, 0.0, 0.0, 1.0, -9.0, -2.75)" width="15.15" xlink:href="#shape2"><g id="shape2" transform="matrix(1.0, 0.0, 0.0, 1.0, 9.0, 2.75)">
      <path d="M-7.9 -0.8 L-8.15 -2.45 -7.1 -2.35 -5.65 -2.05 -4.55 -2.25 Q0.4 -2.95 4.8 0.0 L5.2 0.3 Q6.2 1.0 6.15 2.1 L5.15 2.9 Q4.45 3.2 3.8 3.55 L2.5 3.6 Q-0.15 2.75 -2.45 1.0 L-5.25 -1.05 -6.25 -1.45 Q-7.3 -1.55 -7.9 -0.8" fill="#660000" fill-rule="evenodd" stroke="none"/>
      <path d="M-7.9 -0.8 Q-7.3 -1.55 -6.25 -1.45 L-5.25 -1.05 -2.45 1.0 Q-0.15 2.75 2.5 3.6 L-7.7 2.85 -8.0 2.25 Q-8.75 0.6 -7.9 -0.8" fill="#990000" fill-rule="evenodd" stroke="none"/>
      <path d="M-8.15 -2.45 L-8.25 -2.45 -8.95 -2.75 M2.5 3.6 L3.8 3.55 Q4.45 3.2 5.15 2.9 L6.15 2.1 Q6.2 1.0 5.2 0.3 L4.8 0.0 Q0.4 -2.95 -4.55 -2.25 L-5.65 -2.05 -7.1 -2.35 -8.15 -2.45 -7.9 -0.8 Q-7.3 -1.55 -6.25 -1.45 L-5.25 -1.05 -2.45 1.0 Q-0.15 2.75 2.5 3.6 L-7.7 2.85 -9.0 2.55 M-7.7 2.85 L-8.0 2.25 Q-8.75 0.6 -7.9 -0.8" fill="none" stroke="#000000" stroke-linecap="round" stroke-linejoin="round" stroke-width="0.05"/>
    </g>
  </g>
  </g>
  <defs>
    <g id="sprite0" transform="matrix(1.0, 0.0, 0.0, 1.0, 0.0, 12.65)">
      <use data-characterId="991" height="25.3" transform="matrix(1.0, 0.0, 0.0, 1.0, 0.0, -12.65)" width="32.45" xlink:href="#shape1"/>
    </g>
    </defs>
</svg>