<svg xmlns:xlink="http://www.w3.org/1999/xlink" xmlns="http://www.w3.org/2000/svg" height="25.3px" width="37.0px">
  <g transform="matrix(1.0, 0.0, 0.0, 1.0, 17.3, 10.95)">
    <clipPath id="clipPath0" transform="matrix(1.0, 0.0, 0.0, 1.0, 0.0, 0.0)">
      <path d="M5.95 -1.0 L5.95 -0.7 5.85 -0.55 Q1.95 0.1 -1.85 -1.25 L-2.0 -0.95 -2.05 -0.85 Q-2.45 -0.65 -2.9 -0.6 L-8.25 -0.45 -9.2 -0.95 -9.35 -1.1 -10.15 -0.95 Q-9.1 -2.0 -7.75 -2.8 L-7.25 -2.95 Q-6.7 -2.85 -6.35 -2.35 L-6.25 -2.3 -4.85 -2.2 -3.7 -3.1 -3.5 -3.2 Q0.6 -1.7 5.0 -1.45 5.6 -1.4 5.95 -1.0 M2.75 4.3 L-2.8 5.55 Q-5.85 6.25 -7.35 3.8 L-7.55 3.1 -7.55 2.75 -5.85 3.45 -1.7 4.0 3.05 3.85 Q5.3 3.75 2.75 4.3" fill="#e6b380" fill-rule="evenodd" stroke="none"/>
    </clipPath>
    <g clip-path="url(#clipPath0)">
      <g data-characterId="997" height="25.3" transform="matrix(1.0, 0.0, 0.0, 1.0, -17.3, -10.95)" width="32.45" xlink:href="#sprite0"><g id="shape1" transform="matrix(1.0, 0.0, 0.0, 1.0, 0.0, 12.65)">
      <path d="M32.45 -12.65 L32.45 12.65 0.0 12.65 0.0 -12.65 32.45 -12.65" fill="#e6b380" fill-rule="evenodd" stroke="none"/>
    </g>
    </g>
    </g>
    <g data-characterId="1018" height="2.65" transform="matrix(1.0, 0.0, 0.0, 1.0, -10.25, -1.4)" width="19.75" xlink:href="#shape2"><g id="shape2" transform="matrix(1.0, 0.0, 0.0, 1.0, 10.25, 1.4)">
      <path d="M-9.75 -0.5 L-9.05 -0.85 -8.6 -0.9 Q-5.3 0.4 -1.85 -0.55 L0.55 -0.9 6.75 -0.55 9.0 0.75" fill="none" stroke="#000000" stroke-linecap="round" stroke-linejoin="round" stroke-width="1.0"/>
    </g>
  </g>
  </g>
  <defs>
    <g id="sprite0" transform="matrix(1.0, 0.0, 0.0, 1.0, 0.0, 12.65)">
      <use data-characterId="991" height="25.3" transform="matrix(1.0, 0.0, 0.0, 1.0, 0.0, -12.65)" width="32.45" xlink:href="#shape1"/>
    </g>
    </defs>
</svg>