<svg xmlns:xlink="http://www.w3.org/1999/xlink" xmlns="http://www.w3.org/2000/svg" height="25.3px" width="37.0px">
  <g transform="matrix(1.0, 0.0, 0.0, 1.0, 17.3, 10.95)">
    <clipPath id="clipPath0" transform="matrix(1.0, 0.0, 0.0, 1.0, 0.0, 0.0)">
      <path d="M0.9 -0.35 L-2.5 -0.85 -4.05 -0.75 Q-4.45 -0.3 -4.95 -0.6 L-5.25 -1.15 -5.55 -1.3 -5.55 -1.85 -5.5 -2.25 Q-4.7 -3.3 -3.45 -3.0 -2.8 -2.55 -1.05 -2.3 0.7 -3.45 2.05 -3.0 3.4 -2.5 6.6 -3.0 9.7 -3.5 11.4 -4.1 L13.65 -4.8 13.05 -4.05 Q12.15 -2.95 10.05 -1.7 7.9 -0.5 5.4 -0.2 L0.9 -0.35 M-1.95 5.95 L2.25 6.4 7.0 6.05 Q9.2 5.85 6.7 6.55 L1.15 8.1 Q-1.85 8.9 -3.4 6.4 L-3.65 5.65 -3.7 5.25 -1.95 5.95" fill="#e6b380" fill-rule="evenodd" stroke="none"/>
    </clipPath>
    <g clip-path="url(#clipPath0)">
      <g data-characterId="997" height="25.3" transform="matrix(1.0, 0.0, 0.0, 1.0, -17.3, -10.95)" width="32.45" xlink:href="#sprite0"><g id="shape1" transform="matrix(1.0, 0.0, 0.0, 1.0, 0.0, 12.65)">
      <path d="M32.45 -12.65 L32.45 12.65 0.0 12.65 0.0 -12.65 32.45 -12.65" fill="#e6b380" fill-rule="evenodd" stroke="none"/>
    </g>
    </g>
    </g>
    <g data-characterId="1041" height="8.9" transform="matrix(1.0, 0.0, 0.0, 1.0, -6.7, -5.35)" width="20.8" xlink:href="#shape2"><g id="shape2" transform="matrix(1.0, 0.0, 0.0, 1.0, 6.7, 5.35)">
      <path d="M-0.35 1.1 L5.25 0.75 Q7.6 0.75 9.65 -0.7 L10.1 -0.05 9.65 -0.7 Q7.6 0.75 5.25 0.75 L-0.35 1.1 M-6.0 -1.25 Q-1.2 -0.75 3.5 -1.1 8.15 -1.45 10.6 -3.0 L14.1 -5.35 Q13.4 -3.25 12.0 -1.35 L10.35 0.9 10.1 1.0 10.2 1.15 Q8.2 2.4 4.05 3.3 -0.2 4.15 -5.15 2.3 -5.65 1.55 -5.8 0.15 L-6.0 -1.25 M4.6 1.8 L4.6 1.9 5.2 1.9 4.6 1.8" fill="#ffffff" fill-rule="evenodd" stroke="none"/>
      <path d="M-6.0 -1.25 Q-1.2 -0.75 3.5 -1.1 8.15 -1.45 10.6 -3.0 L14.1 -5.35 Q13.4 -3.25 12.0 -1.35 L10.35 0.9 10.2 1.15 Q8.2 2.4 4.05 3.3 -0.2 4.15 -5.15 2.3 -5.65 1.55 -5.8 0.15 L-6.0 -1.25 -6.7 -1.15 M10.1 1.0 L10.2 1.15" fill="none" stroke="#000000" stroke-linecap="round" stroke-linejoin="round" stroke-width="0.05"/>
      <path d="M10.1 -0.05 L9.65 -0.7 Q7.6 0.75 5.25 0.75 L-0.35 1.1" fill="none" stroke="#999999" stroke-linecap="round" stroke-linejoin="round" stroke-width="0.05"/>
    </g>
  </g>
  </g>
  <defs>
    <g id="sprite0" transform="matrix(1.0, 0.0, 0.0, 1.0, 0.0, 12.65)">
      <use data-characterId="991" height="25.3" transform="matrix(1.0, 0.0, 0.0, 1.0, 0.0, -12.65)" width="32.45" xlink:href="#shape1"/>
    </g>
    </defs>
</svg>