<svg xmlns:xlink="http://www.w3.org/1999/xlink" xmlns="http://www.w3.org/2000/svg" height="25.3px" width="37.0px">
  <g transform="matrix(1.0, 0.0, 0.0, 1.0, 17.3, 10.95)">
    <clipPath id="clipPath0" transform="matrix(1.0, 0.0, 0.0, 1.0, 0.0, 0.0)">
      <path d="M10.9 -4.3 L11.05 -4.2 11.2 -4.05 11.3 -3.75 Q10.05 -1.85 7.55 -1.25 L1.5 -0.35 -2.55 -0.7 -5.95 -1.3 -7.5 -1.25 -8.4 -1.15 -8.65 -1.65 -8.95 -1.8 -8.95 -2.35 -8.9 -2.7 Q-8.05 -3.65 -6.8 -3.35 -6.15 -2.9 -4.45 -2.6 L0.2 -2.45 1.9 -2.15 Q6.45 -2.35 10.5 -4.35 L10.9 -4.3 M3.25 7.2 L-2.3 8.45 Q-5.35 9.15 -6.85 6.7 L-7.05 6.0 -7.05 5.65 -5.35 6.35 -1.2 6.9 3.55 6.75 Q5.8 6.65 3.25 7.2" fill="#e6b380" fill-rule="evenodd" stroke="none"/>
    </clipPath>
    <g clip-path="url(#clipPath0)">
      <g data-characterId="997" height="25.3" transform="matrix(1.0, 0.0, 0.0, 1.0, -17.3, -10.95)" width="32.45" xlink:href="#sprite0"><g id="shape1" transform="matrix(1.0, 0.0, 0.0, 1.0, 0.0, 12.65)">
      <path d="M32.45 -12.65 L32.45 12.65 0.0 12.65 0.0 -12.65 32.45 -12.65" fill="#e6b380" fill-rule="evenodd" stroke="none"/>
    </g>
    </g>
    </g>
    <g data-characterId="1016" height="9.05" transform="matrix(1.0, 0.0, 0.0, 1.0, -9.1, -5.1)" width="21.0" xlink:href="#shape2"><g id="shape2" transform="matrix(1.0, 0.0, 0.0, 1.0, 9.1, 5.1)">
      <path d="M-8.4 -1.8 L-5.0 -1.45 -1.55 -0.95 2.35 -1.2 5.35 -1.8 6.15 -2.0 8.9 -3.15 Q10.6 -3.9 11.9 -5.1 L11.65 -4.45 9.7 -1.2 7.85 0.8 7.65 0.9 7.25 0.35 5.85 1.0 5.75 1.75 5.85 1.0 7.25 0.35 7.65 0.9 7.7 1.0 5.6 2.7 Q4.85 3.3 4.05 3.55 L1.6 3.95 -2.0 3.8 -5.75 3.6 -7.7 3.5 -8.0 2.95 Q-7.85 0.5 -8.4 -1.8 M2.1 1.45 L2.1 1.55 2.65 1.55 2.1 1.45 M-2.85 1.1 L2.1 1.55 1.9 2.25 2.1 1.55 -2.85 1.1 M2.65 1.55 L3.8 1.55 5.85 1.0 3.8 1.55 2.65 1.55" fill="#ffffff" fill-rule="evenodd" stroke="none"/>
      <path d="M-8.4 -1.8 L-5.0 -1.45 -1.55 -0.95 2.35 -1.2 5.35 -1.8 6.15 -2.0 8.9 -3.15 Q10.6 -3.9 11.9 -5.1 L11.65 -4.45 9.7 -1.2 7.85 0.8 7.7 1.0 5.6 2.7 Q4.85 3.3 4.05 3.55 L1.6 3.95 -2.0 3.8 -5.75 3.6 -7.7 3.5 -8.0 2.95 Q-7.85 0.5 -8.4 -1.8 L-9.1 -1.7 M7.65 0.9 L7.7 1.0 M2.1 1.45 L2.1 1.55" fill="none" stroke="#000000" stroke-linecap="round" stroke-linejoin="round" stroke-width="0.05"/>
      <path d="M7.65 0.9 L7.25 0.35 5.85 1.0 5.75 1.75 M2.1 1.55 L2.65 1.55 3.8 1.55 5.85 1.0 M2.1 1.55 L1.9 2.25 M2.1 1.55 L-2.85 1.1" fill="none" stroke="#999999" stroke-linecap="round" stroke-linejoin="round" stroke-width="0.05"/>
    </g>
  </g>
  </g>
  <defs>
    <g id="sprite0" transform="matrix(1.0, 0.0, 0.0, 1.0, 0.0, 12.65)">
      <use data-characterId="991" height="25.3" transform="matrix(1.0, 0.0, 0.0, 1.0, 0.0, -12.65)" width="32.45" xlink:href="#shape1"/>
    </g>
    </defs>
</svg>