<svg xmlns:xlink="http://www.w3.org/1999/xlink" xmlns="http://www.w3.org/2000/svg" height="25.3px" width="37.0px">
  <g transform="matrix(1.0, 0.0, 0.0, 1.0, 17.3, 10.95)">
    <clipPath id="clipPath0" transform="matrix(1.0, 0.0, 0.0, 1.0, 0.0, 0.0)">
      <path d="M7.2 -2.05 L10.8 -3.15 13.4 -4.05 Q14.55 -4.4 14.5 -4.55 L14.35 -4.75 14.35 -4.8 Q14.75 -4.45 14.65 -3.95 L14.5 -3.7 Q9.65 0.05 3.6 -0.5 L2.1 -0.55 Q-2.25 -0.35 -6.35 -1.45 -6.5 -1.65 -6.65 -1.45 L-6.9 -1.25 Q-7.45 -1.15 -7.6 -1.65 -6.3 -3.65 -4.0 -3.2 L-3.4 -2.85 -2.9 -2.4 1.55 -3.1 2.3 -3.0 Q5.0 -1.5 7.2 -2.05 M2.6 8.7 L-1.55 9.5 Q-4.5 10.05 -6.0 7.6 L-6.2 6.9 -6.2 6.55 -4.7 7.3 0.9 7.65 4.4 7.85 2.6 8.7" fill="#e6b380" fill-rule="evenodd" stroke="none"/>
    </clipPath>
    <g clip-path="url(#clipPath0)">
      <g data-characterId="997" height="25.3" transform="matrix(1.0, 0.0, 0.0, 1.0, -17.3, -10.95)" width="32.45" xlink:href="#sprite0"><g id="shape1" transform="matrix(1.0, 0.0, 0.0, 1.0, 0.0, 12.65)">
      <path d="M32.45 -12.65 L32.45 12.65 0.0 12.65 0.0 -12.65 32.45 -12.65" fill="#e6b380" fill-rule="evenodd" stroke="none"/>
    </g>
    </g>
    </g>
    <g data-characterId="1028" height="11.9" transform="matrix(1.0, 0.0, 0.0, 1.0, -7.8, -6.5)" width="24.4" xlink:href="#shape2"><g id="shape2" transform="matrix(1.0, 0.0, 0.0, 1.0, 7.8, 6.5)">
      <path d="M15.5 -5.5 L16.6 -5.45 14.45 -0.25 Q9.9 3.65 4.0 4.95 -1.4 6.15 -6.55 4.2 L-6.0 2.15 -7.8 1.1 -7.5 -1.0 -7.15 -1.9 Q-2.85 -0.85 1.5 -1.1 8.3 -0.3 13.85 -4.2 L15.5 -5.5 M1.5 3.0 L-1.0 3.0 -1.0 2.0 -1.0 3.0 1.5 3.0 M-4.0 3.0 L-1.0 3.0 -1.0 4.5 -1.0 3.0 -4.0 3.0 M8.0 1.0 L12.0 0.0 8.0 1.0" fill="#ffffff" fill-rule="evenodd" stroke="none"/>
      <path d="M15.5 -5.5 L13.85 -4.2 Q8.3 -0.3 1.5 -1.1 -2.85 -0.85 -7.15 -1.9 M-7.5 -1.0 L-7.8 1.1 -6.0 2.15 -6.55 4.2 Q-1.4 6.15 4.0 4.95 9.9 3.65 14.45 -0.25 L16.6 -5.45 16.5 -6.5 15.5 -5.5" fill="none" stroke="#000000" stroke-linecap="round" stroke-linejoin="round" stroke-width="0.05"/>
      <path d="M12.0 0.0 L8.0 1.0 M-1.0 4.5 L-1.0 3.0 -4.0 3.0 M-1.0 2.0 L-1.0 3.0 1.5 3.0" fill="none" stroke="#999999" stroke-linecap="round" stroke-linejoin="round" stroke-width="0.05"/>
    </g>
  </g>
  </g>
  <defs>
    <g id="sprite0" transform="matrix(1.0, 0.0, 0.0, 1.0, 0.0, 12.65)">
      <use data-characterId="991" height="25.3" transform="matrix(1.0, 0.0, 0.0, 1.0, 0.0, -12.65)" width="32.45" xlink:href="#shape1"/>
    </g>
    </defs>
</svg>