<svg xmlns:xlink="http://www.w3.org/1999/xlink" xmlns="http://www.w3.org/2000/svg" height="25.3px" width="37.0px">
  <g transform="matrix(1.0, 0.0, 0.0, 1.0, 17.3, 10.95)">
    <clipPath id="clipPath0" transform="matrix(1.0, 0.0, 0.0, 1.0, 0.0, 0.0)">
      <path d="M2.65 -0.45 L2.75 -0.4 Q5.45 0.55 7.55 2.7 L7.8 3.15 Q7.05 4.6 5.25 3.45 L2.15 1.65 1.45 1.15 -5.35 1.6 -5.5 1.4 -5.6 1.2 -5.65 1.15 -6.25 1.4 -6.6 1.65 Q-7.2 1.8 -7.5 1.35 L-7.5 1.3 -5.4 -0.5 -4.4 -1.15 -3.5 -1.1 -3.15 -0.75 -2.9 -0.55 -2.35 -0.55 Q-1.15 -0.8 -0.1 -1.45 L0.1 -1.55 2.65 -0.45 M2.2 8.95 L1.7 9.5 -1.3 10.35 Q-4.15 10.95 -5.65 8.5 L-5.85 7.8 -5.85 7.45 -4.15 8.15 0.0 8.7 2.2 8.95" fill="#e6b380" fill-rule="evenodd" stroke="none"/>
    </clipPath>
    <g clip-path="url(#clipPath0)">
      <g data-characterId="997" height="25.3" transform="matrix(1.0, 0.0, 0.0, 1.0, -17.3, -10.95)" width="32.45" xlink:href="#sprite0"><g id="shape1" transform="matrix(1.0, 0.0, 0.0, 1.0, 0.0, 12.65)">
      <path d="M32.45 -12.65 L32.45 12.65 0.0 12.65 0.0 -12.65 32.45 -12.65" fill="#e6b380" fill-rule="evenodd" stroke="none"/>
    </g>
    </g>
    </g>
    <g data-characterId="1033" height="5.75" transform="matrix(1.0, 0.0, 0.0, 1.0, -7.35, 0.65)" width="16.05" xlink:href="#shape2"><g id="shape2" transform="matrix(1.0, 0.0, 0.0, 1.0, 7.35, -0.65)">
      <path d="M-6.85 1.75 Q1.9 0.2 6.15 2.6 6.8 3.2 7.9 3.75 L8.2 4.85 7.2 5.9 4.5 5.0 -1.65 4.6 -5.5 4.8 -5.5 4.25 -5.0 3.25 -5.85 2.3 -6.5 1.75 -6.85 1.75" fill="#660000" fill-rule="evenodd" stroke="none"/>
      <path d="M-6.85 1.75 Q1.9 0.2 6.15 2.6 6.8 3.2 7.9 3.75 L8.2 4.85 7.2 5.9 4.5 5.0 -1.65 4.6 -5.5 4.8 M-5.5 4.25 L-5.0 3.25 -5.85 2.3 -6.5 1.75" fill="none" stroke="#000000" stroke-linecap="round" stroke-linejoin="round" stroke-width="1.0"/>
    </g>
  </g>
  </g>
  <defs>
    <g id="sprite0" transform="matrix(1.0, 0.0, 0.0, 1.0, 0.0, 12.65)">
      <use data-characterId="991" height="25.3" transform="matrix(1.0, 0.0, 0.0, 1.0, 0.0, -12.65)" width="32.45" xlink:href="#shape1"/>
    </g>
    </defs>
</svg>