<svg xmlns:xlink="http://www.w3.org/1999/xlink" xmlns="http://www.w3.org/2000/svg" height="25.3px" width="37.0px">
  <g transform="matrix(1.0, 0.0, 0.0, 1.0, 17.3, 10.95)">
    <clipPath id="clipPath0" transform="matrix(1.0, 0.0, 0.0, 1.0, 0.0, 0.0)">
      <path d="M0.85 -1.5 L0.95 -1.6 1.3 -1.95 1.75 -2.2 Q6.5 -2.1 11.0 -0.65 L11.15 -0.55 11.35 -0.3 11.4 -0.2 11.4 -0.1 11.3 0.2 11.25 0.3 11.15 0.4 1.95 0.1 Q-0.45 1.25 -3.15 1.15 -3.55 1.15 -3.8 0.8 L-4.05 0.9 -4.5 1.2 -4.7 1.15 -4.75 0.95 -4.8 0.8 -4.5 0.4 -4.45 0.3 -4.35 0.2 Q-3.85 0.0 -3.5 -0.45 -3.15 -0.85 -2.65 -1.05 -2.15 -1.25 -1.8 -1.6 L-1.4 -1.65 -0.95 -1.45 -0.8 -1.35 -0.5 -1.2 0.4 -1.25 0.85 -1.5 M5.3 7.55 L4.8 8.1 1.8 8.95 Q-1.05 9.55 -2.55 7.1 L-2.75 6.4 -2.75 6.05 -1.05 6.75 Q0.6 7.4 3.1 7.3 5.6 7.2 5.3 7.55" fill="#e6b380" fill-rule="evenodd" stroke="none"/>
    </clipPath>
    <g clip-path="url(#clipPath0)">
      <g data-characterId="997" height="25.3" transform="matrix(1.0, 0.0, 0.0, 1.0, -17.3, -10.95)" width="32.45" xlink:href="#sprite0"><g id="shape1" transform="matrix(1.0, 0.0, 0.0, 1.0, 0.0, 12.65)">
      <path d="M32.45 -12.65 L32.45 12.65 0.0 12.65 0.0 -12.65 32.45 -12.65" fill="#e6b380" fill-rule="evenodd" stroke="none"/>
    </g>
    </g>
    </g>
    <g data-characterId="1022" height="4.85" transform="matrix(1.0, 0.0, 0.0, 1.0, -4.65, -0.75)" width="18.3" xlink:href="#shape2"><g id="shape2" transform="matrix(1.0, 0.0, 0.0, 1.0, 4.65, 0.75)">
      <path d="M-2.75 0.8 L-2.55 0.75 Q-0.1 0.0 2.65 -0.1 L3.2 -0.2 8.35 -0.75 9.15 -0.7 9.7 -0.6 11.6 -0.4 11.75 -0.35 12.15 -0.25 Q13.5 0.45 13.65 1.75 13.8 3.85 11.9 4.1 L10.8 4.1 8.9 3.9 8.35 3.8 4.8 3.4 4.55 3.3 Q3.8 2.9 2.9 2.9 L2.35 2.8 -2.4 2.45 -2.75 0.8 M11.9 1.0 L9.75 1.0 9.65 1.0 9.45 2.25 9.65 1.0 7.25 1.25 9.65 1.0 9.75 1.0 11.9 1.0" fill="#ffffff" fill-rule="evenodd" stroke="none"/>
      <path d="M-2.75 0.8 L-2.55 0.75 Q-0.1 0.0 2.65 -0.1 L3.2 -0.2 8.35 -0.75 9.15 -0.7 9.7 -0.6 11.6 -0.4 11.75 -0.35 12.15 -0.25 Q13.5 0.45 13.65 1.75 13.8 3.85 11.9 4.1 L10.8 4.1 8.9 3.9 8.35 3.8 4.8 3.4 4.55 3.3 Q3.8 2.9 2.9 2.9 L2.35 2.8 -2.4 2.45 -2.55 2.45 -3.65 2.75 M-2.75 0.8 L-4.65 1.0 M-2.4 2.45 L-2.75 0.8" fill="none" stroke="#000000" stroke-linecap="round" stroke-linejoin="round" stroke-width="0.05"/>
      <path d="M9.45 2.25 L9.65 1.0 7.25 1.25 M9.65 1.0 L9.75 1.0 11.9 1.0" fill="none" stroke="#999999" stroke-linecap="round" stroke-linejoin="round" stroke-width="0.05"/>
    </g>
  </g>
  </g>
  <defs>
    <g id="sprite0" transform="matrix(1.0, 0.0, 0.0, 1.0, 0.0, 12.65)">
      <use data-characterId="991" height="25.3" transform="matrix(1.0, 0.0, 0.0, 1.0, 0.0, -12.65)" width="32.45" xlink:href="#shape1"/>
    </g>
    </defs>
</svg>