<svg xmlns:xlink="http://www.w3.org/1999/xlink" xmlns="http://www.w3.org/2000/svg" height="79.85px" width="81.6px">
  <g transform="matrix(1.0, 0.0, 0.0, 1.0, 20.35, 6.3)">
    <path d="M38.95 45.1 L43.9 40.55 45.25 42.3 40.65 45.9 38.95 45.1" fill="#625537" fill-rule="evenodd" stroke="none"/>
    <path d="M5.8 19.5 L24.35 19.5 Q23.1 19.55 22.1 20.25 L21.6 20.65 21.15 21.25 20.6 22.5 20.45 23.5 20.65 24.75 Q20.85 25.45 21.35 26.0 L21.6 26.3 22.5 27.0 Q23.3 27.45 24.25 27.5 L5.95 27.5 Q6.85 27.45 7.65 27.0 L8.5 26.3 8.8 26.0 9.5 24.75 9.7 23.5 9.6 22.5 9.0 21.25 8.5 20.65 8.05 20.25 Q7.05 19.55 5.8 19.5 M43.3 48.0 L44.5 48.4 39.2 61.75 20.35 65.9 17.45 68.75 17.2 68.5 14.5 65.55 -2.05 61.5 -7.25 48.65 -5.8 48.1 Q-5.15 54.45 1.15 59.2 8.4 64.45 18.65 64.45 28.9 64.45 36.05 59.2 42.45 54.5 43.3 48.0" fill="#51462f" fill-rule="evenodd" stroke="none"/>
    <path d="M46.8 49.15 L49.2 49.9 47.2 57.0 44.7 56.25 46.8 49.15 M50.95 50.45 L53.95 51.4 52.2 58.55 49.15 57.6 50.95 50.45" fill="#957a40" fill-rule="evenodd" stroke="none"/>
    <path d="M3.7 20.0 Q4.55 19.55 5.6 19.5 L5.8 19.5 Q7.05 19.55 8.05 20.25 L8.5 20.65 9.0 21.25 9.6 22.5 9.7 23.5 9.5 24.75 8.8 26.0 8.5 26.3 7.65 27.0 Q6.85 27.45 5.95 27.5 L5.6 27.5 4.75 27.4 3.75 27.0 3.7 27.0 2.85 26.3 2.6 26.0 Q2.1 25.45 1.9 24.75 L1.7 23.5 Q1.7 23.0 1.85 22.5 L2.4 21.25 2.85 20.65 3.35 20.25 3.7 20.0 M24.35 19.5 L24.45 19.5 Q25.8 19.5 26.8 20.25 L27.25 20.65 27.75 21.25 28.35 22.5 28.45 23.5 28.25 24.75 27.55 26.0 27.25 26.3 26.4 27.0 24.6 27.5 24.25 27.5 Q23.3 27.45 22.5 27.0 L21.6 26.3 21.35 26.0 Q20.85 25.45 20.65 24.75 L20.45 23.5 20.6 22.5 21.15 21.25 21.6 20.65 22.1 20.25 Q23.1 19.55 24.35 19.5" fill="#3c3322" fill-rule="evenodd" stroke="none"/>
    <path d="M3.7 20.0 L3.7 9.5 3.75 8.15 Q4.2 2.55 8.2 -1.5 12.75 -6.0 19.2 -6.0 25.65 -6.0 30.15 -1.5 34.45 2.8 34.7 8.75 L34.7 9.5 34.7 41.5 34.7 42.1 34.6 43.05 Q33.9 46.3 30.15 48.75 25.65 51.7 19.2 51.7 12.75 51.7 8.2 48.75 4.05 46.0 3.75 42.25 L3.75 42.05 3.7 41.5 3.7 27.0 3.75 27.0 4.75 27.4 5.6 27.5 5.95 27.5 24.25 27.5 24.6 27.5 26.4 27.0 27.25 26.3 27.55 26.0 28.25 24.75 28.45 23.5 28.35 22.5 27.75 21.25 27.25 20.65 26.8 20.25 Q25.8 19.5 24.45 19.5 L24.35 19.5 5.8 19.5 5.6 19.5 Q4.55 19.55 3.7 20.0" fill="url(#gradient0)" fill-rule="evenodd" stroke="none"/>
    <path d="M3.75 42.25 Q4.05 46.0 8.2 48.75 12.75 51.7 19.2 51.7 25.65 51.7 30.15 48.75 33.9 46.3 34.6 43.05 L38.95 45.1 40.65 45.9 43.35 47.15 43.3 48.0 Q42.45 54.5 36.05 59.2 28.9 64.45 18.65 64.45 8.4 64.45 1.15 59.2 -5.15 54.45 -5.8 48.1 L-5.8 48.05 -5.85 47.8 3.65 42.1 3.75 42.25" fill="url(#gradient1)" fill-rule="evenodd" stroke="none"/>
    <path d="M44.5 48.4 L46.8 49.15 44.7 56.25 47.2 57.0 49.2 49.9 50.95 50.45 49.15 57.6 52.2 58.55 53.95 51.4 56.35 52.15 50.55 73.25 17.2 73.25 -12.1 73.25 -20.05 53.25 -7.25 48.65 -2.05 61.5 14.5 65.55 17.2 68.5 17.2 69.0 17.45 68.75 20.35 65.9 39.2 61.75 44.5 48.4 M17.2 73.25 L17.2 69.0 17.2 73.25" fill="url(#gradient2)" fill-rule="evenodd" stroke="none"/>
    <path d="M34.6 43.05 L34.7 42.1 34.7 41.5 34.7 9.5 34.7 8.75 Q34.45 2.8 30.15 -1.5 25.65 -6.0 19.2 -6.0 12.75 -6.0 8.2 -1.5 4.2 2.55 3.75 8.15 L3.7 9.5 3.7 20.0 Q4.55 19.55 5.6 19.5 L5.8 19.5 24.35 19.5 24.45 19.5 Q25.8 19.5 26.8 20.25 L27.25 20.65 27.75 21.25 28.35 22.5 28.45 23.5 28.25 24.75 27.55 26.0 27.25 26.3 26.4 27.0 24.6 27.5 24.25 27.5 5.95 27.5 5.6 27.5 4.75 27.4 3.75 27.0 3.7 27.0 3.7 41.5 3.75 42.05 3.75 42.25 Q4.05 46.0 8.2 48.75 12.75 51.7 19.2 51.7 25.65 51.7 30.15 48.75 33.9 46.3 34.6 43.05 L38.95 45.1 43.9 40.55 45.25 42.3 40.65 45.9 43.35 47.15 43.3 48.0 44.5 48.4 46.8 49.15 49.2 49.9 50.95 50.45 53.95 51.4 56.35 52.15 50.55 73.25 17.2 73.25 -12.1 73.25 -20.05 53.25 -7.25 48.65 -5.8 48.1 -5.8 48.05 -5.85 47.8 3.65 42.1 3.75 42.05 M60.95 46.7 L59.2 47.25 M24.35 19.5 Q23.1 19.55 22.1 20.25 L21.6 20.65 21.15 21.25 20.6 22.5 20.45 23.5 20.65 24.75 Q20.85 25.45 21.35 26.0 L21.6 26.3 22.5 27.0 Q23.3 27.45 24.25 27.5 M3.7 20.0 L3.35 20.25 2.85 20.65 2.4 21.25 1.85 22.5 Q1.7 23.0 1.7 23.5 L1.9 24.75 Q2.1 25.45 2.6 26.0 L2.85 26.3 3.7 27.0 M5.95 27.5 Q6.85 27.45 7.65 27.0 L8.5 26.3 8.8 26.0 9.5 24.75 9.7 23.5 9.6 22.5 9.0 21.25 8.5 20.65 8.05 20.25 Q7.05 19.55 5.8 19.5 M44.5 48.4 L39.2 61.75 20.35 65.9 17.45 68.75 17.2 69.0 17.2 73.25 M43.3 48.0 Q42.45 54.5 36.05 59.2 28.9 64.45 18.65 64.45 8.4 64.45 1.15 59.2 -5.15 54.45 -5.8 48.1 M-7.25 48.65 L-2.05 61.5 14.5 65.55 17.2 68.5 17.45 68.75 M17.2 69.0 L17.2 68.5 M40.65 45.9 L38.95 45.1" fill="none" stroke="#000000" stroke-linecap="round" stroke-linejoin="round" stroke-width="1.5"/>
  </g>
  <defs>
    <linearGradient gradientTransform="matrix(0.0192, 0.0, 0.0, 0.0266, 19.2, 29.9)" gradientUnits="userSpaceOnUse" id="gradient0" spreadMethod="pad" x1="-819.2" x2="819.2">
      <stop offset="0.0" stop-color="#625537"/>
      <stop offset="0.39215686274509803" stop-color="#a59163"/>
      <stop offset="1.0" stop-color="#625537"/>
    </linearGradient>
    <linearGradient gradientTransform="matrix(0.03, 0.0, 0.0, 0.0136, 18.75, 53.25)" gradientUnits="userSpaceOnUse" id="gradient1" spreadMethod="pad" x1="-819.2" x2="819.2">
      <stop offset="0.0" stop-color="#625537"/>
      <stop offset="0.39215686274509803" stop-color="#a59163"/>
      <stop offset="0.49019607843137253" stop-color="#c2b69a"/>
      <stop offset="0.5882352941176471" stop-color="#907e55"/>
      <stop offset="1.0" stop-color="#625537"/>
    </linearGradient>
    <radialGradient cx="0" cy="0" gradientTransform="matrix(0.0338, 0.0, 0.0, 0.0338, 11.95, 65.5)" gradientUnits="userSpaceOnUse" id="gradient2" r="819.2" spreadMethod="pad">
      <stop offset="0.0" stop-color="#a59163"/>
      <stop offset="1.0" stop-color="#625537"/>
    </radialGradient>
  </defs>
</svg>