<svg xmlns:xlink="http://www.w3.org/1999/xlink" xmlns="http://www.w3.org/2000/svg" height="252.85px" width="204.7px">
  <g transform="matrix(1.0, 0.0, 0.0, 1.0, 94.45, 197.8)">
    <g data-characterId="1601" height="80.8" transform="matrix(1.0, 0.0, 0.0, 1.0, -70.45, -41.45)" width="136.95" xlink:href="#shape0"><g id="shape0" transform="matrix(1.0, 0.0, 0.0, 1.0, 70.45, 41.45)">
      <path d="M31.85 -30.5 L31.0 -27.0 29.4 -30.4 29.6 -31.1 31.85 -30.5" fill="#54512c" fill-rule="evenodd" stroke="none"/>
      <path d="M31.0 -27.0 L31.85 -30.5 29.6 -31.1 28.1 -31.7 29.4 -30.4 31.0 -27.0 31.05 -25.65 Q29.85 -3.5 6.5 -4.5 29.85 -3.5 31.05 -25.65 L31.0 -27.0 M46.5 -34.0 L44.95 -33.2 Q38.85 -29.95 31.85 -30.5 38.85 -29.95 44.95 -33.2 L46.5 -34.0 M41.0 -40.0 L40.6 -39.9 41.0 -40.0 M45.0 -24.5 Q44.85 -18.05 40.5 -13.15 31.6 -3.25 19.15 2.2 -1.15 11.0 -24.05 10.15 -46.85 8.8 -56.0 -11.5 -46.85 8.8 -24.05 10.15 -1.15 11.0 19.15 2.2 31.6 -3.25 40.5 -13.15 44.85 -18.05 45.0 -24.5 M40.75 -40.95 L49.35 -33.5 Q69.5 -16.1 65.25 9.1 64.5 13.6 61.45 16.95 46.75 32.9 24.1 37.0 -0.4 41.4 -24.85 35.2 -47.8 29.35 -66.6 14.75 -68.75 13.05 -69.2 10.65 -70.65 2.75 -69.2 -3.85 -66.1 -18.4 -49.1 -26.6 L-48.85 -26.75 Q-40.15 -34.0 -29.5 -37.05 L-29.2 -37.1 Q-21.1 -39.35 -11.55 -40.75 L-10.8 -40.85 -12.85 -35.1 -13.6 -33.8 -15.15 -30.55 -19.75 -20.35 Q0.1 -11.6 20.55 -29.4 29.3 -37.05 40.6 -39.9 L40.75 -40.95 M61.5 -7.5 Q62.05 5.5 48.15 5.9 36.45 6.2 26.2 10.55 23.3 11.75 23.7 14.75 24.9 24.6 31.0 18.0 24.9 24.6 23.7 14.75 23.3 11.75 26.2 10.55 36.45 6.2 48.15 5.9 62.05 5.5 61.5 -7.5 M-34.5 0.5 Q-38.8 -0.9 -41.8 -4.2 -49.5 -12.75 -42.7 -21.65 L-49.5 -21.75 -50.4 -22.45 -49.1 -26.6 -50.4 -22.45 -49.5 -21.75 -42.7 -21.65 Q-49.5 -12.75 -41.8 -4.2 -38.8 -0.9 -34.5 0.5 M-56.0 11.0 L-56.1 12.65 Q-54.65 14.7 -52.1 14.15 L-51.05 13.85 Q-47.35 9.35 -50.55 4.35 -64.4 6.5 -69.2 -3.85 -64.4 6.5 -50.55 4.35 -47.35 9.35 -51.05 13.85 L-52.1 14.15 Q-54.65 14.7 -56.1 12.65 L-56.0 11.0 M-10.8 -40.85 L-11.55 -40.75 -10.55 -41.45 -10.8 -40.85 M-31.5 -28.0 Q-32.3 -32.3 -30.0 -36.0 L-29.2 -37.1 -30.0 -36.0 Q-32.3 -32.3 -31.5 -28.0 M-17.5 -10.5 L-22.0 -13.5 Q-26.45 -16.75 -28.0 -22.5 -26.45 -16.75 -22.0 -13.5 L-17.5 -10.5" fill="#5a4d36" fill-rule="evenodd" stroke="none"/>
      <path d="M-56.0 -11.5 Q-46.85 8.8 -24.05 10.15 -1.15 11.0 19.15 2.2 31.6 -3.25 40.5 -13.15 44.85 -18.05 45.0 -24.5 M40.6 -39.9 L41.0 -40.0 M40.75 -40.95 L49.35 -33.5 Q69.5 -16.1 65.25 9.1 64.5 13.6 61.45 16.95 46.75 32.9 24.1 37.0 -0.4 41.4 -24.85 35.2 -47.8 29.35 -66.6 14.75 -68.75 13.05 -69.2 10.65 -70.65 2.75 -69.2 -3.85 -66.1 -18.4 -49.1 -26.6 M-10.8 -40.85 L-12.85 -35.1 -13.6 -33.8 -15.15 -30.55 -19.75 -20.35 Q0.1 -11.6 20.55 -29.4 29.3 -37.05 40.6 -39.9 M-48.85 -26.75 Q-40.15 -34.0 -29.5 -37.05 L-29.2 -37.1 Q-21.1 -39.35 -11.55 -40.75 L-10.8 -40.85 M-28.0 -22.5 Q-26.45 -16.75 -22.0 -13.5 L-17.5 -10.5" fill="none" stroke="#000000" stroke-linecap="round" stroke-linejoin="round" stroke-width="2.0"/>
      <path d="M31.0 -27.0 L31.05 -25.65 Q29.85 -3.5 6.5 -4.5 M29.6 -31.1 L28.1 -31.7 29.4 -30.4 31.0 -27.0 M29.6 -31.1 L31.85 -30.5 Q38.85 -29.95 44.95 -33.2 L46.5 -34.0 M-69.2 -3.85 L-69.5 -4.5 M31.0 18.0 Q24.9 24.6 23.7 14.75 23.3 11.75 26.2 10.55 36.45 6.2 48.15 5.9 62.05 5.5 61.5 -7.5 M-49.1 -26.6 L-48.85 -26.75 M-29.2 -37.1 L-28.5 -38.0 M-49.1 -26.6 L-50.4 -22.45 -49.5 -21.75 -42.7 -21.65 Q-49.5 -12.75 -41.8 -4.2 -38.8 -0.9 -34.5 0.5 M-69.2 -3.85 Q-64.4 6.5 -50.55 4.35 -47.35 9.35 -51.05 13.85 L-52.1 14.15 Q-54.65 14.7 -56.1 12.65 L-56.0 11.0 M-29.2 -37.1 L-30.0 -36.0 Q-32.3 -32.3 -31.5 -28.0" fill="none" stroke="#9900ff" stroke-linecap="round" stroke-linejoin="round" stroke-width="2.0"/>
    </g>
  </g>
  </g>
  <defs>
    </defs>
</svg>