<svg xmlns:xlink="http://www.w3.org/1999/xlink" xmlns="http://www.w3.org/2000/svg" height="252.85px" width="204.7px">
  <g transform="matrix(1.0, 0.0, 0.0, 1.0, 94.45, 197.8)">
    <g data-characterId="1608" height="220.1" transform="matrix(1.0, 0.0, 0.0, 1.0, -94.45, -197.8)" width="186.2" xlink:href="#shape0"><g id="shape0" transform="matrix(1.0, 0.0, 0.0, 1.0, 94.45, 197.8)">
      <path d="M42.7 -30.95 Q42.35 -24.85 40.1 -19.0 39.5 -17.45 38.35 -16.25 33.35 -11.05 30.6 -4.85 30.1 -3.75 30.0 -2.45 L33.45 3.0 Q38.95 0.7 43.85 3.7 L44.45 4.15 Q38.6 14.35 26.8 17.9 18.75 20.3 10.35 21.35 -10.8 24.15 -26.6 10.15 L-31.75 4.8 -35.0 0.5 -34.85 -0.15 -31.85 0.45 Q-30.15 0.95 -28.6 -0.15 -27.95 -0.65 -27.6 -1.3 -28.25 -9.8 -32.0 -17.85 -32.45 -18.8 -32.55 -20.0 -32.9 -23.2 -32.15 -26.05 L-31.6 -27.8 -30.1 -30.8 -28.2 -31.9 Q-23.7 -34.25 -18.9 -35.45 L-13.5 -36.5 Q-13.9 -32.7 -16.75 -28.35 -19.65 -24.05 -18.8 -19.35 -18.0 -14.7 -14.25 -13.05 2.25 -6.2 19.85 -10.4 26.2 -11.85 31.35 -15.7 39.1 -21.35 42.0 -31.0 L42.7 -30.95 M32.5 3.0 L33.45 3.0 32.5 3.0 M3.5 3.5 L5.35 4.3 Q18.8 4.9 30.0 -2.45 18.8 4.9 5.35 4.3 L3.5 3.5 M-3.0 9.0 L-3.55 9.7 Q-8.4 1.35 -16.45 5.6 L-17.35 6.1 Q-19.5 7.45 -19.5 10.0 -19.5 7.45 -17.35 6.1 L-16.45 5.6 Q-8.4 1.35 -3.55 9.7 L-3.0 9.0 M-29.0 -27.0 Q-29.35 -26.05 -29.3 -25.15 -28.4 -14.4 -18.5 -9.5 -28.4 -14.4 -29.3 -25.15 -29.35 -26.05 -29.0 -27.0 M-4.65 11.3 L-3.15 10.75 -3.55 9.7 -4.65 11.3 Q-13.4 14.1 -16.45 5.6 -13.4 14.1 -4.65 11.3 M-1.5 15.0 L-3.15 10.75 -1.5 15.0" fill="#111811" fill-rule="evenodd" stroke="none"/>
      <path d="M-18.9 -35.45 Q-23.7 -34.25 -28.2 -31.9 L-30.1 -30.8 -28.1 -35.25 -30.0 -35.2 -30.0 -35.5 Q-29.25 -43.75 -30.8 -49.4 -32.65 -56.25 -33.15 -63.3 -34.15 -77.55 -36.95 -91.35 L-37.75 -95.15 -39.05 -100.55 -39.85 -103.75 -40.9 -108.45 -38.5 -108.95 -40.9 -108.5 -41.95 -113.75 -42.85 -118.95 Q-45.1 -131.95 -45.2 -145.05 L-45.05 -152.0 -45.0 -152.3 -44.8 -156.1 -44.8 -156.2 -44.45 -160.1 -44.4 -160.3 -44.4 -160.35 Q-43.25 -171.3 -40.3 -181.8 L-41.0 -182.0 -46.95 -173.1 Q-50.25 -168.4 -53.55 -155.35 -56.85 -142.35 -55.7 -124.85 -54.55 -107.4 -54.65 -103.4 L-54.75 -87.6 Q-54.75 -75.85 -52.35 -62.45 L-46.45 -31.7 -54.0 -29.2 Q-57.8 -60.45 -60.05 -92.0 L-60.5 -100.55 Q-61.15 -120.65 -60.95 -141.0 -60.8 -153.85 -56.65 -165.3 -55.15 -169.45 -53.15 -173.35 L-50.0 -179.0 -54.25 -173.95 Q-56.85 -170.55 -59.0 -166.7 L-59.3 -166.2 Q-62.4 -160.55 -66.75 -148.05 -71.1 -135.6 -74.5 -118.5 -77.95 -101.4 -80.7 -92.2 -83.45 -83.05 -84.65 -71.6 -85.9 -60.2 -85.8 -48.5 -85.7 -36.8 -86.6 -32.15 -88.75 -21.3 -85.4 -11.55 -86.7 -10.2 -87.15 -8.6 L-88.0 -9.0 Q-93.4 -15.7 -93.75 -24.25 -94.55 -42.1 -92.1 -60.0 L-88.25 -89.9 Q-87.6 -95.45 -86.4 -100.85 -82.6 -117.8 -78.3 -134.6 -74.25 -150.5 -66.9 -165.35 -64.35 -170.45 -60.5 -174.4 -59.25 -175.7 -58.3 -177.1 -55.45 -181.4 -55.5 -187.0 -55.5 -189.8 -54.75 -192.65 L-54.35 -194.4 -45.05 -197.3 -32.65 -190.4 Q-31.45 -189.7 -29.95 -189.65 -24.7 -189.55 -20.55 -187.35 L-21.0 -171.0 Q-23.3 -179.9 -32.4 -181.8 L-33.6 -181.85 -37.8 -166.9 Q-38.75 -163.3 -39.2 -159.55 L-39.55 -155.8 -39.7 -152.0 Q-39.65 -130.6 -36.15 -109.45 L-36.15 -109.4 -33.8 -96.05 -33.05 -92.1 -29.65 -74.1 -26.7 -60.55 Q-25.2 -54.35 -22.55 -48.55 -20.9 -44.9 -19.95 -41.15 L-19.0 -36.0 -18.9 -35.45 M-40.0 -183.0 L-40.3 -181.8 -40.0 -183.0" fill="#0188a9" fill-rule="evenodd" stroke="none"/>
      <path d="M87.0 1.5 Q82.5 -0.15 78.15 -2.3 74.65 -4.0 70.95 -3.1 54.45 1.05 38.55 -2.6 33.15 -3.95 37.7 -8.3 50.55 -20.85 46.5 -35.5 50.55 -20.85 37.7 -8.3 33.15 -3.95 38.55 -2.6 54.45 1.05 70.95 -3.1 74.65 -4.0 78.15 -2.3 82.5 -0.15 87.0 1.5 M44.45 4.15 L43.85 3.7 Q38.95 0.7 33.45 3.0 L30.0 -2.45 Q30.1 -3.75 30.6 -4.85 33.35 -11.05 38.35 -16.25 39.5 -17.45 40.1 -19.0 42.35 -24.85 42.7 -30.95 42.85 -34.25 42.5 -37.65 L53.45 -36.65 54.4 -35.95 Q59.75 -28.4 68.65 -24.7 78.0 -20.75 84.85 -13.05 92.55 -4.35 91.0 7.5 77.45 -4.25 60.8 3.05 52.65 6.75 44.45 4.15 M86.75 -3.0 Q86.1 -5.2 85.05 -7.0 L84.35 -7.8 Q82.85 -8.95 81.5 -10.5 L81.25 -11.0 Q81.25 -11.95 80.65 -12.6 L77.4 -15.9 76.75 -16.65 Q74.5 -20.0 70.5 -20.6 69.25 -20.8 68.1 -21.25 65.75 -22.05 63.45 -23.9 L62.85 -24.65 Q62.2 -26.25 60.5 -27.0 60.0 -27.25 59.65 -27.65 58.3 -29.3 56.45 -30.45 56.0 -30.75 55.9 -31.1 55.2 -33.65 52.95 -34.35 L52.15 -34.7 Q49.05 -36.65 44.6 -36.05 45.35 -34.6 45.0 -32.0 45.35 -34.6 44.6 -36.05 49.05 -36.65 52.15 -34.7 L52.95 -34.35 Q55.2 -33.65 55.9 -31.1 56.0 -30.75 56.45 -30.45 58.3 -29.3 59.65 -27.65 60.0 -27.25 60.5 -27.0 62.2 -26.25 62.85 -24.65 L63.45 -23.9 Q65.75 -22.05 68.1 -21.25 69.25 -20.8 70.5 -20.6 74.5 -20.0 76.75 -16.65 L77.4 -15.9 80.65 -12.6 Q81.25 -11.95 81.25 -11.0 L81.5 -10.5 Q82.85 -8.95 84.35 -7.8 L85.05 -7.0 Q86.1 -5.2 86.75 -3.0" fill="url(#gradient0)" fill-rule="evenodd" stroke="none"/>
      <path d="M-59.3 -166.2 L-59.0 -166.7 Q-56.85 -170.55 -54.25 -173.95 L-50.0 -179.0 -53.15 -173.35 Q-55.15 -169.45 -56.65 -165.3 L-59.3 -166.2" fill="url(#gradient1)" fill-rule="evenodd" stroke="none"/>
      <path d="M-85.4 -11.55 Q-88.75 -21.3 -86.6 -32.15 -85.7 -36.8 -85.8 -48.5 -85.9 -60.2 -84.65 -71.6 -83.45 -83.05 -80.7 -92.2 -77.95 -101.4 -74.5 -118.5 -71.1 -135.6 -66.75 -148.05 -62.4 -160.55 -59.3 -166.2 L-56.65 -165.3 Q-60.8 -153.85 -60.95 -141.0 -61.15 -120.65 -60.5 -100.55 L-60.05 -92.0 Q-57.8 -60.45 -54.0 -29.2 -61.0 -25.2 -67.4 -20.6 -70.25 -18.5 -73.6 -17.35 -79.95 -15.4 -85.4 -11.55 M-46.45 -31.7 L-52.35 -62.45 Q-54.75 -75.85 -54.75 -87.6 L-54.65 -103.4 Q-54.55 -107.4 -55.7 -124.85 -56.85 -142.35 -53.55 -155.35 -50.25 -168.4 -46.95 -173.1 L-41.0 -182.0 -40.3 -181.8 Q-43.25 -171.3 -44.4 -160.35 L-44.4 -160.3 -44.45 -160.1 -44.8 -156.2 -44.8 -156.1 -45.0 -152.3 -45.05 -152.0 -45.2 -145.05 Q-45.1 -131.95 -42.85 -118.95 L-41.95 -113.75 -40.9 -108.5 -40.9 -108.45 -39.85 -103.75 -39.05 -100.55 -37.75 -95.15 -36.95 -91.35 Q-34.15 -77.55 -33.15 -63.3 -32.65 -56.25 -30.8 -49.4 -29.25 -43.75 -30.0 -35.5 L-30.0 -35.2 -30.05 -35.2 -31.2 -35.5 Q-33.25 -36.1 -37.2 -34.25 -41.15 -32.4 -46.45 -31.7" fill="url(#gradient2)" fill-rule="evenodd" stroke="none"/>
      <path d="M-30.1 -30.8 L-31.6 -27.8 -32.15 -26.05 Q-32.9 -23.2 -32.55 -20.0 -32.45 -18.8 -32.0 -17.85 -28.25 -9.8 -27.6 -1.3 -27.95 -0.65 -28.6 -0.15 -30.15 0.95 -31.85 0.45 L-34.85 -0.15 -37.1 -0.6 -39.5 -0.3 Q-47.45 3.35 -56.15 4.65 L-60.0 4.4 Q-63.55 3.3 -66.9 1.4 -68.6 0.4 -70.5 0.7 -79.4 -0.2 -87.0 -4.0 L-87.25 -5.1 Q-87.65 -7.0 -87.15 -8.6 -86.7 -10.2 -85.4 -11.55 -79.95 -15.4 -73.6 -17.35 -70.25 -18.5 -67.4 -20.6 -61.0 -25.2 -54.0 -29.2 L-46.45 -31.7 Q-41.15 -32.4 -37.2 -34.25 -33.25 -36.1 -31.2 -35.5 L-30.05 -35.2 -30.0 -35.2 -28.1 -35.25 -30.1 -30.8 -31.5 -29.5 -30.1 -30.8 M-85.0 -11.0 Q-85.05 -9.25 -83.85 -8.1 -78.8 -3.2 -72.0 -3.35 L-65.75 -3.7 Q-64.75 -3.7 -63.95 -3.0 -61.5 -1.2 -58.65 -0.1 -53.1 2.2 -47.55 -0.65 L-44.55 -2.15 Q-38.8 -4.9 -32.85 -3.6 -31.75 -4.8 -32.35 -6.5 L-33.05 -8.7 Q-34.1 -12.45 -35.65 -15.95 -36.55 -17.95 -36.95 -20.0 -38.2 -26.55 -34.5 -32.5 -38.2 -26.55 -36.95 -20.0 -36.55 -17.95 -35.65 -15.95 -34.1 -12.45 -33.05 -8.7 L-32.35 -6.5 Q-31.75 -4.8 -32.85 -3.6 -38.8 -4.9 -44.55 -2.15 L-47.55 -0.65 Q-53.1 2.2 -58.65 -0.1 -61.5 -1.2 -63.95 -3.0 -64.75 -3.7 -65.75 -3.7 L-72.0 -3.35 Q-78.8 -3.2 -83.85 -8.1 -85.05 -9.25 -85.0 -11.0 M-35.5 -25.5 L-34.6 -29.05 Q-33.9 -30.8 -32.85 -31.85 -31.3 -33.45 -32.1 -34.45 -32.5 -35.0 -33.45 -34.8 L-34.05 -34.65 -37.5 -33.45 -38.5 -33.05 Q-40.65 -32.35 -42.05 -30.55 L-42.55 -30.15 -45.1 -29.2 Q-47.65 -28.15 -50.5 -27.6 L-51.4 -27.3 -56.45 -24.95 Q-59.15 -23.7 -60.55 -22.55 L-65.5 -18.0 Q-66.0 -17.5 -66.6 -17.15 -67.7 -16.55 -68.95 -16.3 -70.85 -15.9 -72.55 -14.6 -73.0 -14.25 -73.5 -14.2 L-76.5 -13.8 -77.55 -13.6 -83.0 -12.0 -77.55 -13.6 -76.5 -13.8 -73.5 -14.2 Q-73.0 -14.25 -72.55 -14.6 -70.85 -15.9 -68.95 -16.3 -67.7 -16.55 -66.6 -17.15 -66.0 -17.5 -65.5 -18.0 L-60.55 -22.55 Q-59.15 -23.7 -56.45 -24.95 L-51.4 -27.3 -50.5 -27.6 Q-47.65 -28.15 -45.1 -29.2 L-42.55 -30.15 -42.05 -30.55 Q-40.65 -32.35 -38.5 -33.05 L-37.5 -33.45 -34.05 -34.65 -33.45 -34.8 Q-32.5 -35.0 -32.1 -34.45 -31.3 -33.45 -32.85 -31.85 -33.9 -30.8 -34.6 -29.05 L-35.5 -25.5 M-47.0 -14.5 Q-45.4 -14.4 -46.05 -16.5 -46.25 -17.25 -46.75 -17.45 -49.3 -18.6 -51.0 -16.5 -52.0 -15.25 -53.25 -14.35 -54.75 -13.25 -56.55 -12.95 -57.75 -12.75 -58.0 -13.4 -59.35 -16.9 -56.0 -16.0 -59.35 -16.9 -58.0 -13.4 -57.75 -12.75 -56.55 -12.95 -54.75 -13.25 -53.25 -14.35 -52.0 -15.25 -51.0 -16.5 -49.3 -18.6 -46.75 -17.45 -46.25 -17.25 -46.05 -16.5 -45.4 -14.4 -47.0 -14.5 M-39.0 -29.0 L-39.05 -28.0 -39.35 -25.5 -39.3 -22.0 -39.0 -18.5 Q-38.55 -12.9 -36.0 -8.0 -38.55 -12.9 -39.0 -18.5 L-39.3 -22.0 -39.35 -25.5 -39.05 -28.0 -39.0 -29.0" fill="url(#gradient3)" fill-rule="evenodd" stroke="none"/>
      <path d="M46.5 -35.5 Q50.55 -20.85 37.7 -8.3 33.15 -3.95 38.55 -2.6 54.45 1.05 70.95 -3.1 74.65 -4.0 78.15 -2.3 82.5 -0.15 87.0 1.5 M42.7 -30.95 Q42.35 -24.85 40.1 -19.0 39.5 -17.45 38.35 -16.25 33.35 -11.05 30.6 -4.85 30.1 -3.75 30.0 -2.45 L33.45 3.0 Q38.95 0.7 43.85 3.7 L44.45 4.15 Q52.65 6.75 60.8 3.05 77.45 -4.25 91.0 7.5 92.55 -4.35 84.85 -13.05 78.0 -20.75 68.65 -24.7 59.75 -28.4 54.4 -35.95 L53.45 -36.65 42.5 -37.65 Q42.85 -34.25 42.7 -30.95 M42.0 -31.0 Q39.1 -21.35 31.35 -15.7 26.2 -11.85 19.85 -10.4 2.25 -6.2 -14.25 -13.05 -18.0 -14.7 -18.8 -19.35 -19.65 -24.05 -16.75 -28.35 -13.9 -32.7 -13.5 -36.5 L-18.9 -35.45 Q-23.7 -34.25 -28.2 -31.9 L-30.1 -30.8 -31.6 -27.8 -32.15 -26.05 Q-32.9 -23.2 -32.55 -20.0 -32.45 -18.8 -32.0 -17.85 -28.25 -9.8 -27.6 -1.3 -27.95 -0.65 -28.6 -0.15 -30.15 0.95 -31.85 0.45 L-34.85 -0.15 -37.1 -0.6 -39.5 -0.3 Q-47.45 3.35 -56.15 4.65 L-60.0 4.4 Q-63.55 3.3 -66.9 1.4 -68.6 0.4 -70.5 0.7 -79.4 -0.2 -87.0 -4.0 L-87.25 -5.1 Q-87.65 -7.0 -87.15 -8.6 -86.7 -10.2 -85.4 -11.55 -88.75 -21.3 -86.6 -32.15 -85.7 -36.8 -85.8 -48.5 -85.9 -60.2 -84.65 -71.6 -83.45 -83.05 -80.7 -92.2 -77.95 -101.4 -74.5 -118.5 -71.1 -135.6 -66.75 -148.05 -62.4 -160.55 -59.3 -166.2 L-59.0 -166.7 Q-56.85 -170.55 -54.25 -173.95 L-50.0 -179.0 -53.15 -173.35 Q-55.15 -169.45 -56.65 -165.3 -60.8 -153.85 -60.95 -141.0 -61.15 -120.65 -60.5 -100.55 L-60.05 -92.0 Q-57.8 -60.45 -54.0 -29.2 L-46.45 -31.7 -52.35 -62.45 Q-54.75 -75.85 -54.75 -87.6 L-54.65 -103.4 Q-54.55 -107.4 -55.7 -124.85 -56.85 -142.35 -53.55 -155.35 -50.25 -168.4 -46.95 -173.1 L-41.0 -182.0 M-35.0 0.5 L-31.75 4.8 -26.6 10.15 Q-10.8 24.15 10.35 21.35 18.75 20.3 26.8 17.9 38.6 14.35 44.45 4.15 M30.0 -2.45 Q18.8 4.9 5.35 4.3 L3.5 3.5 M33.45 3.0 L32.5 3.0 M-19.0 -36.0 L-19.95 -41.15 Q-20.9 -44.9 -22.55 -48.55 -25.2 -54.35 -26.7 -60.55 L-29.65 -74.1 -33.05 -92.1 -33.8 -96.05 -36.15 -109.4 -36.15 -109.45 Q-39.65 -130.6 -39.7 -152.0 L-39.55 -155.8 -39.2 -159.55 Q-38.75 -163.3 -37.8 -166.9 L-33.6 -181.85 -32.4 -181.8 Q-23.3 -179.9 -21.0 -171.0 L-20.55 -187.35 Q-24.7 -189.55 -29.95 -189.65 -31.45 -189.7 -32.65 -190.4 L-45.05 -197.3 -54.35 -194.4 -54.75 -192.65 Q-55.5 -189.8 -55.5 -187.0 -55.45 -181.4 -58.3 -177.1 -59.25 -175.7 -60.5 -174.4 -64.35 -170.45 -66.9 -165.35 -74.25 -150.5 -78.3 -134.6 -82.6 -117.8 -86.4 -100.85 -87.6 -95.45 -88.25 -89.9 L-92.1 -60.0 Q-94.55 -42.1 -93.75 -24.25 -93.4 -15.7 -88.0 -9.0 M-40.3 -181.8 L-40.0 -183.0 M-40.3 -181.8 Q-43.25 -171.3 -44.4 -160.35 L-44.4 -160.3 -44.45 -160.1 -44.8 -156.2 -44.8 -156.1 -45.0 -152.3 -45.05 -152.0 -45.2 -145.05 Q-45.1 -131.95 -42.85 -118.95 L-41.95 -113.75 -40.9 -108.5 -40.9 -108.45 -39.85 -103.75 -39.05 -100.55 -37.75 -95.15 -36.95 -91.35 Q-34.15 -77.55 -33.15 -63.3 -32.65 -56.25 -30.8 -49.4 -29.25 -43.75 -30.0 -35.5 M-30.0 -35.2 L-28.1 -35.25 -30.1 -30.8 -31.5 -29.5 M-34.5 -32.5 Q-38.2 -26.55 -36.95 -20.0 -36.55 -17.95 -35.65 -15.95 -34.1 -12.45 -33.05 -8.7 L-32.35 -6.5 Q-31.75 -4.8 -32.85 -3.6 -38.8 -4.9 -44.55 -2.15 L-47.55 -0.65 Q-53.1 2.2 -58.65 -0.1 -61.5 -1.2 -63.95 -3.0 -64.75 -3.7 -65.75 -3.7 L-72.0 -3.35 Q-78.8 -3.2 -83.85 -8.1 -85.05 -9.25 -85.0 -11.0 M-54.0 -29.2 Q-61.0 -25.2 -67.4 -20.6 -70.25 -18.5 -73.6 -17.35 -79.95 -15.4 -85.4 -11.55 M-30.0 -35.2 L-30.05 -35.2 -31.2 -35.5 Q-33.25 -36.1 -37.2 -34.25 -41.15 -32.4 -46.45 -31.7 M-18.5 -9.5 Q-28.4 -14.4 -29.3 -25.15 -29.35 -26.05 -29.0 -27.0 M-19.5 10.0 Q-19.5 7.45 -17.35 6.1 L-16.45 5.6 Q-8.4 1.35 -3.55 9.7 L-3.0 9.0 M-3.15 10.75 L-3.55 9.7 -4.65 11.3 Q-13.4 14.1 -16.45 5.6 M-3.15 10.75 L-1.5 15.0" fill="none" stroke="#000000" stroke-linecap="round" stroke-linejoin="round" stroke-width="2.0"/>
      <path d="M45.0 -32.0 Q45.35 -34.6 44.6 -36.05 49.05 -36.65 52.15 -34.7 L52.95 -34.35 Q55.2 -33.65 55.9 -31.1 56.0 -30.75 56.45 -30.45 58.3 -29.3 59.65 -27.65 60.0 -27.25 60.5 -27.0 62.2 -26.25 62.85 -24.65 L63.45 -23.9 Q65.75 -22.05 68.1 -21.25 69.25 -20.8 70.5 -20.6 74.5 -20.0 76.75 -16.65 L77.4 -15.9 80.65 -12.6 Q81.25 -11.95 81.25 -11.0 L81.5 -10.5 Q82.85 -8.95 84.35 -7.8 L85.05 -7.0 Q86.1 -5.2 86.75 -3.0 M-83.0 -12.0 L-77.55 -13.6 -76.5 -13.8 -73.5 -14.2 Q-73.0 -14.25 -72.55 -14.6 -70.85 -15.9 -68.95 -16.3 -67.7 -16.55 -66.6 -17.15 -66.0 -17.5 -65.5 -18.0 L-60.55 -22.55 Q-59.15 -23.7 -56.45 -24.95 L-51.4 -27.3 -50.5 -27.6 Q-47.65 -28.15 -45.1 -29.2 L-42.55 -30.15 -42.05 -30.55 Q-40.65 -32.35 -38.5 -33.05 L-37.5 -33.45 -34.05 -34.65 -33.45 -34.8 Q-32.5 -35.0 -32.1 -34.45 -31.3 -33.45 -32.85 -31.85 -33.9 -30.8 -34.6 -29.05 L-35.5 -25.5 M-56.0 -16.0 Q-59.35 -16.9 -58.0 -13.4 -57.75 -12.75 -56.55 -12.95 -54.75 -13.25 -53.25 -14.35 -52.0 -15.25 -51.0 -16.5 -49.3 -18.6 -46.75 -17.45 -46.25 -17.25 -46.05 -16.5 -45.4 -14.4 -47.0 -14.5 M-36.0 -8.0 Q-38.55 -12.9 -39.0 -18.5 L-39.3 -22.0 -39.35 -25.5 -39.05 -28.0 -39.0 -29.0" fill="none" stroke="#ffffff" stroke-linecap="round" stroke-linejoin="round" stroke-width="2.0"/>
    </g>
    </g>
  </g>
  <defs>
    <linearGradient gradientTransform="matrix(-0.0074, 0.0219, -0.0261, -0.0089, 60.6, -15.1)" gradientUnits="userSpaceOnUse" id="gradient0" spreadMethod="pad" x1="-819.2" x2="819.2">
      <stop offset="0.0" stop-color="#ffffff"/>
      <stop offset="0.6705882352941176" stop-color="#98a3aa"/>
      <stop offset="1.0" stop-color="#444f53"/>
    </linearGradient>
    <linearGradient gradientTransform="matrix(1.0, 0.0, 0.0, 1.0, 1.0, -4.0)" gradientUnits="userSpaceOnUse" id="gradient1" spreadMethod="pad" x1="-819.2" x2="819.2">
      <stop offset="0.0" stop-color="#0eacb4" stop-opacity="0.7019608"/>
      <stop offset="1.0" stop-color="#61e1f3" stop-opacity="0.7019608"/>
    </linearGradient>
    <linearGradient gradientTransform="matrix(0.0, -0.0845, 0.0917, 0.0, -54.35, -71.0)" gradientUnits="userSpaceOnUse" id="gradient2" spreadMethod="pad" x1="-819.2" x2="819.2">
      <stop offset="0.0" stop-color="#0eacb4" stop-opacity="0.7019608"/>
      <stop offset="1.0" stop-color="#61e1f3" stop-opacity="0.7019608"/>
    </linearGradient>
    <linearGradient gradientTransform="matrix(0.0036, 0.0209, -0.0248, 0.0043, -57.55, -15.8)" gradientUnits="userSpaceOnUse" id="gradient3" spreadMethod="pad" x1="-819.2" x2="819.2">
      <stop offset="0.0" stop-color="#ffffff"/>
      <stop offset="0.6705882352941176" stop-color="#98a3aa"/>
      <stop offset="1.0" stop-color="#444f53"/>
    </linearGradient>
  </defs>
</svg>