<svg xmlns:xlink="http://www.w3.org/1999/xlink" xmlns="http://www.w3.org/2000/svg" height="224.65px" width="260.8px">
  <g transform="matrix(1.0, 0.0, 0.0, 1.0, 89.35, 116.1)">
    <g data-characterId="1660" height="161.45" transform="matrix(1.0, 0.0, 0.0, 1.0, -80.65, -116.1)" width="244.2" xlink:href="#shape0"><g id="shape0" transform="matrix(1.0, 0.0, 0.0, 1.0, 80.65, 116.1)">
      <path d="M-1.6 -50.9 L4.4 -52.5 Q10.55 -53.8 15.8 -57.1 25.8 -63.2 35.65 -69.6 53.8 -81.25 72.65 -91.95 L92.1 -102.95 Q101.6 -108.3 109.85 -111.2 118.1 -114.1 123.25 -115.2 128.5 -116.7 133.6 -112.45 125.7 -109.65 118.1 -106.05 105.95 -100.15 94.05 -93.85 81.8 -87.25 69.7 -80.25 58.7 -73.85 48.4 -66.35 38.8 -59.35 29.6 -51.8 L29.55 -51.8 27.65 -50.2 Q20.55 -51.25 13.75 -50.3 L13.7 -50.3 Q7.85 -49.5 2.15 -47.3 L2.0 -47.75 -1.4 -50.15 -1.6 -50.9 M31.4 -49.45 L39.35 -54.0 41.25 -55.05 71.1 -71.6 94.95 -84.6 Q106.35 -90.65 116.2 -93.2 126.0 -95.8 131.6 -97.7 145.45 -99.65 159.75 -99.65 L163.05 -96.55 140.0 -90.9 Q126.95 -87.4 114.5 -81.9 103.35 -76.95 92.55 -70.8 81.0 -64.2 69.45 -57.3 57.4 -50.15 45.95 -42.2 L45.9 -42.2 44.8 -41.4 Q34.45 -34.45 28.9 -27.05 L28.15 -26.0 24.95 -24.6 24.3 -24.15 10.65 -35.35 10.3 -35.95 31.4 -49.45 M31.05 -31.7 L29.6 -34.9 Q41.45 -41.4 40.85 -51.65 40.75 -53.1 39.35 -54.0 40.75 -53.1 40.85 -51.65 41.45 -41.4 29.6 -34.9 L31.05 -31.7 M40.4 -61.15 L34.3 -62.65 25.55 -62.3 34.3 -62.65 40.4 -61.15" fill="url(#gradient0)" fill-rule="evenodd" stroke="none"/>
      <path d="M-1.6 -50.9 L-1.4 -50.15 2.0 -47.75 2.15 -47.3 Q7.85 -49.5 13.7 -50.3 L13.75 -50.3 Q20.55 -51.25 27.65 -50.2 L31.4 -49.45 10.3 -35.95 7.55 -34.2 10.3 -35.95 10.65 -35.35 24.3 -24.15 24.95 -24.6 28.15 -26.0 28.45 -26.1 29.55 -26.55 30.95 -24.75 31.95 -22.3 32.9 -18.35 32.95 -17.8 33.1 -17.05 34.15 -12.9 34.65 -10.05 34.8 -6.75 34.65 -1.3 34.55 -0.2 Q34.55 0.7 34.1 1.4 L33.95 1.75 33.65 2.0 33.4 2.05 33.4 2.25 33.7 2.5 33.4 4.4 Q33.4 5.0 33.2 5.0 L29.75 5.25 29.35 5.25 28.75 5.2 28.65 5.2 Q27.85 5.55 27.35 6.05 L27.45 5.15 23.8 4.9 22.8 5.1 Q21.15 6.1 18.55 6.5 L18.7 7.25 14.25 12.9 6.8 13.4 Q-2.85 15.05 -10.9 21.7 -22.05 30.85 -36.75 32.8 -40.45 33.3 -43.25 35.25 -55.35 43.45 -69.6 44.85 L-71.25 44.2 -73.7 43.65 -76.8 42.7 Q-79.15 41.7 -80.05 39.3 L-80.15 38.85 -79.25 33.0 Q-78.1 24.0 -75.8 15.25 L-71.25 16.05 Q-67.75 15.5 -64.9 13.25 -56.3 6.45 -48.65 -1.35 -45.1 -5.05 -43.0 -10.05 -39.9 -17.3 -39.05 -25.05 L-33.25 -29.8 Q-23.05 -38.0 -12.15 -45.6 -7.25 -48.95 -1.65 -50.85 L-1.6 -50.9 M8.6 -40.85 L8.0 -41.25 3.45 -43.15 8.0 -41.25 8.6 -40.85 M18.05 -46.1 Q16.8 -48.55 13.8 -49.5 16.8 -48.55 18.05 -46.1 M-69.9 32.5 Q-70.35 31.65 -70.25 30.85 -70.05 29.5 -69.25 28.25 L-67.45 26.05 Q-65.5 24.1 -67.15 21.9 -67.6 21.3 -68.3 21.0 L-70.0 21.1 Q-71.05 21.6 -71.75 22.6 -72.1 23.15 -72.05 23.6 -72.1 23.15 -71.75 22.6 -71.05 21.6 -70.0 21.1 L-68.3 21.0 Q-67.6 21.3 -67.15 21.9 -65.5 24.1 -67.45 26.05 L-69.25 28.25 Q-70.05 29.5 -70.25 30.85 -70.35 31.65 -69.9 32.5 M-3.6 -33.2 Q-6.6 -36.05 -10.95 -36.8 -6.6 -36.05 -3.6 -33.2 M-0.5 -46.3 L2.15 -47.3 -0.5 -46.3" fill="#50882d" fill-rule="evenodd" stroke="none"/>
      <path d="M33.95 1.75 L33.7 2.5 33.4 2.25 33.65 2.0 33.95 1.75" fill="url(#gradient1)" fill-rule="evenodd" stroke="none"/>
      <path d="M27.65 -50.2 L29.55 -51.8 29.6 -51.8 Q38.8 -59.35 48.4 -66.35 58.7 -73.85 69.7 -80.25 81.8 -87.25 94.05 -93.85 105.95 -100.15 118.1 -106.05 125.7 -109.65 133.6 -112.45 128.5 -116.7 123.25 -115.2 118.1 -114.1 109.85 -111.2 101.6 -108.3 92.1 -102.95 L72.65 -91.95 Q53.8 -81.25 35.65 -69.6 25.8 -63.2 15.8 -57.1 10.55 -53.8 4.4 -52.5 L-1.6 -50.9 -1.65 -50.85 Q-7.25 -48.95 -12.15 -45.6 -23.05 -38.0 -33.25 -29.8 L-39.05 -25.05 Q-39.9 -17.3 -43.0 -10.05 -45.1 -5.05 -48.65 -1.35 -56.3 6.45 -64.9 13.25 -67.75 15.5 -71.25 16.05 L-75.8 15.25 Q-78.1 24.0 -79.25 33.0 L-80.15 38.85 -80.05 39.3 Q-79.15 41.7 -76.8 42.7 L-73.7 43.65 -71.25 44.2 -69.6 44.85 Q-55.35 43.45 -43.25 35.25 -40.45 33.3 -36.75 32.8 -22.05 30.85 -10.9 21.7 -2.85 15.05 6.8 13.4 L8.1 15.15 8.4 15.45 M2.15 -47.3 Q7.85 -49.5 13.7 -50.3 L13.75 -50.3 Q20.55 -51.25 27.65 -50.2 L31.4 -49.45 39.35 -54.0 41.25 -55.05 71.1 -71.6 94.95 -84.6 Q106.35 -90.65 116.2 -93.2 126.0 -95.8 131.6 -97.7 145.45 -99.65 159.75 -99.65 L163.05 -96.55 140.0 -90.9 Q126.95 -87.4 114.5 -81.9 103.35 -76.95 92.55 -70.8 81.0 -64.2 69.45 -57.3 57.4 -50.15 45.95 -42.2 L45.9 -42.2 44.8 -41.4 Q34.45 -34.45 28.9 -27.05 L29.55 -26.55 30.95 -24.75 31.95 -22.3 32.9 -18.35 32.95 -17.8 33.1 -17.05 34.15 -12.9 34.65 -10.05 34.8 -6.75 34.65 -1.3 34.55 -0.2 Q34.55 0.7 34.1 1.4 L33.95 1.75 33.7 2.5 33.4 2.25 33.65 2.0 33.95 1.75 M28.9 -27.05 L28.15 -26.0 28.45 -26.1 29.55 -26.55 M10.3 -35.95 L7.55 -34.2 M10.3 -35.95 L31.4 -49.45 M33.4 2.05 L33.4 2.25 M2.15 -47.3 L-0.5 -46.3" fill="none" stroke="#000000" stroke-linecap="round" stroke-linejoin="round" stroke-width="2.0"/>
      <path d="M13.8 -49.5 Q16.8 -48.55 18.05 -46.1 M3.45 -43.15 L8.0 -41.25 8.6 -40.85 M-10.95 -36.8 Q-6.6 -36.05 -3.6 -33.2 M-72.05 23.6 Q-72.1 23.15 -71.75 22.6 -71.05 21.6 -70.0 21.1 L-68.3 21.0 Q-67.6 21.3 -67.15 21.9 -65.5 24.1 -67.45 26.05 L-69.25 28.25 Q-70.05 29.5 -70.25 30.85 -70.35 31.65 -69.9 32.5" fill="none" stroke="#006600" stroke-linecap="round" stroke-linejoin="round" stroke-width="2.0"/>
      <path d="M25.55 -62.3 L34.3 -62.65 40.4 -61.15 M39.35 -54.0 Q40.75 -53.1 40.85 -51.65 41.45 -41.4 29.6 -34.9 L31.05 -31.7" fill="none" stroke="#9900ff" stroke-linecap="round" stroke-linejoin="round" stroke-width="1.5"/>
    </g>
    </g>
    <g data-characterId="1661" height="143.45" transform="matrix(1.0, 0.0, 0.0, 1.0, -74.0, -46.75)" width="184.15" xlink:href="#shape1"><g id="shape1" transform="matrix(1.0, 0.0, 0.0, 1.0, 74.0, 46.75)">
      <path d="M-42.3 -2.9 L-45.8 -5.75 M-16.2 -39.75 Q-18.1 -38.55 -18.95 -36.55 L-19.3 -35.7 -16.6 -34.7 -17.45 -32.35 -18.05 -32.15 -6.75 -30.7 Q-5.4 -30.95 -4.4 -32.2 M-39.75 -19.65 Q-30.35 -12.05 -23.65 -23.5 -21.3 -27.45 -24.0 -31.1 L-25.4 -32.5 -26.25 -32.6 -27.25 -32.1 Q-28.75 -30.8 -28.7 -28.6 -28.65 -26.4 -30.4 -25.1 L-33.35 -25.3 M-25.4 -32.5 Q-26.9 -33.6 -28.95 -33.75 M-38.2 -25.2 L-38.55 -24.75 M7.1 -46.75 Q9.75 -45.75 12.25 -44.1 L13.2 -43.3 M-17.8 14.7 Q-17.75 7.4 -8.9 5.65 1.4 3.7 2.65 -7.2 2.7 -7.85 3.3 -8.45 11.35 -15.9 18.8 -10.25 20.1 -9.2 20.1 -7.15 20.0 8.05 6.55 6.5 3.55 6.3 4.1 3.2 5.7 -6.25 12.6 -1.6 14.15 -0.5 13.15 1.35 10.7 5.75 9.55 1.6 9.45 1.2 9.75 0.75 M-52.55 22.6 Q-52.9 11.8 -42.9 11.75 -35.05 11.7 -27.55 9.5 -30.75 22.3 -41.7 27.75 L-42.75 28.1 Q-44.85 27.05 -43.95 25.0 -42.85 22.6 -40.4 23.25 L-39.55 23.8 -40.2 25.4 M-53.0 3.15 L-51.25 5.75 M-67.3 19.15 L-64.9 19.45 Q-62.35 30.25 -71.4 38.1 L-72.85 39.35 -74.0 38.95" fill="none" stroke="#9900ff" stroke-linecap="round" stroke-linejoin="round" stroke-width="1.5"/>
      <path d="M26.65 -17.75 Q24.7 -22.95 26.45 -23.2 L32.55 -24.55 Q36.85 -25.65 44.2 -20.05 51.5 -14.45 60.05 -5.95 L65.3 -0.8 Q69.45 3.2 74.7 5.75 86.65 11.8 100.0 12.15 104.95 12.3 109.65 10.4 105.0 15.35 98.1 15.9 93.1 16.65 88.0 16.05 L84.65 15.4 Q75.65 13.35 70.25 9.4 63.9 4.75 57.65 -0.45 L55.15 -2.6 Q50.05 -7.2 44.65 -13.55 37.9 -21.45 30.65 -16.25 L26.65 -17.75 M79.4 52.3 Q85.0 56.25 91.9 56.25 95.05 56.25 97.8 54.8 92.55 59.15 86.5 59.4 80.4 59.6 77.15 57.25 L70.4 51.85 Q66.95 48.8 63.7 43.7 L63.55 43.55 Q58.3 37.35 57.1 30.6 55.9 23.7 52.1 18.0 48.25 12.25 41.6 8.55 L35.95 4.8 33.65 2.6 32.9 1.6 Q30.85 -1.75 31.7 -5.75 L33.45 -5.3 Q38.55 -3.85 42.6 -0.05 48.0 5.05 52.55 10.9 58.75 18.85 62.3 28.3 64.6 34.35 68.0 39.8 72.2 46.7 78.6 51.7 L79.35 52.3 79.4 52.3 M38.5 83.75 Q41.8 89.9 46.05 95.45 41.3 94.75 37.65 91.5 36.0 90.0 34.95 88.1 26.85 73.2 29.95 56.35 31.3 49.05 31.85 41.55 32.6 32.0 29.5 23.05 28.45 20.15 28.05 17.0 L28.05 16.95 Q27.7 13.65 30.4 11.35 32.05 11.65 33.25 12.4 35.3 13.7 36.0 16.45 37.65 22.9 37.75 29.65 37.8 32.95 36.65 37.15 35.5 41.35 33.55 49.9 31.55 58.4 32.4 65.2 33.25 72.0 34.6 75.4 36.35 79.7 38.5 83.75" fill="#50882d" fill-rule="evenodd" stroke="none"/>
      <path d="M85.1 16.9 L84.35 17.1 85.3 18.5 80.45 19.05 81.5 20.2 82.15 21.4 82.75 24.15 77.2 21.05 78.0 23.7 Q79.3 27.7 82.25 30.4 L82.5 31.9 81.25 34.35 Q77.15 42.75 79.7 51.8 L79.4 52.3 79.35 52.3 78.6 51.7 Q72.2 46.7 68.0 39.8 64.6 34.35 62.3 28.3 58.75 18.85 52.55 10.9 48.0 5.05 42.6 -0.05 38.55 -3.85 33.45 -5.3 L33.7 -6.3 Q33.65 -10.5 31.8 -14.25 L30.65 -16.25 Q37.9 -21.45 44.65 -13.55 50.05 -7.2 55.15 -2.6 L57.65 -0.45 Q63.9 4.75 70.25 9.4 75.65 13.35 84.65 15.4 L85.1 16.9 M61.45 45.15 Q59.15 45.2 57.1 44.3 L52.9 42.25 54.7 52.1 51.3 52.35 51.95 58.7 48.15 62.7 Q40.2 71.65 39.05 83.45 L38.5 83.75 Q36.35 79.7 34.6 75.4 33.25 72.0 32.4 65.2 31.55 58.4 33.55 49.9 35.5 41.35 36.65 37.15 37.8 32.95 37.75 29.65 37.65 22.9 36.0 16.45 35.3 13.7 33.25 12.4 L33.7 11.65 Q35.35 9.65 35.2 7.05 L35.0 5.85 35.95 4.8 41.6 8.55 Q48.25 12.25 52.1 18.0 55.9 23.7 57.1 30.6 58.3 37.35 63.55 43.55 L61.45 45.15 M76.6 29.9 Q72.35 27.3 70.2 22.85 66.3 14.7 60.7 7.7 57.25 3.3 53.2 -0.4 49.15 -4.15 44.55 -7.2 49.15 -4.15 53.2 -0.4 57.25 3.3 60.7 7.7 66.3 14.7 70.2 22.85 72.35 27.3 76.6 29.9 M48.45 34.7 L47.85 34.05 Q45.4 31.0 45.95 27.0 45.4 31.0 47.85 34.05 L48.45 34.7 M42.15 51.0 Q40.9 39.2 42.7 27.4 L42.8 26.8 Q43.35 21.6 40.1 17.25 43.35 21.6 42.8 26.8 L42.7 27.4 Q40.9 39.2 42.15 51.0" fill="url(#gradient2)" fill-rule="evenodd" stroke="none"/>
      <path d="M26.65 -17.75 Q24.7 -22.95 26.45 -23.2 L32.55 -24.55 Q36.85 -25.65 44.2 -20.05 51.5 -14.45 60.05 -5.95 L65.3 -0.8 Q69.45 3.2 74.7 5.75 86.65 11.8 100.0 12.15 104.95 12.3 109.65 10.4 105.0 15.35 98.1 15.9 93.1 16.65 88.0 16.05 L85.1 16.9 84.35 17.1 85.3 18.5 80.45 19.05 81.5 20.2 82.15 21.4 82.75 24.15 77.2 21.05 78.0 23.7 Q79.3 27.7 82.25 30.4 L82.5 31.9 81.25 34.35 Q77.15 42.75 79.7 51.8 M79.4 52.3 Q85.0 56.25 91.9 56.25 95.05 56.25 97.8 54.8 92.55 59.15 86.5 59.4 80.4 59.6 77.15 57.25 L70.4 51.85 Q66.95 48.8 63.7 43.7 L61.45 45.15 Q59.15 45.2 57.1 44.3 L52.9 42.25 54.7 52.1 51.3 52.35 51.95 58.7 48.15 62.7 Q40.2 71.65 39.05 83.45 M38.5 83.75 Q41.8 89.9 46.05 95.45 L49.6 96.2 M33.7 -6.3 Q33.65 -10.5 31.8 -14.25 L30.65 -16.25 Q37.9 -21.45 44.65 -13.55 50.05 -7.2 55.15 -2.6 L57.65 -0.45 Q63.9 4.75 70.25 9.4 75.65 13.35 84.65 15.4 L88.0 16.05 M31.7 -5.75 L33.45 -5.3 Q38.55 -3.85 42.6 -0.05 48.0 5.05 52.55 10.9 58.75 18.85 62.3 28.3 64.6 34.35 68.0 39.8 72.2 46.7 78.6 51.7 L79.35 52.3 79.4 52.3 M63.55 43.55 Q58.3 37.35 57.1 30.6 55.9 23.7 52.1 18.0 48.25 12.25 41.6 8.55 L35.95 4.8 33.65 2.6 M35.0 5.85 L35.2 7.05 Q35.35 9.65 33.7 11.65 M33.25 12.4 Q35.3 13.7 36.0 16.45 37.65 22.9 37.75 29.65 37.8 32.95 36.65 37.15 35.5 41.35 33.55 49.9 31.55 58.4 32.4 65.2 33.25 72.0 34.6 75.4 36.35 79.7 38.5 83.75 M63.7 43.7 L63.55 43.55 M28.05 16.95 L28.05 17.0 Q28.45 20.15 29.5 23.05 32.6 32.0 31.85 41.55 31.3 49.05 29.95 56.35 26.85 73.2 34.95 88.1 36.0 90.0 37.65 91.5 41.3 94.75 46.05 95.45 M33.25 12.4 Q32.05 11.65 30.4 11.35" fill="none" stroke="#000000" stroke-linecap="round" stroke-linejoin="round" stroke-width="2.0"/>
      <path d="M44.55 -7.2 Q49.15 -4.15 53.2 -0.4 57.25 3.3 60.7 7.7 66.3 14.7 70.2 22.85 72.35 27.3 76.6 29.9 M40.1 17.25 Q43.35 21.6 42.8 26.8 L42.7 27.4 Q40.9 39.2 42.15 51.0 M45.95 27.0 Q45.4 31.0 47.85 34.05 L48.45 34.7" fill="none" stroke="#006600" stroke-linecap="round" stroke-linejoin="round" stroke-width="2.0"/>
    </g>
    </g>
  </g>
  <defs>
    <linearGradient gradientTransform="matrix(0.0202, -0.0172, 0.0298, 0.035, 38.15, -43.05)" gradientUnits="userSpaceOnUse" id="gradient0" spreadMethod="pad" x1="-819.2" x2="819.2">
      <stop offset="0.0" stop-color="#50882d"/>
      <stop offset="1.0" stop-color="#000000"/>
    </linearGradient>
    <linearGradient gradientTransform="matrix(0.0367, 0.0, 0.0, 0.0162, 54.3, -13.65)" gradientUnits="userSpaceOnUse" id="gradient1" spreadMethod="pad" x1="-819.2" x2="819.2">
      <stop offset="0.0" stop-color="#31552b" stop-opacity="0.8627451"/>
      <stop offset="1.0" stop-color="#41793c" stop-opacity="0.7529412"/>
    </linearGradient>
    <linearGradient gradientTransform="matrix(0.033, 0.0159, -0.007, 0.0145, 75.85, -45.15)" gradientUnits="userSpaceOnUse" id="gradient2" spreadMethod="pad" x1="-819.2" x2="819.2">
      <stop offset="0.0" stop-color="#31552b" stop-opacity="0.8627451"/>
      <stop offset="1.0" stop-color="#41793c" stop-opacity="0.7529412"/>
    </linearGradient>
  </defs>
</svg>