<svg xmlns:xlink="http://www.w3.org/1999/xlink" xmlns="http://www.w3.org/2000/svg" height="52.05px" width="72.6px">
  <g transform="matrix(1.0, 0.0, 0.0, 1.0, -19.65, -84.45)">
    <path d="M22.5 134.55 Q16.2 131.9 26.85 126.3 37.45 120.65 40.4 117.3 45.2 114.45 49.3 110.8 53.4 107.1 55.05 104.8 L58.75 99.3 Q67.3 84.85 79.45 86.1 L91.75 87.2 91.7 85.8 89.05 84.95 M55.15 126.2 Q57.8 114.05 72.0 112.6 75.8 111.95 78.0 109.0 80.0 106.35 82.9 104.4 84.65 103.25 86.2 101.8" fill="none" stroke="#006600" stroke-linecap="round" stroke-linejoin="round" stroke-width="2.0"/>
    <path d="M79.9 93.65 L75.9 94.35 57.65 110.4 48.95 117.55 Q47.6 118.4 44.0 119.65 40.4 120.85 34.1 123.75 L56.65 118.55 Q68.45 109.35 77.95 98.15 79.6 96.25 79.9 93.65 L90.6 91.7 M34.1 123.75 Q26.6 126.95 25.15 134.75 L25.0 136.0" fill="none" stroke="#000000" stroke-linecap="round" stroke-linejoin="round" stroke-width="2.0"/>
  </g>
</svg>