<svg xmlns:xlink="http://www.w3.org/1999/xlink" xmlns="http://www.w3.org/2000/svg" height="224.65px" width="260.8px">
  <g transform="matrix(1.0, 0.0, 0.0, 1.0, 89.35, 116.1)">
    <g data-characterId="1658" height="130.85" transform="matrix(1.0, 0.0, 0.0, 1.0, -80.65, -85.5)" width="252.1" xlink:href="#shape0"><g id="shape0" transform="matrix(1.0, 0.0, 0.0, 1.0, 80.65, 85.5)">
      <path d="M-1.6 -50.9 Q12.05 -54.4 24.0 -62.3 36.3 -70.55 50.55 -74.85 64.2 -78.85 78.4 -77.9 92.25 -76.65 106.2 -77.55 118.75 -77.55 128.5 -85.0 127.4 -79.4 122.5 -76.25 118.0 -73.45 112.6 -73.0 L109.85 -72.95 109.4 -72.55 68.0 -71.05 Q59.2 -70.8 51.35 -66.5 38.75 -59.45 27.65 -50.2 L22.45 -50.4 13.75 -50.0 Q7.85 -49.25 2.15 -47.3 L2.0 -47.75 -1.4 -50.15 -1.6 -50.9 M31.4 -49.45 Q42.75 -56.9 55.85 -60.5 69.25 -64.4 80.6 -63.75 L103.55 -62.2 Q115.1 -61.3 140.05 -61.55 159.45 -65.6 164.7 -69.65 L170.95 -74.5 Q167.75 -67.65 161.75 -63.15 154.95 -57.95 146.85 -55.15 139.8 -52.6 132.3 -52.1 L111.9 -51.5 Q94.0 -52.55 76.2 -50.7 53.65 -48.85 36.3 -34.0 L28.9 -27.05 28.15 -26.0 24.3 -24.15 10.3 -35.95 31.4 -49.45" fill="url(#gradient0)" fill-rule="evenodd" stroke="none"/>
      <path d="M27.65 -50.2 L31.4 -49.45 10.3 -35.95 7.55 -34.2 10.3 -35.95 24.3 -24.15 28.15 -26.0 28.45 -26.1 29.55 -26.55 30.95 -24.75 31.95 -22.3 32.9 -18.35 32.95 -17.8 33.1 -17.05 34.15 -12.9 34.65 -10.05 34.8 -6.75 34.65 -1.3 34.55 -0.2 Q34.55 0.7 34.1 1.4 L33.95 1.75 33.65 2.0 33.4 2.05 33.4 2.25 33.7 2.5 33.4 4.4 Q33.4 5.0 33.2 5.0 L29.75 5.25 29.35 5.25 28.75 5.2 28.65 5.2 Q27.85 5.55 27.35 6.05 L27.45 5.15 23.8 4.9 22.8 5.1 Q21.15 6.1 18.55 6.5 L18.7 7.25 14.25 12.9 6.8 13.4 Q-2.85 15.05 -10.9 21.7 -22.05 30.85 -36.75 32.8 -40.45 33.3 -43.25 35.25 -55.35 43.45 -69.6 44.85 L-71.25 44.2 -73.7 43.65 -76.8 42.7 Q-79.15 41.7 -80.05 39.3 L-80.15 38.85 -79.25 33.0 Q-78.1 24.0 -75.8 15.25 L-71.25 16.05 Q-67.75 15.5 -64.9 13.25 -56.3 6.45 -48.65 -1.35 -45.1 -5.05 -43.0 -10.05 -39.9 -17.3 -39.05 -25.05 L-33.25 -29.8 Q-23.05 -38.0 -12.15 -45.6 -7.25 -48.95 -1.65 -50.85 L-1.6 -50.9 -1.4 -50.15 2.0 -47.75 2.15 -47.3 Q7.85 -49.25 13.75 -50.0 L22.45 -50.4 27.65 -50.2 M18.05 -46.1 Q16.8 -48.55 13.75 -50.0 16.8 -48.55 18.05 -46.1 M8.6 -40.85 L8.0 -41.25 3.45 -43.15 8.0 -41.25 8.6 -40.85 M1.5 4.5 L0.95 2.55 0.65 1.45 0.4 -0.5 Q0.0 -3.9 -1.2 -6.4 L-2.8 -10.1 Q-3.6 -12.4 -5.1 -14.4 L-6.5 -16.0 -5.1 -14.4 Q-3.6 -12.4 -2.8 -10.1 L-1.2 -6.4 Q0.0 -3.9 0.4 -0.5 L0.65 1.45 0.95 2.55 1.5 4.5 M-69.9 32.5 Q-70.35 31.65 -70.25 30.85 -70.05 29.5 -69.25 28.25 L-67.45 26.05 Q-65.5 24.1 -67.15 21.9 -67.6 21.3 -68.3 21.0 L-70.0 21.1 Q-71.05 21.6 -71.75 22.6 -72.1 23.15 -72.05 23.6 -72.1 23.15 -71.75 22.6 -71.05 21.6 -70.0 21.1 L-68.3 21.0 Q-67.6 21.3 -67.15 21.9 -65.5 24.1 -67.45 26.05 L-69.25 28.25 Q-70.05 29.5 -70.25 30.85 -70.35 31.65 -69.9 32.5 M-18.5 19.5 L-18.85 20.05 -19.15 20.95 -19.3 21.55 -19.65 22.95 -20.35 25.05 -21.0 27.0 -20.35 25.05 -19.65 22.95 -19.3 21.55 -19.15 20.95 -18.85 20.05 -18.5 19.5 M-3.0 6.5 Q-3.7 4.95 -3.75 3.0 L-3.85 2.45 -4.1 1.5 Q-4.5 -0.75 -5.5 -2.5 -7.75 -6.15 -10.15 -8.9 -13.15 -12.3 -16.4 -14.65 -17.75 -15.65 -18.65 -17.95 -19.3 -19.6 -19.6 -21.5 L-19.9 -23.0 Q-20.25 -25.15 -21.0 -27.5 -20.25 -25.15 -19.9 -23.0 L-19.6 -21.5 Q-19.3 -19.6 -18.65 -17.95 -17.75 -15.65 -16.4 -14.65 -13.15 -12.3 -10.15 -8.9 -7.75 -6.15 -5.5 -2.5 -4.5 -0.75 -4.1 1.5 L-3.85 2.45 -3.75 3.0 Q-3.7 4.95 -3.0 6.5 M-3.6 -33.2 Q-6.6 -36.05 -10.95 -36.8 -6.6 -36.05 -3.6 -33.2 M-0.5 -46.3 L2.15 -47.3 -0.5 -46.3" fill="#50882d" fill-rule="evenodd" stroke="none"/>
      <path d="M33.95 1.75 L33.7 2.5 33.4 2.25 33.65 2.0 33.95 1.75" fill="url(#gradient1)" fill-rule="evenodd" stroke="none"/>
      <path d="M-1.6 -50.9 Q12.05 -54.4 24.0 -62.3 36.3 -70.55 50.55 -74.85 64.2 -78.85 78.4 -77.9 92.25 -76.65 106.2 -77.55 118.75 -77.55 128.5 -85.0 127.4 -79.4 122.5 -76.25 118.0 -73.45 112.6 -73.0 L109.85 -72.95 109.4 -72.55 68.0 -71.05 Q59.2 -70.8 51.35 -66.5 38.75 -59.45 27.65 -50.2 L31.4 -49.45 Q42.75 -56.9 55.85 -60.5 69.25 -64.4 80.6 -63.75 L103.55 -62.2 Q115.1 -61.3 140.05 -61.55 159.45 -65.6 164.7 -69.65 L170.95 -74.5 Q167.75 -67.65 161.75 -63.15 154.95 -57.95 146.85 -55.15 139.8 -52.6 132.3 -52.1 L111.9 -51.5 Q94.0 -52.55 76.2 -50.7 53.65 -48.85 36.3 -34.0 L28.9 -27.05 29.55 -26.55 30.95 -24.75 31.95 -22.3 32.9 -18.35 32.95 -17.8 33.1 -17.05 34.15 -12.9 34.65 -10.05 34.8 -6.75 34.65 -1.3 34.55 -0.2 Q34.55 0.7 34.1 1.4 L33.95 1.75 33.7 2.5 33.4 2.25 33.65 2.0 33.95 1.75 M6.8 13.4 L8.1 15.15 M27.65 -50.2 L22.45 -50.4 13.75 -50.0 Q7.85 -49.25 2.15 -47.3 L-0.5 -46.3 M28.9 -27.05 L28.15 -26.0 28.45 -26.1 29.55 -26.55 M10.3 -35.95 L7.55 -34.2 M31.4 -49.45 L10.3 -35.95 M33.4 2.05 L33.4 2.25 M6.8 13.4 Q-2.85 15.05 -10.9 21.7 -22.05 30.85 -36.75 32.8 -40.45 33.3 -43.25 35.25 -55.35 43.45 -69.6 44.85 L-71.25 44.2 -73.7 43.65 -76.8 42.7 Q-79.15 41.7 -80.05 39.3 L-80.15 38.85 -79.25 33.0 Q-78.1 24.0 -75.8 15.25 L-71.25 16.05 Q-67.75 15.5 -64.9 13.25 -56.3 6.45 -48.65 -1.35 -45.1 -5.05 -43.0 -10.05 -39.9 -17.3 -39.05 -25.05 L-33.25 -29.8 Q-23.05 -38.0 -12.15 -45.6 -7.25 -48.95 -1.65 -50.85 L-1.6 -50.9" fill="none" stroke="#000000" stroke-linecap="round" stroke-linejoin="round" stroke-width="2.0"/>
      <path d="M13.75 -50.0 Q16.8 -48.55 18.05 -46.1 M3.45 -43.15 L8.0 -41.25 8.6 -40.85 M-6.5 -16.0 L-5.1 -14.4 Q-3.6 -12.4 -2.8 -10.1 L-1.2 -6.4 Q0.0 -3.9 0.4 -0.5 L0.65 1.45 0.95 2.55 1.5 4.5 M-10.95 -36.8 Q-6.6 -36.05 -3.6 -33.2 M-21.0 -27.5 Q-20.25 -25.15 -19.9 -23.0 L-19.6 -21.5 Q-19.3 -19.6 -18.65 -17.95 -17.75 -15.65 -16.4 -14.65 -13.15 -12.3 -10.15 -8.9 -7.75 -6.15 -5.5 -2.5 -4.5 -0.75 -4.1 1.5 L-3.85 2.45 -3.75 3.0 Q-3.7 4.95 -3.0 6.5 M-21.0 27.0 L-20.35 25.05 -19.65 22.95 -19.3 21.55 -19.15 20.95 -18.85 20.05 -18.5 19.5 M-72.05 23.6 Q-72.1 23.15 -71.75 22.6 -71.05 21.6 -70.0 21.1 L-68.3 21.0 Q-67.6 21.3 -67.15 21.9 -65.5 24.1 -67.45 26.05 L-69.25 28.25 Q-70.05 29.5 -70.25 30.85 -70.35 31.65 -69.9 32.5" fill="none" stroke="#006600" stroke-linecap="round" stroke-linejoin="round" stroke-width="2.0"/>
    </g>
    </g>
    <g data-characterId="1659" height="109.5" transform="matrix(1.0, 0.0, 0.0, 1.0, -34.2, -60.5)" width="167.25" xlink:href="#shape1"><g id="shape1" transform="matrix(1.0, 0.0, 0.0, 1.0, 34.2, 60.5)">
      <path d="M-2.0 -52.5 Q8.05 -57.5 19.5 -58.95 21.75 -59.3 24.0 -60.0 20.05 -58.25 17.85 -55.45 15.15 -52.2 15.0 -47.5 14.95 -46.4 15.55 -45.45 16.85 -43.4 18.4 -41.5 16.85 -43.4 15.55 -45.45 14.95 -46.4 15.0 -47.5 15.15 -52.2 17.85 -55.45 L18.45 -54.9 21.0 -54.7 39.65 -54.2 Q35.4 -52.1 31.4 -49.45 L18.65 -41.3 18.4 -41.5 18.0 -40.95 3.95 -40.35 1.6 -41.7 Q-5.85 -45.1 -2.0 -52.5 -5.85 -45.1 1.6 -41.7 L3.95 -40.35 Q5.5 -39.75 6.1 -38.4 L6.5 -37.5 Q-2.3 -39.6 -11.15 -35.0 -13.05 -34.0 -15.25 -33.5 -13.55 -33.2 -12.4 -31.95 L-12.0 -31.5 -12.4 -30.8 -13.05 -31.4 Q-24.25 -30.15 -33.7 -23.7 -24.55 -34.65 -18.5 -47.5 -17.7 -43.8 -18.35 -40.2 L-18.4 -40.05 Q-19.35 -35.75 -15.9 -33.7 L-15.25 -33.5 -15.9 -33.7 Q-19.35 -35.75 -18.4 -40.05 L-17.95 -40.2 Q-12.55 -51.75 -0.15 -57.1 L2.45 -58.15 2.85 -57.85 -2.0 -52.5 M41.85 -30.7 Q40.05 -29.6 38.45 -28.3 36.6 -28.95 35.4 -30.4 34.9 -31.0 34.7 -31.7 L34.5 -32.4 36.3 -34.0 Q43.45 -40.15 51.55 -44.05 52.1 -36.3 58.75 -32.65 L62.0 -31.0 57.5 -31.1 45.85 -31.95 Q44.65 -32.2 43.4 -31.6 L41.95 -30.75 41.85 -30.7 41.95 -30.75 43.4 -31.6 Q44.65 -32.2 45.85 -31.95 L57.5 -31.1 57.5 -30.5 Q63.5 -21.2 67.9 -10.85 69.4 -7.35 69.0 -3.5 63.8 -10.55 56.5 -14.9 53.5 -16.75 50.05 -17.7 L48.8 -18.3 Q47.85 -23.45 45.75 -28.15 45.3 -29.2 44.2 -29.8 L41.95 -30.7 41.85 -30.7" fill="#004800" fill-rule="evenodd" stroke="none"/>
      <path d="M39.65 -54.2 Q35.4 -52.1 31.4 -49.45 L18.65 -41.3 18.15 -40.95 M51.55 -44.05 Q43.45 -40.15 36.3 -34.0 L34.5 -32.4" fill="none" stroke="#000000" stroke-linecap="round" stroke-linejoin="round" stroke-width="2.0"/>
      <path d="M17.85 -55.45 Q20.05 -58.25 24.0 -60.0 21.75 -59.3 19.5 -58.95 8.05 -57.5 -2.0 -52.5 -5.85 -45.1 1.6 -41.7 L3.95 -40.35 18.0 -40.95 18.4 -41.5 Q16.85 -43.4 15.55 -45.45 14.95 -46.4 15.0 -47.5 15.15 -52.2 17.85 -55.45 M18.45 -54.9 L21.0 -54.7 39.65 -54.2 M18.65 -41.3 L19.0 -41.0 18.15 -40.95 18.0 -40.95 M2.85 -57.85 L3.5 -59.0 2.45 -58.15 -0.15 -57.1 Q-12.55 -51.75 -17.95 -40.2 L-18.4 -40.05 -18.35 -40.2 Q-17.7 -43.8 -18.5 -47.5 -24.55 -34.65 -33.7 -23.7 -24.25 -30.15 -13.05 -31.4 L-12.4 -30.8 -12.0 -31.5 -12.4 -31.95 Q-13.55 -33.2 -15.25 -33.5 L-15.9 -33.7 Q-19.35 -35.75 -18.4 -40.05 M2.85 -57.85 L-2.0 -52.5 M34.5 -32.4 L34.7 -31.7 Q34.9 -31.0 35.4 -30.4 36.6 -28.95 38.45 -28.3 40.05 -29.6 41.85 -30.7 L41.95 -30.75 43.4 -31.6 Q44.65 -32.2 45.85 -31.95 L57.5 -31.1 62.0 -31.0 58.75 -32.65 Q52.1 -36.3 51.55 -44.05 M18.4 -41.5 L18.65 -41.3 M-15.25 -33.5 Q-13.05 -34.0 -11.15 -35.0 -2.3 -39.6 6.5 -37.5 L6.1 -38.4 Q5.5 -39.75 3.95 -40.35 M41.85 -30.7 L41.95 -30.7 44.2 -29.8 Q45.3 -29.2 45.75 -28.15 47.85 -23.45 48.8 -18.3 L50.05 -17.7 Q53.5 -16.75 56.5 -14.9 63.8 -10.55 69.0 -3.5 69.4 -7.35 67.9 -10.85 63.5 -21.2 57.5 -30.5" fill="none" stroke="#000000" stroke-linecap="round" stroke-linejoin="round" stroke-width="2.0"/>
      <path d="M27.0 -20.55 L23.9 -24.75 Q30.85 -29.05 38.25 -32.3 48.75 -36.8 61.7 -36.25 74.6 -35.75 84.0 -36.05 93.35 -36.4 95.6 -37.45 L99.05 -39.05 Q98.4 -36.75 96.25 -35.4 92.3 -32.9 87.6 -32.8 L78.6 -32.5 Q76.3 -32.45 74.05 -32.55 63.5 -33.25 57.4 -32.15 L46.85 -30.05 Q42.35 -29.05 38.95 -27.05 35.55 -25.05 32.55 -23.75 L29.3 -22.15 27.0 -20.55 M95.95 -17.5 Q103.35 -18.45 110.5 -20.2 119.9 -22.4 128.4 -27.15 L129.25 -25.95 128.05 -25.25 122.05 -21.85 Q116.55 -18.7 110.7 -16.4 102.75 -13.45 94.55 -11.75 L92.15 -11.3 80.0 -10.4 54.5 -12.0 Q43.4 -12.3 32.25 -10.5 L31.0 -10.5 29.5 -15.0 30.85 -15.75 Q38.6 -19.55 47.5 -19.05 L60.2 -18.05 78.75 -16.9 Q85.85 -16.65 92.95 -17.2 L95.95 -17.5 M102.6 10.2 Q109.45 9.3 115.0 5.15 L115.3 5.45 Q111.7 9.15 106.8 11.3 99.15 14.7 90.9 15.9 L87.85 16.6 75.55 16.25 57.55 11.8 39.65 7.15 35.0 5.8 Q31.55 4.7 30.7 1.3 L30.45 0.15 31.0 -1.0 32.0 -1.55 Q35.7 -2.15 39.15 -1.05 43.45 0.3 47.65 2.1 56.0 5.55 64.55 8.45 73.55 11.45 83.1 11.7 92.85 11.95 102.6 10.2 M87.5 44.7 L98.55 48.5 87.55 47.6 Q84.5 47.25 81.6 46.4 72.2 43.75 62.5 42.2 53.65 40.55 47.65 33.9 43.95 29.8 39.35 26.9 35.45 24.5 32.15 21.55 31.35 20.75 31.2 19.45 L31.95 18.35 34.55 16.2 Q39.25 16.9 42.75 20.45 49.05 26.9 55.85 32.75 58.1 34.7 60.95 36.2 69.15 40.5 78.15 42.6 L87.5 44.7" fill="#50882d" fill-rule="evenodd" stroke="none"/>
      <path d="M62.8 -25.0 L61.55 -25.0 59.05 -25.1 52.8 -25.45 Q45.05 -25.6 37.75 -23.0 L36.3 -22.4 Q35.15 -21.8 34.75 -22.0 L35.25 -22.2 Q35.8 -22.35 36.25 -22.75 35.8 -22.35 35.25 -22.2 L34.75 -22.0 Q35.15 -21.8 36.3 -22.4 L37.75 -23.0 Q45.05 -25.6 52.8 -25.45 L59.05 -25.1 61.55 -25.0 62.8 -25.0 M74.05 -32.55 Q74.05 -26.75 80.95 -22.65 85.9 -19.7 93.1 -18.1 L92.95 -17.2 Q85.85 -16.65 78.75 -16.9 L60.2 -18.05 47.5 -19.05 Q38.6 -19.55 30.85 -15.75 31.85 -18.55 28.75 -20.55 L29.3 -22.15 32.55 -23.75 Q35.55 -25.05 38.95 -27.05 42.35 -29.05 46.85 -30.05 L57.4 -32.15 Q63.5 -33.25 74.05 -32.55 M92.6 -10.55 Q89.55 -8.25 89.3 -4.05 L78.5 -1.5 Q82.05 -0.5 85.65 -0.5 87.55 -0.85 89.25 -0.1 90.35 0.4 90.85 1.4 94.65 8.8 102.6 10.2 92.85 11.95 83.1 11.7 73.55 11.45 64.55 8.45 56.0 5.55 47.65 2.1 43.45 0.3 39.15 -1.05 35.7 -2.15 32.0 -1.55 L32.25 -10.5 Q43.4 -12.3 54.5 -12.0 L80.0 -10.4 92.15 -11.3 92.6 -10.55 M88.15 17.9 Q82.25 22.15 79.1 28.05 L79.15 28.5 Q81.7 37.45 87.5 44.7 L78.15 42.6 Q69.15 40.5 60.95 36.2 58.1 34.7 55.85 32.75 49.05 26.9 42.75 20.45 39.25 16.9 34.55 16.2 L35.0 5.8 39.65 7.15 57.55 11.8 75.55 16.25 87.85 16.6 88.15 17.9 M73.55 -20.0 L73.05 -19.8 72.05 -19.5 Q67.9 -18.6 64.05 -20.25 67.9 -18.6 72.05 -19.5 L73.05 -19.8 73.55 -20.0 M77.05 -4.25 L74.6 -4.85 66.8 -6.5 57.05 -7.45 54.3 -7.65 45.05 -8.25 43.85 -8.4 41.25 -8.75 43.85 -8.4 45.05 -8.25 54.3 -7.65 57.05 -7.45 66.8 -6.5 74.6 -4.85 77.05 -4.25 M72.05 34.0 Q68.85 33.75 65.75 32.6 61.4 30.95 57.85 27.95 L56.25 26.6 54.55 25.0 56.25 26.6 57.85 27.95 Q61.4 30.95 65.75 32.6 68.85 33.75 72.05 34.0 M72.8 23.5 Q72.3 22.95 71.25 22.6 L70.05 22.2 68.8 21.85 Q64.15 20.9 59.75 19.1 L54.75 17.1 Q50.15 15.3 45.55 14.0 43.9 13.55 43.55 12.5 43.9 13.55 45.55 14.0 50.15 15.3 54.75 17.1 L59.75 19.1 Q64.15 20.9 68.8 21.85 L70.05 22.2 71.25 22.6 Q72.3 22.95 72.8 23.5 M78.05 4.0 Q74.2 3.5 70.35 2.4 68.7 1.9 67.05 1.55 63.75 0.8 60.8 -0.75 63.75 0.8 67.05 1.55 68.7 1.9 70.35 2.4 74.2 3.5 78.05 4.0" fill="url(#gradient2)" fill-rule="evenodd" stroke="none"/>
      <path d="M23.9 -24.75 Q30.85 -29.05 38.25 -32.3 48.75 -36.8 61.7 -36.25 74.6 -35.75 84.0 -36.05 93.35 -36.4 95.6 -37.45 L99.05 -39.05 Q98.4 -36.75 96.25 -35.4 92.3 -32.9 87.6 -32.8 L78.6 -32.5 Q76.3 -32.45 74.05 -32.55 74.05 -26.75 80.95 -22.65 85.9 -19.7 93.1 -18.1 L95.95 -17.5 Q103.35 -18.45 110.5 -20.2 119.9 -22.4 128.4 -27.15 L132.55 -29.55 Q131.3 -27.4 129.25 -25.95 L128.05 -25.25 122.05 -21.85 Q116.55 -18.7 110.7 -16.4 102.75 -13.45 94.55 -11.75 L92.6 -10.55 Q89.55 -8.25 89.3 -4.05 L78.5 -1.5 Q82.05 -0.5 85.65 -0.5 87.55 -0.85 89.25 -0.1 90.35 0.4 90.85 1.4 94.65 8.8 102.6 10.2 109.45 9.3 115.0 5.15 L116.55 4.0 115.3 5.45 Q111.7 9.15 106.8 11.3 99.15 14.7 90.9 15.9 L88.15 17.9 Q82.25 22.15 79.1 28.05 L79.15 28.5 Q81.7 37.45 87.5 44.7 L98.55 48.5 87.55 47.6 Q84.5 47.25 81.6 46.4 72.2 43.75 62.5 42.2 53.65 40.55 47.65 33.9 43.95 29.8 39.35 26.9 35.45 24.5 32.15 21.55 31.35 20.75 31.2 19.45 M30.45 0.15 L31.0 -1.0 32.0 -1.55 Q35.7 -2.15 39.15 -1.05 43.45 0.3 47.65 2.1 56.0 5.55 64.55 8.45 73.55 11.45 83.1 11.7 92.85 11.95 102.6 10.2 M32.25 -10.5 L31.0 -10.5 M29.5 -15.0 L30.85 -15.75 Q38.6 -19.55 47.5 -19.05 L60.2 -18.05 78.75 -16.9 Q85.85 -16.65 92.95 -17.2 L95.95 -17.5 M29.3 -22.15 L27.0 -20.55 M74.05 -32.55 Q63.5 -33.25 57.4 -32.15 L46.85 -30.05 Q42.35 -29.05 38.95 -27.05 35.55 -25.05 32.55 -23.75 L29.3 -22.15 M32.25 -10.5 Q43.4 -12.3 54.5 -12.0 L80.0 -10.4 92.15 -11.3 94.55 -11.75 M90.9 15.9 L87.85 16.6 75.55 16.25 57.55 11.8 39.65 7.15 35.0 5.8 M87.5 44.7 L78.15 42.6 Q69.15 40.5 60.95 36.2 58.1 34.7 55.85 32.75 49.05 26.9 42.75 20.45 39.25 16.9 34.55 16.2" fill="none" stroke="#000000" stroke-linecap="round" stroke-linejoin="round" stroke-width="2.0"/>
      <path d="M36.25 -22.75 Q35.8 -22.35 35.25 -22.2 L34.75 -22.0 Q35.15 -21.8 36.3 -22.4 L37.75 -23.0 Q45.05 -25.6 52.8 -25.45 L59.05 -25.1 61.55 -25.0 62.8 -25.0 M41.25 -8.75 L43.85 -8.4 45.05 -8.25 54.3 -7.65 57.05 -7.45 66.8 -6.5 74.6 -4.85 77.05 -4.25 M64.05 -20.25 Q67.9 -18.6 72.05 -19.5 L73.05 -19.8 73.55 -20.0 M60.8 -0.75 Q63.75 0.8 67.05 1.55 68.7 1.9 70.35 2.4 74.2 3.5 78.05 4.0 M43.55 12.5 Q43.9 13.55 45.55 14.0 50.15 15.3 54.75 17.1 L59.75 19.1 Q64.15 20.9 68.8 21.85 L70.05 22.2 71.25 22.6 Q72.3 22.95 72.8 23.5 M54.55 25.0 L56.25 26.6 57.85 27.95 Q61.4 30.95 65.75 32.6 68.85 33.75 72.05 34.0" fill="none" stroke="#006600" stroke-linecap="round" stroke-linejoin="round" stroke-width="2.0"/>
    </g>
    </g>
  </g>
  <defs>
    <linearGradient gradientTransform="matrix(0.0202, -0.0172, 0.0298, 0.035, 38.15, -43.05)" gradientUnits="userSpaceOnUse" id="gradient0" spreadMethod="pad" x1="-819.2" x2="819.2">
      <stop offset="0.0" stop-color="#50882d"/>
      <stop offset="1.0" stop-color="#000000"/>
    </linearGradient>
    <linearGradient gradientTransform="matrix(0.0367, 0.0, 0.0, 0.0162, 54.3, -13.65)" gradientUnits="userSpaceOnUse" id="gradient1" spreadMethod="pad" x1="-819.2" x2="819.2">
      <stop offset="0.0" stop-color="#31552b" stop-opacity="0.8627451"/>
      <stop offset="1.0" stop-color="#41793c" stop-opacity="0.7529412"/>
    </linearGradient>
    <linearGradient gradientTransform="matrix(0.0367, 0.0, 0.0, 0.0162, 80.9, -113.15)" gradientUnits="userSpaceOnUse" id="gradient2" spreadMethod="pad" x1="-819.2" x2="819.2">
      <stop offset="0.0" stop-color="#31552b" stop-opacity="0.8627451"/>
      <stop offset="1.0" stop-color="#41793c" stop-opacity="0.7529412"/>
    </linearGradient>
  </defs>
</svg>