<svg xmlns:xlink="http://www.w3.org/1999/xlink" xmlns="http://www.w3.org/2000/svg" height="252.85px" width="204.7px">
  <g transform="matrix(1.0, 0.0, 0.0, 1.0, 94.45, 197.8)">
    <g data-characterId="1603" height="58.6" transform="matrix(1.0, 0.0, 0.0, 1.0, -59.85, -21.5)" width="133.95" xlink:href="#shape0"><g id="shape0" transform="matrix(1.0, 0.0, 0.0, 1.0, 59.85, 21.5)">
      <path d="M-25.35 -11.95 Q-23.15 -5.25 -17.1 -1.85 L-13.05 0.4 Q-9.9 2.2 -6.0 2.2 L12.7 1.6 Q21.85 0.95 29.75 -3.6 37.85 -8.35 43.2 -16.15 44.9 -18.55 47.5 -21.0 50.8 -13.35 55.9 -5.95 60.95 1.35 67.05 8.1 70.85 12.25 72.45 16.4 74.0 20.55 73.5 23.4 72.95 26.25 72.2 27.65 71.45 29.0 65.85 31.25 60.25 33.45 50.4 34.9 L31.9 36.5 14.25 36.55 -5.55 36.3 -22.25 35.4 Q-32.05 34.1 -40.9 29.9 -49.7 25.6 -56.75 18.95 L-59.2 16.6 Q-59.8 13.6 -57.55 11.6 -50.05 5.1 -41.5 -0.85 L-25.35 -11.95" fill="url(#gradient0)" fill-rule="evenodd" stroke="none"/>
      <path d="M47.5 -21.0 Q50.8 -13.35 55.9 -5.95 60.95 1.35 67.05 8.1 70.85 12.25 72.45 16.4 74.0 20.55 73.5 23.4 72.95 26.25 72.2 27.65 71.45 29.0 65.85 31.25 60.25 33.45 50.4 34.9 L31.9 36.5 14.25 36.55 -5.55 36.3 -22.25 35.4 Q-32.05 34.1 -40.9 29.9 -49.7 25.6 -56.75 18.95 L-59.2 16.6 Q-59.8 13.6 -57.55 11.6 -50.05 5.1 -41.5 -0.85 L-25.35 -11.95" fill="none" stroke="#000000" stroke-linecap="round" stroke-linejoin="round" stroke-width="2.0"/>
    </g>
    </g>
  </g>
  <defs>
    <linearGradient gradientTransform="matrix(0.034, 0.0033, -0.0056, 0.0582, 20.9, -122.05)" gradientUnits="userSpaceOnUse" id="gradient0" spreadMethod="pad" x1="-819.2" x2="819.2">
      <stop offset="0.0" stop-color="#50882d"/>
      <stop offset="1.0" stop-color="#3d6020"/>
    </linearGradient>
  </defs>
</svg>