<svg xmlns:xlink="http://www.w3.org/1999/xlink" xmlns="http://www.w3.org/2000/svg" height="42.0px" width="43.7px">
  <g transform="matrix(1.0, 0.0, 0.0, 1.0, 4.15, 3.2)">
    <g data-characterId="1632" height="36.85" transform="matrix(1.0, 0.0, 0.0, 1.0, 0.05, 1.95)" width="39.5" xlink:href="#morphshape0">
        <g id="morphshape0" transform="matrix(1.0, 0.0, 0.0, 1.0, -0.05, -1.95)">
          <path d="M0.55 30.35 Q1.3 32.2 2.0 34.0 13.45 43.05 26.05 33.0 39.3 22.3 36.25 2.45 30.35 10.95 19.35 15.9 15.3 17.7 11.7 20.1 5.45 24.3 0.55 30.35" fill="#4f7b28" fill-rule="evenodd" stroke="none"/>
          <path d="M0.55 30.35 Q5.45 24.3 11.7 20.1 15.3 17.7 19.35 15.9 30.35 10.95 36.25 2.45 39.3 22.3 26.05 33.0 13.45 43.05 2.0 34.0 1.3 32.2 0.55 30.35 5.45 24.3 11.7 20.1 15.3 17.7 19.35 15.9 30.35 10.95 36.25 2.45 39.3 22.3 26.05 33.0 13.45 43.05 2.0 34.0 1.3 32.2 0.55 30.35 Z" fill="none" stroke="#426822" stroke-linecap="round" stroke-linejoin="round" stroke-width="2.0"/>
        </g>
    </g>
    <g data-characterId="1633" height="36.1" transform="matrix(1.0, 0.0, 0.0, 1.0, -4.15, -3.2)" width="40.6" xlink:href="#morphshape1">
        <g id="morphshape1" transform="matrix(1.0, 0.0, 0.0, 1.0, 4.15, 3.2)">
          <path d="M-1.85 32.4 L1.65 29.2 Q5.0 25.05 11.0 21.35 L13.95 19.65 Q18.3 16.65 23.05 13.9 37.35 5.5 35.8 -1.85 22.75 -4.8 13.4 2.7 9.15 6.1 5.65 11.7 0.85 19.5 -1.85 32.4" fill="#4f7b28" fill-rule="evenodd" stroke="none"/>
          <path d="M-1.85 32.4 Q0.85 19.5 5.65 11.7 9.15 6.1 13.4 2.7 22.75 -4.8 35.8 -1.85 37.35 5.5 23.05 13.9 18.3 16.65 13.95 19.65 L11.4 21.4 Q6.25 25.15 1.65 29.2 L-1.85 32.4 Q0.85 19.5 5.65 11.7 9.15 6.1 13.4 2.7 22.75 -4.8 35.8 -1.85 37.35 5.5 23.05 13.9 18.3 16.65 13.95 19.65 L11.0 21.35 Q5.0 25.05 1.65 29.2 L-1.85 32.4 Z" fill="none" stroke="#426822" stroke-linecap="round" stroke-linejoin="round" stroke-width="2.0"/>
        </g>
    </g>
  </g>
</svg>