<svg xmlns:xlink="http://www.w3.org/1999/xlink" xmlns="http://www.w3.org/2000/svg" height="7.25px" width="27.25px">
  <g transform="matrix(1.0, 0.0, 0.0, 1.0, 13.6, 3.6)">
    <path d="M13.3 -1.1 L5.55 -1.1 M6.1 -2.35 L12.7 -2.35 M7.05 -3.35 L11.75 -3.35 M5.4 -0.1 L13.4 -0.1 M11.35 3.4 L7.45 3.4 M6.3 2.4 L12.5 2.4 M13.2 1.15 L5.6 1.15 M-11.7 -3.35 L-7.0 -3.35 M-13.35 -0.1 L-5.35 -0.1 M-5.45 -1.1 L-13.2 -1.1 M-12.65 -2.35 L-6.05 -2.35 M-7.4 3.4 L-11.3 3.4 M-5.55 1.15 L-13.15 1.15 M-12.45 2.4 L-6.25 2.4" fill="none" stroke="#ffff00" stroke-linecap="round" stroke-linejoin="round" stroke-width="1.5"/>
  </g>
</svg>