<svg xmlns:xlink="http://www.w3.org/1999/xlink" xmlns="http://www.w3.org/2000/svg" height="30.5px" width="103.65px">
  <g transform="matrix(1.0, 0.0, 0.0, 1.0, 35.3, -32.8)">
    <path d="M60.8 38.6 L68.05 56.7 65.85 57.3 59.0 40.5 60.8 38.6 M56.0 43.6 L62.6 58.15 60.95 58.6 54.5 45.15 56.0 43.6 M-32.75 40.75 L-25.1 33.1 -23.65 34.65 -31.05 42.05 -31.2 41.9 Q-31.3 41.55 -31.55 41.3 -32.05 40.85 -32.75 40.75" fill="#2c2518" fill-rule="evenodd" stroke="none"/>
    <path d="M-31.1 42.15 L-31.0 42.75 Q-31.0 43.6 -31.55 44.15 -32.15 44.75 -33.0 44.75 L-33.55 44.7 -34.4 44.15 -34.65 43.9 Q-35.0 43.4 -35.0 42.75 L-35.0 42.7 Q-35.0 41.9 -34.4 41.3 -33.85 40.75 -33.0 40.75 L-32.75 40.75 Q-32.05 40.85 -31.55 41.3 -31.3 41.55 -31.2 41.9 L-31.1 42.15" fill="#735f31" fill-rule="evenodd" stroke="none"/>
    <path d="M-31.1 42.1 L-31.1 42.15 -31.2 41.9 -31.1 42.1" fill="#ffffff" fill-opacity="0.6901961" fill-rule="evenodd" stroke="none"/>
    <path d="M60.8 38.6 L68.05 56.7 65.85 57.3 59.0 40.5 60.8 38.6 M56.0 43.6 L62.6 58.15 60.95 58.6 54.5 45.15 56.0 43.6 M-32.75 40.75 L-25.1 33.1 -23.65 34.65 -31.05 42.05 -31.1 42.1 -31.1 42.15 -31.05 42.15 -16.5 46.7 M-32.75 40.75 L-33.0 40.75 Q-33.85 40.75 -34.4 41.3 -35.0 41.9 -35.0 42.7 L-35.0 42.75 Q-35.0 43.4 -34.65 43.9 L-34.4 44.15 -33.55 44.7 -33.0 44.75 Q-32.15 44.75 -31.55 44.15 -31.0 43.6 -31.0 42.75 L-31.1 42.15 -31.2 41.9 Q-31.3 41.55 -31.55 41.3 -32.05 40.85 -32.75 40.75 M-31.2 41.9 L-31.1 42.1 M-34.65 43.9 L-28.75 63.0" fill="none" stroke="#000000" stroke-linecap="round" stroke-linejoin="round" stroke-width="1.5"/>
  </g>
</svg>